  0
SECTION
  2
HEADER
  9
$ACADVER
  1
AC1009
  0
ENDSEC
  0
SECTION
  2
ENTITIES
  0
POLYLINE
  5
90
  8
Layer_2
  62
1
  70
1
  66
1
  10
0
  20
0
  30
0
  0
VERTEX
  5
90
  8
Layer_2
  10
125.10374
  20
142.99384
  0
VERTEX
  5
91
  8
Layer_2
  10
125.10374
  20
188.49417
  0
VERTEX
  5
92
  8
Layer_2
  10
131.45395
  20
188.49417
  0
VERTEX
  5
93
  8
Layer_2
  10
131.45395
  20
191.33794
  0
VERTEX
  5
94
  8
Layer_2
  10
139.07422
  20
191.33794
  0
VERTEX
  5
95
  8
Layer_2
  10
139.07422
  20
188.49417
  0
VERTEX
  5
96
  8
Layer_2
  10
163.20499
  20
188.49417
  0
VERTEX
  5
97
  8
Layer_2
  10
163.20499
  20
191.33794
  0
VERTEX
  5
98
  8
Layer_2
  10
170.82526
  20
191.33794
  0
VERTEX
  5
99
  8
Layer_2
  10
170.82526
  20
188.49417
  0
VERTEX
  5
9a
  8
Layer_2
  10
203.84634
  20
188.49417
  0
VERTEX
  5
9b
  8
Layer_2
  10
203.84634
  20
191.33794
  0
VERTEX
  5
9c
  8
Layer_2
  10
211.46658
  20
191.33794
  0
VERTEX
  5
9d
  8
Layer_2
  10
211.46658
  20
188.49417
  0
VERTEX
  5
9e
  8
Layer_2
  10
235.59735
  20
188.49417
  0
VERTEX
  5
9f
  8
Layer_2
  10
235.59735
  20
191.33794
  0
VERTEX
  5
a0
  8
Layer_2
  10
243.21762
  20
191.33794
  0
VERTEX
  5
a1
  8
Layer_2
  10
243.21762
  20
188.49417
  0
VERTEX
  5
a2
  8
Layer_2
  10
249.56781
  20
188.49417
  0
VERTEX
  5
a3
  8
Layer_2
  10
249.56781
  20
142.99384
  0
VERTEX
  5
a4
  8
Layer_2
  10
243.21762
  20
142.99384
  0
VERTEX
  5
a5
  8
Layer_2
  10
243.21762
  20
140.15005
  0
VERTEX
  5
a6
  8
Layer_2
  10
235.59735
  20
140.15005
  0
VERTEX
  5
a7
  8
Layer_2
  10
235.59735
  20
142.99384
  0
VERTEX
  5
a8
  8
Layer_2
  10
211.46658
  20
142.99384
  0
VERTEX
  5
a9
  8
Layer_2
  10
211.46658
  20
140.15005
  0
VERTEX
  5
aa
  8
Layer_2
  10
203.84634
  20
140.15005
  0
VERTEX
  5
ab
  8
Layer_2
  10
203.84634
  20
142.99384
  0
VERTEX
  5
ac
  8
Layer_2
  10
170.82526
  20
142.99384
  0
VERTEX
  5
ad
  8
Layer_2
  10
170.82526
  20
140.15005
  0
VERTEX
  5
ae
  8
Layer_2
  10
163.20499
  20
140.15005
  0
VERTEX
  5
af
  8
Layer_2
  10
163.20499
  20
142.99384
  0
VERTEX
  5
b0
  8
Layer_2
  10
139.07422
  20
142.99384
  0
VERTEX
  5
b1
  8
Layer_2
  10
139.07422
  20
140.15005
  0
VERTEX
  5
b2
  8
Layer_2
  10
131.45395
  20
140.15005
  0
VERTEX
  5
b3
  8
Layer_2
  10
131.45395
  20
142.99384
  0
VERTEX
  5
b4
  8
Layer_2
  10
125.10374
  20
142.99384
  0
SEQEND
  0
POLYLINE
  5
b6
  8
Layer_2
  62
1
  70
1
  66
1
  10
0
  20
0
  30
0
  0
VERTEX
  5
b6
  8
Layer_2
  10
236.86578
  20
153.04417
  0
VERTEX
  5
b7
  8
Layer_2
  10
235.43359
  20
153.04417
  0
VERTEX
  5
b8
  8
Layer_2
  10
235.21516
  20
153.33212
  0
VERTEX
  5
b9
  8
Layer_2
  10
234.97707
  20
153.59833
  0
VERTEX
  5
ba
  8
Layer_2
  10
234.72089
  20
153.84225
  0
VERTEX
  5
bb
  8
Layer_2
  10
234.44817
  20
154.06339
  0
VERTEX
  5
bc
  8
Layer_2
  10
234.16049
  20
154.26115
  0
VERTEX
  5
bd
  8
Layer_2
  10
233.85941
  20
154.43504
  0
VERTEX
  5
be
  8
Layer_2
  10
233.54651
  20
154.58452
  0
VERTEX
  5
bf
  8
Layer_2
  10
233.22333
  20
154.70903
  0
VERTEX
  5
c0
  8
Layer_2
  10
232.89145
  20
154.80806
  0
VERTEX
  5
c1
  8
Layer_2
  10
232.55246
  20
154.88107
  0
VERTEX
  5
c2
  8
Layer_2
  10
232.20789
  20
154.92755
  0
VERTEX
  5
c3
  8
Layer_2
  10
231.85933
  20
154.94693
  0
VERTEX
  5
c4
  8
Layer_2
  10
231.50833
  20
154.93869
  0
VERTEX
  5
c5
  8
Layer_2
  10
231.15648
  20
154.90228
  0
VERTEX
  5
c6
  8
Layer_2
  10
230.80531
  20
154.83719
  0
VERTEX
  5
c7
  8
Layer_2
  10
230.45642
  20
154.74287
  0
VERTEX
  5
c8
  8
Layer_2
  10
230.11627
  20
154.62068
  0
VERTEX
  5
c9
  8
Layer_2
  10
229.79097
  20
154.47322
  0
VERTEX
  5
ca
  8
Layer_2
  10
229.48151
  20
154.30185
  0
VERTEX
  5
cb
  8
Layer_2
  10
229.18887
  20
154.10785
  0
VERTEX
  5
cc
  8
Layer_2
  10
228.91402
  20
153.89259
  0
VERTEX
  5
cd
  8
Layer_2
  10
228.65794
  20
153.65742
  0
VERTEX
  5
ce
  8
Layer_2
  10
228.4216
  20
153.40366
  0
VERTEX
  5
cf
  8
Layer_2
  10
228.20602
  20
153.1326
  0
VERTEX
  5
d0
  8
Layer_2
  10
228.01215
  20
152.84561
  0
VERTEX
  5
d1
  8
Layer_2
  10
227.84094
  20
152.54404
  0
VERTEX
  5
d2
  8
Layer_2
  10
227.69341
  20
152.2292
  0
VERTEX
  5
d3
  8
Layer_2
  10
227.57053
  20
151.90244
  0
VERTEX
  5
d4
  8
Layer_2
  10
227.47327
  20
151.56506
  0
VERTEX
  5
d5
  8
Layer_2
  10
227.40263
  20
151.21846
  0
VERTEX
  5
d6
  8
Layer_2
  10
227.35959
  20
150.86391
  0
VERTEX
  5
d7
  8
Layer_2
  10
227.34509
  20
150.50276
  0
VERTEX
  5
d8
  8
Layer_2
  10
227.35983
  20
150.14163
  0
VERTEX
  5
d9
  8
Layer_2
  10
227.40312
  20
149.78712
  0
VERTEX
  5
da
  8
Layer_2
  10
227.474
  20
149.44055
  0
VERTEX
  5
db
  8
Layer_2
  10
227.57144
  20
149.10324
  0
VERTEX
  5
dc
  8
Layer_2
  10
227.69452
  20
148.77655
  0
VERTEX
  5
dd
  8
Layer_2
  10
227.84225
  20
148.46179
  0
VERTEX
  5
de
  8
Layer_2
  10
228.01361
  20
148.16032
  0
VERTEX
  5
df
  8
Layer_2
  10
228.20767
  20
147.87347
  0
VERTEX
  5
e0
  8
Layer_2
  10
228.42342
  20
147.60257
  0
VERTEX
  5
e1
  8
Layer_2
  10
228.65988
  20
147.34892
  0
VERTEX
  5
e2
  8
Layer_2
  10
228.91609
  20
147.11389
  0
VERTEX
  5
e3
  8
Layer_2
  10
229.19107
  20
146.8988
  0
VERTEX
  5
e4
  8
Layer_2
  10
229.48383
  20
146.70499
  0
VERTEX
  5
e5
  8
Layer_2
  10
229.7934
  20
146.5338
  0
VERTEX
  5
e6
  8
Layer_2
  10
230.11877
  20
146.38654
  0
VERTEX
  5
e7
  8
Layer_2
  10
230.45901
  20
146.26456
  0
VERTEX
  5
e8
  8
Layer_2
  10
230.80795
  20
146.17044
  0
VERTEX
  5
e9
  8
Layer_2
  10
231.15912
  20
146.10551
  0
VERTEX
  5
ea
  8
Layer_2
  10
231.51096
  20
146.06924
  0
VERTEX
  5
eb
  8
Layer_2
  10
231.86185
  20
146.06107
  0
VERTEX
  5
ec
  8
Layer_2
  10
232.2103
  20
146.08051
  0
VERTEX
  5
ed
  8
Layer_2
  10
232.55469
  20
146.127
  0
VERTEX
  5
ee
  8
Layer_2
  10
232.89349
  20
146.20003
  0
VERTEX
  5
ef
  8
Layer_2
  10
233.22516
  20
146.29907
  0
VERTEX
  5
f0
  8
Layer_2
  10
233.5481
  20
146.42358
  0
VERTEX
  5
f1
  8
Layer_2
  10
233.86078
  20
146.57306
  0
VERTEX
  5
f2
  8
Layer_2
  10
234.16162
  20
146.74695
  0
VERTEX
  5
f3
  8
Layer_2
  10
234.44905
  20
146.94472
  0
VERTEX
  5
f4
  8
Layer_2
  10
234.72153
  20
147.16586
  0
VERTEX
  5
f5
  8
Layer_2
  10
234.97749
  20
147.40982
  0
VERTEX
  5
f6
  8
Layer_2
  10
235.21536
  20
147.67612
  0
VERTEX
  5
f7
  8
Layer_2
  10
235.43362
  20
147.96417
  0
VERTEX
  5
f8
  8
Layer_2
  10
236.86581
  20
147.96417
  0
VERTEX
  5
f9
  8
Layer_2
  10
237.2023
  20
147.98651
  0
VERTEX
  5
fa
  8
Layer_2
  10
237.52859
  20
148.05209
  0
VERTEX
  5
fb
  8
Layer_2
  10
237.84102
  20
148.15881
  0
VERTEX
  5
fc
  8
Layer_2
  10
238.13586
  20
148.30447
  0
VERTEX
  5
fd
  8
Layer_2
  10
238.40942
  20
148.48698
  0
VERTEX
  5
fe
  8
Layer_2
  10
238.65802
  20
148.70421
  0
VERTEX
  5
ff
  8
Layer_2
  10
238.87793
  20
148.95398
  0
VERTEX
  5
100
  8
Layer_2
  10
239.06546
  20
149.23418
  0
VERTEX
  5
101
  8
Layer_2
  10
239.21432
  20
149.53671
  0
VERTEX
  5
102
  8
Layer_2
  10
239.32065
  20
149.85208
  0
VERTEX
  5
103
  8
Layer_2
  10
239.38445
  20
150.17599
  0
VERTEX
  5
104
  8
Layer_2
  10
239.4057
  20
150.50418
  0
VERTEX
  5
105
  8
Layer_2
  10
239.38445
  20
150.83237
  0
VERTEX
  5
106
  8
Layer_2
  10
239.32065
  20
151.15627
  0
VERTEX
  5
107
  8
Layer_2
  10
239.21432
  20
151.47162
  0
VERTEX
  5
108
  8
Layer_2
  10
239.06546
  20
151.77417
  0
VERTEX
  5
109
  8
Layer_2
  10
238.87793
  20
152.05438
  0
VERTEX
  5
10a
  8
Layer_2
  10
238.65802
  20
152.30415
  0
VERTEX
  5
10b
  8
Layer_2
  10
238.40942
  20
152.52138
  0
VERTEX
  5
10c
  8
Layer_2
  10
238.13586
  20
152.70389
  0
VERTEX
  5
10d
  8
Layer_2
  10
237.84102
  20
152.84955
  0
VERTEX
  5
10e
  8
Layer_2
  10
237.52859
  20
152.95625
  0
VERTEX
  5
10f
  8
Layer_2
  10
237.2023
  20
153.02185
  0
VERTEX
  5
110
  8
Layer_2
  10
236.86578
  20
153.04417
  0
SEQEND
  0
POLYLINE
  5
112
  8
Layer_2
  62
1
  70
1
  66
1
  10
0
  20
0
  30
0
  0
VERTEX
  5
112
  8
Layer_2
  10
236.86578
  20
183.52417
  0
VERTEX
  5
113
  8
Layer_2
  10
235.43359
  20
183.52417
  0
VERTEX
  5
114
  8
Layer_2
  10
235.21516
  20
183.81212
  0
VERTEX
  5
115
  8
Layer_2
  10
234.97707
  20
184.07832
  0
VERTEX
  5
116
  8
Layer_2
  10
234.72089
  20
184.32225
  0
VERTEX
  5
117
  8
Layer_2
  10
234.44817
  20
184.54337
  0
VERTEX
  5
118
  8
Layer_2
  10
234.16049
  20
184.74113
  0
VERTEX
  5
119
  8
Layer_2
  10
233.85941
  20
184.91502
  0
VERTEX
  5
11a
  8
Layer_2
  10
233.54651
  20
185.0645
  0
VERTEX
  5
11b
  8
Layer_2
  10
233.22333
  20
185.18903
  0
VERTEX
  5
11c
  8
Layer_2
  10
232.89145
  20
185.28807
  0
VERTEX
  5
11d
  8
Layer_2
  10
232.55246
  20
185.36108
  0
VERTEX
  5
11e
  8
Layer_2
  10
232.20789
  20
185.40753
  0
VERTEX
  5
11f
  8
Layer_2
  10
231.85933
  20
185.42691
  0
VERTEX
  5
120
  8
Layer_2
  10
231.50833
  20
185.41867
  0
VERTEX
  5
121
  8
Layer_2
  10
231.15648
  20
185.38228
  0
VERTEX
  5
122
  8
Layer_2
  10
230.80531
  20
185.31718
  0
VERTEX
  5
123
  8
Layer_2
  10
230.45642
  20
185.22287
  0
VERTEX
  5
124
  8
Layer_2
  10
230.11627
  20
185.10068
  0
VERTEX
  5
125
  8
Layer_2
  10
229.79097
  20
184.95323
  0
VERTEX
  5
126
  8
Layer_2
  10
229.48151
  20
184.78186
  0
VERTEX
  5
127
  8
Layer_2
  10
229.18887
  20
184.58786
  0
VERTEX
  5
128
  8
Layer_2
  10
228.91402
  20
184.3726
  0
VERTEX
  5
129
  8
Layer_2
  10
228.65794
  20
184.13742
  0
VERTEX
  5
12a
  8
Layer_2
  10
228.4216
  20
183.88364
  0
VERTEX
  5
12b
  8
Layer_2
  10
228.20602
  20
183.61259
  0
VERTEX
  5
12c
  8
Layer_2
  10
228.01215
  20
183.32562
  0
VERTEX
  5
12d
  8
Layer_2
  10
227.84094
  20
183.02405
  0
VERTEX
  5
12e
  8
Layer_2
  10
227.69341
  20
182.70921
  0
VERTEX
  5
12f
  8
Layer_2
  10
227.57053
  20
182.38245
  0
VERTEX
  5
130
  8
Layer_2
  10
227.47327
  20
182.04507
  0
VERTEX
  5
131
  8
Layer_2
  10
227.40263
  20
181.69847
  0
VERTEX
  5
132
  8
Layer_2
  10
227.35959
  20
181.34392
  0
VERTEX
  5
133
  8
Layer_2
  10
227.34509
  20
180.98277
  0
VERTEX
  5
134
  8
Layer_2
  10
227.35983
  20
180.62164
  0
VERTEX
  5
135
  8
Layer_2
  10
227.40312
  20
180.26712
  0
VERTEX
  5
136
  8
Layer_2
  10
227.474
  20
179.92053
  0
VERTEX
  5
137
  8
Layer_2
  10
227.57144
  20
179.58324
  0
VERTEX
  5
138
  8
Layer_2
  10
227.69452
  20
179.25655
  0
VERTEX
  5
139
  8
Layer_2
  10
227.84225
  20
178.9418
  0
VERTEX
  5
13a
  8
Layer_2
  10
228.01361
  20
178.64034
  0
VERTEX
  5
13b
  8
Layer_2
  10
228.20767
  20
178.35349
  0
VERTEX
  5
13c
  8
Layer_2
  10
228.42342
  20
178.08258
  0
VERTEX
  5
13d
  8
Layer_2
  10
228.65988
  20
177.82893
  0
VERTEX
  5
13e
  8
Layer_2
  10
228.91609
  20
177.5939
  0
VERTEX
  5
13f
  8
Layer_2
  10
229.19107
  20
177.37881
  0
VERTEX
  5
140
  8
Layer_2
  10
229.48383
  20
177.185
  0
VERTEX
  5
141
  8
Layer_2
  10
229.7934
  20
177.01381
  0
VERTEX
  5
142
  8
Layer_2
  10
230.11877
  20
176.86655
  0
VERTEX
  5
143
  8
Layer_2
  10
230.45901
  20
176.74457
  0
VERTEX
  5
144
  8
Layer_2
  10
230.80795
  20
176.65045
  0
VERTEX
  5
145
  8
Layer_2
  10
231.15912
  20
176.58553
  0
VERTEX
  5
146
  8
Layer_2
  10
231.51096
  20
176.54926
  0
VERTEX
  5
147
  8
Layer_2
  10
231.86185
  20
176.54108
  0
VERTEX
  5
148
  8
Layer_2
  10
232.2103
  20
176.56052
  0
VERTEX
  5
149
  8
Layer_2
  10
232.55469
  20
176.60701
  0
VERTEX
  5
14a
  8
Layer_2
  10
232.89349
  20
176.68004
  0
VERTEX
  5
14b
  8
Layer_2
  10
233.22516
  20
176.77908
  0
VERTEX
  5
14c
  8
Layer_2
  10
233.5481
  20
176.90359
  0
VERTEX
  5
14d
  8
Layer_2
  10
233.86078
  20
177.05307
  0
VERTEX
  5
14e
  8
Layer_2
  10
234.16162
  20
177.22696
  0
VERTEX
  5
14f
  8
Layer_2
  10
234.44905
  20
177.42473
  0
VERTEX
  5
150
  8
Layer_2
  10
234.72153
  20
177.64587
  0
VERTEX
  5
151
  8
Layer_2
  10
234.97749
  20
177.88983
  0
VERTEX
  5
152
  8
Layer_2
  10
235.21536
  20
178.15613
  0
VERTEX
  5
153
  8
Layer_2
  10
235.43362
  20
178.44418
  0
VERTEX
  5
154
  8
Layer_2
  10
236.86581
  20
178.44418
  0
VERTEX
  5
155
  8
Layer_2
  10
237.2023
  20
178.46652
  0
VERTEX
  5
156
  8
Layer_2
  10
237.52859
  20
178.5321
  0
VERTEX
  5
157
  8
Layer_2
  10
237.84102
  20
178.63882
  0
VERTEX
  5
158
  8
Layer_2
  10
238.13586
  20
178.78448
  0
VERTEX
  5
159
  8
Layer_2
  10
238.40942
  20
178.967
  0
VERTEX
  5
15a
  8
Layer_2
  10
238.65802
  20
179.18422
  0
VERTEX
  5
15b
  8
Layer_2
  10
238.87793
  20
179.43399
  0
VERTEX
  5
15c
  8
Layer_2
  10
239.06546
  20
179.71419
  0
VERTEX
  5
15d
  8
Layer_2
  10
239.21432
  20
180.01672
  0
VERTEX
  5
15e
  8
Layer_2
  10
239.32065
  20
180.33209
  0
VERTEX
  5
15f
  8
Layer_2
  10
239.38445
  20
180.65601
  0
VERTEX
  5
160
  8
Layer_2
  10
239.4057
  20
180.98419
  0
VERTEX
  5
161
  8
Layer_2
  10
239.38445
  20
181.31238
  0
VERTEX
  5
162
  8
Layer_2
  10
239.32065
  20
181.63628
  0
VERTEX
  5
163
  8
Layer_2
  10
239.21432
  20
181.95163
  0
VERTEX
  5
164
  8
Layer_2
  10
239.06546
  20
182.25418
  0
VERTEX
  5
165
  8
Layer_2
  10
238.87793
  20
182.53439
  0
VERTEX
  5
166
  8
Layer_2
  10
238.65802
  20
182.78416
  0
VERTEX
  5
167
  8
Layer_2
  10
238.40942
  20
183.00139
  0
VERTEX
  5
168
  8
Layer_2
  10
238.13586
  20
183.1839
  0
VERTEX
  5
169
  8
Layer_2
  10
237.84102
  20
183.32956
  0
VERTEX
  5
16a
  8
Layer_2
  10
237.52859
  20
183.43626
  0
VERTEX
  5
16b
  8
Layer_2
  10
237.2023
  20
183.50186
  0
VERTEX
  5
16c
  8
Layer_2
  10
236.86578
  20
183.52417
  0
SEQEND
  0
POLYLINE
  5
16e
  8
Layer_2
  62
1
  70
1
  66
1
  10
0
  20
0
  30
0
  0
VERTEX
  5
16e
  8
Layer_2
  10
121.40366
  20
188.49416
  0
VERTEX
  5
16f
  8
Layer_2
  10
121.40366
  20
142.99384
  0
VERTEX
  5
170
  8
Layer_2
  10
112.51334
  20
142.99384
  0
VERTEX
  5
171
  8
Layer_2
  10
112.51334
  20
140.15005
  0
VERTEX
  5
172
  8
Layer_2
  10
104.89306
  20
140.15005
  0
VERTEX
  5
173
  8
Layer_2
  10
104.89306
  20
142.99384
  0
VERTEX
  5
174
  8
Layer_2
  10
79.492104
  20
142.99384
  0
VERTEX
  5
175
  8
Layer_2
  10
79.492104
  20
140.15005
  0
VERTEX
  5
176
  8
Layer_2
  10
71.871834
  20
140.15005
  0
VERTEX
  5
177
  8
Layer_2
  10
71.871834
  20
142.99384
  0
VERTEX
  5
178
  8
Layer_2
  10
46.470879
  20
142.99384
  0
VERTEX
  5
179
  8
Layer_2
  10
46.470879
  20
140.15005
  0
VERTEX
  5
17a
  8
Layer_2
  10
38.850594
  20
140.15005
  0
VERTEX
  5
17b
  8
Layer_2
  10
38.850594
  20
142.99384
  0
VERTEX
  5
17c
  8
Layer_2
  10
26.150124
  20
142.99384
  0
VERTEX
  5
17d
  8
Layer_2
  10
26.150124
  20
140.15005
  0
VERTEX
  5
17e
  8
Layer_2
  10
18.529839
  20
140.15005
  0
VERTEX
  5
17f
  8
Layer_2
  10
18.529839
  20
142.99384
  0
VERTEX
  5
180
  8
Layer_2
  10
11.95639
  20
142.99384
  0
VERTEX
  5
181
  8
Layer_2
  10
11.95639
  20
188.49416
  0
VERTEX
  5
182
  8
Layer_2
  10
18.529839
  20
188.49416
  0
VERTEX
  5
183
  8
Layer_2
  10
18.529839
  20
191.33792
  0
VERTEX
  5
184
  8
Layer_2
  10
26.150124
  20
191.33792
  0
VERTEX
  5
185
  8
Layer_2
  10
26.150124
  20
188.49416
  0
VERTEX
  5
186
  8
Layer_2
  10
38.850594
  20
188.49416
  0
VERTEX
  5
187
  8
Layer_2
  10
38.850594
  20
191.33792
  0
VERTEX
  5
188
  8
Layer_2
  10
46.470879
  20
191.33792
  0
VERTEX
  5
189
  8
Layer_2
  10
46.470879
  20
188.49416
  0
VERTEX
  5
18a
  8
Layer_2
  10
71.871834
  20
188.49416
  0
VERTEX
  5
18b
  8
Layer_2
  10
71.871834
  20
191.33792
  0
VERTEX
  5
18c
  8
Layer_2
  10
79.492104
  20
191.33792
  0
VERTEX
  5
18d
  8
Layer_2
  10
79.492104
  20
188.49416
  0
VERTEX
  5
18e
  8
Layer_2
  10
104.89306
  20
188.49416
  0
VERTEX
  5
18f
  8
Layer_2
  10
104.89306
  20
191.33792
  0
VERTEX
  5
190
  8
Layer_2
  10
112.51333
  20
191.33792
  0
VERTEX
  5
191
  8
Layer_2
  10
112.51333
  20
188.49416
  0
VERTEX
  5
192
  8
Layer_2
  10
121.40366
  20
188.49416
  0
SEQEND
  0
POLYLINE
  5
194
  8
Layer_2
  62
1
  70
1
  66
1
  10
0
  20
0
  30
0
  0
VERTEX
  5
194
  8
Layer_2
  10
166.64978
  20
132.74982
  0
VERTEX
  5
195
  8
Layer_2
  10
173
  20
132.74982
  0
VERTEX
  5
196
  8
Layer_2
  10
173
  20
87.249481
  0
VERTEX
  5
197
  8
Layer_2
  10
166.64978
  20
87.249481
  0
VERTEX
  5
198
  8
Layer_2
  10
166.64978
  20
84.405701
  0
VERTEX
  5
199
  8
Layer_2
  10
159.02945
  20
84.405701
  0
VERTEX
  5
19a
  8
Layer_2
  10
159.02945
  20
87.249481
  0
VERTEX
  5
19b
  8
Layer_2
  10
145.7019
  20
87.249481
  0
VERTEX
  5
19c
  8
Layer_2
  10
145.7019
  20
84.405701
  0
VERTEX
  5
19d
  8
Layer_2
  10
138.08157
  20
84.405701
  0
VERTEX
  5
19e
  8
Layer_2
  10
138.08157
  20
87.249481
  0
VERTEX
  5
19f
  8
Layer_2
  10
131.73131
  20
87.249481
  0
VERTEX
  5
1a0
  8
Layer_2
  10
131.73131
  20
132.74982
  0
VERTEX
  5
1a1
  8
Layer_2
  10
138.08157
  20
132.74982
  0
VERTEX
  5
1a2
  8
Layer_2
  10
138.08157
  20
135.5936
  0
VERTEX
  5
1a3
  8
Layer_2
  10
145.7019
  20
135.5936
  0
VERTEX
  5
1a4
  8
Layer_2
  10
145.7019
  20
132.74982
  0
VERTEX
  5
1a5
  8
Layer_2
  10
159.02945
  20
132.74982
  0
VERTEX
  5
1a6
  8
Layer_2
  10
159.02945
  20
135.5936
  0
VERTEX
  5
1a7
  8
Layer_2
  10
166.64977
  20
135.5936
  0
VERTEX
  5
1a8
  8
Layer_2
  10
166.64978
  20
132.74982
  0
SEQEND
  0
POLYLINE
  5
1aa
  8
Layer_2
  62
1
  70
1
  66
1
  10
0
  20
0
  30
0
  0
VERTEX
  5
1aa
  8
Layer_2
  10
117.81038
  20
132.15594
  0
VERTEX
  5
1ab
  8
Layer_2
  10
124.161
  20
132.15594
  0
VERTEX
  5
1ac
  8
Layer_2
  10
124.161
  20
86.655609
  0
VERTEX
  5
1ad
  8
Layer_2
  10
117.81038
  20
86.655609
  0
VERTEX
  5
1ae
  8
Layer_2
  10
117.81038
  20
83.811859
  0
VERTEX
  5
1af
  8
Layer_2
  10
110.18964
  20
83.811859
  0
VERTEX
  5
1b0
  8
Layer_2
  10
110.18964
  20
86.655609
  0
VERTEX
  5
1b1
  8
Layer_2
  10
95.873657
  20
86.655609
  0
VERTEX
  5
1b2
  8
Layer_2
  10
95.873657
  20
83.811859
  0
VERTEX
  5
1b3
  8
Layer_2
  10
88.25293
  20
83.811859
  0
VERTEX
  5
1b4
  8
Layer_2
  10
88.25293
  20
86.655609
  0
VERTEX
  5
1b5
  8
Layer_2
  10
81.902328
  20
86.655609
  0
VERTEX
  5
1b6
  8
Layer_2
  10
81.902328
  20
132.15594
  0
VERTEX
  5
1b7
  8
Layer_2
  10
88.25293
  20
132.15594
  0
VERTEX
  5
1b8
  8
Layer_2
  10
88.25293
  20
134.99973
  0
VERTEX
  5
1b9
  8
Layer_2
  10
95.873657
  20
134.99973
  0
VERTEX
  5
1ba
  8
Layer_2
  10
95.873657
  20
132.15594
  0
VERTEX
  5
1bb
  8
Layer_2
  10
110.18964
  20
132.15594
  0
VERTEX
  5
1bc
  8
Layer_2
  10
110.18964
  20
134.99969
  0
VERTEX
  5
1bd
  8
Layer_2
  10
117.81038
  20
134.99969
  0
VERTEX
  5
1be
  8
Layer_2
  10
117.81038
  20
132.15594
  0
SEQEND
  0
POLYLINE
  5
1c0
  8
Layer_2
  62
1
  70
1
  66
1
  10
0
  20
0
  30
0
  0
VERTEX
  5
1c0
  8
Layer_2
  10
173.00005
  20
32.681488
  0
VERTEX
  5
1c1
  8
Layer_2
  10
166.64978
  20
32.681488
  0
VERTEX
  5
1c2
  8
Layer_2
  10
166.64978
  20
29.837708
  0
VERTEX
  5
1c3
  8
Layer_2
  10
159.02945
  20
29.837708
  0
VERTEX
  5
1c4
  8
Layer_2
  10
159.02945
  20
32.681488
  0
VERTEX
  5
1c5
  8
Layer_2
  10
145.70189
  20
32.681488
  0
VERTEX
  5
1c6
  8
Layer_2
  10
145.70189
  20
29.837708
  0
VERTEX
  5
1c7
  8
Layer_2
  10
138.08157
  20
29.837708
  0
VERTEX
  5
1c8
  8
Layer_2
  10
138.08157
  20
32.681488
  0
VERTEX
  5
1c9
  8
Layer_2
  10
131.73131
  20
32.681488
  0
VERTEX
  5
1ca
  8
Layer_2
  10
131.73131
  20
78.181824
  0
VERTEX
  5
1cb
  8
Layer_2
  10
138.08157
  20
78.181824
  0
VERTEX
  5
1cc
  8
Layer_2
  10
138.08157
  20
81.025604
  0
VERTEX
  5
1cd
  8
Layer_2
  10
145.70189
  20
81.025604
  0
VERTEX
  5
1ce
  8
Layer_2
  10
145.70189
  20
78.181824
  0
VERTEX
  5
1cf
  8
Layer_2
  10
159.02945
  20
78.181824
  0
VERTEX
  5
1d0
  8
Layer_2
  10
159.02945
  20
81.025604
  0
VERTEX
  5
1d1
  8
Layer_2
  10
166.64977
  20
81.025604
  0
VERTEX
  5
1d2
  8
Layer_2
  10
166.64977
  20
78.181824
  0
VERTEX
  5
1d3
  8
Layer_2
  10
173.00003
  20
78.181824
  0
VERTEX
  5
1d4
  8
Layer_2
  10
173.00005
  20
32.681488
  0
SEQEND
  0
POLYLINE
  5
1d6
  8
Layer_2
  62
1
  70
1
  66
1
  10
0
  20
0
  30
0
  0
VERTEX
  5
1d6
  8
Layer_2
  10
148.6181
  20
26.998993
  0
VERTEX
  5
1d7
  8
Layer_2
  10
148.62115
  20
25.177795
  0
VERTEX
  5
1d8
  8
Layer_2
  10
145.78116
  20
25.184021
  0
VERTEX
  5
1d9
  8
Layer_2
  10
145.77118
  20
20.640015
  0
VERTEX
  5
1da
  8
Layer_2
  10
100.26726
  20
20.73996
  0
VERTEX
  5
1db
  8
Layer_2
  10
100.27724
  20
25.283966
  0
VERTEX
  5
1dc
  8
Layer_2
  10
97.437241
  20
25.290192
  0
VERTEX
  5
1dd
  8
Layer_2
  10
97.44133
  20
27.147827
  0
VERTEX
  5
1de
  8
Layer_2
  10
100.31429
  20
27.129364
  0
VERTEX
  5
1df
  8
Layer_2
  10
105.79028
  20
27.201447
  0
VERTEX
  5
1e0
  8
Layer_2
  10
106.13943
  20
27.210419
  0
VERTEX
  5
1e1
  8
Layer_2
  10
106.4877
  20
27.251404
  0
VERTEX
  5
1e2
  8
Layer_2
  10
106.83641
  20
27.322327
  0
VERTEX
  5
1e3
  8
Layer_2
  10
107.18687
  20
27.421021
  0
VERTEX
  5
1e4
  8
Layer_2
  10
107.89844
  20
27.69342
  0
VERTEX
  5
1e5
  8
Layer_2
  10
108.63307
  20
28.051575
  0
VERTEX
  5
1e6
  8
Layer_2
  10
109.40144
  20
28.478607
  0
VERTEX
  5
1e7
  8
Layer_2
  10
110.21422
  20
28.95755
  0
VERTEX
  5
1e8
  8
Layer_2
  10
111.08206
  20
29.471497
  0
VERTEX
  5
1e9
  8
Layer_2
  10
112.01565
  20
30.00354
  0
VERTEX
  5
1ea
  8
Layer_2
  10
113.02563
  20
30.536682
  0
VERTEX
  5
1eb
  8
Layer_2
  10
114.12268
  20
31.053986
  0
VERTEX
  5
1ec
  8
Layer_2
  10
114.70718
  20
31.301453
  0
VERTEX
  5
1ed
  8
Layer_2
  10
115.31746
  20
31.538574
  0
VERTEX
  5
1ee
  8
Layer_2
  10
115.95484
  20
31.763275
  0
VERTEX
  5
1ef
  8
Layer_2
  10
116.62065
  20
31.97348
  0
VERTEX
  5
1f0
  8
Layer_2
  10
117.31622
  20
32.167023
  0
VERTEX
  5
1f1
  8
Layer_2
  10
118.04289
  20
32.341766
  0
VERTEX
  5
1f2
  8
Layer_2
  10
118.802
  20
32.495636
  0
VERTEX
  5
1f3
  8
Layer_2
  10
119.59488
  20
32.626495
  0
VERTEX
  5
1f4
  8
Layer_2
  10
120.42285
  20
32.732239
  0
VERTEX
  5
1f5
  8
Layer_2
  10
121.28726
  20
32.81073
  0
VERTEX
  5
1f6
  8
Layer_2
  10
122.18944
  20
32.859924
  0
VERTEX
  5
1f7
  8
Layer_2
  10
123.13071
  20
32.877594
  0
VERTEX
  5
1f8
  8
Layer_2
  10
124.11453
  20
32.860992
  0
VERTEX
  5
1f9
  8
Layer_2
  10
125.04868
  20
32.812012
  0
VERTEX
  5
1fa
  8
Layer_2
  10
125.93527
  20
32.732788
  0
VERTEX
  5
1fb
  8
Layer_2
  10
126.77642
  20
32.625488
  0
VERTEX
  5
1fc
  8
Layer_2
  10
127.57425
  20
32.492249
  0
VERTEX
  5
1fd
  8
Layer_2
  10
128.33089
  20
32.335327
  0
VERTEX
  5
1fe
  8
Layer_2
  10
129.04843
  20
32.156799
  0
VERTEX
  5
1ff
  8
Layer_2
  10
129.72903
  20
31.958893
  0
VERTEX
  5
200
  8
Layer_2
  10
130.37479
  20
31.743713
  0
VERTEX
  5
201
  8
Layer_2
  10
130.98782
  20
31.513489
  0
VERTEX
  5
202
  8
Layer_2
  10
131.57027
  20
31.270325
  0
VERTEX
  5
203
  8
Layer_2
  10
132.12422
  20
31.016418
  0
VERTEX
  5
204
  8
Layer_2
  10
133.15518
  20
30.485046
  0
VERTEX
  5
205
  8
Layer_2
  10
134.09766
  20
29.936646
  0
VERTEX
  5
206
  8
Layer_2
  10
134.96863
  20
29.38858
  0
VERTEX
  5
207
  8
Layer_2
  10
135.78505
  20
28.858154
  0
VERTEX
  5
208
  8
Layer_2
  10
136.56387
  20
28.362732
  0
VERTEX
  5
209
  8
Layer_2
  10
137.32204
  20
27.919586
  0
VERTEX
  5
20a
  8
Layer_2
  10
138.07654
  20
27.546051
  0
VERTEX
  5
20b
  8
Layer_2
  10
138.84433
  20
27.25946
  0
VERTEX
  5
20c
  8
Layer_2
  10
139.23849
  20
27.154175
  0
VERTEX
  5
20d
  8
Layer_2
  10
139.64235
  20
27.077087
  0
VERTEX
  5
20e
  8
Layer_2
  10
140.058
  20
27.030457
  0
VERTEX
  5
20f
  8
Layer_2
  10
140.48758
  20
27.016327
  0
VERTEX
  5
210
  8
Layer_2
  10
145.51285
  20
26.983368
  0
VERTEX
  5
211
  8
Layer_2
  10
148.6181
  20
26.998993
  0
SEQEND
  0
POLYLINE
  5
213
  8
Layer_8
  62
6
  70
1
  66
1
  10
0
  20
0
  30
0
  0
VERTEX
  5
213
  8
Layer_8
  10
299.42868
  20
9.0015259
  0
VERTEX
  5
214
  8
Layer_8
  10
253.92834
  20
9.0015259
  0
VERTEX
  5
215
  8
Layer_8
  10
253.92834
  20
15.351532
  0
VERTEX
  5
216
  8
Layer_8
  10
251.08456
  20
15.351532
  0
VERTEX
  5
217
  8
Layer_8
  10
251.08459
  20
22.971558
  0
VERTEX
  5
218
  8
Layer_8
  10
253.92836
  20
22.971558
  0
VERTEX
  5
219
  8
Layer_8
  10
253.92836
  20
49.64151
  0
VERTEX
  5
21a
  8
Layer_8
  10
251.08459
  20
49.64151
  0
VERTEX
  5
21b
  8
Layer_8
  10
251.08459
  20
57.261536
  0
VERTEX
  5
21c
  8
Layer_8
  10
253.92836
  20
57.261536
  0
VERTEX
  5
21d
  8
Layer_8
  10
253.92836
  20
90.281494
  0
VERTEX
  5
21e
  8
Layer_8
  10
251.08459
  20
90.281525
  0
VERTEX
  5
21f
  8
Layer_8
  10
251.08459
  20
97.90152
  0
VERTEX
  5
220
  8
Layer_8
  10
253.92836
  20
97.901489
  0
VERTEX
  5
221
  8
Layer_8
  10
253.92836
  20
104.25153
  0
VERTEX
  5
222
  8
Layer_8
  10
299.42871
  20
104.25153
  0
VERTEX
  5
223
  8
Layer_8
  10
299.42871
  20
97.901489
  0
VERTEX
  5
224
  8
Layer_8
  10
302.27249
  20
97.901489
  0
VERTEX
  5
225
  8
Layer_8
  10
302.27249
  20
90.281494
  0
VERTEX
  5
226
  8
Layer_8
  10
299.42871
  20
90.281494
  0
VERTEX
  5
227
  8
Layer_8
  10
299.42871
  20
57.261505
  0
VERTEX
  5
228
  8
Layer_8
  10
302.27246
  20
57.261505
  0
VERTEX
  5
229
  8
Layer_8
  10
302.27246
  20
49.641479
  0
VERTEX
  5
22a
  8
Layer_8
  10
299.42871
  20
49.641479
  0
VERTEX
  5
22b
  8
Layer_8
  10
299.42871
  20
22.971497
  0
VERTEX
  5
22c
  8
Layer_8
  10
302.27246
  20
22.971497
  0
VERTEX
  5
22d
  8
Layer_8
  10
302.27246
  20
15.351501
  0
VERTEX
  5
22e
  8
Layer_8
  10
299.42868
  20
15.351501
  0
VERTEX
  5
22f
  8
Layer_8
  10
299.42868
  20
9.0015259
  0
SEQEND
  0
POLYLINE
  5
231
  8
Layer_3
  62
206
  70
1
  66
1
  10
0
  20
0
  30
0
  0
VERTEX
  5
231
  8
Layer_3
  10
292.80017
  20
90.059692
  0
VERTEX
  5
232
  8
Layer_3
  10
271.82159
  20
90.059692
  0
VERTEX
  5
233
  8
Layer_3
  10
271.64111
  20
90.039368
  0
VERTEX
  5
234
  8
Layer_3
  10
271.47296
  20
89.981079
  0
VERTEX
  5
235
  8
Layer_3
  10
271.3208
  20
89.888855
  0
VERTEX
  5
236
  8
Layer_3
  10
271.18823
  20
89.766785
  0
VERTEX
  5
237
  8
Layer_3
  10
271.07886
  20
89.618774
  0
VERTEX
  5
238
  8
Layer_3
  10
270.99628
  20
89.448914
  0
VERTEX
  5
239
  8
Layer_3
  10
270.94409
  20
89.2612
  0
VERTEX
  5
23a
  8
Layer_3
  10
270.9259
  20
89.059692
  0
VERTEX
  5
23b
  8
Layer_3
  10
270.9259
  20
87.059692
  0
VERTEX
  5
23c
  8
Layer_3
  10
270.94409
  20
86.858185
  0
VERTEX
  5
23d
  8
Layer_3
  10
270.99628
  20
86.670471
  0
VERTEX
  5
23e
  8
Layer_3
  10
271.07886
  20
86.50061
  0
VERTEX
  5
23f
  8
Layer_3
  10
271.18823
  20
86.3526
  0
VERTEX
  5
240
  8
Layer_3
  10
271.3208
  20
86.23053
  0
VERTEX
  5
241
  8
Layer_3
  10
271.47296
  20
86.138306
  0
VERTEX
  5
242
  8
Layer_3
  10
271.64111
  20
86.080017
  0
VERTEX
  5
243
  8
Layer_3
  10
271.82159
  20
86.059692
  0
VERTEX
  5
244
  8
Layer_3
  10
292.80017
  20
86.059692
  0
VERTEX
  5
245
  8
Layer_3
  10
292.98065
  20
86.080017
  0
VERTEX
  5
246
  8
Layer_3
  10
293.1488
  20
86.138306
  0
VERTEX
  5
247
  8
Layer_3
  10
293.30096
  20
86.23053
  0
VERTEX
  5
248
  8
Layer_3
  10
293.43353
  20
86.3526
  0
VERTEX
  5
249
  8
Layer_3
  10
293.54291
  20
86.50061
  0
VERTEX
  5
24a
  8
Layer_3
  10
293.62549
  20
86.670471
  0
VERTEX
  5
24b
  8
Layer_3
  10
293.67767
  20
86.858185
  0
VERTEX
  5
24c
  8
Layer_3
  10
293.69586
  20
87.059692
  0
VERTEX
  5
24d
  8
Layer_3
  10
293.69586
  20
89.059692
  0
VERTEX
  5
24e
  8
Layer_3
  10
293.67767
  20
89.2612
  0
VERTEX
  5
24f
  8
Layer_3
  10
293.62549
  20
89.448914
  0
VERTEX
  5
250
  8
Layer_3
  10
293.54291
  20
89.618774
  0
VERTEX
  5
251
  8
Layer_3
  10
293.43353
  20
89.766785
  0
VERTEX
  5
252
  8
Layer_3
  10
293.30096
  20
89.888855
  0
VERTEX
  5
253
  8
Layer_3
  10
293.1488
  20
89.981079
  0
VERTEX
  5
254
  8
Layer_3
  10
292.98065
  20
90.039368
  0
VERTEX
  5
255
  8
Layer_3
  10
292.80017
  20
90.059692
  0
SEQEND
  0
POLYLINE
  5
257
  8
Layer_3
  62
206
  70
1
  66
1
  10
0
  20
0
  30
0
  0
VERTEX
  5
257
  8
Layer_3
  10
293.34027
  20
60.570709
  0
VERTEX
  5
258
  8
Layer_3
  10
272.36169
  20
60.570709
  0
VERTEX
  5
259
  8
Layer_3
  10
272.18121
  20
60.550385
  0
VERTEX
  5
25a
  8
Layer_3
  10
272.01306
  20
60.492126
  0
VERTEX
  5
25b
  8
Layer_3
  10
271.8609
  20
60.399902
  0
VERTEX
  5
25c
  8
Layer_3
  10
271.72833
  20
60.277832
  0
VERTEX
  5
25d
  8
Layer_3
  10
271.61896
  20
60.129822
  0
VERTEX
  5
25e
  8
Layer_3
  10
271.53638
  20
59.959961
  0
VERTEX
  5
25f
  8
Layer_3
  10
271.48419
  20
59.772247
  0
VERTEX
  5
260
  8
Layer_3
  10
271.466
  20
59.570709
  0
VERTEX
  5
261
  8
Layer_3
  10
271.466
  20
57.570709
  0
VERTEX
  5
262
  8
Layer_3
  10
271.48419
  20
57.369171
  0
VERTEX
  5
263
  8
Layer_3
  10
271.53638
  20
57.181458
  0
VERTEX
  5
264
  8
Layer_3
  10
271.61896
  20
57.011597
  0
VERTEX
  5
265
  8
Layer_3
  10
271.72833
  20
56.863586
  0
VERTEX
  5
266
  8
Layer_3
  10
271.8609
  20
56.741516
  0
VERTEX
  5
267
  8
Layer_3
  10
272.01306
  20
56.649292
  0
VERTEX
  5
268
  8
Layer_3
  10
272.18121
  20
56.591034
  0
VERTEX
  5
269
  8
Layer_3
  10
272.36169
  20
56.570709
  0
VERTEX
  5
26a
  8
Layer_3
  10
293.34027
  20
56.570709
  0
VERTEX
  5
26b
  8
Layer_3
  10
293.52075
  20
56.591034
  0
VERTEX
  5
26c
  8
Layer_3
  10
293.6889
  20
56.649292
  0
VERTEX
  5
26d
  8
Layer_3
  10
293.84106
  20
56.741516
  0
VERTEX
  5
26e
  8
Layer_3
  10
293.97363
  20
56.863586
  0
VERTEX
  5
26f
  8
Layer_3
  10
294.08301
  20
57.011597
  0
VERTEX
  5
270
  8
Layer_3
  10
294.16559
  20
57.181458
  0
VERTEX
  5
271
  8
Layer_3
  10
294.21777
  20
57.369171
  0
VERTEX
  5
272
  8
Layer_3
  10
294.23596
  20
57.570709
  0
VERTEX
  5
273
  8
Layer_3
  10
294.23596
  20
59.570709
  0
VERTEX
  5
274
  8
Layer_3
  10
294.21777
  20
59.772247
  0
VERTEX
  5
275
  8
Layer_3
  10
294.16559
  20
59.959961
  0
VERTEX
  5
276
  8
Layer_3
  10
294.08301
  20
60.129822
  0
VERTEX
  5
277
  8
Layer_3
  10
293.97363
  20
60.277832
  0
VERTEX
  5
278
  8
Layer_3
  10
293.84106
  20
60.399902
  0
VERTEX
  5
279
  8
Layer_3
  10
293.6889
  20
60.492126
  0
VERTEX
  5
27a
  8
Layer_3
  10
293.52075
  20
60.550385
  0
VERTEX
  5
27b
  8
Layer_3
  10
293.34027
  20
60.570709
  0
SEQEND
  0
POLYLINE
  5
27d
  8
Layer_3
  62
206
  70
1
  66
1
  10
0
  20
0
  30
0
  0
VERTEX
  5
27d
  8
Layer_3
  10
293.82663
  20
38.060699
  0
VERTEX
  5
27e
  8
Layer_3
  10
272.84805
  20
38.060699
  0
VERTEX
  5
27f
  8
Layer_3
  10
272.66754
  20
38.040375
  0
VERTEX
  5
280
  8
Layer_3
  10
272.49939
  20
37.982117
  0
VERTEX
  5
281
  8
Layer_3
  10
272.34723
  20
37.889893
  0
VERTEX
  5
282
  8
Layer_3
  10
272.21469
  20
37.767822
  0
VERTEX
  5
283
  8
Layer_3
  10
272.10535
  20
37.619812
  0
VERTEX
  5
284
  8
Layer_3
  10
272.02277
  20
37.449951
  0
VERTEX
  5
285
  8
Layer_3
  10
271.97055
  20
37.262238
  0
VERTEX
  5
286
  8
Layer_3
  10
271.95236
  20
37.060699
  0
VERTEX
  5
287
  8
Layer_3
  10
271.95236
  20
35.060699
  0
VERTEX
  5
288
  8
Layer_3
  10
271.97055
  20
34.859161
  0
VERTEX
  5
289
  8
Layer_3
  10
272.02277
  20
34.671448
  0
VERTEX
  5
28a
  8
Layer_3
  10
272.10535
  20
34.501587
  0
VERTEX
  5
28b
  8
Layer_3
  10
272.21469
  20
34.353577
  0
VERTEX
  5
28c
  8
Layer_3
  10
272.34723
  20
34.231506
  0
VERTEX
  5
28d
  8
Layer_3
  10
272.49939
  20
34.139282
  0
VERTEX
  5
28e
  8
Layer_3
  10
272.66754
  20
34.081024
  0
VERTEX
  5
28f
  8
Layer_3
  10
272.84805
  20
34.060699
  0
VERTEX
  5
290
  8
Layer_3
  10
293.82663
  20
34.060699
  0
VERTEX
  5
291
  8
Layer_3
  10
294.00714
  20
34.081024
  0
VERTEX
  5
292
  8
Layer_3
  10
294.17529
  20
34.139282
  0
VERTEX
  5
293
  8
Layer_3
  10
294.32745
  20
34.231506
  0
VERTEX
  5
294
  8
Layer_3
  10
294.45999
  20
34.353577
  0
VERTEX
  5
295
  8
Layer_3
  10
294.56934
  20
34.501587
  0
VERTEX
  5
296
  8
Layer_3
  10
294.65192
  20
34.671448
  0
VERTEX
  5
297
  8
Layer_3
  10
294.70413
  20
34.859161
  0
VERTEX
  5
298
  8
Layer_3
  10
294.72232
  20
35.060699
  0
VERTEX
  5
299
  8
Layer_3
  10
294.72232
  20
37.060699
  0
VERTEX
  5
29a
  8
Layer_3
  10
294.70413
  20
37.262238
  0
VERTEX
  5
29b
  8
Layer_3
  10
294.65192
  20
37.449951
  0
VERTEX
  5
29c
  8
Layer_3
  10
294.56934
  20
37.619812
  0
VERTEX
  5
29d
  8
Layer_3
  10
294.45999
  20
37.767822
  0
VERTEX
  5
29e
  8
Layer_3
  10
294.32745
  20
37.889893
  0
VERTEX
  5
29f
  8
Layer_3
  10
294.17529
  20
37.982117
  0
VERTEX
  5
2a0
  8
Layer_3
  10
294.00714
  20
38.040375
  0
VERTEX
  5
2a1
  8
Layer_3
  10
293.82663
  20
38.060699
  0
SEQEND
  0
POLYLINE
  5
2a3
  8
Layer_5
  62
232
  70
1
  66
1
  10
0
  20
0
  30
0
  0
VERTEX
  5
2a3
  8
Layer_5
  10
289.42053
  20
18.301697
  0
VERTEX
  5
2a4
  8
Layer_5
  10
289.42053
  20
96.301697
  0
VERTEX
  5
2a5
  8
Layer_5
  10
289.40234
  20
96.503204
  0
VERTEX
  5
2a6
  8
Layer_5
  10
289.35016
  20
96.690918
  0
VERTEX
  5
2a7
  8
Layer_5
  10
289.26758
  20
96.860779
  0
VERTEX
  5
2a8
  8
Layer_5
  10
289.1582
  20
97.008789
  0
VERTEX
  5
2a9
  8
Layer_5
  10
289.02563
  20
97.130859
  0
VERTEX
  5
2aa
  8
Layer_5
  10
288.8735
  20
97.223083
  0
VERTEX
  5
2ab
  8
Layer_5
  10
288.70538
  20
97.281372
  0
VERTEX
  5
2ac
  8
Layer_5
  10
288.52487
  20
97.301697
  0
VERTEX
  5
2ad
  8
Layer_5
  10
284.98203
  20
97.301697
  0
VERTEX
  5
2ae
  8
Layer_5
  10
284.80151
  20
97.281372
  0
VERTEX
  5
2af
  8
Layer_5
  10
284.63339
  20
97.223083
  0
VERTEX
  5
2b0
  8
Layer_5
  10
284.48126
  20
97.130859
  0
VERTEX
  5
2b1
  8
Layer_5
  10
284.34869
  20
97.008789
  0
VERTEX
  5
2b2
  8
Layer_5
  10
284.23932
  20
96.860779
  0
VERTEX
  5
2b3
  8
Layer_5
  10
284.15674
  20
96.690918
  0
VERTEX
  5
2b4
  8
Layer_5
  10
284.10455
  20
96.503204
  0
VERTEX
  5
2b5
  8
Layer_5
  10
284.08636
  20
96.301697
  0
VERTEX
  5
2b6
  8
Layer_5
  10
284.08636
  20
18.301697
  0
VERTEX
  5
2b7
  8
Layer_5
  10
284.10455
  20
18.100189
  0
VERTEX
  5
2b8
  8
Layer_5
  10
284.15674
  20
17.912476
  0
VERTEX
  5
2b9
  8
Layer_5
  10
284.23932
  20
17.742615
  0
VERTEX
  5
2ba
  8
Layer_5
  10
284.34869
  20
17.594604
  0
VERTEX
  5
2bb
  8
Layer_5
  10
284.48126
  20
17.472534
  0
VERTEX
  5
2bc
  8
Layer_5
  10
284.63339
  20
17.38031
  0
VERTEX
  5
2bd
  8
Layer_5
  10
284.80151
  20
17.322021
  0
VERTEX
  5
2be
  8
Layer_5
  10
284.98203
  20
17.301697
  0
VERTEX
  5
2bf
  8
Layer_5
  10
288.52487
  20
17.301697
  0
VERTEX
  5
2c0
  8
Layer_5
  10
288.70538
  20
17.322021
  0
VERTEX
  5
2c1
  8
Layer_5
  10
288.8735
  20
17.38031
  0
VERTEX
  5
2c2
  8
Layer_5
  10
289.02563
  20
17.472534
  0
VERTEX
  5
2c3
  8
Layer_5
  10
289.1582
  20
17.594604
  0
VERTEX
  5
2c4
  8
Layer_5
  10
289.26758
  20
17.742615
  0
VERTEX
  5
2c5
  8
Layer_5
  10
289.35016
  20
17.912476
  0
VERTEX
  5
2c6
  8
Layer_5
  10
289.40234
  20
18.100189
  0
VERTEX
  5
2c7
  8
Layer_5
  10
289.42053
  20
18.301697
  0
SEQEND
  0
POLYLINE
  5
2c9
  8
Layer_4
  62
173
  70
1
  66
1
  10
0
  20
0
  30
0
  0
VERTEX
  5
2c9
  8
Layer_4
  10
268.13013
  20
17.353699
  0
VERTEX
  5
2ca
  8
Layer_4
  10
268.13013
  20
24.511902
  0
VERTEX
  5
2cb
  8
Layer_4
  10
272.76596
  20
24.511902
  0
VERTEX
  5
2cc
  8
Layer_4
  10
272.76596
  20
23.667175
  0
VERTEX
  5
2cd
  8
Layer_4
  10
268.97858
  20
23.667175
  0
VERTEX
  5
2ce
  8
Layer_4
  10
268.97858
  20
21.474792
  0
VERTEX
  5
2cf
  8
Layer_4
  10
272.52542
  20
21.474792
  0
VERTEX
  5
2d0
  8
Layer_4
  10
272.52542
  20
20.634949
  0
VERTEX
  5
2d1
  8
Layer_4
  10
268.97858
  20
20.634949
  0
VERTEX
  5
2d2
  8
Layer_4
  10
268.97858
  20
18.198425
  0
VERTEX
  5
2d3
  8
Layer_4
  10
272.91464
  20
18.198425
  0
VERTEX
  5
2d4
  8
Layer_4
  10
272.91464
  20
17.353699
  0
VERTEX
  5
2d5
  8
Layer_4
  10
268.13013
  20
17.353699
  0
SEQEND
  0
POLYLINE
  5
2d7
  8
Layer_4
  62
173
  70
1
  66
1
  10
0
  20
0
  30
0
  0
VERTEX
  5
2d7
  8
Layer_4
  10
268.35968
  20
90.143402
  0
VERTEX
  5
2d8
  8
Layer_4
  10
268.35968
  20
97.301605
  0
VERTEX
  5
2d9
  8
Layer_4
  10
272.685
  20
97.301605
  0
VERTEX
  5
2da
  8
Layer_4
  10
272.685
  20
96.456879
  0
VERTEX
  5
2db
  8
Layer_4
  10
269.20813
  20
96.456879
  0
VERTEX
  5
2dc
  8
Layer_4
  10
269.20813
  20
94.240082
  0
VERTEX
  5
2dd
  8
Layer_4
  10
272.21704
  20
94.240082
  0
VERTEX
  5
2de
  8
Layer_4
  10
272.21704
  20
93.395355
  0
VERTEX
  5
2df
  8
Layer_4
  10
269.20813
  20
93.395355
  0
VERTEX
  5
2e0
  8
Layer_4
  10
269.20813
  20
90.143402
  0
VERTEX
  5
2e1
  8
Layer_4
  10
268.35968
  20
90.143402
  0
SEQEND
  0
POLYLINE
  5
2e3
  8
Layer_4
  62
173
  70
1
  66
1
  10
0
  20
0
  30
0
  0
VERTEX
  5
2e3
  8
Layer_4
  10
282.34537
  20
94.222504
  0
VERTEX
  5
2e4
  8
Layer_4
  10
274.28427
  20
94.222504
  0
VERTEX
  5
2e5
  8
Layer_4
  10
274.28427
  20
93.222504
  0
VERTEX
  5
2e6
  8
Layer_4
  10
282.34537
  20
93.222504
  0
VERTEX
  5
2e7
  8
Layer_4
  10
282.34537
  20
94.222504
  0
SEQEND
  0
POLYLINE
  5
2e9
  8
Layer_4
  62
173
  70
1
  66
1
  10
0
  20
0
  30
0
  0
VERTEX
  5
2e9
  8
Layer_4
  10
282.34537
  20
21.432678
  0
VERTEX
  5
2ea
  8
Layer_4
  10
274.28427
  20
21.432678
  0
VERTEX
  5
2eb
  8
Layer_4
  10
274.28427
  20
20.432678
  0
VERTEX
  5
2ec
  8
Layer_4
  10
282.34537
  20
20.432678
  0
VERTEX
  5
2ed
  8
Layer_4
  10
282.34537
  20
21.432678
  0
SEQEND
  0
POLYLINE
  5
2ef
  8
Layer_4
  62
173
  70
1
  66
1
  10
0
  20
0
  30
0
  0
VERTEX
  5
2ef
  8
Layer_4
  10
282.20477
  20
57.801697
  0
VERTEX
  5
2f0
  8
Layer_4
  10
274.14368
  20
57.801697
  0
VERTEX
  5
2f1
  8
Layer_4
  10
274.14368
  20
56.801697
  0
VERTEX
  5
2f2
  8
Layer_4
  10
282.20477
  20
56.801697
  0
VERTEX
  5
2f3
  8
Layer_4
  10
282.20477
  20
57.801697
  0
SEQEND
  0
POLYLINE
  5
2f5
  8
Layer_4
  62
173
  70
1
  66
1
  10
0
  20
0
  30
0
  0
VERTEX
  5
2f5
  8
Layer_4
  10
269.22253
  20
54.421143
  0
VERTEX
  5
2f6
  8
Layer_4
  10
270.61655
  20
59.9729
  0
VERTEX
  5
2f7
  8
Layer_4
  10
271.0889
  20
59.9729
  0
VERTEX
  5
2f8
  8
Layer_4
  10
269.69815
  20
54.421143
  0
VERTEX
  5
2f9
  8
Layer_4
  10
269.22253
  20
54.421143
  0
SEQEND
  0
POLYLINE
  5
2fb
  8
Layer_4
  62
173
  70
1
  66
1
  10
0
  20
0
  30
0
  0
VERTEX
  5
2fb
  8
Layer_4
  10
269.04141
  20
57.441711
  0
VERTEX
  5
2fc
  8
Layer_4
  10
268.6478
  20
57.441711
  0
VERTEX
  5
2fd
  8
Layer_4
  10
268.6478
  20
60.242004
  0
VERTEX
  5
2fe
  8
Layer_4
  10
268.48352
  20
60.090637
  0
VERTEX
  5
2ff
  8
Layer_4
  10
268.27496
  20
59.93927
  0
VERTEX
  5
300
  8
Layer_4
  10
268.05603
  20
59.806824
  0
VERTEX
  5
301
  8
Layer_4
  10
267.8606
  20
59.712219
  0
VERTEX
  5
302
  8
Layer_4
  10
267.8606
  20
60.137024
  0
VERTEX
  5
303
  8
Layer_4
  10
268.17001
  20
60.328674
  0
VERTEX
  5
304
  8
Layer_4
  10
268.4379
  20
60.556946
  0
VERTEX
  5
305
  8
Layer_4
  10
268.6489
  20
60.799866
  0
VERTEX
  5
306
  8
Layer_4
  10
268.78775
  20
61.035461
  0
VERTEX
  5
307
  8
Layer_4
  10
269.04141
  20
61.035461
  0
VERTEX
  5
308
  8
Layer_4
  10
269.04141
  20
57.441711
  0
SEQEND
  0
POLYLINE
  5
30a
  8
Layer_4
  62
173
  70
1
  66
1
  10
0
  20
0
  30
0
  0
VERTEX
  5
30a
  8
Layer_4
  10
273.18417
  20
53.990082
  0
VERTEX
  5
30b
  8
Layer_4
  10
273.18417
  20
53.567719
  0
VERTEX
  5
30c
  8
Layer_4
  10
271.06528
  20
53.567719
  0
VERTEX
  5
30d
  8
Layer_4
  10
271.07455
  20
53.723358
  0
VERTEX
  5
30e
  8
Layer_4
  10
271.11118
  20
53.872894
  0
VERTEX
  5
30f
  8
Layer_4
  10
271.21643
  20
54.112762
  0
VERTEX
  5
310
  8
Layer_4
  10
271.3703
  20
54.348969
  0
VERTEX
  5
311
  8
Layer_4
  10
271.58813
  20
54.601654
  0
VERTEX
  5
312
  8
Layer_4
  10
271.88528
  20
54.890961
  0
VERTEX
  5
313
  8
Layer_4
  10
272.1254
  20
55.117798
  0
VERTEX
  5
314
  8
Layer_4
  10
272.32315
  20
55.319733
  0
VERTEX
  5
315
  8
Layer_4
  10
272.47855
  20
55.496826
  0
VERTEX
  5
316
  8
Layer_4
  10
272.59158
  20
55.649017
  0
VERTEX
  5
317
  8
Layer_4
  10
272.67194
  20
55.786896
  0
VERTEX
  5
318
  8
Layer_4
  10
272.72934
  20
55.920929
  0
VERTEX
  5
319
  8
Layer_4
  10
272.76376
  20
56.051147
  0
VERTEX
  5
31a
  8
Layer_4
  10
272.77527
  20
56.177582
  0
VERTEX
  5
31b
  8
Layer_4
  10
272.76483
  20
56.30307
  0
VERTEX
  5
31c
  8
Layer_4
  10
272.73346
  20
56.418365
  0
VERTEX
  5
31d
  8
Layer_4
  10
272.68118
  20
56.523438
  0
VERTEX
  5
31e
  8
Layer_4
  10
272.608
  20
56.618256
  0
VERTEX
  5
31f
  8
Layer_4
  10
272.51801
  20
56.696747
  0
VERTEX
  5
320
  8
Layer_4
  10
272.41528
  20
56.752838
  0
VERTEX
  5
321
  8
Layer_4
  10
272.29987
  20
56.786469
  0
VERTEX
  5
322
  8
Layer_4
  10
272.17175
  20
56.797699
  0
VERTEX
  5
323
  8
Layer_4
  10
272.03674
  20
56.785797
  0
VERTEX
  5
324
  8
Layer_4
  10
271.91589
  20
56.750092
  0
VERTEX
  5
325
  8
Layer_4
  10
271.8093
  20
56.690582
  0
VERTEX
  5
326
  8
Layer_4
  10
271.71689
  20
56.607269
  0
VERTEX
  5
327
  8
Layer_4
  10
271.64215
  20
56.502899
  0
VERTEX
  5
328
  8
Layer_4
  10
271.58844
  20
56.380219
  0
VERTEX
  5
329
  8
Layer_4
  10
271.55579
  20
56.239227
  0
VERTEX
  5
32a
  8
Layer_4
  10
271.54416
  20
56.079926
  0
VERTEX
  5
32b
  8
Layer_4
  10
271.13962
  20
56.126312
  0
VERTEX
  5
32c
  8
Layer_4
  10
271.17474
  20
56.363953
  0
VERTEX
  5
32d
  8
Layer_4
  10
271.23856
  20
56.571564
  0
VERTEX
  5
32e
  8
Layer_4
  10
271.33109
  20
56.749115
  0
VERTEX
  5
32f
  8
Layer_4
  10
271.4523
  20
56.896576
  0
VERTEX
  5
330
  8
Layer_4
  10
271.59949
  20
57.012482
  0
VERTEX
  5
331
  8
Layer_4
  10
271.76993
  20
57.095245
  0
VERTEX
  5
332
  8
Layer_4
  10
271.96359
  20
57.144897
  0
VERTEX
  5
333
  8
Layer_4
  10
272.18048
  20
57.161469
  0
VERTEX
  5
334
  8
Layer_4
  10
272.39914
  20
57.143616
  0
VERTEX
  5
335
  8
Layer_4
  10
272.59378
  20
57.090057
  0
VERTEX
  5
336
  8
Layer_4
  10
272.76434
  20
57.000793
  0
VERTEX
  5
337
  8
Layer_4
  10
272.91086
  20
56.875824
  0
VERTEX
  5
338
  8
Layer_4
  10
273.0285
  20
56.724457
  0
VERTEX
  5
339
  8
Layer_4
  10
273.11258
  20
56.556
  0
VERTEX
  5
33a
  8
Layer_4
  10
273.16299
  20
56.370453
  0
VERTEX
  5
33b
  8
Layer_4
  10
273.17981
  20
56.167816
  0
VERTEX
  5
33c
  8
Layer_4
  10
273.16013
  20
55.954803
  0
VERTEX
  5
33d
  8
Layer_4
  10
273.10107
  20
55.745453
  0
VERTEX
  5
33e
  8
Layer_4
  10
272.9964
  20
55.53244
  0
VERTEX
  5
33f
  8
Layer_4
  10
272.83978
  20
55.308441
  0
VERTEX
  5
340
  8
Layer_4
  10
272.7334
  20
55.183014
  0
VERTEX
  5
341
  8
Layer_4
  10
272.5968
  20
55.036224
  0
VERTEX
  5
342
  8
Layer_4
  10
272.42999
  20
54.868073
  0
VERTEX
  5
343
  8
Layer_4
  10
272.07172
  20
54.525879
  0
VERTEX
  5
344
  8
Layer_4
  10
271.94214
  20
54.399933
  0
VERTEX
  5
345
  8
Layer_4
  10
271.8443
  20
54.300659
  0
VERTEX
  5
346
  8
Layer_4
  10
271.77814
  20
54.228119
  0
VERTEX
  5
347
  8
Layer_4
  10
271.68628
  20
54.109406
  0
VERTEX
  5
348
  8
Layer_4
  10
271.61194
  20
53.990082
  0
VERTEX
  5
349
  8
Layer_4
  10
273.18417
  20
53.990082
  0
SEQEND
  0
POLYLINE
  5
34b
  8
Layer_4
  62
173
  70
1
  66
1
  10
0
  20
0
  30
0
  0
VERTEX
  5
34b
  8
Layer_4
  10
282.34537
  20
76.011688
  0
VERTEX
  5
34c
  8
Layer_4
  10
278.31485
  20
76.011688
  0
VERTEX
  5
34d
  8
Layer_4
  10
278.31485
  20
75.011688
  0
VERTEX
  5
34e
  8
Layer_4
  10
282.34537
  20
75.011688
  0
VERTEX
  5
34f
  8
Layer_4
  10
282.34537
  20
76.011688
  0
SEQEND
  0
POLYLINE
  5
351
  8
Layer_4
  62
173
  70
1
  66
1
  10
0
  20
0
  30
0
  0
VERTEX
  5
351
  8
Layer_4
  10
282.34537
  20
39.6427
  0
VERTEX
  5
352
  8
Layer_4
  10
278.31485
  20
39.6427
  0
VERTEX
  5
353
  8
Layer_4
  10
278.31485
  20
38.6427
  0
VERTEX
  5
354
  8
Layer_4
  10
282.34537
  20
38.6427
  0
VERTEX
  5
355
  8
Layer_4
  10
282.34537
  20
39.6427
  0
SEQEND
  0
POLYLINE
  5
357
  8
Layer_6
  62
5
  70
1
  66
1
  10
0
  20
0
  30
0
  0
VERTEX
  5
357
  8
Layer_6
  10
276.67331
  20
81.069061
  0
VERTEX
  5
358
  8
Layer_6
  10
265.68347
  20
81.069061
  0
VERTEX
  5
359
  8
Layer_6
  10
265.68347
  20
26.749298
  0
VERTEX
  5
35a
  8
Layer_6
  10
287.66312
  20
26.749298
  0
VERTEX
  5
35b
  8
Layer_6
  10
287.66312
  20
81.069061
  0
VERTEX
  5
35c
  8
Layer_6
  10
276.67331
  20
81.069061
  0
SEQEND
  0
POLYLINE
  5
35e
  8
Layer_6
  62
5
  70
1
  66
1
  10
0
  20
0
  30
0
  0
VERTEX
  5
35e
  8
Layer_6
  10
292.02603
  20
23.212311
  0
VERTEX
  5
35f
  8
Layer_6
  10
291.85941
  20
22.75946
  0
VERTEX
  5
360
  8
Layer_6
  10
291.59442
  20
22.316895
  0
VERTEX
  5
361
  8
Layer_6
  10
291.25845
  20
21.922791
  0
VERTEX
  5
362
  8
Layer_6
  10
290.879
  20
21.615448
  0
VERTEX
  5
363
  8
Layer_6
  10
290.83286
  20
21.598541
  0
VERTEX
  5
364
  8
Layer_6
  10
290.74884
  20
21.582153
  0
VERTEX
  5
365
  8
Layer_6
  10
290.62817
  20
21.566284
  0
VERTEX
  5
366
  8
Layer_6
  10
290.47211
  20
21.550934
  0
VERTEX
  5
367
  8
Layer_6
  10
290.2818
  20
21.536133
  0
VERTEX
  5
368
  8
Layer_6
  10
290.05853
  20
21.521851
  0
VERTEX
  5
369
  8
Layer_6
  10
289.8035
  20
21.508087
  0
VERTEX
  5
36a
  8
Layer_6
  10
289.51791
  20
21.494873
  0
VERTEX
  5
36b
  8
Layer_6
  10
288.86005
  20
21.470032
  0
VERTEX
  5
36c
  8
Layer_6
  10
288.0947
  20
21.447266
  0
VERTEX
  5
36d
  8
Layer_6
  10
287.2316
  20
21.426697
  0
VERTEX
  5
36e
  8
Layer_6
  10
286.28055
  20
21.408203
  0
VERTEX
  5
36f
  8
Layer_6
  10
285.25131
  20
21.391876
  0
VERTEX
  5
370
  8
Layer_6
  10
284.15369
  20
21.377625
  0
VERTEX
  5
371
  8
Layer_6
  10
282.99744
  20
21.36554
  0
VERTEX
  5
372
  8
Layer_6
  10
281.79233
  20
21.355591
  0
VERTEX
  5
373
  8
Layer_6
  10
279.2746
  20
21.342102
  0
VERTEX
  5
374
  8
Layer_6
  10
276.67871
  20
21.337158
  0
VERTEX
  5
375
  8
Layer_6
  10
274.08282
  20
21.34082
  0
VERTEX
  5
376
  8
Layer_6
  10
271.56509
  20
21.353088
  0
VERTEX
  5
377
  8
Layer_6
  10
270.35999
  20
21.362427
  0
VERTEX
  5
378
  8
Layer_6
  10
269.20374
  20
21.373962
  0
VERTEX
  5
379
  8
Layer_6
  10
268.10611
  20
21.387665
  0
VERTEX
  5
37a
  8
Layer_6
  10
267.0769
  20
21.403473
  0
VERTEX
  5
37b
  8
Layer_6
  10
266.12589
  20
21.421448
  0
VERTEX
  5
37c
  8
Layer_6
  10
265.26282
  20
21.44165
  0
VERTEX
  5
37d
  8
Layer_6
  10
264.86731
  20
21.452545
  0
VERTEX
  5
37e
  8
Layer_6
  10
264.15448
  20
21.475983
  0
VERTEX
  5
37f
  8
Layer_6
  10
263.55402
  20
21.501617
  0
VERTEX
  5
380
  8
Layer_6
  10
263.29901
  20
21.515259
  0
VERTEX
  5
381
  8
Layer_6
  10
263.07574
  20
21.529419
  0
VERTEX
  5
382
  8
Layer_6
  10
262.88547
  20
21.544128
  0
VERTEX
  5
383
  8
Layer_6
  10
262.72943
  20
21.559387
  0
VERTEX
  5
384
  8
Layer_6
  10
262.60876
  20
21.575165
  0
VERTEX
  5
385
  8
Layer_6
  10
262.52475
  20
21.591522
  0
VERTEX
  5
386
  8
Layer_6
  10
262.47864
  20
21.608429
  0
VERTEX
  5
387
  8
Layer_6
  10
262.27118
  20
21.757782
  0
VERTEX
  5
388
  8
Layer_6
  10
262.08069
  20
21.928772
  0
VERTEX
  5
389
  8
Layer_6
  10
261.90768
  20
22.120605
  0
VERTEX
  5
38a
  8
Layer_6
  10
261.75266
  20
22.332458
  0
VERTEX
  5
38b
  8
Layer_6
  10
261.61612
  20
22.56366
  0
VERTEX
  5
38c
  8
Layer_6
  10
261.4986
  20
22.813354
  0
VERTEX
  5
38d
  8
Layer_6
  10
261.40063
  20
23.08078
  0
VERTEX
  5
38e
  8
Layer_6
  10
261.32266
  20
23.365143
  0
VERTEX
  5
38f
  8
Layer_6
  10
261.31183
  20
23.435638
  0
VERTEX
  5
390
  8
Layer_6
  10
261.30148
  20
23.552063
  0
VERTEX
  5
391
  8
Layer_6
  10
261.29166
  20
23.715576
  0
VERTEX
  5
392
  8
Layer_6
  10
261.28232
  20
23.927399
  0
VERTEX
  5
393
  8
Layer_6
  10
261.27344
  20
24.18866
  0
VERTEX
  5
394
  8
Layer_6
  10
261.26508
  20
24.50061
  0
VERTEX
  5
395
  8
Layer_6
  10
261.24982
  20
25.281189
  0
VERTEX
  5
396
  8
Layer_6
  10
261.23645
  20
26.278503
  0
VERTEX
  5
397
  8
Layer_6
  10
261.22491
  20
27.502014
  0
VERTEX
  5
398
  8
Layer_6
  10
261.211
  20
29.782166
  0
VERTEX
  5
399
  8
Layer_6
  10
261.19861
  20
33.702148
  0
VERTEX
  5
39a
  8
Layer_6
  10
261.19299
  20
38.69696
  0
VERTEX
  5
39b
  8
Layer_6
  10
261.19662
  20
48.369629
  0
VERTEX
  5
39c
  8
Layer_6
  10
261.23035
  20
70.870361
  0
VERTEX
  5
39d
  8
Layer_6
  10
261.25616
  20
78.133331
  0
VERTEX
  5
39e
  8
Layer_6
  10
261.27655
  20
80.720001
  0
VERTEX
  5
39f
  8
Layer_6
  10
261.29364
  20
82.002991
  0
VERTEX
  5
3a0
  8
Layer_6
  10
261.30341
  20
82.528839
  0
VERTEX
  5
3a1
  8
Layer_6
  10
261.31409
  20
82.985046
  0
VERTEX
  5
3a2
  8
Layer_6
  10
261.32574
  20
83.377136
  0
VERTEX
  5
3a3
  8
Layer_6
  10
261.33844
  20
83.710754
  0
VERTEX
  5
3a4
  8
Layer_6
  10
261.35217
  20
83.991516
  0
VERTEX
  5
3a5
  8
Layer_6
  10
261.36707
  20
84.224976
  0
VERTEX
  5
3a6
  8
Layer_6
  10
261.38315
  20
84.416718
  0
VERTEX
  5
3a7
  8
Layer_6
  10
261.40054
  20
84.572327
  0
VERTEX
  5
3a8
  8
Layer_6
  10
261.41925
  20
84.697388
  0
VERTEX
  5
3a9
  8
Layer_6
  10
261.43933
  20
84.797485
  0
VERTEX
  5
3aa
  8
Layer_6
  10
261.48389
  20
84.945129
  0
VERTEX
  5
3ab
  8
Layer_6
  10
261.53467
  20
85.060028
  0
VERTEX
  5
3ac
  8
Layer_6
  10
261.6842
  20
85.326538
  0
VERTEX
  5
3ad
  8
Layer_6
  10
261.87747
  20
85.603485
  0
VERTEX
  5
3ae
  8
Layer_6
  10
262.08945
  20
85.858215
  0
VERTEX
  5
3af
  8
Layer_6
  10
262.29523
  20
86.057922
  0
VERTEX
  5
3b0
  8
Layer_6
  10
262.45822
  20
86.18399
  0
VERTEX
  5
3b1
  8
Layer_6
  10
262.63281
  20
86.279602
  0
VERTEX
  5
3b2
  8
Layer_6
  10
262.73834
  20
86.317261
  0
VERTEX
  5
3b3
  8
Layer_6
  10
262.8634
  20
86.348907
  0
VERTEX
  5
3b4
  8
Layer_6
  10
263.01355
  20
86.375031
  0
VERTEX
  5
3b5
  8
Layer_6
  10
263.19437
  20
86.396179
  0
VERTEX
  5
3b6
  8
Layer_6
  10
263.41135
  20
86.412842
  0
VERTEX
  5
3b7
  8
Layer_6
  10
263.67001
  20
86.425598
  0
VERTEX
  5
3b8
  8
Layer_6
  10
263.97595
  20
86.434937
  0
VERTEX
  5
3b9
  8
Layer_6
  10
264.33472
  20
86.441406
  0
VERTEX
  5
3ba
  8
Layer_6
  10
264.7518
  20
86.445526
  0
VERTEX
  5
3bb
  8
Layer_6
  10
265.23285
  20
86.447815
  0
VERTEX
  5
3bc
  8
Layer_6
  10
270.05121
  20
86.448975
  0
VERTEX
  5
3bd
  8
Layer_6
  10
270.05121
  20
88.190002
  0
VERTEX
  5
3be
  8
Layer_6
  10
270.05341
  20
88.55368
  0
VERTEX
  5
3bf
  8
Layer_6
  10
270.06024
  20
88.887878
  0
VERTEX
  5
3c0
  8
Layer_6
  10
270.07227
  20
89.194458
  0
VERTEX
  5
3c1
  8
Layer_6
  10
270.0899
  20
89.47522
  0
VERTEX
  5
3c2
  8
Layer_6
  10
270.14407
  20
89.966614
  0
VERTEX
  5
3c3
  8
Layer_6
  10
270.2265
  20
90.376892
  0
VERTEX
  5
3c4
  8
Layer_6
  10
270.34106
  20
90.720612
  0
VERTEX
  5
3c5
  8
Layer_6
  10
270.49158
  20
91.012512
  0
VERTEX
  5
3c6
  8
Layer_6
  10
270.68188
  20
91.267212
  0
VERTEX
  5
3c7
  8
Layer_6
  10
270.91589
  20
91.49939
  0
VERTEX
  5
3c8
  8
Layer_6
  10
271.38974
  20
91.91568
  0
VERTEX
  5
3c9
  8
Layer_6
  10
278.17877
  20
91.915283
  0
VERTEX
  5
3ca
  8
Layer_6
  10
279.39465
  20
91.909973
  0
VERTEX
  5
3cb
  8
Layer_6
  10
280.06427
  20
91.900635
  0
VERTEX
  5
3cc
  8
Layer_6
  10
280.63263
  20
91.884521
  0
VERTEX
  5
3cd
  8
Layer_6
  10
281.10956
  20
91.859802
  0
VERTEX
  5
3ce
  8
Layer_6
  10
281.50494
  20
91.824615
  0
VERTEX
  5
3cf
  8
Layer_6
  10
281.82861
  20
91.777161
  0
VERTEX
  5
3d0
  8
Layer_6
  10
282.09045
  20
91.715576
  0
VERTEX
  5
3d1
  8
Layer_6
  10
282.30029
  20
91.638031
  0
VERTEX
  5
3d2
  8
Layer_6
  10
282.46802
  20
91.542664
  0
VERTEX
  5
3d3
  8
Layer_6
  10
282.60345
  20
91.427704
  0
VERTEX
  5
3d4
  8
Layer_6
  10
282.71649
  20
91.29126
  0
VERTEX
  5
3d5
  8
Layer_6
  10
282.81699
  20
91.131531
  0
VERTEX
  5
3d6
  8
Layer_6
  10
282.91479
  20
90.946655
  0
VERTEX
  5
3d7
  8
Layer_6
  10
283.01978
  20
90.734802
  0
VERTEX
  5
3d8
  8
Layer_6
  10
283.09674
  20
90.562378
  0
VERTEX
  5
3d9
  8
Layer_6
  10
283.15848
  20
90.380127
  0
VERTEX
  5
3da
  8
Layer_6
  10
283.20648
  20
90.174316
  0
VERTEX
  5
3db
  8
Layer_6
  10
283.24231
  20
89.931305
  0
VERTEX
  5
3dc
  8
Layer_6
  10
283.26749
  20
89.637512
  0
VERTEX
  5
3dd
  8
Layer_6
  10
283.28363
  20
89.279205
  0
VERTEX
  5
3de
  8
Layer_6
  10
283.29224
  20
88.842804
  0
VERTEX
  5
3df
  8
Layer_6
  10
283.29486
  20
88.314606
  0
VERTEX
  5
3e0
  8
Layer_6
  10
283.29538
  20
86.448975
  0
VERTEX
  5
3e1
  8
Layer_6
  10
287.57367
  20
86.448364
  0
VERTEX
  5
3e2
  8
Layer_6
  10
288.17255
  20
86.44574
  0
VERTEX
  5
3e3
  8
Layer_6
  10
288.69778
  20
86.439941
  0
VERTEX
  5
3e4
  8
Layer_6
  10
289.15543
  20
86.429871
  0
VERTEX
  5
3e5
  8
Layer_6
  10
289.55145
  20
86.414337
  0
VERTEX
  5
3e6
  8
Layer_6
  10
289.89182
  20
86.392212
  0
VERTEX
  5
3e7
  8
Layer_6
  10
290.18256
  20
86.362305
  0
VERTEX
  5
3e8
  8
Layer_6
  10
290.4296
  20
86.323486
  0
VERTEX
  5
3e9
  8
Layer_6
  10
290.63901
  20
86.274628
  0
VERTEX
  5
3ea
  8
Layer_6
  10
290.81671
  20
86.214569
  0
VERTEX
  5
3eb
  8
Layer_6
  10
290.96875
  20
86.142151
  0
VERTEX
  5
3ec
  8
Layer_6
  10
291.10114
  20
86.056213
  0
VERTEX
  5
3ed
  8
Layer_6
  10
291.33072
  20
85.839203
  0
VERTEX
  5
3ee
  8
Layer_6
  10
291.55347
  20
85.554352
  0
VERTEX
  5
3ef
  8
Layer_6
  10
291.68161
  20
85.349792
  0
VERTEX
  5
3f0
  8
Layer_6
  10
291.81067
  20
85.093628
  0
VERTEX
  5
3f1
  8
Layer_6
  10
291.9256
  20
84.818665
  0
VERTEX
  5
3f2
  8
Layer_6
  10
292.01135
  20
84.557465
  0
VERTEX
  5
3f3
  8
Layer_6
  10
292.02032
  20
84.48114
  0
VERTEX
  5
3f4
  8
Layer_6
  10
292.02905
  20
84.320862
  0
VERTEX
  5
3f5
  8
Layer_6
  10
292.03748
  20
84.079437
  0
VERTEX
  5
3f6
  8
Layer_6
  10
292.05356
  20
83.363831
  0
VERTEX
  5
3f7
  8
Layer_6
  10
292.0686
  20
82.355896
  0
VERTEX
  5
3f8
  8
Layer_6
  10
292.08258
  20
81.077271
  0
VERTEX
  5
3f9
  8
Layer_6
  10
292.1015
  20
78.699188
  0
VERTEX
  5
3fa
  8
Layer_6
  10
292.12292
  20
74.782959
  0
VERTEX
  5
3fb
  8
Layer_6
  10
292.14349
  20
68.933044
  0
VERTEX
  5
3fc
  8
Layer_6
  10
292.16071
  20
59.566986
  0
VERTEX
  5
3fd
  8
Layer_6
  10
292.16434
  20
53.916138
  0
VERTEX
  5
3fe
  8
Layer_6
  10
292.16339
  20
48.264282
  0
VERTEX
  5
3ff
  8
Layer_6
  10
292.1579
  20
42.784546
  0
VERTEX
  5
400
  8
Layer_6
  10
292.1445
  20
36.440613
  0
VERTEX
  5
401
  8
Layer_6
  10
292.12375
  20
30.973969
  0
VERTEX
  5
402
  8
Layer_6
  10
292.10184
  20
27.459503
  0
VERTEX
  5
403
  8
Layer_6
  10
292.08228
  20
25.438263
  0
VERTEX
  5
404
  8
Layer_6
  10
292.06772
  20
24.42395
  0
VERTEX
  5
405
  8
Layer_6
  10
292.05194
  20
23.701508
  0
VERTEX
  5
406
  8
Layer_6
  10
292.04364
  20
23.456482
  0
VERTEX
  5
407
  8
Layer_6
  10
292.03497
  20
23.29248
  0
VERTEX
  5
408
  8
Layer_6
  10
292.02603
  20
23.212311
  0
SEQEND
  0
POLYLINE
  5
40a
  8
Layer_7
  62
12
  70
1
  66
1
  10
0
  20
0
  30
0
  0
VERTEX
  5
40a
  8
Layer_7
  10
283.39047
  20
35.857361
  0
VERTEX
  5
40b
  8
Layer_7
  10
269.95535
  20
35.857361
  0
VERTEX
  5
40c
  8
Layer_7
  10
269.59433
  20
35.824829
  0
VERTEX
  5
40d
  8
Layer_7
  10
269.25806
  20
35.731445
  0
VERTEX
  5
40e
  8
Layer_7
  10
268.9538
  20
35.583679
  0
VERTEX
  5
40f
  8
Layer_7
  10
268.68866
  20
35.388031
  0
VERTEX
  5
410
  8
Layer_7
  10
268.46991
  20
35.150879
  0
VERTEX
  5
411
  8
Layer_7
  10
268.30475
  20
34.878693
  0
VERTEX
  5
412
  8
Layer_7
  10
268.20038
  20
34.577911
  0
VERTEX
  5
413
  8
Layer_7
  10
268.164
  20
34.254974
  0
VERTEX
  5
414
  8
Layer_7
  10
268.164
  20
30.736908
  0
VERTEX
  5
415
  8
Layer_7
  10
268.20038
  20
30.413971
  0
VERTEX
  5
416
  8
Layer_7
  10
268.30475
  20
30.11319
  0
VERTEX
  5
417
  8
Layer_7
  10
268.46991
  20
29.841003
  0
VERTEX
  5
418
  8
Layer_7
  10
268.68866
  20
29.603851
  0
VERTEX
  5
419
  8
Layer_7
  10
268.9538
  20
29.408203
  0
VERTEX
  5
41a
  8
Layer_7
  10
269.25806
  20
29.260437
  0
VERTEX
  5
41b
  8
Layer_7
  10
269.59433
  20
29.167053
  0
VERTEX
  5
41c
  8
Layer_7
  10
269.95535
  20
29.134521
  0
VERTEX
  5
41d
  8
Layer_7
  10
283.39047
  20
29.134521
  0
VERTEX
  5
41e
  8
Layer_7
  10
283.7515
  20
29.167053
  0
VERTEX
  5
41f
  8
Layer_7
  10
284.08777
  20
29.260437
  0
VERTEX
  5
420
  8
Layer_7
  10
284.39203
  20
29.408203
  0
VERTEX
  5
421
  8
Layer_7
  10
284.65717
  20
29.603851
  0
VERTEX
  5
422
  8
Layer_7
  10
284.87592
  20
29.841003
  0
VERTEX
  5
423
  8
Layer_7
  10
285.04108
  20
30.11319
  0
VERTEX
  5
424
  8
Layer_7
  10
285.14545
  20
30.413971
  0
VERTEX
  5
425
  8
Layer_7
  10
285.18182
  20
30.736908
  0
VERTEX
  5
426
  8
Layer_7
  10
285.18182
  20
34.254974
  0
VERTEX
  5
427
  8
Layer_7
  10
285.14545
  20
34.577911
  0
VERTEX
  5
428
  8
Layer_7
  10
285.04108
  20
34.878693
  0
VERTEX
  5
429
  8
Layer_7
  10
284.87592
  20
35.150879
  0
VERTEX
  5
42a
  8
Layer_7
  10
284.65717
  20
35.388031
  0
VERTEX
  5
42b
  8
Layer_7
  10
284.39203
  20
35.583679
  0
VERTEX
  5
42c
  8
Layer_7
  10
284.08777
  20
35.731445
  0
VERTEX
  5
42d
  8
Layer_7
  10
283.7515
  20
35.824829
  0
VERTEX
  5
42e
  8
Layer_7
  10
283.39047
  20
35.857361
  0
SEQEND
  0
POLYLINE
  5
430
  8
Layer_7
  62
12
  70
1
  66
1
  10
0
  20
0
  30
0
  0
VERTEX
  5
430
  8
Layer_7
  10
283.39047
  20
44.422943
  0
VERTEX
  5
431
  8
Layer_7
  10
269.95535
  20
44.422943
  0
VERTEX
  5
432
  8
Layer_7
  10
269.59433
  20
44.390381
  0
VERTEX
  5
433
  8
Layer_7
  10
269.25806
  20
44.297028
  0
VERTEX
  5
434
  8
Layer_7
  10
268.9538
  20
44.149292
  0
VERTEX
  5
435
  8
Layer_7
  10
268.68866
  20
43.953613
  0
VERTEX
  5
436
  8
Layer_7
  10
268.46991
  20
43.716461
  0
VERTEX
  5
437
  8
Layer_7
  10
268.30475
  20
43.444275
  0
VERTEX
  5
438
  8
Layer_7
  10
268.20038
  20
43.143494
  0
VERTEX
  5
439
  8
Layer_7
  10
268.164
  20
42.820557
  0
VERTEX
  5
43a
  8
Layer_7
  10
268.164
  20
39.30249
  0
VERTEX
  5
43b
  8
Layer_7
  10
268.20038
  20
38.979553
  0
VERTEX
  5
43c
  8
Layer_7
  10
268.30475
  20
38.678772
  0
VERTEX
  5
43d
  8
Layer_7
  10
268.46991
  20
38.406586
  0
VERTEX
  5
43e
  8
Layer_7
  10
268.68866
  20
38.169434
  0
VERTEX
  5
43f
  8
Layer_7
  10
268.9538
  20
37.973755
  0
VERTEX
  5
440
  8
Layer_7
  10
269.25806
  20
37.826019
  0
VERTEX
  5
441
  8
Layer_7
  10
269.59433
  20
37.732666
  0
VERTEX
  5
442
  8
Layer_7
  10
269.95535
  20
37.700104
  0
VERTEX
  5
443
  8
Layer_7
  10
283.39047
  20
37.700104
  0
VERTEX
  5
444
  8
Layer_7
  10
283.7515
  20
37.732666
  0
VERTEX
  5
445
  8
Layer_7
  10
284.08777
  20
37.826019
  0
VERTEX
  5
446
  8
Layer_7
  10
284.39203
  20
37.973755
  0
VERTEX
  5
447
  8
Layer_7
  10
284.65717
  20
38.169434
  0
VERTEX
  5
448
  8
Layer_7
  10
284.87592
  20
38.406586
  0
VERTEX
  5
449
  8
Layer_7
  10
285.04108
  20
38.678772
  0
VERTEX
  5
44a
  8
Layer_7
  10
285.14545
  20
38.979553
  0
VERTEX
  5
44b
  8
Layer_7
  10
285.18182
  20
39.30249
  0
VERTEX
  5
44c
  8
Layer_7
  10
285.18182
  20
42.820557
  0
VERTEX
  5
44d
  8
Layer_7
  10
285.14545
  20
43.143494
  0
VERTEX
  5
44e
  8
Layer_7
  10
285.04108
  20
43.444275
  0
VERTEX
  5
44f
  8
Layer_7
  10
284.87592
  20
43.716461
  0
VERTEX
  5
450
  8
Layer_7
  10
284.65717
  20
43.953613
  0
VERTEX
  5
451
  8
Layer_7
  10
284.39203
  20
44.149292
  0
VERTEX
  5
452
  8
Layer_7
  10
284.08777
  20
44.297028
  0
VERTEX
  5
453
  8
Layer_7
  10
283.7515
  20
44.390381
  0
VERTEX
  5
454
  8
Layer_7
  10
283.39047
  20
44.422943
  0
SEQEND
  0
POLYLINE
  5
456
  8
Layer_7
  62
12
  70
1
  66
1
  10
0
  20
0
  30
0
  0
VERTEX
  5
456
  8
Layer_7
  10
283.39047
  20
52.988464
  0
VERTEX
  5
457
  8
Layer_7
  10
269.95535
  20
52.988464
  0
VERTEX
  5
458
  8
Layer_7
  10
269.59433
  20
52.955933
  0
VERTEX
  5
459
  8
Layer_7
  10
269.25806
  20
52.862549
  0
VERTEX
  5
45a
  8
Layer_7
  10
268.9538
  20
52.714783
  0
VERTEX
  5
45b
  8
Layer_7
  10
268.68866
  20
52.519135
  0
VERTEX
  5
45c
  8
Layer_7
  10
268.46991
  20
52.281982
  0
VERTEX
  5
45d
  8
Layer_7
  10
268.30475
  20
52.009796
  0
VERTEX
  5
45e
  8
Layer_7
  10
268.20038
  20
51.709015
  0
VERTEX
  5
45f
  8
Layer_7
  10
268.164
  20
51.386078
  0
VERTEX
  5
460
  8
Layer_7
  10
268.164
  20
47.868011
  0
VERTEX
  5
461
  8
Layer_7
  10
268.20038
  20
47.545074
  0
VERTEX
  5
462
  8
Layer_7
  10
268.30475
  20
47.244293
  0
VERTEX
  5
463
  8
Layer_7
  10
268.46991
  20
46.972107
  0
VERTEX
  5
464
  8
Layer_7
  10
268.68866
  20
46.734955
  0
VERTEX
  5
465
  8
Layer_7
  10
268.9538
  20
46.539307
  0
VERTEX
  5
466
  8
Layer_7
  10
269.25806
  20
46.391541
  0
VERTEX
  5
467
  8
Layer_7
  10
269.59433
  20
46.298157
  0
VERTEX
  5
468
  8
Layer_7
  10
269.95535
  20
46.265625
  0
VERTEX
  5
469
  8
Layer_7
  10
283.39047
  20
46.265625
  0
VERTEX
  5
46a
  8
Layer_7
  10
283.7515
  20
46.298157
  0
VERTEX
  5
46b
  8
Layer_7
  10
284.08777
  20
46.391541
  0
VERTEX
  5
46c
  8
Layer_7
  10
284.39203
  20
46.539307
  0
VERTEX
  5
46d
  8
Layer_7
  10
284.65717
  20
46.734955
  0
VERTEX
  5
46e
  8
Layer_7
  10
284.87592
  20
46.972107
  0
VERTEX
  5
46f
  8
Layer_7
  10
285.04108
  20
47.244293
  0
VERTEX
  5
470
  8
Layer_7
  10
285.14545
  20
47.545074
  0
VERTEX
  5
471
  8
Layer_7
  10
285.18182
  20
47.868011
  0
VERTEX
  5
472
  8
Layer_7
  10
285.18182
  20
51.386078
  0
VERTEX
  5
473
  8
Layer_7
  10
285.14545
  20
51.709015
  0
VERTEX
  5
474
  8
Layer_7
  10
285.04108
  20
52.009796
  0
VERTEX
  5
475
  8
Layer_7
  10
284.87592
  20
52.281982
  0
VERTEX
  5
476
  8
Layer_7
  10
284.65717
  20
52.519135
  0
VERTEX
  5
477
  8
Layer_7
  10
284.39203
  20
52.714783
  0
VERTEX
  5
478
  8
Layer_7
  10
284.08777
  20
52.862549
  0
VERTEX
  5
479
  8
Layer_7
  10
283.7515
  20
52.955933
  0
VERTEX
  5
47a
  8
Layer_7
  10
283.39047
  20
52.988464
  0
SEQEND
  0
POLYLINE
  5
47c
  8
Layer_7
  62
12
  70
1
  66
1
  10
0
  20
0
  30
0
  0
VERTEX
  5
47c
  8
Layer_7
  10
283.39047
  20
61.554047
  0
VERTEX
  5
47d
  8
Layer_7
  10
269.95535
  20
61.554047
  0
VERTEX
  5
47e
  8
Layer_7
  10
269.59433
  20
61.521484
  0
VERTEX
  5
47f
  8
Layer_7
  10
269.25806
  20
61.428131
  0
VERTEX
  5
480
  8
Layer_7
  10
268.9538
  20
61.280396
  0
VERTEX
  5
481
  8
Layer_7
  10
268.68866
  20
61.084717
  0
VERTEX
  5
482
  8
Layer_7
  10
268.46991
  20
60.847565
  0
VERTEX
  5
483
  8
Layer_7
  10
268.30475
  20
60.575378
  0
VERTEX
  5
484
  8
Layer_7
  10
268.20038
  20
60.274597
  0
VERTEX
  5
485
  8
Layer_7
  10
268.164
  20
59.95166
  0
VERTEX
  5
486
  8
Layer_7
  10
268.164
  20
56.433594
  0
VERTEX
  5
487
  8
Layer_7
  10
268.20038
  20
56.110657
  0
VERTEX
  5
488
  8
Layer_7
  10
268.30475
  20
55.809875
  0
VERTEX
  5
489
  8
Layer_7
  10
268.46991
  20
55.537689
  0
VERTEX
  5
48a
  8
Layer_7
  10
268.68866
  20
55.300537
  0
VERTEX
  5
48b
  8
Layer_7
  10
268.9538
  20
55.104858
  0
VERTEX
  5
48c
  8
Layer_7
  10
269.25806
  20
54.957123
  0
VERTEX
  5
48d
  8
Layer_7
  10
269.59433
  20
54.86377
  0
VERTEX
  5
48e
  8
Layer_7
  10
269.95535
  20
54.831207
  0
VERTEX
  5
48f
  8
Layer_7
  10
283.39047
  20
54.831207
  0
VERTEX
  5
490
  8
Layer_7
  10
283.7515
  20
54.86377
  0
VERTEX
  5
491
  8
Layer_7
  10
284.08777
  20
54.957123
  0
VERTEX
  5
492
  8
Layer_7
  10
284.39203
  20
55.104858
  0
VERTEX
  5
493
  8
Layer_7
  10
284.65717
  20
55.300537
  0
VERTEX
  5
494
  8
Layer_7
  10
284.87592
  20
55.537689
  0
VERTEX
  5
495
  8
Layer_7
  10
285.04108
  20
55.809875
  0
VERTEX
  5
496
  8
Layer_7
  10
285.14545
  20
56.110657
  0
VERTEX
  5
497
  8
Layer_7
  10
285.18182
  20
56.433594
  0
VERTEX
  5
498
  8
Layer_7
  10
285.18182
  20
59.95166
  0
VERTEX
  5
499
  8
Layer_7
  10
285.14545
  20
60.274597
  0
VERTEX
  5
49a
  8
Layer_7
  10
285.04108
  20
60.575378
  0
VERTEX
  5
49b
  8
Layer_7
  10
284.87592
  20
60.847565
  0
VERTEX
  5
49c
  8
Layer_7
  10
284.65717
  20
61.084717
  0
VERTEX
  5
49d
  8
Layer_7
  10
284.39203
  20
61.280396
  0
VERTEX
  5
49e
  8
Layer_7
  10
284.08777
  20
61.428131
  0
VERTEX
  5
49f
  8
Layer_7
  10
283.7515
  20
61.521484
  0
VERTEX
  5
4a0
  8
Layer_7
  10
283.39047
  20
61.554047
  0
SEQEND
  0
POLYLINE
  5
4a2
  8
Layer_7
  62
12
  70
1
  66
1
  10
0
  20
0
  30
0
  0
VERTEX
  5
4a2
  8
Layer_7
  10
283.39047
  20
70.119598
  0
VERTEX
  5
4a3
  8
Layer_7
  10
269.95535
  20
70.119598
  0
VERTEX
  5
4a4
  8
Layer_7
  10
269.59433
  20
70.087036
  0
VERTEX
  5
4a5
  8
Layer_7
  10
269.25806
  20
69.993683
  0
VERTEX
  5
4a6
  8
Layer_7
  10
268.9538
  20
69.845947
  0
VERTEX
  5
4a7
  8
Layer_7
  10
268.68866
  20
69.650269
  0
VERTEX
  5
4a8
  8
Layer_7
  10
268.46991
  20
69.413116
  0
VERTEX
  5
4a9
  8
Layer_7
  10
268.30475
  20
69.14093
  0
VERTEX
  5
4aa
  8
Layer_7
  10
268.20038
  20
68.840149
  0
VERTEX
  5
4ab
  8
Layer_7
  10
268.164
  20
68.517212
  0
VERTEX
  5
4ac
  8
Layer_7
  10
268.164
  20
64.999146
  0
VERTEX
  5
4ad
  8
Layer_7
  10
268.20038
  20
64.676208
  0
VERTEX
  5
4ae
  8
Layer_7
  10
268.30475
  20
64.375427
  0
VERTEX
  5
4af
  8
Layer_7
  10
268.46991
  20
64.103241
  0
VERTEX
  5
4b0
  8
Layer_7
  10
268.68866
  20
63.866089
  0
VERTEX
  5
4b1
  8
Layer_7
  10
268.9538
  20
63.67041
  0
VERTEX
  5
4b2
  8
Layer_7
  10
269.25806
  20
63.522675
  0
VERTEX
  5
4b3
  8
Layer_7
  10
269.59433
  20
63.429321
  0
VERTEX
  5
4b4
  8
Layer_7
  10
269.95535
  20
63.396759
  0
VERTEX
  5
4b5
  8
Layer_7
  10
283.39047
  20
63.396759
  0
VERTEX
  5
4b6
  8
Layer_7
  10
283.7515
  20
63.429321
  0
VERTEX
  5
4b7
  8
Layer_7
  10
284.08777
  20
63.522675
  0
VERTEX
  5
4b8
  8
Layer_7
  10
284.39203
  20
63.67041
  0
VERTEX
  5
4b9
  8
Layer_7
  10
284.65717
  20
63.866089
  0
VERTEX
  5
4ba
  8
Layer_7
  10
284.87592
  20
64.103241
  0
VERTEX
  5
4bb
  8
Layer_7
  10
285.04108
  20
64.375427
  0
VERTEX
  5
4bc
  8
Layer_7
  10
285.14545
  20
64.676208
  0
VERTEX
  5
4bd
  8
Layer_7
  10
285.18182
  20
64.999146
  0
VERTEX
  5
4be
  8
Layer_7
  10
285.18182
  20
68.517212
  0
VERTEX
  5
4bf
  8
Layer_7
  10
285.14545
  20
68.840149
  0
VERTEX
  5
4c0
  8
Layer_7
  10
285.04108
  20
69.14093
  0
VERTEX
  5
4c1
  8
Layer_7
  10
284.87592
  20
69.413116
  0
VERTEX
  5
4c2
  8
Layer_7
  10
284.65717
  20
69.650269
  0
VERTEX
  5
4c3
  8
Layer_7
  10
284.39203
  20
69.845947
  0
VERTEX
  5
4c4
  8
Layer_7
  10
284.08777
  20
69.993683
  0
VERTEX
  5
4c5
  8
Layer_7
  10
283.7515
  20
70.087036
  0
VERTEX
  5
4c6
  8
Layer_7
  10
283.39047
  20
70.119598
  0
SEQEND
  0
POLYLINE
  5
4c8
  8
Layer_7
  62
12
  70
1
  66
1
  10
0
  20
0
  30
0
  0
VERTEX
  5
4c8
  8
Layer_7
  10
283.39047
  20
78.68515
  0
VERTEX
  5
4c9
  8
Layer_7
  10
269.95535
  20
78.68515
  0
VERTEX
  5
4ca
  8
Layer_7
  10
269.59433
  20
78.652588
  0
VERTEX
  5
4cb
  8
Layer_7
  10
269.25806
  20
78.559235
  0
VERTEX
  5
4cc
  8
Layer_7
  10
268.9538
  20
78.411499
  0
VERTEX
  5
4cd
  8
Layer_7
  10
268.68866
  20
78.21582
  0
VERTEX
  5
4ce
  8
Layer_7
  10
268.46991
  20
77.978668
  0
VERTEX
  5
4cf
  8
Layer_7
  10
268.30475
  20
77.706482
  0
VERTEX
  5
4d0
  8
Layer_7
  10
268.20038
  20
77.405701
  0
VERTEX
  5
4d1
  8
Layer_7
  10
268.164
  20
77.082764
  0
VERTEX
  5
4d2
  8
Layer_7
  10
268.164
  20
73.564697
  0
VERTEX
  5
4d3
  8
Layer_7
  10
268.20038
  20
73.24176
  0
VERTEX
  5
4d4
  8
Layer_7
  10
268.30475
  20
72.940979
  0
VERTEX
  5
4d5
  8
Layer_7
  10
268.46991
  20
72.668793
  0
VERTEX
  5
4d6
  8
Layer_7
  10
268.68866
  20
72.431641
  0
VERTEX
  5
4d7
  8
Layer_7
  10
268.9538
  20
72.235962
  0
VERTEX
  5
4d8
  8
Layer_7
  10
269.25806
  20
72.088226
  0
VERTEX
  5
4d9
  8
Layer_7
  10
269.59433
  20
71.994873
  0
VERTEX
  5
4da
  8
Layer_7
  10
269.95535
  20
71.962311
  0
VERTEX
  5
4db
  8
Layer_7
  10
283.39047
  20
71.962311
  0
VERTEX
  5
4dc
  8
Layer_7
  10
283.7515
  20
71.994873
  0
VERTEX
  5
4dd
  8
Layer_7
  10
284.08777
  20
72.088226
  0
VERTEX
  5
4de
  8
Layer_7
  10
284.39203
  20
72.235962
  0
VERTEX
  5
4df
  8
Layer_7
  10
284.65717
  20
72.431641
  0
VERTEX
  5
4e0
  8
Layer_7
  10
284.87592
  20
72.668793
  0
VERTEX
  5
4e1
  8
Layer_7
  10
285.04108
  20
72.940979
  0
VERTEX
  5
4e2
  8
Layer_7
  10
285.14545
  20
73.24176
  0
VERTEX
  5
4e3
  8
Layer_7
  10
285.18182
  20
73.564697
  0
VERTEX
  5
4e4
  8
Layer_7
  10
285.18182
  20
77.082764
  0
VERTEX
  5
4e5
  8
Layer_7
  10
285.14545
  20
77.405701
  0
VERTEX
  5
4e6
  8
Layer_7
  10
285.04108
  20
77.706482
  0
VERTEX
  5
4e7
  8
Layer_7
  10
284.87592
  20
77.978668
  0
VERTEX
  5
4e8
  8
Layer_7
  10
284.65717
  20
78.21582
  0
VERTEX
  5
4e9
  8
Layer_7
  10
284.39203
  20
78.411499
  0
VERTEX
  5
4ea
  8
Layer_7
  10
284.08777
  20
78.559235
  0
VERTEX
  5
4eb
  8
Layer_7
  10
283.7515
  20
78.652588
  0
VERTEX
  5
4ec
  8
Layer_7
  10
283.39047
  20
78.68515
  0
SEQEND
  0
POLYLINE
  5
4ee
  8
Layer_0
  62
0
  70
1
  66
1
  10
0
  20
0
  30
0
  0
VERTEX
  5
4ee
  8
Layer_0
  10
210.89359
  20
125.24701
  0
VERTEX
  5
4ef
  8
Layer_0
  10
210.89359
  20
126.33533
  0
VERTEX
  5
4f0
  8
Layer_0
  10
208.92162
  20
126.33533
  0
VERTEX
  5
4f1
  8
Layer_0
  10
208.92162
  20
126.84692
  0
VERTEX
  5
4f2
  8
Layer_0
  10
210.99591
  20
129.79248
  0
VERTEX
  5
4f3
  8
Layer_0
  10
211.45169
  20
129.79248
  0
VERTEX
  5
4f4
  8
Layer_0
  10
211.45169
  20
126.84692
  0
VERTEX
  5
4f5
  8
Layer_0
  10
212.06561
  20
126.84692
  0
VERTEX
  5
4f6
  8
Layer_0
  10
212.06561
  20
126.33533
  0
VERTEX
  5
4f7
  8
Layer_0
  10
211.45169
  20
126.33533
  0
VERTEX
  5
4f8
  8
Layer_0
  10
211.45169
  20
125.24701
  0
VERTEX
  5
4f9
  8
Layer_0
  10
210.89359
  20
125.24701
  0
SEQEND
  0
POLYLINE
  5
4fb
  8
Layer_0
  62
0
  70
1
  66
1
  10
0
  20
0
  30
0
  0
VERTEX
  5
4fb
  8
Layer_0
  10
210.89359
  20
126.84692
  0
VERTEX
  5
4fc
  8
Layer_0
  10
210.89359
  20
128.89639
  0
VERTEX
  5
4fd
  8
Layer_0
  10
209.47043
  20
126.84692
  0
VERTEX
  5
4fe
  8
Layer_0
  10
210.89359
  20
126.84692
  0
SEQEND
  0
POLYLINE
  5
500
  8
Layer_0
  62
0
  70
1
  66
1
  10
0
  20
0
  30
0
  0
VERTEX
  5
500
  8
Layer_0
  10
212.63574
  20
127.48874
  0
VERTEX
  5
501
  8
Layer_0
  10
212.6461
  20
127.87213
  0
VERTEX
  5
502
  8
Layer_0
  10
212.67722
  20
128.21619
  0
VERTEX
  5
503
  8
Layer_0
  10
212.72905
  20
128.52094
  0
VERTEX
  5
504
  8
Layer_0
  10
212.80164
  20
128.78632
  0
VERTEX
  5
505
  8
Layer_0
  10
212.89465
  20
129.01797
  0
VERTEX
  5
506
  8
Layer_0
  10
213.00781
  20
129.22156
  0
VERTEX
  5
507
  8
Layer_0
  10
213.14114
  20
129.39703
  0
VERTEX
  5
508
  8
Layer_0
  10
213.29462
  20
129.54443
  0
VERTEX
  5
509
  8
Layer_0
  10
213.46872
  20
129.66107
  0
VERTEX
  5
50a
  8
Layer_0
  10
213.66397
  20
129.74438
  0
VERTEX
  5
50b
  8
Layer_0
  10
213.88034
  20
129.79437
  0
VERTEX
  5
50c
  8
Layer_0
  10
214.11783
  20
129.81107
  0
VERTEX
  5
50d
  8
Layer_0
  10
214.29514
  20
129.80185
  0
VERTEX
  5
50e
  8
Layer_0
  10
214.46121
  20
129.77423
  0
VERTEX
  5
50f
  8
Layer_0
  10
214.61606
  20
129.72824
  0
VERTEX
  5
510
  8
Layer_0
  10
214.75964
  20
129.66379
  0
VERTEX
  5
511
  8
Layer_0
  10
214.8916
  20
129.582
  0
VERTEX
  5
512
  8
Layer_0
  10
215.01157
  20
129.48395
  0
VERTEX
  5
513
  8
Layer_0
  10
215.11951
  20
129.36963
  0
VERTEX
  5
514
  8
Layer_0
  10
215.21544
  20
129.23901
  0
VERTEX
  5
515
  8
Layer_0
  10
215.37589
  20
128.93127
  0
VERTEX
  5
516
  8
Layer_0
  10
215.49759
  20
128.56308
  0
VERTEX
  5
517
  8
Layer_0
  10
215.54236
  20
128.34653
  0
VERTEX
  5
518
  8
Layer_0
  10
215.57434
  20
128.09528
  0
VERTEX
  5
519
  8
Layer_0
  10
215.59351
  20
127.80933
  0
VERTEX
  5
51a
  8
Layer_0
  10
215.59991
  20
127.48874
  0
VERTEX
  5
51b
  8
Layer_0
  10
215.58965
  20
127.10803
  0
VERTEX
  5
51c
  8
Layer_0
  10
215.55882
  20
126.7659
  0
VERTEX
  5
51d
  8
Layer_0
  10
215.50748
  20
126.46231
  0
VERTEX
  5
51e
  8
Layer_0
  10
215.43558
  20
126.19733
  0
VERTEX
  5
51f
  8
Layer_0
  10
215.34323
  20
125.96555
  0
VERTEX
  5
520
  8
Layer_0
  10
215.23056
  20
125.76172
  0
VERTEX
  5
521
  8
Layer_0
  10
215.09753
  20
125.58575
  0
VERTEX
  5
522
  8
Layer_0
  10
214.94414
  20
125.43768
  0
VERTEX
  5
523
  8
Layer_0
  10
214.76982
  20
125.32034
  0
VERTEX
  5
524
  8
Layer_0
  10
214.57401
  20
125.23651
  0
VERTEX
  5
525
  8
Layer_0
  10
214.35667
  20
125.18625
  0
VERTEX
  5
526
  8
Layer_0
  10
214.11783
  20
125.16949
  0
VERTEX
  5
527
  8
Layer_0
  10
213.80679
  20
125.19897
  0
VERTEX
  5
528
  8
Layer_0
  10
213.53104
  20
125.28732
  0
VERTEX
  5
529
  8
Layer_0
  10
213.29056
  20
125.43463
  0
VERTEX
  5
52a
  8
Layer_0
  10
213.08533
  20
125.64078
  0
VERTEX
  5
52b
  8
Layer_0
  10
212.97998
  20
125.79376
  0
VERTEX
  5
52c
  8
Layer_0
  10
212.88864
  20
125.96906
  0
VERTEX
  5
52d
  8
Layer_0
  10
212.81137
  20
126.16663
  0
VERTEX
  5
52e
  8
Layer_0
  10
212.74814
  20
126.38647
  0
VERTEX
  5
52f
  8
Layer_0
  10
212.69897
  20
126.6286
  0
VERTEX
  5
530
  8
Layer_0
  10
212.66385
  20
126.89304
  0
VERTEX
  5
531
  8
Layer_0
  10
212.64278
  20
127.17975
  0
VERTEX
  5
532
  8
Layer_0
  10
212.63574
  20
127.48874
  0
SEQEND
  0
POLYLINE
  5
534
  8
Layer_0
  62
0
  70
1
  66
1
  10
0
  20
0
  30
0
  0
VERTEX
  5
534
  8
Layer_0
  10
213.20935
  20
127.48874
  0
VERTEX
  5
535
  8
Layer_0
  10
213.22574
  20
126.97589
  0
VERTEX
  5
536
  8
Layer_0
  10
213.27486
  20
126.55661
  0
VERTEX
  5
537
  8
Layer_0
  10
213.35675
  20
126.23096
  0
VERTEX
  5
538
  8
Layer_0
  10
213.47136
  20
125.9989
  0
VERTEX
  5
539
  8
Layer_0
  10
213.61002
  20
125.83679
  0
VERTEX
  5
53a
  8
Layer_0
  10
213.76398
  20
125.72101
  0
VERTEX
  5
53b
  8
Layer_0
  10
213.93324
  20
125.65155
  0
VERTEX
  5
53c
  8
Layer_0
  10
214.11783
  20
125.62839
  0
VERTEX
  5
53d
  8
Layer_0
  10
214.30241
  20
125.65164
  0
VERTEX
  5
53e
  8
Layer_0
  10
214.47168
  20
125.72141
  0
VERTEX
  5
53f
  8
Layer_0
  10
214.62564
  20
125.83768
  0
VERTEX
  5
540
  8
Layer_0
  10
214.7643
  20
126.00046
  0
VERTEX
  5
541
  8
Layer_0
  10
214.87891
  20
126.233
  0
VERTEX
  5
542
  8
Layer_0
  10
214.9608
  20
126.55856
  0
VERTEX
  5
543
  8
Layer_0
  10
215.00992
  20
126.97714
  0
VERTEX
  5
544
  8
Layer_0
  10
215.02631
  20
127.48874
  0
VERTEX
  5
545
  8
Layer_0
  10
215.00992
  20
128.00284
  0
VERTEX
  5
546
  8
Layer_0
  10
214.9608
  20
128.42276
  0
VERTEX
  5
547
  8
Layer_0
  10
214.87891
  20
128.74854
  0
VERTEX
  5
548
  8
Layer_0
  10
214.7643
  20
128.9801
  0
VERTEX
  5
549
  8
Layer_0
  10
214.62526
  20
129.14154
  0
VERTEX
  5
54a
  8
Layer_0
  10
214.47014
  20
129.25684
  0
VERTEX
  5
54b
  8
Layer_0
  10
214.29892
  20
129.32605
  0
VERTEX
  5
54c
  8
Layer_0
  10
214.11163
  20
129.34909
  0
VERTEX
  5
54d
  8
Layer_0
  10
213.92908
  20
129.32874
  0
VERTEX
  5
54e
  8
Layer_0
  10
213.7659
  20
129.2677
  0
VERTEX
  5
54f
  8
Layer_0
  10
213.62213
  20
129.16595
  0
VERTEX
  5
550
  8
Layer_0
  10
213.49771
  20
129.02353
  0
VERTEX
  5
551
  8
Layer_0
  10
213.37155
  20
128.77179
  0
VERTEX
  5
552
  8
Layer_0
  10
213.28143
  20
128.4321
  0
VERTEX
  5
553
  8
Layer_0
  10
213.22739
  20
128.00439
  0
VERTEX
  5
554
  8
Layer_0
  10
213.20935
  20
127.48874
  0
SEQEND
  0
POLYLINE
  5
556
  8
Layer_0
  62
0
  70
1
  66
1
  10
0
  20
0
  30
0
  0
VERTEX
  5
556
  8
Layer_0
  10
226.55569
  20
104.04541
  0
VERTEX
  5
557
  8
Layer_0
  10
226.55569
  20
103.509
  0
VERTEX
  5
558
  8
Layer_0
  10
223.55122
  20
103.509
  0
VERTEX
  5
559
  8
Layer_0
  10
223.56441
  20
103.70667
  0
VERTEX
  5
55a
  8
Layer_0
  10
223.61635
  20
103.89658
  0
VERTEX
  5
55b
  8
Layer_0
  10
223.76556
  20
104.20123
  0
VERTEX
  5
55c
  8
Layer_0
  10
223.98376
  20
104.50119
  0
VERTEX
  5
55d
  8
Layer_0
  10
224.12416
  20
104.65582
  0
VERTEX
  5
55e
  8
Layer_0
  10
224.29266
  20
104.82208
  0
VERTEX
  5
55f
  8
Layer_0
  10
224.48926
  20
105
  0
VERTEX
  5
560
  8
Layer_0
  10
225.05444
  20
105.4776
  0
VERTEX
  5
561
  8
Layer_0
  10
225.33485
  20
105.73407
  0
VERTEX
  5
562
  8
Layer_0
  10
225.55519
  20
105.95898
  0
VERTEX
  5
563
  8
Layer_0
  10
225.71544
  20
106.15225
  0
VERTEX
  5
564
  8
Layer_0
  10
225.82938
  20
106.32733
  0
VERTEX
  5
565
  8
Layer_0
  10
225.91078
  20
106.49756
  0
VERTEX
  5
566
  8
Layer_0
  10
225.95961
  20
106.66296
  0
VERTEX
  5
567
  8
Layer_0
  10
225.97589
  20
106.82352
  0
VERTEX
  5
568
  8
Layer_0
  10
225.96106
  20
106.98291
  0
VERTEX
  5
569
  8
Layer_0
  10
225.91658
  20
107.12933
  0
VERTEX
  5
56a
  8
Layer_0
  10
225.84245
  20
107.26276
  0
VERTEX
  5
56b
  8
Layer_0
  10
225.73869
  20
107.38318
  0
VERTEX
  5
56c
  8
Layer_0
  10
225.61108
  20
107.48291
  0
VERTEX
  5
56d
  8
Layer_0
  10
225.46545
  20
107.55414
  0
VERTEX
  5
56e
  8
Layer_0
  10
225.3018
  20
107.59683
  0
VERTEX
  5
56f
  8
Layer_0
  10
225.12013
  20
107.61108
  0
VERTEX
  5
570
  8
Layer_0
  10
224.92868
  20
107.59598
  0
VERTEX
  5
571
  8
Layer_0
  10
224.75735
  20
107.55063
  0
VERTEX
  5
572
  8
Layer_0
  10
224.6062
  20
107.47504
  0
VERTEX
  5
573
  8
Layer_0
  10
224.4752
  20
107.36923
  0
VERTEX
  5
574
  8
Layer_0
  10
224.3692
  20
107.23669
  0
VERTEX
  5
575
  8
Layer_0
  10
224.29306
  20
107.08087
  0
VERTEX
  5
576
  8
Layer_0
  10
224.24673
  20
106.90182
  0
VERTEX
  5
577
  8
Layer_0
  10
224.23026
  20
106.69949
  0
VERTEX
  5
578
  8
Layer_0
  10
223.65665
  20
106.75842
  0
VERTEX
  5
579
  8
Layer_0
  10
223.70645
  20
107.06024
  0
VERTEX
  5
57a
  8
Layer_0
  10
223.79695
  20
107.32391
  0
VERTEX
  5
57b
  8
Layer_0
  10
223.92813
  20
107.54938
  0
VERTEX
  5
57c
  8
Layer_0
  10
224.10004
  20
107.73666
  0
VERTEX
  5
57d
  8
Layer_0
  10
224.30875
  20
107.88385
  0
VERTEX
  5
57e
  8
Layer_0
  10
224.5504
  20
107.98898
  0
VERTEX
  5
57f
  8
Layer_0
  10
224.82498
  20
108.05203
  0
VERTEX
  5
580
  8
Layer_0
  10
225.13252
  20
108.07306
  0
VERTEX
  5
581
  8
Layer_0
  10
225.44258
  20
108.05038
  0
VERTEX
  5
582
  8
Layer_0
  10
225.71854
  20
107.98239
  0
VERTEX
  5
583
  8
Layer_0
  10
225.96039
  20
107.86902
  0
VERTEX
  5
584
  8
Layer_0
  10
226.16812
  20
107.7103
  0
VERTEX
  5
585
  8
Layer_0
  10
226.33499
  20
107.51807
  0
VERTEX
  5
586
  8
Layer_0
  10
226.45416
  20
107.30414
  0
VERTEX
  5
587
  8
Layer_0
  10
226.52567
  20
107.06848
  0
VERTEX
  5
588
  8
Layer_0
  10
226.5495
  20
106.81113
  0
VERTEX
  5
589
  8
Layer_0
  10
226.52159
  20
106.54059
  0
VERTEX
  5
58a
  8
Layer_0
  10
226.43788
  20
106.27472
  0
VERTEX
  5
58b
  8
Layer_0
  10
226.28944
  20
106.00421
  0
VERTEX
  5
58c
  8
Layer_0
  10
226.06735
  20
105.71973
  0
VERTEX
  5
58d
  8
Layer_0
  10
225.91649
  20
105.56042
  0
VERTEX
  5
58e
  8
Layer_0
  10
225.72281
  20
105.37399
  0
VERTEX
  5
58f
  8
Layer_0
  10
225.48628
  20
105.16046
  0
VERTEX
  5
590
  8
Layer_0
  10
225.20694
  20
104.91977
  0
VERTEX
  5
591
  8
Layer_0
  10
224.97827
  20
104.72589
  0
VERTEX
  5
592
  8
Layer_0
  10
224.79456
  20
104.56592
  0
VERTEX
  5
593
  8
Layer_0
  10
224.65581
  20
104.43988
  0
VERTEX
  5
594
  8
Layer_0
  10
224.56203
  20
104.34772
  0
VERTEX
  5
595
  8
Layer_0
  10
224.43179
  20
104.19696
  0
VERTEX
  5
596
  8
Layer_0
  10
224.32637
  20
104.04541
  0
VERTEX
  5
597
  8
Layer_0
  10
226.55569
  20
104.04541
  0
SEQEND
  0
POLYLINE
  5
599
  8
Layer_0
  62
0
  70
1
  66
1
  10
0
  20
0
  30
0
  0
VERTEX
  5
599
  8
Layer_0
  10
227.15373
  20
104.69962
  0
VERTEX
  5
59a
  8
Layer_0
  10
227.73975
  20
104.74924
  0
VERTEX
  5
59b
  8
Layer_0
  10
227.78305
  20
104.54858
  0
VERTEX
  5
59c
  8
Layer_0
  10
227.84787
  20
104.37445
  0
VERTEX
  5
59d
  8
Layer_0
  10
227.9342
  20
104.22687
  0
VERTEX
  5
59e
  8
Layer_0
  10
228.04205
  20
104.10587
  0
VERTEX
  5
59f
  8
Layer_0
  10
228.16678
  20
104.0116
  0
VERTEX
  5
5a0
  8
Layer_0
  10
228.30368
  20
103.94424
  0
VERTEX
  5
5a1
  8
Layer_0
  10
228.4528
  20
103.90384
  0
VERTEX
  5
5a2
  8
Layer_0
  10
228.61412
  20
103.89038
  0
VERTEX
  5
5a3
  8
Layer_0
  10
228.80791
  20
103.90939
  0
VERTEX
  5
5a4
  8
Layer_0
  10
228.98619
  20
103.96637
  0
VERTEX
  5
5a5
  8
Layer_0
  10
229.14897
  20
104.06134
  0
VERTEX
  5
5a6
  8
Layer_0
  10
229.29625
  20
104.19424
  0
VERTEX
  5
5a7
  8
Layer_0
  10
229.41833
  20
104.35858
  0
VERTEX
  5
5a8
  8
Layer_0
  10
229.50554
  20
104.5477
  0
VERTEX
  5
5a9
  8
Layer_0
  10
229.55786
  20
104.76166
  0
VERTEX
  5
5aa
  8
Layer_0
  10
229.5753
  20
105.0004
  0
VERTEX
  5
5ab
  8
Layer_0
  10
229.55853
  20
105.2265
  0
VERTEX
  5
5ac
  8
Layer_0
  10
229.50826
  20
105.42749
  0
VERTEX
  5
5ad
  8
Layer_0
  10
229.42444
  20
105.60321
  0
VERTEX
  5
5ae
  8
Layer_0
  10
229.3071
  20
105.75381
  0
VERTEX
  5
5af
  8
Layer_0
  10
229.16263
  20
105.87457
  0
VERTEX
  5
5b0
  8
Layer_0
  10
228.99742
  20
105.96078
  0
VERTEX
  5
5b1
  8
Layer_0
  10
228.81149
  20
106.01254
  0
VERTEX
  5
5b2
  8
Layer_0
  10
228.60481
  20
106.02979
  0
VERTEX
  5
5b3
  8
Layer_0
  10
228.34824
  20
105.99918
  0
VERTEX
  5
5b4
  8
Layer_0
  10
228.11803
  20
105.90732
  0
VERTEX
  5
5b5
  8
Layer_0
  10
227.92422
  20
105.7666
  0
VERTEX
  5
5b6
  8
Layer_0
  10
227.77696
  20
105.58951
  0
VERTEX
  5
5b7
  8
Layer_0
  10
227.25296
  20
105.65771
  0
VERTEX
  5
5b8
  8
Layer_0
  10
227.69324
  20
107.99246
  0
VERTEX
  5
5b9
  8
Layer_0
  10
229.95357
  20
107.99246
  0
VERTEX
  5
5ba
  8
Layer_0
  10
229.95357
  20
107.45914
  0
VERTEX
  5
5bb
  8
Layer_0
  10
228.13972
  20
107.45914
  0
VERTEX
  5
5bc
  8
Layer_0
  10
227.89478
  20
106.23752
  0
VERTEX
  5
5bd
  8
Layer_0
  10
228.10193
  20
106.3623
  0
VERTEX
  5
5be
  8
Layer_0
  10
228.31413
  20
106.45145
  0
VERTEX
  5
5bf
  8
Layer_0
  10
228.53137
  20
106.50494
  0
VERTEX
  5
5c0
  8
Layer_0
  10
228.75365
  20
106.52277
  0
VERTEX
  5
5c1
  8
Layer_0
  10
229.03967
  20
106.49698
  0
VERTEX
  5
5c2
  8
Layer_0
  10
229.30244
  20
106.41968
  0
VERTEX
  5
5c3
  8
Layer_0
  10
229.54196
  20
106.2908
  0
VERTEX
  5
5c4
  8
Layer_0
  10
229.75822
  20
106.11038
  0
VERTEX
  5
5c5
  8
Layer_0
  10
229.93729
  20
105.88947
  0
VERTEX
  5
5c6
  8
Layer_0
  10
230.06519
  20
105.6391
  0
VERTEX
  5
5c7
  8
Layer_0
  10
230.14194
  20
105.35928
  0
VERTEX
  5
5c8
  8
Layer_0
  10
230.16751
  20
105.04999
  0
VERTEX
  5
5c9
  8
Layer_0
  10
230.14503
  20
104.75192
  0
VERTEX
  5
5ca
  8
Layer_0
  10
230.07761
  20
104.47482
  0
VERTEX
  5
5cb
  8
Layer_0
  10
229.96521
  20
104.21863
  0
VERTEX
  5
5cc
  8
Layer_0
  10
229.80785
  20
103.9834
  0
VERTEX
  5
5cd
  8
Layer_0
  10
229.56929
  20
103.74194
  0
VERTEX
  5
5ce
  8
Layer_0
  10
229.29082
  20
103.56946
  0
VERTEX
  5
5cf
  8
Layer_0
  10
228.97243
  20
103.46597
  0
VERTEX
  5
5d0
  8
Layer_0
  10
228.61412
  20
103.43149
  0
VERTEX
  5
5d1
  8
Layer_0
  10
228.3183
  20
103.45319
  0
VERTEX
  5
5d2
  8
Layer_0
  10
228.05096
  20
103.51831
  0
VERTEX
  5
5d3
  8
Layer_0
  10
227.81213
  20
103.62683
  0
VERTEX
  5
5d4
  8
Layer_0
  10
227.60178
  20
103.77875
  0
VERTEX
  5
5d5
  8
Layer_0
  10
227.4267
  20
103.96649
  0
VERTEX
  5
5d6
  8
Layer_0
  10
227.29366
  20
104.18262
  0
VERTEX
  5
5d7
  8
Layer_0
  10
227.20267
  20
104.42694
  0
VERTEX
  5
5d8
  8
Layer_0
  10
227.15373
  20
104.69962
  0
SEQEND
  0
POLYLINE
  5
5da
  8
Layer_0
  62
0
  70
1
  66
1
  10
0
  20
0
  30
0
  0
VERTEX
  5
5da
  8
Layer_0
  10
194.13376
  20
80.511993
  0
VERTEX
  5
5db
  8
Layer_0
  10
193.57565
  20
80.511993
  0
VERTEX
  5
5dc
  8
Layer_0
  10
193.57565
  20
84.068359
  0
VERTEX
  5
5dd
  8
Layer_0
  10
193.34271
  20
83.876129
  0
VERTEX
  5
5de
  8
Layer_0
  10
193.047
  20
83.683899
  0
VERTEX
  5
5df
  8
Layer_0
  10
192.73654
  20
83.515686
  0
VERTEX
  5
5e0
  8
Layer_0
  10
192.45944
  20
83.395538
  0
VERTEX
  5
5e1
  8
Layer_0
  10
192.45944
  20
83.935028
  0
VERTEX
  5
5e2
  8
Layer_0
  10
192.89816
  20
84.178436
  0
VERTEX
  5
5e3
  8
Layer_0
  10
193.27798
  20
84.468353
  0
VERTEX
  5
5e4
  8
Layer_0
  10
193.44037
  20
84.623779
  0
VERTEX
  5
5e5
  8
Layer_0
  10
193.57718
  20
84.776855
  0
VERTEX
  5
5e6
  8
Layer_0
  10
193.68842
  20
84.927612
  0
VERTEX
  5
5e7
  8
Layer_0
  10
193.77408
  20
85.07605
  0
VERTEX
  5
5e8
  8
Layer_0
  10
194.13376
  20
85.07605
  0
VERTEX
  5
5e9
  8
Layer_0
  10
194.13376
  20
80.511993
  0
SEQEND
  0
POLYLINE
  5
5eb
  8
Layer_0
  62
0
  70
1
  66
1
  10
0
  20
0
  30
0
  0
VERTEX
  5
5eb
  8
Layer_0
  10
195.64647
  20
81.56308
  0
VERTEX
  5
5ec
  8
Layer_0
  10
196.18286
  20
81.612701
  0
VERTEX
  5
5ed
  8
Layer_0
  10
196.22473
  20
81.436584
  0
VERTEX
  5
5ee
  8
Layer_0
  10
196.28209
  20
81.286377
  0
VERTEX
  5
5ef
  8
Layer_0
  10
196.35497
  20
81.16214
  0
VERTEX
  5
5f0
  8
Layer_0
  10
196.44331
  20
81.063904
  0
VERTEX
  5
5f1
  8
Layer_0
  10
196.5462
  20
80.989258
  0
VERTEX
  5
5f2
  8
Layer_0
  10
196.66267
  20
80.936005
  0
VERTEX
  5
5f3
  8
Layer_0
  10
196.79271
  20
80.904022
  0
VERTEX
  5
5f4
  8
Layer_0
  10
196.93631
  20
80.893372
  0
VERTEX
  5
5f5
  8
Layer_0
  10
197.17776
  20
80.922852
  0
VERTEX
  5
5f6
  8
Layer_0
  10
197.38745
  20
81.0112
  0
VERTEX
  5
5f7
  8
Layer_0
  10
197.5638
  20
81.148773
  0
VERTEX
  5
5f8
  8
Layer_0
  10
197.70526
  20
81.325897
  0
VERTEX
  5
5f9
  8
Layer_0
  10
197.8192
  20
81.557281
  0
VERTEX
  5
5fa
  8
Layer_0
  10
197.91299
  20
81.857635
  0
VERTEX
  5
5fb
  8
Layer_0
  10
197.97577
  20
82.195618
  0
VERTEX
  5
5fc
  8
Layer_0
  10
197.9967
  20
82.539764
  0
VERTEX
  5
5fd
  8
Layer_0
  10
197.99361
  20
82.651398
  0
VERTEX
  5
5fe
  8
Layer_0
  10
197.90224
  20
82.524353
  0
VERTEX
  5
5ff
  8
Layer_0
  10
197.79556
  20
82.409943
  0
VERTEX
  5
600
  8
Layer_0
  10
197.67357
  20
82.308105
  0
VERTEX
  5
601
  8
Layer_0
  10
197.53627
  20
82.218872
  0
VERTEX
  5
602
  8
Layer_0
  10
197.38831
  20
82.146301
  0
VERTEX
  5
603
  8
Layer_0
  10
197.23434
  20
82.094452
  0
VERTEX
  5
604
  8
Layer_0
  10
197.07437
  20
82.063354
  0
VERTEX
  5
605
  8
Layer_0
  10
196.9084
  20
82.052979
  0
VERTEX
  5
606
  8
Layer_0
  10
196.6371
  20
82.078583
  0
VERTEX
  5
607
  8
Layer_0
  10
196.3875
  20
82.155304
  0
VERTEX
  5
608
  8
Layer_0
  10
196.15961
  20
82.283203
  0
VERTEX
  5
609
  8
Layer_0
  10
195.95343
  20
82.46225
  0
VERTEX
  5
60a
  8
Layer_0
  10
195.78253
  20
82.683197
  0
VERTEX
  5
60b
  8
Layer_0
  10
195.66043
  20
82.936646
  0
VERTEX
  5
60c
  8
Layer_0
  10
195.58717
  20
83.222656
  0
VERTEX
  5
60d
  8
Layer_0
  10
195.56274
  20
83.54126
  0
VERTEX
  5
60e
  8
Layer_0
  10
195.58823
  20
83.870117
  0
VERTEX
  5
60f
  8
Layer_0
  10
195.66467
  20
84.165253
  0
VERTEX
  5
610
  8
Layer_0
  10
195.79208
  20
84.426697
  0
VERTEX
  5
611
  8
Layer_0
  10
195.97047
  20
84.654388
  0
VERTEX
  5
612
  8
Layer_0
  10
196.18723
  20
84.838837
  0
VERTEX
  5
613
  8
Layer_0
  10
196.42975
  20
84.970612
  0
VERTEX
  5
614
  8
Layer_0
  10
196.69806
  20
85.049683
  0
VERTEX
  5
615
  8
Layer_0
  10
196.99213
  20
85.07605
  0
VERTEX
  5
616
  8
Layer_0
  10
197.20908
  20
85.061127
  0
VERTEX
  5
617
  8
Layer_0
  10
197.41652
  20
85.016357
  0
VERTEX
  5
618
  8
Layer_0
  10
197.61447
  20
84.941742
  0
VERTEX
  5
619
  8
Layer_0
  10
197.80292
  20
84.837311
  0
VERTEX
  5
61a
  8
Layer_0
  10
197.97559
  20
84.705292
  0
VERTEX
  5
61b
  8
Layer_0
  10
198.12616
  20
84.547821
  0
VERTEX
  5
61c
  8
Layer_0
  10
198.25464
  20
84.36499
  0
VERTEX
  5
61d
  8
Layer_0
  10
198.36102
  20
84.156738
  0
VERTEX
  5
61e
  8
Layer_0
  10
198.44446
  20
83.911102
  0
VERTEX
  5
61f
  8
Layer_0
  10
198.50404
  20
83.616058
  0
VERTEX
  5
620
  8
Layer_0
  10
198.53979
  20
83.271606
  0
VERTEX
  5
621
  8
Layer_0
  10
198.55171
  20
82.877747
  0
VERTEX
  5
622
  8
Layer_0
  10
198.53989
  20
82.464294
  0
VERTEX
  5
623
  8
Layer_0
  10
198.50443
  20
82.095215
  0
VERTEX
  5
624
  8
Layer_0
  10
198.44533
  20
81.770508
  0
VERTEX
  5
625
  8
Layer_0
  10
198.36258
  20
81.490234
  0
VERTEX
  5
626
  8
Layer_0
  10
198.25647
  20
81.247498
  0
VERTEX
  5
627
  8
Layer_0
  10
198.12732
  20
81.035614
  0
VERTEX
  5
628
  8
Layer_0
  10
197.9751
  20
80.854492
  0
VERTEX
  5
629
  8
Layer_0
  10
197.79982
  20
80.704224
  0
VERTEX
  5
62a
  8
Layer_0
  10
197.60495
  20
80.586212
  0
VERTEX
  5
62b
  8
Layer_0
  10
197.39403
  20
80.501923
  0
VERTEX
  5
62c
  8
Layer_0
  10
197.16701
  20
80.451355
  0
VERTEX
  5
62d
  8
Layer_0
  10
196.9239
  20
80.434479
  0
VERTEX
  5
62e
  8
Layer_0
  10
196.66946
  20
80.453003
  0
VERTEX
  5
62f
  8
Layer_0
  10
196.43944
  20
80.508514
  0
VERTEX
  5
630
  8
Layer_0
  10
196.23383
  20
80.601044
  0
VERTEX
  5
631
  8
Layer_0
  10
196.05264
  20
80.730591
  0
VERTEX
  5
632
  8
Layer_0
  10
195.90051
  20
80.893646
  0
VERTEX
  5
633
  8
Layer_0
  10
195.78212
  20
81.086761
  0
VERTEX
  5
634
  8
Layer_0
  10
195.69742
  20
81.309906
  0
VERTEX
  5
635
  8
Layer_0
  10
195.64647
  20
81.56308
  0
SEQEND
  0
POLYLINE
  5
637
  8
Layer_0
  62
0
  70
1
  66
1
  10
0
  20
0
  30
0
  0
VERTEX
  5
637
  8
Layer_0
  10
197.93159
  20
83.569183
  0
VERTEX
  5
638
  8
Layer_0
  10
197.9156
  20
83.797058
  0
VERTEX
  5
639
  8
Layer_0
  10
197.86765
  20
84.000122
  0
VERTEX
  5
63a
  8
Layer_0
  10
197.7877
  20
84.178406
  0
VERTEX
  5
63b
  8
Layer_0
  10
197.6758
  20
84.331909
  0
VERTEX
  5
63c
  8
Layer_0
  10
197.54141
  20
84.455383
  0
VERTEX
  5
63d
  8
Layer_0
  10
197.39403
  20
84.543549
  0
VERTEX
  5
63e
  8
Layer_0
  10
197.23367
  20
84.596466
  0
VERTEX
  5
63f
  8
Layer_0
  10
197.06033
  20
84.614075
  0
VERTEX
  5
640
  8
Layer_0
  10
196.88031
  20
84.595062
  0
VERTEX
  5
641
  8
Layer_0
  10
196.7123
  20
84.538086
  0
VERTEX
  5
642
  8
Layer_0
  10
196.5563
  20
84.443115
  0
VERTEX
  5
643
  8
Layer_0
  10
196.41231
  20
84.310211
  0
VERTEX
  5
644
  8
Layer_0
  10
196.29158
  20
84.147064
  0
VERTEX
  5
645
  8
Layer_0
  10
196.20535
  20
83.961395
  0
VERTEX
  5
646
  8
Layer_0
  10
196.15359
  20
83.753265
  0
VERTEX
  5
647
  8
Layer_0
  10
196.13635
  20
83.522675
  0
VERTEX
  5
648
  8
Layer_0
  10
196.15274
  20
83.315796
  0
VERTEX
  5
649
  8
Layer_0
  10
196.20186
  20
83.129272
  0
VERTEX
  5
64a
  8
Layer_0
  10
196.28375
  20
82.963104
  0
VERTEX
  5
64b
  8
Layer_0
  10
196.39836
  20
82.817291
  0
VERTEX
  5
64c
  8
Layer_0
  10
196.53702
  20
82.698608
  0
VERTEX
  5
64d
  8
Layer_0
  10
196.69098
  20
82.613831
  0
VERTEX
  5
64e
  8
Layer_0
  10
196.86024
  20
82.562958
  0
VERTEX
  5
64f
  8
Layer_0
  10
197.04483
  20
82.54599
  0
VERTEX
  5
650
  8
Layer_0
  10
197.23
  20
82.562958
  0
VERTEX
  5
651
  8
Layer_0
  10
197.39792
  20
82.613831
  0
VERTEX
  5
652
  8
Layer_0
  10
197.5486
  20
82.698608
  0
VERTEX
  5
653
  8
Layer_0
  10
197.68201
  20
82.817291
  0
VERTEX
  5
654
  8
Layer_0
  10
197.7912
  20
82.966003
  0
VERTEX
  5
655
  8
Layer_0
  10
197.8692
  20
83.14093
  0
VERTEX
  5
656
  8
Layer_0
  10
197.916
  20
83.34198
  0
VERTEX
  5
657
  8
Layer_0
  10
197.93159
  20
83.569183
  0
SEQEND
  0
POLYLINE
  5
659
  8
Layer_0
  62
0
  70
1
  66
1
  10
0
  20
0
  30
0
  0
VERTEX
  5
659
  8
Layer_0
  10
225.59476
  20
54.617004
  0
VERTEX
  5
65a
  8
Layer_0
  10
225.03665
  20
54.617004
  0
VERTEX
  5
65b
  8
Layer_0
  10
225.03665
  20
58.17337
  0
VERTEX
  5
65c
  8
Layer_0
  10
224.80371
  20
57.98114
  0
VERTEX
  5
65d
  8
Layer_0
  10
224.508
  20
57.78891
  0
VERTEX
  5
65e
  8
Layer_0
  10
224.19754
  20
57.620697
  0
VERTEX
  5
65f
  8
Layer_0
  10
223.92044
  20
57.500549
  0
VERTEX
  5
660
  8
Layer_0
  10
223.92044
  20
58.040039
  0
VERTEX
  5
661
  8
Layer_0
  10
224.35916
  20
58.283447
  0
VERTEX
  5
662
  8
Layer_0
  10
224.73898
  20
58.573364
  0
VERTEX
  5
663
  8
Layer_0
  10
224.90137
  20
58.72879
  0
VERTEX
  5
664
  8
Layer_0
  10
225.03818
  20
58.881866
  0
VERTEX
  5
665
  8
Layer_0
  10
225.14941
  20
59.032623
  0
VERTEX
  5
666
  8
Layer_0
  10
225.23508
  20
59.181061
  0
VERTEX
  5
667
  8
Layer_0
  10
225.59476
  20
59.181061
  0
VERTEX
  5
668
  8
Layer_0
  10
225.59476
  20
54.617004
  0
SEQEND
  0
POLYLINE
  5
66a
  8
Layer_0
  62
0
  70
1
  66
1
  10
0
  20
0
  30
0
  0
VERTEX
  5
66a
  8
Layer_0
  10
227.02686
  20
55.816925
  0
VERTEX
  5
66b
  8
Layer_0
  10
227.58496
  20
55.891357
  0
VERTEX
  5
66c
  8
Layer_0
  10
227.64145
  20
55.670715
  0
VERTEX
  5
66d
  8
Layer_0
  10
227.7148
  20
55.483215
  0
VERTEX
  5
66e
  8
Layer_0
  10
227.80499
  20
55.328888
  0
VERTEX
  5
66f
  8
Layer_0
  10
227.91206
  20
55.207672
  0
VERTEX
  5
670
  8
Layer_0
  10
228.03387
  20
55.116089
  0
VERTEX
  5
671
  8
Layer_0
  10
228.16824
  20
55.05069
  0
VERTEX
  5
672
  8
Layer_0
  10
228.31525
  20
55.011475
  0
VERTEX
  5
673
  8
Layer_0
  10
228.47482
  20
54.998383
  0
VERTEX
  5
674
  8
Layer_0
  10
228.66405
  20
55.015442
  0
VERTEX
  5
675
  8
Layer_0
  10
228.83798
  20
55.066589
  0
VERTEX
  5
676
  8
Layer_0
  10
228.99658
  20
55.151855
  0
VERTEX
  5
677
  8
Layer_0
  10
229.13989
  20
55.27124
  0
VERTEX
  5
678
  8
Layer_0
  10
229.25861
  20
55.415802
  0
VERTEX
  5
679
  8
Layer_0
  10
229.34337
  20
55.57666
  0
VERTEX
  5
67a
  8
Layer_0
  10
229.39424
  20
55.753754
  0
VERTEX
  5
67b
  8
Layer_0
  10
229.41119
  20
55.947144
  0
VERTEX
  5
67c
  8
Layer_0
  10
229.39549
  20
56.130981
  0
VERTEX
  5
67d
  8
Layer_0
  10
229.3484
  20
56.297913
  0
VERTEX
  5
67e
  8
Layer_0
  10
229.26993
  20
56.447998
  0
VERTEX
  5
67f
  8
Layer_0
  10
229.16005
  20
56.581238
  0
VERTEX
  5
680
  8
Layer_0
  10
229.02594
  20
56.69043
  0
VERTEX
  5
681
  8
Layer_0
  10
228.87479
  20
56.768402
  0
VERTEX
  5
682
  8
Layer_0
  10
228.70659
  20
56.815216
  0
VERTEX
  5
683
  8
Layer_0
  10
228.52133
  20
56.830811
  0
VERTEX
  5
684
  8
Layer_0
  10
228.34383
  20
56.815308
  0
VERTEX
  5
685
  8
Layer_0
  10
228.12756
  20
56.768799
  0
VERTEX
  5
686
  8
Layer_0
  10
228.18958
  20
57.258698
  0
VERTEX
  5
687
  8
Layer_0
  10
228.23996
  20
57.254059
  0
VERTEX
  5
688
  8
Layer_0
  10
228.27948
  20
57.252502
  0
VERTEX
  5
689
  8
Layer_0
  10
228.45331
  20
57.26413
  0
VERTEX
  5
68a
  8
Layer_0
  10
228.61823
  20
57.299011
  0
VERTEX
  5
68b
  8
Layer_0
  10
228.77423
  20
57.357147
  0
VERTEX
  5
68c
  8
Layer_0
  10
228.92131
  20
57.438538
  0
VERTEX
  5
68d
  8
Layer_0
  10
229.0461
  20
57.544159
  0
VERTEX
  5
68e
  8
Layer_0
  10
229.13525
  20
57.674927
  0
VERTEX
  5
68f
  8
Layer_0
  10
229.18874
  20
57.830933
  0
VERTEX
  5
690
  8
Layer_0
  10
229.20656
  20
58.012146
  0
VERTEX
  5
691
  8
Layer_0
  10
229.19357
  20
58.159058
  0
VERTEX
  5
692
  8
Layer_0
  10
229.15462
  20
58.292755
  0
VERTEX
  5
693
  8
Layer_0
  10
229.08969
  20
58.413269
  0
VERTEX
  5
694
  8
Layer_0
  10
228.99883
  20
58.52063
  0
VERTEX
  5
695
  8
Layer_0
  10
228.88739
  20
58.608826
  0
VERTEX
  5
696
  8
Layer_0
  10
228.76085
  20
58.671814
  0
VERTEX
  5
697
  8
Layer_0
  10
228.6192
  20
58.709564
  0
VERTEX
  5
698
  8
Layer_0
  10
228.46242
  20
58.722168
  0
VERTEX
  5
699
  8
Layer_0
  10
228.30643
  20
58.709351
  0
VERTEX
  5
69a
  8
Layer_0
  10
228.16399
  20
58.671021
  0
VERTEX
  5
69b
  8
Layer_0
  10
228.03511
  20
58.607056
  0
VERTEX
  5
69c
  8
Layer_0
  10
227.91982
  20
58.517548
  0
VERTEX
  5
69d
  8
Layer_0
  10
227.821
  20
58.402435
  0
VERTEX
  5
69e
  8
Layer_0
  10
227.74155
  20
58.261749
  0
VERTEX
  5
69f
  8
Layer_0
  10
227.68147
  20
58.095459
  0
VERTEX
  5
6a0
  8
Layer_0
  10
227.64076
  20
57.903625
  0
VERTEX
  5
6a1
  8
Layer_0
  10
227.08266
  20
58.002838
  0
VERTEX
  5
6a2
  8
Layer_0
  10
227.1501
  20
58.267639
  0
VERTEX
  5
6a3
  8
Layer_0
  10
227.25009
  20
58.500854
  0
VERTEX
  5
6a4
  8
Layer_0
  10
227.38264
  20
58.702515
  0
VERTEX
  5
6a5
  8
Layer_0
  10
227.54774
  20
58.872559
  0
VERTEX
  5
6a6
  8
Layer_0
  10
227.74019
  20
59.007568
  0
VERTEX
  5
6a7
  8
Layer_0
  10
227.9547
  20
59.103943
  0
VERTEX
  5
6a8
  8
Layer_0
  10
228.19131
  20
59.161774
  0
VERTEX
  5
6a9
  8
Layer_0
  10
228.45001
  20
59.181061
  0
VERTEX
  5
6aa
  8
Layer_0
  10
228.63237
  20
59.171082
  0
VERTEX
  5
6ab
  8
Layer_0
  10
228.80734
  20
59.141144
  0
VERTEX
  5
6ac
  8
Layer_0
  10
228.97498
  20
59.091248
  0
VERTEX
  5
6ad
  8
Layer_0
  10
229.13525
  20
59.021393
  0
VERTEX
  5
6ae
  8
Layer_0
  10
229.28262
  20
58.934296
  0
VERTEX
  5
6af
  8
Layer_0
  10
229.41159
  20
58.832642
  0
VERTEX
  5
6b0
  8
Layer_0
  10
229.52214
  20
58.716431
  0
VERTEX
  5
6b1
  8
Layer_0
  10
229.61429
  20
58.585754
  0
VERTEX
  5
6b2
  8
Layer_0
  10
229.68687
  20
58.445618
  0
VERTEX
  5
6b3
  8
Layer_0
  10
229.73871
  20
58.30127
  0
VERTEX
  5
6b4
  8
Layer_0
  10
229.76981
  20
58.152649
  0
VERTEX
  5
6b5
  8
Layer_0
  10
229.78017
  20
57.999756
  0
VERTEX
  5
6b6
  8
Layer_0
  10
229.77029
  20
57.855774
  0
VERTEX
  5
6b7
  8
Layer_0
  10
229.74063
  20
57.718384
  0
VERTEX
  5
6b8
  8
Layer_0
  10
229.69122
  20
57.587555
  0
VERTEX
  5
6b9
  8
Layer_0
  10
229.62204
  20
57.463348
  0
VERTEX
  5
6ba
  8
Layer_0
  10
229.53348
  20
57.348633
  0
VERTEX
  5
6bb
  8
Layer_0
  10
229.42593
  20
57.246307
  0
VERTEX
  5
6bc
  8
Layer_0
  10
229.29938
  20
57.156372
  0
VERTEX
  5
6bd
  8
Layer_0
  10
229.15385
  20
57.078857
  0
VERTEX
  5
6be
  8
Layer_0
  10
229.34415
  20
57.019867
  0
VERTEX
  5
6bf
  8
Layer_0
  10
229.51196
  20
56.935852
  0
VERTEX
  5
6c0
  8
Layer_0
  10
229.65729
  20
56.826874
  0
VERTEX
  5
6c1
  8
Layer_0
  10
229.78017
  20
56.692841
  0
VERTEX
  5
6c2
  8
Layer_0
  10
229.87784
  20
56.53714
  0
VERTEX
  5
6c3
  8
Layer_0
  10
229.9476
  20
56.363037
  0
VERTEX
  5
6c4
  8
Layer_0
  10
229.98947
  20
56.170532
  0
VERTEX
  5
6c5
  8
Layer_0
  10
230.00342
  20
55.959564
  0
VERTEX
  5
6c6
  8
Layer_0
  10
229.97629
  20
55.673218
  0
VERTEX
  5
6c7
  8
Layer_0
  10
229.8949
  20
55.409607
  0
VERTEX
  5
6c8
  8
Layer_0
  10
229.75925
  20
55.16864
  0
VERTEX
  5
6c9
  8
Layer_0
  10
229.56934
  20
54.950317
  0
VERTEX
  5
6ca
  8
Layer_0
  10
229.33795
  20
54.769226
  0
VERTEX
  5
6cb
  8
Layer_0
  10
229.0779
  20
54.639862
  0
VERTEX
  5
6cc
  8
Layer_0
  10
228.78914
  20
54.562225
  0
VERTEX
  5
6cd
  8
Layer_0
  10
228.47173
  20
54.536377
  0
VERTEX
  5
6ce
  8
Layer_0
  10
228.18521
  20
54.558685
  0
VERTEX
  5
6cf
  8
Layer_0
  10
227.92407
  20
54.625549
  0
VERTEX
  5
6d0
  8
Layer_0
  10
227.68834
  20
54.737
  0
VERTEX
  5
6d1
  8
Layer_0
  10
227.47798
  20
54.892944
  0
VERTEX
  5
6d2
  8
Layer_0
  10
227.30154
  20
55.084412
  0
VERTEX
  5
6d3
  8
Layer_0
  10
227.16754
  20
55.302246
  0
VERTEX
  5
6d4
  8
Layer_0
  10
227.07599
  20
55.546417
  0
VERTEX
  5
6d5
  8
Layer_0
  10
227.02686
  20
55.816925
  0
SEQEND
  0
POLYLINE
  5
6d7
  8
Layer_0
  62
0
  70
1
  66
1
  10
0
  20
0
  30
0
  0
VERTEX
  5
6d7
  8
Layer_0
  10
190.0475
  20
33.998352
  0
VERTEX
  5
6d8
  8
Layer_0
  10
189.49249
  20
33.954956
  0
VERTEX
  5
6d9
  8
Layer_0
  10
189.40257
  20
34.238647
  0
VERTEX
  5
6da
  8
Layer_0
  10
189.28165
  20
34.432434
  0
VERTEX
  5
6db
  8
Layer_0
  10
189.1619
  20
34.536896
  0
VERTEX
  5
6dc
  8
Layer_0
  10
189.02896
  20
34.611511
  0
VERTEX
  5
6dd
  8
Layer_0
  10
188.88284
  20
34.65625
  0
VERTEX
  5
6de
  8
Layer_0
  10
188.72354
  20
34.671173
  0
VERTEX
  5
6df
  8
Layer_0
  10
188.59428
  20
34.661865
  0
VERTEX
  5
6e0
  8
Layer_0
  10
188.47318
  20
34.633972
  0
VERTEX
  5
6e1
  8
Layer_0
  10
188.3602
  20
34.587463
  0
VERTEX
  5
6e2
  8
Layer_0
  10
188.25536
  20
34.522369
  0
VERTEX
  5
6e3
  8
Layer_0
  10
188.13055
  20
34.415192
  0
VERTEX
  5
6e4
  8
Layer_0
  10
188.01971
  20
34.285919
  0
VERTEX
  5
6e5
  8
Layer_0
  10
187.92282
  20
34.134583
  0
VERTEX
  5
6e6
  8
Layer_0
  10
187.83987
  20
33.961151
  0
VERTEX
  5
6e7
  8
Layer_0
  10
187.77303
  20
33.75708
  0
VERTEX
  5
6e8
  8
Layer_0
  10
187.7244
  20
33.513916
  0
VERTEX
  5
6e9
  8
Layer_0
  10
187.69395
  20
33.231567
  0
VERTEX
  5
6ea
  8
Layer_0
  10
187.68175
  20
32.910065
  0
VERTEX
  5
6eb
  8
Layer_0
  10
187.78813
  20
33.05365
  0
VERTEX
  5
6ec
  8
Layer_0
  10
187.90578
  20
33.17749
  0
VERTEX
  5
6ed
  8
Layer_0
  10
188.03464
  20
33.281555
  0
VERTEX
  5
6ee
  8
Layer_0
  10
188.17474
  20
33.365845
  0
VERTEX
  5
6ef
  8
Layer_0
  10
188.3222
  20
33.430969
  0
VERTEX
  5
6f0
  8
Layer_0
  10
188.47318
  20
33.477478
  0
VERTEX
  5
6f1
  8
Layer_0
  10
188.62762
  20
33.505371
  0
VERTEX
  5
6f2
  8
Layer_0
  10
188.78555
  20
33.514679
  0
VERTEX
  5
6f3
  8
Layer_0
  10
189.05424
  20
33.489014
  0
VERTEX
  5
6f4
  8
Layer_0
  10
189.30219
  20
33.411987
  0
VERTEX
  5
6f5
  8
Layer_0
  10
189.5294
  20
33.2836
  0
VERTEX
  5
6f6
  8
Layer_0
  10
189.73589
  20
33.103851
  0
VERTEX
  5
6f7
  8
Layer_0
  10
189.90749
  20
32.883423
  0
VERTEX
  5
6f8
  8
Layer_0
  10
190.03006
  20
32.632935
  0
VERTEX
  5
6f9
  8
Layer_0
  10
190.10359
  20
32.352417
  0
VERTEX
  5
6fa
  8
Layer_0
  10
190.12811
  20
32.041901
  0
VERTEX
  5
6fb
  8
Layer_0
  10
190.11658
  20
31.831726
  0
VERTEX
  5
6fc
  8
Layer_0
  10
190.08199
  20
31.62912
  0
VERTEX
  5
6fd
  8
Layer_0
  10
190.02434
  20
31.434082
  0
VERTEX
  5
6fe
  8
Layer_0
  10
189.94363
  20
31.246582
  0
VERTEX
  5
6ff
  8
Layer_0
  10
189.84277
  20
31.073669
  0
VERTEX
  5
700
  8
Layer_0
  10
189.72464
  20
30.92218
  0
VERTEX
  5
701
  8
Layer_0
  10
189.58929
  20
30.792297
  0
VERTEX
  5
702
  8
Layer_0
  10
189.43668
  20
30.683838
  0
VERTEX
  5
703
  8
Layer_0
  10
189.27003
  20
30.598389
  0
VERTEX
  5
704
  8
Layer_0
  10
189.09253
  20
30.537323
  0
VERTEX
  5
705
  8
Layer_0
  10
188.90417
  20
30.500702
  0
VERTEX
  5
706
  8
Layer_0
  10
188.70494
  20
30.488495
  0
VERTEX
  5
707
  8
Layer_0
  10
188.37221
  20
30.520569
  0
VERTEX
  5
708
  8
Layer_0
  10
188.07164
  20
30.616791
  0
VERTEX
  5
709
  8
Layer_0
  10
187.80325
  20
30.777161
  0
VERTEX
  5
70a
  8
Layer_0
  10
187.56703
  20
31.001648
  0
VERTEX
  5
70b
  8
Layer_0
  10
187.3744
  20
31.299805
  0
VERTEX
  5
70c
  8
Layer_0
  10
187.23682
  20
31.681061
  0
VERTEX
  5
70d
  8
Layer_0
  10
187.15427
  20
32.145477
  0
VERTEX
  5
70e
  8
Layer_0
  10
187.12674
  20
32.693024
  0
VERTEX
  5
70f
  8
Layer_0
  10
187.13434
  20
33.01123
  0
VERTEX
  5
710
  8
Layer_0
  10
187.15717
  20
33.306946
  0
VERTEX
  5
711
  8
Layer_0
  10
187.19521
  20
33.5802
  0
VERTEX
  5
712
  8
Layer_0
  10
187.24844
  20
33.830933
  0
VERTEX
  5
713
  8
Layer_0
  10
187.31689
  20
34.059204
  0
VERTEX
  5
714
  8
Layer_0
  10
187.40057
  20
34.265015
  0
VERTEX
  5
715
  8
Layer_0
  10
187.49945
  20
34.448334
  0
VERTEX
  5
716
  8
Layer_0
  10
187.61354
  20
34.609161
  0
VERTEX
  5
717
  8
Layer_0
  10
187.84433
  20
34.837036
  0
VERTEX
  5
718
  8
Layer_0
  10
188.11195
  20
34.999847
  0
VERTEX
  5
719
  8
Layer_0
  10
188.4164
  20
35.097504
  0
VERTEX
  5
71a
  8
Layer_0
  10
188.75766
  20
35.130066
  0
VERTEX
  5
71b
  8
Layer_0
  10
189.01376
  20
35.111267
  0
VERTEX
  5
71c
  8
Layer_0
  10
189.24561
  20
35.054871
  0
VERTEX
  5
71d
  8
Layer_0
  10
189.45325
  20
34.960876
  0
VERTEX
  5
71e
  8
Layer_0
  10
189.63667
  20
34.829315
  0
VERTEX
  5
71f
  8
Layer_0
  10
189.79085
  20
34.664612
  0
VERTEX
  5
720
  8
Layer_0
  10
189.91069
  20
34.471191
  0
VERTEX
  5
721
  8
Layer_0
  10
189.99625
  20
34.249146
  0
VERTEX
  5
722
  8
Layer_0
  10
190.0475
  20
33.998352
  0
SEQEND
  0
POLYLINE
  5
724
  8
Layer_0
  62
0
  70
1
  66
1
  10
0
  20
0
  30
0
  0
VERTEX
  5
724
  8
Layer_0
  10
187.76857
  20
32.038788
  0
VERTEX
  5
725
  8
Layer_0
  10
187.79919
  20
31.756653
  0
VERTEX
  5
726
  8
Layer_0
  10
187.89104
  20
31.486877
  0
VERTEX
  5
727
  8
Layer_0
  10
187.95837
  20
31.362976
  0
VERTEX
  5
728
  8
Layer_0
  10
188.03793
  20
31.25473
  0
VERTEX
  5
729
  8
Layer_0
  10
188.1297
  20
31.162201
  0
VERTEX
  5
72a
  8
Layer_0
  10
188.23366
  20
31.085358
  0
VERTEX
  5
72b
  8
Layer_0
  10
188.45923
  20
30.981873
  0
VERTEX
  5
72c
  8
Layer_0
  10
188.69565
  20
30.947388
  0
VERTEX
  5
72d
  8
Layer_0
  10
188.86618
  20
30.96521
  0
VERTEX
  5
72e
  8
Layer_0
  10
189.02432
  20
31.018707
  0
VERTEX
  5
72f
  8
Layer_0
  10
189.17004
  20
31.107849
  0
VERTEX
  5
730
  8
Layer_0
  10
189.30336
  20
31.232635
  0
VERTEX
  5
731
  8
Layer_0
  10
189.41458
  20
31.388062
  0
VERTEX
  5
732
  8
Layer_0
  10
189.49403
  20
31.569031
  0
VERTEX
  5
733
  8
Layer_0
  10
189.54172
  20
31.775635
  0
VERTEX
  5
734
  8
Layer_0
  10
189.5576
  20
32.007782
  0
VERTEX
  5
735
  8
Layer_0
  10
189.5419
  20
32.230927
  0
VERTEX
  5
736
  8
Layer_0
  10
189.49481
  20
32.429077
  0
VERTEX
  5
737
  8
Layer_0
  10
189.41634
  20
32.602234
  0
VERTEX
  5
738
  8
Layer_0
  10
189.30646
  20
32.750366
  0
VERTEX
  5
739
  8
Layer_0
  10
189.17274
  20
32.86908
  0
VERTEX
  5
73a
  8
Layer_0
  10
189.02275
  20
32.953857
  0
VERTEX
  5
73b
  8
Layer_0
  10
188.85648
  20
33.0047
  0
VERTEX
  5
73c
  8
Layer_0
  10
188.67393
  20
33.021667
  0
VERTEX
  5
73d
  8
Layer_0
  10
188.49197
  20
33.0047
  0
VERTEX
  5
73e
  8
Layer_0
  10
188.32434
  20
32.953857
  0
VERTEX
  5
73f
  8
Layer_0
  10
188.17105
  20
32.86908
  0
VERTEX
  5
740
  8
Layer_0
  10
188.03212
  20
32.750366
  0
VERTEX
  5
741
  8
Layer_0
  10
187.91682
  20
32.604126
  0
VERTEX
  5
742
  8
Layer_0
  10
187.83446
  20
32.436829
  0
VERTEX
  5
743
  8
Layer_0
  10
187.78503
  20
32.248352
  0
VERTEX
  5
744
  8
Layer_0
  10
187.76857
  20
32.038788
  0
SEQEND
  0
POLYLINE
  5
746
  8
Layer_1
  62
202
  70
1
  66
1
  10
0
  20
0
  30
0
  0
VERTEX
  5
746
  8
Layer_1
  10
188.86919
  20
28.487122
  0
VERTEX
  5
747
  8
Layer_1
  10
189.50195
  20
24.708008
  0
VERTEX
  5
748
  8
Layer_1
  10
226.69081
  20
30.934875
  0
VERTEX
  5
749
  8
Layer_1
  10
226.05804
  20
34.713989
  0
VERTEX
  5
74a
  8
Layer_1
  10
188.86919
  20
28.487122
  0
SEQEND
  0
POLYLINE
  5
74c
  8
Layer_1
  62
202
  70
1
  66
1
  10
0
  20
0
  30
0
  0
VERTEX
  5
74c
  8
Layer_1
  10
189.29619
  20
55.645874
  0
VERTEX
  5
74d
  8
Layer_1
  10
189.92896
  20
59.424988
  0
VERTEX
  5
74e
  8
Layer_1
  10
227.11781
  20
53.19812
  0
VERTEX
  5
74f
  8
Layer_1
  10
226.48505
  20
49.419006
  0
VERTEX
  5
750
  8
Layer_1
  10
189.29619
  20
55.645874
  0
SEQEND
  0
POLYLINE
  5
752
  8
Layer_1
  62
202
  70
1
  66
1
  10
0
  20
0
  30
0
  0
VERTEX
  5
752
  8
Layer_1
  10
193.74519
  20
78.730133
  0
VERTEX
  5
753
  8
Layer_1
  10
194.37796
  20
74.951019
  0
VERTEX
  5
754
  8
Layer_1
  10
231.56682
  20
81.177887
  0
VERTEX
  5
755
  8
Layer_1
  10
230.93405
  20
84.957001
  0
VERTEX
  5
756
  8
Layer_1
  10
193.74519
  20
78.730133
  0
SEQEND
  0
POLYLINE
  5
758
  8
Layer_1
  62
202
  70
1
  66
1
  10
0
  20
0
  30
0
  0
VERTEX
  5
758
  8
Layer_1
  10
189.29619
  20
104.35587
  0
VERTEX
  5
759
  8
Layer_1
  10
189.92896
  20
108.13498
  0
VERTEX
  5
75a
  8
Layer_1
  10
227.11781
  20
101.90811
  0
VERTEX
  5
75b
  8
Layer_1
  10
226.48505
  20
98.128998
  0
VERTEX
  5
75c
  8
Layer_1
  10
189.29619
  20
104.35587
  0
SEQEND
  0
POLYLINE
  5
75e
  8
Layer_2
  62
1
  70
1
  66
1
  10
0
  20
0
  30
0
  0
VERTEX
  5
75e
  8
Layer_2
  10
189.5015
  20
20.928589
  0
VERTEX
  5
75f
  8
Layer_2
  10
197.00571
  20
22.25177
  0
VERTEX
  5
760
  8
Layer_2
  10
197.55699
  20
19.124939
  0
VERTEX
  5
761
  8
Layer_2
  10
190.05281
  20
17.801758
  0
VERTEX
  5
762
  8
Layer_2
  10
189.5015
  20
20.928589
  0
SEQEND
  0
POLYLINE
  5
764
  8
Layer_2
  62
1
  70
1
  66
1
  10
0
  20
0
  30
0
  0
VERTEX
  5
764
  8
Layer_2
  10
222.01981
  20
26.662415
  0
VERTEX
  5
765
  8
Layer_2
  10
229.52409
  20
27.985657
  0
VERTEX
  5
766
  8
Layer_2
  10
230.07541
  20
24.858887
  0
VERTEX
  5
767
  8
Layer_2
  10
222.5712
  20
23.535645
  0
VERTEX
  5
768
  8
Layer_2
  10
222.01981
  20
26.662415
  0
SEQEND
  0
POLYLINE
  5
76a
  8
Layer_2
  62
1
  70
1
  66
1
  10
0
  20
0
  30
0
  0
VERTEX
  5
76a
  8
Layer_2
  10
210.8976
  20
48.057617
  0
VERTEX
  5
76b
  8
Layer_2
  10
218.40178
  20
46.734436
  0
VERTEX
  5
76c
  8
Layer_2
  10
217.85049
  20
43.607666
  0
VERTEX
  5
76d
  8
Layer_2
  10
210.34631
  20
44.930847
  0
VERTEX
  5
76e
  8
Layer_2
  10
210.8976
  20
48.057617
  0
SEQEND
  0
POLYLINE
  5
770
  8
Layer_2
  62
1
  70
1
  66
1
  10
0
  20
0
  30
0
  0
VERTEX
  5
770
  8
Layer_2
  10
189.2962
  20
51.866516
  0
VERTEX
  5
771
  8
Layer_2
  10
196.80049
  20
50.543335
  0
VERTEX
  5
772
  8
Layer_2
  10
196.2491
  20
47.416565
  0
VERTEX
  5
773
  8
Layer_2
  10
188.74489
  20
48.739746
  0
VERTEX
  5
774
  8
Layer_2
  10
189.2962
  20
51.866516
  0
SEQEND
  0
POLYLINE
  5
776
  8
Layer_2
  62
1
  70
1
  66
1
  10
0
  20
0
  30
0
  0
VERTEX
  5
776
  8
Layer_2
  10
203.43358
  20
72.43866
  0
VERTEX
  5
777
  8
Layer_2
  10
210.93781
  20
73.761841
  0
VERTEX
  5
778
  8
Layer_2
  10
211.48909
  20
70.635071
  0
VERTEX
  5
779
  8
Layer_2
  10
203.98488
  20
69.31189
  0
VERTEX
  5
77a
  8
Layer_2
  10
203.43358
  20
72.43866
  0
SEQEND
  0
POLYLINE
  5
77c
  8
Layer_2
  62
1
  70
1
  66
1
  10
0
  20
0
  30
0
  0
VERTEX
  5
77c
  8
Layer_2
  10
224.06232
  20
76.07608
  0
VERTEX
  5
77d
  8
Layer_2
  10
231.56648
  20
77.399261
  0
VERTEX
  5
77e
  8
Layer_2
  10
232.11777
  20
74.272461
  0
VERTEX
  5
77f
  8
Layer_2
  10
224.6136
  20
72.949249
  0
VERTEX
  5
780
  8
Layer_2
  10
224.06232
  20
76.07608
  0
SEQEND
  0
POLYLINE
  5
782
  8
Layer_2
  62
1
  70
1
  66
1
  10
0
  20
0
  30
0
  0
VERTEX
  5
782
  8
Layer_2
  10
209.92487
  20
96.939667
  0
VERTEX
  5
783
  8
Layer_2
  10
217.42918
  20
95.616455
  0
VERTEX
  5
784
  8
Layer_2
  10
216.87775
  20
92.489655
  0
VERTEX
  5
785
  8
Layer_2
  10
209.37357
  20
93.812836
  0
VERTEX
  5
786
  8
Layer_2
  10
209.92487
  20
96.939667
  0
SEQEND
  0
POLYLINE
  5
788
  8
Layer_2
  62
1
  70
1
  66
1
  10
0
  20
0
  30
0
  0
VERTEX
  5
788
  8
Layer_2
  10
189.29617
  20
100.57706
  0
VERTEX
  5
789
  8
Layer_2
  10
196.80046
  20
99.253845
  0
VERTEX
  5
78a
  8
Layer_2
  10
196.24908
  20
96.127075
  0
VERTEX
  5
78b
  8
Layer_2
  10
188.74487
  20
97.450256
  0
VERTEX
  5
78c
  8
Layer_2
  10
189.29617
  20
100.57706
  0
SEQEND
  0
POLYLINE
  5
78e
  8
Layer_2
  62
1
  70
1
  66
1
  10
0
  20
0
  30
0
  0
VERTEX
  5
78e
  8
Layer_2
  10
178.6814
  20
128.04602
  0
VERTEX
  5
78f
  8
Layer_2
  10
181.85739
  20
128.04602
  0
VERTEX
  5
790
  8
Layer_2
  10
181.85739
  20
120.43002
  0
VERTEX
  5
791
  8
Layer_2
  10
178.6814
  20
120.43002
  0
VERTEX
  5
792
  8
Layer_2
  10
178.6814
  20
87.406036
  0
VERTEX
  5
793
  8
Layer_2
  10
181.85739
  20
87.406036
  0
VERTEX
  5
794
  8
Layer_2
  10
181.85739
  20
79.790039
  0
VERTEX
  5
795
  8
Layer_2
  10
178.6814
  20
79.790039
  0
VERTEX
  5
796
  8
Layer_2
  10
178.6814
  20
53.118042
  0
VERTEX
  5
797
  8
Layer_2
  10
181.85739
  20
53.118042
  0
VERTEX
  5
798
  8
Layer_2
  10
181.85739
  20
45.494019
  0
VERTEX
  5
799
  8
Layer_2
  10
178.6814
  20
45.494019
  0
VERTEX
  5
79a
  8
Layer_2
  10
178.6814
  20
29.334045
  0
VERTEX
  5
79b
  8
Layer_2
  10
153.6814
  20
19.91803
  0
VERTEX
  5
79c
  8
Layer_2
  10
152.8734
  20
19.550049
  0
VERTEX
  5
79d
  8
Layer_2
  10
151.6835
  20
19.063843
  0
VERTEX
  5
79e
  8
Layer_2
  10
150.46722
  20
18.651794
  0
VERTEX
  5
79f
  8
Layer_2
  10
149.22806
  20
18.314819
  0
VERTEX
  5
7a0
  8
Layer_2
  10
147.96939
  20
18.054016
  0
VERTEX
  5
7a1
  8
Layer_2
  10
147.75253
  20
18.016968
  0
VERTEX
  5
7a2
  8
Layer_2
  10
147.48511
  20
17.974304
  0
VERTEX
  5
7a3
  8
Layer_2
  10
146.81194
  20
17.87442
  0
VERTEX
  5
7a4
  8
Layer_2
  10
145.97659
  20
17.758453
  0
VERTEX
  5
7a5
  8
Layer_2
  10
145.00586
  20
17.630615
  0
VERTEX
  5
7a6
  8
Layer_2
  10
143.92648
  20
17.494995
  0
VERTEX
  5
7a7
  8
Layer_2
  10
142.76521
  20
17.355774
  0
VERTEX
  5
7a8
  8
Layer_2
  10
141.5488
  20
17.217102
  0
VERTEX
  5
7a9
  8
Layer_2
  10
140.30402
  20
17.08313
  0
VERTEX
  5
7aa
  8
Layer_2
  10
139.05756
  20
16.958008
  0
VERTEX
  5
7ab
  8
Layer_2
  10
137.83624
  20
16.845825
  0
VERTEX
  5
7ac
  8
Layer_2
  10
136.66681
  20
16.750793
  0
VERTEX
  5
7ad
  8
Layer_2
  10
135.57599
  20
16.677063
  0
VERTEX
  5
7ae
  8
Layer_2
  10
135.06842
  20
16.649475
  0
VERTEX
  5
7af
  8
Layer_2
  10
134.59056
  20
16.628754
  0
VERTEX
  5
7b0
  8
Layer_2
  10
134.14572
  20
16.615417
  0
VERTEX
  5
7b1
  8
Layer_2
  10
133.73726
  20
16.609985
  0
VERTEX
  5
7b2
  8
Layer_2
  10
133.36852
  20
16.613007
  0
VERTEX
  5
7b3
  8
Layer_2
  10
133.04285
  20
16.624969
  0
VERTEX
  5
7b4
  8
Layer_2
  10
132.76358
  20
16.646362
  0
VERTEX
  5
7b5
  8
Layer_2
  10
132.53404
  20
16.677795
  0
VERTEX
  5
7b6
  8
Layer_2
  10
132.9054
  20
14.902039
  0
VERTEX
  5
7b7
  8
Layer_2
  10
129.80139
  20
14.334045
  0
VERTEX
  5
7b8
  8
Layer_2
  10
130.49739
  20
10.526031
  0
VERTEX
  5
7b9
  8
Layer_2
  10
131.04939
  20
7.3980103
  0
VERTEX
  5
7ba
  8
Layer_2
  10
242.18539
  20
7.3980103
  0
VERTEX
  5
7bb
  8
Layer_2
  10
242.18539
  20
16.286011
  0
VERTEX
  5
7bc
  8
Layer_2
  10
239.0094
  20
16.286011
  0
VERTEX
  5
7bd
  8
Layer_2
  10
239.0094
  20
23.910034
  0
VERTEX
  5
7be
  8
Layer_2
  10
242.18539
  20
23.910034
  0
VERTEX
  5
7bf
  8
Layer_2
  10
242.18539
  20
48.038025
  0
VERTEX
  5
7c0
  8
Layer_2
  10
239.0094
  20
48.038025
  0
VERTEX
  5
7c1
  8
Layer_2
  10
239.0094
  20
55.662048
  0
VERTEX
  5
7c2
  8
Layer_2
  10
242.18539
  20
55.662048
  0
VERTEX
  5
7c3
  8
Layer_2
  10
242.18539
  20
88.67804
  0
VERTEX
  5
7c4
  8
Layer_2
  10
239.0094
  20
88.67804
  0
VERTEX
  5
7c5
  8
Layer_2
  10
239.0094
  20
96.302032
  0
VERTEX
  5
7c6
  8
Layer_2
  10
242.18539
  20
96.302032
  0
VERTEX
  5
7c7
  8
Layer_2
  10
242.18539
  20
120.43002
  0
VERTEX
  5
7c8
  8
Layer_2
  10
239.0094
  20
120.43002
  0
VERTEX
  5
7c9
  8
Layer_2
  10
239.0094
  20
128.04602
  0
VERTEX
  5
7ca
  8
Layer_2
  10
242.18539
  20
128.04602
  0
VERTEX
  5
7cb
  8
Layer_2
  10
242.18539
  20
134.39804
  0
VERTEX
  5
7cc
  8
Layer_2
  10
178.6814
  20
134.39804
  0
VERTEX
  5
7cd
  8
Layer_2
  10
178.6814
  20
128.04602
  0
SEQEND
  0
POLYLINE
  5
7cf
  8
Layer_2
  62
1
  70
1
  66
1
  10
0
  20
0
  30
0
  0
VERTEX
  5
7cf
  8
Layer_2
  10
156.98311
  20
15.194641
  0
VERTEX
  5
7d0
  8
Layer_2
  10
164.48738
  20
16.517822
  0
VERTEX
  5
7d1
  8
Layer_2
  10
165.03871
  20
13.391113
  0
VERTEX
  5
7d2
  8
Layer_2
  10
157.53448
  20
12.067932
  0
VERTEX
  5
7d3
  8
Layer_2
  10
156.98311
  20
15.194641
  0
SEQEND
  0
POLYLINE
  5
7d5
  8
Layer_2
  62
1
  70
1
  66
1
  10
0
  20
0
  30
0
  0
VERTEX
  5
7d5
  8
Layer_2
  10
136.97182
  20
11.666138
  0
VERTEX
  5
7d6
  8
Layer_2
  10
144.47609
  20
12.989319
  0
VERTEX
  5
7d7
  8
Layer_2
  10
145.02737
  20
9.8625488
  0
VERTEX
  5
7d8
  8
Layer_2
  10
137.52318
  20
8.5393677
  0
VERTEX
  5
7d9
  8
Layer_2
  10
136.97182
  20
11.666138
  0
SEQEND
  0
POLYLINE
  5
7db
  8
Layer_0
  62
0
  70
1
  66
1
  10
0
  20
0
  30
0
  0
VERTEX
  5
7db
  8
Layer_0
  10
40.515289
  20
125.24701
  0
VERTEX
  5
7dc
  8
Layer_0
  10
40.515289
  20
126.33533
  0
VERTEX
  5
7dd
  8
Layer_0
  10
38.543316
  20
126.33533
  0
VERTEX
  5
7de
  8
Layer_0
  10
38.543316
  20
126.84692
  0
VERTEX
  5
7df
  8
Layer_0
  10
40.617607
  20
129.79248
  0
VERTEX
  5
7e0
  8
Layer_0
  10
41.073395
  20
129.79248
  0
VERTEX
  5
7e1
  8
Layer_0
  10
41.073395
  20
126.84692
  0
VERTEX
  5
7e2
  8
Layer_0
  10
41.687309
  20
126.84692
  0
VERTEX
  5
7e3
  8
Layer_0
  10
41.687309
  20
126.33533
  0
VERTEX
  5
7e4
  8
Layer_0
  10
41.073395
  20
126.33533
  0
VERTEX
  5
7e5
  8
Layer_0
  10
41.073395
  20
125.24701
  0
VERTEX
  5
7e6
  8
Layer_0
  10
40.515289
  20
125.24701
  0
SEQEND
  0
POLYLINE
  5
7e8
  8
Layer_0
  62
0
  70
1
  66
1
  10
0
  20
0
  30
0
  0
VERTEX
  5
7e8
  8
Layer_0
  10
40.515289
  20
126.84692
  0
VERTEX
  5
7e9
  8
Layer_0
  10
40.515289
  20
128.89639
  0
VERTEX
  5
7ea
  8
Layer_0
  10
39.092117
  20
126.84692
  0
VERTEX
  5
7eb
  8
Layer_0
  10
40.515289
  20
126.84692
  0
SEQEND
  0
POLYLINE
  5
7ed
  8
Layer_0
  62
0
  70
1
  66
1
  10
0
  20
0
  30
0
  0
VERTEX
  5
7ed
  8
Layer_0
  10
42.257446
  20
127.48874
  0
VERTEX
  5
7ee
  8
Layer_0
  10
42.267815
  20
127.87213
  0
VERTEX
  5
7ef
  8
Layer_0
  10
42.29892
  20
128.21619
  0
VERTEX
  5
7f0
  8
Layer_0
  10
42.350754
  20
128.52094
  0
VERTEX
  5
7f1
  8
Layer_0
  10
42.423325
  20
128.78632
  0
VERTEX
  5
7f2
  8
Layer_0
  10
42.516342
  20
129.01797
  0
VERTEX
  5
7f3
  8
Layer_0
  10
42.629517
  20
129.22156
  0
VERTEX
  5
7f4
  8
Layer_0
  10
42.76284
  20
129.39703
  0
VERTEX
  5
7f5
  8
Layer_0
  10
42.916321
  20
129.54443
  0
VERTEX
  5
7f6
  8
Layer_0
  10
43.090435
  20
129.66107
  0
VERTEX
  5
7f7
  8
Layer_0
  10
43.285675
  20
129.74438
  0
VERTEX
  5
7f8
  8
Layer_0
  10
43.502037
  20
129.79437
  0
VERTEX
  5
7f9
  8
Layer_0
  10
43.739525
  20
129.81107
  0
VERTEX
  5
7fa
  8
Layer_0
  10
43.91684
  20
129.80185
  0
VERTEX
  5
7fb
  8
Layer_0
  10
44.082916
  20
129.77423
  0
VERTEX
  5
7fc
  8
Layer_0
  10
44.237751
  20
129.72824
  0
VERTEX
  5
7fd
  8
Layer_0
  10
44.381348
  20
129.66379
  0
VERTEX
  5
7fe
  8
Layer_0
  10
44.513317
  20
129.582
  0
VERTEX
  5
7ff
  8
Layer_0
  10
44.63327
  20
129.48395
  0
VERTEX
  5
800
  8
Layer_0
  10
44.741207
  20
129.36963
  0
VERTEX
  5
801
  8
Layer_0
  10
44.837132
  20
129.23901
  0
VERTEX
  5
802
  8
Layer_0
  10
44.997589
  20
128.93127
  0
VERTEX
  5
803
  8
Layer_0
  10
45.119286
  20
128.56308
  0
VERTEX
  5
804
  8
Layer_0
  10
45.164051
  20
128.34653
  0
VERTEX
  5
805
  8
Layer_0
  10
45.196022
  20
128.09528
  0
VERTEX
  5
806
  8
Layer_0
  10
45.21521
  20
127.80933
  0
VERTEX
  5
807
  8
Layer_0
  10
45.221603
  20
127.48874
  0
VERTEX
  5
808
  8
Layer_0
  10
45.21133
  20
127.10803
  0
VERTEX
  5
809
  8
Layer_0
  10
45.180519
  20
126.7659
  0
VERTEX
  5
80a
  8
Layer_0
  10
45.129166
  20
126.46231
  0
VERTEX
  5
80b
  8
Layer_0
  10
45.057274
  20
126.19733
  0
VERTEX
  5
80c
  8
Layer_0
  10
44.964935
  20
125.96555
  0
VERTEX
  5
80d
  8
Layer_0
  10
44.852249
  20
125.76172
  0
VERTEX
  5
80e
  8
Layer_0
  10
44.719212
  20
125.58575
  0
VERTEX
  5
80f
  8
Layer_0
  10
44.56583
  20
125.43768
  0
VERTEX
  5
810
  8
Layer_0
  10
44.391518
  20
125.32034
  0
VERTEX
  5
811
  8
Layer_0
  10
44.195698
  20
125.23651
  0
VERTEX
  5
812
  8
Layer_0
  10
43.978363
  20
125.18625
  0
VERTEX
  5
813
  8
Layer_0
  10
43.739525
  20
125.16949
  0
VERTEX
  5
814
  8
Layer_0
  10
43.428497
  20
125.19897
  0
VERTEX
  5
815
  8
Layer_0
  10
43.15274
  20
125.28732
  0
VERTEX
  5
816
  8
Layer_0
  10
42.912251
  20
125.43463
  0
VERTEX
  5
817
  8
Layer_0
  10
42.707031
  20
125.64078
  0
VERTEX
  5
818
  8
Layer_0
  10
42.601662
  20
125.79376
  0
VERTEX
  5
819
  8
Layer_0
  10
42.510338
  20
125.96906
  0
VERTEX
  5
81a
  8
Layer_0
  10
42.433067
  20
126.16663
  0
VERTEX
  5
81b
  8
Layer_0
  10
42.369843
  20
126.38647
  0
VERTEX
  5
81c
  8
Layer_0
  10
42.320667
  20
126.6286
  0
VERTEX
  5
81d
  8
Layer_0
  10
42.285545
  20
126.89304
  0
VERTEX
  5
81e
  8
Layer_0
  10
42.264473
  20
127.17975
  0
VERTEX
  5
81f
  8
Layer_0
  10
42.257446
  20
127.48874
  0
SEQEND
  0
POLYLINE
  5
821
  8
Layer_0
  62
0
  70
1
  66
1
  10
0
  20
0
  30
0
  0
VERTEX
  5
821
  8
Layer_0
  10
42.831055
  20
127.48874
  0
VERTEX
  5
822
  8
Layer_0
  10
42.847431
  20
126.97589
  0
VERTEX
  5
823
  8
Layer_0
  10
42.896557
  20
126.55661
  0
VERTEX
  5
824
  8
Layer_0
  10
42.978428
  20
126.23096
  0
VERTEX
  5
825
  8
Layer_0
  10
43.093052
  20
125.9989
  0
VERTEX
  5
826
  8
Layer_0
  10
43.231705
  20
125.83679
  0
VERTEX
  5
827
  8
Layer_0
  10
43.38567
  20
125.72101
  0
VERTEX
  5
828
  8
Layer_0
  10
43.554943
  20
125.65155
  0
VERTEX
  5
829
  8
Layer_0
  10
43.739525
  20
125.62839
  0
VERTEX
  5
82a
  8
Layer_0
  10
43.924107
  20
125.65164
  0
VERTEX
  5
82b
  8
Layer_0
  10
44.09338
  20
125.72141
  0
VERTEX
  5
82c
  8
Layer_0
  10
44.247345
  20
125.83768
  0
VERTEX
  5
82d
  8
Layer_0
  10
44.385998
  20
126.00046
  0
VERTEX
  5
82e
  8
Layer_0
  10
44.500622
  20
126.233
  0
VERTEX
  5
82f
  8
Layer_0
  10
44.582493
  20
126.55856
  0
VERTEX
  5
830
  8
Layer_0
  10
44.631618
  20
126.97714
  0
VERTEX
  5
831
  8
Layer_0
  10
44.647995
  20
127.48874
  0
VERTEX
  5
832
  8
Layer_0
  10
44.631618
  20
128.00284
  0
VERTEX
  5
833
  8
Layer_0
  10
44.582493
  20
128.42276
  0
VERTEX
  5
834
  8
Layer_0
  10
44.500622
  20
128.74854
  0
VERTEX
  5
835
  8
Layer_0
  10
44.385998
  20
128.9801
  0
VERTEX
  5
836
  8
Layer_0
  10
44.246956
  20
129.14154
  0
VERTEX
  5
837
  8
Layer_0
  10
44.091827
  20
129.25684
  0
VERTEX
  5
838
  8
Layer_0
  10
43.92062
  20
129.32605
  0
VERTEX
  5
839
  8
Layer_0
  10
43.733322
  20
129.34909
  0
VERTEX
  5
83a
  8
Layer_0
  10
43.550774
  20
129.32874
  0
VERTEX
  5
83b
  8
Layer_0
  10
43.387604
  20
129.2677
  0
VERTEX
  5
83c
  8
Layer_0
  10
43.243813
  20
129.16595
  0
VERTEX
  5
83d
  8
Layer_0
  10
43.119408
  20
129.02353
  0
VERTEX
  5
83e
  8
Layer_0
  10
42.993252
  20
128.77179
  0
VERTEX
  5
83f
  8
Layer_0
  10
42.903145
  20
128.4321
  0
VERTEX
  5
840
  8
Layer_0
  10
42.849075
  20
128.00439
  0
VERTEX
  5
841
  8
Layer_0
  10
42.831055
  20
127.48874
  0
SEQEND
  0
POLYLINE
  5
843
  8
Layer_0
  62
0
  70
1
  66
1
  10
0
  20
0
  30
0
  0
VERTEX
  5
843
  8
Layer_0
  10
26.980406
  20
104.04541
  0
VERTEX
  5
844
  8
Layer_0
  10
26.980406
  20
103.509
  0
VERTEX
  5
845
  8
Layer_0
  10
23.975937
  20
103.509
  0
VERTEX
  5
846
  8
Layer_0
  10
23.989113
  20
103.70667
  0
VERTEX
  5
847
  8
Layer_0
  10
24.04105
  20
103.89658
  0
VERTEX
  5
848
  8
Layer_0
  10
24.190266
  20
104.20123
  0
VERTEX
  5
849
  8
Layer_0
  10
24.408468
  20
104.50119
  0
VERTEX
  5
84a
  8
Layer_0
  10
24.548868
  20
104.65582
  0
VERTEX
  5
84b
  8
Layer_0
  10
24.717365
  20
104.82208
  0
VERTEX
  5
84c
  8
Layer_0
  10
24.913961
  20
105
  0
VERTEX
  5
84d
  8
Layer_0
  10
25.479137
  20
105.4776
  0
VERTEX
  5
84e
  8
Layer_0
  10
25.759548
  20
105.73407
  0
VERTEX
  5
84f
  8
Layer_0
  10
25.979883
  20
105.95898
  0
VERTEX
  5
850
  8
Layer_0
  10
26.140146
  20
106.15225
  0
VERTEX
  5
851
  8
Layer_0
  10
26.254093
  20
106.32733
  0
VERTEX
  5
852
  8
Layer_0
  10
26.335484
  20
106.49756
  0
VERTEX
  5
853
  8
Layer_0
  10
26.384317
  20
106.66296
  0
VERTEX
  5
854
  8
Layer_0
  10
26.400595
  20
106.82352
  0
VERTEX
  5
855
  8
Layer_0
  10
26.385771
  20
106.98291
  0
VERTEX
  5
856
  8
Layer_0
  10
26.341297
  20
107.12933
  0
VERTEX
  5
857
  8
Layer_0
  10
26.267174
  20
107.26276
  0
VERTEX
  5
858
  8
Layer_0
  10
26.163401
  20
107.38318
  0
VERTEX
  5
859
  8
Layer_0
  10
26.035791
  20
107.48291
  0
VERTEX
  5
85a
  8
Layer_0
  10
25.890162
  20
107.55414
  0
VERTEX
  5
85b
  8
Layer_0
  10
25.726509
  20
107.59683
  0
VERTEX
  5
85c
  8
Layer_0
  10
25.544834
  20
107.61108
  0
VERTEX
  5
85d
  8
Layer_0
  10
25.353373
  20
107.59598
  0
VERTEX
  5
85e
  8
Layer_0
  10
25.182064
  20
107.55063
  0
VERTEX
  5
85f
  8
Layer_0
  10
25.03091
  20
107.47504
  0
VERTEX
  5
860
  8
Layer_0
  10
24.899912
  20
107.36923
  0
VERTEX
  5
861
  8
Layer_0
  10
24.793911
  20
107.23669
  0
VERTEX
  5
862
  8
Layer_0
  10
24.717752
  20
107.08087
  0
VERTEX
  5
863
  8
Layer_0
  10
24.671436
  20
106.90182
  0
VERTEX
  5
864
  8
Layer_0
  10
24.654966
  20
106.69949
  0
VERTEX
  5
865
  8
Layer_0
  10
24.081358
  20
106.75842
  0
VERTEX
  5
866
  8
Layer_0
  10
24.131161
  20
107.06024
  0
VERTEX
  5
867
  8
Layer_0
  10
24.221659
  20
107.32391
  0
VERTEX
  5
868
  8
Layer_0
  10
24.352852
  20
107.54938
  0
VERTEX
  5
869
  8
Layer_0
  10
24.52474
  20
107.73666
  0
VERTEX
  5
86a
  8
Layer_0
  10
24.733446
  20
107.88385
  0
VERTEX
  5
86b
  8
Layer_0
  10
24.9751
  20
107.98898
  0
VERTEX
  5
86c
  8
Layer_0
  10
25.249695
  20
108.05203
  0
VERTEX
  5
86d
  8
Layer_0
  10
25.557236
  20
108.07306
  0
VERTEX
  5
86e
  8
Layer_0
  10
25.867294
  20
108.05038
  0
VERTEX
  5
86f
  8
Layer_0
  10
26.143246
  20
107.98239
  0
VERTEX
  5
870
  8
Layer_0
  10
26.385094
  20
107.86902
  0
VERTEX
  5
871
  8
Layer_0
  10
26.592833
  20
107.7103
  0
VERTEX
  5
872
  8
Layer_0
  10
26.759682
  20
107.51807
  0
VERTEX
  5
873
  8
Layer_0
  10
26.87886
  20
107.30414
  0
VERTEX
  5
874
  8
Layer_0
  10
26.950367
  20
107.06848
  0
VERTEX
  5
875
  8
Layer_0
  10
26.974203
  20
106.81113
  0
VERTEX
  5
876
  8
Layer_0
  10
26.946299
  20
106.54059
  0
VERTEX
  5
877
  8
Layer_0
  10
26.862583
  20
106.27472
  0
VERTEX
  5
878
  8
Layer_0
  10
26.714142
  20
106.00421
  0
VERTEX
  5
879
  8
Layer_0
  10
26.492064
  20
105.71973
  0
VERTEX
  5
87a
  8
Layer_0
  10
26.341202
  20
105.56042
  0
VERTEX
  5
87b
  8
Layer_0
  10
26.147511
  20
105.37399
  0
VERTEX
  5
87c
  8
Layer_0
  10
25.910995
  20
105.16046
  0
VERTEX
  5
87d
  8
Layer_0
  10
25.631651
  20
104.91977
  0
VERTEX
  5
87e
  8
Layer_0
  10
25.402981
  20
104.72589
  0
VERTEX
  5
87f
  8
Layer_0
  10
25.219273
  20
104.56592
  0
VERTEX
  5
880
  8
Layer_0
  10
25.080521
  20
104.43988
  0
VERTEX
  5
881
  8
Layer_0
  10
24.986729
  20
104.34772
  0
VERTEX
  5
882
  8
Layer_0
  10
24.856504
  20
104.19696
  0
VERTEX
  5
883
  8
Layer_0
  10
24.751083
  20
104.04541
  0
VERTEX
  5
884
  8
Layer_0
  10
26.980406
  20
104.04541
  0
SEQEND
  0
POLYLINE
  5
886
  8
Layer_0
  62
0
  70
1
  66
1
  10
0
  20
0
  30
0
  0
VERTEX
  5
886
  8
Layer_0
  10
27.578445
  20
104.69962
  0
VERTEX
  5
887
  8
Layer_0
  10
28.164457
  20
104.74924
  0
VERTEX
  5
888
  8
Layer_0
  10
28.207769
  20
104.54858
  0
VERTEX
  5
889
  8
Layer_0
  10
28.272591
  20
104.37445
  0
VERTEX
  5
88a
  8
Layer_0
  10
28.358923
  20
104.22687
  0
VERTEX
  5
88b
  8
Layer_0
  10
28.466764
  20
104.10587
  0
VERTEX
  5
88c
  8
Layer_0
  10
28.591467
  20
104.0116
  0
VERTEX
  5
88d
  8
Layer_0
  10
28.728376
  20
103.94424
  0
VERTEX
  5
88e
  8
Layer_0
  10
28.877495
  20
103.90384
  0
VERTEX
  5
88f
  8
Layer_0
  10
29.038822
  20
103.89038
  0
VERTEX
  5
890
  8
Layer_0
  10
29.232609
  20
103.90939
  0
VERTEX
  5
891
  8
Layer_0
  10
29.410892
  20
103.96637
  0
VERTEX
  5
892
  8
Layer_0
  10
29.573673
  20
104.06134
  0
VERTEX
  5
893
  8
Layer_0
  10
29.720951
  20
104.19424
  0
VERTEX
  5
894
  8
Layer_0
  10
29.843037
  20
104.35858
  0
VERTEX
  5
895
  8
Layer_0
  10
29.930241
  20
104.5477
  0
VERTEX
  5
896
  8
Layer_0
  10
29.982563
  20
104.76166
  0
VERTEX
  5
897
  8
Layer_0
  10
30.000004
  20
105.0004
  0
VERTEX
  5
898
  8
Layer_0
  10
29.98324
  20
105.2265
  0
VERTEX
  5
899
  8
Layer_0
  10
29.932953
  20
105.42749
  0
VERTEX
  5
89a
  8
Layer_0
  10
29.84914
  20
105.60321
  0
VERTEX
  5
89b
  8
Layer_0
  10
29.731804
  20
105.75381
  0
VERTEX
  5
89c
  8
Layer_0
  10
29.587334
  20
105.87457
  0
VERTEX
  5
89d
  8
Layer_0
  10
29.422131
  20
105.96078
  0
VERTEX
  5
89e
  8
Layer_0
  10
29.236193
  20
106.01254
  0
VERTEX
  5
89f
  8
Layer_0
  10
29.02952
  20
106.02979
  0
VERTEX
  5
8a0
  8
Layer_0
  10
28.772945
  20
105.99918
  0
VERTEX
  5
8a1
  8
Layer_0
  10
28.542728
  20
105.90732
  0
VERTEX
  5
8a2
  8
Layer_0
  10
28.348942
  20
105.7666
  0
VERTEX
  5
8a3
  8
Layer_0
  10
28.201664
  20
105.58951
  0
VERTEX
  5
8a4
  8
Layer_0
  10
27.677666
  20
105.65771
  0
VERTEX
  5
8a5
  8
Layer_0
  10
28.117949
  20
107.99246
  0
VERTEX
  5
8a6
  8
Layer_0
  10
30.378275
  20
107.99246
  0
VERTEX
  5
8a7
  8
Layer_0
  10
30.378275
  20
107.45914
  0
VERTEX
  5
8a8
  8
Layer_0
  10
28.564432
  20
107.45914
  0
VERTEX
  5
8a9
  8
Layer_0
  10
28.319487
  20
106.23752
  0
VERTEX
  5
8aa
  8
Layer_0
  10
28.526646
  20
106.3623
  0
VERTEX
  5
8ab
  8
Layer_0
  10
28.738842
  20
106.45145
  0
VERTEX
  5
8ac
  8
Layer_0
  10
28.956074
  20
106.50494
  0
VERTEX
  5
8ad
  8
Layer_0
  10
29.178349
  20
106.52277
  0
VERTEX
  5
8ae
  8
Layer_0
  10
29.464378
  20
106.49698
  0
VERTEX
  5
8af
  8
Layer_0
  10
29.727154
  20
106.41968
  0
VERTEX
  5
8b0
  8
Layer_0
  10
29.966673
  20
106.2908
  0
VERTEX
  5
8b1
  8
Layer_0
  10
30.182938
  20
106.11038
  0
VERTEX
  5
8b2
  8
Layer_0
  10
30.361996
  20
105.88947
  0
VERTEX
  5
8b3
  8
Layer_0
  10
30.489895
  20
105.6391
  0
VERTEX
  5
8b4
  8
Layer_0
  10
30.566635
  20
105.35928
  0
VERTEX
  5
8b5
  8
Layer_0
  10
30.592215
  20
105.04999
  0
VERTEX
  5
8b6
  8
Layer_0
  10
30.569735
  20
104.75192
  0
VERTEX
  5
8b7
  8
Layer_0
  10
30.502296
  20
104.47482
  0
VERTEX
  5
8b8
  8
Layer_0
  10
30.389902
  20
104.21863
  0
VERTEX
  5
8b9
  8
Layer_0
  10
30.232548
  20
103.9834
  0
VERTEX
  5
8ba
  8
Layer_0
  10
29.993996
  20
103.74194
  0
VERTEX
  5
8bb
  8
Layer_0
  10
29.715525
  20
103.56946
  0
VERTEX
  5
8bc
  8
Layer_0
  10
29.397135
  20
103.46597
  0
VERTEX
  5
8bd
  8
Layer_0
  10
29.038822
  20
103.43149
  0
VERTEX
  5
8be
  8
Layer_0
  10
28.743008
  20
103.45319
  0
VERTEX
  5
8bf
  8
Layer_0
  10
28.475677
  20
103.51831
  0
VERTEX
  5
8c0
  8
Layer_0
  10
28.236837
  20
103.62683
  0
VERTEX
  5
8c1
  8
Layer_0
  10
28.026482
  20
103.77875
  0
VERTEX
  5
8c2
  8
Layer_0
  10
27.851395
  20
103.96649
  0
VERTEX
  5
8c3
  8
Layer_0
  10
27.718361
  20
104.18262
  0
VERTEX
  5
8c4
  8
Layer_0
  10
27.627377
  20
104.42694
  0
VERTEX
  5
8c5
  8
Layer_0
  10
27.578445
  20
104.69962
  0
SEQEND
  0
POLYLINE
  5
8c7
  8
Layer_0
  62
0
  70
1
  66
1
  10
0
  20
0
  30
0
  0
VERTEX
  5
8c7
  8
Layer_0
  10
57.266144
  20
80.511993
  0
VERTEX
  5
8c8
  8
Layer_0
  10
56.708038
  20
80.511993
  0
VERTEX
  5
8c9
  8
Layer_0
  10
56.708038
  20
84.068359
  0
VERTEX
  5
8ca
  8
Layer_0
  10
56.475109
  20
83.876129
  0
VERTEX
  5
8cb
  8
Layer_0
  10
56.17939
  20
83.683899
  0
VERTEX
  5
8cc
  8
Layer_0
  10
55.868942
  20
83.515686
  0
VERTEX
  5
8cd
  8
Layer_0
  10
55.591827
  20
83.395538
  0
VERTEX
  5
8ce
  8
Layer_0
  10
55.591827
  20
83.935028
  0
VERTEX
  5
8cf
  8
Layer_0
  10
56.030563
  20
84.178436
  0
VERTEX
  5
8d0
  8
Layer_0
  10
56.410385
  20
84.468353
  0
VERTEX
  5
8d1
  8
Layer_0
  10
56.572777
  20
84.623779
  0
VERTEX
  5
8d2
  8
Layer_0
  10
56.709591
  20
84.776855
  0
VERTEX
  5
8d3
  8
Layer_0
  10
56.820824
  20
84.927612
  0
VERTEX
  5
8d4
  8
Layer_0
  10
56.906479
  20
85.07605
  0
VERTEX
  5
8d5
  8
Layer_0
  10
57.266144
  20
85.07605
  0
VERTEX
  5
8d6
  8
Layer_0
  10
57.266144
  20
80.511993
  0
SEQEND
  0
POLYLINE
  5
8d8
  8
Layer_0
  62
0
  70
1
  66
1
  10
0
  20
0
  30
0
  0
VERTEX
  5
8d8
  8
Layer_0
  10
58.778858
  20
81.56308
  0
VERTEX
  5
8d9
  8
Layer_0
  10
59.315262
  20
81.612701
  0
VERTEX
  5
8da
  8
Layer_0
  10
59.357121
  20
81.436584
  0
VERTEX
  5
8db
  8
Layer_0
  10
59.414478
  20
81.286377
  0
VERTEX
  5
8dc
  8
Layer_0
  10
59.487343
  20
81.16214
  0
VERTEX
  5
8dd
  8
Layer_0
  10
59.57571
  20
81.063904
  0
VERTEX
  5
8de
  8
Layer_0
  10
59.678608
  20
80.989258
  0
VERTEX
  5
8df
  8
Layer_0
  10
59.795074
  20
80.936005
  0
VERTEX
  5
8e0
  8
Layer_0
  10
59.925106
  20
80.904022
  0
VERTEX
  5
8e1
  8
Layer_0
  10
60.068703
  20
80.893372
  0
VERTEX
  5
8e2
  8
Layer_0
  10
60.310165
  20
80.922852
  0
VERTEX
  5
8e3
  8
Layer_0
  10
60.519836
  20
81.0112
  0
VERTEX
  5
8e4
  8
Layer_0
  10
60.696182
  20
81.148773
  0
VERTEX
  5
8e5
  8
Layer_0
  10
60.837646
  20
81.325897
  0
VERTEX
  5
8e6
  8
Layer_0
  10
60.951599
  20
81.557281
  0
VERTEX
  5
8e7
  8
Layer_0
  10
61.045387
  20
81.857635
  0
VERTEX
  5
8e8
  8
Layer_0
  10
61.108177
  20
82.195618
  0
VERTEX
  5
8e9
  8
Layer_0
  10
61.129105
  20
82.539764
  0
VERTEX
  5
8ea
  8
Layer_0
  10
61.126003
  20
82.651398
  0
VERTEX
  5
8eb
  8
Layer_0
  10
61.034634
  20
82.524353
  0
VERTEX
  5
8ec
  8
Layer_0
  10
60.927952
  20
82.409943
  0
VERTEX
  5
8ed
  8
Layer_0
  10
60.805962
  20
82.308105
  0
VERTEX
  5
8ee
  8
Layer_0
  10
60.668667
  20
82.218872
  0
VERTEX
  5
8ef
  8
Layer_0
  10
60.52071
  20
82.146301
  0
VERTEX
  5
8f0
  8
Layer_0
  10
60.366745
  20
82.094452
  0
VERTEX
  5
8f1
  8
Layer_0
  10
60.206776
  20
82.063354
  0
VERTEX
  5
8f2
  8
Layer_0
  10
60.040798
  20
82.052979
  0
VERTEX
  5
8f3
  8
Layer_0
  10
59.769493
  20
82.078583
  0
VERTEX
  5
8f4
  8
Layer_0
  10
59.519897
  20
82.155304
  0
VERTEX
  5
8f5
  8
Layer_0
  10
59.292007
  20
82.283203
  0
VERTEX
  5
8f6
  8
Layer_0
  10
59.085815
  20
82.46225
  0
VERTEX
  5
8f7
  8
Layer_0
  10
58.914894
  20
82.683197
  0
VERTEX
  5
8f8
  8
Layer_0
  10
58.792809
  20
82.936646
  0
VERTEX
  5
8f9
  8
Layer_0
  10
58.719563
  20
83.222656
  0
VERTEX
  5
8fa
  8
Layer_0
  10
58.695145
  20
83.54126
  0
VERTEX
  5
8fb
  8
Layer_0
  10
58.720627
  20
83.870117
  0
VERTEX
  5
8fc
  8
Layer_0
  10
58.797073
  20
84.165253
  0
VERTEX
  5
8fd
  8
Layer_0
  10
58.924488
  20
84.426697
  0
VERTEX
  5
8fe
  8
Layer_0
  10
59.102871
  20
84.654388
  0
VERTEX
  5
8ff
  8
Layer_0
  10
59.319618
  20
84.838837
  0
VERTEX
  5
900
  8
Layer_0
  10
59.562141
  20
84.970612
  0
VERTEX
  5
901
  8
Layer_0
  10
59.830444
  20
85.049683
  0
VERTEX
  5
902
  8
Layer_0
  10
60.124512
  20
85.07605
  0
VERTEX
  5
903
  8
Layer_0
  10
60.341457
  20
85.061127
  0
VERTEX
  5
904
  8
Layer_0
  10
60.548904
  20
85.016357
  0
VERTEX
  5
905
  8
Layer_0
  10
60.746861
  20
84.941742
  0
VERTEX
  5
906
  8
Layer_0
  10
60.935318
  20
84.837311
  0
VERTEX
  5
907
  8
Layer_0
  10
61.107979
  20
84.705292
  0
VERTEX
  5
908
  8
Layer_0
  10
61.258553
  20
84.547821
  0
VERTEX
  5
909
  8
Layer_0
  10
61.387032
  20
84.36499
  0
VERTEX
  5
90a
  8
Layer_0
  10
61.493423
  20
84.156738
  0
VERTEX
  5
90b
  8
Layer_0
  10
61.576843
  20
83.911102
  0
VERTEX
  5
90c
  8
Layer_0
  10
61.636436
  20
83.616058
  0
VERTEX
  5
90d
  8
Layer_0
  10
61.672192
  20
83.271606
  0
VERTEX
  5
90e
  8
Layer_0
  10
61.684109
  20
82.877747
  0
VERTEX
  5
90f
  8
Layer_0
  10
61.672287
  20
82.464294
  0
VERTEX
  5
910
  8
Layer_0
  10
61.636826
  20
82.095215
  0
VERTEX
  5
911
  8
Layer_0
  10
61.577721
  20
81.770508
  0
VERTEX
  5
912
  8
Layer_0
  10
61.494972
  20
81.490234
  0
VERTEX
  5
913
  8
Layer_0
  10
61.38887
  20
81.247498
  0
VERTEX
  5
914
  8
Layer_0
  10
61.259716
  20
81.035614
  0
VERTEX
  5
915
  8
Layer_0
  10
61.107494
  20
80.854492
  0
VERTEX
  5
916
  8
Layer_0
  10
60.932217
  20
80.704224
  0
VERTEX
  5
917
  8
Layer_0
  10
60.737366
  20
80.586212
  0
VERTEX
  5
918
  8
Layer_0
  10
60.526428
  20
80.501923
  0
VERTEX
  5
919
  8
Layer_0
  10
60.299408
  20
80.451355
  0
VERTEX
  5
91a
  8
Layer_0
  10
60.056301
  20
80.434479
  0
VERTEX
  5
91b
  8
Layer_0
  10
59.801857
  20
80.453003
  0
VERTEX
  5
91c
  8
Layer_0
  10
59.571835
  20
80.508514
  0
VERTEX
  5
91d
  8
Layer_0
  10
59.366226
  20
80.601044
  0
VERTEX
  5
91e
  8
Layer_0
  10
59.185036
  20
80.730591
  0
VERTEX
  5
91f
  8
Layer_0
  10
59.032913
  20
80.893646
  0
VERTEX
  5
920
  8
Layer_0
  10
58.914509
  20
81.086761
  0
VERTEX
  5
921
  8
Layer_0
  10
58.829826
  20
81.309906
  0
VERTEX
  5
922
  8
Layer_0
  10
58.778858
  20
81.56308
  0
SEQEND
  0
POLYLINE
  5
924
  8
Layer_0
  62
0
  70
1
  66
1
  10
0
  20
0
  30
0
  0
VERTEX
  5
924
  8
Layer_0
  10
61.063992
  20
83.569183
  0
VERTEX
  5
925
  8
Layer_0
  10
61.048004
  20
83.797058
  0
VERTEX
  5
926
  8
Layer_0
  10
61.000042
  20
84.000122
  0
VERTEX
  5
927
  8
Layer_0
  10
60.920105
  20
84.178406
  0
VERTEX
  5
928
  8
Layer_0
  10
60.808193
  20
84.331909
  0
VERTEX
  5
929
  8
Layer_0
  10
60.673801
  20
84.455383
  0
VERTEX
  5
92a
  8
Layer_0
  10
60.526428
  20
84.543549
  0
VERTEX
  5
92b
  8
Layer_0
  10
60.366066
  20
84.596466
  0
VERTEX
  5
92c
  8
Layer_0
  10
60.192726
  20
84.614075
  0
VERTEX
  5
92d
  8
Layer_0
  10
60.012699
  20
84.595062
  0
VERTEX
  5
92e
  8
Layer_0
  10
59.844688
  20
84.538086
  0
VERTEX
  5
92f
  8
Layer_0
  10
59.68869
  20
84.443115
  0
VERTEX
  5
930
  8
Layer_0
  10
59.544704
  20
84.310211
  0
VERTEX
  5
931
  8
Layer_0
  10
59.423973
  20
84.147064
  0
VERTEX
  5
932
  8
Layer_0
  10
59.337738
  20
83.961395
  0
VERTEX
  5
933
  8
Layer_0
  10
59.285999
  20
83.753265
  0
VERTEX
  5
934
  8
Layer_0
  10
59.268753
  20
83.522675
  0
VERTEX
  5
935
  8
Layer_0
  10
59.28513
  20
83.315796
  0
VERTEX
  5
936
  8
Layer_0
  10
59.334255
  20
83.129272
  0
VERTEX
  5
937
  8
Layer_0
  10
59.416126
  20
82.963104
  0
VERTEX
  5
938
  8
Layer_0
  10
59.53075
  20
82.817291
  0
VERTEX
  5
939
  8
Layer_0
  10
59.669403
  20
82.698608
  0
VERTEX
  5
93a
  8
Layer_0
  10
59.823368
  20
82.613831
  0
VERTEX
  5
93b
  8
Layer_0
  10
59.992641
  20
82.562958
  0
VERTEX
  5
93c
  8
Layer_0
  10
60.177223
  20
82.54599
  0
VERTEX
  5
93d
  8
Layer_0
  10
60.362381
  20
82.562958
  0
VERTEX
  5
93e
  8
Layer_0
  10
60.530304
  20
82.613831
  0
VERTEX
  5
93f
  8
Layer_0
  10
60.680969
  20
82.698608
  0
VERTEX
  5
940
  8
Layer_0
  10
60.814392
  20
82.817291
  0
VERTEX
  5
941
  8
Layer_0
  10
60.923592
  20
82.966003
  0
VERTEX
  5
942
  8
Layer_0
  10
61.001591
  20
83.14093
  0
VERTEX
  5
943
  8
Layer_0
  10
61.048393
  20
83.34198
  0
VERTEX
  5
944
  8
Layer_0
  10
61.063992
  20
83.569183
  0
SEQEND
  0
POLYLINE
  5
946
  8
Layer_0
  62
0
  70
1
  66
1
  10
0
  20
0
  30
0
  0
VERTEX
  5
946
  8
Layer_0
  10
25.814547
  20
54.617004
  0
VERTEX
  5
947
  8
Layer_0
  10
25.256441
  20
54.617004
  0
VERTEX
  5
948
  8
Layer_0
  10
25.256441
  20
58.17337
  0
VERTEX
  5
949
  8
Layer_0
  10
25.02351
  20
57.98114
  0
VERTEX
  5
94a
  8
Layer_0
  10
24.727791
  20
57.78891
  0
VERTEX
  5
94b
  8
Layer_0
  10
24.417343
  20
57.620697
  0
VERTEX
  5
94c
  8
Layer_0
  10
24.14023
  20
57.500549
  0
VERTEX
  5
94d
  8
Layer_0
  10
24.14023
  20
58.040039
  0
VERTEX
  5
94e
  8
Layer_0
  10
24.57896
  20
58.283447
  0
VERTEX
  5
94f
  8
Layer_0
  10
24.958784
  20
58.573364
  0
VERTEX
  5
950
  8
Layer_0
  10
25.121178
  20
58.72879
  0
VERTEX
  5
951
  8
Layer_0
  10
25.257992
  20
58.881866
  0
VERTEX
  5
952
  8
Layer_0
  10
25.369225
  20
59.032623
  0
VERTEX
  5
953
  8
Layer_0
  10
25.454878
  20
59.181061
  0
VERTEX
  5
954
  8
Layer_0
  10
25.814547
  20
59.181061
  0
VERTEX
  5
955
  8
Layer_0
  10
25.814547
  20
54.617004
  0
SEQEND
  0
POLYLINE
  5
957
  8
Layer_0
  62
0
  70
1
  66
1
  10
0
  20
0
  30
0
  0
VERTEX
  5
957
  8
Layer_0
  10
27.246645
  20
55.816925
  0
VERTEX
  5
958
  8
Layer_0
  10
27.80475
  20
55.891357
  0
VERTEX
  5
959
  8
Layer_0
  10
27.861238
  20
55.670715
  0
VERTEX
  5
95a
  8
Layer_0
  10
27.934586
  20
55.483215
  0
VERTEX
  5
95b
  8
Layer_0
  10
28.024796
  20
55.328888
  0
VERTEX
  5
95c
  8
Layer_0
  10
28.131863
  20
55.207672
  0
VERTEX
  5
95d
  8
Layer_0
  10
28.253654
  20
55.116089
  0
VERTEX
  5
95e
  8
Layer_0
  10
28.388046
  20
55.05069
  0
VERTEX
  5
95f
  8
Layer_0
  10
28.535034
  20
55.011475
  0
VERTEX
  5
960
  8
Layer_0
  10
28.694618
  20
54.998383
  0
VERTEX
  5
961
  8
Layer_0
  10
28.88385
  20
55.015442
  0
VERTEX
  5
962
  8
Layer_0
  10
29.057774
  20
55.066589
  0
VERTEX
  5
963
  8
Layer_0
  10
29.216389
  20
55.151855
  0
VERTEX
  5
964
  8
Layer_0
  10
29.359694
  20
55.27124
  0
VERTEX
  5
965
  8
Layer_0
  10
29.478388
  20
55.415802
  0
VERTEX
  5
966
  8
Layer_0
  10
29.563169
  20
55.57666
  0
VERTEX
  5
967
  8
Layer_0
  10
29.614038
  20
55.753754
  0
VERTEX
  5
968
  8
Layer_0
  10
29.630995
  20
55.947144
  0
VERTEX
  5
969
  8
Layer_0
  10
29.615299
  20
56.130981
  0
VERTEX
  5
96a
  8
Layer_0
  10
29.568209
  20
56.297913
  0
VERTEX
  5
96b
  8
Layer_0
  10
29.489725
  20
56.447998
  0
VERTEX
  5
96c
  8
Layer_0
  10
29.379848
  20
56.581238
  0
VERTEX
  5
96d
  8
Layer_0
  10
29.245747
  20
56.69043
  0
VERTEX
  5
96e
  8
Layer_0
  10
29.094593
  20
56.768402
  0
VERTEX
  5
96f
  8
Layer_0
  10
28.926388
  20
56.815216
  0
VERTEX
  5
970
  8
Layer_0
  10
28.741127
  20
56.830811
  0
VERTEX
  5
971
  8
Layer_0
  10
28.563618
  20
56.815308
  0
VERTEX
  5
972
  8
Layer_0
  10
28.347353
  20
56.768799
  0
VERTEX
  5
973
  8
Layer_0
  10
28.409365
  20
57.258698
  0
VERTEX
  5
974
  8
Layer_0
  10
28.459749
  20
57.254059
  0
VERTEX
  5
975
  8
Layer_0
  10
28.499281
  20
57.252502
  0
VERTEX
  5
976
  8
Layer_0
  10
28.673107
  20
57.26413
  0
VERTEX
  5
977
  8
Layer_0
  10
28.83802
  20
57.299011
  0
VERTEX
  5
978
  8
Layer_0
  10
28.994019
  20
57.357147
  0
VERTEX
  5
979
  8
Layer_0
  10
29.141102
  20
57.438538
  0
VERTEX
  5
97a
  8
Layer_0
  10
29.2659
  20
57.544159
  0
VERTEX
  5
97b
  8
Layer_0
  10
29.355043
  20
57.674927
  0
VERTEX
  5
97c
  8
Layer_0
  10
29.408527
  20
57.830933
  0
VERTEX
  5
97d
  8
Layer_0
  10
29.426357
  20
58.012146
  0
VERTEX
  5
97e
  8
Layer_0
  10
29.413374
  20
58.159058
  0
VERTEX
  5
97f
  8
Layer_0
  10
29.374422
  20
58.292755
  0
VERTEX
  5
980
  8
Layer_0
  10
29.309502
  20
58.413269
  0
VERTEX
  5
981
  8
Layer_0
  10
29.218616
  20
58.52063
  0
VERTEX
  5
982
  8
Layer_0
  10
29.107189
  20
58.608826
  0
VERTEX
  5
983
  8
Layer_0
  10
28.980646
  20
58.671814
  0
VERTEX
  5
984
  8
Layer_0
  10
28.838989
  20
58.709564
  0
VERTEX
  5
985
  8
Layer_0
  10
28.682217
  20
58.722168
  0
VERTEX
  5
986
  8
Layer_0
  10
28.526218
  20
58.709351
  0
VERTEX
  5
987
  8
Layer_0
  10
28.383785
  20
58.671021
  0
VERTEX
  5
988
  8
Layer_0
  10
28.254917
  20
58.607056
  0
VERTEX
  5
989
  8
Layer_0
  10
28.139614
  20
58.517548
  0
VERTEX
  5
98a
  8
Layer_0
  10
28.040783
  20
58.402435
  0
VERTEX
  5
98b
  8
Layer_0
  10
27.96133
  20
58.261749
  0
VERTEX
  5
98c
  8
Layer_0
  10
27.901257
  20
58.095459
  0
VERTEX
  5
98d
  8
Layer_0
  10
27.860561
  20
57.903625
  0
VERTEX
  5
98e
  8
Layer_0
  10
27.302456
  20
58.002838
  0
VERTEX
  5
98f
  8
Layer_0
  10
27.369892
  20
58.267639
  0
VERTEX
  5
990
  8
Layer_0
  10
27.469887
  20
58.500854
  0
VERTEX
  5
991
  8
Layer_0
  10
27.602436
  20
58.702515
  0
VERTEX
  5
992
  8
Layer_0
  10
27.767544
  20
58.872559
  0
VERTEX
  5
993
  8
Layer_0
  10
27.959972
  20
59.007568
  0
VERTEX
  5
994
  8
Layer_0
  10
28.174496
  20
59.103943
  0
VERTEX
  5
995
  8
Layer_0
  10
28.411106
  20
59.161774
  0
VERTEX
  5
996
  8
Layer_0
  10
28.669813
  20
59.181061
  0
VERTEX
  5
997
  8
Layer_0
  10
28.852167
  20
59.171082
  0
VERTEX
  5
998
  8
Layer_0
  10
29.027157
  20
59.141144
  0
VERTEX
  5
999
  8
Layer_0
  10
29.19478
  20
59.091248
  0
VERTEX
  5
99a
  8
Layer_0
  10
29.355043
  20
59.021393
  0
VERTEX
  5
99b
  8
Layer_0
  10
29.50242
  20
58.934296
  0
VERTEX
  5
99c
  8
Layer_0
  10
29.631384
  20
58.832642
  0
VERTEX
  5
99d
  8
Layer_0
  10
29.74194
  20
58.716431
  0
VERTEX
  5
99e
  8
Layer_0
  10
29.834084
  20
58.585754
  0
VERTEX
  5
99f
  8
Layer_0
  10
29.906656
  20
58.445618
  0
VERTEX
  5
9a0
  8
Layer_0
  10
29.958494
  20
58.30127
  0
VERTEX
  5
9a1
  8
Layer_0
  10
29.989597
  20
58.152649
  0
VERTEX
  5
9a2
  8
Layer_0
  10
29.999966
  20
57.999756
  0
VERTEX
  5
9a3
  8
Layer_0
  10
29.990082
  20
57.855774
  0
VERTEX
  5
9a4
  8
Layer_0
  10
29.960434
  20
57.718384
  0
VERTEX
  5
9a5
  8
Layer_0
  10
29.911016
  20
57.587555
  0
VERTEX
  5
9a6
  8
Layer_0
  10
29.841835
  20
57.463348
  0
VERTEX
  5
9a7
  8
Layer_0
  10
29.753273
  20
57.348633
  0
VERTEX
  5
9a8
  8
Layer_0
  10
29.645723
  20
57.246307
  0
VERTEX
  5
9a9
  8
Layer_0
  10
29.51918
  20
57.156372
  0
VERTEX
  5
9aa
  8
Layer_0
  10
29.373646
  20
57.078857
  0
VERTEX
  5
9ab
  8
Layer_0
  10
29.563946
  20
57.019867
  0
VERTEX
  5
9ac
  8
Layer_0
  10
29.731764
  20
56.935852
  0
VERTEX
  5
9ad
  8
Layer_0
  10
29.877106
  20
56.826874
  0
VERTEX
  5
9ae
  8
Layer_0
  10
29.999966
  20
56.692841
  0
VERTEX
  5
9af
  8
Layer_0
  10
30.097633
  20
56.53714
  0
VERTEX
  5
9b0
  8
Layer_0
  10
30.167397
  20
56.363037
  0
VERTEX
  5
9b1
  8
Layer_0
  10
30.209255
  20
56.170532
  0
VERTEX
  5
9b2
  8
Layer_0
  10
30.223207
  20
55.959564
  0
VERTEX
  5
9b3
  8
Layer_0
  10
30.196077
  20
55.673218
  0
VERTEX
  5
9b4
  8
Layer_0
  10
30.114687
  20
55.409607
  0
VERTEX
  5
9b5
  8
Layer_0
  10
29.979036
  20
55.16864
  0
VERTEX
  5
9b6
  8
Layer_0
  10
29.789125
  20
54.950317
  0
VERTEX
  5
9b7
  8
Layer_0
  10
29.557745
  20
54.769226
  0
VERTEX
  5
9b8
  8
Layer_0
  10
29.297684
  20
54.639862
  0
VERTEX
  5
9b9
  8
Layer_0
  10
29.008942
  20
54.562225
  0
VERTEX
  5
9ba
  8
Layer_0
  10
28.691517
  20
54.536377
  0
VERTEX
  5
9bb
  8
Layer_0
  10
28.405003
  20
54.558685
  0
VERTEX
  5
9bc
  8
Layer_0
  10
28.143877
  20
54.625549
  0
VERTEX
  5
9bd
  8
Layer_0
  10
27.908134
  20
54.737
  0
VERTEX
  5
9be
  8
Layer_0
  10
27.697781
  20
54.892944
  0
VERTEX
  5
9bf
  8
Layer_0
  10
27.521338
  20
55.084412
  0
VERTEX
  5
9c0
  8
Layer_0
  10
27.387335
  20
55.302246
  0
VERTEX
  5
9c1
  8
Layer_0
  10
27.295769
  20
55.546417
  0
VERTEX
  5
9c2
  8
Layer_0
  10
27.246645
  20
55.816925
  0
SEQEND
  0
POLYLINE
  5
9c4
  8
Layer_0
  62
0
  70
1
  66
1
  10
0
  20
0
  30
0
  0
VERTEX
  5
9c4
  8
Layer_0
  10
66.935501
  20
33.998352
  0
VERTEX
  5
9c5
  8
Layer_0
  10
66.380493
  20
33.954956
  0
VERTEX
  5
9c6
  8
Layer_0
  10
66.290573
  20
34.238647
  0
VERTEX
  5
9c7
  8
Layer_0
  10
66.169655
  20
34.432434
  0
VERTEX
  5
9c8
  8
Layer_0
  10
66.049896
  20
34.536896
  0
VERTEX
  5
9c9
  8
Layer_0
  10
65.916962
  20
34.611511
  0
VERTEX
  5
9ca
  8
Layer_0
  10
65.770844
  20
34.65625
  0
VERTEX
  5
9cb
  8
Layer_0
  10
65.611549
  20
34.671173
  0
VERTEX
  5
9cc
  8
Layer_0
  10
65.4823
  20
34.661865
  0
VERTEX
  5
9cd
  8
Layer_0
  10
65.361176
  20
34.633972
  0
VERTEX
  5
9ce
  8
Layer_0
  10
65.248199
  20
34.587463
  0
VERTEX
  5
9cf
  8
Layer_0
  10
65.143356
  20
34.522369
  0
VERTEX
  5
9d0
  8
Layer_0
  10
65.018555
  20
34.415192
  0
VERTEX
  5
9d1
  8
Layer_0
  10
64.907715
  20
34.285919
  0
VERTEX
  5
9d2
  8
Layer_0
  10
64.810822
  20
34.134583
  0
VERTEX
  5
9d3
  8
Layer_0
  10
64.727882
  20
33.961151
  0
VERTEX
  5
9d4
  8
Layer_0
  10
64.661026
  20
33.75708
  0
VERTEX
  5
9d5
  8
Layer_0
  10
64.612381
  20
33.513916
  0
VERTEX
  5
9d6
  8
Layer_0
  10
64.581955
  20
33.231567
  0
VERTEX
  5
9d7
  8
Layer_0
  10
64.569748
  20
32.910065
  0
VERTEX
  5
9d8
  8
Layer_0
  10
64.676147
  20
33.05365
  0
VERTEX
  5
9d9
  8
Layer_0
  10
64.793762
  20
33.17749
  0
VERTEX
  5
9da
  8
Layer_0
  10
64.922638
  20
33.281555
  0
VERTEX
  5
9db
  8
Layer_0
  10
65.062744
  20
33.365845
  0
VERTEX
  5
9dc
  8
Layer_0
  10
65.21022
  20
33.430969
  0
VERTEX
  5
9dd
  8
Layer_0
  10
65.361176
  20
33.477478
  0
VERTEX
  5
9de
  8
Layer_0
  10
65.515625
  20
33.505371
  0
VERTEX
  5
9df
  8
Layer_0
  10
65.673561
  20
33.514679
  0
VERTEX
  5
9e0
  8
Layer_0
  10
65.942245
  20
33.489014
  0
VERTEX
  5
9e1
  8
Layer_0
  10
66.190201
  20
33.411987
  0
VERTEX
  5
9e2
  8
Layer_0
  10
66.417412
  20
33.2836
  0
VERTEX
  5
9e3
  8
Layer_0
  10
66.623886
  20
33.103851
  0
VERTEX
  5
9e4
  8
Layer_0
  10
66.795486
  20
32.883423
  0
VERTEX
  5
9e5
  8
Layer_0
  10
66.91806
  20
32.632935
  0
VERTEX
  5
9e6
  8
Layer_0
  10
66.9916
  20
32.352417
  0
VERTEX
  5
9e7
  8
Layer_0
  10
67.016113
  20
32.041901
  0
VERTEX
  5
9e8
  8
Layer_0
  10
67.004578
  20
31.831726
  0
VERTEX
  5
9e9
  8
Layer_0
  10
66.969994
  20
31.62912
  0
VERTEX
  5
9ea
  8
Layer_0
  10
66.912338
  20
31.434082
  0
VERTEX
  5
9eb
  8
Layer_0
  10
66.831627
  20
31.246582
  0
VERTEX
  5
9ec
  8
Layer_0
  10
66.730766
  20
31.073669
  0
VERTEX
  5
9ed
  8
Layer_0
  10
66.612656
  20
30.92218
  0
VERTEX
  5
9ee
  8
Layer_0
  10
66.477295
  20
30.792297
  0
VERTEX
  5
9ef
  8
Layer_0
  10
66.324684
  20
30.683838
  0
VERTEX
  5
9f0
  8
Layer_0
  10
66.158028
  20
30.598389
  0
VERTEX
  5
9f1
  8
Layer_0
  10
65.980522
  20
30.537323
  0
VERTEX
  5
9f2
  8
Layer_0
  10
65.79216
  20
30.500702
  0
VERTEX
  5
9f3
  8
Layer_0
  10
65.592941
  20
30.488495
  0
VERTEX
  5
9f4
  8
Layer_0
  10
65.260208
  20
30.520569
  0
VERTEX
  5
9f5
  8
Layer_0
  10
64.959648
  20
30.616791
  0
VERTEX
  5
9f6
  8
Layer_0
  10
64.691254
  20
30.777161
  0
VERTEX
  5
9f7
  8
Layer_0
  10
64.455032
  20
31.001648
  0
VERTEX
  5
9f8
  8
Layer_0
  10
64.262405
  20
31.299805
  0
VERTEX
  5
9f9
  8
Layer_0
  10
64.124817
  20
31.681061
  0
VERTEX
  5
9fa
  8
Layer_0
  10
64.042267
  20
32.145477
  0
VERTEX
  5
9fb
  8
Layer_0
  10
64.014748
  20
32.693024
  0
VERTEX
  5
9fc
  8
Layer_0
  10
64.022354
  20
33.01123
  0
VERTEX
  5
9fd
  8
Layer_0
  10
64.045174
  20
33.306946
  0
VERTEX
  5
9fe
  8
Layer_0
  10
64.083206
  20
33.5802
  0
VERTEX
  5
9ff
  8
Layer_0
  10
64.136444
  20
33.830933
  0
VERTEX
  5
a00
  8
Layer_0
  10
64.204895
  20
34.059204
  0
VERTEX
  5
a01
  8
Layer_0
  10
64.288574
  20
34.265015
  0
VERTEX
  5
a02
  8
Layer_0
  10
64.387451
  20
34.448334
  0
VERTEX
  5
a03
  8
Layer_0
  10
64.501541
  20
34.609161
  0
VERTEX
  5
a04
  8
Layer_0
  10
64.73233
  20
34.837036
  0
VERTEX
  5
a05
  8
Layer_0
  10
64.999954
  20
34.999847
  0
VERTEX
  5
a06
  8
Layer_0
  10
65.304398
  20
35.097504
  0
VERTEX
  5
a07
  8
Layer_0
  10
65.645653
  20
35.130066
  0
VERTEX
  5
a08
  8
Layer_0
  10
65.901741
  20
35.111267
  0
VERTEX
  5
a09
  8
Layer_0
  10
66.133606
  20
35.054871
  0
VERTEX
  5
a0a
  8
Layer_0
  10
66.341248
  20
34.960876
  0
VERTEX
  5
a0b
  8
Layer_0
  10
66.524673
  20
34.829315
  0
VERTEX
  5
a0c
  8
Layer_0
  10
66.678825
  20
34.664612
  0
VERTEX
  5
a0d
  8
Layer_0
  10
66.798683
  20
34.471191
  0
VERTEX
  5
a0e
  8
Layer_0
  10
66.884239
  20
34.249146
  0
VERTEX
  5
a0f
  8
Layer_0
  10
66.935501
  20
33.998352
  0
SEQEND
  0
POLYLINE
  5
a11
  8
Layer_0
  62
0
  70
1
  66
1
  10
0
  20
0
  30
0
  0
VERTEX
  5
a11
  8
Layer_0
  10
64.65657
  20
32.038788
  0
VERTEX
  5
a12
  8
Layer_0
  10
64.687195
  20
31.756653
  0
VERTEX
  5
a13
  8
Layer_0
  10
64.779037
  20
31.486877
  0
VERTEX
  5
a14
  8
Layer_0
  10
64.846375
  20
31.362976
  0
VERTEX
  5
a15
  8
Layer_0
  10
64.925926
  20
31.25473
  0
VERTEX
  5
a16
  8
Layer_0
  10
65.017685
  20
31.162201
  0
VERTEX
  5
a17
  8
Layer_0
  10
65.121658
  20
31.085358
  0
VERTEX
  5
a18
  8
Layer_0
  10
65.347221
  20
30.981873
  0
VERTEX
  5
a19
  8
Layer_0
  10
65.583641
  20
30.947388
  0
VERTEX
  5
a1a
  8
Layer_0
  10
65.754173
  20
30.96521
  0
VERTEX
  5
a1b
  8
Layer_0
  10
65.912308
  20
31.018707
  0
VERTEX
  5
a1c
  8
Layer_0
  10
66.058037
  20
31.107849
  0
VERTEX
  5
a1d
  8
Layer_0
  10
66.19136
  20
31.232635
  0
VERTEX
  5
a1e
  8
Layer_0
  10
66.302597
  20
31.388062
  0
VERTEX
  5
a1f
  8
Layer_0
  10
66.382042
  20
31.569031
  0
VERTEX
  5
a20
  8
Layer_0
  10
66.429718
  20
31.775635
  0
VERTEX
  5
a21
  8
Layer_0
  10
66.445602
  20
32.007782
  0
VERTEX
  5
a22
  8
Layer_0
  10
66.429901
  20
32.230927
  0
VERTEX
  5
a23
  8
Layer_0
  10
66.382813
  20
32.429077
  0
VERTEX
  5
a24
  8
Layer_0
  10
66.304337
  20
32.602234
  0
VERTEX
  5
a25
  8
Layer_0
  10
66.194458
  20
32.750366
  0
VERTEX
  5
a26
  8
Layer_0
  10
66.060745
  20
32.86908
  0
VERTEX
  5
a27
  8
Layer_0
  10
65.910751
  20
32.953857
  0
VERTEX
  5
a28
  8
Layer_0
  10
65.744476
  20
33.0047
  0
VERTEX
  5
a29
  8
Layer_0
  10
65.561935
  20
33.021667
  0
VERTEX
  5
a2a
  8
Layer_0
  10
65.379974
  20
33.0047
  0
VERTEX
  5
a2b
  8
Layer_0
  10
65.212349
  20
32.953857
  0
VERTEX
  5
a2c
  8
Layer_0
  10
65.059067
  20
32.86908
  0
VERTEX
  5
a2d
  8
Layer_0
  10
64.92012
  20
32.750366
  0
VERTEX
  5
a2e
  8
Layer_0
  10
64.80481
  20
32.604126
  0
VERTEX
  5
a2f
  8
Layer_0
  10
64.722458
  20
32.436829
  0
VERTEX
  5
a30
  8
Layer_0
  10
64.673042
  20
32.248352
  0
VERTEX
  5
a31
  8
Layer_0
  10
64.65657
  20
32.038788
  0
SEQEND
  0
POLYLINE
  5
a33
  8
Layer_1
  62
202
  70
1
  66
1
  10
0
  20
0
  30
0
  0
VERTEX
  5
a33
  8
Layer_1
  10
65.274315
  20
28.487122
  0
VERTEX
  5
a34
  8
Layer_1
  10
64.641548
  20
24.708008
  0
VERTEX
  5
a35
  8
Layer_1
  10
27.452681
  20
30.934875
  0
VERTEX
  5
a36
  8
Layer_1
  10
28.085451
  20
34.713989
  0
VERTEX
  5
a37
  8
Layer_1
  10
65.274315
  20
28.487122
  0
SEQEND
  0
POLYLINE
  5
a39
  8
Layer_1
  62
202
  70
1
  66
1
  10
0
  20
0
  30
0
  0
VERTEX
  5
a39
  8
Layer_1
  10
64.846817
  20
55.645874
  0
VERTEX
  5
a3a
  8
Layer_1
  10
64.21405
  20
59.424988
  0
VERTEX
  5
a3b
  8
Layer_1
  10
27.025183
  20
53.19812
  0
VERTEX
  5
a3c
  8
Layer_1
  10
27.657953
  20
49.419006
  0
VERTEX
  5
a3d
  8
Layer_1
  10
64.846817
  20
55.645874
  0
SEQEND
  0
POLYLINE
  5
a3f
  8
Layer_1
  62
202
  70
1
  66
1
  10
0
  20
0
  30
0
  0
VERTEX
  5
a3f
  8
Layer_1
  10
60.398117
  20
78.730133
  0
VERTEX
  5
a40
  8
Layer_1
  10
59.76535
  20
74.951019
  0
VERTEX
  5
a41
  8
Layer_1
  10
22.576483
  20
81.177887
  0
VERTEX
  5
a42
  8
Layer_1
  10
23.209253
  20
84.957001
  0
VERTEX
  5
a43
  8
Layer_1
  10
60.398117
  20
78.730133
  0
SEQEND
  0
POLYLINE
  5
a45
  8
Layer_1
  62
202
  70
1
  66
1
  10
0
  20
0
  30
0
  0
VERTEX
  5
a45
  8
Layer_1
  10
64.846817
  20
104.35587
  0
VERTEX
  5
a46
  8
Layer_1
  10
64.21405
  20
108.13498
  0
VERTEX
  5
a47
  8
Layer_1
  10
27.025183
  20
101.90811
  0
VERTEX
  5
a48
  8
Layer_1
  10
27.657953
  20
98.128998
  0
VERTEX
  5
a49
  8
Layer_1
  10
64.846817
  20
104.35587
  0
SEQEND
  0
POLYLINE
  5
a4b
  8
Layer_2
  62
1
  70
1
  66
1
  10
0
  20
0
  30
0
  0
VERTEX
  5
a4b
  8
Layer_2
  10
64.641518
  20
20.928528
  0
VERTEX
  5
a4c
  8
Layer_2
  10
57.137302
  20
22.251709
  0
VERTEX
  5
a4d
  8
Layer_2
  10
56.586018
  20
19.124939
  0
VERTEX
  5
a4e
  8
Layer_2
  10
64.090202
  20
17.801758
  0
VERTEX
  5
a4f
  8
Layer_2
  10
64.641518
  20
20.928528
  0
SEQEND
  0
POLYLINE
  5
a51
  8
Layer_2
  62
1
  70
1
  66
1
  10
0
  20
0
  30
0
  0
VERTEX
  5
a51
  8
Layer_2
  10
32.123203
  20
26.662415
  0
VERTEX
  5
a52
  8
Layer_2
  10
24.618916
  20
27.985596
  0
VERTEX
  5
a53
  8
Layer_2
  10
24.067608
  20
24.858826
  0
VERTEX
  5
a54
  8
Layer_2
  10
31.571812
  20
23.535645
  0
VERTEX
  5
a55
  8
Layer_2
  10
32.123203
  20
26.662415
  0
SEQEND
  0
POLYLINE
  5
a57
  8
Layer_2
  62
1
  70
1
  66
1
  10
0
  20
0
  30
0
  0
VERTEX
  5
a57
  8
Layer_2
  10
43.245411
  20
48.057617
  0
VERTEX
  5
a58
  8
Layer_2
  10
35.74123
  20
46.734436
  0
VERTEX
  5
a59
  8
Layer_2
  10
36.292515
  20
43.607666
  0
VERTEX
  5
a5a
  8
Layer_2
  10
43.796696
  20
44.930847
  0
VERTEX
  5
a5b
  8
Layer_2
  10
43.245411
  20
48.057617
  0
SEQEND
  0
POLYLINE
  5
a5d
  8
Layer_2
  62
1
  70
1
  66
1
  10
0
  20
0
  30
0
  0
VERTEX
  5
a5d
  8
Layer_2
  10
64.846809
  20
51.866516
  0
VERTEX
  5
a5e
  8
Layer_2
  10
57.342518
  20
50.543335
  0
VERTEX
  5
a5f
  8
Layer_2
  10
57.893909
  20
47.416565
  0
VERTEX
  5
a60
  8
Layer_2
  10
65.398125
  20
48.739746
  0
VERTEX
  5
a61
  8
Layer_2
  10
64.846809
  20
51.866516
  0
SEQEND
  0
POLYLINE
  5
a63
  8
Layer_2
  62
1
  70
1
  66
1
  10
0
  20
0
  30
0
  0
VERTEX
  5
a63
  8
Layer_2
  10
50.709431
  20
72.438629
  0
VERTEX
  5
a64
  8
Layer_2
  10
43.205204
  20
73.76181
  0
VERTEX
  5
a65
  8
Layer_2
  10
42.653919
  20
70.63504
  0
VERTEX
  5
a66
  8
Layer_2
  10
50.158131
  20
69.311859
  0
VERTEX
  5
a67
  8
Layer_2
  10
50.709431
  20
72.438629
  0
SEQEND
  0
POLYLINE
  5
a69
  8
Layer_2
  62
1
  70
1
  66
1
  10
0
  20
0
  30
0
  0
VERTEX
  5
a69
  8
Layer_2
  10
30.080692
  20
76.07605
  0
VERTEX
  5
a6a
  8
Layer_2
  10
22.576527
  20
77.399231
  0
VERTEX
  5
a6b
  8
Layer_2
  10
22.025234
  20
74.27243
  0
VERTEX
  5
a6c
  8
Layer_2
  10
29.529408
  20
72.949219
  0
VERTEX
  5
a6d
  8
Layer_2
  10
30.080692
  20
76.07605
  0
SEQEND
  0
POLYLINE
  5
a6f
  8
Layer_2
  62
1
  70
1
  66
1
  10
0
  20
0
  30
0
  0
VERTEX
  5
a6f
  8
Layer_2
  10
44.218143
  20
96.939636
  0
VERTEX
  5
a70
  8
Layer_2
  10
36.713825
  20
95.616425
  0
VERTEX
  5
a71
  8
Layer_2
  10
37.265263
  20
92.489624
  0
VERTEX
  5
a72
  8
Layer_2
  10
44.769444
  20
93.812805
  0
VERTEX
  5
a73
  8
Layer_2
  10
44.218143
  20
96.939636
  0
SEQEND
  0
POLYLINE
  5
a75
  8
Layer_2
  62
1
  70
1
  66
1
  10
0
  20
0
  30
0
  0
VERTEX
  5
a75
  8
Layer_2
  10
64.84684
  20
100.57703
  0
VERTEX
  5
a76
  8
Layer_2
  10
57.342548
  20
99.253815
  0
VERTEX
  5
a77
  8
Layer_2
  10
57.893925
  20
96.127045
  0
VERTEX
  5
a78
  8
Layer_2
  10
65.39814
  20
97.450226
  0
VERTEX
  5
a79
  8
Layer_2
  10
64.84684
  20
100.57703
  0
SEQEND
  0
POLYLINE
  5
a7b
  8
Layer_2
  62
1
  70
1
  66
1
  10
0
  20
0
  30
0
  0
VERTEX
  5
a7b
  8
Layer_2
  10
75.461601
  20
128.04599
  0
VERTEX
  5
a7c
  8
Layer_2
  10
72.285599
  20
128.04599
  0
VERTEX
  5
a7d
  8
Layer_2
  10
72.285599
  20
120.42999
  0
VERTEX
  5
a7e
  8
Layer_2
  10
75.461601
  20
120.42999
  0
VERTEX
  5
a7f
  8
Layer_2
  10
75.461601
  20
87.406006
  0
VERTEX
  5
a80
  8
Layer_2
  10
72.285599
  20
87.406006
  0
VERTEX
  5
a81
  8
Layer_2
  10
72.285599
  20
79.790009
  0
VERTEX
  5
a82
  8
Layer_2
  10
75.461601
  20
79.790009
  0
VERTEX
  5
a83
  8
Layer_2
  10
75.461601
  20
53.117981
  0
VERTEX
  5
a84
  8
Layer_2
  10
72.285599
  20
53.117981
  0
VERTEX
  5
a85
  8
Layer_2
  10
72.285599
  20
45.494019
  0
VERTEX
  5
a86
  8
Layer_2
  10
75.461601
  20
45.494019
  0
VERTEX
  5
a87
  8
Layer_2
  10
75.461601
  20
29.333984
  0
VERTEX
  5
a88
  8
Layer_2
  10
100.4616
  20
19.917999
  0
VERTEX
  5
a89
  8
Layer_2
  10
101.2696
  20
19.549988
  0
VERTEX
  5
a8a
  8
Layer_2
  10
102.45949
  20
19.063843
  0
VERTEX
  5
a8b
  8
Layer_2
  10
103.67577
  20
18.651733
  0
VERTEX
  5
a8c
  8
Layer_2
  10
104.91496
  20
18.314789
  0
VERTEX
  5
a8d
  8
Layer_2
  10
106.17361
  20
18.054016
  0
VERTEX
  5
a8e
  8
Layer_2
  10
106.39046
  20
18.016968
  0
VERTEX
  5
a8f
  8
Layer_2
  10
106.65788
  20
17.974304
  0
VERTEX
  5
a90
  8
Layer_2
  10
107.33107
  20
17.87442
  0
VERTEX
  5
a91
  8
Layer_2
  10
108.1664
  20
17.758453
  0
VERTEX
  5
a92
  8
Layer_2
  10
109.13713
  20
17.630615
  0
VERTEX
  5
a93
  8
Layer_2
  10
110.21651
  20
17.494995
  0
VERTEX
  5
a94
  8
Layer_2
  10
111.37778
  20
17.355774
  0
VERTEX
  5
a95
  8
Layer_2
  10
112.59419
  20
17.217102
  0
VERTEX
  5
a96
  8
Layer_2
  10
113.83899
  20
17.08313
  0
VERTEX
  5
a97
  8
Layer_2
  10
115.08542
  20
16.957977
  0
VERTEX
  5
a98
  8
Layer_2
  10
116.30673
  20
16.845825
  0
VERTEX
  5
a99
  8
Layer_2
  10
117.47618
  20
16.750793
  0
VERTEX
  5
a9a
  8
Layer_2
  10
118.567
  20
16.677063
  0
VERTEX
  5
a9b
  8
Layer_2
  10
119.07457
  20
16.649475
  0
VERTEX
  5
a9c
  8
Layer_2
  10
119.55244
  20
16.628754
  0
VERTEX
  5
a9d
  8
Layer_2
  10
119.99728
  20
16.615417
  0
VERTEX
  5
a9e
  8
Layer_2
  10
120.40575
  20
16.609985
  0
VERTEX
  5
a9f
  8
Layer_2
  10
120.77449
  20
16.613007
  0
VERTEX
  5
aa0
  8
Layer_2
  10
121.10017
  20
16.624969
  0
VERTEX
  5
aa1
  8
Layer_2
  10
121.37943
  20
16.646362
  0
VERTEX
  5
aa2
  8
Layer_2
  10
121.60896
  20
16.677795
  0
VERTEX
  5
aa3
  8
Layer_2
  10
121.2376
  20
14.901978
  0
VERTEX
  5
aa4
  8
Layer_2
  10
124.34161
  20
14.333984
  0
VERTEX
  5
aa5
  8
Layer_2
  10
123.64561
  20
10.526001
  0
VERTEX
  5
aa6
  8
Layer_2
  10
123.09361
  20
7.3980103
  0
VERTEX
  5
aa7
  8
Layer_2
  10
11.957598
  20
7.3980103
  0
VERTEX
  5
aa8
  8
Layer_2
  10
11.957598
  20
16.286011
  0
VERTEX
  5
aa9
  8
Layer_2
  10
15.1336
  20
16.286011
  0
VERTEX
  5
aaa
  8
Layer_2
  10
15.1336
  20
23.910004
  0
VERTEX
  5
aab
  8
Layer_2
  10
11.957598
  20
23.910004
  0
VERTEX
  5
aac
  8
Layer_2
  10
11.957598
  20
48.037994
  0
VERTEX
  5
aad
  8
Layer_2
  10
15.1336
  20
48.037994
  0
VERTEX
  5
aae
  8
Layer_2
  10
15.1336
  20
55.661987
  0
VERTEX
  5
aaf
  8
Layer_2
  10
11.957598
  20
55.661987
  0
VERTEX
  5
ab0
  8
Layer_2
  10
11.957598
  20
88.678009
  0
VERTEX
  5
ab1
  8
Layer_2
  10
15.1336
  20
88.678009
  0
VERTEX
  5
ab2
  8
Layer_2
  10
15.1336
  20
96.302002
  0
VERTEX
  5
ab3
  8
Layer_2
  10
11.957598
  20
96.302002
  0
VERTEX
  5
ab4
  8
Layer_2
  10
11.957598
  20
120.42999
  0
VERTEX
  5
ab5
  8
Layer_2
  10
15.1336
  20
120.42999
  0
VERTEX
  5
ab6
  8
Layer_2
  10
15.1336
  20
128.04599
  0
VERTEX
  5
ab7
  8
Layer_2
  10
11.957598
  20
128.04599
  0
VERTEX
  5
ab8
  8
Layer_2
  10
11.957598
  20
134.39801
  0
VERTEX
  5
ab9
  8
Layer_2
  10
75.461601
  20
134.39801
  0
VERTEX
  5
aba
  8
Layer_2
  10
75.461601
  20
128.04599
  0
SEQEND
  0
POLYLINE
  5
abc
  8
Layer_2
  62
1
  70
1
  66
1
  10
0
  20
0
  30
0
  0
VERTEX
  5
abc
  8
Layer_2
  10
97.159904
  20
15.194641
  0
VERTEX
  5
abd
  8
Layer_2
  10
89.655632
  20
16.517822
  0
VERTEX
  5
abe
  8
Layer_2
  10
89.104301
  20
13.391113
  0
VERTEX
  5
abf
  8
Layer_2
  10
96.608528
  20
12.067932
  0
VERTEX
  5
ac0
  8
Layer_2
  10
97.159904
  20
15.194641
  0
SEQEND
  0
POLYLINE
  5
ac2
  8
Layer_2
  62
1
  70
1
  66
1
  10
0
  20
0
  30
0
  0
VERTEX
  5
ac2
  8
Layer_2
  10
117.1712
  20
11.666077
  0
VERTEX
  5
ac3
  8
Layer_2
  10
109.66692
  20
12.989258
  0
VERTEX
  5
ac4
  8
Layer_2
  10
109.11565
  20
9.8624878
  0
VERTEX
  5
ac5
  8
Layer_2
  10
116.61983
  20
8.5393066
  0
VERTEX
  5
ac6
  8
Layer_2
  10
117.1712
  20
11.666077
  0
SEQEND
  0
ENDSEC
  0
EOF
