<?xml version="1.0" encoding="UTF-8"?>
<!DOCTYPE svg PUBLIC "-//W3C//DTD SVG 1.1//EN" "http://www.w3.org/Graphics/SVG/1.1/DTD/svg11.dtd">
<!-- Creator: CorelDRAW -->
<svg xmlns="http://www.w3.org/2000/svg" xml:space="preserve" width="297.45mm" height="348.442mm" version="1.1" style="shape-rendering:geometricPrecision; text-rendering:geometricPrecision; image-rendering:optimizeQuality; fill-rule:evenodd; clip-rule:evenodd"
viewBox="0 0 29745.02 34844.22"
 xmlns:xlink="http://www.w3.org/1999/xlink"
 xmlns:xodm="http://www.corel.com/coreldraw/odm/2003">
 <defs>
  <style type="text/css">
   <![CDATA[
    .str0 {stroke:#333333;stroke-width:9;stroke-linejoin:bevel;stroke-miterlimit:2.61313}
    .str1 {stroke:#FF003F;stroke-width:9;stroke-linejoin:bevel;stroke-miterlimit:2.61313}
    .fil0 {fill:none}
   ]]>
  </style>
 </defs>
 <g id="Layer_x0020_1">
  <metadata id="CorelCorpID_0Corel-Layer"/>
  <path class="fil0 str0" d="M18517.01 19432.49c0,0 -162.03,-365.71 -162.03,-365.71 0,0 -274.29,121.53 -274.29,121.53 0,0 162.04,365.71 162.04,365.71 0,0 274.28,-121.53 274.28,-121.53z"/>
  <path class="fil0 str0" d="M16073.21 13917.01c0,0 -162.04,-365.71 -162.04,-365.71 0,0 -274.28,121.53 -274.28,121.53 0,0 162.03,365.71 162.03,365.71 0,0 274.29,-121.53 274.29,-121.53z"/>
  <path class="fil0 str0" d="M14205.18 13551.3c0,0 -162.04,365.71 -162.04,365.71 0,0 274.29,121.53 274.29,121.53 0,0 162.04,-365.71 162.04,-365.71 0,0 -274.29,-121.53 -274.29,-121.53z"/>
  <path class="fil0 str0" d="M11761.38 19066.78c0,0 -162.04,365.71 -162.04,365.71 0,0 274.28,121.53 274.28,121.53 0,0 162.04,-365.71 162.04,-365.71 0,0 -274.28,-121.53 -274.28,-121.53z"/>
  <path class="fil0 str0" d="M15241.03 11398.49c-32.05,-72.34 -103.73,-118.98 -182.85,-118.98 -79.12,0 -150.81,46.64 -182.86,118.98 0,0 -4070.38,9186.52 -4070.38,9186.52 -62.37,176.18 21.41,370.68 192.29,446.39 170.87,75.72 371.23,7.11 459.83,-157.45 139.57,23.51 277.32,-50.56 334.65,-179.96 57.33,-129.39 19.67,-281.19 -91.51,-368.78 139.56,23.51 277.31,-50.56 334.65,-179.96 57.33,-129.39 19.66,-281.19 -91.51,-368.78 139.56,23.51 277.31,-50.56 334.64,-179.96 57.34,-129.39 19.67,-281.19 -91.51,-368.78 139.57,23.51 277.32,-50.56 334.65,-179.96 57.33,-129.39 19.67,-281.19 -91.51,-368.78 139.56,23.51 277.31,-50.56 334.65,-179.96 57.33,-129.39 19.66,-281.19 -91.51,-368.78 139.56,23.51 277.31,-50.56 334.64,-179.96 57.34,-129.39 19.67,-281.19 -91.51,-368.78 139.57,23.51 277.32,-50.56 334.65,-179.96 57.33,-129.39 19.67,-281.19 -91.51,-368.78 139.56,23.51 277.31,-50.56 334.65,-179.96 57.33,-129.39 19.66,-281.19 -91.51,-368.78 139.56,23.51 277.31,-50.56 334.64,-179.96 57.34,-129.39 19.67,-281.19 -91.51,-368.78 139.57,23.51 277.31,-50.56 334.65,-179.96 57.33,-129.39 19.66,-281.19 -91.51,-368.78 139.56,23.51 277.31,-50.56 334.64,-179.96 57.34,-129.39 19.67,-281.19 -91.5,-368.78 139.56,23.51 277.31,-50.56 334.64,-179.96 57.33,-129.39 19.67,-281.19 -91.51,-368.78 124.47,15.83 239.15,-69.64 259.55,-193.44 112.43,112.45 264.92,175.62 423.93,175.62 159,0 311.5,-63.17 423.92,-175.62 20.4,123.8 135.09,209.27 259.55,193.44 -111.18,87.58 -148.84,239.39 -91.51,368.78 57.33,129.4 195.08,203.48 334.65,179.96 -111.18,87.58 -148.85,239.39 -91.51,368.78 57.33,129.4 195.08,203.47 334.64,179.96 -111.17,87.58 -148.84,239.39 -91.51,368.78 57.34,129.4 195.09,203.47 334.65,179.96 -111.18,87.58 -148.84,239.39 -91.51,368.78 57.33,129.4 195.08,203.47 334.65,179.96 -111.18,87.58 -148.85,239.39 -91.51,368.78 57.33,129.4 195.08,203.47 334.64,179.96 -111.17,87.58 -148.84,239.39 -91.51,368.78 57.34,129.4 195.09,203.47 334.65,179.96 -111.18,87.58 -148.84,239.38 -91.51,368.78 57.33,129.4 195.08,203.47 334.64,179.96 -111.17,87.58 -148.84,239.38 -91.5,368.78 57.33,129.4 195.08,203.47 334.64,179.96 -111.17,87.58 -148.84,239.38 -91.51,368.78 57.34,129.4 195.09,203.47 334.65,179.96 -111.18,87.58 -148.84,239.38 -91.51,368.78 57.33,129.4 195.08,203.47 334.64,179.96 -111.17,87.58 -148.84,239.38 -91.5,368.78 57.33,129.4 195.08,203.47 334.64,179.96 -111.17,87.58 -148.84,239.38 -91.51,368.78 57.33,129.4 195.08,203.47 334.65,179.96 88.6,164.56 288.96,233.17 459.83,157.46 170.88,-75.72 254.66,-270.22 192.29,-446.4 0,0 -4070.38,-9186.52 -4070.38,-9186.52z"/>
  <path class="fil0 str0" d="M15298.66 13671.76c0,-132.82 -107.67,-240.49 -240.48,-240.49 -132.82,0 -240.49,107.67 -240.49,240.49 0,132.82 107.67,240.49 240.48,240.49 132.82,0 240.49,-107.67 240.49,-240.49z"/>
  <path class="fil0 str0" d="M15289.92 20038.88c0,0 -133.43,59.12 -133.43,59.12 0,0 -121.53,-274.28 -121.53,-274.28 0,0 -519.66,230.25 -519.66,230.25 0,0 0,-5342.51 0,-5342.51 0,0 519.66,230.25 519.66,230.25 0,0 121.53,-274.28 121.53,-274.28 0,0 133.43,59.12 133.43,59.12 0,0 360.45,159.71 360.45,159.71 0,0 -121.53,274.29 -121.53,274.29 0,0 355.69,157.59 355.69,157.59 0,0 0,4129.15 0,4129.15 0,0 -355.69,157.6 -355.69,157.6 0,0 121.53,274.28 121.53,274.28 0,0 -360.45,159.71 -360.45,159.71z"/>
  <path class="fil0 str0" d="M15684.53 19120.17c0,0 0,266.74 0,266.74 0,0 -789.23,0 -789.23,0 0,0 0,-266.74 0,-266.74 0,0 789.23,0 789.23,0z"/>
  <path class="fil0 str0" d="M15684.53 18971.18c0,0 -789.23,0 -789.23,0 0,0 0,-266.75 0,-266.75 0,0 789.23,0 789.23,0 0,0 0,266.75 0,266.75z"/>
  <path class="fil0 str0" d="M15684.53 18555.44c0,0 -789.23,0 -789.23,0 0,0 0,-266.75 0,-266.75 0,0 789.23,0 789.23,0 0,0 0,266.75 0,266.75z"/>
  <path class="fil0 str0" d="M15684.53 18139.7c0,0 -789.23,0 -789.23,0 0,0 0,-266.75 0,-266.75 0,0 789.23,0 789.23,0 0,0 0,266.75 0,266.75z"/>
  <path class="fil0 str0" d="M14895.3 15645.27c0,0 0,-266.75 0,-266.75 0,0 789.23,0 789.23,0 0,0 0,266.75 0,266.75 0,0 -789.23,0 -789.23,0z"/>
  <path class="fil0 str0" d="M14895.3 16061c0,0 0,-266.74 0,-266.74 0,0 789.23,0 789.23,0 0,0 0,266.74 0,266.74 0,0 -789.23,0 -789.23,0z"/>
  <path class="fil0 str0" d="M15684.53 16476.74c0,0 -789.23,0 -789.23,0 0,0 0,-266.74 0,-266.74 0,0 789.23,0 789.23,0 0,0 0,266.74 0,266.74z"/>
  <path class="fil0 str0" d="M14895.3 17457.21c0,0 789.23,0 789.23,0 0,0 0,266.75 0,266.75 0,0 -789.23,0 -789.23,0 0,0 0,-266.75 0,-266.75z"/>
  <path class="fil0 str0" d="M15684.53 16892.48c0,0 -789.23,0 -789.23,0 0,0 0,-266.74 0,-266.74 0,0 789.23,0 789.23,0 0,0 0,266.74 0,266.74z"/>
  <path class="fil0 str0" d="M14895.3 17041.48c0,0 789.23,0 789.23,0 0,0 0,266.74 0,266.74 0,0 -789.23,0 -789.23,0 0,0 0,-266.74 0,-266.74z"/>
  <path class="fil0 str0" d="M25930.52 6101.87c0,0 -300,0 -300,0 0,0 0,-1987.37 0,-1987.37 0,0 -397.19,0 -397.19,0 0,0 0,-300 0,-300 0,0 -300,0 -300,0 0,0 0,300 0,300 0,0 -1252,0 -1252,0 0,0 0,-300 0,-300 0,0 -300,0 -300,0 0,0 0,300 0,300 0,0 -245.68,0 -245.68,0 0,0 0,2750 0,2750 0,0 0,2650 0,2650 0,0 245.68,0 245.68,0 0,0 0,300 0,300 0,0 300,0 300,0 0,0 0,-300 0,-300 0,0 1252,0 1252,0 0,0 0,300 0,300 0,0 300,0 300,0 0,0 0,-300 0,-300 0,0 397.19,0 397.19,0 0,0 0,-1987.37 0,-1987.37 0,0 300,0 300,0 0,0 0,-1425.26 0,-1425.26z"/>
  <path class="fil0 str0" d="M23135.65 9514.5c0,0 -245.68,0 -245.68,0 0,0 0,300 0,300 0,0 -300,0 -300,0 0,0 0,-300 0,-300 0,0 -1252,0 -1252,0 0,0 0,300 0,300 0,0 -300,0 -300,0 0,0 0,-300 0,-300 0,0 -397.2,0 -397.2,0 0,0 0,-1987.37 0,-1987.37 0,0 -299.99,0 -299.99,0 0,0 0,-1425.26 0,-1425.26 0,0 299.99,0 299.99,0 0,0 0,-1987.37 0,-1987.37 0,0 397.2,0 397.2,0 0,0 0,-300 0,-300 0,0 300,0 300,0 0,0 0,300 0,300 0,0 1252,0 1252,0 0,0 0,-300 0,-300 0,0 300,0 300,0 0,0 0,300 0,300 0,0 245.68,0 245.68,0"/>
  <path class="fil0 str1" d="M5628.7 27555.47c0,0 0,-263.61 0,-263.61 0,-242.56 173.1,-450.35 410.49,-497.59 315.08,-62.69 609.51,173.04 609.51,497.59 0,0 0,1374.68 0,1374.68 0,0 -1020,0 -1020,0 0,0 0,-1111.07 0,-1111.07z"/>
  <path class="fil0 str1" d="M8614.66 27291.86c0,0 0,1374.68 0,1374.68 0,0 -1020,0 -1020,0 0,0 0,-1374.68 0,-1374.68 0,-242.56 173.1,-450.35 410.49,-497.59 315.08,-62.69 609.51,173.04 609.51,497.59z"/>
  <path class="fil0 str1" d="M7181.19 22600.35c237.39,47.23 410.49,255.04 410.49,497.59 0,0 0,1374.68 0,1374.68 0,0 -1020,0 -1020,0 0,0 0,-1374.68 0,-1374.68 0,-323.44 296.07,-559.87 609.51,-497.59z"/>
  <path class="fil0 str0" d="M7717.13 21268.99c0,0 274.28,-121.53 274.28,-121.53 0,0 -162.04,-365.71 -162.04,-365.71 0,0 -274.28,121.53 -274.28,121.53 0,0 -473.75,-1069.22 -473.75,-1069.22 0,0 -473.76,1069.22 -473.76,1069.22 0,0 -274.28,-121.53 -274.28,-121.53 0,0 -162.04,365.71 -162.04,365.71 0,0 274.28,121.53 274.28,121.53 0,0 -2187.76,4937.61 -2187.76,4937.61 0,0 -274.28,-121.53 -274.28,-121.53 0,0 -162.04,365.71 -162.04,365.71 0,0 274.28,121.53 274.28,121.53 0,0 -264.4,596.74 -264.4,596.74 0,0 0,245.68 0,245.68 0,0 300,0 300,0 0,0 0,300 0,300 0,0 -300,0 -300,0 0,0 0,276.08 0,276.08 0,0 0,975.93 0,975.93 0,0 300,0 300,0 0,0 0,300 0,300 0,0 -300,0 -300,0 0,0 0,397.19 0,397.19 0,0 839.59,0 839.59,0 0,0 -0.01,300 -0.01,300 0,0 567.43,0 567.43,0 0,0 0.01,-300 0.01,-300 0,0 3685.96,0 3685.96,0 0,0 -0.01,300 -0.01,300 0,0 567.42,0 567.42,0 0,0 0.01,-300 0.01,-300 0,0 839.6,0 839.6,0 0,0 0,-397.19 0,-397.19 0,0 -300,0 -300,0 0,0 0,-300 0,-300 0,0 300,0 300,0 0,0 0,-975.93 0,-975.93 0,0 0,-276.08 0,-276.08 0,0 -300,0 -300,0 0,0 0,-300 0,-300 0,0 300,0 300,0 0,0 0,-245.68 0,-245.68 0,0 -264.41,-596.74 -264.41,-596.74 0,0 274.28,-121.53 274.28,-121.53 0,0 -162.04,-365.71 -162.04,-365.71 0,0 -274.28,121.53 -274.28,121.53 0,0 -2187.76,-4937.61 -2187.76,-4937.61z"/>
  <path class="fil0 str0" d="M6548.36 27615.47c0,0 -330,0 -330,0 0,0 0,375.34 0,375.34 0,0 330,0 330,0 0,0 0,-375.34 0,-375.34z"/>
  <path class="fil0 str0" d="M6058.36 27615.47c0,0 -330,0 -330,0 0,0 0,375.34 0,375.34 0,0 330,0 330,0 0,0 0,-375.34 0,-375.34z"/>
  <path class="fil0 str0" d="M6218.36 27455.47c0,0 330,0 330,0 0,0 0,-163.61 0,-163.61 -1.25,-194.61 -139.13,-361.53 -330,-399.51 0,0 0,563.12 0,563.12z"/>
  <path class="fil0 str0" d="M6058.36 28566.54c0,0 0,-415.73 0,-415.73 0,0 -330,0 -330,0 0,0 0,415.73 0,415.73 0,0 330,0 330,0z"/>
  <path class="fil0 str0" d="M6548.36 28150.81c0,0 -330,0 -330,0 0,0 0,415.73 0,415.73 0,0 330,0 330,0 0,0 0,-415.73 0,-415.73z"/>
  <path class="fil0 str0" d="M5728.36 27455.47c0,0 330,0 330,0 0,0 0,-563.12 0,-563.12 -190.88,37.98 -328.76,204.9 -330,399.51 0,0 0,163.61 0,163.61z"/>
  <path class="fil0 str0" d="M8184.32 27990.81c0,0 330,0 330,0 0,0 0,-375.34 0,-375.34 0,0 -330,0 -330,0 0,0 0,375.34 0,375.34z"/>
  <path class="fil0 str0" d="M7694.32 27615.47c0,0 0,375.34 0,375.34 0,0 330,0 330,0 0,0 0,-375.34 0,-375.34 0,0 -330,0 -330,0z"/>
  <path class="fil0 str0" d="M8184.32 28566.54c0,0 330,0 330,0 0,0 0,-415.73 0,-415.73 0,0 -330,0 -330,0 0,0 0,415.73 0,415.73z"/>
  <path class="fil0 str0" d="M7694.32 28150.81c0,0 0,415.73 0,415.73 0,0 330,0 330,0 0,0 0,-415.73 0,-415.73 0,0 -330,0 -330,0z"/>
  <path class="fil0 str0" d="M8184.32 27455.47c0,0 330,0 330,0 0,0 0,-163.61 0,-163.61 -1.25,-194.61 -139.13,-361.53 -330,-399.51 0,0 0,563.12 0,563.12z"/>
  <path class="fil0 str0" d="M7694.32 27455.47c0,0 330,0 330,0 0,0 0,-563.12 0,-563.12 -190.88,37.98 -328.76,204.9 -330,399.51 0,0 0,163.61 0,163.61z"/>
  <path class="fil0 str0" d="M7161.34 23421.55c0,0 0,375.34 0,375.34 0,0 330,0 330,0 0,0 0,-375.34 0,-375.34 0,0 -330,0 -330,0z"/>
  <path class="fil0 str0" d="M7001.34 23421.55c0,0 -330,0 -330,0 0,0 0,375.34 0,375.34 0,0 330,0 330,0 0,0 0,-375.34 0,-375.34z"/>
  <path class="fil0 str0" d="M7161.34 24372.62c0,0 330,0 330,0 0,0 0,-415.73 0,-415.73 0,0 -330,0 -330,0 0,0 0,415.73 0,415.73z"/>
  <path class="fil0 str0" d="M6671.34 23956.89c0,0 0,415.73 0,415.73 0,0 330,0 330,0 0,0 0,-415.73 0,-415.73 0,0 -330,0 -330,0z"/>
  <path class="fil0 str0" d="M7161.34 23261.55c0,0 330,0 330,0 0,0 0,-163.61 0,-163.61 -1.25,-194.61 -139.13,-361.54 -330,-399.51 0,0 0,563.12 0,563.12z"/>
  <path class="fil0 str0" d="M6671.34 23261.55c0,0 330,0 330,0 0,0 0,-563.12 0,-563.12 -190.88,37.97 -328.76,204.9 -330,399.51 0,0 0,163.61 0,163.61z"/>
  <path class="fil0 str0" d="M9688.22 24659.86c0,0 -274.28,121.53 -274.28,121.53 0,0 -162.04,-365.71 -162.04,-365.71 0,0 274.29,-121.53 274.29,-121.53 0,0 -264.41,-596.74 -264.41,-596.74 0,0 0,-245.68 0,-245.68 0,0 300,0 300,0 0,0 0,-300 0,-300 0,0 -300,0 -300,0 0,0 0,-409.56 0,-409.56 0,0 0,-842.45 0,-842.45 0,0 300,0 300,0 0,0 0,-300 0,-300 0,0 -300,0 -300,0 0,0 0,-397.19 0,-397.19 0,0 839.59,0 839.59,0 0,0 0,-300 0,-300 0,0 567.43,0 567.43,0 0,0 0,300 0,300 0,0 3685.96,0 3685.96,0 0,0 0,-300 0,-300 0,0 567.42,0 567.42,0 0,0 0,300 0,300 0,0 839.6,0 839.6,0 0,0 0,397.19 0,397.19 0,0 -300,0 -300,0 0,0 0,300 0,300 0,0 300,0 300,0 0,0 0,842.45 0,842.45 0,0 0,409.56 0,409.56 0,0 -300,0 -300,0 0,0 0,300 0,300 0,0 300,0 300,0 0,0 0,245.68 0,245.68 0,0 -264.41,596.74 -264.41,596.74 0,0 274.29,121.53 274.29,121.53 0,0 -162.04,365.71 -162.04,365.71 0,0 -274.29,-121.53 -274.29,-121.53 0,0 -2187.76,4937.61 -2187.76,4937.61 0,0 274.28,121.53 274.28,121.53 0,0 -162.04,365.71 -162.04,365.71 0,0 -274.28,-121.53 -274.28,-121.53 0,0 -473.75,1069.22 -473.75,1069.22 0,0 -473.75,-1069.22 -473.75,-1069.22 0,0 -274.28,121.53 -274.28,121.53 0,0 -162.04,-365.71 -162.04,-365.71 0,0 274.28,-121.53 274.28,-121.53 0,0 -2187.77,-4937.61 -2187.77,-4937.61z"/>
  <path class="fil0 str0" d="M11158.8 23250.99c0,0 -330,0 -330,0 0,0 0,-375.34 0,-375.34 0,0 330,0 330,0 0,0 0,375.34 0,375.34z"/>
  <path class="fil0 str0" d="M10668.8 23250.99c0,0 -330,0 -330,0 0,0 0,-375.34 0,-375.34 0,0 330,0 330,0 0,0 0,375.34 0,375.34z"/>
  <path class="fil0 str0" d="M10828.8 23410.99c0,0 330,0 330,0 0,0 0,163.61 0,163.61 -1.24,194.61 -139.12,361.54 -330,399.51 0,0 0,-563.12 0,-563.12z"/>
  <path class="fil0 str0" d="M10668.8 22299.92c0,0 0,415.73 0,415.73 0,0 -330,0 -330,0 0,0 0,-415.73 0,-415.73 0,0 330,0 330,0z"/>
  <path class="fil0 str0" d="M11158.8 22715.65c0,0 -330,0 -330,0 0,0 0,-415.73 0,-415.73 0,0 330,0 330,0 0,0 0,415.73 0,415.73z"/>
  <path class="fil0 str0" d="M10338.8 23410.99c0,0 330,0 330,0 0,0 0,563.12 0,563.12 -190.87,-37.97 -328.76,-204.9 -330,-399.51 0,0 0,-163.61 0,-163.61z"/>
  <path class="fil0 str0" d="M14354.76 22875.65c0,0 330,0 330,0 0,0 0,375.34 0,375.34 0,0 -330,0 -330,0 0,0 0,-375.34 0,-375.34z"/>
  <path class="fil0 str0" d="M13864.76 23250.99c0,0 0,-375.34 0,-375.34 0,0 330,0 330,0 0,0 0,375.34 0,375.34 0,0 -330,0 -330,0z"/>
  <path class="fil0 str0" d="M14354.76 22299.92c0,0 330,0 330,0 0,0 0,415.73 0,415.73 0,0 -330,0 -330,0 0,0 0,-415.73 0,-415.73z"/>
  <path class="fil0 str0" d="M13864.76 22715.65c0,0 0,-415.73 0,-415.73 0,0 330,0 330,0 0,0 0,415.73 0,415.73 0,0 -330,0 -330,0z"/>
  <path class="fil0 str0" d="M14354.76 23410.99c0,0 330,0 330,0 0,0 0,163.61 0,163.61 -1.25,194.61 -139.13,361.54 -330,399.51 0,0 0,-563.12 0,-563.12z"/>
  <path class="fil0 str0" d="M13864.76 23410.99c0,0 330,0 330,0 0,0 0,563.12 0,563.12 -190.88,-37.97 -328.76,-204.9 -330,-399.51 0,0 0,-163.61 0,-163.61z"/>
  <path class="fil0 str0" d="M12591.78 23079.38c0,0 330,0 330,0 0,0 0,375.34 0,375.34 0,0 -330,0 -330,0 0,0 0,-375.34 0,-375.34z"/>
  <path class="fil0 str0" d="M12101.78 23454.72c0,0 0,-375.34 0,-375.34 0,0 330,0 330,0 0,0 0,375.34 0,375.34 0,0 -330,0 -330,0z"/>
  <path class="fil0 str0" d="M12591.78 22503.66c0,0 330,0 330,0 0,0 0,415.72 0,415.72 0,0 -330,0 -330,0 0,0 0,-415.72 0,-415.72z"/>
  <path class="fil0 str0" d="M12101.78 22919.38c0,0 0,-415.72 0,-415.72 0,0 330,0 330,0 0,0 0,415.72 0,415.72 0,0 -330,0 -330,0z"/>
  <path class="fil0 str0" d="M12591.78 23614.72c0,0 330,0 330,0 0,0 0,163.62 0,163.62 -1.24,194.61 -139.13,361.53 -330,399.5 0,0 0,-563.12 0,-563.12z"/>
  <path class="fil0 str0" d="M12101.78 23614.72c0,0 330,0 330,0 0,0 0,563.12 0,563.12 -190.88,-37.97 -328.76,-204.89 -330,-399.5 0,0 0,-163.62 0,-163.62z"/>
  <path class="fil0 str0" d="M12591.78 27444.91c0,0 0,-375.34 0,-375.34 0,0 330,0 330,0 0,0 0,375.34 0,375.34 0,0 -330,0 -330,0z"/>
  <path class="fil0 str0" d="M12431.78 27444.91c0,0 -330,0 -330,0 0,0 0,-375.34 0,-375.34 0,0 330,0 330,0 0,0 0,375.34 0,375.34z"/>
  <path class="fil0 str0" d="M12591.78 26493.84c0,0 330,0 330,0 0,0 0,415.73 0,415.73 0,0 -330,0 -330,0 0,0 0,-415.73 0,-415.73z"/>
  <path class="fil0 str0" d="M12101.78 26909.57c0,0 0,-415.73 0,-415.73 0,0 330,0 330,0 0,0 0,415.73 0,415.73 0,0 -330,0 -330,0z"/>
  <path class="fil0 str0" d="M12591.78 27604.91c0,0 330,0 330,0 0,0 0,163.62 0,163.62 -1.24,194.61 -139.13,361.53 -330,399.5 0,0 0,-563.12 0,-563.12z"/>
  <path class="fil0 str0" d="M12101.78 27604.91c0,0 330,0 330,0 0,0 0,563.12 0,563.12 -190.88,-37.97 -328.76,-204.89 -330,-399.5 0,0 0,-163.62 0,-163.62z"/>
  <path class="fil0 str1" d="M12168.82 26218.89c0,0 707.76,0 707.76,0 0,0 0,-658.16 0,-658.16 0,0 -707.76,0 -707.76,0 0,0 0,658.16 0,658.16z"/>
  <path class="fil0 str1" d="M13021.78 26393.84c0,0 0,-998.98 0,-998.98 0,0 -1020,0 -1020,0 0,0 0,998.98 0,998.98"/>
  <path class="fil0 str1" d="M13021.78 27768.53c0,0 0,-1374.69 0,-1374.69 0,0 -1020,0 -1020,0 0,0 0,1374.69 0,1374.69 0,242.56 173.1,450.36 410.49,497.58 315.09,62.65 609.51,-173 609.51,-497.58z"/>
  <path class="fil0 str1" d="M12072.87 22202.17c0,0 866.51,0 866.51,0 0,0 0,-780.52 0,-780.52 0,0 -866.51,0 -866.51,0 0,0 0,780.52 0,780.52z"/>
  <path class="fil0 str1" d="M11901.78 21202.53c0,0 0,1101.13 0,1101.13 0,0 0,1474.68 0,1474.68 0,872.74 1220,811.45 1220,0 0,0 0,-1474.68 0,-1474.68 0,0 0,-1101.13 0,-1101.13"/>
  <path class="fil0 str1" d="M10238.8 23574.6c0,242.55 173.1,450.36 410.49,497.59 315.1,62.65 609.51,-173 609.51,-497.59 0,0 0,-1374.68 0,-1374.68 0,0 -1020,0 -1020,0 0,0 0,1374.68 0,1374.68z"/>
  <path class="fil0 str1" d="M14784.76 23574.6c0,0 0,-1374.68 0,-1374.68 0,0 -1020,0 -1020,0 0,0 0,1374.68 0,1374.68 0,242.56 173.1,450.37 410.49,497.59 315.09,62.65 609.51,-173.01 609.51,-497.59z"/>
  <path class="fil0 str1" d="M12611.29 24275.92c237.38,-47.22 410.49,-255.02 410.49,-497.58 0,0 0,-1374.68 0,-1374.68 0,0 -1020,0 -1020,0 0,0 0,1374.68 0,1374.68 0,242.56 173.1,450.36 410.49,497.58 66.34,11.39 132.69,10.67 199.02,0z"/>
  <path class="fil0 str0" d="M16362.31 3870.9c0,0 -5052.55,0 -5052.55,0 -221.73,315.28 -236.89,638.51 0,971.41 -312.85,486.76 -322.14,939.8 0,1356 -280.87,427.23 -318.88,875.86 0,1355.99 -327.93,505.18 -324.72,956.66 0,1355.99 -204.73,396.86 -253.95,835.61 0,1355.98 -156.86,327.64 -131.52,637.08 -23.73,938.26 0,0 1097.93,0 1097.93,0 0,0 0,300 0,300 0,0 400,0 400,0 0,0 0,-300 0,-300 0,0 3578.35,0 3578.35,0 0,0 2054.28,0 2054.28,0 0,0 0,300 0,300 0,0 400,0 400,0 0,0 0,-300 0,-300 0,0 1428.57,0 1428.57,0 0,0 0,-7333.63 0,-7333.63 0,0 -3882.85,0 -3882.85,0z"/>
  <path class="fil0 str0" d="M13275.1 4265.2c0,0 -400,0 -400,0 0,0 0,300 0,300 0,0 400,0 400,0 0,0 0,-300 0,-300z"/>
  <path class="fil0 str0" d="M13275.1 9965.2c0,0 -400,0 -400,0 0,0 0,300 0,300 0,0 400,0 400,0 0,0 0,-300 0,-300z"/>
  <path class="fil0 str0" d="M19075.69 9965.2c0,0 -400,0 -400,0 0,0 0,300 0,300 0,0 400,0 400,0 0,0 0,-300 0,-300z"/>
  <path class="fil0 str0" d="M19075.69 4265.2c0,0 -400,0 -400,0 0,0 0,300 0,300 0,0 400,0 400,0 0,0 0,-300 0,-300z"/>
  <path class="fil0 str0" d="M14219.44 10965.2c0,0 540.2,0 540.2,0 0,0 0,-300 0,-300 0,0 -540.2,0 -540.2,0 0,0 0,300 0,300z"/>
  <path class="fil0 str1" d="M13003.09 3870.9c-221.73,315.28 -236.89,638.51 0,971.41 -312.85,486.76 -322.14,939.8 0,1356 -280.87,427.23 -318.88,875.86 0,1355.99 -327.93,505.18 -324.72,956.66 0,1355.99 -204.73,396.86 -253.95,835.61 0,1355.98 -156.86,327.64 -131.52,637.08 -23.73,938.26"/>
  <path class="fil0 str1" d="M14828.72 3870.9c-221.73,315.28 -236.89,638.51 0,971.41 -312.85,486.76 -322.14,939.8 0,1356 -280.87,427.23 -318.88,875.86 0,1355.99 -327.93,505.18 -324.72,956.66 0,1355.99 -204.73,396.86 -253.95,835.61 0,1355.98 -156.86,327.64 -131.52,637.08 -23.73,938.26"/>
  <path class="fil0 str1" d="M16680.8 3870.9c-221.73,315.28 -236.89,638.51 0,971.41 -312.85,486.76 -322.14,939.8 0,1356 -280.87,427.23 -318.88,875.86 0,1355.99 -327.93,505.18 -324.72,956.66 0,1355.99 -204.73,396.86 -253.95,835.61 0,1355.98 -156.86,327.64 -131.52,637.08 -23.73,938.26"/>
  <path class="fil0 str1" d="M18440.32 3870.9c-221.73,315.28 -236.89,638.51 0,971.41 -312.85,486.76 -322.14,939.8 0,1356 -280.87,427.23 -318.88,875.86 0,1355.99 -327.93,505.18 -324.72,956.66 0,1355.99 -204.73,396.86 -253.95,835.61 0,1355.98 -156.86,327.64 -131.52,637.08 -23.73,938.26"/>
  <path class="fil0 str1" d="M20245.16 10266.27c0,0 -8935.4,0 -8935.4,0"/>
  <path class="fil0 str1" d="M20245.16 8910.29c-2978.47,0 -5956.94,0 -8935.4,0"/>
  <path class="fil0 str1" d="M20245.16 7554.3c-2978.47,0 -5956.94,0 -8935.4,0"/>
  <path class="fil0 str1" d="M20245.16 6198.31c-2978.47,0 -5956.94,0 -8935.4,0"/>
  <path class="fil0 str1" d="M20245.16 4842.31c0,0 -8935.4,0 -8935.4,0"/>
  <path class="fil0 str0" d="M5374.52 5357.88c0,0 0,3516.37 0,3516.37 0,0 3955.91,0 3955.91,0 0,0 0,-3516.37 0,-3516.37 0,0 -3955.91,0 -3955.91,0z"/>
  <path class="fil0 str0" d="M4164.5 7900.36c0,0 300,0 300,0 0,0 0,-1425.26 0,-1425.26 0,0 -300,0 -300,0 0,0 0,1425.26 0,1425.26z"/>
  <path class="fil0 str0" d="M5004.09 4187.73c0,0 0,300 0,300 0,0 567.43,0 567.43,0 0,0 0,-300 0,-300 0,0 -567.43,0 -567.43,0z"/>
  <path class="fil0 str0" d="M9257.48 4187.73c0,0 0,300 0,300 0,0 567.42,0 567.42,0 0,0 0,-300 0,-300 0,0 -567.42,0 -567.42,0z"/>
  <path class="fil0 str0" d="M10664.5 6475.1c0,0 -300,0 -300,0 0,0 0,1425.26 0,1425.26 0,0 300,0 300,0 0,0 0,-1425.26 0,-1425.26z"/>
  <path class="fil0 str0" d="M9257.48 9887.73c0,0 0,300 0,300 0,0 567.42,0 567.42,0 0,0 0,-300 0,-300 0,0 -567.42,0 -567.42,0z"/>
  <path class="fil0 str0" d="M5004.09 9887.73c0,0 0,300 0,300 0,0 567.43,0 567.43,0 0,0 0,-300 0,-300 0,0 -567.43,0 -567.43,0z"/>
  <path class="fil0 str0" d="M4115.96 3837.73c0,0 6597.08,0 6597.08,0 165.82,0 301.46,135.65 301.46,301.46 0,0 0,6097.08 0,6097.08 0,165.81 -135.64,301.46 -301.46,301.46 0,0 -6597.08,0 -6597.08,0 -165.81,0 -301.46,-135.65 -301.46,-301.46 0,0 0,-6097.08 0,-6097.08 0,-165.81 135.65,-301.46 301.46,-301.46z"/>
  <path class="fil0 str0" d="M3817.22 14524.67c0,0 0,5052.55 0,5052.55 315.28,221.73 638.51,236.89 971.41,0 486.76,312.85 939.8,322.14 1356,0 427.23,280.87 875.86,318.88 1355.99,0 505.18,327.93 956.66,324.72 1355.99,0 396.86,204.73 835.61,253.95 1355.98,0 327.64,156.86 637.08,131.52 938.26,23.73 0,0 0,-1097.93 0,-1097.93 0,0 300,0 300,0 0,0 0,-400 0,-400 0,0 -300,0 -300,0 0,0 0,-3578.35 0,-3578.35 0,0 0,-2054.28 0,-2054.28 0,0 300,0 300,0 0,0 0,-400 0,-400 0,0 -300,0 -300,0 0,0 0,-1428.57 0,-1428.57 0,0 -7333.63,0 -7333.63,0 0,0 0,3882.85 0,3882.85z"/>
  <path class="fil0 str0" d="M4211.52 17611.88c0,0 0,400 0,400 0,0 300,0 300,0 0,0 0,-400 0,-400 0,0 -300,0 -300,0z"/>
  <path class="fil0 str0" d="M9911.52 17611.88c0,0 0,400 0,400 0,0 300,0 300,0 0,0 0,-400 0,-400 0,0 -300,0 -300,0z"/>
  <path class="fil0 str0" d="M9911.52 11811.29c0,0 0,400 0,400 0,0 300,0 300,0 0,0 0,-400 0,-400 0,0 -300,0 -300,0z"/>
  <path class="fil0 str0" d="M4211.52 11811.29c0,0 0,400 0,400 0,0 300,0 300,0 0,0 0,-400 0,-400 0,0 -300,0 -300,0z"/>
  <path class="fil0 str0" d="M10911.52 16667.54c0,0 0,-540.2 0,-540.2 0,0 -300,0 -300,0 0,0 0,540.2 0,540.2 0,0 300,0 300,0z"/>
  <path class="fil0 str1" d="M3817.22 17883.89c315.28,221.73 638.51,236.89 971.41,0 486.76,312.85 939.8,322.14 1356,0 427.23,280.87 875.86,318.88 1355.99,0 505.18,327.93 956.66,324.72 1355.99,0 396.86,204.73 835.61,253.95 1355.98,0 327.64,156.86 637.08,131.52 938.26,23.73"/>
  <path class="fil0 str1" d="M3817.22 16058.26c315.28,221.73 638.51,236.89 971.41,0 486.76,312.85 939.8,322.14 1356,0 427.23,280.87 875.86,318.88 1355.99,0 505.18,327.93 956.66,324.72 1355.99,0 396.86,204.73 835.61,253.95 1355.98,0 327.64,156.86 637.08,131.52 938.26,23.73"/>
  <path class="fil0 str1" d="M3817.22 14206.18c315.28,221.73 638.51,236.89 971.41,0 486.76,312.85 939.8,322.14 1356,0 427.23,280.87 875.86,318.88 1355.99,0 505.18,327.93 956.66,324.72 1355.99,0 396.86,204.73 835.61,253.95 1355.98,0 327.64,156.86 637.08,131.52 938.26,23.73"/>
  <path class="fil0 str1" d="M3817.22 12446.66c315.28,221.73 638.51,236.89 971.41,0 486.76,312.85 939.8,322.14 1356,0 427.23,280.87 875.86,318.88 1355.99,0 505.18,327.93 956.66,324.72 1355.99,0 396.86,204.73 835.61,253.95 1355.98,0 327.64,156.86 637.08,131.52 938.26,23.73"/>
  <path class="fil0 str1" d="M10212.59 10641.82c0,0 0,8935.4 0,8935.4"/>
  <path class="fil0 str1" d="M8856.61 10641.82c0,2978.47 0,5956.94 0,8935.4"/>
  <path class="fil0 str1" d="M7500.62 10641.82c0,2978.47 0,5956.94 0,8935.4"/>
  <path class="fil0 str1" d="M6144.63 10641.82c0,2978.47 0,5956.94 0,8935.4"/>
  <path class="fil0 str1" d="M4788.63 10641.82c0,0 0,8935.4 0,8935.4"/>
 </g>
</svg>
