<?xml version="1.0" encoding="utf-8"?>
<!-- Generator: Adobe Illustrator 19.0.0, SVG Export Plug-In . SVG Version: 6.00 Build 0)  -->
<svg version="1.1" baseProfile="basic" id="Default"
	 xmlns="http://www.w3.org/2000/svg" xmlns:xlink="http://www.w3.org/1999/xlink" x="0px" y="0px" width="651.969px"
	 height="510.236px" viewBox="0 0 651.969 510.236" xml:space="preserve">
<style type="text/css">
	.st0{fill:#FFFFFF;stroke:#000000;stroke-width:0.7087;stroke-linecap:round;stroke-linejoin:round;stroke-miterlimit:10;}
</style>
<path class="st0" d="M623.028,201.473c5.479,0.007,9.927-4.429,9.934-9.909c0.007-5.479-4.429-9.927-9.909-9.934
	c-17.712-0.023-34.417,8.234-45.157,22.318c-5.151,6.755-12.48,11.52-20.743,13.488c0,0,0,10.94,0,10.94h-17.008v-10.93
	c-8.291-1.964-15.643-6.744-20.803-13.523c-8.918-11.717-22.045-19.505-36.604-21.714c0,0,0,9.28,0,9.28H465.73v-9.217
	c-14.544,2.206-27.661,9.979-36.58,21.677c-5.167,6.777-12.523,11.553-20.816,13.516c0,0,0,10.912,0,10.912h-17.008v-10.92
	c-8.291-1.97-15.642-6.753-20.803-13.534c-8.918-11.717-22.045-19.505-36.604-21.714c0,0,0,9.28,0,9.28h-17.008v-9.217
	c-14.544,2.206-27.661,9.979-36.58,21.677c-5.167,6.777-12.523,11.553-20.816,13.515c0,0,0,10.912,0,10.912h-17.008v-10.92
	c-8.291-1.97-15.642-6.753-20.803-13.534c-8.918-11.717-22.045-19.505-36.604-21.714c0,0,0,9.28,0,9.28h-17.008v-9.217
	c-14.544,2.206-27.661,9.979-36.58,21.677c-5.167,6.777-12.523,11.553-20.816,13.515c0,0,0,10.912,0,10.912H93.688v-10.92
	c-8.291-1.97-15.642-6.753-20.803-13.534c-10.721-14.086-27.406-22.355-45.108-22.355c-5.498,0-9.954,4.457-9.954,9.954
	c0,5.498,4.457,9.954,9.954,9.954c11.501-0.002,22.344,5.367,29.314,14.515c18.975,24.906,54.548,29.713,79.454,10.738
	c4.045-3.081,7.656-6.693,10.738-10.738c6.97-9.149,17.812-14.519,29.314-14.519l0,0.003c11.501-0.002,22.344,5.367,29.314,14.515
	c18.975,24.906,54.548,29.713,79.454,10.738c4.045-3.081,7.656-6.693,10.738-10.738c6.97-9.149,17.812-14.519,29.314-14.519l0,0.003
	c11.501-0.002,22.344,5.367,29.314,14.515c18.975,24.906,54.548,29.713,79.454,10.738c4.045-3.081,7.656-6.693,10.738-10.738
	c6.97-9.149,17.813-14.519,29.314-14.519l0,0.003c11.501-0.002,22.344,5.367,29.314,14.515
	c18.975,24.906,54.548,29.713,79.454,10.738c4.045-3.081,7.656-6.693,10.738-10.738c6.97-9.149,17.813-14.519,29.314-14.519"/>
<path class="st0" d="M178.487,272.505c-17.687,0-34.36,8.254-45.084,22.318c-2.005,2.629-4.354,4.977-6.986,6.979
	c-16.195,12.326-39.316,9.189-51.641-7.006c-10.721-14.086-27.406-22.355-45.108-22.355c-5.498,0-9.954,4.457-9.954,9.954
	c0,5.498,4.457,9.954,9.954,9.954c11.501-0.002,22.344,5.367,29.314,14.515c8.919,11.707,22.041,19.486,36.592,21.694
	c0,0,0-9.28,0-9.28h17.008v9.28c14.551-2.207,27.673-9.987,36.592-21.693c5.164-6.778,12.518-11.558,20.81-13.524
	c0,0,0-10.916,0-10.916h17.008v10.917c8.292,1.965,15.646,6.744,20.81,13.522c8.919,11.707,22.041,19.486,36.592,21.694
	c0,0,0-9.28,0-9.28h17.008v9.28c14.551-2.207,27.673-9.987,36.592-21.693c5.164-6.778,12.518-11.558,20.81-13.524
	c0,0,0-10.913,0-10.913h17.008v10.914c8.292,1.965,15.646,6.744,20.81,13.522c8.919,11.707,22.041,19.486,36.592,21.694
	c0,0,0-9.28,0-9.28h17.008v9.28c14.551-2.207,27.673-9.987,36.592-21.693c5.164-6.778,12.518-11.558,20.81-13.524
	c0,0,0-10.913,0-10.913h17.008v10.914c8.292,1.965,15.646,6.744,20.81,13.522c8.919,11.707,22.041,19.486,36.592,21.694v-9.28
	h17.008c0,0,0,9.28,0,9.28c14.551-2.207,27.673-9.987,36.592-21.693c6.97-9.149,17.812-14.519,29.314-14.519h-0.025
	c5.479,0.014,9.933-4.416,9.947-9.896c0.014-5.479-4.417-9.933-9.896-9.947c-0.008,0-0.017,0-0.025,0
	c-17.687,0-34.36,8.254-45.084,22.318c-2.005,2.629-4.354,4.977-6.986,6.979c-16.195,12.326-39.316,9.189-51.641-7.006
	c-10.721-14.086-27.406-22.355-45.108-22.355l0,0.063c-17.687,0-34.36,8.254-45.084,22.318c-2.005,2.629-4.354,4.977-6.986,6.979
	c-16.195,12.326-39.316,9.189-51.641-7.006c-10.721-14.086-27.406-22.355-45.108-22.355l0,0.063
	c-17.687,0-34.36,8.254-45.084,22.318c-2.005,2.629-4.354,4.977-6.986,6.979c-16.195,12.326-39.316,9.189-51.641-7.006
	c-10.721-14.086-27.406-22.355-45.108-22.355"/>
</svg>
