  0
SECTION
  2
HEADER
  9
$ACADVER
  1
AC1009
  0
ENDSEC
  0
SECTION
  2
ENTITIES
  0
POLYLINE
  5
90
  8
Layer_2
  62
1
  70
1
  66
1
  10
0
  20
0
  30
0
  0
VERTEX
  5
90
  8
Layer_2
  10
253.89001
  20
185.9749
  0
VERTEX
  5
91
  8
Layer_2
  10
253.89001
  20
135.1749
  0
VERTEX
  5
92
  8
Layer_2
  10
245.00003
  20
135.1749
  0
VERTEX
  5
93
  8
Layer_2
  10
245.00003
  20
131.99991
  0
VERTEX
  5
94
  8
Layer_2
  10
237.38002
  20
131.99991
  0
VERTEX
  5
95
  8
Layer_2
  10
237.38002
  20
135.1749
  0
VERTEX
  5
96
  8
Layer_2
  10
211.98003
  20
135.1749
  0
VERTEX
  5
97
  8
Layer_2
  10
211.98003
  20
131.99991
  0
VERTEX
  5
98
  8
Layer_2
  10
204.36002
  20
131.99991
  0
VERTEX
  5
99
  8
Layer_2
  10
204.36002
  20
135.1749
  0
VERTEX
  5
9a
  8
Layer_2
  10
178.96004
  20
135.1749
  0
VERTEX
  5
9b
  8
Layer_2
  10
178.96004
  20
131.99991
  0
VERTEX
  5
9c
  8
Layer_2
  10
171.34003
  20
131.99991
  0
VERTEX
  5
9d
  8
Layer_2
  10
171.34003
  20
135.1749
  0
VERTEX
  5
9e
  8
Layer_2
  10
158.64003
  20
135.1749
  0
VERTEX
  5
9f
  8
Layer_2
  10
158.64003
  20
131.99991
  0
VERTEX
  5
a0
  8
Layer_2
  10
151.02002
  20
131.99991
  0
VERTEX
  5
a1
  8
Layer_2
  10
151.02002
  20
135.1749
  0
VERTEX
  5
a2
  8
Layer_2
  10
144.44684
  20
135.1749
  0
VERTEX
  5
a3
  8
Layer_2
  10
144.44684
  20
185.9749
  0
VERTEX
  5
a4
  8
Layer_2
  10
151.02002
  20
185.9749
  0
VERTEX
  5
a5
  8
Layer_2
  10
151.02002
  20
189.1499
  0
VERTEX
  5
a6
  8
Layer_2
  10
158.64003
  20
189.1499
  0
VERTEX
  5
a7
  8
Layer_2
  10
158.64003
  20
185.9749
  0
VERTEX
  5
a8
  8
Layer_2
  10
171.34003
  20
185.9749
  0
VERTEX
  5
a9
  8
Layer_2
  10
171.34003
  20
189.1499
  0
VERTEX
  5
aa
  8
Layer_2
  10
178.96004
  20
189.1499
  0
VERTEX
  5
ab
  8
Layer_2
  10
178.96004
  20
185.9749
  0
VERTEX
  5
ac
  8
Layer_2
  10
204.36002
  20
185.9749
  0
VERTEX
  5
ad
  8
Layer_2
  10
204.36002
  20
189.1499
  0
VERTEX
  5
ae
  8
Layer_2
  10
211.98003
  20
189.1499
  0
VERTEX
  5
af
  8
Layer_2
  10
211.98003
  20
185.9749
  0
VERTEX
  5
b0
  8
Layer_2
  10
237.38004
  20
185.9749
  0
VERTEX
  5
b1
  8
Layer_2
  10
237.38004
  20
189.1499
  0
VERTEX
  5
b2
  8
Layer_2
  10
245.00003
  20
189.1499
  0
VERTEX
  5
b3
  8
Layer_2
  10
245.00003
  20
185.9749
  0
VERTEX
  5
b4
  8
Layer_2
  10
253.89001
  20
185.9749
  0
SEQEND
  0
POLYLINE
  5
b6
  8
Layer_2
  62
1
  70
1
  66
1
  10
0
  20
0
  30
0
  0
VERTEX
  5
b6
  8
Layer_2
  10
81.24971
  20
127.03549
  0
VERTEX
  5
b7
  8
Layer_2
  10
74.89978
  20
127.03549
  0
VERTEX
  5
b8
  8
Layer_2
  10
74.899796
  20
177.83549
  0
VERTEX
  5
b9
  8
Layer_2
  10
81.249725
  20
177.83549
  0
VERTEX
  5
ba
  8
Layer_2
  10
81.249725
  20
181.0105
  0
VERTEX
  5
bb
  8
Layer_2
  10
88.869736
  20
181.0105
  0
VERTEX
  5
bc
  8
Layer_2
  10
88.869736
  20
177.83549
  0
VERTEX
  5
bd
  8
Layer_2
  10
102.19673
  20
177.83548
  0
VERTEX
  5
be
  8
Layer_2
  10
102.19673
  20
181.01048
  0
VERTEX
  5
bf
  8
Layer_2
  10
109.81674
  20
181.01048
  0
VERTEX
  5
c0
  8
Layer_2
  10
109.81674
  20
177.83548
  0
VERTEX
  5
c1
  8
Layer_2
  10
116.16673
  20
177.83548
  0
VERTEX
  5
c2
  8
Layer_2
  10
116.16673
  20
127.03546
  0
VERTEX
  5
c3
  8
Layer_2
  10
109.81673
  20
127.03549
  0
VERTEX
  5
c4
  8
Layer_2
  10
109.81673
  20
123.86047
  0
VERTEX
  5
c5
  8
Layer_2
  10
102.19672
  20
123.86047
  0
VERTEX
  5
c6
  8
Layer_2
  10
102.19672
  20
127.03549
  0
VERTEX
  5
c7
  8
Layer_2
  10
88.86972
  20
127.03549
  0
VERTEX
  5
c8
  8
Layer_2
  10
88.86972
  20
123.86047
  0
VERTEX
  5
c9
  8
Layer_2
  10
81.24971
  20
123.86047
  0
VERTEX
  5
ca
  8
Layer_2
  10
81.24971
  20
127.03549
  0
SEQEND
  0
POLYLINE
  5
cc
  8
Layer_2
  62
1
  70
1
  66
1
  10
0
  20
0
  30
0
  0
VERTEX
  5
cc
  8
Layer_2
  10
16.166122
  20
173.57047
  0
VERTEX
  5
cd
  8
Layer_2
  10
16.166122
  20
179.92047
  0
VERTEX
  5
ce
  8
Layer_2
  10
66.966164
  20
179.92046
  0
VERTEX
  5
cf
  8
Layer_2
  10
66.966156
  20
173.57045
  0
VERTEX
  5
d0
  8
Layer_2
  10
70.141144
  20
173.57045
  0
VERTEX
  5
d1
  8
Layer_2
  10
70.141144
  20
165.95045
  0
VERTEX
  5
d2
  8
Layer_2
  10
66.966156
  20
165.95045
  0
VERTEX
  5
d3
  8
Layer_2
  10
66.966156
  20
151.63586
  0
VERTEX
  5
d4
  8
Layer_2
  10
70.141144
  20
151.63586
  0
VERTEX
  5
d5
  8
Layer_2
  10
70.141136
  20
144.01585
  0
VERTEX
  5
d6
  8
Layer_2
  10
66.966148
  20
144.01585
  0
VERTEX
  5
d7
  8
Layer_2
  10
66.966148
  20
137.66583
  0
VERTEX
  5
d8
  8
Layer_2
  10
16.166122
  20
137.66586
  0
VERTEX
  5
d9
  8
Layer_2
  10
16.166122
  20
144.01587
  0
VERTEX
  5
da
  8
Layer_2
  10
12.991135
  20
144.01587
  0
VERTEX
  5
db
  8
Layer_2
  10
12.991135
  20
151.63588
  0
VERTEX
  5
dc
  8
Layer_2
  10
16.166122
  20
151.63588
  0
VERTEX
  5
dd
  8
Layer_2
  10
16.166122
  20
165.95047
  0
VERTEX
  5
de
  8
Layer_2
  10
12.991135
  20
165.95047
  0
VERTEX
  5
df
  8
Layer_2
  10
12.991135
  20
173.57047
  0
VERTEX
  5
e0
  8
Layer_2
  10
16.166122
  20
173.57047
  0
SEQEND
  0
POLYLINE
  5
e2
  8
Layer_2
  62
1
  70
1
  66
1
  10
0
  20
0
  30
0
  0
VERTEX
  5
e2
  8
Layer_2
  10
74.999619
  20
115.49744
  0
VERTEX
  5
e3
  8
Layer_2
  10
81.349625
  20
115.49744
  0
VERTEX
  5
e4
  8
Layer_2
  10
81.349625
  20
118.67242
  0
VERTEX
  5
e5
  8
Layer_2
  10
88.96962
  20
118.67242
  0
VERTEX
  5
e6
  8
Layer_2
  10
88.96962
  20
115.49744
  0
VERTEX
  5
e7
  8
Layer_2
  10
102.29662
  20
115.49744
  0
VERTEX
  5
e8
  8
Layer_2
  10
102.29662
  20
118.67242
  0
VERTEX
  5
e9
  8
Layer_2
  10
109.91661
  20
118.67242
  0
VERTEX
  5
ea
  8
Layer_2
  10
109.91661
  20
115.49744
  0
VERTEX
  5
eb
  8
Layer_2
  10
116.26662
  20
115.49744
  0
VERTEX
  5
ec
  8
Layer_2
  10
116.2666
  20
64.697449
  0
VERTEX
  5
ed
  8
Layer_2
  10
109.9166
  20
64.697449
  0
VERTEX
  5
ee
  8
Layer_2
  10
109.9166
  20
61.522461
  0
VERTEX
  5
ef
  8
Layer_2
  10
102.2966
  20
61.522461
  0
VERTEX
  5
f0
  8
Layer_2
  10
102.2966
  20
64.697449
  0
VERTEX
  5
f1
  8
Layer_2
  10
88.969604
  20
64.697449
  0
VERTEX
  5
f2
  8
Layer_2
  10
88.969604
  20
61.522461
  0
VERTEX
  5
f3
  8
Layer_2
  10
81.349609
  20
61.522461
  0
VERTEX
  5
f4
  8
Layer_2
  10
81.349609
  20
64.697449
  0
VERTEX
  5
f5
  8
Layer_2
  10
74.999603
  20
64.697449
  0
VERTEX
  5
f6
  8
Layer_2
  10
74.999619
  20
115.49744
  0
SEQEND
  0
POLYLINE
  5
f8
  8
Layer_2
  62
1
  70
1
  66
1
  10
0
  20
0
  30
0
  0
VERTEX
  5
f8
  8
Layer_2
  10
235.10579
  20
50.698883
  0
VERTEX
  5
f9
  8
Layer_2
  10
233.6736
  20
50.698883
  0
VERTEX
  5
fa
  8
Layer_2
  10
233.45517
  20
50.986847
  0
VERTEX
  5
fb
  8
Layer_2
  10
233.21707
  20
51.253052
  0
VERTEX
  5
fc
  8
Layer_2
  10
232.96088
  20
51.496979
  0
VERTEX
  5
fd
  8
Layer_2
  10
232.68816
  20
51.718079
  0
VERTEX
  5
fe
  8
Layer_2
  10
232.40048
  20
51.915863
  0
VERTEX
  5
ff
  8
Layer_2
  10
232.0994
  20
52.089752
  0
VERTEX
  5
100
  8
Layer_2
  10
231.7865
  20
52.239258
  0
VERTEX
  5
101
  8
Layer_2
  10
231.46332
  20
52.363739
  0
VERTEX
  5
102
  8
Layer_2
  10
231.13144
  20
52.462769
  0
VERTEX
  5
103
  8
Layer_2
  10
230.79245
  20
52.535767
  0
VERTEX
  5
104
  8
Layer_2
  10
230.44788
  20
52.582214
  0
VERTEX
  5
105
  8
Layer_2
  10
230.09932
  20
52.601624
  0
VERTEX
  5
106
  8
Layer_2
  10
229.74832
  20
52.593384
  0
VERTEX
  5
107
  8
Layer_2
  10
229.39645
  20
52.557007
  0
VERTEX
  5
108
  8
Layer_2
  10
229.04529
  20
52.491882
  0
VERTEX
  5
109
  8
Layer_2
  10
228.6964
  20
52.397583
  0
VERTEX
  5
10a
  8
Layer_2
  10
228.35626
  20
52.275391
  0
VERTEX
  5
10b
  8
Layer_2
  10
228.03096
  20
52.12796
  0
VERTEX
  5
10c
  8
Layer_2
  10
227.7215
  20
51.956573
  0
VERTEX
  5
10d
  8
Layer_2
  10
227.42885
  20
51.762573
  0
VERTEX
  5
10e
  8
Layer_2
  10
227.15399
  20
51.547302
  0
VERTEX
  5
10f
  8
Layer_2
  10
226.89792
  20
51.312134
  0
VERTEX
  5
110
  8
Layer_2
  10
226.66159
  20
51.05835
  0
VERTEX
  5
111
  8
Layer_2
  10
226.44601
  20
50.787292
  0
VERTEX
  5
112
  8
Layer_2
  10
226.25214
  20
50.500305
  0
VERTEX
  5
113
  8
Layer_2
  10
226.08095
  20
50.19873
  0
VERTEX
  5
114
  8
Layer_2
  10
225.93343
  20
49.883911
  0
VERTEX
  5
115
  8
Layer_2
  10
225.81055
  20
49.557129
  0
VERTEX
  5
116
  8
Layer_2
  10
225.71329
  20
49.219757
  0
VERTEX
  5
117
  8
Layer_2
  10
225.64265
  20
48.873138
  0
VERTEX
  5
118
  8
Layer_2
  10
225.59959
  20
48.518616
  0
VERTEX
  5
119
  8
Layer_2
  10
225.5851
  20
48.157471
  0
VERTEX
  5
11a
  8
Layer_2
  10
225.59982
  20
47.796326
  0
VERTEX
  5
11b
  8
Layer_2
  10
225.64311
  20
47.441833
  0
VERTEX
  5
11c
  8
Layer_2
  10
225.71399
  20
47.095245
  0
VERTEX
  5
11d
  8
Layer_2
  10
225.81143
  20
46.757965
  0
VERTEX
  5
11e
  8
Layer_2
  10
225.93451
  20
46.431274
  0
VERTEX
  5
11f
  8
Layer_2
  10
226.08221
  20
46.116516
  0
VERTEX
  5
120
  8
Layer_2
  10
226.2536
  20
45.815063
  0
VERTEX
  5
121
  8
Layer_2
  10
226.44765
  20
45.528198
  0
VERTEX
  5
122
  8
Layer_2
  10
226.66339
  20
45.257294
  0
VERTEX
  5
123
  8
Layer_2
  10
226.89987
  20
45.003662
  0
VERTEX
  5
124
  8
Layer_2
  10
227.15608
  20
44.768646
  0
VERTEX
  5
125
  8
Layer_2
  10
227.43106
  20
44.553528
  0
VERTEX
  5
126
  8
Layer_2
  10
227.72382
  20
44.359711
  0
VERTEX
  5
127
  8
Layer_2
  10
228.03339
  20
44.188507
  0
VERTEX
  5
128
  8
Layer_2
  10
228.35876
  20
44.04126
  0
VERTEX
  5
129
  8
Layer_2
  10
228.69899
  20
43.919281
  0
VERTEX
  5
12a
  8
Layer_2
  10
229.04794
  20
43.825195
  0
VERTEX
  5
12b
  8
Layer_2
  10
229.39911
  20
43.760254
  0
VERTEX
  5
12c
  8
Layer_2
  10
229.75092
  20
43.723938
  0
VERTEX
  5
12d
  8
Layer_2
  10
230.10184
  20
43.71579
  0
VERTEX
  5
12e
  8
Layer_2
  10
230.45026
  20
43.735229
  0
VERTEX
  5
12f
  8
Layer_2
  10
230.79468
  20
43.781738
  0
VERTEX
  5
130
  8
Layer_2
  10
231.13348
  20
43.854736
  0
VERTEX
  5
131
  8
Layer_2
  10
231.46515
  20
43.953766
  0
VERTEX
  5
132
  8
Layer_2
  10
231.78809
  20
44.078247
  0
VERTEX
  5
133
  8
Layer_2
  10
232.10077
  20
44.227722
  0
VERTEX
  5
134
  8
Layer_2
  10
232.4016
  20
44.401642
  0
VERTEX
  5
135
  8
Layer_2
  10
232.68903
  20
44.599426
  0
VERTEX
  5
136
  8
Layer_2
  10
232.96152
  20
44.820587
  0
VERTEX
  5
137
  8
Layer_2
  10
233.21747
  20
45.064545
  0
VERTEX
  5
138
  8
Layer_2
  10
233.45535
  20
45.330811
  0
VERTEX
  5
139
  8
Layer_2
  10
233.6736
  20
45.618896
  0
VERTEX
  5
13a
  8
Layer_2
  10
235.10579
  20
45.618896
  0
VERTEX
  5
13b
  8
Layer_2
  10
235.44226
  20
45.641235
  0
VERTEX
  5
13c
  8
Layer_2
  10
235.76854
  20
45.706818
  0
VERTEX
  5
13d
  8
Layer_2
  10
236.08095
  20
45.813507
  0
VERTEX
  5
13e
  8
Layer_2
  10
236.37581
  20
45.959198
  0
VERTEX
  5
13f
  8
Layer_2
  10
236.6494
  20
46.141724
  0
VERTEX
  5
140
  8
Layer_2
  10
236.89801
  20
46.358948
  0
VERTEX
  5
141
  8
Layer_2
  10
237.11795
  20
46.608704
  0
VERTEX
  5
142
  8
Layer_2
  10
237.3055
  20
46.888885
  0
VERTEX
  5
143
  8
Layer_2
  10
237.45438
  20
47.191406
  0
VERTEX
  5
144
  8
Layer_2
  10
237.56071
  20
47.506775
  0
VERTEX
  5
145
  8
Layer_2
  10
237.62453
  20
47.830688
  0
VERTEX
  5
146
  8
Layer_2
  10
237.6458
  20
48.158875
  0
VERTEX
  5
147
  8
Layer_2
  10
237.62453
  20
48.487061
  0
VERTEX
  5
148
  8
Layer_2
  10
237.56071
  20
48.810974
  0
VERTEX
  5
149
  8
Layer_2
  10
237.45438
  20
49.126343
  0
VERTEX
  5
14a
  8
Layer_2
  10
237.3055
  20
49.428894
  0
VERTEX
  5
14b
  8
Layer_2
  10
237.11795
  20
49.709106
  0
VERTEX
  5
14c
  8
Layer_2
  10
236.89801
  20
49.958862
  0
VERTEX
  5
14d
  8
Layer_2
  10
236.6494
  20
50.176086
  0
VERTEX
  5
14e
  8
Layer_2
  10
236.37581
  20
50.358582
  0
VERTEX
  5
14f
  8
Layer_2
  10
236.08095
  20
50.504272
  0
VERTEX
  5
150
  8
Layer_2
  10
235.76854
  20
50.610962
  0
VERTEX
  5
151
  8
Layer_2
  10
235.44226
  20
50.676575
  0
VERTEX
  5
152
  8
Layer_2
  10
235.10579
  20
50.698883
  0
SEQEND
  0
POLYLINE
  5
154
  8
Layer_2
  62
1
  70
1
  66
1
  10
0
  20
0
  30
0
  0
VERTEX
  5
154
  8
Layer_2
  10
235.10579
  20
20.218872
  0
VERTEX
  5
155
  8
Layer_2
  10
233.6736
  20
20.218872
  0
VERTEX
  5
156
  8
Layer_2
  10
233.45517
  20
20.506836
  0
VERTEX
  5
157
  8
Layer_2
  10
233.21707
  20
20.773041
  0
VERTEX
  5
158
  8
Layer_2
  10
232.96088
  20
21.016968
  0
VERTEX
  5
159
  8
Layer_2
  10
232.68816
  20
21.238098
  0
VERTEX
  5
15a
  8
Layer_2
  10
232.40048
  20
21.435852
  0
VERTEX
  5
15b
  8
Layer_2
  10
232.0994
  20
21.609741
  0
VERTEX
  5
15c
  8
Layer_2
  10
231.7865
  20
21.759216
  0
VERTEX
  5
15d
  8
Layer_2
  10
231.46332
  20
21.883728
  0
VERTEX
  5
15e
  8
Layer_2
  10
231.13144
  20
21.982788
  0
VERTEX
  5
15f
  8
Layer_2
  10
230.79245
  20
22.055786
  0
VERTEX
  5
160
  8
Layer_2
  10
230.44788
  20
22.102234
  0
VERTEX
  5
161
  8
Layer_2
  10
230.09932
  20
22.121643
  0
VERTEX
  5
162
  8
Layer_2
  10
229.74832
  20
22.113403
  0
VERTEX
  5
163
  8
Layer_2
  10
229.39645
  20
22.076996
  0
VERTEX
  5
164
  8
Layer_2
  10
229.04529
  20
22.011902
  0
VERTEX
  5
165
  8
Layer_2
  10
228.6964
  20
21.917572
  0
VERTEX
  5
166
  8
Layer_2
  10
228.35626
  20
21.79541
  0
VERTEX
  5
167
  8
Layer_2
  10
228.03096
  20
21.647949
  0
VERTEX
  5
168
  8
Layer_2
  10
227.7215
  20
21.476563
  0
VERTEX
  5
169
  8
Layer_2
  10
227.42885
  20
21.282593
  0
VERTEX
  5
16a
  8
Layer_2
  10
227.15399
  20
21.067322
  0
VERTEX
  5
16b
  8
Layer_2
  10
226.89792
  20
20.832153
  0
VERTEX
  5
16c
  8
Layer_2
  10
226.66159
  20
20.578369
  0
VERTEX
  5
16d
  8
Layer_2
  10
226.446
  20
20.307312
  0
VERTEX
  5
16e
  8
Layer_2
  10
226.25211
  20
20.020325
  0
VERTEX
  5
16f
  8
Layer_2
  10
226.08092
  20
19.71875
  0
VERTEX
  5
170
  8
Layer_2
  10
225.9334
  20
19.403931
  0
VERTEX
  5
171
  8
Layer_2
  10
225.81052
  20
19.077148
  0
VERTEX
  5
172
  8
Layer_2
  10
225.71326
  20
18.739777
  0
VERTEX
  5
173
  8
Layer_2
  10
225.64262
  20
18.393158
  0
VERTEX
  5
174
  8
Layer_2
  10
225.59956
  20
18.038635
  0
VERTEX
  5
175
  8
Layer_2
  10
225.58507
  20
17.67749
  0
VERTEX
  5
176
  8
Layer_2
  10
225.59979
  20
17.316345
  0
VERTEX
  5
177
  8
Layer_2
  10
225.64308
  20
16.961853
  0
VERTEX
  5
178
  8
Layer_2
  10
225.71396
  20
16.615265
  0
VERTEX
  5
179
  8
Layer_2
  10
225.8114
  20
16.277954
  0
VERTEX
  5
17a
  8
Layer_2
  10
225.93448
  20
15.951294
  0
VERTEX
  5
17b
  8
Layer_2
  10
226.08221
  20
15.636536
  0
VERTEX
  5
17c
  8
Layer_2
  10
226.25357
  20
15.335052
  0
VERTEX
  5
17d
  8
Layer_2
  10
226.44763
  20
15.048187
  0
VERTEX
  5
17e
  8
Layer_2
  10
226.66339
  20
14.777283
  0
VERTEX
  5
17f
  8
Layer_2
  10
226.89986
  20
14.523621
  0
VERTEX
  5
180
  8
Layer_2
  10
227.15607
  20
14.288605
  0
VERTEX
  5
181
  8
Layer_2
  10
227.43105
  20
14.073517
  0
VERTEX
  5
182
  8
Layer_2
  10
227.72382
  20
13.8797
  0
VERTEX
  5
183
  8
Layer_2
  10
228.03337
  20
13.708527
  0
VERTEX
  5
184
  8
Layer_2
  10
228.35876
  20
13.561279
  0
VERTEX
  5
185
  8
Layer_2
  10
228.69899
  20
13.43927
  0
VERTEX
  5
186
  8
Layer_2
  10
229.04794
  20
13.345154
  0
VERTEX
  5
187
  8
Layer_2
  10
229.39909
  20
13.280212
  0
VERTEX
  5
188
  8
Layer_2
  10
229.75092
  20
13.243958
  0
VERTEX
  5
189
  8
Layer_2
  10
230.10181
  20
13.235779
  0
VERTEX
  5
18a
  8
Layer_2
  10
230.45026
  20
13.255219
  0
VERTEX
  5
18b
  8
Layer_2
  10
230.79465
  20
13.301697
  0
VERTEX
  5
18c
  8
Layer_2
  10
231.13347
  20
13.374756
  0
VERTEX
  5
18d
  8
Layer_2
  10
231.46512
  20
13.473785
  0
VERTEX
  5
18e
  8
Layer_2
  10
231.78809
  20
13.598267
  0
VERTEX
  5
18f
  8
Layer_2
  10
232.10074
  20
13.747742
  0
VERTEX
  5
190
  8
Layer_2
  10
232.40158
  20
13.921661
  0
VERTEX
  5
191
  8
Layer_2
  10
232.68903
  20
14.119446
  0
VERTEX
  5
192
  8
Layer_2
  10
232.96152
  20
14.340607
  0
VERTEX
  5
193
  8
Layer_2
  10
233.21747
  20
14.584564
  0
VERTEX
  5
194
  8
Layer_2
  10
233.45535
  20
14.85083
  0
VERTEX
  5
195
  8
Layer_2
  10
233.6736
  20
15.138885
  0
VERTEX
  5
196
  8
Layer_2
  10
235.10579
  20
15.138885
  0
VERTEX
  5
197
  8
Layer_2
  10
235.44226
  20
15.161194
  0
VERTEX
  5
198
  8
Layer_2
  10
235.76854
  20
15.226807
  0
VERTEX
  5
199
  8
Layer_2
  10
236.08095
  20
15.333496
  0
VERTEX
  5
19a
  8
Layer_2
  10
236.37581
  20
15.479187
  0
VERTEX
  5
19b
  8
Layer_2
  10
236.6494
  20
15.661682
  0
VERTEX
  5
19c
  8
Layer_2
  10
236.89801
  20
15.878906
  0
VERTEX
  5
19d
  8
Layer_2
  10
237.11795
  20
16.128662
  0
VERTEX
  5
19e
  8
Layer_2
  10
237.3055
  20
16.408875
  0
VERTEX
  5
19f
  8
Layer_2
  10
237.45438
  20
16.711426
  0
VERTEX
  5
1a0
  8
Layer_2
  10
237.56071
  20
17.026794
  0
VERTEX
  5
1a1
  8
Layer_2
  10
237.62453
  20
17.350708
  0
VERTEX
  5
1a2
  8
Layer_2
  10
237.6458
  20
17.678894
  0
VERTEX
  5
1a3
  8
Layer_2
  10
237.62453
  20
18.00708
  0
VERTEX
  5
1a4
  8
Layer_2
  10
237.56071
  20
18.330994
  0
VERTEX
  5
1a5
  8
Layer_2
  10
237.45438
  20
18.646362
  0
VERTEX
  5
1a6
  8
Layer_2
  10
237.3055
  20
18.948883
  0
VERTEX
  5
1a7
  8
Layer_2
  10
237.11792
  20
19.229065
  0
VERTEX
  5
1a8
  8
Layer_2
  10
236.89801
  20
19.478821
  0
VERTEX
  5
1a9
  8
Layer_2
  10
236.6494
  20
19.696045
  0
VERTEX
  5
1aa
  8
Layer_2
  10
236.37581
  20
19.878571
  0
VERTEX
  5
1ab
  8
Layer_2
  10
236.08095
  20
20.024261
  0
VERTEX
  5
1ac
  8
Layer_2
  10
235.76854
  20
20.130951
  0
VERTEX
  5
1ad
  8
Layer_2
  10
235.44226
  20
20.196533
  0
VERTEX
  5
1ae
  8
Layer_2
  10
235.10579
  20
20.218872
  0
SEQEND
  0
POLYLINE
  5
1b0
  8
Layer_2
  62
1
  70
1
  66
1
  10
0
  20
0
  30
0
  0
VERTEX
  5
1b0
  8
Layer_2
  10
123.34579
  20
7.5188904
  0
VERTEX
  5
1b1
  8
Layer_2
  10
123.34579
  20
58.318878
  0
VERTEX
  5
1b2
  8
Layer_2
  10
129.69579
  20
58.318878
  0
VERTEX
  5
1b3
  8
Layer_2
  10
129.69579
  20
61.493896
  0
VERTEX
  5
1b4
  8
Layer_2
  10
137.31578
  20
61.493896
  0
VERTEX
  5
1b5
  8
Layer_2
  10
137.31578
  20
58.318878
  0
VERTEX
  5
1b6
  8
Layer_2
  10
161.44579
  20
58.318878
  0
VERTEX
  5
1b7
  8
Layer_2
  10
161.44579
  20
61.493896
  0
VERTEX
  5
1b8
  8
Layer_2
  10
169.06578
  20
61.493896
  0
VERTEX
  5
1b9
  8
Layer_2
  10
169.06578
  20
58.318878
  0
VERTEX
  5
1ba
  8
Layer_2
  10
202.08578
  20
58.318878
  0
VERTEX
  5
1bb
  8
Layer_2
  10
202.08578
  20
61.493866
  0
VERTEX
  5
1bc
  8
Layer_2
  10
209.7058
  20
61.493866
  0
VERTEX
  5
1bd
  8
Layer_2
  10
209.7058
  20
58.318878
  0
VERTEX
  5
1be
  8
Layer_2
  10
233.83577
  20
58.318878
  0
VERTEX
  5
1bf
  8
Layer_2
  10
233.83577
  20
61.493866
  0
VERTEX
  5
1c0
  8
Layer_2
  10
241.4558
  20
61.493866
  0
VERTEX
  5
1c1
  8
Layer_2
  10
241.4558
  20
58.318878
  0
VERTEX
  5
1c2
  8
Layer_2
  10
247.80577
  20
58.318878
  0
VERTEX
  5
1c3
  8
Layer_2
  10
247.80577
  20
7.5188599
  0
VERTEX
  5
1c4
  8
Layer_2
  10
241.4558
  20
7.5188599
  0
VERTEX
  5
1c5
  8
Layer_2
  10
241.4558
  20
4.3438721
  0
VERTEX
  5
1c6
  8
Layer_2
  10
233.83577
  20
4.3438721
  0
VERTEX
  5
1c7
  8
Layer_2
  10
233.83577
  20
7.5188599
  0
VERTEX
  5
1c8
  8
Layer_2
  10
209.70578
  20
7.5188599
  0
VERTEX
  5
1c9
  8
Layer_2
  10
209.70578
  20
4.3438721
  0
VERTEX
  5
1ca
  8
Layer_2
  10
202.08578
  20
4.3438721
  0
VERTEX
  5
1cb
  8
Layer_2
  10
202.08578
  20
7.5188599
  0
VERTEX
  5
1cc
  8
Layer_2
  10
169.0658
  20
7.5188599
  0
VERTEX
  5
1cd
  8
Layer_2
  10
169.0658
  20
4.3438721
  0
VERTEX
  5
1ce
  8
Layer_2
  10
161.44579
  20
4.3438721
  0
VERTEX
  5
1cf
  8
Layer_2
  10
161.44579
  20
7.5188599
  0
VERTEX
  5
1d0
  8
Layer_2
  10
137.3158
  20
7.5188904
  0
VERTEX
  5
1d1
  8
Layer_2
  10
137.3158
  20
4.3438721
  0
VERTEX
  5
1d2
  8
Layer_2
  10
129.69579
  20
4.3438721
  0
VERTEX
  5
1d3
  8
Layer_2
  10
129.69579
  20
7.5188904
  0
VERTEX
  5
1d4
  8
Layer_2
  10
123.34579
  20
7.5188904
  0
SEQEND
  0
POLYLINE
  5
1d6
  8
Layer_2
  62
1
  70
1
  66
1
  10
0
  20
0
  30
0
  0
VERTEX
  5
1d6
  8
Layer_2
  10
72.477783
  20
55.846863
  0
VERTEX
  5
1d7
  8
Layer_2
  10
73.777161
  20
57.123016
  0
VERTEX
  5
1d8
  8
Layer_2
  10
75.990402
  20
54.852112
  0
VERTEX
  5
1d9
  8
Layer_2
  10
79.246078
  20
58.022064
  0
VERTEX
  5
1da
  8
Layer_2
  10
114.70804
  20
21.636536
  0
VERTEX
  5
1db
  8
Layer_2
  10
111.45236
  20
18.466553
  0
VERTEX
  5
1dc
  8
Layer_2
  10
113.66562
  20
16.195679
  0
VERTEX
  5
1dd
  8
Layer_2
  10
112.33463
  20
14.899719
  0
VERTEX
  5
1de
  8
Layer_2
  10
110.10435
  20
17.205505
  0
VERTEX
  5
1df
  8
Layer_2
  10
105.77672
  20
21.52533
  0
VERTEX
  5
1e0
  8
Layer_2
  10
105.49767
  20
21.797729
  0
VERTEX
  5
1e1
  8
Layer_2
  10
105.19641
  20
22.046997
  0
VERTEX
  5
1e2
  8
Layer_2
  10
104.87343
  20
22.275726
  0
VERTEX
  5
1e3
  8
Layer_2
  10
104.5292
  20
22.486359
  0
VERTEX
  5
1e4
  8
Layer_2
  10
103.77888
  20
22.86377
  0
VERTEX
  5
1e5
  8
Layer_2
  10
102.9492
  20
23.199585
  0
VERTEX
  5
1e6
  8
Layer_2
  10
102.04398
  20
23.51416
  0
VERTEX
  5
1e7
  8
Layer_2
  10
101.06694
  20
23.82785
  0
VERTEX
  5
1e8
  8
Layer_2
  10
100.0219
  20
24.161011
  0
VERTEX
  5
1e9
  8
Layer_2
  10
98.912613
  20
24.533997
  0
VERTEX
  5
1ea
  8
Layer_2
  10
97.742867
  20
24.967194
  0
VERTEX
  5
1eb
  8
Layer_2
  10
96.516434
  20
25.480927
  0
VERTEX
  5
1ec
  8
Layer_2
  10
95.883133
  20
25.774353
  0
VERTEX
  5
1ed
  8
Layer_2
  10
95.237076
  20
26.095551
  0
VERTEX
  5
1ee
  8
Layer_2
  10
94.578735
  20
26.447083
  0
VERTEX
  5
1ef
  8
Layer_2
  10
93.908585
  20
26.831421
  0
VERTEX
  5
1f0
  8
Layer_2
  10
93.227097
  20
27.251221
  0
VERTEX
  5
1f1
  8
Layer_2
  10
92.534729
  20
27.708923
  0
VERTEX
  5
1f2
  8
Layer_2
  10
91.831978
  20
28.207123
  0
VERTEX
  5
1f3
  8
Layer_2
  10
91.119293
  20
28.748383
  0
VERTEX
  5
1f4
  8
Layer_2
  10
90.397156
  20
29.335236
  0
VERTEX
  5
1f5
  8
Layer_2
  10
89.666039
  20
29.970184
  0
VERTEX
  5
1f6
  8
Layer_2
  10
88.926407
  20
30.655792
  0
VERTEX
  5
1f7
  8
Layer_2
  10
88.178741
  20
31.394653
  0
VERTEX
  5
1f8
  8
Layer_2
  10
87.422348
  20
32.191406
  0
VERTEX
  5
1f9
  8
Layer_2
  10
86.727905
  20
32.971191
  0
VERTEX
  5
1fa
  8
Layer_2
  10
86.092216
  20
33.734192
  0
VERTEX
  5
1fb
  8
Layer_2
  10
85.512062
  20
34.48053
  0
VERTEX
  5
1fc
  8
Layer_2
  10
84.984261
  20
35.210419
  0
VERTEX
  5
1fd
  8
Layer_2
  10
84.505592
  20
35.924042
  0
VERTEX
  5
1fe
  8
Layer_2
  10
84.072861
  20
36.621582
  0
VERTEX
  5
1ff
  8
Layer_2
  10
83.682861
  20
37.303162
  0
VERTEX
  5
200
  8
Layer_2
  10
83.332397
  20
37.968994
  0
VERTEX
  5
201
  8
Layer_2
  10
83.01825
  20
38.619293
  0
VERTEX
  5
202
  8
Layer_2
  10
82.737236
  20
39.254181
  0
VERTEX
  5
203
  8
Layer_2
  10
82.48613
  20
39.87384
  0
VERTEX
  5
204
  8
Layer_2
  10
82.261749
  20
40.478485
  0
VERTEX
  5
205
  8
Layer_2
  10
82.060883
  20
41.068268
  0
VERTEX
  5
206
  8
Layer_2
  10
81.880341
  20
41.643372
  0
VERTEX
  5
207
  8
Layer_2
  10
81.716881
  20
42.203949
  0
VERTEX
  5
208
  8
Layer_2
  10
81.42849
  20
43.282318
  0
VERTEX
  5
209
  8
Layer_2
  10
81.17009
  20
44.30484
  0
VERTEX
  5
20a
  8
Layer_2
  10
80.916054
  20
45.272888
  0
VERTEX
  5
20b
  8
Layer_2
  10
80.640755
  20
46.187927
  0
VERTEX
  5
20c
  8
Layer_2
  10
80.318573
  20
47.051331
  0
VERTEX
  5
20d
  8
Layer_2
  10
79.923874
  20
47.864502
  0
VERTEX
  5
20e
  8
Layer_2
  10
79.691322
  20
48.252747
  0
VERTEX
  5
20f
  8
Layer_2
  10
79.43103
  20
48.628937
  0
VERTEX
  5
210
  8
Layer_2
  10
79.139801
  20
48.993286
  0
VERTEX
  5
211
  8
Layer_2
  10
78.814438
  20
49.345978
  0
VERTEX
  5
212
  8
Layer_2
  10
74.913788
  20
53.379608
  0
VERTEX
  5
213
  8
Layer_2
  10
72.477783
  20
55.846863
  0
SEQEND
  0
POLYLINE
  5
215
  8
Layer_0
  62
0
  70
1
  66
1
  10
0
  20
0
  30
0
  0
VERTEX
  5
215
  8
Layer_0
  10
37.485806
  20
122.72983
  0
VERTEX
  5
216
  8
Layer_0
  10
37.485806
  20
122.19342
  0
VERTEX
  5
217
  8
Layer_0
  10
34.481339
  20
122.19342
  0
VERTEX
  5
218
  8
Layer_0
  10
34.494514
  20
122.39111
  0
VERTEX
  5
219
  8
Layer_0
  10
34.546448
  20
122.58099
  0
VERTEX
  5
21a
  8
Layer_0
  10
34.695663
  20
122.88562
  0
VERTEX
  5
21b
  8
Layer_0
  10
34.913868
  20
123.18561
  0
VERTEX
  5
21c
  8
Layer_0
  10
35.054268
  20
123.34027
  0
VERTEX
  5
21d
  8
Layer_0
  10
35.222763
  20
123.50653
  0
VERTEX
  5
21e
  8
Layer_0
  10
35.419365
  20
123.68445
  0
VERTEX
  5
21f
  8
Layer_0
  10
35.984543
  20
124.16199
  0
VERTEX
  5
220
  8
Layer_0
  10
36.264954
  20
124.41846
  0
VERTEX
  5
221
  8
Layer_0
  10
36.485291
  20
124.64337
  0
VERTEX
  5
222
  8
Layer_0
  10
36.645546
  20
124.83667
  0
VERTEX
  5
223
  8
Layer_0
  10
36.759491
  20
125.01178
  0
VERTEX
  5
224
  8
Layer_0
  10
36.840881
  20
125.18201
  0
VERTEX
  5
225
  8
Layer_0
  10
36.889717
  20
125.34741
  0
VERTEX
  5
226
  8
Layer_0
  10
36.905994
  20
125.50793
  0
VERTEX
  5
227
  8
Layer_0
  10
36.891171
  20
125.66733
  0
VERTEX
  5
228
  8
Layer_0
  10
36.846695
  20
125.81372
  0
VERTEX
  5
229
  8
Layer_0
  10
36.772568
  20
125.94714
  0
VERTEX
  5
22a
  8
Layer_0
  10
36.6688
  20
126.0676
  0
VERTEX
  5
22b
  8
Layer_0
  10
36.541191
  20
126.1673
  0
VERTEX
  5
22c
  8
Layer_0
  10
36.395561
  20
126.23853
  0
VERTEX
  5
22d
  8
Layer_0
  10
36.231903
  20
126.28125
  0
VERTEX
  5
22e
  8
Layer_0
  10
36.050232
  20
126.2955
  0
VERTEX
  5
22f
  8
Layer_0
  10
35.858772
  20
126.2804
  0
VERTEX
  5
230
  8
Layer_0
  10
35.687466
  20
126.23505
  0
VERTEX
  5
231
  8
Layer_0
  10
35.536308
  20
126.15945
  0
VERTEX
  5
232
  8
Layer_0
  10
35.405312
  20
126.05365
  0
VERTEX
  5
233
  8
Layer_0
  10
35.299309
  20
125.92111
  0
VERTEX
  5
234
  8
Layer_0
  10
35.223152
  20
125.76532
  0
VERTEX
  5
235
  8
Layer_0
  10
35.176838
  20
125.58624
  0
VERTEX
  5
236
  8
Layer_0
  10
35.160366
  20
125.38391
  0
VERTEX
  5
237
  8
Layer_0
  10
34.586758
  20
125.44284
  0
VERTEX
  5
238
  8
Layer_0
  10
34.636559
  20
125.74469
  0
VERTEX
  5
239
  8
Layer_0
  10
34.727058
  20
126.0083
  0
VERTEX
  5
23a
  8
Layer_0
  10
34.858253
  20
126.23383
  0
VERTEX
  5
23b
  8
Layer_0
  10
35.03014
  20
126.42108
  0
VERTEX
  5
23c
  8
Layer_0
  10
35.23885
  20
126.56824
  0
VERTEX
  5
23d
  8
Layer_0
  10
35.480499
  20
126.67337
  0
VERTEX
  5
23e
  8
Layer_0
  10
35.755096
  20
126.73645
  0
VERTEX
  5
23f
  8
Layer_0
  10
36.062637
  20
126.75748
  0
VERTEX
  5
240
  8
Layer_0
  10
36.372692
  20
126.7348
  0
VERTEX
  5
241
  8
Layer_0
  10
36.648643
  20
126.66678
  0
VERTEX
  5
242
  8
Layer_0
  10
36.890491
  20
126.55341
  0
VERTEX
  5
243
  8
Layer_0
  10
37.098232
  20
126.39471
  0
VERTEX
  5
244
  8
Layer_0
  10
37.265083
  20
126.20251
  0
VERTEX
  5
245
  8
Layer_0
  10
37.384262
  20
125.98853
  0
VERTEX
  5
246
  8
Layer_0
  10
37.455769
  20
125.75293
  0
VERTEX
  5
247
  8
Layer_0
  10
37.479603
  20
125.49554
  0
VERTEX
  5
248
  8
Layer_0
  10
37.451698
  20
125.22504
  0
VERTEX
  5
249
  8
Layer_0
  10
37.367981
  20
124.95914
  0
VERTEX
  5
24a
  8
Layer_0
  10
37.219543
  20
124.68863
  0
VERTEX
  5
24b
  8
Layer_0
  10
36.997463
  20
124.40414
  0
VERTEX
  5
24c
  8
Layer_0
  10
36.8466
  20
124.24487
  0
VERTEX
  5
24d
  8
Layer_0
  10
36.652908
  20
124.05844
  0
VERTEX
  5
24e
  8
Layer_0
  10
36.416393
  20
123.84488
  0
VERTEX
  5
24f
  8
Layer_0
  10
36.137051
  20
123.60419
  0
VERTEX
  5
250
  8
Layer_0
  10
35.908382
  20
123.41031
  0
VERTEX
  5
251
  8
Layer_0
  10
35.72467
  20
123.25034
  0
VERTEX
  5
252
  8
Layer_0
  10
35.585922
  20
123.12427
  0
VERTEX
  5
253
  8
Layer_0
  10
35.492126
  20
123.03214
  0
VERTEX
  5
254
  8
Layer_0
  10
35.361904
  20
122.88138
  0
VERTEX
  5
255
  8
Layer_0
  10
35.256485
  20
122.72983
  0
VERTEX
  5
256
  8
Layer_0
  10
37.485806
  20
122.72983
  0
SEQEND
  0
POLYLINE
  5
258
  8
Layer_0
  62
0
  70
1
  66
1
  10
0
  20
0
  30
0
  0
VERTEX
  5
258
  8
Layer_0
  10
39.872883
  20
122.19342
  0
VERTEX
  5
259
  8
Layer_0
  10
39.872883
  20
123.28174
  0
VERTEX
  5
25a
  8
Layer_0
  10
37.900909
  20
123.28174
  0
VERTEX
  5
25b
  8
Layer_0
  10
37.900909
  20
123.79333
  0
VERTEX
  5
25c
  8
Layer_0
  10
39.975204
  20
126.73889
  0
VERTEX
  5
25d
  8
Layer_0
  10
40.430988
  20
126.73889
  0
VERTEX
  5
25e
  8
Layer_0
  10
40.430988
  20
123.79333
  0
VERTEX
  5
25f
  8
Layer_0
  10
41.044907
  20
123.79333
  0
VERTEX
  5
260
  8
Layer_0
  10
41.044907
  20
123.28174
  0
VERTEX
  5
261
  8
Layer_0
  10
40.430988
  20
123.28174
  0
VERTEX
  5
262
  8
Layer_0
  10
40.430988
  20
122.19342
  0
VERTEX
  5
263
  8
Layer_0
  10
39.872883
  20
122.19342
  0
SEQEND
  0
POLYLINE
  5
265
  8
Layer_0
  62
0
  70
1
  66
1
  10
0
  20
0
  30
0
  0
VERTEX
  5
265
  8
Layer_0
  10
39.872883
  20
123.79333
  0
VERTEX
  5
266
  8
Layer_0
  10
39.872883
  20
125.8428
  0
VERTEX
  5
267
  8
Layer_0
  10
38.449715
  20
123.79333
  0
VERTEX
  5
268
  8
Layer_0
  10
39.872883
  20
123.79333
  0
SEQEND
  0
POLYLINE
  5
26a
  8
Layer_0
  62
0
  70
1
  66
1
  10
0
  20
0
  30
0
  0
VERTEX
  5
26a
  8
Layer_0
  10
21.975847
  20
100.45544
  0
VERTEX
  5
26b
  8
Layer_0
  10
21.417742
  20
100.45544
  0
VERTEX
  5
26c
  8
Layer_0
  10
21.417742
  20
104.01181
  0
VERTEX
  5
26d
  8
Layer_0
  10
21.184811
  20
103.81958
  0
VERTEX
  5
26e
  8
Layer_0
  10
20.889091
  20
103.62735
  0
VERTEX
  5
26f
  8
Layer_0
  10
20.578644
  20
103.45914
  0
VERTEX
  5
270
  8
Layer_0
  10
20.301531
  20
103.33899
  0
VERTEX
  5
271
  8
Layer_0
  10
20.301531
  20
103.87848
  0
VERTEX
  5
272
  8
Layer_0
  10
20.740261
  20
104.12189
  0
VERTEX
  5
273
  8
Layer_0
  10
21.120085
  20
104.4118
  0
VERTEX
  5
274
  8
Layer_0
  10
21.282478
  20
104.56723
  0
VERTEX
  5
275
  8
Layer_0
  10
21.419292
  20
104.72031
  0
VERTEX
  5
276
  8
Layer_0
  10
21.530525
  20
104.87106
  0
VERTEX
  5
277
  8
Layer_0
  10
21.616179
  20
105.0195
  0
VERTEX
  5
278
  8
Layer_0
  10
21.975847
  20
105.0195
  0
VERTEX
  5
279
  8
Layer_0
  10
21.975847
  20
100.45544
  0
SEQEND
  0
POLYLINE
  5
27b
  8
Layer_0
  62
0
  70
1
  66
1
  10
0
  20
0
  30
0
  0
VERTEX
  5
27b
  8
Layer_0
  10
26.300793
  20
103.88779
  0
VERTEX
  5
27c
  8
Layer_0
  10
25.745787
  20
103.84439
  0
VERTEX
  5
27d
  8
Layer_0
  10
25.655869
  20
104.12811
  0
VERTEX
  5
27e
  8
Layer_0
  10
25.534946
  20
104.32187
  0
VERTEX
  5
27f
  8
Layer_0
  10
25.415186
  20
104.42633
  0
VERTEX
  5
280
  8
Layer_0
  10
25.282249
  20
104.50092
  0
VERTEX
  5
281
  8
Layer_0
  10
25.136133
  20
104.54568
  0
VERTEX
  5
282
  8
Layer_0
  10
24.976841
  20
104.56061
  0
VERTEX
  5
283
  8
Layer_0
  10
24.847586
  20
104.5513
  0
VERTEX
  5
284
  8
Layer_0
  10
24.726469
  20
104.52344
  0
VERTEX
  5
285
  8
Layer_0
  10
24.613493
  20
104.47693
  0
VERTEX
  5
286
  8
Layer_0
  10
24.508654
  20
104.4118
  0
VERTEX
  5
287
  8
Layer_0
  10
24.383856
  20
104.30466
  0
VERTEX
  5
288
  8
Layer_0
  10
24.273008
  20
104.17538
  0
VERTEX
  5
289
  8
Layer_0
  10
24.176115
  20
104.02405
  0
VERTEX
  5
28a
  8
Layer_0
  10
24.093174
  20
103.85059
  0
VERTEX
  5
28b
  8
Layer_0
  10
24.026318
  20
103.64655
  0
VERTEX
  5
28c
  8
Layer_0
  10
23.977676
  20
103.40332
  0
VERTEX
  5
28d
  8
Layer_0
  10
23.947254
  20
103.12097
  0
VERTEX
  5
28e
  8
Layer_0
  10
23.935045
  20
102.7995
  0
VERTEX
  5
28f
  8
Layer_0
  10
24.041433
  20
102.94305
  0
VERTEX
  5
290
  8
Layer_0
  10
24.159061
  20
103.06689
  0
VERTEX
  5
291
  8
Layer_0
  10
24.28793
  20
103.17099
  0
VERTEX
  5
292
  8
Layer_0
  10
24.428038
  20
103.25528
  0
VERTEX
  5
293
  8
Layer_0
  10
24.575508
  20
103.32037
  0
VERTEX
  5
294
  8
Layer_0
  10
24.726469
  20
103.36691
  0
VERTEX
  5
295
  8
Layer_0
  10
24.880917
  20
103.39481
  0
VERTEX
  5
296
  8
Layer_0
  10
25.038853
  20
103.40411
  0
VERTEX
  5
297
  8
Layer_0
  10
25.307537
  20
103.37845
  0
VERTEX
  5
298
  8
Layer_0
  10
25.555487
  20
103.30139
  0
VERTEX
  5
299
  8
Layer_0
  10
25.782701
  20
103.17303
  0
VERTEX
  5
29a
  8
Layer_0
  10
25.989183
  20
102.99329
  0
VERTEX
  5
29b
  8
Layer_0
  10
26.160782
  20
102.77283
  0
VERTEX
  5
29c
  8
Layer_0
  10
26.28335
  20
102.5224
  0
VERTEX
  5
29d
  8
Layer_0
  10
26.356892
  20
102.24188
  0
VERTEX
  5
29e
  8
Layer_0
  10
26.381407
  20
101.93134
  0
VERTEX
  5
29f
  8
Layer_0
  10
26.369877
  20
101.72119
  0
VERTEX
  5
2a0
  8
Layer_0
  10
26.335285
  20
101.51855
  0
VERTEX
  5
2a1
  8
Layer_0
  10
26.277634
  20
101.32352
  0
VERTEX
  5
2a2
  8
Layer_0
  10
26.196922
  20
101.13602
  0
VERTEX
  5
2a3
  8
Layer_0
  10
26.096056
  20
100.96307
  0
VERTEX
  5
2a4
  8
Layer_0
  10
25.977943
  20
100.81165
  0
VERTEX
  5
2a5
  8
Layer_0
  10
25.842583
  20
100.6817
  0
VERTEX
  5
2a6
  8
Layer_0
  10
25.689976
  20
100.57327
  0
VERTEX
  5
2a7
  8
Layer_0
  10
25.523319
  20
100.48782
  0
VERTEX
  5
2a8
  8
Layer_0
  10
25.345812
  20
100.42679
  0
VERTEX
  5
2a9
  8
Layer_0
  10
25.157452
  20
100.39017
  0
VERTEX
  5
2aa
  8
Layer_0
  10
24.958239
  20
100.37793
  0
VERTEX
  5
2ab
  8
Layer_0
  10
24.625507
  20
100.40997
  0
VERTEX
  5
2ac
  8
Layer_0
  10
24.324944
  20
100.50623
  0
VERTEX
  5
2ad
  8
Layer_0
  10
24.056549
  20
100.66656
  0
VERTEX
  5
2ae
  8
Layer_0
  10
23.820324
  20
100.89108
  0
VERTEX
  5
2af
  8
Layer_0
  10
23.627701
  20
101.18921
  0
VERTEX
  5
2b0
  8
Layer_0
  10
23.49011
  20
101.5705
  0
VERTEX
  5
2b1
  8
Layer_0
  10
23.407557
  20
102.03491
  0
VERTEX
  5
2b2
  8
Layer_0
  10
23.380039
  20
102.58246
  0
VERTEX
  5
2b3
  8
Layer_0
  10
23.387646
  20
102.90063
  0
VERTEX
  5
2b4
  8
Layer_0
  10
23.410463
  20
103.19635
  0
VERTEX
  5
2b5
  8
Layer_0
  10
23.448494
  20
103.4696
  0
VERTEX
  5
2b6
  8
Layer_0
  10
23.501738
  20
103.72037
  0
VERTEX
  5
2b7
  8
Layer_0
  10
23.570194
  20
103.94867
  0
VERTEX
  5
2b8
  8
Layer_0
  10
23.653862
  20
104.15445
  0
VERTEX
  5
2b9
  8
Layer_0
  10
23.752743
  20
104.33777
  0
VERTEX
  5
2ba
  8
Layer_0
  10
23.866833
  20
104.4986
  0
VERTEX
  5
2bb
  8
Layer_0
  10
24.097633
  20
104.7265
  0
VERTEX
  5
2bc
  8
Layer_0
  10
24.365253
  20
104.88928
  0
VERTEX
  5
2bd
  8
Layer_0
  10
24.669693
  20
104.98694
  0
VERTEX
  5
2be
  8
Layer_0
  10
25.010948
  20
105.0195
  0
VERTEX
  5
2bf
  8
Layer_0
  10
25.26704
  20
105.0007
  0
VERTEX
  5
2c0
  8
Layer_0
  10
25.498905
  20
104.94431
  0
VERTEX
  5
2c1
  8
Layer_0
  10
25.706547
  20
104.85031
  0
VERTEX
  5
2c2
  8
Layer_0
  10
25.889965
  20
104.71875
  0
VERTEX
  5
2c3
  8
Layer_0
  10
26.044121
  20
104.55408
  0
VERTEX
  5
2c4
  8
Layer_0
  10
26.163979
  20
104.36066
  0
VERTEX
  5
2c5
  8
Layer_0
  10
26.249535
  20
104.13855
  0
VERTEX
  5
2c6
  8
Layer_0
  10
26.300793
  20
103.88779
  0
SEQEND
  0
POLYLINE
  5
2c8
  8
Layer_0
  62
0
  70
1
  66
1
  10
0
  20
0
  30
0
  0
VERTEX
  5
2c8
  8
Layer_0
  10
24.021862
  20
101.92822
  0
VERTEX
  5
2c9
  8
Layer_0
  10
24.052479
  20
101.64606
  0
VERTEX
  5
2ca
  8
Layer_0
  10
24.144335
  20
101.37631
  0
VERTEX
  5
2cb
  8
Layer_0
  10
24.211674
  20
101.25238
  0
VERTEX
  5
2cc
  8
Layer_0
  10
24.291225
  20
101.14417
  0
VERTEX
  5
2cd
  8
Layer_0
  10
24.382982
  20
101.05164
  0
VERTEX
  5
2ce
  8
Layer_0
  10
24.48695
  20
100.97479
  0
VERTEX
  5
2cf
  8
Layer_0
  10
24.712517
  20
100.87131
  0
VERTEX
  5
2d0
  8
Layer_0
  10
24.948936
  20
100.83682
  0
VERTEX
  5
2d1
  8
Layer_0
  10
25.119469
  20
100.85464
  0
VERTEX
  5
2d2
  8
Layer_0
  10
25.277599
  20
100.90814
  0
VERTEX
  5
2d3
  8
Layer_0
  10
25.423328
  20
100.99725
  0
VERTEX
  5
2d4
  8
Layer_0
  10
25.556652
  20
101.12207
  0
VERTEX
  5
2d5
  8
Layer_0
  10
25.667885
  20
101.2775
  0
VERTEX
  5
2d6
  8
Layer_0
  10
25.747337
  20
101.45847
  0
VERTEX
  5
2d7
  8
Layer_0
  10
25.79501
  20
101.66504
  0
VERTEX
  5
2d8
  8
Layer_0
  10
25.8109
  20
101.89722
  0
VERTEX
  5
2d9
  8
Layer_0
  10
25.795202
  20
102.12039
  0
VERTEX
  5
2da
  8
Layer_0
  10
25.748112
  20
102.31851
  0
VERTEX
  5
2db
  8
Layer_0
  10
25.669628
  20
102.49167
  0
VERTEX
  5
2dc
  8
Layer_0
  10
25.559752
  20
102.6398
  0
VERTEX
  5
2dd
  8
Layer_0
  10
25.426041
  20
102.75848
  0
VERTEX
  5
2de
  8
Layer_0
  10
25.276047
  20
102.84326
  0
VERTEX
  5
2df
  8
Layer_0
  10
25.109779
  20
102.89413
  0
VERTEX
  5
2e0
  8
Layer_0
  10
24.927233
  20
102.9111
  0
VERTEX
  5
2e1
  8
Layer_0
  10
24.745266
  20
102.89413
  0
VERTEX
  5
2e2
  8
Layer_0
  10
24.577641
  20
102.84326
  0
VERTEX
  5
2e3
  8
Layer_0
  10
24.424356
  20
102.75848
  0
VERTEX
  5
2e4
  8
Layer_0
  10
24.285412
  20
102.6398
  0
VERTEX
  5
2e5
  8
Layer_0
  10
24.170109
  20
102.49359
  0
VERTEX
  5
2e6
  8
Layer_0
  10
24.087749
  20
102.32623
  0
VERTEX
  5
2e7
  8
Layer_0
  10
24.038334
  20
102.13776
  0
VERTEX
  5
2e8
  8
Layer_0
  10
24.021862
  20
101.92822
  0
SEQEND
  0
POLYLINE
  5
2ea
  8
Layer_0
  62
0
  70
1
  66
1
  10
0
  20
0
  30
0
  0
VERTEX
  5
2ea
  8
Layer_0
  10
53.092545
  20
77.458435
  0
VERTEX
  5
2eb
  8
Layer_0
  10
52.534439
  20
77.458435
  0
VERTEX
  5
2ec
  8
Layer_0
  10
52.534439
  20
81.014801
  0
VERTEX
  5
2ed
  8
Layer_0
  10
52.30151
  20
80.822571
  0
VERTEX
  5
2ee
  8
Layer_0
  10
52.005791
  20
80.630341
  0
VERTEX
  5
2ef
  8
Layer_0
  10
51.695343
  20
80.462128
  0
VERTEX
  5
2f0
  8
Layer_0
  10
51.418228
  20
80.34198
  0
VERTEX
  5
2f1
  8
Layer_0
  10
51.418228
  20
80.88147
  0
VERTEX
  5
2f2
  8
Layer_0
  10
51.856964
  20
81.124878
  0
VERTEX
  5
2f3
  8
Layer_0
  10
52.236786
  20
81.414795
  0
VERTEX
  5
2f4
  8
Layer_0
  10
52.399178
  20
81.570221
  0
VERTEX
  5
2f5
  8
Layer_0
  10
52.535992
  20
81.723297
  0
VERTEX
  5
2f6
  8
Layer_0
  10
52.647224
  20
81.874054
  0
VERTEX
  5
2f7
  8
Layer_0
  10
52.73288
  20
82.022491
  0
VERTEX
  5
2f8
  8
Layer_0
  10
53.092545
  20
82.022491
  0
VERTEX
  5
2f9
  8
Layer_0
  10
53.092545
  20
77.458435
  0
SEQEND
  0
POLYLINE
  5
2fb
  8
Layer_0
  62
0
  70
1
  66
1
  10
0
  20
0
  30
0
  0
VERTEX
  5
2fb
  8
Layer_0
  10
57.454697
  20
77.994843
  0
VERTEX
  5
2fc
  8
Layer_0
  10
57.454697
  20
77.458435
  0
VERTEX
  5
2fd
  8
Layer_0
  10
54.45023
  20
77.458435
  0
VERTEX
  5
2fe
  8
Layer_0
  10
54.463409
  20
77.656128
  0
VERTEX
  5
2ff
  8
Layer_0
  10
54.515343
  20
77.846008
  0
VERTEX
  5
300
  8
Layer_0
  10
54.664558
  20
78.150635
  0
VERTEX
  5
301
  8
Layer_0
  10
54.882763
  20
78.450623
  0
VERTEX
  5
302
  8
Layer_0
  10
55.023163
  20
78.605286
  0
VERTEX
  5
303
  8
Layer_0
  10
55.191658
  20
78.771545
  0
VERTEX
  5
304
  8
Layer_0
  10
55.38826
  20
78.949463
  0
VERTEX
  5
305
  8
Layer_0
  10
55.953434
  20
79.427002
  0
VERTEX
  5
306
  8
Layer_0
  10
56.233841
  20
79.683472
  0
VERTEX
  5
307
  8
Layer_0
  10
56.454178
  20
79.908386
  0
VERTEX
  5
308
  8
Layer_0
  10
56.614441
  20
80.101685
  0
VERTEX
  5
309
  8
Layer_0
  10
56.728386
  20
80.276794
  0
VERTEX
  5
30a
  8
Layer_0
  10
56.809776
  20
80.447021
  0
VERTEX
  5
30b
  8
Layer_0
  10
56.858612
  20
80.612427
  0
VERTEX
  5
30c
  8
Layer_0
  10
56.874889
  20
80.772949
  0
VERTEX
  5
30d
  8
Layer_0
  10
56.860065
  20
80.932343
  0
VERTEX
  5
30e
  8
Layer_0
  10
56.81559
  20
81.078735
  0
VERTEX
  5
30f
  8
Layer_0
  10
56.741463
  20
81.212158
  0
VERTEX
  5
310
  8
Layer_0
  10
56.637695
  20
81.332611
  0
VERTEX
  5
311
  8
Layer_0
  10
56.510086
  20
81.432312
  0
VERTEX
  5
312
  8
Layer_0
  10
56.364456
  20
81.50354
  0
VERTEX
  5
313
  8
Layer_0
  10
56.200798
  20
81.546265
  0
VERTEX
  5
314
  8
Layer_0
  10
56.019127
  20
81.560516
  0
VERTEX
  5
315
  8
Layer_0
  10
55.82766
  20
81.54541
  0
VERTEX
  5
316
  8
Layer_0
  10
55.656357
  20
81.500061
  0
VERTEX
  5
317
  8
Layer_0
  10
55.505203
  20
81.424469
  0
VERTEX
  5
318
  8
Layer_0
  10
55.374207
  20
81.318665
  0
VERTEX
  5
319
  8
Layer_0
  10
55.268204
  20
81.186127
  0
VERTEX
  5
31a
  8
Layer_0
  10
55.192047
  20
81.030334
  0
VERTEX
  5
31b
  8
Layer_0
  10
55.145729
  20
80.851257
  0
VERTEX
  5
31c
  8
Layer_0
  10
55.129257
  20
80.648926
  0
VERTEX
  5
31d
  8
Layer_0
  10
54.555649
  20
80.707855
  0
VERTEX
  5
31e
  8
Layer_0
  10
54.605453
  20
81.009705
  0
VERTEX
  5
31f
  8
Layer_0
  10
54.695953
  20
81.273315
  0
VERTEX
  5
320
  8
Layer_0
  10
54.827148
  20
81.49884
  0
VERTEX
  5
321
  8
Layer_0
  10
54.999035
  20
81.686096
  0
VERTEX
  5
322
  8
Layer_0
  10
55.207741
  20
81.833252
  0
VERTEX
  5
323
  8
Layer_0
  10
55.449394
  20
81.938385
  0
VERTEX
  5
324
  8
Layer_0
  10
55.723991
  20
82.001465
  0
VERTEX
  5
325
  8
Layer_0
  10
56.031528
  20
82.022491
  0
VERTEX
  5
326
  8
Layer_0
  10
56.341587
  20
81.999817
  0
VERTEX
  5
327
  8
Layer_0
  10
56.617538
  20
81.931793
  0
VERTEX
  5
328
  8
Layer_0
  10
56.859386
  20
81.81842
  0
VERTEX
  5
329
  8
Layer_0
  10
57.067123
  20
81.659729
  0
VERTEX
  5
32a
  8
Layer_0
  10
57.233974
  20
81.467529
  0
VERTEX
  5
32b
  8
Layer_0
  10
57.353153
  20
81.25354
  0
VERTEX
  5
32c
  8
Layer_0
  10
57.42466
  20
81.017944
  0
VERTEX
  5
32d
  8
Layer_0
  10
57.448498
  20
80.760559
  0
VERTEX
  5
32e
  8
Layer_0
  10
57.420593
  20
80.490051
  0
VERTEX
  5
32f
  8
Layer_0
  10
57.336876
  20
80.224152
  0
VERTEX
  5
330
  8
Layer_0
  10
57.188431
  20
79.953644
  0
VERTEX
  5
331
  8
Layer_0
  10
56.966354
  20
79.669159
  0
VERTEX
  5
332
  8
Layer_0
  10
56.815491
  20
79.509888
  0
VERTEX
  5
333
  8
Layer_0
  10
56.621803
  20
79.323456
  0
VERTEX
  5
334
  8
Layer_0
  10
56.385284
  20
79.109894
  0
VERTEX
  5
335
  8
Layer_0
  10
56.105942
  20
78.869202
  0
VERTEX
  5
336
  8
Layer_0
  10
55.877274
  20
78.675323
  0
VERTEX
  5
337
  8
Layer_0
  10
55.693565
  20
78.51535
  0
VERTEX
  5
338
  8
Layer_0
  10
55.554817
  20
78.389282
  0
VERTEX
  5
339
  8
Layer_0
  10
55.461021
  20
78.29715
  0
VERTEX
  5
33a
  8
Layer_0
  10
55.330795
  20
78.146393
  0
VERTEX
  5
33b
  8
Layer_0
  10
55.225376
  20
77.994843
  0
VERTEX
  5
33c
  8
Layer_0
  10
57.454697
  20
77.994843
  0
SEQEND
  0
POLYLINE
  5
33e
  8
Layer_0
  62
0
  70
1
  66
1
  10
0
  20
0
  30
0
  0
VERTEX
  5
33e
  8
Layer_0
  10
22.452812
  20
54.220398
  0
VERTEX
  5
33f
  8
Layer_0
  10
22.290421
  20
54.29071
  0
VERTEX
  5
340
  8
Layer_0
  10
22.150505
  20
54.374634
  0
VERTEX
  5
341
  8
Layer_0
  10
22.033072
  20
54.472107
  0
VERTEX
  5
342
  8
Layer_0
  10
21.938116
  20
54.58316
  0
VERTEX
  5
343
  8
Layer_0
  10
21.864864
  20
54.706787
  0
VERTEX
  5
344
  8
Layer_0
  10
21.812542
  20
54.842041
  0
VERTEX
  5
345
  8
Layer_0
  10
21.781147
  20
54.988953
  0
VERTEX
  5
346
  8
Layer_0
  10
21.770683
  20
55.147461
  0
VERTEX
  5
347
  8
Layer_0
  10
21.792969
  20
55.38562
  0
VERTEX
  5
348
  8
Layer_0
  10
21.859825
  20
55.604034
  0
VERTEX
  5
349
  8
Layer_0
  10
21.971252
  20
55.802673
  0
VERTEX
  5
34a
  8
Layer_0
  10
22.127251
  20
55.981537
  0
VERTEX
  5
34b
  8
Layer_0
  10
22.320263
  20
56.129395
  0
VERTEX
  5
34c
  8
Layer_0
  10
22.542732
  20
56.234985
  0
VERTEX
  5
34d
  8
Layer_0
  10
22.794655
  20
56.29837
  0
VERTEX
  5
34e
  8
Layer_0
  10
23.076031
  20
56.319489
  0
VERTEX
  5
34f
  8
Layer_0
  10
23.359152
  20
56.297882
  0
VERTEX
  5
350
  8
Layer_0
  10
23.613207
  20
56.233063
  0
VERTEX
  5
351
  8
Layer_0
  10
23.838194
  20
56.125031
  0
VERTEX
  5
352
  8
Layer_0
  10
24.034111
  20
55.973785
  0
VERTEX
  5
353
  8
Layer_0
  10
24.192822
  20
55.791534
  0
VERTEX
  5
354
  8
Layer_0
  10
24.306187
  20
55.590485
  0
VERTEX
  5
355
  8
Layer_0
  10
24.374207
  20
55.370636
  0
VERTEX
  5
356
  8
Layer_0
  10
24.396879
  20
55.131958
  0
VERTEX
  5
357
  8
Layer_0
  10
24.386513
  20
54.978973
  0
VERTEX
  5
358
  8
Layer_0
  10
24.35541
  20
54.836243
  0
VERTEX
  5
359
  8
Layer_0
  10
24.303572
  20
54.703796
  0
VERTEX
  5
35a
  8
Layer_0
  10
24.230999
  20
54.581604
  0
VERTEX
  5
35b
  8
Layer_0
  10
24.137302
  20
54.471252
  0
VERTEX
  5
35c
  8
Layer_0
  10
24.022099
  20
54.374268
  0
VERTEX
  5
35d
  8
Layer_0
  10
23.88538
  20
54.290649
  0
VERTEX
  5
35e
  8
Layer_0
  10
23.727154
  20
54.220398
  0
VERTEX
  5
35f
  8
Layer_0
  10
23.923944
  20
54.141724
  0
VERTEX
  5
360
  8
Layer_0
  10
24.095736
  20
54.042114
  0
VERTEX
  5
361
  8
Layer_0
  10
24.242531
  20
53.9216
  0
VERTEX
  5
362
  8
Layer_0
  10
24.364325
  20
53.780121
  0
VERTEX
  5
363
  8
Layer_0
  10
24.459957
  20
53.62085
  0
VERTEX
  5
364
  8
Layer_0
  10
24.528267
  20
53.446777
  0
VERTEX
  5
365
  8
Layer_0
  10
24.569252
  20
53.258057
  0
VERTEX
  5
366
  8
Layer_0
  10
24.582914
  20
53.054565
  0
VERTEX
  5
367
  8
Layer_0
  10
24.55714
  20
52.77475
  0
VERTEX
  5
368
  8
Layer_0
  10
24.47982
  20
52.518188
  0
VERTEX
  5
369
  8
Layer_0
  10
24.350952
  20
52.284851
  0
VERTEX
  5
36a
  8
Layer_0
  10
24.170538
  20
52.074799
  0
VERTEX
  5
36b
  8
Layer_0
  10
23.948071
  20
51.901184
  0
VERTEX
  5
36c
  8
Layer_0
  10
23.693047
  20
51.777161
  0
VERTEX
  5
36d
  8
Layer_0
  10
23.405468
  20
51.702728
  0
VERTEX
  5
36e
  8
Layer_0
  10
23.085333
  20
51.677917
  0
VERTEX
  5
36f
  8
Layer_0
  10
22.765196
  20
51.70282
  0
VERTEX
  5
370
  8
Layer_0
  10
22.477617
  20
51.777527
  0
VERTEX
  5
371
  8
Layer_0
  10
22.222595
  20
51.902039
  0
VERTEX
  5
372
  8
Layer_0
  10
22.000128
  20
52.076355
  0
VERTEX
  5
373
  8
Layer_0
  10
21.81971
  20
52.287842
  0
VERTEX
  5
374
  8
Layer_0
  10
21.690844
  20
52.523987
  0
VERTEX
  5
375
  8
Layer_0
  10
21.613522
  20
52.784729
  0
VERTEX
  5
376
  8
Layer_0
  10
21.587749
  20
53.070068
  0
VERTEX
  5
377
  8
Layer_0
  10
21.601799
  20
53.282776
  0
VERTEX
  5
378
  8
Layer_0
  10
21.643948
  20
53.477417
  0
VERTEX
  5
379
  8
Layer_0
  10
21.714195
  20
53.654083
  0
VERTEX
  5
37a
  8
Layer_0
  10
21.812542
  20
53.812683
  0
VERTEX
  5
37b
  8
Layer_0
  10
21.936855
  20
53.950378
  0
VERTEX
  5
37c
  8
Layer_0
  10
22.085007
  20
54.064209
  0
VERTEX
  5
37d
  8
Layer_0
  10
22.25699
  20
54.154205
  0
VERTEX
  5
37e
  8
Layer_0
  10
22.452812
  20
54.220398
  0
SEQEND
  0
POLYLINE
  5
380
  8
Layer_0
  62
0
  70
1
  66
1
  10
0
  20
0
  30
0
  0
VERTEX
  5
380
  8
Layer_0
  10
22.341192
  20
55.166077
  0
VERTEX
  5
381
  8
Layer_0
  10
22.354176
  20
55.012207
  0
VERTEX
  5
382
  8
Layer_0
  10
22.393127
  20
54.873077
  0
VERTEX
  5
383
  8
Layer_0
  10
22.458046
  20
54.748657
  0
VERTEX
  5
384
  8
Layer_0
  10
22.548931
  20
54.638977
  0
VERTEX
  5
385
  8
Layer_0
  10
22.660549
  20
54.549438
  0
VERTEX
  5
386
  8
Layer_0
  10
22.787674
  20
54.485474
  0
VERTEX
  5
387
  8
Layer_0
  10
22.930302
  20
54.447144
  0
VERTEX
  5
388
  8
Layer_0
  10
23.088432
  20
54.434326
  0
VERTEX
  5
389
  8
Layer_0
  10
23.242395
  20
54.447021
  0
VERTEX
  5
38a
  8
Layer_0
  10
23.381824
  20
54.485107
  0
VERTEX
  5
38b
  8
Layer_0
  10
23.506721
  20
54.548584
  0
VERTEX
  5
38c
  8
Layer_0
  10
23.617083
  20
54.637421
  0
VERTEX
  5
38d
  8
Layer_0
  10
23.707291
  20
54.74469
  0
VERTEX
  5
38e
  8
Layer_0
  10
23.771723
  20
54.863403
  0
VERTEX
  5
38f
  8
Layer_0
  10
23.810383
  20
54.993469
  0
VERTEX
  5
390
  8
Layer_0
  10
23.823271
  20
55.135071
  0
VERTEX
  5
391
  8
Layer_0
  10
23.809998
  20
55.28244
  0
VERTEX
  5
392
  8
Layer_0
  10
23.770174
  20
55.417603
  0
VERTEX
  5
393
  8
Layer_0
  10
23.703802
  20
55.540588
  0
VERTEX
  5
394
  8
Layer_0
  10
23.610882
  20
55.651306
  0
VERTEX
  5
395
  8
Layer_0
  10
23.498196
  20
55.742859
  0
VERTEX
  5
396
  8
Layer_0
  10
23.372524
  20
55.808258
  0
VERTEX
  5
397
  8
Layer_0
  10
23.233871
  20
55.847504
  0
VERTEX
  5
398
  8
Layer_0
  10
23.082232
  20
55.860596
  0
VERTEX
  5
399
  8
Layer_0
  10
22.929333
  20
55.847778
  0
VERTEX
  5
39a
  8
Layer_0
  10
22.790001
  20
55.809448
  0
VERTEX
  5
39b
  8
Layer_0
  10
22.664234
  20
55.745483
  0
VERTEX
  5
39c
  8
Layer_0
  10
22.552031
  20
55.655975
  0
VERTEX
  5
39d
  8
Layer_0
  10
22.459789
  20
55.548615
  0
VERTEX
  5
39e
  8
Layer_0
  10
22.393902
  20
55.431152
  0
VERTEX
  5
39f
  8
Layer_0
  10
22.35437
  20
55.30365
  0
VERTEX
  5
3a0
  8
Layer_0
  10
22.341192
  20
55.166077
  0
SEQEND
  0
POLYLINE
  5
3a2
  8
Layer_0
  62
0
  70
1
  66
1
  10
0
  20
0
  30
0
  0
VERTEX
  5
3a2
  8
Layer_0
  10
22.161358
  20
53.066986
  0
VERTEX
  5
3a3
  8
Layer_0
  10
22.18965
  20
52.832092
  0
VERTEX
  5
3a4
  8
Layer_0
  10
22.274529
  20
52.60498
  0
VERTEX
  5
3a5
  8
Layer_0
  10
22.415218
  20
52.406952
  0
VERTEX
  5
3a6
  8
Layer_0
  10
22.610943
  20
52.259277
  0
VERTEX
  5
3a7
  8
Layer_0
  10
22.842712
  20
52.167419
  0
VERTEX
  5
3a8
  8
Layer_0
  10
23.091534
  20
52.13681
  0
VERTEX
  5
3a9
  8
Layer_0
  10
23.282799
  20
52.152893
  0
VERTEX
  5
3aa
  8
Layer_0
  10
23.456627
  20
52.201141
  0
VERTEX
  5
3ab
  8
Layer_0
  10
23.613014
  20
52.281555
  0
VERTEX
  5
3ac
  8
Layer_0
  10
23.751959
  20
52.394165
  0
VERTEX
  5
3ad
  8
Layer_0
  10
23.865906
  20
52.531555
  0
VERTEX
  5
3ae
  8
Layer_0
  10
23.947296
  20
52.686371
  0
VERTEX
  5
3af
  8
Layer_0
  10
23.99613
  20
52.858673
  0
VERTEX
  5
3b0
  8
Layer_0
  10
24.012407
  20
53.04837
  0
VERTEX
  5
3b1
  8
Layer_0
  10
23.995646
  20
53.24118
  0
VERTEX
  5
3b2
  8
Layer_0
  10
23.945358
  20
53.416565
  0
VERTEX
  5
3b3
  8
Layer_0
  10
23.861544
  20
53.574493
  0
VERTEX
  5
3b4
  8
Layer_0
  10
23.744207
  20
53.714996
  0
VERTEX
  5
3b5
  8
Layer_0
  10
23.601677
  20
53.830322
  0
VERTEX
  5
3b6
  8
Layer_0
  10
23.442287
  20
53.912659
  0
VERTEX
  5
3b7
  8
Layer_0
  10
23.266039
  20
53.962097
  0
VERTEX
  5
3b8
  8
Layer_0
  10
23.072929
  20
53.978546
  0
VERTEX
  5
3b9
  8
Layer_0
  10
22.884472
  20
53.96228
  0
VERTEX
  5
3ba
  8
Layer_0
  10
22.712873
  20
53.913452
  0
VERTEX
  5
3bb
  8
Layer_0
  10
22.558136
  20
53.832031
  0
VERTEX
  5
3bc
  8
Layer_0
  10
22.420256
  20
53.718109
  0
VERTEX
  5
3bd
  8
Layer_0
  10
22.30699
  20
53.579742
  0
VERTEX
  5
3be
  8
Layer_0
  10
22.226084
  20
53.42511
  0
VERTEX
  5
3bf
  8
Layer_0
  10
22.17754
  20
53.254181
  0
VERTEX
  5
3c0
  8
Layer_0
  10
22.161358
  20
53.066986
  0
SEQEND
  0
POLYLINE
  5
3c2
  8
Layer_0
  62
0
  70
1
  66
1
  10
0
  20
0
  30
0
  0
VERTEX
  5
3c2
  8
Layer_0
  10
60.927891
  20
27.531433
  0
VERTEX
  5
3c3
  8
Layer_0
  10
60.927891
  20
28.619751
  0
VERTEX
  5
3c4
  8
Layer_0
  10
58.955917
  20
28.619751
  0
VERTEX
  5
3c5
  8
Layer_0
  10
58.955917
  20
29.131348
  0
VERTEX
  5
3c6
  8
Layer_0
  10
61.030209
  20
32.076904
  0
VERTEX
  5
3c7
  8
Layer_0
  10
61.485996
  20
32.076904
  0
VERTEX
  5
3c8
  8
Layer_0
  10
61.485996
  20
29.131348
  0
VERTEX
  5
3c9
  8
Layer_0
  10
62.099911
  20
29.131348
  0
VERTEX
  5
3ca
  8
Layer_0
  10
62.099911
  20
28.619751
  0
VERTEX
  5
3cb
  8
Layer_0
  10
61.485996
  20
28.619751
  0
VERTEX
  5
3cc
  8
Layer_0
  10
61.485996
  20
27.531433
  0
VERTEX
  5
3cd
  8
Layer_0
  10
60.927891
  20
27.531433
  0
SEQEND
  0
POLYLINE
  5
3cf
  8
Layer_0
  62
0
  70
1
  66
1
  10
0
  20
0
  30
0
  0
VERTEX
  5
3cf
  8
Layer_0
  10
60.927891
  20
29.131348
  0
VERTEX
  5
3d0
  8
Layer_0
  10
60.927891
  20
31.180817
  0
VERTEX
  5
3d1
  8
Layer_0
  10
59.504719
  20
29.131348
  0
VERTEX
  5
3d2
  8
Layer_0
  10
60.927891
  20
29.131348
  0
SEQEND
  0
POLYLINE
  5
3d4
  8
Layer_2
  62
1
  70
1
  66
1
  10
0
  20
0
  30
0
  0
VERTEX
  5
3d4
  8
Layer_2
  10
60.467903
  20
17.874573
  0
VERTEX
  5
3d5
  8
Layer_2
  10
52.963692
  20
19.197754
  0
VERTEX
  5
3d6
  8
Layer_2
  10
52.412407
  20
16.070923
  0
VERTEX
  5
3d7
  8
Layer_2
  10
59.916588
  20
14.747742
  0
VERTEX
  5
3d8
  8
Layer_2
  10
60.467903
  20
17.874573
  0
SEQEND
  0
POLYLINE
  5
3da
  8
Layer_2
  62
1
  70
1
  66
1
  10
0
  20
0
  30
0
  0
VERTEX
  5
3da
  8
Layer_2
  10
27.949594
  20
23.608398
  0
VERTEX
  5
3db
  8
Layer_2
  10
20.445307
  20
24.931641
  0
VERTEX
  5
3dc
  8
Layer_2
  10
19.893999
  20
21.804871
  0
VERTEX
  5
3dd
  8
Layer_2
  10
27.398203
  20
20.481628
  0
VERTEX
  5
3de
  8
Layer_2
  10
27.949594
  20
23.608398
  0
SEQEND
  0
POLYLINE
  5
3e0
  8
Layer_2
  62
1
  70
1
  66
1
  10
0
  20
0
  30
0
  0
VERTEX
  5
3e0
  8
Layer_2
  10
39.0718
  20
45.003601
  0
VERTEX
  5
3e1
  8
Layer_2
  10
31.567621
  20
43.68042
  0
VERTEX
  5
3e2
  8
Layer_2
  10
32.118904
  20
40.55365
  0
VERTEX
  5
3e3
  8
Layer_2
  10
39.623085
  20
41.876831
  0
VERTEX
  5
3e4
  8
Layer_2
  10
39.0718
  20
45.003601
  0
SEQEND
  0
POLYLINE
  5
3e6
  8
Layer_2
  62
1
  70
1
  66
1
  10
0
  20
0
  30
0
  0
VERTEX
  5
3e6
  8
Layer_2
  10
60.673195
  20
48.8125
  0
VERTEX
  5
3e7
  8
Layer_2
  10
53.168907
  20
47.489319
  0
VERTEX
  5
3e8
  8
Layer_2
  10
53.720299
  20
44.362549
  0
VERTEX
  5
3e9
  8
Layer_2
  10
61.22451
  20
45.68573
  0
VERTEX
  5
3ea
  8
Layer_2
  10
60.673195
  20
48.8125
  0
SEQEND
  0
POLYLINE
  5
3ec
  8
Layer_2
  62
1
  70
1
  66
1
  10
0
  20
0
  30
0
  0
VERTEX
  5
3ec
  8
Layer_2
  10
46.53582
  20
69.384644
  0
VERTEX
  5
3ed
  8
Layer_2
  10
39.031593
  20
70.707825
  0
VERTEX
  5
3ee
  8
Layer_2
  10
38.480309
  20
67.581055
  0
VERTEX
  5
3ef
  8
Layer_2
  10
45.98452
  20
66.257874
  0
VERTEX
  5
3f0
  8
Layer_2
  10
46.53582
  20
69.384644
  0
SEQEND
  0
POLYLINE
  5
3f2
  8
Layer_2
  62
1
  70
1
  66
1
  10
0
  20
0
  30
0
  0
VERTEX
  5
3f2
  8
Layer_2
  10
25.907084
  20
73.022064
  0
VERTEX
  5
3f3
  8
Layer_2
  10
18.402918
  20
74.345245
  0
VERTEX
  5
3f4
  8
Layer_2
  10
17.851625
  20
71.218445
  0
VERTEX
  5
3f5
  8
Layer_2
  10
25.355799
  20
69.895233
  0
VERTEX
  5
3f6
  8
Layer_2
  10
25.907084
  20
73.022064
  0
SEQEND
  0
POLYLINE
  5
3f8
  8
Layer_2
  62
1
  70
1
  66
1
  10
0
  20
0
  30
0
  0
VERTEX
  5
3f8
  8
Layer_2
  10
40.044533
  20
93.885651
  0
VERTEX
  5
3f9
  8
Layer_2
  10
32.540215
  20
92.562439
  0
VERTEX
  5
3fa
  8
Layer_2
  10
33.091652
  20
89.435638
  0
VERTEX
  5
3fb
  8
Layer_2
  10
40.595833
  20
90.75882
  0
VERTEX
  5
3fc
  8
Layer_2
  10
40.044533
  20
93.885651
  0
SEQEND
  0
POLYLINE
  5
3fe
  8
Layer_2
  62
1
  70
1
  66
1
  10
0
  20
0
  30
0
  0
VERTEX
  5
3fe
  8
Layer_2
  10
60.673225
  20
97.523041
  0
VERTEX
  5
3ff
  8
Layer_2
  10
53.168938
  20
96.199829
  0
VERTEX
  5
400
  8
Layer_2
  10
53.720314
  20
93.073059
  0
VERTEX
  5
401
  8
Layer_2
  10
61.224525
  20
94.39624
  0
VERTEX
  5
402
  8
Layer_2
  10
60.673225
  20
97.523041
  0
SEQEND
  0
POLYLINE
  5
404
  8
Layer_2
  62
1
  70
1
  66
1
  10
0
  20
0
  30
0
  0
VERTEX
  5
404
  8
Layer_2
  10
71.287994
  20
124.992
  0
VERTEX
  5
405
  8
Layer_2
  10
68.111984
  20
124.992
  0
VERTEX
  5
406
  8
Layer_2
  10
68.111984
  20
117.37601
  0
VERTEX
  5
407
  8
Layer_2
  10
71.287994
  20
117.37601
  0
VERTEX
  5
408
  8
Layer_2
  10
71.287994
  20
84.35202
  0
VERTEX
  5
409
  8
Layer_2
  10
68.111984
  20
84.35202
  0
VERTEX
  5
40a
  8
Layer_2
  10
68.111984
  20
76.736023
  0
VERTEX
  5
40b
  8
Layer_2
  10
71.287994
  20
76.736023
  0
VERTEX
  5
40c
  8
Layer_2
  10
71.287994
  20
50.064026
  0
VERTEX
  5
40d
  8
Layer_2
  10
68.111984
  20
50.064026
  0
VERTEX
  5
40e
  8
Layer_2
  10
68.111984
  20
42.440002
  0
VERTEX
  5
40f
  8
Layer_2
  10
71.287994
  20
42.440002
  0
VERTEX
  5
410
  8
Layer_2
  10
71.287994
  20
26.280029
  0
VERTEX
  5
411
  8
Layer_2
  10
96.287994
  20
16.864014
  0
VERTEX
  5
412
  8
Layer_2
  10
97.095993
  20
16.496033
  0
VERTEX
  5
413
  8
Layer_2
  10
98.285873
  20
16.009827
  0
VERTEX
  5
414
  8
Layer_2
  10
99.502151
  20
15.597778
  0
VERTEX
  5
415
  8
Layer_2
  10
100.74135
  20
15.260803
  0
VERTEX
  5
416
  8
Layer_2
  10
102
  20
15
  0
VERTEX
  5
417
  8
Layer_2
  10
102.21685
  20
14.962952
  0
VERTEX
  5
418
  8
Layer_2
  10
102.48427
  20
14.920288
  0
VERTEX
  5
419
  8
Layer_2
  10
103.15746
  20
14.820404
  0
VERTEX
  5
41a
  8
Layer_2
  10
103.99279
  20
14.704437
  0
VERTEX
  5
41b
  8
Layer_2
  10
104.96352
  20
14.576599
  0
VERTEX
  5
41c
  8
Layer_2
  10
106.04291
  20
14.440979
  0
VERTEX
  5
41d
  8
Layer_2
  10
107.20418
  20
14.301758
  0
VERTEX
  5
41e
  8
Layer_2
  10
108.42059
  20
14.163086
  0
VERTEX
  5
41f
  8
Layer_2
  10
109.66539
  20
14.029114
  0
VERTEX
  5
420
  8
Layer_2
  10
110.91182
  20
13.903992
  0
VERTEX
  5
421
  8
Layer_2
  10
112.13313
  20
13.791809
  0
VERTEX
  5
422
  8
Layer_2
  10
113.30257
  20
13.696777
  0
VERTEX
  5
423
  8
Layer_2
  10
114.39339
  20
13.623047
  0
VERTEX
  5
424
  8
Layer_2
  10
114.90096
  20
13.595459
  0
VERTEX
  5
425
  8
Layer_2
  10
115.37882
  20
13.574738
  0
VERTEX
  5
426
  8
Layer_2
  10
115.82366
  20
13.561401
  0
VERTEX
  5
427
  8
Layer_2
  10
116.23213
  20
13.555969
  0
VERTEX
  5
428
  8
Layer_2
  10
116.60088
  20
13.55899
  0
VERTEX
  5
429
  8
Layer_2
  10
116.92656
  20
13.570953
  0
VERTEX
  5
42a
  8
Layer_2
  10
117.20583
  20
13.592346
  0
VERTEX
  5
42b
  8
Layer_2
  10
117.43535
  20
13.623779
  0
VERTEX
  5
42c
  8
Layer_2
  10
117.064
  20
11.848022
  0
VERTEX
  5
42d
  8
Layer_2
  10
120.168
  20
11.280029
  0
VERTEX
  5
42e
  8
Layer_2
  10
119.472
  20
7.4720154
  0
VERTEX
  5
42f
  8
Layer_2
  10
118.92
  20
4.3439941
  0
VERTEX
  5
430
  8
Layer_2
  10
7.783989
  20
4.3439941
  0
VERTEX
  5
431
  8
Layer_2
  10
7.783989
  20
13.231995
  0
VERTEX
  5
432
  8
Layer_2
  10
10.959991
  20
13.231995
  0
VERTEX
  5
433
  8
Layer_2
  10
10.959991
  20
20.856018
  0
VERTEX
  5
434
  8
Layer_2
  10
7.783989
  20
20.856018
  0
VERTEX
  5
435
  8
Layer_2
  10
7.783989
  20
44.984009
  0
VERTEX
  5
436
  8
Layer_2
  10
10.959991
  20
44.984009
  0
VERTEX
  5
437
  8
Layer_2
  10
10.959991
  20
52.608032
  0
VERTEX
  5
438
  8
Layer_2
  10
7.783989
  20
52.608032
  0
VERTEX
  5
439
  8
Layer_2
  10
7.783989
  20
85.624023
  0
VERTEX
  5
43a
  8
Layer_2
  10
10.959991
  20
85.624023
  0
VERTEX
  5
43b
  8
Layer_2
  10
10.959991
  20
93.248016
  0
VERTEX
  5
43c
  8
Layer_2
  10
7.783989
  20
93.248016
  0
VERTEX
  5
43d
  8
Layer_2
  10
7.783989
  20
117.37601
  0
VERTEX
  5
43e
  8
Layer_2
  10
10.959991
  20
117.37601
  0
VERTEX
  5
43f
  8
Layer_2
  10
10.959991
  20
124.992
  0
VERTEX
  5
440
  8
Layer_2
  10
7.783989
  20
124.992
  0
VERTEX
  5
441
  8
Layer_2
  10
7.783989
  20
131.34402
  0
VERTEX
  5
442
  8
Layer_2
  10
71.287994
  20
131.34402
  0
VERTEX
  5
443
  8
Layer_2
  10
71.287994
  20
124.992
  0
SEQEND
  0
POLYLINE
  5
445
  8
Layer_2
  62
1
  70
1
  66
1
  10
0
  20
0
  30
0
  0
VERTEX
  5
445
  8
Layer_2
  10
92.98629
  20
12.140625
  0
VERTEX
  5
446
  8
Layer_2
  10
85.482018
  20
13.463806
  0
VERTEX
  5
447
  8
Layer_2
  10
84.930687
  20
10.337097
  0
VERTEX
  5
448
  8
Layer_2
  10
92.434914
  20
9.013916
  0
VERTEX
  5
449
  8
Layer_2
  10
92.98629
  20
12.140625
  0
SEQEND
  0
POLYLINE
  5
44b
  8
Layer_2
  62
1
  70
1
  66
1
  10
0
  20
0
  30
0
  0
VERTEX
  5
44b
  8
Layer_2
  10
112.99758
  20
8.6121216
  0
VERTEX
  5
44c
  8
Layer_2
  10
105.49331
  20
9.9353027
  0
VERTEX
  5
44d
  8
Layer_2
  10
104.94203
  20
6.8085327
  0
VERTEX
  5
44e
  8
Layer_2
  10
112.44622
  20
5.4853516
  0
VERTEX
  5
44f
  8
Layer_2
  10
112.99758
  20
8.6121216
  0
SEQEND
  0
POLYLINE
  5
451
  8
Layer_1
  62
202
  70
1
  66
1
  10
0
  20
0
  30
0
  0
VERTEX
  5
451
  8
Layer_1
  10
60.673218
  20
101.30231
  0
VERTEX
  5
452
  8
Layer_1
  10
60.040451
  20
105.08142
  0
VERTEX
  5
453
  8
Layer_1
  10
22.851583
  20
98.854553
  0
VERTEX
  5
454
  8
Layer_1
  10
23.484354
  20
95.075439
  0
VERTEX
  5
455
  8
Layer_1
  10
60.673218
  20
101.30231
  0
SEQEND
  0
POLYLINE
  5
457
  8
Layer_1
  62
202
  70
1
  66
1
  10
0
  20
0
  30
0
  0
VERTEX
  5
457
  8
Layer_1
  10
56.224518
  20
75.676544
  0
VERTEX
  5
458
  8
Layer_1
  10
55.591751
  20
71.89743
  0
VERTEX
  5
459
  8
Layer_1
  10
18.402884
  20
78.124298
  0
VERTEX
  5
45a
  8
Layer_1
  10
19.035654
  20
81.903412
  0
VERTEX
  5
45b
  8
Layer_1
  10
56.224518
  20
75.676544
  0
SEQEND
  0
POLYLINE
  5
45d
  8
Layer_1
  62
202
  70
1
  66
1
  10
0
  20
0
  30
0
  0
VERTEX
  5
45d
  8
Layer_1
  10
60.673218
  20
52.592316
  0
VERTEX
  5
45e
  8
Layer_1
  10
60.040451
  20
56.371429
  0
VERTEX
  5
45f
  8
Layer_1
  10
22.851583
  20
50.144562
  0
VERTEX
  5
460
  8
Layer_1
  10
23.484354
  20
46.365448
  0
VERTEX
  5
461
  8
Layer_1
  10
60.673218
  20
52.592316
  0
SEQEND
  0
POLYLINE
  5
463
  8
Layer_1
  62
202
  70
1
  66
1
  10
0
  20
0
  30
0
  0
VERTEX
  5
463
  8
Layer_1
  10
61.100716
  20
25.433563
  0
VERTEX
  5
464
  8
Layer_1
  10
60.467949
  20
21.654449
  0
VERTEX
  5
465
  8
Layer_1
  10
23.279081
  20
27.881317
  0
VERTEX
  5
466
  8
Layer_1
  10
23.911852
  20
31.660431
  0
VERTEX
  5
467
  8
Layer_1
  10
61.100716
  20
25.433563
  0
SEQEND
  0
POLYLINE
  5
469
  8
Layer_0
  62
0
  70
1
  66
1
  10
0
  20
0
  30
0
  0
VERTEX
  5
469
  8
Layer_0
  10
241.47733
  20
94.92865
  0
VERTEX
  5
46a
  8
Layer_0
  10
240.94092
  20
94.92865
  0
VERTEX
  5
46b
  8
Layer_0
  10
240.94092
  20
97.933136
  0
VERTEX
  5
46c
  8
Layer_0
  10
241.13858
  20
97.919922
  0
VERTEX
  5
46d
  8
Layer_0
  10
241.32849
  20
97.868011
  0
VERTEX
  5
46e
  8
Layer_0
  10
241.63312
  20
97.718811
  0
VERTEX
  5
46f
  8
Layer_0
  10
241.93311
  20
97.50061
  0
VERTEX
  5
470
  8
Layer_0
  10
242.08775
  20
97.360199
  0
VERTEX
  5
471
  8
Layer_0
  10
242.25403
  20
97.191711
  0
VERTEX
  5
472
  8
Layer_0
  10
242.43192
  20
96.995087
  0
VERTEX
  5
473
  8
Layer_0
  10
242.9095
  20
96.429932
  0
VERTEX
  5
474
  8
Layer_0
  10
243.16599
  20
96.149536
  0
VERTEX
  5
475
  8
Layer_0
  10
243.39087
  20
95.929199
  0
VERTEX
  5
476
  8
Layer_0
  10
243.58417
  20
95.768921
  0
VERTEX
  5
477
  8
Layer_0
  10
243.75926
  20
95.654968
  0
VERTEX
  5
478
  8
Layer_0
  10
243.9295
  20
95.573608
  0
VERTEX
  5
479
  8
Layer_0
  10
244.09489
  20
95.52478
  0
VERTEX
  5
47a
  8
Layer_0
  10
244.25545
  20
95.508484
  0
VERTEX
  5
47b
  8
Layer_0
  10
244.41483
  20
95.523315
  0
VERTEX
  5
47c
  8
Layer_0
  10
244.56123
  20
95.56778
  0
VERTEX
  5
47d
  8
Layer_0
  10
244.69466
  20
95.641907
  0
VERTEX
  5
47e
  8
Layer_0
  10
244.81509
  20
95.745667
  0
VERTEX
  5
47f
  8
Layer_0
  10
244.91479
  20
95.873291
  0
VERTEX
  5
480
  8
Layer_0
  10
244.98602
  20
96.018921
  0
VERTEX
  5
481
  8
Layer_0
  10
245.02875
  20
96.182556
  0
VERTEX
  5
482
  8
Layer_0
  10
245.043
  20
96.364227
  0
VERTEX
  5
483
  8
Layer_0
  10
245.02789
  20
96.555695
  0
VERTEX
  5
484
  8
Layer_0
  10
244.98254
  20
96.72699
  0
VERTEX
  5
485
  8
Layer_0
  10
244.90695
  20
96.878143
  0
VERTEX
  5
486
  8
Layer_0
  10
244.80115
  20
97.009155
  0
VERTEX
  5
487
  8
Layer_0
  10
244.66861
  20
97.115173
  0
VERTEX
  5
488
  8
Layer_0
  10
244.51279
  20
97.191315
  0
VERTEX
  5
489
  8
Layer_0
  10
244.33374
  20
97.23761
  0
VERTEX
  5
48a
  8
Layer_0
  10
244.13142
  20
97.254089
  0
VERTEX
  5
48b
  8
Layer_0
  10
244.19034
  20
97.827698
  0
VERTEX
  5
48c
  8
Layer_0
  10
244.49216
  20
97.777893
  0
VERTEX
  5
48d
  8
Layer_0
  10
244.7558
  20
97.687408
  0
VERTEX
  5
48e
  8
Layer_0
  10
244.98126
  20
97.556244
  0
VERTEX
  5
48f
  8
Layer_0
  10
245.16856
  20
97.384338
  0
VERTEX
  5
490
  8
Layer_0
  10
245.31573
  20
97.175598
  0
VERTEX
  5
491
  8
Layer_0
  10
245.42087
  20
96.93396
  0
VERTEX
  5
492
  8
Layer_0
  10
245.48395
  20
96.659363
  0
VERTEX
  5
493
  8
Layer_0
  10
245.50497
  20
96.351837
  0
VERTEX
  5
494
  8
Layer_0
  10
245.4823
  20
96.041748
  0
VERTEX
  5
495
  8
Layer_0
  10
245.41428
  20
95.765808
  0
VERTEX
  5
496
  8
Layer_0
  10
245.3009
  20
95.523987
  0
VERTEX
  5
497
  8
Layer_0
  10
245.14221
  20
95.316223
  0
VERTEX
  5
498
  8
Layer_0
  10
244.94998
  20
95.149353
  0
VERTEX
  5
499
  8
Layer_0
  10
244.73604
  20
95.030212
  0
VERTEX
  5
49a
  8
Layer_0
  10
244.5004
  20
94.958679
  0
VERTEX
  5
49b
  8
Layer_0
  10
244.24304
  20
94.934875
  0
VERTEX
  5
49c
  8
Layer_0
  10
243.97252
  20
94.962769
  0
VERTEX
  5
49d
  8
Layer_0
  10
243.70663
  20
95.046478
  0
VERTEX
  5
49e
  8
Layer_0
  10
243.43613
  20
95.194946
  0
VERTEX
  5
49f
  8
Layer_0
  10
243.15164
  20
95.416992
  0
VERTEX
  5
4a0
  8
Layer_0
  10
242.99234
  20
95.567871
  0
VERTEX
  5
4a1
  8
Layer_0
  10
242.80591
  20
95.761566
  0
VERTEX
  5
4a2
  8
Layer_0
  10
242.59238
  20
95.998077
  0
VERTEX
  5
4a3
  8
Layer_0
  10
242.35168
  20
96.277405
  0
VERTEX
  5
4a4
  8
Layer_0
  10
242.15779
  20
96.506042
  0
VERTEX
  5
4a5
  8
Layer_0
  10
241.99783
  20
96.689758
  0
VERTEX
  5
4a6
  8
Layer_0
  10
241.87177
  20
96.828552
  0
VERTEX
  5
4a7
  8
Layer_0
  10
241.77963
  20
96.922333
  0
VERTEX
  5
4a8
  8
Layer_0
  10
241.62885
  20
97.052582
  0
VERTEX
  5
4a9
  8
Layer_0
  10
241.47733
  20
97.15799
  0
VERTEX
  5
4aa
  8
Layer_0
  10
241.47733
  20
94.92865
  0
SEQEND
  0
POLYLINE
  5
4ac
  8
Layer_0
  62
0
  70
1
  66
1
  10
0
  20
0
  30
0
  0
VERTEX
  5
4ac
  8
Layer_0
  10
240.94092
  20
92.541595
  0
VERTEX
  5
4ad
  8
Layer_0
  10
242.02922
  20
92.541595
  0
VERTEX
  5
4ae
  8
Layer_0
  10
242.02922
  20
94.51355
  0
VERTEX
  5
4af
  8
Layer_0
  10
242.54082
  20
94.51355
  0
VERTEX
  5
4b0
  8
Layer_0
  10
245.48637
  20
92.43927
  0
VERTEX
  5
4b1
  8
Layer_0
  10
245.48637
  20
91.98349
  0
VERTEX
  5
4b2
  8
Layer_0
  10
242.54082
  20
91.98349
  0
VERTEX
  5
4b3
  8
Layer_0
  10
242.54082
  20
91.369568
  0
VERTEX
  5
4b4
  8
Layer_0
  10
242.02922
  20
91.369568
  0
VERTEX
  5
4b5
  8
Layer_0
  10
242.02922
  20
91.98349
  0
VERTEX
  5
4b6
  8
Layer_0
  10
240.94092
  20
91.98349
  0
VERTEX
  5
4b7
  8
Layer_0
  10
240.94092
  20
92.541595
  0
SEQEND
  0
POLYLINE
  5
4b9
  8
Layer_0
  62
0
  70
1
  66
1
  10
0
  20
0
  30
0
  0
VERTEX
  5
4b9
  8
Layer_0
  10
242.54082
  20
92.541595
  0
VERTEX
  5
4ba
  8
Layer_0
  10
244.5903
  20
92.541595
  0
VERTEX
  5
4bb
  8
Layer_0
  10
242.54082
  20
93.964752
  0
VERTEX
  5
4bc
  8
Layer_0
  10
242.54082
  20
92.541595
  0
SEQEND
  0
POLYLINE
  5
4be
  8
Layer_0
  62
0
  70
1
  66
1
  10
0
  20
0
  30
0
  0
VERTEX
  5
4be
  8
Layer_0
  10
219.20291
  20
81.594604
  0
VERTEX
  5
4bf
  8
Layer_0
  10
219.20291
  20
82.15271
  0
VERTEX
  5
4c0
  8
Layer_0
  10
222.75928
  20
82.15271
  0
VERTEX
  5
4c1
  8
Layer_0
  10
222.56705
  20
82.385651
  0
VERTEX
  5
4c2
  8
Layer_0
  10
222.37482
  20
82.681366
  0
VERTEX
  5
4c3
  8
Layer_0
  10
222.2066
  20
82.991821
  0
VERTEX
  5
4c4
  8
Layer_0
  10
222.08646
  20
83.268921
  0
VERTEX
  5
4c5
  8
Layer_0
  10
222.62596
  20
83.268921
  0
VERTEX
  5
4c6
  8
Layer_0
  10
222.86935
  20
82.8302
  0
VERTEX
  5
4c7
  8
Layer_0
  10
223.15926
  20
82.450378
  0
VERTEX
  5
4c8
  8
Layer_0
  10
223.31467
  20
82.287964
  0
VERTEX
  5
4c9
  8
Layer_0
  10
223.46777
  20
82.151154
  0
VERTEX
  5
4ca
  8
Layer_0
  10
223.61853
  20
82.039948
  0
VERTEX
  5
4cb
  8
Layer_0
  10
223.76697
  20
81.954285
  0
VERTEX
  5
4cc
  8
Layer_0
  10
223.76697
  20
81.594604
  0
VERTEX
  5
4cd
  8
Layer_0
  10
219.20291
  20
81.594604
  0
SEQEND
  0
POLYLINE
  5
4cf
  8
Layer_0
  62
0
  70
1
  66
1
  10
0
  20
0
  30
0
  0
VERTEX
  5
4cf
  8
Layer_0
  10
222.63525
  20
77.269653
  0
VERTEX
  5
4d0
  8
Layer_0
  10
222.59186
  20
77.824677
  0
VERTEX
  5
4d1
  8
Layer_0
  10
222.87555
  20
77.914612
  0
VERTEX
  5
4d2
  8
Layer_0
  10
223.06934
  20
78.035522
  0
VERTEX
  5
4d3
  8
Layer_0
  10
223.1738
  20
78.155273
  0
VERTEX
  5
4d4
  8
Layer_0
  10
223.24841
  20
78.288208
  0
VERTEX
  5
4d5
  8
Layer_0
  10
223.29318
  20
78.434326
  0
VERTEX
  5
4d6
  8
Layer_0
  10
223.30809
  20
78.593628
  0
VERTEX
  5
4d7
  8
Layer_0
  10
223.29878
  20
78.7229
  0
VERTEX
  5
4d8
  8
Layer_0
  10
223.27087
  20
78.843994
  0
VERTEX
  5
4d9
  8
Layer_0
  10
223.22437
  20
78.95697
  0
VERTEX
  5
4da
  8
Layer_0
  10
223.15926
  20
79.061798
  0
VERTEX
  5
4db
  8
Layer_0
  10
223.05209
  20
79.186615
  0
VERTEX
  5
4dc
  8
Layer_0
  10
222.92284
  20
79.297455
  0
VERTEX
  5
4dd
  8
Layer_0
  10
222.77148
  20
79.394348
  0
VERTEX
  5
4de
  8
Layer_0
  10
222.59805
  20
79.477295
  0
VERTEX
  5
4df
  8
Layer_0
  10
222.39398
  20
79.544128
  0
VERTEX
  5
4e0
  8
Layer_0
  10
222.15079
  20
79.592773
  0
VERTEX
  5
4e1
  8
Layer_0
  10
221.86844
  20
79.623199
  0
VERTEX
  5
4e2
  8
Layer_0
  10
221.54695
  20
79.635406
  0
VERTEX
  5
4e3
  8
Layer_0
  10
221.69054
  20
79.528992
  0
VERTEX
  5
4e4
  8
Layer_0
  10
221.81436
  20
79.411377
  0
VERTEX
  5
4e5
  8
Layer_0
  10
221.91843
  20
79.282501
  0
VERTEX
  5
4e6
  8
Layer_0
  10
222.00275
  20
79.142426
  0
VERTEX
  5
4e7
  8
Layer_0
  10
222.06786
  20
78.994965
  0
VERTEX
  5
4e8
  8
Layer_0
  10
222.11436
  20
78.843994
  0
VERTEX
  5
4e9
  8
Layer_0
  10
222.14227
  20
78.689545
  0
VERTEX
  5
4ea
  8
Layer_0
  10
222.15157
  20
78.531616
  0
VERTEX
  5
4eb
  8
Layer_0
  10
222.12589
  20
78.262939
  0
VERTEX
  5
4ec
  8
Layer_0
  10
222.04886
  20
78.014954
  0
VERTEX
  5
4ed
  8
Layer_0
  10
221.92047
  20
77.78775
  0
VERTEX
  5
4ee
  8
Layer_0
  10
221.74074
  20
77.581268
  0
VERTEX
  5
4ef
  8
Layer_0
  10
221.52029
  20
77.409668
  0
VERTEX
  5
4f0
  8
Layer_0
  10
221.26984
  20
77.287109
  0
VERTEX
  5
4f1
  8
Layer_0
  10
220.98932
  20
77.213562
  0
VERTEX
  5
4f2
  8
Layer_0
  10
220.67879
  20
77.189056
  0
VERTEX
  5
4f3
  8
Layer_0
  10
220.46863
  20
77.200562
  0
VERTEX
  5
4f4
  8
Layer_0
  10
220.26602
  20
77.235168
  0
VERTEX
  5
4f5
  8
Layer_0
  10
220.07095
  20
77.292847
  0
VERTEX
  5
4f6
  8
Layer_0
  10
219.88348
  20
77.373535
  0
VERTEX
  5
4f7
  8
Layer_0
  10
219.71054
  20
77.474365
  0
VERTEX
  5
4f8
  8
Layer_0
  10
219.5591
  20
77.592499
  0
VERTEX
  5
4f9
  8
Layer_0
  10
219.42917
  20
77.727875
  0
VERTEX
  5
4fa
  8
Layer_0
  10
219.32074
  20
77.880493
  0
VERTEX
  5
4fb
  8
Layer_0
  10
219.23526
  20
78.04715
  0
VERTEX
  5
4fc
  8
Layer_0
  10
219.17422
  20
78.22464
  0
VERTEX
  5
4fd
  8
Layer_0
  10
219.1376
  20
78.412994
  0
VERTEX
  5
4fe
  8
Layer_0
  10
219.1254
  20
78.612213
  0
VERTEX
  5
4ff
  8
Layer_0
  10
219.15746
  20
78.944946
  0
VERTEX
  5
500
  8
Layer_0
  10
219.25368
  20
79.245514
  0
VERTEX
  5
501
  8
Layer_0
  10
219.41403
  20
79.513916
  0
VERTEX
  5
502
  8
Layer_0
  10
219.63855
  20
79.750122
  0
VERTEX
  5
503
  8
Layer_0
  10
219.93669
  20
79.94281
  0
VERTEX
  5
504
  8
Layer_0
  10
220.31796
  20
80.080383
  0
VERTEX
  5
505
  8
Layer_0
  10
220.78236
  20
80.162933
  0
VERTEX
  5
506
  8
Layer_0
  10
221.32991
  20
80.19043
  0
VERTEX
  5
507
  8
Layer_0
  10
221.6481
  20
80.182831
  0
VERTEX
  5
508
  8
Layer_0
  10
221.94383
  20
80.160004
  0
VERTEX
  5
509
  8
Layer_0
  10
222.21707
  20
80.121948
  0
VERTEX
  5
50a
  8
Layer_0
  10
222.46783
  20
80.068726
  0
VERTEX
  5
50b
  8
Layer_0
  10
222.69611
  20
80.000244
  0
VERTEX
  5
50c
  8
Layer_0
  10
222.90192
  20
79.916565
  0
VERTEX
  5
50d
  8
Layer_0
  10
223.08522
  20
79.817688
  0
VERTEX
  5
50e
  8
Layer_0
  10
223.24608
  20
79.703613
  0
VERTEX
  5
50f
  8
Layer_0
  10
223.47397
  20
79.472809
  0
VERTEX
  5
510
  8
Layer_0
  10
223.63675
  20
79.2052
  0
VERTEX
  5
511
  8
Layer_0
  10
223.73441
  20
78.900757
  0
VERTEX
  5
512
  8
Layer_0
  10
223.76697
  20
78.559509
  0
VERTEX
  5
513
  8
Layer_0
  10
223.74818
  20
78.303406
  0
VERTEX
  5
514
  8
Layer_0
  10
223.69179
  20
78.071564
  0
VERTEX
  5
515
  8
Layer_0
  10
223.59781
  20
77.863892
  0
VERTEX
  5
516
  8
Layer_0
  10
223.46622
  20
77.680481
  0
VERTEX
  5
517
  8
Layer_0
  10
223.30148
  20
77.526367
  0
VERTEX
  5
518
  8
Layer_0
  10
223.10809
  20
77.406494
  0
VERTEX
  5
519
  8
Layer_0
  10
222.88602
  20
77.320923
  0
VERTEX
  5
51a
  8
Layer_0
  10
222.63525
  20
77.269653
  0
SEQEND
  0
POLYLINE
  5
51c
  8
Layer_0
  62
0
  70
1
  66
1
  10
0
  20
0
  30
0
  0
VERTEX
  5
51c
  8
Layer_0
  10
220.67569
  20
79.548584
  0
VERTEX
  5
51d
  8
Layer_0
  10
220.39355
  20
79.517975
  0
VERTEX
  5
51e
  8
Layer_0
  10
220.12378
  20
79.426117
  0
VERTEX
  5
51f
  8
Layer_0
  10
219.99988
  20
79.358795
  0
VERTEX
  5
520
  8
Layer_0
  10
219.89163
  20
79.279236
  0
VERTEX
  5
521
  8
Layer_0
  10
219.7991
  20
79.187469
  0
VERTEX
  5
522
  8
Layer_0
  10
219.72226
  20
79.083496
  0
VERTEX
  5
523
  8
Layer_0
  10
219.61879
  20
78.857941
  0
VERTEX
  5
524
  8
Layer_0
  10
219.58429
  20
78.621521
  0
VERTEX
  5
525
  8
Layer_0
  10
219.60213
  20
78.450989
  0
VERTEX
  5
526
  8
Layer_0
  10
219.65561
  20
78.292877
  0
VERTEX
  5
527
  8
Layer_0
  10
219.74475
  20
78.147156
  0
VERTEX
  5
528
  8
Layer_0
  10
219.86954
  20
78.013794
  0
VERTEX
  5
529
  8
Layer_0
  10
220.02496
  20
77.902588
  0
VERTEX
  5
52a
  8
Layer_0
  10
220.20596
  20
77.82312
  0
VERTEX
  5
52b
  8
Layer_0
  10
220.41254
  20
77.775452
  0
VERTEX
  5
52c
  8
Layer_0
  10
220.64468
  20
77.759552
  0
VERTEX
  5
52d
  8
Layer_0
  10
220.86783
  20
77.775238
  0
VERTEX
  5
52e
  8
Layer_0
  10
221.06598
  20
77.822327
  0
VERTEX
  5
52f
  8
Layer_0
  10
221.23912
  20
77.900848
  0
VERTEX
  5
530
  8
Layer_0
  10
221.38727
  20
78.010712
  0
VERTEX
  5
531
  8
Layer_0
  10
221.50598
  20
78.144409
  0
VERTEX
  5
532
  8
Layer_0
  10
221.59074
  20
78.294434
  0
VERTEX
  5
533
  8
Layer_0
  10
221.64162
  20
78.460693
  0
VERTEX
  5
534
  8
Layer_0
  10
221.65857
  20
78.643219
  0
VERTEX
  5
535
  8
Layer_0
  10
221.64162
  20
78.825195
  0
VERTEX
  5
536
  8
Layer_0
  10
221.59074
  20
78.992828
  0
VERTEX
  5
537
  8
Layer_0
  10
221.50598
  20
79.146118
  0
VERTEX
  5
538
  8
Layer_0
  10
221.38727
  20
79.285034
  0
VERTEX
  5
539
  8
Layer_0
  10
221.24106
  20
79.40033
  0
VERTEX
  5
53a
  8
Layer_0
  10
221.07373
  20
79.482697
  0
VERTEX
  5
53b
  8
Layer_0
  10
220.88528
  20
79.532104
  0
VERTEX
  5
53c
  8
Layer_0
  10
220.67569
  20
79.548584
  0
SEQEND
  0
POLYLINE
  5
53e
  8
Layer_0
  62
0
  70
1
  66
1
  10
0
  20
0
  30
0
  0
VERTEX
  5
53e
  8
Layer_0
  10
196.20593
  20
112.66864
  0
VERTEX
  5
53f
  8
Layer_0
  10
196.20593
  20
113.22675
  0
VERTEX
  5
540
  8
Layer_0
  10
199.7623
  20
113.22675
  0
VERTEX
  5
541
  8
Layer_0
  10
199.57007
  20
113.45969
  0
VERTEX
  5
542
  8
Layer_0
  10
199.37784
  20
113.7554
  0
VERTEX
  5
543
  8
Layer_0
  10
199.20963
  20
114.06586
  0
VERTEX
  5
544
  8
Layer_0
  10
199.08948
  20
114.34296
  0
VERTEX
  5
545
  8
Layer_0
  10
199.62898
  20
114.34296
  0
VERTEX
  5
546
  8
Layer_0
  10
199.87238
  20
113.90424
  0
VERTEX
  5
547
  8
Layer_0
  10
200.16228
  20
113.52441
  0
VERTEX
  5
548
  8
Layer_0
  10
200.31769
  20
113.362
  0
VERTEX
  5
549
  8
Layer_0
  10
200.47079
  20
113.22519
  0
VERTEX
  5
54a
  8
Layer_0
  10
200.62155
  20
113.11398
  0
VERTEX
  5
54b
  8
Layer_0
  10
200.76999
  20
113.02832
  0
VERTEX
  5
54c
  8
Layer_0
  10
200.76999
  20
112.66864
  0
VERTEX
  5
54d
  8
Layer_0
  10
196.20593
  20
112.66864
  0
SEQEND
  0
POLYLINE
  5
54f
  8
Layer_0
  62
0
  70
1
  66
1
  10
0
  20
0
  30
0
  0
VERTEX
  5
54f
  8
Layer_0
  10
196.74234
  20
108.30649
  0
VERTEX
  5
550
  8
Layer_0
  10
196.20593
  20
108.30649
  0
VERTEX
  5
551
  8
Layer_0
  10
196.20593
  20
111.31097
  0
VERTEX
  5
552
  8
Layer_0
  10
196.40359
  20
111.29779
  0
VERTEX
  5
553
  8
Layer_0
  10
196.59351
  20
111.24585
  0
VERTEX
  5
554
  8
Layer_0
  10
196.89813
  20
111.09665
  0
VERTEX
  5
555
  8
Layer_0
  10
197.19812
  20
110.87842
  0
VERTEX
  5
556
  8
Layer_0
  10
197.35277
  20
110.73801
  0
VERTEX
  5
557
  8
Layer_0
  10
197.51904
  20
110.56952
  0
VERTEX
  5
558
  8
Layer_0
  10
197.69693
  20
110.37292
  0
VERTEX
  5
559
  8
Layer_0
  10
198.17451
  20
109.80777
  0
VERTEX
  5
55a
  8
Layer_0
  10
198.431
  20
109.52734
  0
VERTEX
  5
55b
  8
Layer_0
  10
198.65588
  20
109.30701
  0
VERTEX
  5
55c
  8
Layer_0
  10
198.84918
  20
109.14676
  0
VERTEX
  5
55d
  8
Layer_0
  10
199.02428
  20
109.03281
  0
VERTEX
  5
55e
  8
Layer_0
  10
199.19452
  20
108.95142
  0
VERTEX
  5
55f
  8
Layer_0
  10
199.35991
  20
108.90259
  0
VERTEX
  5
560
  8
Layer_0
  10
199.52046
  20
108.88629
  0
VERTEX
  5
561
  8
Layer_0
  10
199.67984
  20
108.90112
  0
VERTEX
  5
562
  8
Layer_0
  10
199.82625
  20
108.94562
  0
VERTEX
  5
563
  8
Layer_0
  10
199.95967
  20
109.01971
  0
VERTEX
  5
564
  8
Layer_0
  10
200.08011
  20
109.1235
  0
VERTEX
  5
565
  8
Layer_0
  10
200.17981
  20
109.2511
  0
VERTEX
  5
566
  8
Layer_0
  10
200.25104
  20
109.39673
  0
VERTEX
  5
567
  8
Layer_0
  10
200.29376
  20
109.56036
  0
VERTEX
  5
568
  8
Layer_0
  10
200.30801
  20
109.74207
  0
VERTEX
  5
569
  8
Layer_0
  10
200.29291
  20
109.93353
  0
VERTEX
  5
56a
  8
Layer_0
  10
200.24756
  20
110.10486
  0
VERTEX
  5
56b
  8
Layer_0
  10
200.17197
  20
110.25601
  0
VERTEX
  5
56c
  8
Layer_0
  10
200.06616
  20
110.38699
  0
VERTEX
  5
56d
  8
Layer_0
  10
199.93362
  20
110.49298
  0
VERTEX
  5
56e
  8
Layer_0
  10
199.7778
  20
110.56915
  0
VERTEX
  5
56f
  8
Layer_0
  10
199.59875
  20
110.61545
  0
VERTEX
  5
570
  8
Layer_0
  10
199.39644
  20
110.63193
  0
VERTEX
  5
571
  8
Layer_0
  10
199.45535
  20
111.20554
  0
VERTEX
  5
572
  8
Layer_0
  10
199.75717
  20
111.15576
  0
VERTEX
  5
573
  8
Layer_0
  10
200.02081
  20
111.06525
  0
VERTEX
  5
574
  8
Layer_0
  10
200.24628
  20
110.93405
  0
VERTEX
  5
575
  8
Layer_0
  10
200.43358
  20
110.76215
  0
VERTEX
  5
576
  8
Layer_0
  10
200.58075
  20
110.55341
  0
VERTEX
  5
577
  8
Layer_0
  10
200.68588
  20
110.31177
  0
VERTEX
  5
578
  8
Layer_0
  10
200.74896
  20
110.0372
  0
VERTEX
  5
579
  8
Layer_0
  10
200.76999
  20
109.72968
  0
VERTEX
  5
57a
  8
Layer_0
  10
200.74731
  20
109.41962
  0
VERTEX
  5
57b
  8
Layer_0
  10
200.67929
  20
109.14365
  0
VERTEX
  5
57c
  8
Layer_0
  10
200.56592
  20
108.90179
  0
VERTEX
  5
57d
  8
Layer_0
  10
200.40723
  20
108.69406
  0
VERTEX
  5
57e
  8
Layer_0
  10
200.215
  20
108.52722
  0
VERTEX
  5
57f
  8
Layer_0
  10
200.00105
  20
108.40805
  0
VERTEX
  5
580
  8
Layer_0
  10
199.76541
  20
108.33652
  0
VERTEX
  5
581
  8
Layer_0
  10
199.50806
  20
108.31268
  0
VERTEX
  5
582
  8
Layer_0
  10
199.23753
  20
108.34058
  0
VERTEX
  5
583
  8
Layer_0
  10
198.97165
  20
108.42432
  0
VERTEX
  5
584
  8
Layer_0
  10
198.70114
  20
108.57275
  0
VERTEX
  5
585
  8
Layer_0
  10
198.41666
  20
108.79483
  0
VERTEX
  5
586
  8
Layer_0
  10
198.25735
  20
108.94568
  0
VERTEX
  5
587
  8
Layer_0
  10
198.07092
  20
109.13937
  0
VERTEX
  5
588
  8
Layer_0
  10
197.85739
  20
109.37592
  0
VERTEX
  5
589
  8
Layer_0
  10
197.6167
  20
109.65524
  0
VERTEX
  5
58a
  8
Layer_0
  10
197.42281
  20
109.88391
  0
VERTEX
  5
58b
  8
Layer_0
  10
197.26285
  20
110.06763
  0
VERTEX
  5
58c
  8
Layer_0
  10
197.13678
  20
110.20636
  0
VERTEX
  5
58d
  8
Layer_0
  10
197.04465
  20
110.30017
  0
VERTEX
  5
58e
  8
Layer_0
  10
196.89386
  20
110.43039
  0
VERTEX
  5
58f
  8
Layer_0
  10
196.74234
  20
110.53583
  0
VERTEX
  5
590
  8
Layer_0
  10
196.74234
  20
108.30649
  0
SEQEND
  0
POLYLINE
  5
592
  8
Layer_0
  62
0
  70
1
  66
1
  10
0
  20
0
  30
0
  0
VERTEX
  5
592
  8
Layer_0
  10
172.9679
  20
80.605957
  0
VERTEX
  5
593
  8
Layer_0
  10
173.03824
  20
80.768341
  0
VERTEX
  5
594
  8
Layer_0
  10
173.12213
  20
80.908264
  0
VERTEX
  5
595
  8
Layer_0
  10
173.2196
  20
81.025696
  0
VERTEX
  5
596
  8
Layer_0
  10
173.33066
  20
81.120636
  0
VERTEX
  5
597
  8
Layer_0
  10
173.4543
  20
81.193909
  0
VERTEX
  5
598
  8
Layer_0
  10
173.58957
  20
81.246216
  0
VERTEX
  5
599
  8
Layer_0
  10
173.73645
  20
81.277649
  0
VERTEX
  5
59a
  8
Layer_0
  10
173.89497
  20
81.288086
  0
VERTEX
  5
59b
  8
Layer_0
  10
174.13313
  20
81.265778
  0
VERTEX
  5
59c
  8
Layer_0
  10
174.35153
  20
81.198914
  0
VERTEX
  5
59d
  8
Layer_0
  10
174.55017
  20
81.087463
  0
VERTEX
  5
59e
  8
Layer_0
  10
174.72903
  20
80.931519
  0
VERTEX
  5
59f
  8
Layer_0
  10
174.87686
  20
80.738495
  0
VERTEX
  5
5a0
  8
Layer_0
  10
174.98248
  20
80.515991
  0
VERTEX
  5
5a1
  8
Layer_0
  10
175.04585
  20
80.264099
  0
VERTEX
  5
5a2
  8
Layer_0
  10
175.06699
  20
79.982727
  0
VERTEX
  5
5a3
  8
Layer_0
  10
175.04538
  20
79.699585
  0
VERTEX
  5
5a4
  8
Layer_0
  10
174.98056
  20
79.445557
  0
VERTEX
  5
5a5
  8
Layer_0
  10
174.87253
  20
79.220581
  0
VERTEX
  5
5a6
  8
Layer_0
  10
174.72128
  20
79.024658
  0
VERTEX
  5
5a7
  8
Layer_0
  10
174.53902
  20
78.865967
  0
VERTEX
  5
5a8
  8
Layer_0
  10
174.33797
  20
78.752594
  0
VERTEX
  5
5a9
  8
Layer_0
  10
174.11812
  20
78.68457
  0
VERTEX
  5
5aa
  8
Layer_0
  10
173.87947
  20
78.661896
  0
VERTEX
  5
5ab
  8
Layer_0
  10
173.72647
  20
78.672272
  0
VERTEX
  5
5ac
  8
Layer_0
  10
173.58374
  20
78.703369
  0
VERTEX
  5
5ad
  8
Layer_0
  10
173.45129
  20
78.755188
  0
VERTEX
  5
5ae
  8
Layer_0
  10
173.32912
  20
78.827759
  0
VERTEX
  5
5af
  8
Layer_0
  10
173.21875
  20
78.921478
  0
VERTEX
  5
5b0
  8
Layer_0
  10
173.12177
  20
79.036682
  0
VERTEX
  5
5b1
  8
Layer_0
  10
173.03815
  20
79.173401
  0
VERTEX
  5
5b2
  8
Layer_0
  10
172.9679
  20
79.331604
  0
VERTEX
  5
5b3
  8
Layer_0
  10
172.88922
  20
79.134796
  0
VERTEX
  5
5b4
  8
Layer_0
  10
172.78961
  20
78.963013
  0
VERTEX
  5
5b5
  8
Layer_0
  10
172.6691
  20
78.816223
  0
VERTEX
  5
5b6
  8
Layer_0
  10
172.52762
  20
78.694427
  0
VERTEX
  5
5b7
  8
Layer_0
  10
172.36832
  20
78.598816
  0
VERTEX
  5
5b8
  8
Layer_0
  10
172.19429
  20
78.530518
  0
VERTEX
  5
5b9
  8
Layer_0
  10
172.00554
  20
78.489532
  0
VERTEX
  5
5ba
  8
Layer_0
  10
171.80208
  20
78.475861
  0
VERTEX
  5
5bb
  8
Layer_0
  10
171.52225
  20
78.501617
  0
VERTEX
  5
5bc
  8
Layer_0
  10
171.26569
  20
78.578949
  0
VERTEX
  5
5bd
  8
Layer_0
  10
171.03236
  20
78.707794
  0
VERTEX
  5
5be
  8
Layer_0
  10
170.8223
  20
78.888214
  0
VERTEX
  5
5bf
  8
Layer_0
  10
170.64867
  20
79.110718
  0
VERTEX
  5
5c0
  8
Layer_0
  10
170.52464
  20
79.365723
  0
VERTEX
  5
5c1
  8
Layer_0
  10
170.45023
  20
79.65329
  0
VERTEX
  5
5c2
  8
Layer_0
  10
170.42542
  20
79.973419
  0
VERTEX
  5
5c3
  8
Layer_0
  10
170.45032
  20
80.293549
  0
VERTEX
  5
5c4
  8
Layer_0
  10
170.52502
  20
80.581146
  0
VERTEX
  5
5c5
  8
Layer_0
  10
170.64954
  20
80.836182
  0
VERTEX
  5
5c6
  8
Layer_0
  10
170.82384
  20
81.058624
  0
VERTEX
  5
5c7
  8
Layer_0
  10
171.03535
  20
81.239044
  0
VERTEX
  5
5c8
  8
Layer_0
  10
171.27148
  20
81.36792
  0
VERTEX
  5
5c9
  8
Layer_0
  10
171.53223
  20
81.445221
  0
VERTEX
  5
5ca
  8
Layer_0
  10
171.81758
  20
81.471008
  0
VERTEX
  5
5cb
  8
Layer_0
  10
172.03027
  20
81.45694
  0
VERTEX
  5
5cc
  8
Layer_0
  10
172.22493
  20
81.414795
  0
VERTEX
  5
5cd
  8
Layer_0
  10
172.40155
  20
81.344543
  0
VERTEX
  5
5ce
  8
Layer_0
  10
172.56017
  20
81.246216
  0
VERTEX
  5
5cf
  8
Layer_0
  10
172.69788
  20
81.121887
  0
VERTEX
  5
5d0
  8
Layer_0
  10
172.81171
  20
80.973755
  0
VERTEX
  5
5d1
  8
Layer_0
  10
172.90173
  20
80.801788
  0
VERTEX
  5
5d2
  8
Layer_0
  10
172.9679
  20
80.605957
  0
SEQEND
  0
POLYLINE
  5
5d4
  8
Layer_0
  62
0
  70
1
  66
1
  10
0
  20
0
  30
0
  0
VERTEX
  5
5d4
  8
Layer_0
  10
173.91357
  20
80.71756
  0
VERTEX
  5
5d5
  8
Layer_0
  10
173.7597
  20
80.70459
  0
VERTEX
  5
5d6
  8
Layer_0
  10
173.62057
  20
80.665619
  0
VERTEX
  5
5d7
  8
Layer_0
  10
173.49615
  20
80.600708
  0
VERTEX
  5
5d8
  8
Layer_0
  10
173.38647
  20
80.509827
  0
VERTEX
  5
5d9
  8
Layer_0
  10
173.29697
  20
80.398254
  0
VERTEX
  5
5da
  8
Layer_0
  10
173.233
  20
80.271118
  0
VERTEX
  5
5db
  8
Layer_0
  10
173.19463
  20
80.128479
  0
VERTEX
  5
5dc
  8
Layer_0
  10
173.18184
  20
79.970337
  0
VERTEX
  5
5dd
  8
Layer_0
  10
173.19453
  20
79.816406
  0
VERTEX
  5
5de
  8
Layer_0
  10
173.2326
  20
79.676941
  0
VERTEX
  5
5df
  8
Layer_0
  10
173.29608
  20
79.552032
  0
VERTEX
  5
5e0
  8
Layer_0
  10
173.38492
  20
79.441681
  0
VERTEX
  5
5e1
  8
Layer_0
  10
173.49217
  20
79.351471
  0
VERTEX
  5
5e2
  8
Layer_0
  10
173.61087
  20
79.287048
  0
VERTEX
  5
5e3
  8
Layer_0
  10
173.741
  20
79.248383
  0
VERTEX
  5
5e4
  8
Layer_0
  10
173.88257
  20
79.235504
  0
VERTEX
  5
5e5
  8
Layer_0
  10
174.02994
  20
79.248779
  0
VERTEX
  5
5e6
  8
Layer_0
  10
174.16512
  20
79.288574
  0
VERTEX
  5
5e7
  8
Layer_0
  10
174.28807
  20
79.35495
  0
VERTEX
  5
5e8
  8
Layer_0
  10
174.39882
  20
79.447876
  0
VERTEX
  5
5e9
  8
Layer_0
  10
174.49039
  20
79.560577
  0
VERTEX
  5
5ea
  8
Layer_0
  10
174.55579
  20
79.686249
  0
VERTEX
  5
5eb
  8
Layer_0
  10
174.59503
  20
79.82489
  0
VERTEX
  5
5ec
  8
Layer_0
  10
174.60811
  20
79.976532
  0
VERTEX
  5
5ed
  8
Layer_0
  10
174.59532
  20
80.129456
  0
VERTEX
  5
5ee
  8
Layer_0
  10
174.55695
  20
80.268799
  0
VERTEX
  5
5ef
  8
Layer_0
  10
174.49298
  20
80.394531
  0
VERTEX
  5
5f0
  8
Layer_0
  10
174.40347
  20
80.506744
  0
VERTEX
  5
5f1
  8
Layer_0
  10
174.29611
  20
80.598999
  0
VERTEX
  5
5f2
  8
Layer_0
  10
174.17868
  20
80.664856
  0
VERTEX
  5
5f3
  8
Layer_0
  10
174.05118
  20
80.704407
  0
VERTEX
  5
5f4
  8
Layer_0
  10
173.91357
  20
80.71756
  0
SEQEND
  0
POLYLINE
  5
5f6
  8
Layer_0
  62
0
  70
1
  66
1
  10
0
  20
0
  30
0
  0
VERTEX
  5
5f6
  8
Layer_0
  10
171.81448
  20
80.8974
  0
VERTEX
  5
5f7
  8
Layer_0
  10
171.57961
  20
80.86911
  0
VERTEX
  5
5f8
  8
Layer_0
  10
171.35249
  20
80.784241
  0
VERTEX
  5
5f9
  8
Layer_0
  10
171.15445
  20
80.643555
  0
VERTEX
  5
5fa
  8
Layer_0
  10
171.00677
  20
80.447815
  0
VERTEX
  5
5fb
  8
Layer_0
  10
170.91492
  20
80.216034
  0
VERTEX
  5
5fc
  8
Layer_0
  10
170.88431
  20
79.967224
  0
VERTEX
  5
5fd
  8
Layer_0
  10
170.90039
  20
79.77597
  0
VERTEX
  5
5fe
  8
Layer_0
  10
170.94864
  20
79.602142
  0
VERTEX
  5
5ff
  8
Layer_0
  10
171.02905
  20
79.44577
  0
VERTEX
  5
600
  8
Layer_0
  10
171.14165
  20
79.306793
  0
VERTEX
  5
601
  8
Layer_0
  10
171.27905
  20
79.192871
  0
VERTEX
  5
602
  8
Layer_0
  10
171.43387
  20
79.11145
  0
VERTEX
  5
603
  8
Layer_0
  10
171.60614
  20
79.062622
  0
VERTEX
  5
604
  8
Layer_0
  10
171.79587
  20
79.046356
  0
VERTEX
  5
605
  8
Layer_0
  10
171.98871
  20
79.06311
  0
VERTEX
  5
606
  8
Layer_0
  10
172.16406
  20
79.113403
  0
VERTEX
  5
607
  8
Layer_0
  10
172.32202
  20
79.197205
  0
VERTEX
  5
608
  8
Layer_0
  10
172.46249
  20
79.314545
  0
VERTEX
  5
609
  8
Layer_0
  10
172.5778
  20
79.457062
  0
VERTEX
  5
60a
  8
Layer_0
  10
172.66016
  20
79.616455
  0
VERTEX
  5
60b
  8
Layer_0
  10
172.70956
  20
79.792725
  0
VERTEX
  5
60c
  8
Layer_0
  10
172.72604
  20
79.98584
  0
VERTEX
  5
60d
  8
Layer_0
  10
172.70976
  20
80.174316
  0
VERTEX
  5
60e
  8
Layer_0
  10
172.66095
  20
80.345886
  0
VERTEX
  5
60f
  8
Layer_0
  10
172.57956
  20
80.50061
  0
VERTEX
  5
610
  8
Layer_0
  10
172.46561
  20
80.638519
  0
VERTEX
  5
611
  8
Layer_0
  10
172.32724
  20
80.75177
  0
VERTEX
  5
612
  8
Layer_0
  10
172.17259
  20
80.832672
  0
VERTEX
  5
613
  8
Layer_0
  10
172.00168
  20
80.881226
  0
VERTEX
  5
614
  8
Layer_0
  10
171.81448
  20
80.8974
  0
SEQEND
  0
POLYLINE
  5
616
  8
Layer_0
  62
0
  70
1
  66
1
  10
0
  20
0
  30
0
  0
VERTEX
  5
616
  8
Layer_0
  10
146.27893
  20
117.01581
  0
VERTEX
  5
617
  8
Layer_0
  10
147.36723
  20
117.01581
  0
VERTEX
  5
618
  8
Layer_0
  10
147.36723
  20
118.98776
  0
VERTEX
  5
619
  8
Layer_0
  10
147.87883
  20
118.98776
  0
VERTEX
  5
61a
  8
Layer_0
  10
150.82439
  20
116.91348
  0
VERTEX
  5
61b
  8
Layer_0
  10
150.82439
  20
116.4577
  0
VERTEX
  5
61c
  8
Layer_0
  10
147.87883
  20
116.4577
  0
VERTEX
  5
61d
  8
Layer_0
  10
147.87883
  20
115.84378
  0
VERTEX
  5
61e
  8
Layer_0
  10
147.36723
  20
115.84378
  0
VERTEX
  5
61f
  8
Layer_0
  10
147.36723
  20
116.4577
  0
VERTEX
  5
620
  8
Layer_0
  10
146.27893
  20
116.4577
  0
VERTEX
  5
621
  8
Layer_0
  10
146.27893
  20
117.01581
  0
SEQEND
  0
POLYLINE
  5
623
  8
Layer_0
  62
0
  70
1
  66
1
  10
0
  20
0
  30
0
  0
VERTEX
  5
623
  8
Layer_0
  10
147.87883
  20
117.01581
  0
VERTEX
  5
624
  8
Layer_0
  10
149.92831
  20
117.01581
  0
VERTEX
  5
625
  8
Layer_0
  10
147.87883
  20
118.43896
  0
VERTEX
  5
626
  8
Layer_0
  10
147.87883
  20
117.01581
  0
SEQEND
  0
POLYLINE
  5
628
  8
Layer_2
  62
1
  70
1
  66
1
  10
0
  20
0
  30
0
  0
VERTEX
  5
628
  8
Layer_2
  10
136.62202
  20
117.35629
  0
VERTEX
  5
629
  8
Layer_2
  10
137.94521
  20
109.85208
  0
VERTEX
  5
62a
  8
Layer_2
  10
134.81841
  20
109.30078
  0
VERTEX
  5
62b
  8
Layer_2
  10
133.49522
  20
116.80496
  0
VERTEX
  5
62c
  8
Layer_2
  10
136.62202
  20
117.35629
  0
SEQEND
  0
POLYLINE
  5
62e
  8
Layer_2
  62
1
  70
1
  66
1
  10
0
  20
0
  30
0
  0
VERTEX
  5
62e
  8
Layer_2
  10
142.35587
  20
84.837982
  0
VERTEX
  5
62f
  8
Layer_2
  10
143.67908
  20
77.333679
  0
VERTEX
  5
630
  8
Layer_2
  10
140.55231
  20
76.782379
  0
VERTEX
  5
631
  8
Layer_2
  10
139.2291
  20
84.286591
  0
VERTEX
  5
632
  8
Layer_2
  10
142.35587
  20
84.837982
  0
SEQEND
  0
POLYLINE
  5
634
  8
Layer_2
  62
1
  70
1
  66
1
  10
0
  20
0
  30
0
  0
VERTEX
  5
634
  8
Layer_2
  10
163.75108
  20
95.960175
  0
VERTEX
  5
635
  8
Layer_2
  10
162.42789
  20
88.455994
  0
VERTEX
  5
636
  8
Layer_2
  10
159.30112
  20
89.007294
  0
VERTEX
  5
637
  8
Layer_2
  10
160.62431
  20
96.511475
  0
VERTEX
  5
638
  8
Layer_2
  10
163.75108
  20
95.960175
  0
SEQEND
  0
POLYLINE
  5
63a
  8
Layer_2
  62
1
  70
1
  66
1
  10
0
  20
0
  30
0
  0
VERTEX
  5
63a
  8
Layer_2
  10
167.55998
  20
117.56158
  0
VERTEX
  5
63b
  8
Layer_2
  10
166.2368
  20
110.05728
  0
VERTEX
  5
63c
  8
Layer_2
  10
163.11003
  20
110.60867
  0
VERTEX
  5
63d
  8
Layer_2
  10
164.43321
  20
118.11288
  0
VERTEX
  5
63e
  8
Layer_2
  10
167.55998
  20
117.56158
  0
SEQEND
  0
POLYLINE
  5
640
  8
Layer_2
  62
1
  70
1
  66
1
  10
0
  20
0
  30
0
  0
VERTEX
  5
640
  8
Layer_2
  10
188.1321
  20
103.42419
  0
VERTEX
  5
641
  8
Layer_2
  10
189.45529
  20
95.919952
  0
VERTEX
  5
642
  8
Layer_2
  10
186.32852
  20
95.368683
  0
VERTEX
  5
643
  8
Layer_2
  10
185.00533
  20
102.87289
  0
VERTEX
  5
644
  8
Layer_2
  10
188.1321
  20
103.42419
  0
SEQEND
  0
POLYLINE
  5
646
  8
Layer_2
  62
1
  70
1
  66
1
  10
0
  20
0
  30
0
  0
VERTEX
  5
646
  8
Layer_2
  10
191.76952
  20
82.795441
  0
VERTEX
  5
647
  8
Layer_2
  10
193.0927
  20
75.29129
  0
VERTEX
  5
648
  8
Layer_2
  10
189.96588
  20
74.73999
  0
VERTEX
  5
649
  8
Layer_2
  10
188.6427
  20
82.244171
  0
VERTEX
  5
64a
  8
Layer_2
  10
191.76952
  20
82.795441
  0
SEQEND
  0
POLYLINE
  5
64c
  8
Layer_2
  62
1
  70
1
  66
1
  10
0
  20
0
  30
0
  0
VERTEX
  5
64c
  8
Layer_2
  10
212.6331
  20
96.932892
  0
VERTEX
  5
64d
  8
Layer_2
  10
211.30991
  20
89.428589
  0
VERTEX
  5
64e
  8
Layer_2
  10
208.18309
  20
89.980011
  0
VERTEX
  5
64f
  8
Layer_2
  10
209.50629
  20
97.484192
  0
VERTEX
  5
650
  8
Layer_2
  10
212.6331
  20
96.932892
  0
SEQEND
  0
POLYLINE
  5
652
  8
Layer_2
  62
1
  70
1
  66
1
  10
0
  20
0
  30
0
  0
VERTEX
  5
652
  8
Layer_2
  10
216.27051
  20
117.56158
  0
VERTEX
  5
653
  8
Layer_2
  10
214.9473
  20
110.05731
  0
VERTEX
  5
654
  8
Layer_2
  10
211.82051
  20
110.60867
  0
VERTEX
  5
655
  8
Layer_2
  10
213.14371
  20
118.11288
  0
VERTEX
  5
656
  8
Layer_2
  10
216.27051
  20
117.56158
  0
SEQEND
  0
POLYLINE
  5
658
  8
Layer_2
  62
1
  70
1
  66
1
  10
0
  20
0
  30
0
  0
VERTEX
  5
658
  8
Layer_2
  10
243.7395
  20
128.17633
  0
VERTEX
  5
659
  8
Layer_2
  10
243.7395
  20
125.00034
  0
VERTEX
  5
65a
  8
Layer_2
  10
236.1235
  20
125.00034
  0
VERTEX
  5
65b
  8
Layer_2
  10
236.1235
  20
128.17633
  0
VERTEX
  5
65c
  8
Layer_2
  10
203.0995
  20
128.17636
  0
VERTEX
  5
65d
  8
Layer_2
  10
203.0995
  20
125.00037
  0
VERTEX
  5
65e
  8
Layer_2
  10
195.48351
  20
125.00037
  0
VERTEX
  5
65f
  8
Layer_2
  10
195.48351
  20
128.17636
  0
VERTEX
  5
660
  8
Layer_2
  10
168.81149
  20
128.17636
  0
VERTEX
  5
661
  8
Layer_2
  10
168.81149
  20
125.00037
  0
VERTEX
  5
662
  8
Layer_2
  10
161.1875
  20
125.00037
  0
VERTEX
  5
663
  8
Layer_2
  10
161.18752
  20
128.17636
  0
VERTEX
  5
664
  8
Layer_2
  10
145.02751
  20
128.17636
  0
VERTEX
  5
665
  8
Layer_2
  10
135.61151
  20
153.17636
  0
VERTEX
  5
666
  8
Layer_2
  10
135.24352
  20
153.98436
  0
VERTEX
  5
667
  8
Layer_2
  10
134.75734
  20
155.17426
  0
VERTEX
  5
668
  8
Layer_2
  10
134.34526
  20
156.39053
  0
VERTEX
  5
669
  8
Layer_2
  10
134.0083
  20
157.6297
  0
VERTEX
  5
66a
  8
Layer_2
  10
133.74751
  20
158.88837
  0
VERTEX
  5
66b
  8
Layer_2
  10
133.71045
  20
159.10522
  0
VERTEX
  5
66c
  8
Layer_2
  10
133.6678
  20
159.37265
  0
VERTEX
  5
66d
  8
Layer_2
  10
133.56789
  20
160.04582
  0
VERTEX
  5
66e
  8
Layer_2
  10
133.45193
  20
160.88116
  0
VERTEX
  5
66f
  8
Layer_2
  10
133.32408
  20
161.8519
  0
VERTEX
  5
670
  8
Layer_2
  10
133.18848
  20
162.93127
  0
VERTEX
  5
671
  8
Layer_2
  10
133.04927
  20
164.09254
  0
VERTEX
  5
672
  8
Layer_2
  10
132.9106
  20
165.30896
  0
VERTEX
  5
673
  8
Layer_2
  10
132.77663
  20
166.55374
  0
VERTEX
  5
674
  8
Layer_2
  10
132.65149
  20
167.8002
  0
VERTEX
  5
675
  8
Layer_2
  10
132.53934
  20
169.02151
  0
VERTEX
  5
676
  8
Layer_2
  10
132.44429
  20
170.19095
  0
VERTEX
  5
677
  8
Layer_2
  10
132.37054
  20
171.28177
  0
VERTEX
  5
678
  8
Layer_2
  10
132.34296
  20
171.78934
  0
VERTEX
  5
679
  8
Layer_2
  10
132.32222
  20
172.2672
  0
VERTEX
  5
67a
  8
Layer_2
  10
132.30888
  20
172.71204
  0
VERTEX
  5
67b
  8
Layer_2
  10
132.30347
  20
173.1205
  0
VERTEX
  5
67c
  8
Layer_2
  10
132.30649
  20
173.48924
  0
VERTEX
  5
67d
  8
Layer_2
  10
132.31845
  20
173.81491
  0
VERTEX
  5
67e
  8
Layer_2
  10
132.33987
  20
174.09418
  0
VERTEX
  5
67f
  8
Layer_2
  10
132.37129
  20
174.32372
  0
VERTEX
  5
680
  8
Layer_2
  10
130.5955
  20
173.95236
  0
VERTEX
  5
681
  8
Layer_2
  10
130.02751
  20
177.05637
  0
VERTEX
  5
682
  8
Layer_2
  10
126.21951
  20
176.36037
  0
VERTEX
  5
683
  8
Layer_2
  10
123.09151
  20
175.80836
  0
VERTEX
  5
684
  8
Layer_2
  10
123.09149
  20
64.672363
  0
VERTEX
  5
685
  8
Layer_2
  10
131.97949
  20
64.672363
  0
VERTEX
  5
686
  8
Layer_2
  10
131.97949
  20
67.848358
  0
VERTEX
  5
687
  8
Layer_2
  10
139.6035
  20
67.848358
  0
VERTEX
  5
688
  8
Layer_2
  10
139.6035
  20
64.672363
  0
VERTEX
  5
689
  8
Layer_2
  10
163.73149
  20
64.672363
  0
VERTEX
  5
68a
  8
Layer_2
  10
163.73149
  20
67.848358
  0
VERTEX
  5
68b
  8
Layer_2
  10
171.3555
  20
67.848358
  0
VERTEX
  5
68c
  8
Layer_2
  10
171.3555
  20
64.672363
  0
VERTEX
  5
68d
  8
Layer_2
  10
204.37149
  20
64.672363
  0
VERTEX
  5
68e
  8
Layer_2
  10
204.37149
  20
67.848358
  0
VERTEX
  5
68f
  8
Layer_2
  10
211.99548
  20
67.848358
  0
VERTEX
  5
690
  8
Layer_2
  10
211.99548
  20
64.672363
  0
VERTEX
  5
691
  8
Layer_2
  10
236.12349
  20
64.672333
  0
VERTEX
  5
692
  8
Layer_2
  10
236.12349
  20
67.848328
  0
VERTEX
  5
693
  8
Layer_2
  10
243.73949
  20
67.848328
  0
VERTEX
  5
694
  8
Layer_2
  10
243.73949
  20
64.672333
  0
VERTEX
  5
695
  8
Layer_2
  10
250.09149
  20
64.672333
  0
VERTEX
  5
696
  8
Layer_2
  10
250.09151
  20
128.17633
  0
VERTEX
  5
697
  8
Layer_2
  10
243.7395
  20
128.17633
  0
SEQEND
  0
POLYLINE
  5
699
  8
Layer_2
  62
1
  70
1
  66
1
  10
0
  20
0
  30
0
  0
VERTEX
  5
699
  8
Layer_2
  10
130.88811
  20
149.87466
  0
VERTEX
  5
69a
  8
Layer_2
  10
132.21129
  20
142.37039
  0
VERTEX
  5
69b
  8
Layer_2
  10
129.08458
  20
141.81906
  0
VERTEX
  5
69c
  8
Layer_2
  10
127.7614
  20
149.3233
  0
VERTEX
  5
69d
  8
Layer_2
  10
130.88811
  20
149.87466
  0
SEQEND
  0
POLYLINE
  5
69f
  8
Layer_2
  62
1
  70
1
  66
1
  10
0
  20
0
  30
0
  0
VERTEX
  5
69f
  8
Layer_2
  10
127.35959
  20
169.88596
  0
VERTEX
  5
6a0
  8
Layer_2
  10
128.68275
  20
162.38168
  0
VERTEX
  5
6a1
  8
Layer_2
  10
125.55598
  20
161.83041
  0
VERTEX
  5
6a2
  8
Layer_2
  10
124.23282
  20
169.33459
  0
VERTEX
  5
6a3
  8
Layer_2
  10
127.35959
  20
169.88596
  0
SEQEND
  0
POLYLINE
  5
6a5
  8
Layer_1
  62
202
  70
1
  66
1
  10
0
  20
0
  30
0
  0
VERTEX
  5
6a5
  8
Layer_1
  10
220.0498
  20
117.56158
  0
VERTEX
  5
6a6
  8
Layer_1
  10
223.82892
  20
116.9288
  0
VERTEX
  5
6a7
  8
Layer_1
  10
217.60205
  20
79.739929
  0
VERTEX
  5
6a8
  8
Layer_1
  10
213.82294
  20
80.372711
  0
VERTEX
  5
6a9
  8
Layer_1
  10
220.0498
  20
117.56158
  0
SEQEND
  0
POLYLINE
  5
6ab
  8
Layer_1
  62
202
  70
1
  66
1
  10
0
  20
0
  30
0
  0
VERTEX
  5
6ab
  8
Layer_1
  10
194.42406
  20
113.11288
  0
VERTEX
  5
6ac
  8
Layer_1
  10
190.64493
  20
112.4801
  0
VERTEX
  5
6ad
  8
Layer_1
  10
196.87178
  20
75.291229
  0
VERTEX
  5
6ae
  8
Layer_1
  10
200.65091
  20
75.924011
  0
VERTEX
  5
6af
  8
Layer_1
  10
194.42406
  20
113.11288
  0
SEQEND
  0
POLYLINE
  5
6b1
  8
Layer_1
  62
202
  70
1
  66
1
  10
0
  20
0
  30
0
  0
VERTEX
  5
6b1
  8
Layer_1
  10
171.33981
  20
117.56161
  0
VERTEX
  5
6b2
  8
Layer_1
  10
175.11893
  20
116.92883
  0
VERTEX
  5
6b3
  8
Layer_1
  10
168.89206
  20
79.73996
  0
VERTEX
  5
6b4
  8
Layer_1
  10
165.11295
  20
80.372742
  0
VERTEX
  5
6b5
  8
Layer_1
  10
171.33981
  20
117.56161
  0
SEQEND
  0
POLYLINE
  5
6b7
  8
Layer_1
  62
202
  70
1
  66
1
  10
0
  20
0
  30
0
  0
VERTEX
  5
6b7
  8
Layer_1
  10
144.18108
  20
117.98911
  0
VERTEX
  5
6b8
  8
Layer_1
  10
140.40195
  20
117.35632
  0
VERTEX
  5
6b9
  8
Layer_1
  10
146.6288
  20
80.16745
  0
VERTEX
  5
6ba
  8
Layer_1
  10
150.40793
  20
80.800232
  0
VERTEX
  5
6bb
  8
Layer_1
  10
144.18108
  20
117.98911
  0
SEQEND
  0
POLYLINE
  5
6bd
  8
Layer_8
  62
6
  70
1
  66
1
  10
0
  20
0
  30
0
  0
VERTEX
  5
6bd
  8
Layer_8
  10
308.43457
  20
7.8737183
  0
VERTEX
  5
6be
  8
Layer_8
  10
257.63458
  20
7.8737183
  0
VERTEX
  5
6bf
  8
Layer_8
  10
257.63458
  20
14.223755
  0
VERTEX
  5
6c0
  8
Layer_8
  10
254.45956
  20
14.223755
  0
VERTEX
  5
6c1
  8
Layer_8
  10
254.45959
  20
21.84375
  0
VERTEX
  5
6c2
  8
Layer_8
  10
257.63458
  20
21.84375
  0
VERTEX
  5
6c3
  8
Layer_8
  10
257.63458
  20
48.513733
  0
VERTEX
  5
6c4
  8
Layer_8
  10
254.45959
  20
48.513733
  0
VERTEX
  5
6c5
  8
Layer_8
  10
254.45959
  20
56.133728
  0
VERTEX
  5
6c6
  8
Layer_8
  10
257.63458
  20
56.133728
  0
VERTEX
  5
6c7
  8
Layer_8
  10
257.63458
  20
89.153717
  0
VERTEX
  5
6c8
  8
Layer_8
  10
254.45959
  20
89.153717
  0
VERTEX
  5
6c9
  8
Layer_8
  10
254.45959
  20
96.773712
  0
VERTEX
  5
6ca
  8
Layer_8
  10
257.63458
  20
96.773712
  0
VERTEX
  5
6cb
  8
Layer_8
  10
257.63458
  20
103.12372
  0
VERTEX
  5
6cc
  8
Layer_8
  10
308.4346
  20
103.12372
  0
VERTEX
  5
6cd
  8
Layer_8
  10
308.4346
  20
96.773712
  0
VERTEX
  5
6ce
  8
Layer_8
  10
311.60962
  20
96.773712
  0
VERTEX
  5
6cf
  8
Layer_8
  10
311.60959
  20
89.153717
  0
VERTEX
  5
6d0
  8
Layer_8
  10
308.4346
  20
89.153717
  0
VERTEX
  5
6d1
  8
Layer_8
  10
308.4346
  20
56.133698
  0
VERTEX
  5
6d2
  8
Layer_8
  10
311.60959
  20
56.133698
  0
VERTEX
  5
6d3
  8
Layer_8
  10
311.60959
  20
48.513702
  0
VERTEX
  5
6d4
  8
Layer_8
  10
308.4346
  20
48.513702
  0
VERTEX
  5
6d5
  8
Layer_8
  10
308.4346
  20
21.843719
  0
VERTEX
  5
6d6
  8
Layer_8
  10
311.60959
  20
21.843719
  0
VERTEX
  5
6d7
  8
Layer_8
  10
311.60959
  20
14.223694
  0
VERTEX
  5
6d8
  8
Layer_8
  10
308.43457
  20
14.223694
  0
VERTEX
  5
6d9
  8
Layer_8
  10
308.43457
  20
7.8737183
  0
SEQEND
  0
POLYLINE
  5
6db
  8
Layer_3
  62
206
  70
1
  66
1
  10
0
  20
0
  30
0
  0
VERTEX
  5
6db
  8
Layer_3
  10
301.034
  20
88.931885
  0
VERTEX
  5
6dc
  8
Layer_3
  10
277.61194
  20
88.931885
  0
VERTEX
  5
6dd
  8
Layer_3
  10
277.41043
  20
88.91156
  0
VERTEX
  5
6de
  8
Layer_3
  10
277.22269
  20
88.853271
  0
VERTEX
  5
6df
  8
Layer_3
  10
277.05283
  20
88.761047
  0
VERTEX
  5
6e0
  8
Layer_3
  10
276.90485
  20
88.638977
  0
VERTEX
  5
6e1
  8
Layer_3
  10
276.78278
  20
88.490967
  0
VERTEX
  5
6e2
  8
Layer_3
  10
276.69055
  20
88.321106
  0
VERTEX
  5
6e3
  8
Layer_3
  10
276.63226
  20
88.133392
  0
VERTEX
  5
6e4
  8
Layer_3
  10
276.61194
  20
87.931885
  0
VERTEX
  5
6e5
  8
Layer_3
  10
276.61194
  20
85.931885
  0
VERTEX
  5
6e6
  8
Layer_3
  10
276.63226
  20
85.730377
  0
VERTEX
  5
6e7
  8
Layer_3
  10
276.69055
  20
85.542664
  0
VERTEX
  5
6e8
  8
Layer_3
  10
276.78278
  20
85.372803
  0
VERTEX
  5
6e9
  8
Layer_3
  10
276.90485
  20
85.224792
  0
VERTEX
  5
6ea
  8
Layer_3
  10
277.05283
  20
85.102722
  0
VERTEX
  5
6eb
  8
Layer_3
  10
277.22269
  20
85.010498
  0
VERTEX
  5
6ec
  8
Layer_3
  10
277.41043
  20
84.952209
  0
VERTEX
  5
6ed
  8
Layer_3
  10
277.61194
  20
84.931885
  0
VERTEX
  5
6ee
  8
Layer_3
  10
301.034
  20
84.931885
  0
VERTEX
  5
6ef
  8
Layer_3
  10
301.2355
  20
84.952209
  0
VERTEX
  5
6f0
  8
Layer_3
  10
301.42325
  20
85.010498
  0
VERTEX
  5
6f1
  8
Layer_3
  10
301.59311
  20
85.102722
  0
VERTEX
  5
6f2
  8
Layer_3
  10
301.74109
  20
85.224792
  0
VERTEX
  5
6f3
  8
Layer_3
  10
301.86316
  20
85.372803
  0
VERTEX
  5
6f4
  8
Layer_3
  10
301.95538
  20
85.542664
  0
VERTEX
  5
6f5
  8
Layer_3
  10
302.01367
  20
85.730377
  0
VERTEX
  5
6f6
  8
Layer_3
  10
302.034
  20
85.931885
  0
VERTEX
  5
6f7
  8
Layer_3
  10
302.034
  20
87.931885
  0
VERTEX
  5
6f8
  8
Layer_3
  10
302.01367
  20
88.133392
  0
VERTEX
  5
6f9
  8
Layer_3
  10
301.95538
  20
88.321106
  0
VERTEX
  5
6fa
  8
Layer_3
  10
301.86316
  20
88.490967
  0
VERTEX
  5
6fb
  8
Layer_3
  10
301.74109
  20
88.638977
  0
VERTEX
  5
6fc
  8
Layer_3
  10
301.59311
  20
88.761047
  0
VERTEX
  5
6fd
  8
Layer_3
  10
301.42325
  20
88.853271
  0
VERTEX
  5
6fe
  8
Layer_3
  10
301.2355
  20
88.91156
  0
VERTEX
  5
6ff
  8
Layer_3
  10
301.034
  20
88.931885
  0
SEQEND
  0
POLYLINE
  5
701
  8
Layer_3
  62
206
  70
1
  66
1
  10
0
  20
0
  30
0
  0
VERTEX
  5
701
  8
Layer_3
  10
301.63702
  20
59.442902
  0
VERTEX
  5
702
  8
Layer_3
  10
278.2149
  20
59.442902
  0
VERTEX
  5
703
  8
Layer_3
  10
278.0134
  20
59.422577
  0
VERTEX
  5
704
  8
Layer_3
  10
277.82568
  20
59.364319
  0
VERTEX
  5
705
  8
Layer_3
  10
277.65582
  20
59.272095
  0
VERTEX
  5
706
  8
Layer_3
  10
277.50781
  20
59.150024
  0
VERTEX
  5
707
  8
Layer_3
  10
277.38574
  20
59.002014
  0
VERTEX
  5
708
  8
Layer_3
  10
277.29352
  20
58.832153
  0
VERTEX
  5
709
  8
Layer_3
  10
277.23523
  20
58.64444
  0
VERTEX
  5
70a
  8
Layer_3
  10
277.2149
  20
58.442902
  0
VERTEX
  5
70b
  8
Layer_3
  10
277.2149
  20
56.442902
  0
VERTEX
  5
70c
  8
Layer_3
  10
277.23523
  20
56.241364
  0
VERTEX
  5
70d
  8
Layer_3
  10
277.29352
  20
56.05365
  0
VERTEX
  5
70e
  8
Layer_3
  10
277.38574
  20
55.883789
  0
VERTEX
  5
70f
  8
Layer_3
  10
277.50781
  20
55.735779
  0
VERTEX
  5
710
  8
Layer_3
  10
277.65582
  20
55.613708
  0
VERTEX
  5
711
  8
Layer_3
  10
277.82568
  20
55.521484
  0
VERTEX
  5
712
  8
Layer_3
  10
278.0134
  20
55.463226
  0
VERTEX
  5
713
  8
Layer_3
  10
278.2149
  20
55.442902
  0
VERTEX
  5
714
  8
Layer_3
  10
301.63702
  20
55.442902
  0
VERTEX
  5
715
  8
Layer_3
  10
301.83853
  20
55.463226
  0
VERTEX
  5
716
  8
Layer_3
  10
302.02625
  20
55.521484
  0
VERTEX
  5
717
  8
Layer_3
  10
302.19611
  20
55.613708
  0
VERTEX
  5
718
  8
Layer_3
  10
302.34412
  20
55.735779
  0
VERTEX
  5
719
  8
Layer_3
  10
302.46619
  20
55.883789
  0
VERTEX
  5
71a
  8
Layer_3
  10
302.55841
  20
56.05365
  0
VERTEX
  5
71b
  8
Layer_3
  10
302.6167
  20
56.241364
  0
VERTEX
  5
71c
  8
Layer_3
  10
302.63702
  20
56.442902
  0
VERTEX
  5
71d
  8
Layer_3
  10
302.63702
  20
58.442902
  0
VERTEX
  5
71e
  8
Layer_3
  10
302.6167
  20
58.64444
  0
VERTEX
  5
71f
  8
Layer_3
  10
302.55841
  20
58.832153
  0
VERTEX
  5
720
  8
Layer_3
  10
302.46619
  20
59.002014
  0
VERTEX
  5
721
  8
Layer_3
  10
302.34412
  20
59.150024
  0
VERTEX
  5
722
  8
Layer_3
  10
302.19611
  20
59.272095
  0
VERTEX
  5
723
  8
Layer_3
  10
302.02625
  20
59.364319
  0
VERTEX
  5
724
  8
Layer_3
  10
301.83853
  20
59.422577
  0
VERTEX
  5
725
  8
Layer_3
  10
301.63702
  20
59.442902
  0
SEQEND
  0
POLYLINE
  5
727
  8
Layer_3
  62
206
  70
1
  66
1
  10
0
  20
0
  30
0
  0
VERTEX
  5
727
  8
Layer_3
  10
302.18005
  20
36.932892
  0
VERTEX
  5
728
  8
Layer_3
  10
278.75793
  20
36.932892
  0
VERTEX
  5
729
  8
Layer_3
  10
278.55643
  20
36.912567
  0
VERTEX
  5
72a
  8
Layer_3
  10
278.36871
  20
36.854309
  0
VERTEX
  5
72b
  8
Layer_3
  10
278.19885
  20
36.762085
  0
VERTEX
  5
72c
  8
Layer_3
  10
278.05084
  20
36.640015
  0
VERTEX
  5
72d
  8
Layer_3
  10
277.92877
  20
36.492004
  0
VERTEX
  5
72e
  8
Layer_3
  10
277.83655
  20
36.322144
  0
VERTEX
  5
72f
  8
Layer_3
  10
277.77826
  20
36.13443
  0
VERTEX
  5
730
  8
Layer_3
  10
277.75793
  20
35.932892
  0
VERTEX
  5
731
  8
Layer_3
  10
277.75793
  20
33.932892
  0
VERTEX
  5
732
  8
Layer_3
  10
277.77826
  20
33.731354
  0
VERTEX
  5
733
  8
Layer_3
  10
277.83655
  20
33.54364
  0
VERTEX
  5
734
  8
Layer_3
  10
277.92877
  20
33.373779
  0
VERTEX
  5
735
  8
Layer_3
  10
278.05084
  20
33.225769
  0
VERTEX
  5
736
  8
Layer_3
  10
278.19885
  20
33.103699
  0
VERTEX
  5
737
  8
Layer_3
  10
278.36871
  20
33.011475
  0
VERTEX
  5
738
  8
Layer_3
  10
278.55643
  20
32.953217
  0
VERTEX
  5
739
  8
Layer_3
  10
278.75793
  20
32.932892
  0
VERTEX
  5
73a
  8
Layer_3
  10
302.18005
  20
32.932892
  0
VERTEX
  5
73b
  8
Layer_3
  10
302.38156
  20
32.953217
  0
VERTEX
  5
73c
  8
Layer_3
  10
302.56927
  20
33.011475
  0
VERTEX
  5
73d
  8
Layer_3
  10
302.73914
  20
33.103699
  0
VERTEX
  5
73e
  8
Layer_3
  10
302.88715
  20
33.225769
  0
VERTEX
  5
73f
  8
Layer_3
  10
303.00922
  20
33.373779
  0
VERTEX
  5
740
  8
Layer_3
  10
303.10144
  20
33.54364
  0
VERTEX
  5
741
  8
Layer_3
  10
303.15973
  20
33.731354
  0
VERTEX
  5
742
  8
Layer_3
  10
303.18005
  20
33.932892
  0
VERTEX
  5
743
  8
Layer_3
  10
303.18005
  20
35.932892
  0
VERTEX
  5
744
  8
Layer_3
  10
303.15973
  20
36.13443
  0
VERTEX
  5
745
  8
Layer_3
  10
303.10144
  20
36.322144
  0
VERTEX
  5
746
  8
Layer_3
  10
303.00922
  20
36.492004
  0
VERTEX
  5
747
  8
Layer_3
  10
302.88715
  20
36.640015
  0
VERTEX
  5
748
  8
Layer_3
  10
302.73914
  20
36.762085
  0
VERTEX
  5
749
  8
Layer_3
  10
302.56927
  20
36.854309
  0
VERTEX
  5
74a
  8
Layer_3
  10
302.38156
  20
36.912567
  0
VERTEX
  5
74b
  8
Layer_3
  10
302.18005
  20
36.932892
  0
SEQEND
  0
POLYLINE
  5
74d
  8
Layer_5
  62
232
  70
1
  66
1
  10
0
  20
0
  30
0
  0
VERTEX
  5
74d
  8
Layer_5
  10
297.26071
  20
17.173889
  0
VERTEX
  5
74e
  8
Layer_5
  10
297.26074
  20
95.173889
  0
VERTEX
  5
74f
  8
Layer_5
  10
297.24042
  20
95.375397
  0
VERTEX
  5
750
  8
Layer_5
  10
297.18213
  20
95.56311
  0
VERTEX
  5
751
  8
Layer_5
  10
297.0899
  20
95.732971
  0
VERTEX
  5
752
  8
Layer_5
  10
296.96783
  20
95.880981
  0
VERTEX
  5
753
  8
Layer_5
  10
296.81982
  20
96.003052
  0
VERTEX
  5
754
  8
Layer_5
  10
296.64996
  20
96.095276
  0
VERTEX
  5
755
  8
Layer_5
  10
296.46225
  20
96.153564
  0
VERTEX
  5
756
  8
Layer_5
  10
296.26074
  20
96.173889
  0
VERTEX
  5
757
  8
Layer_5
  10
292.30527
  20
96.173889
  0
VERTEX
  5
758
  8
Layer_5
  10
292.10373
  20
96.153564
  0
VERTEX
  5
759
  8
Layer_5
  10
291.91602
  20
96.095276
  0
VERTEX
  5
75a
  8
Layer_5
  10
291.74615
  20
96.003052
  0
VERTEX
  5
75b
  8
Layer_5
  10
291.59814
  20
95.880981
  0
VERTEX
  5
75c
  8
Layer_5
  10
291.47607
  20
95.732971
  0
VERTEX
  5
75d
  8
Layer_5
  10
291.38385
  20
95.56311
  0
VERTEX
  5
75e
  8
Layer_5
  10
291.32559
  20
95.375397
  0
VERTEX
  5
75f
  8
Layer_5
  10
291.30527
  20
95.173889
  0
VERTEX
  5
760
  8
Layer_5
  10
291.30524
  20
17.173889
  0
VERTEX
  5
761
  8
Layer_5
  10
291.32556
  20
16.972382
  0
VERTEX
  5
762
  8
Layer_5
  10
291.38385
  20
16.784668
  0
VERTEX
  5
763
  8
Layer_5
  10
291.47607
  20
16.614807
  0
VERTEX
  5
764
  8
Layer_5
  10
291.59814
  20
16.466797
  0
VERTEX
  5
765
  8
Layer_5
  10
291.74615
  20
16.344727
  0
VERTEX
  5
766
  8
Layer_5
  10
291.91602
  20
16.252502
  0
VERTEX
  5
767
  8
Layer_5
  10
292.10373
  20
16.194214
  0
VERTEX
  5
768
  8
Layer_5
  10
292.30524
  20
16.173889
  0
VERTEX
  5
769
  8
Layer_5
  10
296.26071
  20
16.173889
  0
VERTEX
  5
76a
  8
Layer_5
  10
296.46225
  20
16.194214
  0
VERTEX
  5
76b
  8
Layer_5
  10
296.64996
  20
16.252502
  0
VERTEX
  5
76c
  8
Layer_5
  10
296.81982
  20
16.344727
  0
VERTEX
  5
76d
  8
Layer_5
  10
296.96783
  20
16.466797
  0
VERTEX
  5
76e
  8
Layer_5
  10
297.0899
  20
16.614807
  0
VERTEX
  5
76f
  8
Layer_5
  10
297.18213
  20
16.784668
  0
VERTEX
  5
770
  8
Layer_5
  10
297.24039
  20
16.972382
  0
VERTEX
  5
771
  8
Layer_5
  10
297.26071
  20
17.173889
  0
SEQEND
  0
POLYLINE
  5
773
  8
Layer_4
  62
173
  70
1
  66
1
  10
0
  20
0
  30
0
  0
VERTEX
  5
773
  8
Layer_4
  10
273.49048
  20
16.225891
  0
VERTEX
  5
774
  8
Layer_4
  10
273.49048
  20
23.384094
  0
VERTEX
  5
775
  8
Layer_4
  10
278.66626
  20
23.384094
  0
VERTEX
  5
776
  8
Layer_4
  10
278.66626
  20
22.539368
  0
VERTEX
  5
777
  8
Layer_4
  10
274.43774
  20
22.539368
  0
VERTEX
  5
778
  8
Layer_4
  10
274.43774
  20
20.346985
  0
VERTEX
  5
779
  8
Layer_4
  10
278.39771
  20
20.346985
  0
VERTEX
  5
77a
  8
Layer_4
  10
278.39771
  20
19.507141
  0
VERTEX
  5
77b
  8
Layer_4
  10
274.43774
  20
19.507141
  0
VERTEX
  5
77c
  8
Layer_4
  10
274.43774
  20
17.070618
  0
VERTEX
  5
77d
  8
Layer_4
  10
278.83228
  20
17.070618
  0
VERTEX
  5
77e
  8
Layer_4
  10
278.83228
  20
16.225891
  0
VERTEX
  5
77f
  8
Layer_4
  10
273.49048
  20
16.225891
  0
SEQEND
  0
POLYLINE
  5
781
  8
Layer_4
  62
173
  70
1
  66
1
  10
0
  20
0
  30
0
  0
VERTEX
  5
781
  8
Layer_4
  10
273.7468
  20
89.015594
  0
VERTEX
  5
782
  8
Layer_4
  10
273.7468
  20
96.173798
  0
VERTEX
  5
783
  8
Layer_4
  10
278.5759
  20
96.173798
  0
VERTEX
  5
784
  8
Layer_4
  10
278.5759
  20
95.329071
  0
VERTEX
  5
785
  8
Layer_4
  10
274.69406
  20
95.329071
  0
VERTEX
  5
786
  8
Layer_4
  10
274.69406
  20
93.112274
  0
VERTEX
  5
787
  8
Layer_4
  10
278.05344
  20
93.112274
  0
VERTEX
  5
788
  8
Layer_4
  10
278.05344
  20
92.267548
  0
VERTEX
  5
789
  8
Layer_4
  10
274.69406
  20
92.267548
  0
VERTEX
  5
78a
  8
Layer_4
  10
274.69406
  20
89.015594
  0
VERTEX
  5
78b
  8
Layer_4
  10
273.7468
  20
89.015594
  0
SEQEND
  0
POLYLINE
  5
78d
  8
Layer_4
  62
173
  70
1
  66
1
  10
0
  20
0
  30
0
  0
VERTEX
  5
78d
  8
Layer_4
  10
289.36148
  20
93.094696
  0
VERTEX
  5
78e
  8
Layer_4
  10
280.36148
  20
93.094696
  0
VERTEX
  5
78f
  8
Layer_4
  10
280.36148
  20
92.094696
  0
VERTEX
  5
790
  8
Layer_4
  10
289.36148
  20
92.094696
  0
VERTEX
  5
791
  8
Layer_4
  10
289.36148
  20
93.094696
  0
SEQEND
  0
POLYLINE
  5
793
  8
Layer_4
  62
173
  70
1
  66
1
  10
0
  20
0
  30
0
  0
VERTEX
  5
793
  8
Layer_4
  10
289.36145
  20
20.304901
  0
VERTEX
  5
794
  8
Layer_4
  10
280.36145
  20
20.304901
  0
VERTEX
  5
795
  8
Layer_4
  10
280.36145
  20
19.304901
  0
VERTEX
  5
796
  8
Layer_4
  10
289.36145
  20
19.304901
  0
VERTEX
  5
797
  8
Layer_4
  10
289.36145
  20
20.304901
  0
SEQEND
  0
POLYLINE
  5
799
  8
Layer_4
  62
173
  70
1
  66
1
  10
0
  20
0
  30
0
  0
VERTEX
  5
799
  8
Layer_4
  10
289.20447
  20
56.673889
  0
VERTEX
  5
79a
  8
Layer_4
  10
280.20447
  20
56.673889
  0
VERTEX
  5
79b
  8
Layer_4
  10
280.20447
  20
55.673889
  0
VERTEX
  5
79c
  8
Layer_4
  10
289.20447
  20
55.673889
  0
VERTEX
  5
79d
  8
Layer_4
  10
289.20447
  20
56.673889
  0
SEQEND
  0
POLYLINE
  5
79f
  8
Layer_4
  62
173
  70
1
  66
1
  10
0
  20
0
  30
0
  0
VERTEX
  5
79f
  8
Layer_4
  10
274.71014
  20
53.293365
  0
VERTEX
  5
7a0
  8
Layer_4
  10
276.26654
  20
58.845123
  0
VERTEX
  5
7a1
  8
Layer_4
  10
276.79388
  20
58.845123
  0
VERTEX
  5
7a2
  8
Layer_4
  10
275.24115
  20
53.293365
  0
VERTEX
  5
7a3
  8
Layer_4
  10
274.71014
  20
53.293365
  0
SEQEND
  0
POLYLINE
  5
7a5
  8
Layer_4
  62
173
  70
1
  66
1
  10
0
  20
0
  30
0
  0
VERTEX
  5
7a5
  8
Layer_4
  10
274.50793
  20
56.313904
  0
VERTEX
  5
7a6
  8
Layer_4
  10
274.06848
  20
56.313904
  0
VERTEX
  5
7a7
  8
Layer_4
  10
274.06848
  20
59.114197
  0
VERTEX
  5
7a8
  8
Layer_4
  10
273.88507
  20
58.96283
  0
VERTEX
  5
7a9
  8
Layer_4
  10
273.65222
  20
58.811462
  0
VERTEX
  5
7aa
  8
Layer_4
  10
273.40778
  20
58.679016
  0
VERTEX
  5
7ab
  8
Layer_4
  10
273.18958
  20
58.584412
  0
VERTEX
  5
7ac
  8
Layer_4
  10
273.18958
  20
59.009216
  0
VERTEX
  5
7ad
  8
Layer_4
  10
273.53503
  20
59.200867
  0
VERTEX
  5
7ae
  8
Layer_4
  10
273.83411
  20
59.429138
  0
VERTEX
  5
7af
  8
Layer_4
  10
274.0697
  20
59.672058
  0
VERTEX
  5
7b0
  8
Layer_4
  10
274.22473
  20
59.907654
  0
VERTEX
  5
7b1
  8
Layer_4
  10
274.50793
  20
59.907654
  0
VERTEX
  5
7b2
  8
Layer_4
  10
274.50793
  20
56.313904
  0
SEQEND
  0
POLYLINE
  5
7b4
  8
Layer_4
  62
173
  70
1
  66
1
  10
0
  20
0
  30
0
  0
VERTEX
  5
7b4
  8
Layer_4
  10
279.13324
  20
52.862305
  0
VERTEX
  5
7b5
  8
Layer_4
  10
279.13324
  20
52.439941
  0
VERTEX
  5
7b6
  8
Layer_4
  10
276.76752
  20
52.439941
  0
VERTEX
  5
7b7
  8
Layer_4
  10
276.77789
  20
52.595581
  0
VERTEX
  5
7b8
  8
Layer_4
  10
276.81879
  20
52.745117
  0
VERTEX
  5
7b9
  8
Layer_4
  10
276.93628
  20
52.984985
  0
VERTEX
  5
7ba
  8
Layer_4
  10
277.10809
  20
53.221191
  0
VERTEX
  5
7bb
  8
Layer_4
  10
277.35132
  20
53.473877
  0
VERTEX
  5
7bc
  8
Layer_4
  10
277.68304
  20
53.763184
  0
VERTEX
  5
7bd
  8
Layer_4
  10
277.95117
  20
53.98999
  0
VERTEX
  5
7be
  8
Layer_4
  10
278.17194
  20
54.191956
  0
VERTEX
  5
7bf
  8
Layer_4
  10
278.34546
  20
54.369019
  0
VERTEX
  5
7c0
  8
Layer_4
  10
278.47162
  20
54.52124
  0
VERTEX
  5
7c1
  8
Layer_4
  10
278.56134
  20
54.659119
  0
VERTEX
  5
7c2
  8
Layer_4
  10
278.62543
  20
54.793152
  0
VERTEX
  5
7c3
  8
Layer_4
  10
278.66388
  20
54.923401
  0
VERTEX
  5
7c4
  8
Layer_4
  10
278.6767
  20
55.049805
  0
VERTEX
  5
7c5
  8
Layer_4
  10
278.66501
  20
55.175323
  0
VERTEX
  5
7c6
  8
Layer_4
  10
278.63
  20
55.290588
  0
VERTEX
  5
7c7
  8
Layer_4
  10
278.57162
  20
55.39563
  0
VERTEX
  5
7c8
  8
Layer_4
  10
278.48993
  20
55.490479
  0
VERTEX
  5
7c9
  8
Layer_4
  10
278.38943
  20
55.569
  0
VERTEX
  5
7ca
  8
Layer_4
  10
278.27478
  20
55.625061
  0
VERTEX
  5
7cb
  8
Layer_4
  10
278.1459
  20
55.658722
  0
VERTEX
  5
7cc
  8
Layer_4
  10
278.00287
  20
55.669922
  0
VERTEX
  5
7cd
  8
Layer_4
  10
277.85211
  20
55.65802
  0
VERTEX
  5
7ce
  8
Layer_4
  10
277.71722
  20
55.622314
  0
VERTEX
  5
7cf
  8
Layer_4
  10
277.59821
  20
55.562805
  0
VERTEX
  5
7d0
  8
Layer_4
  10
277.49506
  20
55.479492
  0
VERTEX
  5
7d1
  8
Layer_4
  10
277.41156
  20
55.375122
  0
VERTEX
  5
7d2
  8
Layer_4
  10
277.35162
  20
55.252441
  0
VERTEX
  5
7d3
  8
Layer_4
  10
277.31512
  20
55.11145
  0
VERTEX
  5
7d4
  8
Layer_4
  10
277.30219
  20
54.952148
  0
VERTEX
  5
7d5
  8
Layer_4
  10
276.85052
  20
54.998535
  0
VERTEX
  5
7d6
  8
Layer_4
  10
276.88974
  20
55.236206
  0
VERTEX
  5
7d7
  8
Layer_4
  10
276.961
  20
55.443787
  0
VERTEX
  5
7d8
  8
Layer_4
  10
277.0643
  20
55.621307
  0
VERTEX
  5
7d9
  8
Layer_4
  10
277.19965
  20
55.768799
  0
VERTEX
  5
7da
  8
Layer_4
  10
277.36398
  20
55.884705
  0
VERTEX
  5
7db
  8
Layer_4
  10
277.55426
  20
55.967468
  0
VERTEX
  5
7dc
  8
Layer_4
  10
277.77048
  20
56.017151
  0
VERTEX
  5
7dd
  8
Layer_4
  10
278.01263
  20
56.033691
  0
VERTEX
  5
7de
  8
Layer_4
  10
278.25677
  20
56.015839
  0
VERTEX
  5
7df
  8
Layer_4
  10
278.47406
  20
55.96228
  0
VERTEX
  5
7e0
  8
Layer_4
  10
278.66449
  20
55.873016
  0
VERTEX
  5
7e1
  8
Layer_4
  10
278.82806
  20
55.748047
  0
VERTEX
  5
7e2
  8
Layer_4
  10
278.95944
  20
55.59668
  0
VERTEX
  5
7e3
  8
Layer_4
  10
279.05328
  20
55.428223
  0
VERTEX
  5
7e4
  8
Layer_4
  10
279.10959
  20
55.242676
  0
VERTEX
  5
7e5
  8
Layer_4
  10
279.12836
  20
55.040039
  0
VERTEX
  5
7e6
  8
Layer_4
  10
279.10638
  20
54.827026
  0
VERTEX
  5
7e7
  8
Layer_4
  10
279.04047
  20
54.617676
  0
VERTEX
  5
7e8
  8
Layer_4
  10
278.92358
  20
54.404663
  0
VERTEX
  5
7e9
  8
Layer_4
  10
278.74872
  20
54.180664
  0
VERTEX
  5
7ea
  8
Layer_4
  10
278.62994
  20
54.055237
  0
VERTEX
  5
7eb
  8
Layer_4
  10
278.47742
  20
53.908447
  0
VERTEX
  5
7ec
  8
Layer_4
  10
278.2912
  20
53.740295
  0
VERTEX
  5
7ed
  8
Layer_4
  10
278.07123
  20
53.550781
  0
VERTEX
  5
7ee
  8
Layer_4
  10
277.89117
  20
53.398132
  0
VERTEX
  5
7ef
  8
Layer_4
  10
277.74652
  20
53.272156
  0
VERTEX
  5
7f0
  8
Layer_4
  10
277.63727
  20
53.172913
  0
VERTEX
  5
7f1
  8
Layer_4
  10
277.56342
  20
53.100342
  0
VERTEX
  5
7f2
  8
Layer_4
  10
277.46088
  20
52.981628
  0
VERTEX
  5
7f3
  8
Layer_4
  10
277.37787
  20
52.862305
  0
VERTEX
  5
7f4
  8
Layer_4
  10
279.13324
  20
52.862305
  0
SEQEND
  0
POLYLINE
  5
7f6
  8
Layer_4
  62
173
  70
1
  66
1
  10
0
  20
0
  30
0
  0
VERTEX
  5
7f6
  8
Layer_4
  10
289.36148
  20
74.883911
  0
VERTEX
  5
7f7
  8
Layer_4
  10
284.86148
  20
74.883911
  0
VERTEX
  5
7f8
  8
Layer_4
  10
284.86148
  20
73.883911
  0
VERTEX
  5
7f9
  8
Layer_4
  10
289.36148
  20
73.883911
  0
VERTEX
  5
7fa
  8
Layer_4
  10
289.36148
  20
74.883911
  0
SEQEND
  0
POLYLINE
  5
7fc
  8
Layer_4
  62
173
  70
1
  66
1
  10
0
  20
0
  30
0
  0
VERTEX
  5
7fc
  8
Layer_4
  10
289.36145
  20
38.514893
  0
VERTEX
  5
7fd
  8
Layer_4
  10
284.86145
  20
38.514893
  0
VERTEX
  5
7fe
  8
Layer_4
  10
284.86145
  20
37.514893
  0
VERTEX
  5
7ff
  8
Layer_4
  10
289.36145
  20
37.514893
  0
VERTEX
  5
800
  8
Layer_4
  10
289.36145
  20
38.514893
  0
SEQEND
  0
POLYLINE
  5
802
  8
Layer_6
  62
5
  70
1
  66
1
  10
0
  20
0
  30
0
  0
VERTEX
  5
802
  8
Layer_6
  10
283.02875
  20
79.941254
  0
VERTEX
  5
803
  8
Layer_6
  10
270.75888
  20
79.941254
  0
VERTEX
  5
804
  8
Layer_6
  10
270.75888
  20
25.62149
  0
VERTEX
  5
805
  8
Layer_6
  10
295.29861
  20
25.62149
  0
VERTEX
  5
806
  8
Layer_6
  10
295.29861
  20
79.941254
  0
VERTEX
  5
807
  8
Layer_6
  10
283.02875
  20
79.941254
  0
SEQEND
  0
POLYLINE
  5
809
  8
Layer_6
  62
5
  70
1
  66
1
  10
0
  20
0
  30
0
  0
VERTEX
  5
809
  8
Layer_6
  10
300.16968
  20
22.084503
  0
VERTEX
  5
80a
  8
Layer_6
  10
300.09235
  20
21.859192
  0
VERTEX
  5
80b
  8
Layer_6
  10
299.9837
  20
21.631653
  0
VERTEX
  5
80c
  8
Layer_6
  10
299.84756
  20
21.406677
  0
VERTEX
  5
80d
  8
Layer_6
  10
299.68784
  20
21.189087
  0
VERTEX
  5
80e
  8
Layer_6
  10
299.31274
  20
20.794983
  0
VERTEX
  5
80f
  8
Layer_6
  10
298.88907
  20
20.48764
  0
VERTEX
  5
810
  8
Layer_6
  10
298.83755
  20
20.470734
  0
VERTEX
  5
811
  8
Layer_6
  10
298.74374
  20
20.454346
  0
VERTEX
  5
812
  8
Layer_6
  10
298.60901
  20
20.438477
  0
VERTEX
  5
813
  8
Layer_6
  10
298.43475
  20
20.423126
  0
VERTEX
  5
814
  8
Layer_6
  10
298.22229
  20
20.408325
  0
VERTEX
  5
815
  8
Layer_6
  10
297.97302
  20
20.394043
  0
VERTEX
  5
816
  8
Layer_6
  10
297.68829
  20
20.38028
  0
VERTEX
  5
817
  8
Layer_6
  10
297.36945
  20
20.367065
  0
VERTEX
  5
818
  8
Layer_6
  10
296.63495
  20
20.342224
  0
VERTEX
  5
819
  8
Layer_6
  10
295.78046
  20
20.319458
  0
VERTEX
  5
81a
  8
Layer_6
  10
294.81683
  20
20.298889
  0
VERTEX
  5
81b
  8
Layer_6
  10
293.755
  20
20.280396
  0
VERTEX
  5
81c
  8
Layer_6
  10
292.6059
  20
20.264069
  0
VERTEX
  5
81d
  8
Layer_6
  10
291.38043
  20
20.249817
  0
VERTEX
  5
81e
  8
Layer_6
  10
290.08948
  20
20.237732
  0
VERTEX
  5
81f
  8
Layer_6
  10
288.74402
  20
20.227783
  0
VERTEX
  5
820
  8
Layer_6
  10
285.93304
  20
20.214294
  0
VERTEX
  5
821
  8
Layer_6
  10
283.03479
  20
20.209351
  0
VERTEX
  5
822
  8
Layer_6
  10
280.13651
  20
20.213013
  0
VERTEX
  5
823
  8
Layer_6
  10
277.32556
  20
20.225281
  0
VERTEX
  5
824
  8
Layer_6
  10
275.9801
  20
20.234619
  0
VERTEX
  5
825
  8
Layer_6
  10
274.68915
  20
20.246155
  0
VERTEX
  5
826
  8
Layer_6
  10
273.46368
  20
20.259857
  0
VERTEX
  5
827
  8
Layer_6
  10
272.31458
  20
20.275665
  0
VERTEX
  5
828
  8
Layer_6
  10
271.25278
  20
20.29364
  0
VERTEX
  5
829
  8
Layer_6
  10
270.28918
  20
20.313843
  0
VERTEX
  5
82a
  8
Layer_6
  10
269.84763
  20
20.324738
  0
VERTEX
  5
82b
  8
Layer_6
  10
269.05176
  20
20.348175
  0
VERTEX
  5
82c
  8
Layer_6
  10
268.38141
  20
20.37381
  0
VERTEX
  5
82d
  8
Layer_6
  10
268.09668
  20
20.387451
  0
VERTEX
  5
82e
  8
Layer_6
  10
267.84741
  20
20.401611
  0
VERTEX
  5
82f
  8
Layer_6
  10
267.63498
  20
20.416321
  0
VERTEX
  5
830
  8
Layer_6
  10
267.46072
  20
20.43158
  0
VERTEX
  5
831
  8
Layer_6
  10
267.32605
  20
20.447357
  0
VERTEX
  5
832
  8
Layer_6
  10
267.23227
  20
20.463715
  0
VERTEX
  5
833
  8
Layer_6
  10
267.18076
  20
20.480621
  0
VERTEX
  5
834
  8
Layer_6
  10
266.94916
  20
20.629974
  0
VERTEX
  5
835
  8
Layer_6
  10
266.73645
  20
20.800964
  0
VERTEX
  5
836
  8
Layer_6
  10
266.54327
  20
20.992798
  0
VERTEX
  5
837
  8
Layer_6
  10
266.37021
  20
21.204651
  0
VERTEX
  5
838
  8
Layer_6
  10
266.21777
  20
21.435852
  0
VERTEX
  5
839
  8
Layer_6
  10
266.08661
  20
21.685547
  0
VERTEX
  5
83a
  8
Layer_6
  10
265.97723
  20
21.952972
  0
VERTEX
  5
83b
  8
Layer_6
  10
265.89017
  20
22.237335
  0
VERTEX
  5
83c
  8
Layer_6
  10
265.87805
  20
22.307831
  0
VERTEX
  5
83d
  8
Layer_6
  10
265.86652
  20
22.424255
  0
VERTEX
  5
83e
  8
Layer_6
  10
265.85553
  20
22.587769
  0
VERTEX
  5
83f
  8
Layer_6
  10
265.84509
  20
22.799591
  0
VERTEX
  5
840
  8
Layer_6
  10
265.83521
  20
23.060852
  0
VERTEX
  5
841
  8
Layer_6
  10
265.81708
  20
23.736603
  0
VERTEX
  5
842
  8
Layer_6
  10
265.80109
  20
24.624329
  0
VERTEX
  5
843
  8
Layer_6
  10
265.78717
  20
25.733582
  0
VERTEX
  5
844
  8
Layer_6
  10
265.7753
  20
27.073761
  0
VERTEX
  5
845
  8
Layer_6
  10
265.76129
  20
29.53772
  0
VERTEX
  5
846
  8
Layer_6
  10
265.75162
  20
32.574341
  0
VERTEX
  5
847
  8
Layer_6
  10
265.74539
  20
37.569153
  0
VERTEX
  5
848
  8
Layer_6
  10
265.74768
  20
45.439148
  0
VERTEX
  5
849
  8
Layer_6
  10
265.77512
  20
64.132874
  0
VERTEX
  5
84a
  8
Layer_6
  10
265.80673
  20
75.373413
  0
VERTEX
  5
84b
  8
Layer_6
  10
265.83038
  20
78.823853
  0
VERTEX
  5
84c
  8
Layer_6
  10
265.84775
  20
80.274109
  0
VERTEX
  5
84d
  8
Layer_6
  10
265.85773
  20
80.875183
  0
VERTEX
  5
84e
  8
Layer_6
  10
265.86865
  20
81.401031
  0
VERTEX
  5
84f
  8
Layer_6
  10
265.88058
  20
81.857239
  0
VERTEX
  5
850
  8
Layer_6
  10
265.89362
  20
82.249329
  0
VERTEX
  5
851
  8
Layer_6
  10
265.90778
  20
82.582947
  0
VERTEX
  5
852
  8
Layer_6
  10
265.92313
  20
82.863708
  0
VERTEX
  5
853
  8
Layer_6
  10
265.93976
  20
83.097168
  0
VERTEX
  5
854
  8
Layer_6
  10
265.95776
  20
83.28891
  0
VERTEX
  5
855
  8
Layer_6
  10
265.97711
  20
83.444519
  0
VERTEX
  5
856
  8
Layer_6
  10
265.99799
  20
83.56958
  0
VERTEX
  5
857
  8
Layer_6
  10
266.02042
  20
83.669678
  0
VERTEX
  5
858
  8
Layer_6
  10
266.07013
  20
83.817322
  0
VERTEX
  5
859
  8
Layer_6
  10
266.12686
  20
83.93222
  0
VERTEX
  5
85a
  8
Layer_6
  10
266.29379
  20
84.19873
  0
VERTEX
  5
85b
  8
Layer_6
  10
266.50955
  20
84.475677
  0
VERTEX
  5
85c
  8
Layer_6
  10
266.74622
  20
84.730408
  0
VERTEX
  5
85d
  8
Layer_6
  10
266.97598
  20
84.930115
  0
VERTEX
  5
85e
  8
Layer_6
  10
267.15796
  20
85.056183
  0
VERTEX
  5
85f
  8
Layer_6
  10
267.35294
  20
85.151794
  0
VERTEX
  5
860
  8
Layer_6
  10
267.47076
  20
85.189453
  0
VERTEX
  5
861
  8
Layer_6
  10
267.61038
  20
85.2211
  0
VERTEX
  5
862
  8
Layer_6
  10
267.77802
  20
85.247223
  0
VERTEX
  5
863
  8
Layer_6
  10
267.97986
  20
85.268372
  0
VERTEX
  5
864
  8
Layer_6
  10
268.22208
  20
85.285034
  0
VERTEX
  5
865
  8
Layer_6
  10
268.51089
  20
85.297791
  0
VERTEX
  5
866
  8
Layer_6
  10
268.85248
  20
85.307129
  0
VERTEX
  5
867
  8
Layer_6
  10
269.25305
  20
85.313599
  0
VERTEX
  5
868
  8
Layer_6
  10
269.71875
  20
85.317719
  0
VERTEX
  5
869
  8
Layer_6
  10
270.2558
  20
85.320007
  0
VERTEX
  5
86a
  8
Layer_6
  10
275.63538
  20
85.321167
  0
VERTEX
  5
86b
  8
Layer_6
  10
275.63538
  20
87.062195
  0
VERTEX
  5
86c
  8
Layer_6
  10
275.63782
  20
87.425873
  0
VERTEX
  5
86d
  8
Layer_6
  10
275.64545
  20
87.760071
  0
VERTEX
  5
86e
  8
Layer_6
  10
275.65887
  20
88.06665
  0
VERTEX
  5
86f
  8
Layer_6
  10
275.67859
  20
88.347412
  0
VERTEX
  5
870
  8
Layer_6
  10
275.73901
  20
88.838806
  0
VERTEX
  5
871
  8
Layer_6
  10
275.83105
  20
89.249084
  0
VERTEX
  5
872
  8
Layer_6
  10
275.95898
  20
89.592804
  0
VERTEX
  5
873
  8
Layer_6
  10
276.12704
  20
89.884705
  0
VERTEX
  5
874
  8
Layer_6
  10
276.33954
  20
90.139404
  0
VERTEX
  5
875
  8
Layer_6
  10
276.60074
  20
90.371582
  0
VERTEX
  5
876
  8
Layer_6
  10
277.12979
  20
90.787872
  0
VERTEX
  5
877
  8
Layer_6
  10
284.70953
  20
90.787476
  0
VERTEX
  5
878
  8
Layer_6
  10
286.06708
  20
90.782166
  0
VERTEX
  5
879
  8
Layer_6
  10
286.8147
  20
90.772827
  0
VERTEX
  5
87a
  8
Layer_6
  10
287.14542
  20
90.765747
  0
VERTEX
  5
87b
  8
Layer_6
  10
287.44922
  20
90.756714
  0
VERTEX
  5
87c
  8
Layer_6
  10
287.72754
  20
90.745544
  0
VERTEX
  5
87d
  8
Layer_6
  10
287.98175
  20
90.731995
  0
VERTEX
  5
87e
  8
Layer_6
  10
288.42316
  20
90.696808
  0
VERTEX
  5
87f
  8
Layer_6
  10
288.78455
  20
90.649353
  0
VERTEX
  5
880
  8
Layer_6
  10
289.07687
  20
90.587769
  0
VERTEX
  5
881
  8
Layer_6
  10
289.31116
  20
90.510223
  0
VERTEX
  5
882
  8
Layer_6
  10
289.49841
  20
90.414856
  0
VERTEX
  5
883
  8
Layer_6
  10
289.64963
  20
90.299896
  0
VERTEX
  5
884
  8
Layer_6
  10
289.77588
  20
90.163452
  0
VERTEX
  5
885
  8
Layer_6
  10
289.88806
  20
90.003723
  0
VERTEX
  5
886
  8
Layer_6
  10
289.99725
  20
89.818848
  0
VERTEX
  5
887
  8
Layer_6
  10
290.11444
  20
89.606995
  0
VERTEX
  5
888
  8
Layer_6
  10
290.20041
  20
89.43457
  0
VERTEX
  5
889
  8
Layer_6
  10
290.26935
  20
89.252319
  0
VERTEX
  5
88a
  8
Layer_6
  10
290.32294
  20
89.046509
  0
VERTEX
  5
88b
  8
Layer_6
  10
290.36292
  20
88.803497
  0
VERTEX
  5
88c
  8
Layer_6
  10
290.39105
  20
88.509705
  0
VERTEX
  5
88d
  8
Layer_6
  10
290.40903
  20
88.151398
  0
VERTEX
  5
88e
  8
Layer_6
  10
290.41864
  20
87.714996
  0
VERTEX
  5
88f
  8
Layer_6
  10
290.42157
  20
87.186798
  0
VERTEX
  5
890
  8
Layer_6
  10
290.42215
  20
85.321167
  0
VERTEX
  5
891
  8
Layer_6
  10
295.19873
  20
85.320557
  0
VERTEX
  5
892
  8
Layer_6
  10
295.86737
  20
85.317932
  0
VERTEX
  5
893
  8
Layer_6
  10
296.45383
  20
85.312134
  0
VERTEX
  5
894
  8
Layer_6
  10
296.96478
  20
85.302063
  0
VERTEX
  5
895
  8
Layer_6
  10
297.40692
  20
85.28653
  0
VERTEX
  5
896
  8
Layer_6
  10
297.78693
  20
85.264404
  0
VERTEX
  5
897
  8
Layer_6
  10
298.11151
  20
85.234497
  0
VERTEX
  5
898
  8
Layer_6
  10
298.38733
  20
85.195679
  0
VERTEX
  5
899
  8
Layer_6
  10
298.62109
  20
85.14682
  0
VERTEX
  5
89a
  8
Layer_6
  10
298.81955
  20
85.086761
  0
VERTEX
  5
89b
  8
Layer_6
  10
298.98932
  20
85.014343
  0
VERTEX
  5
89c
  8
Layer_6
  10
299.13708
  20
84.928406
  0
VERTEX
  5
89d
  8
Layer_6
  10
299.39343
  20
84.711395
  0
VERTEX
  5
89e
  8
Layer_6
  10
299.64209
  20
84.426544
  0
VERTEX
  5
89f
  8
Layer_6
  10
299.78519
  20
84.221985
  0
VERTEX
  5
8a0
  8
Layer_6
  10
299.92926
  20
83.96582
  0
VERTEX
  5
8a1
  8
Layer_6
  10
300.05756
  20
83.690857
  0
VERTEX
  5
8a2
  8
Layer_6
  10
300.15332
  20
83.429657
  0
VERTEX
  5
8a3
  8
Layer_6
  10
300.16333
  20
83.353333
  0
VERTEX
  5
8a4
  8
Layer_6
  10
300.1731
  20
83.193054
  0
VERTEX
  5
8a5
  8
Layer_6
  10
300.1825
  20
82.95163
  0
VERTEX
  5
8a6
  8
Layer_6
  10
300.19165
  20
82.631714
  0
VERTEX
  5
8a7
  8
Layer_6
  10
300.20905
  20
81.767242
  0
VERTEX
  5
8a8
  8
Layer_6
  10
300.22522
  20
80.621277
  0
VERTEX
  5
8a9
  8
Layer_6
  10
300.2402
  20
79.215424
  0
VERTEX
  5
8aa
  8
Layer_6
  10
300.26041
  20
76.666809
  0
VERTEX
  5
8ab
  8
Layer_6
  10
300.28308
  20
72.561035
  0
VERTEX
  5
8ac
  8
Layer_6
  10
300.30457
  20
66.535034
  0
VERTEX
  5
8ad
  8
Layer_6
  10
300.32007
  20
58.439178
  0
VERTEX
  5
8ae
  8
Layer_6
  10
300.3241
  20
52.78833
  0
VERTEX
  5
8af
  8
Layer_6
  10
300.32306
  20
47.136475
  0
VERTEX
  5
8b0
  8
Layer_6
  10
300.31689
  20
41.656738
  0
VERTEX
  5
8b1
  8
Layer_6
  10
300.30554
  20
36.522217
  0
VERTEX
  5
8b2
  8
Layer_6
  10
300.28406
  20
30.853058
  0
VERTEX
  5
8b3
  8
Layer_6
  10
300.26093
  20
27.12793
  0
VERTEX
  5
8b4
  8
Layer_6
  10
300.24005
  20
24.920258
  0
VERTEX
  5
8b5
  8
Layer_6
  10
300.22449
  20
23.768188
  0
VERTEX
  5
8b6
  8
Layer_6
  10
300.20758
  20
22.897095
  0
VERTEX
  5
8b7
  8
Layer_6
  10
300.19861
  20
22.5737
  0
VERTEX
  5
8b8
  8
Layer_6
  10
300.1893
  20
22.328674
  0
VERTEX
  5
8b9
  8
Layer_6
  10
300.17966
  20
22.164673
  0
VERTEX
  5
8ba
  8
Layer_6
  10
300.16968
  20
22.084503
  0
SEQEND
  0
POLYLINE
  5
8bc
  8
Layer_7
  62
12
  70
1
  66
1
  10
0
  20
0
  30
0
  0
VERTEX
  5
8bc
  8
Layer_7
  10
290.52832
  20
34.729553
  0
VERTEX
  5
8bd
  8
Layer_7
  10
275.52832
  20
34.729553
  0
VERTEX
  5
8be
  8
Layer_7
  10
275.12527
  20
34.697021
  0
VERTEX
  5
8bf
  8
Layer_7
  10
274.74985
  20
34.603638
  0
VERTEX
  5
8c0
  8
Layer_7
  10
274.4101
  20
34.455872
  0
VERTEX
  5
8c1
  8
Layer_7
  10
274.11414
  20
34.260223
  0
VERTEX
  5
8c2
  8
Layer_7
  10
273.86987
  20
34.023071
  0
VERTEX
  5
8c3
  8
Layer_7
  10
273.68549
  20
33.750885
  0
VERTEX
  5
8c4
  8
Layer_7
  10
273.56894
  20
33.450104
  0
VERTEX
  5
8c5
  8
Layer_7
  10
273.52832
  20
33.127167
  0
VERTEX
  5
8c6
  8
Layer_7
  10
273.52832
  20
29.6091
  0
VERTEX
  5
8c7
  8
Layer_7
  10
273.56894
  20
29.286163
  0
VERTEX
  5
8c8
  8
Layer_7
  10
273.68549
  20
28.985382
  0
VERTEX
  5
8c9
  8
Layer_7
  10
273.86987
  20
28.713196
  0
VERTEX
  5
8ca
  8
Layer_7
  10
274.11414
  20
28.476044
  0
VERTEX
  5
8cb
  8
Layer_7
  10
274.4101
  20
28.280396
  0
VERTEX
  5
8cc
  8
Layer_7
  10
274.74985
  20
28.132629
  0
VERTEX
  5
8cd
  8
Layer_7
  10
275.12527
  20
28.039246
  0
VERTEX
  5
8ce
  8
Layer_7
  10
275.52832
  20
28.006714
  0
VERTEX
  5
8cf
  8
Layer_7
  10
290.52832
  20
28.006714
  0
VERTEX
  5
8d0
  8
Layer_7
  10
290.93137
  20
28.039246
  0
VERTEX
  5
8d1
  8
Layer_7
  10
291.30679
  20
28.132629
  0
VERTEX
  5
8d2
  8
Layer_7
  10
291.64655
  20
28.280396
  0
VERTEX
  5
8d3
  8
Layer_7
  10
291.9425
  20
28.476044
  0
VERTEX
  5
8d4
  8
Layer_7
  10
292.18677
  20
28.713196
  0
VERTEX
  5
8d5
  8
Layer_7
  10
292.37115
  20
28.985382
  0
VERTEX
  5
8d6
  8
Layer_7
  10
292.4877
  20
29.286163
  0
VERTEX
  5
8d7
  8
Layer_7
  10
292.52832
  20
29.6091
  0
VERTEX
  5
8d8
  8
Layer_7
  10
292.52832
  20
33.127167
  0
VERTEX
  5
8d9
  8
Layer_7
  10
292.4877
  20
33.450104
  0
VERTEX
  5
8da
  8
Layer_7
  10
292.37115
  20
33.750885
  0
VERTEX
  5
8db
  8
Layer_7
  10
292.18677
  20
34.023071
  0
VERTEX
  5
8dc
  8
Layer_7
  10
291.9425
  20
34.260223
  0
VERTEX
  5
8dd
  8
Layer_7
  10
291.64655
  20
34.455872
  0
VERTEX
  5
8de
  8
Layer_7
  10
291.30679
  20
34.603638
  0
VERTEX
  5
8df
  8
Layer_7
  10
290.93137
  20
34.697021
  0
VERTEX
  5
8e0
  8
Layer_7
  10
290.52832
  20
34.729553
  0
SEQEND
  0
POLYLINE
  5
8e2
  8
Layer_7
  62
12
  70
1
  66
1
  10
0
  20
0
  30
0
  0
VERTEX
  5
8e2
  8
Layer_7
  10
290.52832
  20
43.295135
  0
VERTEX
  5
8e3
  8
Layer_7
  10
275.52832
  20
43.295135
  0
VERTEX
  5
8e4
  8
Layer_7
  10
275.12527
  20
43.262573
  0
VERTEX
  5
8e5
  8
Layer_7
  10
274.74985
  20
43.16922
  0
VERTEX
  5
8e6
  8
Layer_7
  10
274.4101
  20
43.021484
  0
VERTEX
  5
8e7
  8
Layer_7
  10
274.11414
  20
42.825806
  0
VERTEX
  5
8e8
  8
Layer_7
  10
273.86987
  20
42.588654
  0
VERTEX
  5
8e9
  8
Layer_7
  10
273.68549
  20
42.316467
  0
VERTEX
  5
8ea
  8
Layer_7
  10
273.56894
  20
42.015686
  0
VERTEX
  5
8eb
  8
Layer_7
  10
273.52832
  20
41.692749
  0
VERTEX
  5
8ec
  8
Layer_7
  10
273.52832
  20
38.174683
  0
VERTEX
  5
8ed
  8
Layer_7
  10
273.56894
  20
37.851746
  0
VERTEX
  5
8ee
  8
Layer_7
  10
273.68549
  20
37.550964
  0
VERTEX
  5
8ef
  8
Layer_7
  10
273.86987
  20
37.278778
  0
VERTEX
  5
8f0
  8
Layer_7
  10
274.11414
  20
37.041626
  0
VERTEX
  5
8f1
  8
Layer_7
  10
274.4101
  20
36.845947
  0
VERTEX
  5
8f2
  8
Layer_7
  10
274.74985
  20
36.698212
  0
VERTEX
  5
8f3
  8
Layer_7
  10
275.12527
  20
36.604858
  0
VERTEX
  5
8f4
  8
Layer_7
  10
275.52832
  20
36.572296
  0
VERTEX
  5
8f5
  8
Layer_7
  10
290.52832
  20
36.572296
  0
VERTEX
  5
8f6
  8
Layer_7
  10
290.93137
  20
36.604858
  0
VERTEX
  5
8f7
  8
Layer_7
  10
291.30679
  20
36.698212
  0
VERTEX
  5
8f8
  8
Layer_7
  10
291.64655
  20
36.845947
  0
VERTEX
  5
8f9
  8
Layer_7
  10
291.9425
  20
37.041626
  0
VERTEX
  5
8fa
  8
Layer_7
  10
292.18677
  20
37.278778
  0
VERTEX
  5
8fb
  8
Layer_7
  10
292.37115
  20
37.550964
  0
VERTEX
  5
8fc
  8
Layer_7
  10
292.4877
  20
37.851746
  0
VERTEX
  5
8fd
  8
Layer_7
  10
292.52832
  20
38.174683
  0
VERTEX
  5
8fe
  8
Layer_7
  10
292.52832
  20
41.692749
  0
VERTEX
  5
8ff
  8
Layer_7
  10
292.4877
  20
42.015686
  0
VERTEX
  5
900
  8
Layer_7
  10
292.37115
  20
42.316467
  0
VERTEX
  5
901
  8
Layer_7
  10
292.18677
  20
42.588654
  0
VERTEX
  5
902
  8
Layer_7
  10
291.9425
  20
42.825806
  0
VERTEX
  5
903
  8
Layer_7
  10
291.64655
  20
43.021484
  0
VERTEX
  5
904
  8
Layer_7
  10
291.30679
  20
43.16922
  0
VERTEX
  5
905
  8
Layer_7
  10
290.93137
  20
43.262573
  0
VERTEX
  5
906
  8
Layer_7
  10
290.52832
  20
43.295135
  0
SEQEND
  0
POLYLINE
  5
908
  8
Layer_7
  62
12
  70
1
  66
1
  10
0
  20
0
  30
0
  0
VERTEX
  5
908
  8
Layer_7
  10
290.52832
  20
51.860657
  0
VERTEX
  5
909
  8
Layer_7
  10
275.52832
  20
51.860657
  0
VERTEX
  5
90a
  8
Layer_7
  10
275.12527
  20
51.828125
  0
VERTEX
  5
90b
  8
Layer_7
  10
274.74985
  20
51.734741
  0
VERTEX
  5
90c
  8
Layer_7
  10
274.4101
  20
51.586975
  0
VERTEX
  5
90d
  8
Layer_7
  10
274.11414
  20
51.391327
  0
VERTEX
  5
90e
  8
Layer_7
  10
273.86987
  20
51.154175
  0
VERTEX
  5
90f
  8
Layer_7
  10
273.68549
  20
50.881989
  0
VERTEX
  5
910
  8
Layer_7
  10
273.56894
  20
50.581207
  0
VERTEX
  5
911
  8
Layer_7
  10
273.52832
  20
50.25827
  0
VERTEX
  5
912
  8
Layer_7
  10
273.52832
  20
46.740204
  0
VERTEX
  5
913
  8
Layer_7
  10
273.56894
  20
46.417267
  0
VERTEX
  5
914
  8
Layer_7
  10
273.68549
  20
46.116486
  0
VERTEX
  5
915
  8
Layer_7
  10
273.86987
  20
45.844299
  0
VERTEX
  5
916
  8
Layer_7
  10
274.11414
  20
45.607147
  0
VERTEX
  5
917
  8
Layer_7
  10
274.4101
  20
45.411499
  0
VERTEX
  5
918
  8
Layer_7
  10
274.74985
  20
45.263733
  0
VERTEX
  5
919
  8
Layer_7
  10
275.12527
  20
45.170349
  0
VERTEX
  5
91a
  8
Layer_7
  10
275.52832
  20
45.137817
  0
VERTEX
  5
91b
  8
Layer_7
  10
290.52832
  20
45.137817
  0
VERTEX
  5
91c
  8
Layer_7
  10
290.93137
  20
45.170349
  0
VERTEX
  5
91d
  8
Layer_7
  10
291.30679
  20
45.263733
  0
VERTEX
  5
91e
  8
Layer_7
  10
291.64655
  20
45.411499
  0
VERTEX
  5
91f
  8
Layer_7
  10
291.9425
  20
45.607147
  0
VERTEX
  5
920
  8
Layer_7
  10
292.18677
  20
45.844299
  0
VERTEX
  5
921
  8
Layer_7
  10
292.37115
  20
46.116486
  0
VERTEX
  5
922
  8
Layer_7
  10
292.4877
  20
46.417267
  0
VERTEX
  5
923
  8
Layer_7
  10
292.52832
  20
46.740204
  0
VERTEX
  5
924
  8
Layer_7
  10
292.52832
  20
50.25827
  0
VERTEX
  5
925
  8
Layer_7
  10
292.4877
  20
50.581207
  0
VERTEX
  5
926
  8
Layer_7
  10
292.37115
  20
50.881989
  0
VERTEX
  5
927
  8
Layer_7
  10
292.18677
  20
51.154175
  0
VERTEX
  5
928
  8
Layer_7
  10
291.9425
  20
51.391327
  0
VERTEX
  5
929
  8
Layer_7
  10
291.64655
  20
51.586975
  0
VERTEX
  5
92a
  8
Layer_7
  10
291.30679
  20
51.734741
  0
VERTEX
  5
92b
  8
Layer_7
  10
290.93137
  20
51.828125
  0
VERTEX
  5
92c
  8
Layer_7
  10
290.52832
  20
51.860657
  0
SEQEND
  0
POLYLINE
  5
92e
  8
Layer_7
  62
12
  70
1
  66
1
  10
0
  20
0
  30
0
  0
VERTEX
  5
92e
  8
Layer_7
  10
290.52832
  20
60.426239
  0
VERTEX
  5
92f
  8
Layer_7
  10
275.52832
  20
60.426239
  0
VERTEX
  5
930
  8
Layer_7
  10
275.12527
  20
60.393677
  0
VERTEX
  5
931
  8
Layer_7
  10
274.74985
  20
60.300323
  0
VERTEX
  5
932
  8
Layer_7
  10
274.4101
  20
60.152588
  0
VERTEX
  5
933
  8
Layer_7
  10
274.11414
  20
59.956909
  0
VERTEX
  5
934
  8
Layer_7
  10
273.86987
  20
59.719757
  0
VERTEX
  5
935
  8
Layer_7
  10
273.68549
  20
59.447571
  0
VERTEX
  5
936
  8
Layer_7
  10
273.56894
  20
59.14679
  0
VERTEX
  5
937
  8
Layer_7
  10
273.52832
  20
58.823853
  0
VERTEX
  5
938
  8
Layer_7
  10
273.52832
  20
55.305786
  0
VERTEX
  5
939
  8
Layer_7
  10
273.56894
  20
54.982849
  0
VERTEX
  5
93a
  8
Layer_7
  10
273.68549
  20
54.682068
  0
VERTEX
  5
93b
  8
Layer_7
  10
273.86987
  20
54.409882
  0
VERTEX
  5
93c
  8
Layer_7
  10
274.11414
  20
54.172729
  0
VERTEX
  5
93d
  8
Layer_7
  10
274.4101
  20
53.977051
  0
VERTEX
  5
93e
  8
Layer_7
  10
274.74985
  20
53.829315
  0
VERTEX
  5
93f
  8
Layer_7
  10
275.12527
  20
53.735962
  0
VERTEX
  5
940
  8
Layer_7
  10
275.52832
  20
53.7034
  0
VERTEX
  5
941
  8
Layer_7
  10
290.52832
  20
53.7034
  0
VERTEX
  5
942
  8
Layer_7
  10
290.93137
  20
53.735962
  0
VERTEX
  5
943
  8
Layer_7
  10
291.30679
  20
53.829315
  0
VERTEX
  5
944
  8
Layer_7
  10
291.64655
  20
53.977051
  0
VERTEX
  5
945
  8
Layer_7
  10
291.9425
  20
54.172729
  0
VERTEX
  5
946
  8
Layer_7
  10
292.18677
  20
54.409882
  0
VERTEX
  5
947
  8
Layer_7
  10
292.37115
  20
54.682068
  0
VERTEX
  5
948
  8
Layer_7
  10
292.4877
  20
54.982849
  0
VERTEX
  5
949
  8
Layer_7
  10
292.52832
  20
55.305786
  0
VERTEX
  5
94a
  8
Layer_7
  10
292.52832
  20
58.823853
  0
VERTEX
  5
94b
  8
Layer_7
  10
292.4877
  20
59.14679
  0
VERTEX
  5
94c
  8
Layer_7
  10
292.37115
  20
59.447571
  0
VERTEX
  5
94d
  8
Layer_7
  10
292.18677
  20
59.719757
  0
VERTEX
  5
94e
  8
Layer_7
  10
291.9425
  20
59.956909
  0
VERTEX
  5
94f
  8
Layer_7
  10
291.64655
  20
60.152588
  0
VERTEX
  5
950
  8
Layer_7
  10
291.30679
  20
60.300323
  0
VERTEX
  5
951
  8
Layer_7
  10
290.93137
  20
60.393677
  0
VERTEX
  5
952
  8
Layer_7
  10
290.52832
  20
60.426239
  0
SEQEND
  0
POLYLINE
  5
954
  8
Layer_7
  62
12
  70
1
  66
1
  10
0
  20
0
  30
0
  0
VERTEX
  5
954
  8
Layer_7
  10
290.52832
  20
68.991791
  0
VERTEX
  5
955
  8
Layer_7
  10
275.52832
  20
68.991791
  0
VERTEX
  5
956
  8
Layer_7
  10
275.12527
  20
68.959229
  0
VERTEX
  5
957
  8
Layer_7
  10
274.74985
  20
68.865875
  0
VERTEX
  5
958
  8
Layer_7
  10
274.4101
  20
68.71814
  0
VERTEX
  5
959
  8
Layer_7
  10
274.11414
  20
68.522461
  0
VERTEX
  5
95a
  8
Layer_7
  10
273.86987
  20
68.285309
  0
VERTEX
  5
95b
  8
Layer_7
  10
273.68549
  20
68.013123
  0
VERTEX
  5
95c
  8
Layer_7
  10
273.56894
  20
67.712341
  0
VERTEX
  5
95d
  8
Layer_7
  10
273.52832
  20
67.389404
  0
VERTEX
  5
95e
  8
Layer_7
  10
273.52832
  20
63.871338
  0
VERTEX
  5
95f
  8
Layer_7
  10
273.56894
  20
63.548401
  0
VERTEX
  5
960
  8
Layer_7
  10
273.68549
  20
63.24762
  0
VERTEX
  5
961
  8
Layer_7
  10
273.86987
  20
62.975433
  0
VERTEX
  5
962
  8
Layer_7
  10
274.11414
  20
62.738281
  0
VERTEX
  5
963
  8
Layer_7
  10
274.4101
  20
62.542603
  0
VERTEX
  5
964
  8
Layer_7
  10
274.74985
  20
62.394867
  0
VERTEX
  5
965
  8
Layer_7
  10
275.12527
  20
62.301514
  0
VERTEX
  5
966
  8
Layer_7
  10
275.52832
  20
62.268951
  0
VERTEX
  5
967
  8
Layer_7
  10
290.52832
  20
62.268951
  0
VERTEX
  5
968
  8
Layer_7
  10
290.93137
  20
62.301514
  0
VERTEX
  5
969
  8
Layer_7
  10
291.30679
  20
62.394867
  0
VERTEX
  5
96a
  8
Layer_7
  10
291.64655
  20
62.542603
  0
VERTEX
  5
96b
  8
Layer_7
  10
291.9425
  20
62.738281
  0
VERTEX
  5
96c
  8
Layer_7
  10
292.18677
  20
62.975433
  0
VERTEX
  5
96d
  8
Layer_7
  10
292.37115
  20
63.24762
  0
VERTEX
  5
96e
  8
Layer_7
  10
292.4877
  20
63.548401
  0
VERTEX
  5
96f
  8
Layer_7
  10
292.52832
  20
63.871338
  0
VERTEX
  5
970
  8
Layer_7
  10
292.52832
  20
67.389404
  0
VERTEX
  5
971
  8
Layer_7
  10
292.4877
  20
67.712341
  0
VERTEX
  5
972
  8
Layer_7
  10
292.37115
  20
68.013123
  0
VERTEX
  5
973
  8
Layer_7
  10
292.18677
  20
68.285309
  0
VERTEX
  5
974
  8
Layer_7
  10
291.9425
  20
68.522461
  0
VERTEX
  5
975
  8
Layer_7
  10
291.64655
  20
68.71814
  0
VERTEX
  5
976
  8
Layer_7
  10
291.30679
  20
68.865875
  0
VERTEX
  5
977
  8
Layer_7
  10
290.93137
  20
68.959229
  0
VERTEX
  5
978
  8
Layer_7
  10
290.52832
  20
68.991791
  0
SEQEND
  0
POLYLINE
  5
97a
  8
Layer_7
  62
12
  70
1
  66
1
  10
0
  20
0
  30
0
  0
VERTEX
  5
97a
  8
Layer_7
  10
290.52832
  20
77.557343
  0
VERTEX
  5
97b
  8
Layer_7
  10
275.52832
  20
77.557343
  0
VERTEX
  5
97c
  8
Layer_7
  10
275.12527
  20
77.52478
  0
VERTEX
  5
97d
  8
Layer_7
  10
274.74985
  20
77.431427
  0
VERTEX
  5
97e
  8
Layer_7
  10
274.4101
  20
77.283691
  0
VERTEX
  5
97f
  8
Layer_7
  10
274.11414
  20
77.088013
  0
VERTEX
  5
980
  8
Layer_7
  10
273.86987
  20
76.850861
  0
VERTEX
  5
981
  8
Layer_7
  10
273.68549
  20
76.578674
  0
VERTEX
  5
982
  8
Layer_7
  10
273.56894
  20
76.277893
  0
VERTEX
  5
983
  8
Layer_7
  10
273.52832
  20
75.954956
  0
VERTEX
  5
984
  8
Layer_7
  10
273.52832
  20
72.43689
  0
VERTEX
  5
985
  8
Layer_7
  10
273.56894
  20
72.113953
  0
VERTEX
  5
986
  8
Layer_7
  10
273.68549
  20
71.813171
  0
VERTEX
  5
987
  8
Layer_7
  10
273.86987
  20
71.540985
  0
VERTEX
  5
988
  8
Layer_7
  10
274.11414
  20
71.303833
  0
VERTEX
  5
989
  8
Layer_7
  10
274.4101
  20
71.108154
  0
VERTEX
  5
98a
  8
Layer_7
  10
274.74985
  20
70.960419
  0
VERTEX
  5
98b
  8
Layer_7
  10
275.12527
  20
70.867065
  0
VERTEX
  5
98c
  8
Layer_7
  10
275.52832
  20
70.834503
  0
VERTEX
  5
98d
  8
Layer_7
  10
290.52832
  20
70.834503
  0
VERTEX
  5
98e
  8
Layer_7
  10
290.93137
  20
70.867065
  0
VERTEX
  5
98f
  8
Layer_7
  10
291.30679
  20
70.960419
  0
VERTEX
  5
990
  8
Layer_7
  10
291.64655
  20
71.108154
  0
VERTEX
  5
991
  8
Layer_7
  10
291.9425
  20
71.303833
  0
VERTEX
  5
992
  8
Layer_7
  10
292.18677
  20
71.540985
  0
VERTEX
  5
993
  8
Layer_7
  10
292.37115
  20
71.813171
  0
VERTEX
  5
994
  8
Layer_7
  10
292.4877
  20
72.113953
  0
VERTEX
  5
995
  8
Layer_7
  10
292.52832
  20
72.43689
  0
VERTEX
  5
996
  8
Layer_7
  10
292.52832
  20
75.954956
  0
VERTEX
  5
997
  8
Layer_7
  10
292.4877
  20
76.277893
  0
VERTEX
  5
998
  8
Layer_7
  10
292.37115
  20
76.578674
  0
VERTEX
  5
999
  8
Layer_7
  10
292.18677
  20
76.850861
  0
VERTEX
  5
99a
  8
Layer_7
  10
291.9425
  20
77.088013
  0
VERTEX
  5
99b
  8
Layer_7
  10
291.64655
  20
77.283691
  0
VERTEX
  5
99c
  8
Layer_7
  10
291.30679
  20
77.431427
  0
VERTEX
  5
99d
  8
Layer_7
  10
290.93137
  20
77.52478
  0
VERTEX
  5
99e
  8
Layer_7
  10
290.52832
  20
77.557343
  0
SEQEND
  0
ENDSEC
  0
EOF
