<?xml version="1.0" encoding="UTF-8" standalone="no"?>
<!-- Created with Inkscape (http://www.inkscape.org/) -->

<svg
   width="210mm"
   height="297mm"
   viewBox="0 0 210 297"
   version="1.1"
   id="svg5"
   inkscape:version="1.4.2 (ebf0e94, 2025-05-08)"
   sodipodi:docname="!20260313 - Template - Modelo C.svg"
   xmlns:inkscape="http://www.inkscape.org/namespaces/inkscape"
   xmlns:sodipodi="http://sodipodi.sourceforge.net/DTD/sodipodi-0.dtd"
   xmlns="http://www.w3.org/2000/svg"
   xmlns:svg="http://www.w3.org/2000/svg">
  <sodipodi:namedview
     id="namedview7"
     pagecolor="#ffffff"
     bordercolor="#000000"
     borderopacity="0.25"
     inkscape:showpageshadow="2"
     inkscape:pageopacity="0.0"
     inkscape:pagecheckerboard="0"
     inkscape:deskcolor="#d1d1d1"
     inkscape:document-units="mm"
     showgrid="false"
     inkscape:zoom="0.5"
     inkscape:cx="142"
     inkscape:cy="347"
     inkscape:window-width="1920"
     inkscape:window-height="1009"
     inkscape:window-x="-8"
     inkscape:window-y="-8"
     inkscape:window-maximized="1"
     inkscape:current-layer="layer9"
     showguides="true">
    <sodipodi:guide
       position="12.964583,240.64375"
       orientation="1,0"
       id="guide54"
       inkscape:locked="false" />
  </sodipodi:namedview>
  <defs
     id="defs2" />
  <g
     inkscape:groupmode="layer"
     id="layer3"
     inkscape:label="Base Cut"
     style="display:inline">
    <rect
       style="vector-effect:non-scaling-stroke;fill:none;stroke:#000000;stroke-width:0.264583;stroke-dasharray:none;stroke-dashoffset:0;-inkscape-stroke:hairline"
       id="rect5853"
       width="3"
       height="3"
       x="10"
       y="10.000002" />
    <rect
       style="vector-effect:non-scaling-stroke;fill:none;stroke:#000000;stroke-width:0.264583;stroke-dasharray:none;stroke-dashoffset:0;-inkscape-stroke:hairline"
       id="rect5858"
       width="3"
       height="3"
       x="185"
       y="185" />
    <rect
       style="vector-effect:non-scaling-stroke;fill:none;stroke:#000000;stroke-width:0.264583;stroke-dasharray:none;stroke-dashoffset:0;-inkscape-stroke:hairline"
       id="rect5860"
       width="3"
       height="3"
       x="185"
       y="10.000002" />
    <rect
       style="vector-effect:non-scaling-stroke;fill:none;stroke:#000000;stroke-width:0.264583;stroke-dasharray:none;stroke-dashoffset:0;-inkscape-stroke:hairline"
       id="rect5862"
       width="3"
       height="3"
       x="10"
       y="185" />
    <rect
       style="vector-effect:non-scaling-stroke;fill:none;stroke:#000000;stroke-width:0.253531;stroke-dasharray:none;stroke-dashoffset:0;-inkscape-stroke:hairline"
       id="rect5864"
       width="198"
       height="198"
       x="0"
       y="0"
       rx="2.9954612"
       ry="3.1612561" />
  </g>
  <g
     inkscape:groupmode="layer"
     id="layer4"
     inkscape:label="xHorizontal Cut"
     style="display:none">
    <g
       id="g5902"
       style="display:inline"
       transform="translate(-26,-2.5)">
      <path
         id="path5776"
         style="vector-effect:non-scaling-stroke;fill:none;stroke:#000000;stroke-width:0.259021;-inkscape-stroke:hairline"
         d="m 43.999898,36.349719 v 4.000273 0.299723 4.000273 l 9.999907,-4.000273 h 23.000146 36.999809 23.00015 l 9.9999,4.000273 v -4.000273 -0.299723 -4.000273 l -9.9999,4.000273 H 113.99976 76.999951 53.999805 Z" />
      <path
         id="path5786"
         style="vector-effect:non-scaling-stroke;fill:none;stroke:#000000;stroke-width:0.259021;-inkscape-stroke:hairline"
         d="m 43.999898,124.35003 v 4.00028 0.29972 4.00027 l 9.999907,-4.00027 h 23.000146 36.999809 23.00015 l 9.9999,4.00027 v -4.00027 -0.29972 -4.00028 l -9.9999,4.00028 H 113.99976 76.999951 53.999805 Z" />
    </g>
  </g>
  <g
     inkscape:label="Vertical Cut"
     inkscape:groupmode="layer"
     id="layer1"
     style="display:inline">
    <path
       id="path5772"
       style="vector-effect:non-scaling-stroke;fill:none;stroke:#000000;stroke-width:0.259021;-inkscape-stroke:hairline"
       d="m 93.85,18.000041 4.00027,9.999906 v 48.000171 11.999784 87.000148 l -4.00027,9.9999 h 4.00027 0.29972 4.00027 l -4.00027,-9.9999 V 87.999902 76.000118 27.999947 l 4.00027,-9.999906 h -4.00027 -0.29972 z"
       sodipodi:nodetypes="ccccccccccccccccc" />
    <path
       id="rect3581"
       style="vector-effect:non-scaling-stroke;fill:none;stroke:#000000;stroke-width:0.259021;-inkscape-stroke:hairline"
       d="m 30.849865,18.000041 4.000272,9.999906 v 48.000171 11.999784 87.000148 l -4.000272,9.9999 h 4.000272 0.299724 4.000272 l -4.000272,-9.9999 V 87.999902 76.000118 27.999947 l 4.000272,-9.999906 h -4.000272 -0.299724 z"
       inkscape:label="path3581"
       sodipodi:nodetypes="ccccccccccccccccc" />
    <rect
       style="fill:none;stroke:none;stroke-width:0.717559;stroke-linecap:round;stroke-linejoin:round;-inkscape-stroke:none"
       id="rect1"
       width="10"
       height="230"
       x="30"
       y="10" />
    <g
       id="g2"
       transform="translate(41.499771)">
      <path
         id="path1"
         style="vector-effect:non-scaling-stroke;fill:none;stroke:#000000;stroke-width:0.259021;-inkscape-stroke:hairline"
         d="m 33.850094,18.000041 4.000272,9.999906 v 48.000171 11.999784 87.000148 l -4.000272,9.9999 h 4.000272 0.299724 4.000272 l -4.000272,-9.9999 V 87.999902 76.000118 27.999947 l 4.000272,-9.999906 H 38.15009 37.850366 Z"
         inkscape:label="path3581"
         sodipodi:nodetypes="ccccccccccccccccc" />
      <rect
         style="fill:none;stroke:none;stroke-width:0.717559;stroke-linecap:round;stroke-linejoin:round;-inkscape-stroke:none"
         id="rect2"
         width="10"
         height="230"
         x="33.000229"
         y="10" />
    </g>
    <path
       id="path9"
       style="vector-effect:non-scaling-stroke;fill:none;stroke:#000000;stroke-width:0.259021;-inkscape-stroke:hairline"
       d="m 119.85,18.000041 4.00027,9.999906 v 48.000171 11.999784 87.000148 l -4.00027,9.9999 h 4.00027 0.29972 4.00027 l -4.00027,-9.9999 V 87.999902 76.000118 27.999947 l 4.00027,-9.999906 h -4.00027 -0.29972 z"
       sodipodi:nodetypes="ccccccccccccccccc" />
    <path
       id="path11"
       style="vector-effect:non-scaling-stroke;fill:none;stroke:#000000;stroke-width:0.259021;-inkscape-stroke:hairline"
       d="m 157.85,18.000041 4.00027,9.999906 v 48.000171 11.999784 87.000138 l -4.00027,9.99992 h 4.00027 0.29972 4.00027 l -4.00027,-9.99992 V 87.999902 76.000118 27.999947 l 4.00027,-9.999906 h -4.00027 -0.29972 z"
       sodipodi:nodetypes="ccccccccccccccccc" />
    <g
       id="g54"
       transform="translate(267.31442,-16.600936)">
      <rect
         style="fill:none;stroke:none;stroke-width:0.1;stroke-linecap:butt;stroke-linejoin:round;stroke-dasharray:none;stroke-opacity:1"
         id="rect48"
         width="20"
         height="20"
         x="-105.31442"
         y="34.600937" />
      <g
         id="g52"
         transform="matrix(1.9994801,0,0,1.9994801,340.5712,42.597813)">
        <path
           id="path49"
           style="fill:#28220b;stroke-width:0.2;stroke-linecap:round;stroke-linejoin:round"
           d="m -220,0 2,1 -2,1 z"
           sodipodi:nodetypes="cccc"
           inkscape:transform-center-x="1.0005202"
           inkscape:transform-center-y="-0.0018225144" />
        <path
           id="path50"
           style="fill:#28220b;stroke-width:0.2;stroke-linecap:round;stroke-linejoin:round"
           d="m -216.99766,-0.99869769 -1,1.99999999 -1,-1.99999999 z"
           sodipodi:nodetypes="cccc"
           inkscape:transform-center-x="-0.0018198"
           inkscape:transform-center-y="-1.0005202" />
        <path
           id="path51"
           style="fill:#28220b;stroke-width:0.2;stroke-linecap:round;stroke-linejoin:round"
           d="m -215.99896,2.0036423 -2,-1 2,-0.99999999 z"
           sodipodi:nodetypes="cccc"
           inkscape:transform-center-x="-1.0005198"
           inkscape:transform-center-y="0.0018198" />
        <path
           id="path52"
           style="fill:#28220b;stroke-width:0.2;stroke-linecap:round;stroke-linejoin:round"
           d="m -219.0013,3.0023423 1,-2 1,2 z"
           sodipodi:nodetypes="cccc"
           inkscape:transform-center-x="0.0018202"
           inkscape:transform-center-y="1.0005198" />
      </g>
      <path
         style="fill:none;stroke:#008000;stroke-width:0.16;stroke-linecap:butt;stroke-linejoin:round;stroke-dasharray:none;stroke-opacity:1"
         d="m -95.314423,36.600937 v 16"
         id="path53"
         sodipodi:nodetypes="cc" />
      <path
         style="fill:none;stroke:#008000;stroke-width:0.16;stroke-linecap:butt;stroke-linejoin:round;stroke-dasharray:none;stroke-opacity:1"
         d="M -87.314424,44.600937 H -103.31442"
         id="path54"
         sodipodi:nodetypes="cc" />
    </g>
  </g>
  <g
     inkscape:groupmode="layer"
     id="layer5"
     inkscape:label="Pins"
     style="display:inline">
    <path
       id="rect5933"
       style="vector-effect:non-scaling-stroke;fill:none;stroke:#000000;stroke-width:0.221367;stroke-dasharray:none;stroke-dashoffset:0;-inkscape-stroke:hairline"
       d="m 177.31394,70.476935 v 3.000334 h 0.19999 v 4.999695 c 0,0.553999 0.44593,1.000456 0.99993,1.000456 h 0.79996 c 0.55399,0 0.99993,-0.446457 0.99993,-1.000456 v -4.999695 h 0.19999 v -3.000334 h -1.19992 -0.79996 z" />
    <path
       id="path5938"
       style="vector-effect:non-scaling-stroke;fill:none;stroke:#000000;stroke-width:0.221367;stroke-dasharray:none;stroke-dashoffset:0;-inkscape-stroke:hairline"
       d="m 177.31394,84.47742 v 3.000334 h 0.19999 v 4.999695 c 0,0.553999 0.44593,1.000456 0.99993,1.000456 h 0.79996 c 0.55399,0 0.99993,-0.446457 0.99993,-1.000456 v -4.999695 h 0.19999 V 84.47742 h -1.19992 -0.79996 z" />
    <path
       id="path5940"
       style="vector-effect:non-scaling-stroke;fill:none;stroke:#000000;stroke-width:0.221367;stroke-dasharray:none;stroke-dashoffset:0;-inkscape-stroke:hairline"
       d="m 177.31394,98.477905 v 3.000335 h 0.19999 v 4.99969 c 0,0.554 0.44593,1.00046 0.99993,1.00046 h 0.79996 c 0.55399,0 0.99993,-0.44646 0.99993,-1.00046 v -4.99969 h 0.19999 v -3.000335 h -1.19992 -0.79996 z" />
    <path
       id="path5942"
       style="vector-effect:non-scaling-stroke;fill:none;stroke:#000000;stroke-width:0.221367;stroke-dasharray:none;stroke-dashoffset:0;-inkscape-stroke:hairline"
       d="m 177.31394,112.47839 v 3.00033 h 0.19999 v 4.99969 c 0,0.554 0.44593,1.00046 0.99993,1.00046 h 0.79996 c 0.55399,0 0.99993,-0.44646 0.99993,-1.00046 v -4.99969 h 0.19999 v -3.00033 h -1.19992 -0.79996 z" />
  </g>
  <g
     inkscape:groupmode="layer"
     id="layer2"
     inkscape:label="Cut Sheet"
     style="display:inline">
    <path
       style="vector-effect:non-scaling-stroke;fill:none;stroke:#ff0000;stroke-width:0.264583;stroke-dasharray:none;-inkscape-stroke:hairline"
       d="m 35,18.000001 v 20 H 15"
       id="rect167" />
    <path
       style="vector-effect:non-scaling-stroke;fill:none;stroke:#ff0000;stroke-width:0.264583;stroke-dasharray:none;-inkscape-stroke:hairline"
       d="m 144,38.000001 h -20 v -20"
       id="path1003" />
    <path
       style="vector-effect:non-scaling-stroke;fill:none;stroke:#ff0000;stroke-width:0.264583;stroke-dasharray:none;-inkscape-stroke:hairline"
       d="M 35,185 V 165 H 15"
       id="path1005" />
    <path
       style="vector-effect:non-scaling-stroke;fill:none;stroke:#ff0000;stroke-width:0.264583;stroke-dasharray:none;-inkscape-stroke:hairline"
       d="m 144,165 h -20 v 20"
       id="path1007" />
    <rect
       style="vector-effect:non-scaling-stroke;fill:none;stroke:#ff0000;stroke-width:0.377788;stroke-dasharray:none;-inkscape-stroke:hairline"
       id="rect56"
       width="89"
       height="127"
       x="35"
       y="38" />
    <rect
       style="vector-effect:non-scaling-stroke;fill:none;stroke:#ff0000;stroke-width:0.266082;stroke-dasharray:none;-inkscape-stroke:hairline"
       id="rect111"
       width="63"
       height="89"
       x="35"
       y="38" />
    <rect
       style="vector-effect:non-scaling-stroke;fill:none;stroke:#ff0000;stroke-width:0.188894;stroke-dasharray:none;-inkscape-stroke:hairline"
       id="rect55"
       width="44.5"
       height="63.5"
       x="35"
       y="38" />
    <path
       style="vector-effect:non-scaling-stroke;fill:none;stroke:#ff0000;stroke-width:0.264583;stroke-dasharray:none;-inkscape-stroke:hairline"
       d="M 118,127 H 98 v 20"
       id="path93" />
    <path
       style="vector-effect:non-scaling-stroke;fill:none;stroke:#ff0000;stroke-width:0.264583;stroke-dasharray:none;-inkscape-stroke:hairline"
       d="m 99.5,101.5 h -20 v 20"
       id="path95" />
    <path
       style="vector-effect:non-scaling-stroke;fill:none;stroke:#ff0000;stroke-width:0.264583;stroke-dasharray:none;-inkscape-stroke:hairline"
       d="M 118,38.000001 H 98 v -20"
       id="path102" />
    <path
       style="vector-effect:non-scaling-stroke;fill:none;stroke:#ff0000;stroke-width:0.264583;stroke-dasharray:none;-inkscape-stroke:hairline"
       d="m 99.5,38.000001 h -20 v -20"
       id="path103" />
    <path
       style="vector-effect:non-scaling-stroke;fill:none;stroke:#ff0000;stroke-width:0.264583;stroke-dasharray:none;-inkscape-stroke:hairline"
       d="m 144,38.000001 h -20 v -20"
       id="path104" />
    <path
       style="vector-effect:non-scaling-stroke;fill:none;stroke:#ff0000;stroke-width:0.264583;stroke-dasharray:none;-inkscape-stroke:hairline"
       d="m 182,165 h -20 v 20"
       id="path111" />
    <path
       style="vector-effect:non-scaling-stroke;fill:none;stroke:#ff0000;stroke-width:0.264583;stroke-dasharray:none;-inkscape-stroke:hairline"
       d="m 182,38.000001 h -20 v -20"
       id="path112" />
    <path
       style="vector-effect:non-scaling-stroke;fill:none;stroke:#ff0000;stroke-width:0.264583;stroke-dasharray:none;-inkscape-stroke:hairline"
       d="M 35,147 V 127 H 15"
       id="path158" />
    <path
       style="vector-effect:non-scaling-stroke;fill:none;stroke:#ff0000;stroke-width:0.264583;stroke-dasharray:none;-inkscape-stroke:hairline"
       d="m 35,121.5 v -20 H 15"
       id="path159" />
  </g>
  <g
     inkscape:groupmode="layer"
     id="layer8"
     inkscape:label="View Marks"
     style="display:inline">
    <g
       id="g48"
       transform="translate(120.31442,-16.600937)"
       style="display:inline">
      <rect
         style="fill:none;stroke:none;stroke-width:0.1;stroke-linecap:butt;stroke-linejoin:round;stroke-dasharray:none;stroke-opacity:1"
         id="rect42"
         width="20"
         height="20"
         x="-105.31442"
         y="34.600937" />
      <g
         id="g46"
         transform="matrix(1.9994801,0,0,1.9994801,340.5712,42.597813)">
        <path
           id="path43"
           style="fill:#28220b;stroke-width:0.2;stroke-linecap:round;stroke-linejoin:round"
           d="m -220,0 2,1 -2,1 z"
           sodipodi:nodetypes="cccc"
           inkscape:transform-center-x="1.0005202"
           inkscape:transform-center-y="-0.0018225144" />
        <path
           id="path44"
           style="fill:#28220b;stroke-width:0.2;stroke-linecap:round;stroke-linejoin:round"
           d="m -216.99766,-0.99869769 -1,1.99999999 -1,-1.99999999 z"
           sodipodi:nodetypes="cccc"
           inkscape:transform-center-x="-0.0018198"
           inkscape:transform-center-y="-1.0005202" />
        <path
           id="path45"
           style="fill:#28220b;stroke-width:0.2;stroke-linecap:round;stroke-linejoin:round"
           d="m -215.99896,2.0036423 -2,-1 2,-0.99999999 z"
           sodipodi:nodetypes="cccc"
           inkscape:transform-center-x="-1.0005198"
           inkscape:transform-center-y="0.0018198" />
        <path
           id="path46"
           style="fill:#28220b;stroke-width:0.2;stroke-linecap:round;stroke-linejoin:round"
           d="m -219.0013,3.0023423 1,-2 1,2 z"
           sodipodi:nodetypes="cccc"
           inkscape:transform-center-x="0.0018202"
           inkscape:transform-center-y="1.0005198" />
      </g>
      <path
         style="fill:none;stroke:#008000;stroke-width:0.16;stroke-linecap:butt;stroke-linejoin:round;stroke-dasharray:none;stroke-opacity:1"
         d="m -95.314423,36.600937 v 16"
         id="path47"
         sodipodi:nodetypes="cc" />
      <path
         style="fill:none;stroke:#008000;stroke-width:0.16;stroke-linecap:butt;stroke-linejoin:round;stroke-dasharray:none;stroke-opacity:1"
         d="M -87.314424,44.600937 H -103.31442"
         id="path48"
         sodipodi:nodetypes="cc" />
    </g>
    <g
       id="g62"
       transform="translate(203.81442,-16.600937)"
       style="display:inline">
      <rect
         style="fill:none;stroke:none;stroke-width:0.1;stroke-linecap:butt;stroke-linejoin:round;stroke-dasharray:none;stroke-opacity:1"
         id="rect57"
         width="20"
         height="20"
         x="-105.31442"
         y="34.600937" />
      <g
         id="g60"
         transform="matrix(1.9994801,0,0,1.9994801,340.5712,42.597813)">
        <path
           id="path57"
           style="fill:#28220b;stroke-width:0.2;stroke-linecap:round;stroke-linejoin:round"
           d="m -220,0 2,1 -2,1 z"
           sodipodi:nodetypes="cccc"
           inkscape:transform-center-x="1.0005202"
           inkscape:transform-center-y="-0.0018225144" />
        <path
           id="path58"
           style="fill:#28220b;stroke-width:0.2;stroke-linecap:round;stroke-linejoin:round"
           d="m -216.99766,-0.99869769 -1,1.99999999 -1,-1.99999999 z"
           sodipodi:nodetypes="cccc"
           inkscape:transform-center-x="-0.0018198"
           inkscape:transform-center-y="-1.0005202" />
        <path
           id="path59"
           style="fill:#28220b;stroke-width:0.2;stroke-linecap:round;stroke-linejoin:round"
           d="m -215.99896,2.0036423 -2,-1 2,-0.99999999 z"
           sodipodi:nodetypes="cccc"
           inkscape:transform-center-x="-1.0005198"
           inkscape:transform-center-y="0.0018198" />
        <path
           id="path60"
           style="fill:#28220b;stroke-width:0.2;stroke-linecap:round;stroke-linejoin:round"
           d="m -219.0013,3.0023423 1,-2 1,2 z"
           sodipodi:nodetypes="cccc"
           inkscape:transform-center-x="0.0018202"
           inkscape:transform-center-y="1.0005198" />
      </g>
      <path
         style="fill:none;stroke:#008000;stroke-width:0.16;stroke-linecap:butt;stroke-linejoin:round;stroke-dasharray:none;stroke-opacity:1"
         d="m -95.314423,36.600937 v 16"
         id="path61"
         sodipodi:nodetypes="cc" />
      <path
         style="fill:none;stroke:#008000;stroke-width:0.16;stroke-linecap:butt;stroke-linejoin:round;stroke-dasharray:none;stroke-opacity:1"
         d="M -87.314424,44.600937 H -103.31442"
         id="path62"
         sodipodi:nodetypes="cc" />
    </g>
    <g
       id="g68"
       transform="translate(229.31442,-16.600937)"
       style="display:inline">
      <rect
         style="fill:none;stroke:none;stroke-width:0.1;stroke-linecap:butt;stroke-linejoin:round;stroke-dasharray:none;stroke-opacity:1"
         id="rect62"
         width="20"
         height="20"
         x="-105.31442"
         y="34.600937" />
      <g
         id="g66"
         transform="matrix(1.9994801,0,0,1.9994801,340.5712,42.597813)">
        <path
           id="path63"
           style="fill:#28220b;stroke-width:0.2;stroke-linecap:round;stroke-linejoin:round"
           d="m -220,0 2,1 -2,1 z"
           sodipodi:nodetypes="cccc"
           inkscape:transform-center-x="1.0005202"
           inkscape:transform-center-y="-0.0018225144" />
        <path
           id="path64"
           style="fill:#28220b;stroke-width:0.2;stroke-linecap:round;stroke-linejoin:round"
           d="m -216.99766,-0.99869769 -1,1.99999999 -1,-1.99999999 z"
           sodipodi:nodetypes="cccc"
           inkscape:transform-center-x="-0.0018198"
           inkscape:transform-center-y="-1.0005202" />
        <path
           id="path65"
           style="fill:#28220b;stroke-width:0.2;stroke-linecap:round;stroke-linejoin:round"
           d="m -215.99896,2.0036423 -2,-1 2,-0.99999999 z"
           sodipodi:nodetypes="cccc"
           inkscape:transform-center-x="-1.0005198"
           inkscape:transform-center-y="0.0018198" />
        <path
           id="path66"
           style="fill:#28220b;stroke-width:0.2;stroke-linecap:round;stroke-linejoin:round"
           d="m -219.0013,3.0023423 1,-2 1,2 z"
           sodipodi:nodetypes="cccc"
           inkscape:transform-center-x="0.0018202"
           inkscape:transform-center-y="1.0005198" />
      </g>
      <path
         style="fill:none;stroke:#008000;stroke-width:0.16;stroke-linecap:butt;stroke-linejoin:round;stroke-dasharray:none;stroke-opacity:1"
         d="m -95.314423,36.600937 v 16"
         id="path67"
         sodipodi:nodetypes="cc" />
      <path
         style="fill:none;stroke:#008000;stroke-width:0.16;stroke-linecap:butt;stroke-linejoin:round;stroke-dasharray:none;stroke-opacity:1"
         d="M -87.314424,44.600937 H -103.31442"
         id="path68"
         sodipodi:nodetypes="cc" />
    </g>
    <g
       id="g80"
       transform="translate(203.81442,92.399064)"
       style="display:inline">
      <rect
         style="fill:none;stroke:none;stroke-width:0.1;stroke-linecap:butt;stroke-linejoin:round;stroke-dasharray:none;stroke-opacity:1"
         id="rect74"
         width="20"
         height="20"
         x="-105.31442"
         y="34.600937" />
      <g
         id="g78"
         transform="matrix(1.9994801,0,0,1.9994801,340.5712,42.597813)">
        <path
           id="path75"
           style="fill:#28220b;stroke-width:0.2;stroke-linecap:round;stroke-linejoin:round"
           d="m -220,0 2,1 -2,1 z"
           sodipodi:nodetypes="cccc"
           inkscape:transform-center-x="1.0005202"
           inkscape:transform-center-y="-0.0018225144" />
        <path
           id="path76"
           style="fill:#28220b;stroke-width:0.2;stroke-linecap:round;stroke-linejoin:round"
           d="m -216.99766,-0.99869769 -1,1.99999999 -1,-1.99999999 z"
           sodipodi:nodetypes="cccc"
           inkscape:transform-center-x="-0.0018198"
           inkscape:transform-center-y="-1.0005202" />
        <path
           id="path77"
           style="fill:#28220b;stroke-width:0.2;stroke-linecap:round;stroke-linejoin:round"
           d="m -215.99896,2.0036423 -2,-1 2,-0.99999999 z"
           sodipodi:nodetypes="cccc"
           inkscape:transform-center-x="-1.0005198"
           inkscape:transform-center-y="0.0018198" />
        <path
           id="path78"
           style="fill:#28220b;stroke-width:0.2;stroke-linecap:round;stroke-linejoin:round"
           d="m -219.0013,3.0023423 1,-2 1,2 z"
           sodipodi:nodetypes="cccc"
           inkscape:transform-center-x="0.0018202"
           inkscape:transform-center-y="1.0005198" />
      </g>
      <path
         style="fill:none;stroke:#008000;stroke-width:0.16;stroke-linecap:butt;stroke-linejoin:round;stroke-dasharray:none;stroke-opacity:1"
         d="m -95.314423,36.600937 v 16"
         id="path79"
         sodipodi:nodetypes="cc" />
      <path
         style="fill:none;stroke:#008000;stroke-width:0.16;stroke-linecap:butt;stroke-linejoin:round;stroke-dasharray:none;stroke-opacity:1"
         d="M -87.314424,44.600937 H -103.31442"
         id="path80"
         sodipodi:nodetypes="cc" />
    </g>
    <g
       id="g86"
       transform="translate(229.31442,130.39906)"
       style="display:inline">
      <rect
         style="fill:none;stroke:none;stroke-width:0.1;stroke-linecap:butt;stroke-linejoin:round;stroke-dasharray:none;stroke-opacity:1"
         id="rect80"
         width="20"
         height="20"
         x="-105.31442"
         y="34.600937" />
      <g
         id="g84"
         transform="matrix(1.9994801,0,0,1.9994801,340.5712,42.597813)">
        <path
           id="path81"
           style="fill:#28220b;stroke-width:0.2;stroke-linecap:round;stroke-linejoin:round"
           d="m -220,0 2,1 -2,1 z"
           sodipodi:nodetypes="cccc"
           inkscape:transform-center-x="1.0005202"
           inkscape:transform-center-y="-0.0018225144" />
        <path
           id="path82"
           style="fill:#28220b;stroke-width:0.2;stroke-linecap:round;stroke-linejoin:round"
           d="m -216.99766,-0.99869769 -1,1.99999999 -1,-1.99999999 z"
           sodipodi:nodetypes="cccc"
           inkscape:transform-center-x="-0.0018198"
           inkscape:transform-center-y="-1.0005202" />
        <path
           id="path83"
           style="fill:#28220b;stroke-width:0.2;stroke-linecap:round;stroke-linejoin:round"
           d="m -215.99896,2.0036423 -2,-1 2,-0.99999999 z"
           sodipodi:nodetypes="cccc"
           inkscape:transform-center-x="-1.0005198"
           inkscape:transform-center-y="0.0018198" />
        <path
           id="path84"
           style="fill:#28220b;stroke-width:0.2;stroke-linecap:round;stroke-linejoin:round"
           d="m -219.0013,3.0023423 1,-2 1,2 z"
           sodipodi:nodetypes="cccc"
           inkscape:transform-center-x="0.0018202"
           inkscape:transform-center-y="1.0005198" />
      </g>
      <path
         style="fill:none;stroke:#008000;stroke-width:0.16;stroke-linecap:butt;stroke-linejoin:round;stroke-dasharray:none;stroke-opacity:1"
         d="m -95.314423,36.600937 v 16"
         id="path85"
         sodipodi:nodetypes="cc" />
      <path
         style="fill:none;stroke:#008000;stroke-width:0.16;stroke-linecap:butt;stroke-linejoin:round;stroke-dasharray:none;stroke-opacity:1"
         d="M -87.314424,44.600937 H -103.31442"
         id="path86"
         sodipodi:nodetypes="cc" />
    </g>
    <g
       id="g92"
       transform="translate(184.81442,66.899062)"
       style="display:inline">
      <rect
         style="fill:none;stroke:none;stroke-width:0.1;stroke-linecap:butt;stroke-linejoin:round;stroke-dasharray:none;stroke-opacity:1"
         id="rect86"
         width="20"
         height="20"
         x="-105.31442"
         y="34.600937" />
      <g
         id="g90"
         transform="matrix(1.9994801,0,0,1.9994801,340.5712,42.597813)">
        <path
           id="path87"
           style="fill:#28220b;stroke-width:0.2;stroke-linecap:round;stroke-linejoin:round"
           d="m -220,0 2,1 -2,1 z"
           sodipodi:nodetypes="cccc"
           inkscape:transform-center-x="1.0005202"
           inkscape:transform-center-y="-0.0018225144" />
        <path
           id="path88"
           style="fill:#28220b;stroke-width:0.2;stroke-linecap:round;stroke-linejoin:round"
           d="m -216.99766,-0.99869769 -1,1.99999999 -1,-1.99999999 z"
           sodipodi:nodetypes="cccc"
           inkscape:transform-center-x="-0.0018198"
           inkscape:transform-center-y="-1.0005202" />
        <path
           id="path89"
           style="fill:#28220b;stroke-width:0.2;stroke-linecap:round;stroke-linejoin:round"
           d="m -215.99896,2.0036423 -2,-1 2,-0.99999999 z"
           sodipodi:nodetypes="cccc"
           inkscape:transform-center-x="-1.0005198"
           inkscape:transform-center-y="0.0018198" />
        <path
           id="path90"
           style="fill:#28220b;stroke-width:0.2;stroke-linecap:round;stroke-linejoin:round"
           d="m -219.0013,3.0023423 1,-2 1,2 z"
           sodipodi:nodetypes="cccc"
           inkscape:transform-center-x="0.0018202"
           inkscape:transform-center-y="1.0005198" />
      </g>
      <path
         style="fill:none;stroke:#008000;stroke-width:0.16;stroke-linecap:butt;stroke-linejoin:round;stroke-dasharray:none;stroke-opacity:1"
         d="m -95.314423,36.600937 v 16"
         id="path91"
         sodipodi:nodetypes="cc" />
      <path
         style="fill:none;stroke:#008000;stroke-width:0.16;stroke-linecap:butt;stroke-linejoin:round;stroke-dasharray:none;stroke-opacity:1"
         d="M -87.314424,44.600937 H -103.31442"
         id="path92"
         sodipodi:nodetypes="cc" />
    </g>
    <g
       id="g101"
       transform="translate(120.31442,130.39906)"
       style="display:inline">
      <rect
         style="fill:none;stroke:none;stroke-width:0.1;stroke-linecap:butt;stroke-linejoin:round;stroke-dasharray:none;stroke-opacity:1"
         id="rect95"
         width="20"
         height="20"
         x="-105.31442"
         y="34.600937" />
      <g
         id="g99"
         transform="matrix(1.9994801,0,0,1.9994801,340.5712,42.597813)">
        <path
           id="path96"
           style="fill:#28220b;stroke-width:0.2;stroke-linecap:round;stroke-linejoin:round"
           d="m -220,0 2,1 -2,1 z"
           sodipodi:nodetypes="cccc"
           inkscape:transform-center-x="1.0005202"
           inkscape:transform-center-y="-0.0018225144" />
        <path
           id="path97"
           style="fill:#28220b;stroke-width:0.2;stroke-linecap:round;stroke-linejoin:round"
           d="m -216.99766,-0.99869769 -1,1.99999999 -1,-1.99999999 z"
           sodipodi:nodetypes="cccc"
           inkscape:transform-center-x="-0.0018198"
           inkscape:transform-center-y="-1.0005202" />
        <path
           id="path98"
           style="fill:#28220b;stroke-width:0.2;stroke-linecap:round;stroke-linejoin:round"
           d="m -215.99896,2.0036423 -2,-1 2,-0.99999999 z"
           sodipodi:nodetypes="cccc"
           inkscape:transform-center-x="-1.0005198"
           inkscape:transform-center-y="0.0018198" />
        <path
           id="path99"
           style="fill:#28220b;stroke-width:0.2;stroke-linecap:round;stroke-linejoin:round"
           d="m -219.0013,3.0023423 1,-2 1,2 z"
           sodipodi:nodetypes="cccc"
           inkscape:transform-center-x="0.0018202"
           inkscape:transform-center-y="1.0005198" />
      </g>
      <path
         style="fill:none;stroke:#008000;stroke-width:0.16;stroke-linecap:butt;stroke-linejoin:round;stroke-dasharray:none;stroke-opacity:1"
         d="m -95.314423,36.600937 v 16"
         id="path100"
         sodipodi:nodetypes="cc" />
      <path
         style="fill:none;stroke:#008000;stroke-width:0.16;stroke-linecap:butt;stroke-linejoin:round;stroke-dasharray:none;stroke-opacity:1"
         d="M -87.314424,44.600937 H -103.31442"
         id="path101"
         sodipodi:nodetypes="cc" />
    </g>
    <g
       id="g133"
       transform="translate(184.81442,-16.600936)"
       style="display:inline">
      <rect
         style="fill:none;stroke:none;stroke-width:0.1;stroke-linecap:butt;stroke-linejoin:round;stroke-dasharray:none;stroke-opacity:1"
         id="rect128"
         width="20"
         height="20"
         x="-105.31442"
         y="34.600937" />
      <g
         id="g131"
         transform="matrix(1.9994801,0,0,1.9994801,340.5712,42.597813)">
        <path
           id="path128"
           style="fill:#28220b;stroke-width:0.2;stroke-linecap:round;stroke-linejoin:round"
           d="m -220,0 2,1 -2,1 z"
           sodipodi:nodetypes="cccc"
           inkscape:transform-center-x="1.0005202"
           inkscape:transform-center-y="-0.0018225144" />
        <path
           id="path129"
           style="fill:#28220b;stroke-width:0.2;stroke-linecap:round;stroke-linejoin:round"
           d="m -216.99766,-0.99869769 -1,1.99999999 -1,-1.99999999 z"
           sodipodi:nodetypes="cccc"
           inkscape:transform-center-x="-0.0018198"
           inkscape:transform-center-y="-1.0005202" />
        <path
           id="path130"
           style="fill:#28220b;stroke-width:0.2;stroke-linecap:round;stroke-linejoin:round"
           d="m -215.99896,2.0036423 -2,-1 2,-0.99999999 z"
           sodipodi:nodetypes="cccc"
           inkscape:transform-center-x="-1.0005198"
           inkscape:transform-center-y="0.0018198" />
        <path
           id="path131"
           style="fill:#28220b;stroke-width:0.2;stroke-linecap:round;stroke-linejoin:round"
           d="m -219.0013,3.0023423 1,-2 1,2 z"
           sodipodi:nodetypes="cccc"
           inkscape:transform-center-x="0.0018202"
           inkscape:transform-center-y="1.0005198" />
      </g>
      <path
         style="fill:none;stroke:#008000;stroke-width:0.16;stroke-linecap:butt;stroke-linejoin:round;stroke-dasharray:none;stroke-opacity:1"
         d="m -95.314423,36.600937 v 16"
         id="path132"
         sodipodi:nodetypes="cc" />
      <path
         style="fill:none;stroke:#008000;stroke-width:0.16;stroke-linecap:butt;stroke-linejoin:round;stroke-dasharray:none;stroke-opacity:1"
         d="M -87.314424,44.600937 H -103.31442"
         id="path133"
         sodipodi:nodetypes="cc" />
    </g>
    <g
       id="g145"
       transform="translate(267.31442,130.39906)"
       style="display:inline">
      <rect
         style="fill:none;stroke:none;stroke-width:0.1;stroke-linecap:butt;stroke-linejoin:round;stroke-dasharray:none;stroke-opacity:1"
         id="rect139"
         width="20"
         height="20"
         x="-105.31442"
         y="34.600937" />
      <g
         id="g143"
         transform="matrix(1.9994801,0,0,1.9994801,340.5712,42.597813)">
        <path
           id="path140"
           style="fill:#28220b;stroke-width:0.2;stroke-linecap:round;stroke-linejoin:round"
           d="m -220,0 2,1 -2,1 z"
           sodipodi:nodetypes="cccc"
           inkscape:transform-center-x="1.0005202"
           inkscape:transform-center-y="-0.0018225144" />
        <path
           id="path141"
           style="fill:#28220b;stroke-width:0.2;stroke-linecap:round;stroke-linejoin:round"
           d="m -216.99766,-0.99869769 -1,1.99999999 -1,-1.99999999 z"
           sodipodi:nodetypes="cccc"
           inkscape:transform-center-x="-0.0018198"
           inkscape:transform-center-y="-1.0005202" />
        <path
           id="path142"
           style="fill:#28220b;stroke-width:0.2;stroke-linecap:round;stroke-linejoin:round"
           d="m -215.99896,2.0036423 -2,-1 2,-0.99999999 z"
           sodipodi:nodetypes="cccc"
           inkscape:transform-center-x="-1.0005198"
           inkscape:transform-center-y="0.0018198" />
        <path
           id="path143"
           style="fill:#28220b;stroke-width:0.2;stroke-linecap:round;stroke-linejoin:round"
           d="m -219.0013,3.0023423 1,-2 1,2 z"
           sodipodi:nodetypes="cccc"
           inkscape:transform-center-x="0.0018202"
           inkscape:transform-center-y="1.0005198" />
      </g>
      <path
         style="fill:none;stroke:#008000;stroke-width:0.16;stroke-linecap:butt;stroke-linejoin:round;stroke-dasharray:none;stroke-opacity:1"
         d="m -95.314423,36.600937 v 16"
         id="path144"
         sodipodi:nodetypes="cc" />
      <path
         style="fill:none;stroke:#008000;stroke-width:0.16;stroke-linecap:butt;stroke-linejoin:round;stroke-dasharray:none;stroke-opacity:1"
         d="M -87.314424,44.600937 H -103.31442"
         id="path145"
         sodipodi:nodetypes="cc" />
    </g>
    <g
       id="g151"
       transform="translate(120.31442,66.899062)"
       style="display:inline">
      <rect
         style="fill:none;stroke:none;stroke-width:0.1;stroke-linecap:butt;stroke-linejoin:round;stroke-dasharray:none;stroke-opacity:1"
         id="rect145"
         width="20"
         height="20"
         x="-105.31442"
         y="34.600937" />
      <g
         id="g149"
         transform="matrix(1.9994801,0,0,1.9994801,340.5712,42.597813)">
        <path
           id="path146"
           style="fill:#28220b;stroke-width:0.2;stroke-linecap:round;stroke-linejoin:round"
           d="m -220,0 2,1 -2,1 z"
           sodipodi:nodetypes="cccc"
           inkscape:transform-center-x="1.0005202"
           inkscape:transform-center-y="-0.0018225144" />
        <path
           id="path147"
           style="fill:#28220b;stroke-width:0.2;stroke-linecap:round;stroke-linejoin:round"
           d="m -216.99766,-0.99869769 -1,1.99999999 -1,-1.99999999 z"
           sodipodi:nodetypes="cccc"
           inkscape:transform-center-x="-0.0018198"
           inkscape:transform-center-y="-1.0005202" />
        <path
           id="path148"
           style="fill:#28220b;stroke-width:0.2;stroke-linecap:round;stroke-linejoin:round"
           d="m -215.99896,2.0036423 -2,-1 2,-0.99999999 z"
           sodipodi:nodetypes="cccc"
           inkscape:transform-center-x="-1.0005198"
           inkscape:transform-center-y="0.0018198" />
        <path
           id="path149"
           style="fill:#28220b;stroke-width:0.2;stroke-linecap:round;stroke-linejoin:round"
           d="m -219.0013,3.0023423 1,-2 1,2 z"
           sodipodi:nodetypes="cccc"
           inkscape:transform-center-x="0.0018202"
           inkscape:transform-center-y="1.0005198" />
      </g>
      <path
         style="fill:none;stroke:#008000;stroke-width:0.16;stroke-linecap:butt;stroke-linejoin:round;stroke-dasharray:none;stroke-opacity:1"
         d="m -95.314423,36.600937 v 16"
         id="path150"
         sodipodi:nodetypes="cc" />
      <path
         style="fill:none;stroke:#008000;stroke-width:0.16;stroke-linecap:butt;stroke-linejoin:round;stroke-dasharray:none;stroke-opacity:1"
         d="M -87.314424,44.600937 H -103.31442"
         id="path151"
         sodipodi:nodetypes="cc" />
    </g>
    <g
       id="g157"
       transform="translate(120.31442,92.399064)"
       style="display:inline">
      <rect
         style="fill:none;stroke:none;stroke-width:0.1;stroke-linecap:butt;stroke-linejoin:round;stroke-dasharray:none;stroke-opacity:1"
         id="rect151"
         width="20"
         height="20"
         x="-105.31442"
         y="34.600937" />
      <g
         id="g155"
         transform="matrix(1.9994801,0,0,1.9994801,340.5712,42.597813)">
        <path
           id="path152"
           style="fill:#28220b;stroke-width:0.2;stroke-linecap:round;stroke-linejoin:round"
           d="m -220,0 2,1 -2,1 z"
           sodipodi:nodetypes="cccc"
           inkscape:transform-center-x="1.0005202"
           inkscape:transform-center-y="-0.0018225144" />
        <path
           id="path153"
           style="fill:#28220b;stroke-width:0.2;stroke-linecap:round;stroke-linejoin:round"
           d="m -216.99766,-0.99869769 -1,1.99999999 -1,-1.99999999 z"
           sodipodi:nodetypes="cccc"
           inkscape:transform-center-x="-0.0018198"
           inkscape:transform-center-y="-1.0005202" />
        <path
           id="path154"
           style="fill:#28220b;stroke-width:0.2;stroke-linecap:round;stroke-linejoin:round"
           d="m -215.99896,2.0036423 -2,-1 2,-0.99999999 z"
           sodipodi:nodetypes="cccc"
           inkscape:transform-center-x="-1.0005198"
           inkscape:transform-center-y="0.0018198" />
        <path
           id="path155"
           style="fill:#28220b;stroke-width:0.2;stroke-linecap:round;stroke-linejoin:round"
           d="m -219.0013,3.0023423 1,-2 1,2 z"
           sodipodi:nodetypes="cccc"
           inkscape:transform-center-x="0.0018202"
           inkscape:transform-center-y="1.0005198" />
      </g>
      <path
         style="fill:none;stroke:#008000;stroke-width:0.16;stroke-linecap:butt;stroke-linejoin:round;stroke-dasharray:none;stroke-opacity:1"
         d="m -95.314423,36.600937 v 16"
         id="path156"
         sodipodi:nodetypes="cc" />
      <path
         style="fill:none;stroke:#008000;stroke-width:0.16;stroke-linecap:butt;stroke-linejoin:round;stroke-dasharray:none;stroke-opacity:1"
         d="M -87.314424,44.600937 H -103.31442"
         id="path157"
         sodipodi:nodetypes="cc" />
    </g>
  </g>
  <g
     inkscape:groupmode="layer"
     id="layer10"
     inkscape:label="Playground"
     sodipodi:insensitive="true"
     style="display:none">
    <g
       id="g33"
       transform="translate(185.59196,52.384828)"
       style="display:inline">
      <rect
         style="fill:none;stroke:none;stroke-width:0.1;stroke-linecap:butt;stroke-linejoin:round;stroke-dasharray:none;stroke-opacity:1"
         id="rect21"
         width="20"
         height="20"
         x="-74.165726"
         y="12.509097" />
      <g
         id="g32">
        <g
           id="g14"
           transform="matrix(3.9989603,0,0,3.9989603,807.60554,18.502849)">
          <path
             id="rect11"
             style="fill:#28220b;stroke-width:0.2;stroke-linecap:round;stroke-linejoin:round"
             d="m -220,0 2,1 -2,1 z"
             sodipodi:nodetypes="cccc"
             inkscape:transform-center-x="1.0005202"
             inkscape:transform-center-y="-0.0018225144" />
          <path
             id="path12"
             style="fill:#28220b;stroke-width:0.2;stroke-linecap:round;stroke-linejoin:round"
             d="m -216.99766,-0.99869769 -1,1.99999999 -1,-1.99999999 z"
             sodipodi:nodetypes="cccc"
             inkscape:transform-center-x="-0.0018198"
             inkscape:transform-center-y="-1.0005202" />
          <path
             id="path13"
             style="fill:#28220b;stroke-width:0.2;stroke-linecap:round;stroke-linejoin:round"
             d="m -215.99896,2.0036423 -2,-1 2,-0.99999999 z"
             sodipodi:nodetypes="cccc"
             inkscape:transform-center-x="-1.0005198"
             inkscape:transform-center-y="0.0018198" />
          <path
             id="path14"
             style="fill:#28220b;stroke-width:0.2;stroke-linecap:round;stroke-linejoin:round"
             d="m -219.0013,3.0023423 1,-2 1,2 z"
             sodipodi:nodetypes="cccc"
             inkscape:transform-center-x="0.0018202"
             inkscape:transform-center-y="1.0005198" />
        </g>
        <path
           style="fill:none;stroke:#008000;stroke-width:0.2;stroke-linecap:butt;stroke-linejoin:round;stroke-dasharray:none;stroke-opacity:1"
           d="m -64.165726,12.509097 v 20"
           id="path17"
           sodipodi:nodetypes="cc" />
        <path
           style="fill:none;stroke:#008000;stroke-width:0.2;stroke-linecap:butt;stroke-linejoin:round;stroke-dasharray:none;stroke-opacity:1"
           d="m -54.165726,22.509097 h -20"
           id="path20"
           sodipodi:nodetypes="cc" />
      </g>
    </g>
    <rect
       style="display:inline;fill:#808000;stroke:none;stroke-width:0.1;stroke-linecap:butt;stroke-linejoin:round;stroke-dasharray:none;stroke-opacity:1"
       id="rect22"
       width="20"
       height="20"
       x="78.967911"
       y="62.664238" />
    <g
       id="g31"
       transform="translate(153.1805,50.334307)"
       style="display:inline">
      <g
         id="g25"
         transform="matrix(0.99974007,0,0,0.99974007,153.73022,21.328368)">
        <path
           id="path22"
           style="fill:#28220b;stroke-width:0.2;stroke-linecap:round;stroke-linejoin:round"
           d="m -220,0 2,1 -2,1 z"
           sodipodi:nodetypes="cccc"
           inkscape:transform-center-x="1.0005202"
           inkscape:transform-center-y="-0.0018225144" />
        <path
           id="path23"
           style="fill:#28220b;stroke-width:0.2;stroke-linecap:round;stroke-linejoin:round"
           d="m -216.99766,-0.99869769 -1,1.99999999 -1,-1.99999999 z"
           sodipodi:nodetypes="cccc"
           inkscape:transform-center-x="-0.0018198"
           inkscape:transform-center-y="-1.0005202" />
        <path
           id="path24"
           style="fill:#28220b;stroke-width:0.2;stroke-linecap:round;stroke-linejoin:round"
           d="m -215.99896,2.0036423 -2,-1 2,-0.99999999 z"
           sodipodi:nodetypes="cccc"
           inkscape:transform-center-x="-1.0005198"
           inkscape:transform-center-y="0.0018198" />
        <path
           id="path25"
           style="fill:#28220b;stroke-width:0.2;stroke-linecap:round;stroke-linejoin:round"
           d="m -219.0013,3.0023423 1,-2 1,2 z"
           sodipodi:nodetypes="cccc"
           inkscape:transform-center-x="0.0018202"
           inkscape:transform-center-y="1.0005198" />
      </g>
      <path
         style="fill:#008000;stroke:#000000;stroke-width:0.1;stroke-linecap:butt;stroke-linejoin:round;stroke-dasharray:none;stroke-opacity:1"
         d="m -64.21259,17.32993 v 10"
         id="path26"
         sodipodi:nodetypes="cc" />
      <path
         style="fill:#008000;stroke:#000000;stroke-width:0.1;stroke-linecap:butt;stroke-linejoin:round;stroke-dasharray:none;stroke-opacity:1"
         d="m -64.21259,17.32993 v 10"
         id="path27"
         sodipodi:nodetypes="cc" />
      <path
         style="fill:none;stroke:#008000;stroke-width:0.1;stroke-linecap:butt;stroke-linejoin:round;stroke-dasharray:none;stroke-opacity:1"
         d="m -64.21259,17.32993 v 10"
         id="path28"
         sodipodi:nodetypes="cc" />
      <path
         style="fill:#008000;stroke:#000000;stroke-width:0.1;stroke-linecap:butt;stroke-linejoin:round;stroke-dasharray:none;stroke-opacity:1"
         d="m -59.21259,22.32993 h -10"
         id="path29"
         sodipodi:nodetypes="cc" />
      <path
         style="fill:#008000;stroke:#000000;stroke-width:0.1;stroke-linecap:butt;stroke-linejoin:round;stroke-dasharray:none;stroke-opacity:1"
         d="m -59.21259,22.32993 h -10"
         id="path30"
         sodipodi:nodetypes="cc" />
      <path
         style="fill:none;stroke:#008000;stroke-width:0.1;stroke-linecap:butt;stroke-linejoin:round;stroke-dasharray:none;stroke-opacity:1"
         d="m -59.21259,22.32993 h -10"
         id="path31"
         sodipodi:nodetypes="cc" />
    </g>
    <text
       xml:space="preserve"
       style="font-size:3.175px;text-align:center;writing-mode:lr-tb;direction:ltr;text-anchor:middle;display:inline;fill:#28220b;stroke:none;stroke-width:0.1;stroke-linecap:butt;stroke-linejoin:round;stroke-dasharray:none;stroke-opacity:1"
       x="88.026855"
       y="61.512951"
       id="text31"><tspan
         sodipodi:role="line"
         id="tspan31"
         style="fill:#28220b;stroke-width:0.1"
         x="88.026855"
         y="61.512951">4mm hole</tspan></text>
    <text
       xml:space="preserve"
       style="font-size:3.175px;text-align:center;writing-mode:lr-tb;direction:ltr;text-anchor:middle;display:inline;fill:#28220b;stroke:none;stroke-width:0.1;stroke-linecap:butt;stroke-linejoin:round;stroke-dasharray:none;stroke-opacity:1"
       x="120.04144"
       y="61.446808"
       id="text32"><tspan
         sodipodi:role="line"
         id="tspan32"
         style="stroke-width:0.1"
         x="120.04144"
         y="61.446808">16 mm hole</tspan></text>
    <g
       id="g42"
       transform="translate(185.59196,52.384828)"
       style="display:inline">
      <rect
         style="fill:none;stroke:none;stroke-width:0.1;stroke-linecap:butt;stroke-linejoin:round;stroke-dasharray:none;stroke-opacity:1"
         id="rect33"
         width="20"
         height="20"
         x="-105.31442"
         y="34.600937" />
      <g
         id="g36"
         transform="matrix(1.9994801,0,0,1.9994801,340.5712,42.597813)">
        <path
           id="path33"
           style="fill:#28220b;stroke-width:0.2;stroke-linecap:round;stroke-linejoin:round"
           d="m -220,0 2,1 -2,1 z"
           sodipodi:nodetypes="cccc"
           inkscape:transform-center-x="1.0005202"
           inkscape:transform-center-y="-0.0018225144" />
        <path
           id="path34"
           style="fill:#28220b;stroke-width:0.2;stroke-linecap:round;stroke-linejoin:round"
           d="m -216.99766,-0.99869769 -1,1.99999999 -1,-1.99999999 z"
           sodipodi:nodetypes="cccc"
           inkscape:transform-center-x="-0.0018198"
           inkscape:transform-center-y="-1.0005202" />
        <path
           id="path35"
           style="fill:#28220b;stroke-width:0.2;stroke-linecap:round;stroke-linejoin:round"
           d="m -215.99896,2.0036423 -2,-1 2,-0.99999999 z"
           sodipodi:nodetypes="cccc"
           inkscape:transform-center-x="-1.0005198"
           inkscape:transform-center-y="0.0018198" />
        <path
           id="path36"
           style="fill:#28220b;stroke-width:0.2;stroke-linecap:round;stroke-linejoin:round"
           d="m -219.0013,3.0023423 1,-2 1,2 z"
           sodipodi:nodetypes="cccc"
           inkscape:transform-center-x="0.0018202"
           inkscape:transform-center-y="1.0005198" />
      </g>
      <path
         style="fill:none;stroke:#008000;stroke-width:0.16;stroke-linecap:butt;stroke-linejoin:round;stroke-dasharray:none;stroke-opacity:1"
         d="m -95.314423,36.600937 v 16"
         id="path39"
         sodipodi:nodetypes="cc" />
      <path
         style="fill:none;stroke:#008000;stroke-width:0.16;stroke-linecap:butt;stroke-linejoin:round;stroke-dasharray:none;stroke-opacity:1"
         d="M -87.314424,44.600937 H -103.31442"
         id="path42"
         sodipodi:nodetypes="cc" />
    </g>
    <text
       xml:space="preserve"
       style="font-size:3.175px;text-align:center;writing-mode:lr-tb;direction:ltr;text-anchor:middle;display:inline;fill:#28220b;stroke:none;stroke-width:0.1;stroke-linecap:butt;stroke-linejoin:round;stroke-dasharray:none;stroke-opacity:1"
       x="90.271919"
       y="86.021568"
       id="text42"><tspan
         sodipodi:role="line"
         id="tspan42"
         style="fill:#28220b;stroke-width:0.1"
         x="90.271919"
         y="86.021568">8mm hole</tspan></text>
  </g>
  <g
     inkscape:groupmode="layer"
     id="layer9"
     inkscape:label="Texts"
     style="display:inline">
    <g
       id="text159"
       style="font-weight:bold;font-size:4.23333px;font-family:Arial;-inkscape-font-specification:'Arial, Bold';text-align:center;text-anchor:middle;fill:none;stroke-width:0.264583;stroke-linejoin:round"
       aria-label="Mini USA: &#10;1.75″ × 2.5″">
      <path
         style="fill:#008000"
         d="m 46.82403,91.926949 v -3.030304 h 0.915706 l 0.549836,2.067056 0.543636,-2.067056 h 0.917773 v 3.030304 H 49.18254 v -2.385383 l -0.601513,2.385383 H 47.991916 L 47.39247,89.541566 v 2.385383 z m 3.530531,-2.492869 v -0.537435 h 0.580843 v 0.537435 z m 0,2.492869 v -2.195213 h 0.580843 v 2.195213 z m 3.17293,0 h -0.580842 v -1.120345 q 0,-0.355533 -0.03721,-0.458886 -0.03721,-0.10542 -0.121957,-0.163297 -0.08268,-0.05788 -0.200504,-0.05788 -0.150895,0 -0.270784,0.08268 -0.11989,0.08268 -0.165365,0.219108 -0.04341,0.136426 -0.04341,0.504362 v 0.994254 h -0.580843 v -2.195213 h 0.539502 v 0.32246 q 0.287321,-0.37207 0.723469,-0.37207 0.192237,0 0.3514,0.07028 0.159163,0.06821 0.239778,0.1757 0.08268,0.107487 0.113688,0.243912 0.03307,0.136426 0.03307,0.390674 z m 0.589111,-2.492869 v -0.537435 h 0.580843 v 0.537435 z m 0,2.492869 v -2.195213 h 0.580843 v 2.195213 z m 2.352309,-3.030304 h 0.611849 v 1.641242 q 0,0.390674 0.02274,0.506429 0.03927,0.186035 0.186035,0.299723 0.148828,0.111621 0.405143,0.111621 0.260449,0 0.392741,-0.10542 0.132291,-0.107487 0.159163,-0.262516 0.02687,-0.155029 0.02687,-0.514697 v -1.676382 h 0.611848 v 1.591633 q 0,0.545703 -0.04961,0.771012 -0.04961,0.225309 -0.183968,0.380338 -0.132292,0.155029 -0.355534,0.248046 -0.223242,0.09095 -0.582909,0.09095 -0.434082,0 -0.659391,-0.09922 -0.223242,-0.101285 -0.353467,-0.260449 -0.130224,-0.16123 -0.171565,-0.33693 -0.05994,-0.260449 -0.05994,-0.768944 z m 2.90628,2.044318 0.595312,-0.05788 q 0.05374,0.299724 0.217041,0.440283 0.165364,0.14056 0.444417,0.14056 0.295589,0 0.444417,-0.124023 0.150895,-0.126091 0.150895,-0.293522 0,-0.107487 -0.06408,-0.181901 -0.06201,-0.07648 -0.219108,-0.132292 -0.107487,-0.03721 -0.489892,-0.132291 -0.491959,-0.121956 -0.690397,-0.299723 -0.279052,-0.250114 -0.279052,-0.609782 0,-0.23151 0.130224,-0.432014 0.132292,-0.202572 0.378271,-0.307991 0.248047,-0.10542 0.59738,-0.10542 0.570507,0 0.857828,0.250113 0.289387,0.250114 0.303857,0.667659 l -0.611849,0.02687 q -0.03927,-0.233577 -0.169498,-0.334863 -0.128158,-0.103353 -0.38654,-0.103353 -0.26665,0 -0.417545,0.109554 -0.09715,0.07028 -0.09715,0.188102 0,0.107487 0.09095,0.183968 0.115755,0.09715 0.562239,0.202572 0.446484,0.10542 0.659391,0.219108 0.214974,0.111621 0.334863,0.307991 0.121956,0.194303 0.121956,0.481624 0,0.260449 -0.144694,0.487825 -0.144694,0.227376 -0.409277,0.338997 -0.264583,0.109554 -0.659391,0.109554 -0.574641,0 -0.882632,-0.264583 -0.307992,-0.26665 -0.367936,-0.775146 z m 5.711275,0.985986 h -0.665592 l -0.264583,-0.68833 h -1.211294 l -0.250114,0.68833 h -0.649055 l 1.180288,-3.030304 h 0.646989 z m -1.126545,-1.198893 -0.417545,-1.124478 -0.409277,1.124478 z m 1.558559,-0.415478 v -0.580842 h 0.580843 v 0.580842 z m 0,1.614371 v -0.580843 h 0.580843 v 0.580843 z"
         id="path6" />
      <path
         style="fill:#008000"
         d="m 47.270514,97.218611 h -0.580843 v -2.189012 q -0.318326,0.297656 -0.750341,0.440283 v -0.527099 q 0.227376,-0.07441 0.494027,-0.28112 0.26665,-0.208773 0.365868,-0.485758 h 0.471289 z m 0.992187,0 v -0.580843 h 0.580842 v 0.580843 z m 1.052131,-2.449461 v -0.539502 h 1.98644 v 0.42168 q -0.245979,0.241845 -0.500227,0.69453 -0.254248,0.452686 -0.388606,0.963248 -0.132292,0.508496 -0.130225,0.909505 h -0.560172 q 0.01447,-0.628385 0.258382,-1.281575 0.24598,-0.653189 0.655257,-1.167886 z m 2.362645,1.670181 0.578775,-0.05994 q 0.0248,0.19637 0.146761,0.312126 0.121956,0.113688 0.28112,0.113688 0.181901,0 0.307991,-0.146761 0.12609,-0.148828 0.12609,-0.446484 0,-0.279053 -0.12609,-0.417546 -0.124023,-0.140559 -0.324528,-0.140559 -0.250114,0 -0.448551,0.221175 l -0.471289,-0.06821 0.297656,-1.577164 h 1.535823 v 0.543636 h -1.09554 l -0.09095,0.514697 q 0.194303,-0.09715 0.396875,-0.09715 0.386539,0 0.655256,0.28112 0.268717,0.281119 0.268717,0.72967 0,0.374137 -0.21704,0.667659 -0.295589,0.401009 -0.820622,0.401009 -0.419612,0 -0.684195,-0.225309 -0.264583,-0.225309 -0.316259,-0.605647 z m 2.443259,-1.174088 0.01034,-0.564306 0.109554,-0.51263 h 0.632519 l -0.109554,0.51263 -0.214974,0.564306 z m 0.932242,0 0.01034,-0.564306 0.109554,-0.51263 h 0.632519 l -0.109554,0.51263 -0.214974,0.564306 z m 2.224153,1.085204 0.62425,-0.62425 -0.628385,-0.626318 0.384473,-0.384473 0.628385,0.626318 0.62425,-0.62425 0.374138,0.376204 -0.624251,0.62425 0.630452,0.630452 -0.384473,0.384473 -0.630452,-0.630452 -0.62425,0.624251 z m 5.560379,0.328662 v 0.539502 h -2.03605 q 0.03307,-0.305924 0.198437,-0.578776 0.165365,-0.274918 0.65319,-0.727603 0.39274,-0.365869 0.481624,-0.496094 0.119889,-0.179834 0.119889,-0.355533 0,-0.194303 -0.10542,-0.297656 -0.103353,-0.10542 -0.287321,-0.10542 -0.181901,0 -0.289387,0.109554 -0.107487,0.109554 -0.124024,0.363802 l -0.578775,-0.05788 q 0.05168,-0.479557 0.324527,-0.688329 0.272852,-0.208773 0.682129,-0.208773 0.448551,0 0.704866,0.241845 0.256315,0.241846 0.256315,0.601514 0,0.204638 -0.07441,0.390673 -0.07235,0.183968 -0.231511,0.38654 -0.105419,0.134358 -0.380338,0.386539 -0.274918,0.252181 -0.349332,0.334863 -0.07235,0.08268 -0.117822,0.16123 z m 0.516764,0.539502 v -0.580843 h 0.580843 v 0.580843 z m 1.0604,-0.77928 0.578776,-0.05994 q 0.0248,0.19637 0.14676,0.312126 0.121957,0.113688 0.28112,0.113688 0.181901,0 0.307991,-0.146761 0.126091,-0.148828 0.126091,-0.446484 0,-0.279053 -0.126091,-0.417546 -0.124023,-0.140559 -0.324527,-0.140559 -0.250114,0 -0.448551,0.221175 l -0.471289,-0.06821 0.297656,-1.577164 h 1.535822 v 0.543636 h -1.095539 l -0.09095,0.514697 q 0.194303,-0.09715 0.396875,-0.09715 0.386539,0 0.655257,0.28112 0.268717,0.281119 0.268717,0.72967 0,0.374137 -0.217041,0.667659 -0.295589,0.401009 -0.820621,0.401009 -0.419612,0 -0.684196,-0.225309 -0.264583,-0.225309 -0.316259,-0.605647 z m 2.443259,-1.174088 0.01033,-0.564306 0.109554,-0.51263 h 0.632519 l -0.109554,0.51263 -0.214973,0.564306 z m 0.932242,0 0.01034,-0.564306 0.109553,-0.51263 h 0.632519 l -0.109553,0.51263 -0.214974,0.564306 z"
         id="path7" />
    </g>
    <g
       id="text160"
       style="font-weight:bold;font-size:4.23333px;font-family:Arial;-inkscape-font-specification:'Arial, Bold';text-align:center;text-anchor:middle;fill:none;stroke-width:0.264583;stroke-linejoin:round"
       aria-label="US poker&#10;2.5″ 3.5″">
      <path
         style="fill:#008000"
         d="m 48.208697,114.33519 h 0.611849 v 1.64124 q 0,0.39068 0.02274,0.50643 0.03928,0.18604 0.186035,0.29972 0.148828,0.11163 0.405143,0.11163 0.260449,0 0.392741,-0.10542 0.132291,-0.10749 0.159163,-0.26252 0.02687,-0.15503 0.02687,-0.5147 v -1.67638 h 0.611848 v 1.59163 q 0,0.54571 -0.04961,0.77101 -0.04961,0.22531 -0.183968,0.38034 -0.132291,0.15503 -0.355533,0.24805 -0.223242,0.0909 -0.58291,0.0909 -0.434082,0 -0.659391,-0.0992 -0.223242,-0.10128 -0.353466,-0.26045 -0.130225,-0.16123 -0.171566,-0.33693 -0.05994,-0.26045 -0.05994,-0.76894 z m 2.906281,2.04432 0.595312,-0.0579 q 0.05374,0.29972 0.21704,0.44028 0.165365,0.14056 0.444417,0.14056 0.295589,0 0.444417,-0.12402 0.150895,-0.12609 0.150895,-0.29352 0,-0.10749 -0.06408,-0.1819 -0.06201,-0.0765 -0.219108,-0.13229 -0.107487,-0.0372 -0.489892,-0.1323 -0.49196,-0.12195 -0.690397,-0.29972 -0.279053,-0.25011 -0.279053,-0.60978 0,-0.23151 0.130225,-0.43201 0.132292,-0.20258 0.378271,-0.308 0.248047,-0.10542 0.597379,-0.10542 0.570508,0 0.857828,0.25012 0.289388,0.25011 0.303857,0.66766 l -0.611848,0.0269 q -0.03927,-0.23358 -0.169499,-0.33486 -0.128157,-0.10336 -0.386539,-0.10336 -0.26665,0 -0.417545,0.10956 -0.09715,0.0703 -0.09715,0.1881 0,0.10749 0.09095,0.18397 0.115755,0.0971 0.562239,0.20257 0.446484,0.10542 0.65939,0.21911 0.214974,0.11162 0.334863,0.30799 0.121957,0.1943 0.121957,0.48162 0,0.26045 -0.144694,0.48783 -0.144694,0.22737 -0.409277,0.33899 -0.264583,0.10956 -0.659391,0.10956 -0.574641,0 -0.882633,-0.26459 -0.307991,-0.26665 -0.367935,-0.77514 z m 4.134111,-1.20923 h 0.541568 v 0.32246 q 0.10542,-0.16536 0.285254,-0.26872 0.179834,-0.10335 0.398942,-0.10335 0.382405,0 0.649055,0.29972 0.26665,0.29973 0.26665,0.83509 0,0.54984 -0.268717,0.85577 -0.268717,0.30385 -0.651122,0.30385 -0.181901,0 -0.330729,-0.0723 -0.146761,-0.0724 -0.310059,-0.24805 v 1.10587 h -0.580842 z m 0.574641,1.0604 q 0,0.37 0.146761,0.54777 0.146761,0.1757 0.357601,0.1757 0.202571,0 0.33693,-0.16123 0.134358,-0.1633 0.134358,-0.5333 0,-0.3452 -0.138492,-0.51263 -0.138493,-0.16743 -0.343132,-0.16743 -0.212906,0 -0.353466,0.16536 -0.14056,0.1633 -0.14056,0.48576 z m 1.893423,0.006 q 0,-0.28939 0.142627,-0.56017 0.142627,-0.27078 0.403076,-0.41341 0.262516,-0.14263 0.584977,-0.14263 0.49816,0 0.816487,0.32453 0.318326,0.32246 0.318326,0.81649 0,0.49816 -0.32246,0.82682 -0.320394,0.32659 -0.808219,0.32659 -0.30179,0 -0.576709,-0.13642 -0.272851,-0.13643 -0.415478,-0.39894 -0.142627,-0.26459 -0.142627,-0.64286 z m 0.595312,0.031 q 0,0.32659 0.15503,0.50022 0.155029,0.17364 0.382405,0.17364 0.227376,0 0.380338,-0.17364 0.155029,-0.17363 0.155029,-0.50436 0,-0.32246 -0.155029,-0.49609 -0.152962,-0.17363 -0.380338,-0.17363 -0.227376,0 -0.382405,0.17363 -0.15503,0.17363 -0.15503,0.50023 z m 2.104263,1.0976 v -3.0303 h 0.580842 v 1.60817 l 0.680061,-0.77308 h 0.715202 l -0.750342,0.80202 0.804085,1.39319 h -0.626318 l -0.551904,-0.98598 -0.270784,0.28318 v 0.7028 z m 3.646285,-0.69866 0.578776,0.0971 q -0.111621,0.31833 -0.353467,0.48576 -0.239778,0.16536 -0.601513,0.16536 -0.572574,0 -0.847493,-0.37413 -0.217041,-0.29973 -0.217041,-0.75655 0,-0.5457 0.285254,-0.85369 0.285254,-0.31006 0.721402,-0.31006 0.489893,0 0.773079,0.32453 0.283187,0.32246 0.270784,0.99012 h -1.455207 q 0.0062,0.25838 0.14056,0.40307 0.134359,0.14263 0.334863,0.14263 0.136426,0 0.229443,-0.0744 0.09302,-0.0744 0.14056,-0.23978 z m 0.03307,-0.58704 q -0.0062,-0.25219 -0.130225,-0.38241 -0.124023,-0.13229 -0.30179,-0.13229 -0.190169,0 -0.314192,0.13849 -0.124023,0.13849 -0.121956,0.37621 z m 1.606104,1.2857 h -0.580843 v -2.19521 h 0.539501 v 0.31213 q 0.138493,-0.22118 0.248047,-0.29146 0.111621,-0.0703 0.252181,-0.0703 0.198437,0 0.382405,0.10956 l -0.179834,0.50642 q -0.146761,-0.0951 -0.272851,-0.0951 -0.121956,0 -0.206706,0.0682 -0.08475,0.0662 -0.134358,0.24185 -0.04754,0.1757 -0.04754,0.73587 z"
         id="path4" />
      <path
         style="fill:#008000"
         d="m 50.837992,122.11765 v 0.53951 h -2.03605 q 0.03307,-0.30593 0.198438,-0.57878 0.165364,-0.27492 0.653189,-0.7276 0.392741,-0.36587 0.481624,-0.4961 0.119889,-0.17983 0.119889,-0.35553 0,-0.1943 -0.105419,-0.29766 -0.103353,-0.10542 -0.287321,-0.10542 -0.181901,0 -0.289388,0.10956 -0.107487,0.10955 -0.124023,0.3638 l -0.578776,-0.0579 q 0.05168,-0.47955 0.324528,-0.68833 0.272851,-0.20877 0.682128,-0.20877 0.448551,0 0.704866,0.24185 0.256315,0.24184 0.256315,0.60151 0,0.20464 -0.07441,0.39067 -0.07235,0.18397 -0.23151,0.38654 -0.10542,0.13436 -0.380338,0.38654 -0.274919,0.25218 -0.349333,0.33486 -0.07235,0.0827 -0.117822,0.16123 z m 0.516764,0.53951 v -0.58085 h 0.580843 v 0.58085 z m 1.0604,-0.77928 0.578775,-0.06 q 0.0248,0.19637 0.146761,0.31213 0.121956,0.11368 0.28112,0.11368 0.1819,0 0.307991,-0.14676 0.12609,-0.14882 0.12609,-0.44648 0,-0.27905 -0.12609,-0.41755 -0.124023,-0.14056 -0.324528,-0.14056 -0.250114,0 -0.448551,0.22118 l -0.471289,-0.0682 0.297656,-1.57717 h 1.535823 v 0.54364 h -1.09554 l -0.09095,0.5147 q 0.194303,-0.0972 0.396874,-0.0972 0.38654,0 0.655257,0.28112 0.268717,0.28112 0.268717,0.72967 0,0.37414 -0.217041,0.66766 -0.295588,0.40101 -0.820621,0.40101 -0.419612,0 -0.684195,-0.22531 -0.264583,-0.22531 -0.316259,-0.60564 z m 2.443259,-1.17409 0.01034,-0.56431 0.109553,-0.51263 h 0.632519 l -0.109553,0.51263 -0.214974,0.56431 z m 0.932242,0 0.01034,-0.56431 0.109554,-0.51263 h 0.632519 l -0.109554,0.51263 -0.214974,0.56431 z m 2.153872,1.14928 0.562239,-0.0682 q 0.02687,0.21497 0.144694,0.32866 0.117822,0.11369 0.285254,0.11369 0.179834,0 0.30179,-0.13643 0.124023,-0.13642 0.124023,-0.36793 0,-0.21911 -0.117822,-0.34727 -0.117822,-0.12816 -0.287321,-0.12816 -0.111621,0 -0.26665,0.0434 l 0.06408,-0.47335 q 0.235644,0.006 0.359668,-0.10129 0.124023,-0.10955 0.124023,-0.28939 0,-0.15296 -0.09095,-0.24391 -0.09095,-0.091 -0.241846,-0.091 -0.148828,0 -0.254248,0.10335 -0.10542,0.10336 -0.128157,0.30179 l -0.535368,-0.0909 q 0.05581,-0.27492 0.167432,-0.43821 0.113688,-0.16537 0.314192,-0.25839 0.202572,-0.0951 0.452685,-0.0951 0.427881,0 0.686263,0.27285 0.212907,0.22324 0.212907,0.50436 0,0.39894 -0.436149,0.63666 0.260449,0.0558 0.415478,0.25011 0.157096,0.1943 0.157096,0.46922 0,0.39894 -0.291455,0.68006 -0.291454,0.28112 -0.725536,0.28112 -0.411344,0 -0.682128,-0.23564 -0.270785,-0.23771 -0.314193,-0.62012 z m 2.499071,0.80409 v -0.58085 h 0.580842 v 0.58085 z m 1.060399,-0.77928 0.578775,-0.06 q 0.02481,0.19637 0.146761,0.31213 0.121957,0.11368 0.28112,0.11368 0.181901,0 0.307991,-0.14676 0.126091,-0.14882 0.126091,-0.44648 0,-0.27905 -0.126091,-0.41755 -0.124023,-0.14056 -0.324528,-0.14056 -0.250113,0 -0.448551,0.22118 l -0.471288,-0.0682 0.297656,-1.57717 h 1.535822 v 0.54364 h -1.095539 l -0.09095,0.5147 q 0.194303,-0.0972 0.396875,-0.0972 0.386539,0 0.655256,0.28112 0.268718,0.28112 0.268718,0.72967 0,0.37414 -0.217041,0.66766 -0.295589,0.40101 -0.820621,0.40101 -0.419613,0 -0.684196,-0.22531 -0.264583,-0.22531 -0.316259,-0.60564 z m 2.44326,-1.17409 0.01033,-0.56431 0.109554,-0.51263 h 0.632519 l -0.109554,0.51263 -0.214973,0.56431 z m 0.932242,0 0.01033,-0.56431 0.109554,-0.51263 h 0.632519 l -0.109554,0.51263 -0.214973,0.56431 z"
         id="path5" />
    </g>
    <g
       id="text161"
       style="font-weight:bold;font-size:4.23333px;font-family:Arial;-inkscape-font-specification:'Arial, Bold';text-align:center;text-anchor:middle;fill:#008000;stroke-width:0.264583;stroke-linejoin:round"
       aria-label="Jumbo/large poker:&#10;3.5″ × 5″">
      <path
         d="m 39.242587,152.31821 h 0.609781 v 1.91822 q 0,0.37621 -0.06615,0.57878 -0.08888,0.26458 -0.32246,0.42581 -0.233578,0.15917 -0.615983,0.15917 -0.448551,0 -0.690397,-0.25012 -0.241845,-0.25218 -0.243912,-0.73794 l 0.576708,-0.0661 q 0.01034,0.26045 0.07648,0.36793 0.09922,0.1633 0.301791,0.1633 0.204638,0 0.289387,-0.11575 0.08475,-0.11783 0.08475,-0.48576 z m 2.701641,3.0303 v -0.32866 q -0.119889,0.1757 -0.316259,0.27698 -0.194303,0.10129 -0.411344,0.10129 -0.221175,0 -0.396875,-0.0971 -0.1757,-0.0971 -0.254248,-0.27285 -0.07855,-0.1757 -0.07855,-0.48576 v -1.38906 h 0.580843 v 1.00872 q 0,0.46302 0.03101,0.56844 0.03307,0.10335 0.117822,0.16537 0.08475,0.0599 0.214973,0.0599 0.148828,0 0.266651,-0.0806 0.117822,-0.0827 0.16123,-0.20258 0.04341,-0.12195 0.04341,-0.59324 v -0.92604 h 0.580843 v 2.19521 z m 1.097607,-2.19521 h 0.535367 v 0.29972 q 0.287321,-0.34933 0.684196,-0.34933 0.210839,0 0.365868,0.0868 0.15503,0.0868 0.254248,0.26252 0.144694,-0.1757 0.312126,-0.26252 0.167431,-0.0868 0.3576,-0.0868 0.241846,0 0.409277,0.0992 0.167432,0.0971 0.250114,0.28732 0.05994,0.14056 0.05994,0.45475 v 1.40353 h -0.580843 v -1.2547 q 0,-0.3266 -0.05994,-0.42168 -0.08061,-0.12402 -0.248046,-0.12402 -0.121957,0 -0.229444,0.0744 -0.107486,0.0744 -0.155029,0.21911 -0.04754,0.14262 -0.04754,0.45268 v 1.0542 h -0.580843 v -1.20303 q 0,-0.32039 -0.03101,-0.41341 -0.03101,-0.093 -0.09715,-0.13849 -0.06408,-0.0455 -0.1757,-0.0455 -0.134358,0 -0.241845,0.0723 -0.107487,0.0724 -0.155029,0.20877 -0.04548,0.13643 -0.04548,0.45269 v 1.0666 h -0.580842 z m 3.782711,2.19521 v -3.0303 h 0.580843 v 1.0914 q 0.268717,-0.30592 0.636653,-0.30592 0.401008,0 0.663524,0.29145 0.262517,0.28939 0.262517,0.83303 0,0.56224 -0.268718,0.86609 -0.26665,0.30386 -0.649055,0.30386 -0.188102,0 -0.37207,-0.093 -0.181901,-0.0951 -0.314193,-0.27905 v 0.32246 z m 0.576708,-1.14515 q 0,0.34107 0.107487,0.50436 0.150895,0.23151 0.401009,0.23151 0.192236,0 0.326595,-0.16329 0.136426,-0.16537 0.136426,-0.51883 0,-0.37621 -0.136426,-0.54157 -0.136426,-0.16743 -0.349333,-0.16743 -0.208772,0 -0.347265,0.16329 -0.138493,0.16123 -0.138493,0.49196 z m 1.899625,0.0165 q 0,-0.28939 0.142627,-0.56017 0.142627,-0.27079 0.403076,-0.41341 0.262516,-0.14263 0.584976,-0.14263 0.498161,0 0.816487,0.32453 0.318327,0.32246 0.318327,0.81648 0,0.49816 -0.322461,0.82683 -0.320393,0.32659 -0.808219,0.32659 -0.30179,0 -0.576708,-0.13643 -0.272851,-0.13642 -0.415478,-0.39894 -0.142627,-0.26458 -0.142627,-0.64285 z m 0.595312,0.031 q 0,0.3266 0.155029,0.50023 0.155029,0.17363 0.382405,0.17363 0.227376,0 0.380339,-0.17363 0.155029,-0.17363 0.155029,-0.50436 0,-0.32246 -0.155029,-0.49609 -0.152963,-0.17364 -0.380339,-0.17364 -0.227376,0 -0.382405,0.17364 -0.155029,0.17363 -0.155029,0.50022 z m 1.814875,1.14929 0.750341,-3.13366 h 0.436149 l -0.758609,3.13366 z m 1.486213,-0.0517 v -3.0303 h 0.580842 v 3.0303 z m 1.610235,-1.52549 -0.527099,-0.0951 q 0.08888,-0.31833 0.305925,-0.47129 0.21704,-0.15296 0.644921,-0.15296 0.388606,0 0.578775,0.093 0.19017,0.0909 0.266651,0.23357 0.07855,0.14056 0.07855,0.51883 l -0.0062,0.678 q 0,0.28939 0.02687,0.42788 0.02894,0.13642 0.10542,0.29352 h -0.574641 q -0.02274,-0.0579 -0.05581,-0.17156 -0.01447,-0.0517 -0.02067,-0.0682 -0.148828,0.1447 -0.318327,0.21704 -0.169499,0.0724 -0.361735,0.0724 -0.338997,0 -0.535367,-0.18397 -0.194303,-0.18397 -0.194303,-0.46509 0,-0.18603 0.08888,-0.33072 0.08888,-0.14677 0.248047,-0.22325 0.16123,-0.0785 0.46302,-0.13642 0.40721,-0.0765 0.564306,-0.14263 v -0.0579 q 0,-0.16743 -0.08268,-0.23771 -0.08268,-0.0723 -0.312125,-0.0723 -0.155029,0 -0.241846,0.062 -0.08682,0.0599 -0.14056,0.2129 z m 0.777213,0.47129 q -0.111621,0.0372 -0.353466,0.0889 -0.241846,0.0517 -0.31626,0.10128 -0.113688,0.0806 -0.113688,0.20464 0,0.12196 0.09095,0.21084 0.09095,0.0889 0.23151,0.0889 0.157096,0 0.299723,-0.10335 0.10542,-0.0786 0.138493,-0.19224 0.02274,-0.0744 0.02274,-0.28318 z m 1.69912,1.0542 h -0.580843 v -2.19521 h 0.539501 v 0.31212 q 0.138493,-0.22117 0.248047,-0.29145 0.111621,-0.0703 0.252181,-0.0703 0.198437,0 0.382405,0.10955 l -0.179834,0.50643 q -0.146761,-0.0951 -0.272851,-0.0951 -0.121956,0 -0.206706,0.0682 -0.08475,0.0661 -0.134358,0.24184 -0.04754,0.1757 -0.04754,0.73588 z m 1.037662,0.14469 0.663525,0.0806 q 0.01654,0.11575 0.07648,0.15916 0.08268,0.062 0.260449,0.062 0.227376,0 0.341064,-0.0682 0.07648,-0.0455 0.115755,-0.14676 0.02687,-0.0724 0.02687,-0.26665 v -0.32039 q -0.260449,0.35553 -0.657324,0.35553 -0.44235,0 -0.700732,-0.37414 -0.202571,-0.29559 -0.202571,-0.73587 0,-0.5519 0.264583,-0.84336 0.26665,-0.29145 0.661458,-0.29145 0.40721,0 0.671793,0.3576 v -0.30799 h 0.543635 v 1.9699 q 0,0.38861 -0.06408,0.58084 -0.06408,0.19224 -0.179834,0.30179 -0.115755,0.10956 -0.310058,0.17157 -0.192237,0.062 -0.487826,0.062 -0.558105,0 -0.791682,-0.19223 -0.233577,-0.19017 -0.233577,-0.4837 0,-0.0289 0.0021,-0.0703 z m 0.518831,-1.28777 q 0,0.34933 0.134359,0.51263 0.136425,0.16123 0.334863,0.16123 0.212906,0 0.359667,-0.16537 0.146761,-0.16743 0.146761,-0.49402 0,-0.34107 -0.14056,-0.50643 -0.140559,-0.16536 -0.355533,-0.16536 -0.208773,0 -0.345198,0.16329 -0.134359,0.16123 -0.134359,0.49403 z m 3.392038,0.44442 0.578775,0.0972 q -0.111621,0.31832 -0.353466,0.48576 -0.239779,0.16536 -0.601514,0.16536 -0.572574,0 -0.847492,-0.37414 -0.217041,-0.29972 -0.217041,-0.75654 0,-0.5457 0.285254,-0.85369 0.285253,-0.31006 0.721402,-0.31006 0.489892,0 0.773079,0.32453 0.283186,0.32246 0.270784,0.99012 h -1.455207 q 0.0062,0.25838 0.14056,0.40307 0.134358,0.14263 0.334863,0.14263 0.136425,0 0.229443,-0.0744 0.09302,-0.0744 0.14056,-0.23977 z m 0.03307,-0.58705 q -0.0062,-0.25218 -0.130224,-0.3824 -0.124023,-0.13229 -0.30179,-0.13229 -0.190169,0 -0.314193,0.13849 -0.124023,0.13849 -0.121956,0.3762 z m 2.209685,-0.9095 h 0.541568 v 0.32246 q 0.10542,-0.16537 0.285254,-0.26872 0.179834,-0.10335 0.398942,-0.10335 0.382405,0 0.649055,0.29972 0.26665,0.29972 0.26665,0.83509 0,0.54984 -0.268717,0.85576 -0.268717,0.30386 -0.651122,0.30386 -0.181901,0 -0.330729,-0.0724 -0.146761,-0.0723 -0.310059,-0.24804 v 1.10587 h -0.580842 z m 0.574641,1.0604 q 0,0.37 0.146761,0.54777 0.146761,0.1757 0.357601,0.1757 0.202571,0 0.33693,-0.16123 0.134358,-0.1633 0.134358,-0.5333 0,-0.3452 -0.138492,-0.51263 -0.138493,-0.16744 -0.343131,-0.16744 -0.212907,0 -0.353467,0.16537 -0.14056,0.1633 -0.14056,0.48576 z m 1.893423,0.006 q 0,-0.28939 0.142626,-0.56017 0.142627,-0.27079 0.403076,-0.41341 0.262516,-0.14263 0.584977,-0.14263 0.49816,0 0.816487,0.32453 0.318327,0.32246 0.318327,0.81648 0,0.49816 -0.322461,0.82683 -0.320394,0.32659 -0.808219,0.32659 -0.30179,0 -0.576708,-0.13643 -0.272852,-0.13642 -0.415479,-0.39894 -0.142626,-0.26458 -0.142626,-0.64285 z m 0.595312,0.031 q 0,0.3266 0.155029,0.50023 0.155029,0.17363 0.382405,0.17363 0.227376,0 0.380338,-0.17363 0.155029,-0.17363 0.155029,-0.50436 0,-0.32246 -0.155029,-0.49609 -0.152962,-0.17364 -0.380338,-0.17364 -0.227376,0 -0.382405,0.17364 -0.155029,0.17363 -0.155029,0.50022 z m 2.104262,1.09761 v -3.0303 h 0.580842 v 1.60817 l 0.680062,-0.77308 h 0.715201 l -0.750341,0.80202 0.804084,1.39319 h -0.626318 l -0.551903,-0.98598 -0.270785,0.28318 v 0.7028 z m 3.646287,-0.69866 0.578776,0.0972 q -0.111621,0.31832 -0.353467,0.48576 -0.239778,0.16536 -0.601513,0.16536 -0.572574,0 -0.847493,-0.37414 -0.217041,-0.29972 -0.217041,-0.75654 0,-0.5457 0.285254,-0.85369 0.285254,-0.31006 0.721402,-0.31006 0.489893,0 0.773079,0.32453 0.283187,0.32246 0.270785,0.99012 h -1.455208 q 0.0062,0.25838 0.14056,0.40307 0.134359,0.14263 0.334863,0.14263 0.136426,0 0.229443,-0.0744 0.09302,-0.0744 0.14056,-0.23977 z m 0.03307,-0.58705 q -0.0062,-0.25218 -0.130224,-0.3824 -0.124024,-0.13229 -0.301791,-0.13229 -0.190169,0 -0.314192,0.13849 -0.124023,0.13849 -0.121956,0.3762 z m 1.6061,1.28571 H 74.34739 v -2.19521 h 0.539502 v 0.31212 q 0.138492,-0.22117 0.248046,-0.29145 0.111621,-0.0703 0.252181,-0.0703 0.198438,0 0.382405,0.10955 l -0.179833,0.50643 q -0.146761,-0.0951 -0.272852,-0.0951 -0.121956,0 -0.206705,0.0682 -0.08475,0.0661 -0.134359,0.24184 -0.04754,0.1757 -0.04754,0.73588 z m 1.203029,-1.61437 v -0.58084 h 0.580842 v 0.58084 z m 0,1.61437 v -0.58084 h 0.580842 v 0.58084 z"
         id="path2" />
      <path
         d="m 49.082805,159.83609 0.562239,-0.0682 q 0.02687,0.21497 0.144694,0.32866 0.117822,0.11369 0.285253,0.11369 0.179834,0 0.30179,-0.13643 0.124024,-0.13643 0.124024,-0.36794 0,-0.2191 -0.117822,-0.34726 -0.117823,-0.12816 -0.287321,-0.12816 -0.111621,0 -0.26665,0.0434 l 0.06408,-0.47336 q 0.235645,0.006 0.359668,-0.10128 0.124023,-0.10956 0.124023,-0.28939 0,-0.15296 -0.09095,-0.24391 -0.09095,-0.0909 -0.241846,-0.0909 -0.148828,0 -0.254247,0.10335 -0.10542,0.10335 -0.128158,0.30179 l -0.535367,-0.0909 q 0.05581,-0.27492 0.167431,-0.43822 0.113688,-0.16536 0.314193,-0.25838 0.202571,-0.0951 0.452685,-0.0951 0.42788,0 0.686262,0.27285 0.212907,0.22324 0.212907,0.50436 0,0.39894 -0.436149,0.63665 0.260449,0.0558 0.415478,0.25012 0.157097,0.1943 0.157097,0.46922 0,0.39894 -0.291455,0.68006 -0.291455,0.28112 -0.725537,0.28112 -0.411344,0 -0.682128,-0.23564 -0.270784,-0.23772 -0.314192,-0.62012 z m 2.49907,0.80408 v -0.58084 h 0.580842 v 0.58084 z m 1.060399,-0.77928 0.578776,-0.0599 q 0.0248,0.19637 0.146761,0.31212 0.121956,0.11369 0.281119,0.11369 0.181901,0 0.307992,-0.14676 0.12609,-0.14883 0.12609,-0.44648 0,-0.27906 -0.12609,-0.41755 -0.124024,-0.14056 -0.324528,-0.14056 -0.250114,0 -0.448551,0.22118 l -0.471289,-0.0682 0.297656,-1.57716 h 1.535822 v 0.54364 h -1.095539 l -0.09095,0.51469 q 0.194303,-0.0971 0.396874,-0.0971 0.38654,0 0.655257,0.28112 0.268717,0.28112 0.268717,0.72967 0,0.37414 -0.217041,0.66766 -0.295589,0.40101 -0.820621,0.40101 -0.419612,0 -0.684195,-0.22531 -0.264583,-0.22531 -0.31626,-0.60565 z m 2.44326,-1.17408 0.01033,-0.56431 0.109554,-0.51263 h 0.632519 l -0.109554,0.51263 -0.214974,0.56431 z m 0.932242,0 0.01034,-0.56431 0.109554,-0.51263 h 0.632519 l -0.109554,0.51263 -0.214973,0.56431 z m 2.224152,1.0852 0.624251,-0.62425 -0.628385,-0.62632 0.384472,-0.38447 0.628385,0.62632 0.624251,-0.62425 0.374137,0.3762 -0.624251,0.62425 0.630452,0.63045 -0.384472,0.38447 -0.630452,-0.63045 -0.624251,0.62425 z m 3.607011,0.0889 0.578776,-0.0599 q 0.02481,0.19637 0.146761,0.31212 0.121956,0.11369 0.281119,0.11369 0.181901,0 0.307992,-0.14676 0.12609,-0.14883 0.12609,-0.44648 0,-0.27906 -0.12609,-0.41755 -0.124024,-0.14056 -0.324528,-0.14056 -0.250114,0 -0.448551,0.22118 l -0.471289,-0.0682 0.297656,-1.57716 h 1.535822 v 0.54364 h -1.095539 l -0.09095,0.51469 q 0.194303,-0.0971 0.396874,-0.0971 0.38654,0 0.655257,0.28112 0.268717,0.28112 0.268717,0.72967 0,0.37414 -0.217041,0.66766 -0.295589,0.40101 -0.820621,0.40101 -0.419612,0 -0.684195,-0.22531 -0.264583,-0.22531 -0.31626,-0.60565 z m 2.44326,-1.17408 0.01034,-0.56431 0.109554,-0.51263 h 0.632519 l -0.109554,0.51263 -0.214974,0.56431 z m 0.932243,0 0.01033,-0.56431 0.109554,-0.51263 h 0.632519 l -0.109554,0.51263 -0.214974,0.56431 z"
         id="path3" />
    </g>
    <path
       d="m 35.798399,14.307686 q 0,0.621667 -0.195337,0.913122 -0.193787,0.289905 -0.603064,0.289905 -0.415479,0 -0.607715,-0.294555 -0.190686,-0.294556 -0.190686,-0.905372 0,-0.615466 0.193786,-0.908471 0.193787,-0.294556 0.604615,-0.294556 0.415478,0 0.606164,0.299207 0.192237,0.297656 0.192237,0.90072 z m -0.407727,0.703833 q 0.05426,-0.125574 0.07286,-0.294556 0.02015,-0.170532 0.02015,-0.409277 0,-0.235645 -0.02015,-0.409277 -0.0186,-0.173633 -0.07441,-0.294556 -0.05426,-0.119373 -0.148828,-0.179834 -0.09302,-0.06046 -0.240295,-0.06046 -0.145728,0 -0.241846,0.06046 -0.09457,0.06046 -0.150378,0.182934 -0.05271,0.114722 -0.07286,0.299207 -0.0186,0.184485 -0.0186,0.404626 0,0.241846 0.01705,0.404627 0.01705,0.162781 0.07286,0.291455 0.05116,0.120923 0.144178,0.184485 0.09457,0.06356 0.249597,0.06356 0.145727,0 0.241845,-0.06046 0.09612,-0.06046 0.148829,-0.182934 z"
       id="text1"
       style="font-size:3.175px;text-align:center;text-anchor:middle;fill:#008000;stroke-width:0.2;stroke-linecap:round;stroke-linejoin:round"
       aria-label="0" />
    <path
       d="M 75.173906,15.491334 H 73.92437 v -0.235645 h 0.480591 V 13.708497 H 73.92437 v -0.21084 q 0.09767,0 0.209289,-0.0155 0.111622,-0.01705 0.168982,-0.04806 0.07131,-0.03876 0.111621,-0.09767 0.04186,-0.06046 0.04806,-0.161231 h 0.240295 v 2.080493 h 0.471289 z m 1.100708,0 h -0.37052 V 15.0495 h 0.37052 z m 2.210718,-1.962671 -1.044898,1.962671 h -0.331762 l 1.11156,-2.037085 h -1.314649 v -0.271301 h 1.579749 z m 1.993677,1.229382 q 0,0.161231 -0.05891,0.308509 -0.05891,0.147278 -0.16123,0.248047 -0.111621,0.10852 -0.26665,0.167431 -0.153479,0.05736 -0.356568,0.05736 -0.189135,0 -0.364319,-0.04031 -0.175183,-0.03876 -0.296106,-0.09457 v -0.327112 h 0.0217 q 0.127124,0.08061 0.297656,0.137976 0.170532,0.05581 0.334863,0.05581 0.110071,0 0.21239,-0.031 0.10387,-0.03101 0.184485,-0.108521 0.06821,-0.06666 0.102319,-0.15968 0.03566,-0.09302 0.03566,-0.215491 0,-0.119372 -0.04186,-0.201538 -0.04031,-0.08217 -0.113171,-0.131775 -0.08061,-0.05891 -0.196887,-0.08216 -0.114722,-0.02481 -0.257349,-0.02481 -0.136426,0 -0.26355,0.0186 -0.125574,0.0186 -0.217041,0.03721 v -1.189074 h 1.389063 v 0.271301 H 79.37365 v 0.613916 q 0.06666,-0.0062 0.136426,-0.0093 0.06976,-0.0031 0.120922,-0.0031 0.187586,0 0.328662,0.03256 0.141077,0.03101 0.258899,0.111621 0.124024,0.08527 0.192237,0.220142 0.06821,0.134875 0.06821,0.337963 z m 1.421619,-1.678967 -0.06666,0.89762 h -0.204639 l -0.06666,-0.89762 z m -0.598414,0 -0.06666,0.89762 h -0.204639 l -0.06666,-0.89762 z"
       id="text2"
       style="font-size:3.175px;text-align:center;text-anchor:middle;fill:#008000;stroke-width:0.2;stroke-linecap:round;stroke-linejoin:round"
       aria-label="1.75&quot;" />
    <path
       d="m 95.964076,15.491334 h -1.562695 v -0.324011 q 0.162781,-0.139527 0.325561,-0.279053 0.164332,-0.139526 0.305408,-0.277502 0.297656,-0.288355 0.407727,-0.457337 0.110071,-0.170532 0.110071,-0.367419 0,-0.179834 -0.119373,-0.280603 -0.117822,-0.10232 -0.330212,-0.10232 -0.141077,0 -0.305408,0.04961 -0.164331,0.04961 -0.32091,0.151928 h -0.0155 v -0.325561 q 0.110071,-0.05426 0.293005,-0.09922 0.184485,-0.04496 0.356568,-0.04496 0.355017,0 0.556555,0.172082 0.201538,0.170532 0.201538,0.463538 0,0.131775 -0.03411,0.246496 -0.03256,0.113172 -0.09767,0.215491 -0.06046,0.09612 -0.142627,0.189136 -0.08061,0.09302 -0.196887,0.206189 -0.165882,0.162781 -0.342615,0.31626 -0.176733,0.151928 -0.330212,0.282153 h 1.241784 z m 0.968933,0 h -0.37052 V 15.0495 h 0.37052 z m 2.185913,-0.733289 q 0,0.161231 -0.05891,0.308509 -0.05891,0.147278 -0.16123,0.248047 -0.111621,0.10852 -0.26665,0.167431 -0.153479,0.05736 -0.356568,0.05736 -0.189136,0 -0.364319,-0.04031 -0.175183,-0.03876 -0.296106,-0.09457 v -0.327112 h 0.0217 q 0.127124,0.08061 0.297657,0.137976 0.170532,0.05581 0.334863,0.05581 0.110071,0 0.21239,-0.031 0.10387,-0.03101 0.184485,-0.108521 0.06821,-0.06666 0.102319,-0.15968 0.03566,-0.09302 0.03566,-0.215491 0,-0.119372 -0.04186,-0.201538 -0.04031,-0.08217 -0.113171,-0.131775 -0.08062,-0.05891 -0.196887,-0.08216 -0.114722,-0.02481 -0.257349,-0.02481 -0.136426,0 -0.26355,0.0186 -0.125574,0.0186 -0.217041,0.03721 v -1.189074 h 1.389063 v 0.271301 h -1.089856 v 0.613916 q 0.06666,-0.0062 0.136425,-0.0093 0.06976,-0.0031 0.120923,-0.0031 0.187586,0 0.328662,0.03256 0.141077,0.03101 0.258899,0.111621 0.124024,0.08527 0.192237,0.220142 0.06821,0.134875 0.06821,0.337963 z m 1.421618,-1.678967 -0.0667,0.89762 h -0.20464 l -0.0667,-0.89762 z m -0.598412,0 -0.06666,0.89762 h -0.204639 l -0.06666,-0.89762 z"
       id="text7"
       style="font-size:3.175px;text-align:center;text-anchor:middle;fill:#008000;stroke-width:0.2;stroke-linecap:round;stroke-linejoin:round"
       aria-label="2.5&quot;" />
    <path
       d="m 121.75633,14.379774 q 0.0744,0.06666 0.12248,0.167432 0.0481,0.100769 0.0481,0.260449 0,0.15813 -0.0574,0.289905 -0.0574,0.131774 -0.16124,0.229443 -0.11627,0.10852 -0.2744,0.16123 -0.15658,0.05116 -0.34416,0.05116 -0.19224,0 -0.37827,-0.04651 -0.18604,-0.04496 -0.30541,-0.09922 v -0.324012 h 0.0233 q 0.13178,0.08682 0.31006,0.144178 0.17829,0.05736 0.34417,0.05736 0.0977,0 0.20774,-0.03256 0.11007,-0.03256 0.17828,-0.09612 0.0713,-0.06821 0.10542,-0.150378 0.0357,-0.08217 0.0357,-0.20774 0,-0.124023 -0.0403,-0.204638 -0.0388,-0.08217 -0.10852,-0.128675 -0.0698,-0.04806 -0.16898,-0.06511 -0.0992,-0.0186 -0.21394,-0.0186 h -0.13953 v -0.257349 h 0.10852 q 0.23564,0 0.37517,-0.09767 0.14108,-0.09922 0.14108,-0.288354 0,-0.08372 -0.0357,-0.145728 -0.0357,-0.06356 -0.0992,-0.103869 -0.0667,-0.04031 -0.14262,-0.05581 -0.076,-0.0155 -0.17209,-0.0155 -0.14728,0 -0.31316,0.05271 -0.16588,0.05271 -0.31316,0.148828 h -0.0155 v -0.324011 q 0.11007,-0.05426 0.29301,-0.09922 0.18448,-0.04651 0.35656,-0.04651 0.16899,0 0.29766,0.03101 0.12867,0.031 0.23254,0.09922 0.11163,0.07441 0.16899,0.179834 0.0574,0.10542 0.0574,0.246497 0,0.192236 -0.13643,0.336413 -0.13487,0.142627 -0.31936,0.179834 v 0.0217 q 0.0744,0.0124 0.17053,0.05271 0.0961,0.03876 0.16278,0.09767 z m 1.17203,1.11156 h -0.37052 V 15.0495 h 0.37052 z m 2.18591,-0.733289 q 0,0.161231 -0.0589,0.308509 -0.0589,0.147278 -0.16123,0.248047 -0.11162,0.10852 -0.26665,0.167431 -0.15348,0.05736 -0.35657,0.05736 -0.18914,0 -0.36432,-0.04031 -0.17518,-0.03876 -0.29611,-0.09457 v -0.327112 h 0.0217 q 0.12712,0.08061 0.29765,0.137976 0.17054,0.05581 0.33487,0.05581 0.11007,0 0.21239,-0.031 0.10387,-0.03101 0.18448,-0.108521 0.0682,-0.06666 0.10232,-0.15968 0.0357,-0.09302 0.0357,-0.215491 0,-0.119372 -0.0419,-0.201538 -0.0403,-0.08217 -0.11317,-0.131775 -0.0806,-0.05891 -0.19689,-0.08216 -0.11472,-0.02481 -0.25735,-0.02481 -0.13642,0 -0.26355,0.0186 -0.12557,0.0186 -0.21704,0.03721 v -1.189074 h 1.38907 v 0.271301 h -1.08986 v 0.613916 q 0.0667,-0.0062 0.13643,-0.0093 0.0698,-0.0031 0.12092,-0.0031 0.18758,0 0.32866,0.03256 0.14108,0.03101 0.2589,0.111621 0.12402,0.08527 0.19224,0.220142 0.0682,0.134875 0.0682,0.337963 z m 1.42162,-1.678967 -0.0667,0.89762 h -0.20463 l -0.0667,-0.89762 z m -0.59842,0 -0.0667,0.89762 h -0.20464 l -0.0667,-0.89762 z"
       id="text9"
       style="font-size:3.175px;text-align:center;text-anchor:middle;fill:#008000;stroke-width:0.2;stroke-linecap:round;stroke-linejoin:round"
       aria-label="3.5&quot;" />
    <path
       d="m 162.34042,14.758045 q 0,0.161231 -0.0589,0.308509 -0.0589,0.147278 -0.16123,0.248047 -0.11163,0.10852 -0.26665,0.167431 -0.15348,0.05736 -0.35657,0.05736 -0.18914,0 -0.36432,-0.04031 -0.17518,-0.03876 -0.29611,-0.09457 v -0.327112 h 0.0217 q 0.12712,0.08061 0.29765,0.137976 0.17054,0.05581 0.33487,0.05581 0.11007,0 0.21239,-0.031 0.10387,-0.03101 0.18448,-0.108521 0.0682,-0.06666 0.10232,-0.15968 0.0357,-0.09302 0.0357,-0.215491 0,-0.119372 -0.0419,-0.201538 -0.0403,-0.08217 -0.11317,-0.131775 -0.0806,-0.05891 -0.19689,-0.08216 -0.11472,-0.02481 -0.25735,-0.02481 -0.13642,0 -0.26355,0.0186 -0.12557,0.0186 -0.21704,0.03721 v -1.189074 h 1.38906 v 0.271301 h -1.08985 v 0.613916 q 0.0667,-0.0062 0.13642,-0.0093 0.0698,-0.0031 0.12093,-0.0031 0.18758,0 0.32866,0.03256 0.14108,0.03101 0.2589,0.111621 0.12402,0.08527 0.19223,0.220142 0.0682,0.134875 0.0682,0.337963 z m 0.8232,-1.678967 -0.0667,0.89762 h -0.21084 l -0.0667,-0.89762 z"
       id="text11"
       style="font-size:3.175px;text-align:center;text-anchor:middle;fill:#008000;stroke-width:0.2;stroke-linecap:round;stroke-linejoin:round"
       aria-label="5'" />
    <path
       d="m -34.201598,-188.71677 q 0,0.62167 -0.195337,0.91313 -0.193786,0.2899 -0.603063,0.2899 -0.415479,0 -0.607715,-0.29455 -0.190686,-0.29456 -0.190686,-0.90538 0,-0.61546 0.193786,-0.90847 0.193787,-0.29455 0.604615,-0.29455 0.415478,0 0.606164,0.2992 0.192236,0.29766 0.192236,0.90072 z m -0.407727,0.70384 q 0.05426,-0.12558 0.07286,-0.29456 0.02015,-0.17053 0.02015,-0.40928 0,-0.23564 -0.02015,-0.40927 -0.0186,-0.17364 -0.07441,-0.29456 -0.05426,-0.11937 -0.148828,-0.17983 -0.09302,-0.0605 -0.240295,-0.0605 -0.145728,0 -0.241846,0.0605 -0.09457,0.0605 -0.150379,0.18293 -0.05271,0.11472 -0.07286,0.29921 -0.0186,0.18448 -0.0186,0.40462 0,0.24185 0.01705,0.40463 0.01705,0.16278 0.07286,0.29146 0.05116,0.12092 0.144177,0.18448 0.09457,0.0636 0.249598,0.0636 0.145727,0 0.241845,-0.0605 0.09612,-0.0605 0.148828,-0.18293 z"
       id="text118"
       style="font-size:3.175px;text-align:center;text-anchor:middle;fill:#008000;stroke-width:0.2;stroke-linecap:round;stroke-linejoin:round"
       transform="scale(-1)"
       aria-label="0" />
    <path
       d="m -80.651091,-187.50444 h -1.249536 v -0.23564 h 0.480591 v -1.5472 h -0.480591 v -0.21084 q 0.09767,0 0.209289,-0.0155 0.111622,-0.017 0.168982,-0.0481 0.07131,-0.0388 0.111621,-0.0977 0.04186,-0.0605 0.04806,-0.16123 h 0.240295 v 2.0805 h 0.471289 z m 1.100708,0 h -0.37052 v -0.44183 h 0.37052 z m 2.210718,-1.96267 -1.044898,1.96267 h -0.331762 l 1.11156,-2.03709 h -1.314649 v -0.2713 h 1.579749 z m 1.993677,1.22938 q 0,0.16123 -0.05891,0.30851 -0.05891,0.14728 -0.161231,0.24805 -0.111621,0.10852 -0.26665,0.16743 -0.153479,0.0574 -0.356568,0.0574 -0.189135,0 -0.364319,-0.0403 -0.175183,-0.0388 -0.296105,-0.0946 v -0.32711 h 0.0217 q 0.127124,0.0806 0.297656,0.13798 0.170532,0.0558 0.334863,0.0558 0.110071,0 0.21239,-0.031 0.10387,-0.031 0.184485,-0.10852 0.06821,-0.0667 0.102319,-0.15968 0.03566,-0.093 0.03566,-0.21549 0,-0.11937 -0.04186,-0.20154 -0.04031,-0.0822 -0.113171,-0.13177 -0.08062,-0.0589 -0.196887,-0.0822 -0.114722,-0.0248 -0.257349,-0.0248 -0.136426,0 -0.26355,0.0186 -0.125573,0.0186 -0.217041,0.0372 v -1.18908 h 1.389063 v 0.2713 h -1.089856 v 0.61392 q 0.06666,-0.006 0.136426,-0.009 0.06976,-0.003 0.120922,-0.003 0.187586,0 0.328663,0.0326 0.141076,0.031 0.258898,0.11163 0.124024,0.0853 0.192237,0.22014 0.06821,0.13487 0.06821,0.33796 z m 1.421619,-1.67897 -0.06666,0.89762 h -0.204639 l -0.06666,-0.89762 z m -0.598413,0 -0.06666,0.89762 h -0.204639 l -0.06666,-0.89762 z"
       id="text119"
       style="font-size:3.175px;text-align:center;text-anchor:middle;fill:#008000;stroke-width:0.2;stroke-linecap:round;stroke-linejoin:round"
       transform="scale(-1)"
       aria-label="1.75&quot;" />
    <path
       d="m -98.977849,-187.50444 h -1.562691 v -0.32401 q 0.16278,-0.13953 0.32556,-0.27905 0.16433,-0.13953 0.305405,-0.27751 0.297656,-0.28835 0.407727,-0.45733 0.110071,-0.17054 0.110071,-0.36742 0,-0.17984 -0.119373,-0.28061 -0.117822,-0.10231 -0.330212,-0.10231 -0.141077,0 -0.305408,0.0496 -0.16433,0.0496 -0.32091,0.15193 h -0.0155 v -0.32556 q 0.11007,-0.0543 0.293,-0.0992 0.18449,-0.045 0.35657,-0.045 0.355017,0 0.556555,0.17209 0.201538,0.17053 0.201538,0.46353 0,0.13178 -0.03411,0.2465 -0.03256,0.11317 -0.09767,0.21549 -0.06046,0.0961 -0.142627,0.18914 -0.08061,0.093 -0.196887,0.20619 -0.165882,0.16278 -0.342615,0.31626 -0.176729,0.15192 -0.330209,0.28215 h 1.241781 z m 0.968933,0 h -0.37052 v -0.44183 h 0.37052 z m 2.185913,-0.73329 q 0,0.16123 -0.05891,0.30851 -0.05891,0.14728 -0.16123,0.24805 -0.111621,0.10852 -0.266651,0.16743 -0.153479,0.0574 -0.356567,0.0574 -0.189136,0 -0.364319,-0.0403 -0.175183,-0.0388 -0.296106,-0.0946 v -0.32711 h 0.0217 q 0.127124,0.0806 0.297657,0.13798 0.170532,0.0558 0.334863,0.0558 0.110071,0 0.21239,-0.031 0.10387,-0.031 0.184485,-0.10852 0.06821,-0.0667 0.102319,-0.15968 0.03566,-0.093 0.03566,-0.21549 0,-0.11937 -0.04186,-0.20154 -0.04031,-0.0822 -0.113171,-0.13177 -0.08062,-0.0589 -0.196888,-0.0822 -0.114721,-0.0248 -0.257348,-0.0248 -0.136426,0 -0.26355,0.0186 -0.125574,0.0186 -0.217041,0.0372 v -1.18908 h 1.389063 v 0.2713 h -1.089856 v 0.61392 q 0.06666,-0.006 0.136425,-0.009 0.06976,-0.003 0.120923,-0.003 0.187586,0 0.328662,0.0326 0.141077,0.031 0.258899,0.11163 0.124024,0.0853 0.192237,0.22014 0.06821,0.13487 0.06821,0.33796 z m 1.421619,-1.67897 -0.06666,0.89762 h -0.204639 l -0.06666,-0.89762 z m -0.598413,0 -0.06666,0.89762 h -0.204638 l -0.06666,-0.89762 z"
       id="text121"
       style="font-size:3.175px;text-align:center;text-anchor:middle;fill:#008000;stroke-width:0.2;stroke-linecap:round;stroke-linejoin:round"
       transform="scale(-1)"
       aria-label="2.5&quot;" />
    <path
       d="m -125.18558,-188.616 q 0.0744,0.0667 0.12248,0.16743 0.0481,0.10077 0.0481,0.26045 0,0.15813 -0.0574,0.28991 -0.0574,0.13177 -0.16123,0.22944 -0.11628,0.10852 -0.27441,0.16123 -0.15658,0.0512 -0.34416,0.0512 -0.19224,0 -0.37827,-0.0465 -0.18604,-0.045 -0.30541,-0.0992 v -0.32401 h 0.0233 q 0.13178,0.0868 0.31006,0.14418 0.17829,0.0574 0.34417,0.0574 0.0977,0 0.20774,-0.0326 0.11007,-0.0326 0.17828,-0.0961 0.0713,-0.0682 0.10542,-0.15037 0.0357,-0.0822 0.0357,-0.20774 0,-0.12403 -0.0403,-0.20464 -0.0388,-0.0822 -0.10852,-0.12868 -0.0698,-0.0481 -0.16898,-0.0651 -0.0992,-0.0186 -0.21394,-0.0186 h -0.13953 v -0.25735 h 0.10852 q 0.23564,0 0.37517,-0.0977 0.14108,-0.0992 0.14108,-0.28835 0,-0.0837 -0.0357,-0.14573 -0.0357,-0.0636 -0.0992,-0.10387 -0.0667,-0.0403 -0.14262,-0.0558 -0.076,-0.0155 -0.17209,-0.0155 -0.14727,0 -0.31316,0.0527 -0.16588,0.0527 -0.31316,0.14882 h -0.0155 v -0.32401 q 0.11007,-0.0543 0.29301,-0.0992 0.18448,-0.0465 0.35656,-0.0465 0.16899,0 0.29766,0.031 0.12867,0.031 0.23254,0.0992 0.11163,0.0744 0.16899,0.17983 0.0574,0.10542 0.0574,0.2465 0,0.19224 -0.13643,0.33641 -0.13487,0.14263 -0.31936,0.17984 v 0.0217 q 0.0744,0.0124 0.17053,0.0527 0.0961,0.0388 0.16278,0.0977 z m 1.17203,1.11156 h -0.37052 v -0.44183 h 0.37052 z m 2.18591,-0.73329 q 0,0.16123 -0.0589,0.30851 -0.0589,0.14728 -0.16123,0.24805 -0.11162,0.10852 -0.26665,0.16743 -0.15348,0.0574 -0.35657,0.0574 -0.18914,0 -0.36432,-0.0403 -0.17518,-0.0388 -0.29611,-0.0946 v -0.32711 h 0.0217 q 0.12712,0.0806 0.29765,0.13798 0.17054,0.0558 0.33487,0.0558 0.11007,0 0.21239,-0.031 0.10387,-0.031 0.18448,-0.10852 0.0682,-0.0667 0.10232,-0.15968 0.0357,-0.093 0.0357,-0.21549 0,-0.11937 -0.0419,-0.20154 -0.0403,-0.0822 -0.11317,-0.13177 -0.0806,-0.0589 -0.19689,-0.0822 -0.11472,-0.0248 -0.25735,-0.0248 -0.13642,0 -0.26355,0.0186 -0.12557,0.0186 -0.21704,0.0372 v -1.18908 h 1.38907 v 0.2713 h -1.08986 v 0.61392 q 0.0667,-0.006 0.13643,-0.009 0.0698,-0.003 0.12092,-0.003 0.18758,0 0.32866,0.0326 0.14108,0.031 0.2589,0.11163 0.12402,0.0853 0.19224,0.22014 0.0682,0.13487 0.0682,0.33796 z m 1.42162,-1.67897 -0.0667,0.89762 h -0.20463 l -0.0667,-0.89762 z m -0.59842,0 -0.0667,0.89762 h -0.20464 l -0.0667,-0.89762 z"
       id="text122"
       style="font-size:3.175px;text-align:center;text-anchor:middle;fill:#008000;stroke-width:0.2;stroke-linecap:round;stroke-linejoin:round"
       transform="scale(-1)"
       aria-label="3.5&quot;" />
    <path
       d="m -161.65984,-188.23773 q 0,0.16123 -0.0589,0.30851 -0.0589,0.14728 -0.16123,0.24805 -0.11162,0.10852 -0.26665,0.16743 -0.15348,0.0574 -0.35657,0.0574 -0.18914,0 -0.36432,-0.0403 -0.17518,-0.0388 -0.29611,-0.0946 v -0.32711 h 0.0217 q 0.12712,0.0806 0.29765,0.13798 0.17054,0.0558 0.33487,0.0558 0.11007,0 0.21239,-0.031 0.10387,-0.031 0.18448,-0.10852 0.0682,-0.0667 0.10232,-0.15968 0.0357,-0.093 0.0357,-0.21549 0,-0.11937 -0.0419,-0.20154 -0.0403,-0.0822 -0.11317,-0.13177 -0.0806,-0.0589 -0.19689,-0.0822 -0.11472,-0.0248 -0.25735,-0.0248 -0.13642,0 -0.26355,0.0186 -0.12557,0.0186 -0.21704,0.0372 v -1.18908 h 1.38907 v 0.2713 h -1.08986 v 0.61392 q 0.0667,-0.006 0.13642,-0.009 0.0698,-0.003 0.12093,-0.003 0.18758,0 0.32866,0.0326 0.14108,0.031 0.2589,0.11163 0.12402,0.0853 0.19224,0.22014 0.0682,0.13487 0.0682,0.33796 z m 0.8232,-1.67897 -0.0667,0.89762 h -0.21084 l -0.0667,-0.89762 z"
       id="text123"
       style="font-size:3.175px;text-align:center;text-anchor:middle;fill:#008000;stroke-width:0.2;stroke-linecap:round;stroke-linejoin:round"
       transform="scale(-1)"
       aria-label="5'" />
    <path
       d="m 38.723306,-11.91507 q 0,0.621668 -0.195337,0.913123 -0.193786,0.289905 -0.603064,0.289905 -0.415478,0 -0.607714,-0.294556 -0.190686,-0.294556 -0.190686,-0.905371 0,-0.615466 0.193786,-0.908472 0.193787,-0.294555 0.604614,-0.294555 0.415479,0 0.606165,0.299206 0.192236,0.297656 0.192236,0.90072 z m -0.407727,0.703833 q 0.05426,-0.125573 0.07286,-0.294555 0.02015,-0.170532 0.02015,-0.409278 0,-0.235644 -0.02015,-0.409277 -0.0186,-0.173633 -0.07441,-0.294556 -0.05426,-0.119372 -0.148828,-0.179834 -0.09302,-0.06046 -0.240296,-0.06046 -0.145727,0 -0.241845,0.06046 -0.09457,0.06046 -0.150379,0.182935 -0.05271,0.114722 -0.07286,0.299207 -0.0186,0.184484 -0.0186,0.404626 0,0.241846 0.01705,0.404626 0.01705,0.162781 0.07286,0.291456 0.05116,0.120922 0.144177,0.184484 0.09457,0.06356 0.249597,0.06356 0.145728,0 0.241846,-0.06046 0.09612,-0.06046 0.148828,-0.182935 z"
       id="text124"
       style="font-size:3.175px;text-align:center;text-anchor:middle;fill:#008000;stroke-width:0.2;stroke-linecap:round;stroke-linejoin:round"
       transform="rotate(90)"
       aria-label="0" />
    <path
       d="m -102.27646,13.095618 h -1.5627 v -0.324011 q 0.16278,-0.139526 0.32556,-0.279053 0.16433,-0.139526 0.30541,-0.277502 0.29766,-0.288355 0.40773,-0.457337 0.11007,-0.170532 0.11007,-0.367419 0,-0.179834 -0.11937,-0.280603 -0.11783,-0.102319 -0.33022,-0.102319 -0.14107,0 -0.3054,0.04961 -0.16434,0.04961 -0.32091,0.151929 h -0.0155 V 10.88335 q 0.11007,-0.05426 0.29301,-0.09922 0.18448,-0.04496 0.35656,-0.04496 0.35502,0 0.55656,0.172082 0.20154,0.170533 0.20154,0.463538 0,0.131775 -0.0341,0.246497 -0.0326,0.113171 -0.0977,0.21549 -0.0605,0.09612 -0.14262,0.189136 -0.0806,0.09302 -0.19689,0.206189 -0.16588,0.162781 -0.34262,0.31626 -0.17673,0.151929 -0.33021,0.282153 h 1.24179 z m 0.96893,0 h -0.37052 v -0.441833 h 0.37052 z m 2.185913,-0.733288 q 0,0.16123 -0.05891,0.308508 -0.05891,0.147278 -0.161231,0.248047 -0.111621,0.10852 -0.26665,0.167431 -0.153479,0.05736 -0.356567,0.05736 -0.189134,0 -0.364324,-0.04031 -0.17518,-0.03876 -0.2961,-0.09457 V 12.68169 h 0.0217 q 0.12713,0.08061 0.29766,0.137976 0.17053,0.05581 0.334862,0.05581 0.110071,0 0.212391,-0.03101 0.103869,-0.03101 0.184484,-0.108521 0.06821,-0.06666 0.10232,-0.15968 0.03566,-0.09302 0.03566,-0.215491 0,-0.119372 -0.04186,-0.201538 -0.04031,-0.08216 -0.113172,-0.131775 -0.08061,-0.05891 -0.196887,-0.08216 -0.114722,-0.02481 -0.257347,-0.02481 -0.13643,0 -0.26355,0.0186 -0.12558,0.0186 -0.21704,0.03721 v -1.189075 h 1.38906 v 0.271301 h -1.08986 v 0.613916 q 0.0667,-0.0062 0.13643,-0.0093 0.0698,-0.0031 0.120923,-0.0031 0.187585,0 0.328662,0.03256 0.141076,0.03101 0.258899,0.111621 0.124023,0.08527 0.192236,0.220142 0.06821,0.134875 0.06821,0.337964 z m 1.421619,-1.678968 -0.06666,0.89762 H -97.9713 l -0.06666,-0.89762 z m -0.598413,0 -0.06666,0.89762 h -0.204639 l -0.06666,-0.89762 z"
       id="text126"
       style="font-size:3.175px;text-align:center;text-anchor:middle;fill:#008000;stroke-width:0.2;stroke-linecap:round;stroke-linejoin:round"
       transform="rotate(-90)"
       aria-label="2.5&quot;" />
    <path
       d="m -127.91657,11.984059 q 0.0744,0.06666 0.12247,0.167432 0.0481,0.100769 0.0481,0.260449 0,0.15813 -0.0574,0.289905 -0.0574,0.131775 -0.16123,0.229443 -0.11627,0.108521 -0.2744,0.161231 -0.15658,0.05116 -0.34417,0.05116 -0.19223,0 -0.37827,-0.04651 -0.18603,-0.04496 -0.30541,-0.09922 V 12.67394 h 0.0233 q 0.13177,0.08682 0.31006,0.144177 0.17828,0.05736 0.34416,0.05736 0.0977,0 0.20774,-0.03256 0.11007,-0.03256 0.17828,-0.09612 0.0713,-0.06821 0.10542,-0.150378 0.0357,-0.08217 0.0357,-0.207739 0,-0.124024 -0.0403,-0.204639 -0.0387,-0.08217 -0.10852,-0.128674 -0.0698,-0.04806 -0.16898,-0.06511 -0.0992,-0.0186 -0.21394,-0.0186 h -0.13953 v -0.257349 h 0.10853 q 0.23564,0 0.37517,-0.09767 0.14107,-0.09922 0.14107,-0.288355 0,-0.08372 -0.0357,-0.145727 -0.0357,-0.06356 -0.0992,-0.10387 -0.0667,-0.04031 -0.14263,-0.05581 -0.076,-0.0155 -0.17208,-0.0155 -0.14728,0 -0.31316,0.05271 -0.16588,0.05271 -0.31316,0.148828 h -0.0155 v -0.324012 q 0.11007,-0.05426 0.293,-0.09922 0.18449,-0.04651 0.35657,-0.04651 0.16898,0 0.29766,0.03101 0.12867,0.03101 0.23254,0.09922 0.11162,0.07441 0.16898,0.179834 0.0574,0.105419 0.0574,0.246496 0,0.192236 -0.13642,0.336414 -0.13488,0.142627 -0.31936,0.179834 v 0.0217 q 0.0744,0.0124 0.17053,0.05271 0.0961,0.03876 0.16278,0.09767 z m 1.17202,1.11156 h -0.37052 v -0.441833 h 0.37052 z m 2.18591,-0.733288 q 0,0.16123 -0.0589,0.308508 -0.0589,0.147278 -0.16123,0.248047 -0.11162,0.10852 -0.26665,0.167431 -0.15348,0.05736 -0.35657,0.05736 -0.18913,0 -0.36431,-0.04031 -0.17519,-0.03876 -0.29611,-0.09457 v -0.327112 h 0.0217 q 0.12713,0.08061 0.29766,0.137976 0.17053,0.05581 0.33486,0.05581 0.11007,0 0.21239,-0.03101 0.10387,-0.03101 0.18449,-0.108521 0.0682,-0.06666 0.10232,-0.15968 0.0357,-0.09302 0.0357,-0.215491 0,-0.119372 -0.0418,-0.201538 -0.0403,-0.08217 -0.11318,-0.131775 -0.0806,-0.05891 -0.19688,-0.08216 -0.11472,-0.02481 -0.25735,-0.02481 -0.13643,0 -0.26355,0.0186 -0.12557,0.0186 -0.21704,0.03721 v -1.189075 h 1.38906 v 0.271301 h -1.08986 v 0.613916 q 0.0667,-0.0062 0.13643,-0.0093 0.0698,-0.0031 0.12092,-0.0031 0.18759,0 0.32867,0.03256 0.14107,0.03101 0.25889,0.111621 0.12403,0.08527 0.19224,0.220142 0.0682,0.134875 0.0682,0.337964 z m 1.42162,-1.678968 -0.0667,0.89762 h -0.20464 l -0.0667,-0.89762 z m -0.59841,0 -0.0667,0.89762 h -0.20464 l -0.0667,-0.89762 z"
       id="text127"
       style="font-size:3.175px;text-align:center;text-anchor:middle;fill:#008000;stroke-width:0.2;stroke-linecap:round;stroke-linejoin:round"
       transform="rotate(-90)"
       aria-label="3.5&quot;" />
    <path
       d="m -164.61288,12.362331 q 0,0.16123 -0.0589,0.308508 -0.0589,0.147278 -0.16123,0.248047 -0.11162,0.10852 -0.26665,0.167431 -0.15348,0.05736 -0.35656,0.05736 -0.18914,0 -0.36432,-0.04031 -0.17519,-0.03876 -0.29611,-0.09457 v -0.327112 h 0.0217 q 0.12713,0.08061 0.29766,0.137976 0.17053,0.05581 0.33486,0.05581 0.11007,0 0.21239,-0.03101 0.10387,-0.03101 0.18449,-0.108521 0.0682,-0.06666 0.10232,-0.15968 0.0357,-0.09302 0.0357,-0.215491 0,-0.119372 -0.0419,-0.201538 -0.0403,-0.08217 -0.11317,-0.131775 -0.0806,-0.05891 -0.19689,-0.08216 -0.11472,-0.02481 -0.25735,-0.02481 -0.13643,0 -0.26355,0.0186 -0.12557,0.0186 -0.21704,0.03721 v -1.189075 h 1.38906 v 0.271301 h -1.08985 v 0.613916 q 0.0667,-0.0062 0.13642,-0.0093 0.0698,-0.0031 0.12092,-0.0031 0.18759,0 0.32867,0.03256 0.14107,0.03101 0.2589,0.111621 0.12402,0.08527 0.19223,0.220142 0.0682,0.134875 0.0682,0.337964 z m 0.82321,-1.678968 -0.0667,0.89762 h -0.21084 l -0.0667,-0.89762 z"
       id="text128"
       style="font-size:3.175px;text-align:center;text-anchor:middle;fill:#008000;stroke-width:0.2;stroke-linecap:round;stroke-linejoin:round"
       transform="rotate(-90)"
       aria-label="5'" />
  </g>
</svg>
