<?xml version="1.0" encoding="UTF-8"?>
<!DOCTYPE svg PUBLIC "-//W3C//DTD SVG 1.1//EN" "http://www.w3.org/Graphics/SVG/1.1/DTD/svg11.dtd">
<!-- Creator: CorelDRAW Standard 2024 -->
<svg xmlns="http://www.w3.org/2000/svg" xml:space="preserve" width="1240px" height="1754px" version="1.1" style="shape-rendering:geometricPrecision; text-rendering:geometricPrecision; image-rendering:optimizeQuality; fill-rule:evenodd; clip-rule:evenodd"
viewBox="0 0 124000000 175371400"
 xmlns:xlink="http://www.w3.org/1999/xlink"
 xmlns:xodm="http://www.corel.com/coreldraw/odm/2003">
 <defs>
  <style type="text/css">
   <![CDATA[
    .str0 {stroke:#373435;stroke-width:118100;stroke-miterlimit:22.9256}
    .str1 {stroke:red;stroke-width:45000;stroke-miterlimit:22.9256}
    .fil0 {fill:none}
    .fil4 {fill:#ED3237}
    .fil1 {fill:#0098DA}
    .fil5 {fill:black}
    .fil3 {fill:#EF4D37;fill-rule:nonzero}
    .fil2 {fill:#0098DA;fill-rule:nonzero}
    .fnt0 {font-weight:normal;font-size:4419800px;font-family:'Arial'}
   ]]>
  </style>
 </defs>
 <g id="Слой_x0020_1">
  <metadata id="CorelCorpID_0Corel-Layer"/>
  <g id="_2401494688656">
   <path class="fil0 str0" d="M52459000 139900900l-2370100 -16700 -21000 -2362000 2393500 100 102000 -102279200 -2654600 8400 10900 -2864500 2646700 -32000c-1100,-1024500 -414800,-1401700 -4715200,-1400100 -3358500,1300 -8509600,14700 -11071500,-3700 -4524000,19300 -4828900,525100 -4829200,1425800l2617200 -12000 1000 2838400 -2619400 4700 -48500 102296100 2352400 18100 10500 2312800 -2363900 -12600c600,1839400 1762400,1684500 2509300,1697500 3537000,-44100 10472400,18100 15675600,66300 940400,-86600 2359900,67600 2374300,-1685400z"/>
   <line class="fil0 str0" x1="33680600" y1="130169900" x2="50679900" y2= "130177000" />
   <line class="fil0 str0" x1="33679200" y1="132801500" x2="50678500" y2= "132808400" />
   <line class="fil0 str0" x1="35379700" y1="138416600" x2="48936800" y2= "138420200" />
   <line class="fil0 str0" x1="33618800" y1="135551400" x2="50618100" y2= "135558500" />
   <g>
    <line class="fil0 str0" x1="52483000" y1="131512500" x2="44334400" y2= "131509100" />
    <line class="fil0 str0" x1="31849600" y1="131466200" x2="39939100" y2= "131469500" />
   </g>
   <g>
    <line class="fil0 str0" x1="52558500" y1="136887000" x2="44409900" y2= "136883600" />
    <line class="fil0 str0" x1="31925000" y1="136840700" x2="40014500" y2= "136844000" />
   </g>
   <g>
    <line class="fil0 str0" x1="52481700" y1="134144000" x2="44333100" y2= "134140600" />
    <line class="fil0 str0" x1="31848200" y1="134097700" x2="39937700" y2= "134101000" />
   </g>
   <line class="fil0 str0" x1="52601400" y1="128766200" x2="44393800" y2= "128762800" />
   <line class="fil0 str0" x1="50130300" y1="139884900" x2="43247300" y2= "139881300" />
   <line class="fil0 str0" x1="31968000" y1="128719900" x2="40116500" y2= "128723300" />
   <polyline class="fil0 str0" points="34221600,139834100 39956800,139837500 41213900,139838000 "/>
   <line class="fil0 str0" x1="33778100" y1="127208700" x2="50777400" y2= "127215700" />
   <line class="fil0 str0" x1="33807400" y1="111283800" x2="50806600" y2= "111290800" />
   <line class="fil0 str0" x1="33806000" y1="113915300" x2="50805300" y2= "113922300" />
   <line class="fil0 str0" x1="33804600" y1="116546800" x2="50803900" y2= "116553800" />
   <line class="fil0 str0" x1="33803200" y1="119295300" x2="50802500" y2= "119302300" />
   <line class="fil0 str0" x1="33880900" y1="121909400" x2="50880200" y2= "121916400" />
   <line class="fil0 str0" x1="33957800" y1="124482200" x2="50957000" y2= "124489200" />
   <g>
    <line class="fil0 str0" x1="52611100" y1="109994800" x2="44462600" y2= "109991400" />
    <line class="fil0 str0" x1="31977700" y1="109948500" x2="40067200" y2= "109951900" />
   </g>
   <g>
    <line class="fil0 str0" x1="52609800" y1="112626300" x2="44461200" y2= "112622900" />
    <line class="fil0 str0" x1="31976400" y1="112580000" x2="40065800" y2= "112583400" />
   </g>
   <g>
    <line class="fil0 str0" x1="52608400" y1="115257800" x2="44459800" y2= "115254500" />
    <line class="fil0 str0" x1="31975000" y1="115211500" x2="40064500" y2= "115214800" />
   </g>
   <g>
    <line class="fil0 str0" x1="52607100" y1="117889300" x2="44458500" y2= "117886000" />
    <line class="fil0 str0" x1="31973600" y1="117843000" x2="40063100" y2= "117846400" />
   </g>
   <g>
    <line class="fil0 str0" x1="52605700" y1="120545700" x2="44457100" y2= "120542300" />
    <line class="fil0 str0" x1="31972300" y1="120499400" x2="40061700" y2= "120502700" />
   </g>
   <g>
    <line class="fil0 str0" x1="52604300" y1="123210800" x2="44455800" y2= "123207500" />
    <line class="fil0 str0" x1="31970900" y1="123164500" x2="40060400" y2= "123167800" />
   </g>
   <g>
    <line class="fil0 str0" x1="52603000" y1="125783800" x2="44454400" y2= "125780500" />
    <line class="fil0 str0" x1="31969600" y1="125737500" x2="40059100" y2= "125740900" />
   </g>
   <line class="fil0 str0" x1="33735100" y1="108730500" x2="50734400" y2= "108737400" />
   <line class="fil0 str0" x1="33704600" y1="90179600" x2="50703900" y2= "90186700" />
   <line class="fil0 str0" x1="33714100" y1="71759100" x2="50713300" y2= "71766100" />
   <line class="fil0 str0" x1="33742800" y1="53258800" x2="50742000" y2= "53265800" />
   <line class="fil0 str0" x1="33814200" y1="42766100" x2="50813500" y2= "42773100" />
   <line class="fil0 str0" x1="33703300" y1="92811200" x2="50702500" y2= "92818200" />
   <line class="fil0 str0" x1="33712700" y1="74390600" x2="50712000" y2= "74397600" />
   <line class="fil0 str0" x1="33741500" y1="55890300" x2="50740700" y2= "55897300" />
   <line class="fil0 str0" x1="33812900" y1="45397600" x2="50812200" y2= "45404600" />
   <line class="fil0 str0" x1="33701900" y1="95442700" x2="50701200" y2= "95449600" />
   <line class="fil0 str0" x1="33711300" y1="77022100" x2="50710600" y2= "77029200" />
   <line class="fil0 str0" x1="33740100" y1="58521800" x2="50739400" y2= "58528800" />
   <line class="fil0 str0" x1="33700500" y1="98074200" x2="50699800" y2= "98081200" />
   <line class="fil0 str0" x1="33710000" y1="79653600" x2="50709300" y2= "79660600" />
   <line class="fil0 str0" x1="33738700" y1="61153300" x2="50738000" y2= "61160300" />
   <line class="fil0 str0" x1="33699100" y1="100822600" x2="50698400" y2= "100829700" />
   <line class="fil0 str0" x1="33708600" y1="82402100" x2="50707900" y2= "82409100" />
   <line class="fil0 str0" x1="33737300" y1="63901700" x2="50736600" y2= "63908800" />
   <line class="fil0 str0" x1="37142500" y1="32410400" x2="47301100" y2= "32415000" />
   <line class="fil0 str0" x1="33776800" y1="103436800" x2="50776100" y2= "103443800" />
   <line class="fil0 str0" x1="33786300" y1="85016300" x2="50785600" y2= "85023300" />
   <line class="fil0 str0" x1="33815000" y1="66515900" x2="50814300" y2= "66522900" />
   <line class="fil0 str0" x1="33843700" y1="48015600" x2="50843000" y2= "48022500" />
   <line class="fil0 str0" x1="33915200" y1="37522900" x2="50914500" y2= "37529900" />
   <line class="fil0 str0" x1="33853700" y1="106009500" x2="50852900" y2= "106016600" />
   <line class="fil0 str0" x1="33863100" y1="87589100" x2="50862400" y2= "87596000" />
   <line class="fil0 str0" x1="33891900" y1="69088700" x2="50891100" y2= "69095700" />
   <line class="fil0 str0" x1="33920600" y1="50588300" x2="50919800" y2= "50595400" />
   <line class="fil0 str0" x1="33992000" y1="40095600" x2="50991300" y2= "40102700" />
   <g>
    <line class="fil0 str0" x1="52507000" y1="91522200" x2="44358500" y2= "91518800" />
    <line class="fil0 str0" x1="31873600" y1="91475900" x2="39963100" y2= "91479200" />
   </g>
   <g>
    <line class="fil0 str0" x1="52516500" y1="73101600" x2="44367900" y2= "73098300" />
    <line class="fil0 str0" x1="31883100" y1="73055400" x2="39972600" y2= "73058700" />
   </g>
   <g>
    <line class="fil0 str0" x1="52545200" y1="54601300" x2="44396700" y2= "54597900" />
    <line class="fil0 str0" x1="31911800" y1="54555000" x2="40001300" y2= "54558300" />
   </g>
   <line class="fil0 str0" x1="52616700" y1="44108600" x2="43228200" y2= "44104900" />
   <line class="fil0 str0" x1="31983300" y1="44062300" x2="41148800" y2= "44065600" />
   <g>
    <line class="fil0 str0" x1="52505700" y1="94153700" x2="44357100" y2= "94150300" />
    <line class="fil0 str0" x1="31872300" y1="94107400" x2="39961700" y2= "94110700" />
   </g>
   <g>
    <line class="fil0 str0" x1="52515200" y1="75733100" x2="44366600" y2= "75729800" />
    <line class="fil0 str0" x1="31881800" y1="75686800" x2="39971200" y2= "75690200" />
   </g>
   <g>
    <line class="fil0 str0" x1="52543900" y1="57232800" x2="44395300" y2= "57229400" />
    <line class="fil0 str0" x1="31910500" y1="57186500" x2="39999900" y2= "57189900" />
   </g>
   <g>
    <line class="fil0 str0" x1="52504300" y1="96785200" x2="44355700" y2= "96781800" />
    <line class="fil0 str0" x1="31870900" y1="96738900" x2="39960400" y2= "96742200" />
   </g>
   <g>
    <line class="fil0 str0" x1="52513800" y1="78364600" x2="44365300" y2= "78361300" />
    <line class="fil0 str0" x1="31880400" y1="78318300" x2="39969900" y2= "78321700" />
   </g>
   <g>
    <line class="fil0 str0" x1="52542500" y1="59864300" x2="44393900" y2= "59860900" />
    <line class="fil0 str0" x1="31909100" y1="59818000" x2="39998600" y2= "59821300" />
   </g>
   <g>
    <line class="fil0 str0" x1="52503000" y1="99416700" x2="44354400" y2= "99413300" />
    <line class="fil0 str0" x1="31869500" y1="99370400" x2="39959000" y2= "99373700" />
   </g>
   <g>
    <line class="fil0 str0" x1="52512500" y1="80996200" x2="44363900" y2= "80992800" />
    <line class="fil0 str0" x1="31879000" y1="80949900" x2="39968500" y2= "80953200" />
   </g>
   <g>
    <line class="fil0 str0" x1="52541200" y1="62495800" x2="44392600" y2= "62492500" />
    <line class="fil0 str0" x1="31907700" y1="62449500" x2="39997200" y2= "62452800" />
   </g>
   <g>
    <line class="fil0 str0" x1="52501600" y1="102073000" x2="44353000" y2= "102069700" />
    <line class="fil0 str0" x1="31868200" y1="102026700" x2="39957600" y2= "102030100" />
   </g>
   <g>
    <line class="fil0 str0" x1="52511100" y1="83652500" x2="44362500" y2= "83649200" />
    <line class="fil0 str0" x1="31877700" y1="83606200" x2="39967100" y2= "83609500" />
   </g>
   <g>
    <line class="fil0 str0" x1="52539800" y1="65152100" x2="44391200" y2= "65148800" />
    <line class="fil0 str0" x1="31906400" y1="65105800" x2="39995800" y2= "65109200" />
   </g>
   <g>
    <line class="fil0 str0" x1="52568500" y1="46651800" x2="44419900" y2= "46648400" />
    <line class="fil0 str0" x1="31935100" y1="46605500" x2="40024500" y2= "46608800" />
   </g>
   <line class="fil0 str0" x1="52639900" y1="36277600" x2="43241600" y2= "36274300" />
   <line class="fil0 str0" x1="32006500" y1="36290500" x2="41095800" y2= "36293900" />
   <g>
    <line class="fil0 str0" x1="52500200" y1="104738200" x2="44351700" y2= "104734800" />
    <line class="fil0 str0" x1="31866800" y1="104691900" x2="39956300" y2= "104695200" />
   </g>
   <g>
    <line class="fil0 str0" x1="52509700" y1="86317600" x2="44361100" y2= "86314300" />
    <line class="fil0 str0" x1="31876300" y1="86271300" x2="39965800" y2= "86274700" />
   </g>
   <g>
    <line class="fil0 str0" x1="52538400" y1="67817300" x2="44389900" y2= "67813900" />
    <line class="fil0 str0" x1="31905000" y1="67771000" x2="39994500" y2= "67774300" />
   </g>
   <g>
    <line class="fil0 str0" x1="52567100" y1="49316900" x2="44418600" y2= "49313600" />
    <line class="fil0 str0" x1="31933700" y1="49270600" x2="40023200" y2= "49274000" />
   </g>
   <line class="fil0 str0" x1="52638600" y1="38824300" x2="43191100" y2= "38820700" />
   <line class="fil0 str0" x1="32005200" y1="38778000" x2="41098500" y2= "38781200" />
   <g>
    <line class="fil0 str0" x1="52498900" y1="107311200" x2="44350300" y2= "107307800" />
    <line class="fil0 str0" x1="31865500" y1="107264900" x2="39955000" y2= "107268300" />
   </g>
   <g>
    <line class="fil0 str0" x1="52508400" y1="88890600" x2="44359800" y2= "88887300" />
    <line class="fil0 str0" x1="31875000" y1="88844400" x2="39964400" y2= "88847700" />
   </g>
   <g>
    <line class="fil0 str0" x1="52537100" y1="70390300" x2="44388500" y2= "70386900" />
    <line class="fil0 str0" x1="31903700" y1="70344000" x2="39993100" y2= "70347400" />
   </g>
   <g>
    <line class="fil0 str0" x1="52565800" y1="51890000" x2="44417200" y2= "51886600" />
    <line class="fil0 str0" x1="31932400" y1="51843700" x2="40021900" y2= "51847000" />
   </g>
   <line class="fil0 str0" x1="52637200" y1="41397300" x2="43189700" y2= "41393900" />
   <line class="fil0 str0" x1="32003800" y1="41351000" x2="41097200" y2= "41354200" />
   <polygon class="fil1" points="42212300,33163300 45512100,35504900 38872300,35504900 "/>
   <line class="fil0 str0" x1="34527600" y1="33606400" x2="39439900" y2= "33653900" />
   <line class="fil0 str0" x1="49954700" y1="33641500" x2="44786100" y2= "33653900" />
  </g>
  <g id="_2401494684288">
   <path class="fil2" d="M74602500 36711000l-826400 14400c-66800,1100 -126800,9000 -179900,23800 -53400,14200 -98900,36100 -136300,65900 -37300,30000 -66000,67800 -86100,113600 -20000,46300 -29500,101500 -28400,166100 1200,62800 14100,120000 38600,171700 24500,52300 58000,96700 101200,133700 43400,37100 94500,66000 153100,86000 58600,20100 122300,29400 191800,28200l786200 -13700 5300 303800 -1133200 19800c-31200,600 -64800,1700 -100400,2800 -35400,1100 -69000,2600 -100200,4700 -31600,1800 -75200,5000 -130500,9800l-5100 -289000c56300,-4300 100300,-7900 132000,-10400 31100,-2500 62900,-5000 95500,-6500 32100,-2000 58700,-3500 79000,-3900l-100 -5600c-118400,-57900 -205500,-131500 -260600,-221000 -55500,-90000 -83900,-196800 -86000,-321100 -1900,-103000 11900,-189800 40900,-260300 29500,-70900 70200,-128000 121900,-172600 51800,-44500 113800,-76600 185000,-97000 71600,-20300 148100,-31300 230400,-32700l907100 -15800 5200 305300zm-684800 3050000c-111800,2000 -214300,-9600 -308100,-34800 -93200,-24600 -173400,-64000 -241000,-116900 -67700,-53300 -120600,-120900 -158900,-202600 -38400,-82100 -58600,-179400 -60500,-291500 -2100,-120600 20700,-226200 68300,-316200 48300,-90300 118400,-161400 210900,-213300 -23300,-600 -48900,-1700 -76800,-3000 -28500,-1500 -55400,-2800 -80700,-3800 -25600,-1500 -59200,-5200 -101000,-11200l-5100 -291500c53100,2000 93400,3100 121800,3100 27900,600 59200,1000 93200,900 34600,-200 69600,-900 105600,-1500l1101100 -19200c111200,-2000 210100,13100 297200,44600 86800,32100 160500,78700 220400,140800 59700,62200 105500,139400 138400,231600 32500,92900 49800,198300 51800,317100 1900,102900 -6000,193500 -23000,271800 -17100,78300 -42000,145800 -75600,202400 -33000,56700 -73500,102800 -121600,137600 -47700,34700 -101300,60300 -160300,75100l-46900 -302200c68800,-22800 122900,-66800 162000,-132000 39200,-65000 57900,-151000 56100,-257700 -1100,-66100 -12100,-125800 -32400,-179000 -20400,-52800 -50400,-97200 -90800,-133500 -40500,-36500 -91200,-64900 -152100,-84900 -61100,-20500 -132600,-30200 -215000,-28700l-245800 4200c98600,55300 172300,127300 222500,215900 49900,88200 76500,200800 79000,337200 1800,108400 -15000,202200 -50100,281300 -35100,79100 -85500,145200 -150400,198500 -65500,52800 -143300,92500 -233800,119000 -90900,26400 -190000,40600 -298400,42400zm-5600 -316700c167600,-3000 296500,-41200 388200,-114600 91000,-72800 135600,-180800 133000,-324000 -900,-56000 -10900,-110400 -29300,-163700 -18500,-52800 -49100,-99700 -91500,-140100 -41900,-40500 -97900,-72400 -167300,-96600 -69200,-23800 -155000,-35200 -257800,-33400 -100000,1800 -183400,15700 -251200,40800 -67200,25600 -122000,59200 -163100,100500 -41300,41500 -70800,88900 -88000,142400 -17000,53800 -25000,109000 -23900,166000 2400,138200 50200,244100 142800,317200 92700,73100 228600,108600 408100,105500zm755100 966800l-1464600 25500 -5400 -303800 1464700 -25600 5300 303900zm-1822500 31900l-258900 4400 -5300 -301000 259000 -4600 5200 301200zm1408100 320500c69700,-1200 132400,12500 188300,40200 55900,28400 103400,70000 142700,125500 39500,55300 70300,123700 92600,204100 22300,81100 34300,174200 36200,278600 1700,97600 -3500,183900 -14900,259800 -12000,76300 -32200,141700 -61500,197700 -28800,55500 -67800,102200 -116900,139400 -48600,37200 -109600,65700 -183600,84700l-50000 -262900c48500,-12400 88000,-30800 117400,-55800 29900,-24400 52500,-54500 68500,-90200 15900,-35200 26600,-75600 31900,-120600 5000,-45700 7400,-95000 6400,-148600 -800,-53100 -5600,-102400 -14400,-147700 -8800,-44800 -22200,-84300 -40400,-117500 -18000,-33300 -41300,-59100 -69000,-77400 -28300,-18100 -62500,-27100 -103300,-26300 -42600,700 -77400,13700 -104000,38100 -26900,24900 -49100,58800 -66200,102200 -17400,43300 -31600,93900 -42400,151600 -11000,57500 -23100,119500 -35600,184800 -10700,64800 -25300,128300 -42600,189300 -17600,61700 -41200,117100 -71000,165600 -30500,48900 -68600,88300 -115400,118300 -46800,30400 -105800,46400 -176700,47600 -66800,1300 -126700,-11200 -180100,-37100 -54100,-25300 -99200,-63800 -137000,-115300 -37400,-51000 -66500,-115200 -87600,-191500 -21300,-76100 -32700,-164100 -34600,-264100 -1400,-82200 4000,-158500 16900,-228100 12600,-70200 33700,-131800 63100,-186000 29800,-53500 67900,-98400 115100,-134500 46700,-35900 103700,-61300 170000,-76300l40700 266900c-39500,8400 -72500,23400 -99200,44400 -26600,21400 -47300,48100 -62500,79100 -15100,31300 -25300,66500 -31300,105900 -5900,39300 -8500,80900 -7700,125000 1800,109200 20300,191600 55900,248100 35100,55800 83900,83200 145400,82100 38300,-700 68900,-11700 92800,-32700 23600,-21000 43100,-50100 58100,-87200 14900,-37200 27800,-81300 39200,-133300 11000,-51400 23300,-108100 37300,-170200 13500,-70600 29400,-139700 47600,-208500 18200,-68300 42700,-129600 73900,-183700 30800,-53700 70800,-97400 120400,-130900 49100,-33400 111700,-51300 187500,-52600zm-221000 4890800c-111600,2000 -215100,-9600 -309800,-34800 -95100,-24600 -176700,-63900 -245900,-116800 -68600,-53400 -122800,-120800 -162200,-202500 -39200,-82200 -60000,-179500 -61800,-291400 -2200,-120600 20700,-226300 68300,-317200 48200,-90500 118400,-162000 210800,-215300 -43600,1700 -76700,2800 -100300,3100 -23700,500 -48800,1400 -75800,2400 -27000,1000 -52900,1400 -79000,1800l-617300 10800 -5300 -305900 1755700 -30600c37300,-700 72900,-1300 106900,-2200 34100,-1200 65700,-2700 94100,-4100 28900,-1100 69700,-3600 122200,-7500l5000 291500c-42400,7400 -76500,12400 -102400,14800 -26100,1800 -53100,4200 -81900,6100 -28300,2000 -54400,2800 -77500,3300 97900,55300 171700,127800 220100,216400 49000,89200 74500,201200 76900,336600 1900,108600 -14900,202300 -51000,281500 -35500,79100 -86000,145100 -151800,198400 -65500,52900 -144300,92500 -235700,119000 -91400,26600 -192400,40700 -302300,42600zm-5500 -316800c174700,-3000 307600,-41200 398100,-113800 90600,-72800 135200,-180800 132700,-324900 -1100,-56000 -11500,-110400 -30900,-163600 -19400,-52800 -51000,-99600 -93800,-140100 -43300,-40400 -100300,-72400 -171200,-96600 -70500,-23700 -157900,-35100 -261500,-33200 -103200,1700 -189600,15800 -259200,40900 -69100,25600 -124900,59100 -165900,100500 -41400,41400 -70400,88900 -87000,142300 -16500,53900 -24600,109100 -23600,166000 2400,137400 50200,242800 143300,317000 93600,73400 233000,108700 419000,105500zm17400 -1855900c72400,-1300 138000,-10400 197800,-28300 59900,-17400 111400,-43600 154000,-79900 42900,-35600 75700,-81200 98900,-136100 23200,-54900 33800,-120800 32600,-197300 -900,-50800 -6100,-98100 -16200,-142400 -9800,-44400 -24800,-84400 -44400,-119900 -19500,-35600 -43200,-65900 -71100,-91300 -27400,-25300 -59500,-43800 -95700,-56600l49300 -272800c43800,17000 88300,42000 133800,75200 45100,33700 86500,77500 124000,131900 37900,54300 68900,121000 94000,198500 24900,77600 38400,169700 40200,276000 4200,244100 -56900,431400 -182400,562500 -126000,130400 -316600,198200 -573200,202800 -141900,2400 -262100,-17000 -359400,-57800 -97300,-40900 -175900,-95700 -235900,-164900 -59900,-69000 -102900,-148600 -129700,-239100 -26600,-90000 -40500,-183100 -42300,-279300 -2100,-127300 14900,-237200 51700,-329300 36700,-92100 89400,-168700 157900,-228700 68100,-60100 150200,-105200 246700,-134600 96100,-29900 202400,-45700 318900,-47600l30300 -600 20200 1159600zm-210600 -856200c-64700,6000 -122300,18500 -173100,38000 -51200,19600 -94300,46700 -129200,81800 -34900,34600 -61700,77300 -79800,127300 -18000,50500 -26400,109600 -25200,178100 900,53000 8500,105100 23100,156100 14100,50400 37600,96000 70000,136100 33000,40100 75600,72500 129600,97800 53500,25500 120000,39100 199600,41500l-15000 -856700zm-4788300 -3433200l800 386000 -567400 1200 1500 710700 567300 -1100 700 306600 438800 -1000 -700 -306600 824300 -1700c445800,-900 602500,-203200 601400,-722700 -300,-147800 -4000,-212900 -15100,-375200l-510100 1000c7200,47000 7300,101100 7400,147900 500,220100 -70900,238300 -252900,238700l-656500 1400 -700 -386000 -438800 800zm-696000 1642900l1500 714200 2540300 -5200 -1500 -714300 -2540300 5300zm701600 1116700l1400 714300 934800 -2000c189100,-400 374800,24600 375300,262600 300,166100 -99400,242000 -249300,242300l-1059700 2100 1500 721500 1138100 -2300c456700,-1000 756000,-189200 755000,-679700 -400,-238200 -90100,-443600 -290200,-569400l235600 -500 -1500 -692600 -1841000 3700zm1107100 2234400l1300 681800c182000,28500 271500,122100 271900,284400 400,202100 -149300,310500 -434700,311100 -314000,700 -481900,-107100 -482300,-312800 -300,-140700 92200,-245500 238500,-267400l-1400 -681900c-442400,37000 -737800,420000 -736700,957500 1300,609700 394700,1020100 979700,1018900 567300,-1100 951900,-416800 950600,-1019200 -1100,-544800 -290900,-904900 -786900,-972400zm1192600 3911600l-3700 -1803700 -178500 400 3700 1803600 178500 -300zm-2394200 1693100l-900 -389600c-400,-241600 84900,-364500 256200,-364900 199700,-400 264300,140300 264700,320600l900 432800 -520900 1100zm-587100 780400l2540300 -5200 -1600 -779200 -895600 1900 -600 -331900c-800,-368000 220400,-415300 512900,-437500l142600 -11100c78500,-7400 167700,-14800 239000,-47500l-1600 -779100c-74800,50600 -185500,58100 -274500,65500l-267700 25700c-224600,22200 -563400,116600 -627100,376600 -103900,-230700 -346900,-378100 -621600,-377700 -588700,1300 -748200,517400 -747400,917900l2900 1381600zm800 404100l4300 2128300 2540400 -5200 -4400 -2164400 -645800 1300 2800 1388900 -371100 700 -2500 -1226500 -588700 1200 2500 1226500 -317600 700 -2700 -1352700 -617200 1200zm775800 2520000c-524400,8200 -823300,387600 -822000,1044200 1200,620400 319600,1038300 797700,1037200 435300,-800 577500,-268000 701700,-636200 60200,-177000 166300,-620900 251700,-725700 28500,-32600 60600,-50600 103400,-50600 128400,-300 210800,122100 211200,320600 500,230900 -81300,386100 -327400,401000l1500 790000c567300,-8300 912600,-449200 911000,-1167000 -1300,-685400 -337500,-1121200 -865700,-1120100 -528000,1100 -691200,456000 -801000,885400 -28200,108300 -88000,548600 -245000,548900 -99800,100 -157200,-93500 -157500,-259400 -400,-202000 88500,-324900 241900,-328800l-1500 -739500zm870100 3288200l1000 483300c-257100,-86000 -431900,-139700 -431900,-139700 -157100,-50200 -214200,-64600 -389200,-107500 167700,-36400 210500,-43700 385200,-98100 0,0 288800,-90900 434900,-138000zm-1634300 -148200l1600 779100 2542300 943600 -1700 -797200 -360600 -125500 -1700 -826100 360100 -127100 -1600 -797200 -2538400 950400zm1880400 1821400l2400 1140000 -1876800 3900 1600 790000 2540400 -5200 -4000 -1930100 -663600 1400z"/>
   <path class="fil0 str0" d="M55382700 47984000c869000,9659600 8534900,15972400 17072800,15972400 8537900,0 14827500,-5576700 16643300,-13084400 433700,113600 2181200,565900 2462200,648500 904200,-2163700 1243600,-3020600 433800,-3103800l-106500 347400 -2367600 -752200 -2362300 1600 0 -2332400 2364500 -2100 2369500 -575200 -376400 -2630400 -2411000 345000c-1806700,-7520400 -8107100,-13109700 -16649500,-13109700 -8542400,0 -16394800,6663700 -17072800,15972400l2369900 0 0 2302900 -2369900 0z"/>
  </g>
  <g id="_2401494682080">
   <path class="fil0 str0" d="M55257900 82372100c678100,-8836400 8594100,-15854300 17131900,-15854300 8537900,0 14794500,5878800 16672800,13261500 433800,-113600 2269800,-565900 2550800,-648500 904200,2163700 1125500,2932000 315700,3015200l-106500 -347300 -2367600 575000 -2362300 27900 0 2332400 2364600 2100 2369400 545700 -376300 2305600 -2322500 -345000c-1806700,7520500 -8195600,13493500 -16738100,13493500 -8542400,0 -16393000,-6167400 -17102300,-15972400l2369900 0 0 -2391400 -2399500 0z"/>
   <path class="fil0 str1" d="M63644100 84580500c241500,1350400 434800,2226300 1159600,3435100 417200,695600 1182100,1686800 1815200,2191900 100400,80100 205600,169300 299100,247500 1753300,1464700 4808900,2339900 7097600,1775400l792400 -161200c48500,-34400 581000,-189300 706000,-238800 241100,-95600 450800,-181600 680200,-291400l763300 -377400 -4800 -23800c283900,-153200 513300,-350900 769900,-484500 39500,-88700 384200,-319900 453800,-386100 638900,-606500 582300,-467500 1249600,-1313600 506000,-655200 1269400,-1897300 1488100,-2927800 238500,-487100 366800,-1882800 365500,-2514000 -1000,-480000 -37000,-873700 -103200,-1341900 -62300,-440600 -184700,-806100 -264500,-1218700 -43800,-70300 -215500,-601400 -286200,-779500 -111300,-280400 -240600,-516200 -358600,-770100 -121600,-261700 -453600,-781400 -625100,-1014900 -84300,-114800 -197800,-226400 -242700,-358800 -130900,-68000 -134900,-136600 -240100,-252900l-482600 -535800c-53400,-51200 -81900,-73500 -134400,-121600l-107300 -131600c-130600,-65700 -484000,-392700 -706800,-548000 -252100,-175600 -440500,-323100 -716200,-485900 -1913200,-1129500 -3580600,-1398600 -5876000,-1179600 -206000,44400 -465200,124800 -650500,98200 -107300,71300 -125800,52100 -373700,120000 -125000,34300 -248300,66900 -366100,106300 -1043200,349300 -1634900,665300 -2516500,1273000 -370300,255300 -703000,563100 -1018100,875500 -149100,147700 -322700,316600 -459800,488600 -714600,897000 -905600,1113600 -1459600,2326300 -365800,800400 -672000,2057200 -700000,3050800l-1600 728600 54100 740700z"/>
   <path class="fil1" d="M67973100 85567700c-91700,-276100 459300,-1071000 606100,-1324800l3216100 -5565100c199900,-216000 520400,-159500 659500,46800l1422300 2476300c219700,403300 481300,830100 722900,1243800l1420900 2478500c112200,189600 311700,430700 198200,688600 -124300,282200 -391400,239200 -718700,238600l-6849300 200c-354800,1400 -576700,22600 -678000,-282900z"/>
  </g>
  <polygon class="fil0 str0" points="63660400,110815500 84327000,110815500 84327000,113256300 63660400,113256300 "/>
  <polygon class="fil0 str0" points="63671200,107795700 84337900,107795700 84337900,110236600 63671200,110236600 "/>
  <g>
   <path class="fil3" d="M61690200 128744900l1469800 -629900 0 0 -19000 39400 -17900 39300 -16500 39400 -15500 39300 -14100 39400 -12900 39400 -11700 39300 -10400 39400 -9300 39400 -8000 39300 -6800 39400 -5500 39400 -4300 39400 -3100 39300 -1800 39400 -600 39400 600 39400 1800 39300 3100 39400 4300 39400 5500 39400 6800 39300 8000 39400 9300 39300 10400 39400 11700 39400 12900 39300 14100 39400 15500 39400 16500 39300 17900 39400 19000 39400 -1469800 -629900zm24383200 59000l-23644500 0 0 -118100 23644500 0 0 118100zm738700 -59000l-1469800 629900 19100 -39400 17800 -39300 16600 -39400 15400 -39400 14100 -39400 12900 -39300 11700 -39400 10500 -39400 9300 -39300 7900 -39400 6800 -39300 5500 -39400 4300 -39400 3100 -39300 1900 -39400 600 -39400 -600 -39400 -1900 -39400 -3100 -39300 -4300 -39400 -5500 -39400 -6800 -39400 -7900 -39300 -9300 -39400 -10500 -39400 -11700 -39300 -12900 -39400 -14100 -39400 -15400 -39300 -16600 -39400 -17800 -39300 -19100 -39400 0 0 1469800 629900z"/>
  </g>
  <g transform="matrix(0.971363 0 0 1 4.20362E+06 3.98504E+07)">
   <text x="62000000" y="87685700"  class="fil4 fnt0">Волокна!</text>
  </g>
  <rect class="fil0 str0" x="26615200" y="27636700" width="68496400" height="119875800" rx="2499700" ry="2499700"/>
  <rect class="fil5" x="-43208600" y="103131100" width="59047600" height="5904800"/>
 </g>
</svg>
