<?xml version="1.0" encoding="UTF-8"?>
<!DOCTYPE svg PUBLIC "-//W3C//DTD SVG 1.1//EN" "http://www.w3.org/Graphics/SVG/1.1/DTD/svg11.dtd">
<!-- Creator: CorelDRAW Standard 2024 -->
<svg xmlns="http://www.w3.org/2000/svg" xml:space="preserve" width="9744px" height="8563px" version="1.1" style="shape-rendering:geometricPrecision; text-rendering:geometricPrecision; image-rendering:optimizeQuality; fill-rule:evenodd; clip-rule:evenodd"
viewBox="0 0 974400000 856290900"
 xmlns:xlink="http://www.w3.org/1999/xlink"
 xmlns:xodm="http://www.corel.com/coreldraw/odm/2003">
 <defs>
  <style type="text/css">
   <![CDATA[
    .str4 {stroke:#3374A9;stroke-width:45000;stroke-miterlimit:2.61313}
    .str2 {stroke:black;stroke-width:45000;stroke-miterlimit:2.61313}
    .str1 {stroke:blue;stroke-width:45000;stroke-miterlimit:2.61313}
    .str0 {stroke:#1A1A1A;stroke-width:45000;stroke-miterlimit:2.61313}
    .str3 {stroke:yellow;stroke-width:45000;stroke-miterlimit:2.61313}
    .fil0 {fill:none}
    .fil1 {fill:#373435}
    .fil3 {fill:black}
    .fil2 {fill:#3374A9;fill-rule:nonzero}
    .fnt1 {font-weight:normal;font-size:18505800px;font-family:'Arial'}
    .fnt0 {font-weight:normal;font-size:24775300px;font-family:'Arial'}
   ]]>
  </style>
 </defs>
 <g id="Camada_x0020_1">
  <metadata id="CorelCorpID_0Corel-Layer"/>
  <path class="fil0 str0" d="M922557000 753809000l-1771700 0 0 -11350300 1771700 0 0 11350300zm0 -22700600l-1771700 0 0 -11350200 1771700 0 0 11350200zm-122242900 22700600l-1771700 0 0 -11350300 1771700 0 0 11350300zm0 -22700600l-1771700 0 0 -11350200 1771700 0 0 11350200zm128148300 37074500l-135825400 0 0 -70865500 135825400 0 0 70865500z"/>
  <path class="fil0 str0" d="M324183100 421377800l-1771700 0 0 1771600 1771700 0 0 40747700 76770900 0 0 -40747700 1771600 0 0 -1771600 -1771600 0 -76770900 0zm36613800 9744000l-33070600 0 0 -6200700 33070600 0 0 6200700zm-33070600 3543300l33070600 0 0 6200700 -33070600 0 0 -6200700zm33070600 15944700l-33070600 0 0 -6200700 33070600 0 0 6200700zm-33070600 3543300l33070600 0 0 6200700 -33070600 0 0 -6200700zm69684400 -13287300l-33070600 0 0 -15944700 33070600 0 0 15944700zm-33070600 3543300l33070600 0 0 15944700 -33070600 0 0 -15944700z"/>
  <polygon class="fil0 str0" points="692725600,209974300 769791800,209974300 769791800,212927100 690068200,212927100 690068200,163911800 769791800,163811400 769791800,166864500 692725600,166864500 "/>
  <polygon class="fil0 str0" points="698654600,177630200 698654600,173791600 778378200,173791600 778378200,222806900 698654600,222907300 698654600,218968300 774835000,218968300 774835000,177630200 "/>
  <path class="fil0 str0" d="M567415700 453187200l0 -47438500 -1771700 0 0 -49216000 1771700 0 0 -47438600 31298900 0 0 -1771600 2952700 0 34251700 0 0 1771600 34251600 0 0 23816700 1771600 0 0 23621900 -1771600 0 0 3053100 -78542600 0 0 2362200 1771700 0 0 40747600 76770900 0 0 3053100 1771600 0 0 23621800 -1771600 0 0 23816700 -34251600 0 0 1771700 -34251700 0 0 -1771700 -34251600 0zm79133100 -132282100l0 -1771700 11810900 0 0 1771700 -11810900 0zm-55092000 0l0 -1771700 21637600 0 0 1771700 -21637600 0zm0 122242900l0 -1771700 21637600 0 0 1771700 -21637600 0zm55092000 0l0 -1771700 11810900 0 0 1771700 -11810900 0z"/>
  <path class="fil0 str0" d="M465431700 613107200l0 -2338500 2362200 0 0 2338500 -2362200 0zm46163000 -283400l0 -1771700 23621800 0 0 1771700 -23621800 0zm35633500 -21649400l0 -21655300 1771600 0 0 21655300 -1771600 0zm-47834200 -41538900l0 -1771700 24802900 0 0 1771700 -24802900 0zm-49605800 0l0 -1771700 24802900 0 0 1771700 -24802900 0zm-24802900 41538900l0 -21655300 1771600 0 0 21655300 -1771600 0zm-10021600 109906400l0 61741500 47438500 0 0 1771700 49216100 0 0 -1771700 47438500 0 0 -61741500 1771600 0 0 -26515500 -1771600 0 0 -79564100 1771600 0 0 -26521400 -1771600 0 0 -28293100 -47438500 0 0 1771700 -49216100 0 0 -1771700 -47438500 0 0 28293100 -1771600 0 0 26521400 1771600 0 0 79564100 -1771600 0 0 26515500 1771600 0zm13877800 27779300l0 -4133900 1771700 0 0 4133900 -1771700 0zm-2066900 -50485800l-8858200 0 0 41627600 26574600 0 0 -8326700 1771600 0 0 -8326700 -1771600 0 0 -8320800 1771600 0 0 -8326700 -1771600 0 0 -8326700 -8858200 0 0 -1771600 -8858200 0 0 1771600zm11982200 -65550500l0 -1771700 23621800 0 0 1771700 -23621800 0z"/>
  <path class="fil0 str0" d="M549302200 501906800l-1771600 0 0 11810900 1771600 0 0 -11810900zm0 -55092000l-1771600 0 0 21637600 1771600 0 0 -21637600zm-122242900 0l-1771600 0 0 21637600 1771600 0 0 -21637600zm0 55092000l-1771600 0 0 11810900 1771600 0 0 -11810900zm84843700 -80904700l-49216100 0 0 1771600 49216100 0 0 -1771600zm-37206700 -72046500l0 41338100 -19881300 0 0 -41338100 19881300 0zm3543200 41338100l0 -41338100 18110900 0 0 41338100 -18110900 0zm21654200 0l0 -41338100 19881300 0 0 41338100 -19881300 0zm59447800 -72046500l-47438500 0 0 -1771600 -49216100 0 0 1771600 -47438500 0 0 34251600 -1771600 0 0 34251700 1771600 0 0 70274800 -1771600 0 0 34251600 1771600 0 0 34251700 23816700 0 0 1771600 23621800 0 0 -1771600 3053200 0 0 -78542600 2362100 0 0 1771700 40747700 0 0 76770900 3053100 0 0 1771600 23621800 0 0 -1771600 23816700 0 0 -34251700 1771600 0 0 -34251600 -1771600 0 0 -70274800 1771600 0 0 -34251700 -1771600 0 0 -34251600z"/>
  <path class="fil0 str0" d="M218162700 571539500l0 -9448700 9153500 0 0 9448700 -9153500 0zm0 -11810900l0 -10039300 9153500 0 0 10039300 -9153500 0zm11515700 11810900l0 -9448700 9153400 0 0 9448700 -9153400 0zm0 -11810900l0 -10039300 9153400 0 0 10039300 -9153400 0zm-5610200 16535300l0 -1771700 -8858200 0 0 -29527200 8858200 0 0 -1771700 8858200 0 0 1771700 8858100 0 0 11810900 1771700 0 0 8858200 -1771700 0 0 8858100 -8858100 0 0 1771700 -8858200 0z"/>
  <path class="fil0 str0" d="M217878100 521094100l0 -9448700 9153400 0 0 9448700 -9153400 0zm0 -11810900l0 -10039300 9153400 0 0 10039300 -9153400 0zm11515600 11810900l0 -9448700 9153500 0 0 9448700 -9153500 0zm0 -11810900l0 -10039300 9153500 0 0 10039300 -9153500 0zm-5610200 16535300l0 -1771700 -8858100 0 0 -29527200 8858100 0 0 -1771700 8858200 0 0 1771700 8858200 0 0 11810900 1771600 0 0 8858200 -1771600 0 0 8858100 -8858200 0 0 1771700 -8858200 0z"/>
  <path class="fil0 str0" d="M848262000 564495100l-41627500 0 -1771700 0 0 -8858200 1771700 0 0 -8858200 -1771700 0 0 -8858200 1771700 0 8326700 0 0 -1771600 8326700 0 0 1771600 8326700 0 0 -1771600 8320700 0 0 1771600 8326700 0 0 26574600zm-2952700 -2952800l-10127900 0 0 -9159300 10127900 0 0 9159300zm-12490000 0l-10742100 0 0 -9159300 10742100 0 0 9159300zm-13104200 0l-10127900 0 0 -9159300 10127900 0 0 9159300zm25594200 -11515600l-10127900 0 0 -9153400 10127900 0 0 9153400zm-12490000 0l-10742100 0 0 -9153400 10742100 0 0 9153400zm-13104200 0l-10127900 0 0 -9153400 10127900 0 0 9153400z"/>
  <path class="fil0 str0" d="M916312200 560469800l-41627600 0 -1771600 0 0 8858200 1771600 0 0 8858200 -1771600 0 0 8858100 1771600 0 8326700 0 0 1771700 8326700 0 0 -1771700 8326700 0 0 1771700 8320800 0 0 -1771700 8326700 0 0 -26574500zm-2952700 2952700l-10127900 0 0 9159400 10127900 0 0 -9159400zm-12490100 0l-10742000 0 0 9159400 10742000 0 0 -9159400zm-13104200 0l-10127800 0 0 9159400 10127800 0 0 -9159400zm25594300 11515700l-10127900 0 0 9153400 10127900 0 0 -9153400zm-12490100 0l-10742000 0 0 9153400 10742000 0 0 -9153400zm-13104200 0l-10127800 0 0 9153400 10127800 0 0 -9153400z"/>
  <polygon class="fil0 str0" points="53397400,142640900 54762500,143770200 182796200,143722200 187346500,147486500 184711500,150671600 183346400,149542300 180335000,153182500 174419700,148289000 171125900,152270400 169760900,151141100 168537500,152620000 163304700,148291000 160010900,152272500 158645900,151143200 157422500,152622000 152189800,148293100 148896000,152274600 147531000,151145300 146307500,152624100 141074800,148295200 137781000,152276600 136415900,151147300 135192600,152626200 129959800,148297200 126666000,152278700 125301000,151149500 124077600,152628200 118844900,148299300 115551100,152280800 114186000,151151500 112962600,152630300 107729800,148301400 104436100,152282800 103075600,151157400 101852200,152636200 96614900,148303500 93321200,152285000 91956100,151155700 90732700,152634500 85499900,148305600 82206200,152287000 80841100,151157700 79617800,152636600 74385000,148307600 71091200,152289100 69726200,151159800 68502700,152638600 63270000,148309700 59976300,152291200 58611200,151161900 57387800,152640700 51472500,147747100 53117500,145758700 51752400,144629400 "/>
  <path class="fil0 str0" d="M324183100 514570200l-1771700 0 0 -1771600 1771700 0 0 -40747700 76770900 0 0 40747700 1771600 0 0 1771600 -1771600 0 -76770900 0zm36613800 -9744000l-33070600 0 0 6200700 33070600 0 0 -6200700zm-33070600 -3543300l33070600 0 0 -6200700 -33070600 0 0 6200700zm33070600 -15944700l-33070600 0 0 6200700 33070600 0 0 -6200700zm-33070600 -3543300l33070600 0 0 -6200700 -33070600 0 0 6200700zm69684400 13287300l-33070600 0 0 15944700 33070600 0 0 -15944700zm-33070600 -3543300l33070600 0 0 -15944700 -33070600 0 0 15944700z"/>
  <polygon class="fil0 str0" points="242814900,329209500 242814900,406275700 239862200,406275700 239862200,326552000 288877500,326552000 288977900,406275700 285924700,406275700 285924700,329209500 "/>
  <polygon class="fil0 str0" points="264420100,358729700 268258600,358729700 268258600,438453200 219243400,438453200 219143000,358729700 223081900,358729700 223081900,434910000 264420100,434910000 "/>
  <path class="fil0 str0" d="M637181400 757538100l0 -16334500 13582600 0 0 16334500 -13582600 0zm0 -18696600l0 -16340400 13582600 0 0 16340400 -13582600 0zm0 -18702600l0 -16340400 13582600 0 0 16340400 -13582600 0zm15944700 37399200l0 -16334500 13582600 0 0 16334500 -13582600 0zm0 -18696600l0 -16340400 13582600 0 0 16340400 -13582600 0zm0 -18702600l0 -16340400 13582600 0 0 16340400 -13582600 0zm-69070100 37399200l-11421200 -53739600 61593900 0 0 53739600 -50172700 0zm73794500 4724400l11810900 0 0 -21649400 1771700 -1083700 0 -19488000 -1771700 -1083600 0 -19883700 -11810900 0 0 -1771600 -11810900 0 0 1771600 -33454400 0 0 -1771600 -21643500 0 0 1771600 -22263600 0 2982300 14055000 -1730300 372100 2362200 11102200 1730300 -372000 2362200 11102200 -1736200 372100 2362100 11102200 1730300 -372000 3366200 15826600 17373800 0 0 -1771600 17373800 0 0 1771600 29184800 0 0 -1771600 11810900 0 0 1771600z"/>
  <path class="fil0 str0" d="M916136400 364530400l-114565700 0 0 -49759400 114565700 0 0 49759400zm0 -52712100l-18897400 0 0 -13582600 18897400 0 0 13582600zm-21259500 0l-22440800 0 0 -13582600 22440800 0 0 13582600zm-24803000 0l-22440700 0 0 -13582600 22440700 0 0 13582600zm-24802900 0l-22440700 0 0 -13582600 22440700 0 0 13582600zm-24802900 0l-18897400 0 0 -13582600 18897400 0 0 13582600zm95668300 -15944800l-18897400 0 0 -13582500 18897400 0 0 13582500zm-21259500 0l-22440800 0 0 -13582500 22440800 0 0 13582500zm-24803000 0l-22440700 0 0 -13582500 22440700 0 0 13582500zm-24802900 0l-22440700 0 0 -13582500 22440700 0 0 13582500zm-24802900 0l-18897400 0 0 -13582500 18897400 0 0 13582500zm-23621800 53645200l1771600 0 0 17373800 120471300 0 0 -17373800 1771600 0 0 -17373800 -1771600 0 0 -29184800 1771600 0 0 -11810900 -1771600 0 0 -11810900 -23031300 0 0 -1771700 -24802900 0 0 1771700 -24802900 0 0 -1771700 -24802900 0 0 1771700 -23031300 0 0 11810900 -1771600 0 0 11810900 1771600 0 0 29184800 -1771600 0 0 17373800z"/>
  <path class="fil0 str0" d="M203849100 592437400l0 -114565800 49759300 0 0 114565800 -49759300 0zm52712100 0l0 -18897400 13582500 0 0 18897400 -13582500 0zm0 -21259600l0 -22440700 13582500 0 0 22440700 -13582500 0zm0 -24802900l0 -22440700 13582500 0 0 22440700 -13582500 0zm0 -24802900l0 -22440700 13582500 0 0 22440700 -13582500 0zm0 -24802900l0 -18897500 13582500 0 0 18897500 -13582500 0zm15944700 95668300l0 -18897400 13582500 0 0 18897400 -13582500 0zm0 -21259600l0 -22440700 13582500 0 0 22440700 -13582500 0zm0 -24802900l0 -22440700 13582500 0 0 22440700 -13582500 0zm0 -24802900l0 -22440700 13582500 0 0 22440700 -13582500 0zm0 -24802900l0 -18897500 13582500 0 0 18897500 -13582500 0zm-53645100 -23621800l0 1771600 -17373800 0 0 120471300 17373800 0 0 1771600 17373900 0 0 -1771600 29184700 0 0 1771600 11810900 0 0 -1771600 11810900 0 0 -23031300 1771600 0 0 -24802900 -1771600 0 0 -24802900 1771600 0 0 -24802900 -1771600 0 0 -23031300 -11810900 0 0 -1771600 -11810900 0 0 1771600 -29184700 0 0 -1771600 -17373900 0z"/>
  <path class="fil0 str0" d="M922557000 676943200l-1771700 0 0 -11350300 1771700 0 0 11350300zm0 -22700600l-1771700 0 0 -11350300 1771700 0 0 11350300zm-122242900 22700600l-1771700 0 0 -11350300 1771700 0 0 11350300zm0 -22700600l-1771700 0 0 -11350300 1771700 0 0 11350300zm128148300 37074500l-135825400 0 0 -70865500 135825400 0 0 70865500z"/>
  <path class="fil0 str0" d="M367879200 164791100l0 -1771700 2852300 0 0 1771700 -2852300 0zm3950700 18413200l0 -2557100 1771700 0 0 2557100 -1771700 0zm8562900 7086500l0 -2557000 1771700 0 0 2557000 -1771700 0zm8562900 7086600l0 -2557100 1771700 0 0 2557100 -1771700 0zm8562900 7086500l0 -2557100 1771700 0 0 2557100 -1771700 0zm-197832700 88770800l0 -47438500 -1771600 0 0 -49216100 1771600 0 0 -47438500 34251700 0 0 -1771600 34251600 0 0 1771600 70274900 0 0 -1771600 34251600 0 0 1771600 34251700 0 1771600 0 0 47438500 -1771600 0 0 49216100 1771600 0 0 47438500 -1771600 0 -34251700 0 0 1771600 -34251600 0 0 -1771600 -70274900 0 0 1771600 -34251600 0 0 -1771600 -34251700 0zm176573100 -59447900l-41338200 0 0 19881400 41338200 0 0 -19881400zm0 -21654100l-41338200 0 0 18110900 41338200 0 0 -18110900zm-41338200 -3543200l41338200 0 0 -19881300 -41338200 0 0 19881300zm-63188300 25197300l-41338200 0 0 19881400 41338200 0 0 -19881400zm0 -21654100l-41338200 0 0 18110900 41338200 0 0 -18110900zm-41338200 -3543200l41338200 0 0 -19881300 -41338200 0 0 19881300zm72046500 37206700l0 -49216100 1771700 0 0 49216100 -1771700 0z"/>
  <polygon class="fil0 str0" points="384964100,411471000 390840000,411471000 390840000,409699400 402668700,409699400 402668700,395821600 400737600,395821600 400737600,394050000 402668700,394050000 402668700,385924100 388790900,385924100 388790900,387843300 387019200,387843300 387019200,385924100 373141400,385924100 373141400,409699400 384964100,409699400 "/>
  <polygon class="fil0 str0" points="329740400,408521700 335645900,408521700 400889400,354498600 400889400,340030200 396613800,340030200 396613800,338258600 400889400,338258600 400889400,324380800 398037000,324380800 398037000,322609100 395184700,322609100 395184700,324380800 392332400,324380800 392332400,351977000 390566600,351977000 390566600,357144200 383775400,357144200 383775400,359063500 382003700,359063500 382003700,364230800 375212400,364230800 375212400,366150100 373440800,366150100 373440800,371317300 366649500,371317300 366649500,373236600 364877900,373236600 364877900,378403900 358086600,378403900 358086600,380323100 356315000,380323100 356315000,385490400 349523700,385490400 349523700,387409700 347752100,387409700 347752100,392577000 340960800,392577000 340960800,394496200 339189200,394496200 339189200,399663500 331512100,399663500 331512100,404387900 329740400,404387900 "/>
  <polygon class="fil0 str0" points="591855300,604851500 605733200,604851500 605733200,597174400 576205900,597174400 576205900,599737400 574434300,599737400 574434300,602294500 576205900,602294500 576205900,604851500 590083700,604851500 590083700,602932300 591855300,602932300 "/>
  <polygon class="fil0 str0" points="650354800,606101500 664232700,606101500 664232700,598424400 634705400,598424400 634705400,600987400 632933700,600987400 632933700,603544400 634705400,603544400 634705400,606101500 648583200,606101500 648583200,604182200 650354800,604182200 "/>
  <path class="fil0 str0" d="M57807600 440522000l0 -21655300 1771600 0 0 21655300 -1771600 0zm24802900 21655300l0 -1771600 24802900 0 0 1771600 -24802900 0zm49605800 0l0 -1771600 24802900 0 0 1771600 -24802900 0zm12194800 -63188300l0 -1771600 23621800 0 0 1771600 -23621800 0zm-82764900 -138488800l0 -4133800 1771600 0 0 4133800 -1771600 0zm0 21106100l0 -2580700 1771600 0 0 2580700 -1771600 0zm118404300 158915700l0 -21655300 1771700 0 0 21655300 -1771700 0zm-108465500 -41533000l0 -1771600 23615900 0 0 1771600 -23615900 0zm26669100 295300l0 -2362200 2362100 0 0 2362200 -2362100 0zm-47533000 -147642300l0 -41627500 8858100 0 0 -1771600 8858200 0 0 1771600 8858200 0 0 8326700 1771600 0 0 8326700 -1771600 0 0 8320800 1771600 0 0 8326700 -1771600 0 0 8326600 -26574500 0zm-4724400 163398000l0 26521400 1771600 0 0 28293000 47438600 0 0 -1771600 49216000 0 0 1771600 47438500 0 0 -28293000 1771700 0 0 -26521400 -1771700 0 0 -79564100 1771700 0 0 -26515500 -1771700 0 0 -79564200 1771700 0 0 -26521400 -1771700 0 0 -26521400 -47438500 0 0 -1771600 -49216000 0 0 1771600 -47438600 0 0 8592400 -1771600 0 0 17716400 1771600 0 0 106298200 -1771600 0 0 26515500 1771600 0 0 79564100 -1771600 0z"/>
  <polygon class="fil0 str0" points="591911600,481381200 605789400,481381200 605789400,473704100 576262100,473704100 576262100,476267100 574490500,476267100 574490500,478824200 576262100,478824200 576262100,481381200 590139900,481381200 590139900,479462000 591911600,479462000 "/>
  <polygon class="fil0 str0" points="650018700,526444200 663896500,526444200 663896500,518767100 634369200,518767100 634369200,521330000 632597600,521330000 632597600,523887100 634369200,523887100 634369200,526444200 648247100,526444200 648247100,524524900 650018700,524524900 "/>
  <polygon class="fil0 str0" points="709153400,363389400 709153400,377267200 716830500,377267200 716830500,347740000 714267600,347740000 714267600,345968300 711710500,345968300 711710500,347740000 709153400,347740000 709153400,361617800 711072700,361617800 711072700,363389400 "/>
  <polygon class="fil0 str0" points="709549700,417654500 709549700,431532300 717226800,431532300 717226800,402005000 714663800,402005000 714663800,400233400 712106800,400233400 712106800,402005000 709549700,402005000 709549700,415882800 711469000,415882800 711469000,417654500 "/>
  <polygon class="fil0 str0" points="754425700,253878700 754425700,267756500 762102800,267756500 762102800,238229200 759539800,238229200 759539800,236457600 756982800,236457600 756982800,238229200 754425700,238229200 754425700,252107000 756345000,252107000 756345000,253878700 "/>
  <polygon class="fil0 str0" points="709462700,308710900 709462700,322588800 717139800,322588800 717139800,293061500 714576800,293061500 714576800,291289900 712019800,291289900 712019800,293061500 709462700,293061500 709462700,306939300 711382000,306939300 711382000,308710900 "/>
  <polygon class="fil0 str0" points="591855400,559601900 605733200,559601900 605733200,551924800 576205900,551924800 576205900,554487800 574434300,554487800 574434300,557044900 576205900,557044900 576205900,559601900 590083800,559601900 590083800,557682700 591855400,557682700 "/>
  <polygon class="fil0 str0" points="591661600,526380800 605539400,526380800 605539400,518703700 576012100,518703700 576012100,521266700 574240500,521266700 574240500,523823700 576012100,523823700 576012100,526380800 589889900,526380800 589889900,524461500 591661600,524461500 "/>
  <polygon class="fil0 str0" points="753903000,363389400 753903000,377267200 761580100,377267200 761580100,347740000 759017100,347740000 759017100,345968300 756460100,345968300 756460100,347740000 753903000,347740000 753903000,361617800 755822300,361617800 755822300,363389400 "/>
  <polygon class="fil0 str0" points="650354800,560601900 664232700,560601900 664232700,552924800 634705400,552924800 634705400,555487800 632933700,555487800 632933700,558044800 634705400,558044800 634705400,560601900 648583200,560601900 648583200,558682600 650354800,558682600 "/>
  <polygon class="fil0 str0" points="610008000,724961600 623885800,724961600 623885800,717284500 594358500,717284500 594358500,719847400 592586900,719847400 592586900,722404500 594358500,722404500 594358500,724961600 608236400,724961600 608236400,723042300 610008000,723042300 "/>
  <polygon class="fil0 str0" points="610760900,672876800 624638800,672876800 624638800,665199700 595111500,665199700 595111500,667762600 593339900,667762600 593339900,670319700 595111500,670319700 595111500,672876800 608989300,672876800 608989300,670957500 610760900,670957500 "/>
  <polygon class="fil0 str0" points="611137400,651199700 625015200,651199700 625015200,643522600 595488000,643522600 595488000,646085500 593716300,646085500 593716300,648642600 595488000,648642600 595488000,651199700 609365800,651199700 609365800,649280400 611137400,649280400 "/>
  <polygon class="fil0 str0" points="336700800,331340300 350578600,331340300 350578600,323663300 321051300,323663300 321051300,326226200 319279700,326226200 319279700,328783300 321051300,328783300 321051300,331340300 334929200,331340300 334929200,329421100 336700800,329421100 "/>
  <polygon class="fil0 str0" points="610384500,746982500 624262300,746982500 624262300,739305400 594735000,739305400 594735000,741868400 592963400,741868400 592963400,744425500 594735000,744425500 594735000,746982500 608612800,746982500 608612800,745063300 610384500,745063300 "/>
  <polygon class="fil0 str0" points="709926100,253628800 709926100,267506600 717603200,267506600 717603200,237979300 715040200,237979300 715040200,236207700 712483200,236207700 712483200,237979300 709926100,237979300 709926100,251857100 711845400,251857100 711845400,253628800 "/>
  <polygon class="fil0 str0" points="649768700,481444500 663646500,481444500 663646500,473767500 634119300,473767500 634119300,476330400 632347600,476330400 632347600,478887500 634119300,478887500 634119300,481444500 647997100,481444500 647997100,479525300 649768700,479525300 "/>
  <polygon class="fil0 str0" points="754299300,417904500 754299300,431782300 761976400,431782300 761976400,402255000 759413400,402255000 759413400,400483400 756856300,400483400 756856300,402255000 754299300,402255000 754299300,416132800 756218600,416132800 756218600,417904500 "/>
  <polygon class="fil0 str0" points="754212300,308711000 754212300,322588800 761889400,322588800 761889400,293061500 759326400,293061500 759326400,291289900 756769400,291289900 756769400,293061500 754212300,293061500 754212300,306939400 756131600,306939400 756131600,308711000 "/>
  <polygon class="fil0 str0" points="338437800,382175600 338437800,360933700 371815400,333296200 373587000,333296200 373587000,330715500 371815400,330715500 371815400,328128900 364138300,328128900 364138300,330048200 362366700,330048200 362366700,335215500 355575400,335215500 355575400,337134700 353803800,337134700 353803800,342302000 347012500,342302000 347012500,344221300 345240800,344221300 345240800,349388500 338449600,349388500 338449600,351307800 336677900,351307800 336677900,356475100 329886700,356475100 329886700,358394400 328115000,358394400 328115000,360313600 329886700,360313600 329886700,366526200 334162200,366526200 334162200,368297800 329886700,368297800 329886700,382175600 332739000,382175600 332739000,383947300 335585400,383947300 335585400,382175600 "/>
  <path class="fil0 str0" d="M747900500 286770100l0 41338100 19881300 0 0 -41338100 -19881300 0zm-3543200 41338100l0 -41338100 -18110900 0 0 41338100 18110900 0zm-21654200 0l0 -41338100 -19881300 0 0 41338100 19881300 0zm22244700 -44290900l25786800 0 0 47243700 -70865500 0 0 -47243700 45078700 0z"/>
  <path class="fil0 str0" d="M748114000 231687800l0 41338100 19881300 0 0 -41338100 -19881300 0zm-3543300 41338100l0 -41338100 -18110900 0 0 41338100 18110900 0zm-21654100 0l0 -41338100 -19881300 0 0 41338100 19881300 0zm22244600 -44290900l25786800 0 0 47243700 -70865500 0 0 -47243700 45078700 0z"/>
  <path class="fil0 str0" d="M569664500 566163700l41338200 0 0 -19881300 -41338200 0 0 19881300zm41338200 3543200l-41338200 0 0 18110900 41338200 0 0 -18110900zm0 21654200l-41338200 0 0 19881300 41338200 0 0 -19881300zm-44290900 -22244700l0 -25786800 47243600 0 0 70865500 -47243600 0 0 -45078700z"/>
  <path class="fil0 str0" d="M747932000 395463500l0 41338200 19881300 0 0 -41338200 -19881300 0zm-3543300 41338200l0 -41338200 -18110800 0 0 41338200 18110800 0zm-21654100 0l0 -41338200 -19881300 0 0 41338200 19881300 0zm22244700 -44290900l25786700 0 0 47243700 -70865400 0 0 -47243700 45078700 0z"/>
  <path class="fil0 str0" d="M747841300 341448500l0 41338200 19881300 0 0 -41338200 -19881300 0zm-3543300 41338200l0 -41338200 -18110900 0 0 41338200 18110900 0zm-21654100 0l0 -41338200 -19881300 0 0 41338200 19881300 0zm22244600 -44290900l25786800 0 0 47243600 -70865500 0 0 -47243600 45078700 0z"/>
  <path class="fil0 str0" d="M569720700 487692900l41338200 0 0 -19881300 -41338200 0 0 19881300zm41338200 3543300l-41338200 0 0 18110800 41338200 0 0 -18110800zm0 21654100l-41338200 0 0 19881300 41338200 0 0 -19881300zm-44290900 -22244600l0 -25786800 47243600 0 0 70865500 -47243600 0 0 -45078700z"/>
  <path class="fil0 str0" d="M627577900 487756400l41338100 0 0 -19881400 -41338100 0 0 19881400zm41338100 3543200l-41338100 0 0 18110900 41338100 0 0 -18110900zm0 21654100l-41338100 0 0 19881300 41338100 0 0 -19881300zm-44290900 -22244600l0 -25786800 47243700 0 0 70865500 -47243700 0 0 -45078700z"/>
  <path class="fil0 str0" d="M627664000 567219200l41338200 0 0 -19881300 -41338200 0 0 19881300zm41338200 3543300l-41338200 0 0 18110800 41338200 0 0 -18110800zm0 21654100l-41338200 0 0 19881300 41338200 0 0 -19881300zm-44290900 -22244700l0 -25786700 47243600 0 0 70865400 -47243600 0 0 -45078700z"/>
  <path class="fil0 str0" d="M430623900 264184700l0 -25417100 1771600 0 0 25417100 -1771600 0zm110432000 -57920600l1771600 0 0 -18330600 -1771600 0 0 18330600zm-110432000 0l1771600 0 0 -18330600 -1771600 0 0 18330600zm-17716400 23338300l0 -7086500 1771600 0 0 -25984000 -1771600 0 0 -47243700 49216100 0 0 1771700 49210100 0 0 -1771700 49210200 0 0 47243700 -1771700 0 0 59054500 1771700 0 0 47243600 -49210200 0 0 -1771600 -49210100 0 0 1771600 -49216100 0 0 -47243600 1771600 0 0 -25984000 -1771600 0zm55121500 -59025000l0 -1771600 37399200 0 0 1771600 -37399200 0zm0 112735100l0 -1771700 37399200 0 0 1771700 -37399200 0zm73026900 -19127800l0 -25417100 1771600 0 0 25417100 -1771600 0z"/>
  <polygon class="fil0 str0" points="817177000,155336600 835507500,155336600 835507500,157108200 842594100,157108200 868011200,157108200 868011200,155336600 893428200,155336600 893428200,157108200 912556000,157108200 912556000,160964500 910784400,160964500 910784400,164814900 912556000,164814900 912556000,168671100 893428200,172740000 893794400,174470300 868377300,179873800 868011200,178143500 842594100,183547000 842960200,185277300 817549100,190680700 817177000,188944500 798049200,193013400 798049200,180204500 799820900,180204500 799820900,167767600 798049200,167767600 798049200,157108200 817177000,157108200 "/>
  <polygon class="fil0 str0" points="174977300,165912900 174977300,169769100 66317000,169769100 66317000,165912900 64545300,165912900 64545300,162056600 66317000,162056600 66317000,158200300 101944600,158200300 101944600,156428700 139349700,156428700 139349700,158200300 174977300,158200300 174977300,162056600 176749000,162056600 176749000,165912900 "/>
  <path class="fil0 str0" d="M919687100 254068000l-1771700 0 0 12431000 -108660300 0 0 -12431000 -1771700 0 0 -12436900 1771700 0 0 -10659300 35633500 0 0 -1771700 37399200 0 0 1771700 35627600 0 0 10659300 1771700 0 0 12436900zm-26456500 5935000l-18188800 0 0 -22535200 18188800 0 0 22535200zm-20550900 0l-18188800 0 0 -22535200 18188800 0 0 22535200zm-20551000 0l-18188800 0 0 -22535200 18188800 0 0 22535200z"/>
  <path class="fil0 str0" d="M476378000 521715600l0 -18188800 22535200 0 0 18188800 -22535200 0zm0 -20551000l0 -18188800 22535200 0 0 18188800 -22535200 0zm0 -20551000l0 -18188800 22535200 0 0 18188800 -22535200 0zm-2362200 43464100l0 -64015100 27259600 0 0 64015100 -27259600 0z"/>
  <path class="fil0 str0" d="M893428200 220107600l-18330500 0 0 -1771600 -7086500 0 -25417100 0 0 1771600 -25417100 0 0 -1771600 -19127800 0 0 -3856300 1771700 0 0 -3850300 -1771700 0 0 -3856300 19127800 -4068800 -366100 -1730300 25417100 -5403500 366100 1730300 25417100 -5403500 -366200 -1730300 25411200 -5403500 372000 1736200 19127800 -4068900 0 12809000 -1771600 0 0 12436800 1771600 0 0 10659400 -19127800 0 0 1771600zm-49611700 -16564800l-18188800 3862200 0 4440900 18188800 0 0 -8303100zm20551000 -4370000l-18188800 3868100 0 8805000 18188800 0 0 -12673100zm20551000 -4370000l-18188800 3868000 0 13175100 18188500 0 300 -17043100z"/>
  <path class="fil0 str0" d="M870310100 339747600l18188800 -3862200 0 -4440900 -18188800 0 0 8303100zm-20551000 4370000l18188800 -3868000 0 -8805100 -18188800 0 0 12673100zm-20551000 4370100l18188800 -3868100 0 -13175100 -18188800 0 0 17043200zm-2362200 -19405400l0 22204500 64015200 -13505700 0 -8698800 -64015200 0z"/>
  <path class="fil0 str0" d="M805052500 479447700l0 -25984000 1771700 0 0 25984000 -1771700 0zm0 -51968000l0 -25984000 1771700 0 0 25984000 -1771700 0zm110432000 51968000l0 -25984000 1771700 0 0 25984000 -1771700 0zm0 -51968000l0 -25984000 1771700 0 0 25984000 -1771700 0zm-116337400 77952000l0 -129920000 124014500 0 0 129920000 -124014500 0z"/>
  <path class="fil0 str0" d="M238013600 306072800l-34251700 0 0 47243600 -1771600 0 0 59054600 1771600 0 0 47243600 34251700 0 0 -1771600 34251600 0 0 1771600 34251600 0 0 16051000 1771700 0 0 26521400 -1771700 0 0 28293100 36023200 0 0 -1771700 34251700 0 0 1771700 31871700 0 0 -4133800 -98012800 0 0 -216139700 98012800 0 0 -4133800 -31871700 0 0 1771600 -34251700 0 0 -1771600 -70274800 0 0 1771600 -34251600 0 0 -1771600zm-31889500 4133800l0 145274200 98030500 0 0 -145274200 -98030500 0zm100392700 59379400l0 26515500 1771700 0 0 -26515500 -1771700 0z"/>
  <path class="fil0 str0" d="M201382000 612444900l0 47243700 -1771600 0 0 25984000 1771600 0 0 7086500 -1771600 0 0 25984000 1771600 0 0 47243700 34269400 0 0 -1771700 34251600 0 0 1771700 70274900 0 0 -1771700 34251600 0 0 1771700 34233900 0 0 -63513200 0 -26515500 0 -106298200 0 -17716300 0 -10364100 -34233900 0 0 1771600 -34251600 0 0 -1771600 -36041000 0 0 28293000 1771700 0 0 26521400 -1771700 0 0 16051000 -34245700 0 0 1771700 -34251600 0 -2952800 0 0 -1771700 -31304800 0zm189565100 -35432700l0 -1771600 8858100 0 0 1771600 -8858100 0zm8267600 67706100l0 -2557100 1771600 0 0 2557100 -1771600 0zm-8562900 7086500l0 -2557100 1771600 0 0 2557100 -1771600 0zm-8562900 7086500l0 -2557000 1771600 0 0 2557000 -1771600 0zm-8562900 7086600l0 -2557100 1771600 0 0 2557100 -1771600 0zm-8562900 7086500l0 -2557000 1771600 0 0 2557000 -1771600 0zm-8563000 7086600l0 -2557100 1771700 0 0 2557100 -1771700 0zm-8562900 7086500l0 -2557000 1771700 0 0 2557000 -1771700 0zm-8562900 7086600l0 -2557100 1771700 0 0 2557100 -1771700 0zm-8562800 7086500l0 -2557000 1771600 0 0 2557000 -1771600 0zm-8562900 7086600l0 -2557100 1771600 0 0 2557100 -1771600 0zm-8562900 7086500l0 -2557100 1771600 0 0 2557100 -1771600 0zm-9448800 -13116000l0 -26515500 1771700 0 0 26515500 -1771700 0zm-17716300 -22700600l0 -1771600 8858200 0 0 1771600 -8858200 0z"/>
  <path class="fil0 str1" d="M807178300 762041800l0 -58734500m7115000 58734500l0 -58734500m7115000 58734500l0 -58734500m7115000 58734500l0 -58734500m7115000 58734500l0 -58734500m7115000 58734500l0 -58734500m7115000 58734500l0 -58734500m7115000 58734500l0 -58734500m7115000 58734500l0 -58734500m7115000 58734500l0 -58734500m7115000 58734500l0 -58734500m7115000 58734500l0 -58734500m7115000 58734500l0 -58734500m7115000 58734500l0 -58734500m7115000 58734500l0 -58734500m7115000 58734500l0 -58734500"/>
  <path class="fil0 str1" d="M807187200 685251600l0 -58734400m7115000 58734400l0 -58734400m7115000 58734400l0 -58734400m7114900 58734400l0 -58734400m7115100 58734400l0 -58734400m7115000 58734400l0 -58734400m7115000 58734400l0 -58734400m7115000 58734400l0 -58734400m7115000 58734400l0 -58734400m7115000 58734400l0 -58734400m7115000 58734400l0 -58734400m7115000 58734400l0 -58734400m7115000 58734400l0 -58734400m7115000 58734400l0 -58734400m7115100 58734400l0 -58734400m7115000 58734400l0 -58734400"/>
  <path class="fil0 str1" d="M910959400 493834200l0 -106725100m-7115100 106725100l0 -106725100m-7115000 106725100l0 -106725100m-7115000 106725100l0 -106725100m-7115000 106725100l0 -106725100m-7114900 106725100l0 -106725100m-7115000 106725100l0 -106725100m-7115100 106725100l0 -106725100m-7115000 106725100l0 -106725100m-7115000 106725100l0 -106725100m-7115000 106725100l0 -106725100m-7115000 106725100l0 -106725100m-7115000 106725100l0 -106725100m-7115000 106725100l0 -106725100m-7115000 106725100l0 -106725100"/>
  <path class="fil0 str1" d="M597448100 161770900l42690100 0m-42690100 9961000l42690100 0m-1423100 -2846000l-7826500 0 0 -4269000 7826500 0 0 4269000zm-10672400 0l-7826600 0 0 -4269000 7826600 0 0 4269000zm-10672500 0l-7826500 0 0 -4269000 7826500 0 0 4269000zm-10672600 0l-7826500 0 0 -4269000 7826500 0 0 4269000zm-9249500 106725100l42690100 0m-42690100 9961000l42690100 0m-1423100 -2846100l-7826500 0 0 -4269000 7826500 0 0 4269000zm-10672400 0l-7826600 0 0 -4269000 7826600 0 0 4269000zm-10672500 0l-7826500 0 0 -4269000 7826500 0 0 4269000zm-10672600 0l-7826500 0 0 -4269000 7826500 0 0 4269000zm-17218300 -5691900l0 -106725100m-9961000 106725100l0 -106725100m2846000 9249500l0 -7826500 4269000 0 0 7826500 -4269000 0zm0 10672500l0 -7826500 4269000 0 0 7826500 -4269000 0zm0 10672500l0 -7826500 4269000 0 0 7826500 -4269000 0zm0 10672500l0 -7826500 4269000 0 0 7826500 -4269000 0zm0 10672500l0 -7826500 4269000 0 0 7826500 -4269000 0zm0 10672500l0 -7826500 4269000 0 0 7826500 -4269000 0zm0 10672500l0 -7826500 4269000 0 0 7826500 -4269000 0zm0 10672600l0 -7826500 4269000 0 0 7826500 -4269000 0zm0 10672500l0 -7826500 4269000 0 0 7826500 -4269000 0zm0 10672500l0 -7826600 4269000 0 0 7826600 -4269000 0zm75703600 1423000l0 -106725100m-9960900 106725100l0 -106725100m2845900 9249500l0 -7826500 4269000 0 0 7826500 -4269000 0zm0 10672500l0 -7826500 4269000 0 0 7826500 -4269000 0zm0 10672500l0 -7826500 4269000 0 0 7826500 -4269000 0zm0 10672500l0 -7826500 4269000 0 0 7826500 -4269000 0zm0 10672500l0 -7826500 4269000 0 0 7826500 -4269000 0zm0 10672500l0 -7826500 4269000 0 0 7826500 -4269000 0zm0 10672500l0 -7826500 4269000 0 0 7826500 -4269000 0zm0 10672600l0 -7826500 4269000 0 0 7826500 -4269000 0zm0 10672500l0 -7826500 4269000 0 0 7826500 -4269000 0zm0 10672500l0 -7826600 4269000 0 0 7826600 -4269000 0z"/>
  <path class="fil0 str1" d="M229718300 159287600l42690000 0m-42690000 9961000l42690000 0m-1422900 -2846000l-7826500 0 0 -4269000 7826500 0 0 4269000zm-10672600 0l-7826400 0 0 -4269000 7826400 0 0 4269000zm-10672500 0l-7826500 0 0 -4269000 7826500 0 0 4269000zm-10672500 0l-7826500 0 0 -4269000 7826500 0 0 4269000zm-9249500 106725100l42690000 0m-42690000 9961000l42690000 0m-1422900 -2846000l-7826500 0 0 -4269000 7826500 0 0 4269000zm-10672600 0l-7826400 0 0 -4269000 7826400 0 0 4269000zm-10672500 0l-7826500 0 0 -4269000 7826500 0 0 4269000zm-10672500 0l-7826500 0 0 -4269000 7826500 0 0 4269000zm-17218300 -5692000l0 -106725100m-9961000 106725100l0 -106725100m2846000 9249500l0 -7826500 4269000 0 0 7826500 -4269000 0zm0 10672500l0 -7826500 4269000 0 0 7826500 -4269000 0zm0 10672500l0 -7826500 4269000 0 0 7826500 -4269000 0zm0 10672600l0 -7826500 4269000 0 0 7826500 -4269000 0zm0 10672500l0 -7826600 4269000 0 0 7826600 -4269000 0zm0 10672400l0 -7826500 4269000 0 0 7826500 -4269000 0zm0 10672500l0 -7826500 4269000 0 0 7826500 -4269000 0zm0 10672600l0 -7826500 4269000 0 0 7826500 -4269000 0zm0 10672500l0 -7826500 4269000 0 0 7826500 -4269000 0zm0 10672500l0 -7826500 4269000 0 0 7826500 -4269000 0zm75703700 1423000l0 -106725100m-9961000 106725100l0 -106725100m2846000 9249500l0 -7826500 4269000 0 0 7826500 -4269000 0zm0 10672500l0 -7826500 4269000 0 0 7826500 -4269000 0zm0 10672500l0 -7826500 4269000 0 0 7826500 -4269000 0zm0 10672600l0 -7826500 4269000 0 0 7826500 -4269000 0zm0 10672500l0 -7826600 4269000 0 0 7826600 -4269000 0zm0 10672400l0 -7826500 4269000 0 0 7826500 -4269000 0zm0 10672500l0 -7826500 4269000 0 0 7826500 -4269000 0zm0 10672600l0 -7826500 4269000 0 0 7826500 -4269000 0zm0 10672500l0 -7826500 4269000 0 0 7826500 -4269000 0zm0 10672500l0 -7826500 4269000 0 0 7826500 -4269000 0zm51021700 -113840100l42690000 0m-42690000 9961000l42690000 0m-1423000 -2846000l-7826500 0 0 -4269000 7826500 0 0 4269000zm-10672500 0l-7826500 0 0 -4269000 7826500 0 0 4269000zm-10672500 0l-7826500 0 0 -4269000 7826500 0 0 4269000zm-10672500 0l-7826500 0 0 -4269000 7826500 0 0 4269000zm-9249500 106725100l42690000 0m-42690000 9961000l42690000 0m-1423000 -2846000l-7826500 0 0 -4269000 7826500 0 0 4269000zm-10672500 0l-7826500 0 0 -4269000 7826500 0 0 4269000zm-10672500 0l-7826500 0 0 -4269000 7826500 0 0 4269000zm-10672500 0l-7826500 0 0 -4269000 7826500 0 0 4269000zm-17218300 -5692000l0 -106725100m-9961100 106725100l0 -106725100m2846100 9249500l0 -7826500 4269000 0 0 7826500 -4269000 0zm0 10672500l0 -7826500 4269000 0 0 7826500 -4269000 0zm0 10672500l0 -7826500 4269000 0 0 7826500 -4269000 0zm0 10672600l0 -7826500 4269000 0 0 7826500 -4269000 0zm0 10672500l0 -7826600 4269000 0 0 7826600 -4269000 0zm0 10672400l0 -7826500 4269000 0 0 7826500 -4269000 0zm0 10672500l0 -7826500 4269000 0 0 7826500 -4269000 0zm0 10672600l0 -7826500 4269000 0 0 7826500 -4269000 0zm0 10672500l0 -7826500 4269000 0 0 7826500 -4269000 0zm0 10672500l0 -7826500 4269000 0 0 7826500 -4269000 0zm75703600 1423000l0 -106725100m-9961000 106725100l0 -106725100m2846000 9249500l0 -7826500 4269000 0 0 7826500 -4269000 0zm0 10672500l0 -7826500 4269000 0 0 7826500 -4269000 0zm0 10672500l0 -7826500 4269000 0 0 7826500 -4269000 0zm0 10672600l0 -7826500 4269000 0 0 7826500 -4269000 0zm0 10672500l0 -7826600 4269000 0 0 7826600 -4269000 0zm0 10672400l0 -7826500 4269000 0 0 7826500 -4269000 0zm0 10672500l0 -7826500 4269000 0 0 7826500 -4269000 0zm0 10672600l0 -7826500 4269000 0 0 7826500 -4269000 0zm0 10672500l0 -7826500 4269000 0 0 7826500 -4269000 0zm0 10672500l0 -7826500 4269000 0 0 7826500 -4269000 0z"/>
  <path class="fil0 str1" d="M425394300 390969700l0 -42690100m9961100 42690100l0 -42690100m-2846100 1423100l0 7826500 -4268900 0 0 -7826500 4268900 0zm0 10672500l0 7826500 -4268900 0 0 -7826500 4268900 0zm0 10672500l0 7826500 -4268900 0 0 -7826500 4268900 0zm0 10672400l0 7826600 -4268900 0 0 -7826600 4268900 0zm106725100 9249600l0 -42690100m9961100 42690100l0 -42690100m-2846100 1423100l0 7826500 -4268900 0 0 -7826500 4268900 0zm0 10672500l0 7826500 -4268900 0 0 -7826500 4268900 0zm0 10672500l0 7826500 -4268900 0 0 -7826500 4268900 0zm0 10672400l0 7826600 -4268900 0 0 -7826600 4268900 0zm-5692000 17218400l-106725100 0m106725100 9961000l-106725100 0m9249600 -2846000l-7826500 0 0 -4269000 7826500 0 0 4269000zm10672500 0l-7826500 0 0 -4269000 7826500 0 0 4269000zm10672500 0l-7826500 0 0 -4269000 7826500 0 0 4269000zm10672500 0l-7826500 0 0 -4269000 7826500 0 0 4269000zm10672500 0l-7826500 0 0 -4269000 7826500 0 0 4269000zm10672500 0l-7826500 0 0 -4269000 7826500 0 0 4269000zm10672500 0l-7826500 0 0 -4269000 7826500 0 0 4269000zm10672500 0l-7826500 0 0 -4269000 7826500 0 0 4269000zm10672500 0l-7826500 0 0 -4269000 7826500 0 0 4269000zm10672500 0l-7826500 0 0 -4269000 7826500 0 0 4269000zm1423000 -75703700l-106725100 0m106725100 9961100l-106725100 0m9249600 -2846100l-7826500 0 0 -4269000 7826500 0 0 4269000zm10672500 0l-7826500 0 0 -4269000 7826500 0 0 4269000zm10672500 0l-7826500 0 0 -4269000 7826500 0 0 4269000zm10672500 0l-7826500 0 0 -4269000 7826500 0 0 4269000zm10672500 0l-7826500 0 0 -4269000 7826500 0 0 4269000zm10672500 0l-7826500 0 0 -4269000 7826500 0 0 4269000zm10672500 0l-7826500 0 0 -4269000 7826500 0 0 4269000zm10672500 0l-7826500 0 0 -4269000 7826500 0 0 4269000zm10672500 0l-7826500 0 0 -4269000 7826500 0 0 4269000zm10672500 0l-7826500 0 0 -4269000 7826500 0 0 4269000z"/>
  <path class="fil0 str1" d="M892502400 209259100l0 -13518600m9961000 0l0 13518600m-7115000 -2846000l0 -7826500 4269000 0 0 7826500 -4269000 0zm-76417300 8573600l-10814800 0m0 -7968800l10814800 0m-2276800 5692000l-6261200 0 0 -3415200 6261200 0 0 3415200z"/>
  <path class="fil0 str1" d="M900158900 254608800l0 -13518500m9960900 0l0 13518500m-7114900 -2846000l0 -7826500 4269000 0 0 7826500 -4269000 0zm-85174600 2846000l0 -13518500m9961000 0l0 13518500m-7115000 -2846000l0 -7826500 4269000 0 0 7826500 -4269000 0z"/>
  <path class="fil0 str0" d="M45996700 710483900l0 -59054500 1771600 0 0 -56101800 -1771600 0 0 -2952800 0 -59054500 1771600 0 0 -57282900 47438600 0 0 -1771600 49216000 0 0 1771600 47438500 0 0 26521400 1771700 0 0 26521400 0 2952700 -1771700 0 0 76611500 1771700 0 0 26515500 -1771700 0 0 79564200 1771700 0 0 26521300 -1771700 0 0 26521400 -47438500 0 0 1771700 -49216000 0 -2952800 0 0 -1771700 -44485800 0 0 -57282900 -1771600 0zm50651100 -218797100l0 -1771600 2580700 0 0 1771600 -2580700 0z"/>
  <path class="fil0 str0" d="M598124100 211072700l41338200 0 0 -19881300 -41338200 0 0 19881300zm41338200 3543300l-41338200 0 0 18110800 41338200 0 0 -18110800zm0 21654100l-41338200 0 0 19881300 41338200 0 0 -19881300zm-72046600 59447800l0 -47438500 -1771600 0 0 -49216000 1771600 0 0 -47438600 34251700 0 0 -1771600 34251600 0 0 1771600 34251600 0 1771600 0 0 47438600 -1771600 0 0 49216000 0 2952800 1771600 0 0 44485700 -1771600 0 -34251600 0 0 1771700 -34251600 0 0 -1771700 -34251700 0z"/>
  <path class="fil0 str0" d="M681235400 688712000l0 16051000 1771600 0 0 26521400 -1771600 0 0 28293100 36017400 0 0 -1771700 34257500 0 0 1771700 36023300 0 0 -59054600 -1771700 0 0 -59054500 1771700 0 0 -56101900 -1771700 0 0 -2952700 0 -59054500 1771700 0 0 -59054500 -36017400 0 0 1771600 -34251600 0 0 -1771600 -36029200 0 0 10364100 1771600 0 0 17716300 -1771600 0 0 106298100 1771600 0 0 26515500 -1771600 0 0 63513200zm65450200 -206986100l0 -1771700 2846400 0 0 1771700 -2846400 0zm-4624000 2049200l0 -5870000 1771600 0 0 5870000 -1771600 0zm-8562900 16346300l0 -2557100 1771600 0 0 2557100 -1771600 0zm-8562900 7086500l0 -2557000 1771600 0 0 2557000 -1771600 0zm-8562900 7086600l0 -2557100 1771600 0 0 2557100 -1771600 0zm-8563000 7086500l0 -2557100 1771700 0 0 2557100 -1771700 0zm-8562900 7086600l0 -2557100 1771700 0 0 2557100 -1771700 0zm-8562900 7086500l0 -2557100 1771700 0 0 2557100 -1771700 0z"/>
  <path class="fil0 str0" d="M678873200 153948200l38385500 0 0 1771700 34251600 0 0 -1771700 36023300 0 0 28293100 -1771700 0 0 26521400 0 2952700 1771700 0 0 76611400 -1771700 0 0 26515500 1771700 0 0 79564200 -1771700 0 0 26521400 1771700 0 0 28293100 -36023300 0 0 -1771700 -34251600 0 0 1771700 -36023300 0 0 -28293100 1771600 0 0 -26521400 -1771600 0 0 -16051000 -2362200 0 0 -4133800 0 -216139700 0 -4133800zm6496000 291138900l0 -287005100 98030600 0 0 287005100 -98030600 0zm-4133800 -236324400l0 -26521400 1771600 0 0 26521400 -1771600 0zm0 106079600l0 -26515500 1771600 0 0 26515500 -1771600 0z"/>
  <path class="fil0 str0" d="M637383100 684716100l0 -16334500 13582500 0 0 16334500 -13582500 0zm0 -18696700l0 -16340400 13582500 0 0 16340400 -13582500 0zm0 -18702600l0 -16340400 13582500 0 0 16340400 -13582500 0zm15944700 37399300l0 -16334500 13582600 0 0 16334500 -13582600 0zm0 -18696700l0 -16340400 13582600 0 0 16340400 -13582600 0zm0 -18702600l0 -16340400 13582600 0 0 16340400 -13582600 0zm-69070200 37399300l-11421100 -53739700 61593900 0 0 53739700 -50172800 0zm73794600 4724300l11810900 0 0 -21649400 1771600 -1083600 0 -19488000 -1771600 -1083700 0 -19883600 -11810900 0 0 -1771700 -11810900 0 0 1771700 -33454400 0 0 -1771700 -21643500 0 0 1771700 -22263600 0 2982300 14055000 -1730300 372000 2362200 11102300 1730300 -372100 2362100 11102300 -1736200 372000 2362200 11102300 1730300 -372100 3366100 15826600 17373900 0 0 -1771600 17373800 0 0 1771600 29184800 0 0 -1771600 11810900 0 0 1771600z"/>
  <path class="fil0 str0" d="M867674200 545469100l16334500 0 0 -13582600 -16334500 0 0 13582600zm18696700 0l16340400 0 0 -13582600 -16340400 0 0 13582600zm18702500 0l16340400 0 0 -13582600 -16340400 0 0 13582600zm-37399200 -15944800l16334500 0 0 -13582500 -16334500 0 0 13582500zm18696700 0l16340400 0 0 -13582500 -16340400 0 0 13582500zm18702500 0l16340400 0 0 -13582500 -16340400 0 0 13582500zm-37399200 69070200l53739600 11421200 0 -61593900 -53739600 0 0 50172700zm-4724400 -73794500l0 -11810900 21649400 0 1083700 -1771700 19488000 0 1083600 1771700 19883700 0 0 11810900 1771600 0 0 11810900 -1771600 0 0 33454400 1771600 0 0 21643500 -1771600 0 0 22263500 -14055000 -2982200 -372000 1730300 -11102300 -2362200 372100 -1730300 -11102300 -2362200 -372000 1736200 -11102300 -2362200 372100 -1730300 -15826700 -3366100 0 -17373800 1771700 0 0 -17373900 -1771700 0 0 -29184700 1771700 0 0 -11810900 -1771700 0z"/>
  <path class="fil0 str0" d="M853249500 580469100l-16334500 0 0 13582500 16334500 0 0 -13582500zm-18696700 0l-16340400 0 0 13582500 16340400 0 0 -13582500zm-18702600 0l-16340400 0 0 13582500 16340400 0 0 -13582500zm37399300 15944700l-16334500 0 0 13582600 16334500 0 0 -13582600zm-18696700 0l-16340400 0 0 13582600 16340400 0 0 -13582600zm-18702600 0l-16340400 0 0 13582600 16340400 0 0 -13582600zm37399300 -69070200l-53739700 -11421100 0 61593900 53739700 0 0 -50172800zm4724300 73794600l0 11810900 -21649400 0 -1083600 1771600 -19488000 0 -1083700 -1771600 -19883600 0 0 -11810900 -1771700 0 0 -11810900 1771700 0 0 -33454400 -1771700 0 0 -21643500 1771700 0 0 -22263600 14055000 2982300 372000 -1730300 11102300 2362200 -372100 1730300 11102300 2362100 372000 -1736200 11102300 2362200 -372100 1730300 15826600 3366100 0 17373900 -1771600 0 0 17373800 1771600 0 0 29184800 -1771600 0 0 11810900 1771600 0z"/>
  <text x="506967700" y="69179300"  class="fil1 fnt0">Casinha de Bonecas - Moderna</text>
  <text x="607206200" y="102141500"  class="fil1 fnt1">MDF 3mm - laser</text>
  <line class="fil0 str2" x1="29556800" y1="124395400" x2="944902300" y2= "124395400" />
  <polygon class="fil0 str3" points="0,0 974400000,0 974400000,856290900 0,856290900 "/>
  <line class="fil0 str4" x1="494967000" y1="852740600" x2="974400000" y2= "852740600" />
  <line class="fil0 str4" x1="0" y1="852740600" x2="479973000" y2= "852740600" />
  <path class="fil2" d="M481395600 853639300l-220000 0 0 -1400800c-52900,50800 -122500,101200 -208300,151700 -85900,50400 -163400,88300 -231700,113300l0 -212500c122900,-57500 230400,-127500 322500,-210000 92100,-82100 157500,-161700 195800,-239100l141700 0 0 1797400zm1707800 -1352500l-217500 17500c-19500,-86200 -47400,-149200 -83700,-188300 -59600,-62900 -133300,-94100 -220800,-94100 -70400,0 -132900,19500 -186700,58700 -69100,50400 -123300,123700 -163700,220400 -40000,97100 -60900,235000 -62500,413700 52900,-80400 117900,-140400 194600,-179100 76600,-39200 156600,-58800 240800,-58800 146600,0 271700,54200 375000,162100 102900,107900 154500,247100 154500,418300 0,112500 -24100,216700 -72400,313300 -48800,96700 -115100,170500 -200000,221700 -84600,51300 -180900,77100 -288400,77100 -182900,0 -332500,-67500 -448300,-202100 -115400,-134600 -173300,-356600 -173300,-665800 0,-345800 64100,-597500 192000,-754600 111700,-136600 262100,-204900 451700,-204900 140800,0 256700,39500 346700,118200 90000,78800 144200,187500 162000,326700zm-899900 772500c0,75900 16200,148400 48300,217500 32100,69200 77100,121700 134200,157900 57500,36300 118300,54600 182900,54600 93700,0 173700,-37500 240000,-112500 66200,-75000 99500,-176600 99500,-305400 0,-123700 -32800,-221200 -98300,-292500 -65400,-71200 -148700,-107100 -250000,-107100 -99100,0 -183700,35900 -252900,107100 -69100,71300 -103700,164600 -103700,280400zm1147900 110000l230000 -17500c17000,112100 56600,196200 118300,252900 61700,56300 137100,84600 225800,84600 107100,0 196700,-40000 269600,-119600 72500,-80000 108700,-185800 108700,-317500 0,-125400 -34600,-224100 -104100,-296700 -69600,-72400 -161700,-108700 -276300,-108700 -71200,0 -135000,16300 -191600,48800 -56300,32500 -100500,74500 -132900,126200l-207600 -30000 172500 -919900 887600 0 0 210000 -712100 0 -95400 482800c107000,-75400 219500,-112900 337000,-112900 155900,0 287500,54200 394600,162500 107100,108400 160800,247500 160800,417500 0,162100 -47000,302100 -141200,420000 -114600,145000 -271300,217500 -469600,217500 -162500,0 -295000,-45800 -397900,-137100 -102900,-91200 -161700,-212100 -176200,-362900zm1390300 -413300c0,-211300 21700,-382100 65100,-511300 43700,-129500 108300,-229100 194100,-298700 85400,-69600 193300,-104100 323400,-104100 95700,0 179900,19100 252800,57800 72500,38800 132500,94600 179200,167600 46600,72400 83300,161200 110000,265800 27100,104600 40400,245800 40400,422900 0,210000 -21700,380000 -64500,509100 -43000,129600 -107600,229200 -193400,299200 -85400,70000 -193700,105000 -324500,105000 -172100,0 -307500,-61200 -405900,-184200 -117900,-150000 -176700,-392900 -176700,-729100zm225000 800c0,294600 34200,490400 103000,587100 68700,97100 153700,145400 254600,145400 100800,0 185700,-48700 254500,-145800 68800,-97500 102900,-292900 102900,-586700 0,-294600 -34100,-490400 -102900,-587100 -68400,-97100 -154200,-145400 -257100,-145400 -100800,0 -181600,43000 -242100,128400 -75400,108700 -112900,310400 -112900,604100zm1282900 882500l0 -250000 250000 0 0 250000c0,92100 -16200,166700 -49200,223300 -32500,56700 -84500,100900 -155800,131700l-60000 -95000c46700,-20400 80800,-50400 102500,-89600 22100,-39600 34600,-96200 37100,-170400l-124600 0zm577100 -883300c0,-211300 21700,-382100 65000,-511300 43700,-129500 108300,-229100 194200,-298700 85400,-69600 193300,-104100 323300,-104100 95800,0 180000,19100 252900,57800 72500,38800 132500,94600 179200,167600 46600,72400 83300,161200 110000,265800 27000,104600 40400,245800 40400,422900 0,210000 -21700,380000 -64600,509100 -42900,129600 -107500,229200 -193300,299200 -85500,70000 -193800,105000 -324600,105000 -172100,0 -307500,-61200 -405800,-184200 -117900,-150000 -176700,-392900 -176700,-729100zm225000 800c0,294600 34200,490400 102900,587100 68800,97100 153800,145400 254600,145400 100800,0 185800,-48700 254600,-145800 68800,-97500 102900,-292900 102900,-586700 0,-294600 -34100,-490400 -102900,-587100 -68400,-97100 -154200,-145400 -257100,-145400 -100800,0 -181700,43000 -242100,128400 -75400,108700 -112900,310400 -112900,604100zm1165400 -800c0,-211300 21700,-382100 65000,-511300 43700,-129500 108300,-229100 194200,-298700 85400,-69600 193300,-104100 323300,-104100 95800,0 180000,19100 252900,57800 72500,38800 132500,94600 179200,167600 46600,72400 83300,161200 110000,265800 27000,104600 40400,245800 40400,422900 0,210000 -21700,380000 -64600,509100 -42900,129600 -107500,229200 -193300,299200 -85500,70000 -193800,105000 -324600,105000 -172100,0 -307500,-61200 -405800,-184200 -117900,-150000 -176700,-392900 -176700,-729100zm225000 800c0,294600 34200,490400 102900,587100 68800,97100 153700,145400 254600,145400 100800,0 185800,-48700 254500,-145800 68800,-97500 103000,-292900 103000,-586700 0,-294600 -34200,-490400 -103000,-587100 -68300,-97100 -154100,-145400 -257000,-145400 -100800,0 -181700,43000 -242100,128400 -75400,108700 -112900,310400 -112900,604100zm1920000 882500l0 -1297500 197500 0 0 183400c40400,-63400 94600,-114600 162100,-153000 67500,-38700 144100,-57800 230400,-57800 95800,0 174600,19900 235800,59500 61200,40000 104600,95400 129600,167100 103300,-151200 237100,-226600 402100,-226600 129100,0 228700,35300 297800,106600 69700,71200 104600,180800 104600,328800l0 889500 -220000 0 0 -816700c0,-87400 -7500,-150800 -21600,-189500 -14200,-38800 -40000,-69600 -77900,-93300 -37500,-23800 -81700,-35500 -132100,-35500 -91700,0 -167500,30400 -227900,90900 -60400,60800 -90400,157900 -90400,291200l0 752900 -220000 0 0 -842100c0,-97500 -18000,-170800 -53800,-219500 -35800,-48800 -94600,-73400 -175800,-73400 -61700,0 -118800,16300 -171300,48800 -52500,32500 -90400,80000 -114100,142900 -23400,62500 -35000,152900 -35000,270800l0 672500 -220000 0zm2082400 0l0 -1297500 197500 0 0 183400c40400,-63400 94600,-114600 162100,-153000 67500,-38700 144200,-57800 230400,-57800 95800,0 174600,19900 235800,59500 61300,40000 104600,95400 129600,167100 103300,-151200 237100,-226600 402100,-226600 129200,0 228700,35300 297900,106600 69600,71200 104600,180800 104600,328800l0 889500 -220000 0 0 -816700c0,-87400 -7500,-150800 -21700,-189500 -14200,-38800 -40000,-69600 -77900,-93300 -37500,-23800 -81700,-35500 -132100,-35500 -91600,0 -167500,30400 -227900,90900 -60400,60800 -90400,157900 -90400,291200l0 752900 -220000 0 0 -842100c0,-97500 -17900,-170800 -53800,-219500 -35800,-48800 -94500,-73400 -175800,-73400 -61600,0 -118700,16300 -171200,48800 -52500,32500 -90400,80000 -114200,142900 -23300,62500 -35000,152900 -35000,270800l0 672500 -220000 0z"/>
  <line class="fil0 str4" x1="971632700" y1="435372400" x2="971632700" y2= "856290900" />
  <line class="fil0 str4" x1="971632700" y1="0" x2="971632700" y2= "420378400" />
  <path class="fil2" d="M972531400 433949900l0 219900 -1400800 0c50800,53000 101200,122600 151700,208400 50300,85900 88300,163300 113300,231700l-212500 0c-57500,-122900 -127500,-230500 -210000,-322500 -82100,-92100 -161700,-157500 -239100,-195900l0 -141600 1797400 0zm0 -1267900l-427500 0 0 777500 -202500 0 -1159900 -817500 0 -180000 1159900 0 0 -242500 202500 0 0 242500 427500 0 0 220000zm-630000 0l-805400 0 805400 561200 0 -561200zm160000 -687900l-17500 -230000c112100,-17100 196200,-56700 252900,-118300 56300,-61700 84600,-137100 84600,-225800 0,-107200 -40000,-196700 -119600,-269600 -80000,-72500 -185800,-108800 -317500,-108800 -125400,0 -224100,34600 -296700,104200 -72400,69500 -108700,161700 -108700,276200 0,71300 16300,135000 48700,191700 32600,56200 74600,100400 126300,132900l-30000 207500 -919900 -172500 0 -887500 210000 0 0 712100 482800 95400c-75400,-107100 -112900,-219600 -112900,-337100 0,-155800 54200,-287500 162500,-394500 108400,-107200 247500,-160900 417500,-160900 162100,0 302100,47100 420000,141300 145000,114500 217500,271200 217500,469600 0,162400 -45800,294900 -137100,397900 -91200,102900 -212100,161600 -362900,176200zm-413300 -1390400c-211300,0 -382100,-21700 -511300,-65000 -129500,-43700 -229100,-108300 -298700,-194200 -69600,-85400 -104100,-193300 -104100,-323300 0,-95800 19100,-180000 57800,-252900 38800,-72500 94600,-132500 167600,-179100 72400,-46700 161200,-83400 265800,-110100 104600,-27000 245800,-40400 422900,-40400 210000,0 380000,21700 509100,64600 129600,42900 229200,107500 299200,193300 70000,85500 105000,193800 105000,324600 0,172100 -61200,307500 -184200,405800 -150000,118000 -392900,176700 -729100,176700zm800 -225000c294600,0 490400,-34200 587100,-102900 97100,-68800 145400,-153700 145400,-254600 0,-100800 -48700,-185800 -145800,-254500 -97500,-68800 -292900,-103000 -586700,-103000 -294600,0 -490400,34200 -587100,103000 -97100,68300 -145400,154100 -145400,257000 0,100800 43000,181700 128400,242100 108700,75400 310300,112900 604100,112900zm882500 -1282900l-250000 0 0 -250000 250000 0c92100,0 166600,16300 223300,49200 56700,32500 100800,84600 131700,155800l-95000 60000c-20400,-46600 -50400,-80800 -89600,-102400 -39600,-22100 -96200,-34600 -170400,-37100l0 124500zm-883300 -577100c-211300,0 -382100,-21600 -511300,-65000 -129500,-43700 -229100,-108300 -298700,-194200 -69600,-85300 -104100,-193200 -104100,-323300 0,-95800 19100,-180000 57800,-252800 38800,-72600 94600,-132600 167600,-179200 72400,-46700 161200,-83300 265800,-110000 104600,-27100 245800,-40400 422900,-40400 210000,0 380000,21600 509100,64500 129600,42900 229200,107600 299200,193400 70000,85400 105000,193700 105000,324500 0,172100 -61200,307500 -184200,405800 -150000,118000 -392900,176700 -729100,176700zm800 -225000c294600,0 490400,-34200 587100,-102900 97100,-68700 145400,-153700 145400,-254600 0,-100800 -48700,-185800 -145800,-254500 -97500,-68800 -292900,-102900 -586700,-102900 -294600,0 -490400,34100 -587100,102900 -97100,68300 -145400,154100 -145400,257100 0,100800 43000,181600 128400,242000 108700,75400 310300,112900 604100,112900zm-800 -1165300c-211300,0 -382100,-21700 -511300,-65100 -129500,-43700 -229100,-108300 -298700,-194100 -69600,-85400 -104100,-193300 -104100,-323400 0,-95700 19100,-180000 57800,-252800 38800,-72500 94600,-132500 167600,-179200 72400,-46700 161200,-83300 265800,-110000 104600,-27100 245800,-40400 422900,-40400 210000,0 380000,21700 509100,64500 129600,43000 229200,107600 299200,193400 70000,85400 105000,193700 105000,324500 0,172100 -61200,307500 -184200,405900 -150000,117900 -392900,176700 -729100,176700zm800 -225000c294600,0 490400,-34200 587100,-103000 97100,-68700 145400,-153700 145400,-254600 0,-100800 -48700,-185700 -145800,-254500 -97500,-68800 -292900,-102900 -586700,-102900 -294600,0 -490400,34100 -587100,102900 -97100,68300 -145400,154200 -145400,257100 0,100800 43000,181600 128400,242000 108700,75500 310300,113000 604100,113000zm882500 -1920000l-1297500 0 0 -197500 183400 0c-63400,-40500 -114700,-94600 -153000,-162100 -38700,-67500 -57900,-144200 -57900,-230400 0,-95800 20000,-174600 59600,-235800 40000,-61300 95400,-104600 167100,-129600 -151200,-103400 -226700,-237100 -226700,-402100 0,-129200 35400,-228700 106700,-297900 71200,-69600 180800,-104600 328800,-104600l889500 0 0 220000 -816700 0c-87400,0 -150800,7500 -189500,21700 -38800,14200 -69600,40000 -93300,77900 -23800,37500 -35500,81700 -35500,132100 0,91600 30400,167500 90900,227900 60800,60400 157900,90400 291200,90400l752900 0 0 220000 -842100 0c-97500,0 -170800,17900 -219500,53800 -48800,35800 -73400,94500 -73400,175800 0,61600 16300,118700 48700,171200 32600,52500 80100,90400 143000,114200 62500,23300 152900,35000 270800,35000l672500 0 0 220000zm0 -2082500l-1297500 0 0 -197400 183400 0c-63400,-40500 -114700,-94600 -153000,-162100 -38700,-67500 -57900,-144200 -57900,-230500 0,-95800 20000,-174500 59600,-235800 40000,-61200 95400,-104600 167100,-129500 -151200,-103400 -226700,-237100 -226700,-402100 0,-129200 35400,-228800 106700,-297900 71200,-69600 180800,-104600 328800,-104600l889500 0 0 220000 -816700 0c-87400,0 -150800,7500 -189500,21600 -38800,14200 -69600,40000 -93300,77900 -23800,37500 -35500,81700 -35500,132100 0,91700 30400,167500 90900,227900 60800,60400 157900,90400 291200,90400l752900 0 0 220000 -842100 0c-97500,0 -170800,18000 -219500,53800 -48800,35800 -73400,94600 -73400,175800 0,61700 16300,118800 48700,171300 32600,52500 80100,90400 143000,114100 62500,23400 152900,35100 270800,35100l672500 0 0 219900z"/>
  <rect class="fil3" x="422382100" y="77433100" width="59054500" height="5905500"/>
 </g>
</svg>
