<?xml version="1.0" encoding="UTF-8" standalone="no"?>
<!-- Created with Inkscape (http://www.inkscape.org/) -->

<svg
   width="210mm"
   height="297mm"
   viewBox="0 0 210 297"
   version="1.1"
   id="svg1"
   xml:space="preserve"
   inkscape:version="1.4.2 (f4327f4, 2025-05-13)"
   sodipodi:docname="Logo - Ranaur.svg"
   xmlns:inkscape="http://www.inkscape.org/namespaces/inkscape"
   xmlns:sodipodi="http://sodipodi.sourceforge.net/DTD/sodipodi-0.dtd"
   xmlns="http://www.w3.org/2000/svg"
   xmlns:svg="http://www.w3.org/2000/svg"><sodipodi:namedview
     id="namedview1"
     pagecolor="#ffffff"
     bordercolor="#000000"
     borderopacity="0.25"
     inkscape:showpageshadow="2"
     inkscape:pageopacity="0.0"
     inkscape:pagecheckerboard="0"
     inkscape:deskcolor="#d1d1d1"
     inkscape:document-units="mm"
     inkscape:zoom="0.25417602"
     inkscape:cx="625.55075"
     inkscape:cy="989.47178"
     inkscape:window-width="1920"
     inkscape:window-height="1009"
     inkscape:window-x="1912"
     inkscape:window-y="-8"
     inkscape:window-maximized="1"
     inkscape:current-layer="layer1" /><defs
     id="defs1" /><g
     inkscape:label="Camada 1"
     inkscape:groupmode="layer"
     id="layer1"><path
       style="fill:#000000"
       d="m 43.193385,135.24177 c -1.337464,-0.60227 -2.615231,-1.94125 -2.801865,-2.93609 -0.300451,-1.60155 1.03918,-4.34382 4.279235,-8.75976 0.402606,-0.54872 0.400707,-0.72919 -0.02645,-2.51354 -0.750992,-3.13711 -2.733566,-9.37694 -4.015458,-12.638 -2.32801,-5.92234 -4.01167,-8.466669 -5.602642,-8.466669 -0.45576,0 -0.828654,-0.138113 -0.828654,-0.306917 0,-0.168804 0.695325,-1.002241 1.545166,-1.852083 1.308879,-1.308878 1.690148,-1.545166 2.493242,-1.545166 1.306937,0 2.289033,0.901219 3.506169,3.217434 l 1.003185,1.909061 1.344668,-1.571059 c 1.930823,-2.255906 3.231595,-3.555436 3.558831,-3.555436 0.156392,0 0.655895,1.204018 1.110007,2.675596 l 0.825658,2.675599 1.306449,-1.46581 c 2.369853,-2.658912 5.291212,-4.2328 7.812642,-4.209073 1.697195,0.01597 2.600831,0.636313 3.45207,2.369833 0.648942,1.321548 0.74765,1.82709 0.737589,3.7776 -0.01016,1.96925 -0.118564,2.48041 -0.863758,4.07285 -1.418521,3.03131 -3.087836,5.08689 -8.40029,10.34403 -2.793987,2.76489 -5.587922,5.68193 -6.208744,6.48229 -1.405769,1.81232 -2.904703,4.88294 -2.902391,5.94566 0.004,1.85012 2.112113,3.57568 4.371156,3.57798 1.449273,0.001 1.890479,-0.22704 3.923946,-2.03243 0.706962,-0.62767 1.391572,-1.14121 1.521354,-1.14121 0.64531,0 0.06478,0.97792 -1.489966,2.50987 -3.082096,3.03691 -7.245256,4.51884 -9.65115,3.43544 z m 6.304476,-16.61248 0.575884,-0.613 -2.545902,-8.44898 c -1.400246,-4.64693 -2.59041,-8.49785 -2.644808,-8.5576 -0.136022,-0.14938 -1.155821,0.79616 -1.448492,1.34302 -0.163325,0.30518 -0.06247,0.85064 0.318541,1.72275 1.501941,3.4379 2.753011,7.38078 4.497583,14.17463 0.297187,1.15732 0.467519,1.20911 1.247194,0.37918 z m 5.384859,-5.34012 c 1.272246,-1.43028 2.672222,-3.68582 3.284438,-5.29167 1.058166,-2.77557 0.321946,-7.23832 -1.420172,-8.608667 -0.797557,-0.627359 -2.604284,-0.69333 -3.416066,-0.124735 -0.945871,0.662513 -3.258368,3.745822 -3.258368,4.344452 0,0.45479 0.945937,3.46261 3.321825,10.56252 0.161991,0.48408 0.397328,0.34463 1.488343,-0.8819 z m 55.52048,5.09323 c 0.003,-0.1819 0.48085,-0.66695 1.06164,-1.07787 1.80012,-1.27363 1.89455,-1.66325 1.7969,-7.41416 -0.0711,-4.18884 -0.1653,-5.21267 -0.54291,-5.9027 -0.70811,-1.29396 -1.22154,-1.67871 -2.24016,-1.67871 -0.9132,0 -0.92855,-0.0166 -0.54998,-0.59531 0.21418,-0.32742 1.02295,-1.0418 1.79725,-1.5875 2.7601,-1.945228 4.59122,-1.168244 5.46891,2.32057 0.25551,1.01564 0.48842,1.88713 0.51759,1.93666 0.0292,0.0495 0.82209,-0.56236 1.76204,-1.35974 3.17033,-2.68948 5.91941,-3.891496 8.89002,-3.887094 3.25518,0.0048 5.93203,1.965054 6.81064,4.987364 0.80933,2.78398 -0.20722,5.35886 -3.4356,8.70224 l -1.85225,1.91823 2.7567,-0.005 c 2.57815,-0.004 2.84237,-0.0553 4.07961,-0.78924 0.7276,-0.4316 1.55355,-0.78676 1.83543,-0.78924 1.33949,-0.0118 -3.46377,3.47766 -6.23807,4.53181 -1.21708,0.46245 -1.91852,0.48505 -10.35768,0.33372 -7.91897,-0.142 -9.19712,-0.10921 -10.20993,0.26194 -1.38976,0.50929 -1.35721,0.50703 -1.35015,0.0935 z m 18.1886,-4.3424 c 1.1074,-0.83537 2.38078,-3.06402 2.605,-4.55921 0.52645,-3.51062 -2.80787,-7.42794 -6.32844,-7.43494 -1.68489,-0.003 -3.13065,0.60042 -4.55505,1.90224 -2.42436,2.21573 -2.55344,2.55759 -2.56702,6.79888 -0.006,2.01735 0.0535,3.77349 0.13326,3.90254 0.0798,0.12904 2.32822,0.19134 4.99661,0.13845 4.6724,-0.0926 4.88352,-0.12025 5.71564,-0.74796 z m -62.363497,4.21011 c 0.0089,-0.10914 0.513323,-0.5595 1.120958,-1.0008 0.607635,-0.4413 1.253448,-1.09614 1.435141,-1.45521 0.439001,-0.86757 0.461815,-9.7037 0.02878,-11.14902 -0.428432,-1.42998 -1.329805,-2.33612 -2.323834,-2.33612 -1.063102,0 -1.017238,-0.36236 0.185804,-1.46801 1.261057,-1.158962 2.411839,-1.706989 3.584452,-1.706989 1.560651,0 3.09012,2.255589 3.094801,4.564059 8.12e-4,0.40019 0.06198,0.72761 0.135929,0.72761 0.07395,0 0.996684,-0.72411 2.050521,-1.60913 1.053837,-0.88503 2.809036,-2.03966 3.900443,-2.56586 1.69143,-0.815482 2.319004,-0.972963 4.251114,-1.06675 1.909392,-0.09269 2.435476,-0.02395 3.337075,0.436013 1.152532,0.587977 3.524311,3.040117 3.524311,3.643717 0,0.54599 0.132848,0.48165 1.786623,-0.86537 1.812615,-1.4764 4.69528,-2.891868 6.633159,-3.257073 2.652755,-0.499929 5.149015,0.570531 6.663965,2.857683 1.11095,1.67722 1.39912,2.82884 1.27661,5.10173 -0.21799,4.04473 -2.9318,7.77187 -7.302265,10.02895 -2.869013,1.48167 -5.477394,1.01568 -6.226056,-1.11229 -0.199255,-0.56635 1.339946,-2.10386 2.736725,-2.73372 l 1.007154,-0.45417 1.054305,1.10831 c 0.890193,0.93579 1.191791,1.09513 1.937567,1.02365 0.80149,-0.0768 0.96836,-0.25424 1.80251,-1.91658 0.80559,-1.60541 0.91966,-2.0798 0.92245,-3.83646 0.002,-1.45819 -0.13192,-2.25692 -0.49249,-2.93057 -0.91966,-1.71815 -2.01526,-2.86537 -3.391303,-3.55108 -2.430857,-1.21135 -4.673713,-0.8005 -6.755308,1.23744 -0.959444,0.93933 -1.124479,1.2594 -1.124479,2.18085 0,1.49622 -0.676416,3.94664 -1.514489,5.48645 -1.636341,3.0065 -6.369753,6.3762 -8.956635,6.3762 -1.871559,0 -3.639004,-1.58232 -3.032758,-2.7151 0.313022,-0.58488 2.845854,-2.40018 3.34891,-2.40018 0.166723,0 0.779383,0.47625 1.361467,1.05834 0.789602,0.7896 1.271314,1.05833 1.897111,1.05833 0.775648,0 0.900968,-0.13289 1.665039,-1.76568 1.095068,-2.3401 1.319907,-5.23812 0.542196,-6.98851 -0.762604,-1.71638 -1.767858,-2.77147 -3.402605,-3.57127 -1.243501,-0.60839 -1.680277,-0.69022 -3.030667,-0.56777 -2.111507,0.19147 -3.606195,1.10672 -5.140403,3.14767 l -1.231785,1.63864 0.05319,4.05775 c 0.04625,3.52875 -0.0067,4.12393 -0.406227,4.56539 -0.252677,0.27921 -1.700517,1.05118 -3.217423,1.7155 -2.596497,1.13713 -3.826685,1.46481 -3.789584,1.00943 z m 73.537997,0.0695 c 0,-0.0709 0.48057,-0.43234 1.06793,-0.80312 1.9539,-1.23345 2.10516,-1.73695 2.10461,-7.00541 -2.7e-4,-2.54661 -0.12346,-5.07299 -0.27376,-5.61418 -0.41519,-1.49493 -1.42279,-2.54214 -2.53891,-2.63871 l -0.94183,-0.0815 0.55471,-0.70211 c 0.30509,-0.38615 1.11129,-1.07076 1.79155,-1.52135 1.65261,-1.094642 3.13718,-1.127703 4.11523,-0.09164 0.71748,0.760025 1.52881,3.067225 1.52881,4.347505 0,0.95403 0.24584,0.93952 1.20727,-0.0713 1.35929,-1.4291 5.31414,-3.89489 7.19593,-4.486549 3.65027,-1.147689 6.66954,-0.660414 9.01008,1.454129 1.71515,1.54953 2.25562,2.94458 2.1107,5.44806 -0.0999,1.72549 -0.2895,2.43045 -1.08862,4.04736 -2.41859,4.89368 -9.33558,8.87979 -11.98273,6.90538 -1.0902,-0.81313 -1.74047,-1.79356 -1.53857,-2.31972 0.23119,-0.60246 2.97506,-2.55872 3.58888,-2.55872 0.26435,0 0.66234,0.35397 0.88745,0.78927 0.49769,0.96242 1.64304,1.59198 2.89627,1.59198 0.79456,0 1.02972,-0.14981 1.55742,-0.99219 2.14491,-3.42392 2.14186,-6.97246 -0.008,-9.35214 -3.54868,-3.92796 -9.04172,-3.33189 -12.84823,1.3942 l -0.78267,0.97174 0.005,4.12111 0.005,4.1211 -0.72194,0.51407 c -1.78183,1.26878 -6.90144,3.14759 -6.90144,2.53272 z M 83.169353,94.263354 81.756105,92.83233 83.01616,91.485229 c 0.69303,-0.740906 1.456597,-1.347101 1.696816,-1.347101 0.414641,0 2.93041,2.329427 2.93041,2.713357 0,0.223735 -2.66851,2.842893 -2.896461,2.842893 -0.09038,0 -0.800285,-0.643961 -1.577572,-1.431024 z m 7.281177,0.137569 c -1.511522,-1.534597 -1.4865,-1.853453 0.272705,-3.475032 l 1.207596,-1.113122 1.428153,1.410412 c 0.785484,0.775727 1.428152,1.538018 1.428152,1.69398 0,0.356404 -2.438196,2.777217 -2.797159,2.777217 -0.145993,0 -0.838744,-0.582055 -1.539447,-1.293455 z m 28.96674,-0.137569 -1.41325,-1.431024 1.26006,-1.347101 c 0.69303,-0.740906 1.45659,-1.347101 1.69681,-1.347101 0.41464,0 2.93041,2.329427 2.93041,2.713357 0,0.223735 -2.66851,2.842893 -2.89646,2.842893 -0.0904,0 -0.80028,-0.643961 -1.57757,-1.431024 z m 7.28118,0.137569 c -1.51152,-1.534597 -1.4865,-1.853453 0.2727,-3.475032 l 1.2076,-1.113122 1.42815,1.410412 c 0.78549,0.775727 1.42815,1.538018 1.42815,1.69398 0,0.356404 -2.43819,2.777217 -2.79716,2.777217 -0.14599,0 -0.83874,-0.582055 -1.53944,-1.293455 z m -39.886611,-6.07708 c -0.706816,-0.706816 -1.28512,-1.395492 -1.28512,-1.530393 0,-0.1349 0.643961,-0.881235 1.431025,-1.658521 l 1.431024,-1.413248 1.347101,1.260055 c 0.740905,0.69303 1.347101,1.456597 1.347101,1.696815 0,0.44302 -2.34178,2.930411 -2.758865,2.930411 -0.124931,0 -0.805451,-0.578304 -1.512266,-1.285119 z m 36.247921,0 c -0.70682,-0.706816 -1.28512,-1.395492 -1.28512,-1.530393 0,-0.1349 0.64396,-0.881235 1.43102,-1.658521 l 1.43103,-1.413248 1.3471,1.260055 c 0.7409,0.69303 1.3471,1.456597 1.3471,1.696815 0,0.44302 -2.34178,2.930411 -2.75887,2.930411 -0.12493,0 -0.80545,-0.578304 -1.51226,-1.285119 z"
       id="path1" /></g></svg>
