<?xml version='1.0' encoding='utf-8'?>
<svg height="445.30mm" viewBox="0.0 0.0 501.90 445.30" width="501.90mm" xmlns="http://www.w3.org/2000/svg" xmlns:cc="http://creativecommons.org/ns#" xmlns:dc="http://purl.org/dc/elements/1.1/" xmlns:inkscape="http://www.inkscape.org/namespaces/inkscape" xmlns:rdf="http://www.w3.org/1999/02/22-rdf-syntax-ns#" xmlns:svg="http://www.w3.org/2000/svg" xmlns:xlink="http://www.w3.org/1999/xlink">
<!--
UniversalBox - Box with various options for different styles and lids

Created with Boxes.py (https://boxes.hackerspace-bamberg.de/)
Creation date: 2026-03-16 02:41:08
Command line (remove spaces between dashes): boxes UniversalBox - -Stackable_bottom_stabilizers=2 - -top_edge=S - -bottom_edge=s - -x=210 - -y=270 - -h=70 - -spacing=0.5
Url: https://boxes.hackerspace-bamberg.de/UniversalBox?FingerJoint_style=rectangular&FingerJoint_surroundingspaces=2.0&FingerJoint_bottom_lip=0.0&FingerJoint_edge_width=1.0&FingerJoint_extra_length=0.0&FingerJoint_finger=2&FingerJoint_play=0.0&FingerJoint_space=2&FingerJoint_width=1.0&Stackable_angle=60&Stackable_bottom_stabilizers=2&Stackable_height=2.0&Stackable_holedistance=1.0&Stackable_width=4.0&Hinge_grip_percentage=0&Hinge_outset=0&Hinge_outset=1&Hinge_pinwidth=0.5&Hinge_axle=2.0&Hinge_grip_length=0&Hinge_hingestrength=1&CabinetHinge_bore=3.2&CabinetHinge_eyes_per_hinge=5&CabinetHinge_hinges=2&CabinetHinge_style=inside&CabinetHinge_eye=1.5&CabinetHinge_play=0.05&CabinetHinge_spacing=2.0&SlideOnLid_hole_width=0&SlideOnLid_second_pin=0&SlideOnLid_second_pin=1&SlideOnLid_spring=both&SlideOnLid_style=rectangular&SlideOnLid_surroundingspaces=2.0&SlideOnLid_bottom_lip=0.0&SlideOnLid_edge_width=1.0&SlideOnLid_extra_length=0.0&SlideOnLid_finger=3.0&SlideOnLid_play=0.05&SlideOnLid_space=2.0&SlideOnLid_width=1.0&Click_angle=5.0&Click_bottom_radius=0.1&Click_depth=3.0&RoundedTriangleEdge_height=50.0&RoundedTriangleEdge_r_hole=2.0&RoundedTriangleEdge_radius=30.0&RoundedTriangleEdge_outset=1.0&Mounting_d_head=6.5&Mounting_d_shaft=3.0&Mounting_margin=0.125&Mounting_num=2&Mounting_side=back&Mounting_style=straight+edge%2C+within&HandleEdge_height=20.0&HandleEdge_hole_height=75.0&HandleEdge_hole_width=40%3A40&HandleEdge_on_sides=0&HandleEdge_on_sides=1&HandleEdge_radius=10.0&HandleEdge_outset=1.0&Flex_stretch=1.05&Flex_connection=1.0&Flex_distance=0.5&Flex_width=5.0&Lid_handle=none&Lid_style=none&Lid_handle_height=8.0&Lid_height=4.0&Lid_play=0.1&top_edge=S&bottom_edge=s&x=210&y=270&h=70&outside=0&outside=1&vertical_edges=finger+joints&thickness=3.0&burn=0.1&format=svg&labels=0&labels=1&reference=100.0&tabs=0.0&qr_code=0&inner_corners=loop&spacing=0.5&debug=0&language=en&render=2
Url short: https://boxes.hackerspace-bamberg.de/UniversalBox?Stackable_bottom_stabilizers=2&top_edge=S&bottom_edge=s&x=210&y=270&h=70&spacing=0.5
SettingsUrl: https://boxes.hackerspace-bamberg.de/UniversalBox?FingerJoint_style=rectangular&FingerJoint_surroundingspaces=2.0&FingerJoint_bottom_lip=0.0&FingerJoint_edge_width=1.0&FingerJoint_extra_length=0.0&FingerJoint_finger=2&FingerJoint_play=0.0&FingerJoint_space=2&FingerJoint_width=1.0&Stackable_angle=60&Stackable_bottom_stabilizers=2&Stackable_height=2.0&Stackable_holedistance=1.0&Stackable_width=4.0&Hinge_grip_percentage=0&Hinge_outset=0&Hinge_outset=1&Hinge_pinwidth=0.5&Hinge_axle=2.0&Hinge_grip_length=0&Hinge_hingestrength=1&CabinetHinge_bore=3.2&CabinetHinge_eyes_per_hinge=5&CabinetHinge_hinges=2&CabinetHinge_style=inside&CabinetHinge_eye=1.5&CabinetHinge_play=0.05&CabinetHinge_spacing=2.0&SlideOnLid_hole_width=0&SlideOnLid_second_pin=0&SlideOnLid_second_pin=1&SlideOnLid_spring=both&SlideOnLid_style=rectangular&SlideOnLid_surroundingspaces=2.0&SlideOnLid_bottom_lip=0.0&SlideOnLid_edge_width=1.0&SlideOnLid_extra_length=0.0&SlideOnLid_finger=3.0&SlideOnLid_play=0.05&SlideOnLid_space=2.0&SlideOnLid_width=1.0&Click_angle=5.0&Click_bottom_radius=0.1&Click_depth=3.0&RoundedTriangleEdge_height=50.0&RoundedTriangleEdge_r_hole=2.0&RoundedTriangleEdge_radius=30.0&RoundedTriangleEdge_outset=1.0&Mounting_d_head=6.5&Mounting_d_shaft=3.0&Mounting_margin=0.125&Mounting_num=2&Mounting_side=back&Mounting_style=straight+edge%2C+within&HandleEdge_height=20.0&HandleEdge_hole_height=75.0&HandleEdge_hole_width=40%3A40&HandleEdge_on_sides=0&HandleEdge_on_sides=1&HandleEdge_radius=10.0&HandleEdge_outset=1.0&Flex_stretch=1.05&Flex_connection=1.0&Flex_distance=0.5&Flex_width=5.0&Lid_handle=none&Lid_style=none&Lid_handle_height=8.0&Lid_height=4.0&Lid_play=0.1&top_edge=S&bottom_edge=s&x=210&y=270&h=70&outside=0&outside=1&vertical_edges=finger+joints&thickness=3.0&burn=0.1&format=svg&labels=0&labels=1&reference=100.0&tabs=0.0&qr_code=0&inner_corners=loop&spacing=0.5&debug=0&language=en&render=2
SettingsUrl short: https://boxes.hackerspace-bamberg.de/UniversalBox?Stackable_bottom_stabilizers=2&top_edge=S&bottom_edge=s&x=210&y=270&h=70&spacing=0.5
-->
<title>UniversalBox</title>
<metadata>
<rdf:RDF><cc:Work>
<dc:title>Box - UniversalBox</dc:title>
<dc:date>2026-03-16 02:41:08</dc:date>
<dc:source>https://boxes.hackerspace-bamberg.de/UniversalBox?FingerJoint_style=rectangular&amp;FingerJoint_surroundingspaces=2.0&amp;FingerJoint_bottom_lip=0.0&amp;FingerJoint_edge_width=1.0&amp;FingerJoint_extra_length=0.0&amp;FingerJoint_finger=2&amp;FingerJoint_play=0.0&amp;FingerJoint_space=2&amp;FingerJoint_width=1.0&amp;Stackable_angle=60&amp;Stackable_bottom_stabilizers=2&amp;Stackable_height=2.0&amp;Stackable_holedistance=1.0&amp;Stackable_width=4.0&amp;Hinge_grip_percentage=0&amp;Hinge_outset=0&amp;Hinge_outset=1&amp;Hinge_pinwidth=0.5&amp;Hinge_axle=2.0&amp;Hinge_grip_length=0&amp;Hinge_hingestrength=1&amp;CabinetHinge_bore=3.2&amp;CabinetHinge_eyes_per_hinge=5&amp;CabinetHinge_hinges=2&amp;CabinetHinge_style=inside&amp;CabinetHinge_eye=1.5&amp;CabinetHinge_play=0.05&amp;CabinetHinge_spacing=2.0&amp;SlideOnLid_hole_width=0&amp;SlideOnLid_second_pin=0&amp;SlideOnLid_second_pin=1&amp;SlideOnLid_spring=both&amp;SlideOnLid_style=rectangular&amp;SlideOnLid_surroundingspaces=2.0&amp;SlideOnLid_bottom_lip=0.0&amp;SlideOnLid_edge_width=1.0&amp;SlideOnLid_extra_length=0.0&amp;SlideOnLid_finger=3.0&amp;SlideOnLid_play=0.05&amp;SlideOnLid_space=2.0&amp;SlideOnLid_width=1.0&amp;Click_angle=5.0&amp;Click_bottom_radius=0.1&amp;Click_depth=3.0&amp;RoundedTriangleEdge_height=50.0&amp;RoundedTriangleEdge_r_hole=2.0&amp;RoundedTriangleEdge_radius=30.0&amp;RoundedTriangleEdge_outset=1.0&amp;Mounting_d_head=6.5&amp;Mounting_d_shaft=3.0&amp;Mounting_margin=0.125&amp;Mounting_num=2&amp;Mounting_side=back&amp;Mounting_style=straight+edge%2C+within&amp;HandleEdge_height=20.0&amp;HandleEdge_hole_height=75.0&amp;HandleEdge_hole_width=40%3A40&amp;HandleEdge_on_sides=0&amp;HandleEdge_on_sides=1&amp;HandleEdge_radius=10.0&amp;HandleEdge_outset=1.0&amp;Flex_stretch=1.05&amp;Flex_connection=1.0&amp;Flex_distance=0.5&amp;Flex_width=5.0&amp;Lid_handle=none&amp;Lid_style=none&amp;Lid_handle_height=8.0&amp;Lid_height=4.0&amp;Lid_play=0.1&amp;top_edge=S&amp;bottom_edge=s&amp;x=210&amp;y=270&amp;h=70&amp;outside=0&amp;outside=1&amp;vertical_edges=finger+joints&amp;thickness=3.0&amp;burn=0.1&amp;format=svg&amp;labels=0&amp;labels=1&amp;reference=100.0&amp;tabs=0.0&amp;qr_code=0&amp;inner_corners=loop&amp;spacing=0.5&amp;debug=0&amp;language=en&amp;render=2</dc:source>
<dc:source>https://boxes.hackerspace-bamberg.de/UniversalBox?Stackable_bottom_stabilizers=2&amp;top_edge=S&amp;bottom_edge=s&amp;x=210&amp;y=270&amp;h=70&amp;spacing=0.5</dc:source>
<dc:description>Box with various options for different styles and lids

Created with Boxes.py (https://boxes.hackerspace-bamberg.de/)
Command line: boxes UniversalBox --FingerJoint_style=rectangular --FingerJoint_surroundingspaces=2.0 --FingerJoint_bottom_lip=0.0 --FingerJoint_edge_width=1.0 --FingerJoint_extra_length=0.0 --FingerJoint_finger=2 --FingerJoint_play=0.0 --FingerJoint_space=2 --FingerJoint_width=1.0 --Stackable_angle=60 --Stackable_bottom_stabilizers=2 --Stackable_height=2.0 --Stackable_holedistance=1.0 --Stackable_width=4.0 --Hinge_grip_percentage=0 --Hinge_outset=0 --Hinge_outset=1 --Hinge_pinwidth=0.5 --Hinge_axle=2.0 --Hinge_grip_length=0 --Hinge_hingestrength=1 --CabinetHinge_bore=3.2 --CabinetHinge_eyes_per_hinge=5 --CabinetHinge_hinges=2 --CabinetHinge_style=inside --CabinetHinge_eye=1.5 --CabinetHinge_play=0.05 --CabinetHinge_spacing=2.0 --SlideOnLid_hole_width=0 --SlideOnLid_second_pin=0 --SlideOnLid_second_pin=1 --SlideOnLid_spring=both --SlideOnLid_style=rectangular --SlideOnLid_surroundingspaces=2.0 --SlideOnLid_bottom_lip=0.0 --SlideOnLid_edge_width=1.0 --SlideOnLid_extra_length=0.0 --SlideOnLid_finger=3.0 --SlideOnLid_play=0.05 --SlideOnLid_space=2.0 --SlideOnLid_width=1.0 --Click_angle=5.0 --Click_bottom_radius=0.1 --Click_depth=3.0 --RoundedTriangleEdge_height=50.0 --RoundedTriangleEdge_r_hole=2.0 --RoundedTriangleEdge_radius=30.0 --RoundedTriangleEdge_outset=1.0 --Mounting_d_head=6.5 --Mounting_d_shaft=3.0 --Mounting_margin=0.125 --Mounting_num=2 --Mounting_side=back '--Mounting_style=straight edge, within' --HandleEdge_height=20.0 --HandleEdge_hole_height=75.0 --HandleEdge_hole_width=40:40 --HandleEdge_on_sides=0 --HandleEdge_on_sides=1 --HandleEdge_radius=10.0 --HandleEdge_outset=1.0 --Flex_stretch=1.05 --Flex_connection=1.0 --Flex_distance=0.5 --Flex_width=5.0 --Lid_handle=none --Lid_style=none --Lid_handle_height=8.0 --Lid_height=4.0 --Lid_play=0.1 --top_edge=S --bottom_edge=s --x=210 --y=270 --h=70 --outside=0 --outside=1 '--vertical_edges=finger joints' --thickness=3.0 --burn=0.1 --format=svg --labels=0 --labels=1 --reference=100.0 --tabs=0.0 --qr_code=0 --inner_corners=loop --spacing=0.5 --debug=0
Command line short: boxes UniversalBox --Stackable_bottom_stabilizers=2 --top_edge=S --bottom_edge=s --x=210 --y=270 --h=70 --spacing=0.5
Url: https://boxes.hackerspace-bamberg.de/UniversalBox?FingerJoint_style=rectangular&amp;FingerJoint_surroundingspaces=2.0&amp;FingerJoint_bottom_lip=0.0&amp;FingerJoint_edge_width=1.0&amp;FingerJoint_extra_length=0.0&amp;FingerJoint_finger=2&amp;FingerJoint_play=0.0&amp;FingerJoint_space=2&amp;FingerJoint_width=1.0&amp;Stackable_angle=60&amp;Stackable_bottom_stabilizers=2&amp;Stackable_height=2.0&amp;Stackable_holedistance=1.0&amp;Stackable_width=4.0&amp;Hinge_grip_percentage=0&amp;Hinge_outset=0&amp;Hinge_outset=1&amp;Hinge_pinwidth=0.5&amp;Hinge_axle=2.0&amp;Hinge_grip_length=0&amp;Hinge_hingestrength=1&amp;CabinetHinge_bore=3.2&amp;CabinetHinge_eyes_per_hinge=5&amp;CabinetHinge_hinges=2&amp;CabinetHinge_style=inside&amp;CabinetHinge_eye=1.5&amp;CabinetHinge_play=0.05&amp;CabinetHinge_spacing=2.0&amp;SlideOnLid_hole_width=0&amp;SlideOnLid_second_pin=0&amp;SlideOnLid_second_pin=1&amp;SlideOnLid_spring=both&amp;SlideOnLid_style=rectangular&amp;SlideOnLid_surroundingspaces=2.0&amp;SlideOnLid_bottom_lip=0.0&amp;SlideOnLid_edge_width=1.0&amp;SlideOnLid_extra_length=0.0&amp;SlideOnLid_finger=3.0&amp;SlideOnLid_play=0.05&amp;SlideOnLid_space=2.0&amp;SlideOnLid_width=1.0&amp;Click_angle=5.0&amp;Click_bottom_radius=0.1&amp;Click_depth=3.0&amp;RoundedTriangleEdge_height=50.0&amp;RoundedTriangleEdge_r_hole=2.0&amp;RoundedTriangleEdge_radius=30.0&amp;RoundedTriangleEdge_outset=1.0&amp;Mounting_d_head=6.5&amp;Mounting_d_shaft=3.0&amp;Mounting_margin=0.125&amp;Mounting_num=2&amp;Mounting_side=back&amp;Mounting_style=straight+edge%2C+within&amp;HandleEdge_height=20.0&amp;HandleEdge_hole_height=75.0&amp;HandleEdge_hole_width=40%3A40&amp;HandleEdge_on_sides=0&amp;HandleEdge_on_sides=1&amp;HandleEdge_radius=10.0&amp;HandleEdge_outset=1.0&amp;Flex_stretch=1.05&amp;Flex_connection=1.0&amp;Flex_distance=0.5&amp;Flex_width=5.0&amp;Lid_handle=none&amp;Lid_style=none&amp;Lid_handle_height=8.0&amp;Lid_height=4.0&amp;Lid_play=0.1&amp;top_edge=S&amp;bottom_edge=s&amp;x=210&amp;y=270&amp;h=70&amp;outside=0&amp;outside=1&amp;vertical_edges=finger+joints&amp;thickness=3.0&amp;burn=0.1&amp;format=svg&amp;labels=0&amp;labels=1&amp;reference=100.0&amp;tabs=0.0&amp;qr_code=0&amp;inner_corners=loop&amp;spacing=0.5&amp;debug=0&amp;language=en&amp;render=2
Url short: https://boxes.hackerspace-bamberg.de/UniversalBox?Stackable_bottom_stabilizers=2&amp;top_edge=S&amp;bottom_edge=s&amp;x=210&amp;y=270&amp;h=70&amp;spacing=0.5
SettingsUrl: https://boxes.hackerspace-bamberg.de/UniversalBox?FingerJoint_style=rectangular&amp;FingerJoint_surroundingspaces=2.0&amp;FingerJoint_bottom_lip=0.0&amp;FingerJoint_edge_width=1.0&amp;FingerJoint_extra_length=0.0&amp;FingerJoint_finger=2&amp;FingerJoint_play=0.0&amp;FingerJoint_space=2&amp;FingerJoint_width=1.0&amp;Stackable_angle=60&amp;Stackable_bottom_stabilizers=2&amp;Stackable_height=2.0&amp;Stackable_holedistance=1.0&amp;Stackable_width=4.0&amp;Hinge_grip_percentage=0&amp;Hinge_outset=0&amp;Hinge_outset=1&amp;Hinge_pinwidth=0.5&amp;Hinge_axle=2.0&amp;Hinge_grip_length=0&amp;Hinge_hingestrength=1&amp;CabinetHinge_bore=3.2&amp;CabinetHinge_eyes_per_hinge=5&amp;CabinetHinge_hinges=2&amp;CabinetHinge_style=inside&amp;CabinetHinge_eye=1.5&amp;CabinetHinge_play=0.05&amp;CabinetHinge_spacing=2.0&amp;SlideOnLid_hole_width=0&amp;SlideOnLid_second_pin=0&amp;SlideOnLid_second_pin=1&amp;SlideOnLid_spring=both&amp;SlideOnLid_style=rectangular&amp;SlideOnLid_surroundingspaces=2.0&amp;SlideOnLid_bottom_lip=0.0&amp;SlideOnLid_edge_width=1.0&amp;SlideOnLid_extra_length=0.0&amp;SlideOnLid_finger=3.0&amp;SlideOnLid_play=0.05&amp;SlideOnLid_space=2.0&amp;SlideOnLid_width=1.0&amp;Click_angle=5.0&amp;Click_bottom_radius=0.1&amp;Click_depth=3.0&amp;RoundedTriangleEdge_height=50.0&amp;RoundedTriangleEdge_r_hole=2.0&amp;RoundedTriangleEdge_radius=30.0&amp;RoundedTriangleEdge_outset=1.0&amp;Mounting_d_head=6.5&amp;Mounting_d_shaft=3.0&amp;Mounting_margin=0.125&amp;Mounting_num=2&amp;Mounting_side=back&amp;Mounting_style=straight+edge%2C+within&amp;HandleEdge_height=20.0&amp;HandleEdge_hole_height=75.0&amp;HandleEdge_hole_width=40%3A40&amp;HandleEdge_on_sides=0&amp;HandleEdge_on_sides=1&amp;HandleEdge_radius=10.0&amp;HandleEdge_outset=1.0&amp;Flex_stretch=1.05&amp;Flex_connection=1.0&amp;Flex_distance=0.5&amp;Flex_width=5.0&amp;Lid_handle=none&amp;Lid_style=none&amp;Lid_handle_height=8.0&amp;Lid_height=4.0&amp;Lid_play=0.1&amp;top_edge=S&amp;bottom_edge=s&amp;x=210&amp;y=270&amp;h=70&amp;outside=0&amp;outside=1&amp;vertical_edges=finger+joints&amp;thickness=3.0&amp;burn=0.1&amp;format=svg&amp;labels=0&amp;labels=1&amp;reference=100.0&amp;tabs=0.0&amp;qr_code=0&amp;inner_corners=loop&amp;spacing=0.5&amp;debug=0&amp;language=en&amp;render=2
SettingsUrl short: https://boxes.hackerspace-bamberg.de/UniversalBox?Stackable_bottom_stabilizers=2&amp;top_edge=S&amp;bottom_edge=s&amp;x=210&amp;y=270&amp;h=70&amp;spacing=0.5
</dc:description>
</cc:Work></rdf:RDF></metadata>
<g id="p-0" style="fill:none;stroke-linecap:round;stroke-linejoin:round;">
  <path d="M 10.100 435.300 H 110.100 V 425.300 H 10.100 V 435.300 Z" stroke="rgb(0,0,0)" stroke-width="0.20" />
  <text dominant-baseline="hanging" font-size="6px" style="font-family: sans-serif ; font-weight: normal; font-style: normal; fill: rgb(255,0,0)" text-anchor="middle" transform="matrix( 1.000 0.000 0.000 1.000 60.100 427.300 )">100.0mm, burn:0.10mm</text>
</g>
<g id="p-1" style="fill:none;stroke-linecap:round;stroke-linejoin:round;">
  <path d="M 25.100 406.800 H 22.200 C 22.100 406.800 22.200 406.900 22.200 406.800 V 404.000 C 22.200 403.900 22.100 404.000 22.200 404.000 H 28.000 C 28.100 404.000 28.000 403.900 28.000 404.000 V 406.800 C 28.000 406.900 28.100 406.800 28.000 406.800 H 25.100 Z" stroke="rgb(0,0,255)" stroke-width="0.20" />
  <path d="M 37.100 406.800 H 34.200 C 34.100 406.800 34.200 406.900 34.200 406.800 V 404.000 C 34.200 403.900 34.100 404.000 34.200 404.000 H 40.000 C 40.100 404.000 40.000 403.900 40.000 404.000 V 406.800 C 40.000 406.900 40.100 406.800 40.000 406.800 H 37.100 Z" stroke="rgb(0,0,255)" stroke-width="0.20" />
  <path d="M 49.100 406.800 H 46.200 C 46.100 406.800 46.200 406.900 46.200 406.800 V 404.000 C 46.200 403.900 46.100 404.000 46.200 404.000 H 52.000 C 52.100 404.000 52.000 403.900 52.000 404.000 V 406.800 C 52.000 406.900 52.100 406.800 52.000 406.800 H 49.100 Z" stroke="rgb(0,0,255)" stroke-width="0.20" />
  <path d="M 61.100 406.800 H 58.200 C 58.100 406.800 58.200 406.900 58.200 406.800 V 404.000 C 58.200 403.900 58.100 404.000 58.200 404.000 H 64.000 C 64.100 404.000 64.000 403.900 64.000 404.000 V 406.800 C 64.000 406.900 64.100 406.800 64.000 406.800 H 61.100 Z" stroke="rgb(0,0,255)" stroke-width="0.20" />
  <path d="M 73.100 406.800 H 70.200 C 70.100 406.800 70.200 406.900 70.200 406.800 V 404.000 C 70.200 403.900 70.100 404.000 70.200 404.000 H 76.000 C 76.100 404.000 76.000 403.900 76.000 404.000 V 406.800 C 76.000 406.900 76.100 406.800 76.000 406.800 H 73.100 Z" stroke="rgb(0,0,255)" stroke-width="0.20" />
  <path d="M 85.100 406.800 H 82.200 C 82.100 406.800 82.200 406.900 82.200 406.800 V 404.000 C 82.200 403.900 82.100 404.000 82.200 404.000 H 88.000 C 88.100 404.000 88.000 403.900 88.000 404.000 V 406.800 C 88.000 406.900 88.100 406.800 88.000 406.800 H 85.100 Z" stroke="rgb(0,0,255)" stroke-width="0.20" />
  <path d="M 97.100 406.800 H 94.200 C 94.100 406.800 94.200 406.900 94.200 406.800 V 404.000 C 94.200 403.900 94.100 404.000 94.200 404.000 H 100.000 C 100.100 404.000 100.000 403.900 100.000 404.000 V 406.800 C 100.000 406.900 100.100 406.800 100.000 406.800 H 97.100 Z" stroke="rgb(0,0,255)" stroke-width="0.20" />
  <path d="M 109.100 406.800 H 106.200 C 106.100 406.800 106.200 406.900 106.200 406.800 V 404.000 C 106.200 403.900 106.100 404.000 106.200 404.000 H 112.000 C 112.100 404.000 112.000 403.900 112.000 404.000 V 406.800 C 112.000 406.900 112.100 406.800 112.000 406.800 H 109.100 Z" stroke="rgb(0,0,255)" stroke-width="0.20" />
  <path d="M 121.100 406.800 H 118.200 C 118.100 406.800 118.200 406.900 118.200 406.800 V 404.000 C 118.200 403.900 118.100 404.000 118.200 404.000 H 124.000 C 124.100 404.000 124.000 403.900 124.000 404.000 V 406.800 C 124.000 406.900 124.100 406.800 124.000 406.800 H 121.100 Z" stroke="rgb(0,0,255)" stroke-width="0.20" />
  <path d="M 133.100 406.800 H 130.200 C 130.100 406.800 130.200 406.900 130.200 406.800 V 404.000 C 130.200 403.900 130.100 404.000 130.200 404.000 H 136.000 C 136.100 404.000 136.000 403.900 136.000 404.000 V 406.800 C 136.000 406.900 136.100 406.800 136.000 406.800 H 133.100 Z" stroke="rgb(0,0,255)" stroke-width="0.20" />
  <path d="M 145.100 406.800 H 142.200 C 142.100 406.800 142.200 406.900 142.200 406.800 V 404.000 C 142.200 403.900 142.100 404.000 142.200 404.000 H 148.000 C 148.100 404.000 148.000 403.900 148.000 404.000 V 406.800 C 148.000 406.900 148.100 406.800 148.000 406.800 H 145.100 Z" stroke="rgb(0,0,255)" stroke-width="0.20" />
  <path d="M 157.100 406.800 H 154.200 C 154.100 406.800 154.200 406.900 154.200 406.800 V 404.000 C 154.200 403.900 154.100 404.000 154.200 404.000 H 160.000 C 160.100 404.000 160.000 403.900 160.000 404.000 V 406.800 C 160.000 406.900 160.100 406.800 160.000 406.800 H 157.100 Z" stroke="rgb(0,0,255)" stroke-width="0.20" />
  <path d="M 169.100 406.800 H 166.200 C 166.100 406.800 166.200 406.900 166.200 406.800 V 404.000 C 166.200 403.900 166.100 404.000 166.200 404.000 H 172.000 C 172.100 404.000 172.000 403.900 172.000 404.000 V 406.800 C 172.000 406.900 172.100 406.800 172.000 406.800 H 169.100 Z" stroke="rgb(0,0,255)" stroke-width="0.20" />
  <path d="M 181.100 406.800 H 178.200 C 178.100 406.800 178.200 406.900 178.200 406.800 V 404.000 C 178.200 403.900 178.100 404.000 178.200 404.000 H 184.000 C 184.100 404.000 184.000 403.900 184.000 404.000 V 406.800 C 184.000 406.900 184.100 406.800 184.000 406.800 H 181.100 Z" stroke="rgb(0,0,255)" stroke-width="0.20" />
  <path d="M 193.100 406.800 H 190.200 C 190.100 406.800 190.200 406.900 190.200 406.800 V 404.000 C 190.200 403.900 190.100 404.000 190.200 404.000 H 196.000 C 196.100 404.000 196.000 403.900 196.000 404.000 V 406.800 C 196.000 406.900 196.100 406.800 196.000 406.800 H 193.100 Z" stroke="rgb(0,0,255)" stroke-width="0.20" />
  <path d="M 205.100 406.800 H 202.200 C 202.100 406.800 202.200 406.900 202.200 406.800 V 404.000 C 202.200 403.900 202.100 404.000 202.200 404.000 H 208.000 C 208.100 404.000 208.000 403.900 208.000 404.000 V 406.800 C 208.000 406.900 208.100 406.800 208.000 406.800 H 205.100 Z" stroke="rgb(0,0,255)" stroke-width="0.20" />
</g>
<g id="p-2" style="fill:none;stroke-linecap:round;stroke-linejoin:round;">
  <path d="M 13.100 422.750 H 213.950 C 214.005 422.750 214.050 422.705 214.050 422.650 V 416.650 C 214.050 416.595 214.005 416.550 213.950 416.550 H 13.100 C 13.045 416.550 13.000 416.595 13.000 416.650 V 422.650 C 13.000 422.705 13.045 422.750 13.100 422.750 Z" stroke="rgb(0,0,0)" stroke-width="0.20" />
</g>
<g id="p-3" style="fill:none;stroke-linecap:round;stroke-linejoin:round;">
  <path d="M 13.100 415.900 H 25.100 C 26.171 415.900 27.223 415.618 28.150 415.083 C 29.077 414.547 29.847 413.777 30.383 412.850 C 30.901 411.953 31.645 411.208 32.542 410.690 C 33.439 410.173 34.457 409.900 35.492 409.900 H 194.708 C 195.743 409.900 196.761 410.173 197.658 410.690 C 198.555 411.208 199.299 411.953 199.817 412.850 C 200.353 413.777 201.123 414.547 202.050 415.083 C 202.977 415.618 204.029 415.900 205.100 415.900 H 217.100 H 220.100 C 220.155 415.900 220.200 415.855 220.200 415.800 V 408.650 C 220.200 408.595 220.155 408.550 220.100 408.550 H 217.200 C 217.100 408.550 217.200 408.650 217.200 408.550 V 402.750 C 217.200 402.650 217.100 402.750 217.200 402.750 H 220.100 C 220.155 402.750 220.200 402.705 220.200 402.650 V 396.650 C 220.200 396.595 220.155 396.550 220.100 396.550 H 217.200 C 217.100 396.550 217.200 396.650 217.200 396.550 V 390.750 C 217.200 390.650 217.100 390.750 217.200 390.750 H 220.100 C 220.155 390.750 220.200 390.705 220.200 390.650 V 384.650 C 220.200 384.595 220.155 384.550 220.100 384.550 H 217.200 C 217.100 384.550 217.200 384.650 217.200 384.550 V 378.750 C 217.200 378.650 217.100 378.750 217.200 378.750 H 220.100 C 220.155 378.750 220.200 378.705 220.200 378.650 V 372.650 C 220.200 372.595 220.155 372.550 220.100 372.550 H 217.200 C 217.100 372.550 217.200 372.650 217.200 372.550 V 366.750 C 217.200 366.650 217.100 366.750 217.200 366.750 H 220.100 C 220.155 366.750 220.200 366.705 220.200 366.650 V 359.500 C 220.200 359.445 220.155 359.400 220.100 359.400 H 217.100 H 205.100 C 204.064 359.400 203.047 359.127 202.150 358.610 C 201.253 358.092 200.508 357.347 199.990 356.450 C 199.455 355.523 198.685 354.753 197.758 354.217 C 196.830 353.682 195.778 353.400 194.708 353.400 H 35.492 C 34.422 353.400 33.370 353.682 32.442 354.217 C 31.515 354.753 30.745 355.523 30.210 356.450 C 29.692 357.347 28.947 358.092 28.050 358.610 C 27.153 359.127 26.136 359.400 25.100 359.400 H 13.100 H 10.100 C 10.045 359.400 10.000 359.445 10.000 359.500 V 366.650 C 10.000 366.705 10.045 366.750 10.100 366.750 H 13.000 C 13.100 366.750 13.000 366.650 13.000 366.750 V 372.550 C 13.000 372.650 13.100 372.550 13.000 372.550 H 10.100 C 10.045 372.550 10.000 372.595 10.000 372.650 V 378.650 C 10.000 378.705 10.045 378.750 10.100 378.750 H 13.000 C 13.100 378.750 13.000 378.650 13.000 378.750 V 384.550 C 13.000 384.650 13.100 384.550 13.000 384.550 H 10.100 C 10.045 384.550 10.000 384.595 10.000 384.650 V 390.650 C 10.000 390.705 10.045 390.750 10.100 390.750 H 13.000 C 13.100 390.750 13.000 390.650 13.000 390.750 V 396.550 C 13.000 396.650 13.100 396.550 13.000 396.550 H 10.100 C 10.045 396.550 10.000 396.595 10.000 396.650 V 402.650 C 10.000 402.705 10.045 402.750 10.100 402.750 H 13.000 C 13.100 402.750 13.000 402.650 13.000 402.750 V 408.550 C 13.000 408.650 13.100 408.550 13.000 408.550 H 10.100 C 10.045 408.550 10.000 408.595 10.000 408.650 V 415.800 C 10.000 415.855 10.045 415.900 10.100 415.900 H 13.100 Z" stroke="rgb(0,0,0)" stroke-width="0.20" />
  <text dominant-baseline="hanging" font-size="4px" style="font-family: sans-serif ; font-weight: normal; font-style: normal; fill: rgb(255,0,0)" text-anchor="middle" transform="matrix( 1.000 0.000 0.000 1.000 115.100 386.600 )">front</text>
</g>
<g id="p-4" style="fill:none;stroke-linecap:round;stroke-linejoin:round;">
  <path d="M 25.100 335.100 H 22.200 C 22.100 335.100 22.200 335.200 22.200 335.100 V 332.300 C 22.200 332.200 22.100 332.300 22.200 332.300 H 28.000 C 28.100 332.300 28.000 332.200 28.000 332.300 V 335.100 C 28.000 335.200 28.100 335.100 28.000 335.100 H 25.100 Z" stroke="rgb(0,0,255)" stroke-width="0.20" />
  <path d="M 37.100 335.100 H 34.200 C 34.100 335.100 34.200 335.200 34.200 335.100 V 332.300 C 34.200 332.200 34.100 332.300 34.200 332.300 H 40.000 C 40.100 332.300 40.000 332.200 40.000 332.300 V 335.100 C 40.000 335.200 40.100 335.100 40.000 335.100 H 37.100 Z" stroke="rgb(0,0,255)" stroke-width="0.20" />
  <path d="M 49.100 335.100 H 46.200 C 46.100 335.100 46.200 335.200 46.200 335.100 V 332.300 C 46.200 332.200 46.100 332.300 46.200 332.300 H 52.000 C 52.100 332.300 52.000 332.200 52.000 332.300 V 335.100 C 52.000 335.200 52.100 335.100 52.000 335.100 H 49.100 Z" stroke="rgb(0,0,255)" stroke-width="0.20" />
  <path d="M 61.100 335.100 H 58.200 C 58.100 335.100 58.200 335.200 58.200 335.100 V 332.300 C 58.200 332.200 58.100 332.300 58.200 332.300 H 64.000 C 64.100 332.300 64.000 332.200 64.000 332.300 V 335.100 C 64.000 335.200 64.100 335.100 64.000 335.100 H 61.100 Z" stroke="rgb(0,0,255)" stroke-width="0.20" />
  <path d="M 73.100 335.100 H 70.200 C 70.100 335.100 70.200 335.200 70.200 335.100 V 332.300 C 70.200 332.200 70.100 332.300 70.200 332.300 H 76.000 C 76.100 332.300 76.000 332.200 76.000 332.300 V 335.100 C 76.000 335.200 76.100 335.100 76.000 335.100 H 73.100 Z" stroke="rgb(0,0,255)" stroke-width="0.20" />
  <path d="M 85.100 335.100 H 82.200 C 82.100 335.100 82.200 335.200 82.200 335.100 V 332.300 C 82.200 332.200 82.100 332.300 82.200 332.300 H 88.000 C 88.100 332.300 88.000 332.200 88.000 332.300 V 335.100 C 88.000 335.200 88.100 335.100 88.000 335.100 H 85.100 Z" stroke="rgb(0,0,255)" stroke-width="0.20" />
  <path d="M 97.100 335.100 H 94.200 C 94.100 335.100 94.200 335.200 94.200 335.100 V 332.300 C 94.200 332.200 94.100 332.300 94.200 332.300 H 100.000 C 100.100 332.300 100.000 332.200 100.000 332.300 V 335.100 C 100.000 335.200 100.100 335.100 100.000 335.100 H 97.100 Z" stroke="rgb(0,0,255)" stroke-width="0.20" />
  <path d="M 109.100 335.100 H 106.200 C 106.100 335.100 106.200 335.200 106.200 335.100 V 332.300 C 106.200 332.200 106.100 332.300 106.200 332.300 H 112.000 C 112.100 332.300 112.000 332.200 112.000 332.300 V 335.100 C 112.000 335.200 112.100 335.100 112.000 335.100 H 109.100 Z" stroke="rgb(0,0,255)" stroke-width="0.20" />
  <path d="M 121.100 335.100 H 118.200 C 118.100 335.100 118.200 335.200 118.200 335.100 V 332.300 C 118.200 332.200 118.100 332.300 118.200 332.300 H 124.000 C 124.100 332.300 124.000 332.200 124.000 332.300 V 335.100 C 124.000 335.200 124.100 335.100 124.000 335.100 H 121.100 Z" stroke="rgb(0,0,255)" stroke-width="0.20" />
  <path d="M 133.100 335.100 H 130.200 C 130.100 335.100 130.200 335.200 130.200 335.100 V 332.300 C 130.200 332.200 130.100 332.300 130.200 332.300 H 136.000 C 136.100 332.300 136.000 332.200 136.000 332.300 V 335.100 C 136.000 335.200 136.100 335.100 136.000 335.100 H 133.100 Z" stroke="rgb(0,0,255)" stroke-width="0.20" />
  <path d="M 145.100 335.100 H 142.200 C 142.100 335.100 142.200 335.200 142.200 335.100 V 332.300 C 142.200 332.200 142.100 332.300 142.200 332.300 H 148.000 C 148.100 332.300 148.000 332.200 148.000 332.300 V 335.100 C 148.000 335.200 148.100 335.100 148.000 335.100 H 145.100 Z" stroke="rgb(0,0,255)" stroke-width="0.20" />
  <path d="M 157.100 335.100 H 154.200 C 154.100 335.100 154.200 335.200 154.200 335.100 V 332.300 C 154.200 332.200 154.100 332.300 154.200 332.300 H 160.000 C 160.100 332.300 160.000 332.200 160.000 332.300 V 335.100 C 160.000 335.200 160.100 335.100 160.000 335.100 H 157.100 Z" stroke="rgb(0,0,255)" stroke-width="0.20" />
  <path d="M 169.100 335.100 H 166.200 C 166.100 335.100 166.200 335.200 166.200 335.100 V 332.300 C 166.200 332.200 166.100 332.300 166.200 332.300 H 172.000 C 172.100 332.300 172.000 332.200 172.000 332.300 V 335.100 C 172.000 335.200 172.100 335.100 172.000 335.100 H 169.100 Z" stroke="rgb(0,0,255)" stroke-width="0.20" />
  <path d="M 181.100 335.100 H 178.200 C 178.100 335.100 178.200 335.200 178.200 335.100 V 332.300 C 178.200 332.200 178.100 332.300 178.200 332.300 H 184.000 C 184.100 332.300 184.000 332.200 184.000 332.300 V 335.100 C 184.000 335.200 184.100 335.100 184.000 335.100 H 181.100 Z" stroke="rgb(0,0,255)" stroke-width="0.20" />
  <path d="M 193.100 335.100 H 190.200 C 190.100 335.100 190.200 335.200 190.200 335.100 V 332.300 C 190.200 332.200 190.100 332.300 190.200 332.300 H 196.000 C 196.100 332.300 196.000 332.200 196.000 332.300 V 335.100 C 196.000 335.200 196.100 335.100 196.000 335.100 H 193.100 Z" stroke="rgb(0,0,255)" stroke-width="0.20" />
  <path d="M 205.100 335.100 H 202.200 C 202.100 335.100 202.200 335.200 202.200 335.100 V 332.300 C 202.200 332.200 202.100 332.300 202.200 332.300 H 208.000 C 208.100 332.300 208.000 332.200 208.000 332.300 V 335.100 C 208.000 335.200 208.100 335.100 208.000 335.100 H 205.100 Z" stroke="rgb(0,0,255)" stroke-width="0.20" />
</g>
<g id="p-5" style="fill:none;stroke-linecap:round;stroke-linejoin:round;">
  <path d="M 13.100 351.050 H 213.950 C 214.005 351.050 214.050 351.005 214.050 350.950 V 344.950 C 214.050 344.895 214.005 344.850 213.950 344.850 H 13.100 C 13.045 344.850 13.000 344.895 13.000 344.950 V 350.950 C 13.000 351.005 13.045 351.050 13.100 351.050 Z" stroke="rgb(0,0,0)" stroke-width="0.20" />
</g>
<g id="p-6" style="fill:none;stroke-linecap:round;stroke-linejoin:round;">
  <path d="M 13.100 344.200 H 25.100 C 26.171 344.200 27.223 343.918 28.150 343.383 C 29.077 342.847 29.847 342.077 30.383 341.150 C 30.901 340.253 31.645 339.508 32.542 338.990 C 33.439 338.473 34.457 338.200 35.492 338.200 H 194.708 C 195.743 338.200 196.761 338.473 197.658 338.990 C 198.555 339.508 199.299 340.253 199.817 341.150 C 200.353 342.077 201.123 342.847 202.050 343.383 C 202.977 343.918 204.029 344.200 205.100 344.200 H 217.100 H 220.100 C 220.155 344.200 220.200 344.155 220.200 344.100 V 336.950 C 220.200 336.895 220.155 336.850 220.100 336.850 H 217.200 C 217.100 336.850 217.200 336.950 217.200 336.850 V 331.050 C 217.200 330.950 217.100 331.050 217.200 331.050 H 220.100 C 220.155 331.050 220.200 331.005 220.200 330.950 V 324.950 C 220.200 324.895 220.155 324.850 220.100 324.850 H 217.200 C 217.100 324.850 217.200 324.950 217.200 324.850 V 319.050 C 217.200 318.950 217.100 319.050 217.200 319.050 H 220.100 C 220.155 319.050 220.200 319.005 220.200 318.950 V 312.950 C 220.200 312.895 220.155 312.850 220.100 312.850 H 217.200 C 217.100 312.850 217.200 312.950 217.200 312.850 V 307.050 C 217.200 306.950 217.100 307.050 217.200 307.050 H 220.100 C 220.155 307.050 220.200 307.005 220.200 306.950 V 300.950 C 220.200 300.895 220.155 300.850 220.100 300.850 H 217.200 C 217.100 300.850 217.200 300.950 217.200 300.850 V 295.050 C 217.200 294.950 217.100 295.050 217.200 295.050 H 220.100 C 220.155 295.050 220.200 295.005 220.200 294.950 V 287.800 C 220.200 287.745 220.155 287.700 220.100 287.700 H 217.100 H 205.100 C 204.064 287.700 203.047 287.427 202.150 286.910 C 201.253 286.392 200.508 285.647 199.990 284.750 C 199.455 283.823 198.685 283.053 197.758 282.517 C 196.830 281.982 195.778 281.700 194.708 281.700 H 35.492 C 34.422 281.700 33.370 281.982 32.442 282.517 C 31.515 283.053 30.745 283.823 30.210 284.750 C 29.692 285.647 28.947 286.392 28.050 286.910 C 27.153 287.427 26.136 287.700 25.100 287.700 H 13.100 H 10.100 C 10.045 287.700 10.000 287.745 10.000 287.800 V 294.950 C 10.000 295.005 10.045 295.050 10.100 295.050 H 13.000 C 13.100 295.050 13.000 294.950 13.000 295.050 V 300.850 C 13.000 300.950 13.100 300.850 13.000 300.850 H 10.100 C 10.045 300.850 10.000 300.895 10.000 300.950 V 306.950 C 10.000 307.005 10.045 307.050 10.100 307.050 H 13.000 C 13.100 307.050 13.000 306.950 13.000 307.050 V 312.850 C 13.000 312.950 13.100 312.850 13.000 312.850 H 10.100 C 10.045 312.850 10.000 312.895 10.000 312.950 V 318.950 C 10.000 319.005 10.045 319.050 10.100 319.050 H 13.000 C 13.100 319.050 13.000 318.950 13.000 319.050 V 324.850 C 13.000 324.950 13.100 324.850 13.000 324.850 H 10.100 C 10.045 324.850 10.000 324.895 10.000 324.950 V 330.950 C 10.000 331.005 10.045 331.050 10.100 331.050 H 13.000 C 13.100 331.050 13.000 330.950 13.000 331.050 V 336.850 C 13.000 336.950 13.100 336.850 13.000 336.850 H 10.100 C 10.045 336.850 10.000 336.895 10.000 336.950 V 344.100 C 10.000 344.155 10.045 344.200 10.100 344.200 H 13.100 Z" stroke="rgb(0,0,0)" stroke-width="0.20" />
  <text dominant-baseline="hanging" font-size="4px" style="font-family: sans-serif ; font-weight: normal; font-style: normal; fill: rgb(255,0,0)" text-anchor="middle" transform="matrix( 1.000 0.000 0.000 1.000 115.100 314.900 )">back</text>
</g>
<g id="p-7" style="fill:none;stroke-linecap:round;stroke-linejoin:round;">
  <path d="M 13.100 277.200 H 22.000 C 22.100 277.200 22.000 277.100 22.000 277.200 V 280.100 C 22.000 280.155 22.045 280.200 22.100 280.200 H 28.100 C 28.155 280.200 28.200 280.155 28.200 280.100 V 277.200 C 28.200 277.100 28.100 277.200 28.200 277.200 H 34.000 C 34.100 277.200 34.000 277.100 34.000 277.200 V 280.100 C 34.000 280.155 34.045 280.200 34.100 280.200 H 40.100 C 40.155 280.200 40.200 280.155 40.200 280.100 V 277.200 C 40.200 277.100 40.100 277.200 40.200 277.200 H 46.000 C 46.100 277.200 46.000 277.100 46.000 277.200 V 280.100 C 46.000 280.155 46.045 280.200 46.100 280.200 H 52.100 C 52.155 280.200 52.200 280.155 52.200 280.100 V 277.200 C 52.200 277.100 52.100 277.200 52.200 277.200 H 58.000 C 58.100 277.200 58.000 277.100 58.000 277.200 V 280.100 C 58.000 280.155 58.045 280.200 58.100 280.200 H 64.100 C 64.155 280.200 64.200 280.155 64.200 280.100 V 277.200 C 64.200 277.100 64.100 277.200 64.200 277.200 H 70.000 C 70.100 277.200 70.000 277.100 70.000 277.200 V 280.100 C 70.000 280.155 70.045 280.200 70.100 280.200 H 76.100 C 76.155 280.200 76.200 280.155 76.200 280.100 V 277.200 C 76.200 277.100 76.100 277.200 76.200 277.200 H 82.000 C 82.100 277.200 82.000 277.100 82.000 277.200 V 280.100 C 82.000 280.155 82.045 280.200 82.100 280.200 H 88.100 C 88.155 280.200 88.200 280.155 88.200 280.100 V 277.200 C 88.200 277.100 88.100 277.200 88.200 277.200 H 94.000 C 94.100 277.200 94.000 277.100 94.000 277.200 V 280.100 C 94.000 280.155 94.045 280.200 94.100 280.200 H 100.100 C 100.155 280.200 100.200 280.155 100.200 280.100 V 277.200 C 100.200 277.100 100.100 277.200 100.200 277.200 H 106.000 C 106.100 277.200 106.000 277.100 106.000 277.200 V 280.100 C 106.000 280.155 106.045 280.200 106.100 280.200 H 112.100 C 112.155 280.200 112.200 280.155 112.200 280.100 V 277.200 C 112.200 277.100 112.100 277.200 112.200 277.200 H 118.000 C 118.100 277.200 118.000 277.100 118.000 277.200 V 280.100 C 118.000 280.155 118.045 280.200 118.100 280.200 H 124.100 C 124.155 280.200 124.200 280.155 124.200 280.100 V 277.200 C 124.200 277.100 124.100 277.200 124.200 277.200 H 130.000 C 130.100 277.200 130.000 277.100 130.000 277.200 V 280.100 C 130.000 280.155 130.045 280.200 130.100 280.200 H 136.100 C 136.155 280.200 136.200 280.155 136.200 280.100 V 277.200 C 136.200 277.100 136.100 277.200 136.200 277.200 H 142.000 C 142.100 277.200 142.000 277.100 142.000 277.200 V 280.100 C 142.000 280.155 142.045 280.200 142.100 280.200 H 148.100 C 148.155 280.200 148.200 280.155 148.200 280.100 V 277.200 C 148.200 277.100 148.100 277.200 148.200 277.200 H 154.000 C 154.100 277.200 154.000 277.100 154.000 277.200 V 280.100 C 154.000 280.155 154.045 280.200 154.100 280.200 H 160.100 C 160.155 280.200 160.200 280.155 160.200 280.100 V 277.200 C 160.200 277.100 160.100 277.200 160.200 277.200 H 166.000 C 166.100 277.200 166.000 277.100 166.000 277.200 V 280.100 C 166.000 280.155 166.045 280.200 166.100 280.200 H 172.100 C 172.155 280.200 172.200 280.155 172.200 280.100 V 277.200 C 172.200 277.100 172.100 277.200 172.200 277.200 H 178.000 C 178.100 277.200 178.000 277.100 178.000 277.200 V 280.100 C 178.000 280.155 178.045 280.200 178.100 280.200 H 184.100 C 184.155 280.200 184.200 280.155 184.200 280.100 V 277.200 C 184.200 277.100 184.100 277.200 184.200 277.200 H 190.000 C 190.100 277.200 190.000 277.100 190.000 277.200 V 280.100 C 190.000 280.155 190.045 280.200 190.100 280.200 H 196.100 C 196.155 280.200 196.200 280.155 196.200 280.100 V 277.200 C 196.200 277.100 196.100 277.200 196.200 277.200 H 202.000 C 202.100 277.200 202.000 277.100 202.000 277.200 V 280.100 C 202.000 280.155 202.045 280.200 202.100 280.200 H 208.100 C 208.155 280.200 208.200 280.155 208.200 280.100 V 277.200 C 208.200 277.100 208.100 277.200 208.200 277.200 H 217.100 C 217.155 277.200 217.200 277.155 217.200 277.100 V 268.200 C 217.200 268.100 217.100 268.200 217.200 268.200 H 220.100 C 220.155 268.200 220.200 268.155 220.200 268.100 V 262.100 C 220.200 262.045 220.155 262.000 220.100 262.000 H 217.200 C 217.100 262.000 217.200 262.100 217.200 262.000 V 256.200 C 217.200 256.100 217.100 256.200 217.200 256.200 H 220.100 C 220.155 256.200 220.200 256.155 220.200 256.100 V 250.100 C 220.200 250.045 220.155 250.000 220.100 250.000 H 217.200 C 217.100 250.000 217.200 250.100 217.200 250.000 V 244.200 C 217.200 244.100 217.100 244.200 217.200 244.200 H 220.100 C 220.155 244.200 220.200 244.155 220.200 244.100 V 238.100 C 220.200 238.045 220.155 238.000 220.100 238.000 H 217.200 C 217.100 238.000 217.200 238.100 217.200 238.000 V 232.200 C 217.200 232.100 217.100 232.200 217.200 232.200 H 220.100 C 220.155 232.200 220.200 232.155 220.200 232.100 V 226.100 C 220.200 226.045 220.155 226.000 220.100 226.000 H 217.200 C 217.100 226.000 217.200 226.100 217.200 226.000 V 220.200 C 217.200 220.100 217.100 220.200 217.200 220.200 H 220.100 C 220.155 220.200 220.200 220.155 220.200 220.100 V 214.100 C 220.200 214.045 220.155 214.000 220.100 214.000 H 217.200 C 217.100 214.000 217.200 214.100 217.200 214.000 V 208.200 C 217.200 208.100 217.100 208.200 217.200 208.200 H 220.100 C 220.155 208.200 220.200 208.155 220.200 208.100 V 202.100 C 220.200 202.045 220.155 202.000 220.100 202.000 H 217.200 C 217.100 202.000 217.200 202.100 217.200 202.000 V 196.200 C 217.200 196.100 217.100 196.200 217.200 196.200 H 220.100 C 220.155 196.200 220.200 196.155 220.200 196.100 V 190.100 C 220.200 190.045 220.155 190.000 220.100 190.000 H 217.200 C 217.100 190.000 217.200 190.100 217.200 190.000 V 184.200 C 217.200 184.100 217.100 184.200 217.200 184.200 H 220.100 C 220.155 184.200 220.200 184.155 220.200 184.100 V 178.100 C 220.200 178.045 220.155 178.000 220.100 178.000 H 217.200 C 217.100 178.000 217.200 178.100 217.200 178.000 V 172.200 C 217.200 172.100 217.100 172.200 217.200 172.200 H 220.100 C 220.155 172.200 220.200 172.155 220.200 172.100 V 166.100 C 220.200 166.045 220.155 166.000 220.100 166.000 H 217.200 C 217.100 166.000 217.200 166.100 217.200 166.000 V 160.200 C 217.200 160.100 217.100 160.200 217.200 160.200 H 220.100 C 220.155 160.200 220.200 160.155 220.200 160.100 V 154.100 C 220.200 154.045 220.155 154.000 220.100 154.000 H 217.200 C 217.100 154.000 217.200 154.100 217.200 154.000 V 148.200 C 217.200 148.100 217.100 148.200 217.200 148.200 H 220.100 C 220.155 148.200 220.200 148.155 220.200 148.100 V 142.100 C 220.200 142.045 220.155 142.000 220.100 142.000 H 217.200 C 217.100 142.000 217.200 142.100 217.200 142.000 V 136.200 C 217.200 136.100 217.100 136.200 217.200 136.200 H 220.100 C 220.155 136.200 220.200 136.155 220.200 136.100 V 130.100 C 220.200 130.045 220.155 130.000 220.100 130.000 H 217.200 C 217.100 130.000 217.200 130.100 217.200 130.000 V 124.200 C 217.200 124.100 217.100 124.200 217.200 124.200 H 220.100 C 220.155 124.200 220.200 124.155 220.200 124.100 V 118.100 C 220.200 118.045 220.155 118.000 220.100 118.000 H 217.200 C 217.100 118.000 217.200 118.100 217.200 118.000 V 112.200 C 217.200 112.100 217.100 112.200 217.200 112.200 H 220.100 C 220.155 112.200 220.200 112.155 220.200 112.100 V 106.100 C 220.200 106.045 220.155 106.000 220.100 106.000 H 217.200 C 217.100 106.000 217.200 106.100 217.200 106.000 V 100.200 C 217.200 100.100 217.100 100.200 217.200 100.200 H 220.100 C 220.155 100.200 220.200 100.155 220.200 100.100 V 94.100 C 220.200 94.045 220.155 94.000 220.100 94.000 H 217.200 C 217.100 94.000 217.200 94.100 217.200 94.000 V 88.200 C 217.200 88.100 217.100 88.200 217.200 88.200 H 220.100 C 220.155 88.200 220.200 88.155 220.200 88.100 V 82.100 C 220.200 82.045 220.155 82.000 220.100 82.000 H 217.200 C 217.100 82.000 217.200 82.100 217.200 82.000 V 76.200 C 217.200 76.100 217.100 76.200 217.200 76.200 H 220.100 C 220.155 76.200 220.200 76.155 220.200 76.100 V 70.100 C 220.200 70.045 220.155 70.000 220.100 70.000 H 217.200 C 217.100 70.000 217.200 70.100 217.200 70.000 V 64.200 C 217.200 64.100 217.100 64.200 217.200 64.200 H 220.100 C 220.155 64.200 220.200 64.155 220.200 64.100 V 58.100 C 220.200 58.045 220.155 58.000 220.100 58.000 H 217.200 C 217.100 58.000 217.200 58.100 217.200 58.000 V 52.200 C 217.200 52.100 217.100 52.200 217.200 52.200 H 220.100 C 220.155 52.200 220.200 52.155 220.200 52.100 V 46.100 C 220.200 46.045 220.155 46.000 220.100 46.000 H 217.200 C 217.100 46.000 217.200 46.100 217.200 46.000 V 40.200 C 217.200 40.100 217.100 40.200 217.200 40.200 H 220.100 C 220.155 40.200 220.200 40.155 220.200 40.100 V 34.100 C 220.200 34.045 220.155 34.000 220.100 34.000 H 217.200 C 217.100 34.000 217.200 34.100 217.200 34.000 V 28.200 C 217.200 28.100 217.100 28.200 217.200 28.200 H 220.100 C 220.155 28.200 220.200 28.155 220.200 28.100 V 22.100 C 220.200 22.045 220.155 22.000 220.100 22.000 H 217.200 C 217.100 22.000 217.200 22.100 217.200 22.000 V 13.100 C 217.200 13.045 217.155 13.000 217.100 13.000 H 208.200 C 208.100 13.000 208.200 13.100 208.200 13.000 V 10.100 C 208.200 10.045 208.155 10.000 208.100 10.000 H 202.100 C 202.045 10.000 202.000 10.045 202.000 10.100 V 13.000 C 202.000 13.100 202.100 13.000 202.000 13.000 H 196.200 C 196.100 13.000 196.200 13.100 196.200 13.000 V 10.100 C 196.200 10.045 196.155 10.000 196.100 10.000 H 190.100 C 190.045 10.000 190.000 10.045 190.000 10.100 V 13.000 C 190.000 13.100 190.100 13.000 190.000 13.000 H 184.200 C 184.100 13.000 184.200 13.100 184.200 13.000 V 10.100 C 184.200 10.045 184.155 10.000 184.100 10.000 H 178.100 C 178.045 10.000 178.000 10.045 178.000 10.100 V 13.000 C 178.000 13.100 178.100 13.000 178.000 13.000 H 172.200 C 172.100 13.000 172.200 13.100 172.200 13.000 V 10.100 C 172.200 10.045 172.155 10.000 172.100 10.000 H 166.100 C 166.045 10.000 166.000 10.045 166.000 10.100 V 13.000 C 166.000 13.100 166.100 13.000 166.000 13.000 H 160.200 C 160.100 13.000 160.200 13.100 160.200 13.000 V 10.100 C 160.200 10.045 160.155 10.000 160.100 10.000 H 154.100 C 154.045 10.000 154.000 10.045 154.000 10.100 V 13.000 C 154.000 13.100 154.100 13.000 154.000 13.000 H 148.200 C 148.100 13.000 148.200 13.100 148.200 13.000 V 10.100 C 148.200 10.045 148.155 10.000 148.100 10.000 H 142.100 C 142.045 10.000 142.000 10.045 142.000 10.100 V 13.000 C 142.000 13.100 142.100 13.000 142.000 13.000 H 136.200 C 136.100 13.000 136.200 13.100 136.200 13.000 V 10.100 C 136.200 10.045 136.155 10.000 136.100 10.000 H 130.100 C 130.045 10.000 130.000 10.045 130.000 10.100 V 13.000 C 130.000 13.100 130.100 13.000 130.000 13.000 H 124.200 C 124.100 13.000 124.200 13.100 124.200 13.000 V 10.100 C 124.200 10.045 124.155 10.000 124.100 10.000 H 118.100 C 118.045 10.000 118.000 10.045 118.000 10.100 V 13.000 C 118.000 13.100 118.100 13.000 118.000 13.000 H 112.200 C 112.100 13.000 112.200 13.100 112.200 13.000 V 10.100 C 112.200 10.045 112.155 10.000 112.100 10.000 H 106.100 C 106.045 10.000 106.000 10.045 106.000 10.100 V 13.000 C 106.000 13.100 106.100 13.000 106.000 13.000 H 100.200 C 100.100 13.000 100.200 13.100 100.200 13.000 V 10.100 C 100.200 10.045 100.155 10.000 100.100 10.000 H 94.100 C 94.045 10.000 94.000 10.045 94.000 10.100 V 13.000 C 94.000 13.100 94.100 13.000 94.000 13.000 H 88.200 C 88.100 13.000 88.200 13.100 88.200 13.000 V 10.100 C 88.200 10.045 88.155 10.000 88.100 10.000 H 82.100 C 82.045 10.000 82.000 10.045 82.000 10.100 V 13.000 C 82.000 13.100 82.100 13.000 82.000 13.000 H 76.200 C 76.100 13.000 76.200 13.100 76.200 13.000 V 10.100 C 76.200 10.045 76.155 10.000 76.100 10.000 H 70.100 C 70.045 10.000 70.000 10.045 70.000 10.100 V 13.000 C 70.000 13.100 70.100 13.000 70.000 13.000 H 64.200 C 64.100 13.000 64.200 13.100 64.200 13.000 V 10.100 C 64.200 10.045 64.155 10.000 64.100 10.000 H 58.100 C 58.045 10.000 58.000 10.045 58.000 10.100 V 13.000 C 58.000 13.100 58.100 13.000 58.000 13.000 H 52.200 C 52.100 13.000 52.200 13.100 52.200 13.000 V 10.100 C 52.200 10.045 52.155 10.000 52.100 10.000 H 46.100 C 46.045 10.000 46.000 10.045 46.000 10.100 V 13.000 C 46.000 13.100 46.100 13.000 46.000 13.000 H 40.200 C 40.100 13.000 40.200 13.100 40.200 13.000 V 10.100 C 40.200 10.045 40.155 10.000 40.100 10.000 H 34.100 C 34.045 10.000 34.000 10.045 34.000 10.100 V 13.000 C 34.000 13.100 34.100 13.000 34.000 13.000 H 28.200 C 28.100 13.000 28.200 13.100 28.200 13.000 V 10.100 C 28.200 10.045 28.155 10.000 28.100 10.000 H 22.100 C 22.045 10.000 22.000 10.045 22.000 10.100 V 13.000 C 22.000 13.100 22.100 13.000 22.000 13.000 H 13.100 C 13.045 13.000 13.000 13.045 13.000 13.100 V 22.000 C 13.000 22.100 13.100 22.000 13.000 22.000 H 10.100 C 10.045 22.000 10.000 22.045 10.000 22.100 V 28.100 C 10.000 28.155 10.045 28.200 10.100 28.200 H 13.000 C 13.100 28.200 13.000 28.100 13.000 28.200 V 34.000 C 13.000 34.100 13.100 34.000 13.000 34.000 H 10.100 C 10.045 34.000 10.000 34.045 10.000 34.100 V 40.100 C 10.000 40.155 10.045 40.200 10.100 40.200 H 13.000 C 13.100 40.200 13.000 40.100 13.000 40.200 V 46.000 C 13.000 46.100 13.100 46.000 13.000 46.000 H 10.100 C 10.045 46.000 10.000 46.045 10.000 46.100 V 52.100 C 10.000 52.155 10.045 52.200 10.100 52.200 H 13.000 C 13.100 52.200 13.000 52.100 13.000 52.200 V 58.000 C 13.000 58.100 13.100 58.000 13.000 58.000 H 10.100 C 10.045 58.000 10.000 58.045 10.000 58.100 V 64.100 C 10.000 64.155 10.045 64.200 10.100 64.200 H 13.000 C 13.100 64.200 13.000 64.100 13.000 64.200 V 70.000 C 13.000 70.100 13.100 70.000 13.000 70.000 H 10.100 C 10.045 70.000 10.000 70.045 10.000 70.100 V 76.100 C 10.000 76.155 10.045 76.200 10.100 76.200 H 13.000 C 13.100 76.200 13.000 76.100 13.000 76.200 V 82.000 C 13.000 82.100 13.100 82.000 13.000 82.000 H 10.100 C 10.045 82.000 10.000 82.045 10.000 82.100 V 88.100 C 10.000 88.155 10.045 88.200 10.100 88.200 H 13.000 C 13.100 88.200 13.000 88.100 13.000 88.200 V 94.000 C 13.000 94.100 13.100 94.000 13.000 94.000 H 10.100 C 10.045 94.000 10.000 94.045 10.000 94.100 V 100.100 C 10.000 100.155 10.045 100.200 10.100 100.200 H 13.000 C 13.100 100.200 13.000 100.100 13.000 100.200 V 106.000 C 13.000 106.100 13.100 106.000 13.000 106.000 H 10.100 C 10.045 106.000 10.000 106.045 10.000 106.100 V 112.100 C 10.000 112.155 10.045 112.200 10.100 112.200 H 13.000 C 13.100 112.200 13.000 112.100 13.000 112.200 V 118.000 C 13.000 118.100 13.100 118.000 13.000 118.000 H 10.100 C 10.045 118.000 10.000 118.045 10.000 118.100 V 124.100 C 10.000 124.155 10.045 124.200 10.100 124.200 H 13.000 C 13.100 124.200 13.000 124.100 13.000 124.200 V 130.000 C 13.000 130.100 13.100 130.000 13.000 130.000 H 10.100 C 10.045 130.000 10.000 130.045 10.000 130.100 V 136.100 C 10.000 136.155 10.045 136.200 10.100 136.200 H 13.000 C 13.100 136.200 13.000 136.100 13.000 136.200 V 142.000 C 13.000 142.100 13.100 142.000 13.000 142.000 H 10.100 C 10.045 142.000 10.000 142.045 10.000 142.100 V 148.100 C 10.000 148.155 10.045 148.200 10.100 148.200 H 13.000 C 13.100 148.200 13.000 148.100 13.000 148.200 V 154.000 C 13.000 154.100 13.100 154.000 13.000 154.000 H 10.100 C 10.045 154.000 10.000 154.045 10.000 154.100 V 160.100 C 10.000 160.155 10.045 160.200 10.100 160.200 H 13.000 C 13.100 160.200 13.000 160.100 13.000 160.200 V 166.000 C 13.000 166.100 13.100 166.000 13.000 166.000 H 10.100 C 10.045 166.000 10.000 166.045 10.000 166.100 V 172.100 C 10.000 172.155 10.045 172.200 10.100 172.200 H 13.000 C 13.100 172.200 13.000 172.100 13.000 172.200 V 178.000 C 13.000 178.100 13.100 178.000 13.000 178.000 H 10.100 C 10.045 178.000 10.000 178.045 10.000 178.100 V 184.100 C 10.000 184.155 10.045 184.200 10.100 184.200 H 13.000 C 13.100 184.200 13.000 184.100 13.000 184.200 V 190.000 C 13.000 190.100 13.100 190.000 13.000 190.000 H 10.100 C 10.045 190.000 10.000 190.045 10.000 190.100 V 196.100 C 10.000 196.155 10.045 196.200 10.100 196.200 H 13.000 C 13.100 196.200 13.000 196.100 13.000 196.200 V 202.000 C 13.000 202.100 13.100 202.000 13.000 202.000 H 10.100 C 10.045 202.000 10.000 202.045 10.000 202.100 V 208.100 C 10.000 208.155 10.045 208.200 10.100 208.200 H 13.000 C 13.100 208.200 13.000 208.100 13.000 208.200 V 214.000 C 13.000 214.100 13.100 214.000 13.000 214.000 H 10.100 C 10.045 214.000 10.000 214.045 10.000 214.100 V 220.100 C 10.000 220.155 10.045 220.200 10.100 220.200 H 13.000 C 13.100 220.200 13.000 220.100 13.000 220.200 V 226.000 C 13.000 226.100 13.100 226.000 13.000 226.000 H 10.100 C 10.045 226.000 10.000 226.045 10.000 226.100 V 232.100 C 10.000 232.155 10.045 232.200 10.100 232.200 H 13.000 C 13.100 232.200 13.000 232.100 13.000 232.200 V 238.000 C 13.000 238.100 13.100 238.000 13.000 238.000 H 10.100 C 10.045 238.000 10.000 238.045 10.000 238.100 V 244.100 C 10.000 244.155 10.045 244.200 10.100 244.200 H 13.000 C 13.100 244.200 13.000 244.100 13.000 244.200 V 250.000 C 13.000 250.100 13.100 250.000 13.000 250.000 H 10.100 C 10.045 250.000 10.000 250.045 10.000 250.100 V 256.100 C 10.000 256.155 10.045 256.200 10.100 256.200 H 13.000 C 13.100 256.200 13.000 256.100 13.000 256.200 V 262.000 C 13.000 262.100 13.100 262.000 13.000 262.000 H 10.100 C 10.045 262.000 10.000 262.045 10.000 262.100 V 268.100 C 10.000 268.155 10.045 268.200 10.100 268.200 H 13.000 C 13.100 268.200 13.000 268.100 13.000 268.200 V 277.100 C 13.000 277.155 13.045 277.200 13.100 277.200 Z" stroke="rgb(0,0,0)" stroke-width="0.20" />
  <text dominant-baseline="hanging" font-size="4px" style="font-family: sans-serif ; font-weight: normal; font-style: normal; fill: rgb(255,0,0)" text-anchor="middle" transform="matrix( 1.000 0.000 0.000 1.000 115.100 143.200 )">bottom</text>
</g>
<g id="p-8" style="fill:none;stroke-linecap:round;stroke-linejoin:round;">
  <path d="M 236.800 406.800 H 233.900 C 233.800 406.800 233.900 406.900 233.900 406.800 V 404.000 C 233.900 403.900 233.800 404.000 233.900 404.000 H 239.700 C 239.800 404.000 239.700 403.900 239.700 404.000 V 406.800 C 239.700 406.900 239.800 406.800 239.700 406.800 H 236.800 Z" stroke="rgb(0,0,255)" stroke-width="0.20" />
  <path d="M 248.800 406.800 H 245.900 C 245.800 406.800 245.900 406.900 245.900 406.800 V 404.000 C 245.900 403.900 245.800 404.000 245.900 404.000 H 251.700 C 251.800 404.000 251.700 403.900 251.700 404.000 V 406.800 C 251.700 406.900 251.800 406.800 251.700 406.800 H 248.800 Z" stroke="rgb(0,0,255)" stroke-width="0.20" />
  <path d="M 260.800 406.800 H 257.900 C 257.800 406.800 257.900 406.900 257.900 406.800 V 404.000 C 257.900 403.900 257.800 404.000 257.900 404.000 H 263.700 C 263.800 404.000 263.700 403.900 263.700 404.000 V 406.800 C 263.700 406.900 263.800 406.800 263.700 406.800 H 260.800 Z" stroke="rgb(0,0,255)" stroke-width="0.20" />
  <path d="M 272.800 406.800 H 269.900 C 269.800 406.800 269.900 406.900 269.900 406.800 V 404.000 C 269.900 403.900 269.800 404.000 269.900 404.000 H 275.700 C 275.800 404.000 275.700 403.900 275.700 404.000 V 406.800 C 275.700 406.900 275.800 406.800 275.700 406.800 H 272.800 Z" stroke="rgb(0,0,255)" stroke-width="0.20" />
  <path d="M 284.800 406.800 H 281.900 C 281.800 406.800 281.900 406.900 281.900 406.800 V 404.000 C 281.900 403.900 281.800 404.000 281.900 404.000 H 287.700 C 287.800 404.000 287.700 403.900 287.700 404.000 V 406.800 C 287.700 406.900 287.800 406.800 287.700 406.800 H 284.800 Z" stroke="rgb(0,0,255)" stroke-width="0.20" />
  <path d="M 296.800 406.800 H 293.900 C 293.800 406.800 293.900 406.900 293.900 406.800 V 404.000 C 293.900 403.900 293.800 404.000 293.900 404.000 H 299.700 C 299.800 404.000 299.700 403.900 299.700 404.000 V 406.800 C 299.700 406.900 299.800 406.800 299.700 406.800 H 296.800 Z" stroke="rgb(0,0,255)" stroke-width="0.20" />
  <path d="M 308.800 406.800 H 305.900 C 305.800 406.800 305.900 406.900 305.900 406.800 V 404.000 C 305.900 403.900 305.800 404.000 305.900 404.000 H 311.700 C 311.800 404.000 311.700 403.900 311.700 404.000 V 406.800 C 311.700 406.900 311.800 406.800 311.700 406.800 H 308.800 Z" stroke="rgb(0,0,255)" stroke-width="0.20" />
  <path d="M 320.800 406.800 H 317.900 C 317.800 406.800 317.900 406.900 317.900 406.800 V 404.000 C 317.900 403.900 317.800 404.000 317.900 404.000 H 323.700 C 323.800 404.000 323.700 403.900 323.700 404.000 V 406.800 C 323.700 406.900 323.800 406.800 323.700 406.800 H 320.800 Z" stroke="rgb(0,0,255)" stroke-width="0.20" />
  <path d="M 332.800 406.800 H 329.900 C 329.800 406.800 329.900 406.900 329.900 406.800 V 404.000 C 329.900 403.900 329.800 404.000 329.900 404.000 H 335.700 C 335.800 404.000 335.700 403.900 335.700 404.000 V 406.800 C 335.700 406.900 335.800 406.800 335.700 406.800 H 332.800 Z" stroke="rgb(0,0,255)" stroke-width="0.20" />
  <path d="M 344.800 406.800 H 341.900 C 341.800 406.800 341.900 406.900 341.900 406.800 V 404.000 C 341.900 403.900 341.800 404.000 341.900 404.000 H 347.700 C 347.800 404.000 347.700 403.900 347.700 404.000 V 406.800 C 347.700 406.900 347.800 406.800 347.700 406.800 H 344.800 Z" stroke="rgb(0,0,255)" stroke-width="0.20" />
  <path d="M 356.800 406.800 H 353.900 C 353.800 406.800 353.900 406.900 353.900 406.800 V 404.000 C 353.900 403.900 353.800 404.000 353.900 404.000 H 359.700 C 359.800 404.000 359.700 403.900 359.700 404.000 V 406.800 C 359.700 406.900 359.800 406.800 359.700 406.800 H 356.800 Z" stroke="rgb(0,0,255)" stroke-width="0.20" />
  <path d="M 368.800 406.800 H 365.900 C 365.800 406.800 365.900 406.900 365.900 406.800 V 404.000 C 365.900 403.900 365.800 404.000 365.900 404.000 H 371.700 C 371.800 404.000 371.700 403.900 371.700 404.000 V 406.800 C 371.700 406.900 371.800 406.800 371.700 406.800 H 368.800 Z" stroke="rgb(0,0,255)" stroke-width="0.20" />
  <path d="M 380.800 406.800 H 377.900 C 377.800 406.800 377.900 406.900 377.900 406.800 V 404.000 C 377.900 403.900 377.800 404.000 377.900 404.000 H 383.700 C 383.800 404.000 383.700 403.900 383.700 404.000 V 406.800 C 383.700 406.900 383.800 406.800 383.700 406.800 H 380.800 Z" stroke="rgb(0,0,255)" stroke-width="0.20" />
  <path d="M 392.800 406.800 H 389.900 C 389.800 406.800 389.900 406.900 389.900 406.800 V 404.000 C 389.900 403.900 389.800 404.000 389.900 404.000 H 395.700 C 395.800 404.000 395.700 403.900 395.700 404.000 V 406.800 C 395.700 406.900 395.800 406.800 395.700 406.800 H 392.800 Z" stroke="rgb(0,0,255)" stroke-width="0.20" />
  <path d="M 404.800 406.800 H 401.900 C 401.800 406.800 401.900 406.900 401.900 406.800 V 404.000 C 401.900 403.900 401.800 404.000 401.900 404.000 H 407.700 C 407.800 404.000 407.700 403.900 407.700 404.000 V 406.800 C 407.700 406.900 407.800 406.800 407.700 406.800 H 404.800 Z" stroke="rgb(0,0,255)" stroke-width="0.20" />
  <path d="M 416.800 406.800 H 413.900 C 413.800 406.800 413.900 406.900 413.900 406.800 V 404.000 C 413.900 403.900 413.800 404.000 413.900 404.000 H 419.700 C 419.800 404.000 419.700 403.900 419.700 404.000 V 406.800 C 419.700 406.900 419.800 406.800 419.700 406.800 H 416.800 Z" stroke="rgb(0,0,255)" stroke-width="0.20" />
  <path d="M 428.800 406.800 H 425.900 C 425.800 406.800 425.900 406.900 425.900 406.800 V 404.000 C 425.900 403.900 425.800 404.000 425.900 404.000 H 431.700 C 431.800 404.000 431.700 403.900 431.700 404.000 V 406.800 C 431.700 406.900 431.800 406.800 431.700 406.800 H 428.800 Z" stroke="rgb(0,0,255)" stroke-width="0.20" />
  <path d="M 440.800 406.800 H 437.900 C 437.800 406.800 437.900 406.900 437.900 406.800 V 404.000 C 437.900 403.900 437.800 404.000 437.900 404.000 H 443.700 C 443.800 404.000 443.700 403.900 443.700 404.000 V 406.800 C 443.700 406.900 443.800 406.800 443.700 406.800 H 440.800 Z" stroke="rgb(0,0,255)" stroke-width="0.20" />
  <path d="M 452.800 406.800 H 449.900 C 449.800 406.800 449.900 406.900 449.900 406.800 V 404.000 C 449.900 403.900 449.800 404.000 449.900 404.000 H 455.700 C 455.800 404.000 455.700 403.900 455.700 404.000 V 406.800 C 455.700 406.900 455.800 406.800 455.700 406.800 H 452.800 Z" stroke="rgb(0,0,255)" stroke-width="0.20" />
  <path d="M 464.800 406.800 H 461.900 C 461.800 406.800 461.900 406.900 461.900 406.800 V 404.000 C 461.900 403.900 461.800 404.000 461.900 404.000 H 467.700 C 467.800 404.000 467.700 403.900 467.700 404.000 V 406.800 C 467.700 406.900 467.800 406.800 467.700 406.800 H 464.800 Z" stroke="rgb(0,0,255)" stroke-width="0.20" />
  <path d="M 476.800 406.800 H 473.900 C 473.800 406.800 473.900 406.900 473.900 406.800 V 404.000 C 473.900 403.900 473.800 404.000 473.900 404.000 H 479.700 C 479.800 404.000 479.700 403.900 479.700 404.000 V 406.800 C 479.700 406.900 479.800 406.800 479.700 406.800 H 476.800 Z" stroke="rgb(0,0,255)" stroke-width="0.20" />
</g>
<g id="p-9" style="fill:none;stroke-linecap:round;stroke-linejoin:round;">
  <path d="M 224.800 422.750 H 485.650 C 485.705 422.750 485.750 422.705 485.750 422.650 V 416.650 C 485.750 416.595 485.705 416.550 485.650 416.550 H 224.800 C 224.745 416.550 224.700 416.595 224.700 416.650 V 422.650 C 224.700 422.705 224.745 422.750 224.800 422.750 Z" stroke="rgb(0,0,0)" stroke-width="0.20" />
</g>
<g id="p-10" style="fill:none;stroke-linecap:round;stroke-linejoin:round;">
  <path d="M 224.800 415.900 H 236.800 C 237.871 415.900 238.923 415.618 239.850 415.083 C 240.777 414.547 241.547 413.777 242.083 412.850 C 242.601 411.953 243.345 411.208 244.242 410.690 C 245.139 410.173 246.157 409.900 247.192 409.900 H 466.408 C 467.443 409.900 468.461 410.173 469.358 410.690 C 470.255 411.208 470.999 411.953 471.517 412.850 C 472.053 413.777 472.823 414.547 473.750 415.083 C 474.677 415.618 475.729 415.900 476.800 415.900 H 488.800 C 488.855 415.900 488.900 415.855 488.900 415.800 V 408.750 C 488.900 408.650 488.800 408.750 488.900 408.750 H 491.800 C 491.855 408.750 491.900 408.705 491.900 408.650 V 402.650 C 491.900 402.595 491.855 402.550 491.800 402.550 H 488.900 C 488.800 402.550 488.900 402.650 488.900 402.550 V 396.750 C 488.900 396.650 488.800 396.750 488.900 396.750 H 491.800 C 491.855 396.750 491.900 396.705 491.900 396.650 V 390.650 C 491.900 390.595 491.855 390.550 491.800 390.550 H 488.900 C 488.800 390.550 488.900 390.650 488.900 390.550 V 384.750 C 488.900 384.650 488.800 384.750 488.900 384.750 H 491.800 C 491.855 384.750 491.900 384.705 491.900 384.650 V 378.650 C 491.900 378.595 491.855 378.550 491.800 378.550 H 488.900 C 488.800 378.550 488.900 378.650 488.900 378.550 V 372.750 C 488.900 372.650 488.800 372.750 488.900 372.750 H 491.800 C 491.855 372.750 491.900 372.705 491.900 372.650 V 366.650 C 491.900 366.595 491.855 366.550 491.800 366.550 H 488.900 C 488.800 366.550 488.900 366.650 488.900 366.550 V 359.500 C 488.900 359.445 488.855 359.400 488.800 359.400 H 476.800 C 475.764 359.400 474.747 359.127 473.850 358.610 C 472.953 358.092 472.208 357.347 471.690 356.450 C 471.155 355.523 470.385 354.753 469.458 354.217 C 468.530 353.682 467.478 353.400 466.408 353.400 H 247.192 C 246.122 353.400 245.070 353.682 244.142 354.217 C 243.215 354.753 242.445 355.523 241.910 356.450 C 241.392 357.347 240.647 358.092 239.750 358.610 C 238.853 359.127 237.836 359.400 236.800 359.400 H 224.800 C 224.745 359.400 224.700 359.445 224.700 359.500 V 366.550 C 224.700 366.650 224.800 366.550 224.700 366.550 H 221.800 C 221.745 366.550 221.700 366.595 221.700 366.650 V 372.650 C 221.700 372.705 221.745 372.750 221.800 372.750 H 224.700 C 224.800 372.750 224.700 372.650 224.700 372.750 V 378.550 C 224.700 378.650 224.800 378.550 224.700 378.550 H 221.800 C 221.745 378.550 221.700 378.595 221.700 378.650 V 384.650 C 221.700 384.705 221.745 384.750 221.800 384.750 H 224.700 C 224.800 384.750 224.700 384.650 224.700 384.750 V 390.550 C 224.700 390.650 224.800 390.550 224.700 390.550 H 221.800 C 221.745 390.550 221.700 390.595 221.700 390.650 V 396.650 C 221.700 396.705 221.745 396.750 221.800 396.750 H 224.700 C 224.800 396.750 224.700 396.650 224.700 396.750 V 402.550 C 224.700 402.650 224.800 402.550 224.700 402.550 H 221.800 C 221.745 402.550 221.700 402.595 221.700 402.650 V 408.650 C 221.700 408.705 221.745 408.750 221.800 408.750 H 224.700 C 224.800 408.750 224.700 408.650 224.700 408.750 V 415.800 C 224.700 415.855 224.745 415.900 224.800 415.900 Z" stroke="rgb(0,0,0)" stroke-width="0.20" />
  <text dominant-baseline="hanging" font-size="4px" style="font-family: sans-serif ; font-weight: normal; font-style: normal; fill: rgb(255,0,0)" text-anchor="middle" transform="matrix( 1.000 0.000 0.000 1.000 356.800 386.600 )">left</text>
</g>
<g id="p-11" style="fill:none;stroke-linecap:round;stroke-linejoin:round;">
  <path d="M 236.800 335.100 H 233.900 C 233.800 335.100 233.900 335.200 233.900 335.100 V 332.300 C 233.900 332.200 233.800 332.300 233.900 332.300 H 239.700 C 239.800 332.300 239.700 332.200 239.700 332.300 V 335.100 C 239.700 335.200 239.800 335.100 239.700 335.100 H 236.800 Z" stroke="rgb(0,0,255)" stroke-width="0.20" />
  <path d="M 248.800 335.100 H 245.900 C 245.800 335.100 245.900 335.200 245.900 335.100 V 332.300 C 245.900 332.200 245.800 332.300 245.900 332.300 H 251.700 C 251.800 332.300 251.700 332.200 251.700 332.300 V 335.100 C 251.700 335.200 251.800 335.100 251.700 335.100 H 248.800 Z" stroke="rgb(0,0,255)" stroke-width="0.20" />
  <path d="M 260.800 335.100 H 257.900 C 257.800 335.100 257.900 335.200 257.900 335.100 V 332.300 C 257.900 332.200 257.800 332.300 257.900 332.300 H 263.700 C 263.800 332.300 263.700 332.200 263.700 332.300 V 335.100 C 263.700 335.200 263.800 335.100 263.700 335.100 H 260.800 Z" stroke="rgb(0,0,255)" stroke-width="0.20" />
  <path d="M 272.800 335.100 H 269.900 C 269.800 335.100 269.900 335.200 269.900 335.100 V 332.300 C 269.900 332.200 269.800 332.300 269.900 332.300 H 275.700 C 275.800 332.300 275.700 332.200 275.700 332.300 V 335.100 C 275.700 335.200 275.800 335.100 275.700 335.100 H 272.800 Z" stroke="rgb(0,0,255)" stroke-width="0.20" />
  <path d="M 284.800 335.100 H 281.900 C 281.800 335.100 281.900 335.200 281.900 335.100 V 332.300 C 281.900 332.200 281.800 332.300 281.900 332.300 H 287.700 C 287.800 332.300 287.700 332.200 287.700 332.300 V 335.100 C 287.700 335.200 287.800 335.100 287.700 335.100 H 284.800 Z" stroke="rgb(0,0,255)" stroke-width="0.20" />
  <path d="M 296.800 335.100 H 293.900 C 293.800 335.100 293.900 335.200 293.900 335.100 V 332.300 C 293.900 332.200 293.800 332.300 293.900 332.300 H 299.700 C 299.800 332.300 299.700 332.200 299.700 332.300 V 335.100 C 299.700 335.200 299.800 335.100 299.700 335.100 H 296.800 Z" stroke="rgb(0,0,255)" stroke-width="0.20" />
  <path d="M 308.800 335.100 H 305.900 C 305.800 335.100 305.900 335.200 305.900 335.100 V 332.300 C 305.900 332.200 305.800 332.300 305.900 332.300 H 311.700 C 311.800 332.300 311.700 332.200 311.700 332.300 V 335.100 C 311.700 335.200 311.800 335.100 311.700 335.100 H 308.800 Z" stroke="rgb(0,0,255)" stroke-width="0.20" />
  <path d="M 320.800 335.100 H 317.900 C 317.800 335.100 317.900 335.200 317.900 335.100 V 332.300 C 317.900 332.200 317.800 332.300 317.900 332.300 H 323.700 C 323.800 332.300 323.700 332.200 323.700 332.300 V 335.100 C 323.700 335.200 323.800 335.100 323.700 335.100 H 320.800 Z" stroke="rgb(0,0,255)" stroke-width="0.20" />
  <path d="M 332.800 335.100 H 329.900 C 329.800 335.100 329.900 335.200 329.900 335.100 V 332.300 C 329.900 332.200 329.800 332.300 329.900 332.300 H 335.700 C 335.800 332.300 335.700 332.200 335.700 332.300 V 335.100 C 335.700 335.200 335.800 335.100 335.700 335.100 H 332.800 Z" stroke="rgb(0,0,255)" stroke-width="0.20" />
  <path d="M 344.800 335.100 H 341.900 C 341.800 335.100 341.900 335.200 341.900 335.100 V 332.300 C 341.900 332.200 341.800 332.300 341.900 332.300 H 347.700 C 347.800 332.300 347.700 332.200 347.700 332.300 V 335.100 C 347.700 335.200 347.800 335.100 347.700 335.100 H 344.800 Z" stroke="rgb(0,0,255)" stroke-width="0.20" />
  <path d="M 356.800 335.100 H 353.900 C 353.800 335.100 353.900 335.200 353.900 335.100 V 332.300 C 353.900 332.200 353.800 332.300 353.900 332.300 H 359.700 C 359.800 332.300 359.700 332.200 359.700 332.300 V 335.100 C 359.700 335.200 359.800 335.100 359.700 335.100 H 356.800 Z" stroke="rgb(0,0,255)" stroke-width="0.20" />
  <path d="M 368.800 335.100 H 365.900 C 365.800 335.100 365.900 335.200 365.900 335.100 V 332.300 C 365.900 332.200 365.800 332.300 365.900 332.300 H 371.700 C 371.800 332.300 371.700 332.200 371.700 332.300 V 335.100 C 371.700 335.200 371.800 335.100 371.700 335.100 H 368.800 Z" stroke="rgb(0,0,255)" stroke-width="0.20" />
  <path d="M 380.800 335.100 H 377.900 C 377.800 335.100 377.900 335.200 377.900 335.100 V 332.300 C 377.900 332.200 377.800 332.300 377.900 332.300 H 383.700 C 383.800 332.300 383.700 332.200 383.700 332.300 V 335.100 C 383.700 335.200 383.800 335.100 383.700 335.100 H 380.800 Z" stroke="rgb(0,0,255)" stroke-width="0.20" />
  <path d="M 392.800 335.100 H 389.900 C 389.800 335.100 389.900 335.200 389.900 335.100 V 332.300 C 389.900 332.200 389.800 332.300 389.900 332.300 H 395.700 C 395.800 332.300 395.700 332.200 395.700 332.300 V 335.100 C 395.700 335.200 395.800 335.100 395.700 335.100 H 392.800 Z" stroke="rgb(0,0,255)" stroke-width="0.20" />
  <path d="M 404.800 335.100 H 401.900 C 401.800 335.100 401.900 335.200 401.900 335.100 V 332.300 C 401.900 332.200 401.800 332.300 401.900 332.300 H 407.700 C 407.800 332.300 407.700 332.200 407.700 332.300 V 335.100 C 407.700 335.200 407.800 335.100 407.700 335.100 H 404.800 Z" stroke="rgb(0,0,255)" stroke-width="0.20" />
  <path d="M 416.800 335.100 H 413.900 C 413.800 335.100 413.900 335.200 413.900 335.100 V 332.300 C 413.900 332.200 413.800 332.300 413.900 332.300 H 419.700 C 419.800 332.300 419.700 332.200 419.700 332.300 V 335.100 C 419.700 335.200 419.800 335.100 419.700 335.100 H 416.800 Z" stroke="rgb(0,0,255)" stroke-width="0.20" />
  <path d="M 428.800 335.100 H 425.900 C 425.800 335.100 425.900 335.200 425.900 335.100 V 332.300 C 425.900 332.200 425.800 332.300 425.900 332.300 H 431.700 C 431.800 332.300 431.700 332.200 431.700 332.300 V 335.100 C 431.700 335.200 431.800 335.100 431.700 335.100 H 428.800 Z" stroke="rgb(0,0,255)" stroke-width="0.20" />
  <path d="M 440.800 335.100 H 437.900 C 437.800 335.100 437.900 335.200 437.900 335.100 V 332.300 C 437.900 332.200 437.800 332.300 437.900 332.300 H 443.700 C 443.800 332.300 443.700 332.200 443.700 332.300 V 335.100 C 443.700 335.200 443.800 335.100 443.700 335.100 H 440.800 Z" stroke="rgb(0,0,255)" stroke-width="0.20" />
  <path d="M 452.800 335.100 H 449.900 C 449.800 335.100 449.900 335.200 449.900 335.100 V 332.300 C 449.900 332.200 449.800 332.300 449.900 332.300 H 455.700 C 455.800 332.300 455.700 332.200 455.700 332.300 V 335.100 C 455.700 335.200 455.800 335.100 455.700 335.100 H 452.800 Z" stroke="rgb(0,0,255)" stroke-width="0.20" />
  <path d="M 464.800 335.100 H 461.900 C 461.800 335.100 461.900 335.200 461.900 335.100 V 332.300 C 461.900 332.200 461.800 332.300 461.900 332.300 H 467.700 C 467.800 332.300 467.700 332.200 467.700 332.300 V 335.100 C 467.700 335.200 467.800 335.100 467.700 335.100 H 464.800 Z" stroke="rgb(0,0,255)" stroke-width="0.20" />
  <path d="M 476.800 335.100 H 473.900 C 473.800 335.100 473.900 335.200 473.900 335.100 V 332.300 C 473.900 332.200 473.800 332.300 473.900 332.300 H 479.700 C 479.800 332.300 479.700 332.200 479.700 332.300 V 335.100 C 479.700 335.200 479.800 335.100 479.700 335.100 H 476.800 Z" stroke="rgb(0,0,255)" stroke-width="0.20" />
</g>
<g id="p-12" style="fill:none;stroke-linecap:round;stroke-linejoin:round;">
  <path d="M 224.800 351.050 H 485.650 C 485.705 351.050 485.750 351.005 485.750 350.950 V 344.950 C 485.750 344.895 485.705 344.850 485.650 344.850 H 224.800 C 224.745 344.850 224.700 344.895 224.700 344.950 V 350.950 C 224.700 351.005 224.745 351.050 224.800 351.050 Z" stroke="rgb(0,0,0)" stroke-width="0.20" />
</g>
<g id="p-13" style="fill:none;stroke-linecap:round;stroke-linejoin:round;">
  <path d="M 224.800 344.200 H 236.800 C 237.871 344.200 238.923 343.918 239.850 343.383 C 240.777 342.847 241.547 342.077 242.083 341.150 C 242.601 340.253 243.345 339.508 244.242 338.990 C 245.139 338.473 246.157 338.200 247.192 338.200 H 466.408 C 467.443 338.200 468.461 338.473 469.358 338.990 C 470.255 339.508 470.999 340.253 471.517 341.150 C 472.053 342.077 472.823 342.847 473.750 343.383 C 474.677 343.918 475.729 344.200 476.800 344.200 H 488.800 C 488.855 344.200 488.900 344.155 488.900 344.100 V 337.050 C 488.900 336.950 488.800 337.050 488.900 337.050 H 491.800 C 491.855 337.050 491.900 337.005 491.900 336.950 V 330.950 C 491.900 330.895 491.855 330.850 491.800 330.850 H 488.900 C 488.800 330.850 488.900 330.950 488.900 330.850 V 325.050 C 488.900 324.950 488.800 325.050 488.900 325.050 H 491.800 C 491.855 325.050 491.900 325.005 491.900 324.950 V 318.950 C 491.900 318.895 491.855 318.850 491.800 318.850 H 488.900 C 488.800 318.850 488.900 318.950 488.900 318.850 V 313.050 C 488.900 312.950 488.800 313.050 488.900 313.050 H 491.800 C 491.855 313.050 491.900 313.005 491.900 312.950 V 306.950 C 491.900 306.895 491.855 306.850 491.800 306.850 H 488.900 C 488.800 306.850 488.900 306.950 488.900 306.850 V 301.050 C 488.900 300.950 488.800 301.050 488.900 301.050 H 491.800 C 491.855 301.050 491.900 301.005 491.900 300.950 V 294.950 C 491.900 294.895 491.855 294.850 491.800 294.850 H 488.900 C 488.800 294.850 488.900 294.950 488.900 294.850 V 287.800 C 488.900 287.745 488.855 287.700 488.800 287.700 H 476.800 C 475.764 287.700 474.747 287.427 473.850 286.910 C 472.953 286.392 472.208 285.647 471.690 284.750 C 471.155 283.823 470.385 283.053 469.458 282.517 C 468.530 281.982 467.478 281.700 466.408 281.700 H 247.192 C 246.122 281.700 245.070 281.982 244.142 282.517 C 243.215 283.053 242.445 283.823 241.910 284.750 C 241.392 285.647 240.647 286.392 239.750 286.910 C 238.853 287.427 237.836 287.700 236.800 287.700 H 224.800 C 224.745 287.700 224.700 287.745 224.700 287.800 V 294.850 C 224.700 294.950 224.800 294.850 224.700 294.850 H 221.800 C 221.745 294.850 221.700 294.895 221.700 294.950 V 300.950 C 221.700 301.005 221.745 301.050 221.800 301.050 H 224.700 C 224.800 301.050 224.700 300.950 224.700 301.050 V 306.850 C 224.700 306.950 224.800 306.850 224.700 306.850 H 221.800 C 221.745 306.850 221.700 306.895 221.700 306.950 V 312.950 C 221.700 313.005 221.745 313.050 221.800 313.050 H 224.700 C 224.800 313.050 224.700 312.950 224.700 313.050 V 318.850 C 224.700 318.950 224.800 318.850 224.700 318.850 H 221.800 C 221.745 318.850 221.700 318.895 221.700 318.950 V 324.950 C 221.700 325.005 221.745 325.050 221.800 325.050 H 224.700 C 224.800 325.050 224.700 324.950 224.700 325.050 V 330.850 C 224.700 330.950 224.800 330.850 224.700 330.850 H 221.800 C 221.745 330.850 221.700 330.895 221.700 330.950 V 336.950 C 221.700 337.005 221.745 337.050 221.800 337.050 H 224.700 C 224.800 337.050 224.700 336.950 224.700 337.050 V 344.100 C 224.700 344.155 224.745 344.200 224.800 344.200 Z" stroke="rgb(0,0,0)" stroke-width="0.20" />
  <text dominant-baseline="hanging" font-size="4px" style="font-family: sans-serif ; font-weight: normal; font-style: normal; fill: rgb(255,0,0)" text-anchor="middle" transform="matrix( 1.000 0.000 0.000 1.000 356.800 314.900 )">right</text>
</g>
</svg>