<?xml version="1.0" encoding="UTF-8" standalone="no"?>
<svg
   height="343.30mm"
   viewBox="0.0 0.0 501.90 343.30"
   width="501.90mm"
   version="1.1"
   id="svg84"
   sodipodi:docname="UniversalBox - 27x21x1,9 Tampa_ajustada.svg"
   inkscape:version="1.4.2 (f4327f4, 2025-05-13)"
   xmlns:inkscape="http://www.inkscape.org/namespaces/inkscape"
   xmlns:sodipodi="http://sodipodi.sourceforge.net/DTD/sodipodi-0.dtd"
   xmlns="http://www.w3.org/2000/svg"
   xmlns:svg="http://www.w3.org/2000/svg"
   xmlns:rdf="http://www.w3.org/1999/02/22-rdf-syntax-ns#"
   xmlns:cc="http://creativecommons.org/ns#"
   xmlns:dc="http://purl.org/dc/elements/1.1/">
  <defs
     id="defs84" />
  <sodipodi:namedview
     id="namedview84"
     pagecolor="#ffffff"
     bordercolor="#000000"
     borderopacity="0.25"
     inkscape:showpageshadow="2"
     inkscape:pageopacity="0.0"
     inkscape:pagecheckerboard="0"
     inkscape:deskcolor="#d1d1d1"
     inkscape:document-units="mm"
     inkscape:zoom="0.25"
     inkscape:cx="796"
     inkscape:cy="378"
     inkscape:window-width="1920"
     inkscape:window-height="1009"
     inkscape:window-x="1912"
     inkscape:window-y="-8"
     inkscape:window-maximized="1"
     inkscape:current-layer="svg84"
     showgrid="false" />
  <!--
UniversalBox - Box with various options for different styles and lids

Created with Boxes.py (https://boxes.hackerspace-bamberg.de/)
Creation date: 2026-03-16 02:54:28
Command line (remove spaces between dashes): boxes UniversalBox - -Stackable_bottom_stabilizers=2 - -bottom_edge=s - -x=210 - -y=270 - -h=19 - -spacing=0.5
Url: https://boxes.hackerspace-bamberg.de/UniversalBox?FingerJoint_style=rectangular&FingerJoint_surroundingspaces=2.0&FingerJoint_bottom_lip=0.0&FingerJoint_edge_width=1.0&FingerJoint_extra_length=0.0&FingerJoint_finger=2&FingerJoint_play=0.0&FingerJoint_space=2&FingerJoint_width=1.0&Stackable_angle=60&Stackable_bottom_stabilizers=2&Stackable_height=2.0&Stackable_holedistance=1.0&Stackable_width=4.0&Hinge_grip_percentage=0&Hinge_outset=0&Hinge_outset=1&Hinge_pinwidth=0.5&Hinge_axle=2.0&Hinge_grip_length=0&Hinge_hingestrength=1&CabinetHinge_bore=3.2&CabinetHinge_eyes_per_hinge=5&CabinetHinge_hinges=2&CabinetHinge_style=inside&CabinetHinge_eye=1.5&CabinetHinge_play=0.05&CabinetHinge_spacing=2.0&SlideOnLid_hole_width=0&SlideOnLid_second_pin=0&SlideOnLid_second_pin=1&SlideOnLid_spring=both&SlideOnLid_style=rectangular&SlideOnLid_surroundingspaces=2.0&SlideOnLid_bottom_lip=0.0&SlideOnLid_edge_width=1.0&SlideOnLid_extra_length=0.0&SlideOnLid_finger=3.0&SlideOnLid_play=0.05&SlideOnLid_space=2.0&SlideOnLid_width=1.0&Click_angle=5.0&Click_bottom_radius=0.1&Click_depth=3.0&RoundedTriangleEdge_height=50.0&RoundedTriangleEdge_r_hole=2.0&RoundedTriangleEdge_radius=30.0&RoundedTriangleEdge_outset=1.0&Mounting_d_head=6.5&Mounting_d_shaft=3.0&Mounting_margin=0.125&Mounting_num=2&Mounting_side=back&Mounting_style=straight+edge%2C+within&HandleEdge_height=20.0&HandleEdge_hole_height=75.0&HandleEdge_hole_width=40%3A40&HandleEdge_on_sides=0&HandleEdge_on_sides=1&HandleEdge_radius=10.0&HandleEdge_outset=1.0&Flex_stretch=1.05&Flex_connection=1.0&Flex_distance=0.5&Flex_width=5.0&Lid_handle=none&Lid_style=none&Lid_handle_height=8.0&Lid_height=4.0&Lid_play=0.1&top_edge=e&bottom_edge=s&x=210&y=270&h=19&outside=0&outside=1&vertical_edges=finger+joints&thickness=3.0&burn=0.1&format=svg&labels=0&labels=1&reference=100.0&tabs=0.0&qr_code=0&inner_corners=loop&spacing=0.5&debug=0&language=en&render=2
Url short: https://boxes.hackerspace-bamberg.de/UniversalBox?Stackable_bottom_stabilizers=2&bottom_edge=s&x=210&y=270&h=19&spacing=0.5
SettingsUrl: https://boxes.hackerspace-bamberg.de/UniversalBox?FingerJoint_style=rectangular&FingerJoint_surroundingspaces=2.0&FingerJoint_bottom_lip=0.0&FingerJoint_edge_width=1.0&FingerJoint_extra_length=0.0&FingerJoint_finger=2&FingerJoint_play=0.0&FingerJoint_space=2&FingerJoint_width=1.0&Stackable_angle=60&Stackable_bottom_stabilizers=2&Stackable_height=2.0&Stackable_holedistance=1.0&Stackable_width=4.0&Hinge_grip_percentage=0&Hinge_outset=0&Hinge_outset=1&Hinge_pinwidth=0.5&Hinge_axle=2.0&Hinge_grip_length=0&Hinge_hingestrength=1&CabinetHinge_bore=3.2&CabinetHinge_eyes_per_hinge=5&CabinetHinge_hinges=2&CabinetHinge_style=inside&CabinetHinge_eye=1.5&CabinetHinge_play=0.05&CabinetHinge_spacing=2.0&SlideOnLid_hole_width=0&SlideOnLid_second_pin=0&SlideOnLid_second_pin=1&SlideOnLid_spring=both&SlideOnLid_style=rectangular&SlideOnLid_surroundingspaces=2.0&SlideOnLid_bottom_lip=0.0&SlideOnLid_edge_width=1.0&SlideOnLid_extra_length=0.0&SlideOnLid_finger=3.0&SlideOnLid_play=0.05&SlideOnLid_space=2.0&SlideOnLid_width=1.0&Click_angle=5.0&Click_bottom_radius=0.1&Click_depth=3.0&RoundedTriangleEdge_height=50.0&RoundedTriangleEdge_r_hole=2.0&RoundedTriangleEdge_radius=30.0&RoundedTriangleEdge_outset=1.0&Mounting_d_head=6.5&Mounting_d_shaft=3.0&Mounting_margin=0.125&Mounting_num=2&Mounting_side=back&Mounting_style=straight+edge%2C+within&HandleEdge_height=20.0&HandleEdge_hole_height=75.0&HandleEdge_hole_width=40%3A40&HandleEdge_on_sides=0&HandleEdge_on_sides=1&HandleEdge_radius=10.0&HandleEdge_outset=1.0&Flex_stretch=1.05&Flex_connection=1.0&Flex_distance=0.5&Flex_width=5.0&Lid_handle=none&Lid_style=none&Lid_handle_height=8.0&Lid_height=4.0&Lid_play=0.1&top_edge=e&bottom_edge=s&x=210&y=270&h=19&outside=0&outside=1&vertical_edges=finger+joints&thickness=3.0&burn=0.1&format=svg&labels=0&labels=1&reference=100.0&tabs=0.0&qr_code=0&inner_corners=loop&spacing=0.5&debug=0&language=en&render=2
SettingsUrl short: https://boxes.hackerspace-bamberg.de/UniversalBox?Stackable_bottom_stabilizers=2&bottom_edge=s&x=210&y=270&h=19&spacing=0.5
-->
  <title
     id="title1">UniversalBox</title>
  <metadata
     id="metadata1">
    <rdf:RDF>
      <cc:Work>
        <dc:title>Box - UniversalBox</dc:title>
        <dc:date>2026-03-16 02:54:28</dc:date>
        <dc:source>https://boxes.hackerspace-bamberg.de/UniversalBox?FingerJoint_style=rectangular&amp;FingerJoint_surroundingspaces=2.0&amp;FingerJoint_bottom_lip=0.0&amp;FingerJoint_edge_width=1.0&amp;FingerJoint_extra_length=0.0&amp;FingerJoint_finger=2&amp;FingerJoint_play=0.0&amp;FingerJoint_space=2&amp;FingerJoint_width=1.0&amp;Stackable_angle=60&amp;Stackable_bottom_stabilizers=2&amp;Stackable_height=2.0&amp;Stackable_holedistance=1.0&amp;Stackable_width=4.0&amp;Hinge_grip_percentage=0&amp;Hinge_outset=0&amp;Hinge_outset=1&amp;Hinge_pinwidth=0.5&amp;Hinge_axle=2.0&amp;Hinge_grip_length=0&amp;Hinge_hingestrength=1&amp;CabinetHinge_bore=3.2&amp;CabinetHinge_eyes_per_hinge=5&amp;CabinetHinge_hinges=2&amp;CabinetHinge_style=inside&amp;CabinetHinge_eye=1.5&amp;CabinetHinge_play=0.05&amp;CabinetHinge_spacing=2.0&amp;SlideOnLid_hole_width=0&amp;SlideOnLid_second_pin=0&amp;SlideOnLid_second_pin=1&amp;SlideOnLid_spring=both&amp;SlideOnLid_style=rectangular&amp;SlideOnLid_surroundingspaces=2.0&amp;SlideOnLid_bottom_lip=0.0&amp;SlideOnLid_edge_width=1.0&amp;SlideOnLid_extra_length=0.0&amp;SlideOnLid_finger=3.0&amp;SlideOnLid_play=0.05&amp;SlideOnLid_space=2.0&amp;SlideOnLid_width=1.0&amp;Click_angle=5.0&amp;Click_bottom_radius=0.1&amp;Click_depth=3.0&amp;RoundedTriangleEdge_height=50.0&amp;RoundedTriangleEdge_r_hole=2.0&amp;RoundedTriangleEdge_radius=30.0&amp;RoundedTriangleEdge_outset=1.0&amp;Mounting_d_head=6.5&amp;Mounting_d_shaft=3.0&amp;Mounting_margin=0.125&amp;Mounting_num=2&amp;Mounting_side=back&amp;Mounting_style=straight+edge%2C+within&amp;HandleEdge_height=20.0&amp;HandleEdge_hole_height=75.0&amp;HandleEdge_hole_width=40%3A40&amp;HandleEdge_on_sides=0&amp;HandleEdge_on_sides=1&amp;HandleEdge_radius=10.0&amp;HandleEdge_outset=1.0&amp;Flex_stretch=1.05&amp;Flex_connection=1.0&amp;Flex_distance=0.5&amp;Flex_width=5.0&amp;Lid_handle=none&amp;Lid_style=none&amp;Lid_handle_height=8.0&amp;Lid_height=4.0&amp;Lid_play=0.1&amp;top_edge=e&amp;bottom_edge=s&amp;x=210&amp;y=270&amp;h=19&amp;outside=0&amp;outside=1&amp;vertical_edges=finger+joints&amp;thickness=3.0&amp;burn=0.1&amp;format=svg&amp;labels=0&amp;labels=1&amp;reference=100.0&amp;tabs=0.0&amp;qr_code=0&amp;inner_corners=loop&amp;spacing=0.5&amp;debug=0&amp;language=en&amp;render=2</dc:source>
        <dc:source>https://boxes.hackerspace-bamberg.de/UniversalBox?Stackable_bottom_stabilizers=2&amp;bottom_edge=s&amp;x=210&amp;y=270&amp;h=19&amp;spacing=0.5</dc:source>
        <dc:description>Box with various options for different styles and lids

Created with Boxes.py (https://boxes.hackerspace-bamberg.de/)
Command line: boxes UniversalBox --FingerJoint_style=rectangular --FingerJoint_surroundingspaces=2.0 --FingerJoint_bottom_lip=0.0 --FingerJoint_edge_width=1.0 --FingerJoint_extra_length=0.0 --FingerJoint_finger=2 --FingerJoint_play=0.0 --FingerJoint_space=2 --FingerJoint_width=1.0 --Stackable_angle=60 --Stackable_bottom_stabilizers=2 --Stackable_height=2.0 --Stackable_holedistance=1.0 --Stackable_width=4.0 --Hinge_grip_percentage=0 --Hinge_outset=0 --Hinge_outset=1 --Hinge_pinwidth=0.5 --Hinge_axle=2.0 --Hinge_grip_length=0 --Hinge_hingestrength=1 --CabinetHinge_bore=3.2 --CabinetHinge_eyes_per_hinge=5 --CabinetHinge_hinges=2 --CabinetHinge_style=inside --CabinetHinge_eye=1.5 --CabinetHinge_play=0.05 --CabinetHinge_spacing=2.0 --SlideOnLid_hole_width=0 --SlideOnLid_second_pin=0 --SlideOnLid_second_pin=1 --SlideOnLid_spring=both --SlideOnLid_style=rectangular --SlideOnLid_surroundingspaces=2.0 --SlideOnLid_bottom_lip=0.0 --SlideOnLid_edge_width=1.0 --SlideOnLid_extra_length=0.0 --SlideOnLid_finger=3.0 --SlideOnLid_play=0.05 --SlideOnLid_space=2.0 --SlideOnLid_width=1.0 --Click_angle=5.0 --Click_bottom_radius=0.1 --Click_depth=3.0 --RoundedTriangleEdge_height=50.0 --RoundedTriangleEdge_r_hole=2.0 --RoundedTriangleEdge_radius=30.0 --RoundedTriangleEdge_outset=1.0 --Mounting_d_head=6.5 --Mounting_d_shaft=3.0 --Mounting_margin=0.125 --Mounting_num=2 --Mounting_side=back '--Mounting_style=straight edge, within' --HandleEdge_height=20.0 --HandleEdge_hole_height=75.0 --HandleEdge_hole_width=40:40 --HandleEdge_on_sides=0 --HandleEdge_on_sides=1 --HandleEdge_radius=10.0 --HandleEdge_outset=1.0 --Flex_stretch=1.05 --Flex_connection=1.0 --Flex_distance=0.5 --Flex_width=5.0 --Lid_handle=none --Lid_style=none --Lid_handle_height=8.0 --Lid_height=4.0 --Lid_play=0.1 --top_edge=e --bottom_edge=s --x=210 --y=270 --h=19 --outside=0 --outside=1 '--vertical_edges=finger joints' --thickness=3.0 --burn=0.1 --format=svg --labels=0 --labels=1 --reference=100.0 --tabs=0.0 --qr_code=0 --inner_corners=loop --spacing=0.5 --debug=0
Command line short: boxes UniversalBox --Stackable_bottom_stabilizers=2 --bottom_edge=s --x=210 --y=270 --h=19 --spacing=0.5
Url: https://boxes.hackerspace-bamberg.de/UniversalBox?FingerJoint_style=rectangular&amp;FingerJoint_surroundingspaces=2.0&amp;FingerJoint_bottom_lip=0.0&amp;FingerJoint_edge_width=1.0&amp;FingerJoint_extra_length=0.0&amp;FingerJoint_finger=2&amp;FingerJoint_play=0.0&amp;FingerJoint_space=2&amp;FingerJoint_width=1.0&amp;Stackable_angle=60&amp;Stackable_bottom_stabilizers=2&amp;Stackable_height=2.0&amp;Stackable_holedistance=1.0&amp;Stackable_width=4.0&amp;Hinge_grip_percentage=0&amp;Hinge_outset=0&amp;Hinge_outset=1&amp;Hinge_pinwidth=0.5&amp;Hinge_axle=2.0&amp;Hinge_grip_length=0&amp;Hinge_hingestrength=1&amp;CabinetHinge_bore=3.2&amp;CabinetHinge_eyes_per_hinge=5&amp;CabinetHinge_hinges=2&amp;CabinetHinge_style=inside&amp;CabinetHinge_eye=1.5&amp;CabinetHinge_play=0.05&amp;CabinetHinge_spacing=2.0&amp;SlideOnLid_hole_width=0&amp;SlideOnLid_second_pin=0&amp;SlideOnLid_second_pin=1&amp;SlideOnLid_spring=both&amp;SlideOnLid_style=rectangular&amp;SlideOnLid_surroundingspaces=2.0&amp;SlideOnLid_bottom_lip=0.0&amp;SlideOnLid_edge_width=1.0&amp;SlideOnLid_extra_length=0.0&amp;SlideOnLid_finger=3.0&amp;SlideOnLid_play=0.05&amp;SlideOnLid_space=2.0&amp;SlideOnLid_width=1.0&amp;Click_angle=5.0&amp;Click_bottom_radius=0.1&amp;Click_depth=3.0&amp;RoundedTriangleEdge_height=50.0&amp;RoundedTriangleEdge_r_hole=2.0&amp;RoundedTriangleEdge_radius=30.0&amp;RoundedTriangleEdge_outset=1.0&amp;Mounting_d_head=6.5&amp;Mounting_d_shaft=3.0&amp;Mounting_margin=0.125&amp;Mounting_num=2&amp;Mounting_side=back&amp;Mounting_style=straight+edge%2C+within&amp;HandleEdge_height=20.0&amp;HandleEdge_hole_height=75.0&amp;HandleEdge_hole_width=40%3A40&amp;HandleEdge_on_sides=0&amp;HandleEdge_on_sides=1&amp;HandleEdge_radius=10.0&amp;HandleEdge_outset=1.0&amp;Flex_stretch=1.05&amp;Flex_connection=1.0&amp;Flex_distance=0.5&amp;Flex_width=5.0&amp;Lid_handle=none&amp;Lid_style=none&amp;Lid_handle_height=8.0&amp;Lid_height=4.0&amp;Lid_play=0.1&amp;top_edge=e&amp;bottom_edge=s&amp;x=210&amp;y=270&amp;h=19&amp;outside=0&amp;outside=1&amp;vertical_edges=finger+joints&amp;thickness=3.0&amp;burn=0.1&amp;format=svg&amp;labels=0&amp;labels=1&amp;reference=100.0&amp;tabs=0.0&amp;qr_code=0&amp;inner_corners=loop&amp;spacing=0.5&amp;debug=0&amp;language=en&amp;render=2
Url short: https://boxes.hackerspace-bamberg.de/UniversalBox?Stackable_bottom_stabilizers=2&amp;bottom_edge=s&amp;x=210&amp;y=270&amp;h=19&amp;spacing=0.5
SettingsUrl: https://boxes.hackerspace-bamberg.de/UniversalBox?FingerJoint_style=rectangular&amp;FingerJoint_surroundingspaces=2.0&amp;FingerJoint_bottom_lip=0.0&amp;FingerJoint_edge_width=1.0&amp;FingerJoint_extra_length=0.0&amp;FingerJoint_finger=2&amp;FingerJoint_play=0.0&amp;FingerJoint_space=2&amp;FingerJoint_width=1.0&amp;Stackable_angle=60&amp;Stackable_bottom_stabilizers=2&amp;Stackable_height=2.0&amp;Stackable_holedistance=1.0&amp;Stackable_width=4.0&amp;Hinge_grip_percentage=0&amp;Hinge_outset=0&amp;Hinge_outset=1&amp;Hinge_pinwidth=0.5&amp;Hinge_axle=2.0&amp;Hinge_grip_length=0&amp;Hinge_hingestrength=1&amp;CabinetHinge_bore=3.2&amp;CabinetHinge_eyes_per_hinge=5&amp;CabinetHinge_hinges=2&amp;CabinetHinge_style=inside&amp;CabinetHinge_eye=1.5&amp;CabinetHinge_play=0.05&amp;CabinetHinge_spacing=2.0&amp;SlideOnLid_hole_width=0&amp;SlideOnLid_second_pin=0&amp;SlideOnLid_second_pin=1&amp;SlideOnLid_spring=both&amp;SlideOnLid_style=rectangular&amp;SlideOnLid_surroundingspaces=2.0&amp;SlideOnLid_bottom_lip=0.0&amp;SlideOnLid_edge_width=1.0&amp;SlideOnLid_extra_length=0.0&amp;SlideOnLid_finger=3.0&amp;SlideOnLid_play=0.05&amp;SlideOnLid_space=2.0&amp;SlideOnLid_width=1.0&amp;Click_angle=5.0&amp;Click_bottom_radius=0.1&amp;Click_depth=3.0&amp;RoundedTriangleEdge_height=50.0&amp;RoundedTriangleEdge_r_hole=2.0&amp;RoundedTriangleEdge_radius=30.0&amp;RoundedTriangleEdge_outset=1.0&amp;Mounting_d_head=6.5&amp;Mounting_d_shaft=3.0&amp;Mounting_margin=0.125&amp;Mounting_num=2&amp;Mounting_side=back&amp;Mounting_style=straight+edge%2C+within&amp;HandleEdge_height=20.0&amp;HandleEdge_hole_height=75.0&amp;HandleEdge_hole_width=40%3A40&amp;HandleEdge_on_sides=0&amp;HandleEdge_on_sides=1&amp;HandleEdge_radius=10.0&amp;HandleEdge_outset=1.0&amp;Flex_stretch=1.05&amp;Flex_connection=1.0&amp;Flex_distance=0.5&amp;Flex_width=5.0&amp;Lid_handle=none&amp;Lid_style=none&amp;Lid_handle_height=8.0&amp;Lid_height=4.0&amp;Lid_play=0.1&amp;top_edge=e&amp;bottom_edge=s&amp;x=210&amp;y=270&amp;h=19&amp;outside=0&amp;outside=1&amp;vertical_edges=finger+joints&amp;thickness=3.0&amp;burn=0.1&amp;format=svg&amp;labels=0&amp;labels=1&amp;reference=100.0&amp;tabs=0.0&amp;qr_code=0&amp;inner_corners=loop&amp;spacing=0.5&amp;debug=0&amp;language=en&amp;render=2
SettingsUrl short: https://boxes.hackerspace-bamberg.de/UniversalBox?Stackable_bottom_stabilizers=2&amp;bottom_edge=s&amp;x=210&amp;y=270&amp;h=19&amp;spacing=0.5
</dc:description>
      </cc:Work>
    </rdf:RDF>
  </metadata>
  <g
     id="p-0"
     style="fill:none;stroke-linecap:round;stroke-linejoin:round;">
    <path
       d="M 10.100 333.300 H 110.100 V 323.300 H 10.100 V 333.300 Z"
       stroke="rgb(0,0,0)"
       stroke-width="0.20"
       id="path1" />
    <text
       dominant-baseline="hanging"
       font-size="6px"
       style="font-family: sans-serif ; font-weight: normal; font-style: normal; fill: rgb(255,0,0)"
       text-anchor="middle"
       transform="matrix( 1.000 0.000 0.000 1.000 60.100 325.300 )"
       id="text1">100.0mm, burn:0.10mm</text>
  </g>
  <path
     id="path19"
     style="fill:none;stroke-linecap:round;stroke-linejoin:round;font-variation-settings:normal;opacity:1;vector-effect:none;fill-opacity:1;stroke:#000000;stroke-width:0.2;stroke-miterlimit:4;stroke-dasharray:none;stroke-dashoffset:0;stroke-opacity:1;-inkscape-stroke:none;stop-color:#000000;stop-opacity:1"
     d="M 22.218799 302.39188 C 22.209765 302.39382 22.201555 302.40396 22.200195 302.42857 L 22.200195 302.40015 L 13.099976 302.40015 L 10.100159 302.40015 C 10.045159 302.40015 9.9999064 302.44488 9.9999064 302.49988 L 9.9999064 305.14985 C 9.9999064 305.20485 10.045159 305.2501 10.100159 305.2501 L 13.00024 305.2501 L 13.00024 311.04975 L 10.100159 311.04975 C 10.045159 311.04975 9.9999064 311.095 9.9999064 311.15 L 9.9999064 313.79997 C 9.9999064 313.85497 10.045159 313.90022 10.100159 313.90022 L 13.099976 313.90022 L 25.09976 313.90022 C 26.17076 313.90022 27.22322 313.61822 28.15022 313.08322 C 29.07722 312.54722 29.847158 311.77676 30.383158 310.84976 C 30.901158 309.95276 31.6452 309.2082 32.5422 308.6902 C 33.4392 308.1732 34.45689 307.90007 35.49189 307.90007 L 194.70801 307.90007 C 195.74301 307.90007 196.76122 308.1732 197.65822 308.6902 C 198.55522 309.2082 199.29874 309.95276 199.81674 310.84976 C 200.35274 311.77676 201.1232 312.54722 202.0502 313.08322 C 202.9772 313.61822 204.02914 313.90022 205.10014 313.90022 L 217.09993 313.90022 L 220.09974 313.90022 C 220.15474 313.90022 220.2 313.85497 220.2 313.79997 L 220.2 311.15 C 220.2 311.095 220.15474 311.04975 220.09974 311.04975 L 217.20018 311.04975 L 217.20018 305.2501 L 220.09974 305.2501 C 220.15474 305.2501 220.2 305.20485 220.2 305.14985 L 220.2 302.49988 C 220.2 302.44488 220.15474 302.40015 220.09974 302.40015 L 217.09993 302.40015 L 208.00022 302.40015 L 208.00022 302.43632 L 208.00022 305.2439 L 205.10014 305.2439 L 202.20006 305.2439 L 202.20006 302.43632 L 202.20006 302.40015 L 195.99992 302.40015 L 195.99992 302.4296 C 195.99579 302.34024 195.90234 302.43623 195.99992 302.43632 L 195.99992 305.2439 L 193.09984 305.2439 L 190.20028 305.2439 L 190.20028 302.43632 L 190.19976 302.43632 L 190.19976 302.40015 L 184.00014 302.40015 L 184.00014 302.43632 L 184.00014 305.2439 L 181.10006 305.2439 L 178.19998 305.2439 L 178.19998 302.43632 L 178.19998 302.40015 L 171.99984 302.40015 L 171.99984 302.42857 C 171.99494 302.34124 171.90278 302.43619 171.99984 302.43632 L 171.99984 305.2439 L 169.09976 305.2439 L 166.20019 305.2439 L 166.20019 302.43632 C 166.29768 302.43622 166.20446 302.3406 166.20019 302.4296 L 166.20019 302.40015 L 160.00005 302.40015 L 160.00005 302.43632 L 160.00005 305.2439 L 157.09997 305.2439 L 154.19989 305.2439 L 154.19989 302.43632 L 154.19989 302.40015 L 147.99975 302.40015 L 147.99975 302.42753 C 147.99412 302.34221 147.90324 302.43615 147.99975 302.43632 L 147.99975 305.2439 L 148.00027 305.2439 L 148.00027 305.25269 C 148.00009 305.25 147.99975 305.24695 147.99975 305.2439 L 145.10019 305.2439 L 142.20011 305.2439 L 142.20011 302.43632 C 142.29821 302.43626 142.20345 302.33971 142.20011 302.43115 L 142.20011 302.40015 L 135.99997 302.40015 L 135.99997 302.4327 C 135.99771 302.33843 135.90119 302.43629 135.99997 302.43632 L 135.99997 305.2439 L 133.09989 305.2439 L 130.1998 305.2439 L 130.1998 302.43632 L 130.1998 302.40015 L 124.00018 302.40015 L 124.00018 302.43632 L 124.00018 305.2439 L 121.1001 305.2439 L 118.20002 305.2439 L 118.20002 302.43632 C 118.29917 302.43631 118.20163 302.3378 118.20002 302.43374 L 118.20002 302.40015 L 111.99988 302.40015 L 111.99988 302.43064 C 111.9962 302.34008 111.902 302.43625 111.99988 302.43632 L 111.99988 305.2439 L 109.0998 305.2439 L 106.20024 305.2439 L 106.20024 302.43632 C 106.2969 302.43616 106.20567 302.34218 106.20024 302.42805 L 106.20024 302.40015 L 100.0001 302.40015 L 100.0001 302.43632 L 100.0001 305.2439 L 97.100016 305.2439 L 94.199935 305.2439 L 94.199935 302.43632 L 94.199935 302.40015 L 87.999797 302.40015 L 87.999797 302.42909 C 87.995203 302.34095 87.902528 302.43621 87.999797 302.43632 L 87.999797 305.2439 L 85.100232 305.2439 L 82.200151 305.2439 L 82.200151 302.43632 C 82.297367 302.4362 82.204818 302.34115 82.200151 302.42909 L 82.200151 302.40015 L 76.000012 302.40015 L 76.000012 302.43632 L 76.000012 305.2439 L 73.099931 305.2439 L 70.199849 305.2439 L 70.199849 302.43632 L 70.199849 302.40015 L 64.000228 302.40015 L 64.000228 302.43632 L 63.999711 302.43632 L 63.999711 305.2439 L 61.100146 305.2439 L 58.200065 305.2439 L 58.200065 302.43632 C 58.297899 302.43624 58.203826 302.34029 58.200065 302.43064 L 58.200065 302.40015 L 51.999927 302.40015 L 51.999927 302.43425 C 51.998533 302.33777 51.900661 302.43631 51.999927 302.43632 L 51.999927 305.2439 L 49.099845 305.2439 L 46.199764 305.2439 L 46.199764 302.43632 L 46.199764 302.40015 L 40.000142 302.40015 L 40.000142 302.43632 L 40.000142 305.2439 L 37.100061 305.2439 L 34.19998 305.2439 L 34.19998 302.43632 C 34.298584 302.43629 34.202519 302.33864 34.19998 302.43219 L 34.19998 302.40015 L 27.999841 302.40015 L 27.999841 302.4296 C 27.995452 302.34092 27.902431 302.43622 27.999841 302.43632 L 27.999841 305.2439 L 25.09976 305.2439 L 22.200195 305.2439 L 22.200195 302.43632 C 22.269986 302.43623 22.241885 302.38692 22.218799 302.39188 z M 40.000142 302.43632 C 40.000142 302.33632 39.900142 302.43632 40.000142 302.43632 z M 46.199764 302.43632 C 46.299764 302.43632 46.199764 302.33632 46.199764 302.43632 z M 63.999711 302.43632 C 63.999711 302.33632 63.899711 302.43632 63.999711 302.43632 z M 70.199849 302.43632 C 70.299849 302.43632 70.199849 302.33632 70.199849 302.43632 z M 76.000012 302.43632 C 76.000012 302.33632 75.900012 302.43632 76.000012 302.43632 z M 94.199935 302.43632 C 94.299935 302.43632 94.199935 302.33632 94.199935 302.43632 z M 100.0001 302.43632 C 100.0001 302.33632 99.900098 302.43632 100.0001 302.43632 z M 124.00018 302.43632 C 124.00018 302.33632 123.90018 302.43632 124.00018 302.43632 z M 130.1998 302.43632 C 130.2998 302.43632 130.1998 302.33632 130.1998 302.43632 z M 154.19989 302.43632 C 154.29989 302.43632 154.19989 302.33632 154.19989 302.43632 z M 160.00005 302.43632 C 160.00005 302.33632 159.90005 302.43632 160.00005 302.43632 z M 178.19998 302.43632 C 178.29998 302.43632 178.19998 302.33632 178.19998 302.43632 z M 184.00014 302.43632 C 184.00014 302.33632 183.90014 302.43632 184.00014 302.43632 z M 190.20028 302.43632 C 190.30028 302.43632 190.20028 302.33632 190.20028 302.43632 z M 202.20006 302.43632 C 202.30006 302.43632 202.20006 302.33632 202.20006 302.43632 z M 208.00022 302.43632 C 208.00022 302.33632 207.90022 302.43632 208.00022 302.43632 z " />
  <text
     dominant-baseline="hanging"
     font-size="4px"
     style="font-style:normal;font-weight:normal;font-family:sans-serif;fill:#ff0000;stroke-linecap:round;stroke-linejoin:round"
     text-anchor="middle"
     id="text19"
     x="115.1"
     y="310.10001">front</text>
  <path
     id="path3"
     style="opacity:1;vector-effect:none;fill:none;stroke:#000000;stroke-width:0.2;stroke-linecap:round;stroke-linejoin:round;stop-color:#000000;stop-opacity:1"
     d="M 22.220349 281.65361 C 22.209973 281.65495 22.200195 281.6668 22.200195 281.69805 C 22.268946 281.69805 22.243176 281.65066 22.220349 281.65361 z M 22.200195 281.69805 L 18.100704 281.69805 L 18.09967 281.70012 L 13.099976 281.70012 L 10.100159 281.70012 C 10.045159 281.70012 9.9999064 281.74485 9.9999064 281.79985 L 9.9999064 284.44982 C 9.9999064 284.50482 10.045159 284.55007 10.100159 284.55007 L 13.00024 284.55007 L 13.00024 290.35024 L 10.100159 290.35024 C 10.045159 290.35024 9.9999064 290.39497 9.9999064 290.44997 L 9.9999064 293.09994 C 9.9999064 293.15494 10.045159 293.20019 10.100159 293.20019 L 13.099976 293.20019 L 25.09976 293.20019 C 26.17076 293.20019 27.22322 292.91819 28.15022 292.38319 C 29.07722 291.84719 29.847158 291.07725 30.383158 290.15025 C 30.901158 289.25325 31.6452 288.50817 32.5422 287.99017 C 33.4392 287.47317 34.45689 287.20004 35.49189 287.20004 L 194.70801 287.20004 C 195.74301 287.20004 196.76122 287.47317 197.65822 287.99017 C 198.55522 288.50817 199.29874 289.25325 199.81674 290.15025 C 200.35274 291.07725 201.1232 291.84719 202.0502 292.38319 C 202.9772 292.91819 204.02914 293.20019 205.10014 293.20019 L 217.09993 293.20019 L 220.09974 293.20019 C 220.15474 293.20019 220.2 293.15489 220.2 293.09994 L 220.2 290.44997 C 220.2 290.39497 220.1547 290.35024 220.09974 290.35024 L 217.20018 290.35024 L 217.20018 284.55007 L 220.09974 284.55007 C 220.15474 284.55007 220.2 284.50477 220.2 284.44982 L 220.2 281.79985 C 220.2 281.74485 220.1547 281.70012 220.09974 281.70012 L 217.09993 281.70012 L 215.50881 281.70012 L 215.50881 281.69805 L 208.00022 281.69805 L 208.00022 281.70012 L 208.00022 284.54387 L 205.10014 284.54387 L 202.20006 284.54387 L 202.20006 281.70012 L 202.20006 281.69805 L 195.99992 281.69805 L 195.99992 281.70012 L 195.99992 284.54387 L 193.09984 284.54387 L 190.20028 284.54387 L 190.20028 281.69805 L 184.00014 281.69805 L 184.00014 281.70012 L 184.00014 284.54387 L 181.10006 284.54387 L 178.19998 284.54387 L 178.19998 281.70012 L 178.19998 281.69805 L 171.99984 281.69805 L 171.99984 281.70012 L 171.99984 284.54387 L 169.09976 284.54387 L 166.20019 284.54387 L 166.20019 281.70012 L 166.20019 281.69805 L 160.00005 281.69805 L 160.00005 281.70012 L 160.00005 284.54387 L 157.09997 284.54387 L 154.19989 284.54387 L 154.19989 281.70012 L 154.19989 281.69805 L 148.00027 281.69805 L 148.00027 281.70012 L 147.99975 281.70012 L 147.99975 284.54387 L 148.00027 284.54387 L 148.00027 284.55266 C 148.00009 284.54997 147.99975 284.54692 147.99975 284.54387 L 145.10019 284.54387 L 142.20011 284.54387 L 142.20011 281.70012 L 142.20011 281.69805 L 135.99997 281.69805 L 135.99997 281.70012 L 135.99997 284.54387 L 133.09989 284.54387 L 130.1998 284.54387 L 130.1998 281.70012 L 130.1998 281.69805 L 124.00018 281.69805 L 124.00018 281.70012 L 124.00018 284.54387 L 121.1001 284.54387 L 118.20002 284.54387 L 118.20002 281.70012 L 118.20002 281.69805 L 111.99988 281.69805 L 111.99988 281.70012 L 111.99988 284.54387 L 109.0998 284.54387 L 106.20024 284.54387 L 106.20024 281.70012 L 106.20024 281.69805 L 100.0001 281.69805 L 100.0001 281.70012 L 100.0001 284.54387 L 97.100016 284.54387 L 94.199935 284.54387 L 94.199935 281.70012 L 94.199935 281.69805 L 87.999797 281.69805 L 87.999797 281.70012 L 87.999797 284.54387 L 85.100232 284.54387 L 82.200151 284.54387 L 82.200151 281.70012 L 82.200151 281.69805 L 76.000012 281.69805 L 76.000012 281.70012 L 76.000012 284.54387 L 73.099931 284.54387 L 70.199849 284.54387 L 70.199849 281.70012 L 70.199849 281.69805 L 63.999711 281.69805 L 63.999711 284.54387 L 61.100146 284.54387 L 58.200065 284.54387 L 58.200065 281.70012 L 58.200065 281.69805 L 51.999927 281.69805 L 51.999927 281.70012 L 51.999927 284.54387 L 49.099845 284.54387 L 46.199764 284.54387 L 46.199764 281.70012 L 46.199764 281.69805 L 40.000142 281.69805 L 40.000142 281.70012 L 40.000142 284.54387 L 37.100061 284.54387 L 34.19998 284.54387 L 34.19998 281.70012 L 34.19998 281.69805 L 27.999841 281.69805 L 27.999841 281.70012 L 27.999841 284.54387 L 25.09976 284.54387 L 22.200195 284.54387 L 22.200195 281.70012 L 22.200195 281.69805 z M 27.999841 281.69805 C 27.999841 281.59805 27.899841 281.69805 27.999841 281.69805 z M 34.19998 281.69805 C 34.299981 281.69805 34.19998 281.59805 34.19998 281.69805 z M 40.000142 281.69805 C 40.000142 281.59805 39.900142 281.69805 40.000142 281.69805 z M 46.199764 281.69805 C 46.299764 281.69805 46.199764 281.59805 46.199764 281.69805 z M 51.999927 281.69805 C 51.999927 281.59805 51.899927 281.69805 51.999927 281.69805 z M 58.200065 281.69805 C 58.300065 281.69805 58.200065 281.59805 58.200065 281.69805 z M 63.999711 281.69805 C 63.999711 281.59805 63.899711 281.69805 63.999711 281.69805 z M 70.199849 281.69805 C 70.299849 281.69805 70.199849 281.59805 70.199849 281.69805 z M 76.000012 281.69805 C 76.000012 281.59805 75.900012 281.69805 76.000012 281.69805 z M 82.200151 281.69805 C 82.300151 281.69805 82.200151 281.59805 82.200151 281.69805 z M 87.999797 281.69805 C 87.999797 281.59805 87.899797 281.69805 87.999797 281.69805 z M 94.199935 281.69805 C 94.299935 281.69805 94.199935 281.59805 94.199935 281.69805 z M 100.0001 281.69805 C 100.0001 281.59805 99.900098 281.69805 100.0001 281.69805 z M 106.20024 281.69805 C 106.30024 281.69805 106.20024 281.59805 106.20024 281.69805 z M 111.99988 281.69805 C 111.99988 281.59805 111.89988 281.69805 111.99988 281.69805 z M 118.20002 281.69805 C 118.30002 281.69805 118.20002 281.59805 118.20002 281.69805 z M 124.00018 281.69805 C 124.00018 281.59805 123.90018 281.69805 124.00018 281.69805 z M 130.1998 281.69805 C 130.2998 281.69805 130.1998 281.59805 130.1998 281.69805 z M 135.99997 281.69805 C 135.99997 281.59805 135.89997 281.69805 135.99997 281.69805 z M 142.20011 281.69805 C 142.30011 281.69805 142.20011 281.59805 142.20011 281.69805 z M 148.00027 281.69805 C 148.00027 281.59805 147.90027 281.69805 148.00027 281.69805 z M 154.19989 281.69805 C 154.29989 281.69805 154.19989 281.59805 154.19989 281.69805 z M 160.00005 281.69805 C 160.00005 281.59805 159.90005 281.69805 160.00005 281.69805 z M 166.20019 281.69805 C 166.30019 281.69805 166.20019 281.59805 166.20019 281.69805 z M 171.99984 281.69805 C 171.99984 281.59805 171.89984 281.69805 171.99984 281.69805 z M 178.19998 281.69805 C 178.29998 281.69805 178.19998 281.59805 178.19998 281.69805 z M 184.00014 281.69805 C 184.00014 281.59805 183.90014 281.69805 184.00014 281.69805 z M 190.20028 281.69805 C 190.30028 281.69805 190.20028 281.59805 190.20028 281.69805 z M 195.99992 281.69805 C 195.99992 281.59805 195.89992 281.69805 195.99992 281.69805 z M 202.20006 281.69805 C 202.30006 281.69805 202.20006 281.59805 202.20006 281.69805 z M 208.00022 281.69805 C 208.00022 281.59805 207.90022 281.69805 208.00022 281.69805 z " />
  <path
     d="m 106.20024,284.54387 c -0.1,0 0,0.1 0,0 z"
     style="opacity:1;vector-effect:none;fill:none;stroke:#000000;stroke-width:0.2;stroke-linecap:round;stroke-linejoin:round;stop-color:#000000;stop-opacity:1"
     id="path2" />
  <text
     dominant-baseline="hanging"
     font-size="4px"
     style="font-style:normal;font-weight:normal;font-family:sans-serif;fill:#ff0000;stroke-linecap:round;stroke-linejoin:round"
     text-anchor="middle"
     id="text37"
     x="115.1"
     y="289.39999">back</text>
  <path
     d="M 13.1,277.2 H 22 c 0.1,0 0,-0.1 0,0 v 2.9 c 0,0.055 0.045,0.1 0.1,0.1 h 6 c 0.055,0 0.1,-0.045 0.1,-0.1 v -2.9 c 0,-0.1 -0.1,0 0,0 H 34 c 0.1,0 0,-0.1 0,0 v 2.9 c 0,0.055 0.045,0.1 0.1,0.1 h 6 c 0.055,0 0.1,-0.045 0.1,-0.1 v -2.9 c 0,-0.1 -0.1,0 0,0 H 46 c 0.1,0 0,-0.1 0,0 v 2.9 c 0,0.055 0.045,0.1 0.1,0.1 h 6 c 0.055,0 0.1,-0.045 0.1,-0.1 v -2.9 c 0,-0.1 -0.1,0 0,0 H 58 c 0.1,0 0,-0.1 0,0 v 2.9 c 0,0.055 0.045,0.1 0.1,0.1 h 6 c 0.055,0 0.1,-0.045 0.1,-0.1 v -2.9 c 0,-0.1 -0.1,0 0,0 H 70 c 0.1,0 0,-0.1 0,0 v 2.9 c 0,0.055 0.045,0.1 0.1,0.1 h 6 c 0.055,0 0.1,-0.045 0.1,-0.1 v -2.9 c 0,-0.1 -0.1,0 0,0 H 82 c 0.1,0 0,-0.1 0,0 v 2.9 c 0,0.055 0.045,0.1 0.1,0.1 h 6 c 0.055,0 0.1,-0.045 0.1,-0.1 v -2.9 c 0,-0.1 -0.1,0 0,0 H 94 c 0.1,0 0,-0.1 0,0 v 2.9 c 0,0.055 0.045,0.1 0.1,0.1 h 6 c 0.055,0 0.1,-0.045 0.1,-0.1 v -2.9 c 0,-0.1 -0.1,0 0,0 h 5.8 c 0.1,0 0,-0.1 0,0 v 2.9 c 0,0.055 0.045,0.1 0.1,0.1 h 6 c 0.055,0 0.1,-0.045 0.1,-0.1 v -2.9 c 0,-0.1 -0.1,0 0,0 h 5.8 c 0.1,0 0,-0.1 0,0 v 2.9 c 0,0.055 0.045,0.1 0.1,0.1 h 6 c 0.055,0 0.1,-0.045 0.1,-0.1 v -2.9 c 0,-0.1 -0.1,0 0,0 h 5.8 c 0.1,0 0,-0.1 0,0 v 2.9 c 0,0.055 0.045,0.1 0.1,0.1 h 6 c 0.055,0 0.1,-0.045 0.1,-0.1 v -2.9 c 0,-0.1 -0.1,0 0,0 h 5.8 c 0.1,0 0,-0.1 0,0 v 2.9 c 0,0.055 0.045,0.1 0.1,0.1 h 6 c 0.055,0 0.1,-0.045 0.1,-0.1 v -2.9 c 0,-0.1 -0.1,0 0,0 h 5.8 c 0.1,0 0,-0.1 0,0 v 2.9 c 0,0.055 0.045,0.1 0.1,0.1 h 6 c 0.055,0 0.1,-0.045 0.1,-0.1 v -2.9 c 0,-0.1 -0.1,0 0,0 h 5.8 c 0.1,0 0,-0.1 0,0 v 2.9 c 0,0.055 0.045,0.1 0.1,0.1 h 6 c 0.055,0 0.1,-0.045 0.1,-0.1 v -2.9 c 0,-0.1 -0.1,0 0,0 h 5.8 c 0.1,0 0,-0.1 0,0 v 2.9 c 0,0.055 0.045,0.1 0.1,0.1 h 6 c 0.055,0 0.1,-0.045 0.1,-0.1 v -2.9 c 0,-0.1 -0.1,0 0,0 h 5.8 c 0.1,0 0,-0.1 0,0 v 2.9 c 0,0.055 0.045,0.1 0.1,0.1 h 6 c 0.055,0 0.1,-0.045 0.1,-0.1 v -2.9 c 0,-0.1 -0.1,0 0,0 h 5.8 c 0.1,0 0,-0.1 0,0 v 2.9 c 0,0.055 0.045,0.1 0.1,0.1 h 6 c 0.055,0 0.1,-0.045 0.1,-0.1 v -2.9 c 0,-0.1 -0.1,0 0,0 h 8.9 c 0.055,0 0.1,-0.045 0.1,-0.1 v -8.9 c 0,-0.1 -0.1,0 0,0 h 2.9 c 0.055,0 0.1,-0.045 0.1,-0.1 v -6 c 0,-0.055 -0.045,-0.1 -0.1,-0.1 h -2.9 c -0.1,0 0,0.1 0,0 v -5.8 c 0,-0.1 -0.1,0 0,0 h 2.9 c 0.055,0 0.1,-0.045 0.1,-0.1 v -6 c 0,-0.055 -0.045,-0.1 -0.1,-0.1 h -2.9 c -0.1,0 0,0.1 0,0 v -5.8 c 0,-0.1 -0.1,0 0,0 h 2.9 c 0.055,0 0.1,-0.045 0.1,-0.1 v -6 c 0,-0.055 -0.045,-0.1 -0.1,-0.1 h -2.9 c -0.1,0 0,0.1 0,0 v -5.8 c 0,-0.1 -0.1,0 0,0 h 2.9 c 0.055,0 0.1,-0.045 0.1,-0.1 v -6 c 0,-0.055 -0.045,-0.1 -0.1,-0.1 h -2.9 c -0.1,0 0,0.1 0,0 v -5.8 c 0,-0.1 -0.1,0 0,0 h 2.9 c 0.055,0 0.1,-0.045 0.1,-0.1 v -6 c 0,-0.055 -0.045,-0.1 -0.1,-0.1 h -2.9 c -0.1,0 0,0.1 0,0 v -5.8 c 0,-0.1 -0.1,0 0,0 h 2.9 c 0.055,0 0.1,-0.045 0.1,-0.1 v -6 c 0,-0.055 -0.045,-0.1 -0.1,-0.1 h -2.9 c -0.1,0 0,0.1 0,0 v -5.8 c 0,-0.1 -0.1,0 0,0 h 2.9 c 0.055,0 0.1,-0.045 0.1,-0.1 v -6 c 0,-0.055 -0.045,-0.1 -0.1,-0.1 h -2.9 c -0.1,0 0,0.1 0,0 v -5.8 c 0,-0.1 -0.1,0 0,0 h 2.9 c 0.055,0 0.1,-0.045 0.1,-0.1 v -6 c 0,-0.055 -0.045,-0.1 -0.1,-0.1 h -2.9 c -0.1,0 0,0.1 0,0 v -5.8 c 0,-0.1 -0.1,0 0,0 h 2.9 c 0.055,0 0.1,-0.045 0.1,-0.1 v -6 c 0,-0.055 -0.045,-0.1 -0.1,-0.1 h -2.9 c -0.1,0 0,0.1 0,0 v -5.8 c 0,-0.1 -0.1,0 0,0 h 2.9 c 0.055,0 0.1,-0.045 0.1,-0.1 v -6 c 0,-0.055 -0.045,-0.1 -0.1,-0.1 h -2.9 c -0.1,0 0,0.1 0,0 v -5.8 c 0,-0.1 -0.1,0 0,0 h 2.9 c 0.055,0 0.1,-0.045 0.1,-0.1 v -6 c 0,-0.055 -0.045,-0.1 -0.1,-0.1 h -2.9 c -0.1,0 0,0.1 0,0 v -5.8 c 0,-0.1 -0.1,0 0,0 h 2.9 c 0.055,0 0.1,-0.045 0.1,-0.1 v -6 c 0,-0.055 -0.045,-0.1 -0.1,-0.1 h -2.9 c -0.1,0 0,0.1 0,0 v -5.8 c 0,-0.1 -0.1,0 0,0 h 2.9 c 0.055,0 0.1,-0.045 0.1,-0.1 v -6 c 0,-0.055 -0.045,-0.1 -0.1,-0.1 h -2.9 c -0.1,0 0,0.1 0,0 v -5.8 c 0,-0.1 -0.1,0 0,0 h 2.9 c 0.055,0 0.1,-0.045 0.1,-0.1 v -6 c 0,-0.055 -0.045,-0.1 -0.1,-0.1 h -2.9 c -0.1,0 0,0.1 0,0 v -5.8 c 0,-0.1 -0.1,0 0,0 h 2.9 c 0.055,0 0.1,-0.045 0.1,-0.1 v -6 c 0,-0.055 -0.045,-0.1 -0.1,-0.1 h -2.9 c -0.1,0 0,0.1 0,0 v -5.8 c 0,-0.1 -0.1,0 0,0 h 2.9 c 0.055,0 0.1,-0.045 0.1,-0.1 v -6 c 0,-0.055 -0.045,-0.1 -0.1,-0.1 h -2.9 c -0.1,0 0,0.1 0,0 v -5.8 c 0,-0.1 -0.1,0 0,0 h 2.9 c 0.055,0 0.1,-0.045 0.1,-0.1 v -6 c 0,-0.055 -0.045,-0.1 -0.1,-0.1 h -2.9 c -0.1,0 0,0.1 0,0 v -5.8 c 0,-0.1 -0.1,0 0,0 h 2.9 c 0.055,0 0.1,-0.045 0.1,-0.1 v -6 c 0,-0.055 -0.045,-0.1 -0.1,-0.1 h -2.9 c -0.1,0 0,0.1 0,0 v -5.8 c 0,-0.1 -0.1,0 0,0 h 2.9 c 0.055,0 0.1,-0.045 0.1,-0.1 v -6 c 0,-0.055 -0.045,-0.1 -0.1,-0.1 h -2.9 c -0.1,0 0,0.1 0,0 v -5.8 c 0,-0.1 -0.1,0 0,0 h 2.9 c 0.055,0 0.1,-0.045 0.1,-0.1 v -6 c 0,-0.055 -0.045,-0.1 -0.1,-0.1 h -2.9 c -0.1,0 0,0.1 0,0 v -5.8 c 0,-0.1 -0.1,0 0,0 h 2.9 c 0.055,0 0.1,-0.045 0.1,-0.1 v -6 c 0,-0.055 -0.045,-0.1 -0.1,-0.1 h -2.9 c -0.1,0 0,0.1 0,0 v -8.9 c 0,-0.055 -0.045,-0.1 -0.1,-0.1 h -8.9 c -0.1,0 0,0.1 0,0 v -2.9 c 0,-0.055 -0.045,-0.1 -0.1,-0.1 h -6 c -0.055,0 -0.1,0.045 -0.1,0.1 V 13 c 0,0.1 0.1,0 0,0 h -5.8 c -0.1,0 0,0.1 0,0 v -2.9 c 0,-0.055 -0.045,-0.1 -0.1,-0.1 h -6 c -0.055,0 -0.1,0.045 -0.1,0.1 V 13 c 0,0.1 0.1,0 0,0 h -5.8 c -0.1,0 0,0.1 0,0 v -2.9 c 0,-0.055 -0.045,-0.1 -0.1,-0.1 h -6 c -0.055,0 -0.1,0.045 -0.1,0.1 V 13 c 0,0.1 0.1,0 0,0 h -5.8 c -0.1,0 0,0.1 0,0 v -2.9 c 0,-0.055 -0.045,-0.1 -0.1,-0.1 h -6 c -0.055,0 -0.1,0.045 -0.1,0.1 V 13 c 0,0.1 0.1,0 0,0 h -5.8 c -0.1,0 0,0.1 0,0 v -2.9 c 0,-0.055 -0.045,-0.1 -0.1,-0.1 h -6 c -0.055,0 -0.1,0.045 -0.1,0.1 V 13 c 0,0.1 0.1,0 0,0 h -5.8 c -0.1,0 0,0.1 0,0 v -2.9 c 0,-0.055 -0.045,-0.1 -0.1,-0.1 h -6 c -0.055,0 -0.1,0.045 -0.1,0.1 V 13 c 0,0.1 0.1,0 0,0 h -5.8 c -0.1,0 0,0.1 0,0 v -2.9 c 0,-0.055 -0.045,-0.1 -0.1,-0.1 h -6 c -0.055,0 -0.1,0.045 -0.1,0.1 V 13 c 0,0.1 0.1,0 0,0 h -5.8 c -0.1,0 0,0.1 0,0 v -2.9 c 0,-0.055 -0.045,-0.1 -0.1,-0.1 h -6 c -0.055,0 -0.1,0.045 -0.1,0.1 V 13 c 0,0.1 0.1,0 0,0 h -5.8 c -0.1,0 0,0.1 0,0 v -2.9 c 0,-0.055 -0.045,-0.1 -0.1,-0.1 h -6 c -0.055,0 -0.1,0.045 -0.1,0.1 V 13 c 0,0.1 0.1,0 0,0 h -5.8 c -0.1,0 0,0.1 0,0 v -2.9 c 0,-0.055 -0.045,-0.1 -0.1,-0.1 h -6 C 94.045,10 94,10.045 94,10.1 V 13 c 0,0.1 0.1,0 0,0 h -5.8 c -0.1,0 0,0.1 0,0 V 10.1 C 88.2,10.045 88.155,10 88.1,10 h -6 C 82.045,10 82,10.045 82,10.1 V 13 c 0,0.1 0.1,0 0,0 h -5.8 c -0.1,0 0,0.1 0,0 V 10.1 C 76.2,10.045 76.155,10 76.1,10 h -6 C 70.045,10 70,10.045 70,10.1 V 13 c 0,0.1 0.1,0 0,0 h -5.8 c -0.1,0 0,0.1 0,0 V 10.1 C 64.2,10.045 64.155,10 64.1,10 h -6 C 58.045,10 58,10.045 58,10.1 V 13 c 0,0.1 0.1,0 0,0 h -5.8 c -0.1,0 0,0.1 0,0 V 10.1 C 52.2,10.045 52.155,10 52.1,10 h -6 C 46.045,10 46,10.045 46,10.1 V 13 c 0,0.1 0.1,0 0,0 h -5.8 c -0.1,0 0,0.1 0,0 V 10.1 C 40.2,10.045 40.155,10 40.1,10 h -6 C 34.045,10 34,10.045 34,10.1 V 13 c 0,0.1 0.1,0 0,0 h -5.8 c -0.1,0 0,0.1 0,0 V 10.1 C 28.2,10.045 28.155,10 28.1,10 h -6 C 22.045,10 22,10.045 22,10.1 V 13 c 0,0.1 0.1,0 0,0 H 13.1 C 13.045,13 13,13.045 13,13.1 V 22 c 0,0.1 0.1,0 0,0 H 10.1 C 10.045,22 10,22.045 10,22.1 v 6 c 0,0.055 0.045,0.1 0.1,0.1 H 13 c 0.1,0 0,-0.1 0,0 V 34 c 0,0.1 0.1,0 0,0 H 10.1 C 10.045,34 10,34.045 10,34.1 v 6 c 0,0.055 0.045,0.1 0.1,0.1 H 13 c 0.1,0 0,-0.1 0,0 V 46 c 0,0.1 0.1,0 0,0 H 10.1 C 10.045,46 10,46.045 10,46.1 v 6 c 0,0.055 0.045,0.1 0.1,0.1 H 13 c 0.1,0 0,-0.1 0,0 V 58 c 0,0.1 0.1,0 0,0 H 10.1 C 10.045,58 10,58.045 10,58.1 v 6 c 0,0.055 0.045,0.1 0.1,0.1 H 13 c 0.1,0 0,-0.1 0,0 V 70 c 0,0.1 0.1,0 0,0 H 10.1 C 10.045,70 10,70.045 10,70.1 v 6 c 0,0.055 0.045,0.1 0.1,0.1 H 13 c 0.1,0 0,-0.1 0,0 V 82 c 0,0.1 0.1,0 0,0 H 10.1 C 10.045,82 10,82.045 10,82.1 v 6 c 0,0.055 0.045,0.1 0.1,0.1 H 13 c 0.1,0 0,-0.1 0,0 V 94 c 0,0.1 0.1,0 0,0 H 10.1 C 10.045,94 10,94.045 10,94.1 v 6 c 0,0.055 0.045,0.1 0.1,0.1 H 13 c 0.1,0 0,-0.1 0,0 v 5.8 c 0,0.1 0.1,0 0,0 h -2.9 c -0.055,0 -0.1,0.045 -0.1,0.1 v 6 c 0,0.055 0.045,0.1 0.1,0.1 H 13 c 0.1,0 0,-0.1 0,0 v 5.8 c 0,0.1 0.1,0 0,0 h -2.9 c -0.055,0 -0.1,0.045 -0.1,0.1 v 6 c 0,0.055 0.045,0.1 0.1,0.1 H 13 c 0.1,0 0,-0.1 0,0 v 5.8 c 0,0.1 0.1,0 0,0 h -2.9 c -0.055,0 -0.1,0.045 -0.1,0.1 v 6 c 0,0.055 0.045,0.1 0.1,0.1 H 13 c 0.1,0 0,-0.1 0,0 v 5.8 c 0,0.1 0.1,0 0,0 h -2.9 c -0.055,0 -0.1,0.045 -0.1,0.1 v 6 c 0,0.055 0.045,0.1 0.1,0.1 H 13 c 0.1,0 0,-0.1 0,0 v 5.8 c 0,0.1 0.1,0 0,0 h -2.9 c -0.055,0 -0.1,0.045 -0.1,0.1 v 6 c 0,0.055 0.045,0.1 0.1,0.1 H 13 c 0.1,0 0,-0.1 0,0 v 5.8 c 0,0.1 0.1,0 0,0 h -2.9 c -0.055,0 -0.1,0.045 -0.1,0.1 v 6 c 0,0.055 0.045,0.1 0.1,0.1 H 13 c 0.1,0 0,-0.1 0,0 v 5.8 c 0,0.1 0.1,0 0,0 h -2.9 c -0.055,0 -0.1,0.045 -0.1,0.1 v 6 c 0,0.055 0.045,0.1 0.1,0.1 H 13 c 0.1,0 0,-0.1 0,0 v 5.8 c 0,0.1 0.1,0 0,0 h -2.9 c -0.055,0 -0.1,0.045 -0.1,0.1 v 6 c 0,0.055 0.045,0.1 0.1,0.1 H 13 c 0.1,0 0,-0.1 0,0 v 5.8 c 0,0.1 0.1,0 0,0 h -2.9 c -0.055,0 -0.1,0.045 -0.1,0.1 v 6 c 0,0.055 0.045,0.1 0.1,0.1 H 13 c 0.1,0 0,-0.1 0,0 v 5.8 c 0,0.1 0.1,0 0,0 h -2.9 c -0.055,0 -0.1,0.045 -0.1,0.1 v 6 c 0,0.055 0.045,0.1 0.1,0.1 H 13 c 0.1,0 0,-0.1 0,0 v 5.8 c 0,0.1 0.1,0 0,0 h -2.9 c -0.055,0 -0.1,0.045 -0.1,0.1 v 6 c 0,0.055 0.045,0.1 0.1,0.1 H 13 c 0.1,0 0,-0.1 0,0 v 5.8 c 0,0.1 0.1,0 0,0 h -2.9 c -0.055,0 -0.1,0.045 -0.1,0.1 v 6 c 0,0.055 0.045,0.1 0.1,0.1 H 13 c 0.1,0 0,-0.1 0,0 v 5.8 c 0,0.1 0.1,0 0,0 h -2.9 c -0.055,0 -0.1,0.045 -0.1,0.1 v 6 c 0,0.055 0.045,0.1 0.1,0.1 H 13 c 0.1,0 0,-0.1 0,0 v 5.8 c 0,0.1 0.1,0 0,0 h -2.9 c -0.055,0 -0.1,0.045 -0.1,0.1 v 6 c 0,0.055 0.045,0.1 0.1,0.1 H 13 c 0.1,0 0,-0.1 0,0 v 8.9 c 0,0.055 0.045,0.1 0.1,0.1 z"
     stroke="#000000"
     stroke-width="0.2"
     id="path38"
     style="fill:none;stroke-linecap:round;stroke-linejoin:round" />
  <text
     dominant-baseline="hanging"
     font-size="4px"
     style="font-style:normal;font-weight:normal;font-family:sans-serif;fill:#ff0000;stroke-linecap:round;stroke-linejoin:round"
     text-anchor="middle"
     id="text38"
     x="115.1"
     y="143.2">bottom</text>
  <path
     id="path61"
     style="font-variation-settings:normal;opacity:1;vector-effect:none;fill:none;fill-opacity:1;stroke:#000000;stroke-width:0.2;stroke-linecap:round;stroke-linejoin:round;stroke-miterlimit:4;stroke-dasharray:none;stroke-dashoffset:0;stroke-opacity:1;-inkscape-stroke:none;stop-color:#000000;stop-opacity:1"
     d="m 242.35216,268.29139 c 9.1e-4,0.004 0.004,0.008 0.009,0.0114 v 9.07387 c 0,0.055 0.0447,0.10025 0.0997,0.10025 h 2.55023 v 2.90008 c 0,0.055 0.0447,0.0997 0.0997,0.0997 h 6.00015 c 0.055,0 0.10025,-0.0447 0.10025,-0.0997 v -2.90011 h 2.54972 c 0.055,0 0.10025,-0.0452 0.10025,-0.10025 v -11.99979 c 0,-1.071 -0.282,-2.12294 -0.817,-3.04994 -0.536,-0.927 -1.30646,-1.69694 -2.23346,-2.23294 -0.897,-0.518 -1.64156,-1.26204 -2.15956,-2.15904 -0.517,-0.897 -0.79013,-1.91521 -0.79013,-2.95021 V 35.7687 c 0,-1.035 0.27313,-2.05269 0.79013,-2.94969 0.518,-0.896997 1.26256,-1.641047 2.15956,-2.159047 0.927,-0.536 1.69746,-1.30593 2.23346,-2.23293 0.535,-0.927 0.817,-1.978947 0.817,-3.049947 V 13.376792 c 0,-0.055 -0.0453,-0.0997 -0.10025,-0.0997 h -2.54972 v -2.900087 c 0,-0.055 -0.0453,-0.10025 -0.10025,-0.10025 h -6.00015 c -0.055,0 -0.0997,0.0453 -0.0997,0.10025 v 2.900087 h -2.55023 c -0.055,0 -0.0997,0.0447 -0.0997,0.0997 v 9.100214 h 0.0356 v 0.008 h 2.8081 v 2.89181 2.900077 c 0.0177,0 0.0294,0.003 0.0362,0.008 h -0.0356 c -1.5e-4,-0.002 -5.2e-4,-0.005 -5.2e-4,-0.008 h -2.80861 c -0.004,-0.0714 -0.0671,-0.0199 -0.0351,5.2e-4 v 6.199107 h 0.0356 v 0.008 h 2.8081 v 2.89182 2.900077 c 0.0184,0 0.03,0.003 0.0367,0.008 h -0.0362 c -1.7e-4,-0.003 -5.2e-4,-0.005 -5.2e-4,-0.008 h -2.80861 c -0.004,-0.0706 -0.067,-0.0194 -0.0351,10e-4 v 6.199107 h 0.0356 v 0.008 h 2.8081 v 2.891807 2.89956 c 0.0183,0 0.0299,0.003 0.0367,0.008 h -0.0362 c -1.6e-4,-0.003 -5.2e-4,-0.005 -5.2e-4,-0.008 h -2.80861 c -0.004,-0.0706 -0.067,-0.0194 -0.0351,10e-4 v 6.199097 h 0.0356 v 0.008 h 2.8081 v 2.891807 2.900077 c 0.0183,0 0.0299,0.003 0.0367,0.008 h -0.0362 c -1.6e-4,-0.003 -5.2e-4,-0.005 -5.2e-4,-0.008 h -2.80861 c -0.004,-0.0706 -0.067,-0.0194 -0.0351,10e-4 v 6.199097 h 0.0356 v 0.008 h 2.8081 v 2.8913 2.900077 c 0.0182,0 0.0299,0.003 0.0367,0.008 h -0.0362 c -1.6e-4,-0.003 -5.2e-4,-0.005 -5.2e-4,-0.008 h -2.80861 c -0.004,-0.0706 -0.067,-0.0194 -0.0351,0.001 v 6.199107 h 0.0356 v 0.008 0.0248 h 2.8081 v 2.867007 2.90008 c 0.0182,0 0.0299,0.003 0.0367,0.008 h -0.0362 c -1.6e-4,-0.003 -5.2e-4,-0.005 -5.2e-4,-0.008 h -2.80861 c -0.004,-0.0673 -0.0607,-0.0244 -0.0388,-0.003 -0.007,0.008 -0.008,0.0202 0.004,0.0279 v 6.174297 h 0.0356 v 0.008 0.0248 h 2.8081 v 2.866998 2.900065 c 0.0181,0 0.0299,0.003 0.0367,0.008 h -0.0362 c -1.6e-4,-0.003 -5.2e-4,-0.005 -5.2e-4,-0.008 h -2.80861 c -0.004,-0.0672 -0.0607,-0.024 -0.0388,-0.002 -0.007,0.008 -0.008,0.0203 0.004,0.0279 v 6.1743 h 0.0356 v 0.008 0.0248 h 2.8081 v 2.86701 2.89957 c 0.0187,0 0.0305,0.004 0.0372,0.009 h -0.0367 c -1.8e-4,-0.003 -5.2e-4,-0.006 -5.2e-4,-0.009 h -2.80861 c -0.005,-0.0665 -0.0607,-0.0239 -0.0388,-0.002 -0.007,0.008 -0.008,0.0206 0.004,0.0284 v 6.17379 h 0.0356 v 0.008 0.0248 h 2.8081 v 2.86701 2.90008 c 0.0181,0 0.0299,0.004 0.0367,0.008 h -0.0362 c -1.6e-4,-0.003 -5.2e-4,-0.005 -5.2e-4,-0.008 h -2.80861 c -0.004,-0.0672 -0.0607,-0.024 -0.0388,-0.002 -0.007,0.008 -0.008,0.0203 0.004,0.0279 v 6.1743 h 0.0356 v 0.008 0.0248 h 2.8081 v 2.86649 2.90008 c 0.018,0 0.0294,0.003 0.0362,0.008 h -0.0356 c -1.5e-4,-0.002 -5.2e-4,-0.005 -5.2e-4,-0.008 h -2.80861 c -0.004,-0.0672 -0.0607,-0.024 -0.0388,-0.002 -0.007,0.008 -0.008,0.0203 0.004,0.0279 v 6.1743 h 0.0356 v 0.008 5.2e-4 0.0243 h 2.8081 v 2.86752 2.90008 c 0.018,0 0.0294,0.003 0.0362,0.008 h -0.0356 c -1.5e-4,-0.002 -5.2e-4,-0.005 -5.2e-4,-0.008 h -2.80861 c -0.004,-0.0672 -0.0607,-0.0244 -0.0388,-0.003 -0.007,0.008 -0.008,0.0206 0.004,0.0284 v 6.17379 h 0.0356 v 0.008 5.2e-4 0.0243 h 2.8081 v 2.86701 2.90008 c 0.0179,0 0.0294,0.003 0.0362,0.008 h -0.0356 c -1.5e-4,-0.002 -5.2e-4,-0.005 -5.2e-4,-0.008 h -2.80861 c -0.004,-0.0672 -0.0607,-0.024 -0.0388,-0.002 -0.007,0.008 -0.008,0.0203 0.004,0.0279 v 6.1743 h 0.0356 v 0.008 5.2e-4 0.0243 h 2.8081 v 2.86753 2.90008 c 0.0179,0 0.0294,0.003 0.0362,0.008 h -0.0356 c -1.5e-4,-0.002 -5.2e-4,-0.005 -5.2e-4,-0.008 h -2.80861 c -0.004,-0.0673 -0.0607,-0.0244 -0.0388,-0.003 -0.007,0.008 -0.008,0.0202 0.004,0.0279 v 6.1743 h 0.0356 v 0.008 5.2e-4 0.0243 h 2.8081 v 2.86701 2.90008 c 0.0178,0 0.0294,0.003 0.0362,0.008 h -0.0356 c -1.5e-4,-0.002 -5.2e-4,-0.005 -5.2e-4,-0.008 h -2.80861 c -0.004,-0.0672 -0.0607,-0.024 -0.0388,-0.002 -0.007,0.008 -0.008,0.0203 0.004,0.0279 v 6.1743 h 0.0356 v 0.008 5.2e-4 0.0243 h 2.8081 v 2.86752 2.89957 c 0.0183,0 0.0299,0.003 0.0367,0.008 h -0.0362 c -1.7e-4,-0.003 -5.2e-4,-0.005 -5.2e-4,-0.008 h -2.80861 c -0.005,-0.0665 -0.0607,-0.0239 -0.0388,-0.002 -0.007,0.008 -0.008,0.0206 0.004,0.0284 v 6.17379 h 0.0356 v 0.008 5.2e-4 0.0243 h 2.8081 v 2.86753 2.90008 c 0.0177,0 0.0293,0.003 0.0362,0.008 h -0.0356 c -1.4e-4,-0.002 -5.2e-4,-0.005 -5.2e-4,-0.008 h -2.80861 c -0.004,-0.0672 -0.0608,-0.024 -0.0388,-0.002 -0.007,0.008 -0.008,0.0203 0.004,0.0279 v 6.1743 h 0.0356 v 0.0326 h 2.8081 v 2.86701 2.90008 c 0.0445,0 0.0496,0.0199 0.0413,0.0331 h -0.0351 c -0.004,-0.007 -0.006,-0.0177 -0.006,-0.0331 h -2.81481 c -0.0162,-0.0296 -0.0557,0.009 -0.0289,0.0264 v 6.17378 h 0.0356 v 0.0326 h 2.8081 v 2.86752 2.90009 c 0.0439,0 0.0492,0.0194 0.0413,0.0325 h -0.0357 c -0.003,-0.007 -0.006,-0.0176 -0.006,-0.0325 h -2.8143 c -0.016,-0.0306 -0.0564,0.009 -0.0294,0.0258 v 6.17379 h 0.0356 v 0.0331 h 2.8081 v 2.86701 2.90008 c 0.0439,0 0.0491,0.0194 0.0413,0.0326 h -0.0357 c -0.003,-0.007 -0.006,-0.0176 -0.006,-0.0326 h -2.8143 c -0.016,-0.0306 -0.0564,0.009 -0.0294,0.0258 v 6.1743 h 0.0356 v 0.0326 h 2.8081 v 2.86753 2.89956 c 0.0445,0 0.0496,0.0199 0.0413,0.0331 h -0.0351 c -0.004,-0.007 -0.006,-0.0178 -0.006,-0.0331 h -2.81481 c -0.0162,-0.0296 -0.0557,0.009 -0.0289,0.0264 v 6.17378 h 0.0356 v 0.0331 h 2.8081 v 2.867 2.90009 c 0.0439,0 0.0492,0.0194 0.0413,0.0326 h -0.0357 c -0.003,-0.007 -0.006,-0.0176 -0.006,-0.0326 h -2.8143 c -0.0127,-0.0243 -0.0406,-0.005 -0.0382,0.0129 6e-5,5.9e-4 -1.3e-4,9.7e-4 0,0.002 z m 0.0444,-65.80631 c -0.0473,0 -0.0497,0.0228 -0.0393,0.0356 -0.0229,0.0228 0.0392,0.068 0.0393,-0.0108 -9.8e-4,0 -0.002,-2e-5 -0.003,0 0.002,-0.006 0.003,-0.0145 0.003,-0.0248 z m 0,-11.99979 c -0.0473,0 -0.0497,0.0221 -0.0393,0.0351 -0.0228,0.0228 0.0393,0.0686 0.0393,-0.0103 -9.7e-4,0 -0.002,-2e-5 -0.003,0 0.002,-0.006 0.003,-0.0145 0.003,-0.0248 z m 0,-11.99978 c -0.0473,0 -0.0497,0.0221 -0.0393,0.0351 -0.0228,0.0228 0.0393,0.0685 0.0393,-0.0103 -9.7e-4,0 -0.002,-2e-5 -0.003,0 0.002,-0.006 0.003,-0.0145 0.003,-0.0248 z m 0,-12.0003 c -0.0473,0 -0.0497,0.0226 -0.0393,0.0356 -0.0228,0.0228 0.0392,0.0679 0.0393,-0.0109 -9.7e-4,0 -0.002,-2e-5 -0.003,0 0.002,-0.006 0.003,-0.0145 0.003,-0.0248 z m 0,-11.99979 c -0.0473,0 -0.0497,0.0221 -0.0393,0.0351 -0.0228,0.0228 0.0393,0.0686 0.0393,-0.0103 -9.7e-4,0 -0.002,-2e-5 -0.003,0 0.002,-0.006 0.003,-0.0145 0.003,-0.0248 z m 0,-12.0003 c -0.0473,0 -0.0497,0.0227 -0.0393,0.0357 -0.0228,0.0228 0.0393,0.068 0.0393,-0.0109 -9.7e-4,0 -0.002,-1e-5 -0.003,0 0.002,-0.006 0.003,-0.0145 0.003,-0.0248 z m 0,-11.97498 c -9.7e-4,0 -0.002,-2e-5 -0.003,0 0.002,-0.006 0.003,-0.0145 0.003,-0.0248 -0.0473,0 -0.0497,0.0221 -0.0393,0.0351 -0.0228,0.0228 0.0393,0.0686 0.0393,-0.0103 z m 0,-12.0003 c -9.7e-4,0 -0.002,-2e-5 -0.003,0 0.002,-0.006 0.003,-0.0145 0.003,-0.0248 -0.0473,0 -0.0497,0.0227 -0.0393,0.0357 -0.0228,0.0228 0.0393,0.068 0.0393,-0.0109 z m 0,-11.99979 c -9.7e-4,0 -0.002,-1e-5 -0.003,0 0.002,-0.006 0.003,-0.0145 0.003,-0.0248 -0.0473,0 -0.0497,0.0221 -0.0393,0.0351 -0.0228,0.0228 0.0393,0.0686 0.0393,-0.0103 z m 0,-12.000273 h -5.1e-4 -5.2e-4 l -5.2e-4,5.2e-4 c -2.5e-4,6e-5 -7.8e-4,-5e-5 -0.001,0 h -5.2e-4 c 0.002,-0.006 0.003,-0.015 0.003,-0.0253 -0.0473,0 -0.0497,0.0227 -0.0393,0.0357 -0.0228,0.0227 0.0393,0.068 0.0393,-0.0109 z m 0,-11.999774 c -9.7e-4,0 -0.002,-2e-5 -0.003,0 0.002,-0.006 0.003,-0.0145 0.003,-0.0248 -0.0473,0 -0.0497,0.0222 -0.0393,0.0351 -0.0228,0.0228 0.0393,0.0686 0.0393,-0.0103 z m 0,-12.024584 c -0.1,0 0,0.1 0,0 z m 0,-12.000291 c -0.1,0 0,0.1 0,0 z m 0,-11.999774 c -0.1,0 0,0.1 0,0 z m 0,-12.000304 c -0.1,0 0,0.1 0,0 z m 0,-11.999774 c -0.1,0 0,0.1 0,0 z m -0.0444,240.049884 c 0.003,0.0212 0.0444,0.0393 0.0444,-0.0248 -0.0359,0 -0.0462,0.0129 -0.0444,0.0248 z m 0,-12.0003 c 0.003,0.0212 0.0444,0.0392 0.0444,-0.0248 -0.0359,0 -0.0462,0.0129 -0.0444,0.0248 z m 0,-11.99979 c 0.003,0.0212 0.0444,0.0393 0.0444,-0.0248 -0.0359,0 -0.0462,0.0129 -0.0444,0.0248 z m 0,-12.0003 c 0.003,0.0212 0.0444,0.0393 0.0444,-0.0248 -0.0359,0 -0.0462,0.0129 -0.0444,0.0248 z m 0,-11.99978 c 0.003,0.0212 0.0444,0.0392 0.0444,-0.0248 -0.0359,0 -0.0462,0.0129 -0.0444,0.0248 z" />
  <text
     dominant-baseline="hanging"
     font-size="4px"
     style="font-style:normal;font-weight:normal;font-family:sans-serif;fill:#ff0000;stroke-linecap:round;stroke-linejoin:round"
     text-anchor="middle"
     id="text61"
     x="-145.377"
     y="250.06113"
     transform="rotate(-90)">left</text>
  <path
     id="path84"
     style="font-variation-settings:normal;opacity:1;vector-effect:none;fill:none;fill-opacity:1;stroke:#000000;stroke-width:0.2;stroke-linecap:round;stroke-linejoin:round;stroke-miterlimit:4;stroke-dasharray:none;stroke-dashoffset:0;stroke-opacity:1;-inkscape-stroke:none;stop-color:#000000;stop-opacity:1"
     d="m 226.90608,268.28984 c 0.001,0.0104 0.0132,0.0202 0.0444,0.0202 0,-0.0688 -0.0474,-0.043 -0.0444,-0.0202 z m 0.0444,0.0202 v 4.09949 l 0.002,10e-4 v 4.96611 c 0,0.055 0.0447,0.10025 0.0997,0.10025 h 2.55024 v 2.90008 c 0,0.055 0.0447,0.0997 0.0997,0.0997 h 6.00015 c 0.055,0 0.10025,-0.0447 0.10025,-0.0997 v -2.90009 h 2.54972 c 0.055,0 0.10025,-0.0453 0.10025,-0.10025 v -11.99979 c 0,-1.071 -0.282,-2.12294 -0.817,-3.04994 -0.536,-0.927 -1.30594,-1.69694 -2.23294,-2.23294 -0.897,-0.518 -1.64208,-1.26204 -2.16008,-2.15904 -0.517,-0.897 -0.79013,-1.91521 -0.79013,-2.95021 V 35.7687 c 0,-1.035 0.27313,-2.05269 0.79013,-2.94969 0.518,-0.896997 1.26308,-1.641047 2.16008,-2.159047 0.927,-0.536 1.69694,-1.30593 2.23294,-2.23293 0.535,-0.927 0.817,-1.978947 0.817,-3.049947 V 13.376792 c 0,-0.055 -0.0453,-0.0997 -0.10025,-0.0997 h -2.54972 v -2.900087 c 0,-0.055 -0.0452,-0.10025 -0.10025,-0.10025 h -6.00015 c -0.055,0 -0.0997,0.0452 -0.0997,0.10025 v 2.900087 h -2.55024 c -0.055,0 -0.0997,0.0447 -0.0997,0.0997 v 1.5999 h -0.002 v 7.508584 h 2.84582 v 2.89181 2.900077 c 0.0177,0 0.0294,0.003 0.0362,0.008 h -0.0362 c -1.4e-4,-0.002 0,-0.005 0,-0.008 h -2.84375 v 0.008 h -0.002 v 6.200127 h 2.84582 v 2.89182 2.900077 c 0.0184,0 0.03,0.003 0.0367,0.008 h -0.0367 c -1.6e-4,-0.003 0,-0.005 0,-0.008 h -2.84375 v 0.008 h -0.002 v 6.200137 h 2.84582 v 2.891807 2.89956 c 0.0183,0 0.03,0.003 0.0367,0.008 h -0.0367 c -1.6e-4,-0.003 0,-0.005 0,-0.008 h -2.84375 v 0.008 h -0.002 v 6.200137 h 2.84582 v 2.891807 2.900077 c 0.0183,0 0.03,0.003 0.0367,0.008 h -0.0367 c -1.6e-4,-0.003 0,-0.005 0,-0.008 h -2.84375 v 0.008 h -0.002 v 6.200137 h 2.84582 v 2.8913 2.900077 c 0.0182,0 0.0299,0.003 0.0367,0.008 h -0.0367 c -1.6e-4,-0.003 0,-0.005 0,-0.008 h -2.84375 v 0.008 h -0.002 v 2.42052 3.779607 0.0248 h 2.84582 v 2.867007 2.90008 c 0.0182,0 0.0299,0.003 0.0367,0.008 h -0.0367 c -1.6e-4,-0.003 0,-0.005 0,-0.008 h -2.84375 v 0.008 h -0.002 v 0.0248 6.174817 0.0248 h 2.84582 v 2.866998 2.900065 c 0.0182,0 0.0299,0.003 0.0367,0.008 h -0.0367 c -1.5e-4,-0.003 0,-0.005 0,-0.008 h -2.84375 v 0.008 h -0.002 v 0.0248 6.17533 0.0248 h 2.84582 v 2.86701 2.89957 c 0.0187,0 0.0305,0.004 0.0372,0.009 h -0.0367 c -1.8e-4,-0.003 -5.2e-4,-0.006 -5.2e-4,-0.009 h -2.84375 v 0.009 h -0.002 v 0.0248 6.17481 0.0248 h 2.84582 v 2.86701 2.90008 c 0.0181,0 0.0294,0.004 0.0362,0.008 h -0.0362 c -1.5e-4,-0.003 0,-0.005 0,-0.008 h -2.84375 v 0.008 h -0.002 v 0.0248 6.17534 0.0248 h 2.84582 v 2.86649 2.90008 c 0.018,0 0.0294,0.003 0.0362,0.008 h -0.0362 c -1.5e-4,-0.002 0,-0.005 0,-0.008 h -2.84375 v 0.008 h -0.002 c -3e-4,-0.0781 -0.062,-0.0326 -0.0393,-0.01 -0.0104,0.013 -0.008,0.0351 0.0393,0.0351 v 6.17481 5.2e-4 0.0243 h 2.84582 v 2.86752 2.90008 c 0.018,0 0.0294,0.003 0.0362,0.008 h -0.0362 c -1.5e-4,-0.002 0,-0.005 0,-0.008 h -2.84375 v 0.008 h -0.002 c -3e-4,-0.0781 -0.062,-0.033 -0.0393,-0.0103 -0.0104,0.013 -0.008,0.0357 0.0393,0.0357 v 6.17481 5.2e-4 0.0243 h 2.84582 v 2.86701 2.90008 c 0.0179,0 0.0294,0.003 0.0362,0.008 h -0.0362 c -1.4e-4,-0.002 0,-0.005 0,-0.008 h -2.84375 v 0.008 h -0.002 c -3e-4,-0.0781 -0.062,-0.0326 -0.0393,-0.01 -0.0104,0.013 -0.008,0.0351 0.0393,0.0351 v 6.17482 5.2e-4 0.0243 h 2.84582 v 2.86753 2.90008 c 0.0179,0 0.0294,0.003 0.0362,0.008 h -0.0362 c -1.4e-4,-0.002 0,-0.005 0,-0.008 h -2.84375 v 0.008 h -0.002 c -3e-4,-0.0781 -0.062,-0.033 -0.0393,-0.0103 -0.0104,0.013 -0.008,0.0356 0.0393,0.0356 v 6.17482 5.2e-4 0.0243 h 2.84582 v 2.86701 2.90008 c 0.0178,0 0.0294,0.003 0.0362,0.008 h -0.0362 c -1.4e-4,-0.002 0,-0.005 0,-0.008 h -2.84375 v 0.008 h -0.002 c -3e-4,-0.0781 -0.062,-0.0326 -0.0393,-0.01 -0.0104,0.013 -0.008,0.0351 0.0393,0.0351 v 6.17481 5.2e-4 0.0243 h 2.84582 v 2.86752 2.89957 c 0.0183,0 0.03,0.003 0.0367,0.008 h -0.0367 c -1.6e-4,-0.003 0,-0.005 0,-0.008 h -2.84375 v 0.008 h -0.002 c -3e-4,-0.0781 -0.062,-0.033 -0.0393,-0.0103 -0.0104,0.013 -0.008,0.0357 0.0393,0.0357 v 6.1743 5.2e-4 0.0243 h 2.84582 v 2.86753 2.90008 c 0.0177,0 0.0293,0.003 0.0362,0.008 h -0.0362 c -1.4e-4,-0.002 0,-0.005 0,-0.008 h -2.84375 v 0.008 h -0.002 c -3e-4,-0.0781 -0.0621,-0.0326 -0.0393,-0.01 -0.0105,0.013 -0.008,0.0351 0.0393,0.0351 v 4.07366 2.12596 h 2.84582 v 2.86701 2.90008 c 0.0445,0 0.0496,0.0199 0.0413,0.0331 h -0.0351 c -0.004,-0.007 -0.006,-0.0177 -0.006,-0.0331 h -2.84375 v 0.0331 h -0.002 c -3.9e-4,-0.099 -0.0998,5.1e-4 0,5.1e-4 v 6.19911 h 2.84582 v 2.86752 2.90009 c 0.044,0 0.0492,0.0194 0.0413,0.0325 h -0.0357 c -0.003,-0.007 -0.006,-0.0176 -0.006,-0.0325 h -2.84375 v 0.0325 h -0.002 c -3.9e-4,-0.099 -0.0998,5.2e-4 0,5.2e-4 v 6.19962 h 2.84582 v 2.86701 2.90008 c 0.0439,0 0.0491,0.0194 0.0413,0.0326 h -0.0357 c -0.003,-0.007 -0.006,-0.0176 -0.006,-0.0326 h -2.84375 v 0.0326 h -0.002 c -3.9e-4,-0.099 -0.0998,5.1e-4 0,5.1e-4 v 6.19962 h 2.84582 v 2.86753 2.89956 c 0.0445,0 0.0496,0.0199 0.0413,0.0331 h -0.0351 c -0.004,-0.007 -0.006,-0.0178 -0.006,-0.0331 h -2.84375 v 0.0331 h -0.002 c -3.9e-4,-0.099 -0.0998,5.1e-4 0,5.1e-4 v 6.19963 h 2.84582 v 2.867 2.90009 c 0.0439,0 0.0492,0.0194 0.0413,0.0326 h -0.0357 c -0.003,-0.007 -0.006,-0.0176 -0.006,-0.0326 h -2.84375 v 0.0331 z m 0,-65.82492 c -0.0473,0 -0.0498,0.0228 -0.0393,0.0356 -0.0229,0.0228 0.0392,0.068 0.0393,-0.0108 -9.8e-4,0 -0.002,-2e-5 -0.003,0 0.002,-0.006 0.003,-0.0145 0.003,-0.0248 z m 0,-11.99979 c -0.0473,0 -0.0497,0.0221 -0.0393,0.0351 -0.0228,0.0228 0.0393,0.0686 0.0393,-0.0103 -9.7e-4,0 -0.002,-2e-5 -0.003,0 0.002,-0.006 0.003,-0.0145 0.003,-0.0248 z m 0,-11.99978 c -0.0473,0 -0.0497,0.0221 -0.0393,0.0351 -0.0228,0.0228 0.0393,0.0685 0.0393,-0.0103 -9.7e-4,0 -0.002,-2e-5 -0.003,0 0.002,-0.006 0.003,-0.0145 0.003,-0.0248 z m 0,-12.0003 c -0.0473,0 -0.0497,0.0226 -0.0393,0.0356 -0.0228,0.0228 0.0392,0.0679 0.0393,-0.0109 -9.7e-4,0 -0.002,-2e-5 -0.003,0 0.002,-0.006 0.003,-0.0145 0.003,-0.0248 z m 0,-11.99979 c -0.0473,0 -0.0497,0.0221 -0.0393,0.0351 -0.0228,0.0228 0.0393,0.0686 0.0393,-0.0103 -9.7e-4,0 -0.002,-2e-5 -0.003,0 0.002,-0.006 0.003,-0.0145 0.003,-0.0248 z m 0,-12.0003 c -0.0473,0 -0.0497,0.0227 -0.0393,0.0357 -0.0228,0.0228 0.0393,0.068 0.0393,-0.0109 -9.7e-4,0 -0.002,-1e-5 -0.003,0 0.002,-0.006 0.003,-0.0145 0.003,-0.0248 z m 0,-11.97498 c -9.7e-4,0 -0.002,-2e-5 -0.003,0 0.002,-0.006 0.003,-0.0145 0.003,-0.0248 -0.0473,0 -0.0497,0.0221 -0.0393,0.0351 -0.0228,0.0228 0.0393,0.0686 0.0393,-0.0103 z m 0,-6.20014 c 0,-0.0103 -8.9e-4,-0.0184 -0.003,-0.0248 9.4e-4,2e-5 0.002,0 0.003,0 0,-0.0789 -0.0621,-0.0331 -0.0393,-0.0103 -0.0104,0.013 -0.008,0.0351 0.0393,0.0351 z m 0,-5.80016 c -9.7e-4,0 -0.002,-2e-5 -0.003,0 0.002,-0.006 0.003,-0.0145 0.003,-0.0248 -0.0473,0 -0.0497,0.0227 -0.0393,0.0357 -0.0228,0.0228 0.0393,0.068 0.0393,-0.0109 z m 0,-6.19962 c 0,-0.0103 -8.9e-4,-0.0189 -0.003,-0.0253 h 5.2e-4 c 2.4e-4,4e-5 0.001,4.5e-4 0.002,5.1e-4 h 5.1e-4 5.2e-4 c 0,-0.0789 -0.0621,-0.0336 -0.0393,-0.0109 -0.0104,0.013 -0.008,0.0357 0.0393,0.0357 z m 0,-5.80017 c -9.7e-4,0 -0.002,-1e-5 -0.003,0 0.002,-0.006 0.003,-0.0145 0.003,-0.0248 -0.0473,0 -0.0497,0.0221 -0.0393,0.0351 -0.0228,0.0228 0.0393,0.0686 0.0393,-0.0103 z m 0,-6.20013 c 0,-0.0103 -8.9e-4,-0.0184 -0.003,-0.0248 9.4e-4,2e-5 0.002,0 0.003,0 0,-0.0789 -0.0621,-0.0331 -0.0393,-0.0103 -0.0104,0.013 -0.008,0.0351 0.0393,0.0351 z m 0,-5.800143 h -5.2e-4 -5.1e-4 l -5.2e-4,5.2e-4 h -5.2e-4 -5.1e-4 -5.2e-4 c 0.002,-0.006 0.003,-0.015 0.003,-0.0253 -0.0473,0 -0.0497,0.0227 -0.0393,0.0357 -0.0228,0.0227 0.0393,0.068 0.0393,-0.0109 z m 0,-6.199617 c 0,-0.0103 -9e-4,-0.0184 -0.003,-0.0248 9.4e-4,2e-5 0.002,0 0.003,0 0,-0.0789 -0.0621,-0.0335 -0.0393,-0.0109 -0.0104,0.013 -0.008,0.0357 0.0393,0.0357 z m 0,-5.800157 c -9.7e-4,0 -0.002,-2e-5 -0.003,0 0.002,-0.006 0.003,-0.0145 0.003,-0.0248 -0.0473,0 -0.0497,0.0222 -0.0393,0.0351 -0.0228,0.0228 0.0393,0.0686 0.0393,-0.0103 z m 0,-6.224937 c 0,-0.1 -0.1,0 0,0 z m 0,-5.799647 c -0.1,0 0,0.1 0,0 z m 0,-6.200137 c 0,-0.1 -0.1,0 0,0 z m 0,-5.800154 c -0.1,0 0,0.1 0,0 z m 0,-6.200137 c 0,-0.1 -0.1,0 0,0 z m 0,-5.799637 c -0.1,0 0,0.1 0,0 z m 0,-6.200137 c 0,-0.1 -0.1,0 0,0 z m 0,-5.800167 c -0.1,0 0,0.1 0,0 z m 0,-6.200127 c 0,-0.1 -0.1,0 0,0 z m 0,-5.799647 c -0.1,0 0,0.1 0,0 z m -0.0444,240.049884 c 0.003,0.0212 0.0444,0.0393 0.0444,-0.0248 -0.0359,0 -0.0462,0.0129 -0.0444,0.0248 z m 0,-12.0003 c 0.003,0.0212 0.0444,0.0392 0.0444,-0.0248 -0.0359,0 -0.0462,0.0129 -0.0444,0.0248 z m 0,-11.99979 c 0.003,0.0212 0.0444,0.0393 0.0444,-0.0248 -0.0359,0 -0.0462,0.0129 -0.0444,0.0248 z m 0,-12.0003 c 0.003,0.0212 0.0444,0.0393 0.0444,-0.0248 -0.0359,0 -0.0462,0.0129 -0.0444,0.0248 z m 0,-11.99978 c 0.003,0.0212 0.0444,0.0392 0.0444,-0.0248 -0.0359,0 -0.0462,0.0129 -0.0444,0.0248 z m 0.0413,-6.24975 c 9.4e-4,2e-5 0.002,0 0.003,0 v 0.0243 c -3e-5,-0.01 -9.2e-4,-0.018 -0.003,-0.0243 z m 0,-11.99979 c 9.3e-4,2e-5 0.002,0 0.003,0 v 0.0243 c -3e-5,-0.01 -9.4e-4,-0.018 -0.003,-0.0243 z m 0,-12.0003 c 9.3e-4,2e-5 0.002,0 0.003,0 v 0.0243 c -3e-5,-0.01 -9.4e-4,-0.018 -0.003,-0.0243 z m 0,-11.99978 c 9.4e-4,2e-5 0.002,0 0.003,0 v 0.0243 c -3e-5,-0.01 -9.4e-4,-0.018 -0.003,-0.0243 z m 0,-12.0003 c 9.4e-4,2e-5 0.002,0 0.003,0 v 0.0243 c -3e-5,-0.01 -9.3e-4,-0.018 -0.003,-0.0243 z m 0,-11.99979 c 9.4e-4,2e-5 0.002,0 0.003,0 v 0.0243 c -3e-5,-0.01 -9.3e-4,-0.018 -0.003,-0.0243 z m 0,-12.0003 c 9.4e-4,2e-5 0.002,0 0.003,0 v 0.0243 c -3e-5,-0.01 -9.3e-4,-0.018 -0.003,-0.0243 z" />
  <text
     dominant-baseline="hanging"
     font-size="4px"
     style="font-style:normal;font-weight:normal;font-family:sans-serif;fill:#ff0000;stroke-linecap:round;stroke-linejoin:round"
     text-anchor="middle"
     id="text84"
     x="-145.377"
     y="234.65273"
     transform="rotate(-90)">right</text>
</svg>
