<?xml version="1.0" encoding="UTF-8" standalone="no"?>
<svg
   height="467.80mm"
   viewBox="0.0 0.0 613.40 467.80"
   width="613.40mm"
   version="1.1"
   id="svg99"
   sodipodi:docname="!20260317 - Template - Modelo B.svg"
   inkscape:version="1.4.2 (ebf0e94, 2025-05-08)"
   xmlns:inkscape="http://www.inkscape.org/namespaces/inkscape"
   xmlns:sodipodi="http://sodipodi.sourceforge.net/DTD/sodipodi-0.dtd"
   xmlns="http://www.w3.org/2000/svg"
   xmlns:svg="http://www.w3.org/2000/svg"
   xmlns:rdf="http://www.w3.org/1999/02/22-rdf-syntax-ns#"
   xmlns:cc="http://creativecommons.org/ns#"
   xmlns:dc="http://purl.org/dc/elements/1.1/">
  <defs
     id="defs99" />
  <sodipodi:namedview
     id="namedview99"
     pagecolor="#ffffff"
     bordercolor="#000000"
     borderopacity="0.25"
     inkscape:showpageshadow="2"
     inkscape:pageopacity="0.0"
     inkscape:pagecheckerboard="0"
     inkscape:deskcolor="#d1d1d1"
     inkscape:document-units="mm"
     showguides="true"
     inkscape:zoom="0.11410793"
     inkscape:cx="-1156.7995"
     inkscape:cy="3641.2895"
     inkscape:window-width="1920"
     inkscape:window-height="1009"
     inkscape:window-x="-8"
     inkscape:window-y="-8"
     inkscape:window-maximized="1"
     inkscape:current-layer="layer5"
     showgrid="true">
    <sodipodi:guide
       position="271.86889,20.868401"
       orientation="-1,0"
       id="guide100"
       inkscape:locked="false"
       inkscape:label=""
       inkscape:color="rgb(0,134,229)" />
    <sodipodi:guide
       position="275.19999,111.59999"
       orientation="0,1"
       id="guide101"
       inkscape:locked="false"
       inkscape:label=""
       inkscape:color="rgb(0,134,229)" />
    <inkscape:grid
       id="grid1"
       units="mm"
       originx="0"
       originy="0"
       spacingx="0.99999996"
       spacingy="1"
       empcolor="#0099e5"
       empopacity="0.30196078"
       color="#0099e5"
       opacity="0.14901961"
       empspacing="5"
       enabled="true"
       visible="true" />
  </sodipodi:namedview>
  <!--
BasedBox - Fully closed box on a base


This box is more of a building block than a finished item.
Use a vector graphics program (like Inkscape) to add holes or adjust the base
plate. The width of the "brim" can also be adjusted with the **edge_width**
 parameter in the **Finger Joints Settings**.

See ClosedBox for variant without a base.



Created with Boxes.py (https://boxes.hackerspace-bamberg.de/)
Creation date: 2026-03-17 19:41:16
Command line (remove spaces between dashes): boxes BasedBox - -FingerJoint_edge_width=3 - -x=250 - -y=340 - -h=35 - -spacing=1
Url: https://boxes.hackerspace-bamberg.de/BasedBox?FingerJoint_style=rectangular&FingerJoint_surroundingspaces=2.0&FingerJoint_bottom_lip=0.0&FingerJoint_edge_width=3&FingerJoint_extra_length=0.0&FingerJoint_finger=2.0&FingerJoint_play=0.0&FingerJoint_space=2.0&FingerJoint_width=1.0&x=250&y=340&h=35&outside=0&outside=1&thickness=3.0&burn=0.1&format=svg&labels=0&labels=1&reference=100.0&tabs=0.0&qr_code=0&inner_corners=loop&spacing=1&debug=0&language=en&render=2
Url short: https://boxes.hackerspace-bamberg.de/BasedBox?FingerJoint_edge_width=3&x=250&y=340&h=35&spacing=1
SettingsUrl: https://boxes.hackerspace-bamberg.de/BasedBox?FingerJoint_style=rectangular&FingerJoint_surroundingspaces=2.0&FingerJoint_bottom_lip=0.0&FingerJoint_edge_width=3&FingerJoint_extra_length=0.0&FingerJoint_finger=2.0&FingerJoint_play=0.0&FingerJoint_space=2.0&FingerJoint_width=1.0&x=250&y=340&h=35&outside=0&outside=1&thickness=3.0&burn=0.1&format=svg&labels=0&labels=1&reference=100.0&tabs=0.0&qr_code=0&inner_corners=loop&spacing=1&debug=0&language=en&render=2
SettingsUrl short: https://boxes.hackerspace-bamberg.de/BasedBox?FingerJoint_edge_width=3&x=250&y=340&h=35&spacing=1
-->
  <title
     id="title1">BasedBox</title>
  <metadata
     id="metadata1">
    <rdf:RDF>
      <cc:Work>
        <dc:title>BasedBox</dc:title>
        <dc:date>2026-03-17 19:41:16</dc:date>
        <dc:source>https://boxes.hackerspace-bamberg.de/BasedBox?FingerJoint_style=rectangular&amp;FingerJoint_surroundingspaces=2.0&amp;FingerJoint_bottom_lip=0.0&amp;FingerJoint_edge_width=3&amp;FingerJoint_extra_length=0.0&amp;FingerJoint_finger=2.0&amp;FingerJoint_play=0.0&amp;FingerJoint_space=2.0&amp;FingerJoint_width=1.0&amp;x=250&amp;y=340&amp;h=35&amp;outside=0&amp;outside=1&amp;thickness=3.0&amp;burn=0.1&amp;format=svg&amp;labels=0&amp;labels=1&amp;reference=100.0&amp;tabs=0.0&amp;qr_code=0&amp;inner_corners=loop&amp;spacing=1&amp;debug=0&amp;language=en&amp;render=2</dc:source>
        <dc:source>https://boxes.hackerspace-bamberg.de/BasedBox?FingerJoint_edge_width=3&amp;x=250&amp;y=340&amp;h=35&amp;spacing=1</dc:source>
        <dc:description>Fully closed box on a base

This box is more of a building block than a finished item.
Use a vector graphics program (like Inkscape) to add holes or adjust the base
plate. The width of the &quot;brim&quot; can also be adjusted with the **edge_width**
 parameter in the **Finger Joints Settings**.

See ClosedBox for variant without a base.


Created with Boxes.py (https://boxes.hackerspace-bamberg.de/)
Command line: boxes BasedBox --FingerJoint_style=rectangular --FingerJoint_surroundingspaces=2.0 --FingerJoint_bottom_lip=0.0 --FingerJoint_edge_width=3 --FingerJoint_extra_length=0.0 --FingerJoint_finger=2.0 --FingerJoint_play=0.0 --FingerJoint_space=2.0 --FingerJoint_width=1.0 --x=250 --y=340 --h=35 --outside=0 --outside=1 --thickness=3.0 --burn=0.1 --format=svg --labels=0 --labels=1 --reference=100.0 --tabs=0.0 --qr_code=0 --inner_corners=loop --spacing=1 --debug=0
Command line short: boxes BasedBox --FingerJoint_edge_width=3 --x=250 --y=340 --h=35 --spacing=1
Url: https://boxes.hackerspace-bamberg.de/BasedBox?FingerJoint_style=rectangular&amp;FingerJoint_surroundingspaces=2.0&amp;FingerJoint_bottom_lip=0.0&amp;FingerJoint_edge_width=3&amp;FingerJoint_extra_length=0.0&amp;FingerJoint_finger=2.0&amp;FingerJoint_play=0.0&amp;FingerJoint_space=2.0&amp;FingerJoint_width=1.0&amp;x=250&amp;y=340&amp;h=35&amp;outside=0&amp;outside=1&amp;thickness=3.0&amp;burn=0.1&amp;format=svg&amp;labels=0&amp;labels=1&amp;reference=100.0&amp;tabs=0.0&amp;qr_code=0&amp;inner_corners=loop&amp;spacing=1&amp;debug=0&amp;language=en&amp;render=2
Url short: https://boxes.hackerspace-bamberg.de/BasedBox?FingerJoint_edge_width=3&amp;x=250&amp;y=340&amp;h=35&amp;spacing=1
SettingsUrl: https://boxes.hackerspace-bamberg.de/BasedBox?FingerJoint_style=rectangular&amp;FingerJoint_surroundingspaces=2.0&amp;FingerJoint_bottom_lip=0.0&amp;FingerJoint_edge_width=3&amp;FingerJoint_extra_length=0.0&amp;FingerJoint_finger=2.0&amp;FingerJoint_play=0.0&amp;FingerJoint_space=2.0&amp;FingerJoint_width=1.0&amp;x=250&amp;y=340&amp;h=35&amp;outside=0&amp;outside=1&amp;thickness=3.0&amp;burn=0.1&amp;format=svg&amp;labels=0&amp;labels=1&amp;reference=100.0&amp;tabs=0.0&amp;qr_code=0&amp;inner_corners=loop&amp;spacing=1&amp;debug=0&amp;language=en&amp;render=2
SettingsUrl short: https://boxes.hackerspace-bamberg.de/BasedBox?FingerJoint_edge_width=3&amp;x=250&amp;y=340&amp;h=35&amp;spacing=1
</dc:description>
      </cc:Work>
    </rdf:RDF>
  </metadata>
  <g
     inkscape:groupmode="layer"
     id="layer4"
     inkscape:label="Reference"
     style="display:none">
    <g
       id="g113"
       style="display:inline"
       transform="translate(-131.58686,-129.84783)">
      <rect
         style="display:inline;vector-effect:non-scaling-stroke;fill:none;stroke:#000000;stroke-width:0.156684;stroke-linejoin:round;stroke-opacity:1;-inkscape-stroke:hairline"
         id="rect45-9"
         width="50"
         height="330"
         x="-277.8125"
         y="269.875"
         rx="5"
         ry="5" />
      <path
         id="path49-4"
         style="display:inline;vector-effect:non-scaling-stroke;fill:none;stroke:#000000;stroke-width:0.259021;-inkscape-stroke:hairline"
         d="m -257.81246,282.37496 4.85014,10.00024 v 284.99993 l -4.85014,9.99957 4.85014,3.3e-4 h 0.29972 3.85019 l -3.85019,-9.9999 V 292.3752 l 4.85006,-9.99991 h -4.85006 -0.29972 z"
         inkscape:label="path3581"
         sodipodi:nodetypes="ccccccccccccc" />
      <rect
         style="display:inline;vector-effect:non-scaling-stroke;fill:none;stroke:none;stroke-width:0.264583;stroke-linejoin:round;-inkscape-stroke:hairline"
         id="rect50"
         width="2"
         height="10"
         x="-253.81248"
         y="295.34763" />
      <path
         id="path50"
         style="display:inline;vector-effect:non-scaling-stroke;fill:none;stroke:#000000;stroke-width:0.259021;-inkscape-stroke:hairline"
         d="m -253.57912,303.34726 0.61681,2.00037 h 0.29972 l 0.61672,-2.00004 z"
         inkscape:label="path3581"
         sodipodi:nodetypes="ccccc" />
      <rect
         style="display:inline;vector-effect:non-scaling-stroke;fill:none;stroke:none;stroke-width:0.264583;stroke-linejoin:round;-inkscape-stroke:hairline"
         id="rect51"
         width="2"
         height="10"
         x="-253.81248"
         y="355.34766" />
      <path
         id="path51"
         style="display:inline;vector-effect:non-scaling-stroke;fill:none;stroke:#000000;stroke-width:0.259021;-inkscape-stroke:hairline"
         d="m -253.57912,363.3473 0.61681,2.00037 h 0.29972 l 0.61672,-2.00004 z"
         inkscape:label="path3581"
         sodipodi:nodetypes="ccccc" />
      <rect
         style="display:inline;vector-effect:non-scaling-stroke;fill:none;stroke:none;stroke-width:0.264583;stroke-linejoin:round;-inkscape-stroke:hairline"
         id="rect52"
         width="2"
         height="10"
         x="-253.81248"
         y="395.34769" />
      <path
         id="path52"
         style="display:inline;vector-effect:non-scaling-stroke;fill:none;stroke:#000000;stroke-width:0.259021;-inkscape-stroke:hairline"
         d="m -253.57912,403.34733 0.61681,2.00037 h 0.29972 l 0.61672,-2.00004 z"
         inkscape:label="path3581"
         sodipodi:nodetypes="ccccc" />
      <rect
         style="display:inline;vector-effect:non-scaling-stroke;fill:none;stroke:none;stroke-width:0.264583;stroke-linejoin:round;-inkscape-stroke:hairline"
         id="rect53"
         width="2"
         height="10"
         x="-253.81248"
         y="435.34772" />
      <path
         id="path53"
         style="display:inline;vector-effect:non-scaling-stroke;fill:none;stroke:#000000;stroke-width:0.259021;-inkscape-stroke:hairline"
         d="m -253.57912,443.34736 0.61681,2.00037 h 0.29972 l 0.61672,-2.00004 z"
         inkscape:label="path3581"
         sodipodi:nodetypes="ccccc" />
      <rect
         style="display:inline;vector-effect:non-scaling-stroke;fill:none;stroke:none;stroke-width:0.264583;stroke-linejoin:round;-inkscape-stroke:hairline"
         id="rect54"
         width="2"
         height="10"
         x="-253.81248"
         y="475.34775" />
      <path
         id="path54"
         style="display:inline;vector-effect:non-scaling-stroke;fill:none;stroke:#000000;stroke-width:0.259021;-inkscape-stroke:hairline"
         d="m -253.57912,483.34739 0.61681,2.00037 h 0.29972 l 0.61672,-2.00004 z"
         inkscape:label="path3581"
         sodipodi:nodetypes="ccccc" />
      <rect
         style="display:inline;vector-effect:non-scaling-stroke;fill:none;stroke:none;stroke-width:0.264583;stroke-linejoin:round;-inkscape-stroke:hairline"
         id="rect55"
         width="2"
         height="10"
         x="-253.81248"
         y="515.34778" />
      <path
         id="path55"
         style="display:inline;vector-effect:non-scaling-stroke;fill:none;stroke:#000000;stroke-width:0.259021;-inkscape-stroke:hairline"
         d="m -253.57912,523.34742 0.61681,2.00037 h 0.29972 l 0.61672,-2.00004 z"
         inkscape:label="path3581"
         sodipodi:nodetypes="ccccc" />
      <rect
         style="display:inline;vector-effect:non-scaling-stroke;fill:none;stroke:none;stroke-width:0.264583;stroke-linejoin:round;-inkscape-stroke:hairline"
         id="rect56"
         width="2"
         height="10"
         x="-253.81248"
         y="555.34784" />
      <path
         id="path56"
         style="display:inline;vector-effect:non-scaling-stroke;fill:none;stroke:#000000;stroke-width:0.259021;-inkscape-stroke:hairline"
         d="m -253.57912,563.34745 0.61681,2.00037 h 0.29972 l 0.61672,-2.00004 z"
         inkscape:label="path3581"
         sodipodi:nodetypes="ccccc" />
      <rect
         style="display:inline;vector-effect:non-scaling-stroke;fill:none;stroke:none;stroke-width:0.264583;stroke-linejoin:round;-inkscape-stroke:hairline"
         id="rect58"
         width="2"
         height="10"
         x="-253.81248"
         y="315.34763" />
      <path
         id="path58"
         style="display:inline;vector-effect:non-scaling-stroke;fill:none;stroke:#000000;stroke-width:0.259021;-inkscape-stroke:hairline"
         d="m -253.57912,323.34727 0.61681,2.00037 h 0.29972 l 0.61672,-2.00004 z"
         inkscape:label="path3581"
         sodipodi:nodetypes="ccccc" />
      <rect
         style="display:inline;vector-effect:non-scaling-stroke;fill:none;stroke:none;stroke-width:0.264583;stroke-linejoin:round;-inkscape-stroke:hairline"
         id="rect59"
         width="2"
         height="10"
         x="-253.81248"
         y="335.34766" />
      <path
         id="path59"
         style="display:inline;vector-effect:non-scaling-stroke;fill:none;stroke:#000000;stroke-width:0.259021;-inkscape-stroke:hairline"
         d="m -253.57912,343.34729 0.61681,2.00037 h 0.29972 l 0.61672,-2.00004 z"
         inkscape:label="path3581"
         sodipodi:nodetypes="ccccc" />
      <rect
         style="display:inline;vector-effect:non-scaling-stroke;fill:none;stroke:none;stroke-width:0.264583;stroke-linejoin:round;-inkscape-stroke:hairline"
         id="rect60"
         width="2"
         height="10"
         x="-253.81248"
         y="375.34769" />
      <path
         id="path60"
         style="display:inline;vector-effect:non-scaling-stroke;fill:none;stroke:#000000;stroke-width:0.259021;-inkscape-stroke:hairline"
         d="m -253.57912,383.34732 0.61681,2.00037 h 0.29972 l 0.61672,-2.00004 z"
         inkscape:label="path3581"
         sodipodi:nodetypes="ccccc" />
      <rect
         style="display:inline;vector-effect:non-scaling-stroke;fill:none;stroke:none;stroke-width:0.264583;stroke-linejoin:round;-inkscape-stroke:hairline"
         id="rect61"
         width="2"
         height="10"
         x="-253.81248"
         y="415.34769" />
      <path
         id="path61"
         style="display:inline;vector-effect:non-scaling-stroke;fill:none;stroke:#000000;stroke-width:0.259021;-inkscape-stroke:hairline"
         d="m -253.57912,423.34735 0.61681,2.00037 h 0.29972 l 0.61672,-2.00004 z"
         inkscape:label="path3581"
         sodipodi:nodetypes="ccccc" />
      <rect
         style="display:inline;vector-effect:non-scaling-stroke;fill:none;stroke:none;stroke-width:0.264583;stroke-linejoin:round;-inkscape-stroke:hairline"
         id="rect62"
         width="2"
         height="10"
         x="-253.81248"
         y="455.34772" />
      <path
         id="path62"
         style="display:inline;vector-effect:non-scaling-stroke;fill:none;stroke:#000000;stroke-width:0.259021;-inkscape-stroke:hairline"
         d="m -253.57912,463.34738 0.61681,2.00037 h 0.29972 l 0.61672,-2.00004 z"
         inkscape:label="path3581"
         sodipodi:nodetypes="ccccc" />
      <rect
         style="display:inline;vector-effect:non-scaling-stroke;fill:none;stroke:none;stroke-width:0.264583;stroke-linejoin:round;-inkscape-stroke:hairline"
         id="rect63"
         width="2"
         height="10"
         x="-253.81248"
         y="495.34775" />
      <path
         id="path63"
         style="display:inline;vector-effect:non-scaling-stroke;fill:none;stroke:#000000;stroke-width:0.259021;-inkscape-stroke:hairline"
         d="m -253.57912,503.34741 0.61681,2.00037 h 0.29972 l 0.61672,-2.00004 z"
         inkscape:label="path3581"
         sodipodi:nodetypes="ccccc" />
      <rect
         style="display:inline;vector-effect:non-scaling-stroke;fill:none;stroke:none;stroke-width:0.264583;stroke-linejoin:round;-inkscape-stroke:hairline"
         id="rect64"
         width="2"
         height="10"
         x="-253.81248"
         y="535.34778" />
      <path
         id="path64"
         style="display:inline;vector-effect:non-scaling-stroke;fill:none;stroke:#000000;stroke-width:0.259021;-inkscape-stroke:hairline"
         d="m -253.57912,543.34744 0.61681,2.00037 h 0.29972 l 0.61672,-2.00004 z"
         inkscape:label="path3581"
         sodipodi:nodetypes="ccccc" />
      <rect
         style="display:inline;vector-effect:non-scaling-stroke;fill:none;stroke:none;stroke-width:0.264583;stroke-linejoin:round;-inkscape-stroke:hairline"
         id="rect66"
         width="2"
         height="10"
         x="-253.81248"
         y="305.34763" />
      <path
         id="path66"
         style="display:inline;vector-effect:non-scaling-stroke;fill:none;stroke:#000000;stroke-width:0.259021;-inkscape-stroke:hairline"
         d="m -253.57912,313.34727 0.61681,2.00037 h 0.29972 l 0.61672,-2.00004 z"
         inkscape:label="path3581"
         sodipodi:nodetypes="ccccc" />
      <rect
         style="display:inline;vector-effect:non-scaling-stroke;fill:none;stroke:none;stroke-width:0.264583;stroke-linejoin:round;-inkscape-stroke:hairline"
         id="rect67"
         width="2"
         height="10"
         x="-253.81248"
         y="365.34766" />
      <path
         id="path67"
         style="display:inline;vector-effect:non-scaling-stroke;fill:none;stroke:#000000;stroke-width:0.259021;-inkscape-stroke:hairline"
         d="m -253.57912,373.34731 0.61681,2.00037 h 0.29972 l 0.61672,-2.00004 z"
         inkscape:label="path3581"
         sodipodi:nodetypes="ccccc" />
      <rect
         style="display:inline;vector-effect:non-scaling-stroke;fill:none;stroke:none;stroke-width:0.264583;stroke-linejoin:round;-inkscape-stroke:hairline"
         id="rect68"
         width="2"
         height="10"
         x="-253.81248"
         y="405.34769" />
      <path
         id="path68"
         style="display:inline;vector-effect:non-scaling-stroke;fill:none;stroke:#000000;stroke-width:0.259021;-inkscape-stroke:hairline"
         d="m -253.57912,413.34734 0.61681,2.00037 h 0.29972 l 0.61672,-2.00004 z"
         inkscape:label="path3581"
         sodipodi:nodetypes="ccccc" />
      <rect
         style="display:inline;vector-effect:non-scaling-stroke;fill:none;stroke:none;stroke-width:0.264583;stroke-linejoin:round;-inkscape-stroke:hairline"
         id="rect69"
         width="2"
         height="10"
         x="-253.81248"
         y="445.34772" />
      <path
         id="path69"
         style="display:inline;vector-effect:non-scaling-stroke;fill:none;stroke:#000000;stroke-width:0.259021;-inkscape-stroke:hairline"
         d="m -253.57912,453.34737 0.61681,2.00037 h 0.29972 l 0.61672,-2.00004 z"
         inkscape:label="path3581"
         sodipodi:nodetypes="ccccc" />
      <rect
         style="display:inline;vector-effect:non-scaling-stroke;fill:none;stroke:none;stroke-width:0.264583;stroke-linejoin:round;-inkscape-stroke:hairline"
         id="rect70"
         width="2"
         height="10"
         x="-253.81248"
         y="485.34775" />
      <path
         id="path70"
         style="display:inline;vector-effect:non-scaling-stroke;fill:none;stroke:#000000;stroke-width:0.259021;-inkscape-stroke:hairline"
         d="m -253.57912,493.3474 0.61681,2.00037 h 0.29972 l 0.61672,-2.00004 z"
         inkscape:label="path3581"
         sodipodi:nodetypes="ccccc" />
      <rect
         style="display:inline;vector-effect:non-scaling-stroke;fill:none;stroke:none;stroke-width:0.264583;stroke-linejoin:round;-inkscape-stroke:hairline"
         id="rect71"
         width="2"
         height="10"
         x="-253.81248"
         y="525.34778" />
      <path
         id="path71"
         style="display:inline;vector-effect:non-scaling-stroke;fill:none;stroke:#000000;stroke-width:0.259021;-inkscape-stroke:hairline"
         d="m -253.57912,533.34743 0.61681,2.00037 h 0.29972 l 0.61672,-2.00004 z"
         inkscape:label="path3581"
         sodipodi:nodetypes="ccccc" />
      <rect
         style="display:inline;vector-effect:non-scaling-stroke;fill:none;stroke:none;stroke-width:0.264583;stroke-linejoin:round;-inkscape-stroke:hairline"
         id="rect72"
         width="2"
         height="10"
         x="-253.81248"
         y="565.34784" />
      <path
         id="path72"
         style="display:inline;vector-effect:non-scaling-stroke;fill:none;stroke:#000000;stroke-width:0.259021;-inkscape-stroke:hairline"
         d="m -253.57912,573.34746 0.61681,2.00037 h 0.29972 l 0.61672,-2.00004 z"
         inkscape:label="path3581"
         sodipodi:nodetypes="ccccc" />
      <rect
         style="display:inline;vector-effect:non-scaling-stroke;fill:none;stroke:none;stroke-width:0.264583;stroke-linejoin:round;-inkscape-stroke:hairline"
         id="rect105"
         width="2"
         height="10"
         x="-253.81248"
         y="325.34763" />
      <path
         id="path105"
         style="display:inline;vector-effect:non-scaling-stroke;fill:none;stroke:#000000;stroke-width:0.259021;-inkscape-stroke:hairline"
         d="m -253.57912,333.34728 0.61681,2.00037 h 0.29972 l 0.61672,-2.00004 z"
         inkscape:label="path3581"
         sodipodi:nodetypes="ccccc" />
      <rect
         style="display:inline;vector-effect:non-scaling-stroke;fill:none;stroke:none;stroke-width:0.264583;stroke-linejoin:round;-inkscape-stroke:hairline"
         id="rect106"
         width="2"
         height="10"
         x="-253.81248"
         y="345.34766" />
      <path
         id="path106"
         style="display:inline;vector-effect:non-scaling-stroke;fill:none;stroke:#000000;stroke-width:0.259021;-inkscape-stroke:hairline"
         d="m -253.57912,353.3473 0.61681,2.00037 h 0.29972 l 0.61672,-2.00004 z"
         inkscape:label="path3581"
         sodipodi:nodetypes="ccccc" />
      <rect
         style="display:inline;vector-effect:non-scaling-stroke;fill:none;stroke:none;stroke-width:0.264583;stroke-linejoin:round;-inkscape-stroke:hairline"
         id="rect107"
         width="2"
         height="10"
         x="-253.81248"
         y="385.34769" />
      <path
         id="path107"
         style="display:inline;vector-effect:non-scaling-stroke;fill:none;stroke:#000000;stroke-width:0.259021;-inkscape-stroke:hairline"
         d="m -253.57912,393.34733 0.61681,2.00037 h 0.29972 l 0.61672,-2.00004 z"
         inkscape:label="path3581"
         sodipodi:nodetypes="ccccc" />
      <rect
         style="display:inline;vector-effect:non-scaling-stroke;fill:none;stroke:none;stroke-width:0.264583;stroke-linejoin:round;-inkscape-stroke:hairline"
         id="rect108"
         width="2"
         height="10"
         x="-253.81248"
         y="425.34772" />
      <path
         id="path108"
         style="display:inline;vector-effect:non-scaling-stroke;fill:none;stroke:#000000;stroke-width:0.259021;-inkscape-stroke:hairline"
         d="m -253.57912,433.34736 0.61681,2.00037 h 0.29972 l 0.61672,-2.00004 z"
         inkscape:label="path3581"
         sodipodi:nodetypes="ccccc" />
      <rect
         style="display:inline;vector-effect:non-scaling-stroke;fill:none;stroke:none;stroke-width:0.264583;stroke-linejoin:round;-inkscape-stroke:hairline"
         id="rect109"
         width="2"
         height="10"
         x="-253.81248"
         y="465.34772" />
      <path
         id="path109"
         style="display:inline;vector-effect:non-scaling-stroke;fill:none;stroke:#000000;stroke-width:0.259021;-inkscape-stroke:hairline"
         d="m -253.57912,473.34738 0.61681,2.00037 h 0.29972 l 0.61672,-2.00004 z"
         inkscape:label="path3581"
         sodipodi:nodetypes="ccccc" />
      <rect
         style="display:inline;vector-effect:non-scaling-stroke;fill:none;stroke:none;stroke-width:0.264583;stroke-linejoin:round;-inkscape-stroke:hairline"
         id="rect110"
         width="2"
         height="10"
         x="-253.81248"
         y="505.34775" />
      <path
         id="path110"
         style="display:inline;vector-effect:non-scaling-stroke;fill:none;stroke:#000000;stroke-width:0.259021;-inkscape-stroke:hairline"
         d="m -253.57912,513.34741 0.61681,2.00037 h 0.29972 l 0.61672,-2.00004 z"
         inkscape:label="path3581"
         sodipodi:nodetypes="ccccc" />
      <rect
         style="display:inline;vector-effect:non-scaling-stroke;fill:none;stroke:none;stroke-width:0.264583;stroke-linejoin:round;-inkscape-stroke:hairline"
         id="rect111"
         width="2"
         height="10"
         x="-253.81248"
         y="545.34778" />
      <path
         id="path111"
         style="display:inline;vector-effect:non-scaling-stroke;fill:none;stroke:#000000;stroke-width:0.259021;-inkscape-stroke:hairline"
         d="m -253.57912,553.34744 0.61681,2.00037 h 0.29972 l 0.61672,-2.00004 z"
         inkscape:label="path3581"
         sodipodi:nodetypes="ccccc" />
    </g>
    <rect
       style="display:inline;vector-effect:non-scaling-stroke;fill:#008000;stroke:#0000ff;stroke-width:0.264583;stroke-linejoin:round;stroke-opacity:1;-inkscape-stroke:hairline"
       id="rect101"
       width="44.450001"
       height="63.5"
       x="65.583054"
       y="-94.275642" />
    <rect
       style="display:inline;vector-effect:non-scaling-stroke;fill:#008000;stroke:#0000ff;stroke-width:0.264583;stroke-linejoin:round;stroke-opacity:1;-inkscape-stroke:hairline"
       id="rect102"
       width="63.5"
       height="88.900002"
       x="170.79457"
       y="-94.565483" />
    <rect
       style="display:inline;vector-effect:non-scaling-stroke;fill:#008000;stroke:#0000ff;stroke-width:0.264583;stroke-linejoin:round;stroke-opacity:1;-inkscape-stroke:hairline"
       id="rect103"
       width="88.900002"
       height="127"
       x="257.16656"
       y="-129.63599" />
    <circle
       style="vector-effect:non-scaling-stroke;fill:none;stroke:#000000;stroke-width:0.264583;stroke-linejoin:round;stroke-opacity:1;-inkscape-stroke:hairline"
       id="circle116"
       cx="66.978065"
       cy="493.63391"
       r="2" />
    <rect
       style="vector-effect:non-scaling-stroke;fill:none;stroke:#000000;stroke-width:0.264583;stroke-linejoin:round;stroke-opacity:1;-inkscape-stroke:hairline"
       id="rect116"
       width="70"
       height="0.30000001"
       x="3.4780669"
       y="493.48392" />
  </g>
  <g
     inkscape:groupmode="layer"
     id="layer2"
     inkscape:label="Base"
     style="display:none">
    <g
       id="p-0"
       style="fill:none;stroke-linecap:round;stroke-linejoin:round"
       transform="translate(254.95414,47.806447)">
      <path
         d="m 10.1,457.8 h 100 v -10 h -100 z"
         stroke="#000000"
         stroke-width="0.2"
         id="path1" />
      <text
         dominant-baseline="hanging"
         font-size="6px"
         style="font-style:normal;font-weight:normal;font-family:sans-serif;fill:#ff0000"
         text-anchor="middle"
         transform="translate(60.1,449.8)"
         id="text1">100.0mm, burn:0.10mm</text>
    </g>
    <path
       d="m -19.767,467.97733 v -7.9 c 0,-0.1 -0.1,0 0,0 h 2.9 c 0.055,0 0.1,-0.045 0.1,-0.1 v -6 c 0,-0.055 -0.045,-0.1 -0.1,-0.1 h -2.9 c -0.1,0 0,0.1 0,0 v -5.8 c 0,-0.1 -0.1,0 0,0 h 2.9 c 0.055,0 0.1,-0.045 0.1,-0.1 v -6 c 0,-0.055 -0.045,-0.1 -0.1,-0.1 h -2.9 c -0.1,0 0,0.1 0,0 v -5.8 c 0,-0.1 -0.1,0 0,0 h 2.9 c 0.055,0 0.1,-0.045 0.1,-0.1 v -6 c 0,-0.055 -0.045,-0.1 -0.1,-0.1 h -2.9 c -0.1,0 0,0.1 0,0 v -5.8 c 0,-0.1 -0.1,0 0,0 h 2.9 c 0.055,0 0.1,-0.045 0.1,-0.1 v -6 c 0,-0.055 -0.045,-0.1 -0.1,-0.1 h -2.9 c -0.1,0 0,0.1 0,0 v -5.8 c 0,-0.1 -0.1,0 0,0 h 2.9 c 0.055,0 0.1,-0.045 0.1,-0.1 v -6 c 0,-0.055 -0.045,-0.1 -0.1,-0.1 h -2.9 c -0.1,0 0,0.1 0,0 v -5.8 c 0,-0.1 -0.1,0 0,0 h 2.9 c 0.055,0 0.1,-0.045 0.1,-0.1 v -6 c 0,-0.055 -0.045,-0.1 -0.1,-0.1 h -2.9 c -0.1,0 0,0.1 0,0 v -5.8 c 0,-0.1 -0.1,0 0,0 h 2.9 c 0.055,0 0.1,-0.045 0.1,-0.1 v -6 c 0,-0.055 -0.045,-0.1 -0.1,-0.1 h -2.9 c -0.1,0 0,0.1 0,0 v -5.8 c 0,-0.1 -0.1,0 0,0 h 2.9 c 0.055,0 0.1,-0.045 0.1,-0.1 v -6 c 0,-0.055 -0.045,-0.1 -0.1,-0.1 h -2.9 c -0.1,0 0,0.1 0,0 v -5.8 c 0,-0.1 -0.1,0 0,0 h 2.9 c 0.055,0 0.1,-0.045 0.1,-0.1 v -6 c 0,-0.055 -0.045,-0.1 -0.1,-0.1 h -2.9 c -0.1,0 0,0.1 0,0 v -5.8 c 0,-0.1 -0.1,0 0,0 h 2.9 c 0.055,0 0.1,-0.045 0.1,-0.1 v -6 c 0,-0.055 -0.045,-0.1 -0.1,-0.1 h -2.9 c -0.1,0 0,0.1 0,0 v -5.8 c 0,-0.1 -0.1,0 0,0 h 2.9 c 0.055,0 0.1,-0.045 0.1,-0.1 v -6 c 0,-0.055 -0.045,-0.1 -0.1,-0.1 h -2.9 c -0.1,0 0,0.1 0,0 v -5.8 c 0,-0.1 -0.1,0 0,0 h 2.9 c 0.055,0 0.1,-0.045 0.1,-0.1 v -6 c 0,-0.055 -0.045,-0.1 -0.1,-0.1 h -2.9 c -0.1,0 0,0.1 0,0 v -5.8 c 0,-0.1 -0.1,0 0,0 h 2.9 c 0.055,0 0.1,-0.045 0.1,-0.1 v -6 c 0,-0.055 -0.045,-0.1 -0.1,-0.1 h -2.9 c -0.1,0 0,0.1 0,0 v -5.8 c 0,-0.1 -0.1,0 0,0 h 2.9 c 0.055,0 0.1,-0.045 0.1,-0.1 v -6 c 0,-0.055 -0.045,-0.1 -0.1,-0.1 h -2.9 c -0.1,0 0,0.1 0,0 v -5.8 c 0,-0.1 -0.1,0 0,0 h 2.9 c 0.055,0 0.1,-0.045 0.1,-0.1 v -6 c 0,-0.055 -0.045,-0.1 -0.1,-0.1 h -2.9 c -0.1,0 0,0.1 0,0 v -5.8 c 0,-0.1 -0.1,0 0,0 h 2.9 c 0.055,0 0.1,-0.045 0.1,-0.1 v -6 c 0,-0.055 -0.045,-0.1 -0.1,-0.1 h -2.9 c -0.1,0 0,0.1 0,0 v -5.8 c 0,-0.1 -0.1,0 0,0 h 2.9 c 0.055,0 0.1,-0.045 0.1,-0.1 v -6 c 0,-0.055 -0.045,-0.1 -0.1,-0.1 h -2.9 c -0.1,0 0,0.1 0,0 v -5.8 c 0,-0.1 -0.1,0 0,0 h 2.9 c 0.055,0 0.1,-0.045 0.1,-0.1 v -6 c 0,-0.055 -0.045,-0.1 -0.1,-0.1 h -2.9 c -0.1,0 0,0.1 0,0 v -5.8 c 0,-0.1 -0.1,0 0,0 h 2.9 c 0.055,0 0.1,-0.045 0.1,-0.1 v -6 c 0,-0.055 -0.045,-0.1 -0.1,-0.1 h -2.9 c -0.1,0 0,0.1 0,0 v -5.8 c 0,-0.1 -0.1,0 0,0 h 2.9 c 0.055,0 0.1,-0.045 0.1,-0.1 v -6 c 0,-0.055 -0.045,-0.1 -0.1,-0.1 h -2.9 c -0.1,0 0,0.1 0,0 v -5.8 c 0,-0.1 -0.1,0 0,0 h 2.9 c 0.055,0 0.1,-0.045 0.1,-0.1 v -6 c 0,-0.055 -0.045,-0.1 -0.1,-0.1 h -2.9 c -0.1,0 0,0.1 0,0 v -5.80002 c 0,-0.1 -0.1,0 0,0 h 2.9 c 0.055,0 0.1,-0.045 0.1,-0.1 v -6 c 0,-0.055 -0.045,-0.1 -0.1,-0.1 h -2.9 c -0.1,0 0,0.1 0,0 v -5.8 c 0,-0.1 -0.1,0 0,0 h 2.9 c 0.055,0 0.1,-0.045 0.1,-0.1 v -6 c 0,-0.055 -0.045,-0.1 -0.1,-0.1 h -2.9 c -0.1,0 0,0.1 0,0 v -5.8 c 0,-0.1 -0.1,0 0,0 h 2.9 c 0.055,0 0.1,-0.045 0.1,-0.1 v -6 c 0,-0.055 -0.045,-0.1 -0.1,-0.1 h -2.9 c -0.1,0 0,0.1 0,0 v -5.8 c 0,-0.1 -0.1,0 0,0 h 2.9 c 0.055,0 0.1,-0.045 0.1,-0.1 v -6 c 0,-0.055 -0.045,-0.1 -0.1,-0.1 h -2.9 c -0.1,0 0,0.1 0,0 v -5.8 c 0,-0.1 -0.1,0 0,0 h 2.9 c 0.055,0 0.1,-0.045 0.1,-0.1 v -6 c 0,-0.055 -0.045,-0.1 -0.1,-0.1 h -2.9 c -0.1,0 0,0.1 0,0 v -5.8 c 0,-0.1 -0.1,0 0,0 h 2.9 c 0.055,0 0.1,-0.045 0.1,-0.1 v -6 c 0,-0.055 -0.045,-0.1 -0.1,-0.1 h -2.9 c -0.1,0 0,0.1 0,0 v -7.9 c 0,-0.055 -0.045,-0.1 -0.1,-0.1 h -29 -3 c -0.055,0 -0.1,0.045 -0.1,0.1 v 334.00002 c 0,0.055 0.045,0.1 0.1,0.1 h 3 11.4 c 0.1,0 0,-0.1 0,0 v 2.9 c 0,0.055 0.045,0.1 0.1,0.1 h 6 c 0.055,0 0.1,-0.045 0.1,-0.1 v -2.9 c 0,-0.1 -0.1,0 0,0 h 11.4 c 0.055,0 0.1,-0.045 0.1,-0.1 z"
       stroke="#000000"
       stroke-width="0.2"
       id="path4"
       style="fill:none;stroke-linecap:round;stroke-linejoin:round"
       sodipodi:nodetypes="ssssssssssssssssssssssssssssssssssssssssssssssssssssssssssssssssssssssssssssssssssssssssssssssssssssssssssssssssssssssssssssssssssssssssssssssssssssssssssssssssssssssssssssssssssssssssssssssssssssssssssssssssssssssssssscsssscssssssssss" />
    <path
       d="m 0.3663,515 h 10.9 c 0.1,0 0,-0.1 0,0 v 2.9 c 0,0.055 0.045,0.1 0.1,0.1 h 6 c 0.055,0 0.1,-0.045 0.1,-0.1 V 515 c 0,-0.1 -0.1,0 0,0 h 5.8 c 0.1,0 0,-0.1 0,0 v 2.9 c 0,0.055 0.045,0.1 0.1,0.1 h 6 c 0.055,0 0.1,-0.045 0.1,-0.1 V 515 c 0,-0.1 -0.1,0 0,0 h 5.8 c 0.1,0 0,-0.1 0,0 v 2.9 c 0,0.055 0.045,0.1 0.1,0.1 h 6 c 0.055,0 0.1,-0.045 0.1,-0.1 V 515 c 0,-0.1 -0.1,0 0,0 h 5.8 c 0.1,0 0,-0.1 0,0 v 2.9 c 0,0.055 0.045,0.1 0.1,0.1 h 6 c 0.055,0 0.1,-0.045 0.1,-0.1 V 515 c 0,-0.1 -0.1,0 0,0 h 5.8 c 0.1,0 0,-0.1 0,0 v 2.9 c 0,0.055 0.045,0.1 0.1,0.1 h 6 c 0.055,0 0.1,-0.045 0.1,-0.1 V 515 c 0,-0.1 -0.1,0 0,0 h 5.8 c 0.1,0 0,-0.1 0,0 v 2.9 c 0,0.055 0.045,0.1 0.1,0.1 h 6 c 0.055,0 0.1,-0.045 0.1,-0.1 V 515 c 0,-0.1 -0.1,0 0,0 h 5.8 c 0.1,0 0,-0.1 0,0 v 2.9 c 0,0.055 0.045,0.1 0.1,0.1 h 6 c 0.055,0 0.1,-0.045 0.1,-0.1 V 515 c 0,-0.1 -0.1,0 0,0 h 5.8 c 0.1,0 0,-0.1 0,0 v 2.9 c 0,0.055 0.045,0.1 0.1,0.1 h 6 c 0.055,0 0.1,-0.045 0.1,-0.1 V 515 c 0,-0.1 -0.1,0 0,0 h 5.8 c 0.1,0 0,-0.1 0,0 v 2.9 c 0,0.055 0.045,0.1 0.1,0.1 h 6 c 0.055,0 0.1,-0.045 0.1,-0.1 V 515 c 0,-0.1 -0.1,0 0,0 h 5.8 c 0.1,0 0,-0.1 0,0 v 2.9 c 0,0.055 0.045,0.1 0.1,0.1 h 6 c 0.055,0 0.1,-0.045 0.1,-0.1 V 515 c 0,-0.1 -0.1,0 0,0 h 5.8 c 0.1,0 0,-0.1 0,0 v 2.9 c 0,0.055 0.045,0.1 0.1,0.1 h 6 c 0.055,0 0.1,-0.045 0.1,-0.1 V 515 c 0,-0.1 -0.1,0 0,0 h 5.8 c 0.1,0 0,-0.1 0,0 v 2.9 c 0,0.055 0.045,0.1 0.1,0.1 h 6 c 0.055,0 0.1,-0.045 0.1,-0.1 V 515 c 0,-0.1 -0.1,0 0,0 h 5.8 c 0.1,0 0,-0.1 0,0 v 2.9 c 0,0.055 0.045,0.1 0.1,0.1 h 6 c 0.055,0 0.1,-0.045 0.1,-0.1 V 515 c 0,-0.1 -0.1,0 0,0 h 5.8 c 0.1,0 0,-0.1 0,0 v 2.9 c 0,0.055 0.045,0.1 0.1,0.1 h 6 c 0.055,0 0.1,-0.045 0.1,-0.1 V 515 c 0,-0.1 -0.1,0 0,0 h 5.8 c 0.1,0 0,-0.1 0,0 v 2.9 c 0,0.055 0.045,0.1 0.1,0.1 h 6 c 0.055,0 0.1,-0.045 0.1,-0.1 V 515 c 0,-0.1 -0.1,0 0,0 h 5.8 c 0.1,0 0,-0.1 0,0 v 2.9 c 0,0.055 0.045,0.1 0.1,0.1 h 6 c 0.055,0 0.1,-0.045 0.1,-0.1 V 515 c 0,-0.1 -0.1,0 0,0 h 5.8 c 0.1,0 0,-0.1 0,0 v 2.9 c 0,0.055 0.045,0.1 0.1,0.1 h 6 c 0.055,0 0.1,-0.045 0.1,-0.1 V 515 c 0,-0.1 -0.1,0 0,0 h 5.8 c 0.1,0 0,-0.1 0,0 v 2.9 c 0,0.055 0.045,0.1 0.1,0.1 h 6 c 0.055,0 0.1,-0.045 0.1,-0.1 V 515 c 0,-0.1 -0.1,0 0,0 h 5.8 c 0.1,0 0,-0.1 0,0 v 2.9 c 0,0.055 0.045,0.1 0.1,0.1 h 6 c 0.055,0 0.1,-0.045 0.1,-0.1 V 515 c 0,-0.1 -0.1,0 0,0 h 10.9 3 c 0.055,0 0.1,-0.045 0.1,-0.1 v -29 -3 c 0,-0.055 -0.045,-0.1 -0.1,-0.1 h -3 -244 -3 c -0.055,0 -0.1,0.045 -0.1,0.1 v 3 11.5 c 0,0.055 0.045,0.1 0.1,0.1 h 2.9 c 0.1,0 0,-0.1 0,0 v 5.8 c 0,0.1 0.1,0 0,0 h -2.9 c -0.055,0 -0.1,0.045 -0.1,0.1 v 11.5 c 0,0.055 0.045,0.1 0.1,0.1 z"
       stroke="#000000"
       stroke-width="0.2"
       id="path5"
       style="fill:none;stroke-linecap:round;stroke-linejoin:round"
       sodipodi:nodetypes="csssssssssssssssssssssssssssssssssssssssssssssssssssssssssssssssssssssssssssssssssssssssssssssssssssssssssssssssssssssssssssssssssssssssssssssssssssssssscsscssccsscssssssssssc" />
    <g
       id="g100"
       transform="translate(-275.20045,111.6)">
      <path
         d="m 289.3,359 h -2.9 c -0.1,0 0,0.1 0,0 v -2.8 c 0,-0.1 -0.1,0 0,0 h 5.8 c 0.1,0 0,-0.1 0,0 v 2.8 c 0,0.1 0.1,0 0,0 z"
         stroke="#0000ff"
         stroke-width="0.2"
         id="path7"
         style="fill:none;stroke-linecap:round;stroke-linejoin:round" />
      <path
         d="m 301.3,359 h -2.9 c -0.1,0 0,0.1 0,0 v -2.8 c 0,-0.1 -0.1,0 0,0 h 5.8 c 0.1,0 0,-0.1 0,0 v 2.8 c 0,0.1 0.1,0 0,0 z"
         stroke="#0000ff"
         stroke-width="0.2"
         id="path8"
         style="fill:none;stroke-linecap:round;stroke-linejoin:round" />
      <path
         d="m 313.3,359 h -2.9 c -0.1,0 0,0.1 0,0 v -2.8 c 0,-0.1 -0.1,0 0,0 h 5.8 c 0.1,0 0,-0.1 0,0 v 2.8 c 0,0.1 0.1,0 0,0 z"
         stroke="#0000ff"
         stroke-width="0.2"
         id="path9"
         style="fill:none;stroke-linecap:round;stroke-linejoin:round" />
      <path
         d="m 325.3,359 h -2.9 c -0.1,0 0,0.1 0,0 v -2.8 c 0,-0.1 -0.1,0 0,0 h 5.8 c 0.1,0 0,-0.1 0,0 v 2.8 c 0,0.1 0.1,0 0,0 z"
         stroke="#0000ff"
         stroke-width="0.2"
         id="path10"
         style="fill:none;stroke-linecap:round;stroke-linejoin:round" />
      <path
         d="m 337.3,359 h -2.9 c -0.1,0 0,0.1 0,0 v -2.8 c 0,-0.1 -0.1,0 0,0 h 5.8 c 0.1,0 0,-0.1 0,0 v 2.8 c 0,0.1 0.1,0 0,0 z"
         stroke="#0000ff"
         stroke-width="0.2"
         id="path11"
         style="fill:none;stroke-linecap:round;stroke-linejoin:round" />
      <path
         d="m 349.3,359 h -2.9 c -0.1,0 0,0.1 0,0 v -2.8 c 0,-0.1 -0.1,0 0,0 h 5.8 c 0.1,0 0,-0.1 0,0 v 2.8 c 0,0.1 0.1,0 0,0 z"
         stroke="#0000ff"
         stroke-width="0.2"
         id="path12"
         style="fill:none;stroke-linecap:round;stroke-linejoin:round" />
      <path
         d="m 361.3,359 h -2.9 c -0.1,0 0,0.1 0,0 v -2.8 c 0,-0.1 -0.1,0 0,0 h 5.8 c 0.1,0 0,-0.1 0,0 v 2.8 c 0,0.1 0.1,0 0,0 z"
         stroke="#0000ff"
         stroke-width="0.2"
         id="path13"
         style="fill:none;stroke-linecap:round;stroke-linejoin:round" />
      <path
         d="m 373.3,359 h -2.9 c -0.1,0 0,0.1 0,0 v -2.8 c 0,-0.1 -0.1,0 0,0 h 5.8 c 0.1,0 0,-0.1 0,0 v 2.8 c 0,0.1 0.1,0 0,0 z"
         stroke="#0000ff"
         stroke-width="0.2"
         id="path14"
         style="fill:none;stroke-linecap:round;stroke-linejoin:round" />
      <path
         d="m 385.3,359 h -2.9 c -0.1,0 0,0.1 0,0 v -2.8 c 0,-0.1 -0.1,0 0,0 h 5.8 c 0.1,0 0,-0.1 0,0 v 2.8 c 0,0.1 0.1,0 0,0 z"
         stroke="#0000ff"
         stroke-width="0.2"
         id="path15"
         style="fill:none;stroke-linecap:round;stroke-linejoin:round" />
      <path
         d="m 397.3,359 h -2.9 c -0.1,0 0,0.1 0,0 v -2.8 c 0,-0.1 -0.1,0 0,0 h 5.8 c 0.1,0 0,-0.1 0,0 v 2.8 c 0,0.1 0.1,0 0,0 z"
         stroke="#0000ff"
         stroke-width="0.2"
         id="path16"
         style="fill:none;stroke-linecap:round;stroke-linejoin:round" />
      <path
         d="m 409.3,359 h -2.9 c -0.1,0 0,0.1 0,0 v -2.8 c 0,-0.1 -0.1,0 0,0 h 5.8 c 0.1,0 0,-0.1 0,0 v 2.8 c 0,0.1 0.1,0 0,0 z"
         stroke="#0000ff"
         stroke-width="0.2"
         id="path17"
         style="fill:none;stroke-linecap:round;stroke-linejoin:round" />
      <path
         d="m 421.3,359 h -2.9 c -0.1,0 0,0.1 0,0 v -2.8 c 0,-0.1 -0.1,0 0,0 h 5.8 c 0.1,0 0,-0.1 0,0 v 2.8 c 0,0.1 0.1,0 0,0 z"
         stroke="#0000ff"
         stroke-width="0.2"
         id="path18"
         style="fill:none;stroke-linecap:round;stroke-linejoin:round" />
      <path
         d="m 433.3,359 h -2.9 c -0.1,0 0,0.1 0,0 v -2.8 c 0,-0.1 -0.1,0 0,0 h 5.8 c 0.1,0 0,-0.1 0,0 v 2.8 c 0,0.1 0.1,0 0,0 z"
         stroke="#0000ff"
         stroke-width="0.2"
         id="path19"
         style="fill:none;stroke-linecap:round;stroke-linejoin:round" />
      <path
         d="m 445.3,359 h -2.9 c -0.1,0 0,0.1 0,0 v -2.8 c 0,-0.1 -0.1,0 0,0 h 5.8 c 0.1,0 0,-0.1 0,0 v 2.8 c 0,0.1 0.1,0 0,0 z"
         stroke="#0000ff"
         stroke-width="0.2"
         id="path20"
         style="fill:none;stroke-linecap:round;stroke-linejoin:round" />
      <path
         d="m 457.3,359 h -2.9 c -0.1,0 0,0.1 0,0 v -2.8 c 0,-0.1 -0.1,0 0,0 h 5.8 c 0.1,0 0,-0.1 0,0 v 2.8 c 0,0.1 0.1,0 0,0 z"
         stroke="#0000ff"
         stroke-width="0.2"
         id="path21"
         style="fill:none;stroke-linecap:round;stroke-linejoin:round" />
      <path
         d="m 469.3,359 h -2.9 c -0.1,0 0,0.1 0,0 v -2.8 c 0,-0.1 -0.1,0 0,0 h 5.8 c 0.1,0 0,-0.1 0,0 v 2.8 c 0,0.1 0.1,0 0,0 z"
         stroke="#0000ff"
         stroke-width="0.2"
         id="path22"
         style="fill:none;stroke-linecap:round;stroke-linejoin:round" />
      <path
         d="m 481.3,359 h -2.9 c -0.1,0 0,0.1 0,0 v -2.8 c 0,-0.1 -0.1,0 0,0 h 5.8 c 0.1,0 0,-0.1 0,0 v 2.8 c 0,0.1 0.1,0 0,0 z"
         stroke="#0000ff"
         stroke-width="0.2"
         id="path23"
         style="fill:none;stroke-linecap:round;stroke-linejoin:round" />
      <path
         d="m 493.3,359 h -2.9 c -0.1,0 0,0.1 0,0 v -2.8 c 0,-0.1 -0.1,0 0,0 h 5.8 c 0.1,0 0,-0.1 0,0 v 2.8 c 0,0.1 0.1,0 0,0 z"
         stroke="#0000ff"
         stroke-width="0.2"
         id="path24"
         style="fill:none;stroke-linecap:round;stroke-linejoin:round" />
      <path
         d="m 505.3,359 h -2.9 c -0.1,0 0,0.1 0,0 v -2.8 c 0,-0.1 -0.1,0 0,0 h 5.8 c 0.1,0 0,-0.1 0,0 v 2.8 c 0,0.1 0.1,0 0,0 z"
         stroke="#0000ff"
         stroke-width="0.2"
         id="path25"
         style="fill:none;stroke-linecap:round;stroke-linejoin:round" />
    </g>
    <path
       d="m 0.09954,479.8 h 244 12 c 0.055,0 0.1,-0.045 0.1,-0.1 v -12 -334 -12 c 0,-0.055 -0.045,-0.1 -0.1,-0.1 h -12 -244 -12 c -0.055,0 -0.1,0.045 -0.1,0.1 v 12 334 12 c 0,0.055 0.045,0.1 0.1,0.1 z"
       stroke="#000000"
       stroke-width="0.2"
       id="path26"
       style="fill:none;stroke-linecap:round;stroke-linejoin:round" />
    <g
       id="g99"
       transform="translate(-275.20045,111.6)">
      <path
         d="m 272.4,33.1 v -2.9 c 0,-0.1 -0.1,0 0,0 h 2.8 c 0.1,0 0,-0.1 0,0 V 36 c 0,0.1 0.1,0 0,0 h -2.8 c -0.1,0 0,0.1 0,0 z"
         stroke="#0000ff"
         stroke-width="0.2"
         id="path73"
         style="fill:none;stroke-linecap:round;stroke-linejoin:round" />
      <path
         d="m 272.4,45.1 v -2.9 c 0,-0.1 -0.1,0 0,0 h 2.8 c 0.1,0 0,-0.1 0,0 V 48 c 0,0.1 0.1,0 0,0 h -2.8 c -0.1,0 0,0.1 0,0 z"
         stroke="#0000ff"
         stroke-width="0.2"
         id="path74"
         style="fill:none;stroke-linecap:round;stroke-linejoin:round" />
      <path
         d="m 272.4,57.1 v -2.9 c 0,-0.1 -0.1,0 0,0 h 2.8 c 0.1,0 0,-0.1 0,0 V 60 c 0,0.1 0.1,0 0,0 h -2.8 c -0.1,0 0,0.1 0,0 z"
         stroke="#0000ff"
         stroke-width="0.2"
         id="path75"
         style="fill:none;stroke-linecap:round;stroke-linejoin:round" />
      <path
         d="m 272.4,69.1 v -2.9 c 0,-0.1 -0.1,0 0,0 h 2.8 c 0.1,0 0,-0.1 0,0 V 72 c 0,0.1 0.1,0 0,0 h -2.8 c -0.1,0 0,0.1 0,0 z"
         stroke="#0000ff"
         stroke-width="0.2"
         id="path76"
         style="fill:none;stroke-linecap:round;stroke-linejoin:round" />
      <path
         d="m 272.4,81.1 v -2.9 c 0,-0.1 -0.1,0 0,0 h 2.8 c 0.1,0 0,-0.1 0,0 V 84 c 0,0.1 0.1,0 0,0 h -2.8 c -0.1,0 0,0.1 0,0 z"
         stroke="#0000ff"
         stroke-width="0.2"
         id="path77"
         style="fill:none;stroke-linecap:round;stroke-linejoin:round" />
      <path
         d="m 272.4,93.1 v -2.9 c 0,-0.1 -0.1,0 0,0 h 2.8 c 0.1,0 0,-0.1 0,0 V 96 c 0,0.1 0.1,0 0,0 h -2.8 c -0.1,0 0,0.1 0,0 z"
         stroke="#0000ff"
         stroke-width="0.2"
         id="path78"
         style="fill:none;stroke-linecap:round;stroke-linejoin:round" />
      <path
         d="m 272.4,105.1 v -2.9 c 0,-0.1 -0.1,0 0,0 h 2.8 c 0.1,0 0,-0.1 0,0 v 5.8 c 0,0.1 0.1,0 0,0 h -2.8 c -0.1,0 0,0.1 0,0 z"
         stroke="#0000ff"
         stroke-width="0.2"
         id="path79"
         style="fill:none;stroke-linecap:round;stroke-linejoin:round" />
      <path
         d="m 272.4,117.1 v -2.9 c 0,-0.1 -0.1,0 0,0 h 2.8 c 0.1,0 0,-0.1 0,0 v 5.8 c 0,0.1 0.1,0 0,0 h -2.8 c -0.1,0 0,0.1 0,0 z"
         stroke="#0000ff"
         stroke-width="0.2"
         id="path80"
         style="fill:none;stroke-linecap:round;stroke-linejoin:round" />
      <path
         d="m 272.4,129.1 v -2.9 c 0,-0.1 -0.1,0 0,0 h 2.8 c 0.1,0 0,-0.1 0,0 v 5.8 c 0,0.1 0.1,0 0,0 h -2.8 c -0.1,0 0,0.1 0,0 z"
         stroke="#0000ff"
         stroke-width="0.2"
         id="path81"
         style="fill:none;stroke-linecap:round;stroke-linejoin:round" />
      <path
         d="m 272.4,141.1 v -2.9 c 0,-0.1 -0.1,0 0,0 h 2.8 c 0.1,0 0,-0.1 0,0 v 5.8 c 0,0.1 0.1,0 0,0 h -2.8 c -0.1,0 0,0.1 0,0 z"
         stroke="#0000ff"
         stroke-width="0.2"
         id="path82"
         style="fill:none;stroke-linecap:round;stroke-linejoin:round" />
      <path
         d="m 272.4,153.1 v -2.9 c 0,-0.1 -0.1,0 0,0 h 2.8 c 0.1,0 0,-0.1 0,0 v 5.8 c 0,0.1 0.1,0 0,0 h -2.8 c -0.1,0 0,0.1 0,0 z"
         stroke="#0000ff"
         stroke-width="0.2"
         id="path83"
         style="fill:none;stroke-linecap:round;stroke-linejoin:round" />
      <path
         d="m 272.4,165.1 v -2.9 c 0,-0.1 -0.1,0 0,0 h 2.8 c 0.1,0 0,-0.1 0,0 v 5.8 c 0,0.1 0.1,0 0,0 h -2.8 c -0.1,0 0,0.1 0,0 z"
         stroke="#0000ff"
         stroke-width="0.2"
         id="path84"
         style="fill:none;stroke-linecap:round;stroke-linejoin:round" />
      <path
         d="m 272.4,177.1 v -2.9 c 0,-0.1 -0.1,0 0,0 h 2.8 c 0.1,0 0,-0.1 0,0 v 5.8 c 0,0.1 0.1,0 0,0 h -2.8 c -0.1,0 0,0.1 0,0 z"
         stroke="#0000ff"
         stroke-width="0.2"
         id="path85"
         style="fill:none;stroke-linecap:round;stroke-linejoin:round" />
      <path
         d="m 272.4,189.1 v -2.9 c 0,-0.1 -0.1,0 0,0 h 2.8 c 0.1,0 0,-0.1 0,0 v 5.8 c 0,0.1 0.1,0 0,0 h -2.8 c -0.1,0 0,0.1 0,0 z"
         stroke="#0000ff"
         stroke-width="0.2"
         id="path86"
         style="fill:none;stroke-linecap:round;stroke-linejoin:round" />
      <path
         d="m 272.4,201.1 v -2.9 c 0,-0.1 -0.1,0 0,0 h 2.8 c 0.1,0 0,-0.1 0,0 v 5.8 c 0,0.1 0.1,0 0,0 h -2.8 c -0.1,0 0,0.1 0,0 z"
         stroke="#0000ff"
         stroke-width="0.2"
         id="path87"
         style="fill:none;stroke-linecap:round;stroke-linejoin:round" />
      <path
         d="m 272.4,213.1 v -2.9 c 0,-0.1 -0.1,0 0,0 h 2.8 c 0.1,0 0,-0.1 0,0 v 5.8 c 0,0.1 0.1,0 0,0 h -2.8 c -0.1,0 0,0.1 0,0 z"
         stroke="#0000ff"
         stroke-width="0.2"
         id="path88"
         style="fill:none;stroke-linecap:round;stroke-linejoin:round" />
      <path
         d="m 272.4,225.1 v -2.9 c 0,-0.1 -0.1,0 0,0 h 2.8 c 0.1,0 0,-0.1 0,0 v 5.8 c 0,0.1 0.1,0 0,0 h -2.8 c -0.1,0 0,0.1 0,0 z"
         stroke="#0000ff"
         stroke-width="0.2"
         id="path89"
         style="fill:none;stroke-linecap:round;stroke-linejoin:round" />
      <path
         d="m 272.4,237.1 v -2.9 c 0,-0.1 -0.1,0 0,0 h 2.8 c 0.1,0 0,-0.1 0,0 v 5.8 c 0,0.1 0.1,0 0,0 h -2.8 c -0.1,0 0,0.1 0,0 z"
         stroke="#0000ff"
         stroke-width="0.2"
         id="path90"
         style="fill:none;stroke-linecap:round;stroke-linejoin:round" />
      <path
         d="m 272.4,249.1 v -2.9 c 0,-0.1 -0.1,0 0,0 h 2.8 c 0.1,0 0,-0.1 0,0 v 5.8 c 0,0.1 0.1,0 0,0 h -2.8 c -0.1,0 0,0.1 0,0 z"
         stroke="#0000ff"
         stroke-width="0.2"
         id="path91"
         style="fill:none;stroke-linecap:round;stroke-linejoin:round" />
      <path
         d="m 272.4,261.1 v -2.9 c 0,-0.1 -0.1,0 0,0 h 2.8 c 0.1,0 0,-0.1 0,0 v 5.8 c 0,0.1 0.1,0 0,0 h -2.8 c -0.1,0 0,0.1 0,0 z"
         stroke="#0000ff"
         stroke-width="0.2"
         id="path92"
         style="fill:none;stroke-linecap:round;stroke-linejoin:round" />
      <path
         d="m 272.4,273.1 v -2.9 c 0,-0.1 -0.1,0 0,0 h 2.8 c 0.1,0 0,-0.1 0,0 v 5.8 c 0,0.1 0.1,0 0,0 h -2.8 c -0.1,0 0,0.1 0,0 z"
         stroke="#0000ff"
         stroke-width="0.2"
         id="path93"
         style="fill:none;stroke-linecap:round;stroke-linejoin:round" />
      <path
         d="m 272.4,285.1 v -2.9 c 0,-0.1 -0.1,0 0,0 h 2.8 c 0.1,0 0,-0.1 0,0 v 5.8 c 0,0.1 0.1,0 0,0 h -2.8 c -0.1,0 0,0.1 0,0 z"
         stroke="#0000ff"
         stroke-width="0.2"
         id="path94"
         style="fill:none;stroke-linecap:round;stroke-linejoin:round" />
      <path
         d="m 272.4,297.1 v -2.9 c 0,-0.1 -0.1,0 0,0 h 2.8 c 0.1,0 0,-0.1 0,0 v 5.8 c 0,0.1 0.1,0 0,0 h -2.8 c -0.1,0 0,0.1 0,0 z"
         stroke="#0000ff"
         stroke-width="0.2"
         id="path95"
         style="fill:none;stroke-linecap:round;stroke-linejoin:round" />
      <path
         d="m 272.4,309.1 v -2.9 c 0,-0.1 -0.1,0 0,0 h 2.8 c 0.1,0 0,-0.1 0,0 v 5.8 c 0,0.1 0.1,0 0,0 h -2.8 c -0.1,0 0,0.1 0,0 z"
         stroke="#0000ff"
         stroke-width="0.2"
         id="path96"
         style="fill:none;stroke-linecap:round;stroke-linejoin:round" />
      <path
         d="m 272.4,321.1 v -2.9 c 0,-0.1 -0.1,0 0,0 h 2.8 c 0.1,0 0,-0.1 0,0 v 5.8 c 0,0.1 0.1,0 0,0 h -2.8 c -0.1,0 0,0.1 0,0 z"
         stroke="#0000ff"
         stroke-width="0.2"
         id="path97"
         style="fill:none;stroke-linecap:round;stroke-linejoin:round" />
      <path
         d="m 272.4,333.1 v -2.9 c 0,-0.1 -0.1,0 0,0 h 2.8 c 0.1,0 0,-0.1 0,0 v 5.8 c 0,0.1 0.1,0 0,0 h -2.8 c -0.1,0 0,0.1 0,0 z"
         stroke="#0000ff"
         stroke-width="0.2"
         id="path98"
         style="fill:none;stroke-linecap:round;stroke-linejoin:round" />
      <path
         d="m 272.4,345.1 v -2.9 c 0,-0.1 -0.1,0 0,0 h 2.8 c 0.1,0 0,-0.1 0,0 v 5.8 c 0,0.1 0.1,0 0,0 h -2.8 c -0.1,0 0,0.1 0,0 z"
         stroke="#0000ff"
         stroke-width="0.2"
         id="path99"
         style="fill:none;stroke-linecap:round;stroke-linejoin:round" />
    </g>
    <g
       inkscape:groupmode="layer"
       id="layer1"
       inkscape:label="Cut Marks"
       style="display:inline">
      <path
         style="vector-effect:non-scaling-stroke;fill:#008000;stroke:#ff00ff;stroke-width:0.264583;stroke-linejoin:round;-inkscape-stroke:hairline"
         d="m 44.45,467.8 v -335"
         id="path2"
         sodipodi:nodetypes="cc" />
      <path
         style="vector-effect:non-scaling-stroke;fill:#008000;stroke:#ff00ff;stroke-width:0.264583;stroke-linejoin:round;-inkscape-stroke:hairline"
         d="m 57.15,467.8 v -335"
         id="path3"
         sodipodi:nodetypes="cc" />
      <path
         style="vector-effect:non-scaling-stroke;fill:#008000;stroke:#ff00ff;stroke-width:0.264583;stroke-linejoin:round;-inkscape-stroke:hairline"
         d="M 0,302.7 H 231"
         id="path6"
         sodipodi:nodetypes="cc" />
      <path
         style="vector-effect:non-scaling-stroke;fill:#008000;stroke:#ff00ff;stroke-width:0.264583;stroke-linejoin:round;-inkscape-stroke:hairline"
         d="m 88.9,467.8 v -335"
         id="path27"
         sodipodi:nodetypes="cc" />
      <path
         style="vector-effect:non-scaling-stroke;fill:#008000;stroke:#ff00ff;stroke-width:0.264583;stroke-linejoin:round;-inkscape-stroke:hairline"
         d="m 127,467.8124 v -335"
         id="path28"
         sodipodi:nodetypes="cc" />
    </g>
  </g>
  <g
     inkscape:groupmode="layer"
     id="layer3"
     inkscape:label="Cut Boards - V"
     style="display:none">
    <rect
       style="vector-effect:non-scaling-stroke;fill:none;stroke:#000000;stroke-width:0.29313;stroke-linejoin:round;stroke-opacity:1;-inkscape-stroke:hairline"
       id="rect104"
       width="175"
       height="330"
       x="349.24948"
       y="137.7"
       rx="7.5"
       ry="5.5018339" />
    <path
       id="path1-0"
       style="vector-effect:non-scaling-stroke;fill:none;stroke:#000000;stroke-width:0.259021;-inkscape-stroke:hairline"
       d="m 388.70022,150.19996 4.85014,10.00024 v 284.99993 l -4.85014,9.99957 4.85014,3.3e-4 h 0.29972 3.8502 l -3.8502,-9.9999 V 160.2002 l 4.85007,-9.99991 h -4.85007 -0.29972 z"
       inkscape:label="path3581"
       sodipodi:nodetypes="ccccccccccccc" />
    <path
       id="path30"
       style="vector-effect:non-scaling-stroke;fill:none;stroke:#000000;stroke-width:0.259021;-inkscape-stroke:hairline"
       d="m 401.40022,150.19996 4.85015,10.00024 v 284.99993 l -4.85015,9.99957 4.85015,3.3e-4 h 0.29972 3.8502 l -3.8502,-9.9999 V 160.2002 l 4.85007,-9.99991 h -4.85007 -0.29972 z"
       inkscape:label="path3581"
       sodipodi:nodetypes="ccccccccccccc" />
    <path
       id="path31"
       style="vector-effect:non-scaling-stroke;fill:none;stroke:#000000;stroke-width:0.259021;-inkscape-stroke:hairline"
       d="m 433.15024,150.19996 4.85015,10.00024 v 284.99993 l -4.85015,9.99957 4.85015,3.3e-4 h 0.29972 3.8502 l -3.8502,-9.9999 V 160.2002 l 4.85007,-9.99991 h -4.85007 -0.29972 z"
       inkscape:label="path3581"
       sodipodi:nodetypes="ccccccccccccc" />
    <path
       id="path32"
       style="vector-effect:non-scaling-stroke;fill:none;stroke:#000000;stroke-width:0.259021;-inkscape-stroke:hairline"
       d="m 471.25026,150.19996 4.85014,10.00024 v 284.99993 l -4.85014,9.99957 4.85014,3.3e-4 h 0.29972 3.85019 l -3.85019,-9.9999 V 160.2002 l 4.85006,-9.99991 h -4.85006 -0.29972 z"
       inkscape:label="path3581"
       sodipodi:nodetypes="ccccccccccccc" />
  </g>
  <g
     inkscape:groupmode="layer"
     id="g41"
     inkscape:label="Cut Boards - H"
     style="display:none">
    <path
       id="rect37"
       style="vector-effect:non-scaling-stroke;fill:none;stroke:#000000;stroke-width:0.29313;stroke-linejoin:round;stroke-opacity:1;-inkscape-stroke:hairline"
       d="m -283.54238,220.2 c -4.155,0 -7.4998,2.45397 -7.4998,5.50199 v 75.87805 l 5.1e-4,5.2e-4 1.99988,0.96996 h 143.00006 l 9.9999,-4.85035 v 4.85035 0.29973 4.84983 l -9.9999,-4.84983 h -143.00006 l -1.99988,0.76998 -5.1e-4,5.1e-4 v 76.07753 c 0,3.04802 3.3448,5.50147 7.4998,5.50147 h 160.00005 c 4.155,0 7.50032,-2.45345 7.50032,-5.50147 V 225.70199 c 0,-3.04802 -3.34532,-5.50199 -7.50032,-5.50199 z" />
  </g>
  <g
     inkscape:groupmode="layer"
     id="layer5"
     inkscape:label="Cut Boards - C">
    <rect
       style="display:inline;vector-effect:non-scaling-stroke;fill:none;stroke:#000000;stroke-width:0.270039;stroke-linejoin:round;-inkscape-stroke:hairline"
       id="rect113"
       width="150"
       height="150"
       x="0"
       y="317.79999"
       rx="5"
       ry="5" />
    <rect
       style="display:inline;vector-effect:non-scaling-stroke;fill:none;stroke:#000000;stroke-width:0.343682;stroke-linejoin:round;stroke-opacity:1;-inkscape-stroke:hairline"
       id="rect114"
       width="63.5"
       height="150"
       x="270.72894"
       y="317.94492"
       rx="5"
       ry="5" />
    <g
       id="g125">
      <path
         id="rect115"
         style="vector-effect:non-scaling-stroke;fill:none;stroke:#000000;stroke-width:0.264583;stroke-linejoin:round;stroke-opacity:1;-inkscape-stroke:hairline"
         d="m 63.5,435.24996 c -1.046322,9e-5 -1.91573,0.80664 -1.994194,1.85002 H 0 v 0.30024 h 61.505806 c 0.07847,1.04337 0.947876,1.84992 1.994194,1.85001 1.046318,-9e-5 1.915725,-0.80664 1.994194,-1.85001 h 15.089001 v -0.30024 H 65.494194 C 65.41573,436.0566 64.546322,435.25005 63.5,435.24996 Z"
         sodipodi:nodetypes="ccccccccccc" />
      <path
         id="path116"
         style="vector-effect:non-scaling-stroke;fill:none;stroke:#000000;stroke-width:0.264583;stroke-linejoin:round;stroke-opacity:1;-inkscape-stroke:hairline"
         d="m 63.5,346.34975 c -1.046322,9e-5 -1.91573,0.80664 -1.994194,1.85002 H 0 v 0.30024 h 61.505806 c 0.07847,1.04337 0.947876,1.84992 1.994194,1.85001 1.046318,-9e-5 1.915725,-0.80664 1.994194,-1.85001 h 15.089001 v -0.30024 H 65.494194 C 65.41573,347.15639 64.546322,346.34984 63.5,346.34975 Z"
         sodipodi:nodetypes="ccccccccccc" />
    </g>
    <g
       id="g123">
      <path
         id="path117"
         style="vector-effect:non-scaling-stroke;fill:none;stroke:#000000;stroke-width:0.264583;stroke-linejoin:round;stroke-opacity:1;-inkscape-stroke:hairline"
         d="m 88.900166,359.05241 c -1.046322,9e-5 -1.91573,0.80664 -1.994194,1.85002 H 0 v 0.30024 h 86.905972 c 0.07847,1.04337 0.947876,1.84992 1.994194,1.85001 1.046319,-9e-5 1.915726,-0.80664 1.994194,-1.85001 h 15.089 v -0.30024 h -15.089 c -0.07846,-1.04338 -0.947872,-1.84993 -1.994194,-1.85002 z"
         sodipodi:nodetypes="ccccccccccc" />
      <path
         id="path118"
         style="vector-effect:non-scaling-stroke;fill:none;stroke:#000000;stroke-width:0.264583;stroke-linejoin:round;stroke-opacity:1;-inkscape-stroke:hairline"
         d="m 88.900166,422.54729 c -1.046322,9e-5 -1.91573,0.80664 -1.994194,1.85002 H 0 v 0.30024 h 86.905972 c 0.07847,1.04337 0.947876,1.84992 1.994194,1.85001 1.046318,-9e-5 1.915725,-0.80664 1.994194,-1.85001 h 15.089 v -0.30024 h -15.089 c -0.07846,-1.04338 -0.947872,-1.84993 -1.994194,-1.85002 z"
         sodipodi:nodetypes="ccccccccccc" />
    </g>
    <g
       id="text123"
       style="font-weight:bold;font-size:4.23333px;font-family:Arial;-inkscape-font-specification:'Arial, Bold';text-align:center;letter-spacing:-0.632354px;text-anchor:middle;fill:#0000ff;stroke-width:0.264583;stroke-linejoin:round"
       transform="rotate(-90)"
       aria-label="┣ ━ ━━━ ━   2,5&quot;   ━ ━ ━━━ ┥">
      <path
         d="m -421.4418,83.743226 v -4.23333 h 0.40721 v 1.912026 h 1.9141 v 0.409277 h -1.9141 v 1.912027 z m 2.39605,-1.912027 v -0.409277 h 4.23333 v 0.409277 z m 4.30807,0 v -0.409277 h 4.23333 v 0.409277 z m 3.60098,0 v -0.409277 h 4.23333 v 0.409277 z m 3.60097,0 v -0.409277 h 4.23333 v 0.409277 z m 4.30808,0 v -0.409277 h 4.23333 v 0.409277 z"
         id="path37" />
      <path
         style="letter-spacing:0px"
         d="m -394.89486,82.310756 v 0.539502 h -2.03605 q 0.0331,-0.305924 0.19844,-0.578776 0.16537,-0.274918 0.65319,-0.727603 0.39274,-0.365869 0.48163,-0.496094 0.11988,-0.179833 0.11988,-0.355533 0,-0.194303 -0.10542,-0.297656 -0.10335,-0.10542 -0.28732,-0.10542 -0.1819,0 -0.28938,0.109554 -0.10749,0.109554 -0.12403,0.363802 l -0.57877,-0.05788 q 0.0517,-0.479557 0.32453,-0.688329 0.27285,-0.208773 0.68212,-0.208773 0.44855,0 0.70487,0.241846 0.25631,0.241845 0.25631,0.601513 0,0.204638 -0.0744,0.390673 -0.0724,0.183968 -0.23151,0.38654 -0.10542,0.134358 -0.38034,0.386539 -0.27492,0.252181 -0.34933,0.334863 -0.0723,0.08268 -0.11782,0.16123 z m 0.5023,-0.04134 h 0.58084 v 0.415478 q 0,0.252181 -0.0434,0.396875 -0.0434,0.146761 -0.16536,0.262516 -0.11989,0.115755 -0.30593,0.181901 l -0.11368,-0.239778 q 0.1757,-0.05788 0.25011,-0.159164 0.0744,-0.101285 0.0786,-0.276985 h -0.28112 z m 1.07487,-0.198437 0.57877,-0.05994 q 0.0248,0.196371 0.14676,0.312126 0.12196,0.113688 0.28112,0.113688 0.1819,0 0.308,-0.146761 0.12609,-0.148828 0.12609,-0.446484 0,-0.279053 -0.12609,-0.417545 -0.12403,-0.14056 -0.32453,-0.14056 -0.25012,0 -0.44855,0.221175 l -0.47129,-0.06821 0.29765,-1.577163 h 1.53583 v 0.543635 h -1.09554 l -0.0909,0.514697 q 0.1943,-0.09715 0.39687,-0.09715 0.38654,0 0.65526,0.28112 0.26871,0.281119 0.26871,0.729671 0,0.374137 -0.21704,0.667658 -0.29559,0.401009 -0.82062,0.401009 -0.41961,0 -0.68419,-0.225309 -0.26459,-0.225309 -0.31626,-0.605647 z m 2.50734,-1.174088 -0.10956,-0.564306 v -0.51263 h 0.63252 v 0.51263 l -0.0951,0.564306 z m 0.93224,0 -0.10955,-0.564306 v -0.51263 h 0.63251 v 0.51263 l -0.0951,0.564306 z"
         id="path38" />
      <path
         d="m -386.55395,81.831199 v -0.409277 h 4.23332 v 0.409277 z m 4.30807,0 v -0.409277 h 4.23333 v 0.409277 z m 4.30807,0 v -0.409277 h 4.23333 v 0.409277 z m 3.60098,0 v -0.409277 h 4.23333 v 0.409277 z m 3.60097,0 v -0.409277 h 4.23333 v 0.409277 z m 4.30808,0 v -0.409277 h 1.9637 v -1.912026 h 0.30592 v 4.23333 h -0.30592 v -1.912027 z"
         id="path39" />
    </g>
    <g
       id="text125"
       style="font-weight:bold;font-size:4.23333px;font-family:Arial;-inkscape-font-specification:'Arial, Bold';text-align:center;letter-spacing:-0.632354px;text-anchor:middle;fill:#0000ff;stroke-width:0.264583;stroke-linejoin:round"
       transform="rotate(-90)"
       aria-label="┣━ ━━━━━━━━   3,5&quot;   ━ ━━━━━━━━ ┥">
      <path
         d="m -434.78505,58.343224 v -4.233329 h 0.40721 v 1.912026 h 1.91409 v 0.409277 h -1.91409 v 1.912026 z m 1.68895,-1.912026 v -0.409277 h 4.23333 v 0.409277 z m 4.30807,0 v -0.409277 h 4.23333 v 0.409277 z m 3.60097,0 v -0.409277 h 4.23333 v 0.409277 z m 3.60098,0 v -0.409277 h 4.23333 v 0.409277 z m 3.60098,0 v -0.409277 h 4.23333 v 0.409277 z m 3.60097,0 v -0.409277 h 4.23333 v 0.409277 z m 3.60098,0 v -0.409277 h 4.23333 v 0.409277 z m 3.60097,0 v -0.409277 h 4.23333 v 0.409277 z m 3.60098,0 v -0.409277 h 4.23333 v 0.409277 z"
         id="path34" />
      <path
         style="letter-spacing:0px"
         d="m -397.23071,56.646172 0.56224,-0.06821 q 0.0269,0.214974 0.14469,0.328662 0.11782,0.113688 0.28525,0.113688 0.17984,0 0.30179,-0.136426 0.12403,-0.136426 0.12403,-0.367936 0,-0.219108 -0.11782,-0.347265 -0.11783,-0.128158 -0.28732,-0.128158 -0.11163,0 -0.26665,0.04341 l 0.0641,-0.473356 q 0.23565,0.0062 0.35967,-0.101286 0.12402,-0.109554 0.12402,-0.289388 0,-0.152962 -0.091,-0.243912 -0.091,-0.09095 -0.24184,-0.09095 -0.14883,0 -0.25425,0.103353 -0.10542,0.103353 -0.12816,0.30179 l -0.53536,-0.09095 q 0.0558,-0.274919 0.16743,-0.438216 0.11369,-0.165364 0.31419,-0.258382 0.20257,-0.09508 0.45269,-0.09508 0.42788,0 0.68626,0.272851 0.2129,0.223242 0.2129,0.504361 0,0.398942 -0.43614,0.636654 0.26044,0.05581 0.41547,0.250113 0.1571,0.194304 0.1571,0.469222 0,0.398942 -0.29145,0.680061 -0.29146,0.28112 -0.72554,0.28112 -0.41135,0 -0.68213,-0.235645 -0.27078,-0.237711 -0.31419,-0.620116 z m 2.4846,0.223242 h 0.58084 v 0.415478 q 0,0.252181 -0.0434,0.396875 -0.0434,0.146761 -0.16536,0.262516 -0.11989,0.115755 -0.30592,0.181901 l -0.11369,-0.239779 q 0.1757,-0.05788 0.25011,-0.159163 0.0744,-0.101286 0.0786,-0.276986 h -0.28112 z m 1.07487,-0.198438 0.57878,-0.05994 q 0.0248,0.19637 0.14676,0.312125 0.12195,0.113688 0.28112,0.113688 0.1819,0 0.30799,-0.146761 0.12609,-0.148828 0.12609,-0.446484 0,-0.279052 -0.12609,-0.417545 -0.12403,-0.14056 -0.32453,-0.14056 -0.25011,0 -0.44855,0.221175 l -0.47129,-0.06821 0.29766,-1.577163 h 1.53582 v 0.543636 h -1.09554 l -0.091,0.514696 q 0.1943,-0.09715 0.39687,-0.09715 0.38654,0 0.65526,0.281119 0.26872,0.28112 0.26872,0.729671 0,0.374137 -0.21704,0.667659 -0.29559,0.401009 -0.82063,0.401009 -0.41961,0 -0.68419,-0.225309 -0.26458,-0.225309 -0.31626,-0.605648 z m 2.50734,-1.174087 -0.10956,-0.564306 v -0.51263 h 0.63252 v 0.51263 l -0.0951,0.564306 z m 0.93224,0 -0.10956,-0.564306 v -0.51263 h 0.63252 v 0.51263 l -0.0951,0.564306 z"
         id="path35" />
      <path
         d="m -386.90751,56.431198 v -0.409277 h 4.23333 v 0.409277 z m 4.30808,0 v -0.409277 h 4.23333 v 0.409277 z m 3.60097,0 v -0.409277 h 4.23333 v 0.409277 z m 3.60098,0 v -0.409277 h 4.23333 v 0.409277 z m 3.60097,0 v -0.409277 h 4.23333 v 0.409277 z m 3.60098,0 v -0.409277 h 4.23333 v 0.409277 z m 3.60097,0 v -0.409277 h 4.23333 v 0.409277 z m 3.60099,0 v -0.409277 h 4.23333 v 0.409277 z m 3.60097,0 v -0.409277 h 4.23333 v 0.409277 z m 4.30807,0 v -0.409277 h 1.9637 v -1.912026 h 0.30593 v 4.233329 h -0.30593 v -1.912026 z"
         id="path36" />
    </g>
    <rect
       style="display:inline;vector-effect:non-scaling-stroke;fill:none;stroke:#000000;stroke-width:0.203689;stroke-linejoin:round;stroke-opacity:1;-inkscape-stroke:hairline"
       id="rect117"
       width="150"
       height="88.900002"
       x="317.94492"
       y="-250.28983"
       transform="rotate(90)"
       rx="5"
       ry="2.9633334" />
    <path
       id="path119"
       style="vector-effect:non-scaling-stroke;fill:none;stroke:#000000;stroke-width:0.264583;stroke-linejoin:round;stroke-opacity:1;-inkscape-stroke:hairline"
       d="m 224.44987,327.80008 v 18.55546 a 2,2 0 0 0 -1.8495,1.99419 2,2 0 0 0 1.8495,1.99471 v 84.9111 a 2,2 0 0 0 -1.8495,1.99471 2,2 0 0 0 1.8495,1.99419 v 18.55546 h 0.30024 v -18.55546 a 2,2 0 0 0 1.85001,-1.99419 2,2 0 0 0 -1.85001,-1.99471 v -84.9111 a 2,2 0 0 0 1.85001,-1.99471 2,2 0 0 0 -1.85001,-1.99419 v -18.55546 z" />
    <g
       id="text120"
       style="font-weight:bold;font-size:4.23333px;font-family:Arial;-inkscape-font-specification:'Arial, Bold';text-align:center;letter-spacing:-0.632354px;text-anchor:middle;fill:#0000ff;stroke-width:0.264583;stroke-linejoin:round"
       aria-label="┣ ━ ━━━ ━   2,5&quot;   ━ ━ ━━━ ┥">
      <path
         d="m 165.10001,394.91665 v -4.23333 h 0.40721 v 1.91203 h 1.91409 v 0.40927 h -1.91409 v 1.91203 z m 2.39605,-1.91203 v -0.40927 h 4.23333 v 0.40927 z m 4.30807,0 v -0.40927 h 4.23333 v 0.40927 z m 3.60098,0 v -0.40927 h 4.23333 v 0.40927 z m 3.60097,0 v -0.40927 h 4.23333 v 0.40927 z m 4.30808,0 v -0.40927 h 4.23333 v 0.40927 z"
         id="path40" />
      <path
         style="letter-spacing:0px"
         d="m 191.64695,393.48418 v 0.5395 h -2.03605 q 0.0331,-0.30592 0.19844,-0.57877 0.16537,-0.27492 0.65319,-0.72761 0.39274,-0.36587 0.48162,-0.49609 0.11989,-0.17983 0.11989,-0.35553 0,-0.19431 -0.10542,-0.29766 -0.10335,-0.10542 -0.28732,-0.10542 -0.1819,0 -0.28938,0.10955 -0.10749,0.10956 -0.12403,0.36381 l -0.57877,-0.0579 q 0.0517,-0.47956 0.32452,-0.68833 0.27286,-0.20877 0.68213,-0.20877 0.44855,0 0.70487,0.24184 0.25631,0.24185 0.25631,0.60151 0,0.20464 -0.0744,0.39068 -0.0724,0.18397 -0.23151,0.38654 -0.10542,0.13436 -0.38034,0.38654 -0.27492,0.25218 -0.34933,0.33486 -0.0724,0.0827 -0.11782,0.16123 z m 0.5023,-0.0413 h 0.58084 v 0.41548 q 0,0.25218 -0.0434,0.39687 -0.0434,0.14676 -0.16536,0.26252 -0.11989,0.11575 -0.30593,0.1819 l -0.11368,-0.23978 q 0.17569,-0.0579 0.25011,-0.15916 0.0744,-0.10129 0.0786,-0.27699 h -0.28112 z m 1.07487,-0.19844 0.57877,-0.0599 q 0.0248,0.19637 0.14676,0.31212 0.12196,0.11369 0.28112,0.11369 0.1819,0 0.30799,-0.14676 0.12609,-0.14883 0.12609,-0.44648 0,-0.27906 -0.12609,-0.41755 -0.12402,-0.14056 -0.32452,-0.14056 -0.25012,0 -0.44855,0.22118 l -0.47129,-0.0682 0.29765,-1.57716 h 1.53582 v 0.54363 h -1.09553 l -0.0909,0.5147 q 0.1943,-0.0971 0.39687,-0.0971 0.38654,0 0.65526,0.28112 0.26871,0.28112 0.26871,0.72967 0,0.37414 -0.21704,0.66766 -0.29559,0.40101 -0.82062,0.40101 -0.41961,0 -0.68419,-0.22531 -0.26459,-0.22531 -0.31626,-0.60565 z m 2.50734,-1.17409 -0.10956,-0.5643 v -0.51263 h 0.63252 v 0.51263 l -0.0951,0.5643 z m 0.93224,0 -0.10956,-0.5643 v -0.51263 h 0.63252 v 0.51263 l -0.0951,0.5643 z"
         id="path41" />
      <path
         d="m 199.98785,393.00462 v -0.40927 h 4.23333 v 0.40927 z m 4.30808,0 v -0.40927 h 4.23333 v 0.40927 z m 4.30807,0 v -0.40927 h 4.23333 v 0.40927 z m 3.60098,0 v -0.40927 h 4.23333 v 0.40927 z m 3.60097,0 v -0.40927 h 4.23333 v 0.40927 z m 4.30808,0 v -0.40927 h 1.9637 v -1.91203 h 0.30592 v 4.23333 h -0.30592 v -1.91203 z"
         id="path42" />
    </g>
    <g
       id="text127"
       style="font-weight:bold;font-size:4.23333px;font-family:Arial;-inkscape-font-specification:'Arial, Bold';text-align:center;letter-spacing:-0.632354px;text-anchor:middle;fill:#0000ff;stroke-width:0.264583;stroke-linejoin:round"
       transform="rotate(-90)"
       aria-label="┣━ ━━━━━━━━━   3,5&quot;   ━ ━━━━━━━━━┥">
      <path
         d="m -438.03248,233.09994 v -4.23333 h 0.40721 v 1.91202 h 1.91409 v 0.40928 h -1.91409 v 1.91203 z m 1.68895,-1.91203 v -0.40928 h 4.23333 v 0.40928 z m 4.30807,0 v -0.40928 h 4.23333 v 0.40928 z m 3.60098,0 v -0.40928 h 4.23333 v 0.40928 z m 3.60097,0 v -0.40928 h 4.23333 v 0.40928 z m 3.60098,0 v -0.40928 h 4.23333 v 0.40928 z m 3.60097,0 v -0.40928 h 4.23333 v 0.40928 z m 3.60098,0 v -0.40928 h 4.23333 v 0.40928 z m 3.60098,0 v -0.40928 h 4.23333 v 0.40928 z m 3.60097,0 v -0.40928 h 4.23333 v 0.40928 z m 3.60098,0 v -0.40928 h 4.23333 v 0.40928 z"
         id="path43" />
      <path
         style="letter-spacing:0px"
         d="m -396.87716,231.40289 0.56224,-0.0682 q 0.0269,0.21498 0.14469,0.32866 0.11782,0.11369 0.28525,0.11369 0.17984,0 0.30179,-0.13642 0.12403,-0.13643 0.12403,-0.36794 0,-0.21911 -0.11783,-0.34726 -0.11782,-0.12816 -0.28732,-0.12816 -0.11162,0 -0.26665,0.0434 l 0.0641,-0.47336 q 0.23565,0.006 0.35967,-0.10128 0.12402,-0.10956 0.12402,-0.28939 0,-0.15296 -0.091,-0.24392 -0.0909,-0.0909 -0.24184,-0.0909 -0.14883,0 -0.25425,0.10336 -0.10542,0.10335 -0.12816,0.30179 l -0.53537,-0.0909 q 0.0558,-0.27492 0.16744,-0.43822 0.11368,-0.16536 0.31419,-0.25838 0.20257,-0.0951 0.45268,-0.0951 0.42788,0 0.68627,0.27286 0.2129,0.22324 0.2129,0.50436 0,0.39894 -0.43615,0.63665 0.26045,0.0558 0.41548,0.25011 0.1571,0.19431 0.1571,0.46923 0,0.39894 -0.29146,0.68006 -0.29145,0.28112 -0.72553,0.28112 -0.41135,0 -0.68213,-0.23565 -0.27079,-0.23771 -0.31419,-0.62011 z m 2.4846,0.22324 h 0.58084 v 0.41548 q 0,0.25218 -0.0434,0.39687 -0.0434,0.14676 -0.16536,0.26252 -0.11989,0.11575 -0.30593,0.1819 l -0.11368,-0.23978 q 0.1757,-0.0579 0.25011,-0.15916 0.0744,-0.10129 0.0786,-0.27699 h -0.28112 z m 1.07487,-0.19844 0.57877,-0.0599 q 0.0248,0.19637 0.14676,0.31212 0.12196,0.11369 0.28112,0.11369 0.1819,0 0.308,-0.14676 0.12609,-0.14883 0.12609,-0.44649 0,-0.27905 -0.12609,-0.41754 -0.12403,-0.14056 -0.32453,-0.14056 -0.25012,0 -0.44855,0.22117 l -0.47129,-0.0682 0.29765,-1.57716 h 1.53583 v 0.54363 h -1.09554 l -0.0909,0.5147 q 0.1943,-0.0971 0.39687,-0.0971 0.38654,0 0.65526,0.28112 0.26871,0.28112 0.26871,0.72967 0,0.37414 -0.21704,0.66766 -0.29559,0.40101 -0.82062,0.40101 -0.41961,0 -0.68419,-0.22531 -0.26459,-0.22531 -0.31626,-0.60565 z m 2.50734,-1.17409 -0.10956,-0.5643 v -0.51263 h 0.63252 v 0.51263 l -0.0951,0.5643 z m 0.93224,0 -0.10955,-0.5643 v -0.51263 h 0.63251 v 0.51263 l -0.0951,0.5643 z"
         id="path44" />
      <path
         d="m -386.55396,231.18791 v -0.40928 h 4.23333 v 0.40928 z m 4.30808,0 v -0.40928 h 4.23333 v 0.40928 z m 3.60097,0 v -0.40928 h 4.23333 v 0.40928 z m 3.60098,0 v -0.40928 h 4.23333 v 0.40928 z m 3.60097,0 v -0.40928 h 4.23333 v 0.40928 z m 3.60098,0 v -0.40928 h 4.23333 v 0.40928 z m 3.60098,0 v -0.40928 h 4.23333 v 0.40928 z m 3.60097,0 v -0.40928 h 4.23333 v 0.40928 z m 3.60098,0 v -0.40928 h 4.23333 v 0.40928 z m 3.60097,0 v -0.40928 h 4.23333 v 0.40928 z m 3.60098,0 v -0.40928 h 1.9637 v -1.91202 h 0.30593 v 4.23333 h -0.30593 v -1.91203 z"
         id="path45" />
    </g>
    <g
       id="text128"
       style="font-weight:bold;font-size:4.23333px;font-family:Arial;-inkscape-font-specification:'Arial, Bold';text-align:center;letter-spacing:0px;text-anchor:middle;fill:#0000ff;stroke-width:0.264583;stroke-linejoin:round"
       aria-label="Poker Size Card Template&#10;2.5&quot; x 3.5&quot; (63.5 x 88.9 mm)">
      <path
         style="font-size:6.35px"
         d="m 36.588389,330.383 v -4.54546 h 1.472778 q 0.837158,0 1.091406,0.0682 0.390674,0.10232 0.654224,0.44648 0.26355,0.34107 0.26355,0.88367 0,0.41858 -0.151929,0.70383 -0.151929,0.28526 -0.387573,0.44959 -0.232544,0.16123 -0.47439,0.21394 -0.328662,0.0651 -0.95188,0.0651 h -0.598413 v 1.71463 z m 0.917773,-3.77652 v 1.28985 h 0.502295 q 0.542603,0 0.725537,-0.0713 0.182935,-0.0713 0.285254,-0.22324 0.10542,-0.15193 0.10542,-0.35347 0,-0.24804 -0.145728,-0.40927 -0.145727,-0.16123 -0.368969,-0.20154 -0.164331,-0.031 -0.660425,-0.031 z m 3.109888,2.0836 q 0,-0.43409 0.21394,-0.84026 0.21394,-0.40618 0.604614,-0.62012 0.393775,-0.21394 0.877466,-0.21394 0.747241,0 1.224731,0.48679 0.477491,0.48369 0.477491,1.22473 0,0.74724 -0.483692,1.24024 -0.48059,0.48989 -1.212329,0.48989 -0.452685,0 -0.865063,-0.20464 -0.409278,-0.20464 -0.623218,-0.59841 -0.21394,-0.39688 -0.21394,-0.96428 z m 0.892968,0.0465 q 0,0.4899 0.232544,0.75035 0.232544,0.26045 0.573609,0.26045 0.341064,0 0.570507,-0.26045 0.232544,-0.26045 0.232544,-0.75655 0,-0.48369 -0.232544,-0.74414 -0.229443,-0.26045 -0.570507,-0.26045 -0.341065,0 -0.573609,0.26045 -0.232544,0.26045 -0.232544,0.75034 z m 3.156397,1.64642 v -4.54546 h 0.871264 v 2.41225 l 1.020093,-1.15962 h 1.072803 l -1.125513,1.20303 1.206128,2.0898 h -0.939478 l -0.827856,-1.47898 -0.406177,0.42478 v 1.0542 z m 5.469433,-1.048 0.868164,0.14573 q -0.167431,0.47749 -0.5302,0.72863 -0.359668,0.24805 -0.90227,0.24805 -0.858863,0 -1.27124,-0.56121 -0.325562,-0.44958 -0.325562,-1.13481 0,-0.81856 0.427881,-1.28054 0.427881,-0.46509 1.082104,-0.46509 0.734839,0 1.159619,0.48679 0.424781,0.48369 0.406177,1.48518 h -2.182812 q 0.0093,0.38758 0.21084,0.60462 0.201538,0.21394 0.502295,0.21394 0.204638,0 0.344165,-0.11162 0.139526,-0.11163 0.210839,-0.35967 z m 0.04961,-0.88057 q -0.0093,-0.37827 -0.195337,-0.57361 -0.186035,-0.19843 -0.452686,-0.19843 -0.285254,0 -0.471289,0.20773 -0.186035,0.20774 -0.182934,0.56431 z m 2.409155,1.92857 h -0.871264 v -3.29283 h 0.809253 v 0.46819 q 0.207739,-0.33176 0.37207,-0.43718 0.167431,-0.10542 0.378271,-0.10542 0.297657,0 0.573609,0.16433 l -0.269751,0.75964 q -0.220142,-0.14262 -0.409278,-0.14262 -0.182934,0 -0.310058,0.10232 -0.127124,0.0992 -0.201538,0.36276 -0.07131,0.26355 -0.07131,1.10381 z m 3.174999,-1.47898 0.892969,-0.0868 q 0.08062,0.44958 0.325561,0.66042 0.248047,0.21084 0.666626,0.21084 0.443384,0 0.666626,-0.18603 0.226343,-0.18914 0.226343,-0.44028 0,-0.16123 -0.09612,-0.27286 -0.09302,-0.11472 -0.328662,-0.19843 -0.161231,-0.0558 -0.734839,-0.19844 -0.73794,-0.18294 -1.035596,-0.44959 -0.418579,-0.37517 -0.418579,-0.91467 0,-0.34726 0.195337,-0.64802 0.198438,-0.30386 0.567407,-0.46199 0.372071,-0.15813 0.89607,-0.15813 0.855761,0 1.286743,0.37517 0.434082,0.37517 0.455786,1.00149 l -0.917774,0.0403 q -0.05891,-0.35037 -0.254248,-0.5023 -0.192236,-0.15502 -0.579809,-0.15502 -0.399976,0 -0.626318,0.16433 -0.145728,0.10542 -0.145728,0.28215 0,0.16123 0.136426,0.27595 0.173633,0.14573 0.843359,0.30386 0.669727,0.15813 0.989087,0.32866 0.322461,0.16743 0.502295,0.46199 0.182934,0.29145 0.182934,0.72244 0,0.39067 -0.217041,0.73173 -0.217041,0.34107 -0.613916,0.5085 -0.396875,0.16433 -0.989086,0.16433 -0.861963,0 -1.323951,-0.39687 -0.461987,-0.39998 -0.551904,-1.16272 z m 4.461744,-2.26033 v -0.80615 h 0.871265 v 0.80615 z m 0,3.73931 v -3.29283 h 0.871265 v 3.29283 z m 1.413866,0 v -0.67903 l 1.234034,-1.41697 q 0.303857,-0.34727 0.449585,-0.49299 -0.151929,0.009 -0.399976,0.0124 l -1.16272,0.006 v -0.72244 h 2.722315 v 0.61702 l -1.258838,1.45107 -0.443384,0.48059 q 0.362769,-0.0217 0.449585,-0.0217 h 1.348755 v 0.76585 z m 5.432228,-1.048 0.868164,0.14573 q -0.167431,0.47749 -0.5302,0.72863 -0.359668,0.24805 -0.902271,0.24805 -0.858862,0 -1.27124,-0.56121 -0.325561,-0.44958 -0.325561,-1.13481 0,-0.81856 0.427881,-1.28054 0.42788,-0.46509 1.082104,-0.46509 0.734839,0 1.159619,0.48679 0.42478,0.48369 0.406177,1.48518 h -2.182812 q 0.0093,0.38758 0.210839,0.60462 0.201538,0.21394 0.502295,0.21394 0.204639,0 0.344165,-0.11162 0.139527,-0.11163 0.21084,-0.35967 z m 0.04961,-0.88057 q -0.0093,-0.37827 -0.195337,-0.57361 -0.186036,-0.19843 -0.452686,-0.19843 -0.285254,0 -0.471289,0.20773 -0.186035,0.20774 -0.182935,0.56431 z m 6.25388,0.25735 0.889868,0.28215 q -0.204639,0.74414 -0.682129,1.10691 -0.47439,0.35967 -1.206128,0.35967 -0.905371,0 -1.488281,-0.61702 -0.58291,-0.62011 -0.58291,-1.69292 0,-1.13481 0.586011,-1.76113 0.58601,-0.62942 1.540991,-0.62942 0.834057,0 1.354956,0.493 0.310058,0.29145 0.465088,0.83715 l -0.908472,0.21704 q -0.08061,-0.35346 -0.337964,-0.5581 -0.254248,-0.20464 -0.620117,-0.20464 -0.505396,0 -0.821655,0.36277 -0.31316,0.36277 -0.31316,1.17512 0,0.86196 0.310059,1.22783 0.310059,0.36587 0.806152,0.36587 0.36587,0 0.629419,-0.23254 0.26355,-0.23255 0.378272,-0.73174 z m 2.322338,-0.61702 -0.790649,-0.14262 q 0.133325,-0.47749 0.458886,-0.70694 0.325562,-0.22944 0.967383,-0.22944 0.58291,0 0.868164,0.13953 0.285254,0.13642 0.399976,0.35036 0.117822,0.21084 0.117822,0.77825 l -0.0093,1.01699 q 0,0.43408 0.04031,0.64182 0.04341,0.20464 0.15813,0.44029 h -0.861963 q -0.03411,-0.0868 -0.08372,-0.25735 -0.0217,-0.0775 -0.03101,-0.10232 -0.223242,0.21704 -0.47749,0.32556 -0.254248,0.10852 -0.542603,0.10852 -0.508496,0 -0.803051,-0.27595 -0.291455,-0.27595 -0.291455,-0.69763 0,-0.27906 0.133325,-0.4961 0.133325,-0.22014 0.37207,-0.33486 0.241846,-0.11782 0.694531,-0.20464 0.610816,-0.11472 0.84646,-0.21394 v -0.0868 q 0,-0.25114 -0.124023,-0.35656 -0.124024,-0.10852 -0.468189,-0.10852 -0.232544,0 -0.362768,0.093 -0.130225,0.0899 -0.21084,0.31936 z m 1.16582,0.70694 q -0.167431,0.0558 -0.5302,0.13332 -0.362769,0.0775 -0.47439,0.15193 -0.170532,0.12092 -0.170532,0.30696 0,0.18293 0.136426,0.31626 0.136426,0.13332 0.347266,0.13332 0.235644,0 0.449585,-0.15503 0.158129,-0.11782 0.207739,-0.28835 0.03411,-0.11162 0.03411,-0.42478 z m 2.548681,1.5813 h -0.871265 v -3.29283 h 0.809253 v 0.46819 q 0.20774,-0.33176 0.372071,-0.43718 0.167431,-0.10542 0.378271,-0.10542 0.297656,0 0.573609,0.16433 l -0.269751,0.75964 q -0.220142,-0.14262 -0.409278,-0.14262 -0.182934,0 -0.310058,0.10232 -0.127124,0.0992 -0.201538,0.36276 -0.07131,0.26355 -0.07131,1.10381 z m 4.657082,0 h -0.809253 v -0.4837 q -0.201538,0.28216 -0.47749,0.42168 -0.272852,0.13643 -0.551905,0.13643 -0.567407,0 -0.973584,-0.45579 -0.403076,-0.45888 -0.403076,-1.27744 0,-0.83716 0.393775,-1.27124 0.393774,-0.43718 0.995288,-0.43718 0.551904,0 0.95498,0.45889 v -1.63711 h 0.871265 z m -2.32544,-1.71773 q 0,0.5271 0.145728,0.76275 0.21084,0.34106 0.589111,0.34106 0.300757,0 0.511597,-0.25425 0.21084,-0.25735 0.21084,-0.76584 0,-0.56741 -0.204639,-0.81546 -0.204639,-0.25114 -0.523999,-0.25114 -0.310059,0 -0.520898,0.24804 -0.20774,0.24495 -0.20774,0.73484 z m 5.97793,1.71773 v -3.77652 h -1.348755 v -0.76894 h 3.612183 v 0.76894 h -1.345655 v 3.77652 z m 4.285009,-1.048 0.868164,0.14573 q -0.167432,0.47749 -0.5302,0.72863 -0.359668,0.24805 -0.902271,0.24805 -0.858862,0 -1.27124,-0.56121 -0.325561,-0.44958 -0.325561,-1.13481 0,-0.81856 0.42788,-1.28054 0.427881,-0.46509 1.082105,-0.46509 0.734839,0 1.159619,0.48679 0.42478,0.48369 0.406177,1.48518 H 90.74322 q 0.0093,0.38758 0.21084,0.60462 0.201538,0.21394 0.502295,0.21394 0.204639,0 0.344165,-0.11162 0.139526,-0.11163 0.21084,-0.35967 z m 0.04961,-0.88057 q -0.0093,-0.37827 -0.195337,-0.57361 -0.186035,-0.19843 -0.452685,-0.19843 -0.285254,0 -0.471289,0.20773 -0.186035,0.20774 -0.182935,0.56431 z m 1.509985,-1.36426 h 0.803052 v 0.44959 q 0.430981,-0.524 1.026294,-0.524 0.316259,0 0.548803,0.13022 0.232544,0.13023 0.381372,0.39378 0.217041,-0.26355 0.468189,-0.39378 0.251147,-0.13022 0.536401,-0.13022 0.362769,0 0.613916,0.14883 0.251148,0.14572 0.375171,0.43098 0.08992,0.21084 0.08992,0.68213 v 2.1053 h -0.871265 v -1.88206 q 0,-0.48989 -0.08992,-0.63252 -0.120922,-0.18603 -0.37207,-0.18603 -0.182934,0 -0.344165,0.11162 -0.16123,0.11162 -0.232544,0.32866 -0.07131,0.21394 -0.07131,0.67903 v 1.5813 H 95.56153 v -1.80455 q 0,-0.48059 -0.04651,-0.62011 -0.04651,-0.13953 -0.145727,-0.20774 -0.09612,-0.0682 -0.26355,-0.0682 -0.201538,0 -0.362769,0.10852 -0.16123,0.10852 -0.232544,0.31315 -0.06821,0.20464 -0.06821,0.67903 v 1.59991 h -0.871265 z m 5.686475,0 h 0.812351 v 0.48369 q 0.15813,-0.24804 0.42788,-0.40307 0.26975,-0.15503 0.59842,-0.15503 0.57361,0 0.97358,0.44958 0.39998,0.44959 0.39998,1.25264 0,0.82476 -0.40308,1.28364 -0.40308,0.45579 -0.97668,0.45579 -0.27286,0 -0.4961,-0.10852 -0.22014,-0.10852 -0.46509,-0.37207 v 1.65881 h -0.871261 z m 0.861961,1.5906 q 0,0.55501 0.22014,0.82166 0.22015,0.26355 0.53641,0.26355 0.30385,0 0.50539,-0.24185 0.20154,-0.24494 0.20154,-0.79995 0,-0.5178 -0.20774,-0.76894 -0.20774,-0.25115 -0.5147,-0.25115 -0.31936,0 -0.5302,0.24805 -0.21084,0.24494 -0.21084,0.72863 z m 3.04168,1.70223 v -4.54546 h 0.87126 v 4.54546 z m 2.41536,-2.28824 -0.79065,-0.14262 q 0.13332,-0.47749 0.45888,-0.70694 0.32557,-0.22944 0.96739,-0.22944 0.58291,0 0.86816,0.13953 0.28526,0.13642 0.39998,0.35036 0.11782,0.21084 0.11782,0.77825 l -0.009,1.01699 q 0,0.43408 0.0403,0.64182 0.0434,0.20464 0.15813,0.44029 h -0.86197 q -0.0341,-0.0868 -0.0837,-0.25735 -0.0217,-0.0775 -0.031,-0.10232 -0.22324,0.21704 -0.47749,0.32556 -0.25425,0.10852 -0.5426,0.10852 -0.5085,0 -0.80305,-0.27595 -0.29146,-0.27595 -0.29146,-0.69763 0,-0.27906 0.13333,-0.4961 0.13332,-0.22014 0.37207,-0.33486 0.24184,-0.11782 0.69453,-0.20464 0.61081,-0.11472 0.84646,-0.21394 v -0.0868 q 0,-0.25114 -0.12403,-0.35656 -0.12402,-0.10852 -0.46818,-0.10852 -0.23255,0 -0.36277,0.093 -0.13023,0.0899 -0.21084,0.31936 z m 1.16582,0.70694 q -0.16743,0.0558 -0.5302,0.13332 -0.36277,0.0775 -0.47439,0.15193 -0.17053,0.12092 -0.17053,0.30696 0,0.18293 0.13642,0.31626 0.13643,0.13332 0.34727,0.13332 0.23564,0 0.44958,-0.15503 0.15813,-0.11782 0.20774,-0.28835 0.0341,-0.11162 0.0341,-0.42478 z m 3.2246,-1.71153 v 0.69453 h -0.59531 v 1.32706 q 0,0.40307 0.0155,0.47128 0.0186,0.0651 0.0775,0.10852 0.062,0.0434 0.14883,0.0434 0.12092,0 0.35036,-0.0837 l 0.0744,0.67593 q -0.30386,0.13022 -0.68833,0.13022 -0.23565,0 -0.42478,-0.0775 -0.18914,-0.0806 -0.27906,-0.20464 -0.0868,-0.12713 -0.12092,-0.34107 -0.0279,-0.15193 -0.0279,-0.61391 v -1.43558 h -0.39997 v -0.69453 h 0.39997 v -0.65422 l 0.87437,-0.5085 v 1.16272 z m 2.51148,2.24483 0.86816,0.14573 q -0.16743,0.47749 -0.5302,0.72863 -0.35967,0.24805 -0.90227,0.24805 -0.85886,0 -1.27124,-0.56121 -0.32556,-0.44958 -0.32556,-1.13481 0,-0.81856 0.42788,-1.28054 0.42788,-0.46509 1.08211,-0.46509 0.73483,0 1.15961,0.48679 0.42478,0.48369 0.40618,1.48518 h -2.18281 q 0.009,0.38758 0.21084,0.60462 0.20154,0.21394 0.50229,0.21394 0.20464,0 0.34417,-0.11162 0.13953,-0.11163 0.21084,-0.35967 z m 0.0496,-0.88057 q -0.009,-0.37827 -0.19534,-0.57361 -0.18603,-0.19843 -0.45268,-0.19843 -0.28526,0 -0.47129,0.20773 -0.18604,0.20774 -0.18294,0.56431 z"
         id="path29" />
      <path
         d="m 49.840313,335.87439 v 0.53951 h -2.036049 q 0.03307,-0.30593 0.198437,-0.57878 0.165364,-0.27492 0.65319,-0.7276 0.39274,-0.36587 0.481624,-0.4961 0.119889,-0.17983 0.119889,-0.35553 0,-0.1943 -0.10542,-0.29766 -0.103353,-0.10542 -0.287321,-0.10542 -0.181901,0 -0.289388,0.10956 -0.107486,0.10955 -0.124023,0.3638 l -0.578775,-0.0579 q 0.05168,-0.47956 0.324527,-0.68833 0.272852,-0.20877 0.682129,-0.20877 0.448551,0 0.704866,0.24185 0.256314,0.24184 0.256314,0.60151 0,0.20464 -0.07441,0.39067 -0.07235,0.18397 -0.23151,0.38654 -0.10542,0.13436 -0.380338,0.38654 -0.274918,0.25218 -0.349332,0.33486 -0.07235,0.0827 -0.117823,0.16123 z m 0.516764,0.53951 v -0.58085 h 0.580843 v 0.58085 z m 1.0604,-0.77928 0.578775,-0.0599 q 0.02481,0.19637 0.146761,0.31213 0.121957,0.11368 0.28112,0.11368 0.181901,0 0.307991,-0.14676 0.126091,-0.14882 0.126091,-0.44648 0,-0.27905 -0.126091,-0.41755 -0.124023,-0.14056 -0.324528,-0.14056 -0.250113,0 -0.448551,0.22118 l -0.471288,-0.0682 0.297656,-1.57717 h 1.535822 v 0.54364 h -1.095539 l -0.09095,0.5147 q 0.194303,-0.0972 0.396875,-0.0972 0.386539,0 0.655256,0.28112 0.268718,0.28112 0.268718,0.72967 0,0.37414 -0.217041,0.66766 -0.295589,0.40101 -0.820621,0.40101 -0.419613,0 -0.684196,-0.22531 -0.264583,-0.22531 -0.316259,-0.60564 z m 2.507338,-1.17409 -0.109554,-0.56431 v -0.51263 h 0.632519 v 0.51263 l -0.09508,0.56431 z m 0.932242,0 -0.109554,-0.56431 v -0.51263 h 0.632519 v 0.51263 l -0.09508,0.56431 z m 1.934764,1.95337 0.791682,-1.13068 -0.758609,-1.06454 h 0.709 l 0.388606,0.60358 0.409277,-0.60358 h 0.682129 l -0.74414,1.03973 0.812353,1.15549 h -0.713135 l -0.446484,-0.68007 -0.450618,0.68007 z m 3.66489,-0.80409 0.562239,-0.0682 q 0.02687,0.21497 0.144694,0.32866 0.117822,0.11369 0.285253,0.11369 0.179834,0 0.30179,-0.13643 0.124024,-0.13642 0.124024,-0.36793 0,-0.21911 -0.117823,-0.34727 -0.117822,-0.12816 -0.28732,-0.12816 -0.111621,0 -0.26665,0.0434 l 0.06408,-0.47335 q 0.235645,0.006 0.359668,-0.10129 0.124023,-0.10955 0.124023,-0.28939 0,-0.15296 -0.09095,-0.24391 -0.09095,-0.091 -0.241846,-0.091 -0.148828,0 -0.254247,0.10335 -0.10542,0.10336 -0.128158,0.30179 l -0.535367,-0.091 q 0.05581,-0.27492 0.167431,-0.43821 0.113688,-0.16537 0.314193,-0.25839 0.202571,-0.0951 0.452685,-0.0951 0.42788,0 0.686262,0.27285 0.212907,0.22324 0.212907,0.50436 0,0.39894 -0.436149,0.63666 0.260449,0.0558 0.415478,0.25011 0.157097,0.1943 0.157097,0.46922 0,0.39894 -0.291455,0.68006 -0.291455,0.28112 -0.725537,0.28112 -0.411344,0 -0.682128,-0.23564 -0.270784,-0.23771 -0.314192,-0.62012 z m 2.49907,0.80409 v -0.58085 h 0.580843 v 0.58085 z m 1.060399,-0.77928 0.578776,-0.0599 q 0.0248,0.19637 0.146761,0.31213 0.121956,0.11368 0.281119,0.11368 0.181901,0 0.307992,-0.14676 0.12609,-0.14882 0.12609,-0.44648 0,-0.27905 -0.12609,-0.41755 -0.124024,-0.14056 -0.324528,-0.14056 -0.250114,0 -0.448551,0.22118 l -0.471289,-0.0682 0.297656,-1.57717 h 1.535822 v 0.54364 h -1.095539 l -0.09095,0.5147 q 0.194303,-0.0972 0.396874,-0.0972 0.38654,0 0.655257,0.28112 0.268717,0.28112 0.268717,0.72967 0,0.37414 -0.217041,0.66766 -0.295589,0.40101 -0.820621,0.40101 -0.419612,0 -0.684195,-0.22531 -0.264583,-0.22531 -0.31626,-0.60564 z m 2.507338,-1.17409 -0.109554,-0.56431 v -0.51263 h 0.632519 v 0.51263 l -0.09508,0.56431 z m 0.932242,0 -0.109554,-0.56431 v -0.51263 h 0.632519 v 0.51263 l -0.09508,0.56431 z m 3.177065,2.84427 h -0.398942 q -0.316259,-0.47749 -0.481624,-0.99219 -0.165364,-0.5147 -0.165364,-0.99632 0,-0.59738 0.204638,-1.13068 0.177767,-0.46302 0.450618,-0.85369 h 0.396875 q -0.283187,0.62631 -0.390674,1.0666 -0.105419,0.43821 -0.105419,0.93017 0,0.339 0.06201,0.69453 0.06408,0.35554 0.173633,0.67593 0.07235,0.21084 0.254248,0.60565 z m 2.290298,-3.17913 -0.562239,0.062 q -0.02067,-0.17364 -0.107487,-0.25632 -0.08682,-0.0827 -0.225309,-0.0827 -0.183968,0 -0.312125,0.16536 -0.126091,0.16537 -0.159163,0.68833 0.21704,-0.25631 0.539501,-0.25631 0.363802,0 0.622184,0.27698 0.260449,0.27699 0.260449,0.71521 0,0.46508 -0.272852,0.7462 -0.272851,0.28112 -0.700731,0.28112 -0.458887,0 -0.754476,-0.35553 -0.295589,-0.3576 -0.295589,-1.16996 0,-0.83302 0.307992,-1.20095 0.307991,-0.36794 0.79995,-0.36794 0.345198,0 0.570507,0.1943 0.227377,0.19224 0.289388,0.56018 z m -1.316714,1.2671 q 0,0.28319 0.130224,0.43822 0.130225,0.15296 0.297656,0.15296 0.161231,0 0.268718,-0.12609 0.107486,-0.12609 0.107486,-0.41341 0,-0.29559 -0.115755,-0.43202 -0.115755,-0.13849 -0.289387,-0.13849 -0.167432,0 -0.283187,0.13229 -0.115755,0.13023 -0.115755,0.38654 z m 1.682583,0.21704 0.562239,-0.0682 q 0.02687,0.21497 0.144694,0.32866 0.117822,0.11369 0.285253,0.11369 0.179834,0 0.30179,-0.13643 0.124024,-0.13642 0.124024,-0.36793 0,-0.21911 -0.117822,-0.34727 -0.117823,-0.12816 -0.287321,-0.12816 -0.111621,0 -0.26665,0.0434 l 0.06408,-0.47335 q 0.235645,0.006 0.359668,-0.10129 0.124023,-0.10955 0.124023,-0.28939 0,-0.15296 -0.09095,-0.24391 -0.09095,-0.091 -0.241846,-0.091 -0.148828,0 -0.254247,0.10335 -0.10542,0.10336 -0.128158,0.30179 l -0.535367,-0.091 q 0.05581,-0.27492 0.167431,-0.43821 0.113688,-0.16537 0.314193,-0.25839 0.202571,-0.0951 0.452685,-0.0951 0.42788,0 0.686262,0.27285 0.212907,0.22324 0.212907,0.50436 0,0.39894 -0.436149,0.63666 0.260449,0.0558 0.415479,0.25011 0.157096,0.1943 0.157096,0.46922 0,0.39894 -0.291455,0.68006 -0.291455,0.28112 -0.725537,0.28112 -0.411344,0 -0.682128,-0.23564 -0.270784,-0.23771 -0.314192,-0.62012 z m 2.499069,0.80409 v -0.58085 h 0.580843 v 0.58085 z m 1.0604,-0.77928 0.578776,-0.0599 q 0.02481,0.19637 0.146761,0.31213 0.121956,0.11368 0.281119,0.11368 0.181901,0 0.307992,-0.14676 0.12609,-0.14882 0.12609,-0.44648 0,-0.27905 -0.12609,-0.41755 -0.124024,-0.14056 -0.324528,-0.14056 -0.250114,0 -0.448551,0.22118 l -0.471289,-0.0682 0.297656,-1.57717 h 1.535823 v 0.54364 h -1.09554 l -0.09095,0.5147 q 0.194303,-0.0972 0.396874,-0.0972 0.38654,0 0.655257,0.28112 0.268717,0.28112 0.268717,0.72967 0,0.37414 -0.217041,0.66766 -0.295589,0.40101 -0.820621,0.40101 -0.419612,0 -0.684195,-0.22531 -0.264583,-0.22531 -0.31626,-0.60564 z m 3.367234,0.77928 0.791682,-1.13068 -0.758609,-1.06454 h 0.709 l 0.388606,0.60358 0.409277,-0.60358 h 0.682129 l -0.74414,1.03973 0.812352,1.15549 h -0.713134 l -0.446484,-0.68007 -0.450618,0.68007 z m 4.183718,-1.63505 q -0.225309,-0.0951 -0.328661,-0.26044 -0.101286,-0.16744 -0.101286,-0.36587 0,-0.339 0.235644,-0.56018 0.237712,-0.22117 0.67386,-0.22117 0.432015,0 0.669726,0.22117 0.239779,0.22118 0.239779,0.56018 0,0.21084 -0.109554,0.3762 -0.109554,0.1633 -0.307991,0.25011 0.25218,0.10129 0.382405,0.29559 0.132291,0.19431 0.132291,0.44855 0,0.41962 -0.268717,0.68213 -0.26665,0.26252 -0.711067,0.26252 -0.413411,0 -0.688329,-0.21704 -0.324528,-0.25632 -0.324528,-0.7028 0,-0.24598 0.121956,-0.45062 0.121956,-0.2067 0.384472,-0.31833 z m 0.11989,-0.58497 q 0,0.17363 0.09715,0.27078 0.09922,0.0971 0.262516,0.0971 0.165365,0 0.264583,-0.0971 0.09922,-0.0992 0.09922,-0.27285 0,-0.1633 -0.09922,-0.26045 -0.09715,-0.0992 -0.258381,-0.0992 -0.167432,0 -0.266651,0.0992 -0.09922,0.0992 -0.09922,0.26252 z m -0.05374,1.29811 q 0,0.23978 0.121957,0.37414 0.124023,0.13435 0.307991,0.13435 0.179834,0 0.297656,-0.12815 0.117822,-0.13023 0.117822,-0.37414 0,-0.21291 -0.119889,-0.34106 -0.119889,-0.13023 -0.303857,-0.13023 -0.212907,0 -0.318327,0.14676 -0.103353,0.14676 -0.103353,0.31833 z m 2.288232,-0.71314 q -0.225309,-0.0951 -0.328662,-0.26044 -0.101285,-0.16744 -0.101285,-0.36587 0,-0.339 0.235644,-0.56018 0.237711,-0.22117 0.67386,-0.22117 0.432015,0 0.669726,0.22117 0.239779,0.22118 0.239779,0.56018 0,0.21084 -0.109554,0.3762 -0.109554,0.1633 -0.307992,0.25011 0.252181,0.10129 0.382406,0.29559 0.132291,0.19431 0.132291,0.44855 0,0.41962 -0.268717,0.68213 -0.26665,0.26252 -0.711067,0.26252 -0.413411,0 -0.68833,-0.21704 -0.324527,-0.25632 -0.324527,-0.7028 0,-0.24598 0.121956,-0.45062 0.121956,-0.2067 0.384472,-0.31833 z m 0.119889,-0.58497 q 0,0.17363 0.09715,0.27078 0.09922,0.0971 0.262516,0.0971 0.165365,0 0.264583,-0.0971 0.09922,-0.0992 0.09922,-0.27285 0,-0.1633 -0.09922,-0.26045 -0.09715,-0.0992 -0.258382,-0.0992 -0.167431,0 -0.26665,0.0992 -0.09922,0.0992 -0.09922,0.26252 z m -0.05374,1.29811 q 0,0.23978 0.121956,0.37414 0.124024,0.13435 0.307992,0.13435 0.179833,0 0.297656,-0.12815 0.117822,-0.13023 0.117822,-0.37414 0,-0.21291 -0.11989,-0.34106 -0.119889,-0.13023 -0.303857,-0.13023 -0.212906,0 -0.318326,0.14676 -0.103353,0.14676 -0.103353,0.31833 z m 1.914095,0.92191 v -0.58085 h 0.580843 v 0.58085 z m 1.064534,-0.70074 0.562239,-0.062 q 0.02067,0.17157 0.107487,0.25425 0.08682,0.0827 0.229443,0.0827 0.179834,0 0.305924,-0.16536 0.126091,-0.16537 0.161231,-0.68626 -0.219108,0.25424 -0.54777,0.25424 -0.357601,0 -0.61805,-0.27492 -0.258382,-0.27698 -0.258382,-0.71933 0,-0.46095 0.272852,-0.74207 0.274918,-0.28319 0.698665,-0.28319 0.460953,0 0.756542,0.3576 0.295589,0.35553 0.295589,1.17202 0,0.83096 -0.307991,1.19889 -0.307992,0.36794 -0.802018,0.36794 -0.355534,0 -0.574641,-0.1881 -0.219108,-0.19017 -0.28112,-0.56638 z m 1.314647,-1.26917 q 0,-0.28112 -0.130224,-0.43615 -0.128158,-0.15503 -0.297656,-0.15503 -0.161231,0 -0.268717,0.12816 -0.10542,0.12609 -0.10542,0.41548 0,0.29352 0.115755,0.43201 0.115755,0.13643 0.289388,0.13643 0.167431,0 0.281119,-0.13229 0.115755,-0.13229 0.115755,-0.38861 z m 2.284095,-0.22531 h 0.535367 v 0.29973 q 0.287321,-0.34934 0.684196,-0.34934 0.210839,0 0.365868,0.0868 0.15503,0.0868 0.254248,0.26252 0.144694,-0.1757 0.312126,-0.26252 0.167431,-0.0868 0.3576,-0.0868 0.241846,0 0.409277,0.0992 0.167432,0.0971 0.250114,0.28732 0.05994,0.14056 0.05994,0.45475 v 1.40354 h -0.580843 v -1.25471 q 0,-0.32659 -0.05994,-0.42168 -0.08061,-0.12402 -0.248046,-0.12402 -0.121957,0 -0.229443,0.0744 -0.107487,0.0744 -0.15503,0.21911 -0.04754,0.14263 -0.04754,0.45269 v 1.0542 h -0.580842 v -1.20303 q 0,-0.32039 -0.03101,-0.41341 -0.03101,-0.093 -0.09715,-0.13849 -0.06408,-0.0455 -0.1757,-0.0455 -0.134358,0 -0.241845,0.0723 -0.107487,0.0723 -0.155029,0.20877 -0.04548,0.13643 -0.04548,0.45268 v 1.06661 h -0.580842 z m 3.76411,0 h 0.535368 v 0.29973 q 0.287321,-0.34934 0.684195,-0.34934 0.21084,0 0.365869,0.0868 0.155029,0.0868 0.254248,0.26252 0.144694,-0.1757 0.312125,-0.26252 0.167432,-0.0868 0.357601,-0.0868 0.241845,0 0.409276,0.0992 0.16743,0.0971 0.25011,0.28732 0.06,0.14056 0.06,0.45475 v 1.40354 h -0.580843 v -1.25471 q 0,-0.32659 -0.05994,-0.42168 -0.08061,-0.12402 -0.248047,-0.12402 -0.121956,0 -0.229443,0.0744 -0.107487,0.0744 -0.155029,0.21911 -0.04754,0.14263 -0.04754,0.45269 v 1.0542 h -0.580843 v -1.20303 q 0,-0.32039 -0.03101,-0.41341 -0.03101,-0.093 -0.09715,-0.13849 -0.06408,-0.0455 -0.1757,-0.0455 -0.134359,0 -0.241846,0.0723 -0.107486,0.0723 -0.155029,0.20877 -0.04547,0.13643 -0.04547,0.45268 v 1.06661 h -0.580843 z m 3.646282,3.08612 q 0.17157,-0.36794 0.24185,-0.56431 0.0703,-0.19637 0.13022,-0.45268 0.06,-0.25632 0.0889,-0.48576 0.0289,-0.23151 0.0289,-0.47336 0,-0.49196 -0.10542,-0.93017 -0.10542,-0.44029 -0.38861,-1.0666 h 0.39481 q 0.31212,0.44441 0.48369,0.94257 0.17363,0.49816 0.17363,1.01079 0,0.43202 -0.13643,0.92604 -0.15502,0.55397 -0.51056,1.09348 z"
         id="path33" />
    </g>
  </g>
  <g
     inkscape:groupmode="layer"
     id="g48"
     inkscape:label="Cut Boards - Single"
     style="display:none">
    <rect
       style="vector-effect:non-scaling-stroke;fill:none;stroke:#000000;stroke-width:0.156684;stroke-linejoin:round;stroke-opacity:1;-inkscape-stroke:hairline"
       id="rect45"
       width="50"
       height="330"
       x="-105.83381"
       y="137.7"
       rx="5"
       ry="5" />
    <path
       id="path49"
       style="vector-effect:non-scaling-stroke;fill:none;stroke:#000000;stroke-width:0.259021;-inkscape-stroke:hairline"
       inkscape:label="path3581"
       d="m -85.83352,150.20013 4.849833,9.99991 v 10.97246 h -0.6165 l 0.6165,1.99988 v 8.00002 h -0.6165 l 0.6165,2.0004 v 7.99951 h -0.6165 l 0.6165,2.0004 v 7.99951 h -0.6165 l 0.6165,2.00039 v 7.99951 h -0.6165 l 0.6165,2.0004 v 8.00003 h -0.6165 l 0.6165,1.99987 v 8.00003 h -0.6165 l 0.6165,2.0004 v 7.99951 h -0.6165 l 0.6165,2.00039 v 7.99952 h -0.6165 l 0.6165,2.00039 v 7.99951 h -0.6165 l 0.6165,2.0004 v 7.99951 h -0.6165 l 0.6165,2.00039 v 8.00003 h -0.6165 l 0.6165,2.0004 v 7.99951 h -0.6165 l 0.6165,2.00039 v 7.99951 h -0.6165 l 0.6165,2.0004 v 7.99951 h -0.6165 l 0.6165,2.0004 v 7.99951 h -0.6165 l 0.6165,2.00039 v 8.00003 h -0.6165 l 0.6165,2.0004 v 7.99951 h -0.6165 l 0.6165,2.00039 v 7.99951 h -0.6165 l 0.6165,2.0004 v 7.99951 h -0.6165 l 0.6165,2.00039 v 7.99952 h -0.6165 l 0.6165,2.00039 v 8.00003 h -0.6165 l 0.6165,2.00039 v 7.99952 h -0.6165 l 0.6165,2.00039 v 7.99951 h -0.6165 l 0.6165,2.0004 v 7.99951 h -0.6165 l 0.6165,2.00039 v 7.99951 h -0.6165 l 0.6165,2.0004 v 8.00003 h -0.6165 l 0.6165,2.00039 v 7.99951 h -0.6165 l 0.6165,2.0004 v 2.02727 l -4.849833,9.99939 4.849833,5.1e-4 h 0.299724 3.850411 l -3.850411,-9.9999 v -2.02727 l 0.617016,-2.0004 h -0.617016 v -7.99951 l 0.617016,-2.00039 h -0.617016 v -8.00003 l 0.617016,-1.99988 h -0.617016 v -8.00003 l 0.617016,-1.99987 h -0.617016 v -8.00003 l 0.617016,-1.99988 h -0.617016 v -8.00003 l 0.617016,-2.00039 h -0.617016 v -7.99952 l 0.617016,-2.00039 h -0.617016 v -8.00003 l 0.617016,-1.99988 h -0.617016 v -8.00003 l 0.617016,-1.99987 h -0.617016 v -8.00003 l 0.617016,-1.99988 h -0.617016 v -8.00003 l 0.617016,-2.00039 h -0.617016 v -7.99951 l 0.617016,-2.0004 h -0.617016 v -8.00003 l 0.617016,-1.99988 h -0.617016 v -8.00002 l 0.617016,-1.99988 h -0.617016 v -8.00003 l 0.617016,-1.99988 h -0.617016 v -8.00003 l 0.617016,-1.99988 h -0.617016 v -8.00002 l 0.617016,-2.0004 h -0.617016 v -8.00003 l 0.617016,-1.99987 h -0.617016 v -8.00003 l 0.617016,-1.99988 h -0.617016 v -8.00003 l 0.617016,-1.99988 h -0.617016 v -8.00003 l 0.617016,-1.99987 h -0.617016 v -8.00003 l 0.617016,-2.0004 h -0.617016 v -8.00003 l 0.617016,-1.99987 h -0.617016 v -8.00003 l 0.617016,-1.99988 h -0.617016 v -8.00003 l 0.617016,-1.99988 h -0.617016 v -8.00002 l 0.617016,-1.99988 h -0.617016 v -8.00003 l 0.617016,-2.0004 h -0.617016 v -8.00002 l 0.617016,-1.99988 h -0.617016 v -10.97246 l 4.85035,-9.99991 h -4.85035 -0.299724 z" />
  </g>
</svg>
