<?xml version="1.0" encoding="UTF-8" standalone="no"?>
<!-- Created with Inkscape (http://www.inkscape.org/) -->

<svg
   width="210mm"
   height="297mm"
   viewBox="0 0 210 297"
   version="1.1"
   id="svg1"
   inkscape:version="1.4.2 (f4327f4, 2025-05-13)"
   sodipodi:docname="Árvore de Natal.svg"
   xmlns:inkscape="http://www.inkscape.org/namespaces/inkscape"
   xmlns:sodipodi="http://sodipodi.sourceforge.net/DTD/sodipodi-0.dtd"
   xmlns="http://www.w3.org/2000/svg"
   xmlns:svg="http://www.w3.org/2000/svg">
  <sodipodi:namedview
     id="namedview1"
     pagecolor="#ffffff"
     bordercolor="#000000"
     borderopacity="0.25"
     inkscape:showpageshadow="2"
     inkscape:pageopacity="0.0"
     inkscape:pagecheckerboard="0"
     inkscape:deskcolor="#d1d1d1"
     inkscape:document-units="mm"
     inkscape:zoom="0.063544005"
     inkscape:cx="5626.0225"
     inkscape:cy="1849.1123"
     inkscape:window-width="1920"
     inkscape:window-height="1009"
     inkscape:window-x="-8"
     inkscape:window-y="-8"
     inkscape:window-maximized="1"
     inkscape:current-layer="layer1" />
  <defs
     id="defs1" />
  <g
     inkscape:label="Camada 1"
     inkscape:groupmode="layer"
     id="layer1">
    <g
       id="g33"
       transform="translate(373.91822,-585.90334)">
      <g
         id="g11">
        <circle
           style="vector-effect:non-scaling-stroke;fill:none;stroke:#000000;stroke-width:0.264583;-inkscape-stroke:hairline"
           id="path1"
           cx="32.5"
           cy="264.5"
           r="32.5" />
        <circle
           style="vector-effect:non-scaling-stroke;fill:none;stroke:#000000;stroke-width:0.264583;-inkscape-stroke:hairline"
           id="circle6"
           cx="107.5"
           cy="264.5"
           r="32.5" />
        <circle
           style="vector-effect:non-scaling-stroke;fill:none;stroke:#000000;stroke-width:0.264583;-inkscape-stroke:hairline"
           id="circle7"
           cx="182.5"
           cy="264.5"
           r="32.5" />
        <circle
           style="vector-effect:non-scaling-stroke;fill:none;stroke:#000000;stroke-width:0.264583;-inkscape-stroke:hairline"
           id="circle8"
           cx="257.5"
           cy="264.5"
           r="32.5" />
        <circle
           style="vector-effect:non-scaling-stroke;fill:none;stroke:#000000;stroke-width:0.264583;-inkscape-stroke:hairline"
           id="circle9"
           cx="332.5"
           cy="264.5"
           r="32.5" />
        <circle
           style="vector-effect:non-scaling-stroke;fill:none;stroke:#000000;stroke-width:0.264583;-inkscape-stroke:hairline"
           id="circle10"
           cx="407.5"
           cy="264.5"
           r="32.5" />
        <circle
           style="vector-effect:non-scaling-stroke;fill:none;stroke:#000000;stroke-width:0.264583;-inkscape-stroke:hairline"
           id="circle11"
           cx="482.5"
           cy="264.5"
           r="32.5" />
      </g>
      <g
         id="g18"
         transform="translate(5)">
        <circle
           style="vector-effect:non-scaling-stroke;fill:none;stroke:#000000;stroke-width:0.264583;-inkscape-stroke:hairline"
           id="circle12"
           cx="65"
           cy="199.49998"
           r="32.5" />
        <circle
           style="vector-effect:non-scaling-stroke;fill:none;stroke:#000000;stroke-width:0.264583;-inkscape-stroke:hairline"
           id="circle13"
           cx="140"
           cy="199.49998"
           r="32.5" />
        <circle
           style="vector-effect:non-scaling-stroke;fill:none;stroke:#000000;stroke-width:0.264583;-inkscape-stroke:hairline"
           id="circle14"
           cx="215"
           cy="199.49998"
           r="32.5" />
        <circle
           style="vector-effect:non-scaling-stroke;fill:none;stroke:#000000;stroke-width:0.264583;-inkscape-stroke:hairline"
           id="circle15"
           cx="290"
           cy="199.49998"
           r="32.5" />
        <circle
           style="vector-effect:non-scaling-stroke;fill:none;stroke:#000000;stroke-width:0.264583;-inkscape-stroke:hairline"
           id="circle16"
           cx="365"
           cy="199.49998"
           r="32.5" />
        <circle
           style="vector-effect:non-scaling-stroke;fill:none;stroke:#000000;stroke-width:0.264583;-inkscape-stroke:hairline"
           id="circle17"
           cx="440"
           cy="199.49998"
           r="32.5" />
      </g>
      <g
         id="g23"
         transform="translate(10)">
        <circle
           style="vector-effect:non-scaling-stroke;fill:none;stroke:#000000;stroke-width:0.264583;-inkscape-stroke:hairline"
           id="circle18"
           cx="97.5"
           cy="134.49998"
           r="32.5" />
        <circle
           style="vector-effect:non-scaling-stroke;fill:none;stroke:#000000;stroke-width:0.264583;-inkscape-stroke:hairline"
           id="circle19"
           cx="172.5"
           cy="134.49998"
           r="32.5" />
        <circle
           style="vector-effect:non-scaling-stroke;fill:none;stroke:#000000;stroke-width:0.264583;-inkscape-stroke:hairline"
           id="circle20"
           cx="247.5"
           cy="134.49998"
           r="32.5" />
        <circle
           style="vector-effect:non-scaling-stroke;fill:none;stroke:#000000;stroke-width:0.264583;-inkscape-stroke:hairline"
           id="circle21"
           cx="322.5"
           cy="134.49998"
           r="32.5" />
        <circle
           style="vector-effect:non-scaling-stroke;fill:none;stroke:#000000;stroke-width:0.264583;-inkscape-stroke:hairline"
           id="circle22"
           cx="397.5"
           cy="134.49998"
           r="32.5" />
      </g>
      <g
         id="g27"
         transform="translate(5.25)">
        <circle
           style="vector-effect:non-scaling-stroke;fill:none;stroke:#000000;stroke-width:0.264583;-inkscape-stroke:hairline"
           id="circle23"
           cx="139.75"
           cy="69.499992"
           r="32.5" />
        <circle
           style="vector-effect:non-scaling-stroke;fill:none;stroke:#000000;stroke-width:0.264583;-inkscape-stroke:hairline"
           id="circle24"
           cx="214.75"
           cy="69.499992"
           r="32.5" />
        <circle
           style="vector-effect:non-scaling-stroke;fill:none;stroke:#000000;stroke-width:0.264583;-inkscape-stroke:hairline"
           id="circle25"
           cx="289.75"
           cy="69.499992"
           r="32.5" />
        <circle
           style="vector-effect:non-scaling-stroke;fill:none;stroke:#000000;stroke-width:0.264583;-inkscape-stroke:hairline"
           id="circle26"
           cx="364.75"
           cy="69.499992"
           r="32.5" />
      </g>
      <g
         id="g30"
         transform="translate(37.5)">
        <circle
           style="vector-effect:non-scaling-stroke;fill:none;stroke:#000000;stroke-width:0.264583;-inkscape-stroke:hairline"
           id="circle27"
           cx="145"
           cy="4.4999914"
           r="32.5" />
        <circle
           style="vector-effect:non-scaling-stroke;fill:none;stroke:#000000;stroke-width:0.264583;-inkscape-stroke:hairline"
           id="circle28"
           cx="220"
           cy="4.4999914"
           r="32.5" />
        <circle
           style="vector-effect:non-scaling-stroke;fill:none;stroke:#000000;stroke-width:0.264583;-inkscape-stroke:hairline"
           id="circle29"
           cx="295"
           cy="4.4999914"
           r="32.5" />
      </g>
      <g
         id="g32"
         transform="translate(37.5)">
        <circle
           style="vector-effect:non-scaling-stroke;fill:none;stroke:#000000;stroke-width:0.264583;-inkscape-stroke:hairline"
           id="circle30"
           cx="182.5"
           cy="-60.500008"
           r="32.5" />
        <circle
           style="vector-effect:non-scaling-stroke;fill:none;stroke:#000000;stroke-width:0.264583;-inkscape-stroke:hairline"
           id="circle31"
           cx="257.5"
           cy="-60.500008"
           r="32.5" />
      </g>
      <circle
         style="vector-effect:non-scaling-stroke;fill:none;stroke:#000000;stroke-width:0.264583;-inkscape-stroke:hairline"
         id="circle32"
         cx="257.5"
         cy="-125.50001"
         r="32.5" />
    </g>
    <g
       id="g50"
       transform="translate(-260.64578,-591.25693)" />
    <path
       id="circle60"
       style="vector-effect:non-scaling-stroke;fill:none;stroke:#000000;stroke-width:0.264583;-inkscape-stroke:hairline"
       d="m 19.35422,-716.75694 a 32.5,32.5 0 0 1 -32.5,32.5 32.5,32.5 0 0 1 -32.5,-32.5 32.5,32.5 0 0 1 32.5,-32.5 32.5,32.5 0 0 1 32.5,32.5 z m 37.5,65 a 32.5,32.5 0 0 1 -32.5,32.5 32.5,32.5 0 0 1 -32.5,-32.5 32.5,32.5 0 0 1 32.5,-32.5 32.5,32.5 0 0 1 32.5,32.5 z m -75,0 a 32.5,32.5 0 0 1 -32.5,32.5 32.5,32.5 0 0 1 -32.5,-32.5 32.5,32.5 0 0 1 32.5,-32.5 32.5,32.5 0 0 1 32.5,32.5 z m 112.5,65 a 32.5,32.5 0 0 1 -32.5,32.5 32.5,32.5 0 0 1 -32.5,-32.5 32.5,32.5 0 0 1 32.5,-32.5 32.5,32.5 0 0 1 32.5,32.5 z m -75,0 a 32.5,32.5 0 0 1 -32.5,32.5 32.5,32.5 0 0 1 -32.5,-32.5 32.5,32.5 0 0 1 32.5,-32.5 32.5,32.5 0 0 1 32.5,32.5 z m -75,0 a 32.5,32.5 0 0 1 -32.5,32.5 32.5,32.5 0 0 1 -32.5,-32.5 32.5,32.5 0 0 1 32.5,-32.5 32.5,32.5 0 0 1 32.5,32.5 z m 187.5,65 a 32.5,32.5 0 0 1 -32.5,32.5 32.5,32.5 0 0 1 -32.5,-32.5 32.5,32.5 0 0 1 32.5,-32.5 32.5,32.5 0 0 1 32.5,32.5 z m -75,0 a 32.5,32.5 0 0 1 -32.5,32.5 32.5,32.5 0 0 1 -32.5,-32.5 32.5,32.5 0 0 1 32.5,-32.5 32.5,32.5 0 0 1 32.5,32.5 z m -75,0 a 32.5,32.5 0 0 1 -32.5,32.5 32.5,32.5 0 0 1 -32.5,-32.5 32.5,32.5 0 0 1 32.5,-32.5 32.5,32.5 0 0 1 32.5,32.5 z m -75,0 a 32.5,32.5 0 0 1 -32.5,32.5 32.5,32.5 0 0 1 -32.5,-32.5 32.5,32.5 0 0 1 32.5,-32.5 32.5,32.5 0 0 1 32.5,32.5 z m 262.5,64.99999 a 32.5,32.5 0 0 1 -32.5,32.5 32.5,32.5 0 0 1 -32.5,-32.5 32.5,32.5 0 0 1 32.5,-32.5 32.5,32.5 0 0 1 32.5,32.5 z m -75,0 a 32.5,32.5 0 0 1 -32.5,32.5 32.5,32.5 0 0 1 -32.5,-32.5 32.5,32.5 0 0 1 32.5,-32.5 32.5,32.5 0 0 1 32.5,32.5 z m -75,0 a 32.5,32.5 0 0 1 -32.5,32.5 32.5,32.5 0 0 1 -32.5,-32.5 32.5,32.5 0 0 1 32.5,-32.5 32.5,32.5 0 0 1 32.5,32.5 z m -75,0 a 32.5,32.5 0 0 1 -32.5,32.5 32.5,32.5 0 0 1 -32.5,-32.5 32.5,32.5 0 0 1 32.5,-32.5 32.5,32.5 0 0 1 32.5,32.5 z m -75,0 a 32.5,32.5 0 0 1 -32.5,32.5 32.5,32.5 0 0 1 -32.5,-32.5 32.5,32.5 0 0 1 32.5,-32.5 32.5,32.5 0 0 1 32.5,32.5 z m 337.5,65 a 32.5,32.5 0 0 1 -32.5,32.5 32.5,32.5 0 0 1 -32.5,-32.5 32.5,32.5 0 0 1 32.5,-32.5 32.5,32.5 0 0 1 32.5,32.5 z m -75,0 a 32.5,32.5 0 0 1 -32.5,32.5 32.5,32.5 0 0 1 -32.5,-32.5 32.5,32.5 0 0 1 32.5,-32.5 32.5,32.5 0 0 1 32.5,32.5 z m -75,0 a 32.5,32.5 0 0 1 -32.5,32.5 32.5,32.5 0 0 1 -32.5,-32.5 32.5,32.5 0 0 1 32.5,-32.5 32.5,32.5 0 0 1 32.5,32.5 z m -75,0 a 32.5,32.5 0 0 1 -32.5,32.5 32.5,32.5 0 0 1 -32.5,-32.5 32.5,32.5 0 0 1 32.5,-32.5 32.5,32.5 0 0 1 32.5,32.5 z m -75,0 a 32.5,32.5 0 0 1 -32.5,32.5 32.5,32.5 0 0 1 -32.5,-32.5 32.5,32.5 0 0 1 32.5,-32.5 32.5,32.5 0 0 1 32.5,32.5 z m -75,0 a 32.5,32.5 0 0 1 -32.5,32.5 32.5,32.5 0 0 1 -32.5,-32.5 32.5,32.5 0 0 1 32.5,-32.5 32.5,32.5 0 0 1 32.5,32.5 z m 412.5,65.00002 a 32.5,32.5 0 0 1 -32.5,32.5 32.5,32.5 0 0 1 -32.5,-32.5 32.5,32.5 0 0 1 32.5,-32.5 32.5,32.5 0 0 1 32.5,32.5 z m -75,0 a 32.5,32.5 0 0 1 -32.5,32.5 32.5,32.5 0 0 1 -32.5,-32.5 32.5,32.5 0 0 1 32.5,-32.5 32.5,32.5 0 0 1 32.5,32.5 z m -75,0 a 32.5,32.5 0 0 1 -32.5,32.5 32.5,32.5 0 0 1 -32.5,-32.5 32.5,32.5 0 0 1 32.5,-32.5 32.5,32.5 0 0 1 32.5,32.5 z m -75,0 a 32.5,32.5 0 0 1 -32.5,32.5 32.5,32.5 0 0 1 -32.5,-32.5 32.5,32.5 0 0 1 32.5,-32.5 32.5,32.5 0 0 1 32.5,32.5 z m -75,0 a 32.5,32.5 0 0 1 -32.5,32.5 32.5,32.5 0 0 1 -32.5,-32.5 32.5,32.5 0 0 1 32.5,-32.5 32.5,32.5 0 0 1 32.5,32.5 z m -75,0 a 32.5,32.5 0 0 1 -32.5,32.5 32.5,32.5 0 0 1 -32.5,-32.5 32.5,32.5 0 0 1 32.5,-32.5 32.5,32.5 0 0 1 32.5,32.5 z m -75,0 a 32.5,32.5 0 0 1 -32.5,32.5 32.5,32.5 0 0 1 -32.5,-32.5 32.5,32.5 0 0 1 32.5,-32.5 32.5,32.5 0 0 1 32.5,32.5 z" />
    <path
       id="path61"
       style="vector-effect:non-scaling-stroke;fill:none;stroke:#000000;stroke-width:0.264583;-inkscape-stroke:hairline"
       sodipodi:type="inkscape:offset"
       inkscape:radius="30.527061"
       inkscape:original="M -13.146484 -749.25781 A 32.5 32.5 0 0 0 -45.646484 -716.75781 A 32.5 32.5 0 0 0 -13.146484 -684.25781 A 32.5 32.5 0 0 0 19.353516 -716.75781 A 32.5 32.5 0 0 0 -13.146484 -749.25781 z M -50.646484 -684.25781 A 32.5 32.5 0 0 0 -83.146484 -651.75781 A 32.5 32.5 0 0 0 -50.646484 -619.25781 A 32.5 32.5 0 0 0 -18.146484 -651.75781 A 32.5 32.5 0 0 0 -50.646484 -684.25781 z M 24.353516 -684.25781 A 32.5 32.5 0 0 0 -8.1464844 -651.75781 A 32.5 32.5 0 0 0 24.353516 -619.25781 A 32.5 32.5 0 0 0 56.853516 -651.75781 A 32.5 32.5 0 0 0 24.353516 -684.25781 z M -88.146484 -619.25781 A 32.5 32.5 0 0 0 -120.64648 -586.75781 A 32.5 32.5 0 0 0 -88.146484 -554.25781 A 32.5 32.5 0 0 0 -55.646484 -586.75781 A 32.5 32.5 0 0 0 -88.146484 -619.25781 z M -13.146484 -619.25781 A 32.5 32.5 0 0 0 -45.646484 -586.75781 A 32.5 32.5 0 0 0 -13.146484 -554.25781 A 32.5 32.5 0 0 0 19.353516 -586.75781 A 32.5 32.5 0 0 0 -13.146484 -619.25781 z M 61.853516 -619.25781 A 32.5 32.5 0 0 0 29.353516 -586.75781 A 32.5 32.5 0 0 0 61.853516 -554.25781 A 32.5 32.5 0 0 0 94.353516 -586.75781 A 32.5 32.5 0 0 0 61.853516 -619.25781 z M -125.64648 -554.25781 A 32.5 32.5 0 0 0 -158.14648 -521.75781 A 32.5 32.5 0 0 0 -125.64648 -489.25781 A 32.5 32.5 0 0 0 -93.146484 -521.75781 A 32.5 32.5 0 0 0 -125.64648 -554.25781 z M -50.646484 -554.25781 A 32.5 32.5 0 0 0 -83.146484 -521.75781 A 32.5 32.5 0 0 0 -50.646484 -489.25781 A 32.5 32.5 0 0 0 -18.146484 -521.75781 A 32.5 32.5 0 0 0 -50.646484 -554.25781 z M 24.353516 -554.25781 A 32.5 32.5 0 0 0 -8.1464844 -521.75781 A 32.5 32.5 0 0 0 24.353516 -489.25781 A 32.5 32.5 0 0 0 56.853516 -521.75781 A 32.5 32.5 0 0 0 24.353516 -554.25781 z M 99.353516 -554.25781 A 32.5 32.5 0 0 0 66.853516 -521.75781 A 32.5 32.5 0 0 0 99.353516 -489.25781 A 32.5 32.5 0 0 0 131.85352 -521.75781 A 32.5 32.5 0 0 0 99.353516 -554.25781 z M -163.14648 -489.25781 A 32.5 32.5 0 0 0 -195.64648 -456.75781 A 32.5 32.5 0 0 0 -163.14648 -424.25781 A 32.5 32.5 0 0 0 -130.64648 -456.75781 A 32.5 32.5 0 0 0 -163.14648 -489.25781 z M -88.146484 -489.25781 A 32.5 32.5 0 0 0 -120.64648 -456.75781 A 32.5 32.5 0 0 0 -88.146484 -424.25781 A 32.5 32.5 0 0 0 -55.646484 -456.75781 A 32.5 32.5 0 0 0 -88.146484 -489.25781 z M -13.146484 -489.25781 A 32.5 32.5 0 0 0 -45.646484 -456.75781 A 32.5 32.5 0 0 0 -13.146484 -424.25781 A 32.5 32.5 0 0 0 19.353516 -456.75781 A 32.5 32.5 0 0 0 -13.146484 -489.25781 z M 61.853516 -489.25781 A 32.5 32.5 0 0 0 29.353516 -456.75781 A 32.5 32.5 0 0 0 61.853516 -424.25781 A 32.5 32.5 0 0 0 94.353516 -456.75781 A 32.5 32.5 0 0 0 61.853516 -489.25781 z M 136.85352 -489.25781 A 32.5 32.5 0 0 0 104.35352 -456.75781 A 32.5 32.5 0 0 0 136.85352 -424.25781 A 32.5 32.5 0 0 0 169.35352 -456.75781 A 32.5 32.5 0 0 0 136.85352 -489.25781 z M -200.64648 -424.25781 A 32.5 32.5 0 0 0 -233.14648 -391.75781 A 32.5 32.5 0 0 0 -200.64648 -359.25781 A 32.5 32.5 0 0 0 -168.14648 -391.75781 A 32.5 32.5 0 0 0 -200.64648 -424.25781 z M -125.64648 -424.25781 A 32.5 32.5 0 0 0 -158.14648 -391.75781 A 32.5 32.5 0 0 0 -125.64648 -359.25781 A 32.5 32.5 0 0 0 -93.146484 -391.75781 A 32.5 32.5 0 0 0 -125.64648 -424.25781 z M -50.646484 -424.25781 A 32.5 32.5 0 0 0 -83.146484 -391.75781 A 32.5 32.5 0 0 0 -50.646484 -359.25781 A 32.5 32.5 0 0 0 -18.146484 -391.75781 A 32.5 32.5 0 0 0 -50.646484 -424.25781 z M 24.353516 -424.25781 A 32.5 32.5 0 0 0 -8.1464844 -391.75781 A 32.5 32.5 0 0 0 24.353516 -359.25781 A 32.5 32.5 0 0 0 56.853516 -391.75781 A 32.5 32.5 0 0 0 24.353516 -424.25781 z M 99.353516 -424.25781 A 32.5 32.5 0 0 0 66.853516 -391.75781 A 32.5 32.5 0 0 0 99.353516 -359.25781 A 32.5 32.5 0 0 0 131.85352 -391.75781 A 32.5 32.5 0 0 0 99.353516 -424.25781 z M 174.35352 -424.25781 A 32.5 32.5 0 0 0 141.85352 -391.75781 A 32.5 32.5 0 0 0 174.35352 -359.25781 A 32.5 32.5 0 0 0 206.85352 -391.75781 A 32.5 32.5 0 0 0 174.35352 -424.25781 z M -238.14648 -359.25781 A 32.5 32.5 0 0 0 -270.64648 -326.75781 A 32.5 32.5 0 0 0 -238.14648 -294.25781 A 32.5 32.5 0 0 0 -205.64648 -326.75781 A 32.5 32.5 0 0 0 -238.14648 -359.25781 z M -163.14648 -359.25781 A 32.5 32.5 0 0 0 -195.64648 -326.75781 A 32.5 32.5 0 0 0 -163.14648 -294.25781 A 32.5 32.5 0 0 0 -130.64648 -326.75781 A 32.5 32.5 0 0 0 -163.14648 -359.25781 z M -88.146484 -359.25781 A 32.5 32.5 0 0 0 -120.64648 -326.75781 A 32.5 32.5 0 0 0 -88.146484 -294.25781 A 32.5 32.5 0 0 0 -55.646484 -326.75781 A 32.5 32.5 0 0 0 -88.146484 -359.25781 z M -13.146484 -359.25781 A 32.5 32.5 0 0 0 -45.646484 -326.75781 A 32.5 32.5 0 0 0 -13.146484 -294.25781 A 32.5 32.5 0 0 0 19.353516 -326.75781 A 32.5 32.5 0 0 0 -13.146484 -359.25781 z M 61.853516 -359.25781 A 32.5 32.5 0 0 0 29.353516 -326.75781 A 32.5 32.5 0 0 0 61.853516 -294.25781 A 32.5 32.5 0 0 0 94.353516 -326.75781 A 32.5 32.5 0 0 0 61.853516 -359.25781 z M 136.85352 -359.25781 A 32.5 32.5 0 0 0 104.35352 -326.75781 A 32.5 32.5 0 0 0 136.85352 -294.25781 A 32.5 32.5 0 0 0 169.35352 -326.75781 A 32.5 32.5 0 0 0 136.85352 -359.25781 z M 211.85352 -359.25781 A 32.5 32.5 0 0 0 179.35352 -326.75781 A 32.5 32.5 0 0 0 211.85352 -294.25781 A 32.5 32.5 0 0 0 244.35352 -326.75781 A 32.5 32.5 0 0 0 211.85352 -359.25781 z "
       d="m -13.146484,-779.78516 c -33.000893,0 -63.027344,30.02646 -63.027344,63.02735 0,2.61241 0.25233,5.19415 0.615234,7.75586 -21.787458,10.26188 -38.115236,32.92396 -38.115236,57.24414 0,2.61241 0.25233,5.19415 0.61524,7.75586 -21.78746,10.26188 -38.11524,32.92396 -38.11524,57.24414 0,2.61241 0.25233,5.19415 0.61524,7.75586 -21.78746,10.26188 -38.11524,32.92396 -38.11524,57.24414 0,2.61241 0.25233,5.19415 0.61524,7.75586 -21.78746,10.26188 -38.11524,32.92396 -38.11524,57.24414 0,2.61241 0.25233,5.19415 0.61524,7.75586 -21.78746,10.26188 -38.11524,32.92396 -38.11524,57.24414 0,2.61241 0.25233,5.19415 0.61524,7.75586 -21.78746,10.26188 -38.11524,32.92396 -38.11524,57.24414 0,33.00089 30.02645,63.02734 63.02735,63.02734 13.66261,0 26.77675,-5.19878 37.5,-13.57226 10.72324,8.37348 23.83738,13.57226 37.5,13.57226 13.66261,0 26.77675,-5.19878 37.5,-13.57226 10.72324,8.37348 23.83738,13.57226 37.499996,13.57226 13.662616,0 26.77675,-5.19878 37.5,-13.57226 10.723249,8.37348 23.837383,13.57226 37.5,13.57226 13.66261645,0 26.77675,-5.19878 37.5,-13.57226 10.723249,8.37348 23.837383,13.57226 37.5,13.57226 13.662616,0 26.77675,-5.19878 37.5,-13.57226 10.723244,8.37348 23.837384,13.57226 37.500004,13.57226 13.66261,0 26.77675,-5.19878 37.5,-13.57226 10.72324,8.37348 23.83738,13.57226 37.5,13.57226 33.00089,0 63.02734,-30.02645 63.02734,-63.02734 0,-24.32018 -16.32778,-46.98226 -38.11524,-57.24414 0.36291,-2.56171 0.61524,-5.14345 0.61524,-7.75586 0,-24.32018 -16.32778,-46.98226 -38.11524,-57.24414 0.36291,-2.56171 0.61524,-5.14345 0.61524,-7.75586 0,-24.32018 -16.32778,-46.98226 -38.11524,-57.24414 0.36291,-2.56171 0.61524,-5.14345 0.61524,-7.75586 0,-24.32018 -16.32777,-46.98226 -38.11523,-57.24414 0.3629,-2.56171 0.61523,-5.14345 0.61523,-7.75586 0,-24.32018 -16.32778,-46.98226 -38.115235,-57.24414 0.362904,-2.56171 0.615234,-5.14345 0.615234,-7.75586 0,-24.32018 -16.327776,-46.98226 -38.115234,-57.24414 0.362904,-2.56171 0.615234,-5.14345 0.615234,-7.75586 0,-33.00089 -30.026451,-63.02735 -63.027343,-63.02735 z" />
    <circle
       style="vector-effect:non-scaling-stroke;fill:none;stroke:#000000;stroke-width:0.264583;-inkscape-stroke:hairline"
       id="circle61"
       cx="-512.18402"
       cy="735.57806"
       r="32.5" />
    <circle
       style="vector-effect:non-scaling-stroke;fill:none;stroke:#000000;stroke-width:0.264583;-inkscape-stroke:hairline"
       id="circle62"
       cx="-437.18402"
       cy="735.57806"
       r="32.5" />
    <circle
       style="vector-effect:non-scaling-stroke;fill:none;stroke:#000000;stroke-width:0.264583;-inkscape-stroke:hairline"
       id="circle66"
       cx="-137.18401"
       cy="735.57806"
       r="32.5" />
    <circle
       style="vector-effect:non-scaling-stroke;fill:none;stroke:#000000;stroke-width:0.264583;-inkscape-stroke:hairline"
       id="circle67"
       cx="-62.18401"
       cy="735.57806"
       r="32.5" />
    <g
       id="g73"
       transform="translate(-539.68401,438.44612)">
      <circle
         style="vector-effect:non-scaling-stroke;fill:none;stroke:#000000;stroke-width:0.264583;-inkscape-stroke:hairline"
         id="circle68"
         cx="65"
         cy="199.49998"
         r="32.5" />
      <circle
         style="vector-effect:non-scaling-stroke;fill:none;stroke:#000000;stroke-width:0.264583;-inkscape-stroke:hairline"
         id="circle69"
         cx="140"
         cy="199.49998"
         r="32.5" />
      <circle
         style="vector-effect:non-scaling-stroke;fill:none;stroke:#000000;stroke-width:0.264583;-inkscape-stroke:hairline"
         id="circle70"
         cx="215"
         cy="199.49998"
         r="32.5" />
      <circle
         style="vector-effect:non-scaling-stroke;fill:none;stroke:#000000;stroke-width:0.264583;-inkscape-stroke:hairline"
         id="circle71"
         cx="290"
         cy="199.49998"
         r="32.5" />
      <circle
         style="vector-effect:non-scaling-stroke;fill:none;stroke:#000000;stroke-width:0.264583;-inkscape-stroke:hairline"
         id="circle72"
         cx="365"
         cy="199.49998"
         r="32.5" />
      <circle
         style="vector-effect:non-scaling-stroke;fill:none;stroke:#000000;stroke-width:0.264583;-inkscape-stroke:hairline"
         id="circle73"
         cx="440"
         cy="199.49998"
         r="32.5" />
    </g>
    <g
       id="g78"
       transform="translate(-534.68401,405.81415)">
      <circle
         style="vector-effect:non-scaling-stroke;fill:none;stroke:#000000;stroke-width:0.264583;-inkscape-stroke:hairline"
         id="circle74"
         cx="97.5"
         cy="134.49998"
         r="32.5" />
      <circle
         style="vector-effect:non-scaling-stroke;fill:none;stroke:#000000;stroke-width:0.264583;-inkscape-stroke:hairline"
         id="circle75"
         cx="172.5"
         cy="134.49998"
         r="32.5" />
      <circle
         style="vector-effect:non-scaling-stroke;fill:none;stroke:#000000;stroke-width:0.264583;-inkscape-stroke:hairline"
         id="circle76"
         cx="247.5"
         cy="134.49998"
         r="32.5" />
      <circle
         style="vector-effect:non-scaling-stroke;fill:none;stroke:#000000;stroke-width:0.264583;-inkscape-stroke:hairline"
         id="circle77"
         cx="322.5"
         cy="134.49998"
         r="32.5" />
      <circle
         style="vector-effect:non-scaling-stroke;fill:none;stroke:#000000;stroke-width:0.264583;-inkscape-stroke:hairline"
         id="circle78"
         cx="397.5"
         cy="134.49998"
         r="32.5" />
    </g>
    <g
       id="g82"
       transform="translate(-539.43401,373.18218)">
      <circle
         style="vector-effect:non-scaling-stroke;fill:none;stroke:#000000;stroke-width:0.264583;-inkscape-stroke:hairline"
         id="circle79"
         cx="139.75"
         cy="69.499992"
         r="32.5" />
      <circle
         style="vector-effect:non-scaling-stroke;fill:none;stroke:#000000;stroke-width:0.264583;-inkscape-stroke:hairline"
         id="circle80"
         cx="214.75"
         cy="69.499992"
         r="32.5" />
      <circle
         style="vector-effect:non-scaling-stroke;fill:none;stroke:#000000;stroke-width:0.264583;-inkscape-stroke:hairline"
         id="circle81"
         cx="289.75"
         cy="69.499992"
         r="32.5" />
      <circle
         style="vector-effect:non-scaling-stroke;fill:none;stroke:#000000;stroke-width:0.264583;-inkscape-stroke:hairline"
         id="circle82"
         cx="364.75"
         cy="69.499992"
         r="32.5" />
    </g>
    <g
       id="g85"
       transform="translate(-507.18401,340.55021)">
      <circle
         style="vector-effect:non-scaling-stroke;fill:none;stroke:#000000;stroke-width:0.264583;-inkscape-stroke:hairline"
         id="circle83"
         cx="145"
         cy="4.4999914"
         r="32.5" />
      <circle
         style="vector-effect:non-scaling-stroke;fill:none;stroke:#000000;stroke-width:0.264583;-inkscape-stroke:hairline"
         id="circle84"
         cx="220"
         cy="4.4999914"
         r="32.5" />
      <circle
         style="vector-effect:non-scaling-stroke;fill:none;stroke:#000000;stroke-width:0.264583;-inkscape-stroke:hairline"
         id="circle85"
         cx="295"
         cy="4.4999914"
         r="32.5" />
    </g>
    <g
       id="g87"
       transform="translate(-507.18401,307.91824)">
      <circle
         style="vector-effect:non-scaling-stroke;fill:none;stroke:#000000;stroke-width:0.264583;-inkscape-stroke:hairline"
         id="circle86"
         cx="182.5"
         cy="-60.500008"
         r="32.5" />
      <circle
         style="vector-effect:non-scaling-stroke;fill:none;stroke:#000000;stroke-width:0.264583;-inkscape-stroke:hairline"
         id="circle87"
         cx="257.5"
         cy="-60.500008"
         r="32.5" />
    </g>
    <circle
       style="vector-effect:non-scaling-stroke;fill:none;stroke:#000000;stroke-width:0.264583;-inkscape-stroke:hairline"
       id="circle88"
       cx="-287.18402"
       cy="149.78627"
       r="32.5" />
    <g
       id="g116"
       transform="translate(968.65427,-70.66171)">
      <g
         id="g95"
         transform="translate(-544.68401,471.07807)">
        <circle
           style="vector-effect:non-scaling-stroke;fill:none;stroke:#000000;stroke-width:0.264583;-inkscape-stroke:hairline"
           id="circle89"
           cx="32.5"
           cy="264.5"
           r="32.5" />
        <circle
           style="vector-effect:non-scaling-stroke;fill:none;stroke:#000000;stroke-width:0.264583;-inkscape-stroke:hairline"
           id="circle90"
           cx="107.5"
           cy="264.5"
           r="32.5" />
        <circle
           style="vector-effect:non-scaling-stroke;fill:none;stroke:#000000;stroke-width:0.264583;-inkscape-stroke:hairline"
           id="circle91"
           cx="182.5"
           cy="264.5"
           r="32.5" />
        <circle
           style="vector-effect:non-scaling-stroke;fill:none;stroke:#000000;stroke-width:0.264583;-inkscape-stroke:hairline"
           id="circle92"
           cx="257.5"
           cy="264.5"
           r="32.5" />
        <circle
           style="vector-effect:non-scaling-stroke;fill:none;stroke:#000000;stroke-width:0.264583;-inkscape-stroke:hairline"
           id="circle93"
           cx="332.5"
           cy="264.5"
           r="32.5" />
        <circle
           style="vector-effect:non-scaling-stroke;fill:none;stroke:#000000;stroke-width:0.264583;-inkscape-stroke:hairline"
           id="circle94"
           cx="407.5"
           cy="264.5"
           r="32.5" />
        <circle
           style="vector-effect:non-scaling-stroke;fill:none;stroke:#000000;stroke-width:0.264583;-inkscape-stroke:hairline"
           id="circle95"
           cx="482.5"
           cy="264.5"
           r="32.5" />
      </g>
      <g
         id="g101"
         transform="translate(-539.68401,438.44612)">
        <circle
           style="vector-effect:non-scaling-stroke;fill:none;stroke:#000000;stroke-width:0.264583;-inkscape-stroke:hairline"
           id="circle96"
           cx="65"
           cy="199.49998"
           r="32.5" />
        <circle
           style="vector-effect:non-scaling-stroke;fill:none;stroke:#000000;stroke-width:0.264583;-inkscape-stroke:hairline"
           id="circle97"
           cx="140"
           cy="199.49998"
           r="32.5" />
        <circle
           style="vector-effect:non-scaling-stroke;fill:none;stroke:#000000;stroke-width:0.264583;-inkscape-stroke:hairline"
           id="circle98"
           cx="215"
           cy="199.49998"
           r="32.5" />
        <circle
           style="vector-effect:non-scaling-stroke;fill:none;stroke:#000000;stroke-width:0.264583;-inkscape-stroke:hairline"
           id="circle99"
           cx="290"
           cy="199.49998"
           r="32.5" />
        <circle
           style="vector-effect:non-scaling-stroke;fill:none;stroke:#000000;stroke-width:0.264583;-inkscape-stroke:hairline"
           id="circle100"
           cx="365"
           cy="199.49998"
           r="32.5" />
        <circle
           style="vector-effect:non-scaling-stroke;fill:none;stroke:#000000;stroke-width:0.264583;-inkscape-stroke:hairline"
           id="circle101"
           cx="440"
           cy="199.49998"
           r="32.5" />
      </g>
      <g
         id="g106"
         transform="translate(-534.68401,405.81415)">
        <circle
           style="vector-effect:non-scaling-stroke;fill:none;stroke:#000000;stroke-width:0.264583;-inkscape-stroke:hairline"
           id="circle102"
           cx="97.5"
           cy="134.49998"
           r="32.5" />
        <circle
           style="vector-effect:non-scaling-stroke;fill:none;stroke:#000000;stroke-width:0.264583;-inkscape-stroke:hairline"
           id="circle103"
           cx="172.5"
           cy="134.49998"
           r="32.5" />
        <circle
           style="vector-effect:non-scaling-stroke;fill:none;stroke:#000000;stroke-width:0.264583;-inkscape-stroke:hairline"
           id="circle104"
           cx="247.5"
           cy="134.49998"
           r="32.5" />
        <circle
           style="vector-effect:non-scaling-stroke;fill:none;stroke:#000000;stroke-width:0.264583;-inkscape-stroke:hairline"
           id="circle105"
           cx="322.5"
           cy="134.49998"
           r="32.5" />
        <circle
           style="vector-effect:non-scaling-stroke;fill:none;stroke:#000000;stroke-width:0.264583;-inkscape-stroke:hairline"
           id="circle106"
           cx="397.5"
           cy="134.49998"
           r="32.5" />
      </g>
      <g
         id="g110"
         transform="translate(-539.43401,373.18218)">
        <circle
           style="vector-effect:non-scaling-stroke;fill:none;stroke:#000000;stroke-width:0.264583;-inkscape-stroke:hairline"
           id="circle107"
           cx="139.75"
           cy="69.499992"
           r="32.5" />
        <circle
           style="vector-effect:non-scaling-stroke;fill:none;stroke:#000000;stroke-width:0.264583;-inkscape-stroke:hairline"
           id="circle108"
           cx="214.75"
           cy="69.499992"
           r="32.5" />
        <circle
           style="vector-effect:non-scaling-stroke;fill:none;stroke:#000000;stroke-width:0.264583;-inkscape-stroke:hairline"
           id="circle109"
           cx="289.75"
           cy="69.499992"
           r="32.5" />
        <circle
           style="vector-effect:non-scaling-stroke;fill:none;stroke:#000000;stroke-width:0.264583;-inkscape-stroke:hairline"
           id="circle110"
           cx="364.75"
           cy="69.499992"
           r="32.5" />
      </g>
      <g
         id="g113"
         transform="translate(-507.18401,340.55021)">
        <circle
           style="vector-effect:non-scaling-stroke;fill:none;stroke:#000000;stroke-width:0.264583;-inkscape-stroke:hairline"
           id="circle111"
           cx="145"
           cy="4.4999914"
           r="32.5" />
        <circle
           style="vector-effect:non-scaling-stroke;fill:none;stroke:#000000;stroke-width:0.264583;-inkscape-stroke:hairline"
           id="circle112"
           cx="220"
           cy="4.4999914"
           r="32.5" />
        <circle
           style="vector-effect:non-scaling-stroke;fill:none;stroke:#000000;stroke-width:0.264583;-inkscape-stroke:hairline"
           id="circle113"
           cx="295"
           cy="4.4999914"
           r="32.5" />
      </g>
      <g
         id="g115"
         transform="translate(-507.18401,307.91824)">
        <circle
           style="vector-effect:non-scaling-stroke;fill:none;stroke:#000000;stroke-width:0.264583;-inkscape-stroke:hairline"
           id="circle114"
           cx="182.5"
           cy="-60.500008"
           r="32.5" />
        <circle
           style="vector-effect:non-scaling-stroke;fill:none;stroke:#000000;stroke-width:0.264583;-inkscape-stroke:hairline"
           id="circle115"
           cx="257.5"
           cy="-60.500008"
           r="32.5" />
      </g>
      <circle
         style="vector-effect:non-scaling-stroke;fill:none;stroke:#000000;stroke-width:0.264583;-inkscape-stroke:hairline"
         id="circle116"
         cx="-287.18402"
         cy="149.78627"
         r="32.5" />
    </g>
    <g
       id="g123"
       transform="translate(-544.68401,471.07807)" />
    <g
       id="g129"
       transform="translate(-539.68401,438.44612)" />
    <g
       id="g134"
       transform="translate(-534.68401,405.81415)" />
    <g
       id="g138"
       transform="translate(-539.43401,373.18218)" />
    <g
       id="g141"
       transform="translate(-507.18401,340.55021)" />
    <g
       id="g143"
       transform="translate(-507.18401,307.91824)" />
    <path
       id="circle144"
       style="vector-effect:non-scaling-stroke;fill:none;stroke:#000000;stroke-width:0.264583;-inkscape-stroke:hairline"
       d="M -287.1835 84.287362 C -321.47955 84.287362 -352.68338 115.4912 -352.68338 149.78724 C -352.68338 162.22855 -348.53878 174.23959 -341.66803 184.52517 C -368.62509 192.62817 -390.18342 218.92353 -390.18342 247.41797 C -390.18342 259.86018 -386.03765 271.87189 -379.166 282.15797 C -406.1239 290.26033 -427.68346 316.5557 -427.68346 345.05077 C -427.68346 357.49208 -423.53886 369.50364 -416.66811 379.78922 C -443.62516 387.89222 -465.18349 414.18707 -465.18349 442.68151 C -465.18349 455.12372 -461.03773 467.13594 -454.16608 477.42202 C -481.12397 485.52438 -502.68353 511.81923 -502.68353 540.31431 C -502.68353 552.75561 -498.53893 564.76717 -491.66818 575.05275 C -518.62523 583.15575 -540.18357 609.45112 -540.18357 637.94556 C -540.18357 650.38777 -536.0378 662.39948 -529.16615 672.68556 C -556.12405 680.78792 -577.6836 707.08328 -577.6836 735.57836 C -577.6836 769.8744 -546.47977 801.07823 -512.18372 801.07823 C -498.60524 801.07823 -485.54824 796.13568 -474.68369 788.09763 C -463.81913 796.13568 -450.76213 801.07823 -437.18365 801.07823 C -423.60517 801.07823 -410.54817 796.13568 -399.68361 788.09763 C -388.81906 796.13568 -375.76206 801.07823 -362.18358 801.07823 C -359.19405 801.07823 -356.22981 800.8385 -353.30867 800.37905 L -353.30867 953.56505 L -571.18219 953.56505 L -571.18219 1030.1154 L 9.8180054 1030.1154 L 9.8180054 953.56505 L -214.92952 953.56505 L -214.92952 801.01106 C -214.01693 801.05565 -213.10129 801.07823 -212.18343 801.07823 C -198.60495 801.07823 -185.54795 796.13568 -174.68339 788.09763 C -163.81884 796.13568 -150.76184 801.07823 -137.18336 801.07823 C -123.60488 801.07823 -110.54839 796.13568 -99.683838 788.09763 C -88.819285 796.13568 -75.762284 801.07823 -62.183801 801.07823 C -27.887758 801.07823 3.3165934 769.8744 3.3165934 735.57836 C 3.3165934 707.08328 -18.24348 680.78792 -45.201375 672.68556 C -38.329726 662.39948 -34.183443 650.38777 -34.183443 637.94556 C -34.183443 609.45112 -55.742292 583.15575 -82.699345 575.05275 C -75.828597 564.76717 -71.68348 552.75561 -71.68348 540.31431 C -71.68348 511.81923 -93.243036 485.52438 -120.20093 477.42202 C -113.32928 467.13594 -109.18352 455.12372 -109.18352 442.68151 C -109.18352 414.18707 -130.74236 387.89222 -157.69942 379.78922 C -150.82867 369.50364 -146.68355 357.49208 -146.68355 345.05077 C -146.68355 316.5557 -168.24311 290.26033 -195.20101 282.15797 C -188.32936 271.87189 -184.18359 259.86018 -184.18359 247.41797 C -184.18359 218.92353 -205.74192 192.62817 -232.69897 184.52517 C -225.82823 174.23959 -221.68363 162.22855 -221.68363 149.78724 C -221.68363 115.4912 -252.88746 84.287362 -287.1835 84.287362 z " />
    <g
       id="g172"
       transform="translate(1859.7034,-29.023898)">
      <g
         id="g151"
         transform="translate(-544.68401,471.07807)">
        <circle
           style="vector-effect:non-scaling-stroke;fill:none;stroke:#000000;stroke-width:0.264583;-inkscape-stroke:hairline"
           id="circle145"
           cx="32.5"
           cy="264.5"
           r="32.5" />
        <circle
           style="vector-effect:non-scaling-stroke;fill:none;stroke:#000000;stroke-width:0.264583;-inkscape-stroke:hairline"
           id="circle146"
           cx="107.5"
           cy="264.5"
           r="32.5" />
        <circle
           style="vector-effect:non-scaling-stroke;fill:none;stroke:#000000;stroke-width:0.264583;-inkscape-stroke:hairline"
           id="circle147"
           cx="182.5"
           cy="264.5"
           r="32.5" />
        <circle
           style="vector-effect:non-scaling-stroke;fill:none;stroke:#000000;stroke-width:0.264583;-inkscape-stroke:hairline"
           id="circle148"
           cx="257.5"
           cy="264.5"
           r="32.5" />
        <circle
           style="vector-effect:non-scaling-stroke;fill:none;stroke:#000000;stroke-width:0.264583;-inkscape-stroke:hairline"
           id="circle149"
           cx="332.5"
           cy="264.5"
           r="32.5" />
        <circle
           style="vector-effect:non-scaling-stroke;fill:none;stroke:#000000;stroke-width:0.264583;-inkscape-stroke:hairline"
           id="circle150"
           cx="407.5"
           cy="264.5"
           r="32.5" />
        <circle
           style="vector-effect:non-scaling-stroke;fill:none;stroke:#000000;stroke-width:0.264583;-inkscape-stroke:hairline"
           id="circle151"
           cx="482.5"
           cy="264.5"
           r="32.5" />
      </g>
      <g
         id="g157"
         transform="translate(-539.68401,438.44612)">
        <circle
           style="vector-effect:non-scaling-stroke;fill:none;stroke:#000000;stroke-width:0.264583;-inkscape-stroke:hairline"
           id="circle152"
           cx="65"
           cy="199.49998"
           r="32.5" />
        <circle
           style="vector-effect:non-scaling-stroke;fill:none;stroke:#000000;stroke-width:0.264583;-inkscape-stroke:hairline"
           id="circle153"
           cx="140"
           cy="199.49998"
           r="32.5" />
        <circle
           style="vector-effect:non-scaling-stroke;fill:none;stroke:#000000;stroke-width:0.264583;-inkscape-stroke:hairline"
           id="circle154"
           cx="215"
           cy="199.49998"
           r="32.5" />
        <circle
           style="vector-effect:non-scaling-stroke;fill:none;stroke:#000000;stroke-width:0.264583;-inkscape-stroke:hairline"
           id="circle155"
           cx="290"
           cy="199.49998"
           r="32.5" />
        <circle
           style="vector-effect:non-scaling-stroke;fill:none;stroke:#000000;stroke-width:0.264583;-inkscape-stroke:hairline"
           id="circle156"
           cx="365"
           cy="199.49998"
           r="32.5" />
        <circle
           style="vector-effect:non-scaling-stroke;fill:none;stroke:#000000;stroke-width:0.264583;-inkscape-stroke:hairline"
           id="circle157"
           cx="440"
           cy="199.49998"
           r="32.5" />
      </g>
      <g
         id="g162"
         transform="translate(-534.68401,405.81415)">
        <circle
           style="vector-effect:non-scaling-stroke;fill:none;stroke:#000000;stroke-width:0.264583;-inkscape-stroke:hairline"
           id="circle158"
           cx="97.5"
           cy="134.49998"
           r="32.5" />
        <circle
           style="vector-effect:non-scaling-stroke;fill:none;stroke:#000000;stroke-width:0.264583;-inkscape-stroke:hairline"
           id="circle159"
           cx="172.5"
           cy="134.49998"
           r="32.5" />
        <circle
           style="vector-effect:non-scaling-stroke;fill:none;stroke:#000000;stroke-width:0.264583;-inkscape-stroke:hairline"
           id="circle160"
           cx="247.5"
           cy="134.49998"
           r="32.5" />
        <circle
           style="vector-effect:non-scaling-stroke;fill:none;stroke:#000000;stroke-width:0.264583;-inkscape-stroke:hairline"
           id="circle161"
           cx="322.5"
           cy="134.49998"
           r="32.5" />
        <circle
           style="vector-effect:non-scaling-stroke;fill:none;stroke:#000000;stroke-width:0.264583;-inkscape-stroke:hairline"
           id="circle162"
           cx="397.5"
           cy="134.49998"
           r="32.5" />
      </g>
      <g
         id="g166"
         transform="translate(-539.43401,373.18218)">
        <circle
           style="vector-effect:non-scaling-stroke;fill:none;stroke:#000000;stroke-width:0.264583;-inkscape-stroke:hairline"
           id="circle163"
           cx="139.75"
           cy="69.499992"
           r="32.5" />
        <circle
           style="vector-effect:non-scaling-stroke;fill:none;stroke:#000000;stroke-width:0.264583;-inkscape-stroke:hairline"
           id="circle164"
           cx="214.75"
           cy="69.499992"
           r="32.5" />
        <circle
           style="vector-effect:non-scaling-stroke;fill:none;stroke:#000000;stroke-width:0.264583;-inkscape-stroke:hairline"
           id="circle165"
           cx="289.75"
           cy="69.499992"
           r="32.5" />
        <circle
           style="vector-effect:non-scaling-stroke;fill:none;stroke:#000000;stroke-width:0.264583;-inkscape-stroke:hairline"
           id="circle166"
           cx="364.75"
           cy="69.499992"
           r="32.5" />
      </g>
      <g
         id="g169"
         transform="translate(-507.18401,340.55021)">
        <circle
           style="vector-effect:non-scaling-stroke;fill:none;stroke:#000000;stroke-width:0.264583;-inkscape-stroke:hairline"
           id="circle167"
           cx="145"
           cy="4.4999914"
           r="32.5" />
        <circle
           style="vector-effect:non-scaling-stroke;fill:none;stroke:#000000;stroke-width:0.264583;-inkscape-stroke:hairline"
           id="circle168"
           cx="220"
           cy="4.4999914"
           r="32.5" />
        <circle
           style="vector-effect:non-scaling-stroke;fill:none;stroke:#000000;stroke-width:0.264583;-inkscape-stroke:hairline"
           id="circle169"
           cx="295"
           cy="4.4999914"
           r="32.5" />
      </g>
      <g
         id="g171"
         transform="translate(-507.18401,307.91824)">
        <circle
           style="vector-effect:non-scaling-stroke;fill:none;stroke:#000000;stroke-width:0.264583;-inkscape-stroke:hairline"
           id="circle170"
           cx="182.5"
           cy="-60.500008"
           r="32.5" />
        <circle
           style="vector-effect:non-scaling-stroke;fill:none;stroke:#000000;stroke-width:0.264583;-inkscape-stroke:hairline"
           id="circle171"
           cx="257.5"
           cy="-60.500008"
           r="32.5" />
      </g>
      <circle
         style="vector-effect:non-scaling-stroke;fill:none;stroke:#000000;stroke-width:0.264583;-inkscape-stroke:hairline"
         id="circle172"
         cx="-287.18402"
         cy="149.78627"
         r="32.5" />
    </g>
  </g>
</svg>
