<?xml version="1.0" encoding="utf-8"?>
<!-- Generator: Adobe Illustrator 19.0.0, SVG Export Plug-In . SVG Version: 6.00 Build 0)  -->
<svg xmlns="http://www.w3.org/2000/svg" xmlns:xlink="http://www.w3.org/1999/xlink" version="1.1" id="Layer_1" x="0px" y="0px" viewBox="0 0 1368 792" style="enable-background:new 0 0 1368 792;" xml:space="preserve">
<style type="text/css">
	.st0{fill:none;stroke:#000000;stroke-width:2.232;stroke-miterlimit:10;}
</style>
<path id="XMLID_2_" class="st0" d="M1278.8,772.9H109.4c-20.4,0-37-16.6-37-37V59.6c0-20.4,16.6-37,37-37h1169.4  c20.4,0,37,16.6,37,37v676.4C1315.8,756.4,1299.3,772.9,1278.8,772.9z"/>
<g id="XMLID_1_">
	<path id="XMLID_1037_" class="st0" d="M100.1,115.4c0.6,4,4,6,9.3,6.2c3.9,0.2,7.9,0,11.8,0c4.2,0,8.4,0.1,12.6,0   c5.3-0.2,8.8-2.1,9.3-6.2c0.5-3.9-1.5-7.3-6.9-7.6c-9.7-0.6-19.6-0.6-29.3-0.1C101.6,108,99.5,111.6,100.1,115.4z"/>
	<path id="XMLID_1036_" class="st0" d="M156.3,59.2c0.6,4,4,6,9.3,6.2c3.9,0.2,7.9,0,11.8,0c4.2,0,8.4,0.1,12.6,0   c5.3-0.2,8.8-2.1,9.3-6.2c0.5-3.9-1.5-7.3-6.9-7.6c-9.7-0.6-19.6-0.6-29.3-0.1C157.9,51.8,155.8,55.3,156.3,59.2z"/>
	<path id="XMLID_1035_" class="st0" d="M156.3,172.5c0.6,4,4,6,9.3,6.2c3.9,0.2,7.9,0,11.8,0c4.2,0,8.4,0.1,12.6,0   c5.3-0.2,8.8-2.1,9.3-6.2c0.5-3.9-1.5-7.3-6.9-7.6c-9.7-0.6-19.6-0.6-29.3-0.1C157.9,165.2,155.8,168.7,156.3,172.5z"/>
	<path id="XMLID_1034_" class="st0" d="M100.1,228.4c0.6,4,4,6,9.3,6.2c3.9,0.2,7.9,0,11.8,0c4.2,0,8.4,0.1,12.6,0   c5.3-0.2,8.8-2.1,9.3-6.2c0.5-3.9-1.5-7.3-6.9-7.6c-9.7-0.6-19.6-0.6-29.3-0.1C101.6,221,99.5,224.6,100.1,228.4z"/>
	<path id="XMLID_1033_" class="st0" d="M156.3,285.5c0.6,4,4,6,9.3,6.2c3.9,0.2,7.9,0,11.8,0c4.2,0,8.4,0.1,12.6,0   c5.3-0.2,8.8-2.1,9.3-6.2c0.5-3.9-1.5-7.3-6.9-7.6c-9.7-0.6-19.6-0.6-29.3-0.1C157.9,278.2,155.8,281.7,156.3,285.5z"/>
	<path id="XMLID_1043_" class="st0" d="M214.6,115.4c0.6,4,4,6,9.3,6.2c3.9,0.2,7.9,0,11.8,0c4.2,0,8.4,0.1,12.6,0   c5.3-0.2,8.8-2.1,9.3-6.2c0.5-3.9-1.5-7.3-6.9-7.6c-9.7-0.6-19.6-0.6-29.3-0.1C216.1,108,214,111.6,214.6,115.4z"/>
	<path id="XMLID_1042_" class="st0" d="M270.8,59.2c0.6,4,4,6,9.3,6.2c3.9,0.2,7.9,0,11.8,0c4.2,0,8.4,0.1,12.6,0   c5.3-0.2,8.8-2.1,9.3-6.2c0.5-3.9-1.5-7.3-6.9-7.6c-9.7-0.6-19.6-0.6-29.3-0.1C272.4,51.8,270.3,55.3,270.8,59.2z"/>
	<path id="XMLID_1041_" class="st0" d="M270.8,172.5c0.6,4,4,6,9.3,6.2c3.9,0.2,7.9,0,11.8,0c4.2,0,8.4,0.1,12.6,0   c5.3-0.2,8.8-2.1,9.3-6.2c0.5-3.9-1.5-7.3-6.9-7.6c-9.7-0.6-19.6-0.6-29.3-0.1C272.4,165.2,270.3,168.7,270.8,172.5z"/>
	<path id="XMLID_1040_" class="st0" d="M214.6,228.4c0.6,4,4,6,9.3,6.2c3.9,0.2,7.9,0,11.8,0c4.2,0,8.4,0.1,12.6,0   c5.3-0.2,8.8-2.1,9.3-6.2c0.5-3.9-1.5-7.3-6.9-7.6c-9.7-0.6-19.6-0.6-29.3-0.1C216.1,221,214,224.6,214.6,228.4z"/>
	<path id="XMLID_1039_" class="st0" d="M270.8,285.5c0.6,4,4,6,9.3,6.2c3.9,0.2,7.9,0,11.8,0c4.2,0,8.4,0.1,12.6,0   c5.3-0.2,8.8-2.1,9.3-6.2c0.5-3.9-1.5-7.3-6.9-7.6c-9.7-0.6-19.6-0.6-29.3-0.1C272.4,278.2,270.3,281.7,270.8,285.5z"/>
	<path id="XMLID_1049_" class="st0" d="M329.1,115.4c0.6,4,4,6,9.3,6.2c3.9,0.2,7.9,0,11.8,0c4.2,0,8.4,0.1,12.6,0   c5.3-0.2,8.8-2.1,9.3-6.2c0.5-3.9-1.5-7.3-6.9-7.6c-9.7-0.6-19.6-0.6-29.3-0.1C330.6,108,328.5,111.6,329.1,115.4z"/>
	<path id="XMLID_1048_" class="st0" d="M385.3,59.2c0.6,4,4,6,9.3,6.2c3.9,0.2,7.9,0,11.8,0c4.2,0,8.4,0.1,12.6,0   c5.3-0.2,8.8-2.1,9.3-6.2c0.5-3.9-1.5-7.3-6.9-7.6c-9.7-0.6-19.6-0.6-29.3-0.1C386.9,51.8,384.8,55.3,385.3,59.2z"/>
	<path id="XMLID_1047_" class="st0" d="M385.3,172.5c0.6,4,4,6,9.3,6.2c3.9,0.2,7.9,0,11.8,0c4.2,0,8.4,0.1,12.6,0   c5.3-0.2,8.8-2.1,9.3-6.2c0.5-3.9-1.5-7.3-6.9-7.6c-9.7-0.6-19.6-0.6-29.3-0.1C386.9,165.2,384.8,168.7,385.3,172.5z"/>
	<path id="XMLID_1046_" class="st0" d="M329.1,228.4c0.6,4,4,6,9.3,6.2c3.9,0.2,7.9,0,11.8,0c4.2,0,8.4,0.1,12.6,0   c5.3-0.2,8.8-2.1,9.3-6.2c0.5-3.9-1.5-7.3-6.9-7.6c-9.7-0.6-19.6-0.6-29.3-0.1C330.6,221,328.5,224.6,329.1,228.4z"/>
	<path id="XMLID_1045_" class="st0" d="M385.3,285.5c0.6,4,4,6,9.3,6.2c3.9,0.2,7.9,0,11.8,0c4.2,0,8.4,0.1,12.6,0   c5.3-0.2,8.8-2.1,9.3-6.2c0.5-3.9-1.5-7.3-6.9-7.6c-9.7-0.6-19.6-0.6-29.3-0.1C386.9,278.2,384.8,281.7,385.3,285.5z"/>
	<path id="XMLID_1055_" class="st0" d="M443.6,115.4c0.6,4,4,6,9.3,6.2c3.9,0.2,7.9,0,11.8,0c4.2,0,8.4,0.1,12.6,0   c5.3-0.2,8.8-2.1,9.3-6.2c0.5-3.9-1.5-7.3-6.9-7.6c-9.7-0.6-19.6-0.6-29.3-0.1C445.1,108,443,111.6,443.6,115.4z"/>
	<path id="XMLID_1054_" class="st0" d="M499.8,59.2c0.6,4,4,6,9.3,6.2c3.9,0.2,7.9,0,11.8,0c4.2,0,8.4,0.1,12.6,0   c5.3-0.2,8.8-2.1,9.3-6.2c0.5-3.9-1.5-7.3-6.9-7.6c-9.7-0.6-19.6-0.6-29.3-0.1C501.4,51.8,499.3,55.3,499.8,59.2z"/>
	<path id="XMLID_1053_" class="st0" d="M499.8,172.5c0.6,4,4,6,9.3,6.2c3.9,0.2,7.9,0,11.8,0c4.2,0,8.4,0.1,12.6,0   c5.3-0.2,8.8-2.1,9.3-6.2c0.5-3.9-1.5-7.3-6.9-7.6c-9.7-0.6-19.6-0.6-29.3-0.1C501.4,165.2,499.3,168.7,499.8,172.5z"/>
	<path id="XMLID_1052_" class="st0" d="M443.6,228.4c0.6,4,4,6,9.3,6.2c3.9,0.2,7.9,0,11.8,0c4.2,0,8.4,0.1,12.6,0   c5.3-0.2,8.8-2.1,9.3-6.2c0.5-3.9-1.5-7.3-6.9-7.6c-9.7-0.6-19.6-0.6-29.3-0.1C445.1,221,443,224.6,443.6,228.4z"/>
	<path id="XMLID_1051_" class="st0" d="M499.8,285.5c0.6,4,4,6,9.3,6.2c3.9,0.2,7.9,0,11.8,0c4.2,0,8.4,0.1,12.6,0   c5.3-0.2,8.8-2.1,9.3-6.2c0.5-3.9-1.5-7.3-6.9-7.6c-9.7-0.6-19.6-0.6-29.3-0.1C501.4,278.2,499.3,281.7,499.8,285.5z"/>
	<path id="XMLID_1061_" class="st0" d="M558.1,115.4c0.6,4,4,6,9.3,6.2c3.9,0.2,7.9,0,11.8,0c4.2,0,8.4,0.1,12.6,0   c5.3-0.2,8.8-2.1,9.3-6.2c0.5-3.9-1.5-7.3-6.9-7.6c-9.7-0.6-19.6-0.6-29.3-0.1C559.6,108,557.5,111.6,558.1,115.4z"/>
	<path id="XMLID_1060_" class="st0" d="M614.3,59.2c0.6,4,4,6,9.3,6.2c3.9,0.2,7.9,0,11.8,0c4.2,0,8.4,0.1,12.6,0   c5.3-0.2,8.8-2.1,9.3-6.2c0.5-3.9-1.5-7.3-6.9-7.6c-9.7-0.6-19.6-0.6-29.3-0.1C615.9,51.8,613.8,55.3,614.3,59.2z"/>
	<path id="XMLID_1059_" class="st0" d="M614.3,172.5c0.6,4,4,6,9.3,6.2c3.9,0.2,7.9,0,11.8,0c4.2,0,8.4,0.1,12.6,0   c5.3-0.2,8.8-2.1,9.3-6.2c0.5-3.9-1.5-7.3-6.9-7.6c-9.7-0.6-19.6-0.6-29.3-0.1C615.9,165.2,613.8,168.7,614.3,172.5z"/>
	<path id="XMLID_1058_" class="st0" d="M558.1,228.4c0.6,4,4,6,9.3,6.2c3.9,0.2,7.9,0,11.8,0c4.2,0,8.4,0.1,12.6,0   c5.3-0.2,8.8-2.1,9.3-6.2c0.5-3.9-1.5-7.3-6.9-7.6c-9.7-0.6-19.6-0.6-29.3-0.1C559.6,221,557.5,224.6,558.1,228.4z"/>
	<path id="XMLID_1057_" class="st0" d="M614.3,285.5c0.6,4,4,6,9.3,6.2c3.9,0.2,7.9,0,11.8,0c4.2,0,8.4,0.1,12.6,0   c5.3-0.2,8.8-2.1,9.3-6.2c0.5-3.9-1.5-7.3-6.9-7.6c-9.7-0.6-19.6-0.6-29.3-0.1C615.9,278.2,613.8,281.7,614.3,285.5z"/>
	<path id="XMLID_1067_" class="st0" d="M672.6,115.4c0.6,4,4,6,9.3,6.2c3.9,0.2,7.9,0,11.8,0c4.2,0,8.4,0.1,12.6,0   c5.3-0.2,8.8-2.1,9.3-6.2c0.5-3.9-1.5-7.3-6.9-7.6c-9.7-0.6-19.6-0.6-29.3-0.1C674.1,108,672,111.6,672.6,115.4z"/>
	<path id="XMLID_1066_" class="st0" d="M728.8,59.2c0.6,4,4,6,9.3,6.2c3.9,0.2,7.9,0,11.8,0c4.2,0,8.4,0.1,12.6,0   c5.3-0.2,8.8-2.1,9.3-6.2c0.5-3.9-1.5-7.3-6.9-7.6c-9.7-0.6-19.6-0.6-29.3-0.1C730.4,51.8,728.3,55.3,728.8,59.2z"/>
	<path id="XMLID_1065_" class="st0" d="M728.8,172.5c0.6,4,4,6,9.3,6.2c3.9,0.2,7.9,0,11.8,0c4.2,0,8.4,0.1,12.6,0   c5.3-0.2,8.8-2.1,9.3-6.2c0.5-3.9-1.5-7.3-6.9-7.6c-9.7-0.6-19.6-0.6-29.3-0.1C730.4,165.2,728.3,168.7,728.8,172.5z"/>
	<path id="XMLID_1064_" class="st0" d="M672.6,228.4c0.6,4,4,6,9.3,6.2c3.9,0.2,7.9,0,11.8,0c4.2,0,8.4,0.1,12.6,0   c5.3-0.2,8.8-2.1,9.3-6.2c0.5-3.9-1.5-7.3-6.9-7.6c-9.7-0.6-19.6-0.6-29.3-0.1C674.1,221,672,224.6,672.6,228.4z"/>
	<path id="XMLID_1063_" class="st0" d="M728.8,285.5c0.6,4,4,6,9.3,6.2c3.9,0.2,7.9,0,11.8,0c4.2,0,8.4,0.1,12.6,0   c5.3-0.2,8.8-2.1,9.3-6.2c0.5-3.9-1.5-7.3-6.9-7.6c-9.7-0.6-19.6-0.6-29.3-0.1C730.4,278.2,728.3,281.7,728.8,285.5z"/>
	<path id="XMLID_1073_" class="st0" d="M787.1,115.4c0.6,4,4,6,9.3,6.2c3.9,0.2,7.9,0,11.8,0c4.2,0,8.4,0.1,12.6,0   c5.3-0.2,8.8-2.1,9.3-6.2c0.5-3.9-1.5-7.3-6.9-7.6c-9.7-0.6-19.6-0.6-29.3-0.1C788.6,108,786.5,111.6,787.1,115.4z"/>
	<path id="XMLID_1072_" class="st0" d="M843.3,59.2c0.6,4,4,6,9.3,6.2c3.9,0.2,7.9,0,11.8,0c4.2,0,8.4,0.1,12.6,0   c5.3-0.2,8.8-2.1,9.3-6.2c0.5-3.9-1.5-7.3-6.9-7.6c-9.7-0.6-19.6-0.6-29.3-0.1C844.9,51.8,842.8,55.3,843.3,59.2z"/>
	<path id="XMLID_1071_" class="st0" d="M843.3,172.5c0.6,4,4,6,9.3,6.2c3.9,0.2,7.9,0,11.8,0c4.2,0,8.4,0.1,12.6,0   c5.3-0.2,8.8-2.1,9.3-6.2c0.5-3.9-1.5-7.3-6.9-7.6c-9.7-0.6-19.6-0.6-29.3-0.1C844.9,165.2,842.8,168.7,843.3,172.5z"/>
	<path id="XMLID_1070_" class="st0" d="M787.1,228.4c0.6,4,4,6,9.3,6.2c3.9,0.2,7.9,0,11.8,0c4.2,0,8.4,0.1,12.6,0   c5.3-0.2,8.8-2.1,9.3-6.2c0.5-3.9-1.5-7.3-6.9-7.6c-9.7-0.6-19.6-0.6-29.3-0.1C788.6,221,786.5,224.6,787.1,228.4z"/>
	<path id="XMLID_1069_" class="st0" d="M843.3,285.5c0.6,4,4,6,9.3,6.2c3.9,0.2,7.9,0,11.8,0c4.2,0,8.4,0.1,12.6,0   c5.3-0.2,8.8-2.1,9.3-6.2c0.5-3.9-1.5-7.3-6.9-7.6c-9.7-0.6-19.6-0.6-29.3-0.1C844.9,278.2,842.8,281.7,843.3,285.5z"/>
	<path id="XMLID_1079_" class="st0" d="M901.6,115.4c0.6,4,4,6,9.3,6.2c3.9,0.2,7.9,0,11.8,0c4.2,0,8.4,0.1,12.6,0   c5.3-0.2,8.8-2.1,9.3-6.2c0.5-3.9-1.5-7.3-6.9-7.6c-9.7-0.6-19.6-0.6-29.3-0.1C903.1,108,901,111.6,901.6,115.4z"/>
	<path id="XMLID_1078_" class="st0" d="M957.8,59.2c0.6,4,4,6,9.3,6.2c3.9,0.2,7.9,0,11.8,0c4.2,0,8.4,0.1,12.6,0   c5.3-0.2,8.8-2.1,9.3-6.2c0.5-3.9-1.5-7.3-6.9-7.6c-9.7-0.6-19.6-0.6-29.3-0.1C959.4,51.8,957.3,55.3,957.8,59.2z"/>
	<path id="XMLID_1077_" class="st0" d="M957.8,172.5c0.6,4,4,6,9.3,6.2c3.9,0.2,7.9,0,11.8,0c4.2,0,8.4,0.1,12.6,0   c5.3-0.2,8.8-2.1,9.3-6.2c0.5-3.9-1.5-7.3-6.9-7.6c-9.7-0.6-19.6-0.6-29.3-0.1C959.4,165.2,957.3,168.7,957.8,172.5z"/>
	<path id="XMLID_1076_" class="st0" d="M901.6,228.4c0.6,4,4,6,9.3,6.2c3.9,0.2,7.9,0,11.8,0c4.2,0,8.4,0.1,12.6,0   c5.3-0.2,8.8-2.1,9.3-6.2c0.5-3.9-1.5-7.3-6.9-7.6c-9.7-0.6-19.6-0.6-29.3-0.1C903.1,221,901,224.6,901.6,228.4z"/>
	<path id="XMLID_1075_" class="st0" d="M957.8,285.5c0.6,4,4,6,9.3,6.2c3.9,0.2,7.9,0,11.8,0c4.2,0,8.4,0.1,12.6,0   c5.3-0.2,8.8-2.1,9.3-6.2c0.5-3.9-1.5-7.3-6.9-7.6c-9.7-0.6-19.6-0.6-29.3-0.1C959.4,278.2,957.3,281.7,957.8,285.5z"/>
	<path id="XMLID_1085_" class="st0" d="M1016.1,115.4c0.6,4,4,6,9.3,6.2c3.9,0.2,7.9,0,11.8,0c4.2,0,8.4,0.1,12.6,0   c5.3-0.2,8.8-2.1,9.3-6.2c0.5-3.9-1.5-7.3-6.9-7.6c-9.7-0.6-19.6-0.6-29.3-0.1C1017.6,108,1015.5,111.6,1016.1,115.4z"/>
	<path id="XMLID_1084_" class="st0" d="M1072.3,59.2c0.6,4,4,6,9.3,6.2c3.9,0.2,7.9,0,11.8,0c4.2,0,8.4,0.1,12.6,0   c5.3-0.2,8.8-2.1,9.3-6.2c0.5-3.9-1.5-7.3-6.9-7.6c-9.7-0.6-19.6-0.6-29.3-0.1C1073.9,51.8,1071.8,55.3,1072.3,59.2z"/>
	<path id="XMLID_1083_" class="st0" d="M1072.3,172.5c0.6,4,4,6,9.3,6.2c3.9,0.2,7.9,0,11.8,0c4.2,0,8.4,0.1,12.6,0   c5.3-0.2,8.8-2.1,9.3-6.2c0.5-3.9-1.5-7.3-6.9-7.6c-9.7-0.6-19.6-0.6-29.3-0.1C1073.9,165.2,1071.8,168.7,1072.3,172.5z"/>
	<path id="XMLID_1082_" class="st0" d="M1016.1,228.4c0.6,4,4,6,9.3,6.2c3.9,0.2,7.9,0,11.8,0c4.2,0,8.4,0.1,12.6,0   c5.3-0.2,8.8-2.1,9.3-6.2c0.5-3.9-1.5-7.3-6.9-7.6c-9.7-0.6-19.6-0.6-29.3-0.1C1017.6,221,1015.5,224.6,1016.1,228.4z"/>
	<path id="XMLID_1081_" class="st0" d="M1072.3,285.5c0.6,4,4,6,9.3,6.2c3.9,0.2,7.9,0,11.8,0c4.2,0,8.4,0.1,12.6,0   c5.3-0.2,8.8-2.1,9.3-6.2c0.5-3.9-1.5-7.3-6.9-7.6c-9.7-0.6-19.6-0.6-29.3-0.1C1073.9,278.2,1071.8,281.7,1072.3,285.5z"/>
	<path id="XMLID_1091_" class="st0" d="M1130.6,115.4c0.6,4,4,6,9.3,6.2c3.9,0.2,7.9,0,11.8,0c4.2,0,8.4,0.1,12.6,0   c5.3-0.2,8.8-2.1,9.3-6.2c0.5-3.9-1.5-7.3-6.9-7.6c-9.7-0.6-19.6-0.6-29.3-0.1C1132.1,108,1130,111.6,1130.6,115.4z"/>
	<path id="XMLID_1090_" class="st0" d="M1186.8,59.2c0.6,4,4,6,9.3,6.2c3.9,0.2,7.9,0,11.8,0c4.2,0,8.4,0.1,12.6,0   c5.3-0.2,8.8-2.1,9.3-6.2c0.5-3.9-1.5-7.3-6.9-7.6c-9.7-0.6-19.6-0.6-29.3-0.1C1188.4,51.8,1186.3,55.3,1186.8,59.2z"/>
	<path id="XMLID_1089_" class="st0" d="M1186.8,172.5c0.6,4,4,6,9.3,6.2c3.9,0.2,7.9,0,11.8,0c4.2,0,8.4,0.1,12.6,0   c5.3-0.2,8.8-2.1,9.3-6.2c0.5-3.9-1.5-7.3-6.9-7.6c-9.7-0.6-19.6-0.6-29.3-0.1C1188.4,165.2,1186.3,168.7,1186.8,172.5z"/>
	<path id="XMLID_1088_" class="st0" d="M1130.6,228.4c0.6,4,4,6,9.3,6.2c3.9,0.2,7.9,0,11.8,0c4.2,0,8.4,0.1,12.6,0   c5.3-0.2,8.8-2.1,9.3-6.2c0.5-3.9-1.5-7.3-6.9-7.6c-9.7-0.6-19.6-0.6-29.3-0.1C1132.1,221,1130,224.6,1130.6,228.4z"/>
	<path id="XMLID_1087_" class="st0" d="M1186.8,285.5c0.6,4,4,6,9.3,6.2c3.9,0.2,7.9,0,11.8,0c4.2,0,8.4,0.1,12.6,0   c5.3-0.2,8.8-2.1,9.3-6.2c0.5-3.9-1.5-7.3-6.9-7.6c-9.7-0.6-19.6-0.6-29.3-0.1C1188.4,278.2,1186.3,281.7,1186.8,285.5z"/>
	<path id="XMLID_1097_" class="st0" d="M1245.1,115.4c0.6,4,4,6,9.3,6.2c3.9,0.2,7.9,0,11.8,0c4.2,0,8.4,0.1,12.6,0   c5.3-0.2,8.8-2.1,9.3-6.2c0.5-3.9-1.5-7.3-6.9-7.6c-9.7-0.6-19.6-0.6-29.3-0.1C1246.6,108,1244.5,111.6,1245.1,115.4z"/>
	<path id="XMLID_1094_" class="st0" d="M1245.1,228.4c0.6,4,4,6,9.3,6.2c3.9,0.2,7.9,0,11.8,0c4.2,0,8.4,0.1,12.6,0   c5.3-0.2,8.8-2.1,9.3-6.2c0.5-3.9-1.5-7.3-6.9-7.6c-9.7-0.6-19.6-0.6-29.3-0.1C1246.6,221,1244.5,224.6,1245.1,228.4z"/>
	<path id="XMLID_92_" class="st0" d="M100.1,568c0.6,4,4,6,9.3,6.2c3.9,0.2,7.9,0,11.8,0c4.2,0,8.4,0.1,12.6,0   c5.3-0.2,8.8-2.1,9.3-6.2c0.5-3.9-1.5-7.3-6.9-7.6c-9.7-0.6-19.6-0.6-29.3-0.1C101.6,560.6,99.5,564.1,100.1,568z"/>
	<path id="XMLID_91_" class="st0" d="M156.3,625.1c0.6,4,4,6,9.3,6.2c3.9,0.2,7.9,0,11.8,0c4.2,0,8.4,0.1,12.6,0   c5.3-0.2,8.8-2.1,9.3-6.2c0.5-3.9-1.5-7.3-6.9-7.6c-9.7-0.6-19.6-0.6-29.3-0.1C157.9,617.7,155.8,621.3,156.3,625.1z"/>
	<path id="XMLID_90_" class="st0" d="M100.1,681c0.6,4,4,6,9.3,6.2c3.9,0.2,7.9,0,11.8,0c4.2,0,8.4,0.1,12.6,0   c5.3-0.2,8.8-2.1,9.3-6.2c0.5-3.9-1.5-7.3-6.9-7.6c-9.7-0.6-19.6-0.6-29.3-0.1C101.6,673.6,99.5,677.1,100.1,681z"/>
	<path id="XMLID_89_" class="st0" d="M156.3,738.1c0.6,4,4,6,9.3,6.2c3.9,0.2,7.9,0,11.8,0c4.2,0,8.4,0.1,12.6,0   c5.3-0.2,8.8-2.1,9.3-6.2c0.5-3.9-1.5-7.3-6.9-7.6c-9.7-0.6-19.6-0.6-29.3-0.1C157.9,730.7,155.8,734.3,156.3,738.1z"/>
	<path id="XMLID_88_" class="st0" d="M214.6,568c0.6,4,4,6,9.3,6.2c3.9,0.2,7.9,0,11.8,0c4.2,0,8.4,0.1,12.6,0   c5.3-0.2,8.8-2.1,9.3-6.2c0.5-3.9-1.5-7.3-6.9-7.6c-9.7-0.6-19.6-0.6-29.3-0.1C216.1,560.6,214,564.1,214.6,568z"/>
	<path id="XMLID_87_" class="st0" d="M270.8,625.1c0.6,4,4,6,9.3,6.2c3.9,0.2,7.9,0,11.8,0c4.2,0,8.4,0.1,12.6,0   c5.3-0.2,8.8-2.1,9.3-6.2c0.5-3.9-1.5-7.3-6.9-7.6c-9.7-0.6-19.6-0.6-29.3-0.1C272.4,617.7,270.3,621.3,270.8,625.1z"/>
	<path id="XMLID_86_" class="st0" d="M214.6,681c0.6,4,4,6,9.3,6.2c3.9,0.2,7.9,0,11.8,0c4.2,0,8.4,0.1,12.6,0   c5.3-0.2,8.8-2.1,9.3-6.2c0.5-3.9-1.5-7.3-6.9-7.6c-9.7-0.6-19.6-0.6-29.3-0.1C216.1,673.6,214,677.1,214.6,681z"/>
	<path id="XMLID_85_" class="st0" d="M270.8,738.1c0.6,4,4,6,9.3,6.2c3.9,0.2,7.9,0,11.8,0c4.2,0,8.4,0.1,12.6,0   c5.3-0.2,8.8-2.1,9.3-6.2c0.5-3.9-1.5-7.3-6.9-7.6c-9.7-0.6-19.6-0.6-29.3-0.1C272.4,730.7,270.3,734.3,270.8,738.1z"/>
	<path id="XMLID_84_" class="st0" d="M329.1,568c0.6,4,4,6,9.3,6.2c3.9,0.2,7.9,0,11.8,0c4.2,0,8.4,0.1,12.6,0   c5.3-0.2,8.8-2.1,9.3-6.2c0.5-3.9-1.5-7.3-6.9-7.6c-9.7-0.6-19.6-0.6-29.3-0.1C330.6,560.6,328.5,564.1,329.1,568z"/>
	<path id="XMLID_83_" class="st0" d="M385.3,625.1c0.6,4,4,6,9.3,6.2c3.9,0.2,7.9,0,11.8,0c4.2,0,8.4,0.1,12.6,0   c5.3-0.2,8.8-2.1,9.3-6.2c0.5-3.9-1.5-7.3-6.9-7.6c-9.7-0.6-19.6-0.6-29.3-0.1C386.9,617.7,384.8,621.3,385.3,625.1z"/>
	<path id="XMLID_82_" class="st0" d="M329.1,681c0.6,4,4,6,9.3,6.2c3.9,0.2,7.9,0,11.8,0c4.2,0,8.4,0.1,12.6,0   c5.3-0.2,8.8-2.1,9.3-6.2c0.5-3.9-1.5-7.3-6.9-7.6c-9.7-0.6-19.6-0.6-29.3-0.1C330.6,673.6,328.5,677.1,329.1,681z"/>
	<path id="XMLID_81_" class="st0" d="M385.3,738.1c0.6,4,4,6,9.3,6.2c3.9,0.2,7.9,0,11.8,0c4.2,0,8.4,0.1,12.6,0   c5.3-0.2,8.8-2.1,9.3-6.2c0.5-3.9-1.5-7.3-6.9-7.6c-9.7-0.6-19.6-0.6-29.3-0.1C386.9,730.7,384.8,734.3,385.3,738.1z"/>
	<path id="XMLID_80_" class="st0" d="M443.6,568c0.6,4,4,6,9.3,6.2c3.9,0.2,7.9,0,11.8,0c4.2,0,8.4,0.1,12.6,0   c5.3-0.2,8.8-2.1,9.3-6.2c0.5-3.9-1.5-7.3-6.9-7.6c-9.7-0.6-19.6-0.6-29.3-0.1C445.1,560.6,443,564.1,443.6,568z"/>
	<path id="XMLID_79_" class="st0" d="M499.8,625.1c0.6,4,4,6,9.3,6.2c3.9,0.2,7.9,0,11.8,0c4.2,0,8.4,0.1,12.6,0   c5.3-0.2,8.8-2.1,9.3-6.2c0.5-3.9-1.5-7.3-6.9-7.6c-9.7-0.6-19.6-0.6-29.3-0.1C501.4,617.7,499.3,621.3,499.8,625.1z"/>
	<path id="XMLID_78_" class="st0" d="M443.6,681c0.6,4,4,6,9.3,6.2c3.9,0.2,7.9,0,11.8,0c4.2,0,8.4,0.1,12.6,0   c5.3-0.2,8.8-2.1,9.3-6.2c0.5-3.9-1.5-7.3-6.9-7.6c-9.7-0.6-19.6-0.6-29.3-0.1C445.1,673.6,443,677.1,443.6,681z"/>
	<path id="XMLID_77_" class="st0" d="M499.8,738.1c0.6,4,4,6,9.3,6.2c3.9,0.2,7.9,0,11.8,0c4.2,0,8.4,0.1,12.6,0   c5.3-0.2,8.8-2.1,9.3-6.2c0.5-3.9-1.5-7.3-6.9-7.6c-9.7-0.6-19.6-0.6-29.3-0.1C501.4,730.7,499.3,734.3,499.8,738.1z"/>
	<path id="XMLID_76_" class="st0" d="M558.1,568c0.6,4,4,6,9.3,6.2c3.9,0.2,7.9,0,11.8,0c4.2,0,8.4,0.1,12.6,0   c5.3-0.2,8.8-2.1,9.3-6.2c0.5-3.9-1.5-7.3-6.9-7.6c-9.7-0.6-19.6-0.6-29.3-0.1C559.6,560.6,557.5,564.1,558.1,568z"/>
	<path id="XMLID_75_" class="st0" d="M614.3,625.1c0.6,4,4,6,9.3,6.2c3.9,0.2,7.9,0,11.8,0c4.2,0,8.4,0.1,12.6,0   c5.3-0.2,8.8-2.1,9.3-6.2c0.5-3.9-1.5-7.3-6.9-7.6c-9.7-0.6-19.6-0.6-29.3-0.1C615.9,617.7,613.8,621.3,614.3,625.1z"/>
	<path id="XMLID_74_" class="st0" d="M558.1,681c0.6,4,4,6,9.3,6.2c3.9,0.2,7.9,0,11.8,0c4.2,0,8.4,0.1,12.6,0   c5.3-0.2,8.8-2.1,9.3-6.2c0.5-3.9-1.5-7.3-6.9-7.6c-9.7-0.6-19.6-0.6-29.3-0.1C559.6,673.6,557.5,677.1,558.1,681z"/>
	<path id="XMLID_73_" class="st0" d="M614.3,738.1c0.6,4,4,6,9.3,6.2c3.9,0.2,7.9,0,11.8,0c4.2,0,8.4,0.1,12.6,0   c5.3-0.2,8.8-2.1,9.3-6.2c0.5-3.9-1.5-7.3-6.9-7.6c-9.7-0.6-19.6-0.6-29.3-0.1C615.9,730.7,613.8,734.3,614.3,738.1z"/>
	<path id="XMLID_72_" class="st0" d="M672.6,568c0.6,4,4,6,9.3,6.2c3.9,0.2,7.9,0,11.8,0c4.2,0,8.4,0.1,12.6,0   c5.3-0.2,8.8-2.1,9.3-6.2c0.5-3.9-1.5-7.3-6.9-7.6c-9.7-0.6-19.6-0.6-29.3-0.1C674.1,560.6,672,564.1,672.6,568z"/>
	<path id="XMLID_71_" class="st0" d="M728.8,625.1c0.6,4,4,6,9.3,6.2c3.9,0.2,7.9,0,11.8,0c4.2,0,8.4,0.1,12.6,0   c5.3-0.2,8.8-2.1,9.3-6.2c0.5-3.9-1.5-7.3-6.9-7.6c-9.7-0.6-19.6-0.6-29.3-0.1C730.4,617.7,728.3,621.3,728.8,625.1z"/>
	<path id="XMLID_70_" class="st0" d="M672.6,681c0.6,4,4,6,9.3,6.2c3.9,0.2,7.9,0,11.8,0c4.2,0,8.4,0.1,12.6,0   c5.3-0.2,8.8-2.1,9.3-6.2c0.5-3.9-1.5-7.3-6.9-7.6c-9.7-0.6-19.6-0.6-29.3-0.1C674.1,673.6,672,677.1,672.6,681z"/>
	<path id="XMLID_69_" class="st0" d="M728.8,738.1c0.6,4,4,6,9.3,6.2c3.9,0.2,7.9,0,11.8,0c4.2,0,8.4,0.1,12.6,0   c5.3-0.2,8.8-2.1,9.3-6.2c0.5-3.9-1.5-7.3-6.9-7.6c-9.7-0.6-19.6-0.6-29.3-0.1C730.4,730.7,728.3,734.3,728.8,738.1z"/>
	<path id="XMLID_68_" class="st0" d="M787.1,568c0.6,4,4,6,9.3,6.2c3.9,0.2,7.9,0,11.8,0c4.2,0,8.4,0.1,12.6,0   c5.3-0.2,8.8-2.1,9.3-6.2c0.5-3.9-1.5-7.3-6.9-7.6c-9.7-0.6-19.6-0.6-29.3-0.1C788.6,560.6,786.5,564.1,787.1,568z"/>
	<path id="XMLID_67_" class="st0" d="M843.3,625.1c0.6,4,4,6,9.3,6.2c3.9,0.2,7.9,0,11.8,0c4.2,0,8.4,0.1,12.6,0   c5.3-0.2,8.8-2.1,9.3-6.2c0.5-3.9-1.5-7.3-6.9-7.6c-9.7-0.6-19.6-0.6-29.3-0.1C844.9,617.7,842.8,621.3,843.3,625.1z"/>
	<path id="XMLID_66_" class="st0" d="M787.1,681c0.6,4,4,6,9.3,6.2c3.9,0.2,7.9,0,11.8,0c4.2,0,8.4,0.1,12.6,0   c5.3-0.2,8.8-2.1,9.3-6.2c0.5-3.9-1.5-7.3-6.9-7.6c-9.7-0.6-19.6-0.6-29.3-0.1C788.6,673.6,786.5,677.1,787.1,681z"/>
	<path id="XMLID_65_" class="st0" d="M843.3,738.1c0.6,4,4,6,9.3,6.2c3.9,0.2,7.9,0,11.8,0c4.2,0,8.4,0.1,12.6,0   c5.3-0.2,8.8-2.1,9.3-6.2c0.5-3.9-1.5-7.3-6.9-7.6c-9.7-0.6-19.6-0.6-29.3-0.1C844.9,730.7,842.8,734.3,843.3,738.1z"/>
	<path id="XMLID_64_" class="st0" d="M901.6,568c0.6,4,4,6,9.3,6.2c3.9,0.2,7.9,0,11.8,0c4.2,0,8.4,0.1,12.6,0   c5.3-0.2,8.8-2.1,9.3-6.2c0.5-3.9-1.5-7.3-6.9-7.6c-9.7-0.6-19.6-0.6-29.3-0.1C903.1,560.6,901,564.1,901.6,568z"/>
	<path id="XMLID_63_" class="st0" d="M957.8,625.1c0.6,4,4,6,9.3,6.2c3.9,0.2,7.9,0,11.8,0c4.2,0,8.4,0.1,12.6,0   c5.3-0.2,8.8-2.1,9.3-6.2c0.5-3.9-1.5-7.3-6.9-7.6c-9.7-0.6-19.6-0.6-29.3-0.1C959.4,617.7,957.3,621.3,957.8,625.1z"/>
	<path id="XMLID_62_" class="st0" d="M901.6,681c0.6,4,4,6,9.3,6.2c3.9,0.2,7.9,0,11.8,0c4.2,0,8.4,0.1,12.6,0   c5.3-0.2,8.8-2.1,9.3-6.2c0.5-3.9-1.5-7.3-6.9-7.6c-9.7-0.6-19.6-0.6-29.3-0.1C903.1,673.6,901,677.1,901.6,681z"/>
	<path id="XMLID_61_" class="st0" d="M957.8,738.1c0.6,4,4,6,9.3,6.2c3.9,0.2,7.9,0,11.8,0c4.2,0,8.4,0.1,12.6,0   c5.3-0.2,8.8-2.1,9.3-6.2c0.5-3.9-1.5-7.3-6.9-7.6c-9.7-0.6-19.6-0.6-29.3-0.1C959.4,730.7,957.3,734.3,957.8,738.1z"/>
	<path id="XMLID_60_" class="st0" d="M1016.1,568c0.6,4,4,6,9.3,6.2c3.9,0.2,7.9,0,11.8,0c4.2,0,8.4,0.1,12.6,0   c5.3-0.2,8.8-2.1,9.3-6.2c0.5-3.9-1.5-7.3-6.9-7.6c-9.7-0.6-19.6-0.6-29.3-0.1C1017.6,560.6,1015.5,564.1,1016.1,568z"/>
	<path id="XMLID_59_" class="st0" d="M1072.3,625.1c0.6,4,4,6,9.3,6.2c3.9,0.2,7.9,0,11.8,0c4.2,0,8.4,0.1,12.6,0   c5.3-0.2,8.8-2.1,9.3-6.2c0.5-3.9-1.5-7.3-6.9-7.6c-9.7-0.6-19.6-0.6-29.3-0.1C1073.9,617.7,1071.8,621.3,1072.3,625.1z"/>
	<path id="XMLID_58_" class="st0" d="M1016.1,681c0.6,4,4,6,9.3,6.2c3.9,0.2,7.9,0,11.8,0c4.2,0,8.4,0.1,12.6,0   c5.3-0.2,8.8-2.1,9.3-6.2c0.5-3.9-1.5-7.3-6.9-7.6c-9.7-0.6-19.6-0.6-29.3-0.1C1017.6,673.6,1015.5,677.1,1016.1,681z"/>
	<path id="XMLID_57_" class="st0" d="M1072.3,738.1c0.6,4,4,6,9.3,6.2c3.9,0.2,7.9,0,11.8,0c4.2,0,8.4,0.1,12.6,0   c5.3-0.2,8.8-2.1,9.3-6.2c0.5-3.9-1.5-7.3-6.9-7.6c-9.7-0.6-19.6-0.6-29.3-0.1C1073.9,730.7,1071.8,734.3,1072.3,738.1z"/>
	<path id="XMLID_56_" class="st0" d="M1130.6,568c0.6,4,4,6,9.3,6.2c3.9,0.2,7.9,0,11.8,0c4.2,0,8.4,0.1,12.6,0   c5.3-0.2,8.8-2.1,9.3-6.2c0.5-3.9-1.5-7.3-6.9-7.6c-9.7-0.6-19.6-0.6-29.3-0.1C1132.1,560.6,1130,564.1,1130.6,568z"/>
	<path id="XMLID_55_" class="st0" d="M1186.8,625.1c0.6,4,4,6,9.3,6.2c3.9,0.2,7.9,0,11.8,0c4.2,0,8.4,0.1,12.6,0   c5.3-0.2,8.8-2.1,9.3-6.2c0.5-3.9-1.5-7.3-6.9-7.6c-9.7-0.6-19.6-0.6-29.3-0.1C1188.4,617.7,1186.3,621.3,1186.8,625.1z"/>
	<path id="XMLID_54_" class="st0" d="M1130.6,681c0.6,4,4,6,9.3,6.2c3.9,0.2,7.9,0,11.8,0c4.2,0,8.4,0.1,12.6,0   c5.3-0.2,8.8-2.1,9.3-6.2c0.5-3.9-1.5-7.3-6.9-7.6c-9.7-0.6-19.6-0.6-29.3-0.1C1132.1,673.6,1130,677.1,1130.6,681z"/>
	<path id="XMLID_53_" class="st0" d="M1186.8,738.1c0.6,4,4,6,9.3,6.2c3.9,0.2,7.9,0,11.8,0c4.2,0,8.4,0.1,12.6,0   c5.3-0.2,8.8-2.1,9.3-6.2c0.5-3.9-1.5-7.3-6.9-7.6c-9.7-0.6-19.6-0.6-29.3-0.1C1188.4,730.7,1186.3,734.3,1186.8,738.1z"/>
	<path id="XMLID_52_" class="st0" d="M1245.1,568c0.6,4,4,6,9.3,6.2c3.9,0.2,7.9,0,11.8,0c4.2,0,8.4,0.1,12.6,0   c5.3-0.2,8.8-2.1,9.3-6.2c0.5-3.9-1.5-7.3-6.9-7.6c-9.7-0.6-19.6-0.6-29.3-0.1C1246.6,560.6,1244.5,564.1,1245.1,568z"/>
	<path id="XMLID_50_" class="st0" d="M1245.1,681c0.6,4,4,6,9.3,6.2c3.9,0.2,7.9,0,11.8,0c4.2,0,8.4,0.1,12.6,0   c5.3-0.2,8.8-2.1,9.3-6.2c0.5-3.9-1.5-7.3-6.9-7.6c-9.7-0.6-19.6-0.6-29.3-0.1C1246.6,673.6,1244.5,677.1,1245.1,681z"/>
	<path id="XMLID_46_" class="st0" d="M100.1,341.7c0.6,4,4,6,9.3,6.2c3.9,0.2,7.9,0,11.8,0c4.2,0,8.4,0.1,12.6,0   c5.3-0.2,8.8-2.1,9.3-6.2c0.5-3.9-1.5-7.3-6.9-7.6c-9.7-0.6-19.6-0.6-29.3-0.1C101.6,334.3,99.5,337.8,100.1,341.7z"/>
	<path id="XMLID_45_" class="st0" d="M156.3,398.8c0.6,4,4,6,9.3,6.2c3.9,0.2,7.9,0,11.8,0c4.2,0,8.4,0.1,12.6,0   c5.3-0.2,8.8-2.1,9.3-6.2c0.5-3.9-1.5-7.3-6.9-7.6c-9.7-0.6-19.6-0.6-29.3-0.1C157.9,391.4,155.8,395,156.3,398.8z"/>
	<path id="XMLID_44_" class="st0" d="M100.1,454.7c0.6,4,4,6,9.3,6.2c3.9,0.2,7.9,0,11.8,0c4.2,0,8.4,0.1,12.6,0   c5.3-0.2,8.8-2.1,9.3-6.2c0.5-3.9-1.5-7.3-6.9-7.6c-9.7-0.6-19.6-0.6-29.3-0.1C101.6,447.3,99.5,450.8,100.1,454.7z"/>
	<path id="XMLID_43_" class="st0" d="M156.3,511.8c0.6,4,4,6,9.3,6.2c3.9,0.2,7.9,0,11.8,0c4.2,0,8.4,0.1,12.6,0   c5.3-0.2,8.8-2.1,9.3-6.2c0.5-3.9-1.5-7.3-6.9-7.6c-9.7-0.6-19.6-0.6-29.3-0.1C157.9,504.4,155.8,508,156.3,511.8z"/>
	<path id="XMLID_42_" class="st0" d="M214.6,341.7c0.6,4,4,6,9.3,6.2c3.9,0.2,7.9,0,11.8,0c4.2,0,8.4,0.1,12.6,0   c5.3-0.2,8.8-2.1,9.3-6.2c0.5-3.9-1.5-7.3-6.9-7.6c-9.7-0.6-19.6-0.6-29.3-0.1C216.1,334.3,214,337.8,214.6,341.7z"/>
	<path id="XMLID_41_" class="st0" d="M270.8,398.8c0.6,4,4,6,9.3,6.2c3.9,0.2,7.9,0,11.8,0c4.2,0,8.4,0.1,12.6,0   c5.3-0.2,8.8-2.1,9.3-6.2c0.5-3.9-1.5-7.3-6.9-7.6c-9.7-0.6-19.6-0.6-29.3-0.1C272.4,391.4,270.3,395,270.8,398.8z"/>
	<path id="XMLID_40_" class="st0" d="M214.6,454.7c0.6,4,4,6,9.3,6.2c3.9,0.2,7.9,0,11.8,0c4.2,0,8.4,0.1,12.6,0   c5.3-0.2,8.8-2.1,9.3-6.2c0.5-3.9-1.5-7.3-6.9-7.6c-9.7-0.6-19.6-0.6-29.3-0.1C216.1,447.3,214,450.8,214.6,454.7z"/>
	<path id="XMLID_39_" class="st0" d="M270.8,511.8c0.6,4,4,6,9.3,6.2c3.9,0.2,7.9,0,11.8,0c4.2,0,8.4,0.1,12.6,0   c5.3-0.2,8.8-2.1,9.3-6.2c0.5-3.9-1.5-7.3-6.9-7.6c-9.7-0.6-19.6-0.6-29.3-0.1C272.4,504.4,270.3,508,270.8,511.8z"/>
	<path id="XMLID_38_" class="st0" d="M329.1,341.7c0.6,4,4,6,9.3,6.2c3.9,0.2,7.9,0,11.8,0c4.2,0,8.4,0.1,12.6,0   c5.3-0.2,8.8-2.1,9.3-6.2c0.5-3.9-1.5-7.3-6.9-7.6c-9.7-0.6-19.6-0.6-29.3-0.1C330.6,334.3,328.5,337.8,329.1,341.7z"/>
	<path id="XMLID_37_" class="st0" d="M385.3,398.8c0.6,4,4,6,9.3,6.2c3.9,0.2,7.9,0,11.8,0c4.2,0,8.4,0.1,12.6,0   c5.3-0.2,8.8-2.1,9.3-6.2c0.5-3.9-1.5-7.3-6.9-7.6c-9.7-0.6-19.6-0.6-29.3-0.1C386.9,391.4,384.8,395,385.3,398.8z"/>
	<path id="XMLID_36_" class="st0" d="M329.1,454.7c0.6,4,4,6,9.3,6.2c3.9,0.2,7.9,0,11.8,0c4.2,0,8.4,0.1,12.6,0   c5.3-0.2,8.8-2.1,9.3-6.2c0.5-3.9-1.5-7.3-6.9-7.6c-9.7-0.6-19.6-0.6-29.3-0.1C330.6,447.3,328.5,450.8,329.1,454.7z"/>
	<path id="XMLID_35_" class="st0" d="M385.3,511.8c0.6,4,4,6,9.3,6.2c3.9,0.2,7.9,0,11.8,0c4.2,0,8.4,0.1,12.6,0   c5.3-0.2,8.8-2.1,9.3-6.2c0.5-3.9-1.5-7.3-6.9-7.6c-9.7-0.6-19.6-0.6-29.3-0.1C386.9,504.4,384.8,508,385.3,511.8z"/>
	<path id="XMLID_34_" class="st0" d="M443.6,341.7c0.6,4,4,6,9.3,6.2c3.9,0.2,7.9,0,11.8,0c4.2,0,8.4,0.1,12.6,0   c5.3-0.2,8.8-2.1,9.3-6.2c0.5-3.9-1.5-7.3-6.9-7.6c-9.7-0.6-19.6-0.6-29.3-0.1C445.1,334.3,443,337.8,443.6,341.7z"/>
	<path id="XMLID_33_" class="st0" d="M499.8,398.8c0.6,4,4,6,9.3,6.2c3.9,0.2,7.9,0,11.8,0c4.2,0,8.4,0.1,12.6,0   c5.3-0.2,8.8-2.1,9.3-6.2c0.5-3.9-1.5-7.3-6.9-7.6c-9.7-0.6-19.6-0.6-29.3-0.1C501.4,391.4,499.3,395,499.8,398.8z"/>
	<path id="XMLID_32_" class="st0" d="M443.6,454.7c0.6,4,4,6,9.3,6.2c3.9,0.2,7.9,0,11.8,0c4.2,0,8.4,0.1,12.6,0   c5.3-0.2,8.8-2.1,9.3-6.2c0.5-3.9-1.5-7.3-6.9-7.6c-9.7-0.6-19.6-0.6-29.3-0.1C445.1,447.3,443,450.8,443.6,454.7z"/>
	<path id="XMLID_31_" class="st0" d="M499.8,511.8c0.6,4,4,6,9.3,6.2c3.9,0.2,7.9,0,11.8,0c4.2,0,8.4,0.1,12.6,0   c5.3-0.2,8.8-2.1,9.3-6.2c0.5-3.9-1.5-7.3-6.9-7.6c-9.7-0.6-19.6-0.6-29.3-0.1C501.4,504.4,499.3,508,499.8,511.8z"/>
	<path id="XMLID_30_" class="st0" d="M558.1,341.7c0.6,4,4,6,9.3,6.2c3.9,0.2,7.9,0,11.8,0c4.2,0,8.4,0.1,12.6,0   c5.3-0.2,8.8-2.1,9.3-6.2c0.5-3.9-1.5-7.3-6.9-7.6c-9.7-0.6-19.6-0.6-29.3-0.1C559.6,334.3,557.5,337.8,558.1,341.7z"/>
	<path id="XMLID_29_" class="st0" d="M614.3,398.8c0.6,4,4,6,9.3,6.2c3.9,0.2,7.9,0,11.8,0c4.2,0,8.4,0.1,12.6,0   c5.3-0.2,8.8-2.1,9.3-6.2c0.5-3.9-1.5-7.3-6.9-7.6c-9.7-0.6-19.6-0.6-29.3-0.1C615.9,391.4,613.8,395,614.3,398.8z"/>
	<path id="XMLID_28_" class="st0" d="M558.1,454.7c0.6,4,4,6,9.3,6.2c3.9,0.2,7.9,0,11.8,0c4.2,0,8.4,0.1,12.6,0   c5.3-0.2,8.8-2.1,9.3-6.2c0.5-3.9-1.5-7.3-6.9-7.6c-9.7-0.6-19.6-0.6-29.3-0.1C559.6,447.3,557.5,450.8,558.1,454.7z"/>
	<path id="XMLID_27_" class="st0" d="M614.3,511.8c0.6,4,4,6,9.3,6.2c3.9,0.2,7.9,0,11.8,0c4.2,0,8.4,0.1,12.6,0   c5.3-0.2,8.8-2.1,9.3-6.2c0.5-3.9-1.5-7.3-6.9-7.6c-9.7-0.6-19.6-0.6-29.3-0.1C615.9,504.4,613.8,508,614.3,511.8z"/>
	<path id="XMLID_26_" class="st0" d="M672.6,341.7c0.6,4,4,6,9.3,6.2c3.9,0.2,7.9,0,11.8,0c4.2,0,8.4,0.1,12.6,0   c5.3-0.2,8.8-2.1,9.3-6.2c0.5-3.9-1.5-7.3-6.9-7.6c-9.7-0.6-19.6-0.6-29.3-0.1C674.1,334.3,672,337.8,672.6,341.7z"/>
	<path id="XMLID_25_" class="st0" d="M728.8,398.8c0.6,4,4,6,9.3,6.2c3.9,0.2,7.9,0,11.8,0c4.2,0,8.4,0.1,12.6,0   c5.3-0.2,8.8-2.1,9.3-6.2c0.5-3.9-1.5-7.3-6.9-7.6c-9.7-0.6-19.6-0.6-29.3-0.1C730.4,391.4,728.3,395,728.8,398.8z"/>
	<path id="XMLID_24_" class="st0" d="M672.6,454.7c0.6,4,4,6,9.3,6.2c3.9,0.2,7.9,0,11.8,0c4.2,0,8.4,0.1,12.6,0   c5.3-0.2,8.8-2.1,9.3-6.2c0.5-3.9-1.5-7.3-6.9-7.6c-9.7-0.6-19.6-0.6-29.3-0.1C674.1,447.3,672,450.8,672.6,454.7z"/>
	<path id="XMLID_23_" class="st0" d="M728.8,511.8c0.6,4,4,6,9.3,6.2c3.9,0.2,7.9,0,11.8,0c4.2,0,8.4,0.1,12.6,0   c5.3-0.2,8.8-2.1,9.3-6.2c0.5-3.9-1.5-7.3-6.9-7.6c-9.7-0.6-19.6-0.6-29.3-0.1C730.4,504.4,728.3,508,728.8,511.8z"/>
	<path id="XMLID_22_" class="st0" d="M787.1,341.7c0.6,4,4,6,9.3,6.2c3.9,0.2,7.9,0,11.8,0c4.2,0,8.4,0.1,12.6,0   c5.3-0.2,8.8-2.1,9.3-6.2c0.5-3.9-1.5-7.3-6.9-7.6c-9.7-0.6-19.6-0.6-29.3-0.1C788.6,334.3,786.5,337.8,787.1,341.7z"/>
	<path id="XMLID_21_" class="st0" d="M843.3,398.8c0.6,4,4,6,9.3,6.2c3.9,0.2,7.9,0,11.8,0c4.2,0,8.4,0.1,12.6,0   c5.3-0.2,8.8-2.1,9.3-6.2c0.5-3.9-1.5-7.3-6.9-7.6c-9.7-0.6-19.6-0.6-29.3-0.1C844.9,391.4,842.8,395,843.3,398.8z"/>
	<path id="XMLID_20_" class="st0" d="M787.1,454.7c0.6,4,4,6,9.3,6.2c3.9,0.2,7.9,0,11.8,0c4.2,0,8.4,0.1,12.6,0   c5.3-0.2,8.8-2.1,9.3-6.2c0.5-3.9-1.5-7.3-6.9-7.6c-9.7-0.6-19.6-0.6-29.3-0.1C788.6,447.3,786.5,450.8,787.1,454.7z"/>
	<path id="XMLID_19_" class="st0" d="M843.3,511.8c0.6,4,4,6,9.3,6.2c3.9,0.2,7.9,0,11.8,0c4.2,0,8.4,0.1,12.6,0   c5.3-0.2,8.8-2.1,9.3-6.2c0.5-3.9-1.5-7.3-6.9-7.6c-9.7-0.6-19.6-0.6-29.3-0.1C844.9,504.4,842.8,508,843.3,511.8z"/>
	<path id="XMLID_18_" class="st0" d="M901.6,341.7c0.6,4,4,6,9.3,6.2c3.9,0.2,7.9,0,11.8,0c4.2,0,8.4,0.1,12.6,0   c5.3-0.2,8.8-2.1,9.3-6.2c0.5-3.9-1.5-7.3-6.9-7.6c-9.7-0.6-19.6-0.6-29.3-0.1C903.1,334.3,901,337.8,901.6,341.7z"/>
	<path id="XMLID_17_" class="st0" d="M957.8,398.8c0.6,4,4,6,9.3,6.2c3.9,0.2,7.9,0,11.8,0c4.2,0,8.4,0.1,12.6,0   c5.3-0.2,8.8-2.1,9.3-6.2c0.5-3.9-1.5-7.3-6.9-7.6c-9.7-0.6-19.6-0.6-29.3-0.1C959.4,391.4,957.3,395,957.8,398.8z"/>
	<path id="XMLID_16_" class="st0" d="M901.6,454.7c0.6,4,4,6,9.3,6.2c3.9,0.2,7.9,0,11.8,0c4.2,0,8.4,0.1,12.6,0   c5.3-0.2,8.8-2.1,9.3-6.2c0.5-3.9-1.5-7.3-6.9-7.6c-9.7-0.6-19.6-0.6-29.3-0.1C903.1,447.3,901,450.8,901.6,454.7z"/>
	<path id="XMLID_15_" class="st0" d="M957.8,511.8c0.6,4,4,6,9.3,6.2c3.9,0.2,7.9,0,11.8,0c4.2,0,8.4,0.1,12.6,0   c5.3-0.2,8.8-2.1,9.3-6.2c0.5-3.9-1.5-7.3-6.9-7.6c-9.7-0.6-19.6-0.6-29.3-0.1C959.4,504.4,957.3,508,957.8,511.8z"/>
	<path id="XMLID_14_" class="st0" d="M1016.1,341.7c0.6,4,4,6,9.3,6.2c3.9,0.2,7.9,0,11.8,0c4.2,0,8.4,0.1,12.6,0   c5.3-0.2,8.8-2.1,9.3-6.2c0.5-3.9-1.5-7.3-6.9-7.6c-9.7-0.6-19.6-0.6-29.3-0.1C1017.6,334.3,1015.5,337.8,1016.1,341.7z"/>
	<path id="XMLID_13_" class="st0" d="M1072.3,398.8c0.6,4,4,6,9.3,6.2c3.9,0.2,7.9,0,11.8,0c4.2,0,8.4,0.1,12.6,0   c5.3-0.2,8.8-2.1,9.3-6.2c0.5-3.9-1.5-7.3-6.9-7.6c-9.7-0.6-19.6-0.6-29.3-0.1C1073.9,391.4,1071.8,395,1072.3,398.8z"/>
	<path id="XMLID_12_" class="st0" d="M1016.1,454.7c0.6,4,4,6,9.3,6.2c3.9,0.2,7.9,0,11.8,0c4.2,0,8.4,0.1,12.6,0   c5.3-0.2,8.8-2.1,9.3-6.2c0.5-3.9-1.5-7.3-6.9-7.6c-9.7-0.6-19.6-0.6-29.3-0.1C1017.6,447.3,1015.5,450.8,1016.1,454.7z"/>
	<path id="XMLID_11_" class="st0" d="M1072.3,511.8c0.6,4,4,6,9.3,6.2c3.9,0.2,7.9,0,11.8,0c4.2,0,8.4,0.1,12.6,0   c5.3-0.2,8.8-2.1,9.3-6.2c0.5-3.9-1.5-7.3-6.9-7.6c-9.7-0.6-19.6-0.6-29.3-0.1C1073.9,504.4,1071.8,508,1072.3,511.8z"/>
	<path id="XMLID_10_" class="st0" d="M1130.6,341.7c0.6,4,4,6,9.3,6.2c3.9,0.2,7.9,0,11.8,0c4.2,0,8.4,0.1,12.6,0   c5.3-0.2,8.8-2.1,9.3-6.2c0.5-3.9-1.5-7.3-6.9-7.6c-9.7-0.6-19.6-0.6-29.3-0.1C1132.1,334.3,1130,337.8,1130.6,341.7z"/>
	<path id="XMLID_9_" class="st0" d="M1186.8,398.8c0.6,4,4,6,9.3,6.2c3.9,0.2,7.9,0,11.8,0c4.2,0,8.4,0.1,12.6,0   c5.3-0.2,8.8-2.1,9.3-6.2c0.5-3.9-1.5-7.3-6.9-7.6c-9.7-0.6-19.6-0.6-29.3-0.1C1188.4,391.4,1186.3,395,1186.8,398.8z"/>
	<path id="XMLID_8_" class="st0" d="M1130.6,454.7c0.6,4,4,6,9.3,6.2c3.9,0.2,7.9,0,11.8,0c4.2,0,8.4,0.1,12.6,0   c5.3-0.2,8.8-2.1,9.3-6.2c0.5-3.9-1.5-7.3-6.9-7.6c-9.7-0.6-19.6-0.6-29.3-0.1C1132.1,447.3,1130,450.8,1130.6,454.7z"/>
	<path id="XMLID_7_" class="st0" d="M1186.8,511.8c0.6,4,4,6,9.3,6.2c3.9,0.2,7.9,0,11.8,0c4.2,0,8.4,0.1,12.6,0   c5.3-0.2,8.8-2.1,9.3-6.2c0.5-3.9-1.5-7.3-6.9-7.6c-9.7-0.6-19.6-0.6-29.3-0.1C1188.4,504.4,1186.3,508,1186.8,511.8z"/>
	<path id="XMLID_6_" class="st0" d="M1245.1,341.7c0.6,4,4,6,9.3,6.2c3.9,0.2,7.9,0,11.8,0c4.2,0,8.4,0.1,12.6,0   c5.3-0.2,8.8-2.1,9.3-6.2c0.5-3.9-1.5-7.3-6.9-7.6c-9.7-0.6-19.6-0.6-29.3-0.1C1246.6,334.3,1244.5,337.8,1245.1,341.7z"/>
	<path id="XMLID_4_" class="st0" d="M1245.1,454.7c0.6,4,4,6,9.3,6.2c3.9,0.2,7.9,0,11.8,0c4.2,0,8.4,0.1,12.6,0   c5.3-0.2,8.8-2.1,9.3-6.2c0.5-3.9-1.5-7.3-6.9-7.6c-9.7-0.6-19.6-0.6-29.3-0.1C1246.6,447.3,1244.5,450.8,1245.1,454.7z"/>
</g>
</svg>
