999
dxflib 2.2.0.0
  0
SECTION
  2
HEADER
  9
$ACADVER
  1
AC1015
  9
$HANDSEED
  5
FFFF
  9
$DIMASZ
 40
2.5
  9
$PLIMMIN
 10
0.0
 20
0.0
  9
$DIMEXE
 40
1.25
  9
$DIMGAP
 40
0.625
  9
$PLIMMAX
 10
210.0
 20
297.0
  9
$INSUNITS
 70
4
  9
$DIMSTYLE
  2
Standard
  9
$DIMEXO
 40
0.625
  9
$DIMTXT
 40
2.5
  9
$CLAYER
  8
0
  0
ENDSEC
  0
SECTION
  2
TABLES
  0
TABLE
  2
VPORT
  5
8
100
AcDbSymbolTable
 70
1
  0
VPORT
  5
30
100
AcDbSymbolTableRecord
100
AcDbViewportTableRecord
  2
*Active
 70
0
 10
0.0
 20
0.0
 11
1.0
 21
1.0
 12
286.3055555555554861
 22
148.5
 13
0.0
 23
0.0
 14
10.0
 24
10.0
 15
10.0
 25
10.0
 16
0.0
 26
0.0
 36
1.0
 17
0.0
 27
0.0
 37
0.0
 40
297.0
 41
1.92798353909465
 42
50.0
 43
0.0
 44
0.0
 50
0.0
 51
0.0
 71
0
 72
100
 73
1
 74
3
 75
1
 76
1
 77
0
 78
0
281
0
 65
1
110
0.0
120
0.0
130
0.0
111
1.0
121
0.0
131
0.0
112
0.0
122
1.0
132
0.0
 79
0
146
0.0
  0
ENDTAB
  0
TABLE
  2
LTYPE
  5
5
100
AcDbSymbolTable
 70
21
  0
LTYPE
  5
14
100
AcDbSymbolTableRecord
100
AcDbLinetypeTableRecord
  2
ByBlock
 70
0
  3

 72
65
 73
0
 40
0.0
  0
LTYPE
  5
15
100
AcDbSymbolTableRecord
100
AcDbLinetypeTableRecord
  2
ByLayer
 70
0
  3

 72
65
 73
0
 40
0.0
  0
LTYPE
  5
16
100
AcDbSymbolTableRecord
100
AcDbLinetypeTableRecord
  2
CONTINUOUS
 70
0
  3
Solid line
 72
65
 73
0
 40
0.0
  0
LTYPE
  5
31
100
AcDbSymbolTableRecord
100
AcDbLinetypeTableRecord
  2
DOT
 70
0
  3
Dot . . . . . . . . . . . . . . . . . . . . . .
 72
65
 73
2
 40
6.3499999999999996
 49
0.0
 74
0
 49
-6.3499999999999996
 74
0
  0
LTYPE
  5
32
100
AcDbSymbolTableRecord
100
AcDbLinetypeTableRecord
  2
DOT2
 70
0
  3
Dot (.5x) .....................................
 72
65
 73
2
 40
3.1749999999999998
 49
0.0
 74
0
 49
-3.1749999999999998
 74
0
  0
LTYPE
  5
33
100
AcDbSymbolTableRecord
100
AcDbLinetypeTableRecord
  2
DOTX2
 70
0
  3
Dot (2x) .  .  .  .  .  .  .  .  .  .  .  .  .
 72
65
 73
2
 40
12.6999999999999993
 49
0.0
 74
0
 49
-12.6999999999999993
 74
0
  0
LTYPE
  5
34
100
AcDbSymbolTableRecord
100
AcDbLinetypeTableRecord
  2
DASHED
 70
0
  3
Dashed __ __ __ __ __ __ __ __ __ __ __ __ __ _
 72
65
 73
2
 40
19.0500000000000007
 49
12.6999999999999993
 74
0
 49
-6.3499999999999996
 74
0
  0
LTYPE
  5
35
100
AcDbSymbolTableRecord
100
AcDbLinetypeTableRecord
  2
DASHED2
 70
0
  3
Dashed (.5x) _ _ _ _ _ _ _ _ _ _ _ _ _ _ _ _ _
 72
65
 73
2
 40
9.5250000000000004
 49
6.3499999999999996
 74
0
 49
-3.1749999999999998
 74
0
  0
LTYPE
  5
36
100
AcDbSymbolTableRecord
100
AcDbLinetypeTableRecord
  2
DASHEDX2
 70
0
  3
Dashed (2x) ____  ____  ____  ____  ____  ___
 72
65
 73
2
 40
38.1000000000000014
 49
25.3999999999999986
 74
0
 49
-12.6999999999999993
 74
0
  0
LTYPE
  5
37
100
AcDbSymbolTableRecord
100
AcDbLinetypeTableRecord
  2
DASHDOT
 70
0
  3
Dash dot __ . __ . __ . __ . __ . __ . __ . __
 72
65
 73
4
 40
25.3999999999999986
 49
12.6999999999999993
 74
0
 49
-6.3499999999999996
 74
0
 49
0.0
 74
0
 49
-6.3499999999999996
 74
0
  0
LTYPE
  5
38
100
AcDbSymbolTableRecord
100
AcDbLinetypeTableRecord
  2
DASHDOT2
 70
0
  3
Dash dot (.5x) _._._._._._._._._._._._._._._.
 72
65
 73
4
 40
12.6999999999999993
 49
6.3499999999999996
 74
0
 49
-3.1749999999999998
 74
0
 49
0.0
 74
0
 49
-3.1749999999999998
 74
0
  0
LTYPE
  5
39
100
AcDbSymbolTableRecord
100
AcDbLinetypeTableRecord
  2
DASHDOTX2
 70
0
  3
Dash dot (2x) ____  .  ____  .  ____  .  ___
 72
65
 73
4
 40
50.7999999999999972
 49
25.3999999999999986
 74
0
 49
-12.6999999999999993
 74
0
 49
0.0
 74
0
 49
-12.6999999999999993
 74
0
  0
LTYPE
  5
3A
100
AcDbSymbolTableRecord
100
AcDbLinetypeTableRecord
  2
DIVIDE
 70
0
  3
Divide ____ . . ____ . . ____ . . ____ . . ____
 72
65
 73
6
 40
31.75
 49
12.6999999999999993
 74
0
 49
-6.3499999999999996
 74
0
 49
0.0
 74
0
 49
-6.3499999999999996
 74
0
 49
0.0
 74
0
 49
-6.3499999999999996
 74
0
  0
LTYPE
  5
3B
100
AcDbSymbolTableRecord
100
AcDbLinetypeTableRecord
  2
DIVIDE2
 70
0
  3
Divide (.5x) __..__..__..__..__..__..__..__.._
 72
65
 73
6
 40
15.875
 49
6.3499999999999996
 74
0
 49
-3.1749999999999998
 74
0
 49
0.0
 74
0
 49
-3.1749999999999998
 74
0
 49
0.0
 74
0
 49
-3.1749999999999998
 74
0
  0
LTYPE
  5
3C
100
AcDbSymbolTableRecord
100
AcDbLinetypeTableRecord
  2
DIVIDEX2
 70
0
  3
Divide (2x) ________  .  .  ________  .  .  _
 72
65
 73
6
 40
63.5
 49
25.3999999999999986
 74
0
 49
-12.6999999999999993
 74
0
 49
0.0
 74
0
 49
-12.6999999999999993
 74
0
 49
0.0
 74
0
 49
-12.6999999999999993
 74
0
  0
LTYPE
  5
3D
100
AcDbSymbolTableRecord
100
AcDbLinetypeTableRecord
  2
CENTER
 70
0
  3
Center ____ _ ____ _ ____ _ ____ _ ____ _ ____
 72
65
 73
4
 40
50.7999999999999972
 49
31.75
 74
0
 49
-6.3499999999999996
 74
0
 49
6.3499999999999996
 74
0
 49
-6.3499999999999996
 74
0
  0
LTYPE
  5
3E
100
AcDbSymbolTableRecord
100
AcDbLinetypeTableRecord
  2
CENTER2
 70
0
  3
Center (.5x) ___ _ ___ _ ___ _ ___ _ ___ _ ___
 72
65
 73
4
 40
28.5749999999999993
 49
19.0500000000000007
 74
0
 49
-3.1749999999999998
 74
0
 49
3.1749999999999998
 74
0
 49
-3.1749999999999998
 74
0
  0
LTYPE
  5
3F
100
AcDbSymbolTableRecord
100
AcDbLinetypeTableRecord
  2
CENTERX2
 70
0
  3
Center (2x) ________  __  ________  __  _____
 72
65
 73
4
 40
101.5999999999999943
 49
63.5
 74
0
 49
-12.6999999999999993
 74
0
 49
12.6999999999999993
 74
0
 49
-12.6999999999999993
 74
0
  0
LTYPE
  5
40
100
AcDbSymbolTableRecord
100
AcDbLinetypeTableRecord
  2
BORDER
 70
0
  3
Border __ __ . __ __ . __ __ . __ __ . __ __ .
 72
65
 73
6
 40
44.4500000000000028
 49
12.6999999999999993
 74
0
 49
-6.3499999999999996
 74
0
 49
12.6999999999999993
 74
0
 49
-6.3499999999999996
 74
0
 49
0.0
 74
0
 49
-6.3499999999999996
 74
0
  0
LTYPE
  5
41
100
AcDbSymbolTableRecord
100
AcDbLinetypeTableRecord
  2
BORDER2
 70
0
  3
Border (.5x) __.__.__.__.__.__.__.__.__.__.__.
 72
65
 73
6
 40
22.2250000000000014
 49
6.3499999999999996
 74
0
 49
-3.1749999999999998
 74
0
 49
6.3499999999999996
 74
0
 49
-3.1749999999999998
 74
0
 49
0.0
 74
0
 49
-3.1749999999999998
 74
0
  0
LTYPE
  5
42
100
AcDbSymbolTableRecord
100
AcDbLinetypeTableRecord
  2
BORDERX2
 70
0
  3
Border (2x) ____  ____  .  ____  ____  .  ___
 72
65
 73
6
 40
88.9000000000000057
 49
25.3999999999999986
 74
0
 49
-12.6999999999999993
 74
0
 49
25.3999999999999986
 74
0
 49
-12.6999999999999993
 74
0
 49
0.0
 74
0
 49
-12.6999999999999993
 74
0
  0
ENDTAB
  0
TABLE
  2
LAYER
  5
2
100
AcDbSymbolTable
 70
4
  0
LAYER
  5
10
100
AcDbSymbolTableRecord
100
AcDbLayerTableRecord
  2
0
 70
0
 62
7
420
0
  6
CONTINUOUS
370
25
390
F
  0
LAYER
  5
43
100
AcDbSymbolTableRecord
100
AcDbLayerTableRecord
  2
ring
 70
0
 62
7
420
0
  6
CONTINUOUS
370
0
390
F
  0
LAYER
  5
44
100
AcDbSymbolTableRecord
100
AcDbLayerTableRecord
  2
planet
 70
0
 62
7
420
0
  6
CONTINUOUS
370
0
390
F
  0
LAYER
  5
45
100
AcDbSymbolTableRecord
100
AcDbLayerTableRecord
  2
sun
 70
0
 62
7
420
0
  6
CONTINUOUS
370
0
390
F
  0
ENDTAB
  0
TABLE
  2
STYLE
  5
3
100
AcDbSymbolTable
 70
1
  0
STYLE
  5
11
100
AcDbSymbolTableRecord
100
AcDbTextStyleTableRecord
  2
Standard
 70
0
 40
0.0
 41
0.75
 50
0.0
 71
0
 42
2.5
  3
txt
  4

  0
ENDTAB
  0
TABLE
  2
VIEW
  5
6
100
AcDbSymbolTable
 70
0
  0
ENDTAB
  0
TABLE
  2
UCS
  5
7
100
AcDbSymbolTable
 70
0
  0
ENDTAB
  0
TABLE
  2
APPID
  5
9
100
AcDbSymbolTable
 70
1
  0
APPID
  5
12
100
AcDbSymbolTableRecord
100
AcDbRegAppTableRecord
  2
ACAD
 70
0
  0
ENDTAB
  0
TABLE
  2
DIMSTYLE
  5
A
100
AcDbSymbolTable
 70
1
100
AcDbDimStyleTable
 71
0
  0
DIMSTYLE
105
27
100
AcDbSymbolTableRecord
100
AcDbDimStyleTableRecord
  2
Standard
 41
2.5
 42
0.625
 43
3.75
 44
1.25
 70
0
 73
0
 74
0
 77
1
 78
8
140
2.5
141
2.5
143
0.03937007874016
147
0.625
171
3
172
1
271
2
272
2
274
3
278
44
283
0
284
8
340
11
  0
ENDTAB
  0
TABLE
  2
BLOCK_RECORD
  5
1
100
AcDbSymbolTable
 70
1
  0
BLOCK_RECORD
  5
1F
100
AcDbSymbolTableRecord
100
AcDbBlockTableRecord
  2
*Model_Space
340
22
  0
BLOCK_RECORD
  5
1B
100
AcDbSymbolTableRecord
100
AcDbBlockTableRecord
  2
*Paper_Space
340
1E
  0
BLOCK_RECORD
  5
23
100
AcDbSymbolTableRecord
100
AcDbBlockTableRecord
  2
*Paper_Space0
340
26
  0
ENDTAB
  0
ENDSEC
  0
SECTION
  2
BLOCKS
  0
BLOCK
  5
20
100
AcDbEntity
  8
0
100
AcDbBlockBegin
  2
*Model_Space
 70
0
 10
0.0
 20
0.0
 30
0.0
  3
*Model_Space
  1

  0
ENDBLK
  5
21
100
AcDbEntity
  8
0
100
AcDbBlockEnd
  0
BLOCK
  5
1C
100
AcDbEntity
 67
1
  8
0
100
AcDbBlockBegin
  2
*Paper_Space
 70
0
 10
0.0
 20
0.0
 30
0.0
  3
*Paper_Space
  1

  0
ENDBLK
  5
1D
100
AcDbEntity
 67
1
  8
0
100
AcDbBlockEnd
  0
BLOCK
  5
24
100
AcDbEntity
  8
0
100
AcDbBlockBegin
  2
*Paper_Space0
 70
0
 10
0.0
 20
0.0
 30
0.0
  3
*Paper_Space0
  1

  0
ENDBLK
  5
25
100
AcDbEntity
  8
0
100
AcDbBlockEnd
  0
ENDSEC
  0
SECTION
  2
ENTITIES
  0
LINE
  5
46
100
AcDbEntity
100
AcDbLine
  8
ring
 62
7
420
0
370
-1
  6
ByLayer
 10
-1.8600817563331098
 20
341.9152636646725227
 30
0.0
 11
-1.4108293643550462
 21
340.0998561178976729
 31
0.0
  0
LINE
  5
47
100
AcDbEntity
100
AcDbLine
  8
ring
 62
7
420
0
370
-1
  6
ByLayer
 10
-1.4108293643550462
 20
340.0998561178976729
 30
0.0
 11
-0.6937483063355823
 21
338.2856541948133895
 31
0.0
  0
LINE
  5
48
100
AcDbEntity
100
AcDbLine
  8
ring
 62
7
420
0
370
-1
  6
ByLayer
 10
-0.6937483063355823
 20
338.2856541948133895
 30
0.0
 11
0.6947856368396086
 21
338.2860514432953778
 31
0.0
  0
LINE
  5
49
100
AcDbEntity
100
AcDbLine
  8
ring
 62
7
420
0
370
-1
  6
ByLayer
 10
0.6947856368396086
 20
338.2860514432953778
 30
0.0
 11
1.41082852017052
 21
340.1006633717038881
 31
0.0
  0
LINE
  5
4A
100
AcDbEntity
100
AcDbLine
  8
ring
 62
7
420
0
370
-1
  6
ByLayer
 10
1.41082852017052
 20
340.1006633717038881
 30
0.0
 11
1.8590420914642705
 21
341.9163276763304111
 31
0.0
  0
LINE
  5
4B
100
AcDbEntity
100
AcDbLine
  8
ring
 62
7
420
0
370
-1
  6
ByLayer
 10
-7.7083679518885821
 20
341.2873163807831247
 30
0.0
 11
-7.0260007419939736
 21
339.5460791013045991
 31
0.0
  0
LINE
  5
4C
100
AcDbEntity
100
AcDbLine
  8
ring
 62
7
420
0
370
-1
  6
ByLayer
 10
-7.0260007419939736
 20
339.5460791013045991
 30
0.0
 11
-6.0782535428935933
 21
337.8409957871846245
 31
0.0
  0
LINE
  5
4D
100
AcDbEntity
100
AcDbLine
  8
ring
 62
7
420
0
370
-1
  6
ByLayer
 10
-6.0782535428935933
 20
337.8409957871846245
 30
0.0
 11
-4.7016505514211531
 21
338.0226296855217356
 31
0.0
  0
LINE
  5
4E
100
AcDbEntity
100
AcDbLine
  8
ring
 62
7
420
0
370
-1
  6
ByLayer
 10
-4.7016505514211531
 20
338.0226296855217356
 30
0.0
 11
-4.2285878995916883
 21
339.9151797083574138
 31
0.0
  0
LINE
  5
4F
100
AcDbEntity
100
AcDbLine
  8
ring
 62
7
420
0
370
-1
  6
ByLayer
 10
-4.2285878995916883
 20
339.9151797083574138
 30
0.0
 11
-4.0212006055672589
 21
341.7738143639215309
 31
0.0
  0
LINE
  5
50
100
AcDbEntity
100
AcDbLine
  8
ring
 62
7
420
0
370
-1
  6
ByLayer
 10
-13.4246576804344304
 20
339.9013867448383621
 30
0.0
 11
-12.5208511447725055
 21
338.2641127852702425
 31
0.0
  0
LINE
  5
51
100
AcDbEntity
100
AcDbLine
  8
ring
 62
7
420
0
370
-1
  6
ByLayer
 10
-12.5208511447725055
 20
338.2641127852702425
 30
0.0
 11
-11.358654021932983
 21
336.6973225283575744
 31
0.0
  0
LINE
  5
52
100
AcDbEntity
100
AcDbLine
  8
ring
 62
7
420
0
370
-1
  6
ByLayer
 10
-11.358654021932983
 20
336.6973225283575744
 30
0.0
 11
-10.0175360410138428
 21
337.0570852701907825
 31
0.0
  0
LINE
  5
53
100
AcDbEntity
100
AcDbLine
  8
ring
 62
7
420
0
370
-1
  6
ByLayer
 10
-10.0175360410138428
 20
337.0570852701907825
 30
0.0
 11
-9.7955478538163661
 21
338.9951913318489574
 31
0.0
  0
LINE
  5
54
100
AcDbEntity
100
AcDbLine
  8
ring
 62
7
420
0
370
-1
  6
ByLayer
 10
-9.7955478538163661
 20
338.9951913318489574
 30
0.0
 11
-9.8325352911606405
 21
340.8649945840831492
 31
0.0
  0
LINE
  5
55
100
AcDbEntity
100
AcDbLine
  8
ring
 62
7
420
0
370
-1
  6
ByLayer
 10
-18.9111436398603274
 20
337.7811883971615998
 30
0.0
 11
-17.8013621588387707
 21
336.2758919688901642
 31
0.0
  0
LINE
  5
56
100
AcDbEntity
100
AcDbLine
  8
ring
 62
7
420
0
370
-1
  6
ByLayer
 10
-17.8013621588387707
 20
336.2758919688901642
 30
0.0
 11
-16.4446006272538092
 21
334.874202984876888
 31
0.0
  0
LINE
  5
57
100
AcDbEntity
100
AcDbLine
  8
ring
 62
7
420
0
370
-1
  6
ByLayer
 10
-16.4446006272538092
 20
334.874202984876888
 30
0.0
 11
-15.1619145573696468
 21
335.4059389299484337
 31
0.0
  0
LINE
  5
58
100
AcDbEntity
100
AcDbLine
  8
ring
 62
7
420
0
370
-1
  6
ByLayer
 10
-15.1619145573696468
 20
335.4059389299484337
 30
0.0
 11
-15.1947991142338594
 21
337.356439498369582
 31
0.0
  0
LINE
  5
59
100
AcDbEntity
100
AcDbLine
  8
ring
 62
7
420
0
370
-1
  6
ByLayer
 10
-15.1947991142338594
 20
337.356439498369582
 30
0.0
 11
-15.4755284176390226
 21
339.2054184952206697
 31
0.0
  0
LINE
  5
5A
100
AcDbEntity
100
AcDbLine
  8
ring
 62
7
420
0
370
-1
  6
ByLayer
 10
-24.0739505342591897
 20
334.9629985193116113
 30
0.0
 11
-22.7771827767078356
 21
333.6154356615716097
 31
0.0
  0
LINE
  5
5B
100
AcDbEntity
100
AcDbLine
  8
ring
 62
7
420
0
370
-1
  6
ByLayer
 10
-22.7771827767078356
 20
333.6154356615716097
 30
0.0
 11
-21.2490714023482248
 21
332.4028312375957626
 31
0.0
  0
LINE
  5
5C
100
AcDbEntity
100
AcDbLine
  8
ring
 62
7
420
0
370
-1
  6
ByLayer
 10
-21.2490714023482248
 20
332.4028312375957626
 30
0.0
 11
-20.0467643577825143
 21
333.0974422364603811
 31
0.0
  0
LINE
  5
5D
100
AcDbEntity
100
AcDbLine
  8
ring
 62
7
420
0
370
-1
  6
ByLayer
 10
-20.0467643577825143
 20
333.0974422364603811
 30
0.0
 11
-20.3339589948231492
 21
335.0269637061379058
 31
0.0
  0
LINE
  5
5E
100
AcDbEntity
100
AcDbLine
  8
ring
 62
7
420
0
370
-1
  6
ByLayer
 10
-20.3339589948231492
 20
335.0269637061379058
 30
0.0
 11
-20.8536268080750702
 21
336.8234819043359494
 31
0.0
  0
LINE
  5
5F
100
AcDbEntity
100
AcDbLine
  8
ring
 62
7
420
0
370
-1
  6
ByLayer
 10
-28.8247413062673807
 20
331.4950371214482061
 30
0.0
 11
-27.3631753280498842
 21
330.3282650083506269
 31
0.0
  0
LINE
  5
60
100
AcDbEntity
100
AcDbLine
  8
ring
 62
7
420
0
370
-1
  6
ByLayer
 10
-27.3631753280498842
 20
330.3282650083506269
 30
0.0
 11
-25.6898605202034069
 21
329.3254931423039125
 31
0.0
  0
LINE
  5
61
100
AcDbEntity
100
AcDbLine
  8
ring
 62
7
420
0
370
-1
  6
ByLayer
 10
-25.6898605202034069
 20
329.3254931423039125
 30
0.0
 11
-24.5885043078311654
 21
330.1710942081884923
 31
0.0
  0
LINE
  5
62
100
AcDbEntity
100
AcDbLine
  8
ring
 62
7
420
0
370
-1
  6
ByLayer
 10
-24.5885043078311654
 20
330.1710942081884923
 30
0.0
 11
-25.1250950451830768
 21
332.0466219318117282
 31
0.0
  0
LINE
  5
63
100
AcDbEntity
100
AcDbLine
  8
ring
 62
7
420
0
370
-1
  6
ByLayer
 10
-25.1250950451830768
 20
332.0466219318117282
 30
0.0
 11
-25.8748097079178621
 21
333.7599404068966464
 31
0.0
  0
LINE
  5
64
100
AcDbEntity
100
AcDbLine
  8
ring
 62
7
420
0
370
-1
  6
ByLayer
 10
-33.082228608607771
 20
327.4366419845894143
 30
0.0
 11
-31.4808722088340751
 21
326.4706244104796724
 31
0.0
  0
LINE
  5
65
100
AcDbEntity
100
AcDbLine
  8
ring
 62
7
420
0
370
-1
  6
ByLayer
 10
-31.4808722088340751
 20
326.4706244104796724
 30
0.0
 11
-29.6909848477935228
 21
325.6948428070110708
 31
0.0
  0
LINE
  5
66
100
AcDbEntity
100
AcDbLine
  8
ring
 62
7
420
0
370
-1
  6
ByLayer
 10
-29.6909848477935228
 20
325.6948428070110708
 30
0.0
 11
-28.7094239777620714
 21
326.676965471233359
 31
0.0
  0
LINE
  5
67
100
AcDbEntity
100
AcDbLine
  8
ring
 62
7
420
0
370
-1
  6
ByLayer
 10
-28.7094239777620714
 20
326.676965471233359
 30
0.0
 11
-29.4862295991380776
 21
328.4664086494566959
 31
0.0
  0
LINE
  5
68
100
AcDbEntity
100
AcDbLine
  8
ring
 62
7
420
0
370
-1
  6
ByLayer
 10
-29.4862295991380776
 20
328.4664086494566959
 30
0.0
 11
-30.4531632856161956
 21
330.0672120472980851
 31
0.0
  0
LINE
  5
69
100
AcDbEntity
100
AcDbLine
  8
ring
 62
7
420
0
370
-1
  6
ByLayer
 10
-36.7735656531388457
 20
322.8572533747266107
 30
0.0
 11
-35.0598184837889519
 21
322.1085191681283391
 31
0.0
  0
LINE
  5
6A
100
AcDbEntity
100
AcDbLine
  8
ring
 62
7
420
0
370
-1
  6
ByLayer
 10
-35.0598184837889519
 20
322.1085191681283391
 30
0.0
 11
-33.1839840385522464
 21
321.5730016655605255
 31
0.0
  0
LINE
  5
6B
100
AcDbEntity
100
AcDbLine
  8
ring
 62
7
420
0
370
-1
  6
ByLayer
 10
-33.1839840385522464
 20
321.5730016655605255
 30
0.0
 11
-32.3390132894879088
 21
322.6748415370398675
 31
0.0
  0
LINE
  5
6C
100
AcDbEntity
100
AcDbLine
  8
ring
 62
7
420
0
370
-1
  6
ByLayer
 10
-32.3390132894879088
 20
322.6748415370398675
 30
0.0
 11
-33.3427424353350688
 21
324.3475823009564465
 31
0.0
  0
LINE
  5
6D
100
AcDbEntity
100
AcDbLine
  8
ring
 62
7
420
0
370
-1
  6
ByLayer
 10
-33.3427424353350688
 20
324.3475823009564465
 30
0.0
 11
-34.5103506420961992
 21
325.8084804315907945
 31
0.0
  0
LINE
  5
6E
100
AcDbEntity
100
AcDbLine
  8
ring
 62
7
420
0
370
-1
  6
ByLayer
 10
-39.8355926395966975
 20
317.8352259006209124
 30
0.0
 11
-38.0387773898786605
 21
317.3165861113973847
 31
0.0
  0
LINE
  5
6F
100
AcDbEntity
100
AcDbLine
  8
ring
 62
7
420
0
370
-1
  6
ByLayer
 10
-38.0387773898786605
 20
317.3165861113973847
 30
0.0
 11
-36.1090919078833608
 21
317.0304955626727406
 31
0.0
  0
LINE
  5
70
100
AcDbEntity
100
AcDbLine
  8
ring
 62
7
420
0
370
-1
  6
ByLayer
 10
-36.1090919078833608
 20
317.0304955626727406
 30
0.0
 11
-35.4151689635727891
 21
318.233199855720386
 31
0.0
  0
LINE
  5
71
100
AcDbEntity
100
AcDbLine
  8
ring
 62
7
420
0
370
-1
  6
ByLayer
 10
-35.4151689635727891
 20
318.233199855720386
 30
0.0
 11
-36.6286475499193642
 21
319.7606171470882828
 31
0.0
  0
LINE
  5
72
100
AcDbEntity
100
AcDbLine
  8
ring
 62
7
420
0
370
-1
  6
ByLayer
 10
-36.6286475499193642
 20
319.7606171470882828
 30
0.0
 11
-37.9769521768236729
 21
321.0566136384628635
 31
0.0
  0
LINE
  5
73
100
AcDbEntity
100
AcDbLine
  8
ring
 62
7
420
0
370
-1
  6
ByLayer
 10
-42.2159174372887804
 20
312.4564878447233127
 30
0.0
 11
-40.3667781142965794
 21
312.1768165434622802
 31
0.0
  0
LINE
  5
74
100
AcDbEntity
100
AcDbLine
  8
ring
 62
7
420
0
370
-1
  6
ByLayer
 10
-40.3667781142965794
 20
312.1768165434622802
 30
0.0
 11
-38.4162590491495095
 21
312.1450480371887579
 31
0.0
  0
LINE
  5
75
100
AcDbEntity
100
AcDbLine
  8
ring
 62
7
420
0
370
-1
  6
ByLayer
 10
-38.4162590491495095
 20
312.1450480371887579
 30
0.0
 11
-37.8852571235616296
 21
313.4280381478981212
 31
0.0
  0
LINE
  5
76
100
AcDbEntity
100
AcDbLine
  8
ring
 62
7
420
0
370
-1
  6
ByLayer
 10
-37.8852571235616296
 20
313.4280381478981212
 30
0.0
 11
-39.2877221953554212
 21
314.7839974333818986
 31
0.0
  0
LINE
  5
77
100
AcDbEntity
100
AcDbLine
  8
ring
 62
7
420
0
370
-1
  6
ByLayer
 10
-39.2877221953554212
 20
314.7839974333818986
 30
0.0
 11
-40.7936533764158966
 21
315.8929174262112269
 31
0.0
  0
LINE
  5
78
100
AcDbEntity
100
AcDbLine
  8
ring
 62
7
420
0
370
-1
  6
ByLayer
 10
-43.8738120289758484
 20
306.8130709064381563
 30
0.0
 11
-42.0039879192041496
 21
306.777153346643729
 31
0.0
  0
LINE
  5
79
100
AcDbEntity
100
AcDbLine
  8
ring
 62
7
420
0
370
-1
  6
ByLayer
 10
-42.0039879192041496
 20
306.777153346643729
 30
0.0
 11
-40.0660091928960469
 21
307.0002504507716026
 31
0.0
  0
LINE
  5
7A
100
AcDbEntity
100
AcDbLine
  8
ring
 62
7
420
0
370
-1
  6
ByLayer
 10
-40.0660091928960469
 20
307.0002504507716026
 30
0.0
 11
-39.7070138761992126
 21
308.3415740626363117
 31
0.0
  0
LINE
  5
7B
100
AcDbEntity
100
AcDbLine
  8
ring
 62
7
420
0
370
-1
  6
ByLayer
 10
-39.7070138761992126
 20
308.3415740626363117
 30
0.0
 11
-41.274468867225039
 21
309.5028745029184734
 31
0.0
  0
LINE
  5
7C
100
AcDbEntity
100
AcDbLine
  8
ring
 62
7
420
0
370
-1
  6
ByLayer
 10
-41.274468867225039
 20
309.5028745029184734
 30
0.0
 11
-42.9122597024107435
 21
310.405744068674494
 31
0.0
  0
LINE
  5
7D
100
AcDbEntity
100
AcDbLine
  8
ring
 62
7
420
0
370
-1
  6
ByLayer
 10
-44.7809093785389223
 20
301.0015355142303406
 30
0.0
 11
-42.9223936909191153
 21
301.2099862553087632
 31
0.0
  0
LINE
  5
7E
100
AcDbEntity
100
AcDbLine
  8
ring
 62
7
420
0
370
-1
  6
ByLayer
 10
-42.9223936909191153
 20
301.2099862553087632
 30
0.0
 11
-41.0301146567663082
 21
301.6841317165321925
 31
0.0
  0
LINE
  5
7F
100
AcDbEntity
100
AcDbLine
  8
ring
 62
7
420
0
370
-1
  6
ByLayer
 10
-41.0301146567663082
 20
301.6841317165321925
 30
0.0
 11
-40.8492684583615144
 21
303.0608384106681115
 31
0.0
  0
LINE
  5
80
100
AcDbEntity
100
AcDbLine
  8
ring
 62
7
420
0
370
-1
  6
ByLayer
 10
-40.8492684583615144
 20
303.0608384106681115
 30
0.0
 11
-42.5548937791423043
 21
304.0076098332420429
 31
0.0
  0
LINE
  5
81
100
AcDbEntity
100
AcDbLine
  8
ring
 62
7
420
0
370
-1
  6
ByLayer
 10
-42.5548937791423043
 20
304.0076098332420429
 30
0.0
 11
-44.2965212131817978
 21
304.6889806233320428
 31
0.0
  0
LINE
  5
82
100
AcDbEntity
100
AcDbLine
  8
ring
 62
7
420
0
370
-1
  6
ByLayer
 10
-44.9216887988320792
 20
295.1213186499224435
 30
0.0
 11
-43.1062812520572294
 21
295.5705710419005072
 31
0.0
  0
LINE
  5
83
100
AcDbEntity
100
AcDbLine
  8
ring
 62
7
420
0
370
-1
  6
ByLayer
 10
-43.1062812520572294
 20
295.5705710419005072
 30
0.0
 11
-41.292079328972946
 21
296.287652099919967
 31
0.0
  0
LINE
  5
84
100
AcDbEntity
100
AcDbLine
  8
ring
 62
7
420
0
370
-1
  6
ByLayer
 10
-41.292079328972946
 20
296.287652099919967
 30
0.0
 11
-41.2924765774549343
 21
297.6761860430951856
 31
0.0
  0
LINE
  5
85
100
AcDbEntity
100
AcDbLine
  8
ring
 62
7
420
0
370
-1
  6
ByLayer
 10
-41.2924765774549343
 20
297.6761860430951856
 30
0.0
 11
-43.1070885058634445
 21
298.3922289264260712
 31
0.0
  0
LINE
  5
86
100
AcDbEntity
100
AcDbLine
  8
ring
 62
7
420
0
370
-1
  6
ByLayer
 10
-43.1070885058634445
 20
298.3922289264260712
 30
0.0
 11
-44.9227528104899676
 21
298.8404424977198346
 31
0.0
  0
LINE
  5
87
100
AcDbEntity
100
AcDbLine
  8
ring
 62
7
420
0
370
-1
  6
ByLayer
 10
-44.2937415149426812
 20
289.2730324543670122
 30
0.0
 11
-42.5525042354641627
 21
289.9553996642616198
 31
0.0
  0
LINE
  5
88
100
AcDbEntity
100
AcDbLine
  8
ring
 62
7
420
0
370
-1
  6
ByLayer
 10
-42.5525042354641627
 20
289.9553996642616198
 30
0.0
 11
-40.8474209213441739
 21
290.9031468633619966
 31
0.0
  0
LINE
  5
89
100
AcDbEntity
100
AcDbLine
  8
ring
 62
7
420
0
370
-1
  6
ByLayer
 10
-40.8474209213441739
 20
290.9031468633619966
 30
0.0
 11
-41.0290548196812779
 21
292.2797498548343924
 31
0.0
  0
LINE
  5
8A
100
AcDbEntity
100
AcDbLine
  8
ring
 62
7
420
0
370
-1
  6
ByLayer
 10
-41.0290548196812779
 20
292.2797498548343924
 30
0.0
 11
-42.9216048425169703
 21
292.7528125066638722
 31
0.0
  0
LINE
  5
8B
100
AcDbEntity
100
AcDbLine
  8
ring
 62
7
420
0
370
-1
  6
ByLayer
 10
-42.9216048425169703
 20
292.7528125066638722
 30
0.0
 11
-44.7802394980811087
 21
292.960199800688315
 31
0.0
  0
LINE
  5
8C
100
AcDbEntity
100
AcDbLine
  8
ring
 62
7
420
0
370
-1
  6
ByLayer
 10
-42.907811878997947
 20
283.5567427258211524
 30
0.0
 11
-41.2705379194298203
 21
284.4605492614830382
 31
0.0
  0
LINE
  5
8D
100
AcDbEntity
100
AcDbLine
  8
ring
 62
7
420
0
370
-1
  6
ByLayer
 10
-41.2705379194298203
 20
284.4605492614830382
 30
0.0
 11
-39.7037476625171166
 21
285.6227463843225678
 31
0.0
  0
LINE
  5
8E
100
AcDbEntity
100
AcDbLine
  8
ring
 62
7
420
0
370
-1
  6
ByLayer
 10
-39.7037476625171166
 20
285.6227463843225678
 30
0.0
 11
-40.0635104043503674
 21
286.9638643652417045
 31
0.0
  0
LINE
  5
8F
100
AcDbEntity
100
AcDbLine
  8
ring
 62
7
420
0
370
-1
  6
ByLayer
 10
-40.0635104043503674
 20
286.9638643652417045
 30
0.0
 11
-42.0016164660085209
 21
287.1858525524392007
 31
0.0
  0
LINE
  5
90
100
AcDbEntity
100
AcDbLine
  8
ring
 62
7
420
0
370
-1
  6
ByLayer
 10
-42.0016164660085209
 20
287.1858525524392007
 30
0.0
 11
-43.8714197182426986
 21
287.1488651150949067
 31
0.0
  0
LINE
  5
91
100
AcDbEntity
100
AcDbLine
  8
ring
 62
7
420
0
370
-1
  6
ByLayer
 10
-40.7876135313211776
 20
278.0702567663952323
 30
0.0
 11
-39.2823171030497562
 21
279.1800382474168032
 31
0.0
  0
LINE
  5
92
100
AcDbEntity
100
AcDbLine
  8
ring
 62
7
420
0
370
-1
  6
ByLayer
 10
-39.2823171030497562
 20
279.1800382474168032
 30
0.0
 11
-37.8806281190364516
 21
280.5367997790017398
 31
0.0
  0
LINE
  5
93
100
AcDbEntity
100
AcDbLine
  8
ring
 62
7
420
0
370
-1
  6
ByLayer
 10
-37.8806281190364516
 20
280.5367997790017398
 30
0.0
 11
-38.4123640641079902
 21
281.819485848885904
 31
0.0
  0
LINE
  5
94
100
AcDbEntity
100
AcDbLine
  8
ring
 62
7
420
0
370
-1
  6
ByLayer
 10
-38.4123640641079902
 20
281.819485848885904
 30
0.0
 11
-40.3628646325291243
 21
281.7866012920217145
 31
0.0
  0
LINE
  5
95
100
AcDbEntity
100
AcDbLine
  8
ring
 62
7
420
0
370
-1
  6
ByLayer
 10
-40.3628646325291243
 20
281.7866012920217145
 30
0.0
 11
-42.211843629380212
 21
281.5058719886165477
 31
0.0
  0
LINE
  5
96
100
AcDbEntity
100
AcDbLine
  8
ring
 62
7
420
0
370
-1
  6
ByLayer
 10
-37.9694236534711607
 20
272.9074498719963913
 30
0.0
 11
-36.6218607957311804
 21
274.2042176295477134
 31
0.0
  0
LINE
  5
97
100
AcDbEntity
100
AcDbLine
  8
ring
 62
7
420
0
370
-1
  6
ByLayer
 10
-36.6218607957311804
 20
274.2042176295477134
 30
0.0
 11
-35.4092563717553475
 21
275.7323290039073527
 31
0.0
  0
LINE
  5
98
100
AcDbEntity
100
AcDbLine
  8
ring
 62
7
420
0
370
-1
  6
ByLayer
 10
-35.4092563717553475
 20
275.7323290039073527
 30
0.0
 11
-36.1038673706199589
 21
276.9346360484730667
 31
0.0
  0
LINE
  5
99
100
AcDbEntity
100
AcDbLine
  8
ring
 62
7
420
0
370
-1
  6
ByLayer
 10
-36.1038673706199589
 20
276.9346360484730667
 30
0.0
 11
-38.0333888402974551
 21
276.6474414114323963
 31
0.0
  0
LINE
  5
9A
100
AcDbEntity
100
AcDbLine
  8
ring
 62
7
420
0
370
-1
  6
ByLayer
 10
-38.0333888402974551
 20
276.6474414114323963
 30
0.0
 11
-39.8299070384955058
 21
276.1277735981805108
 31
0.0
  0
LINE
  5
9B
100
AcDbEntity
100
AcDbLine
  8
ring
 62
7
420
0
370
-1
  6
ByLayer
 10
-34.5014622556077697
 20
268.1566590999881896
 30
0.0
 11
-33.3346901425101763
 21
269.6182250782056826
 31
0.0
  0
LINE
  5
9C
100
AcDbEntity
100
AcDbLine
  8
ring
 62
7
420
0
370
-1
  6
ByLayer
 10
-33.3346901425101763
 20
269.6182250782056826
 30
0.0
 11
-32.3319182764634974
 21
271.2915398860521918
 31
0.0
  0
LINE
  5
9D
100
AcDbEntity
100
AcDbLine
  8
ring
 62
7
420
0
370
-1
  6
ByLayer
 10
-32.3319182764634974
 20
271.2915398860521918
 30
0.0
 11
-33.1775193423480488
 21
272.3928960984243872
 31
0.0
  0
LINE
  5
9E
100
AcDbEntity
100
AcDbLine
  8
ring
 62
7
420
0
370
-1
  6
ByLayer
 10
-33.1775193423480488
 20
272.3928960984243872
 30
0.0
 11
-35.053047065971306
 21
271.8563053610724864
 31
0.0
  0
LINE
  5
9F
100
AcDbEntity
100
AcDbLine
  8
ring
 62
7
420
0
370
-1
  6
ByLayer
 10
-35.053047065971306
 20
271.8563053610724864
 30
0.0
 11
-36.76636554105621
 21
271.1065906983376976
 31
0.0
  0
LINE
  5
A0
100
AcDbEntity
100
AcDbLine
  8
ring
 62
7
420
0
370
-1
  6
ByLayer
 10
-30.4430671187489743
 20
263.8991717976477958
 30
0.0
 11
-29.477049544639204
 21
265.5005281974214881
 31
0.0
  0
LINE
  5
A1
100
AcDbEntity
100
AcDbLine
  8
ring
 62
7
420
0
370
-1
  6
ByLayer
 10
-29.477049544639204
 20
265.5005281974214881
 30
0.0
 11
-28.7012679411706166
 21
267.2904155584620298
 31
0.0
  0
LINE
  5
A2
100
AcDbEntity
100
AcDbLine
  8
ring
 62
7
420
0
370
-1
  6
ByLayer
 10
-28.7012679411706166
 20
267.2904155584620298
 30
0.0
 11
-29.6833906053929297
 21
268.271976428493474
 31
0.0
  0
LINE
  5
A3
100
AcDbEntity
100
AcDbLine
  8
ring
 62
7
420
0
370
-1
  6
ByLayer
 10
-29.6833906053929297
 20
268.271976428493474
 30
0.0
 11
-31.4728337836162346
 21
267.4951708071174608
 31
0.0
  0
LINE
  5
A4
100
AcDbEntity
100
AcDbLine
  8
ring
 62
7
420
0
370
-1
  6
ByLayer
 10
-31.4728337836162346
 20
267.4951708071174608
 30
0.0
 11
-33.0736371814576628
 21
266.5282371206393464
 31
0.0
  0
LINE
  5
A5
100
AcDbEntity
100
AcDbLine
  8
ring
 62
7
420
0
370
-1
  6
ByLayer
 10
-25.86367850888616
 20
260.2078347531166855
 30
0.0
 11
-25.1149443022879062
 21
261.9215819224666006
 31
0.0
  0
LINE
  5
A6
100
AcDbEntity
100
AcDbLine
  8
ring
 62
7
420
0
370
-1
  6
ByLayer
 10
-25.1149443022879062
 20
261.9215819224666006
 30
0.0
 11
-24.5794267997200606
 21
263.7974163677033062
 31
0.0
  0
LINE
  5
A7
100
AcDbEntity
100
AcDbLine
  8
ring
 62
7
420
0
370
-1
  6
ByLayer
 10
-24.5794267997200606
 20
263.7974163677033062
 30
0.0
 11
-25.6812666711994204
 21
264.6423871167676225
 31
0.0
  0
LINE
  5
A8
100
AcDbEntity
100
AcDbLine
  8
ring
 62
7
420
0
370
-1
  6
ByLayer
 10
-25.6812666711994204
 20
264.6423871167676225
 30
0.0
 11
-27.3540074351160101
 21
263.6386579709204625
 31
0.0
  0
LINE
  5
A9
100
AcDbEntity
100
AcDbLine
  8
ring
 62
7
420
0
370
-1
  6
ByLayer
 10
-27.3540074351160101
 20
263.6386579709204625
 30
0.0
 11
-28.8149055657503581
 21
262.4710497641593747
 31
0.0
  0
LINE
  5
AA
100
AcDbEntity
100
AcDbLine
  8
ring
 62
7
420
0
370
-1
  6
ByLayer
 10
-20.8416510347804582
 20
257.1458077666588906
 30
0.0
 11
-20.3230112455569554
 21
258.9426230163768992
 31
0.0
  0
LINE
  5
AB
100
AcDbEntity
100
AcDbLine
  8
ring
 62
7
420
0
370
-1
  6
ByLayer
 10
-20.3230112455569554
 20
258.9426230163768992
 30
0.0
 11
-20.0369206968322864
 21
260.872308498372206
 31
0.0
  0
LINE
  5
AC
100
AcDbEntity
100
AcDbLine
  8
ring
 62
7
420
0
370
-1
  6
ByLayer
 10
-20.0369206968322864
 20
260.872308498372206
 30
0.0
 11
-21.2396249898799994
 21
261.5662314426828061
 31
0.0
  0
LINE
  5
AD
100
AcDbEntity
100
AcDbLine
  8
ring
 62
7
420
0
370
-1
  6
ByLayer
 10
-21.2396249898799994
 20
261.5662314426828061
 30
0.0
 11
-22.7670422812478606
 21
260.3527528563362239
 31
0.0
  0
LINE
  5
AE
100
AcDbEntity
100
AcDbLine
  8
ring
 62
7
420
0
370
-1
  6
ByLayer
 10
-22.7670422812478606
 20
260.3527528563362239
 30
0.0
 11
-24.0630387726224448
 21
259.0044482294318868
 31
0.0
  0
LINE
  5
AF
100
AcDbEntity
100
AcDbLine
  8
ring
 62
7
420
0
370
-1
  6
ByLayer
 10
-15.4629129788828426
 20
254.7654829689667793
 30
0.0
 11
-15.1832416776218224
 21
256.6146222919589945
 31
0.0
  0
LINE
  5
B0
100
AcDbEntity
100
AcDbLine
  8
ring
 62
7
420
0
370
-1
  6
ByLayer
 10
-15.1832416776218224
 20
256.6146222919589945
 30
0.0
 11
-15.1514731713483322
 21
258.5651413571060289
 31
0.0
  0
LINE
  5
B1
100
AcDbEntity
100
AcDbLine
  8
ring
 62
7
420
0
370
-1
  6
ByLayer
 10
-15.1514731713483322
 20
258.5651413571060289
 30
0.0
 11
-16.4344632820576635
 21
259.0961432826939017
 31
0.0
  0
LINE
  5
B2
100
AcDbEntity
100
AcDbLine
  8
ring
 62
7
420
0
370
-1
  6
ByLayer
 10
-16.4344632820576635
 20
259.0961432826939017
 30
0.0
 11
-17.7904225675414764
 21
257.6936782109001456
 31
0.0
  0
LINE
  5
B3
100
AcDbEntity
100
AcDbLine
  8
ring
 62
7
420
0
370
-1
  6
ByLayer
 10
-17.7904225675414764
 20
257.6936782109001456
 30
0.0
 11
-18.8993425603707976
 21
256.1877470298396702
 31
0.0
  0
LINE
  5
B4
100
AcDbEntity
100
AcDbLine
  8
ring
 62
7
420
0
370
-1
  6
ByLayer
 10
-9.8194960405977554
 20
253.1075883772797113
 30
0.0
 11
-9.7835784808033246
 21
254.9774124870514243
 31
0.0
  0
LINE
  5
B5
100
AcDbEntity
100
AcDbLine
  8
ring
 62
7
420
0
370
-1
  6
ByLayer
 10
-9.7835784808033246
 20
254.9774124870514243
 30
0.0
 11
-10.0066755849311768
 21
256.9153912133594986
 31
0.0
  0
LINE
  5
B6
100
AcDbEntity
100
AcDbLine
  8
ring
 62
7
420
0
370
-1
  6
ByLayer
 10
-10.0066755849311768
 20
256.9153912133594986
 30
0.0
 11
-11.3479991967958611
 21
257.2743865300563471
 31
0.0
  0
LINE
  5
B7
100
AcDbEntity
100
AcDbLine
  8
ring
 62
7
420
0
370
-1
  6
ByLayer
 10
-11.3479991967958611
 20
257.2743865300563471
 30
0.0
 11
-12.509299637077989
 21
255.7069315390305064
 31
0.0
  0
LINE
  5
B8
100
AcDbEntity
100
AcDbLine
  8
ring
 62
7
420
0
370
-1
  6
ByLayer
 10
-12.509299637077989
 20
255.7069315390305064
 30
0.0
 11
-13.41216920283407
 21
254.0691407038448233
 31
0.0
  0
LINE
  5
B9
100
AcDbEntity
100
AcDbLine
  8
ring
 62
7
420
0
370
-1
  6
ByLayer
 10
-4.0079606483898766
 20
252.2004910277166232
 30
0.0
 11
-4.2164113894683508
 21
254.0590067153364373
 31
0.0
  0
LINE
  5
BA
100
AcDbEntity
100
AcDbLine
  8
ring
 62
7
420
0
370
-1
  6
ByLayer
 10
-4.2164113894683508
 20
254.0590067153364373
 30
0.0
 11
-4.6905568506917863
 21
255.9512857494892444
 31
0.0
  0
LINE
  5
BB
100
AcDbEntity
100
AcDbLine
  8
ring
 62
7
420
0
370
-1
  6
ByLayer
 10
-4.6905568506917863
 20
255.9512857494892444
 30
0.0
 11
-6.0672635448276564
 21
256.1321319478940381
 31
0.0
  0
LINE
  5
BC
100
AcDbEntity
100
AcDbLine
  8
ring
 62
7
420
0
370
-1
  6
ByLayer
 10
-6.0672635448276564
 20
256.1321319478940381
 30
0.0
 11
-7.0140349674016367
 21
254.4265066271132696
 31
0.0
  0
LINE
  5
BD
100
AcDbEntity
100
AcDbLine
  8
ring
 62
7
420
0
370
-1
  6
ByLayer
 10
-7.0140349674016367
 20
254.4265066271132696
 30
0.0
 11
-7.6954057574915833
 21
252.6848791930737548
 31
0.0
  0
LINE
  5
BE
100
AcDbEntity
100
AcDbLine
  8
ring
 62
7
420
0
370
-1
  6
ByLayer
 10
1.8722562159179865
 20
252.0597116074234805
 30
0.0
 11
1.4230038239399263
 21
253.8751191541983303
 31
0.0
  0
LINE
  5
BF
100
AcDbEntity
100
AcDbLine
  8
ring
 62
7
420
0
370
-1
  6
ByLayer
 10
1.4230038239399263
 20
253.8751191541983303
 30
0.0
 11
0.7059227659204701
 21
255.6893210772826137
 31
0.0
  0
LINE
  5
C0
100
AcDbEntity
100
AcDbLine
  8
ring
 62
7
420
0
370
-1
  6
ByLayer
 10
0.7059227659204701
 20
255.6893210772826137
 30
0.0
 11
-0.6826111772547143
 21
255.6889238288006254
 31
0.0
  0
LINE
  5
C1
100
AcDbEntity
100
AcDbLine
  8
ring
 62
7
420
0
370
-1
  6
ByLayer
 10
-0.6826111772547143
 20
255.6889238288006254
 30
0.0
 11
-1.3986540605856379
 21
253.8743119003921151
 31
0.0
  0
LINE
  5
C2
100
AcDbEntity
100
AcDbLine
  8
ring
 62
7
420
0
370
-1
  6
ByLayer
 10
-1.3986540605856379
 20
253.8743119003921151
 30
0.0
 11
-1.8468676318794128
 21
252.0586475957655921
 31
0.0
  0
LINE
  5
C3
100
AcDbEntity
100
AcDbLine
  8
ring
 62
7
420
0
370
-1
  6
ByLayer
 10
7.72054241147345
 20
252.6876588913128785
 30
0.0
 11
7.0381752015788432
 21
254.4288961707914041
 31
0.0
  0
LINE
  5
C4
100
AcDbEntity
100
AcDbLine
  8
ring
 62
7
420
0
370
-1
  6
ByLayer
 10
7.0381752015788432
 20
254.4288961707914041
 30
0.0
 11
6.0904280024784718
 21
256.1339794849113787
 31
0.0
  0
LINE
  5
C5
100
AcDbEntity
100
AcDbLine
  8
ring
 62
7
420
0
370
-1
  6
ByLayer
 10
6.0904280024784718
 20
256.1339794849113787
 30
0.0
 11
4.713825011006004
 21
255.9523455865742676
 31
0.0
  0
LINE
  5
C6
100
AcDbEntity
100
AcDbLine
  8
ring
 62
7
420
0
370
-1
  6
ByLayer
 10
4.713825011006004
 20
255.9523455865742676
 30
0.0
 11
4.2407623591765571
 21
254.0597955637385894
 31
0.0
  0
LINE
  5
C7
100
AcDbEntity
100
AcDbLine
  8
ring
 62
7
420
0
370
-1
  6
ByLayer
 10
4.2407623591765571
 20
254.0597955637385894
 30
0.0
 11
4.0333750651521472
 21
252.2011609081744439
 31
0.0
  0
LINE
  5
C8
100
AcDbEntity
100
AcDbLine
  8
ring
 62
7
420
0
370
-1
  6
ByLayer
 10
13.4368321400193
 20
254.0735885272576127
 30
0.0
 11
12.5330256043573751
 21
255.7108624868257323
 31
0.0
  0
LINE
  5
C9
100
AcDbEntity
100
AcDbLine
  8
ring
 62
7
420
0
370
-1
  6
ByLayer
 10
12.5330256043573751
 20
255.7108624868257323
 30
0.0
 11
11.3708284815178615
 21
257.2776527437384289
 31
0.0
  0
LINE
  5
CA
100
AcDbEntity
100
AcDbLine
  8
ring
 62
7
420
0
370
-1
  6
ByLayer
 10
11.3708284815178615
 20
257.2776527437384289
 30
0.0
 11
10.0297105005987301
 21
256.9178900019052207
 31
0.0
  0
LINE
  5
CB
100
AcDbEntity
100
AcDbLine
  8
ring
 62
7
420
0
370
-1
  6
ByLayer
 10
10.0297105005987301
 20
256.9178900019052207
 30
0.0
 11
9.8077223134012357
 21
254.9797839402470458
 31
0.0
  0
LINE
  5
CC
100
AcDbEntity
100
AcDbLine
  8
ring
 62
7
420
0
370
-1
  6
ByLayer
 10
9.8077223134012357
 20
254.9797839402470458
 30
0.0
 11
9.8447097507454888
 21
253.109980688012854
 31
0.0
  0
LINE
  5
CD
100
AcDbEntity
100
AcDbLine
  8
ring
 62
7
420
0
370
-1
  6
ByLayer
 10
18.9233180994451864
 20
256.1937868749344034
 30
0.0
 11
17.8135366184236332
 21
257.6990833032057822
 31
0.0
  0
LINE
  5
CE
100
AcDbEntity
100
AcDbLine
  8
ring
 62
7
420
0
370
-1
  6
ByLayer
 10
17.8135366184236332
 20
257.6990833032057822
 30
0.0
 11
16.4567750868386788
 21
259.1007722872191152
 31
0.0
  0
LINE
  5
CF
100
AcDbEntity
100
AcDbLine
  8
ring
 62
7
420
0
370
-1
  6
ByLayer
 10
16.4567750868386788
 20
259.1007722872191152
 30
0.0
 11
15.1740890169544915
 21
258.5690363421475695
 31
0.0
  0
LINE
  5
D0
100
AcDbEntity
100
AcDbLine
  8
ring
 62
7
420
0
370
-1
  6
ByLayer
 10
15.1740890169544915
 20
258.5690363421475695
 30
0.0
 11
15.2069735738187202
 21
256.6185357737264212
 31
0.0
  0
LINE
  5
D1
100
AcDbEntity
100
AcDbLine
  8
ring
 62
7
420
0
370
-1
  6
ByLayer
 10
15.2069735738187202
 20
256.6185357737264212
 30
0.0
 11
15.4877028772239012
 21
254.7695567768753335
 31
0.0
  0
LINE
  5
D2
100
AcDbEntity
100
AcDbLine
  8
ring
 62
7
420
0
370
-1
  6
ByLayer
 10
24.0861249938440842
 20
259.0119767527843919
 30
0.0
 11
22.7893572362927337
 21
260.3595396105243935
 31
0.0
  0
LINE
  5
D3
100
AcDbEntity
100
AcDbLine
  8
ring
 62
7
420
0
370
-1
  6
ByLayer
 10
22.7893572362927337
 20
260.3595396105243935
 30
0.0
 11
21.2612458619330873
 21
261.5721440345001838
 31
0.0
  0
LINE
  5
D4
100
AcDbEntity
100
AcDbLine
  8
ring
 62
7
420
0
370
-1
  6
ByLayer
 10
21.2612458619330873
 20
261.5721440345001838
 30
0.0
 11
20.0589388173673946
 21
260.8775330356356221
 31
0.0
  0
LINE
  5
D5
100
AcDbEntity
100
AcDbLine
  8
ring
 62
7
420
0
370
-1
  6
ByLayer
 10
20.0589388173673946
 20
260.8775330356356221
 30
0.0
 11
20.3461334544080117
 21
258.9480115659580974
 31
0.0
  0
LINE
  5
D6
100
AcDbEntity
100
AcDbLine
  8
ring
 62
7
420
0
370
-1
  6
ByLayer
 10
20.3461334544080117
 20
258.9480115659580974
 30
0.0
 11
20.8658012676599505
 21
257.1514933677600538
 31
0.0
  0
LINE
  5
D7
100
AcDbEntity
100
AcDbLine
  8
ring
 62
7
420
0
370
-1
  6
ByLayer
 10
28.8369157658522326
 20
262.4799381506477971
 30
0.0
 11
27.375349787634736
 21
263.6467102637453763
 31
0.0
  0
LINE
  5
D8
100
AcDbEntity
100
AcDbLine
  8
ring
 62
7
420
0
370
-1
  6
ByLayer
 10
27.375349787634736
 20
263.6467102637453763
 30
0.0
 11
25.702034979788273
 21
264.6494821297920907
 31
0.0
  0
LINE
  5
D9
100
AcDbEntity
100
AcDbLine
  8
ring
 62
7
420
0
370
-1
  6
ByLayer
 10
25.702034979788273
 20
264.6494821297920907
 30
0.0
 11
24.6006787674160456
 21
263.8038810639075109
 31
0.0
  0
LINE
  5
DA
100
AcDbEntity
100
AcDbLine
  8
ring
 62
7
420
0
370
-1
  6
ByLayer
 10
24.6006787674160456
 20
263.8038810639075109
 30
0.0
 11
25.1372695047679571
 21
261.928353340284275
 31
0.0
  0
LINE
  5
DB
100
AcDbEntity
100
AcDbLine
  8
ring
 62
7
420
0
370
-1
  6
ByLayer
 10
25.1372695047679571
 20
261.928353340284275
 30
0.0
 11
25.8869841675027423
 21
260.2150348651993568
 31
0.0
  0
LINE
  5
DC
100
AcDbEntity
100
AcDbLine
  8
ring
 62
7
420
0
370
-1
  6
ByLayer
 10
33.0944030681926549
 20
266.5383332875065889
 30
0.0
 11
31.4930466684189554
 21
267.5043508616163308
 31
0.0
  0
LINE
  5
DD
100
AcDbEntity
100
AcDbLine
  8
ring
 62
7
420
0
370
-1
  6
ByLayer
 10
31.4930466684189554
 20
267.5043508616163308
 30
0.0
 11
29.7031593073783782
 21
268.2801324650849324
 31
0.0
  0
LINE
  5
DE
100
AcDbEntity
100
AcDbLine
  8
ring
 62
7
420
0
370
-1
  6
ByLayer
 10
29.7031593073783782
 20
268.2801324650849324
 30
0.0
 11
28.7215984373469375
 21
267.2980098008625873
 31
0.0
  0
LINE
  5
DF
100
AcDbEntity
100
AcDbLine
  8
ring
 62
7
420
0
370
-1
  6
ByLayer
 10
28.7215984373469375
 20
267.2980098008625873
 30
0.0
 11
29.4984040587229295
 21
265.5085666226393073
 31
0.0
  0
LINE
  5
E0
100
AcDbEntity
100
AcDbLine
  8
ring
 62
7
420
0
370
-1
  6
ByLayer
 10
29.4984040587229295
 20
265.5085666226393073
 30
0.0
 11
30.4653377452010581
 21
263.9077632247978613
 31
0.0
  0
LINE
  5
E1
100
AcDbEntity
100
AcDbLine
  8
ring
 62
7
420
0
370
-1
  6
ByLayer
 10
36.7857401127237296
 20
271.1177218973693925
 30
0.0
 11
35.0719929433738287
 21
271.8664561039676641
 31
0.0
  0
LINE
  5
E2
100
AcDbEntity
100
AcDbLine
  8
ring
 62
7
420
0
370
-1
  6
ByLayer
 10
35.0719929433738287
 20
271.8664561039676641
 30
0.0
 11
33.1961584981371232
 21
272.4019736065354778
 31
0.0
  0
LINE
  5
E3
100
AcDbEntity
100
AcDbLine
  8
ring
 62
7
420
0
370
-1
  6
ByLayer
 10
33.1961584981371232
 20
272.4019736065354778
 30
0.0
 11
32.3511877490727997
 21
271.3001337350561357
 31
0.0
  0
LINE
  5
E4
100
AcDbEntity
100
AcDbLine
  8
ring
 62
7
420
0
370
-1
  6
ByLayer
 10
32.3511877490727997
 20
271.3001337350561357
 30
0.0
 11
33.3549168949199526
 21
269.6273929711395567
 31
0.0
  0
LINE
  5
E5
100
AcDbEntity
100
AcDbLine
  8
ring
 62
7
420
0
370
-1
  6
ByLayer
 10
33.3549168949199526
 20
269.6273929711395567
 30
0.0
 11
34.5225251016810617
 21
268.1664948405052087
 31
0.0
  0
LINE
  5
E6
100
AcDbEntity
100
AcDbLine
  8
ring
 62
7
420
0
370
-1
  6
ByLayer
 10
39.8477670991815813
 20
276.1397493714750908
 30
0.0
 11
38.0509518494635444
 21
276.6583891606986185
 31
0.0
  0
LINE
  5
E7
100
AcDbEntity
100
AcDbLine
  8
ring
 62
7
420
0
370
-1
  6
ByLayer
 10
38.0509518494635444
 20
276.6583891606986185
 30
0.0
 11
36.1212663674682446
 21
276.9444797094232626
 31
0.0
  0
LINE
  5
E8
100
AcDbEntity
100
AcDbLine
  8
ring
 62
7
420
0
370
-1
  6
ByLayer
 10
36.1212663674682446
 20
276.9444797094232626
 30
0.0
 11
35.4273434231576516
 21
275.7417754163755603
 31
0.0
  0
LINE
  5
E9
100
AcDbEntity
100
AcDbLine
  8
ring
 62
7
420
0
370
-1
  6
ByLayer
 10
35.4273434231576516
 20
275.7417754163755603
 30
0.0
 11
36.6408220095042481
 21
274.2143581250077204
 31
0.0
  0
LINE
  5
EA
100
AcDbEntity
100
AcDbLine
  8
ring
 62
7
420
0
370
-1
  6
ByLayer
 10
36.6408220095042481
 20
274.2143581250077204
 30
0.0
 11
37.9891266364085567
 21
272.9183616336331397
 31
0.0
  0
LINE
  5
EB
100
AcDbEntity
100
AcDbLine
  8
ring
 62
7
420
0
370
-1
  6
ByLayer
 10
42.2280918968736572
 20
281.5184874273726905
 30
0.0
 11
40.378952573881449
 21
281.7981587286337231
 31
0.0
  0
LINE
  5
EC
100
AcDbEntity
100
AcDbLine
  8
ring
 62
7
420
0
370
-1
  6
ByLayer
 10
40.378952573881449
 20
281.7981587286337231
 30
0.0
 11
38.4284335087343933
 21
281.8299272349072453
 31
0.0
  0
LINE
  5
ED
100
AcDbEntity
100
AcDbLine
  8
ring
 62
7
420
0
370
-1
  6
ByLayer
 10
38.4284335087343933
 20
281.8299272349072453
 30
0.0
 11
37.8974315831465134
 21
280.546937124197882
 31
0.0
  0
LINE
  5
EE
100
AcDbEntity
100
AcDbLine
  8
ring
 62
7
420
0
370
-1
  6
ByLayer
 10
37.8974315831465134
 20
280.546937124197882
 30
0.0
 11
39.2998966549402979
 21
279.1909778387141046
 31
0.0
  0
LINE
  5
EF
100
AcDbEntity
100
AcDbLine
  8
ring
 62
7
420
0
370
-1
  6
ByLayer
 10
39.2998966549402979
 20
279.1909778387141046
 30
0.0
 11
40.8058278360007591
 21
278.0820578458847194
 31
0.0
  0
LINE
  5
F0
100
AcDbEntity
100
AcDbLine
  8
ring
 62
7
420
0
370
-1
  6
ByLayer
 10
43.8859864885607251
 20
287.1619043656577901
 30
0.0
 11
42.0161623787890264
 21
287.1978219254522173
 31
0.0
  0
LINE
  5
F1
100
AcDbEntity
100
AcDbLine
  8
ring
 62
7
420
0
370
-1
  6
ByLayer
 10
42.0161623787890264
 20
287.1978219254522173
 30
0.0
 11
40.0781836524809236
 21
286.9747248213244006
 31
0.0
  0
LINE
  5
F2
100
AcDbEntity
100
AcDbLine
  8
ring
 62
7
420
0
370
-1
  6
ByLayer
 10
40.0781836524809236
 20
286.9747248213244006
 30
0.0
 11
39.7191883357840823
 21
285.6334012094596346
 31
0.0
  0
LINE
  5
F3
100
AcDbEntity
100
AcDbLine
  8
ring
 62
7
420
0
370
-1
  6
ByLayer
 10
39.7191883357840823
 20
285.6334012094596346
 30
0.0
 11
41.2866433268099158
 21
284.4721007691775299
 31
0.0
  0
LINE
  5
F4
100
AcDbEntity
100
AcDbLine
  8
ring
 62
7
420
0
370
-1
  6
ByLayer
 10
41.2866433268099158
 20
284.4721007691775299
 30
0.0
 11
42.9244341619956273
 21
283.5692312034215092
 31
0.0
  0
LINE
  5
F5
100
AcDbEntity
100
AcDbLine
  8
ring
 62
7
420
0
370
-1
  6
ByLayer
 10
44.793083838123799
 20
292.9734397578656626
 30
0.0
 11
42.934568150503992
 21
292.7649890167871831
 31
0.0
  0
LINE
  5
F6
100
AcDbEntity
100
AcDbLine
  8
ring
 62
7
420
0
370
-1
  6
ByLayer
 10
42.934568150503992
 20
292.7649890167871831
 30
0.0
 11
41.042289116351192
 21
292.2908435555637539
 31
0.0
  0
LINE
  5
F7
100
AcDbEntity
100
AcDbLine
  8
ring
 62
7
420
0
370
-1
  6
ByLayer
 10
41.042289116351192
 20
292.2908435555637539
 30
0.0
 11
40.8614429179463983
 21
290.9141368614278917
 31
0.0
  0
LINE
  5
F8
100
AcDbEntity
100
AcDbLine
  8
ring
 62
7
420
0
370
-1
  6
ByLayer
 10
40.8614429179463983
 20
290.9141368614278917
 30
0.0
 11
42.567068238727181
 21
289.9673654388539035
 31
0.0
  0
LINE
  5
F9
100
AcDbEntity
100
AcDbLine
  8
ring
 62
7
420
0
370
-1
  6
ByLayer
 10
42.567068238727181
 20
289.9673654388539035
 30
0.0
 11
44.3086956727666745
 21
289.2859946487639604
 31
0.0
  0
LINE
  5
FA
100
AcDbEntity
100
AcDbLine
  8
ring
 62
7
420
0
370
-1
  6
ByLayer
 10
44.933863258416963
 20
298.8536566221735598
 30
0.0
 11
43.1184557116421132
 21
298.404404230195496
 31
0.0
  0
LINE
  5
FB
100
AcDbEntity
100
AcDbLine
  8
ring
 62
7
420
0
370
-1
  6
ByLayer
 10
43.1184557116421132
 20
298.404404230195496
 30
0.0
 11
41.3042537885578298
 21
297.6873231721760362
 31
0.0
  0
LINE
  5
FC
100
AcDbEntity
100
AcDbLine
  8
ring
 62
7
420
0
370
-1
  6
ByLayer
 10
41.3042537885578298
 20
297.6873231721760362
 30
0.0
 11
41.3046510370398181
 21
296.2987892290008176
 31
0.0
  0
LINE
  5
FD
100
AcDbEntity
100
AcDbLine
  8
ring
 62
7
420
0
370
-1
  6
ByLayer
 10
41.3046510370398181
 20
296.2987892290008176
 30
0.0
 11
43.1192629654483284
 21
295.582746345669932
 31
0.0
  0
LINE
  5
FE
100
AcDbEntity
100
AcDbLine
  8
ring
 62
7
420
0
370
-1
  6
ByLayer
 10
43.1192629654483284
 20
295.582746345669932
 30
0.0
 11
44.9349272700748514
 21
295.1345327743761686
 31
0.0
  0
LINE
  5
FF
100
AcDbEntity
100
AcDbLine
  8
ring
 62
7
420
0
370
-1
  6
ByLayer
 10
44.305915974527565
 20
304.701942817728991
 30
0.0
 11
42.5646786950490466
 21
304.0195756078343834
 31
0.0
  0
LINE
  5
100
100
AcDbEntity
100
AcDbLine
  8
ring
 62
7
420
0
370
-1
  6
ByLayer
 10
42.5646786950490466
 20
304.0195756078343834
 30
0.0
 11
40.8595953809290577
 21
303.0718284087340066
 31
0.0
  0
LINE
  5
101
100
AcDbEntity
100
AcDbLine
  8
ring
 62
7
420
0
370
-1
  6
ByLayer
 10
40.8595953809290577
 20
303.0718284087340066
 30
0.0
 11
41.0412292792661688
 21
301.695225417261554
 31
0.0
  0
LINE
  5
102
100
AcDbEntity
100
AcDbLine
  8
ring
 62
7
420
0
370
-1
  6
ByLayer
 10
41.0412292792661688
 20
301.695225417261554
 30
0.0
 11
42.9337793021018541
 21
301.222162765432131
 31
0.0
  0
LINE
  5
103
100
AcDbEntity
100
AcDbLine
  8
ring
 62
7
420
0
370
-1
  6
ByLayer
 10
42.9337793021018541
 20
301.222162765432131
 30
0.0
 11
44.7924139576659925
 21
301.0147754714076882
 31
0.0
  0
LINE
  5
104
100
AcDbEntity
100
AcDbLine
  8
ring
 62
7
420
0
370
-1
  6
ByLayer
 10
42.9199863385828309
 20
310.4182325462748508
 30
0.0
 11
41.2827123790147041
 21
309.5144260106129082
 31
0.0
  0
LINE
  5
105
100
AcDbEntity
100
AcDbLine
  8
ring
 62
7
420
0
370
-1
  6
ByLayer
 10
41.2827123790147041
 20
309.5144260106129082
 30
0.0
 11
39.7159221221020005
 21
308.3522288877734354
 31
0.0
  0
LINE
  5
106
100
AcDbEntity
100
AcDbLine
  8
ring
 62
7
420
0
370
-1
  6
ByLayer
 10
39.7159221221020005
 20
308.3522288877734354
 30
0.0
 11
40.0756848639352512
 21
307.0111109068542987
 31
0.0
  0
LINE
  5
107
100
AcDbEntity
100
AcDbLine
  8
ring
 62
7
420
0
370
-1
  6
ByLayer
 10
40.0756848639352512
 20
307.0111109068542987
 30
0.0
 11
42.0137909255934048
 21
306.7891227196568025
 31
0.0
  0
LINE
  5
108
100
AcDbEntity
100
AcDbLine
  8
ring
 62
7
420
0
370
-1
  6
ByLayer
 10
42.0137909255934048
 20
306.7891227196568025
 30
0.0
 11
43.8835941778275895
 21
306.8261101570010396
 31
0.0
  0
LINE
  5
109
100
AcDbEntity
100
AcDbLine
  8
ring
 62
7
420
0
370
-1
  6
ByLayer
 10
40.7997879909060686
 20
315.9047185057007709
 30
0.0
 11
39.2944915626346472
 21
314.7949370246792
 31
0.0
  0
LINE
  5
10A
100
AcDbEntity
100
AcDbLine
  8
ring
 62
7
420
0
370
-1
  6
ByLayer
 10
39.2944915626346472
 20
314.7949370246792
 30
0.0
 11
37.8928025786213354
 21
313.4381754930942634
 31
0.0
  0
LINE
  5
10B
100
AcDbEntity
100
AcDbLine
  8
ring
 62
7
420
0
370
-1
  6
ByLayer
 10
37.8928025786213354
 20
313.4381754930942634
 30
0.0
 11
38.4245385236928954
 21
312.1554894232100423
 31
0.0
  0
LINE
  5
10C
100
AcDbEntity
100
AcDbLine
  8
ring
 62
7
420
0
370
-1
  6
ByLayer
 10
38.4245385236928954
 20
312.1554894232100423
 30
0.0
 11
40.3750390921140081
 21
312.1883739800742887
 31
0.0
  0
LINE
  5
10D
100
AcDbEntity
100
AcDbLine
  8
ring
 62
7
420
0
370
-1
  6
ByLayer
 10
40.3750390921140081
 20
312.1883739800742887
 30
0.0
 11
42.2240180889650958
 21
312.4691032834794555
 31
0.0
  0
LINE
  5
10E
100
AcDbEntity
100
AcDbLine
  8
ring
 62
7
420
0
370
-1
  6
ByLayer
 10
37.9815981130560587
 20
321.0675254000996119
 30
0.0
 11
36.6340352553160784
 21
319.770757642548233
 31
0.0
  0
LINE
  5
10F
100
AcDbEntity
100
AcDbLine
  8
ring
 62
7
420
0
370
-1
  6
ByLayer
 10
36.6340352553160784
 20
319.770757642548233
 30
0.0
 11
35.4214308313402384
 21
318.2426462681886505
 31
0.0
  0
LINE
  5
110
100
AcDbEntity
100
AcDbLine
  8
ring
 62
7
420
0
370
-1
  6
ByLayer
 10
35.4214308313402384
 20
318.2426462681886505
 30
0.0
 11
36.1160418302048498
 21
317.0403392236229365
 31
0.0
  0
LINE
  5
111
100
AcDbEntity
100
AcDbLine
  8
ring
 62
7
420
0
370
-1
  6
ByLayer
 10
36.1160418302048498
 20
317.0403392236229365
 30
0.0
 11
38.0455632998823461
 21
317.3275338606635501
 31
0.0
  0
LINE
  5
112
100
AcDbEntity
100
AcDbLine
  8
ring
 62
7
420
0
370
-1
  6
ByLayer
 10
38.0455632998823461
 20
317.3275338606635501
 30
0.0
 11
39.842081498080411
 21
317.8472016739154924
 31
0.0
  0
LINE
  5
113
100
AcDbEntity
100
AcDbLine
  8
ring
 62
7
420
0
370
-1
  6
ByLayer
 10
34.5136367151926748
 20
325.8183161721078136
 30
0.0
 11
33.3468646020950743
 21
324.3567501938903206
 31
0.0
  0
LINE
  5
114
100
AcDbEntity
100
AcDbLine
  8
ring
 62
7
420
0
370
-1
  6
ByLayer
 10
33.3468646020950743
 20
324.3567501938903206
 30
0.0
 11
32.3440927360483883
 21
322.6834353860438114
 31
0.0
  0
LINE
  5
115
100
AcDbEntity
100
AcDbLine
  8
ring
 62
7
420
0
370
-1
  6
ByLayer
 10
32.3440927360483883
 20
322.6834353860438114
 30
0.0
 11
33.1896938019329539
 21
321.5820791736715591
 31
0.0
  0
LINE
  5
116
100
AcDbEntity
100
AcDbLine
  8
ring
 62
7
420
0
370
-1
  6
ByLayer
 10
33.1896938019329539
 20
321.5820791736715591
 30
0.0
 11
35.0652215255562041
 21
322.1186699110234599
 31
0.0
  0
LINE
  5
117
100
AcDbEntity
100
AcDbLine
  8
ring
 62
7
420
0
370
-1
  6
ByLayer
 10
35.0652215255562041
 20
322.1186699110234599
 30
0.0
 11
36.7785400006410939
 21
322.8683845737583056
 31
0.0
  0
LINE
  5
118
100
AcDbEntity
100
AcDbLine
  8
ring
 62
7
420
0
370
-1
  6
ByLayer
 10
30.4552415783338617
 20
330.0758034744482075
 30
0.0
 11
29.4892240042240914
 21
328.4744470746745151
 31
0.0
  0
LINE
  5
119
100
AcDbEntity
100
AcDbLine
  8
ring
 62
7
420
0
370
-1
  6
ByLayer
 10
29.4892240042240914
 20
328.4744470746745151
 30
0.0
 11
28.713442400755504
 21
326.6845597136339734
 31
0.0
  0
LINE
  5
11A
100
AcDbEntity
100
AcDbLine
  8
ring
 62
7
420
0
370
-1
  6
ByLayer
 10
28.713442400755504
 20
326.6845597136339734
 30
0.0
 11
29.6955650649778278
 21
325.7029988436024723
 31
0.0
  0
LINE
  5
11B
100
AcDbEntity
100
AcDbLine
  8
ring
 62
7
420
0
370
-1
  6
ByLayer
 10
29.6955650649778278
 20
325.7029988436024723
 30
0.0
 11
31.4850082432011256
 21
326.4798044649785425
 31
0.0
  0
LINE
  5
11C
100
AcDbEntity
100
AcDbLine
  8
ring
 62
7
420
0
370
-1
  6
ByLayer
 10
31.4850082432011256
 20
326.4798044649785425
 30
0.0
 11
33.0858116410425325
 21
327.4467381514566569
 31
0.0
  0
LINE
  5
11D
100
AcDbEntity
100
AcDbLine
  8
ring
 62
7
420
0
370
-1
  6
ByLayer
 10
25.875852968471051
 20
333.7671405189792608
 30
0.0
 11
25.1271187618727971
 21
332.0533933496294026
 31
0.0
  0
LINE
  5
11E
100
AcDbEntity
100
AcDbLine
  8
ring
 62
7
420
0
370
-1
  6
ByLayer
 10
25.1271187618727971
 20
332.0533933496294026
 30
0.0
 11
24.591601259304948
 21
330.1775589043926971
 31
0.0
  0
LINE
  5
11F
100
AcDbEntity
100
AcDbLine
  8
ring
 62
7
420
0
370
-1
  6
ByLayer
 10
24.591601259304948
 20
330.1775589043926971
 30
0.0
 11
25.6934411307843078
 21
329.3325881553283807
 31
0.0
  0
LINE
  5
120
100
AcDbEntity
100
AcDbLine
  8
ring
 62
7
420
0
370
-1
  6
ByLayer
 10
25.6934411307843078
 20
329.3325881553283807
 30
0.0
 11
27.3661818947008975
 21
330.3363173011755407
 31
0.0
  0
LINE
  5
121
100
AcDbEntity
100
AcDbLine
  8
ring
 62
7
420
0
370
-1
  6
ByLayer
 10
27.3661818947008975
 20
330.3363173011755407
 30
0.0
 11
28.8270800253352455
 21
331.5039255079366285
 31
0.0
  0
LINE
  5
122
100
AcDbEntity
100
AcDbLine
  8
ring
 62
7
420
0
370
-1
  6
ByLayer
 10
20.8538254943653456
 20
336.8291675054371126
 30
0.0
 11
20.3351857051418463
 21
335.0323522557191041
 31
0.0
  0
LINE
  5
123
100
AcDbEntity
100
AcDbLine
  8
ring
 62
7
420
0
370
-1
  6
ByLayer
 10
20.3351857051418463
 20
335.0323522557191041
 30
0.0
 11
20.0490951564171738
 21
333.1026667737237972
 31
0.0
  0
LINE
  5
124
100
AcDbEntity
100
AcDbLine
  8
ring
 62
7
420
0
370
-1
  6
ByLayer
 10
20.0490951564171738
 20
333.1026667737237972
 30
0.0
 11
21.2517994494648903
 21
332.4087438294131971
 31
0.0
  0
LINE
  5
125
100
AcDbEntity
100
AcDbLine
  8
ring
 62
7
420
0
370
-1
  6
ByLayer
 10
21.2517994494648903
 20
332.4087438294131971
 30
0.0
 11
22.7792167408327515
 21
333.6222224157597793
 31
0.0
  0
LINE
  5
126
100
AcDbEntity
100
AcDbLine
  8
ring
 62
7
420
0
370
-1
  6
ByLayer
 10
22.7792167408327515
 20
333.6222224157597793
 30
0.0
 11
24.0752132322073358
 21
334.9705270426641164
 31
0.0
  0
LINE
  5
127
100
AcDbEntity
100
AcDbLine
  8
ring
 62
7
420
0
370
-1
  6
ByLayer
 10
15.475087438467769
 20
339.2094923031291955
 30
0.0
 11
15.1954161372067471
 21
337.3603529801370087
 31
0.0
  0
LINE
  5
128
100
AcDbEntity
100
AcDbLine
  8
ring
 62
7
420
0
370
-1
  6
ByLayer
 10
15.1954161372067471
 20
337.3603529801370087
 30
0.0
 11
15.1636476309332213
 21
335.4098339149899743
 31
0.0
  0
LINE
  5
129
100
AcDbEntity
100
AcDbLine
  8
ring
 62
7
420
0
370
-1
  6
ByLayer
 10
15.1636476309332213
 20
335.4098339149899743
 30
0.0
 11
16.4466377416425544
 21
334.8788319894021015
 31
0.0
  0
LINE
  5
12A
100
AcDbEntity
100
AcDbLine
  8
ring
 62
7
420
0
370
-1
  6
ByLayer
 10
16.4466377416425544
 20
334.8788319894021015
 30
0.0
 11
17.8025970271263638
 21
336.2812970611958576
 31
0.0
  0
LINE
  5
12B
100
AcDbEntity
100
AcDbLine
  8
ring
 62
7
420
0
370
-1
  6
ByLayer
 10
17.8025970271263638
 20
336.2812970611958576
 30
0.0
 11
18.9115170199557241
 21
337.787228242256333
 31
0.0
  0
LINE
  5
12C
100
AcDbEntity
100
AcDbLine
  8
ring
 62
7
420
0
370
-1
  6
ByLayer
 10
9.8316705001826445
 20
340.8673868948162635
 30
0.0
 11
9.7957529403882138
 21
338.997562785044579
 31
0.0
  0
LINE
  5
12D
100
AcDbEntity
100
AcDbLine
  8
ring
 62
7
420
0
370
-1
  6
ByLayer
 10
9.7957529403882138
 20
338.997562785044579
 30
0.0
 11
10.0188500445160642
 21
337.0595840587365046
 31
0.0
  0
LINE
  5
12E
100
AcDbEntity
100
AcDbLine
  8
ring
 62
7
420
0
370
-1
  6
ByLayer
 10
10.0188500445160642
 20
337.0595840587365046
 30
0.0
 11
11.3601736563807858
 21
336.7005887420396562
 31
0.0
  0
LINE
  5
12F
100
AcDbEntity
100
AcDbLine
  8
ring
 62
7
420
0
370
-1
  6
ByLayer
 10
11.3601736563807858
 20
336.7005887420396562
 30
0.0
 11
12.5214740966629154
 21
338.2680437330654968
 31
0.0
  0
LINE
  5
130
100
AcDbEntity
100
AcDbLine
  8
ring
 62
7
420
0
370
-1
  6
ByLayer
 10
12.5214740966629154
 20
338.2680437330654968
 30
0.0
 11
13.4243436624189592
 21
339.9058345682511799
 31
0.0
  0
LINE
  5
131
100
AcDbEntity
100
AcDbLine
  8
ring
 62
7
420
0
370
-1
  6
ByLayer
 10
4.0201351079748058
 20
341.77448424437938
 30
0.0
 11
4.2285858490532782
 21
339.9159685567595375
 31
0.0
  0
LINE
  5
132
100
AcDbEntity
100
AcDbLine
  8
ring
 62
7
420
0
370
-1
  6
ByLayer
 10
4.2285858490532782
 20
339.9159685567595375
 30
0.0
 11
4.7027313102766755
 21
338.0236895226067304
 31
0.0
  0
LINE
  5
133
100
AcDbEntity
100
AcDbLine
  8
ring
 62
7
420
0
370
-1
  6
ByLayer
 10
4.7027313102766755
 20
338.0236895226067304
 30
0.0
 11
6.0794380044125456
 21
337.8428433242019651
 31
0.0
  0
LINE
  5
134
100
AcDbEntity
100
AcDbLine
  8
ring
 62
7
420
0
370
-1
  6
ByLayer
 10
6.0794380044125456
 20
337.8428433242019651
 30
0.0
 11
7.0262094269865258
 21
339.5484686449827336
 31
0.0
  0
LINE
  5
135
100
AcDbEntity
100
AcDbLine
  8
ring
 62
7
420
0
370
-1
  6
ByLayer
 10
7.0262094269865258
 20
339.5484686449827336
 30
0.0
 11
7.7075802170765124
 21
341.2900960790222484
 31
0.0
  0
LINE
  5
136
100
AcDbEntity
100
AcDbLine
  8
sun
 62
7
420
0
370
-1
  6
ByLayer
 10
19.6996760000000002
 20
298.5863709999999855
 30
0.0
 11
20.1946930000000009
 21
298.626164000000017
 31
0.0
  0
LINE
  5
137
100
AcDbEntity
100
AcDbLine
  8
sun
 62
7
420
0
370
-1
  6
ByLayer
 10
20.1946930000000009
 20
298.626164000000017
 30
0.0
 11
21.5140819999999984
 21
298.4099820000000136
 31
0.0
  0
LINE
  5
138
100
AcDbEntity
100
AcDbLine
  8
sun
 62
7
420
0
370
-1
  6
ByLayer
 10
21.5140819999999984
 20
298.4099820000000136
 30
0.0
 11
23.347961999999999
 21
297.6426200000000222
 31
0.0
  0
LINE
  5
139
100
AcDbEntity
100
AcDbLine
  8
sun
 62
7
420
0
370
-1
  6
ByLayer
 10
23.347961999999999
 20
297.6426200000000222
 30
0.0
 11
23.347961999999999
 21
296.3573799999999778
 31
0.0
  0
LINE
  5
13A
100
AcDbEntity
100
AcDbLine
  8
sun
 62
7
420
0
370
-1
  6
ByLayer
 10
23.347961999999999
 20
296.3573799999999778
 30
0.0
 11
21.5140819999999984
 21
295.5900179999999864
 31
0.0
  0
LINE
  5
13B
100
AcDbEntity
100
AcDbLine
  8
sun
 62
7
420
0
370
-1
  6
ByLayer
 10
21.5140819999999984
 20
295.5900179999999864
 30
0.0
 11
20.1946930000000009
 21
295.373835999999983
 31
0.0
  0
LINE
  5
13C
100
AcDbEntity
100
AcDbLine
  8
sun
 62
7
420
0
370
-1
  6
ByLayer
 10
20.1946930000000009
 20
295.373835999999983
 30
0.0
 11
19.6996760000000002
 21
295.4136290000000145
 31
0.0
  0
LINE
  5
13D
100
AcDbEntity
100
AcDbLine
  8
sun
 62
7
420
0
370
-1
  6
ByLayer
 10
19.6996760000000002
 20
295.4136290000000145
 30
0.0
 11
19.4391840000000009
 21
293.433558000000005
 31
0.0
  0
LINE
  5
13E
100
AcDbEntity
100
AcDbLine
  8
sun
 62
7
420
0
370
-1
  6
ByLayer
 10
19.4391840000000009
 20
293.433558000000005
 30
0.0
 11
19.9274290000000001
 21
293.3440929999999867
 31
0.0
  0
LINE
  5
13F
100
AcDbEntity
100
AcDbLine
  8
sun
 62
7
420
0
370
-1
  6
ByLayer
 10
19.9274290000000001
 20
293.3440929999999867
 30
0.0
 11
21.1457820000000005
 21
292.7937600000000202
 31
0.0
  0
LINE
  5
140
100
AcDbEntity
100
AcDbLine
  8
sun
 62
7
420
0
370
-1
  6
ByLayer
 10
21.1457820000000005
 20
292.7937600000000202
 30
0.0
 11
22.7188890000000008
 21
291.5779469999999947
 31
0.0
  0
LINE
  5
141
100
AcDbEntity
100
AcDbLine
  8
sun
 62
7
420
0
370
-1
  6
ByLayer
 10
22.7188890000000008
 20
291.5779469999999947
 30
0.0
 11
22.3861489999999996
 21
290.336168999999984
 31
0.0
  0
LINE
  5
142
100
AcDbEntity
100
AcDbLine
  8
sun
 62
7
420
0
370
-1
  6
ByLayer
 10
22.3861489999999996
 20
290.336168999999984
 30
0.0
 11
20.4159560000000013
 21
290.0697509999999966
 31
0.0
  0
LINE
  5
143
100
AcDbEntity
100
AcDbLine
  8
sun
 62
7
420
0
370
-1
  6
ByLayer
 10
20.4159560000000013
 20
290.0697509999999966
 30
0.0
 11
19.085560000000001
 21
290.2023960000000216
 31
0.0
  0
LINE
  5
144
100
AcDbEntity
100
AcDbLine
  8
sun
 62
7
420
0
370
-1
  6
ByLayer
 10
19.085560000000001
 20
290.2023960000000216
 30
0.0
 11
18.6179179999999995
 21
290.3689069999999788
 31
0.0
  0
LINE
  5
145
100
AcDbEntity
100
AcDbLine
  8
sun
 62
7
420
0
370
-1
  6
ByLayer
 10
18.6179179999999995
 20
290.3689069999999788
 30
0.0
 11
17.8536600000000014
 21
288.5240200000000073
 31
0.0
  0
LINE
  5
146
100
AcDbEntity
100
AcDbLine
  8
sun
 62
7
420
0
370
-1
  6
ByLayer
 10
17.8536600000000014
 20
288.5240200000000073
 30
0.0
 11
18.302111
 21
288.3109420000000114
 31
0.0
  0
LINE
  5
147
100
AcDbEntity
100
AcDbLine
  8
sun
 62
7
420
0
370
-1
  6
ByLayer
 10
18.302111
 20
288.3109420000000114
 30
0.0
 11
19.3367380000000004
 21
287.4642759999999839
 31
0.0
  0
LINE
  5
148
100
AcDbEntity
100
AcDbLine
  8
sun
 62
7
420
0
370
-1
  6
ByLayer
 10
19.3367380000000004
 20
287.4642759999999839
 30
0.0
 11
20.5412619999999997
 21
285.8827019999999948
 31
0.0
  0
LINE
  5
149
100
AcDbEntity
100
AcDbLine
  8
sun
 62
7
420
0
370
-1
  6
ByLayer
 10
20.5412619999999997
 20
285.8827019999999948
 30
0.0
 11
19.8986419999999988
 21
284.7693360000000098
 31
0.0
  0
LINE
  5
14A
100
AcDbEntity
100
AcDbLine
  8
sun
 62
7
420
0
370
-1
  6
ByLayer
 10
19.8986419999999988
 20
284.7693360000000098
 30
0.0
 11
17.926756000000001
 21
285.0219240000000127
 31
0.0
  0
LINE
  5
14B
100
AcDbEntity
100
AcDbLine
  8
sun
 62
7
420
0
370
-1
  6
ByLayer
 10
17.926756000000001
 20
285.0219240000000127
 30
0.0
 11
16.6759470000000007
 21
285.4943640000000187
 31
0.0
  0
LINE
  5
14C
100
AcDbEntity
100
AcDbLine
  8
sun
 62
7
420
0
370
-1
  6
ByLayer
 10
16.6759470000000007
 20
285.4943640000000187
 30
0.0
 11
16.2672890000000017
 21
285.7763039999999819
 31
0.0
  0
LINE
  5
14D
100
AcDbEntity
100
AcDbLine
  8
sun
 62
7
420
0
370
-1
  6
ByLayer
 10
16.2672890000000017
 20
285.7763039999999819
 30
0.0
 11
15.0514759999999992
 21
284.1919090000000097
 31
0.0
  0
LINE
  5
14E
100
AcDbEntity
100
AcDbLine
  8
sun
 62
7
420
0
370
-1
  6
ByLayer
 10
15.0514759999999992
 20
284.1919090000000097
 30
0.0
 11
15.4296530000000001
 21
283.8701760000000149
 31
0.0
  0
LINE
  5
14F
100
AcDbEntity
100
AcDbLine
  8
sun
 62
7
420
0
370
-1
  6
ByLayer
 10
15.4296530000000001
 20
283.8701760000000149
 30
0.0
 11
16.2097160000000002
 21
282.7844670000000065
 31
0.0
  0
LINE
  5
150
100
AcDbEntity
100
AcDbLine
  8
sun
 62
7
420
0
370
-1
  6
ByLayer
 10
16.2097160000000002
 20
282.7844670000000065
 30
0.0
 11
16.9640960000000014
 21
280.9449420000000259
 31
0.0
  0
LINE
  5
151
100
AcDbEntity
100
AcDbLine
  8
sun
 62
7
420
0
370
-1
  6
ByLayer
 10
16.9640960000000014
 20
280.9449420000000259
 30
0.0
 11
16.0550579999999989
 21
280.0359040000000164
 31
0.0
  0
LINE
  5
152
100
AcDbEntity
100
AcDbLine
  8
sun
 62
7
420
0
370
-1
  6
ByLayer
 10
16.0550579999999989
 20
280.0359040000000164
 30
0.0
 11
14.2155330000000006
 21
280.7902839999999856
 31
0.0
  0
LINE
  5
153
100
AcDbEntity
100
AcDbLine
  8
sun
 62
7
420
0
370
-1
  6
ByLayer
 10
14.2155330000000006
 20
280.7902839999999856
 30
0.0
 11
13.1298239999999993
 21
281.5703470000000266
 31
0.0
  0
LINE
  5
154
100
AcDbEntity
100
AcDbLine
  8
sun
 62
7
420
0
370
-1
  6
ByLayer
 10
13.1298239999999993
 20
281.5703470000000266
 30
0.0
 11
12.8080909999999992
 21
281.9485240000000204
 31
0.0
  0
LINE
  5
155
100
AcDbEntity
100
AcDbLine
  8
sun
 62
7
420
0
370
-1
  6
ByLayer
 10
12.8080909999999992
 20
281.9485240000000204
 30
0.0
 11
11.2236960000000003
 21
280.7327109999999948
 31
0.0
  0
LINE
  5
156
100
AcDbEntity
100
AcDbLine
  8
sun
 62
7
420
0
370
-1
  6
ByLayer
 10
11.2236960000000003
 20
280.7327109999999948
 30
0.0
 11
11.5056360000000009
 21
280.3240529999999922
 31
0.0
  0
LINE
  5
157
100
AcDbEntity
100
AcDbLine
  8
sun
 62
7
420
0
370
-1
  6
ByLayer
 10
11.5056360000000009
 20
280.3240529999999922
 30
0.0
 11
11.9780759999999997
 21
279.0732439999999883
 31
0.0
  0
LINE
  5
158
100
AcDbEntity
100
AcDbLine
  8
sun
 62
7
420
0
370
-1
  6
ByLayer
 10
11.9780759999999997
 20
279.0732439999999883
 30
0.0
 11
12.2306640000000009
 21
277.1013580000000047
 31
0.0
  0
LINE
  5
159
100
AcDbEntity
100
AcDbLine
  8
sun
 62
7
420
0
370
-1
  6
ByLayer
 10
12.2306640000000009
 20
277.1013580000000047
 30
0.0
 11
11.1172979999999999
 21
276.4587379999999825
 31
0.0
  0
LINE
  5
15A
100
AcDbEntity
100
AcDbLine
  8
sun
 62
7
420
0
370
-1
  6
ByLayer
 10
11.1172979999999999
 20
276.4587379999999825
 30
0.0
 11
9.5357240000000001
 21
277.6632619999999747
 31
0.0
  0
LINE
  5
15B
100
AcDbEntity
100
AcDbLine
  8
sun
 62
7
420
0
370
-1
  6
ByLayer
 10
9.5357240000000001
 20
277.6632619999999747
 30
0.0
 11
8.6890579999999993
 21
278.6978889999999751
 31
0.0
  0
LINE
  5
15C
100
AcDbEntity
100
AcDbLine
  8
sun
 62
7
420
0
370
-1
  6
ByLayer
 10
8.6890579999999993
 20
278.6978889999999751
 30
0.0
 11
8.4759799999999998
 21
279.1463400000000092
 31
0.0
  0
LINE
  5
15D
100
AcDbEntity
100
AcDbLine
  8
sun
 62
7
420
0
370
-1
  6
ByLayer
 10
8.4759799999999998
 20
279.1463400000000092
 30
0.0
 11
6.6310929999999999
 21
278.3820820000000253
 31
0.0
  0
LINE
  5
15E
100
AcDbEntity
100
AcDbLine
  8
sun
 62
7
420
0
370
-1
  6
ByLayer
 10
6.6310929999999999
 20
278.3820820000000253
 30
0.0
 11
6.7976039999999998
 21
277.9144400000000132
 31
0.0
  0
LINE
  5
15F
100
AcDbEntity
100
AcDbLine
  8
sun
 62
7
420
0
370
-1
  6
ByLayer
 10
6.7976039999999998
 20
277.9144400000000132
 30
0.0
 11
6.9302489999999999
 21
276.5840440000000058
 31
0.0
  0
LINE
  5
160
100
AcDbEntity
100
AcDbLine
  8
sun
 62
7
420
0
370
-1
  6
ByLayer
 10
6.9302489999999999
 20
276.5840440000000058
 30
0.0
 11
6.6638310000000001
 21
274.613851000000011
 31
0.0
  0
LINE
  5
161
100
AcDbEntity
100
AcDbLine
  8
sun
 62
7
420
0
370
-1
  6
ByLayer
 10
6.6638310000000001
 20
274.613851000000011
 30
0.0
 11
5.422053
 21
274.2811110000000099
 31
0.0
  0
LINE
  5
162
100
AcDbEntity
100
AcDbLine
  8
sun
 62
7
420
0
370
-1
  6
ByLayer
 10
5.422053
 20
274.2811110000000099
 30
0.0
 11
4.2062400000000002
 21
275.854218000000003
 31
0.0
  0
LINE
  5
163
100
AcDbEntity
100
AcDbLine
  8
sun
 62
7
420
0
370
-1
  6
ByLayer
 10
4.2062400000000002
 20
275.854218000000003
 30
0.0
 11
3.655907
 21
277.0725709999999822
 31
0.0
  0
LINE
  5
164
100
AcDbEntity
100
AcDbLine
  8
sun
 62
7
420
0
370
-1
  6
ByLayer
 10
3.655907
 20
277.0725709999999822
 30
0.0
 11
3.5664419999999999
 21
277.5608159999999884
 31
0.0
  0
LINE
  5
165
100
AcDbEntity
100
AcDbLine
  8
sun
 62
7
420
0
370
-1
  6
ByLayer
 10
3.5664419999999999
 20
277.5608159999999884
 30
0.0
 11
1.586371
 21
277.3003239999999892
 31
0.0
  0
LINE
  5
166
100
AcDbEntity
100
AcDbLine
  8
sun
 62
7
420
0
370
-1
  6
ByLayer
 10
1.586371
 20
277.3003239999999892
 30
0.0
 11
1.6261639999999999
 21
276.8053070000000275
 31
0.0
  0
LINE
  5
167
100
AcDbEntity
100
AcDbLine
  8
sun
 62
7
420
0
370
-1
  6
ByLayer
 10
1.6261639999999999
 20
276.8053070000000275
 30
0.0
 11
1.4099820000000001
 21
275.4859180000000265
 31
0.0
  0
LINE
  5
168
100
AcDbEntity
100
AcDbLine
  8
sun
 62
7
420
0
370
-1
  6
ByLayer
 10
1.4099820000000001
 20
275.4859180000000265
 30
0.0
 11
0.64262
 21
273.6520380000000046
 31
0.0
  0
LINE
  5
169
100
AcDbEntity
100
AcDbLine
  8
sun
 62
7
420
0
370
-1
  6
ByLayer
 10
0.64262
 20
273.6520380000000046
 30
0.0
 11
-0.64262
 21
273.6520380000000046
 31
0.0
  0
LINE
  5
16A
100
AcDbEntity
100
AcDbLine
  8
sun
 62
7
420
0
370
-1
  6
ByLayer
 10
-0.64262
 20
273.6520380000000046
 30
0.0
 11
-1.4099820000000001
 21
275.4859180000000265
 31
0.0
  0
LINE
  5
16B
100
AcDbEntity
100
AcDbLine
  8
sun
 62
7
420
0
370
-1
  6
ByLayer
 10
-1.4099820000000001
 20
275.4859180000000265
 30
0.0
 11
-1.6261639999999999
 21
276.8053070000000275
 31
0.0
  0
LINE
  5
16C
100
AcDbEntity
100
AcDbLine
  8
sun
 62
7
420
0
370
-1
  6
ByLayer
 10
-1.6261639999999999
 20
276.8053070000000275
 30
0.0
 11
-1.586371
 21
277.3003239999999892
 31
0.0
  0
LINE
  5
16D
100
AcDbEntity
100
AcDbLine
  8
sun
 62
7
420
0
370
-1
  6
ByLayer
 10
-1.586371
 20
277.3003239999999892
 30
0.0
 11
-3.5664419999999999
 21
277.5608159999999884
 31
0.0
  0
LINE
  5
16E
100
AcDbEntity
100
AcDbLine
  8
sun
 62
7
420
0
370
-1
  6
ByLayer
 10
-3.5664419999999999
 20
277.5608159999999884
 30
0.0
 11
-3.655907
 21
277.0725709999999822
 31
0.0
  0
LINE
  5
16F
100
AcDbEntity
100
AcDbLine
  8
sun
 62
7
420
0
370
-1
  6
ByLayer
 10
-3.655907
 20
277.0725709999999822
 30
0.0
 11
-4.2062400000000002
 21
275.854218000000003
 31
0.0
  0
LINE
  5
170
100
AcDbEntity
100
AcDbLine
  8
sun
 62
7
420
0
370
-1
  6
ByLayer
 10
-4.2062400000000002
 20
275.854218000000003
 30
0.0
 11
-5.422053
 21
274.2811110000000099
 31
0.0
  0
LINE
  5
171
100
AcDbEntity
100
AcDbLine
  8
sun
 62
7
420
0
370
-1
  6
ByLayer
 10
-5.422053
 20
274.2811110000000099
 30
0.0
 11
-6.6638310000000001
 21
274.613851000000011
 31
0.0
  0
LINE
  5
172
100
AcDbEntity
100
AcDbLine
  8
sun
 62
7
420
0
370
-1
  6
ByLayer
 10
-6.6638310000000001
 20
274.613851000000011
 30
0.0
 11
-6.9302489999999999
 21
276.5840440000000058
 31
0.0
  0
LINE
  5
173
100
AcDbEntity
100
AcDbLine
  8
sun
 62
7
420
0
370
-1
  6
ByLayer
 10
-6.9302489999999999
 20
276.5840440000000058
 30
0.0
 11
-6.7976039999999998
 21
277.9144400000000132
 31
0.0
  0
LINE
  5
174
100
AcDbEntity
100
AcDbLine
  8
sun
 62
7
420
0
370
-1
  6
ByLayer
 10
-6.7976039999999998
 20
277.9144400000000132
 30
0.0
 11
-6.6310929999999999
 21
278.3820820000000253
 31
0.0
  0
LINE
  5
175
100
AcDbEntity
100
AcDbLine
  8
sun
 62
7
420
0
370
-1
  6
ByLayer
 10
-6.6310929999999999
 20
278.3820820000000253
 30
0.0
 11
-8.4759799999999998
 21
279.1463400000000092
 31
0.0
  0
LINE
  5
176
100
AcDbEntity
100
AcDbLine
  8
sun
 62
7
420
0
370
-1
  6
ByLayer
 10
-8.4759799999999998
 20
279.1463400000000092
 30
0.0
 11
-8.6890579999999993
 21
278.6978889999999751
 31
0.0
  0
LINE
  5
177
100
AcDbEntity
100
AcDbLine
  8
sun
 62
7
420
0
370
-1
  6
ByLayer
 10
-8.6890579999999993
 20
278.6978889999999751
 30
0.0
 11
-9.5357240000000001
 21
277.6632619999999747
 31
0.0
  0
LINE
  5
178
100
AcDbEntity
100
AcDbLine
  8
sun
 62
7
420
0
370
-1
  6
ByLayer
 10
-9.5357240000000001
 20
277.6632619999999747
 30
0.0
 11
-11.1172979999999999
 21
276.4587379999999825
 31
0.0
  0
LINE
  5
179
100
AcDbEntity
100
AcDbLine
  8
sun
 62
7
420
0
370
-1
  6
ByLayer
 10
-11.1172979999999999
 20
276.4587379999999825
 30
0.0
 11
-12.2306640000000009
 21
277.1013580000000047
 31
0.0
  0
LINE
  5
17A
100
AcDbEntity
100
AcDbLine
  8
sun
 62
7
420
0
370
-1
  6
ByLayer
 10
-12.2306640000000009
 20
277.1013580000000047
 30
0.0
 11
-11.9780759999999997
 21
279.0732439999999883
 31
0.0
  0
LINE
  5
17B
100
AcDbEntity
100
AcDbLine
  8
sun
 62
7
420
0
370
-1
  6
ByLayer
 10
-11.9780759999999997
 20
279.0732439999999883
 30
0.0
 11
-11.5056360000000009
 21
280.3240529999999922
 31
0.0
  0
LINE
  5
17C
100
AcDbEntity
100
AcDbLine
  8
sun
 62
7
420
0
370
-1
  6
ByLayer
 10
-11.5056360000000009
 20
280.3240529999999922
 30
0.0
 11
-11.2236960000000003
 21
280.7327109999999948
 31
0.0
  0
LINE
  5
17D
100
AcDbEntity
100
AcDbLine
  8
sun
 62
7
420
0
370
-1
  6
ByLayer
 10
-11.2236960000000003
 20
280.7327109999999948
 30
0.0
 11
-12.8080909999999992
 21
281.9485240000000204
 31
0.0
  0
LINE
  5
17E
100
AcDbEntity
100
AcDbLine
  8
sun
 62
7
420
0
370
-1
  6
ByLayer
 10
-12.8080909999999992
 20
281.9485240000000204
 30
0.0
 11
-13.1298239999999993
 21
281.5703470000000266
 31
0.0
  0
LINE
  5
17F
100
AcDbEntity
100
AcDbLine
  8
sun
 62
7
420
0
370
-1
  6
ByLayer
 10
-13.1298239999999993
 20
281.5703470000000266
 30
0.0
 11
-14.2155330000000006
 21
280.7902839999999856
 31
0.0
  0
LINE
  5
180
100
AcDbEntity
100
AcDbLine
  8
sun
 62
7
420
0
370
-1
  6
ByLayer
 10
-14.2155330000000006
 20
280.7902839999999856
 30
0.0
 11
-16.0550579999999989
 21
280.0359040000000164
 31
0.0
  0
LINE
  5
181
100
AcDbEntity
100
AcDbLine
  8
sun
 62
7
420
0
370
-1
  6
ByLayer
 10
-16.0550579999999989
 20
280.0359040000000164
 30
0.0
 11
-16.9640960000000014
 21
280.9449420000000259
 31
0.0
  0
LINE
  5
182
100
AcDbEntity
100
AcDbLine
  8
sun
 62
7
420
0
370
-1
  6
ByLayer
 10
-16.9640960000000014
 20
280.9449420000000259
 30
0.0
 11
-16.2097160000000002
 21
282.7844670000000065
 31
0.0
  0
LINE
  5
183
100
AcDbEntity
100
AcDbLine
  8
sun
 62
7
420
0
370
-1
  6
ByLayer
 10
-16.2097160000000002
 20
282.7844670000000065
 30
0.0
 11
-15.4296530000000001
 21
283.8701760000000149
 31
0.0
  0
LINE
  5
184
100
AcDbEntity
100
AcDbLine
  8
sun
 62
7
420
0
370
-1
  6
ByLayer
 10
-15.4296530000000001
 20
283.8701760000000149
 30
0.0
 11
-15.0514759999999992
 21
284.1919090000000097
 31
0.0
  0
LINE
  5
185
100
AcDbEntity
100
AcDbLine
  8
sun
 62
7
420
0
370
-1
  6
ByLayer
 10
-15.0514759999999992
 20
284.1919090000000097
 30
0.0
 11
-16.2672890000000017
 21
285.7763039999999819
 31
0.0
  0
LINE
  5
186
100
AcDbEntity
100
AcDbLine
  8
sun
 62
7
420
0
370
-1
  6
ByLayer
 10
-16.2672890000000017
 20
285.7763039999999819
 30
0.0
 11
-16.6759470000000007
 21
285.4943640000000187
 31
0.0
  0
LINE
  5
187
100
AcDbEntity
100
AcDbLine
  8
sun
 62
7
420
0
370
-1
  6
ByLayer
 10
-16.6759470000000007
 20
285.4943640000000187
 30
0.0
 11
-17.926756000000001
 21
285.0219240000000127
 31
0.0
  0
LINE
  5
188
100
AcDbEntity
100
AcDbLine
  8
sun
 62
7
420
0
370
-1
  6
ByLayer
 10
-17.926756000000001
 20
285.0219240000000127
 30
0.0
 11
-19.8986419999999988
 21
284.7693360000000098
 31
0.0
  0
LINE
  5
189
100
AcDbEntity
100
AcDbLine
  8
sun
 62
7
420
0
370
-1
  6
ByLayer
 10
-19.8986419999999988
 20
284.7693360000000098
 30
0.0
 11
-20.5412619999999997
 21
285.8827019999999948
 31
0.0
  0
LINE
  5
18A
100
AcDbEntity
100
AcDbLine
  8
sun
 62
7
420
0
370
-1
  6
ByLayer
 10
-20.5412619999999997
 20
285.8827019999999948
 30
0.0
 11
-19.3367380000000004
 21
287.4642759999999839
 31
0.0
  0
LINE
  5
18B
100
AcDbEntity
100
AcDbLine
  8
sun
 62
7
420
0
370
-1
  6
ByLayer
 10
-19.3367380000000004
 20
287.4642759999999839
 30
0.0
 11
-18.302111
 21
288.3109420000000114
 31
0.0
  0
LINE
  5
18C
100
AcDbEntity
100
AcDbLine
  8
sun
 62
7
420
0
370
-1
  6
ByLayer
 10
-18.302111
 20
288.3109420000000114
 30
0.0
 11
-17.8536600000000014
 21
288.5240200000000073
 31
0.0
  0
LINE
  5
18D
100
AcDbEntity
100
AcDbLine
  8
sun
 62
7
420
0
370
-1
  6
ByLayer
 10
-17.8536600000000014
 20
288.5240200000000073
 30
0.0
 11
-18.6179179999999995
 21
290.3689069999999788
 31
0.0
  0
LINE
  5
18E
100
AcDbEntity
100
AcDbLine
  8
sun
 62
7
420
0
370
-1
  6
ByLayer
 10
-18.6179179999999995
 20
290.3689069999999788
 30
0.0
 11
-19.085560000000001
 21
290.2023960000000216
 31
0.0
  0
LINE
  5
18F
100
AcDbEntity
100
AcDbLine
  8
sun
 62
7
420
0
370
-1
  6
ByLayer
 10
-19.085560000000001
 20
290.2023960000000216
 30
0.0
 11
-20.4159560000000013
 21
290.0697509999999966
 31
0.0
  0
LINE
  5
190
100
AcDbEntity
100
AcDbLine
  8
sun
 62
7
420
0
370
-1
  6
ByLayer
 10
-20.4159560000000013
 20
290.0697509999999966
 30
0.0
 11
-22.3861489999999996
 21
290.336168999999984
 31
0.0
  0
LINE
  5
191
100
AcDbEntity
100
AcDbLine
  8
sun
 62
7
420
0
370
-1
  6
ByLayer
 10
-22.3861489999999996
 20
290.336168999999984
 30
0.0
 11
-22.7188890000000008
 21
291.5779469999999947
 31
0.0
  0
LINE
  5
192
100
AcDbEntity
100
AcDbLine
  8
sun
 62
7
420
0
370
-1
  6
ByLayer
 10
-22.7188890000000008
 20
291.5779469999999947
 30
0.0
 11
-21.1457820000000005
 21
292.7937600000000202
 31
0.0
  0
LINE
  5
193
100
AcDbEntity
100
AcDbLine
  8
sun
 62
7
420
0
370
-1
  6
ByLayer
 10
-21.1457820000000005
 20
292.7937600000000202
 30
0.0
 11
-19.9274290000000001
 21
293.3440929999999867
 31
0.0
  0
LINE
  5
194
100
AcDbEntity
100
AcDbLine
  8
sun
 62
7
420
0
370
-1
  6
ByLayer
 10
-19.9274290000000001
 20
293.3440929999999867
 30
0.0
 11
-19.4391840000000009
 21
293.433558000000005
 31
0.0
  0
LINE
  5
195
100
AcDbEntity
100
AcDbLine
  8
sun
 62
7
420
0
370
-1
  6
ByLayer
 10
-19.4391840000000009
 20
293.433558000000005
 30
0.0
 11
-19.6996760000000002
 21
295.4136290000000145
 31
0.0
  0
LINE
  5
196
100
AcDbEntity
100
AcDbLine
  8
sun
 62
7
420
0
370
-1
  6
ByLayer
 10
-19.6996760000000002
 20
295.4136290000000145
 30
0.0
 11
-20.1946930000000009
 21
295.373835999999983
 31
0.0
  0
LINE
  5
197
100
AcDbEntity
100
AcDbLine
  8
sun
 62
7
420
0
370
-1
  6
ByLayer
 10
-20.1946930000000009
 20
295.373835999999983
 30
0.0
 11
-21.5140819999999984
 21
295.5900179999999864
 31
0.0
  0
LINE
  5
198
100
AcDbEntity
100
AcDbLine
  8
sun
 62
7
420
0
370
-1
  6
ByLayer
 10
-21.5140819999999984
 20
295.5900179999999864
 30
0.0
 11
-23.347961999999999
 21
296.3573799999999778
 31
0.0
  0
LINE
  5
199
100
AcDbEntity
100
AcDbLine
  8
sun
 62
7
420
0
370
-1
  6
ByLayer
 10
-23.347961999999999
 20
296.3573799999999778
 30
0.0
 11
-23.347961999999999
 21
297.6426200000000222
 31
0.0
  0
LINE
  5
19A
100
AcDbEntity
100
AcDbLine
  8
sun
 62
7
420
0
370
-1
  6
ByLayer
 10
-23.347961999999999
 20
297.6426200000000222
 30
0.0
 11
-21.5140819999999984
 21
298.4099820000000136
 31
0.0
  0
LINE
  5
19B
100
AcDbEntity
100
AcDbLine
  8
sun
 62
7
420
0
370
-1
  6
ByLayer
 10
-21.5140819999999984
 20
298.4099820000000136
 30
0.0
 11
-20.1946930000000009
 21
298.626164000000017
 31
0.0
  0
LINE
  5
19C
100
AcDbEntity
100
AcDbLine
  8
sun
 62
7
420
0
370
-1
  6
ByLayer
 10
-20.1946930000000009
 20
298.626164000000017
 30
0.0
 11
-19.6996760000000002
 21
298.5863709999999855
 31
0.0
  0
LINE
  5
19D
100
AcDbEntity
100
AcDbLine
  8
sun
 62
7
420
0
370
-1
  6
ByLayer
 10
-19.6996760000000002
 20
298.5863709999999855
 30
0.0
 11
-19.4391840000000009
 21
300.566441999999995
 31
0.0
  0
LINE
  5
19E
100
AcDbEntity
100
AcDbLine
  8
sun
 62
7
420
0
370
-1
  6
ByLayer
 10
-19.4391840000000009
 20
300.566441999999995
 30
0.0
 11
-19.9274290000000001
 21
300.6559070000000133
 31
0.0
  0
LINE
  5
19F
100
AcDbEntity
100
AcDbLine
  8
sun
 62
7
420
0
370
-1
  6
ByLayer
 10
-19.9274290000000001
 20
300.6559070000000133
 30
0.0
 11
-21.1457820000000005
 21
301.2062399999999798
 31
0.0
  0
LINE
  5
1A0
100
AcDbEntity
100
AcDbLine
  8
sun
 62
7
420
0
370
-1
  6
ByLayer
 10
-21.1457820000000005
 20
301.2062399999999798
 30
0.0
 11
-22.7188890000000008
 21
302.4220530000000053
 31
0.0
  0
LINE
  5
1A1
100
AcDbEntity
100
AcDbLine
  8
sun
 62
7
420
0
370
-1
  6
ByLayer
 10
-22.7188890000000008
 20
302.4220530000000053
 30
0.0
 11
-22.3861489999999996
 21
303.663831000000016
 31
0.0
  0
LINE
  5
1A2
100
AcDbEntity
100
AcDbLine
  8
sun
 62
7
420
0
370
-1
  6
ByLayer
 10
-22.3861489999999996
 20
303.663831000000016
 30
0.0
 11
-20.4159560000000013
 21
303.9302490000000034
 31
0.0
  0
LINE
  5
1A3
100
AcDbEntity
100
AcDbLine
  8
sun
 62
7
420
0
370
-1
  6
ByLayer
 10
-20.4159560000000013
 20
303.9302490000000034
 30
0.0
 11
-19.085560000000001
 21
303.7976039999999784
 31
0.0
  0
LINE
  5
1A4
100
AcDbEntity
100
AcDbLine
  8
sun
 62
7
420
0
370
-1
  6
ByLayer
 10
-19.085560000000001
 20
303.7976039999999784
 30
0.0
 11
-18.6179179999999995
 21
303.6310930000000212
 31
0.0
  0
LINE
  5
1A5
100
AcDbEntity
100
AcDbLine
  8
sun
 62
7
420
0
370
-1
  6
ByLayer
 10
-18.6179179999999995
 20
303.6310930000000212
 30
0.0
 11
-17.8536600000000014
 21
305.4759799999999927
 31
0.0
  0
LINE
  5
1A6
100
AcDbEntity
100
AcDbLine
  8
sun
 62
7
420
0
370
-1
  6
ByLayer
 10
-17.8536600000000014
 20
305.4759799999999927
 30
0.0
 11
-18.302111
 21
305.6890579999999886
 31
0.0
  0
LINE
  5
1A7
100
AcDbEntity
100
AcDbLine
  8
sun
 62
7
420
0
370
-1
  6
ByLayer
 10
-18.302111
 20
305.6890579999999886
 30
0.0
 11
-19.3367380000000004
 21
306.5357240000000161
 31
0.0
  0
LINE
  5
1A8
100
AcDbEntity
100
AcDbLine
  8
sun
 62
7
420
0
370
-1
  6
ByLayer
 10
-19.3367380000000004
 20
306.5357240000000161
 30
0.0
 11
-20.5412619999999997
 21
308.1172980000000052
 31
0.0
  0
LINE
  5
1A9
100
AcDbEntity
100
AcDbLine
  8
sun
 62
7
420
0
370
-1
  6
ByLayer
 10
-20.5412619999999997
 20
308.1172980000000052
 30
0.0
 11
-19.8986419999999988
 21
309.2306639999999902
 31
0.0
  0
LINE
  5
1AA
100
AcDbEntity
100
AcDbLine
  8
sun
 62
7
420
0
370
-1
  6
ByLayer
 10
-19.8986419999999988
 20
309.2306639999999902
 30
0.0
 11
-17.926756000000001
 21
308.9780759999999873
 31
0.0
  0
LINE
  5
1AB
100
AcDbEntity
100
AcDbLine
  8
sun
 62
7
420
0
370
-1
  6
ByLayer
 10
-17.926756000000001
 20
308.9780759999999873
 30
0.0
 11
-16.6759470000000007
 21
308.5056359999999813
 31
0.0
  0
LINE
  5
1AC
100
AcDbEntity
100
AcDbLine
  8
sun
 62
7
420
0
370
-1
  6
ByLayer
 10
-16.6759470000000007
 20
308.5056359999999813
 30
0.0
 11
-16.2672890000000017
 21
308.2236960000000181
 31
0.0
  0
LINE
  5
1AD
100
AcDbEntity
100
AcDbLine
  8
sun
 62
7
420
0
370
-1
  6
ByLayer
 10
-16.2672890000000017
 20
308.2236960000000181
 30
0.0
 11
-15.0514759999999992
 21
309.8080909999999903
 31
0.0
  0
LINE
  5
1AE
100
AcDbEntity
100
AcDbLine
  8
sun
 62
7
420
0
370
-1
  6
ByLayer
 10
-15.0514759999999992
 20
309.8080909999999903
 30
0.0
 11
-15.4296530000000001
 21
310.1298239999999851
 31
0.0
  0
LINE
  5
1AF
100
AcDbEntity
100
AcDbLine
  8
sun
 62
7
420
0
370
-1
  6
ByLayer
 10
-15.4296530000000001
 20
310.1298239999999851
 30
0.0
 11
-16.2097160000000002
 21
311.2155329999999935
 31
0.0
  0
LINE
  5
1B0
100
AcDbEntity
100
AcDbLine
  8
sun
 62
7
420
0
370
-1
  6
ByLayer
 10
-16.2097160000000002
 20
311.2155329999999935
 30
0.0
 11
-16.9640960000000014
 21
313.0550579999999741
 31
0.0
  0
LINE
  5
1B1
100
AcDbEntity
100
AcDbLine
  8
sun
 62
7
420
0
370
-1
  6
ByLayer
 10
-16.9640960000000014
 20
313.0550579999999741
 30
0.0
 11
-16.0550579999999989
 21
313.9640959999999836
 31
0.0
  0
LINE
  5
1B2
100
AcDbEntity
100
AcDbLine
  8
sun
 62
7
420
0
370
-1
  6
ByLayer
 10
-16.0550579999999989
 20
313.9640959999999836
 30
0.0
 11
-14.2155330000000006
 21
313.2097160000000144
 31
0.0
  0
LINE
  5
1B3
100
AcDbEntity
100
AcDbLine
  8
sun
 62
7
420
0
370
-1
  6
ByLayer
 10
-14.2155330000000006
 20
313.2097160000000144
 30
0.0
 11
-13.1298239999999993
 21
312.4296529999999734
 31
0.0
  0
LINE
  5
1B4
100
AcDbEntity
100
AcDbLine
  8
sun
 62
7
420
0
370
-1
  6
ByLayer
 10
-13.1298239999999993
 20
312.4296529999999734
 30
0.0
 11
-12.8080909999999992
 21
312.0514759999999796
 31
0.0
  0
LINE
  5
1B5
100
AcDbEntity
100
AcDbLine
  8
sun
 62
7
420
0
370
-1
  6
ByLayer
 10
-12.8080909999999992
 20
312.0514759999999796
 30
0.0
 11
-11.2236960000000003
 21
313.2672890000000052
 31
0.0
  0
LINE
  5
1B6
100
AcDbEntity
100
AcDbLine
  8
sun
 62
7
420
0
370
-1
  6
ByLayer
 10
-11.2236960000000003
 20
313.2672890000000052
 30
0.0
 11
-11.5056360000000009
 21
313.6759470000000078
 31
0.0
  0
LINE
  5
1B7
100
AcDbEntity
100
AcDbLine
  8
sun
 62
7
420
0
370
-1
  6
ByLayer
 10
-11.5056360000000009
 20
313.6759470000000078
 30
0.0
 11
-11.9780759999999997
 21
314.9267560000000117
 31
0.0
  0
LINE
  5
1B8
100
AcDbEntity
100
AcDbLine
  8
sun
 62
7
420
0
370
-1
  6
ByLayer
 10
-11.9780759999999997
 20
314.9267560000000117
 30
0.0
 11
-12.2306640000000009
 21
316.8986419999999953
 31
0.0
  0
LINE
  5
1B9
100
AcDbEntity
100
AcDbLine
  8
sun
 62
7
420
0
370
-1
  6
ByLayer
 10
-12.2306640000000009
 20
316.8986419999999953
 30
0.0
 11
-11.1172979999999999
 21
317.5412620000000175
 31
0.0
  0
LINE
  5
1BA
100
AcDbEntity
100
AcDbLine
  8
sun
 62
7
420
0
370
-1
  6
ByLayer
 10
-11.1172979999999999
 20
317.5412620000000175
 30
0.0
 11
-9.5357240000000001
 21
316.3367380000000253
 31
0.0
  0
LINE
  5
1BB
100
AcDbEntity
100
AcDbLine
  8
sun
 62
7
420
0
370
-1
  6
ByLayer
 10
-9.5357240000000001
 20
316.3367380000000253
 30
0.0
 11
-8.6890579999999993
 21
315.3021110000000249
 31
0.0
  0
LINE
  5
1BC
100
AcDbEntity
100
AcDbLine
  8
sun
 62
7
420
0
370
-1
  6
ByLayer
 10
-8.6890579999999993
 20
315.3021110000000249
 30
0.0
 11
-8.4759799999999998
 21
314.8536599999999908
 31
0.0
  0
LINE
  5
1BD
100
AcDbEntity
100
AcDbLine
  8
sun
 62
7
420
0
370
-1
  6
ByLayer
 10
-8.4759799999999998
 20
314.8536599999999908
 30
0.0
 11
-6.6310929999999999
 21
315.6179179999999747
 31
0.0
  0
LINE
  5
1BE
100
AcDbEntity
100
AcDbLine
  8
sun
 62
7
420
0
370
-1
  6
ByLayer
 10
-6.6310929999999999
 20
315.6179179999999747
 30
0.0
 11
-6.7976039999999998
 21
316.0855599999999868
 31
0.0
  0
LINE
  5
1BF
100
AcDbEntity
100
AcDbLine
  8
sun
 62
7
420
0
370
-1
  6
ByLayer
 10
-6.7976039999999998
 20
316.0855599999999868
 30
0.0
 11
-6.9302489999999999
 21
317.4159559999999942
 31
0.0
  0
LINE
  5
1C0
100
AcDbEntity
100
AcDbLine
  8
sun
 62
7
420
0
370
-1
  6
ByLayer
 10
-6.9302489999999999
 20
317.4159559999999942
 30
0.0
 11
-6.6638310000000001
 21
319.386148999999989
 31
0.0
  0
LINE
  5
1C1
100
AcDbEntity
100
AcDbLine
  8
sun
 62
7
420
0
370
-1
  6
ByLayer
 10
-6.6638310000000001
 20
319.386148999999989
 30
0.0
 11
-5.422053
 21
319.7188889999999901
 31
0.0
  0
LINE
  5
1C2
100
AcDbEntity
100
AcDbLine
  8
sun
 62
7
420
0
370
-1
  6
ByLayer
 10
-5.422053
 20
319.7188889999999901
 30
0.0
 11
-4.2062400000000002
 21
318.145781999999997
 31
0.0
  0
LINE
  5
1C3
100
AcDbEntity
100
AcDbLine
  8
sun
 62
7
420
0
370
-1
  6
ByLayer
 10
-4.2062400000000002
 20
318.145781999999997
 30
0.0
 11
-3.655907
 21
316.9274290000000178
 31
0.0
  0
LINE
  5
1C4
100
AcDbEntity
100
AcDbLine
  8
sun
 62
7
420
0
370
-1
  6
ByLayer
 10
-3.655907
 20
316.9274290000000178
 30
0.0
 11
-3.5664419999999999
 21
316.4391840000000116
 31
0.0
  0
LINE
  5
1C5
100
AcDbEntity
100
AcDbLine
  8
sun
 62
7
420
0
370
-1
  6
ByLayer
 10
-3.5664419999999999
 20
316.4391840000000116
 30
0.0
 11
-1.586371
 21
316.6996760000000108
 31
0.0
  0
LINE
  5
1C6
100
AcDbEntity
100
AcDbLine
  8
sun
 62
7
420
0
370
-1
  6
ByLayer
 10
-1.586371
 20
316.6996760000000108
 30
0.0
 11
-1.6261639999999999
 21
317.1946929999999725
 31
0.0
  0
LINE
  5
1C7
100
AcDbEntity
100
AcDbLine
  8
sun
 62
7
420
0
370
-1
  6
ByLayer
 10
-1.6261639999999999
 20
317.1946929999999725
 30
0.0
 11
-1.4099820000000001
 21
318.5140819999999735
 31
0.0
  0
LINE
  5
1C8
100
AcDbEntity
100
AcDbLine
  8
sun
 62
7
420
0
370
-1
  6
ByLayer
 10
-1.4099820000000001
 20
318.5140819999999735
 30
0.0
 11
-0.64262
 21
320.3479619999999954
 31
0.0
  0
LINE
  5
1C9
100
AcDbEntity
100
AcDbLine
  8
sun
 62
7
420
0
370
-1
  6
ByLayer
 10
-0.64262
 20
320.3479619999999954
 30
0.0
 11
0.64262
 21
320.3479619999999954
 31
0.0
  0
LINE
  5
1CA
100
AcDbEntity
100
AcDbLine
  8
sun
 62
7
420
0
370
-1
  6
ByLayer
 10
0.64262
 20
320.3479619999999954
 30
0.0
 11
1.4099820000000001
 21
318.5140819999999735
 31
0.0
  0
LINE
  5
1CB
100
AcDbEntity
100
AcDbLine
  8
sun
 62
7
420
0
370
-1
  6
ByLayer
 10
1.4099820000000001
 20
318.5140819999999735
 30
0.0
 11
1.6261639999999999
 21
317.1946929999999725
 31
0.0
  0
LINE
  5
1CC
100
AcDbEntity
100
AcDbLine
  8
sun
 62
7
420
0
370
-1
  6
ByLayer
 10
1.6261639999999999
 20
317.1946929999999725
 30
0.0
 11
1.586371
 21
316.6996760000000108
 31
0.0
  0
LINE
  5
1CD
100
AcDbEntity
100
AcDbLine
  8
sun
 62
7
420
0
370
-1
  6
ByLayer
 10
1.586371
 20
316.6996760000000108
 30
0.0
 11
3.5664419999999999
 21
316.4391840000000116
 31
0.0
  0
LINE
  5
1CE
100
AcDbEntity
100
AcDbLine
  8
sun
 62
7
420
0
370
-1
  6
ByLayer
 10
3.5664419999999999
 20
316.4391840000000116
 30
0.0
 11
3.655907
 21
316.9274290000000178
 31
0.0
  0
LINE
  5
1CF
100
AcDbEntity
100
AcDbLine
  8
sun
 62
7
420
0
370
-1
  6
ByLayer
 10
3.655907
 20
316.9274290000000178
 30
0.0
 11
4.2062400000000002
 21
318.145781999999997
 31
0.0
  0
LINE
  5
1D0
100
AcDbEntity
100
AcDbLine
  8
sun
 62
7
420
0
370
-1
  6
ByLayer
 10
4.2062400000000002
 20
318.145781999999997
 30
0.0
 11
5.422053
 21
319.7188889999999901
 31
0.0
  0
LINE
  5
1D1
100
AcDbEntity
100
AcDbLine
  8
sun
 62
7
420
0
370
-1
  6
ByLayer
 10
5.422053
 20
319.7188889999999901
 30
0.0
 11
6.6638310000000001
 21
319.386148999999989
 31
0.0
  0
LINE
  5
1D2
100
AcDbEntity
100
AcDbLine
  8
sun
 62
7
420
0
370
-1
  6
ByLayer
 10
6.6638310000000001
 20
319.386148999999989
 30
0.0
 11
6.9302489999999999
 21
317.4159559999999942
 31
0.0
  0
LINE
  5
1D3
100
AcDbEntity
100
AcDbLine
  8
sun
 62
7
420
0
370
-1
  6
ByLayer
 10
6.9302489999999999
 20
317.4159559999999942
 30
0.0
 11
6.7976039999999998
 21
316.0855599999999868
 31
0.0
  0
LINE
  5
1D4
100
AcDbEntity
100
AcDbLine
  8
sun
 62
7
420
0
370
-1
  6
ByLayer
 10
6.7976039999999998
 20
316.0855599999999868
 30
0.0
 11
6.6310929999999999
 21
315.6179179999999747
 31
0.0
  0
LINE
  5
1D5
100
AcDbEntity
100
AcDbLine
  8
sun
 62
7
420
0
370
-1
  6
ByLayer
 10
6.6310929999999999
 20
315.6179179999999747
 30
0.0
 11
8.4759799999999998
 21
314.8536599999999908
 31
0.0
  0
LINE
  5
1D6
100
AcDbEntity
100
AcDbLine
  8
sun
 62
7
420
0
370
-1
  6
ByLayer
 10
8.4759799999999998
 20
314.8536599999999908
 30
0.0
 11
8.6890579999999993
 21
315.3021110000000249
 31
0.0
  0
LINE
  5
1D7
100
AcDbEntity
100
AcDbLine
  8
sun
 62
7
420
0
370
-1
  6
ByLayer
 10
8.6890579999999993
 20
315.3021110000000249
 30
0.0
 11
9.5357240000000001
 21
316.3367380000000253
 31
0.0
  0
LINE
  5
1D8
100
AcDbEntity
100
AcDbLine
  8
sun
 62
7
420
0
370
-1
  6
ByLayer
 10
9.5357240000000001
 20
316.3367380000000253
 30
0.0
 11
11.1172979999999999
 21
317.5412620000000175
 31
0.0
  0
LINE
  5
1D9
100
AcDbEntity
100
AcDbLine
  8
sun
 62
7
420
0
370
-1
  6
ByLayer
 10
11.1172979999999999
 20
317.5412620000000175
 30
0.0
 11
12.2306640000000009
 21
316.8986419999999953
 31
0.0
  0
LINE
  5
1DA
100
AcDbEntity
100
AcDbLine
  8
sun
 62
7
420
0
370
-1
  6
ByLayer
 10
12.2306640000000009
 20
316.8986419999999953
 30
0.0
 11
11.9780759999999997
 21
314.9267560000000117
 31
0.0
  0
LINE
  5
1DB
100
AcDbEntity
100
AcDbLine
  8
sun
 62
7
420
0
370
-1
  6
ByLayer
 10
11.9780759999999997
 20
314.9267560000000117
 30
0.0
 11
11.5056360000000009
 21
313.6759470000000078
 31
0.0
  0
LINE
  5
1DC
100
AcDbEntity
100
AcDbLine
  8
sun
 62
7
420
0
370
-1
  6
ByLayer
 10
11.5056360000000009
 20
313.6759470000000078
 30
0.0
 11
11.2236960000000003
 21
313.2672890000000052
 31
0.0
  0
LINE
  5
1DD
100
AcDbEntity
100
AcDbLine
  8
sun
 62
7
420
0
370
-1
  6
ByLayer
 10
11.2236960000000003
 20
313.2672890000000052
 30
0.0
 11
12.8080909999999992
 21
312.0514759999999796
 31
0.0
  0
LINE
  5
1DE
100
AcDbEntity
100
AcDbLine
  8
sun
 62
7
420
0
370
-1
  6
ByLayer
 10
12.8080909999999992
 20
312.0514759999999796
 30
0.0
 11
13.1298239999999993
 21
312.4296529999999734
 31
0.0
  0
LINE
  5
1DF
100
AcDbEntity
100
AcDbLine
  8
sun
 62
7
420
0
370
-1
  6
ByLayer
 10
13.1298239999999993
 20
312.4296529999999734
 30
0.0
 11
14.2155330000000006
 21
313.2097160000000144
 31
0.0
  0
LINE
  5
1E0
100
AcDbEntity
100
AcDbLine
  8
sun
 62
7
420
0
370
-1
  6
ByLayer
 10
14.2155330000000006
 20
313.2097160000000144
 30
0.0
 11
16.0550579999999989
 21
313.9640959999999836
 31
0.0
  0
LINE
  5
1E1
100
AcDbEntity
100
AcDbLine
  8
sun
 62
7
420
0
370
-1
  6
ByLayer
 10
16.0550579999999989
 20
313.9640959999999836
 30
0.0
 11
16.9640960000000014
 21
313.0550579999999741
 31
0.0
  0
LINE
  5
1E2
100
AcDbEntity
100
AcDbLine
  8
sun
 62
7
420
0
370
-1
  6
ByLayer
 10
16.9640960000000014
 20
313.0550579999999741
 30
0.0
 11
16.2097160000000002
 21
311.2155329999999935
 31
0.0
  0
LINE
  5
1E3
100
AcDbEntity
100
AcDbLine
  8
sun
 62
7
420
0
370
-1
  6
ByLayer
 10
16.2097160000000002
 20
311.2155329999999935
 30
0.0
 11
15.4296530000000001
 21
310.1298239999999851
 31
0.0
  0
LINE
  5
1E4
100
AcDbEntity
100
AcDbLine
  8
sun
 62
7
420
0
370
-1
  6
ByLayer
 10
15.4296530000000001
 20
310.1298239999999851
 30
0.0
 11
15.0514759999999992
 21
309.8080909999999903
 31
0.0
  0
LINE
  5
1E5
100
AcDbEntity
100
AcDbLine
  8
sun
 62
7
420
0
370
-1
  6
ByLayer
 10
15.0514759999999992
 20
309.8080909999999903
 30
0.0
 11
16.2672890000000017
 21
308.2236960000000181
 31
0.0
  0
LINE
  5
1E6
100
AcDbEntity
100
AcDbLine
  8
sun
 62
7
420
0
370
-1
  6
ByLayer
 10
16.2672890000000017
 20
308.2236960000000181
 30
0.0
 11
16.6759470000000007
 21
308.5056359999999813
 31
0.0
  0
LINE
  5
1E7
100
AcDbEntity
100
AcDbLine
  8
sun
 62
7
420
0
370
-1
  6
ByLayer
 10
16.6759470000000007
 20
308.5056359999999813
 30
0.0
 11
17.926756000000001
 21
308.9780759999999873
 31
0.0
  0
LINE
  5
1E8
100
AcDbEntity
100
AcDbLine
  8
sun
 62
7
420
0
370
-1
  6
ByLayer
 10
17.926756000000001
 20
308.9780759999999873
 30
0.0
 11
19.8986419999999988
 21
309.2306639999999902
 31
0.0
  0
LINE
  5
1E9
100
AcDbEntity
100
AcDbLine
  8
sun
 62
7
420
0
370
-1
  6
ByLayer
 10
19.8986419999999988
 20
309.2306639999999902
 30
0.0
 11
20.5412619999999997
 21
308.1172980000000052
 31
0.0
  0
LINE
  5
1EA
100
AcDbEntity
100
AcDbLine
  8
sun
 62
7
420
0
370
-1
  6
ByLayer
 10
20.5412619999999997
 20
308.1172980000000052
 30
0.0
 11
19.3367380000000004
 21
306.5357240000000161
 31
0.0
  0
LINE
  5
1EB
100
AcDbEntity
100
AcDbLine
  8
sun
 62
7
420
0
370
-1
  6
ByLayer
 10
19.3367380000000004
 20
306.5357240000000161
 30
0.0
 11
18.302111
 21
305.6890579999999886
 31
0.0
  0
LINE
  5
1EC
100
AcDbEntity
100
AcDbLine
  8
sun
 62
7
420
0
370
-1
  6
ByLayer
 10
18.302111
 20
305.6890579999999886
 30
0.0
 11
17.8536600000000014
 21
305.4759799999999927
 31
0.0
  0
LINE
  5
1ED
100
AcDbEntity
100
AcDbLine
  8
sun
 62
7
420
0
370
-1
  6
ByLayer
 10
17.8536600000000014
 20
305.4759799999999927
 30
0.0
 11
18.6179179999999995
 21
303.6310930000000212
 31
0.0
  0
LINE
  5
1EE
100
AcDbEntity
100
AcDbLine
  8
sun
 62
7
420
0
370
-1
  6
ByLayer
 10
18.6179179999999995
 20
303.6310930000000212
 30
0.0
 11
19.085560000000001
 21
303.7976039999999784
 31
0.0
  0
LINE
  5
1EF
100
AcDbEntity
100
AcDbLine
  8
sun
 62
7
420
0
370
-1
  6
ByLayer
 10
19.085560000000001
 20
303.7976039999999784
 30
0.0
 11
20.4159560000000013
 21
303.9302490000000034
 31
0.0
  0
LINE
  5
1F0
100
AcDbEntity
100
AcDbLine
  8
sun
 62
7
420
0
370
-1
  6
ByLayer
 10
20.4159560000000013
 20
303.9302490000000034
 30
0.0
 11
22.3861489999999996
 21
303.663831000000016
 31
0.0
  0
LINE
  5
1F1
100
AcDbEntity
100
AcDbLine
  8
sun
 62
7
420
0
370
-1
  6
ByLayer
 10
22.3861489999999996
 20
303.663831000000016
 30
0.0
 11
22.7188890000000008
 21
302.4220530000000053
 31
0.0
  0
LINE
  5
1F2
100
AcDbEntity
100
AcDbLine
  8
sun
 62
7
420
0
370
-1
  6
ByLayer
 10
22.7188890000000008
 20
302.4220530000000053
 30
0.0
 11
21.1457820000000005
 21
301.2062399999999798
 31
0.0
  0
LINE
  5
1F3
100
AcDbEntity
100
AcDbLine
  8
sun
 62
7
420
0
370
-1
  6
ByLayer
 10
21.1457820000000005
 20
301.2062399999999798
 30
0.0
 11
19.9274290000000001
 21
300.6559070000000133
 31
0.0
  0
LINE
  5
1F4
100
AcDbEntity
100
AcDbLine
  8
sun
 62
7
420
0
370
-1
  6
ByLayer
 10
19.9274290000000001
 20
300.6559070000000133
 30
0.0
 11
19.4391840000000009
 21
300.566441999999995
 31
0.0
  0
LINE
  5
1F5
100
AcDbEntity
100
AcDbLine
  8
sun
 62
7
420
0
370
-1
  6
ByLayer
 10
19.4391840000000009
 20
300.566441999999995
 30
0.0
 11
19.6996760000000002
 21
298.5863709999999855
 31
0.0
  0
LINE
  5
1F6
100
AcDbEntity
100
AcDbLine
  8
ring
 62
256
370
-1
  6
ByLayer
 10
1.8590420914642705
 20
341.9163276763304111
 30
0.0
 11
4.0201351079748058
 21
341.77448424437938
 31
0.0
  0
LINE
  5
1F7
100
AcDbEntity
100
AcDbLine
  8
ring
 62
256
370
-1
  6
ByLayer
 10
-4.0212006055672589
 20
341.7738143639215309
 30
0.0
 11
-1.8600817563330692
 21
341.9152636646725227
 31
0.0
  0
LINE
  5
1F8
100
AcDbEntity
100
AcDbLine
  8
ring
 62
256
370
-1
  6
ByLayer
 10
-9.8325352911606405
 20
340.8649945840831492
 30
0.0
 11
-7.708367951888536
 21
341.2873163807831247
 31
0.0
  0
LINE
  5
1F9
100
AcDbEntity
100
AcDbLine
  8
ring
 62
256
370
-1
  6
ByLayer
 10
-15.4755284176390226
 20
339.2054184952206697
 30
0.0
 11
-13.4246576804343984
 21
339.901386744838419
 31
0.0
  0
LINE
  5
1FA
100
AcDbEntity
100
AcDbLine
  8
ring
 62
256
370
-1
  6
ByLayer
 10
-20.8536268080750702
 20
336.8234819043359494
 30
0.0
 11
-18.911143639860299
 21
337.7811883971616567
 31
0.0
  0
LINE
  5
1FB
100
AcDbEntity
100
AcDbLine
  8
ring
 62
256
370
-1
  6
ByLayer
 10
-25.8748097079178621
 20
333.7599404068966464
 30
0.0
 11
-24.0739505342591649
 21
334.9629985193116681
 31
0.0
  0
LINE
  5
1FC
100
AcDbEntity
100
AcDbLine
  8
ring
 62
256
370
-1
  6
ByLayer
 10
-30.4531632856161956
 20
330.0672120472980851
 30
0.0
 11
-28.8247413062673665
 21
331.495037121448263
 31
0.0
  0
LINE
  5
1FD
100
AcDbEntity
100
AcDbLine
  8
ring
 62
256
370
-1
  6
ByLayer
 10
-34.5103506420961992
 20
325.8084804315907945
 30
0.0
 11
-33.0822286086077639
 21
327.4366419845894711
 31
0.0
  0
LINE
  5
1FE
100
AcDbEntity
100
AcDbLine
  8
ring
 62
256
370
-1
  6
ByLayer
 10
-37.9769521768236729
 20
321.0566136384628635
 30
0.0
 11
-36.7735656531388386
 21
322.8572533747266675
 31
0.0
  0
LINE
  5
1FF
100
AcDbEntity
100
AcDbLine
  8
ring
 62
256
370
-1
  6
ByLayer
 10
-40.7936533764158966
 20
315.8929174262112269
 30
0.0
 11
-39.8355926395966975
 21
317.8352259006209692
 31
0.0
  0
LINE
  5
200
100
AcDbEntity
100
AcDbLine
  8
ring
 62
256
370
-1
  6
ByLayer
 10
-42.9122597024107435
 20
310.405744068674494
 30
0.0
 11
-42.2159174372887804
 21
312.4564878447233696
 31
0.0
  0
LINE
  5
201
100
AcDbEntity
100
AcDbLine
  8
ring
 62
256
370
-1
  6
ByLayer
 10
-44.2965212131817978
 20
304.6889806233320428
 30
0.0
 11
-43.8738120289758555
 21
306.8130709064382131
 31
0.0
  0
LINE
  5
202
100
AcDbEntity
100
AcDbLine
  8
ring
 62
256
370
-1
  6
ByLayer
 10
-44.9227528104899676
 20
298.8404424977198346
 30
0.0
 11
-44.7809093785389365
 21
301.0015355142303406
 31
0.0
  0
LINE
  5
203
100
AcDbEntity
100
AcDbLine
  8
ring
 62
256
370
-1
  6
ByLayer
 10
-44.7802394980811087
 20
292.960199800688315
 30
0.0
 11
-44.9216887988321005
 21
295.1213186499225003
 31
0.0
  0
LINE
  5
204
100
AcDbEntity
100
AcDbLine
  8
ring
 62
256
370
-1
  6
ByLayer
 10
-43.8714197182426986
 20
287.1488651150949067
 30
0.0
 11
-44.2937415149427025
 21
289.2730324543670122
 31
0.0
  0
LINE
  5
205
100
AcDbEntity
100
AcDbLine
  8
ring
 62
256
370
-1
  6
ByLayer
 10
-42.211843629380212
 20
281.5058719886165477
 30
0.0
 11
-42.9078118789979754
 21
283.5567427258211524
 31
0.0
  0
LINE
  5
206
100
AcDbEntity
100
AcDbLine
  8
ring
 62
256
370
-1
  6
ByLayer
 10
-39.8299070384955058
 20
276.1277735981805108
 30
0.0
 11
-40.7876135313212131
 21
278.0702567663952891
 31
0.0
  0
LINE
  5
207
100
AcDbEntity
100
AcDbLine
  8
ring
 62
256
370
-1
  6
ByLayer
 10
-36.76636554105621
 20
271.1065906983376976
 30
0.0
 11
-37.9694236534712104
 21
272.9074498719963913
 31
0.0
  0
LINE
  5
208
100
AcDbEntity
100
AcDbLine
  8
ring
 62
256
370
-1
  6
ByLayer
 10
-33.0736371814576628
 20
266.5282371206393464
 30
0.0
 11
-34.5014622556077981
 21
268.1566590999881896
 31
0.0
  0
LINE
  5
209
100
AcDbEntity
100
AcDbLine
  8
ring
 62
256
370
-1
  6
ByLayer
 10
-28.8149055657503581
 20
262.4710497641593747
 30
0.0
 11
-30.4430671187490169
 21
263.8991717976477958
 31
0.0
  0
LINE
  5
20A
100
AcDbEntity
100
AcDbLine
  8
ring
 62
256
370
-1
  6
ByLayer
 10
-24.0630387726224448
 20
259.0044482294318868
 30
0.0
 11
-25.8636785088862062
 21
260.2078347531167424
 31
0.0
  0
LINE
  5
20B
100
AcDbEntity
100
AcDbLine
  8
ring
 62
256
370
-1
  6
ByLayer
 10
-18.8993425603707976
 20
256.1877470298396702
 30
0.0
 11
-20.8416510347805044
 21
257.1458077666588906
 31
0.0
  0
LINE
  5
20C
100
AcDbEntity
100
AcDbLine
  8
ring
 62
256
370
-1
  6
ByLayer
 10
-13.41216920283407
 20
254.0691407038448233
 30
0.0
 11
-15.4629129788829243
 21
254.7654829689667793
 31
0.0
  0
LINE
  5
20D
100
AcDbEntity
100
AcDbLine
  8
ring
 62
256
370
-1
  6
ByLayer
 10
-7.6954057574915833
 20
252.6848791930737548
 30
0.0
 11
-9.819496040597798
 21
253.1075883772797113
 31
0.0
  0
LINE
  5
20E
100
AcDbEntity
100
AcDbLine
  8
ring
 62
256
370
-1
  6
ByLayer
 10
-1.8468676318794128
 20
252.0586475957655921
 30
0.0
 11
-4.0079606483899184
 21
252.2004910277166232
 31
0.0
  0
LINE
  5
20F
100
AcDbEntity
100
AcDbLine
  8
ring
 62
256
370
-1
  6
ByLayer
 10
4.0333750651521472
 20
252.2011609081744439
 30
0.0
 11
1.8722562159179474
 21
252.0597116074234521
 31
0.0
  0
LINE
  5
210
100
AcDbEntity
100
AcDbLine
  8
ring
 62
256
370
-1
  6
ByLayer
 10
9.8447097507454888
 20
253.109980688012854
 30
0.0
 11
7.7205424114734145
 21
252.6876588913128501
 31
0.0
  0
LINE
  5
211
100
AcDbEntity
100
AcDbLine
  8
ring
 62
256
370
-1
  6
ByLayer
 10
15.4877028772239012
 20
254.7695567768753335
 30
0.0
 11
13.4368321400192681
 21
254.0735885272575842
 31
0.0
  0
LINE
  5
212
100
AcDbEntity
100
AcDbLine
  8
ring
 62
256
370
-1
  6
ByLayer
 10
20.8658012676599505
 20
257.1514933677600538
 30
0.0
 11
18.923318099445158
 21
256.1937868749343465
 31
0.0
  0
LINE
  5
213
100
AcDbEntity
100
AcDbLine
  8
ring
 62
256
370
-1
  6
ByLayer
 10
25.8869841675027423
 20
260.2150348651993568
 30
0.0
 11
24.0861249938440274
 21
259.0119767527843351
 31
0.0
  0
LINE
  5
214
100
AcDbEntity
100
AcDbLine
  8
ring
 62
256
370
-1
  6
ByLayer
 10
30.4653377452010581
 20
263.9077632247978613
 30
0.0
 11
28.8369157658522148
 21
262.4799381506477403
 31
0.0
  0
LINE
  5
215
100
AcDbEntity
100
AcDbLine
  8
ring
 62
256
370
-1
  6
ByLayer
 10
34.5225251016810617
 20
268.1664948405052087
 30
0.0
 11
33.0944030681926407
 21
266.5383332875065321
 31
0.0
  0
LINE
  5
216
100
AcDbEntity
100
AcDbLine
  8
ring
 62
256
370
-1
  6
ByLayer
 10
37.9891266364085567
 20
272.9183616336331397
 30
0.0
 11
36.7857401127237225
 21
271.1177218973693357
 31
0.0
  0
LINE
  5
217
100
AcDbEntity
100
AcDbLine
  8
ring
 62
256
370
-1
  6
ByLayer
 10
40.8058278360007591
 20
278.0820578458847194
 30
0.0
 11
39.8477670991815813
 21
276.139749371475034
 31
0.0
  0
LINE
  5
218
100
AcDbEntity
100
AcDbLine
  8
ring
 62
256
370
-1
  6
ByLayer
 10
42.9244341619956273
 20
283.5692312034215092
 30
0.0
 11
42.2280918968736643
 21
281.5184874273726336
 31
0.0
  0
LINE
  5
219
100
AcDbEntity
100
AcDbLine
  8
ring
 62
256
370
-1
  6
ByLayer
 10
44.3086956727666745
 20
289.2859946487639604
 30
0.0
 11
43.8859864885607323
 21
287.1619043656577333
 31
0.0
  0
LINE
  5
21A
100
AcDbEntity
100
AcDbLine
  8
ring
 62
256
370
-1
  6
ByLayer
 10
44.9349272700748514
 20
295.1345327743761686
 30
0.0
 11
44.7930838381238203
 21
292.9734397578656626
 31
0.0
  0
LINE
  5
21B
100
AcDbEntity
100
AcDbLine
  8
ring
 62
256
370
-1
  6
ByLayer
 10
44.7924139576659925
 20
301.0147754714076882
 30
0.0
 11
44.9338632584169844
 21
298.8536566221735029
 31
0.0
  0
LINE
  5
21C
100
AcDbEntity
100
AcDbLine
  8
ring
 62
256
370
-1
  6
ByLayer
 10
43.8835941778275895
 20
306.8261101570010396
 30
0.0
 11
44.3059159745275934
 21
304.701942817728991
 31
0.0
  0
LINE
  5
21D
100
AcDbEntity
100
AcDbLine
  8
ring
 62
256
370
-1
  6
ByLayer
 10
42.2240180889650958
 20
312.4691032834794555
 30
0.0
 11
42.9199863385828593
 21
310.4182325462748508
 31
0.0
  0
LINE
  5
21E
100
AcDbEntity
100
AcDbLine
  8
ring
 62
256
370
-1
  6
ByLayer
 10
39.842081498080411
 20
317.8472016739154924
 30
0.0
 11
40.7997879909061041
 21
315.9047185057007141
 31
0.0
  0
LINE
  5
21F
100
AcDbEntity
100
AcDbLine
  8
ring
 62
256
370
-1
  6
ByLayer
 10
36.7785400006410939
 20
322.8683845737583056
 30
0.0
 11
37.9815981130561013
 21
321.0675254000996119
 31
0.0
  0
LINE
  5
220
100
AcDbEntity
100
AcDbLine
  8
ring
 62
256
370
-1
  6
ByLayer
 10
33.0858116410425325
 20
327.4467381514566569
 30
0.0
 11
34.5136367151926891
 21
325.8183161721078136
 31
0.0
  0
LINE
  5
221
100
AcDbEntity
100
AcDbLine
  8
ring
 62
256
370
-1
  6
ByLayer
 10
28.8270800253352455
 20
331.5039255079366285
 30
0.0
 11
30.4552415783339079
 21
330.0758034744482075
 31
0.0
  0
LINE
  5
222
100
AcDbEntity
100
AcDbLine
  8
ring
 62
256
370
-1
  6
ByLayer
 10
24.0752132322073358
 20
334.9705270426641164
 30
0.0
 11
25.8758529684710936
 21
333.7671405189792608
 31
0.0
  0
LINE
  5
223
100
AcDbEntity
100
AcDbLine
  8
ring
 62
256
370
-1
  6
ByLayer
 10
18.9115170199557241
 20
337.787228242256333
 30
0.0
 11
20.8538254943653918
 21
336.8291675054371126
 31
0.0
  0
LINE
  5
224
100
AcDbEntity
100
AcDbLine
  8
ring
 62
256
370
-1
  6
ByLayer
 10
13.4243436624189592
 20
339.9058345682511799
 30
0.0
 11
15.4750874384678134
 21
339.2094923031291955
 31
0.0
  0
LINE
  5
225
100
AcDbEntity
100
AcDbLine
  8
ring
 62
256
370
-1
  6
ByLayer
 10
7.7075802170765124
 20
341.2900960790222484
 30
0.0
 11
9.8316705001826872
 21
340.8673868948162635
 31
0.0
  0
LINE
  5
226
100
AcDbEntity
100
AcDbLine
  8
planet
 62
7
420
0
370
-1
  6
ByLayer
 10
8.2443100999590797
 20
332.9192640192233057
 30
0.0
 11
9.297089573343051
 21
333.3737403010009075
 31
0.0
  0
LINE
  5
227
100
AcDbEntity
100
AcDbLine
  8
planet
 62
7
420
0
370
-1
  6
ByLayer
 10
9.297089573343051
 20
333.3737403010009075
 30
0.0
 11
9.9563487172048237
 21
333.4834793919377489
 31
0.0
  0
LINE
  5
228
100
AcDbEntity
100
AcDbLine
  8
planet
 62
7
420
0
370
-1
  6
ByLayer
 10
9.9563487172048237
 20
333.4834793919377489
 30
0.0
 11
11.9890400234952281
 21
333.1486816586997293
 31
0.0
  0
LINE
  5
229
100
AcDbEntity
100
AcDbLine
  8
planet
 62
7
420
0
370
-1
  6
ByLayer
 10
11.9890400234952281
 20
333.1486816586997293
 30
0.0
 11
12.2777117748979805
 21
332.0713440157547325
 31
0.0
  0
LINE
  5
22A
100
AcDbEntity
100
AcDbLine
  8
planet
 62
7
420
0
370
-1
  6
ByLayer
 10
12.2777117748979805
 20
332.0713440157547325
 30
0.0
 11
10.6847483322177403
 21
330.7650550204959359
 31
0.0
  0
LINE
  5
22B
100
AcDbEntity
100
AcDbLine
  8
planet
 62
7
420
0
370
-1
  6
ByLayer
 10
10.6847483322177403
 20
330.7650550204959359
 30
0.0
 11
10.0589436204878417
 21
330.5304622891046051
 31
0.0
  0
LINE
  5
22C
100
AcDbEntity
100
AcDbLine
  8
planet
 62
7
420
0
370
-1
  6
ByLayer
 10
10.0589436204878417
 20
330.5304622891046051
 30
0.0
 11
8.9199717110657311
 21
330.3976605578494627
 31
0.0
  0
LINE
  5
22D
100
AcDbEntity
100
AcDbLine
  8
planet
 62
7
420
0
370
-1
  6
ByLayer
 10
8.9199717110657311
 20
330.3976605578494627
 30
0.0
 11
8.9199707926512275
 21
328.3182304576938577
 31
0.0
  0
LINE
  5
22E
100
AcDbEntity
100
AcDbLine
  8
planet
 62
7
420
0
370
-1
  6
ByLayer
 10
8.9199707926512275
 20
328.3182304576938577
 30
0.0
 11
10.0587506027574776
 21
328.1856829126529078
 31
0.0
  0
LINE
  5
22F
100
AcDbEntity
100
AcDbLine
  8
planet
 62
7
420
0
370
-1
  6
ByLayer
 10
10.0587506027574776
 20
328.1856829126529078
 30
0.0
 11
10.6849162843689331
 21
327.9511344721377668
 31
0.0
  0
LINE
  5
230
100
AcDbEntity
100
AcDbLine
  8
planet
 62
7
420
0
370
-1
  6
ByLayer
 10
10.6849162843689331
 20
327.9511344721377668
 30
0.0
 11
12.2776081941372794
 21
326.6446956479277333
 31
0.0
  0
LINE
  5
231
100
AcDbEntity
100
AcDbLine
  8
planet
 62
7
420
0
370
-1
  6
ByLayer
 10
12.2776081941372794
 20
326.6446956479277333
 30
0.0
 11
11.9888977477582728
 21
325.5675024166002913
 31
0.0
  0
LINE
  5
232
100
AcDbEntity
100
AcDbLine
  8
planet
 62
7
420
0
370
-1
  6
ByLayer
 10
11.9888977477582728
 20
325.5675024166002913
 30
0.0
 11
9.956516251524075
 21
325.2327116600659451
 31
0.0
  0
LINE
  5
233
100
AcDbEntity
100
AcDbLine
  8
planet
 62
7
420
0
370
-1
  6
ByLayer
 10
9.956516251524075
 20
325.2327116600659451
 30
0.0
 11
9.2969226119558002
 21
325.3423076571602337
 31
0.0
  0
LINE
  5
234
100
AcDbEntity
100
AcDbLine
  8
planet
 62
7
420
0
370
-1
  6
ByLayer
 10
9.2969226119558002
 20
325.3423076571602337
 30
0.0
 11
8.24452778640606
 21
325.796900716202174
 31
0.0
  0
LINE
  5
235
100
AcDbEntity
100
AcDbLine
  8
planet
 62
7
420
0
370
-1
  6
ByLayer
 10
8.24452778640606
 20
325.796900716202174
 30
0.0
 11
7.2048135316985427
 21
323.9960628016951887
 31
0.0
  0
LINE
  5
236
100
AcDbEntity
100
AcDbLine
  8
planet
 62
7
420
0
370
-1
  6
ByLayer
 10
7.2048135316985427
 20
323.9960628016951887
 30
0.0
 11
8.1247000819878359
 21
323.3119586774787422
 31
0.0
  0
LINE
  5
237
100
AcDbEntity
100
AcDbLine
  8
planet
 62
7
420
0
370
-1
  6
ByLayer
 10
8.1247000819878359
 20
323.3119586774787422
 30
0.0
 11
8.5494098194086767
 21
322.795531827985144
 31
0.0
  0
LINE
  5
238
100
AcDbEntity
100
AcDbLine
  8
planet
 62
7
420
0
370
-1
  6
ByLayer
 10
8.5494098194086767
 20
322.795531827985144
 30
0.0
 11
9.2756632674148314
 21
320.8680424437977194
 31
0.0
  0
LINE
  5
239
100
AcDbEntity
100
AcDbLine
  8
planet
 62
7
420
0
370
-1
  6
ByLayer
 10
9.2756632674148314
 20
320.8680424437977194
 30
0.0
 11
8.4871417874901436
 21
320.0794152472317933
 31
0.0
  0
LINE
  5
23A
100
AcDbEntity
100
AcDbLine
  8
planet
 62
7
420
0
370
-1
  6
ByLayer
 10
8.4871417874901436
 20
320.0794152472317933
 30
0.0
 11
6.5593866223497681
 21
320.8055074893881056
 31
0.0
  0
LINE
  5
23B
100
AcDbEntity
100
AcDbLine
  8
planet
 62
7
420
0
370
-1
  6
ByLayer
 10
6.5593866223497681
 20
320.8055074893881056
 30
0.0
 11
6.0431788736399445
 21
321.2305086563841314
 31
0.0
  0
LINE
  5
23C
100
AcDbEntity
100
AcDbLine
  8
planet
 62
7
420
0
370
-1
  6
ByLayer
 10
6.0431788736399445
 20
321.2305086563841314
 30
0.0
 11
5.358999427372086
 21
322.1504471287324805
 31
0.0
  0
LINE
  5
23D
100
AcDbEntity
100
AcDbLine
  8
planet
 62
7
420
0
370
-1
  6
ByLayer
 10
5.358999427372086
 20
322.1504471287324805
 30
0.0
 11
3.5581605944505541
 21
321.1107312832843945
 31
0.0
  0
LINE
  5
23E
100
AcDbEntity
100
AcDbLine
  8
planet
 62
7
420
0
370
-1
  6
ByLayer
 10
3.5581605944505541
 20
321.1107312832843945
 30
0.0
 11
4.0126368762281253
 21
320.0579518099003735
 31
0.0
  0
LINE
  5
23F
100
AcDbEntity
100
AcDbLine
  8
planet
 62
7
420
0
370
-1
  6
ByLayer
 10
4.0126368762281253
 20
320.0579518099003735
 30
0.0
 11
4.1223759671649889
 21
319.3986926660386416
 31
0.0
  0
LINE
  5
240
100
AcDbEntity
100
AcDbLine
  8
planet
 62
7
420
0
370
-1
  6
ByLayer
 10
4.1223759671649889
 20
319.3986926660386416
 30
0.0
 11
3.7875782339268933
 21
317.3660013597482248
 31
0.0
  0
LINE
  5
241
100
AcDbEntity
100
AcDbLine
  8
planet
 62
7
420
0
370
-1
  6
ByLayer
 10
3.7875782339268933
 20
317.3660013597482248
 30
0.0
 11
2.7102405909819893
 21
317.0773296083455079
 31
0.0
  0
LINE
  5
242
100
AcDbEntity
100
AcDbLine
  8
planet
 62
7
420
0
370
-1
  6
ByLayer
 10
2.7102405909819893
 20
317.0773296083455079
 30
0.0
 11
1.4039515957231352
 21
318.6702930510257374
 31
0.0
  0
LINE
  5
243
100
AcDbEntity
100
AcDbLine
  8
planet
 62
7
420
0
370
-1
  6
ByLayer
 10
1.4039515957231352
 20
318.6702930510257374
 30
0.0
 11
1.1693588643318014
 21
319.2960977627556076
 31
0.0
  0
LINE
  5
244
100
AcDbEntity
100
AcDbLine
  8
planet
 62
7
420
0
370
-1
  6
ByLayer
 10
1.1693588643318014
 20
319.2960977627556076
 30
0.0
 11
1.0365571330766687
 21
320.4350696721777467
 31
0.0
  0
LINE
  5
245
100
AcDbEntity
100
AcDbLine
  8
planet
 62
7
420
0
370
-1
  6
ByLayer
 10
1.0365571330766687
 20
320.4350696721777467
 30
0.0
 11
-1.0428729670789267
 21
320.4350705905922041
 31
0.0
  0
LINE
  5
246
100
AcDbEntity
100
AcDbLine
  8
planet
 62
7
420
0
370
-1
  6
ByLayer
 10
-1.0428729670789267
 20
320.4350705905922041
 30
0.0
 11
-1.1754205121198777
 21
319.2962907804859469
 31
0.0
  0
LINE
  5
247
100
AcDbEntity
100
AcDbLine
  8
planet
 62
7
420
0
370
-1
  6
ByLayer
 10
-1.1754205121198777
 20
319.2962907804859469
 30
0.0
 11
-1.4099689526349717
 21
318.6701250988745073
 31
0.0
  0
LINE
  5
248
100
AcDbEntity
100
AcDbLine
  8
planet
 62
7
420
0
370
-1
  6
ByLayer
 10
-1.4099689526349717
 20
318.6701250988745073
 30
0.0
 11
-2.7164077768450574
 21
317.0774331891061593
 31
0.0
  0
LINE
  5
249
100
AcDbEntity
100
AcDbLine
  8
planet
 62
7
420
0
370
-1
  6
ByLayer
 10
-2.7164077768450574
 20
317.0774331891061593
 30
0.0
 11
-3.7936010081724958
 21
317.366143635485173
 31
0.0
  0
LINE
  5
24A
100
AcDbEntity
100
AcDbLine
  8
planet
 62
7
420
0
370
-1
  6
ByLayer
 10
-3.7936010081724958
 20
317.366143635485173
 30
0.0
 11
-4.1283917647068282
 21
319.3985251317193956
 31
0.0
  0
LINE
  5
24B
100
AcDbEntity
100
AcDbLine
  8
planet
 62
7
420
0
370
-1
  6
ByLayer
 10
-4.1283917647068282
 20
319.3985251317193956
 30
0.0
 11
-4.018795767612569
 21
320.0581187712876385
 31
0.0
  0
LINE
  5
24C
100
AcDbEntity
100
AcDbLine
  8
planet
 62
7
420
0
370
-1
  6
ByLayer
 10
-4.018795767612569
 20
320.0581187712876385
 30
0.0
 11
-3.5642027085706083
 21
321.1105135968373929
 31
0.0
  0
LINE
  5
24D
100
AcDbEntity
100
AcDbLine
  8
planet
 62
7
420
0
370
-1
  6
ByLayer
 10
-3.5642027085706083
 20
321.1105135968373929
 30
0.0
 11
-5.36504062307763
 21
322.150227851544912
 31
0.0
  0
LINE
  5
24E
100
AcDbEntity
100
AcDbLine
  8
planet
 62
7
420
0
370
-1
  6
ByLayer
 10
-5.36504062307763
 20
322.150227851544912
 30
0.0
 11
-6.0491447472940223
 21
321.2303413012556348
 31
0.0
  0
LINE
  5
24F
100
AcDbEntity
100
AcDbLine
  8
planet
 62
7
420
0
370
-1
  6
ByLayer
 10
-6.0491447472940223
 20
321.2303413012556348
 30
0.0
 11
-6.5655715967876427
 21
320.8056315638347655
 31
0.0
  0
LINE
  5
250
100
AcDbEntity
100
AcDbLine
  8
planet
 62
7
420
0
370
-1
  6
ByLayer
 10
-6.5655715967876427
 20
320.8056315638347655
 30
0.0
 11
-8.4930609809750521
 21
320.0793781158286038
 31
0.0
  0
LINE
  5
251
100
AcDbEntity
100
AcDbLine
  8
planet
 62
7
420
0
370
-1
  6
ByLayer
 10
-8.4930609809750521
 20
320.0793781158286038
 30
0.0
 11
-9.2816881775409499
 21
320.8678995957533289
 31
0.0
  0
LINE
  5
252
100
AcDbEntity
100
AcDbLine
  8
planet
 62
7
420
0
370
-1
  6
ByLayer
 10
-9.2816881775409499
 20
320.8678995957533289
 30
0.0
 11
-8.5555959353846323
 21
322.795654760893683
 31
0.0
  0
LINE
  5
253
100
AcDbEntity
100
AcDbLine
  8
planet
 62
7
420
0
370
-1
  6
ByLayer
 10
-8.5555959353846323
 20
322.795654760893683
 30
0.0
 11
-8.1305947683886597
 21
323.3118625096034862
 31
0.0
  0
LINE
  5
254
100
AcDbEntity
100
AcDbLine
  8
planet
 62
7
420
0
370
-1
  6
ByLayer
 10
-8.1305947683886597
 20
323.3118625096034862
 30
0.0
 11
-7.2106562960403151
 21
323.9960419558713625
 31
0.0
  0
LINE
  5
255
100
AcDbEntity
100
AcDbLine
  8
planet
 62
7
420
0
370
-1
  6
ByLayer
 10
-7.2106562960403151
 20
323.9960419558713625
 30
0.0
 11
-8.2503721414884126
 21
325.7968807887929188
 31
0.0
  0
LINE
  5
256
100
AcDbEntity
100
AcDbLine
  8
planet
 62
7
420
0
370
-1
  6
ByLayer
 10
-8.2503721414884126
 20
325.7968807887929188
 30
0.0
 11
-9.3031516148723821
 21
325.342404507015317
 31
0.0
  0
LINE
  5
257
100
AcDbEntity
100
AcDbLine
  8
planet
 62
7
420
0
370
-1
  6
ByLayer
 10
-9.3031516148723821
 20
325.342404507015317
 30
0.0
 11
-9.962410758734153
 21
325.2326654160784756
 31
0.0
  0
LINE
  5
258
100
AcDbEntity
100
AcDbLine
  8
planet
 62
7
420
0
370
-1
  6
ByLayer
 10
-9.962410758734153
 20
325.2326654160784756
 30
0.0
 11
-11.9951020650245539
 21
325.5674631493164952
 31
0.0
  0
LINE
  5
259
100
AcDbEntity
100
AcDbLine
  8
planet
 62
7
420
0
370
-1
  6
ByLayer
 10
-11.9951020650245539
 20
325.5674631493164952
 30
0.0
 11
-12.2837738164273009
 21
326.6448007922614352
 31
0.0
  0
LINE
  5
25A
100
AcDbEntity
100
AcDbLine
  8
planet
 62
7
420
0
370
-1
  6
ByLayer
 10
-12.2837738164273009
 20
326.6448007922614352
 30
0.0
 11
-10.6908103737470714
 21
327.9510897875202886
 31
0.0
  0
LINE
  5
25B
100
AcDbEntity
100
AcDbLine
  8
planet
 62
7
420
0
370
-1
  6
ByLayer
 10
-10.6908103737470714
 20
327.9510897875202886
 30
0.0
 11
-10.0650056620171711
 21
328.1856825189116194
 31
0.0
  0
LINE
  5
25C
100
AcDbEntity
100
AcDbLine
  8
planet
 62
7
420
0
370
-1
  6
ByLayer
 10
-10.0650056620171711
 20
328.1856825189116194
 30
0.0
 11
-8.9260337525950604
 21
328.3184842501667617
 31
0.0
  0
LINE
  5
25D
100
AcDbEntity
100
AcDbLine
  8
planet
 62
7
420
0
370
-1
  6
ByLayer
 10
-8.9260337525950604
 20
328.3184842501667617
 30
0.0
 11
-8.9260328341805604
 21
330.3979143503223668
 31
0.0
  0
LINE
  5
25E
100
AcDbEntity
100
AcDbLine
  8
planet
 62
7
420
0
370
-1
  6
ByLayer
 10
-8.9260328341805604
 20
330.3979143503223668
 30
0.0
 11
-10.0648126442868087
 21
330.5304618953633167
 31
0.0
  0
LINE
  5
25F
100
AcDbEntity
100
AcDbLine
  8
planet
 62
7
420
0
370
-1
  6
ByLayer
 10
-10.0648126442868087
 20
330.5304618953633167
 30
0.0
 11
-10.6909783258982642
 21
330.7650103358784577
 31
0.0
  0
LINE
  5
260
100
AcDbEntity
100
AcDbLine
  8
planet
 62
7
420
0
370
-1
  6
ByLayer
 10
-10.6909783258982642
 20
330.7650103358784577
 30
0.0
 11
-12.2836702356666105
 21
332.0714491600884912
 31
0.0
  0
LINE
  5
261
100
AcDbEntity
100
AcDbLine
  8
planet
 62
7
420
0
370
-1
  6
ByLayer
 10
-12.2836702356666105
 20
332.0714491600884912
 30
0.0
 11
-11.9949597892876056
 21
333.1486423914159332
 31
0.0
  0
LINE
  5
262
100
AcDbEntity
100
AcDbLine
  8
planet
 62
7
420
0
370
-1
  6
ByLayer
 10
-11.9949597892876056
 20
333.1486423914159332
 30
0.0
 11
-9.9625782930534097
 21
333.4834331479502794
 31
0.0
  0
LINE
  5
263
100
AcDbEntity
100
AcDbLine
  8
planet
 62
7
420
0
370
-1
  6
ByLayer
 10
-9.9625782930534097
 20
333.4834331479502794
 30
0.0
 11
-9.302984653485133
 21
333.3738371508559908
 31
0.0
  0
LINE
  5
264
100
AcDbEntity
100
AcDbLine
  8
planet
 62
7
420
0
370
-1
  6
ByLayer
 10
-9.302984653485133
 20
333.3738371508559908
 30
0.0
 11
-8.2505898279353929
 21
332.9192440918140505
 31
0.0
  0
LINE
  5
265
100
AcDbEntity
100
AcDbLine
  8
planet
 62
7
420
0
370
-1
  6
ByLayer
 10
-8.2505898279353929
 20
332.9192440918140505
 30
0.0
 11
-7.2108755732278764
 21
334.7200820063210358
 31
0.0
  0
LINE
  5
266
100
AcDbEntity
100
AcDbLine
  8
planet
 62
7
420
0
370
-1
  6
ByLayer
 10
-7.2108755732278764
 20
334.7200820063210358
 30
0.0
 11
-8.1307621235171688
 21
335.4041861305374823
 31
0.0
  0
LINE
  5
267
100
AcDbEntity
100
AcDbLine
  8
planet
 62
7
420
0
370
-1
  6
ByLayer
 10
-8.1307621235171688
 20
335.4041861305374823
 30
0.0
 11
-8.5554718609380114
 21
335.9206129800310805
 31
0.0
  0
LINE
  5
268
100
AcDbEntity
100
AcDbLine
  8
planet
 62
7
420
0
370
-1
  6
ByLayer
 10
-8.5554718609380114
 20
335.9206129800310805
 30
0.0
 11
-9.2817253089441696
 21
337.848102364218505
 31
0.0
  0
LINE
  5
269
100
AcDbEntity
100
AcDbLine
  8
planet
 62
7
420
0
370
-1
  6
ByLayer
 10
-9.2817253089441696
 20
337.848102364218505
 30
0.0
 11
-8.4932038290194836
 21
338.6367295607844312
 31
0.0
  0
LINE
  5
26A
100
AcDbEntity
100
AcDbLine
  8
planet
 62
7
420
0
370
-1
  6
ByLayer
 10
-8.4932038290194836
 20
338.6367295607844312
 30
0.0
 11
-6.5654486638790974
 21
337.9106373186281189
 31
0.0
  0
LINE
  5
26B
100
AcDbEntity
100
AcDbLine
  8
planet
 62
7
420
0
370
-1
  6
ByLayer
 10
-6.5654486638790974
 20
337.9106373186281189
 30
0.0
 11
-6.0492409151692721
 21
337.4856361516321499
 31
0.0
  0
LINE
  5
26C
100
AcDbEntity
100
AcDbLine
  8
planet
 62
7
420
0
370
-1
  6
ByLayer
 10
-6.0492409151692721
 20
337.4856361516321499
 30
0.0
 11
-5.3650614689014198
 21
336.565697679283744
 31
0.0
  0
LINE
  5
26D
100
AcDbEntity
100
AcDbLine
  8
planet
 62
7
420
0
370
-1
  6
ByLayer
 10
-5.3650614689014198
 20
336.565697679283744
 30
0.0
 11
-3.5642226359798865
 21
337.60541352473183
 31
0.0
  0
LINE
  5
26E
100
AcDbEntity
100
AcDbLine
  8
planet
 62
7
420
0
370
-1
  6
ByLayer
 10
-3.5642226359798865
 20
337.60541352473183
 30
0.0
 11
-4.0186989177574581
 21
338.658192998115851
 31
0.0
  0
LINE
  5
26F
100
AcDbEntity
100
AcDbLine
  8
planet
 62
7
420
0
370
-1
  6
ByLayer
 10
-4.0186989177574581
 20
338.658192998115851
 30
0.0
 11
-4.12843800869432
 21
339.3174521419775829
 31
0.0
  0
LINE
  5
270
100
AcDbEntity
100
AcDbLine
  8
planet
 62
7
420
0
370
-1
  6
ByLayer
 10
-4.12843800869432
 20
339.3174521419775829
 30
0.0
 11
-3.7936402754562208
 21
341.3501434482679997
 31
0.0
  0
LINE
  5
271
100
AcDbEntity
100
AcDbLine
  8
planet
 62
7
420
0
370
-1
  6
ByLayer
 10
-3.7936402754562208
 20
341.3501434482679997
 30
0.0
 11
-2.7163026325113204
 21
341.6388151996707165
 31
0.0
  0
LINE
  5
272
100
AcDbEntity
100
AcDbLine
  8
planet
 62
7
420
0
370
-1
  6
ByLayer
 10
-2.7163026325113204
 20
341.6388151996707165
 30
0.0
 11
-1.4100136372524696
 21
340.045851756990487
 31
0.0
  0
LINE
  5
273
100
AcDbEntity
100
AcDbLine
  8
planet
 62
7
420
0
370
-1
  6
ByLayer
 10
-1.4100136372524696
 20
340.045851756990487
 30
0.0
 11
-1.1754209058611336
 21
339.4200470452606169
 31
0.0
  0
LINE
  5
274
100
AcDbEntity
100
AcDbLine
  8
planet
 62
7
420
0
370
-1
  6
ByLayer
 10
-1.1754209058611336
 20
339.4200470452606169
 30
0.0
 11
-1.042619174606003
 21
338.2810751358384778
 31
0.0
  0
LINE
  5
275
100
AcDbEntity
100
AcDbLine
  8
planet
 62
7
420
0
370
-1
  6
ByLayer
 10
-1.042619174606003
 20
338.2810751358384778
 30
0.0
 11
1.0368109255495968
 21
338.2810742174240204
 31
0.0
  0
LINE
  5
276
100
AcDbEntity
100
AcDbLine
  8
planet
 62
7
420
0
370
-1
  6
ByLayer
 10
1.0368109255495968
 20
338.2810742174240204
 30
0.0
 11
1.1693584705905482
 21
339.4198540275302776
 31
0.0
  0
LINE
  5
277
100
AcDbEntity
100
AcDbLine
  8
planet
 62
7
420
0
370
-1
  6
ByLayer
 10
1.1693584705905482
 20
339.4198540275302776
 30
0.0
 11
1.4039069111056408
 21
340.0460197091417172
 31
0.0
  0
LINE
  5
278
100
AcDbEntity
100
AcDbLine
  8
planet
 62
7
420
0
370
-1
  6
ByLayer
 10
1.4039069111056408
 20
340.0460197091417172
 30
0.0
 11
2.710345735315725
 21
341.6387116189100652
 31
0.0
  0
LINE
  5
279
100
AcDbEntity
100
AcDbLine
  8
planet
 62
7
420
0
370
-1
  6
ByLayer
 10
2.710345735315725
 20
341.6387116189100652
 30
0.0
 11
3.7875389666431607
 21
341.3500011725310515
 31
0.0
  0
LINE
  5
27A
100
AcDbEntity
100
AcDbLine
  8
planet
 62
7
420
0
370
-1
  6
ByLayer
 10
3.7875389666431607
 20
341.3500011725310515
 30
0.0
 11
4.1223297231774945
 21
339.3176196762968289
 31
0.0
  0
LINE
  5
27B
100
AcDbEntity
100
AcDbLine
  8
planet
 62
7
420
0
370
-1
  6
ByLayer
 10
4.1223297231774945
 20
339.3176196762968289
 30
0.0
 11
4.0127337260832325
 21
338.658026036728586
 31
0.0
  0
LINE
  5
27C
100
AcDbEntity
100
AcDbLine
  8
planet
 62
7
420
0
370
-1
  6
ByLayer
 10
4.0127337260832325
 20
338.658026036728586
 30
0.0
 11
3.5581406670412772
 21
337.6056312111788316
 31
0.0
  0
LINE
  5
27D
100
AcDbEntity
100
AcDbLine
  8
planet
 62
7
420
0
370
-1
  6
ByLayer
 10
3.5581406670412772
 20
337.6056312111788316
 30
0.0
 11
5.3589785815482953
 21
336.5659169564713125
 31
0.0
  0
LINE
  5
27E
100
AcDbEntity
100
AcDbLine
  8
planet
 62
7
420
0
370
-1
  6
ByLayer
 10
5.3589785815482953
 20
336.5659169564713125
 30
0.0
 11
6.043082705764685
 21
337.4858035067605897
 31
0.0
  0
LINE
  5
27F
100
AcDbEntity
100
AcDbLine
  8
planet
 62
7
420
0
370
-1
  6
ByLayer
 10
6.043082705764685
 20
337.4858035067605897
 30
0.0
 11
6.5595095552583071
 21
337.9105132441815158
 31
0.0
  0
LINE
  5
280
100
AcDbEntity
100
AcDbLine
  8
planet
 62
7
420
0
370
-1
  6
ByLayer
 10
6.5595095552583071
 20
337.9105132441815158
 30
0.0
 11
8.4869989394457246
 21
338.6367666921876207
 31
0.0
  0
LINE
  5
281
100
AcDbEntity
100
AcDbLine
  8
planet
 62
7
420
0
370
-1
  6
ByLayer
 10
8.4869989394457246
 20
338.6367666921876207
 30
0.0
 11
9.2756261360116188
 21
337.8482452122628956
 31
0.0
  0
LINE
  5
282
100
AcDbEntity
100
AcDbLine
  8
planet
 62
7
420
0
370
-1
  6
ByLayer
 10
9.2756261360116188
 20
337.8482452122628956
 30
0.0
 11
8.5495338938553012
 21
335.9204900471225415
 31
0.0
  0
LINE
  5
283
100
AcDbEntity
100
AcDbLine
  8
planet
 62
7
420
0
370
-1
  6
ByLayer
 10
8.5495338938553012
 20
335.9204900471225415
 30
0.0
 11
8.1245327268593304
 21
335.4042822984127383
 31
0.0
  0
LINE
  5
284
100
AcDbEntity
100
AcDbLine
  8
planet
 62
7
420
0
370
-1
  6
ByLayer
 10
8.1245327268593304
 20
335.4042822984127383
 30
0.0
 11
7.204594254510984
 21
334.720102852144862
 31
0.0
  0
LINE
  5
285
100
AcDbEntity
100
AcDbLine
  8
planet
 62
7
420
0
370
-1
  6
ByLayer
 10
7.204594254510984
 20
334.720102852144862
 30
0.0
 11
8.2443100999590797
 21
332.9192640192233057
 31
0.0
  0
LINE
  5
286
100
AcDbEntity
100
AcDbLine
  8
planet
 62
7
420
0
370
-1
  6
ByLayer
 10
-35.2308553562224276
 20
286.156109732062589
 30
0.0
 11
-36.1508330983513133
 21
286.8406053597071264
 31
0.0
  0
LINE
  5
287
100
AcDbEntity
100
AcDbLine
  8
planet
 62
7
420
0
370
-1
  6
ByLayer
 10
-36.1508330983513133
 20
286.8406053597071264
 30
0.0
 11
-36.5754995108217074
 21
287.356670980500212
 31
0.0
  0
LINE
  5
288
100
AcDbEntity
100
AcDbLine
  8
planet
 62
7
420
0
370
-1
  6
ByLayer
 10
-36.5754995108217074
 20
287.356670980500212
 30
0.0
 11
-37.3019018218533418
 21
289.2844321564184611
 31
0.0
  0
LINE
  5
289
100
AcDbEntity
100
AcDbLine
  8
planet
 62
7
420
0
370
-1
  6
ByLayer
 10
-37.3019018218533418
 20
289.2844321564184611
 30
0.0
 11
-36.5132359303111045
 21
290.0730980479606842
 31
0.0
  0
LINE
  5
28A
100
AcDbEntity
100
AcDbLine
  8
planet
 62
7
420
0
370
-1
  6
ByLayer
 10
-36.5132359303111045
 20
290.0730980479606842
 30
0.0
 11
-34.5854747543928198
 21
289.346695736929064
 31
0.0
  0
LINE
  5
28B
100
AcDbEntity
100
AcDbLine
  8
planet
 62
7
420
0
370
-1
  6
ByLayer
 10
-34.5854747543928198
 20
289.346695736929064
 30
0.0
 11
-34.0694091335997911
 21
288.9220293244586628
 31
0.0
  0
LINE
  5
28C
100
AcDbEntity
100
AcDbLine
  8
planet
 62
7
420
0
370
-1
  6
ByLayer
 10
-34.0694091335997911
 20
288.9220293244586628
 30
0.0
 11
-33.3849135059552324
 21
288.002051582329841
 31
0.0
  0
LINE
  5
28D
100
AcDbEntity
100
AcDbLine
  8
planet
 62
7
420
0
370
-1
  6
ByLayer
 10
-33.3849135059552324
 20
288.002051582329841
 30
0.0
 11
-31.5840737546192045
 21
289.0417658370373033
 31
0.0
  0
LINE
  5
28E
100
AcDbEntity
100
AcDbLine
  8
planet
 62
7
420
0
370
-1
  6
ByLayer
 10
-31.5840737546192045
 20
289.0417658370373033
 30
0.0
 11
-32.0386741184576067
 21
290.0942518544266591
 31
0.0
  0
LINE
  5
28F
100
AcDbEntity
100
AcDbLine
  8
planet
 62
7
420
0
370
-1
  6
ByLayer
 10
-32.0386741184576067
 20
290.0942518544266591
 30
0.0
 11
-32.1486320513592005
 21
290.7538014619377122
 31
0.0
  0
LINE
  5
290
100
AcDbEntity
100
AcDbLine
  8
planet
 62
7
420
0
370
-1
  6
ByLayer
 10
-32.1486320513592005
 20
290.7538014619377122
 30
0.0
 11
-31.8135687959872122
 21
292.7863325283041149
 31
0.0
  0
LINE
  5
291
100
AcDbEntity
100
AcDbLine
  8
planet
 62
7
420
0
370
-1
  6
ByLayer
 10
-31.8135687959872122
 20
292.7863325283041149
 30
0.0
 11
-30.7363368696834947
 21
293.0748985630656307
 31
0.0
  0
LINE
  5
292
100
AcDbEntity
100
AcDbLine
  8
planet
 62
7
420
0
370
-1
  6
ByLayer
 10
-30.7363368696834947
 20
293.0748985630656307
 30
0.0
 11
-29.4302088214554409
 21
291.4821999354125523
 31
0.0
  0
LINE
  5
293
100
AcDbEntity
100
AcDbLine
  8
planet
 62
7
420
0
370
-1
  6
ByLayer
 10
-29.4302088214554409
 20
291.4821999354125523
 30
0.0
 11
-29.195324919308046
 21
290.8561770888246656
 31
0.0
  0
LINE
  5
294
100
AcDbEntity
100
AcDbLine
  8
planet
 62
7
420
0
370
-1
  6
ByLayer
 10
-29.195324919308046
 20
290.8561770888246656
 30
0.0
 11
-29.0628166440475724
 21
289.7174799055663357
 31
0.0
  0
LINE
  5
295
100
AcDbEntity
100
AcDbLine
  8
planet
 62
7
420
0
370
-1
  6
ByLayer
 10
-29.0628166440475724
 20
289.7174799055663357
 30
0.0
 11
-26.9833881346325768
 21
289.7174799055663357
 31
0.0
  0
LINE
  5
296
100
AcDbEntity
100
AcDbLine
  8
planet
 62
7
420
0
370
-1
  6
ByLayer
 10
-26.9833881346325768
 20
289.7174799055663357
 30
0.0
 11
-26.8508798593720783
 21
290.8561770888246656
 31
0.0
  0
LINE
  5
297
100
AcDbEntity
100
AcDbLine
  8
planet
 62
7
420
0
370
-1
  6
ByLayer
 10
-26.8508798593720783
 20
290.8561770888246656
 30
0.0
 11
-26.6159959572246763
 21
291.4821999354125523
 31
0.0
  0
LINE
  5
298
100
AcDbEntity
100
AcDbLine
  8
planet
 62
7
420
0
370
-1
  6
ByLayer
 10
-26.6159959572246763
 20
291.4821999354125523
 30
0.0
 11
-25.309867908996619
 21
293.0748985630656307
 31
0.0
  0
LINE
  5
299
100
AcDbEntity
100
AcDbLine
  8
planet
 62
7
420
0
370
-1
  6
ByLayer
 10
-25.309867908996619
 20
293.0748985630656307
 30
0.0
 11
-24.2326359826928837
 21
292.7863325283041149
 31
0.0
  0
LINE
  5
29A
100
AcDbEntity
100
AcDbLine
  8
planet
 62
7
420
0
370
-1
  6
ByLayer
 10
-24.2326359826928837
 20
292.7863325283041149
 30
0.0
 11
-23.8975727273208669
 21
290.7538014619377122
 31
0.0
  0
LINE
  5
29B
100
AcDbEntity
100
AcDbLine
  8
planet
 62
7
420
0
370
-1
  6
ByLayer
 10
-23.8975727273208669
 20
290.7538014619377122
 30
0.0
 11
-24.0075306602225389
 21
290.0942518544266022
 31
0.0
  0
LINE
  5
29C
100
AcDbEntity
100
AcDbLine
  8
planet
 62
7
420
0
370
-1
  6
ByLayer
 10
-24.0075306602225389
 20
290.0942518544266022
 30
0.0
 11
-24.4621310240609304
 21
289.0417658370373033
 31
0.0
  0
LINE
  5
29D
100
AcDbEntity
100
AcDbLine
  8
planet
 62
7
420
0
370
-1
  6
ByLayer
 10
-24.4621310240609304
 20
289.0417658370373033
 30
0.0
 11
-22.6612912727249096
 21
288.0020515823297842
 31
0.0
  0
LINE
  5
29E
100
AcDbEntity
100
AcDbLine
  8
planet
 62
7
420
0
370
-1
  6
ByLayer
 10
-22.6612912727249096
 20
288.0020515823297842
 30
0.0
 11
-21.9767956450803297
 21
288.9220293244586628
 31
0.0
  0
LINE
  5
29F
100
AcDbEntity
100
AcDbLine
  8
planet
 62
7
420
0
370
-1
  6
ByLayer
 10
-21.9767956450803297
 20
288.9220293244586628
 30
0.0
 11
-21.4607300242873222
 21
289.346695736929064
 31
0.0
  0
LINE
  5
2A0
100
AcDbEntity
100
AcDbLine
  8
planet
 62
7
420
0
370
-1
  6
ByLayer
 10
-21.4607300242873222
 20
289.346695736929064
 30
0.0
 11
-19.5329688483689985
 21
290.0730980479606842
 31
0.0
  0
LINE
  5
2A1
100
AcDbEntity
100
AcDbLine
  8
planet
 62
7
420
0
370
-1
  6
ByLayer
 10
-19.5329688483689985
 20
290.0730980479606842
 30
0.0
 11
-18.7443029568268429
 21
289.2844321564184611
 31
0.0
  0
LINE
  5
2A2
100
AcDbEntity
100
AcDbLine
  8
planet
 62
7
420
0
370
-1
  6
ByLayer
 10
-18.7443029568268429
 20
289.2844321564184611
 30
0.0
 11
-19.4707052678584134
 21
287.3566709805001551
 31
0.0
  0
LINE
  5
2A3
100
AcDbEntity
100
AcDbLine
  8
planet
 62
7
420
0
370
-1
  6
ByLayer
 10
-19.4707052678584134
 20
287.3566709805001551
 30
0.0
 11
-19.895371680328811
 21
286.8406053597071264
 31
0.0
  0
LINE
  5
2A4
100
AcDbEntity
100
AcDbLine
  8
planet
 62
7
420
0
370
-1
  6
ByLayer
 10
-19.895371680328811
 20
286.8406053597071264
 30
0.0
 11
-20.8153494224576825
 21
286.156109732062589
 31
0.0
  0
LINE
  5
2A5
100
AcDbEntity
100
AcDbLine
  8
planet
 62
7
420
0
370
-1
  6
ByLayer
 10
-20.8153494224576825
 20
286.156109732062589
 30
0.0
 11
-19.7756351677501385
 21
284.3552699807265753
 31
0.0
  0
LINE
  5
2A6
100
AcDbEntity
100
AcDbLine
  8
planet
 62
7
420
0
370
-1
  6
ByLayer
 10
-19.7756351677501385
 20
284.3552699807265753
 30
0.0
 11
-18.7231491503608289
 21
284.8098703445649562
 31
0.0
  0
LINE
  5
2A7
100
AcDbEntity
100
AcDbLine
  8
planet
 62
7
420
0
370
-1
  6
ByLayer
 10
-18.7231491503608289
 20
284.8098703445649562
 30
0.0
 11
-18.0635995428497793
 21
284.9198282774665927
 31
0.0
  0
LINE
  5
2A8
100
AcDbEntity
100
AcDbLine
  8
planet
 62
7
420
0
370
-1
  6
ByLayer
 10
-18.0635995428497793
 20
284.9198282774665927
 30
0.0
 11
-16.0310684764833908
 21
284.5847650220945866
 31
0.0
  0
LINE
  5
2A9
100
AcDbEntity
100
AcDbLine
  8
planet
 62
7
420
0
370
-1
  6
ByLayer
 10
-16.0310684764833908
 20
284.5847650220945866
 30
0.0
 11
-15.7425024417218395
 21
283.5075330957908477
 31
0.0
  0
LINE
  5
2AA
100
AcDbEntity
100
AcDbLine
  8
planet
 62
7
420
0
370
-1
  6
ByLayer
 10
-15.7425024417218395
 20
283.5075330957908477
 30
0.0
 11
-17.3352010693749392
 21
282.2014050475627869
 31
0.0
  0
LINE
  5
2AB
100
AcDbEntity
100
AcDbLine
  8
planet
 62
7
420
0
370
-1
  6
ByLayer
 10
-17.3352010693749392
 20
282.2014050475627869
 30
0.0
 11
-17.9612239159628047
 21
281.9665211454154132
 31
0.0
  0
LINE
  5
2AC
100
AcDbEntity
100
AcDbLine
  8
planet
 62
7
420
0
370
-1
  6
ByLayer
 10
-17.9612239159628047
 20
281.9665211454154132
 30
0.0
 11
-19.099921099221163
 21
281.8340128701549361
 31
0.0
  0
LINE
  5
2AD
100
AcDbEntity
100
AcDbLine
  8
planet
 62
7
420
0
370
-1
  6
ByLayer
 10
-19.099921099221163
 20
281.8340128701549361
 30
0.0
 11
-19.0999210992211701
 21
279.7545843607398979
 31
0.0
  0
LINE
  5
2AE
100
AcDbEntity
100
AcDbLine
  8
planet
 62
7
420
0
370
-1
  6
ByLayer
 10
-19.0999210992211701
 20
279.7545843607398979
 30
0.0
 11
-17.9612239159628224
 21
279.6220760854794207
 31
0.0
  0
LINE
  5
2AF
100
AcDbEntity
100
AcDbLine
  8
planet
 62
7
420
0
370
-1
  6
ByLayer
 10
-17.9612239159628224
 20
279.6220760854794207
 30
0.0
 11
-17.3352010693749286
 21
279.3871921833320471
 31
0.0
  0
LINE
  5
2B0
100
AcDbEntity
100
AcDbLine
  8
planet
 62
7
420
0
370
-1
  6
ByLayer
 10
-17.3352010693749286
 20
279.3871921833320471
 30
0.0
 11
-15.7425024417218395
 21
278.0810641351039862
 31
0.0
  0
LINE
  5
2B1
100
AcDbEntity
100
AcDbLine
  8
planet
 62
7
420
0
370
-1
  6
ByLayer
 10
-15.7425024417218395
 20
278.0810641351039862
 30
0.0
 11
-16.0310684764834086
 21
277.0038322088002474
 31
0.0
  0
LINE
  5
2B2
100
AcDbEntity
100
AcDbLine
  8
planet
 62
7
420
0
370
-1
  6
ByLayer
 10
-16.0310684764834086
 20
277.0038322088002474
 30
0.0
 11
-18.0635995428497829
 21
276.6687689534282413
 31
0.0
  0
LINE
  5
2B3
100
AcDbEntity
100
AcDbLine
  8
planet
 62
7
420
0
370
-1
  6
ByLayer
 10
-18.0635995428497829
 20
276.6687689534282413
 30
0.0
 11
-18.7231491503608289
 21
276.7787268863298777
 31
0.0
  0
LINE
  5
2B4
100
AcDbEntity
100
AcDbLine
  8
planet
 62
7
420
0
370
-1
  6
ByLayer
 10
-18.7231491503608289
 20
276.7787268863298777
 30
0.0
 11
-19.7756351677501563
 21
277.2333272501682586
 31
0.0
  0
LINE
  5
2B5
100
AcDbEntity
100
AcDbLine
  8
planet
 62
7
420
0
370
-1
  6
ByLayer
 10
-19.7756351677501563
 20
277.2333272501682586
 30
0.0
 11
-20.8153494224576967
 21
275.4324874988322449
 31
0.0
  0
LINE
  5
2B6
100
AcDbEntity
100
AcDbLine
  8
planet
 62
7
420
0
370
-1
  6
ByLayer
 10
-20.8153494224576967
 20
275.4324874988322449
 30
0.0
 11
-19.8953716803288145
 21
274.7479918711877076
 31
0.0
  0
LINE
  5
2B7
100
AcDbEntity
100
AcDbLine
  8
planet
 62
7
420
0
370
-1
  6
ByLayer
 10
-19.8953716803288145
 20
274.7479918711877076
 30
0.0
 11
-19.4707052678584169
 21
274.2319262503946788
 31
0.0
  0
LINE
  5
2B8
100
AcDbEntity
100
AcDbLine
  8
planet
 62
7
420
0
370
-1
  6
ByLayer
 10
-19.4707052678584169
 20
274.2319262503946788
 30
0.0
 11
-18.7443029568267789
 21
272.3041650744763729
 31
0.0
  0
LINE
  5
2B9
100
AcDbEntity
100
AcDbLine
  8
planet
 62
7
420
0
370
-1
  6
ByLayer
 10
-18.7443029568267789
 20
272.3041650744763729
 30
0.0
 11
-19.5329688483689736
 21
271.5154991829342066
 31
0.0
  0
LINE
  5
2BA
100
AcDbEntity
100
AcDbLine
  8
planet
 62
7
420
0
370
-1
  6
ByLayer
 10
-19.5329688483689736
 20
271.5154991829342066
 30
0.0
 11
-21.4607300242873045
 21
272.24190149396577
 31
0.0
  0
LINE
  5
2BB
100
AcDbEntity
100
AcDbLine
  8
planet
 62
7
420
0
370
-1
  6
ByLayer
 10
-21.4607300242873045
 20
272.24190149396577
 30
0.0
 11
-21.9767956450803332
 21
272.6665679064361711
 31
0.0
  0
LINE
  5
2BC
100
AcDbEntity
100
AcDbLine
  8
planet
 62
7
420
0
370
-1
  6
ByLayer
 10
-21.9767956450803332
 20
272.6665679064361711
 30
0.0
 11
-22.6612912727248883
 21
273.5865456485650498
 31
0.0
  0
LINE
  5
2BD
100
AcDbEntity
100
AcDbLine
  8
planet
 62
7
420
0
370
-1
  6
ByLayer
 10
-22.6612912727248883
 20
273.5865456485650498
 30
0.0
 11
-24.4621310240609198
 21
272.5468313938575307
 31
0.0
  0
LINE
  5
2BE
100
AcDbEntity
100
AcDbLine
  8
planet
 62
7
420
0
370
-1
  6
ByLayer
 10
-24.4621310240609198
 20
272.5468313938575307
 30
0.0
 11
-24.007530660222514
 21
271.4943453764682317
 31
0.0
  0
LINE
  5
2BF
100
AcDbEntity
100
AcDbLine
  8
planet
 62
7
420
0
370
-1
  6
ByLayer
 10
-24.007530660222514
 20
271.4943453764682317
 30
0.0
 11
-23.8975727273209131
 21
270.8347957689571217
 31
0.0
  0
LINE
  5
2C0
100
AcDbEntity
100
AcDbLine
  8
planet
 62
7
420
0
370
-1
  6
ByLayer
 10
-23.8975727273209131
 20
270.8347957689571217
 30
0.0
 11
-24.2326359826929156
 21
268.8022647025907759
 31
0.0
  0
LINE
  5
2C1
100
AcDbEntity
100
AcDbLine
  8
planet
 62
7
420
0
370
-1
  6
ByLayer
 10
-24.2326359826929156
 20
268.8022647025907759
 30
0.0
 11
-25.3098679089966367
 21
268.5136986678292033
 31
0.0
  0
LINE
  5
2C2
100
AcDbEntity
100
AcDbLine
  8
planet
 62
7
420
0
370
-1
  6
ByLayer
 10
-25.3098679089966367
 20
268.5136986678292033
 30
0.0
 11
-26.6159959572246763
 21
270.1063972954822816
 31
0.0
  0
LINE
  5
2C3
100
AcDbEntity
100
AcDbLine
  8
planet
 62
7
420
0
370
-1
  6
ByLayer
 10
-26.6159959572246763
 20
270.1063972954822816
 30
0.0
 11
-26.8508798593720783
 21
270.7324201420701684
 31
0.0
  0
LINE
  5
2C4
100
AcDbEntity
100
AcDbLine
  8
planet
 62
7
420
0
370
-1
  6
ByLayer
 10
-26.8508798593720783
 20
270.7324201420701684
 30
0.0
 11
-26.9833881346325519
 21
271.8711173253284983
 31
0.0
  0
LINE
  5
2C5
100
AcDbEntity
100
AcDbLine
  8
planet
 62
7
420
0
370
-1
  6
ByLayer
 10
-26.9833881346325519
 20
271.8711173253284983
 30
0.0
 11
-29.0628166440475546
 21
271.8711173253285551
 31
0.0
  0
LINE
  5
2C6
100
AcDbEntity
100
AcDbLine
  8
planet
 62
7
420
0
370
-1
  6
ByLayer
 10
-29.0628166440475546
 20
271.8711173253285551
 30
0.0
 11
-29.1953249193080531
 21
270.7324201420701684
 31
0.0
  0
LINE
  5
2C7
100
AcDbEntity
100
AcDbLine
  8
planet
 62
7
420
0
370
-1
  6
ByLayer
 10
-29.1953249193080531
 20
270.7324201420701684
 30
0.0
 11
-29.4302088214554516
 21
270.1063972954822816
 31
0.0
  0
LINE
  5
2C8
100
AcDbEntity
100
AcDbLine
  8
planet
 62
7
420
0
370
-1
  6
ByLayer
 10
-29.4302088214554516
 20
270.1063972954822816
 30
0.0
 11
-30.7363368696834947
 21
268.5136986678292033
 31
0.0
  0
LINE
  5
2C9
100
AcDbEntity
100
AcDbLine
  8
planet
 62
7
420
0
370
-1
  6
ByLayer
 10
-30.7363368696834947
 20
268.5136986678292033
 30
0.0
 11
-31.8135687959872442
 21
268.802264702590719
 31
0.0
  0
LINE
  5
2CA
100
AcDbEntity
100
AcDbLine
  8
planet
 62
7
420
0
370
-1
  6
ByLayer
 10
-31.8135687959872442
 20
268.802264702590719
 30
0.0
 11
-32.1486320513592645
 21
270.8347957689571217
 31
0.0
  0
LINE
  5
2CB
100
AcDbEntity
100
AcDbLine
  8
planet
 62
7
420
0
370
-1
  6
ByLayer
 10
-32.1486320513592645
 20
270.8347957689571217
 30
0.0
 11
-32.0386741184576351
 21
271.4943453764681749
 31
0.0
  0
LINE
  5
2CC
100
AcDbEntity
100
AcDbLine
  8
planet
 62
7
420
0
370
-1
  6
ByLayer
 10
-32.0386741184576351
 20
271.4943453764681749
 30
0.0
 11
-31.5840737546191903
 21
272.5468313938575307
 31
0.0
  0
LINE
  5
2CD
100
AcDbEntity
100
AcDbLine
  8
planet
 62
7
420
0
370
-1
  6
ByLayer
 10
-31.5840737546191903
 20
272.5468313938575307
 30
0.0
 11
-33.3849135059552253
 21
273.5865456485650498
 31
0.0
  0
LINE
  5
2CE
100
AcDbEntity
100
AcDbLine
  8
planet
 62
7
420
0
370
-1
  6
ByLayer
 10
-33.3849135059552253
 20
273.5865456485650498
 30
0.0
 11
-34.0694091335997911
 21
272.6665679064361711
 31
0.0
  0
LINE
  5
2CF
100
AcDbEntity
100
AcDbLine
  8
planet
 62
7
420
0
370
-1
  6
ByLayer
 10
-34.0694091335997911
 20
272.6665679064361711
 30
0.0
 11
-34.5854747543928056
 21
272.24190149396577
 31
0.0
  0
LINE
  5
2D0
100
AcDbEntity
100
AcDbLine
  8
planet
 62
7
420
0
370
-1
  6
ByLayer
 10
-34.5854747543928056
 20
272.24190149396577
 30
0.0
 11
-36.5132359303111329
 21
271.5154991829342066
 31
0.0
  0
LINE
  5
2D1
100
AcDbEntity
100
AcDbLine
  8
planet
 62
7
420
0
370
-1
  6
ByLayer
 10
-36.5132359303111329
 20
271.5154991829342066
 30
0.0
 11
-37.301901821853285
 21
272.3041650744763729
 31
0.0
  0
LINE
  5
2D2
100
AcDbEntity
100
AcDbLine
  8
planet
 62
7
420
0
370
-1
  6
ByLayer
 10
-37.301901821853285
 20
272.3041650744763729
 30
0.0
 11
-36.5754995108217145
 21
274.2319262503947357
 31
0.0
  0
LINE
  5
2D3
100
AcDbEntity
100
AcDbLine
  8
planet
 62
7
420
0
370
-1
  6
ByLayer
 10
-36.5754995108217145
 20
274.2319262503947357
 30
0.0
 11
-36.1508330983513062
 21
274.7479918711877076
 31
0.0
  0
LINE
  5
2D4
100
AcDbEntity
100
AcDbLine
  8
planet
 62
7
420
0
370
-1
  6
ByLayer
 10
-36.1508330983513062
 20
274.7479918711877076
 30
0.0
 11
-35.2308553562224418
 21
275.4324874988323018
 31
0.0
  0
LINE
  5
2D5
100
AcDbEntity
100
AcDbLine
  8
planet
 62
7
420
0
370
-1
  6
ByLayer
 10
-35.2308553562224418
 20
275.4324874988323018
 30
0.0
 11
-36.2705696109299893
 21
277.2333272501682586
 31
0.0
  0
LINE
  5
2D6
100
AcDbEntity
100
AcDbLine
  8
planet
 62
7
420
0
370
-1
  6
ByLayer
 10
-36.2705696109299893
 20
277.2333272501682586
 30
0.0
 11
-37.3230556283192954
 21
276.7787268863298777
 31
0.0
  0
LINE
  5
2D7
100
AcDbEntity
100
AcDbLine
  8
planet
 62
7
420
0
370
-1
  6
ByLayer
 10
-37.3230556283192954
 20
276.7787268863298777
 30
0.0
 11
-37.9826052358303485
 21
276.6687689534282413
 31
0.0
  0
LINE
  5
2D8
100
AcDbEntity
100
AcDbLine
  8
planet
 62
7
420
0
370
-1
  6
ByLayer
 10
-37.9826052358303485
 20
276.6687689534282413
 30
0.0
 11
-40.0151363021967299
 21
277.0038322088003042
 31
0.0
  0
LINE
  5
2D9
100
AcDbEntity
100
AcDbLine
  8
planet
 62
7
420
0
370
-1
  6
ByLayer
 10
-40.0151363021967299
 20
277.0038322088003042
 30
0.0
 11
-40.3037023369582812
 21
278.0810641351039862
 31
0.0
  0
LINE
  5
2DA
100
AcDbEntity
100
AcDbLine
  8
planet
 62
7
420
0
370
-1
  6
ByLayer
 10
-40.3037023369582812
 20
278.0810641351039862
 30
0.0
 11
-38.7110037093051744
 21
279.3871921833320471
 31
0.0
  0
LINE
  5
2DB
100
AcDbEntity
100
AcDbLine
  8
planet
 62
7
420
0
370
-1
  6
ByLayer
 10
-38.7110037093051744
 20
279.3871921833320471
 30
0.0
 11
-38.0849808627173161
 21
279.6220760854794776
 31
0.0
  0
LINE
  5
2DC
100
AcDbEntity
100
AcDbLine
  8
planet
 62
7
420
0
370
-1
  6
ByLayer
 10
-38.0849808627173161
 20
279.6220760854794776
 30
0.0
 11
-36.9462836794589649
 21
279.7545843607399547
 31
0.0
  0
LINE
  5
2DD
100
AcDbEntity
100
AcDbLine
  8
planet
 62
7
420
0
370
-1
  6
ByLayer
 10
-36.9462836794589649
 20
279.7545843607399547
 30
0.0
 11
-36.9462836794589577
 21
281.8340128701549361
 31
0.0
  0
LINE
  5
2DE
100
AcDbEntity
100
AcDbLine
  8
planet
 62
7
420
0
370
-1
  6
ByLayer
 10
-36.9462836794589577
 20
281.8340128701549361
 30
0.0
 11
-38.0849808627172948
 21
281.9665211454154132
 31
0.0
  0
LINE
  5
2DF
100
AcDbEntity
100
AcDbLine
  8
planet
 62
7
420
0
370
-1
  6
ByLayer
 10
-38.0849808627172948
 20
281.9665211454154132
 30
0.0
 11
-38.7110037093052455
 21
282.2014050475627869
 31
0.0
  0
LINE
  5
2E0
100
AcDbEntity
100
AcDbLine
  8
planet
 62
7
420
0
370
-1
  6
ByLayer
 10
-38.7110037093052455
 20
282.2014050475627869
 30
0.0
 11
-40.3037023369582741
 21
283.5075330957908477
 31
0.0
  0
LINE
  5
2E1
100
AcDbEntity
100
AcDbLine
  8
planet
 62
7
420
0
370
-1
  6
ByLayer
 10
-40.3037023369582741
 20
283.5075330957908477
 30
0.0
 11
-40.0151363021967086
 21
284.5847650220945866
 31
0.0
  0
LINE
  5
2E2
100
AcDbEntity
100
AcDbLine
  8
planet
 62
7
420
0
370
-1
  6
ByLayer
 10
-40.0151363021967086
 20
284.5847650220945866
 30
0.0
 11
-37.9826052358303485
 21
284.9198282774665927
 31
0.0
  0
LINE
  5
2E3
100
AcDbEntity
100
AcDbLine
  8
planet
 62
7
420
0
370
-1
  6
ByLayer
 10
-37.9826052358303485
 20
284.9198282774665927
 30
0.0
 11
-37.3230556283192954
 21
284.8098703445649562
 31
0.0
  0
LINE
  5
2E4
100
AcDbEntity
100
AcDbLine
  8
planet
 62
7
420
0
370
-1
  6
ByLayer
 10
-37.3230556283192954
 20
284.8098703445649562
 30
0.0
 11
-36.270569610929968
 21
284.3552699807265753
 31
0.0
  0
LINE
  5
2E5
100
AcDbEntity
100
AcDbLine
  8
planet
 62
7
420
0
370
-1
  6
ByLayer
 10
-36.270569610929968
 20
284.3552699807265753
 30
0.0
 11
-35.2308553562224276
 21
286.156109732062589
 31
0.0
  0
LINE
  5
2E6
100
AcDbEntity
100
AcDbLine
  8
planet
 62
7
420
0
370
-1
  6
ByLayer
 10
27.0048069456406594
 20
271.8870891568580532
 30
0.0
 11
26.8720052143855739
 21
270.748117247435971
 31
0.0
  0
LINE
  5
2E7
100
AcDbEntity
100
AcDbLine
  8
planet
 62
7
420
0
370
-1
  6
ByLayer
 10
26.8720052143855739
 20
270.748117247435971
 30
0.0
 11
26.6374124829941934
 21
270.1223125357060439
 31
0.0
  0
LINE
  5
2E8
100
AcDbEntity
100
AcDbLine
  8
planet
 62
7
420
0
370
-1
  6
ByLayer
 10
26.6374124829941934
 20
270.1223125357060439
 30
0.0
 11
25.3311234877354252
 21
268.5293490930258145
 31
0.0
  0
LINE
  5
2E9
100
AcDbEntity
100
AcDbLine
  8
planet
 62
7
420
0
370
-1
  6
ByLayer
 10
25.3311234877354252
 20
268.5293490930258145
 30
0.0
 11
24.253785844790432
 21
268.8180208444285881
 31
0.0
  0
LINE
  5
2EA
100
AcDbEntity
100
AcDbLine
  8
planet
 62
7
420
0
370
-1
  6
ByLayer
 10
24.253785844790432
 20
268.8180208444285881
 30
0.0
 11
23.9189881115523839
 21
270.8507121507189481
 31
0.0
  0
LINE
  5
2EB
100
AcDbEntity
100
AcDbLine
  8
planet
 62
7
420
0
370
-1
  6
ByLayer
 10
23.9189881115523839
 20
270.8507121507189481
 30
0.0
 11
24.0287272024892715
 21
271.5099712945807369
 31
0.0
  0
LINE
  5
2EC
100
AcDbEntity
100
AcDbLine
  8
planet
 62
7
420
0
370
-1
  6
ByLayer
 10
24.0287272024892715
 20
271.5099712945807369
 30
0.0
 11
24.4832034842668094
 21
272.562750767964701
 31
0.0
  0
LINE
  5
2ED
100
AcDbEntity
100
AcDbLine
  8
planet
 62
7
420
0
370
-1
  6
ByLayer
 10
24.4832034842668094
 20
272.562750767964701
 30
0.0
 11
22.6823646513452921
 21
273.6024666134128438
 31
0.0
  0
LINE
  5
2EE
100
AcDbEntity
100
AcDbLine
  8
planet
 62
7
420
0
370
-1
  6
ByLayer
 10
22.6823646513452921
 20
273.6024666134128438
 30
0.0
 11
21.9981852050774371
 21
272.6825281410644379
 31
0.0
  0
LINE
  5
2EF
100
AcDbEntity
100
AcDbLine
  8
planet
 62
7
420
0
370
-1
  6
ByLayer
 10
21.9981852050774371
 20
272.6825281410644379
 30
0.0
 11
21.4819774563675807
 21
272.2575269740685258
 31
0.0
  0
LINE
  5
2F0
100
AcDbEntity
100
AcDbLine
  8
planet
 62
7
420
0
370
-1
  6
ByLayer
 10
21.4819774563675807
 20
272.2575269740685258
 30
0.0
 11
19.5542222912272479
 21
271.5314347319122135
 31
0.0
  0
LINE
  5
2F1
100
AcDbEntity
100
AcDbLine
  8
planet
 62
7
420
0
370
-1
  6
ByLayer
 10
19.5542222912272479
 20
271.5314347319122135
 30
0.0
 11
18.7657008113025263
 21
272.3200619284780828
 31
0.0
  0
LINE
  5
2F2
100
AcDbEntity
100
AcDbLine
  8
planet
 62
7
420
0
370
-1
  6
ByLayer
 10
18.7657008113025263
 20
272.3200619284780828
 30
0.0
 11
19.4919542593086739
 21
274.2475513126655073
 31
0.0
  0
LINE
  5
2F3
100
AcDbEntity
100
AcDbLine
  8
planet
 62
7
420
0
370
-1
  6
ByLayer
 10
19.4919542593086739
 20
274.2475513126655073
 30
0.0
 11
19.916663996729568
 21
274.7639781621591055
 31
0.0
  0
LINE
  5
2F4
100
AcDbEntity
100
AcDbLine
  8
planet
 62
7
420
0
370
-1
  6
ByLayer
 10
19.916663996729568
 20
274.7639781621591055
 30
0.0
 11
20.8365505470188239
 21
275.4480822863754952
 31
0.0
  0
LINE
  5
2F5
100
AcDbEntity
100
AcDbLine
  8
planet
 62
7
420
0
370
-1
  6
ByLayer
 10
20.8365505470188239
 20
275.4480822863754952
 30
0.0
 11
19.7968362923113546
 21
277.2489202008825373
 31
0.0
  0
LINE
  5
2F6
100
AcDbEntity
100
AcDbLine
  8
planet
 62
7
420
0
370
-1
  6
ByLayer
 10
19.7968362923113546
 20
277.2489202008825373
 30
0.0
 11
18.7444414667615646
 21
276.7943271418405971
 31
0.0
  0
LINE
  5
2F7
100
AcDbEntity
100
AcDbLine
  8
planet
 62
7
420
0
370
-1
  6
ByLayer
 10
18.7444414667615646
 20
276.7943271418405971
 30
0.0
 11
18.0848478271933111
 21
276.6847311447463085
 31
0.0
  0
LINE
  5
2F8
100
AcDbEntity
100
AcDbLine
  8
planet
 62
7
420
0
370
-1
  6
ByLayer
 10
18.0848478271933111
 20
276.6847311447463085
 30
0.0
 11
16.0524663309590991
 21
277.0195219012806547
 31
0.0
  0
LINE
  5
2F9
100
AcDbEntity
100
AcDbLine
  8
planet
 62
7
420
0
370
-1
  6
ByLayer
 10
16.0524663309590991
 20
277.0195219012806547
 30
0.0
 11
15.7637558845800552
 21
278.0967151326080966
 31
0.0
  0
LINE
  5
2FA
100
AcDbEntity
100
AcDbLine
  8
planet
 62
7
420
0
370
-1
  6
ByLayer
 10
15.7637558845800552
 20
278.0967151326080966
 30
0.0
 11
17.3564477943484157
 21
279.403153956818187
 31
0.0
  0
LINE
  5
2FB
100
AcDbEntity
100
AcDbLine
  8
planet
 62
7
420
0
370
-1
  6
ByLayer
 10
17.3564477943484157
 20
279.403153956818187
 30
0.0
 11
17.9826134759599086
 21
279.6377023973332143
 31
0.0
  0
LINE
  5
2FC
100
AcDbEntity
100
AcDbLine
  8
planet
 62
7
420
0
370
-1
  6
ByLayer
 10
17.9826134759599086
 20
279.6377023973332143
 30
0.0
 11
19.1213932860661586
 21
279.7702499423742211
 31
0.0
  0
LINE
  5
2FD
100
AcDbEntity
100
AcDbLine
  8
planet
 62
7
420
0
370
-1
  6
ByLayer
 10
19.1213932860661586
 20
279.7702499423742211
 30
0.0
 11
19.1213923676516693
 21
281.8496800425298261
 31
0.0
  0
LINE
  5
2FE
100
AcDbEntity
100
AcDbLine
  8
planet
 62
7
420
0
370
-1
  6
ByLayer
 10
19.1213923676516693
 20
281.8496800425298261
 30
0.0
 11
17.9824204582295231
 21
281.9824817737849685
 31
0.0
  0
LINE
  5
2FF
100
AcDbEntity
100
AcDbLine
  8
planet
 62
7
420
0
370
-1
  6
ByLayer
 10
17.9824204582295231
 20
281.9824817737849685
 30
0.0
 11
17.3566157464996387
 21
282.2170745051762424
 31
0.0
  0
LINE
  5
300
100
AcDbEntity
100
AcDbLine
  8
planet
 62
7
420
0
370
-1
  6
ByLayer
 10
17.3566157464996387
 20
282.2170745051762424
 30
0.0
 11
15.7636523038194252
 21
283.5233635004351527
 31
0.0
  0
LINE
  5
301
100
AcDbEntity
100
AcDbLine
  8
planet
 62
7
420
0
370
-1
  6
ByLayer
 10
15.7636523038194252
 20
283.5233635004351527
 30
0.0
 11
16.0523240552221722
 21
284.6007011433800358
 31
0.0
  0
LINE
  5
302
100
AcDbEntity
100
AcDbLine
  8
planet
 62
7
420
0
370
-1
  6
ByLayer
 10
16.0523240552221722
 20
284.6007011433800358
 30
0.0
 11
18.0850153615125997
 21
284.9354988766181123
 31
0.0
  0
LINE
  5
303
100
AcDbEntity
100
AcDbLine
  8
planet
 62
7
420
0
370
-1
  6
ByLayer
 10
18.0850153615125997
 20
284.9354988766181123
 30
0.0
 11
18.7442745053743316
 21
284.8257597856812708
 31
0.0
  0
LINE
  5
304
100
AcDbEntity
100
AcDbLine
  8
planet
 62
7
420
0
370
-1
  6
ByLayer
 10
18.7442745053743316
 20
284.8257597856812708
 30
0.0
 11
19.7970539787583313
 21
284.371283503903669
 31
0.0
  0
LINE
  5
305
100
AcDbEntity
100
AcDbLine
  8
planet
 62
7
420
0
370
-1
  6
ByLayer
 10
19.7970539787583313
 20
284.371283503903669
 30
0.0
 11
20.8367698242063817
 21
286.1721223368252254
 31
0.0
  0
LINE
  5
306
100
AcDbEntity
100
AcDbLine
  8
planet
 62
7
420
0
370
-1
  6
ByLayer
 10
20.8367698242063817
 20
286.1721223368252254
 30
0.0
 11
19.9168313518580256
 21
286.8563017830931017
 31
0.0
  0
LINE
  5
307
100
AcDbEntity
100
AcDbLine
  8
planet
 62
7
420
0
370
-1
  6
ByLayer
 10
19.9168313518580256
 20
286.8563017830931017
 30
0.0
 11
19.4918301848620672
 21
287.3725095318029048
 31
0.0
  0
LINE
  5
308
100
AcDbEntity
100
AcDbLine
  8
planet
 62
7
420
0
370
-1
  6
ByLayer
 10
19.4918301848620672
 20
287.3725095318029048
 30
0.0
 11
18.765737942705762
 21
289.300264696943259
 31
0.0
  0
LINE
  5
309
100
AcDbEntity
100
AcDbLine
  8
planet
 62
7
420
0
370
-1
  6
ByLayer
 10
18.765737942705762
 20
289.300264696943259
 30
0.0
 11
19.5543651392716562
 21
290.0887861768679841
 31
0.0
  0
LINE
  5
30A
100
AcDbEntity
100
AcDbLine
  8
planet
 62
7
420
0
370
-1
  6
ByLayer
 10
19.5543651392716562
 20
290.0887861768679841
 30
0.0
 11
21.4818545234590843
 21
289.3625327288618223
 31
0.0
  0
LINE
  5
30B
100
AcDbEntity
100
AcDbLine
  8
planet
 62
7
420
0
370
-1
  6
ByLayer
 10
21.4818545234590843
 20
289.3625327288618223
 30
0.0
 11
21.9982813729526931
 21
288.937822991440953
 31
0.0
  0
LINE
  5
30C
100
AcDbEntity
100
AcDbLine
  8
planet
 62
7
420
0
370
-1
  6
ByLayer
 10
21.9982813729526931
 20
288.937822991440953
 30
0.0
 11
22.6823854971690899
 21
288.0179364411516758
 31
0.0
  0
LINE
  5
30D
100
AcDbEntity
100
AcDbLine
  8
planet
 62
7
420
0
370
-1
  6
ByLayer
 10
22.6823854971690899
 20
288.0179364411516758
 30
0.0
 11
24.4832234116761143
 21
289.0576506958591949
 31
0.0
  0
LINE
  5
30E
100
AcDbEntity
100
AcDbLine
  8
planet
 62
7
420
0
370
-1
  6
ByLayer
 10
24.4832234116761143
 20
289.0576506958591949
 30
0.0
 11
24.0286303526341705
 21
290.1100455214088925
 31
0.0
  0
LINE
  5
30F
100
AcDbEntity
100
AcDbLine
  8
planet
 62
7
420
0
370
-1
  6
ByLayer
 10
24.0286303526341705
 20
290.1100455214088925
 30
0.0
 11
23.919034355539889
 21
290.7696391609771922
 31
0.0
  0
LINE
  5
310
100
AcDbEntity
100
AcDbLine
  8
planet
 62
7
420
0
370
-1
  6
ByLayer
 10
23.919034355539889
 20
290.7696391609771922
 30
0.0
 11
24.2538251120742174
 21
292.8020206572114148
 31
0.0
  0
LINE
  5
311
100
AcDbEntity
100
AcDbLine
  8
planet
 62
7
420
0
370
-1
  6
ByLayer
 10
24.2538251120742174
 20
292.8020206572114148
 30
0.0
 11
25.3310183434016771
 21
293.0907311035903717
 31
0.0
  0
LINE
  5
312
100
AcDbEntity
100
AcDbLine
  8
planet
 62
7
420
0
370
-1
  6
ByLayer
 10
25.3310183434016771
 20
293.0907311035903717
 30
0.0
 11
26.637457167611732
 21
291.4980391938220805
 31
0.0
  0
LINE
  5
313
100
AcDbEntity
100
AcDbLine
  8
planet
 62
7
420
0
370
-1
  6
ByLayer
 10
26.637457167611732
 20
291.4980391938220805
 30
0.0
 11
26.8720056081268091
 21
290.8718735122105841
 31
0.0
  0
LINE
  5
314
100
AcDbEntity
100
AcDbLine
  8
planet
 62
7
420
0
370
-1
  6
ByLayer
 10
26.8720056081268091
 20
290.8718735122105841
 30
0.0
 11
27.0045531531677909
 21
289.7330937021043269
 31
0.0
  0
LINE
  5
315
100
AcDbEntity
100
AcDbLine
  8
planet
 62
7
420
0
370
-1
  6
ByLayer
 10
27.0045531531677909
 20
289.7330937021043269
 30
0.0
 11
29.0839832533234279
 21
289.7330946205188411
 31
0.0
  0
LINE
  5
316
100
AcDbEntity
100
AcDbLine
  8
planet
 62
7
420
0
370
-1
  6
ByLayer
 10
29.0839832533234279
 20
289.7330946205188411
 30
0.0
 11
29.2167849845785135
 21
290.8720665299409802
 31
0.0
  0
LINE
  5
317
100
AcDbEntity
100
AcDbLine
  8
planet
 62
7
420
0
370
-1
  6
ByLayer
 10
29.2167849845785135
 20
290.8720665299409802
 30
0.0
 11
29.4513777159698833
 21
291.4978712416708504
 31
0.0
  0
LINE
  5
318
100
AcDbEntity
100
AcDbLine
  8
planet
 62
7
420
0
370
-1
  6
ByLayer
 10
29.4513777159698833
 20
291.4978712416708504
 30
0.0
 11
30.757666711228655
 21
293.0908346843511367
 31
0.0
  0
LINE
  5
319
100
AcDbEntity
100
AcDbLine
  8
planet
 62
7
420
0
370
-1
  6
ByLayer
 10
30.757666711228655
 20
293.0908346843511367
 30
0.0
 11
31.835004354173595
 21
292.802162932948363
 31
0.0
  0
LINE
  5
31A
100
AcDbEntity
100
AcDbLine
  8
planet
 62
7
420
0
370
-1
  6
ByLayer
 10
31.835004354173595
 20
292.802162932948363
 30
0.0
 11
32.1698020874116963
 21
290.7694716266579462
 31
0.0
  0
LINE
  5
31B
100
AcDbEntity
100
AcDbLine
  8
planet
 62
7
420
0
370
-1
  6
ByLayer
 10
32.1698020874116963
 20
290.7694716266579462
 30
0.0
 11
32.0600629964748194
 21
290.1102124827961575
 31
0.0
  0
LINE
  5
31C
100
AcDbEntity
100
AcDbLine
  8
planet
 62
7
420
0
370
-1
  6
ByLayer
 10
32.0600629964748194
 20
290.1102124827961575
 30
0.0
 11
31.6055867146972709
 21
289.0574330094121933
 31
0.0
  0
LINE
  5
31D
100
AcDbEntity
100
AcDbLine
  8
planet
 62
7
420
0
370
-1
  6
ByLayer
 10
31.6055867146972709
 20
289.0574330094121933
 30
0.0
 11
33.4064255476188023
 21
288.0177171639641074
 31
0.0
  0
LINE
  5
31E
100
AcDbEntity
100
AcDbLine
  8
planet
 62
7
420
0
370
-1
  6
ByLayer
 10
33.4064255476188023
 20
288.0177171639641074
 30
0.0
 11
34.0906049938866431
 21
288.9376556363124564
 31
0.0
  0
LINE
  5
31F
100
AcDbEntity
100
AcDbLine
  8
planet
 62
7
420
0
370
-1
  6
ByLayer
 10
34.0906049938866431
 20
288.9376556363124564
 30
0.0
 11
34.6068127425965031
 21
289.3626568033084254
 31
0.0
  0
LINE
  5
320
100
AcDbEntity
100
AcDbLine
  8
planet
 62
7
420
0
370
-1
  6
ByLayer
 10
34.6068127425965031
 20
289.3626568033084254
 30
0.0
 11
36.5345679077368359
 21
290.0887490454647377
 31
0.0
  0
LINE
  5
321
100
AcDbEntity
100
AcDbLine
  8
planet
 62
7
420
0
370
-1
  6
ByLayer
 10
36.5345679077368359
 20
290.0887490454647377
 30
0.0
 11
37.3230893876615539
 21
289.3001218488988684
 31
0.0
  0
LINE
  5
322
100
AcDbEntity
100
AcDbLine
  8
planet
 62
7
420
0
370
-1
  6
ByLayer
 10
37.3230893876615539
 20
289.3001218488988684
 30
0.0
 11
36.5968359396554064
 21
287.3726324647114438
 31
0.0
  0
LINE
  5
323
100
AcDbEntity
100
AcDbLine
  8
planet
 62
7
420
0
370
-1
  6
ByLayer
 10
36.5968359396554064
 20
287.3726324647114438
 30
0.0
 11
36.1721262022345229
 21
286.8562056152177888
 31
0.0
  0
LINE
  5
324
100
AcDbEntity
100
AcDbLine
  8
planet
 62
7
420
0
370
-1
  6
ByLayer
 10
36.1721262022345229
 20
286.8562056152177888
 30
0.0
 11
35.2522396519452528
 21
286.1721014910013992
 31
0.0
  0
LINE
  5
325
100
AcDbEntity
100
AcDbLine
  8
planet
 62
7
420
0
370
-1
  6
ByLayer
 10
35.2522396519452528
 20
286.1721014910013992
 30
0.0
 11
36.2919539066527364
 21
284.3712635764944139
 31
0.0
  0
LINE
  5
326
100
AcDbEntity
100
AcDbLine
  8
planet
 62
7
420
0
370
-1
  6
ByLayer
 10
36.2919539066527364
 20
284.3712635764944139
 30
0.0
 11
37.3443487322025334
 21
284.8258566355363541
 31
0.0
  0
LINE
  5
327
100
AcDbEntity
100
AcDbLine
  8
planet
 62
7
420
0
370
-1
  6
ByLayer
 10
37.3443487322025334
 20
284.8258566355363541
 30
0.0
 11
38.0039423717707692
 21
284.9354526326306427
 31
0.0
  0
LINE
  5
328
100
AcDbEntity
100
AcDbLine
  8
planet
 62
7
420
0
370
-1
  6
ByLayer
 10
38.0039423717707692
 20
284.9354526326306427
 30
0.0
 11
40.0363238680049918
 21
284.6006618760962965
 31
0.0
  0
LINE
  5
329
100
AcDbEntity
100
AcDbLine
  8
planet
 62
7
420
0
370
-1
  6
ByLayer
 10
40.0363238680049918
 20
284.6006618760962965
 30
0.0
 11
40.3250343143840411
 21
283.5234686447688546
 31
0.0
  0
LINE
  5
32A
100
AcDbEntity
100
AcDbLine
  8
planet
 62
7
420
0
370
-1
  6
ByLayer
 10
40.3250343143840411
 20
283.5234686447688546
 30
0.0
 11
38.7323424046156788
 21
282.2170298205587642
 31
0.0
  0
LINE
  5
32B
100
AcDbEntity
100
AcDbLine
  8
planet
 62
7
420
0
370
-1
  6
ByLayer
 10
38.7323424046156788
 20
282.2170298205587642
 30
0.0
 11
38.1061767230042179
 21
281.9824813800436232
 31
0.0
  0
LINE
  5
32C
100
AcDbEntity
100
AcDbLine
  8
planet
 62
7
420
0
370
-1
  6
ByLayer
 10
38.1061767230042179
 20
281.9824813800436232
 30
0.0
 11
36.9673969128979252
 21
281.8499338350027301
 31
0.0
  0
LINE
  5
32D
100
AcDbEntity
100
AcDbLine
  8
planet
 62
7
420
0
370
-1
  6
ByLayer
 10
36.9673969128979252
 20
281.8499338350027301
 30
0.0
 11
36.9673978313124181
 21
279.7705037348471251
 31
0.0
  0
LINE
  5
32E
100
AcDbEntity
100
AcDbLine
  8
planet
 62
7
420
0
370
-1
  6
ByLayer
 10
36.9673978313124181
 20
279.7705037348471251
 30
0.0
 11
38.1063697407345572
 21
279.6377020035919827
 31
0.0
  0
LINE
  5
32F
100
AcDbEntity
100
AcDbLine
  8
planet
 62
7
420
0
370
-1
  6
ByLayer
 10
38.1063697407345572
 20
279.6377020035919827
 30
0.0
 11
38.7321744524644416
 21
279.403109272200652
 31
0.0
  0
LINE
  5
330
100
AcDbEntity
100
AcDbLine
  8
planet
 62
7
420
0
370
-1
  6
ByLayer
 10
38.7321744524644416
 20
279.403109272200652
 30
0.0
 11
40.3251378951446711
 21
278.0968202769417985
 31
0.0
  0
LINE
  5
331
100
AcDbEntity
100
AcDbLine
  8
planet
 62
7
420
0
370
-1
  6
ByLayer
 10
40.3251378951446711
 20
278.0968202769417985
 30
0.0
 11
40.0364661437419187
 21
277.0194826339969154
 31
0.0
  0
LINE
  5
332
100
AcDbEntity
100
AcDbLine
  8
planet
 62
7
420
0
370
-1
  6
ByLayer
 10
40.0364661437419187
 20
277.0194826339969154
 30
0.0
 11
38.0037748374514948
 21
276.6846849007588389
 31
0.0
  0
LINE
  5
333
100
AcDbEntity
100
AcDbLine
  8
planet
 62
7
420
0
370
-1
  6
ByLayer
 10
38.0037748374514948
 20
276.6846849007588389
 30
0.0
 11
37.3445156935897558
 21
276.7944239916956803
 31
0.0
  0
LINE
  5
334
100
AcDbEntity
100
AcDbLine
  8
planet
 62
7
420
0
370
-1
  6
ByLayer
 10
37.3445156935897558
 20
276.7944239916956803
 30
0.0
 11
36.2917362202057561
 21
277.2489002734732253
 31
0.0
  0
LINE
  5
335
100
AcDbEntity
100
AcDbLine
  8
planet
 62
7
420
0
370
-1
  6
ByLayer
 10
36.2917362202057561
 20
277.2489002734732253
 30
0.0
 11
35.2520203747577057
 21
275.4480614405517258
 31
0.0
  0
LINE
  5
336
100
AcDbEntity
100
AcDbLine
  8
planet
 62
7
420
0
370
-1
  6
ByLayer
 10
35.2520203747577057
 20
275.4480614405517258
 30
0.0
 11
36.1719588471060547
 21
274.7638819942838495
 31
0.0
  0
LINE
  5
337
100
AcDbEntity
100
AcDbLine
  8
planet
 62
7
420
0
370
-1
  6
ByLayer
 10
36.1719588471060547
 20
274.7638819942838495
 30
0.0
 11
36.5969600141020166
 21
274.2476742455740464
 31
0.0
  0
LINE
  5
338
100
AcDbEntity
100
AcDbLine
  8
planet
 62
7
420
0
370
-1
  6
ByLayer
 10
36.5969600141020166
 20
274.2476742455740464
 30
0.0
 11
37.3230522562583076
 21
272.3199190804336354
 31
0.0
  0
LINE
  5
339
100
AcDbEntity
100
AcDbLine
  8
planet
 62
7
420
0
370
-1
  6
ByLayer
 10
37.3230522562583076
 20
272.3199190804336354
 30
0.0
 11
36.5344250596924311
 21
271.5313976005089671
 31
0.0
  0
LINE
  5
33A
100
AcDbEntity
100
AcDbLine
  8
planet
 62
7
420
0
370
-1
  6
ByLayer
 10
36.5344250596924311
 20
271.5313976005089671
 30
0.0
 11
34.6069356755049924
 21
272.2576510485151289
 31
0.0
  0
LINE
  5
33B
100
AcDbEntity
100
AcDbLine
  8
planet
 62
7
420
0
370
-1
  6
ByLayer
 10
34.6069356755049924
 20
272.2576510485151289
 30
0.0
 11
34.09050882601138
 21
272.6823607859359413
 31
0.0
  0
LINE
  5
33C
100
AcDbEntity
100
AcDbLine
  8
planet
 62
7
420
0
370
-1
  6
ByLayer
 10
34.09050882601138
 20
272.6823607859359413
 30
0.0
 11
33.4064047017949974
 21
273.6022473362252754
 31
0.0
  0
LINE
  5
33D
100
AcDbEntity
100
AcDbLine
  8
planet
 62
7
420
0
370
-1
  6
ByLayer
 10
33.4064047017949974
 20
273.6022473362252754
 30
0.0
 11
31.6055667872879802
 21
272.5625330815177563
 31
0.0
  0
LINE
  5
33E
100
AcDbEntity
100
AcDbLine
  8
planet
 62
7
420
0
370
-1
  6
ByLayer
 10
31.6055667872879802
 20
272.5625330815177563
 30
0.0
 11
32.0601598463299169
 21
271.5101382559680019
 31
0.0
  0
LINE
  5
33F
100
AcDbEntity
100
AcDbLine
  8
planet
 62
7
420
0
370
-1
  6
ByLayer
 10
32.0601598463299169
 20
271.5101382559680019
 30
0.0
 11
32.1697558434242481
 21
270.8505446163997021
 31
0.0
  0
LINE
  5
340
100
AcDbEntity
100
AcDbLine
  8
planet
 62
7
420
0
370
-1
  6
ByLayer
 10
32.1697558434242481
 20
270.8505446163997021
 30
0.0
 11
31.8349650868898628
 21
268.8181631201655364
 31
0.0
  0
LINE
  5
341
100
AcDbEntity
100
AcDbLine
  8
planet
 62
7
420
0
370
-1
  6
ByLayer
 10
31.8349650868898628
 20
268.8181631201655364
 30
0.0
 11
30.7577718555624031
 21
268.5294526737865226
 31
0.0
  0
LINE
  5
342
100
AcDbEntity
100
AcDbLine
  8
planet
 62
7
420
0
370
-1
  6
ByLayer
 10
30.7577718555624031
 20
268.5294526737865226
 30
0.0
 11
29.4513330313523589
 21
270.1221445835548707
 31
0.0
  0
LINE
  5
343
100
AcDbEntity
100
AcDbLine
  8
planet
 62
7
420
0
370
-1
  6
ByLayer
 10
29.4513330313523589
 20
270.1221445835548707
 30
0.0
 11
29.2167845908372783
 21
270.7483102651663103
 31
0.0
  0
LINE
  5
344
100
AcDbEntity
100
AcDbLine
  8
planet
 62
7
420
0
370
-1
  6
ByLayer
 10
29.2167845908372783
 20
270.7483102651663103
 30
0.0
 11
29.0842370457963
 21
271.8870900752725674
 31
0.0
  0
LINE
  5
345
100
AcDbEntity
100
AcDbLine
  8
planet
 62
7
420
0
370
-1
  6
ByLayer
 10
29.0842370457963
 20
271.8870900752725674
 30
0.0
 11
27.0048069456406594
 21
271.8870891568580532
 31
0.0
  0
CIRCLE
  5
346
100
AcDbEntity
100
AcDbCircle
  8
ring
 62
256
370
-1
  6
ByLayer
 10
0.0060872297924419
 20
296.9874876360480016
 30
0.0
 40
50.0
  0
CIRCLE
  5
347
100
AcDbEntity
100
AcDbCircle
  8
sun
 62
256
370
-1
  6
ByLayer
 10
0.0136034113309798
 20
297.0030831358748742
 30
0.0
 40
2.0
  0
CIRCLE
  5
348
100
AcDbEntity
100
AcDbCircle
  8
planet
 62
256
370
-1
  6
ByLayer
 10
-28.0231023893400604
 20
280.7939493527474042
 30
0.0
 40
2.0
  0
CIRCLE
  5
349
100
AcDbEntity
100
AcDbCircle
  8
planet
 62
256
370
-1
  6
ByLayer
 10
28.0437796820430663
 20
280.8127379171563121
 30
0.0
 40
2.0
  0
CIRCLE
  5
34A
100
AcDbEntity
100
AcDbCircle
  8
planet
 62
256
370
-1
  6
ByLayer
 10
-0.0019260230012676
 20
329.358194067266254
 30
0.0
 40
2.0
  0
ENDSEC
  0
SECTION
  2
OBJECTS
  0
DICTIONARY
  5
C
100
AcDbDictionary
280
0
281
1
  3
ACAD_GROUP
350
D
  3
ACAD_LAYOUT
350
1A
  3
ACAD_MLINESTYLE
350
17
  3
ACAD_PLOTSETTINGS
350
19
  3
ACAD_PLOTSTYLENAME
350
E
  3
AcDbVariableDictionary
350
34B
  0
DICTIONARY
  5
D
100
AcDbDictionary
280
0
281
1
  0
ACDBDICTIONARYWDFLT
  5
E
100
AcDbDictionary
281
1
  3
Normal
350
F
100
AcDbDictionaryWithDefault
340
F
  0
ACDBPLACEHOLDER
  5
F
  0
DICTIONARY
  5
17
100
AcDbDictionary
280
0
281
1
  3
Standard
350
18
  0
MLINESTYLE
  5
18
100
AcDbMlineStyle
  2
STANDARD
 70
0
  3

 62
256
 51
90.0
 52
90.0
 71
2
 49
0.5
 62
256
  6
BYLAYER
 49
-0.5
 62
256
  6
BYLAYER
  0
DICTIONARY
  5
19
100
AcDbDictionary
280
0
281
1
  0
DICTIONARY
  5
1A
100
AcDbDictionary
281
1
  3
Layout1
350
1E
  3
Layout2
350
26
  3
Model
350
22
  0
LAYOUT
  5
1E
100
AcDbPlotSettings
  1

  2
C:\Program Files\AutoCAD 2002\plotters\DWF ePlot (optimized for plotting).pc3
  4

  6

 40
0.0
 41
0.0
 42
0.0
 43
0.0
 44
0.0
 45
0.0
 46
0.0
 47
0.0
 48
0.0
 49
0.0
140
0.0
141
0.0
142
1.0
143
1.0
 70
688
 72
0
 73
0
 74
5
  7

 75
16
147
1.0
148
0.0
149
0.0
100
AcDbLayout
  1
Layout1
 70
1
 71
1
 10
0.0
 20
0.0
 11
420.0
 21
297.0
 12
0.0
 22
0.0
 32
0.0
 14
100000000000000000000.0
 24
100000000000000000000.0
 34
100000000000000000000.0
 15
-100000000000000000000.0
 25
-100000000000000000000.0
 35
-100000000000000000000.0
146
0.0
 13
0.0
 23
0.0
 33
0.0
 16
1.0
 26
0.0
 36
0.0
 17
0.0
 27
1.0
 37
0.0
 76
0
330
1B
  0
LAYOUT
  5
22
100
AcDbPlotSettings
  1

  2
C:\Program Files\AutoCAD 2002\plotters\DWF ePlot (optimized for plotting).pc3
  4

  6

 40
0.0
 41
0.0
 42
0.0
 43
0.0
 44
0.0
 45
0.0
 46
0.0
 47
0.0
 48
0.0
 49
0.0
140
0.0
141
0.0
142
1.0
143
1.0
 70
1712
 72
0
 73
0
 74
0
  7

 75
0
147
1.0
148
0.0
149
0.0
100
AcDbLayout
  1
Model
 70
1
 71
0
 10
0.0
 20
0.0
 11
12.0
 21
9.0
 12
0.0
 22
0.0
 32
0.0
 14
0.0
 24
0.0
 34
0.0
 15
0.0
 25
0.0
 35
0.0
146
0.0
 13
0.0
 23
0.0
 33
0.0
 16
1.0
 26
0.0
 36
0.0
 17
0.0
 27
1.0
 37
0.0
 76
0
330
1F
  0
LAYOUT
  5
26
100
AcDbPlotSettings
  1

  2
C:\Program Files\AutoCAD 2002\plotters\DWF ePlot (optimized for plotting).pc3
  4

  6

 40
0.0
 41
0.0
 42
0.0
 43
0.0
 44
0.0
 45
0.0
 46
0.0
 47
0.0
 48
0.0
 49
0.0
140
0.0
141
0.0
142
1.0
143
1.0
 70
688
 72
0
 73
0
 74
5
  7

 75
16
147
1.0
148
0.0
149
0.0
100
AcDbLayout
  1
Layout2
 70
1
 71
2
 10
0.0
 20
0.0
 11
12.0
 21
9.0
 12
0.0
 22
0.0
 32
0.0
 14
0.0
 24
0.0
 34
0.0
 15
0.0
 25
0.0
 35
0.0
146
0.0
 13
0.0
 23
0.0
 33
0.0
 16
1.0
 26
0.0
 36
0.0
 17
0.0
 27
1.0
 37
0.0
 76
0
330
23
  0
DICTIONARY
  5
34B
100
AcDbDictionary
281
1
  3
DIMASSOC
350
34D
  3
HIDETEXT
350
34C
  0
DICTIONARYVAR
  5
34C
100
DictionaryVariables
280
0
  1
2
  0
DICTIONARYVAR
  5
34D
100
DictionaryVariables
280
0
  1
1
  0
ENDSEC
  0
EOF
