<?xml version="1.0" encoding="UTF-8"?>
<!DOCTYPE svg PUBLIC "-//W3C//DTD SVG 1.1//EN" "http://www.w3.org/Graphics/SVG/1.1/DTD/svg11.dtd">
<!-- Creator: CorelDRAW Standard 2024 -->
<svg xmlns="http://www.w3.org/2000/svg" xml:space="preserve" width="3548px" height="1667px" version="1.1" style="shape-rendering:geometricPrecision; text-rendering:geometricPrecision; image-rendering:optimizeQuality; fill-rule:evenodd; clip-rule:evenodd"
viewBox="0 0 354800000 166651900"
 xmlns:xlink="http://www.w3.org/1999/xlink"
 xmlns:xodm="http://www.corel.com/coreldraw/odm/2003">
 <defs>
  <style type="text/css">
   <![CDATA[
    .str0 {stroke:#373435;stroke-width:45000;stroke-miterlimit:2.61313}
    .fil0 {fill:none;fill-rule:nonzero}
   ]]>
  </style>
 </defs>
 <g id="Layer_x0020_1">
  <metadata id="CorelCorpID_0Corel-Layer"/>
  <path class="fil0 str0" d="M18967800 39841700c0,431200 -349700,781000 -780900,781000 -431200,0 -781000,-349800 -781000,-781000m1561900 0c0,-431200 349700,-780900 780900,-780900 431300,0 781000,349700 781000,780900m0 2159200l0 -2159200m-3123800 -1280400l0 1290000m2342900 -2071000c431300,0 780900,-349800 780900,-781000m-3123800 1562000c0,-431500 349800,-781000 781000,-781000m0 0l1561900 0m-781000 6380000c0,-431200 -349700,-781000 -780900,-781000 -431200,0 -781000,349800 -781000,781000m1561900 0c0,431200 349700,780900 780900,780900 431300,0 781000,-349700 781000,-780900m0 -2159400l0 2159400m-3123800 1280400l0 -1290200m2342900 2071200c431300,0 780900,349800 780900,781000m-3123800 -1562000c0,431500 349800,781000 781000,781000m0 0l1561900 0m-3252000 -24131900c0,-415200 336800,-752100 752200,-752100 415300,0 752100,336900 752100,752100 0,415300 -336800,752200 -752100,752200 -415400,0 -752200,-336900 -752200,-752200zm-2738400 0c0,-415200 336800,-752100 752300,-752100 415300,0 752100,336900 752100,752100 0,415300 -336800,752200 -752100,752200 -415500,0 -752300,-336900 -752300,-752200zm-546100 42409000l3658700 0m-3658700 0l-3658600 0m7317300 2476300c683800,0 1238200,-554600 1238200,-1238200 0,-683700 -554400,-1238100 -1238200,-1238100m0 2476300c-683600,0 -1238100,554500 -1238100,1238100 0,683800 554500,1238200 1238100,1238200m-7317300 -2476300c-683800,0 -1238200,-554600 -1238200,-1238200 0,-683700 554400,-1238100 1238200,-1238100m0 2476300c683600,0 1238100,554500 1238100,1238100 0,683800 -554500,1238200 -1238100,1238200m10976000 -22448700l0 22448700 -3658700 0m-10976000 -27450500l0 27450500 3658700 0m3658600 -49948300l3658700 0m-3658700 0l-3658600 0m7317300 -2476200c683800,0 1238200,554600 1238200,1238200 0,683700 -554400,1238000 -1238200,1238000m0 -2476200c-683600,0 -1238100,-554500 -1238100,-1238200 0,-683700 554500,-1238000 1238100,-1238000m-7317300 2476200c-683800,0 -1238200,554600 -1238200,1238200 0,683700 554400,1238000 1238200,1238000m0 -2476200c683600,0 1238100,-554500 1238100,-1238200 0,-683700 -554500,-1238000 -1238100,-1238000m10976000 22448600l0 -22448600 -3658700 0m-10976000 27450200l0 -27450200 3658700 0"/>
  <path class="fil0 str0" d="M98486700 31234300c0,431200 -349600,781000 -780900,781000 -431200,0 -781000,-349800 -781000,-781000m1561900 0c0,-431200 349700,-780900 781000,-780900 431300,0 781000,349700 781000,780900m0 2159400l0 -2159400m-3123800 -1280500l0 1290300m2342900 -2071300c431200,0 780900,-349700 780900,-780900m-3123800 1561900c0,-431200 349700,-781000 780900,-781000m0 0l1562000 0m-781100 6380100c0,-431300 -349600,-780800 -780900,-780800 -431200,0 -781000,349500 -781000,780800m1561900 0c0,431400 349700,780900 781000,780900 431300,0 781000,-349500 781000,-780900m0 -2159200l0 2159200m-3123800 1280600l0 -1290400m2342900 2071200c431200,0 780900,349800 780900,781000m-3123800 -1561800c0,431300 349700,780800 780900,780800m0 0l1562000 0m-3252100 -24131700c0,-415500 336800,-752300 752200,-752300 415300,0 752100,336800 752100,752300 0,415100 -336800,751900 -752100,751900 -415400,0 -752200,-336800 -752200,-751900zm-2738300 0c0,-415500 336800,-752300 752100,-752300 415400,0 752200,336800 752200,752300 0,415100 -336800,751900 -752200,751900 -415300,0 -752100,-336800 -752100,-751900zm-546100 42408900l3658700 0m-3658700 0l-3658700 0m7317400 2476200c683700,0 1238100,-554500 1238100,-1238200 0,-683700 -554400,-1238000 -1238100,-1238000m0 2476200c-683700,0 -1238200,554500 -1238200,1238200 0,683700 554500,1238000 1238200,1238000m-7317400 -2476200c-683800,0 -1238200,-554500 -1238200,-1238200 0,-683700 554400,-1238000 1238200,-1238000m0 2476200c683600,0 1238100,554500 1238100,1238200 0,683700 -554500,1238000 -1238100,1238000m10976100 -22448600l0 22448600 -3658700 0m-10976100 -27450200l0 27450200 3658700 0m3658700 -49948000l3658700 0m-3658700 0l-3658700 0m7317400 -2476400c683700,0 1238100,554500 1238100,1238200 0,683700 -554400,1238200 -1238100,1238200m0 -2476400c-683700,0 -1238200,-554500 -1238200,-1238200 0,-683700 554500,-1238000 1238200,-1238000m-7317400 2476200c-683800,0 -1238200,554500 -1238200,1238200 0,683700 554400,1238200 1238200,1238200m0 -2476400c683600,0 1238100,-554500 1238100,-1238200 0,-683700 -554500,-1238000 -1238100,-1238000m10976100 22448600l0 -22448600 -3658700 0m-10976100 27450400l0 -27450400 3658700 0m12538100 25291000c0,431200 349700,781000 781000,781000 431200,0 780900,-349800 780900,-781000m-1561900 0c0,-431200 -349700,-780900 -780900,-780900 -431300,0 -781000,349700 -781000,780900m3123800 -1280500l0 1290300m-2342900 -2071300c-431200,0 -780900,-349700 -780900,-780900m3123800 1561900c0,-431200 -349700,-781000 -780900,-781000m0 0l-1562000 0m781000 6380100c0,-431300 349700,-780800 781000,-780800 431200,0 780900,349500 780900,780800m-1561900 0c0,431400 -349700,780900 -780900,780900 -431300,0 -781000,-349500 -781000,-780900m3123800 1280600l0 -1290400m-2342900 2071200c-431200,0 -780900,349800 -780900,781000m3123800 -1561800c0,431300 -349700,780800 -780900,780800m0 0l-1562000 0m3252000 -24131700c0,-415500 -336800,-752300 -752100,-752300 -415400,0 -752200,336800 -752200,752300 0,415100 336800,751900 752200,751900 415300,0 752100,-336800 752100,-751900zm2738300 0c0,-415500 -336600,-752300 -752000,-752300 -415400,0 -752300,336800 -752300,752300 0,415100 336900,751900 752300,751900 415400,0 752000,-336800 752000,-751900zm546200 42408900l-3658700 0m3658700 0l3658800 0m-7317500 2476200c-683800,0 -1238200,-554500 -1238200,-1238200 0,-683700 554400,-1238000 1238200,-1238000m0 2476200c683600,0 1238100,554500 1238100,1238200 0,683700 -554500,1238000 -1238100,1238000m7317500 -2476200c683700,0 1238000,-554500 1238000,-1238200 0,-683700 -554300,-1238000 -1238000,-1238000m0 2476200c-683700,0 -1238200,554500 -1238200,1238200 0,683700 554500,1238000 1238200,1238000m-10976200 0l3658700 0m10976100 -27450200l0 27450200 -3658600 0m-3658800 -49948000l-3658700 0m3658700 0l3658800 0m-7317500 -2476400c-683800,0 -1238200,554500 -1238200,1238200 0,683700 554400,1238200 1238200,1238200m0 -2476400c683600,0 1238100,-554500 1238100,-1238200 0,-683700 -554500,-1238000 -1238100,-1238000m7317500 2476200c683700,0 1238000,554500 1238000,1238200 0,683700 -554300,1238200 -1238000,1238200m0 -2476400c-683700,0 -1238200,-554500 -1238200,-1238200 0,-683700 554500,-1238000 1238200,-1238000m-10976200 0l3658700 0m10976100 27450400l0 -27450400 -3658600 0m16731500 25291000c0,431200 -349800,781000 -781000,781000 -431200,0 -781000,-349800 -781000,-781000m1562000 0c0,-431200 349700,-780900 780900,-780900 431200,0 781000,349700 781000,780900m0 2159400l0 -2159400m-3123900 -1280500l0 1290300m2342900 -2071300c431200,0 781000,-349700 781000,-780900m-3123900 1561900c0,-431200 349800,-781000 781000,-781000m0 0l1561900 0m-780900 6380100c0,-431300 -349800,-780800 -781000,-780800 -431200,0 -781000,349500 -781000,780800m1562000 0c0,431400 349700,780900 780900,780900 431200,0 781000,-349500 781000,-780900m0 -2159200l0 2159200m-3123900 1280600l0 -1290400m2342900 2071200c431200,0 781000,349800 781000,781000m-3123900 -1561800c0,431300 349800,780800 781000,780800m0 0l1561900 0m-3252000 -24131700c0,-415500 336700,-752300 752300,-752300 415100,0 752000,336800 752000,752300 0,415100 -336900,751900 -752000,751900 -415600,0 -752300,-336800 -752300,-751900zm-2738400 0c0,-415500 336900,-752300 752200,-752300 415400,0 752200,336800 752200,752300 0,415100 -336800,751900 -752200,751900 -415300,0 -752200,-336800 -752200,-751900zm-546000 42408900l3658600 0m-3658600 0l-3658800 0m7317400 2476200c683900,0 1238200,-554500 1238200,-1238200 0,-683700 -554300,-1238000 -1238200,-1238000m0 2476200c-683700,0 -1238000,554500 -1238000,1238200 0,683700 554300,1238000 1238000,1238000m-7317400 -2476200c-683700,0 -1238000,-554500 -1238000,-1238200 0,-683700 554300,-1238000 1238000,-1238000m0 2476200c683700,0 1238200,554500 1238200,1238200 0,683700 -554500,1238000 -1238200,1238000m10976200 -22448600l0 22448600 -3658800 0m-10976000 0l3658600 0m3658800 -49948000l3658600 0m-3658600 0l-3658800 0m7317400 -2476400c683900,0 1238200,554500 1238200,1238200 0,683700 -554300,1238200 -1238200,1238200m0 -2476400c-683700,0 -1238000,-554500 -1238000,-1238200 0,-683700 554300,-1238000 1238000,-1238000m-7317400 2476200c-683700,0 -1238000,554500 -1238000,1238200 0,683700 554300,1238200 1238000,1238200m0 -2476400c683700,0 1238200,-554500 1238200,-1238200 0,-683700 -554500,-1238000 -1238200,-1238000m10976200 22448600l0 -22448600 -3658800 0m-10976000 0l3658600 0m12538100 25291000c0,431200 349800,781000 781000,781000 431200,0 781000,-349800 781000,-781000m-1562000 0c0,-431200 -349500,-780900 -780900,-780900 -431300,0 -781000,349700 -781000,780900m3123900 -1280500l0 1290300m-2342900 -2071300c-431300,0 -781000,-349700 -781000,-780900m3123900 1561900c0,-431200 -349800,-781000 -781000,-781000m0 0l-1561900 0m780900 6380100c0,-431300 349800,-780800 781000,-780800 431200,0 781000,349500 781000,780800m-1562000 0c0,431400 -349500,780900 -780900,780900 -431300,0 -781000,-349500 -781000,-780900m3123900 1280600l0 -1290400m-2342900 2071200c-431300,0 -781000,349800 -781000,781000m3123900 -1561800c0,431300 -349800,780800 -781000,780800m0 0l-1561900 0m3251900 -24131700c0,-415500 -336600,-752300 -751900,-752300 -415500,0 -752300,336800 -752300,752300 0,415100 336800,751900 752300,751900 415300,0 751900,-336800 751900,-751900zm2738500 0c0,-415500 -336800,-752300 -752200,-752300 -415400,0 -752200,336800 -752200,752300 0,415100 336800,751900 752200,751900 415400,0 752200,-336800 752200,-751900zm546000 42408900l-3658600 0m3658600 0l3658800 0m-7317400 2476200c-683900,0 -1238200,-554500 -1238200,-1238200 0,-683700 554300,-1238000 1238200,-1238000m0 2476200c683700,0 1238200,554500 1238200,1238200 0,683700 -554500,1238000 -1238200,1238000m7317400 -2476200c683700,0 1238200,-554500 1238200,-1238200 0,-683700 -554500,-1238000 -1238200,-1238000m0 2476200c-683700,0 -1238200,554500 -1238200,1238200 0,683700 554500,1238000 1238200,1238000m-10976200 0l3658800 0m10976000 -27450200l0 27450200 -3658600 0m-3658800 -49948000l-3658600 0m3658600 0l3658800 0m-7317400 -2476400c-683900,0 -1238200,554500 -1238200,1238200 0,683700 554300,1238200 1238200,1238200m0 -2476400c683700,0 1238200,-554500 1238200,-1238200 0,-683700 -554500,-1238000 -1238200,-1238000m7317400 2476200c683700,0 1238200,554500 1238200,1238200 0,683700 -554500,1238200 -1238200,1238200m0 -2476400c-683700,0 -1238200,-554500 -1238200,-1238200 0,-683700 554500,-1238000 1238200,-1238000m-10976200 0l3658800 0m10976000 27450400l0 -27450400 -3658600 0m16731500 25291000c0,431200 -349700,781000 -781000,781000 -431200,0 -780900,-349800 -780900,-781000m1561900 0c0,-431200 349700,-780900 780900,-780900 431300,0 781000,349700 781000,780900m0 2159400l0 -2159400m-3123800 -1280500l0 1290300m2342800 -2071300c431300,0 781000,-349700 781000,-780900m-3123800 1561900c0,-431200 349700,-781000 780900,-781000m0 0l1561900 0m-780900 6380100c0,-431300 -349700,-780800 -781000,-780800 -431200,0 -780900,349500 -780900,780800m1561900 0c0,431400 349700,780900 780900,780900 431300,0 781000,-349500 781000,-780900m0 -2159200l0 2159200m-3123800 1280600l0 -1290400m2342800 2071200c431300,0 781000,349800 781000,781000m-3123800 -1561800c0,431300 349700,780800 780900,780800m0 0l1561900 0m-3251900 -24131700c0,-415500 336800,-752300 752200,-752300 415300,0 752200,336800 752200,752300 0,415100 -336900,751900 -752200,751900 -415400,0 -752200,-336800 -752200,-751900zm-2738300 0c0,-415500 336700,-752300 752000,-752300 415400,0 752300,336800 752300,752300 0,415100 -336900,751900 -752300,751900 -415300,0 -752000,-336800 -752000,-751900zm-546200 42408900l3658800 0m-3658800 0l-3658600 0m7317400 2476200c683700,0 1238000,-554500 1238000,-1238200 0,-683700 -554300,-1238000 -1238000,-1238000m0 2476200c-683600,0 -1238200,554500 -1238200,1238200 0,683700 554600,1238000 1238200,1238000m-7317400 -2476200c-683900,0 -1238200,-554500 -1238200,-1238200 0,-683700 554300,-1238000 1238200,-1238000m0 2476200c683700,0 1238300,554500 1238300,1238200 0,683700 -554600,1238000 -1238300,1238000m10976000 -22448600l0 22448600 -3658600 0m-10976200 0l3658800 0m3658600 -49948000l3658800 0m-3658800 0l-3658600 0m7317400 -2476400c683700,0 1238000,554500 1238000,1238200 0,683700 -554300,1238200 -1238000,1238200m0 -2476400c-683600,0 -1238200,-554500 -1238200,-1238200 0,-683700 554600,-1238000 1238200,-1238000m-7317400 2476200c-683900,0 -1238200,554500 -1238200,1238200 0,683700 554300,1238200 1238200,1238200m0 -2476400c683700,0 1238300,-554500 1238300,-1238200 0,-683700 -554600,-1238000 -1238300,-1238000m10976000 22448600l0 -22448600 -3658600 0m-10976200 0l3658800 0m12537900 25291000c0,431200 349800,781000 781000,781000 431400,0 781000,-349800 781000,-781000m-1562000 0c0,-431200 -349500,-780900 -780700,-780900 -431200,0 -781000,349700 -781000,780900m3123700 -1280500l0 1290300m-2342700 -2071300c-431400,0 -781000,-349700 -781000,-780900m3123700 1561900c0,-431200 -349600,-781000 -781000,-781000m0 0l-1561700 0m780700 6380100c0,-431300 349800,-780800 781000,-780800 431400,0 781000,349500 781000,780800m-1562000 0c0,431400 -349500,780900 -780700,780900 -431200,0 -781000,-349500 -781000,-780900m3123700 1280600l0 -1290400m-2342700 2071200c-431400,0 -781000,349800 -781000,781000m3123700 -1561800c0,431300 -349600,780800 -781000,780800m0 0l-1561700 0m3251900 -24131700c0,-415500 -336800,-752300 -752100,-752300 -415400,0 -752300,336800 -752300,752300 0,415100 336900,751900 752300,751900 415300,0 752100,-336800 752100,-751900zm2738300 0c0,-415500 -336800,-752300 -752200,-752300 -415200,0 -752200,336800 -752200,752300 0,415100 337000,751900 752200,751900 415400,0 752200,-336800 752200,-751900zm546200 42408900l-3658800 0m3658800 0l3658600 0m-7317400 2476200c-683600,0 -1238200,-554500 -1238200,-1238200 0,-683700 554600,-1238000 1238200,-1238000m0 2476200c683700,0 1238200,554500 1238200,1238200 0,683700 -554500,1238000 -1238200,1238000m7317400 -2476200c683700,0 1238200,-554500 1238200,-1238200 0,-683700 -554500,-1238000 -1238200,-1238000m0 2476200c-683700,0 -1238200,554500 -1238200,1238200 0,683700 554500,1238000 1238200,1238000m-10976000 0l3658600 0m10976100 -27450200l0 27450200 -3658700 0m-3658600 -49948000l-3658800 0m3658800 0l3658600 0m-7317400 -2476400c-683600,0 -1238200,554500 -1238200,1238200 0,683700 554600,1238200 1238200,1238200m0 -2476400c683700,0 1238200,-554500 1238200,-1238200 0,-683700 -554500,-1238000 -1238200,-1238000m7317400 2476200c683700,0 1238200,554500 1238200,1238200 0,683700 -554500,1238200 -1238200,1238200m0 -2476400c-683700,0 -1238200,-554500 -1238200,-1238200 0,-683700 554500,-1238000 1238200,-1238000m-10976000 0l3658600 0m10976100 27450400l0 -27450400 -3658700 0m16731700 25291000c0,431200 -349800,781000 -780900,781000 -431400,0 -781000,-349800 -781000,-781000m1561900 0c0,-431200 349600,-780900 780700,-780900 431300,0 781000,349700 781000,780900m0 2159400l0 -2159400m-3123600 -1280500l0 1290300m2342600 -2071300c431500,0 781000,-349700 781000,-780900m-3123600 1561900c0,-431200 349600,-781000 781000,-781000m0 0l1561600 0m-780700 6380100c0,-431300 -349800,-780800 -780900,-780800 -431400,0 -781000,349500 -781000,780800m1561900 0c0,431400 349600,780900 780700,780900 431300,0 781000,-349500 781000,-780900m0 -2159200l0 2159200m-3123600 1280600l0 -1290400m2342600 2071200c431500,0 781000,349800 781000,781000m-3123600 -1561800c0,431300 349600,780800 781000,780800m0 0l1561600 0m-3251900 -24131700c0,-415500 336900,-752300 752200,-752300 415400,0 752200,336800 752200,752300 0,415100 -336800,751900 -752200,751900 -415300,0 -752200,-336800 -752200,-751900zm-2738300 0c0,-415500 336900,-752300 752200,-752300 415200,0 752200,336800 752200,752300 0,415100 -337000,751900 -752200,751900 -415300,0 -752200,-336800 -752200,-751900zm-546200 42408900l3658900 0m-3658900 0l-3658600 0m7317500 2476200c683600,0 1238200,-554500 1238200,-1238200 0,-683700 -554600,-1238000 -1238200,-1238000m0 2476200c-683700,0 -1238200,554500 -1238200,1238200 0,683700 554500,1238000 1238200,1238000m-7317500 -2476200c-683700,0 -1238200,-554500 -1238200,-1238200 0,-683700 554500,-1238000 1238200,-1238000m0 2476200c683700,0 1238300,554500 1238300,1238200 0,683700 -554600,1238000 -1238300,1238000m10976000 -22448600l0 22448600 -3658500 0m-10976200 0l3658700 0m3658600 -49948000l3658900 0m-3658900 0l-3658600 0m7317500 -2476400c683600,0 1238200,554500 1238200,1238200 0,683700 -554600,1238200 -1238200,1238200m0 -2476400c-683700,0 -1238200,-554500 -1238200,-1238200 0,-683700 554500,-1238000 1238200,-1238000m-7317500 2476200c-683700,0 -1238200,554500 -1238200,1238200 0,683700 554500,1238200 1238200,1238200m0 -2476400c683700,0 1238300,-554500 1238300,-1238200 0,-683700 -554600,-1238000 -1238300,-1238000m10976000 22448600l0 -22448600 -3658500 0m-10976200 0l3658700 0m12538200 25291000c0,431200 349700,781000 780700,781000 431400,0 781200,-349800 781200,-781000m-1561900 0c0,-431200 -349800,-780900 -781000,-780900 -431200,0 -780900,349700 -780900,780900m3123600 -1280500l0 1290300m-2342700 -2071300c-431200,0 -780900,-349700 -780900,-780900m3123600 1561900c0,-431200 -349600,-781000 -781000,-781000m0 0l-1561700 0m781000 6380100c0,-431300 349700,-780800 780700,-780800 431400,0 781200,349500 781200,780800m-1561900 0c0,431400 -349800,780900 -781000,780900 -431200,0 -780900,-349500 -780900,-780900m3123600 1280600l0 -1290400m-2342700 2071200c-431200,0 -780900,349800 -780900,781000m3123600 -1561800c0,431300 -349600,780800 -781000,780800m0 0l-1561700 0m3252000 -24131700c0,-415500 -336900,-752300 -752200,-752300 -415400,0 -752200,336800 -752200,752300 0,415100 336800,751900 752200,751900 415300,0 752200,-336800 752200,-751900zm2738300 0c0,-415500 -336700,-752300 -752000,-752300 -415500,0 -752300,336800 -752300,752300 0,415100 336800,751900 752300,751900 415300,0 752000,-336800 752000,-751900zm546200 42408900l-3658900 0m3658900 0l3658500 0m-7317400 2476200c-683600,0 -1238000,-554500 -1238000,-1238200 0,-683700 554400,-1238000 1238000,-1238000m0 2476200c683700,0 1238300,554500 1238300,1238200 0,683700 -554600,1238000 -1238300,1238000m7317400 -2476200c683900,0 1238200,-554500 1238200,-1238200 0,-683700 -554300,-1238000 -1238200,-1238000m0 2476200c-683600,0 -1238200,554500 -1238200,1238200 0,683700 554600,1238000 1238200,1238000m-10975900 0l3658500 0m10976200 -27450200l0 27450200 -3658800 0m-3658500 -49948000l-3658900 0m3658900 0l3658500 0m-7317400 -2476400c-683600,0 -1238000,554500 -1238000,1238200 0,683700 554400,1238200 1238000,1238200m0 -2476400c683700,0 1238300,-554500 1238300,-1238200 0,-683700 -554600,-1238000 -1238300,-1238000m7317400 2476200c683900,0 1238200,554500 1238200,1238200 0,683700 -554300,1238200 -1238200,1238200m0 -2476400c-683600,0 -1238200,-554500 -1238200,-1238200 0,-683700 554600,-1238000 1238200,-1238000m-10975900 0l3658500 0m10976200 27450400l0 -27450400 -3658800 0m16731700 25291000c0,431200 -349700,781000 -780900,781000 -431200,0 -781000,-349800 -781000,-781000m1561900 0c0,-431200 349600,-780900 781000,-780900 431200,0 781000,349700 781000,780900m0 2159400l0 -2159400m-3123900 -1280500l0 1290300m2342900 -2071300c431200,0 781000,-349700 781000,-780900m-3123900 1561900c0,-431200 349800,-781000 781000,-781000m0 0l1561900 0m-781000 6380100c0,-431300 -349700,-780800 -780900,-780800 -431200,0 -781000,349500 -781000,780800m1561900 0c0,431400 349600,780900 781000,780900 431200,0 781000,-349500 781000,-780900m0 -2159200l0 2159200m-3123900 1280600l0 -1290400m2342900 2071200c431200,0 781000,349800 781000,781000m-3123900 -1561800c0,431300 349800,780800 781000,780800m0 0l1561900 0m-3252000 -24131700c0,-415500 336700,-752300 752000,-752300 415400,0 752300,336800 752300,752300 0,415100 -336900,751900 -752300,751900 -415300,0 -752000,-336800 -752000,-751900zm-2738400 0c0,-415500 336800,-752300 752100,-752300 415400,0 752300,336800 752300,752300 0,415100 -336900,751900 -752300,751900 -415300,0 -752100,-336800 -752100,-751900zm-546100 42408900l3658700 0m-3658700 0l-3658800 0m7317500 2476200c683800,0 1238200,-554500 1238200,-1238200 0,-683700 -554400,-1238000 -1238200,-1238000m0 2476200c-683700,0 -1238200,554500 -1238200,1238200 0,683700 554500,1238000 1238200,1238000m-7317500 -2476200c-683600,0 -1238200,-554500 -1238200,-1238200 0,-683700 554600,-1238000 1238200,-1238000m0 2476200c683800,0 1238300,554500 1238300,1238200 0,683700 -554500,1238000 -1238300,1238000m10976300 -22448600l0 22448600 -3658800 0m-10976100 0l3658600 0m3658800 -49948000l3658700 0m-3658700 0l-3658800 0m7317500 -2476400c683800,0 1238200,554500 1238200,1238200 0,683700 -554400,1238200 -1238200,1238200m0 -2476400c-683700,0 -1238200,-554500 -1238200,-1238200 0,-683700 554500,-1238000 1238200,-1238000m-7317500 2476200c-683600,0 -1238200,554500 -1238200,1238200 0,683700 554600,1238200 1238200,1238200m0 -2476400c683800,0 1238300,-554500 1238300,-1238200 0,-683700 -554500,-1238000 -1238300,-1238000m10976300 22448600l0 -22448600 -3658800 0m-10976100 0l3658600 0m12538200 25291000c0,431200 349700,781000 781000,781000 431200,0 780900,-349800 780900,-781000m-1561900 0c0,-431200 -349700,-780900 -781000,-780900 -431200,0 -780900,349700 -780900,780900m3123800 -1280500l0 1290300m-2342900 -2071300c-431200,0 -780900,-349700 -780900,-780900m3123800 1561900c0,-431200 -349700,-781000 -780900,-781000m0 0l-1562000 0m781000 6380100c0,-431300 349700,-780800 781000,-780800 431200,0 780900,349500 780900,780800m-1561900 0c0,431400 -349700,780900 -781000,780900 -431200,0 -780900,-349500 -780900,-780900m3123800 1280600l0 -1290400m-2342900 2071200c-431200,0 -780900,349800 -780900,781000m3123800 -1561800c0,431300 -349700,780800 -780900,780800m0 0l-1562000 0m3252000 -24131700c0,-415500 -336700,-752300 -752200,-752300 -415200,0 -752000,336800 -752000,752300 0,415100 336800,751900 752000,751900 415500,0 752200,-336800 752200,-751900zm2738500 0c0,-415500 -336900,-752300 -752200,-752300 -415400,0 -752300,336800 -752300,752300 0,415100 336900,751900 752300,751900 415300,0 752200,-336800 752200,-751900zm546000 42408900l-3658800 0m3658800 0l3658600 0m-7317400 2476200c-683700,0 -1238100,-554500 -1238100,-1238200 0,-683700 554400,-1238000 1238100,-1238000m0 2476200c683900,0 1238200,554500 1238200,1238200 0,683700 -554300,1238000 -1238200,1238000m7317400 -2476200c683900,0 1238200,-554500 1238200,-1238200 0,-683700 -554300,-1238000 -1238200,-1238000m0 2476200c-683500,0 -1238000,554500 -1238000,1238200 0,683700 554500,1238000 1238000,1238000m-10976000 0l3658600 0m10976200 -27450200l0 27450200 -3658800 0m-3658600 -49948000l-3658800 0m3658800 0l3658600 0m-7317400 -2476400c-683700,0 -1238100,554500 -1238100,1238200 0,683700 554400,1238200 1238100,1238200m0 -2476400c683900,0 1238200,-554500 1238200,-1238200 0,-683700 -554300,-1238000 -1238200,-1238000m7317400 2476200c683900,0 1238200,554500 1238200,1238200 0,683700 -554300,1238200 -1238200,1238200m0 -2476400c-683500,0 -1238000,-554500 -1238000,-1238200 0,-683700 554500,-1238000 1238000,-1238000m-10976000 0l3658600 0m10976200 27450400l0 -27450400 -3658800 0m16731600 25291000c0,431200 -349700,781000 -780900,781000 -431200,0 -781000,-349800 -781000,-781000m1561900 0c0,-431200 349800,-780900 781000,-780900 431200,0 781000,349700 781000,780900m0 2159400l0 -2159400m-3123900 -1280500l0 1290300m2342900 -2071300c431200,0 781000,-349700 781000,-780900m-3123900 1561900c0,-431200 349800,-781000 781000,-781000m0 0l1561900 0m-781000 6380100c0,-431300 -349700,-780800 -780900,-780800 -431200,0 -781000,349500 -781000,780800m1561900 0c0,431400 349800,780900 781000,780900 431200,0 781000,-349500 781000,-780900m0 -2159200l0 2159200m-3123900 1280600l0 -1290400m2342900 2071200c431200,0 781000,349800 781000,781000m-3123900 -1561800c0,431300 349800,780800 781000,780800m0 0l1561900 0m-3251900 -24131700c0,-415500 336800,-752300 752200,-752300 415300,0 752000,336800 752000,752300 0,415100 -336700,751900 -752000,751900 -415400,0 -752200,-336800 -752200,-751900zm-2738300 0c0,-415500 336600,-752300 752000,-752300 415400,0 752200,336800 752200,752300 0,415100 -336800,751900 -752200,751900 -415400,0 -752000,-336800 -752000,-751900zm-546200 42408900l3658600 0m-3658600 0l-3658900 0m7317500 2476200c683800,0 1238200,-554500 1238200,-1238200 0,-683700 -554400,-1238000 -1238200,-1238000m0 2476200c-683500,0 -1238000,554500 -1238000,1238200 0,683700 554500,1238000 1238000,1238000m-7317500 -2476200c-683600,0 -1237900,-554500 -1237900,-1238200 0,-683700 554300,-1238000 1237900,-1238000m0 2476200c683800,0 1238300,554500 1238300,1238200 0,683700 -554500,1238000 -1238300,1238000m10976300 -22448600l0 22448600 -3658800 0m-10976000 0l3658500 0m3658900 -49948000l3658600 0m-3658600 0l-3658900 0m7317500 -2476400c683800,0 1238200,554500 1238200,1238200 0,683700 -554400,1238200 -1238200,1238200m0 -2476400c-683500,0 -1238000,-554500 -1238000,-1238200 0,-683700 554500,-1238000 1238000,-1238000m-7317500 2476200c-683600,0 -1237900,554500 -1237900,1238200 0,683700 554300,1238200 1237900,1238200m0 -2476400c683800,0 1238300,-554500 1238300,-1238200 0,-683700 -554500,-1238000 -1238300,-1238000m10976300 22448600l0 -22448600 -3658800 0m-10976000 0l3658500 0m12538200 25291000c0,431200 349800,781000 781000,781000 431200,0 780900,-349800 780900,-781000m-1561900 0c0,-431200 -349600,-780900 -780700,-780900 -431400,0 -781200,349700 -781200,780900m3123800 -1280500l0 1290300m-2342900 -2071300c-431100,0 -780900,-349700 -780900,-780900m3123800 1561900c0,-431200 -349700,-781000 -780900,-781000m0 0l-1562000 0m781000 6380100c0,-431300 349800,-780800 781000,-780800 431200,0 780900,349500 780900,780800m-1561900 0c0,431400 -349600,780900 -780700,780900 -431400,0 -781200,-349500 -781200,-780900m3123800 1280600l0 -1290400m-2342900 2071200c-431100,0 -780900,349800 -780900,781000m3123800 -1561800c0,431300 -349700,780800 -780900,780800m0 0l-1562000 0m3252200 -24131700c0,-415500 -336800,-752300 -752200,-752300 -415300,0 -752200,336800 -752200,752300 0,415100 336900,751900 752200,751900 415400,0 752200,-336800 752200,-751900zm2738300 0c0,-415500 -336800,-752300 -752200,-752300 -415400,0 -752200,336800 -752200,752300 0,415100 336800,751900 752200,751900 415400,0 752200,-336800 752200,-751900zm546000 42408900l-3658600 0m3658600 0l3658800 0m-7317400 2476200c-683700,0 -1238200,-554500 -1238200,-1238200 0,-683700 554500,-1238000 1238200,-1238000m0 2476200c683700,0 1238200,554500 1238200,1238200 0,683700 -554500,1238000 -1238200,1238000m7317400 -2476200c683700,0 1238200,-554500 1238200,-1238200 0,-683700 -554500,-1238000 -1238200,-1238000m0 2476200c-683700,0 -1238200,554500 -1238200,1238200 0,683700 554500,1238000 1238200,1238000m-10976200 0l3658800 0m10976000 -27450200l0 27450200 -3658600 0m-3658800 -49948000l-3658600 0m3658600 0l3658800 0m-7317400 -2476400c-683700,0 -1238200,554500 -1238200,1238200 0,683700 554500,1238200 1238200,1238200m0 -2476400c683700,0 1238200,-554500 1238200,-1238200 0,-683700 -554500,-1238000 -1238200,-1238000m7317400 2476200c683700,0 1238200,554500 1238200,1238200 0,683700 -554500,1238200 -1238200,1238200m0 -2476400c-683700,0 -1238200,-554500 -1238200,-1238200 0,-683700 554500,-1238000 1238200,-1238000m-10976200 0l3658800 0m10976000 27450400l0 -27450400 -3658600 0m16731500 25291000c0,431200 -349600,781000 -781000,781000 -431200,0 -780700,-349800 -780700,-781000m1561700 0c0,-431200 349700,-780900 780900,-780900 431200,0 781000,349700 781000,780900m0 2159400l0 -2159400m-3123600 -1280500l0 1290300m2342600 -2071300c431500,0 781000,-349700 781000,-780900m-3123600 1561900c0,-431200 349500,-781000 780700,-781000m0 0l1561900 0m-780900 6380100c0,-431300 -349600,-780800 -781000,-780800 -431200,0 -780700,349500 -780700,780800m1561700 0c0,431400 349700,780900 780900,780900 431200,0 781000,-349500 781000,-780900m0 -2159200l0 2159200m-3123600 1280600l0 -1290400m2342600 2071200c431500,0 781000,349800 781000,781000m-3123600 -1561800c0,431300 349500,780800 780700,780800m0 0l1561900 0m-3251900 -24131700c0,-415500 336800,-752300 752200,-752300 415400,0 752200,336800 752200,752300 0,415100 -336800,751900 -752200,751900 -415400,0 -752200,-336800 -752200,-751900zm-2738300 0c0,-415500 336900,-752300 752200,-752300 415200,0 752000,336800 752000,752300 0,415100 -336800,751900 -752000,751900 -415300,0 -752200,-336800 -752200,-751900zm-546200 42408900l3658800 0m-3658800 0l-3658600 0m7317400 2476200c683700,0 1238000,-554500 1238000,-1238200 0,-683700 -554300,-1238000 -1238000,-1238000m0 2476200c-683700,0 -1238200,554500 -1238200,1238200 0,683700 554500,1238000 1238200,1238000m-7317400 -2476200c-683700,0 -1238200,-554500 -1238200,-1238200 0,-683700 554500,-1238000 1238200,-1238000m0 2476200c683700,0 1238200,554500 1238200,1238200 0,683700 -554500,1238000 -1238200,1238000m10976000 -22448600l0 22448600 -3658600 0m-10976200 0l3658800 0m3658600 -49948000l3658800 0m-3658800 0l-3658600 0m7317400 -2476400c683700,0 1238000,554500 1238000,1238200 0,683700 -554300,1238200 -1238000,1238200m0 -2476400c-683700,0 -1238200,-554500 -1238200,-1238200 0,-683700 554500,-1238000 1238200,-1238000m-7317400 2476200c-683700,0 -1238200,554500 -1238200,1238200 0,683700 554500,1238200 1238200,1238200m0 -2476400c683700,0 1238200,-554500 1238200,-1238200 0,-683700 -554500,-1238000 -1238200,-1238000m10976000 22448600l0 -22448600 -3658600 0m-10976200 0l3658800 0m12538100 25291000c0,431200 349800,781000 780800,781000 431400,0 781200,-349800 781200,-781000m-1562000 0c0,-431200 -349700,-780900 -780900,-780900 -431200,0 -781000,349700 -781000,780900m3123700 -1280500l0 1290300m-2342700 -2071300c-431200,0 -781000,-349700 -781000,-780900m3123700 1561900c0,-431200 -349600,-781000 -781000,-781000m0 0l-1561700 0m780900 6380100c0,-431300 349800,-780800 780800,-780800 431400,0 781200,349500 781200,780800m-1562000 0c0,431400 -349700,780900 -780900,780900 -431200,0 -781000,-349500 -781000,-780900m3123700 1280600l0 -1290400m-2342700 2071200c-431200,0 -781000,349800 -781000,781000m3123700 -1561800c0,431300 -349600,780800 -781000,780800m0 0l-1561700 0m3252000 -24131700c0,-415500 -336900,-752300 -752300,-752300 -415300,0 -752200,336800 -752200,752300 0,415100 336900,751900 752200,751900 415400,0 752300,-336800 752300,-751900zm2738200 0c0,-415500 -336800,-752300 -752000,-752300 -415400,0 -752200,336800 -752200,752300 0,415100 336800,751900 752200,751900 415200,0 752000,-336800 752000,-751900zm546200 42408900l-3658800 0m3658800 0l3658600 0m-7317400 2476200c-683700,0 -1238000,-554500 -1238000,-1238200 0,-683700 554300,-1238000 1238000,-1238000m0 2476200c683700,0 1238200,554500 1238200,1238200 0,683700 -554500,1238000 -1238200,1238000m7317400 -2476200c683700,0 1238200,-554500 1238200,-1238200 0,-683700 -554500,-1238000 -1238200,-1238000m0 2476200c-683600,0 -1238200,554500 -1238200,1238200 0,683700 554600,1238000 1238200,1238000m-10976000 0l3658600 0m10976200 -27450200l0 27450200 -3658800 0m-3658600 -49948000l-3658800 0m3658800 0l3658600 0m-7317400 -2476400c-683700,0 -1238000,554500 -1238000,1238200 0,683700 554300,1238200 1238000,1238200m0 -2476400c683700,0 1238200,-554500 1238200,-1238200 0,-683700 -554500,-1238000 -1238200,-1238000m7317400 2476200c683700,0 1238200,554500 1238200,1238200 0,683700 -554500,1238200 -1238200,1238200m0 -2476400c-683600,0 -1238200,-554500 -1238200,-1238200 0,-683700 554600,-1238000 1238200,-1238000m-10976000 0l3658600 0m10976200 27450400l0 -27450400 -3658800 0m16730900 25291000c0,431200 -350000,781000 -781200,781000 -431200,0 -779100,-349800 -779100,-781000m1560300 0c0,-431200 349900,-780900 781100,-780900 431200,0 781200,349700 781200,780900m0 2159400l0 -2159400m-3122600 -1280500l0 1290300m2341400 -2071300c431200,0 781200,-349700 781200,-780900m-3122600 1561900c0,-431200 347900,-781000 779100,-781000m0 0l1562300 0m-781100 6380100c0,-431300 -350000,-780800 -781200,-780800 -431200,0 -779100,349500 -779100,780800m1560300 0c0,431400 349900,780900 781100,780900 431200,0 781200,-349500 781200,-780900m0 -2159200l0 2159200m-3122600 1280600l0 -1290400m2341400 2071200c431200,0 781200,349800 781200,781000m-3122600 -1561800c0,431300 347900,780800 779100,780800m0 0l1562300 0m-3251700 -24131700c0,-415500 337400,-752300 752000,-752300 416600,0 752000,336800 752000,752300 0,415100 -335400,751900 -752000,751900 -414600,0 -752000,-336800 -752000,-751900zm-2737300 0c0,-415500 335400,-752300 752100,-752300 414500,0 752000,336800 752000,752300 0,415100 -337500,751900 -752000,751900 -416700,0 -752100,-336800 -752100,-751900zm-547800 42408900l3660000 0m-3660000 0l-3658000 0m7318000 2476200c683300,0 1237400,-554500 1237400,-1238200 0,-683700 -554100,-1238000 -1237400,-1238000m0 2476200c-683200,0 -1239400,554500 -1239400,1238200 0,683700 556200,1238000 1239400,1238000m-7318000 -2476200c-683500,0 -1238000,-554500 -1238000,-1238200 0,-683700 554500,-1238000 1238000,-1238000m0 2476200c683300,0 1237400,554500 1237400,1238200 0,683700 -554100,1238000 -1237400,1238000m10976000 -22448600l0 22448600 -3658000 0m-10976400 0l3658400 0m3658000 -49948000l3660000 0m-3660000 0l-3658000 0m7318000 -2476400c683300,0 1237400,554500 1237400,1238200 0,683700 -554100,1238200 -1237400,1238200m0 -2476400c-683200,0 -1239400,-554500 -1239400,-1238200 0,-683700 556200,-1238000 1239400,-1238000m-7318000 2476200c-683500,0 -1238000,554500 -1238000,1238200 0,683700 554500,1238200 1238000,1238200m0 -2476400c683300,0 1237400,-554500 1237400,-1238200 0,-683700 -554100,-1238000 -1237400,-1238000m10976000 22448600l0 -22448600 -3658000 0m-10976400 0l3658400 0m12538300 25291000c0,431200 350000,781000 781300,781000 431100,0 781100,-349800 781100,-781000m-1562400 0c0,-431200 -349900,-780900 -781100,-780900 -431200,0 -781200,349700 -781200,780900m3124700 -1280500l0 1290300m-2343500 -2071300c-431200,0 -781200,-349700 -781200,-780900m3124700 1561900c0,-431200 -350000,-781000 -781100,-781000m0 0l-1562400 0m781100 6380100c0,-431300 350000,-780800 781300,-780800 431100,0 781100,349500 781100,780800m-1562400 0c0,431400 -349900,780900 -781100,780900 -431200,0 -781200,-349500 -781200,-780900m3124700 1280600l0 -1290400m-2343500 2071200c-431200,0 -781200,349800 -781200,781000m3124700 -1561800c0,431300 -350000,780800 -781100,780800m0 0l-1562400 0m3251800 -24131700c0,-415500 -335400,-752300 -752000,-752300 -414600,0 -752100,336800 -752100,752300 0,415100 337500,751900 752100,751900 416600,0 752000,-336800 752000,-751900zm2739300 0c0,-415500 -337500,-752300 -752000,-752300 -416700,0 -752000,336800 -752000,752300 0,415100 335300,751900 752000,751900 414500,0 752000,-336800 752000,-751900zm545700 42408900l-3657900 0m3657900 0l3658000 0m-7315900 2476200c-685400,0 -1239500,-554500 -1239500,-1238200 0,-683700 554100,-1238000 1239500,-1238000m0 2476200c683200,0 1237300,554500 1237300,1238200 0,683700 -554100,1238000 -1237300,1238000m7315900 -2476200c683300,0 1239500,-554500 1239500,-1238200 0,-683700 -556200,-1238000 -1239500,-1238000m0 2476200c-683200,0 -1237300,554500 -1237300,1238200 0,683700 554100,1238000 1237300,1238000m-10976000 0l3660100 0m10976000 -27450200l0 27450200 -3660100 0m-3658000 -49948000l-3657900 0m3657900 0l3658000 0m-7315900 -2476400c-685400,0 -1239500,554500 -1239500,1238200 0,683700 554100,1238200 1239500,1238200m0 -2476400c683200,0 1237300,-554500 1237300,-1238200 0,-683700 -554100,-1238000 -1237300,-1238000m7315900 2476200c683300,0 1239500,554500 1239500,1238200 0,683700 -556200,1238200 -1239500,1238200m0 -2476400c-683200,0 -1237300,-554500 -1237300,-1238200 0,-683700 554100,-1238000 1237300,-1238000m-10976000 0l3660100 0m10976000 27450400l0 -27450400 -3660100 0m16731700 25291000c0,431200 -350000,781000 -781100,781000 -431300,0 -781300,-349800 -781300,-781000m1562400 0c0,-431200 349900,-780900 781200,-780900 431200,0 781100,349700 781100,780900m0 2159400l0 -2159400m-3124700 -1280500l0 1290300m2343600 -2071300c431200,0 781100,-349700 781100,-780900m-3124700 1561900c0,-431200 350000,-781000 781300,-781000m0 0l1562300 0m-781200 6380100c0,-431300 -350000,-780800 -781100,-780800 -431300,0 -781300,349500 -781300,780800m1562400 0c0,431400 349900,780900 781200,780900 431200,0 781100,-349500 781100,-780900m0 -2159200l0 2159200m-3124700 1280600l0 -1290400m2343600 2071200c431200,0 781100,349800 781100,781000m-3124700 -1561800c0,431300 350000,780800 781300,780800m0 0l1562300 0m-3251800 -24131700c0,-415500 337500,-752300 752000,-752300 414600,0 752000,336800 752000,752300 0,415100 -337400,751900 -752000,751900 -414500,0 -752000,-336800 -752000,-751900zm-2739300 0c0,-415500 337500,-752300 754100,-752300 414500,0 752000,336800 752000,752300 0,415100 -337500,751900 -752000,751900 -416600,0 -754100,-336800 -754100,-751900zm-545800 42408900l3660100 0m-3660100 0l-3657900 0m7318000 2476200c683200,0 1237300,-554500 1237300,-1238200 0,-683700 -554100,-1238000 -1237300,-1238000m0 2476200c-685400,0 -1239500,554500 -1239500,1238200 0,683700 554100,1238000 1239500,1238000m-7318000 -2476200c-683300,0 -1237400,-554500 -1237400,-1238200 0,-683700 554100,-1238000 1237400,-1238000m0 2476200c683200,0 1237400,554500 1237400,1238200 0,683700 -554200,1238000 -1237400,1238000m10975900 -22448600l0 22448600 -3657900 0m-10976000 0l3658000 0m3657900 -49948000l3660100 0m-3660100 0l-3657900 0m7318000 -2476400c683200,0 1237300,554500 1237300,1238200 0,683700 -554100,1238200 -1237300,1238200m0 -2476400c-685400,0 -1239500,-554500 -1239500,-1238200 0,-683700 554100,-1238000 1239500,-1238000m-7318000 2476200c-683300,0 -1237400,554500 -1237400,1238200 0,683700 554100,1238200 1237400,1238200m0 -2476400c683200,0 1237400,-554500 1237400,-1238200 0,-683700 -554200,-1238000 -1237400,-1238000m10975900 22448600l0 -22448600 -3657900 0m-10976000 0l3658000 0m12538300 25291000c0,431200 350000,781000 781200,781000 431200,0 781200,-349800 781200,-781000m-1562400 0c0,-431200 -350000,-780900 -781200,-780900 -431200,0 -781200,349700 -781200,780900m3124800 -1280500l0 1290300m-2343600 -2071300c-431200,0 -781200,-349700 -781200,-780900m3124800 1561900c0,-431200 -350000,-781000 -781200,-781000m0 0l-1562400 0m781200 6380100c0,-431300 350000,-780800 781200,-780800 431200,0 781200,349500 781200,780800m-1562400 0c0,431400 -350000,780900 -781200,780900 -431200,0 -781200,-349500 -781200,-780900m3124800 1280600l0 -1290400m-2343600 2071200c-431200,0 -781200,349800 -781200,781000m3124800 -1561800c0,431300 -350000,780800 -781200,780800m0 0l-1562400 0m3251800 -24131700c0,-415500 -337500,-752300 -752000,-752300 -414600,0 -752100,336800 -752100,752300 0,415100 337500,751900 752100,751900 414500,0 752000,-336800 752000,-751900zm2739300 0c0,-415500 -337500,-752300 -754100,-752300 -414600,0 -752000,336800 -752000,752300 0,415100 337400,751900 752000,751900 416600,0 754100,-336800 754100,-751900zm545800 42408900l-3660100 0m3660100 0l3658000 0m-7318100 2476200c-683200,0 -1237400,-554500 -1237400,-1238200 0,-683700 554200,-1238000 1237400,-1238000m0 2476200c685400,0 1239500,554500 1239500,1238200 0,683700 -554100,1238000 -1239500,1238000m7318100 -2476200c683200,0 1237300,-554500 1237300,-1238200 0,-683700 -554100,-1238000 -1237300,-1238000m0 2476200c-683300,0 -1237400,554500 -1237400,1238200 0,683700 554100,1238000 1237400,1238000m-10976100 0l3658000 0m10976100 -27450200l0 27450200 -3658000 0m-3658000 -49948000l-3660100 0m3660100 0l3658000 0m-7318100 -2476400c-683200,0 -1237400,554500 -1237400,1238200 0,683700 554200,1238200 1237400,1238200m0 -2476400c685400,0 1239500,-554500 1239500,-1238200 0,-683700 -554100,-1238000 -1239500,-1238000m7318100 2476200c683200,0 1237300,554500 1237300,1238200 0,683700 -554100,1238200 -1237300,1238200m0 -2476400c-683300,0 -1237400,-554500 -1237400,-1238200 0,-683700 554100,-1238000 1237400,-1238000m-10976100 0l3658000 0m10976100 27450400l0 -27450400 -3658000 0m-239377900 75239200c0,431300 -349700,781000 -781000,781000 -431200,0 -781000,-349700 -781000,-781000m1562000 0c0,-431400 349700,-781000 780900,-781000 431200,0 781000,349600 781000,781000m0 2159200l0 -2159200m-3123900 -1280700l0 1290500m2342900 -2071200c431200,0 781000,-349800 781000,-781000m-3123900 1561700c0,-431000 349800,-780700 781000,-780700m0 0l1561900 0m-780900 6379900c0,-431100 -349700,-780900 -781000,-780900 -431200,0 -781000,349800 -781000,780900m1562000 0c0,431300 349700,781000 780900,781000 431200,0 781000,-349700 781000,-781000m0 -2159300l0 2159300m-3123900 1280600l0 -1290300m2342900 2071200c431200,0 781000,349800 781000,781000m-3123900 -1561900c0,431400 349800,780900 781000,780900m0 0l1561900 0m-3252000 -24132000c0,-415300 336900,-752000 752200,-752000 415300,0 752200,336700 752200,752000 0,415400 -336900,752300 -752200,752300 -415300,0 -752200,-336900 -752200,-752300zm-2738300 0c0,-415300 336800,-752000 752200,-752000 415300,0 752100,336700 752100,752000 0,415400 -336800,752300 -752100,752300 -415400,0 -752200,-336900 -752200,-752300zm-546100 42409000l3658700 0m-3658700 0l-3658700 0m7317400 2476400c683700,0 1238100,-554500 1238100,-1238200 0,-683700 -554400,-1238200 -1238100,-1238200m0 2476400c-683700,0 -1238200,554500 -1238200,1238200 0,683700 554500,1238000 1238200,1238000m-7317400 -2476200c-683800,0 -1238100,-554500 -1238100,-1238200 0,-683700 554300,-1238200 1238100,-1238200m0 2476400c683600,0 1238100,554500 1238100,1238200 0,683700 -554500,1238000 -1238100,1238000m10976100 -22448600l0 22448600 -3658700 0m-10976100 -27450400l0 27450400 3658700 0m10976100 -32452000l0 -22448600m-14634800 27450200l0 -27450200m16196700 25291000c0,431300 349800,781000 781000,781000 431400,0 781000,-349700 781000,-781000m-1562000 0c0,-431400 -349500,-781000 -780800,-781000 -431200,0 -780900,349600 -780900,781000m3123700 -1280700l0 1290500m-2342800 -2071200c-431400,0 -780900,-349800 -780900,-781000m3123700 1561700c0,-431000 -349600,-780700 -781000,-780700m0 0l-1561800 0m780800 6379900c0,-431100 349800,-780900 781000,-780900 431400,0 781000,349800 781000,780900m-1562000 0c0,431300 -349500,781000 -780800,781000 -431200,0 -780900,-349700 -780900,-781000m3123700 1280600l0 -1290300m-2342800 2071200c-431400,0 -780900,349800 -780900,781000m3123700 -1561900c0,431400 -349600,780900 -781000,780900m0 0l-1561800 0m3251800 -24132000c0,-415300 -336600,-752000 -752000,-752000 -415400,0 -752200,336700 -752200,752000 0,415400 336800,752300 752200,752300 415400,0 752000,-336900 752000,-752300zm2738500 0c0,-415300 -336800,-752000 -752200,-752000 -415200,0 -752200,336700 -752200,752000 0,415400 337000,752300 752200,752300 415400,0 752200,-336900 752200,-752300zm546000 42409000l-3658600 0m3658600 0l3658800 0m-7317400 2476400c-683700,0 -1238200,-554500 -1238200,-1238200 0,-683700 554500,-1238200 1238200,-1238200m0 2476400c683700,0 1238200,554500 1238200,1238200 0,683700 -554500,1238000 -1238200,1238000m7317400 -2476200c683700,0 1238200,-554500 1238200,-1238200 0,-683700 -554500,-1238200 -1238200,-1238200m0 2476400c-683700,0 -1238200,554500 -1238200,1238200 0,683700 554500,1238000 1238200,1238000m-10976000 0l3658600 0m10976000 -27450400l0 27450400 -3658600 0m3658600 -27450400l0 -27450200m13072900 25291000c0,431300 -349600,781000 -780800,781000 -431400,0 -781100,-349700 -781100,-781000m1561900 0c0,-431400 349700,-781000 781000,-781000 431100,0 780900,349600 780900,781000m0 2159200l0 -2159200m-3123700 -1280700l0 1290500m2342800 -2071200c431400,0 780900,-349800 780900,-781000m-3123700 1561700c0,-431000 349600,-780700 781000,-780700m0 0l1561800 0m-781000 6379900c0,-431100 -349600,-780900 -780800,-780900 -431400,0 -781100,349800 -781100,780900m1561900 0c0,431300 349700,781000 781000,781000 431100,0 780900,-349700 780900,-781000m0 -2159300l0 2159300m-3123700 1280600l0 -1290300m2342800 2071200c431400,0 780900,349800 780900,781000m-3123700 -1561900c0,431400 349600,780900 781000,780900m0 0l1561800 0m-3252000 -24132000c0,-415300 336800,-752000 752200,-752000 415400,0 752200,336700 752200,752000 0,415400 -336800,752300 -752200,752300 -415400,0 -752200,-336900 -752200,-752300zm-2738300 0c0,-415300 336800,-752000 752200,-752000 415200,0 752000,336700 752000,752000 0,415400 -336800,752300 -752000,752300 -415400,0 -752200,-336900 -752200,-752300zm-546200 42409000l3658800 0m-3658800 0l-3658600 0m7317400 2476400c683700,0 1238200,-554500 1238200,-1238200 0,-683700 -554500,-1238200 -1238200,-1238200m0 2476400c-683700,0 -1238200,554500 -1238200,1238200 0,683700 554500,1238000 1238200,1238000m-7317400 -2476200c-683900,0 -1238200,-554500 -1238200,-1238200 0,-683700 554300,-1238200 1238200,-1238200m0 2476400c683700,0 1238200,554500 1238200,1238200 0,683700 -554500,1238000 -1238200,1238000m10976000 -22448600l0 22448600 -3658600 0m-10976200 0l3658800 0m10976000 -32452000l0 -22448600m1562100 25291000c0,431300 349600,781000 780800,781000 431400,0 781100,-349700 781100,-781000m-1561900 0c0,-431400 -349700,-781000 -781000,-781000 -431100,0 -780900,349600 -780900,781000m3123700 -1280700l0 1290500m-2342800 -2071200c-431400,0 -780900,-349800 -780900,-781000m3123700 1561700c0,-431000 -349600,-780700 -781000,-780700m0 0l-1561800 0m781000 6379900c0,-431100 349600,-780900 780800,-780900 431400,0 781100,349800 781100,780900m-1561900 0c0,431300 -349700,781000 -781000,781000 -431100,0 -780900,-349700 -780900,-781000m3123700 1280600l0 -1290300m-2342800 2071200c-431400,0 -780900,349800 -780900,781000m3123700 -1561900c0,431400 -349600,780900 -781000,780900m0 0l-1561800 0m3252100 -24132000c0,-415300 -336900,-752000 -752300,-752000 -415400,0 -752200,336700 -752200,752000 0,415400 336800,752300 752200,752300 415400,0 752300,-336900 752300,-752300zm2738200 0c0,-415300 -336800,-752000 -752200,-752000 -415100,0 -752000,336700 -752000,752000 0,415400 336900,752300 752000,752300 415400,0 752200,-336900 752200,-752300zm546200 42409000l-3658800 0m3658800 0l3658600 0m-7317400 2476400c-683700,0 -1238200,-554500 -1238200,-1238200 0,-683700 554500,-1238200 1238200,-1238200m0 2476400c683700,0 1238200,554500 1238200,1238200 0,683700 -554500,1238000 -1238200,1238000m7317400 -2476200c683900,0 1238300,-554500 1238300,-1238200 0,-683700 -554400,-1238200 -1238300,-1238200m0 2476400c-683700,0 -1238200,554500 -1238200,1238200 0,683700 554500,1238000 1238200,1238000m-10976000 0l3658600 0m10976200 -27450400l0 27450400 -3658800 0m3658800 -27450400l0 -27450200m13072900 25291000c0,431300 -349800,781000 -781000,781000 -431200,0 -780900,-349700 -780900,-781000m1561900 0c0,-431400 349500,-781000 781000,-781000 431000,0 780900,349600 780900,781000m0 2159200l0 -2159200m-3123800 -1280700l0 1290500m2342900 -2071200c431200,0 780900,-349800 780900,-781000m-3123800 1561700c0,-431000 349700,-780700 780900,-780700m0 0l1562000 0m-781000 6379900c0,-431100 -349800,-780900 -781000,-780900 -431200,0 -780900,349800 -780900,780900m1561900 0c0,431300 349500,781000 781000,781000 431000,0 780900,-349700 780900,-781000m0 -2159300l0 2159300m-3123800 1280600l0 -1290300m2342900 2071200c431200,0 780900,349800 780900,781000m-3123800 -1561900c0,431400 349700,780900 780900,780900m0 0l1562000 0m-3252000 -24132000c0,-415300 336600,-752000 752000,-752000 415400,0 752200,336700 752200,752000 0,415400 -336800,752300 -752200,752300 -415400,0 -752000,-336900 -752000,-752300zm-2738500 0c0,-415300 336800,-752000 752200,-752000 415400,0 752300,336700 752300,752000 0,415400 -336900,752300 -752300,752300 -415400,0 -752200,-336900 -752200,-752300zm-546000 42409000l3658600 0m-3658600 0l-3658800 0m7317400 2476400c683700,0 1238200,-554500 1238200,-1238200 0,-683700 -554500,-1238200 -1238200,-1238200m0 2476400c-683600,0 -1238200,554500 -1238200,1238200 0,683700 554600,1238000 1238200,1238000m-7317400 -2476200c-683600,0 -1238200,-554500 -1238200,-1238200 0,-683700 554600,-1238200 1238200,-1238200m0 2476400c683700,0 1238200,554500 1238200,1238200 0,683700 -554500,1238000 -1238200,1238000m10976200 -22448600l0 22448600 -3658800 0m-10976000 0l3658600 0m10976200 -32452000l0 -22448600m1562000 25291000c0,431300 349700,781000 780900,781000 431200,0 781000,-349700 781000,-781000m-1561900 0c0,-431400 -349800,-781000 -781000,-781000 -431200,0 -781000,349600 -781000,781000m3123900 -1280700l0 1290500m-2342900 -2071200c-431200,0 -781000,-349800 -781000,-781000m3123900 1561700c0,-431000 -349800,-780700 -781000,-780700m0 0l-1561900 0m781000 6379900c0,-431100 349700,-780900 780900,-780900 431200,0 781000,349800 781000,780900m-1561900 0c0,431300 -349800,781000 -781000,781000 -431200,0 -781000,-349700 -781000,-781000m3123900 1280600l0 -1290300m-2342900 2071200c-431200,0 -781000,349800 -781000,781000m3123900 -1561900c0,431400 -349800,780900 -781000,780900m0 0l-1561900 0m3252000 -24132000c0,-415300 -336900,-752000 -752200,-752000 -415200,0 -752000,336700 -752000,752000 0,415400 336800,752300 752000,752300 415300,0 752200,-336900 752200,-752300zm2738500 0c0,-415300 -336900,-752000 -752300,-752000 -415300,0 -752200,336700 -752200,752000 0,415400 336900,752300 752200,752300 415400,0 752300,-336900 752300,-752300zm545900 42409000l-3658800 0m3658800 0l3658600 0m-7317400 2476400c-683700,0 -1238000,-554500 -1238000,-1238200 0,-683700 554300,-1238200 1238000,-1238200m0 2476400c683700,0 1238200,554500 1238200,1238200 0,683700 -554500,1238000 -1238200,1238000m7317400 -2476200c683900,0 1238300,-554500 1238300,-1238200 0,-683700 -554400,-1238200 -1238300,-1238200m0 2476400c-683400,0 -1238000,554500 -1238000,1238200 0,683700 554600,1238000 1238000,1238000m-10976000 0l3658600 0m10976200 -27450400l0 27450400 -3658800 0m3658800 -27450400l0 -27450200m13072900 25291000c0,431300 -349800,781000 -780900,781000 -431300,0 -781000,-349700 -781000,-781000m1561900 0c0,-431400 349600,-781000 781000,-781000 431200,0 781000,349600 781000,781000m0 2159200l0 -2159200m-3123900 -1280700l0 1290500m2342900 -2071200c431200,0 781000,-349800 781000,-781000m-3123900 1561700c0,-431000 349700,-780700 781000,-780700m0 0l1561900 0m-781000 6379900c0,-431100 -349800,-780900 -780900,-780900 -431300,0 -781000,349800 -781000,780900m1561900 0c0,431300 349600,781000 781000,781000 431200,0 781000,-349700 781000,-781000m0 -2159300l0 2159300m-3123900 1280600l0 -1290300m2342900 2071200c431200,0 781000,349800 781000,781000m-3123900 -1561900c0,431400 349700,780900 781000,780900m0 0l1561900 0m-3252000 -24132000c0,-415300 336800,-752000 752200,-752000 415200,0 752000,336700 752000,752000 0,415400 -336800,752300 -752000,752300 -415400,0 -752200,-336900 -752200,-752300zm-2738500 0c0,-415300 336900,-752000 752300,-752000 415300,0 752200,336700 752200,752000 0,415400 -336900,752300 -752200,752300 -415400,0 -752300,-336900 -752300,-752300zm-545900 42409000l3658500 0m-3658500 0l-3658800 0m7317300 2476400c684000,0 1238300,-554500 1238300,-1238200 0,-683700 -554300,-1238200 -1238300,-1238200m0 2476400c-683600,0 -1238000,554500 -1238000,1238200 0,683700 554400,1238000 1238000,1238000m-7317300 -2476200c-683700,0 -1238100,-554500 -1238100,-1238200 0,-683700 554400,-1238200 1238100,-1238200m0 2476400c683600,0 1238200,554500 1238200,1238200 0,683700 -554600,1238000 -1238200,1238000m10976200 -22448600l0 22448600 -3658900 0m-10976000 0l3658700 0m10976200 -32452000l0 -22448600m1561900 25291000c0,431300 349700,781000 781000,781000 431100,0 780900,-349700 780900,-781000m-1561900 0c0,-431400 -349800,-781000 -780800,-781000 -431400,0 -781100,349600 -781100,781000m3123800 -1280700l0 1290500m-2342900 -2071200c-431200,0 -780900,-349800 -780900,-781000m3123800 1561700c0,-431000 -349800,-780700 -780900,-780700m0 0l-1562000 0m781000 6379900c0,-431100 349700,-780900 781000,-780900 431100,0 780900,349800 780900,780900m-1561900 0c0,431300 -349800,781000 -780800,781000 -431400,0 -781100,-349700 -781100,-781000m3123800 1280600l0 -1290300m-2342900 2071200c-431200,0 -780900,349800 -780900,781000m3123800 -1561900c0,431400 -349800,780900 -780900,780900m0 0l-1562000 0m3252000 -24132000c0,-415300 -336600,-752000 -752000,-752000 -415400,0 -752200,336700 -752200,752000 0,415400 336800,752300 752200,752300 415400,0 752000,-336900 752000,-752300zm2738500 0c0,-415300 -336900,-752000 -752300,-752000 -415300,0 -752200,336700 -752200,752000 0,415400 336900,752300 752200,752300 415400,0 752300,-336900 752300,-752300zm545900 42409000l-3658500 0m3658500 0l3658900 0m-7317400 2476400c-683700,0 -1238200,-554500 -1238200,-1238200 0,-683700 554500,-1238200 1238200,-1238200m0 2476400c683600,0 1238200,554500 1238200,1238200 0,683700 -554600,1238000 -1238200,1238000m7317400 -2476200c683600,0 1238200,-554500 1238200,-1238200 0,-683700 -554600,-1238200 -1238200,-1238200m0 2476400c-683700,0 -1238200,554500 -1238200,1238200 0,683700 554500,1238000 1238200,1238000m-10976200 0l3658800 0m10975900 -27450400l0 27450400 -3658500 0m3658500 -27450400l0 -27450200m13073000 25291000c0,431300 -349600,781000 -781000,781000 -431300,0 -781000,-349700 -781000,-781000m1562000 0c0,-431400 349700,-781000 780900,-781000 431200,0 781000,349600 781000,781000m0 2159200l0 -2159200m-3123900 -1280700l0 1290500m2342900 -2071200c431400,0 781000,-349800 781000,-781000m-3123900 1561700c0,-431000 349700,-780700 781000,-780700m0 0l1561900 0m-780900 6379900c0,-431100 -349600,-780900 -781000,-780900 -431300,0 -781000,349800 -781000,780900m1562000 0c0,431300 349700,781000 780900,781000 431200,0 781000,-349700 781000,-781000m0 -2159300l0 2159300m-3123900 1280600l0 -1290300m2342900 2071200c431400,0 781000,349800 781000,781000m-3123900 -1561900c0,431400 349700,780900 781000,780900m0 0l1561900 0m-3252000 -24132000c0,-415300 336800,-752000 752300,-752000 415300,0 751900,336700 751900,752000 0,415400 -336600,752300 -751900,752300 -415500,0 -752300,-336900 -752300,-752300zm-2738300 0c0,-415300 336700,-752000 752300,-752000 415100,0 752000,336700 752000,752000 0,415400 -336900,752300 -752000,752300 -415600,0 -752300,-336900 -752300,-752300zm-546100 42409000l3658600 0m-3658600 0l-3658600 0m7317200 2476400c683900,0 1238200,-554500 1238200,-1238200 0,-683700 -554300,-1238200 -1238200,-1238200m0 2476400c-683500,0 -1238100,554500 -1238100,1238200 0,683700 554600,1238000 1238100,1238000m-7317200 -2476200c-683900,0 -1238300,-554500 -1238300,-1238200 0,-683700 554400,-1238200 1238300,-1238200m0 2476400c683600,0 1238000,554500 1238000,1238200 0,683700 -554400,1238000 -1238000,1238000m10976000 -22448600l0 22448600 -3658800 0m-10976100 0l3658900 0m10976000 -32452000l0 -22448600m1562100 25291000c0,431300 349500,781000 780800,781000 431400,0 781100,-349700 781100,-781000m-1561900 0c0,-431400 -349700,-781000 -781000,-781000 -431100,0 -780900,349600 -780900,781000m3123600 -1280700l0 1290500m-2342900 -2071200c-431200,0 -780700,-349800 -780700,-781000m3123600 1561700c0,-431000 -349500,-780700 -780900,-780700m0 0l-1562000 0m781200 6379900c0,-431100 349500,-780900 780800,-780900 431400,0 781100,349800 781100,780900m-1561900 0c0,431300 -349700,781000 -781000,781000 -431100,0 -780900,-349700 -780900,-781000m3123600 1280600l0 -1290300m-2342900 2071200c-431200,0 -780700,349800 -780700,781000m3123600 -1561900c0,431400 -349500,780900 -780900,780900m0 0l-1562000 0m3252200 -24132000c0,-415300 -336800,-752000 -752200,-752000 -415400,0 -752200,336700 -752200,752000 0,415400 336800,752300 752200,752300 415400,0 752200,-336900 752200,-752300zm2738300 0c0,-415300 -336900,-752000 -752200,-752000 -415400,0 -752000,336700 -752000,752000 0,415400 336600,752300 752000,752300 415300,0 752200,-336900 752200,-752300zm546000 42409000l-3658600 0m3658600 0l3658800 0m-7317400 2476400c-683700,0 -1238200,-554500 -1238200,-1238200 0,-683700 554500,-1238200 1238200,-1238200m0 2476400c683700,0 1238200,554500 1238200,1238200 0,683700 -554500,1238000 -1238200,1238000m7317400 -2476200c683700,0 1238200,-554500 1238200,-1238200 0,-683700 -554500,-1238200 -1238200,-1238200m0 2476400c-683700,0 -1238200,554500 -1238200,1238200 0,683700 554500,1238000 1238200,1238000m-10976000 0l3658600 0m10976000 -27450400l0 27450400 -3658600 0m3658600 -27450400l0 -27450200m13072900 25291000c0,431300 -349600,781000 -781000,781000 -431000,0 -780800,-349700 -780800,-781000m1561800 0c0,-431400 349700,-781000 781100,-781000 431000,0 780800,349600 780800,781000m0 2159200l0 -2159200m-3123700 -1280700l0 1290500m2342900 -2071200c431200,0 780800,-349800 780800,-781000m-3123700 1561700c0,-431000 349800,-780700 780800,-780700m0 0l1562100 0m-781100 6379900c0,-431100 -349600,-780900 -781000,-780900 -431000,0 -780800,349800 -780800,780900m1561800 0c0,431300 349700,781000 781100,781000 431000,0 780800,-349700 780800,-781000m0 -2159300l0 2159300m-3123700 1280600l0 -1290300m2342900 2071200c431200,0 780800,349800 780800,781000m-3123700 -1561900c0,431400 349800,780900 780800,780900m0 0l1562100 0m-3252200 -24132000c0,-415300 336900,-752000 752300,-752000 415300,0 752200,336700 752200,752000 0,415400 -336900,752300 -752200,752300 -415400,0 -752300,-336900 -752300,-752300zm-2738200 0c0,-415300 336800,-752000 752200,-752000 415400,0 752000,336700 752000,752000 0,415400 -336600,752300 -752000,752300 -415400,0 -752200,-336900 -752200,-752300zm-546200 42409000l3658800 0m-3658800 0l-3658600 0m7317400 2476400c683700,0 1238200,-554500 1238200,-1238200 0,-683700 -554500,-1238200 -1238200,-1238200m0 2476400c-683700,0 -1238200,554500 -1238200,1238200 0,683700 554500,1238000 1238200,1238000m-7317400 -2476200c-683700,0 -1238200,-554500 -1238200,-1238200 0,-683700 554500,-1238200 1238200,-1238200m0 2476400c683600,0 1238200,554500 1238200,1238200 0,683700 -554600,1238000 -1238200,1238000m10976000 -22448600l0 22448600 -3658600 0m-10976200 0l3658800 0m10976000 -32452000l0 -22448600m1562100 25291000c0,431300 349800,781000 781000,781000 431200,0 781000,-349700 781000,-781000m-1562000 0c0,-431400 -349700,-781000 -780900,-781000 -431200,0 -781000,349600 -781000,781000m3123600 -1280700l0 1290500m-2342600 -2071200c-431200,0 -781000,-349800 -781000,-781000m3123600 1561700c0,-431000 -349500,-780700 -780700,-780700m0 0l-1561900 0m780900 6379900c0,-431100 349800,-780900 781000,-780900 431200,0 781000,349800 781000,780900m-1562000 0c0,431300 -349700,781000 -780900,781000 -431200,0 -781000,-349700 -781000,-781000m3123600 1280600l0 -1290300m-2342600 2071200c-431200,0 -781000,349800 -781000,781000m3123600 -1561900c0,431400 -349500,780900 -780700,780900m0 0l-1561900 0m3251900 -24132000c0,-415300 -336800,-752000 -752200,-752000 -415200,0 -752200,336700 -752200,752000 0,415400 337000,752300 752200,752300 415400,0 752200,-336900 752200,-752300zm2738500 0c0,-415300 -337100,-752000 -752200,-752000 -415400,0 -752200,336700 -752200,752000 0,415400 336800,752300 752200,752300 415100,0 752200,-336900 752200,-752300zm546000 42409000l-3658800 0m3658800 0l3658600 0m-7317400 2476400c-683700,0 -1238000,-554500 -1238000,-1238200 0,-683700 554300,-1238200 1238000,-1238200m0 2476400c683700,0 1238200,554500 1238200,1238200 0,683700 -554500,1238000 -1238200,1238000m7317400 -2476200c683900,0 1238200,-554500 1238200,-1238200 0,-683700 -554300,-1238200 -1238200,-1238200m0 2476400c-683700,0 -1238000,554500 -1238000,1238200 0,683700 554300,1238000 1238000,1238000m-10976000 0l3658600 0m10976200 -27450400l0 27450400 -3658800 0m3658800 -27450400l0 -27450200m13072900 25291000c0,431300 -349800,781000 -781000,781000 -431200,0 -780900,-349700 -780900,-781000m1561900 0c0,-431400 349600,-781000 781000,-781000 431100,0 780900,349600 780900,781000m0 2159200l0 -2159200m-3123800 -1280700l0 1290500m2342900 -2071200c431100,0 780900,-349800 780900,-781000m-3123800 1561700c0,-431000 349700,-780700 780900,-780700m0 0l1562000 0m-781000 6379900c0,-431100 -349800,-780900 -781000,-780900 -431200,0 -780900,349800 -780900,780900m1561900 0c0,431300 349600,781000 781000,781000 431100,0 780900,-349700 780900,-781000m0 -2159300l0 2159300m-3123800 1280600l0 -1290300m2342900 2071200c431100,0 780900,349800 780900,781000m-3123800 -1561900c0,431400 349700,780900 780900,780900m0 0l1562000 0m-3252000 -24132000c0,-415300 336800,-752000 752000,-752000 415300,0 752200,336700 752200,752000 0,415400 -336900,752300 -752200,752300 -415200,0 -752000,-336900 -752000,-752300zm-2738500 0c0,-415300 336800,-752000 752200,-752000 415400,0 752200,336700 752200,752000 0,415400 -336800,752300 -752200,752300 -415400,0 -752200,-336900 -752200,-752300zm-546000 42409000l3658600 0m-3658600 0l-3658800 0m7317400 2476400c683700,0 1238200,-554500 1238200,-1238200 0,-683700 -554500,-1238200 -1238200,-1238200m0 2476400c-683700,0 -1238000,554500 -1238000,1238200 0,683700 554300,1238000 1238000,1238000m-7317400 -2476200c-683700,0 -1238000,-554500 -1238000,-1238200 0,-683700 554300,-1238200 1238000,-1238200m0 2476400c683700,0 1238200,554500 1238200,1238200 0,683700 -554500,1238000 -1238200,1238000m10976200 -22448600l0 22448600 -3658800 0m-10976000 0l3658600 0m10976200 -32452000l0 -22448600m1562000 25291000c0,431300 349700,781000 780900,781000 431200,0 781000,-349700 781000,-781000m-1561900 0c0,-431400 -349800,-781000 -780800,-781000 -431400,0 -781200,349600 -781200,781000m3123900 -1280700l0 1290500m-2342900 -2071200c-431200,0 -781000,-349800 -781000,-781000m3123900 1561700c0,-431000 -349800,-780700 -781000,-780700m0 0l-1561900 0m781000 6379900c0,-431100 349700,-780900 780900,-780900 431200,0 781000,349800 781000,780900m-1561900 0c0,431300 -349800,781000 -780800,781000 -431400,0 -781200,-349700 -781200,-781000m3123900 1280600l0 -1290300m-2342900 2071200c-431200,0 -781000,349800 -781000,781000m3123900 -1561900c0,431400 -349800,780900 -781000,780900m0 0l-1561900 0m3251900 -24132000c0,-415300 -336800,-752000 -752000,-752000 -415400,0 -752200,336700 -752200,752000 0,415400 336800,752300 752200,752300 415200,0 752000,-336900 752000,-752300zm2738500 0c0,-415300 -336800,-752000 -752200,-752000 -415400,0 -752200,336700 -752200,752000 0,415400 336800,752300 752200,752300 415400,0 752200,-336900 752200,-752300zm546000 42409000l-3658600 0m3658600 0l3658400 0m-7317000 2476400c-683700,0 -1238200,-554500 -1238200,-1238200 0,-683700 554500,-1238200 1238200,-1238200m0 2476400c683700,0 1238000,554500 1238000,1238200 0,683700 -554300,1238000 -1238000,1238000m7317000 -2476200c683300,0 1239500,-554500 1239500,-1238200 0,-683700 -556200,-1238200 -1239500,-1238200m0 2476400c-683300,0 -1237800,554500 -1237800,1238200 0,683700 554500,1238000 1237800,1238000m-10975800 0l3658800 0m10977100 -27450400l0 27450400 -3660100 0m3660100 -27450400l0 -27450200m13071600 25291000c0,431300 -350000,781000 -781200,781000 -431200,0 -781200,-349700 -781200,-781000m1562400 0c0,-431400 349900,-781000 781200,-781000 431200,0 781100,349600 781100,781000m0 2159200l0 -2159200m-3124700 -1280700l0 1290500m2343600 -2071200c431200,0 781100,-349800 781100,-781000m-3124700 1561700c0,-431000 350000,-780700 781200,-780700m0 0l1562400 0m-781200 6379900c0,-431100 -350000,-780900 -781200,-780900 -431200,0 -781200,349800 -781200,780900m1562400 0c0,431300 349900,781000 781200,781000 431200,0 781100,-349700 781100,-781000m0 -2159300l0 2159300m-3124700 1280600l0 -1290300m2343600 2071200c431200,0 781100,349800 781100,781000m-3124700 -1561900c0,431400 350000,780900 781200,780900m0 0l1562400 0m-3251800 -24132000c0,-415300 337500,-752000 752000,-752000 414600,0 752000,336700 752000,752000 0,415400 -337400,752300 -752000,752300 -414500,0 -752000,-336900 -752000,-752300zm-2739300 0c0,-415300 337500,-752000 752000,-752000 416600,0 754100,336700 754100,752000 0,415400 -337500,752300 -754100,752300 -414500,0 -752000,-336900 -752000,-752300zm-545800 42409000l3660100 0m-3660100 0l-3658000 0m7318100 2476400c683200,0 1237300,-554500 1237300,-1238200 0,-683700 -554100,-1238200 -1237300,-1238200m0 2476400c-685400,0 -1239500,554500 -1239500,1238200 0,683700 554100,1238000 1239500,1238000m-7318100 -2476200c-683200,0 -1239400,-554500 -1239400,-1238200 0,-683700 556200,-1238200 1239400,-1238200m0 2476400c683300,0 1237400,554500 1237400,1238200 0,683700 -554100,1238000 -1237400,1238000m10976000 -22448600l0 22448600 -3657900 0m-10976000 0l3657900 0m10976000 -32452000l0 -22448600m1562400 25291000c0,431300 350000,781000 781100,781000 431300,0 781300,-349700 781300,-781000m-1562400 0c0,-431400 -350000,-781000 -781200,-781000 -431200,0 -781200,349600 -781200,781000m3124800 -1280700l0 1290500m-2343600 -2071200c-431200,0 -781200,-349800 -781200,-781000m3124800 1561700c0,-431000 -350000,-780700 -781300,-780700m0 0l-1562300 0m781200 6379900c0,-431100 350000,-780900 781100,-780900 431300,0 781300,349800 781300,780900m-1562400 0c0,431300 -350000,781000 -781200,781000 -431200,0 -781200,-349700 -781200,-781000m3124800 1280600l0 -1290300m-2343600 2071200c-431200,0 -781200,349800 -781200,781000m3124800 -1561900c0,431400 -350000,780900 -781300,780900m0 0l-1562300 0m3251800 -24132000c0,-415300 -337500,-752000 -752100,-752000 -414500,0 -751900,336700 -751900,752000 0,415400 337400,752300 751900,752300 414600,0 752100,-336900 752100,-752300zm2739300 0c0,-415300 -337500,-752000 -754100,-752000 -414500,0 -752000,336700 -752000,752000 0,415400 337500,752300 752000,752300 416600,0 754100,-336900 754100,-752300zm545800 42409000l-3660100 0m3660100 0l3658000 0m-7318100 2476400c-683200,0 -1237300,-554500 -1237300,-1238200 0,-683700 554100,-1238200 1237300,-1238200m0 2476400c685400,0 1239500,554500 1239500,1238200 0,683700 -554100,1238000 -1239500,1238000m7318100 -2476200c683200,0 1237400,-554500 1237400,-1238200 0,-683700 -554200,-1238200 -1237400,-1238200m0 2476400c-683300,0 -1237400,554500 -1237400,1238200 0,683700 554100,1238000 1237400,1238000m-10976100 0l3658000 0m10976000 -27450400l0 27450400 -3657900 0m3657900 -27450400l0 -27450200m13073800 25291000c0,431300 -350000,781000 -781300,781000 -431100,0 -781100,-349700 -781100,-781000m1562400 0c0,-431400 349900,-781000 781100,-781000 431200,0 781200,349600 781200,781000m0 2159200l0 -2159200m-3124700 -1280700l0 1290500m2343500 -2071200c431200,0 781200,-349800 781200,-781000m-3124700 1561700c0,-431000 350000,-780700 781100,-780700m0 0l1562400 0m-781100 6379900c0,-431100 -350000,-780900 -781300,-780900 -431100,0 -781100,349800 -781100,780900m1562400 0c0,431300 349900,781000 781100,781000 431200,0 781200,-349700 781200,-781000m0 -2159300l0 2159300m-3124700 1280600l0 -1290300m2343500 2071200c431200,0 781200,349800 781200,781000m-3124700 -1561900c0,431400 350000,780900 781100,780900m0 0l1562400 0m-3251800 -24132000c0,-415300 335400,-752000 752000,-752000 414600,0 752100,336700 752100,752000 0,415400 -337500,752300 -752100,752300 -416600,0 -752000,-336900 -752000,-752300zm-2739300 0c0,-415300 337500,-752000 752000,-752000 416700,0 752000,336700 752000,752000 0,415400 -335300,752300 -752000,752300 -414500,0 -752000,-336900 -752000,-752300zm-545800 42409000l3658000 0m-3658000 0l-3657900 0m7315900 2476400c685400,0 1239500,-554500 1239500,-1238200 0,-683700 -554100,-1238200 -1239500,-1238200m0 2476400c-683200,0 -1237400,554500 -1237400,1238200 0,683700 554200,1238000 1237400,1238000m-7315900 -2476200c-685400,0 -1239500,-554500 -1239500,-1238200 0,-683700 554100,-1238200 1239500,-1238200m0 2476400c683200,0 1237300,554500 1237300,1238200 0,683700 -554100,1238000 -1237300,1238000m10976000 -22448600l0 22448600 -3660100 0m-10976000 0l3660100 0m10976000 -32452000l0 -22448600m7316000 49948000l-3658000 0m0 2476400c-683300,0 -1237400,-554500 -1237400,-1238200 0,-683700 554100,-1238200 1237400,-1238200m0 2476400c683200,0 1239400,554500 1239400,1238200 0,683700 -556200,1238000 -1239400,1238000m-3658000 0l3658000 0m-246695400 20338500c0,431400 -349600,780900 -780900,780900 -431200,0 -780900,-349500 -780900,-780900m1561800 0c0,-431300 349800,-781000 781000,-781000 431200,0 781000,349700 781000,781000m0 2159300l0 -2159300m-3123800 -1280600l0 1290300m2342800 -2071000c431300,0 781000,-349800 781000,-781200m-3123800 1561900c0,-431200 349700,-780900 780900,-780900m0 0l1561900 0m-781000 6380100c0,-431100 -349600,-780900 -780900,-780900 -431200,0 -780900,349800 -780900,780900m1561800 0c0,431300 349800,781000 781000,781000 431200,0 781000,-349700 781000,-781000m0 -2159300l0 2159300m-3123800 1280600l0 -1290300m2342800 2071200c431300,0 781000,349800 781000,781000m-3123800 -1561900c0,431200 349700,780900 780900,780900m0 0l1561900 0m-3252000 -24132000c0,-415400 336900,-752200 752200,-752200 415300,0 752200,336800 752200,752200 0,415400 -336900,752300 -752200,752300 -415300,0 -752200,-336900 -752200,-752300zm-2738300 0c0,-415400 336800,-752200 752200,-752200 415300,0 752100,336800 752100,752200 0,415400 -336800,752300 -752100,752300 -415400,0 -752200,-336900 -752200,-752300zm-546100 42409100l3658700 0m-3658700 0l-3658700 0m7317400 2476200c683700,0 1238100,-554500 1238100,-1238200 0,-683700 -554400,-1238000 -1238100,-1238000m0 2476200c-683700,0 -1238100,554500 -1238100,1238200 0,683700 554400,1238100 1238100,1238100m-7317400 -2476300c-683700,0 -1238200,-554500 -1238200,-1238200 0,-683700 554500,-1238000 1238200,-1238000m0 2476200c683700,0 1238200,554500 1238200,1238200 0,683700 -554500,1238100 -1238200,1238100m10976100 -22448600l0 22448600 -3658700 0m-10976100 -27450400l0 27450400 3658700 0m10976100 -32452200l0 -22448600m-14634800 27450400l0 -27450400m16196800 25291100c0,431400 349800,780900 780900,780900 431300,0 781000,-349500 781000,-780900m-1561900 0c0,-431300 -349700,-781000 -780900,-781000 -431200,0 -780900,349700 -780900,781000m3123700 -1280600l0 1290300m-2342800 -2071000c-431300,0 -780900,-349800 -780900,-781200m3123700 1561900c0,-431200 -349700,-780900 -781000,-780900m0 0l-1561800 0m780900 6380100c0,-431100 349800,-780900 780900,-780900 431300,0 781000,349800 781000,780900m-1561900 0c0,431300 -349700,781000 -780900,781000 -431200,0 -780900,-349700 -780900,-781000m3123700 1280600l0 -1290300m-2342800 2071200c-431300,0 -780900,349800 -780900,781000m3123700 -1561900c0,431200 -349700,780900 -781000,780900m0 0l-1561800 0m3251900 -24132000c0,-415400 -336800,-752200 -752100,-752200 -415400,0 -752200,336800 -752200,752200 0,415400 336800,752300 752200,752300 415300,0 752100,-336900 752100,-752300zm2738400 0c0,-415400 -336800,-752200 -752200,-752200 -415300,0 -752100,336800 -752100,752200 0,415400 336800,752300 752100,752300 415400,0 752200,-336900 752200,-752300zm546200 42409100l-3658800 0m3658800 0l3658600 0m-7317400 2476200c-683700,0 -1238200,-554500 -1238200,-1238200 0,-683700 554500,-1238000 1238200,-1238000m0 2476200c683700,0 1238100,554500 1238100,1238200 0,683700 -554400,1238100 -1238100,1238100m7317400 -2476300c683700,0 1238200,-554500 1238200,-1238200 0,-683700 -554500,-1238000 -1238200,-1238000m0 2476200c-683700,0 -1238200,554500 -1238200,1238200 0,683700 554500,1238100 1238200,1238100m-10976000 0l3658600 0m10976000 -27450400l0 27450400 -3658600 0m3658600 -27450400l0 -27450400m13073100 25291100c0,431400 -349800,780900 -781000,780900 -431400,0 -781200,-349500 -781200,-780900m1562200 0c0,-431300 349500,-781000 780700,-781000 431200,0 781000,349700 781000,781000m0 2159300l0 -2159300m-3123700 -1280600l0 1290300m2342700 -2071000c431400,0 781000,-349800 781000,-781200m-3123700 1561900c0,-431200 349600,-780900 781000,-780900m0 0l1561700 0m-780700 6380100c0,-431100 -349800,-780900 -781000,-780900 -431400,0 -781200,349800 -781200,780900m1562200 0c0,431300 349500,781000 780700,781000 431200,0 781000,-349700 781000,-781000m0 -2159300l0 2159300m-3123700 1280600l0 -1290300m2342700 2071200c431400,0 781000,349800 781000,781000m-3123700 -1561900c0,431200 349600,780900 781000,780900m0 0l1561700 0m-3252000 -24132000c0,-415400 336900,-752200 752300,-752200 415300,0 752200,336800 752200,752200 0,415400 -336900,752300 -752200,752300 -415400,0 -752300,-336900 -752300,-752300zm-2738200 0c0,-415400 336800,-752200 752200,-752200 415200,0 752200,336800 752200,752200 0,415400 -337000,752300 -752200,752300 -415400,0 -752200,-336900 -752200,-752300zm-546200 42409100l3658800 0m-3658800 0l-3658600 0m7317400 2476200c683700,0 1238200,-554500 1238200,-1238200 0,-683700 -554500,-1238000 -1238200,-1238000m0 2476200c-683700,0 -1238200,554500 -1238200,1238200 0,683700 554500,1238100 1238200,1238100m-7317400 -2476300c-683700,0 -1238200,-554500 -1238200,-1238200 0,-683700 554500,-1238000 1238200,-1238000m0 2476200c683700,0 1238200,554500 1238200,1238200 0,683700 -554500,1238100 -1238200,1238100m10976000 -22448600l0 22448600 -3658600 0m-10976200 0l3658800 0m10976000 -32452200l0 -22448600m1562100 25291100c0,431400 349800,780900 780800,780900 431400,0 781200,-349500 781200,-780900m-1562000 0c0,-431300 -349700,-781000 -780900,-781000 -431200,0 -781000,349700 -781000,781000m3123700 -1280600l0 1290300m-2342700 -2071000c-431500,0 -781000,-349800 -781000,-781200m3123700 1561900c0,-431200 -349600,-780900 -781000,-780900m0 0l-1561700 0m780900 6380100c0,-431100 349800,-780900 780800,-780900 431400,0 781200,349800 781200,780900m-1562000 0c0,431300 -349700,781000 -780900,781000 -431200,0 -781000,-349700 -781000,-781000m3123700 1280600l0 -1290300m-2342700 2071200c-431500,0 -781000,349800 -781000,781000m3123700 -1561900c0,431200 -349600,780900 -781000,780900m0 0l-1561700 0m3251900 -24132000c0,-415400 -336800,-752200 -752100,-752200 -415500,0 -752300,336800 -752300,752200 0,415400 336800,752300 752300,752300 415300,0 752100,-336900 752100,-752300zm2738300 0c0,-415400 -336600,-752200 -752000,-752200 -415400,0 -752200,336800 -752200,752200 0,415400 336800,752300 752200,752300 415400,0 752000,-336900 752000,-752300zm546200 42409100l-3658800 0m3658800 0l3658600 0m-7317400 2476200c-683700,0 -1238000,-554500 -1238000,-1238200 0,-683700 554300,-1238000 1238000,-1238000m0 2476200c683700,0 1238200,554500 1238200,1238200 0,683700 -554500,1238100 -1238200,1238100m7317400 -2476300c683900,0 1238200,-554500 1238200,-1238200 0,-683700 -554300,-1238000 -1238200,-1238000m0 2476200c-683700,0 -1238200,554500 -1238200,1238200 0,683700 554500,1238100 1238200,1238100m-10976000 0l3658600 0m10976200 -27450400l0 27450400 -3658800 0m3658800 -27450400l0 -27450400m13072900 25291100c0,431400 -349800,780900 -781000,780900 -431200,0 -780900,-349500 -780900,-780900m1561900 0c0,-431300 349500,-781000 781000,-781000 431000,0 780900,349700 780900,781000m0 2159300l0 -2159300m-3123800 -1280600l0 1290300m2342900 -2071000c431100,0 780900,-349800 780900,-781200m-3123800 1561900c0,-431200 349700,-780900 780900,-780900m0 0l1562000 0m-781000 6380100c0,-431100 -349800,-780900 -781000,-780900 -431200,0 -780900,349800 -780900,780900m1561900 0c0,431300 349500,781000 781000,781000 431000,0 780900,-349700 780900,-781000m0 -2159300l0 2159300m-3123800 1280600l0 -1290300m2342900 2071200c431100,0 780900,349800 780900,781000m-3123800 -1561900c0,431200 349700,780900 780900,780900m0 0l1562000 0m-3252000 -24132000c0,-415400 336600,-752200 752000,-752200 415300,0 752200,336800 752200,752200 0,415400 -336900,752300 -752200,752300 -415400,0 -752000,-336900 -752000,-752300zm-2738500 0c0,-415400 336800,-752200 752200,-752200 415400,0 752200,336800 752200,752200 0,415400 -336800,752300 -752200,752300 -415400,0 -752200,-336900 -752200,-752300zm-546000 42409100l3658600 0m-3658600 0l-3658800 0m7317400 2476200c683900,0 1238200,-554500 1238200,-1238200 0,-683700 -554300,-1238000 -1238200,-1238000m0 2476200c-683600,0 -1238200,554500 -1238200,1238200 0,683700 554600,1238100 1238200,1238100m-7317400 -2476300c-683700,0 -1238200,-554500 -1238200,-1238200 0,-683700 554500,-1238000 1238200,-1238000m0 2476200c683700,0 1238300,554500 1238300,1238200 0,683700 -554600,1238100 -1238300,1238100m10976200 -22448600l0 22448600 -3658800 0m-10976000 0l3658600 0m10976200 -32452200l0 -22448600m1562000 25291100c0,431400 349700,780900 780900,780900 431200,0 781000,-349500 781000,-780900m-1561900 0c0,-431300 -349800,-781000 -781000,-781000 -431200,0 -781000,349700 -781000,781000m3123900 -1280600l0 1290300m-2342900 -2071000c-431200,0 -781000,-349800 -781000,-781200m3123900 1561900c0,-431200 -349800,-780900 -781000,-780900m0 0l-1561900 0m781000 6380100c0,-431100 349700,-780900 780900,-780900 431200,0 781000,349800 781000,780900m-1561900 0c0,431300 -349800,781000 -781000,781000 -431200,0 -781000,-349700 -781000,-781000m3123900 1280600l0 -1290300m-2342900 2071200c-431200,0 -781000,349800 -781000,781000m3123900 -1561900c0,431200 -349800,780900 -781000,780900m0 0l-1561900 0m3251900 -24132000c0,-415400 -336600,-752200 -752100,-752200 -415200,0 -752100,336800 -752100,752200 0,415400 336900,752300 752100,752300 415500,0 752100,-336900 752100,-752300zm2738600 0c0,-415400 -336900,-752200 -752300,-752200 -415400,0 -752200,336800 -752200,752200 0,415400 336800,752300 752200,752300 415400,0 752300,-336900 752300,-752300zm545900 42409100l-3658600 0m3658600 0l3658600 0m-7317200 2476200c-683800,0 -1238200,-554500 -1238200,-1238200 0,-683700 554400,-1238000 1238200,-1238000m0 2476200c683500,0 1238000,554500 1238000,1238200 0,683700 -554500,1238100 -1238000,1238100m7317200 -2476300c683900,0 1238200,-554500 1238200,-1238200 0,-683700 -554300,-1238000 -1238200,-1238000m0 2476200c-683400,0 -1238000,554500 -1238000,1238200 0,683700 554600,1238100 1238000,1238100m-10976000 0l3658800 0m10976000 -27450400l0 27450400 -3658800 0m3658800 -27450400l0 -27450400m13072900 25291100c0,431400 -349800,780900 -780900,780900 -431300,0 -781000,-349500 -781000,-780900m1561900 0c0,-431300 349700,-781000 781000,-781000 431200,0 781000,349700 781000,781000m0 2159300l0 -2159300m-3123900 -1280600l0 1290300m2342900 -2071000c431200,0 781000,-349800 781000,-781200m-3123900 1561900c0,-431200 349700,-780900 781000,-780900m0 0l1561900 0m-781000 6380100c0,-431100 -349800,-780900 -780900,-780900 -431300,0 -781000,349800 -781000,780900m1561900 0c0,431300 349700,781000 781000,781000 431200,0 781000,-349700 781000,-781000m0 -2159300l0 2159300m-3123900 1280600l0 -1290300m2342900 2071200c431200,0 781000,349800 781000,781000m-3123900 -1561900c0,431200 349700,780900 781000,780900m0 0l1561900 0m-3252000 -24132000c0,-415400 336800,-752200 752200,-752200 415400,0 752000,336800 752000,752200 0,415400 -336600,752300 -752000,752300 -415400,0 -752200,-336900 -752200,-752300zm-2738300 0c0,-415400 336700,-752200 752000,-752200 415400,0 752200,336800 752200,752200 0,415400 -336800,752300 -752200,752300 -415300,0 -752000,-336900 -752000,-752300zm-546200 42409100l3658700 0m-3658700 0l-3658800 0m7317500 2476200c683800,0 1238200,-554500 1238200,-1238200 0,-683700 -554400,-1238000 -1238200,-1238000m0 2476200c-683500,0 -1238100,554500 -1238100,1238200 0,683700 554600,1238100 1238100,1238100m-7317500 -2476300c-683700,0 -1238000,-554500 -1238000,-1238200 0,-683700 554300,-1238000 1238000,-1238000m0 2476200c683700,0 1238300,554500 1238300,1238200 0,683700 -554600,1238100 -1238300,1238100m10976300 -22448600l0 22448600 -3658800 0m-10976100 0l3658600 0m10976300 -32452200l0 -22448600m1561900 25291100c0,431400 349700,780900 781000,780900 431100,0 780900,-349500 780900,-780900m-1561900 0c0,-431300 -349600,-781000 -780800,-781000 -431400,0 -781100,349700 -781100,781000m3123800 -1280600l0 1290300m-2342900 -2071000c-431200,0 -780900,-349800 -780900,-781200m3123800 1561900c0,-431200 -349800,-780900 -780900,-780900m0 0l-1562000 0m781000 6380100c0,-431100 349700,-780900 781000,-780900 431100,0 780900,349800 780900,780900m-1561900 0c0,431300 -349600,781000 -780800,781000 -431400,0 -781100,-349700 -781100,-781000m3123800 1280600l0 -1290300m-2342900 2071200c-431200,0 -780900,349800 -780900,781000m3123800 -1561900c0,431200 -349800,780900 -780900,780900m0 0l-1562000 0m3252200 -24132000c0,-415400 -336900,-752200 -752200,-752200 -415400,0 -752300,336800 -752300,752200 0,415400 336900,752300 752300,752300 415300,0 752200,-336900 752200,-752300zm2738300 0c0,-415400 -336900,-752200 -752200,-752200 -415500,0 -752300,336800 -752300,752200 0,415400 336800,752300 752300,752300 415300,0 752200,-336900 752200,-752300zm546000 42409100l-3658700 0m3658700 0l3658800 0m-7317500 2476200c-683700,0 -1238200,-554500 -1238200,-1238200 0,-683700 554500,-1238000 1238200,-1238000m0 2476200c683800,0 1238300,554500 1238300,1238200 0,683700 -554500,1238100 -1238300,1238100m7317500 -2476300c683600,0 1238200,-554500 1238200,-1238200 0,-683700 -554600,-1238000 -1238200,-1238000m0 2476200c-683700,0 -1238200,554500 -1238200,1238200 0,683700 554500,1238100 1238200,1238100m-10976200 0l3658700 0m10976000 -27450400l0 27450400 -3658500 0m3658500 -27450400l0 -27450400m13072900 25291100c0,431400 -349500,780900 -780900,780900 -431200,0 -781000,-349500 -781000,-780900m1561900 0c0,-431300 349800,-781000 781000,-781000 431200,0 781000,349700 781000,781000m0 2159300l0 -2159300m-3123900 -1280600l0 1290300m2342900 -2071000c431400,0 781000,-349800 781000,-781200m-3123900 1561900c0,-431200 349800,-780900 781000,-780900m0 0l1561900 0m-781000 6380100c0,-431100 -349500,-780900 -780900,-780900 -431200,0 -781000,349800 -781000,780900m1561900 0c0,431300 349800,781000 781000,781000 431200,0 781000,-349700 781000,-781000m0 -2159300l0 2159300m-3123900 1280600l0 -1290300m2342900 2071200c431400,0 781000,349800 781000,781000m-3123900 -1561900c0,431200 349800,780900 781000,780900m0 0l1561900 0m-3252000 -24132000c0,-415400 336900,-752200 752300,-752200 415300,0 752100,336800 752100,752200 0,415400 -336800,752300 -752100,752300 -415400,0 -752300,-336900 -752300,-752300zm-2738300 0c0,-415400 336900,-752200 752300,-752200 415100,0 752000,336800 752000,752200 0,415400 -336900,752300 -752000,752300 -415400,0 -752300,-336900 -752300,-752300zm-546200 42409100l3658900 0m-3658900 0l-3658500 0m7317400 2476200c683600,0 1238000,-554500 1238000,-1238200 0,-683700 -554400,-1238000 -1238000,-1238000m0 2476200c-683700,0 -1238300,554500 -1238300,1238200 0,683700 554600,1238100 1238300,1238100m-7317400 -2476300c-683700,0 -1238200,-554500 -1238200,-1238200 0,-683700 554500,-1238000 1238200,-1238000m0 2476200c683600,0 1238200,554500 1238200,1238200 0,683700 -554600,1238100 -1238200,1238100m10976000 -22448600l0 22448600 -3658600 0m-10976300 0l3658900 0m10976000 -32452200l0 -22448600m1562100 25291100c0,431400 349800,780900 780800,780900 431400,0 781200,-349500 781200,-780900m-1562000 0c0,-431300 -349800,-781000 -780900,-781000 -431300,0 -781000,349700 -781000,781000m3123600 -1280600l0 1290300m-2342600 -2071000c-431500,0 -781000,-349800 -781000,-781200m3123600 1561900c0,-431200 -349500,-780900 -780900,-780900m0 0l-1561700 0m780900 6380100c0,-431100 349800,-780900 780800,-780900 431400,0 781200,349800 781200,780900m-1562000 0c0,431300 -349800,781000 -780900,781000 -431300,0 -781000,-349700 -781000,-781000m3123600 1280600l0 -1290300m-2342600 2071200c-431500,0 -781000,349800 -781000,781000m3123600 -1561900c0,431200 -349500,780900 -780900,780900m0 0l-1561700 0m3251900 -24132000c0,-415400 -336900,-752200 -752200,-752200 -415400,0 -752200,336800 -752200,752200 0,415400 336800,752300 752200,752300 415300,0 752200,-336900 752200,-752300zm2738300 0c0,-415400 -336900,-752200 -752000,-752200 -415600,0 -752300,336800 -752300,752200 0,415400 336700,752300 752300,752300 415100,0 752000,-336900 752000,-752300zm546200 42409100l-3658900 0m3658900 0l3658600 0m-7317500 2476200c-683600,0 -1237900,-554500 -1237900,-1238200 0,-683700 554300,-1238000 1237900,-1238000m0 2476200c683800,0 1238300,554500 1238300,1238200 0,683700 -554500,1238100 -1238300,1238100m7317500 -2476300c683700,0 1238200,-554500 1238200,-1238200 0,-683700 -554500,-1238000 -1238200,-1238000m0 2476200c-683700,0 -1238200,554500 -1238200,1238200 0,683700 554500,1238100 1238200,1238100m-10976000 0l3658500 0m10976100 -27450400l0 27450400 -3658600 0m3658600 -27450400l0 -27450400m13072800 25291100c0,431400 -349500,780900 -780700,780900 -431200,0 -780900,-349500 -780900,-780900m1561600 0c0,-431300 349800,-781000 781200,-781000 431000,0 780800,349700 780800,781000m0 2159300l0 -2159300m-3123600 -1280600l0 1290300m2342800 -2071000c431200,0 780800,-349800 780800,-781200m-3123600 1561900c0,-431200 349700,-780900 780900,-780900m0 0l1561900 0m-781200 6380100c0,-431100 -349500,-780900 -780700,-780900 -431200,0 -780900,349800 -780900,780900m1561600 0c0,431300 349800,781000 781200,781000 431000,0 780800,-349700 780800,-781000m0 -2159300l0 2159300m-3123600 1280600l0 -1290300m2342800 2071200c431200,0 780800,349800 780800,781000m-3123600 -1561900c0,431200 349700,780900 780900,780900m0 0l1561900 0m-3252100 -24132000c0,-415400 336800,-752200 752200,-752200 415300,0 752200,336800 752200,752200 0,415400 -336900,752300 -752200,752300 -415400,0 -752200,-336900 -752200,-752300zm-2738300 0c0,-415400 336800,-752200 752200,-752200 415300,0 752000,336800 752000,752200 0,415400 -336700,752300 -752000,752300 -415400,0 -752200,-336900 -752200,-752300zm-546200 42409100l3658800 0m-3658800 0l-3658600 0m7317400 2476200c683600,0 1238200,-554500 1238200,-1238200 0,-683700 -554600,-1238000 -1238200,-1238000m0 2476200c-683700,0 -1238200,554500 -1238200,1238200 0,683700 554500,1238100 1238200,1238100m-7317400 -2476300c-683700,0 -1238200,-554500 -1238200,-1238200 0,-683700 554500,-1238000 1238200,-1238000m0 2476200c683700,0 1238200,554500 1238200,1238200 0,683700 -554500,1238100 -1238200,1238100m10976000 -22448600l0 22448600 -3658600 0m-10976200 0l3658800 0m10976000 -32452200l0 -22448600m1562100 25291100c0,431400 349800,780900 781000,780900 431200,0 781000,-349500 781000,-780900m-1562000 0c0,-431300 -349800,-781000 -780900,-781000 -431300,0 -781000,349700 -781000,781000m3123600 -1280600l0 1290300m-2342600 -2071000c-431300,0 -781000,-349800 -781000,-781200m3123600 1561900c0,-431200 -349500,-780900 -780700,-780900m0 0l-1561900 0m780900 6380100c0,-431100 349800,-780900 781000,-780900 431200,0 781000,349800 781000,780900m-1562000 0c0,431300 -349800,781000 -780900,781000 -431300,0 -781000,-349700 -781000,-781000m3123600 1280600l0 -1290300m-2342600 2071200c-431300,0 -781000,349800 -781000,781000m3123600 -1561900c0,431200 -349500,780900 -780700,780900m0 0l-1561900 0m3251900 -24132000c0,-415400 -336800,-752200 -752200,-752200 -415300,0 -752200,336800 -752200,752200 0,415400 336900,752300 752200,752300 415400,0 752200,-336900 752200,-752300zm2738500 0c0,-415400 -337000,-752200 -752200,-752200 -415400,0 -752300,336800 -752300,752200 0,415400 336900,752300 752300,752300 415200,0 752200,-336900 752200,-752300zm546000 42409100l-3658800 0m3658800 0l3658600 0m-7317400 2476200c-683700,0 -1238000,-554500 -1238000,-1238200 0,-683700 554300,-1238000 1238000,-1238000m0 2476200c683700,0 1238200,554500 1238200,1238200 0,683700 -554500,1238100 -1238200,1238100m7317400 -2476300c683900,0 1238200,-554500 1238200,-1238200 0,-683700 -554300,-1238000 -1238200,-1238000m0 2476200c-683700,0 -1238000,554500 -1238000,1238200 0,683700 554300,1238100 1238000,1238100m-10976000 0l3658600 0m10976200 -27450400l0 27450400 -3658800 0m3658800 -27450400l0 -27450400m13072900 25291100c0,431400 -349800,780900 -781000,780900 -431200,0 -780900,-349500 -780900,-780900m1561900 0c0,-431300 349500,-781000 780900,-781000 431300,0 781000,349700 781000,781000m0 2159300l0 -2159300m-3123800 -1280600l0 1290300m2342800 -2071000c431300,0 781000,-349800 781000,-781200m-3123800 1561900c0,-431200 349700,-780900 780900,-780900m0 0l1561900 0m-780900 6380100c0,-431100 -349800,-780900 -781000,-780900 -431200,0 -780900,349800 -780900,780900m1561900 0c0,431300 349500,781000 780900,781000 431300,0 781000,-349700 781000,-781000m0 -2159300l0 2159300m-3123800 1280600l0 -1290300m2342800 2071200c431300,0 781000,349800 781000,781000m-3123800 -1561900c0,431200 349700,780900 780900,780900m0 0l1561900 0m-3251900 -24132000c0,-415400 336800,-752200 752000,-752200 415600,0 752200,336800 752200,752200 0,415400 -336600,752300 -752200,752300 -415200,0 -752000,-336900 -752000,-752300zm-2738300 0c0,-415400 336700,-752200 752000,-752200 415400,0 752200,336800 752200,752200 0,415400 -336800,752300 -752200,752300 -415300,0 -752000,-336900 -752000,-752300zm-546200 42409100l3658600 0m-3658600 0l-3658800 0m7317400 2476200c683700,0 1238200,-554500 1238200,-1238200 0,-683700 -554500,-1238000 -1238200,-1238000m0 2476200c-683700,0 -1238000,554500 -1238000,1238200 0,683700 554300,1238100 1238000,1238100m-7317400 -2476300c-683700,0 -1238000,-554500 -1238000,-1238200 0,-683700 554300,-1238000 1238000,-1238000m0 2476200c683700,0 1238200,554500 1238200,1238200 0,683700 -554500,1238100 -1238200,1238100m10976200 -22448600l0 22448600 -3658800 0m-10976000 0l3658600 0m10976200 -32452200l0 -22448600m1561900 25291100c0,431400 349800,780900 781000,780900 431200,0 781000,-349500 781000,-780900m-1562000 0c0,-431300 -349500,-781000 -780700,-781000 -431400,0 -781200,349700 -781200,781000m3123900 -1280600l0 1290300m-2342900 -2071000c-431200,0 -781000,-349800 -781000,-781200m3123900 1561900c0,-431200 -349800,-780900 -781000,-780900m0 0l-1561900 0m780900 6380100c0,-431100 349800,-780900 781000,-780900 431200,0 781000,349800 781000,780900m-1562000 0c0,431300 -349500,781000 -780700,781000 -431400,0 -781200,-349700 -781200,-781000m3123900 1280600l0 -1290300m-2342900 2071200c-431200,0 -781000,349800 -781000,781000m3123900 -1561900c0,431200 -349800,780900 -781000,780900m0 0l-1561900 0m3252100 -24132000c0,-415400 -336800,-752200 -752100,-752200 -415500,0 -752300,336800 -752300,752200 0,415400 336800,752300 752300,752300 415300,0 752100,-336900 752100,-752300zm2738300 0c0,-415400 -336800,-752200 -752200,-752200 -415400,0 -752200,336800 -752200,752200 0,415400 336800,752300 752200,752300 415400,0 752200,-336900 752200,-752300zm546000 42409100l-3658600 0m3658600 0l3658800 0m-7317400 2476200c-683700,0 -1238200,-554500 -1238200,-1238200 0,-683700 554500,-1238000 1238200,-1238000m0 2476200c683700,0 1238000,554500 1238000,1238200 0,683700 -554300,1238100 -1238000,1238100m7317400 -2476300c683700,0 1238000,-554500 1238000,-1238200 0,-683700 -554300,-1238000 -1238000,-1238000m0 2476200c-683700,0 -1238200,554500 -1238200,1238200 0,683700 554500,1238100 1238200,1238100m-10976200 0l3658800 0m10976000 -27450400l0 27450400 -3658600 0m3658600 -27450400l0 -27450400m13072100 25291100c0,431400 -347900,780900 -779100,780900 -431300,0 -781200,-349500 -781200,-780900m1560300 0c0,-431300 349900,-781000 781100,-781000 431200,0 781200,349700 781200,781000m0 2159300l0 -2159300m-3122600 -1280600l0 1290300m2341400 -2071000c431200,0 781200,-349800 781200,-781200m-3122600 1561900c0,-431200 349900,-780900 781200,-780900m0 0l1560200 0m-781100 6380100c0,-431100 -347900,-780900 -779100,-780900 -431300,0 -781200,349800 -781200,780900m1560300 0c0,431300 349900,781000 781100,781000 431200,0 781200,-349700 781200,-781000m0 -2159300l0 2159300m-3122600 1280600l0 -1290300m2341400 2071200c431200,0 781200,349800 781200,781000m-3122600 -1561900c0,431200 349900,780900 781200,780900m0 0l1560200 0m-3251700 -24132000c0,-415400 337400,-752200 752000,-752200 416600,0 752000,336800 752000,752200 0,415400 -335400,752300 -752000,752300 -414600,0 -752000,-336900 -752000,-752300zm-2737300 0c0,-415400 335400,-752200 752100,-752200 414500,0 752000,336800 752000,752200 0,415400 -337500,752300 -752000,752300 -416700,0 -752100,-336900 -752100,-752300zm-545700 42409100l3657900 0m-3657900 0l-3660100 0m7318000 2476200c683300,0 1237400,-554500 1237400,-1238200 0,-683700 -554100,-1238000 -1237400,-1238000m0 2476200c-683200,0 -1239400,554500 -1239400,1238200 0,683700 556200,1238100 1239400,1238100m-7318000 -2476300c-683300,0 -1237800,-554500 -1237800,-1238200 0,-683700 554500,-1238000 1237800,-1238000m0 2476200c683300,0 1239500,554500 1239500,1238200 0,683700 -556200,1238100 -1239500,1238100m10976000 -22448600l0 22448600 -3658000 0m-10976400 0l3658400 0m10976000 -32452200l0 -22448600m1562300 25291100c0,431400 350000,780900 781300,780900 431100,0 781100,-349500 781100,-780900m-1562400 0c0,-431300 -349900,-781000 -781100,-781000 -431200,0 -781200,349700 -781200,781000m3124700 -1280600l0 1290300m-2343500 -2071000c-431200,0 -781200,-349800 -781200,-781200m3124700 1561900c0,-431200 -350000,-780900 -781100,-780900m0 0l-1562400 0m781100 6380100c0,-431100 350000,-780900 781300,-780900 431100,0 781100,349800 781100,780900m-1562400 0c0,431300 -349900,781000 -781100,781000 -431200,0 -781200,-349700 -781200,-781000m3124700 1280600l0 -1290300m-2343500 2071200c-431200,0 -781200,349800 -781200,781000m3124700 -1561900c0,431200 -350000,780900 -781100,780900m0 0l-1562400 0m3251800 -24132000c0,-415400 -335400,-752200 -752000,-752200 -414600,0 -752100,336800 -752100,752200 0,415400 337500,752300 752100,752300 416600,0 752000,-336900 752000,-752300zm2739300 0c0,-415400 -337500,-752200 -752000,-752200 -416700,0 -752000,336800 -752000,752200 0,415400 335300,752300 752000,752300 414500,0 752000,-336900 752000,-752300zm545700 42409100l-3657900 0m3657900 0l3658000 0m-7315900 2476200c-685400,0 -1239500,-554500 -1239500,-1238200 0,-683700 554100,-1238000 1239500,-1238000m0 2476200c683200,0 1237300,554500 1237300,1238200 0,683700 -554100,1238100 -1237300,1238100m7315900 -2476300c685400,0 1239500,-554500 1239500,-1238200 0,-683700 -554100,-1238000 -1239500,-1238000m0 2476200c-683200,0 -1237300,554500 -1237300,1238200 0,683700 554100,1238100 1237300,1238100m-10976000 0l3660100 0m10976000 -27450400l0 27450400 -3660100 0m3660100 -27450400l0 -27450400m13071600 25291100c0,431400 -350000,780900 -781100,780900 -431300,0 -781300,-349500 -781300,-780900m1562400 0c0,-431300 349900,-781000 781200,-781000 431200,0 781100,349700 781100,781000m0 2159300l0 -2159300m-3124700 -1280600l0 1290300m2343600 -2071000c431200,0 781100,-349800 781100,-781200m-3124700 1561900c0,-431200 350000,-780900 781300,-780900m0 0l1562300 0m-781200 6380100c0,-431100 -350000,-780900 -781100,-780900 -431300,0 -781300,349800 -781300,780900m1562400 0c0,431300 349900,781000 781200,781000 431200,0 781100,-349700 781100,-781000m0 -2159300l0 2159300m-3124700 1280600l0 -1290300m2343600 2071200c431200,0 781100,349800 781100,781000m-3124700 -1561900c0,431200 350000,780900 781300,780900m0 0l1562300 0m-3251800 -24132000c0,-415400 337500,-752200 752000,-752200 414600,0 752000,336800 752000,752200 0,415400 -337400,752300 -752000,752300 -414500,0 -752000,-336900 -752000,-752300zm-2739300 0c0,-415400 337500,-752200 754100,-752200 414500,0 752000,336800 752000,752200 0,415400 -337500,752300 -752000,752300 -416600,0 -754100,-336900 -754100,-752300zm-545800 42409100l3660100 0m-3660100 0l-3657900 0m7318000 2476200c683200,0 1237300,-554500 1237300,-1238200 0,-683700 -554100,-1238000 -1237300,-1238000m0 2476200c-683300,0 -1239500,554500 -1239500,1238200 0,683700 556200,1238100 1239500,1238100m-7318000 -2476300c-683300,0 -1237400,-554500 -1237400,-1238200 0,-683700 554100,-1238000 1237400,-1238000m0 2476200c683200,0 1237400,554500 1237400,1238200 0,683700 -554200,1238100 -1237400,1238100m10975900 -22448600l0 22448600 -3657900 0m-10976000 0l3658000 0m10975900 -32452200l0 -22448600m1562400 25291100c0,431400 350000,780900 781200,780900 431200,0 781200,-349500 781200,-780900m-1562400 0c0,-431300 -350000,-781000 -781200,-781000 -431200,0 -781200,349700 -781200,781000m3124800 -1280600l0 1290300m-2343600 -2071000c-431200,0 -781200,-349800 -781200,-781200m3124800 1561900c0,-431200 -350000,-780900 -781200,-780900m0 0l-1562400 0m781200 6380100c0,-431100 350000,-780900 781200,-780900 431200,0 781200,349800 781200,780900m-1562400 0c0,431300 -350000,781000 -781200,781000 -431200,0 -781200,-349700 -781200,-781000m3124800 1280600l0 -1290300m-2343600 2071200c-431200,0 -781200,349800 -781200,781000m3124800 -1561900c0,431200 -350000,780900 -781200,780900m0 0l-1562400 0m3251800 -24132000c0,-415400 -337500,-752200 -752000,-752200 -414600,0 -752100,336800 -752100,752200 0,415400 337500,752300 752100,752300 414500,0 752000,-336900 752000,-752300zm2739300 0c0,-415400 -337500,-752200 -752000,-752200 -416700,0 -754100,336800 -754100,752200 0,415400 337400,752300 754100,752300 414500,0 752000,-336900 752000,-752300zm545800 42409100l-3660100 0m3660100 0l3658000 0m-7318100 2476200c-683200,0 -1237400,-554500 -1237400,-1238200 0,-683700 554200,-1238000 1237400,-1238000m0 2476200c685400,0 1239500,554500 1239500,1238200 0,683700 -554100,1238100 -1239500,1238100m7318100 -2476300c683200,0 1239400,-554500 1239400,-1238200 0,-683700 -556200,-1238000 -1239400,-1238000m0 2476200c-683300,0 -1237400,554500 -1237400,1238200 0,683700 554100,1238100 1237400,1238100m-10976100 0l3658000 0m10976100 -27450400l0 27450400 -3658000 0m3658000 -27450400l0 -27450400m-263426200 0l3658700 0m0 2476400c683700,0 1238200,-554500 1238200,-1238200 0,-683700 -554500,-1238200 -1238200,-1238200m0 2476400c-683700,0 -1238200,554500 -1238200,1238200 0,683700 554500,1238000 1238200,1238000m3658700 0l-3658700 0"/>
 </g>
</svg>
