<?xml version="1.0" encoding="utf-8"?>
<!-- Generator: Adobe Illustrator 19.0.0, SVG Export Plug-In . SVG Version: 6.00 Build 0)  -->
<svg version="1.1" id="Ebene_1" xmlns="http://www.w3.org/2000/svg" xmlns:xlink="http://www.w3.org/1999/xlink" x="0px" y="0px"
	 width="864.6px" height="340.2px" viewBox="0 0 864.6 340.2" style="enable-background:new 0 0 864.6 340.2;" xml:space="preserve"
	>
<style type="text/css">
	.st0{fill:none;stroke:#000000;stroke-miterlimit:10;}
</style>
<path id="XMLID_82_" class="st0" d="M228,60.7c8.7-3.1,9.5-6.4,8.9-11.6s-0.9-7.5-0.9-7.5s4.1-0.5,6.4-0.7c2.3-0.3,5.4-2.9,5-6.3
	c-0.4-3.5-0.9-7.5-1.2-10.7s-2.5-5.7-6.1-5.6c-3.3,0-88.3,2.3-102.3,2.7l3.7,31.7l-16.9,2l-3.7-31.9l-0.4,0
	c0,0-98.6,20.4-102.2,21.2c-3.5,0.8-5.1,3.7-4.7,6.9c0.4,3.2,0.8,7.2,1.2,10.7c0.4,3.5,4,5.3,6.3,5c2.3-0.3,6.4-0.7,6.4-0.7
	s0.3,2.3,0.9,7.5c0.6,5.2,2.1,8.3,11.3,9.3c9.2,1,92.5,3.4,92.5,3.4l6.4-0.7C138.7,85.2,219.2,63.8,228,60.7z"/>
<path id="XMLID_95_" class="st0" d="M354.6,198.5l-30.6-0.1l-21,2.3c0,0-263,55.1-272.7,57.1c-9.7,2-16,7.9-14.7,27.3
	S25.4,316,27.1,318c1.8,2,1.5,2.8,13.6,2.8l168.2,0.6l144,0.5h67.8l144-0.5l168.2-0.6c12.1,0,11.8-0.8,13.6-2.8
	c1.8-2,10.2-13.5,11.5-32.9s-5-25.3-14.7-27.3c-9.7-2-272.7-57.1-272.7-57.1l-21-2.3l-30.6,0.1H354.6z M305.1,280.7v-41.1h17v41.1
	H305.1z M466.4,239.6v41.1h-17v-41.1H466.4z M412.4,239.6v41.2h-51v-41.2H412.4z"/>
<path id="XMLID_94_" class="st0" d="M192.4,99.7c-29.8-0.7-38.7-1.5-82.1,5.8c-52.4,8.9-76.5,17.6-78.7,18.5
	c-2.2,0.9-16.5,6.4-16,9.5C16.1,136.6,32,137,32,137l3.3,1.5c0,0,4.7,2.7,5.6,8.8l40.8-5.6l2.3,16.8l40.8-5.7l-2.3-16.8l40.8-5.6
	l1,7.1l10.9-3c18.4-4.7,21.1-8.3,21.1-8.3l-1.5-8.1c-0.6-3.7,0.5-5.9,3-6.4c2.5-0.5,10.8-2.4,10-7.3S192.4,99.7,192.4,99.7z"/>
<path id="XMLID_93_" class="st0" d="M568.8,107.8c28.7-7.8,37.3-10.7,81.1-13.8c53-3.9,78.5-1.1,80.9-0.8c2.3,0.3,17.6,2.3,17.8,5.4
	c0.2,3.1-15.2,7.3-15.2,7.3l-2.9,2.3c0,0-3.9,3.7-3.3,9.9l-40.9,4.2l1.7,16.9l-40.9,4.2l-1.7-16.9l-40.9,4.2l0.7,7.2l-11.3-0.3
	c-19-0.2-22.4-3-22.4-3l-0.4-8.2c-0.3-3.7-1.9-5.7-4.4-5.5c-2.5,0.1-11,0.2-11.5-4.7C554.8,111,568.8,107.8,568.8,107.8z"/>
<path id="XMLID_92_" class="st0" d="M239.6,93.5c11.8,2.2,29.3,4.5,49.3,4.8c20,0.3,29.8-0.8,29.8-0.8l9.7,8.4c0,0,2.6,1.1,7.7,1.8
	c5.2,0.6,22.8-1.3,22.8-1.3l42.2-0.7l-1.7-16.8l40.9-4.1l1.7,16.9l40.9-4.1l-1.7-16.9l40.9-4.1l1.7,16.9l208.1-16.6
	c7.1-0.6,10.6,1.5,13.3,5.5c0.3,0.5,1.2,1.7,2.4,3.5l30.2-3l1.7,16.9l-21.1,2.1c12.8,18.9,30.8,45.3,34.7,51
	c6,8.7,13.1,11.3,21,10.3c7.9-1,15.7-6.1,16.9-14.3c1.2-8.2,4.5-75.5,5-79c0.4-3.5-0.7-10.2-10.3-11.8
	c-9.6-1.6-189.8-28.6-189.8-28.6l-1.2-3.5c0,0-14,2.6-49.2,2.2c-35.1-0.4-98-2-102.8-1.9c-4.8,0.2-10.1-4.1-10.1-4.1
	s-64.6,9.2-110.5,15.8c-45.9,6.6-67.9,10.8-84,14.6s-31.6,10.9-42.2,17.3c-10.7,6.4-11.8,12.1-11.4,15.4
	C225.2,88.4,227.8,91.3,239.6,93.5z"/>
<path id="XMLID_71_" class="st0" d="M30.8,218.3c12,1,29.6,1.4,49.5-0.5c19.9-1.9,35.5-5.4,35.5-5.4l10.6,7.3c0,0,2.7,0.8,7.9,0.9
	c5.2,0.1,16.7-2.2,16.7-2.2l41.9-5.1l-3.4-16.5l40.3-8.4l3.5,16.6l40.3-8.4l-3.5-16.6l40.3-8.4l3.5,16.6l-0.4,0.1l83.1-14.5
	l22.1-61.2l-1.6-3.3c0,0-21.7,16.7-56.8,18.3c-35.6,1.6-59.8,3.2-101.7,4.5c-1.5-2.3-2.2-3.9-2.2-3.9s-59.7,16.4-103,29.1
	c-46,13.5-61.8,17.5-83.9,27C53.5,191,45.4,195,32.5,202c-10.9,5.9-15,6.5-17.3,9.5C15.9,214.7,18.8,217.3,30.8,218.3z"/>
<path id="XMLID_70_" class="st0" d="M834.7,239.3c-12,0.6-29.6,0.5-49.5-2c-19.9-2.5-35.3-6.5-35.3-6.5l-10.8,7c0,0-2.7,0.8-7.9,0.7
	c-5.2-0.1-16.6-2.8-16.6-2.8l-41.7-6.4l4-16.4l-40-9.7l-4,16.5l-40-9.7l4-16.5l-40-9.7l-4,16.5l0.4,0.1l-82.6-17l-20.1-61.9l1.7-3.3
	c0,0,21.2,17.4,56.2,20.1c35.5,2.7,59.7,5,101.5,7.7c1.5-2.2,2.3-3.8,2.3-3.8s59.1,18.2,102,32.4c45.5,15,61.2,19.5,83,29.6
	c15.4,7.2,23.5,11.5,36.1,18.9c10.7,6.3,14.8,7,17,10C849.6,236.2,846.7,238.7,834.7,239.3z"/>
</svg>
