<?xml version="1.0" encoding="UTF-8"?>
<!DOCTYPE svg PUBLIC "-//W3C//DTD SVG 1.1//EN" "http://www.w3.org/Graphics/SVG/1.1/DTD/svg11.dtd">
<!-- Creator: CorelDRAW Standard 2024 -->
<svg xmlns="http://www.w3.org/2000/svg" xml:space="preserve" width="1754px" height="2480px" version="1.1" style="shape-rendering:geometricPrecision; text-rendering:geometricPrecision; image-rendering:optimizeQuality; fill-rule:evenodd; clip-rule:evenodd"
viewBox="0 0 175400000 248040400"
 xmlns:xlink="http://www.w3.org/1999/xlink"
 xmlns:xodm="http://www.corel.com/coreldraw/odm/2003">
 <defs>
  <style type="text/css">
   <![CDATA[
    .str1 {stroke:black;stroke-width:118100;stroke-miterlimit:22.9256}
    .str0 {stroke:#333333;stroke-width:45000;stroke-linejoin:bevel;stroke-miterlimit:22.9256}
    .fil0 {fill:none}
    .fil1 {fill:#2B2A29}
   ]]>
  </style>
 </defs>
 <g id="Layer_x0020_1">
  <metadata id="CorelCorpID_0Corel-Layer"/>
  <path class="fil0 str0" d="M-138773900 91296400c0,0 3724500,22060700 3724500,22060700 525900,3114700 3512500,4150200 5759300,4132700 0,0 16793600,-130700 16793600,-130700 0,0 99900,-12486800 99900,-12486800 0,0 -99900,-2669300 -99900,-2669300 0,0 1683200,0 1683200,0 0,0 0,17928000 0,17928000 0,0 15235800,10300 15235800,10300 0,0 0,-17993400 0,-17993400 0,0 1683200,0 1683200,0 0,0 0,15291700 0,15291700 0,0 17832300,49600 17832300,49600 4238400,-1228900 4800000,-4425500 5492400,-8201100 0,0 3160100,-17229700 3160100,-17229700 366900,-2000500 -736200,-6094300 -5116300,-6094300 0,0 -23775500,53000 -23775500,53000 -3709600,-17700 -6254400,1661800 -6254400,4236900 0,0 0,13129700 0,13129700 0,0 -1648300,0 -1648300,0 0,0 -34900,-13238600 -34900,-13238600 -4000,-2238800 -2846500,-4086000 -7411200,-4105800 0,0 -21687900,-93900 -21687900,-93900 -2203900,-9600 -5197600,1792900 -5435900,5351000z"/>
  <path class="fil0 str0" d="M-78053400 176676800c-2429300,9049100 -5217200,13698500 -8388300,22470100 -638400,1819200 -3382700,1814500 -6255800,1775600 -2615800,-35300 -5348700,-31200 -6506100,-37100 0,0 -47367300,39800 -47367300,39800 0,0 -109281200,-68200 -109281200,-68200 -4545800,-328400 -6389300,-4705900 -9030700,-10764900 0,0 -4342700,-12742300 -4342700,-12742300 -1455100,-4269600 -743000,-14457100 8757100,-14580700 0,0 17075500,-37500 17075500,-37500 0,0 0,14027300 0,14027300 0,0 1683100,0 1683100,0 0,0 100,-14027600 100,-14027600 0,0 57989600,-8300 57989600,-8300 0,0 0,14065400 0,14065400 0,0 1683100,0 1683100,0 0,0 0,-14065700 0,-14065700 0,0 3216500,-9100 3216500,-9100 0,0 10800,3852900 10800,3852900 -42700,5930400 9224400,6043900 9212100,-164200 0,0 13900,-3728100 13900,-3728100 0,0 3253500,42600 3253500,42600 0,0 0,14074100 0,14074100 0,0 1683200,0 1683200,0 0,0 0,-14072900 0,-14072900 0,0 58474100,-25300 58474100,-25300 0,0 100,14085600 100,14085600 0,0 1683200,0 1683200,0 0,0 0,-14085400 0,-14085400 0,0 17908700,54400 17908700,54400 5336300,-12700 9063500,9208500 8527500,13929500z"/>
  <path class="fil0 str0" d="M-40045700 122486100c0,0 -11319100,-16467400 -11319100,-16467400 -819000,-1191600 -1651700,-2880400 -4314300,-2868600 0,0 -14400,3993800 -14400,3993800 0,0 -3237400,-29600 -3237400,-29600 0,0 -23200,2916700 -23200,2916700 0,0 3275600,27000 3275600,27000 0,0 -14000,1683000 -14000,1683000 0,0 -3277700,-27000 -3277700,-27000 0,0 -44900,3488600 -44900,3488600 0,0 3345700,38900 3345700,38900 0,0 27500,1944100 27500,1944100 0,0 2235100,25300 2235100,25300 0,0 8593000,12673600 8593000,12673600 -6487600,7005100 -4315700,21961600 1200400,25628800 0,0 90500,-10996000 90500,-10996000 0,0 1683000,13800 1683000,13800 0,0 -91300,11109700 -91300,11109700 0,0 6909500,85000 6909500,85000 0,0 156400,-11067500 156400,-11067500 0,0 1683000,13900 1683000,13900 0,0 -156300,11068500 -156300,11068500 0,0 6922700,200 6922700,200 0,0 155400,-11022900 155400,-11022900 0,0 1683100,13900 1683100,13900 0,0 -155200,10991600 -155200,10991600 6825100,-7026900 7008600,-19791000 1693800,-26186400 0,0 6627600,-12021900 6627600,-12021900 0,0 3612100,34800 3612100,34800 0,0 4600,-1974500 4600,-1974500 0,0 2812000,7400 2812000,7400 0,0 43000,-3444700 43000,-3444700 0,0 -3292600,-27000 -3292600,-27000 0,0 13800,-1683100 13800,-1683100 0,0 3291500,27100 3291500,27100 0,0 7100,-2950600 7100,-2950600 0,0 -2806600,-65700 -2806600,-65700 0,0 37300,-3761300 37300,-3761300 4800,-482900 -3594600,386000 -6011900,3963800 0,0 -10471500,15499000 -10471500,15499000 -1207500,2189600 -8043600,3610900 -10873300,-654300z"/>
  <path class="fil0 str0" d="M-170060500 185611600c0,0 30000,5091200 30000,5091200 12000,2060600 -1805500,2907700 -2983000,2900200 0,0 -2445300,-15600 -2445300,-15600 -1983600,-240000 -2656100,-1198100 -2872000,-2941400 0,0 -63600,-4921200 -63600,-4921200 -12400,-958400 1282100,-3103900 2916500,-3120400 0,0 2296000,-23000 2296000,-23000 1899300,-19200 3111800,1389200 3121400,3030200z"/>
  <path class="fil0 str0" d="M-82453700 136763100c-2399900,9146800 -5207300,13499100 -8351400,22368400 -509200,1595600 -2356700,2029500 -6292600,1877400 0,0 -6506100,-37200 -6506100,-37200 0,0 -47367300,39900 -47367300,39900 0,0 -109281200,-68300 -109281200,-68300 -4403600,-390800 -6156900,-4187300 -8825800,-10296000 0,0 -4342300,-12608800 -4342300,-12608800 -1819500,-4433900 -1178600,-15018900 8338700,-15178500 0,0 17263500,-24500 17263500,-24500 0,0 0,20277500 0,20277500 0,0 1683200,0 1683200,0 0,0 -100,-20277800 -100,-20277800 0,0 58036300,-12700 58036300,-12700 0,0 0,20312000 0,20312000 0,0 1683100,-100 1683100,-100 0,0 0,-20312500 0,-20312500 0,0 3195000,-21900 3195000,-21900 0,0 35400,3979700 35400,3979700 232200,6354300 9241000,5916100 9169000,-177500 0,0 59500,-3786900 59500,-3786900 0,0 3275900,7100 3275900,7100 0,0 -100,20297800 -100,20297800 0,0 1683200,0 1683200,0 0,0 0,-20297700 0,-20297700 0,0 58389100,-36700 58389100,-36700 0,0 0,20365000 0,20365000 0,0 1683100,0 1683100,0 0,0 0,-20359700 0,-20359700 0,0 18141600,46400 18141600,46400 5422100,309200 8849600,9346400 8330300,13925600z"/>
  <path class="fil0 str0" d="M-167696300 24409700c0,0 -20199700,18600 -20199700,18600 -3864900,798100 -3374600,10601700 -63500,10633900 2396400,23300 5692100,-679300 5756200,2802500 0,0 -6800,6027600 -6800,6027600 -66400,3130000 -1483200,3042200 -4688000,3036900 0,0 -12381200,47400 -12381200,47400 0,0 0,7149200 0,7149200 0,0 -1683100,-100 -1683100,-100 0,0 -100,-7148700 -100,-7148700 0,0 -47521400,-37200 -47521400,-37200 -6613300,-12510300 -24057900,-8067900 -25243300,-10500 0,0 16463800,100 16463800,100 0,0 0,1683200 0,1683200 0,0 -16326800,0 -16326800,0 1824500,8509300 10859500,12657300 22278000,14671400 0,0 52058300,9867300 52058300,9867300 0,0 35768600,125200 35768600,125200 0,0 0,-6811600 0,-6811600 0,0 -19010700,100 -19010700,100 0,0 100,-1683200 100,-1683200 0,0 19010600,0 19010600,0 0,0 0,-6200700 0,-6200700 0,0 1683100,0 1683100,0 0,0 0,6200400 0,6200400 0,0 12354500,-37600 12354500,-37600 0,0 0,-6186300 0,-6186300 0,0 1683200,0 1683200,0 0,0 0,6186200 0,6186200 0,0 6817900,40700 6817900,40700 0,0 56400,-12441800 56400,-12441800 20300,-4481100 -3388600,-5121500 -5245500,-5155400 0,0 -10406200,-189200 -10406200,-189200 -1519100,-221500 -2000900,-1158000 -1870200,-2424100 0,0 7100,-7222100 7100,-7222100 163500,-2504500 2240700,-1498200 4302000,-2267900 1194500,-446000 1907800,-2337600 1754200,-4668400 0,0 -25359000,-14600 -25359000,-14600 0,0 0,-1683200 0,-1683200 0,0 12970200,0 12970200,0 915900,-1485600 -379800,-4310500 -2958700,-4308100z"/>
  <path class="fil0 str0" d="M-132054500 60429400c0,0 15737900,0 15737900,0 0,0 0,-11172500 0,-11172500 0,0 1683100,0 1683100,0 0,0 0,11165800 0,11165800 3371400,-155500 4720200,-4653900 5104300,-8610500 981500,-10111200 -11675100,-12327400 -16600200,-11730600 -5737200,695100 -12845000,2791800 -12972500,10186400 -56300,3256400 970700,8825900 5364300,10180800 0,0 87300,-8968000 87300,-8968000 0,0 -87300,-2265000 -87300,-2265000 0,0 1683200,100 1683200,100 0,0 -100,11213500 -100,11213500z"/>
  <path class="fil0 str0" d="M-176947800 36607600c0,0 -19400,5164100 -19400,5164100 -7300,1918000 622700,3629800 3844400,3662500 0,0 4852300,1500 4852300,1500 3630000,1000 4326900,-1565800 4259700,-3705400 0,0 -6000,-5002100 -6000,-5002100 -2200,-1740200 -755700,-3446700 -3493600,-3433500 0,0 -6092300,29400 -6092300,29400 -1899200,9000 -3542900,1371600 -3345100,3283500z"/>
  <path class="fil0 str0" d="M-148568400 75841200c0,0 3944100,-26200 3944100,-26200 -64200,-4991700 -4230400,-9346900 -9273800,-8934700 -5043500,412200 -7520500,5202200 -7034900,9009800 0,0 3938800,-62900 3938800,-62900 0,0 35700,7395000 35700,7395000 0,0 3458500,17600 3458500,17600 0,0 0,-6193100 0,-6193100 0,0 1683200,100 1683200,100 0,0 0,6193300 0,6193300 0,0 3186200,-14200 3186200,-14200 0,0 62200,-7384700 62200,-7384700z"/>
  <path class="fil0 str0" d="M-90315900 32931700c0,0 22015800,7476700 22015800,7476700 3100300,2427500 2766300,5491800 2391800,7275500 -772100,3677100 -4583700,11185600 -11329900,13677100 -4824600,1869900 -13226600,2438600 -20150100,-3214900 -1520100,-1029800 -2855600,779200 -2039300,2131100 3154700,4679400 -2010400,6408300 -3819800,2636100 -4581800,-6451700 -4663500,-13876200 -248100,-21021100 1239300,-2005400 3303900,-3583600 5395300,-5029700 0,0 8963200,10528200 8963200,10528200 0,0 1281600,-1091100 1281600,-1091100 0,0 -6563700,-7709800 -6563700,-7709800 -1064500,-1271200 281600,-5360400 4103200,-5658100z"/>
  <path class="fil0 str0" d="M-129638800 61509900c-6245500,0 -11308500,5063000 -11308500,11308600 -100,6245500 5063000,11308500 11308500,11308500 6245500,0 11308600,-5062900 11308600,-11308500 0,-6245600 -5063000,-11308600 -11308600,-11308600z"/>
  <line class="fil0 str0" x1="-129638800" y1="61509900" x2="-129638800" y2= "61509900" />
  <line class="fil0 str0" x1="-118330200" y1="72818500" x2="-118330200" y2= "72818500" />
  <line class="fil0 str0" x1="-129638800" y1="84127000" x2="-129638800" y2= "84127000" />
  <line class="fil0 str0" x1="-140947300" y1="72818500" x2="-140947300" y2= "72818500" />
  <line class="fil0 str0" x1="-129638800" y1="61509900" x2="-129638800" y2= "61509900" />
  <path class="fil0 str0" d="M-30005000 88560900c0,0 -22800,-4894400 -22800,-4894400 2400,-919400 -869500,-3195900 -4228600,-3193900 0,0 -10377800,5900 -10377800,5900 -2680300,291800 -2931100,2586300 -2916100,4887600 0,0 168500,22667400 168500,22667400 15200,2036000 1610600,3189200 3266000,3182100 0,0 4508200,-19600 4508200,-19600 0,0 30400,8435000 30400,8435000 306900,944600 2576000,1941000 3956000,1798400 0,0 100,-10361300 100,-10361300 0,0 1683000,0 1683000,0 0,0 100,10435400 100,10435400 1430400,292500 2832100,-570400 3869700,-1459700 0,0 56900,-8649700 56900,-8649700 0,0 5113000,9500 5113000,9500 3051600,44000 2969600,-2647100 2907700,-7289600 0,0 -15015100,19100 -15015100,19100 0,0 -2200,-1683100 -2200,-1683100 0,0 15009400,-19200 15009400,-19200 0,0 -115100,-12196800 -115100,-12196800 0,0 -14939300,19000 -14939300,19000 0,0 -2200,-1683100 -2200,-1683100 0,0 7050200,-9000 7050200,-9000z"/>
  <path class="fil0 str0" d="M-129638800 68445200c-2415300,0 -4373200,1957900 -4373200,4373200 0,2415300 1957900,4373200 4373200,4373200 2415200,0 4373100,-1957900 4373100,-4373200 100,-2415200 -1957900,-4373200 -4373100,-4373200z"/>
  <line class="fil0 str0" x1="-129638800" y1="68445200" x2="-129638800" y2= "68445200" />
  <line class="fil0 str0" x1="-125265700" y1="72818400" x2="-125265700" y2= "72818400" />
  <line class="fil0 str0" x1="-129638800" y1="77191600" x2="-129638800" y2= "77191600" />
  <line class="fil0 str0" x1="-134012000" y1="72818400" x2="-134012000" y2= "72818400" />
  <line class="fil0 str0" x1="-129638800" y1="68445200" x2="-129638800" y2= "68445200" />
  <path class="fil0 str0" d="M-57959800 153327800c0,0 -6922000,-35600 -6922000,-35600 0,0 143500,-11068800 143500,-11068800 0,0 -1683000,-21900 -1683000,-21900 0,0 -143500,11069300 -143500,11069300 0,0 -6899500,-105300 -6899500,-105300 0,0 144000,-11104900 144000,-11104900 0,0 -1683000,-21900 -1683000,-21900 0,0 -143200,11044900 -143200,11044900 -3560200,-2426400 -5648600,-8746300 -5206800,-13560400 -294900,-12806500 23756000,-15362500 28738800,-4053900 1876400,4381700 909400,13587700 -4661300,17795800 0,0 142600,-10991900 142600,-10991900 0,0 -1683000,-21900 -1683000,-21900 0,0 -143600,11076500 -143600,11076500z"/>
  <path class="fil0 str0" d="M-237599000 20881900c0,0 -3741900,12940500 -3741900,12940500 -5793200,-845800 1142500,-20309300 3711900,-24607000 1809000,-3025900 9218900,-229400 9596100,2349800 241900,1654300 557900,5109000 2744100,4754000 0,0 19537400,-112600 19537400,-112600 2490000,-14300 2868600,-1584700 3494600,-4271800 1634800,-7016100 12211500,-3475100 10720400,2770300 0,0 -8509500,29097800 -8509500,29097800 -1026900,2076800 -4209300,2601700 -5638700,1896800 0,0 5205200,-18000900 5205200,-18000900 0,0 -1616900,-467500 -1616900,-467500 0,0 -5186800,17937300 -5186800,17937300 -4811900,235200 -2968400,-5691000 -6169700,-5814500 0,0 -20489700,722200 -20489700,722200 -1975000,54900 -3223300,2590100 -3489900,4157900 -170500,1003300 -1126200,1604900 -2013800,1485800 0,0 -3445300,-462000 -3445300,-462000 0,0 6909400,-23908600 6909400,-23908600 0,0 -1616900,-467500 -1616900,-467500z"/>
  <path class="fil0 str0" d="M-57767400 159250300c0,0 13470500,0 13470500,0 796800,-5800200 -19827200,-4544100 -24669600,-3269600 -3409300,897200 -2781200,8792300 -408300,9871200 1522000,691900 4753000,1955100 3804700,3956600 0,0 -5535300,18737300 -5535300,18737300 -705400,2388000 -2319200,2315400 -5074500,2170400 -7194100,-378500 -6730600,10765500 -316600,11068000 0,0 30316400,-91700 30316400,-91700 2280300,-409700 3668600,-3320900 3388500,-4889900 0,0 -18738400,0 -18738400,0 0,0 0,-1683200 0,-1683200 0,0 18672200,100 18672200,100 1562600,-4557200 -4642400,-4432500 -3871800,-7542100 0,0 6385500,-19482700 6385500,-19482700 601300,-1882000 3383500,-2377000 4963700,-2197500 1011100,114800 1854500,-636100 1986700,-1521800 0,0 513200,-3438100 513200,-3438100 0,0 -24886900,-3900 -24886900,-3900 0,0 0,-1683100 0,-1683100z"/>
  <path class="fil0 str0" d="M-59416900 169368800c0,0 -5236700,17787000 -5236700,17787000 -837200,2843700 -245300,3244500 1855900,3244800 0,0 6792000,1000 6792000,1000 2341000,300 2917300,-2257400 3495300,-4180200 0,0 5297600,-17623800 5297600,-17623800 313100,-1041800 723800,-2509500 -2075000,-2425700 0,0 -6566900,16500 -6566900,16500 -1480700,-19200 -2674000,163300 -3562200,3180400z"/>
  <path class="fil0 str0" d="M-227420500 22108100c0,0 18541700,-89700 18541700,-89700 2964300,-14300 3184900,665700 2601500,2684200 0,0 -1885800,6525000 -1885800,6525000 -650000,2249000 -2978900,2175500 -4986600,2196600 0,0 -18401700,193500 -18401700,193500 -1087800,11400 -2611900,-1800 -1753900,-2667200 0,0 1840100,-6303800 1840100,-6303800 392800,-1427800 899600,-2523400 4044700,-2538600z"/>
  <path class="fil0 str0" d="M-170711700 84228900c0,0 3944100,-26300 3944100,-26300 -64100,-4991700 -4230300,-9346900 -9273800,-8934700 -5043400,412200 -7520400,5202200 -7034900,9009800 0,0 3938800,-62900 3938800,-62900 0,0 35800,7395000 35800,7395000 0,0 3458400,17600 3458400,17600 0,0 0,-6193100 0,-6193100 0,0 1683200,100 1683200,100 0,0 0,6193300 0,6193300 0,0 3186200,-14200 3186200,-14200 0,0 62200,-7384600 62200,-7384600z"/>
  <path class="fil0 str0" d="M-209965700 84228900c0,0 3944100,-26300 3944100,-26300 -64100,-4991700 -4230300,-9346900 -9273800,-8934700 -5043400,412200 -7520400,5202200 -7034900,9009800 0,0 3938800,-62900 3938800,-62900 0,0 35700,7395000 35700,7395000 0,0 3458600,17600 3458600,17600 0,0 0,-6193100 0,-6193100 0,0 1683100,100 1683100,100 0,0 0,6193300 0,6193300 0,0 3186200,-14200 3186200,-14200 0,0 62200,-7384600 62200,-7384600z"/>
  <path class="fil0 str0" d="M-190170900 84228900c0,0 3944100,-26300 3944100,-26300 -64200,-4991700 -4230400,-9346900 -9273800,-8934700 -5043500,412200 -7520500,5202200 -7034900,9009800 0,0 3938800,-62900 3938800,-62900 0,0 35700,7395000 35700,7395000 0,0 3458500,17600 3458500,17600 0,0 0,-6193100 0,-6193100 0,0 1683100,100 1683100,100 0,0 0,6193300 0,6193300 0,0 3186300,-14200 3186300,-14200 0,0 62200,-7384600 62200,-7384600z"/>
  <path class="fil0 str0" d="M-89618000 71621500c-4223800,-3158500 -16012200,-4132200 -25175900,1226500 -1409900,972300 -1105800,2077800 945800,3057300 8406200,4013600 18177000,4109000 24397800,312600 1827900,9637400 16262700,10232000 18518500,-64800 10448300,5247800 18973100,1548200 23783500,-570500 3476900,-1531500 3283900,-2764700 -79900,-4386900 -8552200,-4124500 -20691500,-2645200 -23577000,595400 -1897600,-10693300 -16998400,-9952300 -18812800,-169600z"/>
  <path class="fil0 str0" d="M-246921000 70911300c0,0 20199600,18600 20199600,18600 3865000,798200 3374600,10601800 63600,10634000 -2396500,23300 -5692200,-679300 -5756200,2802400 0,0 6800,6027700 6800,6027700 66300,3130000 1483200,3042200 4687900,3036900 0,0 12381300,47400 12381300,47400 0,0 0,7149200 0,7149200 0,0 1683000,-100 1683000,-100 0,0 100,-7148800 100,-7148800 0,0 47521400,-37200 47521400,-37200 6613300,-12510200 24057900,-8067800 25243400,-10400 0,0 -16463800,100 -16463800,100 0,0 0,1683100 0,1683100 0,0 16326800,0 16326800,0 -1824600,8509300 -10859600,12657400 -22278100,14671500 0,0 -52058300,9867300 -52058300,9867300 0,0 -35768600,125100 -35768600,125100 0,0 0,-6811500 0,-6811500 0,0 19010700,0 19010700,0 0,0 -100,-1683100 -100,-1683100 0,0 -19010600,0 -19010600,0 0,0 0,-6200700 0,-6200700 0,0 -1683100,0 -1683100,0 0,0 0,6200400 0,6200400 0,0 -12354500,-37600 -12354500,-37600 0,0 0,-6186300 0,-6186300 0,0 -1683200,-100 -1683200,-100 0,0 0,6186300 0,6186300 0,0 -6817900,40700 -6817900,40700 0,0 -56400,-12441900 -56400,-12441900 -20200,-4481000 3388700,-5121500 5245600,-5155300 0,0 10406100,-189200 10406100,-189200 1519100,-221500 2000900,-1158000 1870200,-2424100 0,0 -7100,-7222100 -7100,-7222100 -163500,-2504600 -2240600,-1498200 -4302000,-2268000 -1194400,-446000 -1907700,-2337500 -1754100,-4668300 0,0 25359000,-14700 25359000,-14700 0,0 0,-1683100 0,-1683100 0,0 -12970200,0 -12970200,0 -916000,-1485600 379800,-4310500 2958700,-4308200z"/>
  <path class="fil0 str0" d="M-237669600 83109300c0,0 19400,5164000 19400,5164000 7300,1918000 -622700,3629900 -3844400,3662600 0,0 -4852300,1500 -4852300,1500 -3629900,1000 -4326900,-1565800 -4259700,-3705400 0,0 6100,-5002100 6100,-5002100 2100,-1740200 755600,-3446700 3493600,-3433500 0,0 6092200,29300 6092200,29300 1899300,9100 3542900,1371600 3345100,3283600z"/>
  <path class="fil0 str0" d="M-85331600 73693700c84400,-2907500 2476200,-5197000 5342200,-5113900 2866000,83200 5120900,2507600 5036500,5415100 -84300,2907500 -2476200,5197100 -5342100,5113900 -2866000,-83100 -5120900,-2507500 -5036600,-5415100z"/>
  <path class="fil0 str0" d="M-130127000 16275200c-6245600,0 -11308500,5063100 -11308500,11308600 -100,6245500 5062900,11308600 11308500,11308600 6245500,0 11308600,-5063000 11308600,-11308500 0,-6245600 -5063000,-11308700 -11308600,-11308700z"/>
  <line class="fil0 str0" x1="-130127000" y1="16275200" x2="-130127000" y2= "16275200" />
  <line class="fil0 str0" x1="-118818400" y1="27583900" x2="-118818400" y2= "27583900" />
  <line class="fil0 str0" x1="-130127000" y1="38892400" x2="-130127000" y2= "38892400" />
  <line class="fil0 str0" x1="-141435500" y1="27583800" x2="-141435500" y2= "27583800" />
  <line class="fil0 str0" x1="-130127000" y1="16275200" x2="-130127000" y2= "16275200" />
  <path class="fil0 str0" d="M-130127100 23210600c-2415200,0 -4373100,1957900 -4373100,4373100 -100,2415300 1957900,4373200 4373100,4373200 2415300,0 4373200,-1957900 4373200,-4373200 100,-2415200 -1957900,-4373100 -4373200,-4373100z"/>
  <line class="fil0 str0" x1="-130127100" y1="23210600" x2="-130127100" y2= "23210600" />
  <line class="fil0 str0" x1="-125753900" y1="27583700" x2="-125753900" y2= "27583700" />
  <line class="fil0 str0" x1="-130127100" y1="31956900" x2="-130127100" y2= "31956900" />
  <line class="fil0 str0" x1="-134500200" y1="27583700" x2="-134500200" y2= "27583700" />
  <line class="fil0 str0" x1="-130127100" y1="23210600" x2="-130127100" y2= "23210600" />
  <rect class="fil1 str1" x="-172287600" y="231941100" width="59057200" height="5905700"/>
 </g>
</svg>
