<?xml version='1.0' encoding='utf-8'?>
<svg height="377.25mm" viewBox="0.0 0.0 446.70 377.25" width="446.70mm" xmlns="http://www.w3.org/2000/svg" xmlns:cc="http://creativecommons.org/ns#" xmlns:dc="http://purl.org/dc/elements/1.1/" xmlns:inkscape="http://www.inkscape.org/namespaces/inkscape" xmlns:rdf="http://www.w3.org/1999/02/22-rdf-syntax-ns#" xmlns:svg="http://www.w3.org/2000/svg" xmlns:xlink="http://www.w3.org/1999/xlink">
<!--
PaperBox - Box made of paper, with lid.



This box is made of paper.

There is marks in the "outside leftover paper" to help see where to fold
(cutting with tabs helps use them). The cut is very precise, and could be too tight if misaligned when glued. A plywood box (such as a simple TypeTray) of the same size is a great guide during folding and gluing. Just fold the box against it. Accurate quick and easy.

A paper creaser (or bone folder) is also useful.



Created with Boxes.py (https://boxes.hackerspace-bamberg.de/)
Creation date: 2026-04-26 03:54:33
Command line (remove spaces between dashes): boxes PaperBox - -x=70 - -y=96 - -h=35 - -qr_code=0 - -qr_code=1 - -spacing=0.5
Url: https://boxes.hackerspace-bamberg.de/PaperBox?x=70&y=96&h=35&design=automatic&lid_height=15&lid_radius=7&lid_sides=20&margin=0&mark_length=1.5&tab_angle_rad=0.07982998571223732&finger_hole_diameter=15&thickness=3&burn=0.1&format=svg&labels=0&labels=1&reference=100.0&tabs=0.0&qr_code=0&qr_code=1&inner_corners=loop&spacing=0.5&debug=0&language=en&render=2
Url short: https://boxes.hackerspace-bamberg.de/PaperBox?x=70&y=96&h=35&spacing=0.5
SettingsUrl: https://boxes.hackerspace-bamberg.de/PaperBox?x=70&y=96&h=35&design=automatic&lid_height=15&lid_radius=7&lid_sides=20&margin=0&mark_length=1.5&tab_angle_rad=0.07982998571223732&finger_hole_diameter=15&thickness=3&burn=0.1&format=svg&labels=0&labels=1&reference=100.0&tabs=0.0&qr_code=0&qr_code=1&inner_corners=loop&spacing=0.5&debug=0&language=en&render=2
SettingsUrl short: https://boxes.hackerspace-bamberg.de/PaperBox?x=70&y=96&h=35&spacing=0.5
-->
<title>PaperBox</title>
<metadata>
<rdf:RDF><cc:Work>
<dc:title>Misc - PaperBox</dc:title>
<dc:date>2026-04-26 03:54:33</dc:date>
<dc:source>https://boxes.hackerspace-bamberg.de/PaperBox?x=70&amp;y=96&amp;h=35&amp;design=automatic&amp;lid_height=15&amp;lid_radius=7&amp;lid_sides=20&amp;margin=0&amp;mark_length=1.5&amp;tab_angle_rad=0.07982998571223732&amp;finger_hole_diameter=15&amp;thickness=3&amp;burn=0.1&amp;format=svg&amp;labels=0&amp;labels=1&amp;reference=100.0&amp;tabs=0.0&amp;qr_code=0&amp;qr_code=1&amp;inner_corners=loop&amp;spacing=0.5&amp;debug=0&amp;language=en&amp;render=2</dc:source>
<dc:source>https://boxes.hackerspace-bamberg.de/PaperBox?x=70&amp;y=96&amp;h=35&amp;spacing=0.5</dc:source>
<dc:description>Box made of paper, with lid.


This box is made of paper.

There is marks in the "outside leftover paper" to help see where to fold
(cutting with tabs helps use them). The cut is very precise, and could be too tight if misaligned when glued. A plywood box (such as a simple TypeTray) of the same size is a great guide during folding and gluing. Just fold the box against it. Accurate quick and easy.

A paper creaser (or bone folder) is also useful.


Created with Boxes.py (https://boxes.hackerspace-bamberg.de/)
Command line: boxes PaperBox --x=70 --y=96 --h=35 --design=automatic --lid_height=15 --lid_radius=7 --lid_sides=20 --margin=0 --mark_length=1.5 --tab_angle_rad=0.07982998571223732 --finger_hole_diameter=15 --thickness=3 --burn=0.1 --format=svg --labels=0 --labels=1 --reference=100.0 --tabs=0.0 --qr_code=0 --qr_code=1 --inner_corners=loop --spacing=0.5 --debug=0
Command line short: boxes PaperBox --x=70 --y=96 --h=35 --qr_code=0 --qr_code=1 --spacing=0.5
Url: https://boxes.hackerspace-bamberg.de/PaperBox?x=70&amp;y=96&amp;h=35&amp;design=automatic&amp;lid_height=15&amp;lid_radius=7&amp;lid_sides=20&amp;margin=0&amp;mark_length=1.5&amp;tab_angle_rad=0.07982998571223732&amp;finger_hole_diameter=15&amp;thickness=3&amp;burn=0.1&amp;format=svg&amp;labels=0&amp;labels=1&amp;reference=100.0&amp;tabs=0.0&amp;qr_code=0&amp;qr_code=1&amp;inner_corners=loop&amp;spacing=0.5&amp;debug=0&amp;language=en&amp;render=2
Url short: https://boxes.hackerspace-bamberg.de/PaperBox?x=70&amp;y=96&amp;h=35&amp;spacing=0.5
SettingsUrl: https://boxes.hackerspace-bamberg.de/PaperBox?x=70&amp;y=96&amp;h=35&amp;design=automatic&amp;lid_height=15&amp;lid_radius=7&amp;lid_sides=20&amp;margin=0&amp;mark_length=1.5&amp;tab_angle_rad=0.07982998571223732&amp;finger_hole_diameter=15&amp;thickness=3&amp;burn=0.1&amp;format=svg&amp;labels=0&amp;labels=1&amp;reference=100.0&amp;tabs=0.0&amp;qr_code=0&amp;qr_code=1&amp;inner_corners=loop&amp;spacing=0.5&amp;debug=0&amp;language=en&amp;render=2
SettingsUrl short: https://boxes.hackerspace-bamberg.de/PaperBox?x=70&amp;y=96&amp;h=35&amp;spacing=0.5
</dc:description>
</cc:Work></rdf:RDF></metadata>
<g id="p-0" style="fill:none;stroke-linecap:round;stroke-linejoin:round;">
  <path d="M 65.950 367.250 H 165.950 V 357.250 H 65.950 V 367.250 Z" stroke="rgb(0,0,0)" stroke-width="0.20" />
  <text dominant-baseline="hanging" font-size="6px" style="font-family: sans-serif ; font-weight: normal; font-style: normal; fill: rgb(255,0,0)" text-anchor="middle" transform="matrix( 1.000 0.000 0.000 1.000 115.950 359.250 )">100.0mm, burn:0.10mm</text>
</g>
<g id="p-1" style="fill:none;stroke-linecap:round;stroke-linejoin:round;">
  <path d="M 71.950 349.550 H 73.450 V 348.050 H 71.950 V 349.550 Z" stroke="rgb(0,255,0)" stroke-width="0.20" />
  <path d="M 71.950 348.050 H 73.450 V 346.550 H 71.950 V 348.050 Z" stroke="rgb(0,255,0)" stroke-width="0.20" />
  <path d="M 71.950 346.550 H 73.450 V 345.050 H 71.950 V 346.550 Z" stroke="rgb(0,255,0)" stroke-width="0.20" />
  <path d="M 71.950 345.050 H 73.450 V 343.550 H 71.950 V 345.050 Z" stroke="rgb(0,255,0)" stroke-width="0.20" />
  <path d="M 71.950 343.550 H 73.450 V 342.050 H 71.950 V 343.550 Z" stroke="rgb(0,255,0)" stroke-width="0.20" />
  <path d="M 71.950 342.050 H 73.450 V 340.550 H 71.950 V 342.050 Z" stroke="rgb(0,255,0)" stroke-width="0.20" />
  <path d="M 71.950 340.550 H 73.450 V 339.050 H 71.950 V 340.550 Z" stroke="rgb(0,255,0)" stroke-width="0.20" />
  <path d="M 71.950 336.050 H 73.450 V 334.550 H 71.950 V 336.050 Z" stroke="rgb(0,255,0)" stroke-width="0.20" />
  <path d="M 71.950 334.550 H 73.450 V 333.050 H 71.950 V 334.550 Z" stroke="rgb(0,255,0)" stroke-width="0.20" />
  <path d="M 71.950 333.050 H 73.450 V 331.550 H 71.950 V 333.050 Z" stroke="rgb(0,255,0)" stroke-width="0.20" />
  <path d="M 71.950 331.550 H 73.450 V 330.050 H 71.950 V 331.550 Z" stroke="rgb(0,255,0)" stroke-width="0.20" />
  <path d="M 71.950 327.050 H 73.450 V 325.550 H 71.950 V 327.050 Z" stroke="rgb(0,255,0)" stroke-width="0.20" />
  <path d="M 71.950 325.550 H 73.450 V 324.050 H 71.950 V 325.550 Z" stroke="rgb(0,255,0)" stroke-width="0.20" />
  <path d="M 71.950 324.050 H 73.450 V 322.550 H 71.950 V 324.050 Z" stroke="rgb(0,255,0)" stroke-width="0.20" />
  <path d="M 71.950 319.550 H 73.450 V 318.050 H 71.950 V 319.550 Z" stroke="rgb(0,255,0)" stroke-width="0.20" />
  <path d="M 71.950 316.550 H 73.450 V 315.050 H 71.950 V 316.550 Z" stroke="rgb(0,255,0)" stroke-width="0.20" />
  <path d="M 71.950 315.050 H 73.450 V 313.550 H 71.950 V 315.050 Z" stroke="rgb(0,255,0)" stroke-width="0.20" />
  <path d="M 71.950 309.050 H 73.450 V 307.550 H 71.950 V 309.050 Z" stroke="rgb(0,255,0)" stroke-width="0.20" />
  <path d="M 71.950 307.550 H 73.450 V 306.050 H 71.950 V 307.550 Z" stroke="rgb(0,255,0)" stroke-width="0.20" />
  <path d="M 71.950 304.550 H 73.450 V 303.050 H 71.950 V 304.550 Z" stroke="rgb(0,255,0)" stroke-width="0.20" />
  <path d="M 71.950 303.050 H 73.450 V 301.550 H 71.950 V 303.050 Z" stroke="rgb(0,255,0)" stroke-width="0.20" />
  <path d="M 71.950 301.550 H 73.450 V 300.050 H 71.950 V 301.550 Z" stroke="rgb(0,255,0)" stroke-width="0.20" />
  <path d="M 71.950 300.050 H 73.450 V 298.550 H 71.950 V 300.050 Z" stroke="rgb(0,255,0)" stroke-width="0.20" />
  <path d="M 71.950 298.550 H 73.450 V 297.050 H 71.950 V 298.550 Z" stroke="rgb(0,255,0)" stroke-width="0.20" />
  <path d="M 71.950 297.050 H 73.450 V 295.550 H 71.950 V 297.050 Z" stroke="rgb(0,255,0)" stroke-width="0.20" />
  <path d="M 71.950 295.550 H 73.450 V 294.050 H 71.950 V 295.550 Z" stroke="rgb(0,255,0)" stroke-width="0.20" />
  <path d="M 73.450 349.550 H 74.950 V 348.050 H 73.450 V 349.550 Z" stroke="rgb(0,255,0)" stroke-width="0.20" />
  <path d="M 73.450 340.550 H 74.950 V 339.050 H 73.450 V 340.550 Z" stroke="rgb(0,255,0)" stroke-width="0.20" />
  <path d="M 73.450 334.550 H 74.950 V 333.050 H 73.450 V 334.550 Z" stroke="rgb(0,255,0)" stroke-width="0.20" />
  <path d="M 73.450 333.050 H 74.950 V 331.550 H 73.450 V 333.050 Z" stroke="rgb(0,255,0)" stroke-width="0.20" />
  <path d="M 73.450 331.550 H 74.950 V 330.050 H 73.450 V 331.550 Z" stroke="rgb(0,255,0)" stroke-width="0.20" />
  <path d="M 73.450 330.050 H 74.950 V 328.550 H 73.450 V 330.050 Z" stroke="rgb(0,255,0)" stroke-width="0.20" />
  <path d="M 73.450 328.550 H 74.950 V 327.050 H 73.450 V 328.550 Z" stroke="rgb(0,255,0)" stroke-width="0.20" />
  <path d="M 73.450 325.550 H 74.950 V 324.050 H 73.450 V 325.550 Z" stroke="rgb(0,255,0)" stroke-width="0.20" />
  <path d="M 73.450 322.550 H 74.950 V 321.050 H 73.450 V 322.550 Z" stroke="rgb(0,255,0)" stroke-width="0.20" />
  <path d="M 73.450 319.550 H 74.950 V 318.050 H 73.450 V 319.550 Z" stroke="rgb(0,255,0)" stroke-width="0.20" />
  <path d="M 73.450 318.050 H 74.950 V 316.550 H 73.450 V 318.050 Z" stroke="rgb(0,255,0)" stroke-width="0.20" />
  <path d="M 73.450 315.050 H 74.950 V 313.550 H 73.450 V 315.050 Z" stroke="rgb(0,255,0)" stroke-width="0.20" />
  <path d="M 73.450 309.050 H 74.950 V 307.550 H 73.450 V 309.050 Z" stroke="rgb(0,255,0)" stroke-width="0.20" />
  <path d="M 73.450 304.550 H 74.950 V 303.050 H 73.450 V 304.550 Z" stroke="rgb(0,255,0)" stroke-width="0.20" />
  <path d="M 73.450 295.550 H 74.950 V 294.050 H 73.450 V 295.550 Z" stroke="rgb(0,255,0)" stroke-width="0.20" />
  <path d="M 74.950 349.550 H 76.450 V 348.050 H 74.950 V 349.550 Z" stroke="rgb(0,255,0)" stroke-width="0.20" />
  <path d="M 74.950 346.550 H 76.450 V 345.050 H 74.950 V 346.550 Z" stroke="rgb(0,255,0)" stroke-width="0.20" />
  <path d="M 74.950 345.050 H 76.450 V 343.550 H 74.950 V 345.050 Z" stroke="rgb(0,255,0)" stroke-width="0.20" />
  <path d="M 74.950 343.550 H 76.450 V 342.050 H 74.950 V 343.550 Z" stroke="rgb(0,255,0)" stroke-width="0.20" />
  <path d="M 74.950 340.550 H 76.450 V 339.050 H 74.950 V 340.550 Z" stroke="rgb(0,255,0)" stroke-width="0.20" />
  <path d="M 74.950 336.050 H 76.450 V 334.550 H 74.950 V 336.050 Z" stroke="rgb(0,255,0)" stroke-width="0.20" />
  <path d="M 74.950 331.550 H 76.450 V 330.050 H 74.950 V 331.550 Z" stroke="rgb(0,255,0)" stroke-width="0.20" />
  <path d="M 74.950 330.050 H 76.450 V 328.550 H 74.950 V 330.050 Z" stroke="rgb(0,255,0)" stroke-width="0.20" />
  <path d="M 74.950 324.050 H 76.450 V 322.550 H 74.950 V 324.050 Z" stroke="rgb(0,255,0)" stroke-width="0.20" />
  <path d="M 74.950 322.550 H 76.450 V 321.050 H 74.950 V 322.550 Z" stroke="rgb(0,255,0)" stroke-width="0.20" />
  <path d="M 74.950 310.550 H 76.450 V 309.050 H 74.950 V 310.550 Z" stroke="rgb(0,255,0)" stroke-width="0.20" />
  <path d="M 74.950 304.550 H 76.450 V 303.050 H 74.950 V 304.550 Z" stroke="rgb(0,255,0)" stroke-width="0.20" />
  <path d="M 74.950 301.550 H 76.450 V 300.050 H 74.950 V 301.550 Z" stroke="rgb(0,255,0)" stroke-width="0.20" />
  <path d="M 74.950 300.050 H 76.450 V 298.550 H 74.950 V 300.050 Z" stroke="rgb(0,255,0)" stroke-width="0.20" />
  <path d="M 74.950 298.550 H 76.450 V 297.050 H 74.950 V 298.550 Z" stroke="rgb(0,255,0)" stroke-width="0.20" />
  <path d="M 74.950 295.550 H 76.450 V 294.050 H 74.950 V 295.550 Z" stroke="rgb(0,255,0)" stroke-width="0.20" />
  <path d="M 76.450 349.550 H 77.950 V 348.050 H 76.450 V 349.550 Z" stroke="rgb(0,255,0)" stroke-width="0.20" />
  <path d="M 76.450 346.550 H 77.950 V 345.050 H 76.450 V 346.550 Z" stroke="rgb(0,255,0)" stroke-width="0.20" />
  <path d="M 76.450 345.050 H 77.950 V 343.550 H 76.450 V 345.050 Z" stroke="rgb(0,255,0)" stroke-width="0.20" />
  <path d="M 76.450 343.550 H 77.950 V 342.050 H 76.450 V 343.550 Z" stroke="rgb(0,255,0)" stroke-width="0.20" />
  <path d="M 76.450 340.550 H 77.950 V 339.050 H 76.450 V 340.550 Z" stroke="rgb(0,255,0)" stroke-width="0.20" />
  <path d="M 76.450 333.050 H 77.950 V 331.550 H 76.450 V 333.050 Z" stroke="rgb(0,255,0)" stroke-width="0.20" />
  <path d="M 76.450 331.550 H 77.950 V 330.050 H 76.450 V 331.550 Z" stroke="rgb(0,255,0)" stroke-width="0.20" />
  <path d="M 76.450 327.050 H 77.950 V 325.550 H 76.450 V 327.050 Z" stroke="rgb(0,255,0)" stroke-width="0.20" />
  <path d="M 76.450 322.550 H 77.950 V 321.050 H 76.450 V 322.550 Z" stroke="rgb(0,255,0)" stroke-width="0.20" />
  <path d="M 76.450 321.050 H 77.950 V 319.550 H 76.450 V 321.050 Z" stroke="rgb(0,255,0)" stroke-width="0.20" />
  <path d="M 76.450 310.550 H 77.950 V 309.050 H 76.450 V 310.550 Z" stroke="rgb(0,255,0)" stroke-width="0.20" />
  <path d="M 76.450 304.550 H 77.950 V 303.050 H 76.450 V 304.550 Z" stroke="rgb(0,255,0)" stroke-width="0.20" />
  <path d="M 76.450 301.550 H 77.950 V 300.050 H 76.450 V 301.550 Z" stroke="rgb(0,255,0)" stroke-width="0.20" />
  <path d="M 76.450 300.050 H 77.950 V 298.550 H 76.450 V 300.050 Z" stroke="rgb(0,255,0)" stroke-width="0.20" />
  <path d="M 76.450 298.550 H 77.950 V 297.050 H 76.450 V 298.550 Z" stroke="rgb(0,255,0)" stroke-width="0.20" />
  <path d="M 76.450 295.550 H 77.950 V 294.050 H 76.450 V 295.550 Z" stroke="rgb(0,255,0)" stroke-width="0.20" />
  <path d="M 77.950 349.550 H 79.450 V 348.050 H 77.950 V 349.550 Z" stroke="rgb(0,255,0)" stroke-width="0.20" />
  <path d="M 77.950 346.550 H 79.450 V 345.050 H 77.950 V 346.550 Z" stroke="rgb(0,255,0)" stroke-width="0.20" />
  <path d="M 77.950 345.050 H 79.450 V 343.550 H 77.950 V 345.050 Z" stroke="rgb(0,255,0)" stroke-width="0.20" />
  <path d="M 77.950 343.550 H 79.450 V 342.050 H 77.950 V 343.550 Z" stroke="rgb(0,255,0)" stroke-width="0.20" />
  <path d="M 77.950 340.550 H 79.450 V 339.050 H 77.950 V 340.550 Z" stroke="rgb(0,255,0)" stroke-width="0.20" />
  <path d="M 77.950 336.050 H 79.450 V 334.550 H 77.950 V 336.050 Z" stroke="rgb(0,255,0)" stroke-width="0.20" />
  <path d="M 77.950 334.550 H 79.450 V 333.050 H 77.950 V 334.550 Z" stroke="rgb(0,255,0)" stroke-width="0.20" />
  <path d="M 77.950 331.550 H 79.450 V 330.050 H 77.950 V 331.550 Z" stroke="rgb(0,255,0)" stroke-width="0.20" />
  <path d="M 77.950 330.050 H 79.450 V 328.550 H 77.950 V 330.050 Z" stroke="rgb(0,255,0)" stroke-width="0.20" />
  <path d="M 77.950 328.550 H 79.450 V 327.050 H 77.950 V 328.550 Z" stroke="rgb(0,255,0)" stroke-width="0.20" />
  <path d="M 77.950 327.050 H 79.450 V 325.550 H 77.950 V 327.050 Z" stroke="rgb(0,255,0)" stroke-width="0.20" />
  <path d="M 77.950 324.050 H 79.450 V 322.550 H 77.950 V 324.050 Z" stroke="rgb(0,255,0)" stroke-width="0.20" />
  <path d="M 77.950 322.550 H 79.450 V 321.050 H 77.950 V 322.550 Z" stroke="rgb(0,255,0)" stroke-width="0.20" />
  <path d="M 77.950 319.550 H 79.450 V 318.050 H 77.950 V 319.550 Z" stroke="rgb(0,255,0)" stroke-width="0.20" />
  <path d="M 77.950 315.050 H 79.450 V 313.550 H 77.950 V 315.050 Z" stroke="rgb(0,255,0)" stroke-width="0.20" />
  <path d="M 77.950 312.050 H 79.450 V 310.550 H 77.950 V 312.050 Z" stroke="rgb(0,255,0)" stroke-width="0.20" />
  <path d="M 77.950 310.550 H 79.450 V 309.050 H 77.950 V 310.550 Z" stroke="rgb(0,255,0)" stroke-width="0.20" />
  <path d="M 77.950 309.050 H 79.450 V 307.550 H 77.950 V 309.050 Z" stroke="rgb(0,255,0)" stroke-width="0.20" />
  <path d="M 77.950 307.550 H 79.450 V 306.050 H 77.950 V 307.550 Z" stroke="rgb(0,255,0)" stroke-width="0.20" />
  <path d="M 77.950 304.550 H 79.450 V 303.050 H 77.950 V 304.550 Z" stroke="rgb(0,255,0)" stroke-width="0.20" />
  <path d="M 77.950 301.550 H 79.450 V 300.050 H 77.950 V 301.550 Z" stroke="rgb(0,255,0)" stroke-width="0.20" />
  <path d="M 77.950 300.050 H 79.450 V 298.550 H 77.950 V 300.050 Z" stroke="rgb(0,255,0)" stroke-width="0.20" />
  <path d="M 77.950 298.550 H 79.450 V 297.050 H 77.950 V 298.550 Z" stroke="rgb(0,255,0)" stroke-width="0.20" />
  <path d="M 77.950 295.550 H 79.450 V 294.050 H 77.950 V 295.550 Z" stroke="rgb(0,255,0)" stroke-width="0.20" />
  <path d="M 79.450 349.550 H 80.950 V 348.050 H 79.450 V 349.550 Z" stroke="rgb(0,255,0)" stroke-width="0.20" />
  <path d="M 79.450 340.550 H 80.950 V 339.050 H 79.450 V 340.550 Z" stroke="rgb(0,255,0)" stroke-width="0.20" />
  <path d="M 79.450 337.550 H 80.950 V 336.050 H 79.450 V 337.550 Z" stroke="rgb(0,255,0)" stroke-width="0.20" />
  <path d="M 79.450 336.050 H 80.950 V 334.550 H 79.450 V 336.050 Z" stroke="rgb(0,255,0)" stroke-width="0.20" />
  <path d="M 79.450 333.050 H 80.950 V 331.550 H 79.450 V 333.050 Z" stroke="rgb(0,255,0)" stroke-width="0.20" />
  <path d="M 79.450 325.550 H 80.950 V 324.050 H 79.450 V 325.550 Z" stroke="rgb(0,255,0)" stroke-width="0.20" />
  <path d="M 79.450 324.050 H 80.950 V 322.550 H 79.450 V 324.050 Z" stroke="rgb(0,255,0)" stroke-width="0.20" />
  <path d="M 79.450 322.550 H 80.950 V 321.050 H 79.450 V 322.550 Z" stroke="rgb(0,255,0)" stroke-width="0.20" />
  <path d="M 79.450 321.050 H 80.950 V 319.550 H 79.450 V 321.050 Z" stroke="rgb(0,255,0)" stroke-width="0.20" />
  <path d="M 79.450 316.550 H 80.950 V 315.050 H 79.450 V 316.550 Z" stroke="rgb(0,255,0)" stroke-width="0.20" />
  <path d="M 79.450 313.550 H 80.950 V 312.050 H 79.450 V 313.550 Z" stroke="rgb(0,255,0)" stroke-width="0.20" />
  <path d="M 79.450 310.550 H 80.950 V 309.050 H 79.450 V 310.550 Z" stroke="rgb(0,255,0)" stroke-width="0.20" />
  <path d="M 79.450 309.050 H 80.950 V 307.550 H 79.450 V 309.050 Z" stroke="rgb(0,255,0)" stroke-width="0.20" />
  <path d="M 79.450 304.550 H 80.950 V 303.050 H 79.450 V 304.550 Z" stroke="rgb(0,255,0)" stroke-width="0.20" />
  <path d="M 79.450 295.550 H 80.950 V 294.050 H 79.450 V 295.550 Z" stroke="rgb(0,255,0)" stroke-width="0.20" />
  <path d="M 80.950 349.550 H 82.450 V 348.050 H 80.950 V 349.550 Z" stroke="rgb(0,255,0)" stroke-width="0.20" />
  <path d="M 80.950 348.050 H 82.450 V 346.550 H 80.950 V 348.050 Z" stroke="rgb(0,255,0)" stroke-width="0.20" />
  <path d="M 80.950 346.550 H 82.450 V 345.050 H 80.950 V 346.550 Z" stroke="rgb(0,255,0)" stroke-width="0.20" />
  <path d="M 80.950 345.050 H 82.450 V 343.550 H 80.950 V 345.050 Z" stroke="rgb(0,255,0)" stroke-width="0.20" />
  <path d="M 80.950 343.550 H 82.450 V 342.050 H 80.950 V 343.550 Z" stroke="rgb(0,255,0)" stroke-width="0.20" />
  <path d="M 80.950 342.050 H 82.450 V 340.550 H 80.950 V 342.050 Z" stroke="rgb(0,255,0)" stroke-width="0.20" />
  <path d="M 80.950 340.550 H 82.450 V 339.050 H 80.950 V 340.550 Z" stroke="rgb(0,255,0)" stroke-width="0.20" />
  <path d="M 80.950 337.550 H 82.450 V 336.050 H 80.950 V 337.550 Z" stroke="rgb(0,255,0)" stroke-width="0.20" />
  <path d="M 80.950 334.550 H 82.450 V 333.050 H 80.950 V 334.550 Z" stroke="rgb(0,255,0)" stroke-width="0.20" />
  <path d="M 80.950 331.550 H 82.450 V 330.050 H 80.950 V 331.550 Z" stroke="rgb(0,255,0)" stroke-width="0.20" />
  <path d="M 80.950 328.550 H 82.450 V 327.050 H 80.950 V 328.550 Z" stroke="rgb(0,255,0)" stroke-width="0.20" />
  <path d="M 80.950 325.550 H 82.450 V 324.050 H 80.950 V 325.550 Z" stroke="rgb(0,255,0)" stroke-width="0.20" />
  <path d="M 80.950 322.550 H 82.450 V 321.050 H 80.950 V 322.550 Z" stroke="rgb(0,255,0)" stroke-width="0.20" />
  <path d="M 80.950 319.550 H 82.450 V 318.050 H 80.950 V 319.550 Z" stroke="rgb(0,255,0)" stroke-width="0.20" />
  <path d="M 80.950 316.550 H 82.450 V 315.050 H 80.950 V 316.550 Z" stroke="rgb(0,255,0)" stroke-width="0.20" />
  <path d="M 80.950 313.550 H 82.450 V 312.050 H 80.950 V 313.550 Z" stroke="rgb(0,255,0)" stroke-width="0.20" />
  <path d="M 80.950 310.550 H 82.450 V 309.050 H 80.950 V 310.550 Z" stroke="rgb(0,255,0)" stroke-width="0.20" />
  <path d="M 80.950 307.550 H 82.450 V 306.050 H 80.950 V 307.550 Z" stroke="rgb(0,255,0)" stroke-width="0.20" />
  <path d="M 80.950 304.550 H 82.450 V 303.050 H 80.950 V 304.550 Z" stroke="rgb(0,255,0)" stroke-width="0.20" />
  <path d="M 80.950 303.050 H 82.450 V 301.550 H 80.950 V 303.050 Z" stroke="rgb(0,255,0)" stroke-width="0.20" />
  <path d="M 80.950 301.550 H 82.450 V 300.050 H 80.950 V 301.550 Z" stroke="rgb(0,255,0)" stroke-width="0.20" />
  <path d="M 80.950 300.050 H 82.450 V 298.550 H 80.950 V 300.050 Z" stroke="rgb(0,255,0)" stroke-width="0.20" />
  <path d="M 80.950 298.550 H 82.450 V 297.050 H 80.950 V 298.550 Z" stroke="rgb(0,255,0)" stroke-width="0.20" />
  <path d="M 80.950 297.050 H 82.450 V 295.550 H 80.950 V 297.050 Z" stroke="rgb(0,255,0)" stroke-width="0.20" />
  <path d="M 80.950 295.550 H 82.450 V 294.050 H 80.950 V 295.550 Z" stroke="rgb(0,255,0)" stroke-width="0.20" />
  <path d="M 82.450 336.050 H 83.950 V 334.550 H 82.450 V 336.050 Z" stroke="rgb(0,255,0)" stroke-width="0.20" />
  <path d="M 82.450 333.050 H 83.950 V 331.550 H 82.450 V 333.050 Z" stroke="rgb(0,255,0)" stroke-width="0.20" />
  <path d="M 82.450 331.550 H 83.950 V 330.050 H 82.450 V 331.550 Z" stroke="rgb(0,255,0)" stroke-width="0.20" />
  <path d="M 82.450 330.050 H 83.950 V 328.550 H 82.450 V 330.050 Z" stroke="rgb(0,255,0)" stroke-width="0.20" />
  <path d="M 82.450 328.550 H 83.950 V 327.050 H 82.450 V 328.550 Z" stroke="rgb(0,255,0)" stroke-width="0.20" />
  <path d="M 82.450 327.050 H 83.950 V 325.550 H 82.450 V 327.050 Z" stroke="rgb(0,255,0)" stroke-width="0.20" />
  <path d="M 82.450 321.050 H 83.950 V 319.550 H 82.450 V 321.050 Z" stroke="rgb(0,255,0)" stroke-width="0.20" />
  <path d="M 82.450 319.550 H 83.950 V 318.050 H 82.450 V 319.550 Z" stroke="rgb(0,255,0)" stroke-width="0.20" />
  <path d="M 82.450 318.050 H 83.950 V 316.550 H 82.450 V 318.050 Z" stroke="rgb(0,255,0)" stroke-width="0.20" />
  <path d="M 82.450 310.550 H 83.950 V 309.050 H 82.450 V 310.550 Z" stroke="rgb(0,255,0)" stroke-width="0.20" />
  <path d="M 82.450 309.050 H 83.950 V 307.550 H 82.450 V 309.050 Z" stroke="rgb(0,255,0)" stroke-width="0.20" />
  <path d="M 82.450 307.550 H 83.950 V 306.050 H 82.450 V 307.550 Z" stroke="rgb(0,255,0)" stroke-width="0.20" />
  <path d="M 83.950 349.550 H 85.450 V 348.050 H 83.950 V 349.550 Z" stroke="rgb(0,255,0)" stroke-width="0.20" />
  <path d="M 83.950 345.050 H 85.450 V 343.550 H 83.950 V 345.050 Z" stroke="rgb(0,255,0)" stroke-width="0.20" />
  <path d="M 83.950 342.050 H 85.450 V 340.550 H 83.950 V 342.050 Z" stroke="rgb(0,255,0)" stroke-width="0.20" />
  <path d="M 83.950 340.550 H 85.450 V 339.050 H 83.950 V 340.550 Z" stroke="rgb(0,255,0)" stroke-width="0.20" />
  <path d="M 83.950 337.550 H 85.450 V 336.050 H 83.950 V 337.550 Z" stroke="rgb(0,255,0)" stroke-width="0.20" />
  <path d="M 83.950 336.050 H 85.450 V 334.550 H 83.950 V 336.050 Z" stroke="rgb(0,255,0)" stroke-width="0.20" />
  <path d="M 83.950 331.550 H 85.450 V 330.050 H 83.950 V 331.550 Z" stroke="rgb(0,255,0)" stroke-width="0.20" />
  <path d="M 83.950 327.050 H 85.450 V 325.550 H 83.950 V 327.050 Z" stroke="rgb(0,255,0)" stroke-width="0.20" />
  <path d="M 83.950 324.050 H 85.450 V 322.550 H 83.950 V 324.050 Z" stroke="rgb(0,255,0)" stroke-width="0.20" />
  <path d="M 83.950 318.050 H 85.450 V 316.550 H 83.950 V 318.050 Z" stroke="rgb(0,255,0)" stroke-width="0.20" />
  <path d="M 83.950 316.550 H 85.450 V 315.050 H 83.950 V 316.550 Z" stroke="rgb(0,255,0)" stroke-width="0.20" />
  <path d="M 83.950 315.050 H 85.450 V 313.550 H 83.950 V 315.050 Z" stroke="rgb(0,255,0)" stroke-width="0.20" />
  <path d="M 83.950 313.550 H 85.450 V 312.050 H 83.950 V 313.550 Z" stroke="rgb(0,255,0)" stroke-width="0.20" />
  <path d="M 83.950 312.050 H 85.450 V 310.550 H 83.950 V 312.050 Z" stroke="rgb(0,255,0)" stroke-width="0.20" />
  <path d="M 83.950 309.050 H 85.450 V 307.550 H 83.950 V 309.050 Z" stroke="rgb(0,255,0)" stroke-width="0.20" />
  <path d="M 83.950 306.050 H 85.450 V 304.550 H 83.950 V 306.050 Z" stroke="rgb(0,255,0)" stroke-width="0.20" />
  <path d="M 83.950 303.050 H 85.450 V 301.550 H 83.950 V 303.050 Z" stroke="rgb(0,255,0)" stroke-width="0.20" />
  <path d="M 85.450 349.550 H 86.950 V 348.050 H 85.450 V 349.550 Z" stroke="rgb(0,255,0)" stroke-width="0.20" />
  <path d="M 85.450 348.050 H 86.950 V 346.550 H 85.450 V 348.050 Z" stroke="rgb(0,255,0)" stroke-width="0.20" />
  <path d="M 85.450 346.550 H 86.950 V 345.050 H 85.450 V 346.550 Z" stroke="rgb(0,255,0)" stroke-width="0.20" />
  <path d="M 85.450 345.050 H 86.950 V 343.550 H 85.450 V 345.050 Z" stroke="rgb(0,255,0)" stroke-width="0.20" />
  <path d="M 85.450 343.550 H 86.950 V 342.050 H 85.450 V 343.550 Z" stroke="rgb(0,255,0)" stroke-width="0.20" />
  <path d="M 85.450 337.550 H 86.950 V 336.050 H 85.450 V 337.550 Z" stroke="rgb(0,255,0)" stroke-width="0.20" />
  <path d="M 85.450 336.050 H 86.950 V 334.550 H 85.450 V 336.050 Z" stroke="rgb(0,255,0)" stroke-width="0.20" />
  <path d="M 85.450 333.050 H 86.950 V 331.550 H 85.450 V 333.050 Z" stroke="rgb(0,255,0)" stroke-width="0.20" />
  <path d="M 85.450 331.550 H 86.950 V 330.050 H 85.450 V 331.550 Z" stroke="rgb(0,255,0)" stroke-width="0.20" />
  <path d="M 85.450 330.050 H 86.950 V 328.550 H 85.450 V 330.050 Z" stroke="rgb(0,255,0)" stroke-width="0.20" />
  <path d="M 85.450 328.550 H 86.950 V 327.050 H 85.450 V 328.550 Z" stroke="rgb(0,255,0)" stroke-width="0.20" />
  <path d="M 85.450 327.050 H 86.950 V 325.550 H 85.450 V 327.050 Z" stroke="rgb(0,255,0)" stroke-width="0.20" />
  <path d="M 85.450 324.050 H 86.950 V 322.550 H 85.450 V 324.050 Z" stroke="rgb(0,255,0)" stroke-width="0.20" />
  <path d="M 85.450 321.050 H 86.950 V 319.550 H 85.450 V 321.050 Z" stroke="rgb(0,255,0)" stroke-width="0.20" />
  <path d="M 85.450 319.550 H 86.950 V 318.050 H 85.450 V 319.550 Z" stroke="rgb(0,255,0)" stroke-width="0.20" />
  <path d="M 85.450 316.550 H 86.950 V 315.050 H 85.450 V 316.550 Z" stroke="rgb(0,255,0)" stroke-width="0.20" />
  <path d="M 85.450 313.550 H 86.950 V 312.050 H 85.450 V 313.550 Z" stroke="rgb(0,255,0)" stroke-width="0.20" />
  <path d="M 85.450 312.050 H 86.950 V 310.550 H 85.450 V 312.050 Z" stroke="rgb(0,255,0)" stroke-width="0.20" />
  <path d="M 85.450 310.550 H 86.950 V 309.050 H 85.450 V 310.550 Z" stroke="rgb(0,255,0)" stroke-width="0.20" />
  <path d="M 85.450 304.550 H 86.950 V 303.050 H 85.450 V 304.550 Z" stroke="rgb(0,255,0)" stroke-width="0.20" />
  <path d="M 85.450 300.050 H 86.950 V 298.550 H 85.450 V 300.050 Z" stroke="rgb(0,255,0)" stroke-width="0.20" />
  <path d="M 85.450 298.550 H 86.950 V 297.050 H 85.450 V 298.550 Z" stroke="rgb(0,255,0)" stroke-width="0.20" />
  <path d="M 85.450 295.550 H 86.950 V 294.050 H 85.450 V 295.550 Z" stroke="rgb(0,255,0)" stroke-width="0.20" />
  <path d="M 86.950 343.550 H 88.450 V 342.050 H 86.950 V 343.550 Z" stroke="rgb(0,255,0)" stroke-width="0.20" />
  <path d="M 86.950 342.050 H 88.450 V 340.550 H 86.950 V 342.050 Z" stroke="rgb(0,255,0)" stroke-width="0.20" />
  <path d="M 86.950 340.550 H 88.450 V 339.050 H 86.950 V 340.550 Z" stroke="rgb(0,255,0)" stroke-width="0.20" />
  <path d="M 86.950 339.050 H 88.450 V 337.550 H 86.950 V 339.050 Z" stroke="rgb(0,255,0)" stroke-width="0.20" />
  <path d="M 86.950 330.050 H 88.450 V 328.550 H 86.950 V 330.050 Z" stroke="rgb(0,255,0)" stroke-width="0.20" />
  <path d="M 86.950 325.550 H 88.450 V 324.050 H 86.950 V 325.550 Z" stroke="rgb(0,255,0)" stroke-width="0.20" />
  <path d="M 86.950 319.550 H 88.450 V 318.050 H 86.950 V 319.550 Z" stroke="rgb(0,255,0)" stroke-width="0.20" />
  <path d="M 86.950 316.550 H 88.450 V 315.050 H 86.950 V 316.550 Z" stroke="rgb(0,255,0)" stroke-width="0.20" />
  <path d="M 86.950 310.550 H 88.450 V 309.050 H 86.950 V 310.550 Z" stroke="rgb(0,255,0)" stroke-width="0.20" />
  <path d="M 86.950 304.550 H 88.450 V 303.050 H 86.950 V 304.550 Z" stroke="rgb(0,255,0)" stroke-width="0.20" />
  <path d="M 86.950 303.050 H 88.450 V 301.550 H 86.950 V 303.050 Z" stroke="rgb(0,255,0)" stroke-width="0.20" />
  <path d="M 86.950 297.050 H 88.450 V 295.550 H 86.950 V 297.050 Z" stroke="rgb(0,255,0)" stroke-width="0.20" />
  <path d="M 86.950 295.550 H 88.450 V 294.050 H 86.950 V 295.550 Z" stroke="rgb(0,255,0)" stroke-width="0.20" />
  <path d="M 88.450 349.550 H 89.950 V 348.050 H 88.450 V 349.550 Z" stroke="rgb(0,255,0)" stroke-width="0.20" />
  <path d="M 88.450 348.050 H 89.950 V 346.550 H 88.450 V 348.050 Z" stroke="rgb(0,255,0)" stroke-width="0.20" />
  <path d="M 88.450 345.050 H 89.950 V 343.550 H 88.450 V 345.050 Z" stroke="rgb(0,255,0)" stroke-width="0.20" />
  <path d="M 88.450 343.550 H 89.950 V 342.050 H 88.450 V 343.550 Z" stroke="rgb(0,255,0)" stroke-width="0.20" />
  <path d="M 88.450 339.050 H 89.950 V 337.550 H 88.450 V 339.050 Z" stroke="rgb(0,255,0)" stroke-width="0.20" />
  <path d="M 88.450 336.050 H 89.950 V 334.550 H 88.450 V 336.050 Z" stroke="rgb(0,255,0)" stroke-width="0.20" />
  <path d="M 88.450 334.550 H 89.950 V 333.050 H 88.450 V 334.550 Z" stroke="rgb(0,255,0)" stroke-width="0.20" />
  <path d="M 88.450 331.550 H 89.950 V 330.050 H 88.450 V 331.550 Z" stroke="rgb(0,255,0)" stroke-width="0.20" />
  <path d="M 88.450 327.050 H 89.950 V 325.550 H 88.450 V 327.050 Z" stroke="rgb(0,255,0)" stroke-width="0.20" />
  <path d="M 88.450 318.050 H 89.950 V 316.550 H 88.450 V 318.050 Z" stroke="rgb(0,255,0)" stroke-width="0.20" />
  <path d="M 88.450 316.550 H 89.950 V 315.050 H 88.450 V 316.550 Z" stroke="rgb(0,255,0)" stroke-width="0.20" />
  <path d="M 88.450 312.050 H 89.950 V 310.550 H 88.450 V 312.050 Z" stroke="rgb(0,255,0)" stroke-width="0.20" />
  <path d="M 88.450 309.050 H 89.950 V 307.550 H 88.450 V 309.050 Z" stroke="rgb(0,255,0)" stroke-width="0.20" />
  <path d="M 88.450 304.550 H 89.950 V 303.050 H 88.450 V 304.550 Z" stroke="rgb(0,255,0)" stroke-width="0.20" />
  <path d="M 88.450 301.550 H 89.950 V 300.050 H 88.450 V 301.550 Z" stroke="rgb(0,255,0)" stroke-width="0.20" />
  <path d="M 88.450 300.050 H 89.950 V 298.550 H 88.450 V 300.050 Z" stroke="rgb(0,255,0)" stroke-width="0.20" />
  <path d="M 89.950 349.550 H 91.450 V 348.050 H 89.950 V 349.550 Z" stroke="rgb(0,255,0)" stroke-width="0.20" />
  <path d="M 89.950 346.550 H 91.450 V 345.050 H 89.950 V 346.550 Z" stroke="rgb(0,255,0)" stroke-width="0.20" />
  <path d="M 89.950 345.050 H 91.450 V 343.550 H 89.950 V 345.050 Z" stroke="rgb(0,255,0)" stroke-width="0.20" />
  <path d="M 89.950 343.550 H 91.450 V 342.050 H 89.950 V 343.550 Z" stroke="rgb(0,255,0)" stroke-width="0.20" />
  <path d="M 89.950 340.550 H 91.450 V 339.050 H 89.950 V 340.550 Z" stroke="rgb(0,255,0)" stroke-width="0.20" />
  <path d="M 89.950 334.550 H 91.450 V 333.050 H 89.950 V 334.550 Z" stroke="rgb(0,255,0)" stroke-width="0.20" />
  <path d="M 89.950 331.550 H 91.450 V 330.050 H 89.950 V 331.550 Z" stroke="rgb(0,255,0)" stroke-width="0.20" />
  <path d="M 89.950 330.050 H 91.450 V 328.550 H 89.950 V 330.050 Z" stroke="rgb(0,255,0)" stroke-width="0.20" />
  <path d="M 89.950 324.050 H 91.450 V 322.550 H 89.950 V 324.050 Z" stroke="rgb(0,255,0)" stroke-width="0.20" />
  <path d="M 89.950 321.050 H 91.450 V 319.550 H 89.950 V 321.050 Z" stroke="rgb(0,255,0)" stroke-width="0.20" />
  <path d="M 89.950 319.550 H 91.450 V 318.050 H 89.950 V 319.550 Z" stroke="rgb(0,255,0)" stroke-width="0.20" />
  <path d="M 89.950 318.050 H 91.450 V 316.550 H 89.950 V 318.050 Z" stroke="rgb(0,255,0)" stroke-width="0.20" />
  <path d="M 89.950 315.050 H 91.450 V 313.550 H 89.950 V 315.050 Z" stroke="rgb(0,255,0)" stroke-width="0.20" />
  <path d="M 89.950 313.550 H 91.450 V 312.050 H 89.950 V 313.550 Z" stroke="rgb(0,255,0)" stroke-width="0.20" />
  <path d="M 89.950 312.050 H 91.450 V 310.550 H 89.950 V 312.050 Z" stroke="rgb(0,255,0)" stroke-width="0.20" />
  <path d="M 89.950 309.050 H 91.450 V 307.550 H 89.950 V 309.050 Z" stroke="rgb(0,255,0)" stroke-width="0.20" />
  <path d="M 89.950 307.550 H 91.450 V 306.050 H 89.950 V 307.550 Z" stroke="rgb(0,255,0)" stroke-width="0.20" />
  <path d="M 89.950 306.050 H 91.450 V 304.550 H 89.950 V 306.050 Z" stroke="rgb(0,255,0)" stroke-width="0.20" />
  <path d="M 89.950 304.550 H 91.450 V 303.050 H 89.950 V 304.550 Z" stroke="rgb(0,255,0)" stroke-width="0.20" />
  <path d="M 89.950 300.050 H 91.450 V 298.550 H 89.950 V 300.050 Z" stroke="rgb(0,255,0)" stroke-width="0.20" />
  <path d="M 89.950 297.050 H 91.450 V 295.550 H 89.950 V 297.050 Z" stroke="rgb(0,255,0)" stroke-width="0.20" />
  <path d="M 89.950 295.550 H 91.450 V 294.050 H 89.950 V 295.550 Z" stroke="rgb(0,255,0)" stroke-width="0.20" />
  <path d="M 91.450 345.050 H 92.950 V 343.550 H 91.450 V 345.050 Z" stroke="rgb(0,255,0)" stroke-width="0.20" />
  <path d="M 91.450 337.550 H 92.950 V 336.050 H 91.450 V 337.550 Z" stroke="rgb(0,255,0)" stroke-width="0.20" />
  <path d="M 91.450 334.550 H 92.950 V 333.050 H 91.450 V 334.550 Z" stroke="rgb(0,255,0)" stroke-width="0.20" />
  <path d="M 91.450 333.050 H 92.950 V 331.550 H 91.450 V 333.050 Z" stroke="rgb(0,255,0)" stroke-width="0.20" />
  <path d="M 91.450 328.550 H 92.950 V 327.050 H 91.450 V 328.550 Z" stroke="rgb(0,255,0)" stroke-width="0.20" />
  <path d="M 91.450 324.050 H 92.950 V 322.550 H 91.450 V 324.050 Z" stroke="rgb(0,255,0)" stroke-width="0.20" />
  <path d="M 91.450 321.050 H 92.950 V 319.550 H 91.450 V 321.050 Z" stroke="rgb(0,255,0)" stroke-width="0.20" />
  <path d="M 91.450 319.550 H 92.950 V 318.050 H 91.450 V 319.550 Z" stroke="rgb(0,255,0)" stroke-width="0.20" />
  <path d="M 91.450 316.550 H 92.950 V 315.050 H 91.450 V 316.550 Z" stroke="rgb(0,255,0)" stroke-width="0.20" />
  <path d="M 91.450 313.550 H 92.950 V 312.050 H 91.450 V 313.550 Z" stroke="rgb(0,255,0)" stroke-width="0.20" />
  <path d="M 91.450 306.050 H 92.950 V 304.550 H 91.450 V 306.050 Z" stroke="rgb(0,255,0)" stroke-width="0.20" />
  <path d="M 91.450 304.550 H 92.950 V 303.050 H 91.450 V 304.550 Z" stroke="rgb(0,255,0)" stroke-width="0.20" />
  <path d="M 91.450 303.050 H 92.950 V 301.550 H 91.450 V 303.050 Z" stroke="rgb(0,255,0)" stroke-width="0.20" />
  <path d="M 91.450 298.550 H 92.950 V 297.050 H 91.450 V 298.550 Z" stroke="rgb(0,255,0)" stroke-width="0.20" />
  <path d="M 91.450 295.550 H 92.950 V 294.050 H 91.450 V 295.550 Z" stroke="rgb(0,255,0)" stroke-width="0.20" />
  <path d="M 92.950 348.050 H 94.450 V 346.550 H 92.950 V 348.050 Z" stroke="rgb(0,255,0)" stroke-width="0.20" />
  <path d="M 92.950 346.550 H 94.450 V 345.050 H 92.950 V 346.550 Z" stroke="rgb(0,255,0)" stroke-width="0.20" />
  <path d="M 92.950 343.550 H 94.450 V 342.050 H 92.950 V 343.550 Z" stroke="rgb(0,255,0)" stroke-width="0.20" />
  <path d="M 92.950 342.050 H 94.450 V 340.550 H 92.950 V 342.050 Z" stroke="rgb(0,255,0)" stroke-width="0.20" />
  <path d="M 92.950 340.550 H 94.450 V 339.050 H 92.950 V 340.550 Z" stroke="rgb(0,255,0)" stroke-width="0.20" />
  <path d="M 92.950 336.050 H 94.450 V 334.550 H 92.950 V 336.050 Z" stroke="rgb(0,255,0)" stroke-width="0.20" />
  <path d="M 92.950 334.550 H 94.450 V 333.050 H 92.950 V 334.550 Z" stroke="rgb(0,255,0)" stroke-width="0.20" />
  <path d="M 92.950 333.050 H 94.450 V 331.550 H 92.950 V 333.050 Z" stroke="rgb(0,255,0)" stroke-width="0.20" />
  <path d="M 92.950 330.050 H 94.450 V 328.550 H 92.950 V 330.050 Z" stroke="rgb(0,255,0)" stroke-width="0.20" />
  <path d="M 92.950 324.050 H 94.450 V 322.550 H 92.950 V 324.050 Z" stroke="rgb(0,255,0)" stroke-width="0.20" />
  <path d="M 92.950 322.550 H 94.450 V 321.050 H 92.950 V 322.550 Z" stroke="rgb(0,255,0)" stroke-width="0.20" />
  <path d="M 92.950 315.050 H 94.450 V 313.550 H 92.950 V 315.050 Z" stroke="rgb(0,255,0)" stroke-width="0.20" />
  <path d="M 92.950 310.550 H 94.450 V 309.050 H 92.950 V 310.550 Z" stroke="rgb(0,255,0)" stroke-width="0.20" />
  <path d="M 92.950 307.550 H 94.450 V 306.050 H 92.950 V 307.550 Z" stroke="rgb(0,255,0)" stroke-width="0.20" />
  <path d="M 92.950 306.050 H 94.450 V 304.550 H 92.950 V 306.050 Z" stroke="rgb(0,255,0)" stroke-width="0.20" />
  <path d="M 92.950 303.050 H 94.450 V 301.550 H 92.950 V 303.050 Z" stroke="rgb(0,255,0)" stroke-width="0.20" />
  <path d="M 92.950 301.550 H 94.450 V 300.050 H 92.950 V 301.550 Z" stroke="rgb(0,255,0)" stroke-width="0.20" />
  <path d="M 92.950 298.550 H 94.450 V 297.050 H 92.950 V 298.550 Z" stroke="rgb(0,255,0)" stroke-width="0.20" />
  <path d="M 92.950 295.550 H 94.450 V 294.050 H 92.950 V 295.550 Z" stroke="rgb(0,255,0)" stroke-width="0.20" />
  <path d="M 94.450 348.050 H 95.950 V 346.550 H 94.450 V 348.050 Z" stroke="rgb(0,255,0)" stroke-width="0.20" />
  <path d="M 94.450 343.550 H 95.950 V 342.050 H 94.450 V 343.550 Z" stroke="rgb(0,255,0)" stroke-width="0.20" />
  <path d="M 94.450 342.050 H 95.950 V 340.550 H 94.450 V 342.050 Z" stroke="rgb(0,255,0)" stroke-width="0.20" />
  <path d="M 94.450 336.050 H 95.950 V 334.550 H 94.450 V 336.050 Z" stroke="rgb(0,255,0)" stroke-width="0.20" />
  <path d="M 94.450 333.050 H 95.950 V 331.550 H 94.450 V 333.050 Z" stroke="rgb(0,255,0)" stroke-width="0.20" />
  <path d="M 94.450 331.550 H 95.950 V 330.050 H 94.450 V 331.550 Z" stroke="rgb(0,255,0)" stroke-width="0.20" />
  <path d="M 94.450 330.050 H 95.950 V 328.550 H 94.450 V 330.050 Z" stroke="rgb(0,255,0)" stroke-width="0.20" />
  <path d="M 94.450 328.550 H 95.950 V 327.050 H 94.450 V 328.550 Z" stroke="rgb(0,255,0)" stroke-width="0.20" />
  <path d="M 94.450 327.050 H 95.950 V 325.550 H 94.450 V 327.050 Z" stroke="rgb(0,255,0)" stroke-width="0.20" />
  <path d="M 94.450 325.550 H 95.950 V 324.050 H 94.450 V 325.550 Z" stroke="rgb(0,255,0)" stroke-width="0.20" />
  <path d="M 94.450 324.050 H 95.950 V 322.550 H 94.450 V 324.050 Z" stroke="rgb(0,255,0)" stroke-width="0.20" />
  <path d="M 94.450 322.550 H 95.950 V 321.050 H 94.450 V 322.550 Z" stroke="rgb(0,255,0)" stroke-width="0.20" />
  <path d="M 94.450 318.050 H 95.950 V 316.550 H 94.450 V 318.050 Z" stroke="rgb(0,255,0)" stroke-width="0.20" />
  <path d="M 94.450 316.550 H 95.950 V 315.050 H 94.450 V 316.550 Z" stroke="rgb(0,255,0)" stroke-width="0.20" />
  <path d="M 94.450 315.050 H 95.950 V 313.550 H 94.450 V 315.050 Z" stroke="rgb(0,255,0)" stroke-width="0.20" />
  <path d="M 94.450 312.050 H 95.950 V 310.550 H 94.450 V 312.050 Z" stroke="rgb(0,255,0)" stroke-width="0.20" />
  <path d="M 94.450 310.550 H 95.950 V 309.050 H 94.450 V 310.550 Z" stroke="rgb(0,255,0)" stroke-width="0.20" />
  <path d="M 94.450 307.550 H 95.950 V 306.050 H 94.450 V 307.550 Z" stroke="rgb(0,255,0)" stroke-width="0.20" />
  <path d="M 94.450 301.550 H 95.950 V 300.050 H 94.450 V 301.550 Z" stroke="rgb(0,255,0)" stroke-width="0.20" />
  <path d="M 94.450 295.550 H 95.950 V 294.050 H 94.450 V 295.550 Z" stroke="rgb(0,255,0)" stroke-width="0.20" />
  <path d="M 95.950 349.550 H 97.450 V 348.050 H 95.950 V 349.550 Z" stroke="rgb(0,255,0)" stroke-width="0.20" />
  <path d="M 95.950 348.050 H 97.450 V 346.550 H 95.950 V 348.050 Z" stroke="rgb(0,255,0)" stroke-width="0.20" />
  <path d="M 95.950 346.550 H 97.450 V 345.050 H 95.950 V 346.550 Z" stroke="rgb(0,255,0)" stroke-width="0.20" />
  <path d="M 95.950 343.550 H 97.450 V 342.050 H 95.950 V 343.550 Z" stroke="rgb(0,255,0)" stroke-width="0.20" />
  <path d="M 95.950 340.550 H 97.450 V 339.050 H 95.950 V 340.550 Z" stroke="rgb(0,255,0)" stroke-width="0.20" />
  <path d="M 95.950 339.050 H 97.450 V 337.550 H 95.950 V 339.050 Z" stroke="rgb(0,255,0)" stroke-width="0.20" />
  <path d="M 95.950 337.550 H 97.450 V 336.050 H 95.950 V 337.550 Z" stroke="rgb(0,255,0)" stroke-width="0.20" />
  <path d="M 95.950 334.550 H 97.450 V 333.050 H 95.950 V 334.550 Z" stroke="rgb(0,255,0)" stroke-width="0.20" />
  <path d="M 95.950 322.550 H 97.450 V 321.050 H 95.950 V 322.550 Z" stroke="rgb(0,255,0)" stroke-width="0.20" />
  <path d="M 95.950 321.050 H 97.450 V 319.550 H 95.950 V 321.050 Z" stroke="rgb(0,255,0)" stroke-width="0.20" />
  <path d="M 95.950 318.050 H 97.450 V 316.550 H 95.950 V 318.050 Z" stroke="rgb(0,255,0)" stroke-width="0.20" />
  <path d="M 95.950 313.550 H 97.450 V 312.050 H 95.950 V 313.550 Z" stroke="rgb(0,255,0)" stroke-width="0.20" />
  <path d="M 95.950 310.550 H 97.450 V 309.050 H 95.950 V 310.550 Z" stroke="rgb(0,255,0)" stroke-width="0.20" />
  <path d="M 95.950 309.050 H 97.450 V 307.550 H 95.950 V 309.050 Z" stroke="rgb(0,255,0)" stroke-width="0.20" />
  <path d="M 95.950 304.550 H 97.450 V 303.050 H 95.950 V 304.550 Z" stroke="rgb(0,255,0)" stroke-width="0.20" />
  <path d="M 95.950 303.050 H 97.450 V 301.550 H 95.950 V 303.050 Z" stroke="rgb(0,255,0)" stroke-width="0.20" />
  <path d="M 95.950 300.050 H 97.450 V 298.550 H 95.950 V 300.050 Z" stroke="rgb(0,255,0)" stroke-width="0.20" />
  <path d="M 95.950 298.550 H 97.450 V 297.050 H 95.950 V 298.550 Z" stroke="rgb(0,255,0)" stroke-width="0.20" />
  <path d="M 95.950 297.050 H 97.450 V 295.550 H 95.950 V 297.050 Z" stroke="rgb(0,255,0)" stroke-width="0.20" />
  <path d="M 97.450 349.550 H 98.950 V 348.050 H 97.450 V 349.550 Z" stroke="rgb(0,255,0)" stroke-width="0.20" />
  <path d="M 97.450 348.050 H 98.950 V 346.550 H 97.450 V 348.050 Z" stroke="rgb(0,255,0)" stroke-width="0.20" />
  <path d="M 97.450 346.550 H 98.950 V 345.050 H 97.450 V 346.550 Z" stroke="rgb(0,255,0)" stroke-width="0.20" />
  <path d="M 97.450 345.050 H 98.950 V 343.550 H 97.450 V 345.050 Z" stroke="rgb(0,255,0)" stroke-width="0.20" />
  <path d="M 97.450 342.050 H 98.950 V 340.550 H 97.450 V 342.050 Z" stroke="rgb(0,255,0)" stroke-width="0.20" />
  <path d="M 97.450 339.050 H 98.950 V 337.550 H 97.450 V 339.050 Z" stroke="rgb(0,255,0)" stroke-width="0.20" />
  <path d="M 97.450 337.550 H 98.950 V 336.050 H 97.450 V 337.550 Z" stroke="rgb(0,255,0)" stroke-width="0.20" />
  <path d="M 97.450 330.050 H 98.950 V 328.550 H 97.450 V 330.050 Z" stroke="rgb(0,255,0)" stroke-width="0.20" />
  <path d="M 97.450 328.550 H 98.950 V 327.050 H 97.450 V 328.550 Z" stroke="rgb(0,255,0)" stroke-width="0.20" />
  <path d="M 97.450 327.050 H 98.950 V 325.550 H 97.450 V 327.050 Z" stroke="rgb(0,255,0)" stroke-width="0.20" />
  <path d="M 97.450 325.550 H 98.950 V 324.050 H 97.450 V 325.550 Z" stroke="rgb(0,255,0)" stroke-width="0.20" />
  <path d="M 97.450 322.550 H 98.950 V 321.050 H 97.450 V 322.550 Z" stroke="rgb(0,255,0)" stroke-width="0.20" />
  <path d="M 97.450 321.050 H 98.950 V 319.550 H 97.450 V 321.050 Z" stroke="rgb(0,255,0)" stroke-width="0.20" />
  <path d="M 97.450 319.550 H 98.950 V 318.050 H 97.450 V 319.550 Z" stroke="rgb(0,255,0)" stroke-width="0.20" />
  <path d="M 97.450 318.050 H 98.950 V 316.550 H 97.450 V 318.050 Z" stroke="rgb(0,255,0)" stroke-width="0.20" />
  <path d="M 97.450 316.550 H 98.950 V 315.050 H 97.450 V 316.550 Z" stroke="rgb(0,255,0)" stroke-width="0.20" />
  <path d="M 97.450 315.050 H 98.950 V 313.550 H 97.450 V 315.050 Z" stroke="rgb(0,255,0)" stroke-width="0.20" />
  <path d="M 97.450 313.550 H 98.950 V 312.050 H 97.450 V 313.550 Z" stroke="rgb(0,255,0)" stroke-width="0.20" />
  <path d="M 97.450 310.550 H 98.950 V 309.050 H 97.450 V 310.550 Z" stroke="rgb(0,255,0)" stroke-width="0.20" />
  <path d="M 97.450 307.550 H 98.950 V 306.050 H 97.450 V 307.550 Z" stroke="rgb(0,255,0)" stroke-width="0.20" />
  <path d="M 97.450 306.050 H 98.950 V 304.550 H 97.450 V 306.050 Z" stroke="rgb(0,255,0)" stroke-width="0.20" />
  <path d="M 97.450 304.550 H 98.950 V 303.050 H 97.450 V 304.550 Z" stroke="rgb(0,255,0)" stroke-width="0.20" />
  <path d="M 97.450 303.050 H 98.950 V 301.550 H 97.450 V 303.050 Z" stroke="rgb(0,255,0)" stroke-width="0.20" />
  <path d="M 97.450 301.550 H 98.950 V 300.050 H 97.450 V 301.550 Z" stroke="rgb(0,255,0)" stroke-width="0.20" />
  <path d="M 97.450 298.550 H 98.950 V 297.050 H 97.450 V 298.550 Z" stroke="rgb(0,255,0)" stroke-width="0.20" />
  <path d="M 97.450 297.050 H 98.950 V 295.550 H 97.450 V 297.050 Z" stroke="rgb(0,255,0)" stroke-width="0.20" />
  <path d="M 97.450 295.550 H 98.950 V 294.050 H 97.450 V 295.550 Z" stroke="rgb(0,255,0)" stroke-width="0.20" />
  <path d="M 98.950 348.050 H 100.450 V 346.550 H 98.950 V 348.050 Z" stroke="rgb(0,255,0)" stroke-width="0.20" />
  <path d="M 98.950 346.550 H 100.450 V 345.050 H 98.950 V 346.550 Z" stroke="rgb(0,255,0)" stroke-width="0.20" />
  <path d="M 98.950 345.050 H 100.450 V 343.550 H 98.950 V 345.050 Z" stroke="rgb(0,255,0)" stroke-width="0.20" />
  <path d="M 98.950 343.550 H 100.450 V 342.050 H 98.950 V 343.550 Z" stroke="rgb(0,255,0)" stroke-width="0.20" />
  <path d="M 98.950 342.050 H 100.450 V 340.550 H 98.950 V 342.050 Z" stroke="rgb(0,255,0)" stroke-width="0.20" />
  <path d="M 98.950 340.550 H 100.450 V 339.050 H 98.950 V 340.550 Z" stroke="rgb(0,255,0)" stroke-width="0.20" />
  <path d="M 98.950 337.550 H 100.450 V 336.050 H 98.950 V 337.550 Z" stroke="rgb(0,255,0)" stroke-width="0.20" />
  <path d="M 98.950 336.050 H 100.450 V 334.550 H 98.950 V 336.050 Z" stroke="rgb(0,255,0)" stroke-width="0.20" />
  <path d="M 98.950 331.550 H 100.450 V 330.050 H 98.950 V 331.550 Z" stroke="rgb(0,255,0)" stroke-width="0.20" />
  <path d="M 98.950 328.550 H 100.450 V 327.050 H 98.950 V 328.550 Z" stroke="rgb(0,255,0)" stroke-width="0.20" />
  <path d="M 98.950 327.050 H 100.450 V 325.550 H 98.950 V 327.050 Z" stroke="rgb(0,255,0)" stroke-width="0.20" />
  <path d="M 98.950 325.550 H 100.450 V 324.050 H 98.950 V 325.550 Z" stroke="rgb(0,255,0)" stroke-width="0.20" />
  <path d="M 98.950 318.050 H 100.450 V 316.550 H 98.950 V 318.050 Z" stroke="rgb(0,255,0)" stroke-width="0.20" />
  <path d="M 98.950 316.550 H 100.450 V 315.050 H 98.950 V 316.550 Z" stroke="rgb(0,255,0)" stroke-width="0.20" />
  <path d="M 98.950 312.050 H 100.450 V 310.550 H 98.950 V 312.050 Z" stroke="rgb(0,255,0)" stroke-width="0.20" />
  <path d="M 98.950 310.550 H 100.450 V 309.050 H 98.950 V 310.550 Z" stroke="rgb(0,255,0)" stroke-width="0.20" />
  <path d="M 98.950 307.550 H 100.450 V 306.050 H 98.950 V 307.550 Z" stroke="rgb(0,255,0)" stroke-width="0.20" />
  <path d="M 98.950 306.050 H 100.450 V 304.550 H 98.950 V 306.050 Z" stroke="rgb(0,255,0)" stroke-width="0.20" />
  <path d="M 98.950 301.550 H 100.450 V 300.050 H 98.950 V 301.550 Z" stroke="rgb(0,255,0)" stroke-width="0.20" />
  <path d="M 98.950 300.050 H 100.450 V 298.550 H 98.950 V 300.050 Z" stroke="rgb(0,255,0)" stroke-width="0.20" />
  <path d="M 98.950 297.050 H 100.450 V 295.550 H 98.950 V 297.050 Z" stroke="rgb(0,255,0)" stroke-width="0.20" />
  <path d="M 98.950 295.550 H 100.450 V 294.050 H 98.950 V 295.550 Z" stroke="rgb(0,255,0)" stroke-width="0.20" />
  <path d="M 100.450 348.050 H 101.950 V 346.550 H 100.450 V 348.050 Z" stroke="rgb(0,255,0)" stroke-width="0.20" />
  <path d="M 100.450 346.550 H 101.950 V 345.050 H 100.450 V 346.550 Z" stroke="rgb(0,255,0)" stroke-width="0.20" />
  <path d="M 100.450 345.050 H 101.950 V 343.550 H 100.450 V 345.050 Z" stroke="rgb(0,255,0)" stroke-width="0.20" />
  <path d="M 100.450 343.550 H 101.950 V 342.050 H 100.450 V 343.550 Z" stroke="rgb(0,255,0)" stroke-width="0.20" />
  <path d="M 100.450 337.550 H 101.950 V 336.050 H 100.450 V 337.550 Z" stroke="rgb(0,255,0)" stroke-width="0.20" />
  <path d="M 100.450 334.550 H 101.950 V 333.050 H 100.450 V 334.550 Z" stroke="rgb(0,255,0)" stroke-width="0.20" />
  <path d="M 100.450 330.050 H 101.950 V 328.550 H 100.450 V 330.050 Z" stroke="rgb(0,255,0)" stroke-width="0.20" />
  <path d="M 100.450 328.550 H 101.950 V 327.050 H 100.450 V 328.550 Z" stroke="rgb(0,255,0)" stroke-width="0.20" />
  <path d="M 100.450 324.050 H 101.950 V 322.550 H 100.450 V 324.050 Z" stroke="rgb(0,255,0)" stroke-width="0.20" />
  <path d="M 100.450 322.550 H 101.950 V 321.050 H 100.450 V 322.550 Z" stroke="rgb(0,255,0)" stroke-width="0.20" />
  <path d="M 100.450 318.050 H 101.950 V 316.550 H 100.450 V 318.050 Z" stroke="rgb(0,255,0)" stroke-width="0.20" />
  <path d="M 100.450 316.550 H 101.950 V 315.050 H 100.450 V 316.550 Z" stroke="rgb(0,255,0)" stroke-width="0.20" />
  <path d="M 100.450 310.550 H 101.950 V 309.050 H 100.450 V 310.550 Z" stroke="rgb(0,255,0)" stroke-width="0.20" />
  <path d="M 100.450 304.550 H 101.950 V 303.050 H 100.450 V 304.550 Z" stroke="rgb(0,255,0)" stroke-width="0.20" />
  <path d="M 100.450 298.550 H 101.950 V 297.050 H 100.450 V 298.550 Z" stroke="rgb(0,255,0)" stroke-width="0.20" />
  <path d="M 100.450 297.050 H 101.950 V 295.550 H 100.450 V 297.050 Z" stroke="rgb(0,255,0)" stroke-width="0.20" />
  <path d="M 101.950 349.550 H 103.450 V 348.050 H 101.950 V 349.550 Z" stroke="rgb(0,255,0)" stroke-width="0.20" />
  <path d="M 101.950 348.050 H 103.450 V 346.550 H 101.950 V 348.050 Z" stroke="rgb(0,255,0)" stroke-width="0.20" />
  <path d="M 101.950 346.550 H 103.450 V 345.050 H 101.950 V 346.550 Z" stroke="rgb(0,255,0)" stroke-width="0.20" />
  <path d="M 101.950 342.050 H 103.450 V 340.550 H 101.950 V 342.050 Z" stroke="rgb(0,255,0)" stroke-width="0.20" />
  <path d="M 101.950 340.550 H 103.450 V 339.050 H 101.950 V 340.550 Z" stroke="rgb(0,255,0)" stroke-width="0.20" />
  <path d="M 101.950 334.550 H 103.450 V 333.050 H 101.950 V 334.550 Z" stroke="rgb(0,255,0)" stroke-width="0.20" />
  <path d="M 101.950 333.050 H 103.450 V 331.550 H 101.950 V 333.050 Z" stroke="rgb(0,255,0)" stroke-width="0.20" />
  <path d="M 101.950 331.550 H 103.450 V 330.050 H 101.950 V 331.550 Z" stroke="rgb(0,255,0)" stroke-width="0.20" />
  <path d="M 101.950 328.550 H 103.450 V 327.050 H 101.950 V 328.550 Z" stroke="rgb(0,255,0)" stroke-width="0.20" />
  <path d="M 101.950 327.050 H 103.450 V 325.550 H 101.950 V 327.050 Z" stroke="rgb(0,255,0)" stroke-width="0.20" />
  <path d="M 101.950 325.550 H 103.450 V 324.050 H 101.950 V 325.550 Z" stroke="rgb(0,255,0)" stroke-width="0.20" />
  <path d="M 101.950 322.550 H 103.450 V 321.050 H 101.950 V 322.550 Z" stroke="rgb(0,255,0)" stroke-width="0.20" />
  <path d="M 101.950 319.550 H 103.450 V 318.050 H 101.950 V 319.550 Z" stroke="rgb(0,255,0)" stroke-width="0.20" />
  <path d="M 101.950 318.050 H 103.450 V 316.550 H 101.950 V 318.050 Z" stroke="rgb(0,255,0)" stroke-width="0.20" />
  <path d="M 101.950 315.050 H 103.450 V 313.550 H 101.950 V 315.050 Z" stroke="rgb(0,255,0)" stroke-width="0.20" />
  <path d="M 101.950 313.550 H 103.450 V 312.050 H 101.950 V 313.550 Z" stroke="rgb(0,255,0)" stroke-width="0.20" />
  <path d="M 101.950 312.050 H 103.450 V 310.550 H 101.950 V 312.050 Z" stroke="rgb(0,255,0)" stroke-width="0.20" />
  <path d="M 101.950 310.550 H 103.450 V 309.050 H 101.950 V 310.550 Z" stroke="rgb(0,255,0)" stroke-width="0.20" />
  <path d="M 101.950 307.550 H 103.450 V 306.050 H 101.950 V 307.550 Z" stroke="rgb(0,255,0)" stroke-width="0.20" />
  <path d="M 101.950 304.550 H 103.450 V 303.050 H 101.950 V 304.550 Z" stroke="rgb(0,255,0)" stroke-width="0.20" />
  <path d="M 101.950 301.550 H 103.450 V 300.050 H 101.950 V 301.550 Z" stroke="rgb(0,255,0)" stroke-width="0.20" />
  <path d="M 101.950 300.050 H 103.450 V 298.550 H 101.950 V 300.050 Z" stroke="rgb(0,255,0)" stroke-width="0.20" />
  <path d="M 101.950 297.050 H 103.450 V 295.550 H 101.950 V 297.050 Z" stroke="rgb(0,255,0)" stroke-width="0.20" />
  <path d="M 103.450 343.550 H 104.950 V 342.050 H 103.450 V 343.550 Z" stroke="rgb(0,255,0)" stroke-width="0.20" />
  <path d="M 103.450 342.050 H 104.950 V 340.550 H 103.450 V 342.050 Z" stroke="rgb(0,255,0)" stroke-width="0.20" />
  <path d="M 103.450 337.550 H 104.950 V 336.050 H 103.450 V 337.550 Z" stroke="rgb(0,255,0)" stroke-width="0.20" />
  <path d="M 103.450 334.550 H 104.950 V 333.050 H 103.450 V 334.550 Z" stroke="rgb(0,255,0)" stroke-width="0.20" />
  <path d="M 103.450 333.050 H 104.950 V 331.550 H 103.450 V 333.050 Z" stroke="rgb(0,255,0)" stroke-width="0.20" />
  <path d="M 103.450 330.050 H 104.950 V 328.550 H 103.450 V 330.050 Z" stroke="rgb(0,255,0)" stroke-width="0.20" />
  <path d="M 103.450 328.550 H 104.950 V 327.050 H 103.450 V 328.550 Z" stroke="rgb(0,255,0)" stroke-width="0.20" />
  <path d="M 103.450 325.550 H 104.950 V 324.050 H 103.450 V 325.550 Z" stroke="rgb(0,255,0)" stroke-width="0.20" />
  <path d="M 103.450 319.550 H 104.950 V 318.050 H 103.450 V 319.550 Z" stroke="rgb(0,255,0)" stroke-width="0.20" />
  <path d="M 103.450 318.050 H 104.950 V 316.550 H 103.450 V 318.050 Z" stroke="rgb(0,255,0)" stroke-width="0.20" />
  <path d="M 103.450 313.550 H 104.950 V 312.050 H 103.450 V 313.550 Z" stroke="rgb(0,255,0)" stroke-width="0.20" />
  <path d="M 103.450 312.050 H 104.950 V 310.550 H 103.450 V 312.050 Z" stroke="rgb(0,255,0)" stroke-width="0.20" />
  <path d="M 103.450 304.550 H 104.950 V 303.050 H 103.450 V 304.550 Z" stroke="rgb(0,255,0)" stroke-width="0.20" />
  <path d="M 103.450 303.050 H 104.950 V 301.550 H 103.450 V 303.050 Z" stroke="rgb(0,255,0)" stroke-width="0.20" />
  <path d="M 103.450 300.050 H 104.950 V 298.550 H 103.450 V 300.050 Z" stroke="rgb(0,255,0)" stroke-width="0.20" />
  <path d="M 103.450 297.050 H 104.950 V 295.550 H 103.450 V 297.050 Z" stroke="rgb(0,255,0)" stroke-width="0.20" />
  <path d="M 103.450 295.550 H 104.950 V 294.050 H 103.450 V 295.550 Z" stroke="rgb(0,255,0)" stroke-width="0.20" />
  <path d="M 104.950 340.550 H 106.450 V 339.050 H 104.950 V 340.550 Z" stroke="rgb(0,255,0)" stroke-width="0.20" />
  <path d="M 104.950 339.050 H 106.450 V 337.550 H 104.950 V 339.050 Z" stroke="rgb(0,255,0)" stroke-width="0.20" />
  <path d="M 104.950 337.550 H 106.450 V 336.050 H 104.950 V 337.550 Z" stroke="rgb(0,255,0)" stroke-width="0.20" />
  <path d="M 104.950 336.050 H 106.450 V 334.550 H 104.950 V 336.050 Z" stroke="rgb(0,255,0)" stroke-width="0.20" />
  <path d="M 104.950 334.550 H 106.450 V 333.050 H 104.950 V 334.550 Z" stroke="rgb(0,255,0)" stroke-width="0.20" />
  <path d="M 104.950 328.550 H 106.450 V 327.050 H 104.950 V 328.550 Z" stroke="rgb(0,255,0)" stroke-width="0.20" />
  <path d="M 104.950 324.050 H 106.450 V 322.550 H 104.950 V 324.050 Z" stroke="rgb(0,255,0)" stroke-width="0.20" />
  <path d="M 104.950 321.050 H 106.450 V 319.550 H 104.950 V 321.050 Z" stroke="rgb(0,255,0)" stroke-width="0.20" />
  <path d="M 104.950 313.550 H 106.450 V 312.050 H 104.950 V 313.550 Z" stroke="rgb(0,255,0)" stroke-width="0.20" />
  <path d="M 104.950 307.550 H 106.450 V 306.050 H 104.950 V 307.550 Z" stroke="rgb(0,255,0)" stroke-width="0.20" />
  <path d="M 104.950 306.050 H 106.450 V 304.550 H 104.950 V 306.050 Z" stroke="rgb(0,255,0)" stroke-width="0.20" />
  <path d="M 104.950 297.050 H 106.450 V 295.550 H 104.950 V 297.050 Z" stroke="rgb(0,255,0)" stroke-width="0.20" />
  <path d="M 104.950 295.550 H 106.450 V 294.050 H 104.950 V 295.550 Z" stroke="rgb(0,255,0)" stroke-width="0.20" />
  <path d="M 106.450 348.050 H 107.950 V 346.550 H 106.450 V 348.050 Z" stroke="rgb(0,255,0)" stroke-width="0.20" />
  <path d="M 106.450 346.550 H 107.950 V 345.050 H 106.450 V 346.550 Z" stroke="rgb(0,255,0)" stroke-width="0.20" />
  <path d="M 106.450 345.050 H 107.950 V 343.550 H 106.450 V 345.050 Z" stroke="rgb(0,255,0)" stroke-width="0.20" />
  <path d="M 106.450 343.550 H 107.950 V 342.050 H 106.450 V 343.550 Z" stroke="rgb(0,255,0)" stroke-width="0.20" />
  <path d="M 106.450 342.050 H 107.950 V 340.550 H 106.450 V 342.050 Z" stroke="rgb(0,255,0)" stroke-width="0.20" />
  <path d="M 106.450 339.050 H 107.950 V 337.550 H 106.450 V 339.050 Z" stroke="rgb(0,255,0)" stroke-width="0.20" />
  <path d="M 106.450 337.550 H 107.950 V 336.050 H 106.450 V 337.550 Z" stroke="rgb(0,255,0)" stroke-width="0.20" />
  <path d="M 106.450 336.050 H 107.950 V 334.550 H 106.450 V 336.050 Z" stroke="rgb(0,255,0)" stroke-width="0.20" />
  <path d="M 106.450 334.550 H 107.950 V 333.050 H 106.450 V 334.550 Z" stroke="rgb(0,255,0)" stroke-width="0.20" />
  <path d="M 106.450 331.550 H 107.950 V 330.050 H 106.450 V 331.550 Z" stroke="rgb(0,255,0)" stroke-width="0.20" />
  <path d="M 106.450 330.050 H 107.950 V 328.550 H 106.450 V 330.050 Z" stroke="rgb(0,255,0)" stroke-width="0.20" />
  <path d="M 106.450 327.050 H 107.950 V 325.550 H 106.450 V 327.050 Z" stroke="rgb(0,255,0)" stroke-width="0.20" />
  <path d="M 106.450 324.050 H 107.950 V 322.550 H 106.450 V 324.050 Z" stroke="rgb(0,255,0)" stroke-width="0.20" />
  <path d="M 106.450 321.050 H 107.950 V 319.550 H 106.450 V 321.050 Z" stroke="rgb(0,255,0)" stroke-width="0.20" />
  <path d="M 106.450 318.050 H 107.950 V 316.550 H 106.450 V 318.050 Z" stroke="rgb(0,255,0)" stroke-width="0.20" />
  <path d="M 106.450 312.050 H 107.950 V 310.550 H 106.450 V 312.050 Z" stroke="rgb(0,255,0)" stroke-width="0.20" />
  <path d="M 106.450 310.550 H 107.950 V 309.050 H 106.450 V 310.550 Z" stroke="rgb(0,255,0)" stroke-width="0.20" />
  <path d="M 106.450 306.050 H 107.950 V 304.550 H 106.450 V 306.050 Z" stroke="rgb(0,255,0)" stroke-width="0.20" />
  <path d="M 106.450 295.550 H 107.950 V 294.050 H 106.450 V 295.550 Z" stroke="rgb(0,255,0)" stroke-width="0.20" />
  <path d="M 107.950 343.550 H 109.450 V 342.050 H 107.950 V 343.550 Z" stroke="rgb(0,255,0)" stroke-width="0.20" />
  <path d="M 107.950 342.050 H 109.450 V 340.550 H 107.950 V 342.050 Z" stroke="rgb(0,255,0)" stroke-width="0.20" />
  <path d="M 107.950 340.550 H 109.450 V 339.050 H 107.950 V 340.550 Z" stroke="rgb(0,255,0)" stroke-width="0.20" />
  <path d="M 107.950 339.050 H 109.450 V 337.550 H 107.950 V 339.050 Z" stroke="rgb(0,255,0)" stroke-width="0.20" />
  <path d="M 107.950 336.050 H 109.450 V 334.550 H 107.950 V 336.050 Z" stroke="rgb(0,255,0)" stroke-width="0.20" />
  <path d="M 107.950 334.550 H 109.450 V 333.050 H 107.950 V 334.550 Z" stroke="rgb(0,255,0)" stroke-width="0.20" />
  <path d="M 107.950 333.050 H 109.450 V 331.550 H 107.950 V 333.050 Z" stroke="rgb(0,255,0)" stroke-width="0.20" />
  <path d="M 107.950 331.550 H 109.450 V 330.050 H 107.950 V 331.550 Z" stroke="rgb(0,255,0)" stroke-width="0.20" />
  <path d="M 107.950 330.050 H 109.450 V 328.550 H 107.950 V 330.050 Z" stroke="rgb(0,255,0)" stroke-width="0.20" />
  <path d="M 107.950 328.550 H 109.450 V 327.050 H 107.950 V 328.550 Z" stroke="rgb(0,255,0)" stroke-width="0.20" />
  <path d="M 107.950 319.550 H 109.450 V 318.050 H 107.950 V 319.550 Z" stroke="rgb(0,255,0)" stroke-width="0.20" />
  <path d="M 107.950 318.050 H 109.450 V 316.550 H 107.950 V 318.050 Z" stroke="rgb(0,255,0)" stroke-width="0.20" />
  <path d="M 107.950 316.550 H 109.450 V 315.050 H 107.950 V 316.550 Z" stroke="rgb(0,255,0)" stroke-width="0.20" />
  <path d="M 107.950 313.550 H 109.450 V 312.050 H 107.950 V 313.550 Z" stroke="rgb(0,255,0)" stroke-width="0.20" />
  <path d="M 107.950 312.050 H 109.450 V 310.550 H 107.950 V 312.050 Z" stroke="rgb(0,255,0)" stroke-width="0.20" />
  <path d="M 107.950 307.550 H 109.450 V 306.050 H 107.950 V 307.550 Z" stroke="rgb(0,255,0)" stroke-width="0.20" />
  <path d="M 107.950 304.550 H 109.450 V 303.050 H 107.950 V 304.550 Z" stroke="rgb(0,255,0)" stroke-width="0.20" />
  <path d="M 107.950 303.050 H 109.450 V 301.550 H 107.950 V 303.050 Z" stroke="rgb(0,255,0)" stroke-width="0.20" />
  <path d="M 107.950 300.050 H 109.450 V 298.550 H 107.950 V 300.050 Z" stroke="rgb(0,255,0)" stroke-width="0.20" />
  <path d="M 107.950 295.550 H 109.450 V 294.050 H 107.950 V 295.550 Z" stroke="rgb(0,255,0)" stroke-width="0.20" />
  <path d="M 109.450 346.550 H 110.950 V 345.050 H 109.450 V 346.550 Z" stroke="rgb(0,255,0)" stroke-width="0.20" />
  <path d="M 109.450 342.050 H 110.950 V 340.550 H 109.450 V 342.050 Z" stroke="rgb(0,255,0)" stroke-width="0.20" />
  <path d="M 109.450 339.050 H 110.950 V 337.550 H 109.450 V 339.050 Z" stroke="rgb(0,255,0)" stroke-width="0.20" />
  <path d="M 109.450 334.550 H 110.950 V 333.050 H 109.450 V 334.550 Z" stroke="rgb(0,255,0)" stroke-width="0.20" />
  <path d="M 109.450 331.550 H 110.950 V 330.050 H 109.450 V 331.550 Z" stroke="rgb(0,255,0)" stroke-width="0.20" />
  <path d="M 109.450 330.050 H 110.950 V 328.550 H 109.450 V 330.050 Z" stroke="rgb(0,255,0)" stroke-width="0.20" />
  <path d="M 109.450 327.050 H 110.950 V 325.550 H 109.450 V 327.050 Z" stroke="rgb(0,255,0)" stroke-width="0.20" />
  <path d="M 109.450 325.550 H 110.950 V 324.050 H 109.450 V 325.550 Z" stroke="rgb(0,255,0)" stroke-width="0.20" />
  <path d="M 109.450 319.550 H 110.950 V 318.050 H 109.450 V 319.550 Z" stroke="rgb(0,255,0)" stroke-width="0.20" />
  <path d="M 109.450 318.050 H 110.950 V 316.550 H 109.450 V 318.050 Z" stroke="rgb(0,255,0)" stroke-width="0.20" />
  <path d="M 109.450 316.550 H 110.950 V 315.050 H 109.450 V 316.550 Z" stroke="rgb(0,255,0)" stroke-width="0.20" />
  <path d="M 109.450 313.550 H 110.950 V 312.050 H 109.450 V 313.550 Z" stroke="rgb(0,255,0)" stroke-width="0.20" />
  <path d="M 109.450 310.550 H 110.950 V 309.050 H 109.450 V 310.550 Z" stroke="rgb(0,255,0)" stroke-width="0.20" />
  <path d="M 109.450 307.550 H 110.950 V 306.050 H 109.450 V 307.550 Z" stroke="rgb(0,255,0)" stroke-width="0.20" />
  <path d="M 109.450 304.550 H 110.950 V 303.050 H 109.450 V 304.550 Z" stroke="rgb(0,255,0)" stroke-width="0.20" />
  <path d="M 109.450 300.050 H 110.950 V 298.550 H 109.450 V 300.050 Z" stroke="rgb(0,255,0)" stroke-width="0.20" />
  <path d="M 109.450 297.050 H 110.950 V 295.550 H 109.450 V 297.050 Z" stroke="rgb(0,255,0)" stroke-width="0.20" />
  <path d="M 109.450 295.550 H 110.950 V 294.050 H 109.450 V 295.550 Z" stroke="rgb(0,255,0)" stroke-width="0.20" />
  <path d="M 110.950 349.550 H 112.450 V 348.050 H 110.950 V 349.550 Z" stroke="rgb(0,255,0)" stroke-width="0.20" />
  <path d="M 110.950 345.050 H 112.450 V 343.550 H 110.950 V 345.050 Z" stroke="rgb(0,255,0)" stroke-width="0.20" />
  <path d="M 110.950 342.050 H 112.450 V 340.550 H 110.950 V 342.050 Z" stroke="rgb(0,255,0)" stroke-width="0.20" />
  <path d="M 110.950 340.550 H 112.450 V 339.050 H 110.950 V 340.550 Z" stroke="rgb(0,255,0)" stroke-width="0.20" />
  <path d="M 110.950 336.050 H 112.450 V 334.550 H 110.950 V 336.050 Z" stroke="rgb(0,255,0)" stroke-width="0.20" />
  <path d="M 110.950 333.050 H 112.450 V 331.550 H 110.950 V 333.050 Z" stroke="rgb(0,255,0)" stroke-width="0.20" />
  <path d="M 110.950 328.550 H 112.450 V 327.050 H 110.950 V 328.550 Z" stroke="rgb(0,255,0)" stroke-width="0.20" />
  <path d="M 110.950 321.050 H 112.450 V 319.550 H 110.950 V 321.050 Z" stroke="rgb(0,255,0)" stroke-width="0.20" />
  <path d="M 110.950 316.550 H 112.450 V 315.050 H 110.950 V 316.550 Z" stroke="rgb(0,255,0)" stroke-width="0.20" />
  <path d="M 110.950 315.050 H 112.450 V 313.550 H 110.950 V 315.050 Z" stroke="rgb(0,255,0)" stroke-width="0.20" />
  <path d="M 110.950 310.550 H 112.450 V 309.050 H 110.950 V 310.550 Z" stroke="rgb(0,255,0)" stroke-width="0.20" />
  <path d="M 110.950 307.550 H 112.450 V 306.050 H 110.950 V 307.550 Z" stroke="rgb(0,255,0)" stroke-width="0.20" />
  <path d="M 110.950 306.050 H 112.450 V 304.550 H 110.950 V 306.050 Z" stroke="rgb(0,255,0)" stroke-width="0.20" />
  <path d="M 110.950 303.050 H 112.450 V 301.550 H 110.950 V 303.050 Z" stroke="rgb(0,255,0)" stroke-width="0.20" />
  <path d="M 110.950 301.550 H 112.450 V 300.050 H 110.950 V 301.550 Z" stroke="rgb(0,255,0)" stroke-width="0.20" />
  <path d="M 110.950 298.550 H 112.450 V 297.050 H 110.950 V 298.550 Z" stroke="rgb(0,255,0)" stroke-width="0.20" />
  <path d="M 110.950 295.550 H 112.450 V 294.050 H 110.950 V 295.550 Z" stroke="rgb(0,255,0)" stroke-width="0.20" />
  <path d="M 112.450 348.050 H 113.950 V 346.550 H 112.450 V 348.050 Z" stroke="rgb(0,255,0)" stroke-width="0.20" />
  <path d="M 112.450 343.550 H 113.950 V 342.050 H 112.450 V 343.550 Z" stroke="rgb(0,255,0)" stroke-width="0.20" />
  <path d="M 112.450 342.050 H 113.950 V 340.550 H 112.450 V 342.050 Z" stroke="rgb(0,255,0)" stroke-width="0.20" />
  <path d="M 112.450 339.050 H 113.950 V 337.550 H 112.450 V 339.050 Z" stroke="rgb(0,255,0)" stroke-width="0.20" />
  <path d="M 112.450 336.050 H 113.950 V 334.550 H 112.450 V 336.050 Z" stroke="rgb(0,255,0)" stroke-width="0.20" />
  <path d="M 112.450 331.550 H 113.950 V 330.050 H 112.450 V 331.550 Z" stroke="rgb(0,255,0)" stroke-width="0.20" />
  <path d="M 112.450 330.050 H 113.950 V 328.550 H 112.450 V 330.050 Z" stroke="rgb(0,255,0)" stroke-width="0.20" />
  <path d="M 112.450 327.050 H 113.950 V 325.550 H 112.450 V 327.050 Z" stroke="rgb(0,255,0)" stroke-width="0.20" />
  <path d="M 112.450 324.050 H 113.950 V 322.550 H 112.450 V 324.050 Z" stroke="rgb(0,255,0)" stroke-width="0.20" />
  <path d="M 112.450 322.550 H 113.950 V 321.050 H 112.450 V 322.550 Z" stroke="rgb(0,255,0)" stroke-width="0.20" />
  <path d="M 112.450 319.550 H 113.950 V 318.050 H 112.450 V 319.550 Z" stroke="rgb(0,255,0)" stroke-width="0.20" />
  <path d="M 112.450 318.050 H 113.950 V 316.550 H 112.450 V 318.050 Z" stroke="rgb(0,255,0)" stroke-width="0.20" />
  <path d="M 112.450 316.550 H 113.950 V 315.050 H 112.450 V 316.550 Z" stroke="rgb(0,255,0)" stroke-width="0.20" />
  <path d="M 112.450 315.050 H 113.950 V 313.550 H 112.450 V 315.050 Z" stroke="rgb(0,255,0)" stroke-width="0.20" />
  <path d="M 112.450 312.050 H 113.950 V 310.550 H 112.450 V 312.050 Z" stroke="rgb(0,255,0)" stroke-width="0.20" />
  <path d="M 112.450 310.550 H 113.950 V 309.050 H 112.450 V 310.550 Z" stroke="rgb(0,255,0)" stroke-width="0.20" />
  <path d="M 112.450 307.550 H 113.950 V 306.050 H 112.450 V 307.550 Z" stroke="rgb(0,255,0)" stroke-width="0.20" />
  <path d="M 112.450 306.050 H 113.950 V 304.550 H 112.450 V 306.050 Z" stroke="rgb(0,255,0)" stroke-width="0.20" />
  <path d="M 112.450 300.050 H 113.950 V 298.550 H 112.450 V 300.050 Z" stroke="rgb(0,255,0)" stroke-width="0.20" />
  <path d="M 112.450 297.050 H 113.950 V 295.550 H 112.450 V 297.050 Z" stroke="rgb(0,255,0)" stroke-width="0.20" />
  <path d="M 113.950 349.550 H 115.450 V 348.050 H 113.950 V 349.550 Z" stroke="rgb(0,255,0)" stroke-width="0.20" />
  <path d="M 113.950 348.050 H 115.450 V 346.550 H 113.950 V 348.050 Z" stroke="rgb(0,255,0)" stroke-width="0.20" />
  <path d="M 113.950 346.550 H 115.450 V 345.050 H 113.950 V 346.550 Z" stroke="rgb(0,255,0)" stroke-width="0.20" />
  <path d="M 113.950 345.050 H 115.450 V 343.550 H 113.950 V 345.050 Z" stroke="rgb(0,255,0)" stroke-width="0.20" />
  <path d="M 113.950 342.050 H 115.450 V 340.550 H 113.950 V 342.050 Z" stroke="rgb(0,255,0)" stroke-width="0.20" />
  <path d="M 113.950 340.550 H 115.450 V 339.050 H 113.950 V 340.550 Z" stroke="rgb(0,255,0)" stroke-width="0.20" />
  <path d="M 113.950 339.050 H 115.450 V 337.550 H 113.950 V 339.050 Z" stroke="rgb(0,255,0)" stroke-width="0.20" />
  <path d="M 113.950 336.050 H 115.450 V 334.550 H 113.950 V 336.050 Z" stroke="rgb(0,255,0)" stroke-width="0.20" />
  <path d="M 113.950 334.550 H 115.450 V 333.050 H 113.950 V 334.550 Z" stroke="rgb(0,255,0)" stroke-width="0.20" />
  <path d="M 113.950 330.050 H 115.450 V 328.550 H 113.950 V 330.050 Z" stroke="rgb(0,255,0)" stroke-width="0.20" />
  <path d="M 113.950 325.550 H 115.450 V 324.050 H 113.950 V 325.550 Z" stroke="rgb(0,255,0)" stroke-width="0.20" />
  <path d="M 113.950 319.550 H 115.450 V 318.050 H 113.950 V 319.550 Z" stroke="rgb(0,255,0)" stroke-width="0.20" />
  <path d="M 113.950 318.050 H 115.450 V 316.550 H 113.950 V 318.050 Z" stroke="rgb(0,255,0)" stroke-width="0.20" />
  <path d="M 113.950 316.550 H 115.450 V 315.050 H 113.950 V 316.550 Z" stroke="rgb(0,255,0)" stroke-width="0.20" />
  <path d="M 113.950 307.550 H 115.450 V 306.050 H 113.950 V 307.550 Z" stroke="rgb(0,255,0)" stroke-width="0.20" />
  <path d="M 113.950 306.050 H 115.450 V 304.550 H 113.950 V 306.050 Z" stroke="rgb(0,255,0)" stroke-width="0.20" />
  <path d="M 113.950 304.550 H 115.450 V 303.050 H 113.950 V 304.550 Z" stroke="rgb(0,255,0)" stroke-width="0.20" />
  <path d="M 113.950 303.050 H 115.450 V 301.550 H 113.950 V 303.050 Z" stroke="rgb(0,255,0)" stroke-width="0.20" />
  <path d="M 113.950 301.550 H 115.450 V 300.050 H 113.950 V 301.550 Z" stroke="rgb(0,255,0)" stroke-width="0.20" />
  <path d="M 113.950 300.050 H 115.450 V 298.550 H 113.950 V 300.050 Z" stroke="rgb(0,255,0)" stroke-width="0.20" />
  <path d="M 113.950 298.550 H 115.450 V 297.050 H 113.950 V 298.550 Z" stroke="rgb(0,255,0)" stroke-width="0.20" />
  <path d="M 115.450 337.550 H 116.950 V 336.050 H 115.450 V 337.550 Z" stroke="rgb(0,255,0)" stroke-width="0.20" />
  <path d="M 115.450 336.050 H 116.950 V 334.550 H 115.450 V 336.050 Z" stroke="rgb(0,255,0)" stroke-width="0.20" />
  <path d="M 115.450 334.550 H 116.950 V 333.050 H 115.450 V 334.550 Z" stroke="rgb(0,255,0)" stroke-width="0.20" />
  <path d="M 115.450 333.050 H 116.950 V 331.550 H 115.450 V 333.050 Z" stroke="rgb(0,255,0)" stroke-width="0.20" />
  <path d="M 115.450 331.550 H 116.950 V 330.050 H 115.450 V 331.550 Z" stroke="rgb(0,255,0)" stroke-width="0.20" />
  <path d="M 115.450 325.550 H 116.950 V 324.050 H 115.450 V 325.550 Z" stroke="rgb(0,255,0)" stroke-width="0.20" />
  <path d="M 115.450 322.550 H 116.950 V 321.050 H 115.450 V 322.550 Z" stroke="rgb(0,255,0)" stroke-width="0.20" />
  <path d="M 115.450 315.050 H 116.950 V 313.550 H 115.450 V 315.050 Z" stroke="rgb(0,255,0)" stroke-width="0.20" />
  <path d="M 115.450 313.550 H 116.950 V 312.050 H 115.450 V 313.550 Z" stroke="rgb(0,255,0)" stroke-width="0.20" />
  <path d="M 115.450 312.050 H 116.950 V 310.550 H 115.450 V 312.050 Z" stroke="rgb(0,255,0)" stroke-width="0.20" />
  <path d="M 115.450 307.550 H 116.950 V 306.050 H 115.450 V 307.550 Z" stroke="rgb(0,255,0)" stroke-width="0.20" />
  <path d="M 115.450 301.550 H 116.950 V 300.050 H 115.450 V 301.550 Z" stroke="rgb(0,255,0)" stroke-width="0.20" />
  <path d="M 115.450 300.050 H 116.950 V 298.550 H 115.450 V 300.050 Z" stroke="rgb(0,255,0)" stroke-width="0.20" />
  <path d="M 116.950 349.550 H 118.450 V 348.050 H 116.950 V 349.550 Z" stroke="rgb(0,255,0)" stroke-width="0.20" />
  <path d="M 116.950 348.050 H 118.450 V 346.550 H 116.950 V 348.050 Z" stroke="rgb(0,255,0)" stroke-width="0.20" />
  <path d="M 116.950 346.550 H 118.450 V 345.050 H 116.950 V 346.550 Z" stroke="rgb(0,255,0)" stroke-width="0.20" />
  <path d="M 116.950 345.050 H 118.450 V 343.550 H 116.950 V 345.050 Z" stroke="rgb(0,255,0)" stroke-width="0.20" />
  <path d="M 116.950 343.550 H 118.450 V 342.050 H 116.950 V 343.550 Z" stroke="rgb(0,255,0)" stroke-width="0.20" />
  <path d="M 116.950 342.050 H 118.450 V 340.550 H 116.950 V 342.050 Z" stroke="rgb(0,255,0)" stroke-width="0.20" />
  <path d="M 116.950 340.550 H 118.450 V 339.050 H 116.950 V 340.550 Z" stroke="rgb(0,255,0)" stroke-width="0.20" />
  <path d="M 116.950 331.550 H 118.450 V 330.050 H 116.950 V 331.550 Z" stroke="rgb(0,255,0)" stroke-width="0.20" />
  <path d="M 116.950 322.550 H 118.450 V 321.050 H 116.950 V 322.550 Z" stroke="rgb(0,255,0)" stroke-width="0.20" />
  <path d="M 116.950 319.550 H 118.450 V 318.050 H 116.950 V 319.550 Z" stroke="rgb(0,255,0)" stroke-width="0.20" />
  <path d="M 116.950 318.050 H 118.450 V 316.550 H 116.950 V 318.050 Z" stroke="rgb(0,255,0)" stroke-width="0.20" />
  <path d="M 116.950 312.050 H 118.450 V 310.550 H 116.950 V 312.050 Z" stroke="rgb(0,255,0)" stroke-width="0.20" />
  <path d="M 116.950 310.550 H 118.450 V 309.050 H 116.950 V 310.550 Z" stroke="rgb(0,255,0)" stroke-width="0.20" />
  <path d="M 116.950 309.050 H 118.450 V 307.550 H 116.950 V 309.050 Z" stroke="rgb(0,255,0)" stroke-width="0.20" />
  <path d="M 116.950 307.550 H 118.450 V 306.050 H 116.950 V 307.550 Z" stroke="rgb(0,255,0)" stroke-width="0.20" />
  <path d="M 116.950 304.550 H 118.450 V 303.050 H 116.950 V 304.550 Z" stroke="rgb(0,255,0)" stroke-width="0.20" />
  <path d="M 116.950 301.550 H 118.450 V 300.050 H 116.950 V 301.550 Z" stroke="rgb(0,255,0)" stroke-width="0.20" />
  <path d="M 116.950 300.050 H 118.450 V 298.550 H 116.950 V 300.050 Z" stroke="rgb(0,255,0)" stroke-width="0.20" />
  <path d="M 116.950 297.050 H 118.450 V 295.550 H 116.950 V 297.050 Z" stroke="rgb(0,255,0)" stroke-width="0.20" />
  <path d="M 116.950 295.550 H 118.450 V 294.050 H 116.950 V 295.550 Z" stroke="rgb(0,255,0)" stroke-width="0.20" />
  <path d="M 118.450 349.550 H 119.950 V 348.050 H 118.450 V 349.550 Z" stroke="rgb(0,255,0)" stroke-width="0.20" />
  <path d="M 118.450 340.550 H 119.950 V 339.050 H 118.450 V 340.550 Z" stroke="rgb(0,255,0)" stroke-width="0.20" />
  <path d="M 118.450 337.550 H 119.950 V 336.050 H 118.450 V 337.550 Z" stroke="rgb(0,255,0)" stroke-width="0.20" />
  <path d="M 118.450 331.550 H 119.950 V 330.050 H 118.450 V 331.550 Z" stroke="rgb(0,255,0)" stroke-width="0.20" />
  <path d="M 118.450 328.550 H 119.950 V 327.050 H 118.450 V 328.550 Z" stroke="rgb(0,255,0)" stroke-width="0.20" />
  <path d="M 118.450 327.050 H 119.950 V 325.550 H 118.450 V 327.050 Z" stroke="rgb(0,255,0)" stroke-width="0.20" />
  <path d="M 118.450 325.550 H 119.950 V 324.050 H 118.450 V 325.550 Z" stroke="rgb(0,255,0)" stroke-width="0.20" />
  <path d="M 118.450 324.050 H 119.950 V 322.550 H 118.450 V 324.050 Z" stroke="rgb(0,255,0)" stroke-width="0.20" />
  <path d="M 118.450 322.550 H 119.950 V 321.050 H 118.450 V 322.550 Z" stroke="rgb(0,255,0)" stroke-width="0.20" />
  <path d="M 118.450 321.050 H 119.950 V 319.550 H 118.450 V 321.050 Z" stroke="rgb(0,255,0)" stroke-width="0.20" />
  <path d="M 118.450 318.050 H 119.950 V 316.550 H 118.450 V 318.050 Z" stroke="rgb(0,255,0)" stroke-width="0.20" />
  <path d="M 118.450 316.550 H 119.950 V 315.050 H 118.450 V 316.550 Z" stroke="rgb(0,255,0)" stroke-width="0.20" />
  <path d="M 118.450 310.550 H 119.950 V 309.050 H 118.450 V 310.550 Z" stroke="rgb(0,255,0)" stroke-width="0.20" />
  <path d="M 118.450 307.550 H 119.950 V 306.050 H 118.450 V 307.550 Z" stroke="rgb(0,255,0)" stroke-width="0.20" />
  <path d="M 118.450 301.550 H 119.950 V 300.050 H 118.450 V 301.550 Z" stroke="rgb(0,255,0)" stroke-width="0.20" />
  <path d="M 118.450 300.050 H 119.950 V 298.550 H 118.450 V 300.050 Z" stroke="rgb(0,255,0)" stroke-width="0.20" />
  <path d="M 118.450 298.550 H 119.950 V 297.050 H 118.450 V 298.550 Z" stroke="rgb(0,255,0)" stroke-width="0.20" />
  <path d="M 118.450 297.050 H 119.950 V 295.550 H 118.450 V 297.050 Z" stroke="rgb(0,255,0)" stroke-width="0.20" />
  <path d="M 118.450 295.550 H 119.950 V 294.050 H 118.450 V 295.550 Z" stroke="rgb(0,255,0)" stroke-width="0.20" />
  <path d="M 119.950 349.550 H 121.450 V 348.050 H 119.950 V 349.550 Z" stroke="rgb(0,255,0)" stroke-width="0.20" />
  <path d="M 119.950 346.550 H 121.450 V 345.050 H 119.950 V 346.550 Z" stroke="rgb(0,255,0)" stroke-width="0.20" />
  <path d="M 119.950 345.050 H 121.450 V 343.550 H 119.950 V 345.050 Z" stroke="rgb(0,255,0)" stroke-width="0.20" />
  <path d="M 119.950 343.550 H 121.450 V 342.050 H 119.950 V 343.550 Z" stroke="rgb(0,255,0)" stroke-width="0.20" />
  <path d="M 119.950 340.550 H 121.450 V 339.050 H 119.950 V 340.550 Z" stroke="rgb(0,255,0)" stroke-width="0.20" />
  <path d="M 119.950 336.050 H 121.450 V 334.550 H 119.950 V 336.050 Z" stroke="rgb(0,255,0)" stroke-width="0.20" />
  <path d="M 119.950 333.050 H 121.450 V 331.550 H 119.950 V 333.050 Z" stroke="rgb(0,255,0)" stroke-width="0.20" />
  <path d="M 119.950 330.050 H 121.450 V 328.550 H 119.950 V 330.050 Z" stroke="rgb(0,255,0)" stroke-width="0.20" />
  <path d="M 119.950 328.550 H 121.450 V 327.050 H 119.950 V 328.550 Z" stroke="rgb(0,255,0)" stroke-width="0.20" />
  <path d="M 119.950 325.550 H 121.450 V 324.050 H 119.950 V 325.550 Z" stroke="rgb(0,255,0)" stroke-width="0.20" />
  <path d="M 119.950 324.050 H 121.450 V 322.550 H 119.950 V 324.050 Z" stroke="rgb(0,255,0)" stroke-width="0.20" />
  <path d="M 119.950 322.550 H 121.450 V 321.050 H 119.950 V 322.550 Z" stroke="rgb(0,255,0)" stroke-width="0.20" />
  <path d="M 119.950 318.050 H 121.450 V 316.550 H 119.950 V 318.050 Z" stroke="rgb(0,255,0)" stroke-width="0.20" />
  <path d="M 119.950 316.550 H 121.450 V 315.050 H 119.950 V 316.550 Z" stroke="rgb(0,255,0)" stroke-width="0.20" />
  <path d="M 119.950 315.050 H 121.450 V 313.550 H 119.950 V 315.050 Z" stroke="rgb(0,255,0)" stroke-width="0.20" />
  <path d="M 119.950 313.550 H 121.450 V 312.050 H 119.950 V 313.550 Z" stroke="rgb(0,255,0)" stroke-width="0.20" />
  <path d="M 119.950 312.050 H 121.450 V 310.550 H 119.950 V 312.050 Z" stroke="rgb(0,255,0)" stroke-width="0.20" />
  <path d="M 119.950 310.550 H 121.450 V 309.050 H 119.950 V 310.550 Z" stroke="rgb(0,255,0)" stroke-width="0.20" />
  <path d="M 119.950 307.550 H 121.450 V 306.050 H 119.950 V 307.550 Z" stroke="rgb(0,255,0)" stroke-width="0.20" />
  <path d="M 119.950 306.050 H 121.450 V 304.550 H 119.950 V 306.050 Z" stroke="rgb(0,255,0)" stroke-width="0.20" />
  <path d="M 119.950 304.550 H 121.450 V 303.050 H 119.950 V 304.550 Z" stroke="rgb(0,255,0)" stroke-width="0.20" />
  <path d="M 119.950 303.050 H 121.450 V 301.550 H 119.950 V 303.050 Z" stroke="rgb(0,255,0)" stroke-width="0.20" />
  <path d="M 119.950 301.550 H 121.450 V 300.050 H 119.950 V 301.550 Z" stroke="rgb(0,255,0)" stroke-width="0.20" />
  <path d="M 119.950 300.050 H 121.450 V 298.550 H 119.950 V 300.050 Z" stroke="rgb(0,255,0)" stroke-width="0.20" />
  <path d="M 119.950 297.050 H 121.450 V 295.550 H 119.950 V 297.050 Z" stroke="rgb(0,255,0)" stroke-width="0.20" />
  <path d="M 119.950 295.550 H 121.450 V 294.050 H 119.950 V 295.550 Z" stroke="rgb(0,255,0)" stroke-width="0.20" />
  <path d="M 121.450 349.550 H 122.950 V 348.050 H 121.450 V 349.550 Z" stroke="rgb(0,255,0)" stroke-width="0.20" />
  <path d="M 121.450 346.550 H 122.950 V 345.050 H 121.450 V 346.550 Z" stroke="rgb(0,255,0)" stroke-width="0.20" />
  <path d="M 121.450 345.050 H 122.950 V 343.550 H 121.450 V 345.050 Z" stroke="rgb(0,255,0)" stroke-width="0.20" />
  <path d="M 121.450 343.550 H 122.950 V 342.050 H 121.450 V 343.550 Z" stroke="rgb(0,255,0)" stroke-width="0.20" />
  <path d="M 121.450 340.550 H 122.950 V 339.050 H 121.450 V 340.550 Z" stroke="rgb(0,255,0)" stroke-width="0.20" />
  <path d="M 121.450 337.550 H 122.950 V 336.050 H 121.450 V 337.550 Z" stroke="rgb(0,255,0)" stroke-width="0.20" />
  <path d="M 121.450 333.050 H 122.950 V 331.550 H 121.450 V 333.050 Z" stroke="rgb(0,255,0)" stroke-width="0.20" />
  <path d="M 121.450 331.550 H 122.950 V 330.050 H 121.450 V 331.550 Z" stroke="rgb(0,255,0)" stroke-width="0.20" />
  <path d="M 121.450 330.050 H 122.950 V 328.550 H 121.450 V 330.050 Z" stroke="rgb(0,255,0)" stroke-width="0.20" />
  <path d="M 121.450 328.550 H 122.950 V 327.050 H 121.450 V 328.550 Z" stroke="rgb(0,255,0)" stroke-width="0.20" />
  <path d="M 121.450 327.050 H 122.950 V 325.550 H 121.450 V 327.050 Z" stroke="rgb(0,255,0)" stroke-width="0.20" />
  <path d="M 121.450 325.550 H 122.950 V 324.050 H 121.450 V 325.550 Z" stroke="rgb(0,255,0)" stroke-width="0.20" />
  <path d="M 121.450 324.050 H 122.950 V 322.550 H 121.450 V 324.050 Z" stroke="rgb(0,255,0)" stroke-width="0.20" />
  <path d="M 121.450 322.550 H 122.950 V 321.050 H 121.450 V 322.550 Z" stroke="rgb(0,255,0)" stroke-width="0.20" />
  <path d="M 121.450 321.050 H 122.950 V 319.550 H 121.450 V 321.050 Z" stroke="rgb(0,255,0)" stroke-width="0.20" />
  <path d="M 121.450 316.550 H 122.950 V 315.050 H 121.450 V 316.550 Z" stroke="rgb(0,255,0)" stroke-width="0.20" />
  <path d="M 121.450 313.550 H 122.950 V 312.050 H 121.450 V 313.550 Z" stroke="rgb(0,255,0)" stroke-width="0.20" />
  <path d="M 121.450 312.050 H 122.950 V 310.550 H 121.450 V 312.050 Z" stroke="rgb(0,255,0)" stroke-width="0.20" />
  <path d="M 121.450 310.550 H 122.950 V 309.050 H 121.450 V 310.550 Z" stroke="rgb(0,255,0)" stroke-width="0.20" />
  <path d="M 121.450 303.050 H 122.950 V 301.550 H 121.450 V 303.050 Z" stroke="rgb(0,255,0)" stroke-width="0.20" />
  <path d="M 121.450 301.550 H 122.950 V 300.050 H 121.450 V 301.550 Z" stroke="rgb(0,255,0)" stroke-width="0.20" />
  <path d="M 121.450 298.550 H 122.950 V 297.050 H 121.450 V 298.550 Z" stroke="rgb(0,255,0)" stroke-width="0.20" />
  <path d="M 121.450 297.050 H 122.950 V 295.550 H 121.450 V 297.050 Z" stroke="rgb(0,255,0)" stroke-width="0.20" />
  <path d="M 122.950 349.550 H 124.450 V 348.050 H 122.950 V 349.550 Z" stroke="rgb(0,255,0)" stroke-width="0.20" />
  <path d="M 122.950 346.550 H 124.450 V 345.050 H 122.950 V 346.550 Z" stroke="rgb(0,255,0)" stroke-width="0.20" />
  <path d="M 122.950 345.050 H 124.450 V 343.550 H 122.950 V 345.050 Z" stroke="rgb(0,255,0)" stroke-width="0.20" />
  <path d="M 122.950 343.550 H 124.450 V 342.050 H 122.950 V 343.550 Z" stroke="rgb(0,255,0)" stroke-width="0.20" />
  <path d="M 122.950 340.550 H 124.450 V 339.050 H 122.950 V 340.550 Z" stroke="rgb(0,255,0)" stroke-width="0.20" />
  <path d="M 122.950 336.050 H 124.450 V 334.550 H 122.950 V 336.050 Z" stroke="rgb(0,255,0)" stroke-width="0.20" />
  <path d="M 122.950 330.050 H 124.450 V 328.550 H 122.950 V 330.050 Z" stroke="rgb(0,255,0)" stroke-width="0.20" />
  <path d="M 122.950 328.550 H 124.450 V 327.050 H 122.950 V 328.550 Z" stroke="rgb(0,255,0)" stroke-width="0.20" />
  <path d="M 122.950 327.050 H 124.450 V 325.550 H 122.950 V 327.050 Z" stroke="rgb(0,255,0)" stroke-width="0.20" />
  <path d="M 122.950 322.550 H 124.450 V 321.050 H 122.950 V 322.550 Z" stroke="rgb(0,255,0)" stroke-width="0.20" />
  <path d="M 122.950 321.050 H 124.450 V 319.550 H 122.950 V 321.050 Z" stroke="rgb(0,255,0)" stroke-width="0.20" />
  <path d="M 122.950 316.550 H 124.450 V 315.050 H 122.950 V 316.550 Z" stroke="rgb(0,255,0)" stroke-width="0.20" />
  <path d="M 122.950 313.550 H 124.450 V 312.050 H 122.950 V 313.550 Z" stroke="rgb(0,255,0)" stroke-width="0.20" />
  <path d="M 122.950 310.550 H 124.450 V 309.050 H 122.950 V 310.550 Z" stroke="rgb(0,255,0)" stroke-width="0.20" />
  <path d="M 122.950 309.050 H 124.450 V 307.550 H 122.950 V 309.050 Z" stroke="rgb(0,255,0)" stroke-width="0.20" />
  <path d="M 122.950 303.050 H 124.450 V 301.550 H 122.950 V 303.050 Z" stroke="rgb(0,255,0)" stroke-width="0.20" />
  <path d="M 122.950 301.550 H 124.450 V 300.050 H 122.950 V 301.550 Z" stroke="rgb(0,255,0)" stroke-width="0.20" />
  <path d="M 122.950 300.050 H 124.450 V 298.550 H 122.950 V 300.050 Z" stroke="rgb(0,255,0)" stroke-width="0.20" />
  <path d="M 122.950 297.050 H 124.450 V 295.550 H 122.950 V 297.050 Z" stroke="rgb(0,255,0)" stroke-width="0.20" />
  <path d="M 122.950 295.550 H 124.450 V 294.050 H 122.950 V 295.550 Z" stroke="rgb(0,255,0)" stroke-width="0.20" />
  <path d="M 124.450 349.550 H 125.950 V 348.050 H 124.450 V 349.550 Z" stroke="rgb(0,255,0)" stroke-width="0.20" />
  <path d="M 124.450 340.550 H 125.950 V 339.050 H 124.450 V 340.550 Z" stroke="rgb(0,255,0)" stroke-width="0.20" />
  <path d="M 124.450 336.050 H 125.950 V 334.550 H 124.450 V 336.050 Z" stroke="rgb(0,255,0)" stroke-width="0.20" />
  <path d="M 124.450 334.550 H 125.950 V 333.050 H 124.450 V 334.550 Z" stroke="rgb(0,255,0)" stroke-width="0.20" />
  <path d="M 124.450 333.050 H 125.950 V 331.550 H 124.450 V 333.050 Z" stroke="rgb(0,255,0)" stroke-width="0.20" />
  <path d="M 124.450 330.050 H 125.950 V 328.550 H 124.450 V 330.050 Z" stroke="rgb(0,255,0)" stroke-width="0.20" />
  <path d="M 124.450 325.550 H 125.950 V 324.050 H 124.450 V 325.550 Z" stroke="rgb(0,255,0)" stroke-width="0.20" />
  <path d="M 124.450 321.050 H 125.950 V 319.550 H 124.450 V 321.050 Z" stroke="rgb(0,255,0)" stroke-width="0.20" />
  <path d="M 124.450 318.050 H 125.950 V 316.550 H 124.450 V 318.050 Z" stroke="rgb(0,255,0)" stroke-width="0.20" />
  <path d="M 124.450 316.550 H 125.950 V 315.050 H 124.450 V 316.550 Z" stroke="rgb(0,255,0)" stroke-width="0.20" />
  <path d="M 124.450 312.050 H 125.950 V 310.550 H 124.450 V 312.050 Z" stroke="rgb(0,255,0)" stroke-width="0.20" />
  <path d="M 124.450 310.550 H 125.950 V 309.050 H 124.450 V 310.550 Z" stroke="rgb(0,255,0)" stroke-width="0.20" />
  <path d="M 124.450 307.550 H 125.950 V 306.050 H 124.450 V 307.550 Z" stroke="rgb(0,255,0)" stroke-width="0.20" />
  <path d="M 124.450 304.550 H 125.950 V 303.050 H 124.450 V 304.550 Z" stroke="rgb(0,255,0)" stroke-width="0.20" />
  <path d="M 124.450 303.050 H 125.950 V 301.550 H 124.450 V 303.050 Z" stroke="rgb(0,255,0)" stroke-width="0.20" />
  <path d="M 124.450 300.050 H 125.950 V 298.550 H 124.450 V 300.050 Z" stroke="rgb(0,255,0)" stroke-width="0.20" />
  <path d="M 125.950 349.550 H 127.450 V 348.050 H 125.950 V 349.550 Z" stroke="rgb(0,255,0)" stroke-width="0.20" />
  <path d="M 125.950 348.050 H 127.450 V 346.550 H 125.950 V 348.050 Z" stroke="rgb(0,255,0)" stroke-width="0.20" />
  <path d="M 125.950 346.550 H 127.450 V 345.050 H 125.950 V 346.550 Z" stroke="rgb(0,255,0)" stroke-width="0.20" />
  <path d="M 125.950 345.050 H 127.450 V 343.550 H 125.950 V 345.050 Z" stroke="rgb(0,255,0)" stroke-width="0.20" />
  <path d="M 125.950 343.550 H 127.450 V 342.050 H 125.950 V 343.550 Z" stroke="rgb(0,255,0)" stroke-width="0.20" />
  <path d="M 125.950 342.050 H 127.450 V 340.550 H 125.950 V 342.050 Z" stroke="rgb(0,255,0)" stroke-width="0.20" />
  <path d="M 125.950 340.550 H 127.450 V 339.050 H 125.950 V 340.550 Z" stroke="rgb(0,255,0)" stroke-width="0.20" />
  <path d="M 125.950 337.550 H 127.450 V 336.050 H 125.950 V 337.550 Z" stroke="rgb(0,255,0)" stroke-width="0.20" />
  <path d="M 125.950 336.050 H 127.450 V 334.550 H 125.950 V 336.050 Z" stroke="rgb(0,255,0)" stroke-width="0.20" />
  <path d="M 125.950 333.050 H 127.450 V 331.550 H 125.950 V 333.050 Z" stroke="rgb(0,255,0)" stroke-width="0.20" />
  <path d="M 125.950 331.550 H 127.450 V 330.050 H 125.950 V 331.550 Z" stroke="rgb(0,255,0)" stroke-width="0.20" />
  <path d="M 125.950 327.050 H 127.450 V 325.550 H 125.950 V 327.050 Z" stroke="rgb(0,255,0)" stroke-width="0.20" />
  <path d="M 125.950 325.550 H 127.450 V 324.050 H 125.950 V 325.550 Z" stroke="rgb(0,255,0)" stroke-width="0.20" />
  <path d="M 125.950 324.050 H 127.450 V 322.550 H 125.950 V 324.050 Z" stroke="rgb(0,255,0)" stroke-width="0.20" />
  <path d="M 125.950 319.550 H 127.450 V 318.050 H 125.950 V 319.550 Z" stroke="rgb(0,255,0)" stroke-width="0.20" />
  <path d="M 125.950 318.050 H 127.450 V 316.550 H 125.950 V 318.050 Z" stroke="rgb(0,255,0)" stroke-width="0.20" />
  <path d="M 125.950 312.050 H 127.450 V 310.550 H 125.950 V 312.050 Z" stroke="rgb(0,255,0)" stroke-width="0.20" />
  <path d="M 125.950 307.550 H 127.450 V 306.050 H 125.950 V 307.550 Z" stroke="rgb(0,255,0)" stroke-width="0.20" />
  <path d="M 125.950 306.050 H 127.450 V 304.550 H 125.950 V 306.050 Z" stroke="rgb(0,255,0)" stroke-width="0.20" />
  <path d="M 125.950 304.550 H 127.450 V 303.050 H 125.950 V 304.550 Z" stroke="rgb(0,255,0)" stroke-width="0.20" />
  <path d="M 125.950 300.050 H 127.450 V 298.550 H 125.950 V 300.050 Z" stroke="rgb(0,255,0)" stroke-width="0.20" />
  <path d="M 125.950 297.050 H 127.450 V 295.550 H 125.950 V 297.050 Z" stroke="rgb(0,255,0)" stroke-width="0.20" />
  <path d="M 125.950 295.550 H 127.450 V 294.050 H 125.950 V 295.550 Z" stroke="rgb(0,255,0)" stroke-width="0.20" />
</g>
<g id="p-2" style="fill:none;stroke-linecap:round;stroke-linejoin:round;">
  <text dominant-baseline="hanging" font-size="6px" style="font-family: sans-serif ; font-weight: normal; font-style: normal; fill: rgb(255,0,0)" text-anchor="left" transform="matrix( 1.000 0.000 0.000 1.000 134.300 344.400 )">https://boxes.hackerspace-bamberg.de/PaperBox?x=70&amp;y=96&amp;h=35&amp;spacing=0.5</text>
  <path d="M 65.100 287.200 H 92.600 C 92.655 287.200 92.700 287.155 92.700 287.100 C 92.700 285.801 93.042 284.525 93.691 283.400 C 94.341 282.275 95.275 281.341 96.400 280.691 C 97.525 280.042 98.801 279.700 100.100 279.700 C 101.399 279.700 102.675 280.042 103.800 280.691 C 104.925 281.341 105.859 282.275 106.509 283.400 C 107.158 284.525 107.500 285.801 107.500 287.100 C 107.500 287.155 107.545 287.200 107.600 287.200 H 135.000 C 135.100 287.200 135.000 287.100 135.000 287.200 V 288.600 C 135.000 288.618 135.005 288.635 135.013 288.650 C 135.022 288.665 135.035 288.678 135.050 288.687 C 135.065 288.695 135.082 288.700 135.100 288.700 C 135.118 288.700 135.135 288.695 135.150 288.687 C 135.165 288.678 135.178 288.665 135.187 288.650 C 135.195 288.635 135.200 288.618 135.200 288.600 V 287.100 C 135.200 287.155 135.155 287.200 135.100 287.200 C 135.155 287.200 135.200 287.155 135.200 287.100 C 135.200 287.152 135.160 287.196 135.108 287.200 L 183.108 283.360 C 183.160 283.356 183.200 283.312 183.200 283.260 V 255.940 C 183.200 255.888 183.160 255.844 183.108 255.840 L 135.108 252.000 C 135.160 252.004 135.200 252.048 135.200 252.100 C 135.200 252.155 135.155 252.200 135.100 252.200 H 170.000 C 170.100 252.200 170.000 252.100 170.000 252.200 V 253.600 C 170.000 253.618 170.005 253.635 170.013 253.650 C 170.022 253.665 170.035 253.678 170.050 253.687 C 170.065 253.695 170.082 253.700 170.100 253.700 C 170.118 253.700 170.135 253.695 170.150 253.687 C 170.165 253.678 170.178 253.665 170.187 253.650 C 170.195 253.635 170.200 253.618 170.200 253.600 V 252.100 C 170.200 252.155 170.155 252.200 170.100 252.200 C 170.155 252.200 170.200 252.155 170.200 252.100 C 170.200 252.152 170.160 252.196 170.108 252.200 L 190.108 250.600 C 190.160 250.596 190.200 250.552 190.200 250.500 V 157.700 C 190.200 157.648 190.160 157.604 190.108 157.600 L 170.108 156.000 C 170.160 156.004 170.200 156.048 170.200 156.100 C 170.200 156.045 170.155 156.000 170.100 156.000 C 170.155 156.000 170.200 156.045 170.200 156.100 V 154.600 C 170.200 154.582 170.195 154.565 170.187 154.550 C 170.178 154.535 170.165 154.522 170.150 154.513 C 170.135 154.505 170.118 154.500 170.100 154.500 C 170.082 154.500 170.065 154.505 170.050 154.513 C 170.035 154.522 170.022 154.535 170.013 154.550 C 170.005 154.565 170.000 154.582 170.000 154.600 V 156.000 C 170.000 156.100 170.100 156.000 170.000 156.000 H 135.100 C 135.155 156.000 135.200 156.045 135.200 156.100 C 135.200 156.152 135.160 156.196 135.108 156.200 L 183.108 152.360 C 183.160 152.356 183.200 152.312 183.200 152.260 V 124.940 C 183.200 124.888 183.160 124.844 183.108 124.840 L 135.200 121.008 C 135.108 121.000 135.200 121.100 135.200 121.008 V 25.200 C 135.200 25.100 135.100 25.200 135.200 25.200 H 136.600 C 136.618 25.200 136.635 25.195 136.650 25.187 C 136.665 25.178 136.678 25.165 136.687 25.150 C 136.695 25.135 136.700 25.118 136.700 25.100 C 136.700 25.082 136.695 25.065 136.687 25.050 C 136.678 25.035 136.665 25.022 136.650 25.013 C 136.635 25.005 136.618 25.000 136.600 25.000 H 135.200 C 135.100 25.000 135.200 25.100 135.200 25.000 V 17.100 C 135.200 15.854 134.872 14.629 134.249 13.550 C 133.626 12.471 132.729 11.574 131.650 10.951 C 130.571 10.328 129.346 10.000 128.100 10.000 H 72.100 C 70.854 10.000 69.629 10.328 68.550 10.951 C 67.471 11.574 66.574 12.471 65.951 13.550 C 65.328 14.629 65.000 15.854 65.000 17.100 V 25.000 C 65.000 25.100 65.100 25.000 65.000 25.000 H 63.600 C 63.582 25.000 63.565 25.005 63.550 25.013 C 63.535 25.022 63.522 25.035 63.513 25.050 C 63.505 25.065 63.500 25.082 63.500 25.100 C 63.500 25.118 63.505 25.135 63.513 25.150 C 63.522 25.165 63.535 25.178 63.550 25.187 C 63.565 25.195 63.582 25.200 63.600 25.200 H 65.000 C 65.100 25.200 65.000 25.100 65.000 25.200 V 121.008 C 65.000 121.100 65.092 121.000 65.000 121.008 L 17.092 124.840 C 17.040 124.844 17.000 124.888 17.000 124.940 V 152.260 C 17.000 152.312 17.040 152.356 17.092 152.360 L 65.092 156.200 C 65.040 156.196 65.000 156.152 65.000 156.100 C 65.000 156.045 65.045 156.000 65.100 156.000 H 30.200 C 30.100 156.000 30.200 156.100 30.200 156.000 V 154.600 C 30.200 154.582 30.195 154.565 30.187 154.550 C 30.178 154.535 30.165 154.522 30.150 154.513 C 30.135 154.505 30.118 154.500 30.100 154.500 C 30.082 154.500 30.065 154.505 30.050 154.513 C 30.035 154.522 30.022 154.535 30.013 154.550 C 30.005 154.565 30.000 154.582 30.000 154.600 V 156.100 C 30.000 156.045 30.045 156.000 30.100 156.000 C 30.045 156.000 30.000 156.045 30.000 156.100 C 30.000 156.048 30.040 156.004 30.092 156.000 L 10.092 157.600 C 10.040 157.604 10.000 157.648 10.000 157.700 V 250.500 C 10.000 250.552 10.040 250.596 10.092 250.600 L 30.092 252.200 C 30.040 252.196 30.000 252.152 30.000 252.100 C 30.000 252.155 30.045 252.200 30.100 252.200 C 30.045 252.200 30.000 252.155 30.000 252.100 V 253.600 C 30.000 253.618 30.005 253.635 30.013 253.650 C 30.022 253.665 30.035 253.678 30.050 253.687 C 30.065 253.695 30.082 253.700 30.100 253.700 C 30.118 253.700 30.135 253.695 30.150 253.687 C 30.165 253.678 30.178 253.665 30.187 253.650 C 30.195 253.635 30.200 253.618 30.200 253.600 V 252.200 C 30.200 252.100 30.100 252.200 30.200 252.200 H 65.100 C 65.045 252.200 65.000 252.155 65.000 252.100 C 65.000 252.048 65.040 252.004 65.092 252.000 L 17.092 255.840 C 17.040 255.844 17.000 255.888 17.000 255.940 V 283.260 C 17.000 283.312 17.040 283.356 17.092 283.360 L 65.092 287.200 C 65.040 287.196 65.000 287.152 65.000 287.100 C 65.000 287.155 65.045 287.200 65.100 287.200 C 65.045 287.200 65.000 287.155 65.000 287.100 V 288.600 C 65.000 288.618 65.005 288.635 65.013 288.650 C 65.022 288.665 65.035 288.678 65.050 288.687 C 65.065 288.695 65.082 288.700 65.100 288.700 C 65.118 288.700 65.135 288.695 65.150 288.687 C 65.165 288.678 65.178 288.665 65.187 288.650 C 65.195 288.635 65.200 288.618 65.200 288.600 V 287.100 C 65.200 287.155 65.155 287.200 65.100 287.200 Z" stroke="rgb(0,0,0)" stroke-width="0.20" />
</g>
</svg>