<?xml version="1.0" encoding="UTF-8" standalone="no"?>
<svg
   version="1.1"
   width="15.7480in"
   height="11.8110in"
   viewBox="0 0 1133.8583 850.3937"
   id="svg171"
   sodipodi:docname="Super Mario question mark box E0018853 file cdr and dxf free vector download for laser cut.svg"
   inkscape:version="1.4.2 (f4327f4, 2025-05-13)"
   xmlns:inkscape="http://www.inkscape.org/namespaces/inkscape"
   xmlns:sodipodi="http://sodipodi.sourceforge.net/DTD/sodipodi-0.dtd"
   xmlns="http://www.w3.org/2000/svg"
   xmlns:svg="http://www.w3.org/2000/svg">
  <defs
     id="defs171" />
  <sodipodi:namedview
     id="namedview171"
     pagecolor="#ffffff"
     bordercolor="#000000"
     borderopacity="0.25"
     inkscape:showpageshadow="2"
     inkscape:pageopacity="0.0"
     inkscape:pagecheckerboard="0"
     inkscape:deskcolor="#d1d1d1"
     inkscape:document-units="in"
     showgrid="false"
     inkscape:zoom="0.3492507"
     inkscape:cx="755.90401"
     inkscape:cy="565.49637"
     inkscape:window-width="1920"
     inkscape:window-height="1009"
     inkscape:window-x="1912"
     inkscape:window-y="-8"
     inkscape:window-maximized="1"
     inkscape:current-layer="svg171" />
  <g
     id="Layer1000">
    <path
       d="  M288.3546,255.5838 L267.2609,255.5838 C267.3825,255.5838 267.4823,255.6836 267.4823,255.8055 L267.4823,246.7366 C267.4823,246.6150 267.3825,246.5152 267.2609,246.5152 L249.1234,246.5152 C249.0018,246.5152 248.9020,246.6150 248.9020,246.7366 L248.9020,255.8055 C248.9020,255.6836 249.0018,255.5838 249.1234,255.5838 L230.9862,255.5838 C231.1081,255.5838 231.2076,255.6836 231.2076,255.8055 L231.2076,246.7366 C231.2076,246.6150 231.1081,246.5152 230.9862,246.5152 L212.8490,246.5152 C212.7271,246.5152 212.6273,246.6150 212.6273,246.7366 L212.6273,255.8055 C212.6273,255.6836 212.7271,255.5838 212.8490,255.5838 L194.7115,255.5838 C194.8334,255.5838 194.9332,255.6836 194.9332,255.8055 L194.9332,246.7366 C194.9332,246.6150 194.8334,246.5152 194.7115,246.5152 L176.5743,246.5152 C176.4524,246.5152 176.3529,246.6150 176.3529,246.7366 L176.3529,255.8055 C176.3529,255.6836 176.4524,255.5838 176.5743,255.5838 L155.4806,255.5838 L146.4120,255.5838 C146.2901,255.5838 146.1906,255.6836 146.1906,255.8055 L146.1906,286.4217 C146.1906,286.5436 146.2901,286.6433 146.4120,286.6433 L155.4806,286.6433 C155.3587,286.6433 155.2592,286.5436 155.2592,286.4217 L155.2592,304.5591 C155.2592,304.4373 155.3587,304.3378 155.4806,304.3378 L146.4120,304.3378 C146.2901,304.3378 146.1906,304.4373 146.1906,304.5591 L146.1906,322.6963 C146.1906,322.8182 146.2901,322.9177 146.4120,322.9177 L155.4806,322.9177 C155.3587,322.9177 155.2592,322.8182 155.2592,322.6963 L155.2592,340.8335 C155.2592,340.7119 155.3587,340.6122 155.4806,340.6122 L146.4120,340.6122 C146.2901,340.6122 146.1906,340.7119 146.1906,340.8335 L146.1906,358.9710 C146.1906,359.0929 146.2901,359.1924 146.4120,359.1924 L155.4806,359.1924 C155.3587,359.1924 155.2592,359.0929 155.2592,358.9710 L155.2592,377.1082 C155.2592,376.9863 155.3587,376.8868 155.4806,376.8868 L146.4120,376.8868 C146.2901,376.8868 146.1906,376.9863 146.1906,377.1082 L146.1906,407.7247 C146.1906,407.8466 146.2901,407.9460 146.4120,407.9460 L155.4806,407.9460 L288.3657,407.9460 L297.4343,407.9460 C297.5562,407.9460 297.6557,407.8466 297.6557,407.7247 L297.6557,377.1082 C297.6557,376.9863 297.5562,376.8868 297.4343,376.8868 L288.3657,376.8868 C288.4876,376.8868 288.5871,376.9863 288.5871,377.1082 L288.5871,358.9710 C288.5871,359.0929 288.4876,359.1924 288.3657,359.1924 L297.4343,359.1924 C297.5562,359.1924 297.6557,359.0929 297.6557,358.9710 L297.6557,340.8335 C297.6557,340.7119 297.5562,340.6122 297.4343,340.6122 L288.3657,340.6122 C288.4876,340.6122 288.5871,340.7119 288.5871,340.8335 L288.5871,322.6963 C288.5871,322.8182 288.4876,322.9177 288.3657,322.9177 L297.4343,322.9177 C297.5562,322.9177 297.6557,322.8182 297.6557,322.6963 L297.6557,304.5591 C297.6557,304.4373 297.5562,304.3378 297.4343,304.3378 L288.3657,304.3378 C288.4876,304.3378 288.5871,304.4373 288.5871,304.5591 L288.5871,286.4217 C288.5871,286.5436 288.4876,286.6433 288.3657,286.6433 L297.4343,286.6433 C297.5562,286.6433 297.6557,286.5436 297.6557,286.4217 L297.6557,255.8055 C297.6557,255.6836 297.5562,255.5838 297.4343,255.5838 L288.3657,255.5838"
       style="stroke-width: 0.7500; stroke: #000000; stroke-dasharray: none; stroke-linecap: butt; stroke-linejoin: miter; fill: none; "
       id="path1" />
    <path
       d="  M970.8259,259.6544 L949.7432,259.6544 C949.8648,259.6544 949.9646,259.7542 949.9646,259.8761 L949.9646,250.8072 C949.9646,250.6856 949.8648,250.5858 949.7432,250.5858 L931.6057,250.5858 C931.4841,250.5858 931.3843,250.6856 931.3843,250.8072 L931.3843,259.8761 C931.3843,259.7542 931.4841,259.6544 931.6057,259.6544 L913.4685,259.6544 C913.5904,259.6544 913.6899,259.7542 913.6899,259.8761 L913.6899,250.8072 C913.6899,250.6856 913.5904,250.5858 913.4685,250.5858 L895.3313,250.5858 C895.2094,250.5858 895.1097,250.6856 895.1097,250.8072 L895.1097,259.8761 C895.1097,259.7542 895.2094,259.6544 895.3313,259.6544 L877.1939,259.6544 C877.3157,259.6544 877.4155,259.7542 877.4155,259.8761 L877.4155,250.8072 C877.4155,250.6856 877.3157,250.5858 877.1939,250.5858 L859.0567,250.5858 C858.9348,250.5858 858.8353,250.6856 858.8353,250.8072 L858.8353,259.8761 C858.8353,259.7542 858.9348,259.6544 859.0567,259.6544 L837.9629,259.6544 C837.8410,259.6544 837.7415,259.7542 837.7415,259.8761 L837.7415,290.4922 C837.7415,290.3706 837.8410,290.2708 837.9629,290.2708 L828.8943,290.2708 C828.7724,290.2708 828.6729,290.3706 828.6729,290.4922 L828.6729,308.6297 C828.6729,308.7513 828.7724,308.8511 828.8943,308.8511 L837.9629,308.8511 C837.8410,308.8511 837.7415,308.7513 837.7415,308.6297 L837.7415,326.7669 C837.7415,326.6450 837.8410,326.5455 837.9629,326.5455 L828.8943,326.5455 C828.7724,326.5455 828.6729,326.6450 828.6729,326.7669 L828.6729,344.9041 C828.6729,345.0260 828.7724,345.1258 828.8943,345.1258 L837.9629,345.1258 C837.8410,345.1258 837.7415,345.0260 837.7415,344.9041 L837.7415,363.0416 C837.7415,362.9197 837.8410,362.8202 837.9629,362.8202 L828.8943,362.8202 C828.7724,362.8202 828.6729,362.9197 828.6729,363.0416 L828.6729,381.1788 C828.6729,381.3007 828.7724,381.4002 828.8943,381.4002 L837.9629,381.4002 C837.8410,381.4002 837.7415,381.3007 837.7415,381.1788 L837.7415,411.7952 C837.7415,411.9171 837.8410,412.0166 837.9629,412.0166 L970.8480,412.0166 C970.9699,412.0166 971.0694,411.9171 971.0694,411.7952 L971.0694,381.1788 C971.0694,381.3007 970.9699,381.4002 970.8480,381.4002 L979.9166,381.4002 C980.0385,381.4002 980.1380,381.3007 980.1380,381.1788 L980.1380,363.0416 C980.1380,362.9197 980.0385,362.8202 979.9166,362.8202 L970.8480,362.8202 C970.9699,362.8202 971.0694,362.9197 971.0694,363.0416 L971.0694,344.9041 C971.0694,345.0260 970.9699,345.1258 970.8480,345.1258 L979.9166,345.1258 C980.0385,345.1258 980.1380,345.0260 980.1380,344.9041 L980.1380,326.7669 C980.1380,326.6450 980.0385,326.5455 979.9166,326.5455 L970.8480,326.5455 C970.9699,326.5455 971.0694,326.6450 971.0694,326.7669 L971.0694,308.6297 C971.0694,308.7513 970.9699,308.8511 970.8480,308.8511 L979.9166,308.8511 C980.0385,308.8511 980.1380,308.7513 980.1380,308.6297 L980.1380,290.4922 C980.1380,290.3706 980.0385,290.2708 979.9166,290.2708 L970.8480,290.2708 C970.9699,290.2708 971.0694,290.3706 971.0694,290.4922 L971.0694,259.8761 C971.0694,259.7542 970.9699,259.6544 970.8480,259.6544"
       style="stroke-width: 0.7500; stroke: #000000; stroke-dasharray: none; stroke-linecap: butt; stroke-linejoin: miter; fill: none; "
       id="path2" />
    <path
       d="  M443.3890,254.5662 L422.2953,254.5662 C422.4169,254.5662 422.5167,254.6660 422.5167,254.7879 L422.5167,245.7190 C422.5167,245.5974 422.4169,245.4976 422.2953,245.4976 L404.1578,245.4976 C404.0362,245.4976 403.9364,245.5974 403.9364,245.7190 L403.9364,254.7879 C403.9364,254.6660 404.0362,254.5662 404.1578,254.5662 L386.0206,254.5662 C386.1425,254.5662 386.2420,254.6660 386.2420,254.7879 L386.2420,245.7190 C386.2420,245.5974 386.1425,245.4976 386.0206,245.4976 L367.8834,245.4976 C367.7615,245.4976 367.6618,245.5974 367.6618,245.7190 L367.6618,254.7879 C367.6618,254.6660 367.7615,254.5662 367.8834,254.5662 L349.7460,254.5662 C349.8678,254.5662 349.9673,254.6660 349.9673,254.7879 L349.9673,245.7190 C349.9673,245.5974 349.8678,245.4976 349.7460,245.4976 L331.6088,245.4976 C331.4869,245.4976 331.3874,245.5974 331.3874,245.7190 L331.3874,254.7879 C331.3874,254.6660 331.4869,254.5662 331.6088,254.5662 L310.5150,254.5662 L301.4464,254.5662 C301.3245,254.5662 301.2248,254.6660 301.2248,254.7879 L301.2248,285.4040 C301.2248,285.5259 301.3245,285.6257 301.4464,285.6257 L310.5150,285.6257 C310.3931,285.6257 310.2936,285.5259 310.2936,285.4040 L310.2936,303.5415 C310.2936,303.4196 310.3931,303.3201 310.5150,303.3201 L301.4464,303.3201 C301.3245,303.3201 301.2248,303.4196 301.2248,303.5415 L301.2248,321.6787 C301.2248,321.8006 301.3245,321.9001 301.4464,321.9001 L310.5150,321.9001 C310.3931,321.9001 310.2936,321.8006 310.2936,321.6787 L310.2936,339.8159 C310.2936,339.6943 310.3931,339.5945 310.5150,339.5945 L301.4464,339.5945 C301.3245,339.5945 301.2248,339.6943 301.2248,339.8159 L301.2248,357.9534 C301.2248,358.0753 301.3245,358.1748 301.4464,358.1748 L310.5150,358.1748 C310.3931,358.1748 310.2936,358.0753 310.2936,357.9534 L310.2936,376.0906 C310.2936,375.9687 310.3931,375.8692 310.5150,375.8692 L301.4464,375.8692 C301.3245,375.8692 301.2248,375.9687 301.2248,376.0906 L301.2248,406.7070 C301.2248,406.8289 301.3245,406.9284 301.4464,406.9284 L310.5150,406.9284 L443.4001,406.9284 L452.4687,406.9284 C452.5906,406.9284 452.6901,406.8289 452.6901,406.7070 L452.6901,376.0906 C452.6901,375.9687 452.5906,375.8692 452.4687,375.8692 L443.4001,375.8692 C443.5217,375.8692 443.6215,375.9687 443.6215,376.0906 L443.6215,357.9534 C443.6215,358.0753 443.5217,358.1748 443.4001,358.1748 L452.4687,358.1748 C452.5906,358.1748 452.6901,358.0753 452.6901,357.9534 L452.6901,339.8159 C452.6901,339.6943 452.5906,339.5945 452.4687,339.5945 L443.4001,339.5945 C443.5217,339.5945 443.6215,339.6943 443.6215,339.8159 L443.6215,321.6787 C443.6215,321.8006 443.5217,321.9001 443.4001,321.9001 L452.4687,321.9001 C452.5906,321.9001 452.6901,321.8006 452.6901,321.6787 L452.6901,303.5415 C452.6901,303.4196 452.5906,303.3201 452.4687,303.3201 L443.4001,303.3201 C443.5217,303.3201 443.6215,303.4196 443.6215,303.5415 L443.6215,285.4040 C443.6215,285.5259 443.5217,285.6257 443.4001,285.6257 L452.4687,285.6257 C452.5906,285.6257 452.6901,285.5259 452.6901,285.4040 L452.6901,254.7879 C452.6901,254.6660 452.5906,254.5662 452.4687,254.5662 L443.4001,254.5662"
       style="stroke-width: 0.7500; stroke: #000000; stroke-dasharray: none; stroke-linecap: butt; stroke-linejoin: miter; fill: none; "
       id="path3" />
    <path
       d="  M810.9658,85.6403 L789.8720,85.6403 C789.9939,85.6403 790.0934,85.7398 790.0934,85.8617 L790.0934,76.7931 C790.0934,76.6712 789.9939,76.5717 789.8720,76.5717 L771.7348,76.5717 C771.6129,76.5717 771.5134,76.6712 771.5134,76.7931 L771.5134,85.8617 C771.5134,85.7398 771.6129,85.6403 771.7348,85.6403 L753.5974,85.6403 C753.7192,85.6403 753.8190,85.7398 753.8190,85.8617 L753.8190,76.7931 C753.8190,76.6712 753.7192,76.5717 753.5974,76.5717 L735.4602,76.5717 C735.3383,76.5717 735.2388,76.6712 735.2388,76.7931 L735.2388,85.8617 C735.2388,85.7398 735.3383,85.6403 735.4602,85.6403 L717.3230,85.6403 C717.4446,85.6403 717.5443,85.7398 717.5443,85.8617 L717.5443,76.7931 C717.5443,76.6712 717.4446,76.5717 717.3230,76.5717 L699.1855,76.5717 C699.0639,76.5717 698.9641,76.6712 698.9641,76.7931 L698.9641,85.8617 C698.9641,85.7398 699.0639,85.6403 699.1855,85.6403 L678.0917,85.6403 C677.9701,85.6403 677.8704,85.7398 677.8704,85.8617 L677.8704,116.4781 C677.8704,116.3563 677.9701,116.2565 678.0917,116.2565 L669.0231,116.2565 C668.9013,116.2565 668.8018,116.3563 668.8018,116.4781 L668.8018,134.6153 C668.8018,134.7372 668.9013,134.8367 669.0231,134.8367 L678.0917,134.8367 C677.9701,134.8367 677.8704,134.7372 677.8704,134.6153 L677.8704,152.7525 C677.8704,152.6309 677.9701,152.5311 678.0917,152.5311 L669.0231,152.5311 C668.9013,152.5311 668.8018,152.6309 668.8018,152.7525 L668.8018,170.8900 C668.8018,171.0116 668.9013,171.1114 669.0231,171.1114 L678.0917,171.1114 C677.9701,171.1114 677.8704,171.0116 677.8704,170.8900 L677.8704,189.0272 C677.8704,188.9053 677.9701,188.8058 678.0917,188.8058 L669.0231,188.8058 C668.9013,188.8058 668.8018,188.9053 668.8018,189.0272 L668.8018,207.1644 C668.8018,207.2863 668.9013,207.3861 669.0231,207.3861 L678.0917,207.3861 C677.9701,207.3861 677.8704,207.2863 677.8704,207.1644 L677.8704,237.7809 C677.8704,237.9027 677.9701,238.0022 678.0917,238.0022 L810.9768,238.0022 C811.0987,238.0022 811.1982,237.9027 811.1982,237.7809 L811.1982,207.1644 C811.1982,207.2863 811.0987,207.3861 810.9768,207.3861 L820.0454,207.3861 C820.1673,207.3861 820.2671,207.2863 820.2671,207.1644 L820.2671,189.0272 C820.2671,188.9053 820.1673,188.8058 820.0454,188.8058 L810.9768,188.8058 C811.0987,188.8058 811.1982,188.9053 811.1982,189.0272 L811.1982,170.8900 C811.1982,171.0116 811.0987,171.1114 810.9768,171.1114 L820.0454,171.1114 C820.1673,171.1114 820.2671,171.0116 820.2671,170.8900 L820.2671,152.7525 C820.2671,152.6309 820.1673,152.5311 820.0454,152.5311 L810.9768,152.5311 C811.0987,152.5311 811.1982,152.6309 811.1982,152.7525 L811.1982,134.6153 C811.1982,134.7372 811.0987,134.8367 810.9768,134.8367 L820.0454,134.8367 C820.1673,134.8367 820.2671,134.7372 820.2671,134.6153 L820.2671,116.4781 C820.2671,116.3563 820.1673,116.2565 820.0454,116.2565 L810.9768,116.2565 C811.0987,116.2565 811.1982,116.3563 811.1982,116.4781 L811.1982,85.8617 C811.1982,85.7398 811.0987,85.6403 810.9768,85.6403"
       style="stroke-width: 0.7500; stroke: #000000; stroke-dasharray: none; stroke-linecap: butt; stroke-linejoin: miter; fill: none; "
       id="path4" />
    <path
       d="  M656.7245,84.7519 L626.1080,84.7519 C626.2299,84.7519 626.3297,84.8514 626.3297,84.9733 L626.3297,75.9047 C626.3297,75.7828 626.2299,75.6831 626.1080,75.6831 L607.9708,75.6831 C607.8489,75.6831 607.7494,75.7828 607.7494,75.9047 L607.7494,84.9733 C607.7494,84.8514 607.8489,84.7519 607.9708,84.7519 L589.8336,84.7519 C589.9552,84.7519 590.0550,84.8514 590.0550,84.9733 L590.0550,75.9047 C590.0550,75.7828 589.9552,75.6831 589.8336,75.6831 L571.6962,75.6831 C571.5746,75.6831 571.4748,75.7828 571.4748,75.9047 L571.4748,84.9733 C571.4748,84.8514 571.5746,84.7519 571.6962,84.7519 L553.5590,84.7519 C553.6809,84.7519 553.7803,84.8514 553.7803,84.9733 L553.7803,75.9047 C553.7803,75.7828 553.6809,75.6831 553.5590,75.6831 L535.4218,75.6831 C535.2999,75.6831 535.2001,75.7828 535.2001,75.9047 L535.2001,84.9733 C535.2001,84.8514 535.2999,84.7519 535.4218,84.7519 L504.8053,84.7519 L495.7367,84.7519 C495.6148,84.7519 495.5151,84.8514 495.5151,84.9733 L495.5151,115.5898 C495.5151,115.7114 495.6148,115.8111 495.7367,115.8111 L504.8053,115.8111 C504.6834,115.8111 504.5839,115.7114 504.5839,115.5898 L504.5839,133.7270 C504.5839,133.6051 504.6834,133.5056 504.8053,133.5056 L495.7367,133.5056 C495.6148,133.5056 495.5151,133.6051 495.5151,133.7270 L495.5151,151.8642 C495.5151,151.9860 495.6148,152.0858 495.7367,152.0858 L504.8053,152.0858 C504.6834,152.0858 504.5839,151.9860 504.5839,151.8642 L504.5839,170.0016 C504.5839,169.8797 504.6834,169.7800 504.8053,169.7800 L495.7367,169.7800 C495.6148,169.7800 495.5151,169.8797 495.5151,170.0016 L495.5151,188.1388 C495.5151,188.2607 495.6148,188.3602 495.7367,188.3602 L504.8053,188.3602 C504.6834,188.3602 504.5839,188.2607 504.5839,188.1388 L504.5839,206.2760 C504.5839,206.1544 504.6834,206.0546 504.8053,206.0546 L495.7367,206.0546 C495.6148,206.0546 495.5151,206.1544 495.5151,206.2760 L495.5151,236.8925 C495.5151,237.0144 495.6148,237.1139 495.7367,237.1139 L504.8053,237.1139 L656.7466,237.1139 L665.8152,237.1139 C665.9371,237.1139 666.0369,237.0144 666.0369,236.8925 L666.0369,206.2760 C666.0369,206.1544 665.9371,206.0546 665.8152,206.0546 L656.7466,206.0546 C656.8685,206.0546 656.9683,206.1544 656.9683,206.2760 L656.9683,188.1388 C656.9683,188.2607 656.8685,188.3602 656.7466,188.3602 L665.8152,188.3602 C665.9371,188.3602 666.0369,188.2607 666.0369,188.1388 L666.0369,170.0016 C666.0369,169.8797 665.9371,169.7800 665.8152,169.7800 L656.7466,169.7800 C656.8685,169.7800 656.9683,169.8797 656.9683,170.0016 L656.9683,151.8642 C656.9683,151.9860 656.8685,152.0858 656.7466,152.0858 L665.8152,152.0858 C665.9371,152.0858 666.0369,151.9860 666.0369,151.8642 L666.0369,133.7270 C666.0369,133.6051 665.9371,133.5056 665.8152,133.5056 L656.7466,133.5056 C656.8685,133.5056 656.9683,133.6051 656.9683,133.7270 L656.9683,115.5898 C656.9683,115.7114 656.8685,115.8111 656.7466,115.8111 L665.8152,115.8111 C665.9371,115.8111 666.0369,115.7114 666.0369,115.5898 L666.0369,84.9733 C666.0369,84.8514 665.9371,84.7519 665.8152,84.7519 L656.7466,84.7519"
       style="stroke-width: 0.7500; stroke: #000000; stroke-dasharray: none; stroke-linecap: butt; stroke-linejoin: miter; fill: none; "
       id="path5" />
    <path
       d="  M480.0472,84.5989 L449.4311,84.5989 C449.5527,84.5989 449.6525,84.6984 449.6525,84.8203 L449.6525,75.7517 C449.6525,75.6298 449.5527,75.5300 449.4311,75.5300 L431.2936,75.5300 C431.1720,75.5300 431.0722,75.6298 431.0722,75.7517 L431.0722,84.8203 C431.0722,84.6984 431.1720,84.5989 431.2936,84.5989 L413.1564,84.5989 C413.2783,84.5989 413.3778,84.6984 413.3778,84.8203 L413.3778,75.7517 C413.3778,75.6298 413.2783,75.5300 413.1564,75.5300 L395.0192,75.5300 C394.8973,75.5300 394.7975,75.6298 394.7975,75.7517 L394.7975,84.8203 C394.7975,84.6984 394.8973,84.5989 395.0192,84.5989 L376.8817,84.5989 C377.0036,84.5989 377.1034,84.6984 377.1034,84.8203 L377.1034,75.7517 C377.1034,75.6298 377.0036,75.5300 376.8817,75.5300 L358.7445,75.5300 C358.6226,75.5300 358.5231,75.6298 358.5231,75.7517 L358.5231,84.8203 C358.5231,84.6984 358.6226,84.5989 358.7445,84.5989 L328.1281,84.5989 C328.0065,84.5989 327.9067,84.6984 327.9067,84.8203 L327.9067,115.4367 C327.9067,115.3148 328.0065,115.2150 328.1281,115.2150 L319.0595,115.2150 C318.9376,115.2150 318.8381,115.3148 318.8381,115.4367 L318.8381,133.5739 C318.8381,133.6958 318.9376,133.7953 319.0595,133.7953 L328.1281,133.7953 C328.0065,133.7953 327.9067,133.6958 327.9067,133.5739 L327.9067,151.7111 C327.9067,151.5895 328.0065,151.4897 328.1281,151.4897 L319.0595,151.4897 C318.9376,151.4897 318.8381,151.5895 318.8381,151.7111 L318.8381,169.8486 C318.8381,169.9702 318.9376,170.0700 319.0595,170.0700 L328.1281,170.0700 C328.0065,170.0700 327.9067,169.9702 327.9067,169.8486 L327.9067,187.9858 C327.9067,187.8639 328.0065,187.7644 328.1281,187.7644 L319.0595,187.7644 C318.9376,187.7644 318.8381,187.8639 318.8381,187.9858 L318.8381,206.1230 C318.8381,206.2449 318.9376,206.3446 319.0595,206.3446 L328.1281,206.3446 C328.0065,206.3446 327.9067,206.2449 327.9067,206.1230 L327.9067,236.7394 C327.9067,236.8613 328.0065,236.9608 328.1281,236.9608 L480.0696,236.9608 C480.1912,236.9608 480.2910,236.8613 480.2910,236.7394 L480.2910,206.1230 C480.2910,206.2449 480.1912,206.3446 480.0696,206.3446 L489.1382,206.3446 C489.2598,206.3446 489.3596,206.2449 489.3596,206.1230 L489.3596,187.9858 C489.3596,187.8639 489.2598,187.7644 489.1382,187.7644 L480.0696,187.7644 C480.1912,187.7644 480.2910,187.8639 480.2910,187.9858 L480.2910,169.8486 C480.2910,169.9702 480.1912,170.0700 480.0696,170.0700 L489.1382,170.0700 C489.2598,170.0700 489.3596,169.9702 489.3596,169.8486 L489.3596,151.7111 C489.3596,151.5895 489.2598,151.4897 489.1382,151.4897 L480.0696,151.4897 C480.1912,151.4897 480.2910,151.5895 480.2910,151.7111 L480.2910,133.5739 C480.2910,133.6958 480.1912,133.7953 480.0696,133.7953 L489.1382,133.7953 C489.2598,133.7953 489.3596,133.6958 489.3596,133.5739 L489.3596,115.4367 C489.3596,115.3148 489.2598,115.2150 489.1382,115.2150 L480.0696,115.2150 C480.1912,115.2150 480.2910,115.3148 480.2910,115.4367 L480.2910,84.8203 C480.2910,84.6984 480.1912,84.5989 480.0696,84.5989"
       style="stroke-width: 0.7500; stroke: #000000; stroke-dasharray: none; stroke-linecap: butt; stroke-linejoin: miter; fill: none; "
       id="path6" />
    <path
       d="  M305.7942,84.5507 L275.1888,84.5507 C275.3107,84.5507 275.4102,84.6502 275.4102,84.7721 L275.4102,75.7035 C275.4102,75.5816 275.3107,75.4818 275.1888,75.4818 L257.0516,75.4818 C256.9297,75.4818 256.8300,75.5816 256.8300,75.7035 L256.8300,84.7721 C256.8300,84.6502 256.9297,84.5507 257.0516,84.5507 L238.9141,84.5507 C239.0360,84.5507 239.1355,84.6502 239.1355,84.7721 L239.1355,75.7035 C239.1355,75.5816 239.0360,75.4818 238.9141,75.4818 L220.7769,75.4818 C220.6551,75.4818 220.5556,75.5816 220.5556,75.7035 L220.5556,84.7721 C220.5556,84.6502 220.6551,84.5507 220.7769,84.5507 L202.6397,84.5507 C202.7614,84.5507 202.8611,84.6502 202.8611,84.7721 L202.8611,75.7035 C202.8611,75.5816 202.7614,75.4818 202.6397,75.4818 L184.5023,75.4818 C184.3804,75.4818 184.2809,75.5816 184.2809,75.7035 L184.2809,84.7721 C184.2809,84.6502 184.3804,84.5507 184.5023,84.5507 L153.8858,84.5507 L144.8172,84.5507 C144.6956,84.5507 144.5958,84.6502 144.5958,84.7721 L144.5958,115.3885 C144.5958,115.5101 144.6956,115.6099 144.8172,115.6099 L153.8858,115.6099 C153.7642,115.6099 153.6644,115.5101 153.6644,115.3885 L153.6644,133.5257 C153.6644,133.4038 153.7642,133.3043 153.8858,133.3043 L144.8172,133.3043 C144.6956,133.3043 144.5958,133.4038 144.5958,133.5257 L144.5958,151.6629 C144.5958,151.7848 144.6956,151.8846 144.8172,151.8846 L153.8858,151.8846 C153.7642,151.8846 153.6644,151.7848 153.6644,151.6629 L153.6644,169.8004 C153.6644,169.6785 153.7642,169.5787 153.8858,169.5787 L144.8172,169.5787 C144.6956,169.5787 144.5958,169.6785 144.5958,169.8004 L144.5958,187.9376 C144.5958,188.0595 144.6956,188.1590 144.8172,188.1590 L153.8858,188.1590 C153.7642,188.1590 153.6644,188.0595 153.6644,187.9376 L153.6644,206.0748 C153.6644,205.9532 153.7642,205.8534 153.8858,205.8534 L144.8172,205.8534 C144.6956,205.8534 144.5958,205.9532 144.5958,206.0748 L144.5958,236.6912 C144.5958,236.8131 144.6956,236.9126 144.8172,236.9126 L153.8858,236.9126 L305.8274,236.9126 L314.8960,236.9126 C315.0179,236.9126 315.1174,236.8131 315.1174,236.6912 L315.1174,206.0748 C315.1174,205.9532 315.0179,205.8534 314.8960,205.8534 L305.8274,205.8534 C305.9490,205.8534 306.0488,205.9532 306.0488,206.0748 L306.0488,187.9376 C306.0488,188.0595 305.9490,188.1590 305.8274,188.1590 L314.8960,188.1590 C315.0179,188.1590 315.1174,188.0595 315.1174,187.9376 L315.1174,169.8004 C315.1174,169.6785 315.0179,169.5787 314.8960,169.5787 L305.8274,169.5787 C305.9490,169.5787 306.0488,169.6785 306.0488,169.8004 L306.0488,151.6629 C306.0488,151.7848 305.9490,151.8846 305.8274,151.8846 L314.8960,151.8846 C315.0179,151.8846 315.1174,151.7848 315.1174,151.6629 L315.1174,133.5257 C315.1174,133.4038 315.0179,133.3043 314.8960,133.3043 L305.8274,133.3043 C305.9490,133.3043 306.0488,133.4038 306.0488,133.5257 L306.0488,115.3885 C306.0488,115.5101 305.9490,115.6099 305.8274,115.6099 L314.8960,115.6099 C315.0179,115.6099 315.1174,115.5101 315.1174,115.3885 L315.1174,84.7721 C315.1174,84.6502 315.0179,84.5507 314.8960,84.5507 L305.8274,84.5507"
       style="stroke-width: 0.7500; stroke: #000000; stroke-dasharray: none; stroke-linecap: butt; stroke-linejoin: miter; fill: none; "
       id="path7" />
    <path
       d="  M625.4008,254.2720 L594.7846,254.2720 C594.9062,254.2720 595.0060,254.3717 595.0060,254.4936 L595.0060,245.4248 C595.0060,245.3031 594.9062,245.2034 594.7846,245.2034 L576.6471,245.2034 C576.5253,245.2034 576.4258,245.3031 576.4258,245.4248 L576.4258,254.4936 C576.4258,254.3717 576.5253,254.2720 576.6471,254.2720 L558.5100,254.2720 C558.6318,254.2720 558.7313,254.3717 558.7313,254.4936 L558.7313,245.4248 C558.7313,245.3031 558.6318,245.2034 558.5100,245.2034 L540.3725,245.2034 C540.2509,245.2034 540.1511,245.3031 540.1511,245.4248 L540.1511,254.4936 C540.1511,254.3717 540.2509,254.2720 540.3725,254.2720 L522.2353,254.2720 C522.3572,254.2720 522.4567,254.3717 522.4567,254.4936 L522.4567,245.4248 C522.4567,245.3031 522.3572,245.2034 522.2353,245.2034 L504.0981,245.2034 C503.9762,245.2034 503.8767,245.3031 503.8767,245.4248 L503.8767,254.4936 C503.8767,254.3717 503.9762,254.2720 504.0981,254.2720 L473.4816,254.2720 C473.3597,254.2720 473.2603,254.3717 473.2603,254.4936 L473.2603,285.1098 C473.2603,284.9882 473.3597,284.8884 473.4816,284.8884 L464.4130,284.8884 C464.2911,284.8884 464.1917,284.9882 464.1917,285.1098 L464.1917,303.2473 C464.1917,303.3692 464.2911,303.4687 464.4130,303.4687 L473.4816,303.4687 C473.3597,303.4687 473.2603,303.3692 473.2603,303.2473 L473.2603,321.3845 C473.2603,321.2626 473.3597,321.1631 473.4816,321.1631 L464.4130,321.1631 C464.2911,321.1631 464.1917,321.2626 464.1917,321.3845 L464.1917,339.5220 C464.1917,339.6436 464.2911,339.7433 464.4130,339.7433 L473.4816,339.7433 C473.3597,339.7433 473.2603,339.6436 473.2603,339.5220 L473.2603,357.6591 C473.2603,357.5373 473.3597,357.4378 473.4816,357.4378 L464.4130,357.4378 C464.2911,357.4378 464.1917,357.5373 464.1917,357.6591 L464.1917,375.7963 C464.1917,375.9182 464.2911,376.0177 464.4130,376.0177 L473.4816,376.0177 C473.3597,376.0177 473.2603,375.9182 473.2603,375.7963 L473.2603,406.4128 C473.2603,406.5347 473.3597,406.6342 473.4816,406.6342 L625.4229,406.6342 C625.5448,406.6342 625.6446,406.5347 625.6446,406.4128 L625.6446,375.7963 C625.6446,375.9182 625.5448,376.0177 625.4229,376.0177 L634.4918,376.0177 C634.6134,376.0177 634.7132,375.9182 634.7132,375.7963 L634.7132,357.6591 C634.7132,357.5373 634.6134,357.4378 634.4918,357.4378 L625.4229,357.4378 C625.5448,357.4378 625.6446,357.5373 625.6446,357.6591 L625.6446,339.5220 C625.6446,339.6436 625.5448,339.7433 625.4229,339.7433 L634.4918,339.7433 C634.6134,339.7433 634.7132,339.6436 634.7132,339.5220 L634.7132,321.3845 C634.7132,321.2626 634.6134,321.1631 634.4918,321.1631 L625.4229,321.1631 C625.5448,321.1631 625.6446,321.2626 625.6446,321.3845 L625.6446,303.2473 C625.6446,303.3692 625.5448,303.4687 625.4229,303.4687 L634.4918,303.4687 C634.6134,303.4687 634.7132,303.3692 634.7132,303.2473 L634.7132,285.1098 C634.7132,284.9882 634.6134,284.8884 634.4918,284.8884 L625.4229,284.8884 C625.5448,284.8884 625.6446,284.9882 625.6446,285.1098 L625.6446,254.4936 C625.6446,254.3717 625.5448,254.2720 625.4229,254.2720"
       style="stroke-width: 0.7500; stroke: #000000; stroke-dasharray: none; stroke-linecap: butt; stroke-linejoin: miter; fill: none; "
       id="path8" />
    <path
       d="  M802.5279,246.0155 L771.9114,246.0155 C771.7898,246.0155 771.6900,246.1153 771.6900,246.2372 L771.6900,255.3058 C771.6900,255.1839 771.7898,255.0844 771.9114,255.0844 L753.7742,255.0844 C753.8961,255.0844 753.9956,255.1839 753.9956,255.3058 L753.9956,246.2372 C753.9956,246.1153 753.8961,246.0155 753.7742,246.0155 L735.6370,246.0155 C735.5151,246.0155 735.4157,246.1153 735.4157,246.2372 L735.4157,255.3058 C735.4157,255.1839 735.5151,255.0844 735.6370,255.0844 L717.4996,255.0844 C717.6214,255.0844 717.7212,255.1839 717.7212,255.3058 L717.7212,246.2372 C717.7212,246.1153 717.6214,246.0155 717.4996,246.0155 L699.3624,246.0155 C699.2405,246.0155 699.1410,246.1153 699.1410,246.2372 L699.1410,255.3058 C699.1410,255.1839 699.2405,255.0844 699.3624,255.0844 L681.2252,255.0844 C681.3468,255.0844 681.4466,255.1839 681.4466,255.3058 L681.4466,246.2372 C681.4466,246.1153 681.3468,246.0155 681.2252,246.0155 L650.6087,246.0155 L641.5401,246.0155 C641.4182,246.0155 641.3185,246.1153 641.3185,246.2372 L641.3185,255.3058 L641.3185,285.9222 C641.3185,286.0438 641.4182,286.1436 641.5401,286.1436 L650.6087,286.1436 C650.4868,286.1436 650.3873,286.0438 650.3873,285.9222 L650.3873,304.0594 C650.3873,303.9375 650.4868,303.8380 650.6087,303.8380 L641.5401,303.8380 C641.4182,303.8380 641.3185,303.9375 641.3185,304.0594 L641.3185,322.1966 C641.3185,322.3185 641.4182,322.4183 641.5401,322.4183 L650.6087,322.4183 C650.4868,322.4183 650.3873,322.3185 650.3873,322.1966 L650.3873,340.3341 C650.3873,340.2122 650.4868,340.1124 650.6087,340.1124 L641.5401,340.1124 C641.4182,340.1124 641.3185,340.2122 641.3185,340.3341 L641.3185,358.4713 C641.3185,358.5932 641.4182,358.6927 641.5401,358.6927 L650.6087,358.6927 C650.4868,358.6927 650.3873,358.5932 650.3873,358.4713 L650.3873,376.6085 C650.3873,376.4869 650.4868,376.3871 650.6087,376.3871 L641.5401,376.3871 C641.4182,376.3871 641.3185,376.4869 641.3185,376.6085 L641.3185,407.2249 L641.3185,416.2935 C641.3185,416.4154 641.4182,416.5152 641.5401,416.5152 L650.6087,416.5152 L681.2252,416.5152 C681.3468,416.5152 681.4466,416.4154 681.4466,416.2935 L681.4466,407.2249 C681.4466,407.3468 681.3468,407.4463 681.2252,407.4463 L699.3624,407.4463 C699.2405,407.4463 699.1410,407.3468 699.1410,407.2249 L699.1410,416.2935 C699.1410,416.4154 699.2405,416.5152 699.3624,416.5152 L717.4996,416.5152 C717.6214,416.5152 717.7212,416.4154 717.7212,416.2935 L717.7212,407.2249 C717.7212,407.3468 717.6214,407.4463 717.4996,407.4463 L735.6370,407.4463 C735.5151,407.4463 735.4157,407.3468 735.4157,407.2249 L735.4157,416.2935 C735.4157,416.4154 735.5151,416.5152 735.6370,416.5152 L753.7742,416.5152 C753.8961,416.5152 753.9956,416.4154 753.9956,416.2935 L753.9956,407.2249 C753.9956,407.3468 753.8961,407.4463 753.7742,407.4463 L771.9114,407.4463 C771.7898,407.4463 771.6900,407.3468 771.6900,407.2249 L771.6900,416.2935 C771.6900,416.4154 771.7898,416.5152 771.9114,416.5152 L802.5279,416.5152 L811.5965,416.5152 C811.7184,416.5152 811.8181,416.4154 811.8181,416.2935 L811.8181,407.2249 L811.8181,376.6085 C811.8181,376.4869 811.7184,376.3871 811.5965,376.3871 L802.5279,376.3871 C802.6498,376.3871 802.7493,376.4869 802.7493,376.6085 L802.7493,358.4713 C802.7493,358.5932 802.6498,358.6927 802.5279,358.6927 L811.5965,358.6927 C811.7184,358.6927 811.8181,358.5932 811.8181,358.4713 L811.8181,340.3341 C811.8181,340.2122 811.7184,340.1124 811.5965,340.1124 L802.5279,340.1124 C802.6498,340.1124 802.7493,340.2122 802.7493,340.3341 L802.7493,322.1966 C802.7493,322.3185 802.6498,322.4183 802.5279,322.4183 L811.5965,322.4183 C811.7184,322.4183 811.8181,322.3185 811.8181,322.1966 L811.8181,304.0594 C811.8181,303.9375 811.7184,303.8380 811.5965,303.8380 L802.5279,303.8380 C802.6498,303.8380 802.7493,303.9375 802.7493,304.0594 L802.7493,285.9222 C802.7493,286.0438 802.6498,286.1436 802.5279,286.1436 L811.5965,286.1436 C811.7184,286.1436 811.8181,286.0438 811.8181,285.9222 L811.8181,255.3058 L811.8181,246.2372 C811.8181,246.1153 811.7184,246.0155 811.5965,246.0155 L802.5279,246.0155 Z"
       style="stroke-width: 0.7500; stroke: #000000; stroke-dasharray: none; stroke-linecap: butt; stroke-linejoin: miter; fill: none; "
       id="path9" />
    <path
       d="  M263.2802,123.1095 L269.0269,130.7721 L269.0274,145.2455 L269.0283,159.7192 L263.2853,165.4665 L257.5423,171.2134 L248.7441,171.2134 L239.9457,171.2134 L239.9261,178.9727 L239.9063,186.7323 L228.5167,186.7518 L217.1271,186.7714 L217.1276,174.2905 L217.1282,161.8095 L220.9476,157.9975 L224.7670,154.1854 L234.5221,154.1854 L244.2770,154.1854 L244.2574,143.2913 L244.2379,132.3975 L228.7681,132.3754 C220.2596,132.3635 213.1852,132.3737 213.0469,132.3984 L212.7954,132.4431 L212.7954,142.1147 L212.7954,151.7862 L201.3866,151.7862 L189.9777,151.7862 L189.9777,139.3404 L189.9777,126.8949 L194.7538,121.1536 L199.5301,115.4123 L228.5320,115.4296 L257.5335,115.4469 L263.2802,123.1095 Z"
       style="stroke-width: 0.7498; stroke: #00a0ff; stroke-dasharray: none; stroke-linecap: butt; stroke-linejoin: miter; fill: none; "
       id="path10" />
    <path
       d="  M239.9451,199.5806 L239.9451,206.1210 L228.5359,206.1210 L217.1271,206.1210 L217.1271,199.5806 L217.1271,193.0402 L228.5359,193.0402 L239.9451,193.0402 L239.9451,199.5806 Z"
       style="stroke-width: 0.7498; stroke: #00a0ff; stroke-dasharray: none; stroke-linecap: butt; stroke-linejoin: miter; fill: none; "
       id="path11" />
    <path
       d="  M299.0012,96.9990 A5.6693,5.6693 0.0000 0,0 293.3319,91.3297 A5.6693,5.6693 0.0000 1,0 299.0012,96.9990 Z"
       style="stroke-width: 0.7500; stroke: #00a0ff; stroke-dasharray: none; stroke-linecap: butt; stroke-linejoin: miter; fill: none; "
       id="path12" />
    <path
       d="  M299.0097,224.4787 A5.6693,5.6693 0.0000 0,0 293.3404,218.8094 A5.6693,5.6693 0.0000 1,0 299.0097,224.4787 Z"
       style="stroke-width: 0.7500; stroke: #00a0ff; stroke-dasharray: none; stroke-linecap: butt; stroke-linejoin: miter; fill: none; "
       id="path13" />
    <path
       d="  M171.4733,96.9877 A5.6693,5.6693 0.0000 0,0 165.8041,91.3184 A5.6693,5.6693 0.0000 1,0 171.4733,96.9877 Z"
       style="stroke-width: 0.7500; stroke: #00a0ff; stroke-dasharray: none; stroke-linecap: butt; stroke-linejoin: miter; fill: none; "
       id="path14" />
    <path
       d="  M171.3883,224.5382 A5.6693,5.6693 0.0000 0,0 165.7190,218.8689 A5.6693,5.6693 0.0000 1,0 171.3883,224.5382 Z"
       style="stroke-width: 0.7500; stroke: #00a0ff; stroke-dasharray: none; stroke-linecap: butt; stroke-linejoin: miter; fill: none; "
       id="path15" />
    <path
       d="  M437.8484,123.1605 L443.5951,130.8231 L443.5957,145.2966 L443.5963,159.7703 L437.8535,165.5175 L432.1106,171.2645 L423.3121,171.2645 L414.5139,171.2645 L414.4941,179.0240 L414.4745,186.7833 L403.0849,186.8029 L391.6953,186.8224 L391.6959,174.3415 L391.6964,161.8605 L395.5158,158.0485 L399.3352,154.2365 L409.0904,154.2365 L418.8453,154.2365 L418.8257,143.3426 L418.8061,132.4485 L403.3363,132.4267 C394.8279,132.4145 387.7534,132.4247 387.6151,132.4494 L387.3637,132.4942 L387.3637,142.1657 L387.3637,151.8372 L375.9548,151.8372 L364.5456,151.8372 L364.5456,139.3914 L364.5456,126.9459 L369.3220,121.2046 L374.0984,115.4633 L403.0999,115.4806 L432.1018,115.4979 L437.8484,123.1605 Z"
       style="stroke-width: 0.7498; stroke: #00a0ff; stroke-dasharray: none; stroke-linecap: butt; stroke-linejoin: miter; fill: none; "
       id="path16" />
    <path
       d="  M414.5131,199.6316 L414.5131,206.1720 L403.1042,206.1720 L391.6953,206.1720 L391.6953,199.6316 L391.6953,193.0912 L403.1042,193.0912 L414.5131,193.0912 L414.5131,199.6316 Z"
       style="stroke-width: 0.7498; stroke: #00a0ff; stroke-dasharray: none; stroke-linecap: butt; stroke-linejoin: miter; fill: none; "
       id="path17" />
    <path
       d="  M473.5700,97.0501 A5.6693,5.6693 0.0000 0,0 467.9007,91.3808 A5.6693,5.6693 0.0000 1,0 473.5700,97.0501 Z"
       style="stroke-width: 0.7500; stroke: #00a0ff; stroke-dasharray: none; stroke-linecap: butt; stroke-linejoin: miter; fill: none; "
       id="path18" />
    <path
       d="  M473.5785,224.5298 A5.6693,5.6693 0.0000 0,0 467.9092,218.8605 A5.6693,5.6693 0.0000 1,0 473.5785,224.5298 Z"
       style="stroke-width: 0.7500; stroke: #00a0ff; stroke-dasharray: none; stroke-linecap: butt; stroke-linejoin: miter; fill: none; "
       id="path19" />
    <path
       d="  M346.0421,97.0387 A5.6693,5.6693 0.0000 0,0 340.3728,91.3695 A5.6693,5.6693 0.0000 1,0 346.0421,97.0387 Z"
       style="stroke-width: 0.7500; stroke: #00a0ff; stroke-dasharray: none; stroke-linecap: butt; stroke-linejoin: miter; fill: none; "
       id="path20" />
    <path
       d="  M345.9571,224.5893 A5.6693,5.6693 0.0000 0,0 340.2878,218.9200 A5.6693,5.6693 0.0000 1,0 345.9571,224.5893 Z"
       style="stroke-width: 0.7500; stroke: #00a0ff; stroke-dasharray: none; stroke-linecap: butt; stroke-linejoin: miter; fill: none; "
       id="path21" />
    <path
       d="  M614.5260,122.9848 L620.2723,130.6474 L620.2732,145.1208 L620.2738,159.5945 L614.5308,165.3418 L608.7878,171.0887 L599.9896,171.0887 L591.1914,171.0887 L591.1716,178.8480 L591.1520,186.6076 L579.7624,186.6271 L568.3725,186.6467 L568.3734,174.1657 L568.3740,161.6848 L572.1934,157.8728 L576.0128,154.0607 L585.7676,154.0607 L595.5228,154.0607 L595.5032,143.1666 L595.4834,132.2728 L580.0136,132.2507 C571.5054,132.2388 564.4307,132.2490 564.2926,132.2736 L564.0412,132.3184 L564.0412,141.9900 L564.0412,151.6615 L552.6320,151.6615 L541.2231,151.6615 L541.2231,139.2157 L541.2231,126.7702 L545.9995,121.0289 L550.7759,115.2876 L579.7774,115.3049 L608.7793,115.3222 L614.5260,122.9848 Z"
       style="stroke-width: 0.7498; stroke: #00a0ff; stroke-dasharray: none; stroke-linecap: butt; stroke-linejoin: miter; fill: none; "
       id="path22" />
    <path
       d="  M591.1906,199.4559 L591.1906,205.9963 L579.7817,205.9963 L568.3725,205.9963 L568.3725,199.4559 L568.3725,192.9155 L579.7817,192.9155 L591.1906,192.9155 L591.1906,199.4559 Z"
       style="stroke-width: 0.7498; stroke: #00a0ff; stroke-dasharray: none; stroke-linecap: butt; stroke-linejoin: miter; fill: none; "
       id="path23" />
    <path
       d="  M650.2477,96.8744 A5.6693,5.6693 0.0000 0,0 644.5784,91.2051 A5.6693,5.6693 0.0000 1,0 650.2477,96.8744 Z"
       style="stroke-width: 0.7500; stroke: #00a0ff; stroke-dasharray: none; stroke-linecap: butt; stroke-linejoin: miter; fill: none; "
       id="path24" />
    <path
       d="  M650.2562,224.3540 A5.6693,5.6693 0.0000 0,0 644.5869,218.6847 A5.6693,5.6693 0.0000 1,0 650.2562,224.3540 Z"
       style="stroke-width: 0.7500; stroke: #00a0ff; stroke-dasharray: none; stroke-linecap: butt; stroke-linejoin: miter; fill: none; "
       id="path25" />
    <path
       d="  M522.7198,96.8630 A5.6693,5.6693 0.0000 0,0 517.0505,91.1938 A5.6693,5.6693 0.0000 1,0 522.7198,96.8630 Z"
       style="stroke-width: 0.7500; stroke: #00a0ff; stroke-dasharray: none; stroke-linecap: butt; stroke-linejoin: miter; fill: none; "
       id="path26" />
    <path
       d="  M522.6348,224.4135 A5.6693,5.6693 0.0000 0,0 516.9655,218.7442 A5.6693,5.6693 0.0000 1,0 522.6348,224.4135 Z"
       style="stroke-width: 0.7500; stroke: #00a0ff; stroke-dasharray: none; stroke-linecap: butt; stroke-linejoin: miter; fill: none; "
       id="path27" />
    <path
       d="  M583.2037,292.8308 L588.9501,300.4934 L588.9509,314.9671 L588.9515,329.4408 L583.2085,335.1878 L577.4655,340.9350 L568.6673,340.9350 L559.8692,340.9350 L559.8493,348.6943 L559.8298,356.4536 L548.4402,356.4734 L537.0506,356.4930 L537.0511,344.0120 L537.0517,331.5308 L540.8711,327.7191 L544.6905,323.9070 L554.4454,323.9070 L564.2005,323.9070 L564.1809,313.0129 L564.1611,302.1188 L548.6913,302.0970 C540.1831,302.0851 533.1084,302.0953 532.9704,302.1199 L532.7189,302.1647 L532.7189,311.8363 L532.7189,321.5075 L521.3100,321.5075 L509.9009,321.5075 L509.9009,309.0620 L509.9009,296.6165 L514.6773,290.8752 L519.4536,285.1336 L548.4552,285.1509 L577.4570,285.1682 L583.2037,292.8308 Z"
       style="stroke-width: 0.7498; stroke: #00a0ff; stroke-dasharray: none; stroke-linecap: butt; stroke-linejoin: miter; fill: none; "
       id="path28" />
    <path
       d="  M559.8683,369.3022 L559.8683,375.8423 L548.4594,375.8423 L537.0506,375.8423 L537.0506,369.3022 L537.0506,362.7618 L548.4594,362.7618 L559.8683,362.7618 L559.8683,369.3022 Z"
       style="stroke-width: 0.7498; stroke: #00a0ff; stroke-dasharray: none; stroke-linecap: butt; stroke-linejoin: miter; fill: none; "
       id="path29" />
    <path
       d="  M618.9249,266.7206 A5.6693,5.6693 0.0000 0,0 613.2556,261.0513 A5.6693,5.6693 0.0000 1,0 618.9249,266.7206 Z"
       style="stroke-width: 0.7500; stroke: #00a0ff; stroke-dasharray: none; stroke-linecap: butt; stroke-linejoin: miter; fill: none; "
       id="path30" />
    <path
       d="  M618.9333,394.2002 A5.6693,5.6693 0.0000 0,0 613.2640,388.5309 A5.6693,5.6693 0.0000 1,0 618.9333,394.2002 Z"
       style="stroke-width: 0.7500; stroke: #00a0ff; stroke-dasharray: none; stroke-linecap: butt; stroke-linejoin: miter; fill: none; "
       id="path31" />
    <path
       d="  M491.3970,266.7092 A5.6693,5.6693 0.0000 0,0 485.7277,261.0399 A5.6693,5.6693 0.0000 1,0 491.3970,266.7092 Z"
       style="stroke-width: 0.7500; stroke: #00a0ff; stroke-dasharray: none; stroke-linecap: butt; stroke-linejoin: miter; fill: none; "
       id="path32" />
    <path
       d="  M491.3120,394.2598 A5.6693,5.6693 0.0000 0,0 485.6427,388.5905 A5.6693,5.6693 0.0000 1,0 491.3120,394.2598 Z"
       style="stroke-width: 0.7500; stroke: #00a0ff; stroke-dasharray: none; stroke-linecap: butt; stroke-linejoin: miter; fill: none; "
       id="path33" />
    <path
       d="  M760.3458,293.6075 L766.0925,301.2701 L766.0933,315.7438 L766.0939,330.2175 L760.3509,335.9645 L754.6079,341.7117 L745.8097,341.7117 L737.0116,341.7117 L736.9917,349.4710 L736.9722,357.2303 L725.5823,357.2498 L714.1927,357.2697 L714.1935,344.7884 L714.1941,332.3075 L718.0135,328.4957 L721.8329,324.6837 L731.5877,324.6837 L741.3429,324.6837 L741.3231,313.7896 L741.3035,302.8955 L725.8337,302.8737 C717.3255,302.8618 710.2508,302.8720 710.1125,302.8966 L709.8613,302.9414 L709.8613,312.6127 L709.8613,322.2842 L698.4522,322.2842 L687.0433,322.2842 L687.0433,309.8387 L687.0433,297.3932 L691.8197,291.6516 L696.5957,285.9103 L725.5976,285.9276 L754.5994,285.9449 L760.3458,293.6075 Z"
       style="stroke-width: 0.7498; stroke: #00a0ff; stroke-dasharray: none; stroke-linecap: butt; stroke-linejoin: miter; fill: none; "
       id="path34" />
    <path
       d="  M737.0107,370.0789 L737.0107,376.6190 L725.6018,376.6190 L714.1927,376.6190 L714.1927,370.0789 L714.1927,363.5385 L725.6018,363.5385 L737.0107,363.5385 L737.0107,370.0789 Z"
       style="stroke-width: 0.7498; stroke: #00a0ff; stroke-dasharray: none; stroke-linecap: butt; stroke-linejoin: miter; fill: none; "
       id="path35" />
    <path
       d="  M796.0675,267.4973 A5.6693,5.6693 0.0000 0,0 790.3982,261.8280 A5.6693,5.6693 0.0000 1,0 796.0675,267.4973 Z"
       style="stroke-width: 0.7500; stroke: #00a0ff; stroke-dasharray: none; stroke-linecap: butt; stroke-linejoin: miter; fill: none; "
       id="path36" />
    <path
       d="  M796.0759,394.9769 A5.6693,5.6693 0.0000 0,0 790.4067,389.3076 A5.6693,5.6693 0.0000 1,0 796.0759,394.9769 Z"
       style="stroke-width: 0.7500; stroke: #00a0ff; stroke-dasharray: none; stroke-linecap: butt; stroke-linejoin: miter; fill: none; "
       id="path37" />
    <path
       d="  M668.5396,267.4859 A5.6693,5.6693 0.0000 0,0 662.8703,261.8166 A5.6693,5.6693 0.0000 1,0 668.5396,267.4859 Z"
       style="stroke-width: 0.7500; stroke: #00a0ff; stroke-dasharray: none; stroke-linecap: butt; stroke-linejoin: miter; fill: none; "
       id="path38" />
    <path
       d="  M668.4546,395.0364 A5.6693,5.6693 0.0000 0,0 662.7853,389.3671 A5.6693,5.6693 0.0000 1,0 668.4546,395.0364 Z"
       style="stroke-width: 0.7500; stroke: #00a0ff; stroke-dasharray: none; stroke-linecap: butt; stroke-linejoin: miter; fill: none; "
       id="path39" />
    <path
       d="  M954.7798,85.7835 L954.7909,85.7945 C954.6579,85.7945 954.5584,85.6947 954.5584,85.5618 L954.5584,94.6307 C954.5584,94.5088 954.6579,94.4090 954.7798,94.4090 L936.6426,94.4090 C936.7642,94.4090 936.8640,94.5088 936.8640,94.6307 L936.8640,85.5618 C936.8640,85.6837 936.7642,85.7835 936.6426,85.7835 L954.7798,85.7835 Z"
       style="stroke-width: 0.7500; stroke: #000000; stroke-dasharray: none; stroke-linecap: butt; stroke-linejoin: miter; fill: none; "
       id="path40" />
    <path
       d="  M918.4941,85.7835 L918.5051,85.7945 C918.3832,85.7945 918.2727,85.6947 918.2727,85.5618 L918.2727,94.6307 C918.2727,94.5088 918.3722,94.4090 918.4941,94.4090 L900.3569,94.4090 C900.4785,94.4090 900.5783,94.5088 900.5783,94.6307 L900.5783,85.5618 C900.5783,85.6837 900.4785,85.7835 900.3569,85.7835 L918.4941,85.7835 Z"
       style="stroke-width: 0.7500; stroke: #000000; stroke-dasharray: none; stroke-linecap: butt; stroke-linejoin: miter; fill: none; "
       id="path41" />
    <path
       d="  M882.2194,85.7835 L882.2194,85.7945 C882.0975,85.7945 881.9980,85.6947 881.9980,85.5618 L881.9980,94.6307 C881.9980,94.5088 882.0975,94.4090 882.2194,94.4090 L864.0822,94.4090 C864.2038,94.4090 864.3036,94.5088 864.3036,94.6307 L864.3036,85.5618 C864.3036,85.6837 864.2038,85.7835 864.0822,85.7835 L882.2194,85.7835 Z"
       style="stroke-width: 0.7500; stroke: #000000; stroke-dasharray: none; stroke-linecap: butt; stroke-linejoin: miter; fill: none; "
       id="path42" />
    <path
       d="  M975.8733,75.8177 L842.9882,75.8177 L824.3969,75.8177 C824.2753,75.8177 824.1755,75.9175 824.1755,76.0394 L824.1755,94.6307"
       style="stroke-width: 0.7500; stroke: #000000; stroke-dasharray: none; stroke-linecap: butt; stroke-linejoin: miter; fill: none; "
       id="path43" />
    <path
       d="  M834.1523,115.7244 C834.1523,115.8460 834.0528,115.9458 833.9309,115.9458 L842.9995,115.9458 C842.8776,115.9458 842.7781,115.8460 842.7781,115.7244 L842.7781,133.8616 C842.7781,133.7397 842.8776,133.6402 842.9995,133.6402 L833.9309,133.6402 C834.0528,133.6402 834.1523,133.7397 834.1523,133.8616 L834.1523,115.7244 Z"
       style="stroke-width: 0.7500; stroke: #000000; stroke-dasharray: none; stroke-linecap: butt; stroke-linejoin: miter; fill: none; "
       id="path44" />
    <path
       d="  M834.1523,152.0101 L834.1523,151.9988 C834.1523,152.1317 834.0528,152.2315 833.9309,152.2315 L842.9995,152.2315 C842.8776,152.2315 842.7781,152.1317 842.7781,152.0101 L842.7781,170.1473 C842.7781,170.0254 842.8776,169.9260 842.9995,169.9260 L833.9309,169.9260 C834.0528,169.9260 834.1523,170.0254 834.1523,170.1473 L834.1523,152.0101 Z"
       style="stroke-width: 0.7500; stroke: #000000; stroke-dasharray: none; stroke-linecap: butt; stroke-linejoin: miter; fill: none; "
       id="path45" />
    <path
       d="  M834.1523,188.2953 L834.1523,188.2843 C834.1523,188.4172 834.0528,188.5170 833.9309,188.5170 L842.9995,188.5170 C842.8776,188.5170 842.7781,188.4172 842.7781,188.2953 L842.7781,206.4328 C842.7781,206.3109 842.8776,206.2114 842.9995,206.2114 L833.9309,206.2114 C834.0528,206.2114 834.1523,206.3109 834.1523,206.4328 L834.1523,188.2953 Z"
       style="stroke-width: 0.7500; stroke: #000000; stroke-dasharray: none; stroke-linecap: butt; stroke-linejoin: miter; fill: none; "
       id="path46" />
    <path
       d="  M824.1758,94.6304 L824.1758,227.5155 L824.1758,246.1068 C824.1758,246.2287 824.2756,246.3282 824.3972,246.3282 L842.9885,246.3282"
       style="stroke-width: 0.7500; stroke: #000000; stroke-dasharray: none; stroke-linecap: butt; stroke-linejoin: miter; fill: none; "
       id="path47" />
    <path
       d="  M864.0822,236.3516 C864.2041,236.3516 864.3036,236.4514 864.3036,236.5733 L864.3036,227.5044 C864.3036,227.6263 864.2041,227.7261 864.0822,227.7261 L882.2194,227.7261 C882.0978,227.7261 881.9980,227.6263 881.9980,227.5044 L881.9980,236.5733 C881.9980,236.4514 882.0978,236.3516 882.2194,236.3516 L864.0822,236.3516 Z"
       style="stroke-width: 0.7500; stroke: #000000; stroke-dasharray: none; stroke-linecap: butt; stroke-linejoin: miter; fill: none; "
       id="path48" />
    <path
       d="  M900.3677,236.3516 L900.3566,236.3516 C900.4895,236.3516 900.5890,236.4514 900.5890,236.5733 L900.5890,227.5044 C900.5890,227.6263 900.4895,227.7261 900.3677,227.7261 L918.5049,227.7261 C918.3832,227.7261 918.2835,227.6263 918.2835,227.5044 L918.2835,236.5733 C918.2835,236.4514 918.3832,236.3516 918.5049,236.3516 L900.3677,236.3516 Z"
       style="stroke-width: 0.7500; stroke: #000000; stroke-dasharray: none; stroke-linecap: butt; stroke-linejoin: miter; fill: none; "
       id="path49" />
    <path
       d="  M936.6534,236.3516 L936.6423,236.3516 C936.7753,236.3516 936.8748,236.4514 936.8748,236.5733 L936.8748,227.5044 C936.8748,227.6263 936.7753,227.7261 936.6534,227.7261 L954.7906,227.7261 C954.6690,227.7261 954.5692,227.6263 954.5692,227.5044 L954.5692,236.5733 C954.5692,236.4514 954.6690,236.3516 954.7906,236.3516 L936.6534,236.3516 Z"
       style="stroke-width: 0.7500; stroke: #000000; stroke-dasharray: none; stroke-linecap: butt; stroke-linejoin: miter; fill: none; "
       id="path50" />
    <path
       d="  M842.9885,246.3284 L975.8735,246.3284 L994.4649,246.3284 C994.5865,246.3284 994.6862,246.2287 994.6862,246.1068 L994.6862,227.5155"
       style="stroke-width: 0.7500; stroke: #000000; stroke-dasharray: none; stroke-linecap: butt; stroke-linejoin: miter; fill: none; "
       id="path51" />
    <path
       d="  M984.7094,206.4217 C984.7094,206.3001 984.8089,206.2003 984.9308,206.2003 L975.8622,206.2003 C975.9841,206.2003 976.0836,206.3001 976.0836,206.4217 L976.0836,188.2845 C976.0836,188.4064 975.9841,188.5059 975.8622,188.5059 L984.9308,188.5059 C984.8089,188.5059 984.7094,188.4064 984.7094,188.2845 L984.7094,206.4217 Z"
       style="stroke-width: 0.7500; stroke: #000000; stroke-dasharray: none; stroke-linecap: butt; stroke-linejoin: miter; fill: none; "
       id="path52" />
    <path
       d="  M984.7094,170.1363 L984.7094,170.1473 C984.7094,170.0144 984.8089,169.9146 984.9308,169.9146 L975.8622,169.9146 C975.9841,169.9146 976.0836,170.0144 976.0836,170.1363 L976.0836,151.9988 C976.0836,152.1207 975.9841,152.2202 975.8622,152.2202 L984.9308,152.2202 C984.8089,152.2202 984.7094,152.1207 984.7094,151.9988 L984.7094,170.1363 Z"
       style="stroke-width: 0.7500; stroke: #000000; stroke-dasharray: none; stroke-linecap: butt; stroke-linejoin: miter; fill: none; "
       id="path53" />
    <path
       d="  M984.7094,133.8506 L984.7094,133.8616 C984.7094,133.7287 984.8089,133.6289 984.9308,133.6289 L975.8622,133.6289 C975.9841,133.6289 976.0836,133.7287 976.0836,133.8506 L976.0836,115.7131 C976.0836,115.8350 975.9841,115.9345 975.8622,115.9345 L984.9308,115.9345 C984.8089,115.9345 984.7094,115.8350 984.7094,115.7131 L984.7094,133.8506 Z"
       style="stroke-width: 0.7500; stroke: #000000; stroke-dasharray: none; stroke-linecap: butt; stroke-linejoin: miter; fill: none; "
       id="path54" />
    <path
       d="  M994.6862,227.5157 L994.6862,94.6307 L994.6862,76.0394 C994.6862,75.9175 994.5867,75.8180 994.4649,75.8180 L975.8735,75.8180"
       style="stroke-width: 0.7500; stroke: #000000; stroke-dasharray: none; stroke-linecap: butt; stroke-linejoin: miter; fill: none; "
       id="path55" />
  </g>
  <g
     id="Layer1001">
    <path
       d="  M596.2058,512.8714 A5.6693,5.6693 0.0000 0,0 601.8751,507.2021 A5.6693,5.6693 0.0000 1,0 596.2058,512.8714 Z"
       style="stroke-width: 1.0001; stroke: #000000; stroke-dasharray: none; stroke-linecap: butt; stroke-linejoin: miter; fill: none; "
       id="path56" />
    <path
       d="  M610.2429,512.2506 A5.6693,5.6693 0.0000 0,0 615.9122,506.5813 A5.6693,5.6693 0.0000 1,0 610.2429,512.2506 Z"
       style="stroke-width: 1.0001; stroke: #000000; stroke-dasharray: none; stroke-linecap: butt; stroke-linejoin: miter; fill: none; "
       id="path57" />
    <path
       d="  M623.3871,512.3668 A5.6693,5.6693 0.0000 0,0 629.0564,506.6975 A5.6693,5.6693 0.0000 1,0 623.3871,512.3668 Z"
       style="stroke-width: 1.0001; stroke: #000000; stroke-dasharray: none; stroke-linecap: butt; stroke-linejoin: miter; fill: none; "
       id="path58" />
    <path
       d="  M583.3393,513.0470 A5.6693,5.6693 0.0000 0,0 589.0086,507.3778 A5.6693,5.6693 0.0000 1,0 583.3393,513.0470 Z"
       style="stroke-width: 1.0001; stroke: #000000; stroke-dasharray: none; stroke-linecap: butt; stroke-linejoin: miter; fill: none; "
       id="path59" />
    <path
       d="  M595.8429,526.2565 A5.6693,5.6693 0.0000 0,0 601.5122,520.5872 A5.6693,5.6693 0.0000 1,0 595.8429,526.2565 Z"
       style="stroke-width: 1.0001; stroke: #000000; stroke-dasharray: none; stroke-linecap: butt; stroke-linejoin: miter; fill: none; "
       id="path60" />
    <path
       d="  M609.8857,525.6386 A5.6693,5.6693 0.0000 0,0 615.5550,519.9693 A5.6693,5.6693 0.0000 1,0 609.8857,525.6386 Z"
       style="stroke-width: 1.0001; stroke: #000000; stroke-dasharray: none; stroke-linecap: butt; stroke-linejoin: miter; fill: none; "
       id="path61" />
    <path
       d="  M623.0271,525.7520 A5.6693,5.6693 0.0000 0,0 628.6964,520.0827 A5.6693,5.6693 0.0000 1,0 623.0271,525.7520 Z"
       style="stroke-width: 1.0001; stroke: #000000; stroke-dasharray: none; stroke-linecap: butt; stroke-linejoin: miter; fill: none; "
       id="path62" />
    <path
       d="  M582.9821,526.4351 A5.6693,5.6693 0.0000 0,0 588.6514,520.7658 A5.6693,5.6693 0.0000 1,0 582.9821,526.4351 Z"
       style="stroke-width: 1.0001; stroke: #000000; stroke-dasharray: none; stroke-linecap: butt; stroke-linejoin: miter; fill: none; "
       id="path63" />
    <path
       d="  M596.6111,484.4257 A5.6693,5.6693 0.0000 0,0 602.2804,478.7564 A5.6693,5.6693 0.0000 1,0 596.6111,484.4257 Z"
       style="stroke-width: 1.0001; stroke: #000000; stroke-dasharray: none; stroke-linecap: butt; stroke-linejoin: miter; fill: none; "
       id="path64" />
    <path
       d="  M610.6539,483.8078 A5.6693,5.6693 0.0000 0,0 616.3232,478.1385 A5.6693,5.6693 0.0000 1,0 610.6539,483.8078 Z"
       style="stroke-width: 1.0001; stroke: #000000; stroke-dasharray: none; stroke-linecap: butt; stroke-linejoin: miter; fill: none; "
       id="path65" />
    <path
       d="  M623.7953,483.9211 A5.6693,5.6693 0.0000 0,0 629.4646,478.2518 A5.6693,5.6693 0.0000 1,0 623.7953,483.9211 Z"
       style="stroke-width: 1.0001; stroke: #000000; stroke-dasharray: none; stroke-linecap: butt; stroke-linejoin: miter; fill: none; "
       id="path66" />
    <path
       d="  M583.7503,484.6043 A5.6693,5.6693 0.0000 0,0 589.4196,478.9350 A5.6693,5.6693 0.0000 1,0 583.7503,484.6043 Z"
       style="stroke-width: 1.0001; stroke: #000000; stroke-dasharray: none; stroke-linecap: butt; stroke-linejoin: miter; fill: none; "
       id="path67" />
    <path
       d="  M596.2256,498.6244 A5.6693,5.6693 0.0000 0,0 601.8949,492.9551 A5.6693,5.6693 0.0000 1,0 596.2256,498.6244 Z"
       style="stroke-width: 1.0001; stroke: #000000; stroke-dasharray: none; stroke-linecap: butt; stroke-linejoin: miter; fill: none; "
       id="path68" />
    <path
       d="  M610.2656,498.0064 A5.6693,5.6693 0.0000 0,0 615.9349,492.3371 A5.6693,5.6693 0.0000 1,0 610.2656,498.0064 Z"
       style="stroke-width: 1.0001; stroke: #000000; stroke-dasharray: none; stroke-linecap: butt; stroke-linejoin: miter; fill: none; "
       id="path69" />
    <path
       d="  M623.4098,498.1198 A5.6693,5.6693 0.0000 0,0 629.0791,492.4506 A5.6693,5.6693 0.0000 1,0 623.4098,498.1198 Z"
       style="stroke-width: 1.0001; stroke: #000000; stroke-dasharray: none; stroke-linecap: butt; stroke-linejoin: miter; fill: none; "
       id="path70" />
    <path
       d="  M583.3648,498.8030 A5.6693,5.6693 0.0000 0,0 589.0341,493.1337 A5.6693,5.6693 0.0000 1,0 583.3648,498.8030 Z"
       style="stroke-width: 1.0001; stroke: #000000; stroke-dasharray: none; stroke-linecap: butt; stroke-linejoin: miter; fill: none; "
       id="path71" />
    <path
       d="  M595.0747,540.4581 A5.6693,5.6693 0.0000 0,0 600.7440,534.7888 A5.6693,5.6693 0.0000 1,0 595.0747,540.4581 Z"
       style="stroke-width: 1.0001; stroke: #000000; stroke-dasharray: none; stroke-linecap: butt; stroke-linejoin: miter; fill: none; "
       id="path72" />
    <path
       d="  M609.1147,539.8402 A5.6693,5.6693 0.0000 0,0 614.7840,534.1709 A5.6693,5.6693 0.0000 1,0 609.1147,539.8402 Z"
       style="stroke-width: 1.0001; stroke: #000000; stroke-dasharray: none; stroke-linecap: butt; stroke-linejoin: miter; fill: none; "
       id="path73" />
    <path
       d="  M582.2111,540.6366 A5.6693,5.6693 0.0000 0,0 587.8804,534.9673 A5.6693,5.6693 0.0000 1,0 582.2111,540.6366 Z"
       style="stroke-width: 1.0001; stroke: #000000; stroke-dasharray: none; stroke-linecap: butt; stroke-linejoin: miter; fill: none; "
       id="path74" />
    <path
       d="  M621.7204,539.3866 A5.6693,5.6693 0.0000 0,0 627.3897,533.7173 A5.6693,5.6693 0.0000 1,0 621.7204,539.3866 Z"
       style="stroke-width: 1.0001; stroke: #000000; stroke-dasharray: none; stroke-linecap: butt; stroke-linejoin: miter; fill: none; "
       id="path75" />
    <path
       d="  M622.8826,555.2266 A5.6693,5.6693 0.0000 0,0 628.5519,549.5573 A5.6693,5.6693 0.0000 1,0 622.8826,555.2266 Z"
       style="stroke-width: 1.0001; stroke: #000000; stroke-dasharray: none; stroke-linecap: butt; stroke-linejoin: miter; fill: none; "
       id="path76" />
    <path
       d="  M610.2769,555.6801 A5.6693,5.6693 0.0000 0,0 615.9462,550.0108 A5.6693,5.6693 0.0000 1,0 610.2769,555.6801 Z"
       style="stroke-width: 1.0001; stroke: #000000; stroke-dasharray: none; stroke-linecap: butt; stroke-linejoin: miter; fill: none; "
       id="path77" />
    <path
       d="  M583.3762,556.4767 A5.6693,5.6693 0.0000 0,0 589.0455,550.8074 A5.6693,5.6693 0.0000 1,0 583.3762,556.4767 Z"
       style="stroke-width: 1.0001; stroke: #000000; stroke-dasharray: none; stroke-linecap: butt; stroke-linejoin: miter; fill: none; "
       id="path78" />
    <path
       d="  M596.2369,556.2981 A5.6693,5.6693 0.0000 0,0 601.9062,550.6288 A5.6693,5.6693 0.0000 1,0 596.2369,556.2981 Z"
       style="stroke-width: 1.0001; stroke: #000000; stroke-dasharray: none; stroke-linecap: butt; stroke-linejoin: miter; fill: none; "
       id="path79" />
    <path
       d="  M217.8643,478.7368 L223.6110,486.3994 L223.6115,500.8731 L223.6121,515.3465 L217.8694,521.0937 L212.1264,526.8410 L203.3280,526.8410 L194.5298,526.8410 L194.5100,534.6002 L194.4904,542.3595 L183.1008,542.3791 L171.7112,542.3986 L171.7118,529.9177 L171.7123,517.4368 L175.5317,513.6247 L179.3511,509.8130 L189.1063,509.8130 L198.8611,509.8130 L198.8416,498.9189 L198.8220,488.0248 L183.3522,488.0030 C174.8438,487.9908 167.7693,488.0013 167.6310,488.0256 L167.3796,488.0704 L167.3796,497.7419 L167.3796,507.4135 L155.9707,507.4135 L144.5615,507.4135 L144.5615,494.9680 L144.5615,482.5222 L149.3379,476.7809 L154.1143,471.0396 L183.1158,471.0569 L212.1176,471.0742 L217.8643,478.7368 Z"
       style="stroke-width: 0.9998; stroke: #000000; stroke-dasharray: none; stroke-linecap: butt; stroke-linejoin: miter; fill: none; "
       id="path80" />
    <path
       d="  M194.5289,555.2078 L194.5289,561.7482 L183.1201,561.7482 L171.7112,561.7482 L171.7112,555.2078 L171.7112,548.6677 L183.1201,548.6677 L194.5289,548.6677 L194.5289,555.2078 Z"
       style="stroke-width: 0.9998; stroke: #000000; stroke-dasharray: none; stroke-linecap: butt; stroke-linejoin: miter; fill: none; "
       id="path81" />
    <path
       d="  M389.0842,478.2124 L394.8306,485.8750 L394.8314,500.3487 L394.8320,514.8221 L389.0890,520.5693 L383.3460,526.3166 L374.5478,526.3166 L365.7497,526.3166 L365.7298,534.0758 L365.7103,541.8351 L354.3207,541.8547 L342.9311,541.8742 L342.9316,529.3933 L342.9322,516.9124 L346.7516,513.1003 L350.5710,509.2886 L360.3259,509.2886 L370.0810,509.2886 L370.0615,498.3945 L370.0416,487.5004 L354.5718,487.4785 C346.0636,487.4664 338.9889,487.4768 338.8509,487.5012 L338.5995,487.5460 L338.5995,497.2175 L338.5995,506.8891 L327.1906,506.8891 L315.7814,506.8891 L315.7814,494.4435 L315.7814,481.9978 L320.5578,476.2565 L325.3342,470.5152 L354.3357,470.5325 L383.3375,470.5498 L389.0842,478.2124 Z"
       style="stroke-width: 0.9998; stroke: #000000; stroke-dasharray: none; stroke-linecap: butt; stroke-linejoin: miter; fill: none; "
       id="path82" />
    <path
       d="  M365.7488,554.6834 L365.7488,561.2238 L354.3400,561.2238 L342.9311,561.2238 L342.9311,554.6834 L342.9311,548.1433 L354.3400,548.1433 L365.7488,548.1433 L365.7488,554.6834 Z"
       style="stroke-width: 0.9998; stroke: #000000; stroke-dasharray: none; stroke-linecap: butt; stroke-linejoin: miter; fill: none; "
       id="path83" />
    <path
       d="  M558.4374,479.6892 L564.1841,487.3518 L564.1850,501.8255 L564.1855,516.2989 L558.4425,522.0462 L552.6996,527.7934 L543.9014,527.7934 L535.1029,527.7934 L535.0834,535.5527 L535.0635,543.3120 L523.6739,543.3315 L512.2843,543.3511 L512.2849,530.8701 L512.2858,518.3892 L516.1052,514.5772 L519.9246,510.7654 L529.6794,510.7654 L539.4343,510.7654 L539.4147,499.8713 L539.3952,488.9772 L523.9254,488.9554 C515.4169,488.9432 508.3425,488.9537 508.2042,488.9781 L507.9530,489.0229 L507.9530,498.6944 L507.9530,508.3659 L496.5438,508.3659 L485.1350,508.3659 L485.1350,495.9204 L485.1350,483.4746 L489.9113,477.7333 L494.6874,471.9920 L523.6892,472.0093 L552.6911,472.0266 L558.4374,479.6892 Z"
       style="stroke-width: 0.9998; stroke: #000000; stroke-dasharray: none; stroke-linecap: butt; stroke-linejoin: miter; fill: none; "
       id="path84" />
    <path
       d="  M535.1024,556.1603 L535.1024,562.7006 L523.6935,562.7006 L512.2843,562.7006 L512.2843,556.1603 L512.2843,549.6202 L523.6935,549.6202 L535.1024,549.6202 L535.1024,556.1603 Z"
       style="stroke-width: 0.9998; stroke: #000000; stroke-dasharray: none; stroke-linecap: butt; stroke-linejoin: miter; fill: none; "
       id="path85" />
    <path
       d="  M473.7686,478.9494 L479.5150,486.6120 L479.5159,501.0857 L479.5164,515.5591 L473.7734,521.3063 L468.0304,527.0536 L459.2323,527.0536 L450.4341,527.0536 L450.4143,534.8128 L450.3947,542.5721 L439.0051,542.5917 L427.6152,542.6115 L427.6161,530.1303 L427.6166,517.6494 L431.4360,513.8373 L435.2554,510.0256 L445.0103,510.0256 L454.7654,510.0256 L454.7459,499.1315 L454.7260,488.2374 L439.2563,488.2155 C430.7481,488.2034 423.6734,488.2138 423.5353,488.2385 L423.2839,488.2830 L423.2839,497.9545 L423.2839,507.6261 L411.8747,507.6261 L400.4658,507.6261 L400.4658,495.1806 L400.4658,482.7350 L405.2422,476.9935 L410.0186,471.2522 L439.0201,471.2695 L468.0219,471.2868 L473.7686,478.9494 Z"
       style="stroke-width: 0.9998; stroke: #000000; stroke-dasharray: none; stroke-linecap: butt; stroke-linejoin: miter; fill: none; "
       id="path86" />
    <path
       d="  M450.4333,555.4204 L450.4333,561.9608 L439.0244,561.9608 L427.6152,561.9608 L427.6152,555.4204 L427.6152,548.8803 L439.0244,548.8803 L450.4333,548.8803 L450.4333,555.4204 Z"
       style="stroke-width: 0.9998; stroke: #000000; stroke-dasharray: none; stroke-linecap: butt; stroke-linejoin: miter; fill: none; "
       id="path87" />
    <path
       d="  M302.9830,478.4306 L308.7297,485.7494 L308.7302,499.5737 L308.7308,513.3980 L302.9878,518.8872 L297.2451,524.3765 L288.4467,524.3765 L279.6485,524.3765 L279.6287,531.7877 L279.6091,539.1989 L268.2195,539.2176 L256.8299,539.2363 L256.8305,527.3152 L256.8310,515.3944 L260.6504,511.7533 L264.4698,508.1125 L274.2247,508.1125 L283.9798,508.1125 L283.9603,497.7071 L283.9407,487.3019 L268.4709,487.2810 C259.9625,487.2693 252.8880,487.2793 252.7497,487.3028 L252.4983,487.3456 L252.4983,496.5831 L252.4983,505.8207 L241.0894,505.8207 L229.6802,505.8207 L229.6802,493.9333 L229.6802,482.0462 L234.4566,476.5623 L239.2330,471.0787 L268.2345,471.0951 L297.2363,471.1116 L302.9830,478.4306 Z"
       style="stroke-width: 1.0227; stroke: #000000; stroke-dasharray: none; stroke-linecap: butt; stroke-linejoin: miter; fill: none; "
       id="path88" />
    <path
       d="  M279.6476,551.4709 L279.6476,557.7176 L268.2388,557.7176 L256.8299,557.7176 L256.8299,551.4709 L256.8299,545.2239 L268.2388,545.2239 L279.6476,545.2239 L279.6476,551.4709 Z"
       style="stroke-width: 1.0227; stroke: #000000; stroke-dasharray: none; stroke-linecap: butt; stroke-linejoin: miter; fill: none; "
       id="path89" />
    <path
       d="  M653.0999,513.1888 A5.6693,5.6693 0.0000 0,0 658.7692,507.5195 A5.6693,5.6693 0.0000 1,0 653.0999,513.1888 Z"
       style="stroke-width: 1.0001; stroke: #000000; stroke-dasharray: none; stroke-linecap: butt; stroke-linejoin: miter; fill: none; "
       id="path90" />
    <path
       d="  M667.1370,512.5681 A5.6693,5.6693 0.0000 0,0 672.8063,506.8988 A5.6693,5.6693 0.0000 1,0 667.1370,512.5681 Z"
       style="stroke-width: 1.0001; stroke: #000000; stroke-dasharray: none; stroke-linecap: butt; stroke-linejoin: miter; fill: none; "
       id="path91" />
    <path
       d="  M680.2812,512.6842 A5.6693,5.6693 0.0000 0,0 685.9505,507.0150 A5.6693,5.6693 0.0000 1,0 680.2812,512.6842 Z"
       style="stroke-width: 1.0001; stroke: #000000; stroke-dasharray: none; stroke-linecap: butt; stroke-linejoin: miter; fill: none; "
       id="path92" />
    <path
       d="  M640.2334,513.3645 A5.6693,5.6693 0.0000 0,0 645.9027,507.6952 A5.6693,5.6693 0.0000 1,0 640.2334,513.3645 Z"
       style="stroke-width: 1.0001; stroke: #000000; stroke-dasharray: none; stroke-linecap: butt; stroke-linejoin: miter; fill: none; "
       id="path93" />
    <path
       d="  M652.7370,526.5740 A5.6693,5.6693 0.0000 0,0 658.4063,520.9047 A5.6693,5.6693 0.0000 1,0 652.7370,526.5740 Z"
       style="stroke-width: 1.0001; stroke: #000000; stroke-dasharray: none; stroke-linecap: butt; stroke-linejoin: miter; fill: none; "
       id="path94" />
    <path
       d="  M666.7798,525.9561 A5.6693,5.6693 0.0000 0,0 672.4491,520.2868 A5.6693,5.6693 0.0000 1,0 666.7798,525.9561 Z"
       style="stroke-width: 1.0001; stroke: #000000; stroke-dasharray: none; stroke-linecap: butt; stroke-linejoin: miter; fill: none; "
       id="path95" />
    <path
       d="  M679.9212,526.0695 A5.6693,5.6693 0.0000 0,0 685.5905,520.4002 A5.6693,5.6693 0.0000 1,0 679.9212,526.0695 Z"
       style="stroke-width: 1.0001; stroke: #000000; stroke-dasharray: none; stroke-linecap: butt; stroke-linejoin: miter; fill: none; "
       id="path96" />
    <path
       d="  M639.8763,526.7526 A5.6693,5.6693 0.0000 0,0 645.5455,521.0833 A5.6693,5.6693 0.0000 1,0 639.8763,526.7526 Z"
       style="stroke-width: 1.0001; stroke: #000000; stroke-dasharray: none; stroke-linecap: butt; stroke-linejoin: miter; fill: none; "
       id="path97" />
    <path
       d="  M653.5052,484.7432 A5.6693,5.6693 0.0000 0,0 659.1745,479.0739 A5.6693,5.6693 0.0000 1,0 653.5052,484.7432 Z"
       style="stroke-width: 1.0001; stroke: #000000; stroke-dasharray: none; stroke-linecap: butt; stroke-linejoin: miter; fill: none; "
       id="path98" />
    <path
       d="  M667.5481,484.1253 A5.6693,5.6693 0.0000 0,0 673.2173,478.4560 A5.6693,5.6693 0.0000 1,0 667.5481,484.1253 Z"
       style="stroke-width: 1.0001; stroke: #000000; stroke-dasharray: none; stroke-linecap: butt; stroke-linejoin: miter; fill: none; "
       id="path99" />
    <path
       d="  M680.6894,484.2386 A5.6693,5.6693 0.0000 0,0 686.3587,478.5693 A5.6693,5.6693 0.0000 1,0 680.6894,484.2386 Z"
       style="stroke-width: 1.0001; stroke: #000000; stroke-dasharray: none; stroke-linecap: butt; stroke-linejoin: miter; fill: none; "
       id="path100" />
    <path
       d="  M640.6444,484.9217 A5.6693,5.6693 0.0000 0,0 646.3137,479.2524 A5.6693,5.6693 0.0000 1,0 640.6444,484.9217 Z"
       style="stroke-width: 1.0001; stroke: #000000; stroke-dasharray: none; stroke-linecap: butt; stroke-linejoin: miter; fill: none; "
       id="path101" />
    <path
       d="  M653.1197,498.9419 A5.6693,5.6693 0.0000 0,0 658.7890,493.2726 A5.6693,5.6693 0.0000 1,0 653.1197,498.9419 Z"
       style="stroke-width: 1.0001; stroke: #000000; stroke-dasharray: none; stroke-linecap: butt; stroke-linejoin: miter; fill: none; "
       id="path102" />
    <path
       d="  M667.1597,498.3239 A5.6693,5.6693 0.0000 0,0 672.8290,492.6546 A5.6693,5.6693 0.0000 1,0 667.1597,498.3239 Z"
       style="stroke-width: 1.0001; stroke: #000000; stroke-dasharray: none; stroke-linecap: butt; stroke-linejoin: miter; fill: none; "
       id="path103" />
    <path
       d="  M680.3040,498.4373 A5.6693,5.6693 0.0000 0,0 685.9732,492.7680 A5.6693,5.6693 0.0000 1,0 680.3040,498.4373 Z"
       style="stroke-width: 1.0001; stroke: #000000; stroke-dasharray: none; stroke-linecap: butt; stroke-linejoin: miter; fill: none; "
       id="path104" />
    <path
       d="  M640.2590,499.1205 A5.6693,5.6693 0.0000 0,0 645.9282,493.4512 A5.6693,5.6693 0.0000 1,0 640.2590,499.1205 Z"
       style="stroke-width: 1.0001; stroke: #000000; stroke-dasharray: none; stroke-linecap: butt; stroke-linejoin: miter; fill: none; "
       id="path105" />
    <path
       d="  M651.9689,540.7756 A5.6693,5.6693 0.0000 0,0 657.6381,535.1063 A5.6693,5.6693 0.0000 1,0 651.9689,540.7756 Z"
       style="stroke-width: 1.0001; stroke: #000000; stroke-dasharray: none; stroke-linecap: butt; stroke-linejoin: miter; fill: none; "
       id="path106" />
    <path
       d="  M666.0088,540.1576 A5.6693,5.6693 0.0000 0,0 671.6781,534.4884 A5.6693,5.6693 0.0000 1,0 666.0088,540.1576 Z"
       style="stroke-width: 1.0001; stroke: #000000; stroke-dasharray: none; stroke-linecap: butt; stroke-linejoin: miter; fill: none; "
       id="path107" />
    <path
       d="  M639.1052,540.9541 A5.6693,5.6693 0.0000 0,0 644.7745,535.2848 A5.6693,5.6693 0.0000 1,0 639.1052,540.9541 Z"
       style="stroke-width: 1.0001; stroke: #000000; stroke-dasharray: none; stroke-linecap: butt; stroke-linejoin: miter; fill: none; "
       id="path108" />
    <path
       d="  M678.6145,539.7041 A5.6693,5.6693 0.0000 0,0 684.2838,534.0348 A5.6693,5.6693 0.0000 1,0 678.6145,539.7041 Z"
       style="stroke-width: 1.0001; stroke: #000000; stroke-dasharray: none; stroke-linecap: butt; stroke-linejoin: miter; fill: none; "
       id="path109" />
    <path
       d="  M679.7767,555.5440 A5.6693,5.6693 0.0000 0,0 685.4460,549.8747 A5.6693,5.6693 0.0000 1,0 679.7767,555.5440 Z"
       style="stroke-width: 1.0001; stroke: #000000; stroke-dasharray: none; stroke-linecap: butt; stroke-linejoin: miter; fill: none; "
       id="path110" />
    <path
       d="  M667.1710,555.9976 A5.6693,5.6693 0.0000 0,0 672.8403,550.3283 A5.6693,5.6693 0.0000 1,0 667.1710,555.9976 Z"
       style="stroke-width: 1.0001; stroke: #000000; stroke-dasharray: none; stroke-linecap: butt; stroke-linejoin: miter; fill: none; "
       id="path111" />
    <path
       d="  M640.2703,556.7941 A5.6693,5.6693 0.0000 0,0 645.9396,551.1248 A5.6693,5.6693 0.0000 1,0 640.2703,556.7941 Z"
       style="stroke-width: 1.0001; stroke: #000000; stroke-dasharray: none; stroke-linecap: butt; stroke-linejoin: miter; fill: none; "
       id="path112" />
    <path
       d="  M653.1310,556.6156 A5.6693,5.6693 0.0000 0,0 658.8003,550.9463 A5.6693,5.6693 0.0000 1,0 653.1310,556.6156 Z"
       style="stroke-width: 1.0001; stroke: #000000; stroke-dasharray: none; stroke-linecap: butt; stroke-linejoin: miter; fill: none; "
       id="path113" />
    <path
       d="  M601.3279,606.7689 A5.6693,5.6693 0.0000 0,0 606.9972,601.0996 A5.6693,5.6693 0.0000 1,0 601.3279,606.7689 Z"
       style="stroke-width: 1.0001; stroke: #000000; stroke-dasharray: none; stroke-linecap: butt; stroke-linejoin: miter; fill: none; "
       id="path114" />
    <path
       d="  M615.3651,606.1481 A5.6693,5.6693 0.0000 0,0 621.0344,600.4788 A5.6693,5.6693 0.0000 1,0 615.3651,606.1481 Z"
       style="stroke-width: 1.0001; stroke: #000000; stroke-dasharray: none; stroke-linecap: butt; stroke-linejoin: miter; fill: none; "
       id="path115" />
    <path
       d="  M628.5093,606.2643 A5.6693,5.6693 0.0000 0,0 634.1786,600.5950 A5.6693,5.6693 0.0000 1,0 628.5093,606.2643 Z"
       style="stroke-width: 1.0001; stroke: #000000; stroke-dasharray: none; stroke-linecap: butt; stroke-linejoin: miter; fill: none; "
       id="path116" />
    <path
       d="  M588.4615,606.9446 A5.6693,5.6693 0.0000 0,0 594.1308,601.2754 A5.6693,5.6693 0.0000 1,0 588.4615,606.9446 Z"
       style="stroke-width: 1.0001; stroke: #000000; stroke-dasharray: none; stroke-linecap: butt; stroke-linejoin: miter; fill: none; "
       id="path117" />
    <path
       d="  M600.9651,620.1541 A5.6693,5.6693 0.0000 0,0 606.6344,614.4848 A5.6693,5.6693 0.0000 1,0 600.9651,620.1541 Z"
       style="stroke-width: 1.0001; stroke: #000000; stroke-dasharray: none; stroke-linecap: butt; stroke-linejoin: miter; fill: none; "
       id="path118" />
    <path
       d="  M615.0079,619.5361 A5.6693,5.6693 0.0000 0,0 620.6772,613.8668 A5.6693,5.6693 0.0000 1,0 615.0079,619.5361 Z"
       style="stroke-width: 1.0001; stroke: #000000; stroke-dasharray: none; stroke-linecap: butt; stroke-linejoin: miter; fill: none; "
       id="path119" />
    <path
       d="  M628.1493,619.6495 A5.6693,5.6693 0.0000 0,0 633.8186,613.9802 A5.6693,5.6693 0.0000 1,0 628.1493,619.6495 Z"
       style="stroke-width: 1.0001; stroke: #000000; stroke-dasharray: none; stroke-linecap: butt; stroke-linejoin: miter; fill: none; "
       id="path120" />
    <path
       d="  M588.1043,620.3326 A5.6693,5.6693 0.0000 0,0 593.7736,614.6633 A5.6693,5.6693 0.0000 1,0 588.1043,620.3326 Z"
       style="stroke-width: 1.0001; stroke: #000000; stroke-dasharray: none; stroke-linecap: butt; stroke-linejoin: miter; fill: none; "
       id="path121" />
    <path
       d="  M601.7333,578.3233 A5.6693,5.6693 0.0000 0,0 607.4026,572.6540 A5.6693,5.6693 0.0000 1,0 601.7333,578.3233 Z"
       style="stroke-width: 1.0001; stroke: #000000; stroke-dasharray: none; stroke-linecap: butt; stroke-linejoin: miter; fill: none; "
       id="path122" />
    <path
       d="  M615.7761,577.7053 A5.6693,5.6693 0.0000 0,0 621.4454,572.0360 A5.6693,5.6693 0.0000 1,0 615.7761,577.7053 Z"
       style="stroke-width: 1.0001; stroke: #000000; stroke-dasharray: none; stroke-linecap: butt; stroke-linejoin: miter; fill: none; "
       id="path123" />
    <path
       d="  M628.9175,577.8187 A5.6693,5.6693 0.0000 0,0 634.5868,572.1494 A5.6693,5.6693 0.0000 1,0 628.9175,577.8187 Z"
       style="stroke-width: 1.0001; stroke: #000000; stroke-dasharray: none; stroke-linecap: butt; stroke-linejoin: miter; fill: none; "
       id="path124" />
    <path
       d="  M588.8725,578.5018 A5.6693,5.6693 0.0000 0,0 594.5418,572.8326 A5.6693,5.6693 0.0000 1,0 588.8725,578.5018 Z"
       style="stroke-width: 1.0001; stroke: #000000; stroke-dasharray: none; stroke-linecap: butt; stroke-linejoin: miter; fill: none; "
       id="path125" />
    <path
       d="  M601.3478,592.5220 A5.6693,5.6693 0.0000 0,0 607.0171,586.8527 A5.6693,5.6693 0.0000 1,0 601.3478,592.5220 Z"
       style="stroke-width: 1.0001; stroke: #000000; stroke-dasharray: none; stroke-linecap: butt; stroke-linejoin: miter; fill: none; "
       id="path126" />
    <path
       d="  M615.3878,591.9040 A5.6693,5.6693 0.0000 0,0 621.0571,586.2347 A5.6693,5.6693 0.0000 1,0 615.3878,591.9040 Z"
       style="stroke-width: 1.0001; stroke: #000000; stroke-dasharray: none; stroke-linecap: butt; stroke-linejoin: miter; fill: none; "
       id="path127" />
    <path
       d="  M628.5320,592.0174 A5.6693,5.6693 0.0000 0,0 634.2013,586.3481 A5.6693,5.6693 0.0000 1,0 628.5320,592.0174 Z"
       style="stroke-width: 1.0001; stroke: #000000; stroke-dasharray: none; stroke-linecap: butt; stroke-linejoin: miter; fill: none; "
       id="path128" />
    <path
       d="  M588.4870,592.7006 A5.6693,5.6693 0.0000 0,0 594.1563,587.0313 A5.6693,5.6693 0.0000 1,0 588.4870,592.7006 Z"
       style="stroke-width: 1.0001; stroke: #000000; stroke-dasharray: none; stroke-linecap: butt; stroke-linejoin: miter; fill: none; "
       id="path129" />
    <path
       d="  M600.1969,634.3556 A5.6693,5.6693 0.0000 0,0 605.8662,628.6863 A5.6693,5.6693 0.0000 1,0 600.1969,634.3556 Z"
       style="stroke-width: 1.0001; stroke: #000000; stroke-dasharray: none; stroke-linecap: butt; stroke-linejoin: miter; fill: none; "
       id="path130" />
    <path
       d="  M614.2369,633.7377 A5.6693,5.6693 0.0000 0,0 619.9062,628.0684 A5.6693,5.6693 0.0000 1,0 614.2369,633.7377 Z"
       style="stroke-width: 1.0001; stroke: #000000; stroke-dasharray: none; stroke-linecap: butt; stroke-linejoin: miter; fill: none; "
       id="path131" />
    <path
       d="  M587.3333,634.5342 A5.6693,5.6693 0.0000 0,0 593.0026,628.8649 A5.6693,5.6693 0.0000 1,0 587.3333,634.5342 Z"
       style="stroke-width: 1.0001; stroke: #000000; stroke-dasharray: none; stroke-linecap: butt; stroke-linejoin: miter; fill: none; "
       id="path132" />
    <path
       d="  M626.8426,633.2841 A5.6693,5.6693 0.0000 0,0 632.5119,627.6148 A5.6693,5.6693 0.0000 1,0 626.8426,633.2841 Z"
       style="stroke-width: 1.0001; stroke: #000000; stroke-dasharray: none; stroke-linecap: butt; stroke-linejoin: miter; fill: none; "
       id="path133" />
    <path
       d="  M628.0048,649.1241 A5.6693,5.6693 0.0000 0,0 633.6740,643.4549 A5.6693,5.6693 0.0000 1,0 628.0048,649.1241 Z"
       style="stroke-width: 1.0001; stroke: #000000; stroke-dasharray: none; stroke-linecap: butt; stroke-linejoin: miter; fill: none; "
       id="path134" />
    <path
       d="  M615.3991,649.5777 A5.6693,5.6693 0.0000 0,0 621.0684,643.9084 A5.6693,5.6693 0.0000 1,0 615.3991,649.5777 Z"
       style="stroke-width: 1.0001; stroke: #000000; stroke-dasharray: none; stroke-linecap: butt; stroke-linejoin: miter; fill: none; "
       id="path135" />
    <path
       d="  M588.4983,650.3742 A5.6693,5.6693 0.0000 0,0 594.1676,644.7049 A5.6693,5.6693 0.0000 1,0 588.4983,650.3742 Z"
       style="stroke-width: 1.0001; stroke: #000000; stroke-dasharray: none; stroke-linecap: butt; stroke-linejoin: miter; fill: none; "
       id="path136" />
    <path
       d="  M601.3591,650.1956 A5.6693,5.6693 0.0000 0,0 607.0284,644.5263 A5.6693,5.6693 0.0000 1,0 601.3591,650.1956 Z"
       style="stroke-width: 1.0001; stroke: #000000; stroke-dasharray: none; stroke-linecap: butt; stroke-linejoin: miter; fill: none; "
       id="path137" />
    <path
       d="  M222.9865,572.6344 L228.7332,580.2970 L228.7338,594.7707 L228.7346,609.2441 L222.9916,614.9913 L217.2486,620.7383 L208.4502,620.7383 L199.6520,620.7383 L199.6324,628.4978 L199.6126,636.2571 L188.2230,636.2767 L176.8334,636.2962 L176.8340,623.8153 L176.8345,611.3343 L180.6539,607.5223 L184.4733,603.7103 L194.2285,603.7103 L203.9833,603.7103 L203.9638,592.8165 L203.9442,581.9224 L188.4744,581.9005 C179.9660,581.8883 172.8915,581.8986 172.7532,581.9232 L172.5018,581.9680 L172.5018,591.6395 L172.5018,601.3110 L161.0929,601.3110 L149.6837,601.3110 L149.6837,588.8655 L149.6837,576.4198 L154.4601,570.6785 L159.2365,564.9372 L188.2383,564.9545 L217.2398,564.9718 L222.9865,572.6344 Z"
       style="stroke-width: 0.9998; stroke: #000000; stroke-dasharray: none; stroke-linecap: butt; stroke-linejoin: miter; fill: none; "
       id="path138" />
    <path
       d="  M199.6512,649.1054 L199.6512,655.6458 L188.2423,655.6458 L176.8334,655.6458 L176.8334,649.1054 L176.8334,642.5653 L188.2423,642.5653 L199.6512,642.5653 L199.6512,649.1054 Z"
       style="stroke-width: 0.9998; stroke: #000000; stroke-dasharray: none; stroke-linecap: butt; stroke-linejoin: miter; fill: none; "
       id="path139" />
    <path
       d="  M394.2067,572.1100 L399.9531,579.7726 L399.9539,594.2463 L399.9545,608.7197 L394.2115,614.4669 L388.4685,620.2139 L379.6703,620.2139 L370.8722,620.2139 L370.8523,627.9734 L370.8328,635.7327 L359.4432,635.7523 L348.0536,635.7718 L348.0541,623.2909 L348.0547,610.8099 L351.8741,606.9979 L355.6935,603.1859 L365.4484,603.1859 L375.2035,603.1859 L375.1839,592.2921 L375.1641,581.3980 L359.6943,581.3761 C351.1861,581.3639 344.1114,581.3744 343.9734,581.3988 L343.7219,581.4436 L343.7219,591.1151 L343.7219,600.7866 L332.3131,600.7866 L320.9039,600.7866 L320.9039,588.3411 L320.9039,575.8953 L325.6803,570.1541 L330.4567,564.4128 L359.4582,564.4301 L388.4600,564.4474 L394.2067,572.1100 Z"
       style="stroke-width: 0.9998; stroke: #000000; stroke-dasharray: none; stroke-linecap: butt; stroke-linejoin: miter; fill: none; "
       id="path140" />
    <path
       d="  M370.8713,648.5810 L370.8713,655.1214 L359.4624,655.1214 L348.0536,655.1214 L348.0536,648.5810 L348.0536,642.0409 L359.4624,642.0409 L370.8713,642.0409 L370.8713,648.5810 Z"
       style="stroke-width: 0.9998; stroke: #000000; stroke-dasharray: none; stroke-linecap: butt; stroke-linejoin: miter; fill: none; "
       id="path141" />
    <path
       d="  M563.5599,573.5868 L569.3066,581.2494 L569.3075,595.7231 L569.3080,610.1965 L563.5650,615.9438 L557.8220,621.6907 L549.0239,621.6907 L540.2257,621.6907 L540.2059,629.4503 L540.1863,637.2095 L528.7964,637.2291 L517.4068,637.2487 L517.4077,624.7677 L517.4082,612.2868 L521.2276,608.4748 L525.0470,604.6627 L534.8019,604.6627 L544.5570,604.6627 L544.5372,593.7689 L544.5176,582.8748 L529.0479,582.8530 C520.5397,582.8408 513.4650,582.8510 513.3266,582.8757 L513.0755,582.9204 L513.0755,592.5920 L513.0755,602.2635 L501.6663,602.2635 L490.2575,602.2635 L490.2575,589.8180 L490.2575,577.3722 L495.0338,571.6309 L499.8099,565.8896 L528.8117,565.9069 L557.8135,565.9242 L563.5599,573.5868 Z"
       style="stroke-width: 0.9998; stroke: #000000; stroke-dasharray: none; stroke-linecap: butt; stroke-linejoin: miter; fill: none; "
       id="path142" />
    <path
       d="  M540.2249,650.0579 L540.2249,656.5982 L528.8160,656.5982 L517.4068,656.5982 L517.4068,650.0579 L517.4068,643.5175 L528.8160,643.5175 L540.2249,643.5175 L540.2249,650.0579 Z"
       style="stroke-width: 0.9998; stroke: #000000; stroke-dasharray: none; stroke-linecap: butt; stroke-linejoin: miter; fill: none; "
       id="path143" />
    <path
       d="  M478.8911,572.8470 L484.6375,580.5096 L484.6383,594.9833 L484.6389,609.4567 L478.8959,615.2039 L473.1529,620.9512 L464.3548,620.9512 L455.5566,620.9512 L455.5367,628.7104 L455.5172,636.4697 L444.1276,636.4893 L432.7377,636.5088 L432.7386,624.0279 L432.7391,611.5469 L436.5585,607.7349 L440.3779,603.9232 L450.1328,603.9232 L459.8879,603.9232 L459.8684,593.0291 L459.8485,582.1350 L444.3787,582.1131 C435.8706,582.1009 428.7958,582.1114 428.6578,582.1358 L428.4064,582.1806 L428.4064,591.8521 L428.4064,601.5236 L416.9972,601.5236 L405.5883,601.5236 L405.5883,589.0781 L405.5883,576.6324 L410.3647,570.8911 L415.1411,565.1498 L444.1426,565.1671 L473.1444,565.1844 L478.8911,572.8470 Z"
       style="stroke-width: 0.9998; stroke: #000000; stroke-dasharray: none; stroke-linecap: butt; stroke-linejoin: miter; fill: none; "
       id="path144" />
    <path
       d="  M455.5557,649.3180 L455.5557,655.8584 L444.1469,655.8584 L432.7377,655.8584 L432.7377,649.3180 L432.7377,642.7779 L444.1469,642.7779 L455.5557,642.7779 L455.5557,649.3180 Z"
       style="stroke-width: 0.9998; stroke: #000000; stroke-dasharray: none; stroke-linecap: butt; stroke-linejoin: miter; fill: none; "
       id="path145" />
    <path
       d="  M308.1052,572.3279 L313.8519,579.6470 L313.8524,593.4713 L313.8530,607.2953 L308.1100,612.7848 L302.3673,618.2741 L293.5689,618.2741 L284.7707,618.2741 L284.7509,625.6853 L284.7313,633.0965 L273.3417,633.1152 L261.9521,633.1339 L261.9527,621.2128 L261.9532,609.2917 L265.7726,605.6509 L269.5920,602.0101 L279.3469,602.0101 L289.1020,602.0101 L289.0825,591.6047 L289.0629,581.1992 L273.5931,581.1786 C265.0847,581.1669 258.0102,581.1769 257.8719,581.2004 L257.6205,581.2429 L257.6205,590.4807 L257.6205,599.7183 L246.2116,599.7183 L234.8024,599.7183 L234.8024,587.8309 L234.8024,575.9438 L239.5788,570.4599 L244.3552,564.9763 L273.3567,564.9927 L302.3585,565.0092 L308.1052,572.3279 Z"
       style="stroke-width: 1.0227; stroke: #000000; stroke-dasharray: none; stroke-linecap: butt; stroke-linejoin: miter; fill: none; "
       id="path146" />
    <path
       d="  M284.7698,645.3685 L284.7698,651.6152 L273.3610,651.6152 L261.9521,651.6152 L261.9521,645.3685 L261.9521,639.1215 L273.3610,639.1215 L284.7698,639.1215 L284.7698,645.3685 Z"
       style="stroke-width: 1.0227; stroke: #000000; stroke-dasharray: none; stroke-linecap: butt; stroke-linejoin: miter; fill: none; "
       id="path147" />
    <path
       d="  M658.2221,607.0864 A5.6693,5.6693 0.0000 0,0 663.8913,601.4171 A5.6693,5.6693 0.0000 1,0 658.2221,607.0864 Z"
       style="stroke-width: 1.0001; stroke: #000000; stroke-dasharray: none; stroke-linecap: butt; stroke-linejoin: miter; fill: none; "
       id="path148" />
    <path
       d="  M672.2592,606.4656 A5.6693,5.6693 0.0000 0,0 677.9285,600.7963 A5.6693,5.6693 0.0000 1,0 672.2592,606.4656 Z"
       style="stroke-width: 1.0001; stroke: #000000; stroke-dasharray: none; stroke-linecap: butt; stroke-linejoin: miter; fill: none; "
       id="path149" />
    <path
       d="  M685.4035,606.5818 A5.6693,5.6693 0.0000 0,0 691.0728,600.9125 A5.6693,5.6693 0.0000 1,0 685.4035,606.5818 Z"
       style="stroke-width: 1.0001; stroke: #000000; stroke-dasharray: none; stroke-linecap: butt; stroke-linejoin: miter; fill: none; "
       id="path150" />
    <path
       d="  M645.3556,607.2621 A5.6693,5.6693 0.0000 0,0 651.0249,601.5928 A5.6693,5.6693 0.0000 1,0 645.3556,607.2621 Z"
       style="stroke-width: 1.0001; stroke: #000000; stroke-dasharray: none; stroke-linecap: butt; stroke-linejoin: miter; fill: none; "
       id="path151" />
    <path
       d="  M657.8593,620.4716 A5.6693,5.6693 0.0000 0,0 663.5285,614.8023 A5.6693,5.6693 0.0000 1,0 657.8593,620.4716 Z"
       style="stroke-width: 1.0001; stroke: #000000; stroke-dasharray: none; stroke-linecap: butt; stroke-linejoin: miter; fill: none; "
       id="path152" />
    <path
       d="  M671.9021,619.8536 A5.6693,5.6693 0.0000 0,0 677.5713,614.1843 A5.6693,5.6693 0.0000 1,0 671.9021,619.8536 Z"
       style="stroke-width: 1.0001; stroke: #000000; stroke-dasharray: none; stroke-linecap: butt; stroke-linejoin: miter; fill: none; "
       id="path153" />
    <path
       d="  M685.0435,619.9670 A5.6693,5.6693 0.0000 0,0 690.7128,614.2977 A5.6693,5.6693 0.0000 1,0 685.0435,619.9670 Z"
       style="stroke-width: 1.0001; stroke: #000000; stroke-dasharray: none; stroke-linecap: butt; stroke-linejoin: miter; fill: none; "
       id="path154" />
    <path
       d="  M644.9985,620.6501 A5.6693,5.6693 0.0000 0,0 650.6678,614.9808 A5.6693,5.6693 0.0000 1,0 644.9985,620.6501 Z"
       style="stroke-width: 1.0001; stroke: #000000; stroke-dasharray: none; stroke-linecap: butt; stroke-linejoin: miter; fill: none; "
       id="path155" />
    <path
       d="  M658.6274,578.6407 A5.6693,5.6693 0.0000 0,0 664.2967,572.9714 A5.6693,5.6693 0.0000 1,0 658.6274,578.6407 Z"
       style="stroke-width: 1.0001; stroke: #000000; stroke-dasharray: none; stroke-linecap: butt; stroke-linejoin: miter; fill: none; "
       id="path156" />
    <path
       d="  M672.6702,578.0228 A5.6693,5.6693 0.0000 0,0 678.3395,572.3535 A5.6693,5.6693 0.0000 1,0 672.6702,578.0228 Z"
       style="stroke-width: 1.0001; stroke: #000000; stroke-dasharray: none; stroke-linecap: butt; stroke-linejoin: miter; fill: none; "
       id="path157" />
    <path
       d="  M685.8116,578.1362 A5.6693,5.6693 0.0000 0,0 691.4809,572.4669 A5.6693,5.6693 0.0000 1,0 685.8116,578.1362 Z"
       style="stroke-width: 1.0001; stroke: #000000; stroke-dasharray: none; stroke-linecap: butt; stroke-linejoin: miter; fill: none; "
       id="path158" />
    <path
       d="  M645.7666,578.8193 A5.6693,5.6693 0.0000 0,0 651.4359,573.1500 A5.6693,5.6693 0.0000 1,0 645.7666,578.8193 Z"
       style="stroke-width: 1.0001; stroke: #000000; stroke-dasharray: none; stroke-linecap: butt; stroke-linejoin: miter; fill: none; "
       id="path159" />
    <path
       d="  M658.2419,592.8395 A5.6693,5.6693 0.0000 0,0 663.9112,587.1702 A5.6693,5.6693 0.0000 1,0 658.2419,592.8395 Z"
       style="stroke-width: 1.0001; stroke: #000000; stroke-dasharray: none; stroke-linecap: butt; stroke-linejoin: miter; fill: none; "
       id="path160" />
    <path
       d="  M672.2819,592.2215 A5.6693,5.6693 0.0000 0,0 677.9512,586.5522 A5.6693,5.6693 0.0000 1,0 672.2819,592.2215 Z"
       style="stroke-width: 1.0001; stroke: #000000; stroke-dasharray: none; stroke-linecap: butt; stroke-linejoin: miter; fill: none; "
       id="path161" />
    <path
       d="  M685.4261,592.3349 A5.6693,5.6693 0.0000 0,0 691.0954,586.6656 A5.6693,5.6693 0.0000 1,0 685.4261,592.3349 Z"
       style="stroke-width: 1.0001; stroke: #000000; stroke-dasharray: none; stroke-linecap: butt; stroke-linejoin: miter; fill: none; "
       id="path162" />
    <path
       d="  M645.3811,593.0181 A5.6693,5.6693 0.0000 0,0 651.0504,587.3488 A5.6693,5.6693 0.0000 1,0 645.3811,593.0181 Z"
       style="stroke-width: 1.0001; stroke: #000000; stroke-dasharray: none; stroke-linecap: butt; stroke-linejoin: miter; fill: none; "
       id="path163" />
    <path
       d="  M657.0910,634.6731 A5.6693,5.6693 0.0000 0,0 662.7603,629.0038 A5.6693,5.6693 0.0000 1,0 657.0910,634.6731 Z"
       style="stroke-width: 1.0001; stroke: #000000; stroke-dasharray: none; stroke-linecap: butt; stroke-linejoin: miter; fill: none; "
       id="path164" />
    <path
       d="  M671.1310,634.0552 A5.6693,5.6693 0.0000 0,0 676.8003,628.3859 A5.6693,5.6693 0.0000 1,0 671.1310,634.0552 Z"
       style="stroke-width: 1.0001; stroke: #000000; stroke-dasharray: none; stroke-linecap: butt; stroke-linejoin: miter; fill: none; "
       id="path165" />
    <path
       d="  M644.2274,634.8517 A5.6693,5.6693 0.0000 0,0 649.8967,629.1824 A5.6693,5.6693 0.0000 1,0 644.2274,634.8517 Z"
       style="stroke-width: 1.0001; stroke: #000000; stroke-dasharray: none; stroke-linecap: butt; stroke-linejoin: miter; fill: none; "
       id="path166" />
    <path
       d="  M683.7367,633.6016 A5.6693,5.6693 0.0000 0,0 689.4060,627.9323 A5.6693,5.6693 0.0000 1,0 683.7367,633.6016 Z"
       style="stroke-width: 1.0001; stroke: #000000; stroke-dasharray: none; stroke-linecap: butt; stroke-linejoin: miter; fill: none; "
       id="path167" />
    <path
       d="  M684.8989,649.4416 A5.6693,5.6693 0.0000 0,0 690.5682,643.7723 A5.6693,5.6693 0.0000 1,0 684.8989,649.4416 Z"
       style="stroke-width: 1.0001; stroke: #000000; stroke-dasharray: none; stroke-linecap: butt; stroke-linejoin: miter; fill: none; "
       id="path168" />
    <path
       d="  M672.2932,649.8951 A5.6693,5.6693 0.0000 0,0 677.9625,644.2258 A5.6693,5.6693 0.0000 1,0 672.2932,649.8951 Z"
       style="stroke-width: 1.0001; stroke: #000000; stroke-dasharray: none; stroke-linecap: butt; stroke-linejoin: miter; fill: none; "
       id="path169" />
    <path
       d="  M645.3925,650.6917 A5.6693,5.6693 0.0000 0,0 651.0618,645.0224 A5.6693,5.6693 0.0000 1,0 645.3925,650.6917 Z"
       style="stroke-width: 1.0001; stroke: #000000; stroke-dasharray: none; stroke-linecap: butt; stroke-linejoin: miter; fill: none; "
       id="path170" />
    <path
       d="  M658.2532,650.5131 A5.6693,5.6693 0.0000 0,0 663.9225,644.8438 A5.6693,5.6693 0.0000 1,0 658.2532,650.5131 Z"
       style="stroke-width: 1.0001; stroke: #000000; stroke-dasharray: none; stroke-linecap: butt; stroke-linejoin: miter; fill: none; "
       id="path171" />
  </g>
  <text
     x="354.5376"
     y="750.1714"
     id="text171"><tspan
       font-family="Arial"
       font-size="24.0000"
       fill="#1b1918"
       id="tspan171">
Download from www.ameede.com - www.ameede.net</tspan></text>
</svg>
