<?xml version="1.0" encoding="UTF-8"?>
<!DOCTYPE svg PUBLIC "-//W3C//DTD SVG 1.1//EN" "http://www.w3.org/Graphics/SVG/1.1/DTD/svg11.dtd">
<!-- Creator: CorelDRAW Standard 2024 -->
<svg xmlns="http://www.w3.org/2000/svg" xml:space="preserve" width="1240px" height="1754px" version="1.1" style="shape-rendering:geometricPrecision; text-rendering:geometricPrecision; image-rendering:optimizeQuality; fill-rule:evenodd; clip-rule:evenodd"
viewBox="0 0 124000000 175371400"
 xmlns:xlink="http://www.w3.org/1999/xlink"
 xmlns:xodm="http://www.corel.com/coreldraw/odm/2003">
 <defs>
  <style type="text/css">
   <![CDATA[
    .str0 {stroke:black;stroke-width:88600;stroke-linejoin:bevel;stroke-miterlimit:22.9256}
    .fil0 {fill:none}
   ]]>
  </style>
 </defs>
 <g id="Слой_x0020_1">
  <metadata id="CorelCorpID_0Corel-Layer"/>
  <line class="fil0 str0" x1="47174600" y1="60825100" x2="29347000" y2= "32770500" />
  <line class="fil0 str0" x1="37062300" y1="67251000" x2="47174600" y2= "60825100" />
  <line class="fil0 str0" x1="39105200" y1="70145600" x2="37062300" y2= "67251000" />
  <line class="fil0 str0" x1="49072500" y1="63811800" x2="39105200" y2= "70145600" />
  <line class="fil0 str0" x1="75467800" y1="105349200" x2="49072500" y2= "63811800" />
  <line class="fil0 str0" x1="65500500" y1="111683000" x2="75467800" y2= "105349200" />
  <line class="fil0 str0" x1="67400600" y1="114673200" x2="65500500" y2= "111683000" />
  <line class="fil0 str0" x1="77367900" y1="108339400" x2="67400600" y2= "114673200" />
  <line class="fil0 str0" x1="94119900" y1="134701400" x2="77367900" y2= "108339400" />
  <line class="fil0 str0" x1="106488500" y1="144108100" x2="106488500" y2= "135516400" />
  <line class="fil0 str0" x1="99161400" y1="146511000" x2="104128100" y2= "146511000" />
  <line class="fil0 str0" x1="20695500" y1="146511000" x2="24885000" y2= "146511000" />
  <line class="fil0 str0" x1="17917100" y1="138337800" x2="17917100" y2= "143652600" />
  <path class="fil0 str0" d="M23468900 28860500c-3078600,15100 -5649300,2351800 -5957400,5415100"/>
  <path class="fil0 str0" d="M29347000 32770500c-1523300,-1862800 -3571200,-3225000 -5878100,-3910000"/>
  <path class="fil0 str0" d="M94119900 134701400c1023600,1610900 2799600,2586500 4708200,2586500 1908400,0 3684500,-975600 4708100,-2586500"/>
  <path class="fil0 str0" d="M106488500 135516400c-19300,-703800 -496000,-1312400 -1174700,-1499700 -678600,-187400 -1400000,90500 -1777600,684700"/>
  <path class="fil0 str0" d="M104128100 146511000c1256800,-140300 2242500,-1143700 2360400,-2402900"/>
  <path class="fil0 str0" d="M96798800 145349300c640600,633200 1469900,1041000 2362600,1161700"/>
  <path class="fil0 str0" d="M96798800 145349300c-7906900,-10798500 -20389400,-17301700 -33770100,-17593700 -13380600,-292000 -26134900,5660400 -34505300,16103800"/>
  <path class="fil0 str0" d="M24885000 146511000c1585500,-206100 2956700,-1205500 3638400,-2651600"/>
  <path class="fil0 str0" d="M20291100 128797000c10694100,-25209300 12026100,-53410800 3755600,-79515800"/>
  <path class="fil0 str0" d="M17511500 34275600c314600,5622000 2633000,10945400 6535100,15005000"/>
  <path class="fil0 str0" d="M17917100 143652600c172600,1471700 1312100,2644100 2778400,2858400"/>
  <path class="fil0 str0" d="M20291100 128797000c-1168700,3074300 -1965700,6277300 -2374000,9540800"/>
  <g id="_2730784682624">
   <path class="fil0 str0" d="M116326900 176633000c-707500,-14072500 -17144400,-22080300 -29500200,-22688800"/>
   <path class="fil0 str0" d="M34864900 153944200c-17536900,795500 -30110800,6280900 -29563500,22762700"/>
   <line class="fil0 str0" x1="12426800" y1="170477500" x2="106902900" y2= "170477500" />
   <line class="fil0 str0" x1="34864900" y1="158668000" x2="34864900" y2= "153944200" />
   <line class="fil0 str0" x1="38407800" y1="158668000" x2="34864900" y2= "158668000" />
   <line class="fil0 str0" x1="38407800" y1="153944200" x2="38407800" y2= "158668000" />
   <line class="fil0 str0" x1="41360100" y1="153944200" x2="38407800" y2= "153944200" />
   <line class="fil0 str0" x1="83283900" y1="153944200" x2="80331500" y2= "153944200" />
   <line class="fil0 str0" x1="83283900" y1="158668000" x2="83283900" y2= "153944200" />
   <line class="fil0 str0" x1="86826700" y1="158668000" x2="83283900" y2= "158668000" />
   <line class="fil0 str0" x1="86826700" y1="153944200" x2="86826700" y2= "158668000" />
   <line class="fil0 str0" x1="110426400" y1="177563200" x2="115442300" y2= "177563200" />
   <line class="fil0 str0" x1="6186600" y1="177563200" x2="10421400" y2= "177563200" />
   <path class="fil0 str0" d="M41360100 153944200c4943000,5573400 12036100,8763500 19485700,8763500 7449600,0 14542700,-3190100 19485700,-8763500"/>
   <path class="fil0 str0" d="M115442300 177563200c242600,0 474600,-99500 641800,-275300 167300,-175900 255000,-412500 242800,-654900"/>
   <path class="fil0 str0" d="M5301400 176706900c15800,477500 407500,856300 885200,856300"/>
   <path class="fil0 str0" d="M109554900 176519600c-46800,258300 23400,524100 191700,725600 168300,201500 417300,318000 679800,318000"/>
   <path class="fil0 str0" d="M109554900 176519600c428800,-2366100 -620100,-4755900 -2652000,-6042100"/>
   <path class="fil0 str0" d="M10421400 177563200c318400,0 612200,-170900 769700,-447600 157500,-276700 154400,-616500 -8100,-890300"/>
   <path class="fil0 str0" d="M12426800 170477500c-1856600,1294000 -2399300,3801900 -1243800,5747800"/>
  </g>
  <g id="_2730784741472">
   <path class="fil0 str0" d="M-92553800 135513000c-6388900,-12252500 -19884900,-15374500 -26258600,-15029200 -1673400,90700 -2856000,420400 -3953900,722000 -5699600,1565700 -9119100,2373400 -17504800,14867800"/>
   <line class="fil0 str0" x1="-157227700" y1="131475100" x2="-155715300" y2= "132437300" />
   <line class="fil0 str0" x1="-154764500" y1="132714100" x2="-151436700" y2= "132714100" />
   <line class="fil0 str0" x1="-149340200" y1="131689500" x2="-129879600" y2= "106700700" />
   <line class="fil0 str0" x1="-125081100" y1="110437600" x2="-129879600" y2= "106700700" />
   <line class="fil0 str0" x1="-122868000" y1="107595700" x2="-125081100" y2= "110437600" />
   <line class="fil0 str0" x1="-127666400" y1="103858900" x2="-122868000" y2= "107595700" />
   <line class="fil0 str0" x1="-127666400" y1="103858900" x2="-101129500" y2= "69783500" />
   <line class="fil0 str0" x1="-96331100" y1="73520400" x2="-101129500" y2= "69783500" />
   <line class="fil0 str0" x1="-94117900" y1="70678600" x2="-96331100" y2= "73520400" />
   <line class="fil0 str0" x1="-98916400" y1="66941700" x2="-94117900" y2= "70678600" />
   <line class="fil0 str0" x1="-98916400" y1="66941700" x2="-93957800" y2= "60574500" />
   <line class="fil0 str0" x1="-84640400" y1="56021100" x2="-83763200" y2= "56021100" />
   <line class="fil0 str0" x1="-82427700" y1="67830600" x2="-107914800" y2= "95711600" />
   <line class="fil0 str0" x1="-105734900" y1="113515200" x2="-84607600" y2= "127555800" />
   <line class="fil0 str0" x1="-79334600" y1="137506800" x2="-79334600" y2= "137391400" />
   <line class="fil0 str0" x1="-87318100" y1="138687700" x2="-80515600" y2= "138687700" />
   <line class="fil0 str0" x1="-159048900" y1="138687700" x2="-145173900" y2= "138687700" />
   <line class="fil0 str0" x1="-162001300" y1="135735400" x2="-162001300" y2= "129939300" />
   <path class="fil0 str0" d="M-145173900 138687700c1967700,0 3806200,-980200 4902800,-2614100"/>
   <path class="fil0 str0" d="M-155715300 132437300c284200,180800 614000,276800 950800,276800"/>
   <path class="fil0 str0" d="M-151436700 132714100c819500,0 1593000,-378100 2096500,-1024600"/>
   <path class="fil0 str0" d="M-84640400 56021100c-3641800,0 -7079800,1680200 -9317400,4553400"/>
   <path class="fil0 str0" d="M-79340200 60226700c-118800,-2356200 -2063800,-4205600 -4423000,-4205600"/>
   <path class="fil0 str0" d="M-82427700 67830600c1905100,-2084000 3000400,-4781700 3087500,-7603900"/>
   <path class="fil0 str0" d="M-107914800 95711600c-2326700,2545200 -3424600,5980300 -3005600,9403300 419200,3422800 2313500,6491500 5185500,8400300"/>
   <path class="fil0 str0" d="M-79334600 137391400c0,-3954600 -1979400,-7646700 -5273000,-9835600"/>
   <path class="fil0 str0" d="M-80515600 138687700c652300,0 1181000,-528700 1181000,-1180900"/>
   <path class="fil0 str0" d="M-92553800 135513000c1017400,1951200 3035200,3174700 5235700,3174700"/>
   <path class="fil0 str0" d="M-157718900 128951600c-282400,395800 -389700,890200 -296800,1367300 92800,477200 377800,895300 788000,1156200"/>
   <path class="fil0 str0" d="M-162001300 135735400c0,783000 311100,1534000 864800,2087600 553600,553700 1304600,864700 2087600,864700"/>
   <path class="fil0 str0" d="M-159530900 126878200c-1441500,311400 -2470400,1586400 -2470400,3061100"/>
   <path class="fil0 str0" d="M-158193400 127178200c-418200,-197500 -875000,-300000 -1337500,-300000"/>
   <path class="fil0 str0" d="M-157718900 128951600c319700,-625400 114800,-1391300 -474500,-1773400"/>
  </g>
  <g id="_2730784741376">
   <line class="fil0 str0" x1="-66857900" y1="177322100" x2="-66857900" y2= "172007800" />
   <line class="fil0 str0" x1="-66857900" y1="172007800" x2="-70400800" y2= "172007800" />
   <line class="fil0 str0" x1="-70400800" y1="172007800" x2="-70400800" y2= "177322100" />
   <line class="fil0 str0" x1="-111734100" y1="177322100" x2="-111734100" y2= "172007800" />
   <line class="fil0 str0" x1="-111734100" y1="172007800" x2="-115277000" y2= "172007800" />
   <line class="fil0 str0" x1="-115277000" y1="172007800" x2="-115277000" y2= "177322100" />
   <line class="fil0 str0" x1="-156610300" y1="177322100" x2="-156610300" y2= "172007800" />
   <line class="fil0 str0" x1="-156610300" y1="172007800" x2="-160153100" y2= "172007800" />
   <line class="fil0 str0" x1="-160153100" y1="172007800" x2="-160153100" y2= "177322100" />
   <line class="fil0 str0" x1="-197648400" y1="161140800" x2="-197648400" y2= "156064900" />
   <line class="fil0 str0" x1="-185838900" y1="156064900" x2="-185838900" y2= "156655400" />
   <line class="fil0 str0" x1="-188200800" y1="159017300" x2="-189381700" y2= "159017300" />
   <line class="fil0 str0" x1="-191743600" y1="161379200" x2="-191743600" y2= "163741100" />
   <line class="fil0 str0" x1="-189381700" y1="166103000" x2="-37629300" y2= "166103000" />
   <line class="fil0 str0" x1="-35267400" y1="163741100" x2="-35267400" y2= "161379200" />
   <line class="fil0 str0" x1="-37629300" y1="159017300" x2="-38810300" y2= "159017300" />
   <line class="fil0 str0" x1="-41172200" y1="156655400" x2="-41172200" y2= "156064900" />
   <line class="fil0 str0" x1="-29362700" y1="156064900" x2="-29362700" y2= "161117500" />
   <line class="fil0 str0" x1="-195286500" y1="153703000" x2="-188200800" y2= "153703000" />
   <line class="fil0 str0" x1="-38810300" y1="153703000" x2="-31724600" y2= "153703000" />
   <path class="fil0 str0" d="M-70400800 177322100c-12879400,-7036400 -28453900,-7036400 -41333300,0"/>
   <path class="fil0 str0" d="M-115277000 177322100c-12820400,-7263400 -28512800,-7263400 -41333300,0"/>
   <path class="fil0 str0" d="M-160153100 177322100c-5700300,-5725600 -14176700,-7679400 -21808000,-5026500"/>
   <path class="fil0 str0" d="M-197648400 161140800c0,3822800 1850500,7409200 4965900,9624400 3115400,2215400 7110500,2785600 10721400,1530400"/>
   <path class="fil0 str0" d="M-188200800 159017300c1304500,0 2361900,-1057400 2361900,-2361900"/>
   <path class="fil0 str0" d="M-189381700 159017300c-626500,0 -1227200,248800 -1670100,691800 -443000,442900 -691800,1043700 -691800,1670100"/>
   <path class="fil0 str0" d="M-191743600 163741100c0,626500 248800,1227200 691800,1670100 442900,443000 1043600,691800 1670100,691800"/>
   <path class="fil0 str0" d="M-37629300 166103000c1304400,0 2361900,-1057400 2361900,-2361900"/>
   <path class="fil0 str0" d="M-35267400 161379200c0,-1304400 -1057500,-2361900 -2361900,-2361900"/>
   <path class="fil0 str0" d="M-41172200 156655400c0,626400 248800,1227200 691800,1670100 442900,443000 1043700,691800 1670100,691800"/>
   <path class="fil0 str0" d="M-45077800 172262500c3612600,1265900 7614700,702300 10737200,-1512100 3122500,-2214400 4977900,-5805000 4977900,-9632900"/>
   <path class="fil0 str0" d="M-45077800 172262500c-7627300,-2672900 -16112100,-701800 -21780100,5059600"/>
   <path class="fil0 str0" d="M-185838900 156064900c0,-626400 -248800,-1227200 -691800,-1670100 -442900,-443000 -1043600,-691800 -1670100,-691800"/>
   <path class="fil0 str0" d="M-38810300 153703000c-626400,0 -1227200,248800 -1670100,691800 -443000,442900 -691800,1043700 -691800,1670100"/>
   <path class="fil0 str0" d="M-195286500 153703000c-626400,0 -1227200,248800 -1670100,691800 -443000,442900 -691800,1043700 -691800,1670100"/>
   <path class="fil0 str0" d="M-29362700 156064900c0,-626400 -248800,-1227200 -691800,-1670100 -442900,-443000 -1043600,-691800 -1670100,-691800"/>
  </g>
 </g>
</svg>
