<?xml version='1.0' encoding='utf-8'?>
<svg height="228.80mm" viewBox="0.0 0.0 386.40 228.80" width="386.40mm" xmlns="http://www.w3.org/2000/svg" xmlns:cc="http://creativecommons.org/ns#" xmlns:dc="http://purl.org/dc/elements/1.1/" xmlns:inkscape="http://www.inkscape.org/namespaces/inkscape" xmlns:rdf="http://www.w3.org/1999/02/22-rdf-syntax-ns#" xmlns:svg="http://www.w3.org/2000/svg" xmlns:xlink="http://www.w3.org/1999/xlink">
<!--
ABox - A simple Box


This box is kept simple on purpose. If you need more features have a look at the UniversalBox.


Created with Boxes.py (https://boxes.hackerspace-bamberg.de/)
Creation date: 2026-03-23 11:32:37
Command line (remove spaces between dashes): boxes ABox - -FingerJoint_surroundingspaces=3 - -FingerJoint_finger=3 - -FingerJoint_space=3 - -Lid_height=10 - -x=280 - -y=77 - -h=53 - -outside=0 - -thickness=2 - -spacing=0.5
Url: https://boxes.hackerspace-bamberg.de/ABox?FingerJoint_style=rectangular&FingerJoint_surroundingspaces=3&FingerJoint_bottom_lip=0.0&FingerJoint_edge_width=1.0&FingerJoint_extra_length=0.0&FingerJoint_finger=3&FingerJoint_play=0.0&FingerJoint_space=3&FingerJoint_width=1.0&Lid_handle=none&Lid_style=none&Lid_handle_height=8.0&Lid_height=10&Lid_play=0.1&x=280&y=77&h=53&outside=0&bottom_edge=h&thickness=2&burn=0.1&format=svg&labels=0&labels=1&reference=100.0&tabs=0.0&qr_code=0&inner_corners=loop&spacing=0.5&debug=0&language=en&render=2
Url short: https://boxes.hackerspace-bamberg.de/ABox?FingerJoint_surroundingspaces=3&FingerJoint_finger=3&FingerJoint_space=3&Lid_height=10&x=280&y=77&h=53&outside=0&thickness=2&spacing=0.5
SettingsUrl: https://boxes.hackerspace-bamberg.de/ABox?FingerJoint_style=rectangular&FingerJoint_surroundingspaces=3&FingerJoint_bottom_lip=0.0&FingerJoint_edge_width=1.0&FingerJoint_extra_length=0.0&FingerJoint_finger=3&FingerJoint_play=0.0&FingerJoint_space=3&FingerJoint_width=1.0&Lid_handle=none&Lid_style=none&Lid_handle_height=8.0&Lid_height=10&Lid_play=0.1&x=280&y=77&h=53&outside=0&bottom_edge=h&thickness=2&burn=0.1&format=svg&labels=0&labels=1&reference=100.0&tabs=0.0&qr_code=0&inner_corners=loop&spacing=0.5&debug=0&language=en&render=2
SettingsUrl short: https://boxes.hackerspace-bamberg.de/ABox?FingerJoint_surroundingspaces=3&FingerJoint_finger=3&FingerJoint_space=3&Lid_height=10&x=280&y=77&h=53&outside=0&thickness=2&spacing=0.5
-->
<title>ABox</title>
<metadata>
<rdf:RDF><cc:Work>
<dc:title>Box - ABox</dc:title>
<dc:date>2026-03-23 11:32:37</dc:date>
<dc:source>https://boxes.hackerspace-bamberg.de/ABox?FingerJoint_style=rectangular&amp;FingerJoint_surroundingspaces=3&amp;FingerJoint_bottom_lip=0.0&amp;FingerJoint_edge_width=1.0&amp;FingerJoint_extra_length=0.0&amp;FingerJoint_finger=3&amp;FingerJoint_play=0.0&amp;FingerJoint_space=3&amp;FingerJoint_width=1.0&amp;Lid_handle=none&amp;Lid_style=none&amp;Lid_handle_height=8.0&amp;Lid_height=10&amp;Lid_play=0.1&amp;x=280&amp;y=77&amp;h=53&amp;outside=0&amp;bottom_edge=h&amp;thickness=2&amp;burn=0.1&amp;format=svg&amp;labels=0&amp;labels=1&amp;reference=100.0&amp;tabs=0.0&amp;qr_code=0&amp;inner_corners=loop&amp;spacing=0.5&amp;debug=0&amp;language=en&amp;render=2</dc:source>
<dc:source>https://boxes.hackerspace-bamberg.de/ABox?FingerJoint_surroundingspaces=3&amp;FingerJoint_finger=3&amp;FingerJoint_space=3&amp;Lid_height=10&amp;x=280&amp;y=77&amp;h=53&amp;outside=0&amp;thickness=2&amp;spacing=0.5</dc:source>
<dc:description>A simple Box

This box is kept simple on purpose. If you need more features have a look at the UniversalBox.

Created with Boxes.py (https://boxes.hackerspace-bamberg.de/)
Command line: boxes ABox --FingerJoint_style=rectangular --FingerJoint_surroundingspaces=3 --FingerJoint_bottom_lip=0.0 --FingerJoint_edge_width=1.0 --FingerJoint_extra_length=0.0 --FingerJoint_finger=3 --FingerJoint_play=0.0 --FingerJoint_space=3 --FingerJoint_width=1.0 --Lid_handle=none --Lid_style=none --Lid_handle_height=8.0 --Lid_height=10 --Lid_play=0.1 --x=280 --y=77 --h=53 --outside=0 --bottom_edge=h --thickness=2 --burn=0.1 --format=svg --labels=0 --labels=1 --reference=100.0 --tabs=0.0 --qr_code=0 --inner_corners=loop --spacing=0.5 --debug=0
Command line short: boxes ABox --FingerJoint_surroundingspaces=3 --FingerJoint_finger=3 --FingerJoint_space=3 --Lid_height=10 --x=280 --y=77 --h=53 --outside=0 --thickness=2 --spacing=0.5
Url: https://boxes.hackerspace-bamberg.de/ABox?FingerJoint_style=rectangular&amp;FingerJoint_surroundingspaces=3&amp;FingerJoint_bottom_lip=0.0&amp;FingerJoint_edge_width=1.0&amp;FingerJoint_extra_length=0.0&amp;FingerJoint_finger=3&amp;FingerJoint_play=0.0&amp;FingerJoint_space=3&amp;FingerJoint_width=1.0&amp;Lid_handle=none&amp;Lid_style=none&amp;Lid_handle_height=8.0&amp;Lid_height=10&amp;Lid_play=0.1&amp;x=280&amp;y=77&amp;h=53&amp;outside=0&amp;bottom_edge=h&amp;thickness=2&amp;burn=0.1&amp;format=svg&amp;labels=0&amp;labels=1&amp;reference=100.0&amp;tabs=0.0&amp;qr_code=0&amp;inner_corners=loop&amp;spacing=0.5&amp;debug=0&amp;language=en&amp;render=2
Url short: https://boxes.hackerspace-bamberg.de/ABox?FingerJoint_surroundingspaces=3&amp;FingerJoint_finger=3&amp;FingerJoint_space=3&amp;Lid_height=10&amp;x=280&amp;y=77&amp;h=53&amp;outside=0&amp;thickness=2&amp;spacing=0.5
SettingsUrl: https://boxes.hackerspace-bamberg.de/ABox?FingerJoint_style=rectangular&amp;FingerJoint_surroundingspaces=3&amp;FingerJoint_bottom_lip=0.0&amp;FingerJoint_edge_width=1.0&amp;FingerJoint_extra_length=0.0&amp;FingerJoint_finger=3&amp;FingerJoint_play=0.0&amp;FingerJoint_space=3&amp;FingerJoint_width=1.0&amp;Lid_handle=none&amp;Lid_style=none&amp;Lid_handle_height=8.0&amp;Lid_height=10&amp;Lid_play=0.1&amp;x=280&amp;y=77&amp;h=53&amp;outside=0&amp;bottom_edge=h&amp;thickness=2&amp;burn=0.1&amp;format=svg&amp;labels=0&amp;labels=1&amp;reference=100.0&amp;tabs=0.0&amp;qr_code=0&amp;inner_corners=loop&amp;spacing=0.5&amp;debug=0&amp;language=en&amp;render=2
SettingsUrl short: https://boxes.hackerspace-bamberg.de/ABox?FingerJoint_surroundingspaces=3&amp;FingerJoint_finger=3&amp;FingerJoint_space=3&amp;Lid_height=10&amp;x=280&amp;y=77&amp;h=53&amp;outside=0&amp;thickness=2&amp;spacing=0.5
</dc:description>
</cc:Work></rdf:RDF></metadata>
<g id="p-0" style="fill:none;stroke-linecap:round;stroke-linejoin:round;">
  <path d="M 10.100 218.800 H 110.100 V 208.800 H 10.100 V 218.800 Z" stroke="rgb(0,0,0)" stroke-width="0.20" />
  <text dominant-baseline="hanging" font-size="6px" style="font-family: sans-serif ; font-weight: normal; font-style: normal; fill: rgb(255,0,0)" text-anchor="middle" transform="matrix( 1.000 0.000 0.000 1.000 60.100 210.800 )">100.0mm, burn:0.10mm</text>
</g>
<g id="p-1" style="fill:none;stroke-linecap:round;stroke-linejoin:round;">
  <path d="M 26.100 205.400 H 23.200 C 23.100 205.400 23.200 205.500 23.200 205.400 V 203.600 C 23.200 203.500 23.100 203.600 23.200 203.600 H 29.000 C 29.100 203.600 29.000 203.500 29.000 203.600 V 205.400 C 29.000 205.500 29.100 205.400 29.000 205.400 H 26.100 Z" stroke="rgb(0,0,255)" stroke-width="0.20" />
  <path d="M 38.100 205.400 H 35.200 C 35.100 205.400 35.200 205.500 35.200 205.400 V 203.600 C 35.200 203.500 35.100 203.600 35.200 203.600 H 41.000 C 41.100 203.600 41.000 203.500 41.000 203.600 V 205.400 C 41.000 205.500 41.100 205.400 41.000 205.400 H 38.100 Z" stroke="rgb(0,0,255)" stroke-width="0.20" />
  <path d="M 50.100 205.400 H 47.200 C 47.100 205.400 47.200 205.500 47.200 205.400 V 203.600 C 47.200 203.500 47.100 203.600 47.200 203.600 H 53.000 C 53.100 203.600 53.000 203.500 53.000 203.600 V 205.400 C 53.000 205.500 53.100 205.400 53.000 205.400 H 50.100 Z" stroke="rgb(0,0,255)" stroke-width="0.20" />
  <path d="M 62.100 205.400 H 59.200 C 59.100 205.400 59.200 205.500 59.200 205.400 V 203.600 C 59.200 203.500 59.100 203.600 59.200 203.600 H 65.000 C 65.100 203.600 65.000 203.500 65.000 203.600 V 205.400 C 65.000 205.500 65.100 205.400 65.000 205.400 H 62.100 Z" stroke="rgb(0,0,255)" stroke-width="0.20" />
  <path d="M 74.100 205.400 H 71.200 C 71.100 205.400 71.200 205.500 71.200 205.400 V 203.600 C 71.200 203.500 71.100 203.600 71.200 203.600 H 77.000 C 77.100 203.600 77.000 203.500 77.000 203.600 V 205.400 C 77.000 205.500 77.100 205.400 77.000 205.400 H 74.100 Z" stroke="rgb(0,0,255)" stroke-width="0.20" />
  <path d="M 86.100 205.400 H 83.200 C 83.100 205.400 83.200 205.500 83.200 205.400 V 203.600 C 83.200 203.500 83.100 203.600 83.200 203.600 H 89.000 C 89.100 203.600 89.000 203.500 89.000 203.600 V 205.400 C 89.000 205.500 89.100 205.400 89.000 205.400 H 86.100 Z" stroke="rgb(0,0,255)" stroke-width="0.20" />
  <path d="M 98.100 205.400 H 95.200 C 95.100 205.400 95.200 205.500 95.200 205.400 V 203.600 C 95.200 203.500 95.100 203.600 95.200 203.600 H 101.000 C 101.100 203.600 101.000 203.500 101.000 203.600 V 205.400 C 101.000 205.500 101.100 205.400 101.000 205.400 H 98.100 Z" stroke="rgb(0,0,255)" stroke-width="0.20" />
  <path d="M 110.100 205.400 H 107.200 C 107.100 205.400 107.200 205.500 107.200 205.400 V 203.600 C 107.200 203.500 107.100 203.600 107.200 203.600 H 113.000 C 113.100 203.600 113.000 203.500 113.000 203.600 V 205.400 C 113.000 205.500 113.100 205.400 113.000 205.400 H 110.100 Z" stroke="rgb(0,0,255)" stroke-width="0.20" />
  <path d="M 122.100 205.400 H 119.200 C 119.100 205.400 119.200 205.500 119.200 205.400 V 203.600 C 119.200 203.500 119.100 203.600 119.200 203.600 H 125.000 C 125.100 203.600 125.000 203.500 125.000 203.600 V 205.400 C 125.000 205.500 125.100 205.400 125.000 205.400 H 122.100 Z" stroke="rgb(0,0,255)" stroke-width="0.20" />
  <path d="M 134.100 205.400 H 131.200 C 131.100 205.400 131.200 205.500 131.200 205.400 V 203.600 C 131.200 203.500 131.100 203.600 131.200 203.600 H 137.000 C 137.100 203.600 137.000 203.500 137.000 203.600 V 205.400 C 137.000 205.500 137.100 205.400 137.000 205.400 H 134.100 Z" stroke="rgb(0,0,255)" stroke-width="0.20" />
  <path d="M 146.100 205.400 H 143.200 C 143.100 205.400 143.200 205.500 143.200 205.400 V 203.600 C 143.200 203.500 143.100 203.600 143.200 203.600 H 149.000 C 149.100 203.600 149.000 203.500 149.000 203.600 V 205.400 C 149.000 205.500 149.100 205.400 149.000 205.400 H 146.100 Z" stroke="rgb(0,0,255)" stroke-width="0.20" />
  <path d="M 158.100 205.400 H 155.200 C 155.100 205.400 155.200 205.500 155.200 205.400 V 203.600 C 155.200 203.500 155.100 203.600 155.200 203.600 H 161.000 C 161.100 203.600 161.000 203.500 161.000 203.600 V 205.400 C 161.000 205.500 161.100 205.400 161.000 205.400 H 158.100 Z" stroke="rgb(0,0,255)" stroke-width="0.20" />
  <path d="M 170.100 205.400 H 167.200 C 167.100 205.400 167.200 205.500 167.200 205.400 V 203.600 C 167.200 203.500 167.100 203.600 167.200 203.600 H 173.000 C 173.100 203.600 173.000 203.500 173.000 203.600 V 205.400 C 173.000 205.500 173.100 205.400 173.000 205.400 H 170.100 Z" stroke="rgb(0,0,255)" stroke-width="0.20" />
  <path d="M 182.100 205.400 H 179.200 C 179.100 205.400 179.200 205.500 179.200 205.400 V 203.600 C 179.200 203.500 179.100 203.600 179.200 203.600 H 185.000 C 185.100 203.600 185.000 203.500 185.000 203.600 V 205.400 C 185.000 205.500 185.100 205.400 185.000 205.400 H 182.100 Z" stroke="rgb(0,0,255)" stroke-width="0.20" />
  <path d="M 194.100 205.400 H 191.200 C 191.100 205.400 191.200 205.500 191.200 205.400 V 203.600 C 191.200 203.500 191.100 203.600 191.200 203.600 H 197.000 C 197.100 203.600 197.000 203.500 197.000 203.600 V 205.400 C 197.000 205.500 197.100 205.400 197.000 205.400 H 194.100 Z" stroke="rgb(0,0,255)" stroke-width="0.20" />
  <path d="M 206.100 205.400 H 203.200 C 203.100 205.400 203.200 205.500 203.200 205.400 V 203.600 C 203.200 203.500 203.100 203.600 203.200 203.600 H 209.000 C 209.100 203.600 209.000 203.500 209.000 203.600 V 205.400 C 209.000 205.500 209.100 205.400 209.000 205.400 H 206.100 Z" stroke="rgb(0,0,255)" stroke-width="0.20" />
  <path d="M 218.100 205.400 H 215.200 C 215.100 205.400 215.200 205.500 215.200 205.400 V 203.600 C 215.200 203.500 215.100 203.600 215.200 203.600 H 221.000 C 221.100 203.600 221.000 203.500 221.000 203.600 V 205.400 C 221.000 205.500 221.100 205.400 221.000 205.400 H 218.100 Z" stroke="rgb(0,0,255)" stroke-width="0.20" />
  <path d="M 230.100 205.400 H 227.200 C 227.100 205.400 227.200 205.500 227.200 205.400 V 203.600 C 227.200 203.500 227.100 203.600 227.200 203.600 H 233.000 C 233.100 203.600 233.000 203.500 233.000 203.600 V 205.400 C 233.000 205.500 233.100 205.400 233.000 205.400 H 230.100 Z" stroke="rgb(0,0,255)" stroke-width="0.20" />
  <path d="M 242.100 205.400 H 239.200 C 239.100 205.400 239.200 205.500 239.200 205.400 V 203.600 C 239.200 203.500 239.100 203.600 239.200 203.600 H 245.000 C 245.100 203.600 245.000 203.500 245.000 203.600 V 205.400 C 245.000 205.500 245.100 205.400 245.000 205.400 H 242.100 Z" stroke="rgb(0,0,255)" stroke-width="0.20" />
  <path d="M 254.100 205.400 H 251.200 C 251.100 205.400 251.200 205.500 251.200 205.400 V 203.600 C 251.200 203.500 251.100 203.600 251.200 203.600 H 257.000 C 257.100 203.600 257.000 203.500 257.000 203.600 V 205.400 C 257.000 205.500 257.100 205.400 257.000 205.400 H 254.100 Z" stroke="rgb(0,0,255)" stroke-width="0.20" />
  <path d="M 266.100 205.400 H 263.200 C 263.100 205.400 263.200 205.500 263.200 205.400 V 203.600 C 263.200 203.500 263.100 203.600 263.200 203.600 H 269.000 C 269.100 203.600 269.000 203.500 269.000 203.600 V 205.400 C 269.000 205.500 269.100 205.400 269.000 205.400 H 266.100 Z" stroke="rgb(0,0,255)" stroke-width="0.20" />
  <path d="M 278.100 205.400 H 275.200 C 275.100 205.400 275.200 205.500 275.200 205.400 V 203.600 C 275.200 203.500 275.100 203.600 275.200 203.600 H 281.000 C 281.100 203.600 281.000 203.500 281.000 203.600 V 205.400 C 281.000 205.500 281.100 205.400 281.000 205.400 H 278.100 Z" stroke="rgb(0,0,255)" stroke-width="0.20" />
  <path d="M 12.100 207.600 H 292.100 H 294.100 C 294.155 207.600 294.200 207.555 294.200 207.500 V 194.000 C 294.200 193.945 294.155 193.900 294.100 193.900 H 292.200 C 292.100 193.900 292.200 194.000 292.200 193.900 V 188.100 C 292.200 188.000 292.100 188.100 292.200 188.100 H 294.100 C 294.155 188.100 294.200 188.055 294.200 188.000 V 182.000 C 294.200 181.945 294.155 181.900 294.100 181.900 H 292.200 C 292.100 181.900 292.200 182.000 292.200 181.900 V 176.100 C 292.200 176.000 292.100 176.100 292.200 176.100 H 294.100 C 294.155 176.100 294.200 176.055 294.200 176.000 V 170.000 C 294.200 169.945 294.155 169.900 294.100 169.900 H 292.200 C 292.100 169.900 292.200 170.000 292.200 169.900 V 164.100 C 292.200 164.000 292.100 164.100 292.200 164.100 H 294.100 C 294.155 164.100 294.200 164.055 294.200 164.000 V 150.500 C 294.200 150.445 294.155 150.400 294.100 150.400 H 292.100 H 12.100 H 10.100 C 10.045 150.400 10.000 150.445 10.000 150.500 V 164.000 C 10.000 164.055 10.045 164.100 10.100 164.100 H 12.000 C 12.100 164.100 12.000 164.000 12.000 164.100 V 169.900 C 12.000 170.000 12.100 169.900 12.000 169.900 H 10.100 C 10.045 169.900 10.000 169.945 10.000 170.000 V 176.000 C 10.000 176.055 10.045 176.100 10.100 176.100 H 12.000 C 12.100 176.100 12.000 176.000 12.000 176.100 V 181.900 C 12.000 182.000 12.100 181.900 12.000 181.900 H 10.100 C 10.045 181.900 10.000 181.945 10.000 182.000 V 188.000 C 10.000 188.055 10.045 188.100 10.100 188.100 H 12.000 C 12.100 188.100 12.000 188.000 12.000 188.100 V 193.900 C 12.000 194.000 12.100 193.900 12.000 193.900 H 10.100 C 10.045 193.900 10.000 193.945 10.000 194.000 V 207.500 C 10.000 207.555 10.045 207.600 10.100 207.600 H 12.100 Z" stroke="rgb(0,0,0)" stroke-width="0.20" />
</g>
<g id="p-2" style="fill:none;stroke-linecap:round;stroke-linejoin:round;">
  <path d="M 26.100 147.200 H 23.200 C 23.100 147.200 23.200 147.300 23.200 147.200 V 145.400 C 23.200 145.300 23.100 145.400 23.200 145.400 H 29.000 C 29.100 145.400 29.000 145.300 29.000 145.400 V 147.200 C 29.000 147.300 29.100 147.200 29.000 147.200 H 26.100 Z" stroke="rgb(0,0,255)" stroke-width="0.20" />
  <path d="M 38.100 147.200 H 35.200 C 35.100 147.200 35.200 147.300 35.200 147.200 V 145.400 C 35.200 145.300 35.100 145.400 35.200 145.400 H 41.000 C 41.100 145.400 41.000 145.300 41.000 145.400 V 147.200 C 41.000 147.300 41.100 147.200 41.000 147.200 H 38.100 Z" stroke="rgb(0,0,255)" stroke-width="0.20" />
  <path d="M 50.100 147.200 H 47.200 C 47.100 147.200 47.200 147.300 47.200 147.200 V 145.400 C 47.200 145.300 47.100 145.400 47.200 145.400 H 53.000 C 53.100 145.400 53.000 145.300 53.000 145.400 V 147.200 C 53.000 147.300 53.100 147.200 53.000 147.200 H 50.100 Z" stroke="rgb(0,0,255)" stroke-width="0.20" />
  <path d="M 62.100 147.200 H 59.200 C 59.100 147.200 59.200 147.300 59.200 147.200 V 145.400 C 59.200 145.300 59.100 145.400 59.200 145.400 H 65.000 C 65.100 145.400 65.000 145.300 65.000 145.400 V 147.200 C 65.000 147.300 65.100 147.200 65.000 147.200 H 62.100 Z" stroke="rgb(0,0,255)" stroke-width="0.20" />
  <path d="M 74.100 147.200 H 71.200 C 71.100 147.200 71.200 147.300 71.200 147.200 V 145.400 C 71.200 145.300 71.100 145.400 71.200 145.400 H 77.000 C 77.100 145.400 77.000 145.300 77.000 145.400 V 147.200 C 77.000 147.300 77.100 147.200 77.000 147.200 H 74.100 Z" stroke="rgb(0,0,255)" stroke-width="0.20" />
  <path d="M 86.100 147.200 H 83.200 C 83.100 147.200 83.200 147.300 83.200 147.200 V 145.400 C 83.200 145.300 83.100 145.400 83.200 145.400 H 89.000 C 89.100 145.400 89.000 145.300 89.000 145.400 V 147.200 C 89.000 147.300 89.100 147.200 89.000 147.200 H 86.100 Z" stroke="rgb(0,0,255)" stroke-width="0.20" />
  <path d="M 98.100 147.200 H 95.200 C 95.100 147.200 95.200 147.300 95.200 147.200 V 145.400 C 95.200 145.300 95.100 145.400 95.200 145.400 H 101.000 C 101.100 145.400 101.000 145.300 101.000 145.400 V 147.200 C 101.000 147.300 101.100 147.200 101.000 147.200 H 98.100 Z" stroke="rgb(0,0,255)" stroke-width="0.20" />
  <path d="M 110.100 147.200 H 107.200 C 107.100 147.200 107.200 147.300 107.200 147.200 V 145.400 C 107.200 145.300 107.100 145.400 107.200 145.400 H 113.000 C 113.100 145.400 113.000 145.300 113.000 145.400 V 147.200 C 113.000 147.300 113.100 147.200 113.000 147.200 H 110.100 Z" stroke="rgb(0,0,255)" stroke-width="0.20" />
  <path d="M 122.100 147.200 H 119.200 C 119.100 147.200 119.200 147.300 119.200 147.200 V 145.400 C 119.200 145.300 119.100 145.400 119.200 145.400 H 125.000 C 125.100 145.400 125.000 145.300 125.000 145.400 V 147.200 C 125.000 147.300 125.100 147.200 125.000 147.200 H 122.100 Z" stroke="rgb(0,0,255)" stroke-width="0.20" />
  <path d="M 134.100 147.200 H 131.200 C 131.100 147.200 131.200 147.300 131.200 147.200 V 145.400 C 131.200 145.300 131.100 145.400 131.200 145.400 H 137.000 C 137.100 145.400 137.000 145.300 137.000 145.400 V 147.200 C 137.000 147.300 137.100 147.200 137.000 147.200 H 134.100 Z" stroke="rgb(0,0,255)" stroke-width="0.20" />
  <path d="M 146.100 147.200 H 143.200 C 143.100 147.200 143.200 147.300 143.200 147.200 V 145.400 C 143.200 145.300 143.100 145.400 143.200 145.400 H 149.000 C 149.100 145.400 149.000 145.300 149.000 145.400 V 147.200 C 149.000 147.300 149.100 147.200 149.000 147.200 H 146.100 Z" stroke="rgb(0,0,255)" stroke-width="0.20" />
  <path d="M 158.100 147.200 H 155.200 C 155.100 147.200 155.200 147.300 155.200 147.200 V 145.400 C 155.200 145.300 155.100 145.400 155.200 145.400 H 161.000 C 161.100 145.400 161.000 145.300 161.000 145.400 V 147.200 C 161.000 147.300 161.100 147.200 161.000 147.200 H 158.100 Z" stroke="rgb(0,0,255)" stroke-width="0.20" />
  <path d="M 170.100 147.200 H 167.200 C 167.100 147.200 167.200 147.300 167.200 147.200 V 145.400 C 167.200 145.300 167.100 145.400 167.200 145.400 H 173.000 C 173.100 145.400 173.000 145.300 173.000 145.400 V 147.200 C 173.000 147.300 173.100 147.200 173.000 147.200 H 170.100 Z" stroke="rgb(0,0,255)" stroke-width="0.20" />
  <path d="M 182.100 147.200 H 179.200 C 179.100 147.200 179.200 147.300 179.200 147.200 V 145.400 C 179.200 145.300 179.100 145.400 179.200 145.400 H 185.000 C 185.100 145.400 185.000 145.300 185.000 145.400 V 147.200 C 185.000 147.300 185.100 147.200 185.000 147.200 H 182.100 Z" stroke="rgb(0,0,255)" stroke-width="0.20" />
  <path d="M 194.100 147.200 H 191.200 C 191.100 147.200 191.200 147.300 191.200 147.200 V 145.400 C 191.200 145.300 191.100 145.400 191.200 145.400 H 197.000 C 197.100 145.400 197.000 145.300 197.000 145.400 V 147.200 C 197.000 147.300 197.100 147.200 197.000 147.200 H 194.100 Z" stroke="rgb(0,0,255)" stroke-width="0.20" />
  <path d="M 206.100 147.200 H 203.200 C 203.100 147.200 203.200 147.300 203.200 147.200 V 145.400 C 203.200 145.300 203.100 145.400 203.200 145.400 H 209.000 C 209.100 145.400 209.000 145.300 209.000 145.400 V 147.200 C 209.000 147.300 209.100 147.200 209.000 147.200 H 206.100 Z" stroke="rgb(0,0,255)" stroke-width="0.20" />
  <path d="M 218.100 147.200 H 215.200 C 215.100 147.200 215.200 147.300 215.200 147.200 V 145.400 C 215.200 145.300 215.100 145.400 215.200 145.400 H 221.000 C 221.100 145.400 221.000 145.300 221.000 145.400 V 147.200 C 221.000 147.300 221.100 147.200 221.000 147.200 H 218.100 Z" stroke="rgb(0,0,255)" stroke-width="0.20" />
  <path d="M 230.100 147.200 H 227.200 C 227.100 147.200 227.200 147.300 227.200 147.200 V 145.400 C 227.200 145.300 227.100 145.400 227.200 145.400 H 233.000 C 233.100 145.400 233.000 145.300 233.000 145.400 V 147.200 C 233.000 147.300 233.100 147.200 233.000 147.200 H 230.100 Z" stroke="rgb(0,0,255)" stroke-width="0.20" />
  <path d="M 242.100 147.200 H 239.200 C 239.100 147.200 239.200 147.300 239.200 147.200 V 145.400 C 239.200 145.300 239.100 145.400 239.200 145.400 H 245.000 C 245.100 145.400 245.000 145.300 245.000 145.400 V 147.200 C 245.000 147.300 245.100 147.200 245.000 147.200 H 242.100 Z" stroke="rgb(0,0,255)" stroke-width="0.20" />
  <path d="M 254.100 147.200 H 251.200 C 251.100 147.200 251.200 147.300 251.200 147.200 V 145.400 C 251.200 145.300 251.100 145.400 251.200 145.400 H 257.000 C 257.100 145.400 257.000 145.300 257.000 145.400 V 147.200 C 257.000 147.300 257.100 147.200 257.000 147.200 H 254.100 Z" stroke="rgb(0,0,255)" stroke-width="0.20" />
  <path d="M 266.100 147.200 H 263.200 C 263.100 147.200 263.200 147.300 263.200 147.200 V 145.400 C 263.200 145.300 263.100 145.400 263.200 145.400 H 269.000 C 269.100 145.400 269.000 145.300 269.000 145.400 V 147.200 C 269.000 147.300 269.100 147.200 269.000 147.200 H 266.100 Z" stroke="rgb(0,0,255)" stroke-width="0.20" />
  <path d="M 278.100 147.200 H 275.200 C 275.100 147.200 275.200 147.300 275.200 147.200 V 145.400 C 275.200 145.300 275.100 145.400 275.200 145.400 H 281.000 C 281.100 145.400 281.000 145.300 281.000 145.400 V 147.200 C 281.000 147.300 281.100 147.200 281.000 147.200 H 278.100 Z" stroke="rgb(0,0,255)" stroke-width="0.20" />
  <path d="M 12.100 149.400 H 292.100 H 294.100 C 294.155 149.400 294.200 149.355 294.200 149.300 V 135.800 C 294.200 135.745 294.155 135.700 294.100 135.700 H 292.200 C 292.100 135.700 292.200 135.800 292.200 135.700 V 129.900 C 292.200 129.800 292.100 129.900 292.200 129.900 H 294.100 C 294.155 129.900 294.200 129.855 294.200 129.800 V 123.800 C 294.200 123.745 294.155 123.700 294.100 123.700 H 292.200 C 292.100 123.700 292.200 123.800 292.200 123.700 V 117.900 C 292.200 117.800 292.100 117.900 292.200 117.900 H 294.100 C 294.155 117.900 294.200 117.855 294.200 117.800 V 111.800 C 294.200 111.745 294.155 111.700 294.100 111.700 H 292.200 C 292.100 111.700 292.200 111.800 292.200 111.700 V 105.900 C 292.200 105.800 292.100 105.900 292.200 105.900 H 294.100 C 294.155 105.900 294.200 105.855 294.200 105.800 V 92.300 C 294.200 92.245 294.155 92.200 294.100 92.200 H 292.100 H 12.100 H 10.100 C 10.045 92.200 10.000 92.245 10.000 92.300 V 105.800 C 10.000 105.855 10.045 105.900 10.100 105.900 H 12.000 C 12.100 105.900 12.000 105.800 12.000 105.900 V 111.700 C 12.000 111.800 12.100 111.700 12.000 111.700 H 10.100 C 10.045 111.700 10.000 111.745 10.000 111.800 V 117.800 C 10.000 117.855 10.045 117.900 10.100 117.900 H 12.000 C 12.100 117.900 12.000 117.800 12.000 117.900 V 123.700 C 12.000 123.800 12.100 123.700 12.000 123.700 H 10.100 C 10.045 123.700 10.000 123.745 10.000 123.800 V 129.800 C 10.000 129.855 10.045 129.900 10.100 129.900 H 12.000 C 12.100 129.900 12.000 129.800 12.000 129.900 V 135.700 C 12.000 135.800 12.100 135.700 12.000 135.700 H 10.100 C 10.045 135.700 10.000 135.745 10.000 135.800 V 149.300 C 10.000 149.355 10.045 149.400 10.100 149.400 H 12.100 Z" stroke="rgb(0,0,0)" stroke-width="0.20" />
</g>
<g id="p-3" style="fill:none;stroke-linecap:round;stroke-linejoin:round;">
  <path d="M 12.100 89.200 H 23.000 C 23.100 89.200 23.000 89.100 23.000 89.200 V 91.100 C 23.000 91.155 23.045 91.200 23.100 91.200 H 29.100 C 29.155 91.200 29.200 91.155 29.200 91.100 V 89.200 C 29.200 89.100 29.100 89.200 29.200 89.200 H 35.000 C 35.100 89.200 35.000 89.100 35.000 89.200 V 91.100 C 35.000 91.155 35.045 91.200 35.100 91.200 H 41.100 C 41.155 91.200 41.200 91.155 41.200 91.100 V 89.200 C 41.200 89.100 41.100 89.200 41.200 89.200 H 47.000 C 47.100 89.200 47.000 89.100 47.000 89.200 V 91.100 C 47.000 91.155 47.045 91.200 47.100 91.200 H 53.100 C 53.155 91.200 53.200 91.155 53.200 91.100 V 89.200 C 53.200 89.100 53.100 89.200 53.200 89.200 H 59.000 C 59.100 89.200 59.000 89.100 59.000 89.200 V 91.100 C 59.000 91.155 59.045 91.200 59.100 91.200 H 65.100 C 65.155 91.200 65.200 91.155 65.200 91.100 V 89.200 C 65.200 89.100 65.100 89.200 65.200 89.200 H 71.000 C 71.100 89.200 71.000 89.100 71.000 89.200 V 91.100 C 71.000 91.155 71.045 91.200 71.100 91.200 H 77.100 C 77.155 91.200 77.200 91.155 77.200 91.100 V 89.200 C 77.200 89.100 77.100 89.200 77.200 89.200 H 83.000 C 83.100 89.200 83.000 89.100 83.000 89.200 V 91.100 C 83.000 91.155 83.045 91.200 83.100 91.200 H 89.100 C 89.155 91.200 89.200 91.155 89.200 91.100 V 89.200 C 89.200 89.100 89.100 89.200 89.200 89.200 H 95.000 C 95.100 89.200 95.000 89.100 95.000 89.200 V 91.100 C 95.000 91.155 95.045 91.200 95.100 91.200 H 101.100 C 101.155 91.200 101.200 91.155 101.200 91.100 V 89.200 C 101.200 89.100 101.100 89.200 101.200 89.200 H 107.000 C 107.100 89.200 107.000 89.100 107.000 89.200 V 91.100 C 107.000 91.155 107.045 91.200 107.100 91.200 H 113.100 C 113.155 91.200 113.200 91.155 113.200 91.100 V 89.200 C 113.200 89.100 113.100 89.200 113.200 89.200 H 119.000 C 119.100 89.200 119.000 89.100 119.000 89.200 V 91.100 C 119.000 91.155 119.045 91.200 119.100 91.200 H 125.100 C 125.155 91.200 125.200 91.155 125.200 91.100 V 89.200 C 125.200 89.100 125.100 89.200 125.200 89.200 H 131.000 C 131.100 89.200 131.000 89.100 131.000 89.200 V 91.100 C 131.000 91.155 131.045 91.200 131.100 91.200 H 137.100 C 137.155 91.200 137.200 91.155 137.200 91.100 V 89.200 C 137.200 89.100 137.100 89.200 137.200 89.200 H 143.000 C 143.100 89.200 143.000 89.100 143.000 89.200 V 91.100 C 143.000 91.155 143.045 91.200 143.100 91.200 H 149.100 C 149.155 91.200 149.200 91.155 149.200 91.100 V 89.200 C 149.200 89.100 149.100 89.200 149.200 89.200 H 155.000 C 155.100 89.200 155.000 89.100 155.000 89.200 V 91.100 C 155.000 91.155 155.045 91.200 155.100 91.200 H 161.100 C 161.155 91.200 161.200 91.155 161.200 91.100 V 89.200 C 161.200 89.100 161.100 89.200 161.200 89.200 H 167.000 C 167.100 89.200 167.000 89.100 167.000 89.200 V 91.100 C 167.000 91.155 167.045 91.200 167.100 91.200 H 173.100 C 173.155 91.200 173.200 91.155 173.200 91.100 V 89.200 C 173.200 89.100 173.100 89.200 173.200 89.200 H 179.000 C 179.100 89.200 179.000 89.100 179.000 89.200 V 91.100 C 179.000 91.155 179.045 91.200 179.100 91.200 H 185.100 C 185.155 91.200 185.200 91.155 185.200 91.100 V 89.200 C 185.200 89.100 185.100 89.200 185.200 89.200 H 191.000 C 191.100 89.200 191.000 89.100 191.000 89.200 V 91.100 C 191.000 91.155 191.045 91.200 191.100 91.200 H 197.100 C 197.155 91.200 197.200 91.155 197.200 91.100 V 89.200 C 197.200 89.100 197.100 89.200 197.200 89.200 H 203.000 C 203.100 89.200 203.000 89.100 203.000 89.200 V 91.100 C 203.000 91.155 203.045 91.200 203.100 91.200 H 209.100 C 209.155 91.200 209.200 91.155 209.200 91.100 V 89.200 C 209.200 89.100 209.100 89.200 209.200 89.200 H 215.000 C 215.100 89.200 215.000 89.100 215.000 89.200 V 91.100 C 215.000 91.155 215.045 91.200 215.100 91.200 H 221.100 C 221.155 91.200 221.200 91.155 221.200 91.100 V 89.200 C 221.200 89.100 221.100 89.200 221.200 89.200 H 227.000 C 227.100 89.200 227.000 89.100 227.000 89.200 V 91.100 C 227.000 91.155 227.045 91.200 227.100 91.200 H 233.100 C 233.155 91.200 233.200 91.155 233.200 91.100 V 89.200 C 233.200 89.100 233.100 89.200 233.200 89.200 H 239.000 C 239.100 89.200 239.000 89.100 239.000 89.200 V 91.100 C 239.000 91.155 239.045 91.200 239.100 91.200 H 245.100 C 245.155 91.200 245.200 91.155 245.200 91.100 V 89.200 C 245.200 89.100 245.100 89.200 245.200 89.200 H 251.000 C 251.100 89.200 251.000 89.100 251.000 89.200 V 91.100 C 251.000 91.155 251.045 91.200 251.100 91.200 H 257.100 C 257.155 91.200 257.200 91.155 257.200 91.100 V 89.200 C 257.200 89.100 257.100 89.200 257.200 89.200 H 263.000 C 263.100 89.200 263.000 89.100 263.000 89.200 V 91.100 C 263.000 91.155 263.045 91.200 263.100 91.200 H 269.100 C 269.155 91.200 269.200 91.155 269.200 91.100 V 89.200 C 269.200 89.100 269.100 89.200 269.200 89.200 H 275.000 C 275.100 89.200 275.000 89.100 275.000 89.200 V 91.100 C 275.000 91.155 275.045 91.200 275.100 91.200 H 281.100 C 281.155 91.200 281.200 91.155 281.200 91.100 V 89.200 C 281.200 89.100 281.100 89.200 281.200 89.200 H 292.100 C 292.155 89.200 292.200 89.155 292.200 89.100 V 77.700 C 292.200 77.600 292.100 77.700 292.200 77.700 H 294.100 C 294.155 77.700 294.200 77.655 294.200 77.600 V 71.600 C 294.200 71.545 294.155 71.500 294.100 71.500 H 292.200 C 292.100 71.500 292.200 71.600 292.200 71.500 V 65.700 C 292.200 65.600 292.100 65.700 292.200 65.700 H 294.100 C 294.155 65.700 294.200 65.655 294.200 65.600 V 59.600 C 294.200 59.545 294.155 59.500 294.100 59.500 H 292.200 C 292.100 59.500 292.200 59.600 292.200 59.500 V 53.700 C 292.200 53.600 292.100 53.700 292.200 53.700 H 294.100 C 294.155 53.700 294.200 53.655 294.200 53.600 V 47.600 C 294.200 47.545 294.155 47.500 294.100 47.500 H 292.200 C 292.100 47.500 292.200 47.600 292.200 47.500 V 41.700 C 292.200 41.600 292.100 41.700 292.200 41.700 H 294.100 C 294.155 41.700 294.200 41.655 294.200 41.600 V 35.600 C 294.200 35.545 294.155 35.500 294.100 35.500 H 292.200 C 292.100 35.500 292.200 35.600 292.200 35.500 V 29.700 C 292.200 29.600 292.100 29.700 292.200 29.700 H 294.100 C 294.155 29.700 294.200 29.655 294.200 29.600 V 23.600 C 294.200 23.545 294.155 23.500 294.100 23.500 H 292.200 C 292.100 23.500 292.200 23.600 292.200 23.500 V 12.100 C 292.200 12.045 292.155 12.000 292.100 12.000 H 281.200 C 281.100 12.000 281.200 12.100 281.200 12.000 V 10.100 C 281.200 10.045 281.155 10.000 281.100 10.000 H 275.100 C 275.045 10.000 275.000 10.045 275.000 10.100 V 12.000 C 275.000 12.100 275.100 12.000 275.000 12.000 H 269.200 C 269.100 12.000 269.200 12.100 269.200 12.000 V 10.100 C 269.200 10.045 269.155 10.000 269.100 10.000 H 263.100 C 263.045 10.000 263.000 10.045 263.000 10.100 V 12.000 C 263.000 12.100 263.100 12.000 263.000 12.000 H 257.200 C 257.100 12.000 257.200 12.100 257.200 12.000 V 10.100 C 257.200 10.045 257.155 10.000 257.100 10.000 H 251.100 C 251.045 10.000 251.000 10.045 251.000 10.100 V 12.000 C 251.000 12.100 251.100 12.000 251.000 12.000 H 245.200 C 245.100 12.000 245.200 12.100 245.200 12.000 V 10.100 C 245.200 10.045 245.155 10.000 245.100 10.000 H 239.100 C 239.045 10.000 239.000 10.045 239.000 10.100 V 12.000 C 239.000 12.100 239.100 12.000 239.000 12.000 H 233.200 C 233.100 12.000 233.200 12.100 233.200 12.000 V 10.100 C 233.200 10.045 233.155 10.000 233.100 10.000 H 227.100 C 227.045 10.000 227.000 10.045 227.000 10.100 V 12.000 C 227.000 12.100 227.100 12.000 227.000 12.000 H 221.200 C 221.100 12.000 221.200 12.100 221.200 12.000 V 10.100 C 221.200 10.045 221.155 10.000 221.100 10.000 H 215.100 C 215.045 10.000 215.000 10.045 215.000 10.100 V 12.000 C 215.000 12.100 215.100 12.000 215.000 12.000 H 209.200 C 209.100 12.000 209.200 12.100 209.200 12.000 V 10.100 C 209.200 10.045 209.155 10.000 209.100 10.000 H 203.100 C 203.045 10.000 203.000 10.045 203.000 10.100 V 12.000 C 203.000 12.100 203.100 12.000 203.000 12.000 H 197.200 C 197.100 12.000 197.200 12.100 197.200 12.000 V 10.100 C 197.200 10.045 197.155 10.000 197.100 10.000 H 191.100 C 191.045 10.000 191.000 10.045 191.000 10.100 V 12.000 C 191.000 12.100 191.100 12.000 191.000 12.000 H 185.200 C 185.100 12.000 185.200 12.100 185.200 12.000 V 10.100 C 185.200 10.045 185.155 10.000 185.100 10.000 H 179.100 C 179.045 10.000 179.000 10.045 179.000 10.100 V 12.000 C 179.000 12.100 179.100 12.000 179.000 12.000 H 173.200 C 173.100 12.000 173.200 12.100 173.200 12.000 V 10.100 C 173.200 10.045 173.155 10.000 173.100 10.000 H 167.100 C 167.045 10.000 167.000 10.045 167.000 10.100 V 12.000 C 167.000 12.100 167.100 12.000 167.000 12.000 H 161.200 C 161.100 12.000 161.200 12.100 161.200 12.000 V 10.100 C 161.200 10.045 161.155 10.000 161.100 10.000 H 155.100 C 155.045 10.000 155.000 10.045 155.000 10.100 V 12.000 C 155.000 12.100 155.100 12.000 155.000 12.000 H 149.200 C 149.100 12.000 149.200 12.100 149.200 12.000 V 10.100 C 149.200 10.045 149.155 10.000 149.100 10.000 H 143.100 C 143.045 10.000 143.000 10.045 143.000 10.100 V 12.000 C 143.000 12.100 143.100 12.000 143.000 12.000 H 137.200 C 137.100 12.000 137.200 12.100 137.200 12.000 V 10.100 C 137.200 10.045 137.155 10.000 137.100 10.000 H 131.100 C 131.045 10.000 131.000 10.045 131.000 10.100 V 12.000 C 131.000 12.100 131.100 12.000 131.000 12.000 H 125.200 C 125.100 12.000 125.200 12.100 125.200 12.000 V 10.100 C 125.200 10.045 125.155 10.000 125.100 10.000 H 119.100 C 119.045 10.000 119.000 10.045 119.000 10.100 V 12.000 C 119.000 12.100 119.100 12.000 119.000 12.000 H 113.200 C 113.100 12.000 113.200 12.100 113.200 12.000 V 10.100 C 113.200 10.045 113.155 10.000 113.100 10.000 H 107.100 C 107.045 10.000 107.000 10.045 107.000 10.100 V 12.000 C 107.000 12.100 107.100 12.000 107.000 12.000 H 101.200 C 101.100 12.000 101.200 12.100 101.200 12.000 V 10.100 C 101.200 10.045 101.155 10.000 101.100 10.000 H 95.100 C 95.045 10.000 95.000 10.045 95.000 10.100 V 12.000 C 95.000 12.100 95.100 12.000 95.000 12.000 H 89.200 C 89.100 12.000 89.200 12.100 89.200 12.000 V 10.100 C 89.200 10.045 89.155 10.000 89.100 10.000 H 83.100 C 83.045 10.000 83.000 10.045 83.000 10.100 V 12.000 C 83.000 12.100 83.100 12.000 83.000 12.000 H 77.200 C 77.100 12.000 77.200 12.100 77.200 12.000 V 10.100 C 77.200 10.045 77.155 10.000 77.100 10.000 H 71.100 C 71.045 10.000 71.000 10.045 71.000 10.100 V 12.000 C 71.000 12.100 71.100 12.000 71.000 12.000 H 65.200 C 65.100 12.000 65.200 12.100 65.200 12.000 V 10.100 C 65.200 10.045 65.155 10.000 65.100 10.000 H 59.100 C 59.045 10.000 59.000 10.045 59.000 10.100 V 12.000 C 59.000 12.100 59.100 12.000 59.000 12.000 H 53.200 C 53.100 12.000 53.200 12.100 53.200 12.000 V 10.100 C 53.200 10.045 53.155 10.000 53.100 10.000 H 47.100 C 47.045 10.000 47.000 10.045 47.000 10.100 V 12.000 C 47.000 12.100 47.100 12.000 47.000 12.000 H 41.200 C 41.100 12.000 41.200 12.100 41.200 12.000 V 10.100 C 41.200 10.045 41.155 10.000 41.100 10.000 H 35.100 C 35.045 10.000 35.000 10.045 35.000 10.100 V 12.000 C 35.000 12.100 35.100 12.000 35.000 12.000 H 29.200 C 29.100 12.000 29.200 12.100 29.200 12.000 V 10.100 C 29.200 10.045 29.155 10.000 29.100 10.000 H 23.100 C 23.045 10.000 23.000 10.045 23.000 10.100 V 12.000 C 23.000 12.100 23.100 12.000 23.000 12.000 H 12.100 C 12.045 12.000 12.000 12.045 12.000 12.100 V 23.500 C 12.000 23.600 12.100 23.500 12.000 23.500 H 10.100 C 10.045 23.500 10.000 23.545 10.000 23.600 V 29.600 C 10.000 29.655 10.045 29.700 10.100 29.700 H 12.000 C 12.100 29.700 12.000 29.600 12.000 29.700 V 35.500 C 12.000 35.600 12.100 35.500 12.000 35.500 H 10.100 C 10.045 35.500 10.000 35.545 10.000 35.600 V 41.600 C 10.000 41.655 10.045 41.700 10.100 41.700 H 12.000 C 12.100 41.700 12.000 41.600 12.000 41.700 V 47.500 C 12.000 47.600 12.100 47.500 12.000 47.500 H 10.100 C 10.045 47.500 10.000 47.545 10.000 47.600 V 53.600 C 10.000 53.655 10.045 53.700 10.100 53.700 H 12.000 C 12.100 53.700 12.000 53.600 12.000 53.700 V 59.500 C 12.000 59.600 12.100 59.500 12.000 59.500 H 10.100 C 10.045 59.500 10.000 59.545 10.000 59.600 V 65.600 C 10.000 65.655 10.045 65.700 10.100 65.700 H 12.000 C 12.100 65.700 12.000 65.600 12.000 65.700 V 71.500 C 12.000 71.600 12.100 71.500 12.000 71.500 H 10.100 C 10.045 71.500 10.000 71.545 10.000 71.600 V 77.600 C 10.000 77.655 10.045 77.700 10.100 77.700 H 12.000 C 12.100 77.700 12.000 77.600 12.000 77.700 V 89.100 C 12.000 89.155 12.045 89.200 12.100 89.200 Z" stroke="rgb(0,0,0)" stroke-width="0.20" />
</g>
<g id="p-4" style="fill:none;stroke-linecap:round;stroke-linejoin:round;">
  <path d="M 311.800 205.400 H 308.900 C 308.800 205.400 308.900 205.500 308.900 205.400 V 203.600 C 308.900 203.500 308.800 203.600 308.900 203.600 H 314.700 C 314.800 203.600 314.700 203.500 314.700 203.600 V 205.400 C 314.700 205.500 314.800 205.400 314.700 205.400 H 311.800 Z" stroke="rgb(0,0,255)" stroke-width="0.20" />
  <path d="M 323.800 205.400 H 320.900 C 320.800 205.400 320.900 205.500 320.900 205.400 V 203.600 C 320.900 203.500 320.800 203.600 320.900 203.600 H 326.700 C 326.800 203.600 326.700 203.500 326.700 203.600 V 205.400 C 326.700 205.500 326.800 205.400 326.700 205.400 H 323.800 Z" stroke="rgb(0,0,255)" stroke-width="0.20" />
  <path d="M 335.800 205.400 H 332.900 C 332.800 205.400 332.900 205.500 332.900 205.400 V 203.600 C 332.900 203.500 332.800 203.600 332.900 203.600 H 338.700 C 338.800 203.600 338.700 203.500 338.700 203.600 V 205.400 C 338.700 205.500 338.800 205.400 338.700 205.400 H 335.800 Z" stroke="rgb(0,0,255)" stroke-width="0.20" />
  <path d="M 347.800 205.400 H 344.900 C 344.800 205.400 344.900 205.500 344.900 205.400 V 203.600 C 344.900 203.500 344.800 203.600 344.900 203.600 H 350.700 C 350.800 203.600 350.700 203.500 350.700 203.600 V 205.400 C 350.700 205.500 350.800 205.400 350.700 205.400 H 347.800 Z" stroke="rgb(0,0,255)" stroke-width="0.20" />
  <path d="M 359.800 205.400 H 356.900 C 356.800 205.400 356.900 205.500 356.900 205.400 V 203.600 C 356.900 203.500 356.800 203.600 356.900 203.600 H 362.700 C 362.800 203.600 362.700 203.500 362.700 203.600 V 205.400 C 362.700 205.500 362.800 205.400 362.700 205.400 H 359.800 Z" stroke="rgb(0,0,255)" stroke-width="0.20" />
  <path d="M 297.300 207.600 H 374.300 C 374.355 207.600 374.400 207.555 374.400 207.500 V 194.100 C 374.400 194.000 374.300 194.100 374.400 194.100 H 376.300 C 376.355 194.100 376.400 194.055 376.400 194.000 V 188.000 C 376.400 187.945 376.355 187.900 376.300 187.900 H 374.400 C 374.300 187.900 374.400 188.000 374.400 187.900 V 182.100 C 374.400 182.000 374.300 182.100 374.400 182.100 H 376.300 C 376.355 182.100 376.400 182.055 376.400 182.000 V 176.000 C 376.400 175.945 376.355 175.900 376.300 175.900 H 374.400 C 374.300 175.900 374.400 176.000 374.400 175.900 V 170.100 C 374.400 170.000 374.300 170.100 374.400 170.100 H 376.300 C 376.355 170.100 376.400 170.055 376.400 170.000 V 164.000 C 376.400 163.945 376.355 163.900 376.300 163.900 H 374.400 C 374.300 163.900 374.400 164.000 374.400 163.900 V 150.500 C 374.400 150.445 374.355 150.400 374.300 150.400 H 297.300 C 297.245 150.400 297.200 150.445 297.200 150.500 V 163.900 C 297.200 164.000 297.300 163.900 297.200 163.900 H 295.300 C 295.245 163.900 295.200 163.945 295.200 164.000 V 170.000 C 295.200 170.055 295.245 170.100 295.300 170.100 H 297.200 C 297.300 170.100 297.200 170.000 297.200 170.100 V 175.900 C 297.200 176.000 297.300 175.900 297.200 175.900 H 295.300 C 295.245 175.900 295.200 175.945 295.200 176.000 V 182.000 C 295.200 182.055 295.245 182.100 295.300 182.100 H 297.200 C 297.300 182.100 297.200 182.000 297.200 182.100 V 187.900 C 297.200 188.000 297.300 187.900 297.200 187.900 H 295.300 C 295.245 187.900 295.200 187.945 295.200 188.000 V 194.000 C 295.200 194.055 295.245 194.100 295.300 194.100 H 297.200 C 297.300 194.100 297.200 194.000 297.200 194.100 V 207.500 C 297.200 207.555 297.245 207.600 297.300 207.600 Z" stroke="rgb(0,0,0)" stroke-width="0.20" />
</g>
<g id="p-5" style="fill:none;stroke-linecap:round;stroke-linejoin:round;">
  <path d="M 311.800 147.200 H 308.900 C 308.800 147.200 308.900 147.300 308.900 147.200 V 145.400 C 308.900 145.300 308.800 145.400 308.900 145.400 H 314.700 C 314.800 145.400 314.700 145.300 314.700 145.400 V 147.200 C 314.700 147.300 314.800 147.200 314.700 147.200 H 311.800 Z" stroke="rgb(0,0,255)" stroke-width="0.20" />
  <path d="M 323.800 147.200 H 320.900 C 320.800 147.200 320.900 147.300 320.900 147.200 V 145.400 C 320.900 145.300 320.800 145.400 320.900 145.400 H 326.700 C 326.800 145.400 326.700 145.300 326.700 145.400 V 147.200 C 326.700 147.300 326.800 147.200 326.700 147.200 H 323.800 Z" stroke="rgb(0,0,255)" stroke-width="0.20" />
  <path d="M 335.800 147.200 H 332.900 C 332.800 147.200 332.900 147.300 332.900 147.200 V 145.400 C 332.900 145.300 332.800 145.400 332.900 145.400 H 338.700 C 338.800 145.400 338.700 145.300 338.700 145.400 V 147.200 C 338.700 147.300 338.800 147.200 338.700 147.200 H 335.800 Z" stroke="rgb(0,0,255)" stroke-width="0.20" />
  <path d="M 347.800 147.200 H 344.900 C 344.800 147.200 344.900 147.300 344.900 147.200 V 145.400 C 344.900 145.300 344.800 145.400 344.900 145.400 H 350.700 C 350.800 145.400 350.700 145.300 350.700 145.400 V 147.200 C 350.700 147.300 350.800 147.200 350.700 147.200 H 347.800 Z" stroke="rgb(0,0,255)" stroke-width="0.20" />
  <path d="M 359.800 147.200 H 356.900 C 356.800 147.200 356.900 147.300 356.900 147.200 V 145.400 C 356.900 145.300 356.800 145.400 356.900 145.400 H 362.700 C 362.800 145.400 362.700 145.300 362.700 145.400 V 147.200 C 362.700 147.300 362.800 147.200 362.700 147.200 H 359.800 Z" stroke="rgb(0,0,255)" stroke-width="0.20" />
  <path d="M 297.300 149.400 H 374.300 C 374.355 149.400 374.400 149.355 374.400 149.300 V 135.900 C 374.400 135.800 374.300 135.900 374.400 135.900 H 376.300 C 376.355 135.900 376.400 135.855 376.400 135.800 V 129.800 C 376.400 129.745 376.355 129.700 376.300 129.700 H 374.400 C 374.300 129.700 374.400 129.800 374.400 129.700 V 123.900 C 374.400 123.800 374.300 123.900 374.400 123.900 H 376.300 C 376.355 123.900 376.400 123.855 376.400 123.800 V 117.800 C 376.400 117.745 376.355 117.700 376.300 117.700 H 374.400 C 374.300 117.700 374.400 117.800 374.400 117.700 V 111.900 C 374.400 111.800 374.300 111.900 374.400 111.900 H 376.300 C 376.355 111.900 376.400 111.855 376.400 111.800 V 105.800 C 376.400 105.745 376.355 105.700 376.300 105.700 H 374.400 C 374.300 105.700 374.400 105.800 374.400 105.700 V 92.300 C 374.400 92.245 374.355 92.200 374.300 92.200 H 297.300 C 297.245 92.200 297.200 92.245 297.200 92.300 V 105.700 C 297.200 105.800 297.300 105.700 297.200 105.700 H 295.300 C 295.245 105.700 295.200 105.745 295.200 105.800 V 111.800 C 295.200 111.855 295.245 111.900 295.300 111.900 H 297.200 C 297.300 111.900 297.200 111.800 297.200 111.900 V 117.700 C 297.200 117.800 297.300 117.700 297.200 117.700 H 295.300 C 295.245 117.700 295.200 117.745 295.200 117.800 V 123.800 C 295.200 123.855 295.245 123.900 295.300 123.900 H 297.200 C 297.300 123.900 297.200 123.800 297.200 123.900 V 129.700 C 297.200 129.800 297.300 129.700 297.200 129.700 H 295.300 C 295.245 129.700 295.200 129.745 295.200 129.800 V 135.800 C 295.200 135.855 295.245 135.900 295.300 135.900 H 297.200 C 297.300 135.900 297.200 135.800 297.200 135.900 V 149.300 C 297.200 149.355 297.245 149.400 297.300 149.400 Z" stroke="rgb(0,0,0)" stroke-width="0.20" />
</g>
</svg>