<?xml version='1.0' encoding='utf-8'?>
<svg height="231.70mm" viewBox="0.0 0.0 943.40 231.70" width="943.40mm" xmlns="http://www.w3.org/2000/svg" xmlns:cc="http://creativecommons.org/ns#" xmlns:dc="http://purl.org/dc/elements/1.1/" xmlns:inkscape="http://www.inkscape.org/namespaces/inkscape" xmlns:rdf="http://www.w3.org/1999/02/22-rdf-syntax-ns#" xmlns:svg="http://www.w3.org/2000/svg" xmlns:xlink="http://www.w3.org/1999/xlink">
<!--
TrayLayout - Generate a typetray from a layout file.


This is a two step process. This is step 2.
Edit the layout text graphics to adjust your tray.
Put in the sizes for each column and row. You can replace the hyphens and
vertical bars representing the walls with a space character to remove the walls.
You can replace the space characters representing the floor by a "X" to remove the floor for this compartment.



Created with Boxes.py (https://boxes.hackerspace-bamberg.de/)
Creation date: 2026-03-19 21:42:19
Command line (remove spaces between dashes): boxes TrayLayout - -h=50 - -outside=0 '- -sx=35*6' - -sy=50:20:10 '- -layout= ,> 35.00mm\n | ,> 35.00mm\n | | ,> 35.00mm\n | | | ,> 35.00mm\n | | | | ,> 35.00mm\n | | | | | ,> 35.00mm\n+-+-+-+-+-+-+\n|   |   |   |  50.00mm\n+-+-+-+-+-+-+\n|     |     |  20.00mm\n+-+-+-+-+-+-+\n|           |  10.00mm\n+-+-+-+-+-+-+\n' - -thickness=2.8 - -spacing=0.5
Url: https://boxes.hackerspace-bamberg.de/TrayLayout?FingerJoint_style=rectangular&FingerJoint_surroundingspaces=2.0&FingerJoint_bottom_lip=0.0&FingerJoint_edge_width=1.0&FingerJoint_extra_length=0.0&FingerJoint_finger=2.0&FingerJoint_play=0.0&FingerJoint_space=2.0&FingerJoint_width=1.0&Lid_handle=none&Lid_style=none&Lid_handle_height=8.0&Lid_height=4.0&Lid_play=0.1&h=50&hi=0.0&outside=0&sx=35*6&sy=50%3A20%3A10&layout=+%2C%3E+35.00mm%0D%0A+%7C+%2C%3E+35.00mm%0D%0A+%7C+%7C+%2C%3E+35.00mm%0D%0A+%7C+%7C+%7C+%2C%3E+35.00mm%0D%0A+%7C+%7C+%7C+%7C+%2C%3E+35.00mm%0D%0A+%7C+%7C+%7C+%7C+%7C+%2C%3E+35.00mm%0D%0A%2B-%2B-%2B-%2B-%2B-%2B-%2B%0D%0A%7C+++%7C+++%7C+++%7C++50.00mm%0D%0A%2B-%2B-%2B-%2B-%2B-%2B-%2B%0D%0A%7C+++++%7C+++++%7C++20.00mm%0D%0A%2B-%2B-%2B-%2B-%2B-%2B-%2B%0D%0A%7C+++++++++++%7C++10.00mm%0D%0A%2B-%2B-%2B-%2B-%2B-%2B-%2B%0D%0A&thickness=2.8&burn=0.1&format=svg&labels=0&labels=1&reference=100.0&tabs=0.0&qr_code=0&inner_corners=loop&spacing=0.5&debug=0&language=en&render=2
Url short: https://boxes.hackerspace-bamberg.de/TrayLayout?h=50&outside=0&sx=35*6&sy=50%3A20%3A10&layout=+%2C%3E+35.00mm%0D%0A+%7C+%2C%3E+35.00mm%0D%0A+%7C+%7C+%2C%3E+35.00mm%0D%0A+%7C+%7C+%7C+%2C%3E+35.00mm%0D%0A+%7C+%7C+%7C+%7C+%2C%3E+35.00mm%0D%0A+%7C+%7C+%7C+%7C+%7C+%2C%3E+35.00mm%0D%0A%2B-%2B-%2B-%2B-%2B-%2B-%2B%0D%0A%7C+++%7C+++%7C+++%7C++50.00mm%0D%0A%2B-%2B-%2B-%2B-%2B-%2B-%2B%0D%0A%7C+++++%7C+++++%7C++20.00mm%0D%0A%2B-%2B-%2B-%2B-%2B-%2B-%2B%0D%0A%7C+++++++++++%7C++10.00mm%0D%0A%2B-%2B-%2B-%2B-%2B-%2B-%2B%0D%0A&thickness=2.8&spacing=0.5
SettingsUrl: https://boxes.hackerspace-bamberg.de/TrayLayout?FingerJoint_style=rectangular&FingerJoint_surroundingspaces=2.0&FingerJoint_bottom_lip=0.0&FingerJoint_edge_width=1.0&FingerJoint_extra_length=0.0&FingerJoint_finger=2.0&FingerJoint_play=0.0&FingerJoint_space=2.0&FingerJoint_width=1.0&Lid_handle=none&Lid_style=none&Lid_handle_height=8.0&Lid_height=4.0&Lid_play=0.1&h=50&hi=0.0&outside=0&sx=35*6&sy=50%3A20%3A10&layout=+%2C%3E+35.00mm%0D%0A+%7C+%2C%3E+35.00mm%0D%0A+%7C+%7C+%2C%3E+35.00mm%0D%0A+%7C+%7C+%7C+%2C%3E+35.00mm%0D%0A+%7C+%7C+%7C+%7C+%2C%3E+35.00mm%0D%0A+%7C+%7C+%7C+%7C+%7C+%2C%3E+35.00mm%0D%0A%2B-%2B-%2B-%2B-%2B-%2B-%2B%0D%0A%7C+++%7C+++%7C+++%7C++50.00mm%0D%0A%2B-%2B-%2B-%2B-%2B-%2B-%2B%0D%0A%7C+++++%7C+++++%7C++20.00mm%0D%0A%2B-%2B-%2B-%2B-%2B-%2B-%2B%0D%0A%7C+++++++++++%7C++10.00mm%0D%0A%2B-%2B-%2B-%2B-%2B-%2B-%2B%0D%0A&thickness=2.8&burn=0.1&format=svg&labels=0&labels=1&reference=100.0&tabs=0.0&qr_code=0&inner_corners=loop&spacing=0.5&debug=0&language=en&render=2
SettingsUrl short: https://boxes.hackerspace-bamberg.de/TrayLayout?h=50&outside=0&sx=35*6&sy=50%3A20%3A10&layout=+%2C%3E+35.00mm%0D%0A+%7C+%2C%3E+35.00mm%0D%0A+%7C+%7C+%2C%3E+35.00mm%0D%0A+%7C+%7C+%7C+%2C%3E+35.00mm%0D%0A+%7C+%7C+%7C+%7C+%2C%3E+35.00mm%0D%0A+%7C+%7C+%7C+%7C+%7C+%2C%3E+35.00mm%0D%0A%2B-%2B-%2B-%2B-%2B-%2B-%2B%0D%0A%7C+++%7C+++%7C+++%7C++50.00mm%0D%0A%2B-%2B-%2B-%2B-%2B-%2B-%2B%0D%0A%7C+++++%7C+++++%7C++20.00mm%0D%0A%2B-%2B-%2B-%2B-%2B-%2B-%2B%0D%0A%7C+++++++++++%7C++10.00mm%0D%0A%2B-%2B-%2B-%2B-%2B-%2B-%2B%0D%0A&thickness=2.8&spacing=0.5
-->
<title>TrayLayout</title>
<metadata>
<rdf:RDF><cc:Work>
<dc:title>Tray - TrayLayout</dc:title>
<dc:date>2026-03-19 21:42:19</dc:date>
<dc:source>https://boxes.hackerspace-bamberg.de/TrayLayout?FingerJoint_style=rectangular&amp;FingerJoint_surroundingspaces=2.0&amp;FingerJoint_bottom_lip=0.0&amp;FingerJoint_edge_width=1.0&amp;FingerJoint_extra_length=0.0&amp;FingerJoint_finger=2.0&amp;FingerJoint_play=0.0&amp;FingerJoint_space=2.0&amp;FingerJoint_width=1.0&amp;Lid_handle=none&amp;Lid_style=none&amp;Lid_handle_height=8.0&amp;Lid_height=4.0&amp;Lid_play=0.1&amp;h=50&amp;hi=0.0&amp;outside=0&amp;sx=35*6&amp;sy=50%3A20%3A10&amp;layout=+%2C%3E+35.00mm%0D%0A+%7C+%2C%3E+35.00mm%0D%0A+%7C+%7C+%2C%3E+35.00mm%0D%0A+%7C+%7C+%7C+%2C%3E+35.00mm%0D%0A+%7C+%7C+%7C+%7C+%2C%3E+35.00mm%0D%0A+%7C+%7C+%7C+%7C+%7C+%2C%3E+35.00mm%0D%0A%2B-%2B-%2B-%2B-%2B-%2B-%2B%0D%0A%7C+++%7C+++%7C+++%7C++50.00mm%0D%0A%2B-%2B-%2B-%2B-%2B-%2B-%2B%0D%0A%7C+++++%7C+++++%7C++20.00mm%0D%0A%2B-%2B-%2B-%2B-%2B-%2B-%2B%0D%0A%7C+++++++++++%7C++10.00mm%0D%0A%2B-%2B-%2B-%2B-%2B-%2B-%2B%0D%0A&amp;thickness=2.8&amp;burn=0.1&amp;format=svg&amp;labels=0&amp;labels=1&amp;reference=100.0&amp;tabs=0.0&amp;qr_code=0&amp;inner_corners=loop&amp;spacing=0.5&amp;debug=0&amp;language=en&amp;render=2</dc:source>
<dc:source>https://boxes.hackerspace-bamberg.de/TrayLayout?h=50&amp;outside=0&amp;sx=35*6&amp;sy=50%3A20%3A10&amp;layout=+%2C%3E+35.00mm%0D%0A+%7C+%2C%3E+35.00mm%0D%0A+%7C+%7C+%2C%3E+35.00mm%0D%0A+%7C+%7C+%7C+%2C%3E+35.00mm%0D%0A+%7C+%7C+%7C+%7C+%2C%3E+35.00mm%0D%0A+%7C+%7C+%7C+%7C+%7C+%2C%3E+35.00mm%0D%0A%2B-%2B-%2B-%2B-%2B-%2B-%2B%0D%0A%7C+++%7C+++%7C+++%7C++50.00mm%0D%0A%2B-%2B-%2B-%2B-%2B-%2B-%2B%0D%0A%7C+++++%7C+++++%7C++20.00mm%0D%0A%2B-%2B-%2B-%2B-%2B-%2B-%2B%0D%0A%7C+++++++++++%7C++10.00mm%0D%0A%2B-%2B-%2B-%2B-%2B-%2B-%2B%0D%0A&amp;thickness=2.8&amp;spacing=0.5</dc:source>
<dc:description>Generate a typetray from a layout file.

This is a two step process. This is step 2.
Edit the layout text graphics to adjust your tray.
Put in the sizes for each column and row. You can replace the hyphens and
vertical bars representing the walls with a space character to remove the walls.
You can replace the space characters representing the floor by a "X" to remove the floor for this compartment.


Created with Boxes.py (https://boxes.hackerspace-bamberg.de/)
Command line: boxes TrayLayout --FingerJoint_style=rectangular --FingerJoint_surroundingspaces=2.0 --FingerJoint_bottom_lip=0.0 --FingerJoint_edge_width=1.0 --FingerJoint_extra_length=0.0 --FingerJoint_finger=2.0 --FingerJoint_play=0.0 --FingerJoint_space=2.0 --FingerJoint_width=1.0 --Lid_handle=none --Lid_style=none --Lid_handle_height=8.0 --Lid_height=4.0 --Lid_play=0.1 --h=50 --hi=0.0 --outside=0 '--sx=35*6' --sy=50:20:10 '--layout= ,&gt; 35.00mm\n | ,&gt; 35.00mm\n | | ,&gt; 35.00mm\n | | | ,&gt; 35.00mm\n | | | | ,&gt; 35.00mm\n | | | | | ,&gt; 35.00mm\n+-+-+-+-+-+-+\n|   |   |   |  50.00mm\n+-+-+-+-+-+-+\n|     |     |  20.00mm\n+-+-+-+-+-+-+\n|           |  10.00mm\n+-+-+-+-+-+-+\n' --thickness=2.8 --burn=0.1 --format=svg --labels=0 --labels=1 --reference=100.0 --tabs=0.0 --qr_code=0 --inner_corners=loop --spacing=0.5 --debug=0
Command line short: boxes TrayLayout --h=50 --outside=0 '--sx=35*6' --sy=50:20:10 '--layout= ,&gt; 35.00mm\n | ,&gt; 35.00mm\n | | ,&gt; 35.00mm\n | | | ,&gt; 35.00mm\n | | | | ,&gt; 35.00mm\n | | | | | ,&gt; 35.00mm\n+-+-+-+-+-+-+\n|   |   |   |  50.00mm\n+-+-+-+-+-+-+\n|     |     |  20.00mm\n+-+-+-+-+-+-+\n|           |  10.00mm\n+-+-+-+-+-+-+\n' --thickness=2.8 --spacing=0.5
Url: https://boxes.hackerspace-bamberg.de/TrayLayout?FingerJoint_style=rectangular&amp;FingerJoint_surroundingspaces=2.0&amp;FingerJoint_bottom_lip=0.0&amp;FingerJoint_edge_width=1.0&amp;FingerJoint_extra_length=0.0&amp;FingerJoint_finger=2.0&amp;FingerJoint_play=0.0&amp;FingerJoint_space=2.0&amp;FingerJoint_width=1.0&amp;Lid_handle=none&amp;Lid_style=none&amp;Lid_handle_height=8.0&amp;Lid_height=4.0&amp;Lid_play=0.1&amp;h=50&amp;hi=0.0&amp;outside=0&amp;sx=35*6&amp;sy=50%3A20%3A10&amp;layout=+%2C%3E+35.00mm%0D%0A+%7C+%2C%3E+35.00mm%0D%0A+%7C+%7C+%2C%3E+35.00mm%0D%0A+%7C+%7C+%7C+%2C%3E+35.00mm%0D%0A+%7C+%7C+%7C+%7C+%2C%3E+35.00mm%0D%0A+%7C+%7C+%7C+%7C+%7C+%2C%3E+35.00mm%0D%0A%2B-%2B-%2B-%2B-%2B-%2B-%2B%0D%0A%7C+++%7C+++%7C+++%7C++50.00mm%0D%0A%2B-%2B-%2B-%2B-%2B-%2B-%2B%0D%0A%7C+++++%7C+++++%7C++20.00mm%0D%0A%2B-%2B-%2B-%2B-%2B-%2B-%2B%0D%0A%7C+++++++++++%7C++10.00mm%0D%0A%2B-%2B-%2B-%2B-%2B-%2B-%2B%0D%0A&amp;thickness=2.8&amp;burn=0.1&amp;format=svg&amp;labels=0&amp;labels=1&amp;reference=100.0&amp;tabs=0.0&amp;qr_code=0&amp;inner_corners=loop&amp;spacing=0.5&amp;debug=0&amp;language=en&amp;render=2
Url short: https://boxes.hackerspace-bamberg.de/TrayLayout?h=50&amp;outside=0&amp;sx=35*6&amp;sy=50%3A20%3A10&amp;layout=+%2C%3E+35.00mm%0D%0A+%7C+%2C%3E+35.00mm%0D%0A+%7C+%7C+%2C%3E+35.00mm%0D%0A+%7C+%7C+%7C+%2C%3E+35.00mm%0D%0A+%7C+%7C+%7C+%7C+%2C%3E+35.00mm%0D%0A+%7C+%7C+%7C+%7C+%7C+%2C%3E+35.00mm%0D%0A%2B-%2B-%2B-%2B-%2B-%2B-%2B%0D%0A%7C+++%7C+++%7C+++%7C++50.00mm%0D%0A%2B-%2B-%2B-%2B-%2B-%2B-%2B%0D%0A%7C+++++%7C+++++%7C++20.00mm%0D%0A%2B-%2B-%2B-%2B-%2B-%2B-%2B%0D%0A%7C+++++++++++%7C++10.00mm%0D%0A%2B-%2B-%2B-%2B-%2B-%2B-%2B%0D%0A&amp;thickness=2.8&amp;spacing=0.5
SettingsUrl: https://boxes.hackerspace-bamberg.de/TrayLayout?FingerJoint_style=rectangular&amp;FingerJoint_surroundingspaces=2.0&amp;FingerJoint_bottom_lip=0.0&amp;FingerJoint_edge_width=1.0&amp;FingerJoint_extra_length=0.0&amp;FingerJoint_finger=2.0&amp;FingerJoint_play=0.0&amp;FingerJoint_space=2.0&amp;FingerJoint_width=1.0&amp;Lid_handle=none&amp;Lid_style=none&amp;Lid_handle_height=8.0&amp;Lid_height=4.0&amp;Lid_play=0.1&amp;h=50&amp;hi=0.0&amp;outside=0&amp;sx=35*6&amp;sy=50%3A20%3A10&amp;layout=+%2C%3E+35.00mm%0D%0A+%7C+%2C%3E+35.00mm%0D%0A+%7C+%7C+%2C%3E+35.00mm%0D%0A+%7C+%7C+%7C+%2C%3E+35.00mm%0D%0A+%7C+%7C+%7C+%7C+%2C%3E+35.00mm%0D%0A+%7C+%7C+%7C+%7C+%7C+%2C%3E+35.00mm%0D%0A%2B-%2B-%2B-%2B-%2B-%2B-%2B%0D%0A%7C+++%7C+++%7C+++%7C++50.00mm%0D%0A%2B-%2B-%2B-%2B-%2B-%2B-%2B%0D%0A%7C+++++%7C+++++%7C++20.00mm%0D%0A%2B-%2B-%2B-%2B-%2B-%2B-%2B%0D%0A%7C+++++++++++%7C++10.00mm%0D%0A%2B-%2B-%2B-%2B-%2B-%2B-%2B%0D%0A&amp;thickness=2.8&amp;burn=0.1&amp;format=svg&amp;labels=0&amp;labels=1&amp;reference=100.0&amp;tabs=0.0&amp;qr_code=0&amp;inner_corners=loop&amp;spacing=0.5&amp;debug=0&amp;language=en&amp;render=2
SettingsUrl short: https://boxes.hackerspace-bamberg.de/TrayLayout?h=50&amp;outside=0&amp;sx=35*6&amp;sy=50%3A20%3A10&amp;layout=+%2C%3E+35.00mm%0D%0A+%7C+%2C%3E+35.00mm%0D%0A+%7C+%7C+%2C%3E+35.00mm%0D%0A+%7C+%7C+%7C+%2C%3E+35.00mm%0D%0A+%7C+%7C+%7C+%7C+%2C%3E+35.00mm%0D%0A+%7C+%7C+%7C+%7C+%7C+%2C%3E+35.00mm%0D%0A%2B-%2B-%2B-%2B-%2B-%2B-%2B%0D%0A%7C+++%7C+++%7C+++%7C++50.00mm%0D%0A%2B-%2B-%2B-%2B-%2B-%2B-%2B%0D%0A%7C+++++%7C+++++%7C++20.00mm%0D%0A%2B-%2B-%2B-%2B-%2B-%2B-%2B%0D%0A%7C+++++++++++%7C++10.00mm%0D%0A%2B-%2B-%2B-%2B-%2B-%2B-%2B%0D%0A&amp;thickness=2.8&amp;spacing=0.5
</dc:description>
</cc:Work></rdf:RDF></metadata>
<g id="p-0" style="fill:none;stroke-linecap:round;stroke-linejoin:round;">
  <path d="M 10.100 221.700 H 110.100 V 211.700 H 10.100 V 221.700 Z" stroke="rgb(0,0,0)" stroke-width="0.20" />
  <text dominant-baseline="hanging" font-size="6px" style="font-family: sans-serif ; font-weight: normal; font-style: normal; fill: rgb(255,0,0)" text-anchor="middle" transform="matrix( 1.000 0.000 0.000 1.000 60.100 213.700 )">100.0mm, burn:0.10mm</text>
</g>
<g id="p-1" style="fill:none;stroke-linecap:round;stroke-linejoin:round;">
  <text dominant-baseline="hanging" font-size="5.6px" style="font-family: sans-serif ; font-weight: normal; font-style: normal; fill: rgb(255,0,0)" text-anchor="middle" transform="matrix( 1.000 0.000 0.000 1.000 30.400 201.600 )">x 1/1</text>
  <text dominant-baseline="hanging" font-size="5.6px" style="font-family: sans-serif ; font-weight: normal; font-style: normal; fill: rgb(255,0,0)" text-anchor="middle" transform="matrix( 1.000 0.000 0.000 1.000 68.200 201.600 )">x 2/1</text>
  <text dominant-baseline="hanging" font-size="5.6px" style="font-family: sans-serif ; font-weight: normal; font-style: normal; fill: rgb(255,0,0)" text-anchor="middle" transform="matrix( 1.000 0.000 0.000 1.000 106.000 201.600 )">x 3/1</text>
  <text dominant-baseline="hanging" font-size="5.6px" style="font-family: sans-serif ; font-weight: normal; font-style: normal; fill: rgb(255,0,0)" text-anchor="middle" transform="matrix( 1.000 0.000 0.000 1.000 143.800 201.600 )">x 4/1</text>
  <text dominant-baseline="hanging" font-size="5.6px" style="font-family: sans-serif ; font-weight: normal; font-style: normal; fill: rgb(255,0,0)" text-anchor="middle" transform="matrix( 1.000 0.000 0.000 1.000 181.600 201.600 )">x 5/1</text>
  <text dominant-baseline="hanging" font-size="5.6px" style="font-family: sans-serif ; font-weight: normal; font-style: normal; fill: rgb(255,0,0)" text-anchor="middle" transform="matrix( 1.000 0.000 0.000 1.000 219.400 201.600 )">x 6/1</text>
  <path d="M 12.900 207.300 H 21.900 C 22.000 207.300 21.900 207.200 21.900 207.300 V 210.000 C 21.900 210.055 21.945 210.100 22.000 210.100 H 27.600 C 27.655 210.100 27.700 210.055 27.700 210.000 V 207.300 C 27.700 207.200 27.600 207.300 27.700 207.300 H 33.100 C 33.200 207.300 33.100 207.200 33.100 207.300 V 210.000 C 33.100 210.055 33.145 210.100 33.200 210.100 H 38.800 C 38.855 210.100 38.900 210.055 38.900 210.000 V 207.300 C 38.900 207.200 38.800 207.300 38.900 207.300 H 47.900 H 50.700 H 59.700 C 59.800 207.300 59.700 207.200 59.700 207.300 V 210.000 C 59.700 210.055 59.745 210.100 59.800 210.100 H 65.400 C 65.455 210.100 65.500 210.055 65.500 210.000 V 207.300 C 65.500 207.200 65.400 207.300 65.500 207.300 H 70.900 C 71.000 207.300 70.900 207.200 70.900 207.300 V 210.000 C 70.900 210.055 70.945 210.100 71.000 210.100 H 76.600 C 76.655 210.100 76.700 210.055 76.700 210.000 V 207.300 C 76.700 207.200 76.600 207.300 76.700 207.300 H 85.700 H 88.500 H 97.500 C 97.600 207.300 97.500 207.200 97.500 207.300 V 210.000 C 97.500 210.055 97.545 210.100 97.600 210.100 H 103.200 C 103.255 210.100 103.300 210.055 103.300 210.000 V 207.300 C 103.300 207.200 103.200 207.300 103.300 207.300 H 108.700 C 108.800 207.300 108.700 207.200 108.700 207.300 V 210.000 C 108.700 210.055 108.745 210.100 108.800 210.100 H 114.400 C 114.455 210.100 114.500 210.055 114.500 210.000 V 207.300 C 114.500 207.200 114.400 207.300 114.500 207.300 H 123.500 H 126.300 H 135.300 C 135.400 207.300 135.300 207.200 135.300 207.300 V 210.000 C 135.300 210.055 135.345 210.100 135.400 210.100 H 141.000 C 141.055 210.100 141.100 210.055 141.100 210.000 V 207.300 C 141.100 207.200 141.000 207.300 141.100 207.300 H 146.500 C 146.600 207.300 146.500 207.200 146.500 207.300 V 210.000 C 146.500 210.055 146.545 210.100 146.600 210.100 H 152.200 C 152.255 210.100 152.300 210.055 152.300 210.000 V 207.300 C 152.300 207.200 152.200 207.300 152.300 207.300 H 161.300 H 164.100 H 173.100 C 173.200 207.300 173.100 207.200 173.100 207.300 V 210.000 C 173.100 210.055 173.145 210.100 173.200 210.100 H 178.800 C 178.855 210.100 178.900 210.055 178.900 210.000 V 207.300 C 178.900 207.200 178.800 207.300 178.900 207.300 H 184.300 C 184.400 207.300 184.300 207.200 184.300 207.300 V 210.000 C 184.300 210.055 184.345 210.100 184.400 210.100 H 190.000 C 190.055 210.100 190.100 210.055 190.100 210.000 V 207.300 C 190.100 207.200 190.000 207.300 190.100 207.300 H 199.100 H 201.900 H 210.900 C 211.000 207.300 210.900 207.200 210.900 207.300 V 210.000 C 210.900 210.055 210.945 210.100 211.000 210.100 H 216.600 C 216.655 210.100 216.700 210.055 216.700 210.000 V 207.300 C 216.700 207.200 216.600 207.300 216.700 207.300 H 222.100 C 222.200 207.300 222.100 207.200 222.100 207.300 V 210.000 C 222.100 210.055 222.145 210.100 222.200 210.100 H 227.800 C 227.855 210.100 227.900 210.055 227.900 210.000 V 207.300 C 227.900 207.200 227.800 207.300 227.900 207.300 H 236.900 C 236.955 207.300 237.000 207.255 237.000 207.200 V 196.300 C 237.000 196.200 236.900 196.300 237.000 196.300 H 239.700 C 239.755 196.300 239.800 196.255 239.800 196.200 V 190.600 C 239.800 190.545 239.755 190.500 239.700 190.500 H 237.000 C 236.900 190.500 237.000 190.600 237.000 190.500 V 185.100 C 237.000 185.000 236.900 185.100 237.000 185.100 H 239.700 C 239.755 185.100 239.800 185.055 239.800 185.000 V 179.400 C 239.800 179.345 239.755 179.300 239.700 179.300 H 237.000 C 236.900 179.300 237.000 179.400 237.000 179.300 V 173.900 C 237.000 173.800 236.900 173.900 237.000 173.900 H 239.700 C 239.755 173.900 239.800 173.855 239.800 173.800 V 168.200 C 239.800 168.145 239.755 168.100 239.700 168.100 H 237.000 C 236.900 168.100 237.000 168.200 237.000 168.100 V 157.200 C 237.000 157.145 236.955 157.100 236.900 157.100 H 12.900 C 12.845 157.100 12.800 157.145 12.800 157.200 V 168.100 C 12.800 168.200 12.900 168.100 12.800 168.100 H 10.100 C 10.045 168.100 10.000 168.145 10.000 168.200 V 173.800 C 10.000 173.855 10.045 173.900 10.100 173.900 H 12.800 C 12.900 173.900 12.800 173.800 12.800 173.900 V 179.300 C 12.800 179.400 12.900 179.300 12.800 179.300 H 10.100 C 10.045 179.300 10.000 179.345 10.000 179.400 V 185.000 C 10.000 185.055 10.045 185.100 10.100 185.100 H 12.800 C 12.900 185.100 12.800 185.000 12.800 185.100 V 190.500 C 12.800 190.600 12.900 190.500 12.800 190.500 H 10.100 C 10.045 190.500 10.000 190.545 10.000 190.600 V 196.200 C 10.000 196.255 10.045 196.300 10.100 196.300 H 12.800 C 12.900 196.300 12.800 196.200 12.800 196.300 V 207.200 C 12.800 207.255 12.845 207.300 12.900 207.300 Z" stroke="rgb(0,0,0)" stroke-width="0.20" />
  <path d="M 88.400 193.400 V 196.100 C 88.400 196.200 88.500 196.100 88.400 196.100 H 85.800 C 85.700 196.100 85.800 196.200 85.800 196.100 V 190.700 C 85.800 190.600 85.700 190.700 85.800 190.700 H 88.400 C 88.500 190.700 88.400 190.600 88.400 190.700 V 193.400 Z" stroke="rgb(0,0,255)" stroke-width="0.20" />
  <path d="M 88.400 182.200 V 184.900 C 88.400 185.000 88.500 184.900 88.400 184.900 H 85.800 C 85.700 184.900 85.800 185.000 85.800 184.900 V 179.500 C 85.800 179.400 85.700 179.500 85.800 179.500 H 88.400 C 88.500 179.500 88.400 179.400 88.400 179.500 V 182.200 Z" stroke="rgb(0,0,255)" stroke-width="0.20" />
  <path d="M 88.400 171.000 V 173.700 C 88.400 173.800 88.500 173.700 88.400 173.700 H 85.800 C 85.700 173.700 85.800 173.800 85.800 173.700 V 168.300 C 85.800 168.200 85.700 168.300 85.800 168.300 H 88.400 C 88.500 168.300 88.400 168.200 88.400 168.300 V 171.000 Z" stroke="rgb(0,0,255)" stroke-width="0.20" />
  <path d="M 164.000 193.400 V 196.100 C 164.000 196.200 164.100 196.100 164.000 196.100 H 161.400 C 161.300 196.100 161.400 196.200 161.400 196.100 V 190.700 C 161.400 190.600 161.300 190.700 161.400 190.700 H 164.000 C 164.100 190.700 164.000 190.600 164.000 190.700 V 193.400 Z" stroke="rgb(0,0,255)" stroke-width="0.20" />
  <path d="M 164.000 182.200 V 184.900 C 164.000 185.000 164.100 184.900 164.000 184.900 H 161.400 C 161.300 184.900 161.400 185.000 161.400 184.900 V 179.500 C 161.400 179.400 161.300 179.500 161.400 179.500 H 164.000 C 164.100 179.500 164.000 179.400 164.000 179.500 V 182.200 Z" stroke="rgb(0,0,255)" stroke-width="0.20" />
  <path d="M 164.000 171.000 V 173.700 C 164.000 173.800 164.100 173.700 164.000 173.700 H 161.400 C 161.300 173.700 161.400 173.800 161.400 173.700 V 168.300 C 161.400 168.200 161.300 168.300 161.400 168.300 H 164.000 C 164.100 168.300 164.000 168.200 164.000 168.300 V 171.000 Z" stroke="rgb(0,0,255)" stroke-width="0.20" />
</g>
<g id="p-2" style="fill:none;stroke-linecap:round;stroke-linejoin:round;">
  <text dominant-baseline="hanging" font-size="5.6px" style="font-family: sans-serif ; font-weight: normal; font-style: normal; fill: rgb(255,0,0)" text-anchor="middle" transform="matrix( 1.000 0.000 0.000 1.000 261.600 201.600 )">x 1/2</text>
  <text dominant-baseline="hanging" font-size="5.6px" style="font-family: sans-serif ; font-weight: normal; font-style: normal; fill: rgb(255,0,0)" text-anchor="middle" transform="matrix( 1.000 0.000 0.000 1.000 299.400 201.600 )">x 2/2</text>
  <text dominant-baseline="hanging" font-size="5.6px" style="font-family: sans-serif ; font-weight: normal; font-style: normal; fill: rgb(255,0,0)" text-anchor="middle" transform="matrix( 1.000 0.000 0.000 1.000 337.200 201.600 )">x 3/2</text>
  <text dominant-baseline="hanging" font-size="5.6px" style="font-family: sans-serif ; font-weight: normal; font-style: normal; fill: rgb(255,0,0)" text-anchor="middle" transform="matrix( 1.000 0.000 0.000 1.000 375.000 201.600 )">x 4/2</text>
  <text dominant-baseline="hanging" font-size="5.6px" style="font-family: sans-serif ; font-weight: normal; font-style: normal; fill: rgb(255,0,0)" text-anchor="middle" transform="matrix( 1.000 0.000 0.000 1.000 412.800 201.600 )">x 5/2</text>
  <text dominant-baseline="hanging" font-size="5.6px" style="font-family: sans-serif ; font-weight: normal; font-style: normal; fill: rgb(255,0,0)" text-anchor="middle" transform="matrix( 1.000 0.000 0.000 1.000 450.600 201.600 )">x 6/2</text>
  <path d="M 244.100 207.300 H 253.100 C 253.200 207.300 253.100 207.200 253.100 207.300 V 210.000 C 253.100 210.055 253.145 210.100 253.200 210.100 H 258.800 C 258.855 210.100 258.900 210.055 258.900 210.000 V 207.300 C 258.900 207.200 258.800 207.300 258.900 207.300 H 264.300 C 264.400 207.300 264.300 207.200 264.300 207.300 V 210.000 C 264.300 210.055 264.345 210.100 264.400 210.100 H 270.000 C 270.055 210.100 270.100 210.055 270.100 210.000 V 207.300 C 270.100 207.200 270.000 207.300 270.100 207.300 H 279.100 H 281.900 H 290.900 C 291.000 207.300 290.900 207.200 290.900 207.300 V 210.000 C 290.900 210.055 290.945 210.100 291.000 210.100 H 296.600 C 296.655 210.100 296.700 210.055 296.700 210.000 V 207.300 C 296.700 207.200 296.600 207.300 296.700 207.300 H 302.100 C 302.200 207.300 302.100 207.200 302.100 207.300 V 210.000 C 302.100 210.055 302.145 210.100 302.200 210.100 H 307.800 C 307.855 210.100 307.900 210.055 307.900 210.000 V 207.300 C 307.900 207.200 307.800 207.300 307.900 207.300 H 316.900 H 319.700 H 328.700 C 328.800 207.300 328.700 207.200 328.700 207.300 V 210.000 C 328.700 210.055 328.745 210.100 328.800 210.100 H 334.400 C 334.455 210.100 334.500 210.055 334.500 210.000 V 207.300 C 334.500 207.200 334.400 207.300 334.500 207.300 H 339.900 C 340.000 207.300 339.900 207.200 339.900 207.300 V 210.000 C 339.900 210.055 339.945 210.100 340.000 210.100 H 345.600 C 345.655 210.100 345.700 210.055 345.700 210.000 V 207.300 C 345.700 207.200 345.600 207.300 345.700 207.300 H 354.700 H 357.500 H 366.500 C 366.600 207.300 366.500 207.200 366.500 207.300 V 210.000 C 366.500 210.055 366.545 210.100 366.600 210.100 H 372.200 C 372.255 210.100 372.300 210.055 372.300 210.000 V 207.300 C 372.300 207.200 372.200 207.300 372.300 207.300 H 377.700 C 377.800 207.300 377.700 207.200 377.700 207.300 V 210.000 C 377.700 210.055 377.745 210.100 377.800 210.100 H 383.400 C 383.455 210.100 383.500 210.055 383.500 210.000 V 207.300 C 383.500 207.200 383.400 207.300 383.500 207.300 H 392.500 H 395.300 H 404.300 C 404.400 207.300 404.300 207.200 404.300 207.300 V 210.000 C 404.300 210.055 404.345 210.100 404.400 210.100 H 410.000 C 410.055 210.100 410.100 210.055 410.100 210.000 V 207.300 C 410.100 207.200 410.000 207.300 410.100 207.300 H 415.500 C 415.600 207.300 415.500 207.200 415.500 207.300 V 210.000 C 415.500 210.055 415.545 210.100 415.600 210.100 H 421.200 C 421.255 210.100 421.300 210.055 421.300 210.000 V 207.300 C 421.300 207.200 421.200 207.300 421.300 207.300 H 430.300 H 433.100 H 442.100 C 442.200 207.300 442.100 207.200 442.100 207.300 V 210.000 C 442.100 210.055 442.145 210.100 442.200 210.100 H 447.800 C 447.855 210.100 447.900 210.055 447.900 210.000 V 207.300 C 447.900 207.200 447.800 207.300 447.900 207.300 H 453.300 C 453.400 207.300 453.300 207.200 453.300 207.300 V 210.000 C 453.300 210.055 453.345 210.100 453.400 210.100 H 459.000 C 459.055 210.100 459.100 210.055 459.100 210.000 V 207.300 C 459.100 207.200 459.000 207.300 459.100 207.300 H 468.100 C 468.155 207.300 468.200 207.255 468.200 207.200 V 196.300 C 468.200 196.200 468.100 196.300 468.200 196.300 H 470.900 C 470.955 196.300 471.000 196.255 471.000 196.200 V 190.600 C 471.000 190.545 470.955 190.500 470.900 190.500 H 468.200 C 468.100 190.500 468.200 190.600 468.200 190.500 V 185.100 C 468.200 185.000 468.100 185.100 468.200 185.100 H 470.900 C 470.955 185.100 471.000 185.055 471.000 185.000 V 179.400 C 471.000 179.345 470.955 179.300 470.900 179.300 H 468.200 C 468.100 179.300 468.200 179.400 468.200 179.300 V 173.900 C 468.200 173.800 468.100 173.900 468.200 173.900 H 470.900 C 470.955 173.900 471.000 173.855 471.000 173.800 V 168.200 C 471.000 168.145 470.955 168.100 470.900 168.100 H 468.200 C 468.100 168.100 468.200 168.200 468.200 168.100 V 157.200 C 468.200 157.145 468.155 157.100 468.100 157.100 H 244.100 C 244.045 157.100 244.000 157.145 244.000 157.200 V 168.100 C 244.000 168.200 244.100 168.100 244.000 168.100 H 241.300 C 241.245 168.100 241.200 168.145 241.200 168.200 V 173.800 C 241.200 173.855 241.245 173.900 241.300 173.900 H 244.000 C 244.100 173.900 244.000 173.800 244.000 173.900 V 179.300 C 244.000 179.400 244.100 179.300 244.000 179.300 H 241.300 C 241.245 179.300 241.200 179.345 241.200 179.400 V 185.000 C 241.200 185.055 241.245 185.100 241.300 185.100 H 244.000 C 244.100 185.100 244.000 185.000 244.000 185.100 V 190.500 C 244.000 190.600 244.100 190.500 244.000 190.500 H 241.300 C 241.245 190.500 241.200 190.545 241.200 190.600 V 196.200 C 241.200 196.255 241.245 196.300 241.300 196.300 H 244.000 C 244.100 196.300 244.000 196.200 244.000 196.300 V 207.200 C 244.000 207.255 244.045 207.300 244.100 207.300 Z" stroke="rgb(0,0,0)" stroke-width="0.20" />
  <path d="M 319.600 193.400 V 196.100 C 319.600 196.200 319.700 196.100 319.600 196.100 H 317.000 C 316.900 196.100 317.000 196.200 317.000 196.100 V 190.700 C 317.000 190.600 316.900 190.700 317.000 190.700 H 319.600 C 319.700 190.700 319.600 190.600 319.600 190.700 V 193.400 Z" stroke="rgb(0,0,255)" stroke-width="0.20" />
  <path d="M 319.600 182.200 V 184.900 C 319.600 185.000 319.700 184.900 319.600 184.900 H 317.000 C 316.900 184.900 317.000 185.000 317.000 184.900 V 179.500 C 317.000 179.400 316.900 179.500 317.000 179.500 H 319.600 C 319.700 179.500 319.600 179.400 319.600 179.500 V 182.200 Z" stroke="rgb(0,0,255)" stroke-width="0.20" />
  <path d="M 319.600 171.000 V 173.700 C 319.600 173.800 319.700 173.700 319.600 173.700 H 317.000 C 316.900 173.700 317.000 173.800 317.000 173.700 V 168.300 C 317.000 168.200 316.900 168.300 317.000 168.300 H 319.600 C 319.700 168.300 319.600 168.200 319.600 168.300 V 171.000 Z" stroke="rgb(0,0,255)" stroke-width="0.20" />
  <path d="M 357.400 193.400 V 196.100 C 357.400 196.200 357.500 196.100 357.400 196.100 H 354.800 C 354.700 196.100 354.800 196.200 354.800 196.100 V 190.700 C 354.800 190.600 354.700 190.700 354.800 190.700 H 357.400 C 357.500 190.700 357.400 190.600 357.400 190.700 V 193.400 Z" stroke="rgb(0,0,255)" stroke-width="0.20" />
  <path d="M 357.400 182.200 V 184.900 C 357.400 185.000 357.500 184.900 357.400 184.900 H 354.800 C 354.700 184.900 354.800 185.000 354.800 184.900 V 179.500 C 354.800 179.400 354.700 179.500 354.800 179.500 H 357.400 C 357.500 179.500 357.400 179.400 357.400 179.500 V 182.200 Z" stroke="rgb(0,0,255)" stroke-width="0.20" />
  <path d="M 357.400 171.000 V 173.700 C 357.400 173.800 357.500 173.700 357.400 173.700 H 354.800 C 354.700 173.700 354.800 173.800 354.800 173.700 V 168.300 C 354.800 168.200 354.700 168.300 354.800 168.300 H 357.400 C 357.500 168.300 357.400 168.200 357.400 168.300 V 171.000 Z" stroke="rgb(0,0,255)" stroke-width="0.20" />
  <path d="M 395.200 193.400 V 196.100 C 395.200 196.200 395.300 196.100 395.200 196.100 H 392.600 C 392.500 196.100 392.600 196.200 392.600 196.100 V 190.700 C 392.600 190.600 392.500 190.700 392.600 190.700 H 395.200 C 395.300 190.700 395.200 190.600 395.200 190.700 V 193.400 Z" stroke="rgb(0,0,255)" stroke-width="0.20" />
  <path d="M 395.200 182.200 V 184.900 C 395.200 185.000 395.300 184.900 395.200 184.900 H 392.600 C 392.500 184.900 392.600 185.000 392.600 184.900 V 179.500 C 392.600 179.400 392.500 179.500 392.600 179.500 H 395.200 C 395.300 179.500 395.200 179.400 395.200 179.500 V 182.200 Z" stroke="rgb(0,0,255)" stroke-width="0.20" />
  <path d="M 395.200 171.000 V 173.700 C 395.200 173.800 395.300 173.700 395.200 173.700 H 392.600 C 392.500 173.700 392.600 173.800 392.600 173.700 V 168.300 C 392.600 168.200 392.500 168.300 392.600 168.300 H 395.200 C 395.300 168.300 395.200 168.200 395.200 168.300 V 171.000 Z" stroke="rgb(0,0,255)" stroke-width="0.20" />
</g>
<g id="p-3" style="fill:none;stroke-linecap:round;stroke-linejoin:round;">
  <text dominant-baseline="hanging" font-size="5.6px" style="font-family: sans-serif ; font-weight: normal; font-style: normal; fill: rgb(255,0,0)" text-anchor="middle" transform="matrix( 1.000 0.000 0.000 1.000 492.800 201.600 )">x 1/3</text>
  <text dominant-baseline="hanging" font-size="5.6px" style="font-family: sans-serif ; font-weight: normal; font-style: normal; fill: rgb(255,0,0)" text-anchor="middle" transform="matrix( 1.000 0.000 0.000 1.000 530.600 201.600 )">x 2/3</text>
  <text dominant-baseline="hanging" font-size="5.6px" style="font-family: sans-serif ; font-weight: normal; font-style: normal; fill: rgb(255,0,0)" text-anchor="middle" transform="matrix( 1.000 0.000 0.000 1.000 568.400 201.600 )">x 3/3</text>
  <text dominant-baseline="hanging" font-size="5.6px" style="font-family: sans-serif ; font-weight: normal; font-style: normal; fill: rgb(255,0,0)" text-anchor="middle" transform="matrix( 1.000 0.000 0.000 1.000 606.200 201.600 )">x 4/3</text>
  <text dominant-baseline="hanging" font-size="5.6px" style="font-family: sans-serif ; font-weight: normal; font-style: normal; fill: rgb(255,0,0)" text-anchor="middle" transform="matrix( 1.000 0.000 0.000 1.000 644.000 201.600 )">x 5/3</text>
  <text dominant-baseline="hanging" font-size="5.6px" style="font-family: sans-serif ; font-weight: normal; font-style: normal; fill: rgb(255,0,0)" text-anchor="middle" transform="matrix( 1.000 0.000 0.000 1.000 681.800 201.600 )">x 6/3</text>
  <path d="M 475.300 207.300 H 484.300 C 484.400 207.300 484.300 207.200 484.300 207.300 V 210.000 C 484.300 210.055 484.345 210.100 484.400 210.100 H 490.000 C 490.055 210.100 490.100 210.055 490.100 210.000 V 207.300 C 490.100 207.200 490.000 207.300 490.100 207.300 H 495.500 C 495.600 207.300 495.500 207.200 495.500 207.300 V 210.000 C 495.500 210.055 495.545 210.100 495.600 210.100 H 501.200 C 501.255 210.100 501.300 210.055 501.300 210.000 V 207.300 C 501.300 207.200 501.200 207.300 501.300 207.300 H 510.300 H 513.100 H 522.100 C 522.200 207.300 522.100 207.200 522.100 207.300 V 210.000 C 522.100 210.055 522.145 210.100 522.200 210.100 H 527.800 C 527.855 210.100 527.900 210.055 527.900 210.000 V 207.300 C 527.900 207.200 527.800 207.300 527.900 207.300 H 533.300 C 533.400 207.300 533.300 207.200 533.300 207.300 V 210.000 C 533.300 210.055 533.345 210.100 533.400 210.100 H 539.000 C 539.055 210.100 539.100 210.055 539.100 210.000 V 207.300 C 539.100 207.200 539.000 207.300 539.100 207.300 H 548.100 H 550.900 H 559.900 C 560.000 207.300 559.900 207.200 559.900 207.300 V 210.000 C 559.900 210.055 559.945 210.100 560.000 210.100 H 565.600 C 565.655 210.100 565.700 210.055 565.700 210.000 V 207.300 C 565.700 207.200 565.600 207.300 565.700 207.300 H 571.100 C 571.200 207.300 571.100 207.200 571.100 207.300 V 210.000 C 571.100 210.055 571.145 210.100 571.200 210.100 H 576.800 C 576.855 210.100 576.900 210.055 576.900 210.000 V 207.300 C 576.900 207.200 576.800 207.300 576.900 207.300 H 585.900 H 588.700 H 597.700 C 597.800 207.300 597.700 207.200 597.700 207.300 V 210.000 C 597.700 210.055 597.745 210.100 597.800 210.100 H 603.400 C 603.455 210.100 603.500 210.055 603.500 210.000 V 207.300 C 603.500 207.200 603.400 207.300 603.500 207.300 H 608.900 C 609.000 207.300 608.900 207.200 608.900 207.300 V 210.000 C 608.900 210.055 608.945 210.100 609.000 210.100 H 614.600 C 614.655 210.100 614.700 210.055 614.700 210.000 V 207.300 C 614.700 207.200 614.600 207.300 614.700 207.300 H 623.700 H 626.500 H 635.500 C 635.600 207.300 635.500 207.200 635.500 207.300 V 210.000 C 635.500 210.055 635.545 210.100 635.600 210.100 H 641.200 C 641.255 210.100 641.300 210.055 641.300 210.000 V 207.300 C 641.300 207.200 641.200 207.300 641.300 207.300 H 646.700 C 646.800 207.300 646.700 207.200 646.700 207.300 V 210.000 C 646.700 210.055 646.745 210.100 646.800 210.100 H 652.400 C 652.455 210.100 652.500 210.055 652.500 210.000 V 207.300 C 652.500 207.200 652.400 207.300 652.500 207.300 H 661.500 H 664.300 H 673.300 C 673.400 207.300 673.300 207.200 673.300 207.300 V 210.000 C 673.300 210.055 673.345 210.100 673.400 210.100 H 679.000 C 679.055 210.100 679.100 210.055 679.100 210.000 V 207.300 C 679.100 207.200 679.000 207.300 679.100 207.300 H 684.500 C 684.600 207.300 684.500 207.200 684.500 207.300 V 210.000 C 684.500 210.055 684.545 210.100 684.600 210.100 H 690.200 C 690.255 210.100 690.300 210.055 690.300 210.000 V 207.300 C 690.300 207.200 690.200 207.300 690.300 207.300 H 699.300 C 699.355 207.300 699.400 207.255 699.400 207.200 V 196.300 C 699.400 196.200 699.300 196.300 699.400 196.300 H 702.100 C 702.155 196.300 702.200 196.255 702.200 196.200 V 190.600 C 702.200 190.545 702.155 190.500 702.100 190.500 H 699.400 C 699.300 190.500 699.400 190.600 699.400 190.500 V 185.100 C 699.400 185.000 699.300 185.100 699.400 185.100 H 702.100 C 702.155 185.100 702.200 185.055 702.200 185.000 V 179.400 C 702.200 179.345 702.155 179.300 702.100 179.300 H 699.400 C 699.300 179.300 699.400 179.400 699.400 179.300 V 173.900 C 699.400 173.800 699.300 173.900 699.400 173.900 H 702.100 C 702.155 173.900 702.200 173.855 702.200 173.800 V 168.200 C 702.200 168.145 702.155 168.100 702.100 168.100 H 699.400 C 699.300 168.100 699.400 168.200 699.400 168.100 V 157.200 C 699.400 157.145 699.355 157.100 699.300 157.100 H 475.300 C 475.245 157.100 475.200 157.145 475.200 157.200 V 168.100 C 475.200 168.200 475.300 168.100 475.200 168.100 H 472.500 C 472.445 168.100 472.400 168.145 472.400 168.200 V 173.800 C 472.400 173.855 472.445 173.900 472.500 173.900 H 475.200 C 475.300 173.900 475.200 173.800 475.200 173.900 V 179.300 C 475.200 179.400 475.300 179.300 475.200 179.300 H 472.500 C 472.445 179.300 472.400 179.345 472.400 179.400 V 185.000 C 472.400 185.055 472.445 185.100 472.500 185.100 H 475.200 C 475.300 185.100 475.200 185.000 475.200 185.100 V 190.500 C 475.200 190.600 475.300 190.500 475.200 190.500 H 472.500 C 472.445 190.500 472.400 190.545 472.400 190.600 V 196.200 C 472.400 196.255 472.445 196.300 472.500 196.300 H 475.200 C 475.300 196.300 475.200 196.200 475.200 196.300 V 207.200 C 475.200 207.255 475.245 207.300 475.300 207.300 Z" stroke="rgb(0,0,0)" stroke-width="0.20" />
  <path d="M 588.600 193.400 V 196.100 C 588.600 196.200 588.700 196.100 588.600 196.100 H 586.000 C 585.900 196.100 586.000 196.200 586.000 196.100 V 190.700 C 586.000 190.600 585.900 190.700 586.000 190.700 H 588.600 C 588.700 190.700 588.600 190.600 588.600 190.700 V 193.400 Z" stroke="rgb(0,0,255)" stroke-width="0.20" />
  <path d="M 588.600 182.200 V 184.900 C 588.600 185.000 588.700 184.900 588.600 184.900 H 586.000 C 585.900 184.900 586.000 185.000 586.000 184.900 V 179.500 C 586.000 179.400 585.900 179.500 586.000 179.500 H 588.600 C 588.700 179.500 588.600 179.400 588.600 179.500 V 182.200 Z" stroke="rgb(0,0,255)" stroke-width="0.20" />
  <path d="M 588.600 171.000 V 173.700 C 588.600 173.800 588.700 173.700 588.600 173.700 H 586.000 C 585.900 173.700 586.000 173.800 586.000 173.700 V 168.300 C 586.000 168.200 585.900 168.300 586.000 168.300 H 588.600 C 588.700 168.300 588.600 168.200 588.600 168.300 V 171.000 Z" stroke="rgb(0,0,255)" stroke-width="0.20" />
</g>
<g id="p-4" style="fill:none;stroke-linecap:round;stroke-linejoin:round;">
  <text dominant-baseline="hanging" font-size="5.6px" style="font-family: sans-serif ; font-weight: normal; font-style: normal; fill: rgb(255,0,0)" text-anchor="middle" transform="matrix( 1.000 0.000 0.000 1.000 724.000 201.600 )">x 1/4</text>
  <text dominant-baseline="hanging" font-size="5.6px" style="font-family: sans-serif ; font-weight: normal; font-style: normal; fill: rgb(255,0,0)" text-anchor="middle" transform="matrix( 1.000 0.000 0.000 1.000 761.800 201.600 )">x 2/4</text>
  <text dominant-baseline="hanging" font-size="5.6px" style="font-family: sans-serif ; font-weight: normal; font-style: normal; fill: rgb(255,0,0)" text-anchor="middle" transform="matrix( 1.000 0.000 0.000 1.000 799.600 201.600 )">x 3/4</text>
  <text dominant-baseline="hanging" font-size="5.6px" style="font-family: sans-serif ; font-weight: normal; font-style: normal; fill: rgb(255,0,0)" text-anchor="middle" transform="matrix( 1.000 0.000 0.000 1.000 837.400 201.600 )">x 4/4</text>
  <text dominant-baseline="hanging" font-size="5.6px" style="font-family: sans-serif ; font-weight: normal; font-style: normal; fill: rgb(255,0,0)" text-anchor="middle" transform="matrix( 1.000 0.000 0.000 1.000 875.200 201.600 )">x 5/4</text>
  <text dominant-baseline="hanging" font-size="5.6px" style="font-family: sans-serif ; font-weight: normal; font-style: normal; fill: rgb(255,0,0)" text-anchor="middle" transform="matrix( 1.000 0.000 0.000 1.000 913.000 201.600 )">x 6/4</text>
  <path d="M 706.500 207.300 H 715.500 C 715.600 207.300 715.500 207.200 715.500 207.300 V 210.000 C 715.500 210.055 715.545 210.100 715.600 210.100 H 721.200 C 721.255 210.100 721.300 210.055 721.300 210.000 V 207.300 C 721.300 207.200 721.200 207.300 721.300 207.300 H 726.700 C 726.800 207.300 726.700 207.200 726.700 207.300 V 210.000 C 726.700 210.055 726.745 210.100 726.800 210.100 H 732.400 C 732.455 210.100 732.500 210.055 732.500 210.000 V 207.300 C 732.500 207.200 732.400 207.300 732.500 207.300 H 741.500 H 744.300 H 753.300 C 753.400 207.300 753.300 207.200 753.300 207.300 V 210.000 C 753.300 210.055 753.345 210.100 753.400 210.100 H 759.000 C 759.055 210.100 759.100 210.055 759.100 210.000 V 207.300 C 759.100 207.200 759.000 207.300 759.100 207.300 H 764.500 C 764.600 207.300 764.500 207.200 764.500 207.300 V 210.000 C 764.500 210.055 764.545 210.100 764.600 210.100 H 770.200 C 770.255 210.100 770.300 210.055 770.300 210.000 V 207.300 C 770.300 207.200 770.200 207.300 770.300 207.300 H 779.300 H 782.100 H 791.100 C 791.200 207.300 791.100 207.200 791.100 207.300 V 210.000 C 791.100 210.055 791.145 210.100 791.200 210.100 H 796.800 C 796.855 210.100 796.900 210.055 796.900 210.000 V 207.300 C 796.900 207.200 796.800 207.300 796.900 207.300 H 802.300 C 802.400 207.300 802.300 207.200 802.300 207.300 V 210.000 C 802.300 210.055 802.345 210.100 802.400 210.100 H 808.000 C 808.055 210.100 808.100 210.055 808.100 210.000 V 207.300 C 808.100 207.200 808.000 207.300 808.100 207.300 H 817.100 H 819.900 H 828.900 C 829.000 207.300 828.900 207.200 828.900 207.300 V 210.000 C 828.900 210.055 828.945 210.100 829.000 210.100 H 834.600 C 834.655 210.100 834.700 210.055 834.700 210.000 V 207.300 C 834.700 207.200 834.600 207.300 834.700 207.300 H 840.100 C 840.200 207.300 840.100 207.200 840.100 207.300 V 210.000 C 840.100 210.055 840.145 210.100 840.200 210.100 H 845.800 C 845.855 210.100 845.900 210.055 845.900 210.000 V 207.300 C 845.900 207.200 845.800 207.300 845.900 207.300 H 854.900 H 857.700 H 866.700 C 866.800 207.300 866.700 207.200 866.700 207.300 V 210.000 C 866.700 210.055 866.745 210.100 866.800 210.100 H 872.400 C 872.455 210.100 872.500 210.055 872.500 210.000 V 207.300 C 872.500 207.200 872.400 207.300 872.500 207.300 H 877.900 C 878.000 207.300 877.900 207.200 877.900 207.300 V 210.000 C 877.900 210.055 877.945 210.100 878.000 210.100 H 883.600 C 883.655 210.100 883.700 210.055 883.700 210.000 V 207.300 C 883.700 207.200 883.600 207.300 883.700 207.300 H 892.700 H 895.500 H 904.500 C 904.600 207.300 904.500 207.200 904.500 207.300 V 210.000 C 904.500 210.055 904.545 210.100 904.600 210.100 H 910.200 C 910.255 210.100 910.300 210.055 910.300 210.000 V 207.300 C 910.300 207.200 910.200 207.300 910.300 207.300 H 915.700 C 915.800 207.300 915.700 207.200 915.700 207.300 V 210.000 C 915.700 210.055 915.745 210.100 915.800 210.100 H 921.400 C 921.455 210.100 921.500 210.055 921.500 210.000 V 207.300 C 921.500 207.200 921.400 207.300 921.500 207.300 H 930.500 C 930.555 207.300 930.600 207.255 930.600 207.200 V 196.300 C 930.600 196.200 930.500 196.300 930.600 196.300 H 933.300 C 933.355 196.300 933.400 196.255 933.400 196.200 V 190.600 C 933.400 190.545 933.355 190.500 933.300 190.500 H 930.600 C 930.500 190.500 930.600 190.600 930.600 190.500 V 185.100 C 930.600 185.000 930.500 185.100 930.600 185.100 H 933.300 C 933.355 185.100 933.400 185.055 933.400 185.000 V 179.400 C 933.400 179.345 933.355 179.300 933.300 179.300 H 930.600 C 930.500 179.300 930.600 179.400 930.600 179.300 V 173.900 C 930.600 173.800 930.500 173.900 930.600 173.900 H 933.300 C 933.355 173.900 933.400 173.855 933.400 173.800 V 168.200 C 933.400 168.145 933.355 168.100 933.300 168.100 H 930.600 C 930.500 168.100 930.600 168.200 930.600 168.100 V 157.200 C 930.600 157.145 930.555 157.100 930.500 157.100 H 706.500 C 706.445 157.100 706.400 157.145 706.400 157.200 V 168.100 C 706.400 168.200 706.500 168.100 706.400 168.100 H 703.700 C 703.645 168.100 703.600 168.145 703.600 168.200 V 173.800 C 703.600 173.855 703.645 173.900 703.700 173.900 H 706.400 C 706.500 173.900 706.400 173.800 706.400 173.900 V 179.300 C 706.400 179.400 706.500 179.300 706.400 179.300 H 703.700 C 703.645 179.300 703.600 179.345 703.600 179.400 V 185.000 C 703.600 185.055 703.645 185.100 703.700 185.100 H 706.400 C 706.500 185.100 706.400 185.000 706.400 185.100 V 190.500 C 706.400 190.600 706.500 190.500 706.400 190.500 H 703.700 C 703.645 190.500 703.600 190.545 703.600 190.600 V 196.200 C 703.600 196.255 703.645 196.300 703.700 196.300 H 706.400 C 706.500 196.300 706.400 196.200 706.400 196.300 V 207.200 C 706.400 207.255 706.445 207.300 706.500 207.300 Z" stroke="rgb(0,0,0)" stroke-width="0.20" />
</g>
<g id="p-5" style="fill:none;stroke-linecap:round;stroke-linejoin:round;">
  <text dominant-baseline="hanging" font-size="5.6px" style="font-family: sans-serif ; font-weight: normal; font-style: normal; fill: rgb(255,0,0)" text-anchor="middle" transform="matrix( 1.000 0.000 0.000 1.000 37.900 147.200 )">y 1/1</text>
  <text dominant-baseline="hanging" font-size="5.6px" style="font-family: sans-serif ; font-weight: normal; font-style: normal; fill: rgb(255,0,0)" text-anchor="middle" transform="matrix( 1.000 0.000 0.000 1.000 75.700 147.200 )">y 1/2</text>
  <text dominant-baseline="hanging" font-size="5.6px" style="font-family: sans-serif ; font-weight: normal; font-style: normal; fill: rgb(255,0,0)" text-anchor="middle" transform="matrix( 1.000 0.000 0.000 1.000 93.500 147.200 )">y 1/3</text>
  <path d="M 12.900 152.900 H 23.800 C 23.900 152.900 23.800 152.800 23.800 152.900 V 155.600 C 23.800 155.655 23.845 155.700 23.900 155.700 H 29.500 C 29.555 155.700 29.600 155.655 29.600 155.600 V 152.900 C 29.600 152.800 29.500 152.900 29.600 152.900 H 35.000 C 35.100 152.900 35.000 152.800 35.000 152.900 V 155.600 C 35.000 155.655 35.045 155.700 35.100 155.700 H 40.700 C 40.755 155.700 40.800 155.655 40.800 155.600 V 152.900 C 40.800 152.800 40.700 152.900 40.800 152.900 H 46.200 C 46.300 152.900 46.200 152.800 46.200 152.900 V 155.600 C 46.200 155.655 46.245 155.700 46.300 155.700 H 51.900 C 51.955 155.700 52.000 155.655 52.000 155.600 V 152.900 C 52.000 152.800 51.900 152.900 52.000 152.900 H 62.900 H 65.700 H 72.800 C 72.900 152.900 72.800 152.800 72.800 152.900 V 155.600 C 72.800 155.655 72.845 155.700 72.900 155.700 H 78.500 C 78.555 155.700 78.600 155.655 78.600 155.600 V 152.900 C 78.600 152.800 78.500 152.900 78.600 152.900 H 85.700 H 88.500 H 90.600 C 90.700 152.900 90.600 152.800 90.600 152.900 V 155.600 C 90.600 155.655 90.645 155.700 90.700 155.700 H 96.300 C 96.355 155.700 96.400 155.655 96.400 155.600 V 152.900 C 96.400 152.800 96.300 152.900 96.400 152.900 H 98.500 H 101.300 C 101.355 152.900 101.400 152.855 101.400 152.800 V 141.800 C 101.400 141.745 101.355 141.700 101.300 141.700 H 98.600 C 98.500 141.700 98.600 141.800 98.600 141.700 V 136.300 C 98.600 136.200 98.500 136.300 98.600 136.300 H 101.300 C 101.355 136.300 101.400 136.255 101.400 136.200 V 130.600 C 101.400 130.545 101.355 130.500 101.300 130.500 H 98.600 C 98.500 130.500 98.600 130.600 98.600 130.500 V 125.100 C 98.600 125.000 98.500 125.100 98.600 125.100 H 101.300 C 101.355 125.100 101.400 125.055 101.400 125.000 V 119.400 C 101.400 119.345 101.355 119.300 101.300 119.300 H 98.600 C 98.500 119.300 98.600 119.400 98.600 119.300 V 113.900 C 98.600 113.800 98.500 113.900 98.600 113.900 H 101.300 C 101.355 113.900 101.400 113.855 101.400 113.800 V 102.800 C 101.400 102.745 101.355 102.700 101.300 102.700 H 98.500 H 88.500 H 85.700 H 65.700 H 62.900 H 12.900 H 10.100 C 10.045 102.700 10.000 102.745 10.000 102.800 V 113.800 C 10.000 113.855 10.045 113.900 10.100 113.900 H 12.800 C 12.900 113.900 12.800 113.800 12.800 113.900 V 119.300 C 12.800 119.400 12.900 119.300 12.800 119.300 H 10.100 C 10.045 119.300 10.000 119.345 10.000 119.400 V 125.000 C 10.000 125.055 10.045 125.100 10.100 125.100 H 12.800 C 12.900 125.100 12.800 125.000 12.800 125.100 V 130.500 C 12.800 130.600 12.900 130.500 12.800 130.500 H 10.100 C 10.045 130.500 10.000 130.545 10.000 130.600 V 136.200 C 10.000 136.255 10.045 136.300 10.100 136.300 H 12.800 C 12.900 136.300 12.800 136.200 12.800 136.300 V 141.700 C 12.800 141.800 12.900 141.700 12.800 141.700 H 10.100 C 10.045 141.700 10.000 141.745 10.000 141.800 V 152.800 C 10.000 152.855 10.045 152.900 10.100 152.900 H 12.900 Z" stroke="rgb(0,0,0)" stroke-width="0.20" />
  <path d="M 65.600 139.000 V 141.700 C 65.600 141.800 65.700 141.700 65.600 141.700 H 63.000 C 62.900 141.700 63.000 141.800 63.000 141.700 V 136.300 C 63.000 136.200 62.900 136.300 63.000 136.300 H 65.600 C 65.700 136.300 65.600 136.200 65.600 136.300 V 139.000 Z" stroke="rgb(0,0,255)" stroke-width="0.20" />
  <path d="M 65.600 127.800 V 130.500 C 65.600 130.600 65.700 130.500 65.600 130.500 H 63.000 C 62.900 130.500 63.000 130.600 63.000 130.500 V 125.100 C 63.000 125.000 62.900 125.100 63.000 125.100 H 65.600 C 65.700 125.100 65.600 125.000 65.600 125.100 V 127.800 Z" stroke="rgb(0,0,255)" stroke-width="0.20" />
  <path d="M 65.600 116.600 V 119.300 C 65.600 119.400 65.700 119.300 65.600 119.300 H 63.000 C 62.900 119.300 63.000 119.400 63.000 119.300 V 113.900 C 63.000 113.800 62.900 113.900 63.000 113.900 H 65.600 C 65.700 113.900 65.600 113.800 65.600 113.900 V 116.600 Z" stroke="rgb(0,0,255)" stroke-width="0.20" />
  <path d="M 88.400 139.000 V 141.700 C 88.400 141.800 88.500 141.700 88.400 141.700 H 85.800 C 85.700 141.700 85.800 141.800 85.800 141.700 V 136.300 C 85.800 136.200 85.700 136.300 85.800 136.300 H 88.400 C 88.500 136.300 88.400 136.200 88.400 136.300 V 139.000 Z" stroke="rgb(0,0,255)" stroke-width="0.20" />
  <path d="M 88.400 127.800 V 130.500 C 88.400 130.600 88.500 130.500 88.400 130.500 H 85.800 C 85.700 130.500 85.800 130.600 85.800 130.500 V 125.100 C 85.800 125.000 85.700 125.100 85.800 125.100 H 88.400 C 88.500 125.100 88.400 125.000 88.400 125.100 V 127.800 Z" stroke="rgb(0,0,255)" stroke-width="0.20" />
  <path d="M 88.400 116.600 V 119.300 C 88.400 119.400 88.500 119.300 88.400 119.300 H 85.800 C 85.700 119.300 85.800 119.400 85.800 119.300 V 113.900 C 85.800 113.800 85.700 113.900 85.800 113.900 H 88.400 C 88.500 113.900 88.400 113.800 88.400 113.900 V 116.600 Z" stroke="rgb(0,0,255)" stroke-width="0.20" />
</g>
<g id="p-6" style="fill:none;stroke-linecap:round;stroke-linejoin:round;">
  <text dominant-baseline="hanging" font-size="5.6px" style="font-family: sans-serif ; font-weight: normal; font-style: normal; fill: rgb(255,0,0)" text-anchor="middle" transform="matrix( 1.000 0.000 0.000 1.000 130.700 147.200 )">y 3/1</text>
  <path d="M 105.700 152.900 H 116.600 C 116.700 152.900 116.600 152.800 116.600 152.900 V 155.600 C 116.600 155.655 116.645 155.700 116.700 155.700 H 122.300 C 122.355 155.700 122.400 155.655 122.400 155.600 V 152.900 C 122.400 152.800 122.300 152.900 122.400 152.900 H 127.800 C 127.900 152.900 127.800 152.800 127.800 152.900 V 155.600 C 127.800 155.655 127.845 155.700 127.900 155.700 H 133.500 C 133.555 155.700 133.600 155.655 133.600 155.600 V 152.900 C 133.600 152.800 133.500 152.900 133.600 152.900 H 139.000 C 139.100 152.900 139.000 152.800 139.000 152.900 V 155.600 C 139.000 155.655 139.045 155.700 139.100 155.700 H 144.700 C 144.755 155.700 144.800 155.655 144.800 155.600 V 152.900 C 144.800 152.800 144.700 152.900 144.800 152.900 H 155.700 C 155.755 152.900 155.800 152.855 155.800 152.800 V 141.900 C 155.800 141.800 155.700 141.900 155.800 141.900 H 158.500 C 158.555 141.900 158.600 141.855 158.600 141.800 V 136.200 C 158.600 136.145 158.555 136.100 158.500 136.100 H 155.800 C 155.700 136.100 155.800 136.200 155.800 136.100 V 130.700 C 155.800 130.600 155.700 130.700 155.800 130.700 H 158.500 C 158.555 130.700 158.600 130.655 158.600 130.600 V 125.000 C 158.600 124.945 158.555 124.900 158.500 124.900 H 155.800 C 155.700 124.900 155.800 125.000 155.800 124.900 V 119.500 C 155.800 119.400 155.700 119.500 155.800 119.500 H 158.500 C 158.555 119.500 158.600 119.455 158.600 119.400 V 113.800 C 158.600 113.745 158.555 113.700 158.500 113.700 H 155.800 C 155.700 113.700 155.800 113.800 155.800 113.700 V 102.800 C 155.800 102.745 155.755 102.700 155.700 102.700 H 105.700 C 105.645 102.700 105.600 102.745 105.600 102.800 V 113.700 C 105.600 113.800 105.700 113.700 105.600 113.700 H 102.900 C 102.845 113.700 102.800 113.745 102.800 113.800 V 119.400 C 102.800 119.455 102.845 119.500 102.900 119.500 H 105.600 C 105.700 119.500 105.600 119.400 105.600 119.500 V 124.900 C 105.600 125.000 105.700 124.900 105.600 124.900 H 102.900 C 102.845 124.900 102.800 124.945 102.800 125.000 V 130.600 C 102.800 130.655 102.845 130.700 102.900 130.700 H 105.600 C 105.700 130.700 105.600 130.600 105.600 130.700 V 136.100 C 105.600 136.200 105.700 136.100 105.600 136.100 H 102.900 C 102.845 136.100 102.800 136.145 102.800 136.200 V 141.800 C 102.800 141.855 102.845 141.900 102.900 141.900 H 105.600 C 105.700 141.900 105.600 141.800 105.600 141.900 V 152.800 C 105.600 152.855 105.645 152.900 105.700 152.900 Z" stroke="rgb(0,0,0)" stroke-width="0.20" />
</g>
<g id="p-7" style="fill:none;stroke-linecap:round;stroke-linejoin:round;">
  <text dominant-baseline="hanging" font-size="5.6px" style="font-family: sans-serif ; font-weight: normal; font-style: normal; fill: rgb(255,0,0)" text-anchor="middle" transform="matrix( 1.000 0.000 0.000 1.000 172.900 147.200 )">y 4/2</text>
  <path d="M 162.900 152.900 H 170.000 C 170.100 152.900 170.000 152.800 170.000 152.900 V 155.600 C 170.000 155.655 170.045 155.700 170.100 155.700 H 175.700 C 175.755 155.700 175.800 155.655 175.800 155.600 V 152.900 C 175.800 152.800 175.700 152.900 175.800 152.900 H 182.900 C 182.955 152.900 183.000 152.855 183.000 152.800 V 141.900 C 183.000 141.800 182.900 141.900 183.000 141.900 H 185.700 C 185.755 141.900 185.800 141.855 185.800 141.800 V 136.200 C 185.800 136.145 185.755 136.100 185.700 136.100 H 183.000 C 182.900 136.100 183.000 136.200 183.000 136.100 V 130.700 C 183.000 130.600 182.900 130.700 183.000 130.700 H 185.700 C 185.755 130.700 185.800 130.655 185.800 130.600 V 125.000 C 185.800 124.945 185.755 124.900 185.700 124.900 H 183.000 C 182.900 124.900 183.000 125.000 183.000 124.900 V 119.500 C 183.000 119.400 182.900 119.500 183.000 119.500 H 185.700 C 185.755 119.500 185.800 119.455 185.800 119.400 V 113.800 C 185.800 113.745 185.755 113.700 185.700 113.700 H 183.000 C 182.900 113.700 183.000 113.800 183.000 113.700 V 102.800 C 183.000 102.745 182.955 102.700 182.900 102.700 H 162.900 C 162.845 102.700 162.800 102.745 162.800 102.800 V 113.700 C 162.800 113.800 162.900 113.700 162.800 113.700 H 160.100 C 160.045 113.700 160.000 113.745 160.000 113.800 V 119.400 C 160.000 119.455 160.045 119.500 160.100 119.500 H 162.800 C 162.900 119.500 162.800 119.400 162.800 119.500 V 124.900 C 162.800 125.000 162.900 124.900 162.800 124.900 H 160.100 C 160.045 124.900 160.000 124.945 160.000 125.000 V 130.600 C 160.000 130.655 160.045 130.700 160.100 130.700 H 162.800 C 162.900 130.700 162.800 130.600 162.800 130.700 V 136.100 C 162.800 136.200 162.900 136.100 162.800 136.100 H 160.100 C 160.045 136.100 160.000 136.145 160.000 136.200 V 141.800 C 160.000 141.855 160.045 141.900 160.100 141.900 H 162.800 C 162.900 141.900 162.800 141.800 162.800 141.900 V 152.800 C 162.800 152.855 162.845 152.900 162.900 152.900 Z" stroke="rgb(0,0,0)" stroke-width="0.20" />
</g>
<g id="p-8" style="fill:none;stroke-linecap:round;stroke-linejoin:round;">
  <text dominant-baseline="hanging" font-size="5.6px" style="font-family: sans-serif ; font-weight: normal; font-style: normal; fill: rgb(255,0,0)" text-anchor="middle" transform="matrix( 1.000 0.000 0.000 1.000 215.100 147.200 )">y 5/1</text>
  <path d="M 190.100 152.900 H 201.000 C 201.100 152.900 201.000 152.800 201.000 152.900 V 155.600 C 201.000 155.655 201.045 155.700 201.100 155.700 H 206.700 C 206.755 155.700 206.800 155.655 206.800 155.600 V 152.900 C 206.800 152.800 206.700 152.900 206.800 152.900 H 212.200 C 212.300 152.900 212.200 152.800 212.200 152.900 V 155.600 C 212.200 155.655 212.245 155.700 212.300 155.700 H 217.900 C 217.955 155.700 218.000 155.655 218.000 155.600 V 152.900 C 218.000 152.800 217.900 152.900 218.000 152.900 H 223.400 C 223.500 152.900 223.400 152.800 223.400 152.900 V 155.600 C 223.400 155.655 223.445 155.700 223.500 155.700 H 229.100 C 229.155 155.700 229.200 155.655 229.200 155.600 V 152.900 C 229.200 152.800 229.100 152.900 229.200 152.900 H 240.100 C 240.155 152.900 240.200 152.855 240.200 152.800 V 141.900 C 240.200 141.800 240.100 141.900 240.200 141.900 H 242.900 C 242.955 141.900 243.000 141.855 243.000 141.800 V 136.200 C 243.000 136.145 242.955 136.100 242.900 136.100 H 240.200 C 240.100 136.100 240.200 136.200 240.200 136.100 V 130.700 C 240.200 130.600 240.100 130.700 240.200 130.700 H 242.900 C 242.955 130.700 243.000 130.655 243.000 130.600 V 125.000 C 243.000 124.945 242.955 124.900 242.900 124.900 H 240.200 C 240.100 124.900 240.200 125.000 240.200 124.900 V 119.500 C 240.200 119.400 240.100 119.500 240.200 119.500 H 242.900 C 242.955 119.500 243.000 119.455 243.000 119.400 V 113.800 C 243.000 113.745 242.955 113.700 242.900 113.700 H 240.200 C 240.100 113.700 240.200 113.800 240.200 113.700 V 102.800 C 240.200 102.745 240.155 102.700 240.100 102.700 H 190.100 C 190.045 102.700 190.000 102.745 190.000 102.800 V 113.700 C 190.000 113.800 190.100 113.700 190.000 113.700 H 187.300 C 187.245 113.700 187.200 113.745 187.200 113.800 V 119.400 C 187.200 119.455 187.245 119.500 187.300 119.500 H 190.000 C 190.100 119.500 190.000 119.400 190.000 119.500 V 124.900 C 190.000 125.000 190.100 124.900 190.000 124.900 H 187.300 C 187.245 124.900 187.200 124.945 187.200 125.000 V 130.600 C 187.200 130.655 187.245 130.700 187.300 130.700 H 190.000 C 190.100 130.700 190.000 130.600 190.000 130.700 V 136.100 C 190.000 136.200 190.100 136.100 190.000 136.100 H 187.300 C 187.245 136.100 187.200 136.145 187.200 136.200 V 141.800 C 187.200 141.855 187.245 141.900 187.300 141.900 H 190.000 C 190.100 141.900 190.000 141.800 190.000 141.900 V 152.800 C 190.000 152.855 190.045 152.900 190.100 152.900 Z" stroke="rgb(0,0,0)" stroke-width="0.20" />
</g>
<g id="p-9" style="fill:none;stroke-linecap:round;stroke-linejoin:round;">
  <text dominant-baseline="hanging" font-size="5.6px" style="font-family: sans-serif ; font-weight: normal; font-style: normal; fill: rgb(255,0,0)" text-anchor="middle" transform="matrix( 1.000 0.000 0.000 1.000 272.300 147.200 )">y 7/1</text>
  <text dominant-baseline="hanging" font-size="5.6px" style="font-family: sans-serif ; font-weight: normal; font-style: normal; fill: rgb(255,0,0)" text-anchor="middle" transform="matrix( 1.000 0.000 0.000 1.000 310.100 147.200 )">y 7/2</text>
  <text dominant-baseline="hanging" font-size="5.6px" style="font-family: sans-serif ; font-weight: normal; font-style: normal; fill: rgb(255,0,0)" text-anchor="middle" transform="matrix( 1.000 0.000 0.000 1.000 327.900 147.200 )">y 7/3</text>
  <path d="M 247.300 152.900 H 258.200 C 258.300 152.900 258.200 152.800 258.200 152.900 V 155.600 C 258.200 155.655 258.245 155.700 258.300 155.700 H 263.900 C 263.955 155.700 264.000 155.655 264.000 155.600 V 152.900 C 264.000 152.800 263.900 152.900 264.000 152.900 H 269.400 C 269.500 152.900 269.400 152.800 269.400 152.900 V 155.600 C 269.400 155.655 269.445 155.700 269.500 155.700 H 275.100 C 275.155 155.700 275.200 155.655 275.200 155.600 V 152.900 C 275.200 152.800 275.100 152.900 275.200 152.900 H 280.600 C 280.700 152.900 280.600 152.800 280.600 152.900 V 155.600 C 280.600 155.655 280.645 155.700 280.700 155.700 H 286.300 C 286.355 155.700 286.400 155.655 286.400 155.600 V 152.900 C 286.400 152.800 286.300 152.900 286.400 152.900 H 297.300 H 300.100 H 307.200 C 307.300 152.900 307.200 152.800 307.200 152.900 V 155.600 C 307.200 155.655 307.245 155.700 307.300 155.700 H 312.900 C 312.955 155.700 313.000 155.655 313.000 155.600 V 152.900 C 313.000 152.800 312.900 152.900 313.000 152.900 H 320.100 H 322.900 H 325.000 C 325.100 152.900 325.000 152.800 325.000 152.900 V 155.600 C 325.000 155.655 325.045 155.700 325.100 155.700 H 330.700 C 330.755 155.700 330.800 155.655 330.800 155.600 V 152.900 C 330.800 152.800 330.700 152.900 330.800 152.900 H 332.900 H 335.700 C 335.755 152.900 335.800 152.855 335.800 152.800 V 141.800 C 335.800 141.745 335.755 141.700 335.700 141.700 H 333.000 C 332.900 141.700 333.000 141.800 333.000 141.700 V 136.300 C 333.000 136.200 332.900 136.300 333.000 136.300 H 335.700 C 335.755 136.300 335.800 136.255 335.800 136.200 V 130.600 C 335.800 130.545 335.755 130.500 335.700 130.500 H 333.000 C 332.900 130.500 333.000 130.600 333.000 130.500 V 125.100 C 333.000 125.000 332.900 125.100 333.000 125.100 H 335.700 C 335.755 125.100 335.800 125.055 335.800 125.000 V 119.400 C 335.800 119.345 335.755 119.300 335.700 119.300 H 333.000 C 332.900 119.300 333.000 119.400 333.000 119.300 V 113.900 C 333.000 113.800 332.900 113.900 333.000 113.900 H 335.700 C 335.755 113.900 335.800 113.855 335.800 113.800 V 102.800 C 335.800 102.745 335.755 102.700 335.700 102.700 H 332.900 H 322.900 H 320.100 H 300.100 H 297.300 H 247.300 H 244.500 C 244.445 102.700 244.400 102.745 244.400 102.800 V 113.800 C 244.400 113.855 244.445 113.900 244.500 113.900 H 247.200 C 247.300 113.900 247.200 113.800 247.200 113.900 V 119.300 C 247.200 119.400 247.300 119.300 247.200 119.300 H 244.500 C 244.445 119.300 244.400 119.345 244.400 119.400 V 125.000 C 244.400 125.055 244.445 125.100 244.500 125.100 H 247.200 C 247.300 125.100 247.200 125.000 247.200 125.100 V 130.500 C 247.200 130.600 247.300 130.500 247.200 130.500 H 244.500 C 244.445 130.500 244.400 130.545 244.400 130.600 V 136.200 C 244.400 136.255 244.445 136.300 244.500 136.300 H 247.200 C 247.300 136.300 247.200 136.200 247.200 136.300 V 141.700 C 247.200 141.800 247.300 141.700 247.200 141.700 H 244.500 C 244.445 141.700 244.400 141.745 244.400 141.800 V 152.800 C 244.400 152.855 244.445 152.900 244.500 152.900 H 247.300 Z" stroke="rgb(0,0,0)" stroke-width="0.20" />
  <path d="M 300.000 139.000 V 141.700 C 300.000 141.800 300.100 141.700 300.000 141.700 H 297.400 C 297.300 141.700 297.400 141.800 297.400 141.700 V 136.300 C 297.400 136.200 297.300 136.300 297.400 136.300 H 300.000 C 300.100 136.300 300.000 136.200 300.000 136.300 V 139.000 Z" stroke="rgb(0,0,255)" stroke-width="0.20" />
  <path d="M 300.000 127.800 V 130.500 C 300.000 130.600 300.100 130.500 300.000 130.500 H 297.400 C 297.300 130.500 297.400 130.600 297.400 130.500 V 125.100 C 297.400 125.000 297.300 125.100 297.400 125.100 H 300.000 C 300.100 125.100 300.000 125.000 300.000 125.100 V 127.800 Z" stroke="rgb(0,0,255)" stroke-width="0.20" />
  <path d="M 300.000 116.600 V 119.300 C 300.000 119.400 300.100 119.300 300.000 119.300 H 297.400 C 297.300 119.300 297.400 119.400 297.400 119.300 V 113.900 C 297.400 113.800 297.300 113.900 297.400 113.900 H 300.000 C 300.100 113.900 300.000 113.800 300.000 113.900 V 116.600 Z" stroke="rgb(0,0,255)" stroke-width="0.20" />
  <path d="M 322.800 139.000 V 141.700 C 322.800 141.800 322.900 141.700 322.800 141.700 H 320.200 C 320.100 141.700 320.200 141.800 320.200 141.700 V 136.300 C 320.200 136.200 320.100 136.300 320.200 136.300 H 322.800 C 322.900 136.300 322.800 136.200 322.800 136.300 V 139.000 Z" stroke="rgb(0,0,255)" stroke-width="0.20" />
  <path d="M 322.800 127.800 V 130.500 C 322.800 130.600 322.900 130.500 322.800 130.500 H 320.200 C 320.100 130.500 320.200 130.600 320.200 130.500 V 125.100 C 320.200 125.000 320.100 125.100 320.200 125.100 H 322.800 C 322.900 125.100 322.800 125.000 322.800 125.100 V 127.800 Z" stroke="rgb(0,0,255)" stroke-width="0.20" />
  <path d="M 322.800 116.600 V 119.300 C 322.800 119.400 322.900 119.300 322.800 119.300 H 320.200 C 320.100 119.300 320.200 119.400 320.200 119.300 V 113.900 C 320.200 113.800 320.100 113.900 320.200 113.900 H 322.800 C 322.900 113.900 322.800 113.800 322.800 113.900 V 116.600 Z" stroke="rgb(0,0,255)" stroke-width="0.20" />
</g>
<g id="p-10" style="fill:none;stroke-linecap:round;stroke-linejoin:round;">
  <text dominant-baseline="hanging" font-size="5.6px" style="font-family: sans-serif ; font-weight: normal; font-style: normal; fill: rgb(255,0,0)" text-anchor="middle" transform="matrix( 1.000 0.000 0.000 1.000 30.400 92.900 )">x 1/4</text>
  <text dominant-baseline="hanging" font-size="5.6px" style="font-family: sans-serif ; font-weight: normal; font-style: normal; fill: rgb(255,0,0)" text-anchor="middle" transform="matrix( 1.000 0.000 0.000 1.000 68.200 92.900 )">x 2/4</text>
  <text dominant-baseline="hanging" font-size="5.6px" style="font-family: sans-serif ; font-weight: normal; font-style: normal; fill: rgb(255,0,0)" text-anchor="middle" transform="matrix( 1.000 0.000 0.000 1.000 106.000 92.900 )">x 3/4</text>
  <text dominant-baseline="hanging" font-size="5.6px" style="font-family: sans-serif ; font-weight: normal; font-style: normal; fill: rgb(255,0,0)" text-anchor="middle" transform="matrix( 1.000 0.000 0.000 1.000 143.800 92.900 )">x 4/4</text>
  <text dominant-baseline="hanging" font-size="5.6px" style="font-family: sans-serif ; font-weight: normal; font-style: normal; fill: rgb(255,0,0)" text-anchor="middle" transform="matrix( 1.000 0.000 0.000 1.000 181.600 92.900 )">x 5/4</text>
  <text dominant-baseline="hanging" font-size="5.6px" style="font-family: sans-serif ; font-weight: normal; font-style: normal; fill: rgb(255,0,0)" text-anchor="middle" transform="matrix( 1.000 0.000 0.000 1.000 219.400 92.900 )">x 6/4</text>
  <text dominant-baseline="hanging" font-size="5.6px" style="font-family: sans-serif ; font-weight: normal; font-style: normal; fill: rgb(255,0,0)" text-anchor="middle" transform="matrix( 1.000 0.000 0.000 1.000 30.400 80.100 )">x 1/3</text>
  <path d="M 12.900 101.400 H 22.000 C 22.055 101.400 22.100 101.355 22.100 101.300 V 98.600 C 22.100 98.500 22.000 98.600 22.100 98.600 H 27.500 C 27.600 98.600 27.500 98.500 27.500 98.600 V 101.300 C 27.500 101.355 27.545 101.400 27.600 101.400 H 33.200 C 33.255 101.400 33.300 101.355 33.300 101.300 V 98.600 C 33.300 98.500 33.200 98.600 33.300 98.600 H 38.700 C 38.800 98.600 38.700 98.500 38.700 98.600 V 101.300 C 38.700 101.355 38.745 101.400 38.800 101.400 H 47.900 M 10.000 98.500 V 101.300 C 10.000 101.355 10.045 101.400 10.100 101.400 H 12.900 M 50.700 101.400 H 59.800 C 59.855 101.400 59.900 101.355 59.900 101.300 V 98.600 C 59.900 98.500 59.800 98.600 59.900 98.600 H 65.300 C 65.400 98.600 65.300 98.500 65.300 98.600 V 101.300 C 65.300 101.355 65.345 101.400 65.400 101.400 H 71.000 C 71.055 101.400 71.100 101.355 71.100 101.300 V 98.600 C 71.100 98.500 71.000 98.600 71.100 98.600 H 76.500 C 76.600 98.600 76.500 98.500 76.500 98.600 V 101.300 C 76.500 101.355 76.545 101.400 76.600 101.400 H 85.700 M 47.900 101.400 H 50.700 M 88.500 101.400 H 97.600 C 97.655 101.400 97.700 101.355 97.700 101.300 V 98.600 C 97.700 98.500 97.600 98.600 97.700 98.600 H 103.100 C 103.200 98.600 103.100 98.500 103.100 98.600 V 101.300 C 103.100 101.355 103.145 101.400 103.200 101.400 H 108.800 C 108.855 101.400 108.900 101.355 108.900 101.300 V 98.600 C 108.900 98.500 108.800 98.600 108.900 98.600 H 114.300 C 114.400 98.600 114.300 98.500 114.300 98.600 V 101.300 C 114.300 101.355 114.345 101.400 114.400 101.400 H 123.500 M 85.700 101.400 H 88.500 M 126.300 101.400 H 135.400 C 135.455 101.400 135.500 101.355 135.500 101.300 V 98.600 C 135.500 98.500 135.400 98.600 135.500 98.600 H 140.900 C 141.000 98.600 140.900 98.500 140.900 98.600 V 101.300 C 140.900 101.355 140.945 101.400 141.000 101.400 H 146.600 C 146.655 101.400 146.700 101.355 146.700 101.300 V 98.600 C 146.700 98.500 146.600 98.600 146.700 98.600 H 152.100 C 152.200 98.600 152.100 98.500 152.100 98.600 V 101.300 C 152.100 101.355 152.145 101.400 152.200 101.400 H 161.300 M 123.500 101.400 H 126.300 M 164.100 101.400 H 173.200 C 173.255 101.400 173.300 101.355 173.300 101.300 V 98.600 C 173.300 98.500 173.200 98.600 173.300 98.600 H 178.700 C 178.800 98.600 178.700 98.500 178.700 98.600 V 101.300 C 178.700 101.355 178.745 101.400 178.800 101.400 H 184.400 C 184.455 101.400 184.500 101.355 184.500 101.300 V 98.600 C 184.500 98.500 184.400 98.600 184.500 98.600 H 189.900 C 190.000 98.600 189.900 98.500 189.900 98.600 V 101.300 C 189.900 101.355 189.945 101.400 190.000 101.400 H 199.100 M 161.300 101.400 H 164.100 M 201.900 101.400 H 211.000 C 211.055 101.400 211.100 101.355 211.100 101.300 V 98.600 C 211.100 98.500 211.000 98.600 211.100 98.600 H 216.500 C 216.600 98.600 216.500 98.500 216.500 98.600 V 101.300 C 216.500 101.355 216.545 101.400 216.600 101.400 H 222.200 C 222.255 101.400 222.300 101.355 222.300 101.300 V 98.600 C 222.300 98.500 222.200 98.600 222.300 98.600 H 227.700 C 227.800 98.600 227.700 98.500 227.700 98.600 V 101.300 C 227.700 101.355 227.745 101.400 227.800 101.400 H 236.900 H 239.700 C 239.755 101.400 239.800 101.355 239.800 101.300 V 98.500 M 199.100 101.400 H 201.900" stroke="rgb(0,0,0)" stroke-width="0.20" />
  <path d="M 24.800 88.400 H 22.100 C 22.000 88.400 22.100 88.500 22.100 88.400 V 85.800 C 22.100 85.700 22.000 85.800 22.100 85.800 H 27.500 C 27.600 85.800 27.500 85.700 27.500 85.800 V 88.400 C 27.500 88.500 27.600 88.400 27.500 88.400 H 24.800 Z" stroke="rgb(0,0,255)" stroke-width="0.20" />
  <path d="M 36.000 88.400 H 33.300 C 33.200 88.400 33.300 88.500 33.300 88.400 V 85.800 C 33.300 85.700 33.200 85.800 33.300 85.800 H 38.700 C 38.800 85.800 38.700 85.700 38.700 85.800 V 88.400 C 38.700 88.500 38.800 88.400 38.700 88.400 H 36.000 Z" stroke="rgb(0,0,255)" stroke-width="0.20" />
  <text dominant-baseline="hanging" font-size="5.6px" style="font-family: sans-serif ; font-weight: normal; font-style: normal; fill: rgb(255,0,0)" text-anchor="middle" transform="matrix( 1.000 0.000 0.000 1.000 68.200 80.100 )">x 2/3</text>
  <path d="M 62.600 88.400 H 59.900 C 59.800 88.400 59.900 88.500 59.900 88.400 V 85.800 C 59.900 85.700 59.800 85.800 59.900 85.800 H 65.300 C 65.400 85.800 65.300 85.700 65.300 85.800 V 88.400 C 65.300 88.500 65.400 88.400 65.300 88.400 H 62.600 Z" stroke="rgb(0,0,255)" stroke-width="0.20" />
  <path d="M 73.800 88.400 H 71.100 C 71.000 88.400 71.100 88.500 71.100 88.400 V 85.800 C 71.100 85.700 71.000 85.800 71.100 85.800 H 76.500 C 76.600 85.800 76.500 85.700 76.500 85.800 V 88.400 C 76.500 88.500 76.600 88.400 76.500 88.400 H 73.800 Z" stroke="rgb(0,0,255)" stroke-width="0.20" />
  <text dominant-baseline="hanging" font-size="5.6px" style="font-family: sans-serif ; font-weight: normal; font-style: normal; fill: rgb(255,0,0)" text-anchor="middle" transform="matrix( 1.000 0.000 0.000 1.000 106.000 80.100 )">x 3/3</text>
  <path d="M 100.400 88.400 H 97.700 C 97.600 88.400 97.700 88.500 97.700 88.400 V 85.800 C 97.700 85.700 97.600 85.800 97.700 85.800 H 103.100 C 103.200 85.800 103.100 85.700 103.100 85.800 V 88.400 C 103.100 88.500 103.200 88.400 103.100 88.400 H 100.400 Z" stroke="rgb(0,0,255)" stroke-width="0.20" />
  <path d="M 111.600 88.400 H 108.900 C 108.800 88.400 108.900 88.500 108.900 88.400 V 85.800 C 108.900 85.700 108.800 85.800 108.900 85.800 H 114.300 C 114.400 85.800 114.300 85.700 114.300 85.800 V 88.400 C 114.300 88.500 114.400 88.400 114.300 88.400 H 111.600 Z" stroke="rgb(0,0,255)" stroke-width="0.20" />
  <text dominant-baseline="hanging" font-size="5.6px" style="font-family: sans-serif ; font-weight: normal; font-style: normal; fill: rgb(255,0,0)" text-anchor="middle" transform="matrix( 1.000 0.000 0.000 1.000 143.800 80.100 )">x 4/3</text>
  <path d="M 138.200 88.400 H 135.500 C 135.400 88.400 135.500 88.500 135.500 88.400 V 85.800 C 135.500 85.700 135.400 85.800 135.500 85.800 H 140.900 C 141.000 85.800 140.900 85.700 140.900 85.800 V 88.400 C 140.900 88.500 141.000 88.400 140.900 88.400 H 138.200 Z" stroke="rgb(0,0,255)" stroke-width="0.20" />
  <path d="M 149.400 88.400 H 146.700 C 146.600 88.400 146.700 88.500 146.700 88.400 V 85.800 C 146.700 85.700 146.600 85.800 146.700 85.800 H 152.100 C 152.200 85.800 152.100 85.700 152.100 85.800 V 88.400 C 152.100 88.500 152.200 88.400 152.100 88.400 H 149.400 Z" stroke="rgb(0,0,255)" stroke-width="0.20" />
  <text dominant-baseline="hanging" font-size="5.6px" style="font-family: sans-serif ; font-weight: normal; font-style: normal; fill: rgb(255,0,0)" text-anchor="middle" transform="matrix( 1.000 0.000 0.000 1.000 181.600 80.100 )">x 5/3</text>
  <path d="M 176.000 88.400 H 173.300 C 173.200 88.400 173.300 88.500 173.300 88.400 V 85.800 C 173.300 85.700 173.200 85.800 173.300 85.800 H 178.700 C 178.800 85.800 178.700 85.700 178.700 85.800 V 88.400 C 178.700 88.500 178.800 88.400 178.700 88.400 H 176.000 Z" stroke="rgb(0,0,255)" stroke-width="0.20" />
  <path d="M 187.200 88.400 H 184.500 C 184.400 88.400 184.500 88.500 184.500 88.400 V 85.800 C 184.500 85.700 184.400 85.800 184.500 85.800 H 189.900 C 190.000 85.800 189.900 85.700 189.900 85.800 V 88.400 C 189.900 88.500 190.000 88.400 189.900 88.400 H 187.200 Z" stroke="rgb(0,0,255)" stroke-width="0.20" />
  <text dominant-baseline="hanging" font-size="5.6px" style="font-family: sans-serif ; font-weight: normal; font-style: normal; fill: rgb(255,0,0)" text-anchor="middle" transform="matrix( 1.000 0.000 0.000 1.000 219.400 80.100 )">x 6/3</text>
  <path d="M 213.800 88.400 H 211.100 C 211.000 88.400 211.100 88.500 211.100 88.400 V 85.800 C 211.100 85.700 211.000 85.800 211.100 85.800 H 216.500 C 216.600 85.800 216.500 85.700 216.500 85.800 V 88.400 C 216.500 88.500 216.600 88.400 216.500 88.400 H 213.800 Z" stroke="rgb(0,0,255)" stroke-width="0.20" />
  <path d="M 225.000 88.400 H 222.300 C 222.200 88.400 222.300 88.500 222.300 88.400 V 85.800 C 222.300 85.700 222.200 85.800 222.300 85.800 H 227.700 C 227.800 85.800 227.700 85.700 227.700 85.800 V 88.400 C 227.700 88.500 227.800 88.400 227.700 88.400 H 225.000 Z" stroke="rgb(0,0,255)" stroke-width="0.20" />
  <text dominant-baseline="hanging" font-size="5.6px" style="font-family: sans-serif ; font-weight: normal; font-style: normal; fill: rgb(255,0,0)" text-anchor="middle" transform="matrix( 1.000 0.000 0.000 1.000 30.400 57.300 )">x 1/2</text>
  <path d="M 24.800 65.600 H 22.100 C 22.000 65.600 22.100 65.700 22.100 65.600 V 63.000 C 22.100 62.900 22.000 63.000 22.100 63.000 H 27.500 C 27.600 63.000 27.500 62.900 27.500 63.000 V 65.600 C 27.500 65.700 27.600 65.600 27.500 65.600 H 24.800 Z" stroke="rgb(0,0,255)" stroke-width="0.20" />
  <path d="M 36.000 65.600 H 33.300 C 33.200 65.600 33.300 65.700 33.300 65.600 V 63.000 C 33.300 62.900 33.200 63.000 33.300 63.000 H 38.700 C 38.800 63.000 38.700 62.900 38.700 63.000 V 65.600 C 38.700 65.700 38.800 65.600 38.700 65.600 H 36.000 Z" stroke="rgb(0,0,255)" stroke-width="0.20" />
  <text dominant-baseline="hanging" font-size="5.6px" style="font-family: sans-serif ; font-weight: normal; font-style: normal; fill: rgb(255,0,0)" text-anchor="middle" transform="matrix( 1.000 0.000 0.000 1.000 68.200 57.300 )">x 2/2</text>
  <path d="M 62.600 65.600 H 59.900 C 59.800 65.600 59.900 65.700 59.900 65.600 V 63.000 C 59.900 62.900 59.800 63.000 59.900 63.000 H 65.300 C 65.400 63.000 65.300 62.900 65.300 63.000 V 65.600 C 65.300 65.700 65.400 65.600 65.300 65.600 H 62.600 Z" stroke="rgb(0,0,255)" stroke-width="0.20" />
  <path d="M 73.800 65.600 H 71.100 C 71.000 65.600 71.100 65.700 71.100 65.600 V 63.000 C 71.100 62.900 71.000 63.000 71.100 63.000 H 76.500 C 76.600 63.000 76.500 62.900 76.500 63.000 V 65.600 C 76.500 65.700 76.600 65.600 76.500 65.600 H 73.800 Z" stroke="rgb(0,0,255)" stroke-width="0.20" />
  <text dominant-baseline="hanging" font-size="5.6px" style="font-family: sans-serif ; font-weight: normal; font-style: normal; fill: rgb(255,0,0)" text-anchor="middle" transform="matrix( 1.000 0.000 0.000 1.000 106.000 57.300 )">x 3/2</text>
  <path d="M 100.400 65.600 H 97.700 C 97.600 65.600 97.700 65.700 97.700 65.600 V 63.000 C 97.700 62.900 97.600 63.000 97.700 63.000 H 103.100 C 103.200 63.000 103.100 62.900 103.100 63.000 V 65.600 C 103.100 65.700 103.200 65.600 103.100 65.600 H 100.400 Z" stroke="rgb(0,0,255)" stroke-width="0.20" />
  <path d="M 111.600 65.600 H 108.900 C 108.800 65.600 108.900 65.700 108.900 65.600 V 63.000 C 108.900 62.900 108.800 63.000 108.900 63.000 H 114.300 C 114.400 63.000 114.300 62.900 114.300 63.000 V 65.600 C 114.300 65.700 114.400 65.600 114.300 65.600 H 111.600 Z" stroke="rgb(0,0,255)" stroke-width="0.20" />
  <text dominant-baseline="hanging" font-size="5.6px" style="font-family: sans-serif ; font-weight: normal; font-style: normal; fill: rgb(255,0,0)" text-anchor="middle" transform="matrix( 1.000 0.000 0.000 1.000 143.800 57.300 )">x 4/2</text>
  <path d="M 138.200 65.600 H 135.500 C 135.400 65.600 135.500 65.700 135.500 65.600 V 63.000 C 135.500 62.900 135.400 63.000 135.500 63.000 H 140.900 C 141.000 63.000 140.900 62.900 140.900 63.000 V 65.600 C 140.900 65.700 141.000 65.600 140.900 65.600 H 138.200 Z" stroke="rgb(0,0,255)" stroke-width="0.20" />
  <path d="M 149.400 65.600 H 146.700 C 146.600 65.600 146.700 65.700 146.700 65.600 V 63.000 C 146.700 62.900 146.600 63.000 146.700 63.000 H 152.100 C 152.200 63.000 152.100 62.900 152.100 63.000 V 65.600 C 152.100 65.700 152.200 65.600 152.100 65.600 H 149.400 Z" stroke="rgb(0,0,255)" stroke-width="0.20" />
  <text dominant-baseline="hanging" font-size="5.6px" style="font-family: sans-serif ; font-weight: normal; font-style: normal; fill: rgb(255,0,0)" text-anchor="middle" transform="matrix( 1.000 0.000 0.000 1.000 181.600 57.300 )">x 5/2</text>
  <path d="M 176.000 65.600 H 173.300 C 173.200 65.600 173.300 65.700 173.300 65.600 V 63.000 C 173.300 62.900 173.200 63.000 173.300 63.000 H 178.700 C 178.800 63.000 178.700 62.900 178.700 63.000 V 65.600 C 178.700 65.700 178.800 65.600 178.700 65.600 H 176.000 Z" stroke="rgb(0,0,255)" stroke-width="0.20" />
  <path d="M 187.200 65.600 H 184.500 C 184.400 65.600 184.500 65.700 184.500 65.600 V 63.000 C 184.500 62.900 184.400 63.000 184.500 63.000 H 189.900 C 190.000 63.000 189.900 62.900 189.900 63.000 V 65.600 C 189.900 65.700 190.000 65.600 189.900 65.600 H 187.200 Z" stroke="rgb(0,0,255)" stroke-width="0.20" />
  <text dominant-baseline="hanging" font-size="5.6px" style="font-family: sans-serif ; font-weight: normal; font-style: normal; fill: rgb(255,0,0)" text-anchor="middle" transform="matrix( 1.000 0.000 0.000 1.000 219.400 57.300 )">x 6/2</text>
  <path d="M 213.800 65.600 H 211.100 C 211.000 65.600 211.100 65.700 211.100 65.600 V 63.000 C 211.100 62.900 211.000 63.000 211.100 63.000 H 216.500 C 216.600 63.000 216.500 62.900 216.500 63.000 V 65.600 C 216.500 65.700 216.600 65.600 216.500 65.600 H 213.800 Z" stroke="rgb(0,0,255)" stroke-width="0.20" />
  <path d="M 225.000 65.600 H 222.300 C 222.200 65.600 222.300 65.700 222.300 65.600 V 63.000 C 222.300 62.900 222.200 63.000 222.300 63.000 H 227.700 C 227.800 63.000 227.700 62.900 227.700 63.000 V 65.600 C 227.700 65.700 227.800 65.600 227.700 65.600 H 225.000 Z" stroke="rgb(0,0,255)" stroke-width="0.20" />
  <text dominant-baseline="hanging" font-size="5.6px" style="font-family: sans-serif ; font-weight: normal; font-style: normal; fill: rgb(255,0,0)" text-anchor="middle" transform="matrix( 1.000 0.000 0.000 1.000 30.400 12.900 )">x 1/1</text>
  <text dominant-baseline="hanging" font-size="5.6px" style="font-family: sans-serif ; font-weight: normal; font-style: normal; fill: rgb(255,0,0)" text-anchor="middle" transform="matrix( 1.000 0.000 0.000 1.000 68.200 12.900 )">x 2/1</text>
  <text dominant-baseline="hanging" font-size="5.6px" style="font-family: sans-serif ; font-weight: normal; font-style: normal; fill: rgb(255,0,0)" text-anchor="middle" transform="matrix( 1.000 0.000 0.000 1.000 106.000 12.900 )">x 3/1</text>
  <text dominant-baseline="hanging" font-size="5.6px" style="font-family: sans-serif ; font-weight: normal; font-style: normal; fill: rgb(255,0,0)" text-anchor="middle" transform="matrix( 1.000 0.000 0.000 1.000 143.800 12.900 )">x 4/1</text>
  <text dominant-baseline="hanging" font-size="5.6px" style="font-family: sans-serif ; font-weight: normal; font-style: normal; fill: rgb(255,0,0)" text-anchor="middle" transform="matrix( 1.000 0.000 0.000 1.000 181.600 12.900 )">x 5/1</text>
  <text dominant-baseline="hanging" font-size="5.6px" style="font-family: sans-serif ; font-weight: normal; font-style: normal; fill: rgb(255,0,0)" text-anchor="middle" transform="matrix( 1.000 0.000 0.000 1.000 219.400 12.900 )">x 6/1</text>
  <text dominant-baseline="hanging" font-size="5.6px" style="font-family: sans-serif ; font-weight: normal; font-style: normal; fill: rgb(255,0,0)" text-anchor="middle" transform="matrix( 0.000 1.000 -1.000 0.000 18.500 93.500 )">y 1/3</text>
  <text dominant-baseline="hanging" font-size="5.6px" style="font-family: sans-serif ; font-weight: normal; font-style: normal; fill: rgb(255,0,0)" text-anchor="middle" transform="matrix( 0.000 1.000 -1.000 0.000 18.500 75.700 )">y 1/2</text>
  <text dominant-baseline="hanging" font-size="5.6px" style="font-family: sans-serif ; font-weight: normal; font-style: normal; fill: rgb(255,0,0)" text-anchor="middle" transform="matrix( 0.000 1.000 -1.000 0.000 18.500 37.900 )">y 1/1</text>
  <text dominant-baseline="hanging" font-size="5.6px" style="font-family: sans-serif ; font-weight: normal; font-style: normal; fill: rgb(255,0,0)" text-anchor="middle" transform="matrix( 0.000 1.000 -1.000 0.000 56.300 93.500 )">y 2/3</text>
  <text dominant-baseline="hanging" font-size="5.6px" style="font-family: sans-serif ; font-weight: normal; font-style: normal; fill: rgb(255,0,0)" text-anchor="middle" transform="matrix( 0.000 1.000 -1.000 0.000 56.300 75.700 )">y 2/2</text>
  <text dominant-baseline="hanging" font-size="5.6px" style="font-family: sans-serif ; font-weight: normal; font-style: normal; fill: rgb(255,0,0)" text-anchor="middle" transform="matrix( 0.000 1.000 -1.000 0.000 56.300 37.900 )">y 2/1</text>
  <text dominant-baseline="hanging" font-size="5.6px" style="font-family: sans-serif ; font-weight: normal; font-style: normal; fill: rgb(255,0,0)" text-anchor="middle" transform="matrix( 0.000 1.000 -1.000 0.000 94.100 93.500 )">y 3/3</text>
  <text dominant-baseline="hanging" font-size="5.6px" style="font-family: sans-serif ; font-weight: normal; font-style: normal; fill: rgb(255,0,0)" text-anchor="middle" transform="matrix( 0.000 1.000 -1.000 0.000 94.100 75.700 )">y 3/2</text>
  <text dominant-baseline="hanging" font-size="5.6px" style="font-family: sans-serif ; font-weight: normal; font-style: normal; fill: rgb(255,0,0)" text-anchor="middle" transform="matrix( 0.000 1.000 -1.000 0.000 94.100 37.900 )">y 3/1</text>
  <path d="M 47.900 10.000 H 38.800 C 38.745 10.000 38.700 10.045 38.700 10.100 V 12.800 C 38.700 12.900 38.800 12.800 38.700 12.800 H 33.300 C 33.200 12.800 33.300 12.900 33.300 12.800 V 10.100 C 33.300 10.045 33.255 10.000 33.200 10.000 H 27.600 C 27.545 10.000 27.500 10.045 27.500 10.100 V 12.800 C 27.500 12.900 27.600 12.800 27.500 12.800 H 22.100 C 22.000 12.800 22.100 12.900 22.100 12.800 V 10.100 C 22.100 10.045 22.055 10.000 22.000 10.000 H 12.900 H 10.100 C 10.045 10.000 10.000 10.045 10.000 10.100 V 12.900 M 85.700 10.000 H 76.600 C 76.545 10.000 76.500 10.045 76.500 10.100 V 12.800 C 76.500 12.900 76.600 12.800 76.500 12.800 H 71.100 C 71.000 12.800 71.100 12.900 71.100 12.800 V 10.100 C 71.100 10.045 71.055 10.000 71.000 10.000 H 65.400 C 65.345 10.000 65.300 10.045 65.300 10.100 V 12.800 C 65.300 12.900 65.400 12.800 65.300 12.800 H 59.900 C 59.800 12.800 59.900 12.900 59.900 12.800 V 10.100 C 59.900 10.045 59.855 10.000 59.800 10.000 H 50.700 M 47.900 10.000 H 50.700 M 123.500 10.000 H 114.400 C 114.345 10.000 114.300 10.045 114.300 10.100 V 12.800 C 114.300 12.900 114.400 12.800 114.300 12.800 H 108.900 C 108.800 12.800 108.900 12.900 108.900 12.800 V 10.100 C 108.900 10.045 108.855 10.000 108.800 10.000 H 103.200 C 103.145 10.000 103.100 10.045 103.100 10.100 V 12.800 C 103.100 12.900 103.200 12.800 103.100 12.800 H 97.700 C 97.600 12.800 97.700 12.900 97.700 12.800 V 10.100 C 97.700 10.045 97.655 10.000 97.600 10.000 H 88.500 M 85.700 10.000 H 88.500 M 161.300 10.000 H 152.200 C 152.145 10.000 152.100 10.045 152.100 10.100 V 12.800 C 152.100 12.900 152.200 12.800 152.100 12.800 H 146.700 C 146.600 12.800 146.700 12.900 146.700 12.800 V 10.100 C 146.700 10.045 146.655 10.000 146.600 10.000 H 141.000 C 140.945 10.000 140.900 10.045 140.900 10.100 V 12.800 C 140.900 12.900 141.000 12.800 140.900 12.800 H 135.500 C 135.400 12.800 135.500 12.900 135.500 12.800 V 10.100 C 135.500 10.045 135.455 10.000 135.400 10.000 H 126.300 M 123.500 10.000 H 126.300 M 199.100 10.000 H 190.000 C 189.945 10.000 189.900 10.045 189.900 10.100 V 12.800 C 189.900 12.900 190.000 12.800 189.900 12.800 H 184.500 C 184.400 12.800 184.500 12.900 184.500 12.800 V 10.100 C 184.500 10.045 184.455 10.000 184.400 10.000 H 178.800 C 178.745 10.000 178.700 10.045 178.700 10.100 V 12.800 C 178.700 12.900 178.800 12.800 178.700 12.800 H 173.300 C 173.200 12.800 173.300 12.900 173.300 12.800 V 10.100 C 173.300 10.045 173.255 10.000 173.200 10.000 H 164.100 M 161.300 10.000 H 164.100 M 236.900 10.000 H 227.800 C 227.745 10.000 227.700 10.045 227.700 10.100 V 12.800 C 227.700 12.900 227.800 12.800 227.700 12.800 H 222.300 C 222.200 12.800 222.300 12.900 222.300 12.800 V 10.100 C 222.300 10.045 222.255 10.000 222.200 10.000 H 216.600 C 216.545 10.000 216.500 10.045 216.500 10.100 V 12.800 C 216.500 12.900 216.600 12.800 216.500 12.800 H 211.100 C 211.000 12.800 211.100 12.900 211.100 12.800 V 10.100 C 211.100 10.045 211.055 10.000 211.000 10.000 H 201.900 M 239.800 12.900 V 10.100 C 239.800 10.045 239.755 10.000 239.700 10.000 H 236.900 M 199.100 10.000 H 201.900 M 10.000 88.500 V 90.700 C 10.000 90.755 10.045 90.800 10.100 90.800 H 12.800 C 12.900 90.800 12.800 90.700 12.800 90.800 V 96.200 C 12.800 96.300 12.900 96.200 12.800 96.200 H 10.100 C 10.045 96.200 10.000 96.245 10.000 96.300 V 98.500 M 10.000 85.700 V 88.500 M 10.000 65.700 V 72.900 C 10.000 72.955 10.045 73.000 10.100 73.000 H 12.800 C 12.900 73.000 12.800 72.900 12.800 73.000 V 78.400 C 12.800 78.500 12.900 78.400 12.800 78.400 H 10.100 C 10.045 78.400 10.000 78.445 10.000 78.500 V 85.700 M 10.000 62.900 V 65.700 M 10.000 12.900 V 23.900 C 10.000 23.955 10.045 24.000 10.100 24.000 H 12.800 C 12.900 24.000 12.800 23.900 12.800 24.000 V 29.400 C 12.800 29.500 12.900 29.400 12.800 29.400 H 10.100 C 10.045 29.400 10.000 29.445 10.000 29.500 V 35.100 C 10.000 35.155 10.045 35.200 10.100 35.200 H 12.800 C 12.900 35.200 12.800 35.100 12.800 35.200 V 40.600 C 12.800 40.700 12.900 40.600 12.800 40.600 H 10.100 C 10.045 40.600 10.000 40.645 10.000 40.700 V 46.300 C 10.000 46.355 10.045 46.400 10.100 46.400 H 12.800 C 12.900 46.400 12.800 46.300 12.800 46.400 V 51.800 C 12.800 51.900 12.900 51.800 12.800 51.800 H 10.100 C 10.045 51.800 10.000 51.845 10.000 51.900 V 62.900" stroke="rgb(0,0,0)" stroke-width="0.20" />
  <path d="M 88.400 49.100 V 51.800 C 88.400 51.900 88.500 51.800 88.400 51.800 H 85.800 C 85.700 51.800 85.800 51.900 85.800 51.800 V 46.400 C 85.800 46.300 85.700 46.400 85.800 46.400 H 88.400 C 88.500 46.400 88.400 46.300 88.400 46.400 V 49.100 Z" stroke="rgb(0,0,255)" stroke-width="0.20" />
  <path d="M 88.400 37.900 V 40.600 C 88.400 40.700 88.500 40.600 88.400 40.600 H 85.800 C 85.700 40.600 85.800 40.700 85.800 40.600 V 35.200 C 85.800 35.100 85.700 35.200 85.800 35.200 H 88.400 C 88.500 35.200 88.400 35.100 88.400 35.200 V 37.900 Z" stroke="rgb(0,0,255)" stroke-width="0.20" />
  <path d="M 88.400 26.700 V 29.400 C 88.400 29.500 88.500 29.400 88.400 29.400 H 85.800 C 85.700 29.400 85.800 29.500 85.800 29.400 V 24.000 C 85.800 23.900 85.700 24.000 85.800 24.000 H 88.400 C 88.500 24.000 88.400 23.900 88.400 24.000 V 26.700 Z" stroke="rgb(0,0,255)" stroke-width="0.20" />
  <text dominant-baseline="hanging" font-size="5.6px" style="font-family: sans-serif ; font-weight: normal; font-style: normal; fill: rgb(255,0,0)" text-anchor="middle" transform="matrix( 0.000 1.000 -1.000 0.000 131.900 93.500 )">y 4/3</text>
  <text dominant-baseline="hanging" font-size="5.6px" style="font-family: sans-serif ; font-weight: normal; font-style: normal; fill: rgb(255,0,0)" text-anchor="middle" transform="matrix( 0.000 1.000 -1.000 0.000 131.900 75.700 )">y 4/2</text>
  <path d="M 126.200 75.700 V 78.400 C 126.200 78.500 126.300 78.400 126.200 78.400 H 123.600 C 123.500 78.400 123.600 78.500 123.600 78.400 V 73.000 C 123.600 72.900 123.500 73.000 123.600 73.000 H 126.200 C 126.300 73.000 126.200 72.900 126.200 73.000 V 75.700 Z" stroke="rgb(0,0,255)" stroke-width="0.20" />
  <text dominant-baseline="hanging" font-size="5.6px" style="font-family: sans-serif ; font-weight: normal; font-style: normal; fill: rgb(255,0,0)" text-anchor="middle" transform="matrix( 0.000 1.000 -1.000 0.000 131.900 37.900 )">y 4/1</text>
  <text dominant-baseline="hanging" font-size="5.6px" style="font-family: sans-serif ; font-weight: normal; font-style: normal; fill: rgb(255,0,0)" text-anchor="middle" transform="matrix( 0.000 1.000 -1.000 0.000 169.700 93.500 )">y 5/3</text>
  <text dominant-baseline="hanging" font-size="5.6px" style="font-family: sans-serif ; font-weight: normal; font-style: normal; fill: rgb(255,0,0)" text-anchor="middle" transform="matrix( 0.000 1.000 -1.000 0.000 169.700 75.700 )">y 5/2</text>
  <text dominant-baseline="hanging" font-size="5.6px" style="font-family: sans-serif ; font-weight: normal; font-style: normal; fill: rgb(255,0,0)" text-anchor="middle" transform="matrix( 0.000 1.000 -1.000 0.000 169.700 37.900 )">y 5/1</text>
  <path d="M 164.000 49.100 V 51.800 C 164.000 51.900 164.100 51.800 164.000 51.800 H 161.400 C 161.300 51.800 161.400 51.900 161.400 51.800 V 46.400 C 161.400 46.300 161.300 46.400 161.400 46.400 H 164.000 C 164.100 46.400 164.000 46.300 164.000 46.400 V 49.100 Z" stroke="rgb(0,0,255)" stroke-width="0.20" />
  <path d="M 164.000 37.900 V 40.600 C 164.000 40.700 164.100 40.600 164.000 40.600 H 161.400 C 161.300 40.600 161.400 40.700 161.400 40.600 V 35.200 C 161.400 35.100 161.300 35.200 161.400 35.200 H 164.000 C 164.100 35.200 164.000 35.100 164.000 35.200 V 37.900 Z" stroke="rgb(0,0,255)" stroke-width="0.20" />
  <path d="M 164.000 26.700 V 29.400 C 164.000 29.500 164.100 29.400 164.000 29.400 H 161.400 C 161.300 29.400 161.400 29.500 161.400 29.400 V 24.000 C 161.400 23.900 161.300 24.000 161.400 24.000 H 164.000 C 164.100 24.000 164.000 23.900 164.000 24.000 V 26.700 Z" stroke="rgb(0,0,255)" stroke-width="0.20" />
  <text dominant-baseline="hanging" font-size="5.6px" style="font-family: sans-serif ; font-weight: normal; font-style: normal; fill: rgb(255,0,0)" text-anchor="middle" transform="matrix( 0.000 1.000 -1.000 0.000 207.500 93.500 )">y 6/3</text>
  <text dominant-baseline="hanging" font-size="5.6px" style="font-family: sans-serif ; font-weight: normal; font-style: normal; fill: rgb(255,0,0)" text-anchor="middle" transform="matrix( 0.000 1.000 -1.000 0.000 207.500 75.700 )">y 6/2</text>
  <text dominant-baseline="hanging" font-size="5.6px" style="font-family: sans-serif ; font-weight: normal; font-style: normal; fill: rgb(255,0,0)" text-anchor="middle" transform="matrix( 0.000 1.000 -1.000 0.000 207.500 37.900 )">y 6/1</text>
  <text dominant-baseline="hanging" font-size="5.6px" style="font-family: sans-serif ; font-weight: normal; font-style: normal; fill: rgb(255,0,0)" text-anchor="middle" transform="matrix( 0.000 1.000 -1.000 0.000 236.900 93.500 )">y 7/3</text>
  <text dominant-baseline="hanging" font-size="5.6px" style="font-family: sans-serif ; font-weight: normal; font-style: normal; fill: rgb(255,0,0)" text-anchor="middle" transform="matrix( 0.000 1.000 -1.000 0.000 236.900 75.700 )">y 7/2</text>
  <text dominant-baseline="hanging" font-size="5.6px" style="font-family: sans-serif ; font-weight: normal; font-style: normal; fill: rgb(255,0,0)" text-anchor="middle" transform="matrix( 0.000 1.000 -1.000 0.000 236.900 37.900 )">y 7/1</text>
  <path d="M 239.800 98.500 V 96.300 C 239.800 96.245 239.755 96.200 239.700 96.200 H 237.000 C 236.900 96.200 237.000 96.300 237.000 96.200 V 90.800 C 237.000 90.700 236.900 90.800 237.000 90.800 H 239.700 C 239.755 90.800 239.800 90.755 239.800 90.700 V 88.500 V 85.700 M 239.800 85.700 V 78.500 C 239.800 78.445 239.755 78.400 239.700 78.400 H 237.000 C 236.900 78.400 237.000 78.500 237.000 78.400 V 73.000 C 237.000 72.900 236.900 73.000 237.000 73.000 H 239.700 C 239.755 73.000 239.800 72.955 239.800 72.900 V 65.700 V 62.900 M 239.800 62.900 V 51.900 C 239.800 51.845 239.755 51.800 239.700 51.800 H 237.000 C 236.900 51.800 237.000 51.900 237.000 51.800 V 46.400 C 237.000 46.300 236.900 46.400 237.000 46.400 H 239.700 C 239.755 46.400 239.800 46.355 239.800 46.300 V 40.700 C 239.800 40.645 239.755 40.600 239.700 40.600 H 237.000 C 236.900 40.600 237.000 40.700 237.000 40.600 V 35.200 C 237.000 35.100 236.900 35.200 237.000 35.200 H 239.700 C 239.755 35.200 239.800 35.155 239.800 35.100 V 29.500 C 239.800 29.445 239.755 29.400 239.700 29.400 H 237.000 C 236.900 29.400 237.000 29.500 237.000 29.400 V 24.000 C 237.000 23.900 236.900 24.000 237.000 24.000 H 239.700 C 239.755 24.000 239.800 23.955 239.800 23.900 V 12.900" stroke="rgb(0,0,0)" stroke-width="0.20" />
</g>
</svg>