<?xml version='1.0' encoding='utf-8'?>
<svg height="233.20mm" viewBox="0.0 0.0 949.30 233.20" width="949.30mm" xmlns="http://www.w3.org/2000/svg" xmlns:cc="http://creativecommons.org/ns#" xmlns:dc="http://purl.org/dc/elements/1.1/" xmlns:inkscape="http://www.inkscape.org/namespaces/inkscape" xmlns:rdf="http://www.w3.org/1999/02/22-rdf-syntax-ns#" xmlns:svg="http://www.w3.org/2000/svg" xmlns:xlink="http://www.w3.org/1999/xlink">
<!--
TrayLayout - Generate a typetray from a layout file.


This is a two step process. This is step 2.
Edit the layout text graphics to adjust your tray.
Put in the sizes for each column and row. You can replace the hyphens and
vertical bars representing the walls with a space character to remove the walls.
You can replace the space characters representing the floor by a "X" to remove the floor for this compartment.



Created with Boxes.py (https://boxes.hackerspace-bamberg.de/)
Creation date: 2026-03-19 21:42:03
Command line (remove spaces between dashes): boxes TrayLayout - -h=50 - -outside=0 '- -sx=35*6' - -sy=50:20:10 '- -layout= ,> 35.00mm\n | ,> 35.00mm\n | | ,> 35.00mm\n | | | ,> 35.00mm\n | | | | ,> 35.00mm\n | | | | | ,> 35.00mm\n+-+-+-+-+-+-+\n|   |   |   |  50.00mm\n+-+-+-+-+-+-+\n|     |     |  20.00mm\n+-+-+-+-+-+-+\n|           |  10.00mm\n+-+-+-+-+-+-+\n' - -spacing=0.5
Url: https://boxes.hackerspace-bamberg.de/TrayLayout?FingerJoint_style=rectangular&FingerJoint_surroundingspaces=2.0&FingerJoint_bottom_lip=0.0&FingerJoint_edge_width=1.0&FingerJoint_extra_length=0.0&FingerJoint_finger=2.0&FingerJoint_play=0.0&FingerJoint_space=2.0&FingerJoint_width=1.0&Lid_handle=none&Lid_style=none&Lid_handle_height=8.0&Lid_height=4.0&Lid_play=0.1&h=50&hi=0.0&outside=0&sx=35*6&sy=50%3A20%3A10&layout=+%2C%3E+35.00mm%0D%0A+%7C+%2C%3E+35.00mm%0D%0A+%7C+%7C+%2C%3E+35.00mm%0D%0A+%7C+%7C+%7C+%2C%3E+35.00mm%0D%0A+%7C+%7C+%7C+%7C+%2C%3E+35.00mm%0D%0A+%7C+%7C+%7C+%7C+%7C+%2C%3E+35.00mm%0D%0A%2B-%2B-%2B-%2B-%2B-%2B-%2B%0D%0A%7C+++%7C+++%7C+++%7C++50.00mm%0D%0A%2B-%2B-%2B-%2B-%2B-%2B-%2B%0D%0A%7C+++++%7C+++++%7C++20.00mm%0D%0A%2B-%2B-%2B-%2B-%2B-%2B-%2B%0D%0A%7C+++++++++++%7C++10.00mm%0D%0A%2B-%2B-%2B-%2B-%2B-%2B-%2B%0D%0A&thickness=3&burn=0.1&format=svg&labels=0&labels=1&reference=100.0&tabs=0.0&qr_code=0&inner_corners=loop&spacing=0.5&debug=0&language=en&render=2
Url short: https://boxes.hackerspace-bamberg.de/TrayLayout?h=50&outside=0&sx=35*6&sy=50%3A20%3A10&layout=+%2C%3E+35.00mm%0D%0A+%7C+%2C%3E+35.00mm%0D%0A+%7C+%7C+%2C%3E+35.00mm%0D%0A+%7C+%7C+%7C+%2C%3E+35.00mm%0D%0A+%7C+%7C+%7C+%7C+%2C%3E+35.00mm%0D%0A+%7C+%7C+%7C+%7C+%7C+%2C%3E+35.00mm%0D%0A%2B-%2B-%2B-%2B-%2B-%2B-%2B%0D%0A%7C+++%7C+++%7C+++%7C++50.00mm%0D%0A%2B-%2B-%2B-%2B-%2B-%2B-%2B%0D%0A%7C+++++%7C+++++%7C++20.00mm%0D%0A%2B-%2B-%2B-%2B-%2B-%2B-%2B%0D%0A%7C+++++++++++%7C++10.00mm%0D%0A%2B-%2B-%2B-%2B-%2B-%2B-%2B%0D%0A&spacing=0.5
SettingsUrl: https://boxes.hackerspace-bamberg.de/TrayLayout?FingerJoint_style=rectangular&FingerJoint_surroundingspaces=2.0&FingerJoint_bottom_lip=0.0&FingerJoint_edge_width=1.0&FingerJoint_extra_length=0.0&FingerJoint_finger=2.0&FingerJoint_play=0.0&FingerJoint_space=2.0&FingerJoint_width=1.0&Lid_handle=none&Lid_style=none&Lid_handle_height=8.0&Lid_height=4.0&Lid_play=0.1&h=50&hi=0.0&outside=0&sx=35*6&sy=50%3A20%3A10&layout=+%2C%3E+35.00mm%0D%0A+%7C+%2C%3E+35.00mm%0D%0A+%7C+%7C+%2C%3E+35.00mm%0D%0A+%7C+%7C+%7C+%2C%3E+35.00mm%0D%0A+%7C+%7C+%7C+%7C+%2C%3E+35.00mm%0D%0A+%7C+%7C+%7C+%7C+%7C+%2C%3E+35.00mm%0D%0A%2B-%2B-%2B-%2B-%2B-%2B-%2B%0D%0A%7C+++%7C+++%7C+++%7C++50.00mm%0D%0A%2B-%2B-%2B-%2B-%2B-%2B-%2B%0D%0A%7C+++++%7C+++++%7C++20.00mm%0D%0A%2B-%2B-%2B-%2B-%2B-%2B-%2B%0D%0A%7C+++++++++++%7C++10.00mm%0D%0A%2B-%2B-%2B-%2B-%2B-%2B-%2B%0D%0A&thickness=3&burn=0.1&format=svg&labels=0&labels=1&reference=100.0&tabs=0.0&qr_code=0&inner_corners=loop&spacing=0.5&debug=0&language=en&render=2
SettingsUrl short: https://boxes.hackerspace-bamberg.de/TrayLayout?h=50&outside=0&sx=35*6&sy=50%3A20%3A10&layout=+%2C%3E+35.00mm%0D%0A+%7C+%2C%3E+35.00mm%0D%0A+%7C+%7C+%2C%3E+35.00mm%0D%0A+%7C+%7C+%7C+%2C%3E+35.00mm%0D%0A+%7C+%7C+%7C+%7C+%2C%3E+35.00mm%0D%0A+%7C+%7C+%7C+%7C+%7C+%2C%3E+35.00mm%0D%0A%2B-%2B-%2B-%2B-%2B-%2B-%2B%0D%0A%7C+++%7C+++%7C+++%7C++50.00mm%0D%0A%2B-%2B-%2B-%2B-%2B-%2B-%2B%0D%0A%7C+++++%7C+++++%7C++20.00mm%0D%0A%2B-%2B-%2B-%2B-%2B-%2B-%2B%0D%0A%7C+++++++++++%7C++10.00mm%0D%0A%2B-%2B-%2B-%2B-%2B-%2B-%2B%0D%0A&spacing=0.5
-->
<title>TrayLayout</title>
<metadata>
<rdf:RDF><cc:Work>
<dc:title>Tray - TrayLayout</dc:title>
<dc:date>2026-03-19 21:42:03</dc:date>
<dc:source>https://boxes.hackerspace-bamberg.de/TrayLayout?FingerJoint_style=rectangular&amp;FingerJoint_surroundingspaces=2.0&amp;FingerJoint_bottom_lip=0.0&amp;FingerJoint_edge_width=1.0&amp;FingerJoint_extra_length=0.0&amp;FingerJoint_finger=2.0&amp;FingerJoint_play=0.0&amp;FingerJoint_space=2.0&amp;FingerJoint_width=1.0&amp;Lid_handle=none&amp;Lid_style=none&amp;Lid_handle_height=8.0&amp;Lid_height=4.0&amp;Lid_play=0.1&amp;h=50&amp;hi=0.0&amp;outside=0&amp;sx=35*6&amp;sy=50%3A20%3A10&amp;layout=+%2C%3E+35.00mm%0D%0A+%7C+%2C%3E+35.00mm%0D%0A+%7C+%7C+%2C%3E+35.00mm%0D%0A+%7C+%7C+%7C+%2C%3E+35.00mm%0D%0A+%7C+%7C+%7C+%7C+%2C%3E+35.00mm%0D%0A+%7C+%7C+%7C+%7C+%7C+%2C%3E+35.00mm%0D%0A%2B-%2B-%2B-%2B-%2B-%2B-%2B%0D%0A%7C+++%7C+++%7C+++%7C++50.00mm%0D%0A%2B-%2B-%2B-%2B-%2B-%2B-%2B%0D%0A%7C+++++%7C+++++%7C++20.00mm%0D%0A%2B-%2B-%2B-%2B-%2B-%2B-%2B%0D%0A%7C+++++++++++%7C++10.00mm%0D%0A%2B-%2B-%2B-%2B-%2B-%2B-%2B%0D%0A&amp;thickness=3&amp;burn=0.1&amp;format=svg&amp;labels=0&amp;labels=1&amp;reference=100.0&amp;tabs=0.0&amp;qr_code=0&amp;inner_corners=loop&amp;spacing=0.5&amp;debug=0&amp;language=en&amp;render=2</dc:source>
<dc:source>https://boxes.hackerspace-bamberg.de/TrayLayout?h=50&amp;outside=0&amp;sx=35*6&amp;sy=50%3A20%3A10&amp;layout=+%2C%3E+35.00mm%0D%0A+%7C+%2C%3E+35.00mm%0D%0A+%7C+%7C+%2C%3E+35.00mm%0D%0A+%7C+%7C+%7C+%2C%3E+35.00mm%0D%0A+%7C+%7C+%7C+%7C+%2C%3E+35.00mm%0D%0A+%7C+%7C+%7C+%7C+%7C+%2C%3E+35.00mm%0D%0A%2B-%2B-%2B-%2B-%2B-%2B-%2B%0D%0A%7C+++%7C+++%7C+++%7C++50.00mm%0D%0A%2B-%2B-%2B-%2B-%2B-%2B-%2B%0D%0A%7C+++++%7C+++++%7C++20.00mm%0D%0A%2B-%2B-%2B-%2B-%2B-%2B-%2B%0D%0A%7C+++++++++++%7C++10.00mm%0D%0A%2B-%2B-%2B-%2B-%2B-%2B-%2B%0D%0A&amp;spacing=0.5</dc:source>
<dc:description>Generate a typetray from a layout file.

This is a two step process. This is step 2.
Edit the layout text graphics to adjust your tray.
Put in the sizes for each column and row. You can replace the hyphens and
vertical bars representing the walls with a space character to remove the walls.
You can replace the space characters representing the floor by a "X" to remove the floor for this compartment.


Created with Boxes.py (https://boxes.hackerspace-bamberg.de/)
Command line: boxes TrayLayout --FingerJoint_style=rectangular --FingerJoint_surroundingspaces=2.0 --FingerJoint_bottom_lip=0.0 --FingerJoint_edge_width=1.0 --FingerJoint_extra_length=0.0 --FingerJoint_finger=2.0 --FingerJoint_play=0.0 --FingerJoint_space=2.0 --FingerJoint_width=1.0 --Lid_handle=none --Lid_style=none --Lid_handle_height=8.0 --Lid_height=4.0 --Lid_play=0.1 --h=50 --hi=0.0 --outside=0 '--sx=35*6' --sy=50:20:10 '--layout= ,&gt; 35.00mm\n | ,&gt; 35.00mm\n | | ,&gt; 35.00mm\n | | | ,&gt; 35.00mm\n | | | | ,&gt; 35.00mm\n | | | | | ,&gt; 35.00mm\n+-+-+-+-+-+-+\n|   |   |   |  50.00mm\n+-+-+-+-+-+-+\n|     |     |  20.00mm\n+-+-+-+-+-+-+\n|           |  10.00mm\n+-+-+-+-+-+-+\n' --thickness=3 --burn=0.1 --format=svg --labels=0 --labels=1 --reference=100.0 --tabs=0.0 --qr_code=0 --inner_corners=loop --spacing=0.5 --debug=0
Command line short: boxes TrayLayout --h=50 --outside=0 '--sx=35*6' --sy=50:20:10 '--layout= ,&gt; 35.00mm\n | ,&gt; 35.00mm\n | | ,&gt; 35.00mm\n | | | ,&gt; 35.00mm\n | | | | ,&gt; 35.00mm\n | | | | | ,&gt; 35.00mm\n+-+-+-+-+-+-+\n|   |   |   |  50.00mm\n+-+-+-+-+-+-+\n|     |     |  20.00mm\n+-+-+-+-+-+-+\n|           |  10.00mm\n+-+-+-+-+-+-+\n' --spacing=0.5
Url: https://boxes.hackerspace-bamberg.de/TrayLayout?FingerJoint_style=rectangular&amp;FingerJoint_surroundingspaces=2.0&amp;FingerJoint_bottom_lip=0.0&amp;FingerJoint_edge_width=1.0&amp;FingerJoint_extra_length=0.0&amp;FingerJoint_finger=2.0&amp;FingerJoint_play=0.0&amp;FingerJoint_space=2.0&amp;FingerJoint_width=1.0&amp;Lid_handle=none&amp;Lid_style=none&amp;Lid_handle_height=8.0&amp;Lid_height=4.0&amp;Lid_play=0.1&amp;h=50&amp;hi=0.0&amp;outside=0&amp;sx=35*6&amp;sy=50%3A20%3A10&amp;layout=+%2C%3E+35.00mm%0D%0A+%7C+%2C%3E+35.00mm%0D%0A+%7C+%7C+%2C%3E+35.00mm%0D%0A+%7C+%7C+%7C+%2C%3E+35.00mm%0D%0A+%7C+%7C+%7C+%7C+%2C%3E+35.00mm%0D%0A+%7C+%7C+%7C+%7C+%7C+%2C%3E+35.00mm%0D%0A%2B-%2B-%2B-%2B-%2B-%2B-%2B%0D%0A%7C+++%7C+++%7C+++%7C++50.00mm%0D%0A%2B-%2B-%2B-%2B-%2B-%2B-%2B%0D%0A%7C+++++%7C+++++%7C++20.00mm%0D%0A%2B-%2B-%2B-%2B-%2B-%2B-%2B%0D%0A%7C+++++++++++%7C++10.00mm%0D%0A%2B-%2B-%2B-%2B-%2B-%2B-%2B%0D%0A&amp;thickness=3&amp;burn=0.1&amp;format=svg&amp;labels=0&amp;labels=1&amp;reference=100.0&amp;tabs=0.0&amp;qr_code=0&amp;inner_corners=loop&amp;spacing=0.5&amp;debug=0&amp;language=en&amp;render=2
Url short: https://boxes.hackerspace-bamberg.de/TrayLayout?h=50&amp;outside=0&amp;sx=35*6&amp;sy=50%3A20%3A10&amp;layout=+%2C%3E+35.00mm%0D%0A+%7C+%2C%3E+35.00mm%0D%0A+%7C+%7C+%2C%3E+35.00mm%0D%0A+%7C+%7C+%7C+%2C%3E+35.00mm%0D%0A+%7C+%7C+%7C+%7C+%2C%3E+35.00mm%0D%0A+%7C+%7C+%7C+%7C+%7C+%2C%3E+35.00mm%0D%0A%2B-%2B-%2B-%2B-%2B-%2B-%2B%0D%0A%7C+++%7C+++%7C+++%7C++50.00mm%0D%0A%2B-%2B-%2B-%2B-%2B-%2B-%2B%0D%0A%7C+++++%7C+++++%7C++20.00mm%0D%0A%2B-%2B-%2B-%2B-%2B-%2B-%2B%0D%0A%7C+++++++++++%7C++10.00mm%0D%0A%2B-%2B-%2B-%2B-%2B-%2B-%2B%0D%0A&amp;spacing=0.5
SettingsUrl: https://boxes.hackerspace-bamberg.de/TrayLayout?FingerJoint_style=rectangular&amp;FingerJoint_surroundingspaces=2.0&amp;FingerJoint_bottom_lip=0.0&amp;FingerJoint_edge_width=1.0&amp;FingerJoint_extra_length=0.0&amp;FingerJoint_finger=2.0&amp;FingerJoint_play=0.0&amp;FingerJoint_space=2.0&amp;FingerJoint_width=1.0&amp;Lid_handle=none&amp;Lid_style=none&amp;Lid_handle_height=8.0&amp;Lid_height=4.0&amp;Lid_play=0.1&amp;h=50&amp;hi=0.0&amp;outside=0&amp;sx=35*6&amp;sy=50%3A20%3A10&amp;layout=+%2C%3E+35.00mm%0D%0A+%7C+%2C%3E+35.00mm%0D%0A+%7C+%7C+%2C%3E+35.00mm%0D%0A+%7C+%7C+%7C+%2C%3E+35.00mm%0D%0A+%7C+%7C+%7C+%7C+%2C%3E+35.00mm%0D%0A+%7C+%7C+%7C+%7C+%7C+%2C%3E+35.00mm%0D%0A%2B-%2B-%2B-%2B-%2B-%2B-%2B%0D%0A%7C+++%7C+++%7C+++%7C++50.00mm%0D%0A%2B-%2B-%2B-%2B-%2B-%2B-%2B%0D%0A%7C+++++%7C+++++%7C++20.00mm%0D%0A%2B-%2B-%2B-%2B-%2B-%2B-%2B%0D%0A%7C+++++++++++%7C++10.00mm%0D%0A%2B-%2B-%2B-%2B-%2B-%2B-%2B%0D%0A&amp;thickness=3&amp;burn=0.1&amp;format=svg&amp;labels=0&amp;labels=1&amp;reference=100.0&amp;tabs=0.0&amp;qr_code=0&amp;inner_corners=loop&amp;spacing=0.5&amp;debug=0&amp;language=en&amp;render=2
SettingsUrl short: https://boxes.hackerspace-bamberg.de/TrayLayout?h=50&amp;outside=0&amp;sx=35*6&amp;sy=50%3A20%3A10&amp;layout=+%2C%3E+35.00mm%0D%0A+%7C+%2C%3E+35.00mm%0D%0A+%7C+%7C+%2C%3E+35.00mm%0D%0A+%7C+%7C+%7C+%2C%3E+35.00mm%0D%0A+%7C+%7C+%7C+%7C+%2C%3E+35.00mm%0D%0A+%7C+%7C+%7C+%7C+%7C+%2C%3E+35.00mm%0D%0A%2B-%2B-%2B-%2B-%2B-%2B-%2B%0D%0A%7C+++%7C+++%7C+++%7C++50.00mm%0D%0A%2B-%2B-%2B-%2B-%2B-%2B-%2B%0D%0A%7C+++++%7C+++++%7C++20.00mm%0D%0A%2B-%2B-%2B-%2B-%2B-%2B-%2B%0D%0A%7C+++++++++++%7C++10.00mm%0D%0A%2B-%2B-%2B-%2B-%2B-%2B-%2B%0D%0A&amp;spacing=0.5
</dc:description>
</cc:Work></rdf:RDF></metadata>
<g id="p-0" style="fill:none;stroke-linecap:round;stroke-linejoin:round;">
  <path d="M 10.100 223.200 H 110.100 V 213.200 H 10.100 V 223.200 Z" stroke="rgb(0,0,0)" stroke-width="0.20" />
  <text dominant-baseline="hanging" font-size="6px" style="font-family: sans-serif ; font-weight: normal; font-style: normal; fill: rgb(255,0,0)" text-anchor="middle" transform="matrix( 1.000 0.000 0.000 1.000 60.100 215.200 )">100.0mm, burn:0.10mm</text>
</g>
<g id="p-1" style="fill:none;stroke-linecap:round;stroke-linejoin:round;">
  <text dominant-baseline="hanging" font-size="6.0px" style="font-family: sans-serif ; font-weight: normal; font-style: normal; fill: rgb(255,0,0)" text-anchor="middle" transform="matrix( 1.000 0.000 0.000 1.000 30.600 202.400 )">x 1/1</text>
  <text dominant-baseline="hanging" font-size="6.0px" style="font-family: sans-serif ; font-weight: normal; font-style: normal; fill: rgb(255,0,0)" text-anchor="middle" transform="matrix( 1.000 0.000 0.000 1.000 68.600 202.400 )">x 2/1</text>
  <text dominant-baseline="hanging" font-size="6.0px" style="font-family: sans-serif ; font-weight: normal; font-style: normal; fill: rgb(255,0,0)" text-anchor="middle" transform="matrix( 1.000 0.000 0.000 1.000 106.600 202.400 )">x 3/1</text>
  <text dominant-baseline="hanging" font-size="6.0px" style="font-family: sans-serif ; font-weight: normal; font-style: normal; fill: rgb(255,0,0)" text-anchor="middle" transform="matrix( 1.000 0.000 0.000 1.000 144.600 202.400 )">x 4/1</text>
  <text dominant-baseline="hanging" font-size="6.0px" style="font-family: sans-serif ; font-weight: normal; font-style: normal; fill: rgb(255,0,0)" text-anchor="middle" transform="matrix( 1.000 0.000 0.000 1.000 182.600 202.400 )">x 5/1</text>
  <text dominant-baseline="hanging" font-size="6.0px" style="font-family: sans-serif ; font-weight: normal; font-style: normal; fill: rgb(255,0,0)" text-anchor="middle" transform="matrix( 1.000 0.000 0.000 1.000 220.600 202.400 )">x 6/1</text>
  <path d="M 13.100 208.500 H 21.500 C 21.600 208.500 21.500 208.400 21.500 208.500 V 211.400 C 21.500 211.455 21.545 211.500 21.600 211.500 H 27.600 C 27.655 211.500 27.700 211.455 27.700 211.400 V 208.500 C 27.700 208.400 27.600 208.500 27.700 208.500 H 33.500 C 33.600 208.500 33.500 208.400 33.500 208.500 V 211.400 C 33.500 211.455 33.545 211.500 33.600 211.500 H 39.600 C 39.655 211.500 39.700 211.455 39.700 211.400 V 208.500 C 39.700 208.400 39.600 208.500 39.700 208.500 H 48.100 H 51.100 H 59.500 C 59.600 208.500 59.500 208.400 59.500 208.500 V 211.400 C 59.500 211.455 59.545 211.500 59.600 211.500 H 65.600 C 65.655 211.500 65.700 211.455 65.700 211.400 V 208.500 C 65.700 208.400 65.600 208.500 65.700 208.500 H 71.500 C 71.600 208.500 71.500 208.400 71.500 208.500 V 211.400 C 71.500 211.455 71.545 211.500 71.600 211.500 H 77.600 C 77.655 211.500 77.700 211.455 77.700 211.400 V 208.500 C 77.700 208.400 77.600 208.500 77.700 208.500 H 86.100 H 89.100 H 97.500 C 97.600 208.500 97.500 208.400 97.500 208.500 V 211.400 C 97.500 211.455 97.545 211.500 97.600 211.500 H 103.600 C 103.655 211.500 103.700 211.455 103.700 211.400 V 208.500 C 103.700 208.400 103.600 208.500 103.700 208.500 H 109.500 C 109.600 208.500 109.500 208.400 109.500 208.500 V 211.400 C 109.500 211.455 109.545 211.500 109.600 211.500 H 115.600 C 115.655 211.500 115.700 211.455 115.700 211.400 V 208.500 C 115.700 208.400 115.600 208.500 115.700 208.500 H 124.100 H 127.100 H 135.500 C 135.600 208.500 135.500 208.400 135.500 208.500 V 211.400 C 135.500 211.455 135.545 211.500 135.600 211.500 H 141.600 C 141.655 211.500 141.700 211.455 141.700 211.400 V 208.500 C 141.700 208.400 141.600 208.500 141.700 208.500 H 147.500 C 147.600 208.500 147.500 208.400 147.500 208.500 V 211.400 C 147.500 211.455 147.545 211.500 147.600 211.500 H 153.600 C 153.655 211.500 153.700 211.455 153.700 211.400 V 208.500 C 153.700 208.400 153.600 208.500 153.700 208.500 H 162.100 H 165.100 H 173.500 C 173.600 208.500 173.500 208.400 173.500 208.500 V 211.400 C 173.500 211.455 173.545 211.500 173.600 211.500 H 179.600 C 179.655 211.500 179.700 211.455 179.700 211.400 V 208.500 C 179.700 208.400 179.600 208.500 179.700 208.500 H 185.500 C 185.600 208.500 185.500 208.400 185.500 208.500 V 211.400 C 185.500 211.455 185.545 211.500 185.600 211.500 H 191.600 C 191.655 211.500 191.700 211.455 191.700 211.400 V 208.500 C 191.700 208.400 191.600 208.500 191.700 208.500 H 200.100 H 203.100 H 211.500 C 211.600 208.500 211.500 208.400 211.500 208.500 V 211.400 C 211.500 211.455 211.545 211.500 211.600 211.500 H 217.600 C 217.655 211.500 217.700 211.455 217.700 211.400 V 208.500 C 217.700 208.400 217.600 208.500 217.700 208.500 H 223.500 C 223.600 208.500 223.500 208.400 223.500 208.500 V 211.400 C 223.500 211.455 223.545 211.500 223.600 211.500 H 229.600 C 229.655 211.500 229.700 211.455 229.700 211.400 V 208.500 C 229.700 208.400 229.600 208.500 229.700 208.500 H 238.100 C 238.155 208.500 238.200 208.455 238.200 208.400 V 198.500 C 238.200 198.400 238.100 198.500 238.200 198.500 H 241.100 C 241.155 198.500 241.200 198.455 241.200 198.400 V 192.400 C 241.200 192.345 241.155 192.300 241.100 192.300 H 238.200 C 238.100 192.300 238.200 192.400 238.200 192.300 V 186.500 C 238.200 186.400 238.100 186.500 238.200 186.500 H 241.100 C 241.155 186.500 241.200 186.455 241.200 186.400 V 180.400 C 241.200 180.345 241.155 180.300 241.100 180.300 H 238.200 C 238.100 180.300 238.200 180.400 238.200 180.300 V 174.500 C 238.200 174.400 238.100 174.500 238.200 174.500 H 241.100 C 241.155 174.500 241.200 174.455 241.200 174.400 V 168.400 C 241.200 168.345 241.155 168.300 241.100 168.300 H 238.200 C 238.100 168.300 238.200 168.400 238.200 168.300 V 158.400 C 238.200 158.345 238.155 158.300 238.100 158.300 H 13.100 C 13.045 158.300 13.000 158.345 13.000 158.400 V 168.300 C 13.000 168.400 13.100 168.300 13.000 168.300 H 10.100 C 10.045 168.300 10.000 168.345 10.000 168.400 V 174.400 C 10.000 174.455 10.045 174.500 10.100 174.500 H 13.000 C 13.100 174.500 13.000 174.400 13.000 174.500 V 180.300 C 13.000 180.400 13.100 180.300 13.000 180.300 H 10.100 C 10.045 180.300 10.000 180.345 10.000 180.400 V 186.400 C 10.000 186.455 10.045 186.500 10.100 186.500 H 13.000 C 13.100 186.500 13.000 186.400 13.000 186.500 V 192.300 C 13.000 192.400 13.100 192.300 13.000 192.300 H 10.100 C 10.045 192.300 10.000 192.345 10.000 192.400 V 198.400 C 10.000 198.455 10.045 198.500 10.100 198.500 H 13.000 C 13.100 198.500 13.000 198.400 13.000 198.500 V 208.400 C 13.000 208.455 13.045 208.500 13.100 208.500 Z" stroke="rgb(0,0,0)" stroke-width="0.20" />
  <path d="M 89.000 195.400 V 198.300 C 89.000 198.400 89.100 198.300 89.000 198.300 H 86.200 C 86.100 198.300 86.200 198.400 86.200 198.300 V 192.500 C 86.200 192.400 86.100 192.500 86.200 192.500 H 89.000 C 89.100 192.500 89.000 192.400 89.000 192.500 V 195.400 Z" stroke="rgb(0,0,255)" stroke-width="0.20" />
  <path d="M 89.000 183.400 V 186.300 C 89.000 186.400 89.100 186.300 89.000 186.300 H 86.200 C 86.100 186.300 86.200 186.400 86.200 186.300 V 180.500 C 86.200 180.400 86.100 180.500 86.200 180.500 H 89.000 C 89.100 180.500 89.000 180.400 89.000 180.500 V 183.400 Z" stroke="rgb(0,0,255)" stroke-width="0.20" />
  <path d="M 89.000 171.400 V 174.300 C 89.000 174.400 89.100 174.300 89.000 174.300 H 86.200 C 86.100 174.300 86.200 174.400 86.200 174.300 V 168.500 C 86.200 168.400 86.100 168.500 86.200 168.500 H 89.000 C 89.100 168.500 89.000 168.400 89.000 168.500 V 171.400 Z" stroke="rgb(0,0,255)" stroke-width="0.20" />
  <path d="M 165.000 195.400 V 198.300 C 165.000 198.400 165.100 198.300 165.000 198.300 H 162.200 C 162.100 198.300 162.200 198.400 162.200 198.300 V 192.500 C 162.200 192.400 162.100 192.500 162.200 192.500 H 165.000 C 165.100 192.500 165.000 192.400 165.000 192.500 V 195.400 Z" stroke="rgb(0,0,255)" stroke-width="0.20" />
  <path d="M 165.000 183.400 V 186.300 C 165.000 186.400 165.100 186.300 165.000 186.300 H 162.200 C 162.100 186.300 162.200 186.400 162.200 186.300 V 180.500 C 162.200 180.400 162.100 180.500 162.200 180.500 H 165.000 C 165.100 180.500 165.000 180.400 165.000 180.500 V 183.400 Z" stroke="rgb(0,0,255)" stroke-width="0.20" />
  <path d="M 165.000 171.400 V 174.300 C 165.000 174.400 165.100 174.300 165.000 174.300 H 162.200 C 162.100 174.300 162.200 174.400 162.200 174.300 V 168.500 C 162.200 168.400 162.100 168.500 162.200 168.500 H 165.000 C 165.100 168.500 165.000 168.400 165.000 168.500 V 171.400 Z" stroke="rgb(0,0,255)" stroke-width="0.20" />
</g>
<g id="p-2" style="fill:none;stroke-linecap:round;stroke-linejoin:round;">
  <text dominant-baseline="hanging" font-size="6.0px" style="font-family: sans-serif ; font-weight: normal; font-style: normal; fill: rgb(255,0,0)" text-anchor="middle" transform="matrix( 1.000 0.000 0.000 1.000 263.300 202.400 )">x 1/2</text>
  <text dominant-baseline="hanging" font-size="6.0px" style="font-family: sans-serif ; font-weight: normal; font-style: normal; fill: rgb(255,0,0)" text-anchor="middle" transform="matrix( 1.000 0.000 0.000 1.000 301.300 202.400 )">x 2/2</text>
  <text dominant-baseline="hanging" font-size="6.0px" style="font-family: sans-serif ; font-weight: normal; font-style: normal; fill: rgb(255,0,0)" text-anchor="middle" transform="matrix( 1.000 0.000 0.000 1.000 339.300 202.400 )">x 3/2</text>
  <text dominant-baseline="hanging" font-size="6.0px" style="font-family: sans-serif ; font-weight: normal; font-style: normal; fill: rgb(255,0,0)" text-anchor="middle" transform="matrix( 1.000 0.000 0.000 1.000 377.300 202.400 )">x 4/2</text>
  <text dominant-baseline="hanging" font-size="6.0px" style="font-family: sans-serif ; font-weight: normal; font-style: normal; fill: rgb(255,0,0)" text-anchor="middle" transform="matrix( 1.000 0.000 0.000 1.000 415.300 202.400 )">x 5/2</text>
  <text dominant-baseline="hanging" font-size="6.0px" style="font-family: sans-serif ; font-weight: normal; font-style: normal; fill: rgb(255,0,0)" text-anchor="middle" transform="matrix( 1.000 0.000 0.000 1.000 453.300 202.400 )">x 6/2</text>
  <path d="M 245.800 208.500 H 254.200 C 254.300 208.500 254.200 208.400 254.200 208.500 V 211.400 C 254.200 211.455 254.245 211.500 254.300 211.500 H 260.300 C 260.355 211.500 260.400 211.455 260.400 211.400 V 208.500 C 260.400 208.400 260.300 208.500 260.400 208.500 H 266.200 C 266.300 208.500 266.200 208.400 266.200 208.500 V 211.400 C 266.200 211.455 266.245 211.500 266.300 211.500 H 272.300 C 272.355 211.500 272.400 211.455 272.400 211.400 V 208.500 C 272.400 208.400 272.300 208.500 272.400 208.500 H 280.800 H 283.800 H 292.200 C 292.300 208.500 292.200 208.400 292.200 208.500 V 211.400 C 292.200 211.455 292.245 211.500 292.300 211.500 H 298.300 C 298.355 211.500 298.400 211.455 298.400 211.400 V 208.500 C 298.400 208.400 298.300 208.500 298.400 208.500 H 304.200 C 304.300 208.500 304.200 208.400 304.200 208.500 V 211.400 C 304.200 211.455 304.245 211.500 304.300 211.500 H 310.300 C 310.355 211.500 310.400 211.455 310.400 211.400 V 208.500 C 310.400 208.400 310.300 208.500 310.400 208.500 H 318.800 H 321.800 H 330.200 C 330.300 208.500 330.200 208.400 330.200 208.500 V 211.400 C 330.200 211.455 330.245 211.500 330.300 211.500 H 336.300 C 336.355 211.500 336.400 211.455 336.400 211.400 V 208.500 C 336.400 208.400 336.300 208.500 336.400 208.500 H 342.200 C 342.300 208.500 342.200 208.400 342.200 208.500 V 211.400 C 342.200 211.455 342.245 211.500 342.300 211.500 H 348.300 C 348.355 211.500 348.400 211.455 348.400 211.400 V 208.500 C 348.400 208.400 348.300 208.500 348.400 208.500 H 356.800 H 359.800 H 368.200 C 368.300 208.500 368.200 208.400 368.200 208.500 V 211.400 C 368.200 211.455 368.245 211.500 368.300 211.500 H 374.300 C 374.355 211.500 374.400 211.455 374.400 211.400 V 208.500 C 374.400 208.400 374.300 208.500 374.400 208.500 H 380.200 C 380.300 208.500 380.200 208.400 380.200 208.500 V 211.400 C 380.200 211.455 380.245 211.500 380.300 211.500 H 386.300 C 386.355 211.500 386.400 211.455 386.400 211.400 V 208.500 C 386.400 208.400 386.300 208.500 386.400 208.500 H 394.800 H 397.800 H 406.200 C 406.300 208.500 406.200 208.400 406.200 208.500 V 211.400 C 406.200 211.455 406.245 211.500 406.300 211.500 H 412.300 C 412.355 211.500 412.400 211.455 412.400 211.400 V 208.500 C 412.400 208.400 412.300 208.500 412.400 208.500 H 418.200 C 418.300 208.500 418.200 208.400 418.200 208.500 V 211.400 C 418.200 211.455 418.245 211.500 418.300 211.500 H 424.300 C 424.355 211.500 424.400 211.455 424.400 211.400 V 208.500 C 424.400 208.400 424.300 208.500 424.400 208.500 H 432.800 H 435.800 H 444.200 C 444.300 208.500 444.200 208.400 444.200 208.500 V 211.400 C 444.200 211.455 444.245 211.500 444.300 211.500 H 450.300 C 450.355 211.500 450.400 211.455 450.400 211.400 V 208.500 C 450.400 208.400 450.300 208.500 450.400 208.500 H 456.200 C 456.300 208.500 456.200 208.400 456.200 208.500 V 211.400 C 456.200 211.455 456.245 211.500 456.300 211.500 H 462.300 C 462.355 211.500 462.400 211.455 462.400 211.400 V 208.500 C 462.400 208.400 462.300 208.500 462.400 208.500 H 470.800 C 470.855 208.500 470.900 208.455 470.900 208.400 V 198.500 C 470.900 198.400 470.800 198.500 470.900 198.500 H 473.800 C 473.855 198.500 473.900 198.455 473.900 198.400 V 192.400 C 473.900 192.345 473.855 192.300 473.800 192.300 H 470.900 C 470.800 192.300 470.900 192.400 470.900 192.300 V 186.500 C 470.900 186.400 470.800 186.500 470.900 186.500 H 473.800 C 473.855 186.500 473.900 186.455 473.900 186.400 V 180.400 C 473.900 180.345 473.855 180.300 473.800 180.300 H 470.900 C 470.800 180.300 470.900 180.400 470.900 180.300 V 174.500 C 470.900 174.400 470.800 174.500 470.900 174.500 H 473.800 C 473.855 174.500 473.900 174.455 473.900 174.400 V 168.400 C 473.900 168.345 473.855 168.300 473.800 168.300 H 470.900 C 470.800 168.300 470.900 168.400 470.900 168.300 V 158.400 C 470.900 158.345 470.855 158.300 470.800 158.300 H 245.800 C 245.745 158.300 245.700 158.345 245.700 158.400 V 168.300 C 245.700 168.400 245.800 168.300 245.700 168.300 H 242.800 C 242.745 168.300 242.700 168.345 242.700 168.400 V 174.400 C 242.700 174.455 242.745 174.500 242.800 174.500 H 245.700 C 245.800 174.500 245.700 174.400 245.700 174.500 V 180.300 C 245.700 180.400 245.800 180.300 245.700 180.300 H 242.800 C 242.745 180.300 242.700 180.345 242.700 180.400 V 186.400 C 242.700 186.455 242.745 186.500 242.800 186.500 H 245.700 C 245.800 186.500 245.700 186.400 245.700 186.500 V 192.300 C 245.700 192.400 245.800 192.300 245.700 192.300 H 242.800 C 242.745 192.300 242.700 192.345 242.700 192.400 V 198.400 C 242.700 198.455 242.745 198.500 242.800 198.500 H 245.700 C 245.800 198.500 245.700 198.400 245.700 198.500 V 208.400 C 245.700 208.455 245.745 208.500 245.800 208.500 Z" stroke="rgb(0,0,0)" stroke-width="0.20" />
  <path d="M 321.700 195.400 V 198.300 C 321.700 198.400 321.800 198.300 321.700 198.300 H 318.900 C 318.800 198.300 318.900 198.400 318.900 198.300 V 192.500 C 318.900 192.400 318.800 192.500 318.900 192.500 H 321.700 C 321.800 192.500 321.700 192.400 321.700 192.500 V 195.400 Z" stroke="rgb(0,0,255)" stroke-width="0.20" />
  <path d="M 321.700 183.400 V 186.300 C 321.700 186.400 321.800 186.300 321.700 186.300 H 318.900 C 318.800 186.300 318.900 186.400 318.900 186.300 V 180.500 C 318.900 180.400 318.800 180.500 318.900 180.500 H 321.700 C 321.800 180.500 321.700 180.400 321.700 180.500 V 183.400 Z" stroke="rgb(0,0,255)" stroke-width="0.20" />
  <path d="M 321.700 171.400 V 174.300 C 321.700 174.400 321.800 174.300 321.700 174.300 H 318.900 C 318.800 174.300 318.900 174.400 318.900 174.300 V 168.500 C 318.900 168.400 318.800 168.500 318.900 168.500 H 321.700 C 321.800 168.500 321.700 168.400 321.700 168.500 V 171.400 Z" stroke="rgb(0,0,255)" stroke-width="0.20" />
  <path d="M 359.700 195.400 V 198.300 C 359.700 198.400 359.800 198.300 359.700 198.300 H 356.900 C 356.800 198.300 356.900 198.400 356.900 198.300 V 192.500 C 356.900 192.400 356.800 192.500 356.900 192.500 H 359.700 C 359.800 192.500 359.700 192.400 359.700 192.500 V 195.400 Z" stroke="rgb(0,0,255)" stroke-width="0.20" />
  <path d="M 359.700 183.400 V 186.300 C 359.700 186.400 359.800 186.300 359.700 186.300 H 356.900 C 356.800 186.300 356.900 186.400 356.900 186.300 V 180.500 C 356.900 180.400 356.800 180.500 356.900 180.500 H 359.700 C 359.800 180.500 359.700 180.400 359.700 180.500 V 183.400 Z" stroke="rgb(0,0,255)" stroke-width="0.20" />
  <path d="M 359.700 171.400 V 174.300 C 359.700 174.400 359.800 174.300 359.700 174.300 H 356.900 C 356.800 174.300 356.900 174.400 356.900 174.300 V 168.500 C 356.900 168.400 356.800 168.500 356.900 168.500 H 359.700 C 359.800 168.500 359.700 168.400 359.700 168.500 V 171.400 Z" stroke="rgb(0,0,255)" stroke-width="0.20" />
  <path d="M 397.700 195.400 V 198.300 C 397.700 198.400 397.800 198.300 397.700 198.300 H 394.900 C 394.800 198.300 394.900 198.400 394.900 198.300 V 192.500 C 394.900 192.400 394.800 192.500 394.900 192.500 H 397.700 C 397.800 192.500 397.700 192.400 397.700 192.500 V 195.400 Z" stroke="rgb(0,0,255)" stroke-width="0.20" />
  <path d="M 397.700 183.400 V 186.300 C 397.700 186.400 397.800 186.300 397.700 186.300 H 394.900 C 394.800 186.300 394.900 186.400 394.900 186.300 V 180.500 C 394.900 180.400 394.800 180.500 394.900 180.500 H 397.700 C 397.800 180.500 397.700 180.400 397.700 180.500 V 183.400 Z" stroke="rgb(0,0,255)" stroke-width="0.20" />
  <path d="M 397.700 171.400 V 174.300 C 397.700 174.400 397.800 174.300 397.700 174.300 H 394.900 C 394.800 174.300 394.900 174.400 394.900 174.300 V 168.500 C 394.900 168.400 394.800 168.500 394.900 168.500 H 397.700 C 397.800 168.500 397.700 168.400 397.700 168.500 V 171.400 Z" stroke="rgb(0,0,255)" stroke-width="0.20" />
</g>
<g id="p-3" style="fill:none;stroke-linecap:round;stroke-linejoin:round;">
  <text dominant-baseline="hanging" font-size="6.0px" style="font-family: sans-serif ; font-weight: normal; font-style: normal; fill: rgb(255,0,0)" text-anchor="middle" transform="matrix( 1.000 0.000 0.000 1.000 496.000 202.400 )">x 1/3</text>
  <text dominant-baseline="hanging" font-size="6.0px" style="font-family: sans-serif ; font-weight: normal; font-style: normal; fill: rgb(255,0,0)" text-anchor="middle" transform="matrix( 1.000 0.000 0.000 1.000 534.000 202.400 )">x 2/3</text>
  <text dominant-baseline="hanging" font-size="6.0px" style="font-family: sans-serif ; font-weight: normal; font-style: normal; fill: rgb(255,0,0)" text-anchor="middle" transform="matrix( 1.000 0.000 0.000 1.000 572.000 202.400 )">x 3/3</text>
  <text dominant-baseline="hanging" font-size="6.0px" style="font-family: sans-serif ; font-weight: normal; font-style: normal; fill: rgb(255,0,0)" text-anchor="middle" transform="matrix( 1.000 0.000 0.000 1.000 610.000 202.400 )">x 4/3</text>
  <text dominant-baseline="hanging" font-size="6.0px" style="font-family: sans-serif ; font-weight: normal; font-style: normal; fill: rgb(255,0,0)" text-anchor="middle" transform="matrix( 1.000 0.000 0.000 1.000 648.000 202.400 )">x 5/3</text>
  <text dominant-baseline="hanging" font-size="6.0px" style="font-family: sans-serif ; font-weight: normal; font-style: normal; fill: rgb(255,0,0)" text-anchor="middle" transform="matrix( 1.000 0.000 0.000 1.000 686.000 202.400 )">x 6/3</text>
  <path d="M 478.500 208.500 H 486.900 C 487.000 208.500 486.900 208.400 486.900 208.500 V 211.400 C 486.900 211.455 486.945 211.500 487.000 211.500 H 493.000 C 493.055 211.500 493.100 211.455 493.100 211.400 V 208.500 C 493.100 208.400 493.000 208.500 493.100 208.500 H 498.900 C 499.000 208.500 498.900 208.400 498.900 208.500 V 211.400 C 498.900 211.455 498.945 211.500 499.000 211.500 H 505.000 C 505.055 211.500 505.100 211.455 505.100 211.400 V 208.500 C 505.100 208.400 505.000 208.500 505.100 208.500 H 513.500 H 516.500 H 524.900 C 525.000 208.500 524.900 208.400 524.900 208.500 V 211.400 C 524.900 211.455 524.945 211.500 525.000 211.500 H 531.000 C 531.055 211.500 531.100 211.455 531.100 211.400 V 208.500 C 531.100 208.400 531.000 208.500 531.100 208.500 H 536.900 C 537.000 208.500 536.900 208.400 536.900 208.500 V 211.400 C 536.900 211.455 536.945 211.500 537.000 211.500 H 543.000 C 543.055 211.500 543.100 211.455 543.100 211.400 V 208.500 C 543.100 208.400 543.000 208.500 543.100 208.500 H 551.500 H 554.500 H 562.900 C 563.000 208.500 562.900 208.400 562.900 208.500 V 211.400 C 562.900 211.455 562.945 211.500 563.000 211.500 H 569.000 C 569.055 211.500 569.100 211.455 569.100 211.400 V 208.500 C 569.100 208.400 569.000 208.500 569.100 208.500 H 574.900 C 575.000 208.500 574.900 208.400 574.900 208.500 V 211.400 C 574.900 211.455 574.945 211.500 575.000 211.500 H 581.000 C 581.055 211.500 581.100 211.455 581.100 211.400 V 208.500 C 581.100 208.400 581.000 208.500 581.100 208.500 H 589.500 H 592.500 H 600.900 C 601.000 208.500 600.900 208.400 600.900 208.500 V 211.400 C 600.900 211.455 600.945 211.500 601.000 211.500 H 607.000 C 607.055 211.500 607.100 211.455 607.100 211.400 V 208.500 C 607.100 208.400 607.000 208.500 607.100 208.500 H 612.900 C 613.000 208.500 612.900 208.400 612.900 208.500 V 211.400 C 612.900 211.455 612.945 211.500 613.000 211.500 H 619.000 C 619.055 211.500 619.100 211.455 619.100 211.400 V 208.500 C 619.100 208.400 619.000 208.500 619.100 208.500 H 627.500 H 630.500 H 638.900 C 639.000 208.500 638.900 208.400 638.900 208.500 V 211.400 C 638.900 211.455 638.945 211.500 639.000 211.500 H 645.000 C 645.055 211.500 645.100 211.455 645.100 211.400 V 208.500 C 645.100 208.400 645.000 208.500 645.100 208.500 H 650.900 C 651.000 208.500 650.900 208.400 650.900 208.500 V 211.400 C 650.900 211.455 650.945 211.500 651.000 211.500 H 657.000 C 657.055 211.500 657.100 211.455 657.100 211.400 V 208.500 C 657.100 208.400 657.000 208.500 657.100 208.500 H 665.500 H 668.500 H 676.900 C 677.000 208.500 676.900 208.400 676.900 208.500 V 211.400 C 676.900 211.455 676.945 211.500 677.000 211.500 H 683.000 C 683.055 211.500 683.100 211.455 683.100 211.400 V 208.500 C 683.100 208.400 683.000 208.500 683.100 208.500 H 688.900 C 689.000 208.500 688.900 208.400 688.900 208.500 V 211.400 C 688.900 211.455 688.945 211.500 689.000 211.500 H 695.000 C 695.055 211.500 695.100 211.455 695.100 211.400 V 208.500 C 695.100 208.400 695.000 208.500 695.100 208.500 H 703.500 C 703.555 208.500 703.600 208.455 703.600 208.400 V 198.500 C 703.600 198.400 703.500 198.500 703.600 198.500 H 706.500 C 706.555 198.500 706.600 198.455 706.600 198.400 V 192.400 C 706.600 192.345 706.555 192.300 706.500 192.300 H 703.600 C 703.500 192.300 703.600 192.400 703.600 192.300 V 186.500 C 703.600 186.400 703.500 186.500 703.600 186.500 H 706.500 C 706.555 186.500 706.600 186.455 706.600 186.400 V 180.400 C 706.600 180.345 706.555 180.300 706.500 180.300 H 703.600 C 703.500 180.300 703.600 180.400 703.600 180.300 V 174.500 C 703.600 174.400 703.500 174.500 703.600 174.500 H 706.500 C 706.555 174.500 706.600 174.455 706.600 174.400 V 168.400 C 706.600 168.345 706.555 168.300 706.500 168.300 H 703.600 C 703.500 168.300 703.600 168.400 703.600 168.300 V 158.400 C 703.600 158.345 703.555 158.300 703.500 158.300 H 478.500 C 478.445 158.300 478.400 158.345 478.400 158.400 V 168.300 C 478.400 168.400 478.500 168.300 478.400 168.300 H 475.500 C 475.445 168.300 475.400 168.345 475.400 168.400 V 174.400 C 475.400 174.455 475.445 174.500 475.500 174.500 H 478.400 C 478.500 174.500 478.400 174.400 478.400 174.500 V 180.300 C 478.400 180.400 478.500 180.300 478.400 180.300 H 475.500 C 475.445 180.300 475.400 180.345 475.400 180.400 V 186.400 C 475.400 186.455 475.445 186.500 475.500 186.500 H 478.400 C 478.500 186.500 478.400 186.400 478.400 186.500 V 192.300 C 478.400 192.400 478.500 192.300 478.400 192.300 H 475.500 C 475.445 192.300 475.400 192.345 475.400 192.400 V 198.400 C 475.400 198.455 475.445 198.500 475.500 198.500 H 478.400 C 478.500 198.500 478.400 198.400 478.400 198.500 V 208.400 C 478.400 208.455 478.445 208.500 478.500 208.500 Z" stroke="rgb(0,0,0)" stroke-width="0.20" />
  <path d="M 592.400 195.400 V 198.300 C 592.400 198.400 592.500 198.300 592.400 198.300 H 589.600 C 589.500 198.300 589.600 198.400 589.600 198.300 V 192.500 C 589.600 192.400 589.500 192.500 589.600 192.500 H 592.400 C 592.500 192.500 592.400 192.400 592.400 192.500 V 195.400 Z" stroke="rgb(0,0,255)" stroke-width="0.20" />
  <path d="M 592.400 183.400 V 186.300 C 592.400 186.400 592.500 186.300 592.400 186.300 H 589.600 C 589.500 186.300 589.600 186.400 589.600 186.300 V 180.500 C 589.600 180.400 589.500 180.500 589.600 180.500 H 592.400 C 592.500 180.500 592.400 180.400 592.400 180.500 V 183.400 Z" stroke="rgb(0,0,255)" stroke-width="0.20" />
  <path d="M 592.400 171.400 V 174.300 C 592.400 174.400 592.500 174.300 592.400 174.300 H 589.600 C 589.500 174.300 589.600 174.400 589.600 174.300 V 168.500 C 589.600 168.400 589.500 168.500 589.600 168.500 H 592.400 C 592.500 168.500 592.400 168.400 592.400 168.500 V 171.400 Z" stroke="rgb(0,0,255)" stroke-width="0.20" />
</g>
<g id="p-4" style="fill:none;stroke-linecap:round;stroke-linejoin:round;">
  <text dominant-baseline="hanging" font-size="6.0px" style="font-family: sans-serif ; font-weight: normal; font-style: normal; fill: rgb(255,0,0)" text-anchor="middle" transform="matrix( 1.000 0.000 0.000 1.000 728.700 202.400 )">x 1/4</text>
  <text dominant-baseline="hanging" font-size="6.0px" style="font-family: sans-serif ; font-weight: normal; font-style: normal; fill: rgb(255,0,0)" text-anchor="middle" transform="matrix( 1.000 0.000 0.000 1.000 766.700 202.400 )">x 2/4</text>
  <text dominant-baseline="hanging" font-size="6.0px" style="font-family: sans-serif ; font-weight: normal; font-style: normal; fill: rgb(255,0,0)" text-anchor="middle" transform="matrix( 1.000 0.000 0.000 1.000 804.700 202.400 )">x 3/4</text>
  <text dominant-baseline="hanging" font-size="6.0px" style="font-family: sans-serif ; font-weight: normal; font-style: normal; fill: rgb(255,0,0)" text-anchor="middle" transform="matrix( 1.000 0.000 0.000 1.000 842.700 202.400 )">x 4/4</text>
  <text dominant-baseline="hanging" font-size="6.0px" style="font-family: sans-serif ; font-weight: normal; font-style: normal; fill: rgb(255,0,0)" text-anchor="middle" transform="matrix( 1.000 0.000 0.000 1.000 880.700 202.400 )">x 5/4</text>
  <text dominant-baseline="hanging" font-size="6.0px" style="font-family: sans-serif ; font-weight: normal; font-style: normal; fill: rgb(255,0,0)" text-anchor="middle" transform="matrix( 1.000 0.000 0.000 1.000 918.700 202.400 )">x 6/4</text>
  <path d="M 711.200 208.500 H 719.600 C 719.700 208.500 719.600 208.400 719.600 208.500 V 211.400 C 719.600 211.455 719.645 211.500 719.700 211.500 H 725.700 C 725.755 211.500 725.800 211.455 725.800 211.400 V 208.500 C 725.800 208.400 725.700 208.500 725.800 208.500 H 731.600 C 731.700 208.500 731.600 208.400 731.600 208.500 V 211.400 C 731.600 211.455 731.645 211.500 731.700 211.500 H 737.700 C 737.755 211.500 737.800 211.455 737.800 211.400 V 208.500 C 737.800 208.400 737.700 208.500 737.800 208.500 H 746.200 H 749.200 H 757.600 C 757.700 208.500 757.600 208.400 757.600 208.500 V 211.400 C 757.600 211.455 757.645 211.500 757.700 211.500 H 763.700 C 763.755 211.500 763.800 211.455 763.800 211.400 V 208.500 C 763.800 208.400 763.700 208.500 763.800 208.500 H 769.600 C 769.700 208.500 769.600 208.400 769.600 208.500 V 211.400 C 769.600 211.455 769.645 211.500 769.700 211.500 H 775.700 C 775.755 211.500 775.800 211.455 775.800 211.400 V 208.500 C 775.800 208.400 775.700 208.500 775.800 208.500 H 784.200 H 787.200 H 795.600 C 795.700 208.500 795.600 208.400 795.600 208.500 V 211.400 C 795.600 211.455 795.645 211.500 795.700 211.500 H 801.700 C 801.755 211.500 801.800 211.455 801.800 211.400 V 208.500 C 801.800 208.400 801.700 208.500 801.800 208.500 H 807.600 C 807.700 208.500 807.600 208.400 807.600 208.500 V 211.400 C 807.600 211.455 807.645 211.500 807.700 211.500 H 813.700 C 813.755 211.500 813.800 211.455 813.800 211.400 V 208.500 C 813.800 208.400 813.700 208.500 813.800 208.500 H 822.200 H 825.200 H 833.600 C 833.700 208.500 833.600 208.400 833.600 208.500 V 211.400 C 833.600 211.455 833.645 211.500 833.700 211.500 H 839.700 C 839.755 211.500 839.800 211.455 839.800 211.400 V 208.500 C 839.800 208.400 839.700 208.500 839.800 208.500 H 845.600 C 845.700 208.500 845.600 208.400 845.600 208.500 V 211.400 C 845.600 211.455 845.645 211.500 845.700 211.500 H 851.700 C 851.755 211.500 851.800 211.455 851.800 211.400 V 208.500 C 851.800 208.400 851.700 208.500 851.800 208.500 H 860.200 H 863.200 H 871.600 C 871.700 208.500 871.600 208.400 871.600 208.500 V 211.400 C 871.600 211.455 871.645 211.500 871.700 211.500 H 877.700 C 877.755 211.500 877.800 211.455 877.800 211.400 V 208.500 C 877.800 208.400 877.700 208.500 877.800 208.500 H 883.600 C 883.700 208.500 883.600 208.400 883.600 208.500 V 211.400 C 883.600 211.455 883.645 211.500 883.700 211.500 H 889.700 C 889.755 211.500 889.800 211.455 889.800 211.400 V 208.500 C 889.800 208.400 889.700 208.500 889.800 208.500 H 898.200 H 901.200 H 909.600 C 909.700 208.500 909.600 208.400 909.600 208.500 V 211.400 C 909.600 211.455 909.645 211.500 909.700 211.500 H 915.700 C 915.755 211.500 915.800 211.455 915.800 211.400 V 208.500 C 915.800 208.400 915.700 208.500 915.800 208.500 H 921.600 C 921.700 208.500 921.600 208.400 921.600 208.500 V 211.400 C 921.600 211.455 921.645 211.500 921.700 211.500 H 927.700 C 927.755 211.500 927.800 211.455 927.800 211.400 V 208.500 C 927.800 208.400 927.700 208.500 927.800 208.500 H 936.200 C 936.255 208.500 936.300 208.455 936.300 208.400 V 198.500 C 936.300 198.400 936.200 198.500 936.300 198.500 H 939.200 C 939.255 198.500 939.300 198.455 939.300 198.400 V 192.400 C 939.300 192.345 939.255 192.300 939.200 192.300 H 936.300 C 936.200 192.300 936.300 192.400 936.300 192.300 V 186.500 C 936.300 186.400 936.200 186.500 936.300 186.500 H 939.200 C 939.255 186.500 939.300 186.455 939.300 186.400 V 180.400 C 939.300 180.345 939.255 180.300 939.200 180.300 H 936.300 C 936.200 180.300 936.300 180.400 936.300 180.300 V 174.500 C 936.300 174.400 936.200 174.500 936.300 174.500 H 939.200 C 939.255 174.500 939.300 174.455 939.300 174.400 V 168.400 C 939.300 168.345 939.255 168.300 939.200 168.300 H 936.300 C 936.200 168.300 936.300 168.400 936.300 168.300 V 158.400 C 936.300 158.345 936.255 158.300 936.200 158.300 H 711.200 C 711.145 158.300 711.100 158.345 711.100 158.400 V 168.300 C 711.100 168.400 711.200 168.300 711.100 168.300 H 708.200 C 708.145 168.300 708.100 168.345 708.100 168.400 V 174.400 C 708.100 174.455 708.145 174.500 708.200 174.500 H 711.100 C 711.200 174.500 711.100 174.400 711.100 174.500 V 180.300 C 711.100 180.400 711.200 180.300 711.100 180.300 H 708.200 C 708.145 180.300 708.100 180.345 708.100 180.400 V 186.400 C 708.100 186.455 708.145 186.500 708.200 186.500 H 711.100 C 711.200 186.500 711.100 186.400 711.100 186.500 V 192.300 C 711.100 192.400 711.200 192.300 711.100 192.300 H 708.200 C 708.145 192.300 708.100 192.345 708.100 192.400 V 198.400 C 708.100 198.455 708.145 198.500 708.200 198.500 H 711.100 C 711.200 198.500 711.100 198.400 711.100 198.500 V 208.400 C 711.100 208.455 711.145 208.500 711.200 208.500 Z" stroke="rgb(0,0,0)" stroke-width="0.20" />
</g>
<g id="p-5" style="fill:none;stroke-linecap:round;stroke-linejoin:round;">
  <text dominant-baseline="hanging" font-size="6.0px" style="font-family: sans-serif ; font-weight: normal; font-style: normal; fill: rgb(255,0,0)" text-anchor="middle" transform="matrix( 1.000 0.000 0.000 1.000 38.100 147.700 )">y 1/1</text>
  <text dominant-baseline="hanging" font-size="6.0px" style="font-family: sans-serif ; font-weight: normal; font-style: normal; fill: rgb(255,0,0)" text-anchor="middle" transform="matrix( 1.000 0.000 0.000 1.000 76.100 147.700 )">y 1/2</text>
  <text dominant-baseline="hanging" font-size="6.0px" style="font-family: sans-serif ; font-weight: normal; font-style: normal; fill: rgb(255,0,0)" text-anchor="middle" transform="matrix( 1.000 0.000 0.000 1.000 94.100 147.700 )">y 1/3</text>
  <path d="M 13.100 153.800 H 23.000 C 23.100 153.800 23.000 153.700 23.000 153.800 V 156.700 C 23.000 156.755 23.045 156.800 23.100 156.800 H 29.100 C 29.155 156.800 29.200 156.755 29.200 156.700 V 153.800 C 29.200 153.700 29.100 153.800 29.200 153.800 H 35.000 C 35.100 153.800 35.000 153.700 35.000 153.800 V 156.700 C 35.000 156.755 35.045 156.800 35.100 156.800 H 41.100 C 41.155 156.800 41.200 156.755 41.200 156.700 V 153.800 C 41.200 153.700 41.100 153.800 41.200 153.800 H 47.000 C 47.100 153.800 47.000 153.700 47.000 153.800 V 156.700 C 47.000 156.755 47.045 156.800 47.100 156.800 H 53.100 C 53.155 156.800 53.200 156.755 53.200 156.700 V 153.800 C 53.200 153.700 53.100 153.800 53.200 153.800 H 63.100 H 66.100 H 73.000 C 73.100 153.800 73.000 153.700 73.000 153.800 V 156.700 C 73.000 156.755 73.045 156.800 73.100 156.800 H 79.100 C 79.155 156.800 79.200 156.755 79.200 156.700 V 153.800 C 79.200 153.700 79.100 153.800 79.200 153.800 H 86.100 H 89.100 H 91.000 C 91.100 153.800 91.000 153.700 91.000 153.800 V 156.700 C 91.000 156.755 91.045 156.800 91.100 156.800 H 97.100 C 97.155 156.800 97.200 156.755 97.200 156.700 V 153.800 C 97.200 153.700 97.100 153.800 97.200 153.800 H 99.100 H 102.100 C 102.155 153.800 102.200 153.755 102.200 153.700 V 143.700 C 102.200 143.645 102.155 143.600 102.100 143.600 H 99.200 C 99.100 143.600 99.200 143.700 99.200 143.600 V 137.800 C 99.200 137.700 99.100 137.800 99.200 137.800 H 102.100 C 102.155 137.800 102.200 137.755 102.200 137.700 V 131.700 C 102.200 131.645 102.155 131.600 102.100 131.600 H 99.200 C 99.100 131.600 99.200 131.700 99.200 131.600 V 125.800 C 99.200 125.700 99.100 125.800 99.200 125.800 H 102.100 C 102.155 125.800 102.200 125.755 102.200 125.700 V 119.700 C 102.200 119.645 102.155 119.600 102.100 119.600 H 99.200 C 99.100 119.600 99.200 119.700 99.200 119.600 V 113.800 C 99.200 113.700 99.100 113.800 99.200 113.800 H 102.100 C 102.155 113.800 102.200 113.755 102.200 113.700 V 103.700 C 102.200 103.645 102.155 103.600 102.100 103.600 H 99.100 H 89.100 H 86.100 H 66.100 H 63.100 H 13.100 H 10.100 C 10.045 103.600 10.000 103.645 10.000 103.700 V 113.700 C 10.000 113.755 10.045 113.800 10.100 113.800 H 13.000 C 13.100 113.800 13.000 113.700 13.000 113.800 V 119.600 C 13.000 119.700 13.100 119.600 13.000 119.600 H 10.100 C 10.045 119.600 10.000 119.645 10.000 119.700 V 125.700 C 10.000 125.755 10.045 125.800 10.100 125.800 H 13.000 C 13.100 125.800 13.000 125.700 13.000 125.800 V 131.600 C 13.000 131.700 13.100 131.600 13.000 131.600 H 10.100 C 10.045 131.600 10.000 131.645 10.000 131.700 V 137.700 C 10.000 137.755 10.045 137.800 10.100 137.800 H 13.000 C 13.100 137.800 13.000 137.700 13.000 137.800 V 143.600 C 13.000 143.700 13.100 143.600 13.000 143.600 H 10.100 C 10.045 143.600 10.000 143.645 10.000 143.700 V 153.700 C 10.000 153.755 10.045 153.800 10.100 153.800 H 13.100 Z" stroke="rgb(0,0,0)" stroke-width="0.20" />
  <path d="M 66.000 140.700 V 143.600 C 66.000 143.700 66.100 143.600 66.000 143.600 H 63.200 C 63.100 143.600 63.200 143.700 63.200 143.600 V 137.800 C 63.200 137.700 63.100 137.800 63.200 137.800 H 66.000 C 66.100 137.800 66.000 137.700 66.000 137.800 V 140.700 Z" stroke="rgb(0,0,255)" stroke-width="0.20" />
  <path d="M 66.000 128.700 V 131.600 C 66.000 131.700 66.100 131.600 66.000 131.600 H 63.200 C 63.100 131.600 63.200 131.700 63.200 131.600 V 125.800 C 63.200 125.700 63.100 125.800 63.200 125.800 H 66.000 C 66.100 125.800 66.000 125.700 66.000 125.800 V 128.700 Z" stroke="rgb(0,0,255)" stroke-width="0.20" />
  <path d="M 66.000 116.700 V 119.600 C 66.000 119.700 66.100 119.600 66.000 119.600 H 63.200 C 63.100 119.600 63.200 119.700 63.200 119.600 V 113.800 C 63.200 113.700 63.100 113.800 63.200 113.800 H 66.000 C 66.100 113.800 66.000 113.700 66.000 113.800 V 116.700 Z" stroke="rgb(0,0,255)" stroke-width="0.20" />
  <path d="M 89.000 140.700 V 143.600 C 89.000 143.700 89.100 143.600 89.000 143.600 H 86.200 C 86.100 143.600 86.200 143.700 86.200 143.600 V 137.800 C 86.200 137.700 86.100 137.800 86.200 137.800 H 89.000 C 89.100 137.800 89.000 137.700 89.000 137.800 V 140.700 Z" stroke="rgb(0,0,255)" stroke-width="0.20" />
  <path d="M 89.000 128.700 V 131.600 C 89.000 131.700 89.100 131.600 89.000 131.600 H 86.200 C 86.100 131.600 86.200 131.700 86.200 131.600 V 125.800 C 86.200 125.700 86.100 125.800 86.200 125.800 H 89.000 C 89.100 125.800 89.000 125.700 89.000 125.800 V 128.700 Z" stroke="rgb(0,0,255)" stroke-width="0.20" />
  <path d="M 89.000 116.700 V 119.600 C 89.000 119.700 89.100 119.600 89.000 119.600 H 86.200 C 86.100 119.600 86.200 119.700 86.200 119.600 V 113.800 C 86.200 113.700 86.100 113.800 86.200 113.800 H 89.000 C 89.100 113.800 89.000 113.700 89.000 113.800 V 116.700 Z" stroke="rgb(0,0,255)" stroke-width="0.20" />
</g>
<g id="p-6" style="fill:none;stroke-linecap:round;stroke-linejoin:round;">
  <text dominant-baseline="hanging" font-size="6.0px" style="font-family: sans-serif ; font-weight: normal; font-style: normal; fill: rgb(255,0,0)" text-anchor="middle" transform="matrix( 1.000 0.000 0.000 1.000 131.800 147.700 )">y 3/1</text>
  <path d="M 106.800 153.800 H 116.700 C 116.800 153.800 116.700 153.700 116.700 153.800 V 156.700 C 116.700 156.755 116.745 156.800 116.800 156.800 H 122.800 C 122.855 156.800 122.900 156.755 122.900 156.700 V 153.800 C 122.900 153.700 122.800 153.800 122.900 153.800 H 128.700 C 128.800 153.800 128.700 153.700 128.700 153.800 V 156.700 C 128.700 156.755 128.745 156.800 128.800 156.800 H 134.800 C 134.855 156.800 134.900 156.755 134.900 156.700 V 153.800 C 134.900 153.700 134.800 153.800 134.900 153.800 H 140.700 C 140.800 153.800 140.700 153.700 140.700 153.800 V 156.700 C 140.700 156.755 140.745 156.800 140.800 156.800 H 146.800 C 146.855 156.800 146.900 156.755 146.900 156.700 V 153.800 C 146.900 153.700 146.800 153.800 146.900 153.800 H 156.800 C 156.855 153.800 156.900 153.755 156.900 153.700 V 143.800 C 156.900 143.700 156.800 143.800 156.900 143.800 H 159.800 C 159.855 143.800 159.900 143.755 159.900 143.700 V 137.700 C 159.900 137.645 159.855 137.600 159.800 137.600 H 156.900 C 156.800 137.600 156.900 137.700 156.900 137.600 V 131.800 C 156.900 131.700 156.800 131.800 156.900 131.800 H 159.800 C 159.855 131.800 159.900 131.755 159.900 131.700 V 125.700 C 159.900 125.645 159.855 125.600 159.800 125.600 H 156.900 C 156.800 125.600 156.900 125.700 156.900 125.600 V 119.800 C 156.900 119.700 156.800 119.800 156.900 119.800 H 159.800 C 159.855 119.800 159.900 119.755 159.900 119.700 V 113.700 C 159.900 113.645 159.855 113.600 159.800 113.600 H 156.900 C 156.800 113.600 156.900 113.700 156.900 113.600 V 103.700 C 156.900 103.645 156.855 103.600 156.800 103.600 H 106.800 C 106.745 103.600 106.700 103.645 106.700 103.700 V 113.600 C 106.700 113.700 106.800 113.600 106.700 113.600 H 103.800 C 103.745 113.600 103.700 113.645 103.700 113.700 V 119.700 C 103.700 119.755 103.745 119.800 103.800 119.800 H 106.700 C 106.800 119.800 106.700 119.700 106.700 119.800 V 125.600 C 106.700 125.700 106.800 125.600 106.700 125.600 H 103.800 C 103.745 125.600 103.700 125.645 103.700 125.700 V 131.700 C 103.700 131.755 103.745 131.800 103.800 131.800 H 106.700 C 106.800 131.800 106.700 131.700 106.700 131.800 V 137.600 C 106.700 137.700 106.800 137.600 106.700 137.600 H 103.800 C 103.745 137.600 103.700 137.645 103.700 137.700 V 143.700 C 103.700 143.755 103.745 143.800 103.800 143.800 H 106.700 C 106.800 143.800 106.700 143.700 106.700 143.800 V 153.700 C 106.700 153.755 106.745 153.800 106.800 153.800 Z" stroke="rgb(0,0,0)" stroke-width="0.20" />
</g>
<g id="p-7" style="fill:none;stroke-linecap:round;stroke-linejoin:round;">
  <text dominant-baseline="hanging" font-size="6.0px" style="font-family: sans-serif ; font-weight: normal; font-style: normal; fill: rgb(255,0,0)" text-anchor="middle" transform="matrix( 1.000 0.000 0.000 1.000 174.500 147.700 )">y 4/2</text>
  <path d="M 164.500 153.800 H 171.400 C 171.500 153.800 171.400 153.700 171.400 153.800 V 156.700 C 171.400 156.755 171.445 156.800 171.500 156.800 H 177.500 C 177.555 156.800 177.600 156.755 177.600 156.700 V 153.800 C 177.600 153.700 177.500 153.800 177.600 153.800 H 184.500 C 184.555 153.800 184.600 153.755 184.600 153.700 V 143.800 C 184.600 143.700 184.500 143.800 184.600 143.800 H 187.500 C 187.555 143.800 187.600 143.755 187.600 143.700 V 137.700 C 187.600 137.645 187.555 137.600 187.500 137.600 H 184.600 C 184.500 137.600 184.600 137.700 184.600 137.600 V 131.800 C 184.600 131.700 184.500 131.800 184.600 131.800 H 187.500 C 187.555 131.800 187.600 131.755 187.600 131.700 V 125.700 C 187.600 125.645 187.555 125.600 187.500 125.600 H 184.600 C 184.500 125.600 184.600 125.700 184.600 125.600 V 119.800 C 184.600 119.700 184.500 119.800 184.600 119.800 H 187.500 C 187.555 119.800 187.600 119.755 187.600 119.700 V 113.700 C 187.600 113.645 187.555 113.600 187.500 113.600 H 184.600 C 184.500 113.600 184.600 113.700 184.600 113.600 V 103.700 C 184.600 103.645 184.555 103.600 184.500 103.600 H 164.500 C 164.445 103.600 164.400 103.645 164.400 103.700 V 113.600 C 164.400 113.700 164.500 113.600 164.400 113.600 H 161.500 C 161.445 113.600 161.400 113.645 161.400 113.700 V 119.700 C 161.400 119.755 161.445 119.800 161.500 119.800 H 164.400 C 164.500 119.800 164.400 119.700 164.400 119.800 V 125.600 C 164.400 125.700 164.500 125.600 164.400 125.600 H 161.500 C 161.445 125.600 161.400 125.645 161.400 125.700 V 131.700 C 161.400 131.755 161.445 131.800 161.500 131.800 H 164.400 C 164.500 131.800 164.400 131.700 164.400 131.800 V 137.600 C 164.400 137.700 164.500 137.600 164.400 137.600 H 161.500 C 161.445 137.600 161.400 137.645 161.400 137.700 V 143.700 C 161.400 143.755 161.445 143.800 161.500 143.800 H 164.400 C 164.500 143.800 164.400 143.700 164.400 143.800 V 153.700 C 164.400 153.755 164.445 153.800 164.500 153.800 Z" stroke="rgb(0,0,0)" stroke-width="0.20" />
</g>
<g id="p-8" style="fill:none;stroke-linecap:round;stroke-linejoin:round;">
  <text dominant-baseline="hanging" font-size="6.0px" style="font-family: sans-serif ; font-weight: normal; font-style: normal; fill: rgb(255,0,0)" text-anchor="middle" transform="matrix( 1.000 0.000 0.000 1.000 217.200 147.700 )">y 5/1</text>
  <path d="M 192.200 153.800 H 202.100 C 202.200 153.800 202.100 153.700 202.100 153.800 V 156.700 C 202.100 156.755 202.145 156.800 202.200 156.800 H 208.200 C 208.255 156.800 208.300 156.755 208.300 156.700 V 153.800 C 208.300 153.700 208.200 153.800 208.300 153.800 H 214.100 C 214.200 153.800 214.100 153.700 214.100 153.800 V 156.700 C 214.100 156.755 214.145 156.800 214.200 156.800 H 220.200 C 220.255 156.800 220.300 156.755 220.300 156.700 V 153.800 C 220.300 153.700 220.200 153.800 220.300 153.800 H 226.100 C 226.200 153.800 226.100 153.700 226.100 153.800 V 156.700 C 226.100 156.755 226.145 156.800 226.200 156.800 H 232.200 C 232.255 156.800 232.300 156.755 232.300 156.700 V 153.800 C 232.300 153.700 232.200 153.800 232.300 153.800 H 242.200 C 242.255 153.800 242.300 153.755 242.300 153.700 V 143.800 C 242.300 143.700 242.200 143.800 242.300 143.800 H 245.200 C 245.255 143.800 245.300 143.755 245.300 143.700 V 137.700 C 245.300 137.645 245.255 137.600 245.200 137.600 H 242.300 C 242.200 137.600 242.300 137.700 242.300 137.600 V 131.800 C 242.300 131.700 242.200 131.800 242.300 131.800 H 245.200 C 245.255 131.800 245.300 131.755 245.300 131.700 V 125.700 C 245.300 125.645 245.255 125.600 245.200 125.600 H 242.300 C 242.200 125.600 242.300 125.700 242.300 125.600 V 119.800 C 242.300 119.700 242.200 119.800 242.300 119.800 H 245.200 C 245.255 119.800 245.300 119.755 245.300 119.700 V 113.700 C 245.300 113.645 245.255 113.600 245.200 113.600 H 242.300 C 242.200 113.600 242.300 113.700 242.300 113.600 V 103.700 C 242.300 103.645 242.255 103.600 242.200 103.600 H 192.200 C 192.145 103.600 192.100 103.645 192.100 103.700 V 113.600 C 192.100 113.700 192.200 113.600 192.100 113.600 H 189.200 C 189.145 113.600 189.100 113.645 189.100 113.700 V 119.700 C 189.100 119.755 189.145 119.800 189.200 119.800 H 192.100 C 192.200 119.800 192.100 119.700 192.100 119.800 V 125.600 C 192.100 125.700 192.200 125.600 192.100 125.600 H 189.200 C 189.145 125.600 189.100 125.645 189.100 125.700 V 131.700 C 189.100 131.755 189.145 131.800 189.200 131.800 H 192.100 C 192.200 131.800 192.100 131.700 192.100 131.800 V 137.600 C 192.100 137.700 192.200 137.600 192.100 137.600 H 189.200 C 189.145 137.600 189.100 137.645 189.100 137.700 V 143.700 C 189.100 143.755 189.145 143.800 189.200 143.800 H 192.100 C 192.200 143.800 192.100 143.700 192.100 143.800 V 153.700 C 192.100 153.755 192.145 153.800 192.200 153.800 Z" stroke="rgb(0,0,0)" stroke-width="0.20" />
</g>
<g id="p-9" style="fill:none;stroke-linecap:round;stroke-linejoin:round;">
  <text dominant-baseline="hanging" font-size="6.0px" style="font-family: sans-serif ; font-weight: normal; font-style: normal; fill: rgb(255,0,0)" text-anchor="middle" transform="matrix( 1.000 0.000 0.000 1.000 274.900 147.700 )">y 7/1</text>
  <text dominant-baseline="hanging" font-size="6.0px" style="font-family: sans-serif ; font-weight: normal; font-style: normal; fill: rgb(255,0,0)" text-anchor="middle" transform="matrix( 1.000 0.000 0.000 1.000 312.900 147.700 )">y 7/2</text>
  <text dominant-baseline="hanging" font-size="6.0px" style="font-family: sans-serif ; font-weight: normal; font-style: normal; fill: rgb(255,0,0)" text-anchor="middle" transform="matrix( 1.000 0.000 0.000 1.000 330.900 147.700 )">y 7/3</text>
  <path d="M 249.900 153.800 H 259.800 C 259.900 153.800 259.800 153.700 259.800 153.800 V 156.700 C 259.800 156.755 259.845 156.800 259.900 156.800 H 265.900 C 265.955 156.800 266.000 156.755 266.000 156.700 V 153.800 C 266.000 153.700 265.900 153.800 266.000 153.800 H 271.800 C 271.900 153.800 271.800 153.700 271.800 153.800 V 156.700 C 271.800 156.755 271.845 156.800 271.900 156.800 H 277.900 C 277.955 156.800 278.000 156.755 278.000 156.700 V 153.800 C 278.000 153.700 277.900 153.800 278.000 153.800 H 283.800 C 283.900 153.800 283.800 153.700 283.800 153.800 V 156.700 C 283.800 156.755 283.845 156.800 283.900 156.800 H 289.900 C 289.955 156.800 290.000 156.755 290.000 156.700 V 153.800 C 290.000 153.700 289.900 153.800 290.000 153.800 H 299.900 H 302.900 H 309.800 C 309.900 153.800 309.800 153.700 309.800 153.800 V 156.700 C 309.800 156.755 309.845 156.800 309.900 156.800 H 315.900 C 315.955 156.800 316.000 156.755 316.000 156.700 V 153.800 C 316.000 153.700 315.900 153.800 316.000 153.800 H 322.900 H 325.900 H 327.800 C 327.900 153.800 327.800 153.700 327.800 153.800 V 156.700 C 327.800 156.755 327.845 156.800 327.900 156.800 H 333.900 C 333.955 156.800 334.000 156.755 334.000 156.700 V 153.800 C 334.000 153.700 333.900 153.800 334.000 153.800 H 335.900 H 338.900 C 338.955 153.800 339.000 153.755 339.000 153.700 V 143.700 C 339.000 143.645 338.955 143.600 338.900 143.600 H 336.000 C 335.900 143.600 336.000 143.700 336.000 143.600 V 137.800 C 336.000 137.700 335.900 137.800 336.000 137.800 H 338.900 C 338.955 137.800 339.000 137.755 339.000 137.700 V 131.700 C 339.000 131.645 338.955 131.600 338.900 131.600 H 336.000 C 335.900 131.600 336.000 131.700 336.000 131.600 V 125.800 C 336.000 125.700 335.900 125.800 336.000 125.800 H 338.900 C 338.955 125.800 339.000 125.755 339.000 125.700 V 119.700 C 339.000 119.645 338.955 119.600 338.900 119.600 H 336.000 C 335.900 119.600 336.000 119.700 336.000 119.600 V 113.800 C 336.000 113.700 335.900 113.800 336.000 113.800 H 338.900 C 338.955 113.800 339.000 113.755 339.000 113.700 V 103.700 C 339.000 103.645 338.955 103.600 338.900 103.600 H 335.900 H 325.900 H 322.900 H 302.900 H 299.900 H 249.900 H 246.900 C 246.845 103.600 246.800 103.645 246.800 103.700 V 113.700 C 246.800 113.755 246.845 113.800 246.900 113.800 H 249.800 C 249.900 113.800 249.800 113.700 249.800 113.800 V 119.600 C 249.800 119.700 249.900 119.600 249.800 119.600 H 246.900 C 246.845 119.600 246.800 119.645 246.800 119.700 V 125.700 C 246.800 125.755 246.845 125.800 246.900 125.800 H 249.800 C 249.900 125.800 249.800 125.700 249.800 125.800 V 131.600 C 249.800 131.700 249.900 131.600 249.800 131.600 H 246.900 C 246.845 131.600 246.800 131.645 246.800 131.700 V 137.700 C 246.800 137.755 246.845 137.800 246.900 137.800 H 249.800 C 249.900 137.800 249.800 137.700 249.800 137.800 V 143.600 C 249.800 143.700 249.900 143.600 249.800 143.600 H 246.900 C 246.845 143.600 246.800 143.645 246.800 143.700 V 153.700 C 246.800 153.755 246.845 153.800 246.900 153.800 H 249.900 Z" stroke="rgb(0,0,0)" stroke-width="0.20" />
  <path d="M 302.800 140.700 V 143.600 C 302.800 143.700 302.900 143.600 302.800 143.600 H 300.000 C 299.900 143.600 300.000 143.700 300.000 143.600 V 137.800 C 300.000 137.700 299.900 137.800 300.000 137.800 H 302.800 C 302.900 137.800 302.800 137.700 302.800 137.800 V 140.700 Z" stroke="rgb(0,0,255)" stroke-width="0.20" />
  <path d="M 302.800 128.700 V 131.600 C 302.800 131.700 302.900 131.600 302.800 131.600 H 300.000 C 299.900 131.600 300.000 131.700 300.000 131.600 V 125.800 C 300.000 125.700 299.900 125.800 300.000 125.800 H 302.800 C 302.900 125.800 302.800 125.700 302.800 125.800 V 128.700 Z" stroke="rgb(0,0,255)" stroke-width="0.20" />
  <path d="M 302.800 116.700 V 119.600 C 302.800 119.700 302.900 119.600 302.800 119.600 H 300.000 C 299.900 119.600 300.000 119.700 300.000 119.600 V 113.800 C 300.000 113.700 299.900 113.800 300.000 113.800 H 302.800 C 302.900 113.800 302.800 113.700 302.800 113.800 V 116.700 Z" stroke="rgb(0,0,255)" stroke-width="0.20" />
  <path d="M 325.800 140.700 V 143.600 C 325.800 143.700 325.900 143.600 325.800 143.600 H 323.000 C 322.900 143.600 323.000 143.700 323.000 143.600 V 137.800 C 323.000 137.700 322.900 137.800 323.000 137.800 H 325.800 C 325.900 137.800 325.800 137.700 325.800 137.800 V 140.700 Z" stroke="rgb(0,0,255)" stroke-width="0.20" />
  <path d="M 325.800 128.700 V 131.600 C 325.800 131.700 325.900 131.600 325.800 131.600 H 323.000 C 322.900 131.600 323.000 131.700 323.000 131.600 V 125.800 C 323.000 125.700 322.900 125.800 323.000 125.800 H 325.800 C 325.900 125.800 325.800 125.700 325.800 125.800 V 128.700 Z" stroke="rgb(0,0,255)" stroke-width="0.20" />
  <path d="M 325.800 116.700 V 119.600 C 325.800 119.700 325.900 119.600 325.800 119.600 H 323.000 C 322.900 119.600 323.000 119.700 323.000 119.600 V 113.800 C 323.000 113.700 322.900 113.800 323.000 113.800 H 325.800 C 325.900 113.800 325.800 113.700 325.800 113.800 V 116.700 Z" stroke="rgb(0,0,255)" stroke-width="0.20" />
</g>
<g id="p-10" style="fill:none;stroke-linecap:round;stroke-linejoin:round;">
  <text dominant-baseline="hanging" font-size="6.0px" style="font-family: sans-serif ; font-weight: normal; font-style: normal; fill: rgb(255,0,0)" text-anchor="middle" transform="matrix( 1.000 0.000 0.000 1.000 30.600 93.100 )">x 1/4</text>
  <text dominant-baseline="hanging" font-size="6.0px" style="font-family: sans-serif ; font-weight: normal; font-style: normal; fill: rgb(255,0,0)" text-anchor="middle" transform="matrix( 1.000 0.000 0.000 1.000 68.600 93.100 )">x 2/4</text>
  <text dominant-baseline="hanging" font-size="6.0px" style="font-family: sans-serif ; font-weight: normal; font-style: normal; fill: rgb(255,0,0)" text-anchor="middle" transform="matrix( 1.000 0.000 0.000 1.000 106.600 93.100 )">x 3/4</text>
  <text dominant-baseline="hanging" font-size="6.0px" style="font-family: sans-serif ; font-weight: normal; font-style: normal; fill: rgb(255,0,0)" text-anchor="middle" transform="matrix( 1.000 0.000 0.000 1.000 144.600 93.100 )">x 4/4</text>
  <text dominant-baseline="hanging" font-size="6.0px" style="font-family: sans-serif ; font-weight: normal; font-style: normal; fill: rgb(255,0,0)" text-anchor="middle" transform="matrix( 1.000 0.000 0.000 1.000 182.600 93.100 )">x 5/4</text>
  <text dominant-baseline="hanging" font-size="6.0px" style="font-family: sans-serif ; font-weight: normal; font-style: normal; fill: rgb(255,0,0)" text-anchor="middle" transform="matrix( 1.000 0.000 0.000 1.000 220.600 93.100 )">x 6/4</text>
  <text dominant-baseline="hanging" font-size="6.0px" style="font-family: sans-serif ; font-weight: normal; font-style: normal; fill: rgb(255,0,0)" text-anchor="middle" transform="matrix( 1.000 0.000 0.000 1.000 30.600 80.100 )">x 1/3</text>
  <path d="M 13.100 102.200 H 21.600 C 21.655 102.200 21.700 102.155 21.700 102.100 V 99.200 C 21.700 99.100 21.600 99.200 21.700 99.200 H 27.500 C 27.600 99.200 27.500 99.100 27.500 99.200 V 102.100 C 27.500 102.155 27.545 102.200 27.600 102.200 H 33.600 C 33.655 102.200 33.700 102.155 33.700 102.100 V 99.200 C 33.700 99.100 33.600 99.200 33.700 99.200 H 39.500 C 39.600 99.200 39.500 99.100 39.500 99.200 V 102.100 C 39.500 102.155 39.545 102.200 39.600 102.200 H 48.100 M 10.000 99.100 V 102.100 C 10.000 102.155 10.045 102.200 10.100 102.200 H 13.100 M 51.100 102.200 H 59.600 C 59.655 102.200 59.700 102.155 59.700 102.100 V 99.200 C 59.700 99.100 59.600 99.200 59.700 99.200 H 65.500 C 65.600 99.200 65.500 99.100 65.500 99.200 V 102.100 C 65.500 102.155 65.545 102.200 65.600 102.200 H 71.600 C 71.655 102.200 71.700 102.155 71.700 102.100 V 99.200 C 71.700 99.100 71.600 99.200 71.700 99.200 H 77.500 C 77.600 99.200 77.500 99.100 77.500 99.200 V 102.100 C 77.500 102.155 77.545 102.200 77.600 102.200 H 86.100 M 48.100 102.200 H 51.100 M 89.100 102.200 H 97.600 C 97.655 102.200 97.700 102.155 97.700 102.100 V 99.200 C 97.700 99.100 97.600 99.200 97.700 99.200 H 103.500 C 103.600 99.200 103.500 99.100 103.500 99.200 V 102.100 C 103.500 102.155 103.545 102.200 103.600 102.200 H 109.600 C 109.655 102.200 109.700 102.155 109.700 102.100 V 99.200 C 109.700 99.100 109.600 99.200 109.700 99.200 H 115.500 C 115.600 99.200 115.500 99.100 115.500 99.200 V 102.100 C 115.500 102.155 115.545 102.200 115.600 102.200 H 124.100 M 86.100 102.200 H 89.100 M 127.100 102.200 H 135.600 C 135.655 102.200 135.700 102.155 135.700 102.100 V 99.200 C 135.700 99.100 135.600 99.200 135.700 99.200 H 141.500 C 141.600 99.200 141.500 99.100 141.500 99.200 V 102.100 C 141.500 102.155 141.545 102.200 141.600 102.200 H 147.600 C 147.655 102.200 147.700 102.155 147.700 102.100 V 99.200 C 147.700 99.100 147.600 99.200 147.700 99.200 H 153.500 C 153.600 99.200 153.500 99.100 153.500 99.200 V 102.100 C 153.500 102.155 153.545 102.200 153.600 102.200 H 162.100 M 124.100 102.200 H 127.100 M 165.100 102.200 H 173.600 C 173.655 102.200 173.700 102.155 173.700 102.100 V 99.200 C 173.700 99.100 173.600 99.200 173.700 99.200 H 179.500 C 179.600 99.200 179.500 99.100 179.500 99.200 V 102.100 C 179.500 102.155 179.545 102.200 179.600 102.200 H 185.600 C 185.655 102.200 185.700 102.155 185.700 102.100 V 99.200 C 185.700 99.100 185.600 99.200 185.700 99.200 H 191.500 C 191.600 99.200 191.500 99.100 191.500 99.200 V 102.100 C 191.500 102.155 191.545 102.200 191.600 102.200 H 200.100 M 162.100 102.200 H 165.100 M 203.100 102.200 H 211.600 C 211.655 102.200 211.700 102.155 211.700 102.100 V 99.200 C 211.700 99.100 211.600 99.200 211.700 99.200 H 217.500 C 217.600 99.200 217.500 99.100 217.500 99.200 V 102.100 C 217.500 102.155 217.545 102.200 217.600 102.200 H 223.600 C 223.655 102.200 223.700 102.155 223.700 102.100 V 99.200 C 223.700 99.100 223.600 99.200 223.700 99.200 H 229.500 C 229.600 99.200 229.500 99.100 229.500 99.200 V 102.100 C 229.500 102.155 229.545 102.200 229.600 102.200 H 238.100 H 241.100 C 241.155 102.200 241.200 102.155 241.200 102.100 V 99.100 M 200.100 102.200 H 203.100" stroke="rgb(0,0,0)" stroke-width="0.20" />
  <path d="M 24.600 89.000 H 21.700 C 21.600 89.000 21.700 89.100 21.700 89.000 V 86.200 C 21.700 86.100 21.600 86.200 21.700 86.200 H 27.500 C 27.600 86.200 27.500 86.100 27.500 86.200 V 89.000 C 27.500 89.100 27.600 89.000 27.500 89.000 H 24.600 Z" stroke="rgb(0,0,255)" stroke-width="0.20" />
  <path d="M 36.600 89.000 H 33.700 C 33.600 89.000 33.700 89.100 33.700 89.000 V 86.200 C 33.700 86.100 33.600 86.200 33.700 86.200 H 39.500 C 39.600 86.200 39.500 86.100 39.500 86.200 V 89.000 C 39.500 89.100 39.600 89.000 39.500 89.000 H 36.600 Z" stroke="rgb(0,0,255)" stroke-width="0.20" />
  <text dominant-baseline="hanging" font-size="6.0px" style="font-family: sans-serif ; font-weight: normal; font-style: normal; fill: rgb(255,0,0)" text-anchor="middle" transform="matrix( 1.000 0.000 0.000 1.000 68.600 80.100 )">x 2/3</text>
  <path d="M 62.600 89.000 H 59.700 C 59.600 89.000 59.700 89.100 59.700 89.000 V 86.200 C 59.700 86.100 59.600 86.200 59.700 86.200 H 65.500 C 65.600 86.200 65.500 86.100 65.500 86.200 V 89.000 C 65.500 89.100 65.600 89.000 65.500 89.000 H 62.600 Z" stroke="rgb(0,0,255)" stroke-width="0.20" />
  <path d="M 74.600 89.000 H 71.700 C 71.600 89.000 71.700 89.100 71.700 89.000 V 86.200 C 71.700 86.100 71.600 86.200 71.700 86.200 H 77.500 C 77.600 86.200 77.500 86.100 77.500 86.200 V 89.000 C 77.500 89.100 77.600 89.000 77.500 89.000 H 74.600 Z" stroke="rgb(0,0,255)" stroke-width="0.20" />
  <text dominant-baseline="hanging" font-size="6.0px" style="font-family: sans-serif ; font-weight: normal; font-style: normal; fill: rgb(255,0,0)" text-anchor="middle" transform="matrix( 1.000 0.000 0.000 1.000 106.600 80.100 )">x 3/3</text>
  <path d="M 100.600 89.000 H 97.700 C 97.600 89.000 97.700 89.100 97.700 89.000 V 86.200 C 97.700 86.100 97.600 86.200 97.700 86.200 H 103.500 C 103.600 86.200 103.500 86.100 103.500 86.200 V 89.000 C 103.500 89.100 103.600 89.000 103.500 89.000 H 100.600 Z" stroke="rgb(0,0,255)" stroke-width="0.20" />
  <path d="M 112.600 89.000 H 109.700 C 109.600 89.000 109.700 89.100 109.700 89.000 V 86.200 C 109.700 86.100 109.600 86.200 109.700 86.200 H 115.500 C 115.600 86.200 115.500 86.100 115.500 86.200 V 89.000 C 115.500 89.100 115.600 89.000 115.500 89.000 H 112.600 Z" stroke="rgb(0,0,255)" stroke-width="0.20" />
  <text dominant-baseline="hanging" font-size="6.0px" style="font-family: sans-serif ; font-weight: normal; font-style: normal; fill: rgb(255,0,0)" text-anchor="middle" transform="matrix( 1.000 0.000 0.000 1.000 144.600 80.100 )">x 4/3</text>
  <path d="M 138.600 89.000 H 135.700 C 135.600 89.000 135.700 89.100 135.700 89.000 V 86.200 C 135.700 86.100 135.600 86.200 135.700 86.200 H 141.500 C 141.600 86.200 141.500 86.100 141.500 86.200 V 89.000 C 141.500 89.100 141.600 89.000 141.500 89.000 H 138.600 Z" stroke="rgb(0,0,255)" stroke-width="0.20" />
  <path d="M 150.600 89.000 H 147.700 C 147.600 89.000 147.700 89.100 147.700 89.000 V 86.200 C 147.700 86.100 147.600 86.200 147.700 86.200 H 153.500 C 153.600 86.200 153.500 86.100 153.500 86.200 V 89.000 C 153.500 89.100 153.600 89.000 153.500 89.000 H 150.600 Z" stroke="rgb(0,0,255)" stroke-width="0.20" />
  <text dominant-baseline="hanging" font-size="6.0px" style="font-family: sans-serif ; font-weight: normal; font-style: normal; fill: rgb(255,0,0)" text-anchor="middle" transform="matrix( 1.000 0.000 0.000 1.000 182.600 80.100 )">x 5/3</text>
  <path d="M 176.600 89.000 H 173.700 C 173.600 89.000 173.700 89.100 173.700 89.000 V 86.200 C 173.700 86.100 173.600 86.200 173.700 86.200 H 179.500 C 179.600 86.200 179.500 86.100 179.500 86.200 V 89.000 C 179.500 89.100 179.600 89.000 179.500 89.000 H 176.600 Z" stroke="rgb(0,0,255)" stroke-width="0.20" />
  <path d="M 188.600 89.000 H 185.700 C 185.600 89.000 185.700 89.100 185.700 89.000 V 86.200 C 185.700 86.100 185.600 86.200 185.700 86.200 H 191.500 C 191.600 86.200 191.500 86.100 191.500 86.200 V 89.000 C 191.500 89.100 191.600 89.000 191.500 89.000 H 188.600 Z" stroke="rgb(0,0,255)" stroke-width="0.20" />
  <text dominant-baseline="hanging" font-size="6.0px" style="font-family: sans-serif ; font-weight: normal; font-style: normal; fill: rgb(255,0,0)" text-anchor="middle" transform="matrix( 1.000 0.000 0.000 1.000 220.600 80.100 )">x 6/3</text>
  <path d="M 214.600 89.000 H 211.700 C 211.600 89.000 211.700 89.100 211.700 89.000 V 86.200 C 211.700 86.100 211.600 86.200 211.700 86.200 H 217.500 C 217.600 86.200 217.500 86.100 217.500 86.200 V 89.000 C 217.500 89.100 217.600 89.000 217.500 89.000 H 214.600 Z" stroke="rgb(0,0,255)" stroke-width="0.20" />
  <path d="M 226.600 89.000 H 223.700 C 223.600 89.000 223.700 89.100 223.700 89.000 V 86.200 C 223.700 86.100 223.600 86.200 223.700 86.200 H 229.500 C 229.600 86.200 229.500 86.100 229.500 86.200 V 89.000 C 229.500 89.100 229.600 89.000 229.500 89.000 H 226.600 Z" stroke="rgb(0,0,255)" stroke-width="0.20" />
  <text dominant-baseline="hanging" font-size="6.0px" style="font-family: sans-serif ; font-weight: normal; font-style: normal; fill: rgb(255,0,0)" text-anchor="middle" transform="matrix( 1.000 0.000 0.000 1.000 30.600 57.100 )">x 1/2</text>
  <path d="M 24.600 66.000 H 21.700 C 21.600 66.000 21.700 66.100 21.700 66.000 V 63.200 C 21.700 63.100 21.600 63.200 21.700 63.200 H 27.500 C 27.600 63.200 27.500 63.100 27.500 63.200 V 66.000 C 27.500 66.100 27.600 66.000 27.500 66.000 H 24.600 Z" stroke="rgb(0,0,255)" stroke-width="0.20" />
  <path d="M 36.600 66.000 H 33.700 C 33.600 66.000 33.700 66.100 33.700 66.000 V 63.200 C 33.700 63.100 33.600 63.200 33.700 63.200 H 39.500 C 39.600 63.200 39.500 63.100 39.500 63.200 V 66.000 C 39.500 66.100 39.600 66.000 39.500 66.000 H 36.600 Z" stroke="rgb(0,0,255)" stroke-width="0.20" />
  <text dominant-baseline="hanging" font-size="6.0px" style="font-family: sans-serif ; font-weight: normal; font-style: normal; fill: rgb(255,0,0)" text-anchor="middle" transform="matrix( 1.000 0.000 0.000 1.000 68.600 57.100 )">x 2/2</text>
  <path d="M 62.600 66.000 H 59.700 C 59.600 66.000 59.700 66.100 59.700 66.000 V 63.200 C 59.700 63.100 59.600 63.200 59.700 63.200 H 65.500 C 65.600 63.200 65.500 63.100 65.500 63.200 V 66.000 C 65.500 66.100 65.600 66.000 65.500 66.000 H 62.600 Z" stroke="rgb(0,0,255)" stroke-width="0.20" />
  <path d="M 74.600 66.000 H 71.700 C 71.600 66.000 71.700 66.100 71.700 66.000 V 63.200 C 71.700 63.100 71.600 63.200 71.700 63.200 H 77.500 C 77.600 63.200 77.500 63.100 77.500 63.200 V 66.000 C 77.500 66.100 77.600 66.000 77.500 66.000 H 74.600 Z" stroke="rgb(0,0,255)" stroke-width="0.20" />
  <text dominant-baseline="hanging" font-size="6.0px" style="font-family: sans-serif ; font-weight: normal; font-style: normal; fill: rgb(255,0,0)" text-anchor="middle" transform="matrix( 1.000 0.000 0.000 1.000 106.600 57.100 )">x 3/2</text>
  <path d="M 100.600 66.000 H 97.700 C 97.600 66.000 97.700 66.100 97.700 66.000 V 63.200 C 97.700 63.100 97.600 63.200 97.700 63.200 H 103.500 C 103.600 63.200 103.500 63.100 103.500 63.200 V 66.000 C 103.500 66.100 103.600 66.000 103.500 66.000 H 100.600 Z" stroke="rgb(0,0,255)" stroke-width="0.20" />
  <path d="M 112.600 66.000 H 109.700 C 109.600 66.000 109.700 66.100 109.700 66.000 V 63.200 C 109.700 63.100 109.600 63.200 109.700 63.200 H 115.500 C 115.600 63.200 115.500 63.100 115.500 63.200 V 66.000 C 115.500 66.100 115.600 66.000 115.500 66.000 H 112.600 Z" stroke="rgb(0,0,255)" stroke-width="0.20" />
  <text dominant-baseline="hanging" font-size="6.0px" style="font-family: sans-serif ; font-weight: normal; font-style: normal; fill: rgb(255,0,0)" text-anchor="middle" transform="matrix( 1.000 0.000 0.000 1.000 144.600 57.100 )">x 4/2</text>
  <path d="M 138.600 66.000 H 135.700 C 135.600 66.000 135.700 66.100 135.700 66.000 V 63.200 C 135.700 63.100 135.600 63.200 135.700 63.200 H 141.500 C 141.600 63.200 141.500 63.100 141.500 63.200 V 66.000 C 141.500 66.100 141.600 66.000 141.500 66.000 H 138.600 Z" stroke="rgb(0,0,255)" stroke-width="0.20" />
  <path d="M 150.600 66.000 H 147.700 C 147.600 66.000 147.700 66.100 147.700 66.000 V 63.200 C 147.700 63.100 147.600 63.200 147.700 63.200 H 153.500 C 153.600 63.200 153.500 63.100 153.500 63.200 V 66.000 C 153.500 66.100 153.600 66.000 153.500 66.000 H 150.600 Z" stroke="rgb(0,0,255)" stroke-width="0.20" />
  <text dominant-baseline="hanging" font-size="6.0px" style="font-family: sans-serif ; font-weight: normal; font-style: normal; fill: rgb(255,0,0)" text-anchor="middle" transform="matrix( 1.000 0.000 0.000 1.000 182.600 57.100 )">x 5/2</text>
  <path d="M 176.600 66.000 H 173.700 C 173.600 66.000 173.700 66.100 173.700 66.000 V 63.200 C 173.700 63.100 173.600 63.200 173.700 63.200 H 179.500 C 179.600 63.200 179.500 63.100 179.500 63.200 V 66.000 C 179.500 66.100 179.600 66.000 179.500 66.000 H 176.600 Z" stroke="rgb(0,0,255)" stroke-width="0.20" />
  <path d="M 188.600 66.000 H 185.700 C 185.600 66.000 185.700 66.100 185.700 66.000 V 63.200 C 185.700 63.100 185.600 63.200 185.700 63.200 H 191.500 C 191.600 63.200 191.500 63.100 191.500 63.200 V 66.000 C 191.500 66.100 191.600 66.000 191.500 66.000 H 188.600 Z" stroke="rgb(0,0,255)" stroke-width="0.20" />
  <text dominant-baseline="hanging" font-size="6.0px" style="font-family: sans-serif ; font-weight: normal; font-style: normal; fill: rgb(255,0,0)" text-anchor="middle" transform="matrix( 1.000 0.000 0.000 1.000 220.600 57.100 )">x 6/2</text>
  <path d="M 214.600 66.000 H 211.700 C 211.600 66.000 211.700 66.100 211.700 66.000 V 63.200 C 211.700 63.100 211.600 63.200 211.700 63.200 H 217.500 C 217.600 63.200 217.500 63.100 217.500 63.200 V 66.000 C 217.500 66.100 217.600 66.000 217.500 66.000 H 214.600 Z" stroke="rgb(0,0,255)" stroke-width="0.20" />
  <path d="M 226.600 66.000 H 223.700 C 223.600 66.000 223.700 66.100 223.700 66.000 V 63.200 C 223.700 63.100 223.600 63.200 223.700 63.200 H 229.500 C 229.600 63.200 229.500 63.100 229.500 63.200 V 66.000 C 229.500 66.100 229.600 66.000 229.500 66.000 H 226.600 Z" stroke="rgb(0,0,255)" stroke-width="0.20" />
  <text dominant-baseline="hanging" font-size="6.0px" style="font-family: sans-serif ; font-weight: normal; font-style: normal; fill: rgb(255,0,0)" text-anchor="middle" transform="matrix( 1.000 0.000 0.000 1.000 30.600 13.100 )">x 1/1</text>
  <text dominant-baseline="hanging" font-size="6.0px" style="font-family: sans-serif ; font-weight: normal; font-style: normal; fill: rgb(255,0,0)" text-anchor="middle" transform="matrix( 1.000 0.000 0.000 1.000 68.600 13.100 )">x 2/1</text>
  <text dominant-baseline="hanging" font-size="6.0px" style="font-family: sans-serif ; font-weight: normal; font-style: normal; fill: rgb(255,0,0)" text-anchor="middle" transform="matrix( 1.000 0.000 0.000 1.000 106.600 13.100 )">x 3/1</text>
  <text dominant-baseline="hanging" font-size="6.0px" style="font-family: sans-serif ; font-weight: normal; font-style: normal; fill: rgb(255,0,0)" text-anchor="middle" transform="matrix( 1.000 0.000 0.000 1.000 144.600 13.100 )">x 4/1</text>
  <text dominant-baseline="hanging" font-size="6.0px" style="font-family: sans-serif ; font-weight: normal; font-style: normal; fill: rgb(255,0,0)" text-anchor="middle" transform="matrix( 1.000 0.000 0.000 1.000 182.600 13.100 )">x 5/1</text>
  <text dominant-baseline="hanging" font-size="6.0px" style="font-family: sans-serif ; font-weight: normal; font-style: normal; fill: rgb(255,0,0)" text-anchor="middle" transform="matrix( 1.000 0.000 0.000 1.000 220.600 13.100 )">x 6/1</text>
  <text dominant-baseline="hanging" font-size="6.0px" style="font-family: sans-serif ; font-weight: normal; font-style: normal; fill: rgb(255,0,0)" text-anchor="middle" transform="matrix( 0.000 1.000 -1.000 0.000 19.100 94.100 )">y 1/3</text>
  <text dominant-baseline="hanging" font-size="6.0px" style="font-family: sans-serif ; font-weight: normal; font-style: normal; fill: rgb(255,0,0)" text-anchor="middle" transform="matrix( 0.000 1.000 -1.000 0.000 19.100 76.100 )">y 1/2</text>
  <text dominant-baseline="hanging" font-size="6.0px" style="font-family: sans-serif ; font-weight: normal; font-style: normal; fill: rgb(255,0,0)" text-anchor="middle" transform="matrix( 0.000 1.000 -1.000 0.000 19.100 38.100 )">y 1/1</text>
  <text dominant-baseline="hanging" font-size="6.0px" style="font-family: sans-serif ; font-weight: normal; font-style: normal; fill: rgb(255,0,0)" text-anchor="middle" transform="matrix( 0.000 1.000 -1.000 0.000 57.100 94.100 )">y 2/3</text>
  <text dominant-baseline="hanging" font-size="6.0px" style="font-family: sans-serif ; font-weight: normal; font-style: normal; fill: rgb(255,0,0)" text-anchor="middle" transform="matrix( 0.000 1.000 -1.000 0.000 57.100 76.100 )">y 2/2</text>
  <text dominant-baseline="hanging" font-size="6.0px" style="font-family: sans-serif ; font-weight: normal; font-style: normal; fill: rgb(255,0,0)" text-anchor="middle" transform="matrix( 0.000 1.000 -1.000 0.000 57.100 38.100 )">y 2/1</text>
  <text dominant-baseline="hanging" font-size="6.0px" style="font-family: sans-serif ; font-weight: normal; font-style: normal; fill: rgb(255,0,0)" text-anchor="middle" transform="matrix( 0.000 1.000 -1.000 0.000 95.100 94.100 )">y 3/3</text>
  <text dominant-baseline="hanging" font-size="6.0px" style="font-family: sans-serif ; font-weight: normal; font-style: normal; fill: rgb(255,0,0)" text-anchor="middle" transform="matrix( 0.000 1.000 -1.000 0.000 95.100 76.100 )">y 3/2</text>
  <text dominant-baseline="hanging" font-size="6.0px" style="font-family: sans-serif ; font-weight: normal; font-style: normal; fill: rgb(255,0,0)" text-anchor="middle" transform="matrix( 0.000 1.000 -1.000 0.000 95.100 38.100 )">y 3/1</text>
  <path d="M 48.100 10.000 H 39.600 C 39.545 10.000 39.500 10.045 39.500 10.100 V 13.000 C 39.500 13.100 39.600 13.000 39.500 13.000 H 33.700 C 33.600 13.000 33.700 13.100 33.700 13.000 V 10.100 C 33.700 10.045 33.655 10.000 33.600 10.000 H 27.600 C 27.545 10.000 27.500 10.045 27.500 10.100 V 13.000 C 27.500 13.100 27.600 13.000 27.500 13.000 H 21.700 C 21.600 13.000 21.700 13.100 21.700 13.000 V 10.100 C 21.700 10.045 21.655 10.000 21.600 10.000 H 13.100 H 10.100 C 10.045 10.000 10.000 10.045 10.000 10.100 V 13.100 M 86.100 10.000 H 77.600 C 77.545 10.000 77.500 10.045 77.500 10.100 V 13.000 C 77.500 13.100 77.600 13.000 77.500 13.000 H 71.700 C 71.600 13.000 71.700 13.100 71.700 13.000 V 10.100 C 71.700 10.045 71.655 10.000 71.600 10.000 H 65.600 C 65.545 10.000 65.500 10.045 65.500 10.100 V 13.000 C 65.500 13.100 65.600 13.000 65.500 13.000 H 59.700 C 59.600 13.000 59.700 13.100 59.700 13.000 V 10.100 C 59.700 10.045 59.655 10.000 59.600 10.000 H 51.100 M 48.100 10.000 H 51.100 M 124.100 10.000 H 115.600 C 115.545 10.000 115.500 10.045 115.500 10.100 V 13.000 C 115.500 13.100 115.600 13.000 115.500 13.000 H 109.700 C 109.600 13.000 109.700 13.100 109.700 13.000 V 10.100 C 109.700 10.045 109.655 10.000 109.600 10.000 H 103.600 C 103.545 10.000 103.500 10.045 103.500 10.100 V 13.000 C 103.500 13.100 103.600 13.000 103.500 13.000 H 97.700 C 97.600 13.000 97.700 13.100 97.700 13.000 V 10.100 C 97.700 10.045 97.655 10.000 97.600 10.000 H 89.100 M 86.100 10.000 H 89.100 M 162.100 10.000 H 153.600 C 153.545 10.000 153.500 10.045 153.500 10.100 V 13.000 C 153.500 13.100 153.600 13.000 153.500 13.000 H 147.700 C 147.600 13.000 147.700 13.100 147.700 13.000 V 10.100 C 147.700 10.045 147.655 10.000 147.600 10.000 H 141.600 C 141.545 10.000 141.500 10.045 141.500 10.100 V 13.000 C 141.500 13.100 141.600 13.000 141.500 13.000 H 135.700 C 135.600 13.000 135.700 13.100 135.700 13.000 V 10.100 C 135.700 10.045 135.655 10.000 135.600 10.000 H 127.100 M 124.100 10.000 H 127.100 M 200.100 10.000 H 191.600 C 191.545 10.000 191.500 10.045 191.500 10.100 V 13.000 C 191.500 13.100 191.600 13.000 191.500 13.000 H 185.700 C 185.600 13.000 185.700 13.100 185.700 13.000 V 10.100 C 185.700 10.045 185.655 10.000 185.600 10.000 H 179.600 C 179.545 10.000 179.500 10.045 179.500 10.100 V 13.000 C 179.500 13.100 179.600 13.000 179.500 13.000 H 173.700 C 173.600 13.000 173.700 13.100 173.700 13.000 V 10.100 C 173.700 10.045 173.655 10.000 173.600 10.000 H 165.100 M 162.100 10.000 H 165.100 M 238.100 10.000 H 229.600 C 229.545 10.000 229.500 10.045 229.500 10.100 V 13.000 C 229.500 13.100 229.600 13.000 229.500 13.000 H 223.700 C 223.600 13.000 223.700 13.100 223.700 13.000 V 10.100 C 223.700 10.045 223.655 10.000 223.600 10.000 H 217.600 C 217.545 10.000 217.500 10.045 217.500 10.100 V 13.000 C 217.500 13.100 217.600 13.000 217.500 13.000 H 211.700 C 211.600 13.000 211.700 13.100 211.700 13.000 V 10.100 C 211.700 10.045 211.655 10.000 211.600 10.000 H 203.100 M 241.200 13.100 V 10.100 C 241.200 10.045 241.155 10.000 241.100 10.000 H 238.100 M 200.100 10.000 H 203.100 M 10.000 89.100 V 91.100 C 10.000 91.155 10.045 91.200 10.100 91.200 H 13.000 C 13.100 91.200 13.000 91.100 13.000 91.200 V 97.000 C 13.000 97.100 13.100 97.000 13.000 97.000 H 10.100 C 10.045 97.000 10.000 97.045 10.000 97.100 V 99.100 M 10.000 86.100 V 89.100 M 10.000 66.100 V 73.100 C 10.000 73.155 10.045 73.200 10.100 73.200 H 13.000 C 13.100 73.200 13.000 73.100 13.000 73.200 V 79.000 C 13.000 79.100 13.100 79.000 13.000 79.000 H 10.100 C 10.045 79.000 10.000 79.045 10.000 79.100 V 86.100 M 10.000 63.100 V 66.100 M 10.000 13.100 V 23.100 C 10.000 23.155 10.045 23.200 10.100 23.200 H 13.000 C 13.100 23.200 13.000 23.100 13.000 23.200 V 29.000 C 13.000 29.100 13.100 29.000 13.000 29.000 H 10.100 C 10.045 29.000 10.000 29.045 10.000 29.100 V 35.100 C 10.000 35.155 10.045 35.200 10.100 35.200 H 13.000 C 13.100 35.200 13.000 35.100 13.000 35.200 V 41.000 C 13.000 41.100 13.100 41.000 13.000 41.000 H 10.100 C 10.045 41.000 10.000 41.045 10.000 41.100 V 47.100 C 10.000 47.155 10.045 47.200 10.100 47.200 H 13.000 C 13.100 47.200 13.000 47.100 13.000 47.200 V 53.000 C 13.000 53.100 13.100 53.000 13.000 53.000 H 10.100 C 10.045 53.000 10.000 53.045 10.000 53.100 V 63.100" stroke="rgb(0,0,0)" stroke-width="0.20" />
  <path d="M 89.000 50.100 V 53.000 C 89.000 53.100 89.100 53.000 89.000 53.000 H 86.200 C 86.100 53.000 86.200 53.100 86.200 53.000 V 47.200 C 86.200 47.100 86.100 47.200 86.200 47.200 H 89.000 C 89.100 47.200 89.000 47.100 89.000 47.200 V 50.100 Z" stroke="rgb(0,0,255)" stroke-width="0.20" />
  <path d="M 89.000 38.100 V 41.000 C 89.000 41.100 89.100 41.000 89.000 41.000 H 86.200 C 86.100 41.000 86.200 41.100 86.200 41.000 V 35.200 C 86.200 35.100 86.100 35.200 86.200 35.200 H 89.000 C 89.100 35.200 89.000 35.100 89.000 35.200 V 38.100 Z" stroke="rgb(0,0,255)" stroke-width="0.20" />
  <path d="M 89.000 26.100 V 29.000 C 89.000 29.100 89.100 29.000 89.000 29.000 H 86.200 C 86.100 29.000 86.200 29.100 86.200 29.000 V 23.200 C 86.200 23.100 86.100 23.200 86.200 23.200 H 89.000 C 89.100 23.200 89.000 23.100 89.000 23.200 V 26.100 Z" stroke="rgb(0,0,255)" stroke-width="0.20" />
  <text dominant-baseline="hanging" font-size="6.0px" style="font-family: sans-serif ; font-weight: normal; font-style: normal; fill: rgb(255,0,0)" text-anchor="middle" transform="matrix( 0.000 1.000 -1.000 0.000 133.100 94.100 )">y 4/3</text>
  <text dominant-baseline="hanging" font-size="6.0px" style="font-family: sans-serif ; font-weight: normal; font-style: normal; fill: rgb(255,0,0)" text-anchor="middle" transform="matrix( 0.000 1.000 -1.000 0.000 133.100 76.100 )">y 4/2</text>
  <path d="M 127.000 76.100 V 79.000 C 127.000 79.100 127.100 79.000 127.000 79.000 H 124.200 C 124.100 79.000 124.200 79.100 124.200 79.000 V 73.200 C 124.200 73.100 124.100 73.200 124.200 73.200 H 127.000 C 127.100 73.200 127.000 73.100 127.000 73.200 V 76.100 Z" stroke="rgb(0,0,255)" stroke-width="0.20" />
  <text dominant-baseline="hanging" font-size="6.0px" style="font-family: sans-serif ; font-weight: normal; font-style: normal; fill: rgb(255,0,0)" text-anchor="middle" transform="matrix( 0.000 1.000 -1.000 0.000 133.100 38.100 )">y 4/1</text>
  <text dominant-baseline="hanging" font-size="6.0px" style="font-family: sans-serif ; font-weight: normal; font-style: normal; fill: rgb(255,0,0)" text-anchor="middle" transform="matrix( 0.000 1.000 -1.000 0.000 171.100 94.100 )">y 5/3</text>
  <text dominant-baseline="hanging" font-size="6.0px" style="font-family: sans-serif ; font-weight: normal; font-style: normal; fill: rgb(255,0,0)" text-anchor="middle" transform="matrix( 0.000 1.000 -1.000 0.000 171.100 76.100 )">y 5/2</text>
  <text dominant-baseline="hanging" font-size="6.0px" style="font-family: sans-serif ; font-weight: normal; font-style: normal; fill: rgb(255,0,0)" text-anchor="middle" transform="matrix( 0.000 1.000 -1.000 0.000 171.100 38.100 )">y 5/1</text>
  <path d="M 165.000 50.100 V 53.000 C 165.000 53.100 165.100 53.000 165.000 53.000 H 162.200 C 162.100 53.000 162.200 53.100 162.200 53.000 V 47.200 C 162.200 47.100 162.100 47.200 162.200 47.200 H 165.000 C 165.100 47.200 165.000 47.100 165.000 47.200 V 50.100 Z" stroke="rgb(0,0,255)" stroke-width="0.20" />
  <path d="M 165.000 38.100 V 41.000 C 165.000 41.100 165.100 41.000 165.000 41.000 H 162.200 C 162.100 41.000 162.200 41.100 162.200 41.000 V 35.200 C 162.200 35.100 162.100 35.200 162.200 35.200 H 165.000 C 165.100 35.200 165.000 35.100 165.000 35.200 V 38.100 Z" stroke="rgb(0,0,255)" stroke-width="0.20" />
  <path d="M 165.000 26.100 V 29.000 C 165.000 29.100 165.100 29.000 165.000 29.000 H 162.200 C 162.100 29.000 162.200 29.100 162.200 29.000 V 23.200 C 162.200 23.100 162.100 23.200 162.200 23.200 H 165.000 C 165.100 23.200 165.000 23.100 165.000 23.200 V 26.100 Z" stroke="rgb(0,0,255)" stroke-width="0.20" />
  <text dominant-baseline="hanging" font-size="6.0px" style="font-family: sans-serif ; font-weight: normal; font-style: normal; fill: rgb(255,0,0)" text-anchor="middle" transform="matrix( 0.000 1.000 -1.000 0.000 209.100 94.100 )">y 6/3</text>
  <text dominant-baseline="hanging" font-size="6.0px" style="font-family: sans-serif ; font-weight: normal; font-style: normal; fill: rgb(255,0,0)" text-anchor="middle" transform="matrix( 0.000 1.000 -1.000 0.000 209.100 76.100 )">y 6/2</text>
  <text dominant-baseline="hanging" font-size="6.0px" style="font-family: sans-serif ; font-weight: normal; font-style: normal; fill: rgb(255,0,0)" text-anchor="middle" transform="matrix( 0.000 1.000 -1.000 0.000 209.100 38.100 )">y 6/1</text>
  <text dominant-baseline="hanging" font-size="6.0px" style="font-family: sans-serif ; font-weight: normal; font-style: normal; fill: rgb(255,0,0)" text-anchor="middle" transform="matrix( 0.000 1.000 -1.000 0.000 238.100 94.100 )">y 7/3</text>
  <text dominant-baseline="hanging" font-size="6.0px" style="font-family: sans-serif ; font-weight: normal; font-style: normal; fill: rgb(255,0,0)" text-anchor="middle" transform="matrix( 0.000 1.000 -1.000 0.000 238.100 76.100 )">y 7/2</text>
  <text dominant-baseline="hanging" font-size="6.0px" style="font-family: sans-serif ; font-weight: normal; font-style: normal; fill: rgb(255,0,0)" text-anchor="middle" transform="matrix( 0.000 1.000 -1.000 0.000 238.100 38.100 )">y 7/1</text>
  <path d="M 241.200 99.100 V 97.100 C 241.200 97.045 241.155 97.000 241.100 97.000 H 238.200 C 238.100 97.000 238.200 97.100 238.200 97.000 V 91.200 C 238.200 91.100 238.100 91.200 238.200 91.200 H 241.100 C 241.155 91.200 241.200 91.155 241.200 91.100 V 89.100 V 86.100 M 241.200 86.100 V 79.100 C 241.200 79.045 241.155 79.000 241.100 79.000 H 238.200 C 238.100 79.000 238.200 79.100 238.200 79.000 V 73.200 C 238.200 73.100 238.100 73.200 238.200 73.200 H 241.100 C 241.155 73.200 241.200 73.155 241.200 73.100 V 66.100 V 63.100 M 241.200 63.100 V 53.100 C 241.200 53.045 241.155 53.000 241.100 53.000 H 238.200 C 238.100 53.000 238.200 53.100 238.200 53.000 V 47.200 C 238.200 47.100 238.100 47.200 238.200 47.200 H 241.100 C 241.155 47.200 241.200 47.155 241.200 47.100 V 41.100 C 241.200 41.045 241.155 41.000 241.100 41.000 H 238.200 C 238.100 41.000 238.200 41.100 238.200 41.000 V 35.200 C 238.200 35.100 238.100 35.200 238.200 35.200 H 241.100 C 241.155 35.200 241.200 35.155 241.200 35.100 V 29.100 C 241.200 29.045 241.155 29.000 241.100 29.000 H 238.200 C 238.100 29.000 238.200 29.100 238.200 29.000 V 23.200 C 238.200 23.100 238.100 23.200 238.200 23.200 H 241.100 C 241.155 23.200 241.200 23.155 241.200 23.100 V 13.100" stroke="rgb(0,0,0)" stroke-width="0.20" />
</g>
</svg>