<?xml version='1.0' encoding='utf-8'?>
<svg height="341.30mm" viewBox="0.0 0.0 501.90 341.30" width="501.90mm" xmlns="http://www.w3.org/2000/svg" xmlns:cc="http://creativecommons.org/ns#" xmlns:dc="http://purl.org/dc/elements/1.1/" xmlns:inkscape="http://www.inkscape.org/namespaces/inkscape" xmlns:rdf="http://www.w3.org/1999/02/22-rdf-syntax-ns#" xmlns:svg="http://www.w3.org/2000/svg" xmlns:xlink="http://www.w3.org/1999/xlink">
<!--
UniversalBox - Box with various options for different styles and lids

Created with Boxes.py (https://boxes.hackerspace-bamberg.de/)
Creation date: 2026-03-16 02:50:41
Command line (remove spaces between dashes): boxes UniversalBox - -Stackable_bottom_stabilizers=2 - -bottom_edge=s - -x=210 - -y=270 - -h=18 - -spacing=0.5
Url: https://boxes.hackerspace-bamberg.de/UniversalBox?FingerJoint_style=rectangular&FingerJoint_surroundingspaces=2.0&FingerJoint_bottom_lip=0.0&FingerJoint_edge_width=1.0&FingerJoint_extra_length=0.0&FingerJoint_finger=2&FingerJoint_play=0.0&FingerJoint_space=2&FingerJoint_width=1.0&Stackable_angle=60&Stackable_bottom_stabilizers=2&Stackable_height=2.0&Stackable_holedistance=1.0&Stackable_width=4.0&Hinge_grip_percentage=0&Hinge_outset=0&Hinge_outset=1&Hinge_pinwidth=0.5&Hinge_axle=2.0&Hinge_grip_length=0&Hinge_hingestrength=1&CabinetHinge_bore=3.2&CabinetHinge_eyes_per_hinge=5&CabinetHinge_hinges=2&CabinetHinge_style=inside&CabinetHinge_eye=1.5&CabinetHinge_play=0.05&CabinetHinge_spacing=2.0&SlideOnLid_hole_width=0&SlideOnLid_second_pin=0&SlideOnLid_second_pin=1&SlideOnLid_spring=both&SlideOnLid_style=rectangular&SlideOnLid_surroundingspaces=2.0&SlideOnLid_bottom_lip=0.0&SlideOnLid_edge_width=1.0&SlideOnLid_extra_length=0.0&SlideOnLid_finger=3.0&SlideOnLid_play=0.05&SlideOnLid_space=2.0&SlideOnLid_width=1.0&Click_angle=5.0&Click_bottom_radius=0.1&Click_depth=3.0&RoundedTriangleEdge_height=50.0&RoundedTriangleEdge_r_hole=2.0&RoundedTriangleEdge_radius=30.0&RoundedTriangleEdge_outset=1.0&Mounting_d_head=6.5&Mounting_d_shaft=3.0&Mounting_margin=0.125&Mounting_num=2&Mounting_side=back&Mounting_style=straight+edge%2C+within&HandleEdge_height=20.0&HandleEdge_hole_height=75.0&HandleEdge_hole_width=40%3A40&HandleEdge_on_sides=0&HandleEdge_on_sides=1&HandleEdge_radius=10.0&HandleEdge_outset=1.0&Flex_stretch=1.05&Flex_connection=1.0&Flex_distance=0.5&Flex_width=5.0&Lid_handle=none&Lid_style=none&Lid_handle_height=8.0&Lid_height=4.0&Lid_play=0.1&top_edge=e&bottom_edge=s&x=210&y=270&h=18&outside=0&outside=1&vertical_edges=finger+joints&thickness=3.0&burn=0.1&format=svg&labels=0&labels=1&reference=100.0&tabs=0.0&qr_code=0&inner_corners=loop&spacing=0.5&debug=0&language=en&render=2
Url short: https://boxes.hackerspace-bamberg.de/UniversalBox?Stackable_bottom_stabilizers=2&bottom_edge=s&x=210&y=270&h=18&spacing=0.5
SettingsUrl: https://boxes.hackerspace-bamberg.de/UniversalBox?FingerJoint_style=rectangular&FingerJoint_surroundingspaces=2.0&FingerJoint_bottom_lip=0.0&FingerJoint_edge_width=1.0&FingerJoint_extra_length=0.0&FingerJoint_finger=2&FingerJoint_play=0.0&FingerJoint_space=2&FingerJoint_width=1.0&Stackable_angle=60&Stackable_bottom_stabilizers=2&Stackable_height=2.0&Stackable_holedistance=1.0&Stackable_width=4.0&Hinge_grip_percentage=0&Hinge_outset=0&Hinge_outset=1&Hinge_pinwidth=0.5&Hinge_axle=2.0&Hinge_grip_length=0&Hinge_hingestrength=1&CabinetHinge_bore=3.2&CabinetHinge_eyes_per_hinge=5&CabinetHinge_hinges=2&CabinetHinge_style=inside&CabinetHinge_eye=1.5&CabinetHinge_play=0.05&CabinetHinge_spacing=2.0&SlideOnLid_hole_width=0&SlideOnLid_second_pin=0&SlideOnLid_second_pin=1&SlideOnLid_spring=both&SlideOnLid_style=rectangular&SlideOnLid_surroundingspaces=2.0&SlideOnLid_bottom_lip=0.0&SlideOnLid_edge_width=1.0&SlideOnLid_extra_length=0.0&SlideOnLid_finger=3.0&SlideOnLid_play=0.05&SlideOnLid_space=2.0&SlideOnLid_width=1.0&Click_angle=5.0&Click_bottom_radius=0.1&Click_depth=3.0&RoundedTriangleEdge_height=50.0&RoundedTriangleEdge_r_hole=2.0&RoundedTriangleEdge_radius=30.0&RoundedTriangleEdge_outset=1.0&Mounting_d_head=6.5&Mounting_d_shaft=3.0&Mounting_margin=0.125&Mounting_num=2&Mounting_side=back&Mounting_style=straight+edge%2C+within&HandleEdge_height=20.0&HandleEdge_hole_height=75.0&HandleEdge_hole_width=40%3A40&HandleEdge_on_sides=0&HandleEdge_on_sides=1&HandleEdge_radius=10.0&HandleEdge_outset=1.0&Flex_stretch=1.05&Flex_connection=1.0&Flex_distance=0.5&Flex_width=5.0&Lid_handle=none&Lid_style=none&Lid_handle_height=8.0&Lid_height=4.0&Lid_play=0.1&top_edge=e&bottom_edge=s&x=210&y=270&h=18&outside=0&outside=1&vertical_edges=finger+joints&thickness=3.0&burn=0.1&format=svg&labels=0&labels=1&reference=100.0&tabs=0.0&qr_code=0&inner_corners=loop&spacing=0.5&debug=0&language=en&render=2
SettingsUrl short: https://boxes.hackerspace-bamberg.de/UniversalBox?Stackable_bottom_stabilizers=2&bottom_edge=s&x=210&y=270&h=18&spacing=0.5
-->
<title>UniversalBox</title>
<metadata>
<rdf:RDF><cc:Work>
<dc:title>Box - UniversalBox</dc:title>
<dc:date>2026-03-16 02:50:41</dc:date>
<dc:source>https://boxes.hackerspace-bamberg.de/UniversalBox?FingerJoint_style=rectangular&amp;FingerJoint_surroundingspaces=2.0&amp;FingerJoint_bottom_lip=0.0&amp;FingerJoint_edge_width=1.0&amp;FingerJoint_extra_length=0.0&amp;FingerJoint_finger=2&amp;FingerJoint_play=0.0&amp;FingerJoint_space=2&amp;FingerJoint_width=1.0&amp;Stackable_angle=60&amp;Stackable_bottom_stabilizers=2&amp;Stackable_height=2.0&amp;Stackable_holedistance=1.0&amp;Stackable_width=4.0&amp;Hinge_grip_percentage=0&amp;Hinge_outset=0&amp;Hinge_outset=1&amp;Hinge_pinwidth=0.5&amp;Hinge_axle=2.0&amp;Hinge_grip_length=0&amp;Hinge_hingestrength=1&amp;CabinetHinge_bore=3.2&amp;CabinetHinge_eyes_per_hinge=5&amp;CabinetHinge_hinges=2&amp;CabinetHinge_style=inside&amp;CabinetHinge_eye=1.5&amp;CabinetHinge_play=0.05&amp;CabinetHinge_spacing=2.0&amp;SlideOnLid_hole_width=0&amp;SlideOnLid_second_pin=0&amp;SlideOnLid_second_pin=1&amp;SlideOnLid_spring=both&amp;SlideOnLid_style=rectangular&amp;SlideOnLid_surroundingspaces=2.0&amp;SlideOnLid_bottom_lip=0.0&amp;SlideOnLid_edge_width=1.0&amp;SlideOnLid_extra_length=0.0&amp;SlideOnLid_finger=3.0&amp;SlideOnLid_play=0.05&amp;SlideOnLid_space=2.0&amp;SlideOnLid_width=1.0&amp;Click_angle=5.0&amp;Click_bottom_radius=0.1&amp;Click_depth=3.0&amp;RoundedTriangleEdge_height=50.0&amp;RoundedTriangleEdge_r_hole=2.0&amp;RoundedTriangleEdge_radius=30.0&amp;RoundedTriangleEdge_outset=1.0&amp;Mounting_d_head=6.5&amp;Mounting_d_shaft=3.0&amp;Mounting_margin=0.125&amp;Mounting_num=2&amp;Mounting_side=back&amp;Mounting_style=straight+edge%2C+within&amp;HandleEdge_height=20.0&amp;HandleEdge_hole_height=75.0&amp;HandleEdge_hole_width=40%3A40&amp;HandleEdge_on_sides=0&amp;HandleEdge_on_sides=1&amp;HandleEdge_radius=10.0&amp;HandleEdge_outset=1.0&amp;Flex_stretch=1.05&amp;Flex_connection=1.0&amp;Flex_distance=0.5&amp;Flex_width=5.0&amp;Lid_handle=none&amp;Lid_style=none&amp;Lid_handle_height=8.0&amp;Lid_height=4.0&amp;Lid_play=0.1&amp;top_edge=e&amp;bottom_edge=s&amp;x=210&amp;y=270&amp;h=18&amp;outside=0&amp;outside=1&amp;vertical_edges=finger+joints&amp;thickness=3.0&amp;burn=0.1&amp;format=svg&amp;labels=0&amp;labels=1&amp;reference=100.0&amp;tabs=0.0&amp;qr_code=0&amp;inner_corners=loop&amp;spacing=0.5&amp;debug=0&amp;language=en&amp;render=2</dc:source>
<dc:source>https://boxes.hackerspace-bamberg.de/UniversalBox?Stackable_bottom_stabilizers=2&amp;bottom_edge=s&amp;x=210&amp;y=270&amp;h=18&amp;spacing=0.5</dc:source>
<dc:description>Box with various options for different styles and lids

Created with Boxes.py (https://boxes.hackerspace-bamberg.de/)
Command line: boxes UniversalBox --FingerJoint_style=rectangular --FingerJoint_surroundingspaces=2.0 --FingerJoint_bottom_lip=0.0 --FingerJoint_edge_width=1.0 --FingerJoint_extra_length=0.0 --FingerJoint_finger=2 --FingerJoint_play=0.0 --FingerJoint_space=2 --FingerJoint_width=1.0 --Stackable_angle=60 --Stackable_bottom_stabilizers=2 --Stackable_height=2.0 --Stackable_holedistance=1.0 --Stackable_width=4.0 --Hinge_grip_percentage=0 --Hinge_outset=0 --Hinge_outset=1 --Hinge_pinwidth=0.5 --Hinge_axle=2.0 --Hinge_grip_length=0 --Hinge_hingestrength=1 --CabinetHinge_bore=3.2 --CabinetHinge_eyes_per_hinge=5 --CabinetHinge_hinges=2 --CabinetHinge_style=inside --CabinetHinge_eye=1.5 --CabinetHinge_play=0.05 --CabinetHinge_spacing=2.0 --SlideOnLid_hole_width=0 --SlideOnLid_second_pin=0 --SlideOnLid_second_pin=1 --SlideOnLid_spring=both --SlideOnLid_style=rectangular --SlideOnLid_surroundingspaces=2.0 --SlideOnLid_bottom_lip=0.0 --SlideOnLid_edge_width=1.0 --SlideOnLid_extra_length=0.0 --SlideOnLid_finger=3.0 --SlideOnLid_play=0.05 --SlideOnLid_space=2.0 --SlideOnLid_width=1.0 --Click_angle=5.0 --Click_bottom_radius=0.1 --Click_depth=3.0 --RoundedTriangleEdge_height=50.0 --RoundedTriangleEdge_r_hole=2.0 --RoundedTriangleEdge_radius=30.0 --RoundedTriangleEdge_outset=1.0 --Mounting_d_head=6.5 --Mounting_d_shaft=3.0 --Mounting_margin=0.125 --Mounting_num=2 --Mounting_side=back '--Mounting_style=straight edge, within' --HandleEdge_height=20.0 --HandleEdge_hole_height=75.0 --HandleEdge_hole_width=40:40 --HandleEdge_on_sides=0 --HandleEdge_on_sides=1 --HandleEdge_radius=10.0 --HandleEdge_outset=1.0 --Flex_stretch=1.05 --Flex_connection=1.0 --Flex_distance=0.5 --Flex_width=5.0 --Lid_handle=none --Lid_style=none --Lid_handle_height=8.0 --Lid_height=4.0 --Lid_play=0.1 --top_edge=e --bottom_edge=s --x=210 --y=270 --h=18 --outside=0 --outside=1 '--vertical_edges=finger joints' --thickness=3.0 --burn=0.1 --format=svg --labels=0 --labels=1 --reference=100.0 --tabs=0.0 --qr_code=0 --inner_corners=loop --spacing=0.5 --debug=0
Command line short: boxes UniversalBox --Stackable_bottom_stabilizers=2 --bottom_edge=s --x=210 --y=270 --h=18 --spacing=0.5
Url: https://boxes.hackerspace-bamberg.de/UniversalBox?FingerJoint_style=rectangular&amp;FingerJoint_surroundingspaces=2.0&amp;FingerJoint_bottom_lip=0.0&amp;FingerJoint_edge_width=1.0&amp;FingerJoint_extra_length=0.0&amp;FingerJoint_finger=2&amp;FingerJoint_play=0.0&amp;FingerJoint_space=2&amp;FingerJoint_width=1.0&amp;Stackable_angle=60&amp;Stackable_bottom_stabilizers=2&amp;Stackable_height=2.0&amp;Stackable_holedistance=1.0&amp;Stackable_width=4.0&amp;Hinge_grip_percentage=0&amp;Hinge_outset=0&amp;Hinge_outset=1&amp;Hinge_pinwidth=0.5&amp;Hinge_axle=2.0&amp;Hinge_grip_length=0&amp;Hinge_hingestrength=1&amp;CabinetHinge_bore=3.2&amp;CabinetHinge_eyes_per_hinge=5&amp;CabinetHinge_hinges=2&amp;CabinetHinge_style=inside&amp;CabinetHinge_eye=1.5&amp;CabinetHinge_play=0.05&amp;CabinetHinge_spacing=2.0&amp;SlideOnLid_hole_width=0&amp;SlideOnLid_second_pin=0&amp;SlideOnLid_second_pin=1&amp;SlideOnLid_spring=both&amp;SlideOnLid_style=rectangular&amp;SlideOnLid_surroundingspaces=2.0&amp;SlideOnLid_bottom_lip=0.0&amp;SlideOnLid_edge_width=1.0&amp;SlideOnLid_extra_length=0.0&amp;SlideOnLid_finger=3.0&amp;SlideOnLid_play=0.05&amp;SlideOnLid_space=2.0&amp;SlideOnLid_width=1.0&amp;Click_angle=5.0&amp;Click_bottom_radius=0.1&amp;Click_depth=3.0&amp;RoundedTriangleEdge_height=50.0&amp;RoundedTriangleEdge_r_hole=2.0&amp;RoundedTriangleEdge_radius=30.0&amp;RoundedTriangleEdge_outset=1.0&amp;Mounting_d_head=6.5&amp;Mounting_d_shaft=3.0&amp;Mounting_margin=0.125&amp;Mounting_num=2&amp;Mounting_side=back&amp;Mounting_style=straight+edge%2C+within&amp;HandleEdge_height=20.0&amp;HandleEdge_hole_height=75.0&amp;HandleEdge_hole_width=40%3A40&amp;HandleEdge_on_sides=0&amp;HandleEdge_on_sides=1&amp;HandleEdge_radius=10.0&amp;HandleEdge_outset=1.0&amp;Flex_stretch=1.05&amp;Flex_connection=1.0&amp;Flex_distance=0.5&amp;Flex_width=5.0&amp;Lid_handle=none&amp;Lid_style=none&amp;Lid_handle_height=8.0&amp;Lid_height=4.0&amp;Lid_play=0.1&amp;top_edge=e&amp;bottom_edge=s&amp;x=210&amp;y=270&amp;h=18&amp;outside=0&amp;outside=1&amp;vertical_edges=finger+joints&amp;thickness=3.0&amp;burn=0.1&amp;format=svg&amp;labels=0&amp;labels=1&amp;reference=100.0&amp;tabs=0.0&amp;qr_code=0&amp;inner_corners=loop&amp;spacing=0.5&amp;debug=0&amp;language=en&amp;render=2
Url short: https://boxes.hackerspace-bamberg.de/UniversalBox?Stackable_bottom_stabilizers=2&amp;bottom_edge=s&amp;x=210&amp;y=270&amp;h=18&amp;spacing=0.5
SettingsUrl: https://boxes.hackerspace-bamberg.de/UniversalBox?FingerJoint_style=rectangular&amp;FingerJoint_surroundingspaces=2.0&amp;FingerJoint_bottom_lip=0.0&amp;FingerJoint_edge_width=1.0&amp;FingerJoint_extra_length=0.0&amp;FingerJoint_finger=2&amp;FingerJoint_play=0.0&amp;FingerJoint_space=2&amp;FingerJoint_width=1.0&amp;Stackable_angle=60&amp;Stackable_bottom_stabilizers=2&amp;Stackable_height=2.0&amp;Stackable_holedistance=1.0&amp;Stackable_width=4.0&amp;Hinge_grip_percentage=0&amp;Hinge_outset=0&amp;Hinge_outset=1&amp;Hinge_pinwidth=0.5&amp;Hinge_axle=2.0&amp;Hinge_grip_length=0&amp;Hinge_hingestrength=1&amp;CabinetHinge_bore=3.2&amp;CabinetHinge_eyes_per_hinge=5&amp;CabinetHinge_hinges=2&amp;CabinetHinge_style=inside&amp;CabinetHinge_eye=1.5&amp;CabinetHinge_play=0.05&amp;CabinetHinge_spacing=2.0&amp;SlideOnLid_hole_width=0&amp;SlideOnLid_second_pin=0&amp;SlideOnLid_second_pin=1&amp;SlideOnLid_spring=both&amp;SlideOnLid_style=rectangular&amp;SlideOnLid_surroundingspaces=2.0&amp;SlideOnLid_bottom_lip=0.0&amp;SlideOnLid_edge_width=1.0&amp;SlideOnLid_extra_length=0.0&amp;SlideOnLid_finger=3.0&amp;SlideOnLid_play=0.05&amp;SlideOnLid_space=2.0&amp;SlideOnLid_width=1.0&amp;Click_angle=5.0&amp;Click_bottom_radius=0.1&amp;Click_depth=3.0&amp;RoundedTriangleEdge_height=50.0&amp;RoundedTriangleEdge_r_hole=2.0&amp;RoundedTriangleEdge_radius=30.0&amp;RoundedTriangleEdge_outset=1.0&amp;Mounting_d_head=6.5&amp;Mounting_d_shaft=3.0&amp;Mounting_margin=0.125&amp;Mounting_num=2&amp;Mounting_side=back&amp;Mounting_style=straight+edge%2C+within&amp;HandleEdge_height=20.0&amp;HandleEdge_hole_height=75.0&amp;HandleEdge_hole_width=40%3A40&amp;HandleEdge_on_sides=0&amp;HandleEdge_on_sides=1&amp;HandleEdge_radius=10.0&amp;HandleEdge_outset=1.0&amp;Flex_stretch=1.05&amp;Flex_connection=1.0&amp;Flex_distance=0.5&amp;Flex_width=5.0&amp;Lid_handle=none&amp;Lid_style=none&amp;Lid_handle_height=8.0&amp;Lid_height=4.0&amp;Lid_play=0.1&amp;top_edge=e&amp;bottom_edge=s&amp;x=210&amp;y=270&amp;h=18&amp;outside=0&amp;outside=1&amp;vertical_edges=finger+joints&amp;thickness=3.0&amp;burn=0.1&amp;format=svg&amp;labels=0&amp;labels=1&amp;reference=100.0&amp;tabs=0.0&amp;qr_code=0&amp;inner_corners=loop&amp;spacing=0.5&amp;debug=0&amp;language=en&amp;render=2
SettingsUrl short: https://boxes.hackerspace-bamberg.de/UniversalBox?Stackable_bottom_stabilizers=2&amp;bottom_edge=s&amp;x=210&amp;y=270&amp;h=18&amp;spacing=0.5
</dc:description>
</cc:Work></rdf:RDF></metadata>
<g id="p-0" style="fill:none;stroke-linecap:round;stroke-linejoin:round;">
  <path d="M 10.100 331.300 H 110.100 V 321.300 H 10.100 V 331.300 Z" stroke="rgb(0,0,0)" stroke-width="0.20" />
  <text dominant-baseline="hanging" font-size="6px" style="font-family: sans-serif ; font-weight: normal; font-style: normal; fill: rgb(255,0,0)" text-anchor="middle" transform="matrix( 1.000 0.000 0.000 1.000 60.100 323.300 )">100.0mm, burn:0.10mm</text>
</g>
<g id="p-1" style="fill:none;stroke-linecap:round;stroke-linejoin:round;">
  <path d="M 25.100 302.800 H 22.200 C 22.100 302.800 22.200 302.900 22.200 302.800 V 300.000 C 22.200 299.900 22.100 300.000 22.200 300.000 H 28.000 C 28.100 300.000 28.000 299.900 28.000 300.000 V 302.800 C 28.000 302.900 28.100 302.800 28.000 302.800 H 25.100 Z" stroke="rgb(0,0,255)" stroke-width="0.20" />
  <path d="M 37.100 302.800 H 34.200 C 34.100 302.800 34.200 302.900 34.200 302.800 V 300.000 C 34.200 299.900 34.100 300.000 34.200 300.000 H 40.000 C 40.100 300.000 40.000 299.900 40.000 300.000 V 302.800 C 40.000 302.900 40.100 302.800 40.000 302.800 H 37.100 Z" stroke="rgb(0,0,255)" stroke-width="0.20" />
  <path d="M 49.100 302.800 H 46.200 C 46.100 302.800 46.200 302.900 46.200 302.800 V 300.000 C 46.200 299.900 46.100 300.000 46.200 300.000 H 52.000 C 52.100 300.000 52.000 299.900 52.000 300.000 V 302.800 C 52.000 302.900 52.100 302.800 52.000 302.800 H 49.100 Z" stroke="rgb(0,0,255)" stroke-width="0.20" />
  <path d="M 61.100 302.800 H 58.200 C 58.100 302.800 58.200 302.900 58.200 302.800 V 300.000 C 58.200 299.900 58.100 300.000 58.200 300.000 H 64.000 C 64.100 300.000 64.000 299.900 64.000 300.000 V 302.800 C 64.000 302.900 64.100 302.800 64.000 302.800 H 61.100 Z" stroke="rgb(0,0,255)" stroke-width="0.20" />
  <path d="M 73.100 302.800 H 70.200 C 70.100 302.800 70.200 302.900 70.200 302.800 V 300.000 C 70.200 299.900 70.100 300.000 70.200 300.000 H 76.000 C 76.100 300.000 76.000 299.900 76.000 300.000 V 302.800 C 76.000 302.900 76.100 302.800 76.000 302.800 H 73.100 Z" stroke="rgb(0,0,255)" stroke-width="0.20" />
  <path d="M 85.100 302.800 H 82.200 C 82.100 302.800 82.200 302.900 82.200 302.800 V 300.000 C 82.200 299.900 82.100 300.000 82.200 300.000 H 88.000 C 88.100 300.000 88.000 299.900 88.000 300.000 V 302.800 C 88.000 302.900 88.100 302.800 88.000 302.800 H 85.100 Z" stroke="rgb(0,0,255)" stroke-width="0.20" />
  <path d="M 97.100 302.800 H 94.200 C 94.100 302.800 94.200 302.900 94.200 302.800 V 300.000 C 94.200 299.900 94.100 300.000 94.200 300.000 H 100.000 C 100.100 300.000 100.000 299.900 100.000 300.000 V 302.800 C 100.000 302.900 100.100 302.800 100.000 302.800 H 97.100 Z" stroke="rgb(0,0,255)" stroke-width="0.20" />
  <path d="M 109.100 302.800 H 106.200 C 106.100 302.800 106.200 302.900 106.200 302.800 V 300.000 C 106.200 299.900 106.100 300.000 106.200 300.000 H 112.000 C 112.100 300.000 112.000 299.900 112.000 300.000 V 302.800 C 112.000 302.900 112.100 302.800 112.000 302.800 H 109.100 Z" stroke="rgb(0,0,255)" stroke-width="0.20" />
  <path d="M 121.100 302.800 H 118.200 C 118.100 302.800 118.200 302.900 118.200 302.800 V 300.000 C 118.200 299.900 118.100 300.000 118.200 300.000 H 124.000 C 124.100 300.000 124.000 299.900 124.000 300.000 V 302.800 C 124.000 302.900 124.100 302.800 124.000 302.800 H 121.100 Z" stroke="rgb(0,0,255)" stroke-width="0.20" />
  <path d="M 133.100 302.800 H 130.200 C 130.100 302.800 130.200 302.900 130.200 302.800 V 300.000 C 130.200 299.900 130.100 300.000 130.200 300.000 H 136.000 C 136.100 300.000 136.000 299.900 136.000 300.000 V 302.800 C 136.000 302.900 136.100 302.800 136.000 302.800 H 133.100 Z" stroke="rgb(0,0,255)" stroke-width="0.20" />
  <path d="M 145.100 302.800 H 142.200 C 142.100 302.800 142.200 302.900 142.200 302.800 V 300.000 C 142.200 299.900 142.100 300.000 142.200 300.000 H 148.000 C 148.100 300.000 148.000 299.900 148.000 300.000 V 302.800 C 148.000 302.900 148.100 302.800 148.000 302.800 H 145.100 Z" stroke="rgb(0,0,255)" stroke-width="0.20" />
  <path d="M 157.100 302.800 H 154.200 C 154.100 302.800 154.200 302.900 154.200 302.800 V 300.000 C 154.200 299.900 154.100 300.000 154.200 300.000 H 160.000 C 160.100 300.000 160.000 299.900 160.000 300.000 V 302.800 C 160.000 302.900 160.100 302.800 160.000 302.800 H 157.100 Z" stroke="rgb(0,0,255)" stroke-width="0.20" />
  <path d="M 169.100 302.800 H 166.200 C 166.100 302.800 166.200 302.900 166.200 302.800 V 300.000 C 166.200 299.900 166.100 300.000 166.200 300.000 H 172.000 C 172.100 300.000 172.000 299.900 172.000 300.000 V 302.800 C 172.000 302.900 172.100 302.800 172.000 302.800 H 169.100 Z" stroke="rgb(0,0,255)" stroke-width="0.20" />
  <path d="M 181.100 302.800 H 178.200 C 178.100 302.800 178.200 302.900 178.200 302.800 V 300.000 C 178.200 299.900 178.100 300.000 178.200 300.000 H 184.000 C 184.100 300.000 184.000 299.900 184.000 300.000 V 302.800 C 184.000 302.900 184.100 302.800 184.000 302.800 H 181.100 Z" stroke="rgb(0,0,255)" stroke-width="0.20" />
  <path d="M 193.100 302.800 H 190.200 C 190.100 302.800 190.200 302.900 190.200 302.800 V 300.000 C 190.200 299.900 190.100 300.000 190.200 300.000 H 196.000 C 196.100 300.000 196.000 299.900 196.000 300.000 V 302.800 C 196.000 302.900 196.100 302.800 196.000 302.800 H 193.100 Z" stroke="rgb(0,0,255)" stroke-width="0.20" />
  <path d="M 205.100 302.800 H 202.200 C 202.100 302.800 202.200 302.900 202.200 302.800 V 300.000 C 202.200 299.900 202.100 300.000 202.200 300.000 H 208.000 C 208.100 300.000 208.000 299.900 208.000 300.000 V 302.800 C 208.000 302.900 208.100 302.800 208.000 302.800 H 205.100 Z" stroke="rgb(0,0,255)" stroke-width="0.20" />
</g>
<g id="p-2" style="fill:none;stroke-linecap:round;stroke-linejoin:round;">
  <path d="M 13.100 318.750 H 213.950 C 214.005 318.750 214.050 318.705 214.050 318.650 V 312.650 C 214.050 312.595 214.005 312.550 213.950 312.550 H 13.100 C 13.045 312.550 13.000 312.595 13.000 312.650 V 318.650 C 13.000 318.705 13.045 318.750 13.100 318.750 Z" stroke="rgb(0,0,0)" stroke-width="0.20" />
</g>
<g id="p-3" style="fill:none;stroke-linecap:round;stroke-linejoin:round;">
  <path d="M 13.100 311.900 H 25.100 C 26.171 311.900 27.223 311.618 28.150 311.083 C 29.077 310.547 29.847 309.777 30.383 308.850 C 30.901 307.953 31.645 307.208 32.542 306.690 C 33.439 306.173 34.457 305.900 35.492 305.900 H 194.708 C 195.743 305.900 196.761 306.173 197.658 306.690 C 198.555 307.208 199.299 307.953 199.817 308.850 C 200.353 309.777 201.123 310.547 202.050 311.083 C 202.977 311.618 204.029 311.900 205.100 311.900 H 217.100 H 220.100 C 220.155 311.900 220.200 311.855 220.200 311.800 V 309.650 C 220.200 309.595 220.155 309.550 220.100 309.550 H 217.200 C 217.100 309.550 217.200 309.650 217.200 309.550 V 303.750 C 217.200 303.650 217.100 303.750 217.200 303.750 H 220.100 C 220.155 303.750 220.200 303.705 220.200 303.650 V 301.500 C 220.200 301.445 220.155 301.400 220.100 301.400 H 217.100 H 13.100 H 10.100 C 10.045 301.400 10.000 301.445 10.000 301.500 V 303.650 C 10.000 303.705 10.045 303.750 10.100 303.750 H 13.000 C 13.100 303.750 13.000 303.650 13.000 303.750 V 309.550 C 13.000 309.650 13.100 309.550 13.000 309.550 H 10.100 C 10.045 309.550 10.000 309.595 10.000 309.650 V 311.800 C 10.000 311.855 10.045 311.900 10.100 311.900 H 13.100 Z" stroke="rgb(0,0,0)" stroke-width="0.20" />
  <text dominant-baseline="hanging" font-size="4px" style="font-family: sans-serif ; font-weight: normal; font-style: normal; fill: rgb(255,0,0)" text-anchor="middle" transform="matrix( 1.000 0.000 0.000 1.000 115.100 308.600 )">front</text>
</g>
<g id="p-4" style="fill:none;stroke-linecap:round;stroke-linejoin:round;">
  <path d="M 25.100 283.100 H 22.200 C 22.100 283.100 22.200 283.200 22.200 283.100 V 280.300 C 22.200 280.200 22.100 280.300 22.200 280.300 H 28.000 C 28.100 280.300 28.000 280.200 28.000 280.300 V 283.100 C 28.000 283.200 28.100 283.100 28.000 283.100 H 25.100 Z" stroke="rgb(0,0,255)" stroke-width="0.20" />
  <path d="M 37.100 283.100 H 34.200 C 34.100 283.100 34.200 283.200 34.200 283.100 V 280.300 C 34.200 280.200 34.100 280.300 34.200 280.300 H 40.000 C 40.100 280.300 40.000 280.200 40.000 280.300 V 283.100 C 40.000 283.200 40.100 283.100 40.000 283.100 H 37.100 Z" stroke="rgb(0,0,255)" stroke-width="0.20" />
  <path d="M 49.100 283.100 H 46.200 C 46.100 283.100 46.200 283.200 46.200 283.100 V 280.300 C 46.200 280.200 46.100 280.300 46.200 280.300 H 52.000 C 52.100 280.300 52.000 280.200 52.000 280.300 V 283.100 C 52.000 283.200 52.100 283.100 52.000 283.100 H 49.100 Z" stroke="rgb(0,0,255)" stroke-width="0.20" />
  <path d="M 61.100 283.100 H 58.200 C 58.100 283.100 58.200 283.200 58.200 283.100 V 280.300 C 58.200 280.200 58.100 280.300 58.200 280.300 H 64.000 C 64.100 280.300 64.000 280.200 64.000 280.300 V 283.100 C 64.000 283.200 64.100 283.100 64.000 283.100 H 61.100 Z" stroke="rgb(0,0,255)" stroke-width="0.20" />
  <path d="M 73.100 283.100 H 70.200 C 70.100 283.100 70.200 283.200 70.200 283.100 V 280.300 C 70.200 280.200 70.100 280.300 70.200 280.300 H 76.000 C 76.100 280.300 76.000 280.200 76.000 280.300 V 283.100 C 76.000 283.200 76.100 283.100 76.000 283.100 H 73.100 Z" stroke="rgb(0,0,255)" stroke-width="0.20" />
  <path d="M 85.100 283.100 H 82.200 C 82.100 283.100 82.200 283.200 82.200 283.100 V 280.300 C 82.200 280.200 82.100 280.300 82.200 280.300 H 88.000 C 88.100 280.300 88.000 280.200 88.000 280.300 V 283.100 C 88.000 283.200 88.100 283.100 88.000 283.100 H 85.100 Z" stroke="rgb(0,0,255)" stroke-width="0.20" />
  <path d="M 97.100 283.100 H 94.200 C 94.100 283.100 94.200 283.200 94.200 283.100 V 280.300 C 94.200 280.200 94.100 280.300 94.200 280.300 H 100.000 C 100.100 280.300 100.000 280.200 100.000 280.300 V 283.100 C 100.000 283.200 100.100 283.100 100.000 283.100 H 97.100 Z" stroke="rgb(0,0,255)" stroke-width="0.20" />
  <path d="M 109.100 283.100 H 106.200 C 106.100 283.100 106.200 283.200 106.200 283.100 V 280.300 C 106.200 280.200 106.100 280.300 106.200 280.300 H 112.000 C 112.100 280.300 112.000 280.200 112.000 280.300 V 283.100 C 112.000 283.200 112.100 283.100 112.000 283.100 H 109.100 Z" stroke="rgb(0,0,255)" stroke-width="0.20" />
  <path d="M 121.100 283.100 H 118.200 C 118.100 283.100 118.200 283.200 118.200 283.100 V 280.300 C 118.200 280.200 118.100 280.300 118.200 280.300 H 124.000 C 124.100 280.300 124.000 280.200 124.000 280.300 V 283.100 C 124.000 283.200 124.100 283.100 124.000 283.100 H 121.100 Z" stroke="rgb(0,0,255)" stroke-width="0.20" />
  <path d="M 133.100 283.100 H 130.200 C 130.100 283.100 130.200 283.200 130.200 283.100 V 280.300 C 130.200 280.200 130.100 280.300 130.200 280.300 H 136.000 C 136.100 280.300 136.000 280.200 136.000 280.300 V 283.100 C 136.000 283.200 136.100 283.100 136.000 283.100 H 133.100 Z" stroke="rgb(0,0,255)" stroke-width="0.20" />
  <path d="M 145.100 283.100 H 142.200 C 142.100 283.100 142.200 283.200 142.200 283.100 V 280.300 C 142.200 280.200 142.100 280.300 142.200 280.300 H 148.000 C 148.100 280.300 148.000 280.200 148.000 280.300 V 283.100 C 148.000 283.200 148.100 283.100 148.000 283.100 H 145.100 Z" stroke="rgb(0,0,255)" stroke-width="0.20" />
  <path d="M 157.100 283.100 H 154.200 C 154.100 283.100 154.200 283.200 154.200 283.100 V 280.300 C 154.200 280.200 154.100 280.300 154.200 280.300 H 160.000 C 160.100 280.300 160.000 280.200 160.000 280.300 V 283.100 C 160.000 283.200 160.100 283.100 160.000 283.100 H 157.100 Z" stroke="rgb(0,0,255)" stroke-width="0.20" />
  <path d="M 169.100 283.100 H 166.200 C 166.100 283.100 166.200 283.200 166.200 283.100 V 280.300 C 166.200 280.200 166.100 280.300 166.200 280.300 H 172.000 C 172.100 280.300 172.000 280.200 172.000 280.300 V 283.100 C 172.000 283.200 172.100 283.100 172.000 283.100 H 169.100 Z" stroke="rgb(0,0,255)" stroke-width="0.20" />
  <path d="M 181.100 283.100 H 178.200 C 178.100 283.100 178.200 283.200 178.200 283.100 V 280.300 C 178.200 280.200 178.100 280.300 178.200 280.300 H 184.000 C 184.100 280.300 184.000 280.200 184.000 280.300 V 283.100 C 184.000 283.200 184.100 283.100 184.000 283.100 H 181.100 Z" stroke="rgb(0,0,255)" stroke-width="0.20" />
  <path d="M 193.100 283.100 H 190.200 C 190.100 283.100 190.200 283.200 190.200 283.100 V 280.300 C 190.200 280.200 190.100 280.300 190.200 280.300 H 196.000 C 196.100 280.300 196.000 280.200 196.000 280.300 V 283.100 C 196.000 283.200 196.100 283.100 196.000 283.100 H 193.100 Z" stroke="rgb(0,0,255)" stroke-width="0.20" />
  <path d="M 205.100 283.100 H 202.200 C 202.100 283.100 202.200 283.200 202.200 283.100 V 280.300 C 202.200 280.200 202.100 280.300 202.200 280.300 H 208.000 C 208.100 280.300 208.000 280.200 208.000 280.300 V 283.100 C 208.000 283.200 208.100 283.100 208.000 283.100 H 205.100 Z" stroke="rgb(0,0,255)" stroke-width="0.20" />
</g>
<g id="p-5" style="fill:none;stroke-linecap:round;stroke-linejoin:round;">
  <path d="M 13.100 299.050 H 213.950 C 214.005 299.050 214.050 299.005 214.050 298.950 V 292.950 C 214.050 292.895 214.005 292.850 213.950 292.850 H 13.100 C 13.045 292.850 13.000 292.895 13.000 292.950 V 298.950 C 13.000 299.005 13.045 299.050 13.100 299.050 Z" stroke="rgb(0,0,0)" stroke-width="0.20" />
</g>
<g id="p-6" style="fill:none;stroke-linecap:round;stroke-linejoin:round;">
  <path d="M 13.100 292.200 H 25.100 C 26.171 292.200 27.223 291.918 28.150 291.383 C 29.077 290.847 29.847 290.077 30.383 289.150 C 30.901 288.253 31.645 287.508 32.542 286.990 C 33.439 286.473 34.457 286.200 35.492 286.200 H 194.708 C 195.743 286.200 196.761 286.473 197.658 286.990 C 198.555 287.508 199.299 288.253 199.817 289.150 C 200.353 290.077 201.123 290.847 202.050 291.383 C 202.977 291.918 204.029 292.200 205.100 292.200 H 217.100 H 220.100 C 220.155 292.200 220.200 292.155 220.200 292.100 V 289.950 C 220.200 289.895 220.155 289.850 220.100 289.850 H 217.200 C 217.100 289.850 217.200 289.950 217.200 289.850 V 284.050 C 217.200 283.950 217.100 284.050 217.200 284.050 H 220.100 C 220.155 284.050 220.200 284.005 220.200 283.950 V 281.800 C 220.200 281.745 220.155 281.700 220.100 281.700 H 217.100 H 13.100 H 10.100 C 10.045 281.700 10.000 281.745 10.000 281.800 V 283.950 C 10.000 284.005 10.045 284.050 10.100 284.050 H 13.000 C 13.100 284.050 13.000 283.950 13.000 284.050 V 289.850 C 13.000 289.950 13.100 289.850 13.000 289.850 H 10.100 C 10.045 289.850 10.000 289.895 10.000 289.950 V 292.100 C 10.000 292.155 10.045 292.200 10.100 292.200 H 13.100 Z" stroke="rgb(0,0,0)" stroke-width="0.20" />
  <text dominant-baseline="hanging" font-size="4px" style="font-family: sans-serif ; font-weight: normal; font-style: normal; fill: rgb(255,0,0)" text-anchor="middle" transform="matrix( 1.000 0.000 0.000 1.000 115.100 288.900 )">back</text>
</g>
<g id="p-7" style="fill:none;stroke-linecap:round;stroke-linejoin:round;">
  <path d="M 13.100 277.200 H 22.000 C 22.100 277.200 22.000 277.100 22.000 277.200 V 280.100 C 22.000 280.155 22.045 280.200 22.100 280.200 H 28.100 C 28.155 280.200 28.200 280.155 28.200 280.100 V 277.200 C 28.200 277.100 28.100 277.200 28.200 277.200 H 34.000 C 34.100 277.200 34.000 277.100 34.000 277.200 V 280.100 C 34.000 280.155 34.045 280.200 34.100 280.200 H 40.100 C 40.155 280.200 40.200 280.155 40.200 280.100 V 277.200 C 40.200 277.100 40.100 277.200 40.200 277.200 H 46.000 C 46.100 277.200 46.000 277.100 46.000 277.200 V 280.100 C 46.000 280.155 46.045 280.200 46.100 280.200 H 52.100 C 52.155 280.200 52.200 280.155 52.200 280.100 V 277.200 C 52.200 277.100 52.100 277.200 52.200 277.200 H 58.000 C 58.100 277.200 58.000 277.100 58.000 277.200 V 280.100 C 58.000 280.155 58.045 280.200 58.100 280.200 H 64.100 C 64.155 280.200 64.200 280.155 64.200 280.100 V 277.200 C 64.200 277.100 64.100 277.200 64.200 277.200 H 70.000 C 70.100 277.200 70.000 277.100 70.000 277.200 V 280.100 C 70.000 280.155 70.045 280.200 70.100 280.200 H 76.100 C 76.155 280.200 76.200 280.155 76.200 280.100 V 277.200 C 76.200 277.100 76.100 277.200 76.200 277.200 H 82.000 C 82.100 277.200 82.000 277.100 82.000 277.200 V 280.100 C 82.000 280.155 82.045 280.200 82.100 280.200 H 88.100 C 88.155 280.200 88.200 280.155 88.200 280.100 V 277.200 C 88.200 277.100 88.100 277.200 88.200 277.200 H 94.000 C 94.100 277.200 94.000 277.100 94.000 277.200 V 280.100 C 94.000 280.155 94.045 280.200 94.100 280.200 H 100.100 C 100.155 280.200 100.200 280.155 100.200 280.100 V 277.200 C 100.200 277.100 100.100 277.200 100.200 277.200 H 106.000 C 106.100 277.200 106.000 277.100 106.000 277.200 V 280.100 C 106.000 280.155 106.045 280.200 106.100 280.200 H 112.100 C 112.155 280.200 112.200 280.155 112.200 280.100 V 277.200 C 112.200 277.100 112.100 277.200 112.200 277.200 H 118.000 C 118.100 277.200 118.000 277.100 118.000 277.200 V 280.100 C 118.000 280.155 118.045 280.200 118.100 280.200 H 124.100 C 124.155 280.200 124.200 280.155 124.200 280.100 V 277.200 C 124.200 277.100 124.100 277.200 124.200 277.200 H 130.000 C 130.100 277.200 130.000 277.100 130.000 277.200 V 280.100 C 130.000 280.155 130.045 280.200 130.100 280.200 H 136.100 C 136.155 280.200 136.200 280.155 136.200 280.100 V 277.200 C 136.200 277.100 136.100 277.200 136.200 277.200 H 142.000 C 142.100 277.200 142.000 277.100 142.000 277.200 V 280.100 C 142.000 280.155 142.045 280.200 142.100 280.200 H 148.100 C 148.155 280.200 148.200 280.155 148.200 280.100 V 277.200 C 148.200 277.100 148.100 277.200 148.200 277.200 H 154.000 C 154.100 277.200 154.000 277.100 154.000 277.200 V 280.100 C 154.000 280.155 154.045 280.200 154.100 280.200 H 160.100 C 160.155 280.200 160.200 280.155 160.200 280.100 V 277.200 C 160.200 277.100 160.100 277.200 160.200 277.200 H 166.000 C 166.100 277.200 166.000 277.100 166.000 277.200 V 280.100 C 166.000 280.155 166.045 280.200 166.100 280.200 H 172.100 C 172.155 280.200 172.200 280.155 172.200 280.100 V 277.200 C 172.200 277.100 172.100 277.200 172.200 277.200 H 178.000 C 178.100 277.200 178.000 277.100 178.000 277.200 V 280.100 C 178.000 280.155 178.045 280.200 178.100 280.200 H 184.100 C 184.155 280.200 184.200 280.155 184.200 280.100 V 277.200 C 184.200 277.100 184.100 277.200 184.200 277.200 H 190.000 C 190.100 277.200 190.000 277.100 190.000 277.200 V 280.100 C 190.000 280.155 190.045 280.200 190.100 280.200 H 196.100 C 196.155 280.200 196.200 280.155 196.200 280.100 V 277.200 C 196.200 277.100 196.100 277.200 196.200 277.200 H 202.000 C 202.100 277.200 202.000 277.100 202.000 277.200 V 280.100 C 202.000 280.155 202.045 280.200 202.100 280.200 H 208.100 C 208.155 280.200 208.200 280.155 208.200 280.100 V 277.200 C 208.200 277.100 208.100 277.200 208.200 277.200 H 217.100 C 217.155 277.200 217.200 277.155 217.200 277.100 V 268.200 C 217.200 268.100 217.100 268.200 217.200 268.200 H 220.100 C 220.155 268.200 220.200 268.155 220.200 268.100 V 262.100 C 220.200 262.045 220.155 262.000 220.100 262.000 H 217.200 C 217.100 262.000 217.200 262.100 217.200 262.000 V 256.200 C 217.200 256.100 217.100 256.200 217.200 256.200 H 220.100 C 220.155 256.200 220.200 256.155 220.200 256.100 V 250.100 C 220.200 250.045 220.155 250.000 220.100 250.000 H 217.200 C 217.100 250.000 217.200 250.100 217.200 250.000 V 244.200 C 217.200 244.100 217.100 244.200 217.200 244.200 H 220.100 C 220.155 244.200 220.200 244.155 220.200 244.100 V 238.100 C 220.200 238.045 220.155 238.000 220.100 238.000 H 217.200 C 217.100 238.000 217.200 238.100 217.200 238.000 V 232.200 C 217.200 232.100 217.100 232.200 217.200 232.200 H 220.100 C 220.155 232.200 220.200 232.155 220.200 232.100 V 226.100 C 220.200 226.045 220.155 226.000 220.100 226.000 H 217.200 C 217.100 226.000 217.200 226.100 217.200 226.000 V 220.200 C 217.200 220.100 217.100 220.200 217.200 220.200 H 220.100 C 220.155 220.200 220.200 220.155 220.200 220.100 V 214.100 C 220.200 214.045 220.155 214.000 220.100 214.000 H 217.200 C 217.100 214.000 217.200 214.100 217.200 214.000 V 208.200 C 217.200 208.100 217.100 208.200 217.200 208.200 H 220.100 C 220.155 208.200 220.200 208.155 220.200 208.100 V 202.100 C 220.200 202.045 220.155 202.000 220.100 202.000 H 217.200 C 217.100 202.000 217.200 202.100 217.200 202.000 V 196.200 C 217.200 196.100 217.100 196.200 217.200 196.200 H 220.100 C 220.155 196.200 220.200 196.155 220.200 196.100 V 190.100 C 220.200 190.045 220.155 190.000 220.100 190.000 H 217.200 C 217.100 190.000 217.200 190.100 217.200 190.000 V 184.200 C 217.200 184.100 217.100 184.200 217.200 184.200 H 220.100 C 220.155 184.200 220.200 184.155 220.200 184.100 V 178.100 C 220.200 178.045 220.155 178.000 220.100 178.000 H 217.200 C 217.100 178.000 217.200 178.100 217.200 178.000 V 172.200 C 217.200 172.100 217.100 172.200 217.200 172.200 H 220.100 C 220.155 172.200 220.200 172.155 220.200 172.100 V 166.100 C 220.200 166.045 220.155 166.000 220.100 166.000 H 217.200 C 217.100 166.000 217.200 166.100 217.200 166.000 V 160.200 C 217.200 160.100 217.100 160.200 217.200 160.200 H 220.100 C 220.155 160.200 220.200 160.155 220.200 160.100 V 154.100 C 220.200 154.045 220.155 154.000 220.100 154.000 H 217.200 C 217.100 154.000 217.200 154.100 217.200 154.000 V 148.200 C 217.200 148.100 217.100 148.200 217.200 148.200 H 220.100 C 220.155 148.200 220.200 148.155 220.200 148.100 V 142.100 C 220.200 142.045 220.155 142.000 220.100 142.000 H 217.200 C 217.100 142.000 217.200 142.100 217.200 142.000 V 136.200 C 217.200 136.100 217.100 136.200 217.200 136.200 H 220.100 C 220.155 136.200 220.200 136.155 220.200 136.100 V 130.100 C 220.200 130.045 220.155 130.000 220.100 130.000 H 217.200 C 217.100 130.000 217.200 130.100 217.200 130.000 V 124.200 C 217.200 124.100 217.100 124.200 217.200 124.200 H 220.100 C 220.155 124.200 220.200 124.155 220.200 124.100 V 118.100 C 220.200 118.045 220.155 118.000 220.100 118.000 H 217.200 C 217.100 118.000 217.200 118.100 217.200 118.000 V 112.200 C 217.200 112.100 217.100 112.200 217.200 112.200 H 220.100 C 220.155 112.200 220.200 112.155 220.200 112.100 V 106.100 C 220.200 106.045 220.155 106.000 220.100 106.000 H 217.200 C 217.100 106.000 217.200 106.100 217.200 106.000 V 100.200 C 217.200 100.100 217.100 100.200 217.200 100.200 H 220.100 C 220.155 100.200 220.200 100.155 220.200 100.100 V 94.100 C 220.200 94.045 220.155 94.000 220.100 94.000 H 217.200 C 217.100 94.000 217.200 94.100 217.200 94.000 V 88.200 C 217.200 88.100 217.100 88.200 217.200 88.200 H 220.100 C 220.155 88.200 220.200 88.155 220.200 88.100 V 82.100 C 220.200 82.045 220.155 82.000 220.100 82.000 H 217.200 C 217.100 82.000 217.200 82.100 217.200 82.000 V 76.200 C 217.200 76.100 217.100 76.200 217.200 76.200 H 220.100 C 220.155 76.200 220.200 76.155 220.200 76.100 V 70.100 C 220.200 70.045 220.155 70.000 220.100 70.000 H 217.200 C 217.100 70.000 217.200 70.100 217.200 70.000 V 64.200 C 217.200 64.100 217.100 64.200 217.200 64.200 H 220.100 C 220.155 64.200 220.200 64.155 220.200 64.100 V 58.100 C 220.200 58.045 220.155 58.000 220.100 58.000 H 217.200 C 217.100 58.000 217.200 58.100 217.200 58.000 V 52.200 C 217.200 52.100 217.100 52.200 217.200 52.200 H 220.100 C 220.155 52.200 220.200 52.155 220.200 52.100 V 46.100 C 220.200 46.045 220.155 46.000 220.100 46.000 H 217.200 C 217.100 46.000 217.200 46.100 217.200 46.000 V 40.200 C 217.200 40.100 217.100 40.200 217.200 40.200 H 220.100 C 220.155 40.200 220.200 40.155 220.200 40.100 V 34.100 C 220.200 34.045 220.155 34.000 220.100 34.000 H 217.200 C 217.100 34.000 217.200 34.100 217.200 34.000 V 28.200 C 217.200 28.100 217.100 28.200 217.200 28.200 H 220.100 C 220.155 28.200 220.200 28.155 220.200 28.100 V 22.100 C 220.200 22.045 220.155 22.000 220.100 22.000 H 217.200 C 217.100 22.000 217.200 22.100 217.200 22.000 V 13.100 C 217.200 13.045 217.155 13.000 217.100 13.000 H 208.200 C 208.100 13.000 208.200 13.100 208.200 13.000 V 10.100 C 208.200 10.045 208.155 10.000 208.100 10.000 H 202.100 C 202.045 10.000 202.000 10.045 202.000 10.100 V 13.000 C 202.000 13.100 202.100 13.000 202.000 13.000 H 196.200 C 196.100 13.000 196.200 13.100 196.200 13.000 V 10.100 C 196.200 10.045 196.155 10.000 196.100 10.000 H 190.100 C 190.045 10.000 190.000 10.045 190.000 10.100 V 13.000 C 190.000 13.100 190.100 13.000 190.000 13.000 H 184.200 C 184.100 13.000 184.200 13.100 184.200 13.000 V 10.100 C 184.200 10.045 184.155 10.000 184.100 10.000 H 178.100 C 178.045 10.000 178.000 10.045 178.000 10.100 V 13.000 C 178.000 13.100 178.100 13.000 178.000 13.000 H 172.200 C 172.100 13.000 172.200 13.100 172.200 13.000 V 10.100 C 172.200 10.045 172.155 10.000 172.100 10.000 H 166.100 C 166.045 10.000 166.000 10.045 166.000 10.100 V 13.000 C 166.000 13.100 166.100 13.000 166.000 13.000 H 160.200 C 160.100 13.000 160.200 13.100 160.200 13.000 V 10.100 C 160.200 10.045 160.155 10.000 160.100 10.000 H 154.100 C 154.045 10.000 154.000 10.045 154.000 10.100 V 13.000 C 154.000 13.100 154.100 13.000 154.000 13.000 H 148.200 C 148.100 13.000 148.200 13.100 148.200 13.000 V 10.100 C 148.200 10.045 148.155 10.000 148.100 10.000 H 142.100 C 142.045 10.000 142.000 10.045 142.000 10.100 V 13.000 C 142.000 13.100 142.100 13.000 142.000 13.000 H 136.200 C 136.100 13.000 136.200 13.100 136.200 13.000 V 10.100 C 136.200 10.045 136.155 10.000 136.100 10.000 H 130.100 C 130.045 10.000 130.000 10.045 130.000 10.100 V 13.000 C 130.000 13.100 130.100 13.000 130.000 13.000 H 124.200 C 124.100 13.000 124.200 13.100 124.200 13.000 V 10.100 C 124.200 10.045 124.155 10.000 124.100 10.000 H 118.100 C 118.045 10.000 118.000 10.045 118.000 10.100 V 13.000 C 118.000 13.100 118.100 13.000 118.000 13.000 H 112.200 C 112.100 13.000 112.200 13.100 112.200 13.000 V 10.100 C 112.200 10.045 112.155 10.000 112.100 10.000 H 106.100 C 106.045 10.000 106.000 10.045 106.000 10.100 V 13.000 C 106.000 13.100 106.100 13.000 106.000 13.000 H 100.200 C 100.100 13.000 100.200 13.100 100.200 13.000 V 10.100 C 100.200 10.045 100.155 10.000 100.100 10.000 H 94.100 C 94.045 10.000 94.000 10.045 94.000 10.100 V 13.000 C 94.000 13.100 94.100 13.000 94.000 13.000 H 88.200 C 88.100 13.000 88.200 13.100 88.200 13.000 V 10.100 C 88.200 10.045 88.155 10.000 88.100 10.000 H 82.100 C 82.045 10.000 82.000 10.045 82.000 10.100 V 13.000 C 82.000 13.100 82.100 13.000 82.000 13.000 H 76.200 C 76.100 13.000 76.200 13.100 76.200 13.000 V 10.100 C 76.200 10.045 76.155 10.000 76.100 10.000 H 70.100 C 70.045 10.000 70.000 10.045 70.000 10.100 V 13.000 C 70.000 13.100 70.100 13.000 70.000 13.000 H 64.200 C 64.100 13.000 64.200 13.100 64.200 13.000 V 10.100 C 64.200 10.045 64.155 10.000 64.100 10.000 H 58.100 C 58.045 10.000 58.000 10.045 58.000 10.100 V 13.000 C 58.000 13.100 58.100 13.000 58.000 13.000 H 52.200 C 52.100 13.000 52.200 13.100 52.200 13.000 V 10.100 C 52.200 10.045 52.155 10.000 52.100 10.000 H 46.100 C 46.045 10.000 46.000 10.045 46.000 10.100 V 13.000 C 46.000 13.100 46.100 13.000 46.000 13.000 H 40.200 C 40.100 13.000 40.200 13.100 40.200 13.000 V 10.100 C 40.200 10.045 40.155 10.000 40.100 10.000 H 34.100 C 34.045 10.000 34.000 10.045 34.000 10.100 V 13.000 C 34.000 13.100 34.100 13.000 34.000 13.000 H 28.200 C 28.100 13.000 28.200 13.100 28.200 13.000 V 10.100 C 28.200 10.045 28.155 10.000 28.100 10.000 H 22.100 C 22.045 10.000 22.000 10.045 22.000 10.100 V 13.000 C 22.000 13.100 22.100 13.000 22.000 13.000 H 13.100 C 13.045 13.000 13.000 13.045 13.000 13.100 V 22.000 C 13.000 22.100 13.100 22.000 13.000 22.000 H 10.100 C 10.045 22.000 10.000 22.045 10.000 22.100 V 28.100 C 10.000 28.155 10.045 28.200 10.100 28.200 H 13.000 C 13.100 28.200 13.000 28.100 13.000 28.200 V 34.000 C 13.000 34.100 13.100 34.000 13.000 34.000 H 10.100 C 10.045 34.000 10.000 34.045 10.000 34.100 V 40.100 C 10.000 40.155 10.045 40.200 10.100 40.200 H 13.000 C 13.100 40.200 13.000 40.100 13.000 40.200 V 46.000 C 13.000 46.100 13.100 46.000 13.000 46.000 H 10.100 C 10.045 46.000 10.000 46.045 10.000 46.100 V 52.100 C 10.000 52.155 10.045 52.200 10.100 52.200 H 13.000 C 13.100 52.200 13.000 52.100 13.000 52.200 V 58.000 C 13.000 58.100 13.100 58.000 13.000 58.000 H 10.100 C 10.045 58.000 10.000 58.045 10.000 58.100 V 64.100 C 10.000 64.155 10.045 64.200 10.100 64.200 H 13.000 C 13.100 64.200 13.000 64.100 13.000 64.200 V 70.000 C 13.000 70.100 13.100 70.000 13.000 70.000 H 10.100 C 10.045 70.000 10.000 70.045 10.000 70.100 V 76.100 C 10.000 76.155 10.045 76.200 10.100 76.200 H 13.000 C 13.100 76.200 13.000 76.100 13.000 76.200 V 82.000 C 13.000 82.100 13.100 82.000 13.000 82.000 H 10.100 C 10.045 82.000 10.000 82.045 10.000 82.100 V 88.100 C 10.000 88.155 10.045 88.200 10.100 88.200 H 13.000 C 13.100 88.200 13.000 88.100 13.000 88.200 V 94.000 C 13.000 94.100 13.100 94.000 13.000 94.000 H 10.100 C 10.045 94.000 10.000 94.045 10.000 94.100 V 100.100 C 10.000 100.155 10.045 100.200 10.100 100.200 H 13.000 C 13.100 100.200 13.000 100.100 13.000 100.200 V 106.000 C 13.000 106.100 13.100 106.000 13.000 106.000 H 10.100 C 10.045 106.000 10.000 106.045 10.000 106.100 V 112.100 C 10.000 112.155 10.045 112.200 10.100 112.200 H 13.000 C 13.100 112.200 13.000 112.100 13.000 112.200 V 118.000 C 13.000 118.100 13.100 118.000 13.000 118.000 H 10.100 C 10.045 118.000 10.000 118.045 10.000 118.100 V 124.100 C 10.000 124.155 10.045 124.200 10.100 124.200 H 13.000 C 13.100 124.200 13.000 124.100 13.000 124.200 V 130.000 C 13.000 130.100 13.100 130.000 13.000 130.000 H 10.100 C 10.045 130.000 10.000 130.045 10.000 130.100 V 136.100 C 10.000 136.155 10.045 136.200 10.100 136.200 H 13.000 C 13.100 136.200 13.000 136.100 13.000 136.200 V 142.000 C 13.000 142.100 13.100 142.000 13.000 142.000 H 10.100 C 10.045 142.000 10.000 142.045 10.000 142.100 V 148.100 C 10.000 148.155 10.045 148.200 10.100 148.200 H 13.000 C 13.100 148.200 13.000 148.100 13.000 148.200 V 154.000 C 13.000 154.100 13.100 154.000 13.000 154.000 H 10.100 C 10.045 154.000 10.000 154.045 10.000 154.100 V 160.100 C 10.000 160.155 10.045 160.200 10.100 160.200 H 13.000 C 13.100 160.200 13.000 160.100 13.000 160.200 V 166.000 C 13.000 166.100 13.100 166.000 13.000 166.000 H 10.100 C 10.045 166.000 10.000 166.045 10.000 166.100 V 172.100 C 10.000 172.155 10.045 172.200 10.100 172.200 H 13.000 C 13.100 172.200 13.000 172.100 13.000 172.200 V 178.000 C 13.000 178.100 13.100 178.000 13.000 178.000 H 10.100 C 10.045 178.000 10.000 178.045 10.000 178.100 V 184.100 C 10.000 184.155 10.045 184.200 10.100 184.200 H 13.000 C 13.100 184.200 13.000 184.100 13.000 184.200 V 190.000 C 13.000 190.100 13.100 190.000 13.000 190.000 H 10.100 C 10.045 190.000 10.000 190.045 10.000 190.100 V 196.100 C 10.000 196.155 10.045 196.200 10.100 196.200 H 13.000 C 13.100 196.200 13.000 196.100 13.000 196.200 V 202.000 C 13.000 202.100 13.100 202.000 13.000 202.000 H 10.100 C 10.045 202.000 10.000 202.045 10.000 202.100 V 208.100 C 10.000 208.155 10.045 208.200 10.100 208.200 H 13.000 C 13.100 208.200 13.000 208.100 13.000 208.200 V 214.000 C 13.000 214.100 13.100 214.000 13.000 214.000 H 10.100 C 10.045 214.000 10.000 214.045 10.000 214.100 V 220.100 C 10.000 220.155 10.045 220.200 10.100 220.200 H 13.000 C 13.100 220.200 13.000 220.100 13.000 220.200 V 226.000 C 13.000 226.100 13.100 226.000 13.000 226.000 H 10.100 C 10.045 226.000 10.000 226.045 10.000 226.100 V 232.100 C 10.000 232.155 10.045 232.200 10.100 232.200 H 13.000 C 13.100 232.200 13.000 232.100 13.000 232.200 V 238.000 C 13.000 238.100 13.100 238.000 13.000 238.000 H 10.100 C 10.045 238.000 10.000 238.045 10.000 238.100 V 244.100 C 10.000 244.155 10.045 244.200 10.100 244.200 H 13.000 C 13.100 244.200 13.000 244.100 13.000 244.200 V 250.000 C 13.000 250.100 13.100 250.000 13.000 250.000 H 10.100 C 10.045 250.000 10.000 250.045 10.000 250.100 V 256.100 C 10.000 256.155 10.045 256.200 10.100 256.200 H 13.000 C 13.100 256.200 13.000 256.100 13.000 256.200 V 262.000 C 13.000 262.100 13.100 262.000 13.000 262.000 H 10.100 C 10.045 262.000 10.000 262.045 10.000 262.100 V 268.100 C 10.000 268.155 10.045 268.200 10.100 268.200 H 13.000 C 13.100 268.200 13.000 268.100 13.000 268.200 V 277.100 C 13.000 277.155 13.045 277.200 13.100 277.200 Z" stroke="rgb(0,0,0)" stroke-width="0.20" />
  <text dominant-baseline="hanging" font-size="4px" style="font-family: sans-serif ; font-weight: normal; font-style: normal; fill: rgb(255,0,0)" text-anchor="middle" transform="matrix( 1.000 0.000 0.000 1.000 115.100 143.200 )">bottom</text>
</g>
<g id="p-8" style="fill:none;stroke-linecap:round;stroke-linejoin:round;">
  <path d="M 236.800 302.800 H 233.900 C 233.800 302.800 233.900 302.900 233.900 302.800 V 300.000 C 233.900 299.900 233.800 300.000 233.900 300.000 H 239.700 C 239.800 300.000 239.700 299.900 239.700 300.000 V 302.800 C 239.700 302.900 239.800 302.800 239.700 302.800 H 236.800 Z" stroke="rgb(0,0,255)" stroke-width="0.20" />
  <path d="M 248.800 302.800 H 245.900 C 245.800 302.800 245.900 302.900 245.900 302.800 V 300.000 C 245.900 299.900 245.800 300.000 245.900 300.000 H 251.700 C 251.800 300.000 251.700 299.900 251.700 300.000 V 302.800 C 251.700 302.900 251.800 302.800 251.700 302.800 H 248.800 Z" stroke="rgb(0,0,255)" stroke-width="0.20" />
  <path d="M 260.800 302.800 H 257.900 C 257.800 302.800 257.900 302.900 257.900 302.800 V 300.000 C 257.900 299.900 257.800 300.000 257.900 300.000 H 263.700 C 263.800 300.000 263.700 299.900 263.700 300.000 V 302.800 C 263.700 302.900 263.800 302.800 263.700 302.800 H 260.800 Z" stroke="rgb(0,0,255)" stroke-width="0.20" />
  <path d="M 272.800 302.800 H 269.900 C 269.800 302.800 269.900 302.900 269.900 302.800 V 300.000 C 269.900 299.900 269.800 300.000 269.900 300.000 H 275.700 C 275.800 300.000 275.700 299.900 275.700 300.000 V 302.800 C 275.700 302.900 275.800 302.800 275.700 302.800 H 272.800 Z" stroke="rgb(0,0,255)" stroke-width="0.20" />
  <path d="M 284.800 302.800 H 281.900 C 281.800 302.800 281.900 302.900 281.900 302.800 V 300.000 C 281.900 299.900 281.800 300.000 281.900 300.000 H 287.700 C 287.800 300.000 287.700 299.900 287.700 300.000 V 302.800 C 287.700 302.900 287.800 302.800 287.700 302.800 H 284.800 Z" stroke="rgb(0,0,255)" stroke-width="0.20" />
  <path d="M 296.800 302.800 H 293.900 C 293.800 302.800 293.900 302.900 293.900 302.800 V 300.000 C 293.900 299.900 293.800 300.000 293.900 300.000 H 299.700 C 299.800 300.000 299.700 299.900 299.700 300.000 V 302.800 C 299.700 302.900 299.800 302.800 299.700 302.800 H 296.800 Z" stroke="rgb(0,0,255)" stroke-width="0.20" />
  <path d="M 308.800 302.800 H 305.900 C 305.800 302.800 305.900 302.900 305.900 302.800 V 300.000 C 305.900 299.900 305.800 300.000 305.900 300.000 H 311.700 C 311.800 300.000 311.700 299.900 311.700 300.000 V 302.800 C 311.700 302.900 311.800 302.800 311.700 302.800 H 308.800 Z" stroke="rgb(0,0,255)" stroke-width="0.20" />
  <path d="M 320.800 302.800 H 317.900 C 317.800 302.800 317.900 302.900 317.900 302.800 V 300.000 C 317.900 299.900 317.800 300.000 317.900 300.000 H 323.700 C 323.800 300.000 323.700 299.900 323.700 300.000 V 302.800 C 323.700 302.900 323.800 302.800 323.700 302.800 H 320.800 Z" stroke="rgb(0,0,255)" stroke-width="0.20" />
  <path d="M 332.800 302.800 H 329.900 C 329.800 302.800 329.900 302.900 329.900 302.800 V 300.000 C 329.900 299.900 329.800 300.000 329.900 300.000 H 335.700 C 335.800 300.000 335.700 299.900 335.700 300.000 V 302.800 C 335.700 302.900 335.800 302.800 335.700 302.800 H 332.800 Z" stroke="rgb(0,0,255)" stroke-width="0.20" />
  <path d="M 344.800 302.800 H 341.900 C 341.800 302.800 341.900 302.900 341.900 302.800 V 300.000 C 341.900 299.900 341.800 300.000 341.900 300.000 H 347.700 C 347.800 300.000 347.700 299.900 347.700 300.000 V 302.800 C 347.700 302.900 347.800 302.800 347.700 302.800 H 344.800 Z" stroke="rgb(0,0,255)" stroke-width="0.20" />
  <path d="M 356.800 302.800 H 353.900 C 353.800 302.800 353.900 302.900 353.900 302.800 V 300.000 C 353.900 299.900 353.800 300.000 353.900 300.000 H 359.700 C 359.800 300.000 359.700 299.900 359.700 300.000 V 302.800 C 359.700 302.900 359.800 302.800 359.700 302.800 H 356.800 Z" stroke="rgb(0,0,255)" stroke-width="0.20" />
  <path d="M 368.800 302.800 H 365.900 C 365.800 302.800 365.900 302.900 365.900 302.800 V 300.000 C 365.900 299.900 365.800 300.000 365.900 300.000 H 371.700 C 371.800 300.000 371.700 299.900 371.700 300.000 V 302.800 C 371.700 302.900 371.800 302.800 371.700 302.800 H 368.800 Z" stroke="rgb(0,0,255)" stroke-width="0.20" />
  <path d="M 380.800 302.800 H 377.900 C 377.800 302.800 377.900 302.900 377.900 302.800 V 300.000 C 377.900 299.900 377.800 300.000 377.900 300.000 H 383.700 C 383.800 300.000 383.700 299.900 383.700 300.000 V 302.800 C 383.700 302.900 383.800 302.800 383.700 302.800 H 380.800 Z" stroke="rgb(0,0,255)" stroke-width="0.20" />
  <path d="M 392.800 302.800 H 389.900 C 389.800 302.800 389.900 302.900 389.900 302.800 V 300.000 C 389.900 299.900 389.800 300.000 389.900 300.000 H 395.700 C 395.800 300.000 395.700 299.900 395.700 300.000 V 302.800 C 395.700 302.900 395.800 302.800 395.700 302.800 H 392.800 Z" stroke="rgb(0,0,255)" stroke-width="0.20" />
  <path d="M 404.800 302.800 H 401.900 C 401.800 302.800 401.900 302.900 401.900 302.800 V 300.000 C 401.900 299.900 401.800 300.000 401.900 300.000 H 407.700 C 407.800 300.000 407.700 299.900 407.700 300.000 V 302.800 C 407.700 302.900 407.800 302.800 407.700 302.800 H 404.800 Z" stroke="rgb(0,0,255)" stroke-width="0.20" />
  <path d="M 416.800 302.800 H 413.900 C 413.800 302.800 413.900 302.900 413.900 302.800 V 300.000 C 413.900 299.900 413.800 300.000 413.900 300.000 H 419.700 C 419.800 300.000 419.700 299.900 419.700 300.000 V 302.800 C 419.700 302.900 419.800 302.800 419.700 302.800 H 416.800 Z" stroke="rgb(0,0,255)" stroke-width="0.20" />
  <path d="M 428.800 302.800 H 425.900 C 425.800 302.800 425.900 302.900 425.900 302.800 V 300.000 C 425.900 299.900 425.800 300.000 425.900 300.000 H 431.700 C 431.800 300.000 431.700 299.900 431.700 300.000 V 302.800 C 431.700 302.900 431.800 302.800 431.700 302.800 H 428.800 Z" stroke="rgb(0,0,255)" stroke-width="0.20" />
  <path d="M 440.800 302.800 H 437.900 C 437.800 302.800 437.900 302.900 437.900 302.800 V 300.000 C 437.900 299.900 437.800 300.000 437.900 300.000 H 443.700 C 443.800 300.000 443.700 299.900 443.700 300.000 V 302.800 C 443.700 302.900 443.800 302.800 443.700 302.800 H 440.800 Z" stroke="rgb(0,0,255)" stroke-width="0.20" />
  <path d="M 452.800 302.800 H 449.900 C 449.800 302.800 449.900 302.900 449.900 302.800 V 300.000 C 449.900 299.900 449.800 300.000 449.900 300.000 H 455.700 C 455.800 300.000 455.700 299.900 455.700 300.000 V 302.800 C 455.700 302.900 455.800 302.800 455.700 302.800 H 452.800 Z" stroke="rgb(0,0,255)" stroke-width="0.20" />
  <path d="M 464.800 302.800 H 461.900 C 461.800 302.800 461.900 302.900 461.900 302.800 V 300.000 C 461.900 299.900 461.800 300.000 461.900 300.000 H 467.700 C 467.800 300.000 467.700 299.900 467.700 300.000 V 302.800 C 467.700 302.900 467.800 302.800 467.700 302.800 H 464.800 Z" stroke="rgb(0,0,255)" stroke-width="0.20" />
  <path d="M 476.800 302.800 H 473.900 C 473.800 302.800 473.900 302.900 473.900 302.800 V 300.000 C 473.900 299.900 473.800 300.000 473.900 300.000 H 479.700 C 479.800 300.000 479.700 299.900 479.700 300.000 V 302.800 C 479.700 302.900 479.800 302.800 479.700 302.800 H 476.800 Z" stroke="rgb(0,0,255)" stroke-width="0.20" />
</g>
<g id="p-9" style="fill:none;stroke-linecap:round;stroke-linejoin:round;">
  <path d="M 224.800 318.750 H 485.650 C 485.705 318.750 485.750 318.705 485.750 318.650 V 312.650 C 485.750 312.595 485.705 312.550 485.650 312.550 H 224.800 C 224.745 312.550 224.700 312.595 224.700 312.650 V 318.650 C 224.700 318.705 224.745 318.750 224.800 318.750 Z" stroke="rgb(0,0,0)" stroke-width="0.20" />
</g>
<g id="p-10" style="fill:none;stroke-linecap:round;stroke-linejoin:round;">
  <path d="M 224.800 311.900 H 236.800 C 237.871 311.900 238.923 311.618 239.850 311.083 C 240.777 310.547 241.547 309.777 242.083 308.850 C 242.601 307.953 243.345 307.208 244.242 306.690 C 245.139 306.173 246.157 305.900 247.192 305.900 H 466.408 C 467.443 305.900 468.461 306.173 469.358 306.690 C 470.255 307.208 470.999 307.953 471.517 308.850 C 472.053 309.777 472.823 310.547 473.750 311.083 C 474.677 311.618 475.729 311.900 476.800 311.900 H 488.800 C 488.855 311.900 488.900 311.855 488.900 311.800 V 309.750 C 488.900 309.650 488.800 309.750 488.900 309.750 H 491.800 C 491.855 309.750 491.900 309.705 491.900 309.650 V 303.650 C 491.900 303.595 491.855 303.550 491.800 303.550 H 488.900 C 488.800 303.550 488.900 303.650 488.900 303.550 V 301.500 C 488.900 301.445 488.855 301.400 488.800 301.400 H 224.800 C 224.745 301.400 224.700 301.445 224.700 301.500 V 303.550 C 224.700 303.650 224.800 303.550 224.700 303.550 H 221.800 C 221.745 303.550 221.700 303.595 221.700 303.650 V 309.650 C 221.700 309.705 221.745 309.750 221.800 309.750 H 224.700 C 224.800 309.750 224.700 309.650 224.700 309.750 V 311.800 C 224.700 311.855 224.745 311.900 224.800 311.900 Z" stroke="rgb(0,0,0)" stroke-width="0.20" />
  <text dominant-baseline="hanging" font-size="4px" style="font-family: sans-serif ; font-weight: normal; font-style: normal; fill: rgb(255,0,0)" text-anchor="middle" transform="matrix( 1.000 0.000 0.000 1.000 356.800 308.600 )">left</text>
</g>
<g id="p-11" style="fill:none;stroke-linecap:round;stroke-linejoin:round;">
  <path d="M 236.800 283.100 H 233.900 C 233.800 283.100 233.900 283.200 233.900 283.100 V 280.300 C 233.900 280.200 233.800 280.300 233.900 280.300 H 239.700 C 239.800 280.300 239.700 280.200 239.700 280.300 V 283.100 C 239.700 283.200 239.800 283.100 239.700 283.100 H 236.800 Z" stroke="rgb(0,0,255)" stroke-width="0.20" />
  <path d="M 248.800 283.100 H 245.900 C 245.800 283.100 245.900 283.200 245.900 283.100 V 280.300 C 245.900 280.200 245.800 280.300 245.900 280.300 H 251.700 C 251.800 280.300 251.700 280.200 251.700 280.300 V 283.100 C 251.700 283.200 251.800 283.100 251.700 283.100 H 248.800 Z" stroke="rgb(0,0,255)" stroke-width="0.20" />
  <path d="M 260.800 283.100 H 257.900 C 257.800 283.100 257.900 283.200 257.900 283.100 V 280.300 C 257.900 280.200 257.800 280.300 257.900 280.300 H 263.700 C 263.800 280.300 263.700 280.200 263.700 280.300 V 283.100 C 263.700 283.200 263.800 283.100 263.700 283.100 H 260.800 Z" stroke="rgb(0,0,255)" stroke-width="0.20" />
  <path d="M 272.800 283.100 H 269.900 C 269.800 283.100 269.900 283.200 269.900 283.100 V 280.300 C 269.900 280.200 269.800 280.300 269.900 280.300 H 275.700 C 275.800 280.300 275.700 280.200 275.700 280.300 V 283.100 C 275.700 283.200 275.800 283.100 275.700 283.100 H 272.800 Z" stroke="rgb(0,0,255)" stroke-width="0.20" />
  <path d="M 284.800 283.100 H 281.900 C 281.800 283.100 281.900 283.200 281.900 283.100 V 280.300 C 281.900 280.200 281.800 280.300 281.900 280.300 H 287.700 C 287.800 280.300 287.700 280.200 287.700 280.300 V 283.100 C 287.700 283.200 287.800 283.100 287.700 283.100 H 284.800 Z" stroke="rgb(0,0,255)" stroke-width="0.20" />
  <path d="M 296.800 283.100 H 293.900 C 293.800 283.100 293.900 283.200 293.900 283.100 V 280.300 C 293.900 280.200 293.800 280.300 293.900 280.300 H 299.700 C 299.800 280.300 299.700 280.200 299.700 280.300 V 283.100 C 299.700 283.200 299.800 283.100 299.700 283.100 H 296.800 Z" stroke="rgb(0,0,255)" stroke-width="0.20" />
  <path d="M 308.800 283.100 H 305.900 C 305.800 283.100 305.900 283.200 305.900 283.100 V 280.300 C 305.900 280.200 305.800 280.300 305.900 280.300 H 311.700 C 311.800 280.300 311.700 280.200 311.700 280.300 V 283.100 C 311.700 283.200 311.800 283.100 311.700 283.100 H 308.800 Z" stroke="rgb(0,0,255)" stroke-width="0.20" />
  <path d="M 320.800 283.100 H 317.900 C 317.800 283.100 317.900 283.200 317.900 283.100 V 280.300 C 317.900 280.200 317.800 280.300 317.900 280.300 H 323.700 C 323.800 280.300 323.700 280.200 323.700 280.300 V 283.100 C 323.700 283.200 323.800 283.100 323.700 283.100 H 320.800 Z" stroke="rgb(0,0,255)" stroke-width="0.20" />
  <path d="M 332.800 283.100 H 329.900 C 329.800 283.100 329.900 283.200 329.900 283.100 V 280.300 C 329.900 280.200 329.800 280.300 329.900 280.300 H 335.700 C 335.800 280.300 335.700 280.200 335.700 280.300 V 283.100 C 335.700 283.200 335.800 283.100 335.700 283.100 H 332.800 Z" stroke="rgb(0,0,255)" stroke-width="0.20" />
  <path d="M 344.800 283.100 H 341.900 C 341.800 283.100 341.900 283.200 341.900 283.100 V 280.300 C 341.900 280.200 341.800 280.300 341.900 280.300 H 347.700 C 347.800 280.300 347.700 280.200 347.700 280.300 V 283.100 C 347.700 283.200 347.800 283.100 347.700 283.100 H 344.800 Z" stroke="rgb(0,0,255)" stroke-width="0.20" />
  <path d="M 356.800 283.100 H 353.900 C 353.800 283.100 353.900 283.200 353.900 283.100 V 280.300 C 353.900 280.200 353.800 280.300 353.900 280.300 H 359.700 C 359.800 280.300 359.700 280.200 359.700 280.300 V 283.100 C 359.700 283.200 359.800 283.100 359.700 283.100 H 356.800 Z" stroke="rgb(0,0,255)" stroke-width="0.20" />
  <path d="M 368.800 283.100 H 365.900 C 365.800 283.100 365.900 283.200 365.900 283.100 V 280.300 C 365.900 280.200 365.800 280.300 365.900 280.300 H 371.700 C 371.800 280.300 371.700 280.200 371.700 280.300 V 283.100 C 371.700 283.200 371.800 283.100 371.700 283.100 H 368.800 Z" stroke="rgb(0,0,255)" stroke-width="0.20" />
  <path d="M 380.800 283.100 H 377.900 C 377.800 283.100 377.900 283.200 377.900 283.100 V 280.300 C 377.900 280.200 377.800 280.300 377.900 280.300 H 383.700 C 383.800 280.300 383.700 280.200 383.700 280.300 V 283.100 C 383.700 283.200 383.800 283.100 383.700 283.100 H 380.800 Z" stroke="rgb(0,0,255)" stroke-width="0.20" />
  <path d="M 392.800 283.100 H 389.900 C 389.800 283.100 389.900 283.200 389.900 283.100 V 280.300 C 389.900 280.200 389.800 280.300 389.900 280.300 H 395.700 C 395.800 280.300 395.700 280.200 395.700 280.300 V 283.100 C 395.700 283.200 395.800 283.100 395.700 283.100 H 392.800 Z" stroke="rgb(0,0,255)" stroke-width="0.20" />
  <path d="M 404.800 283.100 H 401.900 C 401.800 283.100 401.900 283.200 401.900 283.100 V 280.300 C 401.900 280.200 401.800 280.300 401.900 280.300 H 407.700 C 407.800 280.300 407.700 280.200 407.700 280.300 V 283.100 C 407.700 283.200 407.800 283.100 407.700 283.100 H 404.800 Z" stroke="rgb(0,0,255)" stroke-width="0.20" />
  <path d="M 416.800 283.100 H 413.900 C 413.800 283.100 413.900 283.200 413.900 283.100 V 280.300 C 413.900 280.200 413.800 280.300 413.900 280.300 H 419.700 C 419.800 280.300 419.700 280.200 419.700 280.300 V 283.100 C 419.700 283.200 419.800 283.100 419.700 283.100 H 416.800 Z" stroke="rgb(0,0,255)" stroke-width="0.20" />
  <path d="M 428.800 283.100 H 425.900 C 425.800 283.100 425.900 283.200 425.900 283.100 V 280.300 C 425.900 280.200 425.800 280.300 425.900 280.300 H 431.700 C 431.800 280.300 431.700 280.200 431.700 280.300 V 283.100 C 431.700 283.200 431.800 283.100 431.700 283.100 H 428.800 Z" stroke="rgb(0,0,255)" stroke-width="0.20" />
  <path d="M 440.800 283.100 H 437.900 C 437.800 283.100 437.900 283.200 437.900 283.100 V 280.300 C 437.900 280.200 437.800 280.300 437.900 280.300 H 443.700 C 443.800 280.300 443.700 280.200 443.700 280.300 V 283.100 C 443.700 283.200 443.800 283.100 443.700 283.100 H 440.800 Z" stroke="rgb(0,0,255)" stroke-width="0.20" />
  <path d="M 452.800 283.100 H 449.900 C 449.800 283.100 449.900 283.200 449.900 283.100 V 280.300 C 449.900 280.200 449.800 280.300 449.900 280.300 H 455.700 C 455.800 280.300 455.700 280.200 455.700 280.300 V 283.100 C 455.700 283.200 455.800 283.100 455.700 283.100 H 452.800 Z" stroke="rgb(0,0,255)" stroke-width="0.20" />
  <path d="M 464.800 283.100 H 461.900 C 461.800 283.100 461.900 283.200 461.900 283.100 V 280.300 C 461.900 280.200 461.800 280.300 461.900 280.300 H 467.700 C 467.800 280.300 467.700 280.200 467.700 280.300 V 283.100 C 467.700 283.200 467.800 283.100 467.700 283.100 H 464.800 Z" stroke="rgb(0,0,255)" stroke-width="0.20" />
  <path d="M 476.800 283.100 H 473.900 C 473.800 283.100 473.900 283.200 473.900 283.100 V 280.300 C 473.900 280.200 473.800 280.300 473.900 280.300 H 479.700 C 479.800 280.300 479.700 280.200 479.700 280.300 V 283.100 C 479.700 283.200 479.800 283.100 479.700 283.100 H 476.800 Z" stroke="rgb(0,0,255)" stroke-width="0.20" />
</g>
<g id="p-12" style="fill:none;stroke-linecap:round;stroke-linejoin:round;">
  <path d="M 224.800 299.050 H 485.650 C 485.705 299.050 485.750 299.005 485.750 298.950 V 292.950 C 485.750 292.895 485.705 292.850 485.650 292.850 H 224.800 C 224.745 292.850 224.700 292.895 224.700 292.950 V 298.950 C 224.700 299.005 224.745 299.050 224.800 299.050 Z" stroke="rgb(0,0,0)" stroke-width="0.20" />
</g>
<g id="p-13" style="fill:none;stroke-linecap:round;stroke-linejoin:round;">
  <path d="M 224.800 292.200 H 236.800 C 237.871 292.200 238.923 291.918 239.850 291.383 C 240.777 290.847 241.547 290.077 242.083 289.150 C 242.601 288.253 243.345 287.508 244.242 286.990 C 245.139 286.473 246.157 286.200 247.192 286.200 H 466.408 C 467.443 286.200 468.461 286.473 469.358 286.990 C 470.255 287.508 470.999 288.253 471.517 289.150 C 472.053 290.077 472.823 290.847 473.750 291.383 C 474.677 291.918 475.729 292.200 476.800 292.200 H 488.800 C 488.855 292.200 488.900 292.155 488.900 292.100 V 290.050 C 488.900 289.950 488.800 290.050 488.900 290.050 H 491.800 C 491.855 290.050 491.900 290.005 491.900 289.950 V 283.950 C 491.900 283.895 491.855 283.850 491.800 283.850 H 488.900 C 488.800 283.850 488.900 283.950 488.900 283.850 V 281.800 C 488.900 281.745 488.855 281.700 488.800 281.700 H 224.800 C 224.745 281.700 224.700 281.745 224.700 281.800 V 283.850 C 224.700 283.950 224.800 283.850 224.700 283.850 H 221.800 C 221.745 283.850 221.700 283.895 221.700 283.950 V 289.950 C 221.700 290.005 221.745 290.050 221.800 290.050 H 224.700 C 224.800 290.050 224.700 289.950 224.700 290.050 V 292.100 C 224.700 292.155 224.745 292.200 224.800 292.200 Z" stroke="rgb(0,0,0)" stroke-width="0.20" />
  <text dominant-baseline="hanging" font-size="4px" style="font-family: sans-serif ; font-weight: normal; font-style: normal; fill: rgb(255,0,0)" text-anchor="middle" transform="matrix( 1.000 0.000 0.000 1.000 356.800 288.900 )">right</text>
</g>
</svg>