<?xml version='1.0' encoding='utf-8'?>
<svg height="343.30mm" viewBox="0.0 0.0 501.90 343.30" width="501.90mm" xmlns="http://www.w3.org/2000/svg" xmlns:cc="http://creativecommons.org/ns#" xmlns:dc="http://purl.org/dc/elements/1.1/" xmlns:inkscape="http://www.inkscape.org/namespaces/inkscape" xmlns:rdf="http://www.w3.org/1999/02/22-rdf-syntax-ns#" xmlns:svg="http://www.w3.org/2000/svg" xmlns:xlink="http://www.w3.org/1999/xlink">
<!--
UniversalBox - Box with various options for different styles and lids

Created with Boxes.py (https://boxes.hackerspace-bamberg.de/)
Creation date: 2026-03-16 02:54:28
Command line (remove spaces between dashes): boxes UniversalBox - -Stackable_bottom_stabilizers=2 - -bottom_edge=s - -x=210 - -y=270 - -h=19 - -spacing=0.5
Url: https://boxes.hackerspace-bamberg.de/UniversalBox?FingerJoint_style=rectangular&FingerJoint_surroundingspaces=2.0&FingerJoint_bottom_lip=0.0&FingerJoint_edge_width=1.0&FingerJoint_extra_length=0.0&FingerJoint_finger=2&FingerJoint_play=0.0&FingerJoint_space=2&FingerJoint_width=1.0&Stackable_angle=60&Stackable_bottom_stabilizers=2&Stackable_height=2.0&Stackable_holedistance=1.0&Stackable_width=4.0&Hinge_grip_percentage=0&Hinge_outset=0&Hinge_outset=1&Hinge_pinwidth=0.5&Hinge_axle=2.0&Hinge_grip_length=0&Hinge_hingestrength=1&CabinetHinge_bore=3.2&CabinetHinge_eyes_per_hinge=5&CabinetHinge_hinges=2&CabinetHinge_style=inside&CabinetHinge_eye=1.5&CabinetHinge_play=0.05&CabinetHinge_spacing=2.0&SlideOnLid_hole_width=0&SlideOnLid_second_pin=0&SlideOnLid_second_pin=1&SlideOnLid_spring=both&SlideOnLid_style=rectangular&SlideOnLid_surroundingspaces=2.0&SlideOnLid_bottom_lip=0.0&SlideOnLid_edge_width=1.0&SlideOnLid_extra_length=0.0&SlideOnLid_finger=3.0&SlideOnLid_play=0.05&SlideOnLid_space=2.0&SlideOnLid_width=1.0&Click_angle=5.0&Click_bottom_radius=0.1&Click_depth=3.0&RoundedTriangleEdge_height=50.0&RoundedTriangleEdge_r_hole=2.0&RoundedTriangleEdge_radius=30.0&RoundedTriangleEdge_outset=1.0&Mounting_d_head=6.5&Mounting_d_shaft=3.0&Mounting_margin=0.125&Mounting_num=2&Mounting_side=back&Mounting_style=straight+edge%2C+within&HandleEdge_height=20.0&HandleEdge_hole_height=75.0&HandleEdge_hole_width=40%3A40&HandleEdge_on_sides=0&HandleEdge_on_sides=1&HandleEdge_radius=10.0&HandleEdge_outset=1.0&Flex_stretch=1.05&Flex_connection=1.0&Flex_distance=0.5&Flex_width=5.0&Lid_handle=none&Lid_style=none&Lid_handle_height=8.0&Lid_height=4.0&Lid_play=0.1&top_edge=e&bottom_edge=s&x=210&y=270&h=19&outside=0&outside=1&vertical_edges=finger+joints&thickness=3.0&burn=0.1&format=svg&labels=0&labels=1&reference=100.0&tabs=0.0&qr_code=0&inner_corners=loop&spacing=0.5&debug=0&language=en&render=2
Url short: https://boxes.hackerspace-bamberg.de/UniversalBox?Stackable_bottom_stabilizers=2&bottom_edge=s&x=210&y=270&h=19&spacing=0.5
SettingsUrl: https://boxes.hackerspace-bamberg.de/UniversalBox?FingerJoint_style=rectangular&FingerJoint_surroundingspaces=2.0&FingerJoint_bottom_lip=0.0&FingerJoint_edge_width=1.0&FingerJoint_extra_length=0.0&FingerJoint_finger=2&FingerJoint_play=0.0&FingerJoint_space=2&FingerJoint_width=1.0&Stackable_angle=60&Stackable_bottom_stabilizers=2&Stackable_height=2.0&Stackable_holedistance=1.0&Stackable_width=4.0&Hinge_grip_percentage=0&Hinge_outset=0&Hinge_outset=1&Hinge_pinwidth=0.5&Hinge_axle=2.0&Hinge_grip_length=0&Hinge_hingestrength=1&CabinetHinge_bore=3.2&CabinetHinge_eyes_per_hinge=5&CabinetHinge_hinges=2&CabinetHinge_style=inside&CabinetHinge_eye=1.5&CabinetHinge_play=0.05&CabinetHinge_spacing=2.0&SlideOnLid_hole_width=0&SlideOnLid_second_pin=0&SlideOnLid_second_pin=1&SlideOnLid_spring=both&SlideOnLid_style=rectangular&SlideOnLid_surroundingspaces=2.0&SlideOnLid_bottom_lip=0.0&SlideOnLid_edge_width=1.0&SlideOnLid_extra_length=0.0&SlideOnLid_finger=3.0&SlideOnLid_play=0.05&SlideOnLid_space=2.0&SlideOnLid_width=1.0&Click_angle=5.0&Click_bottom_radius=0.1&Click_depth=3.0&RoundedTriangleEdge_height=50.0&RoundedTriangleEdge_r_hole=2.0&RoundedTriangleEdge_radius=30.0&RoundedTriangleEdge_outset=1.0&Mounting_d_head=6.5&Mounting_d_shaft=3.0&Mounting_margin=0.125&Mounting_num=2&Mounting_side=back&Mounting_style=straight+edge%2C+within&HandleEdge_height=20.0&HandleEdge_hole_height=75.0&HandleEdge_hole_width=40%3A40&HandleEdge_on_sides=0&HandleEdge_on_sides=1&HandleEdge_radius=10.0&HandleEdge_outset=1.0&Flex_stretch=1.05&Flex_connection=1.0&Flex_distance=0.5&Flex_width=5.0&Lid_handle=none&Lid_style=none&Lid_handle_height=8.0&Lid_height=4.0&Lid_play=0.1&top_edge=e&bottom_edge=s&x=210&y=270&h=19&outside=0&outside=1&vertical_edges=finger+joints&thickness=3.0&burn=0.1&format=svg&labels=0&labels=1&reference=100.0&tabs=0.0&qr_code=0&inner_corners=loop&spacing=0.5&debug=0&language=en&render=2
SettingsUrl short: https://boxes.hackerspace-bamberg.de/UniversalBox?Stackable_bottom_stabilizers=2&bottom_edge=s&x=210&y=270&h=19&spacing=0.5
-->
<title>UniversalBox</title>
<metadata>
<rdf:RDF><cc:Work>
<dc:title>Box - UniversalBox</dc:title>
<dc:date>2026-03-16 02:54:28</dc:date>
<dc:source>https://boxes.hackerspace-bamberg.de/UniversalBox?FingerJoint_style=rectangular&amp;FingerJoint_surroundingspaces=2.0&amp;FingerJoint_bottom_lip=0.0&amp;FingerJoint_edge_width=1.0&amp;FingerJoint_extra_length=0.0&amp;FingerJoint_finger=2&amp;FingerJoint_play=0.0&amp;FingerJoint_space=2&amp;FingerJoint_width=1.0&amp;Stackable_angle=60&amp;Stackable_bottom_stabilizers=2&amp;Stackable_height=2.0&amp;Stackable_holedistance=1.0&amp;Stackable_width=4.0&amp;Hinge_grip_percentage=0&amp;Hinge_outset=0&amp;Hinge_outset=1&amp;Hinge_pinwidth=0.5&amp;Hinge_axle=2.0&amp;Hinge_grip_length=0&amp;Hinge_hingestrength=1&amp;CabinetHinge_bore=3.2&amp;CabinetHinge_eyes_per_hinge=5&amp;CabinetHinge_hinges=2&amp;CabinetHinge_style=inside&amp;CabinetHinge_eye=1.5&amp;CabinetHinge_play=0.05&amp;CabinetHinge_spacing=2.0&amp;SlideOnLid_hole_width=0&amp;SlideOnLid_second_pin=0&amp;SlideOnLid_second_pin=1&amp;SlideOnLid_spring=both&amp;SlideOnLid_style=rectangular&amp;SlideOnLid_surroundingspaces=2.0&amp;SlideOnLid_bottom_lip=0.0&amp;SlideOnLid_edge_width=1.0&amp;SlideOnLid_extra_length=0.0&amp;SlideOnLid_finger=3.0&amp;SlideOnLid_play=0.05&amp;SlideOnLid_space=2.0&amp;SlideOnLid_width=1.0&amp;Click_angle=5.0&amp;Click_bottom_radius=0.1&amp;Click_depth=3.0&amp;RoundedTriangleEdge_height=50.0&amp;RoundedTriangleEdge_r_hole=2.0&amp;RoundedTriangleEdge_radius=30.0&amp;RoundedTriangleEdge_outset=1.0&amp;Mounting_d_head=6.5&amp;Mounting_d_shaft=3.0&amp;Mounting_margin=0.125&amp;Mounting_num=2&amp;Mounting_side=back&amp;Mounting_style=straight+edge%2C+within&amp;HandleEdge_height=20.0&amp;HandleEdge_hole_height=75.0&amp;HandleEdge_hole_width=40%3A40&amp;HandleEdge_on_sides=0&amp;HandleEdge_on_sides=1&amp;HandleEdge_radius=10.0&amp;HandleEdge_outset=1.0&amp;Flex_stretch=1.05&amp;Flex_connection=1.0&amp;Flex_distance=0.5&amp;Flex_width=5.0&amp;Lid_handle=none&amp;Lid_style=none&amp;Lid_handle_height=8.0&amp;Lid_height=4.0&amp;Lid_play=0.1&amp;top_edge=e&amp;bottom_edge=s&amp;x=210&amp;y=270&amp;h=19&amp;outside=0&amp;outside=1&amp;vertical_edges=finger+joints&amp;thickness=3.0&amp;burn=0.1&amp;format=svg&amp;labels=0&amp;labels=1&amp;reference=100.0&amp;tabs=0.0&amp;qr_code=0&amp;inner_corners=loop&amp;spacing=0.5&amp;debug=0&amp;language=en&amp;render=2</dc:source>
<dc:source>https://boxes.hackerspace-bamberg.de/UniversalBox?Stackable_bottom_stabilizers=2&amp;bottom_edge=s&amp;x=210&amp;y=270&amp;h=19&amp;spacing=0.5</dc:source>
<dc:description>Box with various options for different styles and lids

Created with Boxes.py (https://boxes.hackerspace-bamberg.de/)
Command line: boxes UniversalBox --FingerJoint_style=rectangular --FingerJoint_surroundingspaces=2.0 --FingerJoint_bottom_lip=0.0 --FingerJoint_edge_width=1.0 --FingerJoint_extra_length=0.0 --FingerJoint_finger=2 --FingerJoint_play=0.0 --FingerJoint_space=2 --FingerJoint_width=1.0 --Stackable_angle=60 --Stackable_bottom_stabilizers=2 --Stackable_height=2.0 --Stackable_holedistance=1.0 --Stackable_width=4.0 --Hinge_grip_percentage=0 --Hinge_outset=0 --Hinge_outset=1 --Hinge_pinwidth=0.5 --Hinge_axle=2.0 --Hinge_grip_length=0 --Hinge_hingestrength=1 --CabinetHinge_bore=3.2 --CabinetHinge_eyes_per_hinge=5 --CabinetHinge_hinges=2 --CabinetHinge_style=inside --CabinetHinge_eye=1.5 --CabinetHinge_play=0.05 --CabinetHinge_spacing=2.0 --SlideOnLid_hole_width=0 --SlideOnLid_second_pin=0 --SlideOnLid_second_pin=1 --SlideOnLid_spring=both --SlideOnLid_style=rectangular --SlideOnLid_surroundingspaces=2.0 --SlideOnLid_bottom_lip=0.0 --SlideOnLid_edge_width=1.0 --SlideOnLid_extra_length=0.0 --SlideOnLid_finger=3.0 --SlideOnLid_play=0.05 --SlideOnLid_space=2.0 --SlideOnLid_width=1.0 --Click_angle=5.0 --Click_bottom_radius=0.1 --Click_depth=3.0 --RoundedTriangleEdge_height=50.0 --RoundedTriangleEdge_r_hole=2.0 --RoundedTriangleEdge_radius=30.0 --RoundedTriangleEdge_outset=1.0 --Mounting_d_head=6.5 --Mounting_d_shaft=3.0 --Mounting_margin=0.125 --Mounting_num=2 --Mounting_side=back '--Mounting_style=straight edge, within' --HandleEdge_height=20.0 --HandleEdge_hole_height=75.0 --HandleEdge_hole_width=40:40 --HandleEdge_on_sides=0 --HandleEdge_on_sides=1 --HandleEdge_radius=10.0 --HandleEdge_outset=1.0 --Flex_stretch=1.05 --Flex_connection=1.0 --Flex_distance=0.5 --Flex_width=5.0 --Lid_handle=none --Lid_style=none --Lid_handle_height=8.0 --Lid_height=4.0 --Lid_play=0.1 --top_edge=e --bottom_edge=s --x=210 --y=270 --h=19 --outside=0 --outside=1 '--vertical_edges=finger joints' --thickness=3.0 --burn=0.1 --format=svg --labels=0 --labels=1 --reference=100.0 --tabs=0.0 --qr_code=0 --inner_corners=loop --spacing=0.5 --debug=0
Command line short: boxes UniversalBox --Stackable_bottom_stabilizers=2 --bottom_edge=s --x=210 --y=270 --h=19 --spacing=0.5
Url: https://boxes.hackerspace-bamberg.de/UniversalBox?FingerJoint_style=rectangular&amp;FingerJoint_surroundingspaces=2.0&amp;FingerJoint_bottom_lip=0.0&amp;FingerJoint_edge_width=1.0&amp;FingerJoint_extra_length=0.0&amp;FingerJoint_finger=2&amp;FingerJoint_play=0.0&amp;FingerJoint_space=2&amp;FingerJoint_width=1.0&amp;Stackable_angle=60&amp;Stackable_bottom_stabilizers=2&amp;Stackable_height=2.0&amp;Stackable_holedistance=1.0&amp;Stackable_width=4.0&amp;Hinge_grip_percentage=0&amp;Hinge_outset=0&amp;Hinge_outset=1&amp;Hinge_pinwidth=0.5&amp;Hinge_axle=2.0&amp;Hinge_grip_length=0&amp;Hinge_hingestrength=1&amp;CabinetHinge_bore=3.2&amp;CabinetHinge_eyes_per_hinge=5&amp;CabinetHinge_hinges=2&amp;CabinetHinge_style=inside&amp;CabinetHinge_eye=1.5&amp;CabinetHinge_play=0.05&amp;CabinetHinge_spacing=2.0&amp;SlideOnLid_hole_width=0&amp;SlideOnLid_second_pin=0&amp;SlideOnLid_second_pin=1&amp;SlideOnLid_spring=both&amp;SlideOnLid_style=rectangular&amp;SlideOnLid_surroundingspaces=2.0&amp;SlideOnLid_bottom_lip=0.0&amp;SlideOnLid_edge_width=1.0&amp;SlideOnLid_extra_length=0.0&amp;SlideOnLid_finger=3.0&amp;SlideOnLid_play=0.05&amp;SlideOnLid_space=2.0&amp;SlideOnLid_width=1.0&amp;Click_angle=5.0&amp;Click_bottom_radius=0.1&amp;Click_depth=3.0&amp;RoundedTriangleEdge_height=50.0&amp;RoundedTriangleEdge_r_hole=2.0&amp;RoundedTriangleEdge_radius=30.0&amp;RoundedTriangleEdge_outset=1.0&amp;Mounting_d_head=6.5&amp;Mounting_d_shaft=3.0&amp;Mounting_margin=0.125&amp;Mounting_num=2&amp;Mounting_side=back&amp;Mounting_style=straight+edge%2C+within&amp;HandleEdge_height=20.0&amp;HandleEdge_hole_height=75.0&amp;HandleEdge_hole_width=40%3A40&amp;HandleEdge_on_sides=0&amp;HandleEdge_on_sides=1&amp;HandleEdge_radius=10.0&amp;HandleEdge_outset=1.0&amp;Flex_stretch=1.05&amp;Flex_connection=1.0&amp;Flex_distance=0.5&amp;Flex_width=5.0&amp;Lid_handle=none&amp;Lid_style=none&amp;Lid_handle_height=8.0&amp;Lid_height=4.0&amp;Lid_play=0.1&amp;top_edge=e&amp;bottom_edge=s&amp;x=210&amp;y=270&amp;h=19&amp;outside=0&amp;outside=1&amp;vertical_edges=finger+joints&amp;thickness=3.0&amp;burn=0.1&amp;format=svg&amp;labels=0&amp;labels=1&amp;reference=100.0&amp;tabs=0.0&amp;qr_code=0&amp;inner_corners=loop&amp;spacing=0.5&amp;debug=0&amp;language=en&amp;render=2
Url short: https://boxes.hackerspace-bamberg.de/UniversalBox?Stackable_bottom_stabilizers=2&amp;bottom_edge=s&amp;x=210&amp;y=270&amp;h=19&amp;spacing=0.5
SettingsUrl: https://boxes.hackerspace-bamberg.de/UniversalBox?FingerJoint_style=rectangular&amp;FingerJoint_surroundingspaces=2.0&amp;FingerJoint_bottom_lip=0.0&amp;FingerJoint_edge_width=1.0&amp;FingerJoint_extra_length=0.0&amp;FingerJoint_finger=2&amp;FingerJoint_play=0.0&amp;FingerJoint_space=2&amp;FingerJoint_width=1.0&amp;Stackable_angle=60&amp;Stackable_bottom_stabilizers=2&amp;Stackable_height=2.0&amp;Stackable_holedistance=1.0&amp;Stackable_width=4.0&amp;Hinge_grip_percentage=0&amp;Hinge_outset=0&amp;Hinge_outset=1&amp;Hinge_pinwidth=0.5&amp;Hinge_axle=2.0&amp;Hinge_grip_length=0&amp;Hinge_hingestrength=1&amp;CabinetHinge_bore=3.2&amp;CabinetHinge_eyes_per_hinge=5&amp;CabinetHinge_hinges=2&amp;CabinetHinge_style=inside&amp;CabinetHinge_eye=1.5&amp;CabinetHinge_play=0.05&amp;CabinetHinge_spacing=2.0&amp;SlideOnLid_hole_width=0&amp;SlideOnLid_second_pin=0&amp;SlideOnLid_second_pin=1&amp;SlideOnLid_spring=both&amp;SlideOnLid_style=rectangular&amp;SlideOnLid_surroundingspaces=2.0&amp;SlideOnLid_bottom_lip=0.0&amp;SlideOnLid_edge_width=1.0&amp;SlideOnLid_extra_length=0.0&amp;SlideOnLid_finger=3.0&amp;SlideOnLid_play=0.05&amp;SlideOnLid_space=2.0&amp;SlideOnLid_width=1.0&amp;Click_angle=5.0&amp;Click_bottom_radius=0.1&amp;Click_depth=3.0&amp;RoundedTriangleEdge_height=50.0&amp;RoundedTriangleEdge_r_hole=2.0&amp;RoundedTriangleEdge_radius=30.0&amp;RoundedTriangleEdge_outset=1.0&amp;Mounting_d_head=6.5&amp;Mounting_d_shaft=3.0&amp;Mounting_margin=0.125&amp;Mounting_num=2&amp;Mounting_side=back&amp;Mounting_style=straight+edge%2C+within&amp;HandleEdge_height=20.0&amp;HandleEdge_hole_height=75.0&amp;HandleEdge_hole_width=40%3A40&amp;HandleEdge_on_sides=0&amp;HandleEdge_on_sides=1&amp;HandleEdge_radius=10.0&amp;HandleEdge_outset=1.0&amp;Flex_stretch=1.05&amp;Flex_connection=1.0&amp;Flex_distance=0.5&amp;Flex_width=5.0&amp;Lid_handle=none&amp;Lid_style=none&amp;Lid_handle_height=8.0&amp;Lid_height=4.0&amp;Lid_play=0.1&amp;top_edge=e&amp;bottom_edge=s&amp;x=210&amp;y=270&amp;h=19&amp;outside=0&amp;outside=1&amp;vertical_edges=finger+joints&amp;thickness=3.0&amp;burn=0.1&amp;format=svg&amp;labels=0&amp;labels=1&amp;reference=100.0&amp;tabs=0.0&amp;qr_code=0&amp;inner_corners=loop&amp;spacing=0.5&amp;debug=0&amp;language=en&amp;render=2
SettingsUrl short: https://boxes.hackerspace-bamberg.de/UniversalBox?Stackable_bottom_stabilizers=2&amp;bottom_edge=s&amp;x=210&amp;y=270&amp;h=19&amp;spacing=0.5
</dc:description>
</cc:Work></rdf:RDF></metadata>
<g id="p-0" style="fill:none;stroke-linecap:round;stroke-linejoin:round;">
  <path d="M 10.100 333.300 H 110.100 V 323.300 H 10.100 V 333.300 Z" stroke="rgb(0,0,0)" stroke-width="0.20" />
  <text dominant-baseline="hanging" font-size="6px" style="font-family: sans-serif ; font-weight: normal; font-style: normal; fill: rgb(255,0,0)" text-anchor="middle" transform="matrix( 1.000 0.000 0.000 1.000 60.100 325.300 )">100.0mm, burn:0.10mm</text>
</g>
<g id="p-1" style="fill:none;stroke-linecap:round;stroke-linejoin:round;">
  <path d="M 25.100 304.800 H 22.200 C 22.100 304.800 22.200 304.900 22.200 304.800 V 302.000 C 22.200 301.900 22.100 302.000 22.200 302.000 H 28.000 C 28.100 302.000 28.000 301.900 28.000 302.000 V 304.800 C 28.000 304.900 28.100 304.800 28.000 304.800 H 25.100 Z" stroke="rgb(0,0,255)" stroke-width="0.20" />
  <path d="M 37.100 304.800 H 34.200 C 34.100 304.800 34.200 304.900 34.200 304.800 V 302.000 C 34.200 301.900 34.100 302.000 34.200 302.000 H 40.000 C 40.100 302.000 40.000 301.900 40.000 302.000 V 304.800 C 40.000 304.900 40.100 304.800 40.000 304.800 H 37.100 Z" stroke="rgb(0,0,255)" stroke-width="0.20" />
  <path d="M 49.100 304.800 H 46.200 C 46.100 304.800 46.200 304.900 46.200 304.800 V 302.000 C 46.200 301.900 46.100 302.000 46.200 302.000 H 52.000 C 52.100 302.000 52.000 301.900 52.000 302.000 V 304.800 C 52.000 304.900 52.100 304.800 52.000 304.800 H 49.100 Z" stroke="rgb(0,0,255)" stroke-width="0.20" />
  <path d="M 61.100 304.800 H 58.200 C 58.100 304.800 58.200 304.900 58.200 304.800 V 302.000 C 58.200 301.900 58.100 302.000 58.200 302.000 H 64.000 C 64.100 302.000 64.000 301.900 64.000 302.000 V 304.800 C 64.000 304.900 64.100 304.800 64.000 304.800 H 61.100 Z" stroke="rgb(0,0,255)" stroke-width="0.20" />
  <path d="M 73.100 304.800 H 70.200 C 70.100 304.800 70.200 304.900 70.200 304.800 V 302.000 C 70.200 301.900 70.100 302.000 70.200 302.000 H 76.000 C 76.100 302.000 76.000 301.900 76.000 302.000 V 304.800 C 76.000 304.900 76.100 304.800 76.000 304.800 H 73.100 Z" stroke="rgb(0,0,255)" stroke-width="0.20" />
  <path d="M 85.100 304.800 H 82.200 C 82.100 304.800 82.200 304.900 82.200 304.800 V 302.000 C 82.200 301.900 82.100 302.000 82.200 302.000 H 88.000 C 88.100 302.000 88.000 301.900 88.000 302.000 V 304.800 C 88.000 304.900 88.100 304.800 88.000 304.800 H 85.100 Z" stroke="rgb(0,0,255)" stroke-width="0.20" />
  <path d="M 97.100 304.800 H 94.200 C 94.100 304.800 94.200 304.900 94.200 304.800 V 302.000 C 94.200 301.900 94.100 302.000 94.200 302.000 H 100.000 C 100.100 302.000 100.000 301.900 100.000 302.000 V 304.800 C 100.000 304.900 100.100 304.800 100.000 304.800 H 97.100 Z" stroke="rgb(0,0,255)" stroke-width="0.20" />
  <path d="M 109.100 304.800 H 106.200 C 106.100 304.800 106.200 304.900 106.200 304.800 V 302.000 C 106.200 301.900 106.100 302.000 106.200 302.000 H 112.000 C 112.100 302.000 112.000 301.900 112.000 302.000 V 304.800 C 112.000 304.900 112.100 304.800 112.000 304.800 H 109.100 Z" stroke="rgb(0,0,255)" stroke-width="0.20" />
  <path d="M 121.100 304.800 H 118.200 C 118.100 304.800 118.200 304.900 118.200 304.800 V 302.000 C 118.200 301.900 118.100 302.000 118.200 302.000 H 124.000 C 124.100 302.000 124.000 301.900 124.000 302.000 V 304.800 C 124.000 304.900 124.100 304.800 124.000 304.800 H 121.100 Z" stroke="rgb(0,0,255)" stroke-width="0.20" />
  <path d="M 133.100 304.800 H 130.200 C 130.100 304.800 130.200 304.900 130.200 304.800 V 302.000 C 130.200 301.900 130.100 302.000 130.200 302.000 H 136.000 C 136.100 302.000 136.000 301.900 136.000 302.000 V 304.800 C 136.000 304.900 136.100 304.800 136.000 304.800 H 133.100 Z" stroke="rgb(0,0,255)" stroke-width="0.20" />
  <path d="M 145.100 304.800 H 142.200 C 142.100 304.800 142.200 304.900 142.200 304.800 V 302.000 C 142.200 301.900 142.100 302.000 142.200 302.000 H 148.000 C 148.100 302.000 148.000 301.900 148.000 302.000 V 304.800 C 148.000 304.900 148.100 304.800 148.000 304.800 H 145.100 Z" stroke="rgb(0,0,255)" stroke-width="0.20" />
  <path d="M 157.100 304.800 H 154.200 C 154.100 304.800 154.200 304.900 154.200 304.800 V 302.000 C 154.200 301.900 154.100 302.000 154.200 302.000 H 160.000 C 160.100 302.000 160.000 301.900 160.000 302.000 V 304.800 C 160.000 304.900 160.100 304.800 160.000 304.800 H 157.100 Z" stroke="rgb(0,0,255)" stroke-width="0.20" />
  <path d="M 169.100 304.800 H 166.200 C 166.100 304.800 166.200 304.900 166.200 304.800 V 302.000 C 166.200 301.900 166.100 302.000 166.200 302.000 H 172.000 C 172.100 302.000 172.000 301.900 172.000 302.000 V 304.800 C 172.000 304.900 172.100 304.800 172.000 304.800 H 169.100 Z" stroke="rgb(0,0,255)" stroke-width="0.20" />
  <path d="M 181.100 304.800 H 178.200 C 178.100 304.800 178.200 304.900 178.200 304.800 V 302.000 C 178.200 301.900 178.100 302.000 178.200 302.000 H 184.000 C 184.100 302.000 184.000 301.900 184.000 302.000 V 304.800 C 184.000 304.900 184.100 304.800 184.000 304.800 H 181.100 Z" stroke="rgb(0,0,255)" stroke-width="0.20" />
  <path d="M 193.100 304.800 H 190.200 C 190.100 304.800 190.200 304.900 190.200 304.800 V 302.000 C 190.200 301.900 190.100 302.000 190.200 302.000 H 196.000 C 196.100 302.000 196.000 301.900 196.000 302.000 V 304.800 C 196.000 304.900 196.100 304.800 196.000 304.800 H 193.100 Z" stroke="rgb(0,0,255)" stroke-width="0.20" />
  <path d="M 205.100 304.800 H 202.200 C 202.100 304.800 202.200 304.900 202.200 304.800 V 302.000 C 202.200 301.900 202.100 302.000 202.200 302.000 H 208.000 C 208.100 302.000 208.000 301.900 208.000 302.000 V 304.800 C 208.000 304.900 208.100 304.800 208.000 304.800 H 205.100 Z" stroke="rgb(0,0,255)" stroke-width="0.20" />
</g>
<g id="p-2" style="fill:none;stroke-linecap:round;stroke-linejoin:round;">
  <path d="M 13.100 320.750 H 213.950 C 214.005 320.750 214.050 320.705 214.050 320.650 V 314.650 C 214.050 314.595 214.005 314.550 213.950 314.550 H 13.100 C 13.045 314.550 13.000 314.595 13.000 314.650 V 320.650 C 13.000 320.705 13.045 320.750 13.100 320.750 Z" stroke="rgb(0,0,0)" stroke-width="0.20" />
</g>
<g id="p-3" style="fill:none;stroke-linecap:round;stroke-linejoin:round;">
  <path d="M 13.100 313.900 H 25.100 C 26.171 313.900 27.223 313.618 28.150 313.083 C 29.077 312.547 29.847 311.777 30.383 310.850 C 30.901 309.953 31.645 309.208 32.542 308.690 C 33.439 308.173 34.457 307.900 35.492 307.900 H 194.708 C 195.743 307.900 196.761 308.173 197.658 308.690 C 198.555 309.208 199.299 309.953 199.817 310.850 C 200.353 311.777 201.123 312.547 202.050 313.083 C 202.977 313.618 204.029 313.900 205.100 313.900 H 217.100 H 220.100 C 220.155 313.900 220.200 313.855 220.200 313.800 V 311.150 C 220.200 311.095 220.155 311.050 220.100 311.050 H 217.200 C 217.100 311.050 217.200 311.150 217.200 311.050 V 305.250 C 217.200 305.150 217.100 305.250 217.200 305.250 H 220.100 C 220.155 305.250 220.200 305.205 220.200 305.150 V 302.500 C 220.200 302.445 220.155 302.400 220.100 302.400 H 217.100 H 13.100 H 10.100 C 10.045 302.400 10.000 302.445 10.000 302.500 V 305.150 C 10.000 305.205 10.045 305.250 10.100 305.250 H 13.000 C 13.100 305.250 13.000 305.150 13.000 305.250 V 311.050 C 13.000 311.150 13.100 311.050 13.000 311.050 H 10.100 C 10.045 311.050 10.000 311.095 10.000 311.150 V 313.800 C 10.000 313.855 10.045 313.900 10.100 313.900 H 13.100 Z" stroke="rgb(0,0,0)" stroke-width="0.20" />
  <text dominant-baseline="hanging" font-size="4px" style="font-family: sans-serif ; font-weight: normal; font-style: normal; fill: rgb(255,0,0)" text-anchor="middle" transform="matrix( 1.000 0.000 0.000 1.000 115.100 310.100 )">front</text>
</g>
<g id="p-4" style="fill:none;stroke-linecap:round;stroke-linejoin:round;">
  <path d="M 25.100 284.100 H 22.200 C 22.100 284.100 22.200 284.200 22.200 284.100 V 281.300 C 22.200 281.200 22.100 281.300 22.200 281.300 H 28.000 C 28.100 281.300 28.000 281.200 28.000 281.300 V 284.100 C 28.000 284.200 28.100 284.100 28.000 284.100 H 25.100 Z" stroke="rgb(0,0,255)" stroke-width="0.20" />
  <path d="M 37.100 284.100 H 34.200 C 34.100 284.100 34.200 284.200 34.200 284.100 V 281.300 C 34.200 281.200 34.100 281.300 34.200 281.300 H 40.000 C 40.100 281.300 40.000 281.200 40.000 281.300 V 284.100 C 40.000 284.200 40.100 284.100 40.000 284.100 H 37.100 Z" stroke="rgb(0,0,255)" stroke-width="0.20" />
  <path d="M 49.100 284.100 H 46.200 C 46.100 284.100 46.200 284.200 46.200 284.100 V 281.300 C 46.200 281.200 46.100 281.300 46.200 281.300 H 52.000 C 52.100 281.300 52.000 281.200 52.000 281.300 V 284.100 C 52.000 284.200 52.100 284.100 52.000 284.100 H 49.100 Z" stroke="rgb(0,0,255)" stroke-width="0.20" />
  <path d="M 61.100 284.100 H 58.200 C 58.100 284.100 58.200 284.200 58.200 284.100 V 281.300 C 58.200 281.200 58.100 281.300 58.200 281.300 H 64.000 C 64.100 281.300 64.000 281.200 64.000 281.300 V 284.100 C 64.000 284.200 64.100 284.100 64.000 284.100 H 61.100 Z" stroke="rgb(0,0,255)" stroke-width="0.20" />
  <path d="M 73.100 284.100 H 70.200 C 70.100 284.100 70.200 284.200 70.200 284.100 V 281.300 C 70.200 281.200 70.100 281.300 70.200 281.300 H 76.000 C 76.100 281.300 76.000 281.200 76.000 281.300 V 284.100 C 76.000 284.200 76.100 284.100 76.000 284.100 H 73.100 Z" stroke="rgb(0,0,255)" stroke-width="0.20" />
  <path d="M 85.100 284.100 H 82.200 C 82.100 284.100 82.200 284.200 82.200 284.100 V 281.300 C 82.200 281.200 82.100 281.300 82.200 281.300 H 88.000 C 88.100 281.300 88.000 281.200 88.000 281.300 V 284.100 C 88.000 284.200 88.100 284.100 88.000 284.100 H 85.100 Z" stroke="rgb(0,0,255)" stroke-width="0.20" />
  <path d="M 97.100 284.100 H 94.200 C 94.100 284.100 94.200 284.200 94.200 284.100 V 281.300 C 94.200 281.200 94.100 281.300 94.200 281.300 H 100.000 C 100.100 281.300 100.000 281.200 100.000 281.300 V 284.100 C 100.000 284.200 100.100 284.100 100.000 284.100 H 97.100 Z" stroke="rgb(0,0,255)" stroke-width="0.20" />
  <path d="M 109.100 284.100 H 106.200 C 106.100 284.100 106.200 284.200 106.200 284.100 V 281.300 C 106.200 281.200 106.100 281.300 106.200 281.300 H 112.000 C 112.100 281.300 112.000 281.200 112.000 281.300 V 284.100 C 112.000 284.200 112.100 284.100 112.000 284.100 H 109.100 Z" stroke="rgb(0,0,255)" stroke-width="0.20" />
  <path d="M 121.100 284.100 H 118.200 C 118.100 284.100 118.200 284.200 118.200 284.100 V 281.300 C 118.200 281.200 118.100 281.300 118.200 281.300 H 124.000 C 124.100 281.300 124.000 281.200 124.000 281.300 V 284.100 C 124.000 284.200 124.100 284.100 124.000 284.100 H 121.100 Z" stroke="rgb(0,0,255)" stroke-width="0.20" />
  <path d="M 133.100 284.100 H 130.200 C 130.100 284.100 130.200 284.200 130.200 284.100 V 281.300 C 130.200 281.200 130.100 281.300 130.200 281.300 H 136.000 C 136.100 281.300 136.000 281.200 136.000 281.300 V 284.100 C 136.000 284.200 136.100 284.100 136.000 284.100 H 133.100 Z" stroke="rgb(0,0,255)" stroke-width="0.20" />
  <path d="M 145.100 284.100 H 142.200 C 142.100 284.100 142.200 284.200 142.200 284.100 V 281.300 C 142.200 281.200 142.100 281.300 142.200 281.300 H 148.000 C 148.100 281.300 148.000 281.200 148.000 281.300 V 284.100 C 148.000 284.200 148.100 284.100 148.000 284.100 H 145.100 Z" stroke="rgb(0,0,255)" stroke-width="0.20" />
  <path d="M 157.100 284.100 H 154.200 C 154.100 284.100 154.200 284.200 154.200 284.100 V 281.300 C 154.200 281.200 154.100 281.300 154.200 281.300 H 160.000 C 160.100 281.300 160.000 281.200 160.000 281.300 V 284.100 C 160.000 284.200 160.100 284.100 160.000 284.100 H 157.100 Z" stroke="rgb(0,0,255)" stroke-width="0.20" />
  <path d="M 169.100 284.100 H 166.200 C 166.100 284.100 166.200 284.200 166.200 284.100 V 281.300 C 166.200 281.200 166.100 281.300 166.200 281.300 H 172.000 C 172.100 281.300 172.000 281.200 172.000 281.300 V 284.100 C 172.000 284.200 172.100 284.100 172.000 284.100 H 169.100 Z" stroke="rgb(0,0,255)" stroke-width="0.20" />
  <path d="M 181.100 284.100 H 178.200 C 178.100 284.100 178.200 284.200 178.200 284.100 V 281.300 C 178.200 281.200 178.100 281.300 178.200 281.300 H 184.000 C 184.100 281.300 184.000 281.200 184.000 281.300 V 284.100 C 184.000 284.200 184.100 284.100 184.000 284.100 H 181.100 Z" stroke="rgb(0,0,255)" stroke-width="0.20" />
  <path d="M 193.100 284.100 H 190.200 C 190.100 284.100 190.200 284.200 190.200 284.100 V 281.300 C 190.200 281.200 190.100 281.300 190.200 281.300 H 196.000 C 196.100 281.300 196.000 281.200 196.000 281.300 V 284.100 C 196.000 284.200 196.100 284.100 196.000 284.100 H 193.100 Z" stroke="rgb(0,0,255)" stroke-width="0.20" />
  <path d="M 205.100 284.100 H 202.200 C 202.100 284.100 202.200 284.200 202.200 284.100 V 281.300 C 202.200 281.200 202.100 281.300 202.200 281.300 H 208.000 C 208.100 281.300 208.000 281.200 208.000 281.300 V 284.100 C 208.000 284.200 208.100 284.100 208.000 284.100 H 205.100 Z" stroke="rgb(0,0,255)" stroke-width="0.20" />
</g>
<g id="p-5" style="fill:none;stroke-linecap:round;stroke-linejoin:round;">
  <path d="M 13.100 300.050 H 213.950 C 214.005 300.050 214.050 300.005 214.050 299.950 V 293.950 C 214.050 293.895 214.005 293.850 213.950 293.850 H 13.100 C 13.045 293.850 13.000 293.895 13.000 293.950 V 299.950 C 13.000 300.005 13.045 300.050 13.100 300.050 Z" stroke="rgb(0,0,0)" stroke-width="0.20" />
</g>
<g id="p-6" style="fill:none;stroke-linecap:round;stroke-linejoin:round;">
  <path d="M 13.100 293.200 H 25.100 C 26.171 293.200 27.223 292.918 28.150 292.383 C 29.077 291.847 29.847 291.077 30.383 290.150 C 30.901 289.253 31.645 288.508 32.542 287.990 C 33.439 287.473 34.457 287.200 35.492 287.200 H 194.708 C 195.743 287.200 196.761 287.473 197.658 287.990 C 198.555 288.508 199.299 289.253 199.817 290.150 C 200.353 291.077 201.123 291.847 202.050 292.383 C 202.977 292.918 204.029 293.200 205.100 293.200 H 217.100 H 220.100 C 220.155 293.200 220.200 293.155 220.200 293.100 V 290.450 C 220.200 290.395 220.155 290.350 220.100 290.350 H 217.200 C 217.100 290.350 217.200 290.450 217.200 290.350 V 284.550 C 217.200 284.450 217.100 284.550 217.200 284.550 H 220.100 C 220.155 284.550 220.200 284.505 220.200 284.450 V 281.800 C 220.200 281.745 220.155 281.700 220.100 281.700 H 217.100 H 13.100 H 10.100 C 10.045 281.700 10.000 281.745 10.000 281.800 V 284.450 C 10.000 284.505 10.045 284.550 10.100 284.550 H 13.000 C 13.100 284.550 13.000 284.450 13.000 284.550 V 290.350 C 13.000 290.450 13.100 290.350 13.000 290.350 H 10.100 C 10.045 290.350 10.000 290.395 10.000 290.450 V 293.100 C 10.000 293.155 10.045 293.200 10.100 293.200 H 13.100 Z" stroke="rgb(0,0,0)" stroke-width="0.20" />
  <text dominant-baseline="hanging" font-size="4px" style="font-family: sans-serif ; font-weight: normal; font-style: normal; fill: rgb(255,0,0)" text-anchor="middle" transform="matrix( 1.000 0.000 0.000 1.000 115.100 289.400 )">back</text>
</g>
<g id="p-7" style="fill:none;stroke-linecap:round;stroke-linejoin:round;">
  <path d="M 13.100 277.200 H 22.000 C 22.100 277.200 22.000 277.100 22.000 277.200 V 280.100 C 22.000 280.155 22.045 280.200 22.100 280.200 H 28.100 C 28.155 280.200 28.200 280.155 28.200 280.100 V 277.200 C 28.200 277.100 28.100 277.200 28.200 277.200 H 34.000 C 34.100 277.200 34.000 277.100 34.000 277.200 V 280.100 C 34.000 280.155 34.045 280.200 34.100 280.200 H 40.100 C 40.155 280.200 40.200 280.155 40.200 280.100 V 277.200 C 40.200 277.100 40.100 277.200 40.200 277.200 H 46.000 C 46.100 277.200 46.000 277.100 46.000 277.200 V 280.100 C 46.000 280.155 46.045 280.200 46.100 280.200 H 52.100 C 52.155 280.200 52.200 280.155 52.200 280.100 V 277.200 C 52.200 277.100 52.100 277.200 52.200 277.200 H 58.000 C 58.100 277.200 58.000 277.100 58.000 277.200 V 280.100 C 58.000 280.155 58.045 280.200 58.100 280.200 H 64.100 C 64.155 280.200 64.200 280.155 64.200 280.100 V 277.200 C 64.200 277.100 64.100 277.200 64.200 277.200 H 70.000 C 70.100 277.200 70.000 277.100 70.000 277.200 V 280.100 C 70.000 280.155 70.045 280.200 70.100 280.200 H 76.100 C 76.155 280.200 76.200 280.155 76.200 280.100 V 277.200 C 76.200 277.100 76.100 277.200 76.200 277.200 H 82.000 C 82.100 277.200 82.000 277.100 82.000 277.200 V 280.100 C 82.000 280.155 82.045 280.200 82.100 280.200 H 88.100 C 88.155 280.200 88.200 280.155 88.200 280.100 V 277.200 C 88.200 277.100 88.100 277.200 88.200 277.200 H 94.000 C 94.100 277.200 94.000 277.100 94.000 277.200 V 280.100 C 94.000 280.155 94.045 280.200 94.100 280.200 H 100.100 C 100.155 280.200 100.200 280.155 100.200 280.100 V 277.200 C 100.200 277.100 100.100 277.200 100.200 277.200 H 106.000 C 106.100 277.200 106.000 277.100 106.000 277.200 V 280.100 C 106.000 280.155 106.045 280.200 106.100 280.200 H 112.100 C 112.155 280.200 112.200 280.155 112.200 280.100 V 277.200 C 112.200 277.100 112.100 277.200 112.200 277.200 H 118.000 C 118.100 277.200 118.000 277.100 118.000 277.200 V 280.100 C 118.000 280.155 118.045 280.200 118.100 280.200 H 124.100 C 124.155 280.200 124.200 280.155 124.200 280.100 V 277.200 C 124.200 277.100 124.100 277.200 124.200 277.200 H 130.000 C 130.100 277.200 130.000 277.100 130.000 277.200 V 280.100 C 130.000 280.155 130.045 280.200 130.100 280.200 H 136.100 C 136.155 280.200 136.200 280.155 136.200 280.100 V 277.200 C 136.200 277.100 136.100 277.200 136.200 277.200 H 142.000 C 142.100 277.200 142.000 277.100 142.000 277.200 V 280.100 C 142.000 280.155 142.045 280.200 142.100 280.200 H 148.100 C 148.155 280.200 148.200 280.155 148.200 280.100 V 277.200 C 148.200 277.100 148.100 277.200 148.200 277.200 H 154.000 C 154.100 277.200 154.000 277.100 154.000 277.200 V 280.100 C 154.000 280.155 154.045 280.200 154.100 280.200 H 160.100 C 160.155 280.200 160.200 280.155 160.200 280.100 V 277.200 C 160.200 277.100 160.100 277.200 160.200 277.200 H 166.000 C 166.100 277.200 166.000 277.100 166.000 277.200 V 280.100 C 166.000 280.155 166.045 280.200 166.100 280.200 H 172.100 C 172.155 280.200 172.200 280.155 172.200 280.100 V 277.200 C 172.200 277.100 172.100 277.200 172.200 277.200 H 178.000 C 178.100 277.200 178.000 277.100 178.000 277.200 V 280.100 C 178.000 280.155 178.045 280.200 178.100 280.200 H 184.100 C 184.155 280.200 184.200 280.155 184.200 280.100 V 277.200 C 184.200 277.100 184.100 277.200 184.200 277.200 H 190.000 C 190.100 277.200 190.000 277.100 190.000 277.200 V 280.100 C 190.000 280.155 190.045 280.200 190.100 280.200 H 196.100 C 196.155 280.200 196.200 280.155 196.200 280.100 V 277.200 C 196.200 277.100 196.100 277.200 196.200 277.200 H 202.000 C 202.100 277.200 202.000 277.100 202.000 277.200 V 280.100 C 202.000 280.155 202.045 280.200 202.100 280.200 H 208.100 C 208.155 280.200 208.200 280.155 208.200 280.100 V 277.200 C 208.200 277.100 208.100 277.200 208.200 277.200 H 217.100 C 217.155 277.200 217.200 277.155 217.200 277.100 V 268.200 C 217.200 268.100 217.100 268.200 217.200 268.200 H 220.100 C 220.155 268.200 220.200 268.155 220.200 268.100 V 262.100 C 220.200 262.045 220.155 262.000 220.100 262.000 H 217.200 C 217.100 262.000 217.200 262.100 217.200 262.000 V 256.200 C 217.200 256.100 217.100 256.200 217.200 256.200 H 220.100 C 220.155 256.200 220.200 256.155 220.200 256.100 V 250.100 C 220.200 250.045 220.155 250.000 220.100 250.000 H 217.200 C 217.100 250.000 217.200 250.100 217.200 250.000 V 244.200 C 217.200 244.100 217.100 244.200 217.200 244.200 H 220.100 C 220.155 244.200 220.200 244.155 220.200 244.100 V 238.100 C 220.200 238.045 220.155 238.000 220.100 238.000 H 217.200 C 217.100 238.000 217.200 238.100 217.200 238.000 V 232.200 C 217.200 232.100 217.100 232.200 217.200 232.200 H 220.100 C 220.155 232.200 220.200 232.155 220.200 232.100 V 226.100 C 220.200 226.045 220.155 226.000 220.100 226.000 H 217.200 C 217.100 226.000 217.200 226.100 217.200 226.000 V 220.200 C 217.200 220.100 217.100 220.200 217.200 220.200 H 220.100 C 220.155 220.200 220.200 220.155 220.200 220.100 V 214.100 C 220.200 214.045 220.155 214.000 220.100 214.000 H 217.200 C 217.100 214.000 217.200 214.100 217.200 214.000 V 208.200 C 217.200 208.100 217.100 208.200 217.200 208.200 H 220.100 C 220.155 208.200 220.200 208.155 220.200 208.100 V 202.100 C 220.200 202.045 220.155 202.000 220.100 202.000 H 217.200 C 217.100 202.000 217.200 202.100 217.200 202.000 V 196.200 C 217.200 196.100 217.100 196.200 217.200 196.200 H 220.100 C 220.155 196.200 220.200 196.155 220.200 196.100 V 190.100 C 220.200 190.045 220.155 190.000 220.100 190.000 H 217.200 C 217.100 190.000 217.200 190.100 217.200 190.000 V 184.200 C 217.200 184.100 217.100 184.200 217.200 184.200 H 220.100 C 220.155 184.200 220.200 184.155 220.200 184.100 V 178.100 C 220.200 178.045 220.155 178.000 220.100 178.000 H 217.200 C 217.100 178.000 217.200 178.100 217.200 178.000 V 172.200 C 217.200 172.100 217.100 172.200 217.200 172.200 H 220.100 C 220.155 172.200 220.200 172.155 220.200 172.100 V 166.100 C 220.200 166.045 220.155 166.000 220.100 166.000 H 217.200 C 217.100 166.000 217.200 166.100 217.200 166.000 V 160.200 C 217.200 160.100 217.100 160.200 217.200 160.200 H 220.100 C 220.155 160.200 220.200 160.155 220.200 160.100 V 154.100 C 220.200 154.045 220.155 154.000 220.100 154.000 H 217.200 C 217.100 154.000 217.200 154.100 217.200 154.000 V 148.200 C 217.200 148.100 217.100 148.200 217.200 148.200 H 220.100 C 220.155 148.200 220.200 148.155 220.200 148.100 V 142.100 C 220.200 142.045 220.155 142.000 220.100 142.000 H 217.200 C 217.100 142.000 217.200 142.100 217.200 142.000 V 136.200 C 217.200 136.100 217.100 136.200 217.200 136.200 H 220.100 C 220.155 136.200 220.200 136.155 220.200 136.100 V 130.100 C 220.200 130.045 220.155 130.000 220.100 130.000 H 217.200 C 217.100 130.000 217.200 130.100 217.200 130.000 V 124.200 C 217.200 124.100 217.100 124.200 217.200 124.200 H 220.100 C 220.155 124.200 220.200 124.155 220.200 124.100 V 118.100 C 220.200 118.045 220.155 118.000 220.100 118.000 H 217.200 C 217.100 118.000 217.200 118.100 217.200 118.000 V 112.200 C 217.200 112.100 217.100 112.200 217.200 112.200 H 220.100 C 220.155 112.200 220.200 112.155 220.200 112.100 V 106.100 C 220.200 106.045 220.155 106.000 220.100 106.000 H 217.200 C 217.100 106.000 217.200 106.100 217.200 106.000 V 100.200 C 217.200 100.100 217.100 100.200 217.200 100.200 H 220.100 C 220.155 100.200 220.200 100.155 220.200 100.100 V 94.100 C 220.200 94.045 220.155 94.000 220.100 94.000 H 217.200 C 217.100 94.000 217.200 94.100 217.200 94.000 V 88.200 C 217.200 88.100 217.100 88.200 217.200 88.200 H 220.100 C 220.155 88.200 220.200 88.155 220.200 88.100 V 82.100 C 220.200 82.045 220.155 82.000 220.100 82.000 H 217.200 C 217.100 82.000 217.200 82.100 217.200 82.000 V 76.200 C 217.200 76.100 217.100 76.200 217.200 76.200 H 220.100 C 220.155 76.200 220.200 76.155 220.200 76.100 V 70.100 C 220.200 70.045 220.155 70.000 220.100 70.000 H 217.200 C 217.100 70.000 217.200 70.100 217.200 70.000 V 64.200 C 217.200 64.100 217.100 64.200 217.200 64.200 H 220.100 C 220.155 64.200 220.200 64.155 220.200 64.100 V 58.100 C 220.200 58.045 220.155 58.000 220.100 58.000 H 217.200 C 217.100 58.000 217.200 58.100 217.200 58.000 V 52.200 C 217.200 52.100 217.100 52.200 217.200 52.200 H 220.100 C 220.155 52.200 220.200 52.155 220.200 52.100 V 46.100 C 220.200 46.045 220.155 46.000 220.100 46.000 H 217.200 C 217.100 46.000 217.200 46.100 217.200 46.000 V 40.200 C 217.200 40.100 217.100 40.200 217.200 40.200 H 220.100 C 220.155 40.200 220.200 40.155 220.200 40.100 V 34.100 C 220.200 34.045 220.155 34.000 220.100 34.000 H 217.200 C 217.100 34.000 217.200 34.100 217.200 34.000 V 28.200 C 217.200 28.100 217.100 28.200 217.200 28.200 H 220.100 C 220.155 28.200 220.200 28.155 220.200 28.100 V 22.100 C 220.200 22.045 220.155 22.000 220.100 22.000 H 217.200 C 217.100 22.000 217.200 22.100 217.200 22.000 V 13.100 C 217.200 13.045 217.155 13.000 217.100 13.000 H 208.200 C 208.100 13.000 208.200 13.100 208.200 13.000 V 10.100 C 208.200 10.045 208.155 10.000 208.100 10.000 H 202.100 C 202.045 10.000 202.000 10.045 202.000 10.100 V 13.000 C 202.000 13.100 202.100 13.000 202.000 13.000 H 196.200 C 196.100 13.000 196.200 13.100 196.200 13.000 V 10.100 C 196.200 10.045 196.155 10.000 196.100 10.000 H 190.100 C 190.045 10.000 190.000 10.045 190.000 10.100 V 13.000 C 190.000 13.100 190.100 13.000 190.000 13.000 H 184.200 C 184.100 13.000 184.200 13.100 184.200 13.000 V 10.100 C 184.200 10.045 184.155 10.000 184.100 10.000 H 178.100 C 178.045 10.000 178.000 10.045 178.000 10.100 V 13.000 C 178.000 13.100 178.100 13.000 178.000 13.000 H 172.200 C 172.100 13.000 172.200 13.100 172.200 13.000 V 10.100 C 172.200 10.045 172.155 10.000 172.100 10.000 H 166.100 C 166.045 10.000 166.000 10.045 166.000 10.100 V 13.000 C 166.000 13.100 166.100 13.000 166.000 13.000 H 160.200 C 160.100 13.000 160.200 13.100 160.200 13.000 V 10.100 C 160.200 10.045 160.155 10.000 160.100 10.000 H 154.100 C 154.045 10.000 154.000 10.045 154.000 10.100 V 13.000 C 154.000 13.100 154.100 13.000 154.000 13.000 H 148.200 C 148.100 13.000 148.200 13.100 148.200 13.000 V 10.100 C 148.200 10.045 148.155 10.000 148.100 10.000 H 142.100 C 142.045 10.000 142.000 10.045 142.000 10.100 V 13.000 C 142.000 13.100 142.100 13.000 142.000 13.000 H 136.200 C 136.100 13.000 136.200 13.100 136.200 13.000 V 10.100 C 136.200 10.045 136.155 10.000 136.100 10.000 H 130.100 C 130.045 10.000 130.000 10.045 130.000 10.100 V 13.000 C 130.000 13.100 130.100 13.000 130.000 13.000 H 124.200 C 124.100 13.000 124.200 13.100 124.200 13.000 V 10.100 C 124.200 10.045 124.155 10.000 124.100 10.000 H 118.100 C 118.045 10.000 118.000 10.045 118.000 10.100 V 13.000 C 118.000 13.100 118.100 13.000 118.000 13.000 H 112.200 C 112.100 13.000 112.200 13.100 112.200 13.000 V 10.100 C 112.200 10.045 112.155 10.000 112.100 10.000 H 106.100 C 106.045 10.000 106.000 10.045 106.000 10.100 V 13.000 C 106.000 13.100 106.100 13.000 106.000 13.000 H 100.200 C 100.100 13.000 100.200 13.100 100.200 13.000 V 10.100 C 100.200 10.045 100.155 10.000 100.100 10.000 H 94.100 C 94.045 10.000 94.000 10.045 94.000 10.100 V 13.000 C 94.000 13.100 94.100 13.000 94.000 13.000 H 88.200 C 88.100 13.000 88.200 13.100 88.200 13.000 V 10.100 C 88.200 10.045 88.155 10.000 88.100 10.000 H 82.100 C 82.045 10.000 82.000 10.045 82.000 10.100 V 13.000 C 82.000 13.100 82.100 13.000 82.000 13.000 H 76.200 C 76.100 13.000 76.200 13.100 76.200 13.000 V 10.100 C 76.200 10.045 76.155 10.000 76.100 10.000 H 70.100 C 70.045 10.000 70.000 10.045 70.000 10.100 V 13.000 C 70.000 13.100 70.100 13.000 70.000 13.000 H 64.200 C 64.100 13.000 64.200 13.100 64.200 13.000 V 10.100 C 64.200 10.045 64.155 10.000 64.100 10.000 H 58.100 C 58.045 10.000 58.000 10.045 58.000 10.100 V 13.000 C 58.000 13.100 58.100 13.000 58.000 13.000 H 52.200 C 52.100 13.000 52.200 13.100 52.200 13.000 V 10.100 C 52.200 10.045 52.155 10.000 52.100 10.000 H 46.100 C 46.045 10.000 46.000 10.045 46.000 10.100 V 13.000 C 46.000 13.100 46.100 13.000 46.000 13.000 H 40.200 C 40.100 13.000 40.200 13.100 40.200 13.000 V 10.100 C 40.200 10.045 40.155 10.000 40.100 10.000 H 34.100 C 34.045 10.000 34.000 10.045 34.000 10.100 V 13.000 C 34.000 13.100 34.100 13.000 34.000 13.000 H 28.200 C 28.100 13.000 28.200 13.100 28.200 13.000 V 10.100 C 28.200 10.045 28.155 10.000 28.100 10.000 H 22.100 C 22.045 10.000 22.000 10.045 22.000 10.100 V 13.000 C 22.000 13.100 22.100 13.000 22.000 13.000 H 13.100 C 13.045 13.000 13.000 13.045 13.000 13.100 V 22.000 C 13.000 22.100 13.100 22.000 13.000 22.000 H 10.100 C 10.045 22.000 10.000 22.045 10.000 22.100 V 28.100 C 10.000 28.155 10.045 28.200 10.100 28.200 H 13.000 C 13.100 28.200 13.000 28.100 13.000 28.200 V 34.000 C 13.000 34.100 13.100 34.000 13.000 34.000 H 10.100 C 10.045 34.000 10.000 34.045 10.000 34.100 V 40.100 C 10.000 40.155 10.045 40.200 10.100 40.200 H 13.000 C 13.100 40.200 13.000 40.100 13.000 40.200 V 46.000 C 13.000 46.100 13.100 46.000 13.000 46.000 H 10.100 C 10.045 46.000 10.000 46.045 10.000 46.100 V 52.100 C 10.000 52.155 10.045 52.200 10.100 52.200 H 13.000 C 13.100 52.200 13.000 52.100 13.000 52.200 V 58.000 C 13.000 58.100 13.100 58.000 13.000 58.000 H 10.100 C 10.045 58.000 10.000 58.045 10.000 58.100 V 64.100 C 10.000 64.155 10.045 64.200 10.100 64.200 H 13.000 C 13.100 64.200 13.000 64.100 13.000 64.200 V 70.000 C 13.000 70.100 13.100 70.000 13.000 70.000 H 10.100 C 10.045 70.000 10.000 70.045 10.000 70.100 V 76.100 C 10.000 76.155 10.045 76.200 10.100 76.200 H 13.000 C 13.100 76.200 13.000 76.100 13.000 76.200 V 82.000 C 13.000 82.100 13.100 82.000 13.000 82.000 H 10.100 C 10.045 82.000 10.000 82.045 10.000 82.100 V 88.100 C 10.000 88.155 10.045 88.200 10.100 88.200 H 13.000 C 13.100 88.200 13.000 88.100 13.000 88.200 V 94.000 C 13.000 94.100 13.100 94.000 13.000 94.000 H 10.100 C 10.045 94.000 10.000 94.045 10.000 94.100 V 100.100 C 10.000 100.155 10.045 100.200 10.100 100.200 H 13.000 C 13.100 100.200 13.000 100.100 13.000 100.200 V 106.000 C 13.000 106.100 13.100 106.000 13.000 106.000 H 10.100 C 10.045 106.000 10.000 106.045 10.000 106.100 V 112.100 C 10.000 112.155 10.045 112.200 10.100 112.200 H 13.000 C 13.100 112.200 13.000 112.100 13.000 112.200 V 118.000 C 13.000 118.100 13.100 118.000 13.000 118.000 H 10.100 C 10.045 118.000 10.000 118.045 10.000 118.100 V 124.100 C 10.000 124.155 10.045 124.200 10.100 124.200 H 13.000 C 13.100 124.200 13.000 124.100 13.000 124.200 V 130.000 C 13.000 130.100 13.100 130.000 13.000 130.000 H 10.100 C 10.045 130.000 10.000 130.045 10.000 130.100 V 136.100 C 10.000 136.155 10.045 136.200 10.100 136.200 H 13.000 C 13.100 136.200 13.000 136.100 13.000 136.200 V 142.000 C 13.000 142.100 13.100 142.000 13.000 142.000 H 10.100 C 10.045 142.000 10.000 142.045 10.000 142.100 V 148.100 C 10.000 148.155 10.045 148.200 10.100 148.200 H 13.000 C 13.100 148.200 13.000 148.100 13.000 148.200 V 154.000 C 13.000 154.100 13.100 154.000 13.000 154.000 H 10.100 C 10.045 154.000 10.000 154.045 10.000 154.100 V 160.100 C 10.000 160.155 10.045 160.200 10.100 160.200 H 13.000 C 13.100 160.200 13.000 160.100 13.000 160.200 V 166.000 C 13.000 166.100 13.100 166.000 13.000 166.000 H 10.100 C 10.045 166.000 10.000 166.045 10.000 166.100 V 172.100 C 10.000 172.155 10.045 172.200 10.100 172.200 H 13.000 C 13.100 172.200 13.000 172.100 13.000 172.200 V 178.000 C 13.000 178.100 13.100 178.000 13.000 178.000 H 10.100 C 10.045 178.000 10.000 178.045 10.000 178.100 V 184.100 C 10.000 184.155 10.045 184.200 10.100 184.200 H 13.000 C 13.100 184.200 13.000 184.100 13.000 184.200 V 190.000 C 13.000 190.100 13.100 190.000 13.000 190.000 H 10.100 C 10.045 190.000 10.000 190.045 10.000 190.100 V 196.100 C 10.000 196.155 10.045 196.200 10.100 196.200 H 13.000 C 13.100 196.200 13.000 196.100 13.000 196.200 V 202.000 C 13.000 202.100 13.100 202.000 13.000 202.000 H 10.100 C 10.045 202.000 10.000 202.045 10.000 202.100 V 208.100 C 10.000 208.155 10.045 208.200 10.100 208.200 H 13.000 C 13.100 208.200 13.000 208.100 13.000 208.200 V 214.000 C 13.000 214.100 13.100 214.000 13.000 214.000 H 10.100 C 10.045 214.000 10.000 214.045 10.000 214.100 V 220.100 C 10.000 220.155 10.045 220.200 10.100 220.200 H 13.000 C 13.100 220.200 13.000 220.100 13.000 220.200 V 226.000 C 13.000 226.100 13.100 226.000 13.000 226.000 H 10.100 C 10.045 226.000 10.000 226.045 10.000 226.100 V 232.100 C 10.000 232.155 10.045 232.200 10.100 232.200 H 13.000 C 13.100 232.200 13.000 232.100 13.000 232.200 V 238.000 C 13.000 238.100 13.100 238.000 13.000 238.000 H 10.100 C 10.045 238.000 10.000 238.045 10.000 238.100 V 244.100 C 10.000 244.155 10.045 244.200 10.100 244.200 H 13.000 C 13.100 244.200 13.000 244.100 13.000 244.200 V 250.000 C 13.000 250.100 13.100 250.000 13.000 250.000 H 10.100 C 10.045 250.000 10.000 250.045 10.000 250.100 V 256.100 C 10.000 256.155 10.045 256.200 10.100 256.200 H 13.000 C 13.100 256.200 13.000 256.100 13.000 256.200 V 262.000 C 13.000 262.100 13.100 262.000 13.000 262.000 H 10.100 C 10.045 262.000 10.000 262.045 10.000 262.100 V 268.100 C 10.000 268.155 10.045 268.200 10.100 268.200 H 13.000 C 13.100 268.200 13.000 268.100 13.000 268.200 V 277.100 C 13.000 277.155 13.045 277.200 13.100 277.200 Z" stroke="rgb(0,0,0)" stroke-width="0.20" />
  <text dominant-baseline="hanging" font-size="4px" style="font-family: sans-serif ; font-weight: normal; font-style: normal; fill: rgb(255,0,0)" text-anchor="middle" transform="matrix( 1.000 0.000 0.000 1.000 115.100 143.200 )">bottom</text>
</g>
<g id="p-8" style="fill:none;stroke-linecap:round;stroke-linejoin:round;">
  <path d="M 236.800 304.800 H 233.900 C 233.800 304.800 233.900 304.900 233.900 304.800 V 302.000 C 233.900 301.900 233.800 302.000 233.900 302.000 H 239.700 C 239.800 302.000 239.700 301.900 239.700 302.000 V 304.800 C 239.700 304.900 239.800 304.800 239.700 304.800 H 236.800 Z" stroke="rgb(0,0,255)" stroke-width="0.20" />
  <path d="M 248.800 304.800 H 245.900 C 245.800 304.800 245.900 304.900 245.900 304.800 V 302.000 C 245.900 301.900 245.800 302.000 245.900 302.000 H 251.700 C 251.800 302.000 251.700 301.900 251.700 302.000 V 304.800 C 251.700 304.900 251.800 304.800 251.700 304.800 H 248.800 Z" stroke="rgb(0,0,255)" stroke-width="0.20" />
  <path d="M 260.800 304.800 H 257.900 C 257.800 304.800 257.900 304.900 257.900 304.800 V 302.000 C 257.900 301.900 257.800 302.000 257.900 302.000 H 263.700 C 263.800 302.000 263.700 301.900 263.700 302.000 V 304.800 C 263.700 304.900 263.800 304.800 263.700 304.800 H 260.800 Z" stroke="rgb(0,0,255)" stroke-width="0.20" />
  <path d="M 272.800 304.800 H 269.900 C 269.800 304.800 269.900 304.900 269.900 304.800 V 302.000 C 269.900 301.900 269.800 302.000 269.900 302.000 H 275.700 C 275.800 302.000 275.700 301.900 275.700 302.000 V 304.800 C 275.700 304.900 275.800 304.800 275.700 304.800 H 272.800 Z" stroke="rgb(0,0,255)" stroke-width="0.20" />
  <path d="M 284.800 304.800 H 281.900 C 281.800 304.800 281.900 304.900 281.900 304.800 V 302.000 C 281.900 301.900 281.800 302.000 281.900 302.000 H 287.700 C 287.800 302.000 287.700 301.900 287.700 302.000 V 304.800 C 287.700 304.900 287.800 304.800 287.700 304.800 H 284.800 Z" stroke="rgb(0,0,255)" stroke-width="0.20" />
  <path d="M 296.800 304.800 H 293.900 C 293.800 304.800 293.900 304.900 293.900 304.800 V 302.000 C 293.900 301.900 293.800 302.000 293.900 302.000 H 299.700 C 299.800 302.000 299.700 301.900 299.700 302.000 V 304.800 C 299.700 304.900 299.800 304.800 299.700 304.800 H 296.800 Z" stroke="rgb(0,0,255)" stroke-width="0.20" />
  <path d="M 308.800 304.800 H 305.900 C 305.800 304.800 305.900 304.900 305.900 304.800 V 302.000 C 305.900 301.900 305.800 302.000 305.900 302.000 H 311.700 C 311.800 302.000 311.700 301.900 311.700 302.000 V 304.800 C 311.700 304.900 311.800 304.800 311.700 304.800 H 308.800 Z" stroke="rgb(0,0,255)" stroke-width="0.20" />
  <path d="M 320.800 304.800 H 317.900 C 317.800 304.800 317.900 304.900 317.900 304.800 V 302.000 C 317.900 301.900 317.800 302.000 317.900 302.000 H 323.700 C 323.800 302.000 323.700 301.900 323.700 302.000 V 304.800 C 323.700 304.900 323.800 304.800 323.700 304.800 H 320.800 Z" stroke="rgb(0,0,255)" stroke-width="0.20" />
  <path d="M 332.800 304.800 H 329.900 C 329.800 304.800 329.900 304.900 329.900 304.800 V 302.000 C 329.900 301.900 329.800 302.000 329.900 302.000 H 335.700 C 335.800 302.000 335.700 301.900 335.700 302.000 V 304.800 C 335.700 304.900 335.800 304.800 335.700 304.800 H 332.800 Z" stroke="rgb(0,0,255)" stroke-width="0.20" />
  <path d="M 344.800 304.800 H 341.900 C 341.800 304.800 341.900 304.900 341.900 304.800 V 302.000 C 341.900 301.900 341.800 302.000 341.900 302.000 H 347.700 C 347.800 302.000 347.700 301.900 347.700 302.000 V 304.800 C 347.700 304.900 347.800 304.800 347.700 304.800 H 344.800 Z" stroke="rgb(0,0,255)" stroke-width="0.20" />
  <path d="M 356.800 304.800 H 353.900 C 353.800 304.800 353.900 304.900 353.900 304.800 V 302.000 C 353.900 301.900 353.800 302.000 353.900 302.000 H 359.700 C 359.800 302.000 359.700 301.900 359.700 302.000 V 304.800 C 359.700 304.900 359.800 304.800 359.700 304.800 H 356.800 Z" stroke="rgb(0,0,255)" stroke-width="0.20" />
  <path d="M 368.800 304.800 H 365.900 C 365.800 304.800 365.900 304.900 365.900 304.800 V 302.000 C 365.900 301.900 365.800 302.000 365.900 302.000 H 371.700 C 371.800 302.000 371.700 301.900 371.700 302.000 V 304.800 C 371.700 304.900 371.800 304.800 371.700 304.800 H 368.800 Z" stroke="rgb(0,0,255)" stroke-width="0.20" />
  <path d="M 380.800 304.800 H 377.900 C 377.800 304.800 377.900 304.900 377.900 304.800 V 302.000 C 377.900 301.900 377.800 302.000 377.900 302.000 H 383.700 C 383.800 302.000 383.700 301.900 383.700 302.000 V 304.800 C 383.700 304.900 383.800 304.800 383.700 304.800 H 380.800 Z" stroke="rgb(0,0,255)" stroke-width="0.20" />
  <path d="M 392.800 304.800 H 389.900 C 389.800 304.800 389.900 304.900 389.900 304.800 V 302.000 C 389.900 301.900 389.800 302.000 389.900 302.000 H 395.700 C 395.800 302.000 395.700 301.900 395.700 302.000 V 304.800 C 395.700 304.900 395.800 304.800 395.700 304.800 H 392.800 Z" stroke="rgb(0,0,255)" stroke-width="0.20" />
  <path d="M 404.800 304.800 H 401.900 C 401.800 304.800 401.900 304.900 401.900 304.800 V 302.000 C 401.900 301.900 401.800 302.000 401.900 302.000 H 407.700 C 407.800 302.000 407.700 301.900 407.700 302.000 V 304.800 C 407.700 304.900 407.800 304.800 407.700 304.800 H 404.800 Z" stroke="rgb(0,0,255)" stroke-width="0.20" />
  <path d="M 416.800 304.800 H 413.900 C 413.800 304.800 413.900 304.900 413.900 304.800 V 302.000 C 413.900 301.900 413.800 302.000 413.900 302.000 H 419.700 C 419.800 302.000 419.700 301.900 419.700 302.000 V 304.800 C 419.700 304.900 419.800 304.800 419.700 304.800 H 416.800 Z" stroke="rgb(0,0,255)" stroke-width="0.20" />
  <path d="M 428.800 304.800 H 425.900 C 425.800 304.800 425.900 304.900 425.900 304.800 V 302.000 C 425.900 301.900 425.800 302.000 425.900 302.000 H 431.700 C 431.800 302.000 431.700 301.900 431.700 302.000 V 304.800 C 431.700 304.900 431.800 304.800 431.700 304.800 H 428.800 Z" stroke="rgb(0,0,255)" stroke-width="0.20" />
  <path d="M 440.800 304.800 H 437.900 C 437.800 304.800 437.900 304.900 437.900 304.800 V 302.000 C 437.900 301.900 437.800 302.000 437.900 302.000 H 443.700 C 443.800 302.000 443.700 301.900 443.700 302.000 V 304.800 C 443.700 304.900 443.800 304.800 443.700 304.800 H 440.800 Z" stroke="rgb(0,0,255)" stroke-width="0.20" />
  <path d="M 452.800 304.800 H 449.900 C 449.800 304.800 449.900 304.900 449.900 304.800 V 302.000 C 449.900 301.900 449.800 302.000 449.900 302.000 H 455.700 C 455.800 302.000 455.700 301.900 455.700 302.000 V 304.800 C 455.700 304.900 455.800 304.800 455.700 304.800 H 452.800 Z" stroke="rgb(0,0,255)" stroke-width="0.20" />
  <path d="M 464.800 304.800 H 461.900 C 461.800 304.800 461.900 304.900 461.900 304.800 V 302.000 C 461.900 301.900 461.800 302.000 461.900 302.000 H 467.700 C 467.800 302.000 467.700 301.900 467.700 302.000 V 304.800 C 467.700 304.900 467.800 304.800 467.700 304.800 H 464.800 Z" stroke="rgb(0,0,255)" stroke-width="0.20" />
  <path d="M 476.800 304.800 H 473.900 C 473.800 304.800 473.900 304.900 473.900 304.800 V 302.000 C 473.900 301.900 473.800 302.000 473.900 302.000 H 479.700 C 479.800 302.000 479.700 301.900 479.700 302.000 V 304.800 C 479.700 304.900 479.800 304.800 479.700 304.800 H 476.800 Z" stroke="rgb(0,0,255)" stroke-width="0.20" />
</g>
<g id="p-9" style="fill:none;stroke-linecap:round;stroke-linejoin:round;">
  <path d="M 224.800 320.750 H 485.650 C 485.705 320.750 485.750 320.705 485.750 320.650 V 314.650 C 485.750 314.595 485.705 314.550 485.650 314.550 H 224.800 C 224.745 314.550 224.700 314.595 224.700 314.650 V 320.650 C 224.700 320.705 224.745 320.750 224.800 320.750 Z" stroke="rgb(0,0,0)" stroke-width="0.20" />
</g>
<g id="p-10" style="fill:none;stroke-linecap:round;stroke-linejoin:round;">
  <path d="M 224.800 313.900 H 236.800 C 237.871 313.900 238.923 313.618 239.850 313.083 C 240.777 312.547 241.547 311.777 242.083 310.850 C 242.601 309.953 243.345 309.208 244.242 308.690 C 245.139 308.173 246.157 307.900 247.192 307.900 H 466.408 C 467.443 307.900 468.461 308.173 469.358 308.690 C 470.255 309.208 470.999 309.953 471.517 310.850 C 472.053 311.777 472.823 312.547 473.750 313.083 C 474.677 313.618 475.729 313.900 476.800 313.900 H 488.800 C 488.855 313.900 488.900 313.855 488.900 313.800 V 311.250 C 488.900 311.150 488.800 311.250 488.900 311.250 H 491.800 C 491.855 311.250 491.900 311.205 491.900 311.150 V 305.150 C 491.900 305.095 491.855 305.050 491.800 305.050 H 488.900 C 488.800 305.050 488.900 305.150 488.900 305.050 V 302.500 C 488.900 302.445 488.855 302.400 488.800 302.400 H 224.800 C 224.745 302.400 224.700 302.445 224.700 302.500 V 305.050 C 224.700 305.150 224.800 305.050 224.700 305.050 H 221.800 C 221.745 305.050 221.700 305.095 221.700 305.150 V 311.150 C 221.700 311.205 221.745 311.250 221.800 311.250 H 224.700 C 224.800 311.250 224.700 311.150 224.700 311.250 V 313.800 C 224.700 313.855 224.745 313.900 224.800 313.900 Z" stroke="rgb(0,0,0)" stroke-width="0.20" />
  <text dominant-baseline="hanging" font-size="4px" style="font-family: sans-serif ; font-weight: normal; font-style: normal; fill: rgb(255,0,0)" text-anchor="middle" transform="matrix( 1.000 0.000 0.000 1.000 356.800 310.100 )">left</text>
</g>
<g id="p-11" style="fill:none;stroke-linecap:round;stroke-linejoin:round;">
  <path d="M 236.800 284.100 H 233.900 C 233.800 284.100 233.900 284.200 233.900 284.100 V 281.300 C 233.900 281.200 233.800 281.300 233.900 281.300 H 239.700 C 239.800 281.300 239.700 281.200 239.700 281.300 V 284.100 C 239.700 284.200 239.800 284.100 239.700 284.100 H 236.800 Z" stroke="rgb(0,0,255)" stroke-width="0.20" />
  <path d="M 248.800 284.100 H 245.900 C 245.800 284.100 245.900 284.200 245.900 284.100 V 281.300 C 245.900 281.200 245.800 281.300 245.900 281.300 H 251.700 C 251.800 281.300 251.700 281.200 251.700 281.300 V 284.100 C 251.700 284.200 251.800 284.100 251.700 284.100 H 248.800 Z" stroke="rgb(0,0,255)" stroke-width="0.20" />
  <path d="M 260.800 284.100 H 257.900 C 257.800 284.100 257.900 284.200 257.900 284.100 V 281.300 C 257.900 281.200 257.800 281.300 257.900 281.300 H 263.700 C 263.800 281.300 263.700 281.200 263.700 281.300 V 284.100 C 263.700 284.200 263.800 284.100 263.700 284.100 H 260.800 Z" stroke="rgb(0,0,255)" stroke-width="0.20" />
  <path d="M 272.800 284.100 H 269.900 C 269.800 284.100 269.900 284.200 269.900 284.100 V 281.300 C 269.900 281.200 269.800 281.300 269.900 281.300 H 275.700 C 275.800 281.300 275.700 281.200 275.700 281.300 V 284.100 C 275.700 284.200 275.800 284.100 275.700 284.100 H 272.800 Z" stroke="rgb(0,0,255)" stroke-width="0.20" />
  <path d="M 284.800 284.100 H 281.900 C 281.800 284.100 281.900 284.200 281.900 284.100 V 281.300 C 281.900 281.200 281.800 281.300 281.900 281.300 H 287.700 C 287.800 281.300 287.700 281.200 287.700 281.300 V 284.100 C 287.700 284.200 287.800 284.100 287.700 284.100 H 284.800 Z" stroke="rgb(0,0,255)" stroke-width="0.20" />
  <path d="M 296.800 284.100 H 293.900 C 293.800 284.100 293.900 284.200 293.900 284.100 V 281.300 C 293.900 281.200 293.800 281.300 293.900 281.300 H 299.700 C 299.800 281.300 299.700 281.200 299.700 281.300 V 284.100 C 299.700 284.200 299.800 284.100 299.700 284.100 H 296.800 Z" stroke="rgb(0,0,255)" stroke-width="0.20" />
  <path d="M 308.800 284.100 H 305.900 C 305.800 284.100 305.900 284.200 305.900 284.100 V 281.300 C 305.900 281.200 305.800 281.300 305.900 281.300 H 311.700 C 311.800 281.300 311.700 281.200 311.700 281.300 V 284.100 C 311.700 284.200 311.800 284.100 311.700 284.100 H 308.800 Z" stroke="rgb(0,0,255)" stroke-width="0.20" />
  <path d="M 320.800 284.100 H 317.900 C 317.800 284.100 317.900 284.200 317.900 284.100 V 281.300 C 317.900 281.200 317.800 281.300 317.900 281.300 H 323.700 C 323.800 281.300 323.700 281.200 323.700 281.300 V 284.100 C 323.700 284.200 323.800 284.100 323.700 284.100 H 320.800 Z" stroke="rgb(0,0,255)" stroke-width="0.20" />
  <path d="M 332.800 284.100 H 329.900 C 329.800 284.100 329.900 284.200 329.900 284.100 V 281.300 C 329.900 281.200 329.800 281.300 329.900 281.300 H 335.700 C 335.800 281.300 335.700 281.200 335.700 281.300 V 284.100 C 335.700 284.200 335.800 284.100 335.700 284.100 H 332.800 Z" stroke="rgb(0,0,255)" stroke-width="0.20" />
  <path d="M 344.800 284.100 H 341.900 C 341.800 284.100 341.900 284.200 341.900 284.100 V 281.300 C 341.900 281.200 341.800 281.300 341.900 281.300 H 347.700 C 347.800 281.300 347.700 281.200 347.700 281.300 V 284.100 C 347.700 284.200 347.800 284.100 347.700 284.100 H 344.800 Z" stroke="rgb(0,0,255)" stroke-width="0.20" />
  <path d="M 356.800 284.100 H 353.900 C 353.800 284.100 353.900 284.200 353.900 284.100 V 281.300 C 353.900 281.200 353.800 281.300 353.900 281.300 H 359.700 C 359.800 281.300 359.700 281.200 359.700 281.300 V 284.100 C 359.700 284.200 359.800 284.100 359.700 284.100 H 356.800 Z" stroke="rgb(0,0,255)" stroke-width="0.20" />
  <path d="M 368.800 284.100 H 365.900 C 365.800 284.100 365.900 284.200 365.900 284.100 V 281.300 C 365.900 281.200 365.800 281.300 365.900 281.300 H 371.700 C 371.800 281.300 371.700 281.200 371.700 281.300 V 284.100 C 371.700 284.200 371.800 284.100 371.700 284.100 H 368.800 Z" stroke="rgb(0,0,255)" stroke-width="0.20" />
  <path d="M 380.800 284.100 H 377.900 C 377.800 284.100 377.900 284.200 377.900 284.100 V 281.300 C 377.900 281.200 377.800 281.300 377.900 281.300 H 383.700 C 383.800 281.300 383.700 281.200 383.700 281.300 V 284.100 C 383.700 284.200 383.800 284.100 383.700 284.100 H 380.800 Z" stroke="rgb(0,0,255)" stroke-width="0.20" />
  <path d="M 392.800 284.100 H 389.900 C 389.800 284.100 389.900 284.200 389.900 284.100 V 281.300 C 389.900 281.200 389.800 281.300 389.900 281.300 H 395.700 C 395.800 281.300 395.700 281.200 395.700 281.300 V 284.100 C 395.700 284.200 395.800 284.100 395.700 284.100 H 392.800 Z" stroke="rgb(0,0,255)" stroke-width="0.20" />
  <path d="M 404.800 284.100 H 401.900 C 401.800 284.100 401.900 284.200 401.900 284.100 V 281.300 C 401.900 281.200 401.800 281.300 401.900 281.300 H 407.700 C 407.800 281.300 407.700 281.200 407.700 281.300 V 284.100 C 407.700 284.200 407.800 284.100 407.700 284.100 H 404.800 Z" stroke="rgb(0,0,255)" stroke-width="0.20" />
  <path d="M 416.800 284.100 H 413.900 C 413.800 284.100 413.900 284.200 413.900 284.100 V 281.300 C 413.900 281.200 413.800 281.300 413.900 281.300 H 419.700 C 419.800 281.300 419.700 281.200 419.700 281.300 V 284.100 C 419.700 284.200 419.800 284.100 419.700 284.100 H 416.800 Z" stroke="rgb(0,0,255)" stroke-width="0.20" />
  <path d="M 428.800 284.100 H 425.900 C 425.800 284.100 425.900 284.200 425.900 284.100 V 281.300 C 425.900 281.200 425.800 281.300 425.900 281.300 H 431.700 C 431.800 281.300 431.700 281.200 431.700 281.300 V 284.100 C 431.700 284.200 431.800 284.100 431.700 284.100 H 428.800 Z" stroke="rgb(0,0,255)" stroke-width="0.20" />
  <path d="M 440.800 284.100 H 437.900 C 437.800 284.100 437.900 284.200 437.900 284.100 V 281.300 C 437.900 281.200 437.800 281.300 437.900 281.300 H 443.700 C 443.800 281.300 443.700 281.200 443.700 281.300 V 284.100 C 443.700 284.200 443.800 284.100 443.700 284.100 H 440.800 Z" stroke="rgb(0,0,255)" stroke-width="0.20" />
  <path d="M 452.800 284.100 H 449.900 C 449.800 284.100 449.900 284.200 449.900 284.100 V 281.300 C 449.900 281.200 449.800 281.300 449.900 281.300 H 455.700 C 455.800 281.300 455.700 281.200 455.700 281.300 V 284.100 C 455.700 284.200 455.800 284.100 455.700 284.100 H 452.800 Z" stroke="rgb(0,0,255)" stroke-width="0.20" />
  <path d="M 464.800 284.100 H 461.900 C 461.800 284.100 461.900 284.200 461.900 284.100 V 281.300 C 461.900 281.200 461.800 281.300 461.900 281.300 H 467.700 C 467.800 281.300 467.700 281.200 467.700 281.300 V 284.100 C 467.700 284.200 467.800 284.100 467.700 284.100 H 464.800 Z" stroke="rgb(0,0,255)" stroke-width="0.20" />
  <path d="M 476.800 284.100 H 473.900 C 473.800 284.100 473.900 284.200 473.900 284.100 V 281.300 C 473.900 281.200 473.800 281.300 473.900 281.300 H 479.700 C 479.800 281.300 479.700 281.200 479.700 281.300 V 284.100 C 479.700 284.200 479.800 284.100 479.700 284.100 H 476.800 Z" stroke="rgb(0,0,255)" stroke-width="0.20" />
</g>
<g id="p-12" style="fill:none;stroke-linecap:round;stroke-linejoin:round;">
  <path d="M 224.800 300.050 H 485.650 C 485.705 300.050 485.750 300.005 485.750 299.950 V 293.950 C 485.750 293.895 485.705 293.850 485.650 293.850 H 224.800 C 224.745 293.850 224.700 293.895 224.700 293.950 V 299.950 C 224.700 300.005 224.745 300.050 224.800 300.050 Z" stroke="rgb(0,0,0)" stroke-width="0.20" />
</g>
<g id="p-13" style="fill:none;stroke-linecap:round;stroke-linejoin:round;">
  <path d="M 224.800 293.200 H 236.800 C 237.871 293.200 238.923 292.918 239.850 292.383 C 240.777 291.847 241.547 291.077 242.083 290.150 C 242.601 289.253 243.345 288.508 244.242 287.990 C 245.139 287.473 246.157 287.200 247.192 287.200 H 466.408 C 467.443 287.200 468.461 287.473 469.358 287.990 C 470.255 288.508 470.999 289.253 471.517 290.150 C 472.053 291.077 472.823 291.847 473.750 292.383 C 474.677 292.918 475.729 293.200 476.800 293.200 H 488.800 C 488.855 293.200 488.900 293.155 488.900 293.100 V 290.550 C 488.900 290.450 488.800 290.550 488.900 290.550 H 491.800 C 491.855 290.550 491.900 290.505 491.900 290.450 V 284.450 C 491.900 284.395 491.855 284.350 491.800 284.350 H 488.900 C 488.800 284.350 488.900 284.450 488.900 284.350 V 281.800 C 488.900 281.745 488.855 281.700 488.800 281.700 H 224.800 C 224.745 281.700 224.700 281.745 224.700 281.800 V 284.350 C 224.700 284.450 224.800 284.350 224.700 284.350 H 221.800 C 221.745 284.350 221.700 284.395 221.700 284.450 V 290.450 C 221.700 290.505 221.745 290.550 221.800 290.550 H 224.700 C 224.800 290.550 224.700 290.450 224.700 290.550 V 293.100 C 224.700 293.155 224.745 293.200 224.800 293.200 Z" stroke="rgb(0,0,0)" stroke-width="0.20" />
  <text dominant-baseline="hanging" font-size="4px" style="font-family: sans-serif ; font-weight: normal; font-style: normal; fill: rgb(255,0,0)" text-anchor="middle" transform="matrix( 1.000 0.000 0.000 1.000 356.800 289.400 )">right</text>
</g>
</svg>