<?xml version="1.0" encoding="UTF-8" standalone="no"?>
<svg
   height="467.80mm"
   viewBox="0.0 0.0 613.40 467.80"
   width="613.40mm"
   version="1.1"
   id="svg99"
   sodipodi:docname="!20260317 - Template - Modelo A.svg"
   inkscape:version="1.4.2 (f4327f4, 2025-05-13)"
   xmlns:inkscape="http://www.inkscape.org/namespaces/inkscape"
   xmlns:sodipodi="http://sodipodi.sourceforge.net/DTD/sodipodi-0.dtd"
   xmlns="http://www.w3.org/2000/svg"
   xmlns:svg="http://www.w3.org/2000/svg"
   xmlns:rdf="http://www.w3.org/1999/02/22-rdf-syntax-ns#"
   xmlns:cc="http://creativecommons.org/ns#"
   xmlns:dc="http://purl.org/dc/elements/1.1/">
  <defs
     id="defs99" />
  <sodipodi:namedview
     id="namedview99"
     pagecolor="#ffffff"
     bordercolor="#000000"
     borderopacity="0.25"
     inkscape:showpageshadow="2"
     inkscape:pageopacity="0.0"
     inkscape:pagecheckerboard="0"
     inkscape:deskcolor="#d1d1d1"
     inkscape:document-units="mm"
     showguides="true"
     inkscape:zoom="0.45643172"
     inkscape:cx="421.74983"
     inkscape:cy="1006.7223"
     inkscape:window-width="1920"
     inkscape:window-height="1009"
     inkscape:window-x="1912"
     inkscape:window-y="-8"
     inkscape:window-maximized="1"
     inkscape:current-layer="layer2"
     showgrid="true">
    <sodipodi:guide
       position="271.86889,20.868401"
       orientation="-1,0"
       id="guide100"
       inkscape:locked="false"
       inkscape:label=""
       inkscape:color="rgb(0,134,229)" />
    <sodipodi:guide
       position="275.19999,111.59999"
       orientation="0,1"
       id="guide101"
       inkscape:locked="false"
       inkscape:label=""
       inkscape:color="rgb(0,134,229)" />
    <inkscape:grid
       id="grid1"
       units="mm"
       originx="0"
       originy="0"
       spacingx="0.99999996"
       spacingy="1"
       empcolor="#0099e5"
       empopacity="0.30196078"
       color="#0099e5"
       opacity="0.14901961"
       empspacing="5"
       enabled="true"
       visible="true" />
  </sodipodi:namedview>
  <!--
BasedBox - Fully closed box on a base


This box is more of a building block than a finished item.
Use a vector graphics program (like Inkscape) to add holes or adjust the base
plate. The width of the "brim" can also be adjusted with the **edge_width**
 parameter in the **Finger Joints Settings**.

See ClosedBox for variant without a base.



Created with Boxes.py (https://boxes.hackerspace-bamberg.de/)
Creation date: 2026-03-17 19:41:16
Command line (remove spaces between dashes): boxes BasedBox - -FingerJoint_edge_width=3 - -x=250 - -y=340 - -h=35 - -spacing=1
Url: https://boxes.hackerspace-bamberg.de/BasedBox?FingerJoint_style=rectangular&FingerJoint_surroundingspaces=2.0&FingerJoint_bottom_lip=0.0&FingerJoint_edge_width=3&FingerJoint_extra_length=0.0&FingerJoint_finger=2.0&FingerJoint_play=0.0&FingerJoint_space=2.0&FingerJoint_width=1.0&x=250&y=340&h=35&outside=0&outside=1&thickness=3.0&burn=0.1&format=svg&labels=0&labels=1&reference=100.0&tabs=0.0&qr_code=0&inner_corners=loop&spacing=1&debug=0&language=en&render=2
Url short: https://boxes.hackerspace-bamberg.de/BasedBox?FingerJoint_edge_width=3&x=250&y=340&h=35&spacing=1
SettingsUrl: https://boxes.hackerspace-bamberg.de/BasedBox?FingerJoint_style=rectangular&FingerJoint_surroundingspaces=2.0&FingerJoint_bottom_lip=0.0&FingerJoint_edge_width=3&FingerJoint_extra_length=0.0&FingerJoint_finger=2.0&FingerJoint_play=0.0&FingerJoint_space=2.0&FingerJoint_width=1.0&x=250&y=340&h=35&outside=0&outside=1&thickness=3.0&burn=0.1&format=svg&labels=0&labels=1&reference=100.0&tabs=0.0&qr_code=0&inner_corners=loop&spacing=1&debug=0&language=en&render=2
SettingsUrl short: https://boxes.hackerspace-bamberg.de/BasedBox?FingerJoint_edge_width=3&x=250&y=340&h=35&spacing=1
-->
  <title
     id="title1">BasedBox</title>
  <metadata
     id="metadata1">
    <rdf:RDF>
      <cc:Work>
        <dc:title>BasedBox</dc:title>
        <dc:date>2026-03-17 19:41:16</dc:date>
        <dc:source>https://boxes.hackerspace-bamberg.de/BasedBox?FingerJoint_style=rectangular&amp;FingerJoint_surroundingspaces=2.0&amp;FingerJoint_bottom_lip=0.0&amp;FingerJoint_edge_width=3&amp;FingerJoint_extra_length=0.0&amp;FingerJoint_finger=2.0&amp;FingerJoint_play=0.0&amp;FingerJoint_space=2.0&amp;FingerJoint_width=1.0&amp;x=250&amp;y=340&amp;h=35&amp;outside=0&amp;outside=1&amp;thickness=3.0&amp;burn=0.1&amp;format=svg&amp;labels=0&amp;labels=1&amp;reference=100.0&amp;tabs=0.0&amp;qr_code=0&amp;inner_corners=loop&amp;spacing=1&amp;debug=0&amp;language=en&amp;render=2</dc:source>
        <dc:source>https://boxes.hackerspace-bamberg.de/BasedBox?FingerJoint_edge_width=3&amp;x=250&amp;y=340&amp;h=35&amp;spacing=1</dc:source>
        <dc:description>Fully closed box on a base

This box is more of a building block than a finished item.
Use a vector graphics program (like Inkscape) to add holes or adjust the base
plate. The width of the &quot;brim&quot; can also be adjusted with the **edge_width**
 parameter in the **Finger Joints Settings**.

See ClosedBox for variant without a base.


Created with Boxes.py (https://boxes.hackerspace-bamberg.de/)
Command line: boxes BasedBox --FingerJoint_style=rectangular --FingerJoint_surroundingspaces=2.0 --FingerJoint_bottom_lip=0.0 --FingerJoint_edge_width=3 --FingerJoint_extra_length=0.0 --FingerJoint_finger=2.0 --FingerJoint_play=0.0 --FingerJoint_space=2.0 --FingerJoint_width=1.0 --x=250 --y=340 --h=35 --outside=0 --outside=1 --thickness=3.0 --burn=0.1 --format=svg --labels=0 --labels=1 --reference=100.0 --tabs=0.0 --qr_code=0 --inner_corners=loop --spacing=1 --debug=0
Command line short: boxes BasedBox --FingerJoint_edge_width=3 --x=250 --y=340 --h=35 --spacing=1
Url: https://boxes.hackerspace-bamberg.de/BasedBox?FingerJoint_style=rectangular&amp;FingerJoint_surroundingspaces=2.0&amp;FingerJoint_bottom_lip=0.0&amp;FingerJoint_edge_width=3&amp;FingerJoint_extra_length=0.0&amp;FingerJoint_finger=2.0&amp;FingerJoint_play=0.0&amp;FingerJoint_space=2.0&amp;FingerJoint_width=1.0&amp;x=250&amp;y=340&amp;h=35&amp;outside=0&amp;outside=1&amp;thickness=3.0&amp;burn=0.1&amp;format=svg&amp;labels=0&amp;labels=1&amp;reference=100.0&amp;tabs=0.0&amp;qr_code=0&amp;inner_corners=loop&amp;spacing=1&amp;debug=0&amp;language=en&amp;render=2
Url short: https://boxes.hackerspace-bamberg.de/BasedBox?FingerJoint_edge_width=3&amp;x=250&amp;y=340&amp;h=35&amp;spacing=1
SettingsUrl: https://boxes.hackerspace-bamberg.de/BasedBox?FingerJoint_style=rectangular&amp;FingerJoint_surroundingspaces=2.0&amp;FingerJoint_bottom_lip=0.0&amp;FingerJoint_edge_width=3&amp;FingerJoint_extra_length=0.0&amp;FingerJoint_finger=2.0&amp;FingerJoint_play=0.0&amp;FingerJoint_space=2.0&amp;FingerJoint_width=1.0&amp;x=250&amp;y=340&amp;h=35&amp;outside=0&amp;outside=1&amp;thickness=3.0&amp;burn=0.1&amp;format=svg&amp;labels=0&amp;labels=1&amp;reference=100.0&amp;tabs=0.0&amp;qr_code=0&amp;inner_corners=loop&amp;spacing=1&amp;debug=0&amp;language=en&amp;render=2
SettingsUrl short: https://boxes.hackerspace-bamberg.de/BasedBox?FingerJoint_edge_width=3&amp;x=250&amp;y=340&amp;h=35&amp;spacing=1
</dc:description>
      </cc:Work>
    </rdf:RDF>
  </metadata>
  <g
     inkscape:groupmode="layer"
     id="layer1"
     inkscape:label="Cut Marks"
     style="display:inline" />
  <g
     inkscape:groupmode="layer"
     id="layer2"
     inkscape:label="Base">
    <path
       d="m -197.1157,82.352452 v 0.809253 h -3.05408 q 0.0496,-0.458887 0.29766,-0.868164 0.24804,-0.412378 0.97978,-1.091406 0.58911,-0.548804 0.72244,-0.744141 0.17983,-0.269751 0.17983,-0.533301 0,-0.291455 -0.15813,-0.446484 -0.15503,-0.15813 -0.43098,-0.15813 -0.27285,0 -0.43408,0.164331 -0.16123,0.164331 -0.18603,0.545703 l -0.86817,-0.08682 q 0.0775,-0.719336 0.48679,-1.032495 0.40928,-0.313159 1.0232,-0.313159 0.67282,0 1.0573,0.362768 0.38447,0.362769 0.38447,0.902271 0,0.306958 -0.11162,0.58601 -0.10852,0.275953 -0.34727,0.57981 -0.15813,0.201538 -0.57051,0.579809 -0.41237,0.378272 -0.52399,0.502295 -0.10853,0.124024 -0.17674,0.241846 z m 0.75344,-0.06201 h 0.87127 v 0.623218 q 0,0.378272 -0.0651,0.595313 -0.0651,0.220141 -0.24804,0.393774 -0.17984,0.173633 -0.45889,0.272852 l -0.17053,-0.359668 q 0.26355,-0.08682 0.37517,-0.238745 0.11162,-0.151929 0.11782,-0.415479 h -0.42168 z m 1.61231,-0.297656 0.86816,-0.08992 q 0.0372,0.294556 0.22014,0.468189 0.18294,0.170532 0.42168,0.170532 0.27285,0 0.46199,-0.220142 0.18913,-0.223242 0.18913,-0.669726 0,-0.418579 -0.18913,-0.626319 -0.18604,-0.21084 -0.48679,-0.21084 -0.37517,0 -0.67283,0.331763 l -0.70693,-0.102319 0.44648,-2.365747 h 2.30374 v 0.815454 h -1.64332 l -0.13642,0.772046 q 0.29145,-0.145728 0.59531,-0.145728 0.57981,0 0.98289,0.42168 0.40307,0.42168 0.40307,1.094507 0,0.561206 -0.32556,1.001489 -0.44338,0.601514 -1.23093,0.601514 -0.62942,0 -1.02629,-0.337964 -0.39688,-0.337964 -0.47439,-0.908472 z m 3.76101,-1.761133 -0.16433,-0.84646 v -0.768945 h 0.94877 v 0.768945 l -0.14262,0.84646 z m 1.39836,0 -0.16433,-0.84646 v -0.768945 h 0.94878 v 0.768945 l -0.14263,0.84646 z"
       id="text3"
       style="font-weight:bold;font-size:6.35px;font-family:Arial;-inkscape-font-specification:'Arial, Bold';text-align:center;letter-spacing:0px;text-anchor:middle;fill:#ff0000;stroke-width:0.264583;stroke-linejoin:round"
       transform="rotate(-90)"
       aria-label="2,5&quot;" />
    <g
       id="p-0"
       style="fill:none;stroke-linecap:round;stroke-linejoin:round"
       transform="translate(36.995286,130.1207)">
      <path
         d="m 10.1,457.8 h 100 v -10 h -100 z"
         stroke="#000000"
         stroke-width="0.2"
         id="path1" />
      <text
         dominant-baseline="hanging"
         font-size="6px"
         style="font-style:normal;font-weight:normal;font-family:sans-serif;fill:#ff0000"
         text-anchor="middle"
         transform="translate(60.1,449.8)"
         id="text1">100.0mm, burn:0.10mm</text>
    </g>
    <path
       d="m -199.76671,64.11438 h -0.87126 v -3.283521 q -0.47749,0.446485 -1.12552,0.660425 v -0.790649 q 0.34107,-0.111621 0.74104,-0.42168 0.39998,-0.313159 0.54881,-0.728638 h 0.70693 z m 1.46658,-0.871265 h 0.87126 v 0.623218 q 0,0.378271 -0.0651,0.595313 -0.0651,0.220141 -0.24805,0.393774 -0.17983,0.173633 -0.45888,0.272851 l -0.17053,-0.359667 q 0.26355,-0.08682 0.37517,-0.238746 0.11162,-0.151928 0.11782,-0.415478 h -0.42168 z m 1.5999,-2.802929 v -0.809253 h 2.97966 v 0.632519 q -0.36897,0.362769 -0.75034,1.041797 -0.38137,0.679028 -0.58291,1.444873 -0.19844,0.762744 -0.19533,1.364258 h -0.84026 q 0.0217,-0.942578 0.38757,-1.922363 0.36897,-0.979786 0.98289,-1.751831 z m 3.54397,2.505273 0.86816,-0.08992 q 0.0372,0.294556 0.22015,0.468188 0.18293,0.170533 0.42168,0.170533 0.27285,0 0.46198,-0.220142 0.18914,-0.223242 0.18914,-0.669726 0,-0.41858 -0.18914,-0.626319 -0.18603,-0.21084 -0.48679,-0.21084 -0.37517,0 -0.67283,0.331763 l -0.70693,-0.102319 0.44648,-2.365747 h 2.30374 v 0.815454 h -1.64331 l -0.13643,0.772046 q 0.29146,-0.145728 0.59532,-0.145728 0.57981,0 0.98288,0.42168 0.40308,0.421679 0.40308,1.094507 0,0.561206 -0.32556,1.001489 -0.44339,0.601514 -1.23094,0.601514 -0.62941,0 -1.02629,-0.337964 -0.39687,-0.337964 -0.47439,-0.908472 z m 3.76101,-1.761133 -0.16433,-0.84646 v -0.768945 h 0.94878 v 0.768945 l -0.14263,0.84646 z m 1.39837,0 -0.16434,-0.84646 v -0.768945 h 0.94878 v 0.768945 l -0.14262,0.84646 z"
       id="text4"
       style="font-weight:bold;font-size:6.35px;font-family:Arial;-inkscape-font-specification:'Arial, Bold';text-align:center;letter-spacing:0px;text-anchor:middle;fill:#ff0000;stroke-width:0.264583;stroke-linejoin:round"
       transform="rotate(-90)"
       aria-label="1,75&quot;" />
    <path
       d="m -200.12948,107.35825 0.84336,-0.10232 q 0.0403,0.32246 0.21704,0.49299 0.17674,0.17053 0.42788,0.17053 0.26976,0 0.45269,-0.20463 0.18604,-0.20464 0.18604,-0.55191 0,-0.32866 -0.17674,-0.5209 -0.17673,-0.19223 -0.43098,-0.19223 -0.16743,0 -0.39998,0.0651 l 0.0961,-0.71003 q 0.35347,0.009 0.5395,-0.15193 0.18604,-0.16433 0.18604,-0.43409 0,-0.22944 -0.13643,-0.36586 -0.13642,-0.13643 -0.36276,-0.13643 -0.22325,0 -0.38138,0.15503 -0.15813,0.15503 -0.19223,0.45268 l -0.80305,-0.13642 q 0.0837,-0.41238 0.25114,-0.65733 0.17054,-0.24804 0.47129,-0.38757 0.30386,-0.14263 0.67903,-0.14263 0.64182,0 1.02939,0.40928 0.31937,0.33487 0.31937,0.75654 0,0.59842 -0.65423,0.95499 0.39068,0.0837 0.62322,0.37517 0.23564,0.29145 0.23564,0.70383 0,0.59841 -0.43718,1.02009 -0.43718,0.42168 -1.0883,0.42168 -0.61702,0 -1.0232,-0.35347 -0.40617,-0.35656 -0.47129,-0.93017 z m 3.72691,0.33486 h 0.87126 v 0.62322 q 0,0.37827 -0.0651,0.59531 -0.0651,0.22014 -0.24805,0.39378 -0.17983,0.17363 -0.45888,0.27285 l -0.17054,-0.35967 q 0.26355,-0.0868 0.37517,-0.23874 0.11163,-0.15193 0.11783,-0.41548 h -0.42168 z m 1.6123,-0.29765 0.86817,-0.0899 q 0.0372,0.29455 0.22014,0.46819 0.18293,0.17053 0.42168,0.17053 0.27285,0 0.46198,-0.22014 0.18914,-0.22324 0.18914,-0.66973 0,-0.41858 -0.18914,-0.62632 -0.18603,-0.21084 -0.48679,-0.21084 -0.37517,0 -0.67282,0.33177 l -0.70694,-0.10232 0.44649,-2.36575 h 2.30373 v 0.81545 h -1.64331 l -0.13642,0.77205 q 0.29145,-0.14573 0.59531,-0.14573 0.57981,0 0.98288,0.42168 0.40308,0.42168 0.40308,1.09451 0,0.5612 -0.32556,1.00149 -0.44339,0.60151 -1.23093,0.60151 -0.62942,0 -1.0263,-0.33796 -0.39687,-0.33797 -0.47439,-0.90847 z m 3.76101,-1.76114 -0.16433,-0.84646 v -0.76894 h 0.94878 v 0.76894 l -0.14263,0.84646 z m 1.39837,0 -0.16433,-0.84646 v -0.76894 h 0.94877 v 0.76894 l -0.14262,0.84646 z"
       id="text5"
       style="font-weight:bold;font-size:6.35px;font-family:Arial;-inkscape-font-specification:'Arial, Bold';text-align:center;letter-spacing:0px;text-anchor:middle;fill:#ff0000;stroke-width:0.264583;stroke-linejoin:round"
       transform="rotate(-90)"
       aria-label="3,5&quot;" />
    <path
       d="m -197.45987,146.43183 0.86817,-0.0899 q 0.0372,0.29455 0.22014,0.46818 0.18293,0.17054 0.42168,0.17054 0.27285,0 0.46199,-0.22014 0.18913,-0.22325 0.18913,-0.66973 0,-0.41858 -0.18913,-0.62632 -0.18604,-0.21084 -0.4868,-0.21084 -0.37517,0 -0.67282,0.33176 l -0.70694,-0.10232 0.44649,-2.36574 h 2.30373 v 0.81545 h -1.64331 l -0.13642,0.77205 q 0.29145,-0.14573 0.59531,-0.14573 0.57981,0 0.98289,0.42168 0.40307,0.42168 0.40307,1.09451 0,0.5612 -0.32556,1.00148 -0.44338,0.60152 -1.23093,0.60152 -0.62942,0 -1.0263,-0.33797 -0.39687,-0.33796 -0.47439,-0.90847 z m 3.76101,-1.76113 -0.16433,-0.84646 v -0.76895 h 0.94878 v 0.76895 l -0.14262,0.84646 z m 1.39837,0 -0.16433,-0.84646 v -0.76895 h 0.94878 v 0.76895 l -0.14263,0.84646 z"
       id="text6"
       style="font-weight:bold;font-size:6.35px;font-family:Arial;-inkscape-font-specification:'Arial, Bold';text-align:center;letter-spacing:0px;text-anchor:middle;fill:#ff0000;stroke-width:0.264583;stroke-linejoin:round"
       transform="rotate(-90)"
       aria-label="5&quot;" />
  </g>
  <g
     inkscape:groupmode="layer"
     id="layer3"
     inkscape:label="Cut Boards - V"
     style="display:inline">
    <rect
       style="vector-effect:non-scaling-stroke;fill:none;stroke:#000000;stroke-width:0.29313;stroke-linejoin:round;stroke-opacity:1;-inkscape-stroke:hairline"
       id="rect104"
       width="175"
       height="330"
       x="25.677786"
       y="29.487957"
       rx="7.5"
       ry="5.5018339" />
    <path
       id="path1-0"
       style="vector-effect:non-scaling-stroke;fill:none;stroke:#000000;stroke-width:0.259021;-inkscape-stroke:hairline"
       d="m 65.128269,41.98792 4.85014,10.00024 v 284.99993 l -4.85014,9.99957 4.85014,3.3e-4 h 0.29972 3.8502 l -3.8502,-9.9999 V 51.98816 l 4.85007,-9.99991 h -4.85007 -0.29972 z"
       inkscape:label="path3581"
       sodipodi:nodetypes="ccccccccccccc" />
    <path
       id="path30"
       style="vector-effect:non-scaling-stroke;fill:none;stroke:#000000;stroke-width:0.259021;-inkscape-stroke:hairline"
       d="m 84.1756,41.98792 4.85014,10.00024 v 284.99993 l -4.85014,9.99957 4.85014,3.3e-4 h 0.29972 3.8502 l -3.8502,-9.9999 V 51.98816 l 4.85007,-9.99991 h -4.85007 -0.29972 z"
       inkscape:label="path3581"
       sodipodi:nodetypes="ccccccccccccc" />
    <path
       id="path31"
       style="vector-effect:non-scaling-stroke;fill:none;stroke:#000000;stroke-width:0.259021;-inkscape-stroke:hairline"
       d="m 109.57827,41.98792 4.85014,10.00024 v 284.99993 l -4.85014,9.99957 4.85014,3.3e-4 h 0.29972 3.8502 l -3.8502,-9.9999 V 51.98816 l 4.85007,-9.99991 h -4.85007 -0.29972 z"
       inkscape:label="path3581"
       sodipodi:nodetypes="ccccccccccccc" />
    <path
       id="path32"
       style="vector-effect:non-scaling-stroke;fill:none;stroke:#000000;stroke-width:0.259021;-inkscape-stroke:hairline"
       d="m 147.67827,41.98792 4.85014,10.00024 v 284.99993 l -4.85014,9.99957 4.85014,3.3e-4 h 0.29972 3.85019 l -3.85019,-9.9999 V 51.98816 l 4.85006,-9.99991 h -4.85006 -0.29972 z"
       inkscape:label="path3581"
       sodipodi:nodetypes="ccccccccccccc" />
  </g>
  <g
     inkscape:groupmode="layer"
     id="g41"
     inkscape:label="Cut Boards - H"
     style="display:inline">
    <path
       id="rect37"
       style="vector-effect:non-scaling-stroke;fill:none;stroke:#000000;stroke-width:0.29313;stroke-linejoin:round;stroke-opacity:1;-inkscape-stroke:hairline"
       d="m 39.135854,383.98796 c -4.155,0 -7.4998,2.45397 -7.4998,5.50199 V 465.368 l 5.1e-4,5.2e-4 1.99988,0.96996 H 176.6365 l 9.9999,-4.85035 v 4.85035 0.29973 4.84983 l -9.9999,-4.84983 H 33.636444 l -1.99988,0.76998 -5.1e-4,5.1e-4 v 76.07753 c 0,3.04802 3.3448,5.50147 7.4998,5.50147 H 199.1359 c 4.155,0 7.50032,-2.45345 7.50032,-5.50147 V 389.48995 c 0,-3.04802 -3.34532,-5.50199 -7.50032,-5.50199 z" />
  </g>
  <g
     inkscape:groupmode="layer"
     id="g48"
     inkscape:label="Cut Boards - Single"
     style="display:inline">
    <g
       id="g3"
       transform="translate(-264.32177,-108.21204)">
      <rect
         style="vector-effect:non-scaling-stroke;fill:none;stroke:#000000;stroke-width:0.156684;stroke-linejoin:round;stroke-opacity:1;-inkscape-stroke:hairline"
         id="rect45"
         width="50"
         height="330"
         x="474.1662"
         y="137.7"
         rx="5"
         ry="5" />
      <path
         id="path49"
         style="vector-effect:non-scaling-stroke;fill:none;stroke:#000000;stroke-width:0.259021;-inkscape-stroke:hairline"
         inkscape:label="path3581"
         d="m 494.16648,150.20013 4.84983,9.99991 v 10.97246 h -0.6165 l 0.6165,1.99988 v 8.00002 h -0.6165 l 0.6165,2.0004 v 7.99951 h -0.6165 l 0.6165,2.0004 v 7.99951 h -0.6165 l 0.6165,2.00039 v 7.99951 h -0.6165 l 0.6165,2.0004 v 8.00003 h -0.6165 l 0.6165,1.99987 v 8.00003 h -0.6165 l 0.6165,2.0004 v 7.99951 h -0.6165 l 0.6165,2.00039 v 7.99952 h -0.6165 l 0.6165,2.00039 v 7.99951 h -0.6165 l 0.6165,2.0004 v 7.99951 h -0.6165 l 0.6165,2.00039 v 8.00003 h -0.6165 l 0.6165,2.0004 v 7.99951 h -0.6165 l 0.6165,2.00039 v 7.99951 h -0.6165 l 0.6165,2.0004 v 7.99951 h -0.6165 l 0.6165,2.0004 v 7.99951 h -0.6165 l 0.6165,2.00039 v 8.00003 h -0.6165 l 0.6165,2.0004 v 7.99951 h -0.6165 l 0.6165,2.00039 v 7.99951 h -0.6165 l 0.6165,2.0004 v 7.99951 h -0.6165 l 0.6165,2.00039 v 7.99952 h -0.6165 l 0.6165,2.00039 v 8.00003 h -0.6165 l 0.6165,2.00039 v 7.99952 h -0.6165 l 0.6165,2.00039 v 7.99951 h -0.6165 l 0.6165,2.0004 v 7.99951 h -0.6165 l 0.6165,2.00039 v 7.99951 h -0.6165 l 0.6165,2.0004 v 8.00003 h -0.6165 l 0.6165,2.00039 v 7.99951 h -0.6165 l 0.6165,2.0004 v 2.02727 l -4.84983,9.99939 4.84983,5.1e-4 h 0.29973 3.85041 l -3.85041,-9.9999 v -2.02727 l 0.61701,-2.0004 h -0.61701 v -7.99951 l 0.61701,-2.00039 h -0.61701 v -8.00003 l 0.61701,-1.99988 h -0.61701 v -8.00003 l 0.61701,-1.99987 h -0.61701 v -8.00003 l 0.61701,-1.99988 h -0.61701 v -8.00003 l 0.61701,-2.00039 h -0.61701 v -7.99952 l 0.61701,-2.00039 h -0.61701 v -8.00003 l 0.61701,-1.99988 h -0.61701 v -8.00003 l 0.61701,-1.99987 h -0.61701 v -8.00003 l 0.61701,-1.99988 h -0.61701 v -8.00003 l 0.61701,-2.00039 h -0.61701 v -7.99951 l 0.61701,-2.0004 h -0.61701 v -8.00003 l 0.61701,-1.99988 h -0.61701 v -8.00002 l 0.61701,-1.99988 h -0.61701 v -8.00003 l 0.61701,-1.99988 h -0.61701 v -8.00003 l 0.61701,-1.99988 h -0.61701 v -8.00002 l 0.61701,-2.0004 h -0.61701 v -8.00003 l 0.61701,-1.99987 h -0.61701 v -8.00003 l 0.61701,-1.99988 h -0.61701 v -8.00003 l 0.61701,-1.99988 h -0.61701 v -8.00003 l 0.61701,-1.99987 h -0.61701 v -8.00003 l 0.61701,-2.0004 h -0.61701 v -8.00003 l 0.61701,-1.99987 h -0.61701 v -8.00003 l 0.61701,-1.99988 h -0.61701 v -8.00003 l 0.61701,-1.99988 h -0.61701 v -8.00002 l 0.61701,-1.99988 h -0.61701 v -8.00003 l 0.61701,-2.0004 h -0.61701 v -8.00002 l 0.61701,-1.99988 h -0.61701 v -10.97246 l 4.85035,-9.99991 h -4.85035 -0.29973 z" />
    </g>
  </g>
</svg>
