<?xml version="1.0" encoding="UTF-8" standalone="no"?>
<svg
   height="467.80mm"
   viewBox="0.0 0.0 613.40 467.80"
   width="613.40mm"
   version="1.1"
   id="svg99"
   sodipodi:docname="20260317 - Template - Modelo A.svg"
   inkscape:version="1.4.2 (f4327f4, 2025-05-13)"
   xmlns:inkscape="http://www.inkscape.org/namespaces/inkscape"
   xmlns:sodipodi="http://sodipodi.sourceforge.net/DTD/sodipodi-0.dtd"
   xmlns="http://www.w3.org/2000/svg"
   xmlns:svg="http://www.w3.org/2000/svg"
   xmlns:rdf="http://www.w3.org/1999/02/22-rdf-syntax-ns#"
   xmlns:cc="http://creativecommons.org/ns#"
   xmlns:dc="http://purl.org/dc/elements/1.1/">
  <defs
     id="defs99" />
  <sodipodi:namedview
     id="namedview99"
     pagecolor="#ffffff"
     bordercolor="#000000"
     borderopacity="0.25"
     inkscape:showpageshadow="2"
     inkscape:pageopacity="0.0"
     inkscape:pagecheckerboard="0"
     inkscape:deskcolor="#d1d1d1"
     inkscape:document-units="mm"
     showguides="true"
     inkscape:zoom="0.080686491"
     inkscape:cx="-3117.0026"
     inkscape:cy="1543.0092"
     inkscape:window-width="1920"
     inkscape:window-height="1009"
     inkscape:window-x="1912"
     inkscape:window-y="-8"
     inkscape:window-maximized="1"
     inkscape:current-layer="g48"
     showgrid="true">
    <sodipodi:guide
       position="271.86889,20.868401"
       orientation="-1,0"
       id="guide100"
       inkscape:locked="false"
       inkscape:label=""
       inkscape:color="rgb(0,134,229)" />
    <sodipodi:guide
       position="275.19999,111.59999"
       orientation="0,1"
       id="guide101"
       inkscape:locked="false"
       inkscape:label=""
       inkscape:color="rgb(0,134,229)" />
    <inkscape:grid
       id="grid1"
       units="mm"
       originx="0"
       originy="0"
       spacingx="0.99999996"
       spacingy="1"
       empcolor="#0099e5"
       empopacity="0.30196078"
       color="#0099e5"
       opacity="0.14901961"
       empspacing="5"
       enabled="true"
       visible="true" />
  </sodipodi:namedview>
  <!--
BasedBox - Fully closed box on a base


This box is more of a building block than a finished item.
Use a vector graphics program (like Inkscape) to add holes or adjust the base
plate. The width of the "brim" can also be adjusted with the **edge_width**
 parameter in the **Finger Joints Settings**.

See ClosedBox for variant without a base.



Created with Boxes.py (https://boxes.hackerspace-bamberg.de/)
Creation date: 2026-03-17 19:41:16
Command line (remove spaces between dashes): boxes BasedBox - -FingerJoint_edge_width=3 - -x=250 - -y=340 - -h=35 - -spacing=1
Url: https://boxes.hackerspace-bamberg.de/BasedBox?FingerJoint_style=rectangular&FingerJoint_surroundingspaces=2.0&FingerJoint_bottom_lip=0.0&FingerJoint_edge_width=3&FingerJoint_extra_length=0.0&FingerJoint_finger=2.0&FingerJoint_play=0.0&FingerJoint_space=2.0&FingerJoint_width=1.0&x=250&y=340&h=35&outside=0&outside=1&thickness=3.0&burn=0.1&format=svg&labels=0&labels=1&reference=100.0&tabs=0.0&qr_code=0&inner_corners=loop&spacing=1&debug=0&language=en&render=2
Url short: https://boxes.hackerspace-bamberg.de/BasedBox?FingerJoint_edge_width=3&x=250&y=340&h=35&spacing=1
SettingsUrl: https://boxes.hackerspace-bamberg.de/BasedBox?FingerJoint_style=rectangular&FingerJoint_surroundingspaces=2.0&FingerJoint_bottom_lip=0.0&FingerJoint_edge_width=3&FingerJoint_extra_length=0.0&FingerJoint_finger=2.0&FingerJoint_play=0.0&FingerJoint_space=2.0&FingerJoint_width=1.0&x=250&y=340&h=35&outside=0&outside=1&thickness=3.0&burn=0.1&format=svg&labels=0&labels=1&reference=100.0&tabs=0.0&qr_code=0&inner_corners=loop&spacing=1&debug=0&language=en&render=2
SettingsUrl short: https://boxes.hackerspace-bamberg.de/BasedBox?FingerJoint_edge_width=3&x=250&y=340&h=35&spacing=1
-->
  <title
     id="title1">BasedBox</title>
  <metadata
     id="metadata1">
    <rdf:RDF>
      <cc:Work>
        <dc:title>BasedBox</dc:title>
        <dc:date>2026-03-17 19:41:16</dc:date>
        <dc:source>https://boxes.hackerspace-bamberg.de/BasedBox?FingerJoint_style=rectangular&amp;FingerJoint_surroundingspaces=2.0&amp;FingerJoint_bottom_lip=0.0&amp;FingerJoint_edge_width=3&amp;FingerJoint_extra_length=0.0&amp;FingerJoint_finger=2.0&amp;FingerJoint_play=0.0&amp;FingerJoint_space=2.0&amp;FingerJoint_width=1.0&amp;x=250&amp;y=340&amp;h=35&amp;outside=0&amp;outside=1&amp;thickness=3.0&amp;burn=0.1&amp;format=svg&amp;labels=0&amp;labels=1&amp;reference=100.0&amp;tabs=0.0&amp;qr_code=0&amp;inner_corners=loop&amp;spacing=1&amp;debug=0&amp;language=en&amp;render=2</dc:source>
        <dc:source>https://boxes.hackerspace-bamberg.de/BasedBox?FingerJoint_edge_width=3&amp;x=250&amp;y=340&amp;h=35&amp;spacing=1</dc:source>
        <dc:description>Fully closed box on a base

This box is more of a building block than a finished item.
Use a vector graphics program (like Inkscape) to add holes or adjust the base
plate. The width of the &quot;brim&quot; can also be adjusted with the **edge_width**
 parameter in the **Finger Joints Settings**.

See ClosedBox for variant without a base.


Created with Boxes.py (https://boxes.hackerspace-bamberg.de/)
Command line: boxes BasedBox --FingerJoint_style=rectangular --FingerJoint_surroundingspaces=2.0 --FingerJoint_bottom_lip=0.0 --FingerJoint_edge_width=3 --FingerJoint_extra_length=0.0 --FingerJoint_finger=2.0 --FingerJoint_play=0.0 --FingerJoint_space=2.0 --FingerJoint_width=1.0 --x=250 --y=340 --h=35 --outside=0 --outside=1 --thickness=3.0 --burn=0.1 --format=svg --labels=0 --labels=1 --reference=100.0 --tabs=0.0 --qr_code=0 --inner_corners=loop --spacing=1 --debug=0
Command line short: boxes BasedBox --FingerJoint_edge_width=3 --x=250 --y=340 --h=35 --spacing=1
Url: https://boxes.hackerspace-bamberg.de/BasedBox?FingerJoint_style=rectangular&amp;FingerJoint_surroundingspaces=2.0&amp;FingerJoint_bottom_lip=0.0&amp;FingerJoint_edge_width=3&amp;FingerJoint_extra_length=0.0&amp;FingerJoint_finger=2.0&amp;FingerJoint_play=0.0&amp;FingerJoint_space=2.0&amp;FingerJoint_width=1.0&amp;x=250&amp;y=340&amp;h=35&amp;outside=0&amp;outside=1&amp;thickness=3.0&amp;burn=0.1&amp;format=svg&amp;labels=0&amp;labels=1&amp;reference=100.0&amp;tabs=0.0&amp;qr_code=0&amp;inner_corners=loop&amp;spacing=1&amp;debug=0&amp;language=en&amp;render=2
Url short: https://boxes.hackerspace-bamberg.de/BasedBox?FingerJoint_edge_width=3&amp;x=250&amp;y=340&amp;h=35&amp;spacing=1
SettingsUrl: https://boxes.hackerspace-bamberg.de/BasedBox?FingerJoint_style=rectangular&amp;FingerJoint_surroundingspaces=2.0&amp;FingerJoint_bottom_lip=0.0&amp;FingerJoint_edge_width=3&amp;FingerJoint_extra_length=0.0&amp;FingerJoint_finger=2.0&amp;FingerJoint_play=0.0&amp;FingerJoint_space=2.0&amp;FingerJoint_width=1.0&amp;x=250&amp;y=340&amp;h=35&amp;outside=0&amp;outside=1&amp;thickness=3.0&amp;burn=0.1&amp;format=svg&amp;labels=0&amp;labels=1&amp;reference=100.0&amp;tabs=0.0&amp;qr_code=0&amp;inner_corners=loop&amp;spacing=1&amp;debug=0&amp;language=en&amp;render=2
SettingsUrl short: https://boxes.hackerspace-bamberg.de/BasedBox?FingerJoint_edge_width=3&amp;x=250&amp;y=340&amp;h=35&amp;spacing=1
</dc:description>
      </cc:Work>
    </rdf:RDF>
  </metadata>
  <g
     inkscape:groupmode="layer"
     id="layer1"
     inkscape:label="Cut Marks"
     style="display:inline" />
  <g
     inkscape:groupmode="layer"
     id="layer2"
     inkscape:label="Base">
    <g
       id="p-0"
       style="fill:none;stroke-linecap:round;stroke-linejoin:round"
       transform="translate(36.995286,130.1207)">
      <path
         d="m 10.1,457.8 h 100 v -10 h -100 z"
         stroke="#000000"
         stroke-width="0.2"
         id="path1" />
      <text
         dominant-baseline="hanging"
         font-size="6px"
         style="font-style:normal;font-weight:normal;font-family:sans-serif;fill:#ff0000"
         text-anchor="middle"
         transform="translate(60.1,449.8)"
         id="text1">100.0mm, burn:0.10mm</text>
    </g>
  </g>
  <g
     inkscape:groupmode="layer"
     id="layer3"
     inkscape:label="Cut Boards - V"
     style="display:inline">
    <rect
       style="vector-effect:non-scaling-stroke;fill:none;stroke:#000000;stroke-width:0.29313;stroke-linejoin:round;stroke-opacity:1;-inkscape-stroke:hairline"
       id="rect104"
       width="175"
       height="330"
       x="25.677786"
       y="29.487957"
       rx="7.5"
       ry="5.5018339" />
    <path
       id="path1-0"
       style="vector-effect:non-scaling-stroke;fill:none;stroke:#000000;stroke-width:0.259021;-inkscape-stroke:hairline"
       d="m 65.128269,41.98792 4.85014,10.00024 v 284.99993 l -4.85014,9.99957 4.85014,3.3e-4 h 0.29972 3.8502 l -3.8502,-9.9999 V 51.98816 l 4.85007,-9.99991 h -4.85007 -0.29972 z"
       inkscape:label="path3581"
       sodipodi:nodetypes="ccccccccccccc" />
    <path
       id="path30"
       style="vector-effect:non-scaling-stroke;fill:none;stroke:#000000;stroke-width:0.259021;-inkscape-stroke:hairline"
       d="m 84.1756,41.98792 4.85014,10.00024 v 284.99993 l -4.85014,9.99957 4.85014,3.3e-4 h 0.29972 3.8502 l -3.8502,-9.9999 V 51.98816 l 4.85007,-9.99991 h -4.85007 -0.29972 z"
       inkscape:label="path3581"
       sodipodi:nodetypes="ccccccccccccc" />
    <path
       id="path31"
       style="vector-effect:non-scaling-stroke;fill:none;stroke:#000000;stroke-width:0.259021;-inkscape-stroke:hairline"
       d="m 109.57827,41.98792 4.85014,10.00024 v 284.99993 l -4.85014,9.99957 4.85014,3.3e-4 h 0.29972 3.8502 l -3.8502,-9.9999 V 51.98816 l 4.85007,-9.99991 h -4.85007 -0.29972 z"
       inkscape:label="path3581"
       sodipodi:nodetypes="ccccccccccccc" />
    <path
       id="path32"
       style="vector-effect:non-scaling-stroke;fill:none;stroke:#000000;stroke-width:0.259021;-inkscape-stroke:hairline"
       d="m 147.67827,41.98792 4.85014,10.00024 v 284.99993 l -4.85014,9.99957 4.85014,3.3e-4 h 0.29972 3.85019 l -3.85019,-9.9999 V 51.98816 l 4.85006,-9.99991 h -4.85006 -0.29972 z"
       inkscape:label="path3581"
       sodipodi:nodetypes="ccccccccccccc" />
  </g>
  <g
     inkscape:groupmode="layer"
     id="g41"
     inkscape:label="Cut Boards - H"
     style="display:inline">
    <path
       id="rect37"
       style="vector-effect:non-scaling-stroke;fill:none;stroke:#000000;stroke-width:0.29313;stroke-linejoin:round;stroke-opacity:1;-inkscape-stroke:hairline"
       d="m 39.135854,383.98796 c -4.155,0 -7.4998,2.45397 -7.4998,5.50199 V 465.368 l 5.1e-4,5.2e-4 1.99988,0.96996 H 176.6365 l 9.9999,-4.85035 v 4.85035 0.29973 4.84983 l -9.9999,-4.84983 H 33.636444 l -1.99988,0.76998 -5.1e-4,5.1e-4 v 76.07753 c 0,3.04802 3.3448,5.50147 7.4998,5.50147 H 199.1359 c 4.155,0 7.50032,-2.45345 7.50032,-5.50147 V 389.48995 c 0,-3.04802 -3.34532,-5.50199 -7.50032,-5.50199 z" />
  </g>
  <g
     inkscape:groupmode="layer"
     id="g48"
     inkscape:label="Cut Boards - Single"
     style="display:inline">
    <g
       id="g3"
       transform="translate(-264.32177,-108.21204)">
      <rect
         style="vector-effect:non-scaling-stroke;fill:none;stroke:#000000;stroke-width:0.156684;stroke-linejoin:round;stroke-opacity:1;-inkscape-stroke:hairline"
         id="rect45"
         width="50"
         height="330"
         x="474.1662"
         y="137.7"
         rx="5"
         ry="5" />
      <path
         id="path49"
         style="vector-effect:non-scaling-stroke;fill:none;stroke:#000000;stroke-width:0.259021;-inkscape-stroke:hairline"
         inkscape:label="path3581"
         d="m 494.16648,150.20013 4.84983,9.99991 v 10.97246 h -0.6165 l 0.6165,1.99988 v 8.00002 h -0.6165 l 0.6165,2.0004 v 7.99951 h -0.6165 l 0.6165,2.0004 v 7.99951 h -0.6165 l 0.6165,2.00039 v 7.99951 h -0.6165 l 0.6165,2.0004 v 8.00003 h -0.6165 l 0.6165,1.99987 v 8.00003 h -0.6165 l 0.6165,2.0004 v 7.99951 h -0.6165 l 0.6165,2.00039 v 7.99952 h -0.6165 l 0.6165,2.00039 v 7.99951 h -0.6165 l 0.6165,2.0004 v 7.99951 h -0.6165 l 0.6165,2.00039 v 8.00003 h -0.6165 l 0.6165,2.0004 v 7.99951 h -0.6165 l 0.6165,2.00039 v 7.99951 h -0.6165 l 0.6165,2.0004 v 7.99951 h -0.6165 l 0.6165,2.0004 v 7.99951 h -0.6165 l 0.6165,2.00039 v 8.00003 h -0.6165 l 0.6165,2.0004 v 7.99951 h -0.6165 l 0.6165,2.00039 v 7.99951 h -0.6165 l 0.6165,2.0004 v 7.99951 h -0.6165 l 0.6165,2.00039 v 7.99952 h -0.6165 l 0.6165,2.00039 v 8.00003 h -0.6165 l 0.6165,2.00039 v 7.99952 h -0.6165 l 0.6165,2.00039 v 7.99951 h -0.6165 l 0.6165,2.0004 v 7.99951 h -0.6165 l 0.6165,2.00039 v 7.99951 h -0.6165 l 0.6165,2.0004 v 8.00003 h -0.6165 l 0.6165,2.00039 v 7.99951 h -0.6165 l 0.6165,2.0004 v 2.02727 l -4.84983,9.99939 4.84983,5.1e-4 h 0.29973 3.85041 l -3.85041,-9.9999 v -2.02727 l 0.61701,-2.0004 h -0.61701 v -7.99951 l 0.61701,-2.00039 h -0.61701 v -8.00003 l 0.61701,-1.99988 h -0.61701 v -8.00003 l 0.61701,-1.99987 h -0.61701 v -8.00003 l 0.61701,-1.99988 h -0.61701 v -8.00003 l 0.61701,-2.00039 h -0.61701 v -7.99952 l 0.61701,-2.00039 h -0.61701 v -8.00003 l 0.61701,-1.99988 h -0.61701 v -8.00003 l 0.61701,-1.99987 h -0.61701 v -8.00003 l 0.61701,-1.99988 h -0.61701 v -8.00003 l 0.61701,-2.00039 h -0.61701 v -7.99951 l 0.61701,-2.0004 h -0.61701 v -8.00003 l 0.61701,-1.99988 h -0.61701 v -8.00002 l 0.61701,-1.99988 h -0.61701 v -8.00003 l 0.61701,-1.99988 h -0.61701 v -8.00003 l 0.61701,-1.99988 h -0.61701 v -8.00002 l 0.61701,-2.0004 h -0.61701 v -8.00003 l 0.61701,-1.99987 h -0.61701 v -8.00003 l 0.61701,-1.99988 h -0.61701 v -8.00003 l 0.61701,-1.99988 h -0.61701 v -8.00003 l 0.61701,-1.99987 h -0.61701 v -8.00003 l 0.61701,-2.0004 h -0.61701 v -8.00003 l 0.61701,-1.99987 h -0.61701 v -8.00003 l 0.61701,-1.99988 h -0.61701 v -8.00003 l 0.61701,-1.99988 h -0.61701 v -8.00002 l 0.61701,-1.99988 h -0.61701 v -8.00003 l 0.61701,-2.0004 h -0.61701 v -8.00002 l 0.61701,-1.99988 h -0.61701 v -10.97246 l 4.85035,-9.99991 h -4.85035 -0.29973 z" />
    </g>
    <text
       xml:space="preserve"
       style="font-weight:bold;font-size:6.35px;font-family:Arial;-inkscape-font-specification:'Arial, Bold';text-align:center;letter-spacing:0px;writing-mode:lr-tb;direction:ltr;text-anchor:middle;vector-effect:non-scaling-stroke;fill:#ff0000;stroke-width:0.264583;stroke-linejoin:round;-inkscape-stroke:hairline"
       x="-194.40889"
       y="83.16172"
       id="text3"
       transform="rotate(-90)"><tspan
         sodipodi:role="line"
         id="tspan3"
         style="stroke-width:0.264583"
         x="-194.40889"
         y="83.16172">2,5&quot;</tspan></text>
    <text
       xml:space="preserve"
       style="font-weight:bold;font-size:6.35px;font-family:Arial;-inkscape-font-specification:'Arial, Bold';text-align:center;letter-spacing:0px;writing-mode:lr-tb;direction:ltr;text-anchor:middle;vector-effect:non-scaling-stroke;fill:#ff0000;stroke-width:0.264583;stroke-linejoin:round;-inkscape-stroke:hairline"
       x="-194.58098"
       y="64.114388"
       id="text4"
       transform="rotate(-90)"><tspan
         sodipodi:role="line"
         id="tspan4"
         style="stroke-width:0.264583"
         x="-194.58098"
         y="64.114388">1,75&quot;</tspan></text>
    <text
       xml:space="preserve"
       style="font-weight:bold;font-size:6.35px;font-family:Arial;-inkscape-font-specification:'Arial, Bold';text-align:center;letter-spacing:0px;writing-mode:lr-tb;direction:ltr;text-anchor:middle;vector-effect:non-scaling-stroke;fill:#ff0000;stroke-width:0.264583;stroke-linejoin:round;-inkscape-stroke:hairline"
       x="-194.4492"
       y="108.56437"
       id="text5"
       transform="rotate(-90)"><tspan
         sodipodi:role="line"
         id="tspan5"
         style="stroke-width:0.264583"
         x="-194.4492"
         y="108.56437">3,5&quot;</tspan></text>
    <text
       xml:space="preserve"
       style="font-weight:bold;font-size:6.35px;font-family:Arial;-inkscape-font-specification:'Arial, Bold';text-align:center;letter-spacing:0px;writing-mode:lr-tb;direction:ltr;text-anchor:middle;vector-effect:non-scaling-stroke;fill:#ff0000;stroke-width:0.264583;stroke-linejoin:round;-inkscape-stroke:hairline"
       x="-194.4709"
       y="147.60075"
       id="text6"
       transform="rotate(-90)"><tspan
         sodipodi:role="line"
         style="stroke-width:0.264583"
         x="-194.4709"
         y="147.60075"
         id="tspan7">5&quot;</tspan></text>
  </g>
</svg>
