<?xml version="1.0" encoding="UTF-8" standalone="no"?>
<svg
   width="47.553mm"
   height="44.520mm"
   viewBox="-1044.945801 -370.106812 47.552795 44.519897"
   version="1.1"
   id="svg48"
   sodipodi:docname="Plat.svg"
   inkscape:version="1.4.2 (f4327f4, 2025-05-13)"
   xmlns:inkscape="http://www.inkscape.org/namespaces/inkscape"
   xmlns:sodipodi="http://sodipodi.sourceforge.net/DTD/sodipodi-0.dtd"
   xmlns="http://www.w3.org/2000/svg"
   xmlns:svg="http://www.w3.org/2000/svg">
  <defs
     id="defs48">
    <clipPath
       clipPathUnits="userSpaceOnUse"
       id="clipPath48">
      <path
         style="fill:#000000;fill-opacity:0;stroke:#000000;stroke-width:0.05mm"
         d="m 1129.0817,310.20296 -8.8624,27.27575 23.2021,16.85734 23.2022,-16.85735 -8.8625,-27.27573 z"
         id="path49" />
    </clipPath>
    <clipPath
       clipPathUnits="userSpaceOnUse"
       id="clipPath49">
      <path
         style="fill:#000000;fill-opacity:0;stroke:#000000;stroke-width:0.05mm"
         d="m 1129.0817,310.20296 -8.8624,27.27575 23.2021,16.85734 23.2022,-16.85735 -8.8625,-27.27573 z"
         id="path50" />
    </clipPath>
    <clipPath
       clipPathUnits="userSpaceOnUse"
       id="clipPath50">
      <path
         style="fill:#000000;fill-opacity:0;stroke:#000000;stroke-width:0.05mm"
         d="m 1129.0817,310.20296 -8.8624,27.27575 23.2021,16.85734 23.2022,-16.85735 -8.8625,-27.27573 z"
         id="path51" />
    </clipPath>
    <clipPath
       clipPathUnits="userSpaceOnUse"
       id="clipPath51">
      <path
         style="fill:#000000;fill-opacity:0;stroke:#000000;stroke-width:0.05mm"
         d="m 1129.0817,310.20296 -8.8624,27.27575 23.2021,16.85734 23.2022,-16.85735 -8.8625,-27.27573 z"
         id="path52" />
    </clipPath>
    <clipPath
       clipPathUnits="userSpaceOnUse"
       id="clipPath52">
      <path
         style="fill:#000000;fill-opacity:0;stroke:#000000;stroke-width:0.05mm"
         d="m 1129.0817,310.20296 -8.8624,27.27575 23.2021,16.85734 23.2022,-16.85735 -8.8625,-27.27573 z"
         id="path53" />
    </clipPath>
    <clipPath
       clipPathUnits="userSpaceOnUse"
       id="clipPath53">
      <path
         style="fill:#000000;fill-opacity:0;stroke:#000000;stroke-width:0.05mm"
         d="m 1129.0817,310.20296 -8.8624,27.27575 23.2021,16.85734 23.2022,-16.85735 -8.8625,-27.27573 z"
         id="path54" />
    </clipPath>
    <clipPath
       clipPathUnits="userSpaceOnUse"
       id="clipPath54">
      <path
         style="fill:#000000;fill-opacity:0;stroke:#000000;stroke-width:0.05mm"
         d="m 1129.0817,310.20296 -8.8624,27.27575 23.2021,16.85734 23.2022,-16.85735 -8.8625,-27.27573 z"
         id="path55" />
    </clipPath>
    <clipPath
       clipPathUnits="userSpaceOnUse"
       id="clipPath55">
      <path
         style="fill:#000000;fill-opacity:0;stroke:#000000;stroke-width:0.05mm"
         d="m 1129.0817,310.20296 -8.8624,27.27575 23.2021,16.85734 23.2022,-16.85735 -8.8625,-27.27573 z"
         id="path56" />
    </clipPath>
    <clipPath
       clipPathUnits="userSpaceOnUse"
       id="clipPath56">
      <path
         style="fill:#000000;fill-opacity:0;stroke:#000000;stroke-width:0.05mm"
         d="m 1129.0817,310.20296 -8.8624,27.27575 23.2021,16.85734 23.2022,-16.85735 -8.8625,-27.27573 z"
         id="path57" />
    </clipPath>
    <clipPath
       clipPathUnits="userSpaceOnUse"
       id="clipPath57">
      <path
         style="fill:#000000;fill-opacity:0;stroke:#000000;stroke-width:0.05mm"
         d="m 1129.0817,310.20296 -8.8624,27.27575 23.2021,16.85734 23.2022,-16.85735 -8.8625,-27.27573 z"
         id="path58" />
    </clipPath>
    <clipPath
       clipPathUnits="userSpaceOnUse"
       id="clipPath58">
      <path
         style="fill:#000000;fill-opacity:0;stroke:#000000;stroke-width:0.05mm"
         d="m 1129.0817,310.20296 -8.8624,27.27575 23.2021,16.85734 23.2022,-16.85735 -8.8625,-27.27573 z"
         id="path59" />
    </clipPath>
    <clipPath
       clipPathUnits="userSpaceOnUse"
       id="clipPath59">
      <path
         style="fill:#000000;fill-opacity:0;stroke:#000000;stroke-width:0.05mm"
         d="m 1129.0817,310.20296 -8.8624,27.27575 23.2021,16.85734 23.2022,-16.85735 -8.8625,-27.27573 z"
         id="path60" />
    </clipPath>
    <clipPath
       clipPathUnits="userSpaceOnUse"
       id="clipPath60">
      <path
         style="fill:#000000;fill-opacity:0;stroke:#000000;stroke-width:0.05mm"
         d="m 1129.0817,310.20296 -8.8624,27.27575 23.2021,16.85734 23.2022,-16.85735 -8.8625,-27.27573 z"
         id="path61" />
    </clipPath>
    <clipPath
       clipPathUnits="userSpaceOnUse"
       id="clipPath61">
      <path
         style="fill:#000000;fill-opacity:0;stroke:#000000;stroke-width:0.05mm"
         d="m 1129.0817,310.20296 -8.8624,27.27575 23.2021,16.85734 23.2022,-16.85735 -8.8625,-27.27573 z"
         id="path62" />
    </clipPath>
    <clipPath
       clipPathUnits="userSpaceOnUse"
       id="clipPath62">
      <path
         style="fill:#000000;fill-opacity:0;stroke:#000000;stroke-width:0.05mm"
         d="m 1129.0817,310.20296 -8.8624,27.27575 23.2021,16.85734 23.2022,-16.85735 -8.8625,-27.27573 z"
         id="path63" />
    </clipPath>
    <clipPath
       clipPathUnits="userSpaceOnUse"
       id="clipPath63">
      <path
         style="fill:#000000;fill-opacity:0;stroke:#000000;stroke-width:0.05mm"
         d="m 1129.0817,310.20296 -8.8624,27.27575 23.2021,16.85734 23.2022,-16.85735 -8.8625,-27.27573 z"
         id="path64" />
    </clipPath>
    <clipPath
       clipPathUnits="userSpaceOnUse"
       id="clipPath64">
      <path
         style="fill:#000000;fill-opacity:0;stroke:#000000;stroke-width:0.05mm"
         d="m 1129.0817,310.20296 -8.8624,27.27575 23.2021,16.85734 23.2022,-16.85735 -8.8625,-27.27573 z"
         id="path65" />
    </clipPath>
    <clipPath
       clipPathUnits="userSpaceOnUse"
       id="clipPath65">
      <path
         style="fill:#000000;fill-opacity:0;stroke:#000000;stroke-width:0.05mm"
         d="m 1129.0817,310.20296 -8.8624,27.27575 23.2021,16.85734 23.2022,-16.85735 -8.8625,-27.27573 z"
         id="path66" />
    </clipPath>
    <clipPath
       clipPathUnits="userSpaceOnUse"
       id="clipPath66">
      <path
         style="fill:#000000;fill-opacity:0;stroke:#000000;stroke-width:0.05mm"
         d="m 1129.0817,310.20296 -8.8624,27.27575 23.2021,16.85734 23.2022,-16.85735 -8.8625,-27.27573 z"
         id="path67" />
    </clipPath>
    <clipPath
       clipPathUnits="userSpaceOnUse"
       id="clipPath67">
      <path
         style="fill:#000000;fill-opacity:0;stroke:#000000;stroke-width:0.05mm"
         d="m 1129.0817,310.20296 -8.8624,27.27575 23.2021,16.85734 23.2022,-16.85735 -8.8625,-27.27573 z"
         id="path68" />
    </clipPath>
    <clipPath
       clipPathUnits="userSpaceOnUse"
       id="clipPath68">
      <path
         style="fill:#000000;fill-opacity:0;stroke:#000000;stroke-width:0.05mm"
         d="m 1129.0817,310.20296 -8.8624,27.27575 23.2021,16.85734 23.2022,-16.85735 -8.8625,-27.27573 z"
         id="path69" />
    </clipPath>
    <clipPath
       clipPathUnits="userSpaceOnUse"
       id="clipPath69">
      <path
         style="fill:#000000;fill-opacity:0;stroke:#000000;stroke-width:0.05mm"
         d="m 1129.0817,310.20296 -8.8624,27.27575 23.2021,16.85734 23.2022,-16.85735 -8.8625,-27.27573 z"
         id="path70" />
    </clipPath>
    <clipPath
       clipPathUnits="userSpaceOnUse"
       id="clipPath70">
      <path
         style="fill:#000000;fill-opacity:0;stroke:#000000;stroke-width:0.05mm"
         d="m 1129.0817,310.20296 -8.8624,27.27575 23.2021,16.85734 23.2022,-16.85735 -8.8625,-27.27573 z"
         id="path71" />
    </clipPath>
    <clipPath
       clipPathUnits="userSpaceOnUse"
       id="clipPath71">
      <path
         style="fill:#000000;fill-opacity:0;stroke:#000000;stroke-width:0.05mm"
         d="m 1129.0817,310.20296 -8.8624,27.27575 23.2021,16.85734 23.2022,-16.85735 -8.8625,-27.27573 z"
         id="path72" />
    </clipPath>
    <clipPath
       clipPathUnits="userSpaceOnUse"
       id="clipPath72">
      <path
         style="fill:#000000;fill-opacity:0;stroke:#000000;stroke-width:0.05mm"
         d="m 1129.0817,310.20296 -8.8624,27.27575 23.2021,16.85734 23.2022,-16.85735 -8.8625,-27.27573 z"
         id="path73" />
    </clipPath>
    <clipPath
       clipPathUnits="userSpaceOnUse"
       id="clipPath73">
      <path
         style="fill:#000000;fill-opacity:0;stroke:#000000;stroke-width:0.05mm"
         d="m 1129.0817,310.20296 -8.8624,27.27575 23.2021,16.85734 23.2022,-16.85735 -8.8625,-27.27573 z"
         id="path74" />
    </clipPath>
    <clipPath
       clipPathUnits="userSpaceOnUse"
       id="clipPath74">
      <path
         style="fill:#000000;fill-opacity:0;stroke:#000000;stroke-width:0.05mm"
         d="m 1129.0817,310.20296 -8.8624,27.27575 23.2021,16.85734 23.2022,-16.85735 -8.8625,-27.27573 z"
         id="path75" />
    </clipPath>
    <clipPath
       clipPathUnits="userSpaceOnUse"
       id="clipPath75">
      <path
         style="fill:#000000;fill-opacity:0;stroke:#000000;stroke-width:0.05mm"
         d="m 1129.0817,310.20296 -8.8624,27.27575 23.2021,16.85734 23.2022,-16.85735 -8.8625,-27.27573 z"
         id="path76" />
    </clipPath>
    <clipPath
       clipPathUnits="userSpaceOnUse"
       id="clipPath76">
      <path
         style="fill:#000000;fill-opacity:0;stroke:#000000;stroke-width:0.05mm"
         d="m 1129.0817,310.20296 -8.8624,27.27575 23.2021,16.85734 23.2022,-16.85735 -8.8625,-27.27573 z"
         id="path77" />
    </clipPath>
    <clipPath
       clipPathUnits="userSpaceOnUse"
       id="clipPath77">
      <path
         style="fill:#000000;fill-opacity:0;stroke:#000000;stroke-width:0.05mm"
         d="m 1129.0817,310.20296 -8.8624,27.27575 23.2021,16.85734 23.2022,-16.85735 -8.8625,-27.27573 z"
         id="path78" />
    </clipPath>
    <clipPath
       clipPathUnits="userSpaceOnUse"
       id="clipPath78">
      <path
         style="fill:#000000;fill-opacity:0;stroke:#000000;stroke-width:0.05mm"
         d="m 1129.0817,310.20296 -8.8624,27.27575 23.2021,16.85734 23.2022,-16.85735 -8.8625,-27.27573 z"
         id="path79" />
    </clipPath>
    <clipPath
       clipPathUnits="userSpaceOnUse"
       id="clipPath79">
      <path
         style="fill:#000000;fill-opacity:0;stroke:#000000;stroke-width:0.05mm"
         d="m 1129.0817,310.20296 -8.8624,27.27575 23.2021,16.85734 23.2022,-16.85735 -8.8625,-27.27573 z"
         id="path80" />
    </clipPath>
    <clipPath
       clipPathUnits="userSpaceOnUse"
       id="clipPath80">
      <path
         style="fill:#000000;fill-opacity:0;stroke:#000000;stroke-width:0.05mm"
         d="m 1129.0817,310.20296 -8.8624,27.27575 23.2021,16.85734 23.2022,-16.85735 -8.8625,-27.27573 z"
         id="path81" />
    </clipPath>
    <clipPath
       clipPathUnits="userSpaceOnUse"
       id="clipPath81">
      <path
         style="fill:#000000;fill-opacity:0;stroke:#000000;stroke-width:0.05mm"
         d="m 1129.0817,310.20296 -8.8624,27.27575 23.2021,16.85734 23.2022,-16.85735 -8.8625,-27.27573 z"
         id="path82" />
    </clipPath>
    <clipPath
       clipPathUnits="userSpaceOnUse"
       id="clipPath82">
      <path
         style="fill:#000000;fill-opacity:0;stroke:#000000;stroke-width:0.05mm"
         d="m 1129.0817,310.20296 -8.8624,27.27575 23.2021,16.85734 23.2022,-16.85735 -8.8625,-27.27573 z"
         id="path83" />
    </clipPath>
    <clipPath
       clipPathUnits="userSpaceOnUse"
       id="clipPath83">
      <path
         style="fill:#000000;fill-opacity:0;stroke:#000000;stroke-width:0.05mm"
         d="m 1129.0817,310.20296 -8.8624,27.27575 23.2021,16.85734 23.2022,-16.85735 -8.8625,-27.27573 z"
         id="path84" />
    </clipPath>
    <clipPath
       clipPathUnits="userSpaceOnUse"
       id="clipPath84">
      <path
         style="fill:#000000;fill-opacity:0;stroke:#000000;stroke-width:0.05mm"
         d="m 1129.0817,310.20296 -8.8624,27.27575 23.2021,16.85734 23.2022,-16.85735 -8.8625,-27.27573 z"
         id="path85" />
    </clipPath>
    <clipPath
       clipPathUnits="userSpaceOnUse"
       id="clipPath85">
      <path
         style="fill:#000000;fill-opacity:0;stroke:#000000;stroke-width:0.05mm"
         d="m 1129.0817,310.20296 -8.8624,27.27575 23.2021,16.85734 23.2022,-16.85735 -8.8625,-27.27573 z"
         id="path86" />
    </clipPath>
    <clipPath
       clipPathUnits="userSpaceOnUse"
       id="clipPath86">
      <path
         style="fill:#000000;fill-opacity:0;stroke:#000000;stroke-width:0.05mm"
         d="m 1129.0817,310.20296 -8.8624,27.27575 23.2021,16.85734 23.2022,-16.85735 -8.8625,-27.27573 z"
         id="path87" />
    </clipPath>
    <clipPath
       clipPathUnits="userSpaceOnUse"
       id="clipPath87">
      <path
         style="fill:#000000;fill-opacity:0;stroke:#000000;stroke-width:0.05mm"
         d="m 1129.0817,310.20296 -8.8624,27.27575 23.2021,16.85734 23.2022,-16.85735 -8.8625,-27.27573 z"
         id="path88" />
    </clipPath>
    <clipPath
       clipPathUnits="userSpaceOnUse"
       id="clipPath88">
      <path
         style="fill:#000000;fill-opacity:0;stroke:#000000;stroke-width:0.05mm"
         d="m 1129.0817,310.20296 -8.8624,27.27575 23.2021,16.85734 23.2022,-16.85735 -8.8625,-27.27573 z"
         id="path89" />
    </clipPath>
    <clipPath
       clipPathUnits="userSpaceOnUse"
       id="clipPath89">
      <path
         style="fill:#000000;fill-opacity:0;stroke:#000000;stroke-width:0.05mm"
         d="m 1129.0817,310.20296 -8.8624,27.27575 23.2021,16.85734 23.2022,-16.85735 -8.8625,-27.27573 z"
         id="path90" />
    </clipPath>
    <clipPath
       clipPathUnits="userSpaceOnUse"
       id="clipPath90">
      <path
         style="fill:#000000;fill-opacity:0;stroke:#000000;stroke-width:0.05mm"
         d="m 1129.0817,310.20296 -8.8624,27.27575 23.2021,16.85734 23.2022,-16.85735 -8.8625,-27.27573 z"
         id="path91" />
    </clipPath>
    <clipPath
       clipPathUnits="userSpaceOnUse"
       id="clipPath91">
      <path
         style="fill:#000000;fill-opacity:0;stroke:#000000;stroke-width:0.05mm"
         d="m 1129.0817,310.20296 -8.8624,27.27575 23.2021,16.85734 23.2022,-16.85735 -8.8625,-27.27573 z"
         id="path92" />
    </clipPath>
    <clipPath
       clipPathUnits="userSpaceOnUse"
       id="clipPath92">
      <path
         style="fill:#000000;fill-opacity:0;stroke:#000000;stroke-width:0.05mm"
         d="m 1129.0817,310.20296 -8.8624,27.27575 23.2021,16.85734 23.2022,-16.85735 -8.8625,-27.27573 z"
         id="path93" />
    </clipPath>
    <clipPath
       clipPathUnits="userSpaceOnUse"
       id="clipPath93">
      <path
         style="fill:#000000;fill-opacity:0;stroke:#000000;stroke-width:0.05mm"
         d="m 1129.0817,310.20296 -8.8624,27.27575 23.2021,16.85734 23.2022,-16.85735 -8.8625,-27.27573 z"
         id="path94" />
    </clipPath>
    <clipPath
       clipPathUnits="userSpaceOnUse"
       id="clipPath94">
      <path
         style="fill:#000000;fill-opacity:0;stroke:#000000;stroke-width:0.05mm"
         d="m 1129.0817,310.20296 -8.8624,27.27575 23.2021,16.85734 23.2022,-16.85735 -8.8625,-27.27573 z"
         id="path95" />
    </clipPath>
  </defs>
  <sodipodi:namedview
     id="namedview48"
     pagecolor="#ffffff"
     bordercolor="#000000"
     borderopacity="0.25"
     inkscape:showpageshadow="2"
     inkscape:pageopacity="0.0"
     inkscape:pagecheckerboard="0"
     inkscape:deskcolor="#d1d1d1"
     inkscape:document-units="mm"
     inkscape:zoom="2.2969779"
     inkscape:cx="197.43333"
     inkscape:cy="155.20393"
     inkscape:window-width="1920"
     inkscape:window-height="991"
     inkscape:window-x="-9"
     inkscape:window-y="-9"
     inkscape:window-maximized="1"
     inkscape:current-layer="svg48" />
  <path
     transform="matrix(-1,0,0,-1,122.252007,-15.770752)"
     style="stroke:#ff0000;stroke-width:0.050000mm;fill:none"
     d="M1154.682617,316.928955L1155.398193,316.928955L1159.466553,313.973145L1159.791504,314.9729C1158.944092,315.589966,1157.948242,316.313354,1157.099121,316.928955L1160.427002,316.928955L1160.751953,317.928955L1155.7229,317.928955L1155.144287,318.349365L1156.606201,322.849365L1160.434326,325.630615L1162.71582,323.9729L1163.040771,324.973145L1161.285156,326.248535L1162.221436,326.928955L1163.67627,326.928955L1164.001221,327.928955L1163.5979,327.928955L1164.125732,328.3125L1164.651611,329.930664L1161.896484,327.928955L1158.972168,327.928955L1158.393311,328.349609L1161.181152,336.928955L1161.896484,336.928955L1165.965088,333.9729L1166.290039,334.973145L1163.5979,336.928955L1166.925537,336.928955L1167.197754,337.76709L1166.974854,337.928955L1162.221436,337.928955L1161.642578,338.349609L1161.863525,339.029297L1163.661865,340.335938L1162.811279,340.954102L1162.38916,340.647461L1162.550293,341.143555L1161.699951,341.761475L1161.012939,339.647461L1160.43457,339.227295L1158.833984,340.390137L1153.135986,344.529785L1153.356934,345.209717L1155.155273,346.516357L1153.193115,347.942139L1153.188965,347.928955L1148.45752,347.928955L1144.629639,350.710205L1144.850586,351.390381L1146.648926,352.696777L1145.798096,353.314941L1145.376221,353.008301L1145.537354,353.504395L1144.686768,354.122314L1143.999756,352.008057L1143.421387,351.587891L1141.044434,353.314941L1140.193848,352.696777L1142.570801,350.969971L1138.385254,347.928955L1133.631592,347.928955L1131.703613,346.504639L1130.236084,342.008301L1126.408447,339.227295L1124.031494,340.954102L1123.180908,340.335938L1125.557617,338.609131L1124.621338,337.928955L1119.86792,337.928955L1119.64502,337.76709L1119.917236,336.928955L1123.244873,336.928955L1120.552979,334.9729L1120.877686,333.9729L1124.946289,336.928955L1127.870361,336.928955L1128.448975,336.508545L1125.661377,327.928955L1124.946289,327.928955L1122.191162,329.930664L1122.717041,328.3125L1123.244873,327.928955L1122.841553,327.928955L1123.166504,326.928955L1124.621338,326.928955L1125.199951,326.508545L1124.97876,325.827637L1123.802002,324.9729L1124.126953,323.973145L1124.452881,324.209961L1124.251465,323.589844L1124.7771,321.97168L1125.829346,325.209961L1126.408447,325.630615L1133.706299,320.328125L1133.485107,319.647461L1131.119873,317.928955L1126.09082,317.928955L1126.415771,316.928955L1129.743652,316.928955L1127.05127,314.9729L1127.376221,313.9729L1131.444824,316.928955L1132.601807,316.928955L1130.781982,311.328125L1127.44873,313.75L1127.974365,312.13208L1130.457031,310.328369L1130.290527,309.816162L1132.863281,309.816162L1131.632813,310.710205L1133.65332,316.928955L1138.38501,316.928955C1139.595581,316.051636,1141.004517,315.027954,1142.212891,314.147949L1141.991699,313.467285L1136.966309,309.816162L1138.667969,309.816162L1141.466064,311.849121L1140.80542,309.816162L1141.856934,309.816162L1142.842285,312.849121L1143.421387,313.269775L1148.175049,309.816162L1149.876709,309.816162L1144.272217,313.887939L1148.457764,316.928955L1153.631104,316.928955L1151.320068,309.816162L1152.371582,309.816162L1154.682617,316.928955z"
     id="path1"
     clip-path="url(#clipPath94)" />
  <path
     transform="matrix(-1,0,0,-1,122.252007,-15.770752)"
     style="stroke:#ff0000;stroke-width:0.050000mm;fill:none"
     d="M1140.086426,347.928955L1143.421387,350.351807L1143.453857,350.328125L1142.674316,347.928955L1140.086426,347.928955z"
     id="path2"
     clip-path="url(#clipPath93)" />
  <path
     transform="matrix(-1,0,0,-1,122.252007,-15.770752)"
     style="stroke:#ff0000;stroke-width:0.050000mm;fill:none"
     d="M1143.726074,347.928955L1144.304688,349.710205L1146.756348,347.928955L1143.726074,347.928955z"
     id="path3"
     clip-path="url(#clipPath92)" />
  <path
     transform="matrix(-1,0,0,-1,122.252007,-15.770752)"
     style="stroke:#ff0000;stroke-width:0.050000mm;fill:none"
     d="M1153.915527,346.928955L1154.021973,346.928955L1153.882568,346.827637L1153.915527,346.928955z"
     id="path4"
     clip-path="url(#clipPath91)" />
  <path
     transform="matrix(-1,0,0,-1,122.252007,-15.770752)"
     style="stroke:#ff0000;stroke-width:0.050000mm;fill:none"
     d="M1149.833984,346.928955L1152.864014,346.928955L1152.506104,345.827637L1151.927979,345.407471L1149.833984,346.928955z"
     id="path5"
     clip-path="url(#clipPath90)" />
  <path
     transform="matrix(-1,0,0,-1,122.252007,-15.770752)"
     style="stroke:#ff0000;stroke-width:0.050000mm;fill:none"
     d="M1135.765381,344.789551L1138.710205,346.928955L1142.349365,346.928955L1140.529541,341.328125L1135.765381,344.789551z"
     id="path6"
     clip-path="url(#clipPath89)" />
  <path
     transform="matrix(-1,0,0,-1,122.252007,-15.770752)"
     style="stroke:#ff0000;stroke-width:0.050000mm;fill:none"
     d="M1141.380371,340.710205L1143.401123,346.928955L1148.132568,346.928955L1151.077393,344.789551L1143.421387,339.227295L1141.380371,340.710205z"
     id="path7"
     clip-path="url(#clipPath88)" />
  <path
     transform="matrix(-1,0,0,-1,122.252007,-15.770752)"
     style="stroke:#ff0000;stroke-width:0.050000mm;fill:none"
     d="M1134.250244,345.890381L1132.873779,346.890381L1132.88623,346.928955L1137.008789,346.928955L1134.914795,345.407471L1134.250244,345.890381z"
     id="path8"
     clip-path="url(#clipPath87)" />
  <path
     transform="matrix(-1,0,0,-1,122.252007,-15.770752)"
     style="stroke:#ff0000;stroke-width:0.050000mm;fill:none"
     d="M1132.548828,345.890381L1134.064209,344.789551L1131.612549,343.008301L1132.548828,345.890381z"
     id="path9"
     clip-path="url(#clipPath86)" />
  <path
     transform="matrix(-1,0,0,-1,122.252007,-15.770752)"
     style="stroke:#ff0000;stroke-width:0.050000mm;fill:none"
     d="M1129.962158,337.928955L1131.08667,341.390137L1134.914795,344.171631L1140.204834,340.328125L1139.425049,337.928955L1129.962158,337.928955z"
     id="path10"
     clip-path="url(#clipPath85)" />
  <path
     transform="matrix(-1,0,0,-1,122.252007,-15.770752)"
     style="stroke:#ff0000;stroke-width:0.050000mm;fill:none"
     d="M1145.208252,337.928955L1144.271973,338.609131L1151.927734,344.171631L1151.960449,344.147949L1149.939697,337.928955L1145.208252,337.928955z"
     id="path11"
     clip-path="url(#clipPath84)" />
  <path
     transform="matrix(-1,0,0,-1,122.252007,-15.770752)"
     style="stroke:#ff0000;stroke-width:0.050000mm;fill:none"
     d="M1150.991211,337.928955L1152.811035,343.529785L1159.58374,338.609131L1158.647461,337.928955L1150.991211,337.928955z"
     id="path12"
     clip-path="url(#clipPath83)" />
  <path
     transform="matrix(-1,0,0,-1,122.252007,-15.770752)"
     style="stroke:#ff0000;stroke-width:0.050000mm;fill:none"
     d="M1128.195313,337.928955L1127.259033,338.609131L1129.710205,340.390137L1128.910645,337.928955L1128.195313,337.928955z"
     id="path13"
     clip-path="url(#clipPath82)" />
  <path
     transform="matrix(-1,0,0,-1,122.252007,-15.770752)"
     style="stroke:#ff0000;stroke-width:0.050000mm;fill:none"
     d="M1140.476807,337.928955L1141.05542,339.710205L1142.570801,338.609131L1141.634521,337.928955L1140.476807,337.928955z"
     id="path14"
     clip-path="url(#clipPath81)" />
  <path
     transform="matrix(-1,0,0,-1,122.252007,-15.770752)"
     style="stroke:#ff0000;stroke-width:0.050000mm;fill:none"
     d="M1126.322754,337.928955L1126.408203,337.991211L1126.493896,337.928955L1126.322754,337.928955z"
     id="path15"
     clip-path="url(#clipPath80)" />
  <path
     transform="matrix(-1,0,0,-1,122.252007,-15.770752)"
     style="stroke:#ff0000;stroke-width:0.050000mm;fill:none"
     d="M1160.348877,337.928955L1160.43457,337.991211L1160.467041,337.967529L1160.45459,337.928955L1160.348877,337.928955z"
     id="path16"
     clip-path="url(#clipPath79)" />
  <path
     transform="matrix(-1,0,0,-1,122.252007,-15.770752)"
     style="stroke:#ff0000;stroke-width:0.050000mm;fill:none"
     d="M1143.335693,337.928955L1143.421387,337.991211L1143.50708,337.928955L1143.335693,337.928955z"
     id="path17"
     clip-path="url(#clipPath78)" />
  <path
     transform="matrix(-1,0,0,-1,122.252007,-15.770752)"
     style="stroke:#ff0000;stroke-width:0.050000mm;fill:none"
     d="M1141.958984,327.928955L1138.131104,330.710205L1139.593262,335.209961L1141.959229,336.928955L1144.883545,336.928955L1148.711182,334.147949L1147.249023,329.647461L1144.883789,327.928955L1141.958984,327.928955z"
     id="path18"
     clip-path="url(#clipPath77)" />
  <path
     transform="matrix(-1,0,0,-1,122.252007,-15.770752)"
     style="stroke:#ff0000;stroke-width:0.050000mm;fill:none"
     d="M1152.778564,332.428711L1158.972412,336.928955L1160.129639,336.928955L1157.542725,328.967529L1152.778564,332.428711z"
     id="path19"
     clip-path="url(#clipPath76)" />
  <path
     transform="matrix(-1,0,0,-1,122.252007,-15.770752)"
     style="stroke:#ff0000;stroke-width:0.050000mm;fill:none"
     d="M1146.584717,336.928955L1149.614746,336.928955L1149.036133,335.147949L1146.584717,336.928955z"
     id="path20"
     clip-path="url(#clipPath75)" />
  <path
     transform="matrix(-1,0,0,-1,122.252007,-15.770752)"
     style="stroke:#ff0000;stroke-width:0.050000mm;fill:none"
     d="M1151.89502,333.070801L1149.886719,334.529785L1150.66626,336.928955L1157.270996,336.928955L1151.927979,333.046875L1151.89502,333.070801z"
     id="path21"
     clip-path="url(#clipPath74)" />
  <path
     transform="matrix(-1,0,0,-1,122.252007,-15.770752)"
     style="stroke:#ff0000;stroke-width:0.050000mm;fill:none"
     d="M1134.031006,333.688965L1129.624756,336.890625L1129.637207,336.928955L1139.100342,336.928955L1138.742432,335.827881L1134.914795,333.046875L1134.031006,333.688965z"
     id="path22"
     clip-path="url(#clipPath73)" />
  <path
     transform="matrix(-1,0,0,-1,122.252007,-15.770752)"
     style="stroke:#ff0000;stroke-width:0.050000mm;fill:none"
     d="M1140.151855,336.928955L1140.258057,336.928955L1140.118896,336.827881L1140.151855,336.928955z"
     id="path23"
     clip-path="url(#clipPath72)" />
  <path
     transform="matrix(-1,0,0,-1,122.252007,-15.770752)"
     style="stroke:#ff0000;stroke-width:0.050000mm;fill:none"
     d="M1126.712891,327.928955L1129.299805,335.890381L1134.064209,332.428955L1127.870605,327.928955L1126.712891,327.928955z"
     id="path24"
     clip-path="url(#clipPath71)" />
  <path
     transform="matrix(-1,0,0,-1,122.252007,-15.770752)"
     style="stroke:#ff0000;stroke-width:0.050000mm;fill:none"
     d="M1135.765381,332.428955L1138.216797,334.209961L1137.280518,331.328125L1135.765381,332.428955z"
     id="path25"
     clip-path="url(#clipPath70)" />
  <path
     transform="matrix(-1,0,0,-1,122.252007,-15.770752)"
     style="stroke:#ff0000;stroke-width:0.050000mm;fill:none"
     d="M1149.562012,333.529785L1151.077393,332.428955L1148.625244,330.647461L1149.562012,333.529785z"
     id="path26"
     clip-path="url(#clipPath69)" />
  <path
     transform="matrix(-1,0,0,-1,122.252007,-15.770752)"
     style="stroke:#ff0000;stroke-width:0.050000mm;fill:none"
     d="M1129.572021,327.928955L1134.914795,331.810791L1136.955566,330.328125L1136.176025,327.928955L1129.572021,327.928955z"
     id="path27"
     clip-path="url(#clipPath68)" />
  <path
     transform="matrix(-1,0,0,-1,122.252007,-15.770752)"
     style="stroke:#ff0000;stroke-width:0.050000mm;fill:none"
     d="M1147.741943,327.928955L1148.099609,329.029297L1151.927979,331.810791L1157.217773,327.967529L1157.205322,327.928955L1147.741943,327.928955z"
     id="path28"
     clip-path="url(#clipPath67)" />
  <path
     transform="matrix(-1,0,0,-1,122.252007,-15.770752)"
     style="stroke:#ff0000;stroke-width:0.050000mm;fill:none"
     d="M1137.227539,327.928955L1137.806152,329.709961L1140.257813,327.928955L1137.227539,327.928955z"
     id="path29"
     clip-path="url(#clipPath66)" />
  <path
     transform="matrix(-1,0,0,-1,122.252007,-15.770752)"
     style="stroke:#ff0000;stroke-width:0.050000mm;fill:none"
     d="M1146.584961,327.928955L1146.723145,328.029297L1146.690674,327.928955L1146.584961,327.928955z"
     id="path30"
     clip-path="url(#clipPath65)" />
  <path
     transform="matrix(-1,0,0,-1,122.252007,-15.770752)"
     style="stroke:#ff0000;stroke-width:0.050000mm;fill:none"
     d="M1143.335449,326.928955L1143.507324,326.928955L1143.421387,326.866455L1143.335449,326.928955z"
     id="path31"
     clip-path="url(#clipPath64)" />
  <path
     transform="matrix(-1,0,0,-1,122.252007,-15.770752)"
     style="stroke:#ff0000;stroke-width:0.050000mm;fill:none"
     d="M1160.348633,326.928955L1160.520264,326.928955L1160.434326,326.866699L1160.348633,326.928955z"
     id="path32"
     clip-path="url(#clipPath63)" />
  <path
     transform="matrix(-1,0,0,-1,122.252007,-15.770752)"
     style="stroke:#ff0000;stroke-width:0.050000mm;fill:none"
     d="M1144.271973,326.248535L1145.20874,326.928955L1146.365723,326.928955L1145.786865,325.147949L1144.271973,326.248535z"
     id="path33"
     clip-path="url(#clipPath62)" />
  <path
     transform="matrix(-1,0,0,-1,122.252007,-15.770752)"
     style="stroke:#ff0000;stroke-width:0.050000mm;fill:none"
     d="M1127.259033,326.248535L1128.195557,326.928955L1135.851074,326.928955L1134.03125,321.328369L1127.259033,326.248535z"
     id="path34"
     clip-path="url(#clipPath61)" />
  <path
     transform="matrix(-1,0,0,-1,122.252007,-15.770752)"
     style="stroke:#ff0000;stroke-width:0.050000mm;fill:none"
     d="M1146.637695,324.529785L1147.417236,326.928955L1156.880371,326.928955L1155.755615,323.467285L1151.927734,320.686279L1146.637695,324.529785z"
     id="path35"
     clip-path="url(#clipPath60)" />
  <path
     transform="matrix(-1,0,0,-1,122.252007,-15.770752)"
     style="stroke:#ff0000;stroke-width:0.050000mm;fill:none"
     d="M1157.931885,326.928955L1158.647217,326.928955L1159.58374,326.248535L1157.13208,324.467285L1157.931885,326.928955z"
     id="path36"
     clip-path="url(#clipPath59)" />
  <path
     transform="matrix(-1,0,0,-1,122.252007,-15.770752)"
     style="stroke:#ff0000;stroke-width:0.050000mm;fill:none"
     d="M1126.375488,326.890625L1126.387939,326.928955L1126.494141,326.928955L1126.408447,326.866699L1126.375488,326.890625z"
     id="path37"
     clip-path="url(#clipPath58)" />
  <path
     transform="matrix(-1,0,0,-1,122.252007,-15.770752)"
     style="stroke:#ff0000;stroke-width:0.050000mm;fill:none"
     d="M1134.88208,320.710205L1136.902588,326.928955L1141.634277,326.928955L1142.570801,326.248535L1134.915039,320.686279L1134.88208,320.710205z"
     id="path38"
     clip-path="url(#clipPath57)" />
  <path
     transform="matrix(-1,0,0,-1,122.252007,-15.770752)"
     style="stroke:#ff0000;stroke-width:0.050000mm;fill:none"
     d="M1138.709961,317.928955L1135.765625,320.068115L1143.421387,325.630371L1145.461914,324.147705L1143.441406,317.928955L1138.709961,317.928955z"
     id="path39"
     clip-path="url(#clipPath56)" />
  <path
     transform="matrix(-1,0,0,-1,122.252007,-15.770752)"
     style="stroke:#ff0000;stroke-width:0.050000mm;fill:none"
     d="M1144.49292,317.928955L1146.312744,323.529785C1147.894287,322.383301,1149.498047,321.218262,1151.077148,320.068359L1148.132813,317.928955L1144.49292,317.928955z"
     id="path40"
     clip-path="url(#clipPath55)" />
  <path
     transform="matrix(-1,0,0,-1,122.252007,-15.770752)"
     style="stroke:#ff0000;stroke-width:0.050000mm;fill:none"
     d="M1152.778564,320.068115L1155.22998,321.849121L1154.293457,318.967529L1152.778564,320.068115z"
     id="path41"
     clip-path="url(#clipPath54)" />
  <path
     transform="matrix(-1,0,0,-1,122.252007,-15.770752)"
     style="stroke:#ff0000;stroke-width:0.050000mm;fill:none"
     d="M1149.834229,317.928955L1151.927979,319.450195L1153.96875,317.967529L1153.956055,317.928955L1149.834229,317.928955z"
     id="path42"
     clip-path="url(#clipPath53)" />
  <path
     transform="matrix(-1,0,0,-1,122.252007,-15.770752)"
     style="stroke:#ff0000;stroke-width:0.050000mm;fill:none"
     d="M1133.978271,317.928955L1134.335938,319.029297L1134.915039,319.450195L1137.008545,317.928955L1133.978271,317.928955z"
     id="path43"
     clip-path="url(#clipPath52)" />
  <path
     transform="matrix(-1,0,0,-1,122.252007,-15.770752)"
     style="stroke:#ff0000;stroke-width:0.050000mm;fill:none"
     d="M1132.821289,317.928955L1132.959229,318.029297L1132.926758,317.928955L1132.821289,317.928955z"
     id="path44"
     clip-path="url(#clipPath51)" />
  <path
     transform="matrix(-1,0,0,-1,122.252007,-15.770752)"
     style="stroke:#ff0000;stroke-width:0.050000mm;fill:none"
     d="M1140.086426,316.928955L1143.116455,316.928955L1142.537842,315.147949L1140.086426,316.928955z"
     id="path45"
     clip-path="url(#clipPath50)" />
  <path
     transform="matrix(-1,0,0,-1,122.252007,-15.770752)"
     style="stroke:#ff0000;stroke-width:0.050000mm;fill:none"
     d="M1143.388428,314.529785L1144.167969,316.928955L1146.756348,316.928955L1143.421387,314.505859L1143.388428,314.529785z"
     id="path46"
     clip-path="url(#clipPath49)" />
  <path
     transform="matrix(-1,0,0,-1,122.252007,-15.770752)"
     style="stroke:#ff0000;stroke-width:0.050000mm;fill:none"
     d="M1158.868652,312.132324L1159.394287,313.750244L1153.979492,309.816162L1155.680664,309.816162L1158.868652,312.132324z"
     id="path47"
     clip-path="url(#clipPath48)" />
</svg>
