<?xml version='1.0' encoding='utf-8'?>
<svg height="210.80mm" viewBox="0.0 0.0 390.40 210.80" width="390.40mm" xmlns="http://www.w3.org/2000/svg" xmlns:cc="http://creativecommons.org/ns#" xmlns:dc="http://purl.org/dc/elements/1.1/" xmlns:inkscape="http://www.inkscape.org/namespaces/inkscape" xmlns:rdf="http://www.w3.org/1999/02/22-rdf-syntax-ns#" xmlns:svg="http://www.w3.org/2000/svg" xmlns:xlink="http://www.w3.org/1999/xlink">
<!--
ABox - A simple Box


This box is kept simple on purpose. If you need more features have a look at the UniversalBox.


Created with Boxes.py (https://boxes.hackerspace-bamberg.de/)
Creation date: 2026-03-23 11:35:54
Command line (remove spaces between dashes): boxes ABox - -FingerJoint_surroundingspaces=3 - -FingerJoint_finger=3 - -FingerJoint_space=3 - -Lid_height=10 - -x=282 - -y=79 - -h=45 - -outside=0 - -bottom_edge=F - -thickness=2 - -spacing=0.5
Url: https://boxes.hackerspace-bamberg.de/ABox?FingerJoint_style=rectangular&FingerJoint_surroundingspaces=3&FingerJoint_bottom_lip=0.0&FingerJoint_edge_width=1.0&FingerJoint_extra_length=0.0&FingerJoint_finger=3&FingerJoint_play=0.0&FingerJoint_space=3&FingerJoint_width=1.0&Lid_handle=none&Lid_style=none&Lid_handle_height=8.0&Lid_height=10&Lid_play=0.1&x=282&y=79&h=45&outside=0&bottom_edge=F&thickness=2&burn=0.1&format=svg&labels=0&labels=1&reference=100.0&tabs=0.0&qr_code=0&inner_corners=loop&spacing=0.5&debug=0&language=en&render=2
Url short: https://boxes.hackerspace-bamberg.de/ABox?FingerJoint_surroundingspaces=3&FingerJoint_finger=3&FingerJoint_space=3&Lid_height=10&x=282&y=79&h=45&outside=0&bottom_edge=F&thickness=2&spacing=0.5
SettingsUrl: https://boxes.hackerspace-bamberg.de/ABox?FingerJoint_style=rectangular&FingerJoint_surroundingspaces=3&FingerJoint_bottom_lip=0.0&FingerJoint_edge_width=1.0&FingerJoint_extra_length=0.0&FingerJoint_finger=3&FingerJoint_play=0.0&FingerJoint_space=3&FingerJoint_width=1.0&Lid_handle=none&Lid_style=none&Lid_handle_height=8.0&Lid_height=10&Lid_play=0.1&x=282&y=79&h=45&outside=0&bottom_edge=F&thickness=2&burn=0.1&format=svg&labels=0&labels=1&reference=100.0&tabs=0.0&qr_code=0&inner_corners=loop&spacing=0.5&debug=0&language=en&render=2
SettingsUrl short: https://boxes.hackerspace-bamberg.de/ABox?FingerJoint_surroundingspaces=3&FingerJoint_finger=3&FingerJoint_space=3&Lid_height=10&x=282&y=79&h=45&outside=0&bottom_edge=F&thickness=2&spacing=0.5
-->
<title>ABox</title>
<metadata>
<rdf:RDF><cc:Work>
<dc:title>Box - ABox</dc:title>
<dc:date>2026-03-23 11:35:54</dc:date>
<dc:source>https://boxes.hackerspace-bamberg.de/ABox?FingerJoint_style=rectangular&amp;FingerJoint_surroundingspaces=3&amp;FingerJoint_bottom_lip=0.0&amp;FingerJoint_edge_width=1.0&amp;FingerJoint_extra_length=0.0&amp;FingerJoint_finger=3&amp;FingerJoint_play=0.0&amp;FingerJoint_space=3&amp;FingerJoint_width=1.0&amp;Lid_handle=none&amp;Lid_style=none&amp;Lid_handle_height=8.0&amp;Lid_height=10&amp;Lid_play=0.1&amp;x=282&amp;y=79&amp;h=45&amp;outside=0&amp;bottom_edge=F&amp;thickness=2&amp;burn=0.1&amp;format=svg&amp;labels=0&amp;labels=1&amp;reference=100.0&amp;tabs=0.0&amp;qr_code=0&amp;inner_corners=loop&amp;spacing=0.5&amp;debug=0&amp;language=en&amp;render=2</dc:source>
<dc:source>https://boxes.hackerspace-bamberg.de/ABox?FingerJoint_surroundingspaces=3&amp;FingerJoint_finger=3&amp;FingerJoint_space=3&amp;Lid_height=10&amp;x=282&amp;y=79&amp;h=45&amp;outside=0&amp;bottom_edge=F&amp;thickness=2&amp;spacing=0.5</dc:source>
<dc:description>A simple Box

This box is kept simple on purpose. If you need more features have a look at the UniversalBox.

Created with Boxes.py (https://boxes.hackerspace-bamberg.de/)
Command line: boxes ABox --FingerJoint_style=rectangular --FingerJoint_surroundingspaces=3 --FingerJoint_bottom_lip=0.0 --FingerJoint_edge_width=1.0 --FingerJoint_extra_length=0.0 --FingerJoint_finger=3 --FingerJoint_play=0.0 --FingerJoint_space=3 --FingerJoint_width=1.0 --Lid_handle=none --Lid_style=none --Lid_handle_height=8.0 --Lid_height=10 --Lid_play=0.1 --x=282 --y=79 --h=45 --outside=0 --bottom_edge=F --thickness=2 --burn=0.1 --format=svg --labels=0 --labels=1 --reference=100.0 --tabs=0.0 --qr_code=0 --inner_corners=loop --spacing=0.5 --debug=0
Command line short: boxes ABox --FingerJoint_surroundingspaces=3 --FingerJoint_finger=3 --FingerJoint_space=3 --Lid_height=10 --x=282 --y=79 --h=45 --outside=0 --bottom_edge=F --thickness=2 --spacing=0.5
Url: https://boxes.hackerspace-bamberg.de/ABox?FingerJoint_style=rectangular&amp;FingerJoint_surroundingspaces=3&amp;FingerJoint_bottom_lip=0.0&amp;FingerJoint_edge_width=1.0&amp;FingerJoint_extra_length=0.0&amp;FingerJoint_finger=3&amp;FingerJoint_play=0.0&amp;FingerJoint_space=3&amp;FingerJoint_width=1.0&amp;Lid_handle=none&amp;Lid_style=none&amp;Lid_handle_height=8.0&amp;Lid_height=10&amp;Lid_play=0.1&amp;x=282&amp;y=79&amp;h=45&amp;outside=0&amp;bottom_edge=F&amp;thickness=2&amp;burn=0.1&amp;format=svg&amp;labels=0&amp;labels=1&amp;reference=100.0&amp;tabs=0.0&amp;qr_code=0&amp;inner_corners=loop&amp;spacing=0.5&amp;debug=0&amp;language=en&amp;render=2
Url short: https://boxes.hackerspace-bamberg.de/ABox?FingerJoint_surroundingspaces=3&amp;FingerJoint_finger=3&amp;FingerJoint_space=3&amp;Lid_height=10&amp;x=282&amp;y=79&amp;h=45&amp;outside=0&amp;bottom_edge=F&amp;thickness=2&amp;spacing=0.5
SettingsUrl: https://boxes.hackerspace-bamberg.de/ABox?FingerJoint_style=rectangular&amp;FingerJoint_surroundingspaces=3&amp;FingerJoint_bottom_lip=0.0&amp;FingerJoint_edge_width=1.0&amp;FingerJoint_extra_length=0.0&amp;FingerJoint_finger=3&amp;FingerJoint_play=0.0&amp;FingerJoint_space=3&amp;FingerJoint_width=1.0&amp;Lid_handle=none&amp;Lid_style=none&amp;Lid_handle_height=8.0&amp;Lid_height=10&amp;Lid_play=0.1&amp;x=282&amp;y=79&amp;h=45&amp;outside=0&amp;bottom_edge=F&amp;thickness=2&amp;burn=0.1&amp;format=svg&amp;labels=0&amp;labels=1&amp;reference=100.0&amp;tabs=0.0&amp;qr_code=0&amp;inner_corners=loop&amp;spacing=0.5&amp;debug=0&amp;language=en&amp;render=2
SettingsUrl short: https://boxes.hackerspace-bamberg.de/ABox?FingerJoint_surroundingspaces=3&amp;FingerJoint_finger=3&amp;FingerJoint_space=3&amp;Lid_height=10&amp;x=282&amp;y=79&amp;h=45&amp;outside=0&amp;bottom_edge=F&amp;thickness=2&amp;spacing=0.5
</dc:description>
</cc:Work></rdf:RDF></metadata>
<g id="p-0" style="fill:none;stroke-linecap:round;stroke-linejoin:round;">
  <path d="M 10.100 200.800 H 110.100 V 190.800 H 10.100 V 200.800 Z" stroke="rgb(0,0,0)" stroke-width="0.20" />
  <text dominant-baseline="hanging" font-size="6px" style="font-family: sans-serif ; font-weight: normal; font-style: normal; fill: rgb(255,0,0)" text-anchor="middle" transform="matrix( 1.000 0.000 0.000 1.000 60.100 192.800 )">100.0mm, burn:0.10mm</text>
</g>
<g id="p-1" style="fill:none;stroke-linecap:round;stroke-linejoin:round;">
  <path d="M 12.100 189.600 H 24.100 C 24.155 189.600 24.200 189.555 24.200 189.500 V 187.600 C 24.200 187.500 24.100 187.600 24.200 187.600 H 30.000 C 30.100 187.600 30.000 187.500 30.000 187.600 V 189.500 C 30.000 189.555 30.045 189.600 30.100 189.600 H 36.100 C 36.155 189.600 36.200 189.555 36.200 189.500 V 187.600 C 36.200 187.500 36.100 187.600 36.200 187.600 H 42.000 C 42.100 187.600 42.000 187.500 42.000 187.600 V 189.500 C 42.000 189.555 42.045 189.600 42.100 189.600 H 48.100 C 48.155 189.600 48.200 189.555 48.200 189.500 V 187.600 C 48.200 187.500 48.100 187.600 48.200 187.600 H 54.000 C 54.100 187.600 54.000 187.500 54.000 187.600 V 189.500 C 54.000 189.555 54.045 189.600 54.100 189.600 H 60.100 C 60.155 189.600 60.200 189.555 60.200 189.500 V 187.600 C 60.200 187.500 60.100 187.600 60.200 187.600 H 66.000 C 66.100 187.600 66.000 187.500 66.000 187.600 V 189.500 C 66.000 189.555 66.045 189.600 66.100 189.600 H 72.100 C 72.155 189.600 72.200 189.555 72.200 189.500 V 187.600 C 72.200 187.500 72.100 187.600 72.200 187.600 H 78.000 C 78.100 187.600 78.000 187.500 78.000 187.600 V 189.500 C 78.000 189.555 78.045 189.600 78.100 189.600 H 84.100 C 84.155 189.600 84.200 189.555 84.200 189.500 V 187.600 C 84.200 187.500 84.100 187.600 84.200 187.600 H 90.000 C 90.100 187.600 90.000 187.500 90.000 187.600 V 189.500 C 90.000 189.555 90.045 189.600 90.100 189.600 H 96.100 C 96.155 189.600 96.200 189.555 96.200 189.500 V 187.600 C 96.200 187.500 96.100 187.600 96.200 187.600 H 102.000 C 102.100 187.600 102.000 187.500 102.000 187.600 V 189.500 C 102.000 189.555 102.045 189.600 102.100 189.600 H 108.100 C 108.155 189.600 108.200 189.555 108.200 189.500 V 187.600 C 108.200 187.500 108.100 187.600 108.200 187.600 H 114.000 C 114.100 187.600 114.000 187.500 114.000 187.600 V 189.500 C 114.000 189.555 114.045 189.600 114.100 189.600 H 120.100 C 120.155 189.600 120.200 189.555 120.200 189.500 V 187.600 C 120.200 187.500 120.100 187.600 120.200 187.600 H 126.000 C 126.100 187.600 126.000 187.500 126.000 187.600 V 189.500 C 126.000 189.555 126.045 189.600 126.100 189.600 H 132.100 C 132.155 189.600 132.200 189.555 132.200 189.500 V 187.600 C 132.200 187.500 132.100 187.600 132.200 187.600 H 138.000 C 138.100 187.600 138.000 187.500 138.000 187.600 V 189.500 C 138.000 189.555 138.045 189.600 138.100 189.600 H 144.100 C 144.155 189.600 144.200 189.555 144.200 189.500 V 187.600 C 144.200 187.500 144.100 187.600 144.200 187.600 H 150.000 C 150.100 187.600 150.000 187.500 150.000 187.600 V 189.500 C 150.000 189.555 150.045 189.600 150.100 189.600 H 156.100 C 156.155 189.600 156.200 189.555 156.200 189.500 V 187.600 C 156.200 187.500 156.100 187.600 156.200 187.600 H 162.000 C 162.100 187.600 162.000 187.500 162.000 187.600 V 189.500 C 162.000 189.555 162.045 189.600 162.100 189.600 H 168.100 C 168.155 189.600 168.200 189.555 168.200 189.500 V 187.600 C 168.200 187.500 168.100 187.600 168.200 187.600 H 174.000 C 174.100 187.600 174.000 187.500 174.000 187.600 V 189.500 C 174.000 189.555 174.045 189.600 174.100 189.600 H 180.100 C 180.155 189.600 180.200 189.555 180.200 189.500 V 187.600 C 180.200 187.500 180.100 187.600 180.200 187.600 H 186.000 C 186.100 187.600 186.000 187.500 186.000 187.600 V 189.500 C 186.000 189.555 186.045 189.600 186.100 189.600 H 192.100 C 192.155 189.600 192.200 189.555 192.200 189.500 V 187.600 C 192.200 187.500 192.100 187.600 192.200 187.600 H 198.000 C 198.100 187.600 198.000 187.500 198.000 187.600 V 189.500 C 198.000 189.555 198.045 189.600 198.100 189.600 H 204.100 C 204.155 189.600 204.200 189.555 204.200 189.500 V 187.600 C 204.200 187.500 204.100 187.600 204.200 187.600 H 210.000 C 210.100 187.600 210.000 187.500 210.000 187.600 V 189.500 C 210.000 189.555 210.045 189.600 210.100 189.600 H 216.100 C 216.155 189.600 216.200 189.555 216.200 189.500 V 187.600 C 216.200 187.500 216.100 187.600 216.200 187.600 H 222.000 C 222.100 187.600 222.000 187.500 222.000 187.600 V 189.500 C 222.000 189.555 222.045 189.600 222.100 189.600 H 228.100 C 228.155 189.600 228.200 189.555 228.200 189.500 V 187.600 C 228.200 187.500 228.100 187.600 228.200 187.600 H 234.000 C 234.100 187.600 234.000 187.500 234.000 187.600 V 189.500 C 234.000 189.555 234.045 189.600 234.100 189.600 H 240.100 C 240.155 189.600 240.200 189.555 240.200 189.500 V 187.600 C 240.200 187.500 240.100 187.600 240.200 187.600 H 246.000 C 246.100 187.600 246.000 187.500 246.000 187.600 V 189.500 C 246.000 189.555 246.045 189.600 246.100 189.600 H 252.100 C 252.155 189.600 252.200 189.555 252.200 189.500 V 187.600 C 252.200 187.500 252.100 187.600 252.200 187.600 H 258.000 C 258.100 187.600 258.000 187.500 258.000 187.600 V 189.500 C 258.000 189.555 258.045 189.600 258.100 189.600 H 264.100 C 264.155 189.600 264.200 189.555 264.200 189.500 V 187.600 C 264.200 187.500 264.100 187.600 264.200 187.600 H 270.000 C 270.100 187.600 270.000 187.500 270.000 187.600 V 189.500 C 270.000 189.555 270.045 189.600 270.100 189.600 H 276.100 C 276.155 189.600 276.200 189.555 276.200 189.500 V 187.600 C 276.200 187.500 276.100 187.600 276.200 187.600 H 282.000 C 282.100 187.600 282.000 187.500 282.000 187.600 V 189.500 C 282.000 189.555 282.045 189.600 282.100 189.600 H 294.100 H 296.100 C 296.155 189.600 296.200 189.555 296.200 189.500 V 175.000 C 296.200 174.945 296.155 174.900 296.100 174.900 H 294.200 C 294.100 174.900 294.200 175.000 294.200 174.900 V 169.100 C 294.200 169.000 294.100 169.100 294.200 169.100 H 296.100 C 296.155 169.100 296.200 169.055 296.200 169.000 V 163.000 C 296.200 162.945 296.155 162.900 296.100 162.900 H 294.200 C 294.100 162.900 294.200 163.000 294.200 162.900 V 157.100 C 294.200 157.000 294.100 157.100 294.200 157.100 H 296.100 C 296.155 157.100 296.200 157.055 296.200 157.000 V 142.500 C 296.200 142.445 296.155 142.400 296.100 142.400 H 294.100 H 12.100 H 10.100 C 10.045 142.400 10.000 142.445 10.000 142.500 V 157.000 C 10.000 157.055 10.045 157.100 10.100 157.100 H 12.000 C 12.100 157.100 12.000 157.000 12.000 157.100 V 162.900 C 12.000 163.000 12.100 162.900 12.000 162.900 H 10.100 C 10.045 162.900 10.000 162.945 10.000 163.000 V 169.000 C 10.000 169.055 10.045 169.100 10.100 169.100 H 12.000 C 12.100 169.100 12.000 169.000 12.000 169.100 V 174.900 C 12.000 175.000 12.100 174.900 12.000 174.900 H 10.100 C 10.045 174.900 10.000 174.945 10.000 175.000 V 189.500 C 10.000 189.555 10.045 189.600 10.100 189.600 H 12.100 Z" stroke="rgb(0,0,0)" stroke-width="0.20" />
</g>
<g id="p-2" style="fill:none;stroke-linecap:round;stroke-linejoin:round;">
  <path d="M 12.100 141.400 H 24.100 C 24.155 141.400 24.200 141.355 24.200 141.300 V 139.400 C 24.200 139.300 24.100 139.400 24.200 139.400 H 30.000 C 30.100 139.400 30.000 139.300 30.000 139.400 V 141.300 C 30.000 141.355 30.045 141.400 30.100 141.400 H 36.100 C 36.155 141.400 36.200 141.355 36.200 141.300 V 139.400 C 36.200 139.300 36.100 139.400 36.200 139.400 H 42.000 C 42.100 139.400 42.000 139.300 42.000 139.400 V 141.300 C 42.000 141.355 42.045 141.400 42.100 141.400 H 48.100 C 48.155 141.400 48.200 141.355 48.200 141.300 V 139.400 C 48.200 139.300 48.100 139.400 48.200 139.400 H 54.000 C 54.100 139.400 54.000 139.300 54.000 139.400 V 141.300 C 54.000 141.355 54.045 141.400 54.100 141.400 H 60.100 C 60.155 141.400 60.200 141.355 60.200 141.300 V 139.400 C 60.200 139.300 60.100 139.400 60.200 139.400 H 66.000 C 66.100 139.400 66.000 139.300 66.000 139.400 V 141.300 C 66.000 141.355 66.045 141.400 66.100 141.400 H 72.100 C 72.155 141.400 72.200 141.355 72.200 141.300 V 139.400 C 72.200 139.300 72.100 139.400 72.200 139.400 H 78.000 C 78.100 139.400 78.000 139.300 78.000 139.400 V 141.300 C 78.000 141.355 78.045 141.400 78.100 141.400 H 84.100 C 84.155 141.400 84.200 141.355 84.200 141.300 V 139.400 C 84.200 139.300 84.100 139.400 84.200 139.400 H 90.000 C 90.100 139.400 90.000 139.300 90.000 139.400 V 141.300 C 90.000 141.355 90.045 141.400 90.100 141.400 H 96.100 C 96.155 141.400 96.200 141.355 96.200 141.300 V 139.400 C 96.200 139.300 96.100 139.400 96.200 139.400 H 102.000 C 102.100 139.400 102.000 139.300 102.000 139.400 V 141.300 C 102.000 141.355 102.045 141.400 102.100 141.400 H 108.100 C 108.155 141.400 108.200 141.355 108.200 141.300 V 139.400 C 108.200 139.300 108.100 139.400 108.200 139.400 H 114.000 C 114.100 139.400 114.000 139.300 114.000 139.400 V 141.300 C 114.000 141.355 114.045 141.400 114.100 141.400 H 120.100 C 120.155 141.400 120.200 141.355 120.200 141.300 V 139.400 C 120.200 139.300 120.100 139.400 120.200 139.400 H 126.000 C 126.100 139.400 126.000 139.300 126.000 139.400 V 141.300 C 126.000 141.355 126.045 141.400 126.100 141.400 H 132.100 C 132.155 141.400 132.200 141.355 132.200 141.300 V 139.400 C 132.200 139.300 132.100 139.400 132.200 139.400 H 138.000 C 138.100 139.400 138.000 139.300 138.000 139.400 V 141.300 C 138.000 141.355 138.045 141.400 138.100 141.400 H 144.100 C 144.155 141.400 144.200 141.355 144.200 141.300 V 139.400 C 144.200 139.300 144.100 139.400 144.200 139.400 H 150.000 C 150.100 139.400 150.000 139.300 150.000 139.400 V 141.300 C 150.000 141.355 150.045 141.400 150.100 141.400 H 156.100 C 156.155 141.400 156.200 141.355 156.200 141.300 V 139.400 C 156.200 139.300 156.100 139.400 156.200 139.400 H 162.000 C 162.100 139.400 162.000 139.300 162.000 139.400 V 141.300 C 162.000 141.355 162.045 141.400 162.100 141.400 H 168.100 C 168.155 141.400 168.200 141.355 168.200 141.300 V 139.400 C 168.200 139.300 168.100 139.400 168.200 139.400 H 174.000 C 174.100 139.400 174.000 139.300 174.000 139.400 V 141.300 C 174.000 141.355 174.045 141.400 174.100 141.400 H 180.100 C 180.155 141.400 180.200 141.355 180.200 141.300 V 139.400 C 180.200 139.300 180.100 139.400 180.200 139.400 H 186.000 C 186.100 139.400 186.000 139.300 186.000 139.400 V 141.300 C 186.000 141.355 186.045 141.400 186.100 141.400 H 192.100 C 192.155 141.400 192.200 141.355 192.200 141.300 V 139.400 C 192.200 139.300 192.100 139.400 192.200 139.400 H 198.000 C 198.100 139.400 198.000 139.300 198.000 139.400 V 141.300 C 198.000 141.355 198.045 141.400 198.100 141.400 H 204.100 C 204.155 141.400 204.200 141.355 204.200 141.300 V 139.400 C 204.200 139.300 204.100 139.400 204.200 139.400 H 210.000 C 210.100 139.400 210.000 139.300 210.000 139.400 V 141.300 C 210.000 141.355 210.045 141.400 210.100 141.400 H 216.100 C 216.155 141.400 216.200 141.355 216.200 141.300 V 139.400 C 216.200 139.300 216.100 139.400 216.200 139.400 H 222.000 C 222.100 139.400 222.000 139.300 222.000 139.400 V 141.300 C 222.000 141.355 222.045 141.400 222.100 141.400 H 228.100 C 228.155 141.400 228.200 141.355 228.200 141.300 V 139.400 C 228.200 139.300 228.100 139.400 228.200 139.400 H 234.000 C 234.100 139.400 234.000 139.300 234.000 139.400 V 141.300 C 234.000 141.355 234.045 141.400 234.100 141.400 H 240.100 C 240.155 141.400 240.200 141.355 240.200 141.300 V 139.400 C 240.200 139.300 240.100 139.400 240.200 139.400 H 246.000 C 246.100 139.400 246.000 139.300 246.000 139.400 V 141.300 C 246.000 141.355 246.045 141.400 246.100 141.400 H 252.100 C 252.155 141.400 252.200 141.355 252.200 141.300 V 139.400 C 252.200 139.300 252.100 139.400 252.200 139.400 H 258.000 C 258.100 139.400 258.000 139.300 258.000 139.400 V 141.300 C 258.000 141.355 258.045 141.400 258.100 141.400 H 264.100 C 264.155 141.400 264.200 141.355 264.200 141.300 V 139.400 C 264.200 139.300 264.100 139.400 264.200 139.400 H 270.000 C 270.100 139.400 270.000 139.300 270.000 139.400 V 141.300 C 270.000 141.355 270.045 141.400 270.100 141.400 H 276.100 C 276.155 141.400 276.200 141.355 276.200 141.300 V 139.400 C 276.200 139.300 276.100 139.400 276.200 139.400 H 282.000 C 282.100 139.400 282.000 139.300 282.000 139.400 V 141.300 C 282.000 141.355 282.045 141.400 282.100 141.400 H 294.100 H 296.100 C 296.155 141.400 296.200 141.355 296.200 141.300 V 126.800 C 296.200 126.745 296.155 126.700 296.100 126.700 H 294.200 C 294.100 126.700 294.200 126.800 294.200 126.700 V 120.900 C 294.200 120.800 294.100 120.900 294.200 120.900 H 296.100 C 296.155 120.900 296.200 120.855 296.200 120.800 V 114.800 C 296.200 114.745 296.155 114.700 296.100 114.700 H 294.200 C 294.100 114.700 294.200 114.800 294.200 114.700 V 108.900 C 294.200 108.800 294.100 108.900 294.200 108.900 H 296.100 C 296.155 108.900 296.200 108.855 296.200 108.800 V 94.300 C 296.200 94.245 296.155 94.200 296.100 94.200 H 294.100 H 12.100 H 10.100 C 10.045 94.200 10.000 94.245 10.000 94.300 V 108.800 C 10.000 108.855 10.045 108.900 10.100 108.900 H 12.000 C 12.100 108.900 12.000 108.800 12.000 108.900 V 114.700 C 12.000 114.800 12.100 114.700 12.000 114.700 H 10.100 C 10.045 114.700 10.000 114.745 10.000 114.800 V 120.800 C 10.000 120.855 10.045 120.900 10.100 120.900 H 12.000 C 12.100 120.900 12.000 120.800 12.000 120.900 V 126.700 C 12.000 126.800 12.100 126.700 12.000 126.700 H 10.100 C 10.045 126.700 10.000 126.745 10.000 126.800 V 141.300 C 10.000 141.355 10.045 141.400 10.100 141.400 H 12.100 Z" stroke="rgb(0,0,0)" stroke-width="0.20" />
</g>
<g id="p-3" style="fill:none;stroke-linecap:round;stroke-linejoin:round;">
  <path d="M 12.100 91.200 H 24.000 C 24.100 91.200 24.000 91.100 24.000 91.200 V 93.100 C 24.000 93.155 24.045 93.200 24.100 93.200 H 30.100 C 30.155 93.200 30.200 93.155 30.200 93.100 V 91.200 C 30.200 91.100 30.100 91.200 30.200 91.200 H 36.000 C 36.100 91.200 36.000 91.100 36.000 91.200 V 93.100 C 36.000 93.155 36.045 93.200 36.100 93.200 H 42.100 C 42.155 93.200 42.200 93.155 42.200 93.100 V 91.200 C 42.200 91.100 42.100 91.200 42.200 91.200 H 48.000 C 48.100 91.200 48.000 91.100 48.000 91.200 V 93.100 C 48.000 93.155 48.045 93.200 48.100 93.200 H 54.100 C 54.155 93.200 54.200 93.155 54.200 93.100 V 91.200 C 54.200 91.100 54.100 91.200 54.200 91.200 H 60.000 C 60.100 91.200 60.000 91.100 60.000 91.200 V 93.100 C 60.000 93.155 60.045 93.200 60.100 93.200 H 66.100 C 66.155 93.200 66.200 93.155 66.200 93.100 V 91.200 C 66.200 91.100 66.100 91.200 66.200 91.200 H 72.000 C 72.100 91.200 72.000 91.100 72.000 91.200 V 93.100 C 72.000 93.155 72.045 93.200 72.100 93.200 H 78.100 C 78.155 93.200 78.200 93.155 78.200 93.100 V 91.200 C 78.200 91.100 78.100 91.200 78.200 91.200 H 84.000 C 84.100 91.200 84.000 91.100 84.000 91.200 V 93.100 C 84.000 93.155 84.045 93.200 84.100 93.200 H 90.100 C 90.155 93.200 90.200 93.155 90.200 93.100 V 91.200 C 90.200 91.100 90.100 91.200 90.200 91.200 H 96.000 C 96.100 91.200 96.000 91.100 96.000 91.200 V 93.100 C 96.000 93.155 96.045 93.200 96.100 93.200 H 102.100 C 102.155 93.200 102.200 93.155 102.200 93.100 V 91.200 C 102.200 91.100 102.100 91.200 102.200 91.200 H 108.000 C 108.100 91.200 108.000 91.100 108.000 91.200 V 93.100 C 108.000 93.155 108.045 93.200 108.100 93.200 H 114.100 C 114.155 93.200 114.200 93.155 114.200 93.100 V 91.200 C 114.200 91.100 114.100 91.200 114.200 91.200 H 120.000 C 120.100 91.200 120.000 91.100 120.000 91.200 V 93.100 C 120.000 93.155 120.045 93.200 120.100 93.200 H 126.100 C 126.155 93.200 126.200 93.155 126.200 93.100 V 91.200 C 126.200 91.100 126.100 91.200 126.200 91.200 H 132.000 C 132.100 91.200 132.000 91.100 132.000 91.200 V 93.100 C 132.000 93.155 132.045 93.200 132.100 93.200 H 138.100 C 138.155 93.200 138.200 93.155 138.200 93.100 V 91.200 C 138.200 91.100 138.100 91.200 138.200 91.200 H 144.000 C 144.100 91.200 144.000 91.100 144.000 91.200 V 93.100 C 144.000 93.155 144.045 93.200 144.100 93.200 H 150.100 C 150.155 93.200 150.200 93.155 150.200 93.100 V 91.200 C 150.200 91.100 150.100 91.200 150.200 91.200 H 156.000 C 156.100 91.200 156.000 91.100 156.000 91.200 V 93.100 C 156.000 93.155 156.045 93.200 156.100 93.200 H 162.100 C 162.155 93.200 162.200 93.155 162.200 93.100 V 91.200 C 162.200 91.100 162.100 91.200 162.200 91.200 H 168.000 C 168.100 91.200 168.000 91.100 168.000 91.200 V 93.100 C 168.000 93.155 168.045 93.200 168.100 93.200 H 174.100 C 174.155 93.200 174.200 93.155 174.200 93.100 V 91.200 C 174.200 91.100 174.100 91.200 174.200 91.200 H 180.000 C 180.100 91.200 180.000 91.100 180.000 91.200 V 93.100 C 180.000 93.155 180.045 93.200 180.100 93.200 H 186.100 C 186.155 93.200 186.200 93.155 186.200 93.100 V 91.200 C 186.200 91.100 186.100 91.200 186.200 91.200 H 192.000 C 192.100 91.200 192.000 91.100 192.000 91.200 V 93.100 C 192.000 93.155 192.045 93.200 192.100 93.200 H 198.100 C 198.155 93.200 198.200 93.155 198.200 93.100 V 91.200 C 198.200 91.100 198.100 91.200 198.200 91.200 H 204.000 C 204.100 91.200 204.000 91.100 204.000 91.200 V 93.100 C 204.000 93.155 204.045 93.200 204.100 93.200 H 210.100 C 210.155 93.200 210.200 93.155 210.200 93.100 V 91.200 C 210.200 91.100 210.100 91.200 210.200 91.200 H 216.000 C 216.100 91.200 216.000 91.100 216.000 91.200 V 93.100 C 216.000 93.155 216.045 93.200 216.100 93.200 H 222.100 C 222.155 93.200 222.200 93.155 222.200 93.100 V 91.200 C 222.200 91.100 222.100 91.200 222.200 91.200 H 228.000 C 228.100 91.200 228.000 91.100 228.000 91.200 V 93.100 C 228.000 93.155 228.045 93.200 228.100 93.200 H 234.100 C 234.155 93.200 234.200 93.155 234.200 93.100 V 91.200 C 234.200 91.100 234.100 91.200 234.200 91.200 H 240.000 C 240.100 91.200 240.000 91.100 240.000 91.200 V 93.100 C 240.000 93.155 240.045 93.200 240.100 93.200 H 246.100 C 246.155 93.200 246.200 93.155 246.200 93.100 V 91.200 C 246.200 91.100 246.100 91.200 246.200 91.200 H 252.000 C 252.100 91.200 252.000 91.100 252.000 91.200 V 93.100 C 252.000 93.155 252.045 93.200 252.100 93.200 H 258.100 C 258.155 93.200 258.200 93.155 258.200 93.100 V 91.200 C 258.200 91.100 258.100 91.200 258.200 91.200 H 264.000 C 264.100 91.200 264.000 91.100 264.000 91.200 V 93.100 C 264.000 93.155 264.045 93.200 264.100 93.200 H 270.100 C 270.155 93.200 270.200 93.155 270.200 93.100 V 91.200 C 270.200 91.100 270.100 91.200 270.200 91.200 H 276.000 C 276.100 91.200 276.000 91.100 276.000 91.200 V 93.100 C 276.000 93.155 276.045 93.200 276.100 93.200 H 282.100 C 282.155 93.200 282.200 93.155 282.200 93.100 V 91.200 C 282.200 91.100 282.100 91.200 282.200 91.200 H 294.100 C 294.155 91.200 294.200 91.155 294.200 91.100 V 78.700 C 294.200 78.600 294.100 78.700 294.200 78.700 H 296.100 C 296.155 78.700 296.200 78.655 296.200 78.600 V 72.600 C 296.200 72.545 296.155 72.500 296.100 72.500 H 294.200 C 294.100 72.500 294.200 72.600 294.200 72.500 V 66.700 C 294.200 66.600 294.100 66.700 294.200 66.700 H 296.100 C 296.155 66.700 296.200 66.655 296.200 66.600 V 60.600 C 296.200 60.545 296.155 60.500 296.100 60.500 H 294.200 C 294.100 60.500 294.200 60.600 294.200 60.500 V 54.700 C 294.200 54.600 294.100 54.700 294.200 54.700 H 296.100 C 296.155 54.700 296.200 54.655 296.200 54.600 V 48.600 C 296.200 48.545 296.155 48.500 296.100 48.500 H 294.200 C 294.100 48.500 294.200 48.600 294.200 48.500 V 42.700 C 294.200 42.600 294.100 42.700 294.200 42.700 H 296.100 C 296.155 42.700 296.200 42.655 296.200 42.600 V 36.600 C 296.200 36.545 296.155 36.500 296.100 36.500 H 294.200 C 294.100 36.500 294.200 36.600 294.200 36.500 V 30.700 C 294.200 30.600 294.100 30.700 294.200 30.700 H 296.100 C 296.155 30.700 296.200 30.655 296.200 30.600 V 24.600 C 296.200 24.545 296.155 24.500 296.100 24.500 H 294.200 C 294.100 24.500 294.200 24.600 294.200 24.500 V 12.100 C 294.200 12.045 294.155 12.000 294.100 12.000 H 282.200 C 282.100 12.000 282.200 12.100 282.200 12.000 V 10.100 C 282.200 10.045 282.155 10.000 282.100 10.000 H 276.100 C 276.045 10.000 276.000 10.045 276.000 10.100 V 12.000 C 276.000 12.100 276.100 12.000 276.000 12.000 H 270.200 C 270.100 12.000 270.200 12.100 270.200 12.000 V 10.100 C 270.200 10.045 270.155 10.000 270.100 10.000 H 264.100 C 264.045 10.000 264.000 10.045 264.000 10.100 V 12.000 C 264.000 12.100 264.100 12.000 264.000 12.000 H 258.200 C 258.100 12.000 258.200 12.100 258.200 12.000 V 10.100 C 258.200 10.045 258.155 10.000 258.100 10.000 H 252.100 C 252.045 10.000 252.000 10.045 252.000 10.100 V 12.000 C 252.000 12.100 252.100 12.000 252.000 12.000 H 246.200 C 246.100 12.000 246.200 12.100 246.200 12.000 V 10.100 C 246.200 10.045 246.155 10.000 246.100 10.000 H 240.100 C 240.045 10.000 240.000 10.045 240.000 10.100 V 12.000 C 240.000 12.100 240.100 12.000 240.000 12.000 H 234.200 C 234.100 12.000 234.200 12.100 234.200 12.000 V 10.100 C 234.200 10.045 234.155 10.000 234.100 10.000 H 228.100 C 228.045 10.000 228.000 10.045 228.000 10.100 V 12.000 C 228.000 12.100 228.100 12.000 228.000 12.000 H 222.200 C 222.100 12.000 222.200 12.100 222.200 12.000 V 10.100 C 222.200 10.045 222.155 10.000 222.100 10.000 H 216.100 C 216.045 10.000 216.000 10.045 216.000 10.100 V 12.000 C 216.000 12.100 216.100 12.000 216.000 12.000 H 210.200 C 210.100 12.000 210.200 12.100 210.200 12.000 V 10.100 C 210.200 10.045 210.155 10.000 210.100 10.000 H 204.100 C 204.045 10.000 204.000 10.045 204.000 10.100 V 12.000 C 204.000 12.100 204.100 12.000 204.000 12.000 H 198.200 C 198.100 12.000 198.200 12.100 198.200 12.000 V 10.100 C 198.200 10.045 198.155 10.000 198.100 10.000 H 192.100 C 192.045 10.000 192.000 10.045 192.000 10.100 V 12.000 C 192.000 12.100 192.100 12.000 192.000 12.000 H 186.200 C 186.100 12.000 186.200 12.100 186.200 12.000 V 10.100 C 186.200 10.045 186.155 10.000 186.100 10.000 H 180.100 C 180.045 10.000 180.000 10.045 180.000 10.100 V 12.000 C 180.000 12.100 180.100 12.000 180.000 12.000 H 174.200 C 174.100 12.000 174.200 12.100 174.200 12.000 V 10.100 C 174.200 10.045 174.155 10.000 174.100 10.000 H 168.100 C 168.045 10.000 168.000 10.045 168.000 10.100 V 12.000 C 168.000 12.100 168.100 12.000 168.000 12.000 H 162.200 C 162.100 12.000 162.200 12.100 162.200 12.000 V 10.100 C 162.200 10.045 162.155 10.000 162.100 10.000 H 156.100 C 156.045 10.000 156.000 10.045 156.000 10.100 V 12.000 C 156.000 12.100 156.100 12.000 156.000 12.000 H 150.200 C 150.100 12.000 150.200 12.100 150.200 12.000 V 10.100 C 150.200 10.045 150.155 10.000 150.100 10.000 H 144.100 C 144.045 10.000 144.000 10.045 144.000 10.100 V 12.000 C 144.000 12.100 144.100 12.000 144.000 12.000 H 138.200 C 138.100 12.000 138.200 12.100 138.200 12.000 V 10.100 C 138.200 10.045 138.155 10.000 138.100 10.000 H 132.100 C 132.045 10.000 132.000 10.045 132.000 10.100 V 12.000 C 132.000 12.100 132.100 12.000 132.000 12.000 H 126.200 C 126.100 12.000 126.200 12.100 126.200 12.000 V 10.100 C 126.200 10.045 126.155 10.000 126.100 10.000 H 120.100 C 120.045 10.000 120.000 10.045 120.000 10.100 V 12.000 C 120.000 12.100 120.100 12.000 120.000 12.000 H 114.200 C 114.100 12.000 114.200 12.100 114.200 12.000 V 10.100 C 114.200 10.045 114.155 10.000 114.100 10.000 H 108.100 C 108.045 10.000 108.000 10.045 108.000 10.100 V 12.000 C 108.000 12.100 108.100 12.000 108.000 12.000 H 102.200 C 102.100 12.000 102.200 12.100 102.200 12.000 V 10.100 C 102.200 10.045 102.155 10.000 102.100 10.000 H 96.100 C 96.045 10.000 96.000 10.045 96.000 10.100 V 12.000 C 96.000 12.100 96.100 12.000 96.000 12.000 H 90.200 C 90.100 12.000 90.200 12.100 90.200 12.000 V 10.100 C 90.200 10.045 90.155 10.000 90.100 10.000 H 84.100 C 84.045 10.000 84.000 10.045 84.000 10.100 V 12.000 C 84.000 12.100 84.100 12.000 84.000 12.000 H 78.200 C 78.100 12.000 78.200 12.100 78.200 12.000 V 10.100 C 78.200 10.045 78.155 10.000 78.100 10.000 H 72.100 C 72.045 10.000 72.000 10.045 72.000 10.100 V 12.000 C 72.000 12.100 72.100 12.000 72.000 12.000 H 66.200 C 66.100 12.000 66.200 12.100 66.200 12.000 V 10.100 C 66.200 10.045 66.155 10.000 66.100 10.000 H 60.100 C 60.045 10.000 60.000 10.045 60.000 10.100 V 12.000 C 60.000 12.100 60.100 12.000 60.000 12.000 H 54.200 C 54.100 12.000 54.200 12.100 54.200 12.000 V 10.100 C 54.200 10.045 54.155 10.000 54.100 10.000 H 48.100 C 48.045 10.000 48.000 10.045 48.000 10.100 V 12.000 C 48.000 12.100 48.100 12.000 48.000 12.000 H 42.200 C 42.100 12.000 42.200 12.100 42.200 12.000 V 10.100 C 42.200 10.045 42.155 10.000 42.100 10.000 H 36.100 C 36.045 10.000 36.000 10.045 36.000 10.100 V 12.000 C 36.000 12.100 36.100 12.000 36.000 12.000 H 30.200 C 30.100 12.000 30.200 12.100 30.200 12.000 V 10.100 C 30.200 10.045 30.155 10.000 30.100 10.000 H 24.100 C 24.045 10.000 24.000 10.045 24.000 10.100 V 12.000 C 24.000 12.100 24.100 12.000 24.000 12.000 H 12.100 C 12.045 12.000 12.000 12.045 12.000 12.100 V 24.500 C 12.000 24.600 12.100 24.500 12.000 24.500 H 10.100 C 10.045 24.500 10.000 24.545 10.000 24.600 V 30.600 C 10.000 30.655 10.045 30.700 10.100 30.700 H 12.000 C 12.100 30.700 12.000 30.600 12.000 30.700 V 36.500 C 12.000 36.600 12.100 36.500 12.000 36.500 H 10.100 C 10.045 36.500 10.000 36.545 10.000 36.600 V 42.600 C 10.000 42.655 10.045 42.700 10.100 42.700 H 12.000 C 12.100 42.700 12.000 42.600 12.000 42.700 V 48.500 C 12.000 48.600 12.100 48.500 12.000 48.500 H 10.100 C 10.045 48.500 10.000 48.545 10.000 48.600 V 54.600 C 10.000 54.655 10.045 54.700 10.100 54.700 H 12.000 C 12.100 54.700 12.000 54.600 12.000 54.700 V 60.500 C 12.000 60.600 12.100 60.500 12.000 60.500 H 10.100 C 10.045 60.500 10.000 60.545 10.000 60.600 V 66.600 C 10.000 66.655 10.045 66.700 10.100 66.700 H 12.000 C 12.100 66.700 12.000 66.600 12.000 66.700 V 72.500 C 12.000 72.600 12.100 72.500 12.000 72.500 H 10.100 C 10.045 72.500 10.000 72.545 10.000 72.600 V 78.600 C 10.000 78.655 10.045 78.700 10.100 78.700 H 12.000 C 12.100 78.700 12.000 78.600 12.000 78.700 V 91.100 C 12.000 91.155 12.045 91.200 12.100 91.200 Z" stroke="rgb(0,0,0)" stroke-width="0.20" />
</g>
<g id="p-4" style="fill:none;stroke-linecap:round;stroke-linejoin:round;">
  <path d="M 299.300 189.600 H 311.800 C 311.855 189.600 311.900 189.555 311.900 189.500 V 187.600 C 311.900 187.500 311.800 187.600 311.900 187.600 H 317.700 C 317.800 187.600 317.700 187.500 317.700 187.600 V 189.500 C 317.700 189.555 317.745 189.600 317.800 189.600 H 323.800 C 323.855 189.600 323.900 189.555 323.900 189.500 V 187.600 C 323.900 187.500 323.800 187.600 323.900 187.600 H 329.700 C 329.800 187.600 329.700 187.500 329.700 187.600 V 189.500 C 329.700 189.555 329.745 189.600 329.800 189.600 H 335.800 C 335.855 189.600 335.900 189.555 335.900 189.500 V 187.600 C 335.900 187.500 335.800 187.600 335.900 187.600 H 341.700 C 341.800 187.600 341.700 187.500 341.700 187.600 V 189.500 C 341.700 189.555 341.745 189.600 341.800 189.600 H 347.800 C 347.855 189.600 347.900 189.555 347.900 189.500 V 187.600 C 347.900 187.500 347.800 187.600 347.900 187.600 H 353.700 C 353.800 187.600 353.700 187.500 353.700 187.600 V 189.500 C 353.700 189.555 353.745 189.600 353.800 189.600 H 359.800 C 359.855 189.600 359.900 189.555 359.900 189.500 V 187.600 C 359.900 187.500 359.800 187.600 359.900 187.600 H 365.700 C 365.800 187.600 365.700 187.500 365.700 187.600 V 189.500 C 365.700 189.555 365.745 189.600 365.800 189.600 H 378.300 C 378.355 189.600 378.400 189.555 378.400 189.500 V 175.100 C 378.400 175.000 378.300 175.100 378.400 175.100 H 380.300 C 380.355 175.100 380.400 175.055 380.400 175.000 V 169.000 C 380.400 168.945 380.355 168.900 380.300 168.900 H 378.400 C 378.300 168.900 378.400 169.000 378.400 168.900 V 163.100 C 378.400 163.000 378.300 163.100 378.400 163.100 H 380.300 C 380.355 163.100 380.400 163.055 380.400 163.000 V 157.000 C 380.400 156.945 380.355 156.900 380.300 156.900 H 378.400 C 378.300 156.900 378.400 157.000 378.400 156.900 V 142.500 C 378.400 142.445 378.355 142.400 378.300 142.400 H 299.300 C 299.245 142.400 299.200 142.445 299.200 142.500 V 156.900 C 299.200 157.000 299.300 156.900 299.200 156.900 H 297.300 C 297.245 156.900 297.200 156.945 297.200 157.000 V 163.000 C 297.200 163.055 297.245 163.100 297.300 163.100 H 299.200 C 299.300 163.100 299.200 163.000 299.200 163.100 V 168.900 C 299.200 169.000 299.300 168.900 299.200 168.900 H 297.300 C 297.245 168.900 297.200 168.945 297.200 169.000 V 175.000 C 297.200 175.055 297.245 175.100 297.300 175.100 H 299.200 C 299.300 175.100 299.200 175.000 299.200 175.100 V 189.500 C 299.200 189.555 299.245 189.600 299.300 189.600 Z" stroke="rgb(0,0,0)" stroke-width="0.20" />
</g>
<g id="p-5" style="fill:none;stroke-linecap:round;stroke-linejoin:round;">
  <path d="M 299.300 141.400 H 311.800 C 311.855 141.400 311.900 141.355 311.900 141.300 V 139.400 C 311.900 139.300 311.800 139.400 311.900 139.400 H 317.700 C 317.800 139.400 317.700 139.300 317.700 139.400 V 141.300 C 317.700 141.355 317.745 141.400 317.800 141.400 H 323.800 C 323.855 141.400 323.900 141.355 323.900 141.300 V 139.400 C 323.900 139.300 323.800 139.400 323.900 139.400 H 329.700 C 329.800 139.400 329.700 139.300 329.700 139.400 V 141.300 C 329.700 141.355 329.745 141.400 329.800 141.400 H 335.800 C 335.855 141.400 335.900 141.355 335.900 141.300 V 139.400 C 335.900 139.300 335.800 139.400 335.900 139.400 H 341.700 C 341.800 139.400 341.700 139.300 341.700 139.400 V 141.300 C 341.700 141.355 341.745 141.400 341.800 141.400 H 347.800 C 347.855 141.400 347.900 141.355 347.900 141.300 V 139.400 C 347.900 139.300 347.800 139.400 347.900 139.400 H 353.700 C 353.800 139.400 353.700 139.300 353.700 139.400 V 141.300 C 353.700 141.355 353.745 141.400 353.800 141.400 H 359.800 C 359.855 141.400 359.900 141.355 359.900 141.300 V 139.400 C 359.900 139.300 359.800 139.400 359.900 139.400 H 365.700 C 365.800 139.400 365.700 139.300 365.700 139.400 V 141.300 C 365.700 141.355 365.745 141.400 365.800 141.400 H 378.300 C 378.355 141.400 378.400 141.355 378.400 141.300 V 126.900 C 378.400 126.800 378.300 126.900 378.400 126.900 H 380.300 C 380.355 126.900 380.400 126.855 380.400 126.800 V 120.800 C 380.400 120.745 380.355 120.700 380.300 120.700 H 378.400 C 378.300 120.700 378.400 120.800 378.400 120.700 V 114.900 C 378.400 114.800 378.300 114.900 378.400 114.900 H 380.300 C 380.355 114.900 380.400 114.855 380.400 114.800 V 108.800 C 380.400 108.745 380.355 108.700 380.300 108.700 H 378.400 C 378.300 108.700 378.400 108.800 378.400 108.700 V 94.300 C 378.400 94.245 378.355 94.200 378.300 94.200 H 299.300 C 299.245 94.200 299.200 94.245 299.200 94.300 V 108.700 C 299.200 108.800 299.300 108.700 299.200 108.700 H 297.300 C 297.245 108.700 297.200 108.745 297.200 108.800 V 114.800 C 297.200 114.855 297.245 114.900 297.300 114.900 H 299.200 C 299.300 114.900 299.200 114.800 299.200 114.900 V 120.700 C 299.200 120.800 299.300 120.700 299.200 120.700 H 297.300 C 297.245 120.700 297.200 120.745 297.200 120.800 V 126.800 C 297.200 126.855 297.245 126.900 297.300 126.900 H 299.200 C 299.300 126.900 299.200 126.800 299.200 126.900 V 141.300 C 299.200 141.355 299.245 141.400 299.300 141.400 Z" stroke="rgb(0,0,0)" stroke-width="0.20" />
</g>
</svg>