<?xml version='1.0' encoding='utf-8'?>
<svg height="180.80mm" viewBox="0.0 0.0 390.40 180.80" width="390.40mm" xmlns="http://www.w3.org/2000/svg" xmlns:cc="http://creativecommons.org/ns#" xmlns:dc="http://purl.org/dc/elements/1.1/" xmlns:inkscape="http://www.inkscape.org/namespaces/inkscape" xmlns:rdf="http://www.w3.org/1999/02/22-rdf-syntax-ns#" xmlns:svg="http://www.w3.org/2000/svg" xmlns:xlink="http://www.w3.org/1999/xlink">
<!--
ABox - A simple Box


This box is kept simple on purpose. If you need more features have a look at the UniversalBox.


Created with Boxes.py (https://boxes.hackerspace-bamberg.de/)
Creation date: 2026-03-23 11:42:08
Command line (remove spaces between dashes): boxes ABox - -FingerJoint_surroundingspaces=3 - -FingerJoint_finger=3 - -FingerJoint_space=3 - -Lid_height=10 - -x=282 - -y=79 - -h=30 - -outside=0 - -bottom_edge=F - -thickness=2 - -spacing=0.5
Url: https://boxes.hackerspace-bamberg.de/ABox?FingerJoint_style=rectangular&FingerJoint_surroundingspaces=3&FingerJoint_bottom_lip=0.0&FingerJoint_edge_width=1.0&FingerJoint_extra_length=0.0&FingerJoint_finger=3&FingerJoint_play=0.0&FingerJoint_space=3&FingerJoint_width=1.0&Lid_handle=none&Lid_style=none&Lid_handle_height=8.0&Lid_height=10&Lid_play=0.1&x=282&y=79&h=30&outside=0&bottom_edge=F&thickness=2&burn=0.1&format=svg&labels=0&labels=1&reference=100.0&tabs=0.0&qr_code=0&inner_corners=loop&spacing=0.5&debug=0&language=en&render=2
Url short: https://boxes.hackerspace-bamberg.de/ABox?FingerJoint_surroundingspaces=3&FingerJoint_finger=3&FingerJoint_space=3&Lid_height=10&x=282&y=79&h=30&outside=0&bottom_edge=F&thickness=2&spacing=0.5
SettingsUrl: https://boxes.hackerspace-bamberg.de/ABox?FingerJoint_style=rectangular&FingerJoint_surroundingspaces=3&FingerJoint_bottom_lip=0.0&FingerJoint_edge_width=1.0&FingerJoint_extra_length=0.0&FingerJoint_finger=3&FingerJoint_play=0.0&FingerJoint_space=3&FingerJoint_width=1.0&Lid_handle=none&Lid_style=none&Lid_handle_height=8.0&Lid_height=10&Lid_play=0.1&x=282&y=79&h=30&outside=0&bottom_edge=F&thickness=2&burn=0.1&format=svg&labels=0&labels=1&reference=100.0&tabs=0.0&qr_code=0&inner_corners=loop&spacing=0.5&debug=0&language=en&render=2
SettingsUrl short: https://boxes.hackerspace-bamberg.de/ABox?FingerJoint_surroundingspaces=3&FingerJoint_finger=3&FingerJoint_space=3&Lid_height=10&x=282&y=79&h=30&outside=0&bottom_edge=F&thickness=2&spacing=0.5
-->
<title>ABox</title>
<metadata>
<rdf:RDF><cc:Work>
<dc:title>Box - ABox</dc:title>
<dc:date>2026-03-23 11:42:08</dc:date>
<dc:source>https://boxes.hackerspace-bamberg.de/ABox?FingerJoint_style=rectangular&amp;FingerJoint_surroundingspaces=3&amp;FingerJoint_bottom_lip=0.0&amp;FingerJoint_edge_width=1.0&amp;FingerJoint_extra_length=0.0&amp;FingerJoint_finger=3&amp;FingerJoint_play=0.0&amp;FingerJoint_space=3&amp;FingerJoint_width=1.0&amp;Lid_handle=none&amp;Lid_style=none&amp;Lid_handle_height=8.0&amp;Lid_height=10&amp;Lid_play=0.1&amp;x=282&amp;y=79&amp;h=30&amp;outside=0&amp;bottom_edge=F&amp;thickness=2&amp;burn=0.1&amp;format=svg&amp;labels=0&amp;labels=1&amp;reference=100.0&amp;tabs=0.0&amp;qr_code=0&amp;inner_corners=loop&amp;spacing=0.5&amp;debug=0&amp;language=en&amp;render=2</dc:source>
<dc:source>https://boxes.hackerspace-bamberg.de/ABox?FingerJoint_surroundingspaces=3&amp;FingerJoint_finger=3&amp;FingerJoint_space=3&amp;Lid_height=10&amp;x=282&amp;y=79&amp;h=30&amp;outside=0&amp;bottom_edge=F&amp;thickness=2&amp;spacing=0.5</dc:source>
<dc:description>A simple Box

This box is kept simple on purpose. If you need more features have a look at the UniversalBox.

Created with Boxes.py (https://boxes.hackerspace-bamberg.de/)
Command line: boxes ABox --FingerJoint_style=rectangular --FingerJoint_surroundingspaces=3 --FingerJoint_bottom_lip=0.0 --FingerJoint_edge_width=1.0 --FingerJoint_extra_length=0.0 --FingerJoint_finger=3 --FingerJoint_play=0.0 --FingerJoint_space=3 --FingerJoint_width=1.0 --Lid_handle=none --Lid_style=none --Lid_handle_height=8.0 --Lid_height=10 --Lid_play=0.1 --x=282 --y=79 --h=30 --outside=0 --bottom_edge=F --thickness=2 --burn=0.1 --format=svg --labels=0 --labels=1 --reference=100.0 --tabs=0.0 --qr_code=0 --inner_corners=loop --spacing=0.5 --debug=0
Command line short: boxes ABox --FingerJoint_surroundingspaces=3 --FingerJoint_finger=3 --FingerJoint_space=3 --Lid_height=10 --x=282 --y=79 --h=30 --outside=0 --bottom_edge=F --thickness=2 --spacing=0.5
Url: https://boxes.hackerspace-bamberg.de/ABox?FingerJoint_style=rectangular&amp;FingerJoint_surroundingspaces=3&amp;FingerJoint_bottom_lip=0.0&amp;FingerJoint_edge_width=1.0&amp;FingerJoint_extra_length=0.0&amp;FingerJoint_finger=3&amp;FingerJoint_play=0.0&amp;FingerJoint_space=3&amp;FingerJoint_width=1.0&amp;Lid_handle=none&amp;Lid_style=none&amp;Lid_handle_height=8.0&amp;Lid_height=10&amp;Lid_play=0.1&amp;x=282&amp;y=79&amp;h=30&amp;outside=0&amp;bottom_edge=F&amp;thickness=2&amp;burn=0.1&amp;format=svg&amp;labels=0&amp;labels=1&amp;reference=100.0&amp;tabs=0.0&amp;qr_code=0&amp;inner_corners=loop&amp;spacing=0.5&amp;debug=0&amp;language=en&amp;render=2
Url short: https://boxes.hackerspace-bamberg.de/ABox?FingerJoint_surroundingspaces=3&amp;FingerJoint_finger=3&amp;FingerJoint_space=3&amp;Lid_height=10&amp;x=282&amp;y=79&amp;h=30&amp;outside=0&amp;bottom_edge=F&amp;thickness=2&amp;spacing=0.5
SettingsUrl: https://boxes.hackerspace-bamberg.de/ABox?FingerJoint_style=rectangular&amp;FingerJoint_surroundingspaces=3&amp;FingerJoint_bottom_lip=0.0&amp;FingerJoint_edge_width=1.0&amp;FingerJoint_extra_length=0.0&amp;FingerJoint_finger=3&amp;FingerJoint_play=0.0&amp;FingerJoint_space=3&amp;FingerJoint_width=1.0&amp;Lid_handle=none&amp;Lid_style=none&amp;Lid_handle_height=8.0&amp;Lid_height=10&amp;Lid_play=0.1&amp;x=282&amp;y=79&amp;h=30&amp;outside=0&amp;bottom_edge=F&amp;thickness=2&amp;burn=0.1&amp;format=svg&amp;labels=0&amp;labels=1&amp;reference=100.0&amp;tabs=0.0&amp;qr_code=0&amp;inner_corners=loop&amp;spacing=0.5&amp;debug=0&amp;language=en&amp;render=2
SettingsUrl short: https://boxes.hackerspace-bamberg.de/ABox?FingerJoint_surroundingspaces=3&amp;FingerJoint_finger=3&amp;FingerJoint_space=3&amp;Lid_height=10&amp;x=282&amp;y=79&amp;h=30&amp;outside=0&amp;bottom_edge=F&amp;thickness=2&amp;spacing=0.5
</dc:description>
</cc:Work></rdf:RDF></metadata>
<g id="p-0" style="fill:none;stroke-linecap:round;stroke-linejoin:round;">
  <path d="M 10.100 170.800 H 110.100 V 160.800 H 10.100 V 170.800 Z" stroke="rgb(0,0,0)" stroke-width="0.20" />
  <text dominant-baseline="hanging" font-size="6px" style="font-family: sans-serif ; font-weight: normal; font-style: normal; fill: rgb(255,0,0)" text-anchor="middle" transform="matrix( 1.000 0.000 0.000 1.000 60.100 162.800 )">100.0mm, burn:0.10mm</text>
</g>
<g id="p-1" style="fill:none;stroke-linecap:round;stroke-linejoin:round;">
  <path d="M 12.100 159.600 H 24.100 C 24.155 159.600 24.200 159.555 24.200 159.500 V 157.600 C 24.200 157.500 24.100 157.600 24.200 157.600 H 30.000 C 30.100 157.600 30.000 157.500 30.000 157.600 V 159.500 C 30.000 159.555 30.045 159.600 30.100 159.600 H 36.100 C 36.155 159.600 36.200 159.555 36.200 159.500 V 157.600 C 36.200 157.500 36.100 157.600 36.200 157.600 H 42.000 C 42.100 157.600 42.000 157.500 42.000 157.600 V 159.500 C 42.000 159.555 42.045 159.600 42.100 159.600 H 48.100 C 48.155 159.600 48.200 159.555 48.200 159.500 V 157.600 C 48.200 157.500 48.100 157.600 48.200 157.600 H 54.000 C 54.100 157.600 54.000 157.500 54.000 157.600 V 159.500 C 54.000 159.555 54.045 159.600 54.100 159.600 H 60.100 C 60.155 159.600 60.200 159.555 60.200 159.500 V 157.600 C 60.200 157.500 60.100 157.600 60.200 157.600 H 66.000 C 66.100 157.600 66.000 157.500 66.000 157.600 V 159.500 C 66.000 159.555 66.045 159.600 66.100 159.600 H 72.100 C 72.155 159.600 72.200 159.555 72.200 159.500 V 157.600 C 72.200 157.500 72.100 157.600 72.200 157.600 H 78.000 C 78.100 157.600 78.000 157.500 78.000 157.600 V 159.500 C 78.000 159.555 78.045 159.600 78.100 159.600 H 84.100 C 84.155 159.600 84.200 159.555 84.200 159.500 V 157.600 C 84.200 157.500 84.100 157.600 84.200 157.600 H 90.000 C 90.100 157.600 90.000 157.500 90.000 157.600 V 159.500 C 90.000 159.555 90.045 159.600 90.100 159.600 H 96.100 C 96.155 159.600 96.200 159.555 96.200 159.500 V 157.600 C 96.200 157.500 96.100 157.600 96.200 157.600 H 102.000 C 102.100 157.600 102.000 157.500 102.000 157.600 V 159.500 C 102.000 159.555 102.045 159.600 102.100 159.600 H 108.100 C 108.155 159.600 108.200 159.555 108.200 159.500 V 157.600 C 108.200 157.500 108.100 157.600 108.200 157.600 H 114.000 C 114.100 157.600 114.000 157.500 114.000 157.600 V 159.500 C 114.000 159.555 114.045 159.600 114.100 159.600 H 120.100 C 120.155 159.600 120.200 159.555 120.200 159.500 V 157.600 C 120.200 157.500 120.100 157.600 120.200 157.600 H 126.000 C 126.100 157.600 126.000 157.500 126.000 157.600 V 159.500 C 126.000 159.555 126.045 159.600 126.100 159.600 H 132.100 C 132.155 159.600 132.200 159.555 132.200 159.500 V 157.600 C 132.200 157.500 132.100 157.600 132.200 157.600 H 138.000 C 138.100 157.600 138.000 157.500 138.000 157.600 V 159.500 C 138.000 159.555 138.045 159.600 138.100 159.600 H 144.100 C 144.155 159.600 144.200 159.555 144.200 159.500 V 157.600 C 144.200 157.500 144.100 157.600 144.200 157.600 H 150.000 C 150.100 157.600 150.000 157.500 150.000 157.600 V 159.500 C 150.000 159.555 150.045 159.600 150.100 159.600 H 156.100 C 156.155 159.600 156.200 159.555 156.200 159.500 V 157.600 C 156.200 157.500 156.100 157.600 156.200 157.600 H 162.000 C 162.100 157.600 162.000 157.500 162.000 157.600 V 159.500 C 162.000 159.555 162.045 159.600 162.100 159.600 H 168.100 C 168.155 159.600 168.200 159.555 168.200 159.500 V 157.600 C 168.200 157.500 168.100 157.600 168.200 157.600 H 174.000 C 174.100 157.600 174.000 157.500 174.000 157.600 V 159.500 C 174.000 159.555 174.045 159.600 174.100 159.600 H 180.100 C 180.155 159.600 180.200 159.555 180.200 159.500 V 157.600 C 180.200 157.500 180.100 157.600 180.200 157.600 H 186.000 C 186.100 157.600 186.000 157.500 186.000 157.600 V 159.500 C 186.000 159.555 186.045 159.600 186.100 159.600 H 192.100 C 192.155 159.600 192.200 159.555 192.200 159.500 V 157.600 C 192.200 157.500 192.100 157.600 192.200 157.600 H 198.000 C 198.100 157.600 198.000 157.500 198.000 157.600 V 159.500 C 198.000 159.555 198.045 159.600 198.100 159.600 H 204.100 C 204.155 159.600 204.200 159.555 204.200 159.500 V 157.600 C 204.200 157.500 204.100 157.600 204.200 157.600 H 210.000 C 210.100 157.600 210.000 157.500 210.000 157.600 V 159.500 C 210.000 159.555 210.045 159.600 210.100 159.600 H 216.100 C 216.155 159.600 216.200 159.555 216.200 159.500 V 157.600 C 216.200 157.500 216.100 157.600 216.200 157.600 H 222.000 C 222.100 157.600 222.000 157.500 222.000 157.600 V 159.500 C 222.000 159.555 222.045 159.600 222.100 159.600 H 228.100 C 228.155 159.600 228.200 159.555 228.200 159.500 V 157.600 C 228.200 157.500 228.100 157.600 228.200 157.600 H 234.000 C 234.100 157.600 234.000 157.500 234.000 157.600 V 159.500 C 234.000 159.555 234.045 159.600 234.100 159.600 H 240.100 C 240.155 159.600 240.200 159.555 240.200 159.500 V 157.600 C 240.200 157.500 240.100 157.600 240.200 157.600 H 246.000 C 246.100 157.600 246.000 157.500 246.000 157.600 V 159.500 C 246.000 159.555 246.045 159.600 246.100 159.600 H 252.100 C 252.155 159.600 252.200 159.555 252.200 159.500 V 157.600 C 252.200 157.500 252.100 157.600 252.200 157.600 H 258.000 C 258.100 157.600 258.000 157.500 258.000 157.600 V 159.500 C 258.000 159.555 258.045 159.600 258.100 159.600 H 264.100 C 264.155 159.600 264.200 159.555 264.200 159.500 V 157.600 C 264.200 157.500 264.100 157.600 264.200 157.600 H 270.000 C 270.100 157.600 270.000 157.500 270.000 157.600 V 159.500 C 270.000 159.555 270.045 159.600 270.100 159.600 H 276.100 C 276.155 159.600 276.200 159.555 276.200 159.500 V 157.600 C 276.200 157.500 276.100 157.600 276.200 157.600 H 282.000 C 282.100 157.600 282.000 157.500 282.000 157.600 V 159.500 C 282.000 159.555 282.045 159.600 282.100 159.600 H 294.100 H 296.100 C 296.155 159.600 296.200 159.555 296.200 159.500 V 146.500 C 296.200 146.445 296.155 146.400 296.100 146.400 H 294.200 C 294.100 146.400 294.200 146.500 294.200 146.400 V 140.600 C 294.200 140.500 294.100 140.600 294.200 140.600 H 296.100 C 296.155 140.600 296.200 140.555 296.200 140.500 V 127.500 C 296.200 127.445 296.155 127.400 296.100 127.400 H 294.100 H 12.100 H 10.100 C 10.045 127.400 10.000 127.445 10.000 127.500 V 140.500 C 10.000 140.555 10.045 140.600 10.100 140.600 H 12.000 C 12.100 140.600 12.000 140.500 12.000 140.600 V 146.400 C 12.000 146.500 12.100 146.400 12.000 146.400 H 10.100 C 10.045 146.400 10.000 146.445 10.000 146.500 V 159.500 C 10.000 159.555 10.045 159.600 10.100 159.600 H 12.100 Z" stroke="rgb(0,0,0)" stroke-width="0.20" />
</g>
<g id="p-2" style="fill:none;stroke-linecap:round;stroke-linejoin:round;">
  <path d="M 12.100 126.400 H 24.100 C 24.155 126.400 24.200 126.355 24.200 126.300 V 124.400 C 24.200 124.300 24.100 124.400 24.200 124.400 H 30.000 C 30.100 124.400 30.000 124.300 30.000 124.400 V 126.300 C 30.000 126.355 30.045 126.400 30.100 126.400 H 36.100 C 36.155 126.400 36.200 126.355 36.200 126.300 V 124.400 C 36.200 124.300 36.100 124.400 36.200 124.400 H 42.000 C 42.100 124.400 42.000 124.300 42.000 124.400 V 126.300 C 42.000 126.355 42.045 126.400 42.100 126.400 H 48.100 C 48.155 126.400 48.200 126.355 48.200 126.300 V 124.400 C 48.200 124.300 48.100 124.400 48.200 124.400 H 54.000 C 54.100 124.400 54.000 124.300 54.000 124.400 V 126.300 C 54.000 126.355 54.045 126.400 54.100 126.400 H 60.100 C 60.155 126.400 60.200 126.355 60.200 126.300 V 124.400 C 60.200 124.300 60.100 124.400 60.200 124.400 H 66.000 C 66.100 124.400 66.000 124.300 66.000 124.400 V 126.300 C 66.000 126.355 66.045 126.400 66.100 126.400 H 72.100 C 72.155 126.400 72.200 126.355 72.200 126.300 V 124.400 C 72.200 124.300 72.100 124.400 72.200 124.400 H 78.000 C 78.100 124.400 78.000 124.300 78.000 124.400 V 126.300 C 78.000 126.355 78.045 126.400 78.100 126.400 H 84.100 C 84.155 126.400 84.200 126.355 84.200 126.300 V 124.400 C 84.200 124.300 84.100 124.400 84.200 124.400 H 90.000 C 90.100 124.400 90.000 124.300 90.000 124.400 V 126.300 C 90.000 126.355 90.045 126.400 90.100 126.400 H 96.100 C 96.155 126.400 96.200 126.355 96.200 126.300 V 124.400 C 96.200 124.300 96.100 124.400 96.200 124.400 H 102.000 C 102.100 124.400 102.000 124.300 102.000 124.400 V 126.300 C 102.000 126.355 102.045 126.400 102.100 126.400 H 108.100 C 108.155 126.400 108.200 126.355 108.200 126.300 V 124.400 C 108.200 124.300 108.100 124.400 108.200 124.400 H 114.000 C 114.100 124.400 114.000 124.300 114.000 124.400 V 126.300 C 114.000 126.355 114.045 126.400 114.100 126.400 H 120.100 C 120.155 126.400 120.200 126.355 120.200 126.300 V 124.400 C 120.200 124.300 120.100 124.400 120.200 124.400 H 126.000 C 126.100 124.400 126.000 124.300 126.000 124.400 V 126.300 C 126.000 126.355 126.045 126.400 126.100 126.400 H 132.100 C 132.155 126.400 132.200 126.355 132.200 126.300 V 124.400 C 132.200 124.300 132.100 124.400 132.200 124.400 H 138.000 C 138.100 124.400 138.000 124.300 138.000 124.400 V 126.300 C 138.000 126.355 138.045 126.400 138.100 126.400 H 144.100 C 144.155 126.400 144.200 126.355 144.200 126.300 V 124.400 C 144.200 124.300 144.100 124.400 144.200 124.400 H 150.000 C 150.100 124.400 150.000 124.300 150.000 124.400 V 126.300 C 150.000 126.355 150.045 126.400 150.100 126.400 H 156.100 C 156.155 126.400 156.200 126.355 156.200 126.300 V 124.400 C 156.200 124.300 156.100 124.400 156.200 124.400 H 162.000 C 162.100 124.400 162.000 124.300 162.000 124.400 V 126.300 C 162.000 126.355 162.045 126.400 162.100 126.400 H 168.100 C 168.155 126.400 168.200 126.355 168.200 126.300 V 124.400 C 168.200 124.300 168.100 124.400 168.200 124.400 H 174.000 C 174.100 124.400 174.000 124.300 174.000 124.400 V 126.300 C 174.000 126.355 174.045 126.400 174.100 126.400 H 180.100 C 180.155 126.400 180.200 126.355 180.200 126.300 V 124.400 C 180.200 124.300 180.100 124.400 180.200 124.400 H 186.000 C 186.100 124.400 186.000 124.300 186.000 124.400 V 126.300 C 186.000 126.355 186.045 126.400 186.100 126.400 H 192.100 C 192.155 126.400 192.200 126.355 192.200 126.300 V 124.400 C 192.200 124.300 192.100 124.400 192.200 124.400 H 198.000 C 198.100 124.400 198.000 124.300 198.000 124.400 V 126.300 C 198.000 126.355 198.045 126.400 198.100 126.400 H 204.100 C 204.155 126.400 204.200 126.355 204.200 126.300 V 124.400 C 204.200 124.300 204.100 124.400 204.200 124.400 H 210.000 C 210.100 124.400 210.000 124.300 210.000 124.400 V 126.300 C 210.000 126.355 210.045 126.400 210.100 126.400 H 216.100 C 216.155 126.400 216.200 126.355 216.200 126.300 V 124.400 C 216.200 124.300 216.100 124.400 216.200 124.400 H 222.000 C 222.100 124.400 222.000 124.300 222.000 124.400 V 126.300 C 222.000 126.355 222.045 126.400 222.100 126.400 H 228.100 C 228.155 126.400 228.200 126.355 228.200 126.300 V 124.400 C 228.200 124.300 228.100 124.400 228.200 124.400 H 234.000 C 234.100 124.400 234.000 124.300 234.000 124.400 V 126.300 C 234.000 126.355 234.045 126.400 234.100 126.400 H 240.100 C 240.155 126.400 240.200 126.355 240.200 126.300 V 124.400 C 240.200 124.300 240.100 124.400 240.200 124.400 H 246.000 C 246.100 124.400 246.000 124.300 246.000 124.400 V 126.300 C 246.000 126.355 246.045 126.400 246.100 126.400 H 252.100 C 252.155 126.400 252.200 126.355 252.200 126.300 V 124.400 C 252.200 124.300 252.100 124.400 252.200 124.400 H 258.000 C 258.100 124.400 258.000 124.300 258.000 124.400 V 126.300 C 258.000 126.355 258.045 126.400 258.100 126.400 H 264.100 C 264.155 126.400 264.200 126.355 264.200 126.300 V 124.400 C 264.200 124.300 264.100 124.400 264.200 124.400 H 270.000 C 270.100 124.400 270.000 124.300 270.000 124.400 V 126.300 C 270.000 126.355 270.045 126.400 270.100 126.400 H 276.100 C 276.155 126.400 276.200 126.355 276.200 126.300 V 124.400 C 276.200 124.300 276.100 124.400 276.200 124.400 H 282.000 C 282.100 124.400 282.000 124.300 282.000 124.400 V 126.300 C 282.000 126.355 282.045 126.400 282.100 126.400 H 294.100 H 296.100 C 296.155 126.400 296.200 126.355 296.200 126.300 V 113.300 C 296.200 113.245 296.155 113.200 296.100 113.200 H 294.200 C 294.100 113.200 294.200 113.300 294.200 113.200 V 107.400 C 294.200 107.300 294.100 107.400 294.200 107.400 H 296.100 C 296.155 107.400 296.200 107.355 296.200 107.300 V 94.300 C 296.200 94.245 296.155 94.200 296.100 94.200 H 294.100 H 12.100 H 10.100 C 10.045 94.200 10.000 94.245 10.000 94.300 V 107.300 C 10.000 107.355 10.045 107.400 10.100 107.400 H 12.000 C 12.100 107.400 12.000 107.300 12.000 107.400 V 113.200 C 12.000 113.300 12.100 113.200 12.000 113.200 H 10.100 C 10.045 113.200 10.000 113.245 10.000 113.300 V 126.300 C 10.000 126.355 10.045 126.400 10.100 126.400 H 12.100 Z" stroke="rgb(0,0,0)" stroke-width="0.20" />
</g>
<g id="p-3" style="fill:none;stroke-linecap:round;stroke-linejoin:round;">
  <path d="M 12.100 91.200 H 24.000 C 24.100 91.200 24.000 91.100 24.000 91.200 V 93.100 C 24.000 93.155 24.045 93.200 24.100 93.200 H 30.100 C 30.155 93.200 30.200 93.155 30.200 93.100 V 91.200 C 30.200 91.100 30.100 91.200 30.200 91.200 H 36.000 C 36.100 91.200 36.000 91.100 36.000 91.200 V 93.100 C 36.000 93.155 36.045 93.200 36.100 93.200 H 42.100 C 42.155 93.200 42.200 93.155 42.200 93.100 V 91.200 C 42.200 91.100 42.100 91.200 42.200 91.200 H 48.000 C 48.100 91.200 48.000 91.100 48.000 91.200 V 93.100 C 48.000 93.155 48.045 93.200 48.100 93.200 H 54.100 C 54.155 93.200 54.200 93.155 54.200 93.100 V 91.200 C 54.200 91.100 54.100 91.200 54.200 91.200 H 60.000 C 60.100 91.200 60.000 91.100 60.000 91.200 V 93.100 C 60.000 93.155 60.045 93.200 60.100 93.200 H 66.100 C 66.155 93.200 66.200 93.155 66.200 93.100 V 91.200 C 66.200 91.100 66.100 91.200 66.200 91.200 H 72.000 C 72.100 91.200 72.000 91.100 72.000 91.200 V 93.100 C 72.000 93.155 72.045 93.200 72.100 93.200 H 78.100 C 78.155 93.200 78.200 93.155 78.200 93.100 V 91.200 C 78.200 91.100 78.100 91.200 78.200 91.200 H 84.000 C 84.100 91.200 84.000 91.100 84.000 91.200 V 93.100 C 84.000 93.155 84.045 93.200 84.100 93.200 H 90.100 C 90.155 93.200 90.200 93.155 90.200 93.100 V 91.200 C 90.200 91.100 90.100 91.200 90.200 91.200 H 96.000 C 96.100 91.200 96.000 91.100 96.000 91.200 V 93.100 C 96.000 93.155 96.045 93.200 96.100 93.200 H 102.100 C 102.155 93.200 102.200 93.155 102.200 93.100 V 91.200 C 102.200 91.100 102.100 91.200 102.200 91.200 H 108.000 C 108.100 91.200 108.000 91.100 108.000 91.200 V 93.100 C 108.000 93.155 108.045 93.200 108.100 93.200 H 114.100 C 114.155 93.200 114.200 93.155 114.200 93.100 V 91.200 C 114.200 91.100 114.100 91.200 114.200 91.200 H 120.000 C 120.100 91.200 120.000 91.100 120.000 91.200 V 93.100 C 120.000 93.155 120.045 93.200 120.100 93.200 H 126.100 C 126.155 93.200 126.200 93.155 126.200 93.100 V 91.200 C 126.200 91.100 126.100 91.200 126.200 91.200 H 132.000 C 132.100 91.200 132.000 91.100 132.000 91.200 V 93.100 C 132.000 93.155 132.045 93.200 132.100 93.200 H 138.100 C 138.155 93.200 138.200 93.155 138.200 93.100 V 91.200 C 138.200 91.100 138.100 91.200 138.200 91.200 H 144.000 C 144.100 91.200 144.000 91.100 144.000 91.200 V 93.100 C 144.000 93.155 144.045 93.200 144.100 93.200 H 150.100 C 150.155 93.200 150.200 93.155 150.200 93.100 V 91.200 C 150.200 91.100 150.100 91.200 150.200 91.200 H 156.000 C 156.100 91.200 156.000 91.100 156.000 91.200 V 93.100 C 156.000 93.155 156.045 93.200 156.100 93.200 H 162.100 C 162.155 93.200 162.200 93.155 162.200 93.100 V 91.200 C 162.200 91.100 162.100 91.200 162.200 91.200 H 168.000 C 168.100 91.200 168.000 91.100 168.000 91.200 V 93.100 C 168.000 93.155 168.045 93.200 168.100 93.200 H 174.100 C 174.155 93.200 174.200 93.155 174.200 93.100 V 91.200 C 174.200 91.100 174.100 91.200 174.200 91.200 H 180.000 C 180.100 91.200 180.000 91.100 180.000 91.200 V 93.100 C 180.000 93.155 180.045 93.200 180.100 93.200 H 186.100 C 186.155 93.200 186.200 93.155 186.200 93.100 V 91.200 C 186.200 91.100 186.100 91.200 186.200 91.200 H 192.000 C 192.100 91.200 192.000 91.100 192.000 91.200 V 93.100 C 192.000 93.155 192.045 93.200 192.100 93.200 H 198.100 C 198.155 93.200 198.200 93.155 198.200 93.100 V 91.200 C 198.200 91.100 198.100 91.200 198.200 91.200 H 204.000 C 204.100 91.200 204.000 91.100 204.000 91.200 V 93.100 C 204.000 93.155 204.045 93.200 204.100 93.200 H 210.100 C 210.155 93.200 210.200 93.155 210.200 93.100 V 91.200 C 210.200 91.100 210.100 91.200 210.200 91.200 H 216.000 C 216.100 91.200 216.000 91.100 216.000 91.200 V 93.100 C 216.000 93.155 216.045 93.200 216.100 93.200 H 222.100 C 222.155 93.200 222.200 93.155 222.200 93.100 V 91.200 C 222.200 91.100 222.100 91.200 222.200 91.200 H 228.000 C 228.100 91.200 228.000 91.100 228.000 91.200 V 93.100 C 228.000 93.155 228.045 93.200 228.100 93.200 H 234.100 C 234.155 93.200 234.200 93.155 234.200 93.100 V 91.200 C 234.200 91.100 234.100 91.200 234.200 91.200 H 240.000 C 240.100 91.200 240.000 91.100 240.000 91.200 V 93.100 C 240.000 93.155 240.045 93.200 240.100 93.200 H 246.100 C 246.155 93.200 246.200 93.155 246.200 93.100 V 91.200 C 246.200 91.100 246.100 91.200 246.200 91.200 H 252.000 C 252.100 91.200 252.000 91.100 252.000 91.200 V 93.100 C 252.000 93.155 252.045 93.200 252.100 93.200 H 258.100 C 258.155 93.200 258.200 93.155 258.200 93.100 V 91.200 C 258.200 91.100 258.100 91.200 258.200 91.200 H 264.000 C 264.100 91.200 264.000 91.100 264.000 91.200 V 93.100 C 264.000 93.155 264.045 93.200 264.100 93.200 H 270.100 C 270.155 93.200 270.200 93.155 270.200 93.100 V 91.200 C 270.200 91.100 270.100 91.200 270.200 91.200 H 276.000 C 276.100 91.200 276.000 91.100 276.000 91.200 V 93.100 C 276.000 93.155 276.045 93.200 276.100 93.200 H 282.100 C 282.155 93.200 282.200 93.155 282.200 93.100 V 91.200 C 282.200 91.100 282.100 91.200 282.200 91.200 H 294.100 C 294.155 91.200 294.200 91.155 294.200 91.100 V 78.700 C 294.200 78.600 294.100 78.700 294.200 78.700 H 296.100 C 296.155 78.700 296.200 78.655 296.200 78.600 V 72.600 C 296.200 72.545 296.155 72.500 296.100 72.500 H 294.200 C 294.100 72.500 294.200 72.600 294.200 72.500 V 66.700 C 294.200 66.600 294.100 66.700 294.200 66.700 H 296.100 C 296.155 66.700 296.200 66.655 296.200 66.600 V 60.600 C 296.200 60.545 296.155 60.500 296.100 60.500 H 294.200 C 294.100 60.500 294.200 60.600 294.200 60.500 V 54.700 C 294.200 54.600 294.100 54.700 294.200 54.700 H 296.100 C 296.155 54.700 296.200 54.655 296.200 54.600 V 48.600 C 296.200 48.545 296.155 48.500 296.100 48.500 H 294.200 C 294.100 48.500 294.200 48.600 294.200 48.500 V 42.700 C 294.200 42.600 294.100 42.700 294.200 42.700 H 296.100 C 296.155 42.700 296.200 42.655 296.200 42.600 V 36.600 C 296.200 36.545 296.155 36.500 296.100 36.500 H 294.200 C 294.100 36.500 294.200 36.600 294.200 36.500 V 30.700 C 294.200 30.600 294.100 30.700 294.200 30.700 H 296.100 C 296.155 30.700 296.200 30.655 296.200 30.600 V 24.600 C 296.200 24.545 296.155 24.500 296.100 24.500 H 294.200 C 294.100 24.500 294.200 24.600 294.200 24.500 V 12.100 C 294.200 12.045 294.155 12.000 294.100 12.000 H 282.200 C 282.100 12.000 282.200 12.100 282.200 12.000 V 10.100 C 282.200 10.045 282.155 10.000 282.100 10.000 H 276.100 C 276.045 10.000 276.000 10.045 276.000 10.100 V 12.000 C 276.000 12.100 276.100 12.000 276.000 12.000 H 270.200 C 270.100 12.000 270.200 12.100 270.200 12.000 V 10.100 C 270.200 10.045 270.155 10.000 270.100 10.000 H 264.100 C 264.045 10.000 264.000 10.045 264.000 10.100 V 12.000 C 264.000 12.100 264.100 12.000 264.000 12.000 H 258.200 C 258.100 12.000 258.200 12.100 258.200 12.000 V 10.100 C 258.200 10.045 258.155 10.000 258.100 10.000 H 252.100 C 252.045 10.000 252.000 10.045 252.000 10.100 V 12.000 C 252.000 12.100 252.100 12.000 252.000 12.000 H 246.200 C 246.100 12.000 246.200 12.100 246.200 12.000 V 10.100 C 246.200 10.045 246.155 10.000 246.100 10.000 H 240.100 C 240.045 10.000 240.000 10.045 240.000 10.100 V 12.000 C 240.000 12.100 240.100 12.000 240.000 12.000 H 234.200 C 234.100 12.000 234.200 12.100 234.200 12.000 V 10.100 C 234.200 10.045 234.155 10.000 234.100 10.000 H 228.100 C 228.045 10.000 228.000 10.045 228.000 10.100 V 12.000 C 228.000 12.100 228.100 12.000 228.000 12.000 H 222.200 C 222.100 12.000 222.200 12.100 222.200 12.000 V 10.100 C 222.200 10.045 222.155 10.000 222.100 10.000 H 216.100 C 216.045 10.000 216.000 10.045 216.000 10.100 V 12.000 C 216.000 12.100 216.100 12.000 216.000 12.000 H 210.200 C 210.100 12.000 210.200 12.100 210.200 12.000 V 10.100 C 210.200 10.045 210.155 10.000 210.100 10.000 H 204.100 C 204.045 10.000 204.000 10.045 204.000 10.100 V 12.000 C 204.000 12.100 204.100 12.000 204.000 12.000 H 198.200 C 198.100 12.000 198.200 12.100 198.200 12.000 V 10.100 C 198.200 10.045 198.155 10.000 198.100 10.000 H 192.100 C 192.045 10.000 192.000 10.045 192.000 10.100 V 12.000 C 192.000 12.100 192.100 12.000 192.000 12.000 H 186.200 C 186.100 12.000 186.200 12.100 186.200 12.000 V 10.100 C 186.200 10.045 186.155 10.000 186.100 10.000 H 180.100 C 180.045 10.000 180.000 10.045 180.000 10.100 V 12.000 C 180.000 12.100 180.100 12.000 180.000 12.000 H 174.200 C 174.100 12.000 174.200 12.100 174.200 12.000 V 10.100 C 174.200 10.045 174.155 10.000 174.100 10.000 H 168.100 C 168.045 10.000 168.000 10.045 168.000 10.100 V 12.000 C 168.000 12.100 168.100 12.000 168.000 12.000 H 162.200 C 162.100 12.000 162.200 12.100 162.200 12.000 V 10.100 C 162.200 10.045 162.155 10.000 162.100 10.000 H 156.100 C 156.045 10.000 156.000 10.045 156.000 10.100 V 12.000 C 156.000 12.100 156.100 12.000 156.000 12.000 H 150.200 C 150.100 12.000 150.200 12.100 150.200 12.000 V 10.100 C 150.200 10.045 150.155 10.000 150.100 10.000 H 144.100 C 144.045 10.000 144.000 10.045 144.000 10.100 V 12.000 C 144.000 12.100 144.100 12.000 144.000 12.000 H 138.200 C 138.100 12.000 138.200 12.100 138.200 12.000 V 10.100 C 138.200 10.045 138.155 10.000 138.100 10.000 H 132.100 C 132.045 10.000 132.000 10.045 132.000 10.100 V 12.000 C 132.000 12.100 132.100 12.000 132.000 12.000 H 126.200 C 126.100 12.000 126.200 12.100 126.200 12.000 V 10.100 C 126.200 10.045 126.155 10.000 126.100 10.000 H 120.100 C 120.045 10.000 120.000 10.045 120.000 10.100 V 12.000 C 120.000 12.100 120.100 12.000 120.000 12.000 H 114.200 C 114.100 12.000 114.200 12.100 114.200 12.000 V 10.100 C 114.200 10.045 114.155 10.000 114.100 10.000 H 108.100 C 108.045 10.000 108.000 10.045 108.000 10.100 V 12.000 C 108.000 12.100 108.100 12.000 108.000 12.000 H 102.200 C 102.100 12.000 102.200 12.100 102.200 12.000 V 10.100 C 102.200 10.045 102.155 10.000 102.100 10.000 H 96.100 C 96.045 10.000 96.000 10.045 96.000 10.100 V 12.000 C 96.000 12.100 96.100 12.000 96.000 12.000 H 90.200 C 90.100 12.000 90.200 12.100 90.200 12.000 V 10.100 C 90.200 10.045 90.155 10.000 90.100 10.000 H 84.100 C 84.045 10.000 84.000 10.045 84.000 10.100 V 12.000 C 84.000 12.100 84.100 12.000 84.000 12.000 H 78.200 C 78.100 12.000 78.200 12.100 78.200 12.000 V 10.100 C 78.200 10.045 78.155 10.000 78.100 10.000 H 72.100 C 72.045 10.000 72.000 10.045 72.000 10.100 V 12.000 C 72.000 12.100 72.100 12.000 72.000 12.000 H 66.200 C 66.100 12.000 66.200 12.100 66.200 12.000 V 10.100 C 66.200 10.045 66.155 10.000 66.100 10.000 H 60.100 C 60.045 10.000 60.000 10.045 60.000 10.100 V 12.000 C 60.000 12.100 60.100 12.000 60.000 12.000 H 54.200 C 54.100 12.000 54.200 12.100 54.200 12.000 V 10.100 C 54.200 10.045 54.155 10.000 54.100 10.000 H 48.100 C 48.045 10.000 48.000 10.045 48.000 10.100 V 12.000 C 48.000 12.100 48.100 12.000 48.000 12.000 H 42.200 C 42.100 12.000 42.200 12.100 42.200 12.000 V 10.100 C 42.200 10.045 42.155 10.000 42.100 10.000 H 36.100 C 36.045 10.000 36.000 10.045 36.000 10.100 V 12.000 C 36.000 12.100 36.100 12.000 36.000 12.000 H 30.200 C 30.100 12.000 30.200 12.100 30.200 12.000 V 10.100 C 30.200 10.045 30.155 10.000 30.100 10.000 H 24.100 C 24.045 10.000 24.000 10.045 24.000 10.100 V 12.000 C 24.000 12.100 24.100 12.000 24.000 12.000 H 12.100 C 12.045 12.000 12.000 12.045 12.000 12.100 V 24.500 C 12.000 24.600 12.100 24.500 12.000 24.500 H 10.100 C 10.045 24.500 10.000 24.545 10.000 24.600 V 30.600 C 10.000 30.655 10.045 30.700 10.100 30.700 H 12.000 C 12.100 30.700 12.000 30.600 12.000 30.700 V 36.500 C 12.000 36.600 12.100 36.500 12.000 36.500 H 10.100 C 10.045 36.500 10.000 36.545 10.000 36.600 V 42.600 C 10.000 42.655 10.045 42.700 10.100 42.700 H 12.000 C 12.100 42.700 12.000 42.600 12.000 42.700 V 48.500 C 12.000 48.600 12.100 48.500 12.000 48.500 H 10.100 C 10.045 48.500 10.000 48.545 10.000 48.600 V 54.600 C 10.000 54.655 10.045 54.700 10.100 54.700 H 12.000 C 12.100 54.700 12.000 54.600 12.000 54.700 V 60.500 C 12.000 60.600 12.100 60.500 12.000 60.500 H 10.100 C 10.045 60.500 10.000 60.545 10.000 60.600 V 66.600 C 10.000 66.655 10.045 66.700 10.100 66.700 H 12.000 C 12.100 66.700 12.000 66.600 12.000 66.700 V 72.500 C 12.000 72.600 12.100 72.500 12.000 72.500 H 10.100 C 10.045 72.500 10.000 72.545 10.000 72.600 V 78.600 C 10.000 78.655 10.045 78.700 10.100 78.700 H 12.000 C 12.100 78.700 12.000 78.600 12.000 78.700 V 91.100 C 12.000 91.155 12.045 91.200 12.100 91.200 Z" stroke="rgb(0,0,0)" stroke-width="0.20" />
</g>
<g id="p-4" style="fill:none;stroke-linecap:round;stroke-linejoin:round;">
  <path d="M 299.300 159.600 H 311.800 C 311.855 159.600 311.900 159.555 311.900 159.500 V 157.600 C 311.900 157.500 311.800 157.600 311.900 157.600 H 317.700 C 317.800 157.600 317.700 157.500 317.700 157.600 V 159.500 C 317.700 159.555 317.745 159.600 317.800 159.600 H 323.800 C 323.855 159.600 323.900 159.555 323.900 159.500 V 157.600 C 323.900 157.500 323.800 157.600 323.900 157.600 H 329.700 C 329.800 157.600 329.700 157.500 329.700 157.600 V 159.500 C 329.700 159.555 329.745 159.600 329.800 159.600 H 335.800 C 335.855 159.600 335.900 159.555 335.900 159.500 V 157.600 C 335.900 157.500 335.800 157.600 335.900 157.600 H 341.700 C 341.800 157.600 341.700 157.500 341.700 157.600 V 159.500 C 341.700 159.555 341.745 159.600 341.800 159.600 H 347.800 C 347.855 159.600 347.900 159.555 347.900 159.500 V 157.600 C 347.900 157.500 347.800 157.600 347.900 157.600 H 353.700 C 353.800 157.600 353.700 157.500 353.700 157.600 V 159.500 C 353.700 159.555 353.745 159.600 353.800 159.600 H 359.800 C 359.855 159.600 359.900 159.555 359.900 159.500 V 157.600 C 359.900 157.500 359.800 157.600 359.900 157.600 H 365.700 C 365.800 157.600 365.700 157.500 365.700 157.600 V 159.500 C 365.700 159.555 365.745 159.600 365.800 159.600 H 378.300 C 378.355 159.600 378.400 159.555 378.400 159.500 V 146.600 C 378.400 146.500 378.300 146.600 378.400 146.600 H 380.300 C 380.355 146.600 380.400 146.555 380.400 146.500 V 140.500 C 380.400 140.445 380.355 140.400 380.300 140.400 H 378.400 C 378.300 140.400 378.400 140.500 378.400 140.400 V 127.500 C 378.400 127.445 378.355 127.400 378.300 127.400 H 299.300 C 299.245 127.400 299.200 127.445 299.200 127.500 V 140.400 C 299.200 140.500 299.300 140.400 299.200 140.400 H 297.300 C 297.245 140.400 297.200 140.445 297.200 140.500 V 146.500 C 297.200 146.555 297.245 146.600 297.300 146.600 H 299.200 C 299.300 146.600 299.200 146.500 299.200 146.600 V 159.500 C 299.200 159.555 299.245 159.600 299.300 159.600 Z" stroke="rgb(0,0,0)" stroke-width="0.20" />
</g>
<g id="p-5" style="fill:none;stroke-linecap:round;stroke-linejoin:round;">
  <path d="M 299.300 126.400 H 311.800 C 311.855 126.400 311.900 126.355 311.900 126.300 V 124.400 C 311.900 124.300 311.800 124.400 311.900 124.400 H 317.700 C 317.800 124.400 317.700 124.300 317.700 124.400 V 126.300 C 317.700 126.355 317.745 126.400 317.800 126.400 H 323.800 C 323.855 126.400 323.900 126.355 323.900 126.300 V 124.400 C 323.900 124.300 323.800 124.400 323.900 124.400 H 329.700 C 329.800 124.400 329.700 124.300 329.700 124.400 V 126.300 C 329.700 126.355 329.745 126.400 329.800 126.400 H 335.800 C 335.855 126.400 335.900 126.355 335.900 126.300 V 124.400 C 335.900 124.300 335.800 124.400 335.900 124.400 H 341.700 C 341.800 124.400 341.700 124.300 341.700 124.400 V 126.300 C 341.700 126.355 341.745 126.400 341.800 126.400 H 347.800 C 347.855 126.400 347.900 126.355 347.900 126.300 V 124.400 C 347.900 124.300 347.800 124.400 347.900 124.400 H 353.700 C 353.800 124.400 353.700 124.300 353.700 124.400 V 126.300 C 353.700 126.355 353.745 126.400 353.800 126.400 H 359.800 C 359.855 126.400 359.900 126.355 359.900 126.300 V 124.400 C 359.900 124.300 359.800 124.400 359.900 124.400 H 365.700 C 365.800 124.400 365.700 124.300 365.700 124.400 V 126.300 C 365.700 126.355 365.745 126.400 365.800 126.400 H 378.300 C 378.355 126.400 378.400 126.355 378.400 126.300 V 113.400 C 378.400 113.300 378.300 113.400 378.400 113.400 H 380.300 C 380.355 113.400 380.400 113.355 380.400 113.300 V 107.300 C 380.400 107.245 380.355 107.200 380.300 107.200 H 378.400 C 378.300 107.200 378.400 107.300 378.400 107.200 V 94.300 C 378.400 94.245 378.355 94.200 378.300 94.200 H 299.300 C 299.245 94.200 299.200 94.245 299.200 94.300 V 107.200 C 299.200 107.300 299.300 107.200 299.200 107.200 H 297.300 C 297.245 107.200 297.200 107.245 297.200 107.300 V 113.300 C 297.200 113.355 297.245 113.400 297.300 113.400 H 299.200 C 299.300 113.400 299.200 113.300 299.200 113.400 V 126.300 C 299.200 126.355 299.245 126.400 299.300 126.400 Z" stroke="rgb(0,0,0)" stroke-width="0.20" />
</g>
</svg>