<?xml version='1.0' encoding='utf-8'?>
<svg height="719.24mm" viewBox="0.0 0.0 378.80 719.24" width="378.80mm" xmlns="http://www.w3.org/2000/svg" xmlns:cc="http://creativecommons.org/ns#" xmlns:dc="http://purl.org/dc/elements/1.1/" xmlns:inkscape="http://www.inkscape.org/namespaces/inkscape" xmlns:rdf="http://www.w3.org/1999/02/22-rdf-syntax-ns#" xmlns:svg="http://www.w3.org/2000/svg" xmlns:xlink="http://www.w3.org/1999/xlink">
<!--
DividerTray - Divider tray - rows and dividers



Adding '0:' at the start of the sy parameter adds a slot at the very back. Adding ':0' at the end of sy adds a slot meeting the bottom at the very front. This is especially useful if slot angle is set above zero.

There are 4 different sets of dividers rendered:

* With asymmetric tabs so the tabs fit on top of each other
* With tabs of half wall thickness that can go side by side
* With tabs of a full wall thickness
* One single divider spanning across all columns

You will likely need to cut each of the dividers you want multiple times.



Created with Boxes.py (https://boxes.hackerspace-bamberg.de/)
Creation date: 2026-03-23 11:39:29
Command line (remove spaces between dashes): boxes DividerTray - -FingerJoint_surroundingspaces=3 - -FingerJoint_finger=3 - -FingerJoint_space=3 - -Slot_angle=30 - -Slot_depth=40 - -Notch_depth=25 - -sx=77 '- -sy=0:40*7:0' - -h=90 - -notches_in_wall=0 - -bottom=0 - -bottom=1 - -thickness=2 - -burn=0.2 - -reference=285 - -spacing=0.5
Url: https://boxes.hackerspace-bamberg.de/DividerTray?FingerJoint_style=rectangular&FingerJoint_surroundingspaces=3&FingerJoint_bottom_lip=0.0&FingerJoint_edge_width=1.0&FingerJoint_extra_length=0.0&FingerJoint_finger=3&FingerJoint_play=0.0&FingerJoint_space=3&FingerJoint_width=1.0&HandleEdge_height=20&HandleEdge_hole_height=75.0&HandleEdge_hole_width=40%3A40&HandleEdge_on_sides=0&HandleEdge_on_sides=1&HandleEdge_radius=10.0&HandleEdge_outset=1.0&Lid_handle=none&Lid_style=none&Lid_handle_height=8&Lid_height=4&Lid_play=0.1&Slot_angle=30&Slot_depth=40&Slot_extra_slack=0.2&Slot_radius=2&Notch_depth=25&Notch_lower_radius=8&Notch_upper_radius=1&Divider_bottom_margin=0&Divider_play=0.05&sx=77&sy=0%3A40*7%3A0&h=90&outside=0&outside=1&notches_in_wall=0&left_wall=0&left_wall=1&right_wall=0&right_wall=1&bottom=0&bottom=1&handle=0&thickness=2&burn=0.2&format=svg&labels=0&labels=1&reference=285&tabs=0.0&qr_code=0&inner_corners=loop&spacing=0.5&debug=0&language=en&render=2
Url short: https://boxes.hackerspace-bamberg.de/DividerTray?FingerJoint_surroundingspaces=3&FingerJoint_finger=3&FingerJoint_space=3&Slot_angle=30&Slot_depth=40&Notch_depth=25&sx=77&sy=0%3A40*7%3A0&h=90&notches_in_wall=0&bottom=0&bottom=1&thickness=2&burn=0.2&reference=285&spacing=0.5
SettingsUrl: https://boxes.hackerspace-bamberg.de/DividerTray?FingerJoint_style=rectangular&FingerJoint_surroundingspaces=3&FingerJoint_bottom_lip=0.0&FingerJoint_edge_width=1.0&FingerJoint_extra_length=0.0&FingerJoint_finger=3&FingerJoint_play=0.0&FingerJoint_space=3&FingerJoint_width=1.0&HandleEdge_height=20&HandleEdge_hole_height=75.0&HandleEdge_hole_width=40%3A40&HandleEdge_on_sides=0&HandleEdge_on_sides=1&HandleEdge_radius=10.0&HandleEdge_outset=1.0&Lid_handle=none&Lid_style=none&Lid_handle_height=8&Lid_height=4&Lid_play=0.1&Slot_angle=30&Slot_depth=40&Slot_extra_slack=0.2&Slot_radius=2&Notch_depth=25&Notch_lower_radius=8&Notch_upper_radius=1&Divider_bottom_margin=0&Divider_play=0.05&sx=77&sy=0%3A40*7%3A0&h=90&outside=0&outside=1&notches_in_wall=0&left_wall=0&left_wall=1&right_wall=0&right_wall=1&bottom=0&bottom=1&handle=0&thickness=2&burn=0.2&format=svg&labels=0&labels=1&reference=285&tabs=0.0&qr_code=0&inner_corners=loop&spacing=0.5&debug=0&language=en&render=2
SettingsUrl short: https://boxes.hackerspace-bamberg.de/DividerTray?FingerJoint_surroundingspaces=3&FingerJoint_finger=3&FingerJoint_space=3&Slot_angle=30&Slot_depth=40&Notch_depth=25&sx=77&sy=0%3A40*7%3A0&h=90&notches_in_wall=0&bottom=0&bottom=1&thickness=2&burn=0.2&reference=285&spacing=0.5
-->
<title>DividerTray</title>
<metadata>
<rdf:RDF><cc:Work>
<dc:title>Tray - DividerTray</dc:title>
<dc:date>2026-03-23 11:39:29</dc:date>
<dc:source>https://boxes.hackerspace-bamberg.de/DividerTray?FingerJoint_style=rectangular&amp;FingerJoint_surroundingspaces=3&amp;FingerJoint_bottom_lip=0.0&amp;FingerJoint_edge_width=1.0&amp;FingerJoint_extra_length=0.0&amp;FingerJoint_finger=3&amp;FingerJoint_play=0.0&amp;FingerJoint_space=3&amp;FingerJoint_width=1.0&amp;HandleEdge_height=20&amp;HandleEdge_hole_height=75.0&amp;HandleEdge_hole_width=40%3A40&amp;HandleEdge_on_sides=0&amp;HandleEdge_on_sides=1&amp;HandleEdge_radius=10.0&amp;HandleEdge_outset=1.0&amp;Lid_handle=none&amp;Lid_style=none&amp;Lid_handle_height=8&amp;Lid_height=4&amp;Lid_play=0.1&amp;Slot_angle=30&amp;Slot_depth=40&amp;Slot_extra_slack=0.2&amp;Slot_radius=2&amp;Notch_depth=25&amp;Notch_lower_radius=8&amp;Notch_upper_radius=1&amp;Divider_bottom_margin=0&amp;Divider_play=0.05&amp;sx=77&amp;sy=0%3A40*7%3A0&amp;h=90&amp;outside=0&amp;outside=1&amp;notches_in_wall=0&amp;left_wall=0&amp;left_wall=1&amp;right_wall=0&amp;right_wall=1&amp;bottom=0&amp;bottom=1&amp;handle=0&amp;thickness=2&amp;burn=0.2&amp;format=svg&amp;labels=0&amp;labels=1&amp;reference=285&amp;tabs=0.0&amp;qr_code=0&amp;inner_corners=loop&amp;spacing=0.5&amp;debug=0&amp;language=en&amp;render=2</dc:source>
<dc:source>https://boxes.hackerspace-bamberg.de/DividerTray?FingerJoint_surroundingspaces=3&amp;FingerJoint_finger=3&amp;FingerJoint_space=3&amp;Slot_angle=30&amp;Slot_depth=40&amp;Notch_depth=25&amp;sx=77&amp;sy=0%3A40*7%3A0&amp;h=90&amp;notches_in_wall=0&amp;bottom=0&amp;bottom=1&amp;thickness=2&amp;burn=0.2&amp;reference=285&amp;spacing=0.5</dc:source>
<dc:description>Divider tray - rows and dividers


Adding '0:' at the start of the sy parameter adds a slot at the very back. Adding ':0' at the end of sy adds a slot meeting the bottom at the very front. This is especially useful if slot angle is set above zero.

There are 4 different sets of dividers rendered:

* With asymmetric tabs so the tabs fit on top of each other
* With tabs of half wall thickness that can go side by side
* With tabs of a full wall thickness
* One single divider spanning across all columns

You will likely need to cut each of the dividers you want multiple times.


Created with Boxes.py (https://boxes.hackerspace-bamberg.de/)
Command line: boxes DividerTray --FingerJoint_style=rectangular --FingerJoint_surroundingspaces=3 --FingerJoint_bottom_lip=0.0 --FingerJoint_edge_width=1.0 --FingerJoint_extra_length=0.0 --FingerJoint_finger=3 --FingerJoint_play=0.0 --FingerJoint_space=3 --FingerJoint_width=1.0 --HandleEdge_height=20 --HandleEdge_hole_height=75.0 --HandleEdge_hole_width=40:40 --HandleEdge_on_sides=0 --HandleEdge_on_sides=1 --HandleEdge_radius=10.0 --HandleEdge_outset=1.0 --Lid_handle=none --Lid_style=none --Lid_handle_height=8 --Lid_height=4 --Lid_play=0.1 --Slot_angle=30 --Slot_depth=40 --Slot_extra_slack=0.2 --Slot_radius=2 --Notch_depth=25 --Notch_lower_radius=8 --Notch_upper_radius=1 --Divider_bottom_margin=0 --Divider_play=0.05 --sx=77 '--sy=0:40*7:0' --h=90 --outside=0 --outside=1 --notches_in_wall=0 --left_wall=0 --left_wall=1 --right_wall=0 --right_wall=1 --bottom=0 --bottom=1 --handle=0 --thickness=2 --burn=0.2 --format=svg --labels=0 --labels=1 --reference=285 --tabs=0.0 --qr_code=0 --inner_corners=loop --spacing=0.5 --debug=0
Command line short: boxes DividerTray --FingerJoint_surroundingspaces=3 --FingerJoint_finger=3 --FingerJoint_space=3 --Slot_angle=30 --Slot_depth=40 --Notch_depth=25 --sx=77 '--sy=0:40*7:0' --h=90 --notches_in_wall=0 --bottom=0 --bottom=1 --thickness=2 --burn=0.2 --reference=285 --spacing=0.5
Url: https://boxes.hackerspace-bamberg.de/DividerTray?FingerJoint_style=rectangular&amp;FingerJoint_surroundingspaces=3&amp;FingerJoint_bottom_lip=0.0&amp;FingerJoint_edge_width=1.0&amp;FingerJoint_extra_length=0.0&amp;FingerJoint_finger=3&amp;FingerJoint_play=0.0&amp;FingerJoint_space=3&amp;FingerJoint_width=1.0&amp;HandleEdge_height=20&amp;HandleEdge_hole_height=75.0&amp;HandleEdge_hole_width=40%3A40&amp;HandleEdge_on_sides=0&amp;HandleEdge_on_sides=1&amp;HandleEdge_radius=10.0&amp;HandleEdge_outset=1.0&amp;Lid_handle=none&amp;Lid_style=none&amp;Lid_handle_height=8&amp;Lid_height=4&amp;Lid_play=0.1&amp;Slot_angle=30&amp;Slot_depth=40&amp;Slot_extra_slack=0.2&amp;Slot_radius=2&amp;Notch_depth=25&amp;Notch_lower_radius=8&amp;Notch_upper_radius=1&amp;Divider_bottom_margin=0&amp;Divider_play=0.05&amp;sx=77&amp;sy=0%3A40*7%3A0&amp;h=90&amp;outside=0&amp;outside=1&amp;notches_in_wall=0&amp;left_wall=0&amp;left_wall=1&amp;right_wall=0&amp;right_wall=1&amp;bottom=0&amp;bottom=1&amp;handle=0&amp;thickness=2&amp;burn=0.2&amp;format=svg&amp;labels=0&amp;labels=1&amp;reference=285&amp;tabs=0.0&amp;qr_code=0&amp;inner_corners=loop&amp;spacing=0.5&amp;debug=0&amp;language=en&amp;render=2
Url short: https://boxes.hackerspace-bamberg.de/DividerTray?FingerJoint_surroundingspaces=3&amp;FingerJoint_finger=3&amp;FingerJoint_space=3&amp;Slot_angle=30&amp;Slot_depth=40&amp;Notch_depth=25&amp;sx=77&amp;sy=0%3A40*7%3A0&amp;h=90&amp;notches_in_wall=0&amp;bottom=0&amp;bottom=1&amp;thickness=2&amp;burn=0.2&amp;reference=285&amp;spacing=0.5
SettingsUrl: https://boxes.hackerspace-bamberg.de/DividerTray?FingerJoint_style=rectangular&amp;FingerJoint_surroundingspaces=3&amp;FingerJoint_bottom_lip=0.0&amp;FingerJoint_edge_width=1.0&amp;FingerJoint_extra_length=0.0&amp;FingerJoint_finger=3&amp;FingerJoint_play=0.0&amp;FingerJoint_space=3&amp;FingerJoint_width=1.0&amp;HandleEdge_height=20&amp;HandleEdge_hole_height=75.0&amp;HandleEdge_hole_width=40%3A40&amp;HandleEdge_on_sides=0&amp;HandleEdge_on_sides=1&amp;HandleEdge_radius=10.0&amp;HandleEdge_outset=1.0&amp;Lid_handle=none&amp;Lid_style=none&amp;Lid_handle_height=8&amp;Lid_height=4&amp;Lid_play=0.1&amp;Slot_angle=30&amp;Slot_depth=40&amp;Slot_extra_slack=0.2&amp;Slot_radius=2&amp;Notch_depth=25&amp;Notch_lower_radius=8&amp;Notch_upper_radius=1&amp;Divider_bottom_margin=0&amp;Divider_play=0.05&amp;sx=77&amp;sy=0%3A40*7%3A0&amp;h=90&amp;outside=0&amp;outside=1&amp;notches_in_wall=0&amp;left_wall=0&amp;left_wall=1&amp;right_wall=0&amp;right_wall=1&amp;bottom=0&amp;bottom=1&amp;handle=0&amp;thickness=2&amp;burn=0.2&amp;format=svg&amp;labels=0&amp;labels=1&amp;reference=285&amp;tabs=0.0&amp;qr_code=0&amp;inner_corners=loop&amp;spacing=0.5&amp;debug=0&amp;language=en&amp;render=2
SettingsUrl short: https://boxes.hackerspace-bamberg.de/DividerTray?FingerJoint_surroundingspaces=3&amp;FingerJoint_finger=3&amp;FingerJoint_space=3&amp;Slot_angle=30&amp;Slot_depth=40&amp;Notch_depth=25&amp;sx=77&amp;sy=0%3A40*7%3A0&amp;h=90&amp;notches_in_wall=0&amp;bottom=0&amp;bottom=1&amp;thickness=2&amp;burn=0.2&amp;reference=285&amp;spacing=0.5
</dc:description>
</cc:Work></rdf:RDF></metadata>
<g id="p-0" style="fill:none;stroke-linecap:round;stroke-linejoin:round;">
  <path d="M 10.200 709.236 H 295.200 V 699.236 H 10.200 V 709.236 Z" stroke="rgb(0,0,0)" stroke-width="0.40" />
  <text dominant-baseline="hanging" font-size="6px" style="font-family: sans-serif ; font-weight: normal; font-style: normal; fill: rgb(255,0,0)" text-anchor="middle" transform="matrix( 1.000 0.000 0.000 1.000 152.700 701.236 )">285.0mm, burn:0.20mm</text>
</g>
<g id="p-1" style="fill:none;stroke-linecap:round;stroke-linejoin:round;">
  <path d="M 12.200 697.836 H 21.700 C 21.810 697.836 21.900 697.746 21.900 697.636 V 695.836 C 21.900 695.636 21.700 695.836 21.900 695.836 H 27.500 C 27.700 695.836 27.500 695.636 27.500 695.836 V 697.636 C 27.500 697.746 27.590 697.836 27.700 697.836 H 33.700 C 33.810 697.836 33.900 697.746 33.900 697.636 V 695.836 C 33.900 695.636 33.700 695.836 33.900 695.836 H 39.500 C 39.700 695.836 39.500 695.636 39.500 695.836 V 697.636 C 39.500 697.746 39.590 697.836 39.700 697.836 H 45.700 C 45.810 697.836 45.900 697.746 45.900 697.636 V 695.836 C 45.900 695.636 45.700 695.836 45.900 695.836 H 51.500 C 51.700 695.836 51.500 695.636 51.500 695.836 V 697.636 C 51.500 697.746 51.590 697.836 51.700 697.836 H 57.700 C 57.810 697.836 57.900 697.746 57.900 697.636 V 695.836 C 57.900 695.636 57.700 695.836 57.900 695.836 H 63.500 C 63.700 695.836 63.500 695.636 63.500 695.836 V 697.636 C 63.500 697.746 63.590 697.836 63.700 697.836 H 69.700 C 69.810 697.836 69.900 697.746 69.900 697.636 V 695.836 C 69.900 695.636 69.700 695.836 69.900 695.836 H 75.500 C 75.700 695.836 75.500 695.636 75.500 695.836 V 697.636 C 75.500 697.746 75.590 697.836 75.700 697.836 H 85.200 H 87.200 C 87.310 697.836 87.400 697.746 87.400 697.636 V 695.636 V 684.636 C 87.400 684.525 87.310 684.436 87.200 684.436 H 85.400 C 85.200 684.436 85.400 684.636 85.400 684.436 V 678.836 C 85.400 678.636 85.200 678.836 85.400 678.836 H 87.200 C 87.310 678.836 87.400 678.746 87.400 678.636 V 672.636 C 87.400 672.525 87.310 672.436 87.200 672.436 H 85.400 C 85.200 672.436 85.400 672.636 85.400 672.436 V 666.836 C 85.400 666.636 85.200 666.836 85.400 666.836 H 87.200 C 87.310 666.836 87.400 666.746 87.400 666.636 V 660.636 C 87.400 660.525 87.310 660.436 87.200 660.436 H 85.400 C 85.200 660.436 85.400 660.636 85.400 660.436 V 654.836 C 85.400 654.636 85.200 654.836 85.400 654.836 H 87.200 C 87.310 654.836 87.400 654.746 87.400 654.636 V 648.636 C 87.400 648.525 87.310 648.436 87.200 648.436 H 85.400 C 85.200 648.436 85.400 648.636 85.400 648.436 V 642.836 C 85.400 642.636 85.200 642.836 85.400 642.836 H 87.200 C 87.310 642.836 87.400 642.746 87.400 642.636 V 636.636 C 87.400 636.525 87.310 636.436 87.200 636.436 H 85.400 C 85.200 636.436 85.400 636.636 85.400 636.436 V 630.836 C 85.400 630.636 85.200 630.836 85.400 630.836 H 87.200 C 87.310 630.836 87.400 630.746 87.400 630.636 V 624.636 C 87.400 624.525 87.310 624.436 87.200 624.436 H 85.400 C 85.200 624.436 85.400 624.636 85.400 624.436 V 618.836 C 85.400 618.636 85.200 618.836 85.400 618.836 H 87.200 C 87.310 618.836 87.400 618.746 87.400 618.636 V 607.636 C 87.400 607.525 87.310 607.436 87.200 607.436 H 85.200 H 12.200 H 10.200 C 10.090 607.436 10.000 607.525 10.000 607.636 V 618.636 C 10.000 618.746 10.090 618.836 10.200 618.836 H 12.000 C 12.200 618.836 12.000 618.636 12.000 618.836 V 624.436 C 12.000 624.636 12.200 624.436 12.000 624.436 H 10.200 C 10.090 624.436 10.000 624.525 10.000 624.636 V 630.636 C 10.000 630.746 10.090 630.836 10.200 630.836 H 12.000 C 12.200 630.836 12.000 630.636 12.000 630.836 V 636.436 C 12.000 636.636 12.200 636.436 12.000 636.436 H 10.200 C 10.090 636.436 10.000 636.525 10.000 636.636 V 642.636 C 10.000 642.746 10.090 642.836 10.200 642.836 H 12.000 C 12.200 642.836 12.000 642.636 12.000 642.836 V 648.436 C 12.000 648.636 12.200 648.436 12.000 648.436 H 10.200 C 10.090 648.436 10.000 648.525 10.000 648.636 V 654.636 C 10.000 654.746 10.090 654.836 10.200 654.836 H 12.000 C 12.200 654.836 12.000 654.636 12.000 654.836 V 660.436 C 12.000 660.636 12.200 660.436 12.000 660.436 H 10.200 C 10.090 660.436 10.000 660.525 10.000 660.636 V 666.636 C 10.000 666.746 10.090 666.836 10.200 666.836 H 12.000 C 12.200 666.836 12.000 666.636 12.000 666.836 V 672.436 C 12.000 672.636 12.200 672.436 12.000 672.436 H 10.200 C 10.090 672.436 10.000 672.525 10.000 672.636 V 678.636 C 10.000 678.746 10.090 678.836 10.200 678.836 H 12.000 C 12.200 678.836 12.000 678.636 12.000 678.836 V 684.436 C 12.000 684.636 12.200 684.436 12.000 684.436 H 10.200 C 10.090 684.436 10.000 684.525 10.000 684.636 V 695.636 V 697.636 C 10.000 697.746 10.090 697.836 10.200 697.836 H 12.200 Z" stroke="rgb(0,0,0)" stroke-width="0.40" />
  <text dominant-baseline="hanging" font-size="4px" style="font-family: sans-serif ; font-weight: normal; font-style: normal; fill: rgb(255,0,0)" text-anchor="middle" transform="matrix( 1.000 0.000 0.000 1.000 48.700 650.836 )">Back</text>
</g>
<g id="p-2" style="fill:none;stroke-linecap:round;stroke-linejoin:round;">
  <path d="M 12.200 606.436 H 21.700 C 21.810 606.436 21.900 606.346 21.900 606.236 V 604.436 C 21.900 604.236 21.700 604.436 21.900 604.436 H 27.500 C 27.700 604.436 27.500 604.236 27.500 604.436 V 606.236 C 27.500 606.346 27.590 606.436 27.700 606.436 H 33.700 C 33.810 606.436 33.900 606.346 33.900 606.236 V 604.436 C 33.900 604.236 33.700 604.436 33.900 604.436 H 39.500 C 39.700 604.436 39.500 604.236 39.500 604.436 V 606.236 C 39.500 606.346 39.590 606.436 39.700 606.436 H 45.700 C 45.810 606.436 45.900 606.346 45.900 606.236 V 604.436 C 45.900 604.236 45.700 604.436 45.900 604.436 H 51.500 C 51.700 604.436 51.500 604.236 51.500 604.436 V 606.236 C 51.500 606.346 51.590 606.436 51.700 606.436 H 57.700 C 57.810 606.436 57.900 606.346 57.900 606.236 V 604.436 C 57.900 604.236 57.700 604.436 57.900 604.436 H 63.500 C 63.700 604.436 63.500 604.236 63.500 604.436 V 606.236 C 63.500 606.346 63.590 606.436 63.700 606.436 H 69.700 C 69.810 606.436 69.900 606.346 69.900 606.236 V 604.436 C 69.900 604.236 69.700 604.436 69.900 604.436 H 75.500 C 75.700 604.436 75.500 604.236 75.500 604.436 V 606.236 C 75.500 606.346 75.590 606.436 75.700 606.436 H 85.200 H 87.200 C 87.310 606.436 87.400 606.346 87.400 606.236 V 604.236 V 593.236 C 87.400 593.125 87.310 593.036 87.200 593.036 H 85.400 C 85.200 593.036 85.400 593.236 85.400 593.036 V 587.436 C 85.400 587.236 85.200 587.436 85.400 587.436 H 87.200 C 87.310 587.436 87.400 587.346 87.400 587.236 V 581.236 C 87.400 581.125 87.310 581.036 87.200 581.036 H 85.400 C 85.200 581.036 85.400 581.236 85.400 581.036 V 575.436 C 85.400 575.236 85.200 575.436 85.400 575.436 H 87.200 C 87.310 575.436 87.400 575.346 87.400 575.236 V 569.236 C 87.400 569.125 87.310 569.036 87.200 569.036 H 85.400 C 85.200 569.036 85.400 569.236 85.400 569.036 V 563.436 C 85.400 563.236 85.200 563.436 85.400 563.436 H 87.200 C 87.310 563.436 87.400 563.346 87.400 563.236 V 557.236 C 87.400 557.125 87.310 557.036 87.200 557.036 H 85.400 C 85.200 557.036 85.400 557.236 85.400 557.036 V 551.436 C 85.400 551.236 85.200 551.436 85.400 551.436 H 87.200 C 87.310 551.436 87.400 551.346 87.400 551.236 V 545.236 C 87.400 545.125 87.310 545.036 87.200 545.036 H 85.400 C 85.200 545.036 85.400 545.236 85.400 545.036 V 539.436 C 85.400 539.236 85.200 539.436 85.400 539.436 H 87.200 C 87.310 539.436 87.400 539.346 87.400 539.236 V 533.236 C 87.400 533.125 87.310 533.036 87.200 533.036 H 85.400 C 85.200 533.036 85.400 533.236 85.400 533.036 V 527.436 C 85.400 527.236 85.200 527.436 85.400 527.436 H 87.200 C 87.310 527.436 87.400 527.346 87.400 527.236 V 516.236 C 87.400 516.125 87.310 516.036 87.200 516.036 H 85.200 H 12.200 H 10.200 C 10.090 516.036 10.000 516.125 10.000 516.236 V 527.236 C 10.000 527.346 10.090 527.436 10.200 527.436 H 12.000 C 12.200 527.436 12.000 527.236 12.000 527.436 V 533.036 C 12.000 533.236 12.200 533.036 12.000 533.036 H 10.200 C 10.090 533.036 10.000 533.125 10.000 533.236 V 539.236 C 10.000 539.346 10.090 539.436 10.200 539.436 H 12.000 C 12.200 539.436 12.000 539.236 12.000 539.436 V 545.036 C 12.000 545.236 12.200 545.036 12.000 545.036 H 10.200 C 10.090 545.036 10.000 545.125 10.000 545.236 V 551.236 C 10.000 551.346 10.090 551.436 10.200 551.436 H 12.000 C 12.200 551.436 12.000 551.236 12.000 551.436 V 557.036 C 12.000 557.236 12.200 557.036 12.000 557.036 H 10.200 C 10.090 557.036 10.000 557.125 10.000 557.236 V 563.236 C 10.000 563.346 10.090 563.436 10.200 563.436 H 12.000 C 12.200 563.436 12.000 563.236 12.000 563.436 V 569.036 C 12.000 569.236 12.200 569.036 12.000 569.036 H 10.200 C 10.090 569.036 10.000 569.125 10.000 569.236 V 575.236 C 10.000 575.346 10.090 575.436 10.200 575.436 H 12.000 C 12.200 575.436 12.000 575.236 12.000 575.436 V 581.036 C 12.000 581.236 12.200 581.036 12.000 581.036 H 10.200 C 10.090 581.036 10.000 581.125 10.000 581.236 V 587.236 C 10.000 587.346 10.090 587.436 10.200 587.436 H 12.000 C 12.200 587.436 12.000 587.236 12.000 587.436 V 593.036 C 12.000 593.236 12.200 593.036 12.000 593.036 H 10.200 C 10.090 593.036 10.000 593.125 10.000 593.236 V 604.236 V 606.236 C 10.000 606.346 10.090 606.436 10.200 606.436 H 12.200 Z" stroke="rgb(0,0,0)" stroke-width="0.40" />
  <text dominant-baseline="hanging" font-size="4px" style="font-family: sans-serif ; font-weight: normal; font-style: normal; fill: rgb(255,0,0)" text-anchor="middle" transform="matrix( 1.000 0.000 0.000 1.000 48.700 559.436 )">Front</text>
</g>
<g id="p-3" style="fill:none;stroke-linecap:round;stroke-linejoin:round;">
  <path d="M 12.200 515.036 H 21.200 C 21.310 515.036 21.400 514.946 21.400 514.836 V 513.036 C 21.400 512.836 21.200 513.036 21.400 513.036 H 27.000 C 27.200 513.036 27.000 512.836 27.000 513.036 V 514.836 C 27.000 514.946 27.090 515.036 27.200 515.036 H 33.200 C 33.310 515.036 33.400 514.946 33.400 514.836 V 513.036 C 33.400 512.836 33.200 513.036 33.400 513.036 H 39.000 C 39.200 513.036 39.000 512.836 39.000 513.036 V 514.836 C 39.000 514.946 39.090 515.036 39.200 515.036 H 45.200 C 45.310 515.036 45.400 514.946 45.400 514.836 V 513.036 C 45.400 512.836 45.200 513.036 45.400 513.036 H 51.000 C 51.200 513.036 51.000 512.836 51.000 513.036 V 514.836 C 51.000 514.946 51.090 515.036 51.200 515.036 H 57.200 C 57.310 515.036 57.400 514.946 57.400 514.836 V 513.036 C 57.400 512.836 57.200 513.036 57.400 513.036 H 63.000 C 63.200 513.036 63.000 512.836 63.000 513.036 V 514.836 C 63.000 514.946 63.090 515.036 63.200 515.036 H 69.200 C 69.310 515.036 69.400 514.946 69.400 514.836 V 513.036 C 69.400 512.836 69.200 513.036 69.400 513.036 H 75.000 C 75.200 513.036 75.000 512.836 75.000 513.036 V 514.836 C 75.000 514.946 75.090 515.036 75.200 515.036 H 81.200 C 81.310 515.036 81.400 514.946 81.400 514.836 V 513.036 C 81.400 512.836 81.200 513.036 81.400 513.036 H 87.000 C 87.200 513.036 87.000 512.836 87.000 513.036 V 514.836 C 87.000 514.946 87.090 515.036 87.200 515.036 H 93.200 C 93.310 515.036 93.400 514.946 93.400 514.836 V 513.036 C 93.400 512.836 93.200 513.036 93.400 513.036 H 99.000 C 99.200 513.036 99.000 512.836 99.000 513.036 V 514.836 C 99.000 514.946 99.090 515.036 99.200 515.036 H 105.200 C 105.310 515.036 105.400 514.946 105.400 514.836 V 513.036 C 105.400 512.836 105.200 513.036 105.400 513.036 H 111.000 C 111.200 513.036 111.000 512.836 111.000 513.036 V 514.836 C 111.000 514.946 111.090 515.036 111.200 515.036 H 117.200 C 117.310 515.036 117.400 514.946 117.400 514.836 V 513.036 C 117.400 512.836 117.200 513.036 117.400 513.036 H 123.000 C 123.200 513.036 123.000 512.836 123.000 513.036 V 514.836 C 123.000 514.946 123.090 515.036 123.200 515.036 H 129.200 C 129.310 515.036 129.400 514.946 129.400 514.836 V 513.036 C 129.400 512.836 129.200 513.036 129.400 513.036 H 135.000 C 135.200 513.036 135.000 512.836 135.000 513.036 V 514.836 C 135.000 514.946 135.090 515.036 135.200 515.036 H 141.200 C 141.310 515.036 141.400 514.946 141.400 514.836 V 513.036 C 141.400 512.836 141.200 513.036 141.400 513.036 H 147.000 C 147.200 513.036 147.000 512.836 147.000 513.036 V 514.836 C 147.000 514.946 147.090 515.036 147.200 515.036 H 153.200 C 153.310 515.036 153.400 514.946 153.400 514.836 V 513.036 C 153.400 512.836 153.200 513.036 153.400 513.036 H 159.000 C 159.200 513.036 159.000 512.836 159.000 513.036 V 514.836 C 159.000 514.946 159.090 515.036 159.200 515.036 H 165.200 C 165.310 515.036 165.400 514.946 165.400 514.836 V 513.036 C 165.400 512.836 165.200 513.036 165.400 513.036 H 171.000 C 171.200 513.036 171.000 512.836 171.000 513.036 V 514.836 C 171.000 514.946 171.090 515.036 171.200 515.036 H 177.200 C 177.310 515.036 177.400 514.946 177.400 514.836 V 513.036 C 177.400 512.836 177.200 513.036 177.400 513.036 H 183.000 C 183.200 513.036 183.000 512.836 183.000 513.036 V 514.836 C 183.000 514.946 183.090 515.036 183.200 515.036 H 189.200 C 189.310 515.036 189.400 514.946 189.400 514.836 V 513.036 C 189.400 512.836 189.200 513.036 189.400 513.036 H 195.000 C 195.200 513.036 195.000 512.836 195.000 513.036 V 514.836 C 195.000 514.946 195.090 515.036 195.200 515.036 H 201.200 C 201.310 515.036 201.400 514.946 201.400 514.836 V 513.036 C 201.400 512.836 201.200 513.036 201.400 513.036 H 207.000 C 207.200 513.036 207.000 512.836 207.000 513.036 V 514.836 C 207.000 514.946 207.090 515.036 207.200 515.036 H 213.200 C 213.310 515.036 213.400 514.946 213.400 514.836 V 513.036 C 213.400 512.836 213.200 513.036 213.400 513.036 H 219.000 C 219.200 513.036 219.000 512.836 219.000 513.036 V 514.836 C 219.000 514.946 219.090 515.036 219.200 515.036 H 225.200 C 225.310 515.036 225.400 514.946 225.400 514.836 V 513.036 C 225.400 512.836 225.200 513.036 225.400 513.036 H 231.000 C 231.200 513.036 231.000 512.836 231.000 513.036 V 514.836 C 231.000 514.946 231.090 515.036 231.200 515.036 H 237.200 C 237.310 515.036 237.400 514.946 237.400 514.836 V 513.036 C 237.400 512.836 237.200 513.036 237.400 513.036 H 243.000 C 243.200 513.036 243.000 512.836 243.000 513.036 V 514.836 C 243.000 514.946 243.090 515.036 243.200 515.036 H 249.200 C 249.310 515.036 249.400 514.946 249.400 514.836 V 513.036 C 249.400 512.836 249.200 513.036 249.400 513.036 H 255.000 C 255.200 513.036 255.000 512.836 255.000 513.036 V 514.836 C 255.000 514.946 255.090 515.036 255.200 515.036 H 261.200 C 261.310 515.036 261.400 514.946 261.400 514.836 V 513.036 C 261.400 512.836 261.200 513.036 261.400 513.036 H 267.000 C 267.200 513.036 267.000 512.836 267.000 513.036 V 514.836 C 267.000 514.946 267.090 515.036 267.200 515.036 H 273.200 C 273.310 515.036 273.400 514.946 273.400 514.836 V 513.036 C 273.400 512.836 273.200 513.036 273.400 513.036 H 279.000 C 279.200 513.036 279.000 512.836 279.000 513.036 V 514.836 C 279.000 514.946 279.090 515.036 279.200 515.036 H 288.200 C 288.310 515.036 288.400 514.946 288.400 514.836 V 512.836 V 502.036 C 288.400 501.836 288.200 502.036 288.400 502.036 H 290.200 C 290.310 502.036 290.400 501.946 290.400 501.836 V 495.836 C 290.400 495.725 290.310 495.636 290.200 495.636 H 288.400 C 288.200 495.636 288.400 495.836 288.400 495.636 V 490.036 C 288.400 489.836 288.200 490.036 288.400 490.036 H 290.200 C 290.310 490.036 290.400 489.946 290.400 489.836 V 483.836 C 290.400 483.725 290.310 483.636 290.200 483.636 H 288.400 C 288.200 483.636 288.400 483.836 288.400 483.636 V 478.036 C 288.400 477.836 288.200 478.036 288.400 478.036 H 290.200 C 290.310 478.036 290.400 477.946 290.400 477.836 V 471.836 C 290.400 471.725 290.310 471.636 290.200 471.636 H 288.400 C 288.200 471.636 288.400 471.836 288.400 471.636 V 466.036 C 288.400 465.836 288.200 466.036 288.400 466.036 H 290.200 C 290.310 466.036 290.400 465.946 290.400 465.836 V 459.836 C 290.400 459.725 290.310 459.636 290.200 459.636 H 288.400 C 288.200 459.636 288.400 459.836 288.400 459.636 V 454.036 C 288.400 453.836 288.200 454.036 288.400 454.036 H 290.200 C 290.310 454.036 290.400 453.946 290.400 453.836 V 447.836 C 290.400 447.725 290.310 447.636 290.200 447.636 H 288.400 C 288.200 447.636 288.400 447.836 288.400 447.636 V 442.036 C 288.400 441.836 288.200 442.036 288.400 442.036 H 290.200 C 290.310 442.036 290.400 441.946 290.400 441.836 V 435.836 C 290.400 435.725 290.310 435.636 290.200 435.636 H 288.400 C 288.200 435.636 288.400 435.836 288.400 435.636 V 424.836 C 288.400 424.725 288.310 424.636 288.200 424.636 C 288.129 424.636 288.063 424.674 288.027 424.736 L 267.492 460.304 C 267.392 460.477 267.665 460.404 267.492 460.304 L 265.933 459.404 C 265.760 459.304 265.833 459.577 265.933 459.404 L 284.101 427.936 C 284.294 427.601 284.396 427.222 284.396 426.836 C 284.396 426.450 284.294 426.070 284.101 425.736 C 283.908 425.401 283.630 425.124 283.296 424.931 C 282.961 424.737 282.582 424.636 282.196 424.636 H 257.547 C 257.161 424.636 256.782 424.737 256.447 424.931 C 256.113 425.124 255.835 425.401 255.642 425.736 L 235.684 460.304 C 235.584 460.477 235.857 460.404 235.684 460.304 L 234.125 459.404 C 233.952 459.304 234.025 459.577 234.125 459.404 L 252.293 427.936 C 252.486 427.601 252.588 427.222 252.588 426.836 C 252.588 426.450 252.486 426.070 252.293 425.736 C 252.100 425.401 251.822 425.124 251.488 424.931 C 251.154 424.737 250.774 424.636 250.388 424.636 H 225.740 C 225.353 424.636 224.974 424.737 224.640 424.931 C 224.305 425.124 224.027 425.401 223.834 425.736 L 203.877 460.304 C 203.777 460.477 204.050 460.404 203.877 460.304 L 202.318 459.404 C 202.145 459.304 202.218 459.577 202.318 459.404 L 220.486 427.936 C 220.679 427.601 220.780 427.222 220.780 426.836 C 220.780 426.450 220.679 426.070 220.486 425.736 C 220.293 425.401 220.015 425.124 219.680 424.931 C 219.346 424.737 218.967 424.636 218.580 424.636 H 193.932 C 193.546 424.636 193.166 424.737 192.832 424.931 C 192.498 425.124 192.220 425.401 192.027 425.736 L 172.069 460.304 C 171.969 460.477 172.242 460.404 172.069 460.304 L 170.510 459.404 C 170.337 459.304 170.410 459.577 170.510 459.404 L 188.678 427.936 C 188.871 427.601 188.973 427.222 188.973 426.836 C 188.973 426.450 188.871 426.070 188.678 425.736 C 188.485 425.401 188.207 425.124 187.873 424.931 C 187.538 424.737 187.159 424.636 186.773 424.636 H 162.125 C 161.738 424.636 161.359 424.737 161.025 424.931 C 160.690 425.124 160.412 425.401 160.219 425.736 L 140.262 460.304 C 140.162 460.477 140.435 460.404 140.262 460.304 L 138.703 459.404 C 138.529 459.304 138.603 459.577 138.703 459.404 L 156.871 427.936 C 157.064 427.601 157.165 427.222 157.165 426.836 C 157.165 426.450 157.064 426.070 156.871 425.736 C 156.678 425.401 156.400 425.124 156.065 424.931 C 155.731 424.737 155.352 424.636 154.965 424.636 H 130.317 C 129.931 424.636 129.551 424.737 129.217 424.931 C 128.883 425.124 128.605 425.401 128.412 425.736 L 108.454 460.304 C 108.354 460.477 108.627 460.404 108.454 460.304 L 106.895 459.404 C 106.722 459.304 106.795 459.577 106.895 459.404 L 125.063 427.936 C 125.256 427.601 125.358 427.222 125.358 426.836 C 125.358 426.450 125.256 426.070 125.063 425.736 C 124.870 425.401 124.592 425.124 124.258 424.931 C 123.923 424.737 123.544 424.636 123.158 424.636 H 98.509 C 98.123 424.636 97.744 424.737 97.409 424.931 C 97.075 425.124 96.797 425.401 96.604 425.736 L 76.646 460.304 C 76.546 460.477 76.820 460.404 76.646 460.304 L 75.088 459.404 C 74.914 459.304 74.988 459.577 75.088 459.404 L 93.256 427.936 C 93.449 427.601 93.550 427.222 93.550 426.836 C 93.550 426.450 93.449 426.070 93.256 425.736 C 93.062 425.401 92.785 425.124 92.450 424.931 C 92.116 424.737 91.736 424.636 91.350 424.636 H 66.702 C 66.316 424.636 65.936 424.737 65.602 424.931 C 65.267 425.124 64.990 425.401 64.797 425.736 L 44.839 460.304 C 44.739 460.477 45.012 460.404 44.839 460.304 L 43.280 459.404 C 43.107 459.304 43.180 459.577 43.280 459.404 L 61.448 427.936 C 61.641 427.601 61.743 427.222 61.743 426.836 C 61.743 426.450 61.641 426.070 61.448 425.736 C 61.255 425.401 60.977 425.124 60.643 424.931 C 60.308 424.737 59.929 424.636 59.543 424.636 H 12.200 C 12.090 424.636 12.000 424.725 12.000 424.836 V 435.636 C 12.000 435.836 12.200 435.636 12.000 435.636 H 10.200 C 10.090 435.636 10.000 435.725 10.000 435.836 V 441.836 C 10.000 441.946 10.090 442.036 10.200 442.036 H 12.000 C 12.200 442.036 12.000 441.836 12.000 442.036 V 447.636 C 12.000 447.836 12.200 447.636 12.000 447.636 H 10.200 C 10.090 447.636 10.000 447.725 10.000 447.836 V 453.836 C 10.000 453.946 10.090 454.036 10.200 454.036 H 12.000 C 12.200 454.036 12.000 453.836 12.000 454.036 V 459.636 C 12.000 459.836 12.200 459.636 12.000 459.636 H 10.200 C 10.090 459.636 10.000 459.725 10.000 459.836 V 465.836 C 10.000 465.946 10.090 466.036 10.200 466.036 H 12.000 C 12.200 466.036 12.000 465.836 12.000 466.036 V 471.636 C 12.000 471.836 12.200 471.636 12.000 471.636 H 10.200 C 10.090 471.636 10.000 471.725 10.000 471.836 V 477.836 C 10.000 477.946 10.090 478.036 10.200 478.036 H 12.000 C 12.200 478.036 12.000 477.836 12.000 478.036 V 483.636 C 12.000 483.836 12.200 483.636 12.000 483.636 H 10.200 C 10.090 483.636 10.000 483.725 10.000 483.836 V 489.836 C 10.000 489.946 10.090 490.036 10.200 490.036 H 12.000 C 12.200 490.036 12.000 489.836 12.000 490.036 V 495.636 C 12.000 495.836 12.200 495.636 12.000 495.636 H 10.200 C 10.090 495.636 10.000 495.725 10.000 495.836 V 501.836 C 10.000 501.946 10.090 502.036 10.200 502.036 H 12.000 C 12.200 502.036 12.000 501.836 12.000 502.036 V 512.836 V 514.836 C 12.000 514.946 12.090 515.036 12.200 515.036 Z" stroke="rgb(0,0,0)" stroke-width="0.40" />
  <text dominant-baseline="hanging" font-size="4px" style="font-family: sans-serif ; font-weight: normal; font-style: normal; fill: rgb(255,0,0)" text-anchor="middle" transform="matrix( 1.000 0.000 0.000 1.000 150.200 468.036 )">Sidepiece 1</text>
</g>
<g id="p-4" style="fill:none;stroke-linecap:round;stroke-linejoin:round;">
  <path d="M 12.200 423.636 H 21.200 C 21.310 423.636 21.400 423.546 21.400 423.436 V 421.636 C 21.400 421.436 21.200 421.636 21.400 421.636 H 27.000 C 27.200 421.636 27.000 421.436 27.000 421.636 V 423.436 C 27.000 423.546 27.090 423.636 27.200 423.636 H 33.200 C 33.310 423.636 33.400 423.546 33.400 423.436 V 421.636 C 33.400 421.436 33.200 421.636 33.400 421.636 H 39.000 C 39.200 421.636 39.000 421.436 39.000 421.636 V 423.436 C 39.000 423.546 39.090 423.636 39.200 423.636 H 45.200 C 45.310 423.636 45.400 423.546 45.400 423.436 V 421.636 C 45.400 421.436 45.200 421.636 45.400 421.636 H 51.000 C 51.200 421.636 51.000 421.436 51.000 421.636 V 423.436 C 51.000 423.546 51.090 423.636 51.200 423.636 H 57.200 C 57.310 423.636 57.400 423.546 57.400 423.436 V 421.636 C 57.400 421.436 57.200 421.636 57.400 421.636 H 63.000 C 63.200 421.636 63.000 421.436 63.000 421.636 V 423.436 C 63.000 423.546 63.090 423.636 63.200 423.636 H 69.200 C 69.310 423.636 69.400 423.546 69.400 423.436 V 421.636 C 69.400 421.436 69.200 421.636 69.400 421.636 H 75.000 C 75.200 421.636 75.000 421.436 75.000 421.636 V 423.436 C 75.000 423.546 75.090 423.636 75.200 423.636 H 81.200 C 81.310 423.636 81.400 423.546 81.400 423.436 V 421.636 C 81.400 421.436 81.200 421.636 81.400 421.636 H 87.000 C 87.200 421.636 87.000 421.436 87.000 421.636 V 423.436 C 87.000 423.546 87.090 423.636 87.200 423.636 H 93.200 C 93.310 423.636 93.400 423.546 93.400 423.436 V 421.636 C 93.400 421.436 93.200 421.636 93.400 421.636 H 99.000 C 99.200 421.636 99.000 421.436 99.000 421.636 V 423.436 C 99.000 423.546 99.090 423.636 99.200 423.636 H 105.200 C 105.310 423.636 105.400 423.546 105.400 423.436 V 421.636 C 105.400 421.436 105.200 421.636 105.400 421.636 H 111.000 C 111.200 421.636 111.000 421.436 111.000 421.636 V 423.436 C 111.000 423.546 111.090 423.636 111.200 423.636 H 117.200 C 117.310 423.636 117.400 423.546 117.400 423.436 V 421.636 C 117.400 421.436 117.200 421.636 117.400 421.636 H 123.000 C 123.200 421.636 123.000 421.436 123.000 421.636 V 423.436 C 123.000 423.546 123.090 423.636 123.200 423.636 H 129.200 C 129.310 423.636 129.400 423.546 129.400 423.436 V 421.636 C 129.400 421.436 129.200 421.636 129.400 421.636 H 135.000 C 135.200 421.636 135.000 421.436 135.000 421.636 V 423.436 C 135.000 423.546 135.090 423.636 135.200 423.636 H 141.200 C 141.310 423.636 141.400 423.546 141.400 423.436 V 421.636 C 141.400 421.436 141.200 421.636 141.400 421.636 H 147.000 C 147.200 421.636 147.000 421.436 147.000 421.636 V 423.436 C 147.000 423.546 147.090 423.636 147.200 423.636 H 153.200 C 153.310 423.636 153.400 423.546 153.400 423.436 V 421.636 C 153.400 421.436 153.200 421.636 153.400 421.636 H 159.000 C 159.200 421.636 159.000 421.436 159.000 421.636 V 423.436 C 159.000 423.546 159.090 423.636 159.200 423.636 H 165.200 C 165.310 423.636 165.400 423.546 165.400 423.436 V 421.636 C 165.400 421.436 165.200 421.636 165.400 421.636 H 171.000 C 171.200 421.636 171.000 421.436 171.000 421.636 V 423.436 C 171.000 423.546 171.090 423.636 171.200 423.636 H 177.200 C 177.310 423.636 177.400 423.546 177.400 423.436 V 421.636 C 177.400 421.436 177.200 421.636 177.400 421.636 H 183.000 C 183.200 421.636 183.000 421.436 183.000 421.636 V 423.436 C 183.000 423.546 183.090 423.636 183.200 423.636 H 189.200 C 189.310 423.636 189.400 423.546 189.400 423.436 V 421.636 C 189.400 421.436 189.200 421.636 189.400 421.636 H 195.000 C 195.200 421.636 195.000 421.436 195.000 421.636 V 423.436 C 195.000 423.546 195.090 423.636 195.200 423.636 H 201.200 C 201.310 423.636 201.400 423.546 201.400 423.436 V 421.636 C 201.400 421.436 201.200 421.636 201.400 421.636 H 207.000 C 207.200 421.636 207.000 421.436 207.000 421.636 V 423.436 C 207.000 423.546 207.090 423.636 207.200 423.636 H 213.200 C 213.310 423.636 213.400 423.546 213.400 423.436 V 421.636 C 213.400 421.436 213.200 421.636 213.400 421.636 H 219.000 C 219.200 421.636 219.000 421.436 219.000 421.636 V 423.436 C 219.000 423.546 219.090 423.636 219.200 423.636 H 225.200 C 225.310 423.636 225.400 423.546 225.400 423.436 V 421.636 C 225.400 421.436 225.200 421.636 225.400 421.636 H 231.000 C 231.200 421.636 231.000 421.436 231.000 421.636 V 423.436 C 231.000 423.546 231.090 423.636 231.200 423.636 H 237.200 C 237.310 423.636 237.400 423.546 237.400 423.436 V 421.636 C 237.400 421.436 237.200 421.636 237.400 421.636 H 243.000 C 243.200 421.636 243.000 421.436 243.000 421.636 V 423.436 C 243.000 423.546 243.090 423.636 243.200 423.636 H 249.200 C 249.310 423.636 249.400 423.546 249.400 423.436 V 421.636 C 249.400 421.436 249.200 421.636 249.400 421.636 H 255.000 C 255.200 421.636 255.000 421.436 255.000 421.636 V 423.436 C 255.000 423.546 255.090 423.636 255.200 423.636 H 261.200 C 261.310 423.636 261.400 423.546 261.400 423.436 V 421.636 C 261.400 421.436 261.200 421.636 261.400 421.636 H 267.000 C 267.200 421.636 267.000 421.436 267.000 421.636 V 423.436 C 267.000 423.546 267.090 423.636 267.200 423.636 H 273.200 C 273.310 423.636 273.400 423.546 273.400 423.436 V 421.636 C 273.400 421.436 273.200 421.636 273.400 421.636 H 279.000 C 279.200 421.636 279.000 421.436 279.000 421.636 V 423.436 C 279.000 423.546 279.090 423.636 279.200 423.636 H 288.200 C 288.310 423.636 288.400 423.546 288.400 423.436 V 421.436 V 410.636 C 288.400 410.436 288.200 410.636 288.400 410.636 H 290.200 C 290.310 410.636 290.400 410.546 290.400 410.436 V 404.436 C 290.400 404.325 290.310 404.236 290.200 404.236 H 288.400 C 288.200 404.236 288.400 404.436 288.400 404.236 V 398.636 C 288.400 398.436 288.200 398.636 288.400 398.636 H 290.200 C 290.310 398.636 290.400 398.546 290.400 398.436 V 392.436 C 290.400 392.325 290.310 392.236 290.200 392.236 H 288.400 C 288.200 392.236 288.400 392.436 288.400 392.236 V 386.636 C 288.400 386.436 288.200 386.636 288.400 386.636 H 290.200 C 290.310 386.636 290.400 386.546 290.400 386.436 V 380.436 C 290.400 380.325 290.310 380.236 290.200 380.236 H 288.400 C 288.200 380.236 288.400 380.436 288.400 380.236 V 374.636 C 288.400 374.436 288.200 374.636 288.400 374.636 H 290.200 C 290.310 374.636 290.400 374.546 290.400 374.436 V 368.436 C 290.400 368.325 290.310 368.236 290.200 368.236 H 288.400 C 288.200 368.236 288.400 368.436 288.400 368.236 V 362.636 C 288.400 362.436 288.200 362.636 288.400 362.636 H 290.200 C 290.310 362.636 290.400 362.546 290.400 362.436 V 356.436 C 290.400 356.325 290.310 356.236 290.200 356.236 H 288.400 C 288.200 356.236 288.400 356.436 288.400 356.236 V 350.636 C 288.400 350.436 288.200 350.636 288.400 350.636 H 290.200 C 290.310 350.636 290.400 350.546 290.400 350.436 V 344.436 C 290.400 344.325 290.310 344.236 290.200 344.236 H 288.400 C 288.200 344.236 288.400 344.436 288.400 344.236 V 333.436 C 288.400 333.325 288.310 333.236 288.200 333.236 C 288.129 333.236 288.063 333.274 288.027 333.336 L 267.492 368.904 C 267.392 369.077 267.665 369.004 267.492 368.904 L 265.933 368.004 C 265.760 367.904 265.833 368.177 265.933 368.004 L 284.101 336.536 C 284.294 336.201 284.396 335.822 284.396 335.436 C 284.396 335.050 284.294 334.670 284.101 334.336 C 283.908 334.001 283.630 333.724 283.296 333.531 C 282.961 333.337 282.582 333.236 282.196 333.236 H 257.547 C 257.161 333.236 256.782 333.337 256.447 333.531 C 256.113 333.724 255.835 334.001 255.642 334.336 L 235.684 368.904 C 235.584 369.077 235.857 369.004 235.684 368.904 L 234.125 368.004 C 233.952 367.904 234.025 368.177 234.125 368.004 L 252.293 336.536 C 252.486 336.201 252.588 335.822 252.588 335.436 C 252.588 335.050 252.486 334.670 252.293 334.336 C 252.100 334.001 251.822 333.724 251.488 333.531 C 251.154 333.337 250.774 333.236 250.388 333.236 H 225.740 C 225.353 333.236 224.974 333.337 224.640 333.531 C 224.305 333.724 224.027 334.001 223.834 334.336 L 203.877 368.904 C 203.777 369.077 204.050 369.004 203.877 368.904 L 202.318 368.004 C 202.145 367.904 202.218 368.177 202.318 368.004 L 220.486 336.536 C 220.679 336.201 220.780 335.822 220.780 335.436 C 220.780 335.050 220.679 334.670 220.486 334.336 C 220.293 334.001 220.015 333.724 219.680 333.531 C 219.346 333.337 218.967 333.236 218.580 333.236 H 193.932 C 193.546 333.236 193.166 333.337 192.832 333.531 C 192.498 333.724 192.220 334.001 192.027 334.336 L 172.069 368.904 C 171.969 369.077 172.242 369.004 172.069 368.904 L 170.510 368.004 C 170.337 367.904 170.410 368.177 170.510 368.004 L 188.678 336.536 C 188.871 336.201 188.973 335.822 188.973 335.436 C 188.973 335.050 188.871 334.670 188.678 334.336 C 188.485 334.001 188.207 333.724 187.873 333.531 C 187.538 333.337 187.159 333.236 186.773 333.236 H 162.125 C 161.738 333.236 161.359 333.337 161.025 333.531 C 160.690 333.724 160.412 334.001 160.219 334.336 L 140.262 368.904 C 140.162 369.077 140.435 369.004 140.262 368.904 L 138.703 368.004 C 138.529 367.904 138.603 368.177 138.703 368.004 L 156.871 336.536 C 157.064 336.201 157.165 335.822 157.165 335.436 C 157.165 335.050 157.064 334.670 156.871 334.336 C 156.678 334.001 156.400 333.724 156.065 333.531 C 155.731 333.337 155.352 333.236 154.965 333.236 H 130.317 C 129.931 333.236 129.551 333.337 129.217 333.531 C 128.883 333.724 128.605 334.001 128.412 334.336 L 108.454 368.904 C 108.354 369.077 108.627 369.004 108.454 368.904 L 106.895 368.004 C 106.722 367.904 106.795 368.177 106.895 368.004 L 125.063 336.536 C 125.256 336.201 125.358 335.822 125.358 335.436 C 125.358 335.050 125.256 334.670 125.063 334.336 C 124.870 334.001 124.592 333.724 124.258 333.531 C 123.923 333.337 123.544 333.236 123.158 333.236 H 98.509 C 98.123 333.236 97.744 333.337 97.409 333.531 C 97.075 333.724 96.797 334.001 96.604 334.336 L 76.646 368.904 C 76.546 369.077 76.820 369.004 76.646 368.904 L 75.088 368.004 C 74.914 367.904 74.988 368.177 75.088 368.004 L 93.256 336.536 C 93.449 336.201 93.550 335.822 93.550 335.436 C 93.550 335.050 93.449 334.670 93.256 334.336 C 93.062 334.001 92.785 333.724 92.450 333.531 C 92.116 333.337 91.736 333.236 91.350 333.236 H 66.702 C 66.316 333.236 65.936 333.337 65.602 333.531 C 65.267 333.724 64.990 334.001 64.797 334.336 L 44.839 368.904 C 44.739 369.077 45.012 369.004 44.839 368.904 L 43.280 368.004 C 43.107 367.904 43.180 368.177 43.280 368.004 L 61.448 336.536 C 61.641 336.201 61.743 335.822 61.743 335.436 C 61.743 335.050 61.641 334.670 61.448 334.336 C 61.255 334.001 60.977 333.724 60.643 333.531 C 60.308 333.337 59.929 333.236 59.543 333.236 H 12.200 C 12.090 333.236 12.000 333.325 12.000 333.436 V 344.236 C 12.000 344.436 12.200 344.236 12.000 344.236 H 10.200 C 10.090 344.236 10.000 344.325 10.000 344.436 V 350.436 C 10.000 350.546 10.090 350.636 10.200 350.636 H 12.000 C 12.200 350.636 12.000 350.436 12.000 350.636 V 356.236 C 12.000 356.436 12.200 356.236 12.000 356.236 H 10.200 C 10.090 356.236 10.000 356.325 10.000 356.436 V 362.436 C 10.000 362.546 10.090 362.636 10.200 362.636 H 12.000 C 12.200 362.636 12.000 362.436 12.000 362.636 V 368.236 C 12.000 368.436 12.200 368.236 12.000 368.236 H 10.200 C 10.090 368.236 10.000 368.325 10.000 368.436 V 374.436 C 10.000 374.546 10.090 374.636 10.200 374.636 H 12.000 C 12.200 374.636 12.000 374.436 12.000 374.636 V 380.236 C 12.000 380.436 12.200 380.236 12.000 380.236 H 10.200 C 10.090 380.236 10.000 380.325 10.000 380.436 V 386.436 C 10.000 386.546 10.090 386.636 10.200 386.636 H 12.000 C 12.200 386.636 12.000 386.436 12.000 386.636 V 392.236 C 12.000 392.436 12.200 392.236 12.000 392.236 H 10.200 C 10.090 392.236 10.000 392.325 10.000 392.436 V 398.436 C 10.000 398.546 10.090 398.636 10.200 398.636 H 12.000 C 12.200 398.636 12.000 398.436 12.000 398.636 V 404.236 C 12.000 404.436 12.200 404.236 12.000 404.236 H 10.200 C 10.090 404.236 10.000 404.325 10.000 404.436 V 410.436 C 10.000 410.546 10.090 410.636 10.200 410.636 H 12.000 C 12.200 410.636 12.000 410.436 12.000 410.636 V 421.436 V 423.436 C 12.000 423.546 12.090 423.636 12.200 423.636 Z" stroke="rgb(0,0,0)" stroke-width="0.40" />
  <text dominant-baseline="hanging" font-size="4px" style="font-family: sans-serif ; font-weight: normal; font-style: normal; fill: rgb(255,0,0)" text-anchor="middle" transform="matrix( 1.000 0.000 0.000 1.000 150.200 376.636 )">Sidepiece 2</text>
</g>
<g id="p-5" style="fill:none;stroke-linecap:round;stroke-linejoin:round;">
  <path d="M 293.600 695.836 H 302.900 C 303.100 695.836 302.900 695.636 302.900 695.836 V 697.636 C 302.900 697.746 302.990 697.836 303.100 697.836 H 309.100 C 309.210 697.836 309.300 697.746 309.300 697.636 V 695.836 C 309.300 695.636 309.100 695.836 309.300 695.836 H 314.900 C 315.100 695.836 314.900 695.636 314.900 695.836 V 697.636 C 314.900 697.746 314.990 697.836 315.100 697.836 H 321.100 C 321.210 697.836 321.300 697.746 321.300 697.636 V 695.836 C 321.300 695.636 321.100 695.836 321.300 695.836 H 326.900 C 327.100 695.836 326.900 695.636 326.900 695.836 V 697.636 C 326.900 697.746 326.990 697.836 327.100 697.836 H 333.100 C 333.210 697.836 333.300 697.746 333.300 697.636 V 695.836 C 333.300 695.636 333.100 695.836 333.300 695.836 H 338.900 C 339.100 695.836 338.900 695.636 338.900 695.836 V 697.636 C 338.900 697.746 338.990 697.836 339.100 697.836 H 345.100 C 345.210 697.836 345.300 697.746 345.300 697.636 V 695.836 C 345.300 695.636 345.100 695.836 345.300 695.836 H 350.900 C 351.100 695.836 350.900 695.636 350.900 695.836 V 697.636 C 350.900 697.746 350.990 697.836 351.100 697.836 H 357.100 C 357.210 697.836 357.300 697.746 357.300 697.636 V 695.836 C 357.300 695.636 357.100 695.836 357.300 695.836 H 366.600 C 366.710 695.836 366.800 695.746 366.800 695.636 V 686.836 C 366.800 686.636 366.600 686.836 366.800 686.836 H 368.600 C 368.710 686.836 368.800 686.746 368.800 686.636 V 680.636 C 368.800 680.525 368.710 680.436 368.600 680.436 H 366.800 C 366.600 680.436 366.800 680.636 366.800 680.436 V 674.836 C 366.800 674.636 366.600 674.836 366.800 674.836 H 368.600 C 368.710 674.836 368.800 674.746 368.800 674.636 V 668.636 C 368.800 668.525 368.710 668.436 368.600 668.436 H 366.800 C 366.600 668.436 366.800 668.636 366.800 668.436 V 662.836 C 366.800 662.636 366.600 662.836 366.800 662.836 H 368.600 C 368.710 662.836 368.800 662.746 368.800 662.636 V 656.636 C 368.800 656.525 368.710 656.436 368.600 656.436 H 366.800 C 366.600 656.436 366.800 656.636 366.800 656.436 V 650.836 C 366.800 650.636 366.600 650.836 366.800 650.836 H 368.600 C 368.710 650.836 368.800 650.746 368.800 650.636 V 644.636 C 368.800 644.525 368.710 644.436 368.600 644.436 H 366.800 C 366.600 644.436 366.800 644.636 366.800 644.436 V 638.836 C 366.800 638.636 366.600 638.836 366.800 638.836 H 368.600 C 368.710 638.836 368.800 638.746 368.800 638.636 V 632.636 C 368.800 632.525 368.710 632.436 368.600 632.436 H 366.800 C 366.600 632.436 366.800 632.636 366.800 632.436 V 626.836 C 366.800 626.636 366.600 626.836 366.800 626.836 H 368.600 C 368.710 626.836 368.800 626.746 368.800 626.636 V 620.636 C 368.800 620.525 368.710 620.436 368.600 620.436 H 366.800 C 366.600 620.436 366.800 620.636 366.800 620.436 V 614.836 C 366.800 614.636 366.600 614.836 366.800 614.836 H 368.600 C 368.710 614.836 368.800 614.746 368.800 614.636 V 608.636 C 368.800 608.525 368.710 608.436 368.600 608.436 H 366.800 C 366.600 608.436 366.800 608.636 366.800 608.436 V 602.836 C 366.800 602.636 366.600 602.836 366.800 602.836 H 368.600 C 368.710 602.836 368.800 602.746 368.800 602.636 V 596.636 C 368.800 596.525 368.710 596.436 368.600 596.436 H 366.800 C 366.600 596.436 366.800 596.636 366.800 596.436 V 590.836 C 366.800 590.636 366.600 590.836 366.800 590.836 H 368.600 C 368.710 590.836 368.800 590.746 368.800 590.636 V 584.636 C 368.800 584.525 368.710 584.436 368.600 584.436 H 366.800 C 366.600 584.436 366.800 584.636 366.800 584.436 V 578.836 C 366.800 578.636 366.600 578.836 366.800 578.836 H 368.600 C 368.710 578.836 368.800 578.746 368.800 578.636 V 572.636 C 368.800 572.525 368.710 572.436 368.600 572.436 H 366.800 C 366.600 572.436 366.800 572.636 366.800 572.436 V 566.836 C 366.800 566.636 366.600 566.836 366.800 566.836 H 368.600 C 368.710 566.836 368.800 566.746 368.800 566.636 V 560.636 C 368.800 560.525 368.710 560.436 368.600 560.436 H 366.800 C 366.600 560.436 366.800 560.636 366.800 560.436 V 554.836 C 366.800 554.636 366.600 554.836 366.800 554.836 H 368.600 C 368.710 554.836 368.800 554.746 368.800 554.636 V 548.636 C 368.800 548.525 368.710 548.436 368.600 548.436 H 366.800 C 366.600 548.436 366.800 548.636 366.800 548.436 V 542.836 C 366.800 542.636 366.600 542.836 366.800 542.836 H 368.600 C 368.710 542.836 368.800 542.746 368.800 542.636 V 536.636 C 368.800 536.525 368.710 536.436 368.600 536.436 H 366.800 C 366.600 536.436 366.800 536.636 366.800 536.436 V 530.836 C 366.800 530.636 366.600 530.836 366.800 530.836 H 368.600 C 368.710 530.836 368.800 530.746 368.800 530.636 V 524.636 C 368.800 524.525 368.710 524.436 368.600 524.436 H 366.800 C 366.600 524.436 366.800 524.636 366.800 524.436 V 518.836 C 366.800 518.636 366.600 518.836 366.800 518.836 H 368.600 C 368.710 518.836 368.800 518.746 368.800 518.636 V 512.636 C 368.800 512.525 368.710 512.436 368.600 512.436 H 366.800 C 366.600 512.436 366.800 512.636 366.800 512.436 V 506.836 C 366.800 506.636 366.600 506.836 366.800 506.836 H 368.600 C 368.710 506.836 368.800 506.746 368.800 506.636 V 500.636 C 368.800 500.525 368.710 500.436 368.600 500.436 H 366.800 C 366.600 500.436 366.800 500.636 366.800 500.436 V 494.836 C 366.800 494.636 366.600 494.836 366.800 494.836 H 368.600 C 368.710 494.836 368.800 494.746 368.800 494.636 V 488.636 C 368.800 488.525 368.710 488.436 368.600 488.436 H 366.800 C 366.600 488.436 366.800 488.636 366.800 488.436 V 482.836 C 366.800 482.636 366.600 482.836 366.800 482.836 H 368.600 C 368.710 482.836 368.800 482.746 368.800 482.636 V 476.636 C 368.800 476.525 368.710 476.436 368.600 476.436 H 366.800 C 366.600 476.436 366.800 476.636 366.800 476.436 V 470.836 C 366.800 470.636 366.600 470.836 366.800 470.836 H 368.600 C 368.710 470.836 368.800 470.746 368.800 470.636 V 464.636 C 368.800 464.525 368.710 464.436 368.600 464.436 H 366.800 C 366.600 464.436 366.800 464.636 366.800 464.436 V 458.836 C 366.800 458.636 366.600 458.836 366.800 458.836 H 368.600 C 368.710 458.836 368.800 458.746 368.800 458.636 V 452.636 C 368.800 452.525 368.710 452.436 368.600 452.436 H 366.800 C 366.600 452.436 366.800 452.636 366.800 452.436 V 446.836 C 366.800 446.636 366.600 446.836 366.800 446.836 H 368.600 C 368.710 446.836 368.800 446.746 368.800 446.636 V 440.636 C 368.800 440.525 368.710 440.436 368.600 440.436 H 366.800 C 366.600 440.436 366.800 440.636 366.800 440.436 V 434.836 C 366.800 434.636 366.600 434.836 366.800 434.836 H 368.600 C 368.710 434.836 368.800 434.746 368.800 434.636 V 428.636 C 368.800 428.525 368.710 428.436 368.600 428.436 H 366.800 C 366.600 428.436 366.800 428.636 366.800 428.436 V 419.636 C 366.800 419.525 366.710 419.436 366.600 419.436 H 357.300 C 357.100 419.436 357.300 419.636 357.300 419.436 V 417.636 C 357.300 417.525 357.210 417.436 357.100 417.436 H 351.100 C 350.990 417.436 350.900 417.525 350.900 417.636 V 419.436 C 350.900 419.636 351.100 419.436 350.900 419.436 H 345.300 C 345.100 419.436 345.300 419.636 345.300 419.436 V 417.636 C 345.300 417.525 345.210 417.436 345.100 417.436 H 339.100 C 338.990 417.436 338.900 417.525 338.900 417.636 V 419.436 C 338.900 419.636 339.100 419.436 338.900 419.436 H 333.300 C 333.100 419.436 333.300 419.636 333.300 419.436 V 417.636 C 333.300 417.525 333.210 417.436 333.100 417.436 H 327.100 C 326.990 417.436 326.900 417.525 326.900 417.636 V 419.436 C 326.900 419.636 327.100 419.436 326.900 419.436 H 321.300 C 321.100 419.436 321.300 419.636 321.300 419.436 V 417.636 C 321.300 417.525 321.210 417.436 321.100 417.436 H 315.100 C 314.990 417.436 314.900 417.525 314.900 417.636 V 419.436 C 314.900 419.636 315.100 419.436 314.900 419.436 H 309.300 C 309.100 419.436 309.300 419.636 309.300 419.436 V 417.636 C 309.300 417.525 309.210 417.436 309.100 417.436 H 303.100 C 302.990 417.436 302.900 417.525 302.900 417.636 V 419.436 C 302.900 419.636 303.100 419.436 302.900 419.436 H 293.600 C 293.490 419.436 293.400 419.525 293.400 419.636 V 428.436 C 293.400 428.636 293.600 428.436 293.400 428.436 H 291.600 C 291.490 428.436 291.400 428.525 291.400 428.636 V 434.636 C 291.400 434.746 291.490 434.836 291.600 434.836 H 293.400 C 293.600 434.836 293.400 434.636 293.400 434.836 V 440.436 C 293.400 440.636 293.600 440.436 293.400 440.436 H 291.600 C 291.490 440.436 291.400 440.525 291.400 440.636 V 446.636 C 291.400 446.746 291.490 446.836 291.600 446.836 H 293.400 C 293.600 446.836 293.400 446.636 293.400 446.836 V 452.436 C 293.400 452.636 293.600 452.436 293.400 452.436 H 291.600 C 291.490 452.436 291.400 452.525 291.400 452.636 V 458.636 C 291.400 458.746 291.490 458.836 291.600 458.836 H 293.400 C 293.600 458.836 293.400 458.636 293.400 458.836 V 464.436 C 293.400 464.636 293.600 464.436 293.400 464.436 H 291.600 C 291.490 464.436 291.400 464.525 291.400 464.636 V 470.636 C 291.400 470.746 291.490 470.836 291.600 470.836 H 293.400 C 293.600 470.836 293.400 470.636 293.400 470.836 V 476.436 C 293.400 476.636 293.600 476.436 293.400 476.436 H 291.600 C 291.490 476.436 291.400 476.525 291.400 476.636 V 482.636 C 291.400 482.746 291.490 482.836 291.600 482.836 H 293.400 C 293.600 482.836 293.400 482.636 293.400 482.836 V 488.436 C 293.400 488.636 293.600 488.436 293.400 488.436 H 291.600 C 291.490 488.436 291.400 488.525 291.400 488.636 V 494.636 C 291.400 494.746 291.490 494.836 291.600 494.836 H 293.400 C 293.600 494.836 293.400 494.636 293.400 494.836 V 500.436 C 293.400 500.636 293.600 500.436 293.400 500.436 H 291.600 C 291.490 500.436 291.400 500.525 291.400 500.636 V 506.636 C 291.400 506.746 291.490 506.836 291.600 506.836 H 293.400 C 293.600 506.836 293.400 506.636 293.400 506.836 V 512.436 C 293.400 512.636 293.600 512.436 293.400 512.436 H 291.600 C 291.490 512.436 291.400 512.525 291.400 512.636 V 518.636 C 291.400 518.746 291.490 518.836 291.600 518.836 H 293.400 C 293.600 518.836 293.400 518.636 293.400 518.836 V 524.436 C 293.400 524.636 293.600 524.436 293.400 524.436 H 291.600 C 291.490 524.436 291.400 524.525 291.400 524.636 V 530.636 C 291.400 530.746 291.490 530.836 291.600 530.836 H 293.400 C 293.600 530.836 293.400 530.636 293.400 530.836 V 536.436 C 293.400 536.636 293.600 536.436 293.400 536.436 H 291.600 C 291.490 536.436 291.400 536.525 291.400 536.636 V 542.636 C 291.400 542.746 291.490 542.836 291.600 542.836 H 293.400 C 293.600 542.836 293.400 542.636 293.400 542.836 V 548.436 C 293.400 548.636 293.600 548.436 293.400 548.436 H 291.600 C 291.490 548.436 291.400 548.525 291.400 548.636 V 554.636 C 291.400 554.746 291.490 554.836 291.600 554.836 H 293.400 C 293.600 554.836 293.400 554.636 293.400 554.836 V 560.436 C 293.400 560.636 293.600 560.436 293.400 560.436 H 291.600 C 291.490 560.436 291.400 560.525 291.400 560.636 V 566.636 C 291.400 566.746 291.490 566.836 291.600 566.836 H 293.400 C 293.600 566.836 293.400 566.636 293.400 566.836 V 572.436 C 293.400 572.636 293.600 572.436 293.400 572.436 H 291.600 C 291.490 572.436 291.400 572.525 291.400 572.636 V 578.636 C 291.400 578.746 291.490 578.836 291.600 578.836 H 293.400 C 293.600 578.836 293.400 578.636 293.400 578.836 V 584.436 C 293.400 584.636 293.600 584.436 293.400 584.436 H 291.600 C 291.490 584.436 291.400 584.525 291.400 584.636 V 590.636 C 291.400 590.746 291.490 590.836 291.600 590.836 H 293.400 C 293.600 590.836 293.400 590.636 293.400 590.836 V 596.436 C 293.400 596.636 293.600 596.436 293.400 596.436 H 291.600 C 291.490 596.436 291.400 596.525 291.400 596.636 V 602.636 C 291.400 602.746 291.490 602.836 291.600 602.836 H 293.400 C 293.600 602.836 293.400 602.636 293.400 602.836 V 608.436 C 293.400 608.636 293.600 608.436 293.400 608.436 H 291.600 C 291.490 608.436 291.400 608.525 291.400 608.636 V 614.636 C 291.400 614.746 291.490 614.836 291.600 614.836 H 293.400 C 293.600 614.836 293.400 614.636 293.400 614.836 V 620.436 C 293.400 620.636 293.600 620.436 293.400 620.436 H 291.600 C 291.490 620.436 291.400 620.525 291.400 620.636 V 626.636 C 291.400 626.746 291.490 626.836 291.600 626.836 H 293.400 C 293.600 626.836 293.400 626.636 293.400 626.836 V 632.436 C 293.400 632.636 293.600 632.436 293.400 632.436 H 291.600 C 291.490 632.436 291.400 632.525 291.400 632.636 V 638.636 C 291.400 638.746 291.490 638.836 291.600 638.836 H 293.400 C 293.600 638.836 293.400 638.636 293.400 638.836 V 644.436 C 293.400 644.636 293.600 644.436 293.400 644.436 H 291.600 C 291.490 644.436 291.400 644.525 291.400 644.636 V 650.636 C 291.400 650.746 291.490 650.836 291.600 650.836 H 293.400 C 293.600 650.836 293.400 650.636 293.400 650.836 V 656.436 C 293.400 656.636 293.600 656.436 293.400 656.436 H 291.600 C 291.490 656.436 291.400 656.525 291.400 656.636 V 662.636 C 291.400 662.746 291.490 662.836 291.600 662.836 H 293.400 C 293.600 662.836 293.400 662.636 293.400 662.836 V 668.436 C 293.400 668.636 293.600 668.436 293.400 668.436 H 291.600 C 291.490 668.436 291.400 668.525 291.400 668.636 V 674.636 C 291.400 674.746 291.490 674.836 291.600 674.836 H 293.400 C 293.600 674.836 293.400 674.636 293.400 674.836 V 680.436 C 293.400 680.636 293.600 680.436 293.400 680.436 H 291.600 C 291.490 680.436 291.400 680.525 291.400 680.636 V 686.636 C 291.400 686.746 291.490 686.836 291.600 686.836 H 293.400 C 293.600 686.836 293.400 686.636 293.400 686.836 V 695.636 C 293.400 695.746 293.490 695.836 293.600 695.836 Z" stroke="rgb(0,0,0)" stroke-width="0.40" />
  <text dominant-baseline="hanging" font-size="4px" style="font-family: sans-serif ; font-weight: normal; font-style: normal; fill: rgb(255,0,0)" text-anchor="middle" transform="matrix( 1.000 0.000 0.000 1.000 330.100 555.836 )">Bottom</text>
</g>
<g id="p-6" style="fill:none;stroke-linecap:round;stroke-linejoin:round;">
  <path d="M 291.600 416.436 H 293.550 H 311.883 C 312.094 416.436 312.301 416.380 312.483 416.275 C 312.666 416.170 312.817 416.018 312.923 415.836 C 313.028 415.653 313.083 415.446 313.083 415.236 V 399.236 C 313.083 397.867 313.444 396.522 314.128 395.336 C 314.813 394.150 315.798 393.165 316.983 392.481 C 318.169 391.796 319.514 391.436 320.883 391.436 H 339.217 C 340.586 391.436 341.931 391.796 343.117 392.481 C 344.302 393.165 345.287 394.150 345.972 395.336 C 346.656 396.522 347.017 397.867 347.017 399.236 V 415.236 C 347.017 415.446 347.072 415.653 347.177 415.836 C 347.283 416.018 347.434 416.170 347.617 416.275 C 347.799 416.380 348.006 416.436 348.217 416.436 H 366.550 H 368.500 C 368.610 416.436 368.700 416.346 368.700 416.236 V 376.236 C 368.700 376.125 368.610 376.036 368.500 376.036 H 366.700 C 366.500 376.036 366.700 376.236 366.700 376.036 V 315.777 C 366.700 315.666 366.610 315.577 366.500 315.577 H 293.600 C 293.490 315.577 293.400 315.666 293.400 315.777 V 376.036 C 293.400 376.236 293.600 376.036 293.400 376.036 H 291.600 C 291.490 376.036 291.400 376.125 291.400 376.236 V 416.236 C 291.400 416.346 291.490 416.436 291.600 416.436 Z" stroke="rgb(0,0,0)" stroke-width="0.40" />
  <text dominant-baseline="hanging" font-size="4px" style="font-family: sans-serif ; font-weight: normal; font-style: normal; fill: rgb(255,0,0)" text-anchor="middle" transform="matrix( 1.000 0.000 0.000 1.000 330.100 364.206 )">Divider</text>
</g>
<g id="p-7" style="fill:none;stroke-linecap:round;stroke-linejoin:round;">
  <path d="M 291.600 314.577 H 293.550 H 311.883 C 312.094 314.577 312.301 314.521 312.483 314.416 C 312.666 314.311 312.817 314.159 312.923 313.977 C 313.028 313.794 313.083 313.587 313.083 313.377 V 297.377 C 313.083 296.008 313.444 294.663 314.128 293.477 C 314.813 292.291 315.798 291.306 316.983 290.622 C 318.169 289.937 319.514 289.577 320.883 289.577 H 339.217 C 340.586 289.577 341.931 289.937 343.117 290.622 C 344.302 291.306 345.287 292.291 345.972 293.477 C 346.656 294.663 347.017 296.008 347.017 297.377 V 313.377 C 347.017 313.587 347.072 313.794 347.177 313.977 C 347.283 314.159 347.434 314.311 347.617 314.416 C 347.799 314.521 348.006 314.577 348.217 314.577 H 366.550 H 368.500 C 368.610 314.577 368.700 314.487 368.700 314.377 V 274.377 C 368.700 274.266 368.610 274.177 368.500 274.177 H 366.700 C 366.500 274.177 366.700 274.377 366.700 274.177 V 213.918 C 366.700 213.807 366.610 213.718 366.500 213.718 H 293.600 C 293.490 213.718 293.400 213.807 293.400 213.918 V 274.177 C 293.400 274.377 293.600 274.177 293.400 274.177 H 291.600 C 291.490 274.177 291.400 274.266 291.400 274.377 V 314.377 C 291.400 314.487 291.490 314.577 291.600 314.577 Z" stroke="rgb(0,0,0)" stroke-width="0.40" />
  <text dominant-baseline="hanging" font-size="4px" style="font-family: sans-serif ; font-weight: normal; font-style: normal; fill: rgb(255,0,0)" text-anchor="middle" transform="matrix( 1.000 0.000 0.000 1.000 330.100 262.347 )">Divider</text>
</g>
<g id="p-8" style="fill:none;stroke-linecap:round;stroke-linejoin:round;">
  <path d="M 291.600 212.718 H 292.550 H 310.883 C 311.094 212.718 311.301 212.662 311.483 212.557 C 311.666 212.452 311.817 212.300 311.923 212.118 C 312.028 211.935 312.083 211.729 312.083 211.518 V 195.518 C 312.083 194.149 312.444 192.804 313.128 191.618 C 313.813 190.432 314.798 189.447 315.983 188.763 C 317.169 188.078 318.514 187.718 319.883 187.718 H 338.217 C 339.586 187.718 340.931 188.078 342.117 188.763 C 343.302 189.447 344.287 190.432 344.972 191.618 C 345.656 192.804 346.017 194.149 346.017 195.518 V 211.518 C 346.017 211.729 346.072 211.935 346.177 212.118 C 346.283 212.300 346.434 212.452 346.617 212.557 C 346.799 212.662 347.006 212.718 347.217 212.718 H 365.550 H 366.500 C 366.610 212.718 366.700 212.628 366.700 212.518 V 172.518 C 366.700 172.407 366.610 172.318 366.500 172.318 H 365.700 C 365.500 172.318 365.700 172.518 365.700 172.318 V 112.059 C 365.700 111.948 365.610 111.859 365.500 111.859 H 292.600 C 292.490 111.859 292.400 111.948 292.400 112.059 V 172.318 C 292.400 172.518 292.600 172.318 292.400 172.318 H 291.600 C 291.490 172.318 291.400 172.407 291.400 172.518 V 212.518 C 291.400 212.628 291.490 212.718 291.600 212.718 Z" stroke="rgb(0,0,0)" stroke-width="0.40" />
  <text dominant-baseline="hanging" font-size="4px" style="font-family: sans-serif ; font-weight: normal; font-style: normal; fill: rgb(255,0,0)" text-anchor="middle" transform="matrix( 1.000 0.000 0.000 1.000 329.100 160.488 )">Divider</text>
</g>
<g id="p-9" style="fill:none;stroke-linecap:round;stroke-linejoin:round;">
  <path d="M 293.550 110.859 H 311.883 C 312.094 110.859 312.301 110.803 312.483 110.698 C 312.666 110.593 312.817 110.441 312.923 110.259 C 313.028 110.077 313.083 109.870 313.083 109.659 V 93.659 C 313.083 92.290 313.444 90.945 314.128 89.759 C 314.813 88.573 315.798 87.589 316.983 86.904 C 318.169 86.219 319.514 85.859 320.883 85.859 H 339.217 C 340.586 85.859 341.931 86.219 343.117 86.904 C 344.302 87.589 345.287 88.573 345.972 89.759 C 346.656 90.945 347.017 92.290 347.017 93.659 V 109.659 C 347.017 109.870 347.072 110.077 347.177 110.259 C 347.283 110.441 347.434 110.593 347.617 110.698 C 347.799 110.803 348.006 110.859 348.217 110.859 H 366.550 H 368.500 C 368.610 110.859 368.700 110.769 368.700 110.659 V 90.709 C 368.700 90.598 368.610 90.509 368.500 90.509 H 366.700 C 366.500 90.509 366.700 90.709 366.700 90.509 V 10.200 C 366.700 10.090 366.610 10.000 366.500 10.000 H 293.600 C 293.490 10.000 293.400 10.090 293.400 10.200 V 70.459 C 293.400 70.659 293.600 70.459 293.400 70.459 H 291.600 C 291.490 70.459 291.400 70.548 291.400 70.659 V 90.659 C 291.400 90.769 291.490 90.859 291.600 90.859 H 293.350 C 293.550 90.859 293.350 90.659 293.350 90.859 V 110.659 C 293.350 110.769 293.440 110.859 293.550 110.859 Z" stroke="rgb(0,0,0)" stroke-width="0.40" />
  <text dominant-baseline="hanging" font-size="4px" style="font-family: sans-serif ; font-weight: normal; font-style: normal; fill: rgb(255,0,0)" text-anchor="middle" transform="matrix( 1.000 0.000 0.000 1.000 330.100 58.629 )">Divider</text>
</g>
</svg>