<?xml version='1.0' encoding='utf-8'?>
<svg height="673.05mm" viewBox="0.0 0.0 378.80 673.05" width="378.80mm" xmlns="http://www.w3.org/2000/svg" xmlns:cc="http://creativecommons.org/ns#" xmlns:dc="http://purl.org/dc/elements/1.1/" xmlns:inkscape="http://www.inkscape.org/namespaces/inkscape" xmlns:rdf="http://www.w3.org/1999/02/22-rdf-syntax-ns#" xmlns:svg="http://www.w3.org/2000/svg" xmlns:xlink="http://www.w3.org/1999/xlink">
<!--
DividerTray - Divider tray - rows and dividers



Adding '0:' at the start of the sy parameter adds a slot at the very back. Adding ':0' at the end of sy adds a slot meeting the bottom at the very front. This is especially useful if slot angle is set above zero.

There are 4 different sets of dividers rendered:

* With asymmetric tabs so the tabs fit on top of each other
* With tabs of half wall thickness that can go side by side
* With tabs of a full wall thickness
* One single divider spanning across all columns

You will likely need to cut each of the dividers you want multiple times.



Created with Boxes.py (https://boxes.hackerspace-bamberg.de/)
Creation date: 2026-03-22 23:50:07
Command line (remove spaces between dashes): boxes DividerTray - -Slot_angle=30 - -Slot_depth=40 - -Notch_depth=25 - -sx=77 '- -sy=0:40*7:0' - -h=80 - -notches_in_wall=0 - -bottom=0 - -bottom=1 - -thickness=2 - -burn=0.2 - -reference=285 - -spacing=0.5
Url: https://boxes.hackerspace-bamberg.de/DividerTray?FingerJoint_style=rectangular&FingerJoint_surroundingspaces=2.0&FingerJoint_bottom_lip=0.0&FingerJoint_edge_width=1.0&FingerJoint_extra_length=0.0&FingerJoint_finger=2.0&FingerJoint_play=0.0&FingerJoint_space=2.0&FingerJoint_width=1.0&HandleEdge_height=20&HandleEdge_hole_height=75.0&HandleEdge_hole_width=40%3A40&HandleEdge_on_sides=0&HandleEdge_on_sides=1&HandleEdge_radius=10.0&HandleEdge_outset=1.0&Lid_handle=none&Lid_style=none&Lid_handle_height=8&Lid_height=4&Lid_play=0.1&Slot_angle=30&Slot_depth=40&Slot_extra_slack=0.2&Slot_radius=2&Notch_depth=25&Notch_lower_radius=8&Notch_upper_radius=1&Divider_bottom_margin=0&Divider_play=0.05&sx=77&sy=0%3A40*7%3A0&h=80&outside=0&outside=1&notches_in_wall=0&left_wall=0&left_wall=1&right_wall=0&right_wall=1&bottom=0&bottom=1&handle=0&thickness=2&burn=0.2&format=svg&labels=0&labels=1&reference=285&tabs=0.0&qr_code=0&inner_corners=loop&spacing=0.5&debug=0&language=en&render=2
Url short: https://boxes.hackerspace-bamberg.de/DividerTray?Slot_angle=30&Slot_depth=40&Notch_depth=25&sx=77&sy=0%3A40*7%3A0&h=80&notches_in_wall=0&bottom=0&bottom=1&thickness=2&burn=0.2&reference=285&spacing=0.5
SettingsUrl: https://boxes.hackerspace-bamberg.de/DividerTray?FingerJoint_style=rectangular&FingerJoint_surroundingspaces=2.0&FingerJoint_bottom_lip=0.0&FingerJoint_edge_width=1.0&FingerJoint_extra_length=0.0&FingerJoint_finger=2.0&FingerJoint_play=0.0&FingerJoint_space=2.0&FingerJoint_width=1.0&HandleEdge_height=20&HandleEdge_hole_height=75.0&HandleEdge_hole_width=40%3A40&HandleEdge_on_sides=0&HandleEdge_on_sides=1&HandleEdge_radius=10.0&HandleEdge_outset=1.0&Lid_handle=none&Lid_style=none&Lid_handle_height=8&Lid_height=4&Lid_play=0.1&Slot_angle=30&Slot_depth=40&Slot_extra_slack=0.2&Slot_radius=2&Notch_depth=25&Notch_lower_radius=8&Notch_upper_radius=1&Divider_bottom_margin=0&Divider_play=0.05&sx=77&sy=0%3A40*7%3A0&h=80&outside=0&outside=1&notches_in_wall=0&left_wall=0&left_wall=1&right_wall=0&right_wall=1&bottom=0&bottom=1&handle=0&thickness=2&burn=0.2&format=svg&labels=0&labels=1&reference=285&tabs=0.0&qr_code=0&inner_corners=loop&spacing=0.5&debug=0&language=en&render=2
SettingsUrl short: https://boxes.hackerspace-bamberg.de/DividerTray?Slot_angle=30&Slot_depth=40&Notch_depth=25&sx=77&sy=0%3A40*7%3A0&h=80&notches_in_wall=0&bottom=0&bottom=1&thickness=2&burn=0.2&reference=285&spacing=0.5
-->
<title>DividerTray</title>
<metadata>
<rdf:RDF><cc:Work>
<dc:title>Tray - DividerTray</dc:title>
<dc:date>2026-03-22 23:50:07</dc:date>
<dc:source>https://boxes.hackerspace-bamberg.de/DividerTray?FingerJoint_style=rectangular&amp;FingerJoint_surroundingspaces=2.0&amp;FingerJoint_bottom_lip=0.0&amp;FingerJoint_edge_width=1.0&amp;FingerJoint_extra_length=0.0&amp;FingerJoint_finger=2.0&amp;FingerJoint_play=0.0&amp;FingerJoint_space=2.0&amp;FingerJoint_width=1.0&amp;HandleEdge_height=20&amp;HandleEdge_hole_height=75.0&amp;HandleEdge_hole_width=40%3A40&amp;HandleEdge_on_sides=0&amp;HandleEdge_on_sides=1&amp;HandleEdge_radius=10.0&amp;HandleEdge_outset=1.0&amp;Lid_handle=none&amp;Lid_style=none&amp;Lid_handle_height=8&amp;Lid_height=4&amp;Lid_play=0.1&amp;Slot_angle=30&amp;Slot_depth=40&amp;Slot_extra_slack=0.2&amp;Slot_radius=2&amp;Notch_depth=25&amp;Notch_lower_radius=8&amp;Notch_upper_radius=1&amp;Divider_bottom_margin=0&amp;Divider_play=0.05&amp;sx=77&amp;sy=0%3A40*7%3A0&amp;h=80&amp;outside=0&amp;outside=1&amp;notches_in_wall=0&amp;left_wall=0&amp;left_wall=1&amp;right_wall=0&amp;right_wall=1&amp;bottom=0&amp;bottom=1&amp;handle=0&amp;thickness=2&amp;burn=0.2&amp;format=svg&amp;labels=0&amp;labels=1&amp;reference=285&amp;tabs=0.0&amp;qr_code=0&amp;inner_corners=loop&amp;spacing=0.5&amp;debug=0&amp;language=en&amp;render=2</dc:source>
<dc:source>https://boxes.hackerspace-bamberg.de/DividerTray?Slot_angle=30&amp;Slot_depth=40&amp;Notch_depth=25&amp;sx=77&amp;sy=0%3A40*7%3A0&amp;h=80&amp;notches_in_wall=0&amp;bottom=0&amp;bottom=1&amp;thickness=2&amp;burn=0.2&amp;reference=285&amp;spacing=0.5</dc:source>
<dc:description>Divider tray - rows and dividers


Adding '0:' at the start of the sy parameter adds a slot at the very back. Adding ':0' at the end of sy adds a slot meeting the bottom at the very front. This is especially useful if slot angle is set above zero.

There are 4 different sets of dividers rendered:

* With asymmetric tabs so the tabs fit on top of each other
* With tabs of half wall thickness that can go side by side
* With tabs of a full wall thickness
* One single divider spanning across all columns

You will likely need to cut each of the dividers you want multiple times.


Created with Boxes.py (https://boxes.hackerspace-bamberg.de/)
Command line: boxes DividerTray --FingerJoint_style=rectangular --FingerJoint_surroundingspaces=2.0 --FingerJoint_bottom_lip=0.0 --FingerJoint_edge_width=1.0 --FingerJoint_extra_length=0.0 --FingerJoint_finger=2.0 --FingerJoint_play=0.0 --FingerJoint_space=2.0 --FingerJoint_width=1.0 --HandleEdge_height=20 --HandleEdge_hole_height=75.0 --HandleEdge_hole_width=40:40 --HandleEdge_on_sides=0 --HandleEdge_on_sides=1 --HandleEdge_radius=10.0 --HandleEdge_outset=1.0 --Lid_handle=none --Lid_style=none --Lid_handle_height=8 --Lid_height=4 --Lid_play=0.1 --Slot_angle=30 --Slot_depth=40 --Slot_extra_slack=0.2 --Slot_radius=2 --Notch_depth=25 --Notch_lower_radius=8 --Notch_upper_radius=1 --Divider_bottom_margin=0 --Divider_play=0.05 --sx=77 '--sy=0:40*7:0' --h=80 --outside=0 --outside=1 --notches_in_wall=0 --left_wall=0 --left_wall=1 --right_wall=0 --right_wall=1 --bottom=0 --bottom=1 --handle=0 --thickness=2 --burn=0.2 --format=svg --labels=0 --labels=1 --reference=285 --tabs=0.0 --qr_code=0 --inner_corners=loop --spacing=0.5 --debug=0
Command line short: boxes DividerTray --Slot_angle=30 --Slot_depth=40 --Notch_depth=25 --sx=77 '--sy=0:40*7:0' --h=80 --notches_in_wall=0 --bottom=0 --bottom=1 --thickness=2 --burn=0.2 --reference=285 --spacing=0.5
Url: https://boxes.hackerspace-bamberg.de/DividerTray?FingerJoint_style=rectangular&amp;FingerJoint_surroundingspaces=2.0&amp;FingerJoint_bottom_lip=0.0&amp;FingerJoint_edge_width=1.0&amp;FingerJoint_extra_length=0.0&amp;FingerJoint_finger=2.0&amp;FingerJoint_play=0.0&amp;FingerJoint_space=2.0&amp;FingerJoint_width=1.0&amp;HandleEdge_height=20&amp;HandleEdge_hole_height=75.0&amp;HandleEdge_hole_width=40%3A40&amp;HandleEdge_on_sides=0&amp;HandleEdge_on_sides=1&amp;HandleEdge_radius=10.0&amp;HandleEdge_outset=1.0&amp;Lid_handle=none&amp;Lid_style=none&amp;Lid_handle_height=8&amp;Lid_height=4&amp;Lid_play=0.1&amp;Slot_angle=30&amp;Slot_depth=40&amp;Slot_extra_slack=0.2&amp;Slot_radius=2&amp;Notch_depth=25&amp;Notch_lower_radius=8&amp;Notch_upper_radius=1&amp;Divider_bottom_margin=0&amp;Divider_play=0.05&amp;sx=77&amp;sy=0%3A40*7%3A0&amp;h=80&amp;outside=0&amp;outside=1&amp;notches_in_wall=0&amp;left_wall=0&amp;left_wall=1&amp;right_wall=0&amp;right_wall=1&amp;bottom=0&amp;bottom=1&amp;handle=0&amp;thickness=2&amp;burn=0.2&amp;format=svg&amp;labels=0&amp;labels=1&amp;reference=285&amp;tabs=0.0&amp;qr_code=0&amp;inner_corners=loop&amp;spacing=0.5&amp;debug=0&amp;language=en&amp;render=2
Url short: https://boxes.hackerspace-bamberg.de/DividerTray?Slot_angle=30&amp;Slot_depth=40&amp;Notch_depth=25&amp;sx=77&amp;sy=0%3A40*7%3A0&amp;h=80&amp;notches_in_wall=0&amp;bottom=0&amp;bottom=1&amp;thickness=2&amp;burn=0.2&amp;reference=285&amp;spacing=0.5
SettingsUrl: https://boxes.hackerspace-bamberg.de/DividerTray?FingerJoint_style=rectangular&amp;FingerJoint_surroundingspaces=2.0&amp;FingerJoint_bottom_lip=0.0&amp;FingerJoint_edge_width=1.0&amp;FingerJoint_extra_length=0.0&amp;FingerJoint_finger=2.0&amp;FingerJoint_play=0.0&amp;FingerJoint_space=2.0&amp;FingerJoint_width=1.0&amp;HandleEdge_height=20&amp;HandleEdge_hole_height=75.0&amp;HandleEdge_hole_width=40%3A40&amp;HandleEdge_on_sides=0&amp;HandleEdge_on_sides=1&amp;HandleEdge_radius=10.0&amp;HandleEdge_outset=1.0&amp;Lid_handle=none&amp;Lid_style=none&amp;Lid_handle_height=8&amp;Lid_height=4&amp;Lid_play=0.1&amp;Slot_angle=30&amp;Slot_depth=40&amp;Slot_extra_slack=0.2&amp;Slot_radius=2&amp;Notch_depth=25&amp;Notch_lower_radius=8&amp;Notch_upper_radius=1&amp;Divider_bottom_margin=0&amp;Divider_play=0.05&amp;sx=77&amp;sy=0%3A40*7%3A0&amp;h=80&amp;outside=0&amp;outside=1&amp;notches_in_wall=0&amp;left_wall=0&amp;left_wall=1&amp;right_wall=0&amp;right_wall=1&amp;bottom=0&amp;bottom=1&amp;handle=0&amp;thickness=2&amp;burn=0.2&amp;format=svg&amp;labels=0&amp;labels=1&amp;reference=285&amp;tabs=0.0&amp;qr_code=0&amp;inner_corners=loop&amp;spacing=0.5&amp;debug=0&amp;language=en&amp;render=2
SettingsUrl short: https://boxes.hackerspace-bamberg.de/DividerTray?Slot_angle=30&amp;Slot_depth=40&amp;Notch_depth=25&amp;sx=77&amp;sy=0%3A40*7%3A0&amp;h=80&amp;notches_in_wall=0&amp;bottom=0&amp;bottom=1&amp;thickness=2&amp;burn=0.2&amp;reference=285&amp;spacing=0.5
</dc:description>
</cc:Work></rdf:RDF></metadata>
<g id="p-0" style="fill:none;stroke-linecap:round;stroke-linejoin:round;">
  <path d="M 10.200 663.048 H 295.200 V 653.048 H 10.200 V 663.048 Z" stroke="rgb(0,0,0)" stroke-width="0.40" />
  <text dominant-baseline="hanging" font-size="6px" style="font-family: sans-serif ; font-weight: normal; font-style: normal; fill: rgb(255,0,0)" text-anchor="middle" transform="matrix( 1.000 0.000 0.000 1.000 152.700 655.048 )">285.0mm, burn:0.20mm</text>
</g>
<g id="p-1" style="fill:none;stroke-linecap:round;stroke-linejoin:round;">
  <path d="M 12.200 651.648 H 18.700 C 18.810 651.648 18.900 651.558 18.900 651.448 V 649.648 C 18.900 649.448 18.700 649.648 18.900 649.648 H 22.500 C 22.700 649.648 22.500 649.448 22.500 649.648 V 651.448 C 22.500 651.558 22.590 651.648 22.700 651.648 H 26.700 C 26.810 651.648 26.900 651.558 26.900 651.448 V 649.648 C 26.900 649.448 26.700 649.648 26.900 649.648 H 30.500 C 30.700 649.648 30.500 649.448 30.500 649.648 V 651.448 C 30.500 651.558 30.590 651.648 30.700 651.648 H 34.700 C 34.810 651.648 34.900 651.558 34.900 651.448 V 649.648 C 34.900 649.448 34.700 649.648 34.900 649.648 H 38.500 C 38.700 649.648 38.500 649.448 38.500 649.648 V 651.448 C 38.500 651.558 38.590 651.648 38.700 651.648 H 42.700 C 42.810 651.648 42.900 651.558 42.900 651.448 V 649.648 C 42.900 649.448 42.700 649.648 42.900 649.648 H 46.500 C 46.700 649.648 46.500 649.448 46.500 649.648 V 651.448 C 46.500 651.558 46.590 651.648 46.700 651.648 H 50.700 C 50.810 651.648 50.900 651.558 50.900 651.448 V 649.648 C 50.900 649.448 50.700 649.648 50.900 649.648 H 54.500 C 54.700 649.648 54.500 649.448 54.500 649.648 V 651.448 C 54.500 651.558 54.590 651.648 54.700 651.648 H 58.700 C 58.810 651.648 58.900 651.558 58.900 651.448 V 649.648 C 58.900 649.448 58.700 649.648 58.900 649.648 H 62.500 C 62.700 649.648 62.500 649.448 62.500 649.648 V 651.448 C 62.500 651.558 62.590 651.648 62.700 651.648 H 66.700 C 66.810 651.648 66.900 651.558 66.900 651.448 V 649.648 C 66.900 649.448 66.700 649.648 66.900 649.648 H 70.500 C 70.700 649.648 70.500 649.448 70.500 649.648 V 651.448 C 70.500 651.558 70.590 651.648 70.700 651.648 H 74.700 C 74.810 651.648 74.900 651.558 74.900 651.448 V 649.648 C 74.900 649.448 74.700 649.648 74.900 649.648 H 78.500 C 78.700 649.648 78.500 649.448 78.500 649.648 V 651.448 C 78.500 651.558 78.590 651.648 78.700 651.648 H 85.200 H 87.200 C 87.310 651.648 87.400 651.558 87.400 651.448 V 649.448 V 644.448 C 87.400 644.337 87.310 644.248 87.200 644.248 H 85.400 C 85.200 644.248 85.400 644.448 85.400 644.248 V 640.648 C 85.400 640.448 85.200 640.648 85.400 640.648 H 87.200 C 87.310 640.648 87.400 640.558 87.400 640.448 V 636.448 C 87.400 636.337 87.310 636.248 87.200 636.248 H 85.400 C 85.200 636.248 85.400 636.448 85.400 636.248 V 632.648 C 85.400 632.448 85.200 632.648 85.400 632.648 H 87.200 C 87.310 632.648 87.400 632.558 87.400 632.448 V 628.448 C 87.400 628.337 87.310 628.248 87.200 628.248 H 85.400 C 85.200 628.248 85.400 628.448 85.400 628.248 V 624.648 C 85.400 624.448 85.200 624.648 85.400 624.648 H 87.200 C 87.310 624.648 87.400 624.558 87.400 624.448 V 620.448 C 87.400 620.337 87.310 620.248 87.200 620.248 H 85.400 C 85.200 620.248 85.400 620.448 85.400 620.248 V 616.648 C 85.400 616.448 85.200 616.648 85.400 616.648 H 87.200 C 87.310 616.648 87.400 616.558 87.400 616.448 V 612.448 C 87.400 612.337 87.310 612.248 87.200 612.248 H 85.400 C 85.200 612.248 85.400 612.448 85.400 612.248 V 608.648 C 85.400 608.448 85.200 608.648 85.400 608.648 H 87.200 C 87.310 608.648 87.400 608.558 87.400 608.448 V 604.448 C 87.400 604.337 87.310 604.248 87.200 604.248 H 85.400 C 85.200 604.248 85.400 604.448 85.400 604.248 V 600.648 C 85.400 600.448 85.200 600.648 85.400 600.648 H 87.200 C 87.310 600.648 87.400 600.558 87.400 600.448 V 596.448 C 87.400 596.337 87.310 596.248 87.200 596.248 H 85.400 C 85.200 596.248 85.400 596.448 85.400 596.248 V 592.648 C 85.400 592.448 85.200 592.648 85.400 592.648 H 87.200 C 87.310 592.648 87.400 592.558 87.400 592.448 V 588.448 C 87.400 588.337 87.310 588.248 87.200 588.248 H 85.400 C 85.200 588.248 85.400 588.448 85.400 588.248 V 584.648 C 85.400 584.448 85.200 584.648 85.400 584.648 H 87.200 C 87.310 584.648 87.400 584.558 87.400 584.448 V 580.448 C 87.400 580.337 87.310 580.248 87.200 580.248 H 85.400 C 85.200 580.248 85.400 580.448 85.400 580.248 V 576.648 C 85.400 576.448 85.200 576.648 85.400 576.648 H 87.200 C 87.310 576.648 87.400 576.558 87.400 576.448 V 571.448 C 87.400 571.337 87.310 571.248 87.200 571.248 H 85.200 H 12.200 H 10.200 C 10.090 571.248 10.000 571.337 10.000 571.448 V 576.448 C 10.000 576.558 10.090 576.648 10.200 576.648 H 12.000 C 12.200 576.648 12.000 576.448 12.000 576.648 V 580.248 C 12.000 580.448 12.200 580.248 12.000 580.248 H 10.200 C 10.090 580.248 10.000 580.337 10.000 580.448 V 584.448 C 10.000 584.558 10.090 584.648 10.200 584.648 H 12.000 C 12.200 584.648 12.000 584.448 12.000 584.648 V 588.248 C 12.000 588.448 12.200 588.248 12.000 588.248 H 10.200 C 10.090 588.248 10.000 588.337 10.000 588.448 V 592.448 C 10.000 592.558 10.090 592.648 10.200 592.648 H 12.000 C 12.200 592.648 12.000 592.448 12.000 592.648 V 596.248 C 12.000 596.448 12.200 596.248 12.000 596.248 H 10.200 C 10.090 596.248 10.000 596.337 10.000 596.448 V 600.448 C 10.000 600.558 10.090 600.648 10.200 600.648 H 12.000 C 12.200 600.648 12.000 600.448 12.000 600.648 V 604.248 C 12.000 604.448 12.200 604.248 12.000 604.248 H 10.200 C 10.090 604.248 10.000 604.337 10.000 604.448 V 608.448 C 10.000 608.558 10.090 608.648 10.200 608.648 H 12.000 C 12.200 608.648 12.000 608.448 12.000 608.648 V 612.248 C 12.000 612.448 12.200 612.248 12.000 612.248 H 10.200 C 10.090 612.248 10.000 612.337 10.000 612.448 V 616.448 C 10.000 616.558 10.090 616.648 10.200 616.648 H 12.000 C 12.200 616.648 12.000 616.448 12.000 616.648 V 620.248 C 12.000 620.448 12.200 620.248 12.000 620.248 H 10.200 C 10.090 620.248 10.000 620.337 10.000 620.448 V 624.448 C 10.000 624.558 10.090 624.648 10.200 624.648 H 12.000 C 12.200 624.648 12.000 624.448 12.000 624.648 V 628.248 C 12.000 628.448 12.200 628.248 12.000 628.248 H 10.200 C 10.090 628.248 10.000 628.337 10.000 628.448 V 632.448 C 10.000 632.558 10.090 632.648 10.200 632.648 H 12.000 C 12.200 632.648 12.000 632.448 12.000 632.648 V 636.248 C 12.000 636.448 12.200 636.248 12.000 636.248 H 10.200 C 10.090 636.248 10.000 636.337 10.000 636.448 V 640.448 C 10.000 640.558 10.090 640.648 10.200 640.648 H 12.000 C 12.200 640.648 12.000 640.448 12.000 640.648 V 644.248 C 12.000 644.448 12.200 644.248 12.000 644.248 H 10.200 C 10.090 644.248 10.000 644.337 10.000 644.448 V 649.448 V 651.448 C 10.000 651.558 10.090 651.648 10.200 651.648 H 12.200 Z" stroke="rgb(0,0,0)" stroke-width="0.40" />
  <text dominant-baseline="hanging" font-size="4px" style="font-family: sans-serif ; font-weight: normal; font-style: normal; fill: rgb(255,0,0)" text-anchor="middle" transform="matrix( 1.000 0.000 0.000 1.000 48.700 609.648 )">Back</text>
</g>
<g id="p-2" style="fill:none;stroke-linecap:round;stroke-linejoin:round;">
  <path d="M 12.200 570.248 H 18.700 C 18.810 570.248 18.900 570.158 18.900 570.048 V 568.248 C 18.900 568.048 18.700 568.248 18.900 568.248 H 22.500 C 22.700 568.248 22.500 568.048 22.500 568.248 V 570.048 C 22.500 570.158 22.590 570.248 22.700 570.248 H 26.700 C 26.810 570.248 26.900 570.158 26.900 570.048 V 568.248 C 26.900 568.048 26.700 568.248 26.900 568.248 H 30.500 C 30.700 568.248 30.500 568.048 30.500 568.248 V 570.048 C 30.500 570.158 30.590 570.248 30.700 570.248 H 34.700 C 34.810 570.248 34.900 570.158 34.900 570.048 V 568.248 C 34.900 568.048 34.700 568.248 34.900 568.248 H 38.500 C 38.700 568.248 38.500 568.048 38.500 568.248 V 570.048 C 38.500 570.158 38.590 570.248 38.700 570.248 H 42.700 C 42.810 570.248 42.900 570.158 42.900 570.048 V 568.248 C 42.900 568.048 42.700 568.248 42.900 568.248 H 46.500 C 46.700 568.248 46.500 568.048 46.500 568.248 V 570.048 C 46.500 570.158 46.590 570.248 46.700 570.248 H 50.700 C 50.810 570.248 50.900 570.158 50.900 570.048 V 568.248 C 50.900 568.048 50.700 568.248 50.900 568.248 H 54.500 C 54.700 568.248 54.500 568.048 54.500 568.248 V 570.048 C 54.500 570.158 54.590 570.248 54.700 570.248 H 58.700 C 58.810 570.248 58.900 570.158 58.900 570.048 V 568.248 C 58.900 568.048 58.700 568.248 58.900 568.248 H 62.500 C 62.700 568.248 62.500 568.048 62.500 568.248 V 570.048 C 62.500 570.158 62.590 570.248 62.700 570.248 H 66.700 C 66.810 570.248 66.900 570.158 66.900 570.048 V 568.248 C 66.900 568.048 66.700 568.248 66.900 568.248 H 70.500 C 70.700 568.248 70.500 568.048 70.500 568.248 V 570.048 C 70.500 570.158 70.590 570.248 70.700 570.248 H 74.700 C 74.810 570.248 74.900 570.158 74.900 570.048 V 568.248 C 74.900 568.048 74.700 568.248 74.900 568.248 H 78.500 C 78.700 568.248 78.500 568.048 78.500 568.248 V 570.048 C 78.500 570.158 78.590 570.248 78.700 570.248 H 85.200 H 87.200 C 87.310 570.248 87.400 570.158 87.400 570.048 V 568.048 V 563.048 C 87.400 562.937 87.310 562.848 87.200 562.848 H 85.400 C 85.200 562.848 85.400 563.048 85.400 562.848 V 559.248 C 85.400 559.048 85.200 559.248 85.400 559.248 H 87.200 C 87.310 559.248 87.400 559.158 87.400 559.048 V 555.048 C 87.400 554.937 87.310 554.848 87.200 554.848 H 85.400 C 85.200 554.848 85.400 555.048 85.400 554.848 V 551.248 C 85.400 551.048 85.200 551.248 85.400 551.248 H 87.200 C 87.310 551.248 87.400 551.158 87.400 551.048 V 547.048 C 87.400 546.937 87.310 546.848 87.200 546.848 H 85.400 C 85.200 546.848 85.400 547.048 85.400 546.848 V 543.248 C 85.400 543.048 85.200 543.248 85.400 543.248 H 87.200 C 87.310 543.248 87.400 543.158 87.400 543.048 V 539.048 C 87.400 538.937 87.310 538.848 87.200 538.848 H 85.400 C 85.200 538.848 85.400 539.048 85.400 538.848 V 535.248 C 85.400 535.048 85.200 535.248 85.400 535.248 H 87.200 C 87.310 535.248 87.400 535.158 87.400 535.048 V 531.048 C 87.400 530.937 87.310 530.848 87.200 530.848 H 85.400 C 85.200 530.848 85.400 531.048 85.400 530.848 V 527.248 C 85.400 527.048 85.200 527.248 85.400 527.248 H 87.200 C 87.310 527.248 87.400 527.158 87.400 527.048 V 523.048 C 87.400 522.937 87.310 522.848 87.200 522.848 H 85.400 C 85.200 522.848 85.400 523.048 85.400 522.848 V 519.248 C 85.400 519.048 85.200 519.248 85.400 519.248 H 87.200 C 87.310 519.248 87.400 519.158 87.400 519.048 V 515.048 C 87.400 514.937 87.310 514.848 87.200 514.848 H 85.400 C 85.200 514.848 85.400 515.048 85.400 514.848 V 511.248 C 85.400 511.048 85.200 511.248 85.400 511.248 H 87.200 C 87.310 511.248 87.400 511.158 87.400 511.048 V 507.048 C 87.400 506.937 87.310 506.848 87.200 506.848 H 85.400 C 85.200 506.848 85.400 507.048 85.400 506.848 V 503.248 C 85.400 503.048 85.200 503.248 85.400 503.248 H 87.200 C 87.310 503.248 87.400 503.158 87.400 503.048 V 499.048 C 87.400 498.937 87.310 498.848 87.200 498.848 H 85.400 C 85.200 498.848 85.400 499.048 85.400 498.848 V 495.248 C 85.400 495.048 85.200 495.248 85.400 495.248 H 87.200 C 87.310 495.248 87.400 495.158 87.400 495.048 V 490.048 C 87.400 489.937 87.310 489.848 87.200 489.848 H 85.200 H 12.200 H 10.200 C 10.090 489.848 10.000 489.937 10.000 490.048 V 495.048 C 10.000 495.158 10.090 495.248 10.200 495.248 H 12.000 C 12.200 495.248 12.000 495.048 12.000 495.248 V 498.848 C 12.000 499.048 12.200 498.848 12.000 498.848 H 10.200 C 10.090 498.848 10.000 498.937 10.000 499.048 V 503.048 C 10.000 503.158 10.090 503.248 10.200 503.248 H 12.000 C 12.200 503.248 12.000 503.048 12.000 503.248 V 506.848 C 12.000 507.048 12.200 506.848 12.000 506.848 H 10.200 C 10.090 506.848 10.000 506.937 10.000 507.048 V 511.048 C 10.000 511.158 10.090 511.248 10.200 511.248 H 12.000 C 12.200 511.248 12.000 511.048 12.000 511.248 V 514.848 C 12.000 515.048 12.200 514.848 12.000 514.848 H 10.200 C 10.090 514.848 10.000 514.937 10.000 515.048 V 519.048 C 10.000 519.158 10.090 519.248 10.200 519.248 H 12.000 C 12.200 519.248 12.000 519.048 12.000 519.248 V 522.848 C 12.000 523.048 12.200 522.848 12.000 522.848 H 10.200 C 10.090 522.848 10.000 522.937 10.000 523.048 V 527.048 C 10.000 527.158 10.090 527.248 10.200 527.248 H 12.000 C 12.200 527.248 12.000 527.048 12.000 527.248 V 530.848 C 12.000 531.048 12.200 530.848 12.000 530.848 H 10.200 C 10.090 530.848 10.000 530.937 10.000 531.048 V 535.048 C 10.000 535.158 10.090 535.248 10.200 535.248 H 12.000 C 12.200 535.248 12.000 535.048 12.000 535.248 V 538.848 C 12.000 539.048 12.200 538.848 12.000 538.848 H 10.200 C 10.090 538.848 10.000 538.937 10.000 539.048 V 543.048 C 10.000 543.158 10.090 543.248 10.200 543.248 H 12.000 C 12.200 543.248 12.000 543.048 12.000 543.248 V 546.848 C 12.000 547.048 12.200 546.848 12.000 546.848 H 10.200 C 10.090 546.848 10.000 546.937 10.000 547.048 V 551.048 C 10.000 551.158 10.090 551.248 10.200 551.248 H 12.000 C 12.200 551.248 12.000 551.048 12.000 551.248 V 554.848 C 12.000 555.048 12.200 554.848 12.000 554.848 H 10.200 C 10.090 554.848 10.000 554.937 10.000 555.048 V 559.048 C 10.000 559.158 10.090 559.248 10.200 559.248 H 12.000 C 12.200 559.248 12.000 559.048 12.000 559.248 V 562.848 C 12.000 563.048 12.200 562.848 12.000 562.848 H 10.200 C 10.090 562.848 10.000 562.937 10.000 563.048 V 568.048 V 570.048 C 10.000 570.158 10.090 570.248 10.200 570.248 H 12.200 Z" stroke="rgb(0,0,0)" stroke-width="0.40" />
  <text dominant-baseline="hanging" font-size="4px" style="font-family: sans-serif ; font-weight: normal; font-style: normal; fill: rgb(255,0,0)" text-anchor="middle" transform="matrix( 1.000 0.000 0.000 1.000 48.700 528.248 )">Front</text>
</g>
<g id="p-3" style="fill:none;stroke-linecap:round;stroke-linejoin:round;">
  <path d="M 12.200 488.848 H 16.200 C 16.310 488.848 16.400 488.758 16.400 488.648 V 486.848 C 16.400 486.648 16.200 486.848 16.400 486.848 H 20.000 C 20.200 486.848 20.000 486.648 20.000 486.848 V 488.648 C 20.000 488.758 20.090 488.848 20.200 488.848 H 24.200 C 24.310 488.848 24.400 488.758 24.400 488.648 V 486.848 C 24.400 486.648 24.200 486.848 24.400 486.848 H 28.000 C 28.200 486.848 28.000 486.648 28.000 486.848 V 488.648 C 28.000 488.758 28.090 488.848 28.200 488.848 H 32.200 C 32.310 488.848 32.400 488.758 32.400 488.648 V 486.848 C 32.400 486.648 32.200 486.848 32.400 486.848 H 36.000 C 36.200 486.848 36.000 486.648 36.000 486.848 V 488.648 C 36.000 488.758 36.090 488.848 36.200 488.848 H 40.200 C 40.310 488.848 40.400 488.758 40.400 488.648 V 486.848 C 40.400 486.648 40.200 486.848 40.400 486.848 H 44.000 C 44.200 486.848 44.000 486.648 44.000 486.848 V 488.648 C 44.000 488.758 44.090 488.848 44.200 488.848 H 48.200 C 48.310 488.848 48.400 488.758 48.400 488.648 V 486.848 C 48.400 486.648 48.200 486.848 48.400 486.848 H 52.000 C 52.200 486.848 52.000 486.648 52.000 486.848 V 488.648 C 52.000 488.758 52.090 488.848 52.200 488.848 H 56.200 C 56.310 488.848 56.400 488.758 56.400 488.648 V 486.848 C 56.400 486.648 56.200 486.848 56.400 486.848 H 60.000 C 60.200 486.848 60.000 486.648 60.000 486.848 V 488.648 C 60.000 488.758 60.090 488.848 60.200 488.848 H 64.200 C 64.310 488.848 64.400 488.758 64.400 488.648 V 486.848 C 64.400 486.648 64.200 486.848 64.400 486.848 H 68.000 C 68.200 486.848 68.000 486.648 68.000 486.848 V 488.648 C 68.000 488.758 68.090 488.848 68.200 488.848 H 72.200 C 72.310 488.848 72.400 488.758 72.400 488.648 V 486.848 C 72.400 486.648 72.200 486.848 72.400 486.848 H 76.000 C 76.200 486.848 76.000 486.648 76.000 486.848 V 488.648 C 76.000 488.758 76.090 488.848 76.200 488.848 H 80.200 C 80.310 488.848 80.400 488.758 80.400 488.648 V 486.848 C 80.400 486.648 80.200 486.848 80.400 486.848 H 84.000 C 84.200 486.848 84.000 486.648 84.000 486.848 V 488.648 C 84.000 488.758 84.090 488.848 84.200 488.848 H 88.200 C 88.310 488.848 88.400 488.758 88.400 488.648 V 486.848 C 88.400 486.648 88.200 486.848 88.400 486.848 H 92.000 C 92.200 486.848 92.000 486.648 92.000 486.848 V 488.648 C 92.000 488.758 92.090 488.848 92.200 488.848 H 96.200 C 96.310 488.848 96.400 488.758 96.400 488.648 V 486.848 C 96.400 486.648 96.200 486.848 96.400 486.848 H 100.000 C 100.200 486.848 100.000 486.648 100.000 486.848 V 488.648 C 100.000 488.758 100.090 488.848 100.200 488.848 H 104.200 C 104.310 488.848 104.400 488.758 104.400 488.648 V 486.848 C 104.400 486.648 104.200 486.848 104.400 486.848 H 108.000 C 108.200 486.848 108.000 486.648 108.000 486.848 V 488.648 C 108.000 488.758 108.090 488.848 108.200 488.848 H 112.200 C 112.310 488.848 112.400 488.758 112.400 488.648 V 486.848 C 112.400 486.648 112.200 486.848 112.400 486.848 H 116.000 C 116.200 486.848 116.000 486.648 116.000 486.848 V 488.648 C 116.000 488.758 116.090 488.848 116.200 488.848 H 120.200 C 120.310 488.848 120.400 488.758 120.400 488.648 V 486.848 C 120.400 486.648 120.200 486.848 120.400 486.848 H 124.000 C 124.200 486.848 124.000 486.648 124.000 486.848 V 488.648 C 124.000 488.758 124.090 488.848 124.200 488.848 H 128.200 C 128.310 488.848 128.400 488.758 128.400 488.648 V 486.848 C 128.400 486.648 128.200 486.848 128.400 486.848 H 132.000 C 132.200 486.848 132.000 486.648 132.000 486.848 V 488.648 C 132.000 488.758 132.090 488.848 132.200 488.848 H 136.200 C 136.310 488.848 136.400 488.758 136.400 488.648 V 486.848 C 136.400 486.648 136.200 486.848 136.400 486.848 H 140.000 C 140.200 486.848 140.000 486.648 140.000 486.848 V 488.648 C 140.000 488.758 140.090 488.848 140.200 488.848 H 144.200 C 144.310 488.848 144.400 488.758 144.400 488.648 V 486.848 C 144.400 486.648 144.200 486.848 144.400 486.848 H 148.000 C 148.200 486.848 148.000 486.648 148.000 486.848 V 488.648 C 148.000 488.758 148.090 488.848 148.200 488.848 H 152.200 C 152.310 488.848 152.400 488.758 152.400 488.648 V 486.848 C 152.400 486.648 152.200 486.848 152.400 486.848 H 156.000 C 156.200 486.848 156.000 486.648 156.000 486.848 V 488.648 C 156.000 488.758 156.090 488.848 156.200 488.848 H 160.200 C 160.310 488.848 160.400 488.758 160.400 488.648 V 486.848 C 160.400 486.648 160.200 486.848 160.400 486.848 H 164.000 C 164.200 486.848 164.000 486.648 164.000 486.848 V 488.648 C 164.000 488.758 164.090 488.848 164.200 488.848 H 168.200 C 168.310 488.848 168.400 488.758 168.400 488.648 V 486.848 C 168.400 486.648 168.200 486.848 168.400 486.848 H 172.000 C 172.200 486.848 172.000 486.648 172.000 486.848 V 488.648 C 172.000 488.758 172.090 488.848 172.200 488.848 H 176.200 C 176.310 488.848 176.400 488.758 176.400 488.648 V 486.848 C 176.400 486.648 176.200 486.848 176.400 486.848 H 180.000 C 180.200 486.848 180.000 486.648 180.000 486.848 V 488.648 C 180.000 488.758 180.090 488.848 180.200 488.848 H 184.200 C 184.310 488.848 184.400 488.758 184.400 488.648 V 486.848 C 184.400 486.648 184.200 486.848 184.400 486.848 H 188.000 C 188.200 486.848 188.000 486.648 188.000 486.848 V 488.648 C 188.000 488.758 188.090 488.848 188.200 488.848 H 192.200 C 192.310 488.848 192.400 488.758 192.400 488.648 V 486.848 C 192.400 486.648 192.200 486.848 192.400 486.848 H 196.000 C 196.200 486.848 196.000 486.648 196.000 486.848 V 488.648 C 196.000 488.758 196.090 488.848 196.200 488.848 H 200.200 C 200.310 488.848 200.400 488.758 200.400 488.648 V 486.848 C 200.400 486.648 200.200 486.848 200.400 486.848 H 204.000 C 204.200 486.848 204.000 486.648 204.000 486.848 V 488.648 C 204.000 488.758 204.090 488.848 204.200 488.848 H 208.200 C 208.310 488.848 208.400 488.758 208.400 488.648 V 486.848 C 208.400 486.648 208.200 486.848 208.400 486.848 H 212.000 C 212.200 486.848 212.000 486.648 212.000 486.848 V 488.648 C 212.000 488.758 212.090 488.848 212.200 488.848 H 216.200 C 216.310 488.848 216.400 488.758 216.400 488.648 V 486.848 C 216.400 486.648 216.200 486.848 216.400 486.848 H 220.000 C 220.200 486.848 220.000 486.648 220.000 486.848 V 488.648 C 220.000 488.758 220.090 488.848 220.200 488.848 H 224.200 C 224.310 488.848 224.400 488.758 224.400 488.648 V 486.848 C 224.400 486.648 224.200 486.848 224.400 486.848 H 228.000 C 228.200 486.848 228.000 486.648 228.000 486.848 V 488.648 C 228.000 488.758 228.090 488.848 228.200 488.848 H 232.200 C 232.310 488.848 232.400 488.758 232.400 488.648 V 486.848 C 232.400 486.648 232.200 486.848 232.400 486.848 H 236.000 C 236.200 486.848 236.000 486.648 236.000 486.848 V 488.648 C 236.000 488.758 236.090 488.848 236.200 488.848 H 240.200 C 240.310 488.848 240.400 488.758 240.400 488.648 V 486.848 C 240.400 486.648 240.200 486.848 240.400 486.848 H 244.000 C 244.200 486.848 244.000 486.648 244.000 486.848 V 488.648 C 244.000 488.758 244.090 488.848 244.200 488.848 H 248.200 C 248.310 488.848 248.400 488.758 248.400 488.648 V 486.848 C 248.400 486.648 248.200 486.848 248.400 486.848 H 252.000 C 252.200 486.848 252.000 486.648 252.000 486.848 V 488.648 C 252.000 488.758 252.090 488.848 252.200 488.848 H 256.200 C 256.310 488.848 256.400 488.758 256.400 488.648 V 486.848 C 256.400 486.648 256.200 486.848 256.400 486.848 H 260.000 C 260.200 486.848 260.000 486.648 260.000 486.848 V 488.648 C 260.000 488.758 260.090 488.848 260.200 488.848 H 264.200 C 264.310 488.848 264.400 488.758 264.400 488.648 V 486.848 C 264.400 486.648 264.200 486.848 264.400 486.848 H 268.000 C 268.200 486.848 268.000 486.648 268.000 486.848 V 488.648 C 268.000 488.758 268.090 488.848 268.200 488.848 H 272.200 C 272.310 488.848 272.400 488.758 272.400 488.648 V 486.848 C 272.400 486.648 272.200 486.848 272.400 486.848 H 276.000 C 276.200 486.848 276.000 486.648 276.000 486.848 V 488.648 C 276.000 488.758 276.090 488.848 276.200 488.848 H 280.200 C 280.310 488.848 280.400 488.758 280.400 488.648 V 486.848 C 280.400 486.648 280.200 486.848 280.400 486.848 H 284.000 C 284.200 486.848 284.000 486.648 284.000 486.848 V 488.648 C 284.000 488.758 284.090 488.848 284.200 488.848 H 288.200 C 288.310 488.848 288.400 488.758 288.400 488.648 V 486.648 V 481.848 C 288.400 481.648 288.200 481.848 288.400 481.848 H 290.200 C 290.310 481.848 290.400 481.758 290.400 481.648 V 477.648 C 290.400 477.537 290.310 477.448 290.200 477.448 H 288.400 C 288.200 477.448 288.400 477.648 288.400 477.448 V 473.848 C 288.400 473.648 288.200 473.848 288.400 473.848 H 290.200 C 290.310 473.848 290.400 473.758 290.400 473.648 V 469.648 C 290.400 469.537 290.310 469.448 290.200 469.448 H 288.400 C 288.200 469.448 288.400 469.648 288.400 469.448 V 465.848 C 288.400 465.648 288.200 465.848 288.400 465.848 H 290.200 C 290.310 465.848 290.400 465.758 290.400 465.648 V 461.648 C 290.400 461.537 290.310 461.448 290.200 461.448 H 288.400 C 288.200 461.448 288.400 461.648 288.400 461.448 V 457.848 C 288.400 457.648 288.200 457.848 288.400 457.848 H 290.200 C 290.310 457.848 290.400 457.758 290.400 457.648 V 453.648 C 290.400 453.537 290.310 453.448 290.200 453.448 H 288.400 C 288.200 453.448 288.400 453.648 288.400 453.448 V 449.848 C 288.400 449.648 288.200 449.848 288.400 449.848 H 290.200 C 290.310 449.848 290.400 449.758 290.400 449.648 V 445.648 C 290.400 445.537 290.310 445.448 290.200 445.448 H 288.400 C 288.200 445.448 288.400 445.648 288.400 445.448 V 441.848 C 288.400 441.648 288.200 441.848 288.400 441.848 H 290.200 C 290.310 441.848 290.400 441.758 290.400 441.648 V 437.648 C 290.400 437.537 290.310 437.448 290.200 437.448 H 288.400 C 288.200 437.448 288.400 437.648 288.400 437.448 V 433.848 C 288.400 433.648 288.200 433.848 288.400 433.848 H 290.200 C 290.310 433.848 290.400 433.758 290.400 433.648 V 429.648 C 290.400 429.537 290.310 429.448 290.200 429.448 H 288.400 C 288.200 429.448 288.400 429.648 288.400 429.448 V 425.848 C 288.400 425.648 288.200 425.848 288.400 425.848 H 290.200 C 290.310 425.848 290.400 425.758 290.400 425.648 V 421.648 C 290.400 421.537 290.310 421.448 290.200 421.448 H 288.400 C 288.200 421.448 288.400 421.648 288.400 421.448 V 417.848 C 288.400 417.648 288.200 417.848 288.400 417.848 H 290.200 C 290.310 417.848 290.400 417.758 290.400 417.648 V 413.648 C 290.400 413.537 290.310 413.448 290.200 413.448 H 288.400 C 288.200 413.448 288.400 413.648 288.400 413.448 V 408.648 C 288.400 408.537 288.310 408.448 288.200 408.448 C 288.129 408.448 288.063 408.486 288.027 408.548 L 267.492 444.116 C 267.392 444.289 267.665 444.216 267.492 444.116 L 265.933 443.216 C 265.760 443.116 265.833 443.389 265.933 443.216 L 284.101 411.748 C 284.294 411.413 284.396 411.034 284.396 410.648 C 284.396 410.262 284.294 409.882 284.101 409.548 C 283.908 409.213 283.630 408.936 283.296 408.743 C 282.961 408.549 282.582 408.448 282.196 408.448 H 256.722 C 256.336 408.448 255.957 408.549 255.622 408.743 C 255.288 408.936 255.010 409.213 254.817 409.548 L 234.859 444.116 C 234.759 444.289 235.033 444.216 234.859 444.116 L 233.301 443.216 C 233.127 443.116 233.201 443.389 233.301 443.216 L 251.468 411.748 C 251.662 411.413 251.763 411.034 251.763 410.648 C 251.763 410.262 251.662 409.882 251.468 409.548 C 251.275 409.213 250.998 408.936 250.663 408.743 C 250.329 408.549 249.949 408.448 249.563 408.448 H 224.090 C 223.704 408.448 223.324 408.549 222.990 408.743 C 222.656 408.936 222.378 409.213 222.185 409.548 L 202.227 444.116 C 202.127 444.289 202.400 444.216 202.227 444.116 L 200.668 443.216 C 200.495 443.116 200.568 443.389 200.668 443.216 L 218.836 411.748 C 219.029 411.413 219.131 411.034 219.131 410.648 C 219.131 410.262 219.029 409.882 218.836 409.548 C 218.643 409.213 218.365 408.936 218.031 408.743 C 217.696 408.549 217.317 408.448 216.931 408.448 H 191.458 C 191.072 408.448 190.692 408.549 190.358 408.743 C 190.023 408.936 189.746 409.213 189.552 409.548 L 169.595 444.116 C 169.495 444.289 169.768 444.216 169.595 444.116 L 168.036 443.216 C 167.863 443.116 167.936 443.389 168.036 443.216 L 186.204 411.748 C 186.397 411.413 186.499 411.034 186.499 410.648 C 186.499 410.262 186.397 409.882 186.204 409.548 C 186.011 409.213 185.733 408.936 185.399 408.743 C 185.064 408.549 184.685 408.448 184.299 408.448 H 158.825 C 158.439 408.448 158.060 408.549 157.725 408.743 C 157.391 408.936 157.113 409.213 156.920 409.548 L 136.962 444.116 C 136.862 444.289 137.136 444.216 136.962 444.116 L 135.404 443.216 C 135.230 443.116 135.304 443.389 135.404 443.216 L 153.571 411.748 C 153.765 411.413 153.866 411.034 153.866 410.648 C 153.866 410.262 153.765 409.882 153.571 409.548 C 153.378 409.213 153.101 408.936 152.766 408.743 C 152.432 408.549 152.052 408.448 151.666 408.448 H 126.193 C 125.807 408.448 125.427 408.549 125.093 408.743 C 124.759 408.936 124.481 409.213 124.288 409.548 L 104.330 444.116 C 104.230 444.289 104.503 444.216 104.330 444.116 L 102.771 443.216 C 102.598 443.116 102.671 443.389 102.771 443.216 L 120.939 411.748 C 121.132 411.413 121.234 411.034 121.234 410.648 C 121.234 410.262 121.132 409.882 120.939 409.548 C 120.746 409.213 120.468 408.936 120.134 408.743 C 119.799 408.549 119.420 408.448 119.034 408.448 H 93.561 C 93.175 408.448 92.795 408.549 92.461 408.743 C 92.126 408.936 91.849 409.213 91.655 409.548 L 71.698 444.116 C 71.598 444.289 71.871 444.216 71.698 444.116 L 70.139 443.216 C 69.966 443.116 70.039 443.389 70.139 443.216 L 88.307 411.748 C 88.500 411.413 88.602 411.034 88.602 410.648 C 88.602 410.262 88.500 409.882 88.307 409.548 C 88.114 409.213 87.836 408.936 87.502 408.743 C 87.167 408.549 86.788 408.448 86.402 408.448 H 60.928 C 60.542 408.448 60.163 408.549 59.828 408.743 C 59.494 408.936 59.216 409.213 59.023 409.548 L 39.065 444.116 C 38.965 444.289 39.239 444.216 39.065 444.116 L 37.507 443.216 C 37.333 443.116 37.407 443.389 37.507 443.216 L 55.674 411.748 C 55.868 411.413 55.969 411.034 55.969 410.648 C 55.969 410.262 55.868 409.882 55.674 409.548 C 55.481 409.213 55.204 408.936 54.869 408.743 C 54.535 408.549 54.155 408.448 53.769 408.448 H 12.200 C 12.090 408.448 12.000 408.537 12.000 408.648 V 413.448 C 12.000 413.648 12.200 413.448 12.000 413.448 H 10.200 C 10.090 413.448 10.000 413.537 10.000 413.648 V 417.648 C 10.000 417.758 10.090 417.848 10.200 417.848 H 12.000 C 12.200 417.848 12.000 417.648 12.000 417.848 V 421.448 C 12.000 421.648 12.200 421.448 12.000 421.448 H 10.200 C 10.090 421.448 10.000 421.537 10.000 421.648 V 425.648 C 10.000 425.758 10.090 425.848 10.200 425.848 H 12.000 C 12.200 425.848 12.000 425.648 12.000 425.848 V 429.448 C 12.000 429.648 12.200 429.448 12.000 429.448 H 10.200 C 10.090 429.448 10.000 429.537 10.000 429.648 V 433.648 C 10.000 433.758 10.090 433.848 10.200 433.848 H 12.000 C 12.200 433.848 12.000 433.648 12.000 433.848 V 437.448 C 12.000 437.648 12.200 437.448 12.000 437.448 H 10.200 C 10.090 437.448 10.000 437.537 10.000 437.648 V 441.648 C 10.000 441.758 10.090 441.848 10.200 441.848 H 12.000 C 12.200 441.848 12.000 441.648 12.000 441.848 V 445.448 C 12.000 445.648 12.200 445.448 12.000 445.448 H 10.200 C 10.090 445.448 10.000 445.537 10.000 445.648 V 449.648 C 10.000 449.758 10.090 449.848 10.200 449.848 H 12.000 C 12.200 449.848 12.000 449.648 12.000 449.848 V 453.448 C 12.000 453.648 12.200 453.448 12.000 453.448 H 10.200 C 10.090 453.448 10.000 453.537 10.000 453.648 V 457.648 C 10.000 457.758 10.090 457.848 10.200 457.848 H 12.000 C 12.200 457.848 12.000 457.648 12.000 457.848 V 461.448 C 12.000 461.648 12.200 461.448 12.000 461.448 H 10.200 C 10.090 461.448 10.000 461.537 10.000 461.648 V 465.648 C 10.000 465.758 10.090 465.848 10.200 465.848 H 12.000 C 12.200 465.848 12.000 465.648 12.000 465.848 V 469.448 C 12.000 469.648 12.200 469.448 12.000 469.448 H 10.200 C 10.090 469.448 10.000 469.537 10.000 469.648 V 473.648 C 10.000 473.758 10.090 473.848 10.200 473.848 H 12.000 C 12.200 473.848 12.000 473.648 12.000 473.848 V 477.448 C 12.000 477.648 12.200 477.448 12.000 477.448 H 10.200 C 10.090 477.448 10.000 477.537 10.000 477.648 V 481.648 C 10.000 481.758 10.090 481.848 10.200 481.848 H 12.000 C 12.200 481.848 12.000 481.648 12.000 481.848 V 486.648 V 488.648 C 12.000 488.758 12.090 488.848 12.200 488.848 Z" stroke="rgb(0,0,0)" stroke-width="0.40" />
  <text dominant-baseline="hanging" font-size="4px" style="font-family: sans-serif ; font-weight: normal; font-style: normal; fill: rgb(255,0,0)" text-anchor="middle" transform="matrix( 1.000 0.000 0.000 1.000 150.200 446.848 )">Sidepiece 1</text>
</g>
<g id="p-4" style="fill:none;stroke-linecap:round;stroke-linejoin:round;">
  <path d="M 12.200 407.448 H 16.200 C 16.310 407.448 16.400 407.358 16.400 407.248 V 405.448 C 16.400 405.248 16.200 405.448 16.400 405.448 H 20.000 C 20.200 405.448 20.000 405.248 20.000 405.448 V 407.248 C 20.000 407.358 20.090 407.448 20.200 407.448 H 24.200 C 24.310 407.448 24.400 407.358 24.400 407.248 V 405.448 C 24.400 405.248 24.200 405.448 24.400 405.448 H 28.000 C 28.200 405.448 28.000 405.248 28.000 405.448 V 407.248 C 28.000 407.358 28.090 407.448 28.200 407.448 H 32.200 C 32.310 407.448 32.400 407.358 32.400 407.248 V 405.448 C 32.400 405.248 32.200 405.448 32.400 405.448 H 36.000 C 36.200 405.448 36.000 405.248 36.000 405.448 V 407.248 C 36.000 407.358 36.090 407.448 36.200 407.448 H 40.200 C 40.310 407.448 40.400 407.358 40.400 407.248 V 405.448 C 40.400 405.248 40.200 405.448 40.400 405.448 H 44.000 C 44.200 405.448 44.000 405.248 44.000 405.448 V 407.248 C 44.000 407.358 44.090 407.448 44.200 407.448 H 48.200 C 48.310 407.448 48.400 407.358 48.400 407.248 V 405.448 C 48.400 405.248 48.200 405.448 48.400 405.448 H 52.000 C 52.200 405.448 52.000 405.248 52.000 405.448 V 407.248 C 52.000 407.358 52.090 407.448 52.200 407.448 H 56.200 C 56.310 407.448 56.400 407.358 56.400 407.248 V 405.448 C 56.400 405.248 56.200 405.448 56.400 405.448 H 60.000 C 60.200 405.448 60.000 405.248 60.000 405.448 V 407.248 C 60.000 407.358 60.090 407.448 60.200 407.448 H 64.200 C 64.310 407.448 64.400 407.358 64.400 407.248 V 405.448 C 64.400 405.248 64.200 405.448 64.400 405.448 H 68.000 C 68.200 405.448 68.000 405.248 68.000 405.448 V 407.248 C 68.000 407.358 68.090 407.448 68.200 407.448 H 72.200 C 72.310 407.448 72.400 407.358 72.400 407.248 V 405.448 C 72.400 405.248 72.200 405.448 72.400 405.448 H 76.000 C 76.200 405.448 76.000 405.248 76.000 405.448 V 407.248 C 76.000 407.358 76.090 407.448 76.200 407.448 H 80.200 C 80.310 407.448 80.400 407.358 80.400 407.248 V 405.448 C 80.400 405.248 80.200 405.448 80.400 405.448 H 84.000 C 84.200 405.448 84.000 405.248 84.000 405.448 V 407.248 C 84.000 407.358 84.090 407.448 84.200 407.448 H 88.200 C 88.310 407.448 88.400 407.358 88.400 407.248 V 405.448 C 88.400 405.248 88.200 405.448 88.400 405.448 H 92.000 C 92.200 405.448 92.000 405.248 92.000 405.448 V 407.248 C 92.000 407.358 92.090 407.448 92.200 407.448 H 96.200 C 96.310 407.448 96.400 407.358 96.400 407.248 V 405.448 C 96.400 405.248 96.200 405.448 96.400 405.448 H 100.000 C 100.200 405.448 100.000 405.248 100.000 405.448 V 407.248 C 100.000 407.358 100.090 407.448 100.200 407.448 H 104.200 C 104.310 407.448 104.400 407.358 104.400 407.248 V 405.448 C 104.400 405.248 104.200 405.448 104.400 405.448 H 108.000 C 108.200 405.448 108.000 405.248 108.000 405.448 V 407.248 C 108.000 407.358 108.090 407.448 108.200 407.448 H 112.200 C 112.310 407.448 112.400 407.358 112.400 407.248 V 405.448 C 112.400 405.248 112.200 405.448 112.400 405.448 H 116.000 C 116.200 405.448 116.000 405.248 116.000 405.448 V 407.248 C 116.000 407.358 116.090 407.448 116.200 407.448 H 120.200 C 120.310 407.448 120.400 407.358 120.400 407.248 V 405.448 C 120.400 405.248 120.200 405.448 120.400 405.448 H 124.000 C 124.200 405.448 124.000 405.248 124.000 405.448 V 407.248 C 124.000 407.358 124.090 407.448 124.200 407.448 H 128.200 C 128.310 407.448 128.400 407.358 128.400 407.248 V 405.448 C 128.400 405.248 128.200 405.448 128.400 405.448 H 132.000 C 132.200 405.448 132.000 405.248 132.000 405.448 V 407.248 C 132.000 407.358 132.090 407.448 132.200 407.448 H 136.200 C 136.310 407.448 136.400 407.358 136.400 407.248 V 405.448 C 136.400 405.248 136.200 405.448 136.400 405.448 H 140.000 C 140.200 405.448 140.000 405.248 140.000 405.448 V 407.248 C 140.000 407.358 140.090 407.448 140.200 407.448 H 144.200 C 144.310 407.448 144.400 407.358 144.400 407.248 V 405.448 C 144.400 405.248 144.200 405.448 144.400 405.448 H 148.000 C 148.200 405.448 148.000 405.248 148.000 405.448 V 407.248 C 148.000 407.358 148.090 407.448 148.200 407.448 H 152.200 C 152.310 407.448 152.400 407.358 152.400 407.248 V 405.448 C 152.400 405.248 152.200 405.448 152.400 405.448 H 156.000 C 156.200 405.448 156.000 405.248 156.000 405.448 V 407.248 C 156.000 407.358 156.090 407.448 156.200 407.448 H 160.200 C 160.310 407.448 160.400 407.358 160.400 407.248 V 405.448 C 160.400 405.248 160.200 405.448 160.400 405.448 H 164.000 C 164.200 405.448 164.000 405.248 164.000 405.448 V 407.248 C 164.000 407.358 164.090 407.448 164.200 407.448 H 168.200 C 168.310 407.448 168.400 407.358 168.400 407.248 V 405.448 C 168.400 405.248 168.200 405.448 168.400 405.448 H 172.000 C 172.200 405.448 172.000 405.248 172.000 405.448 V 407.248 C 172.000 407.358 172.090 407.448 172.200 407.448 H 176.200 C 176.310 407.448 176.400 407.358 176.400 407.248 V 405.448 C 176.400 405.248 176.200 405.448 176.400 405.448 H 180.000 C 180.200 405.448 180.000 405.248 180.000 405.448 V 407.248 C 180.000 407.358 180.090 407.448 180.200 407.448 H 184.200 C 184.310 407.448 184.400 407.358 184.400 407.248 V 405.448 C 184.400 405.248 184.200 405.448 184.400 405.448 H 188.000 C 188.200 405.448 188.000 405.248 188.000 405.448 V 407.248 C 188.000 407.358 188.090 407.448 188.200 407.448 H 192.200 C 192.310 407.448 192.400 407.358 192.400 407.248 V 405.448 C 192.400 405.248 192.200 405.448 192.400 405.448 H 196.000 C 196.200 405.448 196.000 405.248 196.000 405.448 V 407.248 C 196.000 407.358 196.090 407.448 196.200 407.448 H 200.200 C 200.310 407.448 200.400 407.358 200.400 407.248 V 405.448 C 200.400 405.248 200.200 405.448 200.400 405.448 H 204.000 C 204.200 405.448 204.000 405.248 204.000 405.448 V 407.248 C 204.000 407.358 204.090 407.448 204.200 407.448 H 208.200 C 208.310 407.448 208.400 407.358 208.400 407.248 V 405.448 C 208.400 405.248 208.200 405.448 208.400 405.448 H 212.000 C 212.200 405.448 212.000 405.248 212.000 405.448 V 407.248 C 212.000 407.358 212.090 407.448 212.200 407.448 H 216.200 C 216.310 407.448 216.400 407.358 216.400 407.248 V 405.448 C 216.400 405.248 216.200 405.448 216.400 405.448 H 220.000 C 220.200 405.448 220.000 405.248 220.000 405.448 V 407.248 C 220.000 407.358 220.090 407.448 220.200 407.448 H 224.200 C 224.310 407.448 224.400 407.358 224.400 407.248 V 405.448 C 224.400 405.248 224.200 405.448 224.400 405.448 H 228.000 C 228.200 405.448 228.000 405.248 228.000 405.448 V 407.248 C 228.000 407.358 228.090 407.448 228.200 407.448 H 232.200 C 232.310 407.448 232.400 407.358 232.400 407.248 V 405.448 C 232.400 405.248 232.200 405.448 232.400 405.448 H 236.000 C 236.200 405.448 236.000 405.248 236.000 405.448 V 407.248 C 236.000 407.358 236.090 407.448 236.200 407.448 H 240.200 C 240.310 407.448 240.400 407.358 240.400 407.248 V 405.448 C 240.400 405.248 240.200 405.448 240.400 405.448 H 244.000 C 244.200 405.448 244.000 405.248 244.000 405.448 V 407.248 C 244.000 407.358 244.090 407.448 244.200 407.448 H 248.200 C 248.310 407.448 248.400 407.358 248.400 407.248 V 405.448 C 248.400 405.248 248.200 405.448 248.400 405.448 H 252.000 C 252.200 405.448 252.000 405.248 252.000 405.448 V 407.248 C 252.000 407.358 252.090 407.448 252.200 407.448 H 256.200 C 256.310 407.448 256.400 407.358 256.400 407.248 V 405.448 C 256.400 405.248 256.200 405.448 256.400 405.448 H 260.000 C 260.200 405.448 260.000 405.248 260.000 405.448 V 407.248 C 260.000 407.358 260.090 407.448 260.200 407.448 H 264.200 C 264.310 407.448 264.400 407.358 264.400 407.248 V 405.448 C 264.400 405.248 264.200 405.448 264.400 405.448 H 268.000 C 268.200 405.448 268.000 405.248 268.000 405.448 V 407.248 C 268.000 407.358 268.090 407.448 268.200 407.448 H 272.200 C 272.310 407.448 272.400 407.358 272.400 407.248 V 405.448 C 272.400 405.248 272.200 405.448 272.400 405.448 H 276.000 C 276.200 405.448 276.000 405.248 276.000 405.448 V 407.248 C 276.000 407.358 276.090 407.448 276.200 407.448 H 280.200 C 280.310 407.448 280.400 407.358 280.400 407.248 V 405.448 C 280.400 405.248 280.200 405.448 280.400 405.448 H 284.000 C 284.200 405.448 284.000 405.248 284.000 405.448 V 407.248 C 284.000 407.358 284.090 407.448 284.200 407.448 H 288.200 C 288.310 407.448 288.400 407.358 288.400 407.248 V 405.248 V 400.448 C 288.400 400.248 288.200 400.448 288.400 400.448 H 290.200 C 290.310 400.448 290.400 400.358 290.400 400.248 V 396.248 C 290.400 396.137 290.310 396.048 290.200 396.048 H 288.400 C 288.200 396.048 288.400 396.248 288.400 396.048 V 392.448 C 288.400 392.248 288.200 392.448 288.400 392.448 H 290.200 C 290.310 392.448 290.400 392.358 290.400 392.248 V 388.248 C 290.400 388.137 290.310 388.048 290.200 388.048 H 288.400 C 288.200 388.048 288.400 388.248 288.400 388.048 V 384.448 C 288.400 384.248 288.200 384.448 288.400 384.448 H 290.200 C 290.310 384.448 290.400 384.358 290.400 384.248 V 380.248 C 290.400 380.137 290.310 380.048 290.200 380.048 H 288.400 C 288.200 380.048 288.400 380.248 288.400 380.048 V 376.448 C 288.400 376.248 288.200 376.448 288.400 376.448 H 290.200 C 290.310 376.448 290.400 376.358 290.400 376.248 V 372.248 C 290.400 372.137 290.310 372.048 290.200 372.048 H 288.400 C 288.200 372.048 288.400 372.248 288.400 372.048 V 368.448 C 288.400 368.248 288.200 368.448 288.400 368.448 H 290.200 C 290.310 368.448 290.400 368.358 290.400 368.248 V 364.248 C 290.400 364.137 290.310 364.048 290.200 364.048 H 288.400 C 288.200 364.048 288.400 364.248 288.400 364.048 V 360.448 C 288.400 360.248 288.200 360.448 288.400 360.448 H 290.200 C 290.310 360.448 290.400 360.358 290.400 360.248 V 356.248 C 290.400 356.137 290.310 356.048 290.200 356.048 H 288.400 C 288.200 356.048 288.400 356.248 288.400 356.048 V 352.448 C 288.400 352.248 288.200 352.448 288.400 352.448 H 290.200 C 290.310 352.448 290.400 352.358 290.400 352.248 V 348.248 C 290.400 348.137 290.310 348.048 290.200 348.048 H 288.400 C 288.200 348.048 288.400 348.248 288.400 348.048 V 344.448 C 288.400 344.248 288.200 344.448 288.400 344.448 H 290.200 C 290.310 344.448 290.400 344.358 290.400 344.248 V 340.248 C 290.400 340.137 290.310 340.048 290.200 340.048 H 288.400 C 288.200 340.048 288.400 340.248 288.400 340.048 V 336.448 C 288.400 336.248 288.200 336.448 288.400 336.448 H 290.200 C 290.310 336.448 290.400 336.358 290.400 336.248 V 332.248 C 290.400 332.137 290.310 332.048 290.200 332.048 H 288.400 C 288.200 332.048 288.400 332.248 288.400 332.048 V 327.248 C 288.400 327.137 288.310 327.048 288.200 327.048 C 288.129 327.048 288.063 327.086 288.027 327.148 L 267.492 362.716 C 267.392 362.889 267.665 362.816 267.492 362.716 L 265.933 361.816 C 265.760 361.716 265.833 361.989 265.933 361.816 L 284.101 330.348 C 284.294 330.013 284.396 329.634 284.396 329.248 C 284.396 328.862 284.294 328.482 284.101 328.148 C 283.908 327.813 283.630 327.536 283.296 327.343 C 282.961 327.149 282.582 327.048 282.196 327.048 H 256.722 C 256.336 327.048 255.957 327.149 255.622 327.343 C 255.288 327.536 255.010 327.813 254.817 328.148 L 234.859 362.716 C 234.759 362.889 235.033 362.816 234.859 362.716 L 233.301 361.816 C 233.127 361.716 233.201 361.989 233.301 361.816 L 251.468 330.348 C 251.662 330.013 251.763 329.634 251.763 329.248 C 251.763 328.862 251.662 328.482 251.468 328.148 C 251.275 327.813 250.998 327.536 250.663 327.343 C 250.329 327.149 249.949 327.048 249.563 327.048 H 224.090 C 223.704 327.048 223.324 327.149 222.990 327.343 C 222.656 327.536 222.378 327.813 222.185 328.148 L 202.227 362.716 C 202.127 362.889 202.400 362.816 202.227 362.716 L 200.668 361.816 C 200.495 361.716 200.568 361.989 200.668 361.816 L 218.836 330.348 C 219.029 330.013 219.131 329.634 219.131 329.248 C 219.131 328.862 219.029 328.482 218.836 328.148 C 218.643 327.813 218.365 327.536 218.031 327.343 C 217.696 327.149 217.317 327.048 216.931 327.048 H 191.458 C 191.072 327.048 190.692 327.149 190.358 327.343 C 190.023 327.536 189.746 327.813 189.552 328.148 L 169.595 362.716 C 169.495 362.889 169.768 362.816 169.595 362.716 L 168.036 361.816 C 167.863 361.716 167.936 361.989 168.036 361.816 L 186.204 330.348 C 186.397 330.013 186.499 329.634 186.499 329.248 C 186.499 328.862 186.397 328.482 186.204 328.148 C 186.011 327.813 185.733 327.536 185.399 327.343 C 185.064 327.149 184.685 327.048 184.299 327.048 H 158.825 C 158.439 327.048 158.060 327.149 157.725 327.343 C 157.391 327.536 157.113 327.813 156.920 328.148 L 136.962 362.716 C 136.862 362.889 137.136 362.816 136.962 362.716 L 135.404 361.816 C 135.230 361.716 135.304 361.989 135.404 361.816 L 153.571 330.348 C 153.765 330.013 153.866 329.634 153.866 329.248 C 153.866 328.862 153.765 328.482 153.571 328.148 C 153.378 327.813 153.101 327.536 152.766 327.343 C 152.432 327.149 152.052 327.048 151.666 327.048 H 126.193 C 125.807 327.048 125.427 327.149 125.093 327.343 C 124.759 327.536 124.481 327.813 124.288 328.148 L 104.330 362.716 C 104.230 362.889 104.503 362.816 104.330 362.716 L 102.771 361.816 C 102.598 361.716 102.671 361.989 102.771 361.816 L 120.939 330.348 C 121.132 330.013 121.234 329.634 121.234 329.248 C 121.234 328.862 121.132 328.482 120.939 328.148 C 120.746 327.813 120.468 327.536 120.134 327.343 C 119.799 327.149 119.420 327.048 119.034 327.048 H 93.561 C 93.175 327.048 92.795 327.149 92.461 327.343 C 92.126 327.536 91.849 327.813 91.655 328.148 L 71.698 362.716 C 71.598 362.889 71.871 362.816 71.698 362.716 L 70.139 361.816 C 69.966 361.716 70.039 361.989 70.139 361.816 L 88.307 330.348 C 88.500 330.013 88.602 329.634 88.602 329.248 C 88.602 328.862 88.500 328.482 88.307 328.148 C 88.114 327.813 87.836 327.536 87.502 327.343 C 87.167 327.149 86.788 327.048 86.402 327.048 H 60.928 C 60.542 327.048 60.163 327.149 59.828 327.343 C 59.494 327.536 59.216 327.813 59.023 328.148 L 39.065 362.716 C 38.965 362.889 39.239 362.816 39.065 362.716 L 37.507 361.816 C 37.333 361.716 37.407 361.989 37.507 361.816 L 55.674 330.348 C 55.868 330.013 55.969 329.634 55.969 329.248 C 55.969 328.862 55.868 328.482 55.674 328.148 C 55.481 327.813 55.204 327.536 54.869 327.343 C 54.535 327.149 54.155 327.048 53.769 327.048 H 12.200 C 12.090 327.048 12.000 327.137 12.000 327.248 V 332.048 C 12.000 332.248 12.200 332.048 12.000 332.048 H 10.200 C 10.090 332.048 10.000 332.137 10.000 332.248 V 336.248 C 10.000 336.358 10.090 336.448 10.200 336.448 H 12.000 C 12.200 336.448 12.000 336.248 12.000 336.448 V 340.048 C 12.000 340.248 12.200 340.048 12.000 340.048 H 10.200 C 10.090 340.048 10.000 340.137 10.000 340.248 V 344.248 C 10.000 344.358 10.090 344.448 10.200 344.448 H 12.000 C 12.200 344.448 12.000 344.248 12.000 344.448 V 348.048 C 12.000 348.248 12.200 348.048 12.000 348.048 H 10.200 C 10.090 348.048 10.000 348.137 10.000 348.248 V 352.248 C 10.000 352.358 10.090 352.448 10.200 352.448 H 12.000 C 12.200 352.448 12.000 352.248 12.000 352.448 V 356.048 C 12.000 356.248 12.200 356.048 12.000 356.048 H 10.200 C 10.090 356.048 10.000 356.137 10.000 356.248 V 360.248 C 10.000 360.358 10.090 360.448 10.200 360.448 H 12.000 C 12.200 360.448 12.000 360.248 12.000 360.448 V 364.048 C 12.000 364.248 12.200 364.048 12.000 364.048 H 10.200 C 10.090 364.048 10.000 364.137 10.000 364.248 V 368.248 C 10.000 368.358 10.090 368.448 10.200 368.448 H 12.000 C 12.200 368.448 12.000 368.248 12.000 368.448 V 372.048 C 12.000 372.248 12.200 372.048 12.000 372.048 H 10.200 C 10.090 372.048 10.000 372.137 10.000 372.248 V 376.248 C 10.000 376.358 10.090 376.448 10.200 376.448 H 12.000 C 12.200 376.448 12.000 376.248 12.000 376.448 V 380.048 C 12.000 380.248 12.200 380.048 12.000 380.048 H 10.200 C 10.090 380.048 10.000 380.137 10.000 380.248 V 384.248 C 10.000 384.358 10.090 384.448 10.200 384.448 H 12.000 C 12.200 384.448 12.000 384.248 12.000 384.448 V 388.048 C 12.000 388.248 12.200 388.048 12.000 388.048 H 10.200 C 10.090 388.048 10.000 388.137 10.000 388.248 V 392.248 C 10.000 392.358 10.090 392.448 10.200 392.448 H 12.000 C 12.200 392.448 12.000 392.248 12.000 392.448 V 396.048 C 12.000 396.248 12.200 396.048 12.000 396.048 H 10.200 C 10.090 396.048 10.000 396.137 10.000 396.248 V 400.248 C 10.000 400.358 10.090 400.448 10.200 400.448 H 12.000 C 12.200 400.448 12.000 400.248 12.000 400.448 V 405.248 V 407.248 C 12.000 407.358 12.090 407.448 12.200 407.448 Z" stroke="rgb(0,0,0)" stroke-width="0.40" />
  <text dominant-baseline="hanging" font-size="4px" style="font-family: sans-serif ; font-weight: normal; font-style: normal; fill: rgb(255,0,0)" text-anchor="middle" transform="matrix( 1.000 0.000 0.000 1.000 150.200 365.448 )">Sidepiece 2</text>
</g>
<g id="p-5" style="fill:none;stroke-linecap:round;stroke-linejoin:round;">
  <path d="M 293.600 649.648 H 299.900 C 300.100 649.648 299.900 649.448 299.900 649.648 V 651.448 C 299.900 651.558 299.990 651.648 300.100 651.648 H 304.100 C 304.210 651.648 304.300 651.558 304.300 651.448 V 649.648 C 304.300 649.448 304.100 649.648 304.300 649.648 H 307.900 C 308.100 649.648 307.900 649.448 307.900 649.648 V 651.448 C 307.900 651.558 307.990 651.648 308.100 651.648 H 312.100 C 312.210 651.648 312.300 651.558 312.300 651.448 V 649.648 C 312.300 649.448 312.100 649.648 312.300 649.648 H 315.900 C 316.100 649.648 315.900 649.448 315.900 649.648 V 651.448 C 315.900 651.558 315.990 651.648 316.100 651.648 H 320.100 C 320.210 651.648 320.300 651.558 320.300 651.448 V 649.648 C 320.300 649.448 320.100 649.648 320.300 649.648 H 323.900 C 324.100 649.648 323.900 649.448 323.900 649.648 V 651.448 C 323.900 651.558 323.990 651.648 324.100 651.648 H 328.100 C 328.210 651.648 328.300 651.558 328.300 651.448 V 649.648 C 328.300 649.448 328.100 649.648 328.300 649.648 H 331.900 C 332.100 649.648 331.900 649.448 331.900 649.648 V 651.448 C 331.900 651.558 331.990 651.648 332.100 651.648 H 336.100 C 336.210 651.648 336.300 651.558 336.300 651.448 V 649.648 C 336.300 649.448 336.100 649.648 336.300 649.648 H 339.900 C 340.100 649.648 339.900 649.448 339.900 649.648 V 651.448 C 339.900 651.558 339.990 651.648 340.100 651.648 H 344.100 C 344.210 651.648 344.300 651.558 344.300 651.448 V 649.648 C 344.300 649.448 344.100 649.648 344.300 649.648 H 347.900 C 348.100 649.648 347.900 649.448 347.900 649.648 V 651.448 C 347.900 651.558 347.990 651.648 348.100 651.648 H 352.100 C 352.210 651.648 352.300 651.558 352.300 651.448 V 649.648 C 352.300 649.448 352.100 649.648 352.300 649.648 H 355.900 C 356.100 649.648 355.900 649.448 355.900 649.648 V 651.448 C 355.900 651.558 355.990 651.648 356.100 651.648 H 360.100 C 360.210 651.648 360.300 651.558 360.300 651.448 V 649.648 C 360.300 649.448 360.100 649.648 360.300 649.648 H 366.600 C 366.710 649.648 366.800 649.558 366.800 649.448 V 645.648 C 366.800 645.448 366.600 645.648 366.800 645.648 H 368.600 C 368.710 645.648 368.800 645.558 368.800 645.448 V 641.448 C 368.800 641.337 368.710 641.248 368.600 641.248 H 366.800 C 366.600 641.248 366.800 641.448 366.800 641.248 V 637.648 C 366.800 637.448 366.600 637.648 366.800 637.648 H 368.600 C 368.710 637.648 368.800 637.558 368.800 637.448 V 633.448 C 368.800 633.337 368.710 633.248 368.600 633.248 H 366.800 C 366.600 633.248 366.800 633.448 366.800 633.248 V 629.648 C 366.800 629.448 366.600 629.648 366.800 629.648 H 368.600 C 368.710 629.648 368.800 629.558 368.800 629.448 V 625.448 C 368.800 625.337 368.710 625.248 368.600 625.248 H 366.800 C 366.600 625.248 366.800 625.448 366.800 625.248 V 621.648 C 366.800 621.448 366.600 621.648 366.800 621.648 H 368.600 C 368.710 621.648 368.800 621.558 368.800 621.448 V 617.448 C 368.800 617.337 368.710 617.248 368.600 617.248 H 366.800 C 366.600 617.248 366.800 617.448 366.800 617.248 V 613.648 C 366.800 613.448 366.600 613.648 366.800 613.648 H 368.600 C 368.710 613.648 368.800 613.558 368.800 613.448 V 609.448 C 368.800 609.337 368.710 609.248 368.600 609.248 H 366.800 C 366.600 609.248 366.800 609.448 366.800 609.248 V 605.648 C 366.800 605.448 366.600 605.648 366.800 605.648 H 368.600 C 368.710 605.648 368.800 605.558 368.800 605.448 V 601.448 C 368.800 601.337 368.710 601.248 368.600 601.248 H 366.800 C 366.600 601.248 366.800 601.448 366.800 601.248 V 597.648 C 366.800 597.448 366.600 597.648 366.800 597.648 H 368.600 C 368.710 597.648 368.800 597.558 368.800 597.448 V 593.448 C 368.800 593.337 368.710 593.248 368.600 593.248 H 366.800 C 366.600 593.248 366.800 593.448 366.800 593.248 V 589.648 C 366.800 589.448 366.600 589.648 366.800 589.648 H 368.600 C 368.710 589.648 368.800 589.558 368.800 589.448 V 585.448 C 368.800 585.337 368.710 585.248 368.600 585.248 H 366.800 C 366.600 585.248 366.800 585.448 366.800 585.248 V 581.648 C 366.800 581.448 366.600 581.648 366.800 581.648 H 368.600 C 368.710 581.648 368.800 581.558 368.800 581.448 V 577.448 C 368.800 577.337 368.710 577.248 368.600 577.248 H 366.800 C 366.600 577.248 366.800 577.448 366.800 577.248 V 573.648 C 366.800 573.448 366.600 573.648 366.800 573.648 H 368.600 C 368.710 573.648 368.800 573.558 368.800 573.448 V 569.448 C 368.800 569.337 368.710 569.248 368.600 569.248 H 366.800 C 366.600 569.248 366.800 569.448 366.800 569.248 V 565.648 C 366.800 565.448 366.600 565.648 366.800 565.648 H 368.600 C 368.710 565.648 368.800 565.558 368.800 565.448 V 561.448 C 368.800 561.337 368.710 561.248 368.600 561.248 H 366.800 C 366.600 561.248 366.800 561.448 366.800 561.248 V 557.648 C 366.800 557.448 366.600 557.648 366.800 557.648 H 368.600 C 368.710 557.648 368.800 557.558 368.800 557.448 V 553.448 C 368.800 553.337 368.710 553.248 368.600 553.248 H 366.800 C 366.600 553.248 366.800 553.448 366.800 553.248 V 549.648 C 366.800 549.448 366.600 549.648 366.800 549.648 H 368.600 C 368.710 549.648 368.800 549.558 368.800 549.448 V 545.448 C 368.800 545.337 368.710 545.248 368.600 545.248 H 366.800 C 366.600 545.248 366.800 545.448 366.800 545.248 V 541.648 C 366.800 541.448 366.600 541.648 366.800 541.648 H 368.600 C 368.710 541.648 368.800 541.558 368.800 541.448 V 537.448 C 368.800 537.337 368.710 537.248 368.600 537.248 H 366.800 C 366.600 537.248 366.800 537.448 366.800 537.248 V 533.648 C 366.800 533.448 366.600 533.648 366.800 533.648 H 368.600 C 368.710 533.648 368.800 533.558 368.800 533.448 V 529.448 C 368.800 529.337 368.710 529.248 368.600 529.248 H 366.800 C 366.600 529.248 366.800 529.448 366.800 529.248 V 525.648 C 366.800 525.448 366.600 525.648 366.800 525.648 H 368.600 C 368.710 525.648 368.800 525.558 368.800 525.448 V 521.448 C 368.800 521.337 368.710 521.248 368.600 521.248 H 366.800 C 366.600 521.248 366.800 521.448 366.800 521.248 V 517.648 C 366.800 517.448 366.600 517.648 366.800 517.648 H 368.600 C 368.710 517.648 368.800 517.558 368.800 517.448 V 513.448 C 368.800 513.337 368.710 513.248 368.600 513.248 H 366.800 C 366.600 513.248 366.800 513.448 366.800 513.248 V 509.648 C 366.800 509.448 366.600 509.648 366.800 509.648 H 368.600 C 368.710 509.648 368.800 509.558 368.800 509.448 V 505.448 C 368.800 505.337 368.710 505.248 368.600 505.248 H 366.800 C 366.600 505.248 366.800 505.448 366.800 505.248 V 501.648 C 366.800 501.448 366.600 501.648 366.800 501.648 H 368.600 C 368.710 501.648 368.800 501.558 368.800 501.448 V 497.448 C 368.800 497.337 368.710 497.248 368.600 497.248 H 366.800 C 366.600 497.248 366.800 497.448 366.800 497.248 V 493.648 C 366.800 493.448 366.600 493.648 366.800 493.648 H 368.600 C 368.710 493.648 368.800 493.558 368.800 493.448 V 489.448 C 368.800 489.337 368.710 489.248 368.600 489.248 H 366.800 C 366.600 489.248 366.800 489.448 366.800 489.248 V 485.648 C 366.800 485.448 366.600 485.648 366.800 485.648 H 368.600 C 368.710 485.648 368.800 485.558 368.800 485.448 V 481.448 C 368.800 481.337 368.710 481.248 368.600 481.248 H 366.800 C 366.600 481.248 366.800 481.448 366.800 481.248 V 477.648 C 366.800 477.448 366.600 477.648 366.800 477.648 H 368.600 C 368.710 477.648 368.800 477.558 368.800 477.448 V 473.448 C 368.800 473.337 368.710 473.248 368.600 473.248 H 366.800 C 366.600 473.248 366.800 473.448 366.800 473.248 V 469.648 C 366.800 469.448 366.600 469.648 366.800 469.648 H 368.600 C 368.710 469.648 368.800 469.558 368.800 469.448 V 465.448 C 368.800 465.337 368.710 465.248 368.600 465.248 H 366.800 C 366.600 465.248 366.800 465.448 366.800 465.248 V 461.648 C 366.800 461.448 366.600 461.648 366.800 461.648 H 368.600 C 368.710 461.648 368.800 461.558 368.800 461.448 V 457.448 C 368.800 457.337 368.710 457.248 368.600 457.248 H 366.800 C 366.600 457.248 366.800 457.448 366.800 457.248 V 453.648 C 366.800 453.448 366.600 453.648 366.800 453.648 H 368.600 C 368.710 453.648 368.800 453.558 368.800 453.448 V 449.448 C 368.800 449.337 368.710 449.248 368.600 449.248 H 366.800 C 366.600 449.248 366.800 449.448 366.800 449.248 V 445.648 C 366.800 445.448 366.600 445.648 366.800 445.648 H 368.600 C 368.710 445.648 368.800 445.558 368.800 445.448 V 441.448 C 368.800 441.337 368.710 441.248 368.600 441.248 H 366.800 C 366.600 441.248 366.800 441.448 366.800 441.248 V 437.648 C 366.800 437.448 366.600 437.648 366.800 437.648 H 368.600 C 368.710 437.648 368.800 437.558 368.800 437.448 V 433.448 C 368.800 433.337 368.710 433.248 368.600 433.248 H 366.800 C 366.600 433.248 366.800 433.448 366.800 433.248 V 429.648 C 366.800 429.448 366.600 429.648 366.800 429.648 H 368.600 C 368.710 429.648 368.800 429.558 368.800 429.448 V 425.448 C 368.800 425.337 368.710 425.248 368.600 425.248 H 366.800 C 366.600 425.248 366.800 425.448 366.800 425.248 V 421.648 C 366.800 421.448 366.600 421.648 366.800 421.648 H 368.600 C 368.710 421.648 368.800 421.558 368.800 421.448 V 417.448 C 368.800 417.337 368.710 417.248 368.600 417.248 H 366.800 C 366.600 417.248 366.800 417.448 366.800 417.248 V 413.648 C 366.800 413.448 366.600 413.648 366.800 413.648 H 368.600 C 368.710 413.648 368.800 413.558 368.800 413.448 V 409.448 C 368.800 409.337 368.710 409.248 368.600 409.248 H 366.800 C 366.600 409.248 366.800 409.448 366.800 409.248 V 405.648 C 366.800 405.448 366.600 405.648 366.800 405.648 H 368.600 C 368.710 405.648 368.800 405.558 368.800 405.448 V 401.448 C 368.800 401.337 368.710 401.248 368.600 401.248 H 366.800 C 366.600 401.248 366.800 401.448 366.800 401.248 V 397.648 C 366.800 397.448 366.600 397.648 366.800 397.648 H 368.600 C 368.710 397.648 368.800 397.558 368.800 397.448 V 393.448 C 368.800 393.337 368.710 393.248 368.600 393.248 H 366.800 C 366.600 393.248 366.800 393.448 366.800 393.248 V 389.648 C 366.800 389.448 366.600 389.648 366.800 389.648 H 368.600 C 368.710 389.648 368.800 389.558 368.800 389.448 V 385.448 C 368.800 385.337 368.710 385.248 368.600 385.248 H 366.800 C 366.600 385.248 366.800 385.448 366.800 385.248 V 381.648 C 366.800 381.448 366.600 381.648 366.800 381.648 H 368.600 C 368.710 381.648 368.800 381.558 368.800 381.448 V 377.448 C 368.800 377.337 368.710 377.248 368.600 377.248 H 366.800 C 366.600 377.248 366.800 377.448 366.800 377.248 V 373.448 C 366.800 373.337 366.710 373.248 366.600 373.248 H 360.300 C 360.100 373.248 360.300 373.448 360.300 373.248 V 371.448 C 360.300 371.337 360.210 371.248 360.100 371.248 H 356.100 C 355.990 371.248 355.900 371.337 355.900 371.448 V 373.248 C 355.900 373.448 356.100 373.248 355.900 373.248 H 352.300 C 352.100 373.248 352.300 373.448 352.300 373.248 V 371.448 C 352.300 371.337 352.210 371.248 352.100 371.248 H 348.100 C 347.990 371.248 347.900 371.337 347.900 371.448 V 373.248 C 347.900 373.448 348.100 373.248 347.900 373.248 H 344.300 C 344.100 373.248 344.300 373.448 344.300 373.248 V 371.448 C 344.300 371.337 344.210 371.248 344.100 371.248 H 340.100 C 339.990 371.248 339.900 371.337 339.900 371.448 V 373.248 C 339.900 373.448 340.100 373.248 339.900 373.248 H 336.300 C 336.100 373.248 336.300 373.448 336.300 373.248 V 371.448 C 336.300 371.337 336.210 371.248 336.100 371.248 H 332.100 C 331.990 371.248 331.900 371.337 331.900 371.448 V 373.248 C 331.900 373.448 332.100 373.248 331.900 373.248 H 328.300 C 328.100 373.248 328.300 373.448 328.300 373.248 V 371.448 C 328.300 371.337 328.210 371.248 328.100 371.248 H 324.100 C 323.990 371.248 323.900 371.337 323.900 371.448 V 373.248 C 323.900 373.448 324.100 373.248 323.900 373.248 H 320.300 C 320.100 373.248 320.300 373.448 320.300 373.248 V 371.448 C 320.300 371.337 320.210 371.248 320.100 371.248 H 316.100 C 315.990 371.248 315.900 371.337 315.900 371.448 V 373.248 C 315.900 373.448 316.100 373.248 315.900 373.248 H 312.300 C 312.100 373.248 312.300 373.448 312.300 373.248 V 371.448 C 312.300 371.337 312.210 371.248 312.100 371.248 H 308.100 C 307.990 371.248 307.900 371.337 307.900 371.448 V 373.248 C 307.900 373.448 308.100 373.248 307.900 373.248 H 304.300 C 304.100 373.248 304.300 373.448 304.300 373.248 V 371.448 C 304.300 371.337 304.210 371.248 304.100 371.248 H 300.100 C 299.990 371.248 299.900 371.337 299.900 371.448 V 373.248 C 299.900 373.448 300.100 373.248 299.900 373.248 H 293.600 C 293.490 373.248 293.400 373.337 293.400 373.448 V 377.248 C 293.400 377.448 293.600 377.248 293.400 377.248 H 291.600 C 291.490 377.248 291.400 377.337 291.400 377.448 V 381.448 C 291.400 381.558 291.490 381.648 291.600 381.648 H 293.400 C 293.600 381.648 293.400 381.448 293.400 381.648 V 385.248 C 293.400 385.448 293.600 385.248 293.400 385.248 H 291.600 C 291.490 385.248 291.400 385.337 291.400 385.448 V 389.448 C 291.400 389.558 291.490 389.648 291.600 389.648 H 293.400 C 293.600 389.648 293.400 389.448 293.400 389.648 V 393.248 C 293.400 393.448 293.600 393.248 293.400 393.248 H 291.600 C 291.490 393.248 291.400 393.337 291.400 393.448 V 397.448 C 291.400 397.558 291.490 397.648 291.600 397.648 H 293.400 C 293.600 397.648 293.400 397.448 293.400 397.648 V 401.248 C 293.400 401.448 293.600 401.248 293.400 401.248 H 291.600 C 291.490 401.248 291.400 401.337 291.400 401.448 V 405.448 C 291.400 405.558 291.490 405.648 291.600 405.648 H 293.400 C 293.600 405.648 293.400 405.448 293.400 405.648 V 409.248 C 293.400 409.448 293.600 409.248 293.400 409.248 H 291.600 C 291.490 409.248 291.400 409.337 291.400 409.448 V 413.448 C 291.400 413.558 291.490 413.648 291.600 413.648 H 293.400 C 293.600 413.648 293.400 413.448 293.400 413.648 V 417.248 C 293.400 417.448 293.600 417.248 293.400 417.248 H 291.600 C 291.490 417.248 291.400 417.337 291.400 417.448 V 421.448 C 291.400 421.558 291.490 421.648 291.600 421.648 H 293.400 C 293.600 421.648 293.400 421.448 293.400 421.648 V 425.248 C 293.400 425.448 293.600 425.248 293.400 425.248 H 291.600 C 291.490 425.248 291.400 425.337 291.400 425.448 V 429.448 C 291.400 429.558 291.490 429.648 291.600 429.648 H 293.400 C 293.600 429.648 293.400 429.448 293.400 429.648 V 433.248 C 293.400 433.448 293.600 433.248 293.400 433.248 H 291.600 C 291.490 433.248 291.400 433.337 291.400 433.448 V 437.448 C 291.400 437.558 291.490 437.648 291.600 437.648 H 293.400 C 293.600 437.648 293.400 437.448 293.400 437.648 V 441.248 C 293.400 441.448 293.600 441.248 293.400 441.248 H 291.600 C 291.490 441.248 291.400 441.337 291.400 441.448 V 445.448 C 291.400 445.558 291.490 445.648 291.600 445.648 H 293.400 C 293.600 445.648 293.400 445.448 293.400 445.648 V 449.248 C 293.400 449.448 293.600 449.248 293.400 449.248 H 291.600 C 291.490 449.248 291.400 449.337 291.400 449.448 V 453.448 C 291.400 453.558 291.490 453.648 291.600 453.648 H 293.400 C 293.600 453.648 293.400 453.448 293.400 453.648 V 457.248 C 293.400 457.448 293.600 457.248 293.400 457.248 H 291.600 C 291.490 457.248 291.400 457.337 291.400 457.448 V 461.448 C 291.400 461.558 291.490 461.648 291.600 461.648 H 293.400 C 293.600 461.648 293.400 461.448 293.400 461.648 V 465.248 C 293.400 465.448 293.600 465.248 293.400 465.248 H 291.600 C 291.490 465.248 291.400 465.337 291.400 465.448 V 469.448 C 291.400 469.558 291.490 469.648 291.600 469.648 H 293.400 C 293.600 469.648 293.400 469.448 293.400 469.648 V 473.248 C 293.400 473.448 293.600 473.248 293.400 473.248 H 291.600 C 291.490 473.248 291.400 473.337 291.400 473.448 V 477.448 C 291.400 477.558 291.490 477.648 291.600 477.648 H 293.400 C 293.600 477.648 293.400 477.448 293.400 477.648 V 481.248 C 293.400 481.448 293.600 481.248 293.400 481.248 H 291.600 C 291.490 481.248 291.400 481.337 291.400 481.448 V 485.448 C 291.400 485.558 291.490 485.648 291.600 485.648 H 293.400 C 293.600 485.648 293.400 485.448 293.400 485.648 V 489.248 C 293.400 489.448 293.600 489.248 293.400 489.248 H 291.600 C 291.490 489.248 291.400 489.337 291.400 489.448 V 493.448 C 291.400 493.558 291.490 493.648 291.600 493.648 H 293.400 C 293.600 493.648 293.400 493.448 293.400 493.648 V 497.248 C 293.400 497.448 293.600 497.248 293.400 497.248 H 291.600 C 291.490 497.248 291.400 497.337 291.400 497.448 V 501.448 C 291.400 501.558 291.490 501.648 291.600 501.648 H 293.400 C 293.600 501.648 293.400 501.448 293.400 501.648 V 505.248 C 293.400 505.448 293.600 505.248 293.400 505.248 H 291.600 C 291.490 505.248 291.400 505.337 291.400 505.448 V 509.448 C 291.400 509.558 291.490 509.648 291.600 509.648 H 293.400 C 293.600 509.648 293.400 509.448 293.400 509.648 V 513.248 C 293.400 513.448 293.600 513.248 293.400 513.248 H 291.600 C 291.490 513.248 291.400 513.337 291.400 513.448 V 517.448 C 291.400 517.558 291.490 517.648 291.600 517.648 H 293.400 C 293.600 517.648 293.400 517.448 293.400 517.648 V 521.248 C 293.400 521.448 293.600 521.248 293.400 521.248 H 291.600 C 291.490 521.248 291.400 521.337 291.400 521.448 V 525.448 C 291.400 525.558 291.490 525.648 291.600 525.648 H 293.400 C 293.600 525.648 293.400 525.448 293.400 525.648 V 529.248 C 293.400 529.448 293.600 529.248 293.400 529.248 H 291.600 C 291.490 529.248 291.400 529.337 291.400 529.448 V 533.448 C 291.400 533.558 291.490 533.648 291.600 533.648 H 293.400 C 293.600 533.648 293.400 533.448 293.400 533.648 V 537.248 C 293.400 537.448 293.600 537.248 293.400 537.248 H 291.600 C 291.490 537.248 291.400 537.337 291.400 537.448 V 541.448 C 291.400 541.558 291.490 541.648 291.600 541.648 H 293.400 C 293.600 541.648 293.400 541.448 293.400 541.648 V 545.248 C 293.400 545.448 293.600 545.248 293.400 545.248 H 291.600 C 291.490 545.248 291.400 545.337 291.400 545.448 V 549.448 C 291.400 549.558 291.490 549.648 291.600 549.648 H 293.400 C 293.600 549.648 293.400 549.448 293.400 549.648 V 553.248 C 293.400 553.448 293.600 553.248 293.400 553.248 H 291.600 C 291.490 553.248 291.400 553.337 291.400 553.448 V 557.448 C 291.400 557.558 291.490 557.648 291.600 557.648 H 293.400 C 293.600 557.648 293.400 557.448 293.400 557.648 V 561.248 C 293.400 561.448 293.600 561.248 293.400 561.248 H 291.600 C 291.490 561.248 291.400 561.337 291.400 561.448 V 565.448 C 291.400 565.558 291.490 565.648 291.600 565.648 H 293.400 C 293.600 565.648 293.400 565.448 293.400 565.648 V 569.248 C 293.400 569.448 293.600 569.248 293.400 569.248 H 291.600 C 291.490 569.248 291.400 569.337 291.400 569.448 V 573.448 C 291.400 573.558 291.490 573.648 291.600 573.648 H 293.400 C 293.600 573.648 293.400 573.448 293.400 573.648 V 577.248 C 293.400 577.448 293.600 577.248 293.400 577.248 H 291.600 C 291.490 577.248 291.400 577.337 291.400 577.448 V 581.448 C 291.400 581.558 291.490 581.648 291.600 581.648 H 293.400 C 293.600 581.648 293.400 581.448 293.400 581.648 V 585.248 C 293.400 585.448 293.600 585.248 293.400 585.248 H 291.600 C 291.490 585.248 291.400 585.337 291.400 585.448 V 589.448 C 291.400 589.558 291.490 589.648 291.600 589.648 H 293.400 C 293.600 589.648 293.400 589.448 293.400 589.648 V 593.248 C 293.400 593.448 293.600 593.248 293.400 593.248 H 291.600 C 291.490 593.248 291.400 593.337 291.400 593.448 V 597.448 C 291.400 597.558 291.490 597.648 291.600 597.648 H 293.400 C 293.600 597.648 293.400 597.448 293.400 597.648 V 601.248 C 293.400 601.448 293.600 601.248 293.400 601.248 H 291.600 C 291.490 601.248 291.400 601.337 291.400 601.448 V 605.448 C 291.400 605.558 291.490 605.648 291.600 605.648 H 293.400 C 293.600 605.648 293.400 605.448 293.400 605.648 V 609.248 C 293.400 609.448 293.600 609.248 293.400 609.248 H 291.600 C 291.490 609.248 291.400 609.337 291.400 609.448 V 613.448 C 291.400 613.558 291.490 613.648 291.600 613.648 H 293.400 C 293.600 613.648 293.400 613.448 293.400 613.648 V 617.248 C 293.400 617.448 293.600 617.248 293.400 617.248 H 291.600 C 291.490 617.248 291.400 617.337 291.400 617.448 V 621.448 C 291.400 621.558 291.490 621.648 291.600 621.648 H 293.400 C 293.600 621.648 293.400 621.448 293.400 621.648 V 625.248 C 293.400 625.448 293.600 625.248 293.400 625.248 H 291.600 C 291.490 625.248 291.400 625.337 291.400 625.448 V 629.448 C 291.400 629.558 291.490 629.648 291.600 629.648 H 293.400 C 293.600 629.648 293.400 629.448 293.400 629.648 V 633.248 C 293.400 633.448 293.600 633.248 293.400 633.248 H 291.600 C 291.490 633.248 291.400 633.337 291.400 633.448 V 637.448 C 291.400 637.558 291.490 637.648 291.600 637.648 H 293.400 C 293.600 637.648 293.400 637.448 293.400 637.648 V 641.248 C 293.400 641.448 293.600 641.248 293.400 641.248 H 291.600 C 291.490 641.248 291.400 641.337 291.400 641.448 V 645.448 C 291.400 645.558 291.490 645.648 291.600 645.648 H 293.400 C 293.600 645.648 293.400 645.448 293.400 645.648 V 649.448 C 293.400 649.558 293.490 649.648 293.600 649.648 Z" stroke="rgb(0,0,0)" stroke-width="0.40" />
  <text dominant-baseline="hanging" font-size="4px" style="font-family: sans-serif ; font-weight: normal; font-style: normal; fill: rgb(255,0,0)" text-anchor="middle" transform="matrix( 1.000 0.000 0.000 1.000 330.100 509.648 )">Bottom</text>
</g>
<g id="p-6" style="fill:none;stroke-linecap:round;stroke-linejoin:round;">
  <path d="M 291.600 370.248 H 293.550 H 311.883 C 312.094 370.248 312.301 370.192 312.483 370.087 C 312.666 369.982 312.817 369.830 312.923 369.648 C 313.028 369.465 313.083 369.258 313.083 369.048 V 353.048 C 313.083 351.679 313.444 350.334 314.128 349.148 C 314.813 347.962 315.798 346.977 316.983 346.293 C 318.169 345.608 319.514 345.248 320.883 345.248 H 339.217 C 340.586 345.248 341.931 345.608 343.117 346.293 C 344.302 346.977 345.287 347.962 345.972 349.148 C 346.656 350.334 347.017 351.679 347.017 353.048 V 369.048 C 347.017 369.258 347.072 369.465 347.177 369.648 C 347.283 369.830 347.434 369.982 347.617 370.087 C 347.799 370.192 348.006 370.248 348.217 370.248 H 366.550 H 368.500 C 368.610 370.248 368.700 370.158 368.700 370.048 V 330.048 C 368.700 329.937 368.610 329.848 368.500 329.848 H 366.700 C 366.500 329.848 366.700 330.048 366.700 329.848 V 281.136 C 366.700 281.025 366.610 280.936 366.500 280.936 H 293.600 C 293.490 280.936 293.400 281.025 293.400 281.136 V 329.848 C 293.400 330.048 293.600 329.848 293.400 329.848 H 291.600 C 291.490 329.848 291.400 329.937 291.400 330.048 V 370.048 C 291.400 370.158 291.490 370.248 291.600 370.248 Z" stroke="rgb(0,0,0)" stroke-width="0.40" />
  <text dominant-baseline="hanging" font-size="4px" style="font-family: sans-serif ; font-weight: normal; font-style: normal; fill: rgb(255,0,0)" text-anchor="middle" transform="matrix( 1.000 0.000 0.000 1.000 330.100 323.792 )">Divider</text>
</g>
<g id="p-7" style="fill:none;stroke-linecap:round;stroke-linejoin:round;">
  <path d="M 291.600 279.936 H 293.550 H 311.883 C 312.094 279.936 312.301 279.880 312.483 279.775 C 312.666 279.670 312.817 279.518 312.923 279.336 C 313.028 279.153 313.083 278.946 313.083 278.736 V 262.736 C 313.083 261.367 313.444 260.022 314.128 258.836 C 314.813 257.650 315.798 256.665 316.983 255.981 C 318.169 255.296 319.514 254.936 320.883 254.936 H 339.217 C 340.586 254.936 341.931 255.296 343.117 255.981 C 344.302 256.665 345.287 257.650 345.972 258.836 C 346.656 260.022 347.017 261.367 347.017 262.736 V 278.736 C 347.017 278.946 347.072 279.153 347.177 279.336 C 347.283 279.518 347.434 279.670 347.617 279.775 C 347.799 279.880 348.006 279.936 348.217 279.936 H 366.550 H 368.500 C 368.610 279.936 368.700 279.846 368.700 279.736 V 239.736 C 368.700 239.625 368.610 239.536 368.500 239.536 H 366.700 C 366.500 239.536 366.700 239.736 366.700 239.536 V 190.824 C 366.700 190.713 366.610 190.624 366.500 190.624 H 293.600 C 293.490 190.624 293.400 190.713 293.400 190.824 V 239.536 C 293.400 239.736 293.600 239.536 293.400 239.536 H 291.600 C 291.490 239.536 291.400 239.625 291.400 239.736 V 279.736 C 291.400 279.846 291.490 279.936 291.600 279.936 Z" stroke="rgb(0,0,0)" stroke-width="0.40" />
  <text dominant-baseline="hanging" font-size="4px" style="font-family: sans-serif ; font-weight: normal; font-style: normal; fill: rgb(255,0,0)" text-anchor="middle" transform="matrix( 1.000 0.000 0.000 1.000 330.100 233.480 )">Divider</text>
</g>
<g id="p-8" style="fill:none;stroke-linecap:round;stroke-linejoin:round;">
  <path d="M 291.600 189.624 H 292.550 H 310.883 C 311.094 189.624 311.301 189.568 311.483 189.463 C 311.666 189.358 311.817 189.206 311.923 189.024 C 312.028 188.841 312.083 188.635 312.083 188.424 V 172.424 C 312.083 171.055 312.444 169.710 313.128 168.524 C 313.813 167.338 314.798 166.353 315.983 165.669 C 317.169 164.984 318.514 164.624 319.883 164.624 H 338.217 C 339.586 164.624 340.931 164.984 342.117 165.669 C 343.302 166.353 344.287 167.338 344.972 168.524 C 345.656 169.710 346.017 171.055 346.017 172.424 V 188.424 C 346.017 188.635 346.072 188.841 346.177 189.024 C 346.283 189.206 346.434 189.358 346.617 189.463 C 346.799 189.568 347.006 189.624 347.217 189.624 H 365.550 H 366.500 C 366.610 189.624 366.700 189.534 366.700 189.424 V 149.424 C 366.700 149.313 366.610 149.224 366.500 149.224 H 365.700 C 365.500 149.224 365.700 149.424 365.700 149.224 V 100.512 C 365.700 100.401 365.610 100.312 365.500 100.312 H 292.600 C 292.490 100.312 292.400 100.401 292.400 100.512 V 149.224 C 292.400 149.424 292.600 149.224 292.400 149.224 H 291.600 C 291.490 149.224 291.400 149.313 291.400 149.424 V 189.424 C 291.400 189.534 291.490 189.624 291.600 189.624 Z" stroke="rgb(0,0,0)" stroke-width="0.40" />
  <text dominant-baseline="hanging" font-size="4px" style="font-family: sans-serif ; font-weight: normal; font-style: normal; fill: rgb(255,0,0)" text-anchor="middle" transform="matrix( 1.000 0.000 0.000 1.000 329.100 143.168 )">Divider</text>
</g>
<g id="p-9" style="fill:none;stroke-linecap:round;stroke-linejoin:round;">
  <path d="M 293.550 99.312 H 311.883 C 312.094 99.312 312.301 99.256 312.483 99.151 C 312.666 99.046 312.817 98.894 312.923 98.712 C 313.028 98.530 313.083 98.323 313.083 98.112 V 82.112 C 313.083 80.743 313.444 79.398 314.128 78.212 C 314.813 77.026 315.798 76.042 316.983 75.357 C 318.169 74.672 319.514 74.312 320.883 74.312 H 339.217 C 340.586 74.312 341.931 74.672 343.117 75.357 C 344.302 76.042 345.287 77.026 345.972 78.212 C 346.656 79.398 347.017 80.743 347.017 82.112 V 98.112 C 347.017 98.323 347.072 98.530 347.177 98.712 C 347.283 98.894 347.434 99.046 347.617 99.151 C 347.799 99.256 348.006 99.312 348.217 99.312 H 366.550 H 368.500 C 368.610 99.312 368.700 99.222 368.700 99.112 V 79.162 C 368.700 79.051 368.610 78.962 368.500 78.962 H 366.700 C 366.500 78.962 366.700 79.162 366.700 78.962 V 10.200 C 366.700 10.090 366.610 10.000 366.500 10.000 H 293.600 C 293.490 10.000 293.400 10.090 293.400 10.200 V 58.912 C 293.400 59.112 293.600 58.912 293.400 58.912 H 291.600 C 291.490 58.912 291.400 59.001 291.400 59.112 V 79.112 C 291.400 79.222 291.490 79.312 291.600 79.312 H 293.350 C 293.550 79.312 293.350 79.112 293.350 79.312 V 99.112 C 293.350 99.222 293.440 99.312 293.550 99.312 Z" stroke="rgb(0,0,0)" stroke-width="0.40" />
  <text dominant-baseline="hanging" font-size="4px" style="font-family: sans-serif ; font-weight: normal; font-style: normal; fill: rgb(255,0,0)" text-anchor="middle" transform="matrix( 1.000 0.000 0.000 1.000 330.100 52.856 )">Divider</text>
</g>
</svg>