<?xml version="1.0" encoding="UTF-8" standalone="no"?>
<svg
   height="1189mm"
   viewBox="0 0 841.00003 1189"
   width="841mm"
   version="1.1"
   id="svg10"
   sodipodi:docname="SoB Card Box.svg"
   xml:space="preserve"
   inkscape:version="1.4.2 (ebf0e94, 2025-05-08)"
   xmlns:inkscape="http://www.inkscape.org/namespaces/inkscape"
   xmlns:sodipodi="http://sodipodi.sourceforge.net/DTD/sodipodi-0.dtd"
   xmlns="http://www.w3.org/2000/svg"
   xmlns:svg="http://www.w3.org/2000/svg"
   xmlns:rdf="http://www.w3.org/1999/02/22-rdf-syntax-ns#"
   xmlns:cc="http://creativecommons.org/ns#"
   xmlns:dc="http://purl.org/dc/elements/1.1/"><defs
     id="defs10" /><sodipodi:namedview
     id="namedview10"
     pagecolor="#ffffff"
     bordercolor="#000000"
     borderopacity="0.25"
     inkscape:showpageshadow="2"
     inkscape:pageopacity="0.0"
     inkscape:pagecheckerboard="0"
     inkscape:deskcolor="#d1d1d1"
     inkscape:document-units="mm"
     inkscape:zoom="0.11216147"
     inkscape:cx="900.48746"
     inkscape:cy="1671.697"
     inkscape:window-width="1920"
     inkscape:window-height="1009"
     inkscape:window-x="-8"
     inkscape:window-y="-8"
     inkscape:window-maximized="1"
     inkscape:current-layer="svg10"><inkscape:page
       x="0"
       y="0"
       width="841"
       height="1189"
       id="page10"
       margin="0"
       bleed="0" /><inkscape:page
       x="284.25351"
       y="-57.794281"
       width="0"
       height="0"
       id="page11"
       margin="0"
       bleed="0" /></sodipodi:namedview><!--
DividerTray - Divider tray - rows and dividers



Adding '0:' at the start of the sy parameter adds a slot at the very back. Adding ':0' at the end of sy adds a slot meeting the bottom at the very front. This is especially useful if slot angle is set above zero.

There are 4 different sets of dividers rendered:

* With asymmetric tabs so the tabs fit on top of each other
* With tabs of half wall thickness that can go side by side
* With tabs of a full wall thickness
* One single divider spanning across all columns

You will likely need to cut each of the dividers you want multiple times.



Created with Boxes.py (https://boxes.hackerspace-bamberg.de/)
Creation date: 2026-03-22 23:50:07
Command line (remove spaces between dashes): boxes DividerTray - -Slot_angle=30 - -Slot_depth=40 - -Notch_depth=25 - -sx=77 '- -sy=0:40*7:0' - -h=80 - -notches_in_wall=0 - -bottom=0 - -bottom=1 - -thickness=2 - -burn=0.2 - -reference=285 - -spacing=0.5
Url: https://boxes.hackerspace-bamberg.de/DividerTray?FingerJoint_style=rectangular&FingerJoint_surroundingspaces=2.0&FingerJoint_bottom_lip=0.0&FingerJoint_edge_width=1.0&FingerJoint_extra_length=0.0&FingerJoint_finger=2.0&FingerJoint_play=0.0&FingerJoint_space=2.0&FingerJoint_width=1.0&HandleEdge_height=20&HandleEdge_hole_height=75.0&HandleEdge_hole_width=40%3A40&HandleEdge_on_sides=0&HandleEdge_on_sides=1&HandleEdge_radius=10.0&HandleEdge_outset=1.0&Lid_handle=none&Lid_style=none&Lid_handle_height=8&Lid_height=4&Lid_play=0.1&Slot_angle=30&Slot_depth=40&Slot_extra_slack=0.2&Slot_radius=2&Notch_depth=25&Notch_lower_radius=8&Notch_upper_radius=1&Divider_bottom_margin=0&Divider_play=0.05&sx=77&sy=0%3A40*7%3A0&h=80&outside=0&outside=1&notches_in_wall=0&left_wall=0&left_wall=1&right_wall=0&right_wall=1&bottom=0&bottom=1&handle=0&thickness=2&burn=0.2&format=svg&labels=0&labels=1&reference=285&tabs=0.0&qr_code=0&inner_corners=loop&spacing=0.5&debug=0&language=en&render=2
Url short: https://boxes.hackerspace-bamberg.de/DividerTray?Slot_angle=30&Slot_depth=40&Notch_depth=25&sx=77&sy=0%3A40*7%3A0&h=80&notches_in_wall=0&bottom=0&bottom=1&thickness=2&burn=0.2&reference=285&spacing=0.5
SettingsUrl: https://boxes.hackerspace-bamberg.de/DividerTray?FingerJoint_style=rectangular&FingerJoint_surroundingspaces=2.0&FingerJoint_bottom_lip=0.0&FingerJoint_edge_width=1.0&FingerJoint_extra_length=0.0&FingerJoint_finger=2.0&FingerJoint_play=0.0&FingerJoint_space=2.0&FingerJoint_width=1.0&HandleEdge_height=20&HandleEdge_hole_height=75.0&HandleEdge_hole_width=40%3A40&HandleEdge_on_sides=0&HandleEdge_on_sides=1&HandleEdge_radius=10.0&HandleEdge_outset=1.0&Lid_handle=none&Lid_style=none&Lid_handle_height=8&Lid_height=4&Lid_play=0.1&Slot_angle=30&Slot_depth=40&Slot_extra_slack=0.2&Slot_radius=2&Notch_depth=25&Notch_lower_radius=8&Notch_upper_radius=1&Divider_bottom_margin=0&Divider_play=0.05&sx=77&sy=0%3A40*7%3A0&h=80&outside=0&outside=1&notches_in_wall=0&left_wall=0&left_wall=1&right_wall=0&right_wall=1&bottom=0&bottom=1&handle=0&thickness=2&burn=0.2&format=svg&labels=0&labels=1&reference=285&tabs=0.0&qr_code=0&inner_corners=loop&spacing=0.5&debug=0&language=en&render=2
SettingsUrl short: https://boxes.hackerspace-bamberg.de/DividerTray?Slot_angle=30&Slot_depth=40&Notch_depth=25&sx=77&sy=0%3A40*7%3A0&h=80&notches_in_wall=0&bottom=0&bottom=1&thickness=2&burn=0.2&reference=285&spacing=0.5
--><title
     id="title1">DividerTray</title><metadata
     id="metadata1"><rdf:RDF><cc:Work><dc:title>DividerTray</dc:title><dc:date>2026-03-22 23:50:07</dc:date><dc:source>https://boxes.hackerspace-bamberg.de/DividerTray?FingerJoint_style=rectangular&amp;FingerJoint_surroundingspaces=2.0&amp;FingerJoint_bottom_lip=0.0&amp;FingerJoint_edge_width=1.0&amp;FingerJoint_extra_length=0.0&amp;FingerJoint_finger=2.0&amp;FingerJoint_play=0.0&amp;FingerJoint_space=2.0&amp;FingerJoint_width=1.0&amp;HandleEdge_height=20&amp;HandleEdge_hole_height=75.0&amp;HandleEdge_hole_width=40%3A40&amp;HandleEdge_on_sides=0&amp;HandleEdge_on_sides=1&amp;HandleEdge_radius=10.0&amp;HandleEdge_outset=1.0&amp;Lid_handle=none&amp;Lid_style=none&amp;Lid_handle_height=8&amp;Lid_height=4&amp;Lid_play=0.1&amp;Slot_angle=30&amp;Slot_depth=40&amp;Slot_extra_slack=0.2&amp;Slot_radius=2&amp;Notch_depth=25&amp;Notch_lower_radius=8&amp;Notch_upper_radius=1&amp;Divider_bottom_margin=0&amp;Divider_play=0.05&amp;sx=77&amp;sy=0%3A40*7%3A0&amp;h=80&amp;outside=0&amp;outside=1&amp;notches_in_wall=0&amp;left_wall=0&amp;left_wall=1&amp;right_wall=0&amp;right_wall=1&amp;bottom=0&amp;bottom=1&amp;handle=0&amp;thickness=2&amp;burn=0.2&amp;format=svg&amp;labels=0&amp;labels=1&amp;reference=285&amp;tabs=0.0&amp;qr_code=0&amp;inner_corners=loop&amp;spacing=0.5&amp;debug=0&amp;language=en&amp;render=2</dc:source><dc:source>https://boxes.hackerspace-bamberg.de/DividerTray?Slot_angle=30&amp;Slot_depth=40&amp;Notch_depth=25&amp;sx=77&amp;sy=0%3A40*7%3A0&amp;h=80&amp;notches_in_wall=0&amp;bottom=0&amp;bottom=1&amp;thickness=2&amp;burn=0.2&amp;reference=285&amp;spacing=0.5</dc:source><dc:description>Divider tray - rows and dividers


Adding '0:' at the start of the sy parameter adds a slot at the very back. Adding ':0' at the end of sy adds a slot meeting the bottom at the very front. This is especially useful if slot angle is set above zero.

There are 4 different sets of dividers rendered:

* With asymmetric tabs so the tabs fit on top of each other
* With tabs of half wall thickness that can go side by side
* With tabs of a full wall thickness
* One single divider spanning across all columns

You will likely need to cut each of the dividers you want multiple times.


Created with Boxes.py (https://boxes.hackerspace-bamberg.de/)
Command line: boxes DividerTray --FingerJoint_style=rectangular --FingerJoint_surroundingspaces=2.0 --FingerJoint_bottom_lip=0.0 --FingerJoint_edge_width=1.0 --FingerJoint_extra_length=0.0 --FingerJoint_finger=2.0 --FingerJoint_play=0.0 --FingerJoint_space=2.0 --FingerJoint_width=1.0 --HandleEdge_height=20 --HandleEdge_hole_height=75.0 --HandleEdge_hole_width=40:40 --HandleEdge_on_sides=0 --HandleEdge_on_sides=1 --HandleEdge_radius=10.0 --HandleEdge_outset=1.0 --Lid_handle=none --Lid_style=none --Lid_handle_height=8 --Lid_height=4 --Lid_play=0.1 --Slot_angle=30 --Slot_depth=40 --Slot_extra_slack=0.2 --Slot_radius=2 --Notch_depth=25 --Notch_lower_radius=8 --Notch_upper_radius=1 --Divider_bottom_margin=0 --Divider_play=0.05 --sx=77 '--sy=0:40*7:0' --h=80 --outside=0 --outside=1 --notches_in_wall=0 --left_wall=0 --left_wall=1 --right_wall=0 --right_wall=1 --bottom=0 --bottom=1 --handle=0 --thickness=2 --burn=0.2 --format=svg --labels=0 --labels=1 --reference=285 --tabs=0.0 --qr_code=0 --inner_corners=loop --spacing=0.5 --debug=0
Command line short: boxes DividerTray --Slot_angle=30 --Slot_depth=40 --Notch_depth=25 --sx=77 '--sy=0:40*7:0' --h=80 --notches_in_wall=0 --bottom=0 --bottom=1 --thickness=2 --burn=0.2 --reference=285 --spacing=0.5
Url: https://boxes.hackerspace-bamberg.de/DividerTray?FingerJoint_style=rectangular&amp;FingerJoint_surroundingspaces=2.0&amp;FingerJoint_bottom_lip=0.0&amp;FingerJoint_edge_width=1.0&amp;FingerJoint_extra_length=0.0&amp;FingerJoint_finger=2.0&amp;FingerJoint_play=0.0&amp;FingerJoint_space=2.0&amp;FingerJoint_width=1.0&amp;HandleEdge_height=20&amp;HandleEdge_hole_height=75.0&amp;HandleEdge_hole_width=40%3A40&amp;HandleEdge_on_sides=0&amp;HandleEdge_on_sides=1&amp;HandleEdge_radius=10.0&amp;HandleEdge_outset=1.0&amp;Lid_handle=none&amp;Lid_style=none&amp;Lid_handle_height=8&amp;Lid_height=4&amp;Lid_play=0.1&amp;Slot_angle=30&amp;Slot_depth=40&amp;Slot_extra_slack=0.2&amp;Slot_radius=2&amp;Notch_depth=25&amp;Notch_lower_radius=8&amp;Notch_upper_radius=1&amp;Divider_bottom_margin=0&amp;Divider_play=0.05&amp;sx=77&amp;sy=0%3A40*7%3A0&amp;h=80&amp;outside=0&amp;outside=1&amp;notches_in_wall=0&amp;left_wall=0&amp;left_wall=1&amp;right_wall=0&amp;right_wall=1&amp;bottom=0&amp;bottom=1&amp;handle=0&amp;thickness=2&amp;burn=0.2&amp;format=svg&amp;labels=0&amp;labels=1&amp;reference=285&amp;tabs=0.0&amp;qr_code=0&amp;inner_corners=loop&amp;spacing=0.5&amp;debug=0&amp;language=en&amp;render=2
Url short: https://boxes.hackerspace-bamberg.de/DividerTray?Slot_angle=30&amp;Slot_depth=40&amp;Notch_depth=25&amp;sx=77&amp;sy=0%3A40*7%3A0&amp;h=80&amp;notches_in_wall=0&amp;bottom=0&amp;bottom=1&amp;thickness=2&amp;burn=0.2&amp;reference=285&amp;spacing=0.5
SettingsUrl: https://boxes.hackerspace-bamberg.de/DividerTray?FingerJoint_style=rectangular&amp;FingerJoint_surroundingspaces=2.0&amp;FingerJoint_bottom_lip=0.0&amp;FingerJoint_edge_width=1.0&amp;FingerJoint_extra_length=0.0&amp;FingerJoint_finger=2.0&amp;FingerJoint_play=0.0&amp;FingerJoint_space=2.0&amp;FingerJoint_width=1.0&amp;HandleEdge_height=20&amp;HandleEdge_hole_height=75.0&amp;HandleEdge_hole_width=40%3A40&amp;HandleEdge_on_sides=0&amp;HandleEdge_on_sides=1&amp;HandleEdge_radius=10.0&amp;HandleEdge_outset=1.0&amp;Lid_handle=none&amp;Lid_style=none&amp;Lid_handle_height=8&amp;Lid_height=4&amp;Lid_play=0.1&amp;Slot_angle=30&amp;Slot_depth=40&amp;Slot_extra_slack=0.2&amp;Slot_radius=2&amp;Notch_depth=25&amp;Notch_lower_radius=8&amp;Notch_upper_radius=1&amp;Divider_bottom_margin=0&amp;Divider_play=0.05&amp;sx=77&amp;sy=0%3A40*7%3A0&amp;h=80&amp;outside=0&amp;outside=1&amp;notches_in_wall=0&amp;left_wall=0&amp;left_wall=1&amp;right_wall=0&amp;right_wall=1&amp;bottom=0&amp;bottom=1&amp;handle=0&amp;thickness=2&amp;burn=0.2&amp;format=svg&amp;labels=0&amp;labels=1&amp;reference=285&amp;tabs=0.0&amp;qr_code=0&amp;inner_corners=loop&amp;spacing=0.5&amp;debug=0&amp;language=en&amp;render=2
SettingsUrl short: https://boxes.hackerspace-bamberg.de/DividerTray?Slot_angle=30&amp;Slot_depth=40&amp;Notch_depth=25&amp;sx=77&amp;sy=0%3A40*7%3A0&amp;h=80&amp;notches_in_wall=0&amp;bottom=0&amp;bottom=1&amp;thickness=2&amp;burn=0.2&amp;reference=285&amp;spacing=0.5
</dc:description></cc:Work></rdf:RDF></metadata><!--
ABox - A simple Box


This box is kept simple on purpose. If you need more features have a look at the UniversalBox.


Created with Boxes.py (https://boxes.hackerspace-bamberg.de/)
Creation date: 2026-03-22 23:56:31
Command line (remove spaces between dashes): boxes ABox - -Lid_style=ontop - -Lid_height=20 - -x=280 - -y=77 - -h=73 - -outside=0 - -spacing=0.5
Url: https://boxes.hackerspace-bamberg.de/ABox?FingerJoint_style=rectangular&FingerJoint_surroundingspaces=2.0&FingerJoint_bottom_lip=0.0&FingerJoint_edge_width=1.0&FingerJoint_extra_length=0.0&FingerJoint_finger=2.0&FingerJoint_play=0.0&FingerJoint_space=2.0&FingerJoint_width=1.0&Lid_handle=none&Lid_style=ontop&Lid_handle_height=8.0&Lid_height=20&Lid_play=0.1&x=280&y=77&h=73&outside=0&bottom_edge=h&thickness=3.0&burn=0.1&format=svg&labels=0&labels=1&reference=100.0&tabs=0.0&qr_code=0&inner_corners=loop&spacing=0.5&debug=0&language=en&render=2
Url short: https://boxes.hackerspace-bamberg.de/ABox?Lid_style=ontop&Lid_height=20&x=280&y=77&h=73&outside=0&spacing=0.5
SettingsUrl: https://boxes.hackerspace-bamberg.de/ABox?FingerJoint_style=rectangular&FingerJoint_surroundingspaces=2.0&FingerJoint_bottom_lip=0.0&FingerJoint_edge_width=1.0&FingerJoint_extra_length=0.0&FingerJoint_finger=2.0&FingerJoint_play=0.0&FingerJoint_space=2.0&FingerJoint_width=1.0&Lid_handle=none&Lid_style=ontop&Lid_handle_height=8.0&Lid_height=20&Lid_play=0.1&x=280&y=77&h=73&outside=0&bottom_edge=h&thickness=3.0&burn=0.1&format=svg&labels=0&labels=1&reference=100.0&tabs=0.0&qr_code=0&inner_corners=loop&spacing=0.5&debug=0&language=en&render=2
SettingsUrl short: https://boxes.hackerspace-bamberg.de/ABox?Lid_style=ontop&Lid_height=20&x=280&y=77&h=73&outside=0&spacing=0.5
--><title
     id="title1-0">ABox</title><!--
ABox - A simple Box


This box is kept simple on purpose. If you need more features have a look at the UniversalBox.


Created with Boxes.py (https://boxes.hackerspace-bamberg.de/)
Creation date: 2026-03-22 23:59:53
Command line (remove spaces between dashes): boxes ABox - -Lid_style=ontop - -Lid_height=10 - -x=280 - -y=77 - -h=73 - -outside=0 - -spacing=0.5
Url: https://boxes.hackerspace-bamberg.de/ABox?FingerJoint_style=rectangular&FingerJoint_surroundingspaces=2.0&FingerJoint_bottom_lip=0.0&FingerJoint_edge_width=1.0&FingerJoint_extra_length=0.0&FingerJoint_finger=2.0&FingerJoint_play=0.0&FingerJoint_space=2.0&FingerJoint_width=1.0&Lid_handle=none&Lid_style=ontop&Lid_handle_height=8.0&Lid_height=10&Lid_play=0.1&x=280&y=77&h=73&outside=0&bottom_edge=h&thickness=3.0&burn=0.1&format=svg&labels=0&labels=1&reference=100.0&tabs=0.0&qr_code=0&inner_corners=loop&spacing=0.5&debug=0&language=en&render=2
Url short: https://boxes.hackerspace-bamberg.de/ABox?Lid_style=ontop&Lid_height=10&x=280&y=77&h=73&outside=0&spacing=0.5
SettingsUrl: https://boxes.hackerspace-bamberg.de/ABox?FingerJoint_style=rectangular&FingerJoint_surroundingspaces=2.0&FingerJoint_bottom_lip=0.0&FingerJoint_edge_width=1.0&FingerJoint_extra_length=0.0&FingerJoint_finger=2.0&FingerJoint_play=0.0&FingerJoint_space=2.0&FingerJoint_width=1.0&Lid_handle=none&Lid_style=ontop&Lid_handle_height=8.0&Lid_height=10&Lid_play=0.1&x=280&y=77&h=73&outside=0&bottom_edge=h&thickness=3.0&burn=0.1&format=svg&labels=0&labels=1&reference=100.0&tabs=0.0&qr_code=0&inner_corners=loop&spacing=0.5&debug=0&language=en&render=2
SettingsUrl short: https://boxes.hackerspace-bamberg.de/ABox?Lid_style=ontop&Lid_height=10&x=280&y=77&h=73&outside=0&spacing=0.5
--><title
     id="title1-1">ABox</title><!--
ABox - A simple Box


This box is kept simple on purpose. If you need more features have a look at the UniversalBox.


Created with Boxes.py (https://boxes.hackerspace-bamberg.de/)
Creation date: 2026-03-23 11:42:08
Command line (remove spaces between dashes): boxes ABox - -FingerJoint_surroundingspaces=3 - -FingerJoint_finger=3 - -FingerJoint_space=3 - -Lid_height=10 - -x=282 - -y=79 - -h=30 - -outside=0 - -bottom_edge=F - -thickness=2 - -spacing=0.5
Url: https://boxes.hackerspace-bamberg.de/ABox?FingerJoint_style=rectangular&FingerJoint_surroundingspaces=3&FingerJoint_bottom_lip=0.0&FingerJoint_edge_width=1.0&FingerJoint_extra_length=0.0&FingerJoint_finger=3&FingerJoint_play=0.0&FingerJoint_space=3&FingerJoint_width=1.0&Lid_handle=none&Lid_style=none&Lid_handle_height=8.0&Lid_height=10&Lid_play=0.1&x=282&y=79&h=30&outside=0&bottom_edge=F&thickness=2&burn=0.1&format=svg&labels=0&labels=1&reference=100.0&tabs=0.0&qr_code=0&inner_corners=loop&spacing=0.5&debug=0&language=en&render=2
Url short: https://boxes.hackerspace-bamberg.de/ABox?FingerJoint_surroundingspaces=3&FingerJoint_finger=3&FingerJoint_space=3&Lid_height=10&x=282&y=79&h=30&outside=0&bottom_edge=F&thickness=2&spacing=0.5
SettingsUrl: https://boxes.hackerspace-bamberg.de/ABox?FingerJoint_style=rectangular&FingerJoint_surroundingspaces=3&FingerJoint_bottom_lip=0.0&FingerJoint_edge_width=1.0&FingerJoint_extra_length=0.0&FingerJoint_finger=3&FingerJoint_play=0.0&FingerJoint_space=3&FingerJoint_width=1.0&Lid_handle=none&Lid_style=none&Lid_handle_height=8.0&Lid_height=10&Lid_play=0.1&x=282&y=79&h=30&outside=0&bottom_edge=F&thickness=2&burn=0.1&format=svg&labels=0&labels=1&reference=100.0&tabs=0.0&qr_code=0&inner_corners=loop&spacing=0.5&debug=0&language=en&render=2
SettingsUrl short: https://boxes.hackerspace-bamberg.de/ABox?FingerJoint_surroundingspaces=3&FingerJoint_finger=3&FingerJoint_space=3&Lid_height=10&x=282&y=79&h=30&outside=0&bottom_edge=F&thickness=2&spacing=0.5
--><title
     id="title1-09">ABox</title><g
     id="p-1"
     style="fill:none;stroke-linecap:round;stroke-linejoin:round"
     transform="translate(86.81696,672.5911)"><path
       d="m 12.1,159.6 h 12 c 0.055,0 0.1,-0.045 0.1,-0.1 v -1.9 c 0,-0.1 -0.1,0 0,0 H 30 c 0.1,0 0,-0.1 0,0 v 1.9 c 0,0.055 0.045,0.1 0.1,0.1 h 6 c 0.055,0 0.1,-0.045 0.1,-0.1 v -1.9 c 0,-0.1 -0.1,0 0,0 H 42 c 0.1,0 0,-0.1 0,0 v 1.9 c 0,0.055 0.045,0.1 0.1,0.1 h 6 c 0.055,0 0.1,-0.045 0.1,-0.1 v -1.9 c 0,-0.1 -0.1,0 0,0 H 54 c 0.1,0 0,-0.1 0,0 v 1.9 c 0,0.055 0.045,0.1 0.1,0.1 h 6 c 0.055,0 0.1,-0.045 0.1,-0.1 v -1.9 c 0,-0.1 -0.1,0 0,0 H 66 c 0.1,0 0,-0.1 0,0 v 1.9 c 0,0.055 0.045,0.1 0.1,0.1 h 6 c 0.055,0 0.1,-0.045 0.1,-0.1 v -1.9 c 0,-0.1 -0.1,0 0,0 H 78 c 0.1,0 0,-0.1 0,0 v 1.9 c 0,0.055 0.045,0.1 0.1,0.1 h 6 c 0.055,0 0.1,-0.045 0.1,-0.1 v -1.9 c 0,-0.1 -0.1,0 0,0 H 90 c 0.1,0 0,-0.1 0,0 v 1.9 c 0,0.055 0.045,0.1 0.1,0.1 h 6 c 0.055,0 0.1,-0.045 0.1,-0.1 v -1.9 c 0,-0.1 -0.1,0 0,0 h 5.8 c 0.1,0 0,-0.1 0,0 v 1.9 c 0,0.055 0.045,0.1 0.1,0.1 h 6 c 0.055,0 0.1,-0.045 0.1,-0.1 v -1.9 c 0,-0.1 -0.1,0 0,0 h 5.8 c 0.1,0 0,-0.1 0,0 v 1.9 c 0,0.055 0.045,0.1 0.1,0.1 h 6 c 0.055,0 0.1,-0.045 0.1,-0.1 v -1.9 c 0,-0.1 -0.1,0 0,0 h 5.8 c 0.1,0 0,-0.1 0,0 v 1.9 c 0,0.055 0.045,0.1 0.1,0.1 h 6 c 0.055,0 0.1,-0.045 0.1,-0.1 v -1.9 c 0,-0.1 -0.1,0 0,0 h 5.8 c 0.1,0 0,-0.1 0,0 v 1.9 c 0,0.055 0.045,0.1 0.1,0.1 h 6 c 0.055,0 0.1,-0.045 0.1,-0.1 v -1.9 c 0,-0.1 -0.1,0 0,0 h 5.8 c 0.1,0 0,-0.1 0,0 v 1.9 c 0,0.055 0.045,0.1 0.1,0.1 h 6 c 0.055,0 0.1,-0.045 0.1,-0.1 v -1.9 c 0,-0.1 -0.1,0 0,0 h 5.8 c 0.1,0 0,-0.1 0,0 v 1.9 c 0,0.055 0.045,0.1 0.1,0.1 h 6 c 0.055,0 0.1,-0.045 0.1,-0.1 v -1.9 c 0,-0.1 -0.1,0 0,0 h 5.8 c 0.1,0 0,-0.1 0,0 v 1.9 c 0,0.055 0.045,0.1 0.1,0.1 h 6 c 0.055,0 0.1,-0.045 0.1,-0.1 v -1.9 c 0,-0.1 -0.1,0 0,0 h 5.8 c 0.1,0 0,-0.1 0,0 v 1.9 c 0,0.055 0.045,0.1 0.1,0.1 h 6 c 0.055,0 0.1,-0.045 0.1,-0.1 v -1.9 c 0,-0.1 -0.1,0 0,0 h 5.8 c 0.1,0 0,-0.1 0,0 v 1.9 c 0,0.055 0.045,0.1 0.1,0.1 h 6 c 0.055,0 0.1,-0.045 0.1,-0.1 v -1.9 c 0,-0.1 -0.1,0 0,0 h 5.8 c 0.1,0 0,-0.1 0,0 v 1.9 c 0,0.055 0.045,0.1 0.1,0.1 h 6 c 0.055,0 0.1,-0.045 0.1,-0.1 v -1.9 c 0,-0.1 -0.1,0 0,0 h 5.8 c 0.1,0 0,-0.1 0,0 v 1.9 c 0,0.055 0.045,0.1 0.1,0.1 h 6 c 0.055,0 0.1,-0.045 0.1,-0.1 v -1.9 c 0,-0.1 -0.1,0 0,0 h 5.8 c 0.1,0 0,-0.1 0,0 v 1.9 c 0,0.055 0.045,0.1 0.1,0.1 h 6 c 0.055,0 0.1,-0.045 0.1,-0.1 v -1.9 c 0,-0.1 -0.1,0 0,0 h 5.8 c 0.1,0 0,-0.1 0,0 v 1.9 c 0,0.055 0.045,0.1 0.1,0.1 h 6 c 0.055,0 0.1,-0.045 0.1,-0.1 v -1.9 c 0,-0.1 -0.1,0 0,0 h 5.8 c 0.1,0 0,-0.1 0,0 v 1.9 c 0,0.055 0.045,0.1 0.1,0.1 h 6 c 0.055,0 0.1,-0.045 0.1,-0.1 v -1.9 c 0,-0.1 -0.1,0 0,0 h 5.8 c 0.1,0 0,-0.1 0,0 v 1.9 c 0,0.055 0.045,0.1 0.1,0.1 h 6 c 0.055,0 0.1,-0.045 0.1,-0.1 v -1.9 c 0,-0.1 -0.1,0 0,0 h 5.8 c 0.1,0 0,-0.1 0,0 v 1.9 c 0,0.055 0.045,0.1 0.1,0.1 h 12 2 c 0.055,0 0.1,-0.045 0.1,-0.1 v -13 c 0,-0.055 -0.045,-0.1 -0.1,-0.1 h -1.9 c -0.1,0 0,0.1 0,0 v -5.8 c 0,-0.1 -0.1,0 0,0 h 1.9 c 0.055,0 0.1,-0.045 0.1,-0.1 v -13 c 0,-0.055 -0.045,-0.1 -0.1,-0.1 h -2 -282 -2 c -0.055,0 -0.1,0.045 -0.1,0.1 v 13 c 0,0.055 0.045,0.1 0.1,0.1 H 12 c 0.1,0 0,-0.1 0,0 v 5.8 c 0,0.1 0.1,0 0,0 h -1.9 c -0.055,0 -0.1,0.045 -0.1,0.1 v 13 c 0,0.055 0.045,0.1 0.1,0.1 z"
       stroke="#000000"
       stroke-width="0.2"
       id="path2" /></g><g
     id="p-2"
     style="fill:none;stroke-linecap:round;stroke-linejoin:round"
     transform="translate(86.81696,665.5911)"><path
       d="m 12.1,126.4 h 12 c 0.055,0 0.1,-0.045 0.1,-0.1 v -1.9 c 0,-0.1 -0.1,0 0,0 H 30 c 0.1,0 0,-0.1 0,0 v 1.9 c 0,0.055 0.045,0.1 0.1,0.1 h 6 c 0.055,0 0.1,-0.045 0.1,-0.1 v -1.9 c 0,-0.1 -0.1,0 0,0 H 42 c 0.1,0 0,-0.1 0,0 v 1.9 c 0,0.055 0.045,0.1 0.1,0.1 h 6 c 0.055,0 0.1,-0.045 0.1,-0.1 v -1.9 c 0,-0.1 -0.1,0 0,0 H 54 c 0.1,0 0,-0.1 0,0 v 1.9 c 0,0.055 0.045,0.1 0.1,0.1 h 6 c 0.055,0 0.1,-0.045 0.1,-0.1 v -1.9 c 0,-0.1 -0.1,0 0,0 H 66 c 0.1,0 0,-0.1 0,0 v 1.9 c 0,0.055 0.045,0.1 0.1,0.1 h 6 c 0.055,0 0.1,-0.045 0.1,-0.1 v -1.9 c 0,-0.1 -0.1,0 0,0 H 78 c 0.1,0 0,-0.1 0,0 v 1.9 c 0,0.055 0.045,0.1 0.1,0.1 h 6 c 0.055,0 0.1,-0.045 0.1,-0.1 v -1.9 c 0,-0.1 -0.1,0 0,0 H 90 c 0.1,0 0,-0.1 0,0 v 1.9 c 0,0.055 0.045,0.1 0.1,0.1 h 6 c 0.055,0 0.1,-0.045 0.1,-0.1 v -1.9 c 0,-0.1 -0.1,0 0,0 h 5.8 c 0.1,0 0,-0.1 0,0 v 1.9 c 0,0.055 0.045,0.1 0.1,0.1 h 6 c 0.055,0 0.1,-0.045 0.1,-0.1 v -1.9 c 0,-0.1 -0.1,0 0,0 h 5.8 c 0.1,0 0,-0.1 0,0 v 1.9 c 0,0.055 0.045,0.1 0.1,0.1 h 6 c 0.055,0 0.1,-0.045 0.1,-0.1 v -1.9 c 0,-0.1 -0.1,0 0,0 h 5.8 c 0.1,0 0,-0.1 0,0 v 1.9 c 0,0.055 0.045,0.1 0.1,0.1 h 6 c 0.055,0 0.1,-0.045 0.1,-0.1 v -1.9 c 0,-0.1 -0.1,0 0,0 h 5.8 c 0.1,0 0,-0.1 0,0 v 1.9 c 0,0.055 0.045,0.1 0.1,0.1 h 6 c 0.055,0 0.1,-0.045 0.1,-0.1 v -1.9 c 0,-0.1 -0.1,0 0,0 h 5.8 c 0.1,0 0,-0.1 0,0 v 1.9 c 0,0.055 0.045,0.1 0.1,0.1 h 6 c 0.055,0 0.1,-0.045 0.1,-0.1 v -1.9 c 0,-0.1 -0.1,0 0,0 h 5.8 c 0.1,0 0,-0.1 0,0 v 1.9 c 0,0.055 0.045,0.1 0.1,0.1 h 6 c 0.055,0 0.1,-0.045 0.1,-0.1 v -1.9 c 0,-0.1 -0.1,0 0,0 h 5.8 c 0.1,0 0,-0.1 0,0 v 1.9 c 0,0.055 0.045,0.1 0.1,0.1 h 6 c 0.055,0 0.1,-0.045 0.1,-0.1 v -1.9 c 0,-0.1 -0.1,0 0,0 h 5.8 c 0.1,0 0,-0.1 0,0 v 1.9 c 0,0.055 0.045,0.1 0.1,0.1 h 6 c 0.055,0 0.1,-0.045 0.1,-0.1 v -1.9 c 0,-0.1 -0.1,0 0,0 h 5.8 c 0.1,0 0,-0.1 0,0 v 1.9 c 0,0.055 0.045,0.1 0.1,0.1 h 6 c 0.055,0 0.1,-0.045 0.1,-0.1 v -1.9 c 0,-0.1 -0.1,0 0,0 h 5.8 c 0.1,0 0,-0.1 0,0 v 1.9 c 0,0.055 0.045,0.1 0.1,0.1 h 6 c 0.055,0 0.1,-0.045 0.1,-0.1 v -1.9 c 0,-0.1 -0.1,0 0,0 h 5.8 c 0.1,0 0,-0.1 0,0 v 1.9 c 0,0.055 0.045,0.1 0.1,0.1 h 6 c 0.055,0 0.1,-0.045 0.1,-0.1 v -1.9 c 0,-0.1 -0.1,0 0,0 h 5.8 c 0.1,0 0,-0.1 0,0 v 1.9 c 0,0.055 0.045,0.1 0.1,0.1 h 6 c 0.055,0 0.1,-0.045 0.1,-0.1 v -1.9 c 0,-0.1 -0.1,0 0,0 h 5.8 c 0.1,0 0,-0.1 0,0 v 1.9 c 0,0.055 0.045,0.1 0.1,0.1 h 6 c 0.055,0 0.1,-0.045 0.1,-0.1 v -1.9 c 0,-0.1 -0.1,0 0,0 h 5.8 c 0.1,0 0,-0.1 0,0 v 1.9 c 0,0.055 0.045,0.1 0.1,0.1 h 6 c 0.055,0 0.1,-0.045 0.1,-0.1 v -1.9 c 0,-0.1 -0.1,0 0,0 h 5.8 c 0.1,0 0,-0.1 0,0 v 1.9 c 0,0.055 0.045,0.1 0.1,0.1 h 6 c 0.055,0 0.1,-0.045 0.1,-0.1 v -1.9 c 0,-0.1 -0.1,0 0,0 h 5.8 c 0.1,0 0,-0.1 0,0 v 1.9 c 0,0.055 0.045,0.1 0.1,0.1 h 12 2 c 0.055,0 0.1,-0.045 0.1,-0.1 v -13 c 0,-0.055 -0.045,-0.1 -0.1,-0.1 h -1.9 c -0.1,0 0,0.1 0,0 v -5.8 c 0,-0.1 -0.1,0 0,0 h 1.9 c 0.055,0 0.1,-0.045 0.1,-0.1 v -13 c 0,-0.055 -0.045,-0.1 -0.1,-0.1 h -2 -282 -2 c -0.055,0 -0.1,0.045 -0.1,0.1 v 13 c 0,0.055 0.045,0.1 0.1,0.1 H 12 c 0.1,0 0,-0.1 0,0 v 5.8 c 0,0.1 0.1,0 0,0 h -1.9 c -0.055,0 -0.1,0.045 -0.1,0.1 v 13 c 0,0.055 0.045,0.1 0.1,0.1 z"
       stroke="#000000"
       stroke-width="0.2"
       id="path3" /></g><g
     id="p-3"
     style="fill:none;stroke-linecap:round;stroke-linejoin:round"
     transform="translate(86.81696,658.5911)"><path
       d="M 12.1,91.2 H 24 c 0.1,0 0,-0.1 0,0 v 1.9 c 0,0.055 0.045,0.1 0.1,0.1 h 6 c 0.055,0 0.1,-0.045 0.1,-0.1 v -1.9 c 0,-0.1 -0.1,0 0,0 H 36 c 0.1,0 0,-0.1 0,0 v 1.9 c 0,0.055 0.045,0.1 0.1,0.1 h 6 c 0.055,0 0.1,-0.045 0.1,-0.1 v -1.9 c 0,-0.1 -0.1,0 0,0 H 48 c 0.1,0 0,-0.1 0,0 v 1.9 c 0,0.055 0.045,0.1 0.1,0.1 h 6 c 0.055,0 0.1,-0.045 0.1,-0.1 v -1.9 c 0,-0.1 -0.1,0 0,0 H 60 c 0.1,0 0,-0.1 0,0 v 1.9 c 0,0.055 0.045,0.1 0.1,0.1 h 6 c 0.055,0 0.1,-0.045 0.1,-0.1 v -1.9 c 0,-0.1 -0.1,0 0,0 H 72 c 0.1,0 0,-0.1 0,0 v 1.9 c 0,0.055 0.045,0.1 0.1,0.1 h 6 c 0.055,0 0.1,-0.045 0.1,-0.1 v -1.9 c 0,-0.1 -0.1,0 0,0 H 84 c 0.1,0 0,-0.1 0,0 v 1.9 c 0,0.055 0.045,0.1 0.1,0.1 h 6 c 0.055,0 0.1,-0.045 0.1,-0.1 v -1.9 c 0,-0.1 -0.1,0 0,0 H 96 c 0.1,0 0,-0.1 0,0 v 1.9 c 0,0.055 0.045,0.1 0.1,0.1 h 6 c 0.055,0 0.1,-0.045 0.1,-0.1 v -1.9 c 0,-0.1 -0.1,0 0,0 h 5.8 c 0.1,0 0,-0.1 0,0 v 1.9 c 0,0.055 0.045,0.1 0.1,0.1 h 6 c 0.055,0 0.1,-0.045 0.1,-0.1 v -1.9 c 0,-0.1 -0.1,0 0,0 h 5.8 c 0.1,0 0,-0.1 0,0 v 1.9 c 0,0.055 0.045,0.1 0.1,0.1 h 6 c 0.055,0 0.1,-0.045 0.1,-0.1 v -1.9 c 0,-0.1 -0.1,0 0,0 h 5.8 c 0.1,0 0,-0.1 0,0 v 1.9 c 0,0.055 0.045,0.1 0.1,0.1 h 6 c 0.055,0 0.1,-0.045 0.1,-0.1 v -1.9 c 0,-0.1 -0.1,0 0,0 h 5.8 c 0.1,0 0,-0.1 0,0 v 1.9 c 0,0.055 0.045,0.1 0.1,0.1 h 6 c 0.055,0 0.1,-0.045 0.1,-0.1 v -1.9 c 0,-0.1 -0.1,0 0,0 h 5.8 c 0.1,0 0,-0.1 0,0 v 1.9 c 0,0.055 0.045,0.1 0.1,0.1 h 6 c 0.055,0 0.1,-0.045 0.1,-0.1 v -1.9 c 0,-0.1 -0.1,0 0,0 h 5.8 c 0.1,0 0,-0.1 0,0 v 1.9 c 0,0.055 0.045,0.1 0.1,0.1 h 6 c 0.055,0 0.1,-0.045 0.1,-0.1 v -1.9 c 0,-0.1 -0.1,0 0,0 h 5.8 c 0.1,0 0,-0.1 0,0 v 1.9 c 0,0.055 0.045,0.1 0.1,0.1 h 6 c 0.055,0 0.1,-0.045 0.1,-0.1 v -1.9 c 0,-0.1 -0.1,0 0,0 h 5.8 c 0.1,0 0,-0.1 0,0 v 1.9 c 0,0.055 0.045,0.1 0.1,0.1 h 6 c 0.055,0 0.1,-0.045 0.1,-0.1 v -1.9 c 0,-0.1 -0.1,0 0,0 h 5.8 c 0.1,0 0,-0.1 0,0 v 1.9 c 0,0.055 0.045,0.1 0.1,0.1 h 6 c 0.055,0 0.1,-0.045 0.1,-0.1 v -1.9 c 0,-0.1 -0.1,0 0,0 h 5.8 c 0.1,0 0,-0.1 0,0 v 1.9 c 0,0.055 0.045,0.1 0.1,0.1 h 6 c 0.055,0 0.1,-0.045 0.1,-0.1 v -1.9 c 0,-0.1 -0.1,0 0,0 h 5.8 c 0.1,0 0,-0.1 0,0 v 1.9 c 0,0.055 0.045,0.1 0.1,0.1 h 6 c 0.055,0 0.1,-0.045 0.1,-0.1 v -1.9 c 0,-0.1 -0.1,0 0,0 h 5.8 c 0.1,0 0,-0.1 0,0 v 1.9 c 0,0.055 0.045,0.1 0.1,0.1 h 6 c 0.055,0 0.1,-0.045 0.1,-0.1 v -1.9 c 0,-0.1 -0.1,0 0,0 h 5.8 c 0.1,0 0,-0.1 0,0 v 1.9 c 0,0.055 0.045,0.1 0.1,0.1 h 6 c 0.055,0 0.1,-0.045 0.1,-0.1 v -1.9 c 0,-0.1 -0.1,0 0,0 h 5.8 c 0.1,0 0,-0.1 0,0 v 1.9 c 0,0.055 0.045,0.1 0.1,0.1 h 6 c 0.055,0 0.1,-0.045 0.1,-0.1 v -1.9 c 0,-0.1 -0.1,0 0,0 h 5.8 c 0.1,0 0,-0.1 0,0 v 1.9 c 0,0.055 0.045,0.1 0.1,0.1 h 6 c 0.055,0 0.1,-0.045 0.1,-0.1 v -1.9 c 0,-0.1 -0.1,0 0,0 h 11.9 c 0.055,0 0.1,-0.045 0.1,-0.1 V 78.7 c 0,-0.1 -0.1,0 0,0 h 1.9 c 0.055,0 0.1,-0.045 0.1,-0.1 v -6 c 0,-0.055 -0.045,-0.1 -0.1,-0.1 h -1.9 c -0.1,0 0,0.1 0,0 v -5.8 c 0,-0.1 -0.1,0 0,0 h 1.9 c 0.055,0 0.1,-0.045 0.1,-0.1 v -6 c 0,-0.055 -0.045,-0.1 -0.1,-0.1 h -1.9 c -0.1,0 0,0.1 0,0 v -5.8 c 0,-0.1 -0.1,0 0,0 h 1.9 c 0.055,0 0.1,-0.045 0.1,-0.1 v -6 c 0,-0.055 -0.045,-0.1 -0.1,-0.1 h -1.9 c -0.1,0 0,0.1 0,0 v -5.8 c 0,-0.1 -0.1,0 0,0 h 1.9 c 0.055,0 0.1,-0.045 0.1,-0.1 v -6 c 0,-0.055 -0.045,-0.1 -0.1,-0.1 h -1.9 c -0.1,0 0,0.1 0,0 v -5.8 c 0,-0.1 -0.1,0 0,0 h 1.9 c 0.055,0 0.1,-0.045 0.1,-0.1 v -6 c 0,-0.055 -0.045,-0.1 -0.1,-0.1 h -1.9 c -0.1,0 0,0.1 0,0 V 12.1 c 0,-0.055 -0.045,-0.1 -0.1,-0.1 h -11.9 c -0.1,0 0,0.1 0,0 v -1.9 c 0,-0.055 -0.045,-0.1 -0.1,-0.1 h -6 c -0.055,0 -0.1,0.045 -0.1,0.1 V 12 c 0,0.1 0.1,0 0,0 h -5.8 c -0.1,0 0,0.1 0,0 v -1.9 c 0,-0.055 -0.045,-0.1 -0.1,-0.1 h -6 c -0.055,0 -0.1,0.045 -0.1,0.1 V 12 c 0,0.1 0.1,0 0,0 h -5.8 c -0.1,0 0,0.1 0,0 v -1.9 c 0,-0.055 -0.045,-0.1 -0.1,-0.1 h -6 c -0.055,0 -0.1,0.045 -0.1,0.1 V 12 c 0,0.1 0.1,0 0,0 h -5.8 c -0.1,0 0,0.1 0,0 v -1.9 c 0,-0.055 -0.045,-0.1 -0.1,-0.1 h -6 c -0.055,0 -0.1,0.045 -0.1,0.1 V 12 c 0,0.1 0.1,0 0,0 h -5.8 c -0.1,0 0,0.1 0,0 v -1.9 c 0,-0.055 -0.045,-0.1 -0.1,-0.1 h -6 c -0.055,0 -0.1,0.045 -0.1,0.1 V 12 c 0,0.1 0.1,0 0,0 h -5.8 c -0.1,0 0,0.1 0,0 v -1.9 c 0,-0.055 -0.045,-0.1 -0.1,-0.1 h -6 c -0.055,0 -0.1,0.045 -0.1,0.1 V 12 c 0,0.1 0.1,0 0,0 h -5.8 c -0.1,0 0,0.1 0,0 v -1.9 c 0,-0.055 -0.045,-0.1 -0.1,-0.1 h -6 c -0.055,0 -0.1,0.045 -0.1,0.1 V 12 c 0,0.1 0.1,0 0,0 h -5.8 c -0.1,0 0,0.1 0,0 v -1.9 c 0,-0.055 -0.045,-0.1 -0.1,-0.1 h -6 c -0.055,0 -0.1,0.045 -0.1,0.1 V 12 c 0,0.1 0.1,0 0,0 h -5.8 c -0.1,0 0,0.1 0,0 v -1.9 c 0,-0.055 -0.045,-0.1 -0.1,-0.1 h -6 c -0.055,0 -0.1,0.045 -0.1,0.1 V 12 c 0,0.1 0.1,0 0,0 h -5.8 c -0.1,0 0,0.1 0,0 v -1.9 c 0,-0.055 -0.045,-0.1 -0.1,-0.1 h -6 c -0.055,0 -0.1,0.045 -0.1,0.1 V 12 c 0,0.1 0.1,0 0,0 h -5.8 c -0.1,0 0,0.1 0,0 v -1.9 c 0,-0.055 -0.045,-0.1 -0.1,-0.1 h -6 c -0.055,0 -0.1,0.045 -0.1,0.1 V 12 c 0,0.1 0.1,0 0,0 h -5.8 c -0.1,0 0,0.1 0,0 v -1.9 c 0,-0.055 -0.045,-0.1 -0.1,-0.1 h -6 c -0.055,0 -0.1,0.045 -0.1,0.1 V 12 c 0,0.1 0.1,0 0,0 h -5.8 c -0.1,0 0,0.1 0,0 v -1.9 c 0,-0.055 -0.045,-0.1 -0.1,-0.1 h -6 c -0.055,0 -0.1,0.045 -0.1,0.1 V 12 c 0,0.1 0.1,0 0,0 h -5.8 c -0.1,0 0,0.1 0,0 v -1.9 c 0,-0.055 -0.045,-0.1 -0.1,-0.1 h -6 c -0.055,0 -0.1,0.045 -0.1,0.1 V 12 c 0,0.1 0.1,0 0,0 h -5.8 c -0.1,0 0,0.1 0,0 v -1.9 c 0,-0.055 -0.045,-0.1 -0.1,-0.1 h -6 c -0.055,0 -0.1,0.045 -0.1,0.1 V 12 c 0,0.1 0.1,0 0,0 h -5.8 c -0.1,0 0,0.1 0,0 v -1.9 c 0,-0.055 -0.045,-0.1 -0.1,-0.1 h -6 C 96.045,10 96,10.045 96,10.1 V 12 c 0,0.1 0.1,0 0,0 h -5.8 c -0.1,0 0,0.1 0,0 V 10.1 C 90.2,10.045 90.155,10 90.1,10 h -6 C 84.045,10 84,10.045 84,10.1 V 12 c 0,0.1 0.1,0 0,0 h -5.8 c -0.1,0 0,0.1 0,0 V 10.1 C 78.2,10.045 78.155,10 78.1,10 h -6 C 72.045,10 72,10.045 72,10.1 V 12 c 0,0.1 0.1,0 0,0 h -5.8 c -0.1,0 0,0.1 0,0 V 10.1 C 66.2,10.045 66.155,10 66.1,10 h -6 C 60.045,10 60,10.045 60,10.1 V 12 c 0,0.1 0.1,0 0,0 h -5.8 c -0.1,0 0,0.1 0,0 V 10.1 C 54.2,10.045 54.155,10 54.1,10 h -6 C 48.045,10 48,10.045 48,10.1 V 12 c 0,0.1 0.1,0 0,0 h -5.8 c -0.1,0 0,0.1 0,0 V 10.1 C 42.2,10.045 42.155,10 42.1,10 h -6 C 36.045,10 36,10.045 36,10.1 V 12 c 0,0.1 0.1,0 0,0 h -5.8 c -0.1,0 0,0.1 0,0 V 10.1 C 30.2,10.045 30.155,10 30.1,10 h -6 C 24.045,10 24,10.045 24,10.1 V 12 c 0,0.1 0.1,0 0,0 H 12.1 C 12.045,12 12,12.045 12,12.1 v 12.4 c 0,0.1 0.1,0 0,0 h -1.9 c -0.055,0 -0.1,0.045 -0.1,0.1 v 6 c 0,0.055 0.045,0.1 0.1,0.1 H 12 c 0.1,0 0,-0.1 0,0 v 5.8 c 0,0.1 0.1,0 0,0 h -1.9 c -0.055,0 -0.1,0.045 -0.1,0.1 v 6 c 0,0.055 0.045,0.1 0.1,0.1 H 12 c 0.1,0 0,-0.1 0,0 v 5.8 c 0,0.1 0.1,0 0,0 h -1.9 c -0.055,0 -0.1,0.045 -0.1,0.1 v 6 c 0,0.055 0.045,0.1 0.1,0.1 H 12 c 0.1,0 0,-0.1 0,0 v 5.8 c 0,0.1 0.1,0 0,0 h -1.9 c -0.055,0 -0.1,0.045 -0.1,0.1 v 6 c 0,0.055 0.045,0.1 0.1,0.1 H 12 c 0.1,0 0,-0.1 0,0 v 5.8 c 0,0.1 0.1,0 0,0 h -1.9 c -0.055,0 -0.1,0.045 -0.1,0.1 v 6 c 0,0.055 0.045,0.1 0.1,0.1 H 12 c 0.1,0 0,-0.1 0,0 v 12.4 c 0,0.055 0.045,0.1 0.1,0.1 z"
       stroke="#000000"
       stroke-width="0.2"
       id="path4" /></g><g
     id="p-4"
     style="fill:none;stroke-linecap:round;stroke-linejoin:round"
     transform="translate(95.280295,759.5911)"><path
       d="m 299.3,159.6 h 12.5 c 0.055,0 0.1,-0.045 0.1,-0.1 v -1.9 c 0,-0.1 -0.1,0 0,0 h 5.8 c 0.1,0 0,-0.1 0,0 v 1.9 c 0,0.055 0.045,0.1 0.1,0.1 h 6 c 0.055,0 0.1,-0.045 0.1,-0.1 v -1.9 c 0,-0.1 -0.1,0 0,0 h 5.8 c 0.1,0 0,-0.1 0,0 v 1.9 c 0,0.055 0.045,0.1 0.1,0.1 h 6 c 0.055,0 0.1,-0.045 0.1,-0.1 v -1.9 c 0,-0.1 -0.1,0 0,0 h 5.8 c 0.1,0 0,-0.1 0,0 v 1.9 c 0,0.055 0.045,0.1 0.1,0.1 h 6 c 0.055,0 0.1,-0.045 0.1,-0.1 v -1.9 c 0,-0.1 -0.1,0 0,0 h 5.8 c 0.1,0 0,-0.1 0,0 v 1.9 c 0,0.055 0.045,0.1 0.1,0.1 h 6 c 0.055,0 0.1,-0.045 0.1,-0.1 v -1.9 c 0,-0.1 -0.1,0 0,0 h 5.8 c 0.1,0 0,-0.1 0,0 v 1.9 c 0,0.055 0.045,0.1 0.1,0.1 h 12.5 c 0.055,0 0.1,-0.045 0.1,-0.1 v -12.9 c 0,-0.1 -0.1,0 0,0 h 1.9 c 0.055,0 0.1,-0.045 0.1,-0.1 v -6 c 0,-0.055 -0.045,-0.1 -0.1,-0.1 h -1.9 c -0.1,0 0,0.1 0,0 v -12.9 c 0,-0.055 -0.045,-0.1 -0.1,-0.1 h -79 c -0.055,0 -0.1,0.045 -0.1,0.1 v 12.9 c 0,0.1 0.1,0 0,0 h -1.9 c -0.055,0 -0.1,0.045 -0.1,0.1 v 6 c 0,0.055 0.045,0.1 0.1,0.1 h 1.9 c 0.1,0 0,-0.1 0,0 v 12.9 c 0,0.055 0.045,0.1 0.1,0.1 z"
       stroke="#000000"
       stroke-width="0.2"
       id="path5" /></g><g
     id="p-5"
     style="fill:none;stroke-linecap:round;stroke-linejoin:round"
     transform="translate(95.280295,752.5911)"><path
       d="m 299.3,126.4 h 12.5 c 0.055,0 0.1,-0.045 0.1,-0.1 v -1.9 c 0,-0.1 -0.1,0 0,0 h 5.8 c 0.1,0 0,-0.1 0,0 v 1.9 c 0,0.055 0.045,0.1 0.1,0.1 h 6 c 0.055,0 0.1,-0.045 0.1,-0.1 v -1.9 c 0,-0.1 -0.1,0 0,0 h 5.8 c 0.1,0 0,-0.1 0,0 v 1.9 c 0,0.055 0.045,0.1 0.1,0.1 h 6 c 0.055,0 0.1,-0.045 0.1,-0.1 v -1.9 c 0,-0.1 -0.1,0 0,0 h 5.8 c 0.1,0 0,-0.1 0,0 v 1.9 c 0,0.055 0.045,0.1 0.1,0.1 h 6 c 0.055,0 0.1,-0.045 0.1,-0.1 v -1.9 c 0,-0.1 -0.1,0 0,0 h 5.8 c 0.1,0 0,-0.1 0,0 v 1.9 c 0,0.055 0.045,0.1 0.1,0.1 h 6 c 0.055,0 0.1,-0.045 0.1,-0.1 v -1.9 c 0,-0.1 -0.1,0 0,0 h 5.8 c 0.1,0 0,-0.1 0,0 v 1.9 c 0,0.055 0.045,0.1 0.1,0.1 h 12.5 c 0.055,0 0.1,-0.045 0.1,-0.1 v -12.9 c 0,-0.1 -0.1,0 0,0 h 1.9 c 0.055,0 0.1,-0.045 0.1,-0.1 v -6 c 0,-0.055 -0.045,-0.1 -0.1,-0.1 h -1.9 c -0.1,0 0,0.1 0,0 V 94.3 c 0,-0.055 -0.045,-0.1 -0.1,-0.1 h -79 c -0.055,0 -0.1,0.045 -0.1,0.1 v 12.9 c 0,0.1 0.1,0 0,0 h -1.9 c -0.055,0 -0.1,0.045 -0.1,0.1 v 6 c 0,0.055 0.045,0.1 0.1,0.1 h 1.9 c 0.1,0 0,-0.1 0,0 v 12.9 c 0,0.055 0.045,0.1 0.1,0.1 z"
       stroke="#000000"
       stroke-width="0.2"
       id="path6" /></g><!--
ABox - A simple Box


This box is kept simple on purpose. If you need more features have a look at the UniversalBox.


Created with Boxes.py (https://boxes.hackerspace-bamberg.de/)
Creation date: 2026-03-23 11:45:35
Command line (remove spaces between dashes): boxes ABox - -FingerJoint_surroundingspaces=3 - -FingerJoint_finger=3 - -FingerJoint_space=3 - -Lid_height=10 - -x=280 - -y=77 - -h=63 - -outside=0 - -thickness=2 - -spacing=0.5
Url: https://boxes.hackerspace-bamberg.de/ABox?FingerJoint_style=rectangular&FingerJoint_surroundingspaces=3&FingerJoint_bottom_lip=0.0&FingerJoint_edge_width=1.0&FingerJoint_extra_length=0.0&FingerJoint_finger=3&FingerJoint_play=0.0&FingerJoint_space=3&FingerJoint_width=1.0&Lid_handle=none&Lid_style=none&Lid_handle_height=8.0&Lid_height=10&Lid_play=0.1&x=280&y=77&h=63&outside=0&bottom_edge=h&thickness=2&burn=0.1&format=svg&labels=0&labels=1&reference=100.0&tabs=0.0&qr_code=0&inner_corners=loop&spacing=0.5&debug=0&language=en&render=2
Url short: https://boxes.hackerspace-bamberg.de/ABox?FingerJoint_surroundingspaces=3&FingerJoint_finger=3&FingerJoint_space=3&Lid_height=10&x=280&y=77&h=63&outside=0&thickness=2&spacing=0.5
SettingsUrl: https://boxes.hackerspace-bamberg.de/ABox?FingerJoint_style=rectangular&FingerJoint_surroundingspaces=3&FingerJoint_bottom_lip=0.0&FingerJoint_edge_width=1.0&FingerJoint_extra_length=0.0&FingerJoint_finger=3&FingerJoint_play=0.0&FingerJoint_space=3&FingerJoint_width=1.0&Lid_handle=none&Lid_style=none&Lid_handle_height=8.0&Lid_height=10&Lid_play=0.1&x=280&y=77&h=63&outside=0&bottom_edge=h&thickness=2&burn=0.1&format=svg&labels=0&labels=1&reference=100.0&tabs=0.0&qr_code=0&inner_corners=loop&spacing=0.5&debug=0&language=en&render=2
SettingsUrl short: https://boxes.hackerspace-bamberg.de/ABox?FingerJoint_surroundingspaces=3&FingerJoint_finger=3&FingerJoint_space=3&Lid_height=10&x=280&y=77&h=63&outside=0&thickness=2&spacing=0.5
--><title
     id="title1-8">ABox</title><g
     id="p-1-5"
     style="fill:none;stroke-linecap:round;stroke-linejoin:round"
     transform="translate(86.81696,843.39407)"><path
       d="m 26.1,225.4 h -2.9 c -0.1,0 0,0.1 0,0 v -1.8 c 0,-0.1 -0.1,0 0,0 H 29 c 0.1,0 0,-0.1 0,0 v 1.8 c 0,0.1 0.1,0 0,0 z"
       stroke="#0000ff"
       stroke-width="0.2"
       id="path2-1" /><path
       d="m 38.1,225.4 h -2.9 c -0.1,0 0,0.1 0,0 v -1.8 c 0,-0.1 -0.1,0 0,0 H 41 c 0.1,0 0,-0.1 0,0 v 1.8 c 0,0.1 0.1,0 0,0 z"
       stroke="#0000ff"
       stroke-width="0.2"
       id="path3-7" /><path
       d="m 50.1,225.4 h -2.9 c -0.1,0 0,0.1 0,0 v -1.8 c 0,-0.1 -0.1,0 0,0 H 53 c 0.1,0 0,-0.1 0,0 v 1.8 c 0,0.1 0.1,0 0,0 z"
       stroke="#0000ff"
       stroke-width="0.2"
       id="path4-1" /><path
       d="m 62.1,225.4 h -2.9 c -0.1,0 0,0.1 0,0 v -1.8 c 0,-0.1 -0.1,0 0,0 H 65 c 0.1,0 0,-0.1 0,0 v 1.8 c 0,0.1 0.1,0 0,0 z"
       stroke="#0000ff"
       stroke-width="0.2"
       id="path5-1" /><path
       d="m 74.1,225.4 h -2.9 c -0.1,0 0,0.1 0,0 v -1.8 c 0,-0.1 -0.1,0 0,0 H 77 c 0.1,0 0,-0.1 0,0 v 1.8 c 0,0.1 0.1,0 0,0 z"
       stroke="#0000ff"
       stroke-width="0.2"
       id="path6-5" /><path
       d="m 86.1,225.4 h -2.9 c -0.1,0 0,0.1 0,0 v -1.8 c 0,-0.1 -0.1,0 0,0 H 89 c 0.1,0 0,-0.1 0,0 v 1.8 c 0,0.1 0.1,0 0,0 z"
       stroke="#0000ff"
       stroke-width="0.2"
       id="path7" /><path
       d="m 98.1,225.4 h -2.9 c -0.1,0 0,0.1 0,0 v -1.8 c 0,-0.1 -0.1,0 0,0 h 5.8 c 0.1,0 0,-0.1 0,0 v 1.8 c 0,0.1 0.1,0 0,0 z"
       stroke="#0000ff"
       stroke-width="0.2"
       id="path8" /><path
       d="m 110.1,225.4 h -2.9 c -0.1,0 0,0.1 0,0 v -1.8 c 0,-0.1 -0.1,0 0,0 h 5.8 c 0.1,0 0,-0.1 0,0 v 1.8 c 0,0.1 0.1,0 0,0 z"
       stroke="#0000ff"
       stroke-width="0.2"
       id="path9" /><path
       d="m 122.1,225.4 h -2.9 c -0.1,0 0,0.1 0,0 v -1.8 c 0,-0.1 -0.1,0 0,0 h 5.8 c 0.1,0 0,-0.1 0,0 v 1.8 c 0,0.1 0.1,0 0,0 z"
       stroke="#0000ff"
       stroke-width="0.2"
       id="path10" /><path
       d="m 134.1,225.4 h -2.9 c -0.1,0 0,0.1 0,0 v -1.8 c 0,-0.1 -0.1,0 0,0 h 5.8 c 0.1,0 0,-0.1 0,0 v 1.8 c 0,0.1 0.1,0 0,0 z"
       stroke="#0000ff"
       stroke-width="0.2"
       id="path11" /><path
       d="m 146.1,225.4 h -2.9 c -0.1,0 0,0.1 0,0 v -1.8 c 0,-0.1 -0.1,0 0,0 h 5.8 c 0.1,0 0,-0.1 0,0 v 1.8 c 0,0.1 0.1,0 0,0 z"
       stroke="#0000ff"
       stroke-width="0.2"
       id="path12" /><path
       d="m 158.1,225.4 h -2.9 c -0.1,0 0,0.1 0,0 v -1.8 c 0,-0.1 -0.1,0 0,0 h 5.8 c 0.1,0 0,-0.1 0,0 v 1.8 c 0,0.1 0.1,0 0,0 z"
       stroke="#0000ff"
       stroke-width="0.2"
       id="path13" /><path
       d="m 170.1,225.4 h -2.9 c -0.1,0 0,0.1 0,0 v -1.8 c 0,-0.1 -0.1,0 0,0 h 5.8 c 0.1,0 0,-0.1 0,0 v 1.8 c 0,0.1 0.1,0 0,0 z"
       stroke="#0000ff"
       stroke-width="0.2"
       id="path14" /><path
       d="m 182.1,225.4 h -2.9 c -0.1,0 0,0.1 0,0 v -1.8 c 0,-0.1 -0.1,0 0,0 h 5.8 c 0.1,0 0,-0.1 0,0 v 1.8 c 0,0.1 0.1,0 0,0 z"
       stroke="#0000ff"
       stroke-width="0.2"
       id="path15" /><path
       d="m 194.1,225.4 h -2.9 c -0.1,0 0,0.1 0,0 v -1.8 c 0,-0.1 -0.1,0 0,0 h 5.8 c 0.1,0 0,-0.1 0,0 v 1.8 c 0,0.1 0.1,0 0,0 z"
       stroke="#0000ff"
       stroke-width="0.2"
       id="path16" /><path
       d="m 206.1,225.4 h -2.9 c -0.1,0 0,0.1 0,0 v -1.8 c 0,-0.1 -0.1,0 0,0 h 5.8 c 0.1,0 0,-0.1 0,0 v 1.8 c 0,0.1 0.1,0 0,0 z"
       stroke="#0000ff"
       stroke-width="0.2"
       id="path17" /><path
       d="m 218.1,225.4 h -2.9 c -0.1,0 0,0.1 0,0 v -1.8 c 0,-0.1 -0.1,0 0,0 h 5.8 c 0.1,0 0,-0.1 0,0 v 1.8 c 0,0.1 0.1,0 0,0 z"
       stroke="#0000ff"
       stroke-width="0.2"
       id="path18" /><path
       d="m 230.1,225.4 h -2.9 c -0.1,0 0,0.1 0,0 v -1.8 c 0,-0.1 -0.1,0 0,0 h 5.8 c 0.1,0 0,-0.1 0,0 v 1.8 c 0,0.1 0.1,0 0,0 z"
       stroke="#0000ff"
       stroke-width="0.2"
       id="path19" /><path
       d="m 242.1,225.4 h -2.9 c -0.1,0 0,0.1 0,0 v -1.8 c 0,-0.1 -0.1,0 0,0 h 5.8 c 0.1,0 0,-0.1 0,0 v 1.8 c 0,0.1 0.1,0 0,0 z"
       stroke="#0000ff"
       stroke-width="0.2"
       id="path20" /><path
       d="m 254.1,225.4 h -2.9 c -0.1,0 0,0.1 0,0 v -1.8 c 0,-0.1 -0.1,0 0,0 h 5.8 c 0.1,0 0,-0.1 0,0 v 1.8 c 0,0.1 0.1,0 0,0 z"
       stroke="#0000ff"
       stroke-width="0.2"
       id="path21" /><path
       d="m 266.1,225.4 h -2.9 c -0.1,0 0,0.1 0,0 v -1.8 c 0,-0.1 -0.1,0 0,0 h 5.8 c 0.1,0 0,-0.1 0,0 v 1.8 c 0,0.1 0.1,0 0,0 z"
       stroke="#0000ff"
       stroke-width="0.2"
       id="path22" /><path
       d="m 278.1,225.4 h -2.9 c -0.1,0 0,0.1 0,0 v -1.8 c 0,-0.1 -0.1,0 0,0 h 5.8 c 0.1,0 0,-0.1 0,0 v 1.8 c 0,0.1 0.1,0 0,0 z"
       stroke="#0000ff"
       stroke-width="0.2"
       id="path23" /><path
       d="m 12.1,227.6 h 280 2 c 0.055,0 0.1,-0.045 0.1,-0.1 V 215 c 0,-0.055 -0.045,-0.1 -0.1,-0.1 h -1.9 c -0.1,0 0,0.1 0,0 v -5.8 c 0,-0.1 -0.1,0 0,0 h 1.9 c 0.055,0 0.1,-0.045 0.1,-0.1 v -6 c 0,-0.055 -0.045,-0.1 -0.1,-0.1 h -1.9 c -0.1,0 0,0.1 0,0 v -5.8 c 0,-0.1 -0.1,0 0,0 h 1.9 c 0.055,0 0.1,-0.045 0.1,-0.1 v -6 c 0,-0.055 -0.045,-0.1 -0.1,-0.1 h -1.9 c -0.1,0 0,0.1 0,0 v -5.8 c 0,-0.1 -0.1,0 0,0 h 1.9 c 0.055,0 0.1,-0.045 0.1,-0.1 v -6 c 0,-0.055 -0.045,-0.1 -0.1,-0.1 h -1.9 c -0.1,0 0,0.1 0,0 v -5.8 c 0,-0.1 -0.1,0 0,0 h 1.9 c 0.055,0 0.1,-0.045 0.1,-0.1 v -12.5 c 0,-0.055 -0.045,-0.1 -0.1,-0.1 h -2 -280 -2 c -0.055,0 -0.1,0.045 -0.1,0.1 V 173 c 0,0.055 0.045,0.1 0.1,0.1 H 12 c 0.1,0 0,-0.1 0,0 v 5.8 c 0,0.1 0.1,0 0,0 h -1.9 c -0.055,0 -0.1,0.045 -0.1,0.1 v 6 c 0,0.055 0.045,0.1 0.1,0.1 H 12 c 0.1,0 0,-0.1 0,0 v 5.8 c 0,0.1 0.1,0 0,0 h -1.9 c -0.055,0 -0.1,0.045 -0.1,0.1 v 6 c 0,0.055 0.045,0.1 0.1,0.1 H 12 c 0.1,0 0,-0.1 0,0 v 5.8 c 0,0.1 0.1,0 0,0 h -1.9 c -0.055,0 -0.1,0.045 -0.1,0.1 v 6 c 0,0.055 0.045,0.1 0.1,0.1 H 12 c 0.1,0 0,-0.1 0,0 v 5.8 c 0,0.1 0.1,0 0,0 h -1.9 c -0.055,0 -0.1,0.045 -0.1,0.1 v 12.5 c 0,0.055 0.045,0.1 0.1,0.1 z"
       stroke="#000000"
       stroke-width="0.2"
       id="path24" /></g><g
     id="p-2-2"
     style="fill:none;stroke-linecap:round;stroke-linejoin:round"
     transform="translate(86.81696,836.39407)"><path
       d="m 26.1,157.2 h -2.9 c -0.1,0 0,0.1 0,0 v -1.8 c 0,-0.1 -0.1,0 0,0 H 29 c 0.1,0 0,-0.1 0,0 v 1.8 c 0,0.1 0.1,0 0,0 z"
       stroke="#0000ff"
       stroke-width="0.2"
       id="path25" /><path
       d="m 38.1,157.2 h -2.9 c -0.1,0 0,0.1 0,0 v -1.8 c 0,-0.1 -0.1,0 0,0 H 41 c 0.1,0 0,-0.1 0,0 v 1.8 c 0,0.1 0.1,0 0,0 z"
       stroke="#0000ff"
       stroke-width="0.2"
       id="path26" /><path
       d="m 50.1,157.2 h -2.9 c -0.1,0 0,0.1 0,0 v -1.8 c 0,-0.1 -0.1,0 0,0 H 53 c 0.1,0 0,-0.1 0,0 v 1.8 c 0,0.1 0.1,0 0,0 z"
       stroke="#0000ff"
       stroke-width="0.2"
       id="path27" /><path
       d="m 62.1,157.2 h -2.9 c -0.1,0 0,0.1 0,0 v -1.8 c 0,-0.1 -0.1,0 0,0 H 65 c 0.1,0 0,-0.1 0,0 v 1.8 c 0,0.1 0.1,0 0,0 z"
       stroke="#0000ff"
       stroke-width="0.2"
       id="path28" /><path
       d="m 74.1,157.2 h -2.9 c -0.1,0 0,0.1 0,0 v -1.8 c 0,-0.1 -0.1,0 0,0 H 77 c 0.1,0 0,-0.1 0,0 v 1.8 c 0,0.1 0.1,0 0,0 z"
       stroke="#0000ff"
       stroke-width="0.2"
       id="path29" /><path
       d="m 86.1,157.2 h -2.9 c -0.1,0 0,0.1 0,0 v -1.8 c 0,-0.1 -0.1,0 0,0 H 89 c 0.1,0 0,-0.1 0,0 v 1.8 c 0,0.1 0.1,0 0,0 z"
       stroke="#0000ff"
       stroke-width="0.2"
       id="path30" /><path
       d="m 98.1,157.2 h -2.9 c -0.1,0 0,0.1 0,0 v -1.8 c 0,-0.1 -0.1,0 0,0 h 5.8 c 0.1,0 0,-0.1 0,0 v 1.8 c 0,0.1 0.1,0 0,0 z"
       stroke="#0000ff"
       stroke-width="0.2"
       id="path31" /><path
       d="m 110.1,157.2 h -2.9 c -0.1,0 0,0.1 0,0 v -1.8 c 0,-0.1 -0.1,0 0,0 h 5.8 c 0.1,0 0,-0.1 0,0 v 1.8 c 0,0.1 0.1,0 0,0 z"
       stroke="#0000ff"
       stroke-width="0.2"
       id="path32" /><path
       d="m 122.1,157.2 h -2.9 c -0.1,0 0,0.1 0,0 v -1.8 c 0,-0.1 -0.1,0 0,0 h 5.8 c 0.1,0 0,-0.1 0,0 v 1.8 c 0,0.1 0.1,0 0,0 z"
       stroke="#0000ff"
       stroke-width="0.2"
       id="path33" /><path
       d="m 134.1,157.2 h -2.9 c -0.1,0 0,0.1 0,0 v -1.8 c 0,-0.1 -0.1,0 0,0 h 5.8 c 0.1,0 0,-0.1 0,0 v 1.8 c 0,0.1 0.1,0 0,0 z"
       stroke="#0000ff"
       stroke-width="0.2"
       id="path34" /><path
       d="m 146.1,157.2 h -2.9 c -0.1,0 0,0.1 0,0 v -1.8 c 0,-0.1 -0.1,0 0,0 h 5.8 c 0.1,0 0,-0.1 0,0 v 1.8 c 0,0.1 0.1,0 0,0 z"
       stroke="#0000ff"
       stroke-width="0.2"
       id="path35" /><path
       d="m 158.1,157.2 h -2.9 c -0.1,0 0,0.1 0,0 v -1.8 c 0,-0.1 -0.1,0 0,0 h 5.8 c 0.1,0 0,-0.1 0,0 v 1.8 c 0,0.1 0.1,0 0,0 z"
       stroke="#0000ff"
       stroke-width="0.2"
       id="path36" /><path
       d="m 170.1,157.2 h -2.9 c -0.1,0 0,0.1 0,0 v -1.8 c 0,-0.1 -0.1,0 0,0 h 5.8 c 0.1,0 0,-0.1 0,0 v 1.8 c 0,0.1 0.1,0 0,0 z"
       stroke="#0000ff"
       stroke-width="0.2"
       id="path37" /><path
       d="m 182.1,157.2 h -2.9 c -0.1,0 0,0.1 0,0 v -1.8 c 0,-0.1 -0.1,0 0,0 h 5.8 c 0.1,0 0,-0.1 0,0 v 1.8 c 0,0.1 0.1,0 0,0 z"
       stroke="#0000ff"
       stroke-width="0.2"
       id="path38" /><path
       d="m 194.1,157.2 h -2.9 c -0.1,0 0,0.1 0,0 v -1.8 c 0,-0.1 -0.1,0 0,0 h 5.8 c 0.1,0 0,-0.1 0,0 v 1.8 c 0,0.1 0.1,0 0,0 z"
       stroke="#0000ff"
       stroke-width="0.2"
       id="path39" /><path
       d="m 206.1,157.2 h -2.9 c -0.1,0 0,0.1 0,0 v -1.8 c 0,-0.1 -0.1,0 0,0 h 5.8 c 0.1,0 0,-0.1 0,0 v 1.8 c 0,0.1 0.1,0 0,0 z"
       stroke="#0000ff"
       stroke-width="0.2"
       id="path40" /><path
       d="m 218.1,157.2 h -2.9 c -0.1,0 0,0.1 0,0 v -1.8 c 0,-0.1 -0.1,0 0,0 h 5.8 c 0.1,0 0,-0.1 0,0 v 1.8 c 0,0.1 0.1,0 0,0 z"
       stroke="#0000ff"
       stroke-width="0.2"
       id="path41" /><path
       d="m 230.1,157.2 h -2.9 c -0.1,0 0,0.1 0,0 v -1.8 c 0,-0.1 -0.1,0 0,0 h 5.8 c 0.1,0 0,-0.1 0,0 v 1.8 c 0,0.1 0.1,0 0,0 z"
       stroke="#0000ff"
       stroke-width="0.2"
       id="path42" /><path
       d="m 242.1,157.2 h -2.9 c -0.1,0 0,0.1 0,0 v -1.8 c 0,-0.1 -0.1,0 0,0 h 5.8 c 0.1,0 0,-0.1 0,0 v 1.8 c 0,0.1 0.1,0 0,0 z"
       stroke="#0000ff"
       stroke-width="0.2"
       id="path43" /><path
       d="m 254.1,157.2 h -2.9 c -0.1,0 0,0.1 0,0 v -1.8 c 0,-0.1 -0.1,0 0,0 h 5.8 c 0.1,0 0,-0.1 0,0 v 1.8 c 0,0.1 0.1,0 0,0 z"
       stroke="#0000ff"
       stroke-width="0.2"
       id="path44" /><path
       d="m 266.1,157.2 h -2.9 c -0.1,0 0,0.1 0,0 v -1.8 c 0,-0.1 -0.1,0 0,0 h 5.8 c 0.1,0 0,-0.1 0,0 v 1.8 c 0,0.1 0.1,0 0,0 z"
       stroke="#0000ff"
       stroke-width="0.2"
       id="path45" /><path
       d="m 278.1,157.2 h -2.9 c -0.1,0 0,0.1 0,0 v -1.8 c 0,-0.1 -0.1,0 0,0 h 5.8 c 0.1,0 0,-0.1 0,0 v 1.8 c 0,0.1 0.1,0 0,0 z"
       stroke="#0000ff"
       stroke-width="0.2"
       id="path46" /><path
       d="m 12.1,159.4 h 280 2 c 0.055,0 0.1,-0.045 0.1,-0.1 v -12.5 c 0,-0.055 -0.045,-0.1 -0.1,-0.1 h -1.9 c -0.1,0 0,0.1 0,0 v -5.8 c 0,-0.1 -0.1,0 0,0 h 1.9 c 0.055,0 0.1,-0.045 0.1,-0.1 v -6 c 0,-0.055 -0.045,-0.1 -0.1,-0.1 h -1.9 c -0.1,0 0,0.1 0,0 v -5.8 c 0,-0.1 -0.1,0 0,0 h 1.9 c 0.055,0 0.1,-0.045 0.1,-0.1 v -6 c 0,-0.055 -0.045,-0.1 -0.1,-0.1 h -1.9 c -0.1,0 0,0.1 0,0 v -5.8 c 0,-0.1 -0.1,0 0,0 h 1.9 c 0.055,0 0.1,-0.045 0.1,-0.1 v -6 c 0,-0.055 -0.045,-0.1 -0.1,-0.1 h -1.9 c -0.1,0 0,0.1 0,0 v -5.8 c 0,-0.1 -0.1,0 0,0 h 1.9 c 0.055,0 0.1,-0.045 0.1,-0.1 V 92.3 c 0,-0.055 -0.045,-0.1 -0.1,-0.1 h -2 -280 -2 c -0.055,0 -0.1,0.045 -0.1,0.1 v 12.5 c 0,0.055 0.045,0.1 0.1,0.1 H 12 c 0.1,0 0,-0.1 0,0 v 5.8 c 0,0.1 0.1,0 0,0 h -1.9 c -0.055,0 -0.1,0.045 -0.1,0.1 v 6 c 0,0.055 0.045,0.1 0.1,0.1 H 12 c 0.1,0 0,-0.1 0,0 v 5.8 c 0,0.1 0.1,0 0,0 h -1.9 c -0.055,0 -0.1,0.045 -0.1,0.1 v 6 c 0,0.055 0.045,0.1 0.1,0.1 H 12 c 0.1,0 0,-0.1 0,0 v 5.8 c 0,0.1 0.1,0 0,0 h -1.9 c -0.055,0 -0.1,0.045 -0.1,0.1 v 6 c 0,0.055 0.045,0.1 0.1,0.1 H 12 c 0.1,0 0,-0.1 0,0 v 5.8 c 0,0.1 0.1,0 0,0 h -1.9 c -0.055,0 -0.1,0.045 -0.1,0.1 v 12.5 c 0,0.055 0.045,0.1 0.1,0.1 z"
       stroke="#000000"
       stroke-width="0.2"
       id="path47" /></g><g
     id="p-3-7"
     style="fill:none;stroke-linecap:round;stroke-linejoin:round"
     transform="translate(86.81696,829.39407)"><path
       d="M 12.1,89.2 H 23 c 0.1,0 0,-0.1 0,0 v 1.9 c 0,0.055 0.045,0.1 0.1,0.1 h 6 c 0.055,0 0.1,-0.045 0.1,-0.1 v -1.9 c 0,-0.1 -0.1,0 0,0 H 35 c 0.1,0 0,-0.1 0,0 v 1.9 c 0,0.055 0.045,0.1 0.1,0.1 h 6 c 0.055,0 0.1,-0.045 0.1,-0.1 v -1.9 c 0,-0.1 -0.1,0 0,0 H 47 c 0.1,0 0,-0.1 0,0 v 1.9 c 0,0.055 0.045,0.1 0.1,0.1 h 6 c 0.055,0 0.1,-0.045 0.1,-0.1 v -1.9 c 0,-0.1 -0.1,0 0,0 H 59 c 0.1,0 0,-0.1 0,0 v 1.9 c 0,0.055 0.045,0.1 0.1,0.1 h 6 c 0.055,0 0.1,-0.045 0.1,-0.1 v -1.9 c 0,-0.1 -0.1,0 0,0 H 71 c 0.1,0 0,-0.1 0,0 v 1.9 c 0,0.055 0.045,0.1 0.1,0.1 h 6 c 0.055,0 0.1,-0.045 0.1,-0.1 v -1.9 c 0,-0.1 -0.1,0 0,0 H 83 c 0.1,0 0,-0.1 0,0 v 1.9 c 0,0.055 0.045,0.1 0.1,0.1 h 6 c 0.055,0 0.1,-0.045 0.1,-0.1 v -1.9 c 0,-0.1 -0.1,0 0,0 H 95 c 0.1,0 0,-0.1 0,0 v 1.9 c 0,0.055 0.045,0.1 0.1,0.1 h 6 c 0.055,0 0.1,-0.045 0.1,-0.1 v -1.9 c 0,-0.1 -0.1,0 0,0 h 5.8 c 0.1,0 0,-0.1 0,0 v 1.9 c 0,0.055 0.045,0.1 0.1,0.1 h 6 c 0.055,0 0.1,-0.045 0.1,-0.1 v -1.9 c 0,-0.1 -0.1,0 0,0 h 5.8 c 0.1,0 0,-0.1 0,0 v 1.9 c 0,0.055 0.045,0.1 0.1,0.1 h 6 c 0.055,0 0.1,-0.045 0.1,-0.1 v -1.9 c 0,-0.1 -0.1,0 0,0 h 5.8 c 0.1,0 0,-0.1 0,0 v 1.9 c 0,0.055 0.045,0.1 0.1,0.1 h 6 c 0.055,0 0.1,-0.045 0.1,-0.1 v -1.9 c 0,-0.1 -0.1,0 0,0 h 5.8 c 0.1,0 0,-0.1 0,0 v 1.9 c 0,0.055 0.045,0.1 0.1,0.1 h 6 c 0.055,0 0.1,-0.045 0.1,-0.1 v -1.9 c 0,-0.1 -0.1,0 0,0 h 5.8 c 0.1,0 0,-0.1 0,0 v 1.9 c 0,0.055 0.045,0.1 0.1,0.1 h 6 c 0.055,0 0.1,-0.045 0.1,-0.1 v -1.9 c 0,-0.1 -0.1,0 0,0 h 5.8 c 0.1,0 0,-0.1 0,0 v 1.9 c 0,0.055 0.045,0.1 0.1,0.1 h 6 c 0.055,0 0.1,-0.045 0.1,-0.1 v -1.9 c 0,-0.1 -0.1,0 0,0 h 5.8 c 0.1,0 0,-0.1 0,0 v 1.9 c 0,0.055 0.045,0.1 0.1,0.1 h 6 c 0.055,0 0.1,-0.045 0.1,-0.1 v -1.9 c 0,-0.1 -0.1,0 0,0 h 5.8 c 0.1,0 0,-0.1 0,0 v 1.9 c 0,0.055 0.045,0.1 0.1,0.1 h 6 c 0.055,0 0.1,-0.045 0.1,-0.1 v -1.9 c 0,-0.1 -0.1,0 0,0 h 5.8 c 0.1,0 0,-0.1 0,0 v 1.9 c 0,0.055 0.045,0.1 0.1,0.1 h 6 c 0.055,0 0.1,-0.045 0.1,-0.1 v -1.9 c 0,-0.1 -0.1,0 0,0 h 5.8 c 0.1,0 0,-0.1 0,0 v 1.9 c 0,0.055 0.045,0.1 0.1,0.1 h 6 c 0.055,0 0.1,-0.045 0.1,-0.1 v -1.9 c 0,-0.1 -0.1,0 0,0 h 5.8 c 0.1,0 0,-0.1 0,0 v 1.9 c 0,0.055 0.045,0.1 0.1,0.1 h 6 c 0.055,0 0.1,-0.045 0.1,-0.1 v -1.9 c 0,-0.1 -0.1,0 0,0 h 5.8 c 0.1,0 0,-0.1 0,0 v 1.9 c 0,0.055 0.045,0.1 0.1,0.1 h 6 c 0.055,0 0.1,-0.045 0.1,-0.1 v -1.9 c 0,-0.1 -0.1,0 0,0 h 5.8 c 0.1,0 0,-0.1 0,0 v 1.9 c 0,0.055 0.045,0.1 0.1,0.1 h 6 c 0.055,0 0.1,-0.045 0.1,-0.1 v -1.9 c 0,-0.1 -0.1,0 0,0 h 5.8 c 0.1,0 0,-0.1 0,0 v 1.9 c 0,0.055 0.045,0.1 0.1,0.1 h 6 c 0.055,0 0.1,-0.045 0.1,-0.1 v -1.9 c 0,-0.1 -0.1,0 0,0 h 5.8 c 0.1,0 0,-0.1 0,0 v 1.9 c 0,0.055 0.045,0.1 0.1,0.1 h 6 c 0.055,0 0.1,-0.045 0.1,-0.1 v -1.9 c 0,-0.1 -0.1,0 0,0 h 10.9 c 0.055,0 0.1,-0.045 0.1,-0.1 V 77.7 c 0,-0.1 -0.1,0 0,0 h 1.9 c 0.055,0 0.1,-0.045 0.1,-0.1 v -6 c 0,-0.055 -0.045,-0.1 -0.1,-0.1 h -1.9 c -0.1,0 0,0.1 0,0 v -5.8 c 0,-0.1 -0.1,0 0,0 h 1.9 c 0.055,0 0.1,-0.045 0.1,-0.1 v -6 c 0,-0.055 -0.045,-0.1 -0.1,-0.1 h -1.9 c -0.1,0 0,0.1 0,0 v -5.8 c 0,-0.1 -0.1,0 0,0 h 1.9 c 0.055,0 0.1,-0.045 0.1,-0.1 v -6 c 0,-0.055 -0.045,-0.1 -0.1,-0.1 h -1.9 c -0.1,0 0,0.1 0,0 v -5.8 c 0,-0.1 -0.1,0 0,0 h 1.9 c 0.055,0 0.1,-0.045 0.1,-0.1 v -6 c 0,-0.055 -0.045,-0.1 -0.1,-0.1 h -1.9 c -0.1,0 0,0.1 0,0 v -5.8 c 0,-0.1 -0.1,0 0,0 h 1.9 c 0.055,0 0.1,-0.045 0.1,-0.1 v -6 c 0,-0.055 -0.045,-0.1 -0.1,-0.1 h -1.9 c -0.1,0 0,0.1 0,0 V 12.1 c 0,-0.055 -0.045,-0.1 -0.1,-0.1 h -10.9 c -0.1,0 0,0.1 0,0 v -1.9 c 0,-0.055 -0.045,-0.1 -0.1,-0.1 h -6 c -0.055,0 -0.1,0.045 -0.1,0.1 V 12 c 0,0.1 0.1,0 0,0 h -5.8 c -0.1,0 0,0.1 0,0 v -1.9 c 0,-0.055 -0.045,-0.1 -0.1,-0.1 h -6 c -0.055,0 -0.1,0.045 -0.1,0.1 V 12 c 0,0.1 0.1,0 0,0 h -5.8 c -0.1,0 0,0.1 0,0 v -1.9 c 0,-0.055 -0.045,-0.1 -0.1,-0.1 h -6 c -0.055,0 -0.1,0.045 -0.1,0.1 V 12 c 0,0.1 0.1,0 0,0 h -5.8 c -0.1,0 0,0.1 0,0 v -1.9 c 0,-0.055 -0.045,-0.1 -0.1,-0.1 h -6 c -0.055,0 -0.1,0.045 -0.1,0.1 V 12 c 0,0.1 0.1,0 0,0 h -5.8 c -0.1,0 0,0.1 0,0 v -1.9 c 0,-0.055 -0.045,-0.1 -0.1,-0.1 h -6 c -0.055,0 -0.1,0.045 -0.1,0.1 V 12 c 0,0.1 0.1,0 0,0 h -5.8 c -0.1,0 0,0.1 0,0 v -1.9 c 0,-0.055 -0.045,-0.1 -0.1,-0.1 h -6 c -0.055,0 -0.1,0.045 -0.1,0.1 V 12 c 0,0.1 0.1,0 0,0 h -5.8 c -0.1,0 0,0.1 0,0 v -1.9 c 0,-0.055 -0.045,-0.1 -0.1,-0.1 h -6 c -0.055,0 -0.1,0.045 -0.1,0.1 V 12 c 0,0.1 0.1,0 0,0 h -5.8 c -0.1,0 0,0.1 0,0 v -1.9 c 0,-0.055 -0.045,-0.1 -0.1,-0.1 h -6 c -0.055,0 -0.1,0.045 -0.1,0.1 V 12 c 0,0.1 0.1,0 0,0 h -5.8 c -0.1,0 0,0.1 0,0 v -1.9 c 0,-0.055 -0.045,-0.1 -0.1,-0.1 h -6 c -0.055,0 -0.1,0.045 -0.1,0.1 V 12 c 0,0.1 0.1,0 0,0 h -5.8 c -0.1,0 0,0.1 0,0 v -1.9 c 0,-0.055 -0.045,-0.1 -0.1,-0.1 h -6 c -0.055,0 -0.1,0.045 -0.1,0.1 V 12 c 0,0.1 0.1,0 0,0 h -5.8 c -0.1,0 0,0.1 0,0 v -1.9 c 0,-0.055 -0.045,-0.1 -0.1,-0.1 h -6 c -0.055,0 -0.1,0.045 -0.1,0.1 V 12 c 0,0.1 0.1,0 0,0 h -5.8 c -0.1,0 0,0.1 0,0 v -1.9 c 0,-0.055 -0.045,-0.1 -0.1,-0.1 h -6 c -0.055,0 -0.1,0.045 -0.1,0.1 V 12 c 0,0.1 0.1,0 0,0 h -5.8 c -0.1,0 0,0.1 0,0 v -1.9 c 0,-0.055 -0.045,-0.1 -0.1,-0.1 h -6 c -0.055,0 -0.1,0.045 -0.1,0.1 V 12 c 0,0.1 0.1,0 0,0 h -5.8 c -0.1,0 0,0.1 0,0 v -1.9 c 0,-0.055 -0.045,-0.1 -0.1,-0.1 h -6 c -0.055,0 -0.1,0.045 -0.1,0.1 V 12 c 0,0.1 0.1,0 0,0 h -5.8 c -0.1,0 0,0.1 0,0 v -1.9 c 0,-0.055 -0.045,-0.1 -0.1,-0.1 h -6 c -0.055,0 -0.1,0.045 -0.1,0.1 V 12 c 0,0.1 0.1,0 0,0 h -5.8 c -0.1,0 0,0.1 0,0 v -1.9 c 0,-0.055 -0.045,-0.1 -0.1,-0.1 h -6 C 95.045,10 95,10.045 95,10.1 V 12 c 0,0.1 0.1,0 0,0 h -5.8 c -0.1,0 0,0.1 0,0 V 10.1 C 89.2,10.045 89.155,10 89.1,10 h -6 C 83.045,10 83,10.045 83,10.1 V 12 c 0,0.1 0.1,0 0,0 h -5.8 c -0.1,0 0,0.1 0,0 V 10.1 C 77.2,10.045 77.155,10 77.1,10 h -6 C 71.045,10 71,10.045 71,10.1 V 12 c 0,0.1 0.1,0 0,0 h -5.8 c -0.1,0 0,0.1 0,0 V 10.1 C 65.2,10.045 65.155,10 65.1,10 h -6 C 59.045,10 59,10.045 59,10.1 V 12 c 0,0.1 0.1,0 0,0 h -5.8 c -0.1,0 0,0.1 0,0 V 10.1 C 53.2,10.045 53.155,10 53.1,10 h -6 C 47.045,10 47,10.045 47,10.1 V 12 c 0,0.1 0.1,0 0,0 h -5.8 c -0.1,0 0,0.1 0,0 V 10.1 C 41.2,10.045 41.155,10 41.1,10 h -6 C 35.045,10 35,10.045 35,10.1 V 12 c 0,0.1 0.1,0 0,0 h -5.8 c -0.1,0 0,0.1 0,0 V 10.1 C 29.2,10.045 29.155,10 29.1,10 h -6 C 23.045,10 23,10.045 23,10.1 V 12 c 0,0.1 0.1,0 0,0 H 12.1 C 12.045,12 12,12.045 12,12.1 v 11.4 c 0,0.1 0.1,0 0,0 h -1.9 c -0.055,0 -0.1,0.045 -0.1,0.1 v 6 c 0,0.055 0.045,0.1 0.1,0.1 H 12 c 0.1,0 0,-0.1 0,0 v 5.8 c 0,0.1 0.1,0 0,0 h -1.9 c -0.055,0 -0.1,0.045 -0.1,0.1 v 6 c 0,0.055 0.045,0.1 0.1,0.1 H 12 c 0.1,0 0,-0.1 0,0 v 5.8 c 0,0.1 0.1,0 0,0 h -1.9 c -0.055,0 -0.1,0.045 -0.1,0.1 v 6 c 0,0.055 0.045,0.1 0.1,0.1 H 12 c 0.1,0 0,-0.1 0,0 v 5.8 c 0,0.1 0.1,0 0,0 h -1.9 c -0.055,0 -0.1,0.045 -0.1,0.1 v 6 c 0,0.055 0.045,0.1 0.1,0.1 H 12 c 0.1,0 0,-0.1 0,0 v 5.8 c 0,0.1 0.1,0 0,0 h -1.9 c -0.055,0 -0.1,0.045 -0.1,0.1 v 6 c 0,0.055 0.045,0.1 0.1,0.1 H 12 c 0.1,0 0,-0.1 0,0 v 11.4 c 0,0.055 0.045,0.1 0.1,0.1 z"
       stroke="#000000"
       stroke-width="0.2"
       id="path48" /></g><g
     id="p-4-6"
     style="fill:none;stroke-linecap:round;stroke-linejoin:round"
     transform="translate(97.280295,843.39407)"><path
       d="m 311.8,225.4 h -2.9 c -0.1,0 0,0.1 0,0 v -1.8 c 0,-0.1 -0.1,0 0,0 h 5.8 c 0.1,0 0,-0.1 0,0 v 1.8 c 0,0.1 0.1,0 0,0 z"
       stroke="#0000ff"
       stroke-width="0.2"
       id="path49" /><path
       d="m 323.8,225.4 h -2.9 c -0.1,0 0,0.1 0,0 v -1.8 c 0,-0.1 -0.1,0 0,0 h 5.8 c 0.1,0 0,-0.1 0,0 v 1.8 c 0,0.1 0.1,0 0,0 z"
       stroke="#0000ff"
       stroke-width="0.2"
       id="path50" /><path
       d="m 335.8,225.4 h -2.9 c -0.1,0 0,0.1 0,0 v -1.8 c 0,-0.1 -0.1,0 0,0 h 5.8 c 0.1,0 0,-0.1 0,0 v 1.8 c 0,0.1 0.1,0 0,0 z"
       stroke="#0000ff"
       stroke-width="0.2"
       id="path51" /><path
       d="m 347.8,225.4 h -2.9 c -0.1,0 0,0.1 0,0 v -1.8 c 0,-0.1 -0.1,0 0,0 h 5.8 c 0.1,0 0,-0.1 0,0 v 1.8 c 0,0.1 0.1,0 0,0 z"
       stroke="#0000ff"
       stroke-width="0.2"
       id="path52" /><path
       d="m 359.8,225.4 h -2.9 c -0.1,0 0,0.1 0,0 v -1.8 c 0,-0.1 -0.1,0 0,0 h 5.8 c 0.1,0 0,-0.1 0,0 v 1.8 c 0,0.1 0.1,0 0,0 z"
       stroke="#0000ff"
       stroke-width="0.2"
       id="path53" /><path
       d="m 297.3,227.6 h 77 c 0.055,0 0.1,-0.045 0.1,-0.1 v -12.4 c 0,-0.1 -0.1,0 0,0 h 1.9 c 0.055,0 0.1,-0.045 0.1,-0.1 v -6 c 0,-0.055 -0.045,-0.1 -0.1,-0.1 h -1.9 c -0.1,0 0,0.1 0,0 v -5.8 c 0,-0.1 -0.1,0 0,0 h 1.9 c 0.055,0 0.1,-0.045 0.1,-0.1 v -6 c 0,-0.055 -0.045,-0.1 -0.1,-0.1 h -1.9 c -0.1,0 0,0.1 0,0 v -5.8 c 0,-0.1 -0.1,0 0,0 h 1.9 c 0.055,0 0.1,-0.045 0.1,-0.1 v -6 c 0,-0.055 -0.045,-0.1 -0.1,-0.1 h -1.9 c -0.1,0 0,0.1 0,0 v -5.8 c 0,-0.1 -0.1,0 0,0 h 1.9 c 0.055,0 0.1,-0.045 0.1,-0.1 v -6 c 0,-0.055 -0.045,-0.1 -0.1,-0.1 h -1.9 c -0.1,0 0,0.1 0,0 v -12.4 c 0,-0.055 -0.045,-0.1 -0.1,-0.1 h -77 c -0.055,0 -0.1,0.045 -0.1,0.1 v 12.4 c 0,0.1 0.1,0 0,0 h -1.9 c -0.055,0 -0.1,0.045 -0.1,0.1 v 6 c 0,0.055 0.045,0.1 0.1,0.1 h 1.9 c 0.1,0 0,-0.1 0,0 v 5.8 c 0,0.1 0.1,0 0,0 h -1.9 c -0.055,0 -0.1,0.045 -0.1,0.1 v 6 c 0,0.055 0.045,0.1 0.1,0.1 h 1.9 c 0.1,0 0,-0.1 0,0 v 5.8 c 0,0.1 0.1,0 0,0 h -1.9 c -0.055,0 -0.1,0.045 -0.1,0.1 v 6 c 0,0.055 0.045,0.1 0.1,0.1 h 1.9 c 0.1,0 0,-0.1 0,0 v 5.8 c 0,0.1 0.1,0 0,0 h -1.9 c -0.055,0 -0.1,0.045 -0.1,0.1 v 6 c 0,0.055 0.045,0.1 0.1,0.1 h 1.9 c 0.1,0 0,-0.1 0,0 v 12.4 c 0,0.055 0.045,0.1 0.1,0.1 z"
       stroke="#000000"
       stroke-width="0.2"
       id="path54" /></g><g
     id="p-5-1"
     style="fill:none;stroke-linecap:round;stroke-linejoin:round"
     transform="translate(97.280295,836.39407)"><path
       d="m 311.8,157.2 h -2.9 c -0.1,0 0,0.1 0,0 v -1.8 c 0,-0.1 -0.1,0 0,0 h 5.8 c 0.1,0 0,-0.1 0,0 v 1.8 c 0,0.1 0.1,0 0,0 z"
       stroke="#0000ff"
       stroke-width="0.2"
       id="path55" /><path
       d="m 323.8,157.2 h -2.9 c -0.1,0 0,0.1 0,0 v -1.8 c 0,-0.1 -0.1,0 0,0 h 5.8 c 0.1,0 0,-0.1 0,0 v 1.8 c 0,0.1 0.1,0 0,0 z"
       stroke="#0000ff"
       stroke-width="0.2"
       id="path56" /><path
       d="m 335.8,157.2 h -2.9 c -0.1,0 0,0.1 0,0 v -1.8 c 0,-0.1 -0.1,0 0,0 h 5.8 c 0.1,0 0,-0.1 0,0 v 1.8 c 0,0.1 0.1,0 0,0 z"
       stroke="#0000ff"
       stroke-width="0.2"
       id="path57" /><path
       d="m 347.8,157.2 h -2.9 c -0.1,0 0,0.1 0,0 v -1.8 c 0,-0.1 -0.1,0 0,0 h 5.8 c 0.1,0 0,-0.1 0,0 v 1.8 c 0,0.1 0.1,0 0,0 z"
       stroke="#0000ff"
       stroke-width="0.2"
       id="path58" /><path
       d="m 359.8,157.2 h -2.9 c -0.1,0 0,0.1 0,0 v -1.8 c 0,-0.1 -0.1,0 0,0 h 5.8 c 0.1,0 0,-0.1 0,0 v 1.8 c 0,0.1 0.1,0 0,0 z"
       stroke="#0000ff"
       stroke-width="0.2"
       id="path59" /><path
       d="m 297.3,159.4 h 77 c 0.055,0 0.1,-0.045 0.1,-0.1 v -12.4 c 0,-0.1 -0.1,0 0,0 h 1.9 c 0.055,0 0.1,-0.045 0.1,-0.1 v -6 c 0,-0.055 -0.045,-0.1 -0.1,-0.1 h -1.9 c -0.1,0 0,0.1 0,0 v -5.8 c 0,-0.1 -0.1,0 0,0 h 1.9 c 0.055,0 0.1,-0.045 0.1,-0.1 v -6 c 0,-0.055 -0.045,-0.1 -0.1,-0.1 h -1.9 c -0.1,0 0,0.1 0,0 v -5.8 c 0,-0.1 -0.1,0 0,0 h 1.9 c 0.055,0 0.1,-0.045 0.1,-0.1 v -6 c 0,-0.055 -0.045,-0.1 -0.1,-0.1 h -1.9 c -0.1,0 0,0.1 0,0 v -5.8 c 0,-0.1 -0.1,0 0,0 h 1.9 c 0.055,0 0.1,-0.045 0.1,-0.1 v -6 c 0,-0.055 -0.045,-0.1 -0.1,-0.1 h -1.9 c -0.1,0 0,0.1 0,0 V 92.3 c 0,-0.055 -0.045,-0.1 -0.1,-0.1 h -77 c -0.055,0 -0.1,0.045 -0.1,0.1 v 12.4 c 0,0.1 0.1,0 0,0 h -1.9 c -0.055,0 -0.1,0.045 -0.1,0.1 v 6 c 0,0.055 0.045,0.1 0.1,0.1 h 1.9 c 0.1,0 0,-0.1 0,0 v 5.8 c 0,0.1 0.1,0 0,0 h -1.9 c -0.055,0 -0.1,0.045 -0.1,0.1 v 6 c 0,0.055 0.045,0.1 0.1,0.1 h 1.9 c 0.1,0 0,-0.1 0,0 v 5.8 c 0,0.1 0.1,0 0,0 h -1.9 c -0.055,0 -0.1,0.045 -0.1,0.1 v 6 c 0,0.055 0.045,0.1 0.1,0.1 h 1.9 c 0.1,0 0,-0.1 0,0 v 5.8 c 0,0.1 0.1,0 0,0 h -1.9 c -0.055,0 -0.1,0.045 -0.1,0.1 v 6 c 0,0.055 0.045,0.1 0.1,0.1 h 1.9 c 0.1,0 0,-0.1 0,0 v 12.4 c 0,0.055 0.045,0.1 0.1,0.1 z"
       stroke="#000000"
       stroke-width="0.2"
       id="path60" /></g><!--
DividerTray - Divider tray - rows and dividers



Adding '0:' at the start of the sy parameter adds a slot at the very back. Adding ':0' at the end of sy adds a slot meeting the bottom at the very front. This is especially useful if slot angle is set above zero.

There are 4 different sets of dividers rendered:

* With asymmetric tabs so the tabs fit on top of each other
* With tabs of half wall thickness that can go side by side
* With tabs of a full wall thickness
* One single divider spanning across all columns

You will likely need to cut each of the dividers you want multiple times.



Created with Boxes.py (https://boxes.hackerspace-bamberg.de/)
Creation date: 2026-03-23 11:39:29
Command line (remove spaces between dashes): boxes DividerTray - -FingerJoint_surroundingspaces=3 - -FingerJoint_finger=3 - -FingerJoint_space=3 - -Slot_angle=30 - -Slot_depth=40 - -Notch_depth=25 - -sx=77 '- -sy=0:40*7:0' - -h=90 - -notches_in_wall=0 - -bottom=0 - -bottom=1 - -thickness=2 - -burn=0.2 - -reference=285 - -spacing=0.5
Url: https://boxes.hackerspace-bamberg.de/DividerTray?FingerJoint_style=rectangular&FingerJoint_surroundingspaces=3&FingerJoint_bottom_lip=0.0&FingerJoint_edge_width=1.0&FingerJoint_extra_length=0.0&FingerJoint_finger=3&FingerJoint_play=0.0&FingerJoint_space=3&FingerJoint_width=1.0&HandleEdge_height=20&HandleEdge_hole_height=75.0&HandleEdge_hole_width=40%3A40&HandleEdge_on_sides=0&HandleEdge_on_sides=1&HandleEdge_radius=10.0&HandleEdge_outset=1.0&Lid_handle=none&Lid_style=none&Lid_handle_height=8&Lid_height=4&Lid_play=0.1&Slot_angle=30&Slot_depth=40&Slot_extra_slack=0.2&Slot_radius=2&Notch_depth=25&Notch_lower_radius=8&Notch_upper_radius=1&Divider_bottom_margin=0&Divider_play=0.05&sx=77&sy=0%3A40*7%3A0&h=90&outside=0&outside=1&notches_in_wall=0&left_wall=0&left_wall=1&right_wall=0&right_wall=1&bottom=0&bottom=1&handle=0&thickness=2&burn=0.2&format=svg&labels=0&labels=1&reference=285&tabs=0.0&qr_code=0&inner_corners=loop&spacing=0.5&debug=0&language=en&render=2
Url short: https://boxes.hackerspace-bamberg.de/DividerTray?FingerJoint_surroundingspaces=3&FingerJoint_finger=3&FingerJoint_space=3&Slot_angle=30&Slot_depth=40&Notch_depth=25&sx=77&sy=0%3A40*7%3A0&h=90&notches_in_wall=0&bottom=0&bottom=1&thickness=2&burn=0.2&reference=285&spacing=0.5
SettingsUrl: https://boxes.hackerspace-bamberg.de/DividerTray?FingerJoint_style=rectangular&FingerJoint_surroundingspaces=3&FingerJoint_bottom_lip=0.0&FingerJoint_edge_width=1.0&FingerJoint_extra_length=0.0&FingerJoint_finger=3&FingerJoint_play=0.0&FingerJoint_space=3&FingerJoint_width=1.0&HandleEdge_height=20&HandleEdge_hole_height=75.0&HandleEdge_hole_width=40%3A40&HandleEdge_on_sides=0&HandleEdge_on_sides=1&HandleEdge_radius=10.0&HandleEdge_outset=1.0&Lid_handle=none&Lid_style=none&Lid_handle_height=8&Lid_height=4&Lid_play=0.1&Slot_angle=30&Slot_depth=40&Slot_extra_slack=0.2&Slot_radius=2&Notch_depth=25&Notch_lower_radius=8&Notch_upper_radius=1&Divider_bottom_margin=0&Divider_play=0.05&sx=77&sy=0%3A40*7%3A0&h=90&outside=0&outside=1&notches_in_wall=0&left_wall=0&left_wall=1&right_wall=0&right_wall=1&bottom=0&bottom=1&handle=0&thickness=2&burn=0.2&format=svg&labels=0&labels=1&reference=285&tabs=0.0&qr_code=0&inner_corners=loop&spacing=0.5&debug=0&language=en&render=2
SettingsUrl short: https://boxes.hackerspace-bamberg.de/DividerTray?FingerJoint_surroundingspaces=3&FingerJoint_finger=3&FingerJoint_space=3&Slot_angle=30&Slot_depth=40&Notch_depth=25&sx=77&sy=0%3A40*7%3A0&h=90&notches_in_wall=0&bottom=0&bottom=1&thickness=2&burn=0.2&reference=285&spacing=0.5
--><title
     id="title1-2">DividerTray</title><g
     id="p-1-6"
     style="fill:none;stroke-linecap:round;stroke-linejoin:round"
     transform="translate(382.5803,138.5217)"><path
       d="m 12.2,697.836 h 9.5 c 0.11,0 0.2,-0.09 0.2,-0.2 v -1.8 c 0,-0.2 -0.2,0 0,0 h 5.6 c 0.2,0 0,-0.2 0,0 v 1.8 c 0,0.11 0.09,0.2 0.2,0.2 h 6 c 0.11,0 0.2,-0.09 0.2,-0.2 v -1.8 c 0,-0.2 -0.2,0 0,0 h 5.6 c 0.2,0 0,-0.2 0,0 v 1.8 c 0,0.11 0.09,0.2 0.2,0.2 h 6 c 0.11,0 0.2,-0.09 0.2,-0.2 v -1.8 c 0,-0.2 -0.2,0 0,0 h 5.6 c 0.2,0 0,-0.2 0,0 v 1.8 c 0,0.11 0.09,0.2 0.2,0.2 h 6 c 0.11,0 0.2,-0.09 0.2,-0.2 v -1.8 c 0,-0.2 -0.2,0 0,0 h 5.6 c 0.2,0 0,-0.2 0,0 v 1.8 c 0,0.11 0.09,0.2 0.2,0.2 h 6 c 0.11,0 0.2,-0.09 0.2,-0.2 v -1.8 c 0,-0.2 -0.2,0 0,0 h 5.6 c 0.2,0 0,-0.2 0,0 v 1.8 c 0,0.11 0.09,0.2 0.2,0.2 h 9.5 2 c 0.11,0 0.2,-0.09 0.2,-0.2 v -2 -11 c 0,-0.111 -0.09,-0.2 -0.2,-0.2 h -1.8 c -0.2,0 0,0.2 0,0 v -5.6 c 0,-0.2 -0.2,0 0,0 h 1.8 c 0.11,0 0.2,-0.09 0.2,-0.2 v -6 c 0,-0.111 -0.09,-0.2 -0.2,-0.2 h -1.8 c -0.2,0 0,0.2 0,0 v -5.6 c 0,-0.2 -0.2,0 0,0 h 1.8 c 0.11,0 0.2,-0.09 0.2,-0.2 v -6 c 0,-0.111 -0.09,-0.2 -0.2,-0.2 h -1.8 c -0.2,0 0,0.2 0,0 v -5.6 c 0,-0.2 -0.2,0 0,0 h 1.8 c 0.11,0 0.2,-0.09 0.2,-0.2 v -6 c 0,-0.111 -0.09,-0.2 -0.2,-0.2 h -1.8 c -0.2,0 0,0.2 0,0 v -5.6 c 0,-0.2 -0.2,0 0,0 h 1.8 c 0.11,0 0.2,-0.09 0.2,-0.2 v -6 c 0,-0.111 -0.09,-0.2 -0.2,-0.2 h -1.8 c -0.2,0 0,0.2 0,0 v -5.6 c 0,-0.2 -0.2,0 0,0 h 1.8 c 0.11,0 0.2,-0.09 0.2,-0.2 v -6 c 0,-0.111 -0.09,-0.2 -0.2,-0.2 h -1.8 c -0.2,0 0,0.2 0,0 v -5.6 c 0,-0.2 -0.2,0 0,0 h 1.8 c 0.11,0 0.2,-0.09 0.2,-0.2 v -11 c 0,-0.111 -0.09,-0.2 -0.2,-0.2 h -2 -73 -2 c -0.11,0 -0.2,0.089 -0.2,0.2 v 11 c 0,0.11 0.09,0.2 0.2,0.2 H 12 c 0.2,0 0,-0.2 0,0 v 5.6 c 0,0.2 0.2,0 0,0 h -1.8 c -0.11,0 -0.2,0.089 -0.2,0.2 v 6 c 0,0.11 0.09,0.2 0.2,0.2 H 12 c 0.2,0 0,-0.2 0,0 v 5.6 c 0,0.2 0.2,0 0,0 h -1.8 c -0.11,0 -0.2,0.089 -0.2,0.2 v 6 c 0,0.11 0.09,0.2 0.2,0.2 H 12 c 0.2,0 0,-0.2 0,0 v 5.6 c 0,0.2 0.2,0 0,0 h -1.8 c -0.11,0 -0.2,0.089 -0.2,0.2 v 6 c 0,0.11 0.09,0.2 0.2,0.2 H 12 c 0.2,0 0,-0.2 0,0 v 5.6 c 0,0.2 0.2,0 0,0 h -1.8 c -0.11,0 -0.2,0.089 -0.2,0.2 v 6 c 0,0.11 0.09,0.2 0.2,0.2 H 12 c 0.2,0 0,-0.2 0,0 v 5.6 c 0,0.2 0.2,0 0,0 h -1.8 c -0.11,0 -0.2,0.089 -0.2,0.2 v 6 c 0,0.11 0.09,0.2 0.2,0.2 H 12 c 0.2,0 0,-0.2 0,0 v 5.6 c 0,0.2 0.2,0 0,0 h -1.8 c -0.11,0 -0.2,0.089 -0.2,0.2 v 11 2 c 0,0.11 0.09,0.2 0.2,0.2 z"
       stroke="#000000"
       stroke-width="0.4"
       id="path2-18" /><text
       dominant-baseline="hanging"
       font-size="4px"
       style="font-style:normal;font-weight:normal;font-family:sans-serif;fill:#ff0000"
       text-anchor="middle"
       transform="translate(48.7,650.836)"
       id="text2">Back</text></g><g
     id="p-2-9"
     style="fill:none;stroke-linecap:round;stroke-linejoin:round"
     transform="translate(382.5803,133.5217)"><path
       d="m 12.2,606.436 h 9.5 c 0.11,0 0.2,-0.09 0.2,-0.2 v -1.8 c 0,-0.2 -0.2,0 0,0 h 5.6 c 0.2,0 0,-0.2 0,0 v 1.8 c 0,0.11 0.09,0.2 0.2,0.2 h 6 c 0.11,0 0.2,-0.09 0.2,-0.2 v -1.8 c 0,-0.2 -0.2,0 0,0 h 5.6 c 0.2,0 0,-0.2 0,0 v 1.8 c 0,0.11 0.09,0.2 0.2,0.2 h 6 c 0.11,0 0.2,-0.09 0.2,-0.2 v -1.8 c 0,-0.2 -0.2,0 0,0 h 5.6 c 0.2,0 0,-0.2 0,0 v 1.8 c 0,0.11 0.09,0.2 0.2,0.2 h 6 c 0.11,0 0.2,-0.09 0.2,-0.2 v -1.8 c 0,-0.2 -0.2,0 0,0 h 5.6 c 0.2,0 0,-0.2 0,0 v 1.8 c 0,0.11 0.09,0.2 0.2,0.2 h 6 c 0.11,0 0.2,-0.09 0.2,-0.2 v -1.8 c 0,-0.2 -0.2,0 0,0 h 5.6 c 0.2,0 0,-0.2 0,0 v 1.8 c 0,0.11 0.09,0.2 0.2,0.2 h 9.5 2 c 0.11,0 0.2,-0.09 0.2,-0.2 v -2 -11 c 0,-0.111 -0.09,-0.2 -0.2,-0.2 h -1.8 c -0.2,0 0,0.2 0,0 v -5.6 c 0,-0.2 -0.2,0 0,0 h 1.8 c 0.11,0 0.2,-0.09 0.2,-0.2 v -6 c 0,-0.111 -0.09,-0.2 -0.2,-0.2 h -1.8 c -0.2,0 0,0.2 0,0 v -5.6 c 0,-0.2 -0.2,0 0,0 h 1.8 c 0.11,0 0.2,-0.09 0.2,-0.2 v -6 c 0,-0.111 -0.09,-0.2 -0.2,-0.2 h -1.8 c -0.2,0 0,0.2 0,0 v -5.6 c 0,-0.2 -0.2,0 0,0 h 1.8 c 0.11,0 0.2,-0.09 0.2,-0.2 v -6 c 0,-0.111 -0.09,-0.2 -0.2,-0.2 h -1.8 c -0.2,0 0,0.2 0,0 v -5.6 c 0,-0.2 -0.2,0 0,0 h 1.8 c 0.11,0 0.2,-0.09 0.2,-0.2 v -6 c 0,-0.111 -0.09,-0.2 -0.2,-0.2 h -1.8 c -0.2,0 0,0.2 0,0 v -5.6 c 0,-0.2 -0.2,0 0,0 h 1.8 c 0.11,0 0.2,-0.09 0.2,-0.2 v -6 c 0,-0.111 -0.09,-0.2 -0.2,-0.2 h -1.8 c -0.2,0 0,0.2 0,0 v -5.6 c 0,-0.2 -0.2,0 0,0 h 1.8 c 0.11,0 0.2,-0.09 0.2,-0.2 v -11 c 0,-0.111 -0.09,-0.2 -0.2,-0.2 h -2 -73 -2 c -0.11,0 -0.2,0.089 -0.2,0.2 v 11 c 0,0.11 0.09,0.2 0.2,0.2 H 12 c 0.2,0 0,-0.2 0,0 v 5.6 c 0,0.2 0.2,0 0,0 h -1.8 c -0.11,0 -0.2,0.089 -0.2,0.2 v 6 c 0,0.11 0.09,0.2 0.2,0.2 H 12 c 0.2,0 0,-0.2 0,0 v 5.6 c 0,0.2 0.2,0 0,0 h -1.8 c -0.11,0 -0.2,0.089 -0.2,0.2 v 6 c 0,0.11 0.09,0.2 0.2,0.2 H 12 c 0.2,0 0,-0.2 0,0 v 5.6 c 0,0.2 0.2,0 0,0 h -1.8 c -0.11,0 -0.2,0.089 -0.2,0.2 v 6 c 0,0.11 0.09,0.2 0.2,0.2 H 12 c 0.2,0 0,-0.2 0,0 v 5.6 c 0,0.2 0.2,0 0,0 h -1.8 c -0.11,0 -0.2,0.089 -0.2,0.2 v 6 c 0,0.11 0.09,0.2 0.2,0.2 H 12 c 0.2,0 0,-0.2 0,0 v 5.6 c 0,0.2 0.2,0 0,0 h -1.8 c -0.11,0 -0.2,0.089 -0.2,0.2 v 6 c 0,0.11 0.09,0.2 0.2,0.2 H 12 c 0.2,0 0,-0.2 0,0 v 5.6 c 0,0.2 0.2,0 0,0 h -1.8 c -0.11,0 -0.2,0.089 -0.2,0.2 v 11 2 c 0,0.11 0.09,0.2 0.2,0.2 z"
       stroke="#000000"
       stroke-width="0.4"
       id="path3-2" /><text
       dominant-baseline="hanging"
       font-size="4px"
       style="font-style:normal;font-weight:normal;font-family:sans-serif;fill:#ff0000"
       text-anchor="middle"
       transform="translate(48.7,559.436)"
       id="text3">Front</text></g><g
     id="p-3-79"
     style="fill:none;stroke-linecap:round;stroke-linejoin:round"
     transform="translate(86.91696,147.94364)"><path
       d="m 12.2,515.036 h 9 c 0.11,0 0.2,-0.09 0.2,-0.2 v -1.8 c 0,-0.2 -0.2,0 0,0 H 27 c 0.2,0 0,-0.2 0,0 v 1.8 c 0,0.11 0.09,0.2 0.2,0.2 h 6 c 0.11,0 0.2,-0.09 0.2,-0.2 v -1.8 c 0,-0.2 -0.2,0 0,0 H 39 c 0.2,0 0,-0.2 0,0 v 1.8 c 0,0.11 0.09,0.2 0.2,0.2 h 6 c 0.11,0 0.2,-0.09 0.2,-0.2 v -1.8 c 0,-0.2 -0.2,0 0,0 H 51 c 0.2,0 0,-0.2 0,0 v 1.8 c 0,0.11 0.09,0.2 0.2,0.2 h 6 c 0.11,0 0.2,-0.09 0.2,-0.2 v -1.8 c 0,-0.2 -0.2,0 0,0 H 63 c 0.2,0 0,-0.2 0,0 v 1.8 c 0,0.11 0.09,0.2 0.2,0.2 h 6 c 0.11,0 0.2,-0.09 0.2,-0.2 v -1.8 c 0,-0.2 -0.2,0 0,0 H 75 c 0.2,0 0,-0.2 0,0 v 1.8 c 0,0.11 0.09,0.2 0.2,0.2 h 6 c 0.11,0 0.2,-0.09 0.2,-0.2 v -1.8 c 0,-0.2 -0.2,0 0,0 H 87 c 0.2,0 0,-0.2 0,0 v 1.8 c 0,0.11 0.09,0.2 0.2,0.2 h 6 c 0.11,0 0.2,-0.09 0.2,-0.2 v -1.8 c 0,-0.2 -0.2,0 0,0 H 99 c 0.2,0 0,-0.2 0,0 v 1.8 c 0,0.11 0.09,0.2 0.2,0.2 h 6 c 0.11,0 0.2,-0.09 0.2,-0.2 v -1.8 c 0,-0.2 -0.2,0 0,0 h 5.6 c 0.2,0 0,-0.2 0,0 v 1.8 c 0,0.11 0.09,0.2 0.2,0.2 h 6 c 0.11,0 0.2,-0.09 0.2,-0.2 v -1.8 c 0,-0.2 -0.2,0 0,0 h 5.6 c 0.2,0 0,-0.2 0,0 v 1.8 c 0,0.11 0.09,0.2 0.2,0.2 h 6 c 0.11,0 0.2,-0.09 0.2,-0.2 v -1.8 c 0,-0.2 -0.2,0 0,0 h 5.6 c 0.2,0 0,-0.2 0,0 v 1.8 c 0,0.11 0.09,0.2 0.2,0.2 h 6 c 0.11,0 0.2,-0.09 0.2,-0.2 v -1.8 c 0,-0.2 -0.2,0 0,0 h 5.6 c 0.2,0 0,-0.2 0,0 v 1.8 c 0,0.11 0.09,0.2 0.2,0.2 h 6 c 0.11,0 0.2,-0.09 0.2,-0.2 v -1.8 c 0,-0.2 -0.2,0 0,0 h 5.6 c 0.2,0 0,-0.2 0,0 v 1.8 c 0,0.11 0.09,0.2 0.2,0.2 h 6 c 0.11,0 0.2,-0.09 0.2,-0.2 v -1.8 c 0,-0.2 -0.2,0 0,0 h 5.6 c 0.2,0 0,-0.2 0,0 v 1.8 c 0,0.11 0.09,0.2 0.2,0.2 h 6 c 0.11,0 0.2,-0.09 0.2,-0.2 v -1.8 c 0,-0.2 -0.2,0 0,0 h 5.6 c 0.2,0 0,-0.2 0,0 v 1.8 c 0,0.11 0.09,0.2 0.2,0.2 h 6 c 0.11,0 0.2,-0.09 0.2,-0.2 v -1.8 c 0,-0.2 -0.2,0 0,0 h 5.6 c 0.2,0 0,-0.2 0,0 v 1.8 c 0,0.11 0.09,0.2 0.2,0.2 h 6 c 0.11,0 0.2,-0.09 0.2,-0.2 v -1.8 c 0,-0.2 -0.2,0 0,0 h 5.6 c 0.2,0 0,-0.2 0,0 v 1.8 c 0,0.11 0.09,0.2 0.2,0.2 h 6 c 0.11,0 0.2,-0.09 0.2,-0.2 v -1.8 c 0,-0.2 -0.2,0 0,0 h 5.6 c 0.2,0 0,-0.2 0,0 v 1.8 c 0,0.11 0.09,0.2 0.2,0.2 h 6 c 0.11,0 0.2,-0.09 0.2,-0.2 v -1.8 c 0,-0.2 -0.2,0 0,0 h 5.6 c 0.2,0 0,-0.2 0,0 v 1.8 c 0,0.11 0.09,0.2 0.2,0.2 h 6 c 0.11,0 0.2,-0.09 0.2,-0.2 v -1.8 c 0,-0.2 -0.2,0 0,0 h 5.6 c 0.2,0 0,-0.2 0,0 v 1.8 c 0,0.11 0.09,0.2 0.2,0.2 h 6 c 0.11,0 0.2,-0.09 0.2,-0.2 v -1.8 c 0,-0.2 -0.2,0 0,0 h 5.6 c 0.2,0 0,-0.2 0,0 v 1.8 c 0,0.11 0.09,0.2 0.2,0.2 h 6 c 0.11,0 0.2,-0.09 0.2,-0.2 v -1.8 c 0,-0.2 -0.2,0 0,0 h 5.6 c 0.2,0 0,-0.2 0,0 v 1.8 c 0,0.11 0.09,0.2 0.2,0.2 h 6 c 0.11,0 0.2,-0.09 0.2,-0.2 v -1.8 c 0,-0.2 -0.2,0 0,0 h 5.6 c 0.2,0 0,-0.2 0,0 v 1.8 c 0,0.11 0.09,0.2 0.2,0.2 h 9 c 0.11,0 0.2,-0.09 0.2,-0.2 v -2 -10.8 c 0,-0.2 -0.2,0 0,0 h 1.8 c 0.11,0 0.2,-0.09 0.2,-0.2 v -6 c 0,-0.111 -0.09,-0.2 -0.2,-0.2 h -1.8 c -0.2,0 0,0.2 0,0 v -5.6 c 0,-0.2 -0.2,0 0,0 h 1.8 c 0.11,0 0.2,-0.09 0.2,-0.2 v -6 c 0,-0.111 -0.09,-0.2 -0.2,-0.2 h -1.8 c -0.2,0 0,0.2 0,0 v -5.6 c 0,-0.2 -0.2,0 0,0 h 1.8 c 0.11,0 0.2,-0.09 0.2,-0.2 v -6 c 0,-0.111 -0.09,-0.2 -0.2,-0.2 h -1.8 c -0.2,0 0,0.2 0,0 v -5.6 c 0,-0.2 -0.2,0 0,0 h 1.8 c 0.11,0 0.2,-0.09 0.2,-0.2 v -6 c 0,-0.111 -0.09,-0.2 -0.2,-0.2 h -1.8 c -0.2,0 0,0.2 0,0 v -5.6 c 0,-0.2 -0.2,0 0,0 h 1.8 c 0.11,0 0.2,-0.09 0.2,-0.2 v -6 c 0,-0.111 -0.09,-0.2 -0.2,-0.2 h -1.8 c -0.2,0 0,0.2 0,0 v -5.6 c 0,-0.2 -0.2,0 0,0 h 1.8 c 0.11,0 0.2,-0.09 0.2,-0.2 v -6 c 0,-0.111 -0.09,-0.2 -0.2,-0.2 h -1.8 c -0.2,0 0,0.2 0,0 v -10.8 c 0,-0.111 -0.09,-0.2 -0.2,-0.2 -0.071,0 -0.137,0.038 -0.173,0.1 l -20.535,35.568 c -0.1,0.173 0.173,0.1 0,0 l -1.559,-0.9 c -0.173,-0.1 -0.1,0.173 0,0 l 18.168,-31.468 c 0.193,-0.335 0.295,-0.714 0.295,-1.1 0,-0.386 -0.102,-0.766 -0.295,-1.1 -0.193,-0.335 -0.471,-0.612 -0.805,-0.805 -0.335,-0.194 -0.714,-0.295 -1.1,-0.295 h -24.649 c -0.386,0 -0.765,0.101 -1.1,0.295 -0.334,0.193 -0.612,0.47 -0.805,0.805 l -19.958,34.568 c -0.1,0.173 0.173,0.1 0,0 l -1.559,-0.9 c -0.173,-0.1 -0.1,0.173 0,0 l 18.168,-31.468 c 0.193,-0.335 0.295,-0.714 0.295,-1.1 0,-0.386 -0.102,-0.766 -0.295,-1.1 -0.193,-0.335 -0.471,-0.612 -0.805,-0.805 -0.334,-0.194 -0.714,-0.295 -1.1,-0.295 H 225.74 c -0.387,0 -0.766,0.101 -1.1,0.295 -0.335,0.193 -0.613,0.47 -0.806,0.805 l -19.957,34.568 c -0.1,0.173 0.173,0.1 0,0 l -1.559,-0.9 c -0.173,-0.1 -0.1,0.173 0,0 l 18.168,-31.468 c 0.193,-0.335 0.294,-0.714 0.294,-1.1 0,-0.386 -0.101,-0.766 -0.294,-1.1 -0.193,-0.335 -0.471,-0.612 -0.806,-0.805 -0.334,-0.194 -0.713,-0.295 -1.1,-0.295 h -24.648 c -0.386,0 -0.766,0.101 -1.1,0.295 -0.334,0.193 -0.612,0.47 -0.805,0.805 l -19.958,34.568 c -0.1,0.173 0.173,0.1 0,0 l -1.559,-0.9 c -0.173,-0.1 -0.1,0.173 0,0 l 18.168,-31.468 c 0.193,-0.335 0.295,-0.714 0.295,-1.1 0,-0.386 -0.102,-0.766 -0.295,-1.1 -0.193,-0.335 -0.471,-0.612 -0.805,-0.805 -0.335,-0.194 -0.714,-0.295 -1.1,-0.295 h -24.648 c -0.387,0 -0.766,0.101 -1.1,0.295 -0.335,0.193 -0.613,0.47 -0.806,0.805 l -19.957,34.568 c -0.1,0.173 0.173,0.1 0,0 l -1.559,-0.9 c -0.174,-0.1 -0.1,0.173 0,0 l 18.168,-31.468 c 0.193,-0.335 0.294,-0.714 0.294,-1.1 0,-0.386 -0.101,-0.766 -0.294,-1.1 -0.193,-0.335 -0.471,-0.612 -0.806,-0.805 -0.334,-0.194 -0.713,-0.295 -1.1,-0.295 h -24.648 c -0.386,0 -0.766,0.101 -1.1,0.295 -0.334,0.193 -0.612,0.47 -0.805,0.805 l -19.958,34.568 c -0.1,0.173 0.173,0.1 0,0 l -1.559,-0.9 c -0.173,-0.1 -0.1,0.173 0,0 l 18.168,-31.468 c 0.193,-0.335 0.295,-0.714 0.295,-1.1 0,-0.386 -0.102,-0.766 -0.295,-1.1 -0.193,-0.335 -0.471,-0.612 -0.805,-0.805 -0.335,-0.194 -0.714,-0.295 -1.1,-0.295 H 98.509 c -0.386,0 -0.765,0.101 -1.1,0.295 -0.334,0.193 -0.612,0.47 -0.805,0.805 l -19.958,34.568 c -0.1,0.173 0.174,0.1 0,0 l -1.558,-0.9 c -0.174,-0.1 -0.1,0.173 0,0 l 18.168,-31.468 c 0.193,-0.335 0.294,-0.714 0.294,-1.1 0,-0.386 -0.101,-0.766 -0.294,-1.1 -0.194,-0.335 -0.471,-0.612 -0.806,-0.805 -0.334,-0.194 -0.714,-0.295 -1.1,-0.295 H 66.702 c -0.386,0 -0.766,0.101 -1.1,0.295 -0.335,0.193 -0.612,0.47 -0.805,0.805 l -19.958,34.568 c -0.1,0.173 0.173,0.1 0,0 l -1.559,-0.9 c -0.173,-0.1 -0.1,0.173 0,0 l 18.168,-31.468 c 0.193,-0.335 0.295,-0.714 0.295,-1.1 0,-0.386 -0.102,-0.766 -0.295,-1.1 -0.193,-0.335 -0.471,-0.612 -0.805,-0.805 -0.335,-0.194 -0.714,-0.295 -1.1,-0.295 H 12.2 c -0.11,0 -0.2,0.089 -0.2,0.2 v 10.8 c 0,0.2 0.2,0 0,0 h -1.8 c -0.11,0 -0.2,0.089 -0.2,0.2 v 6 c 0,0.11 0.09,0.2 0.2,0.2 H 12 c 0.2,0 0,-0.2 0,0 v 5.6 c 0,0.2 0.2,0 0,0 h -1.8 c -0.11,0 -0.2,0.089 -0.2,0.2 v 6 c 0,0.11 0.09,0.2 0.2,0.2 H 12 c 0.2,0 0,-0.2 0,0 v 5.6 c 0,0.2 0.2,0 0,0 h -1.8 c -0.11,0 -0.2,0.089 -0.2,0.2 v 6 c 0,0.11 0.09,0.2 0.2,0.2 H 12 c 0.2,0 0,-0.2 0,0 v 5.6 c 0,0.2 0.2,0 0,0 h -1.8 c -0.11,0 -0.2,0.089 -0.2,0.2 v 6 c 0,0.11 0.09,0.2 0.2,0.2 H 12 c 0.2,0 0,-0.2 0,0 v 5.6 c 0,0.2 0.2,0 0,0 h -1.8 c -0.11,0 -0.2,0.089 -0.2,0.2 v 6 c 0,0.11 0.09,0.2 0.2,0.2 H 12 c 0.2,0 0,-0.2 0,0 v 5.6 c 0,0.2 0.2,0 0,0 h -1.8 c -0.11,0 -0.2,0.089 -0.2,0.2 v 6 c 0,0.11 0.09,0.2 0.2,0.2 H 12 c 0.2,0 0,-0.2 0,0 v 10.8 2 c 0,0.11 0.09,0.2 0.2,0.2 z"
       stroke="#000000"
       stroke-width="0.4"
       id="path4-5" /><text
       dominant-baseline="hanging"
       font-size="4px"
       style="font-style:normal;font-weight:normal;font-family:sans-serif;fill:#ff0000"
       text-anchor="middle"
       transform="translate(150.2,468.036)"
       id="text4">Sidepiece 1</text></g><g
     id="p-4-4"
     style="fill:none;stroke-linecap:round;stroke-linejoin:round"
     transform="translate(86.91696,143.94364)"><path
       d="m 12.2,423.636 h 9 c 0.11,0 0.2,-0.09 0.2,-0.2 v -1.8 c 0,-0.2 -0.2,0 0,0 H 27 c 0.2,0 0,-0.2 0,0 v 1.8 c 0,0.11 0.09,0.2 0.2,0.2 h 6 c 0.11,0 0.2,-0.09 0.2,-0.2 v -1.8 c 0,-0.2 -0.2,0 0,0 H 39 c 0.2,0 0,-0.2 0,0 v 1.8 c 0,0.11 0.09,0.2 0.2,0.2 h 6 c 0.11,0 0.2,-0.09 0.2,-0.2 v -1.8 c 0,-0.2 -0.2,0 0,0 H 51 c 0.2,0 0,-0.2 0,0 v 1.8 c 0,0.11 0.09,0.2 0.2,0.2 h 6 c 0.11,0 0.2,-0.09 0.2,-0.2 v -1.8 c 0,-0.2 -0.2,0 0,0 H 63 c 0.2,0 0,-0.2 0,0 v 1.8 c 0,0.11 0.09,0.2 0.2,0.2 h 6 c 0.11,0 0.2,-0.09 0.2,-0.2 v -1.8 c 0,-0.2 -0.2,0 0,0 H 75 c 0.2,0 0,-0.2 0,0 v 1.8 c 0,0.11 0.09,0.2 0.2,0.2 h 6 c 0.11,0 0.2,-0.09 0.2,-0.2 v -1.8 c 0,-0.2 -0.2,0 0,0 H 87 c 0.2,0 0,-0.2 0,0 v 1.8 c 0,0.11 0.09,0.2 0.2,0.2 h 6 c 0.11,0 0.2,-0.09 0.2,-0.2 v -1.8 c 0,-0.2 -0.2,0 0,0 H 99 c 0.2,0 0,-0.2 0,0 v 1.8 c 0,0.11 0.09,0.2 0.2,0.2 h 6 c 0.11,0 0.2,-0.09 0.2,-0.2 v -1.8 c 0,-0.2 -0.2,0 0,0 h 5.6 c 0.2,0 0,-0.2 0,0 v 1.8 c 0,0.11 0.09,0.2 0.2,0.2 h 6 c 0.11,0 0.2,-0.09 0.2,-0.2 v -1.8 c 0,-0.2 -0.2,0 0,0 h 5.6 c 0.2,0 0,-0.2 0,0 v 1.8 c 0,0.11 0.09,0.2 0.2,0.2 h 6 c 0.11,0 0.2,-0.09 0.2,-0.2 v -1.8 c 0,-0.2 -0.2,0 0,0 h 5.6 c 0.2,0 0,-0.2 0,0 v 1.8 c 0,0.11 0.09,0.2 0.2,0.2 h 6 c 0.11,0 0.2,-0.09 0.2,-0.2 v -1.8 c 0,-0.2 -0.2,0 0,0 h 5.6 c 0.2,0 0,-0.2 0,0 v 1.8 c 0,0.11 0.09,0.2 0.2,0.2 h 6 c 0.11,0 0.2,-0.09 0.2,-0.2 v -1.8 c 0,-0.2 -0.2,0 0,0 h 5.6 c 0.2,0 0,-0.2 0,0 v 1.8 c 0,0.11 0.09,0.2 0.2,0.2 h 6 c 0.11,0 0.2,-0.09 0.2,-0.2 v -1.8 c 0,-0.2 -0.2,0 0,0 h 5.6 c 0.2,0 0,-0.2 0,0 v 1.8 c 0,0.11 0.09,0.2 0.2,0.2 h 6 c 0.11,0 0.2,-0.09 0.2,-0.2 v -1.8 c 0,-0.2 -0.2,0 0,0 h 5.6 c 0.2,0 0,-0.2 0,0 v 1.8 c 0,0.11 0.09,0.2 0.2,0.2 h 6 c 0.11,0 0.2,-0.09 0.2,-0.2 v -1.8 c 0,-0.2 -0.2,0 0,0 h 5.6 c 0.2,0 0,-0.2 0,0 v 1.8 c 0,0.11 0.09,0.2 0.2,0.2 h 6 c 0.11,0 0.2,-0.09 0.2,-0.2 v -1.8 c 0,-0.2 -0.2,0 0,0 h 5.6 c 0.2,0 0,-0.2 0,0 v 1.8 c 0,0.11 0.09,0.2 0.2,0.2 h 6 c 0.11,0 0.2,-0.09 0.2,-0.2 v -1.8 c 0,-0.2 -0.2,0 0,0 h 5.6 c 0.2,0 0,-0.2 0,0 v 1.8 c 0,0.11 0.09,0.2 0.2,0.2 h 6 c 0.11,0 0.2,-0.09 0.2,-0.2 v -1.8 c 0,-0.2 -0.2,0 0,0 h 5.6 c 0.2,0 0,-0.2 0,0 v 1.8 c 0,0.11 0.09,0.2 0.2,0.2 h 6 c 0.11,0 0.2,-0.09 0.2,-0.2 v -1.8 c 0,-0.2 -0.2,0 0,0 h 5.6 c 0.2,0 0,-0.2 0,0 v 1.8 c 0,0.11 0.09,0.2 0.2,0.2 h 6 c 0.11,0 0.2,-0.09 0.2,-0.2 v -1.8 c 0,-0.2 -0.2,0 0,0 h 5.6 c 0.2,0 0,-0.2 0,0 v 1.8 c 0,0.11 0.09,0.2 0.2,0.2 h 6 c 0.11,0 0.2,-0.09 0.2,-0.2 v -1.8 c 0,-0.2 -0.2,0 0,0 h 5.6 c 0.2,0 0,-0.2 0,0 v 1.8 c 0,0.11 0.09,0.2 0.2,0.2 h 6 c 0.11,0 0.2,-0.09 0.2,-0.2 v -1.8 c 0,-0.2 -0.2,0 0,0 h 5.6 c 0.2,0 0,-0.2 0,0 v 1.8 c 0,0.11 0.09,0.2 0.2,0.2 h 9 c 0.11,0 0.2,-0.09 0.2,-0.2 v -2 -10.8 c 0,-0.2 -0.2,0 0,0 h 1.8 c 0.11,0 0.2,-0.09 0.2,-0.2 v -6 c 0,-0.111 -0.09,-0.2 -0.2,-0.2 h -1.8 c -0.2,0 0,0.2 0,0 v -5.6 c 0,-0.2 -0.2,0 0,0 h 1.8 c 0.11,0 0.2,-0.09 0.2,-0.2 v -6 c 0,-0.111 -0.09,-0.2 -0.2,-0.2 h -1.8 c -0.2,0 0,0.2 0,0 v -5.6 c 0,-0.2 -0.2,0 0,0 h 1.8 c 0.11,0 0.2,-0.09 0.2,-0.2 v -6 c 0,-0.111 -0.09,-0.2 -0.2,-0.2 h -1.8 c -0.2,0 0,0.2 0,0 v -5.6 c 0,-0.2 -0.2,0 0,0 h 1.8 c 0.11,0 0.2,-0.09 0.2,-0.2 v -6 c 0,-0.111 -0.09,-0.2 -0.2,-0.2 h -1.8 c -0.2,0 0,0.2 0,0 v -5.6 c 0,-0.2 -0.2,0 0,0 h 1.8 c 0.11,0 0.2,-0.09 0.2,-0.2 v -6 c 0,-0.111 -0.09,-0.2 -0.2,-0.2 h -1.8 c -0.2,0 0,0.2 0,0 v -5.6 c 0,-0.2 -0.2,0 0,0 h 1.8 c 0.11,0 0.2,-0.09 0.2,-0.2 v -6 c 0,-0.111 -0.09,-0.2 -0.2,-0.2 h -1.8 c -0.2,0 0,0.2 0,0 v -10.8 c 0,-0.111 -0.09,-0.2 -0.2,-0.2 -0.071,0 -0.137,0.038 -0.173,0.1 l -20.535,35.568 c -0.1,0.173 0.173,0.1 0,0 l -1.559,-0.9 c -0.173,-0.1 -0.1,0.173 0,0 l 18.168,-31.468 c 0.193,-0.335 0.295,-0.714 0.295,-1.1 0,-0.386 -0.102,-0.766 -0.295,-1.1 -0.193,-0.335 -0.471,-0.612 -0.805,-0.805 -0.335,-0.194 -0.714,-0.295 -1.1,-0.295 h -24.649 c -0.386,0 -0.765,0.101 -1.1,0.295 -0.334,0.193 -0.612,0.47 -0.805,0.805 l -19.958,34.568 c -0.1,0.173 0.173,0.1 0,0 l -1.559,-0.9 c -0.173,-0.1 -0.1,0.173 0,0 l 18.168,-31.468 c 0.193,-0.335 0.295,-0.714 0.295,-1.1 0,-0.386 -0.102,-0.766 -0.295,-1.1 -0.193,-0.335 -0.471,-0.612 -0.805,-0.805 -0.334,-0.194 -0.714,-0.295 -1.1,-0.295 H 225.74 c -0.387,0 -0.766,0.101 -1.1,0.295 -0.335,0.193 -0.613,0.47 -0.806,0.805 l -19.957,34.568 c -0.1,0.173 0.173,0.1 0,0 l -1.559,-0.9 c -0.173,-0.1 -0.1,0.173 0,0 l 18.168,-31.468 c 0.193,-0.335 0.294,-0.714 0.294,-1.1 0,-0.386 -0.101,-0.766 -0.294,-1.1 -0.193,-0.335 -0.471,-0.612 -0.806,-0.805 -0.334,-0.194 -0.713,-0.295 -1.1,-0.295 h -24.648 c -0.386,0 -0.766,0.101 -1.1,0.295 -0.334,0.193 -0.612,0.47 -0.805,0.805 l -19.958,34.568 c -0.1,0.173 0.173,0.1 0,0 l -1.559,-0.9 c -0.173,-0.1 -0.1,0.173 0,0 l 18.168,-31.468 c 0.193,-0.335 0.295,-0.714 0.295,-1.1 0,-0.386 -0.102,-0.766 -0.295,-1.1 -0.193,-0.335 -0.471,-0.612 -0.805,-0.805 -0.335,-0.194 -0.714,-0.295 -1.1,-0.295 h -24.648 c -0.387,0 -0.766,0.101 -1.1,0.295 -0.335,0.193 -0.613,0.47 -0.806,0.805 l -19.957,34.568 c -0.1,0.173 0.173,0.1 0,0 l -1.559,-0.9 c -0.174,-0.1 -0.1,0.173 0,0 l 18.168,-31.468 c 0.193,-0.335 0.294,-0.714 0.294,-1.1 0,-0.386 -0.101,-0.766 -0.294,-1.1 -0.193,-0.335 -0.471,-0.612 -0.806,-0.805 -0.334,-0.194 -0.713,-0.295 -1.1,-0.295 h -24.648 c -0.386,0 -0.766,0.101 -1.1,0.295 -0.334,0.193 -0.612,0.47 -0.805,0.805 l -19.958,34.568 c -0.1,0.173 0.173,0.1 0,0 l -1.559,-0.9 c -0.173,-0.1 -0.1,0.173 0,0 l 18.168,-31.468 c 0.193,-0.335 0.295,-0.714 0.295,-1.1 0,-0.386 -0.102,-0.766 -0.295,-1.1 -0.193,-0.335 -0.471,-0.612 -0.805,-0.805 -0.335,-0.194 -0.714,-0.295 -1.1,-0.295 H 98.509 c -0.386,0 -0.765,0.101 -1.1,0.295 -0.334,0.193 -0.612,0.47 -0.805,0.805 l -19.958,34.568 c -0.1,0.173 0.174,0.1 0,0 l -1.558,-0.9 c -0.174,-0.1 -0.1,0.173 0,0 l 18.168,-31.468 c 0.193,-0.335 0.294,-0.714 0.294,-1.1 0,-0.386 -0.101,-0.766 -0.294,-1.1 -0.194,-0.335 -0.471,-0.612 -0.806,-0.805 -0.334,-0.194 -0.714,-0.295 -1.1,-0.295 H 66.702 c -0.386,0 -0.766,0.101 -1.1,0.295 -0.335,0.193 -0.612,0.47 -0.805,0.805 l -19.958,34.568 c -0.1,0.173 0.173,0.1 0,0 l -1.559,-0.9 c -0.173,-0.1 -0.1,0.173 0,0 l 18.168,-31.468 c 0.193,-0.335 0.295,-0.714 0.295,-1.1 0,-0.386 -0.102,-0.766 -0.295,-1.1 -0.193,-0.335 -0.471,-0.612 -0.805,-0.805 -0.335,-0.194 -0.714,-0.295 -1.1,-0.295 H 12.2 c -0.11,0 -0.2,0.089 -0.2,0.2 v 10.8 c 0,0.2 0.2,0 0,0 h -1.8 c -0.11,0 -0.2,0.089 -0.2,0.2 v 6 c 0,0.11 0.09,0.2 0.2,0.2 H 12 c 0.2,0 0,-0.2 0,0 v 5.6 c 0,0.2 0.2,0 0,0 h -1.8 c -0.11,0 -0.2,0.089 -0.2,0.2 v 6 c 0,0.11 0.09,0.2 0.2,0.2 H 12 c 0.2,0 0,-0.2 0,0 v 5.6 c 0,0.2 0.2,0 0,0 h -1.8 c -0.11,0 -0.2,0.089 -0.2,0.2 v 6 c 0,0.11 0.09,0.2 0.2,0.2 H 12 c 0.2,0 0,-0.2 0,0 v 5.6 c 0,0.2 0.2,0 0,0 h -1.8 c -0.11,0 -0.2,0.089 -0.2,0.2 v 6 c 0,0.11 0.09,0.2 0.2,0.2 H 12 c 0.2,0 0,-0.2 0,0 v 5.6 c 0,0.2 0.2,0 0,0 h -1.8 c -0.11,0 -0.2,0.089 -0.2,0.2 v 6 c 0,0.11 0.09,0.2 0.2,0.2 H 12 c 0.2,0 0,-0.2 0,0 v 5.6 c 0,0.2 0.2,0 0,0 h -1.8 c -0.11,0 -0.2,0.089 -0.2,0.2 v 6 c 0,0.11 0.09,0.2 0.2,0.2 H 12 c 0.2,0 0,-0.2 0,0 v 10.8 2 c 0,0.11 0.09,0.2 0.2,0.2 z"
       stroke="#000000"
       stroke-width="0.4"
       id="path5-3" /><text
       dominant-baseline="hanging"
       font-size="4px"
       style="font-style:normal;font-weight:normal;font-family:sans-serif;fill:#ff0000"
       text-anchor="middle"
       transform="translate(150.2,376.636)"
       id="text5">Sidepiece 2</text></g><g
     id="p-5-12"
     style="fill:none;stroke-linecap:round;stroke-linejoin:round"
     transform="translate(191.58587,373.05807)"><path
       d="m 293.6,695.836 h 9.3 c 0.2,0 0,-0.2 0,0 v 1.8 c 0,0.11 0.09,0.2 0.2,0.2 h 6 c 0.11,0 0.2,-0.09 0.2,-0.2 v -1.8 c 0,-0.2 -0.2,0 0,0 h 5.6 c 0.2,0 0,-0.2 0,0 v 1.8 c 0,0.11 0.09,0.2 0.2,0.2 h 6 c 0.11,0 0.2,-0.09 0.2,-0.2 v -1.8 c 0,-0.2 -0.2,0 0,0 h 5.6 c 0.2,0 0,-0.2 0,0 v 1.8 c 0,0.11 0.09,0.2 0.2,0.2 h 6 c 0.11,0 0.2,-0.09 0.2,-0.2 v -1.8 c 0,-0.2 -0.2,0 0,0 h 5.6 c 0.2,0 0,-0.2 0,0 v 1.8 c 0,0.11 0.09,0.2 0.2,0.2 h 6 c 0.11,0 0.2,-0.09 0.2,-0.2 v -1.8 c 0,-0.2 -0.2,0 0,0 h 5.6 c 0.2,0 0,-0.2 0,0 v 1.8 c 0,0.11 0.09,0.2 0.2,0.2 h 6 c 0.11,0 0.2,-0.09 0.2,-0.2 v -1.8 c 0,-0.2 -0.2,0 0,0 h 9.3 c 0.11,0 0.2,-0.09 0.2,-0.2 v -8.8 c 0,-0.2 -0.2,0 0,0 h 1.8 c 0.11,0 0.2,-0.09 0.2,-0.2 v -6 c 0,-0.111 -0.09,-0.2 -0.2,-0.2 h -1.8 c -0.2,0 0,0.2 0,0 v -5.6 c 0,-0.2 -0.2,0 0,0 h 1.8 c 0.11,0 0.2,-0.09 0.2,-0.2 v -6 c 0,-0.111 -0.09,-0.2 -0.2,-0.2 h -1.8 c -0.2,0 0,0.2 0,0 v -5.6 c 0,-0.2 -0.2,0 0,0 h 1.8 c 0.11,0 0.2,-0.09 0.2,-0.2 v -6 c 0,-0.111 -0.09,-0.2 -0.2,-0.2 h -1.8 c -0.2,0 0,0.2 0,0 v -5.6 c 0,-0.2 -0.2,0 0,0 h 1.8 c 0.11,0 0.2,-0.09 0.2,-0.2 v -6 c 0,-0.111 -0.09,-0.2 -0.2,-0.2 h -1.8 c -0.2,0 0,0.2 0,0 v -5.6 c 0,-0.2 -0.2,0 0,0 h 1.8 c 0.11,0 0.2,-0.09 0.2,-0.2 v -6 c 0,-0.111 -0.09,-0.2 -0.2,-0.2 h -1.8 c -0.2,0 0,0.2 0,0 v -5.6 c 0,-0.2 -0.2,0 0,0 h 1.8 c 0.11,0 0.2,-0.09 0.2,-0.2 v -6 c 0,-0.111 -0.09,-0.2 -0.2,-0.2 h -1.8 c -0.2,0 0,0.2 0,0 v -5.6 c 0,-0.2 -0.2,0 0,0 h 1.8 c 0.11,0 0.2,-0.09 0.2,-0.2 v -6 c 0,-0.111 -0.09,-0.2 -0.2,-0.2 h -1.8 c -0.2,0 0,0.2 0,0 v -5.6 c 0,-0.2 -0.2,0 0,0 h 1.8 c 0.11,0 0.2,-0.09 0.2,-0.2 v -6 c 0,-0.111 -0.09,-0.2 -0.2,-0.2 h -1.8 c -0.2,0 0,0.2 0,0 v -5.6 c 0,-0.2 -0.2,0 0,0 h 1.8 c 0.11,0 0.2,-0.09 0.2,-0.2 v -6 c 0,-0.111 -0.09,-0.2 -0.2,-0.2 h -1.8 c -0.2,0 0,0.2 0,0 v -5.6 c 0,-0.2 -0.2,0 0,0 h 1.8 c 0.11,0 0.2,-0.09 0.2,-0.2 v -6 c 0,-0.111 -0.09,-0.2 -0.2,-0.2 h -1.8 c -0.2,0 0,0.2 0,0 v -5.6 c 0,-0.2 -0.2,0 0,0 h 1.8 c 0.11,0 0.2,-0.09 0.2,-0.2 v -6 c 0,-0.111 -0.09,-0.2 -0.2,-0.2 h -1.8 c -0.2,0 0,0.2 0,0 v -5.6 c 0,-0.2 -0.2,0 0,0 h 1.8 c 0.11,0 0.2,-0.09 0.2,-0.2 v -6 c 0,-0.111 -0.09,-0.2 -0.2,-0.2 h -1.8 c -0.2,0 0,0.2 0,0 v -5.6 c 0,-0.2 -0.2,0 0,0 h 1.8 c 0.11,0 0.2,-0.09 0.2,-0.2 v -6 c 0,-0.111 -0.09,-0.2 -0.2,-0.2 h -1.8 c -0.2,0 0,0.2 0,0 v -5.6 c 0,-0.2 -0.2,0 0,0 h 1.8 c 0.11,0 0.2,-0.09 0.2,-0.2 v -6 c 0,-0.111 -0.09,-0.2 -0.2,-0.2 h -1.8 c -0.2,0 0,0.2 0,0 v -5.6 c 0,-0.2 -0.2,0 0,0 h 1.8 c 0.11,0 0.2,-0.09 0.2,-0.2 v -6 c 0,-0.111 -0.09,-0.2 -0.2,-0.2 h -1.8 c -0.2,0 0,0.2 0,0 v -5.6 c 0,-0.2 -0.2,0 0,0 h 1.8 c 0.11,0 0.2,-0.09 0.2,-0.2 v -6 c 0,-0.111 -0.09,-0.2 -0.2,-0.2 h -1.8 c -0.2,0 0,0.2 0,0 v -5.6 c 0,-0.2 -0.2,0 0,0 h 1.8 c 0.11,0 0.2,-0.09 0.2,-0.2 v -6 c 0,-0.111 -0.09,-0.2 -0.2,-0.2 h -1.8 c -0.2,0 0,0.2 0,0 v -5.6 c 0,-0.2 -0.2,0 0,0 h 1.8 c 0.11,0 0.2,-0.09 0.2,-0.2 v -6 c 0,-0.111 -0.09,-0.2 -0.2,-0.2 h -1.8 c -0.2,0 0,0.2 0,0 v -5.6 c 0,-0.2 -0.2,0 0,0 h 1.8 c 0.11,0 0.2,-0.09 0.2,-0.2 v -6 c 0,-0.111 -0.09,-0.2 -0.2,-0.2 h -1.8 c -0.2,0 0,0.2 0,0 v -5.6 c 0,-0.2 -0.2,0 0,0 h 1.8 c 0.11,0 0.2,-0.09 0.2,-0.2 v -6 c 0,-0.111 -0.09,-0.2 -0.2,-0.2 h -1.8 c -0.2,0 0,0.2 0,0 v -5.6 c 0,-0.2 -0.2,0 0,0 h 1.8 c 0.11,0 0.2,-0.09 0.2,-0.2 v -6 c 0,-0.111 -0.09,-0.2 -0.2,-0.2 h -1.8 c -0.2,0 0,0.2 0,0 v -5.6 c 0,-0.2 -0.2,0 0,0 h 1.8 c 0.11,0 0.2,-0.09 0.2,-0.2 v -6 c 0,-0.111 -0.09,-0.2 -0.2,-0.2 h -1.8 c -0.2,0 0,0.2 0,0 v -8.8 c 0,-0.111 -0.09,-0.2 -0.2,-0.2 h -9.3 c -0.2,0 0,0.2 0,0 v -1.8 c 0,-0.111 -0.09,-0.2 -0.2,-0.2 h -6 c -0.11,0 -0.2,0.089 -0.2,0.2 v 1.8 c 0,0.2 0.2,0 0,0 h -5.6 c -0.2,0 0,0.2 0,0 v -1.8 c 0,-0.111 -0.09,-0.2 -0.2,-0.2 h -6 c -0.11,0 -0.2,0.089 -0.2,0.2 v 1.8 c 0,0.2 0.2,0 0,0 h -5.6 c -0.2,0 0,0.2 0,0 v -1.8 c 0,-0.111 -0.09,-0.2 -0.2,-0.2 h -6 c -0.11,0 -0.2,0.089 -0.2,0.2 v 1.8 c 0,0.2 0.2,0 0,0 h -5.6 c -0.2,0 0,0.2 0,0 v -1.8 c 0,-0.111 -0.09,-0.2 -0.2,-0.2 h -6 c -0.11,0 -0.2,0.089 -0.2,0.2 v 1.8 c 0,0.2 0.2,0 0,0 h -5.6 c -0.2,0 0,0.2 0,0 v -1.8 c 0,-0.111 -0.09,-0.2 -0.2,-0.2 h -6 c -0.11,0 -0.2,0.089 -0.2,0.2 v 1.8 c 0,0.2 0.2,0 0,0 h -9.3 c -0.11,0 -0.2,0.089 -0.2,0.2 v 8.8 c 0,0.2 0.2,0 0,0 h -1.8 c -0.11,0 -0.2,0.089 -0.2,0.2 v 6 c 0,0.11 0.09,0.2 0.2,0.2 h 1.8 c 0.2,0 0,-0.2 0,0 v 5.6 c 0,0.2 0.2,0 0,0 h -1.8 c -0.11,0 -0.2,0.089 -0.2,0.2 v 6 c 0,0.11 0.09,0.2 0.2,0.2 h 1.8 c 0.2,0 0,-0.2 0,0 v 5.6 c 0,0.2 0.2,0 0,0 h -1.8 c -0.11,0 -0.2,0.089 -0.2,0.2 v 6 c 0,0.11 0.09,0.2 0.2,0.2 h 1.8 c 0.2,0 0,-0.2 0,0 v 5.6 c 0,0.2 0.2,0 0,0 h -1.8 c -0.11,0 -0.2,0.089 -0.2,0.2 v 6 c 0,0.11 0.09,0.2 0.2,0.2 h 1.8 c 0.2,0 0,-0.2 0,0 v 5.6 c 0,0.2 0.2,0 0,0 h -1.8 c -0.11,0 -0.2,0.089 -0.2,0.2 v 6 c 0,0.11 0.09,0.2 0.2,0.2 h 1.8 c 0.2,0 0,-0.2 0,0 v 5.6 c 0,0.2 0.2,0 0,0 h -1.8 c -0.11,0 -0.2,0.089 -0.2,0.2 v 6 c 0,0.11 0.09,0.2 0.2,0.2 h 1.8 c 0.2,0 0,-0.2 0,0 v 5.6 c 0,0.2 0.2,0 0,0 h -1.8 c -0.11,0 -0.2,0.089 -0.2,0.2 v 6 c 0,0.11 0.09,0.2 0.2,0.2 h 1.8 c 0.2,0 0,-0.2 0,0 v 5.6 c 0,0.2 0.2,0 0,0 h -1.8 c -0.11,0 -0.2,0.089 -0.2,0.2 v 6 c 0,0.11 0.09,0.2 0.2,0.2 h 1.8 c 0.2,0 0,-0.2 0,0 v 5.6 c 0,0.2 0.2,0 0,0 h -1.8 c -0.11,0 -0.2,0.089 -0.2,0.2 v 6 c 0,0.11 0.09,0.2 0.2,0.2 h 1.8 c 0.2,0 0,-0.2 0,0 v 5.6 c 0,0.2 0.2,0 0,0 h -1.8 c -0.11,0 -0.2,0.089 -0.2,0.2 v 6 c 0,0.11 0.09,0.2 0.2,0.2 h 1.8 c 0.2,0 0,-0.2 0,0 v 5.6 c 0,0.2 0.2,0 0,0 h -1.8 c -0.11,0 -0.2,0.089 -0.2,0.2 v 6 c 0,0.11 0.09,0.2 0.2,0.2 h 1.8 c 0.2,0 0,-0.2 0,0 v 5.6 c 0,0.2 0.2,0 0,0 h -1.8 c -0.11,0 -0.2,0.089 -0.2,0.2 v 6 c 0,0.11 0.09,0.2 0.2,0.2 h 1.8 c 0.2,0 0,-0.2 0,0 v 5.6 c 0,0.2 0.2,0 0,0 h -1.8 c -0.11,0 -0.2,0.089 -0.2,0.2 v 6 c 0,0.11 0.09,0.2 0.2,0.2 h 1.8 c 0.2,0 0,-0.2 0,0 v 5.6 c 0,0.2 0.2,0 0,0 h -1.8 c -0.11,0 -0.2,0.089 -0.2,0.2 v 6 c 0,0.11 0.09,0.2 0.2,0.2 h 1.8 c 0.2,0 0,-0.2 0,0 v 5.6 c 0,0.2 0.2,0 0,0 h -1.8 c -0.11,0 -0.2,0.089 -0.2,0.2 v 6 c 0,0.11 0.09,0.2 0.2,0.2 h 1.8 c 0.2,0 0,-0.2 0,0 v 5.6 c 0,0.2 0.2,0 0,0 h -1.8 c -0.11,0 -0.2,0.089 -0.2,0.2 v 6 c 0,0.11 0.09,0.2 0.2,0.2 h 1.8 c 0.2,0 0,-0.2 0,0 v 5.6 c 0,0.2 0.2,0 0,0 h -1.8 c -0.11,0 -0.2,0.089 -0.2,0.2 v 6 c 0,0.11 0.09,0.2 0.2,0.2 h 1.8 c 0.2,0 0,-0.2 0,0 v 5.6 c 0,0.2 0.2,0 0,0 h -1.8 c -0.11,0 -0.2,0.089 -0.2,0.2 v 6 c 0,0.11 0.09,0.2 0.2,0.2 h 1.8 c 0.2,0 0,-0.2 0,0 v 5.6 c 0,0.2 0.2,0 0,0 h -1.8 c -0.11,0 -0.2,0.089 -0.2,0.2 v 6 c 0,0.11 0.09,0.2 0.2,0.2 h 1.8 c 0.2,0 0,-0.2 0,0 v 5.6 c 0,0.2 0.2,0 0,0 h -1.8 c -0.11,0 -0.2,0.089 -0.2,0.2 v 6 c 0,0.11 0.09,0.2 0.2,0.2 h 1.8 c 0.2,0 0,-0.2 0,0 v 5.6 c 0,0.2 0.2,0 0,0 h -1.8 c -0.11,0 -0.2,0.089 -0.2,0.2 v 6 c 0,0.11 0.09,0.2 0.2,0.2 h 1.8 c 0.2,0 0,-0.2 0,0 v 5.6 c 0,0.2 0.2,0 0,0 h -1.8 c -0.11,0 -0.2,0.089 -0.2,0.2 v 6 c 0,0.11 0.09,0.2 0.2,0.2 h 1.8 c 0.2,0 0,-0.2 0,0 v 8.8 c 0,0.11 0.09,0.2 0.2,0.2 z"
       stroke="#000000"
       stroke-width="0.4"
       id="path6-3" /><text
       dominant-baseline="hanging"
       font-size="4px"
       style="font-style:normal;font-weight:normal;font-family:sans-serif;fill:#ff0000"
       text-anchor="middle"
       transform="translate(330.1,555.836)"
       id="text6">Bottom</text></g><g
     id="p-6"
     style="fill:none;stroke-linecap:round;stroke-linejoin:round"
     transform="translate(191.58587,367.62879)"><path
       d="m 291.6,416.436 h 1.95 18.333 c 0.211,0 0.418,-0.056 0.6,-0.161 0.183,-0.105 0.334,-0.257 0.44,-0.439 0.105,-0.183 0.16,-0.39 0.16,-0.6 v -16 c 0,-1.369 0.361,-2.714 1.045,-3.9 0.685,-1.186 1.67,-2.171 2.855,-2.855 1.186,-0.685 2.531,-1.045 3.9,-1.045 h 18.334 c 1.369,0 2.714,0.36 3.9,1.045 1.185,0.684 2.17,1.669 2.855,2.855 0.684,1.186 1.045,2.531 1.045,3.9 v 16 c 0,0.21 0.055,0.417 0.16,0.6 0.106,0.182 0.257,0.334 0.44,0.439 0.182,0.105 0.389,0.161 0.6,0.161 h 18.333 1.95 c 0.11,0 0.2,-0.09 0.2,-0.2 v -40 c 0,-0.111 -0.09,-0.2 -0.2,-0.2 h -1.8 c -0.2,0 0,0.2 0,0 v -60.259 c 0,-0.111 -0.09,-0.2 -0.2,-0.2 h -72.9 c -0.11,0 -0.2,0.089 -0.2,0.2 v 60.259 c 0,0.2 0.2,0 0,0 h -1.8 c -0.11,0 -0.2,0.089 -0.2,0.2 v 40 c 0,0.11 0.09,0.2 0.2,0.2 z"
       stroke="#000000"
       stroke-width="0.4"
       id="path7-3" /><text
       dominant-baseline="hanging"
       font-size="4px"
       style="font-style:normal;font-weight:normal;font-family:sans-serif;fill:#ff0000"
       text-anchor="middle"
       transform="translate(330.1,364.206)"
       id="text7">Divider</text></g><g
     id="p-7"
     style="fill:none;stroke-linecap:round;stroke-linejoin:round"
     transform="translate(281.47793,292.98585)"><path
       d="m 291.6,314.577 h 1.95 18.333 c 0.211,0 0.418,-0.056 0.6,-0.161 0.183,-0.105 0.334,-0.257 0.44,-0.439 0.105,-0.183 0.16,-0.39 0.16,-0.6 v -16 c 0,-1.369 0.361,-2.714 1.045,-3.9 0.685,-1.186 1.67,-2.171 2.855,-2.855 1.186,-0.685 2.531,-1.045 3.9,-1.045 h 18.334 c 1.369,0 2.714,0.36 3.9,1.045 1.185,0.684 2.17,1.669 2.855,2.855 0.684,1.186 1.045,2.531 1.045,3.9 v 16 c 0,0.21 0.055,0.417 0.16,0.6 0.106,0.182 0.257,0.334 0.44,0.439 0.182,0.105 0.389,0.161 0.6,0.161 h 18.333 1.95 c 0.11,0 0.2,-0.09 0.2,-0.2 v -40 c 0,-0.111 -0.09,-0.2 -0.2,-0.2 h -1.8 c -0.2,0 0,0.2 0,0 v -60.259 c 0,-0.111 -0.09,-0.2 -0.2,-0.2 h -72.9 c -0.11,0 -0.2,0.089 -0.2,0.2 v 60.259 c 0,0.2 0.2,0 0,0 h -1.8 c -0.11,0 -0.2,0.089 -0.2,0.2 v 40 c 0,0.11 0.09,0.2 0.2,0.2 z"
       stroke="#000000"
       stroke-width="0.4"
       id="path8-4" /><text
       dominant-baseline="hanging"
       font-size="4px"
       style="font-style:normal;font-weight:normal;font-family:sans-serif;fill:#ff0000"
       text-anchor="middle"
       transform="translate(330.1,262.347)"
       id="text8">Divider</text></g><g
     id="g61"
     style="fill:none;stroke-linecap:round;stroke-linejoin:round"
     transform="translate(281.47793,651.77767)"><path
       d="m 291.6,416.436 h 1.95 18.333 c 0.211,0 0.418,-0.056 0.6,-0.161 0.183,-0.105 0.334,-0.257 0.44,-0.439 0.105,-0.183 0.16,-0.39 0.16,-0.6 v -16 c 0,-1.369 0.361,-2.714 1.045,-3.9 0.685,-1.186 1.67,-2.171 2.855,-2.855 1.186,-0.685 2.531,-1.045 3.9,-1.045 h 18.334 c 1.369,0 2.714,0.36 3.9,1.045 1.185,0.684 2.17,1.669 2.855,2.855 0.684,1.186 1.045,2.531 1.045,3.9 v 16 c 0,0.21 0.055,0.417 0.16,0.6 0.106,0.182 0.257,0.334 0.44,0.439 0.182,0.105 0.389,0.161 0.6,0.161 h 18.333 1.95 c 0.11,0 0.2,-0.09 0.2,-0.2 v -40 c 0,-0.111 -0.09,-0.2 -0.2,-0.2 h -1.8 c -0.2,0 0,0.2 0,0 v -60.259 c 0,-0.111 -0.09,-0.2 -0.2,-0.2 h -72.9 c -0.11,0 -0.2,0.089 -0.2,0.2 v 60.259 c 0,0.2 0.2,0 0,0 h -1.8 c -0.11,0 -0.2,0.089 -0.2,0.2 v 40 c 0,0.11 0.09,0.2 0.2,0.2 z"
       stroke="#000000"
       stroke-width="0.4"
       id="path61" /><text
       dominant-baseline="hanging"
       font-size="4px"
       style="font-style:normal;font-weight:normal;font-family:sans-serif;fill:#ff0000"
       text-anchor="middle"
       transform="translate(330.1,364.206)"
       id="text61">Divider</text></g><g
     id="g62"
     style="fill:none;stroke-linecap:round;stroke-linejoin:round"
     transform="translate(281.47793,538.67135)"><path
       d="m 291.6,416.436 h 1.95 18.333 c 0.211,0 0.418,-0.056 0.6,-0.161 0.183,-0.105 0.334,-0.257 0.44,-0.439 0.105,-0.183 0.16,-0.39 0.16,-0.6 v -16 c 0,-1.369 0.361,-2.714 1.045,-3.9 0.685,-1.186 1.67,-2.171 2.855,-2.855 1.186,-0.685 2.531,-1.045 3.9,-1.045 h 18.334 c 1.369,0 2.714,0.36 3.9,1.045 1.185,0.684 2.17,1.669 2.855,2.855 0.684,1.186 1.045,2.531 1.045,3.9 v 16 c 0,0.21 0.055,0.417 0.16,0.6 0.106,0.182 0.257,0.334 0.44,0.439 0.182,0.105 0.389,0.161 0.6,0.161 h 18.333 1.95 c 0.11,0 0.2,-0.09 0.2,-0.2 v -40 c 0,-0.111 -0.09,-0.2 -0.2,-0.2 h -1.8 c -0.2,0 0,0.2 0,0 v -60.259 c 0,-0.111 -0.09,-0.2 -0.2,-0.2 h -72.9 c -0.11,0 -0.2,0.089 -0.2,0.2 v 60.259 c 0,0.2 0.2,0 0,0 h -1.8 c -0.11,0 -0.2,0.089 -0.2,0.2 v 40 c 0,0.11 0.09,0.2 0.2,0.2 z"
       stroke="#000000"
       stroke-width="0.4"
       id="path62" /><text
       dominant-baseline="hanging"
       font-size="4px"
       style="font-style:normal;font-weight:normal;font-family:sans-serif;fill:#ff0000"
       text-anchor="middle"
       transform="translate(330.1,364.206)"
       id="text62">Divider</text></g><g
     id="g63"
     style="fill:none;stroke-linecap:round;stroke-linejoin:round"
     transform="translate(281.47793,308.48325)"><path
       d="m 291.6,416.436 h 1.95 18.333 c 0.211,0 0.418,-0.056 0.6,-0.161 0.183,-0.105 0.334,-0.257 0.44,-0.439 0.105,-0.183 0.16,-0.39 0.16,-0.6 v -16 c 0,-1.369 0.361,-2.714 1.045,-3.9 0.685,-1.186 1.67,-2.171 2.855,-2.855 1.186,-0.685 2.531,-1.045 3.9,-1.045 h 18.334 c 1.369,0 2.714,0.36 3.9,1.045 1.185,0.684 2.17,1.669 2.855,2.855 0.684,1.186 1.045,2.531 1.045,3.9 v 16 c 0,0.21 0.055,0.417 0.16,0.6 0.106,0.182 0.257,0.334 0.44,0.439 0.182,0.105 0.389,0.161 0.6,0.161 h 18.333 1.95 c 0.11,0 0.2,-0.09 0.2,-0.2 v -40 c 0,-0.111 -0.09,-0.2 -0.2,-0.2 h -1.8 c -0.2,0 0,0.2 0,0 v -60.259 c 0,-0.111 -0.09,-0.2 -0.2,-0.2 h -72.9 c -0.11,0 -0.2,0.089 -0.2,0.2 v 60.259 c 0,0.2 0.2,0 0,0 h -1.8 c -0.11,0 -0.2,0.089 -0.2,0.2 v 40 c 0,0.11 0.09,0.2 0.2,0.2 z"
       stroke="#000000"
       stroke-width="0.4"
       id="path63" /><text
       dominant-baseline="hanging"
       font-size="4px"
       style="font-style:normal;font-weight:normal;font-family:sans-serif;fill:#ff0000"
       text-anchor="middle"
       transform="translate(330.1,364.206)"
       id="text63">Divider</text></g><g
     id="g64"
     style="fill:none;stroke-linecap:round;stroke-linejoin:round"
     transform="translate(281.47793,428.58138)"><path
       d="m 291.6,416.436 h 1.95 18.333 c 0.211,0 0.418,-0.056 0.6,-0.161 0.183,-0.105 0.334,-0.257 0.44,-0.439 0.105,-0.183 0.16,-0.39 0.16,-0.6 v -16 c 0,-1.369 0.361,-2.714 1.045,-3.9 0.685,-1.186 1.67,-2.171 2.855,-2.855 1.186,-0.685 2.531,-1.045 3.9,-1.045 h 18.334 c 1.369,0 2.714,0.36 3.9,1.045 1.185,0.684 2.17,1.669 2.855,2.855 0.684,1.186 1.045,2.531 1.045,3.9 v 16 c 0,0.21 0.055,0.417 0.16,0.6 0.106,0.182 0.257,0.334 0.44,0.439 0.182,0.105 0.389,0.161 0.6,0.161 h 18.333 1.95 c 0.11,0 0.2,-0.09 0.2,-0.2 v -40 c 0,-0.111 -0.09,-0.2 -0.2,-0.2 h -1.8 c -0.2,0 0,0.2 0,0 v -60.259 c 0,-0.111 -0.09,-0.2 -0.2,-0.2 h -72.9 c -0.11,0 -0.2,0.089 -0.2,0.2 v 60.259 c 0,0.2 0.2,0 0,0 h -1.8 c -0.11,0 -0.2,0.089 -0.2,0.2 v 40 c 0,0.11 0.09,0.2 0.2,0.2 z"
       stroke="#000000"
       stroke-width="0.4"
       id="path64" /><text
       dominant-baseline="hanging"
       font-size="4px"
       style="font-style:normal;font-weight:normal;font-family:sans-serif;fill:#ff0000"
       text-anchor="middle"
       transform="translate(330.1,364.206)"
       id="text64">Divider</text></g><g
     id="g66"
     style="fill:none;stroke-linecap:round;stroke-linejoin:round"
     transform="translate(191.58587,358.38643)"><path
       d="m 291.6,314.577 h 1.95 18.333 c 0.211,0 0.418,-0.056 0.6,-0.161 0.183,-0.105 0.334,-0.257 0.44,-0.439 0.105,-0.183 0.16,-0.39 0.16,-0.6 v -16 c 0,-1.369 0.361,-2.714 1.045,-3.9 0.685,-1.186 1.67,-2.171 2.855,-2.855 1.186,-0.685 2.531,-1.045 3.9,-1.045 h 18.334 c 1.369,0 2.714,0.36 3.9,1.045 1.185,0.684 2.17,1.669 2.855,2.855 0.684,1.186 1.045,2.531 1.045,3.9 v 16 c 0,0.21 0.055,0.417 0.16,0.6 0.106,0.182 0.257,0.334 0.44,0.439 0.182,0.105 0.389,0.161 0.6,0.161 h 18.333 1.95 c 0.11,0 0.2,-0.09 0.2,-0.2 v -40 c 0,-0.111 -0.09,-0.2 -0.2,-0.2 h -1.8 c -0.2,0 0,0.2 0,0 v -60.259 c 0,-0.111 -0.09,-0.2 -0.2,-0.2 h -72.9 c -0.11,0 -0.2,0.089 -0.2,0.2 v 60.259 c 0,0.2 0.2,0 0,0 h -1.8 c -0.11,0 -0.2,0.089 -0.2,0.2 v 40 c 0,0.11 0.09,0.2 0.2,0.2 z"
       stroke="#000000"
       stroke-width="0.4"
       id="path66" /><text
       dominant-baseline="hanging"
       font-size="4px"
       style="font-style:normal;font-weight:normal;font-family:sans-serif;fill:#ff0000"
       text-anchor="middle"
       transform="translate(330.1,262.347)"
       id="text66">Divider</text></g><g
     id="g67"
     style="fill:none;stroke-linecap:round;stroke-linejoin:round"
     transform="translate(101.18029,323.69477)"><path
       d="m 291.6,314.577 h 1.95 18.333 c 0.211,0 0.418,-0.056 0.6,-0.161 0.183,-0.105 0.334,-0.257 0.44,-0.439 0.105,-0.183 0.16,-0.39 0.16,-0.6 v -16 c 0,-1.369 0.361,-2.714 1.045,-3.9 0.685,-1.186 1.67,-2.171 2.855,-2.855 1.186,-0.685 2.531,-1.045 3.9,-1.045 h 18.334 c 1.369,0 2.714,0.36 3.9,1.045 1.185,0.684 2.17,1.669 2.855,2.855 0.684,1.186 1.045,2.531 1.045,3.9 v 16 c 0,0.21 0.055,0.417 0.16,0.6 0.106,0.182 0.257,0.334 0.44,0.439 0.182,0.105 0.389,0.161 0.6,0.161 h 18.333 1.95 c 0.11,0 0.2,-0.09 0.2,-0.2 v -40 c 0,-0.111 -0.09,-0.2 -0.2,-0.2 h -1.8 c -0.2,0 0,0.2 0,0 v -60.259 c 0,-0.111 -0.09,-0.2 -0.2,-0.2 h -72.9 c -0.11,0 -0.2,0.089 -0.2,0.2 v 60.259 c 0,0.2 0.2,0 0,0 h -1.8 c -0.11,0 -0.2,0.089 -0.2,0.2 v 40 c 0,0.11 0.09,0.2 0.2,0.2 z"
       stroke="#000000"
       stroke-width="0.4"
       id="path67" /><text
       dominant-baseline="hanging"
       font-size="4px"
       style="font-style:normal;font-weight:normal;font-family:sans-serif;fill:#ff0000"
       text-anchor="middle"
       transform="translate(330.1,262.347)"
       id="text67">Divider</text></g></svg>
