<?xml version="1.0" encoding="UTF-8" standalone="no"?>
<svg
   xmlns:dc="http://purl.org/dc/elements/1.1/"
   xmlns:cc="http://creativecommons.org/ns#"
   xmlns:rdf="http://www.w3.org/1999/02/22-rdf-syntax-ns#"
   xmlns:svg="http://www.w3.org/2000/svg"
   xmlns="http://www.w3.org/2000/svg"
   xmlns:sodipodi="http://sodipodi.sourceforge.net/DTD/sodipodi-0.dtd"
   xmlns:inkscape="http://www.inkscape.org/namespaces/inkscape"
   sodipodi:docname="Com logo raster fab3d e udesc.svg"
   inkscape:version="1.0.1 (3bc2e813f5, 2020-09-07)"
   id="svg8"
   version="1.1"
   viewBox="0 0 346.42447 318.10001"
   height="318.10001mm"
   width="346.42447mm">
  <defs
     id="defs2">
    <inkscape:path-effect
       message="Add &lt;b&gt;&quot;Fill Between Many LPE&quot;&lt;/b&gt; to add fill."
       unifysegment="true"
       halfextreme="true"
       splitsegments="false"
       holefactor="-0.6"
       numberdashes="27"
       lpeversion="1"
       is_visible="true"
       id="path-effect2363"
       effect="dashed_stroke" />
    <clipPath
       id="clipPath831"
       clipPathUnits="userSpaceOnUse">
      <path
         id="path829"
         d="M 0,841.89 H 595.276 V 0 H 0 Z" />
    </clipPath>
    <clipPath
       id="clipPath2458"
       clipPathUnits="userSpaceOnUse">
      <path
         id="path2456"
         d="M 0,0 H 14669.3 V 2549.29 H 0 Z" />
    </clipPath>
    <clipPath
       clipPathUnits="userSpaceOnUse"
       id="clipPath831-0">
      <path
         d="M 0,841.89 H 595.276 V 0 H 0 Z"
         id="path829-6" />
    </clipPath>
    <clipPath
       clipPathUnits="userSpaceOnUse"
       id="clipPath2458-9">
      <path
         d="M 0,0 H 14669.3 V 2549.29 H 0 Z"
         id="path2456-3" />
    </clipPath>
  </defs>
  <sodipodi:namedview
     inkscape:window-maximized="1"
     inkscape:window-y="-8"
     inkscape:window-x="-8"
     inkscape:window-height="1027"
     inkscape:window-width="1920"
     showguides="true"
     showgrid="false"
     inkscape:document-rotation="0"
     inkscape:current-layer="layer1"
     inkscape:document-units="mm"
     inkscape:cy="601.45981"
     inkscape:cx="1053.2005"
     inkscape:zoom="0.50517086"
     inkscape:pageshadow="2"
     inkscape:pageopacity="0.0"
     borderopacity="1.0"
     bordercolor="#666666"
     pagecolor="#ffffff"
     id="base"
     inkscape:guide-bbox="true"
     inkscape:object-paths="true"
     inkscape:snap-nodes="true"
     inkscape:snap-global="false" />
  <metadata
     id="metadata5">
    <rdf:RDF>
      <cc:Work
         rdf:about="">
        <dc:format>image/svg+xml</dc:format>
        <dc:type
           rdf:resource="http://purl.org/dc/dcmitype/StillImage" />
        <dc:title />
      </cc:Work>
    </rdf:RDF>
  </metadata>
  <g
     id="layer1"
     inkscape:groupmode="layer"
     inkscape:label="Layer 1"
     transform="translate(-11.10223,-12.551188)">
    <path
       id="rect888"
       style="fill:none;stroke:#ff0000;stroke-width:0.1;stroke-miterlimit:4;stroke-dasharray:none"
       d="m 232.89104,115.27733 3.85651,14.39266 2.80126,-0.7506 8.48286,31.65846 -2.80126,0.7506 3.8565,14.39267 2.80126,-0.7506 c 0,0 10.59473,-14.16437 17.11169,-20.06244 10.4638,-9.47007 33.94785,-23.76347 35.96087,-24.98305 l -41.61119,11.14968 -0.751,-2.80276 41.6112,-11.14968 c 0,0 -29.25286,-0.67453 -43.66706,-3.77681 -8.59288,-1.84938 -24.85037,-8.81873 -24.85037,-8.81873 z"
       sodipodi:nodetypes="cccccccsccccscc" />
    <g
       style="fill:none;stroke:#ff0000;stroke-width:0.1;stroke-miterlimit:4;stroke-dasharray:none"
       transform="translate(0,-48.380952)"
       id="g932">
      <rect
         ry="11.969807"
         y="60.98214"
         x="11.15223"
         height="159"
         width="159"
         id="rect12"
         style="fill:none;stroke:#ff0000;stroke-width:0.1;stroke-miterlimit:4;stroke-dasharray:none" />
      <g
         style="fill:none;stroke:#ff0000;stroke-width:0.1;stroke-miterlimit:4;stroke-dasharray:none"
         transform="rotate(45,95.713162,110.07249)"
         id="g864">
        <path
           d="M 23.687408,133.70398 H 83.58741 v 2.9 H 23.687408 Z"
           style="fill:none;stroke:#ff0000;stroke-width:0.1;stroke-miterlimit:4;stroke-dasharray:none"
           id="rect854" />
        <path
           id="rect858"
           style="fill:none;stroke:#ff0000;stroke-width:0.377953;stroke-miterlimit:4;stroke-dasharray:none"
           d="m 384.8457,377.0957 -7.75,7.75 112.51368,112.51368 7.75,-7.75 z m 120.26368,120.26368 -7.75,7.75 39.82031,39.82031 7.75,-7.75 z"
           transform="matrix(0.18708867,-0.18708867,0.18708867,0.18708867,1.1367235,135.15398)" />
      </g>
      <circle
         r="0.94999999"
         cy="70.039169"
         cx="20.327042"
         id="path872"
         style="fill:none;stroke:#ff0000;stroke-width:0.1;stroke-miterlimit:4;stroke-dasharray:none" />
      <circle
         r="0.94999999"
         cy="70.039169"
         cx="160.36722"
         id="circle874"
         style="fill:none;stroke:#ff0000;stroke-width:0.1;stroke-miterlimit:4;stroke-dasharray:none" />
      <circle
         r="0.94999999"
         cy="209.95477"
         cx="20.327042"
         id="circle876"
         style="fill:none;stroke:#ff0000;stroke-width:0.1;stroke-miterlimit:4;stroke-dasharray:none" />
      <circle
         r="0.94999999"
         cy="209.95477"
         cx="160.36722"
         id="circle878"
         style="fill:none;stroke:#ff0000;stroke-width:0.1;stroke-miterlimit:4;stroke-dasharray:none" />
      <rect
         transform="rotate(45)"
         y="3.8850689"
         x="235.58669"
         height="14.9"
         width="2.9000001"
         id="rect904"
         style="fill:none;stroke:#ff0000;stroke-width:0.1;stroke-miterlimit:4;stroke-dasharray:none" />
      <rect
         transform="rotate(-135)"
         y="-66.585068"
         x="-238.48668"
         height="14.9"
         width="2.9000001"
         id="rect910"
         style="fill:none;stroke:#ff0000;stroke-width:0.1;stroke-miterlimit:4;stroke-dasharray:none" />
    </g>
    <g
       style="fill:none;stroke:#ff0000;stroke-width:0.1;stroke-miterlimit:4;stroke-dasharray:none"
       transform="translate(-50.800005,-87.690476)"
       id="g960">
      <g
         style="fill:none;stroke:#ff0000;stroke-width:0.1;stroke-miterlimit:4;stroke-dasharray:none"
         transform="translate(225.27381,-36.285714)"
         id="g846">
        <path
           id="path842"
           style="fill:none;stroke:#ff0000;stroke-width:0.1;stroke-miterlimit:4;stroke-dasharray:none"
           d="m 93.356204,297.73646 a 0.94999999,0.94999999 0 0 1 -0.95,0.95 0.94999999,0.94999999 0 0 1 -0.95,-0.95 0.94999999,0.94999999 0 0 1 0.95,-0.95 0.94999999,0.94999999 0 0 1 0.95,0.95 z" />
        <path
           id="path924"
           style="fill:none;stroke:#ff0000;stroke-width:0.377953;stroke-miterlimit:4;stroke-dasharray:none"
           d="M 627,4.6171875 V 15.578125 c 0,0 306.33264,34.664182 423.5471,123.474175 51.5723,39.07483 95.9571,100.35205 102.7261,164.70053 7.5899,72.15269 -15.5727,161.91308 -74.2357,204.60113 -68.2034,49.63045 -158.14106,56.43795 -140.96458,114.48183 9.95267,33.63272 71.41348,22.48126 104.62518,11.20306 96.2578,-32.68772 175.8302,-119.22067 220.7576,-210.41044 60.4535,-122.70296 43.4818,-408.050285 43.4818,-408.050285 V 4.6171875 h -56.457 V 91.154297 h -11.1817 V 4.6171875 H 1080.543 V 15.578125 H 853.39453 V 4.6171875 Z"
           transform="matrix(0.26458333,0,0,0.26458333,-163.37158,136.52738)"
           sodipodi:nodetypes="ccaasaaaccccccccccc" />
      </g>
    </g>
    <g
       style="fill:none;stroke:#ff0000;stroke-width:0.1;stroke-miterlimit:4;stroke-dasharray:none"
       transform="rotate(180,291.43322,166.04723)"
       id="g970" />
    <g
       style="fill:#000000;stroke:none;stroke-width:0.0677746;stroke-miterlimit:4;stroke-dasharray:none"
       transform="matrix(1.4754806,0,0,1.4754806,-25.250069,-31.573676)"
       id="g4144">
      <g
         style="fill:#000000;stroke:none;stroke-width:0.520047;stroke-miterlimit:4;stroke-dasharray:none"
         transform="matrix(0.13032394,0,0,-0.13032394,51.575105,123.53202)"
         id="g2432">
        <path
           id="path2430"
           style="fill:#000000;fill-opacity:1;fill-rule:nonzero;stroke:none;stroke-width:0.520047;stroke-miterlimit:4;stroke-dasharray:none"
           d="M 0,0 0.002,27.55 H 2.836 C 18.331,27.55 26.081,24.526 26.08,13.719 26.079,0 8.691,0.151 0,0 m 0.001,86.621 c 8.011,-0.151 23.016,0 23.017,-13.266 C 23.019,63.075 15.345,59.334 0.002,58.956 Z M -50.11,58.956 c 0,0 4.997,25.511 4.544,25.511 h 0.453 l 4.589,-25.511 z M -103.157,27.55 h 12.205 l 8.4,31.406 h -20.605 v 27.665 h 30.398 L -103.157,-28.015 Z M 60.433,11.338 c 0,16.325 -7.37,27.398 -22.108,33.221 13,8.086 19.502,18.78 19.502,32.085 0,12.319 -4.463,22.467 -13.38,30.442 -8.92,7.975 -23.546,11.962 -43.878,11.962 h -26.181 -8.74 -21.418 -8.391 -35.735 c -20.774,0 -37.615,-16.84 -37.615,-37.614 V 2.04 c 0,-18.593 14.774,-33.727 33.222,-34.325 l -0.008,-0.028 h 35.034 l 14.228,59.863 h 20.156 l 13.689,-59.863 h 8.879 10.348 12.509 c 14.967,0 27.022,4.005 36.169,12.018 9.145,8.012 13.718,18.555 13.718,31.633" />
      </g>
      <g
         style="fill:#000000;stroke:none;stroke-width:0.520047;stroke-miterlimit:4;stroke-dasharray:none"
         transform="matrix(0.13032394,0,0,-0.13032394,69.613451,122.09132)"
         id="g2436">
        <path
           id="path2434"
           style="fill:#000000;fill-opacity:1;fill-rule:nonzero;stroke:none;stroke-width:0.520047;stroke-miterlimit:4;stroke-dasharray:none"
           d="m 0,0 c -4.31,-6.463 -11.68,-10.147 -22.11,-11.055 v 86.848 c 4.383,-0.227 7.993,-0.72 10.829,-1.474 2.833,-0.756 5.743,-2.778 8.73,-6.065 C 0.434,64.966 2.682,60.278 4.195,54.195 5.705,48.109 6.463,40.682 6.463,31.916 6.463,17.1 4.309,6.461 0,0 m 26.303,89.002 c -11.565,12.66 -28.458,18.991 -50.681,18.991 h -68.8 c 18.26,-0.498 31.556,-4.464 39.879,-11.906 8.917,-7.974 13.38,-18.122 13.38,-30.441 0,-13.305 -6.502,-24 -19.502,-32.085 14.738,-5.823 22.108,-16.896 22.108,-33.221 0,-13.078 -4.573,-23.621 -13.717,-31.633 -9.148,-8.014 -21.202,-12.019 -36.169,-12.019 h -7.306 l 0.003,-0.056 h 71.711 c 12.396,0 23.714,2.532 33.959,7.597 10.24,5.062 18.215,13.265 23.922,24.603 5.707,11.338 8.56,26.227 8.56,44.672 0,24.336 -5.781,42.837 -17.347,55.498" />
      </g>
    </g>
    <g
       inkscape:label="Hershey Text"
       style="fill:none;stroke:#0000ff;stroke-width:0.183827;stroke-linecap:round;stroke-linejoin:round;stroke-miterlimit:4;stroke-dasharray:none"
       id="g1751"
       transform="matrix(0.54398967,0,0,0.54398967,29.443969,134.67177)">
      <g
         transform="translate(-0.788451,344.159)"
         id="g1749"
         style="stroke:#0000ff;stroke-width:0.183827;stroke-miterlimit:4;stroke-dasharray:none">
        <path
           d="m 123,674 3,-674 91,12.6 111,34.6 116,59.8 95,66 75,76 60,88 19,73 -9,81 -67,79 -110,60 -107,28 -110,7 -82,-10 -82,-19"
           style="stroke:#0000ff;stroke-width:17.3695;stroke-miterlimit:4;stroke-dasharray:none"
           transform="scale(0.0105833,-0.0105833)"
           id="path1699" />
        <path
           d="m 139,296 126,3 145,3 94,16 16,35 -13,34 -82,73 H 321 L 227,425 161,365 113,243 97.6,170 94.5,120 148,50.4 236,6.3 l 101,6.3 107,25.2 76,37.8 28,34.4"
           style="stroke:#0000ff;stroke-width:17.3695;stroke-miterlimit:4;stroke-dasharray:none"
           transform="matrix(0.0105833,0,0,-0.0105833,7.23898,0)"
           id="path1701" />
        <path
           d="m 501,428 -32,32 H 375 L 268,438 170,387 129,321 v -72 l 41,-32 h 91 l 98,19 63,-3 50,-19 32,-28 -9,-47 L 397,63 271,28.4 198,0 167,3.15"
           style="stroke:#0000ff;stroke-width:17.3695;stroke-miterlimit:4;stroke-dasharray:none"
           transform="matrix(0.0105833,0,0,-0.0105833,12.8693,0)"
           id="path1703" />
        <path
           d="m 180,636 h 18 m 7,-189 9,-402.9 19,-18.9"
           style="stroke:#0000ff;stroke-width:17.3695;stroke-miterlimit:4;stroke-dasharray:none"
           transform="matrix(0.0105833,0,0,-0.0105833,17.8011,0)"
           id="path1705" />
        <path
           d="M 554,261 488,148 369,53.6 239,6.3 h -91 l -28,47.3 38,119.4 94,142 107,88 69,35 70,-10 56,-44 16,-447 -12,-151 -35,-95 -44,-63 -41,-34 -54,-10 -41,-3 -113,3"
           style="stroke:#0000ff;stroke-width:17.3695;stroke-miterlimit:4;stroke-dasharray:none"
           transform="matrix(0.0105833,0,0,-0.0105833,20.4681,0)"
           id="path1707" />
        <path
           d="M 91.4,450 94.5,18.9 91.4,324 208,400 l 113,54 73,6 53,-6 35,-38 25,-110 -3,-296.55"
           style="stroke:#0000ff;stroke-width:17.3695;stroke-miterlimit:4;stroke-dasharray:none"
           transform="matrix(0.0105833,0,0,-0.0105833,26.2995,0)"
           id="path1709" />
        <path
           d="m 139,296 126,3 145,3 94,16 16,35 -13,34 -82,73 H 321 L 227,425 161,365 113,243 97.6,170 94.5,120 148,50.4 236,6.3 l 101,6.3 107,25.2 76,37.8 28,34.4"
           style="stroke:#0000ff;stroke-width:17.3695;stroke-miterlimit:4;stroke-dasharray:none"
           transform="matrix(0.0105833,0,0,-0.0105833,31.4324,0)"
           id="path1711" />
        <path
           d="M 554,652 539,387 532,217 539,78.8 542,18.9 536,183 444,85.1 296,18.9 192,12.6 120,53.6 97.6,161 151,265 l 129,88 117,19 88,-13 57,-60"
           style="stroke:#0000ff;stroke-width:17.3695;stroke-miterlimit:4;stroke-dasharray:none"
           transform="matrix(0.0105833,0,0,-0.0105833,37.0627,0)"
           id="path1713" />
        <path
           d="m 145,671 6,-630.1 47,-18.8 82,15.7 123,50.4 151,119.8 60,104 22,82 -19,44 -47,19 L 460,447 362,381 255,306 158,167"
           style="stroke:#0000ff;stroke-width:17.3695;stroke-miterlimit:4;stroke-dasharray:none"
           transform="matrix(0.0105833,0,0,-0.0105833,46.9687,0)"
           id="path1715" />
        <path
           d="M 113,425 438,-37.8 617,435 290,-425"
           style="stroke:#0000ff;stroke-width:17.3695;stroke-miterlimit:4;stroke-dasharray:none"
           transform="matrix(0.0105833,0,0,-0.0105833,53.2022,0)"
           id="path1717" />
        <path
           d="m 123,674 3,-674 91,12.6 111,34.6 116,59.8 95,66 75,76 60,88 19,73 -9,81 -67,79 -110,60 -107,28 -110,7 -82,-10 -82,-19"
           style="stroke:#0000ff;stroke-width:17.3695;stroke-miterlimit:4;stroke-dasharray:none"
           transform="matrix(0.0105833,0,0,-0.0105833,63.4363,0)"
           id="path1719" />
        <path
           d="m 180,636 h 18 m 7,-189 9,-402.9 19,-18.9"
           style="stroke:#0000ff;stroke-width:17.3695;stroke-miterlimit:4;stroke-dasharray:none"
           transform="matrix(0.0105833,0,0,-0.0105833,70.6753,0)"
           id="path1721" />
        <path
           d="M 346,469 220,413 154,318 110,224 132,97.7 173,28.4 306,6.3 416,34.6 529,107 l 63,117 -22,145 -50,56 -57,35 -117,9"
           style="stroke:#0000ff;stroke-width:17.3695;stroke-miterlimit:4;stroke-dasharray:none"
           transform="matrix(0.0105833,0,0,-0.0105833,73.3423,0)"
           id="path1723" />
        <path
           d="M 554,261 488,148 369,53.6 239,6.3 h -91 l -28,47.3 38,119.4 94,142 107,88 69,35 70,-10 56,-44 16,-447 -12,-151 -35,-95 -44,-63 -41,-34 -54,-10 -41,-3 -113,3"
           style="stroke:#0000ff;stroke-width:17.3695;stroke-miterlimit:4;stroke-dasharray:none"
           transform="matrix(0.0105833,0,0,-0.0105833,79.2054,0)"
           id="path1725" />
        <path
           d="M 346,469 220,413 154,318 110,224 132,97.7 173,28.4 306,6.3 416,34.6 529,107 l 63,117 -22,145 -50,56 -57,35 -117,9"
           style="stroke:#0000ff;stroke-width:17.3695;stroke-miterlimit:4;stroke-dasharray:none"
           transform="matrix(0.0105833,0,0,-0.0105833,85.0368,0)"
           id="path1727" />
        <path
           d="M 759,662 542,649 394,624 258,611 154,589 135,680 167,529 195,372 v -88 l -63,-29 120,47 230,38 211,35 L 249,302 195,277 192,9.45"
           style="stroke:#0000ff;stroke-width:17.3695;stroke-miterlimit:4;stroke-dasharray:none"
           transform="matrix(0.0105833,0,0,-0.0105833,94.9005,0)"
           id="path1729" />
        <path
           d="m 180,636 h 18 m 7,-189 9,-402.9 19,-18.9"
           style="stroke:#0000ff;stroke-width:17.3695;stroke-miterlimit:4;stroke-dasharray:none"
           transform="matrix(0.0105833,0,0,-0.0105833,102.669,0)"
           id="path1731" />
        <path
           d="M 554,261 488,148 369,53.6 239,6.3 h -91 l -28,47.3 38,119.4 94,142 107,88 69,35 70,-10 56,-44 16,-447 -12,-151 -35,-95 -44,-63 -41,-34 -54,-10 -41,-3 -113,3"
           style="stroke:#0000ff;stroke-width:17.3695;stroke-miterlimit:4;stroke-dasharray:none"
           transform="matrix(0.0105833,0,0,-0.0105833,105.336,0)"
           id="path1733" />
        <path
           d="m 135,460 -25,-145 -9,-167 38,-97.6 78,-40.95 133,9.45 75,47.2 41,19 41,56.9 29,60 -23,270 32,-459.4"
           style="stroke:#0000ff;stroke-width:17.3695;stroke-miterlimit:4;stroke-dasharray:none"
           transform="matrix(0.0105833,0,0,-0.0105833,111.167,0)"
           id="path1735" />
        <path
           d="m 139,296 126,3 145,3 94,16 16,35 -13,34 -82,73 H 321 L 227,425 161,365 113,243 97.6,170 94.5,120 148,50.4 236,6.3 l 101,6.3 107,25.2 76,37.8 28,34.4"
           style="stroke:#0000ff;stroke-width:17.3695;stroke-miterlimit:4;stroke-dasharray:none"
           transform="matrix(0.0105833,0,0,-0.0105833,116.469,0)"
           id="path1737" />
        <path
           d="m 180,636 h 18 m 7,-189 9,-402.9 19,-18.9"
           style="stroke:#0000ff;stroke-width:17.3695;stroke-miterlimit:4;stroke-dasharray:none"
           transform="matrix(0.0105833,0,0,-0.0105833,122.1,0)"
           id="path1739" />
        <path
           d="M 129,469 117,15.8 148,271 l 76,98 97,56 79,32 35,3 104,-10 12,-9"
           style="stroke:#0000ff;stroke-width:17.3695;stroke-miterlimit:4;stroke-dasharray:none"
           transform="matrix(0.0105833,0,0,-0.0105833,124.767,0)"
           id="path1741" />
        <path
           d="m 139,296 126,3 145,3 94,16 16,35 -13,34 -82,73 H 321 L 227,425 161,365 113,243 97.6,170 94.5,120 148,50.4 236,6.3 l 101,6.3 107,25.2 76,37.8 28,34.4"
           style="stroke:#0000ff;stroke-width:17.3695;stroke-miterlimit:4;stroke-dasharray:none"
           transform="matrix(0.0105833,0,0,-0.0105833,130.302,0)"
           id="path1743" />
        <path
           d="M 554,652 539,387 532,217 539,78.8 542,18.9 536,183 444,85.1 296,18.9 192,12.6 120,53.6 97.6,161 151,265 l 129,88 117,19 88,-13 57,-60"
           style="stroke:#0000ff;stroke-width:17.3695;stroke-miterlimit:4;stroke-dasharray:none"
           transform="matrix(0.0105833,0,0,-0.0105833,135.932,0)"
           id="path1745" />
        <path
           d="M 346,469 220,413 154,318 110,224 132,97.7 173,28.4 306,6.3 416,34.6 529,107 l 63,117 -22,145 -50,56 -57,35 -117,9"
           style="stroke:#0000ff;stroke-width:17.3695;stroke-miterlimit:4;stroke-dasharray:none"
           transform="matrix(0.0105833,0,0,-0.0105833,141.837,0)"
           id="path1747" />
      </g>
    </g>
    <g
       id="g4116"
       style="fill:#000000;stroke:none;stroke-width:1.32246;stroke-miterlimit:4;stroke-dasharray:none"
       transform="matrix(0.07561671,0,0,0.07561671,41.36778,97.922027)">
      <g
         id="g3092"
         transform="translate(401.24945,-144.56384)"
         style="fill:#000000;stroke:none;stroke-width:1.32246;stroke-miterlimit:4;stroke-dasharray:none">
        <path
           d="m -182.7466,469.30214 c 0,14.73308 13.55423,22.78789 29.69689,22.78789 6.62182,0 76.288058,0 76.288058,0 0,0 0,-10.76699 0,-18.08986 -7.27026,0 -55.262028,0 -60.578408,0 -2.72047,0 -6.79449,-0.74338 -6.79449,-5.5849 0,-3.58167 0,-21.42077 0,-21.42077 h 57.770808 V 433.64769 H -144.13455 V 407.6041 h 59.910188 c 7.08316,-0.93497 7.46271,-4.67061 7.46271,-13.70819 v -2.59217 H -182.7466 c 0,0 0,56.01418 0,77.9984"
           style="fill:#000000;fill-opacity:1;fill-rule:nonzero;stroke:none;stroke-width:1.32246;stroke-miterlimit:4;stroke-dasharray:none"
           id="path3082" />
        <path
           d="m -231.42263,460.0249 c 0,14.00408 -6.22303,13.97527 -20.51444,13.97527 h -29.47558 V 407.6041 h 29.47558 c 14.74634,0 20.57805,0.35229 20.57805,15.2296 0,1.31346 -0.0636,35.30056 -0.0636,37.1912 z m -7.85991,-68.72116 h -77.12949 v 100.78629 h 77.12949 c 29.85567,0 42.83095,-8.25447 43.39493,-36.37388 0.0107,-0.54741 0.0144,-26.01579 0.004,-26.44612 -0.44102,-27.74462 -13.42326,-37.96629 -43.39867,-37.96629"
           style="fill:#000000;fill-opacity:1;fill-rule:nonzero;stroke:none;stroke-width:1.32246;stroke-miterlimit:4;stroke-dasharray:none"
           id="path3084" />
        <path
           d="m -371.34476,405.08036 v 68.21711 c 0,0 -28.14662,0 -28.22787,0 -12.7219,0 -20.86246,-4.15442 -20.86246,-19.01132 v -63.16256 h -23.20444 c -11.44211,0 -11.93339,3.30743 -11.94141,13.95677 v 49.20579 c 0,30.15332 12.01946,37.97425 39.73521,37.97425 0.13738,0 81.46438,-0.004 81.46438,-0.004 V 391.12359 h -25.01666 c -11.44318,0 -11.93392,3.30743 -11.94675,13.95677"
           style="fill:#000000;fill-opacity:1;fill-rule:nonzero;stroke:none;stroke-width:1.32246;stroke-miterlimit:4;stroke-dasharray:none"
           id="path3086" />
        <path
           d="m 106.75908,474.00017 c -13.909722,0 -15.673832,-7.72589 -15.780752,-19.57235 0,-0.0781 0,-27.72751 0,-27.80021 0,-11.99006 2.42699,-19.65752 16.422252,-19.65752 h 50.55507 c 4.85397,-1.73898 4.65618,-6.27167 4.65618,-15.66635 H 89.572388 c -28.41818,0 -37.85349,16.42064 -37.85349,42.55136 0,0.13044 0,15.7984 0,15.91975 0.15503,26.04182 9.20544,42.31518 37.4686,42.31518 h 62.289062 c 10.5793,0 11.7928,-2.83016 11.9211,-11.67577 v -6.41409 h -56.63858"
           style="fill:#000000;fill-opacity:1;fill-rule:nonzero;stroke:none;stroke-width:1.32246;stroke-miterlimit:4;stroke-dasharray:none"
           id="path3088" />
        <path
           d="m 7.6108476,430.08793 c -6.87467996,0 -29.0222596,0 -29.0222596,0 -7.38252,0 -10.54188,-4.50222 -10.54188,-11.10159 0,-6.5876 3.15936,-11.40041 10.54188,-11.40041 h 53.47921 c 5.14799,-0.70565 6.70362,-2.93591 7.17405,-7.66158 v -8.62061 h -65.74244 c -25.06638,0 -41.09304,7.36328 -41.09304,29.49857 0,20.88811 9.99662,28.83301 33.52341,28.83301 v 0.0529 c 0.80186,0 24.2751996,0.0123 31.2567896,0.0123 6.96556,0 10.02334,4.9951 10.02334,11.08555 0,6.59702 -3.13797,13.21408 -13.63174,13.21408 0,0 -53.5700896,0 -59.3595796,0 0,15.91937 6.94952,18.08986 13.87231,18.08986 6.91744,0 57.9696696,0 57.9696696,0 25.0717204,0 36.7896804,-7.76688 36.7896804,-31.30394 0,-23.53427 -9.82555,-30.69816 -35.2394004,-30.69816"
           style="fill:#000000;fill-opacity:1;fill-rule:nonzero;stroke:none;stroke-width:1.32246;stroke-miterlimit:4;stroke-dasharray:none"
           id="path3090" />
      </g>
      <path
         d="m -111.04463,338.50419 c 0,-12.31935 -9.98806,-22.30907 -22.30848,-22.30907 -12.32257,0 -22.31384,9.98972 -22.31384,22.30907 0,12.3262 9.99127,22.31299 22.31384,22.31299 12.32042,0 22.30848,-9.98679 22.30848,-22.31299"
         style="fill:#000000;fill-opacity:1;fill-rule:nonzero;stroke:none;stroke-width:1.32246;stroke-miterlimit:4;stroke-dasharray:none"
         id="path3136" />
      <path
         d="m -135.84478,301.05527 c 0,0 -24.388,-0.0112 -54.74077,-0.0112 -13.58898,0 -33.24431,-0.31327 -33.24431,22.88096 0,0 0,14.81408 0,21.52533 0,20.40378 19.65533,19.81553 33.24431,19.81553 1.44481,0 4.93208,0 6.3926,0 2.86919,0 12.54505,0 24.07831,0 0,0 0,-11.93573 0,-28.70433 0,-16.76614 13.27679,-24.81951 26.76153,-24.81951 16.33885,0 26.76206,10.33682 26.76206,25.11016 0,14.76981 0,28.41368 0,28.41368 h 24.178438 v -41.34086 c 0,-22.88096 -19.115448,-22.86974 -32.846628,-22.86974 -0.19619,0 -13.01538,0.004 -13.21157,0.004 l -7.37397,-0.004"
         style="fill:#000000;fill-opacity:1;fill-rule:nonzero;stroke:none;stroke-width:1.32246;stroke-miterlimit:4;stroke-dasharray:none"
         id="path3138" />
      <path
         d="m -170.39832,293.19911 c 0,0 24.38746,0.0118 54.74082,0.0118 13.58844,0 33.244888,0.31433 33.244888,-22.88102 0,0 0,-14.81423 0,-21.52586 0,-20.40272 -19.656448,-19.81361 -33.244888,-19.81361 -1.4455,0 -4.93202,0 -6.39195,0 -2.86962,0 -12.54602,0 -24.07901,0 0,0 0,11.93499 0,28.70151 0,16.76758 -13.27626,24.82047 -26.76089,24.82047 -16.33933,0 -26.76318,-10.33661 -26.76318,-25.11022 0,-14.76932 0,-28.41176 0,-28.41176 h -24.17796 v 41.33947 c 0,22.88102 19.11492,22.86926 32.84668,22.86926 0.19609,0 13.01554,-0.004 13.21205,-0.004 l 7.37344,0.004"
         style="fill:#000000;fill-opacity:1;fill-rule:nonzero;stroke:none;stroke-width:1.32246;stroke-miterlimit:4;stroke-dasharray:none"
         id="path3140" />
      <path
         d="m -195.20008,255.74656 c 0,12.31935 9.98934,22.31383 22.31282,22.31383 12.32144,0 22.30897,-9.99448 22.30897,-22.31383 0,-12.32364 -9.98753,-22.30849 -22.30897,-22.30849 -12.32348,0 -22.31282,9.98485 -22.31282,22.30849"
         style="fill:#000000;fill-opacity:1;fill-rule:nonzero;stroke:none;stroke-width:1.32246;stroke-miterlimit:4;stroke-dasharray:none"
         id="path3142" />
    </g>
    <g
       style="fill:none;stroke:#ff0000;stroke-width:0.1;stroke-miterlimit:4;stroke-dasharray:none"
       transform="translate(0,110.61906)"
       id="g976">
      <path
         id="rect956"
         style="fill:none;stroke:#ff0000;stroke-width:0.1;stroke-miterlimit:4;stroke-dasharray:none"
         d="m 158.18242,60.98214 c 6.63128,0 11.96981,5.338533 11.96981,11.969806 V 208.01233 c 0,6.63128 -5.33853,11.96981 -11.96981,11.96981 H 23.122037 c -6.631273,0 -11.969807,-5.33853 -11.969807,-11.96981 V 72.951946 c 0,-6.631273 5.338534,-11.969806 11.969807,-11.969806"
         sodipodi:nodetypes="cssssssc" />
      <g
         style="fill:none;stroke:#ff0000;stroke-width:0.1;stroke-miterlimit:4;stroke-dasharray:none"
         transform="rotate(45,95.713162,110.07249)"
         id="g962">
        <path
           d="M 23.687408,133.70398 H 83.58741 v 2.9 H 23.687408 Z"
           style="fill:none;stroke:#ff0000;stroke-width:0.1;stroke-miterlimit:4;stroke-dasharray:none"
           id="path958" />
        <path
           id="path960"
           style="fill:none;stroke:#ff0000;stroke-width:0.377953;stroke-miterlimit:4;stroke-dasharray:none"
           d="m 384.8457,377.0957 -7.75,7.75 112.51368,112.51368 7.75,-7.75 z m 120.26368,120.26368 -7.75,7.75 39.82031,39.82031 7.75,-7.75 z"
           transform="matrix(0.18708867,-0.18708867,0.18708867,0.18708867,1.1367235,135.15398)" />
      </g>
      <path
         id="circle964"
         style="fill:none;stroke:#ff0000;stroke-width:0.1;stroke-miterlimit:4;stroke-dasharray:none"
         d="m 21.277042,70.039169 a 0.94999999,0.94999999 0 0 1 -0.95,0.95 0.94999999,0.94999999 0 0 1 -0.95,-0.95 0.94999999,0.94999999 0 0 1 0.95,-0.95 0.94999999,0.94999999 0 0 1 0.95,0.95 z" />
      <path
         id="circle966"
         style="fill:none;stroke:#ff0000;stroke-width:0.1;stroke-miterlimit:4;stroke-dasharray:none"
         d="m 161.31722,70.039169 a 0.94999999,0.94999999 0 0 1 -0.95,0.95 0.94999999,0.94999999 0 0 1 -0.95,-0.95 0.94999999,0.94999999 0 0 1 0.95,-0.95 0.94999999,0.94999999 0 0 1 0.95,0.95 z" />
      <path
         id="circle968"
         style="fill:none;stroke:#ff0000;stroke-width:0.1;stroke-miterlimit:4;stroke-dasharray:none"
         d="m 21.277042,209.95477 a 0.94999999,0.94999999 0 0 1 -0.95,0.95 0.94999999,0.94999999 0 0 1 -0.95,-0.95 0.94999999,0.94999999 0 0 1 0.95,-0.95 0.94999999,0.94999999 0 0 1 0.95,0.95 z" />
      <path
         id="circle970"
         style="fill:none;stroke:#ff0000;stroke-width:0.1;stroke-miterlimit:4;stroke-dasharray:none"
         d="m 161.31722,209.95477 a 0.94999999,0.94999999 0 0 1 -0.95,0.95 0.94999999,0.94999999 0 0 1 -0.95,-0.95 0.94999999,0.94999999 0 0 1 0.95,-0.95 0.94999999,0.94999999 0 0 1 0.95,0.95 z" />
      <path
         id="rect972"
         style="fill:none;stroke:#ff0000;stroke-width:0.1;stroke-miterlimit:4;stroke-dasharray:none"
         transform="rotate(45)"
         d="m 235.58669,3.8850689 h 2.9 V 18.785069 h -2.9 z" />
      <path
         id="rect974"
         style="fill:none;stroke:#ff0000;stroke-width:0.1;stroke-miterlimit:4;stroke-dasharray:none"
         transform="rotate(-135)"
         d="m -238.48668,-66.585068 h 2.9 v 14.9 h -2.9 z" />
    </g>
    <path
       id="path986"
       style="fill:none;stroke:#ff0000;stroke-width:0.1;stroke-miterlimit:4;stroke-dasharray:none"
       d="m 300.23405,117.585 -3.85651,-14.39266 -2.80126,0.7506 -8.48286,-31.658465 2.80126,-0.7506 -3.8565,-14.39267 -2.80126,0.75059 c 0,0 -10.59473,14.16438 -17.11169,20.06245 -10.4638,9.47007 -33.94785,23.763475 -35.96087,24.983055 l 41.61119,-11.149685 0.751,2.80276 -41.6112,11.149685 c 0,0 29.25286,0.67453 43.66706,3.77681 8.59288,1.84938 24.85037,8.81873 24.85037,8.81873 z"
       sodipodi:nodetypes="cccccccsccccscc" />
    <g
       style="fill:none;stroke:#ff0000;stroke-width:0.1;stroke-miterlimit:4;stroke-dasharray:none"
       transform="rotate(180,291.58883,156.12071)"
       id="g943">
      <g
         style="fill:none;stroke:#ff0000;stroke-width:0.1;stroke-miterlimit:4;stroke-dasharray:none"
         transform="translate(225.27381,-36.285714)"
         id="g941">
        <path
           id="path937"
           style="fill:none;stroke:#ff0000;stroke-width:0.1;stroke-miterlimit:4;stroke-dasharray:none"
           d="m 93.356204,297.73646 a 0.94999999,0.94999999 0 0 1 -0.95,0.95 0.94999999,0.94999999 0 0 1 -0.95,-0.95 0.94999999,0.94999999 0 0 1 0.95,-0.95 0.94999999,0.94999999 0 0 1 0.95,0.95 z" />
        <path
           id="path939"
           style="fill:none;stroke:#ff0000;stroke-width:0.377953;stroke-miterlimit:4;stroke-dasharray:none"
           d="M 627,4.6171875 V 15.578125 c 0,0 306.33264,34.664182 423.5471,123.474175 51.5723,39.07483 95.9571,100.35205 102.7261,164.70053 7.5899,72.15269 -15.5727,161.91308 -74.2357,204.60113 -68.2034,49.63045 -158.14106,56.43795 -140.96458,114.48183 9.95267,33.63272 71.41348,22.48126 104.62518,11.20306 96.2578,-32.68772 175.8302,-119.22067 220.7576,-210.41044 60.4535,-122.70296 43.4818,-408.050285 43.4818,-408.050285 V 4.6171875 h -56.457 V 91.154297 h -11.1817 V 4.6171875 H 1080.543 V 15.578125 H 853.39453 V 4.6171875 Z"
           transform="matrix(0.26458333,0,0,0.26458333,-163.37158,136.52738)"
           sodipodi:nodetypes="ccaasaaaccccccccccc" />
      </g>
    </g>
    <g
       style="fill:#000000;stroke:none;stroke-width:0.0677746;stroke-miterlimit:4;stroke-dasharray:none"
       transform="matrix(-1.4754806,0,0,-1.4754806,205.87871,212.61458)"
       id="g923">
      <g
         style="fill:#000000;stroke:none;stroke-width:0.520047;stroke-miterlimit:4;stroke-dasharray:none"
         transform="matrix(0.13032394,0,0,-0.13032394,51.575105,123.53202)"
         id="g917">
        <path
           id="path915"
           style="fill:#000000;fill-opacity:1;fill-rule:nonzero;stroke:none;stroke-width:0.520047;stroke-miterlimit:4;stroke-dasharray:none"
           d="M 0,0 0.002,27.55 H 2.836 C 18.331,27.55 26.081,24.526 26.08,13.719 26.079,0 8.691,0.151 0,0 m 0.001,86.621 c 8.011,-0.151 23.016,0 23.017,-13.266 C 23.019,63.075 15.345,59.334 0.002,58.956 Z M -50.11,58.956 c 0,0 4.997,25.511 4.544,25.511 h 0.453 l 4.589,-25.511 z M -103.157,27.55 h 12.205 l 8.4,31.406 h -20.605 v 27.665 h 30.398 L -103.157,-28.015 Z M 60.433,11.338 c 0,16.325 -7.37,27.398 -22.108,33.221 13,8.086 19.502,18.78 19.502,32.085 0,12.319 -4.463,22.467 -13.38,30.442 -8.92,7.975 -23.546,11.962 -43.878,11.962 h -26.181 -8.74 -21.418 -8.391 -35.735 c -20.774,0 -37.615,-16.84 -37.615,-37.614 V 2.04 c 0,-18.593 14.774,-33.727 33.222,-34.325 l -0.008,-0.028 h 35.034 l 14.228,59.863 h 20.156 l 13.689,-59.863 h 8.879 10.348 12.509 c 14.967,0 27.022,4.005 36.169,12.018 9.145,8.012 13.718,18.555 13.718,31.633" />
      </g>
      <g
         style="fill:#000000;stroke:none;stroke-width:0.520047;stroke-miterlimit:4;stroke-dasharray:none"
         transform="matrix(0.13032394,0,0,-0.13032394,69.613451,122.09132)"
         id="g921">
        <path
           id="path919"
           style="fill:#000000;fill-opacity:1;fill-rule:nonzero;stroke:none;stroke-width:0.520047;stroke-miterlimit:4;stroke-dasharray:none"
           d="m 0,0 c -4.31,-6.463 -11.68,-10.147 -22.11,-11.055 v 86.848 c 4.383,-0.227 7.993,-0.72 10.829,-1.474 2.833,-0.756 5.743,-2.778 8.73,-6.065 C 0.434,64.966 2.682,60.278 4.195,54.195 5.705,48.109 6.463,40.682 6.463,31.916 6.463,17.1 4.309,6.461 0,0 m 26.303,89.002 c -11.565,12.66 -28.458,18.991 -50.681,18.991 h -68.8 c 18.26,-0.498 31.556,-4.464 39.879,-11.906 8.917,-7.974 13.38,-18.122 13.38,-30.441 0,-13.305 -6.502,-24 -19.502,-32.085 14.738,-5.823 22.108,-16.896 22.108,-33.221 0,-13.078 -4.573,-23.621 -13.717,-31.633 -9.148,-8.014 -21.202,-12.019 -36.169,-12.019 h -7.306 l 0.003,-0.056 h 71.711 c 12.396,0 23.714,2.532 33.959,7.597 10.24,5.062 18.215,13.265 23.922,24.603 5.707,11.338 8.56,26.227 8.56,44.672 0,24.336 -5.781,42.837 -17.347,55.498" />
      </g>
    </g>
    <g
       id="g946"
       style="fill:#000000;stroke:none;stroke-width:1.32246;stroke-miterlimit:4;stroke-dasharray:none"
       transform="matrix(-0.07561671,0,0,-0.07561671,139.26086,83.118882)">
      <g
         id="g935"
         transform="translate(401.24945,-144.56384)"
         style="fill:#000000;stroke:none;stroke-width:1.32246;stroke-miterlimit:4;stroke-dasharray:none">
        <path
           d="m -182.7466,469.30214 c 0,14.73308 13.55423,22.78789 29.69689,22.78789 6.62182,0 76.288058,0 76.288058,0 0,0 0,-10.76699 0,-18.08986 -7.27026,0 -55.262028,0 -60.578408,0 -2.72047,0 -6.79449,-0.74338 -6.79449,-5.5849 0,-3.58167 0,-21.42077 0,-21.42077 h 57.770808 V 433.64769 H -144.13455 V 407.6041 h 59.910188 c 7.08316,-0.93497 7.46271,-4.67061 7.46271,-13.70819 v -2.59217 H -182.7466 c 0,0 0,56.01418 0,77.9984"
           style="fill:#000000;fill-opacity:1;fill-rule:nonzero;stroke:none;stroke-width:1.32246;stroke-miterlimit:4;stroke-dasharray:none"
           id="path925" />
        <path
           d="m -231.42263,460.0249 c 0,14.00408 -6.22303,13.97527 -20.51444,13.97527 h -29.47558 V 407.6041 h 29.47558 c 14.74634,0 20.57805,0.35229 20.57805,15.2296 0,1.31346 -0.0636,35.30056 -0.0636,37.1912 z m -7.85991,-68.72116 h -77.12949 v 100.78629 h 77.12949 c 29.85567,0 42.83095,-8.25447 43.39493,-36.37388 0.0107,-0.54741 0.0144,-26.01579 0.004,-26.44612 -0.44102,-27.74462 -13.42326,-37.96629 -43.39867,-37.96629"
           style="fill:#000000;fill-opacity:1;fill-rule:nonzero;stroke:none;stroke-width:1.32246;stroke-miterlimit:4;stroke-dasharray:none"
           id="path927" />
        <path
           d="m -371.34476,405.08036 v 68.21711 c 0,0 -28.14662,0 -28.22787,0 -12.7219,0 -20.86246,-4.15442 -20.86246,-19.01132 v -63.16256 h -23.20444 c -11.44211,0 -11.93339,3.30743 -11.94141,13.95677 v 49.20579 c 0,30.15332 12.01946,37.97425 39.73521,37.97425 0.13738,0 81.46438,-0.004 81.46438,-0.004 V 391.12359 h -25.01666 c -11.44318,0 -11.93392,3.30743 -11.94675,13.95677"
           style="fill:#000000;fill-opacity:1;fill-rule:nonzero;stroke:none;stroke-width:1.32246;stroke-miterlimit:4;stroke-dasharray:none"
           id="path929" />
        <path
           d="m 106.75908,474.00017 c -13.909722,0 -15.673832,-7.72589 -15.780752,-19.57235 0,-0.0781 0,-27.72751 0,-27.80021 0,-11.99006 2.42699,-19.65752 16.422252,-19.65752 h 50.55507 c 4.85397,-1.73898 4.65618,-6.27167 4.65618,-15.66635 H 89.572388 c -28.41818,0 -37.85349,16.42064 -37.85349,42.55136 0,0.13044 0,15.7984 0,15.91975 0.15503,26.04182 9.20544,42.31518 37.4686,42.31518 h 62.289062 c 10.5793,0 11.7928,-2.83016 11.9211,-11.67577 v -6.41409 h -56.63858"
           style="fill:#000000;fill-opacity:1;fill-rule:nonzero;stroke:none;stroke-width:1.32246;stroke-miterlimit:4;stroke-dasharray:none"
           id="path931" />
        <path
           d="m 7.6108476,430.08793 c -6.87467996,0 -29.0222596,0 -29.0222596,0 -7.38252,0 -10.54188,-4.50222 -10.54188,-11.10159 0,-6.5876 3.15936,-11.40041 10.54188,-11.40041 h 53.47921 c 5.14799,-0.70565 6.70362,-2.93591 7.17405,-7.66158 v -8.62061 h -65.74244 c -25.06638,0 -41.09304,7.36328 -41.09304,29.49857 0,20.88811 9.99662,28.83301 33.52341,28.83301 v 0.0529 c 0.80186,0 24.2751996,0.0123 31.2567896,0.0123 6.96556,0 10.02334,4.9951 10.02334,11.08555 0,6.59702 -3.13797,13.21408 -13.63174,13.21408 0,0 -53.5700896,0 -59.3595796,0 0,15.91937 6.94952,18.08986 13.87231,18.08986 6.91744,0 57.9696696,0 57.9696696,0 25.0717204,0 36.7896804,-7.76688 36.7896804,-31.30394 0,-23.53427 -9.82555,-30.69816 -35.2394004,-30.69816"
           style="fill:#000000;fill-opacity:1;fill-rule:nonzero;stroke:none;stroke-width:1.32246;stroke-miterlimit:4;stroke-dasharray:none"
           id="path933" />
      </g>
      <path
         d="m -111.04463,338.50419 c 0,-12.31935 -9.98806,-22.30907 -22.30848,-22.30907 -12.32257,0 -22.31384,9.98972 -22.31384,22.30907 0,12.3262 9.99127,22.31299 22.31384,22.31299 12.32042,0 22.30848,-9.98679 22.30848,-22.31299"
         style="fill:#000000;fill-opacity:1;fill-rule:nonzero;stroke:none;stroke-width:1.32246;stroke-miterlimit:4;stroke-dasharray:none"
         id="path938" />
      <path
         d="m -135.84478,301.05527 c 0,0 -24.388,-0.0112 -54.74077,-0.0112 -13.58898,0 -33.24431,-0.31327 -33.24431,22.88096 0,0 0,14.81408 0,21.52533 0,20.40378 19.65533,19.81553 33.24431,19.81553 1.44481,0 4.93208,0 6.3926,0 2.86919,0 12.54505,0 24.07831,0 0,0 0,-11.93573 0,-28.70433 0,-16.76614 13.27679,-24.81951 26.76153,-24.81951 16.33885,0 26.76206,10.33682 26.76206,25.11016 0,14.76981 0,28.41368 0,28.41368 h 24.178438 v -41.34086 c 0,-22.88096 -19.115448,-22.86974 -32.846628,-22.86974 -0.19619,0 -13.01538,0.004 -13.21157,0.004 l -7.37397,-0.004"
         style="fill:#000000;fill-opacity:1;fill-rule:nonzero;stroke:none;stroke-width:1.32246;stroke-miterlimit:4;stroke-dasharray:none"
         id="path940" />
      <path
         d="m -170.39832,293.19911 c 0,0 24.38746,0.0118 54.74082,0.0118 13.58844,0 33.244888,0.31433 33.244888,-22.88102 0,0 0,-14.81423 0,-21.52586 0,-20.40272 -19.656448,-19.81361 -33.244888,-19.81361 -1.4455,0 -4.93202,0 -6.39195,0 -2.86962,0 -12.54602,0 -24.07901,0 0,0 0,11.93499 0,28.70151 0,16.76758 -13.27626,24.82047 -26.76089,24.82047 -16.33933,0 -26.76318,-10.33661 -26.76318,-25.11022 0,-14.76932 0,-28.41176 0,-28.41176 h -24.17796 v 41.33947 c 0,22.88102 19.11492,22.86926 32.84668,22.86926 0.19609,0 13.01554,-0.004 13.21205,-0.004 l 7.37344,0.004"
         style="fill:#000000;fill-opacity:1;fill-rule:nonzero;stroke:none;stroke-width:1.32246;stroke-miterlimit:4;stroke-dasharray:none"
         id="path942" />
      <path
         d="m -195.20008,255.74656 c 0,12.31935 9.98934,22.31383 22.31282,22.31383 12.32144,0 22.30897,-9.99448 22.30897,-22.31383 0,-12.32364 -9.98753,-22.30849 -22.30897,-22.30849 -12.32348,0 -22.31282,9.98485 -22.31282,22.30849"
         style="fill:#000000;fill-opacity:1;fill-rule:nonzero;stroke:none;stroke-width:1.32246;stroke-miterlimit:4;stroke-dasharray:none"
         id="path944" />
    </g>
  </g>
</svg>
