<?xml version="1.0" encoding="UTF-8" standalone="no"?>
<!-- Created with Inkscape (http://www.inkscape.org/) -->

<svg
   width="210mm"
   height="297mm"
   viewBox="0 0 210 297"
   version="1.1"
   id="svg1"
   xml:space="preserve"
   inkscape:version="1.4.3 (0d15f75, 2025-12-25)"
   sodipodi:docname="otherworld.svg"
   xmlns:inkscape="http://www.inkscape.org/namespaces/inkscape"
   xmlns:sodipodi="http://sodipodi.sourceforge.net/DTD/sodipodi-0.dtd"
   xmlns="http://www.w3.org/2000/svg"
   xmlns:svg="http://www.w3.org/2000/svg"><sodipodi:namedview
     id="namedview1"
     pagecolor="#ffffff"
     bordercolor="#000000"
     borderopacity="0.25"
     inkscape:showpageshadow="2"
     inkscape:pageopacity="0.0"
     inkscape:pagecheckerboard="0"
     inkscape:deskcolor="#d1d1d1"
     inkscape:document-units="mm"
     showgrid="false"
     inkscape:zoom="0.70710679"
     inkscape:cx="-305.47013"
     inkscape:cy="630.03214"
     inkscape:window-width="2560"
     inkscape:window-height="1017"
     inkscape:window-x="-8"
     inkscape:window-y="-8"
     inkscape:window-maximized="1"
     inkscape:current-layer="layer1" /><defs
     id="defs1"><inkscape:path-effect
       effect="spiro"
       id="path-effect27"
       is_visible="true"
       lpeversion="1" /><inkscape:path-effect
       effect="spiro"
       id="path-effect26"
       is_visible="true"
       lpeversion="1" /><inkscape:path-effect
       effect="spiro"
       id="path-effect34"
       is_visible="true"
       lpeversion="1" /><inkscape:path-effect
       effect="spiro"
       id="path-effect32"
       is_visible="true"
       lpeversion="1" /><inkscape:path-effect
       effect="spiro"
       id="path-effect31"
       is_visible="true"
       lpeversion="1" /><inkscape:path-effect
       effect="spiro"
       id="path-effect30"
       is_visible="true"
       lpeversion="1" /><inkscape:path-effect
       effect="spiro"
       id="path-effect29"
       is_visible="true"
       lpeversion="1" /><inkscape:path-effect
       effect="spiro"
       id="path-effect8"
       is_visible="true"
       lpeversion="1" /><inkscape:path-effect
       effect="spiro"
       id="path-effect6"
       is_visible="true"
       lpeversion="1" /></defs><g
     inkscape:label="Layer 1"
     inkscape:groupmode="layer"
     id="layer1"><text
       xml:space="preserve"
       style="font-style:italic;font-size:5.29167px;line-height:normal;font-family:'Dust West';-inkscape-font-specification:'Dust West, Italic';text-decoration:underline;text-decoration-line:underline;text-decoration-color:#000000;writing-mode:lr-tb;direction:ltr;white-space:pre;fill:#ff0000;stroke:#0000ff;stroke-width:0.2"
       x="84.909195"
       y="126.45276"
       id="text1"><tspan
         sodipodi:role="line"
         id="tspan1"
         style="stroke-width:0.2"
         x="84.909195"
         y="126.45276">Targa Plateau</tspan></text><text
       xml:space="preserve"
       style="font-style:italic;font-size:5.29167px;line-height:normal;font-family:'Dust West';-inkscape-font-specification:'Dust West, Italic';text-decoration:underline;text-decoration-line:underline;text-decoration-color:#000000;writing-mode:lr-tb;direction:ltr;white-space:pre;fill:#ff0000;stroke:#0000ff;stroke-width:0.2"
       x="86.366867"
       y="150.13988"
       id="text2"><tspan
         sodipodi:role="line"
         id="tspan2"
         style="stroke-width:0.2"
         x="86.366867"
         y="150.13988">Cavern of Cynder</tspan></text><text
       xml:space="preserve"
       style="font-style:italic;font-size:5.29167px;line-height:normal;font-family:'Dust West';-inkscape-font-specification:'Dust West, Italic';text-decoration:underline;text-decoration-line:underline;text-decoration-color:#000000;writing-mode:lr-tb;direction:ltr;white-space:pre;fill:#ff0000;stroke:#0000ff;stroke-width:0.2"
       x="84.544785"
       y="176.74232"
       id="text3"><tspan
         sodipodi:role="line"
         id="tspan3"
         style="stroke-width:0.2"
         x="84.544785"
         y="176.74232">Swamps of Jargono</tspan></text><text
       xml:space="preserve"
       style="font-style:italic;font-size:5.29167px;line-height:normal;font-family:'Dust West';-inkscape-font-specification:'Dust West, Italic';text-decoration:underline;text-decoration-line:underline;text-decoration-color:#000000;writing-mode:lr-tb;direction:ltr;white-space:pre;fill:#ff0000;stroke:#0000ff;stroke-width:0.2"
       x="86.002457"
       y="208.44662"
       id="text4"><tspan
         sodipodi:role="line"
         id="tspan4"
         style="stroke-width:0.2"
         x="86.002457"
         y="208.44662">Mines</tspan></text><path
       id="path5"
       style="fill:#ff0000;fill-opacity:0.390335;stroke:none;stroke-width:0.21218"
       d="m 68.206254,119.16585 c -1.479195,-1e-5 -2.897799,0.61969 -3.943687,1.72275 l 1.754825,1.85053 v 1.22782 h -3.435443 v 0.0141 1.57095 0.014 h 3.435443 v 1.22826 l -1.754825,1.85055 c 1.045888,1.10306 2.464492,1.72276 3.943687,1.72275 1.479009,-1.4e-4 2.897394,-0.61983 3.943151,-1.72275 l -2.131736,-2.24801 v -0.8308 h 3.623365 v -0.014 -1.57095 -0.0141 h -3.623365 v -0.83036 l 2.131736,-2.24799 c -1.045757,-1.10292 -2.464142,-1.72261 -3.943151,-1.72275 z"
       sodipodi:nodetypes="ccccccccccccccccccccccc" /><path
       id="path6"
       style="fill:#ff0000;fill-opacity:0.19083;stroke:none;stroke-width:0.2"
       d="m 68.553955,142.88275 c -0.126454,0.004 -0.442201,0.23654 -1.026294,0.67335 -0.530177,0.31848 -1.095824,0.65375 -1.506885,1.07538 -0.373362,0.35132 -0.848691,0.83153 -1.07642,1.23042 -0.164913,0.19465 -0.210335,0.38286 -0.168465,0.57826 -0.0014,0.005 -0.0028,0.0103 -0.0041,0.0155 -0.134344,0.54017 0.417949,0.92382 0.343648,1.46296 0.0732,0.22857 0.122482,0.71034 0.0036,0.9927 -0.153354,0.0486 -0.379107,-0.0511 -0.543636,-0.19792 -0.39099,-0.33905 -0.464458,-0.4093 -0.322978,0.0692 -0.01272,-0.01 -0.02158,-0.0158 -0.02532,-0.0176 l -5.16e-4,-5.2e-4 h -5.17e-4 -5.17e-4 v 5.2e-4 5.2e-4 c 0.0018,0.003 0.01098,0.0113 0.02946,0.0258 0.03479,0.11715 0.08223,0.26644 0.14056,0.45166 0.392166,0.30637 0.321922,1.37802 0.936377,1.02061 0.182006,-0.089 0.377546,-0.18337 0.516764,-0.33125 0.08985,0.0147 0.166925,0.003 0.274402,-0.16536 0.102559,-0.16887 0.168934,-0.33724 0.149861,-0.5209 0.09584,-0.22372 0.117177,-0.53681 0.02015,-0.87023 0.104431,-0.28422 0.266351,-0.53744 0.572058,-0.61909 0.15318,-0.19601 0.374449,-0.29816 0.60048,-0.30541 0.462667,0.19652 0.910775,0.53666 1.178223,0.96997 0.02155,0.0423 0.0408,0.0838 0.05788,0.12454 0.03873,0.18824 0.04905,0.38377 0.03876,0.55811 -0.0083,0.17249 -0.02928,0.31613 -0.07183,0.44907 -0.062,0.12161 -0.143437,0.24304 -0.240812,0.36845 -0.373253,0.25423 -0.866814,0.45345 -1.277442,0.18397 -0.19693,-0.75266 -0.499956,-0.65615 -1.035079,-0.003 -0.307388,0.26697 -1.254675,0.64269 -1.334285,1.07538 -0.32635,0.33355 0.0479,0.65093 0.328662,0.56793 0.0055,-8.6e-4 0.0109,-0.002 0.01654,-0.003 0.179295,0.0212 0.401683,-0.006 0.564307,-0.015 0.03886,-0.008 0.07797,-0.0137 0.117305,-0.0171 0.308929,0.0285 0.575605,0.13828 0.583427,0.42737 0.210987,0.50945 0.636552,0.92904 1.04128,1.30379 0.43671,0.21702 0.655359,0.55203 1.147217,0.7705 -0.0091,-0.0398 -0.01899,-0.0779 -0.02945,-0.11472 0.0392,0.0264 0.08045,0.0534 0.124023,0.0801 -0.24981,-0.56887 -0.362868,-0.79544 -0.318843,-1.33274 0.04402,-0.5373 0.07555,-0.95533 0.396358,-1.25419 0.150345,-0.14006 0.416814,-0.0495 0.599443,-0.14371 0.13586,-0.0701 0.412481,0.008 0.345716,-0.30127 -0.09152,-0.41638 0.09294,-0.84895 -0.03566,-1.26401 0.07221,-0.2111 0.211022,-0.4425 0.357084,-0.52193 0.146055,0.0794 0.284357,0.31084 0.356568,0.52193 -0.1286,0.41506 0.05586,0.84763 -0.03566,1.26401 -0.06676,0.30919 0.209856,0.23122 0.345715,0.30127 0.182632,0.0942 0.449103,0.004 0.59945,0.14371 0.320804,0.29886 0.49778,0.7278 0.396358,1.25419 -0.101422,0.52639 -0.06903,0.76387 -0.318844,1.33274 0.04369,-0.0268 0.08525,-0.0536 0.124541,-0.0801 -0.01067,0.037 -0.02087,0.075 -0.02997,0.11472 0.491858,-0.21847 0.710507,-0.55348 1.147217,-0.7705 0.404728,-0.37475 0.83081,-0.79434 1.041797,-1.30379 0.0078,-0.28913 0.273934,-0.3989 0.58291,-0.42737 0.0393,0.003 0.07848,0.009 0.117306,0.0171 0.162601,0.009 0.385024,0.0361 0.564306,0.015 0.0057,8.6e-4 0.01101,0.002 0.01654,0.003 0.280766,0.083 0.655012,-0.23438 0.328662,-0.56793 -0.05239,-0.28477 -0.480965,-0.54478 -0.855245,-0.76533 0.419682,-0.19677 0.630022,-0.59831 0.904337,-0.95653 0.116137,-0.0615 0.230085,-0.12984 0.336414,-0.2129 0.05871,-0.18645 0.106223,-0.33622 0.141077,-0.45372 0.0023,-0.003 0.0045,-0.005 0.0067,-0.008 -0.0019,0.001 -0.0037,0.003 -0.0057,0.005 0.142929,-0.48256 0.07003,-0.41277 -0.321944,-0.0729 -0.164528,0.14685 -0.390283,0.24647 -0.543636,0.19792 -0.11887,-0.28236 -0.06958,-0.76413 0.0036,-0.9927 -0.0743,-0.53914 0.477993,-0.92279 0.343649,-1.46296 -0.0014,-0.005 -0.0027,-0.0104 -0.0041,-0.0155 0.04187,-0.1954 -0.0036,-0.38362 -0.168465,-0.57826 -0.227729,-0.39889 -0.703058,-0.8791 -1.07642,-1.23042 -0.411061,-0.42163 -0.976191,-0.7569 -1.506368,-1.07538 -1.205869,-0.90179 -1.268244,-0.9353 -0.882116,0.12454 -0.02987,0.40576 0.479476,0.49764 0.448034,1.15186 -0.179078,0.36203 -0.285698,0.47448 -0.716235,0.77722 -0.203949,0.0991 -0.35202,0.19094 -0.499711,0.26045 -0.221392,0.07 -0.450225,0.11371 -0.681612,0.12609 -0.008,-4.2e-4 -0.01659,-0.001 -0.02481,-0.002 -0.0448,0.003 -0.08911,0.005 -0.133842,0.005 -0.04509,-4.1e-4 -0.09024,-0.002 -0.135392,-0.005 -0.0083,5.1e-4 -0.01669,0.001 -0.02481,0.002 -0.231278,-0.0124 -0.459805,-0.0562 -0.681095,-0.12609 -0.147735,-0.0695 -0.29622,-0.16135 -0.500228,-0.26045 -0.430537,-0.30274 -0.536641,-0.41519 -0.715719,-0.77722 -0.03144,-0.65422 0.477388,-0.7461 0.447518,-1.15186 0.199097,-0.54648 0.279307,-0.80192 0.144694,-0.79789 z m 7.234701,5.89887 c 0.05965,-0.0462 0.08598,-0.0725 0.08837,-0.0786 v -5.2e-4 -5.2e-4 h -5.16e-4 -5.17e-4 -5.17e-4 c -0.0079,0.003 -0.04098,0.0292 -0.08682,0.0796 z m -3.217892,-1.33016 c 0.226017,0.007 0.447311,0.10941 0.60048,0.30541 0.305711,0.0816 0.467628,0.33487 0.572058,0.61909 -0.09703,0.33343 -0.07569,0.64651 0.02015,0.87023 -0.01907,0.18365 0.04731,0.35203 0.149862,0.5209 0.164869,0.2582 0.13524,0.37775 0.242362,0.49971 -0.09454,-0.0583 -0.176071,-0.11349 -0.234611,-0.16433 -0.535123,-0.65305 -0.838149,-0.74956 -1.035079,0.003 -0.410628,0.26948 -0.904188,0.0703 -1.277441,-0.18397 -0.09737,-0.1254 -0.178809,-0.24685 -0.240812,-0.36845 -0.04257,-0.13296 -0.06352,-0.27656 -0.07183,-0.44907 -0.01029,-0.17433 3.5e-5,-0.36988 0.03876,-0.55811 0.01708,-0.0408 0.03632,-0.0822 0.05788,-0.12454 0.267456,-0.43332 0.71554,-0.77345 1.178222,-0.96997 z"
       sodipodi:nodetypes="cccccccccccccccccccccccccccccccccccccccccczaacccccaazcccccccccccccccccccccccccccccccccccccsccccccccccccccccccccccccc" /><ellipse
       style="fill:#ff0000;fill-opacity:0.19083;stroke-width:0.2"
       id="path1"
       cx="59.928123"
       cy="208.92162"
       rx="1.190625"
       ry="1.1244792" /><ellipse
       style="fill:#ff0000;fill-opacity:0.19083;stroke-width:0.2"
       id="ellipse1"
       cx="65.219795"
       cy="208.92162"
       rx="1.190625"
       ry="1.1244792" /><path
       id="rect1"
       style="fill:#ff0000;fill-opacity:0.19083;stroke-width:0.20702"
       d="M 57.888456 205.15079 L 58.514258 207.28451 L 58.014547 207.43127 L 57.863135 207.00597 L 57.765983 207.00184 L 57.78717 207.75218 L 57.78717 207.94906 L 58.873409 207.94906 A 1.3890624 1.3973308 0 0 1 59.944661 207.4416 A 1.3890624 1.3973308 0 0 1 61.317187 208.62344 L 63.576998 208.62344 A 1.6949869 1.6916156 0 0 1 65.219792 207.3491 A 1.6949869 1.6916156 0 0 1 66.719958 208.25292 L 67.601042 208.25292 L 67.601042 207.64159 C 67.595936 207.64091 67.590605 207.63997 67.585539 207.63901 L 67.200033 207.31189 L 67.182463 206.87936 L 66.79644 206.83802 L 66.84915 206.48145 L 67.211401 206.51091 L 67.539547 205.15079 L 57.888456 205.15079 z " /><path
       id="rect5"
       style="fill:#ff0000;fill-opacity:0.19083;stroke-width:0.19701"
       d="M 63.673633 201.14948 A 0.62011719 0.90950519 0 0 0 63.138782 201.59855 A 1.2071614 0.65319008 0 0 0 62.491276 201.49674 A 1.2071614 0.65319008 0 0 0 61.284115 202.14993 A 1.2071614 0.65319008 0 0 0 61.312537 202.28998 A 1.3311849 0.62011719 0 0 0 61.039168 202.34992 A 0.65319008 0.47128907 0 0 0 60.482096 202.12513 A 0.65319008 0.47128907 0 0 0 59.828906 202.59642 A 0.65319008 0.47128907 0 0 0 59.858879 202.73801 A 0.74414062 0.42994791 0 0 0 59.479057 203.03464 A 0.85162759 0.42994791 0 0 0 59.456836 203.03464 A 0.85162759 0.42994791 0 0 0 58.605208 203.46458 A 0.85162759 0.42994791 0 0 0 58.678072 203.63822 L 60.96217 203.63822 A 0.79374999 0.50436199 0 0 0 60.99731 203.62168 A 1.0252604 0.64492184 0 0 0 61.026766 203.63822 L 62.368286 203.63822 A 1.0252604 0.64492184 0 0 0 62.38689 203.62788 A 0.9921875 0.68626302 0 0 0 62.399292 203.63822 L 67.270312 203.63822 A 0.49609375 0.34726563 0 0 0 67.386068 203.41497 A 0.49609375 0.34726563 0 0 0 66.978341 203.07339 A 0.58704424 0.60358071 0 0 0 66.451758 202.73698 A 0.58704424 0.60358071 0 0 0 66.252804 202.77264 A 0.89296871 0.78548175 0 0 0 65.984603 202.6083 A 0.78548175 0.43821615 0 0 0 65.997005 202.53027 A 0.78548175 0.43821615 0 0 0 65.211523 202.09206 A 0.78548175 0.43821615 0 0 0 64.91025 202.12565 A 0.69453126 0.55397135 0 0 0 64.251375 201.72826 A 0.62011719 0.90950519 0 0 0 63.673633 201.14948 z M 57.646611 203.78704 L 57.646611 204.79215 L 67.585539 204.79215 L 67.585539 203.78704 L 57.646611 203.78704 z " /><g
       id="g84"
       transform="matrix(0.09235191,0,0,0.09272312,56.115072,170.54473)"><ellipse
         style="fill:#ff0000;fill-opacity:0.19083;stroke-width:0.211215"
         id="ellipse45"
         cx="82.364784"
         cy="58.838997"
         rx="10.214274"
         ry="6.6754909" /><ellipse
         style="fill:#ff0000;fill-opacity:0.19083;stroke-width:0.211215"
         id="ellipse46"
         cx="108.82309"
         cy="58.838997"
         rx="10.214274"
         ry="6.6754909" /><rect
         style="fill:#ff0000;fill-opacity:0.19083;stroke-width:0.216651"
         id="rect46"
         width="42.047394"
         height="5.7221613"
         x="74.986053"
         y="46.078018"
         rx="2"
         ry="2.3468826" /><path
         id="path46"
         style="fill:#ff0000;fill-opacity:0.19083;stroke-width:0.2"
         d="m 95.319246,59.988586 c -1.93465,0.811087 -3.079158,2.680683 -4.142382,4.385262 -0.856917,1.501359 -2.716707,1.808043 -3.952214,2.883545 H 75.134432 c -0.232995,-0.515861 -0.566761,-0.9814 -0.960665,-1.338936 -0.414516,-0.376244 -0.894676,-0.632082 -1.375627,-0.732772 -0.180356,-0.03776 -0.360643,-0.0536 -0.537434,-0.04806 -0.294653,0.0092 -0.57933,0.07803 -0.838709,0.204639 -0.415007,0.202579 -0.763554,0.55295 -0.998389,1.003039 -0.278521,0.533819 -0.394593,1.207013 -0.326595,1.894458 0.05419,0.547821 0.225102,1.102511 0.488859,1.597319 0.12458,0.986634 0.962341,1.744596 1.983859,1.744596 H 89.63949 c 1.003441,0 1.829629,-0.731353 1.976623,-1.692403 0.6367,-0.317103 1.087868,-0.954999 1.739429,-1.27279 1.047263,-0.701525 2.458393,-1.19553 3.656108,-0.564824 0.736423,0.399688 1.187041,1.252242 1.901176,1.668115 0.07034,1.043213 0.933565,1.861902 1.995224,1.861902 h 15.22956 c 0.28114,0 0.54837,-0.05742 0.79065,-0.16123 h 1.04955 c 1.02151,0 1.85928,-0.757963 1.98386,-1.744597 0.26375,-0.494808 0.43466,-1.049497 0.48886,-1.597318 0.068,-0.687445 -0.0481,-1.360639 -0.3266,-1.894458 -0.23484,-0.450089 -0.58337,-0.800461 -0.99838,-1.00304 -0.25938,-0.126609 -0.54406,-0.195437 -0.83871,-0.204638 -0.17679,-0.0055 -0.35709,0.0103 -0.53744,0.04806 -0.48095,0.10069 -0.9611,0.356528 -1.37562,0.732772 -0.36445,0.330802 -0.67762,0.754186 -0.90693,1.224214 h -11.79307 c -0.11377,-0.08182 -0.24311,-0.144226 -0.38293,-0.1788 -0.8433,-0.402605 -1.71322,-0.787513 -2.4107,-1.423169 -1.755526,-1.275246 -2.174012,-3.77445 -4.14652,-4.81676 -0.481839,-0.164617 -0.879976,-0.57605 -1.414384,-0.574126 z" /><rect
         style="fill:#ff0000;fill-opacity:0.19083;stroke-width:0.2"
         id="rect47"
         width="4.9683976"
         height="7.6366148"
         x="89.984367"
         y="72.409843"
         rx="2"
         ry="2" /><rect
         style="fill:#ff0000;fill-opacity:0.19083;stroke-width:0.2"
         id="rect48"
         width="4.9683976"
         height="7.6366148"
         x="95.506607"
         y="72.409843"
         rx="2"
         ry="2" /><rect
         style="fill:#ff0000;fill-opacity:0.19083;stroke-width:0.2"
         id="rect49"
         width="4.9683976"
         height="7.6366148"
         x="101.02885"
         y="72.409843"
         rx="2"
         ry="2" /><rect
         style="fill:#ff0000;fill-opacity:0.19083;stroke-width:0.2"
         id="rect50"
         width="4.9683976"
         height="7.6366148"
         x="84.46212"
         y="72.409843"
         rx="2"
         ry="2" /><path
         id="path50"
         style="fill:#ff0000;fill-opacity:0.19083;stroke-width:0.40946"
         d="m 78.796031,72.409843 h 1.667796 c 1.908223,0 3.444446,2.170892 3.444446,4.867471 v 8.850558 c 0,2.696578 -2.512052,6.532389 -3.444446,4.86747 -1.921909,-3.431833 -4.129577,-8.114346 -4.583075,-14.247195 -0.198858,-2.689236 1.007056,-4.338304 2.915279,-4.338304 z"
         sodipodi:nodetypes="sssssss" /><path
         id="path51"
         style="fill:#ff0000;fill-opacity:0.19083;stroke-width:0.40946"
         d="m 111.66338,72.409843 h -1.66781 c -1.90823,0 -3.44447,2.170892 -3.44447,4.867471 v 8.850558 c 0,2.696578 2.51207,6.532389 3.44447,4.86747 1.92192,-3.431833 4.1296,-8.114346 4.5831,-14.247195 0.19886,-2.689236 -1.00706,-4.338304 -2.91529,-4.338304 z"
         sodipodi:nodetypes="sssssss" /><path
         id="path52"
         style="fill:#ff0000;fill-opacity:0.19083;stroke-width:0.2"
         d="m 87.68302,38.580074 c -1.108,0 -2.000395,0.812398 -2.000395,1.821594 0,0.205017 0.03695,0.401878 0.104903,0.585494 h -2.13837 c -1.108,0 -1.999878,0.891878 -1.999878,1.999878 v 0.749308 c 0,1.108 0.891878,2.000395 1.999878,2.000395 h 11.093896 c 0.848108,0 1.569585,-0.522853 1.861385,-1.265039 0.2918,0.742186 1.013277,1.265039 1.861385,1.265039 h 11.093896 c 1.10801,0 1.99988,-0.892395 1.99988,-2.000395 V 42.98704 c 0,-1.108 -0.89187,-1.999878 -1.99988,-1.999878 h -2.13837 c 0.0679,-0.183616 0.1049,-0.380477 0.1049,-0.585494 0,-1.009196 -0.89239,-1.821594 -2.00039,-1.821594 h -4.84777 c -1.107995,0 -1.999875,0.812398 -1.999875,1.821594 0,0.205017 0.03643,0.401878 0.104386,0.585494 h -0.316777 c -0.848108,0 -1.569585,0.522479 -1.861385,1.264523 -0.2918,-0.742044 -1.013277,-1.264523 -1.861385,-1.264523 h -0.316776 c 0.06796,-0.183616 0.104386,-0.380477 0.104386,-0.585494 0,-1.009196 -0.891878,-1.821594 -1.999878,-1.821594 z" /><path
         id="path53"
         style="fill:#ff0000;fill-opacity:0.19083;stroke-width:0.167932"
         d="M 89.826272,5.9342312 103.47289,5.4050645 c 0.89885,-0.034854 1.72442,0.7803889 1.62371,1.7368421 L 102.849,28.48735 c -0.10071,0.95646 -0.72587,1.791944 -1.62371,1.736842 l -8.622257,-0.529167 c -0.897848,-0.0551 -1.493291,-0.783985 -1.623712,-1.736842 L 88.20256,7.6710733 C 88.072139,6.7182157 88.92741,5.9690858 89.826272,5.9342312 Z"
         sodipodi:nodetypes="sssssssss" /><path
         id="path54"
         style="fill:#ff0000;fill-opacity:0.19083;stroke-width:0.150855"
         d="m 109.71028,7.5059387 13.41106,4.9265873 c 0.74726,0.274506 1.31509,1.355344 0.8214,2.076544 l -11.61003,16.960183 c -0.4937,0.721201 -1.1074,1.298626 -1.8192,0.942135 l -6.38308,-3.196835 c -0.7118,-0.356491 -1.0324,-1.215971 -0.8214,-2.076545 l 4.58206,-18.6899338 c 0.21097,-0.8605748 1.07192,-1.2166452 1.81919,-0.9421355 z"
         sodipodi:nodetypes="sssssssss"
         inkscape:transform-center-x="-14.532789"
         inkscape:transform-center-y="-39.660972" /><path
         id="path55"
         style="fill:#ff0000;fill-opacity:0.19083;stroke-width:0.155993"
         d="M 69.37881,13.658828 83.19626,6.8079577 c 0.764202,-0.3789011 1.835908,0.070382 2.050584,0.9168703 l 5.252024,20.709254 c 0.214676,0.84649 -0.07081,1.615492 -0.831371,2.001647 l -7.06321,3.586147 c -0.760562,0.386154 -1.552446,-0.1931 -2.050584,-0.916871 L 68.547446,15.660468 c -0.498134,-0.723765 0.06716,-1.622736 0.831364,-2.00164 z"
         sodipodi:nodetypes="sssssssss"
         inkscape:transform-center-x="16.046303"
         inkscape:transform-center-y="-38.919509" /><path
         id="path57"
         style="fill:#ff0000;fill-opacity:0.19083;stroke-width:0.2"
         d="m 137.34911,11.434248 c -0.76078,-0.805527 -2.02193,-0.84192 -2.82746,-0.08114 l -23.31287,22.0179 c -0.80553,0.760782 -0.84119,2.021949 -0.0804,2.827476 l 14.43708,15.286198 c 0.76078,0.805528 2.02158,0.841547 2.8271,0.08076 l 23.31288,-22.0179 c 0.80553,-0.760782 0.84155,-2.021575 0.0808,-2.827103 z m 0.3645,13.959323 a 6.8962622,6.8962622 0 0 1 -0.27849,9.748751 6.8962622,6.8962622 0 0 1 -9.74875,-0.278496 6.8962622,6.8962622 0 0 1 0.27849,-9.74875 6.8962622,6.8962622 0 0 1 9.74875,0.278495 z"
         inkscape:transform-center-x="-36.321573"
         inkscape:transform-center-y="-32.025801" /><g
         id="g76"
         inkscape:transform-center-x="14.362163"
         inkscape:transform-center-y="36.045239"
         transform="rotate(179.52294,95.623292,65.170679)"><path
           id="path58"
           style="fill:#ff0000;fill-opacity:0.19083;stroke-width:0.167932"
           d="M 89.826272,5.9342312 103.47289,5.4050645 c 0.89885,-0.034854 1.72442,0.7803889 1.62371,1.7368421 L 102.849,28.48735 c -0.10071,0.95646 -0.72587,1.791944 -1.62371,1.736842 l -8.622257,-0.529167 c -0.897848,-0.0551 -1.493291,-0.783985 -1.623712,-1.736842 L 88.20256,7.6710733 C 88.072139,6.7182157 88.92741,5.9690858 89.826272,5.9342312 Z"
           sodipodi:nodetypes="sssssssss" /><path
           id="path59"
           style="fill:#ff0000;fill-opacity:0.19083;stroke-width:0.150855"
           d="m 109.71028,7.5059387 13.41106,4.9265873 c 0.74726,0.274506 1.31509,1.355344 0.8214,2.076544 l -11.61003,16.960183 c -0.4937,0.721201 -1.1074,1.298626 -1.8192,0.942135 l -6.38308,-3.196835 c -0.7118,-0.356491 -1.0324,-1.215971 -0.8214,-2.076545 l 4.58206,-18.6899338 c 0.21097,-0.8605748 1.07192,-1.2166452 1.81919,-0.9421355 z"
           sodipodi:nodetypes="sssssssss"
           inkscape:transform-center-x="-14.532789"
           inkscape:transform-center-y="-39.660972" /><path
           id="path60"
           style="fill:#ff0000;fill-opacity:0.19083;stroke-width:0.155993"
           d="M 69.37881,13.658828 83.19626,6.8079577 c 0.764202,-0.3789011 1.835908,0.070382 2.050584,0.9168703 l 5.252024,20.709254 c 0.214676,0.84649 -0.07081,1.615492 -0.831371,2.001647 l -7.06321,3.586147 c -0.760562,0.386154 -1.552446,-0.1931 -2.050584,-0.916871 L 68.547446,15.660468 c -0.498134,-0.723765 0.06716,-1.622736 0.831364,-2.00164 z"
           sodipodi:nodetypes="sssssssss"
           inkscape:transform-center-x="16.046303"
           inkscape:transform-center-y="-38.919509" /><path
           id="path76"
           style="fill:#ff0000;fill-opacity:0.19083;stroke-width:0.2"
           d="m 137.34911,11.434248 c -0.76078,-0.805527 -2.02193,-0.84192 -2.82746,-0.08114 l -23.31287,22.0179 c -0.80553,0.760782 -0.84119,2.021949 -0.0804,2.827476 l 14.43708,15.286198 c 0.76078,0.805528 2.02158,0.841547 2.8271,0.08076 l 23.31288,-22.0179 c 0.80553,-0.760782 0.84155,-2.021575 0.0808,-2.827103 z m 0.3645,13.959323 a 6.8962622,6.8962622 0 0 1 -0.27849,9.748751 6.8962622,6.8962622 0 0 1 -9.74875,-0.278496 6.8962622,6.8962622 0 0 1 0.27849,-9.74875 6.8962622,6.8962622 0 0 1 9.74875,0.278495 z"
           inkscape:transform-center-x="-36.321573"
           inkscape:transform-center-y="-32.025801" /></g><path
         id="path77"
         style="fill:#ff0000;fill-opacity:0.19083;stroke-width:0.167932"
         d="m 156.05941,56.266973 1.25196,13.599368 c 0.0825,0.895738 -0.68786,1.76337 -1.64831,1.713513 l -21.43459,-1.112711 c -0.96045,-0.04986 -1.8279,-0.629841 -1.82048,-1.529339 l 0.0713,-8.638186 c 0.007,-0.899507 0.70371,-1.532757 1.64831,-1.713515 l 20.11135,-3.848471 c 0.94461,-0.180758 1.73803,0.633592 1.82049,1.529341 z"
         sodipodi:nodetypes="sssssssss" /><path
         id="path78"
         style="fill:#ff0000;fill-opacity:0.19083;stroke-width:0.150855"
         d="m 153.95665,76.735512 -4.20861,13.653403 c -0.2345,0.760763 -1.28371,1.3851 -2.03007,0.930343 L 130.16608,80.62478 c -0.74636,-0.454767 -1.35551,-1.036989 -1.03726,-1.766689 l 2.85391,-6.543597 c 0.31825,-0.7297 1.15952,-1.095419 2.03007,-0.930343 l 18.90658,3.584682 c 0.87055,0.165046 1.27177,1.005906 1.03727,1.766679 z"
         sodipodi:nodetypes="sssssssss"
         inkscape:transform-center-x="-14.532789"
         inkscape:transform-center-y="-39.660972" /><path
         id="path79"
         style="fill:#ff0000;fill-opacity:0.19083;stroke-width:0.149665"
         d="m 149.37824,38.533551 7.57383,12.366948 c 0.41889,0.683979 0.0271,1.691043 -0.80686,1.929691 l -20.40166,5.838504 c -0.83392,0.238647 -1.61698,0.01375 -2.04291,-0.666524 l -3.95559,-6.317637 c -0.42594,-0.680279 0.11051,-1.436467 0.80686,-1.929691 l 16.78343,-11.887809 c 0.69634,-0.493219 1.62401,-0.01746 2.0429,0.666518 z"
         sodipodi:nodetypes="sssssssss"
         inkscape:transform-center-x="16.046303"
         inkscape:transform-center-y="-35.826072" /><path
         id="path80"
         style="fill:#ff0000;fill-opacity:0.19083;stroke-width:0.189319"
         d="m 147.30733,101.86756 c 0.70688,-0.77716 0.67864,-1.998757 -0.0637,-2.73877 L 125.75872,77.71203 c -0.74236,-0.740014 -1.90925,-0.709741 -2.61612,0.06743 l -13.4141,14.748006 c -0.70688,0.777165 -0.67831,1.998416 0.064,2.738419 l 21.48493,21.416765 c 0.74237,0.74001 1.90893,0.7101 2.6158,-0.067 z m -12.87854,1.06937 a 6.3801339,6.6792205 0 0 1 -9.0201,0.23125 6.3801339,6.6792205 0 0 1 -0.2209,-9.442938 6.3801339,6.6792205 0 0 1 9.0201,-0.231262 6.3801339,6.6792205 0 0 1 0.2209,9.44295 z"
         inkscape:transform-center-x="-33.603225"
         inkscape:transform-center-y="-31.017872" /><path
         id="path81"
         style="fill:#ff0000;fill-opacity:0.19083;stroke-width:0.17758"
         d="M 34.7893,73.423538 33.421074,59.821589 c -0.09012,-0.895908 0.773285,-1.761932 1.847148,-1.710071 l 23.965679,1.157426 c 1.073869,0.05186 2.042509,0.633652 2.032112,1.533134 l -0.09985,8.638018 c -0.0104,0.899489 -0.790467,1.531286 -1.847148,1.710072 L 36.821411,74.956674 C 35.764729,75.135461 34.87942,74.319458 34.7893,73.423538 Z"
         sodipodi:nodetypes="sssssssss" /><path
         id="path82"
         style="fill:#ff0000;fill-opacity:0.19083;stroke-width:0.150855"
         d="m 37.317496,53.485285 4.237083,-13.644593 c 0.236087,-0.760273 1.286599,-1.382419 2.032009,-0.926106 l 17.529539,10.731071 c 0.745412,0.456324 1.353347,1.039816 1.033575,1.76885 l -2.867555,6.537629 c -0.319772,0.729034 -1.161806,1.092997 -2.03201,0.926105 L 38.351071,55.254124 c -0.870204,-0.166861 -1.269665,-1.008557 -1.033575,-1.768839 z"
         sodipodi:nodetypes="sssssssss"
         inkscape:transform-center-x="-14.532789"
         inkscape:transform-center-y="-39.660972" /><path
         id="path83"
         style="fill:#ff0000;fill-opacity:0.19083;stroke-width:0.150244"
         d="M 42.34173,91.93206 34.795944,79.454595 c -0.417335,-0.690092 -0.02322,-1.704203 0.811231,-1.943088 l 20.414853,-5.844276 c 0.834456,-0.238884 1.617002,-0.01073 2.041395,0.675644 l 3.941266,6.374262 c 0.424393,0.686376 -0.113774,1.447388 -0.811232,1.943087 L 44.383118,92.607697 c -0.697452,0.495696 -1.62405,0.01445 -2.041388,-0.675637 z"
         sodipodi:nodetypes="sssssssss"
         inkscape:transform-center-x="16.046303"
         inkscape:transform-center-y="-36.103849" /><path
         id="path84"
         style="fill:#ff0000;fill-opacity:0.19083;stroke-width:0.2"
         d="m 40.362054,25.682239 c -0.76573,0.800823 -0.737837,2.06219 0.06299,2.827923 L 63.601829,50.67126 c 0.800825,0.765733 2.062171,0.737108 2.827901,-0.06372 L 80.960714,35.410574 c 0.765731,-0.800823 0.737483,-2.061821 -0.06335,-2.827544 L 57.720578,10.421922 c -0.800825,-0.7657334 -2.061816,-0.7374866 -2.827549,0.06331 z m 13.922637,-1.075062 a 6.8962622,6.8962622 0 0 1 9.750281,-0.218437 6.8962622,6.8962622 0 0 1 0.21843,9.750281 6.8962622,6.8962622 0 0 1 -9.75028,0.218436 6.8962622,6.8962622 0 0 1 -0.218431,-9.75028 z"
         inkscape:transform-center-x="-36.321573"
         inkscape:transform-center-y="-32.025801" /></g></g><g
     inkscape:groupmode="layer"
     id="layer2"
     inkscape:label="Layer 2"><path
       style="fill:#000000"
       d="M 57.335258,176.2726 C 0,0 0,0 57.335258,176.2726 Z"
       id="path34" /></g></svg>
