<?xml version="1.0" encoding="UTF-8" standalone="no"?>
<svg
   height="467.80mm"
   viewBox="0.0 0.0 613.40 467.80"
   width="613.40mm"
   version="1.1"
   id="svg99"
   sodipodi:docname="!20260317 - BasedBox_v1.svg"
   inkscape:version="1.4.2 (ebf0e94, 2025-05-08)"
   xmlns:inkscape="http://www.inkscape.org/namespaces/inkscape"
   xmlns:sodipodi="http://sodipodi.sourceforge.net/DTD/sodipodi-0.dtd"
   xmlns="http://www.w3.org/2000/svg"
   xmlns:svg="http://www.w3.org/2000/svg"
   xmlns:rdf="http://www.w3.org/1999/02/22-rdf-syntax-ns#"
   xmlns:cc="http://creativecommons.org/ns#"
   xmlns:dc="http://purl.org/dc/elements/1.1/">
  <defs
     id="defs99" />
  <sodipodi:namedview
     id="namedview99"
     pagecolor="#ffffff"
     bordercolor="#000000"
     borderopacity="0.25"
     inkscape:showpageshadow="2"
     inkscape:pageopacity="0.0"
     inkscape:pagecheckerboard="0"
     inkscape:deskcolor="#d1d1d1"
     inkscape:document-units="mm"
     showguides="true"
     inkscape:zoom="0.057053964"
     inkscape:cx="87.636329"
     inkscape:cy="-1445.9994"
     inkscape:window-width="1920"
     inkscape:window-height="1009"
     inkscape:window-x="-8"
     inkscape:window-y="-8"
     inkscape:window-maximized="1"
     inkscape:current-layer="g41"
     showgrid="true">
    <sodipodi:guide
       position="271.86889,20.868401"
       orientation="-1,0"
       id="guide100"
       inkscape:locked="false"
       inkscape:label=""
       inkscape:color="rgb(0,134,229)" />
    <sodipodi:guide
       position="275.19999,111.59999"
       orientation="0,1"
       id="guide101"
       inkscape:locked="false"
       inkscape:label=""
       inkscape:color="rgb(0,134,229)" />
    <inkscape:grid
       id="grid1"
       units="mm"
       originx="0"
       originy="0"
       spacingx="0.99999996"
       spacingy="1"
       empcolor="#0099e5"
       empopacity="0.30196078"
       color="#0099e5"
       opacity="0.14901961"
       empspacing="5"
       enabled="true"
       visible="true" />
  </sodipodi:namedview>
  <!--
BasedBox - Fully closed box on a base


This box is more of a building block than a finished item.
Use a vector graphics program (like Inkscape) to add holes or adjust the base
plate. The width of the "brim" can also be adjusted with the **edge_width**
 parameter in the **Finger Joints Settings**.

See ClosedBox for variant without a base.



Created with Boxes.py (https://boxes.hackerspace-bamberg.de/)
Creation date: 2026-03-17 19:41:16
Command line (remove spaces between dashes): boxes BasedBox - -FingerJoint_edge_width=3 - -x=250 - -y=340 - -h=35 - -spacing=1
Url: https://boxes.hackerspace-bamberg.de/BasedBox?FingerJoint_style=rectangular&FingerJoint_surroundingspaces=2.0&FingerJoint_bottom_lip=0.0&FingerJoint_edge_width=3&FingerJoint_extra_length=0.0&FingerJoint_finger=2.0&FingerJoint_play=0.0&FingerJoint_space=2.0&FingerJoint_width=1.0&x=250&y=340&h=35&outside=0&outside=1&thickness=3.0&burn=0.1&format=svg&labels=0&labels=1&reference=100.0&tabs=0.0&qr_code=0&inner_corners=loop&spacing=1&debug=0&language=en&render=2
Url short: https://boxes.hackerspace-bamberg.de/BasedBox?FingerJoint_edge_width=3&x=250&y=340&h=35&spacing=1
SettingsUrl: https://boxes.hackerspace-bamberg.de/BasedBox?FingerJoint_style=rectangular&FingerJoint_surroundingspaces=2.0&FingerJoint_bottom_lip=0.0&FingerJoint_edge_width=3&FingerJoint_extra_length=0.0&FingerJoint_finger=2.0&FingerJoint_play=0.0&FingerJoint_space=2.0&FingerJoint_width=1.0&x=250&y=340&h=35&outside=0&outside=1&thickness=3.0&burn=0.1&format=svg&labels=0&labels=1&reference=100.0&tabs=0.0&qr_code=0&inner_corners=loop&spacing=1&debug=0&language=en&render=2
SettingsUrl short: https://boxes.hackerspace-bamberg.de/BasedBox?FingerJoint_edge_width=3&x=250&y=340&h=35&spacing=1
-->
  <title
     id="title1">BasedBox</title>
  <metadata
     id="metadata1">
    <rdf:RDF>
      <cc:Work>
        <dc:title>BasedBox</dc:title>
        <dc:date>2026-03-17 19:41:16</dc:date>
        <dc:source>https://boxes.hackerspace-bamberg.de/BasedBox?FingerJoint_style=rectangular&amp;FingerJoint_surroundingspaces=2.0&amp;FingerJoint_bottom_lip=0.0&amp;FingerJoint_edge_width=3&amp;FingerJoint_extra_length=0.0&amp;FingerJoint_finger=2.0&amp;FingerJoint_play=0.0&amp;FingerJoint_space=2.0&amp;FingerJoint_width=1.0&amp;x=250&amp;y=340&amp;h=35&amp;outside=0&amp;outside=1&amp;thickness=3.0&amp;burn=0.1&amp;format=svg&amp;labels=0&amp;labels=1&amp;reference=100.0&amp;tabs=0.0&amp;qr_code=0&amp;inner_corners=loop&amp;spacing=1&amp;debug=0&amp;language=en&amp;render=2</dc:source>
        <dc:source>https://boxes.hackerspace-bamberg.de/BasedBox?FingerJoint_edge_width=3&amp;x=250&amp;y=340&amp;h=35&amp;spacing=1</dc:source>
        <dc:description>Fully closed box on a base

This box is more of a building block than a finished item.
Use a vector graphics program (like Inkscape) to add holes or adjust the base
plate. The width of the &quot;brim&quot; can also be adjusted with the **edge_width**
 parameter in the **Finger Joints Settings**.

See ClosedBox for variant without a base.


Created with Boxes.py (https://boxes.hackerspace-bamberg.de/)
Command line: boxes BasedBox --FingerJoint_style=rectangular --FingerJoint_surroundingspaces=2.0 --FingerJoint_bottom_lip=0.0 --FingerJoint_edge_width=3 --FingerJoint_extra_length=0.0 --FingerJoint_finger=2.0 --FingerJoint_play=0.0 --FingerJoint_space=2.0 --FingerJoint_width=1.0 --x=250 --y=340 --h=35 --outside=0 --outside=1 --thickness=3.0 --burn=0.1 --format=svg --labels=0 --labels=1 --reference=100.0 --tabs=0.0 --qr_code=0 --inner_corners=loop --spacing=1 --debug=0
Command line short: boxes BasedBox --FingerJoint_edge_width=3 --x=250 --y=340 --h=35 --spacing=1
Url: https://boxes.hackerspace-bamberg.de/BasedBox?FingerJoint_style=rectangular&amp;FingerJoint_surroundingspaces=2.0&amp;FingerJoint_bottom_lip=0.0&amp;FingerJoint_edge_width=3&amp;FingerJoint_extra_length=0.0&amp;FingerJoint_finger=2.0&amp;FingerJoint_play=0.0&amp;FingerJoint_space=2.0&amp;FingerJoint_width=1.0&amp;x=250&amp;y=340&amp;h=35&amp;outside=0&amp;outside=1&amp;thickness=3.0&amp;burn=0.1&amp;format=svg&amp;labels=0&amp;labels=1&amp;reference=100.0&amp;tabs=0.0&amp;qr_code=0&amp;inner_corners=loop&amp;spacing=1&amp;debug=0&amp;language=en&amp;render=2
Url short: https://boxes.hackerspace-bamberg.de/BasedBox?FingerJoint_edge_width=3&amp;x=250&amp;y=340&amp;h=35&amp;spacing=1
SettingsUrl: https://boxes.hackerspace-bamberg.de/BasedBox?FingerJoint_style=rectangular&amp;FingerJoint_surroundingspaces=2.0&amp;FingerJoint_bottom_lip=0.0&amp;FingerJoint_edge_width=3&amp;FingerJoint_extra_length=0.0&amp;FingerJoint_finger=2.0&amp;FingerJoint_play=0.0&amp;FingerJoint_space=2.0&amp;FingerJoint_width=1.0&amp;x=250&amp;y=340&amp;h=35&amp;outside=0&amp;outside=1&amp;thickness=3.0&amp;burn=0.1&amp;format=svg&amp;labels=0&amp;labels=1&amp;reference=100.0&amp;tabs=0.0&amp;qr_code=0&amp;inner_corners=loop&amp;spacing=1&amp;debug=0&amp;language=en&amp;render=2
SettingsUrl short: https://boxes.hackerspace-bamberg.de/BasedBox?FingerJoint_edge_width=3&amp;x=250&amp;y=340&amp;h=35&amp;spacing=1
</dc:description>
      </cc:Work>
    </rdf:RDF>
  </metadata>
  <g
     inkscape:groupmode="layer"
     id="layer1"
     inkscape:label="Cut Marks"
     style="display:inline" />
  <g
     inkscape:groupmode="layer"
     id="layer2"
     inkscape:label="Base">
    <g
       id="p-0"
       style="fill:none;stroke-linecap:round;stroke-linejoin:round"
       transform="translate(254.95414,47.806447)">
      <path
         d="m 10.1,457.8 h 100 v -10 h -100 z"
         stroke="#000000"
         stroke-width="0.2"
         id="path1" />
      <text
         dominant-baseline="hanging"
         font-size="6px"
         style="font-style:normal;font-weight:normal;font-family:sans-serif;fill:#ff0000"
         text-anchor="middle"
         transform="translate(60.1,449.8)"
         id="text1">100.0mm, burn:0.10mm</text>
    </g>
    <path
       d="m 300.233,467.97733 v -7.9 c 0,-0.1 -0.1,0 0,0 h 2.9 c 0.055,0 0.1,-0.045 0.1,-0.1 v -6 c 0,-0.055 -0.045,-0.1 -0.1,-0.1 h -2.9 c -0.1,0 0,0.1 0,0 v -5.8 c 0,-0.1 -0.1,0 0,0 h 2.9 c 0.055,0 0.1,-0.045 0.1,-0.1 v -6 c 0,-0.055 -0.045,-0.1 -0.1,-0.1 h -2.9 c -0.1,0 0,0.1 0,0 v -5.8 c 0,-0.1 -0.1,0 0,0 h 2.9 c 0.055,0 0.1,-0.045 0.1,-0.1 v -6 c 0,-0.055 -0.045,-0.1 -0.1,-0.1 h -2.9 c -0.1,0 0,0.1 0,0 v -5.8 c 0,-0.1 -0.1,0 0,0 h 2.9 c 0.055,0 0.1,-0.045 0.1,-0.1 v -6 c 0,-0.055 -0.045,-0.1 -0.1,-0.1 h -2.9 c -0.1,0 0,0.1 0,0 v -5.8 c 0,-0.1 -0.1,0 0,0 h 2.9 c 0.055,0 0.1,-0.045 0.1,-0.1 v -6 c 0,-0.055 -0.045,-0.1 -0.1,-0.1 h -2.9 c -0.1,0 0,0.1 0,0 v -5.8 c 0,-0.1 -0.1,0 0,0 h 2.9 c 0.055,0 0.1,-0.045 0.1,-0.1 v -6 c 0,-0.055 -0.045,-0.1 -0.1,-0.1 h -2.9 c -0.1,0 0,0.1 0,0 v -5.8 c 0,-0.1 -0.1,0 0,0 h 2.9 c 0.055,0 0.1,-0.045 0.1,-0.1 v -6 c 0,-0.055 -0.045,-0.1 -0.1,-0.1 h -2.9 c -0.1,0 0,0.1 0,0 v -5.8 c 0,-0.1 -0.1,0 0,0 h 2.9 c 0.055,0 0.1,-0.045 0.1,-0.1 v -6 c 0,-0.055 -0.045,-0.1 -0.1,-0.1 h -2.9 c -0.1,0 0,0.1 0,0 v -5.8 c 0,-0.1 -0.1,0 0,0 h 2.9 c 0.055,0 0.1,-0.045 0.1,-0.1 v -6 c 0,-0.055 -0.045,-0.1 -0.1,-0.1 h -2.9 c -0.1,0 0,0.1 0,0 v -5.8 c 0,-0.1 -0.1,0 0,0 h 2.9 c 0.055,0 0.1,-0.045 0.1,-0.1 v -6 c 0,-0.055 -0.045,-0.1 -0.1,-0.1 h -2.9 c -0.1,0 0,0.1 0,0 v -5.8 c 0,-0.1 -0.1,0 0,0 h 2.9 c 0.055,0 0.1,-0.045 0.1,-0.1 v -6 c 0,-0.055 -0.045,-0.1 -0.1,-0.1 h -2.9 c -0.1,0 0,0.1 0,0 v -5.8 c 0,-0.1 -0.1,0 0,0 h 2.9 c 0.055,0 0.1,-0.045 0.1,-0.1 v -6 c 0,-0.055 -0.045,-0.1 -0.1,-0.1 h -2.9 c -0.1,0 0,0.1 0,0 v -5.8 c 0,-0.1 -0.1,0 0,0 h 2.9 c 0.055,0 0.1,-0.045 0.1,-0.1 v -6 c 0,-0.055 -0.045,-0.1 -0.1,-0.1 h -2.9 c -0.1,0 0,0.1 0,0 v -5.8 c 0,-0.1 -0.1,0 0,0 h 2.9 c 0.055,0 0.1,-0.045 0.1,-0.1 v -6 c 0,-0.055 -0.045,-0.1 -0.1,-0.1 h -2.9 c -0.1,0 0,0.1 0,0 v -5.8 c 0,-0.1 -0.1,0 0,0 h 2.9 c 0.055,0 0.1,-0.045 0.1,-0.1 v -6 c 0,-0.055 -0.045,-0.1 -0.1,-0.1 h -2.9 c -0.1,0 0,0.1 0,0 v -5.8 c 0,-0.1 -0.1,0 0,0 h 2.9 c 0.055,0 0.1,-0.045 0.1,-0.1 v -6 c 0,-0.055 -0.045,-0.1 -0.1,-0.1 h -2.9 c -0.1,0 0,0.1 0,0 v -5.8 c 0,-0.1 -0.1,0 0,0 h 2.9 c 0.055,0 0.1,-0.045 0.1,-0.1 v -6 c 0,-0.055 -0.045,-0.1 -0.1,-0.1 h -2.9 c -0.1,0 0,0.1 0,0 v -5.8 c 0,-0.1 -0.1,0 0,0 h 2.9 c 0.055,0 0.1,-0.045 0.1,-0.1 v -6 c 0,-0.055 -0.045,-0.1 -0.1,-0.1 h -2.9 c -0.1,0 0,0.1 0,0 v -5.8 c 0,-0.1 -0.1,0 0,0 h 2.9 c 0.055,0 0.1,-0.045 0.1,-0.1 v -6 c 0,-0.055 -0.045,-0.1 -0.1,-0.1 h -2.9 c -0.1,0 0,0.1 0,0 v -5.8 c 0,-0.1 -0.1,0 0,0 h 2.9 c 0.055,0 0.1,-0.045 0.1,-0.1 v -6 c 0,-0.055 -0.045,-0.1 -0.1,-0.1 h -2.9 c -0.1,0 0,0.1 0,0 v -5.8 c 0,-0.1 -0.1,0 0,0 h 2.9 c 0.055,0 0.1,-0.045 0.1,-0.1 v -6 c 0,-0.055 -0.045,-0.1 -0.1,-0.1 h -2.9 c -0.1,0 0,0.1 0,0 v -5.80002 c 0,-0.1 -0.1,0 0,0 h 2.9 c 0.055,0 0.1,-0.045 0.1,-0.1 v -6 c 0,-0.055 -0.045,-0.1 -0.1,-0.1 h -2.9 c -0.1,0 0,0.1 0,0 v -5.8 c 0,-0.1 -0.1,0 0,0 h 2.9 c 0.055,0 0.1,-0.045 0.1,-0.1 v -6 c 0,-0.055 -0.045,-0.1 -0.1,-0.1 h -2.9 c -0.1,0 0,0.1 0,0 v -5.8 c 0,-0.1 -0.1,0 0,0 h 2.9 c 0.055,0 0.1,-0.045 0.1,-0.1 v -6 c 0,-0.055 -0.045,-0.1 -0.1,-0.1 h -2.9 c -0.1,0 0,0.1 0,0 v -5.8 c 0,-0.1 -0.1,0 0,0 h 2.9 c 0.055,0 0.1,-0.045 0.1,-0.1 v -6 c 0,-0.055 -0.045,-0.1 -0.1,-0.1 h -2.9 c -0.1,0 0,0.1 0,0 v -5.8 c 0,-0.1 -0.1,0 0,0 h 2.9 c 0.055,0 0.1,-0.045 0.1,-0.1 v -6 c 0,-0.055 -0.045,-0.1 -0.1,-0.1 h -2.9 c -0.1,0 0,0.1 0,0 v -5.8 c 0,-0.1 -0.1,0 0,0 h 2.9 c 0.055,0 0.1,-0.045 0.1,-0.1 v -6 c 0,-0.055 -0.045,-0.1 -0.1,-0.1 h -2.9 c -0.1,0 0,0.1 0,0 v -7.9 c 0,-0.055 -0.045,-0.1 -0.1,-0.1 h -29 -3 c -0.055,0 -0.1,0.045 -0.1,0.1 v 334.00002 c 0,0.055 0.045,0.1 0.1,0.1 h 3 11.4 c 0.1,0 0,-0.1 0,0 v 2.9 c 0,0.055 0.045,0.1 0.1,0.1 h 6 c 0.055,0 0.1,-0.045 0.1,-0.1 v -2.9 c 0,-0.1 -0.1,0 0,0 h 11.4 c 0.055,0 0.1,-0.045 0.1,-0.1 z"
       stroke="#000000"
       stroke-width="0.2"
       id="path4"
       style="vector-effect:non-scaling-stroke;fill:none;stroke-width:0.264583;stroke-linecap:round;stroke-linejoin:round;stroke-dasharray:none;-inkscape-stroke:hairline"
       sodipodi:nodetypes="ssssssssssssssssssssssssssssssssssssssssssssssssssssssssssssssssssssssssssssssssssssssssssssssssssssssssssssssssssssssssssssssssssssssssssssssssssssssssssssssssssssssssssssssssssssssssssssssssssssssssssssssssssssssssssscsssscssssssssss" />
    <path
       d="m 345.25181,465.88699 v -10.9 c 0,-0.1 -0.1,0 0,0 h 2.9 c 0.055,0 0.1,-0.045 0.1,-0.1 v -6 c 0,-0.055 -0.045,-0.1 -0.1,-0.1 h -2.9 c -0.1,0 0,0.1 0,0 v -5.8 c 0,-0.1 -0.1,0 0,0 h 2.9 c 0.055,0 0.1,-0.045 0.1,-0.1 v -6 c 0,-0.055 -0.045,-0.1 -0.1,-0.1 h -2.9 c -0.1,0 0,0.1 0,0 v -5.8 c 0,-0.1 -0.1,0 0,0 h 2.9 c 0.055,0 0.1,-0.045 0.1,-0.1 v -6 c 0,-0.055 -0.045,-0.1 -0.1,-0.1 h -2.9 c -0.1,0 0,0.1 0,0 v -5.8 c 0,-0.1 -0.1,0 0,0 h 2.9 c 0.055,0 0.1,-0.045 0.1,-0.1 v -6 c 0,-0.055 -0.045,-0.1 -0.1,-0.1 h -2.9 c -0.1,0 0,0.1 0,0 v -5.8 c 0,-0.1 -0.1,0 0,0 h 2.9 c 0.055,0 0.1,-0.045 0.1,-0.1 v -6 c 0,-0.055 -0.045,-0.1 -0.1,-0.1 h -2.9 c -0.1,0 0,0.1 0,0 v -5.8 c 0,-0.1 -0.1,0 0,0 h 2.9 c 0.055,0 0.1,-0.045 0.1,-0.1 v -6 c 0,-0.055 -0.045,-0.1 -0.1,-0.1 h -2.9 c -0.1,0 0,0.1 0,0 v -5.8 c 0,-0.1 -0.1,0 0,0 h 2.9 c 0.055,0 0.1,-0.045 0.1,-0.1 v -6 c 0,-0.055 -0.045,-0.1 -0.1,-0.1 h -2.9 c -0.1,0 0,0.1 0,0 v -5.8 c 0,-0.1 -0.1,0 0,0 h 2.9 c 0.055,0 0.1,-0.045 0.1,-0.1 v -6 c 0,-0.055 -0.045,-0.1 -0.1,-0.1 h -2.9 c -0.1,0 0,0.1 0,0 v -5.8 c 0,-0.1 -0.1,0 0,0 h 2.9 c 0.055,0 0.1,-0.045 0.1,-0.1 v -6 c 0,-0.055 -0.045,-0.1 -0.1,-0.1 h -2.9 c -0.1,0 0,0.1 0,0 v -5.8 c 0,-0.1 -0.1,0 0,0 h 2.9 c 0.055,0 0.1,-0.045 0.1,-0.1 v -6 c 0,-0.055 -0.045,-0.1 -0.1,-0.1 h -2.9 c -0.1,0 0,0.1 0,0 v -5.8 c 0,-0.1 -0.1,0 0,0 h 2.9 c 0.055,0 0.1,-0.045 0.1,-0.1 v -6 c 0,-0.055 -0.045,-0.1 -0.1,-0.1 h -2.9 c -0.1,0 0,0.1 0,0 v -5.8 c 0,-0.1 -0.1,0 0,0 h 2.9 c 0.055,0 0.1,-0.045 0.1,-0.1 v -6 c 0,-0.055 -0.045,-0.1 -0.1,-0.1 h -2.9 c -0.1,0 0,0.1 0,0 v -5.8 c 0,-0.1 -0.1,0 0,0 h 2.9 c 0.055,0 0.1,-0.045 0.1,-0.1 v -6 c 0,-0.055 -0.045,-0.1 -0.1,-0.1 h -2.9 c -0.1,0 0,0.1 0,0 v -5.8 c 0,-0.1 -0.1,0 0,0 h 2.9 c 0.055,0 0.1,-0.045 0.1,-0.1 v -6 c 0,-0.055 -0.045,-0.1 -0.1,-0.1 h -2.9 c -0.1,0 0,0.1 0,0 v -5.8 c 0,-0.1 -0.1,0 0,0 h 2.9 c 0.055,0 0.1,-0.045 0.1,-0.1 v -6 c 0,-0.055 -0.045,-0.1 -0.1,-0.1 h -2.9 c -0.1,0 0,0.1 0,0 v -5.8 c 0,-0.1 -0.1,0 0,0 h 2.9 c 0.055,0 0.1,-0.045 0.1,-0.1 v -6 c 0,-0.055 -0.045,-0.1 -0.1,-0.1 h -2.9 c -0.1,0 0,0.1 0,0 v -5.8 c 0,-0.1 -0.1,0 0,0 h 2.9 c 0.055,0 0.1,-0.045 0.1,-0.1 v -6 c 0,-0.055 -0.045,-0.1 -0.1,-0.1 h -2.9 c -0.1,0 0,0.1 0,0 v -5.8 c 0,-0.1 -0.1,0 0,0 h 2.9 c 0.055,0 0.1,-0.045 0.1,-0.1 v -6 c 0,-0.055 -0.045,-0.1 -0.1,-0.1 h -2.9 c -0.1,0 0,0.1 0,0 v -5.8 c 0,-0.1 -0.1,0 0,0 h 2.9 c 0.055,0 0.1,-0.045 0.1,-0.1 v -6 c 0,-0.055 -0.045,-0.1 -0.1,-0.1 h -2.9 c -0.1,0 0,0.1 0,0 v -10.9 -3 c 0,-0.055 -0.045,-0.1 -0.1,-0.1 h -29 -3 c -0.055,0 -0.1,0.045 -0.1,0.1 v 3 244 3 c 0,0.055 0.045,0.1 0.1,0.1 h 3 11.5 c 0.055,0 0.1,-0.045 0.1,-0.1 v -2.9 c 0,-0.1 -0.1,0 0,0 h 5.8 c 0.1,0 0,-0.1 0,0 v 2.9 c 0,0.055 0.045,0.1 0.1,0.1 h 11.5 c 0.055,0 0.1,-0.045 0.1,-0.1 z"
       stroke="#000000"
       stroke-width="0.2"
       id="path5"
       style="vector-effect:non-scaling-stroke;fill:none;stroke-width:0.264583;stroke-linecap:round;stroke-linejoin:round;stroke-dasharray:none;-inkscape-stroke:hairline"
       sodipodi:nodetypes="csssssssssssssssssssssssssssssssssssssssssssssssssssssssssssssssssssssssssssssssssssssssssssssssssssssssssssssssssssssssssssssssssssssssssssssssssssssssscsscssccsscssssssssssc" />
    <g
       id="g2"
       style="vector-effect:non-scaling-stroke;stroke-width:0.264583;stroke-dasharray:none;-inkscape-stroke:hairline">
      <path
         style="display:inline;vector-effect:non-scaling-stroke;fill:#008000;stroke:#ff00ff;stroke-width:0.264583;stroke-linejoin:round;stroke-dasharray:none;-inkscape-stroke:hairline"
         d="m 44.45,467.8 v -335"
         id="path2"
         sodipodi:nodetypes="cc" />
      <path
         style="display:inline;vector-effect:non-scaling-stroke;fill:#008000;stroke:#ff00ff;stroke-width:0.264583;stroke-linejoin:round;stroke-dasharray:none;-inkscape-stroke:hairline"
         d="m 57.15,467.8 v -335"
         id="path3"
         sodipodi:nodetypes="cc" />
      <path
         style="display:inline;vector-effect:non-scaling-stroke;fill:#008000;stroke:#ff00ff;stroke-width:0.264583;stroke-linejoin:round;stroke-dasharray:none;-inkscape-stroke:hairline"
         d="M 0,302.7 H 231"
         id="path6"
         sodipodi:nodetypes="cc" />
      <path
         style="display:inline;vector-effect:non-scaling-stroke;fill:#008000;stroke:#ff00ff;stroke-width:0.264583;stroke-linejoin:round;stroke-dasharray:none;-inkscape-stroke:hairline"
         d="m 88.9,467.8 v -335"
         id="path27"
         sodipodi:nodetypes="cc" />
      <path
         style="display:inline;vector-effect:non-scaling-stroke;fill:#008000;stroke:#ff00ff;stroke-width:0.264583;stroke-linejoin:round;stroke-dasharray:none;-inkscape-stroke:hairline"
         d="m 127,467.8124 v -335"
         id="path28"
         sodipodi:nodetypes="cc" />
      <g
         id="g100"
         transform="translate(-275.20045,111.6)"
         style="vector-effect:non-scaling-stroke;stroke-width:0.264583;stroke-dasharray:none;-inkscape-stroke:hairline">
        <path
           d="m 289.3,359 h -2.9 c -0.1,0 0,0.1 0,0 v -2.8 c 0,-0.1 -0.1,0 0,0 h 5.8 c 0.1,0 0,-0.1 0,0 v 2.8 c 0,0.1 0.1,0 0,0 z"
           stroke="#0000ff"
           stroke-width="0.2"
           id="path7"
           style="vector-effect:non-scaling-stroke;fill:none;stroke-width:0.264583;stroke-linecap:round;stroke-linejoin:round;stroke-dasharray:none;-inkscape-stroke:hairline" />
        <path
           d="m 301.3,359 h -2.9 c -0.1,0 0,0.1 0,0 v -2.8 c 0,-0.1 -0.1,0 0,0 h 5.8 c 0.1,0 0,-0.1 0,0 v 2.8 c 0,0.1 0.1,0 0,0 z"
           stroke="#0000ff"
           stroke-width="0.2"
           id="path8"
           style="vector-effect:non-scaling-stroke;fill:none;stroke-width:0.264583;stroke-linecap:round;stroke-linejoin:round;stroke-dasharray:none;-inkscape-stroke:hairline" />
        <path
           d="m 313.3,359 h -2.9 c -0.1,0 0,0.1 0,0 v -2.8 c 0,-0.1 -0.1,0 0,0 h 5.8 c 0.1,0 0,-0.1 0,0 v 2.8 c 0,0.1 0.1,0 0,0 z"
           stroke="#0000ff"
           stroke-width="0.2"
           id="path9"
           style="vector-effect:non-scaling-stroke;fill:none;stroke-width:0.264583;stroke-linecap:round;stroke-linejoin:round;stroke-dasharray:none;-inkscape-stroke:hairline" />
        <path
           d="m 325.3,359 h -2.9 c -0.1,0 0,0.1 0,0 v -2.8 c 0,-0.1 -0.1,0 0,0 h 5.8 c 0.1,0 0,-0.1 0,0 v 2.8 c 0,0.1 0.1,0 0,0 z"
           stroke="#0000ff"
           stroke-width="0.2"
           id="path10"
           style="vector-effect:non-scaling-stroke;fill:none;stroke-width:0.264583;stroke-linecap:round;stroke-linejoin:round;stroke-dasharray:none;-inkscape-stroke:hairline" />
        <path
           d="m 337.3,359 h -2.9 c -0.1,0 0,0.1 0,0 v -2.8 c 0,-0.1 -0.1,0 0,0 h 5.8 c 0.1,0 0,-0.1 0,0 v 2.8 c 0,0.1 0.1,0 0,0 z"
           stroke="#0000ff"
           stroke-width="0.2"
           id="path11"
           style="vector-effect:non-scaling-stroke;fill:none;stroke-width:0.264583;stroke-linecap:round;stroke-linejoin:round;stroke-dasharray:none;-inkscape-stroke:hairline" />
        <path
           d="m 349.3,359 h -2.9 c -0.1,0 0,0.1 0,0 v -2.8 c 0,-0.1 -0.1,0 0,0 h 5.8 c 0.1,0 0,-0.1 0,0 v 2.8 c 0,0.1 0.1,0 0,0 z"
           stroke="#0000ff"
           stroke-width="0.2"
           id="path12"
           style="vector-effect:non-scaling-stroke;fill:none;stroke-width:0.264583;stroke-linecap:round;stroke-linejoin:round;stroke-dasharray:none;-inkscape-stroke:hairline" />
        <path
           d="m 361.3,359 h -2.9 c -0.1,0 0,0.1 0,0 v -2.8 c 0,-0.1 -0.1,0 0,0 h 5.8 c 0.1,0 0,-0.1 0,0 v 2.8 c 0,0.1 0.1,0 0,0 z"
           stroke="#0000ff"
           stroke-width="0.2"
           id="path13"
           style="vector-effect:non-scaling-stroke;fill:none;stroke-width:0.264583;stroke-linecap:round;stroke-linejoin:round;stroke-dasharray:none;-inkscape-stroke:hairline" />
        <path
           d="m 373.3,359 h -2.9 c -0.1,0 0,0.1 0,0 v -2.8 c 0,-0.1 -0.1,0 0,0 h 5.8 c 0.1,0 0,-0.1 0,0 v 2.8 c 0,0.1 0.1,0 0,0 z"
           stroke="#0000ff"
           stroke-width="0.2"
           id="path14"
           style="vector-effect:non-scaling-stroke;fill:none;stroke-width:0.264583;stroke-linecap:round;stroke-linejoin:round;stroke-dasharray:none;-inkscape-stroke:hairline" />
        <path
           d="m 385.3,359 h -2.9 c -0.1,0 0,0.1 0,0 v -2.8 c 0,-0.1 -0.1,0 0,0 h 5.8 c 0.1,0 0,-0.1 0,0 v 2.8 c 0,0.1 0.1,0 0,0 z"
           stroke="#0000ff"
           stroke-width="0.2"
           id="path15"
           style="vector-effect:non-scaling-stroke;fill:none;stroke-width:0.264583;stroke-linecap:round;stroke-linejoin:round;stroke-dasharray:none;-inkscape-stroke:hairline" />
        <path
           d="m 397.3,359 h -2.9 c -0.1,0 0,0.1 0,0 v -2.8 c 0,-0.1 -0.1,0 0,0 h 5.8 c 0.1,0 0,-0.1 0,0 v 2.8 c 0,0.1 0.1,0 0,0 z"
           stroke="#0000ff"
           stroke-width="0.2"
           id="path16"
           style="vector-effect:non-scaling-stroke;fill:none;stroke-width:0.264583;stroke-linecap:round;stroke-linejoin:round;stroke-dasharray:none;-inkscape-stroke:hairline" />
        <path
           d="m 409.3,359 h -2.9 c -0.1,0 0,0.1 0,0 v -2.8 c 0,-0.1 -0.1,0 0,0 h 5.8 c 0.1,0 0,-0.1 0,0 v 2.8 c 0,0.1 0.1,0 0,0 z"
           stroke="#0000ff"
           stroke-width="0.2"
           id="path17"
           style="vector-effect:non-scaling-stroke;fill:none;stroke-width:0.264583;stroke-linecap:round;stroke-linejoin:round;stroke-dasharray:none;-inkscape-stroke:hairline" />
        <path
           d="m 421.3,359 h -2.9 c -0.1,0 0,0.1 0,0 v -2.8 c 0,-0.1 -0.1,0 0,0 h 5.8 c 0.1,0 0,-0.1 0,0 v 2.8 c 0,0.1 0.1,0 0,0 z"
           stroke="#0000ff"
           stroke-width="0.2"
           id="path18"
           style="vector-effect:non-scaling-stroke;fill:none;stroke-width:0.264583;stroke-linecap:round;stroke-linejoin:round;stroke-dasharray:none;-inkscape-stroke:hairline" />
        <path
           d="m 433.3,359 h -2.9 c -0.1,0 0,0.1 0,0 v -2.8 c 0,-0.1 -0.1,0 0,0 h 5.8 c 0.1,0 0,-0.1 0,0 v 2.8 c 0,0.1 0.1,0 0,0 z"
           stroke="#0000ff"
           stroke-width="0.2"
           id="path19"
           style="vector-effect:non-scaling-stroke;fill:none;stroke-width:0.264583;stroke-linecap:round;stroke-linejoin:round;stroke-dasharray:none;-inkscape-stroke:hairline" />
        <path
           d="m 445.3,359 h -2.9 c -0.1,0 0,0.1 0,0 v -2.8 c 0,-0.1 -0.1,0 0,0 h 5.8 c 0.1,0 0,-0.1 0,0 v 2.8 c 0,0.1 0.1,0 0,0 z"
           stroke="#0000ff"
           stroke-width="0.2"
           id="path20"
           style="vector-effect:non-scaling-stroke;fill:none;stroke-width:0.264583;stroke-linecap:round;stroke-linejoin:round;stroke-dasharray:none;-inkscape-stroke:hairline" />
        <path
           d="m 457.3,359 h -2.9 c -0.1,0 0,0.1 0,0 v -2.8 c 0,-0.1 -0.1,0 0,0 h 5.8 c 0.1,0 0,-0.1 0,0 v 2.8 c 0,0.1 0.1,0 0,0 z"
           stroke="#0000ff"
           stroke-width="0.2"
           id="path21"
           style="vector-effect:non-scaling-stroke;fill:none;stroke-width:0.264583;stroke-linecap:round;stroke-linejoin:round;stroke-dasharray:none;-inkscape-stroke:hairline" />
        <path
           d="m 469.3,359 h -2.9 c -0.1,0 0,0.1 0,0 v -2.8 c 0,-0.1 -0.1,0 0,0 h 5.8 c 0.1,0 0,-0.1 0,0 v 2.8 c 0,0.1 0.1,0 0,0 z"
           stroke="#0000ff"
           stroke-width="0.2"
           id="path22"
           style="vector-effect:non-scaling-stroke;fill:none;stroke-width:0.264583;stroke-linecap:round;stroke-linejoin:round;stroke-dasharray:none;-inkscape-stroke:hairline" />
        <path
           d="m 481.3,359 h -2.9 c -0.1,0 0,0.1 0,0 v -2.8 c 0,-0.1 -0.1,0 0,0 h 5.8 c 0.1,0 0,-0.1 0,0 v 2.8 c 0,0.1 0.1,0 0,0 z"
           stroke="#0000ff"
           stroke-width="0.2"
           id="path23"
           style="vector-effect:non-scaling-stroke;fill:none;stroke-width:0.264583;stroke-linecap:round;stroke-linejoin:round;stroke-dasharray:none;-inkscape-stroke:hairline" />
        <path
           d="m 493.3,359 h -2.9 c -0.1,0 0,0.1 0,0 v -2.8 c 0,-0.1 -0.1,0 0,0 h 5.8 c 0.1,0 0,-0.1 0,0 v 2.8 c 0,0.1 0.1,0 0,0 z"
           stroke="#0000ff"
           stroke-width="0.2"
           id="path24"
           style="vector-effect:non-scaling-stroke;fill:none;stroke-width:0.264583;stroke-linecap:round;stroke-linejoin:round;stroke-dasharray:none;-inkscape-stroke:hairline" />
        <path
           d="m 505.3,359 h -2.9 c -0.1,0 0,0.1 0,0 v -2.8 c 0,-0.1 -0.1,0 0,0 h 5.8 c 0.1,0 0,-0.1 0,0 v 2.8 c 0,0.1 0.1,0 0,0 z"
           stroke="#0000ff"
           stroke-width="0.2"
           id="path25"
           style="vector-effect:non-scaling-stroke;fill:none;stroke-width:0.264583;stroke-linecap:round;stroke-linejoin:round;stroke-dasharray:none;-inkscape-stroke:hairline" />
      </g>
      <path
         d="m 0.09954,479.8 h 244 12 c 0.055,0 0.1,-0.045 0.1,-0.1 v -12 -334 -12 c 0,-0.055 -0.045,-0.1 -0.1,-0.1 h -12 -244 -12 c -0.055,0 -0.1,0.045 -0.1,0.1 v 12 334 12 c 0,0.055 0.045,0.1 0.1,0.1 z"
         stroke="#000000"
         stroke-width="0.2"
         id="path26"
         style="vector-effect:non-scaling-stroke;fill:none;stroke:#000000;stroke-width:0.264583;stroke-linecap:round;stroke-linejoin:round;stroke-dasharray:none;-inkscape-stroke:hairline" />
      <g
         id="g99"
         transform="translate(-275.20045,111.6)"
         style="vector-effect:non-scaling-stroke;stroke-width:0.264583;stroke-dasharray:none;-inkscape-stroke:hairline">
        <path
           d="m 272.4,33.1 v -2.9 c 0,-0.1 -0.1,0 0,0 h 2.8 c 0.1,0 0,-0.1 0,0 V 36 c 0,0.1 0.1,0 0,0 h -2.8 c -0.1,0 0,0.1 0,0 z"
           stroke="#0000ff"
           stroke-width="0.2"
           id="path73"
           style="vector-effect:non-scaling-stroke;fill:none;stroke-width:0.264583;stroke-linecap:round;stroke-linejoin:round;stroke-dasharray:none;-inkscape-stroke:hairline" />
        <path
           d="m 272.4,45.1 v -2.9 c 0,-0.1 -0.1,0 0,0 h 2.8 c 0.1,0 0,-0.1 0,0 V 48 c 0,0.1 0.1,0 0,0 h -2.8 c -0.1,0 0,0.1 0,0 z"
           stroke="#0000ff"
           stroke-width="0.2"
           id="path74"
           style="vector-effect:non-scaling-stroke;fill:none;stroke-width:0.264583;stroke-linecap:round;stroke-linejoin:round;stroke-dasharray:none;-inkscape-stroke:hairline" />
        <path
           d="m 272.4,57.1 v -2.9 c 0,-0.1 -0.1,0 0,0 h 2.8 c 0.1,0 0,-0.1 0,0 V 60 c 0,0.1 0.1,0 0,0 h -2.8 c -0.1,0 0,0.1 0,0 z"
           stroke="#0000ff"
           stroke-width="0.2"
           id="path75"
           style="vector-effect:non-scaling-stroke;fill:none;stroke-width:0.264583;stroke-linecap:round;stroke-linejoin:round;stroke-dasharray:none;-inkscape-stroke:hairline" />
        <path
           d="m 272.4,69.1 v -2.9 c 0,-0.1 -0.1,0 0,0 h 2.8 c 0.1,0 0,-0.1 0,0 V 72 c 0,0.1 0.1,0 0,0 h -2.8 c -0.1,0 0,0.1 0,0 z"
           stroke="#0000ff"
           stroke-width="0.2"
           id="path76"
           style="vector-effect:non-scaling-stroke;fill:none;stroke-width:0.264583;stroke-linecap:round;stroke-linejoin:round;stroke-dasharray:none;-inkscape-stroke:hairline" />
        <path
           d="m 272.4,81.1 v -2.9 c 0,-0.1 -0.1,0 0,0 h 2.8 c 0.1,0 0,-0.1 0,0 V 84 c 0,0.1 0.1,0 0,0 h -2.8 c -0.1,0 0,0.1 0,0 z"
           stroke="#0000ff"
           stroke-width="0.2"
           id="path77"
           style="vector-effect:non-scaling-stroke;fill:none;stroke-width:0.264583;stroke-linecap:round;stroke-linejoin:round;stroke-dasharray:none;-inkscape-stroke:hairline" />
        <path
           d="m 272.4,93.1 v -2.9 c 0,-0.1 -0.1,0 0,0 h 2.8 c 0.1,0 0,-0.1 0,0 V 96 c 0,0.1 0.1,0 0,0 h -2.8 c -0.1,0 0,0.1 0,0 z"
           stroke="#0000ff"
           stroke-width="0.2"
           id="path78"
           style="vector-effect:non-scaling-stroke;fill:none;stroke-width:0.264583;stroke-linecap:round;stroke-linejoin:round;stroke-dasharray:none;-inkscape-stroke:hairline" />
        <path
           d="m 272.4,105.1 v -2.9 c 0,-0.1 -0.1,0 0,0 h 2.8 c 0.1,0 0,-0.1 0,0 v 5.8 c 0,0.1 0.1,0 0,0 h -2.8 c -0.1,0 0,0.1 0,0 z"
           stroke="#0000ff"
           stroke-width="0.2"
           id="path79"
           style="vector-effect:non-scaling-stroke;fill:none;stroke-width:0.264583;stroke-linecap:round;stroke-linejoin:round;stroke-dasharray:none;-inkscape-stroke:hairline" />
        <path
           d="m 272.4,117.1 v -2.9 c 0,-0.1 -0.1,0 0,0 h 2.8 c 0.1,0 0,-0.1 0,0 v 5.8 c 0,0.1 0.1,0 0,0 h -2.8 c -0.1,0 0,0.1 0,0 z"
           stroke="#0000ff"
           stroke-width="0.2"
           id="path80"
           style="vector-effect:non-scaling-stroke;fill:none;stroke-width:0.264583;stroke-linecap:round;stroke-linejoin:round;stroke-dasharray:none;-inkscape-stroke:hairline" />
        <path
           d="m 272.4,129.1 v -2.9 c 0,-0.1 -0.1,0 0,0 h 2.8 c 0.1,0 0,-0.1 0,0 v 5.8 c 0,0.1 0.1,0 0,0 h -2.8 c -0.1,0 0,0.1 0,0 z"
           stroke="#0000ff"
           stroke-width="0.2"
           id="path81"
           style="vector-effect:non-scaling-stroke;fill:none;stroke-width:0.264583;stroke-linecap:round;stroke-linejoin:round;stroke-dasharray:none;-inkscape-stroke:hairline" />
        <path
           d="m 272.4,141.1 v -2.9 c 0,-0.1 -0.1,0 0,0 h 2.8 c 0.1,0 0,-0.1 0,0 v 5.8 c 0,0.1 0.1,0 0,0 h -2.8 c -0.1,0 0,0.1 0,0 z"
           stroke="#0000ff"
           stroke-width="0.2"
           id="path82"
           style="vector-effect:non-scaling-stroke;fill:none;stroke-width:0.264583;stroke-linecap:round;stroke-linejoin:round;stroke-dasharray:none;-inkscape-stroke:hairline" />
        <path
           d="m 272.4,153.1 v -2.9 c 0,-0.1 -0.1,0 0,0 h 2.8 c 0.1,0 0,-0.1 0,0 v 5.8 c 0,0.1 0.1,0 0,0 h -2.8 c -0.1,0 0,0.1 0,0 z"
           stroke="#0000ff"
           stroke-width="0.2"
           id="path83"
           style="vector-effect:non-scaling-stroke;fill:none;stroke-width:0.264583;stroke-linecap:round;stroke-linejoin:round;stroke-dasharray:none;-inkscape-stroke:hairline" />
        <path
           d="m 272.4,165.1 v -2.9 c 0,-0.1 -0.1,0 0,0 h 2.8 c 0.1,0 0,-0.1 0,0 v 5.8 c 0,0.1 0.1,0 0,0 h -2.8 c -0.1,0 0,0.1 0,0 z"
           stroke="#0000ff"
           stroke-width="0.2"
           id="path84"
           style="vector-effect:non-scaling-stroke;fill:none;stroke-width:0.264583;stroke-linecap:round;stroke-linejoin:round;stroke-dasharray:none;-inkscape-stroke:hairline" />
        <path
           d="m 272.4,177.1 v -2.9 c 0,-0.1 -0.1,0 0,0 h 2.8 c 0.1,0 0,-0.1 0,0 v 5.8 c 0,0.1 0.1,0 0,0 h -2.8 c -0.1,0 0,0.1 0,0 z"
           stroke="#0000ff"
           stroke-width="0.2"
           id="path85"
           style="vector-effect:non-scaling-stroke;fill:none;stroke-width:0.264583;stroke-linecap:round;stroke-linejoin:round;stroke-dasharray:none;-inkscape-stroke:hairline" />
        <path
           d="m 272.4,189.1 v -2.9 c 0,-0.1 -0.1,0 0,0 h 2.8 c 0.1,0 0,-0.1 0,0 v 5.8 c 0,0.1 0.1,0 0,0 h -2.8 c -0.1,0 0,0.1 0,0 z"
           stroke="#0000ff"
           stroke-width="0.2"
           id="path86"
           style="vector-effect:non-scaling-stroke;fill:none;stroke-width:0.264583;stroke-linecap:round;stroke-linejoin:round;stroke-dasharray:none;-inkscape-stroke:hairline" />
        <path
           d="m 272.4,201.1 v -2.9 c 0,-0.1 -0.1,0 0,0 h 2.8 c 0.1,0 0,-0.1 0,0 v 5.8 c 0,0.1 0.1,0 0,0 h -2.8 c -0.1,0 0,0.1 0,0 z"
           stroke="#0000ff"
           stroke-width="0.2"
           id="path87"
           style="vector-effect:non-scaling-stroke;fill:none;stroke-width:0.264583;stroke-linecap:round;stroke-linejoin:round;stroke-dasharray:none;-inkscape-stroke:hairline" />
        <path
           d="m 272.4,213.1 v -2.9 c 0,-0.1 -0.1,0 0,0 h 2.8 c 0.1,0 0,-0.1 0,0 v 5.8 c 0,0.1 0.1,0 0,0 h -2.8 c -0.1,0 0,0.1 0,0 z"
           stroke="#0000ff"
           stroke-width="0.2"
           id="path88"
           style="vector-effect:non-scaling-stroke;fill:none;stroke-width:0.264583;stroke-linecap:round;stroke-linejoin:round;stroke-dasharray:none;-inkscape-stroke:hairline" />
        <path
           d="m 272.4,225.1 v -2.9 c 0,-0.1 -0.1,0 0,0 h 2.8 c 0.1,0 0,-0.1 0,0 v 5.8 c 0,0.1 0.1,0 0,0 h -2.8 c -0.1,0 0,0.1 0,0 z"
           stroke="#0000ff"
           stroke-width="0.2"
           id="path89"
           style="vector-effect:non-scaling-stroke;fill:none;stroke-width:0.264583;stroke-linecap:round;stroke-linejoin:round;stroke-dasharray:none;-inkscape-stroke:hairline" />
        <path
           d="m 272.4,237.1 v -2.9 c 0,-0.1 -0.1,0 0,0 h 2.8 c 0.1,0 0,-0.1 0,0 v 5.8 c 0,0.1 0.1,0 0,0 h -2.8 c -0.1,0 0,0.1 0,0 z"
           stroke="#0000ff"
           stroke-width="0.2"
           id="path90"
           style="vector-effect:non-scaling-stroke;fill:none;stroke-width:0.264583;stroke-linecap:round;stroke-linejoin:round;stroke-dasharray:none;-inkscape-stroke:hairline" />
        <path
           d="m 272.4,249.1 v -2.9 c 0,-0.1 -0.1,0 0,0 h 2.8 c 0.1,0 0,-0.1 0,0 v 5.8 c 0,0.1 0.1,0 0,0 h -2.8 c -0.1,0 0,0.1 0,0 z"
           stroke="#0000ff"
           stroke-width="0.2"
           id="path91"
           style="vector-effect:non-scaling-stroke;fill:none;stroke-width:0.264583;stroke-linecap:round;stroke-linejoin:round;stroke-dasharray:none;-inkscape-stroke:hairline" />
        <path
           d="m 272.4,261.1 v -2.9 c 0,-0.1 -0.1,0 0,0 h 2.8 c 0.1,0 0,-0.1 0,0 v 5.8 c 0,0.1 0.1,0 0,0 h -2.8 c -0.1,0 0,0.1 0,0 z"
           stroke="#0000ff"
           stroke-width="0.2"
           id="path92"
           style="vector-effect:non-scaling-stroke;fill:none;stroke-width:0.264583;stroke-linecap:round;stroke-linejoin:round;stroke-dasharray:none;-inkscape-stroke:hairline" />
        <path
           d="m 272.4,273.1 v -2.9 c 0,-0.1 -0.1,0 0,0 h 2.8 c 0.1,0 0,-0.1 0,0 v 5.8 c 0,0.1 0.1,0 0,0 h -2.8 c -0.1,0 0,0.1 0,0 z"
           stroke="#0000ff"
           stroke-width="0.2"
           id="path93"
           style="vector-effect:non-scaling-stroke;fill:none;stroke-width:0.264583;stroke-linecap:round;stroke-linejoin:round;stroke-dasharray:none;-inkscape-stroke:hairline" />
        <path
           d="m 272.4,285.1 v -2.9 c 0,-0.1 -0.1,0 0,0 h 2.8 c 0.1,0 0,-0.1 0,0 v 5.8 c 0,0.1 0.1,0 0,0 h -2.8 c -0.1,0 0,0.1 0,0 z"
           stroke="#0000ff"
           stroke-width="0.2"
           id="path94"
           style="vector-effect:non-scaling-stroke;fill:none;stroke-width:0.264583;stroke-linecap:round;stroke-linejoin:round;stroke-dasharray:none;-inkscape-stroke:hairline" />
        <path
           d="m 272.4,297.1 v -2.9 c 0,-0.1 -0.1,0 0,0 h 2.8 c 0.1,0 0,-0.1 0,0 v 5.8 c 0,0.1 0.1,0 0,0 h -2.8 c -0.1,0 0,0.1 0,0 z"
           stroke="#0000ff"
           stroke-width="0.2"
           id="path95"
           style="vector-effect:non-scaling-stroke;fill:none;stroke-width:0.264583;stroke-linecap:round;stroke-linejoin:round;stroke-dasharray:none;-inkscape-stroke:hairline" />
        <path
           d="m 272.4,309.1 v -2.9 c 0,-0.1 -0.1,0 0,0 h 2.8 c 0.1,0 0,-0.1 0,0 v 5.8 c 0,0.1 0.1,0 0,0 h -2.8 c -0.1,0 0,0.1 0,0 z"
           stroke="#0000ff"
           stroke-width="0.2"
           id="path96"
           style="vector-effect:non-scaling-stroke;fill:none;stroke-width:0.264583;stroke-linecap:round;stroke-linejoin:round;stroke-dasharray:none;-inkscape-stroke:hairline" />
        <path
           d="m 272.4,321.1 v -2.9 c 0,-0.1 -0.1,0 0,0 h 2.8 c 0.1,0 0,-0.1 0,0 v 5.8 c 0,0.1 0.1,0 0,0 h -2.8 c -0.1,0 0,0.1 0,0 z"
           stroke="#0000ff"
           stroke-width="0.2"
           id="path97"
           style="vector-effect:non-scaling-stroke;fill:none;stroke-width:0.264583;stroke-linecap:round;stroke-linejoin:round;stroke-dasharray:none;-inkscape-stroke:hairline" />
        <path
           d="m 272.4,333.1 v -2.9 c 0,-0.1 -0.1,0 0,0 h 2.8 c 0.1,0 0,-0.1 0,0 v 5.8 c 0,0.1 0.1,0 0,0 h -2.8 c -0.1,0 0,0.1 0,0 z"
           stroke="#0000ff"
           stroke-width="0.2"
           id="path98"
           style="vector-effect:non-scaling-stroke;fill:none;stroke-width:0.264583;stroke-linecap:round;stroke-linejoin:round;stroke-dasharray:none;-inkscape-stroke:hairline" />
        <path
           d="m 272.4,345.1 v -2.9 c 0,-0.1 -0.1,0 0,0 h 2.8 c 0.1,0 0,-0.1 0,0 v 5.8 c 0,0.1 0.1,0 0,0 h -2.8 c -0.1,0 0,0.1 0,0 z"
           stroke="#0000ff"
           stroke-width="0.2"
           id="path99"
           style="vector-effect:non-scaling-stroke;fill:none;stroke-width:0.264583;stroke-linecap:round;stroke-linejoin:round;stroke-dasharray:none;-inkscape-stroke:hairline" />
      </g>
    </g>
  </g>
  <g
     inkscape:groupmode="layer"
     id="layer3"
     inkscape:label="Cut Boards - V"
     style="display:inline" />
  <g
     inkscape:groupmode="layer"
     id="g41"
     inkscape:label="Cut Boards - H"
     style="display:inline" />
  <g
     inkscape:groupmode="layer"
     id="g48"
     inkscape:label="Cut Boards - Single"
     style="display:inline" />
</svg>
