<?xml version="1.0" encoding="UTF-8" standalone="no"?>
<!-- Created with Inkscape (http://www.inkscape.org/) -->

<svg
   width="210mm"
   height="297mm"
   viewBox="0 0 210 297"
   version="1.1"
   id="svg1"
   xml:space="preserve"
   inkscape:version="1.4.2 (ebf0e94, 2025-05-08)"
   sodipodi:docname="Monster Stencil_path.svg"
   xmlns:inkscape="http://www.inkscape.org/namespaces/inkscape"
   xmlns:sodipodi="http://sodipodi.sourceforge.net/DTD/sodipodi-0.dtd"
   xmlns="http://www.w3.org/2000/svg"
   xmlns:svg="http://www.w3.org/2000/svg"><sodipodi:namedview
     id="namedview1"
     pagecolor="#ffffff"
     bordercolor="#000000"
     borderopacity="0.25"
     inkscape:showpageshadow="2"
     inkscape:pageopacity="0.0"
     inkscape:pagecheckerboard="0"
     inkscape:deskcolor="#d1d1d1"
     inkscape:document-units="mm"
     inkscape:zoom="0.50835205"
     inkscape:cx="74.751346"
     inkscape:cy="475.06448"
     inkscape:window-width="1920"
     inkscape:window-height="1009"
     inkscape:window-x="-8"
     inkscape:window-y="-8"
     inkscape:window-maximized="1"
     inkscape:current-layer="layer2" /><defs
     id="defs1" /><g
     inkscape:label="Images"
     inkscape:groupmode="layer"
     id="layer1" /><g
     inkscape:groupmode="layer"
     id="layer2"
     inkscape:label="Layer 2"><path
       id="rect1"
       style="vector-effect:non-scaling-stroke;fill:none;stroke:#ff0000;stroke-width:0.264583;stroke-linecap:round;stroke-linejoin:round;-inkscape-stroke:hairline"
       inkscape:label="Border"
       d="m 5,0 h 120 c 2.77,0 5,2.23 5,5 v 185 c 0,2.77 -2.23,5 -5,5 H 5 c -2.77,0 -5,-2.23 -5,-5 V 5 C 0,2.23 2.23,0 5,0 Z" /><path
       id="path1"
       style="vector-effect:non-scaling-stroke;fill:none;stroke:#ff0000;stroke-width:0.294433;stroke-linecap:round;stroke-linejoin:round;-inkscape-stroke:hairline"
       d="m 120.61727,18.913984 a 8,8 0 0 1 -8,8 8,8 0 0 1 -8,-8 8,8 0 0 1 8,-8 8,8 0 0 1 8,8 z" /><path
       id="circle1"
       style="vector-effect:non-scaling-stroke;fill:none;stroke:#ff0000;stroke-width:0.294433;stroke-linecap:round;stroke-linejoin:round;-inkscape-stroke:hairline"
       d="m 25.871454,123.46333 a 8,8 0 0 1 -8,8 8,8 0 0 1 -7.9999998,-8 8,8 0 0 1 7.9999998,-8 8,8 0 0 1 8,8 z" /><path
       id="circle2"
       style="vector-effect:non-scaling-stroke;fill:none;stroke:#ff0000;stroke-width:0.294433;stroke-linecap:round;stroke-linejoin:round;-inkscape-stroke:hairline"
       d="m 45.871452,123.46333 a 8,8 0 0 1 -8,8 8,8 0 0 1 -8,-8 8,8 0 0 1 8,-8 8,8 0 0 1 8,8 z" /><path
       id="circle3"
       style="vector-effect:non-scaling-stroke;fill:none;stroke:#ff0000;stroke-width:0.294433;stroke-linecap:round;stroke-linejoin:round;-inkscape-stroke:hairline"
       d="m 69.871452,121.19862 a 8,8 0 0 1 -8,8 8,8 0 0 1 -8,-8 8,8 0 0 1 8,-8 8,8 0 0 1 8,8 z" /><path
       id="circle4"
       style="vector-effect:non-scaling-stroke;fill:none;stroke:#ff0000;stroke-width:0.294433;stroke-linecap:round;stroke-linejoin:round;-inkscape-stroke:hairline"
       d="m 88.871452,121.58898 a 8,8 0 0 1 -8,8 8,8 0 0 1 -8,-8 8,8 0 0 1 8,-8 8,8 0 0 1 8,8 z" /><path
       id="circle6"
       style="vector-effect:non-scaling-stroke;fill:none;stroke:#ff0000;stroke-width:0.294433;stroke-linecap:round;stroke-linejoin:round;-inkscape-stroke:hairline"
       d="m 106.1244,125.4443 a 8,8 0 0 1 -7.999995,8 8,8 0 0 1 -8,-8 8,8 0 0 1 8,-8 8,8 0 0 1 7.999995,8 z" /><g
       id="g167"><path
         id="circle24"
         style="vector-effect:non-scaling-stroke;fill:none;stroke:#ff0000;stroke-width:0.276031;stroke-linecap:round;stroke-linejoin:round;-inkscape-stroke:hairline"
         d="m 25.624405,225.44431 a 7.5,7.5 0 0 1 -7.5,7.5 7.5,7.5 0 0 1 -7.5,-7.5 7.5,7.5 0 0 1 7.5,-7.5 7.5,7.5 0 0 1 7.5,7.5 z" /><g
         id="g59"
         transform="translate(-0.46751452,0.31254649)"><path
           style="font-weight:bold;font-size:15.2025px;line-height:0px;font-family:'Rockwell Condensed';-inkscape-font-specification:'Rockwell Condensed,  Bold';fill:#008000;stroke-width:0.285047;stroke-linecap:round;stroke-linejoin:round"
           d="m 13.652108,231.28957 v -1.59597 h 0.853656 v -6.59913 q -0.371155,0.15588 -0.853656,0.23011 v -1.55142 q 1.24708,-0.25239 2.20466,-1.27678 h 0.868502 v 9.19722 h 0.831387 v 1.59597 z"
           id="text25"
           transform="scale(1.0033812,0.99663019)"
           aria-label="1" /><path
           d="m 18.670179,225.05926 h 2.259753 v -2.2648 h 1.089524 v 2.2648 h 2.259753 v 1.08448 h -2.259753 v 2.25975 h -1.089524 v -2.25975 h -2.259753 z"
           id="text26"
           style="font-weight:bold;font-size:10.3303px;line-height:0px;font-family:'Rockwell Condensed';-inkscape-font-specification:'Rockwell Condensed,  Bold';fill:#008000;stroke-width:0.242117;stroke-linecap:round;stroke-linejoin:round"
           aria-label="+" /></g></g><g
       id="g168"><path
         id="circle26"
         style="vector-effect:non-scaling-stroke;fill:none;stroke:#ff0000;stroke-width:0.276031;stroke-linecap:round;stroke-linejoin:round;-inkscape-stroke:hairline"
         d="m 45.624405,225.44431 a 7.5,7.5 0 0 1 -7.5,7.5 7.5,7.5 0 0 1 -7.5,-7.5 7.5,7.5 0 0 1 7.5,-7.5 7.5,7.5 0 0 1 7.5,7.5 z" /><g
         id="g58"
         transform="translate(0.31546387,0.31254649)"><path
           style="font-weight:bold;font-size:15.2025px;line-height:0px;font-family:'Rockwell Condensed';-inkscape-font-specification:'Rockwell Condensed,  Bold';fill:#008000;stroke-width:0.285047;stroke-linecap:round;stroke-linejoin:round"
           d="m 38.194453,231.28957 h -5.507937 q 0,-1.32874 0.252385,-2.22693 0.252385,-0.90562 0.62354,-1.49947 0.378578,-0.59385 0.987272,-1.32131 0.682924,-0.81654 1.002118,-1.43266 0.326616,-0.62354 0.326616,-1.544 0,-1.21739 -0.668079,-1.21739 -0.727463,0 -0.727463,1.29162 0,0.37858 0.04454,0.72746 l -1.855774,-0.10392 q -0.01485,-0.0817 -0.01485,-0.51962 0,-1.34358 0.727464,-2.14527 0.734886,-0.8017 1.96712,-0.8017 1.24708,0 2.019082,0.79428 0.772002,0.78684 0.772002,2.09331 0,0.82396 -0.282078,1.46977 -0.274654,0.64581 -0.675501,1.11347 -0.393424,0.46023 -1.05408,1.07635 -0.846233,0.79427 -1.261926,1.38069 -0.408271,0.58643 -0.415694,1.38812 h 2.145275 v -1.62566 h 1.595966 z"
           id="text27"
           transform="scale(1.0033812,0.99663019)"
           aria-label="2" /><path
           d="m 38.670179,225.05926 h 2.259753 v -2.2648 h 1.089524 v 2.2648 h 2.259753 v 1.08448 h -2.259753 v 2.25975 h -1.089524 v -2.25975 h -2.259753 z"
           id="text28"
           style="font-weight:bold;font-size:10.3303px;line-height:0px;font-family:'Rockwell Condensed';-inkscape-font-specification:'Rockwell Condensed,  Bold';fill:#008000;stroke-width:0.242117;stroke-linecap:round;stroke-linejoin:round"
           aria-label="+" /></g></g><g
       id="g169"><path
         id="circle28"
         style="vector-effect:non-scaling-stroke;fill:none;stroke:#ff0000;stroke-width:0.276031;stroke-linecap:round;stroke-linejoin:round;-inkscape-stroke:hairline"
         d="m 65.624405,225.44431 a 7.5,7.5 0 0 1 -7.5,7.5 7.5,7.5 0 0 1 -7.5,-7.5 7.5,7.5 0 0 1 7.5,-7.5 7.5,7.5 0 0 1 7.5,7.5 z" /><g
         id="g57"
         transform="translate(-0.10375459,0.2052743)"><path
           style="font-weight:bold;font-size:15.2025px;line-height:0px;font-family:'Rockwell Condensed';-inkscape-font-specification:'Rockwell Condensed,  Bold';fill:#008000;stroke-width:0.285047;stroke-linecap:round;stroke-linejoin:round"
           d="m 52.633964,228.2164 1.87062,-0.1633 q 0,0.92788 0.04454,1.26192 0.04454,0.32662 0.200424,0.5122 0.163308,0.18557 0.437963,0.18557 0.423116,0 0.579001,-0.40827 0.155885,-0.40827 0.155885,-1.47719 0,-0.68293 -0.111346,-1.06151 -0.103924,-0.37857 -0.319193,-0.51219 -0.207847,-0.14104 -0.638387,-0.14104 v -1.59596 q 0.386001,0 0.541886,-0.0445 0.163308,-0.052 0.274655,-0.20785 0.118769,-0.15588 0.170731,-0.43054 0.05196,-0.28208 0.05196,-0.72004 0,-0.76458 -0.163308,-1.09119 -0.155885,-0.33404 -0.52704,-0.33404 -0.40827,0 -0.549309,0.40084 -0.141039,0.39343 -0.148462,1.23966 l -1.744428,-0.20042 q 0.155885,-2.93213 2.61293,-2.93213 1.224811,0 1.944851,0.72004 0.727464,0.72005 0.727464,2.12301 0,0.85366 -0.296924,1.37327 -0.296924,0.51962 -0.950157,0.86108 1.388119,0.78685 1.388119,2.76882 0,1.4475 -0.749732,2.30858 -0.74231,0.85366 -2.004236,0.85366 -1.373273,0 -2.08589,-0.74974 -0.712617,-0.75715 -0.712617,-2.5387 z"
           id="text29"
           transform="scale(1.0033812,0.99663019)"
           aria-label="3" /><path
           d="m 58.670179,225.05926 h 2.259753 v -2.2648 h 1.089524 v 2.2648 h 2.259753 v 1.08448 h -2.259753 v 2.25975 h -1.089524 v -2.25975 h -2.259753 z"
           id="text30"
           style="font-weight:bold;font-size:10.3303px;line-height:0px;font-family:'Rockwell Condensed';-inkscape-font-specification:'Rockwell Condensed,  Bold';fill:#008000;stroke-width:0.242117;stroke-linecap:round;stroke-linejoin:round"
           aria-label="+" /></g></g><g
       id="g172"><path
         id="circle30"
         style="vector-effect:non-scaling-stroke;fill:none;stroke:#ff0000;stroke-width:0.276031;stroke-linecap:round;stroke-linejoin:round;-inkscape-stroke:hairline"
         d="m 85.624405,225.44431 a 7.5,7.5 0 0 1 -7.5,7.5 7.5,7.5 0 0 1 -7.5,-7.5 7.5,7.5 0 0 1 7.5,-7.5 7.5,7.5 0 0 1 7.5,7.5 z" /><g
         id="g56"
         transform="translate(-0.23269624,0.31254649)"><path
           style="font-weight:bold;font-size:15.2025px;line-height:0px;font-family:'Rockwell Condensed';-inkscape-font-specification:'Rockwell Condensed,  Bold';fill:#008000;stroke-width:0.285047;stroke-linecap:round;stroke-linejoin:round"
           d="m 74.741533,231.28957 v -1.59597 h 0.764579 v -1.4475 h -2.679738 q -0.06681,-0.55674 -0.319193,-1.18028 l 3.102854,-6.56944 h 1.885466 v 6.4581 h 0.62354 v 1.29162 h -0.62354 v 1.4475 h 0.62354 v 1.59597 z m 0.764579,-4.33509 q 0,-2.54612 0.148461,-3.71897 H 75.45415 q -0.556732,1.90031 -1.469773,3.71897 z"
           id="text32"
           transform="scale(1.0033812,0.99663019)"
           aria-label="4" /><path
           d="m 78.670179,225.05926 h 2.259753 v -2.2648 h 1.089524 v 2.2648 h 2.259753 v 1.08448 h -2.259753 v 2.25975 h -1.089524 v -2.25975 h -2.259753 z"
           id="text33"
           style="font-weight:bold;font-size:10.3303px;line-height:0px;font-family:'Rockwell Condensed';-inkscape-font-specification:'Rockwell Condensed,  Bold';fill:#008000;stroke-width:0.242117;stroke-linecap:round;stroke-linejoin:round"
           aria-label="+" /></g></g><g
       id="g171"><path
         id="circle33"
         style="vector-effect:non-scaling-stroke;fill:none;stroke:#ff0000;stroke-width:0.276031;stroke-linecap:round;stroke-linejoin:round;-inkscape-stroke:hairline"
         d="m 105.6244,225.44431 a 7.5,7.5 0 0 1 -7.499995,7.5 7.5,7.5 0 0 1 -7.5,-7.5 7.5,7.5 0 0 1 7.5,-7.5 7.5,7.5 0 0 1 7.499995,7.5 z" /><g
         id="g55"
         transform="translate(0.01703169,0.14608965)"><path
           style="font-weight:bold;font-size:15.2025px;line-height:0px;font-family:'Rockwell Condensed';-inkscape-font-specification:'Rockwell Condensed,  Bold';fill:#008000;stroke-width:0.285047;stroke-linecap:round;stroke-linejoin:round"
           d="m 92.469475,228.64694 1.811235,-0.21527 q 0.02227,0.79428 0.185578,1.18028 0.163308,0.386 0.52704,0.386 0.386001,0 0.541886,-0.44539 0.155885,-0.45281 0.155885,-1.78896 0,-1.13574 -0.133616,-1.50689 -0.133616,-0.37858 -0.549309,-0.37858 -0.601271,0 -0.668079,0.92789 l -1.477196,-0.82397 0.259809,-5.3669 h 4.320241 v 2.13043 H 96.05483 l -0.02969,-0.65323 h -1.484619 l -0.126193,2.70943 q 0.62354,-0.59385 1.417812,-0.59385 1.03181,0 1.573696,0.87593 0.549309,0.8685 0.549309,2.5387 0,3.88228 -2.872738,3.88228 -2.39766,0 -2.61293,-2.8579 z"
           id="text34"
           transform="scale(1.0033812,0.99663019)"
           aria-label="5" /><path
           d="m 98.670179,225.05926 h 2.259751 v -2.2648 h 1.08953 v 2.2648 h 2.25975 v 1.08448 h -2.25975 v 2.25975 h -1.08953 v -2.25975 h -2.259751 z"
           id="text35"
           style="font-weight:bold;font-size:10.3303px;line-height:0px;font-family:'Rockwell Condensed';-inkscape-font-specification:'Rockwell Condensed,  Bold';fill:#008000;stroke-width:0.242117;stroke-linecap:round;stroke-linejoin:round"
           aria-label="+" /></g></g><g
       id="g170"><path
         id="circle35"
         style="vector-effect:non-scaling-stroke;fill:none;stroke:#ff0000;stroke-width:0.276031;stroke-linecap:round;stroke-linejoin:round;-inkscape-stroke:hairline"
         d="m 125.6244,225.44431 a 7.5,7.5 0 0 1 -7.5,7.5 7.5,7.5 0 0 1 -7.5,-7.5 7.5,7.5 0 0 1 7.5,-7.5 7.5,7.5 0 0 1 7.5,7.5 z" /><g
         id="g54"
         transform="translate(-0.06117718,0.2052743)"><path
           style="font-weight:bold;font-size:15.2025px;line-height:0px;font-family:'Rockwell Condensed';-inkscape-font-specification:'Rockwell Condensed,  Bold';fill:#008000;stroke-width:0.285047;stroke-linecap:round;stroke-linejoin:round"
           d="m 117.87289,223.07962 -2.00423,0.15589 q -0.0149,-0.64581 -0.14104,-0.94274 -0.1262,-0.30434 -0.43797,-0.30434 -0.31919,0 -0.45281,0.33404 -0.12619,0.33404 -0.12619,1.15058 v 1.50688 q 0.47508,-0.36373 1.08377,-0.36373 1.06893,0 1.66278,0.85366 0.60127,0.85365 0.60127,2.39766 0,1.75927 -0.71262,2.70201 -0.70519,0.93531 -2.0265,0.93531 -1.26193,0 -1.8632,-0.73489 -0.59385,-0.74231 -0.74973,-1.92258 -0.14847,-1.18027 -0.14847,-3.19936 0,-2.94697 0.64581,-4.04558 0.65324,-1.10605 2.08589,-1.10605 1.0912,0 1.78897,0.68293 0.70519,0.68292 0.79427,1.90031 z m -3.16224,3.39236 v 2.29373 q 0,0.69777 0.11135,0.97985 0.11877,0.28208 0.46765,0.28208 0.34147,0 0.46766,-0.37116 0.12619,-0.37115 0.12619,-1.49946 0,-1.23223 -0.14104,-1.61824 -0.13361,-0.386 -0.4825,-0.386 -0.31919,0 -0.54931,0.3192 z"
           id="text36"
           transform="scale(1.0033812,0.99663019)"
           aria-label="6" /><path
           d="m 118.67018,225.05926 h 2.25975 v -2.2648 h 1.08953 v 2.2648 h 2.25975 v 1.08448 h -2.25975 v 2.25975 h -1.08953 v -2.25975 h -2.25975 z"
           id="text37"
           style="font-weight:bold;font-size:10.3303px;line-height:0px;font-family:'Rockwell Condensed';-inkscape-font-specification:'Rockwell Condensed,  Bold';fill:#008000;stroke-width:0.242117;stroke-linecap:round;stroke-linejoin:round"
           aria-label="+" /></g></g><path
       id="circle51"
       style="vector-effect:non-scaling-stroke;fill:none;stroke:#ff0000;stroke-width:0.294433;stroke-linecap:round;stroke-linejoin:round;-inkscape-stroke:hairline"
       d="m 57.871452,98.463333 a 8,8 0 0 1 -8,7.999997 8,8 0 0 1 -8,-7.999997 8,8 0 0 1 8,-8 8,8 0 0 1 8,8 z" /><g
       id="g139"><path
         id="circle82"
         style="vector-effect:non-scaling-stroke;fill:none;stroke:#ff0000;stroke-width:0.276031;stroke-linecap:round;stroke-linejoin:round;-inkscape-stroke:hairline"
         d="m 25.624405,285.44431 a 7.5,7.5 0 0 1 -7.5,7.5 7.5,7.5 0 0 1 -7.5,-7.5 7.5,7.5 0 0 1 7.5,-7.5 7.5,7.5 0 0 1 7.5,7.5 z" /><path
         style="font-weight:bold;font-size:15.2025px;line-height:0px;font-family:'Rockwell Condensed';-inkscape-font-specification:'Rockwell Condensed,  Bold';fill:#008000;stroke-width:0.285047;stroke-linecap:round;stroke-linejoin:round"
         d="m 16.111055,291.80603 v -1.59597 h 0.853656 v -6.59913 q -0.371154,0.15589 -0.853656,0.23012 v -1.55143 q 1.24708,-0.25238 2.20466,-1.27677 h 0.868502 v 9.19721 h 0.831387 v 1.59597 z"
         id="text83"
         transform="scale(1.0033812,0.99663019)"
         aria-label="1" /></g><g
       id="g140"><path
         id="circle83"
         style="vector-effect:non-scaling-stroke;fill:none;stroke:#ff0000;stroke-width:0.276031;stroke-linecap:round;stroke-linejoin:round;-inkscape-stroke:hairline"
         d="m 45.624405,285.44431 a 7.5,7.5 0 0 1 -7.5,7.5 7.5,7.5 0 0 1 -7.5,-7.5 7.5,7.5 0 0 1 7.5,-7.5 7.5,7.5 0 0 1 7.5,7.5 z" /><path
         style="font-weight:bold;font-size:15.2025px;line-height:0px;font-family:'Rockwell Condensed';-inkscape-font-specification:'Rockwell Condensed,  Bold';fill:#008000;stroke-width:0.285047;stroke-linecap:round;stroke-linejoin:round"
         d="m 40.764746,291.80603 h -5.507937 q 0,-1.32873 0.252385,-2.22693 0.252385,-0.90562 0.62354,-1.49946 0.378578,-0.59385 0.987272,-1.32131 0.682925,-0.81655 1.002118,-1.43266 0.326616,-0.62354 0.326616,-1.54401 0,-1.21738 -0.668078,-1.21738 -0.727464,0 -0.727464,1.29161 0,0.37858 0.04454,0.72747 l -1.855774,-0.10393 q -0.01485,-0.0816 -0.01485,-0.51961 0,-1.34358 0.727463,-2.14528 0.734886,-0.80169 1.96712,-0.80169 1.24708,0 2.019082,0.79427 0.772002,0.78685 0.772002,2.09331 0,0.82397 -0.282077,1.46978 -0.274655,0.64581 -0.675502,1.11346 -0.393424,0.46023 -1.05408,1.07635 -0.846233,0.79427 -1.261926,1.3807 -0.40827,0.58642 -0.415693,1.38811 h 2.145274 v -1.62565 h 1.595966 z"
         id="text84"
         transform="scale(1.0033812,0.99663019)"
         aria-label="2" /></g><g
       id="g141"><path
         id="circle84"
         style="vector-effect:non-scaling-stroke;fill:none;stroke:#ff0000;stroke-width:0.276031;stroke-linecap:round;stroke-linejoin:round;-inkscape-stroke:hairline"
         d="m 65.624405,285.44431 a 7.5,7.5 0 0 1 -7.5,7.5 7.5,7.5 0 0 1 -7.5,-7.5 7.5,7.5 0 0 1 7.5,-7.5 7.5,7.5 0 0 1 7.5,7.5 z" /><path
         style="font-weight:bold;font-size:15.2025px;line-height:0px;font-family:'Rockwell Condensed';-inkscape-font-specification:'Rockwell Condensed,  Bold';fill:#008000;stroke-width:0.285047;stroke-linecap:round;stroke-linejoin:round"
         d="m 55.152297,288.62523 1.87062,-0.16331 q 0,0.92789 0.04454,1.26193 0.04454,0.32662 0.200423,0.51219 0.163308,0.18558 0.437963,0.18558 0.423117,0 0.579002,-0.40827 0.155885,-0.40827 0.155885,-1.47719 0,-0.68293 -0.111347,-1.06151 -0.103923,-0.37857 -0.319193,-0.51219 -0.207847,-0.14104 -0.638386,-0.14104 v -1.59596 q 0.386001,0 0.541886,-0.0445 0.163308,-0.052 0.274654,-0.20785 0.11877,-0.15589 0.170731,-0.43054 0.05196,-0.28208 0.05196,-0.72004 0,-0.76458 -0.163308,-1.0912 -0.155885,-0.33403 -0.52704,-0.33403 -0.40827,0 -0.549309,0.40084 -0.141039,0.39343 -0.148462,1.23966 l -1.744427,-0.20042 q 0.155885,-2.93213 2.612929,-2.93213 1.224811,0 1.944852,0.72004 0.727463,0.72004 0.727463,2.12301 0,0.85366 -0.296924,1.37327 -0.296924,0.51962 -0.950156,0.86108 1.388119,0.78685 1.388119,2.76882 0,1.4475 -0.749733,2.30858 -0.742309,0.85365 -2.004236,0.85365 -1.373273,0 -2.08589,-0.74973 -0.712617,-0.75715 -0.712617,-2.5387 z"
         id="text85"
         transform="scale(1.0033812,0.99663019)"
         aria-label="3" /></g><g
       id="g142"><path
         id="circle85"
         style="vector-effect:non-scaling-stroke;fill:none;stroke:#ff0000;stroke-width:0.276031;stroke-linecap:round;stroke-linejoin:round;-inkscape-stroke:hairline"
         d="m 85.624405,285.44431 a 7.5,7.5 0 0 1 -7.5,7.5 7.5,7.5 0 0 1 -7.5,-7.5 7.5,7.5 0 0 1 7.5,-7.5 7.5,7.5 0 0 1 7.5,7.5 z" /><path
         style="font-weight:bold;font-size:15.2025px;line-height:0px;font-family:'Rockwell Condensed';-inkscape-font-specification:'Rockwell Condensed,  Bold';fill:#008000;stroke-width:0.285047;stroke-linecap:round;stroke-linejoin:round"
         d="m 76.890924,291.80603 v -1.59597 h 0.764579 v -1.4475 h -2.679738 q -0.06681,-0.55673 -0.319193,-1.18027 l 3.102854,-6.56944 h 1.885466 v 6.45809 h 0.62354 v 1.29162 h -0.62354 v 1.4475 h 0.62354 v 1.59597 z m 0.764579,-4.33509 q 0,-2.54612 0.148462,-3.71897 h -0.200424 q -0.556732,1.90031 -1.469773,3.71897 z"
         id="text87"
         transform="scale(1.0033812,0.99663019)"
         aria-label="4" /></g><g
       id="g143"><path
         id="circle87"
         style="vector-effect:non-scaling-stroke;fill:none;stroke:#ff0000;stroke-width:0.276031;stroke-linecap:round;stroke-linejoin:round;-inkscape-stroke:hairline"
         d="m 105.6244,285.44431 a 7.5,7.5 0 0 1 -7.499995,7.5 7.5,7.5 0 0 1 -7.5,-7.5 7.5,7.5 0 0 1 7.5,-7.5 7.5,7.5 0 0 1 7.499995,7.5 z" /><path
         style="font-weight:bold;font-size:15.2025px;line-height:0px;font-family:'Rockwell Condensed';-inkscape-font-specification:'Rockwell Condensed,  Bold';fill:#008000;stroke-width:0.285047;stroke-linecap:round;stroke-linejoin:round"
         d="m 95.050911,288.99639 1.811236,-0.21527 q 0.02227,0.79427 0.185577,1.18027 0.163308,0.386 0.52704,0.386 0.386001,0 0.541886,-0.44539 0.155885,-0.45281 0.155885,-1.78896 0,-1.13574 -0.133616,-1.50689 -0.133616,-0.37858 -0.549309,-0.37858 -0.601271,0 -0.668079,0.92789 l -1.477196,-0.82397 0.259809,-5.36689 h 4.320246 v 2.13042 h -1.388123 l -0.02969,-0.65323 h -1.484619 l -0.126193,2.70943 q 0.62354,-0.59385 1.417812,-0.59385 1.03181,0 1.573696,0.87593 0.54931,0.8685 0.54931,2.5387 0,3.88228 -2.872739,3.88228 -2.39766,0 -2.61293,-2.85789 z"
         id="text88"
         transform="scale(1.0033812,0.99663019)"
         aria-label="5" /></g><g
       id="g144"><path
         id="circle88"
         style="vector-effect:non-scaling-stroke;fill:none;stroke:#ff0000;stroke-width:0.276031;stroke-linecap:round;stroke-linejoin:round;-inkscape-stroke:hairline"
         d="m 125.6244,285.44431 a 7.5,7.5 0 0 1 -7.5,7.5 7.5,7.5 0 0 1 -7.5,-7.5 7.5,7.5 0 0 1 7.5,-7.5 7.5,7.5 0 0 1 7.5,7.5 z" /><path
         style="font-weight:bold;font-size:15.2025px;line-height:0px;font-family:'Rockwell Condensed';-inkscape-font-specification:'Rockwell Condensed,  Bold';fill:#008000;stroke-width:0.285047;stroke-linecap:round;stroke-linejoin:round"
         d="m 120.29102,283.48845 -2.00424,0.15589 q -0.0148,-0.64581 -0.14103,-0.94274 -0.1262,-0.30434 -0.43797,-0.30434 -0.31919,0 -0.45281,0.33403 -0.12619,0.33404 -0.12619,1.15058 v 1.50689 q 0.47508,-0.36373 1.08377,-0.36373 1.06893,0 1.66278,0.85366 0.60127,0.85365 0.60127,2.39766 0,1.75927 -0.71262,2.702 -0.70519,0.93531 -2.0265,0.93531 -1.26193,0 -1.8632,-0.73488 -0.59385,-0.74231 -0.74973,-1.92258 -0.14847,-1.18028 -0.14847,-3.19936 0,-2.94697 0.64581,-4.04559 0.65324,-1.10604 2.08589,-1.10604 1.0912,0 1.78897,0.68293 0.70519,0.68292 0.79427,1.90031 z m -3.16224,3.39236 v 2.29373 q 0,0.69777 0.11135,0.97985 0.11877,0.28208 0.46765,0.28208 0.34147,0 0.46766,-0.37116 0.12619,-0.37115 0.12619,-1.49946 0,-1.23224 -0.14104,-1.61824 -0.13361,-0.386 -0.4825,-0.386 -0.31919,0 -0.54931,0.3192 z"
         id="text89"
         transform="scale(1.0033812,0.99663019)"
         aria-label="6" /></g><g
       id="g145"><path
         id="circle89"
         style="vector-effect:non-scaling-stroke;fill:none;stroke:#ff0000;stroke-width:0.276031;stroke-linecap:round;stroke-linejoin:round;-inkscape-stroke:hairline"
         d="m 145.62439,285.44431 a 7.5,7.5 0 0 1 -7.5,7.5 7.5,7.5 0 0 1 -7.5,-7.5 7.5,7.5 0 0 1 7.5,-7.5 7.5,7.5 0 0 1 7.5,7.5 z" /><path
         style="font-weight:bold;font-size:15.2025px;line-height:0px;font-family:'Rockwell Condensed';-inkscape-font-specification:'Rockwell Condensed,  Bold';fill:#008000;stroke-width:0.285047;stroke-linecap:round;stroke-linejoin:round"
         d="m 135.73265,291.74664 v -1.59596 h 0.772 q 0.10392,-3.97136 2.04135,-7.58641 h -2.18981 v 1.43266 h -1.43266 v -2.9247 h 5.47082 v 1.23224 q -0.63838,1.19511 -1.13573,3.22904 -0.48993,2.02651 -0.50477,4.61717 h 0.82396 v 1.59596 z"
         id="text90"
         transform="scale(1.0033812,0.99663019)"
         aria-label="7" /></g><g
       id="g146"><path
         id="circle90"
         style="vector-effect:non-scaling-stroke;fill:none;stroke:#ff0000;stroke-width:0.276031;stroke-linecap:round;stroke-linejoin:round;-inkscape-stroke:hairline"
         d="m 165.62439,285.44431 a 7.5,7.5 0 0 1 -7.5,7.5 7.5,7.5 0 0 1 -7.5,-7.5 7.5,7.5 0 0 1 7.5,-7.5 7.5,7.5 0 0 1 7.5,7.5 z" /><path
         style="font-weight:bold;font-size:15.2025px;line-height:0px;font-family:'Rockwell Condensed';-inkscape-font-specification:'Rockwell Condensed,  Bold';fill:#008000;stroke-width:0.285047;stroke-linecap:round;stroke-linejoin:round"
         d="m 158.78665,285.79149 q 0.86108,0.40085 1.25451,1.05408 0.40084,0.65324 0.40084,1.72958 0,1.43266 -0.72004,2.28632 -0.72004,0.84623 -2.123,0.84623 -1.3807,0 -2.12301,-0.83139 -0.73488,-0.83881 -0.73488,-2.27146 0,-1.10604 0.39342,-1.75928 0.39342,-0.65323 1.24708,-1.05408 -1.48462,-0.6755 -1.48462,-2.33827 0,-1.23224 0.74973,-1.98939 0.74974,-0.76458 1.95228,-0.76458 1.19512,0 1.94485,0.76458 0.74973,0.76458 0.74973,1.98939 0,1.6702 -1.50689,2.33827 z m -0.40827,-2.07104 q 0,-0.89077 -0.18558,-1.2545 -0.17815,-0.37116 -0.62354,-0.37116 -0.42311,0 -0.59384,0.386 -0.16331,0.37858 -0.16331,1.29162 0,0.74973 0.17073,1.08377 0.17073,0.32662 0.58642,0.32662 0.43797,0 0.62354,-0.34889 0.18558,-0.34888 0.18558,-1.11346 z m -0.0148,4.5949 q 0,-1.02439 -0.18558,-1.46235 -0.17816,-0.43797 -0.59385,-0.43797 -0.42312,0 -0.59385,0.43797 -0.1633,0.43796 -0.1633,1.46235 0,1.13573 0.14846,1.56627 0.14846,0.42312 0.62354,0.42312 0.44538,0 0.60127,-0.45281 0.16331,-0.46023 0.16331,-1.53658 z"
         id="text91"
         transform="scale(1.0033812,0.99663019)"
         aria-label="8" /></g><g
       id="g147"><path
         id="circle91"
         style="vector-effect:non-scaling-stroke;fill:none;stroke:#ff0000;stroke-width:0.276031;stroke-linecap:round;stroke-linejoin:round;-inkscape-stroke:hairline"
         d="m 185.62439,285.44431 a 7.5,7.5 0 0 1 -7.5,7.5 7.5,7.5 0 0 1 -7.5,-7.5 7.5,7.5 0 0 1 7.5,-7.5 7.5,7.5 0 0 1 7.5,7.5 z" /><path
         style="font-weight:bold;font-size:15.2025px;line-height:0px;font-family:'Rockwell Condensed';-inkscape-font-specification:'Rockwell Condensed,  Bold';fill:#008000;stroke-width:0.285047;stroke-linecap:round;stroke-linejoin:round"
         d="m 174.94091,289.33043 2.00423,-0.15589 q 0.0223,0.64581 0.14846,0.95016 0.1262,0.29692 0.43054,0.29692 0.35631,0 0.47508,-0.39342 0.11877,-0.39343 0.11877,-1.59597 v -1.00212 q -0.4825,0.36374 -1.09119,0.36374 -1.06893,0 -1.66278,-0.84624 -0.59384,-0.85365 -0.59384,-2.4125 0,-1.85578 0.74973,-2.73913 0.74973,-0.89077 1.98939,-0.89077 1.47719,0 2.123,1.14316 0.64581,1.14316 0.64581,3.84516 v 1.35101 q 0,2.33085 -0.63838,3.5037 -0.63097,1.16542 -2.11559,1.16542 -1.08377,0 -1.78896,-0.68292 -0.7052,-0.69035 -0.79427,-1.90031 z m 3.17708,-3.39236 v -2.2195 q 0,-0.74231 -0.12619,-1.03924 -0.12619,-0.29692 -0.45281,-0.29692 -0.37115,0 -0.48992,0.39342 -0.11877,0.386 -0.11877,1.46978 0,1.22481 0.13361,1.61823 0.14104,0.39343 0.50477,0.39343 0.29693,0 0.54931,-0.3192 z"
         id="text92"
         transform="scale(1.0033812,0.99663019)"
         aria-label="9" /></g><path
       id="rect92"
       style="vector-effect:non-scaling-stroke;fill:none;stroke:#ff0000;stroke-width:0.267094;stroke-linecap:round;stroke-linejoin:round;-inkscape-stroke:hairline"
       d="m 107.38155,114.18122 h 13.8331 c 0.56561,0 1.02095,0.44518 1.02095,0.99817 v 9.11616 c 0,0.55299 -0.45534,0.99817 -1.02095,0.99817 h -13.8331 c -0.5656,0 -1.02095,-0.44518 -1.02095,-0.99817 v -9.11616 c 0,-0.55299 0.45535,-0.99817 1.02095,-0.99817 z" /><path
       id="rect100"
       style="vector-effect:non-scaling-stroke;fill:none;stroke:#ff0000;stroke-width:0.178454;stroke-linecap:round;stroke-linejoin:round;-inkscape-stroke:hairline"
       d="m 157.80548,34.068714 h 5.61023 c 0.52347,0 0.94489,0.421417 0.94489,0.944882 v 8.610236 c 0,0.523465 -0.42142,0.944882 -0.94489,0.944882 h -5.61023 c -0.52347,0 -0.94488,-0.421417 -0.94488,-0.944882 v -8.610236 c 0,-0.523465 0.42141,-0.944882 0.94488,-0.944882 z" /><g
       id="g124"
       transform="matrix(0.94488189,0,0,0.94488189,8.2324738,0.72032277)"><path
         id="rect95"
         style="vector-effect:non-scaling-stroke;fill:none;stroke:#ff0000;stroke-width:0.188864;stroke-linecap:round;stroke-linejoin:round;-inkscape-stroke:hairline"
         d="m 150.3606,13.068713 h 5.9375 c 0.554,0 1,0.446 1,1 v 9.1125 c 0,0.554 -0.446,1 -1,1 h -5.9375 c -0.554,0 -1,-0.446 -1,-1 v -9.1125 c 0,-0.554 0.446,-1 1,-1 z" /><path
         style="font-weight:bold;font-size:12.3203px;line-height:0px;font-family:'Rockwell Condensed';-inkscape-font-specification:'Rockwell Condensed,  Bold';fill:#008000;stroke-width:0.231005;stroke-linecap:round;stroke-linejoin:round"
         d="m 152.79762,23.148632 q -1.07682,0 -1.64231,-0.944476 -0.55946,-0.950492 -0.55946,-3.507195 0,-2.586782 0.54142,-3.525242 0.54142,-0.944476 1.67238,-0.944476 1.17909,0 1.69645,1.064791 0.52337,1.064792 0.52337,3.404927 0,2.436387 -0.54142,3.447037 -0.5354,1.004634 -1.69043,1.004634 z m -0.55345,-6.099992 v 3.386879 q 0,0.73994 0.12633,1.082839 0.13235,0.336883 0.43915,0.336883 0.31884,0 0.43915,-0.397041 0.12633,-0.403057 0.12633,-1.503943 v -2.267946 q 0,-1.311438 -0.10828,-1.738558 -0.10227,-0.427119 -0.4572,-0.427119 -0.32485,0 -0.44517,0.35493 -0.12031,0.348915 -0.12031,1.173076 z"
         id="text109"
         transform="scale(1.0033812,0.99663019)"
         aria-label="0" /></g><g
       id="g126"
       transform="matrix(0.94488189,0,0,0.94488189,8.2324738,0.72032277)"><path
         id="rect97"
         style="vector-effect:non-scaling-stroke;fill:none;stroke:#ff0000;stroke-width:0.188864;stroke-linecap:round;stroke-linejoin:round;-inkscape-stroke:hairline"
         d="m 150.3606,24.181213 h 5.9375 c 0.554,0 1,0.446 1,1 v 9.112501 c 0,0.554 -0.446,1 -1,1 h -5.9375 c -0.554,0 -1,-0.446 -1,-1 v -9.112501 c 0,-0.554 0.446,-1 1,-1 z" /><path
         style="font-weight:bold;font-size:12.3203px;line-height:0px;font-family:'Rockwell Condensed';-inkscape-font-specification:'Rockwell Condensed,  Bold';fill:#008000;stroke-width:0.231005;stroke-linecap:round;stroke-linejoin:round"
         d="m 151.23051,34.211479 v -1.293391 h 0.69182 v -5.348021 q -0.30079,0.126332 -0.69182,0.186489 V 26.49926 q 1.01065,-0.204536 1.78669,-1.034713 h 0.70384 v 7.453541 h 0.67377 v 1.293391 z"
         id="text110"
         transform="scale(1.0033812,0.99663019)"
         aria-label="1" /></g><g
       id="g128"
       transform="matrix(0.94488189,0,0,0.94488189,8.2324738,0.72032277)"><path
         id="rect99"
         style="vector-effect:non-scaling-stroke;fill:none;stroke:#ff0000;stroke-width:0.188864;stroke-linecap:round;stroke-linejoin:round;-inkscape-stroke:hairline"
         d="m 150.3606,35.293713 h 5.9375 c 0.554,0 1,0.446 1,1 v 9.1125 c 0,0.554 -0.446,1 -1,1 h -5.9375 c -0.554,0 -1,-0.446 -1,-1 v -9.1125 c 0,-0.554 0.446,-1 1,-1 z" /><path
         style="font-weight:bold;font-size:12.3203px;line-height:0px;font-family:'Rockwell Condensed';-inkscape-font-specification:'Rockwell Condensed,  Bold';fill:#008000;stroke-width:0.231005;stroke-linecap:round;stroke-linejoin:round"
         d="m 155.05653,45.361549 h -4.4637 q 0,-1.076823 0.20454,-1.804731 0.20453,-0.733924 0.50532,-1.215186 0.30681,-0.481262 0.8001,-1.070807 0.55345,-0.661735 0.81213,-1.161044 0.26469,-0.505325 0.26469,-1.251281 0,-0.986586 -0.54142,-0.986586 -0.58954,0 -0.58954,1.046744 0,0.306804 0.0361,0.589546 l -1.50394,-0.08422 q -0.012,-0.06617 -0.012,-0.421104 0,-1.088855 0.58954,-1.738558 0.59556,-0.649703 1.59418,-0.649703 1.01065,0 1.63629,0.643687 0.62564,0.637672 0.62564,1.696448 0,0.66775 -0.2286,1.191122 -0.22258,0.523373 -0.54743,0.902366 -0.31884,0.372978 -0.85424,0.872287 -0.6858,0.643688 -1.02268,1.118934 -0.33087,0.475246 -0.33689,1.124949 h 1.73856 v -1.317454 h 1.29339 z"
         id="text111"
         transform="scale(1.0033812,0.99663019)"
         aria-label="2" /></g><g
       id="g130"
       transform="matrix(0.94488189,0,0,0.94488189,8.2324738,0.72032277)"><path
         id="rect101"
         style="vector-effect:non-scaling-stroke;fill:none;stroke:#ff0000;stroke-width:0.188864;stroke-linecap:round;stroke-linejoin:round;-inkscape-stroke:hairline"
         d="m 150.3606,46.406216 h 5.9375 c 0.554,0 1,0.446 1,1 v 9.1125 c 0,0.554 -0.446,1 -1,1 h -5.9375 c -0.554,0 -1,-0.446 -1,-1 v -9.1125 c 0,-0.554 0.446,-1 1,-1 z" /><path
         style="font-weight:bold;font-size:12.3203px;line-height:0px;font-family:'Rockwell Condensed';-inkscape-font-specification:'Rockwell Condensed,  Bold';fill:#008000;stroke-width:0.231005;stroke-linecap:round;stroke-linejoin:round"
         d="m 150.56276,53.933871 1.51598,-0.132347 q 0,0.751971 0.0361,1.022681 0.0361,0.264694 0.16243,0.415088 0.13234,0.150395 0.35493,0.150395 0.3429,0 0.46923,-0.330868 0.12633,-0.330867 0.12633,-1.197138 0,-0.553451 -0.0902,-0.860256 -0.0842,-0.306804 -0.25868,-0.415088 -0.16844,-0.1143 -0.51735,-0.1143 v -1.29339 q 0.31282,0 0.43915,-0.0361 0.13235,-0.04211 0.22258,-0.168442 0.0963,-0.126331 0.13837,-0.348914 0.0421,-0.2286 0.0421,-0.58353 0,-0.619625 -0.13235,-0.884319 -0.12633,-0.270709 -0.42712,-0.270709 -0.33087,0 -0.44517,0.324851 -0.1143,0.318836 -0.12031,1.004634 l -1.41371,-0.162426 q 0.12633,-2.376229 2.11755,-2.376229 0.9926,0 1.57613,0.583529 0.58955,0.58353 0.58955,1.720511 0,0.691814 -0.24063,1.112918 -0.24063,0.421104 -0.77002,0.697829 1.12495,0.637672 1.12495,2.243883 0,1.173075 -0.60759,1.870905 -0.60158,0.691814 -1.62426,0.691814 -1.11292,0 -1.69043,-0.607593 -0.57752,-0.613609 -0.57752,-2.057394 z"
         id="text112"
         transform="scale(1.0033812,0.99663019)"
         aria-label="3" /></g><g
       id="g131"
       transform="matrix(0.94488189,0,0,0.94488189,8.2324738,0.72032277)"><path
         id="rect103"
         style="vector-effect:non-scaling-stroke;fill:none;stroke:#ff0000;stroke-width:0.188864;stroke-linecap:round;stroke-linejoin:round;-inkscape-stroke:hairline"
         d="m 150.3606,57.518715 h 5.9375 c 0.554,0 1,0.446 1,1 v 9.1125 c 0,0.554 -0.446,1 -1,1 h -5.9375 c -0.554,0 -1,-0.446 -1,-1 v -9.1125 c 0,-0.554 0.446,-1 1,-1 z" /><path
         style="font-weight:bold;font-size:12.3203px;line-height:0px;font-family:'Rockwell Condensed';-inkscape-font-specification:'Rockwell Condensed,  Bold';fill:#008000;stroke-width:0.231005;stroke-linecap:round;stroke-linejoin:round"
         d="m 152.34945,67.661697 v -1.29339 h 0.61962 v -1.173076 h -2.17169 q -0.0541,-0.451183 -0.25868,-0.956508 l 2.51459,-5.323957 h 1.52801 v 5.233721 h 0.50532 v 1.046744 h -0.50532 v 1.173076 h 0.50532 v 1.29339 z m 0.61962,-3.51321 q 0,-2.06341 0.12032,-3.013902 h -0.16243 q -0.45118,1.540038 -1.19112,3.013902 z"
         id="text113"
         transform="scale(1.0033812,0.99663019)"
         aria-label="4" /></g><g
       id="g133"
       transform="matrix(0.94488189,0,0,0.94488189,8.2324738,0.72032277)"><path
         id="rect105"
         style="vector-effect:non-scaling-stroke;fill:none;stroke:#ff0000;stroke-width:0.188864;stroke-linecap:round;stroke-linejoin:round;-inkscape-stroke:hairline"
         d="m 150.3606,68.631218 h 5.9375 c 0.554,0 1,0.446 1,1 v 9.1125 c 0,0.554 -0.446,1 -1,1 h -5.9375 c -0.554,0 -1,-0.446 -1,-1 v -9.1125 c 0,-0.554 0.446,-1 1,-1 z" /><path
         style="font-weight:bold;font-size:12.3203px;line-height:0px;font-family:'Rockwell Condensed';-inkscape-font-specification:'Rockwell Condensed,  Bold';fill:#008000;stroke-width:0.231005;stroke-linecap:round;stroke-linejoin:round"
         d="m 150.58983,76.534807 1.46785,-0.174457 q 0.018,0.643688 0.15039,0.956508 0.13235,0.31282 0.42712,0.31282 0.31282,0 0.43916,-0.360946 0.12633,-0.366962 0.12633,-1.449801 0,-0.920413 -0.10829,-1.221202 -0.10828,-0.306804 -0.44516,-0.306804 -0.48728,0 -0.54142,0.751971 l -1.19714,-0.667751 0.21055,-4.349402 h 3.50118 v 1.726526 h -1.12495 l -0.0241,-0.529388 h -1.20316 l -0.10227,2.195757 q 0.50533,-0.481262 1.14902,-0.481262 0.83619,0 1.27534,0.709861 0.44517,0.703845 0.44517,2.057394 0,3.146248 -2.32811,3.146248 -1.94309,0 -2.11755,-2.316072 z"
         id="text114"
         transform="scale(1.0033812,0.99663019)"
         aria-label="5" /></g><g
       id="g135"
       transform="matrix(0.94488189,0,0,0.94488189,8.2324738,0.72032277)"><path
         id="rect107"
         style="vector-effect:non-scaling-stroke;fill:none;stroke:#ff0000;stroke-width:0.188864;stroke-linecap:round;stroke-linejoin:round;-inkscape-stroke:hairline"
         d="m 150.3606,79.743721 h 5.9375 c 0.554,0 1,0.446 1,1 v 9.1125 c 0,0.554 -0.446,1 -1,1 h -5.9375 c -0.554,0 -1,-0.446 -1,-1 v -9.1125 c 0,-0.554 0.446,-1 1,-1 z" /><path
         style="font-weight:bold;font-size:12.3203px;line-height:0px;font-family:'Rockwell Condensed';-inkscape-font-specification:'Rockwell Condensed,  Bold';fill:#008000;stroke-width:0.231005;stroke-linecap:round;stroke-linejoin:round"
         d="m 154.8911,83.221183 -1.62426,0.126331 q -0.012,-0.523372 -0.1143,-0.764003 -0.10227,-0.246647 -0.35493,-0.246647 -0.25868,0 -0.36696,0.27071 -0.10227,0.27071 -0.10227,0.932445 v 1.221201 q 0.38501,-0.294772 0.8783,-0.294772 0.86628,0 1.34754,0.691813 0.48728,0.691814 0.48728,1.943094 0,1.425738 -0.57752,2.189741 -0.5715,0.757988 -1.6423,0.757988 -1.02269,0 -1.50996,-0.595562 -0.48126,-0.601577 -0.6076,-1.558085 -0.12031,-0.956507 -0.12031,-2.592797 0,-2.388262 0.52337,-3.278596 0.52939,-0.89635 1.69043,-0.89635 0.88432,0 1.4498,0.553451 0.5715,0.553451 0.64369,1.540038 z m -2.56272,2.749207 v 1.858874 q 0,0.565482 0.0902,0.794082 0.0962,0.228599 0.37899,0.228599 0.27673,0 0.379,-0.300789 0.10226,-0.300788 0.10226,-1.215185 0,-0.998619 -0.1143,-1.311439 -0.10828,-0.31282 -0.39102,-0.31282 -0.25868,0 -0.44517,0.258678 z"
         id="text115"
         transform="scale(1.0033812,0.99663019)"
         aria-label="6" /></g><g
       id="g137"
       transform="matrix(0.94488189,0,0,0.94488189,8.2324738,0.72032277)"><path
         id="rect109"
         style="vector-effect:non-scaling-stroke;fill:none;stroke:#ff0000;stroke-width:0.188864;stroke-linecap:round;stroke-linejoin:round;-inkscape-stroke:hairline"
         d="m 150.3606,90.856224 h 5.9375 c 0.554,0 1,0.446 1,1 v 9.112496 c 0,0.554 -0.446,1 -1,1 h -5.9375 c -0.554,0 -1,-0.446 -1,-1 v -9.112496 c 0,-0.554 0.446,-1 1,-1 z" /><path
         style="font-weight:bold;font-size:12.3203px;line-height:0px;font-family:'Rockwell Condensed';-inkscape-font-specification:'Rockwell Condensed,  Bold';fill:#008000;stroke-width:0.231005;stroke-linecap:round;stroke-linejoin:round"
         d="m 151.25156,101.0638 v -1.293394 h 0.62564 q 0.0842,-3.218438 1.65434,-6.148118 h -1.77465 v 1.161044 h -1.16105 v -2.370214 h 4.43363 v 0.998618 q -0.51736,0.968539 -0.92042,2.61686 -0.39704,1.642306 -0.40907,3.74181 h 0.66775 v 1.293394 z"
         id="text116"
         transform="scale(1.0033812,0.99663019)"
         aria-label="7" /></g><g
       id="g125"
       transform="matrix(0.94488189,0,0,0.94488189,8.2324738,0.72032277)"><path
         id="rect96"
         style="vector-effect:non-scaling-stroke;fill:none;stroke:#ff0000;stroke-width:0.188864;stroke-linecap:round;stroke-linejoin:round;-inkscape-stroke:hairline"
         d="m 158.2981,13.068713 h 5.9375 c 0.554,0 1,0.446 1,1 v 9.1125 c 0,0.554 -0.446,1 -1,1 h -5.9375 c -0.554,0 -1,-0.446 -1,-1 v -9.1125 c 0,-0.554 0.446,-1 1,-1 z" /><path
         style="font-weight:bold;font-size:12.3203px;line-height:0px;font-family:'Rockwell Condensed';-inkscape-font-specification:'Rockwell Condensed,  Bold';fill:#008000;stroke-width:0.231005;stroke-linecap:round;stroke-linejoin:round"
         d="m 161.68293,18.354062 q 0.69783,0.324852 1.01666,0.85424 0.32485,0.529387 0.32485,1.401674 0,1.161044 -0.58353,1.852858 -0.58353,0.685798 -1.72051,0.685798 -1.11893,0 -1.72051,-0.673767 -0.59556,-0.679782 -0.59556,-1.840826 0,-0.89635 0.31884,-1.425737 0.31883,-0.529388 1.01065,-0.85424 -1.20316,-0.547435 -1.20316,-1.894968 0,-0.998618 0.6076,-1.612227 0.60759,-0.619624 1.58214,-0.619624 0.96854,0 1.57614,0.619624 0.60759,0.619625 0.60759,1.612227 0,1.353549 -1.2212,1.894968 z m -0.33087,-1.6784 q 0,-0.721893 -0.1504,-1.016666 -0.14437,-0.300788 -0.50532,-0.300788 -0.3429,0 -0.48126,0.31282 -0.13235,0.306804 -0.13235,1.046744 0,0.607593 0.13836,0.878303 0.13837,0.264694 0.47525,0.264694 0.35493,0 0.50532,-0.282742 0.1504,-0.282741 0.1504,-0.902365 z m -0.012,3.723762 q 0,-0.830176 -0.1504,-1.185107 -0.14438,-0.35493 -0.48126,-0.35493 -0.3429,0 -0.48126,0.35493 -0.13235,0.354931 -0.13235,1.185107 0,0.920413 0.12032,1.269328 0.12031,0.342899 0.50532,0.342899 0.36095,0 0.48728,-0.366962 0.13235,-0.372978 0.13235,-1.245265 z"
         id="text117"
         transform="scale(1.0033812,0.99663019)"
         aria-label="8" /></g><g
       id="g127"
       transform="matrix(0.94488189,0,0,0.94488189,8.2324738,0.72032277)"><path
         id="rect94"
         style="vector-effect:non-scaling-stroke;fill:none;stroke:#ff0000;stroke-width:0.188864;stroke-linecap:round;stroke-linejoin:round;-inkscape-stroke:hairline"
         d="m 158.2981,24.181213 h 5.9375 c 0.554,0 1,0.446 1,1 v 9.112501 c 0,0.554 -0.446,1 -1,1 h -5.9375 c -0.554,0 -1,-0.446 -1,-1 v -9.112501 c 0,-0.554 0.446,-1 1,-1 z" /><path
         style="font-weight:bold;font-size:12.3203px;line-height:0px;font-family:'Rockwell Condensed';-inkscape-font-specification:'Rockwell Condensed,  Bold';fill:#008000;stroke-width:0.231005;stroke-linecap:round;stroke-linejoin:round"
         d="m 158.62391,32.205217 1.62426,-0.126331 q 0.018,0.523372 0.12031,0.770019 0.10227,0.240631 0.34892,0.240631 0.28875,0 0.38501,-0.318836 0.0962,-0.318836 0.0962,-1.293391 V 30.66518 q -0.39103,0.294773 -0.88432,0.294773 -0.86627,0 -1.34753,-0.685798 -0.48126,-0.691814 -0.48126,-1.955126 0,-1.503943 0.60759,-2.21982 0.60759,-0.721892 1.61223,-0.721892 1.19713,0 1.72051,0.926429 0.52337,0.926428 0.52337,3.116169 v 1.094871 q 0,1.888952 -0.51736,2.839444 -0.51134,0.944476 -1.71449,0.944476 -0.87831,0 -1.4498,-0.553451 -0.5715,-0.559467 -0.64369,-1.540038 z m 2.57475,-2.749207 v -1.798716 q 0,-0.601577 -0.10227,-0.842208 -0.10227,-0.240631 -0.36696,-0.240631 -0.30079,0 -0.39704,0.318836 -0.0962,0.31282 -0.0962,1.191123 0,0.992602 0.10828,1.311438 0.1143,0.318836 0.40907,0.318836 0.24063,0 0.44517,-0.258678 z"
         id="text118"
         transform="scale(1.0033812,0.99663019)"
         aria-label="9" /></g><text
       xml:space="preserve"
       style="font-weight:600;font-size:12.3203px;line-height:0px;font-family:Atlanta;-inkscape-font-specification:'Atlanta, Semi-Bold';text-align:start;writing-mode:lr-tb;direction:ltr;text-anchor:start;vector-effect:non-scaling-stroke;fill:#008000;stroke:#ff0000;stroke-width:0.231005;stroke-linecap:round;stroke-linejoin:round;-inkscape-stroke:hairline"
       x="158.19678"
       y="44.954144"
       id="text119"
       transform="scale(1.0033812,0.99663019)"><tspan
         sodipodi:role="line"
         id="tspan119"
         style="font-style:normal;font-variant:normal;font-weight:bold;font-stretch:normal;font-size:12.3203px;font-family:'Rockwell Condensed';-inkscape-font-specification:'Rockwell Condensed,  Bold';fill:#008000;stroke:none;stroke-width:0.231005"
         x="158.19678"
         y="44.954144" /></text><g
       id="g129"
       transform="matrix(0.94488189,0,0,0.94488189,8.2324738,0.72032277)"><path
         id="rect98"
         style="vector-effect:non-scaling-stroke;fill:none;stroke:#ff0000;stroke-width:0.188864;stroke-linecap:round;stroke-linejoin:round;-inkscape-stroke:hairline"
         d="m 158.2981,46.406216 h 5.9375 c 0.554,0 1,0.446 1,1 v 9.1125 c 0,0.554 -0.446,1 -1,1 h -5.9375 c -0.554,0 -1,-0.446 -1,-1 v -9.1125 c 0,-0.554 0.446,-1 1,-1 z" /><path
         style="font-weight:bold;font-size:12.3203px;line-height:0px;font-family:'Rockwell Condensed';-inkscape-font-specification:'Rockwell Condensed,  Bold';fill:#008000;stroke-width:0.231005;stroke-linecap:round;stroke-linejoin:round"
         d="m 159.18939,56.511627 v -1.293391 h 0.69181 v -5.348021 q -0.30078,0.126332 -0.69181,0.186489 v -1.257296 q 1.01065,-0.204536 1.78669,-1.034713 h 0.70384 v 7.453541 h 0.67377 v 1.293391 z"
         id="text120"
         transform="scale(1.0033812,0.99663019)"
         aria-label="1" /></g><g
       id="g132"
       transform="matrix(0.94488189,0,0,0.94488189,8.2324738,0.72032277)"><path
         id="rect104"
         style="vector-effect:non-scaling-stroke;fill:none;stroke:#ff0000;stroke-width:0.188864;stroke-linecap:round;stroke-linejoin:round;-inkscape-stroke:hairline"
         d="m 158.2981,57.518715 h 5.9375 c 0.554,0 1,0.446 1,1 v 9.1125 c 0,0.554 -0.446,1 -1,1 h -5.9375 c -0.554,0 -1,-0.446 -1,-1 v -9.1125 c 0,-0.554 0.446,-1 1,-1 z" /><path
         style="font-weight:bold;font-size:12.3203px;line-height:0px;font-family:'Rockwell Condensed';-inkscape-font-specification:'Rockwell Condensed,  Bold';fill:#008000;stroke-width:0.231005;stroke-linecap:round;stroke-linejoin:round"
         d="m 162.94925,67.661697 h -4.4637 q 0,-1.076823 0.20453,-1.804731 0.20454,-0.733924 0.50533,-1.215186 0.3068,-0.481262 0.80009,-1.070807 0.55346,-0.661735 0.81213,-1.161044 0.2647,-0.505325 0.2647,-1.251281 0,-0.986586 -0.54142,-0.986586 -0.58955,0 -0.58955,1.046744 0,0.306804 0.0361,0.589546 l -1.50395,-0.08422 q -0.012,-0.06617 -0.012,-0.421104 0,-1.088855 0.58955,-1.738558 0.59556,-0.649703 1.59418,-0.649703 1.01065,0 1.63629,0.643687 0.62564,0.637672 0.62564,1.696448 0,0.66775 -0.2286,1.191122 -0.22258,0.523373 -0.54744,0.902366 -0.31883,0.372978 -0.85424,0.872287 -0.68579,0.643688 -1.02268,1.118934 -0.33086,0.475246 -0.33688,1.124949 h 1.73856 v -1.317454 h 1.29339 z"
         id="text121"
         transform="scale(1.0033812,0.99663019)"
         aria-label="2" /></g><g
       id="g134"
       transform="matrix(0.94488189,0,0,0.94488189,8.2324738,0.72032277)"><path
         id="rect102"
         style="vector-effect:non-scaling-stroke;fill:none;stroke:#ff0000;stroke-width:0.188864;stroke-linecap:round;stroke-linejoin:round;-inkscape-stroke:hairline"
         d="m 158.2981,68.631218 h 5.9375 c 0.554,0 1,0.446 1,1 v 9.1125 c 0,0.554 -0.446,1 -1,1 h -5.9375 c -0.554,0 -1,-0.446 -1,-1 v -9.1125 c 0,-0.554 0.446,-1 1,-1 z" /><path
         style="font-weight:bold;font-size:12.3203px;line-height:0px;font-family:'Rockwell Condensed';-inkscape-font-specification:'Rockwell Condensed,  Bold';fill:#008000;stroke-width:0.231005;stroke-linecap:round;stroke-linejoin:round"
         d="m 158.52465,76.234019 1.51597,-0.132347 q 0,0.751971 0.0361,1.022681 0.0361,0.264694 0.16242,0.415088 0.13235,0.150395 0.35493,0.150395 0.3429,0 0.46923,-0.330868 0.12633,-0.330867 0.12633,-1.197138 0,-0.553451 -0.0902,-0.860256 -0.0842,-0.306804 -0.25868,-0.415088 -0.16844,-0.1143 -0.51736,-0.1143 v -1.29339 q 0.31282,0 0.43915,-0.0361 0.13235,-0.04211 0.22259,-0.168442 0.0962,-0.126331 0.13836,-0.348914 0.0421,-0.2286 0.0421,-0.58353 0,-0.619625 -0.13235,-0.884319 -0.12633,-0.270709 -0.42712,-0.270709 -0.33086,0 -0.44516,0.324851 -0.1143,0.318836 -0.12032,1.004634 l -1.41371,-0.162426 q 0.12634,-2.376229 2.11756,-2.376229 0.9926,0 1.57613,0.583529 0.58954,0.58353 0.58954,1.720511 0,0.691814 -0.24063,1.112918 -0.24063,0.421104 -0.77002,0.697829 1.12495,0.637672 1.12495,2.243883 0,1.173075 -0.60759,1.870905 -0.60158,0.691814 -1.62426,0.691814 -1.11292,0 -1.69043,-0.607593 -0.57751,-0.613609 -0.57751,-2.057394 z"
         id="text122"
         transform="scale(1.0033812,0.99663019)"
         aria-label="3" /></g><g
       id="g136"
       transform="matrix(0.94488189,0,0,0.94488189,8.2324738,0.72032277)"><path
         id="rect108"
         style="vector-effect:non-scaling-stroke;fill:none;stroke:#ff0000;stroke-width:0.188864;stroke-linecap:round;stroke-linejoin:round;-inkscape-stroke:hairline"
         d="m 158.2981,79.743721 h 5.9375 c 0.554,0 1,0.446 1,1 v 9.1125 c 0,0.554 -0.446,1 -1,1 h -5.9375 c -0.554,0 -1,-0.446 -1,-1 v -9.1125 c 0,-0.554 0.446,-1 1,-1 z" /><path
         style="font-weight:bold;font-size:12.3203px;line-height:0px;font-family:'Rockwell Condensed';-inkscape-font-specification:'Rockwell Condensed,  Bold';fill:#008000;stroke-width:0.231005;stroke-linecap:round;stroke-linejoin:round"
         d="m 160.15491,89.961853 v -1.293391 h 0.61963 v -1.173075 h -2.1717 q -0.0541,-0.451183 -0.25867,-0.956508 l 2.51459,-5.323958 h 1.528 v 5.233721 h 0.50533 v 1.046745 h -0.50533 v 1.173075 h 0.50533 v 1.293391 z m 0.61963,-3.513211 q 0,-2.063409 0.12031,-3.013901 h -0.16242 q -0.45119,1.540037 -1.19113,3.013901 z"
         id="text123"
         transform="scale(1.0033812,0.99663019)"
         aria-label="4" /></g><g
       id="g138"
       transform="matrix(0.94488189,0,0,0.94488189,8.2324738,0.72032277)"><path
         id="rect106"
         style="vector-effect:non-scaling-stroke;fill:none;stroke:#ff0000;stroke-width:0.188864;stroke-linecap:round;stroke-linejoin:round;-inkscape-stroke:hairline"
         d="m 158.2981,90.856224 h 5.9375 c 0.554,0 1,0.446 1,1 v 9.112496 c 0,0.554 -0.446,1 -1,1 h -5.9375 c -0.554,0 -1,-0.446 -1,-1 v -9.112496 c 0,-0.554 0.446,-1 1,-1 z" /><path
         style="font-weight:bold;font-size:12.3203px;line-height:0px;font-family:'Rockwell Condensed';-inkscape-font-specification:'Rockwell Condensed,  Bold';fill:#008000;stroke-width:0.231005;stroke-linecap:round;stroke-linejoin:round"
         d="m 158.5066,98.834963 1.46784,-0.174457 q 0.0181,0.643687 0.1504,0.956507 0.13234,0.312821 0.42712,0.312821 0.31282,0 0.43915,-0.360947 0.12633,-0.366962 0.12633,-1.449801 0,-0.920413 -0.10828,-1.221201 -0.10829,-0.306805 -0.44517,-0.306805 -0.48728,0 -0.54142,0.751972 l -1.19714,-0.667751 0.21055,-4.349403 h 3.50118 v 1.726527 h -1.12495 l -0.0241,-0.529388 H 160.185 l -0.10227,2.195756 q 0.50532,-0.481261 1.14901,-0.481261 0.83619,0 1.27534,0.709861 0.44517,0.703845 0.44517,2.057394 0,3.146253 -2.3281,3.146253 -1.9431,0 -2.11755,-2.316077 z"
         id="text124"
         transform="scale(1.0033812,0.99663019)"
         aria-label="5" /></g><path
       id="circle138"
       style="vector-effect:non-scaling-stroke;fill:none;stroke:#ff0000;stroke-width:0.386443;stroke-linecap:round;stroke-linejoin:round;-inkscape-stroke:hairline"
       d="m 65.871452,34.963333 a 10.5,10.5 0 0 1 -10.5,10.5 10.5,10.5 0 0 1 -10.5,-10.5 10.5,10.5 0 0 1 10.5,-10.5 10.5,10.5 0 0 1 10.5,10.5 z" /><g
       id="g148"
       transform="translate(0,-20)"><path
         id="circle147"
         style="vector-effect:non-scaling-stroke;fill:none;stroke:#ff0000;stroke-width:0.276031;stroke-linecap:round;stroke-linejoin:round;-inkscape-stroke:hairline"
         d="m 25.624405,285.44431 a 7.5,7.5 0 0 1 -7.5,7.5 7.5,7.5 0 0 1 -7.5,-7.5 7.5,7.5 0 0 1 7.5,-7.5 7.5,7.5 0 0 1 7.5,7.5 z" /><path
         style="font-weight:bold;font-size:15.2025px;line-height:0px;font-family:'Rockwell Condensed';-inkscape-font-specification:'Rockwell Condensed,  Bold';fill:#008000;stroke-width:0.285047;stroke-linecap:round;stroke-linejoin:round"
         d="m 16.111055,291.80603 v -1.59597 h 0.853656 v -6.59913 q -0.371154,0.15589 -0.853656,0.23012 v -1.55143 q 1.24708,-0.25238 2.20466,-1.27677 h 0.868502 v 9.19721 h 0.831387 v 1.59597 z"
         id="text147"
         transform="scale(1.0033812,0.99663019)"
         aria-label="1" /></g><g
       id="g149"
       transform="translate(0,-20)"><path
         id="circle148"
         style="vector-effect:non-scaling-stroke;fill:none;stroke:#ff0000;stroke-width:0.276031;stroke-linecap:round;stroke-linejoin:round;-inkscape-stroke:hairline"
         d="m 45.624405,285.44431 a 7.5,7.5 0 0 1 -7.5,7.5 7.5,7.5 0 0 1 -7.5,-7.5 7.5,7.5 0 0 1 7.5,-7.5 7.5,7.5 0 0 1 7.5,7.5 z" /><path
         style="font-weight:bold;font-size:15.2025px;line-height:0px;font-family:'Rockwell Condensed';-inkscape-font-specification:'Rockwell Condensed,  Bold';fill:#008000;stroke-width:0.285047;stroke-linecap:round;stroke-linejoin:round"
         d="m 40.764746,291.80603 h -5.507937 q 0,-1.32873 0.252385,-2.22693 0.252385,-0.90562 0.62354,-1.49946 0.378578,-0.59385 0.987272,-1.32131 0.682925,-0.81655 1.002118,-1.43266 0.326616,-0.62354 0.326616,-1.54401 0,-1.21738 -0.668078,-1.21738 -0.727464,0 -0.727464,1.29161 0,0.37858 0.04454,0.72747 l -1.855774,-0.10393 q -0.01485,-0.0816 -0.01485,-0.51961 0,-1.34358 0.727463,-2.14528 0.734886,-0.80169 1.96712,-0.80169 1.24708,0 2.019082,0.79427 0.772002,0.78685 0.772002,2.09331 0,0.82397 -0.282077,1.46978 -0.274655,0.64581 -0.675502,1.11346 -0.393424,0.46023 -1.05408,1.07635 -0.846233,0.79427 -1.261926,1.3807 -0.40827,0.58642 -0.415693,1.38811 h 2.145274 v -1.62565 h 1.595966 z"
         id="text148"
         transform="scale(1.0033812,0.99663019)"
         aria-label="2" /></g><g
       id="g150"
       transform="translate(0,-20)"><path
         id="circle149"
         style="vector-effect:non-scaling-stroke;fill:none;stroke:#ff0000;stroke-width:0.276031;stroke-linecap:round;stroke-linejoin:round;-inkscape-stroke:hairline"
         d="m 65.624405,285.44431 a 7.5,7.5 0 0 1 -7.5,7.5 7.5,7.5 0 0 1 -7.5,-7.5 7.5,7.5 0 0 1 7.5,-7.5 7.5,7.5 0 0 1 7.5,7.5 z" /><path
         style="font-weight:bold;font-size:15.2025px;line-height:0px;font-family:'Rockwell Condensed';-inkscape-font-specification:'Rockwell Condensed,  Bold';fill:#008000;stroke-width:0.285047;stroke-linecap:round;stroke-linejoin:round"
         d="m 55.152297,288.62523 1.87062,-0.16331 q 0,0.92789 0.04454,1.26193 0.04454,0.32662 0.200423,0.51219 0.163308,0.18558 0.437963,0.18558 0.423117,0 0.579002,-0.40827 0.155885,-0.40827 0.155885,-1.47719 0,-0.68293 -0.111347,-1.06151 -0.103923,-0.37857 -0.319193,-0.51219 -0.207847,-0.14104 -0.638386,-0.14104 v -1.59596 q 0.386001,0 0.541886,-0.0445 0.163308,-0.052 0.274654,-0.20785 0.11877,-0.15589 0.170731,-0.43054 0.05196,-0.28208 0.05196,-0.72004 0,-0.76458 -0.163308,-1.0912 -0.155885,-0.33403 -0.52704,-0.33403 -0.40827,0 -0.549309,0.40084 -0.141039,0.39343 -0.148462,1.23966 l -1.744427,-0.20042 q 0.155885,-2.93213 2.612929,-2.93213 1.224811,0 1.944852,0.72004 0.727463,0.72004 0.727463,2.12301 0,0.85366 -0.296924,1.37327 -0.296924,0.51962 -0.950156,0.86108 1.388119,0.78685 1.388119,2.76882 0,1.4475 -0.749733,2.30858 -0.742309,0.85365 -2.004236,0.85365 -1.373273,0 -2.08589,-0.74973 -0.712617,-0.75715 -0.712617,-2.5387 z"
         id="text149"
         transform="scale(1.0033812,0.99663019)"
         aria-label="3" /></g><g
       id="g151"
       transform="translate(0,-20)"><path
         id="circle150"
         style="vector-effect:non-scaling-stroke;fill:none;stroke:#ff0000;stroke-width:0.276031;stroke-linecap:round;stroke-linejoin:round;-inkscape-stroke:hairline"
         d="m 85.624405,285.44431 a 7.5,7.5 0 0 1 -7.5,7.5 7.5,7.5 0 0 1 -7.5,-7.5 7.5,7.5 0 0 1 7.5,-7.5 7.5,7.5 0 0 1 7.5,7.5 z" /><path
         style="font-weight:bold;font-size:15.2025px;line-height:0px;font-family:'Rockwell Condensed';-inkscape-font-specification:'Rockwell Condensed,  Bold';fill:#008000;stroke-width:0.285047;stroke-linecap:round;stroke-linejoin:round"
         d="m 76.890924,291.80603 v -1.59597 h 0.764579 v -1.4475 h -2.679738 q -0.06681,-0.55673 -0.319193,-1.18027 l 3.102854,-6.56944 h 1.885466 v 6.45809 h 0.62354 v 1.29162 h -0.62354 v 1.4475 h 0.62354 v 1.59597 z m 0.764579,-4.33509 q 0,-2.54612 0.148462,-3.71897 h -0.200424 q -0.556732,1.90031 -1.469773,3.71897 z"
         id="text151"
         transform="scale(1.0033812,0.99663019)"
         aria-label="4" /></g><g
       id="g152"
       transform="translate(0,-20)"><path
         id="circle151"
         style="vector-effect:non-scaling-stroke;fill:none;stroke:#ff0000;stroke-width:0.276031;stroke-linecap:round;stroke-linejoin:round;-inkscape-stroke:hairline"
         d="m 105.6244,285.44431 a 7.5,7.5 0 0 1 -7.499995,7.5 7.5,7.5 0 0 1 -7.5,-7.5 7.5,7.5 0 0 1 7.5,-7.5 7.5,7.5 0 0 1 7.499995,7.5 z" /><path
         style="font-weight:bold;font-size:15.2025px;line-height:0px;font-family:'Rockwell Condensed';-inkscape-font-specification:'Rockwell Condensed,  Bold';fill:#008000;stroke-width:0.285047;stroke-linecap:round;stroke-linejoin:round"
         d="m 95.050911,288.99639 1.811236,-0.21527 q 0.02227,0.79427 0.185577,1.18027 0.163308,0.386 0.52704,0.386 0.386001,0 0.541886,-0.44539 0.155885,-0.45281 0.155885,-1.78896 0,-1.13574 -0.133616,-1.50689 -0.133616,-0.37858 -0.549309,-0.37858 -0.601271,0 -0.668079,0.92789 l -1.477196,-0.82397 0.259809,-5.36689 h 4.320246 v 2.13042 h -1.388123 l -0.02969,-0.65323 h -1.484619 l -0.126193,2.70943 q 0.62354,-0.59385 1.417812,-0.59385 1.03181,0 1.573696,0.87593 0.54931,0.8685 0.54931,2.5387 0,3.88228 -2.872739,3.88228 -2.39766,0 -2.61293,-2.85789 z"
         id="text152"
         transform="scale(1.0033812,0.99663019)"
         aria-label="5" /></g><g
       id="g153"
       transform="translate(0,-20)"><path
         id="circle152"
         style="vector-effect:non-scaling-stroke;fill:none;stroke:#ff0000;stroke-width:0.276031;stroke-linecap:round;stroke-linejoin:round;-inkscape-stroke:hairline"
         d="m 125.6244,285.44431 a 7.5,7.5 0 0 1 -7.5,7.5 7.5,7.5 0 0 1 -7.5,-7.5 7.5,7.5 0 0 1 7.5,-7.5 7.5,7.5 0 0 1 7.5,7.5 z" /><path
         style="font-weight:bold;font-size:15.2025px;line-height:0px;font-family:'Rockwell Condensed';-inkscape-font-specification:'Rockwell Condensed,  Bold';fill:#008000;stroke-width:0.285047;stroke-linecap:round;stroke-linejoin:round"
         d="m 120.29102,283.48845 -2.00424,0.15589 q -0.0148,-0.64581 -0.14103,-0.94274 -0.1262,-0.30434 -0.43797,-0.30434 -0.31919,0 -0.45281,0.33403 -0.12619,0.33404 -0.12619,1.15058 v 1.50689 q 0.47508,-0.36373 1.08377,-0.36373 1.06893,0 1.66278,0.85366 0.60127,0.85365 0.60127,2.39766 0,1.75927 -0.71262,2.702 -0.70519,0.93531 -2.0265,0.93531 -1.26193,0 -1.8632,-0.73488 -0.59385,-0.74231 -0.74973,-1.92258 -0.14847,-1.18028 -0.14847,-3.19936 0,-2.94697 0.64581,-4.04559 0.65324,-1.10604 2.08589,-1.10604 1.0912,0 1.78897,0.68293 0.70519,0.68292 0.79427,1.90031 z m -3.16224,3.39236 v 2.29373 q 0,0.69777 0.11135,0.97985 0.11877,0.28208 0.46765,0.28208 0.34147,0 0.46766,-0.37116 0.12619,-0.37115 0.12619,-1.49946 0,-1.23224 -0.14104,-1.61824 -0.13361,-0.386 -0.4825,-0.386 -0.31919,0 -0.54931,0.3192 z"
         id="text153"
         transform="scale(1.0033812,0.99663019)"
         aria-label="6" /></g><g
       id="g154"
       transform="translate(0,-20)"><path
         id="circle153"
         style="vector-effect:non-scaling-stroke;fill:none;stroke:#ff0000;stroke-width:0.276031;stroke-linecap:round;stroke-linejoin:round;-inkscape-stroke:hairline"
         d="m 145.62439,285.44431 a 7.5,7.5 0 0 1 -7.5,7.5 7.5,7.5 0 0 1 -7.5,-7.5 7.5,7.5 0 0 1 7.5,-7.5 7.5,7.5 0 0 1 7.5,7.5 z" /><path
         style="font-weight:bold;font-size:15.2025px;line-height:0px;font-family:'Rockwell Condensed';-inkscape-font-specification:'Rockwell Condensed,  Bold';fill:#008000;stroke-width:0.285047;stroke-linecap:round;stroke-linejoin:round"
         d="m 135.73265,291.74664 v -1.59596 h 0.772 q 0.10392,-3.97136 2.04135,-7.58641 h -2.18981 v 1.43266 h -1.43266 v -2.9247 h 5.47082 v 1.23224 q -0.63838,1.19511 -1.13573,3.22904 -0.48993,2.02651 -0.50477,4.61717 h 0.82396 v 1.59596 z"
         id="text154"
         transform="scale(1.0033812,0.99663019)"
         aria-label="7" /></g><g
       id="g155"
       transform="translate(0,-20)"><path
         id="circle154"
         style="vector-effect:non-scaling-stroke;fill:none;stroke:#ff0000;stroke-width:0.276031;stroke-linecap:round;stroke-linejoin:round;-inkscape-stroke:hairline"
         d="m 165.62439,285.44431 a 7.5,7.5 0 0 1 -7.5,7.5 7.5,7.5 0 0 1 -7.5,-7.5 7.5,7.5 0 0 1 7.5,-7.5 7.5,7.5 0 0 1 7.5,7.5 z" /><path
         style="font-weight:bold;font-size:15.2025px;line-height:0px;font-family:'Rockwell Condensed';-inkscape-font-specification:'Rockwell Condensed,  Bold';fill:#008000;stroke-width:0.285047;stroke-linecap:round;stroke-linejoin:round"
         d="m 158.78665,285.79149 q 0.86108,0.40085 1.25451,1.05408 0.40084,0.65324 0.40084,1.72958 0,1.43266 -0.72004,2.28632 -0.72004,0.84623 -2.123,0.84623 -1.3807,0 -2.12301,-0.83139 -0.73488,-0.83881 -0.73488,-2.27146 0,-1.10604 0.39342,-1.75928 0.39342,-0.65323 1.24708,-1.05408 -1.48462,-0.6755 -1.48462,-2.33827 0,-1.23224 0.74973,-1.98939 0.74974,-0.76458 1.95228,-0.76458 1.19512,0 1.94485,0.76458 0.74973,0.76458 0.74973,1.98939 0,1.6702 -1.50689,2.33827 z m -0.40827,-2.07104 q 0,-0.89077 -0.18558,-1.2545 -0.17815,-0.37116 -0.62354,-0.37116 -0.42311,0 -0.59384,0.386 -0.16331,0.37858 -0.16331,1.29162 0,0.74973 0.17073,1.08377 0.17073,0.32662 0.58642,0.32662 0.43797,0 0.62354,-0.34889 0.18558,-0.34888 0.18558,-1.11346 z m -0.0148,4.5949 q 0,-1.02439 -0.18558,-1.46235 -0.17816,-0.43797 -0.59385,-0.43797 -0.42312,0 -0.59385,0.43797 -0.1633,0.43796 -0.1633,1.46235 0,1.13573 0.14846,1.56627 0.14846,0.42312 0.62354,0.42312 0.44538,0 0.60127,-0.45281 0.16331,-0.46023 0.16331,-1.53658 z"
         id="text155"
         transform="scale(1.0033812,0.99663019)"
         aria-label="8" /></g><g
       id="g156"
       transform="translate(0,-20)"><path
         id="circle155"
         style="vector-effect:non-scaling-stroke;fill:none;stroke:#ff0000;stroke-width:0.276031;stroke-linecap:round;stroke-linejoin:round;-inkscape-stroke:hairline"
         d="m 185.62439,285.44431 a 7.5,7.5 0 0 1 -7.5,7.5 7.5,7.5 0 0 1 -7.5,-7.5 7.5,7.5 0 0 1 7.5,-7.5 7.5,7.5 0 0 1 7.5,7.5 z" /><path
         style="font-weight:bold;font-size:15.2025px;line-height:0px;font-family:'Rockwell Condensed';-inkscape-font-specification:'Rockwell Condensed,  Bold';fill:#008000;stroke-width:0.285047;stroke-linecap:round;stroke-linejoin:round"
         d="m 174.94091,289.33043 2.00423,-0.15589 q 0.0223,0.64581 0.14846,0.95016 0.1262,0.29692 0.43054,0.29692 0.35631,0 0.47508,-0.39342 0.11877,-0.39343 0.11877,-1.59597 v -1.00212 q -0.4825,0.36374 -1.09119,0.36374 -1.06893,0 -1.66278,-0.84624 -0.59384,-0.85365 -0.59384,-2.4125 0,-1.85578 0.74973,-2.73913 0.74973,-0.89077 1.98939,-0.89077 1.47719,0 2.123,1.14316 0.64581,1.14316 0.64581,3.84516 v 1.35101 q 0,2.33085 -0.63838,3.5037 -0.63097,1.16542 -2.11559,1.16542 -1.08377,0 -1.78896,-0.68292 -0.7052,-0.69035 -0.79427,-1.90031 z m 3.17708,-3.39236 v -2.2195 q 0,-0.74231 -0.12619,-1.03924 -0.12619,-0.29692 -0.45281,-0.29692 -0.37115,0 -0.48992,0.39342 -0.11877,0.386 -0.11877,1.46978 0,1.22481 0.13361,1.61823 0.14104,0.39343 0.50477,0.39343 0.29693,0 0.54931,-0.3192 z"
         id="text156"
         transform="scale(1.0033812,0.99663019)"
         aria-label="9" /></g><g
       id="g157"
       transform="translate(0,-40)"><path
         id="circle156"
         style="vector-effect:non-scaling-stroke;fill:none;stroke:#ff0000;stroke-width:0.276031;stroke-linecap:round;stroke-linejoin:round;-inkscape-stroke:hairline"
         d="m 25.624405,285.44431 a 7.5,7.5 0 0 1 -7.5,7.5 7.5,7.5 0 0 1 -7.5,-7.5 7.5,7.5 0 0 1 7.5,-7.5 7.5,7.5 0 0 1 7.5,7.5 z" /><path
         style="font-weight:bold;font-size:15.2025px;line-height:0px;font-family:'Rockwell Condensed';-inkscape-font-specification:'Rockwell Condensed,  Bold';fill:#008000;stroke-width:0.285047;stroke-linecap:round;stroke-linejoin:round"
         d="m 16.111055,291.80603 v -1.59597 h 0.853656 v -6.59913 q -0.371154,0.15589 -0.853656,0.23012 v -1.55143 q 1.24708,-0.25238 2.20466,-1.27677 h 0.868502 v 9.19721 h 0.831387 v 1.59597 z"
         id="text157"
         transform="scale(1.0033812,0.99663019)"
         aria-label="1" /></g><g
       id="g158"
       transform="translate(0,-40)"><path
         id="circle157"
         style="vector-effect:non-scaling-stroke;fill:none;stroke:#ff0000;stroke-width:0.276031;stroke-linecap:round;stroke-linejoin:round;-inkscape-stroke:hairline"
         d="m 45.624405,285.44431 a 7.5,7.5 0 0 1 -7.5,7.5 7.5,7.5 0 0 1 -7.5,-7.5 7.5,7.5 0 0 1 7.5,-7.5 7.5,7.5 0 0 1 7.5,7.5 z" /><path
         style="font-weight:bold;font-size:15.2025px;line-height:0px;font-family:'Rockwell Condensed';-inkscape-font-specification:'Rockwell Condensed,  Bold';fill:#008000;stroke-width:0.285047;stroke-linecap:round;stroke-linejoin:round"
         d="m 40.764746,291.80603 h -5.507937 q 0,-1.32873 0.252385,-2.22693 0.252385,-0.90562 0.62354,-1.49946 0.378578,-0.59385 0.987272,-1.32131 0.682925,-0.81655 1.002118,-1.43266 0.326616,-0.62354 0.326616,-1.54401 0,-1.21738 -0.668078,-1.21738 -0.727464,0 -0.727464,1.29161 0,0.37858 0.04454,0.72747 l -1.855774,-0.10393 q -0.01485,-0.0816 -0.01485,-0.51961 0,-1.34358 0.727463,-2.14528 0.734886,-0.80169 1.96712,-0.80169 1.24708,0 2.019082,0.79427 0.772002,0.78685 0.772002,2.09331 0,0.82397 -0.282077,1.46978 -0.274655,0.64581 -0.675502,1.11346 -0.393424,0.46023 -1.05408,1.07635 -0.846233,0.79427 -1.261926,1.3807 -0.40827,0.58642 -0.415693,1.38811 h 2.145274 v -1.62565 h 1.595966 z"
         id="text158"
         transform="scale(1.0033812,0.99663019)"
         aria-label="2" /></g><g
       id="g159"
       transform="translate(0,-40)"><path
         id="circle158"
         style="vector-effect:non-scaling-stroke;fill:none;stroke:#ff0000;stroke-width:0.276031;stroke-linecap:round;stroke-linejoin:round;-inkscape-stroke:hairline"
         d="m 65.624405,285.44431 a 7.5,7.5 0 0 1 -7.5,7.5 7.5,7.5 0 0 1 -7.5,-7.5 7.5,7.5 0 0 1 7.5,-7.5 7.5,7.5 0 0 1 7.5,7.5 z" /><path
         style="font-weight:bold;font-size:15.2025px;line-height:0px;font-family:'Rockwell Condensed';-inkscape-font-specification:'Rockwell Condensed,  Bold';fill:#008000;stroke-width:0.285047;stroke-linecap:round;stroke-linejoin:round"
         d="m 55.152297,288.62523 1.87062,-0.16331 q 0,0.92789 0.04454,1.26193 0.04454,0.32662 0.200423,0.51219 0.163308,0.18558 0.437963,0.18558 0.423117,0 0.579002,-0.40827 0.155885,-0.40827 0.155885,-1.47719 0,-0.68293 -0.111347,-1.06151 -0.103923,-0.37857 -0.319193,-0.51219 -0.207847,-0.14104 -0.638386,-0.14104 v -1.59596 q 0.386001,0 0.541886,-0.0445 0.163308,-0.052 0.274654,-0.20785 0.11877,-0.15589 0.170731,-0.43054 0.05196,-0.28208 0.05196,-0.72004 0,-0.76458 -0.163308,-1.0912 -0.155885,-0.33403 -0.52704,-0.33403 -0.40827,0 -0.549309,0.40084 -0.141039,0.39343 -0.148462,1.23966 l -1.744427,-0.20042 q 0.155885,-2.93213 2.612929,-2.93213 1.224811,0 1.944852,0.72004 0.727463,0.72004 0.727463,2.12301 0,0.85366 -0.296924,1.37327 -0.296924,0.51962 -0.950156,0.86108 1.388119,0.78685 1.388119,2.76882 0,1.4475 -0.749733,2.30858 -0.742309,0.85365 -2.004236,0.85365 -1.373273,0 -2.08589,-0.74973 -0.712617,-0.75715 -0.712617,-2.5387 z"
         id="text159"
         transform="scale(1.0033812,0.99663019)"
         aria-label="3" /></g><g
       id="g161"
       transform="translate(0,-40)"><path
         id="circle159"
         style="vector-effect:non-scaling-stroke;fill:none;stroke:#ff0000;stroke-width:0.276031;stroke-linecap:round;stroke-linejoin:round;-inkscape-stroke:hairline"
         d="m 85.624405,285.44431 a 7.5,7.5 0 0 1 -7.5,7.5 7.5,7.5 0 0 1 -7.5,-7.5 7.5,7.5 0 0 1 7.5,-7.5 7.5,7.5 0 0 1 7.5,7.5 z" /><path
         style="font-weight:bold;font-size:15.2025px;line-height:0px;font-family:'Rockwell Condensed';-inkscape-font-specification:'Rockwell Condensed,  Bold';fill:#008000;stroke-width:0.285047;stroke-linecap:round;stroke-linejoin:round"
         d="m 76.890924,291.80603 v -1.59597 h 0.764579 v -1.4475 h -2.679738 q -0.06681,-0.55673 -0.319193,-1.18027 l 3.102854,-6.56944 h 1.885466 v 6.45809 h 0.62354 v 1.29162 h -0.62354 v 1.4475 h 0.62354 v 1.59597 z m 0.764579,-4.33509 q 0,-2.54612 0.148462,-3.71897 h -0.200424 q -0.556732,1.90031 -1.469773,3.71897 z"
         id="text161"
         transform="scale(1.0033812,0.99663019)"
         aria-label="4" /></g><g
       id="g162"
       transform="translate(0,-40)"><path
         id="circle161"
         style="vector-effect:non-scaling-stroke;fill:none;stroke:#ff0000;stroke-width:0.276031;stroke-linecap:round;stroke-linejoin:round;-inkscape-stroke:hairline"
         d="m 105.6244,285.44431 a 7.5,7.5 0 0 1 -7.499995,7.5 7.5,7.5 0 0 1 -7.5,-7.5 7.5,7.5 0 0 1 7.5,-7.5 7.5,7.5 0 0 1 7.499995,7.5 z" /><path
         style="font-weight:bold;font-size:15.2025px;line-height:0px;font-family:'Rockwell Condensed';-inkscape-font-specification:'Rockwell Condensed,  Bold';fill:#008000;stroke-width:0.285047;stroke-linecap:round;stroke-linejoin:round"
         d="m 95.050911,288.99639 1.811236,-0.21527 q 0.02227,0.79427 0.185577,1.18027 0.163308,0.386 0.52704,0.386 0.386001,0 0.541886,-0.44539 0.155885,-0.45281 0.155885,-1.78896 0,-1.13574 -0.133616,-1.50689 -0.133616,-0.37858 -0.549309,-0.37858 -0.601271,0 -0.668079,0.92789 l -1.477196,-0.82397 0.259809,-5.36689 h 4.320246 v 2.13042 h -1.388123 l -0.02969,-0.65323 h -1.484619 l -0.126193,2.70943 q 0.62354,-0.59385 1.417812,-0.59385 1.03181,0 1.573696,0.87593 0.54931,0.8685 0.54931,2.5387 0,3.88228 -2.872739,3.88228 -2.39766,0 -2.61293,-2.85789 z"
         id="text162"
         transform="scale(1.0033812,0.99663019)"
         aria-label="5" /></g><g
       id="g163"
       transform="translate(0,-40)"><path
         id="circle162"
         style="vector-effect:non-scaling-stroke;fill:none;stroke:#ff0000;stroke-width:0.276031;stroke-linecap:round;stroke-linejoin:round;-inkscape-stroke:hairline"
         d="m 125.6244,285.44431 a 7.5,7.5 0 0 1 -7.5,7.5 7.5,7.5 0 0 1 -7.5,-7.5 7.5,7.5 0 0 1 7.5,-7.5 7.5,7.5 0 0 1 7.5,7.5 z" /><path
         style="font-weight:bold;font-size:15.2025px;line-height:0px;font-family:'Rockwell Condensed';-inkscape-font-specification:'Rockwell Condensed,  Bold';fill:#008000;stroke-width:0.285047;stroke-linecap:round;stroke-linejoin:round"
         d="m 120.29102,283.48845 -2.00424,0.15589 q -0.0148,-0.64581 -0.14103,-0.94274 -0.1262,-0.30434 -0.43797,-0.30434 -0.31919,0 -0.45281,0.33403 -0.12619,0.33404 -0.12619,1.15058 v 1.50689 q 0.47508,-0.36373 1.08377,-0.36373 1.06893,0 1.66278,0.85366 0.60127,0.85365 0.60127,2.39766 0,1.75927 -0.71262,2.702 -0.70519,0.93531 -2.0265,0.93531 -1.26193,0 -1.8632,-0.73488 -0.59385,-0.74231 -0.74973,-1.92258 -0.14847,-1.18028 -0.14847,-3.19936 0,-2.94697 0.64581,-4.04559 0.65324,-1.10604 2.08589,-1.10604 1.0912,0 1.78897,0.68293 0.70519,0.68292 0.79427,1.90031 z m -3.16224,3.39236 v 2.29373 q 0,0.69777 0.11135,0.97985 0.11877,0.28208 0.46765,0.28208 0.34147,0 0.46766,-0.37116 0.12619,-0.37115 0.12619,-1.49946 0,-1.23224 -0.14104,-1.61824 -0.13361,-0.386 -0.4825,-0.386 -0.31919,0 -0.54931,0.3192 z"
         id="text163"
         transform="scale(1.0033812,0.99663019)"
         aria-label="6" /></g><g
       id="g164"
       transform="translate(0,-40)"><path
         id="circle163"
         style="vector-effect:non-scaling-stroke;fill:none;stroke:#ff0000;stroke-width:0.276031;stroke-linecap:round;stroke-linejoin:round;-inkscape-stroke:hairline"
         d="m 145.62439,285.44431 a 7.5,7.5 0 0 1 -7.5,7.5 7.5,7.5 0 0 1 -7.5,-7.5 7.5,7.5 0 0 1 7.5,-7.5 7.5,7.5 0 0 1 7.5,7.5 z" /><path
         style="font-weight:bold;font-size:15.2025px;line-height:0px;font-family:'Rockwell Condensed';-inkscape-font-specification:'Rockwell Condensed,  Bold';fill:#008000;stroke-width:0.285047;stroke-linecap:round;stroke-linejoin:round"
         d="m 135.73265,291.74664 v -1.59596 h 0.772 q 0.10392,-3.97136 2.04135,-7.58641 h -2.18981 v 1.43266 h -1.43266 v -2.9247 h 5.47082 v 1.23224 q -0.63838,1.19511 -1.13573,3.22904 -0.48993,2.02651 -0.50477,4.61717 h 0.82396 v 1.59596 z"
         id="text164"
         transform="scale(1.0033812,0.99663019)"
         aria-label="7" /></g><g
       id="g165"
       transform="translate(0,-40)"><path
         id="circle164"
         style="vector-effect:non-scaling-stroke;fill:none;stroke:#ff0000;stroke-width:0.276031;stroke-linecap:round;stroke-linejoin:round;-inkscape-stroke:hairline"
         d="m 165.62439,285.44431 a 7.5,7.5 0 0 1 -7.5,7.5 7.5,7.5 0 0 1 -7.5,-7.5 7.5,7.5 0 0 1 7.5,-7.5 7.5,7.5 0 0 1 7.5,7.5 z" /><path
         style="font-weight:bold;font-size:15.2025px;line-height:0px;font-family:'Rockwell Condensed';-inkscape-font-specification:'Rockwell Condensed,  Bold';fill:#008000;stroke-width:0.285047;stroke-linecap:round;stroke-linejoin:round"
         d="m 158.78665,285.79149 q 0.86108,0.40085 1.25451,1.05408 0.40084,0.65324 0.40084,1.72958 0,1.43266 -0.72004,2.28632 -0.72004,0.84623 -2.123,0.84623 -1.3807,0 -2.12301,-0.83139 -0.73488,-0.83881 -0.73488,-2.27146 0,-1.10604 0.39342,-1.75928 0.39342,-0.65323 1.24708,-1.05408 -1.48462,-0.6755 -1.48462,-2.33827 0,-1.23224 0.74973,-1.98939 0.74974,-0.76458 1.95228,-0.76458 1.19512,0 1.94485,0.76458 0.74973,0.76458 0.74973,1.98939 0,1.6702 -1.50689,2.33827 z m -0.40827,-2.07104 q 0,-0.89077 -0.18558,-1.2545 -0.17815,-0.37116 -0.62354,-0.37116 -0.42311,0 -0.59384,0.386 -0.16331,0.37858 -0.16331,1.29162 0,0.74973 0.17073,1.08377 0.17073,0.32662 0.58642,0.32662 0.43797,0 0.62354,-0.34889 0.18558,-0.34888 0.18558,-1.11346 z m -0.0148,4.5949 q 0,-1.02439 -0.18558,-1.46235 -0.17816,-0.43797 -0.59385,-0.43797 -0.42312,0 -0.59385,0.43797 -0.1633,0.43796 -0.1633,1.46235 0,1.13573 0.14846,1.56627 0.14846,0.42312 0.62354,0.42312 0.44538,0 0.60127,-0.45281 0.16331,-0.46023 0.16331,-1.53658 z"
         id="text165"
         transform="scale(1.0033812,0.99663019)"
         aria-label="8" /></g><g
       id="g166"
       transform="translate(0,-40)"><path
         id="circle165"
         style="vector-effect:non-scaling-stroke;fill:none;stroke:#ff0000;stroke-width:0.276031;stroke-linecap:round;stroke-linejoin:round;-inkscape-stroke:hairline"
         d="m 185.62439,285.44431 a 7.5,7.5 0 0 1 -7.5,7.5 7.5,7.5 0 0 1 -7.5,-7.5 7.5,7.5 0 0 1 7.5,-7.5 7.5,7.5 0 0 1 7.5,7.5 z" /><path
         style="font-weight:bold;font-size:15.2025px;line-height:0px;font-family:'Rockwell Condensed';-inkscape-font-specification:'Rockwell Condensed,  Bold';fill:#008000;stroke-width:0.285047;stroke-linecap:round;stroke-linejoin:round"
         d="m 174.94091,289.33043 2.00423,-0.15589 q 0.0223,0.64581 0.14846,0.95016 0.1262,0.29692 0.43054,0.29692 0.35631,0 0.47508,-0.39342 0.11877,-0.39343 0.11877,-1.59597 v -1.00212 q -0.4825,0.36374 -1.09119,0.36374 -1.06893,0 -1.66278,-0.84624 -0.59384,-0.85365 -0.59384,-2.4125 0,-1.85578 0.74973,-2.73913 0.74973,-0.89077 1.98939,-0.89077 1.47719,0 2.123,1.14316 0.64581,1.14316 0.64581,3.84516 v 1.35101 q 0,2.33085 -0.63838,3.5037 -0.63097,1.16542 -2.11559,1.16542 -1.08377,0 -1.78896,-0.68292 -0.7052,-0.69035 -0.79427,-1.90031 z m 3.17708,-3.39236 v -2.2195 q 0,-0.74231 -0.12619,-1.03924 -0.12619,-0.29692 -0.45281,-0.29692 -0.37115,0 -0.48992,0.39342 -0.11877,0.386 -0.11877,1.46978 0,1.22481 0.13361,1.61823 0.14104,0.39343 0.50477,0.39343 0.29693,0 0.54931,-0.3192 z"
         id="text166"
         transform="scale(1.0033812,0.99663019)"
         aria-label="9" /></g><g
       id="g174"
       transform="translate(0,-20)"><path
         id="circle172"
         style="vector-effect:non-scaling-stroke;fill:none;stroke:#ff0000;stroke-width:0.276031;stroke-linecap:round;stroke-linejoin:round;-inkscape-stroke:hairline"
         d="m 25.624405,225.44431 a 7.5,7.5 0 0 1 -7.5,7.5 7.5,7.5 0 0 1 -7.5,-7.5 7.5,7.5 0 0 1 7.5,-7.5 7.5,7.5 0 0 1 7.5,7.5 z" /><g
         id="g173"
         transform="translate(-0.46751452,0.31254649)"><path
           style="font-weight:bold;font-size:15.2025px;line-height:0px;font-family:'Rockwell Condensed';-inkscape-font-specification:'Rockwell Condensed,  Bold';fill:#008000;stroke-width:0.285047;stroke-linecap:round;stroke-linejoin:round"
           d="m 13.652108,231.28957 v -1.59597 h 0.853656 v -6.59913 q -0.371155,0.15588 -0.853656,0.23011 v -1.55142 q 1.24708,-0.25239 2.20466,-1.27678 h 0.868502 v 9.19722 h 0.831387 v 1.59597 z"
           id="text172"
           transform="scale(1.0033812,0.99663019)"
           aria-label="1" /><path
           d="m 18.670179,225.05926 h 2.259753 v -2.2648 h 1.089524 v 2.2648 h 2.259753 v 1.08448 h -2.259753 v 2.25975 h -1.089524 v -2.25975 h -2.259753 z"
           id="text173"
           style="font-weight:bold;font-size:10.3303px;line-height:0px;font-family:'Rockwell Condensed';-inkscape-font-specification:'Rockwell Condensed,  Bold';fill:#008000;stroke-width:0.242117;stroke-linecap:round;stroke-linejoin:round"
           aria-label="+" /></g></g><g
       id="g176"
       transform="translate(0,-20)"><path
         id="circle174"
         style="vector-effect:non-scaling-stroke;fill:none;stroke:#ff0000;stroke-width:0.276031;stroke-linecap:round;stroke-linejoin:round;-inkscape-stroke:hairline"
         d="m 45.624405,225.44431 a 7.5,7.5 0 0 1 -7.5,7.5 7.5,7.5 0 0 1 -7.5,-7.5 7.5,7.5 0 0 1 7.5,-7.5 7.5,7.5 0 0 1 7.5,7.5 z" /><g
         id="g175"
         transform="translate(0.31546387,0.31254649)"><path
           style="font-weight:bold;font-size:15.2025px;line-height:0px;font-family:'Rockwell Condensed';-inkscape-font-specification:'Rockwell Condensed,  Bold';fill:#008000;stroke-width:0.285047;stroke-linecap:round;stroke-linejoin:round"
           d="m 38.194453,231.28957 h -5.507937 q 0,-1.32874 0.252385,-2.22693 0.252385,-0.90562 0.62354,-1.49947 0.378578,-0.59385 0.987272,-1.32131 0.682924,-0.81654 1.002118,-1.43266 0.326616,-0.62354 0.326616,-1.544 0,-1.21739 -0.668079,-1.21739 -0.727463,0 -0.727463,1.29162 0,0.37858 0.04454,0.72746 l -1.855774,-0.10392 q -0.01485,-0.0817 -0.01485,-0.51962 0,-1.34358 0.727464,-2.14527 0.734886,-0.8017 1.96712,-0.8017 1.24708,0 2.019082,0.79428 0.772002,0.78684 0.772002,2.09331 0,0.82396 -0.282078,1.46977 -0.274654,0.64581 -0.675501,1.11347 -0.393424,0.46023 -1.05408,1.07635 -0.846233,0.79427 -1.261926,1.38069 -0.408271,0.58643 -0.415694,1.38812 h 2.145275 v -1.62566 h 1.595966 z"
           id="text174"
           transform="scale(1.0033812,0.99663019)"
           aria-label="2" /><path
           d="m 38.670179,225.05926 h 2.259753 v -2.2648 h 1.089524 v 2.2648 h 2.259753 v 1.08448 h -2.259753 v 2.25975 h -1.089524 v -2.25975 h -2.259753 z"
           id="text175"
           style="font-weight:bold;font-size:10.3303px;line-height:0px;font-family:'Rockwell Condensed';-inkscape-font-specification:'Rockwell Condensed,  Bold';fill:#008000;stroke-width:0.242117;stroke-linecap:round;stroke-linejoin:round"
           aria-label="+" /></g></g><g
       id="g178"
       transform="translate(0,-20)"><path
         id="circle176"
         style="vector-effect:non-scaling-stroke;fill:none;stroke:#ff0000;stroke-width:0.276031;stroke-linecap:round;stroke-linejoin:round;-inkscape-stroke:hairline"
         d="m 65.624405,225.44431 a 7.5,7.5 0 0 1 -7.5,7.5 7.5,7.5 0 0 1 -7.5,-7.5 7.5,7.5 0 0 1 7.5,-7.5 7.5,7.5 0 0 1 7.5,7.5 z" /><g
         id="g177"
         transform="translate(-0.10375459,0.2052743)"><path
           style="font-weight:bold;font-size:15.2025px;line-height:0px;font-family:'Rockwell Condensed';-inkscape-font-specification:'Rockwell Condensed,  Bold';fill:#008000;stroke-width:0.285047;stroke-linecap:round;stroke-linejoin:round"
           d="m 52.633964,228.2164 1.87062,-0.1633 q 0,0.92788 0.04454,1.26192 0.04454,0.32662 0.200424,0.5122 0.163308,0.18557 0.437963,0.18557 0.423116,0 0.579001,-0.40827 0.155885,-0.40827 0.155885,-1.47719 0,-0.68293 -0.111346,-1.06151 -0.103924,-0.37857 -0.319193,-0.51219 -0.207847,-0.14104 -0.638387,-0.14104 v -1.59596 q 0.386001,0 0.541886,-0.0445 0.163308,-0.052 0.274655,-0.20785 0.118769,-0.15588 0.170731,-0.43054 0.05196,-0.28208 0.05196,-0.72004 0,-0.76458 -0.163308,-1.09119 -0.155885,-0.33404 -0.52704,-0.33404 -0.40827,0 -0.549309,0.40084 -0.141039,0.39343 -0.148462,1.23966 l -1.744428,-0.20042 q 0.155885,-2.93213 2.61293,-2.93213 1.224811,0 1.944851,0.72004 0.727464,0.72005 0.727464,2.12301 0,0.85366 -0.296924,1.37327 -0.296924,0.51962 -0.950157,0.86108 1.388119,0.78685 1.388119,2.76882 0,1.4475 -0.749732,2.30858 -0.74231,0.85366 -2.004236,0.85366 -1.373273,0 -2.08589,-0.74974 -0.712617,-0.75715 -0.712617,-2.5387 z"
           id="text176"
           transform="scale(1.0033812,0.99663019)"
           aria-label="3" /><path
           d="m 58.670179,225.05926 h 2.259753 v -2.2648 h 1.089524 v 2.2648 h 2.259753 v 1.08448 h -2.259753 v 2.25975 h -1.089524 v -2.25975 h -2.259753 z"
           id="text177"
           style="font-weight:bold;font-size:10.3303px;line-height:0px;font-family:'Rockwell Condensed';-inkscape-font-specification:'Rockwell Condensed,  Bold';fill:#008000;stroke-width:0.242117;stroke-linecap:round;stroke-linejoin:round"
           aria-label="+" /></g></g><g
       id="g181"
       transform="translate(0,-20)"><path
         id="circle178"
         style="vector-effect:non-scaling-stroke;fill:none;stroke:#ff0000;stroke-width:0.276031;stroke-linecap:round;stroke-linejoin:round;-inkscape-stroke:hairline"
         d="m 85.624405,225.44431 a 7.5,7.5 0 0 1 -7.5,7.5 7.5,7.5 0 0 1 -7.5,-7.5 7.5,7.5 0 0 1 7.5,-7.5 7.5,7.5 0 0 1 7.5,7.5 z" /><g
         id="g180"
         transform="translate(-0.23269624,0.31254649)"><path
           style="font-weight:bold;font-size:15.2025px;line-height:0px;font-family:'Rockwell Condensed';-inkscape-font-specification:'Rockwell Condensed,  Bold';fill:#008000;stroke-width:0.285047;stroke-linecap:round;stroke-linejoin:round"
           d="m 74.741533,231.28957 v -1.59597 h 0.764579 v -1.4475 h -2.679738 q -0.06681,-0.55674 -0.319193,-1.18028 l 3.102854,-6.56944 h 1.885466 v 6.4581 h 0.62354 v 1.29162 h -0.62354 v 1.4475 h 0.62354 v 1.59597 z m 0.764579,-4.33509 q 0,-2.54612 0.148461,-3.71897 H 75.45415 q -0.556732,1.90031 -1.469773,3.71897 z"
           id="text179"
           transform="scale(1.0033812,0.99663019)"
           aria-label="4" /><path
           d="m 78.670179,225.05926 h 2.259753 v -2.2648 h 1.089524 v 2.2648 h 2.259753 v 1.08448 h -2.259753 v 2.25975 h -1.089524 v -2.25975 h -2.259753 z"
           id="text180"
           style="font-weight:bold;font-size:10.3303px;line-height:0px;font-family:'Rockwell Condensed';-inkscape-font-specification:'Rockwell Condensed,  Bold';fill:#008000;stroke-width:0.242117;stroke-linecap:round;stroke-linejoin:round"
           aria-label="+" /></g></g><g
       id="g183"
       transform="translate(0,-20)"><path
         id="circle181"
         style="vector-effect:non-scaling-stroke;fill:none;stroke:#ff0000;stroke-width:0.276031;stroke-linecap:round;stroke-linejoin:round;-inkscape-stroke:hairline"
         d="m 105.6244,225.44431 a 7.5,7.5 0 0 1 -7.499995,7.5 7.5,7.5 0 0 1 -7.5,-7.5 7.5,7.5 0 0 1 7.5,-7.5 7.5,7.5 0 0 1 7.499995,7.5 z" /><g
         id="g182"
         transform="translate(0.01703169,0.14608965)"><path
           style="font-weight:bold;font-size:15.2025px;line-height:0px;font-family:'Rockwell Condensed';-inkscape-font-specification:'Rockwell Condensed,  Bold';fill:#008000;stroke-width:0.285047;stroke-linecap:round;stroke-linejoin:round"
           d="m 92.469475,228.64694 1.811235,-0.21527 q 0.02227,0.79428 0.185578,1.18028 0.163308,0.386 0.52704,0.386 0.386001,0 0.541886,-0.44539 0.155885,-0.45281 0.155885,-1.78896 0,-1.13574 -0.133616,-1.50689 -0.133616,-0.37858 -0.549309,-0.37858 -0.601271,0 -0.668079,0.92789 l -1.477196,-0.82397 0.259809,-5.3669 h 4.320241 v 2.13043 H 96.05483 l -0.02969,-0.65323 h -1.484619 l -0.126193,2.70943 q 0.62354,-0.59385 1.417812,-0.59385 1.03181,0 1.573696,0.87593 0.549309,0.8685 0.549309,2.5387 0,3.88228 -2.872738,3.88228 -2.39766,0 -2.61293,-2.8579 z"
           id="text181"
           transform="scale(1.0033812,0.99663019)"
           aria-label="5" /><path
           d="m 98.670179,225.05926 h 2.259751 v -2.2648 h 1.08953 v 2.2648 h 2.25975 v 1.08448 h -2.25975 v 2.25975 h -1.08953 v -2.25975 h -2.259751 z"
           id="text182"
           style="font-weight:bold;font-size:10.3303px;line-height:0px;font-family:'Rockwell Condensed';-inkscape-font-specification:'Rockwell Condensed,  Bold';fill:#008000;stroke-width:0.242117;stroke-linecap:round;stroke-linejoin:round"
           aria-label="+" /></g></g><g
       id="g185"
       transform="translate(0,-20)"><path
         id="circle183"
         style="vector-effect:non-scaling-stroke;fill:none;stroke:#ff0000;stroke-width:0.276031;stroke-linecap:round;stroke-linejoin:round;-inkscape-stroke:hairline"
         d="m 125.6244,225.44431 a 7.5,7.5 0 0 1 -7.5,7.5 7.5,7.5 0 0 1 -7.5,-7.5 7.5,7.5 0 0 1 7.5,-7.5 7.5,7.5 0 0 1 7.5,7.5 z" /><g
         id="g184"
         transform="translate(-0.06117718,0.2052743)"><path
           style="font-weight:bold;font-size:15.2025px;line-height:0px;font-family:'Rockwell Condensed';-inkscape-font-specification:'Rockwell Condensed,  Bold';fill:#008000;stroke-width:0.285047;stroke-linecap:round;stroke-linejoin:round"
           d="m 117.87289,223.07962 -2.00423,0.15589 q -0.0149,-0.64581 -0.14104,-0.94274 -0.1262,-0.30434 -0.43797,-0.30434 -0.31919,0 -0.45281,0.33404 -0.12619,0.33404 -0.12619,1.15058 v 1.50688 q 0.47508,-0.36373 1.08377,-0.36373 1.06893,0 1.66278,0.85366 0.60127,0.85365 0.60127,2.39766 0,1.75927 -0.71262,2.70201 -0.70519,0.93531 -2.0265,0.93531 -1.26193,0 -1.8632,-0.73489 -0.59385,-0.74231 -0.74973,-1.92258 -0.14847,-1.18027 -0.14847,-3.19936 0,-2.94697 0.64581,-4.04558 0.65324,-1.10605 2.08589,-1.10605 1.0912,0 1.78897,0.68293 0.70519,0.68292 0.79427,1.90031 z m -3.16224,3.39236 v 2.29373 q 0,0.69777 0.11135,0.97985 0.11877,0.28208 0.46765,0.28208 0.34147,0 0.46766,-0.37116 0.12619,-0.37115 0.12619,-1.49946 0,-1.23223 -0.14104,-1.61824 -0.13361,-0.386 -0.4825,-0.386 -0.31919,0 -0.54931,0.3192 z"
           id="text183"
           transform="scale(1.0033812,0.99663019)"
           aria-label="6" /><path
           d="m 118.67018,225.05926 h 2.25975 v -2.2648 h 1.08953 v 2.2648 h 2.25975 v 1.08448 h -2.25975 v 2.25975 h -1.08953 v -2.25975 h -2.25975 z"
           id="text184"
           style="font-weight:bold;font-size:10.3303px;line-height:0px;font-family:'Rockwell Condensed';-inkscape-font-specification:'Rockwell Condensed,  Bold';fill:#008000;stroke-width:0.242117;stroke-linecap:round;stroke-linejoin:round"
           aria-label="+" /></g></g></g></svg>
