  0
SECTION
  2
HEADER
  9
$ACADVER
  1
AC1009
  9
$DWGCODEPAGE
  3
ansi_1252
  9
$INSBASE
 10
0.0
 20
0.0
 30
0.0
  9
$EXTMIN
 10
0.0
 20
0.0
 30
0.0
  9
$EXTMAX
 10
594.0
 20
420.0
 30
0.0
  9
$LIMMIN
 10
0.0
 20
0.0
  9
$LIMMAX
 10
594.0
 20
420.0
  9
$ORTHOMODE
 70
     0
  9
$REGENMODE
 70
     1
  9
$FILLMODE
 70
     1
  9
$QTEXTMODE
 70
     0
  9
$MIRRTEXT
 70
     1
  9
$DRAGMODE
 70
     2
  9
$LTSCALE
 40
1.0
  9
$OSMODE
 70
    37
  9
$ATTMODE
 70
     1
  9
$TEXTSIZE
 40
3.5
  9
$TRACEWID
 40
1.0
  9
$TEXTSTYLE
  7
STANDARD
  9
$CLAYER
  8
0
  9
$CELTYPE
  6
BYLAYER
  9
$CECOLOR
 62
   256
  9
$DIMSCALE
 40
1.0
  9
$DIMASZ
 40
2.5
  9
$DIMEXO
 40
0.625
  9
$DIMDLI
 40
3.75
  9
$DIMRND
 40
0.0
  9
$DIMDLE
 40
0.0
  9
$DIMEXE
 40
1.25
  9
$DIMTP
 40
0.0
  9
$DIMTM
 40
0.0
  9
$DIMTXT
 40
2.5
  9
$DIMCEN
 40
2.5
  9
$DIMTSZ
 40
0.0
  9
$DIMTOL
 70
     0
  9
$DIMLIM
 70
     0
  9
$DIMTIH
 70
     0
  9
$DIMTOH
 70
     0
  9
$DIMSE1
 70
     0
  9
$DIMSE2
 70
     0
  9
$DIMTAD
 70
     1
  9
$DIMZIN
 70
     8
  9
$DIMBLK
  1

  9
$DIMASO
 70
     1
  9
$DIMSHO
 70
     1
  9
$DIMPOST
  1

  9
$DIMAPOST
  1

  9
$DIMALT
 70
     0
  9
$DIMALTD
 70
     3
  9
$DIMALTF
 40
0.0393700787
  9
$DIMLFAC
 40
1.0
  9
$DIMTOFL
 70
     1
  9
$DIMTVP
 40
0.0
  9
$DIMTIX
 70
     0
  9
$DIMSOXD
 70
     0
  9
$DIMSAH
 70
     0
  9
$DIMBLK1
  1

  9
$DIMBLK2
  1

  9
$DIMSTYLE
  2
ISO-25
  9
$DIMCLRD
 70
     0
  9
$DIMCLRE
 70
     0
  9
$DIMCLRT
 70
     0
  9
$DIMTFAC
 40
1.0
  9
$DIMGAP
 40
0.625
  9
$LUNITS
 70
     2
  9
$LUPREC
 70
     4
  9
$SKETCHINC
 40
1.0
  9
$FILLETRAD
 40
10.0
  9
$AUNITS
 70
     0
  9
$AUPREC
 70
     0
  9
$MENU
  1
.
  9
$ELEVATION
 40
0.0
  9
$PELEVATION
 40
0.0
  9
$THICKNESS
 40
0.0
  9
$LIMCHECK
 70
     0
  9
$CHAMFERA
 40
0.0
  9
$CHAMFERB
 40
0.0
  9
$SKPOLY
 70
     0
  9
$TDCREATE
 40
2457797.721911632
  9
$TDUPDATE
 40
2457797.721912928
  9
$TDINDWG
 40
0.0000000116
  9
$TDUSRTIMER
 40
0.0000000116
  9
$USRTIMER
 70
     1
  9
$ANGBASE
 50
0.0
  9
$ANGDIR
 70
     0
  9
$PDMODE
 70
     0
  9
$PDSIZE
 40
0.0
  9
$PLINEWID
 40
0.0
  9
$COORDS
 70
     1
  9
$SPLFRAME
 70
     0
  9
$SPLINETYPE
 70
     6
  9
$SPLINESEGS
 70
     8
  9
$ATTDIA
 70
     0
  9
$ATTREQ
 70
     1
  9
$HANDLING
 70
     1
  9
$HANDSEED
  5
111
  9
$SURFTAB1
 70
     6
  9
$SURFTAB2
 70
     6
  9
$SURFTYPE
 70
     6
  9
$SURFU
 70
     6
  9
$SURFV
 70
     6
  9
$UCSNAME
  2

  9
$UCSORG
 10
0.0
 20
0.0
 30
0.0
  9
$UCSXDIR
 10
1.0
 20
0.0
 30
0.0
  9
$UCSYDIR
 10
0.0
 20
1.0
 30
0.0
  9
$PUCSNAME
  2

  9
$PUCSORG
 10
0.0
 20
0.0
 30
0.0
  9
$PUCSXDIR
 10
1.0
 20
0.0
 30
0.0
  9
$PUCSYDIR
 10
0.0
 20
1.0
 30
0.0
  9
$USERI1
 70
     0
  9
$USERI2
 70
     0
  9
$USERI3
 70
     0
  9
$USERI4
 70
     0
  9
$USERI5
 70
     0
  9
$USERR1
 40
0.0
  9
$USERR2
 40
0.0
  9
$USERR3
 40
0.0
  9
$USERR4
 40
0.0
  9
$USERR5
 40
0.0
  9
$WORLDVIEW
 70
     1
  9
$SHADEDGE
 70
     3
  9
$SHADEDIF
 70
    70
  9
$TILEMODE
 70
     1
  9
$MAXACTVP
 70
    64
  9
$PLIMCHECK
 70
     0
  9
$PEXTMIN
 10
0.0
 20
0.0
 30
0.0
  9
$PEXTMAX
 10
594.0
 20
420.0
 30
0.0
  9
$PLIMMIN
 10
0.0
 20
0.0
  9
$PLIMMAX
 10
594.0
 20
420.0
  9
$UNITMODE
 70
     0
  9
$VISRETAIN
 70
     1
  9
$PLINEGEN
 70
     0
  9
$PSLTSCALE
 70
     1
  0
ENDSEC
  0
SECTION
  2
TABLES
  0
TABLE
  2
VPORT
 70
     1
  0
VPORT
  2
*ACTIVE
 70
     0
 10
0.0
 20
0.0
 11
1.0
 21
1.0
 12
344.1869158879
 22
148.5
 13
0.0
 23
0.0
 14
10.0
 24
10.0
 15
10.0
 25
10.0
 16
0.0
 26
0.0
 36
1.0
 17
0.0
 27
0.0
 37
0.0
 40
297.0
 41
1.9729729729
 42
50.0
 43
0.0
 44
0.0
 50
0.0
 51
0.0
 71
     0
 72
   100
 73
     1
 74
     3
 75
     0
 76
     0
 77
     0
 78
     0
  0
ENDTAB
  0
TABLE
  2
LTYPE
 70
     1
  0
LTYPE
  2
CONTINUOUS
 70
     0
  3
Solid line
 72
    65
 73
     0
 40
0.0
  0
ENDTAB
  0
TABLE
  2
LAYER
 70
     2
  0
LAYER
  2
0
 70
     0
 62
     7
  6
CONTINUOUS
  0
LAYER
  2
STANDARD
 70
     0
 62
     7
  6
CONTINUOUS
  0
ENDTAB
  0
TABLE
  2
STYLE
 70
     1
  0
STYLE
  2
STANDARD
 70
     0
 40
0.0
 41
1.0
 50
0.0
 71
     0
 42
3.5
  3
txt
  4

  0
ENDTAB
  0
TABLE
  2
VIEW
 70
     0
  0
ENDTAB
  0
TABLE
  2
UCS
 70
     0
  0
ENDTAB
  0
TABLE
  2
APPID
 70
     1
  0
APPID
  2
ACAD
 70
     0
  0
ENDTAB
  0
TABLE
  2
DIMSTYLE
 70
     1
  0
DIMSTYLE
  2
ISO-25
 70
     0
  3

  4

  5

  6

  7

 40
1.0
 41
2.5
 42
0.625
 43
3.75
 44
1.25
 45
0.0
 46
0.0
 47
0.0
 48
0.0
140
2.5
141
2.5
142
0.0
143
0.0393700787
144
1.0
145
0.0
146
1.0
147
0.625
 71
     0
 72
     0
 73
     0
 74
     0
 75
     0
 76
     0
 77
     1
 78
     8
170
     0
171
     3
172
     1
173
     0
174
     0
175
     0
176
     0
177
     0
178
     0
  0
ENDTAB
  0
ENDSEC
  0
SECTION
  2
BLOCKS
  0
BLOCK
  8
0
  2
$MODEL_SPACE
 70
     0
 10
0.0
 20
0.0
 30
0.0
  3
$MODEL_SPACE
  1

  0
ENDBLK
  5
21
  8
0
  0
BLOCK
 67
     1
  8
0
  2
$PAPER_SPACE
 70
     0
 10
0.0
 20
0.0
 30
0.0
  3
$PAPER_SPACE
  1

  0
ENDBLK
  5
1D
 67
     1
  8
0
  0
BLOCK
  8
0
  2
*X1
 70
     1
 10
0.0
 20
0.0
 30
0.0
  3
*X1
  1

  0
TEXT
  5
10B
  8
0
  6
CONTINUOUS
 62
     7
 10
117.1709100888
 20
167.7197700014
 30
0.0
 40
3.5
  1
One Hand Book Holder
  0
TEXT
  5
10C
  8
0
  6
CONTINUOUS
 62
     7
 10
154.8169100888
 20
167.7197700014
 30
0.0
 40
3.5
  1
 - ZenziWerken - 6 mm material
  0
ENDBLK
  5
10E
  8
0
  0
ENDSEC
  0
SECTION
  2
ENTITIES
  0
ARC
  5
6F
  8
STANDARD
  6
CONTINUOUS
 62
     7
 10
134.6494354011
 20
227.1263382216
 30
0.0
 40
20.00000230790659
 50
257.9947013036
 51
308.8508786138
  0
ARC
  5
70
  8
STANDARD
  6
CONTINUOUS
 62
     7
 10
112.3932050076
 20
122.4666004875
 30
0.0
 40
86.99999999999984
 50
77.9947013036
 51
89.0073280855
  0
ARC
  5
71
  8
STANDARD
  6
CONTINUOUS
 62
     7
 10
113.7935381154
 20
205.9547997111
 30
0.0
 40
3.500376482876715
 50
88.2499277959
 51
268.1556173668
  0
ARC
  5
72
  8
STANDARD
  6
CONTINUOUS
 62
     7
 10
112.3932050076
 20
122.4666004875
 30
0.0
 40
80.0
 50
51.3797360017
 51
89.0777319447
  0
ARC
  5
73
  8
STANDARD
  6
CONTINUOUS
 62
     7
 10
163.5739937826
 20
186.5331819507
 30
0.0
 40
1.999999999999968
 50
231.3797362653
 51
312.4944681057
  0
ARC
  5
74
  8
STANDARD
  6
CONTINUOUS
 62
     7
 10
214.97075048
 20
122.6451361383
 30
0.0
 40
80.00000967740326
 50
91.0241746521
 51
128.7241395464
  0
ARC
  5
75
  8
STANDARD
  6
CONTINUOUS
 62
     7
 10
213.4782489387
 20
206.131806064
 30
0.0
 40
3.499999999999996
 50
271.0241746521
 51
91.0241746752
  0
ARC
  5
76
  8
STANDARD
  6
CONTINUOUS
 62
     7
 10
214.97075048
 20
122.6451361383
 30
0.0
 40
87.00000967740324
 50
91.024174653
 51
102.1337895072
  0
ARC
  5
77
  8
STANDARD
  6
CONTINUOUS
 62
     7
 10
192.4798661164
 20
227.254706124
 30
0.0
 40
19.99999972460182
 50
231.6897450943
 51
282.1337895072
  0
POLYLINE
  5
78
  8
STANDARD
  6
CONTINUOUS
 62
     7
 66
     1
 10
0.0
 20
0.0
 30
0.0
  0
VERTEX
  5
84
  8
STANDARD
  6
CONTINUOUS
 62
     7
 10
180.081476635
 20
211.561397765
 30
0.0
  0
VERTEX
  5
85
  8
STANDARD
  6
CONTINUOUS
 62
     7
 10
179.2337521005
 20
212.2054450402
 30
0.0
  0
VERTEX
  5
86
  8
STANDARD
  6
CONTINUOUS
 62
     7
 10
178.3539587809
 20
212.8222623094
 30
0.0
  0
VERTEX
  5
87
  8
STANDARD
  6
CONTINUOUS
 62
     7
 10
177.4430948656
 20
213.4094150725
 30
0.0
  0
VERTEX
  5
88
  8
STANDARD
  6
CONTINUOUS
 62
     7
 10
176.5023548924
 20
213.9645025815
 30
0.0
  0
VERTEX
  5
89
  8
STANDARD
  6
CONTINUOUS
 62
     7
 10
175.5331308172
 20
214.4851793395
 30
0.0
  0
VERTEX
  5
8A
  8
STANDARD
  6
CONTINUOUS
 62
     7
 10
174.5370107098
 20
214.9691773
 30
0.0
  0
VERTEX
  5
8B
  8
STANDARD
  6
CONTINUOUS
 62
     7
 10
173.5157749258
 20
215.414328428
 30
0.0
  0
VERTEX
  5
8C
  8
STANDARD
  6
CONTINUOUS
 62
     7
 10
172.4713896507
 20
215.818587253
 30
0.0
  0
VERTEX
  5
8D
  8
STANDARD
  6
CONTINUOUS
 62
     7
 10
171.4059977698
 20
216.1800530124
 30
0.0
  0
VERTEX
  5
8E
  8
STANDARD
  6
CONTINUOUS
 62
     7
 10
170.3219070737
 20
216.4969909689
 30
0.0
  0
VERTEX
  5
8F
  8
STANDARD
  6
CONTINUOUS
 62
     7
 10
169.2215758756
 20
216.7678524792
 30
0.0
  0
VERTEX
  5
90
  8
STANDARD
  6
CONTINUOUS
 62
     7
 10
168.107596184
 20
216.9912933968
 30
0.0
  0
VERTEX
  5
91
  8
STANDARD
  6
CONTINUOUS
 62
     7
 10
166.9826746361
 20
217.1661904146
 30
0.0
  0
VERTEX
  5
92
  8
STANDARD
  6
CONTINUOUS
 62
     7
 10
165.8496114634
 20
217.2916549815
 30
0.0
  0
VERTEX
  5
93
  8
STANDARD
  6
CONTINUOUS
 62
     7
 10
164.7112778155
 20
217.367044479
 30
0.0
  0
VERTEX
  5
94
  8
STANDARD
  6
CONTINUOUS
 62
     7
 10
163.5705918173
 20
217.391970396
 30
0.0
  0
VERTEX
  5
95
  8
STANDARD
  6
CONTINUOUS
 62
     7
 10
162.4304937729
 20
217.3663033093
 30
0.0
  0
VERTEX
  5
96
  8
STANDARD
  6
CONTINUOUS
 62
     7
 10
161.293920956
 20
217.290174552
 30
0.0
  0
VERTEX
  5
97
  8
STANDARD
  6
CONTINUOUS
 62
     7
 10
160.1637824396
 20
217.163974529
 30
0.0
  0
VERTEX
  5
98
  8
STANDARD
  6
CONTINUOUS
 62
     7
 10
159.0429344156
 20
216.9883477199
 30
0.0
  0
VERTEX
  5
99
  8
STANDARD
  6
CONTINUOUS
 62
     7
 10
157.9341564423
 20
216.7641844889
 30
0.0
  0
VERTEX
  5
9A
  8
STANDARD
  6
CONTINUOUS
 62
     7
 10
156.8401290281
 20
216.492609894
 30
0.0
  0
VERTEX
  5
9B
  8
STANDARD
  6
CONTINUOUS
 62
     7
 10
155.7634129206
 20
216.1749697559
 30
0.0
  0
VERTEX
  5
9C
  8
STANDARD
  6
CONTINUOUS
 62
     7
 10
154.7064304205
 20
215.812814304
 30
0.0
  0
VERTEX
  5
9D
  8
STANDARD
  6
CONTINUOUS
 62
     7
 10
153.6714489812
 20
215.4078797624
 30
0.0
  0
VERTEX
  5
9E
  8
STANDARD
  6
CONTINUOUS
 62
     7
 10
152.6605672936
 20
214.962068272
 30
0.0
  0
VERTEX
  5
9F
  8
STANDARD
  6
CONTINUOUS
 62
     7
 10
151.6757039869
 20
214.4774265658
 30
0.0
  0
VERTEX
  5
A0
  8
STANDARD
  6
CONTINUOUS
 62
     7
 10
150.7185890127
 20
213.9561238194
 30
0.0
  0
VERTEX
  5
A1
  8
STANDARD
  6
CONTINUOUS
 62
     7
 10
149.7907577141
 20
213.4004290945
 30
0.0
  0
VERTEX
  5
A2
  8
STANDARD
  6
CONTINUOUS
 62
     7
 10
148.8935475213
 20
212.8126887748
 30
0.0
  0
VERTEX
  5
A3
  8
STANDARD
  6
CONTINUOUS
 62
     7
 10
148.028097164
 20
212.1953043665
 30
0.0
  0
VERTEX
  5
A4
  8
STANDARD
  6
CONTINUOUS
 62
     7
 10
147.1953482405
 20
211.5507110001
 30
0.0
  0
SEQEND
  5
10F
  8
STANDARD
  6
CONTINUOUS
 62
     7
  0
POLYLINE
  5
79
  8
STANDARD
  6
CONTINUOUS
 62
     7
 66
     1
 10
0.0
 20
0.0
 30
0.0
  0
VERTEX
  5
A5
  8
STANDARD
  6
CONTINUOUS
 62
     7
 10
174.1835776617
 20
203.634790344
 30
0.0
  0
VERTEX
  5
A6
  8
STANDARD
  6
CONTINUOUS
 62
     7
 10
174.1677166345
 20
203.1402924548
 30
0.0
  0
VERTEX
  5
A7
  8
STANDARD
  6
CONTINUOUS
 62
     7
 10
174.1182249646
 20
202.6322132168
 30
0.0
  0
VERTEX
  5
A8
  8
STANDARD
  6
CONTINUOUS
 62
     7
 10
174.0322969786
 20
202.1125450505
 30
0.0
  0
VERTEX
  5
A9
  8
STANDARD
  6
CONTINUOUS
 62
     7
 10
173.9072618722
 20
201.5836775456
 30
0.0
  0
VERTEX
  5
AA
  8
STANDARD
  6
CONTINUOUS
 62
     7
 10
173.7406642759
 20
201.0484040144
 30
0.0
  0
VERTEX
  5
AB
  8
STANDARD
  6
CONTINUOUS
 62
     7
 10
173.5303518552
 20
200.5099152695
 30
0.0
  0
VERTEX
  5
AC
  8
STANDARD
  6
CONTINUOUS
 62
     7
 10
173.274567061
 20
199.9717783004
 30
0.0
  0
VERTEX
  5
AD
  8
STANDARD
  6
CONTINUOUS
 62
     7
 10
172.9720392001
 20
199.4378980026
 30
0.0
  0
VERTEX
  5
AE
  8
STANDARD
  6
CONTINUOUS
 62
     7
 10
172.6220721537
 20
198.9124608778
 30
0.0
  0
VERTEX
  5
AF
  8
STANDARD
  6
CONTINUOUS
 62
     7
 10
172.2246224378
 20
198.3998606644
 30
0.0
  0
VERTEX
  5
B0
  8
STANDARD
  6
CONTINUOUS
 62
     7
 10
171.7803620249
 20
197.9046071238
 30
0.0
  0
VERTEX
  5
B1
  8
STANDARD
  6
CONTINUOUS
 62
     7
 10
171.2907205188
 20
197.4312206149
 30
0.0
  0
VERTEX
  5
B2
  8
STANDARD
  6
CONTINUOUS
 62
     7
 10
170.757901986
 20
196.9841164902
 30
0.0
  0
VERTEX
  5
B3
  8
STANDARD
  6
CONTINUOUS
 62
     7
 10
170.1848729985
 20
196.5674845877
 30
0.0
  0
VERTEX
  5
B4
  8
STANDARD
  6
CONTINUOUS
 62
     7
 10
169.5753201844
 20
196.1851699981
 30
0.0
  0
VERTEX
  5
B5
  8
STANDARD
  6
CONTINUOUS
 62
     7
 10
168.9335776617
 20
195.84056171
 30
0.0
  0
VERTEX
  5
B6
  8
STANDARD
  6
CONTINUOUS
 62
     7
 10
168.2645269465
 20
195.5364955734
 30
0.0
  0
VERTEX
  5
B7
  8
STANDARD
  6
CONTINUOUS
 62
     7
 10
167.5734740347
 20
195.2751772494
 30
0.0
  0
VERTEX
  5
B8
  8
STANDARD
  6
CONTINUOUS
 62
     7
 10
166.8660100941
 20
195.0581294919
 30
0.0
  0
VERTEX
  5
B9
  8
STANDARD
  6
CONTINUOUS
 62
     7
 10
166.147863376
 20
194.886166367
 30
0.0
  0
VERTEX
  5
BA
  8
STANDARD
  6
CONTINUOUS
 62
     7
 10
165.4247504233
 20
194.7593950646
 30
0.0
  0
VERTEX
  5
BB
  8
STANDARD
  6
CONTINUOUS
 62
     7
 10
164.7022343781
 20
194.6772440034
 30
0.0
  0
VERTEX
  5
BC
  8
STANDARD
  6
CONTINUOUS
 62
     7
 10
163.9855972455
 20
194.6385142095
 30
0.0
  0
VERTEX
  5
BD
  8
STANDARD
  6
CONTINUOUS
 62
     7
 10
163.2797315078
 20
194.6414496124
 30
0.0
  0
VERTEX
  5
BE
  8
STANDARD
  6
CONTINUOUS
 62
     7
 10
162.5890546935
 20
194.6838210646
 30
0.0
  0
VERTEX
  5
BF
  8
STANDARD
  6
CONTINUOUS
 62
     7
 10
161.9174486294
 20
194.7630185808
 30
0.0
  0
VERTEX
  5
C0
  8
STANDARD
  6
CONTINUOUS
 62
     7
 10
161.268223331
 20
194.8761464684
 30
0.0
  0
VERTEX
  5
C1
  8
STANDARD
  6
CONTINUOUS
 62
     7
 10
160.6441039775
 20
195.0201165906
 30
0.0
  0
VERTEX
  5
C2
  8
STANDARD
  6
CONTINUOUS
 62
     7
 10
160.0472382807
 20
195.1917358471
 30
0.0
  0
VERTEX
  5
C3
  8
STANDARD
  6
CONTINUOUS
 62
     7
 10
159.4792208152
 20
195.3877849428
 30
0.0
  0
VERTEX
  5
C4
  8
STANDARD
  6
CONTINUOUS
 62
     7
 10
158.9411305318
 20
195.6050865246
 30
0.0
  0
VERTEX
  5
C5
  8
STANDARD
  6
CONTINUOUS
 62
     7
 10
158.4335776617
 20
195.84056171
 30
0.0
  0
VERTEX
  5
C6
  8
STANDARD
  6
CONTINUOUS
 62
     7
 10
157.9418858188
 20
196.0995844138
 30
0.0
  0
VERTEX
  5
C7
  8
STANDARD
  6
CONTINUOUS
 62
     7
 10
157.4532872052
 20
196.39036207
 30
0.0
  0
VERTEX
  5
C8
  8
STANDARD
  6
CONTINUOUS
 62
     7
 10
156.9711977257
 20
196.7139811407
 30
0.0
  0
VERTEX
  5
C9
  8
STANDARD
  6
CONTINUOUS
 62
     7
 10
156.4993671354
 20
197.071229389
 30
0.0
  0
VERTEX
  5
CA
  8
STANDARD
  6
CONTINUOUS
 62
     7
 10
156.0418453782
 20
197.462532798
 30
0.0
  0
VERTEX
  5
CB
  8
STANDARD
  6
CONTINUOUS
 62
     7
 10
155.6029325004
 20
197.8878936553
 30
0.0
  0
VERTEX
  5
CC
  8
STANDARD
  6
CONTINUOUS
 62
     7
 10
155.1871112306
 20
198.3468331082
 30
0.0
  0
VERTEX
  5
CD
  8
STANDARD
  6
CONTINUOUS
 62
     7
 10
154.7989622771
 20
198.8383419538
 30
0.0
  0
VERTEX
  5
CE
  8
STANDARD
  6
CONTINUOUS
 62
     7
 10
154.4430635858
 20
199.3608436756
 30
0.0
  0
VERTEX
  5
CF
  8
STANDARD
  6
CONTINUOUS
 62
     7
 10
154.1238761691
 20
199.912173683
 30
0.0
  0
VERTEX
  5
D0
  8
STANDARD
  6
CONTINUOUS
 62
     7
 10
153.8456205368
 20
200.4895782849
 30
0.0
  0
VERTEX
  5
D1
  8
STANDARD
  6
CONTINUOUS
 62
     7
 10
153.6121490903
 20
201.0897360962
 30
0.0
  0
VERTEX
  5
D2
  8
STANDARD
  6
CONTINUOUS
 62
     7
 10
153.4268209049
 20
201.7088033456
 30
0.0
  0
VERTEX
  5
D3
  8
STANDARD
  6
CONTINUOUS
 62
     7
 10
153.2923859518
 20
202.3424830057
 30
0.0
  0
VERTEX
  5
D4
  8
STANDARD
  6
CONTINUOUS
 62
     7
 10
153.2449213813
 20
202.6633577587
 30
0.0
  0
VERTEX
  5
D5
  8
STANDARD
  6
CONTINUOUS
 62
     7
 10
153.2108858541
 20
202.9861159193
 30
0.0
  0
VERTEX
  5
D6
  8
STANDARD
  6
CONTINUOUS
 62
     7
 10
153.1904113747
 20
203.3101364992
 30
0.0
  0
VERTEX
  5
D7
  8
STANDARD
  6
CONTINUOUS
 62
     7
 10
153.1835776617
 20
203.634790344
 30
0.0
  0
VERTEX
  5
D8
  8
STANDARD
  6
CONTINUOUS
 62
     7
 10
153.1904113747
 20
203.9594441888
 30
0.0
  0
VERTEX
  5
D9
  8
STANDARD
  6
CONTINUOUS
 62
     7
 10
153.2108858541
 20
204.2834647687
 30
0.0
  0
VERTEX
  5
DA
  8
STANDARD
  6
CONTINUOUS
 62
     7
 10
153.2449213813
 20
204.6062229294
 30
0.0
  0
VERTEX
  5
DB
  8
STANDARD
  6
CONTINUOUS
 62
     7
 10
153.2923859518
 20
204.9270976823
 30
0.0
  0
VERTEX
  5
DC
  8
STANDARD
  6
CONTINUOUS
 62
     7
 10
153.4268209049
 20
205.5607773424
 30
0.0
  0
VERTEX
  5
DD
  8
STANDARD
  6
CONTINUOUS
 62
     7
 10
153.6121490903
 20
206.1798445919
 30
0.0
  0
VERTEX
  5
DE
  8
STANDARD
  6
CONTINUOUS
 62
     7
 10
153.8456205368
 20
206.7800024032
 30
0.0
  0
VERTEX
  5
DF
  8
STANDARD
  6
CONTINUOUS
 62
     7
 10
154.1238761691
 20
207.3574070051
 30
0.0
  0
VERTEX
  5
E0
  8
STANDARD
  6
CONTINUOUS
 62
     7
 10
154.4430635858
 20
207.9087370124
 30
0.0
  0
VERTEX
  5
E1
  8
STANDARD
  6
CONTINUOUS
 62
     7
 10
154.7989622771
 20
208.4312387342
 30
0.0
  0
VERTEX
  5
E2
  8
STANDARD
  6
CONTINUOUS
 62
     7
 10
155.1871112306
 20
208.9227475798
 30
0.0
  0
VERTEX
  5
E3
  8
STANDARD
  6
CONTINUOUS
 62
     7
 10
155.6029325004
 20
209.3816870327
 30
0.0
  0
VERTEX
  5
E4
  8
STANDARD
  6
CONTINUOUS
 62
     7
 10
156.0418453782
 20
209.80704789
 30
0.0
  0
VERTEX
  5
E5
  8
STANDARD
  6
CONTINUOUS
 62
     7
 10
156.4993671354
 20
210.198351299
 30
0.0
  0
VERTEX
  5
E6
  8
STANDARD
  6
CONTINUOUS
 62
     7
 10
156.9711977257
 20
210.5555995474
 30
0.0
  0
VERTEX
  5
E7
  8
STANDARD
  6
CONTINUOUS
 62
     7
 10
157.4532872052
 20
210.879218618
 30
0.0
  0
VERTEX
  5
E8
  8
STANDARD
  6
CONTINUOUS
 62
     7
 10
157.9418858188
 20
211.1699962742
 30
0.0
  0
VERTEX
  5
E9
  8
STANDARD
  6
CONTINUOUS
 62
     7
 10
158.4335776617
 20
211.4290189781
 30
0.0
  0
VERTEX
  5
EA
  8
STANDARD
  6
CONTINUOUS
 62
     7
 10
158.9411305318
 20
211.6644941634
 30
0.0
  0
VERTEX
  5
EB
  8
STANDARD
  6
CONTINUOUS
 62
     7
 10
159.4792208152
 20
211.8817957452
 30
0.0
  0
VERTEX
  5
EC
  8
STANDARD
  6
CONTINUOUS
 62
     7
 10
160.0472382807
 20
212.0778448409
 30
0.0
  0
VERTEX
  5
ED
  8
STANDARD
  6
CONTINUOUS
 62
     7
 10
160.6441039775
 20
212.2494640974
 30
0.0
  0
VERTEX
  5
EE
  8
STANDARD
  6
CONTINUOUS
 62
     7
 10
161.268223331
 20
212.3934342196
 30
0.0
  0
VERTEX
  5
EF
  8
STANDARD
  6
CONTINUOUS
 62
     7
 10
161.9174486294
 20
212.5065621072
 30
0.0
  0
VERTEX
  5
F0
  8
STANDARD
  6
CONTINUOUS
 62
     7
 10
162.5890546935
 20
212.5857596234
 30
0.0
  0
VERTEX
  5
F1
  8
STANDARD
  6
CONTINUOUS
 62
     7
 10
163.2797315078
 20
212.6281310756
 30
0.0
  0
VERTEX
  5
F2
  8
STANDARD
  6
CONTINUOUS
 62
     7
 10
163.9855972455
 20
212.6310664786
 30
0.0
  0
VERTEX
  5
F3
  8
STANDARD
  6
CONTINUOUS
 62
     7
 10
164.7022343781
 20
212.5923366846
 30
0.0
  0
VERTEX
  5
F4
  8
STANDARD
  6
CONTINUOUS
 62
     7
 10
165.4247504233
 20
212.5101856234
 30
0.0
  0
VERTEX
  5
F5
  8
STANDARD
  6
CONTINUOUS
 62
     7
 10
166.147863376
 20
212.383414321
 30
0.0
  0
VERTEX
  5
F6
  8
STANDARD
  6
CONTINUOUS
 62
     7
 10
166.8660100941
 20
212.2114511962
 30
0.0
  0
VERTEX
  5
F7
  8
STANDARD
  6
CONTINUOUS
 62
     7
 10
167.5734740347
 20
211.9944034386
 30
0.0
  0
VERTEX
  5
F8
  8
STANDARD
  6
CONTINUOUS
 62
     7
 10
168.2645269465
 20
211.7330851146
 30
0.0
  0
VERTEX
  5
F9
  8
STANDARD
  6
CONTINUOUS
 62
     7
 10
168.9335776617
 20
211.4290189781
 30
0.0
  0
VERTEX
  5
FA
  8
STANDARD
  6
CONTINUOUS
 62
     7
 10
169.5753201844
 20
211.08441069
 30
0.0
  0
VERTEX
  5
FB
  8
STANDARD
  6
CONTINUOUS
 62
     7
 10
170.1848729985
 20
210.7020961003
 30
0.0
  0
VERTEX
  5
FC
  8
STANDARD
  6
CONTINUOUS
 62
     7
 10
170.757901986
 20
210.2854641978
 30
0.0
  0
VERTEX
  5
FD
  8
STANDARD
  6
CONTINUOUS
 62
     7
 10
171.2907205188
 20
209.8383600732
 30
0.0
  0
VERTEX
  5
FE
  8
STANDARD
  6
CONTINUOUS
 62
     7
 10
171.7803620249
 20
209.3649735643
 30
0.0
  0
VERTEX
  5
FF
  8
STANDARD
  6
CONTINUOUS
 62
     7
 10
172.2246224378
 20
208.8697200236
 30
0.0
  0
VERTEX
  5
100
  8
STANDARD
  6
CONTINUOUS
 62
     7
 10
172.6220721537
 20
208.3571198102
 30
0.0
  0
VERTEX
  5
101
  8
STANDARD
  6
CONTINUOUS
 62
     7
 10
172.9720392001
 20
207.8316826854
 30
0.0
  0
VERTEX
  5
102
  8
STANDARD
  6
CONTINUOUS
 62
     7
 10
173.274567061
 20
207.2978023876
 30
0.0
  0
VERTEX
  5
103
  8
STANDARD
  6
CONTINUOUS
 62
     7
 10
173.5303518552
 20
206.7596654185
 30
0.0
  0
VERTEX
  5
104
  8
STANDARD
  6
CONTINUOUS
 62
     7
 10
173.7406642759
 20
206.2211766736
 30
0.0
  0
VERTEX
  5
105
  8
STANDARD
  6
CONTINUOUS
 62
     7
 10
173.9072618722
 20
205.6859031424
 30
0.0
  0
VERTEX
  5
106
  8
STANDARD
  6
CONTINUOUS
 62
     7
 10
174.0322969786
 20
205.1570356375
 30
0.0
  0
VERTEX
  5
107
  8
STANDARD
  6
CONTINUOUS
 62
     7
 10
174.1182249646
 20
204.6373674712
 30
0.0
  0
VERTEX
  5
108
  8
STANDARD
  6
CONTINUOUS
 62
     7
 10
174.1677166345
 20
204.1292882332
 30
0.0
  0
VERTEX
  5
109
  8
STANDARD
  6
CONTINUOUS
 62
     7
 10
174.1835776617
 20
203.634790344
 30
0.0
  0
SEQEND
  5
110
  8
STANDARD
  6
CONTINUOUS
 62
     7
  0
INSERT
  5
7A
  8
0
  2
*X1
 10
0.0
 20
0.0
 30
0.0
  0
ENDSEC
  0
EOF
