<?xml version="1.0" encoding="utf-8"?>
<!-- Generator: Adobe Illustrator 19.2.1, SVG Export Plug-In . SVG Version: 6.00 Build 0)  -->
<svg version="1.1" xmlns="http://www.w3.org/2000/svg" xmlns:xlink="http://www.w3.org/1999/xlink" x="0px" y="0px" width="425.2px"
	 height="283.5px" viewBox="0 0 425.2 283.5" style="enable-background:new 0 0 425.2 283.5;" xml:space="preserve">
<style type="text/css">
	.st0{fill:#FFFFFF;stroke:#000000;stroke-width:0.7087;stroke-linecap:round;stroke-linejoin:round;stroke-miterlimit:10;}
	.st1{font-family:'ArialMT';}
	.st2{font-size:14.0131px;}
</style>
<g id="STANDARD">
	<path class="st0" d="M354.2,120.1c-15.9,0.3-31.8,2.1-47.4,5.5c-16.5,3.6-33.8-0.5-47.1-10.9c-27.3-21.5-66.1-21.8-93.2,0
		c-13.3,10.7-30.7,14.8-47.4,11.3c-15.5-3.3-31.2-5.1-47-5.4c-5.5-0.2-10.1,4.1-10.2,9.6c-0.2,5.5,4.1,10,9.6,10.2
		c50.2,0.8,98.7,18.2,137.9,49.6c2.2,1.7,5.3,1.6,7.4-0.2c39.2-31.4,87.6-48.9,137.8-49.8c5.5-0.1,9.8-4.6,9.7-10.1
		C364.2,124.4,359.7,120,354.2,120.1z M237,152.4c-3.9,4.3-9,7.3-14.6,8.9c-5.3,1.5-11,1.7-16.3,0.5c-5.5-1.2-10.9-3.7-14.9-7.7
		c-4.2-4-7.1-9.3-7.6-15.1c-0.5-5.7,1.2-11.4,4.7-15.9c3.5-4.5,8.3-7.9,13.7-9.7c5.3-1.8,11-2.4,16.5-1.5c5.7,0.9,11.1,3.1,15.5,6.8
		c4.3,3.6,7.5,8.5,8.6,14.1c0.3,1.4,0.4,2.8,0.4,4.2C242.9,142.8,240.9,148.2,237,152.4z"/>
	<text transform="matrix(1 0 0 1 39.0431 232.0763)" class="st1 st2">One Hand Book Holder - ZenziWerken - 6 mm material</text>
</g>
<g id="_x30_">
</g>
</svg>
