<?xml version="1.0" encoding="UTF-8" standalone="no"?>
<!-- Uploaded to: SVG Repo, www.svgrepo.com, Generator: SVG Repo Mixer Tools -->

<svg
   fill="#000000"
   height="800px"
   width="800px"
   version="1.1"
   id="Capa_1"
   viewBox="0 0 489.3 489.3"
   xml:space="preserve"
   sodipodi:docname="wifi-svgrepo-com-outline.svg"
   inkscape:version="1.4.2 (f4327f4, 2025-05-13)"
   xmlns:inkscape="http://www.inkscape.org/namespaces/inkscape"
   xmlns:sodipodi="http://sodipodi.sourceforge.net/DTD/sodipodi-0.dtd"
   xmlns="http://www.w3.org/2000/svg"
   xmlns:svg="http://www.w3.org/2000/svg"><defs
   id="defs4">
	

		
		
		
		
	</defs><sodipodi:namedview
   id="namedview4"
   pagecolor="#ffffff"
   bordercolor="#000000"
   borderopacity="0.25"
   inkscape:showpageshadow="2"
   inkscape:pageopacity="0.0"
   inkscape:pagecheckerboard="0"
   inkscape:deskcolor="#d1d1d1"
   inkscape:zoom="0.71329397"
   inkscape:cx="303.52142"
   inkscape:cy="474.5589"
   inkscape:window-width="1920"
   inkscape:window-height="1009"
   inkscape:window-x="1912"
   inkscape:window-y="-8"
   inkscape:window-maximized="1"
   inkscape:current-layer="Capa_1" />
<path
   id="path7"
   style="fill:#ffffff"
   sodipodi:type="inkscape:offset"
   inkscape:radius="29.431147"
   inkscape:original="M 244.65039 59.724609 C 158.82539 59.724609 73.000391 92.375785 7.6503906 157.67578 C -2.5496094 167.87578 -2.5496094 184.47539 7.6503906 194.77539 C 17.850391 204.97539 34.45 204.97539 44.75 194.77539 C 154.95 84.475388 334.35039 84.475388 444.65039 194.77539 C 449.75039 199.87539 456.45039 202.47461 463.15039 202.47461 C 469.85039 202.47461 476.55039 199.87539 481.65039 194.77539 C 491.85039 184.57539 491.85039 167.97578 481.65039 157.67578 C 416.30039 92.375785 330.47539 59.724609 244.65039 59.724609 z M 244.65039 161.34961 C 184.85039 161.34961 125.04883 184.12383 79.548828 229.67383 C 69.348828 239.87383 69.348828 256.47539 79.548828 266.77539 C 89.748828 276.97539 106.35039 276.97539 116.65039 266.77539 C 187.25039 196.17539 302.15 196.17539 372.75 266.77539 C 377.85 271.87539 384.55 274.47461 391.25 274.47461 C 397.95 274.47461 404.65 271.87539 409.75 266.77539 C 419.95 256.57539 419.95 239.97383 409.75 229.67383 C 364.25 184.12383 304.45039 161.34961 244.65039 161.34961 z M 244.63867 261.48828 C 210.50117 261.47578 176.34961 274.47461 150.34961 300.47461 C 140.14961 310.67461 140.14961 327.27422 150.34961 337.57422 C 160.54961 347.77422 177.14922 347.77422 187.44922 337.57422 C 218.94922 305.97422 270.34961 305.97422 301.84961 337.57422 C 306.94961 342.67422 313.64961 345.27539 320.34961 345.27539 C 327.04961 345.27539 333.74961 342.67422 338.84961 337.57422 C 349.04961 327.37422 349.04961 310.77617 338.84961 300.57617 C 312.89961 274.52617 278.77617 261.50078 244.63867 261.48828 z M 244.65039 359.77539 A 34.900002 34.900002 0 0 0 209.75 394.67578 A 34.900002 34.900002 0 0 0 244.65039 429.57422 A 34.900002 34.900002 0 0 0 279.54883 394.67578 A 34.900002 34.900002 0 0 0 244.65039 359.77539 z "
   d="m 244.65039,30.292969 c -93.2895,0 -186.80876,35.624803 -257.802734,106.564451 a 29.43409,29.43409 0 0 0 -0.0078,0.008 c -21.489343,21.48935 -21.426103,57.08554 -0.101563,78.61914 a 29.43409,29.43409 0 0 0 0.101563,0.10157 c 15.9283009,15.9283 39.598829,19.98497 59.55664,12.34961 -7.65739,19.93537 -3.557981,43.59572 12.240235,59.54882 a 29.43409,29.43409 0 0 0 0.101562,0.10157 c 15.478334,15.47833 38.254776,19.71406 57.843749,12.93945 -6.7532,19.54968 -2.47414,42.27791 12.85547,57.75781 a 29.43409,29.43409 0 0 0 0.10156,0.10157 c 14.83821,14.8382 36.39964,19.38908 55.41602,13.77148 -2.93712,7.12408 -4.63681,14.72904 -4.63672,22.51953 a 29.43409,29.43409 0 0 0 0,0.002 c 0.002,33.68299 30.64904,64.3285 64.33203,64.32813 a 29.43409,29.43409 0 0 0 0.002,0 c 33.68179,-0.002 64.32662,-30.64633 64.32813,-64.32813 a 29.43409,29.43409 0 0 0 0,-0.002 c 8e-5,-7.7191 -1.67396,-15.25432 -4.56055,-22.32226 5.18131,1.55812 10.55595,2.35351 15.92969,2.35351 14.31745,0 28.63534,-5.64706 39.31055,-16.32226 15.4583,-15.45831 19.73375,-38.22337 12.95117,-57.79297 6.01121,2.14977 12.31627,3.31445 18.63867,3.31445 14.31174,0 28.63269,-5.64246 39.31055,-16.32031 15.93036,-15.93036 19.98754,-39.60149 12.34961,-59.56055 6.48148,2.54278 13.35674,3.88086 20.24023,3.88086 14.31174,0 28.63269,-5.64246 39.31055,-16.32031 21.48934,-21.48934 21.4261,-57.08554 0.10156,-78.61914 a 29.43409,29.43409 0 0 0 -0.10938,-0.10938 C 431.45915,65.917772 337.93989,30.292969 244.65039,30.292969 Z" /><path
   id="path1"
   d="m 244.65,59.72542 c -85.825,0 -171.64991,32.649594 -236.99991,97.94959 -10.2,10.2 -10.2,26.80008 0,37.10008 10.2,10.2 26.80007,10.2 37.10007,0 110.2,-110.300003 289.60002,-110.300003 399.90002,0 5.1,5.1 11.79927,7.70026 18.49927,7.70026 6.7,0 13.40046,-2.60026 18.50046,-7.70026 10.2,-10.2 10.2,-26.80008 0,-37.10008 C 416.29991,92.375014 330.475,59.72542 244.65,59.72542 Z m 0,101.62412 c -59.8,0 -119.60052,22.7752 -165.10052,68.3252 -10.2,10.2 -10.2,26.80008 0,37.10008 10.2,10.2 26.80007,10.2 37.10007,0 70.6,-70.6 185.50005,-70.6 256.10005,0 5.1,5.1 11.80046,7.70026 18.50046,7.70026 6.7,0 13.40046,-2.60026 18.50046,-7.70026 10.2,-10.2 10.2,-26.80008 0,-37.10008 -45.5,-45.55 -105.30052,-68.3252 -165.10052,-68.3252 z m -0.012,100.13807 c -34.1375,-0.0125 -68.2882,12.98751 -94.2882,38.98751 -10.2,10.2 -10.2,26.80007 0,37.10007 10.2,10.2 26.80007,10.2 37.10007,0 31.5,-31.6 82.90016,-31.6 114.40016,0 5.1,5.1 11.80046,7.70026 18.50046,7.70026 6.7,0 13.39927,-2.60026 18.49927,-7.70026 10.2,-10.2 10.2,-26.79973 0,-36.99973 -25.95,-26.05 -60.07426,-39.07535 -94.21176,-39.08785 z m 0.012,98.28766 A 34.900002,34.900002 0 0 0 209.75034,394.67492 34.900002,34.900002 0 0 0 244.65,429.57458 34.900002,34.900002 0 0 0 279.54966,394.67492 34.900002,34.900002 0 0 0 244.65,359.77527 Z" />
</svg>
