<?xml version='1.0' encoding='utf-8'?>
<svg height="184.00mm" viewBox="0.0 0.0 304.70 184.00" width="304.70mm" xmlns="http://www.w3.org/2000/svg" xmlns:cc="http://creativecommons.org/ns#" xmlns:dc="http://purl.org/dc/elements/1.1/" xmlns:inkscape="http://www.inkscape.org/namespaces/inkscape" xmlns:rdf="http://www.w3.org/1999/02/22-rdf-syntax-ns#" xmlns:svg="http://www.w3.org/2000/svg" xmlns:xlink="http://www.w3.org/1999/xlink">
<!--
SlantedTray - One row tray with high back wall and low front wall


Can be used as a display or for cards or gaming tokens. Lay on the side to get piles to draw from.
    ![Example Use](static/samples/SlantedTray-2.jpg)


Created with Boxes.py (https://boxes.hackerspace-bamberg.de/)
Creation date: 2026-04-26 21:31:38
Command line (remove spaces between dashes): boxes SlantedTray - -sx=67:30:30:30:67 - -spacing=0.5
Url: https://boxes.hackerspace-bamberg.de/SlantedTray?FingerJoint_style=rectangular&FingerJoint_surroundingspaces=2.0&FingerJoint_bottom_lip=0.0&FingerJoint_edge_width=1.0&FingerJoint_extra_length=0.0&FingerJoint_finger=2.0&FingerJoint_play=0.0&FingerJoint_space=2.0&FingerJoint_width=1.0&sx=67%3A30%3A30%3A30%3A67&y=40.0&h=40.0&outside=0&front_height=0.3&thickness=3.0&burn=0.1&format=svg&labels=0&labels=1&reference=100.0&tabs=0.0&qr_code=0&inner_corners=loop&spacing=0.5&debug=0&language=en&render=2
Url short: https://boxes.hackerspace-bamberg.de/SlantedTray?sx=67%3A30%3A30%3A30%3A67&spacing=0.5
SettingsUrl: https://boxes.hackerspace-bamberg.de/SlantedTray?FingerJoint_style=rectangular&FingerJoint_surroundingspaces=2.0&FingerJoint_bottom_lip=0.0&FingerJoint_edge_width=1.0&FingerJoint_extra_length=0.0&FingerJoint_finger=2.0&FingerJoint_play=0.0&FingerJoint_space=2.0&FingerJoint_width=1.0&sx=67%3A30%3A30%3A30%3A67&y=40.0&h=40.0&outside=0&front_height=0.3&thickness=3.0&burn=0.1&format=svg&labels=0&labels=1&reference=100.0&tabs=0.0&qr_code=0&inner_corners=loop&spacing=0.5&debug=0&language=en&render=2
SettingsUrl short: https://boxes.hackerspace-bamberg.de/SlantedTray?sx=67%3A30%3A30%3A30%3A67&spacing=0.5
-->
<title>SlantedTray</title>
<metadata>
<rdf:RDF><cc:Work>
<dc:title>Tray - SlantedTray</dc:title>
<dc:date>2026-04-26 21:31:38</dc:date>
<dc:source>https://boxes.hackerspace-bamberg.de/SlantedTray?FingerJoint_style=rectangular&amp;FingerJoint_surroundingspaces=2.0&amp;FingerJoint_bottom_lip=0.0&amp;FingerJoint_edge_width=1.0&amp;FingerJoint_extra_length=0.0&amp;FingerJoint_finger=2.0&amp;FingerJoint_play=0.0&amp;FingerJoint_space=2.0&amp;FingerJoint_width=1.0&amp;sx=67%3A30%3A30%3A30%3A67&amp;y=40.0&amp;h=40.0&amp;outside=0&amp;front_height=0.3&amp;thickness=3.0&amp;burn=0.1&amp;format=svg&amp;labels=0&amp;labels=1&amp;reference=100.0&amp;tabs=0.0&amp;qr_code=0&amp;inner_corners=loop&amp;spacing=0.5&amp;debug=0&amp;language=en&amp;render=2</dc:source>
<dc:source>https://boxes.hackerspace-bamberg.de/SlantedTray?sx=67%3A30%3A30%3A30%3A67&amp;spacing=0.5</dc:source>
<dc:description>One row tray with high back wall and low front wall

Can be used as a display or for cards or gaming tokens. Lay on the side to get piles to draw from.
    ![Example Use](static/samples/SlantedTray-2.jpg)

Created with Boxes.py (https://boxes.hackerspace-bamberg.de/)
Command line: boxes SlantedTray --FingerJoint_style=rectangular --FingerJoint_surroundingspaces=2.0 --FingerJoint_bottom_lip=0.0 --FingerJoint_edge_width=1.0 --FingerJoint_extra_length=0.0 --FingerJoint_finger=2.0 --FingerJoint_play=0.0 --FingerJoint_space=2.0 --FingerJoint_width=1.0 --sx=67:30:30:30:67 --y=40.0 --h=40.0 --outside=0 --front_height=0.3 --thickness=3.0 --burn=0.1 --format=svg --labels=0 --labels=1 --reference=100.0 --tabs=0.0 --qr_code=0 --inner_corners=loop --spacing=0.5 --debug=0
Command line short: boxes SlantedTray --sx=67:30:30:30:67 --spacing=0.5
Url: https://boxes.hackerspace-bamberg.de/SlantedTray?FingerJoint_style=rectangular&amp;FingerJoint_surroundingspaces=2.0&amp;FingerJoint_bottom_lip=0.0&amp;FingerJoint_edge_width=1.0&amp;FingerJoint_extra_length=0.0&amp;FingerJoint_finger=2.0&amp;FingerJoint_play=0.0&amp;FingerJoint_space=2.0&amp;FingerJoint_width=1.0&amp;sx=67%3A30%3A30%3A30%3A67&amp;y=40.0&amp;h=40.0&amp;outside=0&amp;front_height=0.3&amp;thickness=3.0&amp;burn=0.1&amp;format=svg&amp;labels=0&amp;labels=1&amp;reference=100.0&amp;tabs=0.0&amp;qr_code=0&amp;inner_corners=loop&amp;spacing=0.5&amp;debug=0&amp;language=en&amp;render=2
Url short: https://boxes.hackerspace-bamberg.de/SlantedTray?sx=67%3A30%3A30%3A30%3A67&amp;spacing=0.5
SettingsUrl: https://boxes.hackerspace-bamberg.de/SlantedTray?FingerJoint_style=rectangular&amp;FingerJoint_surroundingspaces=2.0&amp;FingerJoint_bottom_lip=0.0&amp;FingerJoint_edge_width=1.0&amp;FingerJoint_extra_length=0.0&amp;FingerJoint_finger=2.0&amp;FingerJoint_play=0.0&amp;FingerJoint_space=2.0&amp;FingerJoint_width=1.0&amp;sx=67%3A30%3A30%3A30%3A67&amp;y=40.0&amp;h=40.0&amp;outside=0&amp;front_height=0.3&amp;thickness=3.0&amp;burn=0.1&amp;format=svg&amp;labels=0&amp;labels=1&amp;reference=100.0&amp;tabs=0.0&amp;qr_code=0&amp;inner_corners=loop&amp;spacing=0.5&amp;debug=0&amp;language=en&amp;render=2
SettingsUrl short: https://boxes.hackerspace-bamberg.de/SlantedTray?sx=67%3A30%3A30%3A30%3A67&amp;spacing=0.5
</dc:description>
</cc:Work></rdf:RDF></metadata>
<g id="p-0" style="fill:none;stroke-linecap:round;stroke-linejoin:round;">
  <path d="M 10.100 174.000 H 110.100 V 164.000 H 10.100 V 174.000 Z" stroke="rgb(0,0,0)" stroke-width="0.20" />
  <text dominant-baseline="hanging" font-size="6px" style="font-family: sans-serif ; font-weight: normal; font-style: normal; fill: rgb(255,0,0)" text-anchor="middle" transform="matrix( 1.000 0.000 0.000 1.000 60.100 166.000 )">100.0mm, burn:0.10mm</text>
</g>
<g id="p-1" style="fill:none;stroke-linecap:round;stroke-linejoin:round;">
  <path d="M 83.000 148.200 V 151.100 C 83.000 151.200 83.100 151.100 83.000 151.100 H 80.200 C 80.100 151.100 80.200 151.200 80.200 151.100 V 145.300 C 80.200 145.200 80.100 145.300 80.200 145.300 H 83.000 C 83.100 145.300 83.000 145.200 83.000 145.300 V 148.200 Z" stroke="rgb(0,0,255)" stroke-width="0.20" />
  <path d="M 83.000 136.200 V 139.100 C 83.000 139.200 83.100 139.100 83.000 139.100 H 80.200 C 80.100 139.100 80.200 139.200 80.200 139.100 V 133.300 C 80.200 133.200 80.100 133.300 80.200 133.300 H 83.000 C 83.100 133.300 83.000 133.200 83.000 133.300 V 136.200 Z" stroke="rgb(0,0,255)" stroke-width="0.20" />
  <path d="M 116.000 148.200 V 151.100 C 116.000 151.200 116.100 151.100 116.000 151.100 H 113.200 C 113.100 151.100 113.200 151.200 113.200 151.100 V 145.300 C 113.200 145.200 113.100 145.300 113.200 145.300 H 116.000 C 116.100 145.300 116.000 145.200 116.000 145.300 V 148.200 Z" stroke="rgb(0,0,255)" stroke-width="0.20" />
  <path d="M 116.000 136.200 V 139.100 C 116.000 139.200 116.100 139.100 116.000 139.100 H 113.200 C 113.100 139.100 113.200 139.200 113.200 139.100 V 133.300 C 113.200 133.200 113.100 133.300 113.200 133.300 H 116.000 C 116.100 133.300 116.000 133.200 116.000 133.300 V 136.200 Z" stroke="rgb(0,0,255)" stroke-width="0.20" />
  <path d="M 149.000 148.200 V 151.100 C 149.000 151.200 149.100 151.100 149.000 151.100 H 146.200 C 146.100 151.100 146.200 151.200 146.200 151.100 V 145.300 C 146.200 145.200 146.100 145.300 146.200 145.300 H 149.000 C 149.100 145.300 149.000 145.200 149.000 145.300 V 148.200 Z" stroke="rgb(0,0,255)" stroke-width="0.20" />
  <path d="M 149.000 136.200 V 139.100 C 149.000 139.200 149.100 139.100 149.000 139.100 H 146.200 C 146.100 139.100 146.200 139.200 146.200 139.100 V 133.300 C 146.200 133.200 146.100 133.300 146.200 133.300 H 149.000 C 149.100 133.300 149.000 133.200 149.000 133.300 V 136.200 Z" stroke="rgb(0,0,255)" stroke-width="0.20" />
  <path d="M 182.000 148.200 V 151.100 C 182.000 151.200 182.100 151.100 182.000 151.100 H 179.200 C 179.100 151.100 179.200 151.200 179.200 151.100 V 145.300 C 179.200 145.200 179.100 145.300 179.200 145.300 H 182.000 C 182.100 145.300 182.000 145.200 182.000 145.300 V 148.200 Z" stroke="rgb(0,0,255)" stroke-width="0.20" />
  <path d="M 182.000 136.200 V 139.100 C 182.000 139.200 182.100 139.100 182.000 139.100 H 179.200 C 179.100 139.100 179.200 139.200 179.200 139.100 V 133.300 C 179.200 133.200 179.100 133.300 179.200 133.300 H 182.000 C 182.100 133.300 182.000 133.200 182.000 133.300 V 136.200 Z" stroke="rgb(0,0,255)" stroke-width="0.20" />
  <path d="M 13.100 162.300 H 249.100 H 252.100 C 252.155 162.300 252.200 162.255 252.200 162.200 V 151.200 C 252.200 151.145 252.155 151.100 252.100 151.100 H 249.200 C 249.100 151.100 249.200 151.200 249.200 151.100 V 145.300 C 249.200 145.200 249.100 145.300 249.200 145.300 H 252.100 C 252.155 145.300 252.200 145.255 252.200 145.200 V 139.200 C 252.200 139.145 252.155 139.100 252.100 139.100 H 249.200 C 249.100 139.100 249.200 139.200 249.200 139.100 V 133.300 C 249.200 133.200 249.100 133.300 249.200 133.300 H 252.100 C 252.155 133.300 252.200 133.255 252.200 133.200 V 122.200 C 252.200 122.145 252.155 122.100 252.100 122.100 H 249.100 H 242.200 C 242.100 122.100 242.200 122.200 242.200 122.100 V 119.200 C 242.200 119.145 242.155 119.100 242.100 119.100 H 236.100 C 236.045 119.100 236.000 119.145 236.000 119.200 V 122.100 C 236.000 122.200 236.100 122.100 236.000 122.100 H 230.200 C 230.100 122.100 230.200 122.200 230.200 122.100 V 119.200 C 230.200 119.145 230.155 119.100 230.100 119.100 H 224.100 C 224.045 119.100 224.000 119.145 224.000 119.200 V 122.100 C 224.000 122.200 224.100 122.100 224.000 122.100 H 218.200 C 218.100 122.100 218.200 122.200 218.200 122.100 V 119.200 C 218.200 119.145 218.155 119.100 218.100 119.100 H 212.100 C 212.045 119.100 212.000 119.145 212.000 119.200 V 122.100 C 212.000 122.200 212.100 122.100 212.000 122.100 H 206.200 C 206.100 122.100 206.200 122.200 206.200 122.100 V 119.200 C 206.200 119.145 206.155 119.100 206.100 119.100 H 200.100 C 200.045 119.100 200.000 119.145 200.000 119.200 V 122.100 C 200.000 122.200 200.100 122.100 200.000 122.100 H 194.200 C 194.100 122.100 194.200 122.200 194.200 122.100 V 119.200 C 194.200 119.145 194.155 119.100 194.100 119.100 H 188.100 C 188.045 119.100 188.000 119.145 188.000 119.200 V 122.100 C 188.000 122.200 188.100 122.100 188.000 122.100 H 182.200 C 182.100 122.100 182.200 122.200 182.200 122.100 V 119.200 C 182.200 119.145 182.155 119.100 182.100 119.100 H 176.100 C 176.045 119.100 176.000 119.145 176.000 119.200 V 122.100 C 176.000 122.200 176.100 122.100 176.000 122.100 H 170.200 C 170.100 122.100 170.200 122.200 170.200 122.100 V 119.200 C 170.200 119.145 170.155 119.100 170.100 119.100 H 164.100 C 164.045 119.100 164.000 119.145 164.000 119.200 V 122.100 C 164.000 122.200 164.100 122.100 164.000 122.100 H 158.200 C 158.100 122.100 158.200 122.200 158.200 122.100 V 119.200 C 158.200 119.145 158.155 119.100 158.100 119.100 H 152.100 C 152.045 119.100 152.000 119.145 152.000 119.200 V 122.100 C 152.000 122.200 152.100 122.100 152.000 122.100 H 146.200 C 146.100 122.100 146.200 122.200 146.200 122.100 V 119.200 C 146.200 119.145 146.155 119.100 146.100 119.100 H 140.100 C 140.045 119.100 140.000 119.145 140.000 119.200 V 122.100 C 140.000 122.200 140.100 122.100 140.000 122.100 H 134.200 C 134.100 122.100 134.200 122.200 134.200 122.100 V 119.200 C 134.200 119.145 134.155 119.100 134.100 119.100 H 128.100 C 128.045 119.100 128.000 119.145 128.000 119.200 V 122.100 C 128.000 122.200 128.100 122.100 128.000 122.100 H 122.200 C 122.100 122.100 122.200 122.200 122.200 122.100 V 119.200 C 122.200 119.145 122.155 119.100 122.100 119.100 H 116.100 C 116.045 119.100 116.000 119.145 116.000 119.200 V 122.100 C 116.000 122.200 116.100 122.100 116.000 122.100 H 110.200 C 110.100 122.100 110.200 122.200 110.200 122.100 V 119.200 C 110.200 119.145 110.155 119.100 110.100 119.100 H 104.100 C 104.045 119.100 104.000 119.145 104.000 119.200 V 122.100 C 104.000 122.200 104.100 122.100 104.000 122.100 H 98.200 C 98.100 122.100 98.200 122.200 98.200 122.100 V 119.200 C 98.200 119.145 98.155 119.100 98.100 119.100 H 92.100 C 92.045 119.100 92.000 119.145 92.000 119.200 V 122.100 C 92.000 122.200 92.100 122.100 92.000 122.100 H 86.200 C 86.100 122.100 86.200 122.200 86.200 122.100 V 119.200 C 86.200 119.145 86.155 119.100 86.100 119.100 H 80.100 C 80.045 119.100 80.000 119.145 80.000 119.200 V 122.100 C 80.000 122.200 80.100 122.100 80.000 122.100 H 74.200 C 74.100 122.100 74.200 122.200 74.200 122.100 V 119.200 C 74.200 119.145 74.155 119.100 74.100 119.100 H 68.100 C 68.045 119.100 68.000 119.145 68.000 119.200 V 122.100 C 68.000 122.200 68.100 122.100 68.000 122.100 H 62.200 C 62.100 122.100 62.200 122.200 62.200 122.100 V 119.200 C 62.200 119.145 62.155 119.100 62.100 119.100 H 56.100 C 56.045 119.100 56.000 119.145 56.000 119.200 V 122.100 C 56.000 122.200 56.100 122.100 56.000 122.100 H 50.200 C 50.100 122.100 50.200 122.200 50.200 122.100 V 119.200 C 50.200 119.145 50.155 119.100 50.100 119.100 H 44.100 C 44.045 119.100 44.000 119.145 44.000 119.200 V 122.100 C 44.000 122.200 44.100 122.100 44.000 122.100 H 38.200 C 38.100 122.100 38.200 122.200 38.200 122.100 V 119.200 C 38.200 119.145 38.155 119.100 38.100 119.100 H 32.100 C 32.045 119.100 32.000 119.145 32.000 119.200 V 122.100 C 32.000 122.200 32.100 122.100 32.000 122.100 H 26.200 C 26.100 122.100 26.200 122.200 26.200 122.100 V 119.200 C 26.200 119.145 26.155 119.100 26.100 119.100 H 20.100 C 20.045 119.100 20.000 119.145 20.000 119.200 V 122.100 C 20.000 122.200 20.100 122.100 20.000 122.100 H 13.100 H 10.100 C 10.045 122.100 10.000 122.145 10.000 122.200 V 133.200 C 10.000 133.255 10.045 133.300 10.100 133.300 H 13.000 C 13.100 133.300 13.000 133.200 13.000 133.300 V 139.100 C 13.000 139.200 13.100 139.100 13.000 139.100 H 10.100 C 10.045 139.100 10.000 139.145 10.000 139.200 V 145.200 C 10.000 145.255 10.045 145.300 10.100 145.300 H 13.000 C 13.100 145.300 13.000 145.200 13.000 145.300 V 151.100 C 13.000 151.200 13.100 151.100 13.000 151.100 H 10.100 C 10.045 151.100 10.000 151.145 10.000 151.200 V 162.200 C 10.000 162.255 10.045 162.300 10.100 162.300 H 13.100 Z" stroke="rgb(0,0,0)" stroke-width="0.20" />
</g>
<g id="p-2" style="fill:none;stroke-linecap:round;stroke-linejoin:round;">
  <path d="M 83.000 100.500 V 103.400 C 83.000 103.500 83.100 103.400 83.000 103.400 H 80.200 C 80.100 103.400 80.200 103.500 80.200 103.400 V 97.600 C 80.200 97.500 80.100 97.600 80.200 97.600 H 83.000 C 83.100 97.600 83.000 97.500 83.000 97.600 V 100.500 Z" stroke="rgb(0,0,255)" stroke-width="0.20" />
  <path d="M 83.000 88.500 V 91.400 C 83.000 91.500 83.100 91.400 83.000 91.400 H 80.200 C 80.100 91.400 80.200 91.500 80.200 91.400 V 85.600 C 80.200 85.500 80.100 85.600 80.200 85.600 H 83.000 C 83.100 85.600 83.000 85.500 83.000 85.600 V 88.500 Z" stroke="rgb(0,0,255)" stroke-width="0.20" />
  <path d="M 116.000 100.500 V 103.400 C 116.000 103.500 116.100 103.400 116.000 103.400 H 113.200 C 113.100 103.400 113.200 103.500 113.200 103.400 V 97.600 C 113.200 97.500 113.100 97.600 113.200 97.600 H 116.000 C 116.100 97.600 116.000 97.500 116.000 97.600 V 100.500 Z" stroke="rgb(0,0,255)" stroke-width="0.20" />
  <path d="M 116.000 88.500 V 91.400 C 116.000 91.500 116.100 91.400 116.000 91.400 H 113.200 C 113.100 91.400 113.200 91.500 113.200 91.400 V 85.600 C 113.200 85.500 113.100 85.600 113.200 85.600 H 116.000 C 116.100 85.600 116.000 85.500 116.000 85.600 V 88.500 Z" stroke="rgb(0,0,255)" stroke-width="0.20" />
  <path d="M 149.000 100.500 V 103.400 C 149.000 103.500 149.100 103.400 149.000 103.400 H 146.200 C 146.100 103.400 146.200 103.500 146.200 103.400 V 97.600 C 146.200 97.500 146.100 97.600 146.200 97.600 H 149.000 C 149.100 97.600 149.000 97.500 149.000 97.600 V 100.500 Z" stroke="rgb(0,0,255)" stroke-width="0.20" />
  <path d="M 149.000 88.500 V 91.400 C 149.000 91.500 149.100 91.400 149.000 91.400 H 146.200 C 146.100 91.400 146.200 91.500 146.200 91.400 V 85.600 C 146.200 85.500 146.100 85.600 146.200 85.600 H 149.000 C 149.100 85.600 149.000 85.500 149.000 85.600 V 88.500 Z" stroke="rgb(0,0,255)" stroke-width="0.20" />
  <path d="M 182.000 100.500 V 103.400 C 182.000 103.500 182.100 103.400 182.000 103.400 H 179.200 C 179.100 103.400 179.200 103.500 179.200 103.400 V 97.600 C 179.200 97.500 179.100 97.600 179.200 97.600 H 182.000 C 182.100 97.600 182.000 97.500 182.000 97.600 V 100.500 Z" stroke="rgb(0,0,255)" stroke-width="0.20" />
  <path d="M 182.000 88.500 V 91.400 C 182.000 91.500 182.100 91.400 182.000 91.400 H 179.200 C 179.100 91.400 179.200 91.500 179.200 91.400 V 85.600 C 179.200 85.500 179.100 85.600 179.200 85.600 H 182.000 C 182.100 85.600 182.000 85.500 182.000 85.600 V 88.500 Z" stroke="rgb(0,0,255)" stroke-width="0.20" />
  <path d="M 13.100 117.600 H 20.100 C 20.155 117.600 20.200 117.555 20.200 117.500 V 114.600 C 20.200 114.500 20.100 114.600 20.200 114.600 H 26.000 C 26.100 114.600 26.000 114.500 26.000 114.600 V 117.500 C 26.000 117.555 26.045 117.600 26.100 117.600 H 32.100 C 32.155 117.600 32.200 117.555 32.200 117.500 V 114.600 C 32.200 114.500 32.100 114.600 32.200 114.600 H 38.000 C 38.100 114.600 38.000 114.500 38.000 114.600 V 117.500 C 38.000 117.555 38.045 117.600 38.100 117.600 H 44.100 C 44.155 117.600 44.200 117.555 44.200 117.500 V 114.600 C 44.200 114.500 44.100 114.600 44.200 114.600 H 50.000 C 50.100 114.600 50.000 114.500 50.000 114.600 V 117.500 C 50.000 117.555 50.045 117.600 50.100 117.600 H 56.100 C 56.155 117.600 56.200 117.555 56.200 117.500 V 114.600 C 56.200 114.500 56.100 114.600 56.200 114.600 H 62.000 C 62.100 114.600 62.000 114.500 62.000 114.600 V 117.500 C 62.000 117.555 62.045 117.600 62.100 117.600 H 68.100 C 68.155 117.600 68.200 117.555 68.200 117.500 V 114.600 C 68.200 114.500 68.100 114.600 68.200 114.600 H 74.000 C 74.100 114.600 74.000 114.500 74.000 114.600 V 117.500 C 74.000 117.555 74.045 117.600 74.100 117.600 H 80.100 C 80.155 117.600 80.200 117.555 80.200 117.500 V 114.600 C 80.200 114.500 80.100 114.600 80.200 114.600 H 86.000 C 86.100 114.600 86.000 114.500 86.000 114.600 V 117.500 C 86.000 117.555 86.045 117.600 86.100 117.600 H 92.100 C 92.155 117.600 92.200 117.555 92.200 117.500 V 114.600 C 92.200 114.500 92.100 114.600 92.200 114.600 H 98.000 C 98.100 114.600 98.000 114.500 98.000 114.600 V 117.500 C 98.000 117.555 98.045 117.600 98.100 117.600 H 104.100 C 104.155 117.600 104.200 117.555 104.200 117.500 V 114.600 C 104.200 114.500 104.100 114.600 104.200 114.600 H 110.000 C 110.100 114.600 110.000 114.500 110.000 114.600 V 117.500 C 110.000 117.555 110.045 117.600 110.100 117.600 H 116.100 C 116.155 117.600 116.200 117.555 116.200 117.500 V 114.600 C 116.200 114.500 116.100 114.600 116.200 114.600 H 122.000 C 122.100 114.600 122.000 114.500 122.000 114.600 V 117.500 C 122.000 117.555 122.045 117.600 122.100 117.600 H 128.100 C 128.155 117.600 128.200 117.555 128.200 117.500 V 114.600 C 128.200 114.500 128.100 114.600 128.200 114.600 H 134.000 C 134.100 114.600 134.000 114.500 134.000 114.600 V 117.500 C 134.000 117.555 134.045 117.600 134.100 117.600 H 140.100 C 140.155 117.600 140.200 117.555 140.200 117.500 V 114.600 C 140.200 114.500 140.100 114.600 140.200 114.600 H 146.000 C 146.100 114.600 146.000 114.500 146.000 114.600 V 117.500 C 146.000 117.555 146.045 117.600 146.100 117.600 H 152.100 C 152.155 117.600 152.200 117.555 152.200 117.500 V 114.600 C 152.200 114.500 152.100 114.600 152.200 114.600 H 158.000 C 158.100 114.600 158.000 114.500 158.000 114.600 V 117.500 C 158.000 117.555 158.045 117.600 158.100 117.600 H 164.100 C 164.155 117.600 164.200 117.555 164.200 117.500 V 114.600 C 164.200 114.500 164.100 114.600 164.200 114.600 H 170.000 C 170.100 114.600 170.000 114.500 170.000 114.600 V 117.500 C 170.000 117.555 170.045 117.600 170.100 117.600 H 176.100 C 176.155 117.600 176.200 117.555 176.200 117.500 V 114.600 C 176.200 114.500 176.100 114.600 176.200 114.600 H 182.000 C 182.100 114.600 182.000 114.500 182.000 114.600 V 117.500 C 182.000 117.555 182.045 117.600 182.100 117.600 H 188.100 C 188.155 117.600 188.200 117.555 188.200 117.500 V 114.600 C 188.200 114.500 188.100 114.600 188.200 114.600 H 194.000 C 194.100 114.600 194.000 114.500 194.000 114.600 V 117.500 C 194.000 117.555 194.045 117.600 194.100 117.600 H 200.100 C 200.155 117.600 200.200 117.555 200.200 117.500 V 114.600 C 200.200 114.500 200.100 114.600 200.200 114.600 H 206.000 C 206.100 114.600 206.000 114.500 206.000 114.600 V 117.500 C 206.000 117.555 206.045 117.600 206.100 117.600 H 212.100 C 212.155 117.600 212.200 117.555 212.200 117.500 V 114.600 C 212.200 114.500 212.100 114.600 212.200 114.600 H 218.000 C 218.100 114.600 218.000 114.500 218.000 114.600 V 117.500 C 218.000 117.555 218.045 117.600 218.100 117.600 H 224.100 C 224.155 117.600 224.200 117.555 224.200 117.500 V 114.600 C 224.200 114.500 224.100 114.600 224.200 114.600 H 230.000 C 230.100 114.600 230.000 114.500 230.000 114.600 V 117.500 C 230.000 117.555 230.045 117.600 230.100 117.600 H 236.100 C 236.155 117.600 236.200 117.555 236.200 117.500 V 114.600 C 236.200 114.500 236.100 114.600 236.200 114.600 H 242.000 C 242.100 114.600 242.000 114.500 242.000 114.600 V 117.500 C 242.000 117.555 242.045 117.600 242.100 117.600 H 249.100 H 252.100 C 252.155 117.600 252.200 117.555 252.200 117.500 V 114.500 V 103.500 C 252.200 103.445 252.155 103.400 252.100 103.400 H 249.200 C 249.100 103.400 249.200 103.500 249.200 103.400 V 97.600 C 249.200 97.500 249.100 97.600 249.200 97.600 H 252.100 C 252.155 97.600 252.200 97.555 252.200 97.500 V 91.500 C 252.200 91.445 252.155 91.400 252.100 91.400 H 249.200 C 249.100 91.400 249.200 91.500 249.200 91.400 V 85.600 C 249.200 85.500 249.100 85.600 249.200 85.600 H 252.100 C 252.155 85.600 252.200 85.555 252.200 85.500 V 74.500 C 252.200 74.445 252.155 74.400 252.100 74.400 H 249.100 H 242.200 C 242.100 74.400 242.200 74.500 242.200 74.400 V 71.500 C 242.200 71.445 242.155 71.400 242.100 71.400 H 236.100 C 236.045 71.400 236.000 71.445 236.000 71.500 V 74.400 C 236.000 74.500 236.100 74.400 236.000 74.400 H 230.200 C 230.100 74.400 230.200 74.500 230.200 74.400 V 71.500 C 230.200 71.445 230.155 71.400 230.100 71.400 H 224.100 C 224.045 71.400 224.000 71.445 224.000 71.500 V 74.400 C 224.000 74.500 224.100 74.400 224.000 74.400 H 218.200 C 218.100 74.400 218.200 74.500 218.200 74.400 V 71.500 C 218.200 71.445 218.155 71.400 218.100 71.400 H 212.100 C 212.045 71.400 212.000 71.445 212.000 71.500 V 74.400 C 212.000 74.500 212.100 74.400 212.000 74.400 H 206.200 C 206.100 74.400 206.200 74.500 206.200 74.400 V 71.500 C 206.200 71.445 206.155 71.400 206.100 71.400 H 200.100 C 200.045 71.400 200.000 71.445 200.000 71.500 V 74.400 C 200.000 74.500 200.100 74.400 200.000 74.400 H 194.200 C 194.100 74.400 194.200 74.500 194.200 74.400 V 71.500 C 194.200 71.445 194.155 71.400 194.100 71.400 H 188.100 C 188.045 71.400 188.000 71.445 188.000 71.500 V 74.400 C 188.000 74.500 188.100 74.400 188.000 74.400 H 182.200 C 182.100 74.400 182.200 74.500 182.200 74.400 V 71.500 C 182.200 71.445 182.155 71.400 182.100 71.400 H 176.100 C 176.045 71.400 176.000 71.445 176.000 71.500 V 74.400 C 176.000 74.500 176.100 74.400 176.000 74.400 H 170.200 C 170.100 74.400 170.200 74.500 170.200 74.400 V 71.500 C 170.200 71.445 170.155 71.400 170.100 71.400 H 164.100 C 164.045 71.400 164.000 71.445 164.000 71.500 V 74.400 C 164.000 74.500 164.100 74.400 164.000 74.400 H 158.200 C 158.100 74.400 158.200 74.500 158.200 74.400 V 71.500 C 158.200 71.445 158.155 71.400 158.100 71.400 H 152.100 C 152.045 71.400 152.000 71.445 152.000 71.500 V 74.400 C 152.000 74.500 152.100 74.400 152.000 74.400 H 146.200 C 146.100 74.400 146.200 74.500 146.200 74.400 V 71.500 C 146.200 71.445 146.155 71.400 146.100 71.400 H 140.100 C 140.045 71.400 140.000 71.445 140.000 71.500 V 74.400 C 140.000 74.500 140.100 74.400 140.000 74.400 H 134.200 C 134.100 74.400 134.200 74.500 134.200 74.400 V 71.500 C 134.200 71.445 134.155 71.400 134.100 71.400 H 128.100 C 128.045 71.400 128.000 71.445 128.000 71.500 V 74.400 C 128.000 74.500 128.100 74.400 128.000 74.400 H 122.200 C 122.100 74.400 122.200 74.500 122.200 74.400 V 71.500 C 122.200 71.445 122.155 71.400 122.100 71.400 H 116.100 C 116.045 71.400 116.000 71.445 116.000 71.500 V 74.400 C 116.000 74.500 116.100 74.400 116.000 74.400 H 110.200 C 110.100 74.400 110.200 74.500 110.200 74.400 V 71.500 C 110.200 71.445 110.155 71.400 110.100 71.400 H 104.100 C 104.045 71.400 104.000 71.445 104.000 71.500 V 74.400 C 104.000 74.500 104.100 74.400 104.000 74.400 H 98.200 C 98.100 74.400 98.200 74.500 98.200 74.400 V 71.500 C 98.200 71.445 98.155 71.400 98.100 71.400 H 92.100 C 92.045 71.400 92.000 71.445 92.000 71.500 V 74.400 C 92.000 74.500 92.100 74.400 92.000 74.400 H 86.200 C 86.100 74.400 86.200 74.500 86.200 74.400 V 71.500 C 86.200 71.445 86.155 71.400 86.100 71.400 H 80.100 C 80.045 71.400 80.000 71.445 80.000 71.500 V 74.400 C 80.000 74.500 80.100 74.400 80.000 74.400 H 74.200 C 74.100 74.400 74.200 74.500 74.200 74.400 V 71.500 C 74.200 71.445 74.155 71.400 74.100 71.400 H 68.100 C 68.045 71.400 68.000 71.445 68.000 71.500 V 74.400 C 68.000 74.500 68.100 74.400 68.000 74.400 H 62.200 C 62.100 74.400 62.200 74.500 62.200 74.400 V 71.500 C 62.200 71.445 62.155 71.400 62.100 71.400 H 56.100 C 56.045 71.400 56.000 71.445 56.000 71.500 V 74.400 C 56.000 74.500 56.100 74.400 56.000 74.400 H 50.200 C 50.100 74.400 50.200 74.500 50.200 74.400 V 71.500 C 50.200 71.445 50.155 71.400 50.100 71.400 H 44.100 C 44.045 71.400 44.000 71.445 44.000 71.500 V 74.400 C 44.000 74.500 44.100 74.400 44.000 74.400 H 38.200 C 38.100 74.400 38.200 74.500 38.200 74.400 V 71.500 C 38.200 71.445 38.155 71.400 38.100 71.400 H 32.100 C 32.045 71.400 32.000 71.445 32.000 71.500 V 74.400 C 32.000 74.500 32.100 74.400 32.000 74.400 H 26.200 C 26.100 74.400 26.200 74.500 26.200 74.400 V 71.500 C 26.200 71.445 26.155 71.400 26.100 71.400 H 20.100 C 20.045 71.400 20.000 71.445 20.000 71.500 V 74.400 C 20.000 74.500 20.100 74.400 20.000 74.400 H 13.100 H 10.100 C 10.045 74.400 10.000 74.445 10.000 74.500 V 85.500 C 10.000 85.555 10.045 85.600 10.100 85.600 H 13.000 C 13.100 85.600 13.000 85.500 13.000 85.600 V 91.400 C 13.000 91.500 13.100 91.400 13.000 91.400 H 10.100 C 10.045 91.400 10.000 91.445 10.000 91.500 V 97.500 C 10.000 97.555 10.045 97.600 10.100 97.600 H 13.000 C 13.100 97.600 13.000 97.500 13.000 97.600 V 103.400 C 13.000 103.500 13.100 103.400 13.000 103.400 H 10.100 C 10.045 103.400 10.000 103.445 10.000 103.500 V 114.500 V 117.500 C 10.000 117.555 10.045 117.600 10.100 117.600 H 13.100 Z" stroke="rgb(0,0,0)" stroke-width="0.20" />
</g>
<g id="p-3" style="fill:none;stroke-linecap:round;stroke-linejoin:round;">
  <path d="M 83.000 60.800 V 63.700 C 83.000 63.800 83.100 63.700 83.000 63.700 H 80.200 C 80.100 63.700 80.200 63.800 80.200 63.700 V 57.900 C 80.200 57.800 80.100 57.900 80.200 57.900 H 83.000 C 83.100 57.900 83.000 57.800 83.000 57.900 V 60.800 Z" stroke="rgb(0,0,255)" stroke-width="0.20" />
  <path d="M 116.000 60.800 V 63.700 C 116.000 63.800 116.100 63.700 116.000 63.700 H 113.200 C 113.100 63.700 113.200 63.800 113.200 63.700 V 57.900 C 113.200 57.800 113.100 57.900 113.200 57.900 H 116.000 C 116.100 57.900 116.000 57.800 116.000 57.900 V 60.800 Z" stroke="rgb(0,0,255)" stroke-width="0.20" />
  <path d="M 149.000 60.800 V 63.700 C 149.000 63.800 149.100 63.700 149.000 63.700 H 146.200 C 146.100 63.700 146.200 63.800 146.200 63.700 V 57.900 C 146.200 57.800 146.100 57.900 146.200 57.900 H 149.000 C 149.100 57.900 149.000 57.800 149.000 57.900 V 60.800 Z" stroke="rgb(0,0,255)" stroke-width="0.20" />
  <path d="M 182.000 60.800 V 63.700 C 182.000 63.800 182.100 63.700 182.000 63.700 H 179.200 C 179.100 63.700 179.200 63.800 179.200 63.700 V 57.900 C 179.200 57.800 179.100 57.900 179.200 57.900 H 182.000 C 182.100 57.900 182.000 57.800 182.000 57.900 V 60.800 Z" stroke="rgb(0,0,255)" stroke-width="0.20" />
  <path d="M 13.100 69.900 H 20.100 C 20.155 69.900 20.200 69.855 20.200 69.800 V 66.900 C 20.200 66.800 20.100 66.900 20.200 66.900 H 26.000 C 26.100 66.900 26.000 66.800 26.000 66.900 V 69.800 C 26.000 69.855 26.045 69.900 26.100 69.900 H 32.100 C 32.155 69.900 32.200 69.855 32.200 69.800 V 66.900 C 32.200 66.800 32.100 66.900 32.200 66.900 H 38.000 C 38.100 66.900 38.000 66.800 38.000 66.900 V 69.800 C 38.000 69.855 38.045 69.900 38.100 69.900 H 44.100 C 44.155 69.900 44.200 69.855 44.200 69.800 V 66.900 C 44.200 66.800 44.100 66.900 44.200 66.900 H 50.000 C 50.100 66.900 50.000 66.800 50.000 66.900 V 69.800 C 50.000 69.855 50.045 69.900 50.100 69.900 H 56.100 C 56.155 69.900 56.200 69.855 56.200 69.800 V 66.900 C 56.200 66.800 56.100 66.900 56.200 66.900 H 62.000 C 62.100 66.900 62.000 66.800 62.000 66.900 V 69.800 C 62.000 69.855 62.045 69.900 62.100 69.900 H 68.100 C 68.155 69.900 68.200 69.855 68.200 69.800 V 66.900 C 68.200 66.800 68.100 66.900 68.200 66.900 H 74.000 C 74.100 66.900 74.000 66.800 74.000 66.900 V 69.800 C 74.000 69.855 74.045 69.900 74.100 69.900 H 80.100 C 80.155 69.900 80.200 69.855 80.200 69.800 V 66.900 C 80.200 66.800 80.100 66.900 80.200 66.900 H 86.000 C 86.100 66.900 86.000 66.800 86.000 66.900 V 69.800 C 86.000 69.855 86.045 69.900 86.100 69.900 H 92.100 C 92.155 69.900 92.200 69.855 92.200 69.800 V 66.900 C 92.200 66.800 92.100 66.900 92.200 66.900 H 98.000 C 98.100 66.900 98.000 66.800 98.000 66.900 V 69.800 C 98.000 69.855 98.045 69.900 98.100 69.900 H 104.100 C 104.155 69.900 104.200 69.855 104.200 69.800 V 66.900 C 104.200 66.800 104.100 66.900 104.200 66.900 H 110.000 C 110.100 66.900 110.000 66.800 110.000 66.900 V 69.800 C 110.000 69.855 110.045 69.900 110.100 69.900 H 116.100 C 116.155 69.900 116.200 69.855 116.200 69.800 V 66.900 C 116.200 66.800 116.100 66.900 116.200 66.900 H 122.000 C 122.100 66.900 122.000 66.800 122.000 66.900 V 69.800 C 122.000 69.855 122.045 69.900 122.100 69.900 H 128.100 C 128.155 69.900 128.200 69.855 128.200 69.800 V 66.900 C 128.200 66.800 128.100 66.900 128.200 66.900 H 134.000 C 134.100 66.900 134.000 66.800 134.000 66.900 V 69.800 C 134.000 69.855 134.045 69.900 134.100 69.900 H 140.100 C 140.155 69.900 140.200 69.855 140.200 69.800 V 66.900 C 140.200 66.800 140.100 66.900 140.200 66.900 H 146.000 C 146.100 66.900 146.000 66.800 146.000 66.900 V 69.800 C 146.000 69.855 146.045 69.900 146.100 69.900 H 152.100 C 152.155 69.900 152.200 69.855 152.200 69.800 V 66.900 C 152.200 66.800 152.100 66.900 152.200 66.900 H 158.000 C 158.100 66.900 158.000 66.800 158.000 66.900 V 69.800 C 158.000 69.855 158.045 69.900 158.100 69.900 H 164.100 C 164.155 69.900 164.200 69.855 164.200 69.800 V 66.900 C 164.200 66.800 164.100 66.900 164.200 66.900 H 170.000 C 170.100 66.900 170.000 66.800 170.000 66.900 V 69.800 C 170.000 69.855 170.045 69.900 170.100 69.900 H 176.100 C 176.155 69.900 176.200 69.855 176.200 69.800 V 66.900 C 176.200 66.800 176.100 66.900 176.200 66.900 H 182.000 C 182.100 66.900 182.000 66.800 182.000 66.900 V 69.800 C 182.000 69.855 182.045 69.900 182.100 69.900 H 188.100 C 188.155 69.900 188.200 69.855 188.200 69.800 V 66.900 C 188.200 66.800 188.100 66.900 188.200 66.900 H 194.000 C 194.100 66.900 194.000 66.800 194.000 66.900 V 69.800 C 194.000 69.855 194.045 69.900 194.100 69.900 H 200.100 C 200.155 69.900 200.200 69.855 200.200 69.800 V 66.900 C 200.200 66.800 200.100 66.900 200.200 66.900 H 206.000 C 206.100 66.900 206.000 66.800 206.000 66.900 V 69.800 C 206.000 69.855 206.045 69.900 206.100 69.900 H 212.100 C 212.155 69.900 212.200 69.855 212.200 69.800 V 66.900 C 212.200 66.800 212.100 66.900 212.200 66.900 H 218.000 C 218.100 66.900 218.000 66.800 218.000 66.900 V 69.800 C 218.000 69.855 218.045 69.900 218.100 69.900 H 224.100 C 224.155 69.900 224.200 69.855 224.200 69.800 V 66.900 C 224.200 66.800 224.100 66.900 224.200 66.900 H 230.000 C 230.100 66.900 230.000 66.800 230.000 66.900 V 69.800 C 230.000 69.855 230.045 69.900 230.100 69.900 H 236.100 C 236.155 69.900 236.200 69.855 236.200 69.800 V 66.900 C 236.200 66.800 236.100 66.900 236.200 66.900 H 242.000 C 242.100 66.900 242.000 66.800 242.000 66.900 V 69.800 C 242.000 69.855 242.045 69.900 242.100 69.900 H 249.100 H 252.100 C 252.155 69.900 252.200 69.855 252.200 69.800 V 66.800 V 63.800 C 252.200 63.745 252.155 63.700 252.100 63.700 H 249.200 C 249.100 63.700 249.200 63.800 249.200 63.700 V 57.900 C 249.200 57.800 249.100 57.900 249.200 57.900 H 252.100 C 252.155 57.900 252.200 57.855 252.200 57.800 V 54.800 C 252.200 54.745 252.155 54.700 252.100 54.700 H 249.100 H 13.100 H 10.100 C 10.045 54.700 10.000 54.745 10.000 54.800 V 57.800 C 10.000 57.855 10.045 57.900 10.100 57.900 H 13.000 C 13.100 57.900 13.000 57.800 13.000 57.900 V 63.700 C 13.000 63.800 13.100 63.700 13.000 63.700 H 10.100 C 10.045 63.700 10.000 63.745 10.000 63.800 V 66.800 V 69.800 C 10.000 69.855 10.045 69.900 10.100 69.900 H 13.100 Z" stroke="rgb(0,0,0)" stroke-width="0.20" />
</g>
<g id="p-4" style="fill:none;stroke-linecap:round;stroke-linejoin:round;">
  <path d="M 13.100 50.200 H 24.000 C 24.100 50.200 24.000 50.100 24.000 50.200 V 53.100 C 24.000 53.155 24.045 53.200 24.100 53.200 H 30.100 C 30.155 53.200 30.200 53.155 30.200 53.100 V 50.200 C 30.200 50.100 30.100 50.200 30.200 50.200 H 36.000 C 36.100 50.200 36.000 50.100 36.000 50.200 V 53.100 C 36.000 53.155 36.045 53.200 36.100 53.200 H 42.100 C 42.155 53.200 42.200 53.155 42.200 53.100 V 50.200 C 42.200 50.100 42.100 50.200 42.200 50.200 H 53.100 C 53.155 50.200 53.200 50.155 53.200 50.100 V 47.200 C 53.200 47.100 53.100 47.200 53.200 47.200 H 56.100 C 56.155 47.200 56.200 47.155 56.200 47.100 V 41.100 C 56.200 41.045 56.155 41.000 56.100 41.000 H 53.200 C 53.100 41.000 53.200 41.100 53.200 41.000 V 38.100 C 53.200 38.045 53.155 38.000 53.100 38.000 C 53.121 38.000 53.141 38.006 53.157 38.018 L 13.157 10.018 C 13.141 10.006 13.121 10.000 13.100 10.000 C 13.045 10.000 13.000 10.045 13.000 10.100 V 21.000 C 13.000 21.100 13.100 21.000 13.000 21.000 H 10.100 C 10.045 21.000 10.000 21.045 10.000 21.100 V 27.100 C 10.000 27.155 10.045 27.200 10.100 27.200 H 13.000 C 13.100 27.200 13.000 27.100 13.000 27.200 V 33.000 C 13.000 33.100 13.100 33.000 13.000 33.000 H 10.100 C 10.045 33.000 10.000 33.045 10.000 33.100 V 39.100 C 10.000 39.155 10.045 39.200 10.100 39.200 H 13.000 C 13.100 39.200 13.000 39.100 13.000 39.200 V 50.100 C 13.000 50.155 13.045 50.200 13.100 50.200 Z" stroke="rgb(0,0,0)" stroke-width="0.20" />
</g>
<g id="p-5" style="fill:none;stroke-linecap:round;stroke-linejoin:round;">
  <path d="M 60.800 50.200 H 71.700 C 71.800 50.200 71.700 50.100 71.700 50.200 V 53.100 C 71.700 53.155 71.745 53.200 71.800 53.200 H 77.800 C 77.855 53.200 77.900 53.155 77.900 53.100 V 50.200 C 77.900 50.100 77.800 50.200 77.900 50.200 H 83.700 C 83.800 50.200 83.700 50.100 83.700 50.200 V 53.100 C 83.700 53.155 83.745 53.200 83.800 53.200 H 89.800 C 89.855 53.200 89.900 53.155 89.900 53.100 V 50.200 C 89.900 50.100 89.800 50.200 89.900 50.200 H 100.800 C 100.855 50.200 100.900 50.155 100.900 50.100 V 47.200 C 100.900 47.100 100.800 47.200 100.900 47.200 H 103.800 C 103.855 47.200 103.900 47.155 103.900 47.100 V 41.100 C 103.900 41.045 103.855 41.000 103.800 41.000 H 100.900 C 100.800 41.000 100.900 41.100 100.900 41.000 V 38.100 C 100.900 38.045 100.855 38.000 100.800 38.000 C 100.821 38.000 100.841 38.006 100.857 38.018 L 60.857 10.018 C 60.841 10.006 60.821 10.000 60.800 10.000 C 60.745 10.000 60.700 10.045 60.700 10.100 V 21.000 C 60.700 21.100 60.800 21.000 60.700 21.000 H 57.800 C 57.745 21.000 57.700 21.045 57.700 21.100 V 27.100 C 57.700 27.155 57.745 27.200 57.800 27.200 H 60.700 C 60.800 27.200 60.700 27.100 60.700 27.200 V 33.000 C 60.700 33.100 60.800 33.000 60.700 33.000 H 57.800 C 57.745 33.000 57.700 33.045 57.700 33.100 V 39.100 C 57.700 39.155 57.745 39.200 57.800 39.200 H 60.700 C 60.800 39.200 60.700 39.100 60.700 39.200 V 50.100 C 60.700 50.155 60.745 50.200 60.800 50.200 Z" stroke="rgb(0,0,0)" stroke-width="0.20" />
</g>
<g id="p-6" style="fill:none;stroke-linecap:round;stroke-linejoin:round;">
  <path d="M 108.500 50.200 H 119.400 C 119.500 50.200 119.400 50.100 119.400 50.200 V 53.100 C 119.400 53.155 119.445 53.200 119.500 53.200 H 125.500 C 125.555 53.200 125.600 53.155 125.600 53.100 V 50.200 C 125.600 50.100 125.500 50.200 125.600 50.200 H 131.400 C 131.500 50.200 131.400 50.100 131.400 50.200 V 53.100 C 131.400 53.155 131.445 53.200 131.500 53.200 H 137.500 C 137.555 53.200 137.600 53.155 137.600 53.100 V 50.200 C 137.600 50.100 137.500 50.200 137.600 50.200 H 148.500 C 148.555 50.200 148.600 50.155 148.600 50.100 V 47.200 C 148.600 47.100 148.500 47.200 148.600 47.200 H 151.500 C 151.555 47.200 151.600 47.155 151.600 47.100 V 41.100 C 151.600 41.045 151.555 41.000 151.500 41.000 H 148.600 C 148.500 41.000 148.600 41.100 148.600 41.000 V 38.100 C 148.600 38.045 148.555 38.000 148.500 38.000 C 148.521 38.000 148.541 38.006 148.557 38.018 L 108.557 10.018 C 108.541 10.006 108.521 10.000 108.500 10.000 C 108.445 10.000 108.400 10.045 108.400 10.100 V 21.000 C 108.400 21.100 108.500 21.000 108.400 21.000 H 105.500 C 105.445 21.000 105.400 21.045 105.400 21.100 V 27.100 C 105.400 27.155 105.445 27.200 105.500 27.200 H 108.400 C 108.500 27.200 108.400 27.100 108.400 27.200 V 33.000 C 108.400 33.100 108.500 33.000 108.400 33.000 H 105.500 C 105.445 33.000 105.400 33.045 105.400 33.100 V 39.100 C 105.400 39.155 105.445 39.200 105.500 39.200 H 108.400 C 108.500 39.200 108.400 39.100 108.400 39.200 V 50.100 C 108.400 50.155 108.445 50.200 108.500 50.200 Z" stroke="rgb(0,0,0)" stroke-width="0.20" />
</g>
<g id="p-7" style="fill:none;stroke-linecap:round;stroke-linejoin:round;">
  <path d="M 156.200 50.200 H 167.100 C 167.200 50.200 167.100 50.100 167.100 50.200 V 53.100 C 167.100 53.155 167.145 53.200 167.200 53.200 H 173.200 C 173.255 53.200 173.300 53.155 173.300 53.100 V 50.200 C 173.300 50.100 173.200 50.200 173.300 50.200 H 179.100 C 179.200 50.200 179.100 50.100 179.100 50.200 V 53.100 C 179.100 53.155 179.145 53.200 179.200 53.200 H 185.200 C 185.255 53.200 185.300 53.155 185.300 53.100 V 50.200 C 185.300 50.100 185.200 50.200 185.300 50.200 H 196.200 C 196.255 50.200 196.300 50.155 196.300 50.100 V 47.200 C 196.300 47.100 196.200 47.200 196.300 47.200 H 199.200 C 199.255 47.200 199.300 47.155 199.300 47.100 V 41.100 C 199.300 41.045 199.255 41.000 199.200 41.000 H 196.300 C 196.200 41.000 196.300 41.100 196.300 41.000 V 38.100 C 196.300 38.045 196.255 38.000 196.200 38.000 C 196.221 38.000 196.241 38.006 196.257 38.018 L 156.257 10.018 C 156.241 10.006 156.221 10.000 156.200 10.000 C 156.145 10.000 156.100 10.045 156.100 10.100 V 21.000 C 156.100 21.100 156.200 21.000 156.100 21.000 H 153.200 C 153.145 21.000 153.100 21.045 153.100 21.100 V 27.100 C 153.100 27.155 153.145 27.200 153.200 27.200 H 156.100 C 156.200 27.200 156.100 27.100 156.100 27.200 V 33.000 C 156.100 33.100 156.200 33.000 156.100 33.000 H 153.200 C 153.145 33.000 153.100 33.045 153.100 33.100 V 39.100 C 153.100 39.155 153.145 39.200 153.200 39.200 H 156.100 C 156.200 39.200 156.100 39.100 156.100 39.200 V 50.100 C 156.100 50.155 156.145 50.200 156.200 50.200 Z" stroke="rgb(0,0,0)" stroke-width="0.20" />
</g>
<g id="p-8" style="fill:none;stroke-linecap:round;stroke-linejoin:round;">
  <path d="M 203.900 50.200 H 214.800 C 214.900 50.200 214.800 50.100 214.800 50.200 V 53.100 C 214.800 53.155 214.845 53.200 214.900 53.200 H 220.900 C 220.955 53.200 221.000 53.155 221.000 53.100 V 50.200 C 221.000 50.100 220.900 50.200 221.000 50.200 H 226.800 C 226.900 50.200 226.800 50.100 226.800 50.200 V 53.100 C 226.800 53.155 226.845 53.200 226.900 53.200 H 232.900 C 232.955 53.200 233.000 53.155 233.000 53.100 V 50.200 C 233.000 50.100 232.900 50.200 233.000 50.200 H 243.900 C 243.955 50.200 244.000 50.155 244.000 50.100 V 47.200 C 244.000 47.100 243.900 47.200 244.000 47.200 H 246.900 C 246.955 47.200 247.000 47.155 247.000 47.100 V 41.100 C 247.000 41.045 246.955 41.000 246.900 41.000 H 244.000 C 243.900 41.000 244.000 41.100 244.000 41.000 V 38.100 C 244.000 38.045 243.955 38.000 243.900 38.000 C 243.921 38.000 243.941 38.006 243.957 38.018 L 203.957 10.018 C 203.941 10.006 203.921 10.000 203.900 10.000 C 203.845 10.000 203.800 10.045 203.800 10.100 V 21.000 C 203.800 21.100 203.900 21.000 203.800 21.000 H 200.900 C 200.845 21.000 200.800 21.045 200.800 21.100 V 27.100 C 200.800 27.155 200.845 27.200 200.900 27.200 H 203.800 C 203.900 27.200 203.800 27.100 203.800 27.200 V 33.000 C 203.800 33.100 203.900 33.000 203.800 33.000 H 200.900 C 200.845 33.000 200.800 33.045 200.800 33.100 V 39.100 C 200.800 39.155 200.845 39.200 200.900 39.200 H 203.800 C 203.900 39.200 203.800 39.100 203.800 39.200 V 50.100 C 203.800 50.155 203.845 50.200 203.900 50.200 Z" stroke="rgb(0,0,0)" stroke-width="0.20" />
</g>
<g id="p-9" style="fill:none;stroke-linecap:round;stroke-linejoin:round;">
  <path d="M 251.600 50.200 H 262.500 C 262.600 50.200 262.500 50.100 262.500 50.200 V 53.100 C 262.500 53.155 262.545 53.200 262.600 53.200 H 268.600 C 268.655 53.200 268.700 53.155 268.700 53.100 V 50.200 C 268.700 50.100 268.600 50.200 268.700 50.200 H 274.500 C 274.600 50.200 274.500 50.100 274.500 50.200 V 53.100 C 274.500 53.155 274.545 53.200 274.600 53.200 H 280.600 C 280.655 53.200 280.700 53.155 280.700 53.100 V 50.200 C 280.700 50.100 280.600 50.200 280.700 50.200 H 291.600 C 291.655 50.200 291.700 50.155 291.700 50.100 V 47.200 C 291.700 47.100 291.600 47.200 291.700 47.200 H 294.600 C 294.655 47.200 294.700 47.155 294.700 47.100 V 41.100 C 294.700 41.045 294.655 41.000 294.600 41.000 H 291.700 C 291.600 41.000 291.700 41.100 291.700 41.000 V 38.100 C 291.700 38.045 291.655 38.000 291.600 38.000 C 291.621 38.000 291.641 38.006 291.657 38.018 L 251.657 10.018 C 251.641 10.006 251.621 10.000 251.600 10.000 C 251.545 10.000 251.500 10.045 251.500 10.100 V 21.000 C 251.500 21.100 251.600 21.000 251.500 21.000 H 248.600 C 248.545 21.000 248.500 21.045 248.500 21.100 V 27.100 C 248.500 27.155 248.545 27.200 248.600 27.200 H 251.500 C 251.600 27.200 251.500 27.100 251.500 27.200 V 33.000 C 251.500 33.100 251.600 33.000 251.500 33.000 H 248.600 C 248.545 33.000 248.500 33.045 248.500 33.100 V 39.100 C 248.500 39.155 248.545 39.200 248.600 39.200 H 251.500 C 251.600 39.200 251.500 39.100 251.500 39.200 V 50.100 C 251.500 50.155 251.545 50.200 251.600 50.200 Z" stroke="rgb(0,0,0)" stroke-width="0.20" />
</g>
</svg>