<?xml version="1.0" encoding="utf-8"?>
<!-- Generator: Adobe Illustrator 19.2.1, SVG Export Plug-In . SVG Version: 6.00 Build 0)  -->
<svg version="1.1" id="Ebene_1" xmlns="http://www.w3.org/2000/svg" xmlns:xlink="http://www.w3.org/1999/xlink" x="0px" y="0px"
	 width="453.54px" height="340.16px" viewBox="0 0 453.54 340.16" style="enable-background:new 0 0 453.54 340.16;"
	 xml:space="preserve">
<style type="text/css">
	.st0{fill:#FFFFFF;stroke:#000000;stroke-width:0.7087;stroke-linecap:round;stroke-linejoin:round;stroke-miterlimit:10;}
	.st1{font-family:'ArialMT';}
	.st2{font-size:14px;}
</style>
<g>
	<g id="ARC_23_">
		<path class="st0" d="M236.44,109.79v-9.68c0-2.29-1.82-4.17-4.11-4.25c-4.81-0.16-9.64-0.16-14.46,0
			c-2.29,0.08-4.11,1.96-4.11,4.25c0,0,0,9.68,0,9.68c0,1.54,0.25,3.08,0.75,4.54c0.9,2.65,0.9,5.52,0,8.17
			c-2.26,6.67-9.49,10.26-16.17,8c-6.67-2.26-10.26-9.49-8-16.17c0.49-1.46,0.75-2.99,0.75-4.54v-6.21c0-2.35-1.9-4.25-4.25-4.25
			c-0.27,0-0.54,0.03-0.81,0.08c-21.4,4.17-39.58,11.64-51.88,21.34c-1.84,1.45-2.16,4.13-0.71,5.97c0.81,1.02,2.04,1.62,3.34,1.62
			c0,0,17.46,0,17.46,0c4.9,0,8.86,9.52,8.86,21.26c0,11.74-3.97,21.26-8.86,21.26c0,0-17.46,0-17.46,0c-2.35,0-4.25,1.9-4.25,4.25
			c0,1.3,0.6,2.53,1.62,3.34c14.31,11.28,36.48,19.49,62.22,23.06c1.55,0.21,2.98-0.87,3.2-2.42c0.02-0.13,0.03-0.26,0.03-0.39
			c0,0,0-4.54,0-4.54c0-1.38-0.5-2.71-1.42-3.75c-1.89-2.14-1.89-5.36,0-7.5c2.07-2.35,5.65-2.57,8-0.5c2.35,2.07,2.57,5.65,0.5,8
			c-0.91,1.04-1.42,2.37-1.42,3.75v5.78c0,1.48,1.13,2.71,2.61,2.83c11.42,0.93,23.06,0.93,34.47,0c1.47-0.12,2.61-1.35,2.61-2.83
			c0,0,0-5.78,0-5.78c0-1.38-0.5-2.71-1.42-3.75c-1.89-2.14-1.89-5.36,0-7.5c2.07-2.35,5.65-2.57,8-0.5c2.35,2.07,2.57,5.65,0.5,8
			c-0.91,1.04-1.42,2.37-1.42,3.75v4.54c0,1.57,1.27,2.83,2.83,2.83c0.13,0,0.26-0.01,0.39-0.03c25.74-3.56,47.92-11.78,62.22-23.06
			c1.84-1.45,2.16-4.13,0.71-5.97c-0.81-1.02-2.04-1.62-3.34-1.62c0,0-17.46,0-17.46,0c-4.9,0-8.86-9.52-8.86-21.26
			s3.97-21.26,8.86-21.26c0,0,17.46,0,17.46,0c2.35,0,4.25-1.9,4.25-4.25c0-1.3-0.6-2.53-1.62-3.34
			c-12.3-9.7-30.48-17.17-51.88-21.34c-2.31-0.45-4.54,1.06-4.99,3.36c-0.05,0.27-0.08,0.54-0.08,0.81c0,0,0,6.21,0,6.21
			c0,1.54,0.25,3.08,0.75,4.54c0.9,2.65,0.9,5.52,0,8.17c-2.26,6.67-9.49,10.26-16.17,8c-6.67-2.26-10.26-9.49-8-16.17
			C236.19,112.87,236.44,111.34,236.44,109.79z"/>
	</g>
</g>
<g id="MTEXT">
	<text transform="matrix(1 0 0 1 58.5123 242.8315)" class="st1 st2">EarBudsBuddy - ZenziWerken - 3 mm Birch Plywood</text>
</g>
</svg>
