<?xml version="1.0" encoding="UTF-8" standalone="no"?>
<svg
   height="210mm"
   viewBox="0 0 296.99998 210"
   width="296.99997mm"
   version="1.1"
   id="svg10"
   sodipodi:docname="DividerTray_A4.svg"
   inkscape:version="1.4.2 (ebf0e94, 2025-05-08)"
   xmlns:inkscape="http://www.inkscape.org/namespaces/inkscape"
   xmlns:sodipodi="http://sodipodi.sourceforge.net/DTD/sodipodi-0.dtd"
   xmlns="http://www.w3.org/2000/svg"
   xmlns:svg="http://www.w3.org/2000/svg"
   xmlns:rdf="http://www.w3.org/1999/02/22-rdf-syntax-ns#"
   xmlns:cc="http://creativecommons.org/ns#"
   xmlns:dc="http://purl.org/dc/elements/1.1/">
  <defs
     id="defs10" />
  <sodipodi:namedview
     id="namedview10"
     pagecolor="#ffffff"
     bordercolor="#000000"
     borderopacity="0.25"
     inkscape:showpageshadow="2"
     inkscape:pageopacity="0.0"
     inkscape:pagecheckerboard="0"
     inkscape:deskcolor="#d1d1d1"
     inkscape:document-units="mm"
     inkscape:zoom="0.28729937"
     inkscape:cx="1110.34"
     inkscape:cy="468.15278"
     inkscape:window-width="1920"
     inkscape:window-height="1017"
     inkscape:window-x="1912"
     inkscape:window-y="-8"
     inkscape:window-maximized="1"
     inkscape:current-layer="svg10">
    <inkscape:page
       x="1.9563116e-13"
       y="0"
       width="297"
       height="210"
       id="page11"
       margin="0"
       bleed="0" />
    <inkscape:page
       x="307"
       y="0"
       width="297"
       height="210"
       id="page12"
       margin="0"
       bleed="0" />
  </sodipodi:namedview>
  <!--
DividerTray - Divider tray - rows and dividers



Adding '0:' at the start of the sy parameter adds a slot at the very back. Adding ':0' at the end of sy adds a slot meeting the bottom at the very front. This is especially useful if slot angle is set above zero.

There are 4 different sets of dividers rendered:

* With asymmetric tabs so the tabs fit on top of each other
* With tabs of half wall thickness that can go side by side
* With tabs of a full wall thickness
* One single divider spanning across all columns

You will likely need to cut each of the dividers you want multiple times.



Created with Boxes.py (https://boxes.hackerspace-bamberg.de/)
Creation date: 2025-11-24 21:18:03
Command line (remove spaces between dashes): boxes DividerTray - -FingerJoint_finger=0 - -Slot_angle=30 - -Slot_depth=40 '- -sx=67*1' '- -sy=28*10' - -h=98 - -notches_in_wall=0 - -bottom=0 - -bottom=1 - -spacing=0.5
Url: https://boxes.hackerspace-bamberg.de/DividerTray?FingerJoint_style=rectangular&FingerJoint_surroundingspaces=2.0&FingerJoint_bottom_lip=0.0&FingerJoint_edge_width=1.0&FingerJoint_extra_length=0.0&FingerJoint_finger=0&FingerJoint_play=0.0&FingerJoint_space=2.0&FingerJoint_width=1.0&HandleEdge_height=20&HandleEdge_hole_height=75.0&HandleEdge_hole_width=40%3A40&HandleEdge_on_sides=0&HandleEdge_on_sides=1&HandleEdge_radius=10.0&HandleEdge_outset=1.0&Lid_handle=none&Lid_style=none&Lid_handle_height=8.0&Lid_height=4.0&Lid_play=0.1&Slot_angle=30&Slot_depth=40&Slot_extra_slack=0.2&Slot_radius=2&Notch_depth=15&Notch_lower_radius=8&Notch_upper_radius=1&Divider_bottom_margin=0&Divider_play=0.05&sx=67*1&sy=28*10&h=98&outside=0&outside=1&notches_in_wall=0&left_wall=0&left_wall=1&right_wall=0&right_wall=1&bottom=0&bottom=1&handle=0&thickness=3.0&format=svg&tabs=0.0&qr_code=0&debug=0&labels=0&labels=1&reference=100.0&inner_corners=loop&burn=0.1&spacing=0.5&language=en&render=2
Url short: https://boxes.hackerspace-bamberg.de/DividerTray?FingerJoint_finger=0&Slot_angle=30&Slot_depth=40&sx=67*1&sy=28*10&h=98&notches_in_wall=0&bottom=0&bottom=1&spacing=0.5
SettingsUrl: https://boxes.hackerspace-bamberg.de/DividerTray?FingerJoint_style=rectangular&FingerJoint_surroundingspaces=2.0&FingerJoint_bottom_lip=0.0&FingerJoint_edge_width=1.0&FingerJoint_extra_length=0.0&FingerJoint_finger=0&FingerJoint_play=0.0&FingerJoint_space=2.0&FingerJoint_width=1.0&HandleEdge_height=20&HandleEdge_hole_height=75.0&HandleEdge_hole_width=40%3A40&HandleEdge_on_sides=0&HandleEdge_on_sides=1&HandleEdge_radius=10.0&HandleEdge_outset=1.0&Lid_handle=none&Lid_style=none&Lid_handle_height=8.0&Lid_height=4.0&Lid_play=0.1&Slot_angle=30&Slot_depth=40&Slot_extra_slack=0.2&Slot_radius=2&Notch_depth=15&Notch_lower_radius=8&Notch_upper_radius=1&Divider_bottom_margin=0&Divider_play=0.05&sx=67*1&sy=28*10&h=98&outside=0&outside=1&notches_in_wall=0&left_wall=0&left_wall=1&right_wall=0&right_wall=1&bottom=0&bottom=1&handle=0&thickness=3.0&format=svg&tabs=0.0&qr_code=0&debug=0&labels=0&labels=1&reference=100.0&inner_corners=loop&burn=0.1&spacing=0.5&language=en&render=2
SettingsUrl short: https://boxes.hackerspace-bamberg.de/DividerTray?FingerJoint_finger=0&Slot_angle=30&Slot_depth=40&sx=67*1&sy=28*10&h=98&notches_in_wall=0&bottom=0&bottom=1&spacing=0.5
-->
  <title
     id="title1">DividerTray</title>
  <metadata
     id="metadata1">
    <rdf:RDF>
      <cc:Work>
        <dc:title>DividerTray</dc:title>
        <dc:date>2025-11-24 21:18:03</dc:date>
        <dc:source>https://boxes.hackerspace-bamberg.de/DividerTray?FingerJoint_style=rectangular&amp;FingerJoint_surroundingspaces=2.0&amp;FingerJoint_bottom_lip=0.0&amp;FingerJoint_edge_width=1.0&amp;FingerJoint_extra_length=0.0&amp;FingerJoint_finger=0&amp;FingerJoint_play=0.0&amp;FingerJoint_space=2.0&amp;FingerJoint_width=1.0&amp;HandleEdge_height=20&amp;HandleEdge_hole_height=75.0&amp;HandleEdge_hole_width=40%3A40&amp;HandleEdge_on_sides=0&amp;HandleEdge_on_sides=1&amp;HandleEdge_radius=10.0&amp;HandleEdge_outset=1.0&amp;Lid_handle=none&amp;Lid_style=none&amp;Lid_handle_height=8.0&amp;Lid_height=4.0&amp;Lid_play=0.1&amp;Slot_angle=30&amp;Slot_depth=40&amp;Slot_extra_slack=0.2&amp;Slot_radius=2&amp;Notch_depth=15&amp;Notch_lower_radius=8&amp;Notch_upper_radius=1&amp;Divider_bottom_margin=0&amp;Divider_play=0.05&amp;sx=67*1&amp;sy=28*10&amp;h=98&amp;outside=0&amp;outside=1&amp;notches_in_wall=0&amp;left_wall=0&amp;left_wall=1&amp;right_wall=0&amp;right_wall=1&amp;bottom=0&amp;bottom=1&amp;handle=0&amp;thickness=3.0&amp;format=svg&amp;tabs=0.0&amp;qr_code=0&amp;debug=0&amp;labels=0&amp;labels=1&amp;reference=100.0&amp;inner_corners=loop&amp;burn=0.1&amp;spacing=0.5&amp;language=en&amp;render=2</dc:source>
        <dc:source>https://boxes.hackerspace-bamberg.de/DividerTray?FingerJoint_finger=0&amp;Slot_angle=30&amp;Slot_depth=40&amp;sx=67*1&amp;sy=28*10&amp;h=98&amp;notches_in_wall=0&amp;bottom=0&amp;bottom=1&amp;spacing=0.5</dc:source>
        <dc:description>Divider tray - rows and dividers


Adding '0:' at the start of the sy parameter adds a slot at the very back. Adding ':0' at the end of sy adds a slot meeting the bottom at the very front. This is especially useful if slot angle is set above zero.

There are 4 different sets of dividers rendered:

* With asymmetric tabs so the tabs fit on top of each other
* With tabs of half wall thickness that can go side by side
* With tabs of a full wall thickness
* One single divider spanning across all columns

You will likely need to cut each of the dividers you want multiple times.


Created with Boxes.py (https://boxes.hackerspace-bamberg.de/)
Command line: boxes DividerTray --FingerJoint_style=rectangular --FingerJoint_surroundingspaces=2.0 --FingerJoint_bottom_lip=0.0 --FingerJoint_edge_width=1.0 --FingerJoint_extra_length=0.0 --FingerJoint_finger=0 --FingerJoint_play=0.0 --FingerJoint_space=2.0 --FingerJoint_width=1.0 --HandleEdge_height=20 --HandleEdge_hole_height=75.0 --HandleEdge_hole_width=40:40 --HandleEdge_on_sides=0 --HandleEdge_on_sides=1 --HandleEdge_radius=10.0 --HandleEdge_outset=1.0 --Lid_handle=none --Lid_style=none --Lid_handle_height=8.0 --Lid_height=4.0 --Lid_play=0.1 --Slot_angle=30 --Slot_depth=40 --Slot_extra_slack=0.2 --Slot_radius=2 --Notch_depth=15 --Notch_lower_radius=8 --Notch_upper_radius=1 --Divider_bottom_margin=0 --Divider_play=0.05 '--sx=67*1' '--sy=28*10' --h=98 --outside=0 --outside=1 --notches_in_wall=0 --left_wall=0 --left_wall=1 --right_wall=0 --right_wall=1 --bottom=0 --bottom=1 --handle=0 --thickness=3.0 --format=svg --tabs=0.0 --qr_code=0 --debug=0 --labels=0 --labels=1 --reference=100.0 --inner_corners=loop --burn=0.1 --spacing=0.5
Command line short: boxes DividerTray --FingerJoint_finger=0 --Slot_angle=30 --Slot_depth=40 '--sx=67*1' '--sy=28*10' --h=98 --notches_in_wall=0 --bottom=0 --bottom=1 --spacing=0.5
Url: https://boxes.hackerspace-bamberg.de/DividerTray?FingerJoint_style=rectangular&amp;FingerJoint_surroundingspaces=2.0&amp;FingerJoint_bottom_lip=0.0&amp;FingerJoint_edge_width=1.0&amp;FingerJoint_extra_length=0.0&amp;FingerJoint_finger=0&amp;FingerJoint_play=0.0&amp;FingerJoint_space=2.0&amp;FingerJoint_width=1.0&amp;HandleEdge_height=20&amp;HandleEdge_hole_height=75.0&amp;HandleEdge_hole_width=40%3A40&amp;HandleEdge_on_sides=0&amp;HandleEdge_on_sides=1&amp;HandleEdge_radius=10.0&amp;HandleEdge_outset=1.0&amp;Lid_handle=none&amp;Lid_style=none&amp;Lid_handle_height=8.0&amp;Lid_height=4.0&amp;Lid_play=0.1&amp;Slot_angle=30&amp;Slot_depth=40&amp;Slot_extra_slack=0.2&amp;Slot_radius=2&amp;Notch_depth=15&amp;Notch_lower_radius=8&amp;Notch_upper_radius=1&amp;Divider_bottom_margin=0&amp;Divider_play=0.05&amp;sx=67*1&amp;sy=28*10&amp;h=98&amp;outside=0&amp;outside=1&amp;notches_in_wall=0&amp;left_wall=0&amp;left_wall=1&amp;right_wall=0&amp;right_wall=1&amp;bottom=0&amp;bottom=1&amp;handle=0&amp;thickness=3.0&amp;format=svg&amp;tabs=0.0&amp;qr_code=0&amp;debug=0&amp;labels=0&amp;labels=1&amp;reference=100.0&amp;inner_corners=loop&amp;burn=0.1&amp;spacing=0.5&amp;language=en&amp;render=2
Url short: https://boxes.hackerspace-bamberg.de/DividerTray?FingerJoint_finger=0&amp;Slot_angle=30&amp;Slot_depth=40&amp;sx=67*1&amp;sy=28*10&amp;h=98&amp;notches_in_wall=0&amp;bottom=0&amp;bottom=1&amp;spacing=0.5
SettingsUrl: https://boxes.hackerspace-bamberg.de/DividerTray?FingerJoint_style=rectangular&amp;FingerJoint_surroundingspaces=2.0&amp;FingerJoint_bottom_lip=0.0&amp;FingerJoint_edge_width=1.0&amp;FingerJoint_extra_length=0.0&amp;FingerJoint_finger=0&amp;FingerJoint_play=0.0&amp;FingerJoint_space=2.0&amp;FingerJoint_width=1.0&amp;HandleEdge_height=20&amp;HandleEdge_hole_height=75.0&amp;HandleEdge_hole_width=40%3A40&amp;HandleEdge_on_sides=0&amp;HandleEdge_on_sides=1&amp;HandleEdge_radius=10.0&amp;HandleEdge_outset=1.0&amp;Lid_handle=none&amp;Lid_style=none&amp;Lid_handle_height=8.0&amp;Lid_height=4.0&amp;Lid_play=0.1&amp;Slot_angle=30&amp;Slot_depth=40&amp;Slot_extra_slack=0.2&amp;Slot_radius=2&amp;Notch_depth=15&amp;Notch_lower_radius=8&amp;Notch_upper_radius=1&amp;Divider_bottom_margin=0&amp;Divider_play=0.05&amp;sx=67*1&amp;sy=28*10&amp;h=98&amp;outside=0&amp;outside=1&amp;notches_in_wall=0&amp;left_wall=0&amp;left_wall=1&amp;right_wall=0&amp;right_wall=1&amp;bottom=0&amp;bottom=1&amp;handle=0&amp;thickness=3.0&amp;format=svg&amp;tabs=0.0&amp;qr_code=0&amp;debug=0&amp;labels=0&amp;labels=1&amp;reference=100.0&amp;inner_corners=loop&amp;burn=0.1&amp;spacing=0.5&amp;language=en&amp;render=2
SettingsUrl short: https://boxes.hackerspace-bamberg.de/DividerTray?FingerJoint_finger=0&amp;Slot_angle=30&amp;Slot_depth=40&amp;sx=67*1&amp;sy=28*10&amp;h=98&amp;notches_in_wall=0&amp;bottom=0&amp;bottom=1&amp;spacing=0.5
</dc:description>
      </cc:Work>
    </rdf:RDF>
  </metadata>
  <g
     id="g12"
     transform="translate(-383.18023,-10.951576)">
    <g
       id="p-1"
       style="fill:none;stroke-linecap:round;stroke-linejoin:round"
       transform="rotate(-90,160.81678,-4.7186721)">
      <text
         dominant-baseline="hanging"
         font-size="4px"
         style="font-style:normal;font-weight:normal;font-family:sans-serif;fill:#ff0000"
         text-anchor="middle"
         transform="translate(43.6,677.858)"
         id="text2">Back</text>
      <path
         d="m 13.1,728.858 h 30.5 30.5 3 c 0.055,0 0.1,-0.045 0.1,-0.1 v -3 -47.5 -47.5 c 0,-0.055 -0.045,-0.1 -0.1,-0.1 h -3 -61 -3 c -0.055,0 -0.1,0.045 -0.1,0.1 v 47.5 47.5 3 c 0,0.055 0.045,0.1 0.1,0.1 h 3"
         stroke="#000000"
         stroke-width="0.2"
         id="path2" />
    </g>
    <g
       id="p-2"
       style="fill:none;stroke-linecap:round;stroke-linejoin:round"
       transform="rotate(-90,161.46678,-5.3686721)">
      <text
         dominant-baseline="hanging"
         font-size="4px"
         style="font-style:normal;font-weight:normal;font-family:sans-serif;fill:#ff0000"
         text-anchor="middle"
         transform="translate(43.6,578.158)"
         id="text3">Front</text>
      <path
         d="m 13.1,629.158 h 30.5 30.5 3 c 0.055,0 0.1,-0.045 0.1,-0.1 v -3 -47.5 -47.5 c 0,-0.055 -0.045,-0.1 -0.1,-0.1 h -3 -61 -3 c -0.055,0 -0.1,0.045 -0.1,0.1 v 47.5 47.5 3 c 0,0.055 0.045,0.1 0.1,0.1 h 3"
         stroke="#000000"
         stroke-width="0.2"
         id="path3" />
    </g>
  </g>
  <g
     id="p-3"
     style="fill:none;stroke-linecap:round;stroke-linejoin:round"
     transform="translate(-1.5999743,-326.158)">
    <text
       dominant-baseline="hanging"
       font-size="4px"
       style="font-style:normal;font-weight:normal;font-family:sans-serif;fill:#ff0000"
       text-anchor="middle"
       transform="translate(150.1,478.458)"
       id="text4">Sidepiece 1</text>
    <path
       d="m 13.1,529.458 h 137 137 c 0.055,0 0.1,-0.045 0.1,-0.1 v -3 -47.5 -47.5 c 0,-0.055 -0.045,-0.1 -0.1,-0.1 h -17.435 c -0.369,0 -0.731,0.097 -1.05,0.281 -0.319,0.185 -0.584,0.45 -0.769,0.769 l -20.296,35.154 c -0.05,0.087 0.087,0.05 0,0 l -2.598,-1.5 c -0.087,-0.05 -0.05,0.087 0,0 l 18.218,-31.554 c 0.184,-0.319 0.281,-0.681 0.281,-1.05 0,-0.369 -0.097,-0.731 -0.281,-1.05 -0.184,-0.319 -0.45,-0.584 -0.769,-0.769 -0.319,-0.184 -0.681,-0.281 -1.05,-0.281 H 247.38 c -0.368,0 -0.73,0.097 -1.05,0.281 -0.319,0.185 -0.584,0.45 -0.768,0.769 l -20.297,35.154 c -0.05,0.087 0.087,0.05 0,0 l -2.598,-1.5 c -0.086,-0.05 -0.05,0.087 0,0 l 18.218,-31.554 c 0.185,-0.319 0.282,-0.681 0.282,-1.05 0,-0.369 -0.097,-0.731 -0.282,-1.05 -0.184,-0.319 -0.449,-0.584 -0.768,-0.769 -0.32,-0.184 -0.682,-0.281 -1.05,-0.281 h -13.971 c -0.369,0 -0.731,0.097 -1.05,0.281 -0.32,0.185 -0.585,0.45 -0.769,0.769 l -20.296,35.154 c -0.05,0.087 0.086,0.05 0,0 l -2.598,-1.5 c -0.087,-0.05 -0.05,0.087 0,0 l 18.218,-31.554 c 0.184,-0.319 0.281,-0.681 0.281,-1.05 0,-0.369 -0.097,-0.731 -0.281,-1.05 -0.185,-0.319 -0.45,-0.584 -0.769,-0.769 -0.319,-0.184 -0.682,-0.281 -1.05,-0.281 h -13.971 c -0.369,0 -0.731,0.097 -1.05,0.281 -0.319,0.185 -0.584,0.45 -0.769,0.769 l -20.296,35.154 c -0.05,0.087 0.087,0.05 0,0 l -2.598,-1.5 c -0.087,-0.05 -0.05,0.087 0,0 l 18.218,-31.554 c 0.184,-0.319 0.281,-0.681 0.281,-1.05 0,-0.369 -0.097,-0.731 -0.281,-1.05 -0.184,-0.319 -0.45,-0.584 -0.769,-0.769 -0.319,-0.184 -0.681,-0.281 -1.05,-0.281 h -13.971 c -0.368,0 -0.73,0.097 -1.05,0.281 -0.319,0.185 -0.584,0.45 -0.768,0.769 l -20.297,35.154 c -0.05,0.087 0.087,0.05 0,0 l -2.598,-1.5 c -0.086,-0.05 -0.05,0.087 0,0 l 18.218,-31.554 c 0.184,-0.319 0.282,-0.681 0.282,-1.05 0,-0.369 -0.098,-0.731 -0.282,-1.05 -0.184,-0.319 -0.449,-0.584 -0.768,-0.769 -0.32,-0.184 -0.682,-0.281 -1.05,-0.281 h -13.971 c -0.369,0 -0.731,0.097 -1.05,0.281 -0.32,0.185 -0.585,0.45 -0.769,0.769 l -20.296,35.154 c -0.05,0.087 0.086,0.05 0,0 l -2.598,-1.5 c -0.087,-0.05 -0.05,0.087 0,0 l 18.217,-31.554 c 0.185,-0.319 0.282,-0.681 0.282,-1.05 0,-0.369 -0.097,-0.731 -0.282,-1.05 -0.184,-0.319 -0.449,-0.584 -0.768,-0.769 -0.319,-0.184 -0.682,-0.281 -1.05,-0.281 h -13.971 c -0.369,0 -0.731,0.097 -1.05,0.281 -0.319,0.185 -0.584,0.45 -0.769,0.769 l -20.296,35.154 c -0.05,0.087 0.087,0.05 0,0 l -2.598,-1.5 c -0.087,-0.05 -0.05,0.087 0,0 l 18.218,-31.554 c 0.184,-0.319 0.281,-0.681 0.281,-1.05 0,-0.369 -0.097,-0.731 -0.281,-1.05 -0.184,-0.319 -0.45,-0.584 -0.769,-0.769 -0.319,-0.184 -0.681,-0.281 -1.05,-0.281 h -13.971 c -0.368,0 -0.73,0.097 -1.05,0.281 -0.319,0.185 -0.584,0.45 -0.768,0.769 l -20.297,35.154 c -0.05,0.087 0.087,0.05 0,0 l -2.598,-1.5 c -0.086,-0.05 -0.05,0.087 0,0 l 18.218,-31.554 c 0.184,-0.319 0.281,-0.681 0.281,-1.05 0,-0.369 -0.097,-0.731 -0.281,-1.05 -0.184,-0.319 -0.449,-0.584 -0.769,-0.769 -0.319,-0.184 -0.681,-0.281 -1.05,-0.281 h -13.97 c -0.369,0 -0.731,0.097 -1.05,0.281 -0.32,0.185 -0.585,0.45 -0.769,0.769 l -20.296,35.154 c -0.05,0.087 0.086,0.05 0,0 l -2.598,-1.5 c -0.087,-0.05 -0.05,0.087 0,0 l 18.217,-31.554 c 0.185,-0.319 0.282,-0.681 0.282,-1.05 0,-0.369 -0.097,-0.731 -0.282,-1.05 -0.184,-0.319 -0.449,-0.584 -0.768,-0.769 -0.319,-0.184 -0.682,-0.281 -1.05,-0.281 H 13.1 c -0.055,0 -0.1,0.045 -0.1,0.1 v 47.5 47.5 3 c 0,0.055 0.045,0.1 0.1,0.1"
       stroke="#000000"
       stroke-width="0.2"
       id="path4" />
  </g>
  <g
     id="p-4"
     style="fill:none;stroke-linecap:round;stroke-linejoin:round"
     transform="translate(-1.5999743,-324.858)">
    <text
       dominant-baseline="hanging"
       font-size="4px"
       style="font-style:normal;font-weight:normal;font-family:sans-serif;fill:#ff0000"
       text-anchor="middle"
       transform="translate(150.1,378.758)"
       id="text5">Sidepiece 2</text>
    <path
       d="m 13.1,429.758 h 137 137 c 0.055,0 0.1,-0.045 0.1,-0.1 v -3 -47.5 -47.5 c 0,-0.055 -0.045,-0.1 -0.1,-0.1 h -17.435 c -0.369,0 -0.731,0.097 -1.05,0.281 -0.319,0.185 -0.584,0.45 -0.769,0.769 l -20.296,35.154 c -0.05,0.087 0.087,0.05 0,0 l -2.598,-1.5 c -0.087,-0.05 -0.05,0.087 0,0 l 18.218,-31.554 c 0.184,-0.319 0.281,-0.681 0.281,-1.05 0,-0.369 -0.097,-0.731 -0.281,-1.05 -0.184,-0.319 -0.45,-0.584 -0.769,-0.769 -0.319,-0.184 -0.681,-0.281 -1.05,-0.281 H 247.38 c -0.368,0 -0.73,0.097 -1.05,0.281 -0.319,0.185 -0.584,0.45 -0.768,0.769 l -20.297,35.154 c -0.05,0.087 0.087,0.05 0,0 l -2.598,-1.5 c -0.086,-0.05 -0.05,0.087 0,0 l 18.218,-31.554 c 0.185,-0.319 0.282,-0.681 0.282,-1.05 0,-0.369 -0.097,-0.731 -0.282,-1.05 -0.184,-0.319 -0.449,-0.584 -0.768,-0.769 -0.32,-0.184 -0.682,-0.281 -1.05,-0.281 h -13.971 c -0.369,0 -0.731,0.097 -1.05,0.281 -0.32,0.185 -0.585,0.45 -0.769,0.769 l -20.296,35.154 c -0.05,0.087 0.086,0.05 0,0 l -2.598,-1.5 c -0.087,-0.05 -0.05,0.087 0,0 l 18.218,-31.554 c 0.184,-0.319 0.281,-0.681 0.281,-1.05 0,-0.369 -0.097,-0.731 -0.281,-1.05 -0.185,-0.319 -0.45,-0.584 -0.769,-0.769 -0.319,-0.184 -0.682,-0.281 -1.05,-0.281 h -13.971 c -0.369,0 -0.731,0.097 -1.05,0.281 -0.319,0.185 -0.584,0.45 -0.769,0.769 l -20.296,35.154 c -0.05,0.087 0.087,0.05 0,0 l -2.598,-1.5 c -0.087,-0.05 -0.05,0.087 0,0 l 18.218,-31.554 c 0.184,-0.319 0.281,-0.681 0.281,-1.05 0,-0.369 -0.097,-0.731 -0.281,-1.05 -0.184,-0.319 -0.45,-0.584 -0.769,-0.769 -0.319,-0.184 -0.681,-0.281 -1.05,-0.281 h -13.971 c -0.368,0 -0.73,0.097 -1.05,0.281 -0.319,0.185 -0.584,0.45 -0.768,0.769 l -20.297,35.154 c -0.05,0.087 0.087,0.05 0,0 l -2.598,-1.5 c -0.086,-0.05 -0.05,0.087 0,0 l 18.218,-31.554 c 0.184,-0.319 0.282,-0.681 0.282,-1.05 0,-0.369 -0.098,-0.731 -0.282,-1.05 -0.184,-0.319 -0.449,-0.584 -0.768,-0.769 -0.32,-0.184 -0.682,-0.281 -1.05,-0.281 h -13.971 c -0.369,0 -0.731,0.097 -1.05,0.281 -0.32,0.185 -0.585,0.45 -0.769,0.769 l -20.296,35.154 c -0.05,0.087 0.086,0.05 0,0 l -2.598,-1.5 c -0.087,-0.05 -0.05,0.087 0,0 l 18.217,-31.554 c 0.185,-0.319 0.282,-0.681 0.282,-1.05 0,-0.369 -0.097,-0.731 -0.282,-1.05 -0.184,-0.319 -0.449,-0.584 -0.768,-0.769 -0.319,-0.184 -0.682,-0.281 -1.05,-0.281 h -13.971 c -0.369,0 -0.731,0.097 -1.05,0.281 -0.319,0.185 -0.584,0.45 -0.769,0.769 l -20.296,35.154 c -0.05,0.087 0.087,0.05 0,0 l -2.598,-1.5 c -0.087,-0.05 -0.05,0.087 0,0 l 18.218,-31.554 c 0.184,-0.319 0.281,-0.681 0.281,-1.05 0,-0.369 -0.097,-0.731 -0.281,-1.05 -0.184,-0.319 -0.45,-0.584 -0.769,-0.769 -0.319,-0.184 -0.681,-0.281 -1.05,-0.281 h -13.971 c -0.368,0 -0.73,0.097 -1.05,0.281 -0.319,0.185 -0.584,0.45 -0.768,0.769 l -20.297,35.154 c -0.05,0.087 0.087,0.05 0,0 l -2.598,-1.5 c -0.086,-0.05 -0.05,0.087 0,0 l 18.218,-31.554 c 0.184,-0.319 0.281,-0.681 0.281,-1.05 0,-0.369 -0.097,-0.731 -0.281,-1.05 -0.184,-0.319 -0.449,-0.584 -0.769,-0.769 -0.319,-0.184 -0.681,-0.281 -1.05,-0.281 h -13.97 c -0.369,0 -0.731,0.097 -1.05,0.281 -0.32,0.185 -0.585,0.45 -0.769,0.769 l -20.296,35.154 c -0.05,0.087 0.086,0.05 0,0 l -2.598,-1.5 c -0.087,-0.05 -0.05,0.087 0,0 l 18.217,-31.554 c 0.185,-0.319 0.282,-0.681 0.282,-1.05 0,-0.369 -0.097,-0.731 -0.282,-1.05 -0.184,-0.319 -0.449,-0.584 -0.768,-0.769 -0.319,-0.184 -0.682,-0.281 -1.05,-0.281 H 13.1 c -0.055,0 -0.1,0.045 -0.1,0.1 v 47.5 47.5 3 c 0,0.055 0.045,0.1 0.1,0.1"
       stroke="#000000"
       stroke-width="0.2"
       id="path5" />
  </g>
  <g
     id="p-5"
     style="fill:none;stroke-linecap:round;stroke-linejoin:round"
     transform="rotate(-90,112.70088,249.74566)">
    <text
       dominant-baseline="hanging"
       font-size="4px"
       style="font-style:normal;font-weight:normal;font-family:sans-serif;fill:#ff0000"
       text-anchor="middle"
       transform="translate(325.3,586.858)"
       id="text6">Bottom</text>
    <path
       d="m 294.8,725.858 h 30.5 30.5 c 0.055,0 0.1,-0.045 0.1,-0.1 v -137 -137 c 0,-0.055 -0.045,-0.1 -0.1,-0.1 h -30.5 -30.5 c -0.055,0 -0.1,0.045 -0.1,0.1 v 137 137 c 0,0.055 0.045,0.1 0.1,0.1"
       stroke="#000000"
       stroke-width="0.2"
       id="path6" />
  </g>
  <g
     id="p-7"
     style="fill:none;stroke-linecap:round;stroke-linejoin:round"
     transform="rotate(-90,289.75983,204.47561)">
    <text
       dominant-baseline="hanging"
       font-size="4px"
       style="font-style:normal;font-weight:normal;font-family:sans-serif;fill:#ff0000"
       text-anchor="middle"
       transform="translate(325.3,281.511)"
       id="text8">Divider</text>
    <path
       d="m 291.8,337.494 h 2.95 14.333 c 0.193,0 0.383,-0.051 0.55,-0.148 0.168,-0.096 0.306,-0.235 0.403,-0.402 0.097,-0.168 0.147,-0.357 0.147,-0.55 v -6 c 0,-1.387 0.365,-2.75 1.059,-3.95 0.693,-1.201 1.69,-2.199 2.891,-2.892 1.201,-0.693 2.564,-1.058 3.95,-1.058 h 14.334 c 1.386,0 2.749,0.365 3.95,1.058 1.201,0.693 2.198,1.691 2.891,2.892 0.694,1.2 1.059,2.563 1.059,3.95 v 6 c 0,0.193 0.05,0.382 0.147,0.55 0.097,0.167 0.235,0.306 0.403,0.402 0.167,0.097 0.357,0.148 0.55,0.148 h 14.333 2.95 c 0.055,0 0.1,-0.045 0.1,-0.1 v -40 c 0,-0.056 -0.045,-0.1 -0.1,-0.1 h -2.9 c -0.1,0 0,0.1 0,0 v -67.865 c 0,-0.055 -0.045,-0.1 -0.1,-0.1 h -60.9 c -0.055,0 -0.1,0.045 -0.1,0.1 v 67.865 c 0,0.1 0.1,0 0,0 h -2.9 c -0.055,0 -0.1,0.044 -0.1,0.1 v 40 c 0,0.055 0.045,0.1 0.1,0.1"
       stroke="#000000"
       stroke-width="0.2"
       id="path8" />
  </g>
  <g
     id="g13"
     style="fill:none;stroke-linecap:round;stroke-linejoin:round"
     transform="rotate(-90,343.94233,150.29311)">
    <text
       dominant-baseline="hanging"
       font-size="4px"
       style="font-style:normal;font-weight:normal;font-family:sans-serif;fill:#ff0000"
       text-anchor="middle"
       transform="translate(325.3,281.511)"
       id="text12">Divider</text>
    <path
       d="m 291.8,337.494 h 2.95 14.333 c 0.193,0 0.383,-0.051 0.55,-0.148 0.168,-0.096 0.306,-0.235 0.403,-0.402 0.097,-0.168 0.147,-0.357 0.147,-0.55 v -6 c 0,-1.387 0.365,-2.75 1.059,-3.95 0.693,-1.201 1.69,-2.199 2.891,-2.892 1.201,-0.693 2.564,-1.058 3.95,-1.058 h 14.334 c 1.386,0 2.749,0.365 3.95,1.058 1.201,0.693 2.198,1.691 2.891,2.892 0.694,1.2 1.059,2.563 1.059,3.95 v 6 c 0,0.193 0.05,0.382 0.147,0.55 0.097,0.167 0.235,0.306 0.403,0.402 0.167,0.097 0.357,0.148 0.55,0.148 h 14.333 2.95 c 0.055,0 0.1,-0.045 0.1,-0.1 v -40 c 0,-0.056 -0.045,-0.1 -0.1,-0.1 h -2.9 c -0.1,0 0,0.1 0,0 v -67.865 c 0,-0.055 -0.045,-0.1 -0.1,-0.1 h -60.9 c -0.055,0 -0.1,0.045 -0.1,0.1 v 67.865 c 0,0.1 0.1,0 0,0 h -2.9 c -0.055,0 -0.1,0.044 -0.1,0.1 v 40 c 0,0.055 0.045,0.1 0.1,0.1"
       stroke="#000000"
       stroke-width="0.2"
       id="path12" />
  </g>
</svg>
