<?xml version='1.0' encoding='utf-8'?>
<svg height="750.56mm" viewBox="0.0 0.0 368.80 750.56" width="368.80mm" xmlns="http://www.w3.org/2000/svg" xmlns:cc="http://creativecommons.org/ns#" xmlns:dc="http://purl.org/dc/elements/1.1/" xmlns:inkscape="http://www.inkscape.org/namespaces/inkscape" xmlns:rdf="http://www.w3.org/1999/02/22-rdf-syntax-ns#" xmlns:svg="http://www.w3.org/2000/svg" xmlns:xlink="http://www.w3.org/1999/xlink">
<!--
DividerTray - Divider tray - rows and dividers



Adding '0:' at the start of the sy parameter adds a slot at the very back. Adding ':0' at the end of sy adds a slot meeting the bottom at the very front. This is especially useful if slot angle is set above zero.

There are 4 different sets of dividers rendered:

* With asymmetric tabs so the tabs fit on top of each other
* With tabs of half wall thickness that can go side by side
* With tabs of a full wall thickness
* One single divider spanning across all columns

You will likely need to cut each of the dividers you want multiple times.



Created with Boxes.py (https://boxes.hackerspace-bamberg.de/)
Creation date: 2025-11-24 21:18:03
Command line (remove spaces between dashes): boxes DividerTray - -FingerJoint_finger=0 - -Slot_angle=30 - -Slot_depth=40 '- -sx=67*1' '- -sy=28*10' - -h=98 - -notches_in_wall=0 - -bottom=0 - -bottom=1 - -spacing=0.5
Url: https://boxes.hackerspace-bamberg.de/DividerTray?FingerJoint_style=rectangular&FingerJoint_surroundingspaces=2.0&FingerJoint_bottom_lip=0.0&FingerJoint_edge_width=1.0&FingerJoint_extra_length=0.0&FingerJoint_finger=0&FingerJoint_play=0.0&FingerJoint_space=2.0&FingerJoint_width=1.0&HandleEdge_height=20&HandleEdge_hole_height=75.0&HandleEdge_hole_width=40%3A40&HandleEdge_on_sides=0&HandleEdge_on_sides=1&HandleEdge_radius=10.0&HandleEdge_outset=1.0&Lid_handle=none&Lid_style=none&Lid_handle_height=8.0&Lid_height=4.0&Lid_play=0.1&Slot_angle=30&Slot_depth=40&Slot_extra_slack=0.2&Slot_radius=2&Notch_depth=15&Notch_lower_radius=8&Notch_upper_radius=1&Divider_bottom_margin=0&Divider_play=0.05&sx=67*1&sy=28*10&h=98&outside=0&outside=1&notches_in_wall=0&left_wall=0&left_wall=1&right_wall=0&right_wall=1&bottom=0&bottom=1&handle=0&thickness=3.0&format=svg&tabs=0.0&qr_code=0&debug=0&labels=0&labels=1&reference=100.0&inner_corners=loop&burn=0.1&spacing=0.5&language=en&render=2
Url short: https://boxes.hackerspace-bamberg.de/DividerTray?FingerJoint_finger=0&Slot_angle=30&Slot_depth=40&sx=67*1&sy=28*10&h=98&notches_in_wall=0&bottom=0&bottom=1&spacing=0.5
SettingsUrl: https://boxes.hackerspace-bamberg.de/DividerTray?FingerJoint_style=rectangular&FingerJoint_surroundingspaces=2.0&FingerJoint_bottom_lip=0.0&FingerJoint_edge_width=1.0&FingerJoint_extra_length=0.0&FingerJoint_finger=0&FingerJoint_play=0.0&FingerJoint_space=2.0&FingerJoint_width=1.0&HandleEdge_height=20&HandleEdge_hole_height=75.0&HandleEdge_hole_width=40%3A40&HandleEdge_on_sides=0&HandleEdge_on_sides=1&HandleEdge_radius=10.0&HandleEdge_outset=1.0&Lid_handle=none&Lid_style=none&Lid_handle_height=8.0&Lid_height=4.0&Lid_play=0.1&Slot_angle=30&Slot_depth=40&Slot_extra_slack=0.2&Slot_radius=2&Notch_depth=15&Notch_lower_radius=8&Notch_upper_radius=1&Divider_bottom_margin=0&Divider_play=0.05&sx=67*1&sy=28*10&h=98&outside=0&outside=1&notches_in_wall=0&left_wall=0&left_wall=1&right_wall=0&right_wall=1&bottom=0&bottom=1&handle=0&thickness=3.0&format=svg&tabs=0.0&qr_code=0&debug=0&labels=0&labels=1&reference=100.0&inner_corners=loop&burn=0.1&spacing=0.5&language=en&render=2
SettingsUrl short: https://boxes.hackerspace-bamberg.de/DividerTray?FingerJoint_finger=0&Slot_angle=30&Slot_depth=40&sx=67*1&sy=28*10&h=98&notches_in_wall=0&bottom=0&bottom=1&spacing=0.5
-->
<title>DividerTray</title>
<metadata>
<rdf:RDF><cc:Work>
<dc:title>Tray - DividerTray</dc:title>
<dc:date>2025-11-24 21:18:03</dc:date>
<dc:source>https://boxes.hackerspace-bamberg.de/DividerTray?FingerJoint_style=rectangular&amp;FingerJoint_surroundingspaces=2.0&amp;FingerJoint_bottom_lip=0.0&amp;FingerJoint_edge_width=1.0&amp;FingerJoint_extra_length=0.0&amp;FingerJoint_finger=0&amp;FingerJoint_play=0.0&amp;FingerJoint_space=2.0&amp;FingerJoint_width=1.0&amp;HandleEdge_height=20&amp;HandleEdge_hole_height=75.0&amp;HandleEdge_hole_width=40%3A40&amp;HandleEdge_on_sides=0&amp;HandleEdge_on_sides=1&amp;HandleEdge_radius=10.0&amp;HandleEdge_outset=1.0&amp;Lid_handle=none&amp;Lid_style=none&amp;Lid_handle_height=8.0&amp;Lid_height=4.0&amp;Lid_play=0.1&amp;Slot_angle=30&amp;Slot_depth=40&amp;Slot_extra_slack=0.2&amp;Slot_radius=2&amp;Notch_depth=15&amp;Notch_lower_radius=8&amp;Notch_upper_radius=1&amp;Divider_bottom_margin=0&amp;Divider_play=0.05&amp;sx=67*1&amp;sy=28*10&amp;h=98&amp;outside=0&amp;outside=1&amp;notches_in_wall=0&amp;left_wall=0&amp;left_wall=1&amp;right_wall=0&amp;right_wall=1&amp;bottom=0&amp;bottom=1&amp;handle=0&amp;thickness=3.0&amp;format=svg&amp;tabs=0.0&amp;qr_code=0&amp;debug=0&amp;labels=0&amp;labels=1&amp;reference=100.0&amp;inner_corners=loop&amp;burn=0.1&amp;spacing=0.5&amp;language=en&amp;render=2</dc:source>
<dc:source>https://boxes.hackerspace-bamberg.de/DividerTray?FingerJoint_finger=0&amp;Slot_angle=30&amp;Slot_depth=40&amp;sx=67*1&amp;sy=28*10&amp;h=98&amp;notches_in_wall=0&amp;bottom=0&amp;bottom=1&amp;spacing=0.5</dc:source>
<dc:description>Divider tray - rows and dividers


Adding '0:' at the start of the sy parameter adds a slot at the very back. Adding ':0' at the end of sy adds a slot meeting the bottom at the very front. This is especially useful if slot angle is set above zero.

There are 4 different sets of dividers rendered:

* With asymmetric tabs so the tabs fit on top of each other
* With tabs of half wall thickness that can go side by side
* With tabs of a full wall thickness
* One single divider spanning across all columns

You will likely need to cut each of the dividers you want multiple times.


Created with Boxes.py (https://boxes.hackerspace-bamberg.de/)
Command line: boxes DividerTray --FingerJoint_style=rectangular --FingerJoint_surroundingspaces=2.0 --FingerJoint_bottom_lip=0.0 --FingerJoint_edge_width=1.0 --FingerJoint_extra_length=0.0 --FingerJoint_finger=0 --FingerJoint_play=0.0 --FingerJoint_space=2.0 --FingerJoint_width=1.0 --HandleEdge_height=20 --HandleEdge_hole_height=75.0 --HandleEdge_hole_width=40:40 --HandleEdge_on_sides=0 --HandleEdge_on_sides=1 --HandleEdge_radius=10.0 --HandleEdge_outset=1.0 --Lid_handle=none --Lid_style=none --Lid_handle_height=8.0 --Lid_height=4.0 --Lid_play=0.1 --Slot_angle=30 --Slot_depth=40 --Slot_extra_slack=0.2 --Slot_radius=2 --Notch_depth=15 --Notch_lower_radius=8 --Notch_upper_radius=1 --Divider_bottom_margin=0 --Divider_play=0.05 '--sx=67*1' '--sy=28*10' --h=98 --outside=0 --outside=1 --notches_in_wall=0 --left_wall=0 --left_wall=1 --right_wall=0 --right_wall=1 --bottom=0 --bottom=1 --handle=0 --thickness=3.0 --format=svg --tabs=0.0 --qr_code=0 --debug=0 --labels=0 --labels=1 --reference=100.0 --inner_corners=loop --burn=0.1 --spacing=0.5
Command line short: boxes DividerTray --FingerJoint_finger=0 --Slot_angle=30 --Slot_depth=40 '--sx=67*1' '--sy=28*10' --h=98 --notches_in_wall=0 --bottom=0 --bottom=1 --spacing=0.5
Url: https://boxes.hackerspace-bamberg.de/DividerTray?FingerJoint_style=rectangular&amp;FingerJoint_surroundingspaces=2.0&amp;FingerJoint_bottom_lip=0.0&amp;FingerJoint_edge_width=1.0&amp;FingerJoint_extra_length=0.0&amp;FingerJoint_finger=0&amp;FingerJoint_play=0.0&amp;FingerJoint_space=2.0&amp;FingerJoint_width=1.0&amp;HandleEdge_height=20&amp;HandleEdge_hole_height=75.0&amp;HandleEdge_hole_width=40%3A40&amp;HandleEdge_on_sides=0&amp;HandleEdge_on_sides=1&amp;HandleEdge_radius=10.0&amp;HandleEdge_outset=1.0&amp;Lid_handle=none&amp;Lid_style=none&amp;Lid_handle_height=8.0&amp;Lid_height=4.0&amp;Lid_play=0.1&amp;Slot_angle=30&amp;Slot_depth=40&amp;Slot_extra_slack=0.2&amp;Slot_radius=2&amp;Notch_depth=15&amp;Notch_lower_radius=8&amp;Notch_upper_radius=1&amp;Divider_bottom_margin=0&amp;Divider_play=0.05&amp;sx=67*1&amp;sy=28*10&amp;h=98&amp;outside=0&amp;outside=1&amp;notches_in_wall=0&amp;left_wall=0&amp;left_wall=1&amp;right_wall=0&amp;right_wall=1&amp;bottom=0&amp;bottom=1&amp;handle=0&amp;thickness=3.0&amp;format=svg&amp;tabs=0.0&amp;qr_code=0&amp;debug=0&amp;labels=0&amp;labels=1&amp;reference=100.0&amp;inner_corners=loop&amp;burn=0.1&amp;spacing=0.5&amp;language=en&amp;render=2
Url short: https://boxes.hackerspace-bamberg.de/DividerTray?FingerJoint_finger=0&amp;Slot_angle=30&amp;Slot_depth=40&amp;sx=67*1&amp;sy=28*10&amp;h=98&amp;notches_in_wall=0&amp;bottom=0&amp;bottom=1&amp;spacing=0.5
SettingsUrl: https://boxes.hackerspace-bamberg.de/DividerTray?FingerJoint_style=rectangular&amp;FingerJoint_surroundingspaces=2.0&amp;FingerJoint_bottom_lip=0.0&amp;FingerJoint_edge_width=1.0&amp;FingerJoint_extra_length=0.0&amp;FingerJoint_finger=0&amp;FingerJoint_play=0.0&amp;FingerJoint_space=2.0&amp;FingerJoint_width=1.0&amp;HandleEdge_height=20&amp;HandleEdge_hole_height=75.0&amp;HandleEdge_hole_width=40%3A40&amp;HandleEdge_on_sides=0&amp;HandleEdge_on_sides=1&amp;HandleEdge_radius=10.0&amp;HandleEdge_outset=1.0&amp;Lid_handle=none&amp;Lid_style=none&amp;Lid_handle_height=8.0&amp;Lid_height=4.0&amp;Lid_play=0.1&amp;Slot_angle=30&amp;Slot_depth=40&amp;Slot_extra_slack=0.2&amp;Slot_radius=2&amp;Notch_depth=15&amp;Notch_lower_radius=8&amp;Notch_upper_radius=1&amp;Divider_bottom_margin=0&amp;Divider_play=0.05&amp;sx=67*1&amp;sy=28*10&amp;h=98&amp;outside=0&amp;outside=1&amp;notches_in_wall=0&amp;left_wall=0&amp;left_wall=1&amp;right_wall=0&amp;right_wall=1&amp;bottom=0&amp;bottom=1&amp;handle=0&amp;thickness=3.0&amp;format=svg&amp;tabs=0.0&amp;qr_code=0&amp;debug=0&amp;labels=0&amp;labels=1&amp;reference=100.0&amp;inner_corners=loop&amp;burn=0.1&amp;spacing=0.5&amp;language=en&amp;render=2
SettingsUrl short: https://boxes.hackerspace-bamberg.de/DividerTray?FingerJoint_finger=0&amp;Slot_angle=30&amp;Slot_depth=40&amp;sx=67*1&amp;sy=28*10&amp;h=98&amp;notches_in_wall=0&amp;bottom=0&amp;bottom=1&amp;spacing=0.5
</dc:description>
</cc:Work></rdf:RDF></metadata>
<g id="p-0" style="fill:none;stroke-linecap:round;stroke-linejoin:round;">
  <path d="M 10.100 740.558 H 110.100 V 730.558 H 10.100 V 740.558 Z" stroke="rgb(0,0,0)" stroke-width="0.20" />
  <text dominant-baseline="hanging" font-size="6px" style="font-family: sans-serif ; font-weight: normal; font-style: normal; fill: rgb(255,0,0)" text-anchor="middle" transform="matrix( 1.000 0.000 0.000 1.000 60.100 732.558 )">100.0mm, burn:0.10mm</text>
</g>
<g id="p-1" style="fill:none;stroke-linecap:round;stroke-linejoin:round;">
  <text dominant-baseline="hanging" font-size="4px" style="font-family: sans-serif ; font-weight: normal; font-style: normal; fill: rgb(255,0,0)" text-anchor="middle" transform="matrix( 1.000 0.000 0.000 1.000 43.600 677.858 )">Back</text><path d="M 13.100 728.858 H 43.600 H 74.100 H 77.100 C 77.155 728.858 77.200 728.813 77.200 728.758 V 725.758 V 678.258 V 630.758 C 77.200 630.703 77.155 630.658 77.100 630.658 H 74.100 H 13.100 H 10.100 C 10.045 630.658 10.000 630.703 10.000 630.758 V 678.258 V 725.758 V 728.758 C 10.000 728.813 10.045 728.858 10.100 728.858 H 13.100" stroke="rgb(0,0,0)" stroke-width="0.20" />
</g>
<g id="p-2" style="fill:none;stroke-linecap:round;stroke-linejoin:round;">
  <text dominant-baseline="hanging" font-size="4px" style="font-family: sans-serif ; font-weight: normal; font-style: normal; fill: rgb(255,0,0)" text-anchor="middle" transform="matrix( 1.000 0.000 0.000 1.000 43.600 578.158 )">Front</text><path d="M 13.100 629.158 H 43.600 H 74.100 H 77.100 C 77.155 629.158 77.200 629.113 77.200 629.058 V 626.058 V 578.558 V 531.058 C 77.200 531.003 77.155 530.958 77.100 530.958 H 74.100 H 13.100 H 10.100 C 10.045 530.958 10.000 531.003 10.000 531.058 V 578.558 V 626.058 V 629.058 C 10.000 629.113 10.045 629.158 10.100 629.158 H 13.100" stroke="rgb(0,0,0)" stroke-width="0.20" />
</g>
<g id="p-3" style="fill:none;stroke-linecap:round;stroke-linejoin:round;">
  <text dominant-baseline="hanging" font-size="4px" style="font-family: sans-serif ; font-weight: normal; font-style: normal; fill: rgb(255,0,0)" text-anchor="middle" transform="matrix( 1.000 0.000 0.000 1.000 150.100 478.458 )">Sidepiece 1</text><path d="M 13.100 529.458 H 150.100 H 287.100 C 287.155 529.458 287.200 529.413 287.200 529.358 V 526.358 V 478.858 V 431.358 C 287.200 431.303 287.155 431.258 287.100 431.258 H 269.665 C 269.296 431.258 268.934 431.355 268.615 431.539 C 268.296 431.724 268.031 431.989 267.846 432.308 L 247.550 467.462 C 247.500 467.549 247.637 467.512 247.550 467.462 L 244.952 465.962 C 244.865 465.912 244.902 466.049 244.952 465.962 L 263.170 434.408 C 263.354 434.089 263.451 433.727 263.451 433.358 C 263.451 432.989 263.354 432.627 263.170 432.308 C 262.986 431.989 262.720 431.724 262.401 431.539 C 262.082 431.355 261.720 431.258 261.351 431.258 H 247.380 C 247.012 431.258 246.650 431.355 246.330 431.539 C 246.011 431.724 245.746 431.989 245.562 432.308 L 225.265 467.462 C 225.215 467.549 225.352 467.512 225.265 467.462 L 222.667 465.962 C 222.581 465.912 222.617 466.049 222.667 465.962 L 240.885 434.408 C 241.070 434.089 241.167 433.727 241.167 433.358 C 241.167 432.989 241.070 432.627 240.885 432.308 C 240.701 431.989 240.436 431.724 240.117 431.539 C 239.797 431.355 239.435 431.258 239.067 431.258 H 225.096 C 224.727 431.258 224.365 431.355 224.046 431.539 C 223.726 431.724 223.461 431.989 223.277 432.308 L 202.981 467.462 C 202.931 467.549 203.067 467.512 202.981 467.462 L 200.383 465.962 C 200.296 465.912 200.333 466.049 200.383 465.962 L 218.601 434.408 C 218.785 434.089 218.882 433.727 218.882 433.358 C 218.882 432.989 218.785 432.627 218.601 432.308 C 218.416 431.989 218.151 431.724 217.832 431.539 C 217.513 431.355 217.150 431.258 216.782 431.258 H 202.811 C 202.442 431.258 202.080 431.355 201.761 431.539 C 201.442 431.724 201.177 431.989 200.992 432.308 L 180.696 467.462 C 180.646 467.549 180.783 467.512 180.696 467.462 L 178.098 465.962 C 178.011 465.912 178.048 466.049 178.098 465.962 L 196.316 434.408 C 196.500 434.089 196.597 433.727 196.597 433.358 C 196.597 432.989 196.500 432.627 196.316 432.308 C 196.132 431.989 195.866 431.724 195.547 431.539 C 195.228 431.355 194.866 431.258 194.497 431.258 H 180.526 C 180.158 431.258 179.796 431.355 179.476 431.539 C 179.157 431.724 178.892 431.989 178.708 432.308 L 158.411 467.462 C 158.361 467.549 158.498 467.512 158.411 467.462 L 155.813 465.962 C 155.727 465.912 155.763 466.049 155.813 465.962 L 174.031 434.408 C 174.215 434.089 174.313 433.727 174.313 433.358 C 174.313 432.989 174.215 432.627 174.031 432.308 C 173.847 431.989 173.582 431.724 173.263 431.539 C 172.943 431.355 172.581 431.258 172.213 431.258 H 158.242 C 157.873 431.258 157.511 431.355 157.192 431.539 C 156.872 431.724 156.607 431.989 156.423 432.308 L 136.127 467.462 C 136.077 467.549 136.213 467.512 136.127 467.462 L 133.529 465.962 C 133.442 465.912 133.479 466.049 133.529 465.962 L 151.746 434.408 C 151.931 434.089 152.028 433.727 152.028 433.358 C 152.028 432.989 151.931 432.627 151.746 432.308 C 151.562 431.989 151.297 431.724 150.978 431.539 C 150.659 431.355 150.296 431.258 149.928 431.258 H 135.957 C 135.588 431.258 135.226 431.355 134.907 431.539 C 134.588 431.724 134.323 431.989 134.138 432.308 L 113.842 467.462 C 113.792 467.549 113.929 467.512 113.842 467.462 L 111.244 465.962 C 111.157 465.912 111.194 466.049 111.244 465.962 L 129.462 434.408 C 129.646 434.089 129.743 433.727 129.743 433.358 C 129.743 432.989 129.646 432.627 129.462 432.308 C 129.278 431.989 129.012 431.724 128.693 431.539 C 128.374 431.355 128.012 431.258 127.643 431.258 H 113.672 C 113.304 431.258 112.942 431.355 112.622 431.539 C 112.303 431.724 112.038 431.989 111.854 432.308 L 91.557 467.462 C 91.507 467.549 91.644 467.512 91.557 467.462 L 88.959 465.962 C 88.873 465.912 88.909 466.049 88.959 465.962 L 107.177 434.408 C 107.361 434.089 107.458 433.727 107.458 433.358 C 107.458 432.989 107.361 432.627 107.177 432.308 C 106.993 431.989 106.728 431.724 106.408 431.539 C 106.089 431.355 105.727 431.258 105.358 431.258 H 91.388 C 91.019 431.258 90.657 431.355 90.338 431.539 C 90.018 431.724 89.753 431.989 89.569 432.308 L 69.273 467.462 C 69.223 467.549 69.359 467.512 69.273 467.462 L 66.675 465.962 C 66.588 465.912 66.625 466.049 66.675 465.962 L 84.892 434.408 C 85.077 434.089 85.174 433.727 85.174 433.358 C 85.174 432.989 85.077 432.627 84.892 432.308 C 84.708 431.989 84.443 431.724 84.124 431.539 C 83.805 431.355 83.442 431.258 83.074 431.258 H 13.100 C 13.045 431.258 13.000 431.303 13.000 431.358 V 478.858 V 526.358 V 529.358 C 13.000 529.413 13.045 529.458 13.100 529.458" stroke="rgb(0,0,0)" stroke-width="0.20" />
</g>
<g id="p-4" style="fill:none;stroke-linecap:round;stroke-linejoin:round;">
  <text dominant-baseline="hanging" font-size="4px" style="font-family: sans-serif ; font-weight: normal; font-style: normal; fill: rgb(255,0,0)" text-anchor="middle" transform="matrix( 1.000 0.000 0.000 1.000 150.100 378.758 )">Sidepiece 2</text><path d="M 13.100 429.758 H 150.100 H 287.100 C 287.155 429.758 287.200 429.713 287.200 429.658 V 426.658 V 379.158 V 331.658 C 287.200 331.603 287.155 331.558 287.100 331.558 H 269.665 C 269.296 331.558 268.934 331.655 268.615 331.839 C 268.296 332.024 268.031 332.289 267.846 332.608 L 247.550 367.762 C 247.500 367.849 247.637 367.812 247.550 367.762 L 244.952 366.262 C 244.865 366.212 244.902 366.349 244.952 366.262 L 263.170 334.708 C 263.354 334.389 263.451 334.027 263.451 333.658 C 263.451 333.289 263.354 332.927 263.170 332.608 C 262.986 332.289 262.720 332.024 262.401 331.839 C 262.082 331.655 261.720 331.558 261.351 331.558 H 247.380 C 247.012 331.558 246.650 331.655 246.330 331.839 C 246.011 332.024 245.746 332.289 245.562 332.608 L 225.265 367.762 C 225.215 367.849 225.352 367.812 225.265 367.762 L 222.667 366.262 C 222.581 366.212 222.617 366.349 222.667 366.262 L 240.885 334.708 C 241.070 334.389 241.167 334.027 241.167 333.658 C 241.167 333.289 241.070 332.927 240.885 332.608 C 240.701 332.289 240.436 332.024 240.117 331.839 C 239.797 331.655 239.435 331.558 239.067 331.558 H 225.096 C 224.727 331.558 224.365 331.655 224.046 331.839 C 223.726 332.024 223.461 332.289 223.277 332.608 L 202.981 367.762 C 202.931 367.849 203.067 367.812 202.981 367.762 L 200.383 366.262 C 200.296 366.212 200.333 366.349 200.383 366.262 L 218.601 334.708 C 218.785 334.389 218.882 334.027 218.882 333.658 C 218.882 333.289 218.785 332.927 218.601 332.608 C 218.416 332.289 218.151 332.024 217.832 331.839 C 217.513 331.655 217.150 331.558 216.782 331.558 H 202.811 C 202.442 331.558 202.080 331.655 201.761 331.839 C 201.442 332.024 201.177 332.289 200.992 332.608 L 180.696 367.762 C 180.646 367.849 180.783 367.812 180.696 367.762 L 178.098 366.262 C 178.011 366.212 178.048 366.349 178.098 366.262 L 196.316 334.708 C 196.500 334.389 196.597 334.027 196.597 333.658 C 196.597 333.289 196.500 332.927 196.316 332.608 C 196.132 332.289 195.866 332.024 195.547 331.839 C 195.228 331.655 194.866 331.558 194.497 331.558 H 180.526 C 180.158 331.558 179.796 331.655 179.476 331.839 C 179.157 332.024 178.892 332.289 178.708 332.608 L 158.411 367.762 C 158.361 367.849 158.498 367.812 158.411 367.762 L 155.813 366.262 C 155.727 366.212 155.763 366.349 155.813 366.262 L 174.031 334.708 C 174.215 334.389 174.313 334.027 174.313 333.658 C 174.313 333.289 174.215 332.927 174.031 332.608 C 173.847 332.289 173.582 332.024 173.263 331.839 C 172.943 331.655 172.581 331.558 172.213 331.558 H 158.242 C 157.873 331.558 157.511 331.655 157.192 331.839 C 156.872 332.024 156.607 332.289 156.423 332.608 L 136.127 367.762 C 136.077 367.849 136.213 367.812 136.127 367.762 L 133.529 366.262 C 133.442 366.212 133.479 366.349 133.529 366.262 L 151.746 334.708 C 151.931 334.389 152.028 334.027 152.028 333.658 C 152.028 333.289 151.931 332.927 151.746 332.608 C 151.562 332.289 151.297 332.024 150.978 331.839 C 150.659 331.655 150.296 331.558 149.928 331.558 H 135.957 C 135.588 331.558 135.226 331.655 134.907 331.839 C 134.588 332.024 134.323 332.289 134.138 332.608 L 113.842 367.762 C 113.792 367.849 113.929 367.812 113.842 367.762 L 111.244 366.262 C 111.157 366.212 111.194 366.349 111.244 366.262 L 129.462 334.708 C 129.646 334.389 129.743 334.027 129.743 333.658 C 129.743 333.289 129.646 332.927 129.462 332.608 C 129.278 332.289 129.012 332.024 128.693 331.839 C 128.374 331.655 128.012 331.558 127.643 331.558 H 113.672 C 113.304 331.558 112.942 331.655 112.622 331.839 C 112.303 332.024 112.038 332.289 111.854 332.608 L 91.557 367.762 C 91.507 367.849 91.644 367.812 91.557 367.762 L 88.959 366.262 C 88.873 366.212 88.909 366.349 88.959 366.262 L 107.177 334.708 C 107.361 334.389 107.458 334.027 107.458 333.658 C 107.458 333.289 107.361 332.927 107.177 332.608 C 106.993 332.289 106.728 332.024 106.408 331.839 C 106.089 331.655 105.727 331.558 105.358 331.558 H 91.388 C 91.019 331.558 90.657 331.655 90.338 331.839 C 90.018 332.024 89.753 332.289 89.569 332.608 L 69.273 367.762 C 69.223 367.849 69.359 367.812 69.273 367.762 L 66.675 366.262 C 66.588 366.212 66.625 366.349 66.675 366.262 L 84.892 334.708 C 85.077 334.389 85.174 334.027 85.174 333.658 C 85.174 333.289 85.077 332.927 84.892 332.608 C 84.708 332.289 84.443 332.024 84.124 331.839 C 83.805 331.655 83.442 331.558 83.074 331.558 H 13.100 C 13.045 331.558 13.000 331.603 13.000 331.658 V 379.158 V 426.658 V 429.658 C 13.000 429.713 13.045 429.758 13.100 429.758" stroke="rgb(0,0,0)" stroke-width="0.20" />
</g>
<g id="p-5" style="fill:none;stroke-linecap:round;stroke-linejoin:round;">
  <text dominant-baseline="hanging" font-size="4px" style="font-family: sans-serif ; font-weight: normal; font-style: normal; fill: rgb(255,0,0)" text-anchor="middle" transform="matrix( 1.000 0.000 0.000 1.000 325.300 586.858 )">Bottom</text><path d="M 294.800 725.858 H 325.300 H 355.800 C 355.855 725.858 355.900 725.813 355.900 725.758 V 588.758 V 451.758 C 355.900 451.703 355.855 451.658 355.800 451.658 H 325.300 H 294.800 C 294.745 451.658 294.700 451.703 294.700 451.758 V 588.758 V 725.758 C 294.700 725.813 294.745 725.858 294.800 725.858" stroke="rgb(0,0,0)" stroke-width="0.20" />
</g>
<g id="p-6" style="fill:none;stroke-linecap:round;stroke-linejoin:round;">
  <text dominant-baseline="hanging" font-size="4px" style="font-family: sans-serif ; font-weight: normal; font-style: normal; fill: rgb(255,0,0)" text-anchor="middle" transform="matrix( 1.000 0.000 0.000 1.000 325.300 391.176 )">Divider</text><path d="M 291.800 447.158 H 294.750 H 309.083 C 309.276 447.158 309.466 447.107 309.633 447.011 C 309.801 446.914 309.939 446.775 310.036 446.608 C 310.133 446.441 310.183 446.251 310.183 446.058 V 440.058 C 310.183 438.671 310.548 437.309 311.242 436.108 C 311.935 434.907 312.932 433.910 314.133 433.216 C 315.334 432.523 316.697 432.158 318.083 432.158 H 332.417 C 333.803 432.158 335.166 432.523 336.367 433.216 C 337.568 433.910 338.565 434.907 339.258 436.108 C 339.952 437.309 340.317 438.671 340.317 440.058 V 446.058 C 340.317 446.251 340.367 446.441 340.464 446.608 C 340.561 446.775 340.699 446.914 340.867 447.011 C 341.034 447.107 341.224 447.158 341.417 447.158 H 355.750 H 358.700 C 358.755 447.158 358.800 447.113 358.800 447.058 V 407.058 C 358.800 407.003 358.755 406.958 358.700 406.958 H 355.800 C 355.700 406.958 355.800 407.058 355.800 406.958 V 339.094 C 355.800 339.038 355.755 338.994 355.700 338.994 H 294.800 C 294.745 338.994 294.700 339.038 294.700 339.094 V 406.958 C 294.700 407.058 294.800 406.958 294.700 406.958 H 291.800 C 291.745 406.958 291.700 407.003 291.700 407.058 V 447.058 C 291.700 447.113 291.745 447.158 291.800 447.158" stroke="rgb(0,0,0)" stroke-width="0.20" />
</g>
<g id="p-7" style="fill:none;stroke-linecap:round;stroke-linejoin:round;">
  <text dominant-baseline="hanging" font-size="4px" style="font-family: sans-serif ; font-weight: normal; font-style: normal; fill: rgb(255,0,0)" text-anchor="middle" transform="matrix( 1.000 0.000 0.000 1.000 325.300 281.511 )">Divider</text><path d="M 291.800 337.494 H 294.750 H 309.083 C 309.276 337.494 309.466 337.443 309.633 337.346 C 309.801 337.250 309.939 337.111 310.036 336.944 C 310.133 336.776 310.183 336.587 310.183 336.394 V 330.394 C 310.183 329.007 310.548 327.644 311.242 326.444 C 311.935 325.243 312.932 324.245 314.133 323.552 C 315.334 322.859 316.697 322.494 318.083 322.494 H 332.417 C 333.803 322.494 335.166 322.859 336.367 323.552 C 337.568 324.245 338.565 325.243 339.258 326.444 C 339.952 327.644 340.317 329.007 340.317 330.394 V 336.394 C 340.317 336.587 340.367 336.776 340.464 336.944 C 340.561 337.111 340.699 337.250 340.867 337.346 C 341.034 337.443 341.224 337.494 341.417 337.494 H 355.750 H 358.700 C 358.755 337.494 358.800 337.449 358.800 337.394 V 297.394 C 358.800 297.338 358.755 297.294 358.700 297.294 H 355.800 C 355.700 297.294 355.800 297.394 355.800 297.294 V 229.429 C 355.800 229.374 355.755 229.329 355.700 229.329 H 294.800 C 294.745 229.329 294.700 229.374 294.700 229.429 V 297.294 C 294.700 297.394 294.800 297.294 294.700 297.294 H 291.800 C 291.745 297.294 291.700 297.338 291.700 297.394 V 337.394 C 291.700 337.449 291.745 337.494 291.800 337.494" stroke="rgb(0,0,0)" stroke-width="0.20" />
</g>
<g id="p-8" style="fill:none;stroke-linecap:round;stroke-linejoin:round;">
  <text dominant-baseline="hanging" font-size="4px" style="font-family: sans-serif ; font-weight: normal; font-style: normal; fill: rgb(255,0,0)" text-anchor="middle" transform="matrix( 1.000 0.000 0.000 1.000 323.800 171.847 )">Divider</text><path d="M 291.800 227.829 H 293.250 H 307.583 C 307.776 227.829 307.966 227.778 308.133 227.682 C 308.301 227.585 308.439 227.446 308.536 227.279 C 308.633 227.112 308.683 226.922 308.683 226.729 V 220.729 C 308.683 219.342 309.048 217.980 309.742 216.779 C 310.435 215.578 311.432 214.581 312.633 213.887 C 313.834 213.194 315.197 212.829 316.583 212.829 H 330.917 C 332.303 212.829 333.666 213.194 334.867 213.887 C 336.068 214.581 337.065 215.578 337.758 216.779 C 338.452 217.980 338.817 219.342 338.817 220.729 V 226.729 C 338.817 226.922 338.867 227.112 338.964 227.279 C 339.061 227.446 339.199 227.585 339.367 227.682 C 339.534 227.778 339.724 227.829 339.917 227.829 H 354.250 H 355.700 C 355.755 227.829 355.800 227.784 355.800 227.729 V 187.729 C 355.800 187.674 355.755 187.629 355.700 187.629 H 354.300 C 354.200 187.629 354.300 187.729 354.300 187.629 V 119.765 C 354.300 119.709 354.255 119.665 354.200 119.665 H 293.300 C 293.245 119.665 293.200 119.709 293.200 119.765 V 187.629 C 293.200 187.729 293.300 187.629 293.200 187.629 H 291.800 C 291.745 187.629 291.700 187.674 291.700 187.729 V 227.729 C 291.700 227.784 291.745 227.829 291.800 227.829" stroke="rgb(0,0,0)" stroke-width="0.20" />
</g>
<g id="p-9" style="fill:none;stroke-linecap:round;stroke-linejoin:round;">
  <text dominant-baseline="hanging" font-size="4px" style="font-family: sans-serif ; font-weight: normal; font-style: normal; fill: rgb(255,0,0)" text-anchor="middle" transform="matrix( 1.000 0.000 0.000 1.000 325.300 62.182 )">Divider</text><path d="M 294.750 118.165 H 309.083 C 309.276 118.165 309.466 118.114 309.633 118.017 C 309.801 117.921 309.939 117.782 310.036 117.615 C 310.133 117.447 310.183 117.258 310.183 117.065 V 111.065 C 310.183 109.678 310.548 108.315 311.242 107.115 C 311.935 105.914 312.932 104.916 314.133 104.223 C 315.334 103.530 316.697 103.165 318.083 103.165 H 332.417 C 333.803 103.165 335.166 103.530 336.367 104.223 C 337.568 104.916 338.565 105.914 339.258 107.115 C 339.952 108.315 340.317 109.678 340.317 111.065 V 117.065 C 340.317 117.258 340.367 117.447 340.464 117.615 C 340.561 117.782 340.699 117.921 340.867 118.017 C 341.034 118.114 341.224 118.165 341.417 118.165 H 355.750 H 358.700 C 358.755 118.165 358.800 118.120 358.800 118.065 V 98.115 C 358.800 98.059 358.755 98.015 358.700 98.015 H 355.800 C 355.700 98.015 355.800 98.115 355.800 98.015 V 10.100 C 355.800 10.045 355.755 10.000 355.700 10.000 H 294.800 C 294.745 10.000 294.700 10.045 294.700 10.100 V 77.965 C 294.700 78.065 294.800 77.965 294.700 77.965 H 291.800 C 291.745 77.965 291.700 78.009 291.700 78.065 V 98.065 C 291.700 98.120 291.745 98.165 291.800 98.165 H 294.650 C 294.750 98.165 294.650 98.065 294.650 98.165 V 118.065 C 294.650 118.120 294.695 118.165 294.750 118.165" stroke="rgb(0,0,0)" stroke-width="0.20" />
</g>
</svg>