<?xml version='1.0' encoding='utf-8'?>
<svg height="543.70mm" viewBox="0.0 0.0 590.50 543.70" width="590.50mm" xmlns="http://www.w3.org/2000/svg" xmlns:cc="http://creativecommons.org/ns#" xmlns:dc="http://purl.org/dc/elements/1.1/" xmlns:inkscape="http://www.inkscape.org/namespaces/inkscape" xmlns:rdf="http://www.w3.org/1999/02/22-rdf-syntax-ns#" xmlns:svg="http://www.w3.org/2000/svg" xmlns:xlink="http://www.w3.org/1999/xlink">
<!--
DividerTray - Divider tray - rows and dividers



Adding '0:' at the start of the sy parameter adds a slot at the very back. Adding ':0' at the end of sy adds a slot meeting the bottom at the very front. This is especially useful if slot angle is set above zero.

There are 4 different sets of dividers rendered:

* With asymmetric tabs so the tabs fit on top of each other
* With tabs of half wall thickness that can go side by side
* With tabs of a full wall thickness
* One single divider spanning across all columns

You will likely need to cut each of the dividers you want multiple times.



Created with Boxes.py (https://boxes.hackerspace-bamberg.de/)
Creation date: 2026-03-06 14:48:49
Command line (remove spaces between dashes): boxes DividerTray - -FingerJoint_surroundingspaces=0 - -FingerJoint_edge_width=0 - -FingerJoint_finger=8 - -FingerJoint_space=8 - -FingerJoint_width=0 - -Slot_angle=30 - -Notch_depth=30 '- -sx=70*2' '- -sy=35*12' - -thickness=5 - -spacing=0.5
Url: https://boxes.hackerspace-bamberg.de/DividerTray?FingerJoint_style=rectangular&FingerJoint_surroundingspaces=0&FingerJoint_bottom_lip=0.0&FingerJoint_edge_width=0&FingerJoint_extra_length=0&FingerJoint_finger=8&FingerJoint_play=0&FingerJoint_space=8&FingerJoint_width=0&HandleEdge_height=20.0&HandleEdge_hole_height=75.0&HandleEdge_hole_width=40%3A40&HandleEdge_on_sides=0&HandleEdge_on_sides=1&HandleEdge_radius=10.0&HandleEdge_outset=1.0&Lid_handle=none&Lid_style=none&Lid_handle_height=8.0&Lid_height=4.0&Lid_play=0.1&Slot_angle=30&Slot_depth=20&Slot_extra_slack=0.2&Slot_radius=2&Notch_depth=30&Notch_lower_radius=8&Notch_upper_radius=1&Divider_bottom_margin=0&Divider_play=0.05&sx=70*2&sy=35*12&h=100.0&outside=0&outside=1&notches_in_wall=0&notches_in_wall=1&left_wall=0&left_wall=1&right_wall=0&right_wall=1&bottom=0&handle=0&thickness=5&burn=0.1&format=svg&labels=0&labels=1&reference=100.0&tabs=0.0&qr_code=0&inner_corners=loop&spacing=0.5&debug=0&language=en&render=1
Url short: https://boxes.hackerspace-bamberg.de/DividerTray?FingerJoint_surroundingspaces=0&FingerJoint_edge_width=0&FingerJoint_finger=8&FingerJoint_space=8&FingerJoint_width=0&Slot_angle=30&Notch_depth=30&sx=70*2&sy=35*12&thickness=5&spacing=0.5
SettingsUrl: https://boxes.hackerspace-bamberg.de/DividerTray?FingerJoint_style=rectangular&FingerJoint_surroundingspaces=0&FingerJoint_bottom_lip=0.0&FingerJoint_edge_width=0&FingerJoint_extra_length=0&FingerJoint_finger=8&FingerJoint_play=0&FingerJoint_space=8&FingerJoint_width=0&HandleEdge_height=20.0&HandleEdge_hole_height=75.0&HandleEdge_hole_width=40%3A40&HandleEdge_on_sides=0&HandleEdge_on_sides=1&HandleEdge_radius=10.0&HandleEdge_outset=1.0&Lid_handle=none&Lid_style=none&Lid_handle_height=8.0&Lid_height=4.0&Lid_play=0.1&Slot_angle=30&Slot_depth=20&Slot_extra_slack=0.2&Slot_radius=2&Notch_depth=30&Notch_lower_radius=8&Notch_upper_radius=1&Divider_bottom_margin=0&Divider_play=0.05&sx=70*2&sy=35*12&h=100.0&outside=0&outside=1&notches_in_wall=0&notches_in_wall=1&left_wall=0&left_wall=1&right_wall=0&right_wall=1&bottom=0&handle=0&thickness=5&burn=0.1&format=svg&labels=0&labels=1&reference=100.0&tabs=0.0&qr_code=0&inner_corners=loop&spacing=0.5&debug=0&language=en
SettingsUrl short: https://boxes.hackerspace-bamberg.de/DividerTray?FingerJoint_surroundingspaces=0&FingerJoint_edge_width=0&FingerJoint_finger=8&FingerJoint_space=8&FingerJoint_width=0&Slot_angle=30&Notch_depth=30&sx=70*2&sy=35*12&thickness=5&spacing=0.5
-->
<title>DividerTray</title>
<metadata>
<rdf:RDF><cc:Work>
<dc:title>Tray - DividerTray</dc:title>
<dc:date>2026-03-06 14:48:49</dc:date>
<dc:source>https://boxes.hackerspace-bamberg.de/DividerTray?FingerJoint_style=rectangular&amp;FingerJoint_surroundingspaces=0&amp;FingerJoint_bottom_lip=0.0&amp;FingerJoint_edge_width=0&amp;FingerJoint_extra_length=0&amp;FingerJoint_finger=8&amp;FingerJoint_play=0&amp;FingerJoint_space=8&amp;FingerJoint_width=0&amp;HandleEdge_height=20.0&amp;HandleEdge_hole_height=75.0&amp;HandleEdge_hole_width=40%3A40&amp;HandleEdge_on_sides=0&amp;HandleEdge_on_sides=1&amp;HandleEdge_radius=10.0&amp;HandleEdge_outset=1.0&amp;Lid_handle=none&amp;Lid_style=none&amp;Lid_handle_height=8.0&amp;Lid_height=4.0&amp;Lid_play=0.1&amp;Slot_angle=30&amp;Slot_depth=20&amp;Slot_extra_slack=0.2&amp;Slot_radius=2&amp;Notch_depth=30&amp;Notch_lower_radius=8&amp;Notch_upper_radius=1&amp;Divider_bottom_margin=0&amp;Divider_play=0.05&amp;sx=70*2&amp;sy=35*12&amp;h=100.0&amp;outside=0&amp;outside=1&amp;notches_in_wall=0&amp;notches_in_wall=1&amp;left_wall=0&amp;left_wall=1&amp;right_wall=0&amp;right_wall=1&amp;bottom=0&amp;handle=0&amp;thickness=5&amp;burn=0.1&amp;format=svg&amp;labels=0&amp;labels=1&amp;reference=100.0&amp;tabs=0.0&amp;qr_code=0&amp;inner_corners=loop&amp;spacing=0.5&amp;debug=0&amp;language=en&amp;render=1</dc:source>
<dc:source>https://boxes.hackerspace-bamberg.de/DividerTray?FingerJoint_surroundingspaces=0&amp;FingerJoint_edge_width=0&amp;FingerJoint_finger=8&amp;FingerJoint_space=8&amp;FingerJoint_width=0&amp;Slot_angle=30&amp;Notch_depth=30&amp;sx=70*2&amp;sy=35*12&amp;thickness=5&amp;spacing=0.5</dc:source>
<dc:description>Divider tray - rows and dividers


Adding '0:' at the start of the sy parameter adds a slot at the very back. Adding ':0' at the end of sy adds a slot meeting the bottom at the very front. This is especially useful if slot angle is set above zero.

There are 4 different sets of dividers rendered:

* With asymmetric tabs so the tabs fit on top of each other
* With tabs of half wall thickness that can go side by side
* With tabs of a full wall thickness
* One single divider spanning across all columns

You will likely need to cut each of the dividers you want multiple times.


Created with Boxes.py (https://boxes.hackerspace-bamberg.de/)
Command line: boxes DividerTray --FingerJoint_style=rectangular --FingerJoint_surroundingspaces=0 --FingerJoint_bottom_lip=0.0 --FingerJoint_edge_width=0 --FingerJoint_extra_length=0 --FingerJoint_finger=8 --FingerJoint_play=0 --FingerJoint_space=8 --FingerJoint_width=0 --HandleEdge_height=20.0 --HandleEdge_hole_height=75.0 --HandleEdge_hole_width=40:40 --HandleEdge_on_sides=0 --HandleEdge_on_sides=1 --HandleEdge_radius=10.0 --HandleEdge_outset=1.0 --Lid_handle=none --Lid_style=none --Lid_handle_height=8.0 --Lid_height=4.0 --Lid_play=0.1 --Slot_angle=30 --Slot_depth=20 --Slot_extra_slack=0.2 --Slot_radius=2 --Notch_depth=30 --Notch_lower_radius=8 --Notch_upper_radius=1 --Divider_bottom_margin=0 --Divider_play=0.05 '--sx=70*2' '--sy=35*12' --h=100.0 --outside=0 --outside=1 --notches_in_wall=0 --notches_in_wall=1 --left_wall=0 --left_wall=1 --right_wall=0 --right_wall=1 --bottom=0 --handle=0 --thickness=5 --burn=0.1 --format=svg --labels=0 --labels=1 --reference=100.0 --tabs=0.0 --qr_code=0 --inner_corners=loop --spacing=0.5 --debug=0
Command line short: boxes DividerTray --FingerJoint_surroundingspaces=0 --FingerJoint_edge_width=0 --FingerJoint_finger=8 --FingerJoint_space=8 --FingerJoint_width=0 --Slot_angle=30 --Notch_depth=30 '--sx=70*2' '--sy=35*12' --thickness=5 --spacing=0.5
Url: https://boxes.hackerspace-bamberg.de/DividerTray?FingerJoint_style=rectangular&amp;FingerJoint_surroundingspaces=0&amp;FingerJoint_bottom_lip=0.0&amp;FingerJoint_edge_width=0&amp;FingerJoint_extra_length=0&amp;FingerJoint_finger=8&amp;FingerJoint_play=0&amp;FingerJoint_space=8&amp;FingerJoint_width=0&amp;HandleEdge_height=20.0&amp;HandleEdge_hole_height=75.0&amp;HandleEdge_hole_width=40%3A40&amp;HandleEdge_on_sides=0&amp;HandleEdge_on_sides=1&amp;HandleEdge_radius=10.0&amp;HandleEdge_outset=1.0&amp;Lid_handle=none&amp;Lid_style=none&amp;Lid_handle_height=8.0&amp;Lid_height=4.0&amp;Lid_play=0.1&amp;Slot_angle=30&amp;Slot_depth=20&amp;Slot_extra_slack=0.2&amp;Slot_radius=2&amp;Notch_depth=30&amp;Notch_lower_radius=8&amp;Notch_upper_radius=1&amp;Divider_bottom_margin=0&amp;Divider_play=0.05&amp;sx=70*2&amp;sy=35*12&amp;h=100.0&amp;outside=0&amp;outside=1&amp;notches_in_wall=0&amp;notches_in_wall=1&amp;left_wall=0&amp;left_wall=1&amp;right_wall=0&amp;right_wall=1&amp;bottom=0&amp;handle=0&amp;thickness=5&amp;burn=0.1&amp;format=svg&amp;labels=0&amp;labels=1&amp;reference=100.0&amp;tabs=0.0&amp;qr_code=0&amp;inner_corners=loop&amp;spacing=0.5&amp;debug=0&amp;language=en&amp;render=1
Url short: https://boxes.hackerspace-bamberg.de/DividerTray?FingerJoint_surroundingspaces=0&amp;FingerJoint_edge_width=0&amp;FingerJoint_finger=8&amp;FingerJoint_space=8&amp;FingerJoint_width=0&amp;Slot_angle=30&amp;Notch_depth=30&amp;sx=70*2&amp;sy=35*12&amp;thickness=5&amp;spacing=0.5
SettingsUrl: https://boxes.hackerspace-bamberg.de/DividerTray?FingerJoint_style=rectangular&amp;FingerJoint_surroundingspaces=0&amp;FingerJoint_bottom_lip=0.0&amp;FingerJoint_edge_width=0&amp;FingerJoint_extra_length=0&amp;FingerJoint_finger=8&amp;FingerJoint_play=0&amp;FingerJoint_space=8&amp;FingerJoint_width=0&amp;HandleEdge_height=20.0&amp;HandleEdge_hole_height=75.0&amp;HandleEdge_hole_width=40%3A40&amp;HandleEdge_on_sides=0&amp;HandleEdge_on_sides=1&amp;HandleEdge_radius=10.0&amp;HandleEdge_outset=1.0&amp;Lid_handle=none&amp;Lid_style=none&amp;Lid_handle_height=8.0&amp;Lid_height=4.0&amp;Lid_play=0.1&amp;Slot_angle=30&amp;Slot_depth=20&amp;Slot_extra_slack=0.2&amp;Slot_radius=2&amp;Notch_depth=30&amp;Notch_lower_radius=8&amp;Notch_upper_radius=1&amp;Divider_bottom_margin=0&amp;Divider_play=0.05&amp;sx=70*2&amp;sy=35*12&amp;h=100.0&amp;outside=0&amp;outside=1&amp;notches_in_wall=0&amp;notches_in_wall=1&amp;left_wall=0&amp;left_wall=1&amp;right_wall=0&amp;right_wall=1&amp;bottom=0&amp;handle=0&amp;thickness=5&amp;burn=0.1&amp;format=svg&amp;labels=0&amp;labels=1&amp;reference=100.0&amp;tabs=0.0&amp;qr_code=0&amp;inner_corners=loop&amp;spacing=0.5&amp;debug=0&amp;language=en
SettingsUrl short: https://boxes.hackerspace-bamberg.de/DividerTray?FingerJoint_surroundingspaces=0&amp;FingerJoint_edge_width=0&amp;FingerJoint_finger=8&amp;FingerJoint_space=8&amp;FingerJoint_width=0&amp;Slot_angle=30&amp;Notch_depth=30&amp;sx=70*2&amp;sy=35*12&amp;thickness=5&amp;spacing=0.5
</dc:description>
</cc:Work></rdf:RDF></metadata>
<g id="p-0" style="fill:none;stroke-linecap:round;stroke-linejoin:round;">
  <path d="M 10.100 533.700 H 110.100 V 523.700 H 10.100 V 533.700 Z" stroke="rgb(0,0,0)" stroke-width="0.20" />
  <text dominant-baseline="hanging" font-size="6px" style="font-family: sans-serif ; font-weight: normal; font-style: normal; fill: rgb(255,0,0)" text-anchor="middle" transform="matrix( 1.000 0.000 0.000 1.000 60.100 525.700 )">100.0mm, burn:0.10mm</text>
</g>
<g id="p-1" style="fill:none;stroke-linecap:round;stroke-linejoin:round;">
  <path d="M 80.000 470.900 V 490.900 C 80.000 490.845 80.045 490.800 80.100 490.800 C 80.155 490.800 80.200 490.845 80.200 490.900 V 450.900 C 80.200 450.955 80.155 451.000 80.100 451.000 C 80.045 451.000 80.000 450.955 80.000 450.900 V 470.900 Z" stroke="rgb(0,0,255)" stroke-width="0.20" />
  <path d="M 15.100 521.000 H 145.100 H 150.100 C 150.155 521.000 150.200 520.955 150.200 520.900 V 490.900 C 150.200 490.845 150.155 490.800 150.100 490.800 H 145.200 C 145.100 490.800 145.200 490.900 145.200 490.800 V 451.000 C 145.200 450.900 145.100 451.000 145.200 451.000 H 150.100 C 150.155 451.000 150.200 450.955 150.200 450.900 V 420.900 C 150.200 420.845 150.155 420.800 150.100 420.800 H 145.100 H 130.267 C 130.074 420.800 129.884 420.851 129.717 420.947 C 129.549 421.044 129.411 421.183 129.314 421.350 C 129.217 421.517 129.167 421.707 129.167 421.900 V 442.900 C 129.167 444.287 128.802 445.649 128.108 446.850 C 127.415 448.051 126.418 449.048 125.217 449.742 C 124.016 450.435 122.653 450.800 121.267 450.800 H 106.433 C 105.047 450.800 103.684 450.435 102.483 449.742 C 101.282 449.048 100.285 448.051 99.592 446.850 C 98.898 445.649 98.533 444.287 98.533 442.900 V 421.900 C 98.533 421.707 98.483 421.517 98.386 421.350 C 98.289 421.183 98.151 421.044 97.983 420.947 C 97.816 420.851 97.626 420.800 97.433 420.800 H 82.600 H 77.600 H 62.767 C 62.574 420.800 62.384 420.851 62.217 420.947 C 62.049 421.044 61.911 421.183 61.814 421.350 C 61.717 421.517 61.667 421.707 61.667 421.900 V 442.900 C 61.667 444.287 61.302 445.649 60.608 446.850 C 59.915 448.051 58.918 449.048 57.717 449.742 C 56.516 450.435 55.153 450.800 53.767 450.800 H 38.933 C 37.547 450.800 36.184 450.435 34.983 449.742 C 33.782 449.048 32.785 448.051 32.092 446.850 C 31.398 445.649 31.033 444.287 31.033 442.900 V 421.900 C 31.033 421.707 30.983 421.517 30.886 421.350 C 30.789 421.183 30.651 421.044 30.483 420.947 C 30.316 420.851 30.126 420.800 29.933 420.800 H 15.100 H 10.100 C 10.045 420.800 10.000 420.845 10.000 420.900 V 450.900 C 10.000 450.955 10.045 451.000 10.100 451.000 H 15.000 C 15.100 451.000 15.000 450.900 15.000 451.000 V 490.800 C 15.000 490.900 15.100 490.800 15.000 490.800 H 10.100 C 10.045 490.800 10.000 490.845 10.000 490.900 V 520.900 C 10.000 520.955 10.045 521.000 10.100 521.000 H 15.100 Z" stroke="rgb(0,0,0)" stroke-width="0.20" />
  <text dominant-baseline="hanging" font-size="4px" style="font-family: sans-serif ; font-weight: normal; font-style: normal; fill: rgb(255,0,0)" text-anchor="middle" transform="matrix( 1.000 0.000 0.000 1.000 80.100 469.000 )">Back</text>
</g>
<g id="p-2" style="fill:none;stroke-linecap:round;stroke-linejoin:round;">
  <path d="M 80.000 368.200 V 388.200 C 80.000 388.145 80.045 388.100 80.100 388.100 C 80.155 388.100 80.200 388.145 80.200 388.200 V 348.200 C 80.200 348.255 80.155 348.300 80.100 348.300 C 80.045 348.300 80.000 348.255 80.000 348.200 V 368.200 Z" stroke="rgb(0,0,255)" stroke-width="0.20" />
  <path d="M 15.100 418.300 H 145.100 H 150.100 C 150.155 418.300 150.200 418.255 150.200 418.200 V 388.200 C 150.200 388.145 150.155 388.100 150.100 388.100 H 145.200 C 145.100 388.100 145.200 388.200 145.200 388.100 V 348.300 C 145.200 348.200 145.100 348.300 145.200 348.300 H 150.100 C 150.155 348.300 150.200 348.255 150.200 348.200 V 318.200 C 150.200 318.145 150.155 318.100 150.100 318.100 H 145.100 H 130.267 C 130.074 318.100 129.884 318.151 129.717 318.247 C 129.549 318.344 129.411 318.483 129.314 318.650 C 129.217 318.817 129.167 319.007 129.167 319.200 V 340.200 C 129.167 341.587 128.802 342.949 128.108 344.150 C 127.415 345.351 126.418 346.348 125.217 347.042 C 124.016 347.735 122.653 348.100 121.267 348.100 H 106.433 C 105.047 348.100 103.684 347.735 102.483 347.042 C 101.282 346.348 100.285 345.351 99.592 344.150 C 98.898 342.949 98.533 341.587 98.533 340.200 V 319.200 C 98.533 319.007 98.483 318.817 98.386 318.650 C 98.289 318.483 98.151 318.344 97.983 318.247 C 97.816 318.151 97.626 318.100 97.433 318.100 H 82.600 H 77.600 H 62.767 C 62.574 318.100 62.384 318.151 62.217 318.247 C 62.049 318.344 61.911 318.483 61.814 318.650 C 61.717 318.817 61.667 319.007 61.667 319.200 V 340.200 C 61.667 341.587 61.302 342.949 60.608 344.150 C 59.915 345.351 58.918 346.348 57.717 347.042 C 56.516 347.735 55.153 348.100 53.767 348.100 H 38.933 C 37.547 348.100 36.184 347.735 34.983 347.042 C 33.782 346.348 32.785 345.351 32.092 344.150 C 31.398 342.949 31.033 341.587 31.033 340.200 V 319.200 C 31.033 319.007 30.983 318.817 30.886 318.650 C 30.789 318.483 30.651 318.344 30.483 318.247 C 30.316 318.151 30.126 318.100 29.933 318.100 H 15.100 H 10.100 C 10.045 318.100 10.000 318.145 10.000 318.200 V 348.200 C 10.000 348.255 10.045 348.300 10.100 348.300 H 15.000 C 15.100 348.300 15.000 348.200 15.000 348.300 V 388.100 C 15.000 388.200 15.100 388.100 15.000 388.100 H 10.100 C 10.045 388.100 10.000 388.145 10.000 388.200 V 418.200 C 10.000 418.255 10.045 418.300 10.100 418.300 H 15.100 Z" stroke="rgb(0,0,0)" stroke-width="0.20" />
  <text dominant-baseline="hanging" font-size="4px" style="font-family: sans-serif ; font-weight: normal; font-style: normal; fill: rgb(255,0,0)" text-anchor="middle" transform="matrix( 1.000 0.000 0.000 1.000 80.100 366.300 )">Front</text>
</g>
<g id="p-3" style="fill:none;stroke-linecap:round;stroke-linejoin:round;">
  <path d="M 15.100 315.600 H 425.100 C 425.155 315.600 425.200 315.555 425.200 315.500 V 285.600 C 425.200 285.500 425.100 285.600 425.200 285.600 H 430.100 C 430.155 285.600 430.200 285.555 430.200 285.500 V 245.500 C 430.200 245.445 430.155 245.400 430.100 245.400 H 425.200 C 425.100 245.400 425.200 245.500 425.200 245.400 V 215.500 C 425.200 215.445 425.155 215.400 425.100 215.400 H 402.403 C 402.035 215.400 401.673 215.497 401.353 215.681 C 401.034 215.866 400.769 216.131 400.585 216.450 L 389.711 235.284 C 389.661 235.371 389.798 235.334 389.711 235.284 L 385.381 232.784 C 385.294 232.734 385.331 232.871 385.381 232.784 L 393.599 218.550 C 393.783 218.231 393.880 217.869 393.880 217.500 C 393.880 217.131 393.783 216.769 393.599 216.450 C 393.414 216.131 393.149 215.866 392.830 215.681 C 392.511 215.497 392.149 215.400 391.780 215.400 H 372.548 C 372.179 215.400 371.817 215.497 371.498 215.681 C 371.178 215.866 370.913 216.131 370.729 216.450 L 359.855 235.284 C 359.805 235.371 359.942 235.334 359.855 235.284 L 355.525 232.784 C 355.438 232.734 355.475 232.871 355.525 232.784 L 363.743 218.550 C 363.927 218.231 364.024 217.869 364.024 217.500 C 364.024 217.131 363.927 216.769 363.743 216.450 C 363.559 216.131 363.294 215.866 362.974 215.681 C 362.655 215.497 362.293 215.400 361.924 215.400 H 342.692 C 342.323 215.400 341.961 215.497 341.642 215.681 C 341.323 215.866 341.057 216.131 340.873 216.450 L 329.999 235.284 C 329.949 235.371 330.086 235.334 329.999 235.284 L 325.669 232.784 C 325.583 232.734 325.619 232.871 325.669 232.784 L 333.887 218.550 C 334.072 218.231 334.169 217.869 334.169 217.500 C 334.169 217.131 334.072 216.769 333.887 216.450 C 333.703 216.131 333.438 215.866 333.119 215.681 C 332.799 215.497 332.437 215.400 332.069 215.400 H 312.836 C 312.467 215.400 312.105 215.497 311.786 215.681 C 311.467 215.866 311.202 216.131 311.017 216.450 L 300.144 235.284 C 300.094 235.371 300.230 235.334 300.144 235.284 L 295.813 232.784 C 295.727 232.734 295.763 232.871 295.813 232.784 L 304.031 218.550 C 304.216 218.231 304.313 217.869 304.313 217.500 C 304.313 217.131 304.216 216.769 304.031 216.450 C 303.847 216.131 303.582 215.866 303.263 215.681 C 302.944 215.497 302.581 215.400 302.213 215.400 H 282.980 C 282.612 215.400 282.249 215.497 281.930 215.681 C 281.611 215.866 281.346 216.131 281.162 216.450 L 270.288 235.284 C 270.238 235.371 270.374 235.334 270.288 235.284 L 265.958 232.784 C 265.871 232.734 265.908 232.871 265.958 232.784 L 274.176 218.550 C 274.360 218.231 274.457 217.869 274.457 217.500 C 274.457 217.131 274.360 216.769 274.176 216.450 C 273.991 216.131 273.726 215.866 273.407 215.681 C 273.088 215.497 272.726 215.400 272.357 215.400 H 253.124 C 252.756 215.400 252.394 215.497 252.074 215.681 C 251.755 215.866 251.490 216.131 251.306 216.450 L 240.432 235.284 C 240.382 235.371 240.519 235.334 240.432 235.284 L 236.102 232.784 C 236.015 232.734 236.052 232.871 236.102 232.784 L 244.320 218.550 C 244.504 218.231 244.601 217.869 244.601 217.500 C 244.601 217.131 244.504 216.769 244.320 216.450 C 244.136 216.131 243.870 215.866 243.551 215.681 C 243.232 215.497 242.870 215.400 242.501 215.400 H 223.269 C 222.900 215.400 222.538 215.497 222.219 215.681 C 221.899 215.866 221.634 216.131 221.450 216.450 L 210.576 235.284 C 210.526 235.371 210.663 235.334 210.576 235.284 L 206.246 232.784 C 206.160 232.734 206.196 232.871 206.246 232.784 L 214.464 218.550 C 214.648 218.231 214.745 217.869 214.745 217.500 C 214.745 217.131 214.648 216.769 214.464 216.450 C 214.280 216.131 214.015 215.866 213.695 215.681 C 213.376 215.497 213.014 215.400 212.645 215.400 H 193.413 C 193.044 215.400 192.682 215.497 192.363 215.681 C 192.044 215.866 191.779 216.131 191.594 216.450 L 180.720 235.284 C 180.670 235.371 180.807 235.334 180.720 235.284 L 176.390 232.784 C 176.304 232.734 176.340 232.871 176.390 232.784 L 184.608 218.550 C 184.793 218.231 184.890 217.869 184.890 217.500 C 184.890 217.131 184.793 216.769 184.608 216.450 C 184.424 216.131 184.159 215.866 183.840 215.681 C 183.520 215.497 183.158 215.400 182.790 215.400 H 163.557 C 163.188 215.400 162.826 215.497 162.507 215.681 C 162.188 215.866 161.923 216.131 161.738 216.450 L 150.865 235.284 C 150.815 235.371 150.951 235.334 150.865 235.284 L 146.535 232.784 C 146.448 232.734 146.485 232.871 146.535 232.784 L 154.752 218.550 C 154.937 218.231 155.034 217.869 155.034 217.500 C 155.034 217.131 154.937 216.769 154.752 216.450 C 154.568 216.131 154.303 215.866 153.984 215.681 C 153.665 215.497 153.302 215.400 152.934 215.400 H 133.701 C 133.333 215.400 132.971 215.497 132.651 215.681 C 132.332 215.866 132.067 216.131 131.883 216.450 L 121.009 235.284 C 120.959 235.371 121.095 235.334 121.009 235.284 L 116.679 232.784 C 116.592 232.734 116.629 232.871 116.679 232.784 L 124.897 218.550 C 125.081 218.231 125.178 217.869 125.178 217.500 C 125.178 217.131 125.081 216.769 124.897 216.450 C 124.712 216.131 124.447 215.866 124.128 215.681 C 123.809 215.497 123.447 215.400 123.078 215.400 H 103.846 C 103.477 215.400 103.115 215.497 102.796 215.681 C 102.476 215.866 102.211 216.131 102.027 216.450 L 91.153 235.284 C 91.103 235.371 91.240 235.334 91.153 235.284 L 86.823 232.784 C 86.736 232.734 86.773 232.871 86.823 232.784 L 95.041 218.550 C 95.225 218.231 95.322 217.869 95.322 217.500 C 95.322 217.131 95.225 216.769 95.041 216.450 C 94.857 216.131 94.592 215.866 94.272 215.681 C 93.953 215.497 93.591 215.400 93.222 215.400 H 15.100 C 15.045 215.400 15.000 215.445 15.000 215.500 V 245.400 C 15.000 245.500 15.100 245.400 15.000 245.400 H 10.100 C 10.045 245.400 10.000 245.445 10.000 245.500 V 285.500 C 10.000 285.555 10.045 285.600 10.100 285.600 H 15.000 C 15.100 285.600 15.000 285.500 15.000 285.600 V 315.500 C 15.000 315.555 15.045 315.600 15.100 315.600 Z" stroke="rgb(0,0,0)" stroke-width="0.20" />
  <text dominant-baseline="hanging" font-size="4px" style="font-family: sans-serif ; font-weight: normal; font-style: normal; fill: rgb(255,0,0)" text-anchor="middle" transform="matrix( 1.000 0.000 0.000 1.000 220.100 263.600 )">Sidepiece 1</text>
</g>
<g id="p-4" style="fill:none;stroke-linecap:round;stroke-linejoin:round;">
  <path d="M 15.100 212.900 H 425.100 C 425.155 212.900 425.200 212.855 425.200 212.800 V 182.900 C 425.200 182.800 425.100 182.900 425.200 182.900 H 430.100 C 430.155 182.900 430.200 182.855 430.200 182.800 V 142.800 C 430.200 142.745 430.155 142.700 430.100 142.700 H 425.200 C 425.100 142.700 425.200 142.800 425.200 142.700 V 112.800 C 425.200 112.745 425.155 112.700 425.100 112.700 H 402.403 C 402.035 112.700 401.673 112.797 401.353 112.981 C 401.034 113.166 400.769 113.431 400.585 113.750 L 389.711 132.584 C 389.661 132.671 389.798 132.634 389.711 132.584 L 385.381 130.084 C 385.294 130.034 385.331 130.171 385.381 130.084 L 393.599 115.850 C 393.783 115.531 393.880 115.169 393.880 114.800 C 393.880 114.431 393.783 114.069 393.599 113.750 C 393.414 113.431 393.149 113.166 392.830 112.981 C 392.511 112.797 392.149 112.700 391.780 112.700 H 372.548 C 372.179 112.700 371.817 112.797 371.498 112.981 C 371.178 113.166 370.913 113.431 370.729 113.750 L 359.855 132.584 C 359.805 132.671 359.942 132.634 359.855 132.584 L 355.525 130.084 C 355.438 130.034 355.475 130.171 355.525 130.084 L 363.743 115.850 C 363.927 115.531 364.024 115.169 364.024 114.800 C 364.024 114.431 363.927 114.069 363.743 113.750 C 363.559 113.431 363.294 113.166 362.974 112.981 C 362.655 112.797 362.293 112.700 361.924 112.700 H 342.692 C 342.323 112.700 341.961 112.797 341.642 112.981 C 341.323 113.166 341.057 113.431 340.873 113.750 L 329.999 132.584 C 329.949 132.671 330.086 132.634 329.999 132.584 L 325.669 130.084 C 325.583 130.034 325.619 130.171 325.669 130.084 L 333.887 115.850 C 334.072 115.531 334.169 115.169 334.169 114.800 C 334.169 114.431 334.072 114.069 333.887 113.750 C 333.703 113.431 333.438 113.166 333.119 112.981 C 332.799 112.797 332.437 112.700 332.069 112.700 H 312.836 C 312.467 112.700 312.105 112.797 311.786 112.981 C 311.467 113.166 311.202 113.431 311.017 113.750 L 300.144 132.584 C 300.094 132.671 300.230 132.634 300.144 132.584 L 295.813 130.084 C 295.727 130.034 295.763 130.171 295.813 130.084 L 304.031 115.850 C 304.216 115.531 304.313 115.169 304.313 114.800 C 304.313 114.431 304.216 114.069 304.031 113.750 C 303.847 113.431 303.582 113.166 303.263 112.981 C 302.944 112.797 302.581 112.700 302.213 112.700 H 282.980 C 282.612 112.700 282.249 112.797 281.930 112.981 C 281.611 113.166 281.346 113.431 281.162 113.750 L 270.288 132.584 C 270.238 132.671 270.374 132.634 270.288 132.584 L 265.958 130.084 C 265.871 130.034 265.908 130.171 265.958 130.084 L 274.176 115.850 C 274.360 115.531 274.457 115.169 274.457 114.800 C 274.457 114.431 274.360 114.069 274.176 113.750 C 273.991 113.431 273.726 113.166 273.407 112.981 C 273.088 112.797 272.726 112.700 272.357 112.700 H 253.124 C 252.756 112.700 252.394 112.797 252.074 112.981 C 251.755 113.166 251.490 113.431 251.306 113.750 L 240.432 132.584 C 240.382 132.671 240.519 132.634 240.432 132.584 L 236.102 130.084 C 236.015 130.034 236.052 130.171 236.102 130.084 L 244.320 115.850 C 244.504 115.531 244.601 115.169 244.601 114.800 C 244.601 114.431 244.504 114.069 244.320 113.750 C 244.136 113.431 243.870 113.166 243.551 112.981 C 243.232 112.797 242.870 112.700 242.501 112.700 H 223.269 C 222.900 112.700 222.538 112.797 222.219 112.981 C 221.899 113.166 221.634 113.431 221.450 113.750 L 210.576 132.584 C 210.526 132.671 210.663 132.634 210.576 132.584 L 206.246 130.084 C 206.160 130.034 206.196 130.171 206.246 130.084 L 214.464 115.850 C 214.648 115.531 214.745 115.169 214.745 114.800 C 214.745 114.431 214.648 114.069 214.464 113.750 C 214.280 113.431 214.015 113.166 213.695 112.981 C 213.376 112.797 213.014 112.700 212.645 112.700 H 193.413 C 193.044 112.700 192.682 112.797 192.363 112.981 C 192.044 113.166 191.779 113.431 191.594 113.750 L 180.720 132.584 C 180.670 132.671 180.807 132.634 180.720 132.584 L 176.390 130.084 C 176.304 130.034 176.340 130.171 176.390 130.084 L 184.608 115.850 C 184.793 115.531 184.890 115.169 184.890 114.800 C 184.890 114.431 184.793 114.069 184.608 113.750 C 184.424 113.431 184.159 113.166 183.840 112.981 C 183.520 112.797 183.158 112.700 182.790 112.700 H 163.557 C 163.188 112.700 162.826 112.797 162.507 112.981 C 162.188 113.166 161.923 113.431 161.738 113.750 L 150.865 132.584 C 150.815 132.671 150.951 132.634 150.865 132.584 L 146.535 130.084 C 146.448 130.034 146.485 130.171 146.535 130.084 L 154.752 115.850 C 154.937 115.531 155.034 115.169 155.034 114.800 C 155.034 114.431 154.937 114.069 154.752 113.750 C 154.568 113.431 154.303 113.166 153.984 112.981 C 153.665 112.797 153.302 112.700 152.934 112.700 H 133.701 C 133.333 112.700 132.971 112.797 132.651 112.981 C 132.332 113.166 132.067 113.431 131.883 113.750 L 121.009 132.584 C 120.959 132.671 121.095 132.634 121.009 132.584 L 116.679 130.084 C 116.592 130.034 116.629 130.171 116.679 130.084 L 124.897 115.850 C 125.081 115.531 125.178 115.169 125.178 114.800 C 125.178 114.431 125.081 114.069 124.897 113.750 C 124.712 113.431 124.447 113.166 124.128 112.981 C 123.809 112.797 123.447 112.700 123.078 112.700 H 103.846 C 103.477 112.700 103.115 112.797 102.796 112.981 C 102.476 113.166 102.211 113.431 102.027 113.750 L 91.153 132.584 C 91.103 132.671 91.240 132.634 91.153 132.584 L 86.823 130.084 C 86.736 130.034 86.773 130.171 86.823 130.084 L 95.041 115.850 C 95.225 115.531 95.322 115.169 95.322 114.800 C 95.322 114.431 95.225 114.069 95.041 113.750 C 94.857 113.431 94.592 113.166 94.272 112.981 C 93.953 112.797 93.591 112.700 93.222 112.700 H 15.100 C 15.045 112.700 15.000 112.745 15.000 112.800 V 142.700 C 15.000 142.800 15.100 142.700 15.000 142.700 H 10.100 C 10.045 142.700 10.000 142.745 10.000 142.800 V 182.800 C 10.000 182.855 10.045 182.900 10.100 182.900 H 15.000 C 15.100 182.900 15.000 182.800 15.000 182.900 V 212.800 C 15.000 212.855 15.045 212.900 15.100 212.900 Z" stroke="rgb(0,0,0)" stroke-width="0.20" />
  <text dominant-baseline="hanging" font-size="4px" style="font-family: sans-serif ; font-weight: normal; font-style: normal; fill: rgb(255,0,0)" text-anchor="middle" transform="matrix( 1.000 0.000 0.000 1.000 220.100 160.900 )">Sidepiece 2</text>
</g>
<g id="p-5" style="fill:none;stroke-linecap:round;stroke-linejoin:round;">
  <path d="M 15.100 110.200 H 425.100 C 425.155 110.200 425.200 110.155 425.200 110.100 V 80.200 C 425.200 80.100 425.100 80.200 425.200 80.200 H 430.100 C 430.155 80.200 430.200 80.155 430.200 80.100 V 40.100 C 430.200 40.045 430.155 40.000 430.100 40.000 H 425.200 C 425.100 40.000 425.200 40.100 425.200 40.000 V 10.100 C 425.200 10.045 425.155 10.000 425.100 10.000 H 402.403 C 402.035 10.000 401.673 10.097 401.353 10.281 C 401.034 10.466 400.769 10.731 400.585 11.050 L 389.711 29.884 C 389.661 29.971 389.798 29.934 389.711 29.884 L 385.381 27.384 C 385.294 27.334 385.331 27.471 385.381 27.384 L 393.599 13.150 C 393.783 12.831 393.880 12.469 393.880 12.100 C 393.880 11.731 393.783 11.369 393.599 11.050 C 393.414 10.731 393.149 10.466 392.830 10.281 C 392.511 10.097 392.149 10.000 391.780 10.000 H 372.548 C 372.179 10.000 371.817 10.097 371.498 10.281 C 371.178 10.466 370.913 10.731 370.729 11.050 L 359.855 29.884 C 359.805 29.971 359.942 29.934 359.855 29.884 L 355.525 27.384 C 355.438 27.334 355.475 27.471 355.525 27.384 L 363.743 13.150 C 363.927 12.831 364.024 12.469 364.024 12.100 C 364.024 11.731 363.927 11.369 363.743 11.050 C 363.559 10.731 363.294 10.466 362.974 10.281 C 362.655 10.097 362.293 10.000 361.924 10.000 H 342.692 C 342.323 10.000 341.961 10.097 341.642 10.281 C 341.323 10.466 341.057 10.731 340.873 11.050 L 329.999 29.884 C 329.949 29.971 330.086 29.934 329.999 29.884 L 325.669 27.384 C 325.583 27.334 325.619 27.471 325.669 27.384 L 333.887 13.150 C 334.072 12.831 334.169 12.469 334.169 12.100 C 334.169 11.731 334.072 11.369 333.887 11.050 C 333.703 10.731 333.438 10.466 333.119 10.281 C 332.799 10.097 332.437 10.000 332.069 10.000 H 312.836 C 312.467 10.000 312.105 10.097 311.786 10.281 C 311.467 10.466 311.202 10.731 311.017 11.050 L 300.144 29.884 C 300.094 29.971 300.230 29.934 300.144 29.884 L 295.813 27.384 C 295.727 27.334 295.763 27.471 295.813 27.384 L 304.031 13.150 C 304.216 12.831 304.313 12.469 304.313 12.100 C 304.313 11.731 304.216 11.369 304.031 11.050 C 303.847 10.731 303.582 10.466 303.263 10.281 C 302.944 10.097 302.581 10.000 302.213 10.000 H 282.980 C 282.612 10.000 282.249 10.097 281.930 10.281 C 281.611 10.466 281.346 10.731 281.162 11.050 L 270.288 29.884 C 270.238 29.971 270.374 29.934 270.288 29.884 L 265.958 27.384 C 265.871 27.334 265.908 27.471 265.958 27.384 L 274.176 13.150 C 274.360 12.831 274.457 12.469 274.457 12.100 C 274.457 11.731 274.360 11.369 274.176 11.050 C 273.991 10.731 273.726 10.466 273.407 10.281 C 273.088 10.097 272.726 10.000 272.357 10.000 H 253.124 C 252.756 10.000 252.394 10.097 252.074 10.281 C 251.755 10.466 251.490 10.731 251.306 11.050 L 240.432 29.884 C 240.382 29.971 240.519 29.934 240.432 29.884 L 236.102 27.384 C 236.015 27.334 236.052 27.471 236.102 27.384 L 244.320 13.150 C 244.504 12.831 244.601 12.469 244.601 12.100 C 244.601 11.731 244.504 11.369 244.320 11.050 C 244.136 10.731 243.870 10.466 243.551 10.281 C 243.232 10.097 242.870 10.000 242.501 10.000 H 223.269 C 222.900 10.000 222.538 10.097 222.219 10.281 C 221.899 10.466 221.634 10.731 221.450 11.050 L 210.576 29.884 C 210.526 29.971 210.663 29.934 210.576 29.884 L 206.246 27.384 C 206.160 27.334 206.196 27.471 206.246 27.384 L 214.464 13.150 C 214.648 12.831 214.745 12.469 214.745 12.100 C 214.745 11.731 214.648 11.369 214.464 11.050 C 214.280 10.731 214.015 10.466 213.695 10.281 C 213.376 10.097 213.014 10.000 212.645 10.000 H 193.413 C 193.044 10.000 192.682 10.097 192.363 10.281 C 192.044 10.466 191.779 10.731 191.594 11.050 L 180.720 29.884 C 180.670 29.971 180.807 29.934 180.720 29.884 L 176.390 27.384 C 176.304 27.334 176.340 27.471 176.390 27.384 L 184.608 13.150 C 184.793 12.831 184.890 12.469 184.890 12.100 C 184.890 11.731 184.793 11.369 184.608 11.050 C 184.424 10.731 184.159 10.466 183.840 10.281 C 183.520 10.097 183.158 10.000 182.790 10.000 H 163.557 C 163.188 10.000 162.826 10.097 162.507 10.281 C 162.188 10.466 161.923 10.731 161.738 11.050 L 150.865 29.884 C 150.815 29.971 150.951 29.934 150.865 29.884 L 146.535 27.384 C 146.448 27.334 146.485 27.471 146.535 27.384 L 154.752 13.150 C 154.937 12.831 155.034 12.469 155.034 12.100 C 155.034 11.731 154.937 11.369 154.752 11.050 C 154.568 10.731 154.303 10.466 153.984 10.281 C 153.665 10.097 153.302 10.000 152.934 10.000 H 133.701 C 133.333 10.000 132.971 10.097 132.651 10.281 C 132.332 10.466 132.067 10.731 131.883 11.050 L 121.009 29.884 C 120.959 29.971 121.095 29.934 121.009 29.884 L 116.679 27.384 C 116.592 27.334 116.629 27.471 116.679 27.384 L 124.897 13.150 C 125.081 12.831 125.178 12.469 125.178 12.100 C 125.178 11.731 125.081 11.369 124.897 11.050 C 124.712 10.731 124.447 10.466 124.128 10.281 C 123.809 10.097 123.447 10.000 123.078 10.000 H 103.846 C 103.477 10.000 103.115 10.097 102.796 10.281 C 102.476 10.466 102.211 10.731 102.027 11.050 L 91.153 29.884 C 91.103 29.971 91.240 29.934 91.153 29.884 L 86.823 27.384 C 86.736 27.334 86.773 27.471 86.823 27.384 L 95.041 13.150 C 95.225 12.831 95.322 12.469 95.322 12.100 C 95.322 11.731 95.225 11.369 95.041 11.050 C 94.857 10.731 94.592 10.466 94.272 10.281 C 93.953 10.097 93.591 10.000 93.222 10.000 H 15.100 C 15.045 10.000 15.000 10.045 15.000 10.100 V 40.000 C 15.000 40.100 15.100 40.000 15.000 40.000 H 10.100 C 10.045 40.000 10.000 40.045 10.000 40.100 V 80.100 C 10.000 80.155 10.045 80.200 10.100 80.200 H 15.000 C 15.100 80.200 15.000 80.100 15.000 80.200 V 110.100 C 15.000 110.155 15.045 110.200 15.100 110.200 Z" stroke="rgb(0,0,0)" stroke-width="0.20" />
  <text dominant-baseline="hanging" font-size="4px" style="font-family: sans-serif ; font-weight: normal; font-style: normal; fill: rgb(255,0,0)" text-anchor="middle" transform="matrix( 1.000 0.000 0.000 1.000 220.100 58.200 )">Sidepiece 3</text>
</g>
<g id="p-6" style="fill:none;stroke-linecap:round;stroke-linejoin:round;">
  <path d="M 432.800 521.000 H 437.750 H 452.583 C 452.776 521.000 452.966 520.949 453.133 520.853 C 453.301 520.756 453.439 520.617 453.536 520.450 C 453.633 520.283 453.683 520.093 453.683 519.900 V 498.900 C 453.683 497.513 454.048 496.151 454.742 494.950 C 455.435 493.749 456.432 492.752 457.633 492.058 C 458.834 491.365 460.197 491.000 461.583 491.000 H 476.417 C 477.803 491.000 479.166 491.365 480.367 492.058 C 481.568 492.752 482.565 493.749 483.258 494.950 C 483.952 496.151 484.317 497.513 484.317 498.900 V 519.900 C 484.317 520.093 484.367 520.283 484.464 520.450 C 484.561 520.617 484.699 520.756 484.867 520.853 C 485.034 520.949 485.224 521.000 485.417 521.000 H 500.250 H 505.250 H 520.083 C 520.276 521.000 520.466 520.949 520.633 520.853 C 520.801 520.756 520.939 520.617 521.036 520.450 C 521.133 520.283 521.183 520.093 521.183 519.900 V 498.900 C 521.183 497.513 521.548 496.151 522.242 494.950 C 522.935 493.749 523.932 492.752 525.133 492.058 C 526.334 491.365 527.697 491.000 529.083 491.000 H 543.917 C 545.303 491.000 546.666 491.365 547.867 492.058 C 549.068 492.752 550.065 493.749 550.758 494.950 C 551.452 496.151 551.817 497.513 551.817 498.900 V 519.900 C 551.817 520.093 551.867 520.283 551.964 520.450 C 552.061 520.617 552.199 520.756 552.367 520.853 C 552.534 520.949 552.724 521.000 552.917 521.000 H 567.750 H 572.700 C 572.755 521.000 572.800 520.955 572.800 520.900 V 500.900 C 572.800 500.845 572.755 500.800 572.700 500.800 H 567.800 C 567.700 500.800 567.800 500.900 567.800 500.800 V 408.317 C 567.800 408.261 567.755 408.217 567.700 408.217 H 505.300 C 505.245 408.217 505.200 408.261 505.200 408.317 V 500.800 C 505.200 500.900 505.300 500.800 505.200 500.800 H 500.300 C 500.200 500.800 500.300 500.900 500.300 500.800 V 408.317 C 500.300 408.261 500.255 408.217 500.200 408.217 H 437.800 C 437.745 408.217 437.700 408.261 437.700 408.317 V 500.800 C 437.700 500.900 437.800 500.800 437.700 500.800 H 432.800 C 432.745 500.800 432.700 500.845 432.700 500.900 V 520.900 C 432.700 520.955 432.745 521.000 432.800 521.000 Z" stroke="rgb(0,0,0)" stroke-width="0.20" />
  <text dominant-baseline="hanging" font-size="4px" style="font-family: sans-serif ; font-weight: normal; font-style: normal; fill: rgb(255,0,0)" text-anchor="middle" transform="matrix( 1.000 0.000 0.000 1.000 502.800 462.708 )">Divider</text>
</g>
<g id="p-7" style="fill:none;stroke-linecap:round;stroke-linejoin:round;">
  <path d="M 432.800 405.717 H 437.750 H 452.583 C 452.776 405.717 452.966 405.666 453.133 405.569 C 453.301 405.473 453.439 405.334 453.536 405.167 C 453.633 404.999 453.683 404.810 453.683 404.617 V 383.617 C 453.683 382.230 454.048 380.868 454.742 379.667 C 455.435 378.466 456.432 377.468 457.633 376.775 C 458.834 376.082 460.197 375.717 461.583 375.717 H 476.417 C 477.803 375.717 479.166 376.082 480.367 376.775 C 481.568 377.468 482.565 378.466 483.258 379.667 C 483.952 380.868 484.317 382.230 484.317 383.617 V 404.617 C 484.317 404.810 484.367 404.999 484.464 405.167 C 484.561 405.334 484.699 405.473 484.867 405.569 C 485.034 405.666 485.224 405.717 485.417 405.717 H 500.250 H 505.200 C 505.255 405.717 505.300 405.672 505.300 405.617 V 385.617 C 505.300 385.561 505.255 385.517 505.200 385.517 H 500.300 C 500.200 385.517 500.300 385.617 500.300 385.517 V 293.033 C 500.300 292.978 500.255 292.933 500.200 292.933 H 437.800 C 437.745 292.933 437.700 292.978 437.700 293.033 V 385.517 C 437.700 385.617 437.800 385.517 437.700 385.517 H 432.800 C 432.745 385.517 432.700 385.561 432.700 385.617 V 405.617 C 432.700 405.672 432.745 405.717 432.800 405.717 Z" stroke="rgb(0,0,0)" stroke-width="0.20" />
  <text dominant-baseline="hanging" font-size="4px" style="font-family: sans-serif ; font-weight: normal; font-style: normal; fill: rgb(255,0,0)" text-anchor="middle" transform="matrix( 1.000 0.000 0.000 1.000 469.050 347.425 )">Divider</text>
</g>
<g id="p-8" style="fill:none;stroke-linecap:round;stroke-linejoin:round;">
  <path d="M 508.000 405.717 H 512.950 H 527.783 C 527.976 405.717 528.166 405.666 528.333 405.569 C 528.501 405.473 528.639 405.334 528.736 405.167 C 528.833 404.999 528.883 404.810 528.883 404.617 V 383.617 C 528.883 382.230 529.248 380.868 529.942 379.667 C 530.635 378.466 531.632 377.468 532.833 376.775 C 534.034 376.082 535.397 375.717 536.783 375.717 H 551.617 C 553.003 375.717 554.366 376.082 555.567 376.775 C 556.768 377.468 557.765 378.466 558.458 379.667 C 559.152 380.868 559.517 382.230 559.517 383.617 V 404.617 C 559.517 404.810 559.567 404.999 559.664 405.167 C 559.761 405.334 559.899 405.473 560.067 405.569 C 560.234 405.666 560.424 405.717 560.617 405.717 H 575.450 H 580.400 C 580.455 405.717 580.500 405.672 580.500 405.617 V 385.617 C 580.500 385.561 580.455 385.517 580.400 385.517 H 575.500 C 575.400 385.517 575.500 385.617 575.500 385.517 V 293.033 C 575.500 292.978 575.455 292.933 575.400 292.933 H 513.000 C 512.945 292.933 512.900 292.978 512.900 293.033 V 385.517 C 512.900 385.617 513.000 385.517 512.900 385.517 H 508.000 C 507.945 385.517 507.900 385.561 507.900 385.617 V 405.617 C 507.900 405.672 507.945 405.717 508.000 405.717 Z" stroke="rgb(0,0,0)" stroke-width="0.20" />
  <text dominant-baseline="hanging" font-size="4px" style="font-family: sans-serif ; font-weight: normal; font-style: normal; fill: rgb(255,0,0)" text-anchor="middle" transform="matrix( 1.000 0.000 0.000 1.000 544.250 347.425 )">Divider</text>
</g>
<g id="p-9" style="fill:none;stroke-linecap:round;stroke-linejoin:round;">
  <path d="M 432.800 290.433 H 435.250 H 450.083 C 450.276 290.433 450.466 290.383 450.633 290.286 C 450.801 290.189 450.939 290.051 451.036 289.883 C 451.133 289.716 451.183 289.526 451.183 289.333 V 268.333 C 451.183 266.947 451.548 265.584 452.242 264.383 C 452.935 263.182 453.932 262.185 455.133 261.492 C 456.334 260.798 457.697 260.433 459.083 260.433 H 473.917 C 475.303 260.433 476.666 260.798 477.867 261.492 C 479.068 262.185 480.065 263.182 480.758 264.383 C 481.452 265.584 481.817 266.947 481.817 268.333 V 289.333 C 481.817 289.526 481.867 289.716 481.964 289.883 C 482.061 290.051 482.199 290.189 482.367 290.286 C 482.534 290.383 482.724 290.433 482.917 290.433 H 497.750 H 500.200 C 500.255 290.433 500.300 290.389 500.300 290.333 V 270.333 C 500.300 270.278 500.255 270.233 500.200 270.233 H 497.800 C 497.700 270.233 497.800 270.333 497.800 270.233 V 177.750 C 497.800 177.695 497.755 177.650 497.700 177.650 H 435.300 C 435.245 177.650 435.200 177.695 435.200 177.750 V 270.233 C 435.200 270.333 435.300 270.233 435.200 270.233 H 432.800 C 432.745 270.233 432.700 270.278 432.700 270.333 V 290.333 C 432.700 290.389 432.745 290.433 432.800 290.433 Z" stroke="rgb(0,0,0)" stroke-width="0.20" />
  <text dominant-baseline="hanging" font-size="4px" style="font-family: sans-serif ; font-weight: normal; font-style: normal; fill: rgb(255,0,0)" text-anchor="middle" transform="matrix( 1.000 0.000 0.000 1.000 466.550 232.142 )">Divider</text>
</g>
<g id="p-10" style="fill:none;stroke-linecap:round;stroke-linejoin:round;">
  <path d="M 503.000 290.433 H 505.450 H 520.283 C 520.476 290.433 520.666 290.383 520.833 290.286 C 521.001 290.189 521.139 290.051 521.236 289.883 C 521.333 289.716 521.383 289.526 521.383 289.333 V 268.333 C 521.383 266.947 521.748 265.584 522.442 264.383 C 523.135 263.182 524.132 262.185 525.333 261.492 C 526.534 260.798 527.897 260.433 529.283 260.433 H 544.117 C 545.503 260.433 546.866 260.798 548.067 261.492 C 549.268 262.185 550.265 263.182 550.958 264.383 C 551.652 265.584 552.017 266.947 552.017 268.333 V 289.333 C 552.017 289.526 552.067 289.716 552.164 289.883 C 552.261 290.051 552.399 290.189 552.567 290.286 C 552.734 290.383 552.924 290.433 553.117 290.433 H 567.950 H 570.400 C 570.455 290.433 570.500 290.389 570.500 290.333 V 270.333 C 570.500 270.278 570.455 270.233 570.400 270.233 H 568.000 C 567.900 270.233 568.000 270.333 568.000 270.233 V 177.750 C 568.000 177.695 567.955 177.650 567.900 177.650 H 505.500 C 505.445 177.650 505.400 177.695 505.400 177.750 V 270.233 C 505.400 270.333 505.500 270.233 505.400 270.233 H 503.000 C 502.945 270.233 502.900 270.278 502.900 270.333 V 290.333 C 502.900 290.389 502.945 290.433 503.000 290.433 Z" stroke="rgb(0,0,0)" stroke-width="0.20" />
  <text dominant-baseline="hanging" font-size="4px" style="font-family: sans-serif ; font-weight: normal; font-style: normal; fill: rgb(255,0,0)" text-anchor="middle" transform="matrix( 1.000 0.000 0.000 1.000 536.750 232.142 )">Divider</text>
</g>
<g id="p-11" style="fill:none;stroke-linecap:round;stroke-linejoin:round;">
  <path d="M 437.750 175.150 H 452.583 C 452.776 175.150 452.966 175.099 453.133 175.003 C 453.301 174.906 453.439 174.767 453.536 174.600 C 453.633 174.433 453.683 174.243 453.683 174.050 V 153.050 C 453.683 151.663 454.048 150.301 454.742 149.100 C 455.435 147.899 456.432 146.902 457.633 146.208 C 458.834 145.515 460.197 145.150 461.583 145.150 H 476.417 C 477.803 145.150 479.166 145.515 480.367 146.208 C 481.568 146.902 482.565 147.899 483.258 149.100 C 483.952 150.301 484.317 151.663 484.317 153.050 V 174.050 C 484.317 174.243 484.367 174.433 484.464 174.600 C 484.561 174.767 484.699 174.906 484.867 175.003 C 485.034 175.099 485.224 175.150 485.417 175.150 H 500.250 H 505.200 C 505.255 175.150 505.300 175.105 505.300 175.050 V 165.100 C 505.300 165.045 505.255 165.000 505.200 165.000 H 500.300 C 500.200 165.000 500.300 165.100 500.300 165.000 V 62.467 C 500.300 62.412 500.255 62.367 500.200 62.367 H 437.800 C 437.745 62.367 437.700 62.412 437.700 62.467 V 154.950 C 437.700 155.050 437.800 154.950 437.700 154.950 H 432.800 C 432.745 154.950 432.700 154.995 432.700 155.050 V 165.050 C 432.700 165.105 432.745 165.150 432.800 165.150 H 437.650 C 437.750 165.150 437.650 165.050 437.650 165.150 V 175.050 C 437.650 175.105 437.695 175.150 437.750 175.150 Z" stroke="rgb(0,0,0)" stroke-width="0.20" />
  <text dominant-baseline="hanging" font-size="4px" style="font-family: sans-serif ; font-weight: normal; font-style: normal; fill: rgb(255,0,0)" text-anchor="middle" transform="matrix( 1.000 0.000 0.000 1.000 469.050 116.858 )">Divider</text>
</g>
<g id="p-12" style="fill:none;stroke-linecap:round;stroke-linejoin:round;">
  <path d="M 507.950 172.450 H 522.783 C 522.976 172.450 523.166 172.399 523.333 172.303 C 523.501 172.206 523.639 172.067 523.736 171.900 C 523.833 171.733 523.883 171.543 523.883 171.350 V 150.350 C 523.883 148.963 524.248 147.601 524.942 146.400 C 525.635 145.199 526.632 144.202 527.833 143.508 C 529.034 142.815 530.397 142.450 531.783 142.450 H 546.617 C 548.003 142.450 549.366 142.815 550.567 143.508 C 551.768 144.202 552.765 145.199 553.458 146.400 C 554.152 147.601 554.517 148.963 554.517 150.350 V 171.350 C 554.517 171.543 554.567 171.733 554.664 171.900 C 554.761 172.067 554.899 172.206 555.067 172.303 C 555.234 172.399 555.424 172.450 555.617 172.450 H 570.450 H 575.400 C 575.455 172.450 575.500 172.405 575.500 172.350 V 162.400 C 575.500 162.345 575.455 162.300 575.400 162.300 H 570.500 C 570.400 162.300 570.500 162.400 570.500 162.300 V 59.767 C 570.500 59.712 570.455 59.667 570.400 59.667 H 508.000 C 507.945 59.667 507.900 59.712 507.900 59.767 V 152.250 C 507.900 152.350 508.000 152.250 507.900 152.250 H 503.000 C 502.945 152.250 502.900 152.295 502.900 152.350 V 162.350 C 502.900 162.405 502.945 162.450 503.000 162.450 H 507.850 C 507.950 162.450 507.850 162.350 507.850 162.450 V 172.350 C 507.850 172.405 507.895 172.450 507.950 172.450 Z" stroke="rgb(0,0,0)" stroke-width="0.20" />
  <text dominant-baseline="hanging" font-size="4px" style="font-family: sans-serif ; font-weight: normal; font-style: normal; fill: rgb(255,0,0)" text-anchor="middle" transform="matrix( 1.000 0.000 0.000 1.000 539.250 114.158 )">Divider</text>
</g>
</svg>