<?xml version="1.0" encoding="UTF-8" standalone="no"?>
<!-- Created with Inkscape (http://www.inkscape.org/) -->
<svg xmlns:dc="http://purl.org/dc/elements/1.1/" xmlns:cc="http://creativecommons.org/ns#" xmlns:rdf="http://www.w3.org/1999/02/22-rdf-syntax-ns#" xmlns:svg="http://www.w3.org/2000/svg" xmlns="http://www.w3.org/2000/svg" xmlns:sodipodi="http://sodipodi.sourceforge.net/DTD/sodipodi-0.dtd" xmlns:inkscape="http://www.inkscape.org/namespaces/inkscape" width="210mm" height="297mm" viewBox="0 0 210 297" version="1.1" id="svg8" inkscape:version="0.92.4 (5da689c313, 2019-01-14)" sodipodi:docname="Tripods.svg">
  <defs id="defs2"/>
  
  
  <g inkscape:label="Layer 1" inkscape:groupmode="layer" id="layer1">
    <path style="opacity:0.98999999;fill:none;fill-opacity:1;stroke:#000008;stroke-width:0.14092812;stroke-linejoin:miter;stroke-miterlimit:4;stroke-dasharray:none;stroke-dashoffset:0;stroke-opacity:1" d="M 35.502813,22.6428 25.161843,40.553852 V 51.83895 H 11.640187 v 12.55944 h 50.65944 V 51.83895 H 48.777972 V 40.191082 L 38.64629,22.6428 H 38.62355 V 44.684866 H 35.709519 V 22.6428 Z" id="rect815" inkscape:connector-curvature="0"/>
    <path style="opacity:0.98999999;fill:none;fill-opacity:1;stroke:#000008;stroke-width:0.14092812;stroke-linejoin:miter;stroke-miterlimit:4;stroke-dasharray:none;stroke-dashoffset:0;stroke-opacity:1" d="M 89.820427,22.6428 79.479457,40.553852 V 51.83895 H 65.957802 V 64.39839 H 89.962021 V 44.684866 h 2.914033 V 64.39839 H 116.61724 V 51.83895 H 103.09559 V 40.191082 L 92.963904,22.6428 h -1.532739 z" id="path830" inkscape:connector-curvature="0" sodipodi:nodetypes="cccccccccccccccc"/>
    <path id="path840" d="M 120.27542,49.722283 130.61638,31.81123 V 20.526133 h 13.52166 V 7.9666931 H 93.478601 V 20.526133 h 13.521659 v 11.647868 l 10.13168,17.548282 h 0.0227 V 27.680217 h 2.91403 v 22.042066 z" style="opacity:0.98999999;fill:none;fill-opacity:1;stroke:#000008;stroke-width:0.14092812;stroke-linejoin:miter;stroke-miterlimit:4;stroke-dasharray:none;stroke-dashoffset:0;stroke-opacity:1" inkscape:connector-curvature="0"/>
    <path sodipodi:nodetypes="cccccccccccccccc" inkscape:connector-curvature="0" id="path842" d="M 65.957802,49.722283 76.298772,31.81123 V 20.526133 H 89.820427 V 7.9666931 H 65.816208 V 27.680217 H 62.902174 V 7.9666931 H 39.16099 V 20.526133 h 13.52165 v 11.647868 l 10.131685,17.548282 h 1.532739 z" style="opacity:0.98999999;fill:none;fill-opacity:1;stroke:#000008;stroke-width:0.14092812;stroke-linejoin:miter;stroke-miterlimit:4;stroke-dasharray:none;stroke-dashoffset:0;stroke-opacity:1"/>
    <path inkscape:connector-curvature="0" style="opacity:0.98999999;fill:none;fill-opacity:1;stroke:#000008;stroke-width:0.14092812;stroke-linejoin:miter;stroke-miterlimit:4;stroke-dasharray:none;stroke-dashoffset:0;stroke-opacity:1" d="m 41.440364,80.719467 -10.34097,17.91106 V 109.91563 H 17.577738 v 12.55944 H 68.237179 V 109.91563 H 54.715523 V 98.267757 L 44.583842,80.719467 h -0.02274 V 102.76154 H 41.64707 V 80.719467 Z" id="path844"/>
    <path style="opacity:0.98999999;fill:none;fill-opacity:1;stroke:#000008;stroke-width:0.14092812;stroke-linejoin:miter;stroke-miterlimit:4;stroke-dasharray:none;stroke-dashoffset:0;stroke-opacity:1" d="m 95.757978,80.719467 -10.34097,17.91106 V 109.91563 H 71.895353 v 12.55944 h 24.004219 v -19.71353 h 2.914034 v 19.71353 H 122.55479 V 109.91563 H 109.03314 V 98.267757 L 98.901455,80.719467 h -1.532739 z" id="path846" inkscape:connector-curvature="0" sodipodi:nodetypes="cccccccccccccccc"/>
    <path id="path848" d="m 125.69827,107.79895 10.34097,-17.911063 v -11.2851 H 149.5609 V 66.043359 H 98.901455 v 12.559428 h 13.521655 v 11.64787 l 10.13168,17.548293 h 0.0227 V 85.756877 h 2.91403 v 22.042073 z" style="opacity:0.98999999;fill:none;fill-opacity:1;stroke:#000008;stroke-width:0.14092812;stroke-linejoin:miter;stroke-miterlimit:4;stroke-dasharray:none;stroke-dashoffset:0;stroke-opacity:1" inkscape:connector-curvature="0"/>
    <path sodipodi:nodetypes="cccccccccccccccc" inkscape:connector-curvature="0" id="path850" d="m 71.380656,107.79895 10.34097,-17.911063 v -11.2851 H 95.243281 V 66.043359 H 71.239062 V 85.756877 H 68.325028 V 66.043359 H 44.583844 v 12.559428 h 13.52165 v 11.64787 l 10.131685,17.548293 h 1.532739 z" style="opacity:0.98999999;fill:none;fill-opacity:1;stroke:#000008;stroke-width:0.14092812;stroke-linejoin:miter;stroke-miterlimit:4;stroke-dasharray:none;stroke-dashoffset:0;stroke-opacity:1"/>
  </g>
</svg>
