<?xml version="1.0" encoding="UTF-8" standalone="no"?>
<!-- Created with Inkscape (http://www.inkscape.org/) -->

<svg
   width="210mm"
   height="297mm"
   viewBox="0 0 210 297"
   version="1.1"
   id="svg1"
   xml:space="preserve"
   inkscape:version="1.4.2 (f4327f4, 2025-05-13)"
   sodipodi:docname="SoB Card Box - DividerTray - OnTop_v1.svg"
   xmlns:inkscape="http://www.inkscape.org/namespaces/inkscape"
   xmlns:sodipodi="http://sodipodi.sourceforge.net/DTD/sodipodi-0.dtd"
   xmlns="http://www.w3.org/2000/svg"
   xmlns:svg="http://www.w3.org/2000/svg"><sodipodi:namedview
     id="namedview1"
     pagecolor="#ffffff"
     bordercolor="#000000"
     borderopacity="0.25"
     inkscape:showpageshadow="2"
     inkscape:pageopacity="0.0"
     inkscape:pagecheckerboard="0"
     inkscape:deskcolor="#d1d1d1"
     inkscape:document-units="mm"
     showgrid="false"
     showguides="true"
     inkscape:zoom="0.1767767"
     inkscape:cx="2664.3783"
     inkscape:cy="1077.6307"
     inkscape:window-width="1920"
     inkscape:window-height="1009"
     inkscape:window-x="1912"
     inkscape:window-y="-8"
     inkscape:window-maximized="1"
     inkscape:current-layer="layer1"><inkscape:page
       x="0"
       y="0"
       width="210"
       height="297"
       id="page1"
       margin="0"
       bleed="0" /><inkscape:page
       x="220"
       y="0"
       width="210"
       height="297"
       id="page2"
       margin="0"
       bleed="0" /><inkscape:page
       x="440"
       y="0"
       width="210"
       height="297"
       id="page3"
       margin="0"
       bleed="0" /><inkscape:page
       x="660"
       y="0"
       width="210"
       height="297"
       id="page24"
       margin="0"
       bleed="0" /><sodipodi:guide
       position="545.00001,215.66544"
       orientation="-1,0"
       id="guide1"
       inkscape:locked="false"
       inkscape:label=""
       inkscape:color="rgb(0,134,229)" /><sodipodi:guide
       position="571.91819,124.031"
       orientation="0,1"
       id="guide2"
       inkscape:locked="false"
       inkscape:label=""
       inkscape:color="rgb(0,134,229)" /><sodipodi:guide
       position="612.50008,164.30939"
       orientation="1,0"
       id="guide3"
       inkscape:locked="false" /><sodipodi:guide
       position="571.91819,149.031"
       orientation="0,1"
       id="guide4"
       inkscape:label=""
       inkscape:locked="false"
       inkscape:color="rgb(0,134,229)" /></sodipodi:namedview><defs
     id="defs1" /><g
     inkscape:label="Camada 1"
     inkscape:groupmode="layer"
     id="layer1"><g
       id="p-1"
       style="fill:none;stroke-linecap:round;stroke-linejoin:round"
       transform="translate(440.38724,-538.15834)"><path
         d="m 15.2,825.2 h 18.5 c 0.11,0 0.2,-0.09 0.2,-0.2 v -4.8 c 0,-0.2 -0.2,0 0,0 h 9.6 c 0.2,0 0,-0.2 0,0 v 4.8 c 0,0.11 0.09,0.2 0.2,0.2 h 10 c 0.11,0 0.2,-0.09 0.2,-0.2 v -4.8 c 0,-0.2 -0.2,0 0,0 h 9.6 c 0.2,0 0,-0.2 0,0 v 4.8 c 0,0.11 0.09,0.2 0.2,0.2 h 18.5 5 c 0.11,0 0.2,-0.09 0.2,-0.2 v -5 -17.5 c 0,-0.11 -0.09,-0.2 -0.2,-0.2 h -4.8 c -0.2,0 0,0.2 0,0 v -9.6 c 0,-0.2 -0.2,0 0,0 h 4.8 c 0.11,0 0.2,-0.09 0.2,-0.2 v -10 c 0,-0.11 -0.09,-0.2 -0.2,-0.2 h -4.8 c -0.2,0 0,0.2 0,0 v -9.6 c 0,-0.2 -0.2,0 0,0 h 4.8 c 0.11,0 0.2,-0.09 0.2,-0.2 V 755 c 0,-0.11 -0.09,-0.2 -0.2,-0.2 h -5 -67 -5 c -0.11,0 -0.2,0.09 -0.2,0.2 v 17.5 c 0,0.11 0.09,0.2 0.2,0.2 H 15 c 0.2,0 0,-0.2 0,0 v 9.6 c 0,0.2 0.2,0 0,0 h -4.8 c -0.11,0 -0.2,0.09 -0.2,0.2 v 10 c 0,0.11 0.09,0.2 0.2,0.2 H 15 c 0.2,0 0,-0.2 0,0 v 9.6 c 0,0.2 0.2,0 0,0 h -4.8 c -0.11,0 -0.2,0.09 -0.2,0.2 v 17.5 5 c 0,0.11 0.09,0.2 0.2,0.2 z"
         stroke="#000000"
         stroke-width="0.4"
         id="path2" /><text
         dominant-baseline="hanging"
         font-size="4px"
         style="font-style:normal;font-weight:normal;font-family:sans-serif;fill:#ff0000"
         text-anchor="middle"
         transform="translate(48.7,788.2)"
         id="text2">Back</text></g><g
       id="p-2"
       style="fill:none;stroke-linecap:round;stroke-linejoin:round"
       transform="translate(528.22891,-465.25834)"><path
         d="m 15.2,752.3 h 18.5 c 0.11,0 0.2,-0.09 0.2,-0.2 v -4.8 c 0,-0.2 -0.2,0 0,0 h 9.6 c 0.2,0 0,-0.2 0,0 v 4.8 c 0,0.11 0.09,0.2 0.2,0.2 h 10 c 0.11,0 0.2,-0.09 0.2,-0.2 v -4.8 c 0,-0.2 -0.2,0 0,0 h 9.6 c 0.2,0 0,-0.2 0,0 v 4.8 c 0,0.11 0.09,0.2 0.2,0.2 h 18.5 5 c 0.11,0 0.2,-0.09 0.2,-0.2 v -5 -17.5 c 0,-0.11 -0.09,-0.2 -0.2,-0.2 h -4.8 c -0.2,0 0,0.2 0,0 v -9.6 c 0,-0.2 -0.2,0 0,0 h 4.8 c 0.11,0 0.2,-0.09 0.2,-0.2 v -10 c 0,-0.11 -0.09,-0.2 -0.2,-0.2 h -4.8 c -0.2,0 0,0.2 0,0 v -9.6 c 0,-0.2 -0.2,0 0,0 h 4.8 c 0.11,0 0.2,-0.09 0.2,-0.2 v -17.5 c 0,-0.11 -0.09,-0.2 -0.2,-0.2 h -5 -67 -5 c -0.11,0 -0.2,0.09 -0.2,0.2 v 17.5 c 0,0.11 0.09,0.2 0.2,0.2 H 15 c 0.2,0 0,-0.2 0,0 v 9.6 c 0,0.2 0.2,0 0,0 h -4.8 c -0.11,0 -0.2,0.09 -0.2,0.2 v 10 c 0,0.11 0.09,0.2 0.2,0.2 H 15 c 0.2,0 0,-0.2 0,0 v 9.6 c 0,0.2 0.2,0 0,0 h -4.8 c -0.11,0 -0.2,0.09 -0.2,0.2 v 17.5 5 c 0,0.11 0.09,0.2 0.2,0.2 z"
         stroke="#000000"
         stroke-width="0.4"
         id="path3" /><text
         dominant-baseline="hanging"
         font-size="4px"
         style="font-style:normal;font-weight:normal;font-family:sans-serif;fill:#ff0000"
         text-anchor="middle"
         transform="translate(48.7,715.3)"
         id="text3">Front</text></g><g
       id="p-3"
       style="fill:none;stroke-linecap:round;stroke-linejoin:round"
       transform="rotate(90,457.38726,455.68726)"><path
         d="m 15.2,679.4 h 10 c 0.11,0 0.2,-0.09 0.2,-0.2 v -4.8 c 0,-0.2 -0.2,0 0,0 H 35 c 0.2,0 0,-0.2 0,0 v 4.8 c 0,0.11 0.09,0.2 0.2,0.2 h 10 c 0.11,0 0.2,-0.09 0.2,-0.2 v -4.8 c 0,-0.2 -0.2,0 0,0 H 55 c 0.2,0 0,-0.2 0,0 v 4.8 c 0,0.11 0.09,0.2 0.2,0.2 h 10 c 0.11,0 0.2,-0.09 0.2,-0.2 v -4.8 c 0,-0.2 -0.2,0 0,0 H 75 c 0.2,0 0,-0.2 0,0 v 4.8 c 0,0.11 0.09,0.2 0.2,0.2 h 10 c 0.11,0 0.2,-0.09 0.2,-0.2 v -4.8 c 0,-0.2 -0.2,0 0,0 H 95 c 0.2,0 0,-0.2 0,0 v 4.8 c 0,0.11 0.09,0.2 0.2,0.2 h 10 c 0.11,0 0.2,-0.09 0.2,-0.2 v -4.8 c 0,-0.2 -0.2,0 0,0 h 9.6 c 0.2,0 0,-0.2 0,0 v 4.8 c 0,0.11 0.09,0.2 0.2,0.2 h 10 c 0.11,0 0.2,-0.09 0.2,-0.2 v -4.8 c 0,-0.2 -0.2,0 0,0 h 9.6 c 0.2,0 0,-0.2 0,0 v 4.8 c 0,0.11 0.09,0.2 0.2,0.2 h 10 c 0.11,0 0.2,-0.09 0.2,-0.2 v -4.8 c 0,-0.2 -0.2,0 0,0 h 9.6 c 0.2,0 0,-0.2 0,0 v 4.8 c 0,0.11 0.09,0.2 0.2,0.2 h 10 c 0.11,0 0.2,-0.09 0.2,-0.2 v -4.8 c 0,-0.2 -0.2,0 0,0 h 9.6 c 0.2,0 0,-0.2 0,0 v 4.8 c 0,0.11 0.09,0.2 0.2,0.2 h 10 c 0.11,0 0.2,-0.09 0.2,-0.2 v -4.8 c 0,-0.2 -0.2,0 0,0 h 9.6 c 0.2,0 0,-0.2 0,0 v 4.8 c 0,0.11 0.09,0.2 0.2,0.2 h 10 c 0.11,0 0.2,-0.09 0.2,-0.2 v -4.8 c 0,-0.2 -0.2,0 0,0 h 9.6 c 0.2,0 0,-0.2 0,0 v 4.8 c 0,0.11 0.09,0.2 0.2,0.2 h 10 c 0.11,0 0.2,-0.09 0.2,-0.2 v -4.8 c 0,-0.2 -0.2,0 0,0 h 9.6 c 0.2,0 0,-0.2 0,0 v 4.8 c 0,0.11 0.09,0.2 0.2,0.2 h 10 c 0.11,0 0.2,-0.09 0.2,-0.2 v -4.8 c 0,-0.2 -0.2,0 0,0 h 9.6 c 0.2,0 0,-0.2 0,0 v 4.8 c 0,0.11 0.09,0.2 0.2,0.2 h 10 c 0.11,0 0.2,-0.09 0.2,-0.2 v -4.8 c 0,-0.2 -0.2,0 0,0 h 9.6 c 0.2,0 0,-0.2 0,0 v 4.8 c 0,0.11 0.09,0.2 0.2,0.2 h 10 c 0.11,0 0.2,-0.09 0.2,-0.2 v -5 -17.3 c 0,-0.2 -0.2,0 0,0 h 4.8 c 0.11,0 0.2,-0.09 0.2,-0.2 v -10 c 0,-0.11 -0.09,-0.2 -0.2,-0.2 h -4.8 c -0.2,0 0,0.2 0,0 v -9.6 c 0,-0.2 -0.2,0 0,0 h 4.8 c 0.11,0 0.2,-0.09 0.2,-0.2 v -10 c 0,-0.11 -0.09,-0.2 -0.2,-0.2 h -4.8 c -0.2,0 0,0.2 0,0 v -17.3 c 0,-0.11 -0.09,-0.2 -0.2,-0.2 -0.071,0 -0.137,0.038 -0.173,0.1 l -21.401,37.068 c -0.1,0.173 0.173,0.1 0,0 l -4.157,-2.4 c -0.173,-0.1 -0.1,0.173 0,0 L 277.637,612.3 c 0.193,-0.334 0.294,-0.714 0.294,-1.1 0,-0.386 -0.101,-0.766 -0.294,-1.1 -0.193,-0.334 -0.471,-0.612 -0.806,-0.805 -0.334,-0.193 -0.713,-0.295 -1.1,-0.295 h -21.729 c -0.386,0 -0.765,0.102 -1.1,0.295 -0.334,0.193 -0.612,0.471 -0.805,0.805 l -20.824,36.068 c -0.1,0.173 0.173,0.1 0,0 l -4.157,-2.4 c -0.173,-0.1 -0.1,0.173 0,0 L 245.284,612.3 c 0.193,-0.334 0.295,-0.714 0.295,-1.1 0,-0.386 -0.102,-0.766 -0.295,-1.1 -0.193,-0.334 -0.471,-0.612 -0.805,-0.805 -0.335,-0.193 -0.714,-0.295 -1.1,-0.295 H 221.65 c -0.387,0 -0.766,0.102 -1.1,0.295 -0.335,0.193 -0.613,0.471 -0.806,0.805 l -20.823,36.068 c -0.1,0.173 0.173,0.1 0,0 l -4.157,-2.4 c -0.174,-0.1 -0.1,0.173 0,0 L 212.932,612.3 c 0.193,-0.334 0.294,-0.714 0.294,-1.1 0,-0.386 -0.101,-0.766 -0.294,-1.1 -0.193,-0.334 -0.471,-0.612 -0.806,-0.805 -0.334,-0.193 -0.713,-0.295 -1.1,-0.295 h -21.729 c -0.386,0 -0.765,0.102 -1.1,0.295 -0.334,0.193 -0.612,0.471 -0.805,0.805 l -20.824,36.068 c -0.1,0.173 0.173,0.1 0,0 l -4.157,-2.4 c -0.173,-0.1 -0.1,0.173 0,0 L 180.579,612.3 c 0.193,-0.334 0.295,-0.714 0.295,-1.1 0,-0.386 -0.102,-0.766 -0.295,-1.1 -0.193,-0.334 -0.471,-0.612 -0.805,-0.805 -0.335,-0.193 -0.714,-0.295 -1.1,-0.295 h -21.729 c -0.387,0 -0.766,0.102 -1.1,0.295 -0.335,0.193 -0.613,0.471 -0.806,0.805 l -20.823,36.068 c -0.1,0.173 0.173,0.1 0,0 l -4.157,-2.4 c -0.174,-0.1 -0.1,0.173 0,0 L 148.227,612.3 c 0.193,-0.334 0.294,-0.714 0.294,-1.1 0,-0.386 -0.101,-0.766 -0.294,-1.1 -0.194,-0.334 -0.471,-0.612 -0.806,-0.805 -0.334,-0.193 -0.714,-0.295 -1.1,-0.295 h -21.729 c -0.386,0 -0.766,0.102 -1.1,0.295 -0.334,0.193 -0.612,0.471 -0.805,0.805 l -20.824,36.068 c -0.1,0.173 0.173,0.1 0,0 l -4.157,-2.4 c -0.173,-0.1 -0.1,0.173 0,0 L 115.874,612.3 c 0.193,-0.334 0.295,-0.714 0.295,-1.1 0,-0.386 -0.102,-0.766 -0.295,-1.1 -0.193,-0.334 -0.471,-0.612 -0.805,-0.805 -0.335,-0.193 -0.714,-0.295 -1.1,-0.295 h -21.73 c -0.386,0 -0.765,0.102 -1.1,0.295 -0.334,0.193 -0.612,0.471 -0.805,0.805 L 69.51,646.168 c -0.1,0.173 0.174,0.1 0,0 l -4.156,-2.4 c -0.174,-0.1 -0.1,0.173 0,0 L 83.521,612.3 c 0.194,-0.334 0.295,-0.714 0.295,-1.1 0,-0.386 -0.101,-0.766 -0.295,-1.1 -0.193,-0.334 -0.47,-0.612 -0.805,-0.805 C 82.382,609.102 82.002,609 81.616,609 H 59.887 c -0.386,0 -0.766,0.102 -1.1,0.295 -0.335,0.193 -0.612,0.471 -0.805,0.805 l -20.824,36.068 c -0.1,0.173 0.173,0.1 0,0 l -4.157,-2.4 c -0.173,-0.1 -0.1,0.173 0,0 L 51.169,612.3 c 0.193,-0.334 0.295,-0.714 0.295,-1.1 0,-0.386 -0.102,-0.766 -0.295,-1.1 -0.193,-0.334 -0.471,-0.612 -0.805,-0.805 C 50.029,609.102 49.65,609 49.264,609 H 15.2 c -0.11,0 -0.2,0.09 -0.2,0.2 v 17.3 c 0,0.2 0.2,0 0,0 h -4.8 c -0.11,0 -0.2,0.09 -0.2,0.2 v 10 c 0,0.11 0.09,0.2 0.2,0.2 H 15 c 0.2,0 0,-0.2 0,0 v 9.6 c 0,0.2 0.2,0 0,0 h -4.8 c -0.11,0 -0.2,0.09 -0.2,0.2 v 10 c 0,0.11 0.09,0.2 0.2,0.2 H 15 c 0.2,0 0,-0.2 0,0 v 17.3 5 c 0,0.11 0.09,0.2 0.2,0.2 z"
         stroke="#000000"
         stroke-width="0.4"
         id="path4" /><text
         dominant-baseline="hanging"
         font-size="4px"
         style="font-style:normal;font-weight:normal;font-family:sans-serif;fill:#ff0000"
         text-anchor="middle"
         transform="translate(150.2,642.4)"
         id="text4">Sidepiece 1</text></g><g
       id="p-4"
       style="fill:none;stroke-linecap:round;stroke-linejoin:round"
       transform="rotate(90,459.76848,458.06848)"><path
         d="m 15.2,606.5 h 10 c 0.11,0 0.2,-0.09 0.2,-0.2 v -4.8 c 0,-0.2 -0.2,0 0,0 H 35 c 0.2,0 0,-0.2 0,0 v 4.8 c 0,0.11 0.09,0.2 0.2,0.2 h 10 c 0.11,0 0.2,-0.09 0.2,-0.2 v -4.8 c 0,-0.2 -0.2,0 0,0 H 55 c 0.2,0 0,-0.2 0,0 v 4.8 c 0,0.11 0.09,0.2 0.2,0.2 h 10 c 0.11,0 0.2,-0.09 0.2,-0.2 v -4.8 c 0,-0.2 -0.2,0 0,0 H 75 c 0.2,0 0,-0.2 0,0 v 4.8 c 0,0.11 0.09,0.2 0.2,0.2 h 10 c 0.11,0 0.2,-0.09 0.2,-0.2 v -4.8 c 0,-0.2 -0.2,0 0,0 H 95 c 0.2,0 0,-0.2 0,0 v 4.8 c 0,0.11 0.09,0.2 0.2,0.2 h 10 c 0.11,0 0.2,-0.09 0.2,-0.2 v -4.8 c 0,-0.2 -0.2,0 0,0 h 9.6 c 0.2,0 0,-0.2 0,0 v 4.8 c 0,0.11 0.09,0.2 0.2,0.2 h 10 c 0.11,0 0.2,-0.09 0.2,-0.2 v -4.8 c 0,-0.2 -0.2,0 0,0 h 9.6 c 0.2,0 0,-0.2 0,0 v 4.8 c 0,0.11 0.09,0.2 0.2,0.2 h 10 c 0.11,0 0.2,-0.09 0.2,-0.2 v -4.8 c 0,-0.2 -0.2,0 0,0 h 9.6 c 0.2,0 0,-0.2 0,0 v 4.8 c 0,0.11 0.09,0.2 0.2,0.2 h 10 c 0.11,0 0.2,-0.09 0.2,-0.2 v -4.8 c 0,-0.2 -0.2,0 0,0 h 9.6 c 0.2,0 0,-0.2 0,0 v 4.8 c 0,0.11 0.09,0.2 0.2,0.2 h 10 c 0.11,0 0.2,-0.09 0.2,-0.2 v -4.8 c 0,-0.2 -0.2,0 0,0 h 9.6 c 0.2,0 0,-0.2 0,0 v 4.8 c 0,0.11 0.09,0.2 0.2,0.2 h 10 c 0.11,0 0.2,-0.09 0.2,-0.2 v -4.8 c 0,-0.2 -0.2,0 0,0 h 9.6 c 0.2,0 0,-0.2 0,0 v 4.8 c 0,0.11 0.09,0.2 0.2,0.2 h 10 c 0.11,0 0.2,-0.09 0.2,-0.2 v -4.8 c 0,-0.2 -0.2,0 0,0 h 9.6 c 0.2,0 0,-0.2 0,0 v 4.8 c 0,0.11 0.09,0.2 0.2,0.2 h 10 c 0.11,0 0.2,-0.09 0.2,-0.2 v -4.8 c 0,-0.2 -0.2,0 0,0 h 9.6 c 0.2,0 0,-0.2 0,0 v 4.8 c 0,0.11 0.09,0.2 0.2,0.2 h 10 c 0.11,0 0.2,-0.09 0.2,-0.2 v -4.8 c 0,-0.2 -0.2,0 0,0 h 9.6 c 0.2,0 0,-0.2 0,0 v 4.8 c 0,0.11 0.09,0.2 0.2,0.2 h 10 c 0.11,0 0.2,-0.09 0.2,-0.2 v -5 -17.3 c 0,-0.2 -0.2,0 0,0 h 4.8 c 0.11,0 0.2,-0.09 0.2,-0.2 v -10 c 0,-0.11 -0.09,-0.2 -0.2,-0.2 h -4.8 c -0.2,0 0,0.2 0,0 V 564 c 0,-0.2 -0.2,0 0,0 h 4.8 c 0.11,0 0.2,-0.09 0.2,-0.2 v -10 c 0,-0.11 -0.09,-0.2 -0.2,-0.2 h -4.8 c -0.2,0 0,0.2 0,0 v -17.3 c 0,-0.11 -0.09,-0.2 -0.2,-0.2 -0.071,0 -0.137,0.038 -0.173,0.1 l -21.401,37.068 c -0.1,0.173 0.173,0.1 0,0 l -4.157,-2.4 c -0.173,-0.1 -0.1,0.173 0,0 L 277.637,539.4 c 0.193,-0.334 0.294,-0.714 0.294,-1.1 0,-0.386 -0.101,-0.766 -0.294,-1.1 -0.193,-0.334 -0.471,-0.612 -0.806,-0.805 -0.334,-0.193 -0.713,-0.295 -1.1,-0.295 h -21.729 c -0.386,0 -0.765,0.102 -1.1,0.295 -0.334,0.193 -0.612,0.471 -0.805,0.805 l -20.824,36.068 c -0.1,0.173 0.173,0.1 0,0 l -4.157,-2.4 c -0.173,-0.1 -0.1,0.173 0,0 L 245.284,539.4 c 0.193,-0.334 0.295,-0.714 0.295,-1.1 0,-0.386 -0.102,-0.766 -0.295,-1.1 -0.193,-0.334 -0.471,-0.612 -0.805,-0.805 -0.335,-0.193 -0.714,-0.295 -1.1,-0.295 H 221.65 c -0.387,0 -0.766,0.102 -1.1,0.295 -0.335,0.193 -0.613,0.471 -0.806,0.805 l -20.823,36.068 c -0.1,0.173 0.173,0.1 0,0 l -4.157,-2.4 c -0.174,-0.1 -0.1,0.173 0,0 L 212.932,539.4 c 0.193,-0.334 0.294,-0.714 0.294,-1.1 0,-0.386 -0.101,-0.766 -0.294,-1.1 -0.193,-0.334 -0.471,-0.612 -0.806,-0.805 -0.334,-0.193 -0.713,-0.295 -1.1,-0.295 h -21.729 c -0.386,0 -0.765,0.102 -1.1,0.295 -0.334,0.193 -0.612,0.471 -0.805,0.805 l -20.824,36.068 c -0.1,0.173 0.173,0.1 0,0 l -4.157,-2.4 c -0.173,-0.1 -0.1,0.173 0,0 L 180.579,539.4 c 0.193,-0.334 0.295,-0.714 0.295,-1.1 0,-0.386 -0.102,-0.766 -0.295,-1.1 -0.193,-0.334 -0.471,-0.612 -0.805,-0.805 -0.335,-0.193 -0.714,-0.295 -1.1,-0.295 h -21.729 c -0.387,0 -0.766,0.102 -1.1,0.295 -0.335,0.193 -0.613,0.471 -0.806,0.805 l -20.823,36.068 c -0.1,0.173 0.173,0.1 0,0 l -4.157,-2.4 c -0.174,-0.1 -0.1,0.173 0,0 L 148.227,539.4 c 0.193,-0.334 0.294,-0.714 0.294,-1.1 0,-0.386 -0.101,-0.766 -0.294,-1.1 -0.194,-0.334 -0.471,-0.612 -0.806,-0.805 -0.334,-0.193 -0.714,-0.295 -1.1,-0.295 h -21.729 c -0.386,0 -0.766,0.102 -1.1,0.295 -0.334,0.193 -0.612,0.471 -0.805,0.805 l -20.824,36.068 c -0.1,0.173 0.173,0.1 0,0 l -4.157,-2.4 c -0.173,-0.1 -0.1,0.173 0,0 L 115.874,539.4 c 0.193,-0.334 0.295,-0.714 0.295,-1.1 0,-0.386 -0.102,-0.766 -0.295,-1.1 -0.193,-0.334 -0.471,-0.612 -0.805,-0.805 -0.335,-0.193 -0.714,-0.295 -1.1,-0.295 h -21.73 c -0.386,0 -0.765,0.102 -1.1,0.295 -0.334,0.193 -0.612,0.471 -0.805,0.805 L 69.51,573.268 c -0.1,0.173 0.174,0.1 0,0 l -4.156,-2.4 c -0.174,-0.1 -0.1,0.173 0,0 L 83.521,539.4 c 0.194,-0.334 0.295,-0.714 0.295,-1.1 0,-0.386 -0.101,-0.766 -0.295,-1.1 -0.193,-0.334 -0.47,-0.612 -0.805,-0.805 -0.334,-0.193 -0.714,-0.295 -1.1,-0.295 H 59.887 c -0.386,0 -0.766,0.102 -1.1,0.295 -0.335,0.193 -0.612,0.471 -0.805,0.805 l -20.824,36.068 c -0.1,0.173 0.173,0.1 0,0 l -4.157,-2.4 c -0.173,-0.1 -0.1,0.173 0,0 L 51.169,539.4 c 0.193,-0.334 0.295,-0.714 0.295,-1.1 0,-0.386 -0.102,-0.766 -0.295,-1.1 -0.193,-0.334 -0.471,-0.612 -0.805,-0.805 -0.335,-0.193 -0.714,-0.295 -1.1,-0.295 H 15.2 c -0.11,0 -0.2,0.09 -0.2,0.2 v 17.3 c 0,0.2 0.2,0 0,0 h -4.8 c -0.11,0 -0.2,0.09 -0.2,0.2 v 10 c 0,0.11 0.09,0.2 0.2,0.2 H 15 c 0.2,0 0,-0.2 0,0 v 9.6 c 0,0.2 0.2,0 0,0 h -4.8 c -0.11,0 -0.2,0.09 -0.2,0.2 v 10 c 0,0.11 0.09,0.2 0.2,0.2 H 15 c 0.2,0 0,-0.2 0,0 v 17.3 5 c 0,0.11 0.09,0.2 0.2,0.2 z"
         stroke="#000000"
         stroke-width="0.4"
         id="path5" /><text
         dominant-baseline="hanging"
         font-size="4px"
         style="font-style:normal;font-weight:normal;font-family:sans-serif;fill:#ff0000"
         text-anchor="middle"
         transform="translate(150.2,569.5)"
         id="text5">Sidepiece 2</text></g><g
       id="p-5"
       style="fill:none;stroke-linecap:round;stroke-linejoin:round"
       transform="translate(2.4410049,-244.9)"><path
         d="m 15.2,528.6 h 18.3 c 0.2,0 0,-0.2 0,0 v 4.8 c 0,0.11 0.09,0.2 0.2,0.2 h 10 c 0.11,0 0.2,-0.09 0.2,-0.2 v -4.8 c 0,-0.2 -0.2,0 0,0 h 9.6 c 0.2,0 0,-0.2 0,0 v 4.8 c 0,0.11 0.09,0.2 0.2,0.2 h 10 c 0.11,0 0.2,-0.09 0.2,-0.2 v -4.8 c 0,-0.2 -0.2,0 0,0 h 18.3 c 0.11,0 0.2,-0.09 0.2,-0.2 v -9.8 c 0,-0.2 -0.2,0 0,0 h 4.8 c 0.11,0 0.2,-0.09 0.2,-0.2 v -10 c 0,-0.11 -0.09,-0.2 -0.2,-0.2 h -4.8 c -0.2,0 0,0.2 0,0 v -9.6 c 0,-0.2 -0.2,0 0,0 h 4.8 c 0.11,0 0.2,-0.09 0.2,-0.2 v -10 c 0,-0.11 -0.09,-0.2 -0.2,-0.2 h -4.8 c -0.2,0 0,0.2 0,0 v -9.6 c 0,-0.2 -0.2,0 0,0 h 4.8 c 0.11,0 0.2,-0.09 0.2,-0.2 v -10 c 0,-0.11 -0.09,-0.2 -0.2,-0.2 h -4.8 c -0.2,0 0,0.2 0,0 v -9.6 c 0,-0.2 -0.2,0 0,0 h 4.8 c 0.11,0 0.2,-0.09 0.2,-0.2 v -10 c 0,-0.11 -0.09,-0.2 -0.2,-0.2 h -4.8 c -0.2,0 0,0.2 0,0 v -9.6 c 0,-0.2 -0.2,0 0,0 h 4.8 c 0.11,0 0.2,-0.09 0.2,-0.2 v -10 c 0,-0.11 -0.09,-0.2 -0.2,-0.2 h -4.8 c -0.2,0 0,0.2 0,0 v -9.6 c 0,-0.2 -0.2,0 0,0 h 4.8 c 0.11,0 0.2,-0.09 0.2,-0.2 v -10 c 0,-0.11 -0.09,-0.2 -0.2,-0.2 h -4.8 c -0.2,0 0,0.2 0,0 v -9.6 c 0,-0.2 -0.2,0 0,0 h 4.8 c 0.11,0 0.2,-0.09 0.2,-0.2 v -10 c 0,-0.11 -0.09,-0.2 -0.2,-0.2 h -4.8 c -0.2,0 0,0.2 0,0 v -9.6 c 0,-0.2 -0.2,0 0,0 h 4.8 c 0.11,0 0.2,-0.09 0.2,-0.2 v -10 c 0,-0.11 -0.09,-0.2 -0.2,-0.2 h -4.8 c -0.2,0 0,0.2 0,0 v -9.6 c 0,-0.2 -0.2,0 0,0 h 4.8 c 0.11,0 0.2,-0.09 0.2,-0.2 v -10 c 0,-0.11 -0.09,-0.2 -0.2,-0.2 h -4.8 c -0.2,0 0,0.2 0,0 v -9.6 c 0,-0.2 -0.2,0 0,0 h 4.8 c 0.11,0 0.2,-0.09 0.2,-0.2 v -10 c 0,-0.11 -0.09,-0.2 -0.2,-0.2 h -4.8 c -0.2,0 0,0.2 0,0 v -9.6 c 0,-0.2 -0.2,0 0,0 h 4.8 c 0.11,0 0.2,-0.09 0.2,-0.2 v -10 c 0,-0.11 -0.09,-0.2 -0.2,-0.2 h -4.8 c -0.2,0 0,0.2 0,0 v -9.6 c 0,-0.2 -0.2,0 0,0 h 4.8 c 0.11,0 0.2,-0.09 0.2,-0.2 v -10 c 0,-0.11 -0.09,-0.2 -0.2,-0.2 h -4.8 c -0.2,0 0,0.2 0,0 v -9.6 c 0,-0.2 -0.2,0 0,0 h 4.8 c 0.11,0 0.2,-0.09 0.2,-0.2 v -10 c 0,-0.11 -0.09,-0.2 -0.2,-0.2 h -4.8 c -0.2,0 0,0.2 0,0 v -9.8 c 0,-0.11 -0.09,-0.2 -0.2,-0.2 H 63.9 c -0.2,0 0,0.2 0,0 v -4.8 c 0,-0.11 -0.09,-0.2 -0.2,-0.2 h -10 c -0.11,0 -0.2,0.09 -0.2,0.2 v 4.8 c 0,0.2 0.2,0 0,0 h -9.6 c -0.2,0 0,0.2 0,0 v -4.8 c 0,-0.11 -0.09,-0.2 -0.2,-0.2 h -10 c -0.11,0 -0.2,0.09 -0.2,0.2 v 4.8 c 0,0.2 0.2,0 0,0 H 15.2 c -0.11,0 -0.2,0.09 -0.2,0.2 v 9.8 c 0,0.2 0.2,0 0,0 h -4.8 c -0.11,0 -0.2,0.09 -0.2,0.2 v 10 c 0,0.11 0.09,0.2 0.2,0.2 H 15 c 0.2,0 0,-0.2 0,0 v 9.6 c 0,0.2 0.2,0 0,0 h -4.8 c -0.11,0 -0.2,0.09 -0.2,0.2 v 10 c 0,0.11 0.09,0.2 0.2,0.2 H 15 c 0.2,0 0,-0.2 0,0 v 9.6 c 0,0.2 0.2,0 0,0 h -4.8 c -0.11,0 -0.2,0.09 -0.2,0.2 v 10 c 0,0.11 0.09,0.2 0.2,0.2 H 15 c 0.2,0 0,-0.2 0,0 v 9.6 c 0,0.2 0.2,0 0,0 h -4.8 c -0.11,0 -0.2,0.09 -0.2,0.2 v 10 c 0,0.11 0.09,0.2 0.2,0.2 H 15 c 0.2,0 0,-0.2 0,0 v 9.6 c 0,0.2 0.2,0 0,0 h -4.8 c -0.11,0 -0.2,0.09 -0.2,0.2 v 10 c 0,0.11 0.09,0.2 0.2,0.2 H 15 c 0.2,0 0,-0.2 0,0 v 9.6 c 0,0.2 0.2,0 0,0 h -4.8 c -0.11,0 -0.2,0.09 -0.2,0.2 v 10 c 0,0.11 0.09,0.2 0.2,0.2 H 15 c 0.2,0 0,-0.2 0,0 v 9.6 c 0,0.2 0.2,0 0,0 h -4.8 c -0.11,0 -0.2,0.09 -0.2,0.2 v 10 c 0,0.11 0.09,0.2 0.2,0.2 H 15 c 0.2,0 0,-0.2 0,0 v 9.6 c 0,0.2 0.2,0 0,0 h -4.8 c -0.11,0 -0.2,0.09 -0.2,0.2 v 10 c 0,0.11 0.09,0.2 0.2,0.2 H 15 c 0.2,0 0,-0.2 0,0 v 9.6 c 0,0.2 0.2,0 0,0 h -4.8 c -0.11,0 -0.2,0.09 -0.2,0.2 v 10 c 0,0.11 0.09,0.2 0.2,0.2 H 15 c 0.2,0 0,-0.2 0,0 v 9.6 c 0,0.2 0.2,0 0,0 h -4.8 c -0.11,0 -0.2,0.09 -0.2,0.2 v 10 c 0,0.11 0.09,0.2 0.2,0.2 H 15 c 0.2,0 0,-0.2 0,0 v 9.6 c 0,0.2 0.2,0 0,0 h -4.8 c -0.11,0 -0.2,0.09 -0.2,0.2 v 10 c 0,0.11 0.09,0.2 0.2,0.2 H 15 c 0.2,0 0,-0.2 0,0 v 9.6 c 0,0.2 0.2,0 0,0 h -4.8 c -0.11,0 -0.2,0.09 -0.2,0.2 v 10 c 0,0.11 0.09,0.2 0.2,0.2 H 15 c 0.2,0 0,-0.2 0,0 v 9.6 c 0,0.2 0.2,0 0,0 h -4.8 c -0.11,0 -0.2,0.09 -0.2,0.2 v 10 c 0,0.11 0.09,0.2 0.2,0.2 H 15 c 0.2,0 0,-0.2 0,0 v 9.8 c 0,0.11 0.09,0.2 0.2,0.2 z"
         stroke="#000000"
         stroke-width="0.4"
         id="path6" /><text
         dominant-baseline="hanging"
         font-size="4px"
         style="font-style:normal;font-weight:normal;font-family:sans-serif;fill:#ff0000"
         text-anchor="middle"
         transform="translate(48.7,391.6)"
         id="text6">lid top</text></g><g
       id="p-6"
       style="fill:none;stroke-linecap:round;stroke-linejoin:round"
       transform="translate(440.38724,-38.724848)"><path
         d="m 15.2,250.7 h 67 5 c 0.11,0 0.2,-0.09 0.2,-0.2 V 243 c 0,-0.11 -0.09,-0.2 -0.2,-0.2 h -4.8 c -0.2,0 0,0.2 0,0 v -9.6 c 0,-0.2 -0.2,0 0,0 h 4.8 c 0.11,0 0.2,-0.09 0.2,-0.2 v -7.5 c 0,-0.11 -0.09,-0.2 -0.2,-0.2 h -5 -18.5 c -0.11,0 -0.2,0.09 -0.2,0.2 v 4.8 c 0,0.2 0.2,0 0,0 h -9.6 c -0.2,0 0,0.2 0,0 v -4.8 c 0,-0.11 -0.09,-0.2 -0.2,-0.2 h -10 c -0.11,0 -0.2,0.09 -0.2,0.2 v 4.8 c 0,0.2 0.2,0 0,0 h -9.6 c -0.2,0 0,0.2 0,0 v -4.8 c 0,-0.11 -0.09,-0.2 -0.2,-0.2 h -18.5 -5 c -0.11,0 -0.2,0.09 -0.2,0.2 v 7.5 c 0,0.11 0.09,0.2 0.2,0.2 H 15 c 0.2,0 0,-0.2 0,0 v 9.6 c 0,0.2 0.2,0 0,0 h -4.8 c -0.11,0 -0.2,0.09 -0.2,0.2 v 7.5 c 0,0.11 0.09,0.2 0.2,0.2 z"
         stroke="#000000"
         stroke-width="0.4"
         id="path7" /><text
         dominant-baseline="hanging"
         font-size="4px"
         style="font-style:normal;font-weight:normal;font-family:sans-serif;fill:#ff0000"
         text-anchor="middle"
         transform="translate(48.7,236.2)"
         id="text7">lid front</text></g><g
       id="p-7"
       style="fill:none;stroke-linecap:round;stroke-linejoin:round"
       transform="translate(528.22891,-10.824848)"><path
         d="m 15.2,222.8 h 67 5 c 0.11,0 0.2,-0.09 0.2,-0.2 v -7.5 c 0,-0.11 -0.09,-0.2 -0.2,-0.2 h -4.8 c -0.2,0 0,0.2 0,0 v -9.6 c 0,-0.2 -0.2,0 0,0 h 4.8 c 0.11,0 0.2,-0.09 0.2,-0.2 v -7.5 c 0,-0.11 -0.09,-0.2 -0.2,-0.2 h -5 -18.5 c -0.11,0 -0.2,0.09 -0.2,0.2 v 4.8 c 0,0.2 0.2,0 0,0 h -9.6 c -0.2,0 0,0.2 0,0 v -4.8 c 0,-0.11 -0.09,-0.2 -0.2,-0.2 h -10 c -0.11,0 -0.2,0.09 -0.2,0.2 v 4.8 c 0,0.2 0.2,0 0,0 h -9.6 c -0.2,0 0,0.2 0,0 v -4.8 c 0,-0.11 -0.09,-0.2 -0.2,-0.2 h -18.5 -5 c -0.11,0 -0.2,0.09 -0.2,0.2 v 7.5 c 0,0.11 0.09,0.2 0.2,0.2 H 15 c 0.2,0 0,-0.2 0,0 v 9.6 c 0,0.2 0.2,0 0,0 h -4.8 c -0.11,0 -0.2,0.09 -0.2,0.2 v 7.5 c 0,0.11 0.09,0.2 0.2,0.2 z"
         stroke="#000000"
         stroke-width="0.4"
         id="path8" /><text
         dominant-baseline="hanging"
         font-size="4px"
         style="font-style:normal;font-weight:normal;font-family:sans-serif;fill:#ff0000"
         text-anchor="middle"
         transform="translate(48.7,208.3)"
         id="text8">lid back</text></g><g
       id="p-8"
       style="fill:none;stroke-linecap:round;stroke-linejoin:round"
       transform="rotate(90,293.76275,292.06274)"><path
         d="m 15.2,194.9 h 270 c 0.11,0 0.2,-0.09 0.2,-0.2 v -7.3 c 0,-0.2 -0.2,0 0,0 h 4.8 c 0.11,0 0.2,-0.09 0.2,-0.2 v -10 c 0,-0.11 -0.09,-0.2 -0.2,-0.2 h -4.8 c -0.2,0 0,0.2 0,0 v -7.3 c 0,-0.11 -0.09,-0.2 -0.2,-0.2 h -10 c -0.11,0 -0.2,0.09 -0.2,0.2 v 4.8 c 0,0.2 0.2,0 0,0 h -9.6 c -0.2,0 0,0.2 0,0 v -4.8 c 0,-0.11 -0.09,-0.2 -0.2,-0.2 h -10 c -0.11,0 -0.2,0.09 -0.2,0.2 v 4.8 c 0,0.2 0.2,0 0,0 h -9.6 c -0.2,0 0,0.2 0,0 v -4.8 c 0,-0.11 -0.09,-0.2 -0.2,-0.2 h -10 c -0.11,0 -0.2,0.09 -0.2,0.2 v 4.8 c 0,0.2 0.2,0 0,0 h -9.6 c -0.2,0 0,0.2 0,0 v -4.8 c 0,-0.11 -0.09,-0.2 -0.2,-0.2 h -10 c -0.11,0 -0.2,0.09 -0.2,0.2 v 4.8 c 0,0.2 0.2,0 0,0 h -9.6 c -0.2,0 0,0.2 0,0 v -4.8 c 0,-0.11 -0.09,-0.2 -0.2,-0.2 h -10 c -0.11,0 -0.2,0.09 -0.2,0.2 v 4.8 c 0,0.2 0.2,0 0,0 h -9.6 c -0.2,0 0,0.2 0,0 v -4.8 c 0,-0.11 -0.09,-0.2 -0.2,-0.2 h -10 c -0.11,0 -0.2,0.09 -0.2,0.2 v 4.8 c 0,0.2 0.2,0 0,0 h -9.6 c -0.2,0 0,0.2 0,0 v -4.8 c 0,-0.11 -0.09,-0.2 -0.2,-0.2 h -10 c -0.11,0 -0.2,0.09 -0.2,0.2 v 4.8 c 0,0.2 0.2,0 0,0 h -9.6 c -0.2,0 0,0.2 0,0 v -4.8 c 0,-0.11 -0.09,-0.2 -0.2,-0.2 h -10 c -0.11,0 -0.2,0.09 -0.2,0.2 v 4.8 c 0,0.2 0.2,0 0,0 h -9.6 c -0.2,0 0,0.2 0,0 v -4.8 c 0,-0.11 -0.09,-0.2 -0.2,-0.2 h -10 c -0.11,0 -0.2,0.09 -0.2,0.2 v 4.8 c 0,0.2 0.2,0 0,0 h -9.6 c -0.2,0 0,0.2 0,0 v -4.8 c 0,-0.11 -0.09,-0.2 -0.2,-0.2 h -10 c -0.11,0 -0.2,0.09 -0.2,0.2 v 4.8 c 0,0.2 0.2,0 0,0 h -9.6 c -0.2,0 0,0.2 0,0 v -4.8 c 0,-0.11 -0.09,-0.2 -0.2,-0.2 h -10 c -0.11,0 -0.2,0.09 -0.2,0.2 v 4.8 c 0,0.2 0.2,0 0,0 h -9.6 c -0.2,0 0,0.2 0,0 v -4.8 c 0,-0.11 -0.09,-0.2 -0.2,-0.2 h -10 c -0.11,0 -0.2,0.09 -0.2,0.2 v 4.8 c 0,0.2 0.2,0 0,0 h -9.6 c -0.2,0 0,0.2 0,0 v -4.8 c 0,-0.11 -0.09,-0.2 -0.2,-0.2 h -10 c -0.11,0 -0.2,0.09 -0.2,0.2 v 4.8 c 0,0.2 0.2,0 0,0 h -9.6 c -0.2,0 0,0.2 0,0 v -4.8 c 0,-0.11 -0.09,-0.2 -0.2,-0.2 h -10 c -0.11,0 -0.2,0.09 -0.2,0.2 v 7.3 c 0,0.2 0.2,0 0,0 h -4.8 c -0.11,0 -0.2,0.09 -0.2,0.2 v 10 c 0,0.11 0.09,0.2 0.2,0.2 H 15 c 0.2,0 0,-0.2 0,0 v 7.3 c 0,0.11 0.09,0.2 0.2,0.2 z"
         stroke="#000000"
         stroke-width="0.4"
         id="path9" /><text
         dominant-baseline="hanging"
         font-size="4px"
         style="font-style:normal;font-weight:normal;font-family:sans-serif;fill:#ff0000"
         text-anchor="middle"
         transform="translate(150.2,180.4)"
         id="text9">lid left</text></g><g
       id="p-9"
       style="fill:none;stroke-linecap:round;stroke-linejoin:round"
       transform="rotate(90,173.44049,171.74049)"><path
         d="m 15.2,167 h 270 c 0.11,0 0.2,-0.09 0.2,-0.2 v -7.3 c 0,-0.2 -0.2,0 0,0 h 4.8 c 0.11,0 0.2,-0.09 0.2,-0.2 v -10 c 0,-0.11 -0.09,-0.2 -0.2,-0.2 h -4.8 c -0.2,0 0,0.2 0,0 v -7.3 c 0,-0.11 -0.09,-0.2 -0.2,-0.2 h -10 c -0.11,0 -0.2,0.09 -0.2,0.2 v 4.8 c 0,0.2 0.2,0 0,0 h -9.6 c -0.2,0 0,0.2 0,0 v -4.8 c 0,-0.11 -0.09,-0.2 -0.2,-0.2 h -10 c -0.11,0 -0.2,0.09 -0.2,0.2 v 4.8 c 0,0.2 0.2,0 0,0 h -9.6 c -0.2,0 0,0.2 0,0 v -4.8 c 0,-0.11 -0.09,-0.2 -0.2,-0.2 h -10 c -0.11,0 -0.2,0.09 -0.2,0.2 v 4.8 c 0,0.2 0.2,0 0,0 h -9.6 c -0.2,0 0,0.2 0,0 v -4.8 c 0,-0.11 -0.09,-0.2 -0.2,-0.2 h -10 c -0.11,0 -0.2,0.09 -0.2,0.2 v 4.8 c 0,0.2 0.2,0 0,0 h -9.6 c -0.2,0 0,0.2 0,0 v -4.8 c 0,-0.11 -0.09,-0.2 -0.2,-0.2 h -10 c -0.11,0 -0.2,0.09 -0.2,0.2 v 4.8 c 0,0.2 0.2,0 0,0 h -9.6 c -0.2,0 0,0.2 0,0 v -4.8 c 0,-0.11 -0.09,-0.2 -0.2,-0.2 h -10 c -0.11,0 -0.2,0.09 -0.2,0.2 v 4.8 c 0,0.2 0.2,0 0,0 h -9.6 c -0.2,0 0,0.2 0,0 v -4.8 c 0,-0.11 -0.09,-0.2 -0.2,-0.2 h -10 c -0.11,0 -0.2,0.09 -0.2,0.2 v 4.8 c 0,0.2 0.2,0 0,0 h -9.6 c -0.2,0 0,0.2 0,0 v -4.8 c 0,-0.11 -0.09,-0.2 -0.2,-0.2 h -10 c -0.11,0 -0.2,0.09 -0.2,0.2 v 4.8 c 0,0.2 0.2,0 0,0 h -9.6 c -0.2,0 0,0.2 0,0 v -4.8 c 0,-0.11 -0.09,-0.2 -0.2,-0.2 h -10 c -0.11,0 -0.2,0.09 -0.2,0.2 v 4.8 c 0,0.2 0.2,0 0,0 h -9.6 c -0.2,0 0,0.2 0,0 v -4.8 c 0,-0.11 -0.09,-0.2 -0.2,-0.2 h -10 c -0.11,0 -0.2,0.09 -0.2,0.2 v 4.8 c 0,0.2 0.2,0 0,0 h -9.6 c -0.2,0 0,0.2 0,0 v -4.8 c 0,-0.11 -0.09,-0.2 -0.2,-0.2 h -10 c -0.11,0 -0.2,0.09 -0.2,0.2 v 4.8 c 0,0.2 0.2,0 0,0 h -9.6 c -0.2,0 0,0.2 0,0 v -4.8 c 0,-0.11 -0.09,-0.2 -0.2,-0.2 h -10 c -0.11,0 -0.2,0.09 -0.2,0.2 v 4.8 c 0,0.2 0.2,0 0,0 h -9.6 c -0.2,0 0,0.2 0,0 v -4.8 c 0,-0.11 -0.09,-0.2 -0.2,-0.2 h -10 c -0.11,0 -0.2,0.09 -0.2,0.2 v 4.8 c 0,0.2 0.2,0 0,0 h -9.6 c -0.2,0 0,0.2 0,0 v -4.8 c 0,-0.11 -0.09,-0.2 -0.2,-0.2 h -10 c -0.11,0 -0.2,0.09 -0.2,0.2 v 7.3 c 0,0.2 0.2,0 0,0 h -4.8 c -0.11,0 -0.2,0.09 -0.2,0.2 v 10 c 0,0.11 0.09,0.2 0.2,0.2 H 15 c 0.2,0 0,-0.2 0,0 v 7.3 c 0,0.11 0.09,0.2 0.2,0.2 z"
         stroke="#000000"
         stroke-width="0.4"
         id="path10" /><text
         dominant-baseline="hanging"
         font-size="4px"
         style="font-style:normal;font-weight:normal;font-family:sans-serif;fill:#ff0000"
         text-anchor="middle"
         transform="translate(150.2,152.5)"
         id="text10">lid right</text></g><g
       id="p-10"
       style="fill:none;stroke-linecap:round;stroke-linejoin:round"
       transform="translate(610.74464,147.1265)"><path
         d="m 15.2,139.1 h 10 c 0.913,0 1.81,-0.24 2.6,-0.697 0.79,-0.456 1.447,-1.113 1.903,-1.903 0.457,-0.79 0.697,-1.687 0.697,-2.6 v -25 c 0,-0.11 -0.09,-0.2 -0.2,-0.2 h -20 c -0.11,0 -0.2,0.09 -0.2,0.2 v 25 c 0,0.913 0.24,1.81 0.697,2.6 0.456,0.79 1.113,1.447 1.903,1.903 0.79,0.457 1.687,0.697 2.6,0.697 z"
         stroke="#000000"
         stroke-width="0.4"
         id="path11" /><text
         dominant-baseline="hanging"
         font-size="4px"
         style="font-style:normal;font-weight:normal;font-family:sans-serif;fill:#ff0000"
         text-anchor="middle"
         transform="translate(20.2,124.9)"
         id="text11">brim</text><text
         dominant-baseline="hanging"
         font-size="4px"
         style="font-style:normal;font-weight:normal;font-family:sans-serif;fill:#ff0000"
         text-anchor="middle"
         transform="translate(20.2,119.3)"
         id="text12">lid</text></g><g
       id="p-11"
       style="fill:none;stroke-linecap:round;stroke-linejoin:round"
       transform="translate(610.74464,147.1265)"><path
         d="m 15.2,106.2 h 10 c 0.913,0 1.81,-0.24 2.6,-0.697 0.79,-0.456 1.447,-1.113 1.903,-1.903 0.457,-0.79 0.697,-1.687 0.697,-2.6 V 76 c 0,-0.11 -0.09,-0.2 -0.2,-0.2 h -20 C 10.09,75.8 10,75.89 10,76 v 25 c 0,0.913 0.24,1.81 0.697,2.6 0.456,0.79 1.113,1.447 1.903,1.903 0.79,0.457 1.687,0.697 2.6,0.697 z"
         stroke="#000000"
         stroke-width="0.4"
         id="path12" /><text
         dominant-baseline="hanging"
         font-size="4px"
         style="font-style:normal;font-weight:normal;font-family:sans-serif;fill:#ff0000"
         text-anchor="middle"
         transform="translate(20.2,92)"
         id="text13">brim</text><text
         dominant-baseline="hanging"
         font-size="4px"
         style="font-style:normal;font-weight:normal;font-family:sans-serif;fill:#ff0000"
         text-anchor="middle"
         transform="translate(20.2,86.4)"
         id="text14">lid</text></g><g
       id="p-12"
       style="fill:none;stroke-linecap:round;stroke-linejoin:round"
       transform="translate(610.74464,147.1265)"><path
         d="m 15.2,73.3 h 10 c 0.913,0 1.81,-0.24 2.6,-0.697 0.79,-0.456 1.447,-1.113 1.903,-1.903 0.457,-0.79 0.697,-1.687 0.697,-2.6 v -25 c 0,-0.11 -0.09,-0.2 -0.2,-0.2 h -20 c -0.11,0 -0.2,0.09 -0.2,0.2 v 25 c 0,0.913 0.24,1.81 0.697,2.6 0.456,0.79 1.113,1.447 1.903,1.903 0.79,0.457 1.687,0.697 2.6,0.697 z"
         stroke="#000000"
         stroke-width="0.4"
         id="path14" /><text
         dominant-baseline="hanging"
         font-size="4px"
         style="font-style:normal;font-weight:normal;font-family:sans-serif;fill:#ff0000"
         text-anchor="middle"
         transform="translate(20.2,59.1)"
         id="text15">brim</text><text
         dominant-baseline="hanging"
         font-size="4px"
         style="font-style:normal;font-weight:normal;font-family:sans-serif;fill:#ff0000"
         text-anchor="middle"
         transform="translate(20.2,53.5)"
         id="text16">lid</text></g><g
       id="p-13"
       style="fill:none;stroke-linecap:round;stroke-linejoin:round"
       transform="translate(610.74464,147.1265)"><path
         d="m 15.2,40.4 h 10 c 0.913,0 1.81,-0.24 2.6,-0.697 0.79,-0.456 1.447,-1.113 1.903,-1.903 0.457,-0.79 0.697,-1.687 0.697,-2.6 v -25 C 30.4,10.09 30.31,10 30.2,10 h -20 C 10.09,10 10,10.09 10,10.2 v 25 c 0,0.913 0.24,1.81 0.697,2.6 0.456,0.79 1.113,1.447 1.903,1.903 0.79,0.457 1.687,0.697 2.6,0.697 z"
         stroke="#000000"
         stroke-width="0.4"
         id="path16" /><text
         dominant-baseline="hanging"
         font-size="4px"
         style="font-style:normal;font-weight:normal;font-family:sans-serif;fill:#ff0000"
         text-anchor="middle"
         transform="translate(20.2,26.2)"
         id="text17">brim</text><text
         dominant-baseline="hanging"
         font-size="4px"
         style="font-style:normal;font-weight:normal;font-family:sans-serif;fill:#ff0000"
         text-anchor="middle"
         transform="translate(20.2,20.6)"
         id="text18">lid</text></g><g
       id="p-14"
       style="fill:none;stroke-linecap:round;stroke-linejoin:round"
       transform="translate(-197.03111,-536.5)"><path
         d="m 298.1,820.2 h 18.3 c 0.2,0 0,-0.2 0,0 v 4.8 c 0,0.11 0.09,0.2 0.2,0.2 h 10 c 0.11,0 0.2,-0.09 0.2,-0.2 v -4.8 c 0,-0.2 -0.2,0 0,0 h 9.6 c 0.2,0 0,-0.2 0,0 v 4.8 c 0,0.11 0.09,0.2 0.2,0.2 h 10 c 0.11,0 0.2,-0.09 0.2,-0.2 v -4.8 c 0,-0.2 -0.2,0 0,0 h 18.3 c 0.11,0 0.2,-0.09 0.2,-0.2 v -9.8 c 0,-0.2 -0.2,0 0,0 h 4.8 c 0.11,0 0.2,-0.09 0.2,-0.2 v -10 c 0,-0.11 -0.09,-0.2 -0.2,-0.2 h -4.8 c -0.2,0 0,0.2 0,0 v -9.6 c 0,-0.2 -0.2,0 0,0 h 4.8 c 0.11,0 0.2,-0.09 0.2,-0.2 v -10 c 0,-0.11 -0.09,-0.2 -0.2,-0.2 h -4.8 c -0.2,0 0,0.2 0,0 v -9.6 c 0,-0.2 -0.2,0 0,0 h 4.8 c 0.11,0 0.2,-0.09 0.2,-0.2 v -10 c 0,-0.11 -0.09,-0.2 -0.2,-0.2 h -4.8 c -0.2,0 0,0.2 0,0 v -9.6 c 0,-0.2 -0.2,0 0,0 h 4.8 c 0.11,0 0.2,-0.09 0.2,-0.2 v -10 c 0,-0.11 -0.09,-0.2 -0.2,-0.2 h -4.8 c -0.2,0 0,0.2 0,0 v -9.6 c 0,-0.2 -0.2,0 0,0 h 4.8 c 0.11,0 0.2,-0.09 0.2,-0.2 v -10 c 0,-0.11 -0.09,-0.2 -0.2,-0.2 h -4.8 c -0.2,0 0,0.2 0,0 v -9.6 c 0,-0.2 -0.2,0 0,0 h 4.8 c 0.11,0 0.2,-0.09 0.2,-0.2 v -10 c 0,-0.11 -0.09,-0.2 -0.2,-0.2 h -4.8 c -0.2,0 0,0.2 0,0 v -9.6 c 0,-0.2 -0.2,0 0,0 h 4.8 c 0.11,0 0.2,-0.09 0.2,-0.2 v -10 c 0,-0.11 -0.09,-0.2 -0.2,-0.2 h -4.8 c -0.2,0 0,0.2 0,0 v -9.6 c 0,-0.2 -0.2,0 0,0 h 4.8 c 0.11,0 0.2,-0.09 0.2,-0.2 v -10 c 0,-0.11 -0.09,-0.2 -0.2,-0.2 h -4.8 c -0.2,0 0,0.2 0,0 v -9.6 c 0,-0.2 -0.2,0 0,0 h 4.8 c 0.11,0 0.2,-0.09 0.2,-0.2 v -10 c 0,-0.11 -0.09,-0.2 -0.2,-0.2 h -4.8 c -0.2,0 0,0.2 0,0 v -9.6 c 0,-0.2 -0.2,0 0,0 h 4.8 c 0.11,0 0.2,-0.09 0.2,-0.2 v -10 c 0,-0.11 -0.09,-0.2 -0.2,-0.2 h -4.8 c -0.2,0 0,0.2 0,0 v -9.6 c 0,-0.2 -0.2,0 0,0 h 4.8 c 0.11,0 0.2,-0.09 0.2,-0.2 v -10 c 0,-0.11 -0.09,-0.2 -0.2,-0.2 h -4.8 c -0.2,0 0,0.2 0,0 v -9.6 c 0,-0.2 -0.2,0 0,0 h 4.8 c 0.11,0 0.2,-0.09 0.2,-0.2 v -10 c 0,-0.11 -0.09,-0.2 -0.2,-0.2 h -4.8 c -0.2,0 0,0.2 0,0 v -9.6 c 0,-0.2 -0.2,0 0,0 h 4.8 c 0.11,0 0.2,-0.09 0.2,-0.2 v -10 c 0,-0.11 -0.09,-0.2 -0.2,-0.2 h -4.8 c -0.2,0 0,0.2 0,0 V 550 c 0,-0.11 -0.09,-0.2 -0.2,-0.2 h -18.3 c -0.2,0 0,0.2 0,0 V 545 c 0,-0.11 -0.09,-0.2 -0.2,-0.2 h -10 c -0.11,0 -0.2,0.09 -0.2,0.2 v 4.8 c 0,0.2 0.2,0 0,0 h -9.6 c -0.2,0 0,0.2 0,0 V 545 c 0,-0.11 -0.09,-0.2 -0.2,-0.2 h -10 c -0.11,0 -0.2,0.09 -0.2,0.2 v 4.8 c 0,0.2 0.2,0 0,0 h -18.3 c -0.11,0 -0.2,0.09 -0.2,0.2 v 9.8 c 0,0.2 0.2,0 0,0 h -4.8 c -0.11,0 -0.2,0.09 -0.2,0.2 v 10 c 0,0.11 0.09,0.2 0.2,0.2 h 4.8 c 0.2,0 0,-0.2 0,0 v 9.6 c 0,0.2 0.2,0 0,0 h -4.8 c -0.11,0 -0.2,0.09 -0.2,0.2 v 10 c 0,0.11 0.09,0.2 0.2,0.2 h 4.8 c 0.2,0 0,-0.2 0,0 v 9.6 c 0,0.2 0.2,0 0,0 h -4.8 c -0.11,0 -0.2,0.09 -0.2,0.2 v 10 c 0,0.11 0.09,0.2 0.2,0.2 h 4.8 c 0.2,0 0,-0.2 0,0 v 9.6 c 0,0.2 0.2,0 0,0 h -4.8 c -0.11,0 -0.2,0.09 -0.2,0.2 v 10 c 0,0.11 0.09,0.2 0.2,0.2 h 4.8 c 0.2,0 0,-0.2 0,0 v 9.6 c 0,0.2 0.2,0 0,0 h -4.8 c -0.11,0 -0.2,0.09 -0.2,0.2 v 10 c 0,0.11 0.09,0.2 0.2,0.2 h 4.8 c 0.2,0 0,-0.2 0,0 v 9.6 c 0,0.2 0.2,0 0,0 h -4.8 c -0.11,0 -0.2,0.09 -0.2,0.2 v 10 c 0,0.11 0.09,0.2 0.2,0.2 h 4.8 c 0.2,0 0,-0.2 0,0 v 9.6 c 0,0.2 0.2,0 0,0 h -4.8 c -0.11,0 -0.2,0.09 -0.2,0.2 v 10 c 0,0.11 0.09,0.2 0.2,0.2 h 4.8 c 0.2,0 0,-0.2 0,0 v 9.6 c 0,0.2 0.2,0 0,0 h -4.8 c -0.11,0 -0.2,0.09 -0.2,0.2 v 10 c 0,0.11 0.09,0.2 0.2,0.2 h 4.8 c 0.2,0 0,-0.2 0,0 v 9.6 c 0,0.2 0.2,0 0,0 h -4.8 c -0.11,0 -0.2,0.09 -0.2,0.2 v 10 c 0,0.11 0.09,0.2 0.2,0.2 h 4.8 c 0.2,0 0,-0.2 0,0 v 9.6 c 0,0.2 0.2,0 0,0 h -4.8 c -0.11,0 -0.2,0.09 -0.2,0.2 v 10 c 0,0.11 0.09,0.2 0.2,0.2 h 4.8 c 0.2,0 0,-0.2 0,0 v 9.6 c 0,0.2 0.2,0 0,0 h -4.8 c -0.11,0 -0.2,0.09 -0.2,0.2 v 10 c 0,0.11 0.09,0.2 0.2,0.2 h 4.8 c 0.2,0 0,-0.2 0,0 v 9.6 c 0,0.2 0.2,0 0,0 h -4.8 c -0.11,0 -0.2,0.09 -0.2,0.2 v 10 c 0,0.11 0.09,0.2 0.2,0.2 h 4.8 c 0.2,0 0,-0.2 0,0 v 9.6 c 0,0.2 0.2,0 0,0 h -4.8 c -0.11,0 -0.2,0.09 -0.2,0.2 v 10 c 0,0.11 0.09,0.2 0.2,0.2 h 4.8 c 0.2,0 0,-0.2 0,0 v 9.8 c 0,0.11 0.09,0.2 0.2,0.2 z"
         stroke="#000000"
         stroke-width="0.4"
         id="path18" /><text
         dominant-baseline="hanging"
         font-size="4px"
         style="font-style:normal;font-weight:normal;font-family:sans-serif;fill:#ff0000"
         text-anchor="middle"
         transform="translate(331.6,683.2)"
         id="text19">Bottom</text></g><g
       id="p-15"
       style="fill:none;stroke-linecap:round;stroke-linejoin:round"
       transform="translate(157.53724,-359.21794)"><path
         d="m 293.1,542.3 h 4.95 16.333 c 0.211,0 0.418,-0.055 0.6,-0.161 0.183,-0.105 0.334,-0.257 0.44,-0.439 0.105,-0.182 0.16,-0.389 0.16,-0.6 v -16 c 0,-1.369 0.361,-2.714 1.045,-3.9 0.685,-1.186 1.67,-2.17 2.855,-2.855 1.186,-0.685 2.531,-1.045 3.9,-1.045 h 16.334 c 1.369,0 2.714,0.36 3.9,1.045 1.185,0.685 2.17,1.669 2.855,2.855 0.684,1.186 1.045,2.531 1.045,3.9 v 16 c 0,0.211 0.055,0.418 0.16,0.6 0.106,0.182 0.257,0.334 0.44,0.439 0.182,0.106 0.389,0.161 0.6,0.161 H 365.05 370 c 0.11,0 0.2,-0.09 0.2,-0.2 v -40 c 0,-0.11 -0.09,-0.2 -0.2,-0.2 h -4.8 c -0.2,0 0,0.2 0,0 v -31.969 c 0,-0.11 -0.09,-0.2 -0.2,-0.2 h -66.9 c -0.11,0 -0.2,0.09 -0.2,0.2 V 501.9 c 0,0.2 0.2,0 0,0 h -4.8 c -0.11,0 -0.2,0.09 -0.2,0.2 v 40 c 0,0.11 0.09,0.2 0.2,0.2 z"
         stroke="#000000"
         stroke-width="0.4"
         id="path19" /><text
         dominant-baseline="hanging"
         font-size="4px"
         style="font-style:normal;font-weight:normal;font-family:sans-serif;fill:#ff0000"
         text-anchor="middle"
         transform="translate(331.6,504.216)"
         id="text20">Divider</text></g><g
       id="g23"
       transform="translate(-1.9210549,-71.437493)"><text
         dominant-baseline="hanging"
         font-size="4px"
         style="font-style:normal;font-weight:normal;font-family:sans-serif;fill:#ff0000;stroke-linecap:round;stroke-linejoin:round"
         text-anchor="middle"
         id="text21"
         x="578.90002"
         y="134.685">Long Divider</text><path
         id="path15"
         style="font-variation-settings:normal;opacity:1;vector-effect:none;fill:none;fill-opacity:1;stroke:#000000;stroke-width:0.4;stroke-linecap:round;stroke-linejoin:round;stroke-miterlimit:4;stroke-dasharray:none;stroke-dashoffset:0;stroke-opacity:1;-inkscape-stroke:none;stop-color:#000000;stop-opacity:1"
         d="m 545.39978,81.637439 c -0.11,0 -0.19998,0.08999 -0.19998,0.199988 v 23.000173 8.96901 h -4.79971 c -0.11,0 -0.19999,0.09 -0.19999,0.19999 v 39.99985 c 0,0.11 0.09,0.19999 0.19999,0.19999 h 4.8643 l 0.0858,23.00025 h 16.33286 c 0.211,0 0.41796,-0.0552 0.59996,-0.16123 0.183,-0.105 0.33377,-0.25674 0.43977,-0.43874 0.105,-0.182 0.16019,-0.38896 0.16019,-0.59996 v -16.00012 c 0,-1.369 0.3609,-2.71404 1.0449,-3.90004 0.685,-1.18601 1.67013,-2.17014 2.85513,-2.85514 1.186,-0.685 2.53102,-1.04491 3.90002,-1.04491 h 16.33388 c 1.369,0 2.71402,0.35991 3.90002,1.04491 1.185,0.685 2.17013,1.66913 2.85513,2.85514 0.684,1.186 1.04489,2.53104 1.04489,3.90004 v 16.00012 c 0,0.211 0.0552,0.41796 0.1602,0.59996 0.106,0.182 0.25677,0.33374 0.43977,0.43874 0.182,0.106 0.38896,0.16123 0.59996,0.16123 h 16.33337 l 0.0853,-23.00025 h 4.8643 c 0.11,0 0.19999,-0.09 0.19999,-0.19999 V 114.0066 c 0,-0.11 -0.09,-0.19999 -0.19999,-0.19999 h -4.79971 V 104.8376 81.837427 c 0,-0.11 -0.09,-0.199988 -0.19999,-0.199988 z" /></g><g
       id="g22"
       style="fill:none;stroke-linecap:round;stroke-linejoin:round"
       transform="translate(245.37891,-359.21794)"><path
         d="m 293.1,542.3 h 4.95 16.333 c 0.211,0 0.418,-0.055 0.6,-0.161 0.183,-0.105 0.334,-0.257 0.44,-0.439 0.105,-0.182 0.16,-0.389 0.16,-0.6 v -16 c 0,-1.369 0.361,-2.714 1.045,-3.9 0.685,-1.186 1.67,-2.17 2.855,-2.855 1.186,-0.685 2.531,-1.045 3.9,-1.045 h 16.334 c 1.369,0 2.714,0.36 3.9,1.045 1.185,0.685 2.17,1.669 2.855,2.855 0.684,1.186 1.045,2.531 1.045,3.9 v 16 c 0,0.211 0.055,0.418 0.16,0.6 0.106,0.182 0.257,0.334 0.44,0.439 0.182,0.106 0.389,0.161 0.6,0.161 H 365.05 370 c 0.11,0 0.2,-0.09 0.2,-0.2 v -40 c 0,-0.11 -0.09,-0.2 -0.2,-0.2 h -4.8 c -0.2,0 0,0.2 0,0 v -31.969 c 0,-0.11 -0.09,-0.2 -0.2,-0.2 h -66.9 c -0.11,0 -0.2,0.09 -0.2,0.2 V 501.9 c 0,0.2 0.2,0 0,0 h -4.8 c -0.11,0 -0.2,0.09 -0.2,0.2 v 40 c 0,0.11 0.09,0.2 0.2,0.2 z"
         stroke="#000000"
         stroke-width="0.4"
         id="path20" /><text
         dominant-baseline="hanging"
         font-size="4px"
         style="font-style:normal;font-weight:normal;font-family:sans-serif;fill:#ff0000"
         text-anchor="middle"
         transform="translate(331.6,504.216)"
         id="text22">Divider</text></g><g
       id="g24"
       transform="translate(-89.762725,-71.437493)"><text
         dominant-baseline="hanging"
         font-size="4px"
         style="font-style:normal;font-weight:normal;font-family:sans-serif;fill:#ff0000;stroke-linecap:round;stroke-linejoin:round"
         text-anchor="middle"
         id="text23"
         x="578.90002"
         y="134.685">Long Divider</text><path
         id="path23"
         style="font-variation-settings:normal;opacity:1;vector-effect:none;fill:none;fill-opacity:1;stroke:#000000;stroke-width:0.4;stroke-linecap:round;stroke-linejoin:round;stroke-miterlimit:4;stroke-dasharray:none;stroke-dashoffset:0;stroke-opacity:1;-inkscape-stroke:none;stop-color:#000000;stop-opacity:1"
         d="m 545.39978,81.637439 c -0.11,0 -0.19998,0.08999 -0.19998,0.199988 v 23.000173 8.96901 h -4.79971 c -0.11,0 -0.19999,0.09 -0.19999,0.19999 v 39.99985 c 0,0.11 0.09,0.19999 0.19999,0.19999 h 4.8643 l 0.0858,23.00025 h 16.33286 c 0.211,0 0.41796,-0.0552 0.59996,-0.16123 0.183,-0.105 0.33377,-0.25674 0.43977,-0.43874 0.105,-0.182 0.16019,-0.38896 0.16019,-0.59996 v -16.00012 c 0,-1.369 0.3609,-2.71404 1.0449,-3.90004 0.685,-1.18601 1.67013,-2.17014 2.85513,-2.85514 1.186,-0.685 2.53102,-1.04491 3.90002,-1.04491 h 16.33388 c 1.369,0 2.71402,0.35991 3.90002,1.04491 1.185,0.685 2.17013,1.66913 2.85513,2.85514 0.684,1.186 1.04489,2.53104 1.04489,3.90004 v 16.00012 c 0,0.211 0.0552,0.41796 0.1602,0.59996 0.106,0.182 0.25677,0.33374 0.43977,0.43874 0.182,0.106 0.38896,0.16123 0.59996,0.16123 h 16.33337 l 0.0853,-23.00025 h 4.8643 c 0.11,0 0.19999,-0.09 0.19999,-0.19999 V 114.0066 c 0,-0.11 -0.09,-0.19999 -0.19999,-0.19999 h -4.79971 V 104.8376 81.837427 c 0,-0.11 -0.09,-0.199988 -0.19999,-0.199988 z" /></g><g
       id="g25"
       transform="translate(224.99992,-76.89132)"><text
         dominant-baseline="hanging"
         font-size="4px"
         style="font-style:normal;font-weight:normal;font-family:sans-serif;fill:#ff0000;stroke-linecap:round;stroke-linejoin:round"
         text-anchor="middle"
         id="text24"
         x="578.90002"
         y="134.685">Long Divider</text><path
         id="path24"
         style="font-variation-settings:normal;opacity:1;vector-effect:none;fill:none;fill-opacity:1;stroke:#000000;stroke-width:0.4;stroke-linecap:round;stroke-linejoin:round;stroke-miterlimit:4;stroke-dasharray:none;stroke-dashoffset:0;stroke-opacity:1;-inkscape-stroke:none;stop-color:#000000;stop-opacity:1"
         d="m 545.39978,81.637439 c -0.11,0 -0.19998,0.08999 -0.19998,0.199988 v 23.000173 8.96901 h -4.79971 c -0.11,0 -0.19999,0.09 -0.19999,0.19999 v 39.99985 c 0,0.11 0.09,0.19999 0.19999,0.19999 h 4.8643 l 0.0858,23.00025 h 16.33286 c 0.211,0 0.41796,-0.0552 0.59996,-0.16123 0.183,-0.105 0.33377,-0.25674 0.43977,-0.43874 0.105,-0.182 0.16019,-0.38896 0.16019,-0.59996 v -16.00012 c 0,-1.369 0.3609,-2.71404 1.0449,-3.90004 0.685,-1.18601 1.67013,-2.17014 2.85513,-2.85514 1.186,-0.685 2.53102,-1.04491 3.90002,-1.04491 h 16.33388 c 1.369,0 2.71402,0.35991 3.90002,1.04491 1.185,0.685 2.17013,1.66913 2.85513,2.85514 0.684,1.186 1.04489,2.53104 1.04489,3.90004 v 16.00012 c 0,0.211 0.0552,0.41796 0.1602,0.59996 0.106,0.182 0.25677,0.33374 0.43977,0.43874 0.182,0.106 0.38896,0.16123 0.59996,0.16123 h 16.33337 l 0.0853,-23.00025 h 4.8643 c 0.11,0 0.19999,-0.09 0.19999,-0.19999 V 114.0066 c 0,-0.11 -0.09,-0.19999 -0.19999,-0.19999 h -4.79971 V 104.8376 81.837427 c 0,-0.11 -0.09,-0.199988 -0.19999,-0.199988 z" /></g><g
       id="g26"
       transform="translate(147.30019,-76.89132)"><text
         dominant-baseline="hanging"
         font-size="4px"
         style="font-style:normal;font-weight:normal;font-family:sans-serif;fill:#ff0000;stroke-linecap:round;stroke-linejoin:round"
         text-anchor="middle"
         id="text25"
         x="578.90002"
         y="134.685">Long Divider</text><path
         id="path25"
         style="font-variation-settings:normal;opacity:1;vector-effect:none;fill:none;fill-opacity:1;stroke:#000000;stroke-width:0.4;stroke-linecap:round;stroke-linejoin:round;stroke-miterlimit:4;stroke-dasharray:none;stroke-dashoffset:0;stroke-opacity:1;-inkscape-stroke:none;stop-color:#000000;stop-opacity:1"
         d="m 545.39978,81.637439 c -0.11,0 -0.19998,0.08999 -0.19998,0.199988 v 23.000173 8.96901 h -4.79971 c -0.11,0 -0.19999,0.09 -0.19999,0.19999 v 39.99985 c 0,0.11 0.09,0.19999 0.19999,0.19999 h 4.8643 l 0.0858,23.00025 h 16.33286 c 0.211,0 0.41796,-0.0552 0.59996,-0.16123 0.183,-0.105 0.33377,-0.25674 0.43977,-0.43874 0.105,-0.182 0.16019,-0.38896 0.16019,-0.59996 v -16.00012 c 0,-1.369 0.3609,-2.71404 1.0449,-3.90004 0.685,-1.18601 1.67013,-2.17014 2.85513,-2.85514 1.186,-0.685 2.53102,-1.04491 3.90002,-1.04491 h 16.33388 c 1.369,0 2.71402,0.35991 3.90002,1.04491 1.185,0.685 2.17013,1.66913 2.85513,2.85514 0.684,1.186 1.04489,2.53104 1.04489,3.90004 v 16.00012 c 0,0.211 0.0552,0.41796 0.1602,0.59996 0.106,0.182 0.25677,0.33374 0.43977,0.43874 0.182,0.106 0.38896,0.16123 0.59996,0.16123 h 16.33337 l 0.0853,-23.00025 h 4.8643 c 0.11,0 0.19999,-0.09 0.19999,-0.19999 V 114.0066 c 0,-0.11 -0.09,-0.19999 -0.19999,-0.19999 h -4.79971 V 104.8376 81.837427 c 0,-0.11 -0.09,-0.199988 -0.19999,-0.199988 z" /></g><g
       id="g27"
       transform="translate(224.99992,19.077931)"><text
         dominant-baseline="hanging"
         font-size="4px"
         style="font-style:normal;font-weight:normal;font-family:sans-serif;fill:#ff0000;stroke-linecap:round;stroke-linejoin:round"
         text-anchor="middle"
         id="text26"
         x="578.90002"
         y="134.685">Long Divider</text><path
         id="path26"
         style="font-variation-settings:normal;opacity:1;vector-effect:none;fill:none;fill-opacity:1;stroke:#000000;stroke-width:0.4;stroke-linecap:round;stroke-linejoin:round;stroke-miterlimit:4;stroke-dasharray:none;stroke-dashoffset:0;stroke-opacity:1;-inkscape-stroke:none;stop-color:#000000;stop-opacity:1"
         d="m 545.39978,81.637439 c -0.11,0 -0.19998,0.08999 -0.19998,0.199988 v 23.000173 8.96901 h -4.79971 c -0.11,0 -0.19999,0.09 -0.19999,0.19999 v 39.99985 c 0,0.11 0.09,0.19999 0.19999,0.19999 h 4.8643 l 0.0858,23.00025 h 16.33286 c 0.211,0 0.41796,-0.0552 0.59996,-0.16123 0.183,-0.105 0.33377,-0.25674 0.43977,-0.43874 0.105,-0.182 0.16019,-0.38896 0.16019,-0.59996 v -16.00012 c 0,-1.369 0.3609,-2.71404 1.0449,-3.90004 0.685,-1.18601 1.67013,-2.17014 2.85513,-2.85514 1.186,-0.685 2.53102,-1.04491 3.90002,-1.04491 h 16.33388 c 1.369,0 2.71402,0.35991 3.90002,1.04491 1.185,0.685 2.17013,1.66913 2.85513,2.85514 0.684,1.186 1.04489,2.53104 1.04489,3.90004 v 16.00012 c 0,0.211 0.0552,0.41796 0.1602,0.59996 0.106,0.182 0.25677,0.33374 0.43977,0.43874 0.182,0.106 0.38896,0.16123 0.59996,0.16123 h 16.33337 l 0.0853,-23.00025 h 4.8643 c 0.11,0 0.19999,-0.09 0.19999,-0.19999 V 114.0066 c 0,-0.11 -0.09,-0.19999 -0.19999,-0.19999 h -4.79971 V 104.8376 81.837427 c 0,-0.11 -0.09,-0.199988 -0.19999,-0.199988 z" /></g><g
       id="g28"
       transform="translate(147.30019,19.077931)"><text
         dominant-baseline="hanging"
         font-size="4px"
         style="font-style:normal;font-weight:normal;font-family:sans-serif;fill:#ff0000;stroke-linecap:round;stroke-linejoin:round"
         text-anchor="middle"
         id="text27"
         x="578.90002"
         y="134.685">Long Divider</text><path
         id="path27"
         style="font-variation-settings:normal;opacity:1;vector-effect:none;fill:none;fill-opacity:1;stroke:#000000;stroke-width:0.4;stroke-linecap:round;stroke-linejoin:round;stroke-miterlimit:4;stroke-dasharray:none;stroke-dashoffset:0;stroke-opacity:1;-inkscape-stroke:none;stop-color:#000000;stop-opacity:1"
         d="m 545.39978,81.637439 c -0.11,0 -0.19998,0.08999 -0.19998,0.199988 v 23.000173 8.96901 h -4.79971 c -0.11,0 -0.19999,0.09 -0.19999,0.19999 v 39.99985 c 0,0.11 0.09,0.19999 0.19999,0.19999 h 4.8643 l 0.0858,23.00025 h 16.33286 c 0.211,0 0.41796,-0.0552 0.59996,-0.16123 0.183,-0.105 0.33377,-0.25674 0.43977,-0.43874 0.105,-0.182 0.16019,-0.38896 0.16019,-0.59996 v -16.00012 c 0,-1.369 0.3609,-2.71404 1.0449,-3.90004 0.685,-1.18601 1.67013,-2.17014 2.85513,-2.85514 1.186,-0.685 2.53102,-1.04491 3.90002,-1.04491 h 16.33388 c 1.369,0 2.71402,0.35991 3.90002,1.04491 1.185,0.685 2.17013,1.66913 2.85513,2.85514 0.684,1.186 1.04489,2.53104 1.04489,3.90004 v 16.00012 c 0,0.211 0.0552,0.41796 0.1602,0.59996 0.106,0.182 0.25677,0.33374 0.43977,0.43874 0.182,0.106 0.38896,0.16123 0.59996,0.16123 h 16.33337 l 0.0853,-23.00025 h 4.8643 c 0.11,0 0.19999,-0.09 0.19999,-0.19999 V 114.0066 c 0,-0.11 -0.09,-0.19999 -0.19999,-0.19999 h -4.79971 V 104.8376 81.837427 c 0,-0.11 -0.09,-0.199988 -0.19999,-0.199988 z" /></g><g
       id="g29"
       transform="translate(224.99992,115.04718)"><text
         dominant-baseline="hanging"
         font-size="4px"
         style="font-style:normal;font-weight:normal;font-family:sans-serif;fill:#ff0000;stroke-linecap:round;stroke-linejoin:round"
         text-anchor="middle"
         id="text28"
         x="578.90002"
         y="134.685">Long Divider</text><path
         id="path28"
         style="font-variation-settings:normal;opacity:1;vector-effect:none;fill:none;fill-opacity:1;stroke:#000000;stroke-width:0.4;stroke-linecap:round;stroke-linejoin:round;stroke-miterlimit:4;stroke-dasharray:none;stroke-dashoffset:0;stroke-opacity:1;-inkscape-stroke:none;stop-color:#000000;stop-opacity:1"
         d="m 545.39978,81.637439 c -0.11,0 -0.19998,0.08999 -0.19998,0.199988 v 23.000173 8.96901 h -4.79971 c -0.11,0 -0.19999,0.09 -0.19999,0.19999 v 39.99985 c 0,0.11 0.09,0.19999 0.19999,0.19999 h 4.8643 l 0.0858,23.00025 h 16.33286 c 0.211,0 0.41796,-0.0552 0.59996,-0.16123 0.183,-0.105 0.33377,-0.25674 0.43977,-0.43874 0.105,-0.182 0.16019,-0.38896 0.16019,-0.59996 v -16.00012 c 0,-1.369 0.3609,-2.71404 1.0449,-3.90004 0.685,-1.18601 1.67013,-2.17014 2.85513,-2.85514 1.186,-0.685 2.53102,-1.04491 3.90002,-1.04491 h 16.33388 c 1.369,0 2.71402,0.35991 3.90002,1.04491 1.185,0.685 2.17013,1.66913 2.85513,2.85514 0.684,1.186 1.04489,2.53104 1.04489,3.90004 v 16.00012 c 0,0.211 0.0552,0.41796 0.1602,0.59996 0.106,0.182 0.25677,0.33374 0.43977,0.43874 0.182,0.106 0.38896,0.16123 0.59996,0.16123 h 16.33337 l 0.0853,-23.00025 h 4.8643 c 0.11,0 0.19999,-0.09 0.19999,-0.19999 V 114.0066 c 0,-0.11 -0.09,-0.19999 -0.19999,-0.19999 h -4.79971 V 104.8376 81.837427 c 0,-0.11 -0.09,-0.199988 -0.19999,-0.199988 z" /></g><g
       id="g30"
       transform="translate(147.30019,115.04718)"><text
         dominant-baseline="hanging"
         font-size="4px"
         style="font-style:normal;font-weight:normal;font-family:sans-serif;fill:#ff0000;stroke-linecap:round;stroke-linejoin:round"
         text-anchor="middle"
         id="text29"
         x="578.90002"
         y="134.685">Long Divider</text><path
         id="path29"
         style="font-variation-settings:normal;opacity:1;vector-effect:none;fill:none;fill-opacity:1;stroke:#000000;stroke-width:0.4;stroke-linecap:round;stroke-linejoin:round;stroke-miterlimit:4;stroke-dasharray:none;stroke-dashoffset:0;stroke-opacity:1;-inkscape-stroke:none;stop-color:#000000;stop-opacity:1"
         d="m 545.39978,81.637439 c -0.11,0 -0.19998,0.08999 -0.19998,0.199988 v 23.000173 8.96901 h -4.79971 c -0.11,0 -0.19999,0.09 -0.19999,0.19999 v 39.99985 c 0,0.11 0.09,0.19999 0.19999,0.19999 h 4.8643 l 0.0858,23.00025 h 16.33286 c 0.211,0 0.41796,-0.0552 0.59996,-0.16123 0.183,-0.105 0.33377,-0.25674 0.43977,-0.43874 0.105,-0.182 0.16019,-0.38896 0.16019,-0.59996 v -16.00012 c 0,-1.369 0.3609,-2.71404 1.0449,-3.90004 0.685,-1.18601 1.67013,-2.17014 2.85513,-2.85514 1.186,-0.685 2.53102,-1.04491 3.90002,-1.04491 h 16.33388 c 1.369,0 2.71402,0.35991 3.90002,1.04491 1.185,0.685 2.17013,1.66913 2.85513,2.85514 0.684,1.186 1.04489,2.53104 1.04489,3.90004 v 16.00012 c 0,0.211 0.0552,0.41796 0.1602,0.59996 0.106,0.182 0.25677,0.33374 0.43977,0.43874 0.182,0.106 0.38896,0.16123 0.59996,0.16123 h 16.33337 l 0.0853,-23.00025 h 4.8643 c 0.11,0 0.19999,-0.09 0.19999,-0.19999 V 114.0066 c 0,-0.11 -0.09,-0.19999 -0.19999,-0.19999 h -4.79971 V 104.8376 81.837427 c 0,-0.11 -0.09,-0.199988 -0.19999,-0.199988 z" /></g></g></svg>
