<?xml version='1.0' encoding='utf-8'?>
<svg height="928.10mm" viewBox="0.0 0.0 380.30 928.10" width="380.30mm" xmlns="http://www.w3.org/2000/svg" xmlns:cc="http://creativecommons.org/ns#" xmlns:dc="http://purl.org/dc/elements/1.1/" xmlns:inkscape="http://www.inkscape.org/namespaces/inkscape" xmlns:rdf="http://www.w3.org/1999/02/22-rdf-syntax-ns#" xmlns:svg="http://www.w3.org/2000/svg" xmlns:xlink="http://www.w3.org/1999/xlink">
<!--
DividerTray - Divider tray - rows and dividers



Adding '0:' at the start of the sy parameter adds a slot at the very back. Adding ':0' at the end of sy adds a slot meeting the bottom at the very front. This is especially useful if slot angle is set above zero.

There are 4 different sets of dividers rendered:

* With asymmetric tabs so the tabs fit on top of each other
* With tabs of half wall thickness that can go side by side
* With tabs of a full wall thickness
* One single divider spanning across all columns

You will likely need to cut each of the dividers you want multiple times.



Created with Boxes.py (https://boxes.hackerspace-bamberg.de/)
Creation date: 2026-03-12 20:47:35
Command line (remove spaces between dashes): boxes DividerTray - -Lid_style=ontop - -Slot_angle=30 - -Slot_depth=40 - -Notch_depth=25 - -sx=77 '- -sy=0:40*7:0' - -h=90 - -notches_in_wall=0 - -bottom=0 - -bottom=1 - -thickness=5 - -burn=0.2 - -reference=285 - -spacing=0.5
Url: https://boxes.hackerspace-bamberg.de/DividerTray?FingerJoint_style=rectangular&FingerJoint_surroundingspaces=2.0&FingerJoint_bottom_lip=0.0&FingerJoint_edge_width=1.0&FingerJoint_extra_length=0.0&FingerJoint_finger=2.0&FingerJoint_play=0.0&FingerJoint_space=2.0&FingerJoint_width=1.0&HandleEdge_height=20&HandleEdge_hole_height=75.0&HandleEdge_hole_width=40%3A40&HandleEdge_on_sides=0&HandleEdge_on_sides=1&HandleEdge_radius=10.0&HandleEdge_outset=1.0&Lid_handle=none&Lid_style=ontop&Lid_handle_height=8.0&Lid_height=4.0&Lid_play=0.1&Slot_angle=30&Slot_depth=40&Slot_extra_slack=0.2&Slot_radius=2&Notch_depth=25&Notch_lower_radius=8&Notch_upper_radius=1&Divider_bottom_margin=0&Divider_play=0.05&sx=77&sy=0%3A40*7%3A0&h=90&outside=0&outside=1&notches_in_wall=0&left_wall=0&left_wall=1&right_wall=0&right_wall=1&bottom=0&bottom=1&handle=0&thickness=5&burn=0.2&format=svg&labels=0&labels=1&reference=285&tabs=0.0&qr_code=0&inner_corners=loop&spacing=0.5&debug=0&language=en&render=2
Url short: https://boxes.hackerspace-bamberg.de/DividerTray?Lid_style=ontop&Slot_angle=30&Slot_depth=40&Notch_depth=25&sx=77&sy=0%3A40*7%3A0&h=90&notches_in_wall=0&bottom=0&bottom=1&thickness=5&burn=0.2&reference=285&spacing=0.5
SettingsUrl: https://boxes.hackerspace-bamberg.de/DividerTray?FingerJoint_style=rectangular&FingerJoint_surroundingspaces=2.0&FingerJoint_bottom_lip=0.0&FingerJoint_edge_width=1.0&FingerJoint_extra_length=0.0&FingerJoint_finger=2.0&FingerJoint_play=0.0&FingerJoint_space=2.0&FingerJoint_width=1.0&HandleEdge_height=20&HandleEdge_hole_height=75.0&HandleEdge_hole_width=40%3A40&HandleEdge_on_sides=0&HandleEdge_on_sides=1&HandleEdge_radius=10.0&HandleEdge_outset=1.0&Lid_handle=none&Lid_style=ontop&Lid_handle_height=8.0&Lid_height=4.0&Lid_play=0.1&Slot_angle=30&Slot_depth=40&Slot_extra_slack=0.2&Slot_radius=2&Notch_depth=25&Notch_lower_radius=8&Notch_upper_radius=1&Divider_bottom_margin=0&Divider_play=0.05&sx=77&sy=0%3A40*7%3A0&h=90&outside=0&outside=1&notches_in_wall=0&left_wall=0&left_wall=1&right_wall=0&right_wall=1&bottom=0&bottom=1&handle=0&thickness=5&burn=0.2&format=svg&labels=0&labels=1&reference=285&tabs=0.0&qr_code=0&inner_corners=loop&spacing=0.5&debug=0&language=en&render=2
SettingsUrl short: https://boxes.hackerspace-bamberg.de/DividerTray?Lid_style=ontop&Slot_angle=30&Slot_depth=40&Notch_depth=25&sx=77&sy=0%3A40*7%3A0&h=90&notches_in_wall=0&bottom=0&bottom=1&thickness=5&burn=0.2&reference=285&spacing=0.5
-->
<title>DividerTray</title>
<metadata>
<rdf:RDF><cc:Work>
<dc:title>Tray - DividerTray</dc:title>
<dc:date>2026-03-12 20:47:35</dc:date>
<dc:source>https://boxes.hackerspace-bamberg.de/DividerTray?FingerJoint_style=rectangular&amp;FingerJoint_surroundingspaces=2.0&amp;FingerJoint_bottom_lip=0.0&amp;FingerJoint_edge_width=1.0&amp;FingerJoint_extra_length=0.0&amp;FingerJoint_finger=2.0&amp;FingerJoint_play=0.0&amp;FingerJoint_space=2.0&amp;FingerJoint_width=1.0&amp;HandleEdge_height=20&amp;HandleEdge_hole_height=75.0&amp;HandleEdge_hole_width=40%3A40&amp;HandleEdge_on_sides=0&amp;HandleEdge_on_sides=1&amp;HandleEdge_radius=10.0&amp;HandleEdge_outset=1.0&amp;Lid_handle=none&amp;Lid_style=ontop&amp;Lid_handle_height=8.0&amp;Lid_height=4.0&amp;Lid_play=0.1&amp;Slot_angle=30&amp;Slot_depth=40&amp;Slot_extra_slack=0.2&amp;Slot_radius=2&amp;Notch_depth=25&amp;Notch_lower_radius=8&amp;Notch_upper_radius=1&amp;Divider_bottom_margin=0&amp;Divider_play=0.05&amp;sx=77&amp;sy=0%3A40*7%3A0&amp;h=90&amp;outside=0&amp;outside=1&amp;notches_in_wall=0&amp;left_wall=0&amp;left_wall=1&amp;right_wall=0&amp;right_wall=1&amp;bottom=0&amp;bottom=1&amp;handle=0&amp;thickness=5&amp;burn=0.2&amp;format=svg&amp;labels=0&amp;labels=1&amp;reference=285&amp;tabs=0.0&amp;qr_code=0&amp;inner_corners=loop&amp;spacing=0.5&amp;debug=0&amp;language=en&amp;render=2</dc:source>
<dc:source>https://boxes.hackerspace-bamberg.de/DividerTray?Lid_style=ontop&amp;Slot_angle=30&amp;Slot_depth=40&amp;Notch_depth=25&amp;sx=77&amp;sy=0%3A40*7%3A0&amp;h=90&amp;notches_in_wall=0&amp;bottom=0&amp;bottom=1&amp;thickness=5&amp;burn=0.2&amp;reference=285&amp;spacing=0.5</dc:source>
<dc:description>Divider tray - rows and dividers


Adding '0:' at the start of the sy parameter adds a slot at the very back. Adding ':0' at the end of sy adds a slot meeting the bottom at the very front. This is especially useful if slot angle is set above zero.

There are 4 different sets of dividers rendered:

* With asymmetric tabs so the tabs fit on top of each other
* With tabs of half wall thickness that can go side by side
* With tabs of a full wall thickness
* One single divider spanning across all columns

You will likely need to cut each of the dividers you want multiple times.


Created with Boxes.py (https://boxes.hackerspace-bamberg.de/)
Command line: boxes DividerTray --FingerJoint_style=rectangular --FingerJoint_surroundingspaces=2.0 --FingerJoint_bottom_lip=0.0 --FingerJoint_edge_width=1.0 --FingerJoint_extra_length=0.0 --FingerJoint_finger=2.0 --FingerJoint_play=0.0 --FingerJoint_space=2.0 --FingerJoint_width=1.0 --HandleEdge_height=20 --HandleEdge_hole_height=75.0 --HandleEdge_hole_width=40:40 --HandleEdge_on_sides=0 --HandleEdge_on_sides=1 --HandleEdge_radius=10.0 --HandleEdge_outset=1.0 --Lid_handle=none --Lid_style=ontop --Lid_handle_height=8.0 --Lid_height=4.0 --Lid_play=0.1 --Slot_angle=30 --Slot_depth=40 --Slot_extra_slack=0.2 --Slot_radius=2 --Notch_depth=25 --Notch_lower_radius=8 --Notch_upper_radius=1 --Divider_bottom_margin=0 --Divider_play=0.05 --sx=77 '--sy=0:40*7:0' --h=90 --outside=0 --outside=1 --notches_in_wall=0 --left_wall=0 --left_wall=1 --right_wall=0 --right_wall=1 --bottom=0 --bottom=1 --handle=0 --thickness=5 --burn=0.2 --format=svg --labels=0 --labels=1 --reference=285 --tabs=0.0 --qr_code=0 --inner_corners=loop --spacing=0.5 --debug=0
Command line short: boxes DividerTray --Lid_style=ontop --Slot_angle=30 --Slot_depth=40 --Notch_depth=25 --sx=77 '--sy=0:40*7:0' --h=90 --notches_in_wall=0 --bottom=0 --bottom=1 --thickness=5 --burn=0.2 --reference=285 --spacing=0.5
Url: https://boxes.hackerspace-bamberg.de/DividerTray?FingerJoint_style=rectangular&amp;FingerJoint_surroundingspaces=2.0&amp;FingerJoint_bottom_lip=0.0&amp;FingerJoint_edge_width=1.0&amp;FingerJoint_extra_length=0.0&amp;FingerJoint_finger=2.0&amp;FingerJoint_play=0.0&amp;FingerJoint_space=2.0&amp;FingerJoint_width=1.0&amp;HandleEdge_height=20&amp;HandleEdge_hole_height=75.0&amp;HandleEdge_hole_width=40%3A40&amp;HandleEdge_on_sides=0&amp;HandleEdge_on_sides=1&amp;HandleEdge_radius=10.0&amp;HandleEdge_outset=1.0&amp;Lid_handle=none&amp;Lid_style=ontop&amp;Lid_handle_height=8.0&amp;Lid_height=4.0&amp;Lid_play=0.1&amp;Slot_angle=30&amp;Slot_depth=40&amp;Slot_extra_slack=0.2&amp;Slot_radius=2&amp;Notch_depth=25&amp;Notch_lower_radius=8&amp;Notch_upper_radius=1&amp;Divider_bottom_margin=0&amp;Divider_play=0.05&amp;sx=77&amp;sy=0%3A40*7%3A0&amp;h=90&amp;outside=0&amp;outside=1&amp;notches_in_wall=0&amp;left_wall=0&amp;left_wall=1&amp;right_wall=0&amp;right_wall=1&amp;bottom=0&amp;bottom=1&amp;handle=0&amp;thickness=5&amp;burn=0.2&amp;format=svg&amp;labels=0&amp;labels=1&amp;reference=285&amp;tabs=0.0&amp;qr_code=0&amp;inner_corners=loop&amp;spacing=0.5&amp;debug=0&amp;language=en&amp;render=2
Url short: https://boxes.hackerspace-bamberg.de/DividerTray?Lid_style=ontop&amp;Slot_angle=30&amp;Slot_depth=40&amp;Notch_depth=25&amp;sx=77&amp;sy=0%3A40*7%3A0&amp;h=90&amp;notches_in_wall=0&amp;bottom=0&amp;bottom=1&amp;thickness=5&amp;burn=0.2&amp;reference=285&amp;spacing=0.5
SettingsUrl: https://boxes.hackerspace-bamberg.de/DividerTray?FingerJoint_style=rectangular&amp;FingerJoint_surroundingspaces=2.0&amp;FingerJoint_bottom_lip=0.0&amp;FingerJoint_edge_width=1.0&amp;FingerJoint_extra_length=0.0&amp;FingerJoint_finger=2.0&amp;FingerJoint_play=0.0&amp;FingerJoint_space=2.0&amp;FingerJoint_width=1.0&amp;HandleEdge_height=20&amp;HandleEdge_hole_height=75.0&amp;HandleEdge_hole_width=40%3A40&amp;HandleEdge_on_sides=0&amp;HandleEdge_on_sides=1&amp;HandleEdge_radius=10.0&amp;HandleEdge_outset=1.0&amp;Lid_handle=none&amp;Lid_style=ontop&amp;Lid_handle_height=8.0&amp;Lid_height=4.0&amp;Lid_play=0.1&amp;Slot_angle=30&amp;Slot_depth=40&amp;Slot_extra_slack=0.2&amp;Slot_radius=2&amp;Notch_depth=25&amp;Notch_lower_radius=8&amp;Notch_upper_radius=1&amp;Divider_bottom_margin=0&amp;Divider_play=0.05&amp;sx=77&amp;sy=0%3A40*7%3A0&amp;h=90&amp;outside=0&amp;outside=1&amp;notches_in_wall=0&amp;left_wall=0&amp;left_wall=1&amp;right_wall=0&amp;right_wall=1&amp;bottom=0&amp;bottom=1&amp;handle=0&amp;thickness=5&amp;burn=0.2&amp;format=svg&amp;labels=0&amp;labels=1&amp;reference=285&amp;tabs=0.0&amp;qr_code=0&amp;inner_corners=loop&amp;spacing=0.5&amp;debug=0&amp;language=en&amp;render=2
SettingsUrl short: https://boxes.hackerspace-bamberg.de/DividerTray?Lid_style=ontop&amp;Slot_angle=30&amp;Slot_depth=40&amp;Notch_depth=25&amp;sx=77&amp;sy=0%3A40*7%3A0&amp;h=90&amp;notches_in_wall=0&amp;bottom=0&amp;bottom=1&amp;thickness=5&amp;burn=0.2&amp;reference=285&amp;spacing=0.5
</dc:description>
</cc:Work></rdf:RDF></metadata>
<g id="p-0" style="fill:none;stroke-linecap:round;stroke-linejoin:round;">
  <path d="M 10.200 918.100 H 295.200 V 908.100 H 10.200 V 918.100 Z" stroke="rgb(0,0,0)" stroke-width="0.40" />
  <text dominant-baseline="hanging" font-size="6px" style="font-family: sans-serif ; font-weight: normal; font-style: normal; fill: rgb(255,0,0)" text-anchor="middle" transform="matrix( 1.000 0.000 0.000 1.000 152.700 910.100 )">285.0mm, burn:0.20mm</text>
</g>
<g id="p-1" style="fill:none;stroke-linecap:round;stroke-linejoin:round;">
  <path d="M 15.200 905.200 H 33.700 C 33.810 905.200 33.900 905.110 33.900 905.000 V 900.200 C 33.900 900.000 33.700 900.200 33.900 900.200 H 43.500 C 43.700 900.200 43.500 900.000 43.500 900.200 V 905.000 C 43.500 905.110 43.590 905.200 43.700 905.200 H 53.700 C 53.810 905.200 53.900 905.110 53.900 905.000 V 900.200 C 53.900 900.000 53.700 900.200 53.900 900.200 H 63.500 C 63.700 900.200 63.500 900.000 63.500 900.200 V 905.000 C 63.500 905.110 63.590 905.200 63.700 905.200 H 82.200 H 87.200 C 87.310 905.200 87.400 905.110 87.400 905.000 V 900.000 V 882.500 C 87.400 882.390 87.310 882.300 87.200 882.300 H 82.400 C 82.200 882.300 82.400 882.500 82.400 882.300 V 872.700 C 82.400 872.500 82.200 872.700 82.400 872.700 H 87.200 C 87.310 872.700 87.400 872.610 87.400 872.500 V 862.500 C 87.400 862.390 87.310 862.300 87.200 862.300 H 82.400 C 82.200 862.300 82.400 862.500 82.400 862.300 V 852.700 C 82.400 852.500 82.200 852.700 82.400 852.700 H 87.200 C 87.310 852.700 87.400 852.610 87.400 852.500 V 842.500 C 87.400 842.390 87.310 842.300 87.200 842.300 H 82.400 C 82.200 842.300 82.400 842.500 82.400 842.300 V 832.700 C 82.400 832.500 82.200 832.700 82.400 832.700 H 87.200 C 87.310 832.700 87.400 832.610 87.400 832.500 V 815.000 C 87.400 814.890 87.310 814.800 87.200 814.800 H 82.200 H 15.200 H 10.200 C 10.090 814.800 10.000 814.890 10.000 815.000 V 832.500 C 10.000 832.610 10.090 832.700 10.200 832.700 H 15.000 C 15.200 832.700 15.000 832.500 15.000 832.700 V 842.300 C 15.000 842.500 15.200 842.300 15.000 842.300 H 10.200 C 10.090 842.300 10.000 842.390 10.000 842.500 V 852.500 C 10.000 852.610 10.090 852.700 10.200 852.700 H 15.000 C 15.200 852.700 15.000 852.500 15.000 852.700 V 862.300 C 15.000 862.500 15.200 862.300 15.000 862.300 H 10.200 C 10.090 862.300 10.000 862.390 10.000 862.500 V 872.500 C 10.000 872.610 10.090 872.700 10.200 872.700 H 15.000 C 15.200 872.700 15.000 872.500 15.000 872.700 V 882.300 C 15.000 882.500 15.200 882.300 15.000 882.300 H 10.200 C 10.090 882.300 10.000 882.390 10.000 882.500 V 900.000 V 905.000 C 10.000 905.110 10.090 905.200 10.200 905.200 H 15.200 Z" stroke="rgb(0,0,0)" stroke-width="0.40" />
  <text dominant-baseline="hanging" font-size="4px" style="font-family: sans-serif ; font-weight: normal; font-style: normal; fill: rgb(255,0,0)" text-anchor="middle" transform="matrix( 1.000 0.000 0.000 1.000 48.700 858.200 )">Back</text>
</g>
<g id="p-2" style="fill:none;stroke-linecap:round;stroke-linejoin:round;">
  <path d="M 15.200 812.300 H 33.700 C 33.810 812.300 33.900 812.210 33.900 812.100 V 807.300 C 33.900 807.100 33.700 807.300 33.900 807.300 H 43.500 C 43.700 807.300 43.500 807.100 43.500 807.300 V 812.100 C 43.500 812.210 43.590 812.300 43.700 812.300 H 53.700 C 53.810 812.300 53.900 812.210 53.900 812.100 V 807.300 C 53.900 807.100 53.700 807.300 53.900 807.300 H 63.500 C 63.700 807.300 63.500 807.100 63.500 807.300 V 812.100 C 63.500 812.210 63.590 812.300 63.700 812.300 H 82.200 H 87.200 C 87.310 812.300 87.400 812.210 87.400 812.100 V 807.100 V 789.600 C 87.400 789.490 87.310 789.400 87.200 789.400 H 82.400 C 82.200 789.400 82.400 789.600 82.400 789.400 V 779.800 C 82.400 779.600 82.200 779.800 82.400 779.800 H 87.200 C 87.310 779.800 87.400 779.710 87.400 779.600 V 769.600 C 87.400 769.490 87.310 769.400 87.200 769.400 H 82.400 C 82.200 769.400 82.400 769.600 82.400 769.400 V 759.800 C 82.400 759.600 82.200 759.800 82.400 759.800 H 87.200 C 87.310 759.800 87.400 759.710 87.400 759.600 V 749.600 C 87.400 749.490 87.310 749.400 87.200 749.400 H 82.400 C 82.200 749.400 82.400 749.600 82.400 749.400 V 739.800 C 82.400 739.600 82.200 739.800 82.400 739.800 H 87.200 C 87.310 739.800 87.400 739.710 87.400 739.600 V 722.100 C 87.400 721.990 87.310 721.900 87.200 721.900 H 82.200 H 15.200 H 10.200 C 10.090 721.900 10.000 721.990 10.000 722.100 V 739.600 C 10.000 739.710 10.090 739.800 10.200 739.800 H 15.000 C 15.200 739.800 15.000 739.600 15.000 739.800 V 749.400 C 15.000 749.600 15.200 749.400 15.000 749.400 H 10.200 C 10.090 749.400 10.000 749.490 10.000 749.600 V 759.600 C 10.000 759.710 10.090 759.800 10.200 759.800 H 15.000 C 15.200 759.800 15.000 759.600 15.000 759.800 V 769.400 C 15.000 769.600 15.200 769.400 15.000 769.400 H 10.200 C 10.090 769.400 10.000 769.490 10.000 769.600 V 779.600 C 10.000 779.710 10.090 779.800 10.200 779.800 H 15.000 C 15.200 779.800 15.000 779.600 15.000 779.800 V 789.400 C 15.000 789.600 15.200 789.400 15.000 789.400 H 10.200 C 10.090 789.400 10.000 789.490 10.000 789.600 V 807.100 V 812.100 C 10.000 812.210 10.090 812.300 10.200 812.300 H 15.200 Z" stroke="rgb(0,0,0)" stroke-width="0.40" />
  <text dominant-baseline="hanging" font-size="4px" style="font-family: sans-serif ; font-weight: normal; font-style: normal; fill: rgb(255,0,0)" text-anchor="middle" transform="matrix( 1.000 0.000 0.000 1.000 48.700 765.300 )">Front</text>
</g>
<g id="p-3" style="fill:none;stroke-linecap:round;stroke-linejoin:round;">
  <path d="M 15.200 719.400 H 25.200 C 25.310 719.400 25.400 719.310 25.400 719.200 V 714.400 C 25.400 714.200 25.200 714.400 25.400 714.400 H 35.000 C 35.200 714.400 35.000 714.200 35.000 714.400 V 719.200 C 35.000 719.310 35.090 719.400 35.200 719.400 H 45.200 C 45.310 719.400 45.400 719.310 45.400 719.200 V 714.400 C 45.400 714.200 45.200 714.400 45.400 714.400 H 55.000 C 55.200 714.400 55.000 714.200 55.000 714.400 V 719.200 C 55.000 719.310 55.090 719.400 55.200 719.400 H 65.200 C 65.310 719.400 65.400 719.310 65.400 719.200 V 714.400 C 65.400 714.200 65.200 714.400 65.400 714.400 H 75.000 C 75.200 714.400 75.000 714.200 75.000 714.400 V 719.200 C 75.000 719.310 75.090 719.400 75.200 719.400 H 85.200 C 85.310 719.400 85.400 719.310 85.400 719.200 V 714.400 C 85.400 714.200 85.200 714.400 85.400 714.400 H 95.000 C 95.200 714.400 95.000 714.200 95.000 714.400 V 719.200 C 95.000 719.310 95.090 719.400 95.200 719.400 H 105.200 C 105.310 719.400 105.400 719.310 105.400 719.200 V 714.400 C 105.400 714.200 105.200 714.400 105.400 714.400 H 115.000 C 115.200 714.400 115.000 714.200 115.000 714.400 V 719.200 C 115.000 719.310 115.090 719.400 115.200 719.400 H 125.200 C 125.310 719.400 125.400 719.310 125.400 719.200 V 714.400 C 125.400 714.200 125.200 714.400 125.400 714.400 H 135.000 C 135.200 714.400 135.000 714.200 135.000 714.400 V 719.200 C 135.000 719.310 135.090 719.400 135.200 719.400 H 145.200 C 145.310 719.400 145.400 719.310 145.400 719.200 V 714.400 C 145.400 714.200 145.200 714.400 145.400 714.400 H 155.000 C 155.200 714.400 155.000 714.200 155.000 714.400 V 719.200 C 155.000 719.310 155.090 719.400 155.200 719.400 H 165.200 C 165.310 719.400 165.400 719.310 165.400 719.200 V 714.400 C 165.400 714.200 165.200 714.400 165.400 714.400 H 175.000 C 175.200 714.400 175.000 714.200 175.000 714.400 V 719.200 C 175.000 719.310 175.090 719.400 175.200 719.400 H 185.200 C 185.310 719.400 185.400 719.310 185.400 719.200 V 714.400 C 185.400 714.200 185.200 714.400 185.400 714.400 H 195.000 C 195.200 714.400 195.000 714.200 195.000 714.400 V 719.200 C 195.000 719.310 195.090 719.400 195.200 719.400 H 205.200 C 205.310 719.400 205.400 719.310 205.400 719.200 V 714.400 C 205.400 714.200 205.200 714.400 205.400 714.400 H 215.000 C 215.200 714.400 215.000 714.200 215.000 714.400 V 719.200 C 215.000 719.310 215.090 719.400 215.200 719.400 H 225.200 C 225.310 719.400 225.400 719.310 225.400 719.200 V 714.400 C 225.400 714.200 225.200 714.400 225.400 714.400 H 235.000 C 235.200 714.400 235.000 714.200 235.000 714.400 V 719.200 C 235.000 719.310 235.090 719.400 235.200 719.400 H 245.200 C 245.310 719.400 245.400 719.310 245.400 719.200 V 714.400 C 245.400 714.200 245.200 714.400 245.400 714.400 H 255.000 C 255.200 714.400 255.000 714.200 255.000 714.400 V 719.200 C 255.000 719.310 255.090 719.400 255.200 719.400 H 265.200 C 265.310 719.400 265.400 719.310 265.400 719.200 V 714.400 C 265.400 714.200 265.200 714.400 265.400 714.400 H 275.000 C 275.200 714.400 275.000 714.200 275.000 714.400 V 719.200 C 275.000 719.310 275.090 719.400 275.200 719.400 H 285.200 C 285.310 719.400 285.400 719.310 285.400 719.200 V 714.200 V 696.900 C 285.400 696.700 285.200 696.900 285.400 696.900 H 290.200 C 290.310 696.900 290.400 696.810 290.400 696.700 V 686.700 C 290.400 686.590 290.310 686.500 290.200 686.500 H 285.400 C 285.200 686.500 285.400 686.700 285.400 686.500 V 676.900 C 285.400 676.700 285.200 676.900 285.400 676.900 H 290.200 C 290.310 676.900 290.400 676.810 290.400 676.700 V 666.700 C 290.400 666.590 290.310 666.500 290.200 666.500 H 285.400 C 285.200 666.500 285.400 666.700 285.400 666.500 V 656.900 C 285.400 656.700 285.200 656.900 285.400 656.900 H 290.200 C 290.310 656.900 290.400 656.810 290.400 656.700 V 646.700 C 290.400 646.590 290.310 646.500 290.200 646.500 H 285.400 C 285.200 646.500 285.400 646.700 285.400 646.500 V 629.200 C 285.400 629.090 285.310 629.000 285.200 629.000 C 285.129 629.000 285.063 629.038 285.027 629.100 L 263.626 666.168 C 263.526 666.341 263.799 666.268 263.626 666.168 L 259.469 663.768 C 259.296 663.668 259.369 663.941 259.469 663.768 L 277.637 632.300 C 277.830 631.966 277.931 631.586 277.931 631.200 C 277.931 630.814 277.830 630.434 277.637 630.100 C 277.444 629.766 277.166 629.488 276.831 629.295 C 276.497 629.102 276.118 629.000 275.731 629.000 H 255.652 C 255.266 629.000 254.886 629.102 254.552 629.295 C 254.217 629.488 253.940 629.766 253.746 630.100 L 232.923 666.168 C 232.823 666.341 233.096 666.268 232.923 666.168 L 228.766 663.768 C 228.593 663.668 228.666 663.941 228.766 663.768 L 246.934 632.300 C 247.127 631.966 247.228 631.586 247.228 631.200 C 247.228 630.814 247.127 630.434 246.934 630.100 C 246.741 629.766 246.463 629.488 246.128 629.295 C 245.794 629.102 245.415 629.000 245.028 629.000 H 224.949 C 224.563 629.000 224.183 629.102 223.849 629.295 C 223.514 629.488 223.237 629.766 223.044 630.100 L 202.220 666.168 C 202.120 666.341 202.393 666.268 202.220 666.168 L 198.063 663.768 C 197.890 663.668 197.963 663.941 198.063 663.768 L 216.231 632.300 C 216.424 631.966 216.526 631.586 216.526 631.200 C 216.526 630.814 216.424 630.434 216.231 630.100 C 216.038 629.766 215.760 629.488 215.426 629.295 C 215.091 629.102 214.712 629.000 214.326 629.000 H 194.246 C 193.860 629.000 193.480 629.102 193.146 629.295 C 192.811 629.488 192.534 629.766 192.341 630.100 L 171.517 666.168 C 171.417 666.341 171.690 666.268 171.517 666.168 L 167.360 663.768 C 167.187 663.668 167.260 663.941 167.360 663.768 L 185.528 632.300 C 185.721 631.966 185.823 631.586 185.823 631.200 C 185.823 630.814 185.721 630.434 185.528 630.100 C 185.335 629.766 185.057 629.488 184.723 629.295 C 184.388 629.102 184.009 629.000 183.623 629.000 H 163.543 C 163.157 629.000 162.777 629.102 162.443 629.295 C 162.108 629.488 161.831 629.766 161.638 630.100 L 140.814 666.168 C 140.714 666.341 140.987 666.268 140.814 666.168 L 136.657 663.768 C 136.484 663.668 136.557 663.941 136.657 663.768 L 154.825 632.300 C 155.018 631.966 155.120 631.586 155.120 631.200 C 155.120 630.814 155.018 630.434 154.825 630.100 C 154.632 629.766 154.354 629.488 154.020 629.295 C 153.685 629.102 153.306 629.000 152.920 629.000 H 132.840 C 132.454 629.000 132.074 629.102 131.740 629.295 C 131.405 629.488 131.128 629.766 130.935 630.100 L 110.111 666.168 C 110.011 666.341 110.284 666.268 110.111 666.168 L 105.954 663.768 C 105.781 663.668 105.854 663.941 105.954 663.768 L 124.122 632.300 C 124.315 631.966 124.417 631.586 124.417 631.200 C 124.417 630.814 124.315 630.434 124.122 630.100 C 123.929 629.766 123.651 629.488 123.317 629.295 C 122.982 629.102 122.603 629.000 122.217 629.000 H 102.137 C 101.751 629.000 101.371 629.102 101.037 629.295 C 100.702 629.488 100.425 629.766 100.232 630.100 L 79.408 666.168 C 79.308 666.341 79.581 666.268 79.408 666.168 L 75.251 663.768 C 75.078 663.668 75.151 663.941 75.251 663.768 L 93.419 632.300 C 93.612 631.966 93.714 631.586 93.714 631.200 C 93.714 630.814 93.612 630.434 93.419 630.100 C 93.226 629.766 92.948 629.488 92.614 629.295 C 92.279 629.102 91.900 629.000 91.514 629.000 H 71.434 C 71.048 629.000 70.668 629.102 70.334 629.295 C 69.999 629.488 69.722 629.766 69.529 630.100 L 48.705 666.168 C 48.605 666.341 48.878 666.268 48.705 666.168 L 44.548 663.768 C 44.375 663.668 44.448 663.941 44.548 663.768 L 62.716 632.300 C 62.909 631.966 63.011 631.586 63.011 631.200 C 63.011 630.814 62.909 630.434 62.716 630.100 C 62.523 629.766 62.245 629.488 61.911 629.295 C 61.576 629.102 61.197 629.000 60.811 629.000 H 15.200 C 15.090 629.000 15.000 629.090 15.000 629.200 V 646.500 C 15.000 646.700 15.200 646.500 15.000 646.500 H 10.200 C 10.090 646.500 10.000 646.590 10.000 646.700 V 656.700 C 10.000 656.810 10.090 656.900 10.200 656.900 H 15.000 C 15.200 656.900 15.000 656.700 15.000 656.900 V 666.500 C 15.000 666.700 15.200 666.500 15.000 666.500 H 10.200 C 10.090 666.500 10.000 666.590 10.000 666.700 V 676.700 C 10.000 676.810 10.090 676.900 10.200 676.900 H 15.000 C 15.200 676.900 15.000 676.700 15.000 676.900 V 686.500 C 15.000 686.700 15.200 686.500 15.000 686.500 H 10.200 C 10.090 686.500 10.000 686.590 10.000 686.700 V 696.700 C 10.000 696.810 10.090 696.900 10.200 696.900 H 15.000 C 15.200 696.900 15.000 696.700 15.000 696.900 V 714.200 V 719.200 C 15.000 719.310 15.090 719.400 15.200 719.400 Z" stroke="rgb(0,0,0)" stroke-width="0.40" />
  <text dominant-baseline="hanging" font-size="4px" style="font-family: sans-serif ; font-weight: normal; font-style: normal; fill: rgb(255,0,0)" text-anchor="middle" transform="matrix( 1.000 0.000 0.000 1.000 150.200 672.400 )">Sidepiece 1</text>
</g>
<g id="p-4" style="fill:none;stroke-linecap:round;stroke-linejoin:round;">
  <path d="M 15.200 626.500 H 25.200 C 25.310 626.500 25.400 626.410 25.400 626.300 V 621.500 C 25.400 621.300 25.200 621.500 25.400 621.500 H 35.000 C 35.200 621.500 35.000 621.300 35.000 621.500 V 626.300 C 35.000 626.410 35.090 626.500 35.200 626.500 H 45.200 C 45.310 626.500 45.400 626.410 45.400 626.300 V 621.500 C 45.400 621.300 45.200 621.500 45.400 621.500 H 55.000 C 55.200 621.500 55.000 621.300 55.000 621.500 V 626.300 C 55.000 626.410 55.090 626.500 55.200 626.500 H 65.200 C 65.310 626.500 65.400 626.410 65.400 626.300 V 621.500 C 65.400 621.300 65.200 621.500 65.400 621.500 H 75.000 C 75.200 621.500 75.000 621.300 75.000 621.500 V 626.300 C 75.000 626.410 75.090 626.500 75.200 626.500 H 85.200 C 85.310 626.500 85.400 626.410 85.400 626.300 V 621.500 C 85.400 621.300 85.200 621.500 85.400 621.500 H 95.000 C 95.200 621.500 95.000 621.300 95.000 621.500 V 626.300 C 95.000 626.410 95.090 626.500 95.200 626.500 H 105.200 C 105.310 626.500 105.400 626.410 105.400 626.300 V 621.500 C 105.400 621.300 105.200 621.500 105.400 621.500 H 115.000 C 115.200 621.500 115.000 621.300 115.000 621.500 V 626.300 C 115.000 626.410 115.090 626.500 115.200 626.500 H 125.200 C 125.310 626.500 125.400 626.410 125.400 626.300 V 621.500 C 125.400 621.300 125.200 621.500 125.400 621.500 H 135.000 C 135.200 621.500 135.000 621.300 135.000 621.500 V 626.300 C 135.000 626.410 135.090 626.500 135.200 626.500 H 145.200 C 145.310 626.500 145.400 626.410 145.400 626.300 V 621.500 C 145.400 621.300 145.200 621.500 145.400 621.500 H 155.000 C 155.200 621.500 155.000 621.300 155.000 621.500 V 626.300 C 155.000 626.410 155.090 626.500 155.200 626.500 H 165.200 C 165.310 626.500 165.400 626.410 165.400 626.300 V 621.500 C 165.400 621.300 165.200 621.500 165.400 621.500 H 175.000 C 175.200 621.500 175.000 621.300 175.000 621.500 V 626.300 C 175.000 626.410 175.090 626.500 175.200 626.500 H 185.200 C 185.310 626.500 185.400 626.410 185.400 626.300 V 621.500 C 185.400 621.300 185.200 621.500 185.400 621.500 H 195.000 C 195.200 621.500 195.000 621.300 195.000 621.500 V 626.300 C 195.000 626.410 195.090 626.500 195.200 626.500 H 205.200 C 205.310 626.500 205.400 626.410 205.400 626.300 V 621.500 C 205.400 621.300 205.200 621.500 205.400 621.500 H 215.000 C 215.200 621.500 215.000 621.300 215.000 621.500 V 626.300 C 215.000 626.410 215.090 626.500 215.200 626.500 H 225.200 C 225.310 626.500 225.400 626.410 225.400 626.300 V 621.500 C 225.400 621.300 225.200 621.500 225.400 621.500 H 235.000 C 235.200 621.500 235.000 621.300 235.000 621.500 V 626.300 C 235.000 626.410 235.090 626.500 235.200 626.500 H 245.200 C 245.310 626.500 245.400 626.410 245.400 626.300 V 621.500 C 245.400 621.300 245.200 621.500 245.400 621.500 H 255.000 C 255.200 621.500 255.000 621.300 255.000 621.500 V 626.300 C 255.000 626.410 255.090 626.500 255.200 626.500 H 265.200 C 265.310 626.500 265.400 626.410 265.400 626.300 V 621.500 C 265.400 621.300 265.200 621.500 265.400 621.500 H 275.000 C 275.200 621.500 275.000 621.300 275.000 621.500 V 626.300 C 275.000 626.410 275.090 626.500 275.200 626.500 H 285.200 C 285.310 626.500 285.400 626.410 285.400 626.300 V 621.300 V 604.000 C 285.400 603.800 285.200 604.000 285.400 604.000 H 290.200 C 290.310 604.000 290.400 603.910 290.400 603.800 V 593.800 C 290.400 593.690 290.310 593.600 290.200 593.600 H 285.400 C 285.200 593.600 285.400 593.800 285.400 593.600 V 584.000 C 285.400 583.800 285.200 584.000 285.400 584.000 H 290.200 C 290.310 584.000 290.400 583.910 290.400 583.800 V 573.800 C 290.400 573.690 290.310 573.600 290.200 573.600 H 285.400 C 285.200 573.600 285.400 573.800 285.400 573.600 V 564.000 C 285.400 563.800 285.200 564.000 285.400 564.000 H 290.200 C 290.310 564.000 290.400 563.910 290.400 563.800 V 553.800 C 290.400 553.690 290.310 553.600 290.200 553.600 H 285.400 C 285.200 553.600 285.400 553.800 285.400 553.600 V 536.300 C 285.400 536.190 285.310 536.100 285.200 536.100 C 285.129 536.100 285.063 536.138 285.027 536.200 L 263.626 573.268 C 263.526 573.441 263.799 573.368 263.626 573.268 L 259.469 570.868 C 259.296 570.768 259.369 571.041 259.469 570.868 L 277.637 539.400 C 277.830 539.066 277.931 538.686 277.931 538.300 C 277.931 537.914 277.830 537.534 277.637 537.200 C 277.444 536.866 277.166 536.588 276.831 536.395 C 276.497 536.202 276.118 536.100 275.731 536.100 H 255.652 C 255.266 536.100 254.886 536.202 254.552 536.395 C 254.217 536.588 253.940 536.866 253.746 537.200 L 232.923 573.268 C 232.823 573.441 233.096 573.368 232.923 573.268 L 228.766 570.868 C 228.593 570.768 228.666 571.041 228.766 570.868 L 246.934 539.400 C 247.127 539.066 247.228 538.686 247.228 538.300 C 247.228 537.914 247.127 537.534 246.934 537.200 C 246.741 536.866 246.463 536.588 246.128 536.395 C 245.794 536.202 245.415 536.100 245.028 536.100 H 224.949 C 224.563 536.100 224.183 536.202 223.849 536.395 C 223.514 536.588 223.237 536.866 223.044 537.200 L 202.220 573.268 C 202.120 573.441 202.393 573.368 202.220 573.268 L 198.063 570.868 C 197.890 570.768 197.963 571.041 198.063 570.868 L 216.231 539.400 C 216.424 539.066 216.526 538.686 216.526 538.300 C 216.526 537.914 216.424 537.534 216.231 537.200 C 216.038 536.866 215.760 536.588 215.426 536.395 C 215.091 536.202 214.712 536.100 214.326 536.100 H 194.246 C 193.860 536.100 193.480 536.202 193.146 536.395 C 192.811 536.588 192.534 536.866 192.341 537.200 L 171.517 573.268 C 171.417 573.441 171.690 573.368 171.517 573.268 L 167.360 570.868 C 167.187 570.768 167.260 571.041 167.360 570.868 L 185.528 539.400 C 185.721 539.066 185.823 538.686 185.823 538.300 C 185.823 537.914 185.721 537.534 185.528 537.200 C 185.335 536.866 185.057 536.588 184.723 536.395 C 184.388 536.202 184.009 536.100 183.623 536.100 H 163.543 C 163.157 536.100 162.777 536.202 162.443 536.395 C 162.108 536.588 161.831 536.866 161.638 537.200 L 140.814 573.268 C 140.714 573.441 140.987 573.368 140.814 573.268 L 136.657 570.868 C 136.484 570.768 136.557 571.041 136.657 570.868 L 154.825 539.400 C 155.018 539.066 155.120 538.686 155.120 538.300 C 155.120 537.914 155.018 537.534 154.825 537.200 C 154.632 536.866 154.354 536.588 154.020 536.395 C 153.685 536.202 153.306 536.100 152.920 536.100 H 132.840 C 132.454 536.100 132.074 536.202 131.740 536.395 C 131.405 536.588 131.128 536.866 130.935 537.200 L 110.111 573.268 C 110.011 573.441 110.284 573.368 110.111 573.268 L 105.954 570.868 C 105.781 570.768 105.854 571.041 105.954 570.868 L 124.122 539.400 C 124.315 539.066 124.417 538.686 124.417 538.300 C 124.417 537.914 124.315 537.534 124.122 537.200 C 123.929 536.866 123.651 536.588 123.317 536.395 C 122.982 536.202 122.603 536.100 122.217 536.100 H 102.137 C 101.751 536.100 101.371 536.202 101.037 536.395 C 100.702 536.588 100.425 536.866 100.232 537.200 L 79.408 573.268 C 79.308 573.441 79.581 573.368 79.408 573.268 L 75.251 570.868 C 75.078 570.768 75.151 571.041 75.251 570.868 L 93.419 539.400 C 93.612 539.066 93.714 538.686 93.714 538.300 C 93.714 537.914 93.612 537.534 93.419 537.200 C 93.226 536.866 92.948 536.588 92.614 536.395 C 92.279 536.202 91.900 536.100 91.514 536.100 H 71.434 C 71.048 536.100 70.668 536.202 70.334 536.395 C 69.999 536.588 69.722 536.866 69.529 537.200 L 48.705 573.268 C 48.605 573.441 48.878 573.368 48.705 573.268 L 44.548 570.868 C 44.375 570.768 44.448 571.041 44.548 570.868 L 62.716 539.400 C 62.909 539.066 63.011 538.686 63.011 538.300 C 63.011 537.914 62.909 537.534 62.716 537.200 C 62.523 536.866 62.245 536.588 61.911 536.395 C 61.576 536.202 61.197 536.100 60.811 536.100 H 15.200 C 15.090 536.100 15.000 536.190 15.000 536.300 V 553.600 C 15.000 553.800 15.200 553.600 15.000 553.600 H 10.200 C 10.090 553.600 10.000 553.690 10.000 553.800 V 563.800 C 10.000 563.910 10.090 564.000 10.200 564.000 H 15.000 C 15.200 564.000 15.000 563.800 15.000 564.000 V 573.600 C 15.000 573.800 15.200 573.600 15.000 573.600 H 10.200 C 10.090 573.600 10.000 573.690 10.000 573.800 V 583.800 C 10.000 583.910 10.090 584.000 10.200 584.000 H 15.000 C 15.200 584.000 15.000 583.800 15.000 584.000 V 593.600 C 15.000 593.800 15.200 593.600 15.000 593.600 H 10.200 C 10.090 593.600 10.000 593.690 10.000 593.800 V 603.800 C 10.000 603.910 10.090 604.000 10.200 604.000 H 15.000 C 15.200 604.000 15.000 603.800 15.000 604.000 V 621.300 V 626.300 C 15.000 626.410 15.090 626.500 15.200 626.500 Z" stroke="rgb(0,0,0)" stroke-width="0.40" />
  <text dominant-baseline="hanging" font-size="4px" style="font-family: sans-serif ; font-weight: normal; font-style: normal; fill: rgb(255,0,0)" text-anchor="middle" transform="matrix( 1.000 0.000 0.000 1.000 150.200 579.500 )">Sidepiece 2</text>
</g>
<g id="p-5" style="fill:none;stroke-linecap:round;stroke-linejoin:round;">
  <path d="M 15.200 528.600 H 33.500 C 33.700 528.600 33.500 528.400 33.500 528.600 V 533.400 C 33.500 533.510 33.590 533.600 33.700 533.600 H 43.700 C 43.810 533.600 43.900 533.510 43.900 533.400 V 528.600 C 43.900 528.400 43.700 528.600 43.900 528.600 H 53.500 C 53.700 528.600 53.500 528.400 53.500 528.600 V 533.400 C 53.500 533.510 53.590 533.600 53.700 533.600 H 63.700 C 63.810 533.600 63.900 533.510 63.900 533.400 V 528.600 C 63.900 528.400 63.700 528.600 63.900 528.600 H 82.200 C 82.310 528.600 82.400 528.510 82.400 528.400 V 518.600 C 82.400 518.400 82.200 518.600 82.400 518.600 H 87.200 C 87.310 518.600 87.400 518.510 87.400 518.400 V 508.400 C 87.400 508.290 87.310 508.200 87.200 508.200 H 82.400 C 82.200 508.200 82.400 508.400 82.400 508.200 V 498.600 C 82.400 498.400 82.200 498.600 82.400 498.600 H 87.200 C 87.310 498.600 87.400 498.510 87.400 498.400 V 488.400 C 87.400 488.290 87.310 488.200 87.200 488.200 H 82.400 C 82.200 488.200 82.400 488.400 82.400 488.200 V 478.600 C 82.400 478.400 82.200 478.600 82.400 478.600 H 87.200 C 87.310 478.600 87.400 478.510 87.400 478.400 V 468.400 C 87.400 468.290 87.310 468.200 87.200 468.200 H 82.400 C 82.200 468.200 82.400 468.400 82.400 468.200 V 458.600 C 82.400 458.400 82.200 458.600 82.400 458.600 H 87.200 C 87.310 458.600 87.400 458.510 87.400 458.400 V 448.400 C 87.400 448.290 87.310 448.200 87.200 448.200 H 82.400 C 82.200 448.200 82.400 448.400 82.400 448.200 V 438.600 C 82.400 438.400 82.200 438.600 82.400 438.600 H 87.200 C 87.310 438.600 87.400 438.510 87.400 438.400 V 428.400 C 87.400 428.290 87.310 428.200 87.200 428.200 H 82.400 C 82.200 428.200 82.400 428.400 82.400 428.200 V 418.600 C 82.400 418.400 82.200 418.600 82.400 418.600 H 87.200 C 87.310 418.600 87.400 418.510 87.400 418.400 V 408.400 C 87.400 408.290 87.310 408.200 87.200 408.200 H 82.400 C 82.200 408.200 82.400 408.400 82.400 408.200 V 398.600 C 82.400 398.400 82.200 398.600 82.400 398.600 H 87.200 C 87.310 398.600 87.400 398.510 87.400 398.400 V 388.400 C 87.400 388.290 87.310 388.200 87.200 388.200 H 82.400 C 82.200 388.200 82.400 388.400 82.400 388.200 V 378.600 C 82.400 378.400 82.200 378.600 82.400 378.600 H 87.200 C 87.310 378.600 87.400 378.510 87.400 378.400 V 368.400 C 87.400 368.290 87.310 368.200 87.200 368.200 H 82.400 C 82.200 368.200 82.400 368.400 82.400 368.200 V 358.600 C 82.400 358.400 82.200 358.600 82.400 358.600 H 87.200 C 87.310 358.600 87.400 358.510 87.400 358.400 V 348.400 C 87.400 348.290 87.310 348.200 87.200 348.200 H 82.400 C 82.200 348.200 82.400 348.400 82.400 348.200 V 338.600 C 82.400 338.400 82.200 338.600 82.400 338.600 H 87.200 C 87.310 338.600 87.400 338.510 87.400 338.400 V 328.400 C 87.400 328.290 87.310 328.200 87.200 328.200 H 82.400 C 82.200 328.200 82.400 328.400 82.400 328.200 V 318.600 C 82.400 318.400 82.200 318.600 82.400 318.600 H 87.200 C 87.310 318.600 87.400 318.510 87.400 318.400 V 308.400 C 87.400 308.290 87.310 308.200 87.200 308.200 H 82.400 C 82.200 308.200 82.400 308.400 82.400 308.200 V 298.600 C 82.400 298.400 82.200 298.600 82.400 298.600 H 87.200 C 87.310 298.600 87.400 298.510 87.400 298.400 V 288.400 C 87.400 288.290 87.310 288.200 87.200 288.200 H 82.400 C 82.200 288.200 82.400 288.400 82.400 288.200 V 278.600 C 82.400 278.400 82.200 278.600 82.400 278.600 H 87.200 C 87.310 278.600 87.400 278.510 87.400 278.400 V 268.400 C 87.400 268.290 87.310 268.200 87.200 268.200 H 82.400 C 82.200 268.200 82.400 268.400 82.400 268.200 V 258.400 C 82.400 258.290 82.310 258.200 82.200 258.200 H 63.900 C 63.700 258.200 63.900 258.400 63.900 258.200 V 253.400 C 63.900 253.290 63.810 253.200 63.700 253.200 H 53.700 C 53.590 253.200 53.500 253.290 53.500 253.400 V 258.200 C 53.500 258.400 53.700 258.200 53.500 258.200 H 43.900 C 43.700 258.200 43.900 258.400 43.900 258.200 V 253.400 C 43.900 253.290 43.810 253.200 43.700 253.200 H 33.700 C 33.590 253.200 33.500 253.290 33.500 253.400 V 258.200 C 33.500 258.400 33.700 258.200 33.500 258.200 H 15.200 C 15.090 258.200 15.000 258.290 15.000 258.400 V 268.200 C 15.000 268.400 15.200 268.200 15.000 268.200 H 10.200 C 10.090 268.200 10.000 268.290 10.000 268.400 V 278.400 C 10.000 278.510 10.090 278.600 10.200 278.600 H 15.000 C 15.200 278.600 15.000 278.400 15.000 278.600 V 288.200 C 15.000 288.400 15.200 288.200 15.000 288.200 H 10.200 C 10.090 288.200 10.000 288.290 10.000 288.400 V 298.400 C 10.000 298.510 10.090 298.600 10.200 298.600 H 15.000 C 15.200 298.600 15.000 298.400 15.000 298.600 V 308.200 C 15.000 308.400 15.200 308.200 15.000 308.200 H 10.200 C 10.090 308.200 10.000 308.290 10.000 308.400 V 318.400 C 10.000 318.510 10.090 318.600 10.200 318.600 H 15.000 C 15.200 318.600 15.000 318.400 15.000 318.600 V 328.200 C 15.000 328.400 15.200 328.200 15.000 328.200 H 10.200 C 10.090 328.200 10.000 328.290 10.000 328.400 V 338.400 C 10.000 338.510 10.090 338.600 10.200 338.600 H 15.000 C 15.200 338.600 15.000 338.400 15.000 338.600 V 348.200 C 15.000 348.400 15.200 348.200 15.000 348.200 H 10.200 C 10.090 348.200 10.000 348.290 10.000 348.400 V 358.400 C 10.000 358.510 10.090 358.600 10.200 358.600 H 15.000 C 15.200 358.600 15.000 358.400 15.000 358.600 V 368.200 C 15.000 368.400 15.200 368.200 15.000 368.200 H 10.200 C 10.090 368.200 10.000 368.290 10.000 368.400 V 378.400 C 10.000 378.510 10.090 378.600 10.200 378.600 H 15.000 C 15.200 378.600 15.000 378.400 15.000 378.600 V 388.200 C 15.000 388.400 15.200 388.200 15.000 388.200 H 10.200 C 10.090 388.200 10.000 388.290 10.000 388.400 V 398.400 C 10.000 398.510 10.090 398.600 10.200 398.600 H 15.000 C 15.200 398.600 15.000 398.400 15.000 398.600 V 408.200 C 15.000 408.400 15.200 408.200 15.000 408.200 H 10.200 C 10.090 408.200 10.000 408.290 10.000 408.400 V 418.400 C 10.000 418.510 10.090 418.600 10.200 418.600 H 15.000 C 15.200 418.600 15.000 418.400 15.000 418.600 V 428.200 C 15.000 428.400 15.200 428.200 15.000 428.200 H 10.200 C 10.090 428.200 10.000 428.290 10.000 428.400 V 438.400 C 10.000 438.510 10.090 438.600 10.200 438.600 H 15.000 C 15.200 438.600 15.000 438.400 15.000 438.600 V 448.200 C 15.000 448.400 15.200 448.200 15.000 448.200 H 10.200 C 10.090 448.200 10.000 448.290 10.000 448.400 V 458.400 C 10.000 458.510 10.090 458.600 10.200 458.600 H 15.000 C 15.200 458.600 15.000 458.400 15.000 458.600 V 468.200 C 15.000 468.400 15.200 468.200 15.000 468.200 H 10.200 C 10.090 468.200 10.000 468.290 10.000 468.400 V 478.400 C 10.000 478.510 10.090 478.600 10.200 478.600 H 15.000 C 15.200 478.600 15.000 478.400 15.000 478.600 V 488.200 C 15.000 488.400 15.200 488.200 15.000 488.200 H 10.200 C 10.090 488.200 10.000 488.290 10.000 488.400 V 498.400 C 10.000 498.510 10.090 498.600 10.200 498.600 H 15.000 C 15.200 498.600 15.000 498.400 15.000 498.600 V 508.200 C 15.000 508.400 15.200 508.200 15.000 508.200 H 10.200 C 10.090 508.200 10.000 508.290 10.000 508.400 V 518.400 C 10.000 518.510 10.090 518.600 10.200 518.600 H 15.000 C 15.200 518.600 15.000 518.400 15.000 518.600 V 528.400 C 15.000 528.510 15.090 528.600 15.200 528.600 Z" stroke="rgb(0,0,0)" stroke-width="0.40" />
  <text dominant-baseline="hanging" font-size="4px" style="font-family: sans-serif ; font-weight: normal; font-style: normal; fill: rgb(255,0,0)" text-anchor="middle" transform="matrix( 1.000 0.000 0.000 1.000 48.700 391.600 )">lid top</text>
</g>
<g id="p-6" style="fill:none;stroke-linecap:round;stroke-linejoin:round;">
  <path d="M 15.200 250.700 H 82.200 H 87.200 C 87.310 250.700 87.400 250.610 87.400 250.500 V 243.000 C 87.400 242.890 87.310 242.800 87.200 242.800 H 82.400 C 82.200 242.800 82.400 243.000 82.400 242.800 V 233.200 C 82.400 233.000 82.200 233.200 82.400 233.200 H 87.200 C 87.310 233.200 87.400 233.110 87.400 233.000 V 225.500 C 87.400 225.390 87.310 225.300 87.200 225.300 H 82.200 H 63.700 C 63.590 225.300 63.500 225.390 63.500 225.500 V 230.300 C 63.500 230.500 63.700 230.300 63.500 230.300 H 53.900 C 53.700 230.300 53.900 230.500 53.900 230.300 V 225.500 C 53.900 225.390 53.810 225.300 53.700 225.300 H 43.700 C 43.590 225.300 43.500 225.390 43.500 225.500 V 230.300 C 43.500 230.500 43.700 230.300 43.500 230.300 H 33.900 C 33.700 230.300 33.900 230.500 33.900 230.300 V 225.500 C 33.900 225.390 33.810 225.300 33.700 225.300 H 15.200 H 10.200 C 10.090 225.300 10.000 225.390 10.000 225.500 V 233.000 C 10.000 233.110 10.090 233.200 10.200 233.200 H 15.000 C 15.200 233.200 15.000 233.000 15.000 233.200 V 242.800 C 15.000 243.000 15.200 242.800 15.000 242.800 H 10.200 C 10.090 242.800 10.000 242.890 10.000 243.000 V 250.500 C 10.000 250.610 10.090 250.700 10.200 250.700 H 15.200 Z" stroke="rgb(0,0,0)" stroke-width="0.40" />
  <text dominant-baseline="hanging" font-size="4px" style="font-family: sans-serif ; font-weight: normal; font-style: normal; fill: rgb(255,0,0)" text-anchor="middle" transform="matrix( 1.000 0.000 0.000 1.000 48.700 236.200 )">lid front</text>
</g>
<g id="p-7" style="fill:none;stroke-linecap:round;stroke-linejoin:round;">
  <path d="M 15.200 222.800 H 82.200 H 87.200 C 87.310 222.800 87.400 222.710 87.400 222.600 V 215.100 C 87.400 214.990 87.310 214.900 87.200 214.900 H 82.400 C 82.200 214.900 82.400 215.100 82.400 214.900 V 205.300 C 82.400 205.100 82.200 205.300 82.400 205.300 H 87.200 C 87.310 205.300 87.400 205.210 87.400 205.100 V 197.600 C 87.400 197.490 87.310 197.400 87.200 197.400 H 82.200 H 63.700 C 63.590 197.400 63.500 197.490 63.500 197.600 V 202.400 C 63.500 202.600 63.700 202.400 63.500 202.400 H 53.900 C 53.700 202.400 53.900 202.600 53.900 202.400 V 197.600 C 53.900 197.490 53.810 197.400 53.700 197.400 H 43.700 C 43.590 197.400 43.500 197.490 43.500 197.600 V 202.400 C 43.500 202.600 43.700 202.400 43.500 202.400 H 33.900 C 33.700 202.400 33.900 202.600 33.900 202.400 V 197.600 C 33.900 197.490 33.810 197.400 33.700 197.400 H 15.200 H 10.200 C 10.090 197.400 10.000 197.490 10.000 197.600 V 205.100 C 10.000 205.210 10.090 205.300 10.200 205.300 H 15.000 C 15.200 205.300 15.000 205.100 15.000 205.300 V 214.900 C 15.000 215.100 15.200 214.900 15.000 214.900 H 10.200 C 10.090 214.900 10.000 214.990 10.000 215.100 V 222.600 C 10.000 222.710 10.090 222.800 10.200 222.800 H 15.200 Z" stroke="rgb(0,0,0)" stroke-width="0.40" />
  <text dominant-baseline="hanging" font-size="4px" style="font-family: sans-serif ; font-weight: normal; font-style: normal; fill: rgb(255,0,0)" text-anchor="middle" transform="matrix( 1.000 0.000 0.000 1.000 48.700 208.300 )">lid back</text>
</g>
<g id="p-8" style="fill:none;stroke-linecap:round;stroke-linejoin:round;">
  <path d="M 15.200 194.900 H 285.200 C 285.310 194.900 285.400 194.810 285.400 194.700 V 187.400 C 285.400 187.200 285.200 187.400 285.400 187.400 H 290.200 C 290.310 187.400 290.400 187.310 290.400 187.200 V 177.200 C 290.400 177.090 290.310 177.000 290.200 177.000 H 285.400 C 285.200 177.000 285.400 177.200 285.400 177.000 V 169.700 C 285.400 169.590 285.310 169.500 285.200 169.500 H 275.200 C 275.090 169.500 275.000 169.590 275.000 169.700 V 174.500 C 275.000 174.700 275.200 174.500 275.000 174.500 H 265.400 C 265.200 174.500 265.400 174.700 265.400 174.500 V 169.700 C 265.400 169.590 265.310 169.500 265.200 169.500 H 255.200 C 255.090 169.500 255.000 169.590 255.000 169.700 V 174.500 C 255.000 174.700 255.200 174.500 255.000 174.500 H 245.400 C 245.200 174.500 245.400 174.700 245.400 174.500 V 169.700 C 245.400 169.590 245.310 169.500 245.200 169.500 H 235.200 C 235.090 169.500 235.000 169.590 235.000 169.700 V 174.500 C 235.000 174.700 235.200 174.500 235.000 174.500 H 225.400 C 225.200 174.500 225.400 174.700 225.400 174.500 V 169.700 C 225.400 169.590 225.310 169.500 225.200 169.500 H 215.200 C 215.090 169.500 215.000 169.590 215.000 169.700 V 174.500 C 215.000 174.700 215.200 174.500 215.000 174.500 H 205.400 C 205.200 174.500 205.400 174.700 205.400 174.500 V 169.700 C 205.400 169.590 205.310 169.500 205.200 169.500 H 195.200 C 195.090 169.500 195.000 169.590 195.000 169.700 V 174.500 C 195.000 174.700 195.200 174.500 195.000 174.500 H 185.400 C 185.200 174.500 185.400 174.700 185.400 174.500 V 169.700 C 185.400 169.590 185.310 169.500 185.200 169.500 H 175.200 C 175.090 169.500 175.000 169.590 175.000 169.700 V 174.500 C 175.000 174.700 175.200 174.500 175.000 174.500 H 165.400 C 165.200 174.500 165.400 174.700 165.400 174.500 V 169.700 C 165.400 169.590 165.310 169.500 165.200 169.500 H 155.200 C 155.090 169.500 155.000 169.590 155.000 169.700 V 174.500 C 155.000 174.700 155.200 174.500 155.000 174.500 H 145.400 C 145.200 174.500 145.400 174.700 145.400 174.500 V 169.700 C 145.400 169.590 145.310 169.500 145.200 169.500 H 135.200 C 135.090 169.500 135.000 169.590 135.000 169.700 V 174.500 C 135.000 174.700 135.200 174.500 135.000 174.500 H 125.400 C 125.200 174.500 125.400 174.700 125.400 174.500 V 169.700 C 125.400 169.590 125.310 169.500 125.200 169.500 H 115.200 C 115.090 169.500 115.000 169.590 115.000 169.700 V 174.500 C 115.000 174.700 115.200 174.500 115.000 174.500 H 105.400 C 105.200 174.500 105.400 174.700 105.400 174.500 V 169.700 C 105.400 169.590 105.310 169.500 105.200 169.500 H 95.200 C 95.090 169.500 95.000 169.590 95.000 169.700 V 174.500 C 95.000 174.700 95.200 174.500 95.000 174.500 H 85.400 C 85.200 174.500 85.400 174.700 85.400 174.500 V 169.700 C 85.400 169.590 85.310 169.500 85.200 169.500 H 75.200 C 75.090 169.500 75.000 169.590 75.000 169.700 V 174.500 C 75.000 174.700 75.200 174.500 75.000 174.500 H 65.400 C 65.200 174.500 65.400 174.700 65.400 174.500 V 169.700 C 65.400 169.590 65.310 169.500 65.200 169.500 H 55.200 C 55.090 169.500 55.000 169.590 55.000 169.700 V 174.500 C 55.000 174.700 55.200 174.500 55.000 174.500 H 45.400 C 45.200 174.500 45.400 174.700 45.400 174.500 V 169.700 C 45.400 169.590 45.310 169.500 45.200 169.500 H 35.200 C 35.090 169.500 35.000 169.590 35.000 169.700 V 174.500 C 35.000 174.700 35.200 174.500 35.000 174.500 H 25.400 C 25.200 174.500 25.400 174.700 25.400 174.500 V 169.700 C 25.400 169.590 25.310 169.500 25.200 169.500 H 15.200 C 15.090 169.500 15.000 169.590 15.000 169.700 V 177.000 C 15.000 177.200 15.200 177.000 15.000 177.000 H 10.200 C 10.090 177.000 10.000 177.090 10.000 177.200 V 187.200 C 10.000 187.310 10.090 187.400 10.200 187.400 H 15.000 C 15.200 187.400 15.000 187.200 15.000 187.400 V 194.700 C 15.000 194.810 15.090 194.900 15.200 194.900 Z" stroke="rgb(0,0,0)" stroke-width="0.40" />
  <text dominant-baseline="hanging" font-size="4px" style="font-family: sans-serif ; font-weight: normal; font-style: normal; fill: rgb(255,0,0)" text-anchor="middle" transform="matrix( 1.000 0.000 0.000 1.000 150.200 180.400 )">lid left</text>
</g>
<g id="p-9" style="fill:none;stroke-linecap:round;stroke-linejoin:round;">
  <path d="M 15.200 167.000 H 285.200 C 285.310 167.000 285.400 166.910 285.400 166.800 V 159.500 C 285.400 159.300 285.200 159.500 285.400 159.500 H 290.200 C 290.310 159.500 290.400 159.410 290.400 159.300 V 149.300 C 290.400 149.190 290.310 149.100 290.200 149.100 H 285.400 C 285.200 149.100 285.400 149.300 285.400 149.100 V 141.800 C 285.400 141.690 285.310 141.600 285.200 141.600 H 275.200 C 275.090 141.600 275.000 141.690 275.000 141.800 V 146.600 C 275.000 146.800 275.200 146.600 275.000 146.600 H 265.400 C 265.200 146.600 265.400 146.800 265.400 146.600 V 141.800 C 265.400 141.690 265.310 141.600 265.200 141.600 H 255.200 C 255.090 141.600 255.000 141.690 255.000 141.800 V 146.600 C 255.000 146.800 255.200 146.600 255.000 146.600 H 245.400 C 245.200 146.600 245.400 146.800 245.400 146.600 V 141.800 C 245.400 141.690 245.310 141.600 245.200 141.600 H 235.200 C 235.090 141.600 235.000 141.690 235.000 141.800 V 146.600 C 235.000 146.800 235.200 146.600 235.000 146.600 H 225.400 C 225.200 146.600 225.400 146.800 225.400 146.600 V 141.800 C 225.400 141.690 225.310 141.600 225.200 141.600 H 215.200 C 215.090 141.600 215.000 141.690 215.000 141.800 V 146.600 C 215.000 146.800 215.200 146.600 215.000 146.600 H 205.400 C 205.200 146.600 205.400 146.800 205.400 146.600 V 141.800 C 205.400 141.690 205.310 141.600 205.200 141.600 H 195.200 C 195.090 141.600 195.000 141.690 195.000 141.800 V 146.600 C 195.000 146.800 195.200 146.600 195.000 146.600 H 185.400 C 185.200 146.600 185.400 146.800 185.400 146.600 V 141.800 C 185.400 141.690 185.310 141.600 185.200 141.600 H 175.200 C 175.090 141.600 175.000 141.690 175.000 141.800 V 146.600 C 175.000 146.800 175.200 146.600 175.000 146.600 H 165.400 C 165.200 146.600 165.400 146.800 165.400 146.600 V 141.800 C 165.400 141.690 165.310 141.600 165.200 141.600 H 155.200 C 155.090 141.600 155.000 141.690 155.000 141.800 V 146.600 C 155.000 146.800 155.200 146.600 155.000 146.600 H 145.400 C 145.200 146.600 145.400 146.800 145.400 146.600 V 141.800 C 145.400 141.690 145.310 141.600 145.200 141.600 H 135.200 C 135.090 141.600 135.000 141.690 135.000 141.800 V 146.600 C 135.000 146.800 135.200 146.600 135.000 146.600 H 125.400 C 125.200 146.600 125.400 146.800 125.400 146.600 V 141.800 C 125.400 141.690 125.310 141.600 125.200 141.600 H 115.200 C 115.090 141.600 115.000 141.690 115.000 141.800 V 146.600 C 115.000 146.800 115.200 146.600 115.000 146.600 H 105.400 C 105.200 146.600 105.400 146.800 105.400 146.600 V 141.800 C 105.400 141.690 105.310 141.600 105.200 141.600 H 95.200 C 95.090 141.600 95.000 141.690 95.000 141.800 V 146.600 C 95.000 146.800 95.200 146.600 95.000 146.600 H 85.400 C 85.200 146.600 85.400 146.800 85.400 146.600 V 141.800 C 85.400 141.690 85.310 141.600 85.200 141.600 H 75.200 C 75.090 141.600 75.000 141.690 75.000 141.800 V 146.600 C 75.000 146.800 75.200 146.600 75.000 146.600 H 65.400 C 65.200 146.600 65.400 146.800 65.400 146.600 V 141.800 C 65.400 141.690 65.310 141.600 65.200 141.600 H 55.200 C 55.090 141.600 55.000 141.690 55.000 141.800 V 146.600 C 55.000 146.800 55.200 146.600 55.000 146.600 H 45.400 C 45.200 146.600 45.400 146.800 45.400 146.600 V 141.800 C 45.400 141.690 45.310 141.600 45.200 141.600 H 35.200 C 35.090 141.600 35.000 141.690 35.000 141.800 V 146.600 C 35.000 146.800 35.200 146.600 35.000 146.600 H 25.400 C 25.200 146.600 25.400 146.800 25.400 146.600 V 141.800 C 25.400 141.690 25.310 141.600 25.200 141.600 H 15.200 C 15.090 141.600 15.000 141.690 15.000 141.800 V 149.100 C 15.000 149.300 15.200 149.100 15.000 149.100 H 10.200 C 10.090 149.100 10.000 149.190 10.000 149.300 V 159.300 C 10.000 159.410 10.090 159.500 10.200 159.500 H 15.000 C 15.200 159.500 15.000 159.300 15.000 159.500 V 166.800 C 15.000 166.910 15.090 167.000 15.200 167.000 Z" stroke="rgb(0,0,0)" stroke-width="0.40" />
  <text dominant-baseline="hanging" font-size="4px" style="font-family: sans-serif ; font-weight: normal; font-style: normal; fill: rgb(255,0,0)" text-anchor="middle" transform="matrix( 1.000 0.000 0.000 1.000 150.200 152.500 )">lid right</text>
</g>
<g id="p-10" style="fill:none;stroke-linecap:round;stroke-linejoin:round;">
  <path d="M 15.200 139.100 H 25.200 C 26.113 139.100 27.010 138.860 27.800 138.403 C 28.590 137.947 29.247 137.290 29.703 136.500 C 30.160 135.710 30.400 134.813 30.400 133.900 V 108.900 C 30.400 108.790 30.310 108.700 30.200 108.700 H 10.200 C 10.090 108.700 10.000 108.790 10.000 108.900 V 133.900 C 10.000 134.813 10.240 135.710 10.697 136.500 C 11.153 137.290 11.810 137.947 12.600 138.403 C 13.390 138.860 14.287 139.100 15.200 139.100 Z" stroke="rgb(0,0,0)" stroke-width="0.40" />
  <text dominant-baseline="hanging" font-size="4px" style="font-family: sans-serif ; font-weight: normal; font-style: normal; fill: rgb(255,0,0)" text-anchor="middle" transform="matrix( 1.000 0.000 0.000 1.000 20.200 124.900 )">brim</text>
  <text dominant-baseline="hanging" font-size="4px" style="font-family: sans-serif ; font-weight: normal; font-style: normal; fill: rgb(255,0,0)" text-anchor="middle" transform="matrix( 1.000 0.000 0.000 1.000 20.200 119.300 )">lid</text>
</g>
<g id="p-11" style="fill:none;stroke-linecap:round;stroke-linejoin:round;">
  <path d="M 15.200 106.200 H 25.200 C 26.113 106.200 27.010 105.960 27.800 105.503 C 28.590 105.047 29.247 104.390 29.703 103.600 C 30.160 102.810 30.400 101.913 30.400 101.000 V 76.000 C 30.400 75.890 30.310 75.800 30.200 75.800 H 10.200 C 10.090 75.800 10.000 75.890 10.000 76.000 V 101.000 C 10.000 101.913 10.240 102.810 10.697 103.600 C 11.153 104.390 11.810 105.047 12.600 105.503 C 13.390 105.960 14.287 106.200 15.200 106.200 Z" stroke="rgb(0,0,0)" stroke-width="0.40" />
  <text dominant-baseline="hanging" font-size="4px" style="font-family: sans-serif ; font-weight: normal; font-style: normal; fill: rgb(255,0,0)" text-anchor="middle" transform="matrix( 1.000 0.000 0.000 1.000 20.200 92.000 )">brim</text>
  <text dominant-baseline="hanging" font-size="4px" style="font-family: sans-serif ; font-weight: normal; font-style: normal; fill: rgb(255,0,0)" text-anchor="middle" transform="matrix( 1.000 0.000 0.000 1.000 20.200 86.400 )">lid</text>
</g>
<g id="p-12" style="fill:none;stroke-linecap:round;stroke-linejoin:round;">
  <path d="M 15.200 73.300 H 25.200 C 26.113 73.300 27.010 73.060 27.800 72.603 C 28.590 72.147 29.247 71.490 29.703 70.700 C 30.160 69.910 30.400 69.013 30.400 68.100 V 43.100 C 30.400 42.990 30.310 42.900 30.200 42.900 H 10.200 C 10.090 42.900 10.000 42.990 10.000 43.100 V 68.100 C 10.000 69.013 10.240 69.910 10.697 70.700 C 11.153 71.490 11.810 72.147 12.600 72.603 C 13.390 73.060 14.287 73.300 15.200 73.300 Z" stroke="rgb(0,0,0)" stroke-width="0.40" />
  <text dominant-baseline="hanging" font-size="4px" style="font-family: sans-serif ; font-weight: normal; font-style: normal; fill: rgb(255,0,0)" text-anchor="middle" transform="matrix( 1.000 0.000 0.000 1.000 20.200 59.100 )">brim</text>
  <text dominant-baseline="hanging" font-size="4px" style="font-family: sans-serif ; font-weight: normal; font-style: normal; fill: rgb(255,0,0)" text-anchor="middle" transform="matrix( 1.000 0.000 0.000 1.000 20.200 53.500 )">lid</text>
</g>
<g id="p-13" style="fill:none;stroke-linecap:round;stroke-linejoin:round;">
  <path d="M 15.200 40.400 H 25.200 C 26.113 40.400 27.010 40.160 27.800 39.703 C 28.590 39.247 29.247 38.590 29.703 37.800 C 30.160 37.010 30.400 36.113 30.400 35.200 V 10.200 C 30.400 10.090 30.310 10.000 30.200 10.000 H 10.200 C 10.090 10.000 10.000 10.090 10.000 10.200 V 35.200 C 10.000 36.113 10.240 37.010 10.697 37.800 C 11.153 38.590 11.810 39.247 12.600 39.703 C 13.390 40.160 14.287 40.400 15.200 40.400 Z" stroke="rgb(0,0,0)" stroke-width="0.40" />
  <text dominant-baseline="hanging" font-size="4px" style="font-family: sans-serif ; font-weight: normal; font-style: normal; fill: rgb(255,0,0)" text-anchor="middle" transform="matrix( 1.000 0.000 0.000 1.000 20.200 26.200 )">brim</text>
  <text dominant-baseline="hanging" font-size="4px" style="font-family: sans-serif ; font-weight: normal; font-style: normal; fill: rgb(255,0,0)" text-anchor="middle" transform="matrix( 1.000 0.000 0.000 1.000 20.200 20.600 )">lid</text>
</g>
<g id="p-14" style="fill:none;stroke-linecap:round;stroke-linejoin:round;">
  <path d="M 298.100 900.200 H 316.400 C 316.600 900.200 316.400 900.000 316.400 900.200 V 905.000 C 316.400 905.110 316.490 905.200 316.600 905.200 H 326.600 C 326.710 905.200 326.800 905.110 326.800 905.000 V 900.200 C 326.800 900.000 326.600 900.200 326.800 900.200 H 336.400 C 336.600 900.200 336.400 900.000 336.400 900.200 V 905.000 C 336.400 905.110 336.490 905.200 336.600 905.200 H 346.600 C 346.710 905.200 346.800 905.110 346.800 905.000 V 900.200 C 346.800 900.000 346.600 900.200 346.800 900.200 H 365.100 C 365.210 900.200 365.300 900.110 365.300 900.000 V 890.200 C 365.300 890.000 365.100 890.200 365.300 890.200 H 370.100 C 370.210 890.200 370.300 890.110 370.300 890.000 V 880.000 C 370.300 879.890 370.210 879.800 370.100 879.800 H 365.300 C 365.100 879.800 365.300 880.000 365.300 879.800 V 870.200 C 365.300 870.000 365.100 870.200 365.300 870.200 H 370.100 C 370.210 870.200 370.300 870.110 370.300 870.000 V 860.000 C 370.300 859.890 370.210 859.800 370.100 859.800 H 365.300 C 365.100 859.800 365.300 860.000 365.300 859.800 V 850.200 C 365.300 850.000 365.100 850.200 365.300 850.200 H 370.100 C 370.210 850.200 370.300 850.110 370.300 850.000 V 840.000 C 370.300 839.890 370.210 839.800 370.100 839.800 H 365.300 C 365.100 839.800 365.300 840.000 365.300 839.800 V 830.200 C 365.300 830.000 365.100 830.200 365.300 830.200 H 370.100 C 370.210 830.200 370.300 830.110 370.300 830.000 V 820.000 C 370.300 819.890 370.210 819.800 370.100 819.800 H 365.300 C 365.100 819.800 365.300 820.000 365.300 819.800 V 810.200 C 365.300 810.000 365.100 810.200 365.300 810.200 H 370.100 C 370.210 810.200 370.300 810.110 370.300 810.000 V 800.000 C 370.300 799.890 370.210 799.800 370.100 799.800 H 365.300 C 365.100 799.800 365.300 800.000 365.300 799.800 V 790.200 C 365.300 790.000 365.100 790.200 365.300 790.200 H 370.100 C 370.210 790.200 370.300 790.110 370.300 790.000 V 780.000 C 370.300 779.890 370.210 779.800 370.100 779.800 H 365.300 C 365.100 779.800 365.300 780.000 365.300 779.800 V 770.200 C 365.300 770.000 365.100 770.200 365.300 770.200 H 370.100 C 370.210 770.200 370.300 770.110 370.300 770.000 V 760.000 C 370.300 759.890 370.210 759.800 370.100 759.800 H 365.300 C 365.100 759.800 365.300 760.000 365.300 759.800 V 750.200 C 365.300 750.000 365.100 750.200 365.300 750.200 H 370.100 C 370.210 750.200 370.300 750.110 370.300 750.000 V 740.000 C 370.300 739.890 370.210 739.800 370.100 739.800 H 365.300 C 365.100 739.800 365.300 740.000 365.300 739.800 V 730.200 C 365.300 730.000 365.100 730.200 365.300 730.200 H 370.100 C 370.210 730.200 370.300 730.110 370.300 730.000 V 720.000 C 370.300 719.890 370.210 719.800 370.100 719.800 H 365.300 C 365.100 719.800 365.300 720.000 365.300 719.800 V 710.200 C 365.300 710.000 365.100 710.200 365.300 710.200 H 370.100 C 370.210 710.200 370.300 710.110 370.300 710.000 V 700.000 C 370.300 699.890 370.210 699.800 370.100 699.800 H 365.300 C 365.100 699.800 365.300 700.000 365.300 699.800 V 690.200 C 365.300 690.000 365.100 690.200 365.300 690.200 H 370.100 C 370.210 690.200 370.300 690.110 370.300 690.000 V 680.000 C 370.300 679.890 370.210 679.800 370.100 679.800 H 365.300 C 365.100 679.800 365.300 680.000 365.300 679.800 V 670.200 C 365.300 670.000 365.100 670.200 365.300 670.200 H 370.100 C 370.210 670.200 370.300 670.110 370.300 670.000 V 660.000 C 370.300 659.890 370.210 659.800 370.100 659.800 H 365.300 C 365.100 659.800 365.300 660.000 365.300 659.800 V 650.200 C 365.300 650.000 365.100 650.200 365.300 650.200 H 370.100 C 370.210 650.200 370.300 650.110 370.300 650.000 V 640.000 C 370.300 639.890 370.210 639.800 370.100 639.800 H 365.300 C 365.100 639.800 365.300 640.000 365.300 639.800 V 630.000 C 365.300 629.890 365.210 629.800 365.100 629.800 H 346.800 C 346.600 629.800 346.800 630.000 346.800 629.800 V 625.000 C 346.800 624.890 346.710 624.800 346.600 624.800 H 336.600 C 336.490 624.800 336.400 624.890 336.400 625.000 V 629.800 C 336.400 630.000 336.600 629.800 336.400 629.800 H 326.800 C 326.600 629.800 326.800 630.000 326.800 629.800 V 625.000 C 326.800 624.890 326.710 624.800 326.600 624.800 H 316.600 C 316.490 624.800 316.400 624.890 316.400 625.000 V 629.800 C 316.400 630.000 316.600 629.800 316.400 629.800 H 298.100 C 297.990 629.800 297.900 629.890 297.900 630.000 V 639.800 C 297.900 640.000 298.100 639.800 297.900 639.800 H 293.100 C 292.990 639.800 292.900 639.890 292.900 640.000 V 650.000 C 292.900 650.110 292.990 650.200 293.100 650.200 H 297.900 C 298.100 650.200 297.900 650.000 297.900 650.200 V 659.800 C 297.900 660.000 298.100 659.800 297.900 659.800 H 293.100 C 292.990 659.800 292.900 659.890 292.900 660.000 V 670.000 C 292.900 670.110 292.990 670.200 293.100 670.200 H 297.900 C 298.100 670.200 297.900 670.000 297.900 670.200 V 679.800 C 297.900 680.000 298.100 679.800 297.900 679.800 H 293.100 C 292.990 679.800 292.900 679.890 292.900 680.000 V 690.000 C 292.900 690.110 292.990 690.200 293.100 690.200 H 297.900 C 298.100 690.200 297.900 690.000 297.900 690.200 V 699.800 C 297.900 700.000 298.100 699.800 297.900 699.800 H 293.100 C 292.990 699.800 292.900 699.890 292.900 700.000 V 710.000 C 292.900 710.110 292.990 710.200 293.100 710.200 H 297.900 C 298.100 710.200 297.900 710.000 297.900 710.200 V 719.800 C 297.900 720.000 298.100 719.800 297.900 719.800 H 293.100 C 292.990 719.800 292.900 719.890 292.900 720.000 V 730.000 C 292.900 730.110 292.990 730.200 293.100 730.200 H 297.900 C 298.100 730.200 297.900 730.000 297.900 730.200 V 739.800 C 297.900 740.000 298.100 739.800 297.900 739.800 H 293.100 C 292.990 739.800 292.900 739.890 292.900 740.000 V 750.000 C 292.900 750.110 292.990 750.200 293.100 750.200 H 297.900 C 298.100 750.200 297.900 750.000 297.900 750.200 V 759.800 C 297.900 760.000 298.100 759.800 297.900 759.800 H 293.100 C 292.990 759.800 292.900 759.890 292.900 760.000 V 770.000 C 292.900 770.110 292.990 770.200 293.100 770.200 H 297.900 C 298.100 770.200 297.900 770.000 297.900 770.200 V 779.800 C 297.900 780.000 298.100 779.800 297.900 779.800 H 293.100 C 292.990 779.800 292.900 779.890 292.900 780.000 V 790.000 C 292.900 790.110 292.990 790.200 293.100 790.200 H 297.900 C 298.100 790.200 297.900 790.000 297.900 790.200 V 799.800 C 297.900 800.000 298.100 799.800 297.900 799.800 H 293.100 C 292.990 799.800 292.900 799.890 292.900 800.000 V 810.000 C 292.900 810.110 292.990 810.200 293.100 810.200 H 297.900 C 298.100 810.200 297.900 810.000 297.900 810.200 V 819.800 C 297.900 820.000 298.100 819.800 297.900 819.800 H 293.100 C 292.990 819.800 292.900 819.890 292.900 820.000 V 830.000 C 292.900 830.110 292.990 830.200 293.100 830.200 H 297.900 C 298.100 830.200 297.900 830.000 297.900 830.200 V 839.800 C 297.900 840.000 298.100 839.800 297.900 839.800 H 293.100 C 292.990 839.800 292.900 839.890 292.900 840.000 V 850.000 C 292.900 850.110 292.990 850.200 293.100 850.200 H 297.900 C 298.100 850.200 297.900 850.000 297.900 850.200 V 859.800 C 297.900 860.000 298.100 859.800 297.900 859.800 H 293.100 C 292.990 859.800 292.900 859.890 292.900 860.000 V 870.000 C 292.900 870.110 292.990 870.200 293.100 870.200 H 297.900 C 298.100 870.200 297.900 870.000 297.900 870.200 V 879.800 C 297.900 880.000 298.100 879.800 297.900 879.800 H 293.100 C 292.990 879.800 292.900 879.890 292.900 880.000 V 890.000 C 292.900 890.110 292.990 890.200 293.100 890.200 H 297.900 C 298.100 890.200 297.900 890.000 297.900 890.200 V 900.000 C 297.900 900.110 297.990 900.200 298.100 900.200 Z" stroke="rgb(0,0,0)" stroke-width="0.40" />
  <text dominant-baseline="hanging" font-size="4px" style="font-family: sans-serif ; font-weight: normal; font-style: normal; fill: rgb(255,0,0)" text-anchor="middle" transform="matrix( 1.000 0.000 0.000 1.000 331.600 763.200 )">Bottom</text>
</g>
<g id="p-15" style="fill:none;stroke-linecap:round;stroke-linejoin:round;">
  <path d="M 293.100 622.300 H 298.050 H 314.383 C 314.594 622.300 314.801 622.245 314.983 622.139 C 315.166 622.034 315.317 621.882 315.423 621.700 C 315.528 621.518 315.583 621.311 315.583 621.100 V 605.100 C 315.583 603.731 315.944 602.386 316.628 601.200 C 317.313 600.014 318.298 599.030 319.483 598.345 C 320.669 597.660 322.014 597.300 323.383 597.300 H 339.717 C 341.086 597.300 342.431 597.660 343.617 598.345 C 344.802 599.030 345.787 600.014 346.472 601.200 C 347.156 602.386 347.517 603.731 347.517 605.100 V 621.100 C 347.517 621.311 347.572 621.518 347.677 621.700 C 347.783 621.882 347.934 622.034 348.117 622.139 C 348.299 622.245 348.506 622.300 348.717 622.300 H 365.050 H 370.000 C 370.110 622.300 370.200 622.210 370.200 622.100 V 582.100 C 370.200 581.990 370.110 581.900 370.000 581.900 H 365.200 C 365.000 581.900 365.200 582.100 365.200 581.900 V 526.837 C 365.200 526.727 365.110 526.637 365.000 526.637 H 298.100 C 297.990 526.637 297.900 526.727 297.900 526.837 V 581.900 C 297.900 582.100 298.100 581.900 297.900 581.900 H 293.100 C 292.990 581.900 292.900 581.990 292.900 582.100 V 622.100 C 292.900 622.210 292.990 622.300 293.100 622.300 Z" stroke="rgb(0,0,0)" stroke-width="0.40" />
  <text dominant-baseline="hanging" font-size="4px" style="font-family: sans-serif ; font-weight: normal; font-style: normal; fill: rgb(255,0,0)" text-anchor="middle" transform="matrix( 1.000 0.000 0.000 1.000 331.600 572.669 )">Divider</text>
</g>
<g id="p-16" style="fill:none;stroke-linecap:round;stroke-linejoin:round;">
  <path d="M 293.100 524.137 H 298.050 H 314.383 C 314.594 524.137 314.801 524.082 314.983 523.976 C 315.166 523.871 315.317 523.720 315.423 523.537 C 315.528 523.355 315.583 523.148 315.583 522.937 V 506.937 C 315.583 505.568 315.944 504.223 316.628 503.037 C 317.313 501.851 318.298 500.867 319.483 500.182 C 320.669 499.498 322.014 499.137 323.383 499.137 H 339.717 C 341.086 499.137 342.431 499.498 343.617 500.182 C 344.802 500.867 345.787 501.851 346.472 503.037 C 347.156 504.223 347.517 505.568 347.517 506.937 V 522.937 C 347.517 523.148 347.572 523.355 347.677 523.537 C 347.783 523.720 347.934 523.871 348.117 523.976 C 348.299 524.082 348.506 524.137 348.717 524.137 H 365.050 H 370.000 C 370.110 524.137 370.200 524.048 370.200 523.937 V 483.937 C 370.200 483.827 370.110 483.737 370.000 483.737 H 365.200 C 365.000 483.737 365.200 483.937 365.200 483.737 V 428.674 C 365.200 428.564 365.110 428.474 365.000 428.474 H 298.100 C 297.990 428.474 297.900 428.564 297.900 428.674 V 483.737 C 297.900 483.937 298.100 483.737 297.900 483.737 H 293.100 C 292.990 483.737 292.900 483.827 292.900 483.937 V 523.937 C 292.900 524.048 292.990 524.137 293.100 524.137 Z" stroke="rgb(0,0,0)" stroke-width="0.40" />
  <text dominant-baseline="hanging" font-size="4px" style="font-family: sans-serif ; font-weight: normal; font-style: normal; fill: rgb(255,0,0)" text-anchor="middle" transform="matrix( 1.000 0.000 0.000 1.000 331.600 474.506 )">Divider</text>
</g>
<g id="p-17" style="fill:none;stroke-linecap:round;stroke-linejoin:round;">
  <path d="M 293.100 425.974 H 295.550 H 311.883 C 312.094 425.974 312.301 425.919 312.483 425.814 C 312.666 425.708 312.817 425.557 312.923 425.374 C 313.028 425.192 313.083 424.985 313.083 424.774 V 408.774 C 313.083 407.405 313.444 406.060 314.128 404.874 C 314.813 403.689 315.798 402.704 316.983 402.019 C 318.169 401.335 319.514 400.974 320.883 400.974 H 337.217 C 338.586 400.974 339.931 401.335 341.117 402.019 C 342.302 402.704 343.287 403.689 343.972 404.874 C 344.656 406.060 345.017 407.405 345.017 408.774 V 424.774 C 345.017 424.985 345.072 425.192 345.177 425.374 C 345.283 425.557 345.434 425.708 345.617 425.814 C 345.799 425.919 346.006 425.974 346.217 425.974 H 362.550 H 365.000 C 365.110 425.974 365.200 425.885 365.200 425.774 V 385.774 C 365.200 385.664 365.110 385.574 365.000 385.574 H 362.700 C 362.500 385.574 362.700 385.774 362.700 385.574 V 330.512 C 362.700 330.401 362.610 330.312 362.500 330.312 H 295.600 C 295.490 330.312 295.400 330.401 295.400 330.512 V 385.574 C 295.400 385.774 295.600 385.574 295.400 385.574 H 293.100 C 292.990 385.574 292.900 385.664 292.900 385.774 V 425.774 C 292.900 425.885 292.990 425.974 293.100 425.974 Z" stroke="rgb(0,0,0)" stroke-width="0.40" />
  <text dominant-baseline="hanging" font-size="4px" style="font-family: sans-serif ; font-weight: normal; font-style: normal; fill: rgb(255,0,0)" text-anchor="middle" transform="matrix( 1.000 0.000 0.000 1.000 329.100 376.343 )">Divider</text>
</g>
<g id="p-18" style="fill:none;stroke-linecap:round;stroke-linejoin:round;">
  <path d="M 298.050 327.812 H 314.383 C 314.594 327.812 314.801 327.756 314.983 327.651 C 315.166 327.546 315.317 327.394 315.423 327.212 C 315.528 327.029 315.583 326.822 315.583 326.612 V 310.612 C 315.583 309.242 315.944 307.897 316.628 306.712 C 317.313 305.526 318.298 304.541 319.483 303.857 C 320.669 303.172 322.014 302.812 323.383 302.812 H 339.717 C 341.086 302.812 342.431 303.172 343.617 303.857 C 344.802 304.541 345.787 305.526 346.472 306.712 C 347.156 307.897 347.517 309.242 347.517 310.612 V 326.612 C 347.517 326.822 347.572 327.029 347.677 327.212 C 347.783 327.394 347.934 327.546 348.117 327.651 C 348.299 327.756 348.506 327.812 348.717 327.812 H 365.050 H 370.000 C 370.110 327.812 370.200 327.722 370.200 327.612 V 307.662 C 370.200 307.551 370.110 307.462 370.000 307.462 H 365.200 C 365.000 307.462 365.200 307.662 365.200 307.462 V 232.349 C 365.200 232.238 365.110 232.149 365.000 232.149 H 298.100 C 297.990 232.149 297.900 232.238 297.900 232.349 V 287.412 C 297.900 287.612 298.100 287.412 297.900 287.412 H 293.100 C 292.990 287.412 292.900 287.501 292.900 287.612 V 307.612 C 292.900 307.722 292.990 307.812 293.100 307.812 H 297.850 C 298.050 307.812 297.850 307.612 297.850 307.812 V 327.612 C 297.850 327.722 297.940 327.812 298.050 327.812 Z" stroke="rgb(0,0,0)" stroke-width="0.40" />
  <text dominant-baseline="hanging" font-size="4px" style="font-family: sans-serif ; font-weight: normal; font-style: normal; fill: rgb(255,0,0)" text-anchor="middle" transform="matrix( 1.000 0.000 0.000 1.000 331.600 278.180 )">Divider</text>
</g>
</svg>