<?xml version='1.0' encoding='utf-8'?>
<svg height="957.80mm" viewBox="0.0 0.0 380.30 957.80" width="380.30mm" xmlns="http://www.w3.org/2000/svg" xmlns:cc="http://creativecommons.org/ns#" xmlns:dc="http://purl.org/dc/elements/1.1/" xmlns:inkscape="http://www.inkscape.org/namespaces/inkscape" xmlns:rdf="http://www.w3.org/1999/02/22-rdf-syntax-ns#" xmlns:svg="http://www.w3.org/2000/svg" xmlns:xlink="http://www.w3.org/1999/xlink">
<!--
DividerTray - Divider tray - rows and dividers



Adding '0:' at the start of the sy parameter adds a slot at the very back. Adding ':0' at the end of sy adds a slot meeting the bottom at the very front. This is especially useful if slot angle is set above zero.

There are 4 different sets of dividers rendered:

* With asymmetric tabs so the tabs fit on top of each other
* With tabs of half wall thickness that can go side by side
* With tabs of a full wall thickness
* One single divider spanning across all columns

You will likely need to cut each of the dividers you want multiple times.



Created with Boxes.py (https://boxes.hackerspace-bamberg.de/)
Creation date: 2026-03-12 20:57:19
Command line (remove spaces between dashes): boxes DividerTray - -Lid_style=flat - -Slot_angle=30 - -Slot_depth=40 - -Notch_depth=25 - -sx=77 '- -sy=0:40*7:0' - -h=90 - -notches_in_wall=0 - -bottom=0 - -bottom=1 - -thickness=5 - -burn=0.2 - -reference=285 - -spacing=0.5
Url: https://boxes.hackerspace-bamberg.de/DividerTray?FingerJoint_style=rectangular&FingerJoint_surroundingspaces=2.0&FingerJoint_bottom_lip=0.0&FingerJoint_edge_width=1.0&FingerJoint_extra_length=0.0&FingerJoint_finger=2.0&FingerJoint_play=0.0&FingerJoint_space=2.0&FingerJoint_width=1.0&HandleEdge_height=20&HandleEdge_hole_height=75.0&HandleEdge_hole_width=40%3A40&HandleEdge_on_sides=0&HandleEdge_on_sides=1&HandleEdge_radius=10.0&HandleEdge_outset=1.0&Lid_handle=none&Lid_style=flat&Lid_handle_height=8&Lid_height=4&Lid_play=0.1&Slot_angle=30&Slot_depth=40&Slot_extra_slack=0.2&Slot_radius=2&Notch_depth=25&Notch_lower_radius=8&Notch_upper_radius=1&Divider_bottom_margin=0&Divider_play=0.05&sx=77&sy=0%3A40*7%3A0&h=90&outside=0&outside=1&notches_in_wall=0&left_wall=0&left_wall=1&right_wall=0&right_wall=1&bottom=0&bottom=1&handle=0&thickness=5&burn=0.2&format=svg&labels=0&labels=1&reference=285&tabs=0.0&qr_code=0&inner_corners=loop&spacing=0.5&debug=0&language=en&render=2
Url short: https://boxes.hackerspace-bamberg.de/DividerTray?Lid_style=flat&Slot_angle=30&Slot_depth=40&Notch_depth=25&sx=77&sy=0%3A40*7%3A0&h=90&notches_in_wall=0&bottom=0&bottom=1&thickness=5&burn=0.2&reference=285&spacing=0.5
SettingsUrl: https://boxes.hackerspace-bamberg.de/DividerTray?FingerJoint_style=rectangular&FingerJoint_surroundingspaces=2.0&FingerJoint_bottom_lip=0.0&FingerJoint_edge_width=1.0&FingerJoint_extra_length=0.0&FingerJoint_finger=2.0&FingerJoint_play=0.0&FingerJoint_space=2.0&FingerJoint_width=1.0&HandleEdge_height=20&HandleEdge_hole_height=75.0&HandleEdge_hole_width=40%3A40&HandleEdge_on_sides=0&HandleEdge_on_sides=1&HandleEdge_radius=10.0&HandleEdge_outset=1.0&Lid_handle=none&Lid_style=flat&Lid_handle_height=8&Lid_height=4&Lid_play=0.1&Slot_angle=30&Slot_depth=40&Slot_extra_slack=0.2&Slot_radius=2&Notch_depth=25&Notch_lower_radius=8&Notch_upper_radius=1&Divider_bottom_margin=0&Divider_play=0.05&sx=77&sy=0%3A40*7%3A0&h=90&outside=0&outside=1&notches_in_wall=0&left_wall=0&left_wall=1&right_wall=0&right_wall=1&bottom=0&bottom=1&handle=0&thickness=5&burn=0.2&format=svg&labels=0&labels=1&reference=285&tabs=0.0&qr_code=0&inner_corners=loop&spacing=0.5&debug=0&language=en&render=2
SettingsUrl short: https://boxes.hackerspace-bamberg.de/DividerTray?Lid_style=flat&Slot_angle=30&Slot_depth=40&Notch_depth=25&sx=77&sy=0%3A40*7%3A0&h=90&notches_in_wall=0&bottom=0&bottom=1&thickness=5&burn=0.2&reference=285&spacing=0.5
-->
<title>DividerTray</title>
<metadata>
<rdf:RDF><cc:Work>
<dc:title>Tray - DividerTray</dc:title>
<dc:date>2026-03-12 20:57:19</dc:date>
<dc:source>https://boxes.hackerspace-bamberg.de/DividerTray?FingerJoint_style=rectangular&amp;FingerJoint_surroundingspaces=2.0&amp;FingerJoint_bottom_lip=0.0&amp;FingerJoint_edge_width=1.0&amp;FingerJoint_extra_length=0.0&amp;FingerJoint_finger=2.0&amp;FingerJoint_play=0.0&amp;FingerJoint_space=2.0&amp;FingerJoint_width=1.0&amp;HandleEdge_height=20&amp;HandleEdge_hole_height=75.0&amp;HandleEdge_hole_width=40%3A40&amp;HandleEdge_on_sides=0&amp;HandleEdge_on_sides=1&amp;HandleEdge_radius=10.0&amp;HandleEdge_outset=1.0&amp;Lid_handle=none&amp;Lid_style=flat&amp;Lid_handle_height=8&amp;Lid_height=4&amp;Lid_play=0.1&amp;Slot_angle=30&amp;Slot_depth=40&amp;Slot_extra_slack=0.2&amp;Slot_radius=2&amp;Notch_depth=25&amp;Notch_lower_radius=8&amp;Notch_upper_radius=1&amp;Divider_bottom_margin=0&amp;Divider_play=0.05&amp;sx=77&amp;sy=0%3A40*7%3A0&amp;h=90&amp;outside=0&amp;outside=1&amp;notches_in_wall=0&amp;left_wall=0&amp;left_wall=1&amp;right_wall=0&amp;right_wall=1&amp;bottom=0&amp;bottom=1&amp;handle=0&amp;thickness=5&amp;burn=0.2&amp;format=svg&amp;labels=0&amp;labels=1&amp;reference=285&amp;tabs=0.0&amp;qr_code=0&amp;inner_corners=loop&amp;spacing=0.5&amp;debug=0&amp;language=en&amp;render=2</dc:source>
<dc:source>https://boxes.hackerspace-bamberg.de/DividerTray?Lid_style=flat&amp;Slot_angle=30&amp;Slot_depth=40&amp;Notch_depth=25&amp;sx=77&amp;sy=0%3A40*7%3A0&amp;h=90&amp;notches_in_wall=0&amp;bottom=0&amp;bottom=1&amp;thickness=5&amp;burn=0.2&amp;reference=285&amp;spacing=0.5</dc:source>
<dc:description>Divider tray - rows and dividers


Adding '0:' at the start of the sy parameter adds a slot at the very back. Adding ':0' at the end of sy adds a slot meeting the bottom at the very front. This is especially useful if slot angle is set above zero.

There are 4 different sets of dividers rendered:

* With asymmetric tabs so the tabs fit on top of each other
* With tabs of half wall thickness that can go side by side
* With tabs of a full wall thickness
* One single divider spanning across all columns

You will likely need to cut each of the dividers you want multiple times.


Created with Boxes.py (https://boxes.hackerspace-bamberg.de/)
Command line: boxes DividerTray --FingerJoint_style=rectangular --FingerJoint_surroundingspaces=2.0 --FingerJoint_bottom_lip=0.0 --FingerJoint_edge_width=1.0 --FingerJoint_extra_length=0.0 --FingerJoint_finger=2.0 --FingerJoint_play=0.0 --FingerJoint_space=2.0 --FingerJoint_width=1.0 --HandleEdge_height=20 --HandleEdge_hole_height=75.0 --HandleEdge_hole_width=40:40 --HandleEdge_on_sides=0 --HandleEdge_on_sides=1 --HandleEdge_radius=10.0 --HandleEdge_outset=1.0 --Lid_handle=none --Lid_style=flat --Lid_handle_height=8 --Lid_height=4 --Lid_play=0.1 --Slot_angle=30 --Slot_depth=40 --Slot_extra_slack=0.2 --Slot_radius=2 --Notch_depth=25 --Notch_lower_radius=8 --Notch_upper_radius=1 --Divider_bottom_margin=0 --Divider_play=0.05 --sx=77 '--sy=0:40*7:0' --h=90 --outside=0 --outside=1 --notches_in_wall=0 --left_wall=0 --left_wall=1 --right_wall=0 --right_wall=1 --bottom=0 --bottom=1 --handle=0 --thickness=5 --burn=0.2 --format=svg --labels=0 --labels=1 --reference=285 --tabs=0.0 --qr_code=0 --inner_corners=loop --spacing=0.5 --debug=0
Command line short: boxes DividerTray --Lid_style=flat --Slot_angle=30 --Slot_depth=40 --Notch_depth=25 --sx=77 '--sy=0:40*7:0' --h=90 --notches_in_wall=0 --bottom=0 --bottom=1 --thickness=5 --burn=0.2 --reference=285 --spacing=0.5
Url: https://boxes.hackerspace-bamberg.de/DividerTray?FingerJoint_style=rectangular&amp;FingerJoint_surroundingspaces=2.0&amp;FingerJoint_bottom_lip=0.0&amp;FingerJoint_edge_width=1.0&amp;FingerJoint_extra_length=0.0&amp;FingerJoint_finger=2.0&amp;FingerJoint_play=0.0&amp;FingerJoint_space=2.0&amp;FingerJoint_width=1.0&amp;HandleEdge_height=20&amp;HandleEdge_hole_height=75.0&amp;HandleEdge_hole_width=40%3A40&amp;HandleEdge_on_sides=0&amp;HandleEdge_on_sides=1&amp;HandleEdge_radius=10.0&amp;HandleEdge_outset=1.0&amp;Lid_handle=none&amp;Lid_style=flat&amp;Lid_handle_height=8&amp;Lid_height=4&amp;Lid_play=0.1&amp;Slot_angle=30&amp;Slot_depth=40&amp;Slot_extra_slack=0.2&amp;Slot_radius=2&amp;Notch_depth=25&amp;Notch_lower_radius=8&amp;Notch_upper_radius=1&amp;Divider_bottom_margin=0&amp;Divider_play=0.05&amp;sx=77&amp;sy=0%3A40*7%3A0&amp;h=90&amp;outside=0&amp;outside=1&amp;notches_in_wall=0&amp;left_wall=0&amp;left_wall=1&amp;right_wall=0&amp;right_wall=1&amp;bottom=0&amp;bottom=1&amp;handle=0&amp;thickness=5&amp;burn=0.2&amp;format=svg&amp;labels=0&amp;labels=1&amp;reference=285&amp;tabs=0.0&amp;qr_code=0&amp;inner_corners=loop&amp;spacing=0.5&amp;debug=0&amp;language=en&amp;render=2
Url short: https://boxes.hackerspace-bamberg.de/DividerTray?Lid_style=flat&amp;Slot_angle=30&amp;Slot_depth=40&amp;Notch_depth=25&amp;sx=77&amp;sy=0%3A40*7%3A0&amp;h=90&amp;notches_in_wall=0&amp;bottom=0&amp;bottom=1&amp;thickness=5&amp;burn=0.2&amp;reference=285&amp;spacing=0.5
SettingsUrl: https://boxes.hackerspace-bamberg.de/DividerTray?FingerJoint_style=rectangular&amp;FingerJoint_surroundingspaces=2.0&amp;FingerJoint_bottom_lip=0.0&amp;FingerJoint_edge_width=1.0&amp;FingerJoint_extra_length=0.0&amp;FingerJoint_finger=2.0&amp;FingerJoint_play=0.0&amp;FingerJoint_space=2.0&amp;FingerJoint_width=1.0&amp;HandleEdge_height=20&amp;HandleEdge_hole_height=75.0&amp;HandleEdge_hole_width=40%3A40&amp;HandleEdge_on_sides=0&amp;HandleEdge_on_sides=1&amp;HandleEdge_radius=10.0&amp;HandleEdge_outset=1.0&amp;Lid_handle=none&amp;Lid_style=flat&amp;Lid_handle_height=8&amp;Lid_height=4&amp;Lid_play=0.1&amp;Slot_angle=30&amp;Slot_depth=40&amp;Slot_extra_slack=0.2&amp;Slot_radius=2&amp;Notch_depth=25&amp;Notch_lower_radius=8&amp;Notch_upper_radius=1&amp;Divider_bottom_margin=0&amp;Divider_play=0.05&amp;sx=77&amp;sy=0%3A40*7%3A0&amp;h=90&amp;outside=0&amp;outside=1&amp;notches_in_wall=0&amp;left_wall=0&amp;left_wall=1&amp;right_wall=0&amp;right_wall=1&amp;bottom=0&amp;bottom=1&amp;handle=0&amp;thickness=5&amp;burn=0.2&amp;format=svg&amp;labels=0&amp;labels=1&amp;reference=285&amp;tabs=0.0&amp;qr_code=0&amp;inner_corners=loop&amp;spacing=0.5&amp;debug=0&amp;language=en&amp;render=2
SettingsUrl short: https://boxes.hackerspace-bamberg.de/DividerTray?Lid_style=flat&amp;Slot_angle=30&amp;Slot_depth=40&amp;Notch_depth=25&amp;sx=77&amp;sy=0%3A40*7%3A0&amp;h=90&amp;notches_in_wall=0&amp;bottom=0&amp;bottom=1&amp;thickness=5&amp;burn=0.2&amp;reference=285&amp;spacing=0.5
</dc:description>
</cc:Work></rdf:RDF></metadata>
<g id="p-0" style="fill:none;stroke-linecap:round;stroke-linejoin:round;">
  <path d="M 10.200 947.800 H 295.200 V 937.800 H 10.200 V 947.800 Z" stroke="rgb(0,0,0)" stroke-width="0.40" />
  <text dominant-baseline="hanging" font-size="6px" style="font-family: sans-serif ; font-weight: normal; font-style: normal; fill: rgb(255,0,0)" text-anchor="middle" transform="matrix( 1.000 0.000 0.000 1.000 152.700 939.800 )">285.0mm, burn:0.20mm</text>
</g>
<g id="p-1" style="fill:none;stroke-linecap:round;stroke-linejoin:round;">
  <path d="M 15.200 934.900 H 33.700 C 33.810 934.900 33.900 934.810 33.900 934.700 V 929.900 C 33.900 929.700 33.700 929.900 33.900 929.900 H 43.500 C 43.700 929.900 43.500 929.700 43.500 929.900 V 934.700 C 43.500 934.810 43.590 934.900 43.700 934.900 H 53.700 C 53.810 934.900 53.900 934.810 53.900 934.700 V 929.900 C 53.900 929.700 53.700 929.900 53.900 929.900 H 63.500 C 63.700 929.900 63.500 929.700 63.500 929.900 V 934.700 C 63.500 934.810 63.590 934.900 63.700 934.900 H 82.200 H 87.200 C 87.310 934.900 87.400 934.810 87.400 934.700 V 929.700 V 912.200 C 87.400 912.090 87.310 912.000 87.200 912.000 H 82.400 C 82.200 912.000 82.400 912.200 82.400 912.000 V 902.400 C 82.400 902.200 82.200 902.400 82.400 902.400 H 87.200 C 87.310 902.400 87.400 902.310 87.400 902.200 V 892.200 C 87.400 892.090 87.310 892.000 87.200 892.000 H 82.400 C 82.200 892.000 82.400 892.200 82.400 892.000 V 882.400 C 82.400 882.200 82.200 882.400 82.400 882.400 H 87.200 C 87.310 882.400 87.400 882.310 87.400 882.200 V 872.200 C 87.400 872.090 87.310 872.000 87.200 872.000 H 82.400 C 82.200 872.000 82.400 872.200 82.400 872.000 V 862.400 C 82.400 862.200 82.200 862.400 82.400 862.400 H 87.200 C 87.310 862.400 87.400 862.310 87.400 862.200 V 844.700 C 87.400 844.590 87.310 844.500 87.200 844.500 H 82.200 H 15.200 H 10.200 C 10.090 844.500 10.000 844.590 10.000 844.700 V 862.200 C 10.000 862.310 10.090 862.400 10.200 862.400 H 15.000 C 15.200 862.400 15.000 862.200 15.000 862.400 V 872.000 C 15.000 872.200 15.200 872.000 15.000 872.000 H 10.200 C 10.090 872.000 10.000 872.090 10.000 872.200 V 882.200 C 10.000 882.310 10.090 882.400 10.200 882.400 H 15.000 C 15.200 882.400 15.000 882.200 15.000 882.400 V 892.000 C 15.000 892.200 15.200 892.000 15.000 892.000 H 10.200 C 10.090 892.000 10.000 892.090 10.000 892.200 V 902.200 C 10.000 902.310 10.090 902.400 10.200 902.400 H 15.000 C 15.200 902.400 15.000 902.200 15.000 902.400 V 912.000 C 15.000 912.200 15.200 912.000 15.000 912.000 H 10.200 C 10.090 912.000 10.000 912.090 10.000 912.200 V 929.700 V 934.700 C 10.000 934.810 10.090 934.900 10.200 934.900 H 15.200 Z" stroke="rgb(0,0,0)" stroke-width="0.40" />
  <text dominant-baseline="hanging" font-size="4px" style="font-family: sans-serif ; font-weight: normal; font-style: normal; fill: rgb(255,0,0)" text-anchor="middle" transform="matrix( 1.000 0.000 0.000 1.000 48.700 887.900 )">Back</text>
</g>
<g id="p-2" style="fill:none;stroke-linecap:round;stroke-linejoin:round;">
  <path d="M 15.200 842.000 H 33.700 C 33.810 842.000 33.900 841.910 33.900 841.800 V 837.000 C 33.900 836.800 33.700 837.000 33.900 837.000 H 43.500 C 43.700 837.000 43.500 836.800 43.500 837.000 V 841.800 C 43.500 841.910 43.590 842.000 43.700 842.000 H 53.700 C 53.810 842.000 53.900 841.910 53.900 841.800 V 837.000 C 53.900 836.800 53.700 837.000 53.900 837.000 H 63.500 C 63.700 837.000 63.500 836.800 63.500 837.000 V 841.800 C 63.500 841.910 63.590 842.000 63.700 842.000 H 82.200 H 87.200 C 87.310 842.000 87.400 841.910 87.400 841.800 V 836.800 V 819.300 C 87.400 819.190 87.310 819.100 87.200 819.100 H 82.400 C 82.200 819.100 82.400 819.300 82.400 819.100 V 809.500 C 82.400 809.300 82.200 809.500 82.400 809.500 H 87.200 C 87.310 809.500 87.400 809.410 87.400 809.300 V 799.300 C 87.400 799.190 87.310 799.100 87.200 799.100 H 82.400 C 82.200 799.100 82.400 799.300 82.400 799.100 V 789.500 C 82.400 789.300 82.200 789.500 82.400 789.500 H 87.200 C 87.310 789.500 87.400 789.410 87.400 789.300 V 779.300 C 87.400 779.190 87.310 779.100 87.200 779.100 H 82.400 C 82.200 779.100 82.400 779.300 82.400 779.100 V 769.500 C 82.400 769.300 82.200 769.500 82.400 769.500 H 87.200 C 87.310 769.500 87.400 769.410 87.400 769.300 V 751.800 C 87.400 751.690 87.310 751.600 87.200 751.600 H 82.200 H 15.200 H 10.200 C 10.090 751.600 10.000 751.690 10.000 751.800 V 769.300 C 10.000 769.410 10.090 769.500 10.200 769.500 H 15.000 C 15.200 769.500 15.000 769.300 15.000 769.500 V 779.100 C 15.000 779.300 15.200 779.100 15.000 779.100 H 10.200 C 10.090 779.100 10.000 779.190 10.000 779.300 V 789.300 C 10.000 789.410 10.090 789.500 10.200 789.500 H 15.000 C 15.200 789.500 15.000 789.300 15.000 789.500 V 799.100 C 15.000 799.300 15.200 799.100 15.000 799.100 H 10.200 C 10.090 799.100 10.000 799.190 10.000 799.300 V 809.300 C 10.000 809.410 10.090 809.500 10.200 809.500 H 15.000 C 15.200 809.500 15.000 809.300 15.000 809.500 V 819.100 C 15.000 819.300 15.200 819.100 15.000 819.100 H 10.200 C 10.090 819.100 10.000 819.190 10.000 819.300 V 836.800 V 841.800 C 10.000 841.910 10.090 842.000 10.200 842.000 H 15.200 Z" stroke="rgb(0,0,0)" stroke-width="0.40" />
  <text dominant-baseline="hanging" font-size="4px" style="font-family: sans-serif ; font-weight: normal; font-style: normal; fill: rgb(255,0,0)" text-anchor="middle" transform="matrix( 1.000 0.000 0.000 1.000 48.700 795.000 )">Front</text>
</g>
<g id="p-3" style="fill:none;stroke-linecap:round;stroke-linejoin:round;">
  <path d="M 15.200 749.100 H 25.200 C 25.310 749.100 25.400 749.010 25.400 748.900 V 744.100 C 25.400 743.900 25.200 744.100 25.400 744.100 H 35.000 C 35.200 744.100 35.000 743.900 35.000 744.100 V 748.900 C 35.000 749.010 35.090 749.100 35.200 749.100 H 45.200 C 45.310 749.100 45.400 749.010 45.400 748.900 V 744.100 C 45.400 743.900 45.200 744.100 45.400 744.100 H 55.000 C 55.200 744.100 55.000 743.900 55.000 744.100 V 748.900 C 55.000 749.010 55.090 749.100 55.200 749.100 H 65.200 C 65.310 749.100 65.400 749.010 65.400 748.900 V 744.100 C 65.400 743.900 65.200 744.100 65.400 744.100 H 75.000 C 75.200 744.100 75.000 743.900 75.000 744.100 V 748.900 C 75.000 749.010 75.090 749.100 75.200 749.100 H 85.200 C 85.310 749.100 85.400 749.010 85.400 748.900 V 744.100 C 85.400 743.900 85.200 744.100 85.400 744.100 H 95.000 C 95.200 744.100 95.000 743.900 95.000 744.100 V 748.900 C 95.000 749.010 95.090 749.100 95.200 749.100 H 105.200 C 105.310 749.100 105.400 749.010 105.400 748.900 V 744.100 C 105.400 743.900 105.200 744.100 105.400 744.100 H 115.000 C 115.200 744.100 115.000 743.900 115.000 744.100 V 748.900 C 115.000 749.010 115.090 749.100 115.200 749.100 H 125.200 C 125.310 749.100 125.400 749.010 125.400 748.900 V 744.100 C 125.400 743.900 125.200 744.100 125.400 744.100 H 135.000 C 135.200 744.100 135.000 743.900 135.000 744.100 V 748.900 C 135.000 749.010 135.090 749.100 135.200 749.100 H 145.200 C 145.310 749.100 145.400 749.010 145.400 748.900 V 744.100 C 145.400 743.900 145.200 744.100 145.400 744.100 H 155.000 C 155.200 744.100 155.000 743.900 155.000 744.100 V 748.900 C 155.000 749.010 155.090 749.100 155.200 749.100 H 165.200 C 165.310 749.100 165.400 749.010 165.400 748.900 V 744.100 C 165.400 743.900 165.200 744.100 165.400 744.100 H 175.000 C 175.200 744.100 175.000 743.900 175.000 744.100 V 748.900 C 175.000 749.010 175.090 749.100 175.200 749.100 H 185.200 C 185.310 749.100 185.400 749.010 185.400 748.900 V 744.100 C 185.400 743.900 185.200 744.100 185.400 744.100 H 195.000 C 195.200 744.100 195.000 743.900 195.000 744.100 V 748.900 C 195.000 749.010 195.090 749.100 195.200 749.100 H 205.200 C 205.310 749.100 205.400 749.010 205.400 748.900 V 744.100 C 205.400 743.900 205.200 744.100 205.400 744.100 H 215.000 C 215.200 744.100 215.000 743.900 215.000 744.100 V 748.900 C 215.000 749.010 215.090 749.100 215.200 749.100 H 225.200 C 225.310 749.100 225.400 749.010 225.400 748.900 V 744.100 C 225.400 743.900 225.200 744.100 225.400 744.100 H 235.000 C 235.200 744.100 235.000 743.900 235.000 744.100 V 748.900 C 235.000 749.010 235.090 749.100 235.200 749.100 H 245.200 C 245.310 749.100 245.400 749.010 245.400 748.900 V 744.100 C 245.400 743.900 245.200 744.100 245.400 744.100 H 255.000 C 255.200 744.100 255.000 743.900 255.000 744.100 V 748.900 C 255.000 749.010 255.090 749.100 255.200 749.100 H 265.200 C 265.310 749.100 265.400 749.010 265.400 748.900 V 744.100 C 265.400 743.900 265.200 744.100 265.400 744.100 H 275.000 C 275.200 744.100 275.000 743.900 275.000 744.100 V 748.900 C 275.000 749.010 275.090 749.100 275.200 749.100 H 285.200 C 285.310 749.100 285.400 749.010 285.400 748.900 V 743.900 V 726.600 C 285.400 726.400 285.200 726.600 285.400 726.600 H 290.200 C 290.310 726.600 290.400 726.510 290.400 726.400 V 716.400 C 290.400 716.290 290.310 716.200 290.200 716.200 H 285.400 C 285.200 716.200 285.400 716.400 285.400 716.200 V 706.600 C 285.400 706.400 285.200 706.600 285.400 706.600 H 290.200 C 290.310 706.600 290.400 706.510 290.400 706.400 V 696.400 C 290.400 696.290 290.310 696.200 290.200 696.200 H 285.400 C 285.200 696.200 285.400 696.400 285.400 696.200 V 686.600 C 285.400 686.400 285.200 686.600 285.400 686.600 H 290.200 C 290.310 686.600 290.400 686.510 290.400 686.400 V 676.400 C 290.400 676.290 290.310 676.200 290.200 676.200 H 285.400 C 285.200 676.200 285.400 676.400 285.400 676.200 V 658.900 C 285.400 658.790 285.310 658.700 285.200 658.700 C 285.129 658.700 285.063 658.738 285.027 658.800 L 263.626 695.868 C 263.526 696.041 263.799 695.968 263.626 695.868 L 259.469 693.468 C 259.296 693.368 259.369 693.641 259.469 693.468 L 277.637 662.000 C 277.830 661.666 277.931 661.286 277.931 660.900 C 277.931 660.514 277.830 660.134 277.637 659.800 C 277.444 659.466 277.166 659.188 276.831 658.995 C 276.497 658.802 276.118 658.700 275.731 658.700 H 255.652 C 255.266 658.700 254.886 658.802 254.552 658.995 C 254.217 659.188 253.940 659.466 253.746 659.800 L 232.923 695.868 C 232.823 696.041 233.096 695.968 232.923 695.868 L 228.766 693.468 C 228.593 693.368 228.666 693.641 228.766 693.468 L 246.934 662.000 C 247.127 661.666 247.228 661.286 247.228 660.900 C 247.228 660.514 247.127 660.134 246.934 659.800 C 246.741 659.466 246.463 659.188 246.128 658.995 C 245.794 658.802 245.415 658.700 245.028 658.700 H 224.949 C 224.563 658.700 224.183 658.802 223.849 658.995 C 223.514 659.188 223.237 659.466 223.044 659.800 L 202.220 695.868 C 202.120 696.041 202.393 695.968 202.220 695.868 L 198.063 693.468 C 197.890 693.368 197.963 693.641 198.063 693.468 L 216.231 662.000 C 216.424 661.666 216.526 661.286 216.526 660.900 C 216.526 660.514 216.424 660.134 216.231 659.800 C 216.038 659.466 215.760 659.188 215.426 658.995 C 215.091 658.802 214.712 658.700 214.326 658.700 H 194.246 C 193.860 658.700 193.480 658.802 193.146 658.995 C 192.811 659.188 192.534 659.466 192.341 659.800 L 171.517 695.868 C 171.417 696.041 171.690 695.968 171.517 695.868 L 167.360 693.468 C 167.187 693.368 167.260 693.641 167.360 693.468 L 185.528 662.000 C 185.721 661.666 185.823 661.286 185.823 660.900 C 185.823 660.514 185.721 660.134 185.528 659.800 C 185.335 659.466 185.057 659.188 184.723 658.995 C 184.388 658.802 184.009 658.700 183.623 658.700 H 163.543 C 163.157 658.700 162.777 658.802 162.443 658.995 C 162.108 659.188 161.831 659.466 161.638 659.800 L 140.814 695.868 C 140.714 696.041 140.987 695.968 140.814 695.868 L 136.657 693.468 C 136.484 693.368 136.557 693.641 136.657 693.468 L 154.825 662.000 C 155.018 661.666 155.120 661.286 155.120 660.900 C 155.120 660.514 155.018 660.134 154.825 659.800 C 154.632 659.466 154.354 659.188 154.020 658.995 C 153.685 658.802 153.306 658.700 152.920 658.700 H 132.840 C 132.454 658.700 132.074 658.802 131.740 658.995 C 131.405 659.188 131.128 659.466 130.935 659.800 L 110.111 695.868 C 110.011 696.041 110.284 695.968 110.111 695.868 L 105.954 693.468 C 105.781 693.368 105.854 693.641 105.954 693.468 L 124.122 662.000 C 124.315 661.666 124.417 661.286 124.417 660.900 C 124.417 660.514 124.315 660.134 124.122 659.800 C 123.929 659.466 123.651 659.188 123.317 658.995 C 122.982 658.802 122.603 658.700 122.217 658.700 H 102.137 C 101.751 658.700 101.371 658.802 101.037 658.995 C 100.702 659.188 100.425 659.466 100.232 659.800 L 79.408 695.868 C 79.308 696.041 79.581 695.968 79.408 695.868 L 75.251 693.468 C 75.078 693.368 75.151 693.641 75.251 693.468 L 93.419 662.000 C 93.612 661.666 93.714 661.286 93.714 660.900 C 93.714 660.514 93.612 660.134 93.419 659.800 C 93.226 659.466 92.948 659.188 92.614 658.995 C 92.279 658.802 91.900 658.700 91.514 658.700 H 71.434 C 71.048 658.700 70.668 658.802 70.334 658.995 C 69.999 659.188 69.722 659.466 69.529 659.800 L 48.705 695.868 C 48.605 696.041 48.878 695.968 48.705 695.868 L 44.548 693.468 C 44.375 693.368 44.448 693.641 44.548 693.468 L 62.716 662.000 C 62.909 661.666 63.011 661.286 63.011 660.900 C 63.011 660.514 62.909 660.134 62.716 659.800 C 62.523 659.466 62.245 659.188 61.911 658.995 C 61.576 658.802 61.197 658.700 60.811 658.700 H 15.200 C 15.090 658.700 15.000 658.790 15.000 658.900 V 676.200 C 15.000 676.400 15.200 676.200 15.000 676.200 H 10.200 C 10.090 676.200 10.000 676.290 10.000 676.400 V 686.400 C 10.000 686.510 10.090 686.600 10.200 686.600 H 15.000 C 15.200 686.600 15.000 686.400 15.000 686.600 V 696.200 C 15.000 696.400 15.200 696.200 15.000 696.200 H 10.200 C 10.090 696.200 10.000 696.290 10.000 696.400 V 706.400 C 10.000 706.510 10.090 706.600 10.200 706.600 H 15.000 C 15.200 706.600 15.000 706.400 15.000 706.600 V 716.200 C 15.000 716.400 15.200 716.200 15.000 716.200 H 10.200 C 10.090 716.200 10.000 716.290 10.000 716.400 V 726.400 C 10.000 726.510 10.090 726.600 10.200 726.600 H 15.000 C 15.200 726.600 15.000 726.400 15.000 726.600 V 743.900 V 748.900 C 15.000 749.010 15.090 749.100 15.200 749.100 Z" stroke="rgb(0,0,0)" stroke-width="0.40" />
  <text dominant-baseline="hanging" font-size="4px" style="font-family: sans-serif ; font-weight: normal; font-style: normal; fill: rgb(255,0,0)" text-anchor="middle" transform="matrix( 1.000 0.000 0.000 1.000 150.200 702.100 )">Sidepiece 1</text>
</g>
<g id="p-4" style="fill:none;stroke-linecap:round;stroke-linejoin:round;">
  <path d="M 15.200 656.200 H 25.200 C 25.310 656.200 25.400 656.110 25.400 656.000 V 651.200 C 25.400 651.000 25.200 651.200 25.400 651.200 H 35.000 C 35.200 651.200 35.000 651.000 35.000 651.200 V 656.000 C 35.000 656.110 35.090 656.200 35.200 656.200 H 45.200 C 45.310 656.200 45.400 656.110 45.400 656.000 V 651.200 C 45.400 651.000 45.200 651.200 45.400 651.200 H 55.000 C 55.200 651.200 55.000 651.000 55.000 651.200 V 656.000 C 55.000 656.110 55.090 656.200 55.200 656.200 H 65.200 C 65.310 656.200 65.400 656.110 65.400 656.000 V 651.200 C 65.400 651.000 65.200 651.200 65.400 651.200 H 75.000 C 75.200 651.200 75.000 651.000 75.000 651.200 V 656.000 C 75.000 656.110 75.090 656.200 75.200 656.200 H 85.200 C 85.310 656.200 85.400 656.110 85.400 656.000 V 651.200 C 85.400 651.000 85.200 651.200 85.400 651.200 H 95.000 C 95.200 651.200 95.000 651.000 95.000 651.200 V 656.000 C 95.000 656.110 95.090 656.200 95.200 656.200 H 105.200 C 105.310 656.200 105.400 656.110 105.400 656.000 V 651.200 C 105.400 651.000 105.200 651.200 105.400 651.200 H 115.000 C 115.200 651.200 115.000 651.000 115.000 651.200 V 656.000 C 115.000 656.110 115.090 656.200 115.200 656.200 H 125.200 C 125.310 656.200 125.400 656.110 125.400 656.000 V 651.200 C 125.400 651.000 125.200 651.200 125.400 651.200 H 135.000 C 135.200 651.200 135.000 651.000 135.000 651.200 V 656.000 C 135.000 656.110 135.090 656.200 135.200 656.200 H 145.200 C 145.310 656.200 145.400 656.110 145.400 656.000 V 651.200 C 145.400 651.000 145.200 651.200 145.400 651.200 H 155.000 C 155.200 651.200 155.000 651.000 155.000 651.200 V 656.000 C 155.000 656.110 155.090 656.200 155.200 656.200 H 165.200 C 165.310 656.200 165.400 656.110 165.400 656.000 V 651.200 C 165.400 651.000 165.200 651.200 165.400 651.200 H 175.000 C 175.200 651.200 175.000 651.000 175.000 651.200 V 656.000 C 175.000 656.110 175.090 656.200 175.200 656.200 H 185.200 C 185.310 656.200 185.400 656.110 185.400 656.000 V 651.200 C 185.400 651.000 185.200 651.200 185.400 651.200 H 195.000 C 195.200 651.200 195.000 651.000 195.000 651.200 V 656.000 C 195.000 656.110 195.090 656.200 195.200 656.200 H 205.200 C 205.310 656.200 205.400 656.110 205.400 656.000 V 651.200 C 205.400 651.000 205.200 651.200 205.400 651.200 H 215.000 C 215.200 651.200 215.000 651.000 215.000 651.200 V 656.000 C 215.000 656.110 215.090 656.200 215.200 656.200 H 225.200 C 225.310 656.200 225.400 656.110 225.400 656.000 V 651.200 C 225.400 651.000 225.200 651.200 225.400 651.200 H 235.000 C 235.200 651.200 235.000 651.000 235.000 651.200 V 656.000 C 235.000 656.110 235.090 656.200 235.200 656.200 H 245.200 C 245.310 656.200 245.400 656.110 245.400 656.000 V 651.200 C 245.400 651.000 245.200 651.200 245.400 651.200 H 255.000 C 255.200 651.200 255.000 651.000 255.000 651.200 V 656.000 C 255.000 656.110 255.090 656.200 255.200 656.200 H 265.200 C 265.310 656.200 265.400 656.110 265.400 656.000 V 651.200 C 265.400 651.000 265.200 651.200 265.400 651.200 H 275.000 C 275.200 651.200 275.000 651.000 275.000 651.200 V 656.000 C 275.000 656.110 275.090 656.200 275.200 656.200 H 285.200 C 285.310 656.200 285.400 656.110 285.400 656.000 V 651.000 V 633.700 C 285.400 633.500 285.200 633.700 285.400 633.700 H 290.200 C 290.310 633.700 290.400 633.610 290.400 633.500 V 623.500 C 290.400 623.390 290.310 623.300 290.200 623.300 H 285.400 C 285.200 623.300 285.400 623.500 285.400 623.300 V 613.700 C 285.400 613.500 285.200 613.700 285.400 613.700 H 290.200 C 290.310 613.700 290.400 613.610 290.400 613.500 V 603.500 C 290.400 603.390 290.310 603.300 290.200 603.300 H 285.400 C 285.200 603.300 285.400 603.500 285.400 603.300 V 593.700 C 285.400 593.500 285.200 593.700 285.400 593.700 H 290.200 C 290.310 593.700 290.400 593.610 290.400 593.500 V 583.500 C 290.400 583.390 290.310 583.300 290.200 583.300 H 285.400 C 285.200 583.300 285.400 583.500 285.400 583.300 V 566.000 C 285.400 565.890 285.310 565.800 285.200 565.800 C 285.129 565.800 285.063 565.838 285.027 565.900 L 263.626 602.968 C 263.526 603.141 263.799 603.068 263.626 602.968 L 259.469 600.568 C 259.296 600.468 259.369 600.741 259.469 600.568 L 277.637 569.100 C 277.830 568.766 277.931 568.386 277.931 568.000 C 277.931 567.614 277.830 567.234 277.637 566.900 C 277.444 566.566 277.166 566.288 276.831 566.095 C 276.497 565.902 276.118 565.800 275.731 565.800 H 255.652 C 255.266 565.800 254.886 565.902 254.552 566.095 C 254.217 566.288 253.940 566.566 253.746 566.900 L 232.923 602.968 C 232.823 603.141 233.096 603.068 232.923 602.968 L 228.766 600.568 C 228.593 600.468 228.666 600.741 228.766 600.568 L 246.934 569.100 C 247.127 568.766 247.228 568.386 247.228 568.000 C 247.228 567.614 247.127 567.234 246.934 566.900 C 246.741 566.566 246.463 566.288 246.128 566.095 C 245.794 565.902 245.415 565.800 245.028 565.800 H 224.949 C 224.563 565.800 224.183 565.902 223.849 566.095 C 223.514 566.288 223.237 566.566 223.044 566.900 L 202.220 602.968 C 202.120 603.141 202.393 603.068 202.220 602.968 L 198.063 600.568 C 197.890 600.468 197.963 600.741 198.063 600.568 L 216.231 569.100 C 216.424 568.766 216.526 568.386 216.526 568.000 C 216.526 567.614 216.424 567.234 216.231 566.900 C 216.038 566.566 215.760 566.288 215.426 566.095 C 215.091 565.902 214.712 565.800 214.326 565.800 H 194.246 C 193.860 565.800 193.480 565.902 193.146 566.095 C 192.811 566.288 192.534 566.566 192.341 566.900 L 171.517 602.968 C 171.417 603.141 171.690 603.068 171.517 602.968 L 167.360 600.568 C 167.187 600.468 167.260 600.741 167.360 600.568 L 185.528 569.100 C 185.721 568.766 185.823 568.386 185.823 568.000 C 185.823 567.614 185.721 567.234 185.528 566.900 C 185.335 566.566 185.057 566.288 184.723 566.095 C 184.388 565.902 184.009 565.800 183.623 565.800 H 163.543 C 163.157 565.800 162.777 565.902 162.443 566.095 C 162.108 566.288 161.831 566.566 161.638 566.900 L 140.814 602.968 C 140.714 603.141 140.987 603.068 140.814 602.968 L 136.657 600.568 C 136.484 600.468 136.557 600.741 136.657 600.568 L 154.825 569.100 C 155.018 568.766 155.120 568.386 155.120 568.000 C 155.120 567.614 155.018 567.234 154.825 566.900 C 154.632 566.566 154.354 566.288 154.020 566.095 C 153.685 565.902 153.306 565.800 152.920 565.800 H 132.840 C 132.454 565.800 132.074 565.902 131.740 566.095 C 131.405 566.288 131.128 566.566 130.935 566.900 L 110.111 602.968 C 110.011 603.141 110.284 603.068 110.111 602.968 L 105.954 600.568 C 105.781 600.468 105.854 600.741 105.954 600.568 L 124.122 569.100 C 124.315 568.766 124.417 568.386 124.417 568.000 C 124.417 567.614 124.315 567.234 124.122 566.900 C 123.929 566.566 123.651 566.288 123.317 566.095 C 122.982 565.902 122.603 565.800 122.217 565.800 H 102.137 C 101.751 565.800 101.371 565.902 101.037 566.095 C 100.702 566.288 100.425 566.566 100.232 566.900 L 79.408 602.968 C 79.308 603.141 79.581 603.068 79.408 602.968 L 75.251 600.568 C 75.078 600.468 75.151 600.741 75.251 600.568 L 93.419 569.100 C 93.612 568.766 93.714 568.386 93.714 568.000 C 93.714 567.614 93.612 567.234 93.419 566.900 C 93.226 566.566 92.948 566.288 92.614 566.095 C 92.279 565.902 91.900 565.800 91.514 565.800 H 71.434 C 71.048 565.800 70.668 565.902 70.334 566.095 C 69.999 566.288 69.722 566.566 69.529 566.900 L 48.705 602.968 C 48.605 603.141 48.878 603.068 48.705 602.968 L 44.548 600.568 C 44.375 600.468 44.448 600.741 44.548 600.568 L 62.716 569.100 C 62.909 568.766 63.011 568.386 63.011 568.000 C 63.011 567.614 62.909 567.234 62.716 566.900 C 62.523 566.566 62.245 566.288 61.911 566.095 C 61.576 565.902 61.197 565.800 60.811 565.800 H 15.200 C 15.090 565.800 15.000 565.890 15.000 566.000 V 583.300 C 15.000 583.500 15.200 583.300 15.000 583.300 H 10.200 C 10.090 583.300 10.000 583.390 10.000 583.500 V 593.500 C 10.000 593.610 10.090 593.700 10.200 593.700 H 15.000 C 15.200 593.700 15.000 593.500 15.000 593.700 V 603.300 C 15.000 603.500 15.200 603.300 15.000 603.300 H 10.200 C 10.090 603.300 10.000 603.390 10.000 603.500 V 613.500 C 10.000 613.610 10.090 613.700 10.200 613.700 H 15.000 C 15.200 613.700 15.000 613.500 15.000 613.700 V 623.300 C 15.000 623.500 15.200 623.300 15.000 623.300 H 10.200 C 10.090 623.300 10.000 623.390 10.000 623.500 V 633.500 C 10.000 633.610 10.090 633.700 10.200 633.700 H 15.000 C 15.200 633.700 15.000 633.500 15.000 633.700 V 651.000 V 656.000 C 15.000 656.110 15.090 656.200 15.200 656.200 Z" stroke="rgb(0,0,0)" stroke-width="0.40" />
  <text dominant-baseline="hanging" font-size="4px" style="font-family: sans-serif ; font-weight: normal; font-style: normal; fill: rgb(255,0,0)" text-anchor="middle" transform="matrix( 1.000 0.000 0.000 1.000 150.200 609.200 )">Sidepiece 2</text>
</g>
<g id="p-5" style="fill:none;stroke-linecap:round;stroke-linejoin:round;">
  <path d="M 10.200 563.300 H 77.200 C 77.310 563.300 77.400 563.210 77.400 563.100 V 293.100 C 77.400 292.990 77.310 292.900 77.200 292.900 H 10.200 C 10.090 292.900 10.000 292.990 10.000 293.100 V 563.100 C 10.000 563.210 10.090 563.300 10.200 563.300 Z" stroke="rgb(0,0,0)" stroke-width="0.40" />
  <text dominant-baseline="hanging" font-size="4px" style="font-family: sans-serif ; font-weight: normal; font-style: normal; fill: rgb(255,0,0)" text-anchor="middle" transform="matrix( 1.000 0.000 0.000 1.000 43.700 426.300 )">lid bottom</text>
</g>
<g id="p-6" style="fill:none;stroke-linecap:round;stroke-linejoin:round;">
  <path d="M 15.200 290.400 H 82.200 H 87.200 C 87.310 290.400 87.400 290.310 87.400 290.200 V 285.200 V 15.200 V 10.200 C 87.400 10.090 87.310 10.000 87.200 10.000 H 82.200 H 15.200 H 10.200 C 10.090 10.000 10.000 10.090 10.000 10.200 V 15.200 V 285.200 V 290.200 C 10.000 290.310 10.090 290.400 10.200 290.400 H 15.200 Z" stroke="rgb(0,0,0)" stroke-width="0.40" />
  <text dominant-baseline="hanging" font-size="4px" style="font-family: sans-serif ; font-weight: normal; font-style: normal; fill: rgb(255,0,0)" text-anchor="middle" transform="matrix( 1.000 0.000 0.000 1.000 48.700 148.400 )">lid top</text>
</g>
<g id="p-7" style="fill:none;stroke-linecap:round;stroke-linejoin:round;">
  <path d="M 298.100 929.900 H 316.400 C 316.600 929.900 316.400 929.700 316.400 929.900 V 934.700 C 316.400 934.810 316.490 934.900 316.600 934.900 H 326.600 C 326.710 934.900 326.800 934.810 326.800 934.700 V 929.900 C 326.800 929.700 326.600 929.900 326.800 929.900 H 336.400 C 336.600 929.900 336.400 929.700 336.400 929.900 V 934.700 C 336.400 934.810 336.490 934.900 336.600 934.900 H 346.600 C 346.710 934.900 346.800 934.810 346.800 934.700 V 929.900 C 346.800 929.700 346.600 929.900 346.800 929.900 H 365.100 C 365.210 929.900 365.300 929.810 365.300 929.700 V 919.900 C 365.300 919.700 365.100 919.900 365.300 919.900 H 370.100 C 370.210 919.900 370.300 919.810 370.300 919.700 V 909.700 C 370.300 909.590 370.210 909.500 370.100 909.500 H 365.300 C 365.100 909.500 365.300 909.700 365.300 909.500 V 899.900 C 365.300 899.700 365.100 899.900 365.300 899.900 H 370.100 C 370.210 899.900 370.300 899.810 370.300 899.700 V 889.700 C 370.300 889.590 370.210 889.500 370.100 889.500 H 365.300 C 365.100 889.500 365.300 889.700 365.300 889.500 V 879.900 C 365.300 879.700 365.100 879.900 365.300 879.900 H 370.100 C 370.210 879.900 370.300 879.810 370.300 879.700 V 869.700 C 370.300 869.590 370.210 869.500 370.100 869.500 H 365.300 C 365.100 869.500 365.300 869.700 365.300 869.500 V 859.900 C 365.300 859.700 365.100 859.900 365.300 859.900 H 370.100 C 370.210 859.900 370.300 859.810 370.300 859.700 V 849.700 C 370.300 849.590 370.210 849.500 370.100 849.500 H 365.300 C 365.100 849.500 365.300 849.700 365.300 849.500 V 839.900 C 365.300 839.700 365.100 839.900 365.300 839.900 H 370.100 C 370.210 839.900 370.300 839.810 370.300 839.700 V 829.700 C 370.300 829.590 370.210 829.500 370.100 829.500 H 365.300 C 365.100 829.500 365.300 829.700 365.300 829.500 V 819.900 C 365.300 819.700 365.100 819.900 365.300 819.900 H 370.100 C 370.210 819.900 370.300 819.810 370.300 819.700 V 809.700 C 370.300 809.590 370.210 809.500 370.100 809.500 H 365.300 C 365.100 809.500 365.300 809.700 365.300 809.500 V 799.900 C 365.300 799.700 365.100 799.900 365.300 799.900 H 370.100 C 370.210 799.900 370.300 799.810 370.300 799.700 V 789.700 C 370.300 789.590 370.210 789.500 370.100 789.500 H 365.300 C 365.100 789.500 365.300 789.700 365.300 789.500 V 779.900 C 365.300 779.700 365.100 779.900 365.300 779.900 H 370.100 C 370.210 779.900 370.300 779.810 370.300 779.700 V 769.700 C 370.300 769.590 370.210 769.500 370.100 769.500 H 365.300 C 365.100 769.500 365.300 769.700 365.300 769.500 V 759.900 C 365.300 759.700 365.100 759.900 365.300 759.900 H 370.100 C 370.210 759.900 370.300 759.810 370.300 759.700 V 749.700 C 370.300 749.590 370.210 749.500 370.100 749.500 H 365.300 C 365.100 749.500 365.300 749.700 365.300 749.500 V 739.900 C 365.300 739.700 365.100 739.900 365.300 739.900 H 370.100 C 370.210 739.900 370.300 739.810 370.300 739.700 V 729.700 C 370.300 729.590 370.210 729.500 370.100 729.500 H 365.300 C 365.100 729.500 365.300 729.700 365.300 729.500 V 719.900 C 365.300 719.700 365.100 719.900 365.300 719.900 H 370.100 C 370.210 719.900 370.300 719.810 370.300 719.700 V 709.700 C 370.300 709.590 370.210 709.500 370.100 709.500 H 365.300 C 365.100 709.500 365.300 709.700 365.300 709.500 V 699.900 C 365.300 699.700 365.100 699.900 365.300 699.900 H 370.100 C 370.210 699.900 370.300 699.810 370.300 699.700 V 689.700 C 370.300 689.590 370.210 689.500 370.100 689.500 H 365.300 C 365.100 689.500 365.300 689.700 365.300 689.500 V 679.900 C 365.300 679.700 365.100 679.900 365.300 679.900 H 370.100 C 370.210 679.900 370.300 679.810 370.300 679.700 V 669.700 C 370.300 669.590 370.210 669.500 370.100 669.500 H 365.300 C 365.100 669.500 365.300 669.700 365.300 669.500 V 659.700 C 365.300 659.590 365.210 659.500 365.100 659.500 H 346.800 C 346.600 659.500 346.800 659.700 346.800 659.500 V 654.700 C 346.800 654.590 346.710 654.500 346.600 654.500 H 336.600 C 336.490 654.500 336.400 654.590 336.400 654.700 V 659.500 C 336.400 659.700 336.600 659.500 336.400 659.500 H 326.800 C 326.600 659.500 326.800 659.700 326.800 659.500 V 654.700 C 326.800 654.590 326.710 654.500 326.600 654.500 H 316.600 C 316.490 654.500 316.400 654.590 316.400 654.700 V 659.500 C 316.400 659.700 316.600 659.500 316.400 659.500 H 298.100 C 297.990 659.500 297.900 659.590 297.900 659.700 V 669.500 C 297.900 669.700 298.100 669.500 297.900 669.500 H 293.100 C 292.990 669.500 292.900 669.590 292.900 669.700 V 679.700 C 292.900 679.810 292.990 679.900 293.100 679.900 H 297.900 C 298.100 679.900 297.900 679.700 297.900 679.900 V 689.500 C 297.900 689.700 298.100 689.500 297.900 689.500 H 293.100 C 292.990 689.500 292.900 689.590 292.900 689.700 V 699.700 C 292.900 699.810 292.990 699.900 293.100 699.900 H 297.900 C 298.100 699.900 297.900 699.700 297.900 699.900 V 709.500 C 297.900 709.700 298.100 709.500 297.900 709.500 H 293.100 C 292.990 709.500 292.900 709.590 292.900 709.700 V 719.700 C 292.900 719.810 292.990 719.900 293.100 719.900 H 297.900 C 298.100 719.900 297.900 719.700 297.900 719.900 V 729.500 C 297.900 729.700 298.100 729.500 297.900 729.500 H 293.100 C 292.990 729.500 292.900 729.590 292.900 729.700 V 739.700 C 292.900 739.810 292.990 739.900 293.100 739.900 H 297.900 C 298.100 739.900 297.900 739.700 297.900 739.900 V 749.500 C 297.900 749.700 298.100 749.500 297.900 749.500 H 293.100 C 292.990 749.500 292.900 749.590 292.900 749.700 V 759.700 C 292.900 759.810 292.990 759.900 293.100 759.900 H 297.900 C 298.100 759.900 297.900 759.700 297.900 759.900 V 769.500 C 297.900 769.700 298.100 769.500 297.900 769.500 H 293.100 C 292.990 769.500 292.900 769.590 292.900 769.700 V 779.700 C 292.900 779.810 292.990 779.900 293.100 779.900 H 297.900 C 298.100 779.900 297.900 779.700 297.900 779.900 V 789.500 C 297.900 789.700 298.100 789.500 297.900 789.500 H 293.100 C 292.990 789.500 292.900 789.590 292.900 789.700 V 799.700 C 292.900 799.810 292.990 799.900 293.100 799.900 H 297.900 C 298.100 799.900 297.900 799.700 297.900 799.900 V 809.500 C 297.900 809.700 298.100 809.500 297.900 809.500 H 293.100 C 292.990 809.500 292.900 809.590 292.900 809.700 V 819.700 C 292.900 819.810 292.990 819.900 293.100 819.900 H 297.900 C 298.100 819.900 297.900 819.700 297.900 819.900 V 829.500 C 297.900 829.700 298.100 829.500 297.900 829.500 H 293.100 C 292.990 829.500 292.900 829.590 292.900 829.700 V 839.700 C 292.900 839.810 292.990 839.900 293.100 839.900 H 297.900 C 298.100 839.900 297.900 839.700 297.900 839.900 V 849.500 C 297.900 849.700 298.100 849.500 297.900 849.500 H 293.100 C 292.990 849.500 292.900 849.590 292.900 849.700 V 859.700 C 292.900 859.810 292.990 859.900 293.100 859.900 H 297.900 C 298.100 859.900 297.900 859.700 297.900 859.900 V 869.500 C 297.900 869.700 298.100 869.500 297.900 869.500 H 293.100 C 292.990 869.500 292.900 869.590 292.900 869.700 V 879.700 C 292.900 879.810 292.990 879.900 293.100 879.900 H 297.900 C 298.100 879.900 297.900 879.700 297.900 879.900 V 889.500 C 297.900 889.700 298.100 889.500 297.900 889.500 H 293.100 C 292.990 889.500 292.900 889.590 292.900 889.700 V 899.700 C 292.900 899.810 292.990 899.900 293.100 899.900 H 297.900 C 298.100 899.900 297.900 899.700 297.900 899.900 V 909.500 C 297.900 909.700 298.100 909.500 297.900 909.500 H 293.100 C 292.990 909.500 292.900 909.590 292.900 909.700 V 919.700 C 292.900 919.810 292.990 919.900 293.100 919.900 H 297.900 C 298.100 919.900 297.900 919.700 297.900 919.900 V 929.700 C 297.900 929.810 297.990 929.900 298.100 929.900 Z" stroke="rgb(0,0,0)" stroke-width="0.40" />
  <text dominant-baseline="hanging" font-size="4px" style="font-family: sans-serif ; font-weight: normal; font-style: normal; fill: rgb(255,0,0)" text-anchor="middle" transform="matrix( 1.000 0.000 0.000 1.000 331.600 792.900 )">Bottom</text>
</g>
<g id="p-8" style="fill:none;stroke-linecap:round;stroke-linejoin:round;">
  <path d="M 293.100 652.000 H 298.050 H 314.383 C 314.594 652.000 314.801 651.945 314.983 651.839 C 315.166 651.734 315.317 651.582 315.423 651.400 C 315.528 651.218 315.583 651.011 315.583 650.800 V 634.800 C 315.583 633.431 315.944 632.086 316.628 630.900 C 317.313 629.714 318.298 628.730 319.483 628.045 C 320.669 627.360 322.014 627.000 323.383 627.000 H 339.717 C 341.086 627.000 342.431 627.360 343.617 628.045 C 344.802 628.730 345.787 629.714 346.472 630.900 C 347.156 632.086 347.517 633.431 347.517 634.800 V 650.800 C 347.517 651.011 347.572 651.218 347.677 651.400 C 347.783 651.582 347.934 651.734 348.117 651.839 C 348.299 651.945 348.506 652.000 348.717 652.000 H 365.050 H 370.000 C 370.110 652.000 370.200 651.910 370.200 651.800 V 611.800 C 370.200 611.690 370.110 611.600 370.000 611.600 H 365.200 C 365.000 611.600 365.200 611.800 365.200 611.600 V 556.537 C 365.200 556.427 365.110 556.337 365.000 556.337 H 298.100 C 297.990 556.337 297.900 556.427 297.900 556.537 V 611.600 C 297.900 611.800 298.100 611.600 297.900 611.600 H 293.100 C 292.990 611.600 292.900 611.690 292.900 611.800 V 651.800 C 292.900 651.910 292.990 652.000 293.100 652.000 Z" stroke="rgb(0,0,0)" stroke-width="0.40" />
  <text dominant-baseline="hanging" font-size="4px" style="font-family: sans-serif ; font-weight: normal; font-style: normal; fill: rgb(255,0,0)" text-anchor="middle" transform="matrix( 1.000 0.000 0.000 1.000 331.600 602.369 )">Divider</text>
</g>
<g id="p-9" style="fill:none;stroke-linecap:round;stroke-linejoin:round;">
  <path d="M 293.100 553.837 H 298.050 H 314.383 C 314.594 553.837 314.801 553.782 314.983 553.676 C 315.166 553.571 315.317 553.420 315.423 553.237 C 315.528 553.055 315.583 552.848 315.583 552.637 V 536.637 C 315.583 535.268 315.944 533.923 316.628 532.737 C 317.313 531.551 318.298 530.567 319.483 529.882 C 320.669 529.198 322.014 528.837 323.383 528.837 H 339.717 C 341.086 528.837 342.431 529.198 343.617 529.882 C 344.802 530.567 345.787 531.551 346.472 532.737 C 347.156 533.923 347.517 535.268 347.517 536.637 V 552.637 C 347.517 552.848 347.572 553.055 347.677 553.237 C 347.783 553.420 347.934 553.571 348.117 553.676 C 348.299 553.782 348.506 553.837 348.717 553.837 H 365.050 H 370.000 C 370.110 553.837 370.200 553.748 370.200 553.637 V 513.637 C 370.200 513.527 370.110 513.437 370.000 513.437 H 365.200 C 365.000 513.437 365.200 513.637 365.200 513.437 V 458.374 C 365.200 458.264 365.110 458.174 365.000 458.174 H 298.100 C 297.990 458.174 297.900 458.264 297.900 458.374 V 513.437 C 297.900 513.637 298.100 513.437 297.900 513.437 H 293.100 C 292.990 513.437 292.900 513.527 292.900 513.637 V 553.637 C 292.900 553.748 292.990 553.837 293.100 553.837 Z" stroke="rgb(0,0,0)" stroke-width="0.40" />
  <text dominant-baseline="hanging" font-size="4px" style="font-family: sans-serif ; font-weight: normal; font-style: normal; fill: rgb(255,0,0)" text-anchor="middle" transform="matrix( 1.000 0.000 0.000 1.000 331.600 504.206 )">Divider</text>
</g>
<g id="p-10" style="fill:none;stroke-linecap:round;stroke-linejoin:round;">
  <path d="M 293.100 455.674 H 295.550 H 311.883 C 312.094 455.674 312.301 455.619 312.483 455.514 C 312.666 455.408 312.817 455.257 312.923 455.074 C 313.028 454.892 313.083 454.685 313.083 454.474 V 438.474 C 313.083 437.105 313.444 435.760 314.128 434.574 C 314.813 433.389 315.798 432.404 316.983 431.719 C 318.169 431.035 319.514 430.674 320.883 430.674 H 337.217 C 338.586 430.674 339.931 431.035 341.117 431.719 C 342.302 432.404 343.287 433.389 343.972 434.574 C 344.656 435.760 345.017 437.105 345.017 438.474 V 454.474 C 345.017 454.685 345.072 454.892 345.177 455.074 C 345.283 455.257 345.434 455.408 345.617 455.514 C 345.799 455.619 346.006 455.674 346.217 455.674 H 362.550 H 365.000 C 365.110 455.674 365.200 455.585 365.200 455.474 V 415.474 C 365.200 415.364 365.110 415.274 365.000 415.274 H 362.700 C 362.500 415.274 362.700 415.474 362.700 415.274 V 360.212 C 362.700 360.101 362.610 360.012 362.500 360.012 H 295.600 C 295.490 360.012 295.400 360.101 295.400 360.212 V 415.274 C 295.400 415.474 295.600 415.274 295.400 415.274 H 293.100 C 292.990 415.274 292.900 415.364 292.900 415.474 V 455.474 C 292.900 455.585 292.990 455.674 293.100 455.674 Z" stroke="rgb(0,0,0)" stroke-width="0.40" />
  <text dominant-baseline="hanging" font-size="4px" style="font-family: sans-serif ; font-weight: normal; font-style: normal; fill: rgb(255,0,0)" text-anchor="middle" transform="matrix( 1.000 0.000 0.000 1.000 329.100 406.043 )">Divider</text>
</g>
<g id="p-11" style="fill:none;stroke-linecap:round;stroke-linejoin:round;">
  <path d="M 298.050 357.512 H 314.383 C 314.594 357.512 314.801 357.456 314.983 357.351 C 315.166 357.246 315.317 357.094 315.423 356.912 C 315.528 356.729 315.583 356.522 315.583 356.312 V 340.312 C 315.583 338.942 315.944 337.597 316.628 336.412 C 317.313 335.226 318.298 334.241 319.483 333.557 C 320.669 332.872 322.014 332.512 323.383 332.512 H 339.717 C 341.086 332.512 342.431 332.872 343.617 333.557 C 344.802 334.241 345.787 335.226 346.472 336.412 C 347.156 337.597 347.517 338.942 347.517 340.312 V 356.312 C 347.517 356.522 347.572 356.729 347.677 356.912 C 347.783 357.094 347.934 357.246 348.117 357.351 C 348.299 357.456 348.506 357.512 348.717 357.512 H 365.050 H 370.000 C 370.110 357.512 370.200 357.422 370.200 357.312 V 337.362 C 370.200 337.251 370.110 337.162 370.000 337.162 H 365.200 C 365.000 337.162 365.200 337.362 365.200 337.162 V 262.049 C 365.200 261.938 365.110 261.849 365.000 261.849 H 298.100 C 297.990 261.849 297.900 261.938 297.900 262.049 V 317.112 C 297.900 317.312 298.100 317.112 297.900 317.112 H 293.100 C 292.990 317.112 292.900 317.201 292.900 317.312 V 337.312 C 292.900 337.422 292.990 337.512 293.100 337.512 H 297.850 C 298.050 337.512 297.850 337.312 297.850 337.512 V 357.312 C 297.850 357.422 297.940 357.512 298.050 357.512 Z" stroke="rgb(0,0,0)" stroke-width="0.40" />
  <text dominant-baseline="hanging" font-size="4px" style="font-family: sans-serif ; font-weight: normal; font-style: normal; fill: rgb(255,0,0)" text-anchor="middle" transform="matrix( 1.000 0.000 0.000 1.000 331.600 307.880 )">Divider</text>
</g>
</svg>