<?xml version='1.0' encoding='utf-8'?>
<svg height="848.10mm" viewBox="0.0 0.0 380.30 848.10" width="380.30mm" xmlns="http://www.w3.org/2000/svg" xmlns:cc="http://creativecommons.org/ns#" xmlns:dc="http://purl.org/dc/elements/1.1/" xmlns:inkscape="http://www.inkscape.org/namespaces/inkscape" xmlns:rdf="http://www.w3.org/1999/02/22-rdf-syntax-ns#" xmlns:svg="http://www.w3.org/2000/svg" xmlns:xlink="http://www.w3.org/1999/xlink">
<!--
DividerTray - Divider tray - rows and dividers



Adding '0:' at the start of the sy parameter adds a slot at the very back. Adding ':0' at the end of sy adds a slot meeting the bottom at the very front. This is especially useful if slot angle is set above zero.

There are 4 different sets of dividers rendered:

* With asymmetric tabs so the tabs fit on top of each other
* With tabs of half wall thickness that can go side by side
* With tabs of a full wall thickness
* One single divider spanning across all columns

You will likely need to cut each of the dividers you want multiple times.



Created with Boxes.py (https://boxes.hackerspace-bamberg.de/)
Creation date: 2026-03-12 21:03:01
Command line (remove spaces between dashes): boxes DividerTray - -Lid_style=ontop - -Slot_angle=30 - -Slot_depth=40 - -Notch_depth=25 - -sx=77 '- -sy=0:40*7:0' - -h=70 - -notches_in_wall=0 - -bottom=0 - -bottom=1 - -thickness=5 - -burn=0.2 - -reference=285 - -spacing=0.5
Url: https://boxes.hackerspace-bamberg.de/DividerTray?FingerJoint_style=rectangular&FingerJoint_surroundingspaces=2.0&FingerJoint_bottom_lip=0.0&FingerJoint_edge_width=1.0&FingerJoint_extra_length=0.0&FingerJoint_finger=2.0&FingerJoint_play=0.0&FingerJoint_space=2.0&FingerJoint_width=1.0&HandleEdge_height=20&HandleEdge_hole_height=75.0&HandleEdge_hole_width=40%3A40&HandleEdge_on_sides=0&HandleEdge_on_sides=1&HandleEdge_radius=10.0&HandleEdge_outset=1.0&Lid_handle=none&Lid_style=ontop&Lid_handle_height=8&Lid_height=4&Lid_play=0.1&Slot_angle=30&Slot_depth=40&Slot_extra_slack=0.2&Slot_radius=2&Notch_depth=25&Notch_lower_radius=8&Notch_upper_radius=1&Divider_bottom_margin=0&Divider_play=0.05&sx=77&sy=0%3A40*7%3A0&h=70&outside=0&outside=1&notches_in_wall=0&left_wall=0&left_wall=1&right_wall=0&right_wall=1&bottom=0&bottom=1&handle=0&thickness=5&burn=0.2&format=svg&labels=0&labels=1&reference=285&tabs=0.0&qr_code=0&inner_corners=loop&spacing=0.5&debug=0&language=en&render=2
Url short: https://boxes.hackerspace-bamberg.de/DividerTray?Lid_style=ontop&Slot_angle=30&Slot_depth=40&Notch_depth=25&sx=77&sy=0%3A40*7%3A0&h=70&notches_in_wall=0&bottom=0&bottom=1&thickness=5&burn=0.2&reference=285&spacing=0.5
SettingsUrl: https://boxes.hackerspace-bamberg.de/DividerTray?FingerJoint_style=rectangular&FingerJoint_surroundingspaces=2.0&FingerJoint_bottom_lip=0.0&FingerJoint_edge_width=1.0&FingerJoint_extra_length=0.0&FingerJoint_finger=2.0&FingerJoint_play=0.0&FingerJoint_space=2.0&FingerJoint_width=1.0&HandleEdge_height=20&HandleEdge_hole_height=75.0&HandleEdge_hole_width=40%3A40&HandleEdge_on_sides=0&HandleEdge_on_sides=1&HandleEdge_radius=10.0&HandleEdge_outset=1.0&Lid_handle=none&Lid_style=ontop&Lid_handle_height=8&Lid_height=4&Lid_play=0.1&Slot_angle=30&Slot_depth=40&Slot_extra_slack=0.2&Slot_radius=2&Notch_depth=25&Notch_lower_radius=8&Notch_upper_radius=1&Divider_bottom_margin=0&Divider_play=0.05&sx=77&sy=0%3A40*7%3A0&h=70&outside=0&outside=1&notches_in_wall=0&left_wall=0&left_wall=1&right_wall=0&right_wall=1&bottom=0&bottom=1&handle=0&thickness=5&burn=0.2&format=svg&labels=0&labels=1&reference=285&tabs=0.0&qr_code=0&inner_corners=loop&spacing=0.5&debug=0&language=en&render=2
SettingsUrl short: https://boxes.hackerspace-bamberg.de/DividerTray?Lid_style=ontop&Slot_angle=30&Slot_depth=40&Notch_depth=25&sx=77&sy=0%3A40*7%3A0&h=70&notches_in_wall=0&bottom=0&bottom=1&thickness=5&burn=0.2&reference=285&spacing=0.5
-->
<title>DividerTray</title>
<metadata>
<rdf:RDF><cc:Work>
<dc:title>Tray - DividerTray</dc:title>
<dc:date>2026-03-12 21:03:01</dc:date>
<dc:source>https://boxes.hackerspace-bamberg.de/DividerTray?FingerJoint_style=rectangular&amp;FingerJoint_surroundingspaces=2.0&amp;FingerJoint_bottom_lip=0.0&amp;FingerJoint_edge_width=1.0&amp;FingerJoint_extra_length=0.0&amp;FingerJoint_finger=2.0&amp;FingerJoint_play=0.0&amp;FingerJoint_space=2.0&amp;FingerJoint_width=1.0&amp;HandleEdge_height=20&amp;HandleEdge_hole_height=75.0&amp;HandleEdge_hole_width=40%3A40&amp;HandleEdge_on_sides=0&amp;HandleEdge_on_sides=1&amp;HandleEdge_radius=10.0&amp;HandleEdge_outset=1.0&amp;Lid_handle=none&amp;Lid_style=ontop&amp;Lid_handle_height=8&amp;Lid_height=4&amp;Lid_play=0.1&amp;Slot_angle=30&amp;Slot_depth=40&amp;Slot_extra_slack=0.2&amp;Slot_radius=2&amp;Notch_depth=25&amp;Notch_lower_radius=8&amp;Notch_upper_radius=1&amp;Divider_bottom_margin=0&amp;Divider_play=0.05&amp;sx=77&amp;sy=0%3A40*7%3A0&amp;h=70&amp;outside=0&amp;outside=1&amp;notches_in_wall=0&amp;left_wall=0&amp;left_wall=1&amp;right_wall=0&amp;right_wall=1&amp;bottom=0&amp;bottom=1&amp;handle=0&amp;thickness=5&amp;burn=0.2&amp;format=svg&amp;labels=0&amp;labels=1&amp;reference=285&amp;tabs=0.0&amp;qr_code=0&amp;inner_corners=loop&amp;spacing=0.5&amp;debug=0&amp;language=en&amp;render=2</dc:source>
<dc:source>https://boxes.hackerspace-bamberg.de/DividerTray?Lid_style=ontop&amp;Slot_angle=30&amp;Slot_depth=40&amp;Notch_depth=25&amp;sx=77&amp;sy=0%3A40*7%3A0&amp;h=70&amp;notches_in_wall=0&amp;bottom=0&amp;bottom=1&amp;thickness=5&amp;burn=0.2&amp;reference=285&amp;spacing=0.5</dc:source>
<dc:description>Divider tray - rows and dividers


Adding '0:' at the start of the sy parameter adds a slot at the very back. Adding ':0' at the end of sy adds a slot meeting the bottom at the very front. This is especially useful if slot angle is set above zero.

There are 4 different sets of dividers rendered:

* With asymmetric tabs so the tabs fit on top of each other
* With tabs of half wall thickness that can go side by side
* With tabs of a full wall thickness
* One single divider spanning across all columns

You will likely need to cut each of the dividers you want multiple times.


Created with Boxes.py (https://boxes.hackerspace-bamberg.de/)
Command line: boxes DividerTray --FingerJoint_style=rectangular --FingerJoint_surroundingspaces=2.0 --FingerJoint_bottom_lip=0.0 --FingerJoint_edge_width=1.0 --FingerJoint_extra_length=0.0 --FingerJoint_finger=2.0 --FingerJoint_play=0.0 --FingerJoint_space=2.0 --FingerJoint_width=1.0 --HandleEdge_height=20 --HandleEdge_hole_height=75.0 --HandleEdge_hole_width=40:40 --HandleEdge_on_sides=0 --HandleEdge_on_sides=1 --HandleEdge_radius=10.0 --HandleEdge_outset=1.0 --Lid_handle=none --Lid_style=ontop --Lid_handle_height=8 --Lid_height=4 --Lid_play=0.1 --Slot_angle=30 --Slot_depth=40 --Slot_extra_slack=0.2 --Slot_radius=2 --Notch_depth=25 --Notch_lower_radius=8 --Notch_upper_radius=1 --Divider_bottom_margin=0 --Divider_play=0.05 --sx=77 '--sy=0:40*7:0' --h=70 --outside=0 --outside=1 --notches_in_wall=0 --left_wall=0 --left_wall=1 --right_wall=0 --right_wall=1 --bottom=0 --bottom=1 --handle=0 --thickness=5 --burn=0.2 --format=svg --labels=0 --labels=1 --reference=285 --tabs=0.0 --qr_code=0 --inner_corners=loop --spacing=0.5 --debug=0
Command line short: boxes DividerTray --Lid_style=ontop --Slot_angle=30 --Slot_depth=40 --Notch_depth=25 --sx=77 '--sy=0:40*7:0' --h=70 --notches_in_wall=0 --bottom=0 --bottom=1 --thickness=5 --burn=0.2 --reference=285 --spacing=0.5
Url: https://boxes.hackerspace-bamberg.de/DividerTray?FingerJoint_style=rectangular&amp;FingerJoint_surroundingspaces=2.0&amp;FingerJoint_bottom_lip=0.0&amp;FingerJoint_edge_width=1.0&amp;FingerJoint_extra_length=0.0&amp;FingerJoint_finger=2.0&amp;FingerJoint_play=0.0&amp;FingerJoint_space=2.0&amp;FingerJoint_width=1.0&amp;HandleEdge_height=20&amp;HandleEdge_hole_height=75.0&amp;HandleEdge_hole_width=40%3A40&amp;HandleEdge_on_sides=0&amp;HandleEdge_on_sides=1&amp;HandleEdge_radius=10.0&amp;HandleEdge_outset=1.0&amp;Lid_handle=none&amp;Lid_style=ontop&amp;Lid_handle_height=8&amp;Lid_height=4&amp;Lid_play=0.1&amp;Slot_angle=30&amp;Slot_depth=40&amp;Slot_extra_slack=0.2&amp;Slot_radius=2&amp;Notch_depth=25&amp;Notch_lower_radius=8&amp;Notch_upper_radius=1&amp;Divider_bottom_margin=0&amp;Divider_play=0.05&amp;sx=77&amp;sy=0%3A40*7%3A0&amp;h=70&amp;outside=0&amp;outside=1&amp;notches_in_wall=0&amp;left_wall=0&amp;left_wall=1&amp;right_wall=0&amp;right_wall=1&amp;bottom=0&amp;bottom=1&amp;handle=0&amp;thickness=5&amp;burn=0.2&amp;format=svg&amp;labels=0&amp;labels=1&amp;reference=285&amp;tabs=0.0&amp;qr_code=0&amp;inner_corners=loop&amp;spacing=0.5&amp;debug=0&amp;language=en&amp;render=2
Url short: https://boxes.hackerspace-bamberg.de/DividerTray?Lid_style=ontop&amp;Slot_angle=30&amp;Slot_depth=40&amp;Notch_depth=25&amp;sx=77&amp;sy=0%3A40*7%3A0&amp;h=70&amp;notches_in_wall=0&amp;bottom=0&amp;bottom=1&amp;thickness=5&amp;burn=0.2&amp;reference=285&amp;spacing=0.5
SettingsUrl: https://boxes.hackerspace-bamberg.de/DividerTray?FingerJoint_style=rectangular&amp;FingerJoint_surroundingspaces=2.0&amp;FingerJoint_bottom_lip=0.0&amp;FingerJoint_edge_width=1.0&amp;FingerJoint_extra_length=0.0&amp;FingerJoint_finger=2.0&amp;FingerJoint_play=0.0&amp;FingerJoint_space=2.0&amp;FingerJoint_width=1.0&amp;HandleEdge_height=20&amp;HandleEdge_hole_height=75.0&amp;HandleEdge_hole_width=40%3A40&amp;HandleEdge_on_sides=0&amp;HandleEdge_on_sides=1&amp;HandleEdge_radius=10.0&amp;HandleEdge_outset=1.0&amp;Lid_handle=none&amp;Lid_style=ontop&amp;Lid_handle_height=8&amp;Lid_height=4&amp;Lid_play=0.1&amp;Slot_angle=30&amp;Slot_depth=40&amp;Slot_extra_slack=0.2&amp;Slot_radius=2&amp;Notch_depth=25&amp;Notch_lower_radius=8&amp;Notch_upper_radius=1&amp;Divider_bottom_margin=0&amp;Divider_play=0.05&amp;sx=77&amp;sy=0%3A40*7%3A0&amp;h=70&amp;outside=0&amp;outside=1&amp;notches_in_wall=0&amp;left_wall=0&amp;left_wall=1&amp;right_wall=0&amp;right_wall=1&amp;bottom=0&amp;bottom=1&amp;handle=0&amp;thickness=5&amp;burn=0.2&amp;format=svg&amp;labels=0&amp;labels=1&amp;reference=285&amp;tabs=0.0&amp;qr_code=0&amp;inner_corners=loop&amp;spacing=0.5&amp;debug=0&amp;language=en&amp;render=2
SettingsUrl short: https://boxes.hackerspace-bamberg.de/DividerTray?Lid_style=ontop&amp;Slot_angle=30&amp;Slot_depth=40&amp;Notch_depth=25&amp;sx=77&amp;sy=0%3A40*7%3A0&amp;h=70&amp;notches_in_wall=0&amp;bottom=0&amp;bottom=1&amp;thickness=5&amp;burn=0.2&amp;reference=285&amp;spacing=0.5
</dc:description>
</cc:Work></rdf:RDF></metadata>
<g id="p-0" style="fill:none;stroke-linecap:round;stroke-linejoin:round;">
  <path d="M 10.200 838.100 H 295.200 V 828.100 H 10.200 V 838.100 Z" stroke="rgb(0,0,0)" stroke-width="0.40" />
  <text dominant-baseline="hanging" font-size="6px" style="font-family: sans-serif ; font-weight: normal; font-style: normal; fill: rgb(255,0,0)" text-anchor="middle" transform="matrix( 1.000 0.000 0.000 1.000 152.700 830.100 )">285.0mm, burn:0.20mm</text>
</g>
<g id="p-1" style="fill:none;stroke-linecap:round;stroke-linejoin:round;">
  <path d="M 15.200 825.200 H 33.700 C 33.810 825.200 33.900 825.110 33.900 825.000 V 820.200 C 33.900 820.000 33.700 820.200 33.900 820.200 H 43.500 C 43.700 820.200 43.500 820.000 43.500 820.200 V 825.000 C 43.500 825.110 43.590 825.200 43.700 825.200 H 53.700 C 53.810 825.200 53.900 825.110 53.900 825.000 V 820.200 C 53.900 820.000 53.700 820.200 53.900 820.200 H 63.500 C 63.700 820.200 63.500 820.000 63.500 820.200 V 825.000 C 63.500 825.110 63.590 825.200 63.700 825.200 H 82.200 H 87.200 C 87.310 825.200 87.400 825.110 87.400 825.000 V 820.000 V 802.500 C 87.400 802.390 87.310 802.300 87.200 802.300 H 82.400 C 82.200 802.300 82.400 802.500 82.400 802.300 V 792.700 C 82.400 792.500 82.200 792.700 82.400 792.700 H 87.200 C 87.310 792.700 87.400 792.610 87.400 792.500 V 782.500 C 87.400 782.390 87.310 782.300 87.200 782.300 H 82.400 C 82.200 782.300 82.400 782.500 82.400 782.300 V 772.700 C 82.400 772.500 82.200 772.700 82.400 772.700 H 87.200 C 87.310 772.700 87.400 772.610 87.400 772.500 V 755.000 C 87.400 754.890 87.310 754.800 87.200 754.800 H 82.200 H 15.200 H 10.200 C 10.090 754.800 10.000 754.890 10.000 755.000 V 772.500 C 10.000 772.610 10.090 772.700 10.200 772.700 H 15.000 C 15.200 772.700 15.000 772.500 15.000 772.700 V 782.300 C 15.000 782.500 15.200 782.300 15.000 782.300 H 10.200 C 10.090 782.300 10.000 782.390 10.000 782.500 V 792.500 C 10.000 792.610 10.090 792.700 10.200 792.700 H 15.000 C 15.200 792.700 15.000 792.500 15.000 792.700 V 802.300 C 15.000 802.500 15.200 802.300 15.000 802.300 H 10.200 C 10.090 802.300 10.000 802.390 10.000 802.500 V 820.000 V 825.000 C 10.000 825.110 10.090 825.200 10.200 825.200 H 15.200 Z" stroke="rgb(0,0,0)" stroke-width="0.40" />
  <text dominant-baseline="hanging" font-size="4px" style="font-family: sans-serif ; font-weight: normal; font-style: normal; fill: rgb(255,0,0)" text-anchor="middle" transform="matrix( 1.000 0.000 0.000 1.000 48.700 788.200 )">Back</text>
</g>
<g id="p-2" style="fill:none;stroke-linecap:round;stroke-linejoin:round;">
  <path d="M 15.200 752.300 H 33.700 C 33.810 752.300 33.900 752.210 33.900 752.100 V 747.300 C 33.900 747.100 33.700 747.300 33.900 747.300 H 43.500 C 43.700 747.300 43.500 747.100 43.500 747.300 V 752.100 C 43.500 752.210 43.590 752.300 43.700 752.300 H 53.700 C 53.810 752.300 53.900 752.210 53.900 752.100 V 747.300 C 53.900 747.100 53.700 747.300 53.900 747.300 H 63.500 C 63.700 747.300 63.500 747.100 63.500 747.300 V 752.100 C 63.500 752.210 63.590 752.300 63.700 752.300 H 82.200 H 87.200 C 87.310 752.300 87.400 752.210 87.400 752.100 V 747.100 V 729.600 C 87.400 729.490 87.310 729.400 87.200 729.400 H 82.400 C 82.200 729.400 82.400 729.600 82.400 729.400 V 719.800 C 82.400 719.600 82.200 719.800 82.400 719.800 H 87.200 C 87.310 719.800 87.400 719.710 87.400 719.600 V 709.600 C 87.400 709.490 87.310 709.400 87.200 709.400 H 82.400 C 82.200 709.400 82.400 709.600 82.400 709.400 V 699.800 C 82.400 699.600 82.200 699.800 82.400 699.800 H 87.200 C 87.310 699.800 87.400 699.710 87.400 699.600 V 682.100 C 87.400 681.990 87.310 681.900 87.200 681.900 H 82.200 H 15.200 H 10.200 C 10.090 681.900 10.000 681.990 10.000 682.100 V 699.600 C 10.000 699.710 10.090 699.800 10.200 699.800 H 15.000 C 15.200 699.800 15.000 699.600 15.000 699.800 V 709.400 C 15.000 709.600 15.200 709.400 15.000 709.400 H 10.200 C 10.090 709.400 10.000 709.490 10.000 709.600 V 719.600 C 10.000 719.710 10.090 719.800 10.200 719.800 H 15.000 C 15.200 719.800 15.000 719.600 15.000 719.800 V 729.400 C 15.000 729.600 15.200 729.400 15.000 729.400 H 10.200 C 10.090 729.400 10.000 729.490 10.000 729.600 V 747.100 V 752.100 C 10.000 752.210 10.090 752.300 10.200 752.300 H 15.200 Z" stroke="rgb(0,0,0)" stroke-width="0.40" />
  <text dominant-baseline="hanging" font-size="4px" style="font-family: sans-serif ; font-weight: normal; font-style: normal; fill: rgb(255,0,0)" text-anchor="middle" transform="matrix( 1.000 0.000 0.000 1.000 48.700 715.300 )">Front</text>
</g>
<g id="p-3" style="fill:none;stroke-linecap:round;stroke-linejoin:round;">
  <path d="M 15.200 679.400 H 25.200 C 25.310 679.400 25.400 679.310 25.400 679.200 V 674.400 C 25.400 674.200 25.200 674.400 25.400 674.400 H 35.000 C 35.200 674.400 35.000 674.200 35.000 674.400 V 679.200 C 35.000 679.310 35.090 679.400 35.200 679.400 H 45.200 C 45.310 679.400 45.400 679.310 45.400 679.200 V 674.400 C 45.400 674.200 45.200 674.400 45.400 674.400 H 55.000 C 55.200 674.400 55.000 674.200 55.000 674.400 V 679.200 C 55.000 679.310 55.090 679.400 55.200 679.400 H 65.200 C 65.310 679.400 65.400 679.310 65.400 679.200 V 674.400 C 65.400 674.200 65.200 674.400 65.400 674.400 H 75.000 C 75.200 674.400 75.000 674.200 75.000 674.400 V 679.200 C 75.000 679.310 75.090 679.400 75.200 679.400 H 85.200 C 85.310 679.400 85.400 679.310 85.400 679.200 V 674.400 C 85.400 674.200 85.200 674.400 85.400 674.400 H 95.000 C 95.200 674.400 95.000 674.200 95.000 674.400 V 679.200 C 95.000 679.310 95.090 679.400 95.200 679.400 H 105.200 C 105.310 679.400 105.400 679.310 105.400 679.200 V 674.400 C 105.400 674.200 105.200 674.400 105.400 674.400 H 115.000 C 115.200 674.400 115.000 674.200 115.000 674.400 V 679.200 C 115.000 679.310 115.090 679.400 115.200 679.400 H 125.200 C 125.310 679.400 125.400 679.310 125.400 679.200 V 674.400 C 125.400 674.200 125.200 674.400 125.400 674.400 H 135.000 C 135.200 674.400 135.000 674.200 135.000 674.400 V 679.200 C 135.000 679.310 135.090 679.400 135.200 679.400 H 145.200 C 145.310 679.400 145.400 679.310 145.400 679.200 V 674.400 C 145.400 674.200 145.200 674.400 145.400 674.400 H 155.000 C 155.200 674.400 155.000 674.200 155.000 674.400 V 679.200 C 155.000 679.310 155.090 679.400 155.200 679.400 H 165.200 C 165.310 679.400 165.400 679.310 165.400 679.200 V 674.400 C 165.400 674.200 165.200 674.400 165.400 674.400 H 175.000 C 175.200 674.400 175.000 674.200 175.000 674.400 V 679.200 C 175.000 679.310 175.090 679.400 175.200 679.400 H 185.200 C 185.310 679.400 185.400 679.310 185.400 679.200 V 674.400 C 185.400 674.200 185.200 674.400 185.400 674.400 H 195.000 C 195.200 674.400 195.000 674.200 195.000 674.400 V 679.200 C 195.000 679.310 195.090 679.400 195.200 679.400 H 205.200 C 205.310 679.400 205.400 679.310 205.400 679.200 V 674.400 C 205.400 674.200 205.200 674.400 205.400 674.400 H 215.000 C 215.200 674.400 215.000 674.200 215.000 674.400 V 679.200 C 215.000 679.310 215.090 679.400 215.200 679.400 H 225.200 C 225.310 679.400 225.400 679.310 225.400 679.200 V 674.400 C 225.400 674.200 225.200 674.400 225.400 674.400 H 235.000 C 235.200 674.400 235.000 674.200 235.000 674.400 V 679.200 C 235.000 679.310 235.090 679.400 235.200 679.400 H 245.200 C 245.310 679.400 245.400 679.310 245.400 679.200 V 674.400 C 245.400 674.200 245.200 674.400 245.400 674.400 H 255.000 C 255.200 674.400 255.000 674.200 255.000 674.400 V 679.200 C 255.000 679.310 255.090 679.400 255.200 679.400 H 265.200 C 265.310 679.400 265.400 679.310 265.400 679.200 V 674.400 C 265.400 674.200 265.200 674.400 265.400 674.400 H 275.000 C 275.200 674.400 275.000 674.200 275.000 674.400 V 679.200 C 275.000 679.310 275.090 679.400 275.200 679.400 H 285.200 C 285.310 679.400 285.400 679.310 285.400 679.200 V 674.200 V 656.900 C 285.400 656.700 285.200 656.900 285.400 656.900 H 290.200 C 290.310 656.900 290.400 656.810 290.400 656.700 V 646.700 C 290.400 646.590 290.310 646.500 290.200 646.500 H 285.400 C 285.200 646.500 285.400 646.700 285.400 646.500 V 636.900 C 285.400 636.700 285.200 636.900 285.400 636.900 H 290.200 C 290.310 636.900 290.400 636.810 290.400 636.700 V 626.700 C 290.400 626.590 290.310 626.500 290.200 626.500 H 285.400 C 285.200 626.500 285.400 626.700 285.400 626.500 V 609.200 C 285.400 609.090 285.310 609.000 285.200 609.000 C 285.129 609.000 285.063 609.038 285.027 609.100 L 263.626 646.168 C 263.526 646.341 263.799 646.268 263.626 646.168 L 259.469 643.768 C 259.296 643.668 259.369 643.941 259.469 643.768 L 277.637 612.300 C 277.830 611.966 277.931 611.586 277.931 611.200 C 277.931 610.814 277.830 610.434 277.637 610.100 C 277.444 609.766 277.166 609.488 276.831 609.295 C 276.497 609.102 276.118 609.000 275.731 609.000 H 254.002 C 253.616 609.000 253.237 609.102 252.902 609.295 C 252.568 609.488 252.290 609.766 252.097 610.100 L 231.273 646.168 C 231.173 646.341 231.446 646.268 231.273 646.168 L 227.116 643.768 C 226.943 643.668 227.016 643.941 227.116 643.768 L 245.284 612.300 C 245.477 611.966 245.579 611.586 245.579 611.200 C 245.579 610.814 245.477 610.434 245.284 610.100 C 245.091 609.766 244.813 609.488 244.479 609.295 C 244.144 609.102 243.765 609.000 243.379 609.000 H 221.650 C 221.263 609.000 220.884 609.102 220.550 609.295 C 220.215 609.488 219.937 609.766 219.744 610.100 L 198.921 646.168 C 198.821 646.341 199.094 646.268 198.921 646.168 L 194.764 643.768 C 194.590 643.668 194.664 643.941 194.764 643.768 L 212.932 612.300 C 213.125 611.966 213.226 611.586 213.226 611.200 C 213.226 610.814 213.125 610.434 212.932 610.100 C 212.739 609.766 212.461 609.488 212.126 609.295 C 211.792 609.102 211.413 609.000 211.026 609.000 H 189.297 C 188.911 609.000 188.532 609.102 188.197 609.295 C 187.863 609.488 187.585 609.766 187.392 610.100 L 166.568 646.168 C 166.468 646.341 166.741 646.268 166.568 646.168 L 162.411 643.768 C 162.238 643.668 162.311 643.941 162.411 643.768 L 180.579 612.300 C 180.772 611.966 180.874 611.586 180.874 611.200 C 180.874 610.814 180.772 610.434 180.579 610.100 C 180.386 609.766 180.108 609.488 179.774 609.295 C 179.439 609.102 179.060 609.000 178.674 609.000 H 156.945 C 156.558 609.000 156.179 609.102 155.845 609.295 C 155.510 609.488 155.232 609.766 155.039 610.100 L 134.216 646.168 C 134.116 646.341 134.389 646.268 134.216 646.168 L 130.059 643.768 C 129.885 643.668 129.959 643.941 130.059 643.768 L 148.227 612.300 C 148.420 611.966 148.521 611.586 148.521 611.200 C 148.521 610.814 148.420 610.434 148.227 610.100 C 148.033 609.766 147.756 609.488 147.421 609.295 C 147.087 609.102 146.707 609.000 146.321 609.000 H 124.592 C 124.206 609.000 123.826 609.102 123.492 609.295 C 123.158 609.488 122.880 609.766 122.687 610.100 L 101.863 646.168 C 101.763 646.341 102.036 646.268 101.863 646.168 L 97.706 643.768 C 97.533 643.668 97.606 643.941 97.706 643.768 L 115.874 612.300 C 116.067 611.966 116.169 611.586 116.169 611.200 C 116.169 610.814 116.067 610.434 115.874 610.100 C 115.681 609.766 115.403 609.488 115.069 609.295 C 114.734 609.102 114.355 609.000 113.969 609.000 H 92.239 C 91.853 609.000 91.474 609.102 91.139 609.295 C 90.805 609.488 90.527 609.766 90.334 610.100 L 69.510 646.168 C 69.410 646.341 69.684 646.268 69.510 646.168 L 65.354 643.768 C 65.180 643.668 65.254 643.941 65.354 643.768 L 83.521 612.300 C 83.715 611.966 83.816 611.586 83.816 611.200 C 83.816 610.814 83.715 610.434 83.521 610.100 C 83.328 609.766 83.051 609.488 82.716 609.295 C 82.382 609.102 82.002 609.000 81.616 609.000 H 59.887 C 59.501 609.000 59.121 609.102 58.787 609.295 C 58.452 609.488 58.175 609.766 57.982 610.100 L 37.158 646.168 C 37.058 646.341 37.331 646.268 37.158 646.168 L 33.001 643.768 C 32.828 643.668 32.901 643.941 33.001 643.768 L 51.169 612.300 C 51.362 611.966 51.464 611.586 51.464 611.200 C 51.464 610.814 51.362 610.434 51.169 610.100 C 50.976 609.766 50.698 609.488 50.364 609.295 C 50.029 609.102 49.650 609.000 49.264 609.000 H 15.200 C 15.090 609.000 15.000 609.090 15.000 609.200 V 626.500 C 15.000 626.700 15.200 626.500 15.000 626.500 H 10.200 C 10.090 626.500 10.000 626.590 10.000 626.700 V 636.700 C 10.000 636.810 10.090 636.900 10.200 636.900 H 15.000 C 15.200 636.900 15.000 636.700 15.000 636.900 V 646.500 C 15.000 646.700 15.200 646.500 15.000 646.500 H 10.200 C 10.090 646.500 10.000 646.590 10.000 646.700 V 656.700 C 10.000 656.810 10.090 656.900 10.200 656.900 H 15.000 C 15.200 656.900 15.000 656.700 15.000 656.900 V 674.200 V 679.200 C 15.000 679.310 15.090 679.400 15.200 679.400 Z" stroke="rgb(0,0,0)" stroke-width="0.40" />
  <text dominant-baseline="hanging" font-size="4px" style="font-family: sans-serif ; font-weight: normal; font-style: normal; fill: rgb(255,0,0)" text-anchor="middle" transform="matrix( 1.000 0.000 0.000 1.000 150.200 642.400 )">Sidepiece 1</text>
</g>
<g id="p-4" style="fill:none;stroke-linecap:round;stroke-linejoin:round;">
  <path d="M 15.200 606.500 H 25.200 C 25.310 606.500 25.400 606.410 25.400 606.300 V 601.500 C 25.400 601.300 25.200 601.500 25.400 601.500 H 35.000 C 35.200 601.500 35.000 601.300 35.000 601.500 V 606.300 C 35.000 606.410 35.090 606.500 35.200 606.500 H 45.200 C 45.310 606.500 45.400 606.410 45.400 606.300 V 601.500 C 45.400 601.300 45.200 601.500 45.400 601.500 H 55.000 C 55.200 601.500 55.000 601.300 55.000 601.500 V 606.300 C 55.000 606.410 55.090 606.500 55.200 606.500 H 65.200 C 65.310 606.500 65.400 606.410 65.400 606.300 V 601.500 C 65.400 601.300 65.200 601.500 65.400 601.500 H 75.000 C 75.200 601.500 75.000 601.300 75.000 601.500 V 606.300 C 75.000 606.410 75.090 606.500 75.200 606.500 H 85.200 C 85.310 606.500 85.400 606.410 85.400 606.300 V 601.500 C 85.400 601.300 85.200 601.500 85.400 601.500 H 95.000 C 95.200 601.500 95.000 601.300 95.000 601.500 V 606.300 C 95.000 606.410 95.090 606.500 95.200 606.500 H 105.200 C 105.310 606.500 105.400 606.410 105.400 606.300 V 601.500 C 105.400 601.300 105.200 601.500 105.400 601.500 H 115.000 C 115.200 601.500 115.000 601.300 115.000 601.500 V 606.300 C 115.000 606.410 115.090 606.500 115.200 606.500 H 125.200 C 125.310 606.500 125.400 606.410 125.400 606.300 V 601.500 C 125.400 601.300 125.200 601.500 125.400 601.500 H 135.000 C 135.200 601.500 135.000 601.300 135.000 601.500 V 606.300 C 135.000 606.410 135.090 606.500 135.200 606.500 H 145.200 C 145.310 606.500 145.400 606.410 145.400 606.300 V 601.500 C 145.400 601.300 145.200 601.500 145.400 601.500 H 155.000 C 155.200 601.500 155.000 601.300 155.000 601.500 V 606.300 C 155.000 606.410 155.090 606.500 155.200 606.500 H 165.200 C 165.310 606.500 165.400 606.410 165.400 606.300 V 601.500 C 165.400 601.300 165.200 601.500 165.400 601.500 H 175.000 C 175.200 601.500 175.000 601.300 175.000 601.500 V 606.300 C 175.000 606.410 175.090 606.500 175.200 606.500 H 185.200 C 185.310 606.500 185.400 606.410 185.400 606.300 V 601.500 C 185.400 601.300 185.200 601.500 185.400 601.500 H 195.000 C 195.200 601.500 195.000 601.300 195.000 601.500 V 606.300 C 195.000 606.410 195.090 606.500 195.200 606.500 H 205.200 C 205.310 606.500 205.400 606.410 205.400 606.300 V 601.500 C 205.400 601.300 205.200 601.500 205.400 601.500 H 215.000 C 215.200 601.500 215.000 601.300 215.000 601.500 V 606.300 C 215.000 606.410 215.090 606.500 215.200 606.500 H 225.200 C 225.310 606.500 225.400 606.410 225.400 606.300 V 601.500 C 225.400 601.300 225.200 601.500 225.400 601.500 H 235.000 C 235.200 601.500 235.000 601.300 235.000 601.500 V 606.300 C 235.000 606.410 235.090 606.500 235.200 606.500 H 245.200 C 245.310 606.500 245.400 606.410 245.400 606.300 V 601.500 C 245.400 601.300 245.200 601.500 245.400 601.500 H 255.000 C 255.200 601.500 255.000 601.300 255.000 601.500 V 606.300 C 255.000 606.410 255.090 606.500 255.200 606.500 H 265.200 C 265.310 606.500 265.400 606.410 265.400 606.300 V 601.500 C 265.400 601.300 265.200 601.500 265.400 601.500 H 275.000 C 275.200 601.500 275.000 601.300 275.000 601.500 V 606.300 C 275.000 606.410 275.090 606.500 275.200 606.500 H 285.200 C 285.310 606.500 285.400 606.410 285.400 606.300 V 601.300 V 584.000 C 285.400 583.800 285.200 584.000 285.400 584.000 H 290.200 C 290.310 584.000 290.400 583.910 290.400 583.800 V 573.800 C 290.400 573.690 290.310 573.600 290.200 573.600 H 285.400 C 285.200 573.600 285.400 573.800 285.400 573.600 V 564.000 C 285.400 563.800 285.200 564.000 285.400 564.000 H 290.200 C 290.310 564.000 290.400 563.910 290.400 563.800 V 553.800 C 290.400 553.690 290.310 553.600 290.200 553.600 H 285.400 C 285.200 553.600 285.400 553.800 285.400 553.600 V 536.300 C 285.400 536.190 285.310 536.100 285.200 536.100 C 285.129 536.100 285.063 536.138 285.027 536.200 L 263.626 573.268 C 263.526 573.441 263.799 573.368 263.626 573.268 L 259.469 570.868 C 259.296 570.768 259.369 571.041 259.469 570.868 L 277.637 539.400 C 277.830 539.066 277.931 538.686 277.931 538.300 C 277.931 537.914 277.830 537.534 277.637 537.200 C 277.444 536.866 277.166 536.588 276.831 536.395 C 276.497 536.202 276.118 536.100 275.731 536.100 H 254.002 C 253.616 536.100 253.237 536.202 252.902 536.395 C 252.568 536.588 252.290 536.866 252.097 537.200 L 231.273 573.268 C 231.173 573.441 231.446 573.368 231.273 573.268 L 227.116 570.868 C 226.943 570.768 227.016 571.041 227.116 570.868 L 245.284 539.400 C 245.477 539.066 245.579 538.686 245.579 538.300 C 245.579 537.914 245.477 537.534 245.284 537.200 C 245.091 536.866 244.813 536.588 244.479 536.395 C 244.144 536.202 243.765 536.100 243.379 536.100 H 221.650 C 221.263 536.100 220.884 536.202 220.550 536.395 C 220.215 536.588 219.937 536.866 219.744 537.200 L 198.921 573.268 C 198.821 573.441 199.094 573.368 198.921 573.268 L 194.764 570.868 C 194.590 570.768 194.664 571.041 194.764 570.868 L 212.932 539.400 C 213.125 539.066 213.226 538.686 213.226 538.300 C 213.226 537.914 213.125 537.534 212.932 537.200 C 212.739 536.866 212.461 536.588 212.126 536.395 C 211.792 536.202 211.413 536.100 211.026 536.100 H 189.297 C 188.911 536.100 188.532 536.202 188.197 536.395 C 187.863 536.588 187.585 536.866 187.392 537.200 L 166.568 573.268 C 166.468 573.441 166.741 573.368 166.568 573.268 L 162.411 570.868 C 162.238 570.768 162.311 571.041 162.411 570.868 L 180.579 539.400 C 180.772 539.066 180.874 538.686 180.874 538.300 C 180.874 537.914 180.772 537.534 180.579 537.200 C 180.386 536.866 180.108 536.588 179.774 536.395 C 179.439 536.202 179.060 536.100 178.674 536.100 H 156.945 C 156.558 536.100 156.179 536.202 155.845 536.395 C 155.510 536.588 155.232 536.866 155.039 537.200 L 134.216 573.268 C 134.116 573.441 134.389 573.368 134.216 573.268 L 130.059 570.868 C 129.885 570.768 129.959 571.041 130.059 570.868 L 148.227 539.400 C 148.420 539.066 148.521 538.686 148.521 538.300 C 148.521 537.914 148.420 537.534 148.227 537.200 C 148.033 536.866 147.756 536.588 147.421 536.395 C 147.087 536.202 146.707 536.100 146.321 536.100 H 124.592 C 124.206 536.100 123.826 536.202 123.492 536.395 C 123.158 536.588 122.880 536.866 122.687 537.200 L 101.863 573.268 C 101.763 573.441 102.036 573.368 101.863 573.268 L 97.706 570.868 C 97.533 570.768 97.606 571.041 97.706 570.868 L 115.874 539.400 C 116.067 539.066 116.169 538.686 116.169 538.300 C 116.169 537.914 116.067 537.534 115.874 537.200 C 115.681 536.866 115.403 536.588 115.069 536.395 C 114.734 536.202 114.355 536.100 113.969 536.100 H 92.239 C 91.853 536.100 91.474 536.202 91.139 536.395 C 90.805 536.588 90.527 536.866 90.334 537.200 L 69.510 573.268 C 69.410 573.441 69.684 573.368 69.510 573.268 L 65.354 570.868 C 65.180 570.768 65.254 571.041 65.354 570.868 L 83.521 539.400 C 83.715 539.066 83.816 538.686 83.816 538.300 C 83.816 537.914 83.715 537.534 83.521 537.200 C 83.328 536.866 83.051 536.588 82.716 536.395 C 82.382 536.202 82.002 536.100 81.616 536.100 H 59.887 C 59.501 536.100 59.121 536.202 58.787 536.395 C 58.452 536.588 58.175 536.866 57.982 537.200 L 37.158 573.268 C 37.058 573.441 37.331 573.368 37.158 573.268 L 33.001 570.868 C 32.828 570.768 32.901 571.041 33.001 570.868 L 51.169 539.400 C 51.362 539.066 51.464 538.686 51.464 538.300 C 51.464 537.914 51.362 537.534 51.169 537.200 C 50.976 536.866 50.698 536.588 50.364 536.395 C 50.029 536.202 49.650 536.100 49.264 536.100 H 15.200 C 15.090 536.100 15.000 536.190 15.000 536.300 V 553.600 C 15.000 553.800 15.200 553.600 15.000 553.600 H 10.200 C 10.090 553.600 10.000 553.690 10.000 553.800 V 563.800 C 10.000 563.910 10.090 564.000 10.200 564.000 H 15.000 C 15.200 564.000 15.000 563.800 15.000 564.000 V 573.600 C 15.000 573.800 15.200 573.600 15.000 573.600 H 10.200 C 10.090 573.600 10.000 573.690 10.000 573.800 V 583.800 C 10.000 583.910 10.090 584.000 10.200 584.000 H 15.000 C 15.200 584.000 15.000 583.800 15.000 584.000 V 601.300 V 606.300 C 15.000 606.410 15.090 606.500 15.200 606.500 Z" stroke="rgb(0,0,0)" stroke-width="0.40" />
  <text dominant-baseline="hanging" font-size="4px" style="font-family: sans-serif ; font-weight: normal; font-style: normal; fill: rgb(255,0,0)" text-anchor="middle" transform="matrix( 1.000 0.000 0.000 1.000 150.200 569.500 )">Sidepiece 2</text>
</g>
<g id="p-5" style="fill:none;stroke-linecap:round;stroke-linejoin:round;">
  <path d="M 15.200 528.600 H 33.500 C 33.700 528.600 33.500 528.400 33.500 528.600 V 533.400 C 33.500 533.510 33.590 533.600 33.700 533.600 H 43.700 C 43.810 533.600 43.900 533.510 43.900 533.400 V 528.600 C 43.900 528.400 43.700 528.600 43.900 528.600 H 53.500 C 53.700 528.600 53.500 528.400 53.500 528.600 V 533.400 C 53.500 533.510 53.590 533.600 53.700 533.600 H 63.700 C 63.810 533.600 63.900 533.510 63.900 533.400 V 528.600 C 63.900 528.400 63.700 528.600 63.900 528.600 H 82.200 C 82.310 528.600 82.400 528.510 82.400 528.400 V 518.600 C 82.400 518.400 82.200 518.600 82.400 518.600 H 87.200 C 87.310 518.600 87.400 518.510 87.400 518.400 V 508.400 C 87.400 508.290 87.310 508.200 87.200 508.200 H 82.400 C 82.200 508.200 82.400 508.400 82.400 508.200 V 498.600 C 82.400 498.400 82.200 498.600 82.400 498.600 H 87.200 C 87.310 498.600 87.400 498.510 87.400 498.400 V 488.400 C 87.400 488.290 87.310 488.200 87.200 488.200 H 82.400 C 82.200 488.200 82.400 488.400 82.400 488.200 V 478.600 C 82.400 478.400 82.200 478.600 82.400 478.600 H 87.200 C 87.310 478.600 87.400 478.510 87.400 478.400 V 468.400 C 87.400 468.290 87.310 468.200 87.200 468.200 H 82.400 C 82.200 468.200 82.400 468.400 82.400 468.200 V 458.600 C 82.400 458.400 82.200 458.600 82.400 458.600 H 87.200 C 87.310 458.600 87.400 458.510 87.400 458.400 V 448.400 C 87.400 448.290 87.310 448.200 87.200 448.200 H 82.400 C 82.200 448.200 82.400 448.400 82.400 448.200 V 438.600 C 82.400 438.400 82.200 438.600 82.400 438.600 H 87.200 C 87.310 438.600 87.400 438.510 87.400 438.400 V 428.400 C 87.400 428.290 87.310 428.200 87.200 428.200 H 82.400 C 82.200 428.200 82.400 428.400 82.400 428.200 V 418.600 C 82.400 418.400 82.200 418.600 82.400 418.600 H 87.200 C 87.310 418.600 87.400 418.510 87.400 418.400 V 408.400 C 87.400 408.290 87.310 408.200 87.200 408.200 H 82.400 C 82.200 408.200 82.400 408.400 82.400 408.200 V 398.600 C 82.400 398.400 82.200 398.600 82.400 398.600 H 87.200 C 87.310 398.600 87.400 398.510 87.400 398.400 V 388.400 C 87.400 388.290 87.310 388.200 87.200 388.200 H 82.400 C 82.200 388.200 82.400 388.400 82.400 388.200 V 378.600 C 82.400 378.400 82.200 378.600 82.400 378.600 H 87.200 C 87.310 378.600 87.400 378.510 87.400 378.400 V 368.400 C 87.400 368.290 87.310 368.200 87.200 368.200 H 82.400 C 82.200 368.200 82.400 368.400 82.400 368.200 V 358.600 C 82.400 358.400 82.200 358.600 82.400 358.600 H 87.200 C 87.310 358.600 87.400 358.510 87.400 358.400 V 348.400 C 87.400 348.290 87.310 348.200 87.200 348.200 H 82.400 C 82.200 348.200 82.400 348.400 82.400 348.200 V 338.600 C 82.400 338.400 82.200 338.600 82.400 338.600 H 87.200 C 87.310 338.600 87.400 338.510 87.400 338.400 V 328.400 C 87.400 328.290 87.310 328.200 87.200 328.200 H 82.400 C 82.200 328.200 82.400 328.400 82.400 328.200 V 318.600 C 82.400 318.400 82.200 318.600 82.400 318.600 H 87.200 C 87.310 318.600 87.400 318.510 87.400 318.400 V 308.400 C 87.400 308.290 87.310 308.200 87.200 308.200 H 82.400 C 82.200 308.200 82.400 308.400 82.400 308.200 V 298.600 C 82.400 298.400 82.200 298.600 82.400 298.600 H 87.200 C 87.310 298.600 87.400 298.510 87.400 298.400 V 288.400 C 87.400 288.290 87.310 288.200 87.200 288.200 H 82.400 C 82.200 288.200 82.400 288.400 82.400 288.200 V 278.600 C 82.400 278.400 82.200 278.600 82.400 278.600 H 87.200 C 87.310 278.600 87.400 278.510 87.400 278.400 V 268.400 C 87.400 268.290 87.310 268.200 87.200 268.200 H 82.400 C 82.200 268.200 82.400 268.400 82.400 268.200 V 258.400 C 82.400 258.290 82.310 258.200 82.200 258.200 H 63.900 C 63.700 258.200 63.900 258.400 63.900 258.200 V 253.400 C 63.900 253.290 63.810 253.200 63.700 253.200 H 53.700 C 53.590 253.200 53.500 253.290 53.500 253.400 V 258.200 C 53.500 258.400 53.700 258.200 53.500 258.200 H 43.900 C 43.700 258.200 43.900 258.400 43.900 258.200 V 253.400 C 43.900 253.290 43.810 253.200 43.700 253.200 H 33.700 C 33.590 253.200 33.500 253.290 33.500 253.400 V 258.200 C 33.500 258.400 33.700 258.200 33.500 258.200 H 15.200 C 15.090 258.200 15.000 258.290 15.000 258.400 V 268.200 C 15.000 268.400 15.200 268.200 15.000 268.200 H 10.200 C 10.090 268.200 10.000 268.290 10.000 268.400 V 278.400 C 10.000 278.510 10.090 278.600 10.200 278.600 H 15.000 C 15.200 278.600 15.000 278.400 15.000 278.600 V 288.200 C 15.000 288.400 15.200 288.200 15.000 288.200 H 10.200 C 10.090 288.200 10.000 288.290 10.000 288.400 V 298.400 C 10.000 298.510 10.090 298.600 10.200 298.600 H 15.000 C 15.200 298.600 15.000 298.400 15.000 298.600 V 308.200 C 15.000 308.400 15.200 308.200 15.000 308.200 H 10.200 C 10.090 308.200 10.000 308.290 10.000 308.400 V 318.400 C 10.000 318.510 10.090 318.600 10.200 318.600 H 15.000 C 15.200 318.600 15.000 318.400 15.000 318.600 V 328.200 C 15.000 328.400 15.200 328.200 15.000 328.200 H 10.200 C 10.090 328.200 10.000 328.290 10.000 328.400 V 338.400 C 10.000 338.510 10.090 338.600 10.200 338.600 H 15.000 C 15.200 338.600 15.000 338.400 15.000 338.600 V 348.200 C 15.000 348.400 15.200 348.200 15.000 348.200 H 10.200 C 10.090 348.200 10.000 348.290 10.000 348.400 V 358.400 C 10.000 358.510 10.090 358.600 10.200 358.600 H 15.000 C 15.200 358.600 15.000 358.400 15.000 358.600 V 368.200 C 15.000 368.400 15.200 368.200 15.000 368.200 H 10.200 C 10.090 368.200 10.000 368.290 10.000 368.400 V 378.400 C 10.000 378.510 10.090 378.600 10.200 378.600 H 15.000 C 15.200 378.600 15.000 378.400 15.000 378.600 V 388.200 C 15.000 388.400 15.200 388.200 15.000 388.200 H 10.200 C 10.090 388.200 10.000 388.290 10.000 388.400 V 398.400 C 10.000 398.510 10.090 398.600 10.200 398.600 H 15.000 C 15.200 398.600 15.000 398.400 15.000 398.600 V 408.200 C 15.000 408.400 15.200 408.200 15.000 408.200 H 10.200 C 10.090 408.200 10.000 408.290 10.000 408.400 V 418.400 C 10.000 418.510 10.090 418.600 10.200 418.600 H 15.000 C 15.200 418.600 15.000 418.400 15.000 418.600 V 428.200 C 15.000 428.400 15.200 428.200 15.000 428.200 H 10.200 C 10.090 428.200 10.000 428.290 10.000 428.400 V 438.400 C 10.000 438.510 10.090 438.600 10.200 438.600 H 15.000 C 15.200 438.600 15.000 438.400 15.000 438.600 V 448.200 C 15.000 448.400 15.200 448.200 15.000 448.200 H 10.200 C 10.090 448.200 10.000 448.290 10.000 448.400 V 458.400 C 10.000 458.510 10.090 458.600 10.200 458.600 H 15.000 C 15.200 458.600 15.000 458.400 15.000 458.600 V 468.200 C 15.000 468.400 15.200 468.200 15.000 468.200 H 10.200 C 10.090 468.200 10.000 468.290 10.000 468.400 V 478.400 C 10.000 478.510 10.090 478.600 10.200 478.600 H 15.000 C 15.200 478.600 15.000 478.400 15.000 478.600 V 488.200 C 15.000 488.400 15.200 488.200 15.000 488.200 H 10.200 C 10.090 488.200 10.000 488.290 10.000 488.400 V 498.400 C 10.000 498.510 10.090 498.600 10.200 498.600 H 15.000 C 15.200 498.600 15.000 498.400 15.000 498.600 V 508.200 C 15.000 508.400 15.200 508.200 15.000 508.200 H 10.200 C 10.090 508.200 10.000 508.290 10.000 508.400 V 518.400 C 10.000 518.510 10.090 518.600 10.200 518.600 H 15.000 C 15.200 518.600 15.000 518.400 15.000 518.600 V 528.400 C 15.000 528.510 15.090 528.600 15.200 528.600 Z" stroke="rgb(0,0,0)" stroke-width="0.40" />
  <text dominant-baseline="hanging" font-size="4px" style="font-family: sans-serif ; font-weight: normal; font-style: normal; fill: rgb(255,0,0)" text-anchor="middle" transform="matrix( 1.000 0.000 0.000 1.000 48.700 391.600 )">lid top</text>
</g>
<g id="p-6" style="fill:none;stroke-linecap:round;stroke-linejoin:round;">
  <path d="M 15.200 250.700 H 82.200 H 87.200 C 87.310 250.700 87.400 250.610 87.400 250.500 V 243.000 C 87.400 242.890 87.310 242.800 87.200 242.800 H 82.400 C 82.200 242.800 82.400 243.000 82.400 242.800 V 233.200 C 82.400 233.000 82.200 233.200 82.400 233.200 H 87.200 C 87.310 233.200 87.400 233.110 87.400 233.000 V 225.500 C 87.400 225.390 87.310 225.300 87.200 225.300 H 82.200 H 63.700 C 63.590 225.300 63.500 225.390 63.500 225.500 V 230.300 C 63.500 230.500 63.700 230.300 63.500 230.300 H 53.900 C 53.700 230.300 53.900 230.500 53.900 230.300 V 225.500 C 53.900 225.390 53.810 225.300 53.700 225.300 H 43.700 C 43.590 225.300 43.500 225.390 43.500 225.500 V 230.300 C 43.500 230.500 43.700 230.300 43.500 230.300 H 33.900 C 33.700 230.300 33.900 230.500 33.900 230.300 V 225.500 C 33.900 225.390 33.810 225.300 33.700 225.300 H 15.200 H 10.200 C 10.090 225.300 10.000 225.390 10.000 225.500 V 233.000 C 10.000 233.110 10.090 233.200 10.200 233.200 H 15.000 C 15.200 233.200 15.000 233.000 15.000 233.200 V 242.800 C 15.000 243.000 15.200 242.800 15.000 242.800 H 10.200 C 10.090 242.800 10.000 242.890 10.000 243.000 V 250.500 C 10.000 250.610 10.090 250.700 10.200 250.700 H 15.200 Z" stroke="rgb(0,0,0)" stroke-width="0.40" />
  <text dominant-baseline="hanging" font-size="4px" style="font-family: sans-serif ; font-weight: normal; font-style: normal; fill: rgb(255,0,0)" text-anchor="middle" transform="matrix( 1.000 0.000 0.000 1.000 48.700 236.200 )">lid front</text>
</g>
<g id="p-7" style="fill:none;stroke-linecap:round;stroke-linejoin:round;">
  <path d="M 15.200 222.800 H 82.200 H 87.200 C 87.310 222.800 87.400 222.710 87.400 222.600 V 215.100 C 87.400 214.990 87.310 214.900 87.200 214.900 H 82.400 C 82.200 214.900 82.400 215.100 82.400 214.900 V 205.300 C 82.400 205.100 82.200 205.300 82.400 205.300 H 87.200 C 87.310 205.300 87.400 205.210 87.400 205.100 V 197.600 C 87.400 197.490 87.310 197.400 87.200 197.400 H 82.200 H 63.700 C 63.590 197.400 63.500 197.490 63.500 197.600 V 202.400 C 63.500 202.600 63.700 202.400 63.500 202.400 H 53.900 C 53.700 202.400 53.900 202.600 53.900 202.400 V 197.600 C 53.900 197.490 53.810 197.400 53.700 197.400 H 43.700 C 43.590 197.400 43.500 197.490 43.500 197.600 V 202.400 C 43.500 202.600 43.700 202.400 43.500 202.400 H 33.900 C 33.700 202.400 33.900 202.600 33.900 202.400 V 197.600 C 33.900 197.490 33.810 197.400 33.700 197.400 H 15.200 H 10.200 C 10.090 197.400 10.000 197.490 10.000 197.600 V 205.100 C 10.000 205.210 10.090 205.300 10.200 205.300 H 15.000 C 15.200 205.300 15.000 205.100 15.000 205.300 V 214.900 C 15.000 215.100 15.200 214.900 15.000 214.900 H 10.200 C 10.090 214.900 10.000 214.990 10.000 215.100 V 222.600 C 10.000 222.710 10.090 222.800 10.200 222.800 H 15.200 Z" stroke="rgb(0,0,0)" stroke-width="0.40" />
  <text dominant-baseline="hanging" font-size="4px" style="font-family: sans-serif ; font-weight: normal; font-style: normal; fill: rgb(255,0,0)" text-anchor="middle" transform="matrix( 1.000 0.000 0.000 1.000 48.700 208.300 )">lid back</text>
</g>
<g id="p-8" style="fill:none;stroke-linecap:round;stroke-linejoin:round;">
  <path d="M 15.200 194.900 H 285.200 C 285.310 194.900 285.400 194.810 285.400 194.700 V 187.400 C 285.400 187.200 285.200 187.400 285.400 187.400 H 290.200 C 290.310 187.400 290.400 187.310 290.400 187.200 V 177.200 C 290.400 177.090 290.310 177.000 290.200 177.000 H 285.400 C 285.200 177.000 285.400 177.200 285.400 177.000 V 169.700 C 285.400 169.590 285.310 169.500 285.200 169.500 H 275.200 C 275.090 169.500 275.000 169.590 275.000 169.700 V 174.500 C 275.000 174.700 275.200 174.500 275.000 174.500 H 265.400 C 265.200 174.500 265.400 174.700 265.400 174.500 V 169.700 C 265.400 169.590 265.310 169.500 265.200 169.500 H 255.200 C 255.090 169.500 255.000 169.590 255.000 169.700 V 174.500 C 255.000 174.700 255.200 174.500 255.000 174.500 H 245.400 C 245.200 174.500 245.400 174.700 245.400 174.500 V 169.700 C 245.400 169.590 245.310 169.500 245.200 169.500 H 235.200 C 235.090 169.500 235.000 169.590 235.000 169.700 V 174.500 C 235.000 174.700 235.200 174.500 235.000 174.500 H 225.400 C 225.200 174.500 225.400 174.700 225.400 174.500 V 169.700 C 225.400 169.590 225.310 169.500 225.200 169.500 H 215.200 C 215.090 169.500 215.000 169.590 215.000 169.700 V 174.500 C 215.000 174.700 215.200 174.500 215.000 174.500 H 205.400 C 205.200 174.500 205.400 174.700 205.400 174.500 V 169.700 C 205.400 169.590 205.310 169.500 205.200 169.500 H 195.200 C 195.090 169.500 195.000 169.590 195.000 169.700 V 174.500 C 195.000 174.700 195.200 174.500 195.000 174.500 H 185.400 C 185.200 174.500 185.400 174.700 185.400 174.500 V 169.700 C 185.400 169.590 185.310 169.500 185.200 169.500 H 175.200 C 175.090 169.500 175.000 169.590 175.000 169.700 V 174.500 C 175.000 174.700 175.200 174.500 175.000 174.500 H 165.400 C 165.200 174.500 165.400 174.700 165.400 174.500 V 169.700 C 165.400 169.590 165.310 169.500 165.200 169.500 H 155.200 C 155.090 169.500 155.000 169.590 155.000 169.700 V 174.500 C 155.000 174.700 155.200 174.500 155.000 174.500 H 145.400 C 145.200 174.500 145.400 174.700 145.400 174.500 V 169.700 C 145.400 169.590 145.310 169.500 145.200 169.500 H 135.200 C 135.090 169.500 135.000 169.590 135.000 169.700 V 174.500 C 135.000 174.700 135.200 174.500 135.000 174.500 H 125.400 C 125.200 174.500 125.400 174.700 125.400 174.500 V 169.700 C 125.400 169.590 125.310 169.500 125.200 169.500 H 115.200 C 115.090 169.500 115.000 169.590 115.000 169.700 V 174.500 C 115.000 174.700 115.200 174.500 115.000 174.500 H 105.400 C 105.200 174.500 105.400 174.700 105.400 174.500 V 169.700 C 105.400 169.590 105.310 169.500 105.200 169.500 H 95.200 C 95.090 169.500 95.000 169.590 95.000 169.700 V 174.500 C 95.000 174.700 95.200 174.500 95.000 174.500 H 85.400 C 85.200 174.500 85.400 174.700 85.400 174.500 V 169.700 C 85.400 169.590 85.310 169.500 85.200 169.500 H 75.200 C 75.090 169.500 75.000 169.590 75.000 169.700 V 174.500 C 75.000 174.700 75.200 174.500 75.000 174.500 H 65.400 C 65.200 174.500 65.400 174.700 65.400 174.500 V 169.700 C 65.400 169.590 65.310 169.500 65.200 169.500 H 55.200 C 55.090 169.500 55.000 169.590 55.000 169.700 V 174.500 C 55.000 174.700 55.200 174.500 55.000 174.500 H 45.400 C 45.200 174.500 45.400 174.700 45.400 174.500 V 169.700 C 45.400 169.590 45.310 169.500 45.200 169.500 H 35.200 C 35.090 169.500 35.000 169.590 35.000 169.700 V 174.500 C 35.000 174.700 35.200 174.500 35.000 174.500 H 25.400 C 25.200 174.500 25.400 174.700 25.400 174.500 V 169.700 C 25.400 169.590 25.310 169.500 25.200 169.500 H 15.200 C 15.090 169.500 15.000 169.590 15.000 169.700 V 177.000 C 15.000 177.200 15.200 177.000 15.000 177.000 H 10.200 C 10.090 177.000 10.000 177.090 10.000 177.200 V 187.200 C 10.000 187.310 10.090 187.400 10.200 187.400 H 15.000 C 15.200 187.400 15.000 187.200 15.000 187.400 V 194.700 C 15.000 194.810 15.090 194.900 15.200 194.900 Z" stroke="rgb(0,0,0)" stroke-width="0.40" />
  <text dominant-baseline="hanging" font-size="4px" style="font-family: sans-serif ; font-weight: normal; font-style: normal; fill: rgb(255,0,0)" text-anchor="middle" transform="matrix( 1.000 0.000 0.000 1.000 150.200 180.400 )">lid left</text>
</g>
<g id="p-9" style="fill:none;stroke-linecap:round;stroke-linejoin:round;">
  <path d="M 15.200 167.000 H 285.200 C 285.310 167.000 285.400 166.910 285.400 166.800 V 159.500 C 285.400 159.300 285.200 159.500 285.400 159.500 H 290.200 C 290.310 159.500 290.400 159.410 290.400 159.300 V 149.300 C 290.400 149.190 290.310 149.100 290.200 149.100 H 285.400 C 285.200 149.100 285.400 149.300 285.400 149.100 V 141.800 C 285.400 141.690 285.310 141.600 285.200 141.600 H 275.200 C 275.090 141.600 275.000 141.690 275.000 141.800 V 146.600 C 275.000 146.800 275.200 146.600 275.000 146.600 H 265.400 C 265.200 146.600 265.400 146.800 265.400 146.600 V 141.800 C 265.400 141.690 265.310 141.600 265.200 141.600 H 255.200 C 255.090 141.600 255.000 141.690 255.000 141.800 V 146.600 C 255.000 146.800 255.200 146.600 255.000 146.600 H 245.400 C 245.200 146.600 245.400 146.800 245.400 146.600 V 141.800 C 245.400 141.690 245.310 141.600 245.200 141.600 H 235.200 C 235.090 141.600 235.000 141.690 235.000 141.800 V 146.600 C 235.000 146.800 235.200 146.600 235.000 146.600 H 225.400 C 225.200 146.600 225.400 146.800 225.400 146.600 V 141.800 C 225.400 141.690 225.310 141.600 225.200 141.600 H 215.200 C 215.090 141.600 215.000 141.690 215.000 141.800 V 146.600 C 215.000 146.800 215.200 146.600 215.000 146.600 H 205.400 C 205.200 146.600 205.400 146.800 205.400 146.600 V 141.800 C 205.400 141.690 205.310 141.600 205.200 141.600 H 195.200 C 195.090 141.600 195.000 141.690 195.000 141.800 V 146.600 C 195.000 146.800 195.200 146.600 195.000 146.600 H 185.400 C 185.200 146.600 185.400 146.800 185.400 146.600 V 141.800 C 185.400 141.690 185.310 141.600 185.200 141.600 H 175.200 C 175.090 141.600 175.000 141.690 175.000 141.800 V 146.600 C 175.000 146.800 175.200 146.600 175.000 146.600 H 165.400 C 165.200 146.600 165.400 146.800 165.400 146.600 V 141.800 C 165.400 141.690 165.310 141.600 165.200 141.600 H 155.200 C 155.090 141.600 155.000 141.690 155.000 141.800 V 146.600 C 155.000 146.800 155.200 146.600 155.000 146.600 H 145.400 C 145.200 146.600 145.400 146.800 145.400 146.600 V 141.800 C 145.400 141.690 145.310 141.600 145.200 141.600 H 135.200 C 135.090 141.600 135.000 141.690 135.000 141.800 V 146.600 C 135.000 146.800 135.200 146.600 135.000 146.600 H 125.400 C 125.200 146.600 125.400 146.800 125.400 146.600 V 141.800 C 125.400 141.690 125.310 141.600 125.200 141.600 H 115.200 C 115.090 141.600 115.000 141.690 115.000 141.800 V 146.600 C 115.000 146.800 115.200 146.600 115.000 146.600 H 105.400 C 105.200 146.600 105.400 146.800 105.400 146.600 V 141.800 C 105.400 141.690 105.310 141.600 105.200 141.600 H 95.200 C 95.090 141.600 95.000 141.690 95.000 141.800 V 146.600 C 95.000 146.800 95.200 146.600 95.000 146.600 H 85.400 C 85.200 146.600 85.400 146.800 85.400 146.600 V 141.800 C 85.400 141.690 85.310 141.600 85.200 141.600 H 75.200 C 75.090 141.600 75.000 141.690 75.000 141.800 V 146.600 C 75.000 146.800 75.200 146.600 75.000 146.600 H 65.400 C 65.200 146.600 65.400 146.800 65.400 146.600 V 141.800 C 65.400 141.690 65.310 141.600 65.200 141.600 H 55.200 C 55.090 141.600 55.000 141.690 55.000 141.800 V 146.600 C 55.000 146.800 55.200 146.600 55.000 146.600 H 45.400 C 45.200 146.600 45.400 146.800 45.400 146.600 V 141.800 C 45.400 141.690 45.310 141.600 45.200 141.600 H 35.200 C 35.090 141.600 35.000 141.690 35.000 141.800 V 146.600 C 35.000 146.800 35.200 146.600 35.000 146.600 H 25.400 C 25.200 146.600 25.400 146.800 25.400 146.600 V 141.800 C 25.400 141.690 25.310 141.600 25.200 141.600 H 15.200 C 15.090 141.600 15.000 141.690 15.000 141.800 V 149.100 C 15.000 149.300 15.200 149.100 15.000 149.100 H 10.200 C 10.090 149.100 10.000 149.190 10.000 149.300 V 159.300 C 10.000 159.410 10.090 159.500 10.200 159.500 H 15.000 C 15.200 159.500 15.000 159.300 15.000 159.500 V 166.800 C 15.000 166.910 15.090 167.000 15.200 167.000 Z" stroke="rgb(0,0,0)" stroke-width="0.40" />
  <text dominant-baseline="hanging" font-size="4px" style="font-family: sans-serif ; font-weight: normal; font-style: normal; fill: rgb(255,0,0)" text-anchor="middle" transform="matrix( 1.000 0.000 0.000 1.000 150.200 152.500 )">lid right</text>
</g>
<g id="p-10" style="fill:none;stroke-linecap:round;stroke-linejoin:round;">
  <path d="M 15.200 139.100 H 25.200 C 26.113 139.100 27.010 138.860 27.800 138.403 C 28.590 137.947 29.247 137.290 29.703 136.500 C 30.160 135.710 30.400 134.813 30.400 133.900 V 108.900 C 30.400 108.790 30.310 108.700 30.200 108.700 H 10.200 C 10.090 108.700 10.000 108.790 10.000 108.900 V 133.900 C 10.000 134.813 10.240 135.710 10.697 136.500 C 11.153 137.290 11.810 137.947 12.600 138.403 C 13.390 138.860 14.287 139.100 15.200 139.100 Z" stroke="rgb(0,0,0)" stroke-width="0.40" />
  <text dominant-baseline="hanging" font-size="4px" style="font-family: sans-serif ; font-weight: normal; font-style: normal; fill: rgb(255,0,0)" text-anchor="middle" transform="matrix( 1.000 0.000 0.000 1.000 20.200 124.900 )">brim</text>
  <text dominant-baseline="hanging" font-size="4px" style="font-family: sans-serif ; font-weight: normal; font-style: normal; fill: rgb(255,0,0)" text-anchor="middle" transform="matrix( 1.000 0.000 0.000 1.000 20.200 119.300 )">lid</text>
</g>
<g id="p-11" style="fill:none;stroke-linecap:round;stroke-linejoin:round;">
  <path d="M 15.200 106.200 H 25.200 C 26.113 106.200 27.010 105.960 27.800 105.503 C 28.590 105.047 29.247 104.390 29.703 103.600 C 30.160 102.810 30.400 101.913 30.400 101.000 V 76.000 C 30.400 75.890 30.310 75.800 30.200 75.800 H 10.200 C 10.090 75.800 10.000 75.890 10.000 76.000 V 101.000 C 10.000 101.913 10.240 102.810 10.697 103.600 C 11.153 104.390 11.810 105.047 12.600 105.503 C 13.390 105.960 14.287 106.200 15.200 106.200 Z" stroke="rgb(0,0,0)" stroke-width="0.40" />
  <text dominant-baseline="hanging" font-size="4px" style="font-family: sans-serif ; font-weight: normal; font-style: normal; fill: rgb(255,0,0)" text-anchor="middle" transform="matrix( 1.000 0.000 0.000 1.000 20.200 92.000 )">brim</text>
  <text dominant-baseline="hanging" font-size="4px" style="font-family: sans-serif ; font-weight: normal; font-style: normal; fill: rgb(255,0,0)" text-anchor="middle" transform="matrix( 1.000 0.000 0.000 1.000 20.200 86.400 )">lid</text>
</g>
<g id="p-12" style="fill:none;stroke-linecap:round;stroke-linejoin:round;">
  <path d="M 15.200 73.300 H 25.200 C 26.113 73.300 27.010 73.060 27.800 72.603 C 28.590 72.147 29.247 71.490 29.703 70.700 C 30.160 69.910 30.400 69.013 30.400 68.100 V 43.100 C 30.400 42.990 30.310 42.900 30.200 42.900 H 10.200 C 10.090 42.900 10.000 42.990 10.000 43.100 V 68.100 C 10.000 69.013 10.240 69.910 10.697 70.700 C 11.153 71.490 11.810 72.147 12.600 72.603 C 13.390 73.060 14.287 73.300 15.200 73.300 Z" stroke="rgb(0,0,0)" stroke-width="0.40" />
  <text dominant-baseline="hanging" font-size="4px" style="font-family: sans-serif ; font-weight: normal; font-style: normal; fill: rgb(255,0,0)" text-anchor="middle" transform="matrix( 1.000 0.000 0.000 1.000 20.200 59.100 )">brim</text>
  <text dominant-baseline="hanging" font-size="4px" style="font-family: sans-serif ; font-weight: normal; font-style: normal; fill: rgb(255,0,0)" text-anchor="middle" transform="matrix( 1.000 0.000 0.000 1.000 20.200 53.500 )">lid</text>
</g>
<g id="p-13" style="fill:none;stroke-linecap:round;stroke-linejoin:round;">
  <path d="M 15.200 40.400 H 25.200 C 26.113 40.400 27.010 40.160 27.800 39.703 C 28.590 39.247 29.247 38.590 29.703 37.800 C 30.160 37.010 30.400 36.113 30.400 35.200 V 10.200 C 30.400 10.090 30.310 10.000 30.200 10.000 H 10.200 C 10.090 10.000 10.000 10.090 10.000 10.200 V 35.200 C 10.000 36.113 10.240 37.010 10.697 37.800 C 11.153 38.590 11.810 39.247 12.600 39.703 C 13.390 40.160 14.287 40.400 15.200 40.400 Z" stroke="rgb(0,0,0)" stroke-width="0.40" />
  <text dominant-baseline="hanging" font-size="4px" style="font-family: sans-serif ; font-weight: normal; font-style: normal; fill: rgb(255,0,0)" text-anchor="middle" transform="matrix( 1.000 0.000 0.000 1.000 20.200 26.200 )">brim</text>
  <text dominant-baseline="hanging" font-size="4px" style="font-family: sans-serif ; font-weight: normal; font-style: normal; fill: rgb(255,0,0)" text-anchor="middle" transform="matrix( 1.000 0.000 0.000 1.000 20.200 20.600 )">lid</text>
</g>
<g id="p-14" style="fill:none;stroke-linecap:round;stroke-linejoin:round;">
  <path d="M 298.100 820.200 H 316.400 C 316.600 820.200 316.400 820.000 316.400 820.200 V 825.000 C 316.400 825.110 316.490 825.200 316.600 825.200 H 326.600 C 326.710 825.200 326.800 825.110 326.800 825.000 V 820.200 C 326.800 820.000 326.600 820.200 326.800 820.200 H 336.400 C 336.600 820.200 336.400 820.000 336.400 820.200 V 825.000 C 336.400 825.110 336.490 825.200 336.600 825.200 H 346.600 C 346.710 825.200 346.800 825.110 346.800 825.000 V 820.200 C 346.800 820.000 346.600 820.200 346.800 820.200 H 365.100 C 365.210 820.200 365.300 820.110 365.300 820.000 V 810.200 C 365.300 810.000 365.100 810.200 365.300 810.200 H 370.100 C 370.210 810.200 370.300 810.110 370.300 810.000 V 800.000 C 370.300 799.890 370.210 799.800 370.100 799.800 H 365.300 C 365.100 799.800 365.300 800.000 365.300 799.800 V 790.200 C 365.300 790.000 365.100 790.200 365.300 790.200 H 370.100 C 370.210 790.200 370.300 790.110 370.300 790.000 V 780.000 C 370.300 779.890 370.210 779.800 370.100 779.800 H 365.300 C 365.100 779.800 365.300 780.000 365.300 779.800 V 770.200 C 365.300 770.000 365.100 770.200 365.300 770.200 H 370.100 C 370.210 770.200 370.300 770.110 370.300 770.000 V 760.000 C 370.300 759.890 370.210 759.800 370.100 759.800 H 365.300 C 365.100 759.800 365.300 760.000 365.300 759.800 V 750.200 C 365.300 750.000 365.100 750.200 365.300 750.200 H 370.100 C 370.210 750.200 370.300 750.110 370.300 750.000 V 740.000 C 370.300 739.890 370.210 739.800 370.100 739.800 H 365.300 C 365.100 739.800 365.300 740.000 365.300 739.800 V 730.200 C 365.300 730.000 365.100 730.200 365.300 730.200 H 370.100 C 370.210 730.200 370.300 730.110 370.300 730.000 V 720.000 C 370.300 719.890 370.210 719.800 370.100 719.800 H 365.300 C 365.100 719.800 365.300 720.000 365.300 719.800 V 710.200 C 365.300 710.000 365.100 710.200 365.300 710.200 H 370.100 C 370.210 710.200 370.300 710.110 370.300 710.000 V 700.000 C 370.300 699.890 370.210 699.800 370.100 699.800 H 365.300 C 365.100 699.800 365.300 700.000 365.300 699.800 V 690.200 C 365.300 690.000 365.100 690.200 365.300 690.200 H 370.100 C 370.210 690.200 370.300 690.110 370.300 690.000 V 680.000 C 370.300 679.890 370.210 679.800 370.100 679.800 H 365.300 C 365.100 679.800 365.300 680.000 365.300 679.800 V 670.200 C 365.300 670.000 365.100 670.200 365.300 670.200 H 370.100 C 370.210 670.200 370.300 670.110 370.300 670.000 V 660.000 C 370.300 659.890 370.210 659.800 370.100 659.800 H 365.300 C 365.100 659.800 365.300 660.000 365.300 659.800 V 650.200 C 365.300 650.000 365.100 650.200 365.300 650.200 H 370.100 C 370.210 650.200 370.300 650.110 370.300 650.000 V 640.000 C 370.300 639.890 370.210 639.800 370.100 639.800 H 365.300 C 365.100 639.800 365.300 640.000 365.300 639.800 V 630.200 C 365.300 630.000 365.100 630.200 365.300 630.200 H 370.100 C 370.210 630.200 370.300 630.110 370.300 630.000 V 620.000 C 370.300 619.890 370.210 619.800 370.100 619.800 H 365.300 C 365.100 619.800 365.300 620.000 365.300 619.800 V 610.200 C 365.300 610.000 365.100 610.200 365.300 610.200 H 370.100 C 370.210 610.200 370.300 610.110 370.300 610.000 V 600.000 C 370.300 599.890 370.210 599.800 370.100 599.800 H 365.300 C 365.100 599.800 365.300 600.000 365.300 599.800 V 590.200 C 365.300 590.000 365.100 590.200 365.300 590.200 H 370.100 C 370.210 590.200 370.300 590.110 370.300 590.000 V 580.000 C 370.300 579.890 370.210 579.800 370.100 579.800 H 365.300 C 365.100 579.800 365.300 580.000 365.300 579.800 V 570.200 C 365.300 570.000 365.100 570.200 365.300 570.200 H 370.100 C 370.210 570.200 370.300 570.110 370.300 570.000 V 560.000 C 370.300 559.890 370.210 559.800 370.100 559.800 H 365.300 C 365.100 559.800 365.300 560.000 365.300 559.800 V 550.000 C 365.300 549.890 365.210 549.800 365.100 549.800 H 346.800 C 346.600 549.800 346.800 550.000 346.800 549.800 V 545.000 C 346.800 544.890 346.710 544.800 346.600 544.800 H 336.600 C 336.490 544.800 336.400 544.890 336.400 545.000 V 549.800 C 336.400 550.000 336.600 549.800 336.400 549.800 H 326.800 C 326.600 549.800 326.800 550.000 326.800 549.800 V 545.000 C 326.800 544.890 326.710 544.800 326.600 544.800 H 316.600 C 316.490 544.800 316.400 544.890 316.400 545.000 V 549.800 C 316.400 550.000 316.600 549.800 316.400 549.800 H 298.100 C 297.990 549.800 297.900 549.890 297.900 550.000 V 559.800 C 297.900 560.000 298.100 559.800 297.900 559.800 H 293.100 C 292.990 559.800 292.900 559.890 292.900 560.000 V 570.000 C 292.900 570.110 292.990 570.200 293.100 570.200 H 297.900 C 298.100 570.200 297.900 570.000 297.900 570.200 V 579.800 C 297.900 580.000 298.100 579.800 297.900 579.800 H 293.100 C 292.990 579.800 292.900 579.890 292.900 580.000 V 590.000 C 292.900 590.110 292.990 590.200 293.100 590.200 H 297.900 C 298.100 590.200 297.900 590.000 297.900 590.200 V 599.800 C 297.900 600.000 298.100 599.800 297.900 599.800 H 293.100 C 292.990 599.800 292.900 599.890 292.900 600.000 V 610.000 C 292.900 610.110 292.990 610.200 293.100 610.200 H 297.900 C 298.100 610.200 297.900 610.000 297.900 610.200 V 619.800 C 297.900 620.000 298.100 619.800 297.900 619.800 H 293.100 C 292.990 619.800 292.900 619.890 292.900 620.000 V 630.000 C 292.900 630.110 292.990 630.200 293.100 630.200 H 297.900 C 298.100 630.200 297.900 630.000 297.900 630.200 V 639.800 C 297.900 640.000 298.100 639.800 297.900 639.800 H 293.100 C 292.990 639.800 292.900 639.890 292.900 640.000 V 650.000 C 292.900 650.110 292.990 650.200 293.100 650.200 H 297.900 C 298.100 650.200 297.900 650.000 297.900 650.200 V 659.800 C 297.900 660.000 298.100 659.800 297.900 659.800 H 293.100 C 292.990 659.800 292.900 659.890 292.900 660.000 V 670.000 C 292.900 670.110 292.990 670.200 293.100 670.200 H 297.900 C 298.100 670.200 297.900 670.000 297.900 670.200 V 679.800 C 297.900 680.000 298.100 679.800 297.900 679.800 H 293.100 C 292.990 679.800 292.900 679.890 292.900 680.000 V 690.000 C 292.900 690.110 292.990 690.200 293.100 690.200 H 297.900 C 298.100 690.200 297.900 690.000 297.900 690.200 V 699.800 C 297.900 700.000 298.100 699.800 297.900 699.800 H 293.100 C 292.990 699.800 292.900 699.890 292.900 700.000 V 710.000 C 292.900 710.110 292.990 710.200 293.100 710.200 H 297.900 C 298.100 710.200 297.900 710.000 297.900 710.200 V 719.800 C 297.900 720.000 298.100 719.800 297.900 719.800 H 293.100 C 292.990 719.800 292.900 719.890 292.900 720.000 V 730.000 C 292.900 730.110 292.990 730.200 293.100 730.200 H 297.900 C 298.100 730.200 297.900 730.000 297.900 730.200 V 739.800 C 297.900 740.000 298.100 739.800 297.900 739.800 H 293.100 C 292.990 739.800 292.900 739.890 292.900 740.000 V 750.000 C 292.900 750.110 292.990 750.200 293.100 750.200 H 297.900 C 298.100 750.200 297.900 750.000 297.900 750.200 V 759.800 C 297.900 760.000 298.100 759.800 297.900 759.800 H 293.100 C 292.990 759.800 292.900 759.890 292.900 760.000 V 770.000 C 292.900 770.110 292.990 770.200 293.100 770.200 H 297.900 C 298.100 770.200 297.900 770.000 297.900 770.200 V 779.800 C 297.900 780.000 298.100 779.800 297.900 779.800 H 293.100 C 292.990 779.800 292.900 779.890 292.900 780.000 V 790.000 C 292.900 790.110 292.990 790.200 293.100 790.200 H 297.900 C 298.100 790.200 297.900 790.000 297.900 790.200 V 799.800 C 297.900 800.000 298.100 799.800 297.900 799.800 H 293.100 C 292.990 799.800 292.900 799.890 292.900 800.000 V 810.000 C 292.900 810.110 292.990 810.200 293.100 810.200 H 297.900 C 298.100 810.200 297.900 810.000 297.900 810.200 V 820.000 C 297.900 820.110 297.990 820.200 298.100 820.200 Z" stroke="rgb(0,0,0)" stroke-width="0.40" />
  <text dominant-baseline="hanging" font-size="4px" style="font-family: sans-serif ; font-weight: normal; font-style: normal; fill: rgb(255,0,0)" text-anchor="middle" transform="matrix( 1.000 0.000 0.000 1.000 331.600 683.200 )">Bottom</text>
</g>
<g id="p-15" style="fill:none;stroke-linecap:round;stroke-linejoin:round;">
  <path d="M 293.100 542.300 H 298.050 H 314.383 C 314.594 542.300 314.801 542.245 314.983 542.139 C 315.166 542.034 315.317 541.882 315.423 541.700 C 315.528 541.518 315.583 541.311 315.583 541.100 V 525.100 C 315.583 523.731 315.944 522.386 316.628 521.200 C 317.313 520.014 318.298 519.030 319.483 518.345 C 320.669 517.660 322.014 517.300 323.383 517.300 H 339.717 C 341.086 517.300 342.431 517.660 343.617 518.345 C 344.802 519.030 345.787 520.014 346.472 521.200 C 347.156 522.386 347.517 523.731 347.517 525.100 V 541.100 C 347.517 541.311 347.572 541.518 347.677 541.700 C 347.783 541.882 347.934 542.034 348.117 542.139 C 348.299 542.245 348.506 542.300 348.717 542.300 H 365.050 H 370.000 C 370.110 542.300 370.200 542.210 370.200 542.100 V 502.100 C 370.200 501.990 370.110 501.900 370.000 501.900 H 365.200 C 365.000 501.900 365.200 502.100 365.200 501.900 V 469.931 C 365.200 469.821 365.110 469.731 365.000 469.731 H 298.100 C 297.990 469.731 297.900 469.821 297.900 469.931 V 501.900 C 297.900 502.100 298.100 501.900 297.900 501.900 H 293.100 C 292.990 501.900 292.900 501.990 292.900 502.100 V 542.100 C 292.900 542.210 292.990 542.300 293.100 542.300 Z" stroke="rgb(0,0,0)" stroke-width="0.40" />
  <text dominant-baseline="hanging" font-size="4px" style="font-family: sans-serif ; font-weight: normal; font-style: normal; fill: rgb(255,0,0)" text-anchor="middle" transform="matrix( 1.000 0.000 0.000 1.000 331.600 504.216 )">Divider</text>
</g>
<g id="p-16" style="fill:none;stroke-linecap:round;stroke-linejoin:round;">
  <path d="M 293.100 467.231 H 298.050 H 314.383 C 314.594 467.231 314.801 467.176 314.983 467.070 C 315.166 466.965 315.317 466.814 315.423 466.631 C 315.528 466.449 315.583 466.242 315.583 466.031 V 450.031 C 315.583 448.662 315.944 447.317 316.628 446.131 C 317.313 444.945 318.298 443.961 319.483 443.276 C 320.669 442.592 322.014 442.231 323.383 442.231 H 339.717 C 341.086 442.231 342.431 442.592 343.617 443.276 C 344.802 443.961 345.787 444.945 346.472 446.131 C 347.156 447.317 347.517 448.662 347.517 450.031 V 466.031 C 347.517 466.242 347.572 466.449 347.677 466.631 C 347.783 466.814 347.934 466.965 348.117 467.070 C 348.299 467.176 348.506 467.231 348.717 467.231 H 365.050 H 370.000 C 370.110 467.231 370.200 467.142 370.200 467.031 V 427.031 C 370.200 426.921 370.110 426.831 370.000 426.831 H 365.200 C 365.000 426.831 365.200 427.031 365.200 426.831 V 394.862 C 365.200 394.752 365.110 394.662 365.000 394.662 H 298.100 C 297.990 394.662 297.900 394.752 297.900 394.862 V 426.831 C 297.900 427.031 298.100 426.831 297.900 426.831 H 293.100 C 292.990 426.831 292.900 426.921 292.900 427.031 V 467.031 C 292.900 467.142 292.990 467.231 293.100 467.231 Z" stroke="rgb(0,0,0)" stroke-width="0.40" />
  <text dominant-baseline="hanging" font-size="4px" style="font-family: sans-serif ; font-weight: normal; font-style: normal; fill: rgb(255,0,0)" text-anchor="middle" transform="matrix( 1.000 0.000 0.000 1.000 331.600 429.147 )">Divider</text>
</g>
<g id="p-17" style="fill:none;stroke-linecap:round;stroke-linejoin:round;">
  <path d="M 293.100 392.162 H 295.550 H 311.883 C 312.094 392.162 312.301 392.107 312.483 392.002 C 312.666 391.896 312.817 391.745 312.923 391.562 C 313.028 391.380 313.083 391.173 313.083 390.962 V 374.962 C 313.083 373.593 313.444 372.248 314.128 371.062 C 314.813 369.877 315.798 368.892 316.983 368.207 C 318.169 367.523 319.514 367.162 320.883 367.162 H 337.217 C 338.586 367.162 339.931 367.523 341.117 368.207 C 342.302 368.892 343.287 369.877 343.972 371.062 C 344.656 372.248 345.017 373.593 345.017 374.962 V 390.962 C 345.017 391.173 345.072 391.380 345.177 391.562 C 345.283 391.745 345.434 391.896 345.617 392.002 C 345.799 392.107 346.006 392.162 346.217 392.162 H 362.550 H 365.000 C 365.110 392.162 365.200 392.073 365.200 391.962 V 351.962 C 365.200 351.852 365.110 351.762 365.000 351.762 H 362.700 C 362.500 351.762 362.700 351.962 362.700 351.762 V 319.794 C 362.700 319.683 362.610 319.594 362.500 319.594 H 295.600 C 295.490 319.594 295.400 319.683 295.400 319.794 V 351.762 C 295.400 351.962 295.600 351.762 295.400 351.762 H 293.100 C 292.990 351.762 292.900 351.852 292.900 351.962 V 391.962 C 292.900 392.073 292.990 392.162 293.100 392.162 Z" stroke="rgb(0,0,0)" stroke-width="0.40" />
  <text dominant-baseline="hanging" font-size="4px" style="font-family: sans-serif ; font-weight: normal; font-style: normal; fill: rgb(255,0,0)" text-anchor="middle" transform="matrix( 1.000 0.000 0.000 1.000 329.100 354.078 )">Divider</text>
</g>
<g id="p-18" style="fill:none;stroke-linecap:round;stroke-linejoin:round;">
  <path d="M 298.050 317.094 H 314.383 C 314.594 317.094 314.801 317.038 314.983 316.933 C 315.166 316.828 315.317 316.676 315.423 316.494 C 315.528 316.311 315.583 316.104 315.583 315.894 V 299.894 C 315.583 298.524 315.944 297.179 316.628 295.994 C 317.313 294.808 318.298 293.823 319.483 293.139 C 320.669 292.454 322.014 292.094 323.383 292.094 H 339.717 C 341.086 292.094 342.431 292.454 343.617 293.139 C 344.802 293.823 345.787 294.808 346.472 295.994 C 347.156 297.179 347.517 298.524 347.517 299.894 V 315.894 C 347.517 316.104 347.572 316.311 347.677 316.494 C 347.783 316.676 347.934 316.828 348.117 316.933 C 348.299 317.038 348.506 317.094 348.717 317.094 H 365.050 H 370.000 C 370.110 317.094 370.200 317.004 370.200 316.894 V 296.944 C 370.200 296.833 370.110 296.744 370.000 296.744 H 365.200 C 365.000 296.744 365.200 296.944 365.200 296.744 V 244.725 C 365.200 244.614 365.110 244.525 365.000 244.525 H 298.100 C 297.990 244.525 297.900 244.614 297.900 244.725 V 276.694 C 297.900 276.894 298.100 276.694 297.900 276.694 H 293.100 C 292.990 276.694 292.900 276.783 292.900 276.894 V 296.894 C 292.900 297.004 292.990 297.094 293.100 297.094 H 297.850 C 298.050 297.094 297.850 296.894 297.850 297.094 V 316.894 C 297.850 317.004 297.940 317.094 298.050 317.094 Z" stroke="rgb(0,0,0)" stroke-width="0.40" />
  <text dominant-baseline="hanging" font-size="4px" style="font-family: sans-serif ; font-weight: normal; font-style: normal; fill: rgb(255,0,0)" text-anchor="middle" transform="matrix( 1.000 0.000 0.000 1.000 331.600 279.009 )">Divider</text>
</g>
</svg>