<?xml version="1.0" standalone="no"?>
<!DOCTYPE svg PUBLIC "-//W3C//DTD SVG 20010904//EN"
 "http://www.w3.org/TR/2001/REC-SVG-20010904/DTD/svg10.dtd">
<svg version="1.0" xmlns="http://www.w3.org/2000/svg"
 width="878.000000pt" height="1280.000000pt" viewBox="0 0 878.000000 1280.000000"
 preserveAspectRatio="xMidYMid meet">
<metadata>
Created by potrace 1.15, written by Peter Selinger 2001-2017
</metadata>
<g transform="translate(0.000000,1280.000000) scale(0.100000,-0.100000)"
fill="#000000" stroke="none">
<path d="M4040 12789 c-748 -34 -1378 -86 -1439 -118 -33 -18 -142 -41 -561
-120 -599 -113 -700 -143 -738 -218 -25 -48 -62 -85 -135 -135 -81 -55 -126
-103 -156 -167 -25 -54 -26 -62 -24 -209 3 -152 3 -152 -27 -205 -86 -153
-274 -722 -376 -1137 -55 -222 -61 -238 -120 -303 -25 -28 -52 -64 -61 -80
-68 -133 -75 -309 -17 -450 l27 -66 -36 -143 c-47 -186 -74 -330 -147 -796
-70 -441 -85 -607 -100 -1042 -16 -504 -10 -465 -98 -620 -36 -63 -38 -83 -16
-229 20 -138 48 -251 81 -326 24 -54 28 -82 39 -265 40 -623 178 -1739 285
-2289 27 -140 49 -268 49 -284 0 -17 -11 -42 -26 -60 -26 -30 -26 -35 -21
-122 9 -137 59 -275 149 -408 61 -90 94 -169 137 -332 77 -291 242 -815 335
-1070 23 -62 26 -86 26 -201 0 -148 12 -202 62 -281 52 -82 164 -206 260 -291
222 -192 454 -308 1006 -501 435 -152 567 -184 937 -226 127 -14 284 -34 350
-45 217 -34 440 -45 885 -45 544 1 799 20 1151 85 192 36 411 86 594 136 155
43 587 195 665 234 133 68 324 232 401 345 40 60 88 170 159 365 29 80 73 190
97 245 74 163 261 757 365 1155 45 173 58 204 120 280 68 83 89 119 119 201
45 123 56 225 36 340 -20 122 -12 189 53 454 74 302 115 542 229 1340 60 416
78 605 101 1040 10 206 17 240 54 294 88 127 87 333 -4 506 l-47 90 -6 260
c-10 430 -64 1052 -118 1364 -11 64 -38 220 -59 348 -46 267 -62 341 -101 438
-15 39 -33 107 -39 151 -10 71 -10 90 5 140 36 123 -12 352 -93 449 -47 56
-123 246 -137 345 -24 161 -233 835 -321 1034 -35 77 -36 86 -35 183 1 62 -4
118 -12 140 -33 96 -221 314 -305 354 -26 12 -74 41 -107 65 -123 86 -194 112
-475 178 -484 112 -734 146 -1440 196 -571 40 -966 48 -1380 29z m1130 -133
c446 -36 1243 -124 1379 -152 150 -31 417 -95 481 -115 152 -49 308 -140 344
-201 19 -31 19 -31 -4 -50 -34 -28 -98 -23 -164 12 -136 71 -404 148 -716 205
-235 43 -410 63 -652 75 -106 5 -229 16 -273 25 -129 25 -842 39 -1340 26
-477 -13 -568 -21 -1250 -111 -730 -97 -1157 -178 -1432 -269 -131 -44 -173
-50 -193 -26 -21 25 -2 65 63 130 74 74 111 90 357 151 644 162 1401 274 2110
314 241 13 1062 4 1290 -14z m590 -327 c611 -31 1265 -166 1450 -300 78 -56
51 -94 -113 -158 -284 -110 -644 -207 -965 -261 -97 -16 -217 -36 -267 -44
-364 -62 -797 -88 -1655 -101 -438 -7 -836 5 -997 29 -54 9 -253 38 -443 66
-357 53 -592 103 -905 195 -188 55 -249 77 -308 115 -69 44 -63 82 19 123 102
52 440 122 922 192 592 85 793 109 1152 136 351 26 1654 31 2110 8z m1825
-323 c9 -14 23 -60 32 -103 23 -119 24 -117 -169 -212 -373 -182 -647 -282
-1073 -391 -196 -50 -353 -77 -525 -89 -74 -6 -191 -19 -260 -31 -327 -54
-669 -73 -1310 -74 -461 -1 -533 2 -930 45 -916 97 -1386 199 -1775 383 -372
177 -504 302 -455 430 16 42 49 33 142 -37 153 -117 234 -162 388 -220 195
-73 565 -173 795 -216 271 -51 838 -115 1150 -131 228 -12 1026 -1 1560 20
483 20 1066 95 1285 165 58 18 191 56 295 85 359 98 543 182 700 322 96 86
123 95 150 54z m93 -348 c5 -7 20 -49 32 -93 12 -44 42 -133 66 -198 89 -235
191 -585 223 -758 11 -57 32 -151 47 -208 25 -97 26 -110 15 -169 -18 -99 -77
-201 -160 -278 -67 -62 -88 -42 -107 107 -29 220 -152 696 -304 1174 -68 212
-77 279 -45 316 33 37 168 119 196 119 15 0 31 -6 37 -12z m-6512 -19 c32 -35
22 -105 -40 -295 -30 -94 -65 -220 -76 -280 -12 -60 -32 -161 -45 -224 -32
-155 -203 -868 -210 -880 -17 -27 -64 3 -127 79 -50 59 -36 139 111 666 57
205 251 802 288 885 33 75 62 90 99 49z m366 -200 c90 -38 173 -77 186 -85 29
-19 29 -38 -9 -302 -34 -246 -50 -331 -85 -451 -28 -97 -112 -536 -144 -751
-32 -214 -23 -194 -78 -187 -74 9 -372 115 -440 157 -48 29 -54 54 -36 162 25
158 83 416 129 578 55 191 62 228 80 411 15 151 20 170 99 359 20 47 36 95 36
107 0 12 4 33 10 47 17 45 67 36 252 -45z m5775 -76 c97 -209 293 -884 393
-1348 l28 -130 -46 -40 c-75 -66 -130 -102 -169 -110 -21 -4 -79 -29 -130 -56
-51 -26 -99 -46 -107 -43 -23 9 -27 30 -36 179 -6 96 -15 158 -28 196 -11 31
-43 160 -72 285 -65 291 -113 478 -188 729 -33 110 -63 215 -67 233 -8 40 12
75 55 97 64 33 236 85 283 85 l48 0 36 -77z m-5284 -102 c36 -21 93 -38 181
-56 71 -14 138 -31 148 -36 23 -12 23 -33 -1 -161 -45 -241 -100 -677 -141
-1113 -34 -371 -45 -415 -103 -415 -37 0 -429 83 -499 106 -25 8 -49 22 -52
30 -12 31 58 516 100 694 85 366 106 451 143 595 23 88 51 202 62 254 11 52
27 103 36 113 23 26 66 22 126 -11z m4757 -35 c21 -56 152 -503 189 -646 71
-276 191 -866 191 -941 0 -38 -106 -74 -398 -134 -95 -19 -177 -35 -182 -35
-18 0 -48 42 -59 83 -6 23 -15 94 -20 157 -6 63 -17 141 -25 172 -15 58 -12
83 14 140 12 25 10 32 -14 67 -35 50 -50 101 -71 242 -9 63 -30 170 -47 239
-35 149 -74 375 -86 496 -10 107 0 124 74 124 25 0 74 7 108 16 96 26 196 42
259 43 52 1 58 -1 67 -23z m-4172 -95 c31 -11 134 -29 227 -41 175 -22 220
-36 211 -68 -7 -22 -21 -285 -46 -827 -31 -662 -44 -796 -85 -832 -14 -12 -31
-21 -38 -18 -62 19 -181 40 -344 60 -118 15 -204 30 -218 39 -31 20 -33 43
-19 271 25 401 36 501 80 745 13 74 35 218 49 320 30 221 50 311 77 345 23 30
32 31 106 6z m3500 -33 c50 -127 129 -461 182 -773 17 -98 44 -240 61 -315 35
-163 66 -355 75 -472 6 -79 5 -87 -13 -96 -16 -9 -242 -39 -515 -69 -47 -5
-48 -5 -63 30 -8 19 -28 142 -45 273 -16 132 -45 340 -64 464 -19 124 -42 295
-51 380 -20 193 -40 322 -65 422 -24 93 -25 114 -4 122 9 3 93 18 187 32 93
14 184 31 201 39 17 7 45 14 62 14 29 1 33 -3 52 -51z m-2388 -87 l245 -16 -1
-35 c-1 -19 -6 -127 -13 -240 -6 -113 -16 -387 -21 -610 -15 -563 -26 -810
-37 -821 -15 -15 -328 -12 -518 6 -205 18 -291 33 -306 51 -21 26 53 1173 103
1593 l12 103 145 -7 c81 -4 256 -15 391 -24z m1740 5 c0 -2 14 -48 31 -102 39
-127 84 -400 149 -894 28 -217 60 -442 70 -500 30 -174 19 -181 -361 -210
-145 -11 -283 -23 -306 -26 -33 -5 -43 -3 -43 7 0 8 -5 43 -10 79 -9 65 -27
260 -55 620 -9 107 -29 330 -45 495 -43 445 -44 479 -28 493 14 11 245 29 453
35 55 2 110 4 123 5 12 1 22 0 22 -2z m-941 -26 c101 -5 187 -12 192 -17 15
-15 77 -557 119 -1053 23 -270 46 -499 59 -578 l8 -52 -126 0 c-70 0 -254 -5
-410 -11 -256 -9 -285 -9 -300 6 -14 14 -16 72 -15 538 0 515 7 689 40 1015
l17 162 116 0 c64 -1 199 -5 300 -10z m3727 -956 c9 -72 -9 -202 -35 -253 -31
-61 -170 -165 -316 -238 -73 -37 -451 -182 -595 -230 -260 -85 -683 -178 -985
-217 -104 -14 -273 -36 -375 -50 -472 -64 -705 -80 -1390 -97 -373 -10 -519
-10 -635 -1 -82 7 -302 21 -488 32 -395 22 -434 26 -547 50 -47 10 -175 30
-285 45 -533 69 -488 60 -1089 221 -204 54 -538 184 -773 300 -207 103 -211
105 -228 147 -21 51 -31 201 -16 240 21 55 55 37 233 -123 52 -47 122 -100
155 -117 61 -33 245 -106 408 -161 297 -102 888 -253 1060 -271 61 -6 177 -22
259 -36 441 -74 731 -101 1244 -117 771 -22 1582 14 2152 98 197 29 838 166
1095 234 250 66 532 178 763 304 144 78 197 124 247 216 29 52 49 77 70 86 45
19 62 4 71 -62z m-2 -486 c59 -93 153 -594 215 -1153 36 -319 49 -495 76
-1055 4 -63 10 -161 15 -218 8 -82 7 -110 -4 -137 -18 -43 -153 -185 -230
-242 -103 -76 -96 -99 -96 325 0 595 -15 769 -150 1757 -62 453 -73 559 -65
611 5 39 9 43 53 59 26 10 65 31 86 46 48 35 81 37 100 7z m-7588 -33 c61 -36
68 -48 66 -123 -2 -73 -3 -76 -102 -677 -127 -766 -182 -1252 -182 -1610 0
-122 4 -189 16 -238 9 -38 16 -79 16 -93 0 -54 -85 -15 -197 92 l-61 59 8 150
c5 83 14 245 20 360 22 409 60 779 141 1345 53 371 73 483 115 640 36 137 62
152 160 95z m310 -160 c77 -55 113 -71 197 -90 48 -11 89 -26 105 -40 26 -22
27 -29 30 -130 4 -119 -13 -325 -63 -770 -39 -344 -59 -604 -75 -955 -25 -550
-39 -787 -52 -824 -23 -68 -27 -68 -235 3 -316 107 -316 107 -321 381 -4 190
5 261 44 346 13 29 24 57 24 62 0 5 -19 33 -41 61 -39 49 -41 55 -36 99 6 51
49 162 77 202 45 63 69 246 39 301 -7 13 -12 52 -12 89 1 76 67 547 123 875
22 127 43 266 46 310 9 104 15 115 63 115 28 0 52 -9 87 -35z m6902 -8 c22
-26 43 -139 92 -492 72 -516 77 -563 105 -905 26 -326 45 -687 52 -995 l6
-301 -36 -30 c-35 -29 -228 -129 -406 -210 -98 -44 -106 -41 -121 52 -6 32
-15 326 -20 652 -10 620 -18 742 -50 830 -15 40 -20 78 -20 157 0 123 -52 498
-106 765 -31 153 -35 181 -25 223 21 95 55 120 252 193 197 72 257 86 277 61z
m-6229 -206 c67 -15 127 -34 132 -42 5 -8 11 -30 14 -49 3 -19 17 -97 31 -173
20 -103 25 -153 20 -197 -7 -61 9 -229 23 -243 21 -21 35 100 40 353 l6 265
50 0 49 0 9 -45 c8 -45 4 -218 -13 -520 -19 -324 -40 -923 -50 -1400 -15 -744
-19 -811 -53 -832 -21 -13 -53 -9 -69 10 -27 30 -29 96 -8 327 25 282 25 316
2 345 -12 15 -24 20 -31 15 -28 -17 -40 -77 -51 -256 -6 -101 -15 -222 -20
-269 -6 -47 -10 -88 -10 -92 0 -17 -130 -7 -225 17 -159 39 -218 60 -226 81
-15 37 -10 868 6 1079 24 321 85 896 110 1048 18 103 28 127 56 127 41 0 58
20 80 93 11 39 30 86 41 104 10 18 23 45 27 60 9 31 -2 73 -19 73 -17 0 -48
-60 -71 -137 -30 -102 -60 -121 -73 -49 -11 58 -9 233 4 270 13 39 43 66 75
66 11 0 76 -13 144 -29z m5561 -64 c34 -77 182 -1114 210 -1468 16 -202 23
-818 12 -1022 -8 -151 -13 -192 -27 -207 -37 -41 -441 -169 -545 -173 l-55 -2
-6 640 c-4 352 -12 701 -18 775 -54 630 -104 1087 -137 1243 -31 148 -17 174
101 188 44 5 143 22 220 38 77 16 159 30 183 30 41 1 44 -1 62 -42z m-4868
-91 c91 -31 215 -52 383 -66 72 -6 141 -13 154 -16 l24 -5 -7 -222 c-4 -122
-11 -314 -16 -427 -5 -113 -14 -578 -19 -1035 -11 -890 -14 -990 -36 -1041
-21 -51 -42 -57 -142 -39 -49 8 -169 24 -268 35 -164 19 -262 33 -307 46 -33
10 -41 62 -46 329 -7 426 44 1919 79 2273 19 197 46 220 201 168z m4156 -8 c5
-7 13 -44 17 -83 4 -38 33 -257 65 -485 88 -624 95 -712 110 -1480 11 -528 7
-726 -14 -756 -7 -9 -33 -20 -59 -25 -89 -16 -502 -78 -542 -81 l-40 -3 -7
480 c-9 620 -24 1077 -48 1500 -17 283 -41 875 -36 882 1 1 96 15 211 31 236
33 327 38 343 20z m-675 -110 c15 -106 52 -848 68 -1348 11 -366 8 -1407 -6
-1447 -4 -12 -14 -24 -22 -27 -30 -12 -798 -50 -813 -41 -3 2 -7 638 -9 1414
l-3 1410 24 5 c12 3 77 10 143 16 66 6 215 22 330 35 116 12 226 23 246 24 36
1 37 0 42 -41z m-2253 -19 c151 -12 279 -26 283 -30 13 -10 25 -1589 18 -2236
-5 -516 -7 -564 -23 -580 -20 -19 12 -22 -335 31 -89 13 -244 32 -346 42
l-184 17 -7 81 c-34 426 -3 1803 55 2431 10 116 28 245 36 258 8 14 227 7 503
-14z m1327 -74 c24 -69 35 -602 37 -1702 1 -842 -1 -1044 -12 -1055 -10 -10
-98 -14 -395 -16 -210 -2 -414 0 -453 3 l-72 7 -7 65 c-9 88 -7 2233 3 2503 4
118 11 221 15 228 7 9 101 12 439 10 l431 -3 14 -40z m-4716 -1917 c14 -13 39
-44 57 -70 89 -129 250 -216 643 -350 145 -49 282 -95 304 -102 39 -13 265
-69 567 -140 80 -19 173 -46 205 -60 99 -41 318 -76 888 -141 774 -87 813 -89
1820 -90 1002 0 1006 0 1625 99 118 19 316 51 440 71 293 46 560 115 966 246
356 115 574 230 809 429 111 93 150 119 162 107 3 -4 8 -41 11 -82 7 -109 -12
-150 -113 -252 -180 -180 -505 -350 -908 -477 -190 -60 -543 -149 -820 -206
-262 -54 -888 -118 -1577 -162 -280 -18 -1485 -18 -1745 0 -372 25 -985 97
-1210 142 -82 16 -222 41 -310 56 -311 50 -557 111 -798 198 -171 63 -699 281
-771 319 -77 41 -165 122 -198 184 -28 50 -108 266 -108 290 0 20 35 15 61 -9z
m8381 -638 c-4 -158 -94 -947 -148 -1300 -34 -220 -114 -662 -170 -940 -96
-474 -133 -588 -223 -681 -52 -54 -87 -64 -96 -26 -3 12 10 83 29 157 53 208
86 396 145 836 55 403 88 831 111 1459 6 165 13 323 16 352 l5 52 77 47 c42
25 102 66 134 90 58 45 95 65 113 60 6 -2 9 -44 7 -106z m-8216 90 c48 -18
106 -73 126 -117 12 -28 25 -105 38 -230 70 -662 125 -1045 291 -2023 39 -228
73 -454 76 -502 9 -136 -17 -149 -141 -68 -91 60 -111 89 -119 178 -4 37 -20
135 -37 217 -76 373 -198 1179 -245 1610 -18 168 -52 599 -61 780 -6 116 -5
133 10 148 20 20 26 20 62 7z m447 -201 c142 -65 231 -99 261 -99 41 0 58 -31
57 -106 -1 -132 -37 -232 -61 -169 -5 14 -10 50 -10 78 0 56 -31 122 -53 114
-29 -10 9 -347 73 -662 16 -77 32 -170 35 -207 8 -78 46 -161 87 -192 24 -17
29 -17 44 -5 15 12 16 28 8 149 -14 217 -12 830 4 858 16 28 36 28 147 -3 50
-14 195 -50 323 -79 128 -29 234 -55 236 -57 2 -2 9 -260 15 -574 7 -313 16
-631 21 -705 12 -186 75 -760 106 -957 32 -210 43 -337 44 -499 0 -149 -8
-171 -56 -161 -68 14 -392 129 -427 153 -42 27 -92 98 -107 154 -19 65 -129
604 -169 831 -22 124 -54 329 -71 457 -16 128 -38 256 -48 284 -19 57 -44 80
-64 60 -17 -18 -17 -330 1 -432 7 -41 28 -160 47 -264 66 -361 124 -793 124
-918 l0 -68 -34 0 c-45 0 -206 81 -255 128 -35 34 -39 44 -56 137 -9 55 -51
278 -91 495 -108 574 -163 974 -184 1335 -29 487 -26 463 -65 526 -43 70 -64
154 -71 289 -7 128 2 160 46 160 17 0 81 -23 143 -51z m7318 -66 c46 -115
-120 -1809 -236 -2426 -14 -73 -33 -179 -42 -237 -16 -103 -16 -106 5 -153 12
-26 19 -54 15 -63 -10 -25 -294 -154 -375 -169 -42 -8 -68 12 -68 53 0 15 9
99 20 187 51 405 83 721 100 980 6 94 22 341 36 550 13 209 31 538 38 731 10
253 17 359 27 380 16 32 70 62 214 118 86 34 216 74 243 75 7 1 17 -11 23 -26z
m-641 -243 c43 -84 43 -146 5 -664 -19 -265 -48 -674 -65 -911 -41 -585 -46
-646 -82 -989 l-32 -299 -83 -38 c-187 -86 -486 -181 -577 -183 -49 -1 -51 0
-54 27 -2 15 6 53 18 84 26 69 46 154 60 251 32 225 100 1471 121 2213 6 222
14 407 18 411 6 7 364 96 486 122 39 8 91 15 117 15 46 1 48 -1 68 -39z
m-5217 -110 c62 -10 207 -28 324 -40 116 -11 218 -23 226 -26 8 -3 18 -24 21
-46 24 -150 81 -968 91 -1308 11 -382 54 -941 101 -1333 22 -183 24 -220 13
-234 -24 -28 -244 -11 -621 48 l-136 21 -6 82 c-22 317 -40 503 -56 599 -49
282 -59 350 -69 467 -6 69 -17 181 -25 250 -8 69 -20 215 -26 325 -14 243 -26
1127 -16 1178 8 45 16 46 179 17z m4402 -27 c13 -35 17 -432 6 -733 -10 -290
-58 -1014 -101 -1520 -23 -264 -34 -362 -56 -500 -8 -52 -13 -113 -10 -135 7
-47 2 -57 -43 -80 -66 -33 -521 -97 -583 -82 -26 7 -28 11 -28 55 0 26 9 117
20 202 27 213 97 966 110 1180 15 254 30 877 30 1237 l0 311 68 7 c119 11 375
45 452 59 104 20 127 19 135 -1z m-3460 -73 c39 -5 205 -17 370 -26 165 -10
301 -18 303 -20 2 -1 9 -282 17 -625 8 -343 22 -942 31 -1331 9 -407 13 -773
9 -861 l-7 -154 -146 4 c-81 3 -192 11 -247 19 -55 9 -152 20 -215 25 -84 7
-122 15 -140 28 -24 18 -25 23 -22 107 2 52 -8 184 -23 319 -64 561 -78 751
-120 1705 -18 400 -34 637 -46 668 -12 30 24 115 60 143 21 17 34 19 66 14 22
-3 72 -10 110 -15z m2691 -16 c11 -43 -3 -842 -20 -1159 -43 -779 -80 -1237
-136 -1673 -11 -84 -20 -158 -20 -163 0 -5 -69 -9 -162 -9 -90 0 -257 -7 -373
-15 -115 -8 -214 -15 -220 -15 -7 0 -8 53 -3 152 13 289 29 603 43 843 31 520
56 1136 71 1738 l7 277 107 0 c135 0 397 18 515 35 50 7 111 13 137 14 44 1
48 -1 54 -25z m-1238 -54 c144 -5 272 -14 282 -20 19 -10 20 -22 20 -203 0
-186 -44 -1278 -75 -1872 -17 -321 -27 -462 -52 -701 l-16 -161 -282 -8 c-156
-4 -326 -4 -378 0 l-95 7 -6 187 c-4 102 -11 384 -16 626 -18 814 -31 1259
-40 1339 -6 61 -5 88 7 120 12 33 13 62 6 151 -10 132 -9 407 1 488 l7 57 187
0 c103 0 305 -5 450 -10z m-3544 -36 c3 -9 4 -20 1 -24 -9 -15 -35 1 -35 21 0
23 25 25 34 3z m-418 -2208 c28 -13 95 -52 148 -86 188 -119 308 -168 856
-351 485 -161 630 -197 995 -244 110 -14 250 -34 310 -45 141 -24 309 -46 455
-60 444 -40 1119 -61 1322 -40 113 11 131 11 168 -4 66 -26 215 -19 785 39
132 13 305 27 385 30 208 9 326 28 596 95 256 63 341 92 584 193 85 35 195 74
243 86 168 41 380 162 513 292 60 58 89 79 108 79 33 0 42 -31 26 -91 -39
-143 -126 -235 -325 -344 -38 -21 -106 -59 -150 -86 -65 -38 -144 -69 -415
-157 -358 -117 -389 -127 -490 -142 -36 -5 -83 -18 -105 -29 -94 -45 -568
-129 -777 -138 l-136 -6 -14 49 c-10 37 -18 49 -33 49 -15 0 -24 -12 -35 -47
-27 -85 34 -77 -721 -89 -925 -15 -1259 -9 -1549 25 -723 85 -1070 159 -1659
351 -329 107 -382 124 -486 150 -166 43 -437 191 -561 307 -100 94 -165 204
-137 231 12 13 48 7 99 -17z m233 -480 c35 -19 85 -75 110 -125 11 -21 36 -94
56 -162 20 -68 63 -206 96 -306 32 -101 64 -215 70 -254 13 -86 27 -125 117
-339 82 -196 138 -361 129 -384 -19 -49 -171 13 -222 90 -9 13 -20 50 -26 81
-6 31 -26 95 -46 141 -81 197 -215 605 -239 730 -8 41 -38 153 -68 250 -29 98
-57 196 -61 220 -11 67 22 90 84 58z m7011 -118 c0 -122 -359 -1169 -486
-1421 -56 -109 -165 -226 -199 -213 -22 8 -14 34 80 256 112 264 145 355 279
786 128 413 156 493 190 545 40 61 136 94 136 47z m-6561 -64 c152 -50 185
-83 202 -200 9 -66 27 -133 88 -328 17 -54 36 -128 42 -165 5 -36 28 -109 51
-161 44 -102 227 -635 261 -760 24 -88 20 -110 -22 -110 -47 0 -294 173 -344
242 -12 16 -30 74 -43 138 -16 78 -30 120 -49 144 -36 47 -74 146 -91 235 -8
42 -37 151 -64 243 -28 91 -57 201 -66 245 -8 45 -33 118 -59 173 -49 106 -95
254 -95 307 l0 36 56 -7 c31 -3 91 -18 133 -32z m6258 -65 c14 -14 4 -54 -41
-162 -21 -49 -66 -188 -101 -310 -93 -325 -205 -641 -330 -932 -71 -166 -90
-199 -139 -242 -45 -40 -195 -123 -222 -123 -33 0 -8 87 116 396 49 123 187
650 250 959 41 200 67 278 98 294 10 4 36 11 60 15 24 4 93 31 154 61 114 57
136 63 155 44z m-5733 -103 c72 -24 178 -59 236 -76 190 -59 194 -63 206 -217
8 -108 24 -191 64 -323 16 -56 48 -195 71 -308 23 -114 51 -234 64 -267 12
-33 36 -128 53 -210 17 -83 41 -177 52 -209 58 -169 -2 -176 -295 -37 -145 69
-153 79 -214 246 -21 61 -64 174 -95 253 -30 79 -60 169 -67 200 -6 31 -38
122 -70 202 -115 287 -221 707 -196 774 10 25 49 19 191 -28z m5180 -166 c-2
-66 -108 -514 -193 -806 -78 -270 -194 -590 -247 -681 -21 -36 -38 -49 -107
-82 -90 -43 -316 -115 -344 -109 -28 5 -28 68 2 180 15 55 42 187 60 292 18
105 51 279 74 386 22 107 56 301 76 430 40 258 49 308 62 321 5 5 69 20 143
34 74 14 198 43 275 64 77 22 154 39 170 38 l30 -2 -1 -65z m-4368 -41 c110
-22 251 -48 314 -58 l115 -17 2 -64 c11 -297 38 -542 98 -895 108 -630 104
-602 83 -623 -17 -17 -35 -15 -82 8 -23 10 -95 29 -161 40 -248 45 -273 73
-344 390 -68 300 -129 545 -177 708 -52 178 -91 360 -100 472 l-7 80 30 0 c17
0 120 -18 229 -41z m3610 -96 c-44 -373 -263 -1431 -319 -1540 -11 -21 -30
-36 -59 -47 -57 -21 -346 -69 -374 -62 -33 9 -35 28 -9 118 13 46 30 117 39
158 29 143 137 862 156 1043 21 187 25 215 41 279 11 45 34 53 179 63 52 4
140 15 195 25 55 10 113 18 129 19 l28 1 -6 -57z m-2903 -9 c67 -8 217 -23
332 -32 l210 -17 6 -125 c14 -263 30 -1171 24 -1305 -9 -168 -14 -185 -55
-185 -92 0 -435 70 -456 93 -17 18 -45 186 -184 1102 -11 72 -23 210 -27 308
-6 162 -5 177 11 177 9 0 71 -7 139 -16z m1403 -56 c-3 -13 -7 -111 -11 -218
-7 -241 -17 -390 -55 -830 -41 -474 -49 -557 -60 -584 -12 -31 -52 -37 -160
-21 -47 7 -153 19 -236 25 l-152 13 -6 211 c-13 420 -37 884 -52 1021 -21 197
-28 299 -20 329 8 32 46 58 100 67 22 3 179 7 349 8 l307 1 -4 -22z m835 12
c15 -8 19 -21 19 -57 0 -57 -138 -959 -180 -1173 -52 -267 -88 -372 -135 -390
-55 -21 -457 -40 -499 -24 -23 9 -21 109 15 604 17 238 33 548 36 705 3 154 9
287 14 296 5 9 25 20 46 24 112 22 649 33 684 15z m-4266 -973 c28 -13 106
-57 175 -97 391 -227 858 -403 1142 -430 60 -6 130 -21 185 -39 48 -17 120
-35 159 -40 39 -6 170 -31 290 -55 480 -97 778 -126 1324 -126 513 0 846 31
1280 119 395 80 596 133 737 195 44 20 117 47 164 62 93 29 166 66 312 161
162 104 177 109 177 53 0 -76 -374 -380 -467 -380 -10 0 -78 -25 -151 -55
-201 -81 -391 -137 -637 -185 -60 -12 -166 -34 -235 -50 -338 -79 -598 -108
-1030 -117 -687 -14 -1465 58 -1968 182 -208 51 -772 259 -1018 375 -123 57
-224 122 -324 205 -99 83 -220 209 -220 229 0 23 46 20 105 -7z"/>
<path d="M1455 11318 c-2 -7 -6 -139 -9 -293 -5 -269 -20 -506 -51 -835 -17
-179 -19 -230 -6 -230 29 0 104 490 131 855 17 240 8 466 -21 501 -14 17 -38
18 -44 2z"/>
<path d="M1261 11121 c-21 -21 -27 -78 -36 -376 -4 -99 -13 -283 -21 -410 -7
-126 -14 -241 -14 -255 0 -34 13 -52 33 -45 38 15 60 134 77 425 15 260 24
593 16 632 -8 43 -30 54 -55 29z"/>
<path d="M7205 11180 c-8 -14 1 -117 16 -173 18 -68 69 -57 69 15 0 65 -67
188 -85 158z"/>
<path d="M7245 10900 c-8 -26 -3 -56 36 -222 31 -128 45 -155 75 -144 15 6 16
18 11 99 -9 117 -32 225 -55 257 -25 33 -58 38 -67 10z"/>
<path d="M1940 10980 c-10 -24 -10 -34 -1 -43 18 -18 46 5 46 39 0 41 -29 43
-45 4z"/>
<path d="M1847 10623 c-42 -108 -77 -410 -77 -677 0 -178 9 -244 32 -230 21
13 29 70 43 307 8 138 21 307 29 376 22 186 24 221 19 242 -8 31 -30 22 -46
-18z"/>
<path d="M6701 10391 c-18 -33 -14 -116 7 -134 42 -38 78 -9 69 55 -5 41 -32
88 -54 95 -7 3 -16 -5 -22 -16z"/>
<path d="M2562 10815 c-31 -67 4 -129 48 -85 16 16 20 31 18 63 -3 37 -6 42
-29 45 -19 2 -28 -3 -37 -23z"/>
<path d="M2516 10588 c-36 -56 -55 -245 -59 -575 -2 -215 4 -246 40 -211 13
14 18 49 25 170 4 84 13 225 18 313 13 200 13 312 0 320 -5 3 -16 -5 -24 -17z"/>
<path d="M964 8776 c-25 -18 -74 -124 -81 -176 -4 -31 -2 -40 15 -49 16 -9 28
-5 63 19 l44 30 21 -26 c19 -23 22 -24 35 -8 22 27 24 142 2 184 -21 40 -63
51 -99 26z"/>
<path d="M862 8388 c-44 -54 -85 -587 -51 -661 7 -15 18 -27 25 -27 24 0 35
67 45 255 10 206 20 278 44 324 21 42 19 74 -8 99 -27 25 -40 27 -55 10z"/>
<path d="M1033 7835 c-11 -41 -7 -375 5 -387 7 -7 17 0 29 18 36 55 28 326
-12 380 -13 18 -14 17 -22 -11z"/>
<path d="M815 7469 c-18 -27 0 -233 26 -317 10 -30 44 -60 56 -49 42 42 2 335
-51 369 -15 11 -24 10 -31 -3z"/>
<path d="M679 7069 c-7 -13 -11 -59 -10 -113 2 -164 29 -262 69 -254 23 4 26
58 12 183 -20 171 -44 234 -71 184z"/>
<path d="M7765 8537 c-20 -15 -23 -80 -5 -102 21 -25 56 -18 69 13 22 53 -24
117 -64 89z"/>
<path d="M7797 8343 c-19 -19 4 -259 49 -500 26 -144 44 -184 72 -161 12 10
14 30 9 98 -6 93 -70 484 -88 537 -10 31 -27 42 -42 26z"/>
<path d="M7675 8047 c-9 -36 -2 -100 12 -105 21 -6 38 44 27 85 -11 44 -31 54
-39 20z"/>
<path d="M7680 7834 c-9 -27 -11 -76 -7 -163 9 -181 35 -263 57 -180 13 48 8
290 -8 343 -12 43 -28 43 -42 0z"/>
<path d="M7887 7603 c-13 -12 -7 -90 8 -103 40 -33 70 20 45 81 -12 27 -38 38
-53 22z"/>
<path d="M7902 7367 c-22 -27 -24 -63 -3 -88 17 -21 21 -22 35 -9 14 15 19 41
17 88 -1 25 -31 31 -49 9z"/>
<path d="M1715 8317 c-8 -155 -3 -652 7 -662 14 -14 47 7 57 37 14 41 14 485
0 603 -11 92 -31 155 -47 155 -6 0 -13 -60 -17 -133z"/>
<path d="M1475 8286 c-20 -30 -16 -75 8 -90 27 -16 49 18 45 69 -4 48 -29 58
-53 21z"/>
<path d="M1420 8021 c-24 -46 -2 -151 31 -151 15 0 39 64 39 102 -1 59 -47 91
-70 49z"/>
<path d="M1403 7773 c-34 -81 -36 -832 -3 -853 20 -13 37 -12 46 1 8 13 6 798
-3 852 -3 20 -10 37 -15 37 -5 0 -16 -17 -25 -37z"/>
<path d="M1710 7570 c-13 -25 -5 -40 20 -40 21 0 45 34 35 50 -11 17 -44 11
-55 -10z"/>
<path d="M7110 7773 c-7 -23 -15 -191 -20 -428 -4 -215 -11 -426 -15 -470 -6
-72 -5 -83 14 -105 17 -21 22 -23 31 -10 40 59 52 227 48 647 -2 295 -6 373
-17 386 -20 25 -29 21 -41 -20z"/>
<path d="M2415 8134 c-21 -21 -19 -89 5 -168 35 -111 60 -99 60 30 0 120 -26
176 -65 138z"/>
<path d="M2433 7828 c-11 -30 -5 -518 7 -627 11 -97 29 -129 52 -90 18 32 18
669 0 712 -14 33 -47 36 -59 5z"/>
<path d="M2232 7638 c-15 -15 -16 -45 -2 -53 16 -10 41 16 38 38 -4 25 -20 31
-36 15z"/>
<path d="M2200 7391 c-10 -20 -4 -51 11 -51 14 0 38 41 32 56 -7 20 -31 17
-43 -5z"/>
<path d="M8310 5305 c-10 -12 -10 -19 -2 -27 13 -13 42 6 42 28 0 19 -24 18
-40 -1z"/>
<path d="M714 5995 c-31 -74 -10 -169 29 -136 30 25 29 159 -1 169 -7 2 -19
-13 -28 -33z"/>
<path d="M1660 5639 c-16 -28 -9 -64 44 -250 56 -195 60 -214 96 -444 32 -199
45 -255 61 -255 14 0 11 170 -6 315 -35 296 -81 530 -118 605 -26 52 -58 65
-77 29z"/>
<path d="M1403 5453 c-14 -21 -19 -54 -22 -152 -8 -286 47 -945 100 -1201 11
-52 26 -135 35 -185 28 -174 43 -243 59 -281 14 -34 17 -36 31 -23 13 14 12
38 -6 225 -12 115 -41 358 -65 539 -58 435 -76 595 -78 704 -4 169 37 131 87
-80 77 -326 233 -1244 252 -1484 8 -102 16 -133 40 -142 26 -10 44 25 44 86 0
125 -92 732 -171 1126 -79 395 -150 660 -195 728 -14 22 -29 61 -33 88 -13 80
-46 102 -78 52z"/>
<path d="M855 5285 c-10 -48 1 -435 15 -560 11 -91 32 -140 61 -140 21 0 23
78 4 265 -18 183 -52 420 -64 453 -8 19 -10 17 -16 -18z"/>
<path d="M1020 4094 c-11 -12 -10 -39 3 -150 17 -139 26 -167 52 -177 27 -11
36 26 25 105 -5 40 -12 103 -16 141 -7 84 -34 118 -64 81z"/>
<path d="M1093 3722 c-34 -21 -21 -112 17 -112 21 0 25 12 21 65 -3 35 -21 57
-38 47z"/>
<path d="M7817 5583 c-11 -41 -18 -99 -32 -303 -8 -118 -20 -251 -26 -294 -12
-92 -7 -126 20 -126 31 0 48 68 76 297 19 156 23 390 6 421 -14 26 -38 29 -44
5z"/>
<path d="M6968 4382 c-21 -24 -38 -79 -38 -123 0 -32 4 -39 19 -39 24 0 51 65
51 125 0 50 -11 62 -32 37z"/>
<path d="M6912 4118 c-12 -17 -37 -211 -29 -232 8 -21 44 -20 55 2 5 9 12 51
16 92 3 41 9 92 12 113 6 35 5 37 -18 37 -14 0 -30 -6 -36 -12z"/>
<path d="M2530 5351 c-20 -39 -5 -113 27 -125 24 -9 53 31 53 72 0 61 -56 97
-80 53z"/>
<path d="M2571 5141 c-15 -27 2 -71 28 -71 26 0 43 24 39 57 -2 22 -9 29 -30
31 -18 2 -30 -3 -37 -17z"/>
<path d="M2367 4706 c-9 -24 -39 -331 -35 -367 3 -38 31 -52 43 -22 4 10 13
74 21 143 7 69 16 144 20 167 5 32 2 49 -10 68 -19 28 -31 32 -39 11z"/>
<path d="M2478 4553 c-10 -3 -18 -13 -18 -23 0 -26 54 -232 96 -370 54 -175
80 -187 78 -37 -2 185 -97 445 -156 430z"/>
<path d="M3352 4123 c-18 -7 -42 -57 -42 -87 0 -50 60 -75 93 -38 21 23 22 81
1 110 -15 22 -27 25 -52 15z"/>
<path d="M3598 3988 c-41 -34 -19 -88 36 -88 56 0 73 38 36 78 -23 25 -49 28
-72 10z"/>
<path d="M5620 5391 c-5 -11 -10 -29 -10 -40 0 -17 6 -21 29 -21 37 0 65 34
50 62 -13 24 -55 23 -69 -1z"/>
<path d="M1403 2254 c-9 -23 13 -124 31 -142 36 -36 47 31 18 107 -19 48 -38
63 -49 35z"/>
<path d="M1457 1990 c7 -25 29 -44 42 -35 7 4 5 15 -5 31 -20 29 -44 32 -37 4z"/>
<path d="M1536 1765 c-11 -29 5 -113 25 -131 23 -20 49 -12 49 16 0 26 -23 78
-48 109 -17 21 -20 22 -26 6z"/>
<path d="M1614 1525 c-9 -23 23 -94 68 -152 60 -78 75 -68 39 25 -27 67 -73
142 -89 142 -7 0 -15 -7 -18 -15z"/>
<path d="M7329 2073 c-59 -139 -96 -374 -56 -360 22 7 73 201 93 355 9 67 -9
70 -37 5z"/>
<path d="M1967 2273 c-15 -14 -5 -70 27 -167 19 -56 60 -182 92 -281 70 -224
107 -308 131 -303 41 8 28 92 -54 361 -85 280 -136 397 -172 397 -10 0 -21 -3
-24 -7z"/>
</g>
</svg>
