<?xml version="1.0" encoding="UTF-8"?>
<!DOCTYPE svg PUBLIC "-//W3C//DTD SVG 1.1//EN" "http://www.w3.org/Graphics/SVG/1.1/DTD/svg11.dtd">
<!-- Creator: CorelDRAW -->
<svg xmlns="http://www.w3.org/2000/svg" xml:space="preserve" width="283.795mm" height="385.214mm" version="1.1" style="shape-rendering:geometricPrecision; text-rendering:geometricPrecision; image-rendering:optimizeQuality; fill-rule:evenodd; clip-rule:evenodd"
viewBox="0 0 28379.46 38521.42"
 xmlns:xlink="http://www.w3.org/1999/xlink"
 xmlns:xodm="http://www.corel.com/coreldraw/odm/2003">
 <defs>
  <style type="text/css">
   <![CDATA[
    .str0 {stroke:#333333;stroke-width:9;stroke-linejoin:bevel;stroke-miterlimit:2.61313}
    .str1 {stroke:red;stroke-width:9;stroke-linejoin:bevel;stroke-miterlimit:2.61313}
    .fil0 {fill:none}
   ]]>
  </style>
 </defs>
 <g id="Layer_x0020_1">
  <metadata id="CorelCorpID_0Corel-Layer"/>
  <path class="fil0 str0" d="M22751.5 15031.51c0,0 -7200,0 -7200,0 0,0 3600,4478.36 3600,4478.36 0,0 3600,-4478.36 3600,-4478.36z"/>
  <path class="fil0 str0" d="M21369.05 16533.84c0,0 -2217.55,2796.89 -2217.55,2796.89 0,0 -2217.55,-2796.89 -2217.55,-2796.89 0,0 4435.1,0 4435.1,0z"/>
  <path class="fil0 str0" d="M19869.85 15153.46c0,0 2593.65,0 2593.65,0 0,0 -917.63,1157.37 -917.63,1157.37 0,0 -1676.02,-1157.37 -1676.02,-1157.37z"/>
  <path class="fil0 str0" d="M19205.59 15153.46c0,0 306.2,0 306.2,0 0,0 1780.5,1229.51 1780.5,1229.51 0,0 -2086.7,0 -2086.7,0 0,0 0,-1229.51 0,-1229.51z"/>
  <path class="fil0 str0" d="M18780.53 15153.46c0,0 306.21,0 306.21,0 0,0 0,1229.51 0,1229.51 0,0 -2086.71,0 -2086.71,0 0,0 1780.5,-1229.51 1780.5,-1229.51z"/>
  <path class="fil0 str0" d="M18422.47 15153.46c0,0 -2582.97,0 -2582.97,0 0,0 913.85,1152.6 913.85,1152.6 0,0 1669.12,-1152.6 1669.12,-1152.6z"/>
  <path class="fil0 str0" d="M10200.12 20929.9c0,0 5400,0 5400,0 0,0 0,-1140 0,-1140 0,0 300,0 300,0 0,0 0,-1140 0,-1140 0,0 -300,0 -300,0 0,0 0,-1140 0,-1140 0,0 300,0 300,0 0,0 0,-1140 0,-1140 0,0 -300,0 -300,0 0,0 0,-1140 0,-1140 0,0 -900,0 -900,0 0,0 0,-300 0,-300 0,0 -1200,0 -1200,0 0,0 0,300 0,300 0,0 -1200,0 -1200,0 0,0 0,-300 0,-300 0,0 -1200,0 -1200,0 0,0 0,300 0,300 0,0 -900,0 -900,0 0,0 0,1140 0,1140 0,0 -300,0 -300,0 0,0 0,1140 0,1140 0,0 300,0 300,0 0,0 0,1140 0,1140 0,0 -300,0 -300,0 0,0 0,1140 0,1140 0,0 300,0 300,0 0,0 0,1140 0,1140z"/>
  <path class="fil0 str0" d="M15001.29 19040.77c0,0 -4202.35,0 -4202.35,0 0,0 0,-2200.21 0,-2200.21 0,0 4202.35,0 4202.35,0 0,0 0,2200.21 0,2200.21z"/>
  <path class="fil0 str0" d="M15878.04 5694.98c359.5,0 650.92,291.42 650.92,650.92 0,359.5 -291.42,650.92 -650.92,650.92 -359.5,0 -650.92,-291.42 -650.92,-650.92 0,-359.5 291.42,-650.92 650.92,-650.92z"/>
  <path class="fil0 str0" d="M17405.2 10397.68c0,0 1287.21,0 1287.21,0 0,0 0,1272.54 0,1272.54 0,0 -1287.21,0 -1287.21,0 0,0 0,-1272.54 0,-1272.54z"/>
  <path class="fil0 str0" d="M12770.49 10713.65c0,0 3634.85,0 3634.85,0 0,0 0,1903.07 0,1903.07 0,0 -3634.85,0 -3634.85,0 0,0 0,-1903.07 0,-1903.07z"/>
  <path class="fil0 str0" d="M15251.95 4592.5c0,0 -1373.91,1710.72 -1373.91,1710.72 0,0 -966.82,1203.88 -966.82,1203.88 0,0 -233.93,-187.83 -233.93,-187.83 0,0 -250.44,311.9 -250.44,311.9 0,0 233.91,187.82 233.91,187.82 0,0 -782.72,974.63 -782.72,974.63 0,0 0,1140 0,1140 0,0 300,0 300,0 0,0 0,1140 0,1140 0,0 -300,0 -300,0 0,0 0,1140 0,1140 0,0 300,0 300,0 0,0 0,1140 0,1140 0,0 -300,0 -300,0 0,0 0,1140 0,1140 0,0 1600,0 1600,0 0,0 0,300 0,300 0,0 1600,0 1600,0 0,0 0,-300 0,-300 0,0 1600,0 1600,0 0,0 0,300 0,300 0,0 1600,0 1600,0 0,0 0,-300 0,-300 0,0 1600,0 1600,0 0,0 0,-1140 0,-1140 0,0 -300,0 -300,0 0,0 0,-1140 0,-1140 0,0 300,0 300,0 0,0 0,-1140 0,-1140 0,0 -300,0 -300,0 0,0 0,-1140 0,-1140 0,0 300,0 300,0 0,0 0,-1140 0,-1140 0,0 -782.7,-974.62 -782.7,-974.62 0,0 233.92,-187.83 233.92,-187.83 0,0 -250.44,-311.9 -250.44,-311.9 0,0 -233.94,187.84 -233.94,187.84 0,0 -966.84,-1203.89 -966.84,-1203.89 0,0 -1373.85,-1710.71 -1373.85,-1710.71 0,0 233.92,-187.84 233.92,-187.84 0,0 -250.46,-311.88 -250.46,-311.88 0,0 -233.92,187.84 -233.92,187.84 0,0 -375.69,-467.81 -375.69,-467.81 0,0 -375.64,467.8 -375.64,467.8 0,0 -233.89,-187.83 -233.89,-187.83 0,0 -250.46,311.88 -250.46,311.88 0,0 233.9,187.83 233.9,187.83z"/>
  <path class="fil0 str0" d="M13841.19 17229.46c427.97,0 774.91,346.94 774.91,774.91 0,427.97 -346.94,774.91 -774.91,774.91 -427.97,0 -774.91,-346.94 -774.91,-774.91 0,-427.97 346.94,-774.91 774.91,-774.91z"/>
  <path class="fil0 str0" d="M14477.46 17929.9c-34.07,-294.25 -267.56,-527.73 -561.8,-561.8 0,0 0,561.8 0,561.8 0,0 561.8,0 561.8,0z"/>
  <path class="fil0 str0" d="M13204.92 17929.9c34.07,-294.25 267.56,-527.73 561.8,-561.8 0,0 0,561.8 0,561.8 0,0 -561.8,0 -561.8,0z"/>
  <path class="fil0 str0" d="M13766.72 18640.64c-294.25,-34.07 -527.73,-267.56 -561.8,-561.8 0,0 561.8,0 561.8,0 0,0 0,561.8 0,561.8z"/>
  <path class="fil0 str0" d="M14477.46 18078.84c-34.07,294.25 -267.56,527.73 -561.8,561.8 0,0 0,-561.8 0,-561.8 0,0 561.8,0 561.8,0z"/>
  <path class="fil0 str0" d="M11986.07 17229.46c427.97,0 774.91,346.94 774.91,774.91 0,427.97 -346.94,774.91 -774.91,774.91 -427.97,0 -774.91,-346.94 -774.91,-774.91 0,-427.97 346.94,-774.91 774.91,-774.91z"/>
  <path class="fil0 str0" d="M12622.34 17929.9c-34.07,-294.25 -267.56,-527.73 -561.8,-561.8 0,0 0,561.8 0,561.8 0,0 561.8,0 561.8,0z"/>
  <path class="fil0 str0" d="M11349.8 17929.9c34.07,-294.25 267.56,-527.73 561.8,-561.8 0,0 0,561.8 0,561.8 0,0 -561.8,0 -561.8,0z"/>
  <path class="fil0 str0" d="M11911.6 18640.64c-294.25,-34.07 -527.73,-267.56 -561.8,-561.8 0,0 561.8,0 561.8,0 0,0 0,561.8 0,561.8z"/>
  <path class="fil0 str0" d="M12622.34 18078.84c-34.07,294.25 -267.56,527.73 -561.8,561.8 0,0 0,-561.8 0,-561.8 0,0 561.8,0 561.8,0z"/>
  <path class="fil0 str0" d="M20858.18 25901.77c0,0 0,-3899.88 0,-3899.88 0,0 2248.51,0 2248.51,0 0,0 0,3899.88 0,3899.88 0,0 -2248.51,0 -2248.51,0z"/>
  <path class="fil0 str0" d="M21889.35 22283.35c-37.23,-18.62 -55.85,-37.23 -55.85,-74.47 0,-41.11 33.36,-74.47 74.47,-74.47 74.47,0 148.94,74.47 223.4,148.94 -74.46,74.47 -148.93,148.94 -223.4,148.94 -41.11,0 -74.47,-33.37 -74.47,-74.47 0,-37.24 18.62,-55.85 55.85,-74.47z"/>
  <path class="fil0 str0" d="M21889.35 25620.32c-37.23,-18.62 -55.85,-37.24 -55.85,-74.47 0,-41.11 33.36,-74.47 74.47,-74.47 74.47,0 148.94,74.47 223.4,148.94 -74.46,74.47 -148.93,148.93 -223.4,148.93 -41.11,0 -74.47,-33.36 -74.47,-74.46 0,-37.24 18.62,-55.86 55.85,-74.47z"/>
  <path class="fil0 str0" d="M21292.57 22283.35c-37.24,-18.62 -55.85,-37.23 -55.85,-74.47 0,-41.11 33.36,-74.47 74.46,-74.47 74.47,0 148.94,74.47 223.41,148.94 -74.47,74.47 -148.94,148.94 -223.41,148.94 -41.1,0 -74.46,-33.37 -74.46,-74.47 0,-37.24 18.61,-55.85 55.85,-74.47z"/>
  <path class="fil0 str0" d="M21292.57 25620.32c-37.24,-18.62 -55.85,-37.24 -55.85,-74.47 0,-41.11 33.36,-74.47 74.46,-74.47 74.47,0 148.94,74.47 223.41,148.94 -74.47,74.47 -148.94,148.93 -223.41,148.93 -41.1,0 -74.46,-33.36 -74.46,-74.46 0,-37.24 18.61,-55.86 55.85,-74.47z"/>
  <path class="fil0 str0" d="M22486.13 22283.35c-37.23,-18.62 -55.85,-37.23 -55.85,-74.47 0,-41.11 33.37,-74.47 74.47,-74.47 74.47,0 148.94,74.47 223.41,148.94 -74.47,74.47 -148.94,148.94 -223.41,148.94 -41.1,0 -74.47,-33.37 -74.47,-74.47 0,-37.24 18.62,-55.85 55.85,-74.47z"/>
  <path class="fil0 str0" d="M22486.13 25620.32c-37.23,-18.62 -55.85,-37.24 -55.85,-74.47 0,-41.11 33.37,-74.47 74.47,-74.47 74.47,0 148.94,74.47 223.41,148.94 -74.47,74.47 -148.94,148.93 -223.41,148.93 -41.1,0 -74.47,-33.36 -74.47,-74.46 0,-37.24 18.62,-55.86 55.85,-74.47z"/>
  <path class="fil0 str0" d="M21021.59 22694.39c0,0 0,-148.94 0,-148.94 0,0 1903.07,0 1903.07,0 0,0 0,148.94 0,148.94 0,0 -1903.07,0 -1903.07,0z"/>
  <path class="fil0 str0" d="M21021.59 25358.21c0,0 0,-148.94 0,-148.94 0,0 1903.07,0 1903.07,0 0,0 0,148.94 0,148.94 0,0 -1903.07,0 -1903.07,0z"/>
  <path class="fil0 str0" d="M21021.59 24851.63c0,0 0,-669.75 0,-669.75 0,-39.1 31.98,-71.08 71.08,-71.08 0,0 669.75,0 669.75,0 39.1,0 71.08,31.98 71.08,71.08 0,0 0,669.75 0,669.75 0,39.1 -31.98,71.08 -71.08,71.08 0,0 -669.75,0 -669.75,0 -39.1,0 -71.08,-31.98 -71.08,-71.08z"/>
  <path class="fil0 str0" d="M21021.59 23753.15c0,0 0,-669.76 0,-669.76 0,-39.1 31.98,-71.08 71.08,-71.08 0,0 669.75,0 669.75,0 39.1,0 71.08,31.98 71.08,71.08 0,0 0,669.76 0,669.76 0,39.09 -31.98,71.07 -71.08,71.07 0,0 -669.75,0 -669.75,0 -39.1,0 -71.08,-31.98 -71.08,-71.07z"/>
  <path class="fil0 str0" d="M22112.75 24851.63c0,0 0,-669.75 0,-669.75 0,-39.1 31.98,-71.08 71.08,-71.08 0,0 669.75,0 669.75,0 39.1,0 71.08,31.98 71.08,71.08 0,0 0,669.75 0,669.75 0,39.1 -31.98,71.08 -71.08,71.08 0,0 -669.75,0 -669.75,0 -39.1,0 -71.08,-31.98 -71.08,-71.08z"/>
  <path class="fil0 str0" d="M22112.75 23753.15c0,0 0,-669.76 0,-669.76 0,-39.1 31.98,-71.08 71.08,-71.08 0,0 669.75,0 669.75,0 39.1,0 71.08,31.98 71.08,71.08 0,0 0,669.76 0,669.76 0,39.09 -31.98,71.07 -71.08,71.07 0,0 -669.75,0 -669.75,0 -39.1,0 -71.08,-31.98 -71.08,-71.07z"/>
  <path class="fil0 str0" d="M21725.08 6952.95c-34.07,-294.25 -267.56,-527.73 -561.8,-561.8 0,0 0,561.8 0,561.8 0,0 561.8,0 561.8,0z"/>
  <path class="fil0 str0" d="M20452.54 6952.95c34.07,-294.25 267.56,-527.73 561.8,-561.8 0,0 0,561.8 0,561.8 0,0 -561.8,0 -561.8,0z"/>
  <path class="fil0 str0" d="M21014.34 7663.69c-294.25,-34.07 -527.73,-267.56 -561.8,-561.8 0,0 561.8,0 561.8,0 0,0 0,561.8 0,561.8z"/>
  <path class="fil0 str0" d="M21725.08 7101.89c-34.07,294.25 -267.56,527.73 -561.8,561.8 0,0 0,-561.8 0,-561.8 0,0 561.8,0 561.8,0z"/>
  <path class="fil0 str0" d="M20249.93 8092.59c63.93,0 115.75,51.82 115.75,115.75 0,63.93 -51.82,115.75 -115.75,115.75 -63.93,0 -115.75,-51.82 -115.75,-115.75 0,-63.93 51.82,-115.75 115.75,-115.75z"/>
  <path class="fil0 str0" d="M22217.8 6543.71c0,0 0,3752.4 0,3752.4 0,0 -2257.97,0 -2257.97,0 0,0 0,-3752.4 0,-3752.4 0,-361.54 505.46,-654.63 1128.98,-654.63 623.53,0 1128.99,293.09 1128.99,654.63z"/>
  <path class="fil0 str0" d="M7198.78 4601.03c0,0 -1373.91,1710.72 -1373.91,1710.72 0,0 -966.82,1203.88 -966.82,1203.88 0,0 -233.93,-187.83 -233.93,-187.83 0,0 -250.44,311.9 -250.44,311.9 0,0 233.91,187.82 233.91,187.82 0,0 -782.72,974.63 -782.72,974.63 0,0 0,1140 0,1140 0,0 300,0 300,0 0,0 0,1140 0,1140 0,0 -300,0 -300,0 0,0 0,1140 0,1140 0,0 300,0 300,0 0,0 0,1140 0,1140 0,0 -300,0 -300,0 0,0 0,1140 0,1140 0,0 1600,0 1600,0 0,0 0,300 0,300 0,0 1600,0 1600,0 0,0 0,-300 0,-300 0,0 1600,0 1600,0 0,0 0,300 0,300 0,0 1600,0 1600,0 0,0 0,-300 0,-300 0,0 1600,0 1600,0 0,0 0,-1140 0,-1140 0,0 -300,0 -300,0 0,0 0,-1140 0,-1140 0,0 300,0 300,0 0,0 0,-1140 0,-1140 0,0 -300,0 -300,0 0,0 0,-1140 0,-1140 0,0 300,0 300,0 0,0 0,-1140 0,-1140 0,0 -782.7,-974.62 -782.7,-974.62 0,0 233.92,-187.83 233.92,-187.83 0,0 -250.44,-311.9 -250.44,-311.9 0,0 -233.94,187.84 -233.94,187.84 0,0 -966.84,-1203.89 -966.84,-1203.89 0,0 -1373.85,-1710.71 -1373.85,-1710.71 0,0 233.92,-187.84 233.92,-187.84 0,0 -250.46,-311.88 -250.46,-311.88 0,0 -233.92,187.84 -233.92,187.84 0,0 -375.69,-467.81 -375.69,-467.81 0,0 -375.64,467.8 -375.64,467.8 0,0 -233.89,-187.83 -233.89,-187.83 0,0 -250.46,311.88 -250.46,311.88 0,0 233.9,187.83 233.9,187.83z"/>
  <path class="fil0 str0" d="M7824.87 5703.51c359.5,0 650.92,291.42 650.92,650.92 0,359.5 -291.42,650.92 -650.92,650.92 -359.5,0 -650.92,-291.42 -650.92,-650.92 0,-359.5 291.42,-650.92 650.92,-650.92z"/>
  <path class="fil0 str0" d="M22611.04 10398.86c0,0 0,4508.75 0,4508.75 0,0 -2599.57,0 -2599.57,0 0,0 0,-4508.75 0,-4508.75 0,0 2599.57,0 2599.57,0z"/>
  <path class="fil0 str0" d="M21418.87 14582.22c43.05,21.52 64.57,43.04 64.57,86.09 0,47.53 -38.57,86.1 -86.09,86.1 -86.1,0 -172.2,-86.1 -258.29,-172.19 86.09,-86.1 172.19,-172.19 258.29,-172.19 47.52,0 86.09,38.57 86.09,86.09 0,43.05 -21.52,64.57 -64.57,86.1z"/>
  <path class="fil0 str0" d="M21418.87 10724.26c43.05,21.52 64.57,43.04 64.57,86.09 0,47.53 -38.57,86.1 -86.09,86.1 -86.1,0 -172.2,-86.1 -258.29,-172.19 86.09,-86.1 172.19,-172.19 258.29,-172.19 47.52,0 86.09,38.57 86.09,86.09 0,43.05 -21.52,64.57 -64.57,86.1z"/>
  <path class="fil0 str0" d="M22108.83 14582.22c43.04,21.52 64.57,43.04 64.57,86.09 0,47.53 -38.57,86.1 -86.1,86.1 -86.09,0 -172.19,-86.1 -258.28,-172.19 86.09,-86.1 172.19,-172.19 258.28,-172.19 47.53,0 86.1,38.57 86.1,86.09 0,43.05 -21.53,64.57 -64.57,86.1z"/>
  <path class="fil0 str0" d="M22108.83 10724.26c43.04,21.52 64.57,43.04 64.57,86.09 0,47.53 -38.57,86.1 -86.1,86.1 -86.09,0 -172.19,-86.1 -258.28,-172.19 86.09,-86.1 172.19,-172.19 258.28,-172.19 47.53,0 86.1,38.57 86.1,86.09 0,43.05 -21.53,64.57 -64.57,86.1z"/>
  <path class="fil0 str0" d="M20728.91 14582.22c43.05,21.52 64.57,43.04 64.57,86.09 0,47.53 -38.57,86.1 -86.09,86.1 -86.1,0 -172.19,-86.1 -258.29,-172.19 86.1,-86.1 172.19,-172.19 258.29,-172.19 47.52,0 86.09,38.57 86.09,86.09 0,43.05 -21.52,64.57 -64.57,86.1z"/>
  <path class="fil0 str0" d="M20728.91 10724.26c43.05,21.52 64.57,43.04 64.57,86.09 0,47.53 -38.57,86.1 -86.09,86.1 -86.1,0 -172.19,-86.1 -258.29,-172.19 86.1,-86.1 172.19,-172.19 258.29,-172.19 47.52,0 86.09,38.57 86.09,86.09 0,43.05 -21.52,64.57 -64.57,86.1z"/>
  <path class="fil0 str0" d="M22422.12 14107c0,0 0,172.19 0,172.19 0,0 -2200.21,0 -2200.21,0 0,0 0,-172.19 0,-172.19 0,0 2200.21,0 2200.21,0z"/>
  <path class="fil0 str0" d="M22422.12 11027.29c0,0 0,172.18 0,172.18 0,0 -2200.21,0 -2200.21,0 0,0 0,-172.18 0,-172.18 0,0 2200.21,0 2200.21,0z"/>
  <path class="fil0 str0" d="M22422.12 11612.96c0,0 0,774.32 0,774.32 0,45.2 -36.98,82.18 -82.18,82.18 0,0 -774.32,0 -774.32,0 -45.2,0 -82.18,-36.98 -82.18,-82.18 0,0 0,-774.32 0,-774.32 0,-45.2 36.98,-82.18 82.18,-82.18 0,0 774.32,0 774.32,0 45.2,0 82.18,36.98 82.18,82.18z"/>
  <path class="fil0 str0" d="M22422.12 12882.95c0,0 0,774.32 0,774.32 0,45.2 -36.98,82.18 -82.18,82.18 0,0 -774.32,0 -774.32,0 -45.2,0 -82.18,-36.98 -82.18,-82.18 0,0 0,-774.32 0,-774.32 0,-45.2 36.98,-82.18 82.18,-82.18 0,0 774.32,0 774.32,0 45.2,0 82.18,36.98 82.18,82.18z"/>
  <path class="fil0 str0" d="M21160.59 11612.96c0,0 0,774.32 0,774.32 0,45.2 -36.98,82.18 -82.18,82.18 0,0 -774.32,0 -774.32,0 -45.2,0 -82.18,-36.98 -82.18,-82.18 0,0 0,-774.32 0,-774.32 0,-45.2 36.98,-82.18 82.18,-82.18 0,0 774.32,0 774.32,0 45.2,0 82.18,36.98 82.18,82.18z"/>
  <path class="fil0 str0" d="M21160.59 12882.95c0,0 0,774.32 0,774.32 0,45.2 -36.98,82.18 -82.18,82.18 0,0 -774.32,0 -774.32,0 -45.2,0 -82.18,-36.98 -82.18,-82.18 0,0 0,-774.32 0,-774.32 0,-45.2 36.98,-82.18 82.18,-82.18 0,0 774.32,0 774.32,0 45.2,0 82.18,36.98 82.18,82.18z"/>
  <path class="fil0 str0" d="M24565.95 21874.85c0,0 -7200,0 -7200,0 0,0 3600,-4478.36 3600,-4478.36 0,0 3600,4478.36 3600,4478.36z"/>
  <path class="fil0 str0" d="M23183.5 20372.52c0,0 -2217.55,-2796.89 -2217.55,-2796.89 0,0 -2217.55,2796.89 -2217.55,2796.89 0,0 4435.1,0 4435.1,0z"/>
  <path class="fil0 str0" d="M21684.3 21752.9c0,0 2593.65,0 2593.65,0 0,0 -917.63,-1157.37 -917.63,-1157.37 0,0 -1676.02,1157.37 -1676.02,1157.37z"/>
  <path class="fil0 str0" d="M21020.04 21752.9c0,0 306.2,0 306.2,0 0,0 1780.5,-1229.51 1780.5,-1229.51 0,0 -2086.7,0 -2086.7,0 0,0 0,1229.51 0,1229.51z"/>
  <path class="fil0 str0" d="M20594.98 21752.9c0,0 306.21,0 306.21,0 0,0 0,-1229.51 0,-1229.51 0,0 -2086.71,0 -2086.71,0 0,0 1780.5,1229.51 1780.5,1229.51z"/>
  <path class="fil0 str0" d="M20236.92 21752.9c0,0 -2582.97,0 -2582.97,0 0,0 913.85,-1152.6 913.85,-1152.6 0,0 1669.12,1152.6 1669.12,1152.6z"/>
  <path class="fil0 str0" d="M18086.19 26505.45c0,0 0,-4508.75 0,-4508.75 0,0 2599.57,0 2599.57,0 0,0 0,4508.75 0,4508.75 0,0 -2599.57,0 -2599.57,0z"/>
  <path class="fil0 str0" d="M19278.36 22322.09c-43.05,-21.52 -64.57,-43.04 -64.57,-86.09 0,-47.53 38.57,-86.1 86.09,-86.1 86.1,0 172.2,86.1 258.29,172.19 -86.09,86.1 -172.19,172.19 -258.29,172.19 -47.52,0 -86.09,-38.57 -86.09,-86.09 0,-43.05 21.52,-64.57 64.57,-86.1z"/>
  <path class="fil0 str0" d="M19278.36 26180.05c-43.05,-21.52 -64.57,-43.04 -64.57,-86.09 0,-47.53 38.57,-86.1 86.09,-86.1 86.1,0 172.2,86.1 258.29,172.19 -86.09,86.1 -172.19,172.19 -258.29,172.19 -47.52,0 -86.09,-38.57 -86.09,-86.09 0,-43.05 21.52,-64.57 64.57,-86.1z"/>
  <path class="fil0 str0" d="M18588.4 22322.09c-43.04,-21.52 -64.57,-43.04 -64.57,-86.09 0,-47.53 38.57,-86.1 86.1,-86.1 86.09,0 172.19,86.1 258.28,172.19 -86.09,86.1 -172.19,172.19 -258.28,172.19 -47.53,0 -86.1,-38.57 -86.1,-86.09 0,-43.05 21.53,-64.57 64.57,-86.1z"/>
  <path class="fil0 str0" d="M18588.4 26180.05c-43.04,-21.52 -64.57,-43.04 -64.57,-86.09 0,-47.53 38.57,-86.1 86.1,-86.1 86.09,0 172.19,86.1 258.28,172.19 -86.09,86.1 -172.19,172.19 -258.28,172.19 -47.53,0 -86.1,-38.57 -86.1,-86.09 0,-43.05 21.53,-64.57 64.57,-86.1z"/>
  <path class="fil0 str0" d="M19968.32 22322.09c-43.05,-21.52 -64.57,-43.04 -64.57,-86.09 0,-47.53 38.57,-86.1 86.09,-86.1 86.1,0 172.19,86.1 258.29,172.19 -86.1,86.1 -172.19,172.19 -258.29,172.19 -47.52,0 -86.09,-38.57 -86.09,-86.09 0,-43.05 21.52,-64.57 64.57,-86.1z"/>
  <path class="fil0 str0" d="M19968.32 26180.05c-43.05,-21.52 -64.57,-43.04 -64.57,-86.09 0,-47.53 38.57,-86.1 86.09,-86.1 86.1,0 172.19,86.1 258.29,172.19 -86.1,86.1 -172.19,172.19 -258.29,172.19 -47.52,0 -86.09,-38.57 -86.09,-86.09 0,-43.05 21.52,-64.57 64.57,-86.1z"/>
  <path class="fil0 str0" d="M18275.11 22797.31c0,0 0,-172.19 0,-172.19 0,0 2200.21,0 2200.21,0 0,0 0,172.19 0,172.19 0,0 -2200.21,0 -2200.21,0z"/>
  <path class="fil0 str0" d="M18275.11 25877.02c0,0 0,-172.18 0,-172.18 0,0 2200.21,0 2200.21,0 0,0 0,172.18 0,172.18 0,0 -2200.21,0 -2200.21,0z"/>
  <path class="fil0 str0" d="M18275.11 25291.35c0,0 0,-774.32 0,-774.32 0,-45.2 36.98,-82.18 82.18,-82.18 0,0 774.32,0 774.32,0 45.2,0 82.18,36.98 82.18,82.18 0,0 0,774.32 0,774.32 0,45.2 -36.98,82.18 -82.18,82.18 0,0 -774.32,0 -774.32,0 -45.2,0 -82.18,-36.98 -82.18,-82.18z"/>
  <path class="fil0 str0" d="M18275.11 24021.36c0,0 0,-774.32 0,-774.32 0,-45.2 36.98,-82.18 82.18,-82.18 0,0 774.32,0 774.32,0 45.2,0 82.18,36.98 82.18,82.18 0,0 0,774.32 0,774.32 0,45.2 -36.98,82.18 -82.18,82.18 0,0 -774.32,0 -774.32,0 -45.2,0 -82.18,-36.98 -82.18,-82.18z"/>
  <path class="fil0 str0" d="M19536.64 25291.35c0,0 0,-774.32 0,-774.32 0,-45.2 36.98,-82.18 82.18,-82.18 0,0 774.32,0 774.32,0 45.2,0 82.18,36.98 82.18,82.18 0,0 0,774.32 0,774.32 0,45.2 -36.98,82.18 -82.18,82.18 0,0 -774.32,0 -774.32,0 -45.2,0 -82.18,-36.98 -82.18,-82.18z"/>
  <path class="fil0 str0" d="M19536.64 24021.36c0,0 0,-774.32 0,-774.32 0,-45.2 36.98,-82.18 82.18,-82.18 0,0 774.32,0 774.32,0 45.2,0 82.18,36.98 82.18,82.18 0,0 0,774.32 0,774.32 0,45.2 -36.98,82.18 -82.18,82.18 0,0 -774.32,0 -774.32,0 -45.2,0 -82.18,-36.98 -82.18,-82.18z"/>
  <path class="fil0 str0" d="M10830.25 22010.41c0,0 -871.49,0 -871.49,0 0,0 0,-943.15 0,-943.15 0,0 -871.49,0 -871.49,0 0,0 0,943.15 0,943.15 0,0 -871.49,0 -871.49,0 0,0 0,-943.15 0,-943.15 0,0 -871.48,0 -871.48,0 0,0 0,943.15 0,943.15 0,0 -871.49,0 -871.49,0 0,0 0,-943.15 0,-943.15 0,0 -871.49,0 -871.49,0 0,0 0,943.15 0,943.15 0,0 -871.49,0 -871.49,0 0,0 0,-943.15 0,-943.15 0,0 -899.59,0 -899.59,0 0,0 0,7500 0,7500 0,0 7000.01,0 7000.01,0 0,0 0,-6556.85 0,-6556.85z"/>
  <path class="fil0 str0" d="M4330.24 22592.67c0,0 300,0 300,0 0,0 0,400 0,400 0,0 -300,0 -300,0 0,0 0,-400 0,-400z"/>
  <path class="fil0 str0" d="M10030.25 22592.67c0,0 300,0 300,0 0,0 0,400 0,400 0,0 -300,0 -300,0 0,0 0,-400 0,-400z"/>
  <path class="fil0 str0" d="M10030.25 26772.57c0,0 300,0 300,0 0,0 0,400 0,400 0,0 -300,0 -300,0 0,0 0,-400 0,-400z"/>
  <path class="fil0 str0" d="M4330.24 26772.57c0,0 300,0 300,0 0,0 0,400 0,400 0,0 -300,0 -300,0 0,0 0,-400 0,-400z"/>
  <path class="fil0 str1" d="M10830.25 23455.04c-249.73,-23.19 -442.53,-174.14 -442.53,-356.9 0,198.82 -228.15,359.99 -509.58,359.99 -281.43,0 -509.58,-161.17 -509.58,-359.99 0,198.82 -228.15,359.99 -509.58,359.99 -281.43,0 -509.58,-161.17 -509.58,-359.99 0,198.82 -228.15,359.99 -509.58,359.99 -281.43,0 -509.58,-161.17 -509.58,-359.99 0,198.82 -228.15,359.99 -509.58,359.99 -281.43,0 -509.58,-161.17 -509.58,-359.99 0,198.82 -228.15,359.99 -509.58,359.99 -281.43,0 -509.58,-161.17 -509.58,-359.99 0,198.82 -228.15,359.99 -509.58,359.99 -281.43,0 -509.58,-161.17 -509.58,-359.99 0,182.76 -192.79,333.71 -442.52,356.9"/>
  <path class="fil0 str1" d="M10830.25 22912.89c-87.82,108.36 -253.11,181.37 -442.53,181.37 -281.43,0 -509.58,-161.17 -509.58,-359.99 0,198.82 -228.15,359.99 -509.58,359.99 -281.43,0 -509.58,-161.17 -509.58,-359.99 0,198.82 -228.15,359.99 -509.58,359.99 -281.43,0 -509.58,-161.17 -509.58,-359.99 0,198.82 -228.15,359.99 -509.58,359.99 -281.43,0 -509.58,-161.17 -509.58,-359.99 0,198.82 -228.15,359.99 -509.58,359.99 -281.43,0 -509.58,-161.17 -509.58,-359.99 0,198.82 -228.15,359.99 -509.58,359.99 -281.43,0 -509.58,-161.17 -509.58,-359.99 0,198.82 -228.15,359.99 -509.58,359.99 -189.41,0 -354.7,-73.01 -442.52,-181.36"/>
  <path class="fil0 str1" d="M10830.25 22731.18c-249.73,-23.19 -442.53,-174.14 -442.53,-356.9 0,82.12 -38.93,157.82 -104.45,218.39"/>
  <path class="fil0 str1" d="M10030.25 22717.96c-48.03,10.6 -99.13,16.31 -152.11,16.31 -281.43,0 -509.58,-161.17 -509.58,-359.99 0,198.82 -228.15,359.99 -509.58,359.99 -281.43,0 -509.58,-161.17 -509.58,-359.99 0,198.82 -228.15,359.99 -509.58,359.99 -281.43,0 -509.58,-161.17 -509.58,-359.99 0,198.82 -228.15,359.99 -509.58,359.99 -281.43,0 -509.58,-161.17 -509.58,-359.99 0,198.82 -228.15,359.99 -509.58,359.99 -281.43,0 -509.58,-161.17 -509.58,-359.99 0,198.82 -228.15,359.99 -509.58,359.99 -52.98,0 -104.07,-5.72 -152.1,-16.31"/>
  <path class="fil0 str1" d="M4377.21 22592.67c-65.52,-60.57 -104.45,-136.27 -104.45,-218.39 0,182.76 -192.79,333.71 -442.52,356.9"/>
  <path class="fil0 str1" d="M10830.25 22189.03c-87.82,108.36 -253.11,181.37 -442.53,181.37 -281.43,0 -509.58,-161.17 -509.58,-359.99 0,198.82 -228.15,359.99 -509.58,359.99 -281.43,0 -509.58,-161.17 -509.58,-359.99 0,198.82 -228.15,359.99 -509.58,359.99 -281.43,0 -509.58,-161.17 -509.58,-359.99 0,198.82 -228.15,359.99 -509.58,359.99 -281.43,0 -509.58,-161.17 -509.58,-359.99 0,198.82 -228.15,359.99 -509.58,359.99 -281.43,0 -509.58,-161.17 -509.58,-359.99 0,198.82 -228.15,359.99 -509.58,359.99 -281.43,0 -509.58,-161.17 -509.58,-359.99 0,198.82 -228.15,359.99 -509.58,359.99 -189.41,0 -354.7,-73.01 -442.52,-181.36"/>
  <path class="fil0 str1" d="M4782.34 22010.41c-281.43,0 -509.58,-161.17 -509.58,-359.99 0,182.76 -192.79,333.71 -442.52,356.9"/>
  <path class="fil0 str1" d="M6472.81 21913.49c-99.52,-65.69 -161.73,-159.25 -161.73,-263.07 0,198.82 -228.15,359.99 -509.58,359.99 -71.06,0 -138.74,-10.28 -200.18,-28.84"/>
  <path class="fil0 str1" d="M8215.78 21893.43c-93.16,71.89 -227.11,116.98 -375.96,116.98 -240.32,0 -441.8,-117.52 -495.52,-275.66"/>
  <path class="fil0 str1" d="M9958.76 22005.93c-26.26,2.94 -53.19,4.48 -80.62,4.48 -281.43,0 -509.58,-161.17 -509.58,-359.99 0,140.84 -114.48,262.79 -281.29,321.93"/>
  <path class="fil0 str1" d="M4729.83 21445.89c-83.21,118.88 -256.62,200.65 -457.07,200.65 -189.41,0 -354.7,-73.01 -442.52,-181.36"/>
  <path class="fil0 str1" d="M6472.81 21628.03c-50.82,12 -105.2,18.51 -161.73,18.51 -281.43,0 -509.58,-161.17 -509.58,-359.99 0,116.61 -78.5,220.28 -200.18,286.06"/>
  <path class="fil0 str1" d="M8215.78 21634.04c-216.62,-41.46 -375.96,-181.33 -375.96,-347.49 0,195.5 -220.6,354.59 -495.52,359.86"/>
  <path class="fil0 str1" d="M9958.76 21480.96c-51.02,-56.06 -80.62,-122.8 -80.62,-194.41 0,198.82 -228.15,359.99 -509.58,359.99 -103.98,0 -200.68,-22.01 -281.29,-59.77"/>
  <path class="fil0 str1" d="M10830.25 28522.06c-249.73,-23.19 -442.53,-174.14 -442.53,-356.9 0,198.82 -228.15,359.99 -509.58,359.99 -281.43,0 -509.58,-161.17 -509.58,-359.99 0,198.82 -228.15,359.99 -509.58,359.99 -281.43,0 -509.58,-161.17 -509.58,-359.99 0,198.82 -228.15,359.99 -509.58,359.99 -281.43,0 -509.58,-161.17 -509.58,-359.99 0,198.82 -228.15,359.99 -509.58,359.99 -281.43,0 -509.58,-161.17 -509.58,-359.99 0,198.82 -228.15,359.99 -509.58,359.99 -281.43,0 -509.58,-161.17 -509.58,-359.99 0,198.82 -228.15,359.99 -509.58,359.99 -281.43,0 -509.58,-161.17 -509.58,-359.99 0,182.76 -192.79,333.71 -442.52,356.9"/>
  <path class="fil0 str1" d="M10830.25 27979.91c-87.82,108.36 -253.11,181.37 -442.53,181.37 -281.43,0 -509.58,-161.17 -509.58,-359.99 0,198.82 -228.15,359.99 -509.58,359.99 -281.43,0 -509.58,-161.17 -509.58,-359.99 0,198.82 -228.15,359.99 -509.58,359.99 -281.43,0 -509.58,-161.17 -509.58,-359.99 0,198.82 -228.15,359.99 -509.58,359.99 -281.43,0 -509.58,-161.17 -509.58,-359.99 0,198.82 -228.15,359.99 -509.58,359.99 -281.43,0 -509.58,-161.17 -509.58,-359.99 0,198.82 -228.15,359.99 -509.58,359.99 -281.43,0 -509.58,-161.17 -509.58,-359.99 0,198.82 -228.15,359.99 -509.58,359.99 -189.41,0 -354.7,-73.01 -442.52,-181.36"/>
  <path class="fil0 str1" d="M10830.25 27798.2c-249.73,-23.19 -442.53,-174.14 -442.53,-356.9 0,198.82 -228.15,359.99 -509.58,359.99 -281.43,0 -509.58,-161.17 -509.58,-359.99 0,198.82 -228.15,359.99 -509.58,359.99 -281.43,0 -509.58,-161.17 -509.58,-359.99 0,198.82 -228.15,359.99 -509.58,359.99 -281.43,0 -509.58,-161.17 -509.58,-359.99 0,198.82 -228.15,359.99 -509.58,359.99 -281.43,0 -509.58,-161.17 -509.58,-359.99 0,198.82 -228.15,359.99 -509.58,359.99 -281.43,0 -509.58,-161.17 -509.58,-359.99 0,198.82 -228.15,359.99 -509.58,359.99 -281.43,0 -509.58,-161.17 -509.58,-359.99 0,182.76 -192.79,333.71 -442.52,356.9"/>
  <path class="fil0 str1" d="M10830.25 27256.05c-87.82,108.36 -253.11,181.37 -442.53,181.37 -281.43,0 -509.58,-161.17 -509.58,-359.99 0,198.82 -228.15,359.99 -509.58,359.99 -281.43,0 -509.58,-161.17 -509.58,-359.99 0,198.82 -228.15,359.99 -509.58,359.99 -281.43,0 -509.58,-161.17 -509.58,-359.99 0,198.82 -228.15,359.99 -509.58,359.99 -281.43,0 -509.58,-161.17 -509.58,-359.99 0,198.82 -228.15,359.99 -509.58,359.99 -281.43,0 -509.58,-161.17 -509.58,-359.99 0,198.82 -228.15,359.99 -509.58,359.99 -281.43,0 -509.58,-161.17 -509.58,-359.99 0,198.82 -228.15,359.99 -509.58,359.99 -189.41,0 -354.7,-73.01 -442.52,-181.36"/>
  <path class="fil0 str1" d="M10830.25 27074.34c-249.73,-23.19 -442.53,-174.14 -442.53,-356.9 0,59.97 -20.76,116.52 -57.47,166.24"/>
  <path class="fil0 str1" d="M10030.25 27061.12c-48.03,10.6 -99.13,16.31 -152.11,16.31 -281.43,0 -509.58,-161.17 -509.58,-359.99 0,198.82 -228.15,359.99 -509.58,359.99 -281.43,0 -509.58,-161.17 -509.58,-359.99 0,198.82 -228.15,359.99 -509.58,359.99 -281.43,0 -509.58,-161.17 -509.58,-359.99 0,198.82 -228.15,359.99 -509.58,359.99 -281.43,0 -509.58,-161.17 -509.58,-359.99 0,198.82 -228.15,359.99 -509.58,359.99 -281.43,0 -509.58,-161.17 -509.58,-359.99 0,198.82 -228.15,359.99 -509.58,359.99 -52.98,0 -104.07,-5.72 -152.1,-16.31"/>
  <path class="fil0 str1" d="M4330.24 26883.69c-36.71,-49.73 -57.48,-106.28 -57.48,-166.25 0,182.76 -192.79,333.71 -442.52,356.9"/>
  <path class="fil0 str1" d="M10830.25 26532.19c-87.82,108.36 -253.11,181.37 -442.53,181.37 -281.43,0 -509.58,-161.17 -509.58,-359.99 0,198.82 -228.15,359.99 -509.58,359.99 -281.43,0 -509.58,-161.17 -509.58,-359.99 0,198.82 -228.15,359.99 -509.58,359.99 -281.43,0 -509.58,-161.17 -509.58,-359.99 0,198.82 -228.15,359.99 -509.58,359.99 -281.43,0 -509.58,-161.17 -509.58,-359.99 0,198.82 -228.15,359.99 -509.58,359.99 -281.43,0 -509.58,-161.17 -509.58,-359.99 0,198.82 -228.15,359.99 -509.58,359.99 -281.43,0 -509.58,-161.17 -509.58,-359.99 0,198.82 -228.15,359.99 -509.58,359.99 -189.41,0 -354.7,-73.01 -442.52,-181.36"/>
  <path class="fil0 str1" d="M10830.25 26350.48c-249.73,-23.19 -442.53,-174.14 -442.53,-356.9 0,198.82 -228.15,359.99 -509.58,359.99 -281.43,0 -509.58,-161.17 -509.58,-359.99 0,198.82 -228.15,359.99 -509.58,359.99 -281.43,0 -509.58,-161.17 -509.58,-359.99 0,198.82 -228.15,359.99 -509.58,359.99 -281.43,0 -509.58,-161.17 -509.58,-359.99 0,198.82 -228.15,359.99 -509.58,359.99 -281.43,0 -509.58,-161.17 -509.58,-359.99 0,198.82 -228.15,359.99 -509.58,359.99 -281.43,0 -509.58,-161.17 -509.58,-359.99 0,198.82 -228.15,359.99 -509.58,359.99 -281.43,0 -509.58,-161.17 -509.58,-359.99 0,182.76 -192.79,333.71 -442.52,356.9"/>
  <path class="fil0 str1" d="M10830.25 25808.33c-87.82,108.36 -253.11,181.37 -442.53,181.37 -281.43,0 -509.58,-161.17 -509.58,-359.99 0,198.82 -228.15,359.99 -509.58,359.99 -281.43,0 -509.58,-161.17 -509.58,-359.99 0,198.82 -228.15,359.99 -509.58,359.99 -281.43,0 -509.58,-161.17 -509.58,-359.99 0,198.82 -228.15,359.99 -509.58,359.99 -281.43,0 -509.58,-161.17 -509.58,-359.99 0,198.82 -228.15,359.99 -509.58,359.99 -281.43,0 -509.58,-161.17 -509.58,-359.99 0,198.82 -228.15,359.99 -509.58,359.99 -281.43,0 -509.58,-161.17 -509.58,-359.99 0,198.82 -228.15,359.99 -509.58,359.99 -189.41,0 -354.7,-73.01 -442.52,-181.36"/>
  <path class="fil0 str1" d="M10830.25 25626.62c-249.73,-23.19 -442.53,-174.14 -442.53,-356.9 0,198.82 -228.15,359.99 -509.58,359.99 -281.43,0 -509.58,-161.17 -509.58,-359.99 0,198.82 -228.15,359.99 -509.58,359.99 -281.43,0 -509.58,-161.17 -509.58,-359.99 0,198.82 -228.15,359.99 -509.58,359.99 -281.43,0 -509.58,-161.17 -509.58,-359.99 0,198.82 -228.15,359.99 -509.58,359.99 -281.43,0 -509.58,-161.17 -509.58,-359.99 0,198.82 -228.15,359.99 -509.58,359.99 -281.43,0 -509.58,-161.17 -509.58,-359.99 0,198.82 -228.15,359.99 -509.58,359.99 -281.43,0 -509.58,-161.17 -509.58,-359.99 0,182.76 -192.79,333.71 -442.52,356.9"/>
  <path class="fil0 str1" d="M10830.25 25084.47c-87.82,108.36 -253.11,181.37 -442.53,181.37 -281.43,0 -509.58,-161.17 -509.58,-359.99 0,198.82 -228.15,359.99 -509.58,359.99 -281.43,0 -509.58,-161.17 -509.58,-359.99 0,198.82 -228.15,359.99 -509.58,359.99 -281.43,0 -509.58,-161.17 -509.58,-359.99 0,198.82 -228.15,359.99 -509.58,359.99 -281.43,0 -509.58,-161.17 -509.58,-359.99 0,198.82 -228.15,359.99 -509.58,359.99 -281.43,0 -509.58,-161.17 -509.58,-359.99 0,198.82 -228.15,359.99 -509.58,359.99 -281.43,0 -509.58,-161.17 -509.58,-359.99 0,198.82 -228.15,359.99 -509.58,359.99 -189.41,0 -354.7,-73.01 -442.52,-181.36"/>
  <path class="fil0 str1" d="M10830.25 24902.76c-249.73,-23.19 -442.53,-174.14 -442.53,-356.9 0,198.82 -228.15,359.99 -509.58,359.99 -281.43,0 -509.58,-161.17 -509.58,-359.99 0,198.82 -228.15,359.99 -509.58,359.99 -281.43,0 -509.58,-161.17 -509.58,-359.99 0,198.82 -228.15,359.99 -509.58,359.99 -281.43,0 -509.58,-161.17 -509.58,-359.99 0,198.82 -228.15,359.99 -509.58,359.99 -281.43,0 -509.58,-161.17 -509.58,-359.99 0,198.82 -228.15,359.99 -509.58,359.99 -281.43,0 -509.58,-161.17 -509.58,-359.99 0,198.82 -228.15,359.99 -509.58,359.99 -281.43,0 -509.58,-161.17 -509.58,-359.99 0,182.76 -192.79,333.71 -442.52,356.9"/>
  <path class="fil0 str1" d="M10830.25 24360.61c-87.82,108.36 -253.11,181.37 -442.53,181.37 -281.43,0 -509.58,-161.17 -509.58,-359.99 0,198.82 -228.15,359.99 -509.58,359.99 -281.43,0 -509.58,-161.17 -509.58,-359.99 0,198.82 -228.15,359.99 -509.58,359.99 -281.43,0 -509.58,-161.17 -509.58,-359.99 0,198.82 -228.15,359.99 -509.58,359.99 -281.43,0 -509.58,-161.17 -509.58,-359.99 0,198.82 -228.15,359.99 -509.58,359.99 -281.43,0 -509.58,-161.17 -509.58,-359.99 0,198.82 -228.15,359.99 -509.58,359.99 -281.43,0 -509.58,-161.17 -509.58,-359.99 0,198.82 -228.15,359.99 -509.58,359.99 -189.41,0 -354.7,-73.01 -442.52,-181.36"/>
  <path class="fil0 str1" d="M10830.25 24178.9c-249.73,-23.19 -442.53,-174.14 -442.53,-356.9 0,198.82 -228.15,359.99 -509.58,359.99 -281.43,0 -509.58,-161.17 -509.58,-359.99 0,198.82 -228.15,359.99 -509.58,359.99 -281.43,0 -509.58,-161.17 -509.58,-359.99 0,198.82 -228.15,359.99 -509.58,359.99 -281.43,0 -509.58,-161.17 -509.58,-359.99 0,198.82 -228.15,359.99 -509.58,359.99 -281.43,0 -509.58,-161.17 -509.58,-359.99 0,198.82 -228.15,359.99 -509.58,359.99 -281.43,0 -509.58,-161.17 -509.58,-359.99 0,198.82 -228.15,359.99 -509.58,359.99 -281.43,0 -509.58,-161.17 -509.58,-359.99 0,182.76 -192.79,333.71 -442.52,356.9"/>
  <path class="fil0 str1" d="M10830.25 23636.75c-87.82,108.36 -253.11,181.37 -442.53,181.37 -281.43,0 -509.58,-161.17 -509.58,-359.99 0,198.82 -228.15,359.99 -509.58,359.99 -281.43,0 -509.58,-161.17 -509.58,-359.99 0,198.82 -228.15,359.99 -509.58,359.99 -281.43,0 -509.58,-161.17 -509.58,-359.99 0,198.82 -228.15,359.99 -509.58,359.99 -281.43,0 -509.58,-161.17 -509.58,-359.99 0,198.82 -228.15,359.99 -509.58,359.99 -281.43,0 -509.58,-161.17 -509.58,-359.99 0,198.82 -228.15,359.99 -509.58,359.99 -281.43,0 -509.58,-161.17 -509.58,-359.99 0,198.82 -228.15,359.99 -509.58,359.99 -189.41,0 -354.7,-73.01 -442.52,-181.36"/>
  <polygon class="fil0 str0" points="3822.94,21061.68 3824.72,21061.68 3824.72,21060.14 3822.94,21060.14 "/>
  <path class="fil0 str0" d="M4114.49 20940.73c0,0 5400,0 5400,0 0,0 0,-1140 0,-1140 0,0 300,0 300,0 0,0 0,-1140 0,-1140 0,0 -300,0 -300,0 0,0 0,-1140 0,-1140 0,0 300,0 300,0 0,0 0,-1140 0,-1140 0,0 -300,0 -300,0 0,0 0,-1140 0,-1140 0,0 -900,0 -900,0 0,0 0,-300 0,-300 0,0 -1200,0 -1200,0 0,0 0,300 0,300 0,0 -1200,0 -1200,0 0,0 0,-300 0,-300 0,0 -1200,0 -1200,0 0,0 0,300 0,300 0,0 -900,0 -900,0 0,0 0,1140 0,1140 0,0 -300,0 -300,0 0,0 0,1140 0,1140 0,0 300,0 300,0 0,0 0,1140 0,1140 0,0 -300,0 -300,0 0,0 0,1140 0,1140 0,0 300,0 300,0 0,0 0,1140 0,1140z"/>
  <path class="fil0 str0" d="M8915.66 19051.6c0,0 -4202.35,0 -4202.35,0 0,0 0,-2200.21 0,-2200.21 0,0 4202.35,0 4202.35,0 0,0 0,2200.21 0,2200.21z"/>
  <path class="fil0 str0" d="M3887.81 28706.94c0,0 1600,0 1600,0 0,0 0,299.99 0,299.99 0,0 1599.99,0 1599.99,0 0,0 0,-299.99 0,-299.99 0,0 1600,0 1600,0 0,0 0,299.99 0,299.99 0,0 1600.01,0 1600.01,0 0,0 0,-299.99 0,-299.99 0,0 1599.99,0 1599.99,0"/>
  <path class="fil0 str0" d="M3887.83 34706.92c0,0 1600,0 1600,0 0,0 0,-300 0,-300 0,0 1600.01,0 1600.01,0 0,0 0,300 0,300 0,0 1600,0 1600,0 0,0 0,-300 0,-300 0,0 1599.99,0 1599.99,0 0,0 0,300 0,300 0,0 1600.01,0 1600.01,0"/>
  <path class="fil0 str0" d="M11887.84 34706.92c0,0 0,-1199.99 0,-1199.99 0,0 -300.01,0 -300.01,0 0,0 0,-1200.01 0,-1200.01 0,0 300.01,0 300.01,0 0,0 0,-1199.99 0,-1199.99 0,0 -300.01,0 -300.01,0 0,0 0,-1200.01 0,-1200.01 0,0 300.01,0 300.01,0 0,0 -0.04,-1199.98 -0.04,-1199.98"/>
  <path class="fil0 str0" d="M3887.83 34706.92c0,0 0,-1199.99 0,-1199.99 0,0 300,0 300,0 0,0 0,-1200.01 0,-1200.01 0,0 -300,0 -300,0 0,0 0,-1199.99 0,-1199.99 0,0 300,0 300,0 0,0 0,-1200.01 0,-1200.01 0,0 -300,0 -300,0 0,0 0,-1204.86 0,-1204.86"/>
  <path class="fil0 str0" d="M17910.02 21965.64c0,0 -871.49,0 -871.49,0 0,0 0,-943.15 0,-943.15 0,0 -871.49,0 -871.49,0 0,0 0,943.15 0,943.15 0,0 -871.49,0 -871.49,0 0,0 0,-943.15 0,-943.15 0,0 -871.48,0 -871.48,0 0,0 0,943.15 0,943.15 0,0 -871.49,0 -871.49,0 0,0 0,-943.15 0,-943.15 0,0 -871.49,0 -871.49,0 0,0 0,943.15 0,943.15 0,0 -871.49,0 -871.49,0 0,0 0,-943.15 0,-943.15 0,0 -899.59,0 -899.59,0 0,0 0,7500 0,7500 0,0 7000.01,0 7000.01,0 0,0 0,-6556.85 0,-6556.85z"/>
  <path class="fil0 str0" d="M11410.01 22547.9c0,0 300,0 300,0 0,0 0,400 0,400 0,0 -300,0 -300,0 0,0 0,-400 0,-400z"/>
  <path class="fil0 str0" d="M17110.02 22547.9c0,0 300,0 300,0 0,0 0,400 0,400 0,0 -300,0 -300,0 0,0 0,-400 0,-400z"/>
  <path class="fil0 str0" d="M17110.02 26727.8c0,0 300,0 300,0 0,0 0,400 0,400 0,0 -300,0 -300,0 0,0 0,-400 0,-400z"/>
  <path class="fil0 str0" d="M11410.01 26727.8c0,0 300,0 300,0 0,0 0,400 0,400 0,0 -300,0 -300,0 0,0 0,-400 0,-400z"/>
  <path class="fil0 str1" d="M17910.02 23410.27c-249.73,-23.19 -442.53,-174.14 -442.53,-356.9 0,198.82 -228.15,359.99 -509.58,359.99 -281.43,0 -509.58,-161.17 -509.58,-359.99 0,198.82 -228.15,359.99 -509.58,359.99 -281.43,0 -509.58,-161.17 -509.58,-359.99 0,198.82 -228.15,359.99 -509.58,359.99 -281.43,0 -509.58,-161.17 -509.58,-359.99 0,198.82 -228.15,359.99 -509.58,359.99 -281.43,0 -509.58,-161.17 -509.58,-359.99 0,198.82 -228.15,359.99 -509.58,359.99 -281.43,0 -509.58,-161.17 -509.58,-359.99 0,198.82 -228.15,359.99 -509.58,359.99 -281.43,0 -509.58,-161.17 -509.58,-359.99 0,182.76 -192.79,333.71 -442.52,356.9"/>
  <path class="fil0 str1" d="M17910.02 22868.12c-87.82,108.36 -253.11,181.37 -442.53,181.37 -281.43,0 -509.58,-161.17 -509.58,-359.99 0,198.82 -228.15,359.99 -509.58,359.99 -281.43,0 -509.58,-161.17 -509.58,-359.99 0,198.82 -228.15,359.99 -509.58,359.99 -281.43,0 -509.58,-161.17 -509.58,-359.99 0,198.82 -228.15,359.99 -509.58,359.99 -281.43,0 -509.58,-161.17 -509.58,-359.99 0,198.82 -228.15,359.99 -509.58,359.99 -281.43,0 -509.58,-161.17 -509.58,-359.99 0,198.82 -228.15,359.99 -509.58,359.99 -281.43,0 -509.58,-161.17 -509.58,-359.99 0,198.82 -228.15,359.99 -509.58,359.99 -189.41,0 -354.7,-73.01 -442.52,-181.36"/>
  <path class="fil0 str1" d="M17910.02 22686.41c-249.73,-23.19 -442.53,-174.14 -442.53,-356.9 0,82.12 -38.93,157.82 -104.45,218.39"/>
  <path class="fil0 str1" d="M17110.02 22673.19c-48.03,10.6 -99.13,16.31 -152.11,16.31 -281.43,0 -509.58,-161.17 -509.58,-359.99 0,198.82 -228.15,359.99 -509.58,359.99 -281.43,0 -509.58,-161.17 -509.58,-359.99 0,198.82 -228.15,359.99 -509.58,359.99 -281.43,0 -509.58,-161.17 -509.58,-359.99 0,198.82 -228.15,359.99 -509.58,359.99 -281.43,0 -509.58,-161.17 -509.58,-359.99 0,198.82 -228.15,359.99 -509.58,359.99 -281.43,0 -509.58,-161.17 -509.58,-359.99 0,198.82 -228.15,359.99 -509.58,359.99 -52.98,0 -104.07,-5.72 -152.1,-16.31"/>
  <path class="fil0 str1" d="M11456.98 22547.9c-65.52,-60.57 -104.45,-136.27 -104.45,-218.39 0,182.76 -192.79,333.71 -442.52,356.9"/>
  <path class="fil0 str1" d="M17910.02 22144.26c-87.82,108.36 -253.11,181.37 -442.53,181.37 -281.43,0 -509.58,-161.17 -509.58,-359.99 0,198.82 -228.15,359.99 -509.58,359.99 -281.43,0 -509.58,-161.17 -509.58,-359.99 0,198.82 -228.15,359.99 -509.58,359.99 -281.43,0 -509.58,-161.17 -509.58,-359.99 0,198.82 -228.15,359.99 -509.58,359.99 -281.43,0 -509.58,-161.17 -509.58,-359.99 0,198.82 -228.15,359.99 -509.58,359.99 -281.43,0 -509.58,-161.17 -509.58,-359.99 0,198.82 -228.15,359.99 -509.58,359.99 -281.43,0 -509.58,-161.17 -509.58,-359.99 0,198.82 -228.15,359.99 -509.58,359.99 -189.41,0 -354.7,-73.01 -442.52,-181.36"/>
  <path class="fil0 str1" d="M11862.11 21965.64c-281.43,0 -509.58,-161.17 -509.58,-359.99 0,182.76 -192.79,333.71 -442.52,356.9"/>
  <path class="fil0 str1" d="M13552.58 21868.72c-99.52,-65.69 -161.73,-159.25 -161.73,-263.07 0,198.82 -228.15,359.99 -509.58,359.99 -71.06,0 -138.74,-10.28 -200.18,-28.84"/>
  <path class="fil0 str1" d="M15295.55 21848.66c-93.16,71.89 -227.11,116.98 -375.96,116.98 -240.32,0 -441.8,-117.52 -495.52,-275.66"/>
  <path class="fil0 str1" d="M17038.53 21961.16c-26.26,2.94 -53.19,4.48 -80.62,4.48 -281.43,0 -509.58,-161.17 -509.58,-359.99 0,140.84 -114.48,262.79 -281.29,321.93"/>
  <path class="fil0 str1" d="M11809.6 21401.12c-83.21,118.88 -256.62,200.65 -457.07,200.65 -189.41,0 -354.7,-73.01 -442.52,-181.36"/>
  <path class="fil0 str1" d="M13552.58 21583.26c-50.82,12 -105.2,18.51 -161.73,18.51 -281.43,0 -509.58,-161.17 -509.58,-359.99 0,116.61 -78.5,220.28 -200.18,286.06"/>
  <path class="fil0 str1" d="M15295.55 21589.27c-216.62,-41.46 -375.96,-181.33 -375.96,-347.49 0,195.5 -220.6,354.59 -495.52,359.86"/>
  <path class="fil0 str1" d="M17038.53 21436.19c-51.02,-56.06 -80.62,-122.8 -80.62,-194.41 0,198.82 -228.15,359.99 -509.58,359.99 -103.98,0 -200.68,-22.01 -281.29,-59.77"/>
  <path class="fil0 str1" d="M17910.02 28477.29c-249.73,-23.19 -442.53,-174.14 -442.53,-356.9 0,198.82 -228.15,359.99 -509.58,359.99 -281.43,0 -509.58,-161.17 -509.58,-359.99 0,198.82 -228.15,359.99 -509.58,359.99 -281.43,0 -509.58,-161.17 -509.58,-359.99 0,198.82 -228.15,359.99 -509.58,359.99 -281.43,0 -509.58,-161.17 -509.58,-359.99 0,198.82 -228.15,359.99 -509.58,359.99 -281.43,0 -509.58,-161.17 -509.58,-359.99 0,198.82 -228.15,359.99 -509.58,359.99 -281.43,0 -509.58,-161.17 -509.58,-359.99 0,198.82 -228.15,359.99 -509.58,359.99 -281.43,0 -509.58,-161.17 -509.58,-359.99 0,182.76 -192.79,333.71 -442.52,356.9"/>
  <path class="fil0 str1" d="M17910.02 27935.14c-87.82,108.36 -253.11,181.37 -442.53,181.37 -281.43,0 -509.58,-161.17 -509.58,-359.99 0,198.82 -228.15,359.99 -509.58,359.99 -281.43,0 -509.58,-161.17 -509.58,-359.99 0,198.82 -228.15,359.99 -509.58,359.99 -281.43,0 -509.58,-161.17 -509.58,-359.99 0,198.82 -228.15,359.99 -509.58,359.99 -281.43,0 -509.58,-161.17 -509.58,-359.99 0,198.82 -228.15,359.99 -509.58,359.99 -281.43,0 -509.58,-161.17 -509.58,-359.99 0,198.82 -228.15,359.99 -509.58,359.99 -281.43,0 -509.58,-161.17 -509.58,-359.99 0,198.82 -228.15,359.99 -509.58,359.99 -189.41,0 -354.7,-73.01 -442.52,-181.36"/>
  <path class="fil0 str1" d="M17910.02 27753.43c-249.73,-23.19 -442.53,-174.14 -442.53,-356.9 0,198.82 -228.15,359.99 -509.58,359.99 -281.43,0 -509.58,-161.17 -509.58,-359.99 0,198.82 -228.15,359.99 -509.58,359.99 -281.43,0 -509.58,-161.17 -509.58,-359.99 0,198.82 -228.15,359.99 -509.58,359.99 -281.43,0 -509.58,-161.17 -509.58,-359.99 0,198.82 -228.15,359.99 -509.58,359.99 -281.43,0 -509.58,-161.17 -509.58,-359.99 0,198.82 -228.15,359.99 -509.58,359.99 -281.43,0 -509.58,-161.17 -509.58,-359.99 0,198.82 -228.15,359.99 -509.58,359.99 -281.43,0 -509.58,-161.17 -509.58,-359.99 0,182.76 -192.79,333.71 -442.52,356.9"/>
  <path class="fil0 str1" d="M17910.02 27211.28c-87.82,108.36 -253.11,181.37 -442.53,181.37 -281.43,0 -509.58,-161.17 -509.58,-359.99 0,198.82 -228.15,359.99 -509.58,359.99 -281.43,0 -509.58,-161.17 -509.58,-359.99 0,198.82 -228.15,359.99 -509.58,359.99 -281.43,0 -509.58,-161.17 -509.58,-359.99 0,198.82 -228.15,359.99 -509.58,359.99 -281.43,0 -509.58,-161.17 -509.58,-359.99 0,198.82 -228.15,359.99 -509.58,359.99 -281.43,0 -509.58,-161.17 -509.58,-359.99 0,198.82 -228.15,359.99 -509.58,359.99 -281.43,0 -509.58,-161.17 -509.58,-359.99 0,198.82 -228.15,359.99 -509.58,359.99 -189.41,0 -354.7,-73.01 -442.52,-181.36"/>
  <path class="fil0 str1" d="M17910.02 27029.57c-249.73,-23.19 -442.53,-174.14 -442.53,-356.9 0,59.97 -20.76,116.52 -57.47,166.24"/>
  <path class="fil0 str1" d="M17110.02 27016.35c-48.03,10.6 -99.13,16.31 -152.11,16.31 -281.43,0 -509.58,-161.17 -509.58,-359.99 0,198.82 -228.15,359.99 -509.58,359.99 -281.43,0 -509.58,-161.17 -509.58,-359.99 0,198.82 -228.15,359.99 -509.58,359.99 -281.43,0 -509.58,-161.17 -509.58,-359.99 0,198.82 -228.15,359.99 -509.58,359.99 -281.43,0 -509.58,-161.17 -509.58,-359.99 0,198.82 -228.15,359.99 -509.58,359.99 -281.43,0 -509.58,-161.17 -509.58,-359.99 0,198.82 -228.15,359.99 -509.58,359.99 -52.98,0 -104.07,-5.72 -152.1,-16.31"/>
  <path class="fil0 str1" d="M11410.01 26838.92c-36.71,-49.73 -57.48,-106.28 -57.48,-166.25 0,182.76 -192.79,333.71 -442.52,356.9"/>
  <path class="fil0 str1" d="M17910.02 26487.42c-87.82,108.36 -253.11,181.37 -442.53,181.37 -281.43,0 -509.58,-161.17 -509.58,-359.99 0,198.82 -228.15,359.99 -509.58,359.99 -281.43,0 -509.58,-161.17 -509.58,-359.99 0,198.82 -228.15,359.99 -509.58,359.99 -281.43,0 -509.58,-161.17 -509.58,-359.99 0,198.82 -228.15,359.99 -509.58,359.99 -281.43,0 -509.58,-161.17 -509.58,-359.99 0,198.82 -228.15,359.99 -509.58,359.99 -281.43,0 -509.58,-161.17 -509.58,-359.99 0,198.82 -228.15,359.99 -509.58,359.99 -281.43,0 -509.58,-161.17 -509.58,-359.99 0,198.82 -228.15,359.99 -509.58,359.99 -189.41,0 -354.7,-73.01 -442.52,-181.36"/>
  <path class="fil0 str1" d="M17910.02 26305.71c-249.73,-23.19 -442.53,-174.14 -442.53,-356.9 0,198.82 -228.15,359.99 -509.58,359.99 -281.43,0 -509.58,-161.17 -509.58,-359.99 0,198.82 -228.15,359.99 -509.58,359.99 -281.43,0 -509.58,-161.17 -509.58,-359.99 0,198.82 -228.15,359.99 -509.58,359.99 -281.43,0 -509.58,-161.17 -509.58,-359.99 0,198.82 -228.15,359.99 -509.58,359.99 -281.43,0 -509.58,-161.17 -509.58,-359.99 0,198.82 -228.15,359.99 -509.58,359.99 -281.43,0 -509.58,-161.17 -509.58,-359.99 0,198.82 -228.15,359.99 -509.58,359.99 -281.43,0 -509.58,-161.17 -509.58,-359.99 0,182.76 -192.79,333.71 -442.52,356.9"/>
  <path class="fil0 str1" d="M17910.02 25763.56c-87.82,108.36 -253.11,181.37 -442.53,181.37 -281.43,0 -509.58,-161.17 -509.58,-359.99 0,198.82 -228.15,359.99 -509.58,359.99 -281.43,0 -509.58,-161.17 -509.58,-359.99 0,198.82 -228.15,359.99 -509.58,359.99 -281.43,0 -509.58,-161.17 -509.58,-359.99 0,198.82 -228.15,359.99 -509.58,359.99 -281.43,0 -509.58,-161.17 -509.58,-359.99 0,198.82 -228.15,359.99 -509.58,359.99 -281.43,0 -509.58,-161.17 -509.58,-359.99 0,198.82 -228.15,359.99 -509.58,359.99 -281.43,0 -509.58,-161.17 -509.58,-359.99 0,198.82 -228.15,359.99 -509.58,359.99 -189.41,0 -354.7,-73.01 -442.52,-181.36"/>
  <path class="fil0 str1" d="M17910.02 25581.85c-249.73,-23.19 -442.53,-174.14 -442.53,-356.9 0,198.82 -228.15,359.99 -509.58,359.99 -281.43,0 -509.58,-161.17 -509.58,-359.99 0,198.82 -228.15,359.99 -509.58,359.99 -281.43,0 -509.58,-161.17 -509.58,-359.99 0,198.82 -228.15,359.99 -509.58,359.99 -281.43,0 -509.58,-161.17 -509.58,-359.99 0,198.82 -228.15,359.99 -509.58,359.99 -281.43,0 -509.58,-161.17 -509.58,-359.99 0,198.82 -228.15,359.99 -509.58,359.99 -281.43,0 -509.58,-161.17 -509.58,-359.99 0,198.82 -228.15,359.99 -509.58,359.99 -281.43,0 -509.58,-161.17 -509.58,-359.99 0,182.76 -192.79,333.71 -442.52,356.9"/>
  <path class="fil0 str1" d="M17910.02 25039.7c-87.82,108.36 -253.11,181.37 -442.53,181.37 -281.43,0 -509.58,-161.17 -509.58,-359.99 0,198.82 -228.15,359.99 -509.58,359.99 -281.43,0 -509.58,-161.17 -509.58,-359.99 0,198.82 -228.15,359.99 -509.58,359.99 -281.43,0 -509.58,-161.17 -509.58,-359.99 0,198.82 -228.15,359.99 -509.58,359.99 -281.43,0 -509.58,-161.17 -509.58,-359.99 0,198.82 -228.15,359.99 -509.58,359.99 -281.43,0 -509.58,-161.17 -509.58,-359.99 0,198.82 -228.15,359.99 -509.58,359.99 -281.43,0 -509.58,-161.17 -509.58,-359.99 0,198.82 -228.15,359.99 -509.58,359.99 -189.41,0 -354.7,-73.01 -442.52,-181.36"/>
  <path class="fil0 str1" d="M17910.02 24857.99c-249.73,-23.19 -442.53,-174.14 -442.53,-356.9 0,198.82 -228.15,359.99 -509.58,359.99 -281.43,0 -509.58,-161.17 -509.58,-359.99 0,198.82 -228.15,359.99 -509.58,359.99 -281.43,0 -509.58,-161.17 -509.58,-359.99 0,198.82 -228.15,359.99 -509.58,359.99 -281.43,0 -509.58,-161.17 -509.58,-359.99 0,198.82 -228.15,359.99 -509.58,359.99 -281.43,0 -509.58,-161.17 -509.58,-359.99 0,198.82 -228.15,359.99 -509.58,359.99 -281.43,0 -509.58,-161.17 -509.58,-359.99 0,198.82 -228.15,359.99 -509.58,359.99 -281.43,0 -509.58,-161.17 -509.58,-359.99 0,182.76 -192.79,333.71 -442.52,356.9"/>
  <path class="fil0 str1" d="M17910.02 24315.84c-87.82,108.36 -253.11,181.37 -442.53,181.37 -281.43,0 -509.58,-161.17 -509.58,-359.99 0,198.82 -228.15,359.99 -509.58,359.99 -281.43,0 -509.58,-161.17 -509.58,-359.99 0,198.82 -228.15,359.99 -509.58,359.99 -281.43,0 -509.58,-161.17 -509.58,-359.99 0,198.82 -228.15,359.99 -509.58,359.99 -281.43,0 -509.58,-161.17 -509.58,-359.99 0,198.82 -228.15,359.99 -509.58,359.99 -281.43,0 -509.58,-161.17 -509.58,-359.99 0,198.82 -228.15,359.99 -509.58,359.99 -281.43,0 -509.58,-161.17 -509.58,-359.99 0,198.82 -228.15,359.99 -509.58,359.99 -189.41,0 -354.7,-73.01 -442.52,-181.36"/>
  <path class="fil0 str1" d="M17910.02 24134.13c-249.73,-23.19 -442.53,-174.14 -442.53,-356.9 0,198.82 -228.15,359.99 -509.58,359.99 -281.43,0 -509.58,-161.17 -509.58,-359.99 0,198.82 -228.15,359.99 -509.58,359.99 -281.43,0 -509.58,-161.17 -509.58,-359.99 0,198.82 -228.15,359.99 -509.58,359.99 -281.43,0 -509.58,-161.17 -509.58,-359.99 0,198.82 -228.15,359.99 -509.58,359.99 -281.43,0 -509.58,-161.17 -509.58,-359.99 0,198.82 -228.15,359.99 -509.58,359.99 -281.43,0 -509.58,-161.17 -509.58,-359.99 0,198.82 -228.15,359.99 -509.58,359.99 -281.43,0 -509.58,-161.17 -509.58,-359.99 0,182.76 -192.79,333.71 -442.52,356.9"/>
  <path class="fil0 str1" d="M17910.02 23591.98c-87.82,108.36 -253.11,181.37 -442.53,181.37 -281.43,0 -509.58,-161.17 -509.58,-359.99 0,198.82 -228.15,359.99 -509.58,359.99 -281.43,0 -509.58,-161.17 -509.58,-359.99 0,198.82 -228.15,359.99 -509.58,359.99 -281.43,0 -509.58,-161.17 -509.58,-359.99 0,198.82 -228.15,359.99 -509.58,359.99 -281.43,0 -509.58,-161.17 -509.58,-359.99 0,198.82 -228.15,359.99 -509.58,359.99 -281.43,0 -509.58,-161.17 -509.58,-359.99 0,198.82 -228.15,359.99 -509.58,359.99 -281.43,0 -509.58,-161.17 -509.58,-359.99 0,198.82 -228.15,359.99 -509.58,359.99 -189.41,0 -354.7,-73.01 -442.52,-181.36"/>
  <polygon class="fil0 str0" points="10902.71,21016.91 10904.49,21016.91 10904.49,21015.37 10902.71,21015.37 "/>
 </g>
</svg>
