<?xml version="1.0" encoding="utf-8"?>
<!-- Generator: Adobe Illustrator 19.2.1, SVG Export Plug-In . SVG Version: 6.00 Build 0)  -->
<svg version="1.1" id="Ebene_1" xmlns="http://www.w3.org/2000/svg" xmlns:xlink="http://www.w3.org/1999/xlink" x="0px" y="0px"
	 width="1133.86px" height="850.39px" viewBox="0 0 1133.86 850.39" style="enable-background:new 0 0 1133.86 850.39;"
	 xml:space="preserve">
<style type="text/css">
	.st0{fill:none;stroke:#000000;stroke-miterlimit:10;}
</style>
<path class="st0" d="M280.788,424.725c-0.733,25.255,1.833,50.441,7.627,74.856c5.878,24.763,14.945,48.595,26.95,70.832
	c12.178,22.556,27.216,43.374,44.695,61.874c17.731,18.764,37.789,35.092,59.62,48.528c22.139,13.628,45.909,24.276,70.648,31.652
	c25.088,7.479,50.985,11.638,76.973,12.36c26.352,0.719,52.628-1.981,78.085-8.057c25.82-6.161,50.664-15.647,73.844-28.197
	c23.499-12.723,45.187-28.429,64.46-46.682c19.535-18.502,36.529-39.43,50.511-62.206c14.173-23.085,25.242-47.868,32.9-73.661
	c3.503-11.799,6.294-23.772,8.377-35.846c1.994-14.174,3.053-30.201,3.071-44.947c0-0.023,0.003-0.044,0.003-0.067
	c0-0.016-0.002-0.031-0.002-0.047c0-0.089,0.002-0.181,0.002-0.27l-0.016,0c-0.169-6.292-5.311-11.344-11.644-11.344
	c-6.44,0-11.66,5.22-11.66,11.66"/>
<path class="st0" d="M820.338,279.904c-12.196-22.469-27.243-43.2-44.721-61.617c-17.727-18.676-37.771-34.918-59.577-48.273
	c-22.118-13.545-45.852-24.115-70.542-31.417c-25.039-7.406-50.882-11.498-76.809-12.162c-26.304-0.663-52.517,2.094-77.877,8.203
	c-25.742,6.201-50.505,15.717-73.603,28.286c-23.417,12.742-45.02,28.455-64.207,46.702c-19.449,18.496-36.359,39.409-50.263,62.159
	c-14.091,23.058-25.083,47.805-32.67,73.551c-7.69,26.094-11.927,53.023-12.594,80.04c0,6.416,5.201,11.617,11.617,11.617
	c6.416,0,11.616-5.201,11.616-11.617c0-0.028-0.004-0.055-0.004-0.084h0.004c0.722-24.985,4.767-50.482,11.992-74.602
	c7.12-23.771,17.386-46.61,30.515-67.881c12.938-20.961,28.656-40.22,46.714-57.239c17.793-16.768,37.815-31.191,59.508-42.867
	c21.37-11.502,44.275-20.181,68.072-25.796c23.439-5.53,47.632-7.956,71.891-7.228c23.894,0.725,47.706,4.613,70.772,11.555
	c22.717,6.838,44.542,16.686,64.868,29.271c20.014,12.391,38.402,27.441,54.653,44.733c15.997,17.023,29.752,36.174,40.879,56.922
	c10.959,20.432,19.215,42.321,24.547,65.062c5.248,22.389,7.535,45.49,6.798,68.659c-0.727,22.811-4.472,45.533-11.131,67.54
	c-6.556,21.662-15.985,42.473-28.027,61.856c-11.851,19.074-26.235,36.59-42.751,52.063c-16.257,15.229-34.538,28.315-54.337,38.892
	c-19.48,10.411-40.358,18.248-62.051,23.296c-21.359,4.969-43.383,7.113-65.427,6.369c-21.716-0.725-43.353-4.329-64.308-10.711
	c-20.609-6.273-40.406-15.283-58.843-26.78c-18.125-11.304-34.772-25.021-49.474-40.77c-14.453-15.48-26.87-32.893-36.907-51.754
	c-9.863-18.54-17.28-38.404-22.045-59.041c-4.681-20.28-6.679-41.206-5.94-62.196c0.728-20.628,4.19-41.176,10.289-61.076
	c5.994-19.558,14.586-38.341,25.539-55.829c10.762-17.185,23.812-32.959,38.787-46.886c14.712-13.682,31.256-25.43,49.17-34.918
	c17.597-9.317,36.448-16.314,56.03-20.793c19.228-4.397,39.062-6.255,58.967-5.51c19.532,0.729,38.994,4.049,57.843,9.868
	c18.502,5.712,36.27,13.887,52.813,24.296c16.238,10.215,31.141,22.599,44.297,36.808c12.911,13.941,23.99,29.616,32.929,46.588
	c8.769,16.645,15.344,34.484,19.541,53.022c4.116,18.183,5.824,36.935,5.079,55.733c-0.729,18.446-3.908,36.819-9.448,54.61
	c-5.429,17.443-13.185,34.198-23.053,49.803c-9.671,15.287-21.389,29.32-34.827,41.706c-13.179,12.142-27.985,22.551-44.007,30.94
	c-15.708,8.223-32.534,14.375-50.014,18.286c-17.12,3.83-34.781,5.388-52.503,4.647c-17.348-0.732-34.633-3.769-51.376-9.029
	c-16.402-5.153-32.144-12.492-46.791-21.815c-14.346-9.128-27.506-20.18-39.115-32.849c-11.365-12.401-21.104-26.338-28.95-41.421
	c-7.676-14.766-13.407-30.582-17.032-47.006c-3.547-16.075-4.966-32.652-4.214-49.272c0.735-16.259,3.632-32.458,8.611-48.144
	c4.874-15.345,11.795-30.073,20.575-43.774c8.583-13.397,18.969-25.686,30.872-36.525c11.631-10.593,24.701-19.663,38.844-26.959
	c13.822-7.13,28.625-12.438,43.996-15.776c15.02-3.262,30.51-4.533,46.04-3.781c15.171,0.738,30.283,3.495,44.913,8.197
	c14.283,4.591,27.998,11.096,40.759,19.335c12.452,8.042,23.87,17.765,33.932,28.897c9.82,10.865,18.22,23.066,24.966,36.264
	c6.583,12.879,11.468,26.671,14.521,40.989c2.975,13.969,4.099,28.373,3.342,42.812c-0.741,14.079-3.359,28.104-7.782,41.68
	c-4.313,13.231-10.402,25.93-18.099,37.741c-7.501,11.509-16.559,22.053-26.924,31.341c-10.089,9.043-21.423,16.771-33.686,22.971
	c-11.937,6.035-24.717,10.495-37.983,13.258c-12.906,2.692-26.226,3.666-39.582,2.906c-12.988-0.745-25.923-3.226-38.446-7.373
	c-12.181-4.034-23.864-9.708-34.727-16.865c-10.568-6.964-20.238-15.359-28.744-24.952c-8.274-9.329-15.33-19.796-20.974-31.111
	c-5.487-10.995-9.524-22.764-11.998-34.98c-2.405-11.863-3.233-24.094-2.461-36.351c0.749-11.902,3.093-23.75,6.965-35.213
	c3.755-11.122,9.016-21.79,15.634-31.707c6.42-9.617,14.153-18.414,22.983-26.148c8.56-7.496,18.16-13.88,28.535-18.975
	c10.052-4.934,20.811-8.544,31.978-10.73c10.807-2.118,21.95-2.794,33.125-2.016c10.81,0.755,21.57,2.963,31.981,6.562
	c10.069,3.481,19.722,8.328,28.688,14.41c8.666,5.878,16.589,12.949,23.548,21.018c6.716,7.787,12.426,16.523,16.971,25.967
	c4.384,9.117,7.567,18.866,9.459,28.978c1.828,9.756,2.354,19.815,1.562,29.898c-0.76,9.718-2.835,19.389-6.164,28.747
	c-3.207,9.016-7.645,17.652-13.19,25.668c-5.341,7.72-11.754,14.768-19.063,20.944c-7.036,5.95-14.911,10.984-23.402,14.962
	c-8.175,3.832-16.916,6.584-25.979,8.183c-8.704,1.535-17.676,1.907-26.675,1.1c-8.636-0.773-17.22-2.717-25.514-5.777
	c-7.966-2.938-15.584-6.97-22.643-11.982c-6.776-4.81-12.944-10.566-18.335-17.11c-9.775-11.859-16.505-26.161-19.385-41.257
	c-3.066-16.07-1.615-32.86,4.253-48.135c5.44-14.16,14.743-26.749,26.721-36.058c12.154-9.445,27.061-15.313,42.422-16.482
	c15.86-1.207,32.013,2.612,45.472,11.138c12.849,8.139,22.971,20.355,28.204,34.673c5.455,14.925,5.33,31.651-0.753,46.365
	c-4.601,11.129-12.616,20.767-22.82,27.176c-11.853,7.445-26.565,10.267-40.247,6.99c-14.599-3.496-27.232-13.659-32.722-27.781
	c-5.671-14.59-2.421-32.371,9.952-42.527c5.846-4.798,13.444-7.504,21.034-6.844c7.336,0.638,14.515,4.473,18.166,11.038
	c3.098,5.571,3.477,14.763-2.949,18.271c-2.743,1.498-6.454,0.687-9.148-0.578c-1.961-0.921-3.867-2.484-6.153-2.284
	c-2.974,0.259-5.989,2.508-7.357,5.102c-1.548,2.937-1.497,6.566-0.232,9.594c1.276,3.055,3.938,5.599,6.636,7.433
	c2.887,1.962,6.308,3.244,9.752,3.757c15.601,2.322,29.512-9.444,33.162-24.149c3.769-15.185-2.664-31.161-14.711-40.779
	c-10.034-8.012-22.96-11.14-35.607-9.711c-12.141,1.371-24.061,7.603-32.249,16.669c-8.743,9.68-14.264,21.774-15.432,34.828
	c-1.388,15.505,3.186,31.152,12.371,43.684c4.277,5.836,9.52,11.002,15.419,15.192c5.142,3.65,10.667,6.577,16.422,8.7
	c6.09,2.247,12.365,3.672,18.652,4.234c6.657,0.593,13.27,0.324,19.654-0.803c6.749-1.188,13.236-3.229,19.281-6.062
	c15.083-7.067,27.627-18.834,35.846-33.304c2.363-4.161,4.371-8.524,5.975-13.033c2.542-7.14,4.124-14.501,4.704-21.882
	c0.606-7.741,0.207-15.444-1.188-22.894c-2.289-12.226-7.117-23.884-14.098-34.176c-1.942-2.863-4.047-5.615-6.307-8.235
	c-5.423-6.29-11.584-11.793-18.311-16.356c-7.026-4.764-14.571-8.556-22.421-11.269c-8.19-2.832-16.64-4.569-25.115-5.161
	c-8.822-0.62-17.614-0.087-26.131,1.581c-8.864,1.737-17.389,4.595-25.335,8.495c-8.272,4.061-15.912,9.138-22.709,15.09
	c-7.066,6.189-13.244,13.214-18.362,20.882c-5.318,7.965-9.538,16.519-12.547,25.425c-3.121,9.246-5.01,18.781-5.612,28.342
	c-0.625,9.923,0.042,19.802,1.981,29.367c2.011,9.919,5.281,19.462,9.719,28.36c4.601,9.221,10.338,17.737,17.057,25.311
	c6.956,7.842,14.845,14.694,23.453,20.368c8.91,5.869,18.475,10.517,28.428,13.812c10.299,3.413,20.921,5.452,31.573,6.061
	c11.02,0.629,21.989-0.174,32.605-2.385c10.975-2.285,21.533-5.97,31.382-10.949c10.171-5.14,19.561-11.541,27.908-19.023
	c8.624-7.729,16.15-16.485,22.369-26.029c6.42-9.853,11.495-20.429,15.082-31.434c3.698-11.352,5.888-23.061,6.504-34.803
	c0.636-12.107-0.303-24.166-2.792-35.842c-2.563-12.028-6.661-23.601-12.179-34.399c-5.682-11.116-12.747-21.38-20.995-30.508
	c-8.495-9.396-18.118-17.595-28.606-24.367c-10.794-6.969-22.382-12.468-34.439-16.343c-12.404-3.987-25.201-6.324-38.034-6.946
	c-13.189-0.645-26.331,0.435-39.076,3.202c-13.085,2.842-25.675,7.355-37.417,13.412c-12.064,6.223-23.201,13.951-33.104,22.969
	c-10.171,9.261-19.041,19.753-26.366,31.183c-7.518,11.734-13.439,24.332-17.604,37.447c-4.274,13.459-6.759,27.343-7.387,41.266
	c-0.644,14.283,0.571,28.519,3.614,42.308c3.121,14.143,8.049,27.748,14.647,40.437c6.766,13.01,15.158,25.021,24.943,35.699
	c10.03,10.944,21.389,20.485,33.764,28.359c12.677,8.068,26.288,14.416,40.453,18.866c14.51,4.558,29.48,7.192,44.495,7.825
	c15.385,0.636,30.719-0.711,45.545-4.027c15.195-3.4,29.816-8.744,43.452-15.885c13.955-7.305,26.839-16.361,38.293-26.917
	c11.722-10.803,21.934-23.03,30.355-36.341c8.616-13.626,15.386-28.25,20.123-43.462c4.844-15.561,7.622-31.618,8.261-47.726
	c0.651-16.468-0.843-32.88-4.442-48.778c-3.68-16.252-9.439-31.887-17.12-46.469c-7.853-14.905-17.574-28.661-28.894-40.887
	c-11.569-12.492-24.664-23.375-38.923-32.347c-14.565-9.164-30.198-16.358-46.468-21.38c-16.614-5.13-33.759-8.056-50.958-8.698
	c-17.56-0.657-35.056,0.978-52.012,4.857c-17.305,3.958-33.955,10.134-49.486,18.359c-15.849,8.393-30.478,18.779-43.48,30.871
	c-13.262,12.334-24.816,26.297-34.338,41.501c-9.712,15.509-17.329,32.156-22.636,49.478c-5.416,17.669-8.489,35.901-9.133,54.189
	c-0.658,18.656,1.116,37.243,5.272,55.244c4.238,18.359,10.833,36.023,19.601,52.502c8.939,16.801,19.99,32.301,32.846,46.07
	c13.108,14.04,27.941,26.264,44.085,36.332c16.45,10.26,34.109,18.299,52.485,23.892c18.72,5.699,38.038,8.919,57.421,9.568
	c19.738,0.66,39.415-1.255,58.48-5.69c19.412-4.517,38.091-11.528,55.515-20.838c17.741-9.48,34.113-21.198,48.664-34.828
	c14.812-13.877,27.706-29.578,38.322-46.665c10.807-17.392,19.268-36.062,25.147-55.492c5.987-19.779,9.352-40.185,10.001-60.652
	c0.663-20.835-1.392-41.598-6.107-61.713c-4.797-20.471-12.226-40.163-22.079-58.53c-10.024-18.691-22.407-35.935-36.805-51.253
	c-14.65-15.59-31.219-29.153-49.246-40.314c-18.337-11.356-38.021-20.238-58.504-26.403c-20.83-6.269-42.322-9.78-63.882-10.434
	c-21.89-0.669-43.746,1.524-64.944,6.526c-21.523,5.077-42.231,12.923-61.547,23.318c-19.634,10.567-37.751,23.616-53.845,38.784
	c-16.358,15.416-30.592,32.854-42.305,51.829c-11.902,19.284-21.206,39.98-27.656,61.513c-6.553,21.881-10.208,44.461-10.866,67.113
	c-0.667,23.014,1.669,45.953,6.946,68.178c5.358,22.58,13.622,44.302,24.561,64.56c11.107,20.576,24.821,39.565,40.761,56.437
	c16.189,17.131,34.496,32.035,54.412,44.293c20.225,12.45,41.932,22.176,64.522,28.912c22.938,6.838,46.605,10.638,70.346,11.298
	c24.075,0.677,48.101-1.801,71.41-7.365c23.635-5.64,46.372-14.322,67.577-25.801c21.526-11.655,41.386-26.036,59.025-42.744
	c17.906-16.957,33.477-36.132,46.284-56.993c12.999-21.177,23.149-43.896,30.164-67.53c7.123-23.987,11.069-48.742,11.731-73.578
	c0.67-25.196-1.948-50.31-7.784-74.644C841.462,325.805,832.363,302.055,820.338,279.904z"/>
</svg>
