  0
SECTION
  2
HEADER
  9
$ACADVER
  1
AC1024
  9
$ACADMAINTVER
 70
     6
  9
$DWGCODEPAGE
  3
ANSI_1252
  9
$INSBASE
 10
0.0
 20
0.0
 30
0.0
  9
$EXTMIN
 10
1.000000000000000E+20
 20
1.000000000000000E+20
 30
1.000000000000000E+20
  9
$EXTMAX
 10
-1.000000000000000E+20
 20
-1.000000000000000E+20
 30
-1.000000000000000E+20
  9
$LIMMIN
 10
0.0
 20
0.0
  9
$LIMMAX
 10
12.0
 20
9.0
  9
$ORTHOMODE
 70
     0
  9
$REGENMODE
 70
     1
  9
$FILLMODE
 70
     1
  9
$QTEXTMODE
 70
     0
  9
$MIRRTEXT
 70
     1
  9
$LTSCALE
 40
1.0
  9
$ATTMODE
 70
     1
  9
$TEXTSIZE
 40
0.2
  9
$TRACEWID
 40
0.05
  9
$TEXTSTYLE
  7
Standard
  9
$CLAYER
  8
0
  9
$CELTYPE
  6
ByLayer
  9
$CECOLOR
 62
   256
  9
$CELTSCALE
 40
1.0
  9
$DISPSILH
 70
     0
  9
$DIMSCALE
 40
1.0
  9
$DIMASZ
 40
0.18
  9
$DIMEXO
 40
0.0625
  9
$DIMDLI
 40
0.38
  9
$DIMRND
 40
0.0
  9
$DIMDLE
 40
0.0
  9
$DIMEXE
 40
0.18
  9
$DIMTP
 40
0.0
  9
$DIMTM
 40
0.0
  9
$DIMTXT
 40
0.18
  9
$DIMCEN
 40
0.09
  9
$DIMTSZ
 40
0.0
  9
$DIMTOL
 70
     0
  9
$DIMLIM
 70
     0
  9
$DIMTIH
 70
     1
  9
$DIMTOH
 70
     1
  9
$DIMSE1
 70
     0
  9
$DIMSE2
 70
     0
  9
$DIMTAD
 70
     0
  9
$DIMZIN
 70
     0
  9
$DIMBLK
  1

  9
$DIMASO
 70
     1
  9
$DIMSHO
 70
     1
  9
$DIMPOST
  1

  9
$DIMAPOST
  1

  9
$DIMALT
 70
     0
  9
$DIMALTD
 70
     2
  9
$DIMALTF
 40
25.4
  9
$DIMLFAC
 40
1.0
  9
$DIMTOFL
 70
     0
  9
$DIMTVP
 40
0.0
  9
$DIMTIX
 70
     0
  9
$DIMSOXD
 70
     0
  9
$DIMSAH
 70
     0
  9
$DIMBLK1
  1

  9
$DIMBLK2
  1

  9
$DIMSTYLE
  2
Standard
  9
$DIMCLRD
 70
     0
  9
$DIMCLRE
 70
     0
  9
$DIMCLRT
 70
     0
  9
$DIMTFAC
 40
1.0
  9
$DIMGAP
 40
0.09
  9
$DIMJUST
 70
     0
  9
$DIMSD1
 70
     0
  9
$DIMSD2
 70
     0
  9
$DIMTOLJ
 70
     1
  9
$DIMTZIN
 70
     0
  9
$DIMALTZ
 70
     0
  9
$DIMALTTZ
 70
     0
  9
$DIMUPT
 70
     0
  9
$DIMDEC
 70
     4
  9
$DIMTDEC
 70
     4
  9
$DIMALTU
 70
     2
  9
$DIMALTTD
 70
     2
  9
$DIMTXSTY
  7
Standard
  9
$DIMAUNIT
 70
     0
  9
$DIMADEC
 70
     0
  9
$DIMALTRND
 40
0.0
  9
$DIMAZIN
 70
     0
  9
$DIMDSEP
 70
    46
  9
$DIMATFIT
 70
     3
  9
$DIMFRAC
 70
     0
  9
$DIMLDRBLK
  1

  9
$DIMLUNIT
 70
     2
  9
$DIMLWD
 70
    -2
  9
$DIMLWE
 70
    -2
  9
$DIMTMOVE
 70
     0
  9
$DIMFXL
 40
1.0
  9
$DIMFXLON
 70
     0
  9
$DIMJOGANG
 40
0.7853981633974483
  9
$DIMTFILL
 70
     0
  9
$DIMTFILLCLR
 70
     0
  9
$DIMARCSYM
 70
     0
  9
$DIMLTYPE
  6

  9
$DIMLTEX1
  6

  9
$DIMLTEX2
  6

  9
$DIMTXTDIRECTION
 70
     0
  9
$LUNITS
 70
     2
  9
$LUPREC
 70
     4
  9
$SKETCHINC
 40
0.1
  9
$FILLETRAD
 40
0.5
  9
$AUNITS
 70
     0
  9
$AUPREC
 70
     0
  9
$MENU
  1
.
  9
$ELEVATION
 40
0.0
  9
$PELEVATION
 40
0.0
  9
$THICKNESS
 40
0.0
  9
$LIMCHECK
 70
     0
  9
$CHAMFERA
 40
0.5
  9
$CHAMFERB
 40
0.5
  9
$CHAMFERC
 40
1.0
  9
$CHAMFERD
 40
0.0
  9
$SKPOLY
 70
     0
  9
$TDCREATE
 40
2457543.377994086
  9
$TDUCREATE
 40
2457543.294660752
  9
$TDUPDATE
 40
2457543.377994121
  9
$TDUUPDATE
 40
2457543.294660787
  9
$TDINDWG
 40
0.0000000116
  9
$TDUSRTIMER
 40
0.0000000116
  9
$USRTIMER
 70
     1
  9
$ANGBASE
 50
0.0
  9
$ANGDIR
 70
     0
  9
$PDMODE
 70
     0
  9
$PDSIZE
 40
0.0
  9
$PLINEWID
 40
0.0
  9
$SPLFRAME
 70
     0
  9
$SPLINETYPE
 70
     6
  9
$SPLINESEGS
 70
     8
  9
$HANDSEED
  5
47
  9
$SURFTAB1
 70
     6
  9
$SURFTAB2
 70
     6
  9
$SURFTYPE
 70
     6
  9
$SURFU
 70
     6
  9
$SURFV
 70
     6
  9
$UCSBASE
  2

  9
$UCSNAME
  2

  9
$UCSORG
 10
0.0
 20
0.0
 30
0.0
  9
$UCSXDIR
 10
1.0
 20
0.0
 30
0.0
  9
$UCSYDIR
 10
0.0
 20
1.0
 30
0.0
  9
$UCSORTHOREF
  2

  9
$UCSORTHOVIEW
 70
     0
  9
$UCSORGTOP
 10
0.0
 20
0.0
 30
0.0
  9
$UCSORGBOTTOM
 10
0.0
 20
0.0
 30
0.0
  9
$UCSORGLEFT
 10
0.0
 20
0.0
 30
0.0
  9
$UCSORGRIGHT
 10
0.0
 20
0.0
 30
0.0
  9
$UCSORGFRONT
 10
0.0
 20
0.0
 30
0.0
  9
$UCSORGBACK
 10
0.0
 20
0.0
 30
0.0
  9
$PUCSBASE
  2

  9
$PUCSNAME
  2

  9
$PUCSORG
 10
0.0
 20
0.0
 30
0.0
  9
$PUCSXDIR
 10
1.0
 20
0.0
 30
0.0
  9
$PUCSYDIR
 10
0.0
 20
1.0
 30
0.0
  9
$PUCSORTHOREF
  2

  9
$PUCSORTHOVIEW
 70
     0
  9
$PUCSORGTOP
 10
0.0
 20
0.0
 30
0.0
  9
$PUCSORGBOTTOM
 10
0.0
 20
0.0
 30
0.0
  9
$PUCSORGLEFT
 10
0.0
 20
0.0
 30
0.0
  9
$PUCSORGRIGHT
 10
0.0
 20
0.0
 30
0.0
  9
$PUCSORGFRONT
 10
0.0
 20
0.0
 30
0.0
  9
$PUCSORGBACK
 10
0.0
 20
0.0
 30
0.0
  9
$USERI1
 70
     0
  9
$USERI2
 70
     0
  9
$USERI3
 70
     0
  9
$USERI4
 70
     0
  9
$USERI5
 70
     0
  9
$USERR1
 40
0.0
  9
$USERR2
 40
0.0
  9
$USERR3
 40
0.0
  9
$USERR4
 40
0.0
  9
$USERR5
 40
0.0
  9
$WORLDVIEW
 70
     1
  9
$SHADEDGE
 70
     3
  9
$SHADEDIF
 70
    70
  9
$TILEMODE
 70
     1
  9
$MAXACTVP
 70
    64
  9
$PINSBASE
 10
0.0
 20
0.0
 30
0.0
  9
$PLIMCHECK
 70
     0
  9
$PEXTMIN
 10
1.000000000000000E+20
 20
1.000000000000000E+20
 30
1.000000000000000E+20
  9
$PEXTMAX
 10
-1.000000000000000E+20
 20
-1.000000000000000E+20
 30
-1.000000000000000E+20
  9
$PLIMMIN
 10
0.0
 20
0.0
  9
$PLIMMAX
 10
12.0
 20
9.0
  9
$UNITMODE
 70
     0
  9
$VISRETAIN
 70
     1
  9
$PLINEGEN
 70
     0
  9
$PSLTSCALE
 70
     1
  9
$TREEDEPTH
 70
  3020
  9
$CMLSTYLE
  2
Standard
  9
$CMLJUST
 70
     0
  9
$CMLSCALE
 40
1.0
  9
$PROXYGRAPHICS
 70
     1
  9
$MEASUREMENT
 70
     0
  9
$CELWEIGHT
370
    -1
  9
$ENDCAPS
280
     0
  9
$JOINSTYLE
280
     0
  9
$LWDISPLAY
290
     1
  9
$INSUNITS
 70
     1
  9
$HYPERLINKBASE
  1

  9
$STYLESHEET
  1

  9
$XEDIT
290
     1
  9
$CEPSNTYPE
380
     0
  9
$PSTYLEMODE
290
     1
  9
$FINGERPRINTGUID
  2
{6DD4CE83-B797-4590-9BFA-1789F019B7E5}
  9
$VERSIONGUID
  2
{FAEB1C32-E019-11D5-929B-00C0DF256EC4}
  9
$EXTNAMES
290
     1
  9
$PSVPSCALE
 40
0.0
  9
$OLESTARTUP
290
     0
  9
$SORTENTS
280
   127
  9
$INDEXCTL
280
     0
  9
$HIDETEXT
280
     1
  9
$XCLIPFRAME
280
     2
  9
$HALOGAP
280
     0
  9
$OBSCOLOR
 70
   257
  9
$OBSLTYPE
280
     0
  9
$INTERSECTIONDISPLAY
280
     0
  9
$INTERSECTIONCOLOR
 70
   257
  9
$DIMASSOC
280
     2
  9
$PROJECTNAME
  1

  9
$CAMERADISPLAY
290
     0
  9
$LENSLENGTH
 40
50.0
  9
$CAMERAHEIGHT
 40
0.0
  9
$STEPSPERSEC
 40
2.0
  9
$STEPSIZE
 40
6.0
  9
$3DDWFPREC
 40
2.0
  9
$PSOLWIDTH
 40
0.25
  9
$PSOLHEIGHT
 40
4.0
  9
$LOFTANG1
 40
1.570796326794897
  9
$LOFTANG2
 40
1.570796326794897
  9
$LOFTMAG1
 40
0.0
  9
$LOFTMAG2
 40
0.0
  9
$LOFTPARAM
 70
     7
  9
$LOFTNORMALS
280
     1
  9
$LATITUDE
 40
37.795
  9
$LONGITUDE
 40
-122.394
  9
$NORTHDIRECTION
 40
0.0
  9
$TIMEZONE
 70
 -8000
  9
$LIGHTGLYPHDISPLAY
280
     1
  9
$TILEMODELIGHTSYNCH
280
     1
  9
$CMATERIAL
347
3C
  9
$SOLIDHIST
280
     1
  9
$SHOWHIST
280
     1
  9
$DWFFRAME
280
     2
  9
$DGNFRAME
280
     2
  9
$REALWORLDSCALE
290
     1
  9
$INTERFERECOLOR
 62
   256
  9
$CSHADOW
280
     0
  9
$SHADOWPLANELOCATION
 40
0.0
  0
ENDSEC
  0
SECTION
  2
CLASSES
  0
CLASS
  1
ACDBDICTIONARYWDFLT
  2
AcDbDictionaryWithDefault
  3
ObjectDBX Classes
 90
        0
 91
        4
280
     0
281
     0
  0
CLASS
  1
VISUALSTYLE
  2
AcDbVisualStyle
  3
ObjectDBX Classes
 90
     4095
 91
        4
280
     0
281
     0
  0
CLASS
  1
MATERIAL
  2
AcDbMaterial
  3
ObjectDBX Classes
 90
     1153
 91
        4
280
     0
281
     0
  0
CLASS
  1
SUN
  2
AcDbSun
  3
SCENEOE
 90
     1024
 91
        4
280
     0
281
     0
  0
ENDSEC
  0
SECTION
  2
TABLES
  0
TABLE
  2
VPORT
  5
8
330
0
100
AcDbSymbolTable
 70
     1
  0
VPORT
  5
29
330
8
100
AcDbSymbolTableRecord
100
AcDbViewportTableRecord
  2
*Active
 70
     0
 10
0.0
 20
0.0
 11
1.0
 21
1.0
 12
0.0
 22
0.0
 13
0.0
 23
0.0
 14
0.5
 24
0.5
 15
0.5
 25
0.5
 16
0.0
 26
0.0
 36
1.0
 17
1000.001527527778
 27
-149.9993471847224
 37
0.0
 40
400.0006110111108
 41
0.7499955902845163
 42
50.0
 43
0.0
 44
0.0
 50
0.0
 51
0.0
 71
     0
 72
   100
 73
     1
 74
     3
 75
     0
 76
     0
 77
     0
 78
     0
281
     0
 65
     1
110
0.0
120
0.0
130
0.0
111
1.0
121
0.0
131
0.0
112
0.0
122
1.0
132
0.0
 79
     0
146
0.0
 60
     3
 61
     5
292
     1
282
     1
141
0.0
142
0.0
 63
   250
361
3F
  0
ENDTAB
  0
TABLE
  2
LTYPE
  5
5
330
0
100
AcDbSymbolTable
 70
     1
  0
LTYPE
  5
14
330
5
100
AcDbSymbolTableRecord
100
AcDbLinetypeTableRecord
  2
ByBlock
 70
     0
  3

 72
    65
 73
     0
 40
0.0
  0
LTYPE
  5
15
330
5
100
AcDbSymbolTableRecord
100
AcDbLinetypeTableRecord
  2
ByLayer
 70
     0
  3

 72
    65
 73
     0
 40
0.0
  0
LTYPE
  5
16
330
5
100
AcDbSymbolTableRecord
100
AcDbLinetypeTableRecord
  2
Continuous
 70
     0
  3
Solid line
 72
    65
 73
     0
 40
0.0
  0
ENDTAB
  0
TABLE
  2
LAYER
  5
2
330
0
100
AcDbSymbolTable
 70
     4
  0
LAYER
  5
10
330
2
100
AcDbSymbolTableRecord
100
AcDbLayerTableRecord
  2
0
 70
     0
 62
     7
  6
Continuous
370
    -3
390
F
347
3E
  0
LAYER
  5
40
330
2
100
AcDbSymbolTableRecord
100
AcDbLayerTableRecord
  2
Ebene 1
 70
     1
 62
     7
  6
Continuous
370
    -3
390
F
347
3E
  0
LAYER
  5
41
330
2
100
AcDbSymbolTableRecord
100
AcDbLayerTableRecord
  2
Ebene 3
 70
     0
 62
     7
  6
Continuous
370
    -3
390
F
347
3E
  0
LAYER
  5
43
330
2
100
AcDbSymbolTableRecord
100
AcDbLayerTableRecord
  2
Ebene 2
 70
     0
 62
     7
  6
Continuous
370
    -3
390
F
347
3E
  0
ENDTAB
  0
TABLE
  2
STYLE
  5
3
330
0
100
AcDbSymbolTable
 70
     1
  0
STYLE
  5
11
330
3
100
AcDbSymbolTableRecord
100
AcDbTextStyleTableRecord
  2
Standard
 70
     0
 40
0.0
 41
1.0
 50
0.0
 71
     0
 42
0.2
  3
txt
  4

  0
ENDTAB
  0
TABLE
  2
VIEW
  5
6
330
0
100
AcDbSymbolTable
 70
     0
  0
ENDTAB
  0
TABLE
  2
UCS
  5
7
330
0
100
AcDbSymbolTable
 70
     0
  0
ENDTAB
  0
TABLE
  2
APPID
  5
9
330
0
100
AcDbSymbolTable
 70
     1
  0
APPID
  5
12
330
9
100
AcDbSymbolTableRecord
100
AcDbRegAppTableRecord
  2
ACAD
 70
     0
  0
ENDTAB
  0
TABLE
  2
DIMSTYLE
  5
A
330
0
100
AcDbSymbolTable
 70
     1
100
AcDbDimStyleTable
  0
DIMSTYLE
105
27
330
A
100
AcDbSymbolTableRecord
100
AcDbDimStyleTableRecord
  2
Standard
 70
     0
178
     0
340
11
  0
ENDTAB
  0
TABLE
  2
BLOCK_RECORD
  5
1
330
0
100
AcDbSymbolTable
 70
     1
  0
BLOCK_RECORD
  5
1F
330
1
100
AcDbSymbolTableRecord
100
AcDbBlockTableRecord
  2
*Model_Space
340
22
 70
     0
280
     1
281
     0
  0
BLOCK_RECORD
  5
1B
330
1
100
AcDbSymbolTableRecord
100
AcDbBlockTableRecord
  2
*Paper_Space
340
1E
 70
     0
280
     1
281
     0
  0
BLOCK_RECORD
  5
23
330
1
100
AcDbSymbolTableRecord
100
AcDbBlockTableRecord
  2
*Paper_Space0
340
26
 70
     0
280
     1
281
     0
  0
ENDTAB
  0
ENDSEC
  0
SECTION
  2
BLOCKS
  0
BLOCK
  5
20
330
1F
100
AcDbEntity
  8
0
100
AcDbBlockBegin
  2
*Model_Space
 70
     0
 10
0.0
 20
0.0
 30
0.0
  3
*Model_Space
  1

  0
ENDBLK
  5
21
330
1F
100
AcDbEntity
  8
0
100
AcDbBlockEnd
  0
BLOCK
  5
1C
330
1B
100
AcDbEntity
 67
     1
  8
0
100
AcDbBlockBegin
  2
*Paper_Space
 70
     0
 10
0.0
 20
0.0
 30
0.0
  3
*Paper_Space
  1

  0
ENDBLK
  5
1D
330
1B
100
AcDbEntity
 67
     1
  8
0
100
AcDbBlockEnd
  0
BLOCK
  5
24
330
23
100
AcDbEntity
  8
0
100
AcDbBlockBegin
  2
*Paper_Space0
 70
     0
 10
0.0
 20
0.0
 30
0.0
  3
*Paper_Space0
  1

  0
ENDBLK
  5
25
330
23
100
AcDbEntity
  8
0
100
AcDbBlockEnd
  0
ENDSEC
  0
SECTION
  2
ENTITIES
  0
SPLINE
  5
42
330
1F
100
AcDbEntity
  8
Ebene 3
 62
   250
420
  1842203
370
    35
100
AcDbSpline
210
0.0
220
0.0
230
1.0
 70
     8
 71
     3
 72
    62
 73
    58
 74
     0
 42
0.0000000001
 43
0.0000000001
 12
1.0
 22
0.0
 32
0.0
 13
1.0
 23
0.0
 33
0.0
 40
0.0
 40
0.0
 40
0.0
 40
0.0
 40
1.0
 40
1.0
 40
1.0
 40
2.0
 40
2.0
 40
2.0
 40
3.0
 40
3.0
 40
3.0
 40
4.0
 40
4.0
 40
4.0
 40
5.0
 40
5.0
 40
5.0
 40
6.0
 40
6.0
 40
6.0
 40
7.0
 40
7.0
 40
7.0
 40
8.0
 40
8.0
 40
8.0
 40
9.0
 40
9.0
 40
9.0
 40
10.0
 40
10.0
 40
10.0
 40
11.0
 40
11.0
 40
11.0
 40
12.0
 40
12.0
 40
12.0
 40
13.0
 40
13.0
 40
13.0
 40
14.0
 40
14.0
 40
14.0
 40
15.0
 40
15.0
 40
15.0
 40
16.0
 40
16.0
 40
16.0
 40
17.0
 40
17.0
 40
17.0
 40
18.0
 40
18.0
 40
18.0
 40
19.0
 40
19.0
 40
19.0
 40
19.0
 10
895.7884921532446
 20
-146.7520242959943
 30
0.0
 10
895.5297654823024
 20
-155.6615364533264
 30
0.0
 10
896.4349643210518
 20
-164.5463515823986
 30
0.0
 10
898.4790255998396
 20
-173.1593917413781
 30
0.0
 10
900.5526285724114
 20
-181.895335681794
 30
0.0
 10
903.7511413483027
 20
-190.3025744492234
 30
0.0
 10
907.9862833557092
 20
-198.1473152512987
 30
0.0
 10
912.2823174258159
 20
-206.104473825427
 30
0.0
 10
917.5874199635521
 20
-213.4487068490358
 30
0.0
 10
923.7537102452117
 20
-219.9751818636803
 30
0.0
 10
930.0089701177799
 20
-226.5945667971925
 30
0.0
 10
937.0848517349344
 20
-232.3547449166835
 30
0.0
 10
944.7862765648252
 20
-237.0948733266855
 30
0.0
 10
952.5965664120462
 20
-241.9024394808113
 30
0.0
 10
960.981842695759
 20
-245.6589715979277
 30
0.0
 10
969.7093030885425
 20
-248.2610522179369
 30
0.0
 10
978.5596672627602
 20
-250.899629318243
 30
0.0
 10
987.6957159800943
 20
-252.3667662943302
 30
0.0
 10
996.8637179580559
 20
-252.6215311054644
 30
0.0
 10
1006.160135870228
 20
-252.8753054516466
 30
0.0
 10
1015.429595910227
 20
-251.9226719544347
 30
0.0
 10
1024.410270821176
 20
-249.779155075359
 30
0.0
 10
1033.518931029402
 20
-247.6056658655617
 30
0.0
 10
1042.283253943878
 20
-244.2592508341175
 30
0.0
 10
1050.460704842441
 20
-239.831850966789
 30
0.0
 10
1058.750638108598
 20
-235.3434944412184
 30
0.0
 10
1066.401506162241
 20
-229.8025966493636
 30
0.0
 10
1073.20074661193
 20
-223.3635409326574
 30
0.0
 10
1080.092401748013
 20
-216.836570685537
 30
0.0
 10
1086.087298529281
 20
-209.453386551098
 30
0.0
 10
1091.019813990288
 20
-201.4187994559387
 30
0.0
 10
1096.019681068031
 20
-193.2748305791227
 30
0.0
 10
1099.924524545787
 20
-184.5318887885024
 30
0.0
 10
1102.626082297935
 20
-175.4327887202477
 30
0.0
 10
1103.862010303268
 20
-171.2702305683478
 30
0.0
 10
1104.846618592953
 20
-167.0466296308186
 30
0.0
 10
1105.581199077793
 20
-162.7869413180815
 30
0.0
 10
1106.284601448496
 20
-157.7865574760156
 30
0.0
 10
1106.658308181256
 20
-152.1327897433253
 30
0.0
 10
1106.664681607904
 20
-146.9305448376706
 30
0.0
 10
1106.664767735293
 20
-146.9225565225142
 30
0.0
 10
1106.665887391324
 20
-146.9148696532127
 30
0.0
 10
1106.665887391324
 20
-146.9068813380563
 30
0.0
 10
1106.665887391324
 20
-146.901261526046
 30
0.0
 10
1106.665026117453
 20
-146.8958570325035
 30
0.0
 10
1106.665026117453
 20
-146.8902587523399
 30
0.0
 10
1106.665026117453
 20
-146.8588437878838
 30
0.0
 10
1106.665887391324
 20
-146.8265244858628
 30
0.0
 10
1106.665887391324
 20
-146.7951310532538
 30
0.0
 10
1106.665887391324
 20
-146.7951310532538
 30
0.0
 10
1106.660202983773
 20
-146.7952171806409
 30
0.0
 10
1106.660202983773
 20
-146.7952171806409
 30
0.0
 10
1106.600516704493
 20
-144.5755421594945
 30
0.0
 10
1104.786501676735
 20
-142.793437328668
 30
0.0
 10
1102.552443381936
 20
-142.793437328668
 30
0.0
 10
1100.280661291577
 20
-142.793437328668
 30
0.0
 10
1098.438999372547
 20
-144.6350777158486
 30
0.0
 10
1098.438999372547
 20
-146.9068813380563
 30
0.0
  0
SPLINE
  5
44
330
1F
100
AcDbEntity
  8
Ebene 2
 62
   250
420
  1842203
370
    35
100
AcDbSpline
210
0.0
220
0.0
230
1.0
 70
    11
 71
     3
 72
   722
 73
   718
 74
     0
 42
0.0000000001
 43
0.0000000001
 12
1.0
 22
0.0
 32
0.0
 13
1.0
 23
0.0
 33
0.0
 40
0.0
 40
0.0
 40
0.0
 40
0.0
 40
1.0
 40
1.0
 40
1.0
 40
2.0
 40
2.0
 40
2.0
 40
3.0
 40
3.0
 40
3.0
 40
4.0
 40
4.0
 40
4.0
 40
5.0
 40
5.0
 40
5.0
 40
6.0
 40
6.0
 40
6.0
 40
7.0
 40
7.0
 40
7.0
 40
8.0
 40
8.0
 40
8.0
 40
9.0
 40
9.0
 40
9.0
 40
10.0
 40
10.0
 40
10.0
 40
11.0
 40
11.0
 40
11.0
 40
12.0
 40
12.0
 40
12.0
 40
13.0
 40
13.0
 40
13.0
 40
14.0
 40
14.0
 40
14.0
 40
15.0
 40
15.0
 40
15.0
 40
16.0
 40
16.0
 40
16.0
 40
17.0
 40
17.0
 40
17.0
 40
18.0
 40
18.0
 40
18.0
 40
19.0
 40
19.0
 40
19.0
 40
20.0
 40
20.0
 40
20.0
 40
21.0
 40
21.0
 40
21.0
 40
22.0
 40
22.0
 40
22.0
 40
23.0
 40
23.0
 40
23.0
 40
24.0
 40
24.0
 40
24.0
 40
25.0
 40
25.0
 40
25.0
 40
26.0
 40
26.0
 40
26.0
 40
27.0
 40
27.0
 40
27.0
 40
28.0
 40
28.0
 40
28.0
 40
29.0
 40
29.0
 40
29.0
 40
30.0
 40
30.0
 40
30.0
 40
31.0
 40
31.0
 40
31.0
 40
32.0
 40
32.0
 40
32.0
 40
33.0
 40
33.0
 40
33.0
 40
34.0
 40
34.0
 40
34.0
 40
35.0
 40
35.0
 40
35.0
 40
36.0
 40
36.0
 40
36.0
 40
37.0
 40
37.0
 40
37.0
 40
38.0
 40
38.0
 40
38.0
 40
39.0
 40
39.0
 40
39.0
 40
40.0
 40
40.0
 40
40.0
 40
41.0
 40
41.0
 40
41.0
 40
42.0
 40
42.0
 40
42.0
 40
43.0
 40
43.0
 40
43.0
 40
44.0
 40
44.0
 40
44.0
 40
45.0
 40
45.0
 40
45.0
 40
46.0
 40
46.0
 40
46.0
 40
47.0
 40
47.0
 40
47.0
 40
48.0
 40
48.0
 40
48.0
 40
49.0
 40
49.0
 40
49.0
 40
50.0
 40
50.0
 40
50.0
 40
51.0
 40
51.0
 40
51.0
 40
52.0
 40
52.0
 40
52.0
 40
53.0
 40
53.0
 40
53.0
 40
54.0
 40
54.0
 40
54.0
 40
55.0
 40
55.0
 40
55.0
 40
56.0
 40
56.0
 40
56.0
 40
57.0
 40
57.0
 40
57.0
 40
58.0
 40
58.0
 40
58.0
 40
59.0
 40
59.0
 40
59.0
 40
60.0
 40
60.0
 40
60.0
 40
61.0
 40
61.0
 40
61.0
 40
62.0
 40
62.0
 40
62.0
 40
63.0
 40
63.0
 40
63.0
 40
64.0
 40
64.0
 40
64.0
 40
65.0
 40
65.0
 40
65.0
 40
66.0
 40
66.0
 40
66.0
 40
67.0
 40
67.0
 40
67.0
 40
68.0
 40
68.0
 40
68.0
 40
69.0
 40
69.0
 40
69.0
 40
70.0
 40
70.0
 40
70.0
 40
71.0
 40
71.0
 40
71.0
 40
72.0
 40
72.0
 40
72.0
 40
73.0
 40
73.0
 40
73.0
 40
74.0
 40
74.0
 40
74.0
 40
75.0
 40
75.0
 40
75.0
 40
76.0
 40
76.0
 40
76.0
 40
77.0
 40
77.0
 40
77.0
 40
78.0
 40
78.0
 40
78.0
 40
79.0
 40
79.0
 40
79.0
 40
80.0
 40
80.0
 40
80.0
 40
81.0
 40
81.0
 40
81.0
 40
82.0
 40
82.0
 40
82.0
 40
83.0
 40
83.0
 40
83.0
 40
84.0
 40
84.0
 40
84.0
 40
85.0
 40
85.0
 40
85.0
 40
86.0
 40
86.0
 40
86.0
 40
87.0
 40
87.0
 40
87.0
 40
88.0
 40
88.0
 40
88.0
 40
89.0
 40
89.0
 40
89.0
 40
90.0
 40
90.0
 40
90.0
 40
91.0
 40
91.0
 40
91.0
 40
92.0
 40
92.0
 40
92.0
 40
93.0
 40
93.0
 40
93.0
 40
94.0
 40
94.0
 40
94.0
 40
95.0
 40
95.0
 40
95.0
 40
96.0
 40
96.0
 40
96.0
 40
97.0
 40
97.0
 40
97.0
 40
98.0
 40
98.0
 40
98.0
 40
99.0
 40
99.0
 40
99.0
 40
100.0
 40
100.0
 40
100.0
 40
101.0
 40
101.0
 40
101.0
 40
102.0
 40
102.0
 40
102.0
 40
103.0
 40
103.0
 40
103.0
 40
104.0
 40
104.0
 40
104.0
 40
105.0
 40
105.0
 40
105.0
 40
106.0
 40
106.0
 40
106.0
 40
107.0
 40
107.0
 40
107.0
 40
108.0
 40
108.0
 40
108.0
 40
109.0
 40
109.0
 40
109.0
 40
110.0
 40
110.0
 40
110.0
 40
111.0
 40
111.0
 40
111.0
 40
112.0
 40
112.0
 40
112.0
 40
113.0
 40
113.0
 40
113.0
 40
114.0
 40
114.0
 40
114.0
 40
115.0
 40
115.0
 40
115.0
 40
116.0
 40
116.0
 40
116.0
 40
117.0
 40
117.0
 40
117.0
 40
118.0
 40
118.0
 40
118.0
 40
119.0
 40
119.0
 40
119.0
 40
120.0
 40
120.0
 40
120.0
 40
121.0
 40
121.0
 40
121.0
 40
122.0
 40
122.0
 40
122.0
 40
123.0
 40
123.0
 40
123.0
 40
124.0
 40
124.0
 40
124.0
 40
125.0
 40
125.0
 40
125.0
 40
126.0
 40
126.0
 40
126.0
 40
127.0
 40
127.0
 40
127.0
 40
128.0
 40
128.0
 40
128.0
 40
129.0
 40
129.0
 40
129.0
 40
130.0
 40
130.0
 40
130.0
 40
131.0
 40
131.0
 40
131.0
 40
132.0
 40
132.0
 40
132.0
 40
133.0
 40
133.0
 40
133.0
 40
134.0
 40
134.0
 40
134.0
 40
135.0
 40
135.0
 40
135.0
 40
136.0
 40
136.0
 40
136.0
 40
137.0
 40
137.0
 40
137.0
 40
138.0
 40
138.0
 40
138.0
 40
139.0
 40
139.0
 40
139.0
 40
140.0
 40
140.0
 40
140.0
 40
141.0
 40
141.0
 40
141.0
 40
142.0
 40
142.0
 40
142.0
 40
143.0
 40
143.0
 40
143.0
 40
144.0
 40
144.0
 40
144.0
 40
145.0
 40
145.0
 40
145.0
 40
146.0
 40
146.0
 40
146.0
 40
147.0
 40
147.0
 40
147.0
 40
148.0
 40
148.0
 40
148.0
 40
149.0
 40
149.0
 40
149.0
 40
150.0
 40
150.0
 40
150.0
 40
151.0
 40
151.0
 40
151.0
 40
152.0
 40
152.0
 40
152.0
 40
153.0
 40
153.0
 40
153.0
 40
154.0
 40
154.0
 40
154.0
 40
155.0
 40
155.0
 40
155.0
 40
156.0
 40
156.0
 40
156.0
 40
157.0
 40
157.0
 40
157.0
 40
158.0
 40
158.0
 40
158.0
 40
159.0
 40
159.0
 40
159.0
 40
160.0
 40
160.0
 40
160.0
 40
161.0
 40
161.0
 40
161.0
 40
162.0
 40
162.0
 40
162.0
 40
163.0
 40
163.0
 40
163.0
 40
164.0
 40
164.0
 40
164.0
 40
165.0
 40
165.0
 40
165.0
 40
166.0
 40
166.0
 40
166.0
 40
167.0
 40
167.0
 40
167.0
 40
168.0
 40
168.0
 40
168.0
 40
169.0
 40
169.0
 40
169.0
 40
170.0
 40
170.0
 40
170.0
 40
171.0
 40
171.0
 40
171.0
 40
172.0
 40
172.0
 40
172.0
 40
173.0
 40
173.0
 40
173.0
 40
174.0
 40
174.0
 40
174.0
 40
175.0
 40
175.0
 40
175.0
 40
176.0
 40
176.0
 40
176.0
 40
177.0
 40
177.0
 40
177.0
 40
178.0
 40
178.0
 40
178.0
 40
179.0
 40
179.0
 40
179.0
 40
180.0
 40
180.0
 40
180.0
 40
181.0
 40
181.0
 40
181.0
 40
182.0
 40
182.0
 40
182.0
 40
183.0
 40
183.0
 40
183.0
 40
184.0
 40
184.0
 40
184.0
 40
185.0
 40
185.0
 40
185.0
 40
186.0
 40
186.0
 40
186.0
 40
187.0
 40
187.0
 40
187.0
 40
188.0
 40
188.0
 40
188.0
 40
189.0
 40
189.0
 40
189.0
 40
190.0
 40
190.0
 40
190.0
 40
191.0
 40
191.0
 40
191.0
 40
192.0
 40
192.0
 40
192.0
 40
193.0
 40
193.0
 40
193.0
 40
194.0
 40
194.0
 40
194.0
 40
195.0
 40
195.0
 40
195.0
 40
196.0
 40
196.0
 40
196.0
 40
197.0
 40
197.0
 40
197.0
 40
198.0
 40
198.0
 40
198.0
 40
199.0
 40
199.0
 40
199.0
 40
200.0
 40
200.0
 40
200.0
 40
201.0
 40
201.0
 40
201.0
 40
202.0
 40
202.0
 40
202.0
 40
203.0
 40
203.0
 40
203.0
 40
204.0
 40
204.0
 40
204.0
 40
205.0
 40
205.0
 40
205.0
 40
206.0
 40
206.0
 40
206.0
 40
207.0
 40
207.0
 40
207.0
 40
208.0
 40
208.0
 40
208.0
 40
209.0
 40
209.0
 40
209.0
 40
210.0
 40
210.0
 40
210.0
 40
211.0
 40
211.0
 40
211.0
 40
212.0
 40
212.0
 40
212.0
 40
213.0
 40
213.0
 40
213.0
 40
214.0
 40
214.0
 40
214.0
 40
215.0
 40
215.0
 40
215.0
 40
216.0
 40
216.0
 40
216.0
 40
217.0
 40
217.0
 40
217.0
 40
218.0
 40
218.0
 40
218.0
 40
219.0
 40
219.0
 40
219.0
 40
220.0
 40
220.0
 40
220.0
 40
221.0
 40
221.0
 40
221.0
 40
222.0
 40
222.0
 40
222.0
 40
223.0
 40
223.0
 40
223.0
 40
224.0
 40
224.0
 40
224.0
 40
225.0
 40
225.0
 40
225.0
 40
226.0
 40
226.0
 40
226.0
 40
227.0
 40
227.0
 40
227.0
 40
228.0
 40
228.0
 40
228.0
 40
229.0
 40
229.0
 40
229.0
 40
230.0
 40
230.0
 40
230.0
 40
231.0
 40
231.0
 40
231.0
 40
232.0
 40
232.0
 40
232.0
 40
233.0
 40
233.0
 40
233.0
 40
234.0
 40
234.0
 40
234.0
 40
235.0
 40
235.0
 40
235.0
 40
236.0
 40
236.0
 40
236.0
 40
237.0
 40
237.0
 40
237.0
 40
238.0
 40
238.0
 40
238.0
 40
239.0
 40
239.0
 40
239.0
 40
239.0
 10
1086.129913736714
 20
-95.66224871469153
 30
0.0
 10
1081.827333985186
 20
-87.73581608592195
 30
0.0
 10
1076.519303116287
 20
-80.4223090076722
 30
0.0
 10
1070.353443471561
 20
-73.92531109127346
 30
0.0
 10
1064.099733891961
 20
-67.33688895343488
 30
0.0
 10
1057.028761535875
 20
-61.60717839714161
 30
0.0
 10
1049.335863317312
 20
-56.89579500259495
 30
0.0
 10
1041.53306655277
 20
-52.11744756455343
 30
0.0
 10
1033.160278740193
 20
-48.38839008393187
 30
0.0
 10
1024.450302206995
 20
-45.81251372145703
 30
0.0
 10
1015.616991255429
 20
-43.19968870990321
 30
0.0
 10
1006.500407327587
 20
-41.75625829712387
 30
0.0
 10
997.3538510690229
 20
-41.52197027228042
 30
0.0
 10
988.0744002521134
 20
-41.28819901175912
 30
0.0
 10
978.8269026958316
 20
-42.26079253093871
 30
0.0
 10
969.8806787397348
 20
-44.4158074161964
 30
0.0
 10
960.7995792953905
 20
-46.60329232640257
 30
0.0
 10
952.0636784186681
 20
-49.96043021754462
 30
0.0
 10
943.915166322181
 20
-54.39435423444829
 30
0.0
 10
935.6543441128747
 20
-58.88945022806192
 30
0.0
 10
928.0332761351792
 20
-64.43258733198213
 30
0.0
 10
921.2645247805347
 20
-70.86987743725247
 30
0.0
 10
914.4034448668853
 20
-77.39486675446857
 30
0.0
 10
908.4379175246266
 20
-84.77256026797819
 30
0.0
 10
903.5329628275022
 20
-92.79814705118197
 30
0.0
 10
898.5620345518353
 20
-100.9326419154139
 30
0.0
 10
894.6840628188637
 20
-109.662578470577
 30
0.0
 10
892.0075681363732
 20
-118.7454435263575
 30
0.0
 10
889.2945554417389
 20
-127.9509324495661
 30
0.0
 10
887.7999868928523
 20
-137.4509124412235
 30
0.0
 10
887.5646868712098
 20
-146.9818767604008
 30
0.0
 10
887.5646868712098
 20
-149.2451753031293
 30
0.0
 10
889.3994585992648
 20
-151.0799470311862
 30
0.0
 10
891.6628002056887
 20
-151.0799470311862
 30
0.0
 10
893.9260556847236
 20
-151.0799470311862
 30
0.0
 10
895.7608274127786
 20
-149.2451753031293
 30
0.0
 10
895.7608274127786
 20
-146.9818767604008
 30
0.0
 10
895.7608274127786
 20
-146.9719290471871
 30
0.0
 10
895.7594493745845
 20
-146.962325843522
 30
0.0
 10
895.7593632471993
 20
-146.9523781303083
 30
0.0
 10
895.7593632471993
 20
-146.9523781303083
 30
0.0
 10
895.7608274127786
 20
-146.9523781303083
 30
0.0
 10
895.7608274127786
 20
-146.9523781303083
 30
0.0
 10
896.0155922239128
 20
-138.1382520542241
 30
0.0
 10
897.4425507739032
 20
-129.1435814428663
 30
0.0
 10
899.9912324138911
 20
-120.6344539764606
 30
0.0
 10
902.5028792774125
 20
-112.2484456099587
 30
0.0
 10
906.1245359062814
 20
-104.1913792667581
 30
0.0
 10
910.7562945314255
 20
-96.68755219479513
 30
0.0
 10
915.3205292850588
 20
-89.2928700541745
 30
0.0
 10
920.8654104685684
 20
-82.49890490694689
 30
0.0
 10
927.2360810398924
 20
-76.49494321818128
 30
0.0
 10
933.5132172687919
 20
-70.57941282415203
 30
0.0
 10
940.5762659052659
 20
-65.49135130198654
 30
0.0
 10
948.2292010161999
 20
-61.37239513982183
 30
0.0
 10
955.7681895939573
 20
-57.31465401806066
 30
0.0
 10
963.8483165450623
 20
-54.25297612847267
 30
0.0
 10
972.2434974782933
 20
-52.27230460661541
 30
0.0
 10
980.51241566199
 20
-50.32160541547982
 30
0.0
 10
989.0469507075994
 20
-49.46564991032239
 30
0.0
 10
997.6050846572828
 20
-49.72241718320774
 30
0.0
 10
1006.034372035818
 20
-49.97817245929365
 30
0.0
 10
1014.434548357503
 20
-51.34966497197161
 30
0.0
 10
1022.572036148437
 20
-53.79889101166964
 30
0.0
 10
1030.586189520999
 20
-56.21116840228868
 30
0.0
 10
1038.285547293599
 20
-59.68520268961461
 30
0.0
 10
1045.455910654435
 20
-64.12511255992358
 30
0.0
 10
1052.51646159668
 20
-68.4963358389957
 30
0.0
 10
1059.003404140631
 20
-73.80568015054816
 30
0.0
 10
1064.736129155476
 20
-79.90580306704612
 30
0.0
 10
1070.379453942475
 20
-85.9112504532404
 30
0.0
 10
1075.231957060838
 20
-92.6672549545896
 30
0.0
 10
1079.157298856732
 20
-99.98651103593002
 30
0.0
 10
1083.02329888289
 20
-107.1943613420168
 30
0.0
 10
1085.936040988284
 20
-114.9164782766637
 30
0.0
 10
1087.816804741067
 20
-122.9388137510036
 30
0.0
 10
1089.668112927455
 20
-130.8370181286409
 30
0.0
 10
1090.474868162711
 20
-138.986499158233
 30
0.0
 10
1090.215107963123
 20
-147.1602035154561
 30
0.0
 10
1089.958792859021
 20
-155.2072790817494
 30
0.0
 10
1088.637598740427
 20
-163.2233703205223
 30
0.0
 10
1086.288215874261
 20
-170.9867207417585
 30
0.0
 10
1083.975351020239
 20
-178.6286530789865
 30
0.0
 10
1080.648939074456
 20
-185.9703884083685
 30
0.0
 10
1076.400877958983
 20
-192.8080632045649
 30
0.0
 10
1072.220168460244
 20
-199.5368514515806
 30
0.0
 10
1067.145887320019
 20
-205.716146968699
 30
0.0
 10
1061.319283453205
 20
-211.1746208510692
 30
0.0
 10
1055.584060744136
 20
-216.5471611329292
 30
0.0
 10
1049.135014250522
 20
-221.1633952965429
 30
0.0
 10
1042.150513791112
 20
-224.8949504713913
 30
0.0
 10
1035.278323444524
 20
-228.5675514497483
 30
0.0
 10
1027.913139933994
 20
-231.3324989588227
 30
0.0
 10
1020.26020482306
 20
-233.1133549425355
 30
0.0
 10
1012.725091977722
 20
-234.8662410572774
 30
0.0
 10
1004.955798766775
 20
-235.6225471755236
 30
0.0
 10
997.1790124731465
 20
-235.360289281709
 30
0.0
 10
989.5180675152073
 20
-235.104512473776
 30
0.0
 10
981.8851139580878
 20
-233.8331861123316
 30
0.0
 10
974.4924558110645
 20
-231.5817731490273
 30
0.0
 10
967.2220985537674
 20
-229.3688160640771
 30
0.0
 10
960.2381148586837
 20
-226.1902417783049
 30
0.0
 10
953.7341190920806
 20
-222.1345031182945
 30
0.0
 10
947.3400218714569
 20
-218.1466759030371
 30
0.0
 10
941.467425979911
 20
-213.3076517207616
 30
0.0
 10
936.2806624720931
 20
-207.751767763546
 30
0.0
 10
931.1819211539233
 20
-202.2908177187958
 30
0.0
 10
926.8014822444281
 20
-196.1479756182807
 30
0.0
 10
923.2607853594626
 20
-189.4941181980692
 30
0.0
 10
919.7814111741345
 20
-182.9536690148627
 30
0.0
 10
917.1648611530873
 20
-175.9461294793967
 30
0.0
 10
915.4839129384487
 20
-168.6658460407328
 30
0.0
 10
913.8324202902052
 20
-161.5114593102081
 30
0.0
 10
913.127553753923
 20
-154.1292656407212
 30
0.0
 10
913.3883474821564
 20
-146.7246142550398
 30
0.0
 10
913.6450932231966
 20
-139.4475821252401
 30
0.0
 10
914.8664657001028
 20
-132.1985198644116
 30
0.0
 10
917.0180139580305
 20
-125.1784918578113
 30
0.0
 10
919.1325274394877
 20
-118.2788699384211
 30
0.0
 10
922.1636947021848
 20
-111.6524871547044
 30
0.0
 10
926.027713798441
 20
-105.4831824144932
 30
0.0
 10
929.8242090231863
 20
-99.42078329355844
 30
0.0
 10
934.4278901201257
 20
-93.85592055623438
 30
0.0
 10
939.7110301741454
 20
-88.94295601210672
 30
0.0
 10
944.9012387774485
 20
-84.11616191880387
 30
0.0
 10
950.7373166568469
 20
-79.9717335818954
 30
0.0
 10
957.0569998149892
 20
-76.6248233179752
 30
0.0
 10
963.26480349725
 20
-73.33785771549833
 30
0.0
 10
969.9151296945872
 20
-70.86964058693754
 30
0.0
 10
976.8232351616102
 20
-69.28935375600697
 30
0.0
 10
983.606542044682
 20
-67.73802725899898
 30
0.0
 10
990.6036171026095
 20
-67.08287775693805
 30
0.0
 10
997.62558297542
 20
-67.34563088322902
 30
0.0
 10
1004.516204582857
 20
-67.60265653827513
 30
0.0
 10
1011.381849248023
 20
-68.77407513064719
 30
0.0
 10
1018.031228044103
 20
-70.82668455260583
 30
0.0
 10
1024.558219823072
 20
-72.84180702931559
 30
0.0
 10
1030.826484931096
 20
-75.72565339632499
 30
0.0
 10
1036.662562810498
 20
-79.39775914220569
 30
0.0
 10
1042.390809201208
 20
-83.00143667901125
 30
0.0
 10
1047.648369421248
 20
-87.37016226385657
 30
0.0
 10
1052.289602058976
 20
-92.38277619489509
 30
0.0
 10
1056.844362800025
 20
-97.30099450963775
 30
0.0
 10
1060.752823628041
 20
-102.8306311456251
 30
0.0
 10
1063.906377907854
 20
-108.8178625894408
 30
0.0
 10
1066.999987526219
 20
-114.6896833345006
 30
0.0
 10
1069.319398061663
 20
-120.9831191714144
 30
0.0
 10
1070.800013973839
 20
-127.5228362718306
 30
0.0
 10
1072.252207848256
 20
-133.9374102787444
 30
0.0
 10
1072.854582793852
 20
-140.5525534384404
 30
0.0
 10
1072.591894263102
 20
-147.1841899927721
 30
0.0
 10
1072.334631757743
 20
-153.6916739185541
 30
0.0
 10
1071.213167049905
 20
-160.173190437116
 30
0.0
 10
1069.258936635897
 20
-166.4494007966038
 30
0.0
 10
1067.343721928262
 20
-172.6027289065021
 30
0.0
 10
1064.607713221261
 20
-178.5137591445534
 30
0.0
 10
1061.126444233416
 20
-184.0186772204341
 30
0.0
 10
1057.714593919599
 20
-189.4116942885846
 30
0.0
 10
1053.580909974237
 20
-194.3621242461143
 30
0.0
 10
1048.840286331759
 20
-198.731603445597
 30
0.0
 10
1044.191043847025
 20
-203.0151490445696
 30
0.0
 10
1038.967934581838
 20
-206.6872547904506
 30
0.0
 10
1033.315652546578
 20
-209.6465272167399
 30
0.0
 10
1027.774302585938
 20
-212.5473406790138
 30
0.0
 10
1021.838230810079
 20
-214.7178369621083
 30
0.0
 10
1015.671940528419
 20
-216.0975761721041
 30
0.0
 10
1009.632515888002
 20
-217.4488287488062
 30
0.0
 10
1003.401802320764
 20
-217.9983214787036
 30
0.0
 10
997.1499875436813
 20
-217.7370540498409
 30
0.0
 10
991.0301199236835
 20
-217.4788010795279
 30
0.0
 10
984.9323009147913
 20
-216.407290256228
 30
0.0
 10
979.0257708327194
 20
-214.5519986781871
 30
0.0
 10
973.2396468378533
 20
-212.7341725135482
 30
0.0
 10
967.6862390430197
 20
-210.1450540653023
 30
0.0
 10
962.5190264520786
 20
-206.8561075329214
 30
0.0
 10
957.4581811842467
 20
-203.6360629102455
 30
0.0
 10
952.8153982535497
 20
-199.7371622222011
 30
0.0
 10
948.7202132502332
 20
-195.2677967854929
 30
0.0
 10
944.7109833792737
 20
-190.8928269650806
 30
0.0
 10
941.2751035244488
 20
-185.9763742617741
 30
0.0
 10
938.5071415568249
 20
-180.6552950937251
 30
0.0
 10
935.7992103780294
 20
-175.4460954015595
 30
0.0
 10
933.7775422198996
 20
-169.8667417313506
 30
0.0
 10
932.4987227757748
 20
-164.0725863576364
 30
0.0
 10
931.247377968143
 20
-158.4018299978345
 30
0.0
 10
930.7468055941363
 20
-152.5537373479293
 30
0.0
 10
931.0120779465005
 20
-146.6906370008165
 30
0.0
 10
931.2713213817656
 20
-140.9546822089562
 30
0.0
 10
932.293395084854
 20
-135.2402162001852
 30
0.0
 10
934.0497908906195
 20
-129.7065746406962
 30
0.0
 10
935.7692380473077
 20
-124.2930592544088
 30
0.0
 10
938.2109494724785
 20
-119.0976184123371
 30
0.0
 10
941.3080903137181
 20
-114.2640848509913
 30
0.0
 10
944.33581248093
 20
-109.5379306095513
 30
0.0
 10
947.9998437842675
 20
-105.2026870464532
 30
0.0
 10
952.1990706712385
 20
-101.3789755673744
 30
0.0
 10
956.302179394171
 20
-97.64216662191107
 30
0.0
 10
960.9129229368551
 20
-94.44238346705781
 30
0.0
 10
965.9023686007573
 20
-91.86850956633441
 30
0.0
 10
970.7783844958057
 20
-89.35307309777924
 30
0.0
 10
976.0005463597325
 20
-87.48055604231172
 30
0.0
 10
981.4230405261305
 20
-86.30313006468756
 30
0.0
 10
986.7216835098301
 20
-85.15244664076701
 30
0.0
 10
992.1861217137591
 20
-84.7041105270553
 30
0.0
 10
997.6650293187262
 20
-84.96936134757308
 30
0.0
 10
1003.017157409836
 20
-85.22963831148371
 30
0.0
 10
1008.348184291101
 20
-86.20249021282439
 30
0.0
 10
1013.509367964939
 20
-87.86095917942366
 30
0.0
 10
1018.548250749054
 20
-89.48045550334636
 30
0.0
 10
1023.386284466376
 20
-91.77534126530486
 30
0.0
 10
1027.888162991726
 20
-94.6819037306698
 30
0.0
 10
1032.281090372357
 20
-97.51902599016017
 30
0.0
 10
1036.308837631548
 20
-100.9488769278878
 30
0.0
 10
1039.858577892164
 20
-104.875984335218
 30
0.0
 10
1043.322879784742
 20
-108.708954508413
 30
0.0
 10
1046.28617866638
 20
-113.0132352758374
 30
0.0
 10
1048.665964500205
 20
-117.669174164919
 30
0.0
 10
1050.988303366812
 20
-122.2127383456407
 30
0.0
 10
1052.711712383308
 20
-127.0779883172977
 30
0.0
 10
1053.788735359383
 20
-132.1290796585367
 30
0.0
 10
1054.838283698964
 20
-137.0570303680252
 30
0.0
 10
1055.234900316705
 20
-142.1383524221477
 30
0.0
 10
1054.967647034435
 20
-147.2321414155577
 30
0.0
 10
1054.706336541879
 20
-152.1990647677228
 30
0.0
 10
1053.782706442284
 20
-157.146480266703
 30
0.0
 10
1052.222164314854
 20
-161.9360673287651
 30
0.0
 10
1050.700551766405
 20
-166.6037626061898
 30
0.0
 10
1048.552534731351
 20
-171.0836140522812
 30
0.0
 10
1045.837110469878
 20
-175.2502847869166
 30
0.0
 10
1043.191018755046
 20
-179.3105236029046
 30
0.0
 10
1039.995434310314
 20
-183.0300855390949
 30
0.0
 10
1036.33880996227
 20
-186.3065651321886
 30
0.0
 10
1032.779681816458
 20
-189.496615892296
 30
0.0
 10
1028.781303996277
 20
-192.2231075230163
 30
0.0
 10
1024.455297595449
 20
-194.4100972007464
 30
0.0
 10
1020.244185129054
 20
-196.5391231469373
 30
0.0
 10
1015.73584704967
 20
-198.1126705098251
 30
0.0
 10
1011.055684832958
 20
-199.0872664907555
 30
0.0
 10
1006.502905021812
 20
-200.0368855294179
 30
0.0
 10
1001.803708652546
 20
-200.3805768677651
 30
0.0
 10
997.0921099395291
 20
-200.1123331205448
 30
0.0
 10
992.5103051989211
 20
-199.8495584624074
 30
0.0
 10
987.9470178465482
 20
-198.9743750180733
 30
0.0
 10
983.529113523649
 20
-197.5112214336409
 30
0.0
 10
979.2320459248969
 20
-196.0880309568374
 30
0.0
 10
975.110333686344
 20
-194.0863874162137
 30
0.0
 10
971.2783539781005
 20
-191.5617137853887
 30
0.0
 10
967.5503300261265
 20
-189.1049946630102
 30
0.0
 10
964.1389964766322
 20
-186.1432245424942
 30
0.0
 10
961.1382321815905
 20
-182.7593440976478
 30
0.0
 10
958.2194611591016
 20
-179.4683735716694
 30
0.0
 10
955.7302935436196
 20
-175.7757910394979
 30
0.0
 10
953.7391144805342
 20
-171.7839804325857
 30
0.0
 10
951.8034014547575
 20
-167.9050612983558
 30
0.0
 10
950.3791989811552
 20
-163.753398260928
 30
0.0
 10
949.5065562947415
 20
-159.4438637228886
 30
0.0
 10
948.6582876588877
 20
-155.2587401955603
 30
0.0
 10
948.3660574343495
 20
-150.9442102690673
 30
0.0
 10
948.6383061050733
 20
-146.6199479478288
 30
0.0
 10
948.9025449287919
 20
-142.4210871022528
 30
0.0
 10
949.7292817178628
 20
-138.2414326640074
 30
0.0
 10
951.0955204599278
 20
-134.1974288604936
 30
0.0
 10
952.4203319287806
 20
-130.2737880804958
 30
0.0
 10
954.2761187392956
 20
-126.5102796450217
 30
0.0
 10
956.6109460770384
 20
-123.0117421160573
 30
0.0
 10
958.875837976427
 20
-119.6191412732636
 30
0.0
 10
961.603836836422
 20
-116.5157561964573
 30
0.0
 10
964.718978301574
 20
-113.7872621039859
 30
0.0
 10
967.7386906217806
 20
-111.1426991502746
 30
0.0
 10
971.1255639933298
 20
-108.8905325723325
 30
0.0
 10
974.7856334368591
 20
-107.0934415761455
 30
0.0
 10
978.3318424746011
 20
-105.352807082223
 30
0.0
 10
982.12739029809
 20
-104.0792198768668
 30
0.0
 10
986.066770858084
 20
-103.3081859754208
 30
0.0
 10
989.8792857768358
 20
-102.5608801691301
 30
0.0
 10
993.8101397255058
 20
-102.3223503704698
 30
0.0
 10
997.7524486166662
 20
-102.5970967354184
 30
0.0
 10
1001.565910936675
 20
-102.8635964030493
 30
0.0
 10
1005.361889397097
 20
-103.6423817693371
 30
0.0
 10
1009.034533439148
 20
-104.9119640511917
 30
0.0
 10
1012.586771393989
 20
-106.1398176139819
 30
0.0
 10
1015.992076026384
 20
-107.8500060765531
 30
0.0
 10
1019.155190446166
 20
-109.9955254173796
 30
0.0
 10
1022.212368179777
 20
-112.0691068581047
 30
0.0
 10
1025.007288019575
 20
-114.563808158208
 30
0.0
 10
1027.462521444523
 20
-117.4101675799682
 30
0.0
 10
1029.831885864504
 20
-120.1573943791407
 30
0.0
 10
1031.84597481257
 20
-123.239290672858
 30
0.0
 10
1033.449494506179
 20
-126.5707195389411
 30
0.0
 10
1034.996083996893
 20
-129.78699608843
 30
0.0
 10
1036.119012870311
 20
-133.226321038742
 30
0.0
 10
1036.786413993193
 20
-136.7935236270972
 30
0.0
 10
1037.431335868031
 20
-140.2351094213214
 30
0.0
 10
1037.616682005138
 20
-143.7838161532902
 30
0.0
 10
1037.337370888669
 20
-147.3410494965849
 30
0.0
 10
1037.069170205142
 20
-150.7693716731909
 30
0.0
 10
1036.33734579669
 20
-154.1812219870081
 30
0.0
 10
1035.162912745769
 20
-157.4821832898938
 30
0.0
 10
1034.031457261023
 20
-160.66273850557
 30
0.0
 10
1032.465919745141
 20
-163.7094302297975
 30
0.0
 10
1030.509708401227
 20
-166.537315327018
 30
0.0
 10
1028.625413425569
 20
-169.2608140310355
 30
0.0
 10
1026.363019220406
 20
-171.7470102516596
 30
0.0
 10
1023.784882014019
 20
-173.9259900823866
 30
0.0
 10
1021.302690716897
 20
-176.0250652297025
 30
0.0
 10
1018.524737972365
 20
-177.8009258249617
 30
0.0
 10
1015.529055193166
 20
-179.2041347479507
 30
0.0
 10
1012.645165762464
 20
-180.5558825571288
 30
0.0
 10
1009.561546921006
 20
-181.5269903788804
 30
0.0
 10
1006.364067673756
 20
-182.0909525098158
 30
0.0
 10
1003.293367940368
 20
-182.6324569245567
 30
0.0
 10
1000.12827259068
 20
-182.7638442536255
 30
0.0
 10
996.9537032284111
 20
-182.4791071117696
 30
0.0
 10
993.9070330360304
 20
-182.2063632085717
 30
0.0
 10
990.8787941044958
 20
-181.520487761152
 30
0.0
 10
987.9529606362584
 20
-180.4409886226958
 30
0.0
 10
985.1426239941658
 20
-179.4044455185712
 30
0.0
 10
982.4551050061224
 20
-177.9822455067197
 30
0.0
 10
979.9649038619986
 20
-176.213877994141
 30
0.0
 10
977.5746104869432
 20
-174.5169531491876
 30
0.0
 10
975.3986020510742
 20
-172.4863277427942
 30
0.0
 10
973.4968232158272
 20
-170.1779630447494
 30
0.0
 10
970.0483639302192
 20
-165.9944460110875
 30
0.0
 10
967.6740582272741
 20
-160.9488450903951
 30
0.0
 10
966.6581487276395
 20
-155.6235119917199
 30
0.0
 10
965.576671167113
 20
-149.9544752806382
 30
0.0
 10
966.088411204276
 20
-144.0310720962858
 30
0.0
 10
968.1586192842718
 20
-138.6424641514301
 30
0.0
 10
970.0777012208515
 20
-133.6472270686499
 30
0.0
 10
973.3594841435013
 20
-129.2060833620729
 30
0.0
 10
977.585348729949
 20
-125.9219967314233
 30
0.0
 10
981.8729718344413
 20
-122.5899151119876
 30
0.0
 10
987.1318617421663
 20
-120.5197770257073
 30
0.0
 10
992.5510058715346
 20
-120.1075150660501
 30
0.0
 10
998.1459179195894
 20
-119.681881543491
 30
0.0
 10
1003.844667773927
 20
-121.0290265569773
 30
0.0
 10
1008.59258516025
 20
-124.0366621938047
 30
0.0
 10
1013.125387901088
 20
-126.9080304061744
 30
0.0
 10
1016.696156643415
 20
-131.2175607183805
 30
0.0
 10
1018.542301368488
 20
-136.2686897260971
 30
0.0
 10
1020.466721656806
 20
-141.533983941312
 30
0.0
 10
1020.422707498662
 20
-147.4344122315263
 30
0.0
 10
1018.276815597122
 20
-152.6251178789479
 30
0.0
 10
1016.65379022665
 20
-156.5510597916632
 30
0.0
 10
1013.826165829022
 20
-159.9512556779185
 30
0.0
 10
1010.226559722499
 20
-162.2123422663825
 30
0.0
 10
1006.045228464869
 20
-164.838838540909
 30
0.0
 10
1000.855134863279
 20
-165.8343706775757
 30
0.0
 10
996.0282038200038
 20
-164.6783738425653
 30
0.0
 10
990.8781125570838
 20
-163.444983693302
 30
0.0
 10
986.4212979202898
 20
-159.8599373130286
 30
0.0
 10
984.4847460976985
 20
-154.8780180242645
 30
0.0
 10
982.4839886612318
 20
-149.73092516128
 30
0.0
 10
983.6307574224539
 20
-143.4581977538323
 30
0.0
 10
987.9956080933887
 20
-139.8754816569257
 30
0.0
 10
990.0577799600259
 20
-138.1828289413594
 30
0.0
 10
992.7382461737801
 20
-137.2282877551864
 30
0.0
 10
995.4159838142733
 20
-137.4610145297038
 30
0.0
 10
998.0040515854948
 20
-137.6859479419698
 30
0.0
 10
1000.536562221705
 20
-139.0390959518522
 30
0.0
 10
1001.824671369554
 20
-141.3550955803026
 30
0.0
 10
1002.917658081622
 20
-143.320268192643
 30
0.0
 10
1003.051441967006
 20
-146.5631571279968
 30
0.0
 10
1000.784487582722
 20
-147.8007598924684
 30
0.0
 10
999.8167024044562
 20
-148.32910471508
 30
0.0
 10
998.5078329311193
 20
-148.0431594960094
 30
0.0
 10
997.5571461277206
 20
-147.5968054197588
 30
0.0
 10
996.865170144581
 20
-147.2719178756817
 30
0.0
 10
996.1931217950145
 20
-146.7205916879188
 30
0.0
 10
995.3865035828165
 20
-146.7909221640438
 30
0.0
 10
994.3372109198889
 20
-146.8824118570137
 30
0.0
 10
993.2736072374119
 20
-147.6757960195268
 30
0.0
 10
992.7911558178204
 20
-148.5909456008034
 30
0.0
 10
992.2450238227482
 20
-149.626889213596
 30
0.0
 10
992.2631303653942
 20
-150.9074076148231
 30
0.0
 10
992.7092762428721
 20
-151.9753756052747
 30
0.0
 10
993.159483849736
 20
-153.0530664177747
 30
0.0
 10
994.0985352635416
 20
-153.9507397529937
 30
0.0
 10
995.0502664409626
 20
-154.5976574361159
 30
0.0
 10
996.068639100583
 20
-155.2898731553733
 30
0.0
 10
997.2755812363703
 20
-155.7422057051376
 30
0.0
 10
998.4904365162614
 20
-155.9230481340759
 30
0.0
 10
1003.994272984398
 20
-156.7423450263508
 30
0.0
 10
1008.901626588073
 20
-152.5914546121253
 30
0.0
 10
1010.189336377947
 20
-147.4038795084852
 30
0.0
 10
1011.519069943842
 20
-142.0470104412765
 30
0.0
 10
1009.249368897052
 20
-136.4111243638651
 30
0.0
 10
1004.999691039812
 20
-133.0180765210548
 30
0.0
 10
1001.459774938051
 20
-130.1917200073829
 30
0.0
 10
996.8998363355906
 20
-129.0882752937474
 30
0.0
 10
992.4383102824913
 20
-129.592143899351
 30
0.0
 10
988.1551793789453
 20
-130.0758652023987
 30
0.0
 10
983.9502922785975
 20
-132.274347529707
 30
0.0
 10
981.0615128438856
 20
-135.4725942704718
 30
0.0
 10
977.9770848399514
 20
-138.8874488946031
 30
0.0
 10
976.0294758457767
 20
-143.1538515305059
 30
0.0
 10
975.6173268236415
 20
-147.7590236578729
 30
0.0
 10
975.127806538988
 20
-153.2287082855559
 30
0.0
 10
976.7412295877144
 20
-158.7488567158344
 30
0.0
 10
979.9814657072361
 20
-163.1696742059247
 30
0.0
 10
981.4904430775186
 20
-165.2284481053067
 30
0.0
 10
983.3398483689251
 20
-167.05094914209
 30
0.0
 10
985.4208154545997
 20
-168.5289896225813
 30
0.0
 10
987.2346582275837
 20
-169.8167878468145
 30
0.0
 10
989.1838932531381
 20
-170.8493475592842
 30
0.0
 10
991.2140018952106
 20
-171.5981390630033
 30
0.0
 10
993.3625356945867
 20
-172.3909201296996
 30
0.0
 10
995.5759234164707
 20
-172.8934519017636
 30
0.0
 10
997.7938758898745
 20
-173.0917602106333
 30
0.0
 10
1000.142225227395
 20
-173.301071293209
 30
0.0
 10
1002.475071635232
 20
-173.2061589125904
 30
0.0
 10
1004.727475063488
 20
-172.8085302980522
 30
0.0
 10
1007.108380553344
 20
-172.3894129004248
 30
0.0
 10
1009.396699102036
 20
-171.6695817306286
 30
0.0
 10
1011.529299334791
 20
-170.6700088074302
 30
0.0
 10
1016.850264222904
 20
-168.176864813243
 30
0.0
 10
1021.275381914252
 20
-164.0256445951479
 30
0.0
 10
1024.17482906307
 20
-158.9211588667473
 30
0.0
 10
1025.008546262101
 20
-157.4533971433713
 30
0.0
 10
1025.716968038002
 20
-155.9141851985719
 30
0.0
 10
1026.282576240825
 20
-154.323590557936
 30
0.0
 10
1027.179334595636
 20
-151.8049243123635
 30
0.0
 10
1027.737267809472
 20
-149.2078175489614
 30
0.0
 10
1027.94207873607
 20
-146.6039713175157
 30
0.0
 10
1028.15584691093
 20
-143.8730010626649
 30
0.0
 10
1028.015028632972
 20
-141.1555097438998
 30
0.0
 10
1027.52298287029
 20
-138.527418652977
 30
0.0
 10
1026.715323836845
 20
-134.2143494093101
 30
0.0
 10
1025.012352701232
 20
-130.1017931135685
 30
0.0
 10
1022.549507450803
 20
-126.4708774867796
 30
0.0
 10
1021.864432483828
 20
-125.4608873533456
 30
0.0
 10
1021.121796055544
 20
-124.4898623821056
 30
0.0
 10
1020.324628108634
 20
-123.5657350019319
 30
0.0
 10
1018.411394330901
 20
-121.3467920635761
 30
0.0
 10
1016.237883589257
 20
-119.405588416872
 30
0.0
 10
1013.865074073791
 20
-117.7955661055338
 30
0.0
 10
1011.386327872154
 20
-116.1148762730546
 30
0.0
 10
1008.724819355024
 20
-114.7771026324389
 30
0.0
 10
1005.95539322182
 20
-113.8199905110958
 30
0.0
 10
1003.066077765727
 20
-112.8209128203733
 30
0.0
 10
1000.085295024503
 20
-112.2082241201684
 30
0.0
 10
997.0955550350144
 20
-111.9994082700691
 30
0.0
 10
993.9834280284139
 20
-111.7806231749086
 30
0.0
 10
990.8818085630435
 20
-111.9687038565564
 30
0.0
 10
987.8770824081977
 20
-112.5571476972839
 30
0.0
 10
984.7499692362363
 20
-113.1698363974888
 30
0.0
 10
981.7427453871618
 20
-114.1781512504811
 30
0.0
 10
978.9393850634249
 20
-115.554143919137
 30
0.0
 10
976.0210446778698
 20
-116.9868084085246
 30
0.0
 10
973.3260326071479
 20
-118.777913551306
 30
0.0
 10
970.928246149414
 20
-120.8777207814125
 30
0.0
 10
968.4355473110614
 20
-123.0609639178025
 30
0.0
 10
966.2560937797034
 20
-125.5394086735851
 30
0.0
 10
964.4506914906582
 20
-128.2444115212161
 30
0.0
 10
962.5744924893911
 20
-131.054317526373
 30
0.0
 10
961.0858667302147
 20
-134.0720489166776
 30
0.0
 10
960.0242605564349
 20
-137.2136314896769
 30
0.0
 10
958.9232941667382
 20
-140.4753832995708
 30
0.0
 10
958.2569265725018
 20
-143.8392821906027
 30
0.0
 10
958.0446225632252
 20
-147.2119014795819
 30
0.0
 10
957.8243087069435
 20
-150.7124199384504
 30
0.0
 10
958.059608728586
 20
-154.1977153816437
 30
0.0
 10
958.7434601824082
 20
-157.5721002820588
 30
0.0
 10
959.4528053428211
 20
-161.0713698938142
 30
0.0
 10
960.606309438668
 20
-164.4377664790728
 30
0.0
 10
962.1722775914882
 20
-167.5768513578454
 30
0.0
 10
963.7952620745895
 20
-170.8298612379457
 30
0.0
 10
965.8194279269479
 20
-173.8340921603175
 30
0.0
 10
968.1897397481889
 20
-176.5061082186773
 30
0.0
 10
970.6435090075581
 20
-179.2725629570265
 30
0.0
 10
973.4268877774766
 20
-181.6898357360988
 30
0.0
 10
976.4635671929501
 20
-183.6914792767225
 30
0.0
 10
979.6067000589178
 20
-185.7620677907448
 30
0.0
 10
982.9810849593348
 20
-187.4015672003284
 30
0.0
 10
986.4924124052867
 20
-188.5639854807453
 30
0.0
 10
990.1255239766459
 20
-189.7678740980658
 30
0.0
 10
993.8730127181117
 20
-190.487210035386
 30
0.0
 10
997.6305783638736
 20
-190.7020117388913
 30
0.0
 10
1001.51802410943
 20
-190.9238112926011
 30
0.0
 10
1005.387899868011
 20
-190.6405598481732
 30
0.0
 10
1009.132977042641
 20
-189.8607840169337
 30
0.0
 10
1013.004833731124
 20
-189.0545240141513
 30
0.0
 10
1016.729498715002
 20
-187.7547325512601
 30
0.0
 10
1020.203705257102
 20
-185.9983582773394
 30
0.0
 10
1023.791944459764
 20
-184.1850322686782
 30
0.0
 10
1027.104403768832
 20
-181.9271166876454
 30
0.0
 10
1030.049099134849
 20
-179.2875491223873
 30
0.0
 10
1033.091290703099
 20
-176.561057491667
 30
0.0
 10
1035.746425793581
 20
-173.4719264974306
 30
0.0
 10
1037.940348725977
 20
-170.105034679696
 30
0.0
 10
1040.205240625365
 20
-166.6292347809338
 30
0.0
 10
1041.99565674905
 20
-162.8981748385615
 30
0.0
 10
1043.260954193397
 20
-159.0157675451528
 30
0.0
 10
1044.565697981046
 20
-155.0109517027837
 30
0.0
 10
1045.338088388839
 20
-150.8802822159692
 30
0.0
 10
1045.555301659184
 20
-146.7380931911258
 30
0.0
 10
1045.779577375274
 20
-142.4670360632873
 30
0.0
 10
1045.448417571756
 20
-138.2127091803994
 30
0.0
 10
1044.570262732566
 20
-134.0937745500812
 30
0.0
 10
1043.666097422462
 20
-129.8504289090525
 30
0.0
 10
1042.220449229462
 20
-125.7677108450229
 30
0.0
 10
1040.273711898137
 20
-121.9584687669822
 30
0.0
 10
1038.269096962655
 20
-118.0370888308966
 30
0.0
 10
1035.776914888625
 20
-114.4159274345037
 30
0.0
 10
1032.867014987009
 20
-111.1959043436746
 30
0.0
 10
1029.870298679164
 20
-107.8812272543885
 30
0.0
 10
1026.475501587999
 20
-104.988897339747
 30
0.0
 10
1022.775382909456
 20
-102.5995944296453
 30
0.0
 10
1018.96743274222
 20
-100.1411096958306
 30
0.0
 10
1014.879654694197
 20
-98.20115489623964
 30
0.0
 10
1010.626081425948
 20
-96.83416253953929
 30
0.0
 10
1006.250121140584
 20
-95.42772383953316
 30
0.0
 10
1001.735754144097
 20
-94.60322636252573
 30
0.0
 10
997.2084680395453
 20
-94.38368765272818
 30
0.0
 10
992.5557804593263
 20
-94.15613909592743
 30
0.0
 10
987.9195432100514
 20
-94.53703746551506
 30
0.0
 10
983.4231768374776
 20
-95.51314067572024
 30
0.0
 10
978.806921142017
 20
-96.51570652562151
 30
0.0
 10
974.3655040424329
 20
-98.10774974489613
 30
0.0
 10
970.2233796131319
 20
-100.2447640062431
 30
0.0
 10
965.9673086506542
 20
-102.440000381291
 30
0.0
 10
962.0384356318863
 20
-105.1662336298503
 30
0.0
 10
958.545108809843
 20
-108.3475424601636
 30
0.0
 10
954.95695573457
 20
-111.6147633591409
 30
0.0
 10
951.8278616327028
 20
-115.3158509707913
 30
0.0
 10
949.2436955092169
 20
-119.3483782999698
 30
0.0
 10
946.5916610046716
 20
-123.4878112484249
 30
0.0
 10
944.5026412298051
 20
-127.9321997428654
 30
0.0
 10
943.0334802601203
 20
-132.5586830655474
 30
0.0
 10
941.525820348386
 20
-137.3067997907059
 30
0.0
 10
940.6492158021641
 20
-142.2045413191584
 30
0.0
 10
940.427351652914
 20
-147.1162570161723
 30
0.0
 10
940.2001476056618
 20
-152.1550967365923
 30
0.0
 10
940.6287174840269
 20
-157.1769693617474
 30
0.0
 10
941.7022092372307
 20
-162.041465718767
 30
0.0
 10
942.8031756269314
 20
-167.0308683189736
 30
0.0
 10
944.5415708087885
 20
-171.8304246260962
 30
0.0
 10
946.8694218281718
 20
-176.3068094448556
 30
0.0
 10
949.256270107738
 20
-180.8965594369265
 30
0.0
 10
952.2169851677618
 20
-185.1336608423885
 30
0.0
 10
955.6687985892079
 20
-188.9006789688881
 30
0.0
 10
959.2070839073336
 20
-192.7616190110544
 30
0.0
 10
963.2143328483911
 20
-196.1274988319903
 30
0.0
 10
967.5798717199107
 20
-198.9049348121987
 30
0.0
 10
972.0522085514767
 20
-201.7513157658057
 30
0.0
 10
976.8537242566547
 20
-203.990735490452
 30
0.0
 10
981.8506630032352
 20
-205.560299461685
 30
0.0
 10
986.9693858752195
 20
-207.1683193112722
 30
0.0
 10
992.2505449993332
 20
-208.0974615636441
 30
0.0
 10
997.5476376900682
 20
-208.3207468147818
 30
0.0
 10
1002.975127244916
 20
-208.5450440627183
 30
0.0
 10
1008.384616175855
 20
-208.0699869271492
 30
0.0
 10
1013.614787886787
 20
-206.9000540322051
 30
0.0
 10
1018.975356461836
 20
-205.7006655708622
 30
0.0
 10
1024.133095040193
 20
-203.8154016620995
 30
0.0
 10
1028.943654121021
 20
-201.296240184051
 30
0.0
 10
1033.866609442054
 20
-198.719114974463
 30
0.0
 10
1038.411896170519
 20
-195.524564058378
 30
0.0
 10
1042.452648665168
 20
-191.80050196621
 30
0.0
 10
1046.587882903503
 20
-187.9895158085799
 30
0.0
 10
1050.190505379813
 20
-183.6759978788857
 30
0.0
 10
1053.161297344134
 20
-178.9803327324902
 30
0.0
 10
1056.200991218155
 20
-174.1732618108404
 30
0.0
 10
1058.589303663304
 20
-169.0145327675337
 30
0.0
 10
1060.260261101039
 20
-163.6479783390793
 30
0.0
 10
1061.969200716497
 20
-158.1585631928822
 30
0.0
 10
1062.949244254662
 20
-152.4937926864859
 30
0.0
 10
1063.174553499397
 20
-146.8112799383406
 30
0.0
 10
1063.404341368264
 20
-141.0016431667895
 30
0.0
 10
1062.877327886409
 20
-135.2119879490529
 30
0.0
 10
1061.607551817931
 20
-129.6034155627601
 30
0.0
 10
1060.309267584315
 20
-123.8699584651263
 30
0.0
 10
1058.277608649278
 20
-118.3545543798623
 30
0.0
 10
1055.568127177514
 20
-113.2102947375937
 30
0.0
 10
1052.797667515665
 20
-107.9521531576908
 30
0.0
 10
1049.368333342259
 20
-103.0993916571679
 30
0.0
 10
1045.374950910531
 20
-98.78636895994968
 30
0.0
 10
1041.29371854393
 20
-94.37942434706487
 30
0.0
 10
1036.674017752984
 20
-90.54023147014924
 30
0.0
 10
1031.643661580197
 20
-87.37489927014879
 30
0.0
 10
1026.505473918721
 20
-84.14189247570933
 30
0.0
 10
1020.990565065933
 20
-81.60423514127429
 30
0.0
 10
1015.250863732732
 20
-79.83235793766995
 30
0.0
 10
1009.389722783677
 20
-78.02277847034891
 30
0.0
 10
1003.341340894998
 20
-76.99047714004058
 30
0.0
 10
997.273924853765
 20
-76.76394058003862
 30
0.0
 10
991.079126406963
 20
-76.53215024942197
 30
0.0
 10
984.9068072082005
 20
-77.10888076549926
 30
0.0
 10
978.9253462993245
 20
-78.47735881962763
 30
0.0
 10
972.8204648446874
 20
-79.87356989241225
 30
0.0
 10
966.946921551885
 20
-82.05257125498632
 30
0.0
 10
961.4679278195289
 20
-84.95413833189733
 30
0.0
 10
955.8766239743575
 20
-87.9148964556146
 30
0.0
 10
950.7158709374532
 20
-91.5790138863392
 30
0.0
 10
946.1291569357768
 20
-95.84483877540977
 30
0.0
 10
941.450458884648
 20
-100.1960589688204
 30
0.0
 10
937.3746525434342
 20
-105.122007216558
 30
0.0
 10
934.0153399357671
 20
-110.4855687183096
 30
0.0
 10
930.5890202209118
 20
-115.9567679221284
 30
0.0
 10
927.901931869806
 20
-121.8293422818257
 30
0.0
 10
926.029694728347
 20
-127.9402095898686
 30
0.0
 10
924.1189586448384
 20
-134.1734423831776
 30
0.0
 10
923.0349593504045
 20
-140.6052633993648
 30
0.0
 10
922.807669175767
 20
-147.056807587205
 30
0.0
 10
922.5753836126721
 20
-153.6382318748391
 30
0.0
 10
923.2012713349569
 20
-160.1951744526812
 30
0.0
 10
924.6674178460902
 20
-166.5458204064972
 30
0.0
 10
926.1625892866886
 20
-173.0223415366055
 30
0.0
 10
928.4888900131035
 20
-179.2540886324868
 30
0.0
 10
931.5820689945351
 20
-185.0672135632167
 30
0.0
 10
934.7356232743476
 20
-190.9942419634277
 30
0.0
 10
938.6340071980673
 20
-196.4621898583823
 30
0.0
 10
943.1693031496244
 20
-201.3197098970442
 30
0.0
 10
947.79356869209
 20
-206.2726375488008
 30
0.0
 10
953.026238097247
 20
-210.585165013543
 30
0.0
 10
958.7214976986877
 20
-214.1368862040613
 30
0.0
 10
964.5245887888168
 20
-217.7565403711794
 30
0.0
 10
970.754354954794
 20
-220.5924137835563
 30
0.0
 10
977.2369050020035
 20
-222.5655922227332
 30
0.0
 10
983.8408085376789
 20
-224.5762360753121
 30
0.0
 10
990.6559825539854
 20
-225.7121917160329
 30
0.0
 10
997.493721945724
 20
-225.9409891199471
 30
0.0
 10
1004.456776685737
 20
-226.173769915516
 30
0.0
 10
1011.398385706352
 20
-225.4983804774796
 30
0.0
 10
1018.12415949482
 20
-223.9338334265469
 30
0.0
 10
1024.9723203004
 20
-222.3403045098446
 30
0.0
 10
1031.561754435037
 20
-219.8670919928306
 30
0.0
 10
1037.708579927205
 20
-216.5826240845805
 30
0.0
 10
1043.967284895258
 20
-213.2382115148871
 30
0.0
 10
1049.742987476279
 20
-209.1045275695229
 30
0.0
 10
1054.876179749302
 20
-204.2959709504451
 30
0.0
 10
1060.10135607178
 20
-199.4004902659051
 30
0.0
 10
1064.650260150504
 20
-193.8615949358011
 30
0.0
 10
1068.395251197745
 20
-187.8336683015659
 30
0.0
 10
1072.207766116497
 20
-181.6983192837313
 30
0.0
 10
1075.192424590143
 20
-175.1118996076435
 30
0.0
 10
1077.266544327038
 20
-168.2572361843354
 30
0.0
 10
1079.37856011427
 20
-161.2796689795911
 30
0.0
 10
1080.565567763713
 20
-154.0808189854598
 30
0.0
 10
1080.794838868256
 20
-146.8604802082393
 30
0.0
 10
1081.02858859693
 20
-139.5105197133863
 30
0.0
 10
1080.303740506834
 20
-132.1857730111162
 30
0.0
 10
1078.640276151781
 20
-125.0895868624451
 30
0.0
 10
1076.947872994652
 20
-117.8679992381111
 30
0.0
 10
1074.327274986412
 20
-110.9209211284116
 30
0.0
 10
1070.851432023954
 20
-104.4413855397537
 30
0.0
 10
1067.315213763119
 20
-97.8477311631469
 30
0.0
 10
1062.946832687822
 20
-91.76433849159885
 30
0.0
 10
1057.867470031759
 20
-86.36034018158917
 30
0.0
 10
1052.699223912173
 20
-80.860654344477
 30
0.0
 10
1046.854102657123
 20
-76.07582582055353
 30
0.0
 10
1040.494456391352
 20
-72.13846925415505
 30
0.0
 10
1034.025428343924
 20
-68.13240456467295
 30
0.0
 10
1027.081407756469
 20
-64.99881030682972
 30
0.0
 10
1019.855578358317
 20
-62.82407224991898
 30
0.0
 10
1012.507361943054
 20
-60.61236401208247
 30
0.0
 10
1004.925395799116
 20
-59.37400290806232
 30
0.0
 10
997.3193139867814
 20
-59.14320304239768
 30
0.0
 10
989.5969602018196
 20
-58.90717093796418
 30
0.0
 10
981.8866642510561
 20
-59.68096091579808
 30
0.0
 10
974.4085677359986
 20
-61.44558188703661
 30
0.0
 10
966.815577286508
 20
-63.236687029818
 30
0.0
 10
959.5102523100356
 20
-66.00436908343413
 30
0.0
 10
952.6960256949858
 20
-69.67173782302261
 30
0.0
 10
945.7694889671167
 20
-73.39954645653076
 30
0.0
 10
939.3783200776554
 20
-78.00305529869586
 30
0.0
 10
933.7006304631894
 20
-83.3538699471523
 30
0.0
 10
927.9299232706218
 20
-88.79234074386095
 30
0.0
 10
922.9085243460959
 20
-94.94390324232306
 30
0.0
 10
918.776390693702
 20
-101.6379821523249
 30
0.0
 10
914.577766698439
 20
-108.4409476115074
 30
0.0
 10
911.2952797200929
 20
-115.7419662186231
 30
0.0
 10
909.0198802794745
 20
-123.3384448272926
 30
0.0
 10
906.7079628267085
 20
-131.0575688352369
 30
0.0
 10
905.4187219687427
 20
-139.0232109569977
 30
0.0
 10
905.1864364056479
 20
-147.0145836356642
 30
0.0
 10
904.9511363840053
 20
-155.1333387198972
 30
0.0
 10
905.7753754788513
 20
-163.2258680147491
 30
0.0
 10
907.6366744421466
 20
-171.0661301926935
 30
0.0
 10
909.5269122075141
 20
-179.0317938463011
 30
0.0
 10
912.4422381345216
 20
-186.6947197341423
 30
0.0
 10
916.3011757149352
 20
-193.8416133819867
 30
0.0
 10
920.2195411924731
 20
-201.1004080375613
 30
0.0
 10
925.0575749097947
 20
-207.7992239538553
 30
0.0
 10
930.6808320155938
 20
-213.7512292963343
 30
0.0
 10
936.3921113110409
 20
-219.7946588602532
 30
0.0
 10
942.850115052916
 20
-225.0523052076801
 30
0.0
 10
949.8762150403088
 20
-229.3768043792335
 30
0.0
 10
957.0110939176502
 20
-233.7687628267575
 30
0.0
 10
964.6690244170378
 20
-237.2000779300663
 30
0.0
 10
972.6381331661287
 20
-239.5763971365577
 30
0.0
 10
980.7301456966578
 20
-241.9886745271764
 30
0.0
 10
989.079506859935
 20
-243.3294195626486
 30
0.0
 10
997.4547062393516
 20
-243.5622218900643
 30
0.0
 10
1005.947900139138
 20
-243.8009885390389
 30
0.0
 10
1014.42352405195
 20
-242.9267955596568
 30
0.0
 10
1022.646450210918
 20
-240.9641031298632
 30
0.0
 10
1030.98427030432
 20
-238.9744528278975
 30
0.0
 10
1039.005399995242
 20
-235.9117844733571
 30
0.0
 10
1046.485994204524
 20
-231.8620101349056
 30
0.0
 10
1054.080018182661
 20
-227.7503102051067
 30
0.0
 10
1061.085964361465
 20
-222.6769979979875
 30
0.0
 10
1067.308754209086
 20
-216.782934855201
 30
0.0
 10
1073.625422908677
 20
-210.8009571820003
 30
0.0
 10
1079.118799914682
 20
-204.0362107508573
 30
0.0
 10
1083.636698134039
 20
-196.6769915618876
 30
0.0
 10
1088.222464734455
 20
-189.2063881295105
 30
0.0
 10
1091.803124727049
 20
-181.1912873556896
 30
0.0
 10
1094.277909068878
 20
-172.8539840266107
 30
0.0
 10
1096.790589461046
 20
-164.3917959861916
 30
0.0
 10
1098.182752546635
 20
-155.6588665043253
 30
0.0
 10
1098.416502275309
 20
-146.8971920070043
 30
0.0
 10
1098.652835825597
 20
-138.0086518684384
 30
0.0
 10
1097.729205726002
 20
-129.1490935956427
 30
0.0
 10
1095.670588918791
 20
-120.5645185381101
 30
0.0
 10
1093.581999780858
 20
-111.8552956195514
 30
0.0
 10
1090.371945935091
 20
-103.4767803357302
 30
0.0
 10
1086.129913736714
 20
-95.66224871469153
 30
0.0
  0
ENDSEC
  0
SECTION
  2
OBJECTS
  0
DICTIONARY
  5
C
330
0
100
AcDbDictionary
281
     1
  3
ACAD_GROUP
350
D
  3
ACAD_LAYOUT
350
1A
  3
ACAD_MATERIAL
350
3B
  3
ACAD_MLEADERSTYLE
350
46
  3
ACAD_MLINESTYLE
350
17
  3
ACAD_PLOTSETTINGS
350
19
  3
ACAD_PLOTSTYLENAME
350
E
  3
ACAD_TABLESTYLE
350
45
  3
ACAD_VISUALSTYLE
350
2A
  0
SUN
  5
3F
330
29
100
AcDbSun
 90
        1
290
     0
 63
     7
421
 16777215
 40
1.0
291
     1
 91
  2455826
 92
 54000000
292
     0
 70
     2
 71
   256
280
     1
  0
DICTIONARY
  5
D
102
{ACAD_REACTORS
330
C
102
}
330
C
100
AcDbDictionary
281
     1
  0
DICTIONARY
  5
1A
102
{ACAD_REACTORS
330
C
102
}
330
C
100
AcDbDictionary
281
     1
  3
Layout1
350
1E
  3
Layout2
350
26
  3
Model
350
22
  0
DICTIONARY
  5
3B
102
{ACAD_REACTORS
330
C
102
}
330
C
100
AcDbDictionary
281
     1
  3
ByBlock
350
3D
  3
ByLayer
350
3C
  3
Global
350
3E
  0
DICTIONARY
  5
46
102
{ACAD_REACTORS
330
C
102
}
330
C
100
AcDbDictionary
281
     1
  0
DICTIONARY
  5
17
102
{ACAD_REACTORS
330
C
102
}
330
C
100
AcDbDictionary
281
     1
  3
Standard
350
18
  0
DICTIONARY
  5
19
102
{ACAD_REACTORS
330
C
102
}
330
C
100
AcDbDictionary
281
     1
  0
ACDBDICTIONARYWDFLT
  5
E
102
{ACAD_REACTORS
330
C
102
}
330
C
100
AcDbDictionary
281
     1
  3
Normal
350
F
100
AcDbDictionaryWithDefault
340
F
  0
DICTIONARY
  5
45
102
{ACAD_REACTORS
330
C
102
}
330
C
100
AcDbDictionary
281
     1
  0
DICTIONARY
  5
2A
102
{ACAD_REACTORS
330
C
102
}
330
C
100
AcDbDictionary
281
     1
  3
2dWireframe
350
2F
  3
3D Hidden
350
31
  3
3dWireframe
350
30
  3
Basic
350
32
  3
Brighten
350
36
  3
ColorChange
350
3A
  3
Conceptual
350
34
  3
Dim
350
35
  3
Facepattern
350
39
  3
Flat
350
2B
  3
FlatWithEdges
350
2C
  3
Gouraud
350
2D
  3
GouraudWithEdges
350
2E
  3
Linepattern
350
38
  3
Realistic
350
33
  3
Thicken
350
37
  0
LAYOUT
  5
1E
102
{ACAD_REACTORS
330
1A
102
}
330
1A
100
AcDbPlotSettings
  1

  2
none_device
  4

  6

 40
0.0
 41
0.0
 42
0.0
 43
0.0
 44
0.0
 45
0.0
 46
0.0
 47
0.0
 48
0.0
 49
0.0
140
0.0
141
0.0
142
1.0
143
1.0
 70
   688
 72
     0
 73
     0
 74
     5
  7

 75
    16
 76
     0
 77
     2
 78
   300
147
1.0
148
0.0
149
0.0
100
AcDbLayout
  1
Layout1
 70
     1
 71
     1
 10
0.0
 20
0.0
 11
12.0
 21
9.0
 12
0.0
 22
0.0
 32
0.0
 14
1.000000000000000E+20
 24
1.000000000000000E+20
 34
1.000000000000000E+20
 15
-1.000000000000000E+20
 25
-1.000000000000000E+20
 35
-1.000000000000000E+20
146
0.0
 13
0.0
 23
0.0
 33
0.0
 16
1.0
 26
0.0
 36
0.0
 17
0.0
 27
1.0
 37
0.0
 76
     0
330
1B
  0
LAYOUT
  5
26
102
{ACAD_REACTORS
330
1A
102
}
330
1A
100
AcDbPlotSettings
  1

  2
none_device
  4

  6

 40
0.0
 41
0.0
 42
0.0
 43
0.0
 44
0.0
 45
0.0
 46
0.0
 47
0.0
 48
0.0
 49
0.0
140
0.0
141
0.0
142
1.0
143
1.0
 70
   688
 72
     0
 73
     0
 74
     5
  7

 75
    16
 76
     0
 77
     2
 78
   300
147
1.0
148
0.0
149
0.0
100
AcDbLayout
  1
Layout2
 70
     1
 71
     2
 10
0.0
 20
0.0
 11
0.0
 21
0.0
 12
0.0
 22
0.0
 32
0.0
 14
0.0
 24
0.0
 34
0.0
 15
0.0
 25
0.0
 35
0.0
146
0.0
 13
0.0
 23
0.0
 33
0.0
 16
1.0
 26
0.0
 36
0.0
 17
0.0
 27
1.0
 37
0.0
 76
     0
330
23
  0
LAYOUT
  5
22
102
{ACAD_REACTORS
330
1A
102
}
330
1A
100
AcDbPlotSettings
  1

  2
none_device
  4

  6

 40
0.0
 41
0.0
 42
0.0
 43
0.0
 44
0.0
 45
0.0
 46
0.0
 47
0.0
 48
0.0
 49
0.0
140
0.0
141
0.0
142
1.0
143
1.0
 70
  1712
 72
     0
 73
     0
 74
     0
  7

 75
     0
 76
     0
 77
     2
 78
   300
147
1.0
148
0.0
149
0.0
100
AcDbLayout
  1
Model
 70
     1
 71
     0
 10
0.0
 20
0.0
 11
12.0
 21
9.0
 12
0.0
 22
0.0
 32
0.0
 14
1.000000000000000E+20
 24
1.000000000000000E+20
 34
1.000000000000000E+20
 15
-1.000000000000000E+20
 25
-1.000000000000000E+20
 35
-1.000000000000000E+20
146
0.0
 13
0.0
 23
0.0
 33
0.0
 16
1.0
 26
0.0
 36
0.0
 17
0.0
 27
1.0
 37
0.0
 76
     0
330
1F
331
29
  0
MATERIAL
  5
3D
102
{ACAD_REACTORS
330
3B
102
}
330
3B
100
AcDbMaterial
  1
ByBlock
 72
     1
 94
      127
  0
MATERIAL
  5
3C
102
{ACAD_REACTORS
330
3B
102
}
330
3B
100
AcDbMaterial
  1
ByLayer
 72
     1
 94
      127
  0
MATERIAL
  5
3E
102
{ACAD_REACTORS
330
3B
102
}
330
3B
100
AcDbMaterial
  1
Global
 72
     1
 94
      127
  0
MLINESTYLE
  5
18
102
{ACAD_REACTORS
330
17
102
}
330
17
100
AcDbMlineStyle
  2
Standard
 70
     0
  3

 62
   256
 51
90.0
 52
90.0
 71
     2
 49
0.5
 62
   256
  6
BYLAYER
 49
-0.5
 62
   256
  6
BYLAYER
  0
ACDBPLACEHOLDER
  5
F
102
{ACAD_REACTORS
330
E
102
}
330
E
  0
VISUALSTYLE
  5
2F
102
{ACAD_REACTORS
330
2A
102
}
330
2A
100
AcDbVisualStyle
  2
2dWireframe
 70
     4
177
     2
291
     0
 71
     0
176
     1
 72
     2
176
     1
 73
     0
176
     1
 90
        0
176
     1
 40
-0.6
176
     1
 41
-30.0
176
     1
 62
     5
 63
     7
421
 16777215
176
     1
 74
     1
176
     1
 91
        4
176
     1
 64
     7
176
     1
 65
   257
176
     1
 75
     1
176
     1
175
     1
176
     1
 42
1.0
176
     1
 92
        0
176
     1
 66
   257
176
     1
 43
1.0
176
     1
 76
     1
176
     1
 77
     6
176
     1
 78
     2
176
     1
 67
     7
176
     1
 79
     5
176
     1
170
     0
176
     1
171
     0
176
     1
290
     0
176
     1
 93
        1
176
     1
 44
0.0
176
     1
173
     0
176
     1
  0
VISUALSTYLE
  5
31
102
{ACAD_REACTORS
330
2A
102
}
330
2A
100
AcDbVisualStyle
  2
3D Hidden
 70
     6
177
     2
291
     0
 71
     1
176
     1
 72
     2
176
     1
 73
     2
176
     1
 90
        0
176
     1
 40
-0.6
176
     1
 41
-30.0
176
     1
 62
     5
 63
     7
421
 16777215
176
     1
 74
     2
176
     1
 91
        2
176
     1
 64
     7
176
     1
 65
   257
176
     1
 75
     2
176
     1
175
     1
176
     1
 42
40.0
176
     1
 92
        0
176
     1
 66
   257
176
     1
 43
1.0
176
     1
 76
     1
176
     1
 77
     6
176
     1
 78
     2
176
     1
 67
     7
176
     1
 79
     3
176
     1
170
     0
176
     1
171
     0
176
     1
290
     0
176
     1
 93
        1
176
     1
 44
0.0
176
     1
173
     0
176
     1
  0
VISUALSTYLE
  5
30
102
{ACAD_REACTORS
330
2A
102
}
330
2A
100
AcDbVisualStyle
  2
3dWireframe
 70
     5
177
     2
291
     0
 71
     0
176
     1
 72
     2
176
     1
 73
     0
176
     1
 90
        0
176
     1
 40
-0.6
176
     1
 41
-30.0
176
     1
 62
     5
 63
     7
421
 16777215
176
     1
 74
     1
176
     1
 91
        4
176
     1
 64
     7
176
     1
 65
   257
176
     1
 75
     1
176
     1
175
     1
176
     1
 42
1.0
176
     1
 92
        0
176
     1
 66
   257
176
     1
 43
1.0
176
     1
 76
     1
176
     1
 77
     6
176
     1
 78
     2
176
     1
 67
     7
176
     1
 79
     5
176
     1
170
     0
176
     1
171
     0
176
     1
290
     0
176
     1
 93
        1
176
     1
 44
0.0
176
     1
173
     0
176
     1
  0
VISUALSTYLE
  5
32
102
{ACAD_REACTORS
330
2A
102
}
330
2A
100
AcDbVisualStyle
  2
Basic
 70
     7
177
     2
291
     1
 71
     1
176
     1
 72
     0
176
     1
 73
     1
176
     1
 90
        0
176
     1
 40
-0.6
176
     1
 41
-30.0
176
     1
 62
     5
 63
     7
421
 16777215
176
     1
 74
     0
176
     1
 91
        4
176
     1
 64
     7
176
     1
 65
   257
176
     1
 75
     1
176
     1
175
     1
176
     1
 42
1.0
176
     1
 92
        8
176
     1
 66
     7
176
     1
 43
1.0
176
     1
 76
     1
176
     1
 77
     6
176
     1
 78
     2
176
     1
 67
     7
176
     1
 79
     5
176
     1
170
     0
176
     1
171
     0
176
     1
290
     0
176
     1
 93
        1
176
     1
 44
0.0
176
     1
173
     0
176
     1
  0
VISUALSTYLE
  5
36
102
{ACAD_REACTORS
330
2A
102
}
330
2A
100
AcDbVisualStyle
  2
Brighten
 70
    12
177
     2
291
     1
 71
     2
176
     1
 72
     2
176
     1
 73
     0
176
     1
 90
        0
176
     1
 40
-0.6
176
     1
 41
-30.0
176
     1
 62
     5
 63
     7
421
 16777215
176
     1
 74
     1
176
     1
 91
        4
176
     1
 64
     7
176
     1
 65
   257
176
     1
 75
     1
176
     1
175
     1
176
     1
 42
1.0
176
     1
 92
        8
176
     1
 66
     7
176
     1
 43
1.0
176
     1
 76
     1
176
     1
 77
     6
176
     1
 78
     2
176
     1
 67
     7
176
     1
 79
     5
176
     1
170
     0
176
     1
171
     0
176
     1
290
     0
176
     1
 93
        1
176
     1
 44
50.0
176
     1
173
     0
176
     1
  0
VISUALSTYLE
  5
3A
102
{ACAD_REACTORS
330
2A
102
}
330
2A
100
AcDbVisualStyle
  2
ColorChange
 70
    16
177
     2
291
     1
 71
     2
176
     1
 72
     2
176
     1
 73
     3
176
     1
 90
        0
176
     1
 40
-0.6
176
     1
 41
-30.0
176
     1
 62
     5
 63
     8
421
  8421504
176
     1
 74
     1
176
     1
 91
        4
176
     1
 64
     7
176
     1
 65
   257
176
     1
 75
     1
176
     1
175
     1
176
     1
 42
1.0
176
     1
 92
        8
176
     1
 66
     8
424
  8421504
176
     1
 43
1.0
176
     1
 76
     1
176
     1
 77
     6
176
     1
 78
     2
176
     1
 67
     7
176
     1
 79
     5
176
     1
170
     0
176
     1
171
     0
176
     1
290
     0
176
     1
 93
        1
176
     1
 44
0.0
176
     1
173
     0
176
     1
  0
VISUALSTYLE
  5
34
102
{ACAD_REACTORS
330
2A
102
}
330
2A
100
AcDbVisualStyle
  2
Conceptual
 70
     9
177
     2
291
     0
 71
     3
176
     1
 72
     2
176
     1
 73
     0
176
     1
 90
        0
176
     1
 40
-0.6
176
     1
 41
-30.0
176
     1
 62
     5
 63
     7
421
 16777215
176
     1
 74
     2
176
     1
 91
        2
176
     1
 64
     7
176
     1
 65
   257
176
     1
 75
     1
176
     1
175
     1
176
     1
 42
40.0
176
     1
 92
        8
176
     1
 66
     7
176
     1
 43
1.0
176
     1
 76
     1
176
     1
 77
     6
176
     1
 78
     2
176
     1
 67
     7
176
     1
 79
     3
176
     1
170
     0
176
     1
171
     0
176
     1
290
     0
176
     1
 93
        1
176
     1
 44
0.0
176
     1
173
     0
176
     1
  0
VISUALSTYLE
  5
35
102
{ACAD_REACTORS
330
2A
102
}
330
2A
100
AcDbVisualStyle
  2
Dim
 70
    11
177
     2
291
     1
 71
     2
176
     1
 72
     2
176
     1
 73
     0
176
     1
 90
        0
176
     1
 40
-0.6
176
     1
 41
-30.0
176
     1
 62
     5
 63
     7
421
 16777215
176
     1
 74
     1
176
     1
 91
        4
176
     1
 64
     7
176
     1
 65
   257
176
     1
 75
     1
176
     1
175
     1
176
     1
 42
1.0
176
     1
 92
        8
176
     1
 66
     7
176
     1
 43
1.0
176
     1
 76
     1
176
     1
 77
     6
176
     1
 78
     2
176
     1
 67
     7
176
     1
 79
     5
176
     1
170
     0
176
     1
171
     0
176
     1
290
     0
176
     1
 93
        1
176
     1
 44
-50.0
176
     1
173
     0
176
     1
  0
VISUALSTYLE
  5
39
102
{ACAD_REACTORS
330
2A
102
}
330
2A
100
AcDbVisualStyle
  2
Facepattern
 70
    15
177
     2
291
     1
 71
     2
176
     1
 72
     2
176
     1
 73
     0
176
     1
 90
        0
176
     1
 40
-0.6
176
     1
 41
-30.0
176
     1
 62
     5
 63
     7
421
 16777215
176
     1
 74
     1
176
     1
 91
        4
176
     1
 64
     7
176
     1
 65
   257
176
     1
 75
     1
176
     1
175
     1
176
     1
 42
1.0
176
     1
 92
        8
176
     1
 66
     7
176
     1
 43
1.0
176
     1
 76
     1
176
     1
 77
     6
176
     1
 78
     2
176
     1
 67
     7
176
     1
 79
     5
176
     1
170
     0
176
     1
171
     0
176
     1
290
     0
176
     1
 93
        1
176
     1
 44
0.0
176
     1
173
     0
176
     1
  0
VISUALSTYLE
  5
2B
102
{ACAD_REACTORS
330
2A
102
}
330
2A
100
AcDbVisualStyle
  2
Flat
 70
     0
177
     2
291
     1
 71
     2
176
     1
 72
     1
176
     1
 73
     1
176
     1
 90
        2
176
     1
 40
-0.6
176
     1
 41
30.0
176
     1
 62
     5
 63
     7
421
 16777215
176
     1
 74
     0
176
     1
 91
        4
176
     1
 64
     7
176
     1
 65
   257
176
     1
 75
     1
176
     1
175
     1
176
     1
 42
1.0
176
     1
 92
        8
176
     1
 66
     7
176
     1
 43
1.0
176
     1
 76
     1
176
     1
 77
     6
176
     1
 78
     2
176
     1
 67
     7
176
     1
 79
     5
176
     1
170
     0
176
     1
171
     0
176
     1
290
     0
176
     1
 93
       13
176
     1
 44
0.0
176
     1
173
     0
176
     1
  0
VISUALSTYLE
  5
2C
102
{ACAD_REACTORS
330
2A
102
}
330
2A
100
AcDbVisualStyle
  2
FlatWithEdges
 70
     1
177
     2
291
     1
 71
     2
176
     1
 72
     1
176
     1
 73
     1
176
     1
 90
        2
176
     1
 40
-0.6
176
     1
 41
30.0
176
     1
 62
     5
 63
     7
421
 16777215
176
     1
 74
     1
176
     1
 91
        4
176
     1
 64
     7
176
     1
 65
   257
176
     1
 75
     1
176
     1
175
     1
176
     1
 42
1.0
176
     1
 92
        0
176
     1
 66
   257
176
     1
 43
1.0
176
     1
 76
     1
176
     1
 77
     6
176
     1
 78
     2
176
     1
 67
     7
176
     1
 79
     5
176
     1
170
     0
176
     1
171
     0
176
     1
290
     0
176
     1
 93
       13
176
     1
 44
0.0
176
     1
173
     0
176
     1
  0
VISUALSTYLE
  5
2D
102
{ACAD_REACTORS
330
2A
102
}
330
2A
100
AcDbVisualStyle
  2
Gouraud
 70
     2
177
     2
291
     1
 71
     2
176
     1
 72
     2
176
     1
 73
     1
176
     1
 90
        2
176
     1
 40
-0.6
176
     1
 41
30.0
176
     1
 62
     5
 63
     7
421
 16777215
176
     1
 74
     0
176
     1
 91
        4
176
     1
 64
     7
176
     1
 65
   257
176
     1
 75
     1
176
     1
175
     1
176
     1
 42
1.0
176
     1
 92
        0
176
     1
 66
     7
176
     1
 43
1.0
176
     1
 76
     1
176
     1
 77
     6
176
     1
 78
     2
176
     1
 67
     7
176
     1
 79
     5
176
     1
170
     0
176
     1
171
     0
176
     1
290
     0
176
     1
 93
       13
176
     1
 44
0.0
176
     1
173
     0
176
     1
  0
VISUALSTYLE
  5
2E
102
{ACAD_REACTORS
330
2A
102
}
330
2A
100
AcDbVisualStyle
  2
GouraudWithEdges
 70
     3
177
     2
291
     1
 71
     2
176
     1
 72
     2
176
     1
 73
     1
176
     1
 90
        2
176
     1
 40
-0.6
176
     1
 41
30.0
176
     1
 62
     5
 63
     7
421
 16777215
176
     1
 74
     1
176
     1
 91
        4
176
     1
 64
     7
176
     1
 65
   257
176
     1
 75
     1
176
     1
175
     1
176
     1
 42
1.0
176
     1
 92
        0
176
     1
 66
   257
176
     1
 43
1.0
176
     1
 76
     1
176
     1
 77
     6
176
     1
 78
     2
176
     1
 67
     7
176
     1
 79
     5
176
     1
170
     0
176
     1
171
     0
176
     1
290
     0
176
     1
 93
       13
176
     1
 44
0.0
176
     1
173
     0
176
     1
  0
VISUALSTYLE
  5
38
102
{ACAD_REACTORS
330
2A
102
}
330
2A
100
AcDbVisualStyle
  2
Linepattern
 70
    14
177
     2
291
     1
 71
     2
176
     1
 72
     2
176
     1
 73
     0
176
     1
 90
        0
176
     1
 40
-0.6
176
     1
 41
-30.0
176
     1
 62
     5
 63
     7
421
 16777215
176
     1
 74
     1
176
     1
 91
        4
176
     1
 64
     7
176
     1
 65
   257
176
     1
 75
     7
176
     1
175
     7
176
     1
 42
1.0
176
     1
 92
        8
176
     1
 66
     7
176
     1
 43
1.0
176
     1
 76
     1
176
     1
 77
     6
176
     1
 78
     2
176
     1
 67
     7
176
     1
 79
     5
176
     1
170
     0
176
     1
171
     0
176
     1
290
     0
176
     1
 93
        1
176
     1
 44
0.0
176
     1
173
     0
176
     1
  0
VISUALSTYLE
  5
33
102
{ACAD_REACTORS
330
2A
102
}
330
2A
100
AcDbVisualStyle
  2
Realistic
 70
     8
177
     2
291
     0
 71
     2
176
     1
 72
     2
176
     1
 73
     0
176
     1
 90
        0
176
     1
 40
-0.6
176
     1
 41
-30.0
176
     1
 62
     5
 63
     7
421
 16777215
176
     1
 74
     1
176
     1
 91
        0
176
     1
 64
     7
176
     1
 65
   257
176
     1
 75
     1
176
     1
175
     1
176
     1
 42
1.0
176
     1
 92
        8
176
     1
 66
     8
424
  7895160
176
     1
 43
1.0
176
     1
 76
     1
176
     1
 77
     6
176
     1
 78
     2
176
     1
 67
     7
176
     1
 79
     5
176
     1
170
     0
176
     1
171
     0
176
     1
290
     0
176
     1
 93
       13
176
     1
 44
0.0
176
     1
173
     0
176
     1
  0
VISUALSTYLE
  5
37
102
{ACAD_REACTORS
330
2A
102
}
330
2A
100
AcDbVisualStyle
  2
Thicken
 70
    13
177
     2
291
     1
 71
     2
176
     1
 72
     2
176
     1
 73
     0
176
     1
 90
        0
176
     1
 40
-0.6
176
     1
 41
-30.0
176
     1
 62
     5
 63
     7
421
 16777215
176
     1
 74
     1
176
     1
 91
        4
176
     1
 64
     7
176
     1
 65
   257
176
     1
 75
     1
176
     1
175
     1
176
     1
 42
1.0
176
     1
 92
       12
176
     1
 66
     7
176
     1
 43
1.0
176
     1
 76
     1
176
     1
 77
     6
176
     1
 78
     2
176
     1
 67
     7
176
     1
 79
     5
176
     1
170
     0
176
     1
171
     0
176
     1
290
     0
176
     1
 93
        1
176
     1
 44
0.0
176
     1
173
     0
176
     1
  0
ENDSEC
  0
EOF
