<?xml version="1.0" encoding="UTF-8" standalone="no"?>
<!-- Created with Inkscape (http://www.inkscape.org/) -->

<svg
   width="210mm"
   height="297mm"
   viewBox="0 0 210 297"
   version="1.1"
   id="svg1"
   inkscape:version="1.4.2 (f4327f4, 2025-05-13)"
   sodipodi:docname="Separators.svg"
   xmlns:inkscape="http://www.inkscape.org/namespaces/inkscape"
   xmlns:sodipodi="http://sodipodi.sourceforge.net/DTD/sodipodi-0.dtd"
   xmlns="http://www.w3.org/2000/svg"
   xmlns:svg="http://www.w3.org/2000/svg">
  <sodipodi:namedview
     id="namedview1"
     pagecolor="#ffffff"
     bordercolor="#000000"
     borderopacity="0.25"
     inkscape:showpageshadow="2"
     inkscape:pageopacity="0.0"
     inkscape:pagecheckerboard="0"
     inkscape:deskcolor="#d1d1d1"
     inkscape:document-units="mm"
     inkscape:zoom="0.25"
     inkscape:cx="740"
     inkscape:cy="1222"
     inkscape:window-width="1920"
     inkscape:window-height="1009"
     inkscape:window-x="1912"
     inkscape:window-y="-8"
     inkscape:window-maximized="1"
     inkscape:current-layer="layer1" />
  <defs
     id="defs1" />
  <g
     inkscape:label="Camada 1"
     inkscape:groupmode="layer"
     id="layer1">
    <rect
       style="fill:#ff0000;stroke:none;stroke-width:1.10042;stroke-linejoin:round"
       id="rect1"
       width="88"
       height="63"
       x="258.43564"
       y="489.28302"
       transform="rotate(-90)" />
    <path
       id="rect3"
       style="fill:#ff0000;stroke:none;stroke-width:1.11285;stroke-linejoin:round"
       d="m 440.78318,-184.93574 v 9.9999 h -59.99996 v 63.00029 h 89.99968 v -63.00029 -9.9999 z" />
    <path
       id="rect4"
       style="fill:#ff0000;stroke:none;stroke-width:0.25598;stroke-linejoin:round"
       d="m 380.78323,-352.93544 v 9.9999 62.99978 h 89.99967 v -62.99978 h -59.99996 v -9.9999 z" />
    <path
       id="rect6"
       style="fill:#ff0000;stroke:none;stroke-width:0.25598;stroke-linejoin:round"
       d="m 410.78294,-268.93544 v 9.9999 h -29.99971 v 62.99978 h 89.99967 v -62.99978 h -29.99972 v -9.9999 z" />
    <path
       id="path8"
       style="fill:#ff0000;stroke:none;stroke-width:1.11285;stroke-linejoin:round"
       d="m 438.5526,-187.19557 c -0.31233,0.98699 -1.07314,1.88266 -0.94532,2.95977 0,2.04141 0,4.08281 0,6.12422 -18.9414,0 -37.88281,0 -56.82421,0 -0.73618,0.35662 -1.62334,0.56038 -2.2696,1.00804 -0.32498,0.98435 -1.0667,1.88406 -0.90619,2.96774 0,20.73333 10e-6,41.46667 0,62.2 0.35663,0.73618 0.56039,1.62334 1.00805,2.2696 0.98435,0.32497 1.88406,1.06669 2.96774,0.90618 29.73333,0 59.46666,0 89.2,0 0.73617,-0.35662 1.62334,-0.56038 2.26959,-1.00804 0.32498,-0.98435 1.0667,-1.88406 0.90619,-2.96774 0,-24.06667 0,-48.13333 0,-72.2 -0.35663,-0.73618 -0.56039,-1.62334 -1.00805,-2.2696 -0.98435,-0.32497 -1.88405,-1.06669 -2.96773,-0.90618 -9.73334,0 -19.46667,0 -29.2,0 -0.74349,0.30534 -1.48698,0.61068 -2.23047,0.91601 z" />
    <path
       id="path9"
       style="fill:#ff0000;stroke:none;stroke-width:0.25598;stroke-linejoin:round"
       d="m 378.5526,-355.19557 c -0.31233,0.98699 -1.07314,1.88266 -0.94532,2.95977 0,24.1 10e-6,48.2 0,72.3 0.35663,0.73618 0.56039,1.62334 1.00805,2.2696 0.98435,0.32497 1.88406,1.06669 2.96774,0.90618 29.73333,0 59.46666,0 89.2,0 0.73617,-0.35662 1.62334,-0.56038 2.26959,-1.00804 0.32498,-0.98435 1.0667,-1.88406 0.90619,-2.96774 0,-20.73333 0,-41.46667 0,-62.2 -0.35663,-0.73618 -0.56039,-1.62334 -1.00805,-2.2696 -0.98435,-0.32497 -1.88405,-1.06669 -2.96773,-0.90618 -18.67474,0 -37.34948,0 -56.02422,0 -0.0256,-2.30302 0.0511,-4.62622 -0.038,-6.91672 -0.34411,-0.7052 -0.53485,-1.56188 -0.97006,-2.1771 -0.98435,-0.32497 -1.88405,-1.06669 -2.96773,-0.90618 -9.73334,0 -19.46667,0 -29.2,0 -0.74349,0.30534 -1.48698,0.61068 -2.23047,0.91601 z" />
    <path
       id="path10"
       style="fill:#ff0000;stroke:none;stroke-width:0.25598;stroke-linejoin:round"
       d="m 408.5526,-271.19557 c -0.31233,0.98699 -1.07314,1.88266 -0.94532,2.95977 10e-6,2.04141 0,4.08281 0,6.12422 -8.9414,0 -17.88281,0 -26.82421,0 -0.73618,0.35662 -1.62334,0.56038 -2.2696,1.00804 -0.32498,0.98435 -1.0667,1.88406 -0.90619,2.96774 0,20.73333 10e-6,41.46667 0,62.2 0.35663,0.73618 0.56039,1.62334 1.00805,2.2696 0.98435,0.32497 1.88406,1.06669 2.96774,0.90618 29.73333,0 59.46666,0 89.2,0 0.73617,-0.35662 1.62334,-0.56038 2.26959,-1.00804 0.32498,-0.98435 1.0667,-1.88406 0.90619,-2.96774 0,-20.73333 0,-41.46667 0,-62.2 -0.35663,-0.73618 -0.56039,-1.62334 -1.00805,-2.2696 -0.98435,-0.32497 -1.88405,-1.06669 -2.96773,-0.90618 -8.67474,0 -17.34948,0 -26.02422,0 -0.0256,-2.30302 0.0511,-4.62622 -0.038,-6.91672 -0.34411,-0.7052 -0.53485,-1.56188 -0.97006,-2.1771 -0.98435,-0.32497 -1.88405,-1.06669 -2.96773,-0.90618 -9.73334,0 -19.46667,0 -29.2,0 -0.74349,0.30534 -1.48698,0.61068 -2.23047,0.91601 z" />
    <path
       id="rect10"
       style="fill:#ff0000;stroke:none;stroke-width:1.10042;stroke-linejoin:round"
       d="m 487.0233,-136.20533 c 0.98698,0.31232 1.88266,1.07313 2.95977,0.94531 20.76666,0 41.53333,0 62.3,0 0.73617,-0.35662 1.62334,-0.56038 2.26959,-1.00804 0.32498,-0.98435 1.0667,-1.88406 0.90619,-2.96774 0,-29.06667 0,-58.13333 0,-87.2 -0.35663,-0.73618 -0.56039,-1.62334 -1.00805,-2.2696 -0.98435,-0.32497 -1.88405,-1.06669 -2.96773,-0.90618 -20.73334,0 -41.46667,0 -62.2,0 -0.73618,0.35662 -1.62334,0.56038 -2.2696,1.00804 -0.32498,0.98435 -1.0667,1.88406 -0.90619,2.96774 0,29.06667 0,58.13333 0,87.2 0.30534,0.74349 0.61068,1.48698 0.91602,2.23047 z" />
    <rect
       style="fill:#ff0000;stroke:none;stroke-width:1.21152;stroke-linejoin:round"
       id="rect2"
       width="96"
       height="70"
       x="-362.78302"
       y="150.93564"
       transform="scale(-1)" />
    <rect
       style="fill:#ff0000;stroke:none;stroke-width:1.21152;stroke-linejoin:round"
       id="rect5"
       width="96"
       height="70"
       x="-362.78302"
       y="240.93564"
       transform="scale(-1)"
       rx="3"
       ry="3" />
    <rect
       style="fill:#ff0000;stroke-width:1;stroke-linejoin:round"
       id="rect7"
       width="32"
       height="10"
       x="266.78302"
       y="-320.93564"
       rx="3"
       ry="3" />
    <rect
       style="fill:#ff0000;stroke-width:1;stroke-linejoin:round"
       id="rect8"
       width="32"
       height="10"
       x="298.78302"
       y="-320.93564"
       rx="3"
       ry="3" />
    <rect
       style="fill:#ff0000;stroke-width:1;stroke-linejoin:round"
       id="rect9"
       width="32"
       height="10"
       x="330.78302"
       y="-320.93564"
       rx="3"
       ry="3" />
    <rect
       style="fill:#ff0000;stroke:none;stroke-width:1.21152;stroke-linejoin:round"
       id="rect11"
       width="96"
       height="70"
       x="-239.78302"
       y="240.93564"
       transform="scale(-1)"
       rx="3"
       ry="3" />
    <rect
       style="fill:#ff0000;stroke-width:1;stroke-linejoin:round"
       id="rect12"
       width="32"
       height="10"
       x="143.783"
       y="-320.93564"
       rx="3"
       ry="3" />
    <rect
       style="fill:#ff0000;stroke-width:1;stroke-linejoin:round"
       id="rect13"
       width="32"
       height="10"
       x="175.783"
       y="-320.93564"
       rx="3"
       ry="3" />
    <rect
       style="fill:#ff0000;stroke-width:1;stroke-linejoin:round"
       id="rect14"
       width="32"
       height="10"
       x="207.783"
       y="-320.93564"
       rx="3"
       ry="3" />
    <path
       id="rect19"
       style="fill:#ff0000;stroke-width:1.21152;stroke-linejoin:round"
       d="m 59.999933,199.51651 c -1.662,0 -2.999817,1.33834 -2.999817,3.00034 v 1.79989 2.19986 c 0,0.0111 -1.19e-4,0.0225 0,0.0336 v 5.96657 1.79989 62.19982 c 0,1.662 1.337817,3.00033 2.999817,3.00033 h 90.000197 c 1.662,0 2.99981,-1.33833 2.99981,-3.00033 V 224.4964 212.51677 c 0,-1.662 -1.33781,-2.99982 -2.99981,-2.99982 h -17 -8.53281 -0.46716 -6.00015 -25.999963 c -1.662,0 -3.000333,-1.33834 -3.000333,-3.00034 v -2.19986 -1.79989 c 0,-1.662 -1.337817,-3.00034 -2.999817,-3.00034 z" />
    <path
       id="path34"
       style="fill:#ff0000;stroke-width:1.21152;stroke-linejoin:round"
       d="m 150.00007,17.483176 c 1.662,0 2.99981,1.33834 2.99981,3.00034 v 1.79989 2.19986 c 0,0.0111 1.2e-4,0.0225 0,0.0336 v 5.96657 1.79989 62.199813 c 0,1.662 -1.33781,3.000334 -2.99981,3.000334 H 59.999886 c -1.662,0 -2.99982,-1.338334 -2.99982,-3.000334 V 42.463059 30.483436 c 0,-1.662 1.33782,-2.99982 2.99982,-2.99982 h 16.99999 8.53282 0.46715 6.00015 25.999964 c 1.662,0 3.00034,-1.33834 3.00034,-3.00034 v -2.19986 -1.79989 c 0,-1.662 1.33781,-3.00034 2.99981,-3.00034 z" />
    <path
       id="rect17"
       style="fill:#ff0000;stroke-width:1;stroke-linejoin:round"
       d="m 92.000024,108.49983 c -1.662,0 -2.99982,1.33782 -2.99982,2.99982 v 1.80041 2.19986 c 0,1.662 -1.33833,2.99982 -3.00033,2.99982 h -7.03937 v 5.2e-4 h -1.9606 -17 c -1.65613,0 -2.99041,1.32841 -2.99981,2.98225 -4e-5,0.006 0,0.0117 0,0.0176 v 1.79989 10.17973 52.02008 c 0,0.4155 0.0837,0.81077 0.23512,1.16996 0.0757,0.17959 0.16835,0.34995 0.27596,0.50953 0.53801,0.79785 1.44998,1.32085 2.48873,1.32085 h 20.62924 50.064636 19.30631 c 0.831,0 1.58067,-0.33462 2.12287,-0.87695 0.0678,-0.0678 0.13275,-0.13887 0.19379,-0.21291 0.42725,-0.51825 0.68316,-1.18335 0.68316,-1.91048 v -52.02008 -11.97962 c 0,-0.006 3e-5,-0.0121 0,-0.0181 -0.01,-1.65368 -1.3438,-2.98173 -2.99982,-2.98173 h -16.99999 -0.63769 v -5.2e-4 h -8.36228 c -1.662,0 -3.00033,-1.33782 -3.00033,-2.99982 v -2.19986 -1.80041 c 0,-1.662 -1.33782,-2.99982 -2.99982,-2.99982 z" />
  </g>
</svg>
