<?xml version="1.0" encoding="UTF-8"?>
<!DOCTYPE svg PUBLIC "-//W3C//DTD SVG 1.1//EN" "http://www.w3.org/Graphics/SVG/1.1/DTD/svg11.dtd">
<!-- Creator: CorelDRAW Standard 2024 -->
<svg xmlns="http://www.w3.org/2000/svg" xml:space="preserve" width="9006px" height="9006px" version="1.1" style="shape-rendering:geometricPrecision; text-rendering:geometricPrecision; image-rendering:optimizeQuality; fill-rule:evenodd; clip-rule:evenodd"
viewBox="0 0 900600000 900600000"
 xmlns:xlink="http://www.w3.org/1999/xlink"
 xmlns:xodm="http://www.corel.com/coreldraw/odm/2003">
 <defs>
  <style type="text/css">
   <![CDATA[
    .str3 {stroke:#1F1B20;stroke-width:45000;stroke-miterlimit:22.9256}
    .str2 {stroke:blue;stroke-width:45000;stroke-miterlimit:22.9256}
    .str1 {stroke:lime;stroke-width:45000;stroke-miterlimit:22.9256}
    .str4 {stroke:#9900CC;stroke-width:45000;stroke-miterlimit:22.9256}
    .str0 {stroke:red;stroke-width:45000;stroke-miterlimit:22.9256}
    .fil0 {fill:none}
   ]]>
  </style>
 </defs>
 <g id="Слой_x0020_1">
  <metadata id="CorelCorpID_0Corel-Layer"/>
  <path class="fil0 str0" d="M935995100 452851900c-1171400,-45646600 34882600,-83599900 80529100,-84771400 45646600,-1171500 83600000,34882700 84771500,80529200 1171500,45646500 -34882800,83599800 -80529300,84771400 -45646600,1171400 -83599800,-34882800 -84771300,-80529200z"/>
  <path class="fil0 str1" d="M1037703500 376967400c69900,-296000 72600,-591600 11700,-889500 -51100,-249100 -151700,-475900 -330700,-659000 -160900,-164300 -345800,-277700 -569800,-330600 -323700,-76600 -599200,-1600 -867700,188200 -352400,248900 -531000,656100 -627500,1064200 -91000,384800 -111000,803000 88000,1158500 169200,302000 416300,471600 752100,551100 343500,81200 649000,28800 946500,-161000 334400,-213300 507600,-542300 597400,-921900zm-660600 3037700c-22800,6100 -45600,11900 -68600,17500 -501800,121700 -1007700,128500 -1510800,9600 -875500,-207100 -1551100,-716700 -2006100,-1492100 -481700,-821300 -552200,-1726300 -335000,-2645300 148000,-625400 422900,-1192700 835700,-1685300 402600,-480300 898700,-836800 1496400,-1029000 591700,-190600 1201000,-198400 1804900,-55600 1042500,246500 1841400,846600 2334700,1800000 592100,1144200 409900,2655300 125000,3859900 -318200,1345500 -887800,2929300 -2025200,3801800 -868900,666600 -1868500,832200 -2924600,582400 -762800,-180400 -1430800,-557900 -1890800,-1202300 -460400,-645300 -598600,-1395800 -517100,-2174600 16300,-155500 87600,-283400 211400,-378900 123800,-95600 265600,-132200 420200,-108600l1091200 167100c272800,41800 470300,273900 467700,549800 -1900,209300 12200,557900 119700,745200 143800,250100 346800,392700 626600,458900 222300,52600 436000,45000 647200,-43500 343800,-144600 613700,-410700 829300,-709200 99500,-137800 188500,-297200 268200,-467800zm-81683200 107590500c357400,-202500 684400,-481400 818000,-882200 105400,-316200 92300,-604500 -72800,-895900 -178900,-315600 -449800,-480600 -800800,-558600 -439800,-97900 -854900,20300 -1240200,238800 -334200,189400 -596700,445200 -708600,818900 -101900,340800 -57900,648200 117100,956800 170700,301100 401000,492200 739600,570900 398000,92600 804000,-53800 1147700,-248700zm-2773500 1576400c-447200,-273200 -803800,-644300 -1063000,-1101500 -444100,-783500 -535500,-1623800 -275000,-2485800 278200,-920300 918100,-1587100 1742000,-2054000 853000,-483500 1778500,-689400 2738800,-441700 916300,236400 1608100,794600 2073600,1616000 340800,601200 493400,1253100 451400,1943000 -43600,716800 -310800,1361600 -743200,1932300 -539600,712400 -1426700,1296600 -2195700,1732400 -835200,473400 -1816200,941500 -2770300,1100500 -761800,127000 -1526400,78400 -2235300,-245700 -685700,-313600 -1205400,-824600 -1576500,-1479100 -383500,-676600 -562800,-1415100 -401900,-2184900 161600,-773700 631200,-1382400 1256300,-1850000 124800,-93400 266700,-127900 420500,-102300 153900,25600 276900,104200 364900,233000l600900 880700c160700,235400 116500,551700 -102600,734200 -197500,164500 -450300,416300 -505800,678900 -47900,226600 17300,438300 129400,636100 107600,189900 247300,350100 439100,457500 190500,106700 391500,162100 609900,170500 309900,11900 660500,-63800 957300,-145700 28500,-7900 56900,-16000 85200,-24400zm67983300 36225600c0,638300 34000,2108600 418900,2651100 209200,294800 465900,503400 838400,503400 372200,0 629600,-209900 837800,-504600 385900,-546100 419700,-2008100 419700,-2649900 0,-639700 -34500,-2107500 -419500,-2651600 -213000,-301200 -472200,-502900 -850600,-502900 -339800,0 -579000,136600 -773100,414100 -427700,611300 -471600,2024300 -471600,2740400zm-2240700 -4200c0,-900500 68700,-1903600 357600,-2762200 229300,-681400 593600,-1305300 1157100,-1763300 569100,-462400 1256900,-650400 1983300,-650400 537300,0 1062000,103700 1538800,357800 459300,244800 830000,598200 1111000,1036000 294300,458700 491300,979400 626500,1505400 184500,718000 221700,1538000 221700,2276700 0,898500 -70200,1891800 -354700,2749400 -226600,683100 -589800,1306800 -1152300,1766600 -570400,466300 -1261400,655700 -1991000,655700 -995600,0 -1861500,-353400 -2485100,-1140600 -849300,-1071800 -1012900,-2712400 -1012900,-4031100zm-3973400 -1510900c-74200,46500 -148800,91600 -223600,135500 -400400,235200 -825000,455900 -1261800,615600 -174300,63900 -352900,40500 -505100,-65800 -152200,-106400 -235400,-266100 -235400,-451800l0 -1075000c0,-219000 119300,-406500 317700,-499200 542600,-253900 1050500,-574400 1497800,-974100 323400,-289000 669800,-650900 863800,-1043300 95300,-192600 279300,-306900 494100,-306900l716700 0c303600,0 551200,247600 551200,551200l0 9093500c0,303500 -247600,551200 -551200,551200l-1113000 0c-303600,0 -551200,-247700 -551200,-551200l0 -5979700zm49602000 -15736300c-28300,82800 -58000,165000 -88400,246100 -163000,434800 -353800,873700 -592500,1272900 -95400,159300 -248700,253700 -434000,266700 -185100,13300 -350300,-58400 -467200,-202600l-677000 -835300c-137900,-170100 -163300,-390800 -67500,-587700 261800,-538900 454400,-1107800 550100,-1699800 69300,-428100 110600,-927500 14300,-1354500 -47300,-209600 23700,-414300 190600,-549400l556800 -451300c235900,-191300 584100,-154800 775300,81100l5725800 7064500c191100,235900 154700,584000 -81200,775100l-864500 700900c-236000,191000 -584200,154700 -775400,-81100l-3765200 -4645600zm18820300 -13662100l1794300 -2683700c168900,-252400 512200,-320500 764600,-151800l883200 590500c252400,168800 320600,512200 151900,764600l-3332200 4983600c-165300,247200 -497500,318600 -750000,161200 -287900,-179700 -530900,-410300 -727600,-686500 -312500,-438900 -527900,-938800 -671400,-1456500 -183400,-660900 -276900,-1379900 -344500,-2061400 -52400,-529400 -116000,-1062300 -209700,-1586100 -59300,-331900 -132400,-687700 -246800,-1005600 -119300,-331700 -308300,-707600 -610300,-909700 -240100,-160400 -482900,-208000 -765000,-145400 -318600,70500 -547200,278100 -725500,544800 -188500,282000 -300400,588900 -234700,928500 67400,348000 316800,600400 600900,793500 132900,90300 212900,218500 235800,377600 22800,159100 -18000,304600 -120100,428700l-727300 882900c-192100,233100 -537600,267900 -772300,77900 -691300,-559700 -1211400,-1275400 -1328000,-2174100 -116100,-893900 183800,-1726000 675900,-2462000 504600,-754900 1184200,-1342800 2085600,-1545200 836900,-187500 1628700,-32100 2341100,444300 369300,247100 674900,564200 918700,935300 276100,420800 458600,908900 584400,1393900 196800,759300 299500,1608700 386300,2387400 39700,354900 80300,710200 128000,1064100 4800,36000 9700,72500 14700,109200zm9170800 -31430000c186700,-181300 402000,-334900 647600,-455500 588400,-289000 1232000,-323500 1868200,-198100 926200,182200 1659000,685500 2166500,1481300 527500,827500 650400,1751100 461900,2708900 -170500,865600 -581800,1607400 -1292000,2139000 -697400,522000 -1500200,718700 -2365200,634600 -294800,-28700 -514200,-285500 -496800,-581200l66100 -1121300c17200,-290500 255900,-516900 546800,-518700 354100,-2200 845300,-45600 1140900,-264700 233700,-173200 358400,-403400 414300,-687400 71500,-363100 17000,-686900 -191700,-993800 -212100,-312200 -499300,-484100 -868200,-556700 -335100,-66000 -638100,-28600 -922900,163800 -286900,193700 -435400,465800 -501800,802900 -40100,203700 -33300,448700 -20500,654900 11600,188600 -64500,355900 -214200,470900 -149700,115200 -331000,145700 -510200,86100l-931300 -310300c-285700,-95100 -442500,-403300 -351100,-690100 11400,-35900 24100,-75700 31500,-112700 68900,-351300 46100,-687200 -87000,-1019800 -108800,-271900 -321500,-387200 -601600,-442400 -240500,-47400 -450100,-16300 -652300,124200 -217300,150600 -322500,369100 -372900,624500 -52400,267000 -27800,509700 118800,741100 177100,279500 521000,452500 822300,560300 145700,52000 252300,150000 316400,290800 63900,141000 67600,285600 11100,429700l-413600 1052900c-55700,141500 -153800,243300 -293200,303900 -139300,60600 -281000,63000 -422300,7300 -755700,-298400 -1400400,-772000 -1803000,-1488300 -394500,-702100 -471400,-1474400 -316800,-2259700 109300,-554900 333700,-1065000 682900,-1510100 337800,-430600 761700,-760800 1278400,-948000 488200,-177000 992300,-222400 1501900,-122100 483900,95300 909800,315700 1262600,660400 108900,106500 205400,221600 290400,343400zm-232700 -31897300l-1706000 464700 2029900 724100 -323900 -1188800zm2052200 -559000l888800 3263300c79700,292900 -94100,596800 -387000,676700l-988500 269200c-114500,31200 -221200,26800 -332800,-13700l-6749000 -2448100c-173800,-63100 -295200,-194900 -343800,-373300l-239400 -878600c-79800,-292900 94100,-596900 387000,-676600l5130400 -1397600 -177600 -651700c-79900,-292900 94000,-596900 387000,-676600l988400 -269300c293000,-79700 597000,94100 676700,386900l177500 651900 1554800 -423500c293100,-79700 596900,94100 676700,387000l292600 1073900c79600,292900 -94200,596900 -387000,676700l-1554800 423400zm-22724500 -28829600l781700 -498300c-275600,-156200 -529600,-351700 -757100,-589700 -639600,-669600 -963400,-1481000 -937000,-2407800 27500,-960200 444800,-1770300 1135300,-2430000 661000,-631700 1448500,-1017900 2360300,-1101600 1134300,-104100 2102900,306400 2885600,1125800 610500,638800 1008300,1402600 1041500,2294700 32400,870100 -278800,1637300 -844900,2293600 -100500,116400 -229000,180300 -382500,190100 -153500,9700 -289100,-37400 -403400,-140200l-867900 -780100c-214900,-193300 -244500,-517700 -67900,-746600 209400,-271600 404400,-614500 396900,-968400 -6200,-297200 -122700,-538400 -327300,-752600 -268600,-281000 -579500,-407100 -967900,-397900 -460700,10800 -848200,248400 -1173700,559300 -294700,281500 -533000,624400 -551200,1043300 -17000,390700 149200,707000 415500,985800 170300,178200 367600,312800 605000,382600 218600,64300 437500,79300 660800,33700 218400,-44500 429800,38800 559000,220200l615400 864000c90400,126800 121600,269300 92600,422300 -29000,153200 -110200,274200 -240700,359300l-3968100 2584200c-224300,146300 -514300,112500 -699200,-81000l-3101600 -3246400c-209800,-219600 -201800,-569600 17700,-779300l768200 -733900c219500,-209700 569500,-201800 779300,17800l2175600 2277100zm-81247700 -17006400l3021500 -1318900c278300,-121400 604300,6400 725700,284700l424900 973800c121500,278100 -6300,604100 -284600,725600l-5366800 2342400c-278300,121400 -604100,-6500 -725700,-284700l-344000 -788300c-58300,-133400 -62900,-268000 -14200,-405300 314700,-883800 472900,-1865200 562400,-2796400 105200,-1093600 90400,-2192000 -51600,-3281800 -104000,-797600 -307800,-1582500 -578800,-2339200 -97900,-273500 32100,-574700 298400,-691000l1043300 -455300c140700,-61500 283900,-63500 426400,-6100 142300,57300 244200,158000 303100,299900 346800,834500 548000,1773200 685100,2663800 166300,1081400 206500,2174800 121400,3265800 -47200,604300 -124700,1212900 -246500,1811000zm-40709900 34503800c-219800,-93800 -446700,-128900 -685300,-115000 -221500,13000 -411700,91300 -585700,228600 -193500,153100 -338700,341100 -435700,568100 -141300,330800 -175400,655300 -41200,992500 132200,332700 373500,542100 700100,681700 336400,143700 663900,170100 1004800,31400 344300,-139900 564500,-391200 709400,-730600 139900,-327300 166300,-643100 30700,-974800 -134800,-330200 -370600,-542300 -697100,-681900zm3705500 1982100c-235000,-100400 -465200,-129700 -705000,-32900 -246900,99600 -395900,294700 -498700,535200 -100400,235100 -132400,466500 -36500,708300 88800,223700 236600,366400 457400,460700 234200,100100 453100,110500 689900,15000 243000,-98000 395000,-271200 497200,-510700 102300,-239400 128700,-472100 33100,-716800 -85400,-218900 -220800,-366300 -437400,-458800zm-1093500 -2099100c139000,-62500 284800,-111600 437600,-144800 512300,-111200 1019900,-37200 1499500,167700 741700,317000 1268500,862400 1549400,1619100 299200,806400 201800,1629200 -131800,2410100 -336500,787700 -872900,1429900 -1672700,1771800 -747100,319300 -1511800,323100 -2259400,3700 -470200,-200900 -862000,-514000 -1131300,-950600 -87100,-141100 -156100,-288600 -209100,-440800 -237600,137400 -495600,240600 -775100,302200 -627100,138500 -1245600,51900 -1833600,-199300 -841800,-359700 -1444300,-974800 -1769600,-1831400 -343700,-905100 -246800,-1826900 129600,-2707700 376800,-881800 976500,-1589000 1870000,-1964900 852900,-358900 1723400,-337900 2572600,24800 602300,257300 1114200,652100 1443800,1225900 131700,229300 223700,468400 280100,714200z"/>
  <line class="fil0 str2" x1="935995100" y1="452851900" x2="1101295600" y2= "448609700" />
  <line class="fil0 str3" x1="975409700" y1="521202300" x2="1061881000" y2= "380259300" />
  <polyline class="fil0 str3" points="1061812500,521255800 1018645300,450730800 1078586000,507671900 "/>
  <polyline class="fil0 str2" points="1093904000,485006200 1018645300,450730800 1091543800,411687800 "/>
  <polyline class="fil0 str2" points="1012461900,368283000 1018645300,450730800 962824500,389740600 "/>
  <circle class="fil0 str0" transform="matrix(-0.0405214 -1.57897 1.57897 -0.0405214 1.01865E+09 4.50731E+08)" r="41875500"/>
  <path class="fil0 str4" d="M1081614600 456618100c59300,-557700 38500,-1143600 -87400,-1664600 -239100,-990600 -859100,-1746200 -1648700,-2112700 -1607500,-745700 -2948700,1400 -4424300,461400 -1288900,401500 -2464900,-142700 -3379300,149500 -756300,241800 -1273800,1055800 -1354000,1823400 -117900,762500 192400,1546500 862100,1972900 809600,515900 2085600,288900 3229400,1006000 1309600,820900 2416300,1885300 4160700,1573900 856800,-153100 1648800,-725600 2132800,-1622600 254500,-471700 423800,-1033000 508700,-1587200zm-14231200 5326300c121000,-547300 165900,-1131900 99000,-1663700 -127200,-1011100 -658700,-1831100 -1402700,-2283700 -1514000,-920200 -2930100,-327500 -4448100,-35200 -1325700,255300 -2433400,-417200 -3374700,-228700 -778700,156000 -1383800,907000 -1549000,1660800 -202700,744600 18300,1558500 636400,2057000 746900,602900 2040200,519900 3096800,1360200 1209900,961800 2190800,2143000 3959000,2028400 868600,-56400 1719500,-537000 2300700,-1374400 305300,-440400 536400,-979200 682600,-1520700zm-14423700 -5729500c59400,-557700 38600,-1143600 -87300,-1664600 -239200,-990800 -859200,-1746200 -1648600,-2112700 -1607300,-745700 -2948700,1500 -4424500,461300 -1288800,401800 -2464700,-142900 -3379000,149600 -756500,241800 -1273900,1055900 -1354000,1823200 -118200,762600 192300,1546700 862000,1973200 809600,515700 2085500,289000 3229300,1005900 1309700,820900 2416300,1885200 4160600,1573800 857000,-152900 1648900,-725500 2133000,-1622600 254500,-471600 423700,-1033000 508500,-1587100zm28078000 -14876200c-125700,-546500 -336200,-1093700 -624800,-1545400 -548700,-858700 -1380900,-1371200 -2246900,-1460500 -1762600,-181500 -2787500,961700 -4032900,1877200 -1087700,799600 -2376800,667700 -3146100,1241900 -636400,475000 -860700,1413200 -686400,2164900 136600,759400 685500,1399500 1457600,1584800 933400,223900 2065900,-406000 3381000,-100600 1505800,349500 2898400,995400 4446200,132800 760400,-423800 1322600,-1222900 1488200,-2228600 87000,-528900 64200,-1114800 -35900,-1666500zm-14388700 -2978900c-125500,-546400 -335900,-1093600 -624300,-1545400 -548800,-858700 -1380700,-1371500 -2246700,-1461100 -1762400,-181800 -2787500,961100 -4033300,1876500 -1087800,799200 -2376900,667100 -3146500,1241100 -636400,474900 -860700,1413100 -686500,2164900 136400,759400 685200,1399500 1457100,1585000 933300,224300 2066100,-405500 3380900,-100100 1505800,350100 2898400,996200 4446400,134100 760500,-423600 1323000,-1222800 1488500,-2228500 87100,-528800 64500,-1114700 -35600,-1666500zm-13995700 4591600c-112600,-549200 -310000,-1101300 -588000,-1559500 -528300,-871700 -1348200,-1403700 -2211700,-1513300 -1757800,-223300 -2809400,895500 -4076200,1781200 -1106200,773600 -2391900,611300 -3174500,1167200 -647500,459800 -893700,1392300 -737400,2148100 118600,762300 652200,1415200 1419700,1618700 927800,246000 2075000,-357100 3382500,-20700 1496900,385100 2874100,1063700 4441900,238000 770100,-405600 1351300,-1191400 1540300,-2192900 99600,-526700 90700,-1112900 3400,-1666800zm25800400 -14051600c-178200,-531600 -441100,-1055800 -772500,-1477000 -629900,-801200 -1508100,-1229900 -2378600,-1234500 -1771900,-8900 -2680300,1229000 -3830700,2261400 -1004400,901900 -2300400,896400 -3010000,1542900 -587000,534800 -718600,1490500 -471900,2221600 210100,742500 818800,1326000 1605200,1435000 950900,131800 2016500,-605600 3355100,-430000 1532500,201100 2981800,708100 4438100,-301300 715300,-495800 1197100,-1346100 1263500,-2363200 35000,-534800 -44700,-1115800 -198200,-1654900zm-17150300 -26346800c-403300,-389700 -878300,-733500 -1366500,-954700 -928300,-420400 -1905300,-396100 -2680000,1400 -1576100,809200 -1811800,2326400 -2356300,3772900 -475600,1263400 -1628100,1855900 -1959700,2756900 -274400,745300 49700,1653800 605500,2188800 528700,562000 1337800,799200 2086100,533300 904400,-321300 1510200,-1467100 2778800,-1928400 1452600,-528100 2972400,-746400 3799400,-2313400 406200,-770000 441800,-1746700 31800,-2679800 -215600,-490700 -554200,-969400 -939100,-1377000zm5362200 12223500c-346200,-441000 -769500,-847000 -1222800,-1132700 -862100,-543700 -1833400,-653100 -2654900,-365700 -1672300,585800 -2113200,2056500 -2850800,3414900 -644000,1186400 -1866800,1615700 -2318800,2462700 -373600,700500 -177300,1645000 300300,2251000 446700,629200 1215700,974700 1993300,814000 940100,-194500 1696800,-1246500 3016900,-1529700 1511200,-324500 3046500,-332500 4080200,-1771800 507800,-707000 676600,-1669600 398200,-2650000 -146300,-515700 -416100,-1036400 -741600,-1492700zm-16775800 -2131100c-403400,-389600 -878200,-733600 -1366500,-954800 -928400,-420400 -1905300,-396000 -2679800,1500 -1576400,809000 -1811800,2326300 -2356500,3772900 -475600,1263300 -1628100,1855900 -1959700,2756800 -274200,745200 49600,1653800 605600,2188900 528600,562000 1337900,799200 2086000,533300 904500,-321400 1510100,-1467000 2778900,-1928200 1452600,-528300 2972500,-746600 3799200,-2313700 406400,-769900 441800,-1746500 31800,-2679700 -215600,-490600 -554100,-969500 -939000,-1377000zm4288900 11358600c-346200,-441100 -769700,-847000 -1223000,-1132700 -862100,-543500 -1833100,-653200 -2654700,-365600 -1672400,585800 -2113200,2056300 -2850900,3414700 -644000,1186500 -1866800,1615700 -2318700,2462700 -373700,700700 -177200,1645100 300200,2251100 446800,629100 1215800,974800 1993400,814000 940000,-194600 1696800,-1246500 3016700,-1529700 1511300,-324600 3046600,-332600 4080300,-1771700 507900,-707100 676500,-1669600 398300,-2650200 -146400,-515600 -416200,-1036100 -741600,-1492600zm-12484800 6529200c-403200,-389600 -878300,-733500 -1366400,-954500 -928400,-420600 -1905400,-396000 -2679900,1400 -1576300,809000 -1811800,2326300 -2356500,3772900 -475500,1263400 -1628100,1855900 -1959700,2756700 -274300,745400 49600,1653900 605600,2188900 528700,562100 1337800,799100 2086000,533400 904400,-321400 1510200,-1467000 2778800,-1928400 1452700,-528200 2972500,-746500 3799400,-2313600 406300,-769900 441700,-1746500 31800,-2679700 -215600,-490700 -554200,-969400 -939100,-1377100zm2791300 -38116500c-514400,-223000 -1079900,-378300 -1614700,-413600 -1016900,-67300 -1923100,298800 -2508500,943000 -1191500,1311500 -878800,2814600 -880400,4360400 -1200,1349900 -871900,2309700 -865900,3269600 5100,794200 627400,1531100 1336000,1836400 692500,340400 1533400,278100 2140500,-233500 733900,-618900 898300,-1904300 1924100,-2781900 1174400,-1005100 2520500,-1743400 2743900,-3501200 109900,-863500 -200200,-1790400 -911900,-2519900 -374200,-383700 -859400,-712900 -1363100,-959300zm-21571900 -5089700c-550600,-105500 -1136400,-133800 -1666100,-52100 -1007300,155600 -1811900,710100 -2243200,1466300 -877500,1539200 -245200,2938500 89600,4447400 292500,1318000 -348500,2444200 -133700,3379800 177900,774000 945700,1357700 1703800,1501800 749900,181600 1557000,-62300 2038200,-693900 581700,-763600 462400,-2054100 1272600,-3134100 927500,-1236400 2080700,-2250000 1916400,-4014300 -80900,-866700 -585100,-1703800 -1438400,-2261100 -448900,-293000 -994100,-508800 -1539200,-639800zm12893000 23678300c-514500,-223000 -1080000,-378100 -1614800,-413600 -1016900,-67200 -1922800,298800 -2508400,943100 -1191400,1311400 -878900,2814600 -880500,4360300 -1200,1350000 -872000,2309700 -865900,3269700 5100,794100 627600,1530900 1336100,1836300 692400,340600 1533400,278300 2140500,-233500 733900,-618700 898200,-1904300 1924000,-2781900 1174400,-1005100 2520400,-1743400 2743900,-3501100 109900,-863700 -200200,-1790400 -911800,-2519900 -374200,-383800 -859400,-713100 -1363100,-959400zm-5190300 -15038400c-539400,-153000 -1120400,-231900 -1655100,-196600 -1016900,67600 -1866800,550300 -2362000,1266200 -1007800,1457300 -499200,2906000 -296500,4438400 176900,1338400 -559400,2404700 -426600,3355500 110000,786400 824300,1434600 1567000,1643800 731400,246000 1556700,73300 2090800,-514400 645700,-710100 638800,-2006000 1539700,-3011600 1031300,-1151300 2268200,-2061100 2257600,-3833000 -5400,-870500 -435100,-1748200 -1236900,-2377300 -421700,-330900 -946200,-593200 -1478000,-771000zm-3716200 26431600c-514300,-223100 -1079800,-378300 -1614800,-413800 -1016700,-67200 -1922900,298800 -2508500,943100 -1191300,1311600 -878600,2814600 -880200,4360400 -1300,1349800 -872100,2309600 -865900,3269500 5000,794200 627400,1531200 1335900,1836600 692600,340500 1533500,278200 2140500,-233800 734000,-618600 898300,-1904100 1924000,-2781800 1174500,-1005000 2520700,-1743300 2744100,-3501100 109800,-863600 -200400,-1790400 -912000,-2519900 -374100,-383700 -859300,-713000 -1363100,-959200zm-4222200 -15376400c-539400,-153000 -1120400,-232200 -1655300,-196700 -1016900,67700 -1866500,550400 -2361800,1266200 -1007800,1457200 -499100,2906000 -296700,4438500 177100,1338200 -559200,2404700 -426400,3355300 109900,786600 824300,1434700 1567000,1644000 731400,245900 1556600,73000 2090700,-514500 645800,-710100 638900,-2006100 1539800,-3011600 1031100,-1151400 2268100,-2061100 2257400,-3832900 -5200,-870700 -434900,-1748300 -1236900,-2377400 -421500,-330900 -946100,-593200 -1477800,-770900zm-13690800 15654300c-516200,219100 -1018100,522000 -1412500,885200 -749600,690400 -1108600,1599400 -1045100,2467600 129400,1767200 1434100,2576300 2553200,3642700 977200,931100 1072700,2223600 1772500,2880700 579100,543600 1541900,600200 2251700,297300 723700,-267300 1258200,-919700 1305700,-1712200 57200,-958300 -761100,-1963200 -690200,-3311300 81000,-1543600 473400,-3027900 -646300,-4401000 -550200,-674700 -1435400,-1088700 -2454500,-1075700 -536000,6800 -1109000,131500 -1634500,326700zm-13047900 -4496500c-446500,339100 -858900,755900 -1151900,1204700 -557400,853100 -682700,1822500 -408300,2648500 558800,1681500 2022200,2146000 3368600,2905300 1176000,663000 1585400,1892400 2425000,2357900 694700,384900 1642000,203800 2255700,-264000 636200,-436500 994300,-1200100 845800,-1980000 -179200,-943100 -1219000,-1716800 -1481000,-3041100 -300200,-1516200 -283500,-3051400 -1706000,-4108100 -698800,-519100 -1658500,-703300 -2643200,-440800 -518000,137900 -1042900,399600 -1504700,717600zm-14370400 -18856900c-446500,339000 -858900,755800 -1152200,1204500 -557300,853300 -682500,1822500 -407900,2648700 558700,1681400 2022000,2145900 3368400,2905200 1176000,663000 1585400,1892500 2425000,2358000 694700,384900 1642100,203600 2255800,-264200 636200,-436600 994200,-1200000 845700,-1979900 -179300,-943100 -1219000,-1716500 -1481000,-3041000 -300100,-1516300 -283500,-3051600 -1705900,-4108200 -698900,-519100 -1658700,-703200 -2643300,-440700 -518000,137900 -1042800,399400 -1504600,717600zm14466200 6510600c-484200,282700 -943900,646600 -1289100,1056700 -656300,779600 -897800,1726600 -725000,2580000 351600,1736500 1748100,2374400 2992900,3290700 1087300,800200 1345400,2070100 2122600,2633600 643000,466000 1605500,400400 2270900,10300 684500,-356700 1132100,-1071300 1079000,-1863400 -64300,-957800 -1003000,-1851200 -1103100,-3197500 -114700,-1541300 87100,-3063400 -1197200,-4284200 -631100,-599800 -1561600,-898300 -2570800,-756800 -530800,74500 -1083500,270700 -1580200,530600zm-2189800 -12524000c-518100,214600 -1022800,513000 -1420300,872400 -755800,683600 -1123100,1589400 -1067400,2458100 113300,1768300 1410700,2589200 2520000,3665600 969000,940100 1052900,2233100 1746600,2896500 574200,548800 1536600,614100 2249000,317600 726200,-260600 1266300,-908100 1320900,-1700200 65900,-957600 -743100,-1970000 -660300,-3317500 95000,-1542700 501000,-3023400 -606400,-4406600 -544000,-679700 -1425500,-1101700 -2444700,-1097800 -536100,1900 -1110000,121500 -1637400,311900zm12540600 -4020700c-548300,117400 -1098700,319600 -1554500,601200 -867100,535800 -1392200,1360000 -1494500,2224700 -208400,1759500 919200,2801600 1815600,4060700 783100,1099900 631500,2386800 1194000,3164800 465400,643400 1400000,881900 2154300,719000 761300,-125200 1409700,-664200 1606800,-1433200 238100,-929900 -374700,-2071900 -49300,-3382100 372200,-1500200 1039200,-2883200 200300,-4443900 -412200,-766800 -1202700,-1341100 -2205900,-1521900 -527300,-94900 -1113500,-81000 -1666800,10700zm1795200 17072800c-548300,117300 -1099000,319300 -1554700,601100 -867000,535700 -1392100,1360000 -1494500,2224500 -208200,1759700 919200,2801700 1815600,4060900 783100,1099800 631500,2386800 1194000,3164700 465400,643600 1400000,881900 2154200,719000 761500,-124900 1409800,-664100 1606800,-1433200 238000,-929900 -374600,-2071900 -49400,-3382200 372300,-1500100 1039400,-2883100 200400,-4443800 -411900,-766700 -1202700,-1341100 -2205800,-1521700 -527400,-95100 -1113500,-81100 -1666600,10700zm-11589800 36706900c-144800,541500 -215200,1123700 -171700,1657900 82800,1015700 578000,1858200 1301300,2342700 1472200,985900 2913200,455600 4442400,230100 1335500,-197000 2412800,523200 3361300,376300 784900,-121900 1422300,-845800 1620300,-1591500 235000,-735100 49900,-1557700 -545700,-2083000 -719700,-635000 -2015400,-608800 -3034300,-1494300 -1166600,-1014000 -2094800,-2237000 -3866400,-2199900 -870300,18500 -1741400,461100 -2358700,1272200 -324400,426600 -578700,955000 -748500,1489500zm-23240300 2397000c-7600,560800 66900,1142400 240100,1649600 329400,964400 1016100,1659800 1836200,1952000 1669100,594700 2936000,-272700 4363200,-866300 1246400,-518700 2467300,-84600 3351000,-459800 730700,-310400 1171200,-1168700 1180300,-1940100 47600,-770200 -333700,-1522200 -1039800,-1885600 -853400,-439100 -2103200,-95800 -3308100,-704600 -1379700,-696800 -2579500,-1654800 -4287800,-1184400 -839200,231200 -1575200,874200 -1974600,1811900 -210000,493100 -327000,1067700 -360500,1627300zm-15780300 -2869900c-7900,560700 66900,1142400 240000,1649600 329400,964400 1016100,1659800 1836200,1951900 1669100,594700 2935900,-272700 4363100,-866300 1246500,-518600 2467300,-84600 3351000,-459800 731000,-310400 1171300,-1168600 1180400,-1940100 47600,-770200 -333700,-1522300 -1039700,-1885400 -853800,-439200 -2103300,-96000 -3308300,-704500 -1379700,-697100 -2579400,-1655000 -4287700,-1184600 -839300,231200 -1575200,874100 -1974600,1812000 -209900,493000 -327000,1067600 -360400,1627200zm24501600 -8202700c-217600,516800 -366600,1084000 -396600,1619100 -56400,1017400 319000,1919700 969500,2498400 1323900,1177600 2823700,849000 4369300,834300 1350000,-12900 2318900,847600 3278800,831500 793900,-13500 1524100,-643700 1822200,-1355600 333100,-695800 261800,-1536100 -256400,-2137700 -626300,-727300 -1913500,-878300 -2801900,-1894600 -1017500,-1163700 -1769900,-2501900 -3529900,-2706900 -864600,-100700 -1788100,219000 -2510100,938400 -379800,378200 -703900,866900 -944900,1373100zm-15915700 -1935900c-149800,540300 -225400,1121800 -186700,1656400 73500,1016500 561200,1863400 1280200,2354400 1463300,999100 2908700,481900 4439900,270000 1337300,-184900 2408000,545200 3358000,406700 785700,-114500 1429700,-832800 1634600,-1576700 241400,-732800 63700,-1557200 -526900,-2087800 -714100,-641200 -2010000,-626900 -3020700,-1521900 -1157600,-1024200 -2074700,-2255700 -3846500,-2234500 -870400,10400 -1745400,445500 -2369800,1251000 -328400,423700 -587500,949800 -762100,1482400zm-3787900 -12615200c-244900,504400 -424600,1062600 -483100,1595400 -111600,1013100 214900,1934200 833200,2547000 1258300,1247300 2773800,1000300 4317900,1068800 1348600,60000 2269700,971600 3229000,1007100 793600,29400 1556900,-560500 1892800,-1255200 370100,-676800 344400,-1519700 -140500,-2148500 -586400,-760000 -1863400,-980000 -2695900,-2042800 -953000,-1216900 -1632300,-2593900 -3378700,-2893500 -858000,-147000 -1797300,122400 -2557100,801700 -399600,357200 -749500,827700 -1017600,1320000zm20162500 1790200c-325100,456700 -594200,977700 -740100,1493500 -277300,980800 -107300,1943300 401200,2649900 1035100,1437800 2570400,1444300 4082100,1767000 1320300,281800 2078100,1333200 3018400,1526500 777900,160200 1627800,-295700 2074100,-925200 476700,-606500 590500,-1442200 216200,-2142300 -452800,-846300 -1676100,-1274400 -2321500,-2460100 -738900,-1357500 -1181600,-2827800 -2854500,-3411700 -821800,-286800 -1792700,-176100 -2654300,368600 -453100,286200 -875900,692400 -1221600,1133800zm-12244300 -10099600c-245100,504200 -424500,1062400 -483200,1595300 -111400,1013000 214900,1934100 833200,2547100 1258500,1247200 2773700,1000000 4317900,1068800 1348700,59800 2269800,971500 3229100,1007000 793600,29300 1556700,-560500 1892800,-1255100 370100,-677000 344300,-1519800 -140700,-2148500 -586100,-760000 -1863300,-980100 -2695700,-2043100 -953100,-1216900 -1632300,-2593700 -3378700,-2893300 -857900,-147200 -1797400,122400 -2557000,801700 -399800,357100 -749700,827500 -1017700,1320100zm1258600 47916200c15400,560400 113900,1138300 308000,1637900 368800,950200 1083600,1616600 1915200,1874700 1692100,525400 2922100,-393500 4323600,-1045600 1223900,-569600 2461800,-186200 3329200,-597400 717400,-340400 1122000,-1216100 1099300,-1987300 16000,-771500 -396200,-1507300 -1116500,-1840800 -871200,-403500 -2105500,-9300 -3334600,-567700 -1407300,-639400 -2645500,-1547200 -4333000,-1006600 -828900,265700 -1537700,938500 -1898000,1891900 -189500,501300 -282800,1080300 -293200,1640900zm4292600 13707300c271500,490700 625000,958400 1027200,1312700 764900,673600 1706300,936100 2563000,782700 1744200,-312500 2413200,-1694200 3357300,-2918200 824400,-1069100 2099900,-1298600 2680500,-2063000 480400,-632500 436600,-1595900 61300,-2270200 -341100,-692000 -1045400,-1155700 -1838600,-1120300 -959000,42700 -1873400,960900 -3221500,1031000 -1543800,80200 -3060700,-155900 -4310000,1100500 -613800,617500 -933200,1541100 -814400,2553200 62600,532400 246200,1089300 495200,1591600zm26183300 -13451500c285300,482800 651600,940700 1063400,1283500 783000,652400 1731400,888600 2583700,711700 1734700,-360800 2365200,-1760600 3275000,-3010400 794600,-1091400 2063100,-1355900 2622400,-2136300 462600,-645400 392100,-1607400 -1500,-2271100 -360200,-682300 -1077200,-1126100 -1869000,-1069000 -957500,69400 -1846100,1012700 -3191900,1119800 -1540700,123100 -3063900,-70900 -4277800,1219900 -596300,634100 -890300,1566200 -743400,2574600 77400,530400 276600,1081900 539100,1577300zm-15663800 24151300c451100,332900 967300,611100 1480500,765800 975700,294200 1940800,140800 2656200,-355400 1455600,-1010100 1488600,-2545200 1837400,-4051000 304600,-1315200 1368700,-2054700 1578400,-2991700 173400,-774700 -267600,-1632700 -889400,-2089600 -598200,-487300 -1431600,-615400 -2138300,-253100 -854100,438000 -1303000,1653800 -2499800,2278600 -1370100,715400 -2847600,1132600 -3460500,2795100 -300900,816700 -206900,1789600 322500,2660400 278500,458000 677500,887800 1113000,1240900zm-8021100 12883300c451000,332900 967300,611100 1480400,765700 975900,294100 1941000,140900 2656200,-355400 1455700,-1010100 1488800,-2545100 1837500,-4051000 304600,-1315100 1368700,-2054800 1578300,-2991500 173600,-775100 -267400,-1632900 -889200,-2089700 -598400,-487300 -1431800,-615600 -2138300,-253100 -854200,437900 -1303100,1653500 -2499800,2278400 -1370200,715600 -2847800,1132600 -3460300,2795300 -301100,816700 -207200,1789300 322400,2660200 278400,458000 677300,887800 1112800,1241100zm16930700 -24174400c407800,385100 886700,723600 1377200,938900 933100,409800 1909900,374500 2679700,-31800 1567100,-827100 1785200,-2346900 2313300,-3799500 461000,-1268800 1606800,-1874400 1928200,-2779100 265600,-748300 -68500,-1653100 -630600,-2181800 -535000,-556000 -1347000,-783800 -2091900,-509500 -900800,331700 -1493300,1484100 -2756700,1959900 -1446600,544900 -2963900,780500 -3772700,2356800 -397400,774500 -421700,1751500 -1200,2679900 221100,488200 565200,962900 954700,1366200zm-30280900 11023200c351900,436500 780300,836700 1237500,1116500 869100,532400 1841500,629300 2659300,331100 1664500,-607400 2086200,-2083700 2806200,-3451500 628600,-1194900 1845800,-1639800 2286400,-2492600 364600,-705400 156000,-1647300 -329300,-2247000 -454900,-623200 -1228400,-959000 -2003800,-788100 -937400,206900 -1680400,1268700 -2996600,1568900 -1506900,344200 -3042000,372100 -4056900,1824600 -498600,713500 -654800,1678200 -363900,2655100 153100,513700 429700,1030700 761100,1483000zm54848600 -14573300c557100,-63600 1124500,-211300 1605600,-447400 914900,-449000 1517200,-1218600 1703200,-2069100 378100,-1730900 -643200,-2877600 -1413100,-4217800 -672600,-1170400 -396800,-2436900 -881300,-3265600 -400700,-685700 -1307800,-1013600 -2074300,-924600 -769800,50500 -1467500,524100 -1738200,1270600 -327200,902400 171900,2098500 -279000,3370900 -516300,1457000 -1314100,2768600 -630700,4403400 335800,802900 1066900,1451500 2047800,1728600 515800,145800 1100500,188800 1660000,151000zm-33592700 -8643200c225800,513200 535000,1011500 902900,1401000 700100,740900 1613400,1088300 2480900,1014000 1765200,-151800 2557900,-1466700 3610000,-2599200 918600,-989000 2209800,-1100900 2857800,-1809100 536200,-585800 580800,-1549500 268800,-2255100 -276300,-720300 -935300,-1246400 -1728400,-1283700 -958900,-45200 -1953400,785600 -3302400,731900 -1544400,-61400 -3033700,-435100 -4392600,702100 -667600,558600 -1070300,1449100 -1044400,2467800 13500,535800 145700,1107300 347400,1630300zm-28406100 3518000c136800,543800 358400,1086600 656400,1532200 566300,847200 1408800,1342500 2276400,1414100 1766000,145400 2767000,-1018600 3993500,-1959500 1071200,-821600 2362700,-716200 3120000,-1306000 626500,-488100 831400,-1430700 641900,-2178600 -152300,-756500 -714100,-1385300 -1489900,-1554500 -937800,-204900 -2057200,448300 -3378100,169800 -1512700,-318400 -2918300,-935800 -4448200,-41600 -751600,439400 -1297400,1250000 -1442100,2258800 -76200,530500 -41400,1115700 70100,1665300zm44134800 28626900c506600,240600 1066400,415100 1599600,468800 1014000,102400 1932200,-232400 2539400,-856200 1235900,-1269700 975000,-2782700 1029600,-4327500 47800,-1349000 951000,-2278400 977900,-3238000 22200,-793800 -574600,-1551500 -1272200,-1881400 -680300,-363900 -1522900,-330400 -2147200,160100 -754700,593100 -963300,1872200 -2018500,2714200 -1208200,964100 -2578900,1655700 -2862700,3404700 -139300,859400 138700,1796100 824800,2549700 360900,396400 834400,742100 1329300,1005600zm-7861800 14255000c506600,240500 1066500,414900 1599600,468800 1014100,102300 1932200,-232400 2539400,-856200 1235900,-1269800 975100,-2782800 1029700,-4327600 47800,-1349100 950900,-2278300 977800,-3238100 22300,-793700 -574500,-1551600 -1272200,-1881200 -680400,-363900 -1523000,-330600 -2147200,160100 -754700,593200 -963200,1872200 -2018500,2714200 -1208200,963900 -2578900,1655600 -2862700,3404600 -139400,859300 138700,1796200 824800,2549800 360900,396400 834400,742000 1329300,1005600zm45891000 2767200c531700,-178200 1056000,-440700 1477300,-771800 801500,-629800 1230700,-1507900 1235300,-2378300 9500,-1771600 -1228000,-2680800 -2260200,-3831400 -901300,-1004900 -895200,-2300900 -1541500,-3010500 -534700,-587200 -1490300,-719300 -2221400,-472800 -742600,209800 -1326400,818200 -1435700,1604700 -132100,950700 604900,2016700 428800,3355100 -201500,1532500 -709200,2981500 299700,4438200 495600,715700 1345600,1197800 2362700,1264700 534800,35000 1115800,-44500 1655000,-197900zm-8086100 -13156000c539000,-154400 1074400,-393600 1510100,-705700 828500,-593500 1296100,-1451700 1339400,-2321300 88000,-1769500 -1108100,-2732400 -2088100,-3927600 -856000,-1043900 -792600,-2338300 -1406700,-3076100 -508200,-610200 -1456900,-784400 -2198400,-570500 -751000,176500 -1361200,758600 -1505300,1539400 -174300,944000 514800,2041400 279700,3370900 -269400,1522000 -840500,2947100 102700,4447100 463500,736700 1291400,1256100 2304300,1367900 532900,59000 1116600,5200 1662300,-124100zm-15198800 -760300c560300,-20500 1137600,-124000 1635400,-322500 946900,-377000 1606800,-1097800 1857600,-1931500 510500,-1696800 -419300,-2918700 -1083500,-4314300 -580300,-1218900 -208000,-2460000 -626900,-3323800 -346600,-714500 -1225800,-1111200 -1996800,-1081900 -771600,-8900 -1503700,409600 -1831100,1133000 -395700,874400 9500,2105200 -538100,3339100 -626900,1413000 -1523700,2659400 -968300,4341800 272800,826600 951900,1529500 1908300,1881400 503000,185100 1082800,273100 1643400,278700zm10444400 -11970400c528000,-188800 1046900,-461900 1461500,-801500 788500,-645700 1199900,-1532100 1187300,-2402400 -26200,-1771700 -1281700,-2655700 -2336700,-3785100 -921500,-986700 -941400,-2282500 -1601800,-2979300 -546300,-576200 -1504400,-688900 -2230500,-427800 -738200,224600 -1309600,844600 -1403100,1633100 -113100,953100 645200,2004000 495900,3346000 -170600,1536200 -649000,2995100 389100,4431200 509800,705500 1369500,1170200 2387500,1216800 535400,24400 1114700,-66700 1650800,-231000zm27123200 11287700c434900,-354000 833000,-784600 1110600,-1243000 528100,-871800 620300,-1844600 318000,-2660900 -615400,-1661600 -2093900,-2076100 -3465200,-2789200 -1197900,-622800 -1648800,-1837800 -2503700,-2274400 -707400,-361000 -1648000,-147800 -2245400,340500 -621000,457900 -953000,1233100 -778000,2007600 211200,936300 1276500,1674300 1583200,2989000 351700,1505200 387100,3040000 1844500,4047900 716100,495000 1681500,646700 2656800,350700 512900,-155500 1028600,-434700 1479200,-768200zm-30857400 17078100c560500,-14500 1138600,-111900 1638600,-304900 950700,-367300 1618500,-1080800 1878200,-1911800 528300,-1691200 -388300,-2922900 -1037700,-4325500 -567300,-1225000 -181600,-2462100 -591500,-3330300 -338900,-718200 -1213800,-1124400 -1985300,-1103100 -771300,-17300 -1507700,393500 -1842900,1113400 -405000,870100 -12900,2105300 -573600,3333400 -642000,1406100 -1552000,2642600 -1014400,4331100 264100,829300 935500,1539500 1888200,1901600 501000,190400 1079700,284700 1640400,296100zm-13622100 -31505200c489300,273600 1036300,485000 1564800,574300 1005000,169500 1943400,-103200 2590900,-685000 1317700,-1184500 1158300,-2711600 1316000,-4249300 137500,-1342900 1100700,-2209900 1191400,-3165500 75200,-790700 -469800,-1586600 -1143900,-1961900 -654500,-408600 -1497400,-431600 -2153100,16300 -792500,541600 -1085800,1803900 -2194800,2573600 -1269800,881400 -2683800,1480100 -3083600,3206300 -196300,848100 18700,1801300 653000,2599200 333600,419300 783200,795800 1259300,1092000zm-959800 30099000c560800,-14200 1138900,-111900 1638900,-304800 950800,-367300 1618400,-1080800 1878100,-1911800 528500,-1691200 -388100,-2922700 -1037700,-4325400 -567200,-1225100 -181500,-2462200 -591300,-3330400 -339100,-718100 -1214000,-1124300 -1985300,-1103000 -771400,-17300 -1507900,393500 -1843100,1113400 -405000,870000 -12700,2105300 -573600,3333300 -641800,1406200 -1551800,2642800 -1014400,4331000 264100,829500 935600,1539600 1888200,1901800 501100,190300 1079900,284500 1640200,295900zm60542500 -25461100c365900,-425100 682400,-918800 875200,-1418600 367100,-950900 287300,-1924900 -153400,-2675600 -897400,-1527800 -2425500,-1676600 -3900700,-2138200 -1288400,-403100 -1945400,-1520100 -2863900,-1800000 -759500,-231300 -1648200,143500 -2150800,729000 -531000,559700 -721700,1381100 -413900,2113000 372200,884600 1550300,1424300 2083100,2664800 610000,1420300 914300,2925200 2525800,3661700 791700,361900 1768800,341700 2677100,-120500 477700,-243200 936300,-608400 1321500,-1015600zm-14126800 -9833300c303000,-472000 547000,-1005200 667900,-1527400 230200,-992700 14600,-1945800 -527100,-2627300 -1102700,-1386800 -2636700,-1320000 -4162100,-1570300 -1332100,-218400 -2139200,-1232300 -3087700,-1380600 -784600,-122700 -1612000,373100 -2027500,1023300 -447400,628600 -521100,1468800 -113600,2150200 492600,823800 1734800,1192900 2436200,2346400 803100,1320700 1315400,2768100 3014200,3271500 834600,247200 1799200,90300 2633800,-494700 438800,-307700 841800,-733700 1165900,-1191100z"/>
  <line class="fil0 str2" x1="975409700" y1="521202300" x2="1061881000" y2= "380259300" />
  <polyline class="fil0 str2" points="1061812500,521255800 1018645300,450730800 1078586000,507671900 "/>
  <circle class="fil0 str3" cx="1018645300" cy="450730800" r="88583600"/>
  <circle class="fil0 str3" cx="1197897200" cy="450730800" r="88583600"/>
 </g>
</svg>
