<?xml version='1.0' encoding='utf-8'?>
<svg height="339.20mm" viewBox="0.0 0.0 216.90 339.20" width="216.90mm" xmlns="http://www.w3.org/2000/svg" xmlns:cc="http://creativecommons.org/ns#" xmlns:dc="http://purl.org/dc/elements/1.1/" xmlns:inkscape="http://www.inkscape.org/namespaces/inkscape" xmlns:rdf="http://www.w3.org/1999/02/22-rdf-syntax-ns#" xmlns:svg="http://www.w3.org/2000/svg" xmlns:xlink="http://www.w3.org/1999/xlink">
<!--
TwoPiece - A two piece box where top slips over the bottom half to form the enclosure.



Set *hi* larger than *h* to leave gap between the inner and outer shell. This can be used to make opening the box easier. Set *hi* smaller to only have a small inner ridge that will allow the content to be more visible after opening.

![Bottom view](static/samples/TwoPiece2.jpg)



Created with Boxes.py (https://boxes.hackerspace-bamberg.de/)
Creation date: 2026-03-14 01:05:08
Command line (remove spaces between dashes): boxes TwoPiece - -x=35 - -y=35 - -h=125 - -outside=0 - -spacing=0.5
Url: https://boxes.hackerspace-bamberg.de/TwoPiece?FingerJoint_style=rectangular&FingerJoint_surroundingspaces=2.0&FingerJoint_bottom_lip=0.0&FingerJoint_edge_width=1.0&FingerJoint_extra_length=0.0&FingerJoint_finger=2.0&FingerJoint_play=0.0&FingerJoint_space=2.0&FingerJoint_width=1.0&x=35&y=35&h=125&hi=0.0&outside=0&play=0.15&thickness=3.0&burn=0.1&format=svg&labels=0&labels=1&reference=100.0&tabs=0.0&qr_code=0&inner_corners=loop&spacing=0.5&debug=0&language=en&render=1
Url short: https://boxes.hackerspace-bamberg.de/TwoPiece?x=35&y=35&h=125&outside=0&spacing=0.5
SettingsUrl: https://boxes.hackerspace-bamberg.de/TwoPiece?FingerJoint_style=rectangular&FingerJoint_surroundingspaces=2.0&FingerJoint_bottom_lip=0.0&FingerJoint_edge_width=1.0&FingerJoint_extra_length=0.0&FingerJoint_finger=2.0&FingerJoint_play=0.0&FingerJoint_space=2.0&FingerJoint_width=1.0&x=35&y=35&h=125&hi=0.0&outside=0&play=0.15&thickness=3.0&burn=0.1&format=svg&labels=0&labels=1&reference=100.0&tabs=0.0&qr_code=0&inner_corners=loop&spacing=0.5&debug=0&language=en
SettingsUrl short: https://boxes.hackerspace-bamberg.de/TwoPiece?x=35&y=35&h=125&outside=0&spacing=0.5
-->
<title>TwoPiece</title>
<metadata>
<rdf:RDF><cc:Work>
<dc:title>Box - TwoPiece</dc:title>
<dc:date>2026-03-14 01:05:08</dc:date>
<dc:source>https://boxes.hackerspace-bamberg.de/TwoPiece?FingerJoint_style=rectangular&amp;FingerJoint_surroundingspaces=2.0&amp;FingerJoint_bottom_lip=0.0&amp;FingerJoint_edge_width=1.0&amp;FingerJoint_extra_length=0.0&amp;FingerJoint_finger=2.0&amp;FingerJoint_play=0.0&amp;FingerJoint_space=2.0&amp;FingerJoint_width=1.0&amp;x=35&amp;y=35&amp;h=125&amp;hi=0.0&amp;outside=0&amp;play=0.15&amp;thickness=3.0&amp;burn=0.1&amp;format=svg&amp;labels=0&amp;labels=1&amp;reference=100.0&amp;tabs=0.0&amp;qr_code=0&amp;inner_corners=loop&amp;spacing=0.5&amp;debug=0&amp;language=en&amp;render=1</dc:source>
<dc:source>https://boxes.hackerspace-bamberg.de/TwoPiece?x=35&amp;y=35&amp;h=125&amp;outside=0&amp;spacing=0.5</dc:source>
<dc:description>A two piece box where top slips over the bottom half to form the enclosure.


Set *hi* larger than *h* to leave gap between the inner and outer shell. This can be used to make opening the box easier. Set *hi* smaller to only have a small inner ridge that will allow the content to be more visible after opening.

![Bottom view](static/samples/TwoPiece2.jpg)


Created with Boxes.py (https://boxes.hackerspace-bamberg.de/)
Command line: boxes TwoPiece --FingerJoint_style=rectangular --FingerJoint_surroundingspaces=2.0 --FingerJoint_bottom_lip=0.0 --FingerJoint_edge_width=1.0 --FingerJoint_extra_length=0.0 --FingerJoint_finger=2.0 --FingerJoint_play=0.0 --FingerJoint_space=2.0 --FingerJoint_width=1.0 --x=35 --y=35 --h=125 --hi=0.0 --outside=0 --play=0.15 --thickness=3.0 --burn=0.1 --format=svg --labels=0 --labels=1 --reference=100.0 --tabs=0.0 --qr_code=0 --inner_corners=loop --spacing=0.5 --debug=0
Command line short: boxes TwoPiece --x=35 --y=35 --h=125 --outside=0 --spacing=0.5
Url: https://boxes.hackerspace-bamberg.de/TwoPiece?FingerJoint_style=rectangular&amp;FingerJoint_surroundingspaces=2.0&amp;FingerJoint_bottom_lip=0.0&amp;FingerJoint_edge_width=1.0&amp;FingerJoint_extra_length=0.0&amp;FingerJoint_finger=2.0&amp;FingerJoint_play=0.0&amp;FingerJoint_space=2.0&amp;FingerJoint_width=1.0&amp;x=35&amp;y=35&amp;h=125&amp;hi=0.0&amp;outside=0&amp;play=0.15&amp;thickness=3.0&amp;burn=0.1&amp;format=svg&amp;labels=0&amp;labels=1&amp;reference=100.0&amp;tabs=0.0&amp;qr_code=0&amp;inner_corners=loop&amp;spacing=0.5&amp;debug=0&amp;language=en&amp;render=1
Url short: https://boxes.hackerspace-bamberg.de/TwoPiece?x=35&amp;y=35&amp;h=125&amp;outside=0&amp;spacing=0.5
SettingsUrl: https://boxes.hackerspace-bamberg.de/TwoPiece?FingerJoint_style=rectangular&amp;FingerJoint_surroundingspaces=2.0&amp;FingerJoint_bottom_lip=0.0&amp;FingerJoint_edge_width=1.0&amp;FingerJoint_extra_length=0.0&amp;FingerJoint_finger=2.0&amp;FingerJoint_play=0.0&amp;FingerJoint_space=2.0&amp;FingerJoint_width=1.0&amp;x=35&amp;y=35&amp;h=125&amp;hi=0.0&amp;outside=0&amp;play=0.15&amp;thickness=3.0&amp;burn=0.1&amp;format=svg&amp;labels=0&amp;labels=1&amp;reference=100.0&amp;tabs=0.0&amp;qr_code=0&amp;inner_corners=loop&amp;spacing=0.5&amp;debug=0&amp;language=en
SettingsUrl short: https://boxes.hackerspace-bamberg.de/TwoPiece?x=35&amp;y=35&amp;h=125&amp;outside=0&amp;spacing=0.5
</dc:description>
</cc:Work></rdf:RDF></metadata>
<g id="p-0" style="fill:none;stroke-linecap:round;stroke-linejoin:round;">
  <path d="M 10.100 329.200 H 110.100 V 319.200 H 10.100 V 329.200 Z" stroke="rgb(0,0,0)" stroke-width="0.20" />
  <text dominant-baseline="hanging" font-size="6px" style="font-family: sans-serif ; font-weight: normal; font-style: normal; fill: rgb(255,0,0)" text-anchor="middle" transform="matrix( 1.000 0.000 0.000 1.000 60.100 321.200 )">100.0mm, burn:0.10mm</text>
</g>
<g id="p-1" style="fill:none;stroke-linecap:round;stroke-linejoin:round;">
  <path d="M 13.100 314.500 H 21.500 C 21.600 314.500 21.500 314.400 21.500 314.500 V 317.400 C 21.500 317.455 21.545 317.500 21.600 317.500 H 27.600 C 27.655 317.500 27.700 317.455 27.700 317.400 V 314.500 C 27.700 314.400 27.600 314.500 27.700 314.500 H 33.500 C 33.600 314.500 33.500 314.400 33.500 314.500 V 317.400 C 33.500 317.455 33.545 317.500 33.600 317.500 H 39.600 C 39.655 317.500 39.700 317.455 39.700 317.400 V 314.500 C 39.700 314.400 39.600 314.500 39.700 314.500 H 48.100 H 51.100 C 51.155 314.500 51.200 314.455 51.200 314.400 V 302.900 C 51.200 302.845 51.155 302.800 51.100 302.800 H 48.200 C 48.100 302.800 48.200 302.900 48.200 302.800 V 297.000 C 48.200 296.900 48.100 297.000 48.200 297.000 H 51.100 C 51.155 297.000 51.200 296.955 51.200 296.900 V 290.900 C 51.200 290.845 51.155 290.800 51.100 290.800 H 48.200 C 48.100 290.800 48.200 290.900 48.200 290.800 V 285.000 C 48.200 284.900 48.100 285.000 48.200 285.000 H 51.100 C 51.155 285.000 51.200 284.955 51.200 284.900 V 278.900 C 51.200 278.845 51.155 278.800 51.100 278.800 H 48.200 C 48.100 278.800 48.200 278.900 48.200 278.800 V 273.000 C 48.200 272.900 48.100 273.000 48.200 273.000 H 51.100 C 51.155 273.000 51.200 272.955 51.200 272.900 V 266.900 C 51.200 266.845 51.155 266.800 51.100 266.800 H 48.200 C 48.100 266.800 48.200 266.900 48.200 266.800 V 261.000 C 48.200 260.900 48.100 261.000 48.200 261.000 H 51.100 C 51.155 261.000 51.200 260.955 51.200 260.900 V 254.900 C 51.200 254.845 51.155 254.800 51.100 254.800 H 48.200 C 48.100 254.800 48.200 254.900 48.200 254.800 V 249.000 C 48.200 248.900 48.100 249.000 48.200 249.000 H 51.100 C 51.155 249.000 51.200 248.955 51.200 248.900 V 242.900 C 51.200 242.845 51.155 242.800 51.100 242.800 H 48.200 C 48.100 242.800 48.200 242.900 48.200 242.800 V 237.000 C 48.200 236.900 48.100 237.000 48.200 237.000 H 51.100 C 51.155 237.000 51.200 236.955 51.200 236.900 V 230.900 C 51.200 230.845 51.155 230.800 51.100 230.800 H 48.200 C 48.100 230.800 48.200 230.900 48.200 230.800 V 225.000 C 48.200 224.900 48.100 225.000 48.200 225.000 H 51.100 C 51.155 225.000 51.200 224.955 51.200 224.900 V 218.900 C 51.200 218.845 51.155 218.800 51.100 218.800 H 48.200 C 48.100 218.800 48.200 218.900 48.200 218.800 V 213.000 C 48.200 212.900 48.100 213.000 48.200 213.000 H 51.100 C 51.155 213.000 51.200 212.955 51.200 212.900 V 206.900 C 51.200 206.845 51.155 206.800 51.100 206.800 H 48.200 C 48.100 206.800 48.200 206.900 48.200 206.800 V 201.000 C 48.200 200.900 48.100 201.000 48.200 201.000 H 51.100 C 51.155 201.000 51.200 200.955 51.200 200.900 V 189.400 C 51.200 189.345 51.155 189.300 51.100 189.300 H 48.100 H 13.100 H 10.100 C 10.045 189.300 10.000 189.345 10.000 189.400 V 200.900 C 10.000 200.955 10.045 201.000 10.100 201.000 H 13.000 C 13.100 201.000 13.000 200.900 13.000 201.000 V 206.800 C 13.000 206.900 13.100 206.800 13.000 206.800 H 10.100 C 10.045 206.800 10.000 206.845 10.000 206.900 V 212.900 C 10.000 212.955 10.045 213.000 10.100 213.000 H 13.000 C 13.100 213.000 13.000 212.900 13.000 213.000 V 218.800 C 13.000 218.900 13.100 218.800 13.000 218.800 H 10.100 C 10.045 218.800 10.000 218.845 10.000 218.900 V 224.900 C 10.000 224.955 10.045 225.000 10.100 225.000 H 13.000 C 13.100 225.000 13.000 224.900 13.000 225.000 V 230.800 C 13.000 230.900 13.100 230.800 13.000 230.800 H 10.100 C 10.045 230.800 10.000 230.845 10.000 230.900 V 236.900 C 10.000 236.955 10.045 237.000 10.100 237.000 H 13.000 C 13.100 237.000 13.000 236.900 13.000 237.000 V 242.800 C 13.000 242.900 13.100 242.800 13.000 242.800 H 10.100 C 10.045 242.800 10.000 242.845 10.000 242.900 V 248.900 C 10.000 248.955 10.045 249.000 10.100 249.000 H 13.000 C 13.100 249.000 13.000 248.900 13.000 249.000 V 254.800 C 13.000 254.900 13.100 254.800 13.000 254.800 H 10.100 C 10.045 254.800 10.000 254.845 10.000 254.900 V 260.900 C 10.000 260.955 10.045 261.000 10.100 261.000 H 13.000 C 13.100 261.000 13.000 260.900 13.000 261.000 V 266.800 C 13.000 266.900 13.100 266.800 13.000 266.800 H 10.100 C 10.045 266.800 10.000 266.845 10.000 266.900 V 272.900 C 10.000 272.955 10.045 273.000 10.100 273.000 H 13.000 C 13.100 273.000 13.000 272.900 13.000 273.000 V 278.800 C 13.000 278.900 13.100 278.800 13.000 278.800 H 10.100 C 10.045 278.800 10.000 278.845 10.000 278.900 V 284.900 C 10.000 284.955 10.045 285.000 10.100 285.000 H 13.000 C 13.100 285.000 13.000 284.900 13.000 285.000 V 290.800 C 13.000 290.900 13.100 290.800 13.000 290.800 H 10.100 C 10.045 290.800 10.000 290.845 10.000 290.900 V 296.900 C 10.000 296.955 10.045 297.000 10.100 297.000 H 13.000 C 13.100 297.000 13.000 296.900 13.000 297.000 V 302.800 C 13.000 302.900 13.100 302.800 13.000 302.800 H 10.100 C 10.045 302.800 10.000 302.845 10.000 302.900 V 314.400 C 10.000 314.455 10.045 314.500 10.100 314.500 H 13.100 Z" stroke="rgb(0,0,0)" stroke-width="0.20" />
</g>
<g id="p-2" style="fill:none;stroke-linecap:round;stroke-linejoin:round;">
  <path d="M 55.800 314.500 H 64.200 C 64.300 314.500 64.200 314.400 64.200 314.500 V 317.400 C 64.200 317.455 64.245 317.500 64.300 317.500 H 70.300 C 70.355 317.500 70.400 317.455 70.400 317.400 V 314.500 C 70.400 314.400 70.300 314.500 70.400 314.500 H 76.200 C 76.300 314.500 76.200 314.400 76.200 314.500 V 317.400 C 76.200 317.455 76.245 317.500 76.300 317.500 H 82.300 C 82.355 317.500 82.400 317.455 82.400 317.400 V 314.500 C 82.400 314.400 82.300 314.500 82.400 314.500 H 90.800 C 90.855 314.500 90.900 314.455 90.900 314.400 V 303.000 C 90.900 302.900 90.800 303.000 90.900 303.000 H 93.800 C 93.855 303.000 93.900 302.955 93.900 302.900 V 296.900 C 93.900 296.845 93.855 296.800 93.800 296.800 H 90.900 C 90.800 296.800 90.900 296.900 90.900 296.800 V 291.000 C 90.900 290.900 90.800 291.000 90.900 291.000 H 93.800 C 93.855 291.000 93.900 290.955 93.900 290.900 V 284.900 C 93.900 284.845 93.855 284.800 93.800 284.800 H 90.900 C 90.800 284.800 90.900 284.900 90.900 284.800 V 279.000 C 90.900 278.900 90.800 279.000 90.900 279.000 H 93.800 C 93.855 279.000 93.900 278.955 93.900 278.900 V 272.900 C 93.900 272.845 93.855 272.800 93.800 272.800 H 90.900 C 90.800 272.800 90.900 272.900 90.900 272.800 V 267.000 C 90.900 266.900 90.800 267.000 90.900 267.000 H 93.800 C 93.855 267.000 93.900 266.955 93.900 266.900 V 260.900 C 93.900 260.845 93.855 260.800 93.800 260.800 H 90.900 C 90.800 260.800 90.900 260.900 90.900 260.800 V 255.000 C 90.900 254.900 90.800 255.000 90.900 255.000 H 93.800 C 93.855 255.000 93.900 254.955 93.900 254.900 V 248.900 C 93.900 248.845 93.855 248.800 93.800 248.800 H 90.900 C 90.800 248.800 90.900 248.900 90.900 248.800 V 243.000 C 90.900 242.900 90.800 243.000 90.900 243.000 H 93.800 C 93.855 243.000 93.900 242.955 93.900 242.900 V 236.900 C 93.900 236.845 93.855 236.800 93.800 236.800 H 90.900 C 90.800 236.800 90.900 236.900 90.900 236.800 V 231.000 C 90.900 230.900 90.800 231.000 90.900 231.000 H 93.800 C 93.855 231.000 93.900 230.955 93.900 230.900 V 224.900 C 93.900 224.845 93.855 224.800 93.800 224.800 H 90.900 C 90.800 224.800 90.900 224.900 90.900 224.800 V 219.000 C 90.900 218.900 90.800 219.000 90.900 219.000 H 93.800 C 93.855 219.000 93.900 218.955 93.900 218.900 V 212.900 C 93.900 212.845 93.855 212.800 93.800 212.800 H 90.900 C 90.800 212.800 90.900 212.900 90.900 212.800 V 207.000 C 90.900 206.900 90.800 207.000 90.900 207.000 H 93.800 C 93.855 207.000 93.900 206.955 93.900 206.900 V 200.900 C 93.900 200.845 93.855 200.800 93.800 200.800 H 90.900 C 90.800 200.800 90.900 200.900 90.900 200.800 V 189.400 C 90.900 189.345 90.855 189.300 90.800 189.300 H 55.800 C 55.745 189.300 55.700 189.345 55.700 189.400 V 200.800 C 55.700 200.900 55.800 200.800 55.700 200.800 H 52.800 C 52.745 200.800 52.700 200.845 52.700 200.900 V 206.900 C 52.700 206.955 52.745 207.000 52.800 207.000 H 55.700 C 55.800 207.000 55.700 206.900 55.700 207.000 V 212.800 C 55.700 212.900 55.800 212.800 55.700 212.800 H 52.800 C 52.745 212.800 52.700 212.845 52.700 212.900 V 218.900 C 52.700 218.955 52.745 219.000 52.800 219.000 H 55.700 C 55.800 219.000 55.700 218.900 55.700 219.000 V 224.800 C 55.700 224.900 55.800 224.800 55.700 224.800 H 52.800 C 52.745 224.800 52.700 224.845 52.700 224.900 V 230.900 C 52.700 230.955 52.745 231.000 52.800 231.000 H 55.700 C 55.800 231.000 55.700 230.900 55.700 231.000 V 236.800 C 55.700 236.900 55.800 236.800 55.700 236.800 H 52.800 C 52.745 236.800 52.700 236.845 52.700 236.900 V 242.900 C 52.700 242.955 52.745 243.000 52.800 243.000 H 55.700 C 55.800 243.000 55.700 242.900 55.700 243.000 V 248.800 C 55.700 248.900 55.800 248.800 55.700 248.800 H 52.800 C 52.745 248.800 52.700 248.845 52.700 248.900 V 254.900 C 52.700 254.955 52.745 255.000 52.800 255.000 H 55.700 C 55.800 255.000 55.700 254.900 55.700 255.000 V 260.800 C 55.700 260.900 55.800 260.800 55.700 260.800 H 52.800 C 52.745 260.800 52.700 260.845 52.700 260.900 V 266.900 C 52.700 266.955 52.745 267.000 52.800 267.000 H 55.700 C 55.800 267.000 55.700 266.900 55.700 267.000 V 272.800 C 55.700 272.900 55.800 272.800 55.700 272.800 H 52.800 C 52.745 272.800 52.700 272.845 52.700 272.900 V 278.900 C 52.700 278.955 52.745 279.000 52.800 279.000 H 55.700 C 55.800 279.000 55.700 278.900 55.700 279.000 V 284.800 C 55.700 284.900 55.800 284.800 55.700 284.800 H 52.800 C 52.745 284.800 52.700 284.845 52.700 284.900 V 290.900 C 52.700 290.955 52.745 291.000 52.800 291.000 H 55.700 C 55.800 291.000 55.700 290.900 55.700 291.000 V 296.800 C 55.700 296.900 55.800 296.800 55.700 296.800 H 52.800 C 52.745 296.800 52.700 296.845 52.700 296.900 V 302.900 C 52.700 302.955 52.745 303.000 52.800 303.000 H 55.700 C 55.800 303.000 55.700 302.900 55.700 303.000 V 314.400 C 55.700 314.455 55.745 314.500 55.800 314.500 Z" stroke="rgb(0,0,0)" stroke-width="0.20" />
</g>
<g id="p-3" style="fill:none;stroke-linecap:round;stroke-linejoin:round;">
  <path d="M 98.500 314.500 H 106.900 C 107.000 314.500 106.900 314.400 106.900 314.500 V 317.400 C 106.900 317.455 106.945 317.500 107.000 317.500 H 113.000 C 113.055 317.500 113.100 317.455 113.100 317.400 V 314.500 C 113.100 314.400 113.000 314.500 113.100 314.500 H 118.900 C 119.000 314.500 118.900 314.400 118.900 314.500 V 317.400 C 118.900 317.455 118.945 317.500 119.000 317.500 H 125.000 C 125.055 317.500 125.100 317.455 125.100 317.400 V 314.500 C 125.100 314.400 125.000 314.500 125.100 314.500 H 133.500 H 136.500 C 136.555 314.500 136.600 314.455 136.600 314.400 V 302.900 C 136.600 302.845 136.555 302.800 136.500 302.800 H 133.600 C 133.500 302.800 133.600 302.900 133.600 302.800 V 297.000 C 133.600 296.900 133.500 297.000 133.600 297.000 H 136.500 C 136.555 297.000 136.600 296.955 136.600 296.900 V 290.900 C 136.600 290.845 136.555 290.800 136.500 290.800 H 133.600 C 133.500 290.800 133.600 290.900 133.600 290.800 V 285.000 C 133.600 284.900 133.500 285.000 133.600 285.000 H 136.500 C 136.555 285.000 136.600 284.955 136.600 284.900 V 278.900 C 136.600 278.845 136.555 278.800 136.500 278.800 H 133.600 C 133.500 278.800 133.600 278.900 133.600 278.800 V 273.000 C 133.600 272.900 133.500 273.000 133.600 273.000 H 136.500 C 136.555 273.000 136.600 272.955 136.600 272.900 V 266.900 C 136.600 266.845 136.555 266.800 136.500 266.800 H 133.600 C 133.500 266.800 133.600 266.900 133.600 266.800 V 261.000 C 133.600 260.900 133.500 261.000 133.600 261.000 H 136.500 C 136.555 261.000 136.600 260.955 136.600 260.900 V 254.900 C 136.600 254.845 136.555 254.800 136.500 254.800 H 133.600 C 133.500 254.800 133.600 254.900 133.600 254.800 V 249.000 C 133.600 248.900 133.500 249.000 133.600 249.000 H 136.500 C 136.555 249.000 136.600 248.955 136.600 248.900 V 242.900 C 136.600 242.845 136.555 242.800 136.500 242.800 H 133.600 C 133.500 242.800 133.600 242.900 133.600 242.800 V 237.000 C 133.600 236.900 133.500 237.000 133.600 237.000 H 136.500 C 136.555 237.000 136.600 236.955 136.600 236.900 V 230.900 C 136.600 230.845 136.555 230.800 136.500 230.800 H 133.600 C 133.500 230.800 133.600 230.900 133.600 230.800 V 225.000 C 133.600 224.900 133.500 225.000 133.600 225.000 H 136.500 C 136.555 225.000 136.600 224.955 136.600 224.900 V 218.900 C 136.600 218.845 136.555 218.800 136.500 218.800 H 133.600 C 133.500 218.800 133.600 218.900 133.600 218.800 V 213.000 C 133.600 212.900 133.500 213.000 133.600 213.000 H 136.500 C 136.555 213.000 136.600 212.955 136.600 212.900 V 206.900 C 136.600 206.845 136.555 206.800 136.500 206.800 H 133.600 C 133.500 206.800 133.600 206.900 133.600 206.800 V 201.000 C 133.600 200.900 133.500 201.000 133.600 201.000 H 136.500 C 136.555 201.000 136.600 200.955 136.600 200.900 V 189.400 C 136.600 189.345 136.555 189.300 136.500 189.300 H 133.500 H 98.500 H 95.500 C 95.445 189.300 95.400 189.345 95.400 189.400 V 200.900 C 95.400 200.955 95.445 201.000 95.500 201.000 H 98.400 C 98.500 201.000 98.400 200.900 98.400 201.000 V 206.800 C 98.400 206.900 98.500 206.800 98.400 206.800 H 95.500 C 95.445 206.800 95.400 206.845 95.400 206.900 V 212.900 C 95.400 212.955 95.445 213.000 95.500 213.000 H 98.400 C 98.500 213.000 98.400 212.900 98.400 213.000 V 218.800 C 98.400 218.900 98.500 218.800 98.400 218.800 H 95.500 C 95.445 218.800 95.400 218.845 95.400 218.900 V 224.900 C 95.400 224.955 95.445 225.000 95.500 225.000 H 98.400 C 98.500 225.000 98.400 224.900 98.400 225.000 V 230.800 C 98.400 230.900 98.500 230.800 98.400 230.800 H 95.500 C 95.445 230.800 95.400 230.845 95.400 230.900 V 236.900 C 95.400 236.955 95.445 237.000 95.500 237.000 H 98.400 C 98.500 237.000 98.400 236.900 98.400 237.000 V 242.800 C 98.400 242.900 98.500 242.800 98.400 242.800 H 95.500 C 95.445 242.800 95.400 242.845 95.400 242.900 V 248.900 C 95.400 248.955 95.445 249.000 95.500 249.000 H 98.400 C 98.500 249.000 98.400 248.900 98.400 249.000 V 254.800 C 98.400 254.900 98.500 254.800 98.400 254.800 H 95.500 C 95.445 254.800 95.400 254.845 95.400 254.900 V 260.900 C 95.400 260.955 95.445 261.000 95.500 261.000 H 98.400 C 98.500 261.000 98.400 260.900 98.400 261.000 V 266.800 C 98.400 266.900 98.500 266.800 98.400 266.800 H 95.500 C 95.445 266.800 95.400 266.845 95.400 266.900 V 272.900 C 95.400 272.955 95.445 273.000 95.500 273.000 H 98.400 C 98.500 273.000 98.400 272.900 98.400 273.000 V 278.800 C 98.400 278.900 98.500 278.800 98.400 278.800 H 95.500 C 95.445 278.800 95.400 278.845 95.400 278.900 V 284.900 C 95.400 284.955 95.445 285.000 95.500 285.000 H 98.400 C 98.500 285.000 98.400 284.900 98.400 285.000 V 290.800 C 98.400 290.900 98.500 290.800 98.400 290.800 H 95.500 C 95.445 290.800 95.400 290.845 95.400 290.900 V 296.900 C 95.400 296.955 95.445 297.000 95.500 297.000 H 98.400 C 98.500 297.000 98.400 296.900 98.400 297.000 V 302.800 C 98.400 302.900 98.500 302.800 98.400 302.800 H 95.500 C 95.445 302.800 95.400 302.845 95.400 302.900 V 314.400 C 95.400 314.455 95.445 314.500 95.500 314.500 H 98.500 Z" stroke="rgb(0,0,0)" stroke-width="0.20" />
</g>
<g id="p-4" style="fill:none;stroke-linecap:round;stroke-linejoin:round;">
  <path d="M 141.200 314.500 H 149.600 C 149.700 314.500 149.600 314.400 149.600 314.500 V 317.400 C 149.600 317.455 149.645 317.500 149.700 317.500 H 155.700 C 155.755 317.500 155.800 317.455 155.800 317.400 V 314.500 C 155.800 314.400 155.700 314.500 155.800 314.500 H 161.600 C 161.700 314.500 161.600 314.400 161.600 314.500 V 317.400 C 161.600 317.455 161.645 317.500 161.700 317.500 H 167.700 C 167.755 317.500 167.800 317.455 167.800 317.400 V 314.500 C 167.800 314.400 167.700 314.500 167.800 314.500 H 176.200 C 176.255 314.500 176.300 314.455 176.300 314.400 V 303.000 C 176.300 302.900 176.200 303.000 176.300 303.000 H 179.200 C 179.255 303.000 179.300 302.955 179.300 302.900 V 296.900 C 179.300 296.845 179.255 296.800 179.200 296.800 H 176.300 C 176.200 296.800 176.300 296.900 176.300 296.800 V 291.000 C 176.300 290.900 176.200 291.000 176.300 291.000 H 179.200 C 179.255 291.000 179.300 290.955 179.300 290.900 V 284.900 C 179.300 284.845 179.255 284.800 179.200 284.800 H 176.300 C 176.200 284.800 176.300 284.900 176.300 284.800 V 279.000 C 176.300 278.900 176.200 279.000 176.300 279.000 H 179.200 C 179.255 279.000 179.300 278.955 179.300 278.900 V 272.900 C 179.300 272.845 179.255 272.800 179.200 272.800 H 176.300 C 176.200 272.800 176.300 272.900 176.300 272.800 V 267.000 C 176.300 266.900 176.200 267.000 176.300 267.000 H 179.200 C 179.255 267.000 179.300 266.955 179.300 266.900 V 260.900 C 179.300 260.845 179.255 260.800 179.200 260.800 H 176.300 C 176.200 260.800 176.300 260.900 176.300 260.800 V 255.000 C 176.300 254.900 176.200 255.000 176.300 255.000 H 179.200 C 179.255 255.000 179.300 254.955 179.300 254.900 V 248.900 C 179.300 248.845 179.255 248.800 179.200 248.800 H 176.300 C 176.200 248.800 176.300 248.900 176.300 248.800 V 243.000 C 176.300 242.900 176.200 243.000 176.300 243.000 H 179.200 C 179.255 243.000 179.300 242.955 179.300 242.900 V 236.900 C 179.300 236.845 179.255 236.800 179.200 236.800 H 176.300 C 176.200 236.800 176.300 236.900 176.300 236.800 V 231.000 C 176.300 230.900 176.200 231.000 176.300 231.000 H 179.200 C 179.255 231.000 179.300 230.955 179.300 230.900 V 224.900 C 179.300 224.845 179.255 224.800 179.200 224.800 H 176.300 C 176.200 224.800 176.300 224.900 176.300 224.800 V 219.000 C 176.300 218.900 176.200 219.000 176.300 219.000 H 179.200 C 179.255 219.000 179.300 218.955 179.300 218.900 V 212.900 C 179.300 212.845 179.255 212.800 179.200 212.800 H 176.300 C 176.200 212.800 176.300 212.900 176.300 212.800 V 207.000 C 176.300 206.900 176.200 207.000 176.300 207.000 H 179.200 C 179.255 207.000 179.300 206.955 179.300 206.900 V 200.900 C 179.300 200.845 179.255 200.800 179.200 200.800 H 176.300 C 176.200 200.800 176.300 200.900 176.300 200.800 V 189.400 C 176.300 189.345 176.255 189.300 176.200 189.300 H 141.200 C 141.145 189.300 141.100 189.345 141.100 189.400 V 200.800 C 141.100 200.900 141.200 200.800 141.100 200.800 H 138.200 C 138.145 200.800 138.100 200.845 138.100 200.900 V 206.900 C 138.100 206.955 138.145 207.000 138.200 207.000 H 141.100 C 141.200 207.000 141.100 206.900 141.100 207.000 V 212.800 C 141.100 212.900 141.200 212.800 141.100 212.800 H 138.200 C 138.145 212.800 138.100 212.845 138.100 212.900 V 218.900 C 138.100 218.955 138.145 219.000 138.200 219.000 H 141.100 C 141.200 219.000 141.100 218.900 141.100 219.000 V 224.800 C 141.100 224.900 141.200 224.800 141.100 224.800 H 138.200 C 138.145 224.800 138.100 224.845 138.100 224.900 V 230.900 C 138.100 230.955 138.145 231.000 138.200 231.000 H 141.100 C 141.200 231.000 141.100 230.900 141.100 231.000 V 236.800 C 141.100 236.900 141.200 236.800 141.100 236.800 H 138.200 C 138.145 236.800 138.100 236.845 138.100 236.900 V 242.900 C 138.100 242.955 138.145 243.000 138.200 243.000 H 141.100 C 141.200 243.000 141.100 242.900 141.100 243.000 V 248.800 C 141.100 248.900 141.200 248.800 141.100 248.800 H 138.200 C 138.145 248.800 138.100 248.845 138.100 248.900 V 254.900 C 138.100 254.955 138.145 255.000 138.200 255.000 H 141.100 C 141.200 255.000 141.100 254.900 141.100 255.000 V 260.800 C 141.100 260.900 141.200 260.800 141.100 260.800 H 138.200 C 138.145 260.800 138.100 260.845 138.100 260.900 V 266.900 C 138.100 266.955 138.145 267.000 138.200 267.000 H 141.100 C 141.200 267.000 141.100 266.900 141.100 267.000 V 272.800 C 141.100 272.900 141.200 272.800 141.100 272.800 H 138.200 C 138.145 272.800 138.100 272.845 138.100 272.900 V 278.900 C 138.100 278.955 138.145 279.000 138.200 279.000 H 141.100 C 141.200 279.000 141.100 278.900 141.100 279.000 V 284.800 C 141.100 284.900 141.200 284.800 141.100 284.800 H 138.200 C 138.145 284.800 138.100 284.845 138.100 284.900 V 290.900 C 138.100 290.955 138.145 291.000 138.200 291.000 H 141.100 C 141.200 291.000 141.100 290.900 141.100 291.000 V 296.800 C 141.100 296.900 141.200 296.800 141.100 296.800 H 138.200 C 138.145 296.800 138.100 296.845 138.100 296.900 V 302.900 C 138.100 302.955 138.145 303.000 138.200 303.000 H 141.100 C 141.200 303.000 141.100 302.900 141.100 303.000 V 314.400 C 141.100 314.455 141.145 314.500 141.200 314.500 Z" stroke="rgb(0,0,0)" stroke-width="0.20" />
</g>
<g id="p-5" style="fill:none;stroke-linecap:round;stroke-linejoin:round;">
  <path d="M 13.100 184.800 H 24.950 C 25.050 184.800 24.950 184.700 24.950 184.800 V 187.700 C 24.950 187.755 24.995 187.800 25.050 187.800 H 31.050 C 31.105 187.800 31.150 187.755 31.150 187.700 V 184.800 C 31.150 184.700 31.050 184.800 31.150 184.800 H 36.950 C 37.050 184.800 36.950 184.700 36.950 184.800 V 187.700 C 36.950 187.755 36.995 187.800 37.050 187.800 H 43.050 C 43.105 187.800 43.150 187.755 43.150 187.700 V 184.800 C 43.150 184.700 43.050 184.800 43.150 184.800 H 55.000 H 58.000 C 58.055 184.800 58.100 184.755 58.100 184.700 V 173.200 C 58.100 173.145 58.055 173.100 58.000 173.100 H 55.100 C 55.000 173.100 55.100 173.200 55.100 173.100 V 167.300 C 55.100 167.200 55.000 167.300 55.100 167.300 H 58.000 C 58.055 167.300 58.100 167.255 58.100 167.200 V 161.200 C 58.100 161.145 58.055 161.100 58.000 161.100 H 55.100 C 55.000 161.100 55.100 161.200 55.100 161.100 V 155.300 C 55.100 155.200 55.000 155.300 55.100 155.300 H 58.000 C 58.055 155.300 58.100 155.255 58.100 155.200 V 149.200 C 58.100 149.145 58.055 149.100 58.000 149.100 H 55.100 C 55.000 149.100 55.100 149.200 55.100 149.100 V 143.300 C 55.100 143.200 55.000 143.300 55.100 143.300 H 58.000 C 58.055 143.300 58.100 143.255 58.100 143.200 V 137.200 C 58.100 137.145 58.055 137.100 58.000 137.100 H 55.100 C 55.000 137.100 55.100 137.200 55.100 137.100 V 131.300 C 55.100 131.200 55.000 131.300 55.100 131.300 H 58.000 C 58.055 131.300 58.100 131.255 58.100 131.200 V 125.200 C 58.100 125.145 58.055 125.100 58.000 125.100 H 55.100 C 55.000 125.100 55.100 125.200 55.100 125.100 V 119.300 C 55.100 119.200 55.000 119.300 55.100 119.300 H 58.000 C 58.055 119.300 58.100 119.255 58.100 119.200 V 113.200 C 58.100 113.145 58.055 113.100 58.000 113.100 H 55.100 C 55.000 113.100 55.100 113.200 55.100 113.100 V 107.300 C 55.100 107.200 55.000 107.300 55.100 107.300 H 58.000 C 58.055 107.300 58.100 107.255 58.100 107.200 V 101.200 C 58.100 101.145 58.055 101.100 58.000 101.100 H 55.100 C 55.000 101.100 55.100 101.200 55.100 101.100 V 95.300 C 55.100 95.200 55.000 95.300 55.100 95.300 H 58.000 C 58.055 95.300 58.100 95.255 58.100 95.200 V 89.200 C 58.100 89.145 58.055 89.100 58.000 89.100 H 55.100 C 55.000 89.100 55.100 89.200 55.100 89.100 V 83.300 C 55.100 83.200 55.000 83.300 55.100 83.300 H 58.000 C 58.055 83.300 58.100 83.255 58.100 83.200 V 77.200 C 58.100 77.145 58.055 77.100 58.000 77.100 H 55.100 C 55.000 77.100 55.100 77.200 55.100 77.100 V 71.300 C 55.100 71.200 55.000 71.300 55.100 71.300 H 58.000 C 58.055 71.300 58.100 71.255 58.100 71.200 V 59.700 C 58.100 59.645 58.055 59.600 58.000 59.600 H 55.000 H 13.100 H 10.100 C 10.045 59.600 10.000 59.645 10.000 59.700 V 71.200 C 10.000 71.255 10.045 71.300 10.100 71.300 H 13.000 C 13.100 71.300 13.000 71.200 13.000 71.300 V 77.100 C 13.000 77.200 13.100 77.100 13.000 77.100 H 10.100 C 10.045 77.100 10.000 77.145 10.000 77.200 V 83.200 C 10.000 83.255 10.045 83.300 10.100 83.300 H 13.000 C 13.100 83.300 13.000 83.200 13.000 83.300 V 89.100 C 13.000 89.200 13.100 89.100 13.000 89.100 H 10.100 C 10.045 89.100 10.000 89.145 10.000 89.200 V 95.200 C 10.000 95.255 10.045 95.300 10.100 95.300 H 13.000 C 13.100 95.300 13.000 95.200 13.000 95.300 V 101.100 C 13.000 101.200 13.100 101.100 13.000 101.100 H 10.100 C 10.045 101.100 10.000 101.145 10.000 101.200 V 107.200 C 10.000 107.255 10.045 107.300 10.100 107.300 H 13.000 C 13.100 107.300 13.000 107.200 13.000 107.300 V 113.100 C 13.000 113.200 13.100 113.100 13.000 113.100 H 10.100 C 10.045 113.100 10.000 113.145 10.000 113.200 V 119.200 C 10.000 119.255 10.045 119.300 10.100 119.300 H 13.000 C 13.100 119.300 13.000 119.200 13.000 119.300 V 125.100 C 13.000 125.200 13.100 125.100 13.000 125.100 H 10.100 C 10.045 125.100 10.000 125.145 10.000 125.200 V 131.200 C 10.000 131.255 10.045 131.300 10.100 131.300 H 13.000 C 13.100 131.300 13.000 131.200 13.000 131.300 V 137.100 C 13.000 137.200 13.100 137.100 13.000 137.100 H 10.100 C 10.045 137.100 10.000 137.145 10.000 137.200 V 143.200 C 10.000 143.255 10.045 143.300 10.100 143.300 H 13.000 C 13.100 143.300 13.000 143.200 13.000 143.300 V 149.100 C 13.000 149.200 13.100 149.100 13.000 149.100 H 10.100 C 10.045 149.100 10.000 149.145 10.000 149.200 V 155.200 C 10.000 155.255 10.045 155.300 10.100 155.300 H 13.000 C 13.100 155.300 13.000 155.200 13.000 155.300 V 161.100 C 13.000 161.200 13.100 161.100 13.000 161.100 H 10.100 C 10.045 161.100 10.000 161.145 10.000 161.200 V 167.200 C 10.000 167.255 10.045 167.300 10.100 167.300 H 13.000 C 13.100 167.300 13.000 167.200 13.000 167.300 V 173.100 C 13.000 173.200 13.100 173.100 13.000 173.100 H 10.100 C 10.045 173.100 10.000 173.145 10.000 173.200 V 184.700 C 10.000 184.755 10.045 184.800 10.100 184.800 H 13.100 Z" stroke="rgb(0,0,0)" stroke-width="0.20" />
</g>
<g id="p-6" style="fill:none;stroke-linecap:round;stroke-linejoin:round;">
  <path d="M 62.700 184.800 H 74.550 C 74.650 184.800 74.550 184.700 74.550 184.800 V 187.700 C 74.550 187.755 74.595 187.800 74.650 187.800 H 80.650 C 80.705 187.800 80.750 187.755 80.750 187.700 V 184.800 C 80.750 184.700 80.650 184.800 80.750 184.800 H 86.550 C 86.650 184.800 86.550 184.700 86.550 184.800 V 187.700 C 86.550 187.755 86.595 187.800 86.650 187.800 H 92.650 C 92.705 187.800 92.750 187.755 92.750 187.700 V 184.800 C 92.750 184.700 92.650 184.800 92.750 184.800 H 104.600 C 104.655 184.800 104.700 184.755 104.700 184.700 V 173.300 C 104.700 173.200 104.600 173.300 104.700 173.300 H 107.600 C 107.655 173.300 107.700 173.255 107.700 173.200 V 167.200 C 107.700 167.145 107.655 167.100 107.600 167.100 H 104.700 C 104.600 167.100 104.700 167.200 104.700 167.100 V 161.300 C 104.700 161.200 104.600 161.300 104.700 161.300 H 107.600 C 107.655 161.300 107.700 161.255 107.700 161.200 V 155.200 C 107.700 155.145 107.655 155.100 107.600 155.100 H 104.700 C 104.600 155.100 104.700 155.200 104.700 155.100 V 149.300 C 104.700 149.200 104.600 149.300 104.700 149.300 H 107.600 C 107.655 149.300 107.700 149.255 107.700 149.200 V 143.200 C 107.700 143.145 107.655 143.100 107.600 143.100 H 104.700 C 104.600 143.100 104.700 143.200 104.700 143.100 V 137.300 C 104.700 137.200 104.600 137.300 104.700 137.300 H 107.600 C 107.655 137.300 107.700 137.255 107.700 137.200 V 131.200 C 107.700 131.145 107.655 131.100 107.600 131.100 H 104.700 C 104.600 131.100 104.700 131.200 104.700 131.100 V 125.300 C 104.700 125.200 104.600 125.300 104.700 125.300 H 107.600 C 107.655 125.300 107.700 125.255 107.700 125.200 V 119.200 C 107.700 119.145 107.655 119.100 107.600 119.100 H 104.700 C 104.600 119.100 104.700 119.200 104.700 119.100 V 113.300 C 104.700 113.200 104.600 113.300 104.700 113.300 H 107.600 C 107.655 113.300 107.700 113.255 107.700 113.200 V 107.200 C 107.700 107.145 107.655 107.100 107.600 107.100 H 104.700 C 104.600 107.100 104.700 107.200 104.700 107.100 V 101.300 C 104.700 101.200 104.600 101.300 104.700 101.300 H 107.600 C 107.655 101.300 107.700 101.255 107.700 101.200 V 95.200 C 107.700 95.145 107.655 95.100 107.600 95.100 H 104.700 C 104.600 95.100 104.700 95.200 104.700 95.100 V 89.300 C 104.700 89.200 104.600 89.300 104.700 89.300 H 107.600 C 107.655 89.300 107.700 89.255 107.700 89.200 V 83.200 C 107.700 83.145 107.655 83.100 107.600 83.100 H 104.700 C 104.600 83.100 104.700 83.200 104.700 83.100 V 77.300 C 104.700 77.200 104.600 77.300 104.700 77.300 H 107.600 C 107.655 77.300 107.700 77.255 107.700 77.200 V 71.200 C 107.700 71.145 107.655 71.100 107.600 71.100 H 104.700 C 104.600 71.100 104.700 71.200 104.700 71.100 V 59.700 C 104.700 59.645 104.655 59.600 104.600 59.600 H 62.700 C 62.645 59.600 62.600 59.645 62.600 59.700 V 71.100 C 62.600 71.200 62.700 71.100 62.600 71.100 H 59.700 C 59.645 71.100 59.600 71.145 59.600 71.200 V 77.200 C 59.600 77.255 59.645 77.300 59.700 77.300 H 62.600 C 62.700 77.300 62.600 77.200 62.600 77.300 V 83.100 C 62.600 83.200 62.700 83.100 62.600 83.100 H 59.700 C 59.645 83.100 59.600 83.145 59.600 83.200 V 89.200 C 59.600 89.255 59.645 89.300 59.700 89.300 H 62.600 C 62.700 89.300 62.600 89.200 62.600 89.300 V 95.100 C 62.600 95.200 62.700 95.100 62.600 95.100 H 59.700 C 59.645 95.100 59.600 95.145 59.600 95.200 V 101.200 C 59.600 101.255 59.645 101.300 59.700 101.300 H 62.600 C 62.700 101.300 62.600 101.200 62.600 101.300 V 107.100 C 62.600 107.200 62.700 107.100 62.600 107.100 H 59.700 C 59.645 107.100 59.600 107.145 59.600 107.200 V 113.200 C 59.600 113.255 59.645 113.300 59.700 113.300 H 62.600 C 62.700 113.300 62.600 113.200 62.600 113.300 V 119.100 C 62.600 119.200 62.700 119.100 62.600 119.100 H 59.700 C 59.645 119.100 59.600 119.145 59.600 119.200 V 125.200 C 59.600 125.255 59.645 125.300 59.700 125.300 H 62.600 C 62.700 125.300 62.600 125.200 62.600 125.300 V 131.100 C 62.600 131.200 62.700 131.100 62.600 131.100 H 59.700 C 59.645 131.100 59.600 131.145 59.600 131.200 V 137.200 C 59.600 137.255 59.645 137.300 59.700 137.300 H 62.600 C 62.700 137.300 62.600 137.200 62.600 137.300 V 143.100 C 62.600 143.200 62.700 143.100 62.600 143.100 H 59.700 C 59.645 143.100 59.600 143.145 59.600 143.200 V 149.200 C 59.600 149.255 59.645 149.300 59.700 149.300 H 62.600 C 62.700 149.300 62.600 149.200 62.600 149.300 V 155.100 C 62.600 155.200 62.700 155.100 62.600 155.100 H 59.700 C 59.645 155.100 59.600 155.145 59.600 155.200 V 161.200 C 59.600 161.255 59.645 161.300 59.700 161.300 H 62.600 C 62.700 161.300 62.600 161.200 62.600 161.300 V 167.100 C 62.600 167.200 62.700 167.100 62.600 167.100 H 59.700 C 59.645 167.100 59.600 167.145 59.600 167.200 V 173.200 C 59.600 173.255 59.645 173.300 59.700 173.300 H 62.600 C 62.700 173.300 62.600 173.200 62.600 173.300 V 184.700 C 62.600 184.755 62.645 184.800 62.700 184.800 Z" stroke="rgb(0,0,0)" stroke-width="0.20" />
</g>
<g id="p-7" style="fill:none;stroke-linecap:round;stroke-linejoin:round;">
  <path d="M 112.300 184.800 H 124.150 C 124.250 184.800 124.150 184.700 124.150 184.800 V 187.700 C 124.150 187.755 124.195 187.800 124.250 187.800 H 130.250 C 130.305 187.800 130.350 187.755 130.350 187.700 V 184.800 C 130.350 184.700 130.250 184.800 130.350 184.800 H 136.150 C 136.250 184.800 136.150 184.700 136.150 184.800 V 187.700 C 136.150 187.755 136.195 187.800 136.250 187.800 H 142.250 C 142.305 187.800 142.350 187.755 142.350 187.700 V 184.800 C 142.350 184.700 142.250 184.800 142.350 184.800 H 154.200 H 157.200 C 157.255 184.800 157.300 184.755 157.300 184.700 V 173.200 C 157.300 173.145 157.255 173.100 157.200 173.100 H 154.300 C 154.200 173.100 154.300 173.200 154.300 173.100 V 167.300 C 154.300 167.200 154.200 167.300 154.300 167.300 H 157.200 C 157.255 167.300 157.300 167.255 157.300 167.200 V 161.200 C 157.300 161.145 157.255 161.100 157.200 161.100 H 154.300 C 154.200 161.100 154.300 161.200 154.300 161.100 V 155.300 C 154.300 155.200 154.200 155.300 154.300 155.300 H 157.200 C 157.255 155.300 157.300 155.255 157.300 155.200 V 149.200 C 157.300 149.145 157.255 149.100 157.200 149.100 H 154.300 C 154.200 149.100 154.300 149.200 154.300 149.100 V 143.300 C 154.300 143.200 154.200 143.300 154.300 143.300 H 157.200 C 157.255 143.300 157.300 143.255 157.300 143.200 V 137.200 C 157.300 137.145 157.255 137.100 157.200 137.100 H 154.300 C 154.200 137.100 154.300 137.200 154.300 137.100 V 131.300 C 154.300 131.200 154.200 131.300 154.300 131.300 H 157.200 C 157.255 131.300 157.300 131.255 157.300 131.200 V 125.200 C 157.300 125.145 157.255 125.100 157.200 125.100 H 154.300 C 154.200 125.100 154.300 125.200 154.300 125.100 V 119.300 C 154.300 119.200 154.200 119.300 154.300 119.300 H 157.200 C 157.255 119.300 157.300 119.255 157.300 119.200 V 113.200 C 157.300 113.145 157.255 113.100 157.200 113.100 H 154.300 C 154.200 113.100 154.300 113.200 154.300 113.100 V 107.300 C 154.300 107.200 154.200 107.300 154.300 107.300 H 157.200 C 157.255 107.300 157.300 107.255 157.300 107.200 V 101.200 C 157.300 101.145 157.255 101.100 157.200 101.100 H 154.300 C 154.200 101.100 154.300 101.200 154.300 101.100 V 95.300 C 154.300 95.200 154.200 95.300 154.300 95.300 H 157.200 C 157.255 95.300 157.300 95.255 157.300 95.200 V 89.200 C 157.300 89.145 157.255 89.100 157.200 89.100 H 154.300 C 154.200 89.100 154.300 89.200 154.300 89.100 V 83.300 C 154.300 83.200 154.200 83.300 154.300 83.300 H 157.200 C 157.255 83.300 157.300 83.255 157.300 83.200 V 77.200 C 157.300 77.145 157.255 77.100 157.200 77.100 H 154.300 C 154.200 77.100 154.300 77.200 154.300 77.100 V 71.300 C 154.300 71.200 154.200 71.300 154.300 71.300 H 157.200 C 157.255 71.300 157.300 71.255 157.300 71.200 V 59.700 C 157.300 59.645 157.255 59.600 157.200 59.600 H 154.200 H 112.300 H 109.300 C 109.245 59.600 109.200 59.645 109.200 59.700 V 71.200 C 109.200 71.255 109.245 71.300 109.300 71.300 H 112.200 C 112.300 71.300 112.200 71.200 112.200 71.300 V 77.100 C 112.200 77.200 112.300 77.100 112.200 77.100 H 109.300 C 109.245 77.100 109.200 77.145 109.200 77.200 V 83.200 C 109.200 83.255 109.245 83.300 109.300 83.300 H 112.200 C 112.300 83.300 112.200 83.200 112.200 83.300 V 89.100 C 112.200 89.200 112.300 89.100 112.200 89.100 H 109.300 C 109.245 89.100 109.200 89.145 109.200 89.200 V 95.200 C 109.200 95.255 109.245 95.300 109.300 95.300 H 112.200 C 112.300 95.300 112.200 95.200 112.200 95.300 V 101.100 C 112.200 101.200 112.300 101.100 112.200 101.100 H 109.300 C 109.245 101.100 109.200 101.145 109.200 101.200 V 107.200 C 109.200 107.255 109.245 107.300 109.300 107.300 H 112.200 C 112.300 107.300 112.200 107.200 112.200 107.300 V 113.100 C 112.200 113.200 112.300 113.100 112.200 113.100 H 109.300 C 109.245 113.100 109.200 113.145 109.200 113.200 V 119.200 C 109.200 119.255 109.245 119.300 109.300 119.300 H 112.200 C 112.300 119.300 112.200 119.200 112.200 119.300 V 125.100 C 112.200 125.200 112.300 125.100 112.200 125.100 H 109.300 C 109.245 125.100 109.200 125.145 109.200 125.200 V 131.200 C 109.200 131.255 109.245 131.300 109.300 131.300 H 112.200 C 112.300 131.300 112.200 131.200 112.200 131.300 V 137.100 C 112.200 137.200 112.300 137.100 112.200 137.100 H 109.300 C 109.245 137.100 109.200 137.145 109.200 137.200 V 143.200 C 109.200 143.255 109.245 143.300 109.300 143.300 H 112.200 C 112.300 143.300 112.200 143.200 112.200 143.300 V 149.100 C 112.200 149.200 112.300 149.100 112.200 149.100 H 109.300 C 109.245 149.100 109.200 149.145 109.200 149.200 V 155.200 C 109.200 155.255 109.245 155.300 109.300 155.300 H 112.200 C 112.300 155.300 112.200 155.200 112.200 155.300 V 161.100 C 112.200 161.200 112.300 161.100 112.200 161.100 H 109.300 C 109.245 161.100 109.200 161.145 109.200 161.200 V 167.200 C 109.200 167.255 109.245 167.300 109.300 167.300 H 112.200 C 112.300 167.300 112.200 167.200 112.200 167.300 V 173.100 C 112.200 173.200 112.300 173.100 112.200 173.100 H 109.300 C 109.245 173.100 109.200 173.145 109.200 173.200 V 184.700 C 109.200 184.755 109.245 184.800 109.300 184.800 H 112.300 Z" stroke="rgb(0,0,0)" stroke-width="0.20" />
</g>
<g id="p-8" style="fill:none;stroke-linecap:round;stroke-linejoin:round;">
  <path d="M 161.900 184.800 H 173.750 C 173.850 184.800 173.750 184.700 173.750 184.800 V 187.700 C 173.750 187.755 173.795 187.800 173.850 187.800 H 179.850 C 179.905 187.800 179.950 187.755 179.950 187.700 V 184.800 C 179.950 184.700 179.850 184.800 179.950 184.800 H 185.750 C 185.850 184.800 185.750 184.700 185.750 184.800 V 187.700 C 185.750 187.755 185.795 187.800 185.850 187.800 H 191.850 C 191.905 187.800 191.950 187.755 191.950 187.700 V 184.800 C 191.950 184.700 191.850 184.800 191.950 184.800 H 203.800 C 203.855 184.800 203.900 184.755 203.900 184.700 V 173.300 C 203.900 173.200 203.800 173.300 203.900 173.300 H 206.800 C 206.855 173.300 206.900 173.255 206.900 173.200 V 167.200 C 206.900 167.145 206.855 167.100 206.800 167.100 H 203.900 C 203.800 167.100 203.900 167.200 203.900 167.100 V 161.300 C 203.900 161.200 203.800 161.300 203.900 161.300 H 206.800 C 206.855 161.300 206.900 161.255 206.900 161.200 V 155.200 C 206.900 155.145 206.855 155.100 206.800 155.100 H 203.900 C 203.800 155.100 203.900 155.200 203.900 155.100 V 149.300 C 203.900 149.200 203.800 149.300 203.900 149.300 H 206.800 C 206.855 149.300 206.900 149.255 206.900 149.200 V 143.200 C 206.900 143.145 206.855 143.100 206.800 143.100 H 203.900 C 203.800 143.100 203.900 143.200 203.900 143.100 V 137.300 C 203.900 137.200 203.800 137.300 203.900 137.300 H 206.800 C 206.855 137.300 206.900 137.255 206.900 137.200 V 131.200 C 206.900 131.145 206.855 131.100 206.800 131.100 H 203.900 C 203.800 131.100 203.900 131.200 203.900 131.100 V 125.300 C 203.900 125.200 203.800 125.300 203.900 125.300 H 206.800 C 206.855 125.300 206.900 125.255 206.900 125.200 V 119.200 C 206.900 119.145 206.855 119.100 206.800 119.100 H 203.900 C 203.800 119.100 203.900 119.200 203.900 119.100 V 113.300 C 203.900 113.200 203.800 113.300 203.900 113.300 H 206.800 C 206.855 113.300 206.900 113.255 206.900 113.200 V 107.200 C 206.900 107.145 206.855 107.100 206.800 107.100 H 203.900 C 203.800 107.100 203.900 107.200 203.900 107.100 V 101.300 C 203.900 101.200 203.800 101.300 203.900 101.300 H 206.800 C 206.855 101.300 206.900 101.255 206.900 101.200 V 95.200 C 206.900 95.145 206.855 95.100 206.800 95.100 H 203.900 C 203.800 95.100 203.900 95.200 203.900 95.100 V 89.300 C 203.900 89.200 203.800 89.300 203.900 89.300 H 206.800 C 206.855 89.300 206.900 89.255 206.900 89.200 V 83.200 C 206.900 83.145 206.855 83.100 206.800 83.100 H 203.900 C 203.800 83.100 203.900 83.200 203.900 83.100 V 77.300 C 203.900 77.200 203.800 77.300 203.900 77.300 H 206.800 C 206.855 77.300 206.900 77.255 206.900 77.200 V 71.200 C 206.900 71.145 206.855 71.100 206.800 71.100 H 203.900 C 203.800 71.100 203.900 71.200 203.900 71.100 V 59.700 C 203.900 59.645 203.855 59.600 203.800 59.600 H 161.900 C 161.845 59.600 161.800 59.645 161.800 59.700 V 71.100 C 161.800 71.200 161.900 71.100 161.800 71.100 H 158.900 C 158.845 71.100 158.800 71.145 158.800 71.200 V 77.200 C 158.800 77.255 158.845 77.300 158.900 77.300 H 161.800 C 161.900 77.300 161.800 77.200 161.800 77.300 V 83.100 C 161.800 83.200 161.900 83.100 161.800 83.100 H 158.900 C 158.845 83.100 158.800 83.145 158.800 83.200 V 89.200 C 158.800 89.255 158.845 89.300 158.900 89.300 H 161.800 C 161.900 89.300 161.800 89.200 161.800 89.300 V 95.100 C 161.800 95.200 161.900 95.100 161.800 95.100 H 158.900 C 158.845 95.100 158.800 95.145 158.800 95.200 V 101.200 C 158.800 101.255 158.845 101.300 158.900 101.300 H 161.800 C 161.900 101.300 161.800 101.200 161.800 101.300 V 107.100 C 161.800 107.200 161.900 107.100 161.800 107.100 H 158.900 C 158.845 107.100 158.800 107.145 158.800 107.200 V 113.200 C 158.800 113.255 158.845 113.300 158.900 113.300 H 161.800 C 161.900 113.300 161.800 113.200 161.800 113.300 V 119.100 C 161.800 119.200 161.900 119.100 161.800 119.100 H 158.900 C 158.845 119.100 158.800 119.145 158.800 119.200 V 125.200 C 158.800 125.255 158.845 125.300 158.900 125.300 H 161.800 C 161.900 125.300 161.800 125.200 161.800 125.300 V 131.100 C 161.800 131.200 161.900 131.100 161.800 131.100 H 158.900 C 158.845 131.100 158.800 131.145 158.800 131.200 V 137.200 C 158.800 137.255 158.845 137.300 158.900 137.300 H 161.800 C 161.900 137.300 161.800 137.200 161.800 137.300 V 143.100 C 161.800 143.200 161.900 143.100 161.800 143.100 H 158.900 C 158.845 143.100 158.800 143.145 158.800 143.200 V 149.200 C 158.800 149.255 158.845 149.300 158.900 149.300 H 161.800 C 161.900 149.300 161.800 149.200 161.800 149.300 V 155.100 C 161.800 155.200 161.900 155.100 161.800 155.100 H 158.900 C 158.845 155.100 158.800 155.145 158.800 155.200 V 161.200 C 158.800 161.255 158.845 161.300 158.900 161.300 H 161.800 C 161.900 161.300 161.800 161.200 161.800 161.300 V 167.100 C 161.800 167.200 161.900 167.100 161.800 167.100 H 158.900 C 158.845 167.100 158.800 167.145 158.800 167.200 V 173.200 C 158.800 173.255 158.845 173.300 158.900 173.300 H 161.800 C 161.900 173.300 161.800 173.200 161.800 173.300 V 184.700 C 161.800 184.755 161.845 184.800 161.900 184.800 Z" stroke="rgb(0,0,0)" stroke-width="0.20" />
</g>
<g id="p-9" style="fill:none;stroke-linecap:round;stroke-linejoin:round;">
  <path d="M 28.050 54.450 H 25.150 C 25.050 54.450 25.150 54.550 25.150 54.450 V 51.650 C 25.150 51.550 25.050 51.650 25.150 51.650 H 30.950 C 31.050 51.650 30.950 51.550 30.950 51.650 V 54.450 C 30.950 54.550 31.050 54.450 30.950 54.450 H 28.050 Z" stroke="rgb(0,0,255)" stroke-width="0.20" />
  <path d="M 40.050 54.450 H 37.150 C 37.050 54.450 37.150 54.550 37.150 54.450 V 51.650 C 37.150 51.550 37.050 51.650 37.150 51.650 H 42.950 C 43.050 51.650 42.950 51.550 42.950 51.650 V 54.450 C 42.950 54.550 43.050 54.450 42.950 54.450 H 40.050 Z" stroke="rgb(0,0,255)" stroke-width="0.20" />
  <path d="M 16.550 58.100 H 51.550 H 58.000 C 58.055 58.100 58.100 58.055 58.100 58.000 V 51.550 V 16.550 V 10.100 C 58.100 10.045 58.055 10.000 58.000 10.000 H 51.550 H 16.550 H 10.100 C 10.045 10.000 10.000 10.045 10.000 10.100 V 16.550 V 51.550 V 58.000 C 10.000 58.055 10.045 58.100 10.100 58.100 H 16.550 Z" stroke="rgb(0,0,0)" stroke-width="0.20" />
  <path d="M 54.450 40.050 V 42.950 C 54.450 43.050 54.550 42.950 54.450 42.950 H 51.650 C 51.550 42.950 51.650 43.050 51.650 42.950 V 37.150 C 51.650 37.050 51.550 37.150 51.650 37.150 H 54.450 C 54.550 37.150 54.450 37.050 54.450 37.150 V 40.050 Z" stroke="rgb(0,0,255)" stroke-width="0.20" />
  <path d="M 54.450 28.050 V 30.950 C 54.450 31.050 54.550 30.950 54.450 30.950 H 51.650 C 51.550 30.950 51.650 31.050 51.650 30.950 V 25.150 C 51.650 25.050 51.550 25.150 51.650 25.150 H 54.450 C 54.550 25.150 54.450 25.050 54.450 25.150 V 28.050 Z" stroke="rgb(0,0,255)" stroke-width="0.20" />
  <path d="M 40.050 13.650 H 42.950 C 43.050 13.650 42.950 13.550 42.950 13.650 V 16.450 C 42.950 16.550 43.050 16.450 42.950 16.450 H 37.150 C 37.050 16.450 37.150 16.550 37.150 16.450 V 13.650 C 37.150 13.550 37.050 13.650 37.150 13.650 H 40.050 Z" stroke="rgb(0,0,255)" stroke-width="0.20" />
  <path d="M 28.050 13.650 H 30.950 C 31.050 13.650 30.950 13.550 30.950 13.650 V 16.450 C 30.950 16.550 31.050 16.450 30.950 16.450 H 25.150 C 25.050 16.450 25.150 16.550 25.150 16.450 V 13.650 C 25.150 13.550 25.050 13.650 25.150 13.650 H 28.050 Z" stroke="rgb(0,0,255)" stroke-width="0.20" />
  <path d="M 13.650 28.050 V 25.150 C 13.650 25.050 13.550 25.150 13.650 25.150 H 16.450 C 16.550 25.150 16.450 25.050 16.450 25.150 V 30.950 C 16.450 31.050 16.550 30.950 16.450 30.950 H 13.650 C 13.550 30.950 13.650 31.050 13.650 30.950 V 28.050 Z" stroke="rgb(0,0,255)" stroke-width="0.20" />
  <path d="M 13.650 40.050 V 37.150 C 13.650 37.050 13.550 37.150 13.650 37.150 H 16.450 C 16.550 37.150 16.450 37.050 16.450 37.150 V 42.950 C 16.450 43.050 16.550 42.950 16.450 42.950 H 13.650 C 13.550 42.950 13.650 43.050 13.650 42.950 V 40.050 Z" stroke="rgb(0,0,255)" stroke-width="0.20" />
</g>
<g id="p-10" style="fill:none;stroke-linecap:round;stroke-linejoin:round;">
  <path d="M 62.700 58.100 H 74.650 C 74.705 58.100 74.750 58.055 74.750 58.000 V 55.100 C 74.750 55.000 74.650 55.100 74.750 55.100 H 80.550 C 80.650 55.100 80.550 55.000 80.550 55.100 V 58.000 C 80.550 58.055 80.595 58.100 80.650 58.100 H 86.650 C 86.705 58.100 86.750 58.055 86.750 58.000 V 55.100 C 86.750 55.000 86.650 55.100 86.750 55.100 H 92.550 C 92.650 55.100 92.550 55.000 92.550 55.100 V 58.000 C 92.550 58.055 92.595 58.100 92.650 58.100 H 104.600 H 107.600 C 107.655 58.100 107.700 58.055 107.700 58.000 V 55.000 V 43.050 C 107.700 42.995 107.655 42.950 107.600 42.950 H 104.700 C 104.600 42.950 104.700 43.050 104.700 42.950 V 37.150 C 104.700 37.050 104.600 37.150 104.700 37.150 H 107.600 C 107.655 37.150 107.700 37.105 107.700 37.050 V 31.050 C 107.700 30.995 107.655 30.950 107.600 30.950 H 104.700 C 104.600 30.950 104.700 31.050 104.700 30.950 V 25.150 C 104.700 25.050 104.600 25.150 104.700 25.150 H 107.600 C 107.655 25.150 107.700 25.105 107.700 25.050 V 13.100 V 10.100 C 107.700 10.045 107.655 10.000 107.600 10.000 H 104.600 H 92.650 C 92.595 10.000 92.550 10.045 92.550 10.100 V 13.000 C 92.550 13.100 92.650 13.000 92.550 13.000 H 86.750 C 86.650 13.000 86.750 13.100 86.750 13.000 V 10.100 C 86.750 10.045 86.705 10.000 86.650 10.000 H 80.650 C 80.595 10.000 80.550 10.045 80.550 10.100 V 13.000 C 80.550 13.100 80.650 13.000 80.550 13.000 H 74.750 C 74.650 13.000 74.750 13.100 74.750 13.000 V 10.100 C 74.750 10.045 74.705 10.000 74.650 10.000 H 62.700 H 59.700 C 59.645 10.000 59.600 10.045 59.600 10.100 V 13.100 V 25.050 C 59.600 25.105 59.645 25.150 59.700 25.150 H 62.600 C 62.700 25.150 62.600 25.050 62.600 25.150 V 30.950 C 62.600 31.050 62.700 30.950 62.600 30.950 H 59.700 C 59.645 30.950 59.600 30.995 59.600 31.050 V 37.050 C 59.600 37.105 59.645 37.150 59.700 37.150 H 62.600 C 62.700 37.150 62.600 37.050 62.600 37.150 V 42.950 C 62.600 43.050 62.700 42.950 62.600 42.950 H 59.700 C 59.645 42.950 59.600 42.995 59.600 43.050 V 55.000 V 58.000 C 59.600 58.055 59.645 58.100 59.700 58.100 H 62.700 Z" stroke="rgb(0,0,0)" stroke-width="0.20" />
</g>
</svg>