<?xml version='1.0' encoding='utf-8'?>
<svg height="344.30mm" viewBox="0.0 0.0 186.90 344.30" width="186.90mm" xmlns="http://www.w3.org/2000/svg" xmlns:cc="http://creativecommons.org/ns#" xmlns:dc="http://purl.org/dc/elements/1.1/" xmlns:inkscape="http://www.inkscape.org/namespaces/inkscape" xmlns:rdf="http://www.w3.org/1999/02/22-rdf-syntax-ns#" xmlns:svg="http://www.w3.org/2000/svg" xmlns:xlink="http://www.w3.org/1999/xlink">
<!--
TypeTray - Type tray - allows only continuous walls

Created with Boxes.py (https://boxes.hackerspace-bamberg.de/)
Creation date: 2026-04-02 22:18:51
Command line (remove spaces between dashes): boxes TypeTray - -label_text= '- -sx=50*2' - -sy=50 - -outside=0 - -bottom_edge=F - -spacing=0.5
Url: https://boxes.hackerspace-bamberg.de/TypeTray?FingerJoint_style=rectangular&FingerJoint_surroundingspaces=0.5&FingerJoint_bottom_lip=0.0&FingerJoint_edge_width=1.0&FingerJoint_extra_length=0.0&FingerJoint_finger=2.0&FingerJoint_play=0.0&FingerJoint_space=2.0&FingerJoint_width=1.0&Stackable_angle=60&Stackable_bottom_stabilizers=0.0&Stackable_height=2.0&Stackable_holedistance=1.0&Stackable_width=4.0&Hinge_grip_percentage=0&Hinge_outset=0&Hinge_pinwidth=0.5&Hinge_axle=2.0&Hinge_grip_length=0&Hinge_hingestrength=1&CabinetHinge_bore=3.2&CabinetHinge_eyes_per_hinge=5&CabinetHinge_hinges=2&CabinetHinge_style=inside&CabinetHinge_eye=1.5&CabinetHinge_play=0.05&CabinetHinge_spacing=2.0&SlideOnLid_hole_width=0&SlideOnLid_second_pin=0&SlideOnLid_second_pin=1&SlideOnLid_spring=both&SlideOnLid_style=rectangular&SlideOnLid_surroundingspaces=2.0&SlideOnLid_bottom_lip=0.0&SlideOnLid_edge_width=1.0&SlideOnLid_extra_length=0.0&SlideOnLid_finger=3.0&SlideOnLid_play=0.05&SlideOnLid_space=2.0&SlideOnLid_width=1.0&Click_angle=5.0&Click_bottom_radius=0.1&Click_depth=3.0&RoundedTriangleEdge_height=50.0&RoundedTriangleEdge_r_hole=2.0&RoundedTriangleEdge_radius=30.0&RoundedTriangleEdge_outset=1.0&Mounting_d_head=6.5&Mounting_d_shaft=3.0&Mounting_margin=0.125&Mounting_num=2&Mounting_side=back&Mounting_style=straight+edge%2C+within&HandleEdge_height=20.0&HandleEdge_hole_height=75.0&HandleEdge_hole_width=40%3A40&HandleEdge_on_sides=0&HandleEdge_on_sides=1&HandleEdge_radius=10.0&HandleEdge_outset=1.0&Lid_handle=none&Lid_style=none&Lid_handle_height=8.0&Lid_height=4.0&Lid_play=0.1&text_size=12&text_alignment=left&text_distance_x=2.0&text_distance_y=2.0&text_at_front=0&label_text=&FingerHoleEdge_absolute_depth=0.0&FingerHoleEdge_absolute_width=0.0&FingerHoleEdge_radius=10.0&FingerHoleEdge_relative_depth=0.9&FingerHoleEdge_relative_width=0.3&sx=50*2&sy=50&h=100.0&hi=0.0&outside=0&bottom_edge=F&top_edge=e&back_height=0.0&radius=0.0&gripheight=30&gripwidth=0&handle=0&fingerholes=none&thickness=3.0&burn=0.1&format=svg&labels=0&labels=1&reference=100.0&tabs=0.0&qr_code=0&inner_corners=loop&spacing=0.5&debug=0&language=en&render=2
Url short: https://boxes.hackerspace-bamberg.de/TypeTray?label_text=&sx=50*2&sy=50&outside=0&bottom_edge=F&spacing=0.5
SettingsUrl: https://boxes.hackerspace-bamberg.de/TypeTray?FingerJoint_style=rectangular&FingerJoint_surroundingspaces=0.5&FingerJoint_bottom_lip=0.0&FingerJoint_edge_width=1.0&FingerJoint_extra_length=0.0&FingerJoint_finger=2.0&FingerJoint_play=0.0&FingerJoint_space=2.0&FingerJoint_width=1.0&Stackable_angle=60&Stackable_bottom_stabilizers=0.0&Stackable_height=2.0&Stackable_holedistance=1.0&Stackable_width=4.0&Hinge_grip_percentage=0&Hinge_outset=0&Hinge_pinwidth=0.5&Hinge_axle=2.0&Hinge_grip_length=0&Hinge_hingestrength=1&CabinetHinge_bore=3.2&CabinetHinge_eyes_per_hinge=5&CabinetHinge_hinges=2&CabinetHinge_style=inside&CabinetHinge_eye=1.5&CabinetHinge_play=0.05&CabinetHinge_spacing=2.0&SlideOnLid_hole_width=0&SlideOnLid_second_pin=0&SlideOnLid_second_pin=1&SlideOnLid_spring=both&SlideOnLid_style=rectangular&SlideOnLid_surroundingspaces=2.0&SlideOnLid_bottom_lip=0.0&SlideOnLid_edge_width=1.0&SlideOnLid_extra_length=0.0&SlideOnLid_finger=3.0&SlideOnLid_play=0.05&SlideOnLid_space=2.0&SlideOnLid_width=1.0&Click_angle=5.0&Click_bottom_radius=0.1&Click_depth=3.0&RoundedTriangleEdge_height=50.0&RoundedTriangleEdge_r_hole=2.0&RoundedTriangleEdge_radius=30.0&RoundedTriangleEdge_outset=1.0&Mounting_d_head=6.5&Mounting_d_shaft=3.0&Mounting_margin=0.125&Mounting_num=2&Mounting_side=back&Mounting_style=straight+edge%2C+within&HandleEdge_height=20.0&HandleEdge_hole_height=75.0&HandleEdge_hole_width=40%3A40&HandleEdge_on_sides=0&HandleEdge_on_sides=1&HandleEdge_radius=10.0&HandleEdge_outset=1.0&Lid_handle=none&Lid_style=none&Lid_handle_height=8.0&Lid_height=4.0&Lid_play=0.1&text_size=12&text_alignment=left&text_distance_x=2.0&text_distance_y=2.0&text_at_front=0&label_text=&FingerHoleEdge_absolute_depth=0.0&FingerHoleEdge_absolute_width=0.0&FingerHoleEdge_radius=10.0&FingerHoleEdge_relative_depth=0.9&FingerHoleEdge_relative_width=0.3&sx=50*2&sy=50&h=100.0&hi=0.0&outside=0&bottom_edge=F&top_edge=e&back_height=0.0&radius=0.0&gripheight=30&gripwidth=0&handle=0&fingerholes=none&thickness=3.0&burn=0.1&format=svg&labels=0&labels=1&reference=100.0&tabs=0.0&qr_code=0&inner_corners=loop&spacing=0.5&debug=0&language=en&render=2
SettingsUrl short: https://boxes.hackerspace-bamberg.de/TypeTray?label_text=&sx=50*2&sy=50&outside=0&bottom_edge=F&spacing=0.5
-->
<title>TypeTray</title>
<metadata>
<rdf:RDF><cc:Work>
<dc:title>Tray - TypeTray</dc:title>
<dc:date>2026-04-02 22:18:51</dc:date>
<dc:source>https://boxes.hackerspace-bamberg.de/TypeTray?FingerJoint_style=rectangular&amp;FingerJoint_surroundingspaces=0.5&amp;FingerJoint_bottom_lip=0.0&amp;FingerJoint_edge_width=1.0&amp;FingerJoint_extra_length=0.0&amp;FingerJoint_finger=2.0&amp;FingerJoint_play=0.0&amp;FingerJoint_space=2.0&amp;FingerJoint_width=1.0&amp;Stackable_angle=60&amp;Stackable_bottom_stabilizers=0.0&amp;Stackable_height=2.0&amp;Stackable_holedistance=1.0&amp;Stackable_width=4.0&amp;Hinge_grip_percentage=0&amp;Hinge_outset=0&amp;Hinge_pinwidth=0.5&amp;Hinge_axle=2.0&amp;Hinge_grip_length=0&amp;Hinge_hingestrength=1&amp;CabinetHinge_bore=3.2&amp;CabinetHinge_eyes_per_hinge=5&amp;CabinetHinge_hinges=2&amp;CabinetHinge_style=inside&amp;CabinetHinge_eye=1.5&amp;CabinetHinge_play=0.05&amp;CabinetHinge_spacing=2.0&amp;SlideOnLid_hole_width=0&amp;SlideOnLid_second_pin=0&amp;SlideOnLid_second_pin=1&amp;SlideOnLid_spring=both&amp;SlideOnLid_style=rectangular&amp;SlideOnLid_surroundingspaces=2.0&amp;SlideOnLid_bottom_lip=0.0&amp;SlideOnLid_edge_width=1.0&amp;SlideOnLid_extra_length=0.0&amp;SlideOnLid_finger=3.0&amp;SlideOnLid_play=0.05&amp;SlideOnLid_space=2.0&amp;SlideOnLid_width=1.0&amp;Click_angle=5.0&amp;Click_bottom_radius=0.1&amp;Click_depth=3.0&amp;RoundedTriangleEdge_height=50.0&amp;RoundedTriangleEdge_r_hole=2.0&amp;RoundedTriangleEdge_radius=30.0&amp;RoundedTriangleEdge_outset=1.0&amp;Mounting_d_head=6.5&amp;Mounting_d_shaft=3.0&amp;Mounting_margin=0.125&amp;Mounting_num=2&amp;Mounting_side=back&amp;Mounting_style=straight+edge%2C+within&amp;HandleEdge_height=20.0&amp;HandleEdge_hole_height=75.0&amp;HandleEdge_hole_width=40%3A40&amp;HandleEdge_on_sides=0&amp;HandleEdge_on_sides=1&amp;HandleEdge_radius=10.0&amp;HandleEdge_outset=1.0&amp;Lid_handle=none&amp;Lid_style=none&amp;Lid_handle_height=8.0&amp;Lid_height=4.0&amp;Lid_play=0.1&amp;text_size=12&amp;text_alignment=left&amp;text_distance_x=2.0&amp;text_distance_y=2.0&amp;text_at_front=0&amp;label_text=&amp;FingerHoleEdge_absolute_depth=0.0&amp;FingerHoleEdge_absolute_width=0.0&amp;FingerHoleEdge_radius=10.0&amp;FingerHoleEdge_relative_depth=0.9&amp;FingerHoleEdge_relative_width=0.3&amp;sx=50*2&amp;sy=50&amp;h=100.0&amp;hi=0.0&amp;outside=0&amp;bottom_edge=F&amp;top_edge=e&amp;back_height=0.0&amp;radius=0.0&amp;gripheight=30&amp;gripwidth=0&amp;handle=0&amp;fingerholes=none&amp;thickness=3.0&amp;burn=0.1&amp;format=svg&amp;labels=0&amp;labels=1&amp;reference=100.0&amp;tabs=0.0&amp;qr_code=0&amp;inner_corners=loop&amp;spacing=0.5&amp;debug=0&amp;language=en&amp;render=2</dc:source>
<dc:source>https://boxes.hackerspace-bamberg.de/TypeTray?label_text=&amp;sx=50*2&amp;sy=50&amp;outside=0&amp;bottom_edge=F&amp;spacing=0.5</dc:source>
<dc:description>Type tray - allows only continuous walls

Created with Boxes.py (https://boxes.hackerspace-bamberg.de/)
Command line: boxes TypeTray --FingerJoint_style=rectangular --FingerJoint_surroundingspaces=0.5 --FingerJoint_bottom_lip=0.0 --FingerJoint_edge_width=1.0 --FingerJoint_extra_length=0.0 --FingerJoint_finger=2.0 --FingerJoint_play=0.0 --FingerJoint_space=2.0 --FingerJoint_width=1.0 --Stackable_angle=60 --Stackable_bottom_stabilizers=0.0 --Stackable_height=2.0 --Stackable_holedistance=1.0 --Stackable_width=4.0 --Hinge_grip_percentage=0 --Hinge_outset=0 --Hinge_pinwidth=0.5 --Hinge_axle=2.0 --Hinge_grip_length=0 --Hinge_hingestrength=1 --CabinetHinge_bore=3.2 --CabinetHinge_eyes_per_hinge=5 --CabinetHinge_hinges=2 --CabinetHinge_style=inside --CabinetHinge_eye=1.5 --CabinetHinge_play=0.05 --CabinetHinge_spacing=2.0 --SlideOnLid_hole_width=0 --SlideOnLid_second_pin=0 --SlideOnLid_second_pin=1 --SlideOnLid_spring=both --SlideOnLid_style=rectangular --SlideOnLid_surroundingspaces=2.0 --SlideOnLid_bottom_lip=0.0 --SlideOnLid_edge_width=1.0 --SlideOnLid_extra_length=0.0 --SlideOnLid_finger=3.0 --SlideOnLid_play=0.05 --SlideOnLid_space=2.0 --SlideOnLid_width=1.0 --Click_angle=5.0 --Click_bottom_radius=0.1 --Click_depth=3.0 --RoundedTriangleEdge_height=50.0 --RoundedTriangleEdge_r_hole=2.0 --RoundedTriangleEdge_radius=30.0 --RoundedTriangleEdge_outset=1.0 --Mounting_d_head=6.5 --Mounting_d_shaft=3.0 --Mounting_margin=0.125 --Mounting_num=2 --Mounting_side=back '--Mounting_style=straight edge, within' --HandleEdge_height=20.0 --HandleEdge_hole_height=75.0 --HandleEdge_hole_width=40:40 --HandleEdge_on_sides=0 --HandleEdge_on_sides=1 --HandleEdge_radius=10.0 --HandleEdge_outset=1.0 --Lid_handle=none --Lid_style=none --Lid_handle_height=8.0 --Lid_height=4.0 --Lid_play=0.1 --text_size=12 --text_alignment=left --text_distance_x=2.0 --text_distance_y=2.0 --text_at_front=0 --label_text= --FingerHoleEdge_absolute_depth=0.0 --FingerHoleEdge_absolute_width=0.0 --FingerHoleEdge_radius=10.0 --FingerHoleEdge_relative_depth=0.9 --FingerHoleEdge_relative_width=0.3 '--sx=50*2' --sy=50 --h=100.0 --hi=0.0 --outside=0 --bottom_edge=F --top_edge=e --back_height=0.0 --radius=0.0 --gripheight=30 --gripwidth=0 --handle=0 --fingerholes=none --thickness=3.0 --burn=0.1 --format=svg --labels=0 --labels=1 --reference=100.0 --tabs=0.0 --qr_code=0 --inner_corners=loop --spacing=0.5 --debug=0
Command line short: boxes TypeTray --label_text= '--sx=50*2' --sy=50 --outside=0 --bottom_edge=F --spacing=0.5
Url: https://boxes.hackerspace-bamberg.de/TypeTray?FingerJoint_style=rectangular&amp;FingerJoint_surroundingspaces=0.5&amp;FingerJoint_bottom_lip=0.0&amp;FingerJoint_edge_width=1.0&amp;FingerJoint_extra_length=0.0&amp;FingerJoint_finger=2.0&amp;FingerJoint_play=0.0&amp;FingerJoint_space=2.0&amp;FingerJoint_width=1.0&amp;Stackable_angle=60&amp;Stackable_bottom_stabilizers=0.0&amp;Stackable_height=2.0&amp;Stackable_holedistance=1.0&amp;Stackable_width=4.0&amp;Hinge_grip_percentage=0&amp;Hinge_outset=0&amp;Hinge_pinwidth=0.5&amp;Hinge_axle=2.0&amp;Hinge_grip_length=0&amp;Hinge_hingestrength=1&amp;CabinetHinge_bore=3.2&amp;CabinetHinge_eyes_per_hinge=5&amp;CabinetHinge_hinges=2&amp;CabinetHinge_style=inside&amp;CabinetHinge_eye=1.5&amp;CabinetHinge_play=0.05&amp;CabinetHinge_spacing=2.0&amp;SlideOnLid_hole_width=0&amp;SlideOnLid_second_pin=0&amp;SlideOnLid_second_pin=1&amp;SlideOnLid_spring=both&amp;SlideOnLid_style=rectangular&amp;SlideOnLid_surroundingspaces=2.0&amp;SlideOnLid_bottom_lip=0.0&amp;SlideOnLid_edge_width=1.0&amp;SlideOnLid_extra_length=0.0&amp;SlideOnLid_finger=3.0&amp;SlideOnLid_play=0.05&amp;SlideOnLid_space=2.0&amp;SlideOnLid_width=1.0&amp;Click_angle=5.0&amp;Click_bottom_radius=0.1&amp;Click_depth=3.0&amp;RoundedTriangleEdge_height=50.0&amp;RoundedTriangleEdge_r_hole=2.0&amp;RoundedTriangleEdge_radius=30.0&amp;RoundedTriangleEdge_outset=1.0&amp;Mounting_d_head=6.5&amp;Mounting_d_shaft=3.0&amp;Mounting_margin=0.125&amp;Mounting_num=2&amp;Mounting_side=back&amp;Mounting_style=straight+edge%2C+within&amp;HandleEdge_height=20.0&amp;HandleEdge_hole_height=75.0&amp;HandleEdge_hole_width=40%3A40&amp;HandleEdge_on_sides=0&amp;HandleEdge_on_sides=1&amp;HandleEdge_radius=10.0&amp;HandleEdge_outset=1.0&amp;Lid_handle=none&amp;Lid_style=none&amp;Lid_handle_height=8.0&amp;Lid_height=4.0&amp;Lid_play=0.1&amp;text_size=12&amp;text_alignment=left&amp;text_distance_x=2.0&amp;text_distance_y=2.0&amp;text_at_front=0&amp;label_text=&amp;FingerHoleEdge_absolute_depth=0.0&amp;FingerHoleEdge_absolute_width=0.0&amp;FingerHoleEdge_radius=10.0&amp;FingerHoleEdge_relative_depth=0.9&amp;FingerHoleEdge_relative_width=0.3&amp;sx=50*2&amp;sy=50&amp;h=100.0&amp;hi=0.0&amp;outside=0&amp;bottom_edge=F&amp;top_edge=e&amp;back_height=0.0&amp;radius=0.0&amp;gripheight=30&amp;gripwidth=0&amp;handle=0&amp;fingerholes=none&amp;thickness=3.0&amp;burn=0.1&amp;format=svg&amp;labels=0&amp;labels=1&amp;reference=100.0&amp;tabs=0.0&amp;qr_code=0&amp;inner_corners=loop&amp;spacing=0.5&amp;debug=0&amp;language=en&amp;render=2
Url short: https://boxes.hackerspace-bamberg.de/TypeTray?label_text=&amp;sx=50*2&amp;sy=50&amp;outside=0&amp;bottom_edge=F&amp;spacing=0.5
SettingsUrl: https://boxes.hackerspace-bamberg.de/TypeTray?FingerJoint_style=rectangular&amp;FingerJoint_surroundingspaces=0.5&amp;FingerJoint_bottom_lip=0.0&amp;FingerJoint_edge_width=1.0&amp;FingerJoint_extra_length=0.0&amp;FingerJoint_finger=2.0&amp;FingerJoint_play=0.0&amp;FingerJoint_space=2.0&amp;FingerJoint_width=1.0&amp;Stackable_angle=60&amp;Stackable_bottom_stabilizers=0.0&amp;Stackable_height=2.0&amp;Stackable_holedistance=1.0&amp;Stackable_width=4.0&amp;Hinge_grip_percentage=0&amp;Hinge_outset=0&amp;Hinge_pinwidth=0.5&amp;Hinge_axle=2.0&amp;Hinge_grip_length=0&amp;Hinge_hingestrength=1&amp;CabinetHinge_bore=3.2&amp;CabinetHinge_eyes_per_hinge=5&amp;CabinetHinge_hinges=2&amp;CabinetHinge_style=inside&amp;CabinetHinge_eye=1.5&amp;CabinetHinge_play=0.05&amp;CabinetHinge_spacing=2.0&amp;SlideOnLid_hole_width=0&amp;SlideOnLid_second_pin=0&amp;SlideOnLid_second_pin=1&amp;SlideOnLid_spring=both&amp;SlideOnLid_style=rectangular&amp;SlideOnLid_surroundingspaces=2.0&amp;SlideOnLid_bottom_lip=0.0&amp;SlideOnLid_edge_width=1.0&amp;SlideOnLid_extra_length=0.0&amp;SlideOnLid_finger=3.0&amp;SlideOnLid_play=0.05&amp;SlideOnLid_space=2.0&amp;SlideOnLid_width=1.0&amp;Click_angle=5.0&amp;Click_bottom_radius=0.1&amp;Click_depth=3.0&amp;RoundedTriangleEdge_height=50.0&amp;RoundedTriangleEdge_r_hole=2.0&amp;RoundedTriangleEdge_radius=30.0&amp;RoundedTriangleEdge_outset=1.0&amp;Mounting_d_head=6.5&amp;Mounting_d_shaft=3.0&amp;Mounting_margin=0.125&amp;Mounting_num=2&amp;Mounting_side=back&amp;Mounting_style=straight+edge%2C+within&amp;HandleEdge_height=20.0&amp;HandleEdge_hole_height=75.0&amp;HandleEdge_hole_width=40%3A40&amp;HandleEdge_on_sides=0&amp;HandleEdge_on_sides=1&amp;HandleEdge_radius=10.0&amp;HandleEdge_outset=1.0&amp;Lid_handle=none&amp;Lid_style=none&amp;Lid_handle_height=8.0&amp;Lid_height=4.0&amp;Lid_play=0.1&amp;text_size=12&amp;text_alignment=left&amp;text_distance_x=2.0&amp;text_distance_y=2.0&amp;text_at_front=0&amp;label_text=&amp;FingerHoleEdge_absolute_depth=0.0&amp;FingerHoleEdge_absolute_width=0.0&amp;FingerHoleEdge_radius=10.0&amp;FingerHoleEdge_relative_depth=0.9&amp;FingerHoleEdge_relative_width=0.3&amp;sx=50*2&amp;sy=50&amp;h=100.0&amp;hi=0.0&amp;outside=0&amp;bottom_edge=F&amp;top_edge=e&amp;back_height=0.0&amp;radius=0.0&amp;gripheight=30&amp;gripwidth=0&amp;handle=0&amp;fingerholes=none&amp;thickness=3.0&amp;burn=0.1&amp;format=svg&amp;labels=0&amp;labels=1&amp;reference=100.0&amp;tabs=0.0&amp;qr_code=0&amp;inner_corners=loop&amp;spacing=0.5&amp;debug=0&amp;language=en&amp;render=2
SettingsUrl short: https://boxes.hackerspace-bamberg.de/TypeTray?label_text=&amp;sx=50*2&amp;sy=50&amp;outside=0&amp;bottom_edge=F&amp;spacing=0.5
</dc:description>
</cc:Work></rdf:RDF></metadata>
<g id="p-0" style="fill:none;stroke-linecap:round;stroke-linejoin:round;">
  <path d="M 10.100 334.300 H 110.100 V 324.300 H 10.100 V 334.300 Z" stroke="rgb(0,0,0)" stroke-width="0.20" />
  <text dominant-baseline="hanging" font-size="6px" style="font-family: sans-serif ; font-weight: normal; font-style: normal; fill: rgb(255,0,0)" text-anchor="middle" transform="matrix( 1.000 0.000 0.000 1.000 60.100 326.300 )">100.0mm, burn:0.10mm</text>
</g>
<g id="p-1" style="fill:none;stroke-linecap:round;stroke-linejoin:round;">
  <path d="M 66.000 312.500 V 315.400 C 66.000 315.500 66.100 315.400 66.000 315.400 H 63.200 C 63.100 315.400 63.200 315.500 63.200 315.400 V 309.600 C 63.200 309.500 63.100 309.600 63.200 309.600 H 66.000 C 66.100 309.600 66.000 309.500 66.000 309.600 V 312.500 Z" stroke="rgb(0,0,255)" stroke-width="0.20" />
  <path d="M 66.000 300.500 V 303.400 C 66.000 303.500 66.100 303.400 66.000 303.400 H 63.200 C 63.100 303.400 63.200 303.500 63.200 303.400 V 297.600 C 63.200 297.500 63.100 297.600 63.200 297.600 H 66.000 C 66.100 297.600 66.000 297.500 66.000 297.600 V 300.500 Z" stroke="rgb(0,0,255)" stroke-width="0.20" />
  <path d="M 66.000 288.500 V 291.400 C 66.000 291.500 66.100 291.400 66.000 291.400 H 63.200 C 63.100 291.400 63.200 291.500 63.200 291.400 V 285.600 C 63.200 285.500 63.100 285.600 63.200 285.600 H 66.000 C 66.100 285.600 66.000 285.500 66.000 285.600 V 288.500 Z" stroke="rgb(0,0,255)" stroke-width="0.20" />
  <path d="M 66.000 276.500 V 279.400 C 66.000 279.500 66.100 279.400 66.000 279.400 H 63.200 C 63.100 279.400 63.200 279.500 63.200 279.400 V 273.600 C 63.200 273.500 63.100 273.600 63.200 273.600 H 66.000 C 66.100 273.600 66.000 273.500 66.000 273.600 V 276.500 Z" stroke="rgb(0,0,255)" stroke-width="0.20" />
  <path d="M 13.100 319.600 H 19.500 C 19.600 319.600 19.500 319.500 19.500 319.600 V 322.500 C 19.500 322.555 19.545 322.600 19.600 322.600 H 25.600 C 25.655 322.600 25.700 322.555 25.700 322.500 V 319.600 C 25.700 319.500 25.600 319.600 25.700 319.600 H 31.500 C 31.600 319.600 31.500 319.500 31.500 319.600 V 322.500 C 31.500 322.555 31.545 322.600 31.600 322.600 H 37.600 C 37.655 322.600 37.700 322.555 37.700 322.500 V 319.600 C 37.700 319.500 37.600 319.600 37.700 319.600 H 43.500 C 43.600 319.600 43.500 319.500 43.500 319.600 V 322.500 C 43.500 322.555 43.545 322.600 43.600 322.600 H 49.600 C 49.655 322.600 49.700 322.555 49.700 322.500 V 319.600 C 49.700 319.500 49.600 319.600 49.700 319.600 H 55.500 C 55.600 319.600 55.500 319.500 55.500 319.600 V 322.500 C 55.500 322.555 55.545 322.600 55.600 322.600 H 61.600 C 61.655 322.600 61.700 322.555 61.700 322.500 V 319.600 C 61.700 319.500 61.600 319.600 61.700 319.600 H 67.500 C 67.600 319.600 67.500 319.500 67.500 319.600 V 322.500 C 67.500 322.555 67.545 322.600 67.600 322.600 H 73.600 C 73.655 322.600 73.700 322.555 73.700 322.500 V 319.600 C 73.700 319.500 73.600 319.600 73.700 319.600 H 79.500 C 79.600 319.600 79.500 319.500 79.500 319.600 V 322.500 C 79.500 322.555 79.545 322.600 79.600 322.600 H 85.600 C 85.655 322.600 85.700 322.555 85.700 322.500 V 319.600 C 85.700 319.500 85.600 319.600 85.700 319.600 H 91.500 C 91.600 319.600 91.500 319.500 91.500 319.600 V 322.500 C 91.500 322.555 91.545 322.600 91.600 322.600 H 97.600 C 97.655 322.600 97.700 322.555 97.700 322.500 V 319.600 C 97.700 319.500 97.600 319.600 97.700 319.600 H 103.500 C 103.600 319.600 103.500 319.500 103.500 319.600 V 322.500 C 103.500 322.555 103.545 322.600 103.600 322.600 H 109.600 C 109.655 322.600 109.700 322.555 109.700 322.500 V 319.600 C 109.700 319.500 109.600 319.600 109.700 319.600 H 116.100 C 116.155 319.600 116.200 319.555 116.200 319.500 V 315.600 C 116.200 315.500 116.100 315.600 116.200 315.600 H 119.100 C 119.155 315.600 119.200 315.555 119.200 315.500 V 309.500 C 119.200 309.445 119.155 309.400 119.100 309.400 H 116.200 C 116.100 309.400 116.200 309.500 116.200 309.400 V 303.600 C 116.200 303.500 116.100 303.600 116.200 303.600 H 119.100 C 119.155 303.600 119.200 303.555 119.200 303.500 V 297.500 C 119.200 297.445 119.155 297.400 119.100 297.400 H 116.200 C 116.100 297.400 116.200 297.500 116.200 297.400 V 291.600 C 116.200 291.500 116.100 291.600 116.200 291.600 H 119.100 C 119.155 291.600 119.200 291.555 119.200 291.500 V 285.500 C 119.200 285.445 119.155 285.400 119.100 285.400 H 116.200 C 116.100 285.400 116.200 285.500 116.200 285.400 V 279.600 C 116.200 279.500 116.100 279.600 116.200 279.600 H 119.100 C 119.155 279.600 119.200 279.555 119.200 279.500 V 273.500 C 119.200 273.445 119.155 273.400 119.100 273.400 H 116.200 C 116.100 273.400 116.200 273.500 116.200 273.400 V 269.500 C 116.200 269.445 116.155 269.400 116.100 269.400 H 109.700 C 109.600 269.400 109.700 269.500 109.700 269.400 V 266.500 C 109.700 266.445 109.655 266.400 109.600 266.400 H 103.600 C 103.545 266.400 103.500 266.445 103.500 266.500 V 269.400 C 103.500 269.500 103.600 269.400 103.500 269.400 H 97.700 C 97.600 269.400 97.700 269.500 97.700 269.400 V 266.500 C 97.700 266.445 97.655 266.400 97.600 266.400 H 91.600 C 91.545 266.400 91.500 266.445 91.500 266.500 V 269.400 C 91.500 269.500 91.600 269.400 91.500 269.400 H 85.700 C 85.600 269.400 85.700 269.500 85.700 269.400 V 266.500 C 85.700 266.445 85.655 266.400 85.600 266.400 H 79.600 C 79.545 266.400 79.500 266.445 79.500 266.500 V 269.400 C 79.500 269.500 79.600 269.400 79.500 269.400 H 73.700 C 73.600 269.400 73.700 269.500 73.700 269.400 V 266.500 C 73.700 266.445 73.655 266.400 73.600 266.400 H 67.600 C 67.545 266.400 67.500 266.445 67.500 266.500 V 269.400 C 67.500 269.500 67.600 269.400 67.500 269.400 H 61.700 C 61.600 269.400 61.700 269.500 61.700 269.400 V 266.500 C 61.700 266.445 61.655 266.400 61.600 266.400 H 55.600 C 55.545 266.400 55.500 266.445 55.500 266.500 V 269.400 C 55.500 269.500 55.600 269.400 55.500 269.400 H 49.700 C 49.600 269.400 49.700 269.500 49.700 269.400 V 266.500 C 49.700 266.445 49.655 266.400 49.600 266.400 H 43.600 C 43.545 266.400 43.500 266.445 43.500 266.500 V 269.400 C 43.500 269.500 43.600 269.400 43.500 269.400 H 37.700 C 37.600 269.400 37.700 269.500 37.700 269.400 V 266.500 C 37.700 266.445 37.655 266.400 37.600 266.400 H 31.600 C 31.545 266.400 31.500 266.445 31.500 266.500 V 269.400 C 31.500 269.500 31.600 269.400 31.500 269.400 H 25.700 C 25.600 269.400 25.700 269.500 25.700 269.400 V 266.500 C 25.700 266.445 25.655 266.400 25.600 266.400 H 19.600 C 19.545 266.400 19.500 266.445 19.500 266.500 V 269.400 C 19.500 269.500 19.600 269.400 19.500 269.400 H 13.100 C 13.045 269.400 13.000 269.445 13.000 269.500 V 273.400 C 13.000 273.500 13.100 273.400 13.000 273.400 H 10.100 C 10.045 273.400 10.000 273.445 10.000 273.500 V 279.500 C 10.000 279.555 10.045 279.600 10.100 279.600 H 13.000 C 13.100 279.600 13.000 279.500 13.000 279.600 V 285.400 C 13.000 285.500 13.100 285.400 13.000 285.400 H 10.100 C 10.045 285.400 10.000 285.445 10.000 285.500 V 291.500 C 10.000 291.555 10.045 291.600 10.100 291.600 H 13.000 C 13.100 291.600 13.000 291.500 13.000 291.600 V 297.400 C 13.000 297.500 13.100 297.400 13.000 297.400 H 10.100 C 10.045 297.400 10.000 297.445 10.000 297.500 V 303.500 C 10.000 303.555 10.045 303.600 10.100 303.600 H 13.000 C 13.100 303.600 13.000 303.500 13.000 303.600 V 309.400 C 13.000 309.500 13.100 309.400 13.000 309.400 H 10.100 C 10.045 309.400 10.000 309.445 10.000 309.500 V 315.500 C 10.000 315.555 10.045 315.600 10.100 315.600 H 13.000 C 13.100 315.600 13.000 315.500 13.000 315.600 V 319.500 C 13.000 319.555 13.045 319.600 13.100 319.600 Z" stroke="rgb(0,0,0)" stroke-width="0.20" />
  <text dominant-baseline="hanging" font-size="4px" style="font-family: sans-serif ; font-weight: normal; font-style: normal; fill: rgb(255,0,0)" text-anchor="middle" transform="matrix( 1.000 0.000 0.000 1.000 64.600 292.600 )">bottom</text>
</g>
<g id="p-2" style="fill:none;stroke-linecap:round;stroke-linejoin:round;">
  <path d="M 66.000 253.800 V 256.700 C 66.000 256.800 66.100 256.700 66.000 256.700 H 63.200 C 63.100 256.700 63.200 256.800 63.200 256.700 V 250.900 C 63.200 250.800 63.100 250.900 63.200 250.900 H 66.000 C 66.100 250.900 66.000 250.800 66.000 250.900 V 253.800 Z" stroke="rgb(0,0,255)" stroke-width="0.20" />
  <path d="M 66.000 241.800 V 244.700 C 66.000 244.800 66.100 244.700 66.000 244.700 H 63.200 C 63.100 244.700 63.200 244.800 63.200 244.700 V 238.900 C 63.200 238.800 63.100 238.900 63.200 238.900 H 66.000 C 66.100 238.900 66.000 238.800 66.000 238.900 V 241.800 Z" stroke="rgb(0,0,255)" stroke-width="0.20" />
  <path d="M 66.000 229.800 V 232.700 C 66.000 232.800 66.100 232.700 66.000 232.700 H 63.200 C 63.100 232.700 63.200 232.800 63.200 232.700 V 226.900 C 63.200 226.800 63.100 226.900 63.200 226.900 H 66.000 C 66.100 226.900 66.000 226.800 66.000 226.900 V 229.800 Z" stroke="rgb(0,0,255)" stroke-width="0.20" />
  <path d="M 66.000 217.800 V 220.700 C 66.000 220.800 66.100 220.700 66.000 220.700 H 63.200 C 63.100 220.700 63.200 220.800 63.200 220.700 V 214.900 C 63.200 214.800 63.100 214.900 63.200 214.900 H 66.000 C 66.100 214.900 66.000 214.800 66.000 214.900 V 217.800 Z" stroke="rgb(0,0,255)" stroke-width="0.20" />
  <path d="M 66.000 205.800 V 208.700 C 66.000 208.800 66.100 208.700 66.000 208.700 H 63.200 C 63.100 208.700 63.200 208.800 63.200 208.700 V 202.900 C 63.200 202.800 63.100 202.900 63.200 202.900 H 66.000 C 66.100 202.900 66.000 202.800 66.000 202.900 V 205.800 Z" stroke="rgb(0,0,255)" stroke-width="0.20" />
  <path d="M 66.000 193.800 V 196.700 C 66.000 196.800 66.100 196.700 66.000 196.700 H 63.200 C 63.100 196.700 63.200 196.800 63.200 196.700 V 190.900 C 63.200 190.800 63.100 190.900 63.200 190.900 H 66.000 C 66.100 190.900 66.000 190.800 66.000 190.900 V 193.800 Z" stroke="rgb(0,0,255)" stroke-width="0.20" />
  <path d="M 66.000 181.800 V 184.700 C 66.000 184.800 66.100 184.700 66.000 184.700 H 63.200 C 63.100 184.700 63.200 184.800 63.200 184.700 V 178.900 C 63.200 178.800 63.100 178.900 63.200 178.900 H 66.000 C 66.100 178.900 66.000 178.800 66.000 178.900 V 181.800 Z" stroke="rgb(0,0,255)" stroke-width="0.20" />
  <path d="M 66.000 169.800 V 172.700 C 66.000 172.800 66.100 172.700 66.000 172.700 H 63.200 C 63.100 172.700 63.200 172.800 63.200 172.700 V 166.900 C 63.200 166.800 63.100 166.900 63.200 166.900 H 66.000 C 66.100 166.900 66.000 166.800 66.000 166.900 V 169.800 Z" stroke="rgb(0,0,255)" stroke-width="0.20" />
  <path d="M 13.100 264.900 H 19.600 C 19.655 264.900 19.700 264.855 19.700 264.800 V 261.900 C 19.700 261.800 19.600 261.900 19.700 261.900 H 25.500 C 25.600 261.900 25.500 261.800 25.500 261.900 V 264.800 C 25.500 264.855 25.545 264.900 25.600 264.900 H 31.600 C 31.655 264.900 31.700 264.855 31.700 264.800 V 261.900 C 31.700 261.800 31.600 261.900 31.700 261.900 H 37.500 C 37.600 261.900 37.500 261.800 37.500 261.900 V 264.800 C 37.500 264.855 37.545 264.900 37.600 264.900 H 43.600 C 43.655 264.900 43.700 264.855 43.700 264.800 V 261.900 C 43.700 261.800 43.600 261.900 43.700 261.900 H 49.500 C 49.600 261.900 49.500 261.800 49.500 261.900 V 264.800 C 49.500 264.855 49.545 264.900 49.600 264.900 H 55.600 C 55.655 264.900 55.700 264.855 55.700 264.800 V 261.900 C 55.700 261.800 55.600 261.900 55.700 261.900 H 61.500 C 61.600 261.900 61.500 261.800 61.500 261.900 V 264.800 C 61.500 264.855 61.545 264.900 61.600 264.900 H 67.600 C 67.655 264.900 67.700 264.855 67.700 264.800 V 261.900 C 67.700 261.800 67.600 261.900 67.700 261.900 H 73.500 C 73.600 261.900 73.500 261.800 73.500 261.900 V 264.800 C 73.500 264.855 73.545 264.900 73.600 264.900 H 79.600 C 79.655 264.900 79.700 264.855 79.700 264.800 V 261.900 C 79.700 261.800 79.600 261.900 79.700 261.900 H 85.500 C 85.600 261.900 85.500 261.800 85.500 261.900 V 264.800 C 85.500 264.855 85.545 264.900 85.600 264.900 H 91.600 C 91.655 264.900 91.700 264.855 91.700 264.800 V 261.900 C 91.700 261.800 91.600 261.900 91.700 261.900 H 97.500 C 97.600 261.900 97.500 261.800 97.500 261.900 V 264.800 C 97.500 264.855 97.545 264.900 97.600 264.900 H 103.600 C 103.655 264.900 103.700 264.855 103.700 264.800 V 261.900 C 103.700 261.800 103.600 261.900 103.700 261.900 H 109.500 C 109.600 261.900 109.500 261.800 109.500 261.900 V 264.800 C 109.500 264.855 109.545 264.900 109.600 264.900 H 116.100 H 119.100 C 119.155 264.900 119.200 264.855 119.200 264.800 V 258.300 C 119.200 258.245 119.155 258.200 119.100 258.200 H 116.200 C 116.100 258.200 116.200 258.300 116.200 258.200 V 252.400 C 116.200 252.300 116.100 252.400 116.200 252.400 H 119.100 C 119.155 252.400 119.200 252.355 119.200 252.300 V 246.300 C 119.200 246.245 119.155 246.200 119.100 246.200 H 116.200 C 116.100 246.200 116.200 246.300 116.200 246.200 V 240.400 C 116.200 240.300 116.100 240.400 116.200 240.400 H 119.100 C 119.155 240.400 119.200 240.355 119.200 240.300 V 234.300 C 119.200 234.245 119.155 234.200 119.100 234.200 H 116.200 C 116.100 234.200 116.200 234.300 116.200 234.200 V 228.400 C 116.200 228.300 116.100 228.400 116.200 228.400 H 119.100 C 119.155 228.400 119.200 228.355 119.200 228.300 V 222.300 C 119.200 222.245 119.155 222.200 119.100 222.200 H 116.200 C 116.100 222.200 116.200 222.300 116.200 222.200 V 216.400 C 116.200 216.300 116.100 216.400 116.200 216.400 H 119.100 C 119.155 216.400 119.200 216.355 119.200 216.300 V 210.300 C 119.200 210.245 119.155 210.200 119.100 210.200 H 116.200 C 116.100 210.200 116.200 210.300 116.200 210.200 V 204.400 C 116.200 204.300 116.100 204.400 116.200 204.400 H 119.100 C 119.155 204.400 119.200 204.355 119.200 204.300 V 198.300 C 119.200 198.245 119.155 198.200 119.100 198.200 H 116.200 C 116.100 198.200 116.200 198.300 116.200 198.200 V 192.400 C 116.200 192.300 116.100 192.400 116.200 192.400 H 119.100 C 119.155 192.400 119.200 192.355 119.200 192.300 V 186.300 C 119.200 186.245 119.155 186.200 119.100 186.200 H 116.200 C 116.100 186.200 116.200 186.300 116.200 186.200 V 180.400 C 116.200 180.300 116.100 180.400 116.200 180.400 H 119.100 C 119.155 180.400 119.200 180.355 119.200 180.300 V 174.300 C 119.200 174.245 119.155 174.200 119.100 174.200 H 116.200 C 116.100 174.200 116.200 174.300 116.200 174.200 V 168.400 C 116.200 168.300 116.100 168.400 116.200 168.400 H 119.100 C 119.155 168.400 119.200 168.355 119.200 168.300 V 161.800 C 119.200 161.745 119.155 161.700 119.100 161.700 H 116.100 H 13.100 H 10.100 C 10.045 161.700 10.000 161.745 10.000 161.800 V 168.300 C 10.000 168.355 10.045 168.400 10.100 168.400 H 13.000 C 13.100 168.400 13.000 168.300 13.000 168.400 V 174.200 C 13.000 174.300 13.100 174.200 13.000 174.200 H 10.100 C 10.045 174.200 10.000 174.245 10.000 174.300 V 180.300 C 10.000 180.355 10.045 180.400 10.100 180.400 H 13.000 C 13.100 180.400 13.000 180.300 13.000 180.400 V 186.200 C 13.000 186.300 13.100 186.200 13.000 186.200 H 10.100 C 10.045 186.200 10.000 186.245 10.000 186.300 V 192.300 C 10.000 192.355 10.045 192.400 10.100 192.400 H 13.000 C 13.100 192.400 13.000 192.300 13.000 192.400 V 198.200 C 13.000 198.300 13.100 198.200 13.000 198.200 H 10.100 C 10.045 198.200 10.000 198.245 10.000 198.300 V 204.300 C 10.000 204.355 10.045 204.400 10.100 204.400 H 13.000 C 13.100 204.400 13.000 204.300 13.000 204.400 V 210.200 C 13.000 210.300 13.100 210.200 13.000 210.200 H 10.100 C 10.045 210.200 10.000 210.245 10.000 210.300 V 216.300 C 10.000 216.355 10.045 216.400 10.100 216.400 H 13.000 C 13.100 216.400 13.000 216.300 13.000 216.400 V 222.200 C 13.000 222.300 13.100 222.200 13.000 222.200 H 10.100 C 10.045 222.200 10.000 222.245 10.000 222.300 V 228.300 C 10.000 228.355 10.045 228.400 10.100 228.400 H 13.000 C 13.100 228.400 13.000 228.300 13.000 228.400 V 234.200 C 13.000 234.300 13.100 234.200 13.000 234.200 H 10.100 C 10.045 234.200 10.000 234.245 10.000 234.300 V 240.300 C 10.000 240.355 10.045 240.400 10.100 240.400 H 13.000 C 13.100 240.400 13.000 240.300 13.000 240.400 V 246.200 C 13.000 246.300 13.100 246.200 13.000 246.200 H 10.100 C 10.045 246.200 10.000 246.245 10.000 246.300 V 252.300 C 10.000 252.355 10.045 252.400 10.100 252.400 H 13.000 C 13.100 252.400 13.000 252.300 13.000 252.400 V 258.200 C 13.000 258.300 13.100 258.200 13.000 258.200 H 10.100 C 10.045 258.200 10.000 258.245 10.000 258.300 V 264.800 C 10.000 264.855 10.045 264.900 10.100 264.900 H 13.100 Z" stroke="rgb(0,0,0)" stroke-width="0.20" />
  <text dominant-baseline="hanging" font-size="4px" style="font-family: sans-serif ; font-weight: normal; font-style: normal; fill: rgb(255,0,0)" text-anchor="middle" transform="matrix( 1.000 0.000 0.000 1.000 64.600 211.400 )">front</text>
</g>
<g id="p-3" style="fill:none;stroke-linecap:round;stroke-linejoin:round;">
  <path d="M 63.200 149.100 V 152.000 C 63.200 152.100 63.100 152.000 63.200 152.000 H 66.000 C 66.100 152.000 66.000 152.100 66.000 152.000 V 146.200 C 66.000 146.100 66.100 146.200 66.000 146.200 H 63.200 C 63.100 146.200 63.200 146.100 63.200 146.200 V 149.100 Z" stroke="rgb(0,0,255)" stroke-width="0.20" />
  <path d="M 63.200 137.100 V 140.000 C 63.200 140.100 63.100 140.000 63.200 140.000 H 66.000 C 66.100 140.000 66.000 140.100 66.000 140.000 V 134.200 C 66.000 134.100 66.100 134.200 66.000 134.200 H 63.200 C 63.100 134.200 63.200 134.100 63.200 134.200 V 137.100 Z" stroke="rgb(0,0,255)" stroke-width="0.20" />
  <path d="M 63.200 125.100 V 128.000 C 63.200 128.100 63.100 128.000 63.200 128.000 H 66.000 C 66.100 128.000 66.000 128.100 66.000 128.000 V 122.200 C 66.000 122.100 66.100 122.200 66.000 122.200 H 63.200 C 63.100 122.200 63.200 122.100 63.200 122.200 V 125.100 Z" stroke="rgb(0,0,255)" stroke-width="0.20" />
  <path d="M 63.200 113.100 V 116.000 C 63.200 116.100 63.100 116.000 63.200 116.000 H 66.000 C 66.100 116.000 66.000 116.100 66.000 116.000 V 110.200 C 66.000 110.100 66.100 110.200 66.000 110.200 H 63.200 C 63.100 110.200 63.200 110.100 63.200 110.200 V 113.100 Z" stroke="rgb(0,0,255)" stroke-width="0.20" />
  <path d="M 63.200 101.100 V 104.000 C 63.200 104.100 63.100 104.000 63.200 104.000 H 66.000 C 66.100 104.000 66.000 104.100 66.000 104.000 V 98.200 C 66.000 98.100 66.100 98.200 66.000 98.200 H 63.200 C 63.100 98.200 63.200 98.100 63.200 98.200 V 101.100 Z" stroke="rgb(0,0,255)" stroke-width="0.20" />
  <path d="M 63.200 89.100 V 92.000 C 63.200 92.100 63.100 92.000 63.200 92.000 H 66.000 C 66.100 92.000 66.000 92.100 66.000 92.000 V 86.200 C 66.000 86.100 66.100 86.200 66.000 86.200 H 63.200 C 63.100 86.200 63.200 86.100 63.200 86.200 V 89.100 Z" stroke="rgb(0,0,255)" stroke-width="0.20" />
  <path d="M 63.200 77.100 V 80.000 C 63.200 80.100 63.100 80.000 63.200 80.000 H 66.000 C 66.100 80.000 66.000 80.100 66.000 80.000 V 74.200 C 66.000 74.100 66.100 74.200 66.000 74.200 H 63.200 C 63.100 74.200 63.200 74.100 63.200 74.200 V 77.100 Z" stroke="rgb(0,0,255)" stroke-width="0.20" />
  <path d="M 63.200 65.100 V 68.000 C 63.200 68.100 63.100 68.000 63.200 68.000 H 66.000 C 66.100 68.000 66.000 68.100 66.000 68.000 V 62.200 C 66.000 62.100 66.100 62.200 66.000 62.200 H 63.200 C 63.100 62.200 63.200 62.100 63.200 62.200 V 65.100 Z" stroke="rgb(0,0,255)" stroke-width="0.20" />
  <path d="M 116.100 160.200 H 109.600 C 109.545 160.200 109.500 160.155 109.500 160.100 V 157.200 C 109.500 157.100 109.600 157.200 109.500 157.200 H 103.700 C 103.600 157.200 103.700 157.100 103.700 157.200 V 160.100 C 103.700 160.155 103.655 160.200 103.600 160.200 H 97.600 C 97.545 160.200 97.500 160.155 97.500 160.100 V 157.200 C 97.500 157.100 97.600 157.200 97.500 157.200 H 91.700 C 91.600 157.200 91.700 157.100 91.700 157.200 V 160.100 C 91.700 160.155 91.655 160.200 91.600 160.200 H 85.600 C 85.545 160.200 85.500 160.155 85.500 160.100 V 157.200 C 85.500 157.100 85.600 157.200 85.500 157.200 H 79.700 C 79.600 157.200 79.700 157.100 79.700 157.200 V 160.100 C 79.700 160.155 79.655 160.200 79.600 160.200 H 73.600 C 73.545 160.200 73.500 160.155 73.500 160.100 V 157.200 C 73.500 157.100 73.600 157.200 73.500 157.200 H 67.700 C 67.600 157.200 67.700 157.100 67.700 157.200 V 160.100 C 67.700 160.155 67.655 160.200 67.600 160.200 H 61.600 C 61.545 160.200 61.500 160.155 61.500 160.100 V 157.200 C 61.500 157.100 61.600 157.200 61.500 157.200 H 55.700 C 55.600 157.200 55.700 157.100 55.700 157.200 V 160.100 C 55.700 160.155 55.655 160.200 55.600 160.200 H 49.600 C 49.545 160.200 49.500 160.155 49.500 160.100 V 157.200 C 49.500 157.100 49.600 157.200 49.500 157.200 H 43.700 C 43.600 157.200 43.700 157.100 43.700 157.200 V 160.100 C 43.700 160.155 43.655 160.200 43.600 160.200 H 37.600 C 37.545 160.200 37.500 160.155 37.500 160.100 V 157.200 C 37.500 157.100 37.600 157.200 37.500 157.200 H 31.700 C 31.600 157.200 31.700 157.100 31.700 157.200 V 160.100 C 31.700 160.155 31.655 160.200 31.600 160.200 H 25.600 C 25.545 160.200 25.500 160.155 25.500 160.100 V 157.200 C 25.500 157.100 25.600 157.200 25.500 157.200 H 19.700 C 19.600 157.200 19.700 157.100 19.700 157.200 V 160.100 C 19.700 160.155 19.655 160.200 19.600 160.200 H 13.100 H 10.100 C 10.045 160.200 10.000 160.155 10.000 160.100 V 153.600 C 10.000 153.545 10.045 153.500 10.100 153.500 H 13.000 C 13.100 153.500 13.000 153.600 13.000 153.500 V 147.700 C 13.000 147.600 13.100 147.700 13.000 147.700 H 10.100 C 10.045 147.700 10.000 147.655 10.000 147.600 V 141.600 C 10.000 141.545 10.045 141.500 10.100 141.500 H 13.000 C 13.100 141.500 13.000 141.600 13.000 141.500 V 135.700 C 13.000 135.600 13.100 135.700 13.000 135.700 H 10.100 C 10.045 135.700 10.000 135.655 10.000 135.600 V 129.600 C 10.000 129.545 10.045 129.500 10.100 129.500 H 13.000 C 13.100 129.500 13.000 129.600 13.000 129.500 V 123.700 C 13.000 123.600 13.100 123.700 13.000 123.700 H 10.100 C 10.045 123.700 10.000 123.655 10.000 123.600 V 117.600 C 10.000 117.545 10.045 117.500 10.100 117.500 H 13.000 C 13.100 117.500 13.000 117.600 13.000 117.500 V 111.700 C 13.000 111.600 13.100 111.700 13.000 111.700 H 10.100 C 10.045 111.700 10.000 111.655 10.000 111.600 V 105.600 C 10.000 105.545 10.045 105.500 10.100 105.500 H 13.000 C 13.100 105.500 13.000 105.600 13.000 105.500 V 99.700 C 13.000 99.600 13.100 99.700 13.000 99.700 H 10.100 C 10.045 99.700 10.000 99.655 10.000 99.600 V 93.600 C 10.000 93.545 10.045 93.500 10.100 93.500 H 13.000 C 13.100 93.500 13.000 93.600 13.000 93.500 V 87.700 C 13.000 87.600 13.100 87.700 13.000 87.700 H 10.100 C 10.045 87.700 10.000 87.655 10.000 87.600 V 81.600 C 10.000 81.545 10.045 81.500 10.100 81.500 H 13.000 C 13.100 81.500 13.000 81.600 13.000 81.500 V 75.700 C 13.000 75.600 13.100 75.700 13.000 75.700 H 10.100 C 10.045 75.700 10.000 75.655 10.000 75.600 V 69.600 C 10.000 69.545 10.045 69.500 10.100 69.500 H 13.000 C 13.100 69.500 13.000 69.600 13.000 69.500 V 63.700 C 13.000 63.600 13.100 63.700 13.000 63.700 H 10.100 C 10.045 63.700 10.000 63.655 10.000 63.600 V 57.100 C 10.000 57.045 10.045 57.000 10.100 57.000 H 13.100 H 116.100 H 119.100 C 119.155 57.000 119.200 57.045 119.200 57.100 V 63.600 C 119.200 63.655 119.155 63.700 119.100 63.700 H 116.200 C 116.100 63.700 116.200 63.600 116.200 63.700 V 69.500 C 116.200 69.600 116.100 69.500 116.200 69.500 H 119.100 C 119.155 69.500 119.200 69.545 119.200 69.600 V 75.600 C 119.200 75.655 119.155 75.700 119.100 75.700 H 116.200 C 116.100 75.700 116.200 75.600 116.200 75.700 V 81.500 C 116.200 81.600 116.100 81.500 116.200 81.500 H 119.100 C 119.155 81.500 119.200 81.545 119.200 81.600 V 87.600 C 119.200 87.655 119.155 87.700 119.100 87.700 H 116.200 C 116.100 87.700 116.200 87.600 116.200 87.700 V 93.500 C 116.200 93.600 116.100 93.500 116.200 93.500 H 119.100 C 119.155 93.500 119.200 93.545 119.200 93.600 V 99.600 C 119.200 99.655 119.155 99.700 119.100 99.700 H 116.200 C 116.100 99.700 116.200 99.600 116.200 99.700 V 105.500 C 116.200 105.600 116.100 105.500 116.200 105.500 H 119.100 C 119.155 105.500 119.200 105.545 119.200 105.600 V 111.600 C 119.200 111.655 119.155 111.700 119.100 111.700 H 116.200 C 116.100 111.700 116.200 111.600 116.200 111.700 V 117.500 C 116.200 117.600 116.100 117.500 116.200 117.500 H 119.100 C 119.155 117.500 119.200 117.545 119.200 117.600 V 123.600 C 119.200 123.655 119.155 123.700 119.100 123.700 H 116.200 C 116.100 123.700 116.200 123.600 116.200 123.700 V 129.500 C 116.200 129.600 116.100 129.500 116.200 129.500 H 119.100 C 119.155 129.500 119.200 129.545 119.200 129.600 V 135.600 C 119.200 135.655 119.155 135.700 119.100 135.700 H 116.200 C 116.100 135.700 116.200 135.600 116.200 135.700 V 141.500 C 116.200 141.600 116.100 141.500 116.200 141.500 H 119.100 C 119.155 141.500 119.200 141.545 119.200 141.600 V 147.600 C 119.200 147.655 119.155 147.700 119.100 147.700 H 116.200 C 116.100 147.700 116.200 147.600 116.200 147.700 V 153.500 C 116.200 153.600 116.100 153.500 116.200 153.500 H 119.100 C 119.155 153.500 119.200 153.545 119.200 153.600 V 160.100 C 119.200 160.155 119.155 160.200 119.100 160.200 H 116.100 Z" stroke="rgb(0,0,0)" stroke-width="0.20" />
  <text dominant-baseline="hanging" font-size="4px" style="font-family: sans-serif ; font-weight: normal; font-style: normal; fill: rgb(255,0,0)" text-anchor="middle" transform="matrix( 1.000 0.000 0.000 1.000 64.600 106.700 )">back</text>
</g>
<g id="p-4" style="fill:none;stroke-linecap:round;stroke-linejoin:round;">
  <path d="M 123.800 322.600 H 127.800 C 127.855 322.600 127.900 322.555 127.900 322.500 V 319.600 C 127.900 319.500 127.800 319.600 127.900 319.600 H 133.700 C 133.800 319.600 133.700 319.500 133.700 319.600 V 322.500 C 133.700 322.555 133.745 322.600 133.800 322.600 H 139.800 C 139.855 322.600 139.900 322.555 139.900 322.500 V 319.600 C 139.900 319.500 139.800 319.600 139.900 319.600 H 145.700 C 145.800 319.600 145.700 319.500 145.700 319.600 V 322.500 C 145.700 322.555 145.745 322.600 145.800 322.600 H 151.800 C 151.855 322.600 151.900 322.555 151.900 322.500 V 319.600 C 151.900 319.500 151.800 319.600 151.900 319.600 H 157.700 C 157.800 319.600 157.700 319.500 157.700 319.600 V 322.500 C 157.700 322.555 157.745 322.600 157.800 322.600 H 163.800 C 163.855 322.600 163.900 322.555 163.900 322.500 V 319.600 C 163.900 319.500 163.800 319.600 163.900 319.600 H 169.700 C 169.800 319.600 169.700 319.500 169.700 319.600 V 322.500 C 169.700 322.555 169.745 322.600 169.800 322.600 H 173.800 C 173.855 322.600 173.900 322.555 173.900 322.500 V 316.100 C 173.900 316.000 173.800 316.100 173.900 316.100 H 176.800 C 176.855 316.100 176.900 316.055 176.900 316.000 V 310.000 C 176.900 309.945 176.855 309.900 176.800 309.900 H 173.900 C 173.800 309.900 173.900 310.000 173.900 309.900 V 304.100 C 173.900 304.000 173.800 304.100 173.900 304.100 H 176.800 C 176.855 304.100 176.900 304.055 176.900 304.000 V 298.000 C 176.900 297.945 176.855 297.900 176.800 297.900 H 173.900 C 173.800 297.900 173.900 298.000 173.900 297.900 V 292.100 C 173.900 292.000 173.800 292.100 173.900 292.100 H 176.800 C 176.855 292.100 176.900 292.055 176.900 292.000 V 286.000 C 176.900 285.945 176.855 285.900 176.800 285.900 H 173.900 C 173.800 285.900 173.900 286.000 173.900 285.900 V 280.100 C 173.900 280.000 173.800 280.100 173.900 280.100 H 176.800 C 176.855 280.100 176.900 280.055 176.900 280.000 V 274.000 C 176.900 273.945 176.855 273.900 176.800 273.900 H 173.900 C 173.800 273.900 173.900 274.000 173.900 273.900 V 268.100 C 173.900 268.000 173.800 268.100 173.900 268.100 H 176.800 C 176.855 268.100 176.900 268.055 176.900 268.000 V 262.000 C 176.900 261.945 176.855 261.900 176.800 261.900 H 173.900 C 173.800 261.900 173.900 262.000 173.900 261.900 V 256.100 C 173.900 256.000 173.800 256.100 173.900 256.100 H 176.800 C 176.855 256.100 176.900 256.055 176.900 256.000 V 250.000 C 176.900 249.945 176.855 249.900 176.800 249.900 H 173.900 C 173.800 249.900 173.900 250.000 173.900 249.900 V 244.100 C 173.900 244.000 173.800 244.100 173.900 244.100 H 176.800 C 176.855 244.100 176.900 244.055 176.900 244.000 V 238.000 C 176.900 237.945 176.855 237.900 176.800 237.900 H 173.900 C 173.800 237.900 173.900 238.000 173.900 237.900 V 232.100 C 173.900 232.000 173.800 232.100 173.900 232.100 H 176.800 C 176.855 232.100 176.900 232.055 176.900 232.000 V 226.000 C 176.900 225.945 176.855 225.900 176.800 225.900 H 173.900 C 173.800 225.900 173.900 226.000 173.900 225.900 V 219.500 C 173.900 219.445 173.855 219.400 173.800 219.400 H 123.800 C 123.745 219.400 123.700 219.445 123.700 219.500 V 225.900 C 123.700 226.000 123.800 225.900 123.700 225.900 H 120.800 C 120.745 225.900 120.700 225.945 120.700 226.000 V 232.000 C 120.700 232.055 120.745 232.100 120.800 232.100 H 123.700 C 123.800 232.100 123.700 232.000 123.700 232.100 V 237.900 C 123.700 238.000 123.800 237.900 123.700 237.900 H 120.800 C 120.745 237.900 120.700 237.945 120.700 238.000 V 244.000 C 120.700 244.055 120.745 244.100 120.800 244.100 H 123.700 C 123.800 244.100 123.700 244.000 123.700 244.100 V 249.900 C 123.700 250.000 123.800 249.900 123.700 249.900 H 120.800 C 120.745 249.900 120.700 249.945 120.700 250.000 V 256.000 C 120.700 256.055 120.745 256.100 120.800 256.100 H 123.700 C 123.800 256.100 123.700 256.000 123.700 256.100 V 261.900 C 123.700 262.000 123.800 261.900 123.700 261.900 H 120.800 C 120.745 261.900 120.700 261.945 120.700 262.000 V 268.000 C 120.700 268.055 120.745 268.100 120.800 268.100 H 123.700 C 123.800 268.100 123.700 268.000 123.700 268.100 V 273.900 C 123.700 274.000 123.800 273.900 123.700 273.900 H 120.800 C 120.745 273.900 120.700 273.945 120.700 274.000 V 280.000 C 120.700 280.055 120.745 280.100 120.800 280.100 H 123.700 C 123.800 280.100 123.700 280.000 123.700 280.100 V 285.900 C 123.700 286.000 123.800 285.900 123.700 285.900 H 120.800 C 120.745 285.900 120.700 285.945 120.700 286.000 V 292.000 C 120.700 292.055 120.745 292.100 120.800 292.100 H 123.700 C 123.800 292.100 123.700 292.000 123.700 292.100 V 297.900 C 123.700 298.000 123.800 297.900 123.700 297.900 H 120.800 C 120.745 297.900 120.700 297.945 120.700 298.000 V 304.000 C 120.700 304.055 120.745 304.100 120.800 304.100 H 123.700 C 123.800 304.100 123.700 304.000 123.700 304.100 V 309.900 C 123.700 310.000 123.800 309.900 123.700 309.900 H 120.800 C 120.745 309.900 120.700 309.945 120.700 310.000 V 316.000 C 120.700 316.055 120.745 316.100 120.800 316.100 H 123.700 C 123.800 316.100 123.700 316.000 123.700 316.100 V 322.500 C 123.700 322.555 123.745 322.600 123.800 322.600 Z" stroke="rgb(0,0,0)" stroke-width="0.20" />
  <text dominant-baseline="hanging" font-size="4px" style="font-family: sans-serif ; font-weight: normal; font-style: normal; fill: rgb(255,0,0)" text-anchor="middle" transform="matrix( 1.000 0.000 0.000 1.000 148.800 269.100 )">left side</text>
</g>
<g id="p-5" style="fill:none;stroke-linecap:round;stroke-linejoin:round;">
  <path d="M 123.800 217.900 H 127.800 C 127.855 217.900 127.900 217.855 127.900 217.800 V 214.900 C 127.900 214.800 127.800 214.900 127.900 214.900 H 133.700 C 133.800 214.900 133.700 214.800 133.700 214.900 V 217.800 C 133.700 217.855 133.745 217.900 133.800 217.900 H 139.800 C 139.855 217.900 139.900 217.855 139.900 217.800 V 214.900 C 139.900 214.800 139.800 214.900 139.900 214.900 H 145.700 C 145.800 214.900 145.700 214.800 145.700 214.900 V 217.800 C 145.700 217.855 145.745 217.900 145.800 217.900 H 151.800 C 151.855 217.900 151.900 217.855 151.900 217.800 V 214.900 C 151.900 214.800 151.800 214.900 151.900 214.900 H 157.700 C 157.800 214.900 157.700 214.800 157.700 214.900 V 217.800 C 157.700 217.855 157.745 217.900 157.800 217.900 H 163.800 C 163.855 217.900 163.900 217.855 163.900 217.800 V 214.900 C 163.900 214.800 163.800 214.900 163.900 214.900 H 169.700 C 169.800 214.900 169.700 214.800 169.700 214.900 V 217.800 C 169.700 217.855 169.745 217.900 169.800 217.900 H 173.800 C 173.855 217.900 173.900 217.855 173.900 217.800 V 211.400 C 173.900 211.300 173.800 211.400 173.900 211.400 H 176.800 C 176.855 211.400 176.900 211.355 176.900 211.300 V 205.300 C 176.900 205.245 176.855 205.200 176.800 205.200 H 173.900 C 173.800 205.200 173.900 205.300 173.900 205.200 V 199.400 C 173.900 199.300 173.800 199.400 173.900 199.400 H 176.800 C 176.855 199.400 176.900 199.355 176.900 199.300 V 193.300 C 176.900 193.245 176.855 193.200 176.800 193.200 H 173.900 C 173.800 193.200 173.900 193.300 173.900 193.200 V 187.400 C 173.900 187.300 173.800 187.400 173.900 187.400 H 176.800 C 176.855 187.400 176.900 187.355 176.900 187.300 V 181.300 C 176.900 181.245 176.855 181.200 176.800 181.200 H 173.900 C 173.800 181.200 173.900 181.300 173.900 181.200 V 175.400 C 173.900 175.300 173.800 175.400 173.900 175.400 H 176.800 C 176.855 175.400 176.900 175.355 176.900 175.300 V 169.300 C 176.900 169.245 176.855 169.200 176.800 169.200 H 173.900 C 173.800 169.200 173.900 169.300 173.900 169.200 V 163.400 C 173.900 163.300 173.800 163.400 173.900 163.400 H 176.800 C 176.855 163.400 176.900 163.355 176.900 163.300 V 157.300 C 176.900 157.245 176.855 157.200 176.800 157.200 H 173.900 C 173.800 157.200 173.900 157.300 173.900 157.200 V 151.400 C 173.900 151.300 173.800 151.400 173.900 151.400 H 176.800 C 176.855 151.400 176.900 151.355 176.900 151.300 V 145.300 C 176.900 145.245 176.855 145.200 176.800 145.200 H 173.900 C 173.800 145.200 173.900 145.300 173.900 145.200 V 139.400 C 173.900 139.300 173.800 139.400 173.900 139.400 H 176.800 C 176.855 139.400 176.900 139.355 176.900 139.300 V 133.300 C 176.900 133.245 176.855 133.200 176.800 133.200 H 173.900 C 173.800 133.200 173.900 133.300 173.900 133.200 V 127.400 C 173.900 127.300 173.800 127.400 173.900 127.400 H 176.800 C 176.855 127.400 176.900 127.355 176.900 127.300 V 121.300 C 176.900 121.245 176.855 121.200 176.800 121.200 H 173.900 C 173.800 121.200 173.900 121.300 173.900 121.200 V 114.800 C 173.900 114.745 173.855 114.700 173.800 114.700 H 123.800 C 123.745 114.700 123.700 114.745 123.700 114.800 V 121.200 C 123.700 121.300 123.800 121.200 123.700 121.200 H 120.800 C 120.745 121.200 120.700 121.245 120.700 121.300 V 127.300 C 120.700 127.355 120.745 127.400 120.800 127.400 H 123.700 C 123.800 127.400 123.700 127.300 123.700 127.400 V 133.200 C 123.700 133.300 123.800 133.200 123.700 133.200 H 120.800 C 120.745 133.200 120.700 133.245 120.700 133.300 V 139.300 C 120.700 139.355 120.745 139.400 120.800 139.400 H 123.700 C 123.800 139.400 123.700 139.300 123.700 139.400 V 145.200 C 123.700 145.300 123.800 145.200 123.700 145.200 H 120.800 C 120.745 145.200 120.700 145.245 120.700 145.300 V 151.300 C 120.700 151.355 120.745 151.400 120.800 151.400 H 123.700 C 123.800 151.400 123.700 151.300 123.700 151.400 V 157.200 C 123.700 157.300 123.800 157.200 123.700 157.200 H 120.800 C 120.745 157.200 120.700 157.245 120.700 157.300 V 163.300 C 120.700 163.355 120.745 163.400 120.800 163.400 H 123.700 C 123.800 163.400 123.700 163.300 123.700 163.400 V 169.200 C 123.700 169.300 123.800 169.200 123.700 169.200 H 120.800 C 120.745 169.200 120.700 169.245 120.700 169.300 V 175.300 C 120.700 175.355 120.745 175.400 120.800 175.400 H 123.700 C 123.800 175.400 123.700 175.300 123.700 175.400 V 181.200 C 123.700 181.300 123.800 181.200 123.700 181.200 H 120.800 C 120.745 181.200 120.700 181.245 120.700 181.300 V 187.300 C 120.700 187.355 120.745 187.400 120.800 187.400 H 123.700 C 123.800 187.400 123.700 187.300 123.700 187.400 V 193.200 C 123.700 193.300 123.800 193.200 123.700 193.200 H 120.800 C 120.745 193.200 120.700 193.245 120.700 193.300 V 199.300 C 120.700 199.355 120.745 199.400 120.800 199.400 H 123.700 C 123.800 199.400 123.700 199.300 123.700 199.400 V 205.200 C 123.700 205.300 123.800 205.200 123.700 205.200 H 120.800 C 120.745 205.200 120.700 205.245 120.700 205.300 V 211.300 C 120.700 211.355 120.745 211.400 120.800 211.400 H 123.700 C 123.800 211.400 123.700 211.300 123.700 211.400 V 217.800 C 123.700 217.855 123.745 217.900 123.800 217.900 Z" stroke="rgb(0,0,0)" stroke-width="0.20" />
  <text dominant-baseline="hanging" font-size="4px" style="font-family: sans-serif ; font-weight: normal; font-style: normal; fill: rgb(255,0,0)" text-anchor="middle" transform="matrix( 1.000 0.000 0.000 1.000 148.800 164.400 )">right side</text>
</g>
<g id="p-6" style="fill:none;stroke-linecap:round;stroke-linejoin:round;">
  <path d="M 123.800 110.200 H 127.700 C 127.800 110.200 127.700 110.100 127.700 110.200 V 113.100 C 127.700 113.155 127.745 113.200 127.800 113.200 H 133.800 C 133.855 113.200 133.900 113.155 133.900 113.100 V 110.200 C 133.900 110.100 133.800 110.200 133.900 110.200 H 139.700 C 139.800 110.200 139.700 110.100 139.700 110.200 V 113.100 C 139.700 113.155 139.745 113.200 139.800 113.200 H 145.800 C 145.855 113.200 145.900 113.155 145.900 113.100 V 110.200 C 145.900 110.100 145.800 110.200 145.900 110.200 H 151.700 C 151.800 110.200 151.700 110.100 151.700 110.200 V 113.100 C 151.700 113.155 151.745 113.200 151.800 113.200 H 157.800 C 157.855 113.200 157.900 113.155 157.900 113.100 V 110.200 C 157.900 110.100 157.800 110.200 157.900 110.200 H 163.700 C 163.800 110.200 163.700 110.100 163.700 110.200 V 113.100 C 163.700 113.155 163.745 113.200 163.800 113.200 H 169.800 C 169.855 113.200 169.900 113.155 169.900 113.100 V 110.200 C 169.900 110.100 169.800 110.200 169.900 110.200 H 173.800 C 173.855 110.200 173.900 110.155 173.900 110.100 V 105.200 C 173.900 105.100 173.800 105.200 173.900 105.200 H 176.800 C 176.855 105.200 176.900 105.155 176.900 105.100 V 99.100 C 176.900 99.045 176.855 99.000 176.800 99.000 H 173.900 C 173.800 99.000 173.900 99.100 173.900 99.000 V 93.200 C 173.900 93.100 173.800 93.200 173.900 93.200 H 176.800 C 176.855 93.200 176.900 93.155 176.900 93.100 V 87.100 C 176.900 87.045 176.855 87.000 176.800 87.000 H 173.900 C 173.800 87.000 173.900 87.100 173.900 87.000 V 81.200 C 173.900 81.100 173.800 81.200 173.900 81.200 H 176.800 C 176.855 81.200 176.900 81.155 176.900 81.100 V 75.100 C 176.900 75.045 176.855 75.000 176.800 75.000 H 173.900 C 173.800 75.000 173.900 75.100 173.900 75.000 V 69.200 C 173.900 69.100 173.800 69.200 173.900 69.200 H 176.800 C 176.855 69.200 176.900 69.155 176.900 69.100 V 63.100 C 176.900 63.045 176.855 63.000 176.800 63.000 H 173.900 C 173.800 63.000 173.900 63.100 173.900 63.000 V 57.200 C 173.900 57.100 173.800 57.200 173.900 57.200 H 176.800 C 176.855 57.200 176.900 57.155 176.900 57.100 V 51.100 C 176.900 51.045 176.855 51.000 176.800 51.000 H 173.900 C 173.800 51.000 173.900 51.100 173.900 51.000 V 45.200 C 173.900 45.100 173.800 45.200 173.900 45.200 H 176.800 C 176.855 45.200 176.900 45.155 176.900 45.100 V 39.100 C 176.900 39.045 176.855 39.000 176.800 39.000 H 173.900 C 173.800 39.000 173.900 39.100 173.900 39.000 V 33.200 C 173.900 33.100 173.800 33.200 173.900 33.200 H 176.800 C 176.855 33.200 176.900 33.155 176.900 33.100 V 27.100 C 176.900 27.045 176.855 27.000 176.800 27.000 H 173.900 C 173.800 27.000 173.900 27.100 173.900 27.000 V 21.200 C 173.900 21.100 173.800 21.200 173.900 21.200 H 176.800 C 176.855 21.200 176.900 21.155 176.900 21.100 V 15.100 C 176.900 15.045 176.855 15.000 176.800 15.000 H 173.900 C 173.800 15.000 173.900 15.100 173.900 15.000 V 10.100 C 173.900 10.045 173.855 10.000 173.800 10.000 H 123.800 C 123.745 10.000 123.700 10.045 123.700 10.100 V 15.000 C 123.700 15.100 123.800 15.000 123.700 15.000 H 120.800 C 120.745 15.000 120.700 15.045 120.700 15.100 V 21.100 C 120.700 21.155 120.745 21.200 120.800 21.200 H 123.700 C 123.800 21.200 123.700 21.100 123.700 21.200 V 27.000 C 123.700 27.100 123.800 27.000 123.700 27.000 H 120.800 C 120.745 27.000 120.700 27.045 120.700 27.100 V 33.100 C 120.700 33.155 120.745 33.200 120.800 33.200 H 123.700 C 123.800 33.200 123.700 33.100 123.700 33.200 V 39.000 C 123.700 39.100 123.800 39.000 123.700 39.000 H 120.800 C 120.745 39.000 120.700 39.045 120.700 39.100 V 45.100 C 120.700 45.155 120.745 45.200 120.800 45.200 H 123.700 C 123.800 45.200 123.700 45.100 123.700 45.200 V 51.000 C 123.700 51.100 123.800 51.000 123.700 51.000 H 120.800 C 120.745 51.000 120.700 51.045 120.700 51.100 V 57.100 C 120.700 57.155 120.745 57.200 120.800 57.200 H 123.700 C 123.800 57.200 123.700 57.100 123.700 57.200 V 63.000 C 123.700 63.100 123.800 63.000 123.700 63.000 H 120.800 C 120.745 63.000 120.700 63.045 120.700 63.100 V 69.100 C 120.700 69.155 120.745 69.200 120.800 69.200 H 123.700 C 123.800 69.200 123.700 69.100 123.700 69.200 V 75.000 C 123.700 75.100 123.800 75.000 123.700 75.000 H 120.800 C 120.745 75.000 120.700 75.045 120.700 75.100 V 81.100 C 120.700 81.155 120.745 81.200 120.800 81.200 H 123.700 C 123.800 81.200 123.700 81.100 123.700 81.200 V 87.000 C 123.700 87.100 123.800 87.000 123.700 87.000 H 120.800 C 120.745 87.000 120.700 87.045 120.700 87.100 V 93.100 C 120.700 93.155 120.745 93.200 120.800 93.200 H 123.700 C 123.800 93.200 123.700 93.100 123.700 93.200 V 99.000 C 123.700 99.100 123.800 99.000 123.700 99.000 H 120.800 C 120.745 99.000 120.700 99.045 120.700 99.100 V 105.100 C 120.700 105.155 120.745 105.200 120.800 105.200 H 123.700 C 123.800 105.200 123.700 105.100 123.700 105.200 V 110.100 C 123.700 110.155 123.745 110.200 123.800 110.200 Z" stroke="rgb(0,0,0)" stroke-width="0.20" />
  <text dominant-baseline="hanging" font-size="4px" style="font-family: sans-serif ; font-weight: normal; font-style: normal; fill: rgb(255,0,0)" text-anchor="middle" transform="matrix( 1.000 0.000 0.000 1.000 148.800 59.700 )">inner y 1</text>
</g>
</svg>