<?xml version='1.0' encoding='utf-8'?>
<svg height="449.00mm" viewBox="0.0 0.0 239.90 449.00" width="239.90mm" xmlns="http://www.w3.org/2000/svg" xmlns:cc="http://creativecommons.org/ns#" xmlns:dc="http://purl.org/dc/elements/1.1/" xmlns:inkscape="http://www.inkscape.org/namespaces/inkscape" xmlns:rdf="http://www.w3.org/1999/02/22-rdf-syntax-ns#" xmlns:svg="http://www.w3.org/2000/svg" xmlns:xlink="http://www.w3.org/1999/xlink">
<!--
TypeTray - Type tray - allows only continuous walls

Created with Boxes.py (https://boxes.hackerspace-bamberg.de/)
Creation date: 2026-04-02 22:18:15
Command line (remove spaces between dashes): boxes TypeTray - -label_text= '- -sx=50*3' - -sy=50 - -outside=0 - -bottom_edge=F - -spacing=0.5
Url: https://boxes.hackerspace-bamberg.de/TypeTray?FingerJoint_style=rectangular&FingerJoint_surroundingspaces=0.5&FingerJoint_bottom_lip=0.0&FingerJoint_edge_width=1.0&FingerJoint_extra_length=0.0&FingerJoint_finger=2.0&FingerJoint_play=0.0&FingerJoint_space=2.0&FingerJoint_width=1.0&Stackable_angle=60&Stackable_bottom_stabilizers=0.0&Stackable_height=2.0&Stackable_holedistance=1.0&Stackable_width=4.0&Hinge_grip_percentage=0&Hinge_outset=0&Hinge_pinwidth=0.5&Hinge_axle=2.0&Hinge_grip_length=0&Hinge_hingestrength=1&CabinetHinge_bore=3.2&CabinetHinge_eyes_per_hinge=5&CabinetHinge_hinges=2&CabinetHinge_style=inside&CabinetHinge_eye=1.5&CabinetHinge_play=0.05&CabinetHinge_spacing=2.0&SlideOnLid_hole_width=0&SlideOnLid_second_pin=0&SlideOnLid_second_pin=1&SlideOnLid_spring=both&SlideOnLid_style=rectangular&SlideOnLid_surroundingspaces=2.0&SlideOnLid_bottom_lip=0.0&SlideOnLid_edge_width=1.0&SlideOnLid_extra_length=0.0&SlideOnLid_finger=3.0&SlideOnLid_play=0.05&SlideOnLid_space=2.0&SlideOnLid_width=1.0&Click_angle=5.0&Click_bottom_radius=0.1&Click_depth=3.0&RoundedTriangleEdge_height=50.0&RoundedTriangleEdge_r_hole=2.0&RoundedTriangleEdge_radius=30.0&RoundedTriangleEdge_outset=1.0&Mounting_d_head=6.5&Mounting_d_shaft=3.0&Mounting_margin=0.125&Mounting_num=2&Mounting_side=back&Mounting_style=straight+edge%2C+within&HandleEdge_height=20.0&HandleEdge_hole_height=75.0&HandleEdge_hole_width=40%3A40&HandleEdge_on_sides=0&HandleEdge_on_sides=1&HandleEdge_radius=10.0&HandleEdge_outset=1.0&Lid_handle=none&Lid_style=none&Lid_handle_height=8.0&Lid_height=4.0&Lid_play=0.1&text_size=12&text_alignment=left&text_distance_x=2.0&text_distance_y=2.0&text_at_front=0&label_text=&FingerHoleEdge_absolute_depth=0.0&FingerHoleEdge_absolute_width=0.0&FingerHoleEdge_radius=10.0&FingerHoleEdge_relative_depth=0.9&FingerHoleEdge_relative_width=0.3&sx=50*3&sy=50&h=100.0&hi=0.0&outside=0&bottom_edge=F&top_edge=e&back_height=0.0&radius=0.0&gripheight=30&gripwidth=0&handle=0&fingerholes=none&thickness=3.0&burn=0.1&format=svg&labels=0&labels=1&reference=100.0&tabs=0.0&qr_code=0&inner_corners=loop&spacing=0.5&debug=0&language=en&render=2
Url short: https://boxes.hackerspace-bamberg.de/TypeTray?label_text=&sx=50*3&sy=50&outside=0&bottom_edge=F&spacing=0.5
SettingsUrl: https://boxes.hackerspace-bamberg.de/TypeTray?FingerJoint_style=rectangular&FingerJoint_surroundingspaces=0.5&FingerJoint_bottom_lip=0.0&FingerJoint_edge_width=1.0&FingerJoint_extra_length=0.0&FingerJoint_finger=2.0&FingerJoint_play=0.0&FingerJoint_space=2.0&FingerJoint_width=1.0&Stackable_angle=60&Stackable_bottom_stabilizers=0.0&Stackable_height=2.0&Stackable_holedistance=1.0&Stackable_width=4.0&Hinge_grip_percentage=0&Hinge_outset=0&Hinge_pinwidth=0.5&Hinge_axle=2.0&Hinge_grip_length=0&Hinge_hingestrength=1&CabinetHinge_bore=3.2&CabinetHinge_eyes_per_hinge=5&CabinetHinge_hinges=2&CabinetHinge_style=inside&CabinetHinge_eye=1.5&CabinetHinge_play=0.05&CabinetHinge_spacing=2.0&SlideOnLid_hole_width=0&SlideOnLid_second_pin=0&SlideOnLid_second_pin=1&SlideOnLid_spring=both&SlideOnLid_style=rectangular&SlideOnLid_surroundingspaces=2.0&SlideOnLid_bottom_lip=0.0&SlideOnLid_edge_width=1.0&SlideOnLid_extra_length=0.0&SlideOnLid_finger=3.0&SlideOnLid_play=0.05&SlideOnLid_space=2.0&SlideOnLid_width=1.0&Click_angle=5.0&Click_bottom_radius=0.1&Click_depth=3.0&RoundedTriangleEdge_height=50.0&RoundedTriangleEdge_r_hole=2.0&RoundedTriangleEdge_radius=30.0&RoundedTriangleEdge_outset=1.0&Mounting_d_head=6.5&Mounting_d_shaft=3.0&Mounting_margin=0.125&Mounting_num=2&Mounting_side=back&Mounting_style=straight+edge%2C+within&HandleEdge_height=20.0&HandleEdge_hole_height=75.0&HandleEdge_hole_width=40%3A40&HandleEdge_on_sides=0&HandleEdge_on_sides=1&HandleEdge_radius=10.0&HandleEdge_outset=1.0&Lid_handle=none&Lid_style=none&Lid_handle_height=8.0&Lid_height=4.0&Lid_play=0.1&text_size=12&text_alignment=left&text_distance_x=2.0&text_distance_y=2.0&text_at_front=0&label_text=&FingerHoleEdge_absolute_depth=0.0&FingerHoleEdge_absolute_width=0.0&FingerHoleEdge_radius=10.0&FingerHoleEdge_relative_depth=0.9&FingerHoleEdge_relative_width=0.3&sx=50*3&sy=50&h=100.0&hi=0.0&outside=0&bottom_edge=F&top_edge=e&back_height=0.0&radius=0.0&gripheight=30&gripwidth=0&handle=0&fingerholes=none&thickness=3.0&burn=0.1&format=svg&labels=0&labels=1&reference=100.0&tabs=0.0&qr_code=0&inner_corners=loop&spacing=0.5&debug=0&language=en&render=2
SettingsUrl short: https://boxes.hackerspace-bamberg.de/TypeTray?label_text=&sx=50*3&sy=50&outside=0&bottom_edge=F&spacing=0.5
-->
<title>TypeTray</title>
<metadata>
<rdf:RDF><cc:Work>
<dc:title>Tray - TypeTray</dc:title>
<dc:date>2026-04-02 22:18:15</dc:date>
<dc:source>https://boxes.hackerspace-bamberg.de/TypeTray?FingerJoint_style=rectangular&amp;FingerJoint_surroundingspaces=0.5&amp;FingerJoint_bottom_lip=0.0&amp;FingerJoint_edge_width=1.0&amp;FingerJoint_extra_length=0.0&amp;FingerJoint_finger=2.0&amp;FingerJoint_play=0.0&amp;FingerJoint_space=2.0&amp;FingerJoint_width=1.0&amp;Stackable_angle=60&amp;Stackable_bottom_stabilizers=0.0&amp;Stackable_height=2.0&amp;Stackable_holedistance=1.0&amp;Stackable_width=4.0&amp;Hinge_grip_percentage=0&amp;Hinge_outset=0&amp;Hinge_pinwidth=0.5&amp;Hinge_axle=2.0&amp;Hinge_grip_length=0&amp;Hinge_hingestrength=1&amp;CabinetHinge_bore=3.2&amp;CabinetHinge_eyes_per_hinge=5&amp;CabinetHinge_hinges=2&amp;CabinetHinge_style=inside&amp;CabinetHinge_eye=1.5&amp;CabinetHinge_play=0.05&amp;CabinetHinge_spacing=2.0&amp;SlideOnLid_hole_width=0&amp;SlideOnLid_second_pin=0&amp;SlideOnLid_second_pin=1&amp;SlideOnLid_spring=both&amp;SlideOnLid_style=rectangular&amp;SlideOnLid_surroundingspaces=2.0&amp;SlideOnLid_bottom_lip=0.0&amp;SlideOnLid_edge_width=1.0&amp;SlideOnLid_extra_length=0.0&amp;SlideOnLid_finger=3.0&amp;SlideOnLid_play=0.05&amp;SlideOnLid_space=2.0&amp;SlideOnLid_width=1.0&amp;Click_angle=5.0&amp;Click_bottom_radius=0.1&amp;Click_depth=3.0&amp;RoundedTriangleEdge_height=50.0&amp;RoundedTriangleEdge_r_hole=2.0&amp;RoundedTriangleEdge_radius=30.0&amp;RoundedTriangleEdge_outset=1.0&amp;Mounting_d_head=6.5&amp;Mounting_d_shaft=3.0&amp;Mounting_margin=0.125&amp;Mounting_num=2&amp;Mounting_side=back&amp;Mounting_style=straight+edge%2C+within&amp;HandleEdge_height=20.0&amp;HandleEdge_hole_height=75.0&amp;HandleEdge_hole_width=40%3A40&amp;HandleEdge_on_sides=0&amp;HandleEdge_on_sides=1&amp;HandleEdge_radius=10.0&amp;HandleEdge_outset=1.0&amp;Lid_handle=none&amp;Lid_style=none&amp;Lid_handle_height=8.0&amp;Lid_height=4.0&amp;Lid_play=0.1&amp;text_size=12&amp;text_alignment=left&amp;text_distance_x=2.0&amp;text_distance_y=2.0&amp;text_at_front=0&amp;label_text=&amp;FingerHoleEdge_absolute_depth=0.0&amp;FingerHoleEdge_absolute_width=0.0&amp;FingerHoleEdge_radius=10.0&amp;FingerHoleEdge_relative_depth=0.9&amp;FingerHoleEdge_relative_width=0.3&amp;sx=50*3&amp;sy=50&amp;h=100.0&amp;hi=0.0&amp;outside=0&amp;bottom_edge=F&amp;top_edge=e&amp;back_height=0.0&amp;radius=0.0&amp;gripheight=30&amp;gripwidth=0&amp;handle=0&amp;fingerholes=none&amp;thickness=3.0&amp;burn=0.1&amp;format=svg&amp;labels=0&amp;labels=1&amp;reference=100.0&amp;tabs=0.0&amp;qr_code=0&amp;inner_corners=loop&amp;spacing=0.5&amp;debug=0&amp;language=en&amp;render=2</dc:source>
<dc:source>https://boxes.hackerspace-bamberg.de/TypeTray?label_text=&amp;sx=50*3&amp;sy=50&amp;outside=0&amp;bottom_edge=F&amp;spacing=0.5</dc:source>
<dc:description>Type tray - allows only continuous walls

Created with Boxes.py (https://boxes.hackerspace-bamberg.de/)
Command line: boxes TypeTray --FingerJoint_style=rectangular --FingerJoint_surroundingspaces=0.5 --FingerJoint_bottom_lip=0.0 --FingerJoint_edge_width=1.0 --FingerJoint_extra_length=0.0 --FingerJoint_finger=2.0 --FingerJoint_play=0.0 --FingerJoint_space=2.0 --FingerJoint_width=1.0 --Stackable_angle=60 --Stackable_bottom_stabilizers=0.0 --Stackable_height=2.0 --Stackable_holedistance=1.0 --Stackable_width=4.0 --Hinge_grip_percentage=0 --Hinge_outset=0 --Hinge_pinwidth=0.5 --Hinge_axle=2.0 --Hinge_grip_length=0 --Hinge_hingestrength=1 --CabinetHinge_bore=3.2 --CabinetHinge_eyes_per_hinge=5 --CabinetHinge_hinges=2 --CabinetHinge_style=inside --CabinetHinge_eye=1.5 --CabinetHinge_play=0.05 --CabinetHinge_spacing=2.0 --SlideOnLid_hole_width=0 --SlideOnLid_second_pin=0 --SlideOnLid_second_pin=1 --SlideOnLid_spring=both --SlideOnLid_style=rectangular --SlideOnLid_surroundingspaces=2.0 --SlideOnLid_bottom_lip=0.0 --SlideOnLid_edge_width=1.0 --SlideOnLid_extra_length=0.0 --SlideOnLid_finger=3.0 --SlideOnLid_play=0.05 --SlideOnLid_space=2.0 --SlideOnLid_width=1.0 --Click_angle=5.0 --Click_bottom_radius=0.1 --Click_depth=3.0 --RoundedTriangleEdge_height=50.0 --RoundedTriangleEdge_r_hole=2.0 --RoundedTriangleEdge_radius=30.0 --RoundedTriangleEdge_outset=1.0 --Mounting_d_head=6.5 --Mounting_d_shaft=3.0 --Mounting_margin=0.125 --Mounting_num=2 --Mounting_side=back '--Mounting_style=straight edge, within' --HandleEdge_height=20.0 --HandleEdge_hole_height=75.0 --HandleEdge_hole_width=40:40 --HandleEdge_on_sides=0 --HandleEdge_on_sides=1 --HandleEdge_radius=10.0 --HandleEdge_outset=1.0 --Lid_handle=none --Lid_style=none --Lid_handle_height=8.0 --Lid_height=4.0 --Lid_play=0.1 --text_size=12 --text_alignment=left --text_distance_x=2.0 --text_distance_y=2.0 --text_at_front=0 --label_text= --FingerHoleEdge_absolute_depth=0.0 --FingerHoleEdge_absolute_width=0.0 --FingerHoleEdge_radius=10.0 --FingerHoleEdge_relative_depth=0.9 --FingerHoleEdge_relative_width=0.3 '--sx=50*3' --sy=50 --h=100.0 --hi=0.0 --outside=0 --bottom_edge=F --top_edge=e --back_height=0.0 --radius=0.0 --gripheight=30 --gripwidth=0 --handle=0 --fingerholes=none --thickness=3.0 --burn=0.1 --format=svg --labels=0 --labels=1 --reference=100.0 --tabs=0.0 --qr_code=0 --inner_corners=loop --spacing=0.5 --debug=0
Command line short: boxes TypeTray --label_text= '--sx=50*3' --sy=50 --outside=0 --bottom_edge=F --spacing=0.5
Url: https://boxes.hackerspace-bamberg.de/TypeTray?FingerJoint_style=rectangular&amp;FingerJoint_surroundingspaces=0.5&amp;FingerJoint_bottom_lip=0.0&amp;FingerJoint_edge_width=1.0&amp;FingerJoint_extra_length=0.0&amp;FingerJoint_finger=2.0&amp;FingerJoint_play=0.0&amp;FingerJoint_space=2.0&amp;FingerJoint_width=1.0&amp;Stackable_angle=60&amp;Stackable_bottom_stabilizers=0.0&amp;Stackable_height=2.0&amp;Stackable_holedistance=1.0&amp;Stackable_width=4.0&amp;Hinge_grip_percentage=0&amp;Hinge_outset=0&amp;Hinge_pinwidth=0.5&amp;Hinge_axle=2.0&amp;Hinge_grip_length=0&amp;Hinge_hingestrength=1&amp;CabinetHinge_bore=3.2&amp;CabinetHinge_eyes_per_hinge=5&amp;CabinetHinge_hinges=2&amp;CabinetHinge_style=inside&amp;CabinetHinge_eye=1.5&amp;CabinetHinge_play=0.05&amp;CabinetHinge_spacing=2.0&amp;SlideOnLid_hole_width=0&amp;SlideOnLid_second_pin=0&amp;SlideOnLid_second_pin=1&amp;SlideOnLid_spring=both&amp;SlideOnLid_style=rectangular&amp;SlideOnLid_surroundingspaces=2.0&amp;SlideOnLid_bottom_lip=0.0&amp;SlideOnLid_edge_width=1.0&amp;SlideOnLid_extra_length=0.0&amp;SlideOnLid_finger=3.0&amp;SlideOnLid_play=0.05&amp;SlideOnLid_space=2.0&amp;SlideOnLid_width=1.0&amp;Click_angle=5.0&amp;Click_bottom_radius=0.1&amp;Click_depth=3.0&amp;RoundedTriangleEdge_height=50.0&amp;RoundedTriangleEdge_r_hole=2.0&amp;RoundedTriangleEdge_radius=30.0&amp;RoundedTriangleEdge_outset=1.0&amp;Mounting_d_head=6.5&amp;Mounting_d_shaft=3.0&amp;Mounting_margin=0.125&amp;Mounting_num=2&amp;Mounting_side=back&amp;Mounting_style=straight+edge%2C+within&amp;HandleEdge_height=20.0&amp;HandleEdge_hole_height=75.0&amp;HandleEdge_hole_width=40%3A40&amp;HandleEdge_on_sides=0&amp;HandleEdge_on_sides=1&amp;HandleEdge_radius=10.0&amp;HandleEdge_outset=1.0&amp;Lid_handle=none&amp;Lid_style=none&amp;Lid_handle_height=8.0&amp;Lid_height=4.0&amp;Lid_play=0.1&amp;text_size=12&amp;text_alignment=left&amp;text_distance_x=2.0&amp;text_distance_y=2.0&amp;text_at_front=0&amp;label_text=&amp;FingerHoleEdge_absolute_depth=0.0&amp;FingerHoleEdge_absolute_width=0.0&amp;FingerHoleEdge_radius=10.0&amp;FingerHoleEdge_relative_depth=0.9&amp;FingerHoleEdge_relative_width=0.3&amp;sx=50*3&amp;sy=50&amp;h=100.0&amp;hi=0.0&amp;outside=0&amp;bottom_edge=F&amp;top_edge=e&amp;back_height=0.0&amp;radius=0.0&amp;gripheight=30&amp;gripwidth=0&amp;handle=0&amp;fingerholes=none&amp;thickness=3.0&amp;burn=0.1&amp;format=svg&amp;labels=0&amp;labels=1&amp;reference=100.0&amp;tabs=0.0&amp;qr_code=0&amp;inner_corners=loop&amp;spacing=0.5&amp;debug=0&amp;language=en&amp;render=2
Url short: https://boxes.hackerspace-bamberg.de/TypeTray?label_text=&amp;sx=50*3&amp;sy=50&amp;outside=0&amp;bottom_edge=F&amp;spacing=0.5
SettingsUrl: https://boxes.hackerspace-bamberg.de/TypeTray?FingerJoint_style=rectangular&amp;FingerJoint_surroundingspaces=0.5&amp;FingerJoint_bottom_lip=0.0&amp;FingerJoint_edge_width=1.0&amp;FingerJoint_extra_length=0.0&amp;FingerJoint_finger=2.0&amp;FingerJoint_play=0.0&amp;FingerJoint_space=2.0&amp;FingerJoint_width=1.0&amp;Stackable_angle=60&amp;Stackable_bottom_stabilizers=0.0&amp;Stackable_height=2.0&amp;Stackable_holedistance=1.0&amp;Stackable_width=4.0&amp;Hinge_grip_percentage=0&amp;Hinge_outset=0&amp;Hinge_pinwidth=0.5&amp;Hinge_axle=2.0&amp;Hinge_grip_length=0&amp;Hinge_hingestrength=1&amp;CabinetHinge_bore=3.2&amp;CabinetHinge_eyes_per_hinge=5&amp;CabinetHinge_hinges=2&amp;CabinetHinge_style=inside&amp;CabinetHinge_eye=1.5&amp;CabinetHinge_play=0.05&amp;CabinetHinge_spacing=2.0&amp;SlideOnLid_hole_width=0&amp;SlideOnLid_second_pin=0&amp;SlideOnLid_second_pin=1&amp;SlideOnLid_spring=both&amp;SlideOnLid_style=rectangular&amp;SlideOnLid_surroundingspaces=2.0&amp;SlideOnLid_bottom_lip=0.0&amp;SlideOnLid_edge_width=1.0&amp;SlideOnLid_extra_length=0.0&amp;SlideOnLid_finger=3.0&amp;SlideOnLid_play=0.05&amp;SlideOnLid_space=2.0&amp;SlideOnLid_width=1.0&amp;Click_angle=5.0&amp;Click_bottom_radius=0.1&amp;Click_depth=3.0&amp;RoundedTriangleEdge_height=50.0&amp;RoundedTriangleEdge_r_hole=2.0&amp;RoundedTriangleEdge_radius=30.0&amp;RoundedTriangleEdge_outset=1.0&amp;Mounting_d_head=6.5&amp;Mounting_d_shaft=3.0&amp;Mounting_margin=0.125&amp;Mounting_num=2&amp;Mounting_side=back&amp;Mounting_style=straight+edge%2C+within&amp;HandleEdge_height=20.0&amp;HandleEdge_hole_height=75.0&amp;HandleEdge_hole_width=40%3A40&amp;HandleEdge_on_sides=0&amp;HandleEdge_on_sides=1&amp;HandleEdge_radius=10.0&amp;HandleEdge_outset=1.0&amp;Lid_handle=none&amp;Lid_style=none&amp;Lid_handle_height=8.0&amp;Lid_height=4.0&amp;Lid_play=0.1&amp;text_size=12&amp;text_alignment=left&amp;text_distance_x=2.0&amp;text_distance_y=2.0&amp;text_at_front=0&amp;label_text=&amp;FingerHoleEdge_absolute_depth=0.0&amp;FingerHoleEdge_absolute_width=0.0&amp;FingerHoleEdge_radius=10.0&amp;FingerHoleEdge_relative_depth=0.9&amp;FingerHoleEdge_relative_width=0.3&amp;sx=50*3&amp;sy=50&amp;h=100.0&amp;hi=0.0&amp;outside=0&amp;bottom_edge=F&amp;top_edge=e&amp;back_height=0.0&amp;radius=0.0&amp;gripheight=30&amp;gripwidth=0&amp;handle=0&amp;fingerholes=none&amp;thickness=3.0&amp;burn=0.1&amp;format=svg&amp;labels=0&amp;labels=1&amp;reference=100.0&amp;tabs=0.0&amp;qr_code=0&amp;inner_corners=loop&amp;spacing=0.5&amp;debug=0&amp;language=en&amp;render=2
SettingsUrl short: https://boxes.hackerspace-bamberg.de/TypeTray?label_text=&amp;sx=50*3&amp;sy=50&amp;outside=0&amp;bottom_edge=F&amp;spacing=0.5
</dc:description>
</cc:Work></rdf:RDF></metadata>
<g id="p-0" style="fill:none;stroke-linecap:round;stroke-linejoin:round;">
  <path d="M 10.100 439.000 H 110.100 V 429.000 H 10.100 V 439.000 Z" stroke="rgb(0,0,0)" stroke-width="0.20" />
  <text dominant-baseline="hanging" font-size="6px" style="font-family: sans-serif ; font-weight: normal; font-style: normal; fill: rgb(255,0,0)" text-anchor="middle" transform="matrix( 1.000 0.000 0.000 1.000 60.100 431.000 )">100.0mm, burn:0.10mm</text>
</g>
<g id="p-1" style="fill:none;stroke-linecap:round;stroke-linejoin:round;">
  <path d="M 66.000 417.200 V 420.100 C 66.000 420.200 66.100 420.100 66.000 420.100 H 63.200 C 63.100 420.100 63.200 420.200 63.200 420.100 V 414.300 C 63.200 414.200 63.100 414.300 63.200 414.300 H 66.000 C 66.100 414.300 66.000 414.200 66.000 414.300 V 417.200 Z" stroke="rgb(0,0,255)" stroke-width="0.20" />
  <path d="M 66.000 405.200 V 408.100 C 66.000 408.200 66.100 408.100 66.000 408.100 H 63.200 C 63.100 408.100 63.200 408.200 63.200 408.100 V 402.300 C 63.200 402.200 63.100 402.300 63.200 402.300 H 66.000 C 66.100 402.300 66.000 402.200 66.000 402.300 V 405.200 Z" stroke="rgb(0,0,255)" stroke-width="0.20" />
  <path d="M 66.000 393.200 V 396.100 C 66.000 396.200 66.100 396.100 66.000 396.100 H 63.200 C 63.100 396.100 63.200 396.200 63.200 396.100 V 390.300 C 63.200 390.200 63.100 390.300 63.200 390.300 H 66.000 C 66.100 390.300 66.000 390.200 66.000 390.300 V 393.200 Z" stroke="rgb(0,0,255)" stroke-width="0.20" />
  <path d="M 66.000 381.200 V 384.100 C 66.000 384.200 66.100 384.100 66.000 384.100 H 63.200 C 63.100 384.100 63.200 384.200 63.200 384.100 V 378.300 C 63.200 378.200 63.100 378.300 63.200 378.300 H 66.000 C 66.100 378.300 66.000 378.200 66.000 378.300 V 381.200 Z" stroke="rgb(0,0,255)" stroke-width="0.20" />
  <path d="M 119.000 417.200 V 420.100 C 119.000 420.200 119.100 420.100 119.000 420.100 H 116.200 C 116.100 420.100 116.200 420.200 116.200 420.100 V 414.300 C 116.200 414.200 116.100 414.300 116.200 414.300 H 119.000 C 119.100 414.300 119.000 414.200 119.000 414.300 V 417.200 Z" stroke="rgb(0,0,255)" stroke-width="0.20" />
  <path d="M 119.000 405.200 V 408.100 C 119.000 408.200 119.100 408.100 119.000 408.100 H 116.200 C 116.100 408.100 116.200 408.200 116.200 408.100 V 402.300 C 116.200 402.200 116.100 402.300 116.200 402.300 H 119.000 C 119.100 402.300 119.000 402.200 119.000 402.300 V 405.200 Z" stroke="rgb(0,0,255)" stroke-width="0.20" />
  <path d="M 119.000 393.200 V 396.100 C 119.000 396.200 119.100 396.100 119.000 396.100 H 116.200 C 116.100 396.100 116.200 396.200 116.200 396.100 V 390.300 C 116.200 390.200 116.100 390.300 116.200 390.300 H 119.000 C 119.100 390.300 119.000 390.200 119.000 390.300 V 393.200 Z" stroke="rgb(0,0,255)" stroke-width="0.20" />
  <path d="M 119.000 381.200 V 384.100 C 119.000 384.200 119.100 384.100 119.000 384.100 H 116.200 C 116.100 384.100 116.200 384.200 116.200 384.100 V 378.300 C 116.200 378.200 116.100 378.300 116.200 378.300 H 119.000 C 119.100 378.300 119.000 378.200 119.000 378.300 V 381.200 Z" stroke="rgb(0,0,255)" stroke-width="0.20" />
  <path d="M 13.100 424.300 H 16.000 C 16.100 424.300 16.000 424.200 16.000 424.300 V 427.200 C 16.000 427.255 16.045 427.300 16.100 427.300 H 22.100 C 22.155 427.300 22.200 427.255 22.200 427.200 V 424.300 C 22.200 424.200 22.100 424.300 22.200 424.300 H 28.000 C 28.100 424.300 28.000 424.200 28.000 424.300 V 427.200 C 28.000 427.255 28.045 427.300 28.100 427.300 H 34.100 C 34.155 427.300 34.200 427.255 34.200 427.200 V 424.300 C 34.200 424.200 34.100 424.300 34.200 424.300 H 40.000 C 40.100 424.300 40.000 424.200 40.000 424.300 V 427.200 C 40.000 427.255 40.045 427.300 40.100 427.300 H 46.100 C 46.155 427.300 46.200 427.255 46.200 427.200 V 424.300 C 46.200 424.200 46.100 424.300 46.200 424.300 H 52.000 C 52.100 424.300 52.000 424.200 52.000 424.300 V 427.200 C 52.000 427.255 52.045 427.300 52.100 427.300 H 58.100 C 58.155 427.300 58.200 427.255 58.200 427.200 V 424.300 C 58.200 424.200 58.100 424.300 58.200 424.300 H 64.000 C 64.100 424.300 64.000 424.200 64.000 424.300 V 427.200 C 64.000 427.255 64.045 427.300 64.100 427.300 H 70.100 C 70.155 427.300 70.200 427.255 70.200 427.200 V 424.300 C 70.200 424.200 70.100 424.300 70.200 424.300 H 76.000 C 76.100 424.300 76.000 424.200 76.000 424.300 V 427.200 C 76.000 427.255 76.045 427.300 76.100 427.300 H 82.100 C 82.155 427.300 82.200 427.255 82.200 427.200 V 424.300 C 82.200 424.200 82.100 424.300 82.200 424.300 H 88.000 C 88.100 424.300 88.000 424.200 88.000 424.300 V 427.200 C 88.000 427.255 88.045 427.300 88.100 427.300 H 94.100 C 94.155 427.300 94.200 427.255 94.200 427.200 V 424.300 C 94.200 424.200 94.100 424.300 94.200 424.300 H 100.000 C 100.100 424.300 100.000 424.200 100.000 424.300 V 427.200 C 100.000 427.255 100.045 427.300 100.100 427.300 H 106.100 C 106.155 427.300 106.200 427.255 106.200 427.200 V 424.300 C 106.200 424.200 106.100 424.300 106.200 424.300 H 112.000 C 112.100 424.300 112.000 424.200 112.000 424.300 V 427.200 C 112.000 427.255 112.045 427.300 112.100 427.300 H 118.100 C 118.155 427.300 118.200 427.255 118.200 427.200 V 424.300 C 118.200 424.200 118.100 424.300 118.200 424.300 H 124.000 C 124.100 424.300 124.000 424.200 124.000 424.300 V 427.200 C 124.000 427.255 124.045 427.300 124.100 427.300 H 130.100 C 130.155 427.300 130.200 427.255 130.200 427.200 V 424.300 C 130.200 424.200 130.100 424.300 130.200 424.300 H 136.000 C 136.100 424.300 136.000 424.200 136.000 424.300 V 427.200 C 136.000 427.255 136.045 427.300 136.100 427.300 H 142.100 C 142.155 427.300 142.200 427.255 142.200 427.200 V 424.300 C 142.200 424.200 142.100 424.300 142.200 424.300 H 148.000 C 148.100 424.300 148.000 424.200 148.000 424.300 V 427.200 C 148.000 427.255 148.045 427.300 148.100 427.300 H 154.100 C 154.155 427.300 154.200 427.255 154.200 427.200 V 424.300 C 154.200 424.200 154.100 424.300 154.200 424.300 H 160.000 C 160.100 424.300 160.000 424.200 160.000 424.300 V 427.200 C 160.000 427.255 160.045 427.300 160.100 427.300 H 166.100 C 166.155 427.300 166.200 427.255 166.200 427.200 V 424.300 C 166.200 424.200 166.100 424.300 166.200 424.300 H 169.100 C 169.155 424.300 169.200 424.255 169.200 424.200 V 420.300 C 169.200 420.200 169.100 420.300 169.200 420.300 H 172.100 C 172.155 420.300 172.200 420.255 172.200 420.200 V 414.200 C 172.200 414.145 172.155 414.100 172.100 414.100 H 169.200 C 169.100 414.100 169.200 414.200 169.200 414.100 V 408.300 C 169.200 408.200 169.100 408.300 169.200 408.300 H 172.100 C 172.155 408.300 172.200 408.255 172.200 408.200 V 402.200 C 172.200 402.145 172.155 402.100 172.100 402.100 H 169.200 C 169.100 402.100 169.200 402.200 169.200 402.100 V 396.300 C 169.200 396.200 169.100 396.300 169.200 396.300 H 172.100 C 172.155 396.300 172.200 396.255 172.200 396.200 V 390.200 C 172.200 390.145 172.155 390.100 172.100 390.100 H 169.200 C 169.100 390.100 169.200 390.200 169.200 390.100 V 384.300 C 169.200 384.200 169.100 384.300 169.200 384.300 H 172.100 C 172.155 384.300 172.200 384.255 172.200 384.200 V 378.200 C 172.200 378.145 172.155 378.100 172.100 378.100 H 169.200 C 169.100 378.100 169.200 378.200 169.200 378.100 V 374.200 C 169.200 374.145 169.155 374.100 169.100 374.100 H 166.200 C 166.100 374.100 166.200 374.200 166.200 374.100 V 371.200 C 166.200 371.145 166.155 371.100 166.100 371.100 H 160.100 C 160.045 371.100 160.000 371.145 160.000 371.200 V 374.100 C 160.000 374.200 160.100 374.100 160.000 374.100 H 154.200 C 154.100 374.100 154.200 374.200 154.200 374.100 V 371.200 C 154.200 371.145 154.155 371.100 154.100 371.100 H 148.100 C 148.045 371.100 148.000 371.145 148.000 371.200 V 374.100 C 148.000 374.200 148.100 374.100 148.000 374.100 H 142.200 C 142.100 374.100 142.200 374.200 142.200 374.100 V 371.200 C 142.200 371.145 142.155 371.100 142.100 371.100 H 136.100 C 136.045 371.100 136.000 371.145 136.000 371.200 V 374.100 C 136.000 374.200 136.100 374.100 136.000 374.100 H 130.200 C 130.100 374.100 130.200 374.200 130.200 374.100 V 371.200 C 130.200 371.145 130.155 371.100 130.100 371.100 H 124.100 C 124.045 371.100 124.000 371.145 124.000 371.200 V 374.100 C 124.000 374.200 124.100 374.100 124.000 374.100 H 118.200 C 118.100 374.100 118.200 374.200 118.200 374.100 V 371.200 C 118.200 371.145 118.155 371.100 118.100 371.100 H 112.100 C 112.045 371.100 112.000 371.145 112.000 371.200 V 374.100 C 112.000 374.200 112.100 374.100 112.000 374.100 H 106.200 C 106.100 374.100 106.200 374.200 106.200 374.100 V 371.200 C 106.200 371.145 106.155 371.100 106.100 371.100 H 100.100 C 100.045 371.100 100.000 371.145 100.000 371.200 V 374.100 C 100.000 374.200 100.100 374.100 100.000 374.100 H 94.200 C 94.100 374.100 94.200 374.200 94.200 374.100 V 371.200 C 94.200 371.145 94.155 371.100 94.100 371.100 H 88.100 C 88.045 371.100 88.000 371.145 88.000 371.200 V 374.100 C 88.000 374.200 88.100 374.100 88.000 374.100 H 82.200 C 82.100 374.100 82.200 374.200 82.200 374.100 V 371.200 C 82.200 371.145 82.155 371.100 82.100 371.100 H 76.100 C 76.045 371.100 76.000 371.145 76.000 371.200 V 374.100 C 76.000 374.200 76.100 374.100 76.000 374.100 H 70.200 C 70.100 374.100 70.200 374.200 70.200 374.100 V 371.200 C 70.200 371.145 70.155 371.100 70.100 371.100 H 64.100 C 64.045 371.100 64.000 371.145 64.000 371.200 V 374.100 C 64.000 374.200 64.100 374.100 64.000 374.100 H 58.200 C 58.100 374.100 58.200 374.200 58.200 374.100 V 371.200 C 58.200 371.145 58.155 371.100 58.100 371.100 H 52.100 C 52.045 371.100 52.000 371.145 52.000 371.200 V 374.100 C 52.000 374.200 52.100 374.100 52.000 374.100 H 46.200 C 46.100 374.100 46.200 374.200 46.200 374.100 V 371.200 C 46.200 371.145 46.155 371.100 46.100 371.100 H 40.100 C 40.045 371.100 40.000 371.145 40.000 371.200 V 374.100 C 40.000 374.200 40.100 374.100 40.000 374.100 H 34.200 C 34.100 374.100 34.200 374.200 34.200 374.100 V 371.200 C 34.200 371.145 34.155 371.100 34.100 371.100 H 28.100 C 28.045 371.100 28.000 371.145 28.000 371.200 V 374.100 C 28.000 374.200 28.100 374.100 28.000 374.100 H 22.200 C 22.100 374.100 22.200 374.200 22.200 374.100 V 371.200 C 22.200 371.145 22.155 371.100 22.100 371.100 H 16.100 C 16.045 371.100 16.000 371.145 16.000 371.200 V 374.100 C 16.000 374.200 16.100 374.100 16.000 374.100 H 13.100 C 13.045 374.100 13.000 374.145 13.000 374.200 V 378.100 C 13.000 378.200 13.100 378.100 13.000 378.100 H 10.100 C 10.045 378.100 10.000 378.145 10.000 378.200 V 384.200 C 10.000 384.255 10.045 384.300 10.100 384.300 H 13.000 C 13.100 384.300 13.000 384.200 13.000 384.300 V 390.100 C 13.000 390.200 13.100 390.100 13.000 390.100 H 10.100 C 10.045 390.100 10.000 390.145 10.000 390.200 V 396.200 C 10.000 396.255 10.045 396.300 10.100 396.300 H 13.000 C 13.100 396.300 13.000 396.200 13.000 396.300 V 402.100 C 13.000 402.200 13.100 402.100 13.000 402.100 H 10.100 C 10.045 402.100 10.000 402.145 10.000 402.200 V 408.200 C 10.000 408.255 10.045 408.300 10.100 408.300 H 13.000 C 13.100 408.300 13.000 408.200 13.000 408.300 V 414.100 C 13.000 414.200 13.100 414.100 13.000 414.100 H 10.100 C 10.045 414.100 10.000 414.145 10.000 414.200 V 420.200 C 10.000 420.255 10.045 420.300 10.100 420.300 H 13.000 C 13.100 420.300 13.000 420.200 13.000 420.300 V 424.200 C 13.000 424.255 13.045 424.300 13.100 424.300 Z" stroke="rgb(0,0,0)" stroke-width="0.20" />
  <text dominant-baseline="hanging" font-size="4px" style="font-family: sans-serif ; font-weight: normal; font-style: normal; fill: rgb(255,0,0)" text-anchor="middle" transform="matrix( 1.000 0.000 0.000 1.000 91.100 397.300 )">bottom</text>
</g>
<g id="p-2" style="fill:none;stroke-linecap:round;stroke-linejoin:round;">
  <path d="M 66.000 358.500 V 361.400 C 66.000 361.500 66.100 361.400 66.000 361.400 H 63.200 C 63.100 361.400 63.200 361.500 63.200 361.400 V 355.600 C 63.200 355.500 63.100 355.600 63.200 355.600 H 66.000 C 66.100 355.600 66.000 355.500 66.000 355.600 V 358.500 Z" stroke="rgb(0,0,255)" stroke-width="0.20" />
  <path d="M 66.000 346.500 V 349.400 C 66.000 349.500 66.100 349.400 66.000 349.400 H 63.200 C 63.100 349.400 63.200 349.500 63.200 349.400 V 343.600 C 63.200 343.500 63.100 343.600 63.200 343.600 H 66.000 C 66.100 343.600 66.000 343.500 66.000 343.600 V 346.500 Z" stroke="rgb(0,0,255)" stroke-width="0.20" />
  <path d="M 66.000 334.500 V 337.400 C 66.000 337.500 66.100 337.400 66.000 337.400 H 63.200 C 63.100 337.400 63.200 337.500 63.200 337.400 V 331.600 C 63.200 331.500 63.100 331.600 63.200 331.600 H 66.000 C 66.100 331.600 66.000 331.500 66.000 331.600 V 334.500 Z" stroke="rgb(0,0,255)" stroke-width="0.20" />
  <path d="M 66.000 322.500 V 325.400 C 66.000 325.500 66.100 325.400 66.000 325.400 H 63.200 C 63.100 325.400 63.200 325.500 63.200 325.400 V 319.600 C 63.200 319.500 63.100 319.600 63.200 319.600 H 66.000 C 66.100 319.600 66.000 319.500 66.000 319.600 V 322.500 Z" stroke="rgb(0,0,255)" stroke-width="0.20" />
  <path d="M 66.000 310.500 V 313.400 C 66.000 313.500 66.100 313.400 66.000 313.400 H 63.200 C 63.100 313.400 63.200 313.500 63.200 313.400 V 307.600 C 63.200 307.500 63.100 307.600 63.200 307.600 H 66.000 C 66.100 307.600 66.000 307.500 66.000 307.600 V 310.500 Z" stroke="rgb(0,0,255)" stroke-width="0.20" />
  <path d="M 66.000 298.500 V 301.400 C 66.000 301.500 66.100 301.400 66.000 301.400 H 63.200 C 63.100 301.400 63.200 301.500 63.200 301.400 V 295.600 C 63.200 295.500 63.100 295.600 63.200 295.600 H 66.000 C 66.100 295.600 66.000 295.500 66.000 295.600 V 298.500 Z" stroke="rgb(0,0,255)" stroke-width="0.20" />
  <path d="M 66.000 286.500 V 289.400 C 66.000 289.500 66.100 289.400 66.000 289.400 H 63.200 C 63.100 289.400 63.200 289.500 63.200 289.400 V 283.600 C 63.200 283.500 63.100 283.600 63.200 283.600 H 66.000 C 66.100 283.600 66.000 283.500 66.000 283.600 V 286.500 Z" stroke="rgb(0,0,255)" stroke-width="0.20" />
  <path d="M 66.000 274.500 V 277.400 C 66.000 277.500 66.100 277.400 66.000 277.400 H 63.200 C 63.100 277.400 63.200 277.500 63.200 277.400 V 271.600 C 63.200 271.500 63.100 271.600 63.200 271.600 H 66.000 C 66.100 271.600 66.000 271.500 66.000 271.600 V 274.500 Z" stroke="rgb(0,0,255)" stroke-width="0.20" />
  <path d="M 119.000 358.500 V 361.400 C 119.000 361.500 119.100 361.400 119.000 361.400 H 116.200 C 116.100 361.400 116.200 361.500 116.200 361.400 V 355.600 C 116.200 355.500 116.100 355.600 116.200 355.600 H 119.000 C 119.100 355.600 119.000 355.500 119.000 355.600 V 358.500 Z" stroke="rgb(0,0,255)" stroke-width="0.20" />
  <path d="M 119.000 346.500 V 349.400 C 119.000 349.500 119.100 349.400 119.000 349.400 H 116.200 C 116.100 349.400 116.200 349.500 116.200 349.400 V 343.600 C 116.200 343.500 116.100 343.600 116.200 343.600 H 119.000 C 119.100 343.600 119.000 343.500 119.000 343.600 V 346.500 Z" stroke="rgb(0,0,255)" stroke-width="0.20" />
  <path d="M 119.000 334.500 V 337.400 C 119.000 337.500 119.100 337.400 119.000 337.400 H 116.200 C 116.100 337.400 116.200 337.500 116.200 337.400 V 331.600 C 116.200 331.500 116.100 331.600 116.200 331.600 H 119.000 C 119.100 331.600 119.000 331.500 119.000 331.600 V 334.500 Z" stroke="rgb(0,0,255)" stroke-width="0.20" />
  <path d="M 119.000 322.500 V 325.400 C 119.000 325.500 119.100 325.400 119.000 325.400 H 116.200 C 116.100 325.400 116.200 325.500 116.200 325.400 V 319.600 C 116.200 319.500 116.100 319.600 116.200 319.600 H 119.000 C 119.100 319.600 119.000 319.500 119.000 319.600 V 322.500 Z" stroke="rgb(0,0,255)" stroke-width="0.20" />
  <path d="M 119.000 310.500 V 313.400 C 119.000 313.500 119.100 313.400 119.000 313.400 H 116.200 C 116.100 313.400 116.200 313.500 116.200 313.400 V 307.600 C 116.200 307.500 116.100 307.600 116.200 307.600 H 119.000 C 119.100 307.600 119.000 307.500 119.000 307.600 V 310.500 Z" stroke="rgb(0,0,255)" stroke-width="0.20" />
  <path d="M 119.000 298.500 V 301.400 C 119.000 301.500 119.100 301.400 119.000 301.400 H 116.200 C 116.100 301.400 116.200 301.500 116.200 301.400 V 295.600 C 116.200 295.500 116.100 295.600 116.200 295.600 H 119.000 C 119.100 295.600 119.000 295.500 119.000 295.600 V 298.500 Z" stroke="rgb(0,0,255)" stroke-width="0.20" />
  <path d="M 119.000 286.500 V 289.400 C 119.000 289.500 119.100 289.400 119.000 289.400 H 116.200 C 116.100 289.400 116.200 289.500 116.200 289.400 V 283.600 C 116.200 283.500 116.100 283.600 116.200 283.600 H 119.000 C 119.100 283.600 119.000 283.500 119.000 283.600 V 286.500 Z" stroke="rgb(0,0,255)" stroke-width="0.20" />
  <path d="M 119.000 274.500 V 277.400 C 119.000 277.500 119.100 277.400 119.000 277.400 H 116.200 C 116.100 277.400 116.200 277.500 116.200 277.400 V 271.600 C 116.200 271.500 116.100 271.600 116.200 271.600 H 119.000 C 119.100 271.600 119.000 271.500 119.000 271.600 V 274.500 Z" stroke="rgb(0,0,255)" stroke-width="0.20" />
  <path d="M 13.100 369.600 H 16.100 C 16.155 369.600 16.200 369.555 16.200 369.500 V 366.600 C 16.200 366.500 16.100 366.600 16.200 366.600 H 22.000 C 22.100 366.600 22.000 366.500 22.000 366.600 V 369.500 C 22.000 369.555 22.045 369.600 22.100 369.600 H 28.100 C 28.155 369.600 28.200 369.555 28.200 369.500 V 366.600 C 28.200 366.500 28.100 366.600 28.200 366.600 H 34.000 C 34.100 366.600 34.000 366.500 34.000 366.600 V 369.500 C 34.000 369.555 34.045 369.600 34.100 369.600 H 40.100 C 40.155 369.600 40.200 369.555 40.200 369.500 V 366.600 C 40.200 366.500 40.100 366.600 40.200 366.600 H 46.000 C 46.100 366.600 46.000 366.500 46.000 366.600 V 369.500 C 46.000 369.555 46.045 369.600 46.100 369.600 H 52.100 C 52.155 369.600 52.200 369.555 52.200 369.500 V 366.600 C 52.200 366.500 52.100 366.600 52.200 366.600 H 58.000 C 58.100 366.600 58.000 366.500 58.000 366.600 V 369.500 C 58.000 369.555 58.045 369.600 58.100 369.600 H 64.100 C 64.155 369.600 64.200 369.555 64.200 369.500 V 366.600 C 64.200 366.500 64.100 366.600 64.200 366.600 H 70.000 C 70.100 366.600 70.000 366.500 70.000 366.600 V 369.500 C 70.000 369.555 70.045 369.600 70.100 369.600 H 76.100 C 76.155 369.600 76.200 369.555 76.200 369.500 V 366.600 C 76.200 366.500 76.100 366.600 76.200 366.600 H 82.000 C 82.100 366.600 82.000 366.500 82.000 366.600 V 369.500 C 82.000 369.555 82.045 369.600 82.100 369.600 H 88.100 C 88.155 369.600 88.200 369.555 88.200 369.500 V 366.600 C 88.200 366.500 88.100 366.600 88.200 366.600 H 94.000 C 94.100 366.600 94.000 366.500 94.000 366.600 V 369.500 C 94.000 369.555 94.045 369.600 94.100 369.600 H 100.100 C 100.155 369.600 100.200 369.555 100.200 369.500 V 366.600 C 100.200 366.500 100.100 366.600 100.200 366.600 H 106.000 C 106.100 366.600 106.000 366.500 106.000 366.600 V 369.500 C 106.000 369.555 106.045 369.600 106.100 369.600 H 112.100 C 112.155 369.600 112.200 369.555 112.200 369.500 V 366.600 C 112.200 366.500 112.100 366.600 112.200 366.600 H 118.000 C 118.100 366.600 118.000 366.500 118.000 366.600 V 369.500 C 118.000 369.555 118.045 369.600 118.100 369.600 H 124.100 C 124.155 369.600 124.200 369.555 124.200 369.500 V 366.600 C 124.200 366.500 124.100 366.600 124.200 366.600 H 130.000 C 130.100 366.600 130.000 366.500 130.000 366.600 V 369.500 C 130.000 369.555 130.045 369.600 130.100 369.600 H 136.100 C 136.155 369.600 136.200 369.555 136.200 369.500 V 366.600 C 136.200 366.500 136.100 366.600 136.200 366.600 H 142.000 C 142.100 366.600 142.000 366.500 142.000 366.600 V 369.500 C 142.000 369.555 142.045 369.600 142.100 369.600 H 148.100 C 148.155 369.600 148.200 369.555 148.200 369.500 V 366.600 C 148.200 366.500 148.100 366.600 148.200 366.600 H 154.000 C 154.100 366.600 154.000 366.500 154.000 366.600 V 369.500 C 154.000 369.555 154.045 369.600 154.100 369.600 H 160.100 C 160.155 369.600 160.200 369.555 160.200 369.500 V 366.600 C 160.200 366.500 160.100 366.600 160.200 366.600 H 166.000 C 166.100 366.600 166.000 366.500 166.000 366.600 V 369.500 C 166.000 369.555 166.045 369.600 166.100 369.600 H 169.100 H 172.100 C 172.155 369.600 172.200 369.555 172.200 369.500 V 363.000 C 172.200 362.945 172.155 362.900 172.100 362.900 H 169.200 C 169.100 362.900 169.200 363.000 169.200 362.900 V 357.100 C 169.200 357.000 169.100 357.100 169.200 357.100 H 172.100 C 172.155 357.100 172.200 357.055 172.200 357.000 V 351.000 C 172.200 350.945 172.155 350.900 172.100 350.900 H 169.200 C 169.100 350.900 169.200 351.000 169.200 350.900 V 345.100 C 169.200 345.000 169.100 345.100 169.200 345.100 H 172.100 C 172.155 345.100 172.200 345.055 172.200 345.000 V 339.000 C 172.200 338.945 172.155 338.900 172.100 338.900 H 169.200 C 169.100 338.900 169.200 339.000 169.200 338.900 V 333.100 C 169.200 333.000 169.100 333.100 169.200 333.100 H 172.100 C 172.155 333.100 172.200 333.055 172.200 333.000 V 327.000 C 172.200 326.945 172.155 326.900 172.100 326.900 H 169.200 C 169.100 326.900 169.200 327.000 169.200 326.900 V 321.100 C 169.200 321.000 169.100 321.100 169.200 321.100 H 172.100 C 172.155 321.100 172.200 321.055 172.200 321.000 V 315.000 C 172.200 314.945 172.155 314.900 172.100 314.900 H 169.200 C 169.100 314.900 169.200 315.000 169.200 314.900 V 309.100 C 169.200 309.000 169.100 309.100 169.200 309.100 H 172.100 C 172.155 309.100 172.200 309.055 172.200 309.000 V 303.000 C 172.200 302.945 172.155 302.900 172.100 302.900 H 169.200 C 169.100 302.900 169.200 303.000 169.200 302.900 V 297.100 C 169.200 297.000 169.100 297.100 169.200 297.100 H 172.100 C 172.155 297.100 172.200 297.055 172.200 297.000 V 291.000 C 172.200 290.945 172.155 290.900 172.100 290.900 H 169.200 C 169.100 290.900 169.200 291.000 169.200 290.900 V 285.100 C 169.200 285.000 169.100 285.100 169.200 285.100 H 172.100 C 172.155 285.100 172.200 285.055 172.200 285.000 V 279.000 C 172.200 278.945 172.155 278.900 172.100 278.900 H 169.200 C 169.100 278.900 169.200 279.000 169.200 278.900 V 273.100 C 169.200 273.000 169.100 273.100 169.200 273.100 H 172.100 C 172.155 273.100 172.200 273.055 172.200 273.000 V 266.500 C 172.200 266.445 172.155 266.400 172.100 266.400 H 169.100 H 13.100 H 10.100 C 10.045 266.400 10.000 266.445 10.000 266.500 V 273.000 C 10.000 273.055 10.045 273.100 10.100 273.100 H 13.000 C 13.100 273.100 13.000 273.000 13.000 273.100 V 278.900 C 13.000 279.000 13.100 278.900 13.000 278.900 H 10.100 C 10.045 278.900 10.000 278.945 10.000 279.000 V 285.000 C 10.000 285.055 10.045 285.100 10.100 285.100 H 13.000 C 13.100 285.100 13.000 285.000 13.000 285.100 V 290.900 C 13.000 291.000 13.100 290.900 13.000 290.900 H 10.100 C 10.045 290.900 10.000 290.945 10.000 291.000 V 297.000 C 10.000 297.055 10.045 297.100 10.100 297.100 H 13.000 C 13.100 297.100 13.000 297.000 13.000 297.100 V 302.900 C 13.000 303.000 13.100 302.900 13.000 302.900 H 10.100 C 10.045 302.900 10.000 302.945 10.000 303.000 V 309.000 C 10.000 309.055 10.045 309.100 10.100 309.100 H 13.000 C 13.100 309.100 13.000 309.000 13.000 309.100 V 314.900 C 13.000 315.000 13.100 314.900 13.000 314.900 H 10.100 C 10.045 314.900 10.000 314.945 10.000 315.000 V 321.000 C 10.000 321.055 10.045 321.100 10.100 321.100 H 13.000 C 13.100 321.100 13.000 321.000 13.000 321.100 V 326.900 C 13.000 327.000 13.100 326.900 13.000 326.900 H 10.100 C 10.045 326.900 10.000 326.945 10.000 327.000 V 333.000 C 10.000 333.055 10.045 333.100 10.100 333.100 H 13.000 C 13.100 333.100 13.000 333.000 13.000 333.100 V 338.900 C 13.000 339.000 13.100 338.900 13.000 338.900 H 10.100 C 10.045 338.900 10.000 338.945 10.000 339.000 V 345.000 C 10.000 345.055 10.045 345.100 10.100 345.100 H 13.000 C 13.100 345.100 13.000 345.000 13.000 345.100 V 350.900 C 13.000 351.000 13.100 350.900 13.000 350.900 H 10.100 C 10.045 350.900 10.000 350.945 10.000 351.000 V 357.000 C 10.000 357.055 10.045 357.100 10.100 357.100 H 13.000 C 13.100 357.100 13.000 357.000 13.000 357.100 V 362.900 C 13.000 363.000 13.100 362.900 13.000 362.900 H 10.100 C 10.045 362.900 10.000 362.945 10.000 363.000 V 369.500 C 10.000 369.555 10.045 369.600 10.100 369.600 H 13.100 Z" stroke="rgb(0,0,0)" stroke-width="0.20" />
  <text dominant-baseline="hanging" font-size="4px" style="font-family: sans-serif ; font-weight: normal; font-style: normal; fill: rgb(255,0,0)" text-anchor="middle" transform="matrix( 1.000 0.000 0.000 1.000 91.100 316.100 )">front</text>
</g>
<g id="p-3" style="fill:none;stroke-linecap:round;stroke-linejoin:round;">
  <path d="M 116.200 253.800 V 256.700 C 116.200 256.800 116.100 256.700 116.200 256.700 H 119.000 C 119.100 256.700 119.000 256.800 119.000 256.700 V 250.900 C 119.000 250.800 119.100 250.900 119.000 250.900 H 116.200 C 116.100 250.900 116.200 250.800 116.200 250.900 V 253.800 Z" stroke="rgb(0,0,255)" stroke-width="0.20" />
  <path d="M 116.200 241.800 V 244.700 C 116.200 244.800 116.100 244.700 116.200 244.700 H 119.000 C 119.100 244.700 119.000 244.800 119.000 244.700 V 238.900 C 119.000 238.800 119.100 238.900 119.000 238.900 H 116.200 C 116.100 238.900 116.200 238.800 116.200 238.900 V 241.800 Z" stroke="rgb(0,0,255)" stroke-width="0.20" />
  <path d="M 116.200 229.800 V 232.700 C 116.200 232.800 116.100 232.700 116.200 232.700 H 119.000 C 119.100 232.700 119.000 232.800 119.000 232.700 V 226.900 C 119.000 226.800 119.100 226.900 119.000 226.900 H 116.200 C 116.100 226.900 116.200 226.800 116.200 226.900 V 229.800 Z" stroke="rgb(0,0,255)" stroke-width="0.20" />
  <path d="M 116.200 217.800 V 220.700 C 116.200 220.800 116.100 220.700 116.200 220.700 H 119.000 C 119.100 220.700 119.000 220.800 119.000 220.700 V 214.900 C 119.000 214.800 119.100 214.900 119.000 214.900 H 116.200 C 116.100 214.900 116.200 214.800 116.200 214.900 V 217.800 Z" stroke="rgb(0,0,255)" stroke-width="0.20" />
  <path d="M 116.200 205.800 V 208.700 C 116.200 208.800 116.100 208.700 116.200 208.700 H 119.000 C 119.100 208.700 119.000 208.800 119.000 208.700 V 202.900 C 119.000 202.800 119.100 202.900 119.000 202.900 H 116.200 C 116.100 202.900 116.200 202.800 116.200 202.900 V 205.800 Z" stroke="rgb(0,0,255)" stroke-width="0.20" />
  <path d="M 116.200 193.800 V 196.700 C 116.200 196.800 116.100 196.700 116.200 196.700 H 119.000 C 119.100 196.700 119.000 196.800 119.000 196.700 V 190.900 C 119.000 190.800 119.100 190.900 119.000 190.900 H 116.200 C 116.100 190.900 116.200 190.800 116.200 190.900 V 193.800 Z" stroke="rgb(0,0,255)" stroke-width="0.20" />
  <path d="M 116.200 181.800 V 184.700 C 116.200 184.800 116.100 184.700 116.200 184.700 H 119.000 C 119.100 184.700 119.000 184.800 119.000 184.700 V 178.900 C 119.000 178.800 119.100 178.900 119.000 178.900 H 116.200 C 116.100 178.900 116.200 178.800 116.200 178.900 V 181.800 Z" stroke="rgb(0,0,255)" stroke-width="0.20" />
  <path d="M 116.200 169.800 V 172.700 C 116.200 172.800 116.100 172.700 116.200 172.700 H 119.000 C 119.100 172.700 119.000 172.800 119.000 172.700 V 166.900 C 119.000 166.800 119.100 166.900 119.000 166.900 H 116.200 C 116.100 166.900 116.200 166.800 116.200 166.900 V 169.800 Z" stroke="rgb(0,0,255)" stroke-width="0.20" />
  <path d="M 63.200 253.800 V 256.700 C 63.200 256.800 63.100 256.700 63.200 256.700 H 66.000 C 66.100 256.700 66.000 256.800 66.000 256.700 V 250.900 C 66.000 250.800 66.100 250.900 66.000 250.900 H 63.200 C 63.100 250.900 63.200 250.800 63.200 250.900 V 253.800 Z" stroke="rgb(0,0,255)" stroke-width="0.20" />
  <path d="M 63.200 241.800 V 244.700 C 63.200 244.800 63.100 244.700 63.200 244.700 H 66.000 C 66.100 244.700 66.000 244.800 66.000 244.700 V 238.900 C 66.000 238.800 66.100 238.900 66.000 238.900 H 63.200 C 63.100 238.900 63.200 238.800 63.200 238.900 V 241.800 Z" stroke="rgb(0,0,255)" stroke-width="0.20" />
  <path d="M 63.200 229.800 V 232.700 C 63.200 232.800 63.100 232.700 63.200 232.700 H 66.000 C 66.100 232.700 66.000 232.800 66.000 232.700 V 226.900 C 66.000 226.800 66.100 226.900 66.000 226.900 H 63.200 C 63.100 226.900 63.200 226.800 63.200 226.900 V 229.800 Z" stroke="rgb(0,0,255)" stroke-width="0.20" />
  <path d="M 63.200 217.800 V 220.700 C 63.200 220.800 63.100 220.700 63.200 220.700 H 66.000 C 66.100 220.700 66.000 220.800 66.000 220.700 V 214.900 C 66.000 214.800 66.100 214.900 66.000 214.900 H 63.200 C 63.100 214.900 63.200 214.800 63.200 214.900 V 217.800 Z" stroke="rgb(0,0,255)" stroke-width="0.20" />
  <path d="M 63.200 205.800 V 208.700 C 63.200 208.800 63.100 208.700 63.200 208.700 H 66.000 C 66.100 208.700 66.000 208.800 66.000 208.700 V 202.900 C 66.000 202.800 66.100 202.900 66.000 202.900 H 63.200 C 63.100 202.900 63.200 202.800 63.200 202.900 V 205.800 Z" stroke="rgb(0,0,255)" stroke-width="0.20" />
  <path d="M 63.200 193.800 V 196.700 C 63.200 196.800 63.100 196.700 63.200 196.700 H 66.000 C 66.100 196.700 66.000 196.800 66.000 196.700 V 190.900 C 66.000 190.800 66.100 190.900 66.000 190.900 H 63.200 C 63.100 190.900 63.200 190.800 63.200 190.900 V 193.800 Z" stroke="rgb(0,0,255)" stroke-width="0.20" />
  <path d="M 63.200 181.800 V 184.700 C 63.200 184.800 63.100 184.700 63.200 184.700 H 66.000 C 66.100 184.700 66.000 184.800 66.000 184.700 V 178.900 C 66.000 178.800 66.100 178.900 66.000 178.900 H 63.200 C 63.100 178.900 63.200 178.800 63.200 178.900 V 181.800 Z" stroke="rgb(0,0,255)" stroke-width="0.20" />
  <path d="M 63.200 169.800 V 172.700 C 63.200 172.800 63.100 172.700 63.200 172.700 H 66.000 C 66.100 172.700 66.000 172.800 66.000 172.700 V 166.900 C 66.000 166.800 66.100 166.900 66.000 166.900 H 63.200 C 63.100 166.900 63.200 166.800 63.200 166.900 V 169.800 Z" stroke="rgb(0,0,255)" stroke-width="0.20" />
  <path d="M 169.100 264.900 H 166.100 C 166.045 264.900 166.000 264.855 166.000 264.800 V 261.900 C 166.000 261.800 166.100 261.900 166.000 261.900 H 160.200 C 160.100 261.900 160.200 261.800 160.200 261.900 V 264.800 C 160.200 264.855 160.155 264.900 160.100 264.900 H 154.100 C 154.045 264.900 154.000 264.855 154.000 264.800 V 261.900 C 154.000 261.800 154.100 261.900 154.000 261.900 H 148.200 C 148.100 261.900 148.200 261.800 148.200 261.900 V 264.800 C 148.200 264.855 148.155 264.900 148.100 264.900 H 142.100 C 142.045 264.900 142.000 264.855 142.000 264.800 V 261.900 C 142.000 261.800 142.100 261.900 142.000 261.900 H 136.200 C 136.100 261.900 136.200 261.800 136.200 261.900 V 264.800 C 136.200 264.855 136.155 264.900 136.100 264.900 H 130.100 C 130.045 264.900 130.000 264.855 130.000 264.800 V 261.900 C 130.000 261.800 130.100 261.900 130.000 261.900 H 124.200 C 124.100 261.900 124.200 261.800 124.200 261.900 V 264.800 C 124.200 264.855 124.155 264.900 124.100 264.900 H 118.100 C 118.045 264.900 118.000 264.855 118.000 264.800 V 261.900 C 118.000 261.800 118.100 261.900 118.000 261.900 H 112.200 C 112.100 261.900 112.200 261.800 112.200 261.900 V 264.800 C 112.200 264.855 112.155 264.900 112.100 264.900 H 106.100 C 106.045 264.900 106.000 264.855 106.000 264.800 V 261.900 C 106.000 261.800 106.100 261.900 106.000 261.900 H 100.200 C 100.100 261.900 100.200 261.800 100.200 261.900 V 264.800 C 100.200 264.855 100.155 264.900 100.100 264.900 H 94.100 C 94.045 264.900 94.000 264.855 94.000 264.800 V 261.900 C 94.000 261.800 94.100 261.900 94.000 261.900 H 88.200 C 88.100 261.900 88.200 261.800 88.200 261.900 V 264.800 C 88.200 264.855 88.155 264.900 88.100 264.900 H 82.100 C 82.045 264.900 82.000 264.855 82.000 264.800 V 261.900 C 82.000 261.800 82.100 261.900 82.000 261.900 H 76.200 C 76.100 261.900 76.200 261.800 76.200 261.900 V 264.800 C 76.200 264.855 76.155 264.900 76.100 264.900 H 70.100 C 70.045 264.900 70.000 264.855 70.000 264.800 V 261.900 C 70.000 261.800 70.100 261.900 70.000 261.900 H 64.200 C 64.100 261.900 64.200 261.800 64.200 261.900 V 264.800 C 64.200 264.855 64.155 264.900 64.100 264.900 H 58.100 C 58.045 264.900 58.000 264.855 58.000 264.800 V 261.900 C 58.000 261.800 58.100 261.900 58.000 261.900 H 52.200 C 52.100 261.900 52.200 261.800 52.200 261.900 V 264.800 C 52.200 264.855 52.155 264.900 52.100 264.900 H 46.100 C 46.045 264.900 46.000 264.855 46.000 264.800 V 261.900 C 46.000 261.800 46.100 261.900 46.000 261.900 H 40.200 C 40.100 261.900 40.200 261.800 40.200 261.900 V 264.800 C 40.200 264.855 40.155 264.900 40.100 264.900 H 34.100 C 34.045 264.900 34.000 264.855 34.000 264.800 V 261.900 C 34.000 261.800 34.100 261.900 34.000 261.900 H 28.200 C 28.100 261.900 28.200 261.800 28.200 261.900 V 264.800 C 28.200 264.855 28.155 264.900 28.100 264.900 H 22.100 C 22.045 264.900 22.000 264.855 22.000 264.800 V 261.900 C 22.000 261.800 22.100 261.900 22.000 261.900 H 16.200 C 16.100 261.900 16.200 261.800 16.200 261.900 V 264.800 C 16.200 264.855 16.155 264.900 16.100 264.900 H 13.100 H 10.100 C 10.045 264.900 10.000 264.855 10.000 264.800 V 258.300 C 10.000 258.245 10.045 258.200 10.100 258.200 H 13.000 C 13.100 258.200 13.000 258.300 13.000 258.200 V 252.400 C 13.000 252.300 13.100 252.400 13.000 252.400 H 10.100 C 10.045 252.400 10.000 252.355 10.000 252.300 V 246.300 C 10.000 246.245 10.045 246.200 10.100 246.200 H 13.000 C 13.100 246.200 13.000 246.300 13.000 246.200 V 240.400 C 13.000 240.300 13.100 240.400 13.000 240.400 H 10.100 C 10.045 240.400 10.000 240.355 10.000 240.300 V 234.300 C 10.000 234.245 10.045 234.200 10.100 234.200 H 13.000 C 13.100 234.200 13.000 234.300 13.000 234.200 V 228.400 C 13.000 228.300 13.100 228.400 13.000 228.400 H 10.100 C 10.045 228.400 10.000 228.355 10.000 228.300 V 222.300 C 10.000 222.245 10.045 222.200 10.100 222.200 H 13.000 C 13.100 222.200 13.000 222.300 13.000 222.200 V 216.400 C 13.000 216.300 13.100 216.400 13.000 216.400 H 10.100 C 10.045 216.400 10.000 216.355 10.000 216.300 V 210.300 C 10.000 210.245 10.045 210.200 10.100 210.200 H 13.000 C 13.100 210.200 13.000 210.300 13.000 210.200 V 204.400 C 13.000 204.300 13.100 204.400 13.000 204.400 H 10.100 C 10.045 204.400 10.000 204.355 10.000 204.300 V 198.300 C 10.000 198.245 10.045 198.200 10.100 198.200 H 13.000 C 13.100 198.200 13.000 198.300 13.000 198.200 V 192.400 C 13.000 192.300 13.100 192.400 13.000 192.400 H 10.100 C 10.045 192.400 10.000 192.355 10.000 192.300 V 186.300 C 10.000 186.245 10.045 186.200 10.100 186.200 H 13.000 C 13.100 186.200 13.000 186.300 13.000 186.200 V 180.400 C 13.000 180.300 13.100 180.400 13.000 180.400 H 10.100 C 10.045 180.400 10.000 180.355 10.000 180.300 V 174.300 C 10.000 174.245 10.045 174.200 10.100 174.200 H 13.000 C 13.100 174.200 13.000 174.300 13.000 174.200 V 168.400 C 13.000 168.300 13.100 168.400 13.000 168.400 H 10.100 C 10.045 168.400 10.000 168.355 10.000 168.300 V 161.800 C 10.000 161.745 10.045 161.700 10.100 161.700 H 13.100 H 169.100 H 172.100 C 172.155 161.700 172.200 161.745 172.200 161.800 V 168.300 C 172.200 168.355 172.155 168.400 172.100 168.400 H 169.200 C 169.100 168.400 169.200 168.300 169.200 168.400 V 174.200 C 169.200 174.300 169.100 174.200 169.200 174.200 H 172.100 C 172.155 174.200 172.200 174.245 172.200 174.300 V 180.300 C 172.200 180.355 172.155 180.400 172.100 180.400 H 169.200 C 169.100 180.400 169.200 180.300 169.200 180.400 V 186.200 C 169.200 186.300 169.100 186.200 169.200 186.200 H 172.100 C 172.155 186.200 172.200 186.245 172.200 186.300 V 192.300 C 172.200 192.355 172.155 192.400 172.100 192.400 H 169.200 C 169.100 192.400 169.200 192.300 169.200 192.400 V 198.200 C 169.200 198.300 169.100 198.200 169.200 198.200 H 172.100 C 172.155 198.200 172.200 198.245 172.200 198.300 V 204.300 C 172.200 204.355 172.155 204.400 172.100 204.400 H 169.200 C 169.100 204.400 169.200 204.300 169.200 204.400 V 210.200 C 169.200 210.300 169.100 210.200 169.200 210.200 H 172.100 C 172.155 210.200 172.200 210.245 172.200 210.300 V 216.300 C 172.200 216.355 172.155 216.400 172.100 216.400 H 169.200 C 169.100 216.400 169.200 216.300 169.200 216.400 V 222.200 C 169.200 222.300 169.100 222.200 169.200 222.200 H 172.100 C 172.155 222.200 172.200 222.245 172.200 222.300 V 228.300 C 172.200 228.355 172.155 228.400 172.100 228.400 H 169.200 C 169.100 228.400 169.200 228.300 169.200 228.400 V 234.200 C 169.200 234.300 169.100 234.200 169.200 234.200 H 172.100 C 172.155 234.200 172.200 234.245 172.200 234.300 V 240.300 C 172.200 240.355 172.155 240.400 172.100 240.400 H 169.200 C 169.100 240.400 169.200 240.300 169.200 240.400 V 246.200 C 169.200 246.300 169.100 246.200 169.200 246.200 H 172.100 C 172.155 246.200 172.200 246.245 172.200 246.300 V 252.300 C 172.200 252.355 172.155 252.400 172.100 252.400 H 169.200 C 169.100 252.400 169.200 252.300 169.200 252.400 V 258.200 C 169.200 258.300 169.100 258.200 169.200 258.200 H 172.100 C 172.155 258.200 172.200 258.245 172.200 258.300 V 264.800 C 172.200 264.855 172.155 264.900 172.100 264.900 H 169.100 Z" stroke="rgb(0,0,0)" stroke-width="0.20" />
  <text dominant-baseline="hanging" font-size="4px" style="font-family: sans-serif ; font-weight: normal; font-style: normal; fill: rgb(255,0,0)" text-anchor="middle" transform="matrix( 1.000 0.000 0.000 1.000 91.100 211.400 )">back</text>
</g>
<g id="p-4" style="fill:none;stroke-linecap:round;stroke-linejoin:round;">
  <path d="M 176.800 427.300 H 180.800 C 180.855 427.300 180.900 427.255 180.900 427.200 V 424.300 C 180.900 424.200 180.800 424.300 180.900 424.300 H 186.700 C 186.800 424.300 186.700 424.200 186.700 424.300 V 427.200 C 186.700 427.255 186.745 427.300 186.800 427.300 H 192.800 C 192.855 427.300 192.900 427.255 192.900 427.200 V 424.300 C 192.900 424.200 192.800 424.300 192.900 424.300 H 198.700 C 198.800 424.300 198.700 424.200 198.700 424.300 V 427.200 C 198.700 427.255 198.745 427.300 198.800 427.300 H 204.800 C 204.855 427.300 204.900 427.255 204.900 427.200 V 424.300 C 204.900 424.200 204.800 424.300 204.900 424.300 H 210.700 C 210.800 424.300 210.700 424.200 210.700 424.300 V 427.200 C 210.700 427.255 210.745 427.300 210.800 427.300 H 216.800 C 216.855 427.300 216.900 427.255 216.900 427.200 V 424.300 C 216.900 424.200 216.800 424.300 216.900 424.300 H 222.700 C 222.800 424.300 222.700 424.200 222.700 424.300 V 427.200 C 222.700 427.255 222.745 427.300 222.800 427.300 H 226.800 C 226.855 427.300 226.900 427.255 226.900 427.200 V 420.800 C 226.900 420.700 226.800 420.800 226.900 420.800 H 229.800 C 229.855 420.800 229.900 420.755 229.900 420.700 V 414.700 C 229.900 414.645 229.855 414.600 229.800 414.600 H 226.900 C 226.800 414.600 226.900 414.700 226.900 414.600 V 408.800 C 226.900 408.700 226.800 408.800 226.900 408.800 H 229.800 C 229.855 408.800 229.900 408.755 229.900 408.700 V 402.700 C 229.900 402.645 229.855 402.600 229.800 402.600 H 226.900 C 226.800 402.600 226.900 402.700 226.900 402.600 V 396.800 C 226.900 396.700 226.800 396.800 226.900 396.800 H 229.800 C 229.855 396.800 229.900 396.755 229.900 396.700 V 390.700 C 229.900 390.645 229.855 390.600 229.800 390.600 H 226.900 C 226.800 390.600 226.900 390.700 226.900 390.600 V 384.800 C 226.900 384.700 226.800 384.800 226.900 384.800 H 229.800 C 229.855 384.800 229.900 384.755 229.900 384.700 V 378.700 C 229.900 378.645 229.855 378.600 229.800 378.600 H 226.900 C 226.800 378.600 226.900 378.700 226.900 378.600 V 372.800 C 226.900 372.700 226.800 372.800 226.900 372.800 H 229.800 C 229.855 372.800 229.900 372.755 229.900 372.700 V 366.700 C 229.900 366.645 229.855 366.600 229.800 366.600 H 226.900 C 226.800 366.600 226.900 366.700 226.900 366.600 V 360.800 C 226.900 360.700 226.800 360.800 226.900 360.800 H 229.800 C 229.855 360.800 229.900 360.755 229.900 360.700 V 354.700 C 229.900 354.645 229.855 354.600 229.800 354.600 H 226.900 C 226.800 354.600 226.900 354.700 226.900 354.600 V 348.800 C 226.900 348.700 226.800 348.800 226.900 348.800 H 229.800 C 229.855 348.800 229.900 348.755 229.900 348.700 V 342.700 C 229.900 342.645 229.855 342.600 229.800 342.600 H 226.900 C 226.800 342.600 226.900 342.700 226.900 342.600 V 336.800 C 226.900 336.700 226.800 336.800 226.900 336.800 H 229.800 C 229.855 336.800 229.900 336.755 229.900 336.700 V 330.700 C 229.900 330.645 229.855 330.600 229.800 330.600 H 226.900 C 226.800 330.600 226.900 330.700 226.900 330.600 V 324.200 C 226.900 324.145 226.855 324.100 226.800 324.100 H 176.800 C 176.745 324.100 176.700 324.145 176.700 324.200 V 330.600 C 176.700 330.700 176.800 330.600 176.700 330.600 H 173.800 C 173.745 330.600 173.700 330.645 173.700 330.700 V 336.700 C 173.700 336.755 173.745 336.800 173.800 336.800 H 176.700 C 176.800 336.800 176.700 336.700 176.700 336.800 V 342.600 C 176.700 342.700 176.800 342.600 176.700 342.600 H 173.800 C 173.745 342.600 173.700 342.645 173.700 342.700 V 348.700 C 173.700 348.755 173.745 348.800 173.800 348.800 H 176.700 C 176.800 348.800 176.700 348.700 176.700 348.800 V 354.600 C 176.700 354.700 176.800 354.600 176.700 354.600 H 173.800 C 173.745 354.600 173.700 354.645 173.700 354.700 V 360.700 C 173.700 360.755 173.745 360.800 173.800 360.800 H 176.700 C 176.800 360.800 176.700 360.700 176.700 360.800 V 366.600 C 176.700 366.700 176.800 366.600 176.700 366.600 H 173.800 C 173.745 366.600 173.700 366.645 173.700 366.700 V 372.700 C 173.700 372.755 173.745 372.800 173.800 372.800 H 176.700 C 176.800 372.800 176.700 372.700 176.700 372.800 V 378.600 C 176.700 378.700 176.800 378.600 176.700 378.600 H 173.800 C 173.745 378.600 173.700 378.645 173.700 378.700 V 384.700 C 173.700 384.755 173.745 384.800 173.800 384.800 H 176.700 C 176.800 384.800 176.700 384.700 176.700 384.800 V 390.600 C 176.700 390.700 176.800 390.600 176.700 390.600 H 173.800 C 173.745 390.600 173.700 390.645 173.700 390.700 V 396.700 C 173.700 396.755 173.745 396.800 173.800 396.800 H 176.700 C 176.800 396.800 176.700 396.700 176.700 396.800 V 402.600 C 176.700 402.700 176.800 402.600 176.700 402.600 H 173.800 C 173.745 402.600 173.700 402.645 173.700 402.700 V 408.700 C 173.700 408.755 173.745 408.800 173.800 408.800 H 176.700 C 176.800 408.800 176.700 408.700 176.700 408.800 V 414.600 C 176.700 414.700 176.800 414.600 176.700 414.600 H 173.800 C 173.745 414.600 173.700 414.645 173.700 414.700 V 420.700 C 173.700 420.755 173.745 420.800 173.800 420.800 H 176.700 C 176.800 420.800 176.700 420.700 176.700 420.800 V 427.200 C 176.700 427.255 176.745 427.300 176.800 427.300 Z" stroke="rgb(0,0,0)" stroke-width="0.20" />
  <text dominant-baseline="hanging" font-size="4px" style="font-family: sans-serif ; font-weight: normal; font-style: normal; fill: rgb(255,0,0)" text-anchor="middle" transform="matrix( 1.000 0.000 0.000 1.000 201.800 373.800 )">left side</text>
</g>
<g id="p-5" style="fill:none;stroke-linecap:round;stroke-linejoin:round;">
  <path d="M 176.800 322.600 H 180.800 C 180.855 322.600 180.900 322.555 180.900 322.500 V 319.600 C 180.900 319.500 180.800 319.600 180.900 319.600 H 186.700 C 186.800 319.600 186.700 319.500 186.700 319.600 V 322.500 C 186.700 322.555 186.745 322.600 186.800 322.600 H 192.800 C 192.855 322.600 192.900 322.555 192.900 322.500 V 319.600 C 192.900 319.500 192.800 319.600 192.900 319.600 H 198.700 C 198.800 319.600 198.700 319.500 198.700 319.600 V 322.500 C 198.700 322.555 198.745 322.600 198.800 322.600 H 204.800 C 204.855 322.600 204.900 322.555 204.900 322.500 V 319.600 C 204.900 319.500 204.800 319.600 204.900 319.600 H 210.700 C 210.800 319.600 210.700 319.500 210.700 319.600 V 322.500 C 210.700 322.555 210.745 322.600 210.800 322.600 H 216.800 C 216.855 322.600 216.900 322.555 216.900 322.500 V 319.600 C 216.900 319.500 216.800 319.600 216.900 319.600 H 222.700 C 222.800 319.600 222.700 319.500 222.700 319.600 V 322.500 C 222.700 322.555 222.745 322.600 222.800 322.600 H 226.800 C 226.855 322.600 226.900 322.555 226.900 322.500 V 316.100 C 226.900 316.000 226.800 316.100 226.900 316.100 H 229.800 C 229.855 316.100 229.900 316.055 229.900 316.000 V 310.000 C 229.900 309.945 229.855 309.900 229.800 309.900 H 226.900 C 226.800 309.900 226.900 310.000 226.900 309.900 V 304.100 C 226.900 304.000 226.800 304.100 226.900 304.100 H 229.800 C 229.855 304.100 229.900 304.055 229.900 304.000 V 298.000 C 229.900 297.945 229.855 297.900 229.800 297.900 H 226.900 C 226.800 297.900 226.900 298.000 226.900 297.900 V 292.100 C 226.900 292.000 226.800 292.100 226.900 292.100 H 229.800 C 229.855 292.100 229.900 292.055 229.900 292.000 V 286.000 C 229.900 285.945 229.855 285.900 229.800 285.900 H 226.900 C 226.800 285.900 226.900 286.000 226.900 285.900 V 280.100 C 226.900 280.000 226.800 280.100 226.900 280.100 H 229.800 C 229.855 280.100 229.900 280.055 229.900 280.000 V 274.000 C 229.900 273.945 229.855 273.900 229.800 273.900 H 226.900 C 226.800 273.900 226.900 274.000 226.900 273.900 V 268.100 C 226.900 268.000 226.800 268.100 226.900 268.100 H 229.800 C 229.855 268.100 229.900 268.055 229.900 268.000 V 262.000 C 229.900 261.945 229.855 261.900 229.800 261.900 H 226.900 C 226.800 261.900 226.900 262.000 226.900 261.900 V 256.100 C 226.900 256.000 226.800 256.100 226.900 256.100 H 229.800 C 229.855 256.100 229.900 256.055 229.900 256.000 V 250.000 C 229.900 249.945 229.855 249.900 229.800 249.900 H 226.900 C 226.800 249.900 226.900 250.000 226.900 249.900 V 244.100 C 226.900 244.000 226.800 244.100 226.900 244.100 H 229.800 C 229.855 244.100 229.900 244.055 229.900 244.000 V 238.000 C 229.900 237.945 229.855 237.900 229.800 237.900 H 226.900 C 226.800 237.900 226.900 238.000 226.900 237.900 V 232.100 C 226.900 232.000 226.800 232.100 226.900 232.100 H 229.800 C 229.855 232.100 229.900 232.055 229.900 232.000 V 226.000 C 229.900 225.945 229.855 225.900 229.800 225.900 H 226.900 C 226.800 225.900 226.900 226.000 226.900 225.900 V 219.500 C 226.900 219.445 226.855 219.400 226.800 219.400 H 176.800 C 176.745 219.400 176.700 219.445 176.700 219.500 V 225.900 C 176.700 226.000 176.800 225.900 176.700 225.900 H 173.800 C 173.745 225.900 173.700 225.945 173.700 226.000 V 232.000 C 173.700 232.055 173.745 232.100 173.800 232.100 H 176.700 C 176.800 232.100 176.700 232.000 176.700 232.100 V 237.900 C 176.700 238.000 176.800 237.900 176.700 237.900 H 173.800 C 173.745 237.900 173.700 237.945 173.700 238.000 V 244.000 C 173.700 244.055 173.745 244.100 173.800 244.100 H 176.700 C 176.800 244.100 176.700 244.000 176.700 244.100 V 249.900 C 176.700 250.000 176.800 249.900 176.700 249.900 H 173.800 C 173.745 249.900 173.700 249.945 173.700 250.000 V 256.000 C 173.700 256.055 173.745 256.100 173.800 256.100 H 176.700 C 176.800 256.100 176.700 256.000 176.700 256.100 V 261.900 C 176.700 262.000 176.800 261.900 176.700 261.900 H 173.800 C 173.745 261.900 173.700 261.945 173.700 262.000 V 268.000 C 173.700 268.055 173.745 268.100 173.800 268.100 H 176.700 C 176.800 268.100 176.700 268.000 176.700 268.100 V 273.900 C 176.700 274.000 176.800 273.900 176.700 273.900 H 173.800 C 173.745 273.900 173.700 273.945 173.700 274.000 V 280.000 C 173.700 280.055 173.745 280.100 173.800 280.100 H 176.700 C 176.800 280.100 176.700 280.000 176.700 280.100 V 285.900 C 176.700 286.000 176.800 285.900 176.700 285.900 H 173.800 C 173.745 285.900 173.700 285.945 173.700 286.000 V 292.000 C 173.700 292.055 173.745 292.100 173.800 292.100 H 176.700 C 176.800 292.100 176.700 292.000 176.700 292.100 V 297.900 C 176.700 298.000 176.800 297.900 176.700 297.900 H 173.800 C 173.745 297.900 173.700 297.945 173.700 298.000 V 304.000 C 173.700 304.055 173.745 304.100 173.800 304.100 H 176.700 C 176.800 304.100 176.700 304.000 176.700 304.100 V 309.900 C 176.700 310.000 176.800 309.900 176.700 309.900 H 173.800 C 173.745 309.900 173.700 309.945 173.700 310.000 V 316.000 C 173.700 316.055 173.745 316.100 173.800 316.100 H 176.700 C 176.800 316.100 176.700 316.000 176.700 316.100 V 322.500 C 176.700 322.555 176.745 322.600 176.800 322.600 Z" stroke="rgb(0,0,0)" stroke-width="0.20" />
  <text dominant-baseline="hanging" font-size="4px" style="font-family: sans-serif ; font-weight: normal; font-style: normal; fill: rgb(255,0,0)" text-anchor="middle" transform="matrix( 1.000 0.000 0.000 1.000 201.800 269.100 )">right side</text>
</g>
<g id="p-6" style="fill:none;stroke-linecap:round;stroke-linejoin:round;">
  <path d="M 176.800 214.900 H 180.700 C 180.800 214.900 180.700 214.800 180.700 214.900 V 217.800 C 180.700 217.855 180.745 217.900 180.800 217.900 H 186.800 C 186.855 217.900 186.900 217.855 186.900 217.800 V 214.900 C 186.900 214.800 186.800 214.900 186.900 214.900 H 192.700 C 192.800 214.900 192.700 214.800 192.700 214.900 V 217.800 C 192.700 217.855 192.745 217.900 192.800 217.900 H 198.800 C 198.855 217.900 198.900 217.855 198.900 217.800 V 214.900 C 198.900 214.800 198.800 214.900 198.900 214.900 H 204.700 C 204.800 214.900 204.700 214.800 204.700 214.900 V 217.800 C 204.700 217.855 204.745 217.900 204.800 217.900 H 210.800 C 210.855 217.900 210.900 217.855 210.900 217.800 V 214.900 C 210.900 214.800 210.800 214.900 210.900 214.900 H 216.700 C 216.800 214.900 216.700 214.800 216.700 214.900 V 217.800 C 216.700 217.855 216.745 217.900 216.800 217.900 H 222.800 C 222.855 217.900 222.900 217.855 222.900 217.800 V 214.900 C 222.900 214.800 222.800 214.900 222.900 214.900 H 226.800 C 226.855 214.900 226.900 214.855 226.900 214.800 V 209.900 C 226.900 209.800 226.800 209.900 226.900 209.900 H 229.800 C 229.855 209.900 229.900 209.855 229.900 209.800 V 203.800 C 229.900 203.745 229.855 203.700 229.800 203.700 H 226.900 C 226.800 203.700 226.900 203.800 226.900 203.700 V 197.900 C 226.900 197.800 226.800 197.900 226.900 197.900 H 229.800 C 229.855 197.900 229.900 197.855 229.900 197.800 V 191.800 C 229.900 191.745 229.855 191.700 229.800 191.700 H 226.900 C 226.800 191.700 226.900 191.800 226.900 191.700 V 185.900 C 226.900 185.800 226.800 185.900 226.900 185.900 H 229.800 C 229.855 185.900 229.900 185.855 229.900 185.800 V 179.800 C 229.900 179.745 229.855 179.700 229.800 179.700 H 226.900 C 226.800 179.700 226.900 179.800 226.900 179.700 V 173.900 C 226.900 173.800 226.800 173.900 226.900 173.900 H 229.800 C 229.855 173.900 229.900 173.855 229.900 173.800 V 167.800 C 229.900 167.745 229.855 167.700 229.800 167.700 H 226.900 C 226.800 167.700 226.900 167.800 226.900 167.700 V 161.900 C 226.900 161.800 226.800 161.900 226.900 161.900 H 229.800 C 229.855 161.900 229.900 161.855 229.900 161.800 V 155.800 C 229.900 155.745 229.855 155.700 229.800 155.700 H 226.900 C 226.800 155.700 226.900 155.800 226.900 155.700 V 149.900 C 226.900 149.800 226.800 149.900 226.900 149.900 H 229.800 C 229.855 149.900 229.900 149.855 229.900 149.800 V 143.800 C 229.900 143.745 229.855 143.700 229.800 143.700 H 226.900 C 226.800 143.700 226.900 143.800 226.900 143.700 V 137.900 C 226.900 137.800 226.800 137.900 226.900 137.900 H 229.800 C 229.855 137.900 229.900 137.855 229.900 137.800 V 131.800 C 229.900 131.745 229.855 131.700 229.800 131.700 H 226.900 C 226.800 131.700 226.900 131.800 226.900 131.700 V 125.900 C 226.900 125.800 226.800 125.900 226.900 125.900 H 229.800 C 229.855 125.900 229.900 125.855 229.900 125.800 V 119.800 C 229.900 119.745 229.855 119.700 229.800 119.700 H 226.900 C 226.800 119.700 226.900 119.800 226.900 119.700 V 114.800 C 226.900 114.745 226.855 114.700 226.800 114.700 H 176.800 C 176.745 114.700 176.700 114.745 176.700 114.800 V 119.700 C 176.700 119.800 176.800 119.700 176.700 119.700 H 173.800 C 173.745 119.700 173.700 119.745 173.700 119.800 V 125.800 C 173.700 125.855 173.745 125.900 173.800 125.900 H 176.700 C 176.800 125.900 176.700 125.800 176.700 125.900 V 131.700 C 176.700 131.800 176.800 131.700 176.700 131.700 H 173.800 C 173.745 131.700 173.700 131.745 173.700 131.800 V 137.800 C 173.700 137.855 173.745 137.900 173.800 137.900 H 176.700 C 176.800 137.900 176.700 137.800 176.700 137.900 V 143.700 C 176.700 143.800 176.800 143.700 176.700 143.700 H 173.800 C 173.745 143.700 173.700 143.745 173.700 143.800 V 149.800 C 173.700 149.855 173.745 149.900 173.800 149.900 H 176.700 C 176.800 149.900 176.700 149.800 176.700 149.900 V 155.700 C 176.700 155.800 176.800 155.700 176.700 155.700 H 173.800 C 173.745 155.700 173.700 155.745 173.700 155.800 V 161.800 C 173.700 161.855 173.745 161.900 173.800 161.900 H 176.700 C 176.800 161.900 176.700 161.800 176.700 161.900 V 167.700 C 176.700 167.800 176.800 167.700 176.700 167.700 H 173.800 C 173.745 167.700 173.700 167.745 173.700 167.800 V 173.800 C 173.700 173.855 173.745 173.900 173.800 173.900 H 176.700 C 176.800 173.900 176.700 173.800 176.700 173.900 V 179.700 C 176.700 179.800 176.800 179.700 176.700 179.700 H 173.800 C 173.745 179.700 173.700 179.745 173.700 179.800 V 185.800 C 173.700 185.855 173.745 185.900 173.800 185.900 H 176.700 C 176.800 185.900 176.700 185.800 176.700 185.900 V 191.700 C 176.700 191.800 176.800 191.700 176.700 191.700 H 173.800 C 173.745 191.700 173.700 191.745 173.700 191.800 V 197.800 C 173.700 197.855 173.745 197.900 173.800 197.900 H 176.700 C 176.800 197.900 176.700 197.800 176.700 197.900 V 203.700 C 176.700 203.800 176.800 203.700 176.700 203.700 H 173.800 C 173.745 203.700 173.700 203.745 173.700 203.800 V 209.800 C 173.700 209.855 173.745 209.900 173.800 209.900 H 176.700 C 176.800 209.900 176.700 209.800 176.700 209.900 V 214.800 C 176.700 214.855 176.745 214.900 176.800 214.900 Z" stroke="rgb(0,0,0)" stroke-width="0.20" />
  <text dominant-baseline="hanging" font-size="4px" style="font-family: sans-serif ; font-weight: normal; font-style: normal; fill: rgb(255,0,0)" text-anchor="middle" transform="matrix( 1.000 0.000 0.000 1.000 201.800 164.400 )">inner y 1</text>
</g>
<g id="p-7" style="fill:none;stroke-linecap:round;stroke-linejoin:round;">
  <path d="M 176.800 110.200 H 180.700 C 180.800 110.200 180.700 110.100 180.700 110.200 V 113.100 C 180.700 113.155 180.745 113.200 180.800 113.200 H 186.800 C 186.855 113.200 186.900 113.155 186.900 113.100 V 110.200 C 186.900 110.100 186.800 110.200 186.900 110.200 H 192.700 C 192.800 110.200 192.700 110.100 192.700 110.200 V 113.100 C 192.700 113.155 192.745 113.200 192.800 113.200 H 198.800 C 198.855 113.200 198.900 113.155 198.900 113.100 V 110.200 C 198.900 110.100 198.800 110.200 198.900 110.200 H 204.700 C 204.800 110.200 204.700 110.100 204.700 110.200 V 113.100 C 204.700 113.155 204.745 113.200 204.800 113.200 H 210.800 C 210.855 113.200 210.900 113.155 210.900 113.100 V 110.200 C 210.900 110.100 210.800 110.200 210.900 110.200 H 216.700 C 216.800 110.200 216.700 110.100 216.700 110.200 V 113.100 C 216.700 113.155 216.745 113.200 216.800 113.200 H 222.800 C 222.855 113.200 222.900 113.155 222.900 113.100 V 110.200 C 222.900 110.100 222.800 110.200 222.900 110.200 H 226.800 C 226.855 110.200 226.900 110.155 226.900 110.100 V 105.200 C 226.900 105.100 226.800 105.200 226.900 105.200 H 229.800 C 229.855 105.200 229.900 105.155 229.900 105.100 V 99.100 C 229.900 99.045 229.855 99.000 229.800 99.000 H 226.900 C 226.800 99.000 226.900 99.100 226.900 99.000 V 93.200 C 226.900 93.100 226.800 93.200 226.900 93.200 H 229.800 C 229.855 93.200 229.900 93.155 229.900 93.100 V 87.100 C 229.900 87.045 229.855 87.000 229.800 87.000 H 226.900 C 226.800 87.000 226.900 87.100 226.900 87.000 V 81.200 C 226.900 81.100 226.800 81.200 226.900 81.200 H 229.800 C 229.855 81.200 229.900 81.155 229.900 81.100 V 75.100 C 229.900 75.045 229.855 75.000 229.800 75.000 H 226.900 C 226.800 75.000 226.900 75.100 226.900 75.000 V 69.200 C 226.900 69.100 226.800 69.200 226.900 69.200 H 229.800 C 229.855 69.200 229.900 69.155 229.900 69.100 V 63.100 C 229.900 63.045 229.855 63.000 229.800 63.000 H 226.900 C 226.800 63.000 226.900 63.100 226.900 63.000 V 57.200 C 226.900 57.100 226.800 57.200 226.900 57.200 H 229.800 C 229.855 57.200 229.900 57.155 229.900 57.100 V 51.100 C 229.900 51.045 229.855 51.000 229.800 51.000 H 226.900 C 226.800 51.000 226.900 51.100 226.900 51.000 V 45.200 C 226.900 45.100 226.800 45.200 226.900 45.200 H 229.800 C 229.855 45.200 229.900 45.155 229.900 45.100 V 39.100 C 229.900 39.045 229.855 39.000 229.800 39.000 H 226.900 C 226.800 39.000 226.900 39.100 226.900 39.000 V 33.200 C 226.900 33.100 226.800 33.200 226.900 33.200 H 229.800 C 229.855 33.200 229.900 33.155 229.900 33.100 V 27.100 C 229.900 27.045 229.855 27.000 229.800 27.000 H 226.900 C 226.800 27.000 226.900 27.100 226.900 27.000 V 21.200 C 226.900 21.100 226.800 21.200 226.900 21.200 H 229.800 C 229.855 21.200 229.900 21.155 229.900 21.100 V 15.100 C 229.900 15.045 229.855 15.000 229.800 15.000 H 226.900 C 226.800 15.000 226.900 15.100 226.900 15.000 V 10.100 C 226.900 10.045 226.855 10.000 226.800 10.000 H 176.800 C 176.745 10.000 176.700 10.045 176.700 10.100 V 15.000 C 176.700 15.100 176.800 15.000 176.700 15.000 H 173.800 C 173.745 15.000 173.700 15.045 173.700 15.100 V 21.100 C 173.700 21.155 173.745 21.200 173.800 21.200 H 176.700 C 176.800 21.200 176.700 21.100 176.700 21.200 V 27.000 C 176.700 27.100 176.800 27.000 176.700 27.000 H 173.800 C 173.745 27.000 173.700 27.045 173.700 27.100 V 33.100 C 173.700 33.155 173.745 33.200 173.800 33.200 H 176.700 C 176.800 33.200 176.700 33.100 176.700 33.200 V 39.000 C 176.700 39.100 176.800 39.000 176.700 39.000 H 173.800 C 173.745 39.000 173.700 39.045 173.700 39.100 V 45.100 C 173.700 45.155 173.745 45.200 173.800 45.200 H 176.700 C 176.800 45.200 176.700 45.100 176.700 45.200 V 51.000 C 176.700 51.100 176.800 51.000 176.700 51.000 H 173.800 C 173.745 51.000 173.700 51.045 173.700 51.100 V 57.100 C 173.700 57.155 173.745 57.200 173.800 57.200 H 176.700 C 176.800 57.200 176.700 57.100 176.700 57.200 V 63.000 C 176.700 63.100 176.800 63.000 176.700 63.000 H 173.800 C 173.745 63.000 173.700 63.045 173.700 63.100 V 69.100 C 173.700 69.155 173.745 69.200 173.800 69.200 H 176.700 C 176.800 69.200 176.700 69.100 176.700 69.200 V 75.000 C 176.700 75.100 176.800 75.000 176.700 75.000 H 173.800 C 173.745 75.000 173.700 75.045 173.700 75.100 V 81.100 C 173.700 81.155 173.745 81.200 173.800 81.200 H 176.700 C 176.800 81.200 176.700 81.100 176.700 81.200 V 87.000 C 176.700 87.100 176.800 87.000 176.700 87.000 H 173.800 C 173.745 87.000 173.700 87.045 173.700 87.100 V 93.100 C 173.700 93.155 173.745 93.200 173.800 93.200 H 176.700 C 176.800 93.200 176.700 93.100 176.700 93.200 V 99.000 C 176.700 99.100 176.800 99.000 176.700 99.000 H 173.800 C 173.745 99.000 173.700 99.045 173.700 99.100 V 105.100 C 173.700 105.155 173.745 105.200 173.800 105.200 H 176.700 C 176.800 105.200 176.700 105.100 176.700 105.200 V 110.100 C 176.700 110.155 176.745 110.200 176.800 110.200 Z" stroke="rgb(0,0,0)" stroke-width="0.20" />
  <text dominant-baseline="hanging" font-size="4px" style="font-family: sans-serif ; font-weight: normal; font-style: normal; fill: rgb(255,0,0)" text-anchor="middle" transform="matrix( 1.000 0.000 0.000 1.000 201.800 59.700 )">inner y 2</text>
</g>
</svg>