<?xml version='1.0' encoding='utf-8'?>
<svg height="297.30mm" viewBox="0.0 0.0 133.90 297.30" width="133.90mm" xmlns="http://www.w3.org/2000/svg" xmlns:cc="http://creativecommons.org/ns#" xmlns:dc="http://purl.org/dc/elements/1.1/" xmlns:inkscape="http://www.inkscape.org/namespaces/inkscape" xmlns:rdf="http://www.w3.org/1999/02/22-rdf-syntax-ns#" xmlns:svg="http://www.w3.org/2000/svg" xmlns:xlink="http://www.w3.org/1999/xlink">
<!--
TypeTray - Type tray - allows only continuous walls

Created with Boxes.py (https://boxes.hackerspace-bamberg.de/)
Creation date: 2026-04-02 22:20:10
Command line (remove spaces between dashes): boxes TypeTray - -label_text= - -sx=50 - -sy=50 - -outside=0 - -bottom_edge=F - -spacing=0.5
Url: https://boxes.hackerspace-bamberg.de/TypeTray?FingerJoint_style=rectangular&FingerJoint_surroundingspaces=0.5&FingerJoint_bottom_lip=0.0&FingerJoint_edge_width=1.0&FingerJoint_extra_length=0.0&FingerJoint_finger=2.0&FingerJoint_play=0.0&FingerJoint_space=2.0&FingerJoint_width=1.0&Stackable_angle=60&Stackable_bottom_stabilizers=0.0&Stackable_height=2.0&Stackable_holedistance=1.0&Stackable_width=4.0&Hinge_grip_percentage=0&Hinge_outset=0&Hinge_pinwidth=0.5&Hinge_axle=2.0&Hinge_grip_length=0&Hinge_hingestrength=1&CabinetHinge_bore=3.2&CabinetHinge_eyes_per_hinge=5&CabinetHinge_hinges=2&CabinetHinge_style=inside&CabinetHinge_eye=1.5&CabinetHinge_play=0.05&CabinetHinge_spacing=2.0&SlideOnLid_hole_width=0&SlideOnLid_second_pin=0&SlideOnLid_second_pin=1&SlideOnLid_spring=both&SlideOnLid_style=rectangular&SlideOnLid_surroundingspaces=2.0&SlideOnLid_bottom_lip=0.0&SlideOnLid_edge_width=1.0&SlideOnLid_extra_length=0.0&SlideOnLid_finger=3.0&SlideOnLid_play=0.05&SlideOnLid_space=2.0&SlideOnLid_width=1.0&Click_angle=5.0&Click_bottom_radius=0.1&Click_depth=3.0&RoundedTriangleEdge_height=50.0&RoundedTriangleEdge_r_hole=2.0&RoundedTriangleEdge_radius=30.0&RoundedTriangleEdge_outset=1.0&Mounting_d_head=6.5&Mounting_d_shaft=3.0&Mounting_margin=0.125&Mounting_num=2&Mounting_side=back&Mounting_style=straight+edge%2C+within&HandleEdge_height=20.0&HandleEdge_hole_height=75.0&HandleEdge_hole_width=40%3A40&HandleEdge_on_sides=0&HandleEdge_on_sides=1&HandleEdge_radius=10.0&HandleEdge_outset=1.0&Lid_handle=none&Lid_style=none&Lid_handle_height=8.0&Lid_height=4.0&Lid_play=0.1&text_size=12&text_alignment=left&text_distance_x=2.0&text_distance_y=2.0&text_at_front=0&label_text=&FingerHoleEdge_absolute_depth=0.0&FingerHoleEdge_absolute_width=0.0&FingerHoleEdge_radius=10.0&FingerHoleEdge_relative_depth=0.9&FingerHoleEdge_relative_width=0.3&sx=50&sy=50&h=100.0&hi=0.0&outside=0&bottom_edge=F&top_edge=e&back_height=0.0&radius=0.0&gripheight=30&gripwidth=0&handle=0&fingerholes=none&thickness=3.0&burn=0.1&format=svg&labels=0&labels=1&reference=100.0&tabs=0.0&qr_code=0&inner_corners=loop&spacing=0.5&debug=0&language=en&render=2
Url short: https://boxes.hackerspace-bamberg.de/TypeTray?label_text=&sx=50&sy=50&outside=0&bottom_edge=F&spacing=0.5
SettingsUrl: https://boxes.hackerspace-bamberg.de/TypeTray?FingerJoint_style=rectangular&FingerJoint_surroundingspaces=0.5&FingerJoint_bottom_lip=0.0&FingerJoint_edge_width=1.0&FingerJoint_extra_length=0.0&FingerJoint_finger=2.0&FingerJoint_play=0.0&FingerJoint_space=2.0&FingerJoint_width=1.0&Stackable_angle=60&Stackable_bottom_stabilizers=0.0&Stackable_height=2.0&Stackable_holedistance=1.0&Stackable_width=4.0&Hinge_grip_percentage=0&Hinge_outset=0&Hinge_pinwidth=0.5&Hinge_axle=2.0&Hinge_grip_length=0&Hinge_hingestrength=1&CabinetHinge_bore=3.2&CabinetHinge_eyes_per_hinge=5&CabinetHinge_hinges=2&CabinetHinge_style=inside&CabinetHinge_eye=1.5&CabinetHinge_play=0.05&CabinetHinge_spacing=2.0&SlideOnLid_hole_width=0&SlideOnLid_second_pin=0&SlideOnLid_second_pin=1&SlideOnLid_spring=both&SlideOnLid_style=rectangular&SlideOnLid_surroundingspaces=2.0&SlideOnLid_bottom_lip=0.0&SlideOnLid_edge_width=1.0&SlideOnLid_extra_length=0.0&SlideOnLid_finger=3.0&SlideOnLid_play=0.05&SlideOnLid_space=2.0&SlideOnLid_width=1.0&Click_angle=5.0&Click_bottom_radius=0.1&Click_depth=3.0&RoundedTriangleEdge_height=50.0&RoundedTriangleEdge_r_hole=2.0&RoundedTriangleEdge_radius=30.0&RoundedTriangleEdge_outset=1.0&Mounting_d_head=6.5&Mounting_d_shaft=3.0&Mounting_margin=0.125&Mounting_num=2&Mounting_side=back&Mounting_style=straight+edge%2C+within&HandleEdge_height=20.0&HandleEdge_hole_height=75.0&HandleEdge_hole_width=40%3A40&HandleEdge_on_sides=0&HandleEdge_on_sides=1&HandleEdge_radius=10.0&HandleEdge_outset=1.0&Lid_handle=none&Lid_style=none&Lid_handle_height=8.0&Lid_height=4.0&Lid_play=0.1&text_size=12&text_alignment=left&text_distance_x=2.0&text_distance_y=2.0&text_at_front=0&label_text=&FingerHoleEdge_absolute_depth=0.0&FingerHoleEdge_absolute_width=0.0&FingerHoleEdge_radius=10.0&FingerHoleEdge_relative_depth=0.9&FingerHoleEdge_relative_width=0.3&sx=50&sy=50&h=100.0&hi=0.0&outside=0&bottom_edge=F&top_edge=e&back_height=0.0&radius=0.0&gripheight=30&gripwidth=0&handle=0&fingerholes=none&thickness=3.0&burn=0.1&format=svg&labels=0&labels=1&reference=100.0&tabs=0.0&qr_code=0&inner_corners=loop&spacing=0.5&debug=0&language=en&render=2
SettingsUrl short: https://boxes.hackerspace-bamberg.de/TypeTray?label_text=&sx=50&sy=50&outside=0&bottom_edge=F&spacing=0.5
-->
<title>TypeTray</title>
<metadata>
<rdf:RDF><cc:Work>
<dc:title>Tray - TypeTray</dc:title>
<dc:date>2026-04-02 22:20:10</dc:date>
<dc:source>https://boxes.hackerspace-bamberg.de/TypeTray?FingerJoint_style=rectangular&amp;FingerJoint_surroundingspaces=0.5&amp;FingerJoint_bottom_lip=0.0&amp;FingerJoint_edge_width=1.0&amp;FingerJoint_extra_length=0.0&amp;FingerJoint_finger=2.0&amp;FingerJoint_play=0.0&amp;FingerJoint_space=2.0&amp;FingerJoint_width=1.0&amp;Stackable_angle=60&amp;Stackable_bottom_stabilizers=0.0&amp;Stackable_height=2.0&amp;Stackable_holedistance=1.0&amp;Stackable_width=4.0&amp;Hinge_grip_percentage=0&amp;Hinge_outset=0&amp;Hinge_pinwidth=0.5&amp;Hinge_axle=2.0&amp;Hinge_grip_length=0&amp;Hinge_hingestrength=1&amp;CabinetHinge_bore=3.2&amp;CabinetHinge_eyes_per_hinge=5&amp;CabinetHinge_hinges=2&amp;CabinetHinge_style=inside&amp;CabinetHinge_eye=1.5&amp;CabinetHinge_play=0.05&amp;CabinetHinge_spacing=2.0&amp;SlideOnLid_hole_width=0&amp;SlideOnLid_second_pin=0&amp;SlideOnLid_second_pin=1&amp;SlideOnLid_spring=both&amp;SlideOnLid_style=rectangular&amp;SlideOnLid_surroundingspaces=2.0&amp;SlideOnLid_bottom_lip=0.0&amp;SlideOnLid_edge_width=1.0&amp;SlideOnLid_extra_length=0.0&amp;SlideOnLid_finger=3.0&amp;SlideOnLid_play=0.05&amp;SlideOnLid_space=2.0&amp;SlideOnLid_width=1.0&amp;Click_angle=5.0&amp;Click_bottom_radius=0.1&amp;Click_depth=3.0&amp;RoundedTriangleEdge_height=50.0&amp;RoundedTriangleEdge_r_hole=2.0&amp;RoundedTriangleEdge_radius=30.0&amp;RoundedTriangleEdge_outset=1.0&amp;Mounting_d_head=6.5&amp;Mounting_d_shaft=3.0&amp;Mounting_margin=0.125&amp;Mounting_num=2&amp;Mounting_side=back&amp;Mounting_style=straight+edge%2C+within&amp;HandleEdge_height=20.0&amp;HandleEdge_hole_height=75.0&amp;HandleEdge_hole_width=40%3A40&amp;HandleEdge_on_sides=0&amp;HandleEdge_on_sides=1&amp;HandleEdge_radius=10.0&amp;HandleEdge_outset=1.0&amp;Lid_handle=none&amp;Lid_style=none&amp;Lid_handle_height=8.0&amp;Lid_height=4.0&amp;Lid_play=0.1&amp;text_size=12&amp;text_alignment=left&amp;text_distance_x=2.0&amp;text_distance_y=2.0&amp;text_at_front=0&amp;label_text=&amp;FingerHoleEdge_absolute_depth=0.0&amp;FingerHoleEdge_absolute_width=0.0&amp;FingerHoleEdge_radius=10.0&amp;FingerHoleEdge_relative_depth=0.9&amp;FingerHoleEdge_relative_width=0.3&amp;sx=50&amp;sy=50&amp;h=100.0&amp;hi=0.0&amp;outside=0&amp;bottom_edge=F&amp;top_edge=e&amp;back_height=0.0&amp;radius=0.0&amp;gripheight=30&amp;gripwidth=0&amp;handle=0&amp;fingerholes=none&amp;thickness=3.0&amp;burn=0.1&amp;format=svg&amp;labels=0&amp;labels=1&amp;reference=100.0&amp;tabs=0.0&amp;qr_code=0&amp;inner_corners=loop&amp;spacing=0.5&amp;debug=0&amp;language=en&amp;render=2</dc:source>
<dc:source>https://boxes.hackerspace-bamberg.de/TypeTray?label_text=&amp;sx=50&amp;sy=50&amp;outside=0&amp;bottom_edge=F&amp;spacing=0.5</dc:source>
<dc:description>Type tray - allows only continuous walls

Created with Boxes.py (https://boxes.hackerspace-bamberg.de/)
Command line: boxes TypeTray --FingerJoint_style=rectangular --FingerJoint_surroundingspaces=0.5 --FingerJoint_bottom_lip=0.0 --FingerJoint_edge_width=1.0 --FingerJoint_extra_length=0.0 --FingerJoint_finger=2.0 --FingerJoint_play=0.0 --FingerJoint_space=2.0 --FingerJoint_width=1.0 --Stackable_angle=60 --Stackable_bottom_stabilizers=0.0 --Stackable_height=2.0 --Stackable_holedistance=1.0 --Stackable_width=4.0 --Hinge_grip_percentage=0 --Hinge_outset=0 --Hinge_pinwidth=0.5 --Hinge_axle=2.0 --Hinge_grip_length=0 --Hinge_hingestrength=1 --CabinetHinge_bore=3.2 --CabinetHinge_eyes_per_hinge=5 --CabinetHinge_hinges=2 --CabinetHinge_style=inside --CabinetHinge_eye=1.5 --CabinetHinge_play=0.05 --CabinetHinge_spacing=2.0 --SlideOnLid_hole_width=0 --SlideOnLid_second_pin=0 --SlideOnLid_second_pin=1 --SlideOnLid_spring=both --SlideOnLid_style=rectangular --SlideOnLid_surroundingspaces=2.0 --SlideOnLid_bottom_lip=0.0 --SlideOnLid_edge_width=1.0 --SlideOnLid_extra_length=0.0 --SlideOnLid_finger=3.0 --SlideOnLid_play=0.05 --SlideOnLid_space=2.0 --SlideOnLid_width=1.0 --Click_angle=5.0 --Click_bottom_radius=0.1 --Click_depth=3.0 --RoundedTriangleEdge_height=50.0 --RoundedTriangleEdge_r_hole=2.0 --RoundedTriangleEdge_radius=30.0 --RoundedTriangleEdge_outset=1.0 --Mounting_d_head=6.5 --Mounting_d_shaft=3.0 --Mounting_margin=0.125 --Mounting_num=2 --Mounting_side=back '--Mounting_style=straight edge, within' --HandleEdge_height=20.0 --HandleEdge_hole_height=75.0 --HandleEdge_hole_width=40:40 --HandleEdge_on_sides=0 --HandleEdge_on_sides=1 --HandleEdge_radius=10.0 --HandleEdge_outset=1.0 --Lid_handle=none --Lid_style=none --Lid_handle_height=8.0 --Lid_height=4.0 --Lid_play=0.1 --text_size=12 --text_alignment=left --text_distance_x=2.0 --text_distance_y=2.0 --text_at_front=0 --label_text= --FingerHoleEdge_absolute_depth=0.0 --FingerHoleEdge_absolute_width=0.0 --FingerHoleEdge_radius=10.0 --FingerHoleEdge_relative_depth=0.9 --FingerHoleEdge_relative_width=0.3 --sx=50 --sy=50 --h=100.0 --hi=0.0 --outside=0 --bottom_edge=F --top_edge=e --back_height=0.0 --radius=0.0 --gripheight=30 --gripwidth=0 --handle=0 --fingerholes=none --thickness=3.0 --burn=0.1 --format=svg --labels=0 --labels=1 --reference=100.0 --tabs=0.0 --qr_code=0 --inner_corners=loop --spacing=0.5 --debug=0
Command line short: boxes TypeTray --label_text= --sx=50 --sy=50 --outside=0 --bottom_edge=F --spacing=0.5
Url: https://boxes.hackerspace-bamberg.de/TypeTray?FingerJoint_style=rectangular&amp;FingerJoint_surroundingspaces=0.5&amp;FingerJoint_bottom_lip=0.0&amp;FingerJoint_edge_width=1.0&amp;FingerJoint_extra_length=0.0&amp;FingerJoint_finger=2.0&amp;FingerJoint_play=0.0&amp;FingerJoint_space=2.0&amp;FingerJoint_width=1.0&amp;Stackable_angle=60&amp;Stackable_bottom_stabilizers=0.0&amp;Stackable_height=2.0&amp;Stackable_holedistance=1.0&amp;Stackable_width=4.0&amp;Hinge_grip_percentage=0&amp;Hinge_outset=0&amp;Hinge_pinwidth=0.5&amp;Hinge_axle=2.0&amp;Hinge_grip_length=0&amp;Hinge_hingestrength=1&amp;CabinetHinge_bore=3.2&amp;CabinetHinge_eyes_per_hinge=5&amp;CabinetHinge_hinges=2&amp;CabinetHinge_style=inside&amp;CabinetHinge_eye=1.5&amp;CabinetHinge_play=0.05&amp;CabinetHinge_spacing=2.0&amp;SlideOnLid_hole_width=0&amp;SlideOnLid_second_pin=0&amp;SlideOnLid_second_pin=1&amp;SlideOnLid_spring=both&amp;SlideOnLid_style=rectangular&amp;SlideOnLid_surroundingspaces=2.0&amp;SlideOnLid_bottom_lip=0.0&amp;SlideOnLid_edge_width=1.0&amp;SlideOnLid_extra_length=0.0&amp;SlideOnLid_finger=3.0&amp;SlideOnLid_play=0.05&amp;SlideOnLid_space=2.0&amp;SlideOnLid_width=1.0&amp;Click_angle=5.0&amp;Click_bottom_radius=0.1&amp;Click_depth=3.0&amp;RoundedTriangleEdge_height=50.0&amp;RoundedTriangleEdge_r_hole=2.0&amp;RoundedTriangleEdge_radius=30.0&amp;RoundedTriangleEdge_outset=1.0&amp;Mounting_d_head=6.5&amp;Mounting_d_shaft=3.0&amp;Mounting_margin=0.125&amp;Mounting_num=2&amp;Mounting_side=back&amp;Mounting_style=straight+edge%2C+within&amp;HandleEdge_height=20.0&amp;HandleEdge_hole_height=75.0&amp;HandleEdge_hole_width=40%3A40&amp;HandleEdge_on_sides=0&amp;HandleEdge_on_sides=1&amp;HandleEdge_radius=10.0&amp;HandleEdge_outset=1.0&amp;Lid_handle=none&amp;Lid_style=none&amp;Lid_handle_height=8.0&amp;Lid_height=4.0&amp;Lid_play=0.1&amp;text_size=12&amp;text_alignment=left&amp;text_distance_x=2.0&amp;text_distance_y=2.0&amp;text_at_front=0&amp;label_text=&amp;FingerHoleEdge_absolute_depth=0.0&amp;FingerHoleEdge_absolute_width=0.0&amp;FingerHoleEdge_radius=10.0&amp;FingerHoleEdge_relative_depth=0.9&amp;FingerHoleEdge_relative_width=0.3&amp;sx=50&amp;sy=50&amp;h=100.0&amp;hi=0.0&amp;outside=0&amp;bottom_edge=F&amp;top_edge=e&amp;back_height=0.0&amp;radius=0.0&amp;gripheight=30&amp;gripwidth=0&amp;handle=0&amp;fingerholes=none&amp;thickness=3.0&amp;burn=0.1&amp;format=svg&amp;labels=0&amp;labels=1&amp;reference=100.0&amp;tabs=0.0&amp;qr_code=0&amp;inner_corners=loop&amp;spacing=0.5&amp;debug=0&amp;language=en&amp;render=2
Url short: https://boxes.hackerspace-bamberg.de/TypeTray?label_text=&amp;sx=50&amp;sy=50&amp;outside=0&amp;bottom_edge=F&amp;spacing=0.5
SettingsUrl: https://boxes.hackerspace-bamberg.de/TypeTray?FingerJoint_style=rectangular&amp;FingerJoint_surroundingspaces=0.5&amp;FingerJoint_bottom_lip=0.0&amp;FingerJoint_edge_width=1.0&amp;FingerJoint_extra_length=0.0&amp;FingerJoint_finger=2.0&amp;FingerJoint_play=0.0&amp;FingerJoint_space=2.0&amp;FingerJoint_width=1.0&amp;Stackable_angle=60&amp;Stackable_bottom_stabilizers=0.0&amp;Stackable_height=2.0&amp;Stackable_holedistance=1.0&amp;Stackable_width=4.0&amp;Hinge_grip_percentage=0&amp;Hinge_outset=0&amp;Hinge_pinwidth=0.5&amp;Hinge_axle=2.0&amp;Hinge_grip_length=0&amp;Hinge_hingestrength=1&amp;CabinetHinge_bore=3.2&amp;CabinetHinge_eyes_per_hinge=5&amp;CabinetHinge_hinges=2&amp;CabinetHinge_style=inside&amp;CabinetHinge_eye=1.5&amp;CabinetHinge_play=0.05&amp;CabinetHinge_spacing=2.0&amp;SlideOnLid_hole_width=0&amp;SlideOnLid_second_pin=0&amp;SlideOnLid_second_pin=1&amp;SlideOnLid_spring=both&amp;SlideOnLid_style=rectangular&amp;SlideOnLid_surroundingspaces=2.0&amp;SlideOnLid_bottom_lip=0.0&amp;SlideOnLid_edge_width=1.0&amp;SlideOnLid_extra_length=0.0&amp;SlideOnLid_finger=3.0&amp;SlideOnLid_play=0.05&amp;SlideOnLid_space=2.0&amp;SlideOnLid_width=1.0&amp;Click_angle=5.0&amp;Click_bottom_radius=0.1&amp;Click_depth=3.0&amp;RoundedTriangleEdge_height=50.0&amp;RoundedTriangleEdge_r_hole=2.0&amp;RoundedTriangleEdge_radius=30.0&amp;RoundedTriangleEdge_outset=1.0&amp;Mounting_d_head=6.5&amp;Mounting_d_shaft=3.0&amp;Mounting_margin=0.125&amp;Mounting_num=2&amp;Mounting_side=back&amp;Mounting_style=straight+edge%2C+within&amp;HandleEdge_height=20.0&amp;HandleEdge_hole_height=75.0&amp;HandleEdge_hole_width=40%3A40&amp;HandleEdge_on_sides=0&amp;HandleEdge_on_sides=1&amp;HandleEdge_radius=10.0&amp;HandleEdge_outset=1.0&amp;Lid_handle=none&amp;Lid_style=none&amp;Lid_handle_height=8.0&amp;Lid_height=4.0&amp;Lid_play=0.1&amp;text_size=12&amp;text_alignment=left&amp;text_distance_x=2.0&amp;text_distance_y=2.0&amp;text_at_front=0&amp;label_text=&amp;FingerHoleEdge_absolute_depth=0.0&amp;FingerHoleEdge_absolute_width=0.0&amp;FingerHoleEdge_radius=10.0&amp;FingerHoleEdge_relative_depth=0.9&amp;FingerHoleEdge_relative_width=0.3&amp;sx=50&amp;sy=50&amp;h=100.0&amp;hi=0.0&amp;outside=0&amp;bottom_edge=F&amp;top_edge=e&amp;back_height=0.0&amp;radius=0.0&amp;gripheight=30&amp;gripwidth=0&amp;handle=0&amp;fingerholes=none&amp;thickness=3.0&amp;burn=0.1&amp;format=svg&amp;labels=0&amp;labels=1&amp;reference=100.0&amp;tabs=0.0&amp;qr_code=0&amp;inner_corners=loop&amp;spacing=0.5&amp;debug=0&amp;language=en&amp;render=2
SettingsUrl short: https://boxes.hackerspace-bamberg.de/TypeTray?label_text=&amp;sx=50&amp;sy=50&amp;outside=0&amp;bottom_edge=F&amp;spacing=0.5
</dc:description>
</cc:Work></rdf:RDF></metadata>
<g id="p-0" style="fill:none;stroke-linecap:round;stroke-linejoin:round;">
  <path d="M 10.100 287.300 H 110.100 V 277.300 H 10.100 V 287.300 Z" stroke="rgb(0,0,0)" stroke-width="0.20" />
  <text dominant-baseline="hanging" font-size="6px" style="font-family: sans-serif ; font-weight: normal; font-style: normal; fill: rgb(255,0,0)" text-anchor="middle" transform="matrix( 1.000 0.000 0.000 1.000 60.100 279.300 )">100.0mm, burn:0.10mm</text>
</g>
<g id="p-1" style="fill:none;stroke-linecap:round;stroke-linejoin:round;">
  <path d="M 13.100 272.600 H 17.000 C 17.100 272.600 17.000 272.500 17.000 272.600 V 275.500 C 17.000 275.555 17.045 275.600 17.100 275.600 H 23.100 C 23.155 275.600 23.200 275.555 23.200 275.500 V 272.600 C 23.200 272.500 23.100 272.600 23.200 272.600 H 29.000 C 29.100 272.600 29.000 272.500 29.000 272.600 V 275.500 C 29.000 275.555 29.045 275.600 29.100 275.600 H 35.100 C 35.155 275.600 35.200 275.555 35.200 275.500 V 272.600 C 35.200 272.500 35.100 272.600 35.200 272.600 H 41.000 C 41.100 272.600 41.000 272.500 41.000 272.600 V 275.500 C 41.000 275.555 41.045 275.600 41.100 275.600 H 47.100 C 47.155 275.600 47.200 275.555 47.200 275.500 V 272.600 C 47.200 272.500 47.100 272.600 47.200 272.600 H 53.000 C 53.100 272.600 53.000 272.500 53.000 272.600 V 275.500 C 53.000 275.555 53.045 275.600 53.100 275.600 H 59.100 C 59.155 275.600 59.200 275.555 59.200 275.500 V 272.600 C 59.200 272.500 59.100 272.600 59.200 272.600 H 63.100 C 63.155 272.600 63.200 272.555 63.200 272.500 V 268.600 C 63.200 268.500 63.100 268.600 63.200 268.600 H 66.100 C 66.155 268.600 66.200 268.555 66.200 268.500 V 262.500 C 66.200 262.445 66.155 262.400 66.100 262.400 H 63.200 C 63.100 262.400 63.200 262.500 63.200 262.400 V 256.600 C 63.200 256.500 63.100 256.600 63.200 256.600 H 66.100 C 66.155 256.600 66.200 256.555 66.200 256.500 V 250.500 C 66.200 250.445 66.155 250.400 66.100 250.400 H 63.200 C 63.100 250.400 63.200 250.500 63.200 250.400 V 244.600 C 63.200 244.500 63.100 244.600 63.200 244.600 H 66.100 C 66.155 244.600 66.200 244.555 66.200 244.500 V 238.500 C 66.200 238.445 66.155 238.400 66.100 238.400 H 63.200 C 63.100 238.400 63.200 238.500 63.200 238.400 V 232.600 C 63.200 232.500 63.100 232.600 63.200 232.600 H 66.100 C 66.155 232.600 66.200 232.555 66.200 232.500 V 226.500 C 66.200 226.445 66.155 226.400 66.100 226.400 H 63.200 C 63.100 226.400 63.200 226.500 63.200 226.400 V 222.500 C 63.200 222.445 63.155 222.400 63.100 222.400 H 59.200 C 59.100 222.400 59.200 222.500 59.200 222.400 V 219.500 C 59.200 219.445 59.155 219.400 59.100 219.400 H 53.100 C 53.045 219.400 53.000 219.445 53.000 219.500 V 222.400 C 53.000 222.500 53.100 222.400 53.000 222.400 H 47.200 C 47.100 222.400 47.200 222.500 47.200 222.400 V 219.500 C 47.200 219.445 47.155 219.400 47.100 219.400 H 41.100 C 41.045 219.400 41.000 219.445 41.000 219.500 V 222.400 C 41.000 222.500 41.100 222.400 41.000 222.400 H 35.200 C 35.100 222.400 35.200 222.500 35.200 222.400 V 219.500 C 35.200 219.445 35.155 219.400 35.100 219.400 H 29.100 C 29.045 219.400 29.000 219.445 29.000 219.500 V 222.400 C 29.000 222.500 29.100 222.400 29.000 222.400 H 23.200 C 23.100 222.400 23.200 222.500 23.200 222.400 V 219.500 C 23.200 219.445 23.155 219.400 23.100 219.400 H 17.100 C 17.045 219.400 17.000 219.445 17.000 219.500 V 222.400 C 17.000 222.500 17.100 222.400 17.000 222.400 H 13.100 C 13.045 222.400 13.000 222.445 13.000 222.500 V 226.400 C 13.000 226.500 13.100 226.400 13.000 226.400 H 10.100 C 10.045 226.400 10.000 226.445 10.000 226.500 V 232.500 C 10.000 232.555 10.045 232.600 10.100 232.600 H 13.000 C 13.100 232.600 13.000 232.500 13.000 232.600 V 238.400 C 13.000 238.500 13.100 238.400 13.000 238.400 H 10.100 C 10.045 238.400 10.000 238.445 10.000 238.500 V 244.500 C 10.000 244.555 10.045 244.600 10.100 244.600 H 13.000 C 13.100 244.600 13.000 244.500 13.000 244.600 V 250.400 C 13.000 250.500 13.100 250.400 13.000 250.400 H 10.100 C 10.045 250.400 10.000 250.445 10.000 250.500 V 256.500 C 10.000 256.555 10.045 256.600 10.100 256.600 H 13.000 C 13.100 256.600 13.000 256.500 13.000 256.600 V 262.400 C 13.000 262.500 13.100 262.400 13.000 262.400 H 10.100 C 10.045 262.400 10.000 262.445 10.000 262.500 V 268.500 C 10.000 268.555 10.045 268.600 10.100 268.600 H 13.000 C 13.100 268.600 13.000 268.500 13.000 268.600 V 272.500 C 13.000 272.555 13.045 272.600 13.100 272.600 Z" stroke="rgb(0,0,0)" stroke-width="0.20" />
  <text dominant-baseline="hanging" font-size="4px" style="font-family: sans-serif ; font-weight: normal; font-style: normal; fill: rgb(255,0,0)" text-anchor="middle" transform="matrix( 1.000 0.000 0.000 1.000 38.100 245.600 )">bottom</text>
</g>
<g id="p-2" style="fill:none;stroke-linecap:round;stroke-linejoin:round;">
  <path d="M 13.100 217.900 H 17.100 C 17.155 217.900 17.200 217.855 17.200 217.800 V 214.900 C 17.200 214.800 17.100 214.900 17.200 214.900 H 23.000 C 23.100 214.900 23.000 214.800 23.000 214.900 V 217.800 C 23.000 217.855 23.045 217.900 23.100 217.900 H 29.100 C 29.155 217.900 29.200 217.855 29.200 217.800 V 214.900 C 29.200 214.800 29.100 214.900 29.200 214.900 H 35.000 C 35.100 214.900 35.000 214.800 35.000 214.900 V 217.800 C 35.000 217.855 35.045 217.900 35.100 217.900 H 41.100 C 41.155 217.900 41.200 217.855 41.200 217.800 V 214.900 C 41.200 214.800 41.100 214.900 41.200 214.900 H 47.000 C 47.100 214.900 47.000 214.800 47.000 214.900 V 217.800 C 47.000 217.855 47.045 217.900 47.100 217.900 H 53.100 C 53.155 217.900 53.200 217.855 53.200 217.800 V 214.900 C 53.200 214.800 53.100 214.900 53.200 214.900 H 59.000 C 59.100 214.900 59.000 214.800 59.000 214.900 V 217.800 C 59.000 217.855 59.045 217.900 59.100 217.900 H 63.100 H 66.100 C 66.155 217.900 66.200 217.855 66.200 217.800 V 211.300 C 66.200 211.245 66.155 211.200 66.100 211.200 H 63.200 C 63.100 211.200 63.200 211.300 63.200 211.200 V 205.400 C 63.200 205.300 63.100 205.400 63.200 205.400 H 66.100 C 66.155 205.400 66.200 205.355 66.200 205.300 V 199.300 C 66.200 199.245 66.155 199.200 66.100 199.200 H 63.200 C 63.100 199.200 63.200 199.300 63.200 199.200 V 193.400 C 63.200 193.300 63.100 193.400 63.200 193.400 H 66.100 C 66.155 193.400 66.200 193.355 66.200 193.300 V 187.300 C 66.200 187.245 66.155 187.200 66.100 187.200 H 63.200 C 63.100 187.200 63.200 187.300 63.200 187.200 V 181.400 C 63.200 181.300 63.100 181.400 63.200 181.400 H 66.100 C 66.155 181.400 66.200 181.355 66.200 181.300 V 175.300 C 66.200 175.245 66.155 175.200 66.100 175.200 H 63.200 C 63.100 175.200 63.200 175.300 63.200 175.200 V 169.400 C 63.200 169.300 63.100 169.400 63.200 169.400 H 66.100 C 66.155 169.400 66.200 169.355 66.200 169.300 V 163.300 C 66.200 163.245 66.155 163.200 66.100 163.200 H 63.200 C 63.100 163.200 63.200 163.300 63.200 163.200 V 157.400 C 63.200 157.300 63.100 157.400 63.200 157.400 H 66.100 C 66.155 157.400 66.200 157.355 66.200 157.300 V 151.300 C 66.200 151.245 66.155 151.200 66.100 151.200 H 63.200 C 63.100 151.200 63.200 151.300 63.200 151.200 V 145.400 C 63.200 145.300 63.100 145.400 63.200 145.400 H 66.100 C 66.155 145.400 66.200 145.355 66.200 145.300 V 139.300 C 66.200 139.245 66.155 139.200 66.100 139.200 H 63.200 C 63.100 139.200 63.200 139.300 63.200 139.200 V 133.400 C 63.200 133.300 63.100 133.400 63.200 133.400 H 66.100 C 66.155 133.400 66.200 133.355 66.200 133.300 V 127.300 C 66.200 127.245 66.155 127.200 66.100 127.200 H 63.200 C 63.100 127.200 63.200 127.300 63.200 127.200 V 121.400 C 63.200 121.300 63.100 121.400 63.200 121.400 H 66.100 C 66.155 121.400 66.200 121.355 66.200 121.300 V 114.800 C 66.200 114.745 66.155 114.700 66.100 114.700 H 63.100 H 13.100 H 10.100 C 10.045 114.700 10.000 114.745 10.000 114.800 V 121.300 C 10.000 121.355 10.045 121.400 10.100 121.400 H 13.000 C 13.100 121.400 13.000 121.300 13.000 121.400 V 127.200 C 13.000 127.300 13.100 127.200 13.000 127.200 H 10.100 C 10.045 127.200 10.000 127.245 10.000 127.300 V 133.300 C 10.000 133.355 10.045 133.400 10.100 133.400 H 13.000 C 13.100 133.400 13.000 133.300 13.000 133.400 V 139.200 C 13.000 139.300 13.100 139.200 13.000 139.200 H 10.100 C 10.045 139.200 10.000 139.245 10.000 139.300 V 145.300 C 10.000 145.355 10.045 145.400 10.100 145.400 H 13.000 C 13.100 145.400 13.000 145.300 13.000 145.400 V 151.200 C 13.000 151.300 13.100 151.200 13.000 151.200 H 10.100 C 10.045 151.200 10.000 151.245 10.000 151.300 V 157.300 C 10.000 157.355 10.045 157.400 10.100 157.400 H 13.000 C 13.100 157.400 13.000 157.300 13.000 157.400 V 163.200 C 13.000 163.300 13.100 163.200 13.000 163.200 H 10.100 C 10.045 163.200 10.000 163.245 10.000 163.300 V 169.300 C 10.000 169.355 10.045 169.400 10.100 169.400 H 13.000 C 13.100 169.400 13.000 169.300 13.000 169.400 V 175.200 C 13.000 175.300 13.100 175.200 13.000 175.200 H 10.100 C 10.045 175.200 10.000 175.245 10.000 175.300 V 181.300 C 10.000 181.355 10.045 181.400 10.100 181.400 H 13.000 C 13.100 181.400 13.000 181.300 13.000 181.400 V 187.200 C 13.000 187.300 13.100 187.200 13.000 187.200 H 10.100 C 10.045 187.200 10.000 187.245 10.000 187.300 V 193.300 C 10.000 193.355 10.045 193.400 10.100 193.400 H 13.000 C 13.100 193.400 13.000 193.300 13.000 193.400 V 199.200 C 13.000 199.300 13.100 199.200 13.000 199.200 H 10.100 C 10.045 199.200 10.000 199.245 10.000 199.300 V 205.300 C 10.000 205.355 10.045 205.400 10.100 205.400 H 13.000 C 13.100 205.400 13.000 205.300 13.000 205.400 V 211.200 C 13.000 211.300 13.100 211.200 13.000 211.200 H 10.100 C 10.045 211.200 10.000 211.245 10.000 211.300 V 217.800 C 10.000 217.855 10.045 217.900 10.100 217.900 H 13.100 Z" stroke="rgb(0,0,0)" stroke-width="0.20" />
  <text dominant-baseline="hanging" font-size="4px" style="font-family: sans-serif ; font-weight: normal; font-style: normal; fill: rgb(255,0,0)" text-anchor="middle" transform="matrix( 1.000 0.000 0.000 1.000 38.100 164.400 )">front</text>
</g>
<g id="p-3" style="fill:none;stroke-linecap:round;stroke-linejoin:round;">
  <path d="M 63.100 113.200 H 59.100 C 59.045 113.200 59.000 113.155 59.000 113.100 V 110.200 C 59.000 110.100 59.100 110.200 59.000 110.200 H 53.200 C 53.100 110.200 53.200 110.100 53.200 110.200 V 113.100 C 53.200 113.155 53.155 113.200 53.100 113.200 H 47.100 C 47.045 113.200 47.000 113.155 47.000 113.100 V 110.200 C 47.000 110.100 47.100 110.200 47.000 110.200 H 41.200 C 41.100 110.200 41.200 110.100 41.200 110.200 V 113.100 C 41.200 113.155 41.155 113.200 41.100 113.200 H 35.100 C 35.045 113.200 35.000 113.155 35.000 113.100 V 110.200 C 35.000 110.100 35.100 110.200 35.000 110.200 H 29.200 C 29.100 110.200 29.200 110.100 29.200 110.200 V 113.100 C 29.200 113.155 29.155 113.200 29.100 113.200 H 23.100 C 23.045 113.200 23.000 113.155 23.000 113.100 V 110.200 C 23.000 110.100 23.100 110.200 23.000 110.200 H 17.200 C 17.100 110.200 17.200 110.100 17.200 110.200 V 113.100 C 17.200 113.155 17.155 113.200 17.100 113.200 H 13.100 H 10.100 C 10.045 113.200 10.000 113.155 10.000 113.100 V 106.600 C 10.000 106.545 10.045 106.500 10.100 106.500 H 13.000 C 13.100 106.500 13.000 106.600 13.000 106.500 V 100.700 C 13.000 100.600 13.100 100.700 13.000 100.700 H 10.100 C 10.045 100.700 10.000 100.655 10.000 100.600 V 94.600 C 10.000 94.545 10.045 94.500 10.100 94.500 H 13.000 C 13.100 94.500 13.000 94.600 13.000 94.500 V 88.700 C 13.000 88.600 13.100 88.700 13.000 88.700 H 10.100 C 10.045 88.700 10.000 88.655 10.000 88.600 V 82.600 C 10.000 82.545 10.045 82.500 10.100 82.500 H 13.000 C 13.100 82.500 13.000 82.600 13.000 82.500 V 76.700 C 13.000 76.600 13.100 76.700 13.000 76.700 H 10.100 C 10.045 76.700 10.000 76.655 10.000 76.600 V 70.600 C 10.000 70.545 10.045 70.500 10.100 70.500 H 13.000 C 13.100 70.500 13.000 70.600 13.000 70.500 V 64.700 C 13.000 64.600 13.100 64.700 13.000 64.700 H 10.100 C 10.045 64.700 10.000 64.655 10.000 64.600 V 58.600 C 10.000 58.545 10.045 58.500 10.100 58.500 H 13.000 C 13.100 58.500 13.000 58.600 13.000 58.500 V 52.700 C 13.000 52.600 13.100 52.700 13.000 52.700 H 10.100 C 10.045 52.700 10.000 52.655 10.000 52.600 V 46.600 C 10.000 46.545 10.045 46.500 10.100 46.500 H 13.000 C 13.100 46.500 13.000 46.600 13.000 46.500 V 40.700 C 13.000 40.600 13.100 40.700 13.000 40.700 H 10.100 C 10.045 40.700 10.000 40.655 10.000 40.600 V 34.600 C 10.000 34.545 10.045 34.500 10.100 34.500 H 13.000 C 13.100 34.500 13.000 34.600 13.000 34.500 V 28.700 C 13.000 28.600 13.100 28.700 13.000 28.700 H 10.100 C 10.045 28.700 10.000 28.655 10.000 28.600 V 22.600 C 10.000 22.545 10.045 22.500 10.100 22.500 H 13.000 C 13.100 22.500 13.000 22.600 13.000 22.500 V 16.700 C 13.000 16.600 13.100 16.700 13.000 16.700 H 10.100 C 10.045 16.700 10.000 16.655 10.000 16.600 V 10.100 C 10.000 10.045 10.045 10.000 10.100 10.000 H 13.100 H 63.100 H 66.100 C 66.155 10.000 66.200 10.045 66.200 10.100 V 16.600 C 66.200 16.655 66.155 16.700 66.100 16.700 H 63.200 C 63.100 16.700 63.200 16.600 63.200 16.700 V 22.500 C 63.200 22.600 63.100 22.500 63.200 22.500 H 66.100 C 66.155 22.500 66.200 22.545 66.200 22.600 V 28.600 C 66.200 28.655 66.155 28.700 66.100 28.700 H 63.200 C 63.100 28.700 63.200 28.600 63.200 28.700 V 34.500 C 63.200 34.600 63.100 34.500 63.200 34.500 H 66.100 C 66.155 34.500 66.200 34.545 66.200 34.600 V 40.600 C 66.200 40.655 66.155 40.700 66.100 40.700 H 63.200 C 63.100 40.700 63.200 40.600 63.200 40.700 V 46.500 C 63.200 46.600 63.100 46.500 63.200 46.500 H 66.100 C 66.155 46.500 66.200 46.545 66.200 46.600 V 52.600 C 66.200 52.655 66.155 52.700 66.100 52.700 H 63.200 C 63.100 52.700 63.200 52.600 63.200 52.700 V 58.500 C 63.200 58.600 63.100 58.500 63.200 58.500 H 66.100 C 66.155 58.500 66.200 58.545 66.200 58.600 V 64.600 C 66.200 64.655 66.155 64.700 66.100 64.700 H 63.200 C 63.100 64.700 63.200 64.600 63.200 64.700 V 70.500 C 63.200 70.600 63.100 70.500 63.200 70.500 H 66.100 C 66.155 70.500 66.200 70.545 66.200 70.600 V 76.600 C 66.200 76.655 66.155 76.700 66.100 76.700 H 63.200 C 63.100 76.700 63.200 76.600 63.200 76.700 V 82.500 C 63.200 82.600 63.100 82.500 63.200 82.500 H 66.100 C 66.155 82.500 66.200 82.545 66.200 82.600 V 88.600 C 66.200 88.655 66.155 88.700 66.100 88.700 H 63.200 C 63.100 88.700 63.200 88.600 63.200 88.700 V 94.500 C 63.200 94.600 63.100 94.500 63.200 94.500 H 66.100 C 66.155 94.500 66.200 94.545 66.200 94.600 V 100.600 C 66.200 100.655 66.155 100.700 66.100 100.700 H 63.200 C 63.100 100.700 63.200 100.600 63.200 100.700 V 106.500 C 63.200 106.600 63.100 106.500 63.200 106.500 H 66.100 C 66.155 106.500 66.200 106.545 66.200 106.600 V 113.100 C 66.200 113.155 66.155 113.200 66.100 113.200 H 63.100 Z" stroke="rgb(0,0,0)" stroke-width="0.20" />
  <text dominant-baseline="hanging" font-size="4px" style="font-family: sans-serif ; font-weight: normal; font-style: normal; fill: rgb(255,0,0)" text-anchor="middle" transform="matrix( 1.000 0.000 0.000 1.000 38.100 59.700 )">back</text>
</g>
<g id="p-4" style="fill:none;stroke-linecap:round;stroke-linejoin:round;">
  <path d="M 70.800 275.600 H 74.800 C 74.855 275.600 74.900 275.555 74.900 275.500 V 272.600 C 74.900 272.500 74.800 272.600 74.900 272.600 H 80.700 C 80.800 272.600 80.700 272.500 80.700 272.600 V 275.500 C 80.700 275.555 80.745 275.600 80.800 275.600 H 86.800 C 86.855 275.600 86.900 275.555 86.900 275.500 V 272.600 C 86.900 272.500 86.800 272.600 86.900 272.600 H 92.700 C 92.800 272.600 92.700 272.500 92.700 272.600 V 275.500 C 92.700 275.555 92.745 275.600 92.800 275.600 H 98.800 C 98.855 275.600 98.900 275.555 98.900 275.500 V 272.600 C 98.900 272.500 98.800 272.600 98.900 272.600 H 104.700 C 104.800 272.600 104.700 272.500 104.700 272.600 V 275.500 C 104.700 275.555 104.745 275.600 104.800 275.600 H 110.800 C 110.855 275.600 110.900 275.555 110.900 275.500 V 272.600 C 110.900 272.500 110.800 272.600 110.900 272.600 H 116.700 C 116.800 272.600 116.700 272.500 116.700 272.600 V 275.500 C 116.700 275.555 116.745 275.600 116.800 275.600 H 120.800 C 120.855 275.600 120.900 275.555 120.900 275.500 V 269.100 C 120.900 269.000 120.800 269.100 120.900 269.100 H 123.800 C 123.855 269.100 123.900 269.055 123.900 269.000 V 263.000 C 123.900 262.945 123.855 262.900 123.800 262.900 H 120.900 C 120.800 262.900 120.900 263.000 120.900 262.900 V 257.100 C 120.900 257.000 120.800 257.100 120.900 257.100 H 123.800 C 123.855 257.100 123.900 257.055 123.900 257.000 V 251.000 C 123.900 250.945 123.855 250.900 123.800 250.900 H 120.900 C 120.800 250.900 120.900 251.000 120.900 250.900 V 245.100 C 120.900 245.000 120.800 245.100 120.900 245.100 H 123.800 C 123.855 245.100 123.900 245.055 123.900 245.000 V 239.000 C 123.900 238.945 123.855 238.900 123.800 238.900 H 120.900 C 120.800 238.900 120.900 239.000 120.900 238.900 V 233.100 C 120.900 233.000 120.800 233.100 120.900 233.100 H 123.800 C 123.855 233.100 123.900 233.055 123.900 233.000 V 227.000 C 123.900 226.945 123.855 226.900 123.800 226.900 H 120.900 C 120.800 226.900 120.900 227.000 120.900 226.900 V 221.100 C 120.900 221.000 120.800 221.100 120.900 221.100 H 123.800 C 123.855 221.100 123.900 221.055 123.900 221.000 V 215.000 C 123.900 214.945 123.855 214.900 123.800 214.900 H 120.900 C 120.800 214.900 120.900 215.000 120.900 214.900 V 209.100 C 120.900 209.000 120.800 209.100 120.900 209.100 H 123.800 C 123.855 209.100 123.900 209.055 123.900 209.000 V 203.000 C 123.900 202.945 123.855 202.900 123.800 202.900 H 120.900 C 120.800 202.900 120.900 203.000 120.900 202.900 V 197.100 C 120.900 197.000 120.800 197.100 120.900 197.100 H 123.800 C 123.855 197.100 123.900 197.055 123.900 197.000 V 191.000 C 123.900 190.945 123.855 190.900 123.800 190.900 H 120.900 C 120.800 190.900 120.900 191.000 120.900 190.900 V 185.100 C 120.900 185.000 120.800 185.100 120.900 185.100 H 123.800 C 123.855 185.100 123.900 185.055 123.900 185.000 V 179.000 C 123.900 178.945 123.855 178.900 123.800 178.900 H 120.900 C 120.800 178.900 120.900 179.000 120.900 178.900 V 172.500 C 120.900 172.445 120.855 172.400 120.800 172.400 H 70.800 C 70.745 172.400 70.700 172.445 70.700 172.500 V 178.900 C 70.700 179.000 70.800 178.900 70.700 178.900 H 67.800 C 67.745 178.900 67.700 178.945 67.700 179.000 V 185.000 C 67.700 185.055 67.745 185.100 67.800 185.100 H 70.700 C 70.800 185.100 70.700 185.000 70.700 185.100 V 190.900 C 70.700 191.000 70.800 190.900 70.700 190.900 H 67.800 C 67.745 190.900 67.700 190.945 67.700 191.000 V 197.000 C 67.700 197.055 67.745 197.100 67.800 197.100 H 70.700 C 70.800 197.100 70.700 197.000 70.700 197.100 V 202.900 C 70.700 203.000 70.800 202.900 70.700 202.900 H 67.800 C 67.745 202.900 67.700 202.945 67.700 203.000 V 209.000 C 67.700 209.055 67.745 209.100 67.800 209.100 H 70.700 C 70.800 209.100 70.700 209.000 70.700 209.100 V 214.900 C 70.700 215.000 70.800 214.900 70.700 214.900 H 67.800 C 67.745 214.900 67.700 214.945 67.700 215.000 V 221.000 C 67.700 221.055 67.745 221.100 67.800 221.100 H 70.700 C 70.800 221.100 70.700 221.000 70.700 221.100 V 226.900 C 70.700 227.000 70.800 226.900 70.700 226.900 H 67.800 C 67.745 226.900 67.700 226.945 67.700 227.000 V 233.000 C 67.700 233.055 67.745 233.100 67.800 233.100 H 70.700 C 70.800 233.100 70.700 233.000 70.700 233.100 V 238.900 C 70.700 239.000 70.800 238.900 70.700 238.900 H 67.800 C 67.745 238.900 67.700 238.945 67.700 239.000 V 245.000 C 67.700 245.055 67.745 245.100 67.800 245.100 H 70.700 C 70.800 245.100 70.700 245.000 70.700 245.100 V 250.900 C 70.700 251.000 70.800 250.900 70.700 250.900 H 67.800 C 67.745 250.900 67.700 250.945 67.700 251.000 V 257.000 C 67.700 257.055 67.745 257.100 67.800 257.100 H 70.700 C 70.800 257.100 70.700 257.000 70.700 257.100 V 262.900 C 70.700 263.000 70.800 262.900 70.700 262.900 H 67.800 C 67.745 262.900 67.700 262.945 67.700 263.000 V 269.000 C 67.700 269.055 67.745 269.100 67.800 269.100 H 70.700 C 70.800 269.100 70.700 269.000 70.700 269.100 V 275.500 C 70.700 275.555 70.745 275.600 70.800 275.600 Z" stroke="rgb(0,0,0)" stroke-width="0.20" />
  <text dominant-baseline="hanging" font-size="4px" style="font-family: sans-serif ; font-weight: normal; font-style: normal; fill: rgb(255,0,0)" text-anchor="middle" transform="matrix( 1.000 0.000 0.000 1.000 95.800 222.100 )">left side</text>
</g>
<g id="p-5" style="fill:none;stroke-linecap:round;stroke-linejoin:round;">
  <path d="M 70.800 170.900 H 74.800 C 74.855 170.900 74.900 170.855 74.900 170.800 V 167.900 C 74.900 167.800 74.800 167.900 74.900 167.900 H 80.700 C 80.800 167.900 80.700 167.800 80.700 167.900 V 170.800 C 80.700 170.855 80.745 170.900 80.800 170.900 H 86.800 C 86.855 170.900 86.900 170.855 86.900 170.800 V 167.900 C 86.900 167.800 86.800 167.900 86.900 167.900 H 92.700 C 92.800 167.900 92.700 167.800 92.700 167.900 V 170.800 C 92.700 170.855 92.745 170.900 92.800 170.900 H 98.800 C 98.855 170.900 98.900 170.855 98.900 170.800 V 167.900 C 98.900 167.800 98.800 167.900 98.900 167.900 H 104.700 C 104.800 167.900 104.700 167.800 104.700 167.900 V 170.800 C 104.700 170.855 104.745 170.900 104.800 170.900 H 110.800 C 110.855 170.900 110.900 170.855 110.900 170.800 V 167.900 C 110.900 167.800 110.800 167.900 110.900 167.900 H 116.700 C 116.800 167.900 116.700 167.800 116.700 167.900 V 170.800 C 116.700 170.855 116.745 170.900 116.800 170.900 H 120.800 C 120.855 170.900 120.900 170.855 120.900 170.800 V 164.400 C 120.900 164.300 120.800 164.400 120.900 164.400 H 123.800 C 123.855 164.400 123.900 164.355 123.900 164.300 V 158.300 C 123.900 158.245 123.855 158.200 123.800 158.200 H 120.900 C 120.800 158.200 120.900 158.300 120.900 158.200 V 152.400 C 120.900 152.300 120.800 152.400 120.900 152.400 H 123.800 C 123.855 152.400 123.900 152.355 123.900 152.300 V 146.300 C 123.900 146.245 123.855 146.200 123.800 146.200 H 120.900 C 120.800 146.200 120.900 146.300 120.900 146.200 V 140.400 C 120.900 140.300 120.800 140.400 120.900 140.400 H 123.800 C 123.855 140.400 123.900 140.355 123.900 140.300 V 134.300 C 123.900 134.245 123.855 134.200 123.800 134.200 H 120.900 C 120.800 134.200 120.900 134.300 120.900 134.200 V 128.400 C 120.900 128.300 120.800 128.400 120.900 128.400 H 123.800 C 123.855 128.400 123.900 128.355 123.900 128.300 V 122.300 C 123.900 122.245 123.855 122.200 123.800 122.200 H 120.900 C 120.800 122.200 120.900 122.300 120.900 122.200 V 116.400 C 120.900 116.300 120.800 116.400 120.900 116.400 H 123.800 C 123.855 116.400 123.900 116.355 123.900 116.300 V 110.300 C 123.900 110.245 123.855 110.200 123.800 110.200 H 120.900 C 120.800 110.200 120.900 110.300 120.900 110.200 V 104.400 C 120.900 104.300 120.800 104.400 120.900 104.400 H 123.800 C 123.855 104.400 123.900 104.355 123.900 104.300 V 98.300 C 123.900 98.245 123.855 98.200 123.800 98.200 H 120.900 C 120.800 98.200 120.900 98.300 120.900 98.200 V 92.400 C 120.900 92.300 120.800 92.400 120.900 92.400 H 123.800 C 123.855 92.400 123.900 92.355 123.900 92.300 V 86.300 C 123.900 86.245 123.855 86.200 123.800 86.200 H 120.900 C 120.800 86.200 120.900 86.300 120.900 86.200 V 80.400 C 120.900 80.300 120.800 80.400 120.900 80.400 H 123.800 C 123.855 80.400 123.900 80.355 123.900 80.300 V 74.300 C 123.900 74.245 123.855 74.200 123.800 74.200 H 120.900 C 120.800 74.200 120.900 74.300 120.900 74.200 V 67.800 C 120.900 67.745 120.855 67.700 120.800 67.700 H 70.800 C 70.745 67.700 70.700 67.745 70.700 67.800 V 74.200 C 70.700 74.300 70.800 74.200 70.700 74.200 H 67.800 C 67.745 74.200 67.700 74.245 67.700 74.300 V 80.300 C 67.700 80.355 67.745 80.400 67.800 80.400 H 70.700 C 70.800 80.400 70.700 80.300 70.700 80.400 V 86.200 C 70.700 86.300 70.800 86.200 70.700 86.200 H 67.800 C 67.745 86.200 67.700 86.245 67.700 86.300 V 92.300 C 67.700 92.355 67.745 92.400 67.800 92.400 H 70.700 C 70.800 92.400 70.700 92.300 70.700 92.400 V 98.200 C 70.700 98.300 70.800 98.200 70.700 98.200 H 67.800 C 67.745 98.200 67.700 98.245 67.700 98.300 V 104.300 C 67.700 104.355 67.745 104.400 67.800 104.400 H 70.700 C 70.800 104.400 70.700 104.300 70.700 104.400 V 110.200 C 70.700 110.300 70.800 110.200 70.700 110.200 H 67.800 C 67.745 110.200 67.700 110.245 67.700 110.300 V 116.300 C 67.700 116.355 67.745 116.400 67.800 116.400 H 70.700 C 70.800 116.400 70.700 116.300 70.700 116.400 V 122.200 C 70.700 122.300 70.800 122.200 70.700 122.200 H 67.800 C 67.745 122.200 67.700 122.245 67.700 122.300 V 128.300 C 67.700 128.355 67.745 128.400 67.800 128.400 H 70.700 C 70.800 128.400 70.700 128.300 70.700 128.400 V 134.200 C 70.700 134.300 70.800 134.200 70.700 134.200 H 67.800 C 67.745 134.200 67.700 134.245 67.700 134.300 V 140.300 C 67.700 140.355 67.745 140.400 67.800 140.400 H 70.700 C 70.800 140.400 70.700 140.300 70.700 140.400 V 146.200 C 70.700 146.300 70.800 146.200 70.700 146.200 H 67.800 C 67.745 146.200 67.700 146.245 67.700 146.300 V 152.300 C 67.700 152.355 67.745 152.400 67.800 152.400 H 70.700 C 70.800 152.400 70.700 152.300 70.700 152.400 V 158.200 C 70.700 158.300 70.800 158.200 70.700 158.200 H 67.800 C 67.745 158.200 67.700 158.245 67.700 158.300 V 164.300 C 67.700 164.355 67.745 164.400 67.800 164.400 H 70.700 C 70.800 164.400 70.700 164.300 70.700 164.400 V 170.800 C 70.700 170.855 70.745 170.900 70.800 170.900 Z" stroke="rgb(0,0,0)" stroke-width="0.20" />
  <text dominant-baseline="hanging" font-size="4px" style="font-family: sans-serif ; font-weight: normal; font-style: normal; fill: rgb(255,0,0)" text-anchor="middle" transform="matrix( 1.000 0.000 0.000 1.000 95.800 117.400 )">right side</text>
</g>
</svg>