<?xml version='1.0' encoding='utf-8'?>
<svg height="553.70mm" viewBox="0.0 0.0 292.90 553.70" width="292.90mm" xmlns="http://www.w3.org/2000/svg" xmlns:cc="http://creativecommons.org/ns#" xmlns:dc="http://purl.org/dc/elements/1.1/" xmlns:inkscape="http://www.inkscape.org/namespaces/inkscape" xmlns:rdf="http://www.w3.org/1999/02/22-rdf-syntax-ns#" xmlns:svg="http://www.w3.org/2000/svg" xmlns:xlink="http://www.w3.org/1999/xlink">
<!--
TypeTray - Type tray - allows only continuous walls

Created with Boxes.py (https://boxes.hackerspace-bamberg.de/)
Creation date: 2026-04-02 22:20:35
Command line (remove spaces between dashes): boxes TypeTray - -label_text= '- -sx=50*4' - -sy=50 - -outside=0 - -bottom_edge=F - -spacing=0.5
Url: https://boxes.hackerspace-bamberg.de/TypeTray?FingerJoint_style=rectangular&FingerJoint_surroundingspaces=0.5&FingerJoint_bottom_lip=0.0&FingerJoint_edge_width=1.0&FingerJoint_extra_length=0.0&FingerJoint_finger=2.0&FingerJoint_play=0.0&FingerJoint_space=2.0&FingerJoint_width=1.0&Stackable_angle=60&Stackable_bottom_stabilizers=0.0&Stackable_height=2.0&Stackable_holedistance=1.0&Stackable_width=4.0&Hinge_grip_percentage=0&Hinge_outset=0&Hinge_pinwidth=0.5&Hinge_axle=2.0&Hinge_grip_length=0&Hinge_hingestrength=1&CabinetHinge_bore=3.2&CabinetHinge_eyes_per_hinge=5&CabinetHinge_hinges=2&CabinetHinge_style=inside&CabinetHinge_eye=1.5&CabinetHinge_play=0.05&CabinetHinge_spacing=2.0&SlideOnLid_hole_width=0&SlideOnLid_second_pin=0&SlideOnLid_second_pin=1&SlideOnLid_spring=both&SlideOnLid_style=rectangular&SlideOnLid_surroundingspaces=2.0&SlideOnLid_bottom_lip=0.0&SlideOnLid_edge_width=1.0&SlideOnLid_extra_length=0.0&SlideOnLid_finger=3.0&SlideOnLid_play=0.05&SlideOnLid_space=2.0&SlideOnLid_width=1.0&Click_angle=5.0&Click_bottom_radius=0.1&Click_depth=3.0&RoundedTriangleEdge_height=50.0&RoundedTriangleEdge_r_hole=2.0&RoundedTriangleEdge_radius=30.0&RoundedTriangleEdge_outset=1.0&Mounting_d_head=6.5&Mounting_d_shaft=3.0&Mounting_margin=0.125&Mounting_num=2&Mounting_side=back&Mounting_style=straight+edge%2C+within&HandleEdge_height=20.0&HandleEdge_hole_height=75.0&HandleEdge_hole_width=40%3A40&HandleEdge_on_sides=0&HandleEdge_on_sides=1&HandleEdge_radius=10.0&HandleEdge_outset=1.0&Lid_handle=none&Lid_style=none&Lid_handle_height=8.0&Lid_height=4.0&Lid_play=0.1&text_size=12&text_alignment=left&text_distance_x=2.0&text_distance_y=2.0&text_at_front=0&label_text=&FingerHoleEdge_absolute_depth=0.0&FingerHoleEdge_absolute_width=0.0&FingerHoleEdge_radius=10.0&FingerHoleEdge_relative_depth=0.9&FingerHoleEdge_relative_width=0.3&sx=50*4&sy=50&h=100.0&hi=0.0&outside=0&bottom_edge=F&top_edge=e&back_height=0.0&radius=0.0&gripheight=30&gripwidth=0&handle=0&fingerholes=none&thickness=3.0&burn=0.1&format=svg&labels=0&labels=1&reference=100.0&tabs=0.0&qr_code=0&inner_corners=loop&spacing=0.5&debug=0&language=en&render=2
Url short: https://boxes.hackerspace-bamberg.de/TypeTray?label_text=&sx=50*4&sy=50&outside=0&bottom_edge=F&spacing=0.5
SettingsUrl: https://boxes.hackerspace-bamberg.de/TypeTray?FingerJoint_style=rectangular&FingerJoint_surroundingspaces=0.5&FingerJoint_bottom_lip=0.0&FingerJoint_edge_width=1.0&FingerJoint_extra_length=0.0&FingerJoint_finger=2.0&FingerJoint_play=0.0&FingerJoint_space=2.0&FingerJoint_width=1.0&Stackable_angle=60&Stackable_bottom_stabilizers=0.0&Stackable_height=2.0&Stackable_holedistance=1.0&Stackable_width=4.0&Hinge_grip_percentage=0&Hinge_outset=0&Hinge_pinwidth=0.5&Hinge_axle=2.0&Hinge_grip_length=0&Hinge_hingestrength=1&CabinetHinge_bore=3.2&CabinetHinge_eyes_per_hinge=5&CabinetHinge_hinges=2&CabinetHinge_style=inside&CabinetHinge_eye=1.5&CabinetHinge_play=0.05&CabinetHinge_spacing=2.0&SlideOnLid_hole_width=0&SlideOnLid_second_pin=0&SlideOnLid_second_pin=1&SlideOnLid_spring=both&SlideOnLid_style=rectangular&SlideOnLid_surroundingspaces=2.0&SlideOnLid_bottom_lip=0.0&SlideOnLid_edge_width=1.0&SlideOnLid_extra_length=0.0&SlideOnLid_finger=3.0&SlideOnLid_play=0.05&SlideOnLid_space=2.0&SlideOnLid_width=1.0&Click_angle=5.0&Click_bottom_radius=0.1&Click_depth=3.0&RoundedTriangleEdge_height=50.0&RoundedTriangleEdge_r_hole=2.0&RoundedTriangleEdge_radius=30.0&RoundedTriangleEdge_outset=1.0&Mounting_d_head=6.5&Mounting_d_shaft=3.0&Mounting_margin=0.125&Mounting_num=2&Mounting_side=back&Mounting_style=straight+edge%2C+within&HandleEdge_height=20.0&HandleEdge_hole_height=75.0&HandleEdge_hole_width=40%3A40&HandleEdge_on_sides=0&HandleEdge_on_sides=1&HandleEdge_radius=10.0&HandleEdge_outset=1.0&Lid_handle=none&Lid_style=none&Lid_handle_height=8.0&Lid_height=4.0&Lid_play=0.1&text_size=12&text_alignment=left&text_distance_x=2.0&text_distance_y=2.0&text_at_front=0&label_text=&FingerHoleEdge_absolute_depth=0.0&FingerHoleEdge_absolute_width=0.0&FingerHoleEdge_radius=10.0&FingerHoleEdge_relative_depth=0.9&FingerHoleEdge_relative_width=0.3&sx=50*4&sy=50&h=100.0&hi=0.0&outside=0&bottom_edge=F&top_edge=e&back_height=0.0&radius=0.0&gripheight=30&gripwidth=0&handle=0&fingerholes=none&thickness=3.0&burn=0.1&format=svg&labels=0&labels=1&reference=100.0&tabs=0.0&qr_code=0&inner_corners=loop&spacing=0.5&debug=0&language=en&render=2
SettingsUrl short: https://boxes.hackerspace-bamberg.de/TypeTray?label_text=&sx=50*4&sy=50&outside=0&bottom_edge=F&spacing=0.5
-->
<title>TypeTray</title>
<metadata>
<rdf:RDF><cc:Work>
<dc:title>Tray - TypeTray</dc:title>
<dc:date>2026-04-02 22:20:35</dc:date>
<dc:source>https://boxes.hackerspace-bamberg.de/TypeTray?FingerJoint_style=rectangular&amp;FingerJoint_surroundingspaces=0.5&amp;FingerJoint_bottom_lip=0.0&amp;FingerJoint_edge_width=1.0&amp;FingerJoint_extra_length=0.0&amp;FingerJoint_finger=2.0&amp;FingerJoint_play=0.0&amp;FingerJoint_space=2.0&amp;FingerJoint_width=1.0&amp;Stackable_angle=60&amp;Stackable_bottom_stabilizers=0.0&amp;Stackable_height=2.0&amp;Stackable_holedistance=1.0&amp;Stackable_width=4.0&amp;Hinge_grip_percentage=0&amp;Hinge_outset=0&amp;Hinge_pinwidth=0.5&amp;Hinge_axle=2.0&amp;Hinge_grip_length=0&amp;Hinge_hingestrength=1&amp;CabinetHinge_bore=3.2&amp;CabinetHinge_eyes_per_hinge=5&amp;CabinetHinge_hinges=2&amp;CabinetHinge_style=inside&amp;CabinetHinge_eye=1.5&amp;CabinetHinge_play=0.05&amp;CabinetHinge_spacing=2.0&amp;SlideOnLid_hole_width=0&amp;SlideOnLid_second_pin=0&amp;SlideOnLid_second_pin=1&amp;SlideOnLid_spring=both&amp;SlideOnLid_style=rectangular&amp;SlideOnLid_surroundingspaces=2.0&amp;SlideOnLid_bottom_lip=0.0&amp;SlideOnLid_edge_width=1.0&amp;SlideOnLid_extra_length=0.0&amp;SlideOnLid_finger=3.0&amp;SlideOnLid_play=0.05&amp;SlideOnLid_space=2.0&amp;SlideOnLid_width=1.0&amp;Click_angle=5.0&amp;Click_bottom_radius=0.1&amp;Click_depth=3.0&amp;RoundedTriangleEdge_height=50.0&amp;RoundedTriangleEdge_r_hole=2.0&amp;RoundedTriangleEdge_radius=30.0&amp;RoundedTriangleEdge_outset=1.0&amp;Mounting_d_head=6.5&amp;Mounting_d_shaft=3.0&amp;Mounting_margin=0.125&amp;Mounting_num=2&amp;Mounting_side=back&amp;Mounting_style=straight+edge%2C+within&amp;HandleEdge_height=20.0&amp;HandleEdge_hole_height=75.0&amp;HandleEdge_hole_width=40%3A40&amp;HandleEdge_on_sides=0&amp;HandleEdge_on_sides=1&amp;HandleEdge_radius=10.0&amp;HandleEdge_outset=1.0&amp;Lid_handle=none&amp;Lid_style=none&amp;Lid_handle_height=8.0&amp;Lid_height=4.0&amp;Lid_play=0.1&amp;text_size=12&amp;text_alignment=left&amp;text_distance_x=2.0&amp;text_distance_y=2.0&amp;text_at_front=0&amp;label_text=&amp;FingerHoleEdge_absolute_depth=0.0&amp;FingerHoleEdge_absolute_width=0.0&amp;FingerHoleEdge_radius=10.0&amp;FingerHoleEdge_relative_depth=0.9&amp;FingerHoleEdge_relative_width=0.3&amp;sx=50*4&amp;sy=50&amp;h=100.0&amp;hi=0.0&amp;outside=0&amp;bottom_edge=F&amp;top_edge=e&amp;back_height=0.0&amp;radius=0.0&amp;gripheight=30&amp;gripwidth=0&amp;handle=0&amp;fingerholes=none&amp;thickness=3.0&amp;burn=0.1&amp;format=svg&amp;labels=0&amp;labels=1&amp;reference=100.0&amp;tabs=0.0&amp;qr_code=0&amp;inner_corners=loop&amp;spacing=0.5&amp;debug=0&amp;language=en&amp;render=2</dc:source>
<dc:source>https://boxes.hackerspace-bamberg.de/TypeTray?label_text=&amp;sx=50*4&amp;sy=50&amp;outside=0&amp;bottom_edge=F&amp;spacing=0.5</dc:source>
<dc:description>Type tray - allows only continuous walls

Created with Boxes.py (https://boxes.hackerspace-bamberg.de/)
Command line: boxes TypeTray --FingerJoint_style=rectangular --FingerJoint_surroundingspaces=0.5 --FingerJoint_bottom_lip=0.0 --FingerJoint_edge_width=1.0 --FingerJoint_extra_length=0.0 --FingerJoint_finger=2.0 --FingerJoint_play=0.0 --FingerJoint_space=2.0 --FingerJoint_width=1.0 --Stackable_angle=60 --Stackable_bottom_stabilizers=0.0 --Stackable_height=2.0 --Stackable_holedistance=1.0 --Stackable_width=4.0 --Hinge_grip_percentage=0 --Hinge_outset=0 --Hinge_pinwidth=0.5 --Hinge_axle=2.0 --Hinge_grip_length=0 --Hinge_hingestrength=1 --CabinetHinge_bore=3.2 --CabinetHinge_eyes_per_hinge=5 --CabinetHinge_hinges=2 --CabinetHinge_style=inside --CabinetHinge_eye=1.5 --CabinetHinge_play=0.05 --CabinetHinge_spacing=2.0 --SlideOnLid_hole_width=0 --SlideOnLid_second_pin=0 --SlideOnLid_second_pin=1 --SlideOnLid_spring=both --SlideOnLid_style=rectangular --SlideOnLid_surroundingspaces=2.0 --SlideOnLid_bottom_lip=0.0 --SlideOnLid_edge_width=1.0 --SlideOnLid_extra_length=0.0 --SlideOnLid_finger=3.0 --SlideOnLid_play=0.05 --SlideOnLid_space=2.0 --SlideOnLid_width=1.0 --Click_angle=5.0 --Click_bottom_radius=0.1 --Click_depth=3.0 --RoundedTriangleEdge_height=50.0 --RoundedTriangleEdge_r_hole=2.0 --RoundedTriangleEdge_radius=30.0 --RoundedTriangleEdge_outset=1.0 --Mounting_d_head=6.5 --Mounting_d_shaft=3.0 --Mounting_margin=0.125 --Mounting_num=2 --Mounting_side=back '--Mounting_style=straight edge, within' --HandleEdge_height=20.0 --HandleEdge_hole_height=75.0 --HandleEdge_hole_width=40:40 --HandleEdge_on_sides=0 --HandleEdge_on_sides=1 --HandleEdge_radius=10.0 --HandleEdge_outset=1.0 --Lid_handle=none --Lid_style=none --Lid_handle_height=8.0 --Lid_height=4.0 --Lid_play=0.1 --text_size=12 --text_alignment=left --text_distance_x=2.0 --text_distance_y=2.0 --text_at_front=0 --label_text= --FingerHoleEdge_absolute_depth=0.0 --FingerHoleEdge_absolute_width=0.0 --FingerHoleEdge_radius=10.0 --FingerHoleEdge_relative_depth=0.9 --FingerHoleEdge_relative_width=0.3 '--sx=50*4' --sy=50 --h=100.0 --hi=0.0 --outside=0 --bottom_edge=F --top_edge=e --back_height=0.0 --radius=0.0 --gripheight=30 --gripwidth=0 --handle=0 --fingerholes=none --thickness=3.0 --burn=0.1 --format=svg --labels=0 --labels=1 --reference=100.0 --tabs=0.0 --qr_code=0 --inner_corners=loop --spacing=0.5 --debug=0
Command line short: boxes TypeTray --label_text= '--sx=50*4' --sy=50 --outside=0 --bottom_edge=F --spacing=0.5
Url: https://boxes.hackerspace-bamberg.de/TypeTray?FingerJoint_style=rectangular&amp;FingerJoint_surroundingspaces=0.5&amp;FingerJoint_bottom_lip=0.0&amp;FingerJoint_edge_width=1.0&amp;FingerJoint_extra_length=0.0&amp;FingerJoint_finger=2.0&amp;FingerJoint_play=0.0&amp;FingerJoint_space=2.0&amp;FingerJoint_width=1.0&amp;Stackable_angle=60&amp;Stackable_bottom_stabilizers=0.0&amp;Stackable_height=2.0&amp;Stackable_holedistance=1.0&amp;Stackable_width=4.0&amp;Hinge_grip_percentage=0&amp;Hinge_outset=0&amp;Hinge_pinwidth=0.5&amp;Hinge_axle=2.0&amp;Hinge_grip_length=0&amp;Hinge_hingestrength=1&amp;CabinetHinge_bore=3.2&amp;CabinetHinge_eyes_per_hinge=5&amp;CabinetHinge_hinges=2&amp;CabinetHinge_style=inside&amp;CabinetHinge_eye=1.5&amp;CabinetHinge_play=0.05&amp;CabinetHinge_spacing=2.0&amp;SlideOnLid_hole_width=0&amp;SlideOnLid_second_pin=0&amp;SlideOnLid_second_pin=1&amp;SlideOnLid_spring=both&amp;SlideOnLid_style=rectangular&amp;SlideOnLid_surroundingspaces=2.0&amp;SlideOnLid_bottom_lip=0.0&amp;SlideOnLid_edge_width=1.0&amp;SlideOnLid_extra_length=0.0&amp;SlideOnLid_finger=3.0&amp;SlideOnLid_play=0.05&amp;SlideOnLid_space=2.0&amp;SlideOnLid_width=1.0&amp;Click_angle=5.0&amp;Click_bottom_radius=0.1&amp;Click_depth=3.0&amp;RoundedTriangleEdge_height=50.0&amp;RoundedTriangleEdge_r_hole=2.0&amp;RoundedTriangleEdge_radius=30.0&amp;RoundedTriangleEdge_outset=1.0&amp;Mounting_d_head=6.5&amp;Mounting_d_shaft=3.0&amp;Mounting_margin=0.125&amp;Mounting_num=2&amp;Mounting_side=back&amp;Mounting_style=straight+edge%2C+within&amp;HandleEdge_height=20.0&amp;HandleEdge_hole_height=75.0&amp;HandleEdge_hole_width=40%3A40&amp;HandleEdge_on_sides=0&amp;HandleEdge_on_sides=1&amp;HandleEdge_radius=10.0&amp;HandleEdge_outset=1.0&amp;Lid_handle=none&amp;Lid_style=none&amp;Lid_handle_height=8.0&amp;Lid_height=4.0&amp;Lid_play=0.1&amp;text_size=12&amp;text_alignment=left&amp;text_distance_x=2.0&amp;text_distance_y=2.0&amp;text_at_front=0&amp;label_text=&amp;FingerHoleEdge_absolute_depth=0.0&amp;FingerHoleEdge_absolute_width=0.0&amp;FingerHoleEdge_radius=10.0&amp;FingerHoleEdge_relative_depth=0.9&amp;FingerHoleEdge_relative_width=0.3&amp;sx=50*4&amp;sy=50&amp;h=100.0&amp;hi=0.0&amp;outside=0&amp;bottom_edge=F&amp;top_edge=e&amp;back_height=0.0&amp;radius=0.0&amp;gripheight=30&amp;gripwidth=0&amp;handle=0&amp;fingerholes=none&amp;thickness=3.0&amp;burn=0.1&amp;format=svg&amp;labels=0&amp;labels=1&amp;reference=100.0&amp;tabs=0.0&amp;qr_code=0&amp;inner_corners=loop&amp;spacing=0.5&amp;debug=0&amp;language=en&amp;render=2
Url short: https://boxes.hackerspace-bamberg.de/TypeTray?label_text=&amp;sx=50*4&amp;sy=50&amp;outside=0&amp;bottom_edge=F&amp;spacing=0.5
SettingsUrl: https://boxes.hackerspace-bamberg.de/TypeTray?FingerJoint_style=rectangular&amp;FingerJoint_surroundingspaces=0.5&amp;FingerJoint_bottom_lip=0.0&amp;FingerJoint_edge_width=1.0&amp;FingerJoint_extra_length=0.0&amp;FingerJoint_finger=2.0&amp;FingerJoint_play=0.0&amp;FingerJoint_space=2.0&amp;FingerJoint_width=1.0&amp;Stackable_angle=60&amp;Stackable_bottom_stabilizers=0.0&amp;Stackable_height=2.0&amp;Stackable_holedistance=1.0&amp;Stackable_width=4.0&amp;Hinge_grip_percentage=0&amp;Hinge_outset=0&amp;Hinge_pinwidth=0.5&amp;Hinge_axle=2.0&amp;Hinge_grip_length=0&amp;Hinge_hingestrength=1&amp;CabinetHinge_bore=3.2&amp;CabinetHinge_eyes_per_hinge=5&amp;CabinetHinge_hinges=2&amp;CabinetHinge_style=inside&amp;CabinetHinge_eye=1.5&amp;CabinetHinge_play=0.05&amp;CabinetHinge_spacing=2.0&amp;SlideOnLid_hole_width=0&amp;SlideOnLid_second_pin=0&amp;SlideOnLid_second_pin=1&amp;SlideOnLid_spring=both&amp;SlideOnLid_style=rectangular&amp;SlideOnLid_surroundingspaces=2.0&amp;SlideOnLid_bottom_lip=0.0&amp;SlideOnLid_edge_width=1.0&amp;SlideOnLid_extra_length=0.0&amp;SlideOnLid_finger=3.0&amp;SlideOnLid_play=0.05&amp;SlideOnLid_space=2.0&amp;SlideOnLid_width=1.0&amp;Click_angle=5.0&amp;Click_bottom_radius=0.1&amp;Click_depth=3.0&amp;RoundedTriangleEdge_height=50.0&amp;RoundedTriangleEdge_r_hole=2.0&amp;RoundedTriangleEdge_radius=30.0&amp;RoundedTriangleEdge_outset=1.0&amp;Mounting_d_head=6.5&amp;Mounting_d_shaft=3.0&amp;Mounting_margin=0.125&amp;Mounting_num=2&amp;Mounting_side=back&amp;Mounting_style=straight+edge%2C+within&amp;HandleEdge_height=20.0&amp;HandleEdge_hole_height=75.0&amp;HandleEdge_hole_width=40%3A40&amp;HandleEdge_on_sides=0&amp;HandleEdge_on_sides=1&amp;HandleEdge_radius=10.0&amp;HandleEdge_outset=1.0&amp;Lid_handle=none&amp;Lid_style=none&amp;Lid_handle_height=8.0&amp;Lid_height=4.0&amp;Lid_play=0.1&amp;text_size=12&amp;text_alignment=left&amp;text_distance_x=2.0&amp;text_distance_y=2.0&amp;text_at_front=0&amp;label_text=&amp;FingerHoleEdge_absolute_depth=0.0&amp;FingerHoleEdge_absolute_width=0.0&amp;FingerHoleEdge_radius=10.0&amp;FingerHoleEdge_relative_depth=0.9&amp;FingerHoleEdge_relative_width=0.3&amp;sx=50*4&amp;sy=50&amp;h=100.0&amp;hi=0.0&amp;outside=0&amp;bottom_edge=F&amp;top_edge=e&amp;back_height=0.0&amp;radius=0.0&amp;gripheight=30&amp;gripwidth=0&amp;handle=0&amp;fingerholes=none&amp;thickness=3.0&amp;burn=0.1&amp;format=svg&amp;labels=0&amp;labels=1&amp;reference=100.0&amp;tabs=0.0&amp;qr_code=0&amp;inner_corners=loop&amp;spacing=0.5&amp;debug=0&amp;language=en&amp;render=2
SettingsUrl short: https://boxes.hackerspace-bamberg.de/TypeTray?label_text=&amp;sx=50*4&amp;sy=50&amp;outside=0&amp;bottom_edge=F&amp;spacing=0.5
</dc:description>
</cc:Work></rdf:RDF></metadata>
<g id="p-0" style="fill:none;stroke-linecap:round;stroke-linejoin:round;">
  <path d="M 10.100 543.700 H 110.100 V 533.700 H 10.100 V 543.700 Z" stroke="rgb(0,0,0)" stroke-width="0.20" />
  <text dominant-baseline="hanging" font-size="6px" style="font-family: sans-serif ; font-weight: normal; font-style: normal; fill: rgb(255,0,0)" text-anchor="middle" transform="matrix( 1.000 0.000 0.000 1.000 60.100 535.700 )">100.0mm, burn:0.10mm</text>
</g>
<g id="p-1" style="fill:none;stroke-linecap:round;stroke-linejoin:round;">
  <path d="M 66.000 521.900 V 524.800 C 66.000 524.900 66.100 524.800 66.000 524.800 H 63.200 C 63.100 524.800 63.200 524.900 63.200 524.800 V 519.000 C 63.200 518.900 63.100 519.000 63.200 519.000 H 66.000 C 66.100 519.000 66.000 518.900 66.000 519.000 V 521.900 Z" stroke="rgb(0,0,255)" stroke-width="0.20" />
  <path d="M 66.000 509.900 V 512.800 C 66.000 512.900 66.100 512.800 66.000 512.800 H 63.200 C 63.100 512.800 63.200 512.900 63.200 512.800 V 507.000 C 63.200 506.900 63.100 507.000 63.200 507.000 H 66.000 C 66.100 507.000 66.000 506.900 66.000 507.000 V 509.900 Z" stroke="rgb(0,0,255)" stroke-width="0.20" />
  <path d="M 66.000 497.900 V 500.800 C 66.000 500.900 66.100 500.800 66.000 500.800 H 63.200 C 63.100 500.800 63.200 500.900 63.200 500.800 V 495.000 C 63.200 494.900 63.100 495.000 63.200 495.000 H 66.000 C 66.100 495.000 66.000 494.900 66.000 495.000 V 497.900 Z" stroke="rgb(0,0,255)" stroke-width="0.20" />
  <path d="M 66.000 485.900 V 488.800 C 66.000 488.900 66.100 488.800 66.000 488.800 H 63.200 C 63.100 488.800 63.200 488.900 63.200 488.800 V 483.000 C 63.200 482.900 63.100 483.000 63.200 483.000 H 66.000 C 66.100 483.000 66.000 482.900 66.000 483.000 V 485.900 Z" stroke="rgb(0,0,255)" stroke-width="0.20" />
  <path d="M 119.000 521.900 V 524.800 C 119.000 524.900 119.100 524.800 119.000 524.800 H 116.200 C 116.100 524.800 116.200 524.900 116.200 524.800 V 519.000 C 116.200 518.900 116.100 519.000 116.200 519.000 H 119.000 C 119.100 519.000 119.000 518.900 119.000 519.000 V 521.900 Z" stroke="rgb(0,0,255)" stroke-width="0.20" />
  <path d="M 119.000 509.900 V 512.800 C 119.000 512.900 119.100 512.800 119.000 512.800 H 116.200 C 116.100 512.800 116.200 512.900 116.200 512.800 V 507.000 C 116.200 506.900 116.100 507.000 116.200 507.000 H 119.000 C 119.100 507.000 119.000 506.900 119.000 507.000 V 509.900 Z" stroke="rgb(0,0,255)" stroke-width="0.20" />
  <path d="M 119.000 497.900 V 500.800 C 119.000 500.900 119.100 500.800 119.000 500.800 H 116.200 C 116.100 500.800 116.200 500.900 116.200 500.800 V 495.000 C 116.200 494.900 116.100 495.000 116.200 495.000 H 119.000 C 119.100 495.000 119.000 494.900 119.000 495.000 V 497.900 Z" stroke="rgb(0,0,255)" stroke-width="0.20" />
  <path d="M 119.000 485.900 V 488.800 C 119.000 488.900 119.100 488.800 119.000 488.800 H 116.200 C 116.100 488.800 116.200 488.900 116.200 488.800 V 483.000 C 116.200 482.900 116.100 483.000 116.200 483.000 H 119.000 C 119.100 483.000 119.000 482.900 119.000 483.000 V 485.900 Z" stroke="rgb(0,0,255)" stroke-width="0.20" />
  <path d="M 172.000 521.900 V 524.800 C 172.000 524.900 172.100 524.800 172.000 524.800 H 169.200 C 169.100 524.800 169.200 524.900 169.200 524.800 V 519.000 C 169.200 518.900 169.100 519.000 169.200 519.000 H 172.000 C 172.100 519.000 172.000 518.900 172.000 519.000 V 521.900 Z" stroke="rgb(0,0,255)" stroke-width="0.20" />
  <path d="M 172.000 509.900 V 512.800 C 172.000 512.900 172.100 512.800 172.000 512.800 H 169.200 C 169.100 512.800 169.200 512.900 169.200 512.800 V 507.000 C 169.200 506.900 169.100 507.000 169.200 507.000 H 172.000 C 172.100 507.000 172.000 506.900 172.000 507.000 V 509.900 Z" stroke="rgb(0,0,255)" stroke-width="0.20" />
  <path d="M 172.000 497.900 V 500.800 C 172.000 500.900 172.100 500.800 172.000 500.800 H 169.200 C 169.100 500.800 169.200 500.900 169.200 500.800 V 495.000 C 169.200 494.900 169.100 495.000 169.200 495.000 H 172.000 C 172.100 495.000 172.000 494.900 172.000 495.000 V 497.900 Z" stroke="rgb(0,0,255)" stroke-width="0.20" />
  <path d="M 172.000 485.900 V 488.800 C 172.000 488.900 172.100 488.800 172.000 488.800 H 169.200 C 169.100 488.800 169.200 488.900 169.200 488.800 V 483.000 C 169.200 482.900 169.100 483.000 169.200 483.000 H 172.000 C 172.100 483.000 172.000 482.900 172.000 483.000 V 485.900 Z" stroke="rgb(0,0,255)" stroke-width="0.20" />
  <path d="M 13.100 529.000 H 18.500 C 18.600 529.000 18.500 528.900 18.500 529.000 V 531.900 C 18.500 531.955 18.545 532.000 18.600 532.000 H 24.600 C 24.655 532.000 24.700 531.955 24.700 531.900 V 529.000 C 24.700 528.900 24.600 529.000 24.700 529.000 H 30.500 C 30.600 529.000 30.500 528.900 30.500 529.000 V 531.900 C 30.500 531.955 30.545 532.000 30.600 532.000 H 36.600 C 36.655 532.000 36.700 531.955 36.700 531.900 V 529.000 C 36.700 528.900 36.600 529.000 36.700 529.000 H 42.500 C 42.600 529.000 42.500 528.900 42.500 529.000 V 531.900 C 42.500 531.955 42.545 532.000 42.600 532.000 H 48.600 C 48.655 532.000 48.700 531.955 48.700 531.900 V 529.000 C 48.700 528.900 48.600 529.000 48.700 529.000 H 54.500 C 54.600 529.000 54.500 528.900 54.500 529.000 V 531.900 C 54.500 531.955 54.545 532.000 54.600 532.000 H 60.600 C 60.655 532.000 60.700 531.955 60.700 531.900 V 529.000 C 60.700 528.900 60.600 529.000 60.700 529.000 H 66.500 C 66.600 529.000 66.500 528.900 66.500 529.000 V 531.900 C 66.500 531.955 66.545 532.000 66.600 532.000 H 72.600 C 72.655 532.000 72.700 531.955 72.700 531.900 V 529.000 C 72.700 528.900 72.600 529.000 72.700 529.000 H 78.500 C 78.600 529.000 78.500 528.900 78.500 529.000 V 531.900 C 78.500 531.955 78.545 532.000 78.600 532.000 H 84.600 C 84.655 532.000 84.700 531.955 84.700 531.900 V 529.000 C 84.700 528.900 84.600 529.000 84.700 529.000 H 90.500 C 90.600 529.000 90.500 528.900 90.500 529.000 V 531.900 C 90.500 531.955 90.545 532.000 90.600 532.000 H 96.600 C 96.655 532.000 96.700 531.955 96.700 531.900 V 529.000 C 96.700 528.900 96.600 529.000 96.700 529.000 H 102.500 C 102.600 529.000 102.500 528.900 102.500 529.000 V 531.900 C 102.500 531.955 102.545 532.000 102.600 532.000 H 108.600 C 108.655 532.000 108.700 531.955 108.700 531.900 V 529.000 C 108.700 528.900 108.600 529.000 108.700 529.000 H 114.500 C 114.600 529.000 114.500 528.900 114.500 529.000 V 531.900 C 114.500 531.955 114.545 532.000 114.600 532.000 H 120.600 C 120.655 532.000 120.700 531.955 120.700 531.900 V 529.000 C 120.700 528.900 120.600 529.000 120.700 529.000 H 126.500 C 126.600 529.000 126.500 528.900 126.500 529.000 V 531.900 C 126.500 531.955 126.545 532.000 126.600 532.000 H 132.600 C 132.655 532.000 132.700 531.955 132.700 531.900 V 529.000 C 132.700 528.900 132.600 529.000 132.700 529.000 H 138.500 C 138.600 529.000 138.500 528.900 138.500 529.000 V 531.900 C 138.500 531.955 138.545 532.000 138.600 532.000 H 144.600 C 144.655 532.000 144.700 531.955 144.700 531.900 V 529.000 C 144.700 528.900 144.600 529.000 144.700 529.000 H 150.500 C 150.600 529.000 150.500 528.900 150.500 529.000 V 531.900 C 150.500 531.955 150.545 532.000 150.600 532.000 H 156.600 C 156.655 532.000 156.700 531.955 156.700 531.900 V 529.000 C 156.700 528.900 156.600 529.000 156.700 529.000 H 162.500 C 162.600 529.000 162.500 528.900 162.500 529.000 V 531.900 C 162.500 531.955 162.545 532.000 162.600 532.000 H 168.600 C 168.655 532.000 168.700 531.955 168.700 531.900 V 529.000 C 168.700 528.900 168.600 529.000 168.700 529.000 H 174.500 C 174.600 529.000 174.500 528.900 174.500 529.000 V 531.900 C 174.500 531.955 174.545 532.000 174.600 532.000 H 180.600 C 180.655 532.000 180.700 531.955 180.700 531.900 V 529.000 C 180.700 528.900 180.600 529.000 180.700 529.000 H 186.500 C 186.600 529.000 186.500 528.900 186.500 529.000 V 531.900 C 186.500 531.955 186.545 532.000 186.600 532.000 H 192.600 C 192.655 532.000 192.700 531.955 192.700 531.900 V 529.000 C 192.700 528.900 192.600 529.000 192.700 529.000 H 198.500 C 198.600 529.000 198.500 528.900 198.500 529.000 V 531.900 C 198.500 531.955 198.545 532.000 198.600 532.000 H 204.600 C 204.655 532.000 204.700 531.955 204.700 531.900 V 529.000 C 204.700 528.900 204.600 529.000 204.700 529.000 H 210.500 C 210.600 529.000 210.500 528.900 210.500 529.000 V 531.900 C 210.500 531.955 210.545 532.000 210.600 532.000 H 216.600 C 216.655 532.000 216.700 531.955 216.700 531.900 V 529.000 C 216.700 528.900 216.600 529.000 216.700 529.000 H 222.100 C 222.155 529.000 222.200 528.955 222.200 528.900 V 525.000 C 222.200 524.900 222.100 525.000 222.200 525.000 H 225.100 C 225.155 525.000 225.200 524.955 225.200 524.900 V 518.900 C 225.200 518.845 225.155 518.800 225.100 518.800 H 222.200 C 222.100 518.800 222.200 518.900 222.200 518.800 V 513.000 C 222.200 512.900 222.100 513.000 222.200 513.000 H 225.100 C 225.155 513.000 225.200 512.955 225.200 512.900 V 506.900 C 225.200 506.845 225.155 506.800 225.100 506.800 H 222.200 C 222.100 506.800 222.200 506.900 222.200 506.800 V 501.000 C 222.200 500.900 222.100 501.000 222.200 501.000 H 225.100 C 225.155 501.000 225.200 500.955 225.200 500.900 V 494.900 C 225.200 494.845 225.155 494.800 225.100 494.800 H 222.200 C 222.100 494.800 222.200 494.900 222.200 494.800 V 489.000 C 222.200 488.900 222.100 489.000 222.200 489.000 H 225.100 C 225.155 489.000 225.200 488.955 225.200 488.900 V 482.900 C 225.200 482.845 225.155 482.800 225.100 482.800 H 222.200 C 222.100 482.800 222.200 482.900 222.200 482.800 V 478.900 C 222.200 478.845 222.155 478.800 222.100 478.800 H 216.700 C 216.600 478.800 216.700 478.900 216.700 478.800 V 475.900 C 216.700 475.845 216.655 475.800 216.600 475.800 H 210.600 C 210.545 475.800 210.500 475.845 210.500 475.900 V 478.800 C 210.500 478.900 210.600 478.800 210.500 478.800 H 204.700 C 204.600 478.800 204.700 478.900 204.700 478.800 V 475.900 C 204.700 475.845 204.655 475.800 204.600 475.800 H 198.600 C 198.545 475.800 198.500 475.845 198.500 475.900 V 478.800 C 198.500 478.900 198.600 478.800 198.500 478.800 H 192.700 C 192.600 478.800 192.700 478.900 192.700 478.800 V 475.900 C 192.700 475.845 192.655 475.800 192.600 475.800 H 186.600 C 186.545 475.800 186.500 475.845 186.500 475.900 V 478.800 C 186.500 478.900 186.600 478.800 186.500 478.800 H 180.700 C 180.600 478.800 180.700 478.900 180.700 478.800 V 475.900 C 180.700 475.845 180.655 475.800 180.600 475.800 H 174.600 C 174.545 475.800 174.500 475.845 174.500 475.900 V 478.800 C 174.500 478.900 174.600 478.800 174.500 478.800 H 168.700 C 168.600 478.800 168.700 478.900 168.700 478.800 V 475.900 C 168.700 475.845 168.655 475.800 168.600 475.800 H 162.600 C 162.545 475.800 162.500 475.845 162.500 475.900 V 478.800 C 162.500 478.900 162.600 478.800 162.500 478.800 H 156.700 C 156.600 478.800 156.700 478.900 156.700 478.800 V 475.900 C 156.700 475.845 156.655 475.800 156.600 475.800 H 150.600 C 150.545 475.800 150.500 475.845 150.500 475.900 V 478.800 C 150.500 478.900 150.600 478.800 150.500 478.800 H 144.700 C 144.600 478.800 144.700 478.900 144.700 478.800 V 475.900 C 144.700 475.845 144.655 475.800 144.600 475.800 H 138.600 C 138.545 475.800 138.500 475.845 138.500 475.900 V 478.800 C 138.500 478.900 138.600 478.800 138.500 478.800 H 132.700 C 132.600 478.800 132.700 478.900 132.700 478.800 V 475.900 C 132.700 475.845 132.655 475.800 132.600 475.800 H 126.600 C 126.545 475.800 126.500 475.845 126.500 475.900 V 478.800 C 126.500 478.900 126.600 478.800 126.500 478.800 H 120.700 C 120.600 478.800 120.700 478.900 120.700 478.800 V 475.900 C 120.700 475.845 120.655 475.800 120.600 475.800 H 114.600 C 114.545 475.800 114.500 475.845 114.500 475.900 V 478.800 C 114.500 478.900 114.600 478.800 114.500 478.800 H 108.700 C 108.600 478.800 108.700 478.900 108.700 478.800 V 475.900 C 108.700 475.845 108.655 475.800 108.600 475.800 H 102.600 C 102.545 475.800 102.500 475.845 102.500 475.900 V 478.800 C 102.500 478.900 102.600 478.800 102.500 478.800 H 96.700 C 96.600 478.800 96.700 478.900 96.700 478.800 V 475.900 C 96.700 475.845 96.655 475.800 96.600 475.800 H 90.600 C 90.545 475.800 90.500 475.845 90.500 475.900 V 478.800 C 90.500 478.900 90.600 478.800 90.500 478.800 H 84.700 C 84.600 478.800 84.700 478.900 84.700 478.800 V 475.900 C 84.700 475.845 84.655 475.800 84.600 475.800 H 78.600 C 78.545 475.800 78.500 475.845 78.500 475.900 V 478.800 C 78.500 478.900 78.600 478.800 78.500 478.800 H 72.700 C 72.600 478.800 72.700 478.900 72.700 478.800 V 475.900 C 72.700 475.845 72.655 475.800 72.600 475.800 H 66.600 C 66.545 475.800 66.500 475.845 66.500 475.900 V 478.800 C 66.500 478.900 66.600 478.800 66.500 478.800 H 60.700 C 60.600 478.800 60.700 478.900 60.700 478.800 V 475.900 C 60.700 475.845 60.655 475.800 60.600 475.800 H 54.600 C 54.545 475.800 54.500 475.845 54.500 475.900 V 478.800 C 54.500 478.900 54.600 478.800 54.500 478.800 H 48.700 C 48.600 478.800 48.700 478.900 48.700 478.800 V 475.900 C 48.700 475.845 48.655 475.800 48.600 475.800 H 42.600 C 42.545 475.800 42.500 475.845 42.500 475.900 V 478.800 C 42.500 478.900 42.600 478.800 42.500 478.800 H 36.700 C 36.600 478.800 36.700 478.900 36.700 478.800 V 475.900 C 36.700 475.845 36.655 475.800 36.600 475.800 H 30.600 C 30.545 475.800 30.500 475.845 30.500 475.900 V 478.800 C 30.500 478.900 30.600 478.800 30.500 478.800 H 24.700 C 24.600 478.800 24.700 478.900 24.700 478.800 V 475.900 C 24.700 475.845 24.655 475.800 24.600 475.800 H 18.600 C 18.545 475.800 18.500 475.845 18.500 475.900 V 478.800 C 18.500 478.900 18.600 478.800 18.500 478.800 H 13.100 C 13.045 478.800 13.000 478.845 13.000 478.900 V 482.800 C 13.000 482.900 13.100 482.800 13.000 482.800 H 10.100 C 10.045 482.800 10.000 482.845 10.000 482.900 V 488.900 C 10.000 488.955 10.045 489.000 10.100 489.000 H 13.000 C 13.100 489.000 13.000 488.900 13.000 489.000 V 494.800 C 13.000 494.900 13.100 494.800 13.000 494.800 H 10.100 C 10.045 494.800 10.000 494.845 10.000 494.900 V 500.900 C 10.000 500.955 10.045 501.000 10.100 501.000 H 13.000 C 13.100 501.000 13.000 500.900 13.000 501.000 V 506.800 C 13.000 506.900 13.100 506.800 13.000 506.800 H 10.100 C 10.045 506.800 10.000 506.845 10.000 506.900 V 512.900 C 10.000 512.955 10.045 513.000 10.100 513.000 H 13.000 C 13.100 513.000 13.000 512.900 13.000 513.000 V 518.800 C 13.000 518.900 13.100 518.800 13.000 518.800 H 10.100 C 10.045 518.800 10.000 518.845 10.000 518.900 V 524.900 C 10.000 524.955 10.045 525.000 10.100 525.000 H 13.000 C 13.100 525.000 13.000 524.900 13.000 525.000 V 528.900 C 13.000 528.955 13.045 529.000 13.100 529.000 Z" stroke="rgb(0,0,0)" stroke-width="0.20" />
  <text dominant-baseline="hanging" font-size="4px" style="font-family: sans-serif ; font-weight: normal; font-style: normal; fill: rgb(255,0,0)" text-anchor="middle" transform="matrix( 1.000 0.000 0.000 1.000 117.600 502.000 )">bottom</text>
</g>
<g id="p-2" style="fill:none;stroke-linecap:round;stroke-linejoin:round;">
  <path d="M 66.000 463.200 V 466.100 C 66.000 466.200 66.100 466.100 66.000 466.100 H 63.200 C 63.100 466.100 63.200 466.200 63.200 466.100 V 460.300 C 63.200 460.200 63.100 460.300 63.200 460.300 H 66.000 C 66.100 460.300 66.000 460.200 66.000 460.300 V 463.200 Z" stroke="rgb(0,0,255)" stroke-width="0.20" />
  <path d="M 66.000 451.200 V 454.100 C 66.000 454.200 66.100 454.100 66.000 454.100 H 63.200 C 63.100 454.100 63.200 454.200 63.200 454.100 V 448.300 C 63.200 448.200 63.100 448.300 63.200 448.300 H 66.000 C 66.100 448.300 66.000 448.200 66.000 448.300 V 451.200 Z" stroke="rgb(0,0,255)" stroke-width="0.20" />
  <path d="M 66.000 439.200 V 442.100 C 66.000 442.200 66.100 442.100 66.000 442.100 H 63.200 C 63.100 442.100 63.200 442.200 63.200 442.100 V 436.300 C 63.200 436.200 63.100 436.300 63.200 436.300 H 66.000 C 66.100 436.300 66.000 436.200 66.000 436.300 V 439.200 Z" stroke="rgb(0,0,255)" stroke-width="0.20" />
  <path d="M 66.000 427.200 V 430.100 C 66.000 430.200 66.100 430.100 66.000 430.100 H 63.200 C 63.100 430.100 63.200 430.200 63.200 430.100 V 424.300 C 63.200 424.200 63.100 424.300 63.200 424.300 H 66.000 C 66.100 424.300 66.000 424.200 66.000 424.300 V 427.200 Z" stroke="rgb(0,0,255)" stroke-width="0.20" />
  <path d="M 66.000 415.200 V 418.100 C 66.000 418.200 66.100 418.100 66.000 418.100 H 63.200 C 63.100 418.100 63.200 418.200 63.200 418.100 V 412.300 C 63.200 412.200 63.100 412.300 63.200 412.300 H 66.000 C 66.100 412.300 66.000 412.200 66.000 412.300 V 415.200 Z" stroke="rgb(0,0,255)" stroke-width="0.20" />
  <path d="M 66.000 403.200 V 406.100 C 66.000 406.200 66.100 406.100 66.000 406.100 H 63.200 C 63.100 406.100 63.200 406.200 63.200 406.100 V 400.300 C 63.200 400.200 63.100 400.300 63.200 400.300 H 66.000 C 66.100 400.300 66.000 400.200 66.000 400.300 V 403.200 Z" stroke="rgb(0,0,255)" stroke-width="0.20" />
  <path d="M 66.000 391.200 V 394.100 C 66.000 394.200 66.100 394.100 66.000 394.100 H 63.200 C 63.100 394.100 63.200 394.200 63.200 394.100 V 388.300 C 63.200 388.200 63.100 388.300 63.200 388.300 H 66.000 C 66.100 388.300 66.000 388.200 66.000 388.300 V 391.200 Z" stroke="rgb(0,0,255)" stroke-width="0.20" />
  <path d="M 66.000 379.200 V 382.100 C 66.000 382.200 66.100 382.100 66.000 382.100 H 63.200 C 63.100 382.100 63.200 382.200 63.200 382.100 V 376.300 C 63.200 376.200 63.100 376.300 63.200 376.300 H 66.000 C 66.100 376.300 66.000 376.200 66.000 376.300 V 379.200 Z" stroke="rgb(0,0,255)" stroke-width="0.20" />
  <path d="M 119.000 463.200 V 466.100 C 119.000 466.200 119.100 466.100 119.000 466.100 H 116.200 C 116.100 466.100 116.200 466.200 116.200 466.100 V 460.300 C 116.200 460.200 116.100 460.300 116.200 460.300 H 119.000 C 119.100 460.300 119.000 460.200 119.000 460.300 V 463.200 Z" stroke="rgb(0,0,255)" stroke-width="0.20" />
  <path d="M 119.000 451.200 V 454.100 C 119.000 454.200 119.100 454.100 119.000 454.100 H 116.200 C 116.100 454.100 116.200 454.200 116.200 454.100 V 448.300 C 116.200 448.200 116.100 448.300 116.200 448.300 H 119.000 C 119.100 448.300 119.000 448.200 119.000 448.300 V 451.200 Z" stroke="rgb(0,0,255)" stroke-width="0.20" />
  <path d="M 119.000 439.200 V 442.100 C 119.000 442.200 119.100 442.100 119.000 442.100 H 116.200 C 116.100 442.100 116.200 442.200 116.200 442.100 V 436.300 C 116.200 436.200 116.100 436.300 116.200 436.300 H 119.000 C 119.100 436.300 119.000 436.200 119.000 436.300 V 439.200 Z" stroke="rgb(0,0,255)" stroke-width="0.20" />
  <path d="M 119.000 427.200 V 430.100 C 119.000 430.200 119.100 430.100 119.000 430.100 H 116.200 C 116.100 430.100 116.200 430.200 116.200 430.100 V 424.300 C 116.200 424.200 116.100 424.300 116.200 424.300 H 119.000 C 119.100 424.300 119.000 424.200 119.000 424.300 V 427.200 Z" stroke="rgb(0,0,255)" stroke-width="0.20" />
  <path d="M 119.000 415.200 V 418.100 C 119.000 418.200 119.100 418.100 119.000 418.100 H 116.200 C 116.100 418.100 116.200 418.200 116.200 418.100 V 412.300 C 116.200 412.200 116.100 412.300 116.200 412.300 H 119.000 C 119.100 412.300 119.000 412.200 119.000 412.300 V 415.200 Z" stroke="rgb(0,0,255)" stroke-width="0.20" />
  <path d="M 119.000 403.200 V 406.100 C 119.000 406.200 119.100 406.100 119.000 406.100 H 116.200 C 116.100 406.100 116.200 406.200 116.200 406.100 V 400.300 C 116.200 400.200 116.100 400.300 116.200 400.300 H 119.000 C 119.100 400.300 119.000 400.200 119.000 400.300 V 403.200 Z" stroke="rgb(0,0,255)" stroke-width="0.20" />
  <path d="M 119.000 391.200 V 394.100 C 119.000 394.200 119.100 394.100 119.000 394.100 H 116.200 C 116.100 394.100 116.200 394.200 116.200 394.100 V 388.300 C 116.200 388.200 116.100 388.300 116.200 388.300 H 119.000 C 119.100 388.300 119.000 388.200 119.000 388.300 V 391.200 Z" stroke="rgb(0,0,255)" stroke-width="0.20" />
  <path d="M 119.000 379.200 V 382.100 C 119.000 382.200 119.100 382.100 119.000 382.100 H 116.200 C 116.100 382.100 116.200 382.200 116.200 382.100 V 376.300 C 116.200 376.200 116.100 376.300 116.200 376.300 H 119.000 C 119.100 376.300 119.000 376.200 119.000 376.300 V 379.200 Z" stroke="rgb(0,0,255)" stroke-width="0.20" />
  <path d="M 172.000 463.200 V 466.100 C 172.000 466.200 172.100 466.100 172.000 466.100 H 169.200 C 169.100 466.100 169.200 466.200 169.200 466.100 V 460.300 C 169.200 460.200 169.100 460.300 169.200 460.300 H 172.000 C 172.100 460.300 172.000 460.200 172.000 460.300 V 463.200 Z" stroke="rgb(0,0,255)" stroke-width="0.20" />
  <path d="M 172.000 451.200 V 454.100 C 172.000 454.200 172.100 454.100 172.000 454.100 H 169.200 C 169.100 454.100 169.200 454.200 169.200 454.100 V 448.300 C 169.200 448.200 169.100 448.300 169.200 448.300 H 172.000 C 172.100 448.300 172.000 448.200 172.000 448.300 V 451.200 Z" stroke="rgb(0,0,255)" stroke-width="0.20" />
  <path d="M 172.000 439.200 V 442.100 C 172.000 442.200 172.100 442.100 172.000 442.100 H 169.200 C 169.100 442.100 169.200 442.200 169.200 442.100 V 436.300 C 169.200 436.200 169.100 436.300 169.200 436.300 H 172.000 C 172.100 436.300 172.000 436.200 172.000 436.300 V 439.200 Z" stroke="rgb(0,0,255)" stroke-width="0.20" />
  <path d="M 172.000 427.200 V 430.100 C 172.000 430.200 172.100 430.100 172.000 430.100 H 169.200 C 169.100 430.100 169.200 430.200 169.200 430.100 V 424.300 C 169.200 424.200 169.100 424.300 169.200 424.300 H 172.000 C 172.100 424.300 172.000 424.200 172.000 424.300 V 427.200 Z" stroke="rgb(0,0,255)" stroke-width="0.20" />
  <path d="M 172.000 415.200 V 418.100 C 172.000 418.200 172.100 418.100 172.000 418.100 H 169.200 C 169.100 418.100 169.200 418.200 169.200 418.100 V 412.300 C 169.200 412.200 169.100 412.300 169.200 412.300 H 172.000 C 172.100 412.300 172.000 412.200 172.000 412.300 V 415.200 Z" stroke="rgb(0,0,255)" stroke-width="0.20" />
  <path d="M 172.000 403.200 V 406.100 C 172.000 406.200 172.100 406.100 172.000 406.100 H 169.200 C 169.100 406.100 169.200 406.200 169.200 406.100 V 400.300 C 169.200 400.200 169.100 400.300 169.200 400.300 H 172.000 C 172.100 400.300 172.000 400.200 172.000 400.300 V 403.200 Z" stroke="rgb(0,0,255)" stroke-width="0.20" />
  <path d="M 172.000 391.200 V 394.100 C 172.000 394.200 172.100 394.100 172.000 394.100 H 169.200 C 169.100 394.100 169.200 394.200 169.200 394.100 V 388.300 C 169.200 388.200 169.100 388.300 169.200 388.300 H 172.000 C 172.100 388.300 172.000 388.200 172.000 388.300 V 391.200 Z" stroke="rgb(0,0,255)" stroke-width="0.20" />
  <path d="M 172.000 379.200 V 382.100 C 172.000 382.200 172.100 382.100 172.000 382.100 H 169.200 C 169.100 382.100 169.200 382.200 169.200 382.100 V 376.300 C 169.200 376.200 169.100 376.300 169.200 376.300 H 172.000 C 172.100 376.300 172.000 376.200 172.000 376.300 V 379.200 Z" stroke="rgb(0,0,255)" stroke-width="0.20" />
  <path d="M 13.100 474.300 H 18.600 C 18.655 474.300 18.700 474.255 18.700 474.200 V 471.300 C 18.700 471.200 18.600 471.300 18.700 471.300 H 24.500 C 24.600 471.300 24.500 471.200 24.500 471.300 V 474.200 C 24.500 474.255 24.545 474.300 24.600 474.300 H 30.600 C 30.655 474.300 30.700 474.255 30.700 474.200 V 471.300 C 30.700 471.200 30.600 471.300 30.700 471.300 H 36.500 C 36.600 471.300 36.500 471.200 36.500 471.300 V 474.200 C 36.500 474.255 36.545 474.300 36.600 474.300 H 42.600 C 42.655 474.300 42.700 474.255 42.700 474.200 V 471.300 C 42.700 471.200 42.600 471.300 42.700 471.300 H 48.500 C 48.600 471.300 48.500 471.200 48.500 471.300 V 474.200 C 48.500 474.255 48.545 474.300 48.600 474.300 H 54.600 C 54.655 474.300 54.700 474.255 54.700 474.200 V 471.300 C 54.700 471.200 54.600 471.300 54.700 471.300 H 60.500 C 60.600 471.300 60.500 471.200 60.500 471.300 V 474.200 C 60.500 474.255 60.545 474.300 60.600 474.300 H 66.600 C 66.655 474.300 66.700 474.255 66.700 474.200 V 471.300 C 66.700 471.200 66.600 471.300 66.700 471.300 H 72.500 C 72.600 471.300 72.500 471.200 72.500 471.300 V 474.200 C 72.500 474.255 72.545 474.300 72.600 474.300 H 78.600 C 78.655 474.300 78.700 474.255 78.700 474.200 V 471.300 C 78.700 471.200 78.600 471.300 78.700 471.300 H 84.500 C 84.600 471.300 84.500 471.200 84.500 471.300 V 474.200 C 84.500 474.255 84.545 474.300 84.600 474.300 H 90.600 C 90.655 474.300 90.700 474.255 90.700 474.200 V 471.300 C 90.700 471.200 90.600 471.300 90.700 471.300 H 96.500 C 96.600 471.300 96.500 471.200 96.500 471.300 V 474.200 C 96.500 474.255 96.545 474.300 96.600 474.300 H 102.600 C 102.655 474.300 102.700 474.255 102.700 474.200 V 471.300 C 102.700 471.200 102.600 471.300 102.700 471.300 H 108.500 C 108.600 471.300 108.500 471.200 108.500 471.300 V 474.200 C 108.500 474.255 108.545 474.300 108.600 474.300 H 114.600 C 114.655 474.300 114.700 474.255 114.700 474.200 V 471.300 C 114.700 471.200 114.600 471.300 114.700 471.300 H 120.500 C 120.600 471.300 120.500 471.200 120.500 471.300 V 474.200 C 120.500 474.255 120.545 474.300 120.600 474.300 H 126.600 C 126.655 474.300 126.700 474.255 126.700 474.200 V 471.300 C 126.700 471.200 126.600 471.300 126.700 471.300 H 132.500 C 132.600 471.300 132.500 471.200 132.500 471.300 V 474.200 C 132.500 474.255 132.545 474.300 132.600 474.300 H 138.600 C 138.655 474.300 138.700 474.255 138.700 474.200 V 471.300 C 138.700 471.200 138.600 471.300 138.700 471.300 H 144.500 C 144.600 471.300 144.500 471.200 144.500 471.300 V 474.200 C 144.500 474.255 144.545 474.300 144.600 474.300 H 150.600 C 150.655 474.300 150.700 474.255 150.700 474.200 V 471.300 C 150.700 471.200 150.600 471.300 150.700 471.300 H 156.500 C 156.600 471.300 156.500 471.200 156.500 471.300 V 474.200 C 156.500 474.255 156.545 474.300 156.600 474.300 H 162.600 C 162.655 474.300 162.700 474.255 162.700 474.200 V 471.300 C 162.700 471.200 162.600 471.300 162.700 471.300 H 168.500 C 168.600 471.300 168.500 471.200 168.500 471.300 V 474.200 C 168.500 474.255 168.545 474.300 168.600 474.300 H 174.600 C 174.655 474.300 174.700 474.255 174.700 474.200 V 471.300 C 174.700 471.200 174.600 471.300 174.700 471.300 H 180.500 C 180.600 471.300 180.500 471.200 180.500 471.300 V 474.200 C 180.500 474.255 180.545 474.300 180.600 474.300 H 186.600 C 186.655 474.300 186.700 474.255 186.700 474.200 V 471.300 C 186.700 471.200 186.600 471.300 186.700 471.300 H 192.500 C 192.600 471.300 192.500 471.200 192.500 471.300 V 474.200 C 192.500 474.255 192.545 474.300 192.600 474.300 H 198.600 C 198.655 474.300 198.700 474.255 198.700 474.200 V 471.300 C 198.700 471.200 198.600 471.300 198.700 471.300 H 204.500 C 204.600 471.300 204.500 471.200 204.500 471.300 V 474.200 C 204.500 474.255 204.545 474.300 204.600 474.300 H 210.600 C 210.655 474.300 210.700 474.255 210.700 474.200 V 471.300 C 210.700 471.200 210.600 471.300 210.700 471.300 H 216.500 C 216.600 471.300 216.500 471.200 216.500 471.300 V 474.200 C 216.500 474.255 216.545 474.300 216.600 474.300 H 222.100 H 225.100 C 225.155 474.300 225.200 474.255 225.200 474.200 V 467.700 C 225.200 467.645 225.155 467.600 225.100 467.600 H 222.200 C 222.100 467.600 222.200 467.700 222.200 467.600 V 461.800 C 222.200 461.700 222.100 461.800 222.200 461.800 H 225.100 C 225.155 461.800 225.200 461.755 225.200 461.700 V 455.700 C 225.200 455.645 225.155 455.600 225.100 455.600 H 222.200 C 222.100 455.600 222.200 455.700 222.200 455.600 V 449.800 C 222.200 449.700 222.100 449.800 222.200 449.800 H 225.100 C 225.155 449.800 225.200 449.755 225.200 449.700 V 443.700 C 225.200 443.645 225.155 443.600 225.100 443.600 H 222.200 C 222.100 443.600 222.200 443.700 222.200 443.600 V 437.800 C 222.200 437.700 222.100 437.800 222.200 437.800 H 225.100 C 225.155 437.800 225.200 437.755 225.200 437.700 V 431.700 C 225.200 431.645 225.155 431.600 225.100 431.600 H 222.200 C 222.100 431.600 222.200 431.700 222.200 431.600 V 425.800 C 222.200 425.700 222.100 425.800 222.200 425.800 H 225.100 C 225.155 425.800 225.200 425.755 225.200 425.700 V 419.700 C 225.200 419.645 225.155 419.600 225.100 419.600 H 222.200 C 222.100 419.600 222.200 419.700 222.200 419.600 V 413.800 C 222.200 413.700 222.100 413.800 222.200 413.800 H 225.100 C 225.155 413.800 225.200 413.755 225.200 413.700 V 407.700 C 225.200 407.645 225.155 407.600 225.100 407.600 H 222.200 C 222.100 407.600 222.200 407.700 222.200 407.600 V 401.800 C 222.200 401.700 222.100 401.800 222.200 401.800 H 225.100 C 225.155 401.800 225.200 401.755 225.200 401.700 V 395.700 C 225.200 395.645 225.155 395.600 225.100 395.600 H 222.200 C 222.100 395.600 222.200 395.700 222.200 395.600 V 389.800 C 222.200 389.700 222.100 389.800 222.200 389.800 H 225.100 C 225.155 389.800 225.200 389.755 225.200 389.700 V 383.700 C 225.200 383.645 225.155 383.600 225.100 383.600 H 222.200 C 222.100 383.600 222.200 383.700 222.200 383.600 V 377.800 C 222.200 377.700 222.100 377.800 222.200 377.800 H 225.100 C 225.155 377.800 225.200 377.755 225.200 377.700 V 371.200 C 225.200 371.145 225.155 371.100 225.100 371.100 H 222.100 H 13.100 H 10.100 C 10.045 371.100 10.000 371.145 10.000 371.200 V 377.700 C 10.000 377.755 10.045 377.800 10.100 377.800 H 13.000 C 13.100 377.800 13.000 377.700 13.000 377.800 V 383.600 C 13.000 383.700 13.100 383.600 13.000 383.600 H 10.100 C 10.045 383.600 10.000 383.645 10.000 383.700 V 389.700 C 10.000 389.755 10.045 389.800 10.100 389.800 H 13.000 C 13.100 389.800 13.000 389.700 13.000 389.800 V 395.600 C 13.000 395.700 13.100 395.600 13.000 395.600 H 10.100 C 10.045 395.600 10.000 395.645 10.000 395.700 V 401.700 C 10.000 401.755 10.045 401.800 10.100 401.800 H 13.000 C 13.100 401.800 13.000 401.700 13.000 401.800 V 407.600 C 13.000 407.700 13.100 407.600 13.000 407.600 H 10.100 C 10.045 407.600 10.000 407.645 10.000 407.700 V 413.700 C 10.000 413.755 10.045 413.800 10.100 413.800 H 13.000 C 13.100 413.800 13.000 413.700 13.000 413.800 V 419.600 C 13.000 419.700 13.100 419.600 13.000 419.600 H 10.100 C 10.045 419.600 10.000 419.645 10.000 419.700 V 425.700 C 10.000 425.755 10.045 425.800 10.100 425.800 H 13.000 C 13.100 425.800 13.000 425.700 13.000 425.800 V 431.600 C 13.000 431.700 13.100 431.600 13.000 431.600 H 10.100 C 10.045 431.600 10.000 431.645 10.000 431.700 V 437.700 C 10.000 437.755 10.045 437.800 10.100 437.800 H 13.000 C 13.100 437.800 13.000 437.700 13.000 437.800 V 443.600 C 13.000 443.700 13.100 443.600 13.000 443.600 H 10.100 C 10.045 443.600 10.000 443.645 10.000 443.700 V 449.700 C 10.000 449.755 10.045 449.800 10.100 449.800 H 13.000 C 13.100 449.800 13.000 449.700 13.000 449.800 V 455.600 C 13.000 455.700 13.100 455.600 13.000 455.600 H 10.100 C 10.045 455.600 10.000 455.645 10.000 455.700 V 461.700 C 10.000 461.755 10.045 461.800 10.100 461.800 H 13.000 C 13.100 461.800 13.000 461.700 13.000 461.800 V 467.600 C 13.000 467.700 13.100 467.600 13.000 467.600 H 10.100 C 10.045 467.600 10.000 467.645 10.000 467.700 V 474.200 C 10.000 474.255 10.045 474.300 10.100 474.300 H 13.100 Z" stroke="rgb(0,0,0)" stroke-width="0.20" />
  <text dominant-baseline="hanging" font-size="4px" style="font-family: sans-serif ; font-weight: normal; font-style: normal; fill: rgb(255,0,0)" text-anchor="middle" transform="matrix( 1.000 0.000 0.000 1.000 117.600 420.800 )">front</text>
</g>
<g id="p-3" style="fill:none;stroke-linecap:round;stroke-linejoin:round;">
  <path d="M 169.200 358.500 V 361.400 C 169.200 361.500 169.100 361.400 169.200 361.400 H 172.000 C 172.100 361.400 172.000 361.500 172.000 361.400 V 355.600 C 172.000 355.500 172.100 355.600 172.000 355.600 H 169.200 C 169.100 355.600 169.200 355.500 169.200 355.600 V 358.500 Z" stroke="rgb(0,0,255)" stroke-width="0.20" />
  <path d="M 169.200 346.500 V 349.400 C 169.200 349.500 169.100 349.400 169.200 349.400 H 172.000 C 172.100 349.400 172.000 349.500 172.000 349.400 V 343.600 C 172.000 343.500 172.100 343.600 172.000 343.600 H 169.200 C 169.100 343.600 169.200 343.500 169.200 343.600 V 346.500 Z" stroke="rgb(0,0,255)" stroke-width="0.20" />
  <path d="M 169.200 334.500 V 337.400 C 169.200 337.500 169.100 337.400 169.200 337.400 H 172.000 C 172.100 337.400 172.000 337.500 172.000 337.400 V 331.600 C 172.000 331.500 172.100 331.600 172.000 331.600 H 169.200 C 169.100 331.600 169.200 331.500 169.200 331.600 V 334.500 Z" stroke="rgb(0,0,255)" stroke-width="0.20" />
  <path d="M 169.200 322.500 V 325.400 C 169.200 325.500 169.100 325.400 169.200 325.400 H 172.000 C 172.100 325.400 172.000 325.500 172.000 325.400 V 319.600 C 172.000 319.500 172.100 319.600 172.000 319.600 H 169.200 C 169.100 319.600 169.200 319.500 169.200 319.600 V 322.500 Z" stroke="rgb(0,0,255)" stroke-width="0.20" />
  <path d="M 169.200 310.500 V 313.400 C 169.200 313.500 169.100 313.400 169.200 313.400 H 172.000 C 172.100 313.400 172.000 313.500 172.000 313.400 V 307.600 C 172.000 307.500 172.100 307.600 172.000 307.600 H 169.200 C 169.100 307.600 169.200 307.500 169.200 307.600 V 310.500 Z" stroke="rgb(0,0,255)" stroke-width="0.20" />
  <path d="M 169.200 298.500 V 301.400 C 169.200 301.500 169.100 301.400 169.200 301.400 H 172.000 C 172.100 301.400 172.000 301.500 172.000 301.400 V 295.600 C 172.000 295.500 172.100 295.600 172.000 295.600 H 169.200 C 169.100 295.600 169.200 295.500 169.200 295.600 V 298.500 Z" stroke="rgb(0,0,255)" stroke-width="0.20" />
  <path d="M 169.200 286.500 V 289.400 C 169.200 289.500 169.100 289.400 169.200 289.400 H 172.000 C 172.100 289.400 172.000 289.500 172.000 289.400 V 283.600 C 172.000 283.500 172.100 283.600 172.000 283.600 H 169.200 C 169.100 283.600 169.200 283.500 169.200 283.600 V 286.500 Z" stroke="rgb(0,0,255)" stroke-width="0.20" />
  <path d="M 169.200 274.500 V 277.400 C 169.200 277.500 169.100 277.400 169.200 277.400 H 172.000 C 172.100 277.400 172.000 277.500 172.000 277.400 V 271.600 C 172.000 271.500 172.100 271.600 172.000 271.600 H 169.200 C 169.100 271.600 169.200 271.500 169.200 271.600 V 274.500 Z" stroke="rgb(0,0,255)" stroke-width="0.20" />
  <path d="M 116.200 358.500 V 361.400 C 116.200 361.500 116.100 361.400 116.200 361.400 H 119.000 C 119.100 361.400 119.000 361.500 119.000 361.400 V 355.600 C 119.000 355.500 119.100 355.600 119.000 355.600 H 116.200 C 116.100 355.600 116.200 355.500 116.200 355.600 V 358.500 Z" stroke="rgb(0,0,255)" stroke-width="0.20" />
  <path d="M 116.200 346.500 V 349.400 C 116.200 349.500 116.100 349.400 116.200 349.400 H 119.000 C 119.100 349.400 119.000 349.500 119.000 349.400 V 343.600 C 119.000 343.500 119.100 343.600 119.000 343.600 H 116.200 C 116.100 343.600 116.200 343.500 116.200 343.600 V 346.500 Z" stroke="rgb(0,0,255)" stroke-width="0.20" />
  <path d="M 116.200 334.500 V 337.400 C 116.200 337.500 116.100 337.400 116.200 337.400 H 119.000 C 119.100 337.400 119.000 337.500 119.000 337.400 V 331.600 C 119.000 331.500 119.100 331.600 119.000 331.600 H 116.200 C 116.100 331.600 116.200 331.500 116.200 331.600 V 334.500 Z" stroke="rgb(0,0,255)" stroke-width="0.20" />
  <path d="M 116.200 322.500 V 325.400 C 116.200 325.500 116.100 325.400 116.200 325.400 H 119.000 C 119.100 325.400 119.000 325.500 119.000 325.400 V 319.600 C 119.000 319.500 119.100 319.600 119.000 319.600 H 116.200 C 116.100 319.600 116.200 319.500 116.200 319.600 V 322.500 Z" stroke="rgb(0,0,255)" stroke-width="0.20" />
  <path d="M 116.200 310.500 V 313.400 C 116.200 313.500 116.100 313.400 116.200 313.400 H 119.000 C 119.100 313.400 119.000 313.500 119.000 313.400 V 307.600 C 119.000 307.500 119.100 307.600 119.000 307.600 H 116.200 C 116.100 307.600 116.200 307.500 116.200 307.600 V 310.500 Z" stroke="rgb(0,0,255)" stroke-width="0.20" />
  <path d="M 116.200 298.500 V 301.400 C 116.200 301.500 116.100 301.400 116.200 301.400 H 119.000 C 119.100 301.400 119.000 301.500 119.000 301.400 V 295.600 C 119.000 295.500 119.100 295.600 119.000 295.600 H 116.200 C 116.100 295.600 116.200 295.500 116.200 295.600 V 298.500 Z" stroke="rgb(0,0,255)" stroke-width="0.20" />
  <path d="M 116.200 286.500 V 289.400 C 116.200 289.500 116.100 289.400 116.200 289.400 H 119.000 C 119.100 289.400 119.000 289.500 119.000 289.400 V 283.600 C 119.000 283.500 119.100 283.600 119.000 283.600 H 116.200 C 116.100 283.600 116.200 283.500 116.200 283.600 V 286.500 Z" stroke="rgb(0,0,255)" stroke-width="0.20" />
  <path d="M 116.200 274.500 V 277.400 C 116.200 277.500 116.100 277.400 116.200 277.400 H 119.000 C 119.100 277.400 119.000 277.500 119.000 277.400 V 271.600 C 119.000 271.500 119.100 271.600 119.000 271.600 H 116.200 C 116.100 271.600 116.200 271.500 116.200 271.600 V 274.500 Z" stroke="rgb(0,0,255)" stroke-width="0.20" />
  <path d="M 63.200 358.500 V 361.400 C 63.200 361.500 63.100 361.400 63.200 361.400 H 66.000 C 66.100 361.400 66.000 361.500 66.000 361.400 V 355.600 C 66.000 355.500 66.100 355.600 66.000 355.600 H 63.200 C 63.100 355.600 63.200 355.500 63.200 355.600 V 358.500 Z" stroke="rgb(0,0,255)" stroke-width="0.20" />
  <path d="M 63.200 346.500 V 349.400 C 63.200 349.500 63.100 349.400 63.200 349.400 H 66.000 C 66.100 349.400 66.000 349.500 66.000 349.400 V 343.600 C 66.000 343.500 66.100 343.600 66.000 343.600 H 63.200 C 63.100 343.600 63.200 343.500 63.200 343.600 V 346.500 Z" stroke="rgb(0,0,255)" stroke-width="0.20" />
  <path d="M 63.200 334.500 V 337.400 C 63.200 337.500 63.100 337.400 63.200 337.400 H 66.000 C 66.100 337.400 66.000 337.500 66.000 337.400 V 331.600 C 66.000 331.500 66.100 331.600 66.000 331.600 H 63.200 C 63.100 331.600 63.200 331.500 63.200 331.600 V 334.500 Z" stroke="rgb(0,0,255)" stroke-width="0.20" />
  <path d="M 63.200 322.500 V 325.400 C 63.200 325.500 63.100 325.400 63.200 325.400 H 66.000 C 66.100 325.400 66.000 325.500 66.000 325.400 V 319.600 C 66.000 319.500 66.100 319.600 66.000 319.600 H 63.200 C 63.100 319.600 63.200 319.500 63.200 319.600 V 322.500 Z" stroke="rgb(0,0,255)" stroke-width="0.20" />
  <path d="M 63.200 310.500 V 313.400 C 63.200 313.500 63.100 313.400 63.200 313.400 H 66.000 C 66.100 313.400 66.000 313.500 66.000 313.400 V 307.600 C 66.000 307.500 66.100 307.600 66.000 307.600 H 63.200 C 63.100 307.600 63.200 307.500 63.200 307.600 V 310.500 Z" stroke="rgb(0,0,255)" stroke-width="0.20" />
  <path d="M 63.200 298.500 V 301.400 C 63.200 301.500 63.100 301.400 63.200 301.400 H 66.000 C 66.100 301.400 66.000 301.500 66.000 301.400 V 295.600 C 66.000 295.500 66.100 295.600 66.000 295.600 H 63.200 C 63.100 295.600 63.200 295.500 63.200 295.600 V 298.500 Z" stroke="rgb(0,0,255)" stroke-width="0.20" />
  <path d="M 63.200 286.500 V 289.400 C 63.200 289.500 63.100 289.400 63.200 289.400 H 66.000 C 66.100 289.400 66.000 289.500 66.000 289.400 V 283.600 C 66.000 283.500 66.100 283.600 66.000 283.600 H 63.200 C 63.100 283.600 63.200 283.500 63.200 283.600 V 286.500 Z" stroke="rgb(0,0,255)" stroke-width="0.20" />
  <path d="M 63.200 274.500 V 277.400 C 63.200 277.500 63.100 277.400 63.200 277.400 H 66.000 C 66.100 277.400 66.000 277.500 66.000 277.400 V 271.600 C 66.000 271.500 66.100 271.600 66.000 271.600 H 63.200 C 63.100 271.600 63.200 271.500 63.200 271.600 V 274.500 Z" stroke="rgb(0,0,255)" stroke-width="0.20" />
  <path d="M 222.100 369.600 H 216.600 C 216.545 369.600 216.500 369.555 216.500 369.500 V 366.600 C 216.500 366.500 216.600 366.600 216.500 366.600 H 210.700 C 210.600 366.600 210.700 366.500 210.700 366.600 V 369.500 C 210.700 369.555 210.655 369.600 210.600 369.600 H 204.600 C 204.545 369.600 204.500 369.555 204.500 369.500 V 366.600 C 204.500 366.500 204.600 366.600 204.500 366.600 H 198.700 C 198.600 366.600 198.700 366.500 198.700 366.600 V 369.500 C 198.700 369.555 198.655 369.600 198.600 369.600 H 192.600 C 192.545 369.600 192.500 369.555 192.500 369.500 V 366.600 C 192.500 366.500 192.600 366.600 192.500 366.600 H 186.700 C 186.600 366.600 186.700 366.500 186.700 366.600 V 369.500 C 186.700 369.555 186.655 369.600 186.600 369.600 H 180.600 C 180.545 369.600 180.500 369.555 180.500 369.500 V 366.600 C 180.500 366.500 180.600 366.600 180.500 366.600 H 174.700 C 174.600 366.600 174.700 366.500 174.700 366.600 V 369.500 C 174.700 369.555 174.655 369.600 174.600 369.600 H 168.600 C 168.545 369.600 168.500 369.555 168.500 369.500 V 366.600 C 168.500 366.500 168.600 366.600 168.500 366.600 H 162.700 C 162.600 366.600 162.700 366.500 162.700 366.600 V 369.500 C 162.700 369.555 162.655 369.600 162.600 369.600 H 156.600 C 156.545 369.600 156.500 369.555 156.500 369.500 V 366.600 C 156.500 366.500 156.600 366.600 156.500 366.600 H 150.700 C 150.600 366.600 150.700 366.500 150.700 366.600 V 369.500 C 150.700 369.555 150.655 369.600 150.600 369.600 H 144.600 C 144.545 369.600 144.500 369.555 144.500 369.500 V 366.600 C 144.500 366.500 144.600 366.600 144.500 366.600 H 138.700 C 138.600 366.600 138.700 366.500 138.700 366.600 V 369.500 C 138.700 369.555 138.655 369.600 138.600 369.600 H 132.600 C 132.545 369.600 132.500 369.555 132.500 369.500 V 366.600 C 132.500 366.500 132.600 366.600 132.500 366.600 H 126.700 C 126.600 366.600 126.700 366.500 126.700 366.600 V 369.500 C 126.700 369.555 126.655 369.600 126.600 369.600 H 120.600 C 120.545 369.600 120.500 369.555 120.500 369.500 V 366.600 C 120.500 366.500 120.600 366.600 120.500 366.600 H 114.700 C 114.600 366.600 114.700 366.500 114.700 366.600 V 369.500 C 114.700 369.555 114.655 369.600 114.600 369.600 H 108.600 C 108.545 369.600 108.500 369.555 108.500 369.500 V 366.600 C 108.500 366.500 108.600 366.600 108.500 366.600 H 102.700 C 102.600 366.600 102.700 366.500 102.700 366.600 V 369.500 C 102.700 369.555 102.655 369.600 102.600 369.600 H 96.600 C 96.545 369.600 96.500 369.555 96.500 369.500 V 366.600 C 96.500 366.500 96.600 366.600 96.500 366.600 H 90.700 C 90.600 366.600 90.700 366.500 90.700 366.600 V 369.500 C 90.700 369.555 90.655 369.600 90.600 369.600 H 84.600 C 84.545 369.600 84.500 369.555 84.500 369.500 V 366.600 C 84.500 366.500 84.600 366.600 84.500 366.600 H 78.700 C 78.600 366.600 78.700 366.500 78.700 366.600 V 369.500 C 78.700 369.555 78.655 369.600 78.600 369.600 H 72.600 C 72.545 369.600 72.500 369.555 72.500 369.500 V 366.600 C 72.500 366.500 72.600 366.600 72.500 366.600 H 66.700 C 66.600 366.600 66.700 366.500 66.700 366.600 V 369.500 C 66.700 369.555 66.655 369.600 66.600 369.600 H 60.600 C 60.545 369.600 60.500 369.555 60.500 369.500 V 366.600 C 60.500 366.500 60.600 366.600 60.500 366.600 H 54.700 C 54.600 366.600 54.700 366.500 54.700 366.600 V 369.500 C 54.700 369.555 54.655 369.600 54.600 369.600 H 48.600 C 48.545 369.600 48.500 369.555 48.500 369.500 V 366.600 C 48.500 366.500 48.600 366.600 48.500 366.600 H 42.700 C 42.600 366.600 42.700 366.500 42.700 366.600 V 369.500 C 42.700 369.555 42.655 369.600 42.600 369.600 H 36.600 C 36.545 369.600 36.500 369.555 36.500 369.500 V 366.600 C 36.500 366.500 36.600 366.600 36.500 366.600 H 30.700 C 30.600 366.600 30.700 366.500 30.700 366.600 V 369.500 C 30.700 369.555 30.655 369.600 30.600 369.600 H 24.600 C 24.545 369.600 24.500 369.555 24.500 369.500 V 366.600 C 24.500 366.500 24.600 366.600 24.500 366.600 H 18.700 C 18.600 366.600 18.700 366.500 18.700 366.600 V 369.500 C 18.700 369.555 18.655 369.600 18.600 369.600 H 13.100 H 10.100 C 10.045 369.600 10.000 369.555 10.000 369.500 V 363.000 C 10.000 362.945 10.045 362.900 10.100 362.900 H 13.000 C 13.100 362.900 13.000 363.000 13.000 362.900 V 357.100 C 13.000 357.000 13.100 357.100 13.000 357.100 H 10.100 C 10.045 357.100 10.000 357.055 10.000 357.000 V 351.000 C 10.000 350.945 10.045 350.900 10.100 350.900 H 13.000 C 13.100 350.900 13.000 351.000 13.000 350.900 V 345.100 C 13.000 345.000 13.100 345.100 13.000 345.100 H 10.100 C 10.045 345.100 10.000 345.055 10.000 345.000 V 339.000 C 10.000 338.945 10.045 338.900 10.100 338.900 H 13.000 C 13.100 338.900 13.000 339.000 13.000 338.900 V 333.100 C 13.000 333.000 13.100 333.100 13.000 333.100 H 10.100 C 10.045 333.100 10.000 333.055 10.000 333.000 V 327.000 C 10.000 326.945 10.045 326.900 10.100 326.900 H 13.000 C 13.100 326.900 13.000 327.000 13.000 326.900 V 321.100 C 13.000 321.000 13.100 321.100 13.000 321.100 H 10.100 C 10.045 321.100 10.000 321.055 10.000 321.000 V 315.000 C 10.000 314.945 10.045 314.900 10.100 314.900 H 13.000 C 13.100 314.900 13.000 315.000 13.000 314.900 V 309.100 C 13.000 309.000 13.100 309.100 13.000 309.100 H 10.100 C 10.045 309.100 10.000 309.055 10.000 309.000 V 303.000 C 10.000 302.945 10.045 302.900 10.100 302.900 H 13.000 C 13.100 302.900 13.000 303.000 13.000 302.900 V 297.100 C 13.000 297.000 13.100 297.100 13.000 297.100 H 10.100 C 10.045 297.100 10.000 297.055 10.000 297.000 V 291.000 C 10.000 290.945 10.045 290.900 10.100 290.900 H 13.000 C 13.100 290.900 13.000 291.000 13.000 290.900 V 285.100 C 13.000 285.000 13.100 285.100 13.000 285.100 H 10.100 C 10.045 285.100 10.000 285.055 10.000 285.000 V 279.000 C 10.000 278.945 10.045 278.900 10.100 278.900 H 13.000 C 13.100 278.900 13.000 279.000 13.000 278.900 V 273.100 C 13.000 273.000 13.100 273.100 13.000 273.100 H 10.100 C 10.045 273.100 10.000 273.055 10.000 273.000 V 266.500 C 10.000 266.445 10.045 266.400 10.100 266.400 H 13.100 H 222.100 H 225.100 C 225.155 266.400 225.200 266.445 225.200 266.500 V 273.000 C 225.200 273.055 225.155 273.100 225.100 273.100 H 222.200 C 222.100 273.100 222.200 273.000 222.200 273.100 V 278.900 C 222.200 279.000 222.100 278.900 222.200 278.900 H 225.100 C 225.155 278.900 225.200 278.945 225.200 279.000 V 285.000 C 225.200 285.055 225.155 285.100 225.100 285.100 H 222.200 C 222.100 285.100 222.200 285.000 222.200 285.100 V 290.900 C 222.200 291.000 222.100 290.900 222.200 290.900 H 225.100 C 225.155 290.900 225.200 290.945 225.200 291.000 V 297.000 C 225.200 297.055 225.155 297.100 225.100 297.100 H 222.200 C 222.100 297.100 222.200 297.000 222.200 297.100 V 302.900 C 222.200 303.000 222.100 302.900 222.200 302.900 H 225.100 C 225.155 302.900 225.200 302.945 225.200 303.000 V 309.000 C 225.200 309.055 225.155 309.100 225.100 309.100 H 222.200 C 222.100 309.100 222.200 309.000 222.200 309.100 V 314.900 C 222.200 315.000 222.100 314.900 222.200 314.900 H 225.100 C 225.155 314.900 225.200 314.945 225.200 315.000 V 321.000 C 225.200 321.055 225.155 321.100 225.100 321.100 H 222.200 C 222.100 321.100 222.200 321.000 222.200 321.100 V 326.900 C 222.200 327.000 222.100 326.900 222.200 326.900 H 225.100 C 225.155 326.900 225.200 326.945 225.200 327.000 V 333.000 C 225.200 333.055 225.155 333.100 225.100 333.100 H 222.200 C 222.100 333.100 222.200 333.000 222.200 333.100 V 338.900 C 222.200 339.000 222.100 338.900 222.200 338.900 H 225.100 C 225.155 338.900 225.200 338.945 225.200 339.000 V 345.000 C 225.200 345.055 225.155 345.100 225.100 345.100 H 222.200 C 222.100 345.100 222.200 345.000 222.200 345.100 V 350.900 C 222.200 351.000 222.100 350.900 222.200 350.900 H 225.100 C 225.155 350.900 225.200 350.945 225.200 351.000 V 357.000 C 225.200 357.055 225.155 357.100 225.100 357.100 H 222.200 C 222.100 357.100 222.200 357.000 222.200 357.100 V 362.900 C 222.200 363.000 222.100 362.900 222.200 362.900 H 225.100 C 225.155 362.900 225.200 362.945 225.200 363.000 V 369.500 C 225.200 369.555 225.155 369.600 225.100 369.600 H 222.100 Z" stroke="rgb(0,0,0)" stroke-width="0.20" />
  <text dominant-baseline="hanging" font-size="4px" style="font-family: sans-serif ; font-weight: normal; font-style: normal; fill: rgb(255,0,0)" text-anchor="middle" transform="matrix( 1.000 0.000 0.000 1.000 117.600 316.100 )">back</text>
</g>
<g id="p-4" style="fill:none;stroke-linecap:round;stroke-linejoin:round;">
  <path d="M 229.800 532.000 H 233.800 C 233.855 532.000 233.900 531.955 233.900 531.900 V 529.000 C 233.900 528.900 233.800 529.000 233.900 529.000 H 239.700 C 239.800 529.000 239.700 528.900 239.700 529.000 V 531.900 C 239.700 531.955 239.745 532.000 239.800 532.000 H 245.800 C 245.855 532.000 245.900 531.955 245.900 531.900 V 529.000 C 245.900 528.900 245.800 529.000 245.900 529.000 H 251.700 C 251.800 529.000 251.700 528.900 251.700 529.000 V 531.900 C 251.700 531.955 251.745 532.000 251.800 532.000 H 257.800 C 257.855 532.000 257.900 531.955 257.900 531.900 V 529.000 C 257.900 528.900 257.800 529.000 257.900 529.000 H 263.700 C 263.800 529.000 263.700 528.900 263.700 529.000 V 531.900 C 263.700 531.955 263.745 532.000 263.800 532.000 H 269.800 C 269.855 532.000 269.900 531.955 269.900 531.900 V 529.000 C 269.900 528.900 269.800 529.000 269.900 529.000 H 275.700 C 275.800 529.000 275.700 528.900 275.700 529.000 V 531.900 C 275.700 531.955 275.745 532.000 275.800 532.000 H 279.800 C 279.855 532.000 279.900 531.955 279.900 531.900 V 525.500 C 279.900 525.400 279.800 525.500 279.900 525.500 H 282.800 C 282.855 525.500 282.900 525.455 282.900 525.400 V 519.400 C 282.900 519.345 282.855 519.300 282.800 519.300 H 279.900 C 279.800 519.300 279.900 519.400 279.900 519.300 V 513.500 C 279.900 513.400 279.800 513.500 279.900 513.500 H 282.800 C 282.855 513.500 282.900 513.455 282.900 513.400 V 507.400 C 282.900 507.345 282.855 507.300 282.800 507.300 H 279.900 C 279.800 507.300 279.900 507.400 279.900 507.300 V 501.500 C 279.900 501.400 279.800 501.500 279.900 501.500 H 282.800 C 282.855 501.500 282.900 501.455 282.900 501.400 V 495.400 C 282.900 495.345 282.855 495.300 282.800 495.300 H 279.900 C 279.800 495.300 279.900 495.400 279.900 495.300 V 489.500 C 279.900 489.400 279.800 489.500 279.900 489.500 H 282.800 C 282.855 489.500 282.900 489.455 282.900 489.400 V 483.400 C 282.900 483.345 282.855 483.300 282.800 483.300 H 279.900 C 279.800 483.300 279.900 483.400 279.900 483.300 V 477.500 C 279.900 477.400 279.800 477.500 279.900 477.500 H 282.800 C 282.855 477.500 282.900 477.455 282.900 477.400 V 471.400 C 282.900 471.345 282.855 471.300 282.800 471.300 H 279.900 C 279.800 471.300 279.900 471.400 279.900 471.300 V 465.500 C 279.900 465.400 279.800 465.500 279.900 465.500 H 282.800 C 282.855 465.500 282.900 465.455 282.900 465.400 V 459.400 C 282.900 459.345 282.855 459.300 282.800 459.300 H 279.900 C 279.800 459.300 279.900 459.400 279.900 459.300 V 453.500 C 279.900 453.400 279.800 453.500 279.900 453.500 H 282.800 C 282.855 453.500 282.900 453.455 282.900 453.400 V 447.400 C 282.900 447.345 282.855 447.300 282.800 447.300 H 279.900 C 279.800 447.300 279.900 447.400 279.900 447.300 V 441.500 C 279.900 441.400 279.800 441.500 279.900 441.500 H 282.800 C 282.855 441.500 282.900 441.455 282.900 441.400 V 435.400 C 282.900 435.345 282.855 435.300 282.800 435.300 H 279.900 C 279.800 435.300 279.900 435.400 279.900 435.300 V 428.900 C 279.900 428.845 279.855 428.800 279.800 428.800 H 229.800 C 229.745 428.800 229.700 428.845 229.700 428.900 V 435.300 C 229.700 435.400 229.800 435.300 229.700 435.300 H 226.800 C 226.745 435.300 226.700 435.345 226.700 435.400 V 441.400 C 226.700 441.455 226.745 441.500 226.800 441.500 H 229.700 C 229.800 441.500 229.700 441.400 229.700 441.500 V 447.300 C 229.700 447.400 229.800 447.300 229.700 447.300 H 226.800 C 226.745 447.300 226.700 447.345 226.700 447.400 V 453.400 C 226.700 453.455 226.745 453.500 226.800 453.500 H 229.700 C 229.800 453.500 229.700 453.400 229.700 453.500 V 459.300 C 229.700 459.400 229.800 459.300 229.700 459.300 H 226.800 C 226.745 459.300 226.700 459.345 226.700 459.400 V 465.400 C 226.700 465.455 226.745 465.500 226.800 465.500 H 229.700 C 229.800 465.500 229.700 465.400 229.700 465.500 V 471.300 C 229.700 471.400 229.800 471.300 229.700 471.300 H 226.800 C 226.745 471.300 226.700 471.345 226.700 471.400 V 477.400 C 226.700 477.455 226.745 477.500 226.800 477.500 H 229.700 C 229.800 477.500 229.700 477.400 229.700 477.500 V 483.300 C 229.700 483.400 229.800 483.300 229.700 483.300 H 226.800 C 226.745 483.300 226.700 483.345 226.700 483.400 V 489.400 C 226.700 489.455 226.745 489.500 226.800 489.500 H 229.700 C 229.800 489.500 229.700 489.400 229.700 489.500 V 495.300 C 229.700 495.400 229.800 495.300 229.700 495.300 H 226.800 C 226.745 495.300 226.700 495.345 226.700 495.400 V 501.400 C 226.700 501.455 226.745 501.500 226.800 501.500 H 229.700 C 229.800 501.500 229.700 501.400 229.700 501.500 V 507.300 C 229.700 507.400 229.800 507.300 229.700 507.300 H 226.800 C 226.745 507.300 226.700 507.345 226.700 507.400 V 513.400 C 226.700 513.455 226.745 513.500 226.800 513.500 H 229.700 C 229.800 513.500 229.700 513.400 229.700 513.500 V 519.300 C 229.700 519.400 229.800 519.300 229.700 519.300 H 226.800 C 226.745 519.300 226.700 519.345 226.700 519.400 V 525.400 C 226.700 525.455 226.745 525.500 226.800 525.500 H 229.700 C 229.800 525.500 229.700 525.400 229.700 525.500 V 531.900 C 229.700 531.955 229.745 532.000 229.800 532.000 Z" stroke="rgb(0,0,0)" stroke-width="0.20" />
  <text dominant-baseline="hanging" font-size="4px" style="font-family: sans-serif ; font-weight: normal; font-style: normal; fill: rgb(255,0,0)" text-anchor="middle" transform="matrix( 1.000 0.000 0.000 1.000 254.800 478.500 )">left side</text>
</g>
<g id="p-5" style="fill:none;stroke-linecap:round;stroke-linejoin:round;">
  <path d="M 229.800 427.300 H 233.800 C 233.855 427.300 233.900 427.255 233.900 427.200 V 424.300 C 233.900 424.200 233.800 424.300 233.900 424.300 H 239.700 C 239.800 424.300 239.700 424.200 239.700 424.300 V 427.200 C 239.700 427.255 239.745 427.300 239.800 427.300 H 245.800 C 245.855 427.300 245.900 427.255 245.900 427.200 V 424.300 C 245.900 424.200 245.800 424.300 245.900 424.300 H 251.700 C 251.800 424.300 251.700 424.200 251.700 424.300 V 427.200 C 251.700 427.255 251.745 427.300 251.800 427.300 H 257.800 C 257.855 427.300 257.900 427.255 257.900 427.200 V 424.300 C 257.900 424.200 257.800 424.300 257.900 424.300 H 263.700 C 263.800 424.300 263.700 424.200 263.700 424.300 V 427.200 C 263.700 427.255 263.745 427.300 263.800 427.300 H 269.800 C 269.855 427.300 269.900 427.255 269.900 427.200 V 424.300 C 269.900 424.200 269.800 424.300 269.900 424.300 H 275.700 C 275.800 424.300 275.700 424.200 275.700 424.300 V 427.200 C 275.700 427.255 275.745 427.300 275.800 427.300 H 279.800 C 279.855 427.300 279.900 427.255 279.900 427.200 V 420.800 C 279.900 420.700 279.800 420.800 279.900 420.800 H 282.800 C 282.855 420.800 282.900 420.755 282.900 420.700 V 414.700 C 282.900 414.645 282.855 414.600 282.800 414.600 H 279.900 C 279.800 414.600 279.900 414.700 279.900 414.600 V 408.800 C 279.900 408.700 279.800 408.800 279.900 408.800 H 282.800 C 282.855 408.800 282.900 408.755 282.900 408.700 V 402.700 C 282.900 402.645 282.855 402.600 282.800 402.600 H 279.900 C 279.800 402.600 279.900 402.700 279.900 402.600 V 396.800 C 279.900 396.700 279.800 396.800 279.900 396.800 H 282.800 C 282.855 396.800 282.900 396.755 282.900 396.700 V 390.700 C 282.900 390.645 282.855 390.600 282.800 390.600 H 279.900 C 279.800 390.600 279.900 390.700 279.900 390.600 V 384.800 C 279.900 384.700 279.800 384.800 279.900 384.800 H 282.800 C 282.855 384.800 282.900 384.755 282.900 384.700 V 378.700 C 282.900 378.645 282.855 378.600 282.800 378.600 H 279.900 C 279.800 378.600 279.900 378.700 279.900 378.600 V 372.800 C 279.900 372.700 279.800 372.800 279.900 372.800 H 282.800 C 282.855 372.800 282.900 372.755 282.900 372.700 V 366.700 C 282.900 366.645 282.855 366.600 282.800 366.600 H 279.900 C 279.800 366.600 279.900 366.700 279.900 366.600 V 360.800 C 279.900 360.700 279.800 360.800 279.900 360.800 H 282.800 C 282.855 360.800 282.900 360.755 282.900 360.700 V 354.700 C 282.900 354.645 282.855 354.600 282.800 354.600 H 279.900 C 279.800 354.600 279.900 354.700 279.900 354.600 V 348.800 C 279.900 348.700 279.800 348.800 279.900 348.800 H 282.800 C 282.855 348.800 282.900 348.755 282.900 348.700 V 342.700 C 282.900 342.645 282.855 342.600 282.800 342.600 H 279.900 C 279.800 342.600 279.900 342.700 279.900 342.600 V 336.800 C 279.900 336.700 279.800 336.800 279.900 336.800 H 282.800 C 282.855 336.800 282.900 336.755 282.900 336.700 V 330.700 C 282.900 330.645 282.855 330.600 282.800 330.600 H 279.900 C 279.800 330.600 279.900 330.700 279.900 330.600 V 324.200 C 279.900 324.145 279.855 324.100 279.800 324.100 H 229.800 C 229.745 324.100 229.700 324.145 229.700 324.200 V 330.600 C 229.700 330.700 229.800 330.600 229.700 330.600 H 226.800 C 226.745 330.600 226.700 330.645 226.700 330.700 V 336.700 C 226.700 336.755 226.745 336.800 226.800 336.800 H 229.700 C 229.800 336.800 229.700 336.700 229.700 336.800 V 342.600 C 229.700 342.700 229.800 342.600 229.700 342.600 H 226.800 C 226.745 342.600 226.700 342.645 226.700 342.700 V 348.700 C 226.700 348.755 226.745 348.800 226.800 348.800 H 229.700 C 229.800 348.800 229.700 348.700 229.700 348.800 V 354.600 C 229.700 354.700 229.800 354.600 229.700 354.600 H 226.800 C 226.745 354.600 226.700 354.645 226.700 354.700 V 360.700 C 226.700 360.755 226.745 360.800 226.800 360.800 H 229.700 C 229.800 360.800 229.700 360.700 229.700 360.800 V 366.600 C 229.700 366.700 229.800 366.600 229.700 366.600 H 226.800 C 226.745 366.600 226.700 366.645 226.700 366.700 V 372.700 C 226.700 372.755 226.745 372.800 226.800 372.800 H 229.700 C 229.800 372.800 229.700 372.700 229.700 372.800 V 378.600 C 229.700 378.700 229.800 378.600 229.700 378.600 H 226.800 C 226.745 378.600 226.700 378.645 226.700 378.700 V 384.700 C 226.700 384.755 226.745 384.800 226.800 384.800 H 229.700 C 229.800 384.800 229.700 384.700 229.700 384.800 V 390.600 C 229.700 390.700 229.800 390.600 229.700 390.600 H 226.800 C 226.745 390.600 226.700 390.645 226.700 390.700 V 396.700 C 226.700 396.755 226.745 396.800 226.800 396.800 H 229.700 C 229.800 396.800 229.700 396.700 229.700 396.800 V 402.600 C 229.700 402.700 229.800 402.600 229.700 402.600 H 226.800 C 226.745 402.600 226.700 402.645 226.700 402.700 V 408.700 C 226.700 408.755 226.745 408.800 226.800 408.800 H 229.700 C 229.800 408.800 229.700 408.700 229.700 408.800 V 414.600 C 229.700 414.700 229.800 414.600 229.700 414.600 H 226.800 C 226.745 414.600 226.700 414.645 226.700 414.700 V 420.700 C 226.700 420.755 226.745 420.800 226.800 420.800 H 229.700 C 229.800 420.800 229.700 420.700 229.700 420.800 V 427.200 C 229.700 427.255 229.745 427.300 229.800 427.300 Z" stroke="rgb(0,0,0)" stroke-width="0.20" />
  <text dominant-baseline="hanging" font-size="4px" style="font-family: sans-serif ; font-weight: normal; font-style: normal; fill: rgb(255,0,0)" text-anchor="middle" transform="matrix( 1.000 0.000 0.000 1.000 254.800 373.800 )">right side</text>
</g>
<g id="p-6" style="fill:none;stroke-linecap:round;stroke-linejoin:round;">
  <path d="M 229.800 319.600 H 233.700 C 233.800 319.600 233.700 319.500 233.700 319.600 V 322.500 C 233.700 322.555 233.745 322.600 233.800 322.600 H 239.800 C 239.855 322.600 239.900 322.555 239.900 322.500 V 319.600 C 239.900 319.500 239.800 319.600 239.900 319.600 H 245.700 C 245.800 319.600 245.700 319.500 245.700 319.600 V 322.500 C 245.700 322.555 245.745 322.600 245.800 322.600 H 251.800 C 251.855 322.600 251.900 322.555 251.900 322.500 V 319.600 C 251.900 319.500 251.800 319.600 251.900 319.600 H 257.700 C 257.800 319.600 257.700 319.500 257.700 319.600 V 322.500 C 257.700 322.555 257.745 322.600 257.800 322.600 H 263.800 C 263.855 322.600 263.900 322.555 263.900 322.500 V 319.600 C 263.900 319.500 263.800 319.600 263.900 319.600 H 269.700 C 269.800 319.600 269.700 319.500 269.700 319.600 V 322.500 C 269.700 322.555 269.745 322.600 269.800 322.600 H 275.800 C 275.855 322.600 275.900 322.555 275.900 322.500 V 319.600 C 275.900 319.500 275.800 319.600 275.900 319.600 H 279.800 C 279.855 319.600 279.900 319.555 279.900 319.500 V 314.600 C 279.900 314.500 279.800 314.600 279.900 314.600 H 282.800 C 282.855 314.600 282.900 314.555 282.900 314.500 V 308.500 C 282.900 308.445 282.855 308.400 282.800 308.400 H 279.900 C 279.800 308.400 279.900 308.500 279.900 308.400 V 302.600 C 279.900 302.500 279.800 302.600 279.900 302.600 H 282.800 C 282.855 302.600 282.900 302.555 282.900 302.500 V 296.500 C 282.900 296.445 282.855 296.400 282.800 296.400 H 279.900 C 279.800 296.400 279.900 296.500 279.900 296.400 V 290.600 C 279.900 290.500 279.800 290.600 279.900 290.600 H 282.800 C 282.855 290.600 282.900 290.555 282.900 290.500 V 284.500 C 282.900 284.445 282.855 284.400 282.800 284.400 H 279.900 C 279.800 284.400 279.900 284.500 279.900 284.400 V 278.600 C 279.900 278.500 279.800 278.600 279.900 278.600 H 282.800 C 282.855 278.600 282.900 278.555 282.900 278.500 V 272.500 C 282.900 272.445 282.855 272.400 282.800 272.400 H 279.900 C 279.800 272.400 279.900 272.500 279.900 272.400 V 266.600 C 279.900 266.500 279.800 266.600 279.900 266.600 H 282.800 C 282.855 266.600 282.900 266.555 282.900 266.500 V 260.500 C 282.900 260.445 282.855 260.400 282.800 260.400 H 279.900 C 279.800 260.400 279.900 260.500 279.900 260.400 V 254.600 C 279.900 254.500 279.800 254.600 279.900 254.600 H 282.800 C 282.855 254.600 282.900 254.555 282.900 254.500 V 248.500 C 282.900 248.445 282.855 248.400 282.800 248.400 H 279.900 C 279.800 248.400 279.900 248.500 279.900 248.400 V 242.600 C 279.900 242.500 279.800 242.600 279.900 242.600 H 282.800 C 282.855 242.600 282.900 242.555 282.900 242.500 V 236.500 C 282.900 236.445 282.855 236.400 282.800 236.400 H 279.900 C 279.800 236.400 279.900 236.500 279.900 236.400 V 230.600 C 279.900 230.500 279.800 230.600 279.900 230.600 H 282.800 C 282.855 230.600 282.900 230.555 282.900 230.500 V 224.500 C 282.900 224.445 282.855 224.400 282.800 224.400 H 279.900 C 279.800 224.400 279.900 224.500 279.900 224.400 V 219.500 C 279.900 219.445 279.855 219.400 279.800 219.400 H 229.800 C 229.745 219.400 229.700 219.445 229.700 219.500 V 224.400 C 229.700 224.500 229.800 224.400 229.700 224.400 H 226.800 C 226.745 224.400 226.700 224.445 226.700 224.500 V 230.500 C 226.700 230.555 226.745 230.600 226.800 230.600 H 229.700 C 229.800 230.600 229.700 230.500 229.700 230.600 V 236.400 C 229.700 236.500 229.800 236.400 229.700 236.400 H 226.800 C 226.745 236.400 226.700 236.445 226.700 236.500 V 242.500 C 226.700 242.555 226.745 242.600 226.800 242.600 H 229.700 C 229.800 242.600 229.700 242.500 229.700 242.600 V 248.400 C 229.700 248.500 229.800 248.400 229.700 248.400 H 226.800 C 226.745 248.400 226.700 248.445 226.700 248.500 V 254.500 C 226.700 254.555 226.745 254.600 226.800 254.600 H 229.700 C 229.800 254.600 229.700 254.500 229.700 254.600 V 260.400 C 229.700 260.500 229.800 260.400 229.700 260.400 H 226.800 C 226.745 260.400 226.700 260.445 226.700 260.500 V 266.500 C 226.700 266.555 226.745 266.600 226.800 266.600 H 229.700 C 229.800 266.600 229.700 266.500 229.700 266.600 V 272.400 C 229.700 272.500 229.800 272.400 229.700 272.400 H 226.800 C 226.745 272.400 226.700 272.445 226.700 272.500 V 278.500 C 226.700 278.555 226.745 278.600 226.800 278.600 H 229.700 C 229.800 278.600 229.700 278.500 229.700 278.600 V 284.400 C 229.700 284.500 229.800 284.400 229.700 284.400 H 226.800 C 226.745 284.400 226.700 284.445 226.700 284.500 V 290.500 C 226.700 290.555 226.745 290.600 226.800 290.600 H 229.700 C 229.800 290.600 229.700 290.500 229.700 290.600 V 296.400 C 229.700 296.500 229.800 296.400 229.700 296.400 H 226.800 C 226.745 296.400 226.700 296.445 226.700 296.500 V 302.500 C 226.700 302.555 226.745 302.600 226.800 302.600 H 229.700 C 229.800 302.600 229.700 302.500 229.700 302.600 V 308.400 C 229.700 308.500 229.800 308.400 229.700 308.400 H 226.800 C 226.745 308.400 226.700 308.445 226.700 308.500 V 314.500 C 226.700 314.555 226.745 314.600 226.800 314.600 H 229.700 C 229.800 314.600 229.700 314.500 229.700 314.600 V 319.500 C 229.700 319.555 229.745 319.600 229.800 319.600 Z" stroke="rgb(0,0,0)" stroke-width="0.20" />
  <text dominant-baseline="hanging" font-size="4px" style="font-family: sans-serif ; font-weight: normal; font-style: normal; fill: rgb(255,0,0)" text-anchor="middle" transform="matrix( 1.000 0.000 0.000 1.000 254.800 269.100 )">inner y 1</text>
</g>
<g id="p-7" style="fill:none;stroke-linecap:round;stroke-linejoin:round;">
  <path d="M 229.800 214.900 H 233.700 C 233.800 214.900 233.700 214.800 233.700 214.900 V 217.800 C 233.700 217.855 233.745 217.900 233.800 217.900 H 239.800 C 239.855 217.900 239.900 217.855 239.900 217.800 V 214.900 C 239.900 214.800 239.800 214.900 239.900 214.900 H 245.700 C 245.800 214.900 245.700 214.800 245.700 214.900 V 217.800 C 245.700 217.855 245.745 217.900 245.800 217.900 H 251.800 C 251.855 217.900 251.900 217.855 251.900 217.800 V 214.900 C 251.900 214.800 251.800 214.900 251.900 214.900 H 257.700 C 257.800 214.900 257.700 214.800 257.700 214.900 V 217.800 C 257.700 217.855 257.745 217.900 257.800 217.900 H 263.800 C 263.855 217.900 263.900 217.855 263.900 217.800 V 214.900 C 263.900 214.800 263.800 214.900 263.900 214.900 H 269.700 C 269.800 214.900 269.700 214.800 269.700 214.900 V 217.800 C 269.700 217.855 269.745 217.900 269.800 217.900 H 275.800 C 275.855 217.900 275.900 217.855 275.900 217.800 V 214.900 C 275.900 214.800 275.800 214.900 275.900 214.900 H 279.800 C 279.855 214.900 279.900 214.855 279.900 214.800 V 209.900 C 279.900 209.800 279.800 209.900 279.900 209.900 H 282.800 C 282.855 209.900 282.900 209.855 282.900 209.800 V 203.800 C 282.900 203.745 282.855 203.700 282.800 203.700 H 279.900 C 279.800 203.700 279.900 203.800 279.900 203.700 V 197.900 C 279.900 197.800 279.800 197.900 279.900 197.900 H 282.800 C 282.855 197.900 282.900 197.855 282.900 197.800 V 191.800 C 282.900 191.745 282.855 191.700 282.800 191.700 H 279.900 C 279.800 191.700 279.900 191.800 279.900 191.700 V 185.900 C 279.900 185.800 279.800 185.900 279.900 185.900 H 282.800 C 282.855 185.900 282.900 185.855 282.900 185.800 V 179.800 C 282.900 179.745 282.855 179.700 282.800 179.700 H 279.900 C 279.800 179.700 279.900 179.800 279.900 179.700 V 173.900 C 279.900 173.800 279.800 173.900 279.900 173.900 H 282.800 C 282.855 173.900 282.900 173.855 282.900 173.800 V 167.800 C 282.900 167.745 282.855 167.700 282.800 167.700 H 279.900 C 279.800 167.700 279.900 167.800 279.900 167.700 V 161.900 C 279.900 161.800 279.800 161.900 279.900 161.900 H 282.800 C 282.855 161.900 282.900 161.855 282.900 161.800 V 155.800 C 282.900 155.745 282.855 155.700 282.800 155.700 H 279.900 C 279.800 155.700 279.900 155.800 279.900 155.700 V 149.900 C 279.900 149.800 279.800 149.900 279.900 149.900 H 282.800 C 282.855 149.900 282.900 149.855 282.900 149.800 V 143.800 C 282.900 143.745 282.855 143.700 282.800 143.700 H 279.900 C 279.800 143.700 279.900 143.800 279.900 143.700 V 137.900 C 279.900 137.800 279.800 137.900 279.900 137.900 H 282.800 C 282.855 137.900 282.900 137.855 282.900 137.800 V 131.800 C 282.900 131.745 282.855 131.700 282.800 131.700 H 279.900 C 279.800 131.700 279.900 131.800 279.900 131.700 V 125.900 C 279.900 125.800 279.800 125.900 279.900 125.900 H 282.800 C 282.855 125.900 282.900 125.855 282.900 125.800 V 119.800 C 282.900 119.745 282.855 119.700 282.800 119.700 H 279.900 C 279.800 119.700 279.900 119.800 279.900 119.700 V 114.800 C 279.900 114.745 279.855 114.700 279.800 114.700 H 229.800 C 229.745 114.700 229.700 114.745 229.700 114.800 V 119.700 C 229.700 119.800 229.800 119.700 229.700 119.700 H 226.800 C 226.745 119.700 226.700 119.745 226.700 119.800 V 125.800 C 226.700 125.855 226.745 125.900 226.800 125.900 H 229.700 C 229.800 125.900 229.700 125.800 229.700 125.900 V 131.700 C 229.700 131.800 229.800 131.700 229.700 131.700 H 226.800 C 226.745 131.700 226.700 131.745 226.700 131.800 V 137.800 C 226.700 137.855 226.745 137.900 226.800 137.900 H 229.700 C 229.800 137.900 229.700 137.800 229.700 137.900 V 143.700 C 229.700 143.800 229.800 143.700 229.700 143.700 H 226.800 C 226.745 143.700 226.700 143.745 226.700 143.800 V 149.800 C 226.700 149.855 226.745 149.900 226.800 149.900 H 229.700 C 229.800 149.900 229.700 149.800 229.700 149.900 V 155.700 C 229.700 155.800 229.800 155.700 229.700 155.700 H 226.800 C 226.745 155.700 226.700 155.745 226.700 155.800 V 161.800 C 226.700 161.855 226.745 161.900 226.800 161.900 H 229.700 C 229.800 161.900 229.700 161.800 229.700 161.900 V 167.700 C 229.700 167.800 229.800 167.700 229.700 167.700 H 226.800 C 226.745 167.700 226.700 167.745 226.700 167.800 V 173.800 C 226.700 173.855 226.745 173.900 226.800 173.900 H 229.700 C 229.800 173.900 229.700 173.800 229.700 173.900 V 179.700 C 229.700 179.800 229.800 179.700 229.700 179.700 H 226.800 C 226.745 179.700 226.700 179.745 226.700 179.800 V 185.800 C 226.700 185.855 226.745 185.900 226.800 185.900 H 229.700 C 229.800 185.900 229.700 185.800 229.700 185.900 V 191.700 C 229.700 191.800 229.800 191.700 229.700 191.700 H 226.800 C 226.745 191.700 226.700 191.745 226.700 191.800 V 197.800 C 226.700 197.855 226.745 197.900 226.800 197.900 H 229.700 C 229.800 197.900 229.700 197.800 229.700 197.900 V 203.700 C 229.700 203.800 229.800 203.700 229.700 203.700 H 226.800 C 226.745 203.700 226.700 203.745 226.700 203.800 V 209.800 C 226.700 209.855 226.745 209.900 226.800 209.900 H 229.700 C 229.800 209.900 229.700 209.800 229.700 209.900 V 214.800 C 229.700 214.855 229.745 214.900 229.800 214.900 Z" stroke="rgb(0,0,0)" stroke-width="0.20" />
  <text dominant-baseline="hanging" font-size="4px" style="font-family: sans-serif ; font-weight: normal; font-style: normal; fill: rgb(255,0,0)" text-anchor="middle" transform="matrix( 1.000 0.000 0.000 1.000 254.800 164.400 )">inner y 2</text>
</g>
<g id="p-8" style="fill:none;stroke-linecap:round;stroke-linejoin:round;">
  <path d="M 229.800 110.200 H 233.700 C 233.800 110.200 233.700 110.100 233.700 110.200 V 113.100 C 233.700 113.155 233.745 113.200 233.800 113.200 H 239.800 C 239.855 113.200 239.900 113.155 239.900 113.100 V 110.200 C 239.900 110.100 239.800 110.200 239.900 110.200 H 245.700 C 245.800 110.200 245.700 110.100 245.700 110.200 V 113.100 C 245.700 113.155 245.745 113.200 245.800 113.200 H 251.800 C 251.855 113.200 251.900 113.155 251.900 113.100 V 110.200 C 251.900 110.100 251.800 110.200 251.900 110.200 H 257.700 C 257.800 110.200 257.700 110.100 257.700 110.200 V 113.100 C 257.700 113.155 257.745 113.200 257.800 113.200 H 263.800 C 263.855 113.200 263.900 113.155 263.900 113.100 V 110.200 C 263.900 110.100 263.800 110.200 263.900 110.200 H 269.700 C 269.800 110.200 269.700 110.100 269.700 110.200 V 113.100 C 269.700 113.155 269.745 113.200 269.800 113.200 H 275.800 C 275.855 113.200 275.900 113.155 275.900 113.100 V 110.200 C 275.900 110.100 275.800 110.200 275.900 110.200 H 279.800 C 279.855 110.200 279.900 110.155 279.900 110.100 V 105.200 C 279.900 105.100 279.800 105.200 279.900 105.200 H 282.800 C 282.855 105.200 282.900 105.155 282.900 105.100 V 99.100 C 282.900 99.045 282.855 99.000 282.800 99.000 H 279.900 C 279.800 99.000 279.900 99.100 279.900 99.000 V 93.200 C 279.900 93.100 279.800 93.200 279.900 93.200 H 282.800 C 282.855 93.200 282.900 93.155 282.900 93.100 V 87.100 C 282.900 87.045 282.855 87.000 282.800 87.000 H 279.900 C 279.800 87.000 279.900 87.100 279.900 87.000 V 81.200 C 279.900 81.100 279.800 81.200 279.900 81.200 H 282.800 C 282.855 81.200 282.900 81.155 282.900 81.100 V 75.100 C 282.900 75.045 282.855 75.000 282.800 75.000 H 279.900 C 279.800 75.000 279.900 75.100 279.900 75.000 V 69.200 C 279.900 69.100 279.800 69.200 279.900 69.200 H 282.800 C 282.855 69.200 282.900 69.155 282.900 69.100 V 63.100 C 282.900 63.045 282.855 63.000 282.800 63.000 H 279.900 C 279.800 63.000 279.900 63.100 279.900 63.000 V 57.200 C 279.900 57.100 279.800 57.200 279.900 57.200 H 282.800 C 282.855 57.200 282.900 57.155 282.900 57.100 V 51.100 C 282.900 51.045 282.855 51.000 282.800 51.000 H 279.900 C 279.800 51.000 279.900 51.100 279.900 51.000 V 45.200 C 279.900 45.100 279.800 45.200 279.900 45.200 H 282.800 C 282.855 45.200 282.900 45.155 282.900 45.100 V 39.100 C 282.900 39.045 282.855 39.000 282.800 39.000 H 279.900 C 279.800 39.000 279.900 39.100 279.900 39.000 V 33.200 C 279.900 33.100 279.800 33.200 279.900 33.200 H 282.800 C 282.855 33.200 282.900 33.155 282.900 33.100 V 27.100 C 282.900 27.045 282.855 27.000 282.800 27.000 H 279.900 C 279.800 27.000 279.900 27.100 279.900 27.000 V 21.200 C 279.900 21.100 279.800 21.200 279.900 21.200 H 282.800 C 282.855 21.200 282.900 21.155 282.900 21.100 V 15.100 C 282.900 15.045 282.855 15.000 282.800 15.000 H 279.900 C 279.800 15.000 279.900 15.100 279.900 15.000 V 10.100 C 279.900 10.045 279.855 10.000 279.800 10.000 H 229.800 C 229.745 10.000 229.700 10.045 229.700 10.100 V 15.000 C 229.700 15.100 229.800 15.000 229.700 15.000 H 226.800 C 226.745 15.000 226.700 15.045 226.700 15.100 V 21.100 C 226.700 21.155 226.745 21.200 226.800 21.200 H 229.700 C 229.800 21.200 229.700 21.100 229.700 21.200 V 27.000 C 229.700 27.100 229.800 27.000 229.700 27.000 H 226.800 C 226.745 27.000 226.700 27.045 226.700 27.100 V 33.100 C 226.700 33.155 226.745 33.200 226.800 33.200 H 229.700 C 229.800 33.200 229.700 33.100 229.700 33.200 V 39.000 C 229.700 39.100 229.800 39.000 229.700 39.000 H 226.800 C 226.745 39.000 226.700 39.045 226.700 39.100 V 45.100 C 226.700 45.155 226.745 45.200 226.800 45.200 H 229.700 C 229.800 45.200 229.700 45.100 229.700 45.200 V 51.000 C 229.700 51.100 229.800 51.000 229.700 51.000 H 226.800 C 226.745 51.000 226.700 51.045 226.700 51.100 V 57.100 C 226.700 57.155 226.745 57.200 226.800 57.200 H 229.700 C 229.800 57.200 229.700 57.100 229.700 57.200 V 63.000 C 229.700 63.100 229.800 63.000 229.700 63.000 H 226.800 C 226.745 63.000 226.700 63.045 226.700 63.100 V 69.100 C 226.700 69.155 226.745 69.200 226.800 69.200 H 229.700 C 229.800 69.200 229.700 69.100 229.700 69.200 V 75.000 C 229.700 75.100 229.800 75.000 229.700 75.000 H 226.800 C 226.745 75.000 226.700 75.045 226.700 75.100 V 81.100 C 226.700 81.155 226.745 81.200 226.800 81.200 H 229.700 C 229.800 81.200 229.700 81.100 229.700 81.200 V 87.000 C 229.700 87.100 229.800 87.000 229.700 87.000 H 226.800 C 226.745 87.000 226.700 87.045 226.700 87.100 V 93.100 C 226.700 93.155 226.745 93.200 226.800 93.200 H 229.700 C 229.800 93.200 229.700 93.100 229.700 93.200 V 99.000 C 229.700 99.100 229.800 99.000 229.700 99.000 H 226.800 C 226.745 99.000 226.700 99.045 226.700 99.100 V 105.100 C 226.700 105.155 226.745 105.200 226.800 105.200 H 229.700 C 229.800 105.200 229.700 105.100 229.700 105.200 V 110.100 C 229.700 110.155 229.745 110.200 229.800 110.200 Z" stroke="rgb(0,0,0)" stroke-width="0.20" />
  <text dominant-baseline="hanging" font-size="4px" style="font-family: sans-serif ; font-weight: normal; font-style: normal; fill: rgb(255,0,0)" text-anchor="middle" transform="matrix( 1.000 0.000 0.000 1.000 254.800 59.700 )">inner y 3</text>
</g>
</svg>