<?xml version="1.0" encoding="UTF-8" standalone="no"?>
<!-- Created by Makercase v3 -->

<!-- MAKERCASE_STATE:{"mc":1,"gen":"laserHinge","sv":2,"store":"laserHingeBoxStore","data":"NVBNT8MwDP0vPkdTyug0cmVCcEAgjRvikC1eZylNosQthan/fW7X3fyc5/eRC/SYC8UA5kHBIQ5voZDDHbUFzAV+yfEZzHarwGGaxs2j0GzBV6TmzGBqefLk7nCjIFEf+dmjzTYcEYxeVctyR7ZFxgym0qOC1spM1k9GvfWdcNcKGAfRgfVKa1Bw7ArHFszJ+oJyQ3O8Bc+Bv/6SYDhRaERZAboGP8X7VuC23tO/cKpaLfidpK9EXZAdpP3THe4Z05S6FruMwWG2By/n35XSP6I/pJj5I7F82mxRMIkd4wt5lAXnDsfxCg==","crc":2634785574} -->

<svg
   width="280.00mm"
   height="201.96mm"
   viewBox="-2 -2 280.00 201.96"
   version="1.1"
   id="svg30"
   sodipodi:docname="box - single - Uno Flip.svg"
   xml:space="preserve"
   inkscape:version="1.4.3 (0d15f75, 2025-12-25)"
   xmlns:inkscape="http://www.inkscape.org/namespaces/inkscape"
   xmlns:sodipodi="http://sodipodi.sourceforge.net/DTD/sodipodi-0.dtd"
   xmlns:xlink="http://www.w3.org/1999/xlink"
   xmlns="http://www.w3.org/2000/svg"
   xmlns:svg="http://www.w3.org/2000/svg"><defs
     id="defs30" /><sodipodi:namedview
     id="namedview30"
     pagecolor="#ffffff"
     bordercolor="#000000"
     borderopacity="0.25"
     inkscape:showpageshadow="2"
     inkscape:pageopacity="0.0"
     inkscape:pagecheckerboard="0"
     inkscape:deskcolor="#d1d1d1"
     inkscape:document-units="mm"
     inkscape:zoom="0.64"
     inkscape:cx="783.59375"
     inkscape:cy="496.09375"
     inkscape:window-width="1920"
     inkscape:window-height="1009"
     inkscape:window-x="-8"
     inkscape:window-y="-8"
     inkscape:window-maximized="1"
     inkscape:current-layer="svg30" /><path
     stroke="#ff0000"
     stroke-width="0.25"
     fill="none"
     d="m 197,185.46484 h 3 v -15 h -3 v -15 h 3 v -15 h -3 v -6.5 h -88 v 6.5 h -3 v 15 h 3 v 15 h -3 v 15 h 3 v 6.5 3 h 6.5 v -3 h 15 v 3 h 15 v -3 h 15 v 3 h 15 v -3 h 15 v 3 h 6.5 v -3 z"
     id="path1" /><path
     stroke="#ff0000"
     stroke-width="0.25"
     fill="none"
     d="m 197,121.46484 h 3 v -15 h -3 V 91.464844 h 3 v -15 h -3 v -6.5 h -88 v 6.5 h -3 v 15 h 3 v 14.999996 h -3 v 15 h 3 v 6.5 3 h 6.5 v -3 h 15 v 3 h 15 v -3 h 15 v 3 h 15 v -3 h 15 v 3 h 6.5 v -3 z"
     id="path3" /><path
     stroke="#ff0000"
     stroke-width="0.25"
     fill="none"
     d="m 215.5,191.96484 h 15 v 3 h 15 v -3 h 15 v 3 h 9.5 3 v -3 -6.5 h -3 v -15 h 3 v -15 h -3 v -15 h 3 v -6.5 h -3 -64 -3 v 6.5 h 3 v 15 h -3 v 15 h 3 v 15 h -3 v 6.5 3 h 3 9.5 z"
     id="path5" /><path
     stroke="#0000ff"
     stroke-width="0.25"
     fill="none"
     d="m 263.5,144.46484 v -5 h 3 v 5 z"
     id="path6" /><path
     stroke="#ff0000"
     stroke-width="0.25"
     fill="none"
     d="m 215.5,127.96484 h 15 v 3 h 15 v -3 h 15 v 3 h 9.5 3 v -3 -6.5 h -3 v -15 h 3 V 91.464844 h -3 v -15 h 3 v -6.5 h -3 -64 -3 v 6.5 h 3 v 15 h -3 v 14.999996 h 3 v 15 h -3 v 6.5 3 h 3 9.5 z"
     id="path8" /><path
     stroke="#0000ff"
     stroke-width="0.25"
     fill="none"
     d="m 263.5,80.464844 v -5 h 3 v 5 z"
     id="path9" /><g
     transform="matrix(1,0,0,-1,33.653941,42.5)"
     id="g12"><path
       stroke="#ff0000"
       stroke-width="0.25"
       fill="none"
       d="M 1.017,-4.895 2.3,-4.439 3.413,-3.654 4.272,-2.598 4.815,-1.349 5,0 4.815,1.349 4.272,2.598 3.413,3.654 2.3,4.439 1.017,4.895 -0.341,4.988 -1.674,4.711 -2.883,4.085 -3.879,3.155 -4.586,1.992 -4.953,0.681 v -1.362 l 0.367,-1.311 0.707,-1.163 0.996,-0.93 1.209,-0.626 1.333,-0.277 z"
       id="path11" /><path
       stroke="#0000ff"
       stroke-width="0.25"
       fill="none"
       d="m -1.477,-2.5 v 5 h 3 v -5 z"
       id="path12" /></g><g
     transform="matrix(1,0,0,-1,19.965616,42.5)"
     id="g14"><path
       stroke="#ff0000"
       stroke-width="0.25"
       fill="none"
       d="M 1.017,-4.895 2.3,-4.439 3.413,-3.654 4.272,-2.598 4.815,-1.349 5,0 4.815,1.349 4.272,2.598 3.413,3.654 2.3,4.439 1.017,4.895 -0.341,4.988 -1.674,4.711 -2.883,4.085 -3.879,3.155 -4.586,1.992 -4.953,0.681 v -1.362 l 0.367,-1.311 0.707,-1.163 0.996,-0.93 1.209,-0.626 1.333,-0.277 z"
       id="path13" /><path
       stroke="#0000ff"
       stroke-width="0.25"
       fill="none"
       d="m -1.477,-2.5 v 5 h 3 v -5 z"
       id="path14" /></g><g
     transform="matrix(1,0,0,-1,45.154462,42.5)"
     id="g15"><path
       stroke="#ff0000"
       stroke-width="0.25"
       fill="none"
       d="m -3,-2.5 h 6 v 5 h -6 z"
       id="path15" /></g><g
     transform="matrix(1,0,0,-1,6,42.5)"
     id="g16"><path
       stroke="#ff0000"
       stroke-width="0.25"
       fill="none"
       d="m -3,-2.5 h 6 v 5 h -6 z"
       id="path16" /></g><path
     stroke="#ff0000"
     stroke-width="0.25"
     fill="none"
     d="m 87.5,51.964844 h -15 v 3 h -15 v -3 h -15 v 3 h -15 v -3 h -15 v 3 H 6 v 9.5 H 3 v 15 h 3 v 15 H 3 v 14.999996 h 3 v 9.5 h 6.5 v 3 h 15 v -3 h 15 v 3 h 15 v -3 h 15 v 3 h 15 v -3 H 94 v -9.5 h 3 V 94.464844 h -3 v -15 h 3 v -15 h -3 v -9.5 h -6.5 z"
     id="path17" /><path
     stroke="#ff0000"
     stroke-width="0.25"
     fill="none"
     d="m 261.116,66.684562 1.608,-0.64 1.431,-0.971 1.191,-1.256 0.891,-1.482 0.552,-1.639 0.188,-1.72 H 267 v -8 -9 h -3 -9.5 v 3 h -15 v -3 h -15 v 3 h -15 v -3 h -9.5 -3 v 6 3 h 42.687 l 13.422,13.424 0.06,0.078 0.123,0.104 0.051,0.051 v -0.008 l 1.144,0.973 1.529,0.81 1.667,0.463 1.726,0.093 z"
     id="path19" /><path
     stroke="#0000ff"
     stroke-width="0.25"
     fill="none"
     d="m 257.235,63.876562 -1.258,-0.652 -1.035,-0.966 -0.735,-1.21 -0.383,-1.364 v -1.416 l 0.383,-1.364 0.735,-1.21 1.035,-0.966 1.258,-0.652 1.386,-0.288 1.413,0.097 1.334,0.474 1.157,0.817 0.894,1.098 0.564,1.299 0.193,1.403 -0.193,1.403 -0.564,1.299 -0.894,1.098 -1.157,0.817 -1.334,0.474 -1.413,0.097 z"
     id="path20" /><path
     stroke="#ff0000"
     stroke-width="0.25"
     fill="none"
     d="m 67.116,48.684562 1.608,-0.64 1.431,-0.971 1.191,-1.256 0.891,-1.482 0.552,-1.639 0.188,-1.72 H 73 v -8 -9 h -3 -9.5 v 3 h -15 v -3 h -15 v 3 h -15 v -3 H 6 3 v 6 3 h 42.687 l 13.422,13.424 0.06,0.078 0.123,0.104 0.051,0.051 v -0.008 l 1.144,0.973 1.529,0.81 1.667,0.463 1.726,0.093 z"
     id="path22" /><path
     stroke="#0000ff"
     stroke-width="0.25"
     fill="none"
     d="m 63.235,45.876562 -1.258,-0.652 -1.035,-0.966 -0.735,-1.21 -0.383,-1.364 v -1.416 l 0.383,-1.364 0.735,-1.21 1.035,-0.966 1.258,-0.652 1.386,-0.288 1.413,0.097 1.334,0.474 1.157,0.817 0.894,1.098 0.564,1.299 0.193,1.403 -0.193,1.403 -0.564,1.299 -0.894,1.098 -1.157,0.817 -1.334,0.474 -1.413,0.097 z"
     id="path23" /><path
     stroke="#ff0000"
     stroke-width="0.25"
     fill="none"
     d="m 194,57.964844 h -9.5 v 3 h -15 v -3 h -15 v 3 h -15 v -3 h -15 v 3 h -15 v -3 H 100 v 3 6 h 94 v -6 z"
     id="path25" /><path
     stroke="#ff0000"
     stroke-width="0.25"
     fill="none"
     d="m 184.5,49.113062 h -15 v 3 h -15 v -3 h -15 v 3 h -15 v -3 h -15 v 3 H 100 v 2.852 h 94 v -2.852 h -9.5 z"
     id="path27" /><path
     stroke="#ff0000"
     stroke-width="0.25"
     fill="none"
     d="m 90.5,124.96484 h -15 v 3 h -15 v -3 h -15 v 3 h -15 v -3 h -15 v 3 H 6 v 9.5 H 3 v 15 h 3 v 15 H 3 v 15 h 3 v 9.5 3 h 9.5 v -3 h 15 v 3 h 15 v -3 h 15 v 3 h 15 v -3 h 15 v 3 h 9.5 v -3 -9.5 h 3 v -15 h -3 v -15 h 3 v -15 h -3 v -9.5 h -9.5 z"
     id="path29" /><image
     width="56.782337"
     height="56.782337"
     preserveAspectRatio="none"
     xlink:href="Uno_Flip%2521_logo.png"
     id="image1"
     x="24.608831"
     y="131.57367" /><g
     id="g40"
     transform="matrix(0.31195055,0,0,0.31195055,9.0879449,62.430842)"><path
       style="fill:#000000;stroke-width:0.0954787"
       d="m 57.899196,104.37596 v -0.56443 l 0.511558,-0.0162 c 1.185968,-0.0377 2.198619,-0.2145 3.303041,-0.57708 0.257037,-0.0844 0.848177,-0.30658 1.313625,-0.49378 1.419118,-0.57074 1.928245,-0.74793 2.627274,-0.91434 0.693818,-0.16517 1.368677,-0.25218 2.115709,-0.27276 l 0.536818,-0.0148 v 0.55949 0.55948 l -0.06945,3.7e-4 c -0.47523,0.003 -1.369399,0.0894 -1.850452,0.17972 -0.786895,0.14782 -1.414466,0.35194 -2.840119,0.92382 -1.173081,0.47056 -1.738103,0.6657 -2.397565,0.82803 -0.928473,0.22855 -2.046961,0.36693 -2.965788,0.36693 H 57.89922 Z m 0,-2.29904 v -0.57219 l 0.372618,-10e-5 c 0.401335,-1e-4 1.054125,-0.0504 1.490769,-0.11486 1.093773,-0.16139 1.856714,-0.38975 3.48465,-1.04299 0.558566,-0.22413 1.20086,-0.469997 1.427321,-0.546368 1.03111,-0.347708 2.029206,-0.527192 3.12111,-0.561243 l 0.511557,-0.01593 v 0.568524 0.568497 l -0.473667,0.015 c -1.050853,0.0334 -2.063496,0.23557 -3.12577,0.62407 -0.182106,0.0666 -0.756894,0.29145 -1.277298,0.49966 -0.520411,0.20821 -1.157211,0.44735 -1.415123,0.53144 -1.170572,0.38162 -2.277816,0.5697 -3.55408,0.60371 l -0.562087,0.0149 z m 0,-2.274327 v -0.565347 l 0.397878,-0.017 c 1.141279,-0.0486 1.948582,-0.166469 2.86684,-0.41839 0.540225,-0.148211 0.99666,-0.312228 2.090872,-0.751325 0.534926,-0.214665 1.171527,-0.457267 1.414684,-0.53912 1.049738,-0.353388 2.014098,-0.52636 3.176714,-0.569824 l 0.461037,-0.01723 v 0.568373 0.568373 l -0.435769,0.0166 c -1.012056,0.03849 -1.904115,0.203383 -2.888249,0.534024 -0.223422,0.07505 -0.848658,0.314494 -1.389415,0.53207 -1.787573,0.719202 -2.698756,0.975263 -3.991283,1.121613 -0.367791,0.0417 -1.319352,0.10122 -1.633839,0.10231 l -0.06945,2.8e-4 z m 0.08209,-2.609035 -0.08209,-0.01187 v -0.465743 -0.465752 l 0.15789,-9.7e-5 c 0.22877,-1.92e-4 0.334415,-0.03681 0.416346,-0.144192 l 0.06993,-0.09169 0.0072,-1.814549 0.0072,-1.81455 h 0.542496 0.542488 l -4.74e-4,1.825198 c -2.88e-4,1.036525 -0.01107,1.898029 -0.02486,1.993754 -0.06968,0.481526 -0.299884,0.779213 -0.714522,0.923854 -0.151907,0.053 -0.236725,0.06472 -0.51058,0.07058 -0.180622,0.0032 -0.365352,0.0016 -0.410508,-0.0048 z M 54.573259,95.821433 C 54.267361,95.755763 54.062207,95.589776 53.95281,95.319209 53.89555,95.17748 53.89507,95.167495 53.88786,93.780816 l -0.0072,-1.395734 h 0.53033 0.530323 l 0.0072,1.155744 c 0.0082,1.256257 0.0089,1.262977 0.149365,1.321156 0.03969,0.01643 0.106422,0.02486 0.148298,0.01877 l 0.07618,-0.01114 v 0.460035 c 0,0.455391 -5.69e-4,0.460195 -0.05685,0.476338 -0.09829,0.02815 -0.582607,0.03905 -0.692341,0.01555 z m 7.001577,0.0087 c -0.02783,-0.0056 -0.113045,-0.02222 -0.189468,-0.03712 -0.07642,-0.01492 -0.234119,-0.07265 -0.350437,-0.128275 -0.378504,-0.180952 -0.643128,-0.50936 -0.790351,-0.980862 -0.05164,-0.165507 -0.05918,-0.240574 -0.05918,-0.593658 0,-0.353172 0.0072,-0.428119 0.05918,-0.593667 0.10145,-0.324734 0.239315,-0.558196 0.445014,-0.75359 0.299051,-0.284079 0.605783,-0.407638 1.01326,-0.408167 0.354679,-4.74e-4 0.600427,0.08794 0.822869,0.296018 l 0.122734,0.114795 v -0.180295 -0.180295 h 0.543129 0.543145 l 5.69e-4,1.092586 c 2.89e-4,0.600931 0.01107,1.13807 0.0239,1.193642 0.03441,0.149124 0.123848,0.214729 0.292643,0.214729 h 0.137537 v 0.451559 0.451566 l -0.07193,0.01443 c -0.317327,0.06343 -0.713778,0.03777 -0.937158,-0.06079 -0.138876,-0.06126 -0.290863,-0.202956 -0.358649,-0.334302 l -0.0498,-0.09654 -0.07065,0.09746 c -0.09911,0.136808 -0.217801,0.231216 -0.393886,0.313276 -0.208514,0.09718 -0.539006,0.145709 -0.732606,0.107585 z m 0.675181,-0.975258 c 0.141642,-0.05982 0.306035,-0.22962 0.381278,-0.393908 0.07875,-0.171923 0.07779,-0.57151 -0.0016,-0.745373 -0.08292,-0.18124 -0.18869,-0.301135 -0.339226,-0.384526 -0.119517,-0.06624 -0.158378,-0.07442 -0.34921,-0.07417 -0.240028,3.76e-4 -0.349058,0.0421 -0.500555,0.191513 -0.31638,0.312137 -0.340253,0.893044 -0.0502,1.222519 0.219885,0.249805 0.540939,0.318504 0.859677,0.183968 z m 5.286698,0.931857 c -0.287928,-0.07506 -0.469144,-0.22986 -0.570122,-0.486938 -0.05413,-0.137769 -0.05967,-0.199917 -0.07594,-0.855901 -0.0096,-0.389041 -0.02879,-0.742108 -0.04258,-0.784601 -0.06159,-0.190527 -0.181337,-0.337173 -0.317133,-0.388488 -0.208594,-0.07884 -0.512575,0.01636 -0.647611,0.202764 C 65.737605,93.674745 65.7305,93.7365 65.7305,94.802157 v 0.968008 h -0.54313 -0.543145 v -1.69257 -1.69257 h 0.543145 0.543129 v 0.190856 0.190855 l 0.143688,-0.117048 c 0.279964,-0.228056 0.526368,-0.315193 0.891344,-0.315193 0.517195,0 0.862211,0.18809 1.039339,0.56661 0.123093,0.263036 0.147712,0.443011 0.148875,1.088071 5.7e-4,0.319563 0.01163,0.626504 0.02437,0.682084 0.02959,0.127906 0.104633,0.189461 0.2308,0.189461 h 0.09825 v 0.453226 c 0,0.313324 -0.0089,0.458752 -0.02895,0.471125 -0.05573,0.03441 -0.61098,0.03577 -0.741555,0.0016 z m -17.51933,-2.47978 v -2.46325 l 1.660991,0.0064 1.660991,0.0064 0.0064,0.511558 0.0064,0.511566 h -1.099495 -1.099434 v 0.555766 0.555768 h 0.909444 0.909427 v 0.517877 0.517877 h -0.909427 -0.909444 v 0.871537 0.871545 h -0.568321 -0.568389 z m 5.683999,0.770682 v -1.692571 h 0.543129 0.543145 l 0.0016,0.233678 c 0.0016,0.227839 0.0024,0.232106 0.04427,0.170744 0.153703,-0.225539 0.376314,-0.373461 0.664162,-0.44131 0.162236,-0.03825 0.514301,-0.05229 0.589247,-0.02358 0.03456,0.01324 0.04002,0.08238 0.04002,0.511566 V 93.33239 H 57.77907 c -0.342514,0 -0.350501,0.0016 -0.517219,0.08335 -0.194224,0.09561 -0.322081,0.233982 -0.406042,0.439425 -0.05204,0.127272 -0.05517,0.17894 -0.06279,1.024527 l -0.008,0.890495 h -0.541662 -0.541663 z m -1.506462,-2.158075 c -0.332875,-0.104145 -0.509336,-0.495664 -0.365817,-0.81165 0.05726,-0.126142 0.222227,-0.271136 0.352971,-0.31031 0.479698,-0.143719 0.937984,0.184994 0.874039,0.626906 -0.05654,0.390941 -0.457437,0.621379 -0.861193,0.495054 z m 4.698709,-0.01667 c -0.04362,-0.01259 -0.133863,-0.0599 -0.200678,-0.10509 -0.160448,-0.108483 -0.236509,-0.256629 -0.236726,-0.461054 -3.84e-4,-0.359113 0.25428,-0.6 0.635078,-0.600762 0.496978,-7.22e-4 0.787391,0.458527 0.563457,0.891577 -0.115541,0.223422 -0.482368,0.356115 -0.761131,0.275329 z"
       id="path30"
       sodipodi:nodetypes="ccsssssccccssssccccssssscccsssssccccssssscccssssccccccccsccccccsssccssscccssscsssscsssssscsccccccsscccssscssccsssscsssssssssscccccccccsssssscscsscccccccccccccccccccccccccssssscssssccccssssssscsss" /><path
       style="font-size:6.91445px;line-height:1;font-family:Bahnschrift;-inkscape-font-specification:'Bahnschrift, @wght=600,wdth=75';font-variation-settings:'wdth' 75, 'wght' 600;stroke-width:0.264583"
       d="m 13.245411,95.782272 v -4.908989 h 0.736011 v 4.908989 z m 0.3545,-2.042598 v -0.702249 h 1.620575 v 0.702249 z m 0,-2.160766 v -0.705625 h 1.789384 v 0.705625 z m 3.244525,4.254007 q -0.516558,0 -0.803535,-0.293729 -0.2836,-0.293729 -0.2836,-0.827168 v -1.309964 q 0,-0.567201 0.276848,-0.874435 0.280224,-0.31061 0.783277,-0.31061 0.509806,0 0.79003,0.293729 0.280225,0.293729 0.280225,0.833921 v 0.955463 h -1.569932 v -0.567201 h 0.86093 v -0.401767 q 0,-0.216077 -0.09453,-0.334244 -0.09453,-0.118167 -0.26672,-0.118167 -0.165433,0 -0.25659,0.128296 -0.09116,0.124919 -0.09116,0.357877 v 1.370735 q 0,0.202572 0.09791,0.313987 0.09791,0.108038 0.276848,0.108038 0.165434,0 0.253215,-0.0844 0.09116,-0.08441 0.09116,-0.243086 v -0.0709 l 0.709001,0.0034 v 0.06077 q 0,0.479419 -0.276848,0.746139 -0.276848,0.263343 -0.776525,0.263343 z m 1.654336,-4.203364 v -0.732635 h 0.736011 v 0.732635 z m 0,4.152721 v -3.504491 h 0.736011 v 3.504491 z m 2.336328,0.01688 q -0.455786,0 -0.661734,-0.23971 -0.205948,-0.23971 -0.205948,-0.688744 v -3.61253 h 0.73601 v 3.545006 q 0,0.131672 0.06077,0.205948 0.06077,0.07428 0.172186,0.07428 h 0.246462 v 0.715753 z M 19.63655,92.963147 V 92.27778 h 1.546298 v 0.685367 z m 3.045329,2.869767 q -0.486172,0 -0.759644,-0.256591 -0.270096,-0.259967 -0.270096,-0.729258 v -1.661089 q 0,-0.465915 0.270096,-0.715753 0.273472,-0.253215 0.759644,-0.253215 0.489549,0 0.756268,0.253215 0.26672,0.249838 0.26672,0.715753 v 1.671218 q 0,0.465915 -0.26672,0.722506 -0.266719,0.253214 -0.756268,0.253214 z m -0.0034,-0.688744 q 0.1418,0 0.216077,-0.08778 0.07765,-0.08778 0.07765,-0.249838 v -1.573308 q 0,-0.155305 -0.07765,-0.243086 -0.07428,-0.08778 -0.216077,-0.08778 -0.135048,0 -0.216077,0.08778 -0.07765,0.08778 -0.07765,0.243086 v 1.573308 q 0,0.162057 0.07765,0.249838 0.08103,0.08778 0.216077,0.08778 z m 3.055458,0.638101 V 92.27778 h 0.739387 v 3.504491 z m 1.43826,0 v -2.451118 q 0,-0.219453 -0.08778,-0.327491 -0.08778,-0.111415 -0.263344,-0.111415 -0.175562,0 -0.263343,0.111415 -0.08441,0.111414 -0.08441,0.334243 l -0.0709,-0.459163 q 0.114791,-0.334243 0.320738,-0.4963 0.205948,-0.165434 0.459163,-0.165434 0.351125,0 0.536815,0.23971 0.189067,0.236334 0.189067,0.678615 v 2.646938 z m 2.403852,0.05064 q -0.486172,0 -0.759644,-0.256591 -0.270096,-0.259967 -0.270096,-0.729258 v -1.661089 q 0,-0.465915 0.270096,-0.715753 0.273472,-0.253215 0.759644,-0.253215 0.489548,0 0.756268,0.253215 0.266719,0.249838 0.266719,0.715753 v 1.671218 q 0,0.465915 -0.266719,0.722506 -0.26672,0.253214 -0.756268,0.253214 z m -0.0034,-0.688744 q 0.1418,0 0.216076,-0.08778 0.07765,-0.08778 0.07765,-0.249838 v -1.573308 q 0,-0.155305 -0.07765,-0.243086 -0.07428,-0.08778 -0.216076,-0.08778 -0.135048,0 -0.216077,0.08778 -0.07765,0.08778 -0.07765,0.243086 v 1.573308 q 0,0.162057 0.07765,0.249838 0.08103,0.08778 0.216077,0.08778 z m 3.021696,0.638101 v -4.908989 h 0.73601 v 4.908989 z m 0.3545,-2.042598 v -0.702249 h 1.620575 v 0.702249 z m 0,-2.160766 v -0.705625 h 1.789384 v 0.705625 z m 3.632788,4.203364 v -2.538899 q 0,-0.175563 -0.09453,-0.270096 -0.09453,-0.09791 -0.266719,-0.09791 -0.145177,0 -0.229582,0.09791 -0.0844,0.09453 -0.0844,0.270096 H 35.19744 q 0,-0.489549 0.270096,-0.756268 0.273472,-0.270096 0.766396,-0.270096 0.499678,0 0.776526,0.266719 0.276848,0.26672 0.276848,0.759645 v 2.538899 z m -0.62122,0.05064 q -0.411896,0 -0.624597,-0.249838 -0.209324,-0.249839 -0.209324,-0.742763 0,-0.57733 0.283601,-0.871059 0.2836,-0.293729 0.83392,-0.293729 h 0.357877 l 0.04727,0.617844 h -0.381511 q -0.216076,0 -0.330867,0.138424 -0.111414,0.138424 -0.111414,0.40852 0,0.175562 0.08441,0.266719 0.0844,0.09116 0.249838,0.09116 0.205948,0 0.313986,-0.11479 0.108039,-0.114791 0.108039,-0.340996 l 0.06415,0.31061 q -0.0034,0.256591 -0.0844,0.432153 -0.07765,0.172186 -0.229582,0.259967 -0.151929,0.08778 -0.371381,0.08778 z m 3.409956,0 q -0.23971,0 -0.422024,-0.155305 -0.178939,-0.158681 -0.263344,-0.445658 l 0.04727,-0.519934 q 0,0.145177 0.04051,0.246462 0.04389,0.09791 0.118167,0.151929 0.07428,0.05064 0.182315,0.05064 0.162057,0 0.249838,-0.121543 0.08778,-0.121543 0.08778,-0.340996 V 93.33453 q 0,-0.2127 -0.08778,-0.327491 -0.08778,-0.118167 -0.249838,-0.118167 -0.108038,0 -0.182315,0.05064 -0.07428,0.04727 -0.118167,0.145176 -0.04051,0.09453 -0.04051,0.236334 l -0.0709,-0.462539 q 0.118167,-0.307234 0.31061,-0.472667 0.192443,-0.16881 0.422025,-0.16881 0.357876,0 0.55032,0.270096 0.195819,0.270095 0.195819,0.769772 v 1.515913 q 0,0.503053 -0.202572,0.783277 -0.199195,0.276848 -0.567201,0.276848 z m -1.374112,-0.05064 v -4.908989 h 0.736011 v 4.908989 z m 2.748225,0 v -4.908989 h 0.73601 v 4.908989 z m 0.344372,0 v -0.705625 h 1.728612 v 0.705625 z m 3.63954,0 v -2.538899 q 0,-0.175563 -0.09453,-0.270096 -0.09453,-0.09791 -0.266719,-0.09791 -0.145177,0 -0.229582,0.09791 -0.08441,0.09453 -0.08441,0.270096 h -0.709001 q 0,-0.489549 0.270096,-0.756268 0.273472,-0.270096 0.766396,-0.270096 0.499677,0 0.776526,0.266719 0.276848,0.26672 0.276848,0.759645 v 2.538899 z m -0.621221,0.05064 q -0.411895,0 -0.624596,-0.249838 -0.209324,-0.249839 -0.209324,-0.742763 0,-0.57733 0.2836,-0.871059 0.283601,-0.293729 0.833921,-0.293729 h 0.357877 l 0.04727,0.617844 H 44.41441 q -0.216076,0 -0.330867,0.138424 -0.111414,0.138424 -0.111414,0.40852 0,0.175562 0.0844,0.266719 0.0844,0.09116 0.249838,0.09116 0.205948,0 0.313986,-0.11479 0.108039,-0.114791 0.108039,-0.340996 l 0.06415,0.31061 q -0.0034,0.256591 -0.0844,0.432153 -0.07765,0.172186 -0.229581,0.259967 -0.151929,0.08778 -0.371382,0.08778 z m 3.409959,0 q -0.23971,0 -0.422024,-0.155305 -0.178939,-0.158681 -0.263344,-0.445658 l 0.04727,-0.519934 q 0,0.145177 0.04051,0.246462 0.04389,0.09791 0.118167,0.151929 0.07428,0.05064 0.182315,0.05064 0.162057,0 0.249838,-0.121543 0.08778,-0.121543 0.08778,-0.340996 V 93.33453 q 0,-0.2127 -0.08778,-0.327491 -0.08778,-0.118167 -0.249838,-0.118167 -0.108038,0 -0.182315,0.05064 -0.07428,0.04727 -0.118167,0.145176 -0.04051,0.09453 -0.04051,0.236334 l -0.0709,-0.462539 q 0.118167,-0.307234 0.31061,-0.472667 0.192443,-0.16881 0.422024,-0.16881 0.357877,0 0.55032,0.270096 0.19582,0.270095 0.19582,0.769772 v 1.515913 q 0,0.503053 -0.202572,0.783277 -0.199196,0.276848 -0.567201,0.276848 z m -1.374112,-0.05064 v -4.908989 h 0.736011 v 4.908989 z"
       id="path38" /><path
       style="font-size:6.91445px;line-height:1;font-family:Bahnschrift;-inkscape-font-specification:'Bahnschrift, @wght=600,wdth=75';font-variation-settings:'wdth' 75, 'wght' 600;stroke-width:0.264583"
       d="m 14.295408,104.29959 q -0.516558,0 -0.803535,-0.29373 -0.2836,-0.29373 -0.2836,-0.82717 v -1.30997 q 0,-0.5672 0.276848,-0.87443 0.280224,-0.31061 0.783277,-0.31061 0.509806,0 0.79003,0.29373 0.280225,0.29373 0.280225,0.83392 v 0.95546 h -1.569932 v -0.5672 h 0.86093 v -0.40177 q 0,-0.21607 -0.09453,-0.33424 -0.09453,-0.11817 -0.26672,-0.11817 -0.165433,0 -0.256591,0.1283 -0.09116,0.12492 -0.09116,0.35788 v 1.37073 q 0,0.20257 0.09791,0.31399 0.09791,0.10804 0.276848,0.10804 0.165433,0 0.253215,-0.0844 0.09116,-0.0844 0.09116,-0.24309 v -0.0709 l 0.709001,0.003 v 0.0608 q 0,0.47942 -0.276848,0.74614 -0.276848,0.26335 -0.776525,0.26335 z m 4.574746,-0.0506 v -2.45112 q 0,-0.21945 -0.08778,-0.32749 -0.08778,-0.11141 -0.26672,-0.11141 -0.172186,0 -0.259967,0.11141 -0.08441,0.11142 -0.08441,0.33425 l -0.07765,-0.46592 q 0.118167,-0.33087 0.327491,-0.49292 0.209324,-0.16206 0.462539,-0.16206 0.351124,0 0.540191,0.23971 0.189067,0.23633 0.189067,0.67861 v 2.64694 z m -2.883272,0 v -3.50449 h 0.742763 v 3.50449 z m 1.441636,0 v -2.45112 q 0,-0.21945 -0.08778,-0.32749 -0.08441,-0.11141 -0.256591,-0.11141 -0.175562,0 -0.266719,0.11141 -0.08778,0.11142 -0.08778,0.33425 l -0.0709,-0.4693 q 0.118167,-0.32749 0.324115,-0.48954 0.209324,-0.16206 0.469292,-0.16206 0.344372,0 0.530062,0.2262 0.189067,0.22621 0.189067,0.65499 v 2.68407 z m 5.469438,-4.908987 v 4.908987 h -0.73601 v -4.0987 l -0.685368,0.37476 v -0.78328 l 0.648229,-0.401767 z m 1.755622,4.959637 q -0.530063,0 -0.823792,-0.30049 -0.290353,-0.30048 -0.290353,-0.8508 v -2.70771 q 0,-0.550317 0.290353,-0.850799 0.293729,-0.300481 0.823792,-0.300481 0.530063,0 0.820416,0.300481 0.293729,0.300482 0.293729,0.850799 v 2.70771 q 0,0.55032 -0.293729,0.8508 -0.290353,0.30049 -0.820416,0.30049 z m 0,-0.71576 q 0.178939,0 0.276848,-0.11479 0.101286,-0.11479 0.101286,-0.32074 v -2.70771 q 0,-0.20595 -0.101286,-0.32074 -0.101286,-0.11479 -0.276848,-0.11479 -0.175562,0 -0.276848,0.11479 -0.101286,0.11479 -0.101286,0.32074 v 2.70771 q 0,0.20595 0.101286,0.32074 0.101286,0.11479 0.276848,0.11479 z m 3.244525,-4.824583 -1.083759,6.421523 h -0.678615 l 1.083759,-6.421523 z m 1.50916,5.540343 q -0.364629,0 -0.62122,-0.12492 -0.256591,-0.12492 -0.395015,-0.36126 -0.135048,-0.23633 -0.135048,-0.57057 v -0.3545 h 0.742763 v 0.32073 q 0,0.17557 0.108038,0.2701 0.108039,0.0945 0.300482,0.0945 0.182314,0 0.2836,-0.10466 0.101286,-0.10466 0.101286,-0.29373 v -0.68874 q 0,-0.20933 -0.09453,-0.32074 -0.09453,-0.11479 -0.263344,-0.11479 h -0.303857 v -0.71238 h 0.303857 q 0.131672,0 0.202572,-0.0945 0.07428,-0.0945 0.07428,-0.26672 v -0.64486 q 0,-0.15192 -0.08103,-0.23295 -0.08103,-0.0844 -0.226205,-0.0844 -0.155305,0 -0.243087,0.0844 -0.0844,0.0844 -0.0844,0.23971 v 0.36125 h -0.739387 v -0.36801 q 0,-0.499672 0.286976,-0.769768 0.286977,-0.273472 0.803535,-0.273472 0.489548,0 0.756268,0.273472 0.266719,0.270096 0.266719,0.769768 v 0.67187 q 0,0.18231 -0.118166,0.36125 -0.114791,0.17894 -0.327491,0.32074 0.249838,0.0912 0.388262,0.2971 0.138424,0.20258 0.138424,0.4828 v 0.71913 q 0,0.53344 -0.297105,0.82379 -0.293729,0.29036 -0.827168,0.29036 z m 2.957547,-5.540343 -1.083759,6.421523 h -0.678615 l 1.083759,-6.421523 z m 0.327492,5.489693 v -0.65836 l 1.043245,-1.84002 q 0.222829,-0.38827 0.330867,-0.70225 0.108038,-0.31399 0.108038,-0.55032 v -0.0371 q 0,-0.22283 -0.08778,-0.33424 -0.08441,-0.11479 -0.259967,-0.11479 -0.209324,0 -0.31061,0.15192 -0.09791,0.15193 -0.09791,0.45917 v 0.0911 h -0.752891 v -0.0911 q 0,-0.665113 0.2836,-0.999357 0.283601,-0.334243 0.847425,-0.334243 0.567201,0 0.847426,0.297105 0.2836,0.293729 0.2836,0.881185 v 0.0338 q 0,0.28023 -0.118167,0.64148 -0.11479,0.36125 -0.351124,0.80354 l -0.854178,1.58681 h 1.316717 v 0.71575 z m 3.92314,0.0506 q -0.530063,0 -0.823792,-0.30049 -0.290353,-0.30048 -0.290353,-0.8508 v -2.70771 q 0,-0.550317 0.290353,-0.850799 0.293729,-0.300481 0.823792,-0.300481 0.530062,0 0.820415,0.300481 0.293729,0.300482 0.293729,0.850799 v 2.70771 q 0,0.55032 -0.293729,0.8508 -0.290353,0.30049 -0.820415,0.30049 z m 0,-0.71576 q 0.178938,0 0.276848,-0.11479 0.101286,-0.11479 0.101286,-0.32074 v -2.70771 q 0,-0.20595 -0.101286,-0.32074 -0.101286,-0.11479 -0.276848,-0.11479 -0.175563,0 -0.276848,0.11479 -0.101286,0.11479 -0.101286,0.32074 v 2.70771 q 0,0.20595 0.101286,0.32074 0.101285,0.11479 0.276848,0.11479 z m 1.715109,0.66511 v -0.65836 l 1.043244,-1.84002 q 0.222829,-0.38827 0.330868,-0.70225 0.108038,-0.31399 0.108038,-0.55032 v -0.0371 q 0,-0.22283 -0.08778,-0.33424 -0.0844,-0.11479 -0.259967,-0.11479 -0.209325,0 -0.31061,0.15192 -0.09791,0.15193 -0.09791,0.45917 v 0.0911 h -0.752892 v -0.0911 q 0,-0.665113 0.283601,-0.999357 0.2836,-0.334243 0.847425,-0.334243 0.567201,0 0.847425,0.297105 0.283601,0.293729 0.283601,0.881185 v 0.0338 q 0,0.28023 -0.118167,0.64148 -0.114791,0.36125 -0.351125,0.80354 l -0.854177,1.58681 h 1.316716 v 0.71575 z m 3.619281,0.0506 q -0.530062,0 -0.823792,-0.30724 -0.290352,-0.30723 -0.290352,-0.86768 v -0.6381 q 0,-0.38489 0.09116,-0.65161 0.09116,-0.26672 0.216076,-0.57058 l 0.783278,-1.924427 h 0.79003 l -0.995978,2.447747 -0.2127,-0.12155 q 0.246462,-0.33424 0.59421,-0.33424 0.459163,0 0.712378,0.28022 0.253214,0.27685 0.253214,0.79003 v 0.71238 q 0,0.56045 -0.293729,0.87444 -0.293729,0.31061 -0.823792,0.31061 z m 0,-0.71576 q 0.185691,0 0.286977,-0.11141 0.101286,-0.11479 0.101286,-0.33087 v -0.67186 q 0,-0.20595 -0.101286,-0.31399 -0.101286,-0.11141 -0.286977,-0.11141 -0.178938,0 -0.2836,0.11479 -0.101286,0.11141 -0.101286,0.31398 v 0.67187 q 0,0.2127 0.101286,0.32749 0.104662,0.11141 0.2836,0.11141 z"
       id="path39" /><path
       style="font-size:6.91445px;line-height:1;font-family:Bahnschrift;-inkscape-font-specification:'Bahnschrift, @wght=600,wdth=75';font-variation-settings:'wdth' 75, 'wght' 600;stroke-width:0.264583"
       d="m 14.842352,110.68314 0.925077,-2.87652 h 0.671864 v 4.90899 h -0.665111 v -3.57201 l 0.05402,0.21607 -0.779901,2.52202 h -0.411896 l -0.779902,-2.45449 0.07428,-0.2836 v 3.57201 h -0.685368 v -4.90899 h 0.69212 z m 3.23102,2.08312 q -0.486173,0 -0.759645,-0.2566 -0.270095,-0.25996 -0.270095,-0.72925 v -1.66109 q 0,-0.46592 0.270095,-0.71576 0.273472,-0.25321 0.759645,-0.25321 0.489548,0 0.756268,0.25321 0.266719,0.24984 0.266719,0.71576 v 1.67121 q 0,0.46592 -0.266719,0.72251 -0.26672,0.25322 -0.756268,0.25322 z m -0.0034,-0.68875 q 0.141801,0 0.216077,-0.0878 0.07765,-0.0878 0.07765,-0.24984 v -1.57331 q 0,-0.1553 -0.07765,-0.24308 -0.07428,-0.0878 -0.216077,-0.0878 -0.135047,0 -0.216076,0.0878 -0.07765,0.0878 -0.07765,0.24308 v 1.57331 q 0,0.16206 0.07765,0.24984 0.08103,0.0878 0.216076,0.0878 z m 3.001439,0.6381 v -4.90899 h 0.736011 v 4.90899 z m -0.678616,0.0608 q -0.347748,0 -0.540191,-0.26334 -0.189067,-0.26334 -0.189067,-0.73939 v -1.60369 q 0,-0.48617 0.192443,-0.75289 0.192443,-0.26672 0.536815,-0.26672 0.232958,0 0.428777,0.16543 0.199196,0.16544 0.320739,0.46254 l -0.0709,0.46929 q 0,-0.13504 -0.04051,-0.2262 -0.04051,-0.0945 -0.114791,-0.1418 -0.07428,-0.0507 -0.182315,-0.0507 -0.162057,0 -0.253214,0.11142 -0.09116,0.10804 -0.09116,0.31399 v 1.44838 q 0,0.18569 0.09116,0.29036 0.09116,0.10128 0.253214,0.10128 0.108039,0 0.182315,-0.0473 0.07428,-0.0473 0.114791,-0.13843 0.04051,-0.0912 0.04051,-0.22283 l 0.04727,0.47942 q -0.09116,0.28698 -0.280225,0.44904 -0.189067,0.16205 -0.445658,0.16205 z m 3.139863,-0.0101 q -0.516558,0 -0.803535,-0.29373 -0.2836,-0.29373 -0.2836,-0.82717 v -1.30997 q 0,-0.5672 0.276848,-0.87443 0.280224,-0.31061 0.783277,-0.31061 0.509806,0 0.79003,0.29373 0.280225,0.29373 0.280225,0.83392 v 0.95546 h -1.569932 v -0.5672 h 0.860931 v -0.40177 q 0,-0.21607 -0.09453,-0.33424 -0.09453,-0.11817 -0.26672,-0.11817 -0.165433,0 -0.25659,0.1283 -0.09116,0.12492 -0.09116,0.35788 v 1.37073 q 0,0.20257 0.09791,0.31399 0.09791,0.10804 0.276848,0.10804 0.165434,0 0.253215,-0.0844 0.09116,-0.0844 0.09116,-0.24308 v -0.0709 l 0.709001,0.003 v 0.0608 q 0,0.47942 -0.276848,0.74614 -0.276848,0.26335 -0.776525,0.26335 z m 2.427485,-4.95964 v 3.91301 q 0,0.13505 0.06415,0.20933 0.06415,0.0709 0.175562,0.0709 h 0.148553 v 0.71575 h -0.286977 q -0.395015,0 -0.617844,-0.24308 -0.219453,-0.24309 -0.219453,-0.68537 v -3.98054 z m 1.81977,4.95964 q -0.486172,0 -0.759644,-0.2566 -0.270096,-0.25996 -0.270096,-0.72925 v -1.66109 q 0,-0.46592 0.270096,-0.71576 0.273472,-0.25321 0.759644,-0.25321 0.489549,0 0.756268,0.25321 0.26672,0.24984 0.26672,0.71576 v 1.67121 q 0,0.46592 -0.26672,0.72251 -0.266719,0.25322 -0.756268,0.25322 z m -0.0034,-0.68875 q 0.1418,0 0.216076,-0.0878 0.07765,-0.0878 0.07765,-0.24984 v -1.57331 q 0,-0.1553 -0.07765,-0.24308 -0.07428,-0.0878 -0.216076,-0.0878 -0.135048,0 -0.216077,0.0878 -0.07765,0.0878 -0.07765,0.24308 v 1.57331 q 0,0.16206 0.07765,0.24984 0.08103,0.0878 0.216077,0.0878 z m 4.392432,0.6381 v -4.90899 h 0.73601 v 4.90899 z m -0.678616,0.0608 q -0.347748,0 -0.540191,-0.26334 -0.189067,-0.26334 -0.189067,-0.73939 v -1.60369 q 0,-0.48617 0.192443,-0.75289 0.192443,-0.26672 0.536815,-0.26672 0.232958,0 0.428777,0.16543 0.199196,0.16544 0.320739,0.46254 l -0.0709,0.46929 q 0,-0.13504 -0.04052,-0.2262 -0.04051,-0.0945 -0.114791,-0.1418 -0.07428,-0.0507 -0.182314,-0.0507 -0.162058,0 -0.253215,0.11142 -0.09116,0.10804 -0.09116,0.31399 v 1.44838 q 0,0.18569 0.09116,0.29036 0.09116,0.10128 0.253215,0.10128 0.108038,0 0.182314,-0.0473 0.07428,-0.0473 0.114791,-0.13843 0.04052,-0.0912 0.04052,-0.22283 l 0.04727,0.47942 q -0.09116,0.28698 -0.280224,0.44904 -0.189067,0.16205 -0.445658,0.16205 z m 3.139863,-0.0101 q -0.516558,0 -0.803535,-0.29373 -0.2836,-0.29373 -0.2836,-0.82717 v -1.30997 q 0,-0.5672 0.276848,-0.87443 0.280224,-0.31061 0.783278,-0.31061 0.509805,0 0.790029,0.29373 0.280225,0.29373 0.280225,0.83392 v 0.95546 h -1.569932 v -0.5672 h 0.860931 v -0.40177 q 0,-0.21607 -0.09453,-0.33424 -0.09453,-0.11817 -0.266719,-0.11817 -0.165434,0 -0.256591,0.1283 -0.09116,0.12492 -0.09116,0.35788 v 1.37073 q 0,0.20257 0.09791,0.31399 0.09791,0.10804 0.276848,0.10804 0.165434,0 0.253215,-0.0844 0.09116,-0.0844 0.09116,-0.24308 v -0.0709 l 0.709001,0.003 v 0.0608 q 0,0.47942 -0.276848,0.74614 -0.276848,0.26335 -0.776525,0.26335 z m 3.082466,-0.0507 v -4.90899 h 0.736011 v 4.90899 z m 1.43826,0 v -2.44436 q 0,-0.21946 -0.08778,-0.32749 -0.08778,-0.11142 -0.263343,-0.11142 -0.175563,0 -0.263344,0.11142 -0.08778,0.11141 -0.08778,0.33424 l -0.06415,-0.46592 q 0.111414,-0.33086 0.317362,-0.4963 0.209324,-0.16543 0.459163,-0.16543 0.351124,0 0.536815,0.23633 0.189067,0.23634 0.189067,0.68199 v 2.64694 z m 2.373467,0.0169 q -0.455787,0 -0.661735,-0.23971 -0.205948,-0.23971 -0.205948,-0.68874 v -3.61253 h 0.736011 v 3.54501 q 0,0.13167 0.06077,0.20594 0.06077,0.0743 0.172186,0.0743 h 0.246462 v 0.71575 z m -1.19855,-2.836 v -0.68537 h 1.546298 v 0.68537 z m 3.014943,2.836 q -0.455787,0 -0.661735,-0.23971 -0.205948,-0.23971 -0.205948,-0.68874 v -3.61253 h 0.736011 v 3.54501 q 0,0.13167 0.06077,0.20594 0.06077,0.0743 0.172186,0.0743 h 0.246463 v 0.71575 z m -1.19855,-2.836 v -0.68537 h 1.546298 v 0.68537 z m 2.08649,4.24388 v -4.92925 h 0.736011 v 4.92925 z m 1.377488,-1.37411 q -0.243086,0 -0.4254,-0.15531 -0.178939,-0.15868 -0.263344,-0.44566 l 0.04727,-0.51993 q 0,0.14517 0.04051,0.24646 0.04389,0.0979 0.118166,0.15193 0.07765,0.0506 0.185691,0.0506 0.158681,0 0.246463,-0.12154 0.08778,-0.12154 0.08778,-0.341 v -1.36398 q 0,-0.2127 -0.08778,-0.32749 -0.08778,-0.11817 -0.246463,-0.11817 -0.108038,0 -0.185691,0.0507 -0.07428,0.0473 -0.118166,0.14517 -0.04051,0.0945 -0.04051,0.23634 l -0.0709,-0.46254 q 0.118167,-0.31061 0.31061,-0.47605 0.192443,-0.16543 0.425401,-0.16543 0.357877,0 0.55032,0.27009 0.192443,0.2701 0.192443,0.76978 v 1.51591 q 0,0.50305 -0.199196,0.78328 -0.199195,0.27685 -0.567201,0.27685 z m 2.309319,0 q -0.489548,0 -0.783277,-0.28698 -0.293729,-0.29035 -0.293729,-0.77315 v -0.0405 l 0.702248,-0.003 v 0.0405 q 0,0.18569 0.101286,0.29711 0.101286,0.10804 0.273472,0.10804 0.172186,0 0.270096,-0.10467 0.101286,-0.10466 0.101286,-0.27684 0,-0.15193 -0.08441,-0.23634 -0.08103,-0.0878 -0.216077,-0.14517 -0.135048,-0.0574 -0.290353,-0.11479 -0.1418,-0.0574 -0.286976,-0.13168 -0.145177,-0.0777 -0.26672,-0.19244 -0.118167,-0.11479 -0.189067,-0.28698 -0.0709,-0.17556 -0.0709,-0.43215 0,-0.47604 0.273472,-0.75627 0.273472,-0.28022 0.732635,-0.28022 0.462539,0 0.732634,0.27009 0.273472,0.2701 0.276848,0.73264 v 0.0405 l -0.705625,0.003 v -0.0473 q 0,-0.1553 -0.08103,-0.24646 -0.08103,-0.0945 -0.222829,-0.0945 -0.138424,0 -0.219453,0.10128 -0.08103,0.0979 -0.08103,0.2701 0,0.14855 0.07428,0.23971 0.07765,0.0878 0.199196,0.1418 0.121543,0.054 0.263343,0.10129 0.151929,0.0506 0.303858,0.11816 0.155305,0.0642 0.280224,0.17556 0.128296,0.11142 0.205948,0.29711 0.07765,0.18231 0.07765,0.47267 0,0.47604 -0.293729,0.75964 -0.290353,0.28023 -0.783278,0.28023 z m 1.438257,-0.0507 v -0.75627 h 0.756268 v 0.75627 z m 0,-2.81237 v -0.75627 h 0.756268 v 0.75627 z m 2.771857,-2.67732 -1.083759,6.42152 h -0.678615 l 1.083759,-6.42152 z m 1.856911,0 -1.083759,6.42152 h -0.678616 l 1.083759,-6.42152 z m 0.985848,5.48969 -0.786654,-3.50449 h 0.71913 l 0.354501,2.45112 0.462539,-2.45112 h 0.553696 l 0.462539,2.45112 0.3545,-2.45112 h 0.71913 l -0.786654,3.50449 h -0.577329 l -0.449034,-2.37346 -0.438906,2.37346 z m 3.929893,0 -0.786653,-3.50449 h 0.71913 l 0.3545,2.45112 0.462539,-2.45112 h 0.553696 l 0.462539,2.45112 0.354501,-2.45112 h 0.71913 l -0.786654,3.50449 h -0.57733 l -0.449034,-2.37346 -0.438905,2.37346 z m 3.929894,0 -0.786654,-3.50449 h 0.71913 l 0.354501,2.45112 0.462539,-2.45112 h 0.553696 l 0.462539,2.45112 0.3545,-2.45112 h 0.71913 l -0.786654,3.50449 H 64.30363 l -0.449034,-2.37346 -0.438906,2.37346 z m 2.792111,0 v -0.75627 h 0.756268 v 0.75627 z m 4.199992,0 v -2.45112 q 0,-0.21945 -0.08778,-0.32749 -0.08778,-0.11141 -0.26672,-0.11141 -0.172186,0 -0.259967,0.11141 -0.08441,0.11142 -0.08441,0.33425 l -0.07765,-0.46592 q 0.118166,-0.33087 0.327491,-0.49292 0.209324,-0.16206 0.462539,-0.16206 0.351124,0 0.540191,0.23971 0.189067,0.23633 0.189067,0.67861 v 2.64694 z m -2.883272,0 v -3.50449 h 0.742763 v 3.50449 z m 1.441636,0 v -2.45112 q 0,-0.21945 -0.08778,-0.32749 -0.08441,-0.11141 -0.256591,-0.11141 -0.175562,0 -0.26672,0.11141 -0.08778,0.11142 -0.08778,0.33425 l -0.0709,-0.4693 q 0.118167,-0.32749 0.324115,-0.48954 0.209324,-0.16206 0.469291,-0.16206 0.344372,0 0.530063,0.2262 0.189067,0.22621 0.189067,0.65499 v 2.68407 z m 4.297895,0 v -2.5389 q 0,-0.17556 -0.09453,-0.27009 -0.09453,-0.0979 -0.26672,-0.0979 -0.145176,0 -0.229581,0.0979 -0.0844,0.0945 -0.0844,0.27009 h -0.709001 q 0,-0.48955 0.270095,-0.75627 0.273472,-0.27009 0.766397,-0.27009 0.499677,0 0.776525,0.26672 0.276848,0.26672 0.276848,0.75964 v 2.5389 z m -0.62122,0.0507 q -0.411896,0 -0.624596,-0.24984 -0.209324,-0.24984 -0.209324,-0.74277 0,-0.57733 0.2836,-0.87106 0.283601,-0.29372 0.833921,-0.29372 h 0.357876 l 0.04727,0.61784 h -0.38151 q -0.216077,0 -0.330867,0.13842 -0.111415,0.13843 -0.111415,0.40852 0,0.17557 0.08441,0.26672 0.0844,0.0912 0.249839,0.0912 0.205948,0 0.313986,-0.11479 0.108038,-0.11479 0.108038,-0.341 l 0.06415,0.31061 q -0.0034,0.25659 -0.08441,0.43216 -0.07765,0.17218 -0.229581,0.25996 -0.151929,0.0878 -0.371382,0.0878 z m 2.488259,-0.47942 -0.03039,-0.97573 1.225559,-2.09999 h 0.756268 z m -0.45241,0.42877 v -4.90899 h 0.732634 v 4.90899 z m 1.752246,0 -0.759645,-1.79613 0.445658,-0.51994 1.104016,2.31607 z m 2.042599,0.0507 q -0.516558,0 -0.803535,-0.29373 -0.2836,-0.29373 -0.2836,-0.82717 v -1.30997 q 0,-0.5672 0.276848,-0.87443 0.280224,-0.31061 0.783277,-0.31061 0.509806,0 0.79003,0.29373 0.280225,0.29373 0.280225,0.83392 v 0.95546 h -1.569932 v -0.5672 h 0.86093 v -0.40177 q 0,-0.21607 -0.09453,-0.33424 -0.09453,-0.11817 -0.26672,-0.11817 -0.165433,0 -0.256591,0.1283 -0.09116,0.12492 -0.09116,0.35788 v 1.37073 q 0,0.20257 0.09791,0.31399 0.09791,0.10804 0.276848,0.10804 0.165434,0 0.253215,-0.0844 0.09116,-0.0844 0.09116,-0.24308 v -0.0709 l 0.709001,0.003 v 0.0608 q 0,0.47942 -0.276848,0.74614 -0.276848,0.26335 -0.776525,0.26335 z m 1.691475,-0.0507 v -3.50449 h 0.736011 v 3.50449 z m 1.637455,-2.80224 q -0.03038,0 -0.0709,0 -0.03714,0 -0.09453,0 -0.344372,0 -0.540192,0.18569 -0.192443,0.18569 -0.195819,0.50305 l -0.0709,-0.7799 q 0.158681,-0.31398 0.411896,-0.49292 0.253214,-0.17894 0.560448,-0.17894 0,0 0,0 0,0 0,0 z m 1.465267,2.85289 q -0.516558,0 -0.800159,-0.25997 -0.280224,-0.26335 -0.280224,-0.74614 v -1.55305 q 0,-0.50643 0.280224,-0.7799 0.283601,-0.27685 0.800159,-0.27685 0.516558,0 0.800158,0.28022 0.283601,0.27685 0.283601,0.78328 v 0.20595 h -0.725883 v -0.16881 q 0,-0.20595 -0.09116,-0.31736 -0.09116,-0.11142 -0.256591,-0.11142 -0.165433,0 -0.259967,0.11142 -0.09116,0.10803 -0.09116,0.30723 v 1.48553 q 0,0.17556 0.09116,0.27347 0.09453,0.0945 0.259967,0.0945 0.165434,0 0.253215,-0.10128 0.09116,-0.10129 0.09453,-0.2836 v -0.15869 l 0.732635,0.003 v 0.19244 q 0.0034,0.4828 -0.2836,0.7529 -0.286977,0.26672 -0.806911,0.26672 z m 3.001437,-0.0507 v -2.5389 q 0,-0.17556 -0.09453,-0.27009 -0.09453,-0.0979 -0.26672,-0.0979 -0.145176,0 -0.229581,0.0979 -0.08441,0.0945 -0.08441,0.27009 h -0.709001 q 0,-0.48955 0.270095,-0.75627 0.273472,-0.27009 0.766397,-0.27009 0.499677,0 0.776525,0.26672 0.276848,0.26672 0.276848,0.75964 v 2.5389 z m -0.62122,0.0507 q -0.411896,0 -0.624596,-0.24984 -0.209325,-0.24984 -0.209325,-0.74277 0,-0.57733 0.283601,-0.87106 0.2836,-0.29372 0.83392,-0.29372 h 0.357877 l 0.04727,0.61784 h -0.38151 q -0.216077,0 -0.330867,0.13842 -0.111415,0.13843 -0.111415,0.40852 0,0.17557 0.08441,0.26672 0.08441,0.0912 0.249839,0.0912 0.205947,0 0.313986,-0.11479 0.108038,-0.11479 0.108038,-0.341 l 0.06415,0.31061 q -0.0034,0.25659 -0.08441,0.43216 -0.07765,0.17218 -0.229581,0.25996 -0.151929,0.0878 -0.371382,0.0878 z m 2.940665,0 q -0.489548,0 -0.783277,-0.28698 -0.293729,-0.29035 -0.293729,-0.77315 v -0.0405 l 0.702249,-0.003 v 0.0405 q 0,0.18569 0.101285,0.29711 0.101286,0.10804 0.273472,0.10804 0.172186,0 0.270096,-0.10467 0.101286,-0.10466 0.101286,-0.27684 0,-0.15193 -0.08441,-0.23634 -0.08103,-0.0878 -0.216077,-0.14517 -0.135047,-0.0574 -0.290352,-0.11479 -0.141801,-0.0574 -0.286977,-0.13168 -0.145177,-0.0777 -0.26672,-0.19244 -0.118167,-0.11479 -0.189067,-0.28698 -0.0709,-0.17556 -0.0709,-0.43215 0,-0.47604 0.273472,-0.75627 0.273472,-0.28022 0.732635,-0.28022 0.462539,0 0.732634,0.27009 0.273472,0.2701 0.276848,0.73264 v 0.0405 l -0.705625,0.003 v -0.0473 q 0,-0.1553 -0.08103,-0.24646 -0.08103,-0.0945 -0.222829,-0.0945 -0.138424,0 -0.219453,0.10128 -0.08103,0.0979 -0.08103,0.2701 0,0.14855 0.07428,0.23971 0.07765,0.0878 0.199195,0.1418 0.121543,0.054 0.263343,0.10129 0.151929,0.0506 0.303858,0.11816 0.155305,0.0642 0.280224,0.17556 0.128296,0.11142 0.205948,0.29711 0.07765,0.18231 0.07765,0.47267 0,0.47604 -0.293729,0.75964 -0.290353,0.28023 -0.783278,0.28023 z m 2.603053,0 q -0.516558,0 -0.803535,-0.29373 -0.2836,-0.29373 -0.2836,-0.82717 v -1.30997 q 0,-0.5672 0.276848,-0.87443 0.280224,-0.31061 0.783277,-0.31061 0.509806,0 0.79003,0.29373 0.280225,0.29373 0.280225,0.83392 v 0.95546 h -1.569932 v -0.5672 h 0.86093 v -0.40177 q 0,-0.21607 -0.09453,-0.33424 -0.09453,-0.11817 -0.26672,-0.11817 -0.165433,0 -0.256591,0.1283 -0.09116,0.12492 -0.09116,0.35788 v 1.37073 q 0,0.20257 0.09791,0.31399 0.09791,0.10804 0.276848,0.10804 0.165434,0 0.253215,-0.0844 0.09116,-0.0844 0.09116,-0.24308 v -0.0709 l 0.709001,0.003 v 0.0608 q 0,0.47942 -0.276848,0.74614 -0.276848,0.26335 -0.776525,0.26335 z m 1.407875,-0.0507 v -0.75627 h 0.756268 v 0.75627 z m 2.191147,0.0507 q -0.516559,0 -0.800159,-0.25997 -0.280224,-0.26335 -0.280224,-0.74614 v -1.55305 q 0,-0.50643 0.280224,-0.7799 0.2836,-0.27685 0.800159,-0.27685 0.516558,0 0.800158,0.28022 0.283601,0.27685 0.283601,0.78328 v 0.20595 h -0.725883 v -0.16881 q 0,-0.20595 -0.09116,-0.31736 -0.09116,-0.11142 -0.256591,-0.11142 -0.165434,0 -0.259967,0.11142 -0.09116,0.10803 -0.09116,0.30723 v 1.48553 q 0,0.17556 0.09116,0.27347 0.09453,0.0945 0.259967,0.0945 0.165434,0 0.253215,-0.10128 0.09116,-0.10129 0.09453,-0.2836 v -0.15869 l 0.732635,0.003 v 0.19244 q 0.0034,0.4828 -0.283601,0.7529 -0.286976,0.26672 -0.80691,0.26672 z m 2.555779,0 q -0.486172,0 -0.759644,-0.2566 -0.270096,-0.25996 -0.270096,-0.72925 v -1.66109 q 0,-0.46592 0.270096,-0.71576 0.273472,-0.25321 0.759644,-0.25321 0.489548,0 0.756268,0.25321 0.266719,0.24984 0.266719,0.71576 v 1.67121 q 0,0.46592 -0.266719,0.72251 -0.26672,0.25322 -0.756268,0.25322 z m -0.0034,-0.68875 q 0.1418,0 0.216076,-0.0878 0.07765,-0.0878 0.07765,-0.24984 v -1.57331 q 0,-0.1553 -0.07765,-0.24308 -0.07428,-0.0878 -0.216076,-0.0878 -0.135048,0 -0.216077,0.0878 -0.07765,0.0878 -0.07765,0.24308 v 1.57331 q 0,0.16206 0.07765,0.24984 0.08103,0.0878 0.216077,0.0878 z m 4.547746,0.6381 v -2.45112 q 0,-0.21945 -0.0878,-0.32749 -0.0878,-0.11141 -0.26672,-0.11141 -0.17219,0 -0.25997,0.11141 -0.0844,0.11142 -0.0844,0.33425 l -0.0776,-0.46592 q 0.11817,-0.33087 0.32749,-0.49292 0.20933,-0.16206 0.46254,-0.16206 0.35113,0 0.54019,0.23971 0.18907,0.23633 0.18907,0.67861 v 2.64694 z m -2.883276,0 v -3.50449 h 0.742763 v 3.50449 z m 1.441636,0 v -2.45112 q 0,-0.21945 -0.08778,-0.32749 -0.08441,-0.11141 -0.256591,-0.11141 -0.175562,0 -0.266719,0.11141 -0.08778,0.11142 -0.08778,0.33425 l -0.0709,-0.4693 q 0.118167,-0.32749 0.324115,-0.48954 0.209324,-0.16206 0.469292,-0.16206 0.344373,0 0.530063,0.2262 0.18906,0.22621 0.18906,0.65499 v 2.68407 z m 4.34854,-5.48969 -1.08376,6.42152 h -0.67861 l 1.08376,-6.42152 z"
       id="path40" /></g><g
     id="g41"
     transform="translate(0,-2.2029127)"><image
       width="29.395851"
       height="29.395851"
       preserveAspectRatio="none"
       xlink:href="QR-code%20-%20frame.png"
       id="image1-9"
       x="138.30208"
       y="85.766914" /><text
       xml:space="preserve"
       style="font-style:normal;font-variant:normal;font-weight:normal;font-stretch:normal;font-size:6.91446px;line-height:1;font-family:Bahnschrift;-inkscape-font-specification:'Bahnschrift, @wght=600,wdth=75';font-variant-ligatures:normal;font-variant-caps:normal;font-variant-numeric:normal;font-variant-east-asian:normal;font-variation-settings:'wdth' 75, 'wght' 600;text-align:center;writing-mode:lr-tb;direction:ltr;text-anchor:middle;vector-effect:non-scaling-stroke;fill:#000000;stroke-width:0.264583;-inkscape-stroke:hairline"
       x="152.89703"
       y="119.51795"
       id="text41"><tspan
         sodipodi:role="line"
         id="tspan41"
         style="stroke-width:0.264583"
         x="152.89703"
         y="119.51795">Manual</tspan></text></g></svg>
