<?xml version='1.0' encoding='utf-8'?>
<svg height="242.60mm" viewBox="0.0 0.0 227.90 242.60" width="227.90mm" xmlns="http://www.w3.org/2000/svg" xmlns:cc="http://creativecommons.org/ns#" xmlns:dc="http://purl.org/dc/elements/1.1/" xmlns:inkscape="http://www.inkscape.org/namespaces/inkscape" xmlns:rdf="http://www.w3.org/1999/02/22-rdf-syntax-ns#" xmlns:svg="http://www.w3.org/2000/svg" xmlns:xlink="http://www.w3.org/1999/xlink">
<!--
HalfBox - Configurable half of a box which can be: a bookend, a hanging shelf, an angle clamping jig, ...


This can be used to create:

* a hanging shelf:
![HalfBox as hanging shelf](static/samples/HalfBox_Shelf_usage.jpg)

* an angle clamping jig:
![HalfBox as an angle clamping jig](static/samples/HalfBox_AngleJig_usage.jpg)

* a bookend:
![HalfBox as a bookend](static/samples/HalfBox_Bookend_usage.jpg)

and many more...




Created with Boxes.py (https://boxes.hackerspace-bamberg.de/)
Creation date: 2026-04-02 18:57:04
Command line (remove spaces between dashes): boxes HalfBox - -sy - -output
-->
<title>HalfBox</title>
<metadata>
<rdf:RDF><cc:Work>
<dc:title>Box - HalfBox</dc:title>
<dc:date>2026-04-02 18:57:04</dc:date>
<dc:source>boxes HalfBox --x 100 --sy 100 --output HalfBox.svg</dc:source>
<dc:description>Configurable half of a box which can be: a bookend, a hanging shelf, an angle clamping jig, ...

This can be used to create:

* a hanging shelf:
![HalfBox as hanging shelf](static/samples/HalfBox_Shelf_usage.jpg)

* an angle clamping jig:
![HalfBox as an angle clamping jig](static/samples/HalfBox_AngleJig_usage.jpg)

* a bookend:
![HalfBox as a bookend](static/samples/HalfBox_Bookend_usage.jpg)

and many more...



Created with Boxes.py (https://boxes.hackerspace-bamberg.de/)
Command line: boxes HalfBox --x 100 --sy 100 --output HalfBox.svg
Command line short: boxes HalfBox --sy --output
</dc:description>
</cc:Work></rdf:RDF></metadata>
<g id="p-0" style="fill:none;stroke-linecap:round;stroke-linejoin:round;">
  <path d="M 10.100 232.598 H 110.100 V 222.598 H 10.100 V 232.598 Z" stroke="rgb(0,0,0)" stroke-width="0.20" />
  <text dominant-baseline="hanging" font-size="6px" style="font-family: sans-serif ; font-weight: normal; font-style: normal; fill: rgb(255,0,0)" text-anchor="middle" transform="matrix( 1.000 0.000 0.000 1.000 60.100 224.598 )">100.0mm, burn:0.10mm</text>
</g>
<g id="p-1" style="fill:none;stroke-linecap:round;stroke-linejoin:round;">
  <path d="M 10.100 220.898 H 110.100 C 110.155 220.898 110.200 220.853 110.200 220.798 V 212.898 C 110.200 212.798 110.100 212.898 110.200 212.898 H 113.100 C 113.155 212.898 113.200 212.853 113.200 212.798 V 206.798 C 113.200 206.743 113.155 206.698 113.100 206.698 H 110.200 C 110.100 206.698 110.200 206.798 110.200 206.698 V 200.898 C 110.200 200.798 110.100 200.898 110.200 200.898 H 113.100 C 113.155 200.898 113.200 200.853 113.200 200.798 V 194.798 C 113.200 194.743 113.155 194.698 113.100 194.698 H 110.200 C 110.100 194.698 110.200 194.798 110.200 194.698 V 188.898 C 110.200 188.798 110.100 188.898 110.200 188.898 H 113.100 C 113.155 188.898 113.200 188.853 113.200 188.798 V 182.798 C 113.200 182.743 113.155 182.698 113.100 182.698 H 110.200 C 110.100 182.698 110.200 182.798 110.200 182.698 V 176.898 C 110.200 176.798 110.100 176.898 110.200 176.898 H 113.100 C 113.155 176.898 113.200 176.853 113.200 176.798 V 170.798 C 113.200 170.743 113.155 170.698 113.100 170.698 H 110.200 C 110.100 170.698 110.200 170.798 110.200 170.698 V 164.898 C 110.200 164.798 110.100 164.898 110.200 164.898 H 113.100 C 113.155 164.898 113.200 164.853 113.200 164.798 V 158.798 C 113.200 158.743 113.155 158.698 113.100 158.698 H 110.200 C 110.100 158.698 110.200 158.798 110.200 158.698 V 152.898 C 110.200 152.798 110.100 152.898 110.200 152.898 H 113.100 C 113.155 152.898 113.200 152.853 113.200 152.798 V 146.798 C 113.200 146.743 113.155 146.698 113.100 146.698 H 110.200 C 110.100 146.698 110.200 146.798 110.200 146.698 V 140.898 C 110.200 140.798 110.100 140.898 110.200 140.898 H 113.100 C 113.155 140.898 113.200 140.853 113.200 140.798 V 134.798 C 113.200 134.743 113.155 134.698 113.100 134.698 H 110.200 C 110.100 134.698 110.200 134.798 110.200 134.698 V 128.898 C 110.200 128.798 110.100 128.898 110.200 128.898 H 113.100 C 113.155 128.898 113.200 128.853 113.200 128.798 V 122.798 C 113.200 122.743 113.155 122.698 113.100 122.698 H 110.200 C 110.100 122.698 110.200 122.798 110.200 122.698 V 114.798 C 110.200 114.743 110.155 114.698 110.100 114.698 H 10.100 C 10.045 114.698 10.000 114.743 10.000 114.798 V 220.798 C 10.000 220.853 10.045 220.898 10.100 220.898 Z" stroke="rgb(0,0,0)" stroke-width="0.20" />
  <path d="M 96.100 217.898 H 99.000 C 99.100 217.898 99.000 217.798 99.000 217.898 V 220.698 C 99.000 220.798 99.100 220.698 99.000 220.698 H 93.200 C 93.100 220.698 93.200 220.798 93.200 220.698 V 217.898 C 93.200 217.798 93.100 217.898 93.200 217.898 H 96.100 Z" stroke="rgb(0,0,255)" stroke-width="0.20" />
  <path d="M 84.100 217.898 H 87.000 C 87.100 217.898 87.000 217.798 87.000 217.898 V 220.698 C 87.000 220.798 87.100 220.698 87.000 220.698 H 81.200 C 81.100 220.698 81.200 220.798 81.200 220.698 V 217.898 C 81.200 217.798 81.100 217.898 81.200 217.898 H 84.100 Z" stroke="rgb(0,0,255)" stroke-width="0.20" />
  <path d="M 72.100 217.898 H 75.000 C 75.100 217.898 75.000 217.798 75.000 217.898 V 220.698 C 75.000 220.798 75.100 220.698 75.000 220.698 H 69.200 C 69.100 220.698 69.200 220.798 69.200 220.698 V 217.898 C 69.200 217.798 69.100 217.898 69.200 217.898 H 72.100 Z" stroke="rgb(0,0,255)" stroke-width="0.20" />
  <path d="M 60.100 217.898 H 63.000 C 63.100 217.898 63.000 217.798 63.000 217.898 V 220.698 C 63.000 220.798 63.100 220.698 63.000 220.698 H 57.200 C 57.100 220.698 57.200 220.798 57.200 220.698 V 217.898 C 57.200 217.798 57.100 217.898 57.200 217.898 H 60.100 Z" stroke="rgb(0,0,255)" stroke-width="0.20" />
  <path d="M 48.100 217.898 H 51.000 C 51.100 217.898 51.000 217.798 51.000 217.898 V 220.698 C 51.000 220.798 51.100 220.698 51.000 220.698 H 45.200 C 45.100 220.698 45.200 220.798 45.200 220.698 V 217.898 C 45.200 217.798 45.100 217.898 45.200 217.898 H 48.100 Z" stroke="rgb(0,0,255)" stroke-width="0.20" />
  <path d="M 36.100 217.898 H 39.000 C 39.100 217.898 39.000 217.798 39.000 217.898 V 220.698 C 39.000 220.798 39.100 220.698 39.000 220.698 H 33.200 C 33.100 220.698 33.200 220.798 33.200 220.698 V 217.898 C 33.200 217.798 33.100 217.898 33.200 217.898 H 36.100 Z" stroke="rgb(0,0,255)" stroke-width="0.20" />
  <path d="M 24.100 217.898 H 27.000 C 27.100 217.898 27.000 217.798 27.000 217.898 V 220.698 C 27.000 220.798 27.100 220.698 27.000 220.698 H 21.200 C 21.100 220.698 21.200 220.798 21.200 220.698 V 217.898 C 21.200 217.798 21.100 217.898 21.200 217.898 H 24.100 Z" stroke="rgb(0,0,255)" stroke-width="0.20" />
  <path d="M 96.100 114.898 H 99.000 C 99.100 114.898 99.000 114.798 99.000 114.898 V 117.698 C 99.000 117.798 99.100 117.698 99.000 117.698 H 93.200 C 93.100 117.698 93.200 117.798 93.200 117.698 V 114.898 C 93.200 114.798 93.100 114.898 93.200 114.898 H 96.100 Z" stroke="rgb(0,0,255)" stroke-width="0.20" />
  <path d="M 84.100 114.898 H 87.000 C 87.100 114.898 87.000 114.798 87.000 114.898 V 117.698 C 87.000 117.798 87.100 117.698 87.000 117.698 H 81.200 C 81.100 117.698 81.200 117.798 81.200 117.698 V 114.898 C 81.200 114.798 81.100 114.898 81.200 114.898 H 84.100 Z" stroke="rgb(0,0,255)" stroke-width="0.20" />
  <path d="M 72.100 114.898 H 75.000 C 75.100 114.898 75.000 114.798 75.000 114.898 V 117.698 C 75.000 117.798 75.100 117.698 75.000 117.698 H 69.200 C 69.100 117.698 69.200 117.798 69.200 117.698 V 114.898 C 69.200 114.798 69.100 114.898 69.200 114.898 H 72.100 Z" stroke="rgb(0,0,255)" stroke-width="0.20" />
  <path d="M 60.100 114.898 H 63.000 C 63.100 114.898 63.000 114.798 63.000 114.898 V 117.698 C 63.000 117.798 63.100 117.698 63.000 117.698 H 57.200 C 57.100 117.698 57.200 117.798 57.200 117.698 V 114.898 C 57.200 114.798 57.100 114.898 57.200 114.898 H 60.100 Z" stroke="rgb(0,0,255)" stroke-width="0.20" />
  <path d="M 48.100 114.898 H 51.000 C 51.100 114.898 51.000 114.798 51.000 114.898 V 117.698 C 51.000 117.798 51.100 117.698 51.000 117.698 H 45.200 C 45.100 117.698 45.200 117.798 45.200 117.698 V 114.898 C 45.200 114.798 45.100 114.898 45.200 114.898 H 48.100 Z" stroke="rgb(0,0,255)" stroke-width="0.20" />
  <path d="M 36.100 114.898 H 39.000 C 39.100 114.898 39.000 114.798 39.000 114.898 V 117.698 C 39.000 117.798 39.100 117.698 39.000 117.698 H 33.200 C 33.100 117.698 33.200 117.798 33.200 117.698 V 114.898 C 33.200 114.798 33.100 114.898 33.200 114.898 H 36.100 Z" stroke="rgb(0,0,255)" stroke-width="0.20" />
  <path d="M 24.100 114.898 H 27.000 C 27.100 114.898 27.000 114.798 27.000 114.898 V 117.698 C 27.000 117.798 27.100 117.698 27.000 117.698 H 21.200 C 21.100 117.698 21.200 117.798 21.200 117.698 V 114.898 C 21.200 114.798 21.100 114.898 21.200 114.898 H 24.100 Z" stroke="rgb(0,0,255)" stroke-width="0.20" />
  <text dominant-baseline="hanging" font-size="4px" style="font-family: sans-serif ; font-weight: normal; font-style: normal; fill: rgb(255,0,0)" text-anchor="middle" transform="matrix( 1.000 0.000 0.000 1.000 61.600 165.898 )">bottom</text>
</g>
<g id="p-2" style="fill:none;stroke-linecap:round;stroke-linejoin:round;">
  <path d="M 117.800 220.898 H 217.800 C 217.855 220.898 217.900 220.853 217.900 220.798 V 114.798 C 217.900 114.743 217.855 114.698 217.800 114.698 H 117.800 H 114.800 C 114.745 114.698 114.700 114.743 114.700 114.798 V 122.798 C 114.700 122.853 114.745 122.898 114.800 122.898 H 117.700 C 117.800 122.898 117.700 122.798 117.700 122.898 V 128.698 C 117.700 128.798 117.800 128.698 117.700 128.698 H 114.800 C 114.745 128.698 114.700 128.743 114.700 128.798 V 134.798 C 114.700 134.853 114.745 134.898 114.800 134.898 H 117.700 C 117.800 134.898 117.700 134.798 117.700 134.898 V 140.698 C 117.700 140.798 117.800 140.698 117.700 140.698 H 114.800 C 114.745 140.698 114.700 140.743 114.700 140.798 V 146.798 C 114.700 146.853 114.745 146.898 114.800 146.898 H 117.700 C 117.800 146.898 117.700 146.798 117.700 146.898 V 152.698 C 117.700 152.798 117.800 152.698 117.700 152.698 H 114.800 C 114.745 152.698 114.700 152.743 114.700 152.798 V 158.798 C 114.700 158.853 114.745 158.898 114.800 158.898 H 117.700 C 117.800 158.898 117.700 158.798 117.700 158.898 V 164.698 C 117.700 164.798 117.800 164.698 117.700 164.698 H 114.800 C 114.745 164.698 114.700 164.743 114.700 164.798 V 170.798 C 114.700 170.853 114.745 170.898 114.800 170.898 H 117.700 C 117.800 170.898 117.700 170.798 117.700 170.898 V 176.698 C 117.700 176.798 117.800 176.698 117.700 176.698 H 114.800 C 114.745 176.698 114.700 176.743 114.700 176.798 V 182.798 C 114.700 182.853 114.745 182.898 114.800 182.898 H 117.700 C 117.800 182.898 117.700 182.798 117.700 182.898 V 188.698 C 117.700 188.798 117.800 188.698 117.700 188.698 H 114.800 C 114.745 188.698 114.700 188.743 114.700 188.798 V 194.798 C 114.700 194.853 114.745 194.898 114.800 194.898 H 117.700 C 117.800 194.898 117.700 194.798 117.700 194.898 V 200.698 C 117.700 200.798 117.800 200.698 117.700 200.698 H 114.800 C 114.745 200.698 114.700 200.743 114.700 200.798 V 206.798 C 114.700 206.853 114.745 206.898 114.800 206.898 H 117.700 C 117.800 206.898 117.700 206.798 117.700 206.898 V 212.698 C 117.700 212.798 117.800 212.698 117.700 212.698 H 114.800 C 114.745 212.698 114.700 212.743 114.700 212.798 V 220.798 C 114.700 220.853 114.745 220.898 114.800 220.898 H 117.800 Z" stroke="rgb(0,0,0)" stroke-width="0.20" />
  <path d="M 131.800 117.698 H 128.900 C 128.800 117.698 128.900 117.798 128.900 117.698 V 114.898 C 128.900 114.798 128.800 114.898 128.900 114.898 H 134.700 C 134.800 114.898 134.700 114.798 134.700 114.898 V 117.698 C 134.700 117.798 134.800 117.698 134.700 117.698 H 131.800 Z" stroke="rgb(0,0,255)" stroke-width="0.20" />
  <path d="M 143.800 117.698 H 140.900 C 140.800 117.698 140.900 117.798 140.900 117.698 V 114.898 C 140.900 114.798 140.800 114.898 140.900 114.898 H 146.700 C 146.800 114.898 146.700 114.798 146.700 114.898 V 117.698 C 146.700 117.798 146.800 117.698 146.700 117.698 H 143.800 Z" stroke="rgb(0,0,255)" stroke-width="0.20" />
  <path d="M 155.800 117.698 H 152.900 C 152.800 117.698 152.900 117.798 152.900 117.698 V 114.898 C 152.900 114.798 152.800 114.898 152.900 114.898 H 158.700 C 158.800 114.898 158.700 114.798 158.700 114.898 V 117.698 C 158.700 117.798 158.800 117.698 158.700 117.698 H 155.800 Z" stroke="rgb(0,0,255)" stroke-width="0.20" />
  <path d="M 167.800 117.698 H 164.900 C 164.800 117.698 164.900 117.798 164.900 117.698 V 114.898 C 164.900 114.798 164.800 114.898 164.900 114.898 H 170.700 C 170.800 114.898 170.700 114.798 170.700 114.898 V 117.698 C 170.700 117.798 170.800 117.698 170.700 117.698 H 167.800 Z" stroke="rgb(0,0,255)" stroke-width="0.20" />
  <path d="M 179.800 117.698 H 176.900 C 176.800 117.698 176.900 117.798 176.900 117.698 V 114.898 C 176.900 114.798 176.800 114.898 176.900 114.898 H 182.700 C 182.800 114.898 182.700 114.798 182.700 114.898 V 117.698 C 182.700 117.798 182.800 117.698 182.700 117.698 H 179.800 Z" stroke="rgb(0,0,255)" stroke-width="0.20" />
  <path d="M 191.800 117.698 H 188.900 C 188.800 117.698 188.900 117.798 188.900 117.698 V 114.898 C 188.900 114.798 188.800 114.898 188.900 114.898 H 194.700 C 194.800 114.898 194.700 114.798 194.700 114.898 V 117.698 C 194.700 117.798 194.800 117.698 194.700 117.698 H 191.800 Z" stroke="rgb(0,0,255)" stroke-width="0.20" />
  <path d="M 203.800 117.698 H 200.900 C 200.800 117.698 200.900 117.798 200.900 117.698 V 114.898 C 200.900 114.798 200.800 114.898 200.900 114.898 H 206.700 C 206.800 114.898 206.700 114.798 206.700 114.898 V 117.698 C 206.700 117.798 206.800 117.698 206.700 117.698 H 203.800 Z" stroke="rgb(0,0,255)" stroke-width="0.20" />
  <path d="M 131.800 220.698 H 128.900 C 128.800 220.698 128.900 220.798 128.900 220.698 V 217.898 C 128.900 217.798 128.800 217.898 128.900 217.898 H 134.700 C 134.800 217.898 134.700 217.798 134.700 217.898 V 220.698 C 134.700 220.798 134.800 220.698 134.700 220.698 H 131.800 Z" stroke="rgb(0,0,255)" stroke-width="0.20" />
  <path d="M 143.800 220.698 H 140.900 C 140.800 220.698 140.900 220.798 140.900 220.698 V 217.898 C 140.900 217.798 140.800 217.898 140.900 217.898 H 146.700 C 146.800 217.898 146.700 217.798 146.700 217.898 V 220.698 C 146.700 220.798 146.800 220.698 146.700 220.698 H 143.800 Z" stroke="rgb(0,0,255)" stroke-width="0.20" />
  <path d="M 155.800 220.698 H 152.900 C 152.800 220.698 152.900 220.798 152.900 220.698 V 217.898 C 152.900 217.798 152.800 217.898 152.900 217.898 H 158.700 C 158.800 217.898 158.700 217.798 158.700 217.898 V 220.698 C 158.700 220.798 158.800 220.698 158.700 220.698 H 155.800 Z" stroke="rgb(0,0,255)" stroke-width="0.20" />
  <path d="M 167.800 220.698 H 164.900 C 164.800 220.698 164.900 220.798 164.900 220.698 V 217.898 C 164.900 217.798 164.800 217.898 164.900 217.898 H 170.700 C 170.800 217.898 170.700 217.798 170.700 217.898 V 220.698 C 170.700 220.798 170.800 220.698 170.700 220.698 H 167.800 Z" stroke="rgb(0,0,255)" stroke-width="0.20" />
  <path d="M 179.800 220.698 H 176.900 C 176.800 220.698 176.900 220.798 176.900 220.698 V 217.898 C 176.900 217.798 176.800 217.898 176.900 217.898 H 182.700 C 182.800 217.898 182.700 217.798 182.700 217.898 V 220.698 C 182.700 220.798 182.800 220.698 182.700 220.698 H 179.800 Z" stroke="rgb(0,0,255)" stroke-width="0.20" />
  <path d="M 191.800 220.698 H 188.900 C 188.800 220.698 188.900 220.798 188.900 220.698 V 217.898 C 188.900 217.798 188.800 217.898 188.900 217.898 H 194.700 C 194.800 217.898 194.700 217.798 194.700 217.898 V 220.698 C 194.700 220.798 194.800 220.698 194.700 220.698 H 191.800 Z" stroke="rgb(0,0,255)" stroke-width="0.20" />
  <path d="M 203.800 220.698 H 200.900 C 200.800 220.698 200.900 220.798 200.900 220.698 V 217.898 C 200.900 217.798 200.800 217.898 200.900 217.898 H 206.700 C 206.800 217.898 206.700 217.798 206.700 217.898 V 220.698 C 206.700 220.798 206.800 220.698 206.700 220.698 H 203.800 Z" stroke="rgb(0,0,255)" stroke-width="0.20" />
  <text dominant-baseline="hanging" font-size="4px" style="font-family: sans-serif ; font-weight: normal; font-style: normal; fill: rgb(255,0,0)" text-anchor="middle" transform="matrix( 1.000 0.000 0.000 1.000 166.300 165.898 )">side</text>
</g>
<g id="p-3" style="fill:none;stroke-linecap:round;stroke-linejoin:round;">
  <path d="M 10.100 110.198 H 21.000 C 21.100 110.198 21.000 110.098 21.000 110.198 V 113.098 C 21.000 113.153 21.045 113.198 21.100 113.198 H 27.100 C 27.155 113.198 27.200 113.153 27.200 113.098 V 110.198 C 27.200 110.098 27.100 110.198 27.200 110.198 H 33.000 C 33.100 110.198 33.000 110.098 33.000 110.198 V 113.098 C 33.000 113.153 33.045 113.198 33.100 113.198 H 39.100 C 39.155 113.198 39.200 113.153 39.200 113.098 V 110.198 C 39.200 110.098 39.100 110.198 39.200 110.198 H 45.000 C 45.100 110.198 45.000 110.098 45.000 110.198 V 113.098 C 45.000 113.153 45.045 113.198 45.100 113.198 H 51.100 C 51.155 113.198 51.200 113.153 51.200 113.098 V 110.198 C 51.200 110.098 51.100 110.198 51.200 110.198 H 57.000 C 57.100 110.198 57.000 110.098 57.000 110.198 V 113.098 C 57.000 113.153 57.045 113.198 57.100 113.198 H 63.100 C 63.155 113.198 63.200 113.153 63.200 113.098 V 110.198 C 63.200 110.098 63.100 110.198 63.200 110.198 H 69.000 C 69.100 110.198 69.000 110.098 69.000 110.198 V 113.098 C 69.000 113.153 69.045 113.198 69.100 113.198 H 75.100 C 75.155 113.198 75.200 113.153 75.200 113.098 V 110.198 C 75.200 110.098 75.100 110.198 75.200 110.198 H 81.000 C 81.100 110.198 81.000 110.098 81.000 110.198 V 113.098 C 81.000 113.153 81.045 113.198 81.100 113.198 H 87.100 C 87.155 113.198 87.200 113.153 87.200 113.098 V 110.198 C 87.200 110.098 87.100 110.198 87.200 110.198 H 93.000 C 93.100 110.198 93.000 110.098 93.000 110.198 V 113.098 C 93.000 113.153 93.045 113.198 93.100 113.198 H 99.100 C 99.155 113.198 99.200 113.153 99.200 113.098 V 110.198 C 99.200 110.098 99.100 110.198 99.200 110.198 H 110.100 C 110.155 110.198 110.200 110.153 110.200 110.098 V 99.198 C 110.200 99.098 110.100 99.198 110.200 99.198 H 113.100 C 113.155 99.198 113.200 99.153 113.200 99.098 V 93.098 C 113.200 93.043 113.155 92.998 113.100 92.998 H 110.200 C 110.100 92.998 110.200 93.098 110.200 92.998 V 87.198 C 110.200 87.098 110.100 87.198 110.200 87.198 H 113.100 C 113.155 87.198 113.200 87.153 113.200 87.098 V 81.098 C 113.200 81.043 113.155 80.998 113.100 80.998 H 110.200 C 110.100 80.998 110.200 81.098 110.200 80.998 V 75.198 C 110.200 75.098 110.100 75.198 110.200 75.198 H 113.100 C 113.155 75.198 113.200 75.153 113.200 75.098 V 69.098 C 113.200 69.043 113.155 68.998 113.100 68.998 H 110.200 C 110.100 68.998 110.200 69.098 110.200 68.998 V 63.198 C 110.200 63.098 110.100 63.198 110.200 63.198 H 113.100 C 113.155 63.198 113.200 63.153 113.200 63.098 V 57.098 C 113.200 57.043 113.155 56.998 113.100 56.998 H 110.200 C 110.100 56.998 110.200 57.098 110.200 56.998 V 51.198 C 110.200 51.098 110.100 51.198 110.200 51.198 H 113.100 C 113.155 51.198 113.200 51.153 113.200 51.098 V 45.098 C 113.200 45.043 113.155 44.998 113.100 44.998 H 110.200 C 110.100 44.998 110.200 45.098 110.200 44.998 V 39.198 C 110.200 39.098 110.100 39.198 110.200 39.198 H 113.100 C 113.155 39.198 113.200 39.153 113.200 39.098 V 33.098 C 113.200 33.043 113.155 32.998 113.100 32.998 H 110.200 C 110.100 32.998 110.200 33.098 110.200 32.998 V 27.198 C 110.200 27.098 110.100 27.198 110.200 27.198 H 113.100 C 113.155 27.198 113.200 27.153 113.200 27.098 V 21.098 C 113.200 21.043 113.155 20.998 113.100 20.998 H 110.200 C 110.100 20.998 110.200 21.098 110.200 20.998 V 10.098 C 110.200 10.078 110.194 10.059 110.183 10.043 C 110.172 10.026 110.157 10.013 110.138 10.006 C 110.120 9.998 110.100 9.996 110.080 10.000 C 110.061 10.004 110.043 10.013 110.029 10.027 L 10.029 110.027 C 10.015 110.041 10.006 110.059 10.002 110.079 C 9.998 110.098 10.000 110.118 10.008 110.136 C 10.015 110.155 10.028 110.170 10.044 110.181 C 10.061 110.192 10.080 110.198 10.100 110.198 Z" stroke="rgb(0,0,0)" stroke-width="0.20" />
  <text dominant-baseline="hanging" font-size="4px" style="font-family: sans-serif ; font-weight: normal; font-style: normal; fill: rgb(255,0,0)" text-anchor="middle" transform="matrix( 1.000 0.000 0.000 1.000 61.600 59.698 )">support 0</text>
</g>
<g id="p-4" style="fill:none;stroke-linecap:round;stroke-linejoin:round;">
  <path d="M 114.800 110.198 H 125.700 C 125.800 110.198 125.700 110.098 125.700 110.198 V 113.098 C 125.700 113.153 125.745 113.198 125.800 113.198 H 131.800 C 131.855 113.198 131.900 113.153 131.900 113.098 V 110.198 C 131.900 110.098 131.800 110.198 131.900 110.198 H 137.700 C 137.800 110.198 137.700 110.098 137.700 110.198 V 113.098 C 137.700 113.153 137.745 113.198 137.800 113.198 H 143.800 C 143.855 113.198 143.900 113.153 143.900 113.098 V 110.198 C 143.900 110.098 143.800 110.198 143.900 110.198 H 149.700 C 149.800 110.198 149.700 110.098 149.700 110.198 V 113.098 C 149.700 113.153 149.745 113.198 149.800 113.198 H 155.800 C 155.855 113.198 155.900 113.153 155.900 113.098 V 110.198 C 155.900 110.098 155.800 110.198 155.900 110.198 H 161.700 C 161.800 110.198 161.700 110.098 161.700 110.198 V 113.098 C 161.700 113.153 161.745 113.198 161.800 113.198 H 167.800 C 167.855 113.198 167.900 113.153 167.900 113.098 V 110.198 C 167.900 110.098 167.800 110.198 167.900 110.198 H 173.700 C 173.800 110.198 173.700 110.098 173.700 110.198 V 113.098 C 173.700 113.153 173.745 113.198 173.800 113.198 H 179.800 C 179.855 113.198 179.900 113.153 179.900 113.098 V 110.198 C 179.900 110.098 179.800 110.198 179.900 110.198 H 185.700 C 185.800 110.198 185.700 110.098 185.700 110.198 V 113.098 C 185.700 113.153 185.745 113.198 185.800 113.198 H 191.800 C 191.855 113.198 191.900 113.153 191.900 113.098 V 110.198 C 191.900 110.098 191.800 110.198 191.900 110.198 H 197.700 C 197.800 110.198 197.700 110.098 197.700 110.198 V 113.098 C 197.700 113.153 197.745 113.198 197.800 113.198 H 203.800 C 203.855 113.198 203.900 113.153 203.900 113.098 V 110.198 C 203.900 110.098 203.800 110.198 203.900 110.198 H 214.800 C 214.855 110.198 214.900 110.153 214.900 110.098 V 99.198 C 214.900 99.098 214.800 99.198 214.900 99.198 H 217.800 C 217.855 99.198 217.900 99.153 217.900 99.098 V 93.098 C 217.900 93.043 217.855 92.998 217.800 92.998 H 214.900 C 214.800 92.998 214.900 93.098 214.900 92.998 V 87.198 C 214.900 87.098 214.800 87.198 214.900 87.198 H 217.800 C 217.855 87.198 217.900 87.153 217.900 87.098 V 81.098 C 217.900 81.043 217.855 80.998 217.800 80.998 H 214.900 C 214.800 80.998 214.900 81.098 214.900 80.998 V 75.198 C 214.900 75.098 214.800 75.198 214.900 75.198 H 217.800 C 217.855 75.198 217.900 75.153 217.900 75.098 V 69.098 C 217.900 69.043 217.855 68.998 217.800 68.998 H 214.900 C 214.800 68.998 214.900 69.098 214.900 68.998 V 63.198 C 214.900 63.098 214.800 63.198 214.900 63.198 H 217.800 C 217.855 63.198 217.900 63.153 217.900 63.098 V 57.098 C 217.900 57.043 217.855 56.998 217.800 56.998 H 214.900 C 214.800 56.998 214.900 57.098 214.900 56.998 V 51.198 C 214.900 51.098 214.800 51.198 214.900 51.198 H 217.800 C 217.855 51.198 217.900 51.153 217.900 51.098 V 45.098 C 217.900 45.043 217.855 44.998 217.800 44.998 H 214.900 C 214.800 44.998 214.900 45.098 214.900 44.998 V 39.198 C 214.900 39.098 214.800 39.198 214.900 39.198 H 217.800 C 217.855 39.198 217.900 39.153 217.900 39.098 V 33.098 C 217.900 33.043 217.855 32.998 217.800 32.998 H 214.900 C 214.800 32.998 214.900 33.098 214.900 32.998 V 27.198 C 214.900 27.098 214.800 27.198 214.900 27.198 H 217.800 C 217.855 27.198 217.900 27.153 217.900 27.098 V 21.098 C 217.900 21.043 217.855 20.998 217.800 20.998 H 214.900 C 214.800 20.998 214.900 21.098 214.900 20.998 V 10.098 C 214.900 10.078 214.894 10.059 214.883 10.043 C 214.872 10.026 214.857 10.013 214.838 10.006 C 214.820 9.998 214.800 9.996 214.780 10.000 C 214.761 10.004 214.743 10.013 214.729 10.027 L 114.729 110.027 C 114.715 110.041 114.706 110.059 114.702 110.079 C 114.698 110.098 114.700 110.118 114.708 110.136 C 114.715 110.155 114.728 110.170 114.744 110.181 C 114.761 110.192 114.780 110.198 114.800 110.198 Z" stroke="rgb(0,0,0)" stroke-width="0.20" />
  <text dominant-baseline="hanging" font-size="4px" style="font-family: sans-serif ; font-weight: normal; font-style: normal; fill: rgb(255,0,0)" text-anchor="middle" transform="matrix( 1.000 0.000 0.000 1.000 166.300 59.698 )">support 1</text>
</g>
</svg>