<?xml version="1.0" encoding="UTF-8" standalone="no"?>
<!-- Created with Inkscape (http://www.inkscape.org/) -->

<svg
   width="210mm"
   height="297mm"
   viewBox="0 0 210 297"
   version="1.1"
   id="svg5"
   inkscape:version="1.2.2 (b0a8486541, 2022-12-01)"
   sodipodi:docname="20260313 - Card Template - Cut Template.svg"
   xmlns:inkscape="http://www.inkscape.org/namespaces/inkscape"
   xmlns:sodipodi="http://sodipodi.sourceforge.net/DTD/sodipodi-0.dtd"
   xmlns="http://www.w3.org/2000/svg"
   xmlns:svg="http://www.w3.org/2000/svg">
  <sodipodi:namedview
     id="namedview7"
     pagecolor="#ffffff"
     bordercolor="#000000"
     borderopacity="0.25"
     inkscape:showpageshadow="2"
     inkscape:pageopacity="0.0"
     inkscape:pagecheckerboard="0"
     inkscape:deskcolor="#d1d1d1"
     inkscape:document-units="mm"
     showgrid="false"
     inkscape:zoom="0.702883"
     inkscape:cx="396.22526"
     inkscape:cy="561.25984"
     inkscape:window-width="1920"
     inkscape:window-height="995"
     inkscape:window-x="0"
     inkscape:window-y="0"
     inkscape:window-maximized="1"
     inkscape:current-layer="layer2" />
  <defs
     id="defs2" />
  <g
     inkscape:groupmode="layer"
     id="layer3"
     inkscape:label="Base Cut">
    <g
       id="g5878">
      <g
         id="g5870">
        <rect
           style="vector-effect:non-scaling-stroke;fill:none;stroke:#000000;stroke-width:0.264583;stroke-dasharray:none;stroke-dashoffset:0;-inkscape-stroke:hairline"
           id="rect5853"
           width="3"
           height="3"
           x="36"
           y="12.500002" />
        <rect
           style="vector-effect:non-scaling-stroke;fill:none;stroke:#000000;stroke-width:0.264583;stroke-dasharray:none;stroke-dashoffset:0;-inkscape-stroke:hairline"
           id="rect5858"
           width="3"
           height="3"
           x="152"
           y="153.5" />
        <rect
           style="vector-effect:non-scaling-stroke;fill:none;stroke:#000000;stroke-width:0.264583;stroke-dasharray:none;stroke-dashoffset:0;-inkscape-stroke:hairline"
           id="rect5860"
           width="3"
           height="3"
           x="152"
           y="12.500002" />
        <rect
           style="vector-effect:non-scaling-stroke;fill:none;stroke:#000000;stroke-width:0.264583;stroke-dasharray:none;stroke-dashoffset:0;-inkscape-stroke:hairline"
           id="rect5862"
           width="3"
           height="3"
           x="36"
           y="153.5" />
      </g>
      <rect
         style="vector-effect:non-scaling-stroke;fill:none;stroke:#000000;stroke-width:0.247167;stroke-dasharray:none;stroke-dashoffset:0;-inkscape-stroke:hairline"
         id="rect5864"
         width="139"
         height="164"
         x="26"
         y="2.5"
         rx="3"
         ry="3" />
    </g>
  </g>
  <g
     inkscape:groupmode="layer"
     id="layer2"
     inkscape:label="Card Print">
    <g
       id="g1014"
       transform="translate(63.999999,40.500001)"
       style="stroke:#ff0000">
      <rect
         style="fill:none;stroke:#ff0000;stroke-width:0.279365"
         id="rect111"
         width="63"
         height="88"
         x="0"
         y="0" />
      <path
         style="vector-effect:non-scaling-stroke;fill:none;stroke:#ff0000;stroke-width:0.264583;stroke-dasharray:none;-inkscape-stroke:hairline"
         d="M 0,-20 V 0 h -20"
         id="rect167" />
      <path
         style="vector-effect:non-scaling-stroke;fill:none;stroke:#ff0000;stroke-width:0.264583;stroke-dasharray:none;-inkscape-stroke:hairline"
         d="M 83,0 H 63 v -20"
         id="path1003" />
      <path
         style="vector-effect:non-scaling-stroke;fill:none;stroke:#ff0000;stroke-width:0.264583;stroke-dasharray:none;-inkscape-stroke:hairline"
         d="M 0,108 V 88 h -20"
         id="path1005" />
      <path
         style="vector-effect:non-scaling-stroke;fill:none;stroke:#ff0000;stroke-width:0.264583;stroke-dasharray:none;-inkscape-stroke:hairline"
         d="M 83,88 H 63 v 20"
         id="path1007" />
    </g>
  </g>
  <g
     inkscape:groupmode="layer"
     id="layer4"
     inkscape:label="Horizontal Cut">
    <g
       id="g5902"
       style="display:inline">
      <path
         id="path5776"
         style="vector-effect:non-scaling-stroke;fill:none;stroke:#000000;stroke-width:0.259021;-inkscape-stroke:hairline"
         d="m 43.999898,36.349719 v 4.000273 0.299723 4.000273 l 9.999907,-4.000273 h 23.000146 36.999809 23.00015 l 9.9999,4.000273 v -4.000273 -0.299723 -4.000273 l -9.9999,4.000273 H 113.99976 76.999951 53.999805 Z" />
      <path
         id="path5786"
         style="vector-effect:non-scaling-stroke;fill:none;stroke:#000000;stroke-width:0.259021;-inkscape-stroke:hairline"
         d="m 43.999898,124.35003 v 4.00028 0.29972 4.00027 l 9.999907,-4.00027 h 23.000146 36.999809 23.00015 l 9.9999,4.00027 v -4.00027 -0.29972 -4.00028 l -9.9999,4.00028 H 113.99976 76.999951 53.999805 Z" />
    </g>
  </g>
  <g
     inkscape:groupmode="layer"
     id="layer5"
     inkscape:label="Pins">
    <path
       id="rect5933"
       style="vector-effect:non-scaling-stroke;fill:none;stroke:#000000;stroke-width:0.221367;stroke-dasharray:none;stroke-dashoffset:0;-inkscape-stroke:hairline"
       d="m 169.44714,51.281102 v 3.000334 h 0.19999 v 4.999695 c 0,0.553999 0.44593,1.000456 0.99993,1.000456 h 0.79996 c 0.55399,0 0.99993,-0.446457 0.99993,-1.000456 v -4.999695 h 0.19999 v -3.000334 h -1.19992 -0.79996 z" />
    <path
       id="path5938"
       style="vector-effect:non-scaling-stroke;fill:none;stroke:#000000;stroke-width:0.221367;stroke-dasharray:none;stroke-dashoffset:0;-inkscape-stroke:hairline"
       d="m 169.44714,65.281587 v 3.000334 h 0.19999 v 4.999695 c 0,0.553999 0.44593,1.000456 0.99993,1.000456 h 0.79996 c 0.55399,0 0.99993,-0.446457 0.99993,-1.000456 v -4.999695 h 0.19999 v -3.000334 h -1.19992 -0.79996 z" />
    <path
       id="path5940"
       style="vector-effect:non-scaling-stroke;fill:none;stroke:#000000;stroke-width:0.221367;stroke-dasharray:none;stroke-dashoffset:0;-inkscape-stroke:hairline"
       d="m 169.44714,79.282072 v 3.000333 h 0.19999 V 87.2821 c 0,0.553999 0.44593,1.000456 0.99993,1.000456 h 0.79996 c 0.55399,0 0.99993,-0.446457 0.99993,-1.000456 v -4.999695 h 0.19999 v -3.000333 h -1.19992 -0.79996 z" />
    <path
       id="path5942"
       style="vector-effect:non-scaling-stroke;fill:none;stroke:#000000;stroke-width:0.221367;stroke-dasharray:none;stroke-dashoffset:0;-inkscape-stroke:hairline"
       d="m 169.44714,93.282556 v 3.000334 h 0.19999 v 4.99969 c 0,0.554 0.44593,1.00046 0.99993,1.00046 h 0.79996 c 0.55399,0 0.99993,-0.44646 0.99993,-1.00046 v -4.99969 h 0.19999 v -3.000334 h -1.19992 -0.79996 z" />
  </g>
  <g
     inkscape:label="Vertical Cut"
     inkscape:groupmode="layer"
     id="layer1"
     style="display:inline">
    <g
       id="g5898">
      <path
         id="path5772"
         style="vector-effect:non-scaling-stroke;fill:none;stroke:#000000;stroke-width:0.259021;-inkscape-stroke:hairline"
         d="m 122.84987,20.500041 4.00027,9.999906 v 48.000171 11.999784 48.000168 l -4.00027,9.99991 h 4.00027 0.29972 4.00027 l -4.00027,-9.99991 V 90.499902 78.500118 30.499947 l 4.00027,-9.999906 h -4.00027 -0.29972 z" />
      <path
         id="rect3581"
         style="vector-effect:non-scaling-stroke;fill:none;stroke:#000000;stroke-width:0.259021;-inkscape-stroke:hairline"
         d="m 59.850094,20.500041 4.000272,9.999906 v 48.000171 11.999784 48.000168 l -4.000272,9.99991 h 4.000272 0.299724 4.000272 L 64.15009,138.50007 V 90.499902 78.500118 30.499947 l 4.000272,-9.999906 H 64.15009 63.850366 Z"
         inkscape:label="path3581" />
    </g>
  </g>
</svg>
