<?xml version="1.0" encoding="UTF-8"?>
<!DOCTYPE svg PUBLIC "-//W3C//DTD SVG 1.1//EN" "http://www.w3.org/Graphics/SVG/1.1/DTD/svg11.dtd">
<!-- Creator: CorelDRAW Standard 2024 -->
<svg xmlns="http://www.w3.org/2000/svg" xml:space="preserve" width="2400px" height="1949px" version="1.1" style="shape-rendering:geometricPrecision; text-rendering:geometricPrecision; image-rendering:optimizeQuality; fill-rule:evenodd; clip-rule:evenodd"
viewBox="0 0 240000000 194921400"
 xmlns:xlink="http://www.w3.org/1999/xlink"
 xmlns:xodm="http://www.corel.com/coreldraw/odm/2003">
 <defs>
  <style type="text/css">
   <![CDATA[
    .str1 {stroke:red;stroke-width:208300;stroke-miterlimit:10}
    .str2 {stroke:red;stroke-width:45000;stroke-miterlimit:10}
    .str0 {stroke:#231815;stroke-width:11811000;stroke-linecap:round;stroke-linejoin:round;stroke-miterlimit:10}
    .fil0 {fill:none;fill-rule:nonzero}
    .fil2 {fill:black}
    .fil3 {fill:red}
    .fil1 {fill:#231815;fill-rule:nonzero}
    .fnt0 {font-weight:normal;font-size:5000000px;font-family:'Arial'}
   ]]>
  </style>
 </defs>
 <g id="レイヤー_x0020_1" visibility="hidden">
  <metadata id="CorelCorpID_0Corel-Layer"/>
  <path class="fil0 str0" d="M131634900 172479800c-48747400,0 -8858400,-89513000 -8858400,-118396500"/>
  <line class="fil0 str0" x1="122776500" y1="54083300" x2="122776700" y2= "54088800" />
  <path class="fil0 str0" d="M122776700 54088800c0,-38047500 -70866300,-38047500 -70866300,0"/>
  <line class="fil0 str0" x1="51910400" y1="54088800" x2="51910500" y2= "54083300" />
  <path class="fil0 str0" d="M51910500 54083300c0,28883500 39888900,118396500 -8858300,118396500"/>
 </g>
 <g id="レイヤー_x0020_2" visibility="hidden">
  <metadata id="CorelCorpID_1Corel-Layer"/>
  <path class="fil1" d="M130829700 177835400c-9353900,0 -16532200,-3090000 -21336000,-9184100 -12528800,-15894300 -4883200,-47726400 1862200,-75811400 2952900,-12294200 5742000,-23906600 5742000,-30614500 -1200,-6441000 -2693700,-11633500 -8002900,-15434100 -4979300,-3564200 -12072000,-5608600 -19459900,-5608600 -13225200,0 -27459400,6585200 -27462700,21042700l100 0c0,6707900 2789100,18320300 5741900,30614500 6745600,28085000 14391100,59917400 1862300,75811400 -4803700,6094100 -11982200,9184100 -21335800,9184100 -3033500,0 -5492600,-2459100 -5492600,-5492500 0,-3033500 2459100,-5492600 5492600,-5492600 5899900,0 10056900,-1635300 12708600,-4999400 3862800,-4900500 5148100,-14004300 3820200,-27058500 -1266400,-12447600 -4703700,-26759500 -7736700,-39386900 -3243400,-13504200 -6044700,-25166600 -6045700,-33175100l0 0c0,-5171600 1176900,-9960400 3498200,-14233300 2139400,-3938100 5199600,-7349000 9095700,-10138100 6901600,-4940600 16083500,-7661500 25853900,-7661500 9770800,0 18952500,2720900 25854100,7661500 3896100,2789100 6956200,6200000 9095700,10138100 2321400,4272900 3498200,9061700 3498200,14233300 -1000,8008500 -2802400,19670800 -6045800,33175100 -3032900,12627300 -6470300,26939300 -7736600,39386900 -1327900,13054200 -42800,22158000 3820200,27058500 2651800,3364100 6808700,4999400 12708800,4999400 3033400,0 5492500,2459100 5492500,5492600 0,3033400 -2459100,5492500 -5492500,5492500z"/>
 </g>
 <g id="レイヤー_x0020_3" visibility="hidden">
  <metadata id="CorelCorpID_2Corel-Layer"/>
  <path class="fil0 str1" d="M88051300 51982500c0,733800 -594900,1328700 -1328800,1328700 -733800,0 -1328700,-594900 -1328700,-1328700 0,-733900 594900,-1328800 1328700,-1328800 733900,0 1328800,594900 1328800,1328800z"/>
  <path class="fil0 str1" d="M67972500 141684900c0,733800 -594800,1328700 -1328700,1328700 -733800,0 -1328700,-594900 -1328700,-1328700 0,-733900 594900,-1328700 1328700,-1328700 733900,0 1328700,594800 1328700,1328700z"/>
  <path class="fil0 str1" d="M105472800 141684900c0,733800 594800,1328700 1328900,1328700 733600,0 1328500,-594900 1328500,-1328700 0,-733900 -594900,-1328700 -1328500,-1328700 -734100,0 -1328900,594800 -1328900,1328700z"/>
  <path class="fil0 str1" d="M102684700 135261300c1618200,-8593600 3728800,-17384000 5758800,-25835400 2952900,-12294000 5741800,-23906500 5741800,-30614400"/>
  <line class="fil0 str1" x1="114185300" y1="78811500" x2="114185700" y2= "78811500" />
  <path class="fil0 str1" d="M114185700 78811500c-3600,-14457500 -14237400,-21042700 -27463000,-21042700 0,0 0,0 -200,0"/>
  <line class="fil0 str1" x1="86722500" y1="57768800" x2="86722300" y2= "57768800" />
  <path class="fil0 str1" d="M86722300 57768800c-13225100,0 -27459300,6585200 -27462600,21042700"/>
  <line class="fil0 str1" x1="59259700" y1="78811500" x2="59259800" y2= "78811500" />
  <path class="fil0 str1" d="M59259800 78811500c0,6707900 2789100,18320400 5741900,30614400 2029900,8451400 4140500,17241800 5759100,25835400 32500,173000 63700,345300 95900,518000"/>
  <line class="fil0 str1" x1="70856700" y1="135779300" x2="102588600" y2= "135779300" />
  <path class="fil0 str1" d="M102588600 135779300c32200,-172700 63500,-345000 96100,-518000"/>
  <line class="fil0 str1" x1="102588600" y1="135779300" x2="70856700" y2= "135779300" />
  <path class="fil0 str1" d="M70856700 135779300c711400,3821200 1323900,7601500 1784900,11293100 21700,173200 41100,345300 62200,518000"/>
  <line class="fil0 str1" x1="72703800" y1="147590400" x2="100741500" y2= "147590400" />
  <path class="fil0 str1" d="M100741500 147590400c21000,-172700 40500,-344800 62100,-518000 461000,-3691600 1073400,-7471900 1785000,-11293100"/>
  <path class="fil0 str1" d="M127917100 183436500c-5899700,0 -10057000,-1635400 -12708800,-4999500 -3862700,-4900500 -5148100,-14004300 -3820000,-27058500 126500,-1244100 279100,-2510200 446800,-3788100 22700,-173300 42500,-344200 65900,-518000 493900,-3672400 1142800,-7464400 1884600,-11293100 33500,-172700 66000,-345000 99800,-518000 1538500,-7858500 3458700,-15854500 5239700,-23269900 3243400,-13504000 6044500,-25166400 6045400,-33174900"/>
  <line class="fil0 str1" x1="125170500" y1="78816500" x2="125170900" y2= "78816500" />
  <path class="fil0 str1" d="M125170900 78816500c0,-5171500 -1177200,-9960400 -3498600,-14233300 -2139100,-3938100 -5199400,-7349000 -9095400,-10138100 -6901900,-4940600 -16083600,-7661400 -25854200,-7661400 -200,0 -400,0 -400,0 -9770400,0 -18952200,2720800 -25853900,7661400 -3896000,2789100 -6956300,6200000 -9095600,10138100 -2321300,4272900 -3498200,9061800 -3498200,14233300"/>
  <line class="fil0 str1" x1="48274600" y1="78816500" x2="48274700" y2= "78816500" />
  <path class="fil0 str1" d="M48274700 78816500c900,8008500 2802200,19670900 6045600,33174900 1781000,7415400 3701100,15411400 5239500,23269900 33800,173000 66400,345300 99800,518000 741900,3828700 1390500,7620700 1884800,11293100 23400,173800 43200,344700 65900,518000 167600,1277900 320200,2544000 446700,3788100 1328000,13054200 42600,22158000 -3820200,27058500 -2651700,3364100 -6808800,4999500 -12708700,4999500 -3033400,0 -5492500,2459100 -5492500,5492500"/>
  <line class="fil0 str1" x1="40035600" y1="188929000" x2="63215800" y2= "188929000" />
  <path class="fil0 str1" d="M63215800 188929000c1337000,-1074800 2554800,-2304500 3648300,-3691600 6925900,-8786200 7683900,-22444900 5839700,-37647000 -21100,-172700 -40500,-344800 -62200,-518000 -461000,-3691600 -1073500,-7471900 -1784900,-11293100 -32200,-172700 -63400,-345000 -95900,-518000 -1618600,-8593600 -3729200,-17384000 -5759100,-25835400 -2952800,-12294000 -5741900,-23906500 -5741900,-30614400"/>
  <line class="fil0 str1" x1="59259800" y1="78811500" x2="59259700" y2= "78811500" />
  <path class="fil0 str1" d="M59259700 78811500c3300,-14457500 14237500,-21042700 27462600,-21042700"/>
  <line class="fil0 str1" x1="86722300" y1="57768800" x2="86722500" y2= "57768800" />
  <path class="fil0 str1" d="M86722500 57768800c200,0 200,0 200,0 13225600,0 27459400,6585200 27463000,21042700"/>
  <line class="fil0 str1" x1="114185700" y1="78811500" x2="114185300" y2= "78811500" />
  <path class="fil0 str1" d="M114185300 78811500c0,6707900 -2788900,18320400 -5741800,30614400 -2030000,8451400 -4140600,17241800 -5758800,25835400 -32600,173000 -63900,345300 -96100,518000 -711600,3821200 -1324000,7601500 -1785000,11293100 -21600,173200 -41100,345300 -62100,518000 -1844300,15202100 -1086400,28860800 5839700,37647000 1093300,1387100 2311200,2616800 3648200,3691600"/>
  <line class="fil0 str1" x1="110229400" y1="188929000" x2="133409800" y2= "188929000" />
  <path class="fil0 str1" d="M133409800 188929000c0,-3033400 -2459300,-5492500 -5492700,-5492500"/>
 </g>
 <g id="レイヤー_x0020_4" visibility="hidden">
  <metadata id="CorelCorpID_3Corel-Layer"/>
  <g id="_2401267392064">
   <path class="fil0 str1" d="M88139800 51982500c0,782700 -634600,1417300 -1417300,1417300 -782700,0 -1417300,-634600 -1417300,-1417300 0,-782800 634600,-1417400 1417300,-1417400 782700,0 1417300,634600 1417300,1417400z"/>
   <path class="fil0 str1" d="M68061200 141684900c0,782700 -634600,1417200 -1417400,1417200 -782800,0 -1417300,-634500 -1417300,-1417200 0,-782700 634500,-1417300 1417300,-1417300 782800,0 1417400,634600 1417400,1417300z"/>
   <path class="fil0 str1" d="M105384300 141684900c0,782700 634500,1417200 1417400,1417200 782500,0 1417000,-634500 1417000,-1417200 0,-782700 -634500,-1417300 -1417000,-1417300 -782900,0 -1417400,634600 -1417400,1417300z"/>
   <path class="fil0 str1" d="M127917100 183436500c-5899700,0 -10057000,-1635400 -12708800,-4999500 -3862700,-4900500 -5148100,-14004300 -3820000,-27058500 126500,-1244100 279100,-2510200 446800,-3788100 22700,-173300 42500,-344200 65900,-518000 493900,-3672400 1142800,-7464400 1884600,-11293100 33500,-172700 66000,-345000 99800,-518000 1538500,-7858500 3458700,-15854500 5239700,-23269900 3243400,-13504000 6044500,-25166400 6045400,-33174900"/>
   <line class="fil0 str1" x1="125170500" y1="78816500" x2="125170900" y2= "78816500" />
   <path class="fil0 str1" d="M125170900 78816500c0,-5171500 -1177200,-9960400 -3498600,-14233300 -2139100,-3938100 -5199400,-7349000 -9095400,-10138100 -6901900,-4940600 -16083600,-7661400 -25854200,-7661400 -200,0 -400,0 -400,0 -9770400,0 -18952200,2720800 -25853900,7661400 -3896000,2789100 -6956300,6200000 -9095600,10138100 -2321300,4272900 -3498200,9061800 -3498200,14233300"/>
   <line class="fil0 str1" x1="48274600" y1="78816500" x2="48274700" y2= "78816500" />
   <path class="fil0 str1" d="M48274700 78816500c900,8008500 2802200,19670900 6045600,33174900 1781000,7415400 3701100,15411400 5239500,23269900 33800,173000 66400,345300 99800,518000 741900,3828700 1390500,7620700 1884800,11293100 23400,173800 43200,344700 65900,518000 167600,1277900 320200,2544000 446700,3788100 1328000,13054200 42600,22158000 -3820200,27058500 -2651700,3364100 -6808800,4999500 -12708700,4999500 -3033400,0 -5492500,2459100 -5492500,5492500"/>
   <line class="fil0 str1" x1="40035600" y1="188929000" x2="63215800" y2= "188929000" />
   <path class="fil0 str1" d="M63215800 188929000c1337000,-1074800 2554800,-2304500 3648300,-3691600 6925900,-8786200 7683900,-22444900 5839700,-37647000 -21100,-172700 -40500,-344800 -62200,-518000 -461000,-3691600 -1073500,-7471900 -1784900,-11293100 -32200,-172700 -63400,-345000 -95900,-518000 -1618600,-8593600 -3729200,-17384000 -5759100,-25835400 -2952800,-12294000 -5741900,-23906500 -5741900,-30614400"/>
   <line class="fil0 str1" x1="59259800" y1="78811500" x2="59259700" y2= "78811500" />
   <path class="fil0 str1" d="M59259700 78811500c3300,-14457500 14237500,-21042700 27462600,-21042700"/>
   <line class="fil0 str1" x1="86722300" y1="57768800" x2="86722500" y2= "57768800" />
   <path class="fil0 str1" d="M86722500 57768800c200,0 200,0 200,0 13225600,0 27459400,6585200 27463000,21042700"/>
   <line class="fil0 str1" x1="114185700" y1="78811500" x2="114185300" y2= "78811500" />
   <path class="fil0 str1" d="M114185300 78811500c0,6707900 -2788900,18320400 -5741800,30614400 -2030000,8451400 -4140600,17241800 -5758800,25835400 -32600,173000 -63900,345300 -96100,518000 -711600,3821200 -1324000,7601500 -1785000,11293100 -21600,173200 -41100,345300 -62100,518000 -1844300,15202100 -1086400,28860800 5839700,37647000 1093300,1387100 2311200,2616800 3648200,3691600"/>
   <line class="fil0 str1" x1="110229400" y1="188929000" x2="133409800" y2= "188929000" />
   <path class="fil0 str1" d="M133409800 188929000c0,-3033400 -2459300,-5492500 -5492700,-5492500"/>
  </g>
  <g id="_2401267392016">
   <path class="fil0 str1" d="M142173000 144493300c0,782700 -634500,1417200 -1417200,1417200 -782700,0 -1417200,-634500 -1417200,-1417200 0,-782700 634500,-1417200 1417200,-1417200 782700,0 1417200,634500 1417200,1417200z"/>
   <path class="fil0 str1" d="M157252000 144493300c0,782700 634600,1417200 1417500,1417200 782400,0 1417000,-634500 1417000,-1417200 0,-782700 -634600,-1417200 -1417000,-1417200 -782900,0 -1417500,634500 -1417500,1417200z"/>
   <line class="fil0 str1" x1="165479900" y1="138587700" x2="133747900" y2= "138587700" />
   <path class="fil0 str1" d="M133747900 138587700c711500,3821200 1324100,7601600 1785100,11293200 21600,173100 41100,345300 62100,517900"/>
   <line class="fil0 str1" x1="135595100" y1="150398800" x2="163632800" y2= "150398800" />
   <path class="fil0 str1" d="M163632800 150398800c21000,-172600 40500,-344800 62100,-517900 461000,-3691600 1073400,-7472000 1785000,-11293200"/>
  </g>
 </g>
 <g id="レイヤー_x0020_5">
  <metadata id="CorelCorpID_4Corel-Layer"/>
  <g id="_2401272060304">
   <g>
    <path class="fil0 str2" d="M40783200 14004500c141700,769900 -367200,1508900 -1137000,1650700 -769900,141800 -1508900,-367300 -1650600,-1137100 -141900,-770000 367400,-1509100 1137100,-1650800 769700,-141700 1508800,367200 1650500,1137200z"/>
    <path class="fil0 str2" d="M37287500 105860300c141900,769500 -367200,1508700 -1137100,1650600 -769800,141600 -1508900,-367300 -1650700,-1137100 -141700,-769900 367400,-1508800 1137200,-1650700 769700,-141900 1508900,367200 1650600,1137200z"/>
    <path class="fil0 str2" d="M73993000 99098700c142100,769700 880900,1278700 1650800,1136800 769600,-141700 1278700,-880700 1136800,-1650400 -141600,-769900 -880800,-1278700 -1649900,-1137100 -770200,141700 -1279200,880900 -1137700,1650700z"/>
    <path class="fil0 str2" d="M103716900 136077100c-5802000,1068600 -10186700,213500 -13404300,-2614300 -4686300,-4119700 -7599900,-12839800 -8658600,-25918800 -100800,-1246200 -180300,-2519000 -246900,-3806000 -8900,-174900 -20600,-346300 -29300,-521500 -179100,-3701200 -228000,-7548100 -192100,-11447800 1500,-175700 2200,-351300 4200,-527400 89400,-8007200 529100,-16218900 937500,-23834300 743100,-13868000 1385300,-25845000 -64600,-33721100"/>
    <line class="fil0 str2" x1="82062800" y1="33685900" x2="82063200" y2= "33685700" />
    <path class="fil0 str2" d="M82063200 33685700c-937200,-5085800 -2962400,-9582300 -6019300,-13364100 -2817300,-3485100 -6444700,-6285300 -10781700,-8322100 -7682800,-3608600 -17205300,-4621200 -26814300,-2851100 -200,100 -400,100 -400,100 -9608800,1770000 -18145700,6109100 -24038400,12218400 -3326000,3448700 -5717700,7357800 -7108200,11618200 -1508900,4622700 -1798700,9545500 -862100,14631500"/>
    <line class="fil0 str2" x1="6438800" y1="47616600" x2="6439000" y2= "47616500" />
    <path class="fil0 str2" d="M6439000 47616500c1451800,7875800 6319500,18837800 11955800,31530900 3094900,6970000 6431700,14485900 9368400,21935600 64600,163800 127800,327600 192000,491300 1423300,3631200 2748000,7242800 3899500,10764800 54500,166700 104800,331200 158700,497400 396300,1226400 775700,2444100 1125500,3644500 3670900,12597900 4056100,21783500 1144900,27303100 -1998100,3788700 -5790400,6149700 -11592600,7218800 -2983200,549500 -4956000,3413500 -4406800,6396700"/>
    <line class="fil0 str2" x1="18284400" y1="157399600" x2="41081000" y2= "153200200" />
    <path class="fil0 str2" d="M41081000 153200200c1120300,-1299200 2095100,-2729300 2919300,-4291600 5219700,-9895200 3490800,-23465000 -1077000,-38081700 -52100,-166100 -102400,-331800 -155000,-498300 -1122200,-3546900 -2409300,-7153700 -3801300,-10782500 -62900,-164300 -124900,-328100 -188300,-492200 -3148500,-8158300 -6816700,-16420900 -10344000,-24364700 -5131300,-11555800 -9978000,-22470800 -11193100,-29067800"/>
    <line class="fil0 str2" x1="17241600" y1="45621400" x2="17241500" y2= "45621600" />
    <path class="fil0 str2" d="M17241500 45621600c-2616100,-14218800 10189700,-23273800 23196100,-25669900"/>
    <line class="fil0 str2" x1="40437600" y1="19951700" x2="40437700" y2= "19951900" />
    <path class="fil0 str2" d="M40437700 19951900c200,0 200,0 200,0 13006500,-2396000 28198100,1501400 30820700,15719200"/>
    <line class="fil0 str2" x1="71258600" y1="35671100" x2="71258400" y2= "35671100" />
    <path class="fil0 str2" d="M71258400 35671100c1215300,6596800 576200,18522400 -100700,31148000 -465400,8679300 -948600,17706900 -983200,26451200 -500,176000 -200,351300 -700,527000 -7400,3886700 75000,7715500 290500,11429400 10300,174200 22100,347100 32700,520900 940300,15284400 4160100,28579800 12563300,35966200 1326300,1165700 2747000,2154500 4256700,2969300"/>
    <line class="fil0 str2" x1="87317000" y1="144683100" x2="110113900" y2= "140483900" />
    <path class="fil0 str2" d="M110113900 140483900c-550100,-2983600 -3413700,-4956100 -6397000,-4406800"/>
   </g>
   <g>
    <path class="fil0 str2" d="M98510000 151498100c-141700,-769400 367300,-1508600 1137300,-1650400 769900,-141600 1508700,367200 1650300,1137100 142200,769700 -366900,1508800 -1136700,1650600 -770100,141800 -1508800,-367200 -1650900,-1137300z"/>
    <path class="fil0 str2" d="M102005900 59642700c-141500,-769900 367500,-1508700 1137300,-1650500 769900,-141700 1508800,367000 1650600,1137200 141800,769300 -367400,1508500 -1137400,1650600 -769500,141600 -1508400,-367800 -1650500,-1137300z"/>
    <path class="fil0 str2" d="M65300600 66404300c-141800,-769800 -880800,-1278900 -1651000,-1137000 -769300,141700 -1278300,880500 -1136800,1650500 141900,769600 880800,1278900 1650300,1137100 770100,-141800 1279200,-881100 1137500,-1650600z"/>
    <path class="fil0 str2" d="M35576700 29425300c5802000,-1068600 10186700,-213500 13403900,2614800 4686800,4119300 7600100,12839900 8659000,25918700 100800,1246200 180200,2519200 246800,3806000 9000,174700 20700,346300 29100,521400 179500,3701500 228500,7548200 192600,11447800 -1700,175800 -2500,351200 -4600,527300 -89300,8007400 -529100,16219100 -937100,23834200 -743500,13868300 -1385600,25845200 64500,33721400"/>
    <line class="fil0 str2" x1="57230900" y1="131816900" x2="57230600" y2= "131816900" />
    <path class="fil0 str2" d="M57230600 131816900c936700,5086100 2962100,9582300 6019200,13364100 2817100,3485000 6444400,6285100 10781300,8322500 7682600,3608400 17205400,4621000 26814200,2851000 600,-200 600,-200 600,-200 9608500,-1770000 18145600,-6109200 24038300,-12218400 3326400,-3448600 5718000,-7358100 7108100,-11618300 1509100,-4622800 1799200,-9545500 862300,-14631400"/>
    <line class="fil0 str2" x1="132854600" y1="117886200" x2="132854200" y2= "117886200" />
    <path class="fil0 str2" d="M132854200 117886200c-1451600,-7875600 -6319200,-18837900 -11955400,-31530800 -3094900,-6970100 -6431500,-14486000 -9368500,-21935700 -64500,-163800 -127600,-327300 -191900,-491300 -1423500,-3630800 -2748300,-7242400 -3899500,-10765000 -54300,-166600 -104600,-331100 -158700,-497300 -396300,-1226200 -775600,-2443900 -1125000,-3644400 -3671600,-12597600 -4056700,-21783800 -1145700,-27302800 1998300,-3788900 5790600,-6150500 11592800,-7219200 2983600,-549700 4956100,-3413200 4406500,-6396600"/>
    <line class="fil0 str2" x1="121008800" y1="8103100" x2="98212400" y2= "12302400" />
    <path class="fil0 str2" d="M98212400 12302400c-1120400,1299400 -2095200,2729200 -2918900,4291300 -5219900,9895600 -3490600,23465900 1076700,38082000 52100,166400 102500,332200 155000,498300 1122200,3547200 2409500,7153600 3801400,10782800 62800,164400 124800,327800 188300,492100 3148400,8158100 6816800,16420700 10344000,24364700 5131300,11555900 9977400,22470800 11193000,29067600"/>
    <line class="fil0 str2" x1="122051900" y1="119881200" x2="122052200" y2= "119881200" />
    <path class="fil0 str2" d="M122052200 119881200c2615800,14218800 -10189700,23273600 -23196500,25669400"/>
    <path class="fil0 str2" d="M98855700 145550600c-400,500 -400,500 -400,500 -13006300,2395600 -28197600,-1501700 -30820500,-15719500"/>
    <line class="fil0 str2" x1="68034800" y1="129831600" x2="68035200" y2= "129831600" />
    <path class="fil0 str2" d="M68035200 129831600c-1215200,-6596700 -576100,-18522300 100600,-31148000 465300,-8679300 948800,-17706700 983100,-26451300 900,-176200 600,-351000 700,-526700 7500,-3887000 -75000,-7715400 -290300,-11429900 -10200,-173700 -22300,-346600 -32800,-520500 -940200,-15284400 -4159700,-28580100 -12563400,-35966200 -1326500,-1166100 -2747000,-2154700 -4256500,-2969200"/>
    <line class="fil0 str2" x1="51976600" y1="20819800" x2="29179600" y2= "25019100" />
    <path class="fil0 str2" d="M29179600 25019100c549600,2983400 3413700,4956100 6397100,4406200"/>
   </g>
   <g>
    <path class="fil0 str2" d="M27639700 44759500c141800,769800 -367400,1508900 -1137000,1650700 -769800,141700 -1508800,-367500 -1650900,-1137100 -141700,-769600 367700,-1508800 1137300,-1650700 769700,-141600 1508800,367500 1650600,1137100z"/>
    <path class="fil0 str2" d="M42469300 42027800c141600,769900 880600,1278900 1650500,1137100 769500,-141700 1278500,-880800 1136900,-1650600 -141800,-769800 -880800,-1278800 -1650300,-1137000 -769900,141800 -1279200,880900 -1137100,1650500z"/>
    <line class="fil0 str2" x1="49491000" y1="34729500" x2="18284100" y2= "40477900" />
    <path class="fil0 str2" d="M18284100 40477900c1392000,3629300 2679200,7236000 3801400,10783100 52400,166400 103000,332100 154900,498200"/>
    <line class="fil0 str2" x1="22240400" y1="51759200" x2="49814400" y2= "46679600" />
    <path class="fil0 str2" d="M49814400 46679600c-11100,-173600 -23100,-346300 -33100,-520500 -215400,-3714100 -298100,-7542800 -290300,-11429600"/>
   </g>
   <g>
    <path class="fil0 str2" d="M111617300 121547700c-141700,-770100 367300,-1509200 1137200,-1651000 769600,-142000 1508500,367500 1650100,1136900 142100,770100 -366800,1508800 -1136800,1650800 -769700,141800 -1508400,-367300 -1650500,-1136700z"/>
    <path class="fil0 str2" d="M96787900 124279000c-141900,-769600 -881000,-1278900 -1650400,-1137000 -769700,141800 -1278900,880900 -1137100,1650600 141700,769800 880900,1278600 1650100,1137300 770100,-141800 1279200,-881000 1137400,-1650900z"/>
    <line class="fil0 str2" x1="89765900" y1="131577700" x2="120973100" y2= "125828900" />
    <path class="fil0 str2" d="M120973100 125828900c-1392300,-3629200 -2679300,-7236100 -3801900,-10782900 -52500,-166400 -102900,-332200 -154700,-498400"/>
    <line class="fil0 str2" x1="117016500" y1="114547600" x2="89442700" y2= "119627400" />
    <path class="fil0 str2" d="M89442700 119627400c10900,173700 22900,346000 33300,520400 215300,3714200 297900,7542700 289900,11429900"/>
   </g>
  </g>
  <g id="_2401272060160">
   <g>
    <path class="fil0 str2" d="M141437600 11846400c141800,769700 -367100,1508900 -1137100,1650500 -769600,141800 -1508600,-367500 -1650200,-1137100 -142200,-770000 367000,-1508900 1136700,-1650700 770100,-141800 1508800,367200 1650600,1137300z"/>
    <path class="fil0 str2" d="M137942100 103702000c141800,769600 -367300,1508600 -1137100,1650500 -770300,141800 -1509000,-367200 -1651000,-1137100 -141800,-769600 367600,-1508600 1137500,-1650300 769700,-142100 1508600,367000 1650600,1136900z"/>
    <path class="fil0 str2" d="M174647400 96940400c141700,769700 881000,1278800 1651000,1137100 769300,-141800 1278400,-880800 1136700,-1650600 -141700,-769700 -880500,-1278900 -1650100,-1136900 -770100,141700 -1279300,880600 -1137600,1650400z"/>
    <path class="fil0 str2" d="M204371400 133919000c-5802200,1069100 -10187000,213400 -13404300,-2614400 -4686300,-4119700 -7599700,-12840000 -8658700,-25918800 -100900,-1246400 -180300,-2519200 -246800,-3806200 -8900,-174900 -20700,-346100 -29100,-521400 -179400,-3701100 -228700,-7547900 -192700,-11447700 1900,-175900 2900,-351300 4800,-527400 89400,-8007200 528900,-16219000 937000,-23834100 743600,-13868100 1385300,-25845200 -64500,-33721300"/>
    <line class="fil0 str2" x1="182717100" y1="31527700" x2="182717500" y2= "31527600" />
    <path class="fil0 str2" d="M182717500 31527600c-937100,-5085900 -2962000,-9582300 -6019500,-13364200 -2817000,-3485200 -6444300,-6285200 -10781200,-8322100 -7682900,-3608700 -17205600,-4621100 -26814400,-2851200 -500,200 -500,200 -500,200 -9608500,1770000 -18145500,6109200 -24038300,12218200 -3326400,3449200 -5717600,7357800 -7108300,11618300 -1509100,4622900 -1799000,9545400 -862100,14631700"/>
    <line class="fil0 str2" x1="107093200" y1="45458500" x2="107093400" y2= "45458300" />
    <path class="fil0 str2" d="M107093400 45458300c1451800,7875800 6319600,18837900 11955600,31530900 3094900,6970000 6431700,14485900 9368600,21935500 64400,164000 127700,327500 192000,491400 1423300,3631000 2748200,7242600 3899300,10765000 54700,166400 105000,331000 158900,497300 396200,1226400 775300,2444000 1125100,3644400 3671300,12597600 4056400,21783600 1145400,27303000 -1998100,3788700 -5790600,6150000 -11592600,7219100 -2983600,549300 -4956300,3413300 -4406700,6396300"/>
    <line class="fil0 str2" x1="118939000" y1="155241200" x2="141735600" y2= "151042000" />
    <path class="fil0 str2" d="M141735600 151042000c1120200,-1299500 2095600,-2728900 2918900,-4291200 5219800,-9895900 3490900,-23465600 -1076700,-38082100 -52200,-166000 -102600,-331600 -155000,-498200 -1122000,-3546800 -2409400,-7153700 -3801400,-10782800 -63100,-163900 -124700,-328100 -188200,-492200 -3148600,-8157800 -6816900,-16420700 -10344300,-24364300 -5131200,-11556100 -9977600,-22471000 -11193000,-29067800"/>
    <line class="fil0 str2" x1="117895900" y1="43463400" x2="117895900" y2= "43463300" />
    <path class="fil0 str2" d="M117895900 43463300c-2615800,-14218800 10189400,-23273700 23196200,-25669600"/>
    <path class="fil0 str2" d="M141092100 17793700c400,-100 400,-100 400,-100 13006600,-2396000 28197900,1501500 30820700,15719200"/>
    <line class="fil0 str2" x1="171913200" y1="33512800" x2="171912900" y2= "33512800" />
    <path class="fil0 str2" d="M171912900 33512800c1215200,6597000 576100,18522500 -100500,31148000 -465700,8679500 -948900,17706900 -983500,26451300 -600,176000 0,351400 -400,527000 -7800,3886700 74700,7715600 289900,11429400 10800,174500 22600,347200 33000,520900 940500,15284600 4159700,28579900 12563400,35966000 1326400,1166100 2747100,2154700 4256600,2969700"/>
    <line class="fil0 str2" x1="187971400" y1="142525100" x2="210768300" y2= "138325500" />
    <path class="fil0 str2" d="M210768300 138325500c-549700,-2983000 -3413700,-4956100 -6396900,-4406500"/>
   </g>
   <g>
    <path class="fil0 str2" d="M199164700 149339900c-141600,-769900 367200,-1508600 1137100,-1650400 770100,-141800 1508600,367200 1650600,1137100 141800,769900 -367200,1509000 -1137100,1650400 -769900,142000 -1509000,-367500 -1650600,-1137100z"/>
    <path class="fil0 str2" d="M202660600 57484500c-141800,-769700 367200,-1508600 1136900,-1650500 769400,-141800 1509000,367000 1650800,1137100 142000,769400 -367600,1508700 -1137300,1650600 -769700,141800 -1509000,-367500 -1650400,-1137200z"/>
    <path class="fil0 str2" d="M165955000 64246200c-142000,-769900 -881100,-1279100 -1651000,-1137200 -769400,142000 -1278400,880600 -1136700,1650500 141800,769700 881000,1278900 1650400,1137400 769500,-142200 1278700,-881500 1137300,-1650700z"/>
    <path class="fil0 str2" d="M136230900 27267300c5802200,-1068700 10186700,-213500 13404300,2614700 4686500,4119300 7600100,12839800 8658700,25918500 100900,1246400 180000,2519300 246900,3806200 9000,174800 20800,346300 29000,521600 179400,3701200 228600,7547700 192400,11447500 -1600,175900 -2800,351200 -4000,527500 -89800,8007200 -529600,16218700 -937500,23834000 -743500,13868200 -1385500,25845200 64500,33721400"/>
    <line class="fil0 str2" x1="157885200" y1="129658700" x2="157884700" y2= "129659100" />
    <path class="fil0 str2" d="M157884700 129659100c937100,5085400 2962300,9581700 6019400,13363600 2817100,3485400 6444700,6285500 10781600,8322400 7682700,3608800 17205200,4621000 26814200,2851000 400,0 400,0 400,0 9608800,-1770200 18145800,-6109300 24038300,-12218300 3326500,-3449300 5718200,-7357800 7108600,-11618000 1508800,-4623200 1799000,-9546000 862000,-14631800"/>
    <line class="fil0 str2" x1="233509200" y1="115728000" x2="233508800" y2= "115728000" />
    <path class="fil0 str2" d="M233508800 115728000c-1451600,-7875600 -6319200,-18837800 -11955200,-31531000 -3095300,-6970000 -6432300,-14485900 -9368700,-21935700 -64900,-163900 -127900,-327100 -192000,-491100 -1423400,-3630600 -2748200,-7242500 -3899400,-10764800 -54600,-166500 -104900,-331100 -158500,-497400 -396700,-1226300 -776100,-2443900 -1126000,-3644400 -3670900,-12597500 -4056100,-21783800 -1144900,-27302600 1998300,-3789400 5790400,-6150700 11592700,-7219500 2983400,-549700 4956200,-3413200 4407100,-6396500"/>
    <line class="fil0 str2" x1="221663900" y1="5945000" x2="198866900" y2= "10144400" />
    <path class="fil0 str2" d="M198866900 10144400c-1120400,1299300 -2095200,2729000 -2919100,4291200 -5219800,9895600 -3490400,23465700 1076600,38081900 52100,166200 102500,332100 155000,498200 1122700,3547000 2409700,7154000 3801700,10782800 63100,164300 124700,328000 188000,492300 3148800,8158200 6816600,16420700 10344300,24364500 5131000,11556000 9978000,22470700 11193000,29067800"/>
    <line class="fil0 str2" x1="222706400" y1="117723100" x2="222706600" y2= "117723100" />
    <path class="fil0 str2" d="M222706600 117723100c2615800,14218700 -10189600,23273700 -23196400,25669600"/>
    <path class="fil0 str2" d="M199510200 143392700c-600,-300 -600,-300 -600,-300 -13006200,2396500 -28197900,-1501200 -30820400,-15719000"/>
    <line class="fil0 str2" x1="168689200" y1="127673400" x2="168689800" y2= "127673400" />
    <path class="fil0 str2" d="M168689800 127673400c-1215600,-6596700 -576600,-18522400 100300,-31148000 465300,-8679200 948500,-17706500 983100,-26451300 800,-176000 400,-350600 800,-526700 7500,-3887000 -75300,-7715400 -290500,-11429700 -10200,-174000 -22000,-346700 -32400,-520600 -940600,-15284600 -4160100,-28580100 -12563900,-35966200 -1326300,-1166100 -2747000,-2154700 -4256200,-2969500"/>
    <line class="fil0 str2" x1="152631000" y1="18661400" x2="129833800" y2= "22861100" />
    <path class="fil0 str2" d="M129833800 22861100c549900,2983100 3413900,4955700 6397100,4406200"/>
   </g>
   <g>
    <path class="fil0 str2" d="M128294100 42601500c141800,769500 -367500,1508700 -1137100,1650500 -769700,141800 -1508700,-367500 -1650500,-1137200 -141700,-769500 367300,-1508600 1136900,-1650400 769900,-141800 1508600,367400 1650700,1137100z"/>
    <path class="fil0 str2" d="M143123500 39869600c141900,769800 880800,1279000 1650900,1137000 769000,-141600 1278500,-880800 1136800,-1650500 -142200,-769700 -880900,-1278800 -1650700,-1136900 -769900,141700 -1278800,880700 -1137000,1650400z"/>
    <line class="fil0 str2" x1="150145500" y1="32571100" x2="118938400" y2= "38319900" />
    <path class="fil0 str2" d="M118938400 38319900c1392400,3629100 2679400,7235900 3801400,10783100 52900,166000 103200,331800 154800,497900"/>
    <line class="fil0 str2" x1="122894600" y1="49600900" x2="150468900" y2= "44521400" />
    <path class="fil0 str2" d="M150468900 44521400c-10700,-173500 -23200,-346300 -33100,-520600 -215200,-3714000 -297900,-7542500 -290300,-11429700"/>
   </g>
   <g>
    <path class="fil0 str2" d="M212271800 119388900c-142000,-769300 367200,-1508400 1136900,-1650200 769900,-141800 1509200,367000 1650800,1137100 141800,769600 -367700,1508800 -1136900,1650200 -770200,142000 -1509200,-367300 -1650800,-1137100z"/>
    <path class="fil0 str2" d="M197442300 122120600c-141600,-769200 -880700,-1278500 -1650800,-1136900 -769500,141800 -1278500,881000 -1136500,1650600 141800,769900 880600,1278800 1650000,1137300 770100,-141800 1279300,-880900 1137300,-1651000z"/>
    <line class="fil0 str2" x1="190420200" y1="129419400" x2="221627100" y2= "123670500" />
    <path class="fil0 str2" d="M221627100 123670500c-1391400,-3628700 -2679200,-7235900 -3801100,-10782700 -52800,-166200 -103300,-332000 -154800,-498000"/>
    <line class="fil0 str2" x1="217671200" y1="112389800" x2="190097300" y2= "117469100" />
    <path class="fil0 str2" d="M190097300 117469100c10800,173800 22600,346500 32900,520700 215300,3714200 297900,7542500 290000,11429600"/>
   </g>
  </g>
  <rect class="fil2" x="36102200" y="171179700" width="59055200" height="5905500"/>
  <text x="50652500" y="175899900"  class="fil3 fnt0">10 cm x 1 cm</text>
 </g>
</svg>
