<?xml version="1.0" encoding="UTF-8" standalone="no"?>
<svg
   height="83.30mm"
   viewBox="0.0 0.0 120.40 83.30"
   width="120.40mm"
   version="1.1"
   id="svg7"
   sodipodi:docname="ClosedBox.svg"
   xml:space="preserve"
   inkscape:version="1.4.2 (ebf0e94, 2025-05-08)"
   xmlns:inkscape="http://www.inkscape.org/namespaces/inkscape"
   xmlns:sodipodi="http://sodipodi.sourceforge.net/DTD/sodipodi-0.dtd"
   xmlns:xlink="http://www.w3.org/1999/xlink"
   xmlns="http://www.w3.org/2000/svg"
   xmlns:svg="http://www.w3.org/2000/svg"
   xmlns:rdf="http://www.w3.org/1999/02/22-rdf-syntax-ns#"
   xmlns:cc="http://creativecommons.org/ns#"
   xmlns:dc="http://purl.org/dc/elements/1.1/"><defs
     id="defs7" /><sodipodi:namedview
     id="namedview7"
     pagecolor="#ffffff"
     bordercolor="#000000"
     borderopacity="0.25"
     inkscape:showpageshadow="2"
     inkscape:pageopacity="0.0"
     inkscape:pagecheckerboard="0"
     inkscape:deskcolor="#d1d1d1"
     inkscape:document-units="mm"
     inkscape:zoom="1.2816251"
     inkscape:cx="-17.165706"
     inkscape:cy="165.80512"
     inkscape:window-width="1920"
     inkscape:window-height="1009"
     inkscape:window-x="-8"
     inkscape:window-y="-8"
     inkscape:window-maximized="1"
     inkscape:current-layer="svg7" /><!--
ClosedBox - Fully closed box


This box is more of a building block than a finished item.
Use a vector graphics program (like Inkscape) to add holes or adjust the base
plate.

See BasedBox for variant with a base.


Created with Boxes.py (https://boxes.hackerspace-bamberg.de/)
Creation date: 2026-03-14 18:48:56
Command line (remove spaces between dashes): boxes ClosedBox - -x=16 - -y=16 - -h=16 - -spacing=0.5
Url: https://boxes.hackerspace-bamberg.de/ClosedBox?FingerJoint_style=rectangular&FingerJoint_surroundingspaces=2.0&FingerJoint_bottom_lip=0.0&FingerJoint_edge_width=1.0&FingerJoint_extra_length=0.0&FingerJoint_finger=2.0&FingerJoint_play=0.0&FingerJoint_space=2.0&FingerJoint_width=1.0&x=16&y=16&h=16&outside=0&outside=1&thickness=3.0&burn=0.1&format=svg&labels=0&labels=1&reference=100.0&tabs=0.0&qr_code=0&inner_corners=loop&spacing=0.5&debug=0&language=en&render=2
Url short: https://boxes.hackerspace-bamberg.de/ClosedBox?x=16&y=16&h=16&spacing=0.5
SettingsUrl: https://boxes.hackerspace-bamberg.de/ClosedBox?FingerJoint_style=rectangular&FingerJoint_surroundingspaces=2.0&FingerJoint_bottom_lip=0.0&FingerJoint_edge_width=1.0&FingerJoint_extra_length=0.0&FingerJoint_finger=2.0&FingerJoint_play=0.0&FingerJoint_space=2.0&FingerJoint_width=1.0&x=16&y=16&h=16&outside=0&outside=1&thickness=3.0&burn=0.1&format=svg&labels=0&labels=1&reference=100.0&tabs=0.0&qr_code=0&inner_corners=loop&spacing=0.5&debug=0&language=en&render=2
SettingsUrl short: https://boxes.hackerspace-bamberg.de/ClosedBox?x=16&y=16&h=16&spacing=0.5
--><title
     id="title1">ClosedBox</title><metadata
     id="metadata1"><rdf:RDF><cc:Work><dc:title>Box - ClosedBox</dc:title><dc:date>2026-03-14 18:48:56</dc:date><dc:source>https://boxes.hackerspace-bamberg.de/ClosedBox?FingerJoint_style=rectangular&amp;FingerJoint_surroundingspaces=2.0&amp;FingerJoint_bottom_lip=0.0&amp;FingerJoint_edge_width=1.0&amp;FingerJoint_extra_length=0.0&amp;FingerJoint_finger=2.0&amp;FingerJoint_play=0.0&amp;FingerJoint_space=2.0&amp;FingerJoint_width=1.0&amp;x=16&amp;y=16&amp;h=16&amp;outside=0&amp;outside=1&amp;thickness=3.0&amp;burn=0.1&amp;format=svg&amp;labels=0&amp;labels=1&amp;reference=100.0&amp;tabs=0.0&amp;qr_code=0&amp;inner_corners=loop&amp;spacing=0.5&amp;debug=0&amp;language=en&amp;render=2</dc:source><dc:source>https://boxes.hackerspace-bamberg.de/ClosedBox?x=16&amp;y=16&amp;h=16&amp;spacing=0.5</dc:source><dc:description>Fully closed box

This box is more of a building block than a finished item.
Use a vector graphics program (like Inkscape) to add holes or adjust the base
plate.

See BasedBox for variant with a base.

Created with Boxes.py (https://boxes.hackerspace-bamberg.de/)
Command line: boxes ClosedBox --FingerJoint_style=rectangular --FingerJoint_surroundingspaces=2.0 --FingerJoint_bottom_lip=0.0 --FingerJoint_edge_width=1.0 --FingerJoint_extra_length=0.0 --FingerJoint_finger=2.0 --FingerJoint_play=0.0 --FingerJoint_space=2.0 --FingerJoint_width=1.0 --x=16 --y=16 --h=16 --outside=0 --outside=1 --thickness=3.0 --burn=0.1 --format=svg --labels=0 --labels=1 --reference=100.0 --tabs=0.0 --qr_code=0 --inner_corners=loop --spacing=0.5 --debug=0
Command line short: boxes ClosedBox --x=16 --y=16 --h=16 --spacing=0.5
Url: https://boxes.hackerspace-bamberg.de/ClosedBox?FingerJoint_style=rectangular&amp;FingerJoint_surroundingspaces=2.0&amp;FingerJoint_bottom_lip=0.0&amp;FingerJoint_edge_width=1.0&amp;FingerJoint_extra_length=0.0&amp;FingerJoint_finger=2.0&amp;FingerJoint_play=0.0&amp;FingerJoint_space=2.0&amp;FingerJoint_width=1.0&amp;x=16&amp;y=16&amp;h=16&amp;outside=0&amp;outside=1&amp;thickness=3.0&amp;burn=0.1&amp;format=svg&amp;labels=0&amp;labels=1&amp;reference=100.0&amp;tabs=0.0&amp;qr_code=0&amp;inner_corners=loop&amp;spacing=0.5&amp;debug=0&amp;language=en&amp;render=2
Url short: https://boxes.hackerspace-bamberg.de/ClosedBox?x=16&amp;y=16&amp;h=16&amp;spacing=0.5
SettingsUrl: https://boxes.hackerspace-bamberg.de/ClosedBox?FingerJoint_style=rectangular&amp;FingerJoint_surroundingspaces=2.0&amp;FingerJoint_bottom_lip=0.0&amp;FingerJoint_edge_width=1.0&amp;FingerJoint_extra_length=0.0&amp;FingerJoint_finger=2.0&amp;FingerJoint_play=0.0&amp;FingerJoint_space=2.0&amp;FingerJoint_width=1.0&amp;x=16&amp;y=16&amp;h=16&amp;outside=0&amp;outside=1&amp;thickness=3.0&amp;burn=0.1&amp;format=svg&amp;labels=0&amp;labels=1&amp;reference=100.0&amp;tabs=0.0&amp;qr_code=0&amp;inner_corners=loop&amp;spacing=0.5&amp;debug=0&amp;language=en&amp;render=2
SettingsUrl short: https://boxes.hackerspace-bamberg.de/ClosedBox?x=16&amp;y=16&amp;h=16&amp;spacing=0.5
</dc:description></cc:Work></rdf:RDF></metadata><path
     d="m 13.4,61.6 h 2 c 0.055,0 0.1,-0.045 0.1,-0.1 v -2.9 c 0,-0.1 -0.1,0 0,0 h 5.8 c 0.1,0 0,-0.1 0,0 v 2.9 c 0,0.055 0.045,0.1 0.1,0.1 h 2 3 c 0.055,0 0.1,-0.045 0.1,-0.1 v -3 -2 c 0,-0.055 -0.045,-0.1 -0.1,-0.1 h -2.9 c -0.1,0 0,0.1 0,0 v -5.8 c 0,-0.1 -0.1,0 0,0 h 2.9 c 0.055,0 0.1,-0.045 0.1,-0.1 v -2 -3 c 0,-0.055 -0.045,-0.1 -0.1,-0.1 h -3 -2 c -0.055,0 -0.1,0.045 -0.1,0.1 v 2.9 c 0,0.1 0.1,0 0,0 h -5.8 c -0.1,0 0,0.1 0,0 v -2.9 c 0,-0.055 -0.045,-0.1 -0.1,-0.1 h -2 -3 c -0.055,0 -0.1,0.045 -0.1,0.1 v 3 2 c 0,0.055 0.045,0.1 0.1,0.1 h 2.9 c 0.1,0 0,-0.1 0,0 v 5.8 c 0,0.1 0.1,0 0,0 h -2.9 c -0.055,0 -0.1,0.045 -0.1,0.1 v 2 3 c 0,0.055 0.045,0.1 0.1,0.1 z"
     stroke="#000000"
     stroke-width="0.2"
     id="path2"
     style="fill:none;stroke-linecap:round;stroke-linejoin:round" /><path
     d="m 31.1,61.6 h 2 c 0.055,0 0.1,-0.045 0.1,-0.1 v -2.9 c 0,-0.1 -0.1,0 0,0 H 39 c 0.1,0 0,-0.1 0,0 v 2.9 c 0,0.055 0.045,0.1 0.1,0.1 h 2 c 0.055,0 0.1,-0.045 0.1,-0.1 v -3 -1.9 c 0,-0.1 -0.1,0 0,0 h 2.9 c 0.055,0 0.1,-0.045 0.1,-0.1 v -6 c 0,-0.055 -0.045,-0.1 -0.1,-0.1 h -2.9 c -0.1,0 0,0.1 0,0 v -1.9 -3 c 0,-0.055 -0.045,-0.1 -0.1,-0.1 h -2 c -0.055,0 -0.1,0.045 -0.1,0.1 v 2.9 c 0,0.1 0.1,0 0,0 h -5.8 c -0.1,0 0,0.1 0,0 v -2.9 c 0,-0.055 -0.045,-0.1 -0.1,-0.1 h -2 c -0.055,0 -0.1,0.045 -0.1,0.1 v 3 1.9 c 0,0.1 0.1,0 0,0 h -2.9 c -0.055,0 -0.1,0.045 -0.1,0.1 v 6 c 0,0.055 0.045,0.1 0.1,0.1 H 31 c 0.1,0 0,-0.1 0,0 v 1.9 3 c 0,0.055 0.045,0.1 0.1,0.1 z"
     stroke="#000000"
     stroke-width="0.2"
     id="path3"
     style="fill:none;stroke-linecap:round;stroke-linejoin:round" /><path
     d="m 31.1,43.9 h 2 c 0.055,0 0.1,-0.045 0.1,-0.1 v -2.9 c 0,-0.1 -0.1,0 0,0 H 39 c 0.1,0 0,-0.1 0,0 v 2.9 c 0,0.055 0.045,0.1 0.1,0.1 h 2 c 0.055,0 0.1,-0.045 0.1,-0.1 v -3 -1.9 c 0,-0.1 -0.1,0 0,0 h 2.9 c 0.055,0 0.1,-0.045 0.1,-0.1 v -6 c 0,-0.055 -0.045,-0.1 -0.1,-0.1 h -2.9 c -0.1,0 0,0.1 0,0 v -1.9 -3 c 0,-0.055 -0.045,-0.1 -0.1,-0.1 h -2 c -0.055,0 -0.1,0.045 -0.1,0.1 v 2.9 c 0,0.1 0.1,0 0,0 h -5.8 c -0.1,0 0,0.1 0,0 v -2.9 c 0,-0.055 -0.045,-0.1 -0.1,-0.1 h -2 c -0.055,0 -0.1,0.045 -0.1,0.1 v 3 1.9 c 0,0.1 0.1,0 0,0 h -2.9 c -0.055,0 -0.1,0.045 -0.1,0.1 v 6 c 0,0.055 0.045,0.1 0.1,0.1 H 31 c 0.1,0 0,-0.1 0,0 v 1.9 3 c 0,0.055 0.045,0.1 0.1,0.1 z"
     stroke="#000000"
     stroke-width="0.2"
     id="path4"
     style="fill:none;stroke-linecap:round;stroke-linejoin:round" /><path
     d="m 13.4,43.9 h 2 c 0.055,0 0.1,-0.045 0.1,-0.1 v -2.9 c 0,-0.1 -0.1,0 0,0 h 5.8 c 0.1,0 0,-0.1 0,0 v 2.9 c 0,0.055 0.045,0.1 0.1,0.1 h 2 3 c 0.055,0 0.1,-0.045 0.1,-0.1 v -3 -2 c 0,-0.055 -0.045,-0.1 -0.1,-0.1 h -2.9 c -0.1,0 0,0.1 0,0 v -5.8 c 0,-0.1 -0.1,0 0,0 h 2.9 c 0.055,0 0.1,-0.045 0.1,-0.1 v -2 -3 c 0,-0.055 -0.045,-0.1 -0.1,-0.1 h -3 -2 c -0.055,0 -0.1,0.045 -0.1,0.1 v 2.9 c 0,0.1 0.1,0 0,0 h -5.8 c -0.1,0 0,0.1 0,0 v -2.9 c 0,-0.055 -0.045,-0.1 -0.1,-0.1 h -2 -3 c -0.055,0 -0.1,0.045 -0.1,0.1 v 3 2 c 0,0.055 0.045,0.1 0.1,0.1 h 2.9 c 0.1,0 0,-0.1 0,0 v 5.8 c 0,0.1 0.1,0 0,0 h -2.9 c -0.055,0 -0.1,0.045 -0.1,0.1 v 2 3 c 0,0.055 0.045,0.1 0.1,0.1 z"
     stroke="#000000"
     stroke-width="0.2"
     id="path5"
     style="fill:none;stroke-linecap:round;stroke-linejoin:round" /><path
     d="m 13.4,23.2 h 1.9 c 0.1,0 0,-0.1 0,0 v 2.9 c 0,0.055 0.045,0.1 0.1,0.1 h 6 c 0.055,0 0.1,-0.045 0.1,-0.1 v -2.9 c 0,-0.1 -0.1,0 0,0 h 1.9 c 0.055,0 0.1,-0.045 0.1,-0.1 v -1.9 c 0,-0.1 -0.1,0 0,0 h 2.9 c 0.055,0 0.1,-0.045 0.1,-0.1 v -6 C 26.5,15.045 26.455,15 26.4,15 h -2.9 c -0.1,0 0,0.1 0,0 V 13.1 C 23.5,13.045 23.455,13 23.4,13 h -1.9 c -0.1,0 0,0.1 0,0 V 10.1 C 21.5,10.045 21.455,10 21.4,10 h -6 c -0.055,0 -0.1,0.045 -0.1,0.1 V 13 c 0,0.1 0.1,0 0,0 h -1.9 c -0.055,0 -0.1,0.045 -0.1,0.1 V 15 c 0,0.1 0.1,0 0,0 h -2.9 c -0.055,0 -0.1,0.045 -0.1,0.1 v 6 c 0,0.055 0.045,0.1 0.1,0.1 h 2.9 c 0.1,0 0,-0.1 0,0 v 1.9 c 0,0.055 0.045,0.1 0.1,0.1 z"
     stroke="#000000"
     stroke-width="0.2"
     id="path6"
     style="fill:none;stroke-linecap:round;stroke-linejoin:round" /><path
     d="M 31.1,23.2 H 33 c 0.1,0 0,-0.1 0,0 v 2.9 c 0,0.055 0.045,0.1 0.1,0.1 h 6 c 0.055,0 0.1,-0.045 0.1,-0.1 v -2.9 c 0,-0.1 -0.1,0 0,0 h 1.9 c 0.055,0 0.1,-0.045 0.1,-0.1 v -1.9 c 0,-0.1 -0.1,0 0,0 h 2.9 c 0.055,0 0.1,-0.045 0.1,-0.1 v -6 C 44.2,15.045 44.155,15 44.1,15 h -2.9 c -0.1,0 0,0.1 0,0 V 13.1 C 41.2,13.045 41.155,13 41.1,13 h -1.9 c -0.1,0 0,0.1 0,0 V 10.1 C 39.2,10.045 39.155,10 39.1,10 h -6 C 33.045,10 33,10.045 33,10.1 V 13 c 0,0.1 0.1,0 0,0 H 31.1 C 31.045,13 31,13.045 31,13.1 V 15 c 0,0.1 0.1,0 0,0 H 28.1 C 28.045,15 28,15.045 28,15.1 v 6 c 0,0.055 0.045,0.1 0.1,0.1 H 31 c 0.1,0 0,-0.1 0,0 v 1.9 c 0,0.055 0.045,0.1 0.1,0.1 z"
     stroke="#000000"
     stroke-width="0.2"
     id="path7"
     style="fill:none;stroke-linecap:round;stroke-linejoin:round" /><image
     width="10.052568"
     height="10.262"
     preserveAspectRatio="none"
     xlink:href="Face-6.png"
     id="image1"
     x="31.082001"
     y="48.372002" /><image
     width="10.052568"
     height="10.262"
     preserveAspectRatio="none"
     xlink:href="Face-3.png"
     id="image1-0"
     x="13.382"
     y="12.972" /><image
     width="10.052568"
     height="10.262"
     preserveAspectRatio="none"
     xlink:href="Face-3b.png"
     id="image1-9"
     x="31.082001"
     y="12.972" /><image
     width="10.052568"
     height="10.262"
     preserveAspectRatio="none"
     xlink:href="Face-4.png"
     id="image1-4"
     x="31.082001"
     y="30.771999" /><image
     width="10.052568"
     height="10.262"
     preserveAspectRatio="none"
     xlink:href="Face-4b.png"
     id="image1-8"
     x="13.382"
     y="48.372002" /><image
     width="10.052568"
     height="10.262"
     preserveAspectRatio="none"
     xlink:href="Face-5.png"
     id="image1-82"
     x="13.382"
     y="30.771999" /></svg>
