<?xml version="1.0" encoding="UTF-8" standalone="no"?>
<svg
   id="Layer_1"
   data-name="Layer 1"
   viewBox="0 0 117204.77 24138.397"
   version="1.1"
   sodipodi:docname="BNDES_arquivo_marca.svg"
   width="117204.77"
   height="24138.398"
   xmlns:inkscape="http://www.inkscape.org/namespaces/inkscape"
   xmlns:sodipodi="http://sodipodi.sourceforge.net/DTD/sodipodi-0.dtd"
   xmlns="http://www.w3.org/2000/svg"
   xmlns:svg="http://www.w3.org/2000/svg">
  <sodipodi:namedview
     id="namedview2"
     pagecolor="#ffffff"
     bordercolor="#000000"
     borderopacity="0.25"
     inkscape:showpageshadow="2"
     inkscape:pageopacity="0.0"
     inkscape:pagecheckerboard="0"
     inkscape:deskcolor="#d1d1d1">
    <inkscape:page
       x="0"
       y="49466.73"
       width="117204.77"
       height="24138.396"
       id="page2"
       margin="0"
       bleed="0" />
  </sodipodi:namedview>
  <defs
     id="defs1">
    <style
       id="style1">.cls-1{fill:#008752;}.cls-2{fill:#00539b;}</style>
  </defs>
  <path
     class="cls-1"
     d="M 45.13,49146.073 A 53.91,53.91 0 0 0 0,49170.453 v 74.68 h 74.76 a 54,54 0 0 0 -29.63,-99.06 z M 0,49090.963 v 62.34 l 61.69,-61.68 91.87,91.87 -61.7,61.64 h 62.3 v -154.17 z"
     id="path1" />
  <path
     class="cls-2"
     d="m 298.42,49140.303 c -0.83,-11.89 -5.88,-20.84 -15,-26.62 -7.46,-4.71 -17.74,-7.2 -29.75,-7.2 H 212.2 l -19.34,138.71 h 40.36 c 25.67,0 43.71,-5.41 53.63,-16.06 6.5,-7 9.4,-16.21 8.62,-27.4 -1,-14.86 -8.3,-25.11 -20.17,-28.81 14.47,-4.44 24.16,-17.71 23.12,-32.62 z m -37.1,73.53 c -5.93,6.37 -17.2,7.25 -28.5,7.25 h -7.79 l 5.07,-36.73 h 7.66 c 13.82,0 26.73,1.83 27.66,15.1 0.44,6.28 -0.91,10.98 -4.1,14.41 z m 3.75,-59.17 c -5.21,5.6 -15.16,6.78 -22.58,6.78 h -9.15 l 4.5,-30.88 h 8.44 c 11.35,0 21.6,0.94 22.39,12.37 0.34,4.88 -0.87,8.82 -3.6,11.76 z m 172.59,-48.15 h -28.41 l -14.51,99.91 -35.07,-99.91 h -36.56 l -20.12,138.68 h 28.81 l 13.86,-100.74 34.53,100.74 h 37.15 z m 101.68,11.6 c -10.93,-7.7 -25.28,-11.6 -42.65,-11.6 h -42 l -19.56,138.68 h 47.38 c 27.83,0 49,-7.56 62.83,-22.45 17.45,-18.75 18.5,-43.69 17.58,-56.88 -1.52,-21.74 -9.45,-37.8 -23.58,-47.75 z m -19.68,88.86 c -8.73,9.38 -22.16,14.14 -39.9,14.14 h -11.11 l 12.61,-90.52 h 8.25 c 25,0 40.67,11.76 42.05,31.47 1.38,19.71 -2.62,34.94 -11.9,44.91 z m 92.58,-76.38 h 53.22 l 2.92,-24.08 h -82.76 l -19.52,138.68 h 83.76 l 3.56,-24.08 h -53.8 l 5,-35.56 h 47.76 l 3.13,-24.08 h -47.58 z m 146.94,-20.29 c -10.37,-4.07 -22.55,-6.13 -36.18,-6.13 -17.19,0 -31.41,5.11 -40,14.4 -6.78,7.29 -9.82,16.74 -9,28.09 1.43,20.63 16.45,28.72 29.7,35.85 10.69,5.75 19.92,10.73 20.65,21.06 0.36,5.23 -1,9.59 -4.2,13 -4.08,4.39 -11,6.9 -19,6.9 -11.83,0 -23.46,-4.77 -33.44,-9.24 l -1.44,-0.65 -6,25.88 1.16,0.41 c 14.32,5.09 27.7,7.68 39.77,7.68 19.86,0 35.21,-5.21 44.37,-15.05 7.33,-7.88 10.58,-18.55 9.66,-31.73 -1.55,-22.22 -18,-31.55 -31.26,-39.05 -10,-5.65 -18.59,-10.54 -19.19,-19.23 a 10.64,10.64 0 0 1 2.79,-8.31 c 4.06,-4.36 11.78,-5.91 17.65,-5.91 a 65.8,65.8 0 0 1 28.15,6.87 l 1.5,0.74 5.45,-25.13 z"
     id="path2" />
</svg>
