<svg id="Layer_1" data-name="Layer 1" xmlns="http://www.w3.org/2000/svg" viewBox="0 0 760.28 156.57"><defs><style>.cls-1{fill:#008752;}.cls-2{fill:#00539b;}</style></defs><path class="cls-1" d="M260.27,397.77a53.91,53.91,0,0,0-45.13,24.38v74.68H289.9a54,54,0,0,0-29.63-99.06Zm-45.13-55.11V405l61.69-61.68,91.87,91.87L307,496.83h62.3V342.66Z" transform="translate(-215.14 -342.66)"/><path class="cls-2" d="M513.56,392c-.83-11.89-5.88-20.84-15-26.62-7.46-4.71-17.74-7.2-29.75-7.2H427.34L408,496.89h40.36c25.67,0,43.71-5.41,53.63-16.06,6.5-7,9.4-16.21,8.62-27.4-1-14.86-8.3-25.11-20.17-28.81C504.91,420.18,514.6,406.91,513.56,392Zm-37.1,73.53c-5.93,6.37-17.2,7.25-28.5,7.25h-7.79l5.07-36.73h7.66c13.82,0,26.73,1.83,27.66,15.1C481,457.43,479.65,462.13,476.46,465.56Zm3.75-59.17c-5.21,5.6-15.16,6.78-22.58,6.78h-9.15l4.5-30.88h8.44c11.35,0,21.6.94,22.39,12.37C484.15,399.51,482.94,403.45,480.21,406.39ZM652.8,358.21H624.39l-14.51,99.91-35.07-99.91H538.25L518.13,496.89h28.81L560.8,396.15l34.53,100.74h37.15Zm101.68,11.6c-10.93-7.7-25.28-11.6-42.65-11.6h-42L650.27,496.89h47.38c27.83,0,49-7.56,62.83-22.45,17.45-18.75,18.5-43.69,17.58-56.88C776.54,395.82,768.61,379.76,754.48,369.81ZM734.8,458.67c-8.73,9.38-22.16,14.14-39.9,14.14H683.79l12.61-90.52h8.25c25,0,40.67,11.76,42.05,31.47S744.08,448.7,734.8,458.67Zm92.58-76.38H880.6l2.92-24.08H800.76L781.24,496.89H865l3.56-24.08h-53.8l5-35.56h47.76l3.13-24.08H823.07ZM974.32,362c-10.37-4.07-22.55-6.13-36.18-6.13-17.19,0-31.41,5.11-40,14.4-6.78,7.29-9.82,16.74-9,28.09,1.43,20.63,16.45,28.72,29.7,35.85,10.69,5.75,19.92,10.73,20.65,21.06.36,5.23-1,9.59-4.2,13-4.08,4.39-11,6.9-19,6.9-11.83,0-23.46-4.77-33.44-9.24l-1.44-.65-6,25.88,1.16.41c14.32,5.09,27.7,7.68,39.77,7.68,19.86,0,35.21-5.21,44.37-15.05,7.33-7.88,10.58-18.55,9.66-31.73-1.55-22.22-18-31.55-31.26-39.05-10-5.65-18.59-10.54-19.19-19.23a10.64,10.64,0,0,1,2.79-8.31c4.06-4.36,11.78-5.91,17.65-5.91a65.8,65.8,0,0,1,28.15,6.87l1.5.74,5.45-25.13Z" transform="translate(-215.14 -342.66)"/></svg>