  0
SECTION
  2
HEADER
  9
$ACADVER
  1
AC1009
  9
$EXTMAX
 10
117.524337768555
 20
19.09934425354
 30
0.0
  9
$EXTMIN
 10
0.0
 20
-63.5
 30
0.0
  9
$INSUNITS
 70
     1
  9
$LUNITS
 70
     2
  9
$LUPREC
 70
     4
  9
$MEASUREMENT
 70
     0
  0
ENDSEC
  0
SECTION
  2
TABLES
  0
TABLE
  2
LAYER
 70
     1
  0
LAYER
  2
0
 70
     0
 62
     7
  6
Continuous
  0
LAYER
  2
Default
 70
     0
 62
    70
  6
Continuous
  0
ENDTAB
  0
TABLE
  2
APPID
 70
     1
  0
APPID
  2
ACAD
 70
     0
  0
ENDTAB
  0
ENDSEC
  0
SECTION
  2
ENTITIES
  0
POLYLINE
  8
Default
 66
     1
 10
0.0
 20
0.0
 30
0.0
 70
     1
  0
VERTEX
  8
Default
 10
0.5
 20
-0.2
 42
0.0
  0
VERTEX
  8
Default
 10
0.625
 20
-0.2
 42
0.0
  0
VERTEX
  8
Default
 10
0.625
 20
0.2
 42
0.0
  0
VERTEX
  8
Default
 10
0.5
 20
0.2
 42
0.0
  0
SEQEND
  0
POLYLINE
  8
Default
 66
     1
 10
0.0
 20
0.0
 30
0.0
 70
     1
  0
VERTEX
  8
Default
 10
0.75
 20
-0.2
 42
0.0
  0
VERTEX
  8
Default
 10
0.875
 20
-0.2
 42
0.0
  0
VERTEX
  8
Default
 10
0.875
 20
0.2
 42
0.0
  0
VERTEX
  8
Default
 10
0.75
 20
0.2
 42
0.0
  0
SEQEND
  0
POLYLINE
  8
Default
 66
     1
 10
0.0
 20
0.0
 30
0.0
 70
     1
  0
VERTEX
  8
Default
 10
1.0
 20
-0.2
 42
0.0
  0
VERTEX
  8
Default
 10
1.125
 20
-0.2
 42
0.0
  0
VERTEX
  8
Default
 10
1.125
 20
0.2
 42
0.0
  0
VERTEX
  8
Default
 10
1.0
 20
0.2
 42
0.0
  0
SEQEND
  0
POLYLINE
  8
Default
 66
     1
 10
0.0
 20
0.0
 30
0.0
 70
     1
  0
VERTEX
  8
Default
 10
1.25
 20
-0.2
 42
0.0
  0
VERTEX
  8
Default
 10
1.375
 20
-0.2
 42
0.0
  0
VERTEX
  8
Default
 10
1.375
 20
0.2
 42
0.0
  0
VERTEX
  8
Default
 10
1.25
 20
0.2
 42
0.0
  0
SEQEND
  0
POLYLINE
  8
Default
 66
     1
 10
0.0
 20
0.0
 30
0.0
 70
     1
  0
VERTEX
  8
Default
 10
1.5
 20
-0.2
 42
0.0
  0
VERTEX
  8
Default
 10
1.625
 20
-0.2
 42
0.0
  0
VERTEX
  8
Default
 10
1.625
 20
0.2
 42
0.0
  0
VERTEX
  8
Default
 10
1.5
 20
0.2
 42
0.0
  0
SEQEND
  0
POLYLINE
  8
Default
 66
     1
 10
0.0
 20
0.0
 30
0.0
 70
     1
  0
VERTEX
  8
Default
 10
1.75
 20
-0.2
 42
0.0
  0
VERTEX
  8
Default
 10
1.875
 20
-0.2
 42
0.0
  0
VERTEX
  8
Default
 10
1.875
 20
0.2
 42
0.0
  0
VERTEX
  8
Default
 10
1.75
 20
0.2
 42
0.0
  0
SEQEND
  0
POLYLINE
  8
Default
 66
     1
 10
0.0
 20
0.0
 30
0.0
 70
     1
  0
VERTEX
  8
Default
 10
2.0
 20
-0.2
 42
0.0
  0
VERTEX
  8
Default
 10
2.125
 20
-0.2
 42
0.0
  0
VERTEX
  8
Default
 10
2.125
 20
0.2
 42
0.0
  0
VERTEX
  8
Default
 10
2.0
 20
0.2
 42
0.0
  0
SEQEND
  0
POLYLINE
  8
Default
 66
     1
 10
0.0
 20
0.0
 30
0.0
 70
     1
  0
VERTEX
  8
Default
 10
2.25
 20
-0.2
 42
0.0
  0
VERTEX
  8
Default
 10
2.375
 20
-0.2
 42
0.0
  0
VERTEX
  8
Default
 10
2.375
 20
0.2
 42
0.0
  0
VERTEX
  8
Default
 10
2.25
 20
0.2
 42
0.0
  0
SEQEND
  0
POLYLINE
  8
Default
 66
     1
 10
0.0
 20
0.0
 30
0.0
 70
     1
  0
VERTEX
  8
Default
 10
2.5
 20
-0.2
 42
0.0
  0
VERTEX
  8
Default
 10
2.625
 20
-0.2
 42
0.0
  0
VERTEX
  8
Default
 10
2.625
 20
0.2
 42
0.0
  0
VERTEX
  8
Default
 10
2.5
 20
0.2
 42
0.0
  0
SEQEND
  0
POLYLINE
  8
Default
 66
     1
 10
0.0
 20
0.0
 30
0.0
 70
     1
  0
VERTEX
  8
Default
 10
2.75
 20
-0.2
 42
0.0
  0
VERTEX
  8
Default
 10
2.875
 20
-0.2
 42
0.0
  0
VERTEX
  8
Default
 10
2.875
 20
0.2
 42
0.0
  0
VERTEX
  8
Default
 10
2.75
 20
0.2
 42
0.0
  0
SEQEND
  0
POLYLINE
  8
Default
 66
     1
 10
0.0
 20
0.0
 30
0.0
 70
     1
  0
VERTEX
  8
Default
 10
3.0
 20
-0.2
 42
0.0
  0
VERTEX
  8
Default
 10
3.125
 20
-0.2
 42
0.0
  0
VERTEX
  8
Default
 10
3.125
 20
0.2
 42
0.0
  0
VERTEX
  8
Default
 10
3.0
 20
0.2
 42
0.0
  0
SEQEND
  0
POLYLINE
  8
Default
 66
     1
 10
0.0
 20
0.0
 30
0.0
 70
     1
  0
VERTEX
  8
Default
 10
3.25
 20
-0.2
 42
0.0
  0
VERTEX
  8
Default
 10
3.375
 20
-0.2
 42
0.0
  0
VERTEX
  8
Default
 10
3.375
 20
0.2
 42
0.0
  0
VERTEX
  8
Default
 10
3.25
 20
0.2
 42
0.0
  0
SEQEND
  0
POLYLINE
  8
Default
 66
     1
 10
0.0
 20
0.0
 30
0.0
 70
     1
  0
VERTEX
  8
Default
 10
3.5
 20
-0.2
 42
0.0
  0
VERTEX
  8
Default
 10
3.625
 20
-0.2
 42
0.0
  0
VERTEX
  8
Default
 10
3.625
 20
0.2
 42
0.0
  0
VERTEX
  8
Default
 10
3.5
 20
0.2
 42
0.0
  0
SEQEND
  0
POLYLINE
  8
Default
 66
     1
 10
0.0
 20
0.0
 30
0.0
 70
     1
  0
VERTEX
  8
Default
 10
3.75
 20
-0.2
 42
0.0
  0
VERTEX
  8
Default
 10
3.875
 20
-0.2
 42
0.0
  0
VERTEX
  8
Default
 10
3.875
 20
0.2
 42
0.0
  0
VERTEX
  8
Default
 10
3.75
 20
0.2
 42
0.0
  0
SEQEND
  0
POLYLINE
  8
Default
 66
     1
 10
0.0
 20
0.0
 30
0.0
 70
     1
  0
VERTEX
  8
Default
 10
4.0
 20
-0.2
 42
0.0
  0
VERTEX
  8
Default
 10
4.125
 20
-0.2
 42
0.0
  0
VERTEX
  8
Default
 10
4.125
 20
0.2
 42
0.0
  0
VERTEX
  8
Default
 10
4.0
 20
0.2
 42
0.0
  0
SEQEND
  0
POLYLINE
  8
Default
 66
     1
 10
0.0
 20
0.0
 30
0.0
 70
     0
  0
VERTEX
  8
Default
 10
0.25
 20
-0.75
 42
0.0
  0
VERTEX
  8
Default
 10
4.375
 20
-0.75
 42
0.0
  0
SEQEND
  0
POLYLINE
  8
Default
 66
     1
 10
0.0
 20
0.0
 30
0.0
 70
     0
  0
VERTEX
  8
Default
 10
4.625
 20
-0.5
 42
0.0
  0
VERTEX
  8
Default
 10
4.625
 20
0.5
 42
0.0
  0
SEQEND
  0
POLYLINE
  8
Default
 66
     1
 10
0.0
 20
0.0
 30
0.0
 70
     0
  0
VERTEX
  8
Default
 10
4.625
 20
0.5
 42
0.0
  0
VERTEX
  8
Default
 10
4.625
 20
0.5586916257708
 42
0.0
  0
SEQEND
  0
POLYLINE
  8
Default
 66
     1
 10
0.0
 20
0.0
 30
0.0
 70
     0
  0
VERTEX
  8
Default
 10
4.4336916257708
 20
0.75
 42
0.0
  0
VERTEX
  8
Default
 10
4.375
 20
0.75
 42
0.0
  0
SEQEND
  0
POLYLINE
  8
Default
 66
     1
 10
0.0
 20
0.0
 30
0.0
 70
     0
  0
VERTEX
  8
Default
 10
4.375
 20
0.75
 42
0.0
  0
VERTEX
  8
Default
 10
0.25
 20
0.75
 42
0.0
  0
SEQEND
  0
POLYLINE
  8
Default
 66
     1
 10
0.0
 20
0.0
 30
0.0
 70
     0
  0
VERTEX
  8
Default
 10
0.0
 20
0.5
 42
0.0
  0
VERTEX
  8
Default
 10
0.0
 20
-0.5
 42
0.0
  0
SEQEND
  0
POLYLINE
  8
Default
 66
     1
 10
0.0
 20
0.0
 30
0.0
 70
     0
  0
VERTEX
  8
Default
 10
0.0
 20
-0.5
 42
0.4142135623731
  0
VERTEX
  8
Default
 10
0.25
 20
-0.75
 42
0.0
  0
SEQEND
  0
POLYLINE
  8
Default
 66
     1
 10
0.0
 20
0.0
 30
0.0
 70
     0
  0
VERTEX
  8
Default
 10
4.375
 20
-0.75
 42
0.4142135623731
  0
VERTEX
  8
Default
 10
4.625
 20
-0.5
 42
0.0
  0
SEQEND
  0
POLYLINE
  8
Default
 66
     1
 10
0.0
 20
0.0
 30
0.0
 70
     0
  0
VERTEX
  8
Default
 10
4.625
 20
0.5
 42
0.0662058227371
  0
VERTEX
  8
Default
 10
4.625
 20
0.5586916257708
 42
0.0
  0
SEQEND
  0
POLYLINE
  8
Default
 66
     1
 10
0.0
 20
0.0
 30
0.0
 70
     0
  0
VERTEX
  8
Default
 10
4.625
 20
0.5586916257708
 42
0.3387189319207
  0
VERTEX
  8
Default
 10
4.4336916257708
 20
0.75
 42
0.0
  0
SEQEND
  0
POLYLINE
  8
Default
 66
     1
 10
0.0
 20
0.0
 30
0.0
 70
     0
  0
VERTEX
  8
Default
 10
4.4336916257708
 20
0.75
 42
0.0662058227371
  0
VERTEX
  8
Default
 10
4.375
 20
0.75
 42
0.0
  0
SEQEND
  0
POLYLINE
  8
Default
 66
     1
 10
0.0
 20
0.0
 30
0.0
 70
     0
  0
VERTEX
  8
Default
 10
0.25
 20
0.75
 42
0.4142135623731
  0
VERTEX
  8
Default
 10
0.0
 20
0.5
 42
0.0
  0
SEQEND
  0
CIRCLE
  8
Default
 10
0.25
 20
0.5
 30
0.0
 40
0.044
  0
CIRCLE
  8
Default
 10
0.25
 20
-0.5
 30
0.0
 40
0.044
  0
CIRCLE
  8
Default
 10
4.375
 20
-0.5
 30
0.0
 40
0.044
  0
CIRCLE
  8
Default
 10
4.375
 20
0.5
 30
0.0
 40
0.044
  0
POLYLINE
  8
Default
 66
     1
 10
0.0
 20
0.0
 30
0.0
 70
     1
  0
VERTEX
  8
Default
 10
0.5
 20
-2.1437
 42
0.0
  0
VERTEX
  8
Default
 10
0.625
 20
-2.1437
 42
0.0
  0
VERTEX
  8
Default
 10
0.625
 20
-1.3563
 42
0.0
  0
VERTEX
  8
Default
 10
0.5
 20
-1.3563
 42
0.0
  0
SEQEND
  0
POLYLINE
  8
Default
 66
     1
 10
0.0
 20
0.0
 30
0.0
 70
     1
  0
VERTEX
  8
Default
 10
0.75
 20
-2.1437
 42
0.0
  0
VERTEX
  8
Default
 10
0.875
 20
-2.1437
 42
0.0
  0
VERTEX
  8
Default
 10
0.875
 20
-1.3563
 42
0.0
  0
VERTEX
  8
Default
 10
0.75
 20
-1.3563
 42
0.0
  0
SEQEND
  0
POLYLINE
  8
Default
 66
     1
 10
0.0
 20
0.0
 30
0.0
 70
     1
  0
VERTEX
  8
Default
 10
1.0
 20
-2.1437
 42
0.0
  0
VERTEX
  8
Default
 10
1.125
 20
-2.1437
 42
0.0
  0
VERTEX
  8
Default
 10
1.125
 20
-1.3563
 42
0.0
  0
VERTEX
  8
Default
 10
1.0
 20
-1.3563
 42
0.0
  0
SEQEND
  0
POLYLINE
  8
Default
 66
     1
 10
0.0
 20
0.0
 30
0.0
 70
     1
  0
VERTEX
  8
Default
 10
1.25
 20
-2.1437
 42
0.0
  0
VERTEX
  8
Default
 10
1.375
 20
-2.1437
 42
0.0
  0
VERTEX
  8
Default
 10
1.375
 20
-1.3563
 42
0.0
  0
VERTEX
  8
Default
 10
1.25
 20
-1.3563
 42
0.0
  0
SEQEND
  0
POLYLINE
  8
Default
 66
     1
 10
0.0
 20
0.0
 30
0.0
 70
     1
  0
VERTEX
  8
Default
 10
1.5
 20
-2.1437
 42
0.0
  0
VERTEX
  8
Default
 10
1.625
 20
-2.1437
 42
0.0
  0
VERTEX
  8
Default
 10
1.625
 20
-1.3563
 42
0.0
  0
VERTEX
  8
Default
 10
1.5
 20
-1.3563
 42
0.0
  0
SEQEND
  0
POLYLINE
  8
Default
 66
     1
 10
0.0
 20
0.0
 30
0.0
 70
     1
  0
VERTEX
  8
Default
 10
1.75
 20
-2.1437
 42
0.0
  0
VERTEX
  8
Default
 10
1.875
 20
-2.1437
 42
0.0
  0
VERTEX
  8
Default
 10
1.875
 20
-1.3563
 42
0.0
  0
VERTEX
  8
Default
 10
1.75
 20
-1.3563
 42
0.0
  0
SEQEND
  0
POLYLINE
  8
Default
 66
     1
 10
0.0
 20
0.0
 30
0.0
 70
     1
  0
VERTEX
  8
Default
 10
2.0
 20
-2.1437
 42
0.0
  0
VERTEX
  8
Default
 10
2.125
 20
-2.1437
 42
0.0
  0
VERTEX
  8
Default
 10
2.125
 20
-1.3563
 42
0.0
  0
VERTEX
  8
Default
 10
2.0
 20
-1.3563
 42
0.0
  0
SEQEND
  0
POLYLINE
  8
Default
 66
     1
 10
0.0
 20
0.0
 30
0.0
 70
     1
  0
VERTEX
  8
Default
 10
2.25
 20
-2.1437
 42
0.0
  0
VERTEX
  8
Default
 10
2.375
 20
-2.1437
 42
0.0
  0
VERTEX
  8
Default
 10
2.375
 20
-1.3563
 42
0.0
  0
VERTEX
  8
Default
 10
2.25
 20
-1.3563
 42
0.0
  0
SEQEND
  0
POLYLINE
  8
Default
 66
     1
 10
0.0
 20
0.0
 30
0.0
 70
     1
  0
VERTEX
  8
Default
 10
2.5
 20
-2.1437
 42
0.0
  0
VERTEX
  8
Default
 10
2.625
 20
-2.1437
 42
0.0
  0
VERTEX
  8
Default
 10
2.625
 20
-1.3563
 42
0.0
  0
VERTEX
  8
Default
 10
2.5
 20
-1.3563
 42
0.0
  0
SEQEND
  0
POLYLINE
  8
Default
 66
     1
 10
0.0
 20
0.0
 30
0.0
 70
     1
  0
VERTEX
  8
Default
 10
2.75
 20
-2.1437
 42
0.0
  0
VERTEX
  8
Default
 10
2.875
 20
-2.1437
 42
0.0
  0
VERTEX
  8
Default
 10
2.875
 20
-1.3563
 42
0.0
  0
VERTEX
  8
Default
 10
2.75
 20
-1.3563
 42
0.0
  0
SEQEND
  0
POLYLINE
  8
Default
 66
     1
 10
0.0
 20
0.0
 30
0.0
 70
     1
  0
VERTEX
  8
Default
 10
3.0
 20
-2.1437
 42
0.0
  0
VERTEX
  8
Default
 10
3.125
 20
-2.1437
 42
0.0
  0
VERTEX
  8
Default
 10
3.125
 20
-1.3563
 42
0.0
  0
VERTEX
  8
Default
 10
3.0
 20
-1.3563
 42
0.0
  0
SEQEND
  0
POLYLINE
  8
Default
 66
     1
 10
0.0
 20
0.0
 30
0.0
 70
     1
  0
VERTEX
  8
Default
 10
3.25
 20
-2.1437
 42
0.0
  0
VERTEX
  8
Default
 10
3.375
 20
-2.1437
 42
0.0
  0
VERTEX
  8
Default
 10
3.375
 20
-1.3563
 42
0.0
  0
VERTEX
  8
Default
 10
3.25
 20
-1.3563
 42
0.0
  0
SEQEND
  0
POLYLINE
  8
Default
 66
     1
 10
0.0
 20
0.0
 30
0.0
 70
     1
  0
VERTEX
  8
Default
 10
3.5
 20
-2.1437
 42
0.0
  0
VERTEX
  8
Default
 10
3.625
 20
-2.1437
 42
0.0
  0
VERTEX
  8
Default
 10
3.625
 20
-1.3563
 42
0.0
  0
VERTEX
  8
Default
 10
3.5
 20
-1.3563
 42
0.0
  0
SEQEND
  0
POLYLINE
  8
Default
 66
     1
 10
0.0
 20
0.0
 30
0.0
 70
     1
  0
VERTEX
  8
Default
 10
3.75
 20
-2.1437
 42
0.0
  0
VERTEX
  8
Default
 10
3.875
 20
-2.1437
 42
0.0
  0
VERTEX
  8
Default
 10
3.875
 20
-1.3563
 42
0.0
  0
VERTEX
  8
Default
 10
3.75
 20
-1.3563
 42
0.0
  0
SEQEND
  0
POLYLINE
  8
Default
 66
     1
 10
0.0
 20
0.0
 30
0.0
 70
     1
  0
VERTEX
  8
Default
 10
4.0
 20
-2.1437
 42
0.0
  0
VERTEX
  8
Default
 10
4.125
 20
-2.1437
 42
0.0
  0
VERTEX
  8
Default
 10
4.125
 20
-1.3563
 42
0.0
  0
VERTEX
  8
Default
 10
4.0
 20
-1.3563
 42
0.0
  0
SEQEND
  0
POLYLINE
  8
Default
 66
     1
 10
0.0
 20
0.0
 30
0.0
 70
     0
  0
VERTEX
  8
Default
 10
0.25
 20
-2.5
 42
0.0
  0
VERTEX
  8
Default
 10
4.375
 20
-2.5
 42
0.0
  0
SEQEND
  0
POLYLINE
  8
Default
 66
     1
 10
0.0
 20
0.0
 30
0.0
 70
     0
  0
VERTEX
  8
Default
 10
4.625
 20
-2.25
 42
0.0
  0
VERTEX
  8
Default
 10
4.625
 20
-1.25
 42
0.0
  0
SEQEND
  0
POLYLINE
  8
Default
 66
     1
 10
0.0
 20
0.0
 30
0.0
 70
     0
  0
VERTEX
  8
Default
 10
4.625
 20
-1.25
 42
0.0
  0
VERTEX
  8
Default
 10
4.625
 20
-1.1913083742292
 42
0.0
  0
SEQEND
  0
POLYLINE
  8
Default
 66
     1
 10
0.0
 20
0.0
 30
0.0
 70
     0
  0
VERTEX
  8
Default
 10
4.4336916257708
 20
-1.0
 42
0.0
  0
VERTEX
  8
Default
 10
4.375
 20
-1.0
 42
0.0
  0
SEQEND
  0
POLYLINE
  8
Default
 66
     1
 10
0.0
 20
0.0
 30
0.0
 70
     0
  0
VERTEX
  8
Default
 10
4.375
 20
-1.0
 42
0.0
  0
VERTEX
  8
Default
 10
0.25
 20
-1.0
 42
0.0
  0
SEQEND
  0
POLYLINE
  8
Default
 66
     1
 10
0.0
 20
0.0
 30
0.0
 70
     0
  0
VERTEX
  8
Default
 10
0.0
 20
-1.25
 42
0.0
  0
VERTEX
  8
Default
 10
0.0
 20
-2.25
 42
0.0
  0
SEQEND
  0
POLYLINE
  8
Default
 66
     1
 10
0.0
 20
0.0
 30
0.0
 70
     0
  0
VERTEX
  8
Default
 10
0.0
 20
-2.25
 42
0.4142135623731
  0
VERTEX
  8
Default
 10
0.25
 20
-2.5
 42
0.0
  0
SEQEND
  0
POLYLINE
  8
Default
 66
     1
 10
0.0
 20
0.0
 30
0.0
 70
     0
  0
VERTEX
  8
Default
 10
4.375
 20
-2.5
 42
0.4142135623731
  0
VERTEX
  8
Default
 10
4.625
 20
-2.25
 42
0.0
  0
SEQEND
  0
POLYLINE
  8
Default
 66
     1
 10
0.0
 20
0.0
 30
0.0
 70
     0
  0
VERTEX
  8
Default
 10
4.625
 20
-1.25
 42
0.0662058227371
  0
VERTEX
  8
Default
 10
4.625
 20
-1.1913083742292
 42
0.0
  0
SEQEND
  0
POLYLINE
  8
Default
 66
     1
 10
0.0
 20
0.0
 30
0.0
 70
     0
  0
VERTEX
  8
Default
 10
4.625
 20
-1.1913083742292
 42
0.3387189319207
  0
VERTEX
  8
Default
 10
4.4336916257708
 20
-1.0
 42
0.0
  0
SEQEND
  0
POLYLINE
  8
Default
 66
     1
 10
0.0
 20
0.0
 30
0.0
 70
     0
  0
VERTEX
  8
Default
 10
4.4336916257708
 20
-1.0
 42
0.0662058227371
  0
VERTEX
  8
Default
 10
4.375
 20
-1.0
 42
0.0
  0
SEQEND
  0
POLYLINE
  8
Default
 66
     1
 10
0.0
 20
0.0
 30
0.0
 70
     0
  0
VERTEX
  8
Default
 10
0.25
 20
-1.0
 42
0.4142135623731
  0
VERTEX
  8
Default
 10
0.0
 20
-1.25
 42
0.0
  0
SEQEND
  0
CIRCLE
  8
Default
 10
0.25
 20
-1.25
 30
0.0
 40
0.056
  0
CIRCLE
  8
Default
 10
0.25
 20
-2.25
 30
0.0
 40
0.056
  0
CIRCLE
  8
Default
 10
4.375
 20
-2.25
 30
0.0
 40
0.056
  0
CIRCLE
  8
Default
 10
4.375
 20
-1.25
 30
0.0
 40
0.056
  0
ENDSEC
  0
EOF
