  0
SECTION
  2
HEADER
  9
$ACADVER
  1
AC1014
  9
$HANDSEED
  5
FFFF
  9
$MEASUREMENT
 70
     1
  0
ENDSEC
  0
SECTION
  2
TABLES
  0
TABLE
  2
VPORT
  5
8
330
0
100
AcDbSymbolTable
 70
     4
  0
VPORT
  5
2E
330
8
100
AcDbSymbolTableRecord
100
AcDbViewportTableRecord
  2
*ACTIVE
 70
     0
 10
0.0
 20
0.0
 11
1.0
 21
1.0
 12
210.0
 22
148.5
 13
0.0
 23
0.0
 14
10.0
 24
10.0
 15
10.0
 25
10.0
 16
0.0
 26
0.0
 36
1.0
 17
0.0
 27
0.0
 37
0.0
 40
341.0
 41
1.24
 42
50.0
 43
0.0
 44
0.0
 50
0.0
 51
0.0
 71
     0
 72
   100
 73
     1
 74
     3
 75
     0
 76
     0
 77
     0
 78
     0
  0
ENDTAB
  0
TABLE
  2
LTYPE
  5
5
330
0
100
AcDbSymbolTable
 70
     1
  0
LTYPE
  5
14
330
5
100
AcDbSymbolTableRecord
100
AcDbLinetypeTableRecord
  2
BYBLOCK
 70
     0
  3

 72
    65
 73
     0
 40
0.0
  0
LTYPE
  5
15
330
5
100
AcDbSymbolTableRecord
100
AcDbLinetypeTableRecord
  2
BYLAYER
 70
     0
  3

 72
    65
 73
     0
 40
0.0
  0
LTYPE
  5
16
330
5
100
AcDbSymbolTableRecord
100
AcDbLinetypeTableRecord
  2
CONTINUOUS
 70
     0
  3
Solid line
 72
    65
 73
     0
 40
0.0
  0
ENDTAB
  0
TABLE
  2
LAYER
  5
2
100
AcDbSymbolTable
 70
2
  0
LAYER
  5
50
100
AcDbSymbolTableRecord
100
AcDbLayerTableRecord
  2
0
 70
0
  6
CONTINUOUS
  0
LAYER
  5
51
100
AcDbSymbolTableRecord
100
AcDbLayerTableRecord
  2
LAYER_1
 70
0
  6
CONTINUOUS
  0
ENDTAB
  0
TABLE
  2
STYLE
  5
3
330
0
100
AcDbSymbolTable
 70
     1
  0
STYLE
  5
11
330
3
100
AcDbSymbolTableRecord
100
AcDbTextStyleTableRecord
  2
STANDARD
 70
     0
 40
0.0
 41
1.0
 50
0.0
 71
     0
 42
2.5
  3
txt
  4

  0
ENDTAB
  0
TABLE
  2
VIEW
  5
6
330
0
100
AcDbSymbolTable
 70
     0
  0
ENDTAB
  0
TABLE
  2
UCS
  5
7
330
0
100
AcDbSymbolTable
 70
     0
  0
ENDTAB
  0
TABLE
  2
APPID
  5
9
330
0
100
AcDbSymbolTable
 70
     2
  0
APPID
  5
12
330
9
100
AcDbSymbolTableRecord
100
AcDbRegAppTableRecord
  2
ACAD
 70
     0
  0
ENDTAB
  0
TABLE
  2
DIMSTYLE
  5
A
330
0
100
AcDbSymbolTable
 70
     1
  0
DIMSTYLE
105
27
330
A
100
AcDbSymbolTableRecord
100
AcDbDimStyleTableRecord
  2
ISO-25
 70
     0
  3

  4

  5

  6

  7

 40
1.0
 41
2.5
 42
0.625
 43
3.75
 44
1.25
 45
0.0
 46
0.0
 47
0.0
 48
0.0
140
2.5
141
2.5
142
0.0
143
0.03937007874016
144
1.0
145
0.0
146
1.0
147
0.625
 71
     0
 72
     0
 73
     0
 74
     0
 75
     0
 76
     0
 77
     1
 78
     8
170
     0
171
     3
172
     1
173
     0
174
     0
175
     0
176
     0
177
     0
178
     0
270
     2
271
     2
272
     2
273
     2
274
     3
340
11
275
     0
280
     0
281
     0
282
     0
283
     0
284
     8
285
     0
286
     0
287
     3
288
     0
  0
ENDTAB
  0
TABLE
  2
BLOCK_RECORD
  5
1
330
0
100
AcDbSymbolTable
 70
     1
  0
BLOCK_RECORD
  5
1F
330
1
100
AcDbSymbolTableRecord
100
AcDbBlockTableRecord
  2
*MODEL_SPACE
  0
BLOCK_RECORD
  5
1B
330
1
100
AcDbSymbolTableRecord
100
AcDbBlockTableRecord
  2
*PAPER_SPACE
  0
ENDTAB
  0
ENDSEC
  0
SECTION
  2
BLOCKS
  0
BLOCK
  5
20
330
1F
100
AcDbEntity
  8
0
100
AcDbBlockBegin
  2
*MODEL_SPACE
 70
     0
 10
0.0
 20
0.0
 30
0.0
  3
*MODEL_SPACE
  1

  0
ENDBLK
  5
21
330
1F
100
AcDbEntity
  8
0
100
AcDbBlockEnd
  0
BLOCK
  5
1C
330
1B
100
AcDbEntity
 67
     1
  8
0
100
AcDbBlockBegin
  2
*PAPER_SPACE
  1

  0
ENDBLK
  5
1D
330
1B
100
AcDbEntity
 67
     1
  8
0
100
AcDbBlockEnd
  0
ENDSEC
  0
SECTION
  2
ENTITIES
  0
LWPOLYLINE
  5
100
100
AcDbEntity
  8
LAYER_1
 62
7
100
AcDbPolyline
 90
2
 70
0
 10
66.141806
 20
173.792559
 30
0.0
 10
49.256606
 20
173.792559
 30
0.0
  0
LWPOLYLINE
  5
101
100
AcDbEntity
  8
LAYER_1
 62
7
100
AcDbPolyline
 90
2
 70
0
 10
88.655607
 20
173.792559
 30
0.0
 10
68.956105
 20
173.792559
 30
0.0
  0
LWPOLYLINE
  5
102
100
AcDbEntity
  8
LAYER_1
 62
7
100
AcDbPolyline
 90
2
 70
0
 10
111.169106
 20
173.792559
 30
0.0
 10
91.469305
 20
173.792559
 30
0.0
  0
LWPOLYLINE
  5
103
100
AcDbEntity
  8
LAYER_1
 62
7
100
AcDbPolyline
 90
2
 70
0
 10
133.682605
 20
173.792559
 30
0.0
 10
113.983106
 20
173.792559
 30
0.0
  0
LWPOLYLINE
  5
104
100
AcDbEntity
  8
LAYER_1
 62
7
100
AcDbPolyline
 90
2
 70
0
 10
156.195805
 20
173.792559
 30
0.0
 10
136.496605
 20
173.792559
 30
0.0
  0
LWPOLYLINE
  5
105
100
AcDbEntity
  8
LAYER_1
 62
7
100
AcDbPolyline
 90
2
 70
0
 10
159.010207
 20
173.792559
 30
0.0
 10
175.895307
 20
173.792559
 30
0.0
  0
LWPOLYLINE
  5
106
100
AcDbEntity
  8
LAYER_1
 62
7
100
AcDbPolyline
 90
2
 70
0
 10
167.452506
 20
172.385359
 30
0.0
 10
178.709606
 20
172.385359
 30
0.0
  0
LWPOLYLINE
  5
107
100
AcDbEntity
  8
LAYER_1
 62
7
100
AcDbPolyline
 90
2
 70
0
 10
147.753406
 20
172.385359
 30
0.0
 10
164.638506
 20
172.385359
 30
0.0
  0
LWPOLYLINE
  5
108
100
AcDbEntity
  8
LAYER_1
 62
7
100
AcDbPolyline
 90
2
 70
0
 10
125.239505
 20
172.385359
 30
0.0
 10
144.939007
 20
172.385359
 30
0.0
  0
LWPOLYLINE
  5
109
100
AcDbEntity
  8
LAYER_1
 62
7
100
AcDbPolyline
 90
2
 70
0
 10
102.726405
 20
172.385359
 30
0.0
 10
122.425505
 20
172.385359
 30
0.0
  0
LWPOLYLINE
  5
10a
100
AcDbEntity
  8
LAYER_1
 62
7
100
AcDbPolyline
 90
2
 70
0
 10
80.212906
 20
172.385359
 30
0.0
 10
99.912006
 20
172.385359
 30
0.0
  0
LWPOLYLINE
  5
10b
100
AcDbEntity
  8
LAYER_1
 62
7
100
AcDbPolyline
 90
2
 70
0
 10
60.513005
 20
172.385359
 30
0.0
 10
77.398906
 20
172.385359
 30
0.0
  0
LWPOLYLINE
  5
10c
100
AcDbEntity
  8
LAYER_1
 62
7
100
AcDbPolyline
 90
2
 70
0
 10
46.442305
 20
172.385359
 30
0.0
 10
57.699405
 20
172.385359
 30
0.0
  0
LWPOLYLINE
  5
10d
100
AcDbEntity
  8
LAYER_1
 62
7
100
AcDbPolyline
 90
2
 70
0
 10
66.141806
 20
145.650658
 30
0.0
 10
49.256606
 20
145.650658
 30
0.0
  0
LWPOLYLINE
  5
10e
100
AcDbEntity
  8
LAYER_1
 62
7
100
AcDbPolyline
 90
2
 70
0
 10
88.655607
 20
145.650658
 30
0.0
 10
68.956105
 20
145.650658
 30
0.0
  0
LWPOLYLINE
  5
10f
100
AcDbEntity
  8
LAYER_1
 62
7
100
AcDbPolyline
 90
2
 70
0
 10
111.169106
 20
145.650658
 30
0.0
 10
91.469305
 20
145.650658
 30
0.0
  0
LWPOLYLINE
  5
110
100
AcDbEntity
  8
LAYER_1
 62
7
100
AcDbPolyline
 90
2
 70
0
 10
133.682605
 20
145.650658
 30
0.0
 10
113.983106
 20
145.650658
 30
0.0
  0
LWPOLYLINE
  5
111
100
AcDbEntity
  8
LAYER_1
 62
7
100
AcDbPolyline
 90
2
 70
0
 10
156.195805
 20
145.650658
 30
0.0
 10
136.496605
 20
145.650658
 30
0.0
  0
LWPOLYLINE
  5
112
100
AcDbEntity
  8
LAYER_1
 62
7
100
AcDbPolyline
 90
2
 70
0
 10
159.010207
 20
145.650658
 30
0.0
 10
175.895307
 20
145.650658
 30
0.0
  0
LWPOLYLINE
  5
113
100
AcDbEntity
  8
LAYER_1
 62
7
100
AcDbPolyline
 90
2
 70
0
 10
167.452506
 20
144.243858
 30
0.0
 10
178.709606
 20
144.243858
 30
0.0
  0
LWPOLYLINE
  5
114
100
AcDbEntity
  8
LAYER_1
 62
7
100
AcDbPolyline
 90
2
 70
0
 10
147.753406
 20
144.243858
 30
0.0
 10
164.638506
 20
144.243858
 30
0.0
  0
LWPOLYLINE
  5
115
100
AcDbEntity
  8
LAYER_1
 62
7
100
AcDbPolyline
 90
2
 70
0
 10
125.239505
 20
144.243858
 30
0.0
 10
144.939007
 20
144.243858
 30
0.0
  0
LWPOLYLINE
  5
116
100
AcDbEntity
  8
LAYER_1
 62
7
100
AcDbPolyline
 90
2
 70
0
 10
102.726405
 20
144.243858
 30
0.0
 10
122.425505
 20
144.243858
 30
0.0
  0
LWPOLYLINE
  5
117
100
AcDbEntity
  8
LAYER_1
 62
7
100
AcDbPolyline
 90
2
 70
0
 10
80.212906
 20
144.243858
 30
0.0
 10
99.912006
 20
144.243858
 30
0.0
  0
LWPOLYLINE
  5
118
100
AcDbEntity
  8
LAYER_1
 62
7
100
AcDbPolyline
 90
2
 70
0
 10
60.513005
 20
144.243858
 30
0.0
 10
77.398906
 20
144.243858
 30
0.0
  0
LWPOLYLINE
  5
119
100
AcDbEntity
  8
LAYER_1
 62
7
100
AcDbPolyline
 90
2
 70
0
 10
46.442305
 20
144.243858
 30
0.0
 10
57.699405
 20
144.243858
 30
0.0
  0
LWPOLYLINE
  5
11a
100
AcDbEntity
  8
LAYER_1
 62
7
100
AcDbPolyline
 90
2
 70
0
 10
167.452506
 20
169.571359
 30
0.0
 10
178.709606
 20
169.571359
 30
0.0
  0
LWPOLYLINE
  5
11b
100
AcDbEntity
  8
LAYER_1
 62
7
100
AcDbPolyline
 90
2
 70
0
 10
147.753406
 20
169.571359
 30
0.0
 10
164.638506
 20
169.571359
 30
0.0
  0
LWPOLYLINE
  5
11c
100
AcDbEntity
  8
LAYER_1
 62
7
100
AcDbPolyline
 90
2
 70
0
 10
125.239505
 20
169.571359
 30
0.0
 10
144.939007
 20
169.571359
 30
0.0
  0
LWPOLYLINE
  5
11d
100
AcDbEntity
  8
LAYER_1
 62
7
100
AcDbPolyline
 90
2
 70
0
 10
102.726405
 20
169.571359
 30
0.0
 10
122.425505
 20
169.571359
 30
0.0
  0
LWPOLYLINE
  5
11e
100
AcDbEntity
  8
LAYER_1
 62
7
100
AcDbPolyline
 90
2
 70
0
 10
80.212906
 20
169.571359
 30
0.0
 10
99.912006
 20
169.571359
 30
0.0
  0
LWPOLYLINE
  5
11f
100
AcDbEntity
  8
LAYER_1
 62
7
100
AcDbPolyline
 90
2
 70
0
 10
60.513005
 20
169.571359
 30
0.0
 10
77.398906
 20
169.571359
 30
0.0
  0
LWPOLYLINE
  5
120
100
AcDbEntity
  8
LAYER_1
 62
7
100
AcDbPolyline
 90
2
 70
0
 10
46.442305
 20
169.571359
 30
0.0
 10
57.699405
 20
169.571359
 30
0.0
  0
LWPOLYLINE
  5
121
100
AcDbEntity
  8
LAYER_1
 62
7
100
AcDbPolyline
 90
2
 70
0
 10
66.141806
 20
168.164159
 30
0.0
 10
49.256606
 20
168.164159
 30
0.0
  0
LWPOLYLINE
  5
122
100
AcDbEntity
  8
LAYER_1
 62
7
100
AcDbPolyline
 90
2
 70
0
 10
88.655607
 20
168.164159
 30
0.0
 10
68.956105
 20
168.164159
 30
0.0
  0
LWPOLYLINE
  5
123
100
AcDbEntity
  8
LAYER_1
 62
7
100
AcDbPolyline
 90
2
 70
0
 10
111.169106
 20
168.164159
 30
0.0
 10
91.469305
 20
168.164159
 30
0.0
  0
LWPOLYLINE
  5
124
100
AcDbEntity
  8
LAYER_1
 62
7
100
AcDbPolyline
 90
2
 70
0
 10
133.682605
 20
168.164159
 30
0.0
 10
113.983106
 20
168.164159
 30
0.0
  0
LWPOLYLINE
  5
125
100
AcDbEntity
  8
LAYER_1
 62
7
100
AcDbPolyline
 90
2
 70
0
 10
156.195805
 20
168.164159
 30
0.0
 10
136.496605
 20
168.164159
 30
0.0
  0
LWPOLYLINE
  5
126
100
AcDbEntity
  8
LAYER_1
 62
7
100
AcDbPolyline
 90
2
 70
0
 10
159.010207
 20
168.164159
 30
0.0
 10
175.895307
 20
168.164159
 30
0.0
  0
LWPOLYLINE
  5
127
100
AcDbEntity
  8
LAYER_1
 62
7
100
AcDbPolyline
 90
2
 70
0
 10
167.452506
 20
149.872259
 30
0.0
 10
178.709606
 20
149.872259
 30
0.0
  0
LWPOLYLINE
  5
128
100
AcDbEntity
  8
LAYER_1
 62
7
100
AcDbPolyline
 90
2
 70
0
 10
147.753406
 20
149.872259
 30
0.0
 10
164.638506
 20
149.872259
 30
0.0
  0
LWPOLYLINE
  5
129
100
AcDbEntity
  8
LAYER_1
 62
7
100
AcDbPolyline
 90
2
 70
0
 10
125.239505
 20
149.872259
 30
0.0
 10
144.939007
 20
149.872259
 30
0.0
  0
LWPOLYLINE
  5
12a
100
AcDbEntity
  8
LAYER_1
 62
7
100
AcDbPolyline
 90
2
 70
0
 10
102.726405
 20
149.872259
 30
0.0
 10
122.425505
 20
149.872259
 30
0.0
  0
LWPOLYLINE
  5
12b
100
AcDbEntity
  8
LAYER_1
 62
7
100
AcDbPolyline
 90
2
 70
0
 10
80.212906
 20
149.872259
 30
0.0
 10
99.912006
 20
149.872259
 30
0.0
  0
LWPOLYLINE
  5
12c
100
AcDbEntity
  8
LAYER_1
 62
7
100
AcDbPolyline
 90
2
 70
0
 10
60.513005
 20
149.872259
 30
0.0
 10
77.398906
 20
149.872259
 30
0.0
  0
LWPOLYLINE
  5
12d
100
AcDbEntity
  8
LAYER_1
 62
7
100
AcDbPolyline
 90
2
 70
0
 10
46.442305
 20
149.872259
 30
0.0
 10
57.699405
 20
149.872259
 30
0.0
  0
LWPOLYLINE
  5
12e
100
AcDbEntity
  8
LAYER_1
 62
7
100
AcDbPolyline
 90
2
 70
0
 10
66.141806
 20
148.465057
 30
0.0
 10
49.256606
 20
148.465057
 30
0.0
  0
LWPOLYLINE
  5
12f
100
AcDbEntity
  8
LAYER_1
 62
7
100
AcDbPolyline
 90
2
 70
0
 10
88.655607
 20
148.465057
 30
0.0
 10
68.956105
 20
148.465057
 30
0.0
  0
LWPOLYLINE
  5
130
100
AcDbEntity
  8
LAYER_1
 62
7
100
AcDbPolyline
 90
2
 70
0
 10
111.169106
 20
148.465057
 30
0.0
 10
91.469305
 20
148.465057
 30
0.0
  0
LWPOLYLINE
  5
131
100
AcDbEntity
  8
LAYER_1
 62
7
100
AcDbPolyline
 90
2
 70
0
 10
133.682605
 20
148.465057
 30
0.0
 10
113.983106
 20
148.465057
 30
0.0
  0
LWPOLYLINE
  5
132
100
AcDbEntity
  8
LAYER_1
 62
7
100
AcDbPolyline
 90
2
 70
0
 10
156.195805
 20
148.465057
 30
0.0
 10
136.496605
 20
148.465057
 30
0.0
  0
LWPOLYLINE
  5
133
100
AcDbEntity
  8
LAYER_1
 62
7
100
AcDbPolyline
 90
2
 70
0
 10
159.010207
 20
148.465057
 30
0.0
 10
175.895307
 20
148.465057
 30
0.0
  0
LWPOLYLINE
  5
134
100
AcDbEntity
  8
LAYER_1
 62
7
100
AcDbPolyline
 90
2
 70
0
 10
167.452506
 20
147.057857
 30
0.0
 10
178.709606
 20
147.057857
 30
0.0
  0
LWPOLYLINE
  5
135
100
AcDbEntity
  8
LAYER_1
 62
7
100
AcDbPolyline
 90
2
 70
0
 10
147.753406
 20
147.057857
 30
0.0
 10
164.638506
 20
147.057857
 30
0.0
  0
LWPOLYLINE
  5
136
100
AcDbEntity
  8
LAYER_1
 62
7
100
AcDbPolyline
 90
2
 70
0
 10
125.239505
 20
147.057857
 30
0.0
 10
144.939007
 20
147.057857
 30
0.0
  0
LWPOLYLINE
  5
137
100
AcDbEntity
  8
LAYER_1
 62
7
100
AcDbPolyline
 90
2
 70
0
 10
102.726405
 20
147.057857
 30
0.0
 10
122.425505
 20
147.057857
 30
0.0
  0
LWPOLYLINE
  5
138
100
AcDbEntity
  8
LAYER_1
 62
7
100
AcDbPolyline
 90
2
 70
0
 10
80.212906
 20
147.057857
 30
0.0
 10
99.912006
 20
147.057857
 30
0.0
  0
LWPOLYLINE
  5
139
100
AcDbEntity
  8
LAYER_1
 62
7
100
AcDbPolyline
 90
2
 70
0
 10
60.513005
 20
147.057857
 30
0.0
 10
77.398906
 20
147.057857
 30
0.0
  0
LWPOLYLINE
  5
13a
100
AcDbEntity
  8
LAYER_1
 62
7
100
AcDbPolyline
 90
2
 70
0
 10
46.442305
 20
147.057857
 30
0.0
 10
57.699405
 20
147.057857
 30
0.0
  0
LWPOLYLINE
  5
13b
100
AcDbEntity
  8
LAYER_1
 62
7
100
AcDbPolyline
 90
2
 70
0
 10
66.141806
 20
170.978257
 30
0.0
 10
49.256606
 20
170.978257
 30
0.0
  0
LWPOLYLINE
  5
13c
100
AcDbEntity
  8
LAYER_1
 62
7
100
AcDbPolyline
 90
2
 70
0
 10
88.655607
 20
170.978257
 30
0.0
 10
68.956105
 20
170.978257
 30
0.0
  0
LWPOLYLINE
  5
13d
100
AcDbEntity
  8
LAYER_1
 62
7
100
AcDbPolyline
 90
2
 70
0
 10
111.169106
 20
170.978257
 30
0.0
 10
91.469305
 20
170.978257
 30
0.0
  0
LWPOLYLINE
  5
13e
100
AcDbEntity
  8
LAYER_1
 62
7
100
AcDbPolyline
 90
2
 70
0
 10
133.682605
 20
170.978257
 30
0.0
 10
113.983106
 20
170.978257
 30
0.0
  0
LWPOLYLINE
  5
13f
100
AcDbEntity
  8
LAYER_1
 62
7
100
AcDbPolyline
 90
2
 70
0
 10
156.195805
 20
170.978257
 30
0.0
 10
136.496605
 20
170.978257
 30
0.0
  0
LWPOLYLINE
  5
140
100
AcDbEntity
  8
LAYER_1
 62
7
100
AcDbPolyline
 90
2
 70
0
 10
159.010207
 20
170.978257
 30
0.0
 10
175.895307
 20
170.978257
 30
0.0
  0
LWPOLYLINE
  5
141
100
AcDbEntity
  8
LAYER_1
 62
7
100
AcDbPolyline
 90
2
 70
0
 10
167.452506
 20
161.128658
 30
0.0
 10
178.709606
 20
161.128658
 30
0.0
  0
LWPOLYLINE
  5
142
100
AcDbEntity
  8
LAYER_1
 62
7
100
AcDbPolyline
 90
2
 70
0
 10
147.753406
 20
161.128658
 30
0.0
 10
164.638506
 20
161.128658
 30
0.0
  0
LWPOLYLINE
  5
143
100
AcDbEntity
  8
LAYER_1
 62
7
100
AcDbPolyline
 90
2
 70
0
 10
125.239505
 20
161.128658
 30
0.0
 10
144.939007
 20
161.128658
 30
0.0
  0
LWPOLYLINE
  5
144
100
AcDbEntity
  8
LAYER_1
 62
7
100
AcDbPolyline
 90
2
 70
0
 10
102.726405
 20
161.128658
 30
0.0
 10
122.425505
 20
161.128658
 30
0.0
  0
LWPOLYLINE
  5
145
100
AcDbEntity
  8
LAYER_1
 62
7
100
AcDbPolyline
 90
2
 70
0
 10
80.212906
 20
161.128658
 30
0.0
 10
99.912006
 20
161.128658
 30
0.0
  0
LWPOLYLINE
  5
146
100
AcDbEntity
  8
LAYER_1
 62
7
100
AcDbPolyline
 90
2
 70
0
 10
60.513005
 20
161.128658
 30
0.0
 10
77.398906
 20
161.128658
 30
0.0
  0
LWPOLYLINE
  5
147
100
AcDbEntity
  8
LAYER_1
 62
7
100
AcDbPolyline
 90
2
 70
0
 10
46.442305
 20
161.128658
 30
0.0
 10
57.699405
 20
161.128658
 30
0.0
  0
LWPOLYLINE
  5
148
100
AcDbEntity
  8
LAYER_1
 62
7
100
AcDbPolyline
 90
2
 70
0
 10
66.141806
 20
159.721459
 30
0.0
 10
49.256606
 20
159.721459
 30
0.0
  0
LWPOLYLINE
  5
149
100
AcDbEntity
  8
LAYER_1
 62
7
100
AcDbPolyline
 90
2
 70
0
 10
88.655607
 20
159.721459
 30
0.0
 10
68.956105
 20
159.721459
 30
0.0
  0
LWPOLYLINE
  5
14a
100
AcDbEntity
  8
LAYER_1
 62
7
100
AcDbPolyline
 90
2
 70
0
 10
111.169106
 20
159.721459
 30
0.0
 10
91.469305
 20
159.721459
 30
0.0
  0
LWPOLYLINE
  5
14b
100
AcDbEntity
  8
LAYER_1
 62
7
100
AcDbPolyline
 90
2
 70
0
 10
133.682605
 20
159.721459
 30
0.0
 10
113.983106
 20
159.721459
 30
0.0
  0
LWPOLYLINE
  5
14c
100
AcDbEntity
  8
LAYER_1
 62
7
100
AcDbPolyline
 90
2
 70
0
 10
156.195805
 20
159.721459
 30
0.0
 10
136.496605
 20
159.721459
 30
0.0
  0
LWPOLYLINE
  5
14d
100
AcDbEntity
  8
LAYER_1
 62
7
100
AcDbPolyline
 90
2
 70
0
 10
159.010207
 20
159.721459
 30
0.0
 10
175.895307
 20
159.721459
 30
0.0
  0
LWPOLYLINE
  5
14e
100
AcDbEntity
  8
LAYER_1
 62
7
100
AcDbPolyline
 90
2
 70
0
 10
167.452506
 20
166.757058
 30
0.0
 10
178.709606
 20
166.757058
 30
0.0
  0
LWPOLYLINE
  5
14f
100
AcDbEntity
  8
LAYER_1
 62
7
100
AcDbPolyline
 90
2
 70
0
 10
147.753406
 20
166.757058
 30
0.0
 10
164.638506
 20
166.757058
 30
0.0
  0
LWPOLYLINE
  5
150
100
AcDbEntity
  8
LAYER_1
 62
7
100
AcDbPolyline
 90
2
 70
0
 10
125.239505
 20
166.757058
 30
0.0
 10
144.939007
 20
166.757058
 30
0.0
  0
LWPOLYLINE
  5
151
100
AcDbEntity
  8
LAYER_1
 62
7
100
AcDbPolyline
 90
2
 70
0
 10
102.726405
 20
166.757058
 30
0.0
 10
122.425505
 20
166.757058
 30
0.0
  0
LWPOLYLINE
  5
152
100
AcDbEntity
  8
LAYER_1
 62
7
100
AcDbPolyline
 90
2
 70
0
 10
80.212906
 20
166.757058
 30
0.0
 10
99.912006
 20
166.757058
 30
0.0
  0
LWPOLYLINE
  5
153
100
AcDbEntity
  8
LAYER_1
 62
7
100
AcDbPolyline
 90
2
 70
0
 10
60.513005
 20
166.757058
 30
0.0
 10
77.398906
 20
166.757058
 30
0.0
  0
LWPOLYLINE
  5
154
100
AcDbEntity
  8
LAYER_1
 62
7
100
AcDbPolyline
 90
2
 70
0
 10
46.442305
 20
166.757058
 30
0.0
 10
57.699405
 20
166.757058
 30
0.0
  0
LWPOLYLINE
  5
155
100
AcDbEntity
  8
LAYER_1
 62
7
100
AcDbPolyline
 90
2
 70
0
 10
66.141806
 20
165.349858
 30
0.0
 10
49.256606
 20
165.349858
 30
0.0
  0
LWPOLYLINE
  5
156
100
AcDbEntity
  8
LAYER_1
 62
7
100
AcDbPolyline
 90
2
 70
0
 10
88.655607
 20
165.349858
 30
0.0
 10
68.956105
 20
165.349858
 30
0.0
  0
LWPOLYLINE
  5
157
100
AcDbEntity
  8
LAYER_1
 62
7
100
AcDbPolyline
 90
2
 70
0
 10
111.169106
 20
165.349858
 30
0.0
 10
91.469305
 20
165.349858
 30
0.0
  0
LWPOLYLINE
  5
158
100
AcDbEntity
  8
LAYER_1
 62
7
100
AcDbPolyline
 90
2
 70
0
 10
133.682605
 20
165.349858
 30
0.0
 10
113.983106
 20
165.349858
 30
0.0
  0
LWPOLYLINE
  5
159
100
AcDbEntity
  8
LAYER_1
 62
7
100
AcDbPolyline
 90
2
 70
0
 10
156.195805
 20
165.349858
 30
0.0
 10
136.496605
 20
165.349858
 30
0.0
  0
LWPOLYLINE
  5
15a
100
AcDbEntity
  8
LAYER_1
 62
7
100
AcDbPolyline
 90
2
 70
0
 10
159.010207
 20
165.349858
 30
0.0
 10
175.895307
 20
165.349858
 30
0.0
  0
LWPOLYLINE
  5
15b
100
AcDbEntity
  8
LAYER_1
 62
7
100
AcDbPolyline
 90
2
 70
0
 10
167.452506
 20
163.943058
 30
0.0
 10
178.709606
 20
163.943058
 30
0.0
  0
LWPOLYLINE
  5
15c
100
AcDbEntity
  8
LAYER_1
 62
7
100
AcDbPolyline
 90
2
 70
0
 10
147.753406
 20
163.943058
 30
0.0
 10
164.638506
 20
163.943058
 30
0.0
  0
LWPOLYLINE
  5
15d
100
AcDbEntity
  8
LAYER_1
 62
7
100
AcDbPolyline
 90
2
 70
0
 10
125.239505
 20
163.943058
 30
0.0
 10
144.939007
 20
163.943058
 30
0.0
  0
LWPOLYLINE
  5
15e
100
AcDbEntity
  8
LAYER_1
 62
7
100
AcDbPolyline
 90
2
 70
0
 10
102.726405
 20
163.943058
 30
0.0
 10
122.425505
 20
163.943058
 30
0.0
  0
LWPOLYLINE
  5
15f
100
AcDbEntity
  8
LAYER_1
 62
7
100
AcDbPolyline
 90
2
 70
0
 10
80.212906
 20
163.943058
 30
0.0
 10
99.912006
 20
163.943058
 30
0.0
  0
LWPOLYLINE
  5
160
100
AcDbEntity
  8
LAYER_1
 62
7
100
AcDbPolyline
 90
2
 70
0
 10
60.513005
 20
163.943058
 30
0.0
 10
77.398906
 20
163.943058
 30
0.0
  0
LWPOLYLINE
  5
161
100
AcDbEntity
  8
LAYER_1
 62
7
100
AcDbPolyline
 90
2
 70
0
 10
46.442305
 20
163.943058
 30
0.0
 10
57.699405
 20
163.943058
 30
0.0
  0
LWPOLYLINE
  5
162
100
AcDbEntity
  8
LAYER_1
 62
7
100
AcDbPolyline
 90
2
 70
0
 10
66.141806
 20
162.535858
 30
0.0
 10
49.256606
 20
162.535858
 30
0.0
  0
LWPOLYLINE
  5
163
100
AcDbEntity
  8
LAYER_1
 62
7
100
AcDbPolyline
 90
2
 70
0
 10
88.655607
 20
162.535858
 30
0.0
 10
68.956105
 20
162.535858
 30
0.0
  0
LWPOLYLINE
  5
164
100
AcDbEntity
  8
LAYER_1
 62
7
100
AcDbPolyline
 90
2
 70
0
 10
111.169106
 20
162.535858
 30
0.0
 10
91.469305
 20
162.535858
 30
0.0
  0
LWPOLYLINE
  5
165
100
AcDbEntity
  8
LAYER_1
 62
7
100
AcDbPolyline
 90
2
 70
0
 10
133.682605
 20
162.535858
 30
0.0
 10
113.983106
 20
162.535858
 30
0.0
  0
LWPOLYLINE
  5
166
100
AcDbEntity
  8
LAYER_1
 62
7
100
AcDbPolyline
 90
2
 70
0
 10
156.195805
 20
162.535858
 30
0.0
 10
136.496605
 20
162.535858
 30
0.0
  0
LWPOLYLINE
  5
167
100
AcDbEntity
  8
LAYER_1
 62
7
100
AcDbPolyline
 90
2
 70
0
 10
159.010207
 20
162.535858
 30
0.0
 10
175.895307
 20
162.535858
 30
0.0
  0
LWPOLYLINE
  5
168
100
AcDbEntity
  8
LAYER_1
 62
7
100
AcDbPolyline
 90
2
 70
0
 10
167.452506
 20
152.685958
 30
0.0
 10
178.709606
 20
152.685958
 30
0.0
  0
LWPOLYLINE
  5
169
100
AcDbEntity
  8
LAYER_1
 62
7
100
AcDbPolyline
 90
2
 70
0
 10
147.753406
 20
152.685958
 30
0.0
 10
164.638506
 20
152.685958
 30
0.0
  0
LWPOLYLINE
  5
16a
100
AcDbEntity
  8
LAYER_1
 62
7
100
AcDbPolyline
 90
2
 70
0
 10
125.239505
 20
152.685958
 30
0.0
 10
144.939007
 20
152.685958
 30
0.0
  0
LWPOLYLINE
  5
16b
100
AcDbEntity
  8
LAYER_1
 62
7
100
AcDbPolyline
 90
2
 70
0
 10
102.726405
 20
152.685958
 30
0.0
 10
122.425505
 20
152.685958
 30
0.0
  0
LWPOLYLINE
  5
16c
100
AcDbEntity
  8
LAYER_1
 62
7
100
AcDbPolyline
 90
2
 70
0
 10
80.212906
 20
152.685958
 30
0.0
 10
99.912006
 20
152.685958
 30
0.0
  0
LWPOLYLINE
  5
16d
100
AcDbEntity
  8
LAYER_1
 62
7
100
AcDbPolyline
 90
2
 70
0
 10
60.513005
 20
152.685958
 30
0.0
 10
77.398906
 20
152.685958
 30
0.0
  0
LWPOLYLINE
  5
16e
100
AcDbEntity
  8
LAYER_1
 62
7
100
AcDbPolyline
 90
2
 70
0
 10
46.442305
 20
152.685958
 30
0.0
 10
57.699405
 20
152.685958
 30
0.0
  0
LWPOLYLINE
  5
16f
100
AcDbEntity
  8
LAYER_1
 62
7
100
AcDbPolyline
 90
2
 70
0
 10
66.141806
 20
151.279057
 30
0.0
 10
49.256606
 20
151.279057
 30
0.0
  0
LWPOLYLINE
  5
170
100
AcDbEntity
  8
LAYER_1
 62
7
100
AcDbPolyline
 90
2
 70
0
 10
88.655607
 20
151.279057
 30
0.0
 10
68.956105
 20
151.279057
 30
0.0
  0
LWPOLYLINE
  5
171
100
AcDbEntity
  8
LAYER_1
 62
7
100
AcDbPolyline
 90
2
 70
0
 10
111.169106
 20
151.279057
 30
0.0
 10
91.469305
 20
151.279057
 30
0.0
  0
LWPOLYLINE
  5
172
100
AcDbEntity
  8
LAYER_1
 62
7
100
AcDbPolyline
 90
2
 70
0
 10
133.682605
 20
151.279057
 30
0.0
 10
113.983106
 20
151.279057
 30
0.0
  0
LWPOLYLINE
  5
173
100
AcDbEntity
  8
LAYER_1
 62
7
100
AcDbPolyline
 90
2
 70
0
 10
156.195805
 20
151.279057
 30
0.0
 10
136.496605
 20
151.279057
 30
0.0
  0
LWPOLYLINE
  5
174
100
AcDbEntity
  8
LAYER_1
 62
7
100
AcDbPolyline
 90
2
 70
0
 10
159.010207
 20
151.279057
 30
0.0
 10
175.895307
 20
151.279057
 30
0.0
  0
LWPOLYLINE
  5
175
100
AcDbEntity
  8
LAYER_1
 62
7
100
AcDbPolyline
 90
2
 70
0
 10
167.452506
 20
158.314259
 30
0.0
 10
178.709606
 20
158.314259
 30
0.0
  0
LWPOLYLINE
  5
176
100
AcDbEntity
  8
LAYER_1
 62
7
100
AcDbPolyline
 90
2
 70
0
 10
147.753406
 20
158.314259
 30
0.0
 10
164.638506
 20
158.314259
 30
0.0
  0
LWPOLYLINE
  5
177
100
AcDbEntity
  8
LAYER_1
 62
7
100
AcDbPolyline
 90
2
 70
0
 10
125.239505
 20
158.314259
 30
0.0
 10
144.939007
 20
158.314259
 30
0.0
  0
LWPOLYLINE
  5
178
100
AcDbEntity
  8
LAYER_1
 62
7
100
AcDbPolyline
 90
2
 70
0
 10
102.726405
 20
158.314259
 30
0.0
 10
122.425505
 20
158.314259
 30
0.0
  0
LWPOLYLINE
  5
179
100
AcDbEntity
  8
LAYER_1
 62
7
100
AcDbPolyline
 90
2
 70
0
 10
80.212906
 20
158.314259
 30
0.0
 10
99.912006
 20
158.314259
 30
0.0
  0
LWPOLYLINE
  5
17a
100
AcDbEntity
  8
LAYER_1
 62
7
100
AcDbPolyline
 90
2
 70
0
 10
60.513005
 20
158.314259
 30
0.0
 10
77.398906
 20
158.314259
 30
0.0
  0
LWPOLYLINE
  5
17b
100
AcDbEntity
  8
LAYER_1
 62
7
100
AcDbPolyline
 90
2
 70
0
 10
46.442305
 20
158.314259
 30
0.0
 10
57.699405
 20
158.314259
 30
0.0
  0
LWPOLYLINE
  5
17c
100
AcDbEntity
  8
LAYER_1
 62
7
100
AcDbPolyline
 90
2
 70
0
 10
66.141806
 20
156.907459
 30
0.0
 10
49.256606
 20
156.907459
 30
0.0
  0
LWPOLYLINE
  5
17d
100
AcDbEntity
  8
LAYER_1
 62
7
100
AcDbPolyline
 90
2
 70
0
 10
88.655607
 20
156.907459
 30
0.0
 10
68.956105
 20
156.907459
 30
0.0
  0
LWPOLYLINE
  5
17e
100
AcDbEntity
  8
LAYER_1
 62
7
100
AcDbPolyline
 90
2
 70
0
 10
111.169106
 20
156.907459
 30
0.0
 10
91.469305
 20
156.907459
 30
0.0
  0
LWPOLYLINE
  5
17f
100
AcDbEntity
  8
LAYER_1
 62
7
100
AcDbPolyline
 90
2
 70
0
 10
133.682605
 20
156.907459
 30
0.0
 10
113.983106
 20
156.907459
 30
0.0
  0
LWPOLYLINE
  5
180
100
AcDbEntity
  8
LAYER_1
 62
7
100
AcDbPolyline
 90
2
 70
0
 10
156.195805
 20
156.907459
 30
0.0
 10
136.496605
 20
156.907459
 30
0.0
  0
LWPOLYLINE
  5
181
100
AcDbEntity
  8
LAYER_1
 62
7
100
AcDbPolyline
 90
2
 70
0
 10
159.010207
 20
156.907459
 30
0.0
 10
175.895307
 20
156.907459
 30
0.0
  0
LWPOLYLINE
  5
182
100
AcDbEntity
  8
LAYER_1
 62
7
100
AcDbPolyline
 90
2
 70
0
 10
167.452506
 20
155.500259
 30
0.0
 10
178.709606
 20
155.500259
 30
0.0
  0
LWPOLYLINE
  5
183
100
AcDbEntity
  8
LAYER_1
 62
7
100
AcDbPolyline
 90
2
 70
0
 10
147.753406
 20
155.500259
 30
0.0
 10
164.638506
 20
155.500259
 30
0.0
  0
LWPOLYLINE
  5
184
100
AcDbEntity
  8
LAYER_1
 62
7
100
AcDbPolyline
 90
2
 70
0
 10
125.239505
 20
155.500259
 30
0.0
 10
144.939007
 20
155.500259
 30
0.0
  0
LWPOLYLINE
  5
185
100
AcDbEntity
  8
LAYER_1
 62
7
100
AcDbPolyline
 90
2
 70
0
 10
102.726405
 20
155.500259
 30
0.0
 10
122.425505
 20
155.500259
 30
0.0
  0
LWPOLYLINE
  5
186
100
AcDbEntity
  8
LAYER_1
 62
7
100
AcDbPolyline
 90
2
 70
0
 10
80.212906
 20
155.500259
 30
0.0
 10
99.912006
 20
155.500259
 30
0.0
  0
LWPOLYLINE
  5
187
100
AcDbEntity
  8
LAYER_1
 62
7
100
AcDbPolyline
 90
2
 70
0
 10
60.513005
 20
155.500259
 30
0.0
 10
77.398906
 20
155.500259
 30
0.0
  0
LWPOLYLINE
  5
188
100
AcDbEntity
  8
LAYER_1
 62
7
100
AcDbPolyline
 90
2
 70
0
 10
46.442305
 20
155.500259
 30
0.0
 10
57.699405
 20
155.500259
 30
0.0
  0
LWPOLYLINE
  5
189
100
AcDbEntity
  8
LAYER_1
 62
7
100
AcDbPolyline
 90
2
 70
0
 10
66.141806
 20
154.093060
 30
0.0
 10
49.256606
 20
154.093060
 30
0.0
  0
LWPOLYLINE
  5
18a
100
AcDbEntity
  8
LAYER_1
 62
7
100
AcDbPolyline
 90
2
 70
0
 10
88.655607
 20
154.093060
 30
0.0
 10
68.956105
 20
154.093060
 30
0.0
  0
LWPOLYLINE
  5
18b
100
AcDbEntity
  8
LAYER_1
 62
7
100
AcDbPolyline
 90
2
 70
0
 10
111.169106
 20
154.093060
 30
0.0
 10
91.469305
 20
154.093060
 30
0.0
  0
LWPOLYLINE
  5
18c
100
AcDbEntity
  8
LAYER_1
 62
7
100
AcDbPolyline
 90
2
 70
0
 10
133.682605
 20
154.093060
 30
0.0
 10
113.983106
 20
154.093060
 30
0.0
  0
LWPOLYLINE
  5
18d
100
AcDbEntity
  8
LAYER_1
 62
7
100
AcDbPolyline
 90
2
 70
0
 10
156.195805
 20
154.093060
 30
0.0
 10
136.496605
 20
154.093060
 30
0.0
  0
LWPOLYLINE
  5
18e
100
AcDbEntity
  8
LAYER_1
 62
7
100
AcDbPolyline
 90
2
 70
0
 10
159.010207
 20
154.093060
 30
0.0
 10
175.895307
 20
154.093060
 30
0.0
  0
LWPOLYLINE
  5
18f
100
AcDbEntity
  8
LAYER_1
 62
7
100
AcDbPolyline
 90
2
 70
0
 10
52.071005
 20
62.443959
 30
0.0
 10
52.071005
 20
56.628457
 30
0.0
  0
LWPOLYLINE
  5
190
100
AcDbEntity
  8
LAYER_1
 62
7
100
AcDbPolyline
 90
2
 70
0
 10
46.442305
 20
62.443959
 30
0.0
 10
52.071405
 20
62.443959
 30
0.0
  0
LWPOLYLINE
  5
191
100
AcDbEntity
  8
LAYER_1
 62
7
100
AcDbPolyline
 90
2
 70
0
 10
173.081307
 20
62.443959
 30
0.0
 10
173.081307
 20
56.628457
 30
0.0
  0
LWPOLYLINE
  5
192
100
AcDbEntity
  8
LAYER_1
 62
7
100
AcDbPolyline
 90
2
 70
0
 10
178.709606
 20
62.443959
 30
0.0
 10
173.081307
 20
62.443959
 30
0.0
  0
LWPOLYLINE
  5
193
100
AcDbEntity
  8
LAYER_1
 62
7
100
AcDbPolyline
 90
2
 70
0
 10
130.612306
 20
251.182657
 30
0.0
 10
130.612306
 20
253.971858
 30
0.0
  0
LWPOLYLINE
  5
194
100
AcDbEntity
  8
LAYER_1
 62
7
100
AcDbPolyline
 90
2
 70
0
 10
178.709606
 20
206.155958
 30
0.0
 10
178.709606
 20
194.899258
 30
0.0
  0
LWPOLYLINE
  5
195
100
AcDbEntity
  8
LAYER_1
 62
7
100
AcDbPolyline
 90
2
 70
0
 10
178.709606
 20
228.669457
 30
0.0
 10
178.709606
 20
217.412357
 30
0.0
  0
LWPOLYLINE
  5
196
100
AcDbEntity
  8
LAYER_1
 62
7
100
AcDbPolyline
 90
2
 70
0
 10
178.709606
 20
251.182657
 30
0.0
 10
178.709606
 20
239.926258
 30
0.0
  0
LWPOLYLINE
  5
197
100
AcDbEntity
  8
LAYER_1
 62
7
100
AcDbPolyline
 90
2
 70
0
 10
175.894905
 20
228.669457
 30
0.0
 10
175.894905
 20
239.926258
 30
0.0
  0
LWPOLYLINE
  5
198
100
AcDbEntity
  8
LAYER_1
 62
7
100
AcDbPolyline
 90
2
 70
0
 10
175.894905
 20
206.155958
 30
0.0
 10
175.894905
 20
217.412759
 30
0.0
  0
LWPOLYLINE
  5
199
100
AcDbEntity
  8
LAYER_1
 62
7
100
AcDbPolyline
 90
2
 70
0
 10
175.894905
 20
183.641758
 30
0.0
 10
175.894905
 20
194.899258
 30
0.0
  0
LWPOLYLINE
  5
19a
100
AcDbEntity
  8
LAYER_1
 62
7
100
AcDbPolyline
 90
2
 70
0
 10
178.709606
 20
239.926258
 30
0.0
 10
175.894905
 20
239.926258
 30
0.0
  0
LWPOLYLINE
  5
19b
100
AcDbEntity
  8
LAYER_1
 62
7
100
AcDbPolyline
 90
2
 70
0
 10
175.894905
 20
228.669457
 30
0.0
 10
178.709606
 20
228.669457
 30
0.0
  0
LWPOLYLINE
  5
19c
100
AcDbEntity
  8
LAYER_1
 62
7
100
AcDbPolyline
 90
2
 70
0
 10
178.709606
 20
217.412759
 30
0.0
 10
175.894905
 20
217.412759
 30
0.0
  0
LWPOLYLINE
  5
19d
100
AcDbEntity
  8
LAYER_1
 62
7
100
AcDbPolyline
 90
2
 70
0
 10
175.894905
 20
206.155958
 30
0.0
 10
178.709606
 20
206.155958
 30
0.0
  0
LWPOLYLINE
  5
19e
100
AcDbEntity
  8
LAYER_1
 62
7
100
AcDbPolyline
 90
2
 70
0
 10
178.709606
 20
194.899258
 30
0.0
 10
175.894905
 20
194.899258
 30
0.0
  0
LWPOLYLINE
  5
19f
100
AcDbEntity
  8
LAYER_1
 62
7
100
AcDbPolyline
 90
2
 70
0
 10
175.894905
 20
183.641758
 30
0.0
 10
178.709606
 20
183.641758
 30
0.0
  0
LWPOLYLINE
  5
1a0
100
AcDbEntity
  8
LAYER_1
 62
7
100
AcDbPolyline
 90
2
 70
0
 10
46.442305
 20
239.926258
 30
0.0
 10
46.442305
 20
251.182657
 30
0.0
  0
LWPOLYLINE
  5
1a1
100
AcDbEntity
  8
LAYER_1
 62
7
100
AcDbPolyline
 90
2
 70
0
 10
46.442305
 20
217.412759
 30
0.0
 10
46.442305
 20
228.669457
 30
0.0
  0
LWPOLYLINE
  5
1a2
100
AcDbEntity
  8
LAYER_1
 62
7
100
AcDbPolyline
 90
2
 70
0
 10
46.442305
 20
194.899258
 30
0.0
 10
46.442305
 20
206.155958
 30
0.0
  0
LWPOLYLINE
  5
1a3
100
AcDbEntity
  8
LAYER_1
 62
7
100
AcDbPolyline
 90
2
 70
0
 10
70.491305
 20
253.997059
 30
0.0
 10
58.467006
 20
253.997059
 30
0.0
  0
LWPOLYLINE
  5
1a4
100
AcDbEntity
  8
LAYER_1
 62
7
100
AcDbPolyline
 90
2
 70
0
 10
94.539607
 20
253.997059
 30
0.0
 10
82.515607
 20
253.997059
 30
0.0
  0
LWPOLYLINE
  5
1a5
100
AcDbEntity
  8
LAYER_1
 62
7
100
AcDbPolyline
 90
2
 70
0
 10
118.588007
 20
253.997059
 30
0.0
 10
106.563607
 20
253.997059
 30
0.0
  0
LWPOLYLINE
  5
1a6
100
AcDbEntity
  8
LAYER_1
 62
7
100
AcDbPolyline
 90
2
 70
0
 10
142.637005
 20
253.997059
 30
0.0
 10
130.612306
 20
253.997059
 30
0.0
  0
LWPOLYLINE
  5
1a7
100
AcDbEntity
  8
LAYER_1
 62
7
100
AcDbPolyline
 90
2
 70
0
 10
166.685307
 20
253.997059
 30
0.0
 10
154.661005
 20
253.997059
 30
0.0
  0
LWPOLYLINE
  5
1a8
100
AcDbEntity
  8
LAYER_1
 62
7
100
AcDbPolyline
 90
2
 70
0
 10
166.685307
 20
251.182657
 30
0.0
 10
166.685307
 20
253.997059
 30
0.0
  0
LWPOLYLINE
  5
1a9
100
AcDbEntity
  8
LAYER_1
 62
7
100
AcDbPolyline
 90
2
 70
0
 10
166.685307
 20
251.182657
 30
0.0
 10
178.709606
 20
251.182657
 30
0.0
  0
LWPOLYLINE
  5
1aa
100
AcDbEntity
  8
LAYER_1
 62
7
100
AcDbPolyline
 90
2
 70
0
 10
142.637005
 20
251.182657
 30
0.0
 10
142.637005
 20
253.997059
 30
0.0
  0
LWPOLYLINE
  5
1ab
100
AcDbEntity
  8
LAYER_1
 62
7
100
AcDbPolyline
 90
2
 70
0
 10
154.661005
 20
251.182657
 30
0.0
 10
154.661005
 20
253.997059
 30
0.0
  0
LWPOLYLINE
  5
1ac
100
AcDbEntity
  8
LAYER_1
 62
7
100
AcDbPolyline
 90
2
 70
0
 10
142.637005
 20
251.182657
 30
0.0
 10
154.661005
 20
251.182657
 30
0.0
  0
LWPOLYLINE
  5
1ad
100
AcDbEntity
  8
LAYER_1
 62
7
100
AcDbPolyline
 90
2
 70
0
 10
118.588007
 20
251.182657
 30
0.0
 10
118.588007
 20
253.997059
 30
0.0
  0
LWPOLYLINE
  5
1ae
100
AcDbEntity
  8
LAYER_1
 62
7
100
AcDbPolyline
 90
2
 70
0
 10
118.588007
 20
251.182657
 30
0.0
 10
130.612306
 20
251.182657
 30
0.0
  0
LWPOLYLINE
  5
1af
100
AcDbEntity
  8
LAYER_1
 62
7
100
AcDbPolyline
 90
2
 70
0
 10
94.648806
 20
251.182657
 30
0.0
 10
94.648806
 20
253.997059
 30
0.0
  0
LWPOLYLINE
  5
1b0
100
AcDbEntity
  8
LAYER_1
 62
7
100
AcDbPolyline
 90
2
 70
0
 10
106.563607
 20
251.182657
 30
0.0
 10
106.563607
 20
253.997059
 30
0.0
  0
LWPOLYLINE
  5
1b1
100
AcDbEntity
  8
LAYER_1
 62
7
100
AcDbPolyline
 90
2
 70
0
 10
94.539607
 20
251.182657
 30
0.0
 10
106.563607
 20
251.182657
 30
0.0
  0
LWPOLYLINE
  5
1b2
100
AcDbEntity
  8
LAYER_1
 62
7
100
AcDbPolyline
 90
2
 70
0
 10
70.491305
 20
251.182657
 30
0.0
 10
70.491305
 20
253.997059
 30
0.0
  0
LWPOLYLINE
  5
1b3
100
AcDbEntity
  8
LAYER_1
 62
7
100
AcDbPolyline
 90
2
 70
0
 10
82.515607
 20
251.182657
 30
0.0
 10
82.515607
 20
253.997059
 30
0.0
  0
LWPOLYLINE
  5
1b4
100
AcDbEntity
  8
LAYER_1
 62
7
100
AcDbPolyline
 90
2
 70
0
 10
70.491305
 20
251.182657
 30
0.0
 10
82.515607
 20
251.182657
 30
0.0
  0
LWPOLYLINE
  5
1b5
100
AcDbEntity
  8
LAYER_1
 62
7
100
AcDbPolyline
 90
2
 70
0
 10
58.467006
 20
251.182657
 30
0.0
 10
58.467006
 20
253.997059
 30
0.0
  0
LWPOLYLINE
  5
1b6
100
AcDbEntity
  8
LAYER_1
 62
7
100
AcDbPolyline
 90
2
 70
0
 10
46.442305
 20
251.182657
 30
0.0
 10
58.467006
 20
251.182657
 30
0.0
  0
LWPOLYLINE
  5
1b7
100
AcDbEntity
  8
LAYER_1
 62
7
100
AcDbPolyline
 90
2
 70
0
 10
49.257006
 20
239.926258
 30
0.0
 10
46.442305
 20
239.926258
 30
0.0
  0
LWPOLYLINE
  5
1b8
100
AcDbEntity
  8
LAYER_1
 62
7
100
AcDbPolyline
 90
2
 70
0
 10
49.257006
 20
228.669457
 30
0.0
 10
49.257006
 20
239.926258
 30
0.0
  0
LWPOLYLINE
  5
1b9
100
AcDbEntity
  8
LAYER_1
 62
7
100
AcDbPolyline
 90
2
 70
0
 10
46.442305
 20
228.669457
 30
0.0
 10
49.257006
 20
228.669457
 30
0.0
  0
LWPOLYLINE
  5
1ba
100
AcDbEntity
  8
LAYER_1
 62
7
100
AcDbPolyline
 90
2
 70
0
 10
49.257006
 20
217.412759
 30
0.0
 10
46.442305
 20
217.412759
 30
0.0
  0
LWPOLYLINE
  5
1bb
100
AcDbEntity
  8
LAYER_1
 62
7
100
AcDbPolyline
 90
2
 70
0
 10
49.257006
 20
206.155958
 30
0.0
 10
49.257006
 20
217.412759
 30
0.0
  0
LWPOLYLINE
  5
1bc
100
AcDbEntity
  8
LAYER_1
 62
7
100
AcDbPolyline
 90
2
 70
0
 10
46.442305
 20
206.155958
 30
0.0
 10
49.257006
 20
206.155958
 30
0.0
  0
LWPOLYLINE
  5
1bd
100
AcDbEntity
  8
LAYER_1
 62
7
100
AcDbPolyline
 90
2
 70
0
 10
49.257006
 20
194.899258
 30
0.0
 10
46.442305
 20
194.899258
 30
0.0
  0
LWPOLYLINE
  5
1be
100
AcDbEntity
  8
LAYER_1
 62
7
100
AcDbPolyline
 90
2
 70
0
 10
49.257006
 20
183.641758
 30
0.0
 10
49.257006
 20
194.899258
 30
0.0
  0
LWPOLYLINE
  5
1bf
100
AcDbEntity
  8
LAYER_1
 62
7
100
AcDbPolyline
 90
2
 70
0
 10
46.442305
 20
183.641758
 30
0.0
 10
49.257006
 20
183.641758
 30
0.0
  0
LWPOLYLINE
  5
1c0
100
AcDbEntity
  8
LAYER_1
 62
7
100
AcDbPolyline
 90
2
 70
0
 10
52.071005
 20
56.628457
 30
0.0
 10
173.081307
 20
56.628457
 30
0.0
  0
LWPOLYLINE
  5
1c1
100
AcDbEntity
  8
LAYER_1
 62
7
100
AcDbPolyline
 90
2
 70
0
 10
46.442305
 20
183.641758
 30
0.0
 10
46.442305
 20
62.443959
 30
0.0
  0
SPLINE
  5
1c2
100
AcDbEntity
  8
LAYER_1
 62
7
100
AcDbSpline
 70
8
 71
3
 72
8
 73
4
 74
0
 40
0
 40
0
 40
0
 40
0
 40
1
 40
1
 40
1
 40
1
 10
41.831406
 20
70.136159
 30
0.0
 10
41.831406
 20
65.469658
 30
0.0
 10
38.055606
 20
61.693757
 30
0.0
 10
33.389406
 20
61.693757
 30
0.0
  0
SPLINE
  5
1c3
100
AcDbEntity
  8
LAYER_1
 62
7
100
AcDbSpline
 70
8
 71
3
 72
8
 73
4
 74
0
 40
0
 40
0
 40
0
 40
0
 40
1
 40
1
 40
1
 40
1
 10
24.947006
 20
70.136159
 30
0.0
 10
24.947006
 20
65.469658
 30
0.0
 10
28.722606
 20
61.693757
 30
0.0
 10
33.389406
 20
61.693757
 30
0.0
  0
LWPOLYLINE
  5
1c4
100
AcDbEntity
  8
LAYER_1
 62
7
100
AcDbPolyline
 90
2
 70
0
 10
178.709606
 20
62.443959
 30
0.0
 10
178.709606
 20
183.641758
 30
0.0
  0
LWPOLYLINE
  5
1c5
100
AcDbEntity
  8
LAYER_1
 62
7
100
AcDbPolyline
 90
2
 70
0
 10
36.203406
 20
148.933759
 30
0.0
 10
41.831805
 20
148.933759
 30
0.0
  0
LWPOLYLINE
  5
1c6
100
AcDbEntity
  8
LAYER_1
 62
7
100
AcDbPolyline
 90
2
 70
0
 10
30.575406
 20
151.747459
 30
0.0
 10
30.575406
 20
148.933457
 30
0.0
  0
LWPOLYLINE
  5
1c7
100
AcDbEntity
  8
LAYER_1
 62
7
100
AcDbPolyline
 90
2
 70
0
 10
36.203406
 20
151.747459
 30
0.0
 10
30.575406
 20
151.747459
 30
0.0
  0
LWPOLYLINE
  5
1c8
100
AcDbEntity
  8
LAYER_1
 62
7
100
AcDbPolyline
 90
2
 70
0
 10
36.203406
 20
148.933457
 30
0.0
 10
36.203406
 20
151.747459
 30
0.0
  0
LWPOLYLINE
  5
1c9
100
AcDbEntity
  8
LAYER_1
 62
7
100
AcDbPolyline
 90
2
 70
0
 10
22.132706
 20
137.841859
 30
0.0
 10
22.132706
 20
126.255758
 30
0.0
  0
LWPOLYLINE
  5
1ca
100
AcDbEntity
  8
LAYER_1
 62
7
100
AcDbPolyline
 90
2
 70
0
 10
22.132706
 20
115.328357
 30
0.0
 10
22.132706
 20
103.742259
 30
0.0
  0
LWPOLYLINE
  5
1cb
100
AcDbEntity
  8
LAYER_1
 62
7
100
AcDbPolyline
 90
2
 70
0
 10
24.947006
 20
81.393259
 30
0.0
 10
24.947006
 20
70.136159
 30
0.0
  0
LWPOLYLINE
  5
1cc
100
AcDbEntity
  8
LAYER_1
 62
7
100
AcDbPolyline
 90
2
 70
0
 10
24.947006
 20
103.742259
 30
0.0
 10
24.947006
 20
92.815258
 30
0.0
  0
LWPOLYLINE
  5
1cd
100
AcDbEntity
  8
LAYER_1
 62
7
100
AcDbPolyline
 90
2
 70
0
 10
24.947006
 20
126.255758
 30
0.0
 10
24.947006
 20
115.328357
 30
0.0
  0
LWPOLYLINE
  5
1ce
100
AcDbEntity
  8
LAYER_1
 62
7
100
AcDbPolyline
 90
2
 70
0
 10
24.947006
 20
148.934158
 30
0.0
 10
24.947006
 20
137.841859
 30
0.0
  0
LWPOLYLINE
  5
1cf
100
AcDbEntity
  8
LAYER_1
 62
7
100
AcDbPolyline
 90
2
 70
0
 10
22.132706
 20
137.841859
 30
0.0
 10
24.947006
 20
137.841859
 30
0.0
  0
LWPOLYLINE
  5
1d0
100
AcDbEntity
  8
LAYER_1
 62
7
100
AcDbPolyline
 90
2
 70
0
 10
24.947006
 20
126.255758
 30
0.0
 10
22.132706
 20
126.255758
 30
0.0
  0
LWPOLYLINE
  5
1d1
100
AcDbEntity
  8
LAYER_1
 62
7
100
AcDbPolyline
 90
2
 70
0
 10
22.132706
 20
115.328357
 30
0.0
 10
24.947006
 20
115.328357
 30
0.0
  0
LWPOLYLINE
  5
1d2
100
AcDbEntity
  8
LAYER_1
 62
7
100
AcDbPolyline
 90
2
 70
0
 10
24.947006
 20
103.742259
 30
0.0
 10
22.132706
 20
103.742259
 30
0.0
  0
LWPOLYLINE
  5
1d3
100
AcDbEntity
  8
LAYER_1
 62
7
100
AcDbPolyline
 90
2
 70
0
 10
22.132706
 20
92.815258
 30
0.0
 10
24.947006
 20
92.815258
 30
0.0
  0
LWPOLYLINE
  5
1d4
100
AcDbEntity
  8
LAYER_1
 62
7
100
AcDbPolyline
 90
2
 70
0
 10
24.947006
 20
81.393259
 30
0.0
 10
22.132706
 20
81.393259
 30
0.0
  0
LWPOLYLINE
  5
1d5
100
AcDbEntity
  8
LAYER_1
 62
7
100
AcDbPolyline
 90
2
 70
0
 10
30.575406
 20
148.934158
 30
0.0
 10
24.947006
 20
148.934158
 30
0.0
  0
LWPOLYLINE
  5
1d6
100
AcDbEntity
  8
LAYER_1
 62
7
100
AcDbPolyline
 90
2
 70
0
 10
41.831805
 20
70.136159
 30
0.0
 10
41.831805
 20
148.934158
 30
0.0
  0
SPLINE
  5
1d7
100
AcDbEntity
  8
LAYER_1
 62
7
100
AcDbSpline
 70
8
 71
3
 72
8
 73
4
 74
0
 40
0
 40
0
 40
0
 40
0
 40
1
 40
1
 40
1
 40
1
 10
35.960905
 20
141.470659
 30
0.0
 10
35.960905
 20
140.788457
 30
0.0
 10
35.690006
 20
140.134357
 30
0.0
 10
35.207906
 20
139.651858
 30
0.0
  0
SPLINE
  5
1d8
100
AcDbEntity
  8
LAYER_1
 62
7
100
AcDbSpline
 70
8
 71
3
 72
8
 73
4
 74
0
 40
0
 40
0
 40
0
 40
0
 40
1
 40
1
 40
1
 40
1
 10
35.207906
 20
139.651858
 30
0.0
 10
34.725306
 20
139.169657
 30
0.0
 10
34.071205
 20
138.898758
 30
0.0
 10
33.389406
 20
138.898758
 30
0.0
  0
SPLINE
  5
1d9
100
AcDbEntity
  8
LAYER_1
 62
7
100
AcDbSpline
 70
8
 71
3
 72
8
 73
4
 74
0
 40
0
 40
0
 40
0
 40
0
 40
1
 40
1
 40
1
 40
1
 10
33.389406
 20
138.898758
 30
0.0
 10
31.968805
 20
138.898758
 30
0.0
 10
30.817505
 20
140.049958
 30
0.0
 10
30.817505
 20
141.470659
 30
0.0
  0
SPLINE
  5
1da
100
AcDbEntity
  8
LAYER_1
 62
7
100
AcDbSpline
 70
8
 71
3
 72
8
 73
4
 74
0
 40
0
 40
0
 40
0
 40
0
 40
1
 40
1
 40
1
 40
1
 10
30.817505
 20
141.470659
 30
0.0
 10
30.817505
 20
142.152459
 30
0.0
 10
31.088407
 20
142.806559
 30
0.0
 10
31.570605
 20
143.289058
 30
0.0
  0
SPLINE
  5
1db
100
AcDbEntity
  8
LAYER_1
 62
7
100
AcDbSpline
 70
8
 71
3
 72
8
 73
4
 74
0
 40
0
 40
0
 40
0
 40
0
 40
1
 40
1
 40
1
 40
1
 10
31.570605
 20
143.289058
 30
0.0
 10
32.053107
 20
143.771259
 30
0.0
 10
32.707305
 20
144.042158
 30
0.0
 10
33.389406
 20
144.042158
 30
0.0
  0
SPLINE
  5
1dc
100
AcDbEntity
  8
LAYER_1
 62
7
100
AcDbSpline
 70
8
 71
3
 72
8
 73
4
 74
0
 40
0
 40
0
 40
0
 40
0
 40
1
 40
1
 40
1
 40
1
 10
33.389406
 20
144.042158
 30
0.0
 10
34.071205
 20
144.042158
 30
0.0
 10
34.725306
 20
143.771259
 30
0.0
 10
35.207906
 20
143.289058
 30
0.0
  0
SPLINE
  5
1dd
100
AcDbEntity
  8
LAYER_1
 62
7
100
AcDbSpline
 70
8
 71
3
 72
8
 73
4
 74
0
 40
0
 40
0
 40
0
 40
0
 40
1
 40
1
 40
1
 40
1
 10
35.207906
 20
143.289058
 30
0.0
 10
35.690006
 20
142.806559
 30
0.0
 10
35.960905
 20
142.152459
 30
0.0
 10
35.960905
 20
141.470659
 30
0.0
  0
LWPOLYLINE
  5
1de
100
AcDbEntity
  8
LAYER_1
 62
7
100
AcDbPolyline
 90
2
 70
0
 10
22.132706
 20
92.815258
 30
0.0
 10
22.132706
 20
81.393259
 30
0.0
  0
SPLINE
  5
1df
100
AcDbEntity
  8
LAYER_1
 62
7
100
AcDbSpline
 70
8
 71
3
 72
8
 73
4
 74
0
 40
0
 40
0
 40
0
 40
0
 40
1
 40
1
 40
1
 40
1
 10
24.947706
 20
169.995759
 30
0.0
 10
24.947706
 20
165.329258
 30
0.0
 10
28.723307
 20
161.553357
 30
0.0
 10
33.389406
 20
161.553357
 30
0.0
  0
SPLINE
  5
1e0
100
AcDbEntity
  8
LAYER_1
 62
7
100
AcDbSpline
 70
8
 71
3
 72
8
 73
4
 74
0
 40
0
 40
0
 40
0
 40
0
 40
1
 40
1
 40
1
 40
1
 10
41.832107
 20
169.995759
 30
0.0
 10
41.832107
 20
165.329258
 30
0.0
 10
38.056307
 20
161.553357
 30
0.0
 10
33.389406
 20
161.553357
 30
0.0
  0
LWPOLYLINE
  5
1e1
100
AcDbEntity
  8
LAYER_1
 62
7
100
AcDbPolyline
 90
2
 70
1
 10
35.960905
 20
141.470659
 30
0.0
 10
35.960905
 20
141.470659
 30
0.0
  0
LWPOLYLINE
  5
1e2
100
AcDbEntity
  8
LAYER_1
 62
7
100
AcDbPolyline
 90
2
 70
0
 10
30.575406
 20
248.793758
 30
0.0
 10
24.947006
 20
248.793758
 30
0.0
  0
LWPOLYLINE
  5
1e3
100
AcDbEntity
  8
LAYER_1
 62
7
100
AcDbPolyline
 90
2
 70
0
 10
36.203805
 20
251.607358
 30
0.0
 10
36.203805
 20
248.793359
 30
0.0
  0
LWPOLYLINE
  5
1e4
100
AcDbEntity
  8
LAYER_1
 62
7
100
AcDbPolyline
 90
2
 70
0
 10
30.575406
 20
251.607358
 30
0.0
 10
36.203805
 20
251.607358
 30
0.0
  0
LWPOLYLINE
  5
1e5
100
AcDbEntity
  8
LAYER_1
 62
7
100
AcDbPolyline
 90
2
 70
0
 10
30.575406
 20
248.793758
 30
0.0
 10
30.575406
 20
251.607358
 30
0.0
  0
LWPOLYLINE
  5
1e6
100
AcDbEntity
  8
LAYER_1
 62
7
100
AcDbPolyline
 90
2
 70
0
 10
44.646207
 20
237.701859
 30
0.0
 10
44.646207
 20
226.115757
 30
0.0
  0
LWPOLYLINE
  5
1e7
100
AcDbEntity
  8
LAYER_1
 62
7
100
AcDbPolyline
 90
2
 70
0
 10
44.646207
 20
215.188359
 30
0.0
 10
44.646207
 20
203.602258
 30
0.0
  0
LWPOLYLINE
  5
1e8
100
AcDbEntity
  8
LAYER_1
 62
7
100
AcDbPolyline
 90
2
 70
0
 10
41.831805
 20
181.253258
 30
0.0
 10
41.831805
 20
169.995759
 30
0.0
  0
LWPOLYLINE
  5
1e9
100
AcDbEntity
  8
LAYER_1
 62
7
100
AcDbPolyline
 90
2
 70
0
 10
41.831805
 20
203.602258
 30
0.0
 10
41.831805
 20
192.674858
 30
0.0
  0
LWPOLYLINE
  5
1ea
100
AcDbEntity
  8
LAYER_1
 62
7
100
AcDbPolyline
 90
2
 70
0
 10
41.831805
 20
226.116059
 30
0.0
 10
41.831805
 20
215.188359
 30
0.0
  0
LWPOLYLINE
  5
1eb
100
AcDbEntity
  8
LAYER_1
 62
7
100
AcDbPolyline
 90
2
 70
0
 10
41.831805
 20
248.794057
 30
0.0
 10
41.831805
 20
237.701859
 30
0.0
  0
LWPOLYLINE
  5
1ec
100
AcDbEntity
  8
LAYER_1
 62
7
100
AcDbPolyline
 90
2
 70
0
 10
44.646207
 20
237.701859
 30
0.0
 10
41.831805
 20
237.701859
 30
0.0
  0
LWPOLYLINE
  5
1ed
100
AcDbEntity
  8
LAYER_1
 62
7
100
AcDbPolyline
 90
2
 70
0
 10
41.831805
 20
226.116059
 30
0.0
 10
44.646207
 20
226.116059
 30
0.0
  0
LWPOLYLINE
  5
1ee
100
AcDbEntity
  8
LAYER_1
 62
7
100
AcDbPolyline
 90
2
 70
0
 10
44.646207
 20
215.188359
 30
0.0
 10
41.831805
 20
215.188359
 30
0.0
  0
LWPOLYLINE
  5
1ef
100
AcDbEntity
  8
LAYER_1
 62
7
100
AcDbPolyline
 90
2
 70
0
 10
41.831805
 20
203.602258
 30
0.0
 10
44.646207
 20
203.602258
 30
0.0
  0
LWPOLYLINE
  5
1f0
100
AcDbEntity
  8
LAYER_1
 62
7
100
AcDbPolyline
 90
2
 70
0
 10
44.646207
 20
192.674858
 30
0.0
 10
41.831805
 20
192.674858
 30
0.0
  0
LWPOLYLINE
  5
1f1
100
AcDbEntity
  8
LAYER_1
 62
7
100
AcDbPolyline
 90
2
 70
0
 10
41.831805
 20
181.253258
 30
0.0
 10
44.646207
 20
181.253258
 30
0.0
  0
LWPOLYLINE
  5
1f2
100
AcDbEntity
  8
LAYER_1
 62
7
100
AcDbPolyline
 90
2
 70
0
 10
36.203805
 20
248.794057
 30
0.0
 10
41.831805
 20
248.794057
 30
0.0
  0
LWPOLYLINE
  5
1f3
100
AcDbEntity
  8
LAYER_1
 62
7
100
AcDbPolyline
 90
2
 70
0
 10
24.947006
 20
169.995759
 30
0.0
 10
24.947006
 20
248.794057
 30
0.0
  0
SPLINE
  5
1f4
100
AcDbEntity
  8
LAYER_1
 62
7
100
AcDbSpline
 70
8
 71
3
 72
8
 73
4
 74
0
 40
0
 40
0
 40
0
 40
0
 40
1
 40
1
 40
1
 40
1
 10
30.817905
 20
241.330558
 30
0.0
 10
30.817905
 20
239.910259
 30
0.0
 10
31.969107
 20
238.758758
 30
0.0
 10
33.389406
 20
238.758758
 30
0.0
  0
SPLINE
  5
1f5
100
AcDbEntity
  8
LAYER_1
 62
7
100
AcDbSpline
 70
8
 71
3
 72
8
 73
4
 74
0
 40
0
 40
0
 40
0
 40
0
 40
1
 40
1
 40
1
 40
1
 10
33.389406
 20
238.758758
 30
0.0
 10
34.810105
 20
238.758758
 30
0.0
 10
35.961307
 20
239.910259
 30
0.0
 10
35.961307
 20
241.330558
 30
0.0
  0
SPLINE
  5
1f6
100
AcDbEntity
  8
LAYER_1
 62
7
100
AcDbSpline
 70
8
 71
3
 72
8
 73
4
 74
0
 40
0
 40
0
 40
0
 40
0
 40
1
 40
1
 40
1
 40
1
 10
35.961307
 20
241.330558
 30
0.0
 10
35.961307
 20
242.012757
 30
0.0
 10
35.690405
 20
242.666857
 30
0.0
 10
35.208205
 20
243.149058
 30
0.0
  0
SPLINE
  5
1f7
100
AcDbEntity
  8
LAYER_1
 62
7
100
AcDbSpline
 70
8
 71
3
 72
8
 73
4
 74
0
 40
0
 40
0
 40
0
 40
0
 40
1
 40
1
 40
1
 40
1
 10
35.208205
 20
243.149058
 30
0.0
 10
34.725705
 20
243.631557
 30
0.0
 10
34.071507
 20
243.902459
 30
0.0
 10
33.389406
 20
243.902459
 30
0.0
  0
SPLINE
  5
1f8
100
AcDbEntity
  8
LAYER_1
 62
7
100
AcDbSpline
 70
8
 71
3
 72
8
 73
4
 74
0
 40
0
 40
0
 40
0
 40
0
 40
1
 40
1
 40
1
 40
1
 10
33.389406
 20
243.902459
 30
0.0
 10
32.707606
 20
243.902459
 30
0.0
 10
32.053506
 20
243.631557
 30
0.0
 10
31.571007
 20
243.149058
 30
0.0
  0
SPLINE
  5
1f9
100
AcDbEntity
  8
LAYER_1
 62
7
100
AcDbSpline
 70
8
 71
3
 72
8
 73
4
 74
0
 40
0
 40
0
 40
0
 40
0
 40
1
 40
1
 40
1
 40
1
 10
31.571007
 20
243.149058
 30
0.0
 10
31.088806
 20
242.666857
 30
0.0
 10
30.817905
 20
242.012757
 30
0.0
 10
30.817905
 20
241.330558
 30
0.0
  0
LWPOLYLINE
  5
1fa
100
AcDbEntity
  8
LAYER_1
 62
7
100
AcDbPolyline
 90
2
 70
0
 10
44.646207
 20
192.674858
 30
0.0
 10
44.646207
 20
181.253258
 30
0.0
  0
LWPOLYLINE
  5
1fb
100
AcDbEntity
  8
LAYER_1
 62
7
100
AcDbPolyline
 90
2
 70
1
 10
30.817905
 20
241.330558
 30
0.0
 10
30.817905
 20
241.330558
 30
0.0
  0
LWPOLYLINE
  5
1fc
100
AcDbEntity
  8
LAYER_1
 62
7
100
AcDbPolyline
 90
2
 70
0
 10
173.081307
 20
52.100159
 30
0.0
 10
173.081307
 20
49.286159
 30
0.0
  0
LWPOLYLINE
  5
1fd
100
AcDbEntity
  8
LAYER_1
 62
7
100
AcDbPolyline
 90
2
 70
0
 10
178.709606
 20
52.100159
 30
0.0
 10
173.081307
 20
52.100159
 30
0.0
  0
LWPOLYLINE
  5
1fe
100
AcDbEntity
  8
LAYER_1
 62
7
100
AcDbPolyline
 90
2
 70
0
 10
178.709606
 20
49.286159
 30
0.0
 10
178.709606
 20
52.100159
 30
0.0
  0
LWPOLYLINE
  5
1ff
100
AcDbEntity
  8
LAYER_1
 62
7
100
AcDbPolyline
 90
2
 70
0
 10
52.071005
 20
52.100159
 30
0.0
 10
52.071005
 20
49.286159
 30
0.0
  0
LWPOLYLINE
  5
200
100
AcDbEntity
  8
LAYER_1
 62
7
100
AcDbPolyline
 90
2
 70
0
 10
46.442606
 20
52.100159
 30
0.0
 10
52.071005
 20
52.100159
 30
0.0
  0
LWPOLYLINE
  5
201
100
AcDbEntity
  8
LAYER_1
 62
7
100
AcDbPolyline
 90
2
 70
0
 10
46.442305
 20
49.286159
 30
0.0
 10
46.442569
 20
52.100159
 30
0.0
  0
LWPOLYLINE
  5
202
100
AcDbEntity
  8
LAYER_1
 62
7
100
AcDbPolyline
 90
2
 70
0
 10
46.438405
 20
43.494059
 30
0.0
 10
46.442294
 20
49.286159
 30
0.0
  0
LWPOLYLINE
  5
203
100
AcDbEntity
  8
LAYER_1
 62
7
100
AcDbPolyline
 90
2
 70
0
 10
49.260906
 20
38.193558
 30
0.0
 10
49.252703
 20
43.494059
 30
0.0
  0
LWPOLYLINE
  5
204
100
AcDbEntity
  8
LAYER_1
 62
7
100
AcDbPolyline
 90
2
 70
0
 10
49.260906
 20
38.193558
 30
0.0
 10
46.446906
 20
38.193558
 30
0.0
  0
LWPOLYLINE
  5
205
100
AcDbEntity
  8
LAYER_1
 62
7
100
AcDbPolyline
 90
2
 70
0
 10
46.438405
 20
43.494059
 30
0.0
 10
49.252706
 20
43.494059
 30
0.0
  0
LWPOLYLINE
  5
206
100
AcDbEntity
  8
LAYER_1
 62
7
100
AcDbPolyline
 90
2
 70
0
 10
70.318305
 20
32.401056
 30
0.0
 10
58.639607
 20
32.401056
 30
0.0
  0
LWPOLYLINE
  5
207
100
AcDbEntity
  8
LAYER_1
 62
7
100
AcDbPolyline
 90
2
 70
0
 10
94.366607
 20
32.401056
 30
0.0
 10
82.688007
 20
32.401056
 30
0.0
  0
LWPOLYLINE
  5
208
100
AcDbEntity
  8
LAYER_1
 62
7
100
AcDbPolyline
 90
2
 70
0
 10
118.414906
 20
32.401056
 30
0.0
 10
106.736605
 20
32.401056
 30
0.0
  0
LWPOLYLINE
  5
209
100
AcDbEntity
  8
LAYER_1
 62
7
100
AcDbPolyline
 90
2
 70
0
 10
142.464007
 20
32.401056
 30
0.0
 10
130.785005
 20
32.401056
 30
0.0
  0
LWPOLYLINE
  5
20a
100
AcDbEntity
  8
LAYER_1
 62
7
100
AcDbPolyline
 90
2
 70
0
 10
166.685307
 20
32.401056
 30
0.0
 10
154.958807
 20
32.401056
 30
0.0
  0
LWPOLYLINE
  5
20b
100
AcDbEntity
  8
LAYER_1
 62
7
100
AcDbPolyline
 90
2
 70
0
 10
166.685307
 20
29.586657
 30
0.0
 10
166.685307
 20
32.401056
 30
0.0
  0
LWPOLYLINE
  5
20c
100
AcDbEntity
  8
LAYER_1
 62
7
100
AcDbPolyline
 90
2
 70
0
 10
166.685307
 20
29.586657
 30
0.0
 10
178.709606
 20
29.586657
 30
0.0
  0
LWPOLYLINE
  5
20d
100
AcDbEntity
  8
LAYER_1
 62
7
100
AcDbPolyline
 90
2
 70
0
 10
142.464007
 20
29.586657
 30
0.0
 10
142.464007
 20
32.401056
 30
0.0
  0
LWPOLYLINE
  5
20e
100
AcDbEntity
  8
LAYER_1
 62
7
100
AcDbPolyline
 90
2
 70
0
 10
154.958807
 20
29.586657
 30
0.0
 10
154.958807
 20
32.401056
 30
0.0
  0
LWPOLYLINE
  5
20f
100
AcDbEntity
  8
LAYER_1
 62
7
100
AcDbPolyline
 90
2
 70
0
 10
142.464007
 20
29.586657
 30
0.0
 10
154.958807
 20
29.586657
 30
0.0
  0
LWPOLYLINE
  5
210
100
AcDbEntity
  8
LAYER_1
 62
7
100
AcDbPolyline
 90
2
 70
0
 10
118.414906
 20
29.586657
 30
0.0
 10
118.414906
 20
32.401056
 30
0.0
  0
LWPOLYLINE
  5
211
100
AcDbEntity
  8
LAYER_1
 62
7
100
AcDbPolyline
 90
2
 70
0
 10
130.785306
 20
29.586657
 30
0.0
 10
130.785306
 20
32.401056
 30
0.0
  0
LWPOLYLINE
  5
212
100
AcDbEntity
  8
LAYER_1
 62
7
100
AcDbPolyline
 90
2
 70
0
 10
118.414906
 20
29.586657
 30
0.0
 10
130.785306
 20
29.586657
 30
0.0
  0
LWPOLYLINE
  5
213
100
AcDbEntity
  8
LAYER_1
 62
7
100
AcDbPolyline
 90
2
 70
0
 10
94.366607
 20
29.586657
 30
0.0
 10
94.366607
 20
32.401056
 30
0.0
  0
LWPOLYLINE
  5
214
100
AcDbEntity
  8
LAYER_1
 62
7
100
AcDbPolyline
 90
2
 70
0
 10
106.736605
 20
29.586657
 30
0.0
 10
106.736605
 20
32.401056
 30
0.0
  0
LWPOLYLINE
  5
215
100
AcDbEntity
  8
LAYER_1
 62
7
100
AcDbPolyline
 90
2
 70
0
 10
94.366607
 20
29.586657
 30
0.0
 10
106.736605
 20
29.586657
 30
0.0
  0
LWPOLYLINE
  5
216
100
AcDbEntity
  8
LAYER_1
 62
7
100
AcDbPolyline
 90
2
 70
0
 10
70.318305
 20
29.586657
 30
0.0
 10
70.318305
 20
32.401056
 30
0.0
  0
LWPOLYLINE
  5
217
100
AcDbEntity
  8
LAYER_1
 62
7
100
AcDbPolyline
 90
2
 70
0
 10
82.688306
 20
29.586657
 30
0.0
 10
82.688306
 20
32.401056
 30
0.0
  0
LWPOLYLINE
  5
218
100
AcDbEntity
  8
LAYER_1
 62
7
100
AcDbPolyline
 90
2
 70
0
 10
70.318305
 20
29.586657
 30
0.0
 10
82.688007
 20
29.586657
 30
0.0
  0
LWPOLYLINE
  5
219
100
AcDbEntity
  8
LAYER_1
 62
7
100
AcDbPolyline
 90
2
 70
0
 10
58.640006
 20
29.586657
 30
0.0
 10
58.640006
 20
32.401056
 30
0.0
  0
LWPOLYLINE
  5
21a
100
AcDbEntity
  8
LAYER_1
 62
7
100
AcDbPolyline
 90
2
 70
0
 10
46.442305
 20
29.586657
 30
0.0
 10
58.640006
 20
29.586657
 30
0.0
  0
LWPOLYLINE
  5
21b
100
AcDbEntity
  8
LAYER_1
 62
7
100
AcDbPolyline
 90
2
 70
0
 10
178.705407
 20
43.494059
 30
0.0
 10
178.709296
 20
49.286159
 30
0.0
  0
LWPOLYLINE
  5
21c
100
AcDbEntity
  8
LAYER_1
 62
7
100
AcDbPolyline
 90
2
 70
0
 10
175.899207
 20
38.193558
 30
0.0
 10
175.891402
 20
43.494059
 30
0.0
  0
LWPOLYLINE
  5
21d
100
AcDbEntity
  8
LAYER_1
 62
7
100
AcDbPolyline
 90
2
 70
0
 10
178.713905
 20
38.193558
 30
0.0
 10
175.899506
 20
38.193558
 30
0.0
  0
LWPOLYLINE
  5
21e
100
AcDbEntity
  8
LAYER_1
 62
7
100
AcDbPolyline
 90
2
 70
0
 10
175.891706
 20
43.494059
 30
0.0
 10
178.705706
 20
43.494059
 30
0.0
  0
LWPOLYLINE
  5
21f
100
AcDbEntity
  8
LAYER_1
 62
7
100
AcDbPolyline
 90
2
 70
0
 10
46.447205
 20
38.193558
 30
0.0
 10
46.443315
 20
29.586657
 30
0.0
  0
LWPOLYLINE
  5
220
100
AcDbEntity
  8
LAYER_1
 62
7
100
AcDbPolyline
 90
2
 70
0
 10
173.081307
 20
49.286159
 30
0.0
 10
52.071005
 20
49.286159
 30
0.0
  0
LWPOLYLINE
  5
221
100
AcDbEntity
  8
LAYER_1
 62
7
100
AcDbPolyline
 90
2
 70
0
 10
178.713905
 20
38.193558
 30
0.0
 10
178.709593
 20
29.586657
 30
0.0
  0
ENDSEC
  0
SECTION
  2
OBJECTS
  0
DICTIONARY
  5
C
330
0
100
AcDbDictionary
  3
ACAD_GROUP
350
D
  3
ACAD_MLINESTYLE
350
17
  0
DICTIONARY
  5
D
330
C
100
AcDbDictionary
  0
DICTIONARY
  5
1A
330
C
100
AcDbDictionary
  0
DICTIONARY
  5
17
330
C
100
AcDbDictionary
  3
STANDARD
350
18
  0
DICTIONARY
  5
19
330
C
100
AcDbDictionary
  0
ENDSEC
  0
EOF
