<?xml version="1.0" encoding="UTF-8" standalone="no"?>
<!-- Created with Inkscape (http://www.inkscape.org/) -->

<svg
   xmlns:osb="http://www.openswatchbook.org/uri/2009/osb"
   xmlns:dc="http://purl.org/dc/elements/1.1/"
   xmlns:cc="http://creativecommons.org/ns#"
   xmlns:rdf="http://www.w3.org/1999/02/22-rdf-syntax-ns#"
   xmlns:svg="http://www.w3.org/2000/svg"
   xmlns="http://www.w3.org/2000/svg"
   xmlns:xlink="http://www.w3.org/1999/xlink"
   xmlns:sodipodi="http://sodipodi.sourceforge.net/DTD/sodipodi-0.dtd"
   xmlns:inkscape="http://www.inkscape.org/namespaces/inkscape"
   width="600mm"
   height="300mm"
   viewBox="0 0 600 300"
   version="1.1"
   id="svg8"
   inkscape:version="0.92.4 (5da689c313, 2019-01-14)"
   sodipodi:docname="Octagonal Dice Tray V3.svg">
  <title
     id="title6391">Octagonal Dice Tray V3</title>
  <defs
     id="defs2">
    <color-profile
       name="Adobe-RGB--1998-"
       xlink:href="C:\WINDOWS\system32\spool\drivers\color\AdobeRGB1998.icc"
       id="color-profile3" />
    <linearGradient
       id="Engrave"
       osb:paint="solid">
      <stop
         style="stop-color:#00ff02;stop-opacity:1;"
         offset="0"
         id="stop4533" />
    </linearGradient>
    <linearGradient
       id="Half_Cut"
       osb:paint="solid">
      <stop
         style="stop-color:#0000ff;stop-opacity:1;"
         offset="0"
         id="stop4527" />
    </linearGradient>
    <linearGradient
       id="Cut"
       osb:paint="solid">
      <stop
         style="stop-color:#ff0000;stop-opacity:1;"
         offset="0"
         id="stop4521" />
    </linearGradient>
    <marker
       style="overflow:visible"
       refY="0.0"
       refX="0.0"
       orient="auto"
       id="DistanceX">
      <path
         id="path5437"
         style="stroke:#000000; stroke-width:0.5"
         d="M 3,-3 L -3,3 M 0,-5 L  0,5" />
    </marker>
    <pattern
       y="0"
       x="0"
       width="8"
       patternUnits="userSpaceOnUse"
       id="Hatch"
       height="8">
      <path
         id="path5440"
         stroke-width="0.25"
         stroke="#000000"
         linecap="square"
         d="M8 4 l-4,4" />
      <path
         id="path5442"
         stroke-width="0.25"
         stroke="#000000"
         linecap="square"
         d="M6 2 l-4,4" />
      <path
         id="path5444"
         stroke-width="0.25"
         stroke="#000000"
         linecap="square"
         d="M4 0 l-4,4" />
    </pattern>
    <symbol
       id="*MODEL_SPACE" />
    <symbol
       id="*PAPER_SPACE" />
    <marker
       style="overflow:visible"
       refY="0.0"
       refX="0.0"
       orient="auto"
       id="DistanceX-0">
      <path
         id="path5775"
         style="stroke:#000000; stroke-width:0.5"
         d="M 3,-3 L -3,3 M 0,-5 L  0,5" />
    </marker>
    <pattern
       y="0"
       x="0"
       width="8"
       patternUnits="userSpaceOnUse"
       id="Hatch-8"
       height="8">
      <path
         id="path5778"
         stroke-width="0.25"
         stroke="#000000"
         linecap="square"
         d="M8 4 l-4,4" />
      <path
         id="path5780"
         stroke-width="0.25"
         stroke="#000000"
         linecap="square"
         d="M6 2 l-4,4" />
      <path
         id="path5782"
         stroke-width="0.25"
         stroke="#000000"
         linecap="square"
         d="M4 0 l-4,4" />
    </pattern>
    <symbol
       id="*MODEL_SPACE-8" />
    <symbol
       id="*PAPER_SPACE-6" />
    <marker
       style="overflow:visible"
       refY="0.0"
       refX="0.0"
       orient="auto"
       id="DistanceX-2">
      <path
         id="path6395"
         style="stroke:#000000; stroke-width:0.5"
         d="M 3,-3 L -3,3 M 0,-5 L  0,5" />
    </marker>
    <pattern
       y="0"
       x="0"
       width="8"
       patternUnits="userSpaceOnUse"
       id="Hatch-1"
       height="8">
      <path
         id="path6398"
         stroke-width="0.25"
         stroke="#000000"
         linecap="square"
         d="M8 4 l-4,4" />
      <path
         id="path6400"
         stroke-width="0.25"
         stroke="#000000"
         linecap="square"
         d="M6 2 l-4,4" />
      <path
         id="path6402"
         stroke-width="0.25"
         stroke="#000000"
         linecap="square"
         d="M4 0 l-4,4" />
    </pattern>
    <marker
       style="overflow:visible"
       refY="0.0"
       refX="0.0"
       orient="auto"
       id="DistanceX-9">
      <path
         id="path6442"
         style="stroke:#000000; stroke-width:0.5"
         d="M 3,-3 L -3,3 M 0,-5 L  0,5" />
    </marker>
    <pattern
       y="0"
       x="0"
       width="8"
       patternUnits="userSpaceOnUse"
       id="Hatch-3"
       height="8">
      <path
         id="path6445"
         stroke-width="0.25"
         stroke="#000000"
         linecap="square"
         d="M8 4 l-4,4" />
      <path
         id="path6447"
         stroke-width="0.25"
         stroke="#000000"
         linecap="square"
         d="M6 2 l-4,4" />
      <path
         id="path6449"
         stroke-width="0.25"
         stroke="#000000"
         linecap="square"
         d="M4 0 l-4,4" />
    </pattern>
    <marker
       style="overflow:visible"
       refY="0.0"
       refX="0.0"
       orient="auto"
       id="DistanceX-5">
      <path
         id="path997"
         style="stroke:#000000; stroke-width:0.5"
         d="M 3,-3 L -3,3 M 0,-5 L  0,5" />
    </marker>
    <pattern
       y="0"
       x="0"
       width="8"
       patternUnits="userSpaceOnUse"
       id="Hatch-89"
       height="8">
      <path
         id="path1000"
         stroke-width="0.25"
         stroke="#000000"
         linecap="square"
         d="M8 4 l-4,4" />
      <path
         id="path1002"
         stroke-width="0.25"
         stroke="#000000"
         linecap="square"
         d="M6 2 l-4,4" />
      <path
         id="path1004"
         stroke-width="0.25"
         stroke="#000000"
         linecap="square"
         d="M4 0 l-4,4" />
    </pattern>
    <symbol
       id="*MODEL_SPACE-4" />
    <symbol
       id="*PAPER_SPACE-8" />
  </defs>
  <sodipodi:namedview
     id="base"
     pagecolor="#ffffff"
     bordercolor="#666666"
     borderopacity="1.0"
     inkscape:pageopacity="0.0"
     inkscape:pageshadow="2"
     inkscape:zoom="0.5"
     inkscape:cx="741.9449"
     inkscape:cy="726.43772"
     inkscape:document-units="mm"
     inkscape:current-layer="layer1"
     showgrid="false"
     inkscape:window-width="1825"
     inkscape:window-height="2128"
     inkscape:window-x="7018"
     inkscape:window-y="153"
     inkscape:window-maximized="0"
     inkscape:pagecheckerboard="false"
     objecttolerance="2" />
  <metadata
     id="metadata5">
    <rdf:RDF>
      <cc:Work
         rdf:about="">
        <dc:format>image/svg+xml</dc:format>
        <dc:type
           rdf:resource="http://purl.org/dc/dcmitype/StillImage" />
        <dc:title>Octagonal Dice Tray V3</dc:title>
        <dc:creator>
          <cc:Agent>
            <dc:title>Patrik Grip-Jansson</dc:title>
          </cc:Agent>
        </dc:creator>
        <dc:rights>
          <cc:Agent>
            <dc:title>(C) 2019 Patrik Grip-Jansson</dc:title>
          </cc:Agent>
        </dc:rights>
        <dc:publisher>
          <cc:Agent>
            <dc:title>Gnulix</dc:title>
          </cc:Agent>
        </dc:publisher>
        <cc:license
           rdf:resource="http://creativecommons.org/licenses/by-nc-sa/4.0/" />
        <dc:date>20191211</dc:date>
      </cc:Work>
      <cc:License
         rdf:about="http://creativecommons.org/licenses/by-nc-sa/4.0/">
        <cc:permits
           rdf:resource="http://creativecommons.org/ns#Reproduction" />
        <cc:permits
           rdf:resource="http://creativecommons.org/ns#Distribution" />
        <cc:requires
           rdf:resource="http://creativecommons.org/ns#Notice" />
        <cc:requires
           rdf:resource="http://creativecommons.org/ns#Attribution" />
        <cc:prohibits
           rdf:resource="http://creativecommons.org/ns#CommercialUse" />
        <cc:permits
           rdf:resource="http://creativecommons.org/ns#DerivativeWorks" />
        <cc:requires
           rdf:resource="http://creativecommons.org/ns#ShareAlike" />
      </cc:License>
    </rdf:RDF>
  </metadata>
  <g
     inkscape:label="Layer 1"
     inkscape:groupmode="layer"
     id="layer1"
     transform="translate(0,3)">
    <g
       inkscape:label="0"
       id="g1011"
       transform="matrix(0.26458333,0,0,0.26458333,89.937869,-492.35261)"
       style="stroke:#ff0000;stroke-width:0.03779528;stroke-miterlimit:4;stroke-dasharray:none;stroke-opacity:1" />
    <path
       id="path1079"
       style="fill:none;stroke:#ff0000;stroke-width:0.01;stroke-miterlimit:4;stroke-dasharray:none;stroke-opacity:1"
       d="m 255.27623,209.24469 -45.9619,45.9619 m -14.04314,-14.04313 a 9.93,9.93 0 1 0 14.04314,14.04313 m -14.04314,-14.04313 45.96194,-45.96193 m 14.0431,14.04316 a 9.93,9.93 0 1 0 -14.0431,-14.04316 M 108.49489,270.0435 h 64.99997 a 9.93,9.93 0 1 0 4e-5,-19.85999 h -65.00001 a 9.93,9.93 0 0 0 0,19.85999 z M 250.25317,108.42523 a 9.9300002,9.9300002 0 1 1 19.86,3e-5 v 64.99998 a 9.9300002,9.9300002 0 0 1 -19.86,0 z M 72.675413,255.20657 a 9.93,9.93 0 1 0 14.04317,-14.04311 m -45.96195,-45.96193 45.96195,45.96193 m -45.96195,-45.96193 a 9.93,9.93 0 0 0 -14.04313,14.04313 m 45.96191,45.96191 -45.96191,-45.96191 M 195.27119,40.686994 a 9.9300066,9.9300066 0 1 1 14.04317,-14.04313 l 45.9619,45.96191 a 9.9300024,9.9300024 0 0 1 -14.04313,14.043158 z m -86.7763,-9.02004 h 65.00001 a 9.93,9.93 0 0 0 0,-19.85999 h -64.99998 a 9.93,9.93 0 1 0 -3e-5,19.85999 z M 11.876601,108.42523 a 9.930001,9.930001 0 0 1 19.860002,0 v 65.00001 a 9.930001,9.930001 0 1 1 -19.860002,-6e-5 z m 60.395782,-43.194556 -6.97207,6.97206 2.12132,2.12132 -7.17006,7.17005 -2.12132,-2.12129 -6.97208,6.972059 2.12133,2.121323 -11.4029,11.40288 v 16.126154 h -3 v 9.85999 h 3 v 10.14002 h -3 v 9.85999 h 3 v 10.14 h -3 v 9.85999 h 3 v 16.12614 l 11.4029,11.4029 -2.12133,2.12133 6.97208,6.97206 2.12132,-2.12132 7.17006,7.17007 -2.12132,2.1213 6.97207,6.97209 2.12132,-2.12133 7.17007,7.17005 -2.12132,2.12133 6.97207,6.97208 2.12132,-2.12132 11.4029,11.40291 H 116.0649 v 2.99998 h 9.86 v -2.99998 h 10.14 v 2.99998 h 9.86 v -2.99998 h 10.14 v 2.99998 h 9.86 v -2.99998 h 16.12613 l 11.40289,-11.40291 2.12132,2.12132 6.97208,-6.97208 -2.12132,-2.12133 7.17006,-7.17005 2.12132,2.12133 6.97207,-6.97209 -2.12132,-2.1213 7.17006,-7.17007 2.12133,2.12132 6.97207,-6.97206 -2.12132,-2.12133 11.4029,-11.4029 v -16.12614 h 2.99999 v -9.85999 h -2.99999 v -10.14 h 2.99999 v -9.85999 h -2.99999 v -10.14002 h 2.99999 v -9.85999 h -2.99999 V 99.869076 l -11.4029,-11.40288 2.12132,-2.121323 -6.97207,-6.972059 -2.12133,2.12129 -7.17006,-7.17005 2.12132,-2.12132 -6.97207,-6.97206 -2.12132,2.1213 -7.17006,-7.17005 2.12132,-2.12133 -6.97208,-6.97206 -2.12132,2.12132 -11.40289,-11.4029 H 165.9249 v -3.00001 h -9.86 v 3.00001 h -10.14 v -3.00001 h -9.86 v 3.00001 h -10.14 v -3.00001 h -9.86 v 3.00001 H 99.938743 l -11.4029,11.4029 -2.12132,-2.12132 -6.97207,6.97206 2.12132,2.12133 -7.17007,7.17005 z m -31.51575,21.418258 45.96195,-45.961938 a 9.930006,9.930006 0 0 0 -14.04314,-14.04315 l -45.96192,45.9619 a 9.9300059,9.9300059 0 1 0 14.04311,14.043188 z m -1.81726,-40.609148 7.17006,-7.17005 2.12132,2.1213 6.97208,-6.97207 -2.12132,-2.12132 7.17006,-7.17005 2.12132,2.12132 6.97207,-6.97208 -2.12132,-2.12133 7.17006,-7.17005 2.12132,2.12133 4.25231,-4.2523106 -2.12132,-2.12132 3.18123,-3.18124 a 5.07,5.07 0 0 1 3.58503,-1.4849501 h 4.49893 v 2.9999801 h 6.01367 V 1.6669633 h 10.140017 v 2.9999801 h 9.86001 V 1.6669633 h 10.14 v 2.9999801 h 9.86 V 1.6669633 h 10.14 v 2.9999801 h 9.86 V 1.6669633 h 10.14 v 2.9999801 h 9.86 V 1.6669633 h 10.14 v 2.9999801 h 6.01366 V 1.6669633 h 4.49894 a 5.07,5.07 0 0 1 3.58503,1.4849501 l 3.18122,3.18124 -2.12132,2.12132 4.25231,4.2523106 2.12132,-2.12133 7.17006,7.17005 -2.12132,2.12133 6.97207,6.97208 2.12132,-2.12132 7.17007,7.17005 -2.12132,2.12132 6.97207,6.97207 2.12132,-2.1213 7.17006,7.17005 -2.12132,2.12132 6.97208,6.97206 2.12132,-2.12132 7.17006,7.17008 -2.12132,2.12132 6.97206,6.97206 2.12132,-2.12132 7.17008,7.17007 -2.12133,2.12133 4.25231,4.2523 2.12132,-2.12132 3.18122,3.18122 a 5.07,5.07 0 0 1 1.48497,3.585047 v 4.498922 h -3 v 6.013662 h 3 v 10.140005 h -3 v 9.86002 h 3 v 10.13999 h -3 v 9.85999 h 3 v 10.14 h -3 v 9.86002 h 3 v 10.13999 h -3 v 9.85999 h 3 v 10.14 h -3 v 6.01369 h 3 v 4.49892 a 5.07,5.07 0 0 1 -1.48497,3.58502 l -3.18122,3.18122 -2.12132,-2.1213 -4.25231,4.25231 2.12133,2.12132 -7.17008,7.17005 -2.12132,-2.12132 -6.97206,6.97209 2.12132,2.12129 -7.17006,7.17008 -2.12132,-2.12132 -6.97208,6.97208 2.12132,2.1213 -7.17006,7.17008 -2.12132,-2.12133 -6.97207,6.97207 2.12132,2.12132 -7.17007,7.17007 -2.12132,-2.12132 -6.97207,6.97206 2.12132,2.12133 -7.17006,7.17007 -2.12132,-2.12132 -4.25231,4.2523 2.12132,2.12133 -3.18122,3.18121 a 5.07,5.07 0 0 1 -3.58503,1.48498 h -4.49894 v -3.00001 h -6.01366 v 3.00001 h -10.14 v -3.00001 h -9.86 v 3.00001 h -10.14 v -3.00001 h -9.86 v 3.00001 h -10.14 v -3.00001 h -9.86 v 3.00001 h -10.14 v -3.00001 h -9.86001 v 3.00001 H 95.924873 v -3.00001 h -6.01367 v 3.00001 h -4.49893 a 5.07,5.07 0 0 1 -3.58503,-1.48498 l -3.18123,-3.18121 2.12132,-2.12133 -4.25231,-4.2523 -2.12132,2.12132 -7.17006,-7.17007 2.12132,-2.12133 -6.97207,-6.97206 -2.12132,2.12132 -7.17006,-7.17007 2.12132,-2.12132 -6.97208,-6.97207 -2.12132,2.12133 -7.17006,-7.17008 2.12132,-2.1213 -6.97207,-6.97208 -2.12132,2.12132 -7.17007,-7.17008 2.12133,-2.12129 -6.97208,-6.97209 -2.121321,2.12132 -7.170061,-7.17005 2.121321,-2.12132 -4.2523118,-4.25231 -2.1213199,2.1213 -3.1812201,-3.18122 a 5.07,5.07 0 0 1 -1.4849701,-3.58502 v -4.49892 h 3.0000002 v -6.01369 H 1.7366001 v -10.14 h 3.0000002 v -9.85999 H 1.7366001 v -10.13999 h 3.0000002 v -9.86002 H 1.7366001 v -10.14 h 3.0000002 v -9.85999 H 1.7366001 v -10.13999 h 3.0000002 v -9.86002 H 1.7366001 V 95.855215 H 4.7366003 V 89.841553 H 1.7366001 v -4.498922 a 5.07,5.07 0 0 1 1.4849701,-3.585047 l 3.1812201,-3.18122 2.1213199,2.12132 4.2523118,-4.2523 -2.121321,-2.12133 7.170061,-7.17007 2.121321,2.12132 6.97208,-6.97206 -2.12133,-2.12132 7.17007,-7.17008 2.12132,2.12132 6.97207,-6.97206 z"
       inkscape:connector-curvature="0" />
    <path
       id="path1047"
       style="fill:none;stroke:#ff0000;stroke-width:0.01;stroke-miterlimit:4;stroke-dasharray:none;stroke-opacity:1"
       d="m 196.03621,192.48135 v 4.99999 h -6.14 v -4.99999 h -3 v -6.29367 h 3 v -9.86 h -3 v -10.14 h 3 v -9.86 h -3 v -10.14 h 3 v -9.86 h -3 v -10.14 h 3 v -9.86 h -3 v -10.14 h 3 v -9.859979 h -3 v -6.293664 h 3 v -5 h 6.14 v 5 h 3.00001 v 6.293664 h -3.00001 v 9.859979 h 3.00001 v 10.14 h -3.00001 v 9.86 h 3.00001 v 10.14 h -3.00001 v 9.86 h 3.00001 v 10.14 h -3.00001 v 9.86 h 3.00001 v 10.14 h -3.00001 v 9.86 h 3.00001 v 6.29367 z"
       inkscape:connector-curvature="0" />
    <path
       id="path1127"
       style="fill:none;stroke:#ff0000;stroke-width:0.01;stroke-miterlimit:4;stroke-dasharray:none;stroke-opacity:1"
       d="m 448.27632,240.01449 h -9.86 v 2.86001 h 9.86 z m 36.62242,-16.39364 -2.02233,-2.02231 -6.97207,6.97206 2.02232,2.02231 z m -56.62242,16.39364 h -9.86 v 2.86001 h 9.86 z m -20,0 h -9.86 v 2.86001 h 9.86 z m 90.76455,-30.53578 -2.02232,-2.02231 -6.97207,6.97206 2.02232,2.02232 z m 14.14214,-14.14213 -2.02233,-2.02232 -6.97207,6.97206 2.02233,2.02234 z m -142.39471,33.23402 -6.97208,-6.97206 -2.02232,2.02231 6.97207,6.97206 z m 154.67628,-72.74436 h -2.86 v 9.85999 h 2.86 z m -168.81842,58.60222 -6.97207,-6.97206 -2.02233,2.02231 6.97207,6.97207 z m 168.81842,-78.60223 h -2.86 v 9.86001 h 2.86 z m -182.96056,64.46009 -6.97207,-6.97206 -2.02232,2.02232 6.97207,6.97208 z m 182.96056,-84.46008 h -2.86 v 9.85999 h 2.86 z m -201.37654,40 h -2.86 v 9.85999 h 2.86 z m 189.09497,-69.650376 -6.97207,-6.97206 -2.02233,2.02231 6.97207,6.97209 z M 324.08804,135.82623 h -2.86 v 9.86001 h 2.86 z m 174.95283,-63.792476 -6.97207,-6.97209 -2.02232,2.02234 6.97207,6.97207 z M 324.08804,115.82624 h -2.86 v 9.85999 h 2.86 z m 160.8107,-57.934626 -6.97208,-6.97209 -2.02232,2.02235 6.97207,6.97206 z m -142.39472,23.3345 -2.02232,-2.02231 -6.97207,6.97206 2.02232,2.02234 z m 105.7723,-42.58815 h -9.86 v 2.85999 h 9.86 z m -91.63016,28.44604 -2.02233,-2.02234 -6.97207,6.97209 2.02233,2.02232 z m 71.63016,-28.44604 h -9.86 v 2.85999 h 9.86 z m -57.48802,14.30391 -2.02233,-2.02235 -6.97207,6.97209 2.02232,2.02232 z m 37.48802,-14.30391 h -9.86 v 2.85999 h 9.86 z M 364.17869,2.9829231 a 5.07,5.07 0 0 1 3.58503,-1.4849702 h 4.49893 v 3.0000002 h 6.01367 V 1.4979529 h 10.14 v 3.0000002 h 9.86 V 1.4979529 h 10.14 v 3.0000002 h 9.86 V 1.4979529 h 10.14 v 3.0000002 h 9.86 V 1.4979529 h 10.14 v 3.0000002 h 9.86 V 1.4979529 h 10.14 v 3.0000002 h 6.01367 V 1.4979529 h 4.49893 a 5.07,5.07 0 0 1 3.58503,1.4849702 l 3.18122,3.18122 -2.12132,2.1213197 4.25231,4.2523112 2.12132,-2.121321 7.17006,7.170071 -2.12132,2.12132 6.97208,6.97207 2.12132,-2.12133 7.17006,7.17008 -2.12132,2.12132 6.97207,6.97206 2.12132,-2.12132 7.17006,7.17008 -2.12132,2.12132 6.97208,6.97206 2.12132,-2.12132 7.17006,7.17007 -2.12132,2.1213 6.97207,6.97209 2.12133,-2.12132 7.17005,7.17005 -2.12133,2.12132 4.25231,4.2523 2.12132,-2.12129 3.18124,3.18121 a 5.07,5.07 0 0 1 1.48495,3.58503 v 4.49892 h -2.99998 v 6.013687 h 2.99998 v 10.140009 h -2.99998 v 9.85998 h 2.99998 v 10.14 h -2.99998 v 9.86002 h 2.99998 v 10.13999 h -2.99998 v 9.85999 h 2.99998 v 10.14 h -2.99998 v 9.86002 h 2.99998 v 10.13999 h -2.99998 v 6.01367 h 2.99998 v 4.49894 a 5.07,5.07 0 0 1 -1.48495,3.58503 l -3.18124,3.18122 -2.12132,-2.12133 -4.25231,4.25231 2.12133,2.12132 -7.17005,7.17008 -2.12133,-2.12133 -6.97207,6.97206 2.12132,2.12133 -7.17006,7.17007 -2.12132,-2.12132 -6.97208,6.97206 2.12132,2.12133 -7.17006,7.17005 -2.12132,-2.1213 -6.97207,6.97206 2.12132,2.12132 -7.17006,7.17005 -2.12132,-2.12132 -6.97208,6.97209 2.12132,2.12132 -7.17006,7.17005 -2.12132,-2.12132 -4.25231,4.2523 2.12132,2.12132 -3.18122,3.18125 a 5.07,5.07 0 0 1 -3.58503,1.48495 h -4.49893 v -2.99998 h -6.01367 v 2.99998 h -10.14 v -2.99998 h -9.86 v 2.99998 h -10.14 v -2.99998 h -9.86 v 2.99998 h -10.14 v -2.99998 h -9.86 v 2.99998 h -10.14 v -2.99998 h -9.86 v 2.99998 h -10.14 v -2.99998 h -6.01367 v 2.99998 h -4.49893 a 5.07,5.07 0 0 1 -3.58503,-1.48495 l -3.18123,-3.18125 2.12132,-2.12132 -4.2523,-4.2523 -2.12133,2.12132 -7.17006,-7.17005 2.12132,-2.12132 -6.97207,-6.97209 -2.12132,2.12132 -7.17006,-7.17005 2.12132,-2.12132 -6.97209,-6.97206 -2.12132,2.1213 -7.17006,-7.17005 2.12132,-2.12133 -6.97207,-6.97206 -2.12133,2.12132 -7.17006,-7.17007 2.12131,-2.12133 -6.97207,-6.97206 -2.12132,2.12133 -7.17007,-7.17008 2.12132,-2.12132 -4.25231,-4.25231 -2.12132,2.12133 -3.18122,-3.18122 a 5.07,5.07 0 0 1 -1.48497,-3.58503 v -4.49894 h 3 v -6.01367 h -3 v -10.13999 h 3 v -9.86002 h -3 v -10.14 h 3 v -9.85999 h -3 v -10.13999 h 3 v -9.86002 h -3 v -10.14 h 3 v -9.85998 h -3 V 95.686231 h 3 v -6.013687 h -3 v -4.49892 a 5.07,5.07 0 0 1 1.48497,-3.58503 l 3.18122,-3.18121 2.12132,2.12129 4.25231,-4.2523 -2.12132,-2.12132 7.17007,-7.17005 2.12132,2.12132 6.97207,-6.97209 -2.12131,-2.1213 7.17006,-7.17007 2.12133,2.12132 6.97207,-6.97206 -2.12132,-2.12132 7.17006,-7.17008 2.12132,2.12132 6.97209,-6.97206 -2.12132,-2.12132 7.17006,-7.17008 2.12132,2.12133 6.97207,-6.97207 -2.12132,-2.12132 7.17006,-7.170071 2.12133,2.121321 4.2523,-4.2523112 -2.12132,-2.1213197 z"
       inkscape:connector-curvature="0" />
    <path
       id="path1131"
       style="fill:none;stroke:#ff0000;stroke-width:0.01;stroke-miterlimit:4;stroke-dasharray:none;stroke-opacity:1"
       d="m 567.70613,278.85689 h -9.86 v 2.86001 h 9.86 z m -20,0 h -9.86 v 2.86001 h 9.86 z M 511.621,259.20367 a 3.0700001,3.0700001 0 0 1 3.07,-3.07002 h 76.17025 a 3.0700001,3.0700001 0 0 1 3.07,3.07002 v 19.65322 h -16.08512 v 2.86001 h 16.08512 v 6.14 h -16.08512 v 2.99998 h -10.14 v -2.99998 h -9.86 v 2.99998 h -10.14 v -2.99998 h -9.86 v 2.99998 h -10.14 V 287.8569 H 511.621 v -6.14 h 16.08513 v -2.86001 H 511.621 Z"
       inkscape:connector-curvature="0" />
    <path
       inkscape:connector-curvature="0"
       d="m 298.11954,263.55466 h -9.86 v 2.86001 h 9.86 z m -20,0 h -9.86 v 2.86001 h 9.86 z m -36.08513,-19.65322 a 3.0700001,3.0700001 0 0 1 3.07,-3.07002 h 76.17025 a 3.0700001,3.0700001 0 0 1 3.07,3.07002 v 19.65322 h -16.08512 v 2.86001 h 16.08512 v 6.14 h -16.08512 v 2.99998 h -10.14 v -2.99998 h -9.86 v 2.99998 h -10.14 v -2.99998 h -9.86 v 2.99998 h -10.14 v -2.99998 h -16.08513 v -6.14 h 16.08513 v -2.86001 h -16.08513 z"
       style="fill:none;stroke:#ff0000;stroke-width:0.01;stroke-miterlimit:4;stroke-dasharray:none;stroke-opacity:1"
       id="path1437" />
    <path
       id="path1439"
       style="fill:none;stroke:#ff0000;stroke-width:0.01;stroke-miterlimit:4;stroke-dasharray:none;stroke-opacity:1"
       d="m 156.56748,151.10673 h -9.86 v 2.86001 h 9.86 z m -20,0 h -9.86 v 2.86001 h 9.86 z m -36.08515,-19.65322 a 3.0700001,3.0700001 0 0 1 3.07002,-3.07002 h 76.17025 a 3.0700001,3.0700001 0 0 1 3.07,3.07002 v 19.65322 h -16.08512 v 2.86001 h 16.08512 v 6.14 h -16.08512 v 2.99998 h -10.14 v -2.99998 h -9.86 v 2.99998 h -10.14 v -2.99998 h -9.86 v 2.99998 h -10.14 v -2.99998 h -16.08515 v -6.14 h 16.08515 v -2.86001 h -16.08515 z"
       inkscape:connector-curvature="0" />
    <path
       inkscape:connector-curvature="0"
       d="m 156.56746,224.92549 h -9.86 v 2.86001 h 9.86 z m -20,0 h -9.86 v 2.86001 h 9.86 z m -36.08513,-19.65322 a 3.0700001,3.0700001 0 0 1 3.07,-3.07002 h 76.17025 a 3.0700001,3.0700001 0 0 1 3.07,3.07002 v 19.65322 h -16.08512 v 2.86001 h 16.08512 v 6.14 h -16.08512 v 2.99998 h -10.14 v -2.99998 h -9.86 v 2.99998 h -10.14 v -2.99998 h -9.86 v 2.99998 h -10.14 v -2.99998 h -16.08513 v -6.14 h 16.08513 v -2.86001 h -16.08513 z"
       style="fill:none;stroke:#ff0000;stroke-width:0.01;stroke-miterlimit:4;stroke-dasharray:none;stroke-opacity:1"
       id="path1441" />
    <path
       inkscape:connector-curvature="0"
       d="m 156.56747,188.14838 h -9.86 v 2.86001 h 9.86 z m -20,0 h -9.86 v 2.86001 h 9.86 z m -36.08514,-19.65322 a 3.0700001,3.0700001 0 0 1 3.07,-3.07002 h 76.17026 a 3.0700001,3.0700001 0 0 1 3.07,3.07002 v 19.65322 h -16.08512 v 2.86001 h 16.08512 v 6.14 h -16.08512 v 2.99998 h -10.14 v -2.99998 h -9.86 v 2.99998 h -10.14 v -2.99998 h -9.86 v 2.99998 h -10.14001 v -2.99998 h -16.08513 v -6.14 h 16.08513 v -2.86001 h -16.08513 z"
       style="fill:none;stroke:#ff0000;stroke-width:0.01;stroke-miterlimit:4;stroke-dasharray:none;stroke-opacity:1"
       id="path1445" />
    <path
       id="path1447"
       style="fill:none;stroke:#ff0000;stroke-width:0.01;stroke-miterlimit:4;stroke-dasharray:none;stroke-opacity:1"
       d="m 155.77371,78.08174 h -9.86 v 2.86001 h 9.86 z m -20,0 h -9.86 v 2.86001 h 9.86 z M 99.688576,58.42852 a 3.0700001,3.0700001 0 0 1 3.070004,-3.07002 h 76.17025 a 3.0700001,3.0700001 0 0 1 3.07,3.07002 v 19.65322 h -16.08512 v 2.86001 h 16.08512 v 6.14 h -16.08512 v 2.99998 h -10.14 v -2.99998 h -9.86 v 2.99998 h -10.14 v -2.99998 h -9.86 v 2.99998 h -10.14 V 87.08175 H 99.688576 v -6.14 H 115.77371 V 78.08174 H 99.688576 Z"
       inkscape:connector-curvature="0" />
    <path
       inkscape:connector-curvature="0"
       d="m 266.14286,17.352239 h 9.86 v -2.86001 h -9.86 z m 20,0 h 9.86 v -2.86001 h -9.86 z m 36.08513,19.65322 a 3.0700001,3.0700001 0 0 1 -3.07,3.07002 h -76.17025 a 3.0700001,3.0700001 0 0 1 -3.07,-3.07002 v -19.65322 h 16.08512 v -2.86001 H 239.91774 V 8.3522302 h 16.08512 V 5.3522499 h 10.14 v 2.9999803 h 9.86 V 5.3522499 h 10.14 v 2.9999803 h 9.86 V 5.3522499 h 10.14 v 2.9999803 h 16.08513 v 6.1399988 h -16.08513 v 2.86001 h 16.08513 z"
       style="fill:none;stroke:#ff0000;stroke-width:0.01;stroke-miterlimit:4;stroke-dasharray:none;stroke-opacity:1"
       id="path1449" />
    <path
       id="path1451"
       style="fill:none;stroke:#ff0000;stroke-width:0.01;stroke-miterlimit:4;stroke-dasharray:none;stroke-opacity:1"
       d="m 156.30288,114.59421 h -9.86 v 2.86001 h 9.86 z m -20,0 h -9.86 v 2.86001 h 9.86 z M 100.21775,94.941014 a 3.0700001,3.0700001 0 0 1 3.07,-3.07002 H 179.458 a 3.0700001,3.0700001 0 0 1 3.07,3.07002 v 19.653196 h -16.08512 v 2.86001 H 182.528 v 6.14 h -16.08512 v 2.99998 h -10.14 v -2.99998 h -9.86 v 2.99998 h -10.14 v -2.99998 h -9.86 v 2.99998 h -10.14 v -2.99998 h -16.08513 v -6.14 h 16.08513 v -2.86001 h -16.08513 z"
       inkscape:connector-curvature="0" />
    <path
       inkscape:connector-curvature="0"
       d="m 211.11744,192.48135 v 4.99999 h -6.14 v -4.99999 h -3 v -6.29367 h 3 v -9.86 h -3 v -10.14 h 3 v -9.86 h -3 v -10.14 h 3 v -9.86 h -3 v -10.14 h 3 v -9.86 h -3 v -10.14 h 3 v -9.859979 h -3 v -6.293664 h 3 v -5 h 6.14 v 5 h 3.00001 v 6.293664 h -3.00001 v 9.859979 h 3.00001 v 10.14 h -3.00001 v 9.86 h 3.00001 v 10.14 h -3.00001 v 9.86 h 3.00001 v 10.14 h -3.00001 v 9.86 h 3.00001 v 10.14 h -3.00001 v 9.86 h 3.00001 v 6.29367 z"
       style="fill:none;stroke:#ff0000;stroke-width:0.01;stroke-miterlimit:4;stroke-dasharray:none;stroke-opacity:1"
       id="path1453" />
    <path
       id="path1455"
       style="fill:none;stroke:#ff0000;stroke-width:0.01;stroke-miterlimit:4;stroke-dasharray:none;stroke-opacity:1"
       d="m 225.40494,192.48136 v 4.99999 h -6.14 v -4.99999 h -3 v -6.29367 h 3 v -9.86 h -3 v -10.14 h 3 v -9.86 h -3 v -10.14 h 3 v -9.86 h -3 v -10.14 h 3 v -9.86 h -3 v -10.14 h 3 v -9.859988 h -3 v -6.293664 h 3 v -5 h 6.14 v 5 h 3.00001 v 6.293664 h -3.00001 v 9.859988 h 3.00001 v 10.14 h -3.00001 v 9.86 h 3.00001 v 10.14 h -3.00001 v 9.86 h 3.00001 v 10.14 h -3.00001 v 9.86 h 3.00001 v 10.14 h -3.00001 v 9.86 h 3.00001 v 6.29367 z"
       inkscape:connector-curvature="0" />
    <path
       inkscape:connector-curvature="0"
       d="m 63.47996,192.48135 v 4.99999 h -6.14 v -4.99999 h -3 v -6.29367 h 3 v -9.86 h -3 v -10.14 h 3 v -9.86 h -3 v -10.14 h 3 v -9.86 h -3 v -10.14 h 3 v -9.86 h -3 v -10.14 h 3 v -9.859979 h -3 v -6.293664 h 3 v -5 h 6.14 v 5 h 3.00001 v 6.293664 h -3.00001 v 9.859979 h 3.00001 v 10.14 h -3.00001 v 9.86 h 3.00001 v 10.14 h -3.00001 v 9.86 h 3.00001 v 10.14 h -3.00001 v 9.86 h 3.00001 v 10.14 h -3.00001 v 9.86 h 3.00001 v 6.29367 z"
       style="fill:none;stroke:#ff0000;stroke-width:0.01;stroke-miterlimit:4;stroke-dasharray:none;stroke-opacity:1"
       id="path1457" />
    <path
       id="path1459"
       style="fill:none;stroke:#ff0000;stroke-width:0.01;stroke-miterlimit:4;stroke-dasharray:none;stroke-opacity:1"
       d="m 78.56119,192.48135 v 4.99999 h -6.14 v -4.99999 h -3 v -6.29367 h 3 v -9.86 h -3 v -10.14 h 3 v -9.86 h -3 v -10.14 h 3 v -9.86 h -3 v -10.14 h 3 v -9.86 h -3 v -10.14 h 3 v -9.859979 h -3 v -6.293664 h 3 v -5 h 6.14 v 5 h 3.00001 v 6.293664 h -3.00001 v 9.859979 h 3.00001 v 10.14 h -3.00001 v 9.86 h 3.00001 v 10.14 h -3.00001 v 9.86 h 3.00001 v 10.14 h -3.00001 v 9.86 h 3.00001 v 10.14 h -3.00001 v 9.86 h 3.00001 v 6.29367 z"
       inkscape:connector-curvature="0" />
    <path
       inkscape:connector-curvature="0"
       d="m 92.84869,192.48136 v 4.99999 h -6.14 v -4.99999 h -3 v -6.29367 h 3 v -9.86 h -3 v -10.14 h 3 v -9.86 h -3 v -10.14 h 3 v -9.86 h -3 v -10.14 h 3 v -9.86 h -3 v -10.14 h 3 v -9.859988 h -3 v -6.293664 h 3 v -5 h 6.14 v 5 h 3.00001 v 6.293664 h -3.00001 v 9.859988 h 3.00001 v 10.14 h -3.00001 v 9.86 h 3.00001 v 10.14 h -3.00001 v 9.86 h 3.00001 v 10.14 h -3.00001 v 9.86 h 3.00001 v 10.14 h -3.00001 v 9.86 h 3.00001 v 6.29367 z"
       style="fill:none;stroke:#ff0000;stroke-width:0.01;stroke-miterlimit:4;stroke-dasharray:none;stroke-opacity:1"
       id="path1461" />
    <path
       id="path1463"
       style="fill:none;stroke:#ff0000;stroke-width:0.01;stroke-miterlimit:4;stroke-dasharray:none;stroke-opacity:1"
       d="m 576.24243,192.48135 v 4.99999 h -6.14 v -4.99999 h -3 v -6.29367 h 3 v -9.86 h -3 v -10.14 h 3 v -9.86 h -3 v -10.14 h 3 v -9.86 h -3 v -10.14 h 3 v -9.86 h -3 v -10.14 h 3 v -9.859979 h -3 v -6.293664 h 3 v -5 h 6.14 v 5 h 3.00001 v 6.293664 h -3.00001 v 9.859979 h 3.00001 v 10.14 h -3.00001 v 9.86 h 3.00001 v 10.14 h -3.00001 v 9.86 h 3.00001 v 10.14 h -3.00001 v 9.86 h 3.00001 v 10.14 h -3.00001 v 9.86 h 3.00001 v 6.29367 z"
       inkscape:connector-curvature="0" />
    <path
       inkscape:connector-curvature="0"
       d="m 590.52993,192.48136 v 4.99999 h -6.14 v -4.99999 h -3 v -6.29367 h 3 v -9.86 h -3 v -10.14 h 3 v -9.86 h -3 v -10.14 h 3 v -9.86 h -3 v -10.14 h 3 v -9.86 h -3 v -10.14 h 3 v -9.859988 h -3 v -6.293664 h 3 v -5 h 6.14 v 5 h 3.00001 v 6.293664 h -3.00001 v 9.859988 h 3.00001 v 10.14 h -3.00001 v 9.86 h 3.00001 v 10.14 h -3.00001 v 9.86 h 3.00001 v 10.14 h -3.00001 v 9.86 h 3.00001 v 10.14 h -3.00001 v 9.86 h 3.00001 v 6.29367 z"
       style="fill:none;stroke:#ff0000;stroke-width:0.01;stroke-miterlimit:4;stroke-dasharray:none;stroke-opacity:1"
       id="path1465" />
  </g>
</svg>
