<?xml version="1.0" encoding="UTF-8" standalone="no"?>
<!-- Created with Inkscape (http://www.inkscape.org/) -->

<svg
   xmlns:dc="http://purl.org/dc/elements/1.1/"
   xmlns:cc="http://creativecommons.org/ns#"
   xmlns:rdf="http://www.w3.org/1999/02/22-rdf-syntax-ns#"
   xmlns:svg="http://www.w3.org/2000/svg"
   xmlns="http://www.w3.org/2000/svg"
   xmlns:sodipodi="http://sodipodi.sourceforge.net/DTD/sodipodi-0.dtd"
   xmlns:inkscape="http://www.inkscape.org/namespaces/inkscape"
   width="1000mm"
   height="600mm"
   viewBox="0 0 3543.3071 2125.9842"
   id="svg2"
   version="1.1"
   inkscape:version="0.91 r13725"
   sodipodi:docname="ballotbox_v4big-cut.svg">
  <defs
     id="defs4" />
  <sodipodi:namedview
     id="base"
     pagecolor="#ffffff"
     bordercolor="#666666"
     borderopacity="1.0"
     inkscape:pageopacity="0.0"
     inkscape:pageshadow="2"
     inkscape:zoom="0.49497475"
     inkscape:cx="2978.9722"
     inkscape:cy="2198.3595"
     inkscape:document-units="mm"
     inkscape:current-layer="layer1"
     showgrid="true"
     units="mm"
     inkscape:window-width="1440"
     inkscape:window-height="851"
     inkscape:window-x="0"
     inkscape:window-y="1"
     inkscape:window-maximized="1"
     inkscape:snap-bbox="true"
     inkscape:bbox-paths="true"
     inkscape:bbox-nodes="true"
     inkscape:snap-bbox-edge-midpoints="true"
     inkscape:snap-bbox-midpoints="true"
     inkscape:object-paths="true"
     inkscape:snap-intersection-paths="true"
     inkscape:object-nodes="true"
     inkscape:snap-smooth-nodes="true"
     inkscape:snap-midpoints="true"
     showguides="false">
    <inkscape:grid
       type="xygrid"
       id="grid4138"
       units="mm"
       spacingx="3.5433073"
       spacingy="3.5433072" />
  </sodipodi:namedview>
  <metadata
     id="metadata7">
    <rdf:RDF>
      <cc:Work
         rdf:about="">
        <dc:format>image/svg+xml</dc:format>
        <dc:type
           rdf:resource="http://purl.org/dc/dcmitype/StillImage" />
        <dc:title></dc:title>
      </cc:Work>
    </rdf:RDF>
  </metadata>
  <g
     inkscape:label="Layer 1"
     inkscape:groupmode="layer"
     id="layer1"
     transform="translate(0,1073.622)">
    <path
       style="fill:none;fill-opacity:0.19607843;stroke:#000000;stroke-width:0.99921262;stroke-miterlimit:9.66666698;stroke-dasharray:none;stroke-opacity:1;opacity:0.97"
       d="m 770.6677,733.46376 a 62.007858,62.007858 0 0 0 62.00781,-62.0079 62.007858,62.007858 0 0 0 -0.3106,-6.1914 106.29921,106.29921 0 0 0 -105.98823,-100.1074 l 0,-1621.06256 -708.660143,0 0,1736.22076 a 17.716537,17.716536 0 0 0 17.71483,17.7168 l 389.763663,0 a 17.716536,17.716537 0 0 0 17.7168,-17.7148 l 0,0 -53.14843,0 0,-17.7168 53.14843,0 17.71679,0 35.4336,0 0,17.7168 0.31445,0 a 221.45671,221.4567 0 0 0 8.81836,53.1485 l 123.7422,0 97.43945,0 44.29102,0 z"
       id="path5911" />
    <path
       style="fill:none;fill-opacity:0.19607843;stroke:#ff0000;stroke-width:0.99921262;stroke-miterlimit:9.66666698;stroke-dasharray:none;stroke-opacity:1;opacity:0.97"
       d="m 770.6677,715.74886 a 44.29134,44.29134 0 0 1 -0.0391,0 l -53.05469,0 a 44.29134,44.29134 0 0 1 -0.0547,0 44.29134,44.29134 0 0 1 -44.29102,-44.293 44.29134,44.29134 0 0 1 44.29102,-44.291 l 53.14844,0 a 44.29134,44.29134 0 0 1 44.29296,44.291 44.29134,44.29134 0 0 1 -44.29296,44.293 z"
       id="path5909" />
    <path
       style="fill:none;fill-opacity:0.19607843;stroke:#ff0000;stroke-width:0.99921262;stroke-miterlimit:9.66666698;stroke-dasharray:none;stroke-opacity:1;opacity:0.97"
       d="m 708.65988,538.58286 -17.71484,0 0,-106.2988 17.71484,0 0,106.2988 z"
       id="path5907" />
    <path
       style="fill:none;fill-opacity:0.19607843;stroke:#ff0000;stroke-width:0.99921262;stroke-miterlimit:9.66666698;stroke-dasharray:none;stroke-opacity:1;opacity:0.97"
       d="m 53.148157,538.58286 -17.71679,0 0,-106.2988 17.71679,0 0,106.2988 z"
       id="path5905" />
    <path
       style="fill:none;fill-opacity:0.19607843;stroke:#ff0000;stroke-width:0.99921262;stroke-miterlimit:9.66666698;stroke-dasharray:none;stroke-opacity:1;opacity:0.97"
       d="m 708.65988,113.38558 -17.71484,0 0,-106.2988005 17.71484,0 0,106.2988005 z"
       id="path5903" />
    <path
       style="fill:none;fill-opacity:0.19607843;stroke:#ff0000;stroke-width:0.99921262;stroke-miterlimit:9.66666698;stroke-dasharray:none;stroke-opacity:1;opacity:0.97"
       d="m 53.148157,113.38558 -17.71679,0 0,-106.2988005 17.71679,0 0,106.2988005 z"
       id="path5901" />
    <path
       style="fill:none;fill-opacity:0.19607843;stroke:#ff0000;stroke-width:0.99921262;stroke-miterlimit:9.66666698;stroke-dasharray:none;stroke-opacity:1;opacity:0.97"
       d="m 708.65988,-311.81162 -17.71484,0 0,-106.2989 17.71484,0 0,106.2989 z"
       id="path5899" />
    <path
       style="fill:none;fill-opacity:0.19607843;stroke:#ff0000;stroke-width:0.99921262;stroke-miterlimit:9.66666698;stroke-dasharray:none;stroke-opacity:1;opacity:0.97"
       d="m 53.148157,-311.81162 -17.71679,0 0,-106.2989 17.71679,0 0,106.2989 z"
       id="path5897" />
    <path
       style="fill:none;fill-opacity:0.19607843;stroke:#ff0000;stroke-width:0.99921262;stroke-miterlimit:9.66666698;stroke-dasharray:none;stroke-opacity:1;opacity:0.97"
       d="m 708.65988,-737.00893 -17.71484,0 0,-106.2988 17.71484,0 0,106.2988 z"
       id="path5895" />
    <path
       style="fill:none;fill-opacity:0.19607843;stroke:#ff0000;stroke-width:0.99921262;stroke-miterlimit:9.66666698;stroke-dasharray:none;stroke-opacity:1;opacity:0.97"
       d="m 53.148157,-737.00893 -17.71679,0 0,-106.2988 17.71679,0 0,106.2988 z"
       id="path5893" />
    <path
       style="fill:none;fill-opacity:0.19607843;stroke:#ff0000;stroke-width:0.99921262;stroke-miterlimit:9.66666698;stroke-dasharray:none;stroke-opacity:1;opacity:0.97"
       d="m 708.65988,-1020.4719 -673.228513,0 0,-17.7168 673.228513,0 0,17.7168 z"
       id="path5243" />
    <path
       style="fill:none;fill-opacity:0.19607843;stroke:#000000;stroke-width:0.99921262;stroke-miterlimit:9.66666698;stroke-dasharray:none;stroke-opacity:1;opacity:0.97"
       d="m 788.38432,396.84912 a 44.29134,44.29134 0 0 0 -44.2911,44.293 44.29134,44.29134 0 0 0 44.2911,44.291 44.29134,44.29134 0 0 0 44.2929,-44.291 44.29134,44.29134 0 0 0 -44.2929,-44.293 z"
       id="path5889" />
    <path
       style="fill:none;fill-opacity:0.19607843;stroke:#ff0000;stroke-width:0.99921262;stroke-miterlimit:9.66666698;stroke-dasharray:none;stroke-opacity:1;opacity:0.97"
       d="m 779.52682,414.56592 17.7168,0 0,17.7168 17.7168,0 0,17.7168 -17.7168,0 0,17.7168 -17.7168,0 0,-17.7168 -17.7168,0 0,-17.7168 17.7168,0 0,-17.7168 z"
       id="path6081-4" />
    <path
       style="fill:none;fill-opacity:0.19607843;stroke:#000000;stroke-width:0.99921262;stroke-miterlimit:9.66666698;stroke-dasharray:none;stroke-opacity:1;opacity:0.97"
       d="m 2887.7955,-258.66137 0,17.7168 -11.8105,0 c -13.0866,0 -23.6211,10.5364 -23.6211,23.623 l 0,625.98247 c 0,13.0866 10.5345,23.623 23.6211,23.623 l 11.8105,0 0,17.7168 496.0625,0 0,-17.7168 11.8125,0 c 13.0866,0 23.6211,-10.5364 23.6211,-23.623 l 0,-625.98247 c 0,-13.0866 -10.5345,-23.623 -23.6211,-23.623 l -11.8125,0 0,-17.7168 -496.0625,0 z"
       id="path5885" />
    <path
       style="fill:none;fill-opacity:0.19607843;stroke:#ff0000;stroke-width:0.99921262;stroke-miterlimit:9.66666698;stroke-dasharray:none;stroke-opacity:1;opacity:0.97"
       d="m 2923.2291,-240.94457 425.1973,0 0,17.7168 -425.1973,0 0,-17.7168 z"
       id="path5883" />
    <path
       style="fill:none;fill-opacity:0.19607843;stroke:#ff0000;stroke-width:0.99921262;stroke-miterlimit:9.66666698;stroke-dasharray:none;stroke-opacity:1;opacity:0.97"
       d="m 2923.2291,414.5671 425.1973,0 0,17.7168 -425.1973,0 0,-17.7168 z"
       id="rect4234" />
    <path
       style="fill:none;fill-opacity:0.19607843;stroke:#000000;stroke-width:0.99921262;stroke-miterlimit:9.66666698;stroke-dasharray:none;stroke-opacity:1;opacity:0.97"
       d="m 2816.9291,-701.57598 a 17.716536,17.716537 0 0 1 17.7168,-17.7148 l 17.7168,0 0,-248.0332 -17.7168,0 0,-17.7148 17.7168,0 283.4649,0 0,-17.71682 -283.4649,0 -17.7168,0 0,-17.7168 17.7168,0 0,-17.7168 566.9277,0 0,17.7168 17.7168,0 0,53.14842 -17.7168,0 0,248.0332 17.7168,0 a 17.716536,17.716537 0 0 1 17.7168,17.7148 l 0,35.4336 0,35.43559 a 17.716536,17.716537 0 0 1 -17.7168,17.7148 l 0,-53.15039 -17.7168,0 0,336.61525 -248.0312,0 0,31.8886 a 35.433071,21.259842 0 0 1 -35.4336,21.2598 35.433071,21.259842 0 0 1 -35.4316,-21.2598 l 0,-31.8886 -248.0313,0 0,-336.61525 -17.7168,0 0,53.15039 a 17.716536,17.716537 0 0 1 -17.7168,-17.7148 l 0,-35.43559 0,-17.7168 0,-17.7168 z"
       id="path5879" />
    <path
       style="fill:none;fill-opacity:0.19607843;stroke:#ff0000;stroke-width:0.99921262;stroke-miterlimit:9.66666698;stroke-dasharray:none;stroke-opacity:1;opacity:0.97"
       d="m 3118.1108,-914.17358 0,531.49609 35.4316,0 0,-531.49609 -35.4316,0 z"
       id="path5877" />
    <path
       style="fill:none;fill-opacity:0.19607843;stroke:#ff0000;stroke-width:0.99921262;stroke-miterlimit:9.66666698;stroke-dasharray:none;stroke-opacity:1;opacity:0.97"
       d="m 3121.6537,-297.63853 a 14.173228,14.173228 0 0 0 14.1719,14.1739 14.173228,14.173228 0 0 0 14.1738,-14.1739 14.173228,14.173228 0 0 0 -14.1738,-14.1718 14.173228,14.173228 0 0 0 -14.1719,14.1718 z"
       id="rect4280" />
    <path
       style="fill:none;fill-opacity:0.19607843;stroke:#000000;stroke-width:0.99921262;stroke-miterlimit:9.66666698;stroke-dasharray:none;stroke-opacity:1;opacity:0.97"
       d="m 1612.2048,-967.32279 0,159.44925 -17.7168,0 a 17.716536,17.716537 0 0 0 -17.7168,17.7149 l 0,53.1523 0,17.7168 a 17.716536,17.716537 0 0 0 17.7168,17.7148 l 0,-35.4316 17.7168,0 0,354.3301 -17.7168,0 a 17.716536,17.716537 0 0 0 -17.7168,17.7148 l 0,53.1504 0,17.7188 a 17.716536,17.716537 0 0 0 17.7168,17.7148 l 0,-35.4336 17.7168,0 0,354.332003 -17.7168,0 a 17.716536,17.716537 0 0 0 -17.7168,17.7149 l 0,53.150397 0,17.7187 a 17.716536,17.716537 0 0 0 17.7168,17.7149 l 0,-35.4336 17.7168,0 0,354.3301 -17.7168,0 -17.7168,0 0,0.002 17.7168,0 a 17.716536,17.716537 0 0 0 -17.7168,17.7149 l 0,53.1503 0,17.7188 a 17.716536,17.716537 0 0 0 17.7168,17.7148 l 0,-35.4336 17.7168,0 0,212.5977 70.8652,0 c 0,0.0303 0,0.0595 0,0.0898 -10e-5,0.031 0,0.0608 0,0.0918 l 0,17.3536 c 0,9.9157 7.9827,17.8984 17.8984,17.8984 l 389.4004,0 c 9.9158,0 17.8985,-7.9827 17.8985,-17.8984 l 0,-17.3536 c 0,-0.0303 0,-0.0595 0,-0.0898 1e-4,-0.031 0,-0.0608 0,-0.0918 l 70.8652,0 0,-212.5977 17.7168,0 0,35.4336 a 17.716536,17.716537 0 0 0 17.7168,-17.7148 l 0,-70.8691 a 17.716536,17.716537 0 0 0 -17.7168,-17.7149 l 17.7168,0 0,-0.002 -35.4336,0 0,-354.3301 17.7168,0 0,35.4336 a 17.716536,17.716537 0 0 0 17.7168,-17.7149 l 0,-70.869097 a 17.716536,17.716537 0 0 0 -17.7168,-17.7149 l -17.7168,0 0,-354.332003 17.7168,0 0,35.4336 a 17.716536,17.716537 0 0 0 17.7168,-17.7148 l 0,-70.8692 a 17.716536,17.716537 0 0 0 -17.7168,-17.7148 l -17.7168,0 0,-354.3301 17.7168,0 0,35.4316 a 17.716536,17.716537 0 0 0 17.7168,-17.7148 l 0,-70.8691 a 17.716536,17.716537 0 0 0 -17.7168,-17.7149 l -17.7168,0 0,-159.44925 -566.9277,0 z"
       id="path5873" />
    <path
       style="fill:none;fill-opacity:0.19607843;stroke:#ff0000;stroke-width:0.99921262;stroke-miterlimit:9.66666698;stroke-dasharray:none;stroke-opacity:1;opacity:0.97"
       d="m 1860.236,-949.60599 70.8653,0 0,17.71681 -70.8653,0 0,-17.71681 z"
       id="rect4138-3" />
    <path
       style="fill:none;fill-opacity:0.19607843;stroke:#000000;stroke-width:0.99921262;stroke-miterlimit:9.66666698;stroke-dasharray:none;stroke-opacity:1;opacity:0.97"
       d="m 2232.2836,-1055.9055 0,124.01561 -17.7148,0 0,0 a 17.716536,17.716537 0 0 0 -17.7148,17.7149 l 0,53.1523 0,17.7168 a 17.716536,17.716537 0 0 0 17.7148,17.7148 l 0,-35.4316 17.7168,0 0,354.3301 -17.7148,0 0,0 a 17.716536,17.716537 0 0 0 -17.7148,17.7148 l 0,53.1504 0,17.7188 a 17.716536,17.716537 0 0 0 17.7148,17.7148 l 0,-35.4336 17.7168,0 0,354.331999 -17.7148,0 0,0 a 17.716536,17.716537 0 0 0 -17.7148,17.7149 l 0,53.1504 0,17.7186995 a 17.716536,17.716537 0 0 0 17.7148,17.7149005 l 0,-35.4336 17.7168,0 0,354.330101 -17.7168,0 -17.7148,0 0,0.002 17.7168,0 a 17.716536,17.716537 0 0 0 -17.7168,17.7149 l 0,53.1503 0,17.7188 a 17.716536,17.716537 0 0 0 17.7148,17.7148 l 0,-35.4336 17.7168,0 0,212.5977 35.4336,0 35.4336,0 0,17.7168 0.01,0 c 0.098,9.8304 8.0342,17.7168 17.8887,17.7168 l 389.4004,0 c 9.8544,0 17.7907,-7.8864 17.8886,-17.7168 l 0.01,0 0,-17.7168 35.4316,0 17.7168,0 17.7168,0 0,-212.5977 17.7168,0 0,35.4336 a 17.716536,17.716537 0 0 0 17.7168,-17.7148 l 0,-70.8691 a 17.716536,17.716537 0 0 0 -17.7168,-17.7149 l 17.7168,0 0,-0.002 -35.4336,0 0,-354.330101 17.7168,0 0,35.4336 a 17.716536,17.716537 0 0 0 17.7168,-17.7149005 l 0,-70.8690995 a 17.716536,17.716537 0 0 0 -17.7168,-17.7149 l -17.7168,0 0,-354.331999 17.7168,0 0,35.4336 a 17.716536,17.716537 0 0 0 17.7168,-17.7148 l 0,-70.8692 a 17.716536,17.716537 0 0 0 -17.7168,-17.7148 l -17.7168,0 0,-354.3301 17.7168,0 0,35.4316 a 17.716536,17.716537 0 0 0 17.7168,-17.7148 l 0,-70.8691 a 17.716536,17.716537 0 0 0 -17.7168,-17.7149 l -17.7168,0 0,-124.01561 -566.9297,0 z"
       id="rect4138" />
    <path
       style="fill:none;fill-opacity:0.19607843;stroke:#000000;stroke-width:0.99921262;stroke-miterlimit:9.66666698;stroke-dasharray:none;stroke-opacity:1;opacity:0.97"
       d="m 690.94364,768.89742 -17.7168,0 0,-17.7168 -566.92771,0 0,17.7168 -17.716802,0 0,17.7168 17.716802,0 283.46477,0 0,17.71491 -283.46477,0 -17.716802,0 0,17.7168 17.716802,0 0,17.7168 566.92771,0 0,-17.7168 17.7168,0 0,-53.14851 z"
       id="rect4436-7" />
    <path
       style="fill:none;fill-opacity:0.19607843;stroke:#000000;stroke-width:0.99921262;stroke-miterlimit:9.66666698;stroke-dasharray:none;stroke-opacity:1;opacity:0.97"
       d="m 806.10235,892.91143 a 62.007858,62.007858 0 0 1 -62.00781,-62.0079 62.007858,62.007858 0 0 1 0.3106,-6.1914 106.29921,106.29921 0 0 1 105.98823,-100.1074 l 0,-1621.0626 708.66013,0 0,1736.2208 a 17.716537,17.716536 0 0 1 -17.7148,17.7168 l -389.7637,0 a 17.716536,17.716537 0 0 1 -17.7168,-17.7148 l 0,0 53.1484,0 0,-17.7168 -53.1484,0 -17.7168,0 -35.4336,0 0,17.7168 -0.3144,0 a 221.45671,221.4567 0 0 1 -8.8184,53.1485 l -123.74218,0 -97.43945,0 -44.29102,0 z"
       id="path5865" />
    <path
       style="fill:none;fill-opacity:0.19607843;stroke:#ff0000;stroke-width:0.99921262;stroke-miterlimit:9.66666698;stroke-dasharray:none;stroke-opacity:1;opacity:0.97"
       d="m 806.10235,875.19653 a 44.29134,44.29134 0 0 0 0.0391,0 l 53.05469,0 a 44.29134,44.29134 0 0 0 0.0547,0 44.29134,44.29134 0 0 0 44.29102,-44.293 44.29134,44.29134 0 0 0 -44.29102,-44.291 l -53.14844,0 a 44.29134,44.29134 0 0 0 -44.29296,44.291 44.29134,44.29134 0 0 0 44.29296,44.293 z"
       id="path5863" />
    <path
       style="fill:none;fill-opacity:0.19607843;stroke:#ff0000;stroke-width:0.99921262;stroke-miterlimit:9.66666698;stroke-dasharray:none;stroke-opacity:1;opacity:0.97"
       d="m 868.11017,698.03053 17.71484,0 0,-106.2988 -17.71484,0 0,106.2988 z"
       id="path5861" />
    <path
       style="fill:none;fill-opacity:0.19607843;stroke:#ff0000;stroke-width:0.99921262;stroke-miterlimit:9.66666698;stroke-dasharray:none;stroke-opacity:1;opacity:0.97"
       d="m 1523.6219,698.03053 17.7168,0 0,-106.2988 -17.7168,0 0,106.2988 z"
       id="path5859" />
    <path
       style="fill:none;fill-opacity:0.19607843;stroke:#ff0000;stroke-width:0.99921262;stroke-miterlimit:9.66666698;stroke-dasharray:none;stroke-opacity:1;opacity:0.97"
       d="m 868.11017,272.83323 17.71484,0 0,-106.2988 -17.71484,0 0,106.2988 z"
       id="path5857" />
    <path
       style="fill:none;fill-opacity:0.19607843;stroke:#ff0000;stroke-width:0.99921262;stroke-miterlimit:9.66666698;stroke-dasharray:none;stroke-opacity:1;opacity:0.97"
       d="m 1523.6219,272.83323 17.7168,0 0,-106.2988 -17.7168,0 0,106.2988 z"
       id="path5855" />
    <path
       style="fill:none;fill-opacity:0.19607843;stroke:#ff0000;stroke-width:0.99921262;stroke-miterlimit:9.66666698;stroke-dasharray:none;stroke-opacity:1;opacity:0.97"
       d="m 868.11017,-152.36399 17.71484,0 0,-106.2989 -17.71484,0 0,106.2989 z"
       id="path5853" />
    <path
       style="fill:none;fill-opacity:0.19607843;stroke:#ff0000;stroke-width:0.99921262;stroke-miterlimit:9.66666698;stroke-dasharray:none;stroke-opacity:1;opacity:0.97"
       d="m 1523.6219,-152.36399 17.7168,0 0,-106.2989 -17.7168,0 0,106.2989 z"
       id="path5851" />
    <path
       style="fill:none;fill-opacity:0.19607843;stroke:#ff0000;stroke-width:0.99921262;stroke-miterlimit:9.66666698;stroke-dasharray:none;stroke-opacity:1;opacity:0.97"
       d="m 868.11017,-577.5613 17.71484,0 0,-106.2988 -17.71484,0 0,106.2988 z"
       id="path5849" />
    <path
       style="fill:none;fill-opacity:0.19607843;stroke:#ff0000;stroke-width:0.99921262;stroke-miterlimit:9.66666698;stroke-dasharray:none;stroke-opacity:1;opacity:0.97"
       d="m 1523.6219,-577.5613 17.7168,0 0,-106.2988 -17.7168,0 0,106.2988 z"
       id="path5847" />
    <path
       style="fill:none;fill-opacity:0.19607843;stroke:#ff0000;stroke-width:0.99921262;stroke-miterlimit:9.66666698;stroke-dasharray:none;stroke-opacity:1;opacity:0.97"
       d="m 868.11017,-861.02427 673.22853,0 0,-17.7168 -673.22853,0 0,17.7168 z"
       id="path5243-8" />
    <path
       style="fill:none;fill-opacity:0.19607843;stroke:#000000;stroke-width:0.99921262;stroke-miterlimit:9.66666698;stroke-dasharray:none;stroke-opacity:1;opacity:0.97"
       d="m 788.38511,272.83443 a 44.29134,44.29134 0 0 0 -44.2911,44.293 44.29134,44.29134 0 0 0 44.2911,44.291 44.29134,44.29134 0 0 0 44.2929,-44.291 44.29134,44.29134 0 0 0 -44.2929,-44.293 z"
       id="path5843" />
    <path
       style="fill:none;fill-opacity:0.19607843;stroke:#ff0000;stroke-width:0.99921262;stroke-miterlimit:9.66666698;stroke-dasharray:none;stroke-opacity:1;opacity:0.97"
       d="m 779.52761,290.55123 17.7168,0 0,17.7168 17.7168,0 0,17.7168 -17.7168,0 0,17.7168 -17.7168,0 0,-17.7168 -17.7168,0 0,-17.7168 17.7168,0 0,-17.7168 z"
       id="path6081-4-9" />
  </g>
</svg>
