<?xml version="1.0" encoding="utf-8"?>
<!-- Generator: Adobe Illustrator 27.1.1, SVG Export Plug-In . SVG Version: 6.00 Build 0)  -->
<svg xmlns:shaper="http://www.shapertools.com/namespaces/shaper" xmlns="http://www.w3.org/2000/svg" xmlns:xlink="http://www.w3.org/1999/xlink" version="1.1" id="Layer_1" x="0px" y="0px" viewBox="0 0 1826.7 460.8" style="enable-background:new 0 0 1826.7 460.8;" xml:space="preserve">
<style type="text/css">
	.st0{fill:none;stroke:#231F20;stroke-miterlimit:10;}
	.st1{fill:none;stroke:#E62C25;stroke-miterlimit:10;}
	.st2{fill:none;stroke:#C82727;stroke-miterlimit:10;}
	.st3{fill:none;stroke:#DD2526;stroke-miterlimit:10;}
	.st4{font-family:'MyriadPro-Regular';}
	.st5{font-size:12px;}
</style>
<path shaper:cutDepth="0.1969" shaper:pathType="exterior" class="st0" d="M1393.8,248.5v-26.9h-8.5v-32.2h-21.5v-8.5h-16.1v8.5  h-16.3v-8.5h-16.3v8.5H1299v-8.5h-16.3v8.5h-16.2v-8.5h-16.3v8.5h-16.1v-8.5h-16.3v8.5h-16.1v-8.5h-16.3v8.5h-16.1v-8.5H1153v8.5  h-21.2v32.2h-8.5v26.6h8.5v27.4h-8.5v26.6h8.5v27.4h-8.5v26.6h8.5v27.4h-8.5v26.6h8.5v32.2h21.5v8.5h16.3v-8.5h16.2v8.5h16.3v-8.5  h16.2v8.5h16.3v-8.5h16.1v8.5h16.3v-8.5h16.1v8.5h16.3v-8.5h16.1v8.5h16.3v-8.5h16.2v8.5h16.3v-8.5h21.2v-32.2h8.5v-26.6h-8.5v-27.1  h8.5v-26.9h-8.5v-27.1h8.5v-26.9h-8.5v-27.1H1393.8z"/>
<path shaper:cutDepth="0.1969" shaper:pathType="exterior" class="st0" d="M830.4,186.7H591.8c-12.9,0-23.4,10.5-23.4,23.4v8.5h8.5  v8.1h-8.5v23.8h8.5v27.4h-8.5v26.6h8.5v27.4h-8.5v26.6h8.5V386h-8.5v26.6h8.5v44.2h21.5v-8.5h16v8.5h16.4v-8.5h16v8.5h16.4v-8.5h16  v8.5h16.4v-8.5h16v8.5h16.4v-8.5h16v8.5h16.4v-8.5h16v8.5h16.4v-8.5h16v8.5h21.5v-44.2h8.5V386h-8.5v-27.4h8.5v-26.6h-8.5v-27.4h8.5  v-26.6h-8.5v-27.4h8.5v-26.6h-8.5V186.7z"/>
<path shaper:cutDepth="0.1969" shaper:pathType="exterior" class="st0" d="M287.5,412.5V386h8.5v-27.4h-8.5v-26.6h8.5v-27.4h-8.5  v-26.6h8.5v-27.4h-8.5v-26.6h8.5v-37.2h238.7c12.9,0,23.4,10.5,23.4,23.4c0,0,0,0,0,0v8.5h-8.5v8.1h8.5v23.8h-8.5v27.4h8.5v26.6  h-8.5v27.4h8.5v26.6h-8.5V386h8.5v26.6h-8.5v44.2H528v-8.5h-16v8.5h-16.4v-8.5h-16v8.5h-16.4v-8.5h-16v8.5h-16.4v-8.5h-16v8.5h-16.4  v-8.5h-16v8.5h-16.4v-8.5h-16v8.5h-16.4v-8.5h-16v8.5H296v-44.2H287.5z"/>
<path shaper:cutDepth="0.1969" shaper:pathType="exterior" class="st0" d="M1114.9,223.9v-37.2H844.7v37.2h8.5v26.6h-8.5v27.4h8.5  v26.6h-8.5v27.4h8.5v26.6h-8.5V386h8.5v26.6h-8.5v44.1h40.7v-8.5h26.6v8.5h27.4v-8.5h26.6v8.5h27.4v-8.5h26.6v8.5h27.4v-8.5h26.6  v8.5h40.7v-44.2l-8.5,0.1V386h8.5v-27.4h-8.5v-26.6h8.5v-27.4h-8.5v-26.6h8.5v-27.4h-8.5v-26.6H1114.9z"/>
<path shaper:cutDepth="0.1969" shaper:pathType="exterior" class="st0" d="M1402.3,189.4h177v-8.5h68v8.5h17v253.2h-17v8.5h-68v-8.5  h-177V189.4z"/>
<path shaper:cutDepth="0.1969" shaper:pathType="exterior" class="st0" d="M126.8,196.9v8.1H15.5v23.8H7v27.4h8.5v26.4H7v28h8.5  v26.4H7v27.7h8.5v26.1H7V435h40.7v-8.5h26.6v8.5h27.4v-8.5h26.6v8.5h27.4v-8.5h26.6v8.5h27.4v-8.5h26.6v8.5h40.7l0-44.4l-8.5,0.1  v-26.1h8.5v-28h-8.5v-26.1h8.5v-28h-8.5v-26.4h8.5v-27.4h-8.5V205H155.2v-8.1H126.8z"/>
<path shaper:cutDepth="0.1969" shaper:pathType="exterior" class="st0" d="M578.7,46.5H475.5L467,57.8h-11.3l-8.5-11.3H344l-2.8,0.8  l-2.8-0.8h-1.4V17.7h1.4l2.8-0.8l2.8,0.8h103.2l8.5-11.3H467l8.5,11.3h103.2l2.8-0.8l2.8,0.8h1.4v28.8h-1.4l-2.8,0.8L578.7,46.5z"/>
<path shaper:cutDepth="0.1969" shaper:pathType="exterior" class="st0" d="M0,94.6L0.7,95l2.5,2.4l2.9,0.7l1.2,0.7l-1.4,2.5l2.5,1.4  l1.4-2.5l81,46.8c50.5,7.7,97.7-27.1,105.4-77.6c1.6-10.8,1.3-21.9-0.9-32.6l-3.7-11.5l-2.5-5.5L151.6,0  c11.3,11.8,18.9,26.6,22.1,42.6c7.1,36.2-16.5,71.3-52.6,78.4c-5.2,1-10.5,1.4-15.9,1.2l-81-46.8l1.4-2.5l-2.5-1.4L21.7,74l-1.2-0.7  l-2-2.2l-2.9-0.7l-1.2-0.7L0,94.6z"/>
<path vector-effect="non-scaling-stroke" shaper:cutDepth="0.1969" shaper:pathType="interior" class="st0" d="M532.5,218.6v-8.5  H313v8.5H532.5z"/>
<path vector-effect="non-scaling-stroke" shaper:cutDepth="0.1969" shaper:pathType="interior" class="st0" d="M593.9,218.6v-8.5  h219.5v8.5H593.9z"/>
<path shaper:cutDepth="0.1969" shaper:pathType="exterior" class="st0" d="M684,9.9c-18.8,0-34,15.2-34,34c0,18.8,15.2,34,34,34  c18.8,0,34-15.2,34-34C718,25.2,702.8,10,684,9.9z"/>
<path shaper:cutDepth="0.1969" shaper:pathType="exterior" class="st0" d="M243.9,9.9c-18.8,0-34,15.2-34,34c0,18.8,15.2,34,34,34  c18.8,0,34-15.2,34-34C277.8,25.2,262.6,10,243.9,9.9z"/>
<path vector-effect="non-scaling-stroke" shaper:cutDepth="0.1969" shaper:pathType="interior" class="st1" d="M504.6,304.7  c18.8,0,34,15.2,34,34c0,18.8-15.2,34-34,34c-18.8,0-34-15.2-34-34S485.9,304.7,504.6,304.7L504.6,304.7z"/>
<path vector-effect="non-scaling-stroke" shaper:cutDepth="0.1969" shaper:pathType="interior" class="st2" d="M622.2,302.3  c18.8,0,34,15.2,34,34c0,18.8-15.2,34-34,34c-18.8,0-34-15.2-34-34C588.2,317.6,603.4,302.3,622.2,302.3z"/>
<path shaper:cutDepth="0.1969" shaper:pathType="exterior" class="st0" d="M451.3,100.9l-2.2,3.6l-2.7,3.2l-3.2,2.8l-3.6,2.3  l-3.9,1.7l-4.1,1.1l-4.2,0.5l-4.2-0.1l-4.2-0.8l-4-1.4l-3.8-2l-3.4-2.5l-3-3l-2.5-3.4l-2-3.7l-1.4-4l-0.8-4.2l-0.2-4.2l0.4-4.2  l1.1-4.1l1.7-3.9l2.2-3.6l2.7-3.2l3.2-2.8l3.6-2.3l3.9-1.7l4.1-1.1l4.2-0.5l4.2,0.1l4.2,0.8l4,1.4l3.8,2l3.4,2.5l3,3l2.5,3.4l2,3.7  l1.4,4l0.5,2.7h-42V91h42.2l-0.2,2L453,97L451.3,100.9z"/>
<path shaper:cutDepth="0.1969" shaper:pathType="exterior" class="st0" d="M522,100.9l-2.2,3.6l-2.7,3.2l-3.2,2.8l-3.6,2.3l-3.9,1.7  l-4.1,1.1l-4.2,0.5l-4.2-0.1l-4.2-0.8l-4-1.4l-3.8-2l-3.4-2.5l-3-3l-2.5-3.4l-2-3.7l-1.4-4l-0.8-4.2l-0.2-4.2l0.4-4.2l1.1-4.1  l1.7-3.9l2.2-3.6l2.7-3.2l3.2-2.8l3.6-2.3l3.9-1.7l4.1-1.1l4.2-0.5l4.2,0.1l4.2,0.8l4,1.4l3.8,2l3.4,2.5l3,3l2.5,3.4l2,3.7l1.4,4  l0.5,2.7h-42V91h42.2l-0.2,2l-1.1,4.1L522,100.9z"/>
<path vector-effect="non-scaling-stroke" shaper:cutDepth="0.1969" shaper:pathType="interior" class="st0" d="M684,19.6  c-13.5,0-24.4,10.9-24.4,24.4c0,13.5,10.9,24.4,24.4,24.4c13.5,0,24.4-10.9,24.4-24.4C708.4,30.5,697.5,19.6,684,19.6z"/>
<path vector-effect="non-scaling-stroke" shaper:cutDepth="0.1969" shaper:pathType="interior" class="st0" d="M243.9,19.6  c13.5,0,24.4,10.9,24.4,24.4c0,13.5-10.9,24.4-24.4,24.4c-13.5,0-24.4-10.9-24.4-24.4C219.5,30.5,230.4,19.6,243.9,19.6z"/>
<path shaper:cutDepth="0.1969" shaper:pathType="exterior" class="st0" d="M324.2,13.3c10.4,8.4,11.9,23.7,3.5,34.1  s-23.7,11.9-34.1,3.5s-11.9-23.7-3.5-34.1C298.5,6.4,313.8,4.8,324.2,13.3L324.2,13.3z"/>
<path shaper:cutDepth="0.1969" shaper:pathType="exterior" class="st0" d="M634.2,13.3c10.4,8.4,11.9,23.7,3.5,34.1  c-8.4,10.4-23.7,11.9-34.1,3.5l0,0c-10.4-8.4-11.9-23.7-3.5-34.1C608.6,6.4,623.8,4.8,634.2,13.3z"/>
<path shaper:cutDepth="0.1969" shaper:pathType="exterior" class="st0" d="M438.8,140l36.4,0l0-7.9l-36.5,0  c2.3-12.3,14.1-20.5,26.4-18.2c10.7,2,18.5,11.3,18.6,22.2c-0.2,12.5-10.5,22.5-23,22.3C450,158.2,440.8,150.5,438.8,140z"/>
<path vector-effect="non-scaling-stroke" shaper:cutDepth="0.1969" shaper:pathType="interior" class="st0" d="M465.6,46.5h-8.5  V17.7h8.5V46.5z"/>
<path vector-effect="non-scaling-stroke" shaper:cutDepth="0.1969" shaper:pathType="interior" class="st0" d="M623.2,17.7h-8.5  v28.8h8.5V17.7z"/>
<path vector-effect="non-scaling-stroke" shaper:cutDepth="0.1969" shaper:pathType="interior" class="st0" d="M313.1,17.7h-8.5  v28.8h8.5V17.7z"/>
<path shaper:cutDepth="0.1969" shaper:pathType="exterior" class="st3" d="M1534.4,321.6c3.1,0,5.7-2.5,5.7-5.7  c0-3.1-2.5-5.7-5.7-5.7s-5.7,2.5-5.7,5.7C1528.7,319.1,1531.3,321.6,1534.4,321.6z"/>
<path vector-effect="non-scaling-stroke" shaper:cutDepth="0.1969" shaper:pathType="interior" class="st3" d="M1534.4,321.6  c3.1,0,5.7-2.5,5.7-5.7c0-3.1-2.5-5.7-5.7-5.7s-5.7,2.5-5.7,5.7C1528.7,319.1,1531.3,321.6,1534.4,321.6z"/>
<text transform="matrix(1 0 0 1 540.042 87.8635)"><tspan x="0" y="0" class="st4 st5">Remember, you need the two rectangle cutouts as</tspan><tspan x="0" y="14.4" class="st4 st5">spacers to remove lateral motion on the lid.</tspan><tspan x="0" y="28.8" class="st4 st5">They get glued on the bottom of the lid.</tspan></text>
</svg>
