<?xml version="1.0" encoding="UTF-8" standalone="no"?>
<!-- Created with Inkscape (http://www.inkscape.org/) -->

<svg
   width="210mm"
   height="297mm"
   viewBox="0 0 210 297"
   version="1.1"
   id="svg1"
   xml:space="preserve"
   inkscape:version="1.4.2 (ebf0e94, 2025-05-08)"
   sodipodi:docname="Counters.svg"
   xmlns:inkscape="http://www.inkscape.org/namespaces/inkscape"
   xmlns:sodipodi="http://sodipodi.sourceforge.net/DTD/sodipodi-0.dtd"
   xmlns="http://www.w3.org/2000/svg"
   xmlns:svg="http://www.w3.org/2000/svg"><sodipodi:namedview
     id="namedview1"
     pagecolor="#ffffff"
     bordercolor="#000000"
     borderopacity="0.25"
     inkscape:showpageshadow="2"
     inkscape:pageopacity="0.0"
     inkscape:pagecheckerboard="0"
     inkscape:deskcolor="#d1d1d1"
     inkscape:document-units="mm"
     inkscape:zoom="0.35945918"
     inkscape:cx="397.81986"
     inkscape:cy="560.56435"
     inkscape:window-width="1920"
     inkscape:window-height="1009"
     inkscape:window-x="-8"
     inkscape:window-y="-8"
     inkscape:window-maximized="1"
     inkscape:current-layer="layer-MC0-1"><inkscape:page
       x="0"
       y="0"
       width="210"
       height="297"
       id="page1"
       margin="0"
       bleed="0" /></sodipodi:namedview><defs
     id="defs1"><clipPath
       clipPathUnits="userSpaceOnUse"
       id="clipPath2"><path
         d="M 0,90.266 H 180 V 0 H 0 Z"
         transform="translate(-78.586202,-70.250502)"
         id="path2" /></clipPath><clipPath
       clipPathUnits="userSpaceOnUse"
       id="clipPath4"><path
         d="M 0,90.266 H 180 V 0 H 0 Z"
         transform="translate(-39.651601,-45.258001)"
         id="path4" /></clipPath><clipPath
       clipPathUnits="userSpaceOnUse"
       id="clipPath6"><path
         d="M 0,90.266 H 180 V 0 H 0 Z"
         transform="translate(-67.119802,-61.919602)"
         id="path6" /></clipPath><clipPath
       clipPathUnits="userSpaceOnUse"
       id="clipPath8"><path
         d="M 0,90.266 H 180 V 0 H 0 Z"
         transform="translate(-86.7067,-45.258001)"
         id="path8" /></clipPath><clipPath
       clipPathUnits="userSpaceOnUse"
       id="clipPath10"><path
         d="M 0,90.266 H 180 V 0 H 0 Z"
         transform="translate(-72.533502,-45.258001)"
         id="path10" /></clipPath><clipPath
       clipPathUnits="userSpaceOnUse"
       id="clipPath12"><path
         d="M 0,90.266 H 180 V 0 H 0 Z"
         transform="translate(-89.5414,-45.258001)"
         id="path12" /></clipPath><clipPath
       clipPathUnits="userSpaceOnUse"
       id="clipPath14"><path
         d="M 0,90.266 H 180 V 0 H 0 Z"
         transform="translate(-127.5256,-45.258001)"
         id="path14" /></clipPath><clipPath
       clipPathUnits="userSpaceOnUse"
       id="clipPath16"><path
         d="M 0,90.266 H 180 V 0 H 0 Z"
         transform="translate(-148.55961,-69.498002)"
         id="path16" /></clipPath><clipPath
       clipPathUnits="userSpaceOnUse"
       id="clipPath18"><path
         d="M 0,90.266 H 180 V 0 H 0 Z"
         transform="translate(-160.4487,-52.084001)"
         id="path18" /></clipPath><clipPath
       clipPathUnits="userSpaceOnUse"
       id="clipPath20"><path
         d="M 0,90.266 H 180 V 0 H 0 Z"
         transform="translate(-165.646,-59.591801)"
         id="path20" /></clipPath><clipPath
       clipPathUnits="userSpaceOnUse"
       id="clipPath22"><path
         d="M 0,90.266 H 180 V 0 H 0 Z"
         transform="translate(-167.8467,-31.567401)"
         id="path22" /></clipPath><clipPath
       clipPathUnits="userSpaceOnUse"
       id="clipPath24"><path
         d="M 0,90.266 H 180 V 0 H 0 Z"
         transform="translate(-150.90921,-15.402801)"
         id="path24" /></clipPath><clipPath
       clipPathUnits="userSpaceOnUse"
       id="clipPath26"><path
         d="M 0,90.266 H 180 V 0 H 0 Z"
         transform="translate(-129.46041,-13.168898)"
         id="path26" /></clipPath><clipPath
       clipPathUnits="userSpaceOnUse"
       id="clipPath28"><path
         d="M 0,90.266 H 180 V 0 H 0 Z"
         transform="translate(-117.8047,-17.8477)"
         id="path28" /></clipPath><clipPath
       clipPathUnits="userSpaceOnUse"
       id="clipPath30"><path
         d="M 0,90.266 H 180 V 0 H 0 Z"
         transform="translate(-98.0098,-36.836901)"
         id="path30" /></clipPath><clipPath
       clipPathUnits="userSpaceOnUse"
       id="clipPath32"><path
         d="M 0,90.266 H 180 V 0 H 0 Z"
         transform="translate(-93.7861,-55.765102)"
         id="path32" /></clipPath><clipPath
       clipPathUnits="userSpaceOnUse"
       id="clipPath34"><path
         d="M 0,90.266 H 180 V 0 H 0 Z"
         transform="translate(-113.2354,-70.271002)"
         id="path34" /></clipPath><clipPath
       clipPathUnits="userSpaceOnUse"
       id="clipPath36"><path
         d="M 0,90.266 H 180 V 0 H 0 Z"
         transform="translate(-126.72171,-82.427702)"
         id="path36" /></clipPath><clipPath
       clipPathUnits="userSpaceOnUse"
       id="clipPath2-2"><path
         d="M 0,180 H 180 V 0 H 0 Z"
         transform="translate(-45.145701,-87.665402)"
         id="path2-4" /></clipPath><clipPath
       clipPathUnits="userSpaceOnUse"
       id="clipPath4-5"><path
         d="M 0,180 H 180 V 0 H 0 Z"
         transform="translate(-40.610201,-45.145704)"
         id="path4-5" /></clipPath><clipPath
       clipPathUnits="userSpaceOnUse"
       id="clipPath6-1"><path
         d="M 0,180 H 180 V 0 H 0 Z"
         transform="translate(-72.104802,-53.905201)"
         id="path6-7" /></clipPath><clipPath
       clipPathUnits="userSpaceOnUse"
       id="clipPath8-1"><path
         d="M 0,180 H 180 V 0 H 0 Z"
         transform="translate(-85.584302,-32.006401)"
         id="path8-1" /></clipPath><clipPath
       clipPathUnits="userSpaceOnUse"
       id="clipPath10-5"><path
         d="M 0,180 H 180 V 0 H 0 Z"
         transform="translate(-72.104802,-36.386101)"
         id="path10-2" /></clipPath><clipPath
       clipPathUnits="userSpaceOnUse"
       id="clipPath12-7"><path
         d="M 0,180 H 180 V 0 H 0 Z"
         transform="translate(-135.85431,-2.6259976)"
         id="path12-6" /></clipPath><clipPath
       clipPathUnits="userSpaceOnUse"
       id="clipPath14-1"><path
         d="M 0,180 H 180 V 0 H 0 Z"
         transform="translate(-131.31891,-45.145704)"
         id="path14-4" /></clipPath><clipPath
       clipPathUnits="userSpaceOnUse"
       id="clipPath16-2"><path
         d="M 0,180 H 180 V 0 H 0 Z"
         transform="translate(-108.8952,-53.905201)"
         id="path16-3" /></clipPath><clipPath
       clipPathUnits="userSpaceOnUse"
       id="clipPath18-2"><path
         d="M 0,180 H 180 V 0 H 0 Z"
         transform="translate(-95.4157,-32.006401)"
         id="path18-2" /></clipPath><clipPath
       clipPathUnits="userSpaceOnUse"
       id="clipPath20-1"><path
         d="M 0,180 H 180 V 0 H 0 Z"
         transform="translate(-108.8952,-36.386101)"
         id="path20-6" /></clipPath><clipPath
       clipPathUnits="userSpaceOnUse"
       id="clipPath22-8"><path
         d="M 0,180 H 180 V 0 H 0 Z"
         transform="translate(-45.145701,-87.665402)"
         id="path22-5" /></clipPath><clipPath
       clipPathUnits="userSpaceOnUse"
       id="clipPath24-7"><path
         d="M 0,180 H 180 V 0 H 0 Z"
         transform="translate(-45.145701,-2.6259976)"
         id="path24-6" /></clipPath><clipPath
       clipPathUnits="userSpaceOnUse"
       id="clipPath26-1"><path
         d="M 0,180 H 180 V 0 H 0 Z"
         transform="translate(-95.4157,-32.006401)"
         id="path26-8" /></clipPath><clipPath
       clipPathUnits="userSpaceOnUse"
       id="clipPath28-9"><path
         d="M 0,180 H 180 V 0 H 0 Z"
         transform="translate(-85.584302,-58.284999)"
         id="path28-2" /></clipPath><clipPath
       clipPathUnits="userSpaceOnUse"
       id="clipPath30-7"><path
         d="M 0,180 H 180 V 0 H 0 Z"
         transform="translate(-87.665402,-32.006401)"
         id="path30-9" /></clipPath><clipPath
       clipPathUnits="userSpaceOnUse"
       id="clipPath32-5"><path
         d="M 0,180 H 180 V 0 H 0 Z"
         transform="translate(-93.334705,-32.006401)"
         id="path32-4" /></clipPath><clipPath
       clipPathUnits="userSpaceOnUse"
       id="clipPath34-3"><path
         d="M 0,180 H 180 V 0 H 0 Z"
         transform="translate(-87.665402,-32.006401)"
         id="path34-1" /></clipPath><clipPath
       clipPathUnits="userSpaceOnUse"
       id="clipPath36-2"><path
         d="M 0,180 H 180 V 0 H 0 Z"
         transform="translate(-93.334705,-58.284999)"
         id="path36-3" /></clipPath><clipPath
       clipPathUnits="userSpaceOnUse"
       id="clipPath38"><path
         d="M 0,180 H 180 V 0 H 0 Z"
         transform="matrix(0.80883995,-0.58754154,-0.58802904,-0.80919417,6.306312,196.09847)"
         id="path38" /></clipPath><clipPath
       clipPathUnits="userSpaceOnUse"
       id="clipPath40"><path
         d="M 0,180 H 180 V 0 H 0 Z"
         transform="matrix(0.30883991,-0.95099906,-0.95111404,-0.30919411,118.74906,169.25962)"
         id="path40" /></clipPath><clipPath
       clipPathUnits="userSpaceOnUse"
       id="clipPath42"><path
         d="M 0,180 H 180 V 0 H 0 Z"
         transform="matrix(-0.30883991,-0.95099906,-0.95111404,0.30919411,208.00331,91.27553)"
         id="path42" /></clipPath><clipPath
       clipPathUnits="userSpaceOnUse"
       id="clipPath44"><path
         d="M 0,180 H 180 V 0 H 0 Z"
         transform="matrix(-0.80883995,-0.58754154,-0.58802904,0.80919417,225.22266,-34.486238)"
         id="path44" /></clipPath><clipPath
       clipPathUnits="userSpaceOnUse"
       id="clipPath46"><path
         d="M 0,180 H 180 V 0 H 0 Z"
         transform="translate(-175.5957,-135.6777)"
         id="path46" /></clipPath><clipPath
       clipPathUnits="userSpaceOnUse"
       id="clipPath48"><path
         d="M 0,180 H 180 V 0 H 0 Z"
         transform="matrix(-0.80883995,0.58754154,0.58802904,0.80919417,62.527686,-184.78017)"
         id="path48" /></clipPath><clipPath
       clipPathUnits="userSpaceOnUse"
       id="clipPath50"><path
         d="M 0,180 H 180 V 0 H 0 Z"
         transform="matrix(-0.30883991,0.95099906,0.95111404,0.30919411,-47.460965,-167.71522)"
         id="path50" /></clipPath><clipPath
       clipPathUnits="userSpaceOnUse"
       id="clipPath52"><path
         d="M 0,180 H 180 V 0 H 0 Z"
         transform="matrix(0.30883991,0.95099906,0.95111404,-0.30919411,-131.62091,-86.885926)"
         id="path52" /></clipPath><clipPath
       clipPathUnits="userSpaceOnUse"
       id="clipPath54"><path
         d="M 0,180 H 180 V 0 H 0 Z"
         transform="matrix(0.80883995,0.58754154,0.58802904,-0.80919417,-150.80637,26.767536)"
         id="path54" /></clipPath><clipPath
       clipPathUnits="userSpaceOnUse"
       id="clipPath56"><path
         d="M 0,180 H 180 V 0 H 0 Z"
         transform="translate(-96.0391,-134.5122)"
         id="path56" /></clipPath><clipPath
       clipPathUnits="userSpaceOnUse"
       id="clipPath58"><path
         d="M 0,180 H 180 V 0 H 0 Z"
         transform="translate(-93.334705,-135.8543)"
         id="path58" /></clipPath><clipPath
       clipPathUnits="userSpaceOnUse"
       id="clipPath60"><path
         d="M 0,180 H 180 V 0 H 0 Z"
         transform="translate(-131.31891,-135.8543)"
         id="path60" /></clipPath><clipPath
       clipPathUnits="userSpaceOnUse"
       id="clipPath62"><path
         d="M 0,180 H 180 V 0 H 0 Z"
         transform="translate(-2.626,-135.8543)"
         id="path62" /></clipPath><clipPath
       clipPathUnits="userSpaceOnUse"
       id="clipPath64"><path
         d="M 0,180 H 180 V 0 H 0 Z"
         transform="translate(-40.610201,-135.8543)"
         id="path64" /></clipPath><clipPath
       clipPathUnits="userSpaceOnUse"
       id="clipPath66"><path
         d="M 0,180 H 180 V 0 H 0 Z"
         transform="translate(-12.1353,-152.4375)"
         id="path66" /></clipPath><clipPath
       clipPathUnits="userSpaceOnUse"
       id="clipPath68"><path
         d="M 0,180 H 180 V 0 H 0 Z"
         transform="translate(-34.282701,-174.9629)"
         id="path68" /></clipPath><clipPath
       clipPathUnits="userSpaceOnUse"
       id="clipPath70"><path
         d="M 0,180 H 180 V 0 H 0 Z"
         transform="translate(-52.531301,-171.0342)"
         id="path70" /></clipPath><clipPath
       clipPathUnits="userSpaceOnUse"
       id="clipPath72"><path
         d="M 0,180 H 180 V 0 H 0 Z"
         transform="translate(-77.297904,-154.2407)"
         id="path72" /></clipPath><clipPath
       clipPathUnits="userSpaceOnUse"
       id="clipPath74"><path
         d="M 0,180 H 180 V 0 H 0 Z"
         transform="translate(-77.719704,-136.1709)"
         id="path74" /></clipPath><clipPath
       clipPathUnits="userSpaceOnUse"
       id="clipPath76"><path
         d="M 0,180 H 180 V 0 H 0 Z"
         transform="translate(-80.2759,-116.4307)"
         id="path76" /></clipPath><clipPath
       clipPathUnits="userSpaceOnUse"
       id="clipPath78"><path
         d="M 0,180 H 180 V 0 H 0 Z"
         transform="translate(-58.150402,-105.959)"
         id="path78" /></clipPath><clipPath
       clipPathUnits="userSpaceOnUse"
       id="clipPath80"><path
         d="M 0,180 H 180 V 0 H 0 Z"
         transform="translate(-35.239301,-104.4951)"
         id="path80" /></clipPath><clipPath
       clipPathUnits="userSpaceOnUse"
       id="clipPath82"><path
         d="M 0,180 H 180 V 0 H 0 Z"
         transform="translate(-16.5615,-119.1113)"
         id="path82" /></clipPath><clipPath
       clipPathUnits="userSpaceOnUse"
       id="clipPath84"><path
         d="M 0,180 H 180 V 0 H 0 Z"
         transform="translate(-13.1265,-137.0215)"
         id="path84" /></clipPath></defs><g
     inkscape:label="Layer 1"
     inkscape:groupmode="layer"
     id="layer1" /><g
     id="layer-MC0"
     inkscape:groupmode="layer"
     inkscape:label="Layer 1"
     transform="matrix(0.26458333,0,0,0.26458334,220.00001,0)"><g
       id="g5"
       transform="translate(-790.07582,47.293269)"><path
         id="path3"
         d="M 0,0 C 0,2.505 2.031,4.535 4.535,4.535 7.04,4.535 9.071,2.505 9.071,0 9.071,-2.505 7.04,-4.535 4.535,-4.535 2.031,-4.535 0,-2.505 0,0 Z"
         style="vector-effect:non-scaling-stroke;fill:none;stroke:#0000ff;stroke-width:0.75;stroke-linecap:round;stroke-linejoin:round;stroke-miterlimit:10;stroke-dasharray:none;stroke-opacity:1;-inkscape-stroke:hairline"
         transform="matrix(1.6666421,0,0,-1.6666421,168.52214,60.0112)"
         clip-path="url(#clipPath4)" /><g
         id="g4"
         transform="translate(117.16679)"><path
           id="path1"
           d="m 0,0 c -13.803,18.998 -40.393,23.21 -59.392,9.407 -18.998,-13.803 -23.209,-40.394 -9.406,-59.392 13.803,-18.998 40.393,-23.21 59.391,-9.407 11.012,8.001 17.528,20.789 17.528,34.4"
           style="vector-effect:non-scaling-stroke;fill:none;stroke:#000000;stroke-width:0.75;stroke-linecap:round;stroke-linejoin:round;stroke-miterlimit:10;stroke-dasharray:none;stroke-opacity:1;-inkscape-stroke:hairline"
           transform="matrix(1.3333333,0,0,-1.3333333,104.7816,26.687867)"
           clip-path="url(#clipPath2)" /><path
           id="path5"
           d="M 0,0 11.466,8.331"
           style="vector-effect:non-scaling-stroke;fill:none;stroke:#000000;stroke-width:0.75;stroke-linecap:round;stroke-linejoin:round;stroke-miterlimit:10;stroke-dasharray:none;stroke-opacity:1;-inkscape-stroke:hairline"
           transform="matrix(1.3333333,0,0,-1.3333333,89.493067,37.795733)"
           clip-path="url(#clipPath6)" /><path
           id="path7"
           d="M 0,0 H -14.173"
           style="vector-effect:non-scaling-stroke;fill:none;stroke:#000000;stroke-width:0.75;stroke-linecap:round;stroke-linejoin:round;stroke-miterlimit:10;stroke-dasharray:none;stroke-opacity:1;-inkscape-stroke:hairline"
           transform="matrix(1.3333333,0,0,-1.3333333,115.60893,60.0112)"
           clip-path="url(#clipPath8)" /><path
           id="path9"
           d="M 0,0 -5.414,16.662"
           style="vector-effect:non-scaling-stroke;fill:none;stroke:#000000;stroke-width:0.75;stroke-linecap:round;stroke-linejoin:round;stroke-miterlimit:10;stroke-dasharray:none;stroke-opacity:1;-inkscape-stroke:hairline"
           transform="matrix(1.3333333,0,0,-1.3333333,96.711333,60.0112)"
           clip-path="url(#clipPath10)" /></g></g><g
       id="g3"
       transform="translate(-907.24119,47.293269)"><path
         id="path11"
         d="M 0,0 C 0,23.483 19.037,42.52 42.52,42.52 66.003,42.52 85.039,23.483 85.039,0 85.039,-23.483 66.003,-42.52 42.52,-42.52 19.037,-42.52 0,-23.483 0,0 Z"
         style="vector-effect:non-scaling-stroke;fill:none;stroke:#000000;stroke-width:0.75;stroke-linecap:round;stroke-linejoin:round;stroke-miterlimit:10;stroke-dasharray:none;stroke-opacity:1;-inkscape-stroke:hairline"
         transform="matrix(1.3333333,0,0,-1.3333333,119.38853,60.0112)"
         clip-path="url(#clipPath12)" /><path
         id="path13"
         d="M 0,0 C 0,2.505 2.031,4.535 4.535,4.535 7.04,4.535 9.071,2.505 9.071,0 9.071,-2.505 7.04,-4.535 4.535,-4.535 2.031,-4.535 0,-2.505 0,0 Z"
         style="vector-effect:non-scaling-stroke;fill:none;stroke:#0000ff;stroke-width:0.75;stroke-linecap:round;stroke-linejoin:round;stroke-miterlimit:10;stroke-dasharray:none;stroke-opacity:1;-inkscape-stroke:hairline"
         transform="matrix(1.6666421,0,0,-1.6666421,168.52214,60.0112)"
         clip-path="url(#clipPath14)" /><path
         id="path15"
         d="M 0,0 C 0.609,0.334 1.251,0.521 1.927,0.559 2.603,0.598 3.414,0.461 4.361,0.151 L 5.703,1.998 C 5.067,2.218 4.515,2.365 4.044,2.443 3.573,2.521 3.052,2.553 2.48,2.541 L 6.405,7.943 4.127,9.6 -1.864,1.354 Z"
         style="vector-effect:non-scaling-stroke;fill:none;stroke:#00ff00;stroke-width:0.75;stroke-linecap:butt;stroke-linejoin:miter;stroke-miterlimit:10;stroke-dasharray:none;stroke-opacity:1;-inkscape-stroke:hairline"
         transform="matrix(1.3333333,0,0,-1.3333333,198.07947,27.6912)"
         clip-path="url(#clipPath16)" /><path
         id="path17"
         d="m 0,0 c 0.69,-0.087 1.319,-0.314 1.889,-0.68 0.569,-0.366 1.145,-0.953 1.729,-1.759 l 2.171,0.705 C 5.404,-1.184 5.043,-0.738 4.708,-0.399 4.374,-0.061 3.971,0.272 3.5,0.599 L 9.852,2.662 8.981,5.341 -0.712,2.191 Z"
         style="vector-effect:non-scaling-stroke;fill:none;stroke:#00ff00;stroke-width:0.75;stroke-linecap:butt;stroke-linejoin:miter;stroke-miterlimit:10;stroke-dasharray:none;stroke-opacity:1;-inkscape-stroke:hairline"
         transform="matrix(1.3333333,0,0,-1.3333333,213.9316,50.909867)"
         clip-path="url(#clipPath18)" /><path
         id="path19"
         d="M 0,0 C 0.568,0.325 0.99,0.66 1.266,1.004 1.658,1.481 1.901,2.008 1.996,2.586 2.091,3.162 2.008,3.852 1.748,4.654 1.283,6.084 0.554,6.962 -0.437,7.286 -1.429,7.611 -2.79,7.492 -4.519,6.931 -5.292,6.68 -6.003,6.35 -6.656,5.941 -6.999,5.729 -7.286,5.503 -7.518,5.263 -7.748,5.022 -7.949,4.73 -8.117,4.389 -8.287,4.046 -8.383,3.643 -8.408,3.18 -8.432,2.717 -8.34,2.164 -8.131,1.522 c 0.433,-1.335 1.118,-2.209 2.053,-2.627 0.936,-0.417 2.31,-0.332 4.122,0.257 C -1.219,-0.608 -0.567,-0.325 0,0 Z m -5.365,1.271 c -0.508,0.051 -0.833,0.295 -0.975,0.733 -0.139,0.43 -0.027,0.822 0.34,1.178 0.365,0.356 1.181,0.74 2.447,1.151 0.863,0.28 1.512,0.44 1.95,0.479 0.438,0.04 0.783,-0.008 1.035,-0.145 C -0.314,4.531 -0.145,4.329 -0.057,4.061 0.075,3.653 -0.046,3.27 -0.42,2.911 -0.795,2.552 -1.589,2.176 -2.803,1.781 -4.004,1.391 -4.857,1.222 -5.365,1.271 Z"
         style="vector-effect:non-scaling-stroke;fill:none;stroke:#00ff00;stroke-width:0.75;stroke-linecap:butt;stroke-linejoin:miter;stroke-miterlimit:10;stroke-dasharray:none;stroke-opacity:1;-inkscape-stroke:hairline"
         transform="matrix(1.3333333,0,0,-1.3333333,220.86133,40.899467)"
         clip-path="url(#clipPath20)" /><path
         id="path21"
         d="M 0,0 C 0.432,0.18 0.807,0.461 1.125,0.842 1.442,1.223 1.725,1.792 1.971,2.55 2.389,3.833 2.313,4.967 1.75,5.95 1.186,6.935 0.043,7.705 -1.678,8.265 -2.849,8.645 -3.846,8.778 -4.67,8.665 -5.495,8.553 -6.165,8.261 -6.68,7.791 -7.194,7.321 -7.606,6.608 -7.916,5.655 -8.174,4.862 -8.256,4.16 -8.158,3.549 -8.063,2.938 -7.803,2.398 -7.381,1.93 c 0.424,-0.468 0.952,-0.805 1.584,-1.011 0.928,-0.301 1.791,-0.256 2.588,0.134 0.798,0.39 1.336,1.012 1.613,1.866 0.142,0.438 0.192,0.848 0.149,1.231 C -1.49,4.533 -1.623,4.936 -1.846,5.357 -0.852,4.938 -0.225,4.591 0.036,4.314 0.388,3.937 0.494,3.536 0.356,3.111 0.279,2.873 0.137,2.696 -0.067,2.58 -0.272,2.465 -0.57,2.432 -0.961,2.483 L -1.485,-0.258 C -0.928,-0.267 -0.433,-0.181 0,0 Z M -3.104,5.249 C -2.91,4.913 -2.875,4.559 -2.996,4.186 -3.113,3.826 -3.352,3.572 -3.711,3.423 -4.07,3.273 -4.518,3.286 -5.051,3.459 -5.579,3.631 -5.937,3.876 -6.127,4.193 -6.316,4.511 -6.354,4.846 -6.24,5.196 c 0.122,0.373 0.37,0.643 0.748,0.807 0.377,0.165 0.823,0.164 1.339,-0.004 0.507,-0.165 0.856,-0.415 1.049,-0.75 z"
         style="vector-effect:non-scaling-stroke;fill:none;stroke:#00ff00;stroke-width:0.75;stroke-linecap:butt;stroke-linejoin:miter;stroke-miterlimit:10;stroke-dasharray:none;stroke-opacity:1;-inkscape-stroke:hairline"
         transform="matrix(1.3333333,0,0,-1.3333333,223.7956,78.265333)"
         clip-path="url(#clipPath22)" /><path
         id="path23"
         d="m 0,0 c 0.019,-0.49 0.2,-0.974 0.546,-1.449 0.353,-0.487 0.792,-0.842 1.314,-1.065 0.522,-0.222 1.084,-0.271 1.686,-0.144 0.6,0.126 1.33,0.502 2.189,1.126 0.457,0.332 0.855,0.69 1.194,1.074 C 7.267,-0.074 7.501,0.312 7.633,0.7 7.765,1.089 7.796,1.527 7.726,2.014 7.655,2.501 7.474,2.948 7.179,3.354 6.874,3.774 6.487,4.079 6.021,4.269 5.552,4.458 5.023,4.5 4.432,4.391 4.603,4.853 4.681,5.258 4.663,5.607 4.64,6.074 4.495,6.49 4.229,6.855 3.774,7.481 3.138,7.813 2.319,7.85 1.502,7.887 0.551,7.511 -0.533,6.724 -1.352,6.129 -1.89,5.485 -2.146,4.791 -2.471,3.896 -2.386,3.11 -1.894,2.432 -1.593,2.019 -1.218,1.733 -0.766,1.578 -0.435,1.463 -0.024,1.44 0.466,1.509 0.137,0.994 -0.019,0.491 0,0 Z M 0.095,4.691 C 0.142,4.986 0.301,5.234 0.573,5.433 0.843,5.628 1.128,5.701 1.429,5.651 1.729,5.603 1.981,5.438 2.185,5.158 2.38,4.888 2.456,4.609 2.413,4.319 2.371,4.028 2.221,3.79 1.963,3.602 1.671,3.391 1.376,3.308 1.077,3.351 0.776,3.396 0.524,3.557 0.321,3.837 0.123,4.11 0.048,4.395 0.095,4.691 Z M 2.396,1.382 C 2.444,1.755 2.608,2.043 2.888,2.247 3.173,2.453 3.505,2.52 3.887,2.449 4.269,2.377 4.589,2.162 4.849,1.804 5.106,1.45 5.212,1.08 5.165,0.694 5.118,0.309 4.961,0.018 4.692,-0.177 4.411,-0.381 4.081,-0.449 3.698,-0.379 3.315,-0.312 2.995,-0.099 2.735,0.259 2.462,0.636 2.349,1.01 2.396,1.382 Z"
         style="vector-effect:non-scaling-stroke;fill:none;stroke:#00ff00;stroke-width:0.75;stroke-linecap:butt;stroke-linejoin:miter;stroke-miterlimit:10;stroke-dasharray:none;stroke-opacity:1;-inkscape-stroke:hairline"
         transform="matrix(1.3333333,0,0,-1.3333333,201.21227,99.818133)"
         clip-path="url(#clipPath24)" /><path
         id="path25"
         d="M 0,0 H 4.949 C 3.933,-1.263 3.19,-2.447 2.721,-3.555 2.251,-4.662 1.907,-6.034 1.688,-7.67 h 2.776 c 0.091,1.176 0.269,2.194 0.533,3.056 0.333,1.107 0.786,2.112 1.36,3.014 0.475,0.744 1.064,1.434 1.771,2.072 v 1.88 H 0 Z"
         style="vector-effect:non-scaling-stroke;fill:none;stroke:#00ff00;stroke-width:0.75;stroke-linecap:butt;stroke-linejoin:miter;stroke-miterlimit:10;stroke-dasharray:none;stroke-opacity:1;-inkscape-stroke:hairline"
         transform="matrix(1.3333333,0,0,-1.3333333,172.61387,102.79667)"
         clip-path="url(#clipPath26)" /><path
         id="path27"
         d="m 0,0 c -0.038,0.467 -0.191,0.91 -0.456,1.333 -0.266,0.42 -0.721,0.866 -1.367,1.335 -1.091,0.793 -2.192,1.072 -3.302,0.84 -1.11,-0.235 -2.196,-1.082 -3.259,-2.545 -0.726,-1 -1.163,-1.909 -1.311,-2.729 -0.147,-0.819 -0.076,-1.545 0.213,-2.177 0.29,-0.633 0.84,-1.244 1.651,-1.834 0.675,-0.491 1.318,-0.785 1.932,-0.883 0.612,-0.1 1.205,-0.02 1.779,0.24 0.574,0.26 1.055,0.655 1.444,1.191 0.575,0.792 0.802,1.627 0.677,2.507 -0.125,0.878 -0.548,1.581 -1.271,2.107 -0.372,0.269 -0.748,0.443 -1.126,0.518 -0.38,0.076 -0.803,0.074 -1.271,-0.003 0.703,0.82 1.224,1.308 1.564,1.467 0.471,0.221 0.889,0.199 1.254,-0.066 0.203,-0.148 0.326,-0.336 0.371,-0.565 0.044,-0.23 -0.018,-0.523 -0.187,-0.879 l 2.441,-1.351 C -0.037,-0.965 0.038,-0.467 0,0 Z m -5.955,-1.327 c 0.382,0.078 0.729,0.003 1.042,-0.224 0.306,-0.222 0.475,-0.529 0.508,-0.918 0.032,-0.39 -0.118,-0.813 -0.45,-1.271 -0.324,-0.446 -0.667,-0.709 -1.03,-0.789 -0.363,-0.08 -0.691,-0.014 -0.986,0.201 -0.321,0.232 -0.502,0.555 -0.542,0.965 -0.041,0.408 0.099,0.833 0.417,1.271 0.314,0.432 0.661,0.687 1.041,0.765 z"
         style="vector-effect:non-scaling-stroke;fill:none;stroke:#00ff00;stroke-width:0.75;stroke-linecap:butt;stroke-linejoin:miter;stroke-miterlimit:10;stroke-dasharray:none;stroke-opacity:1;-inkscape-stroke:hairline"
         transform="matrix(1.3333333,0,0,-1.3333333,157.07293,96.558267)"
         clip-path="url(#clipPath28)" /><path
         id="path29"
         d="M 0,0 0.408,-2.361 C 0.716,-2.496 0.943,-2.637 1.092,-2.785 1.295,-2.982 1.439,-3.209 1.522,-3.465 1.653,-3.869 1.626,-4.234 1.44,-4.562 1.254,-4.893 0.877,-5.148 0.31,-5.333 c -0.555,-0.18 -1.011,-0.195 -1.369,-0.046 -0.357,0.15 -0.596,0.409 -0.716,0.777 -0.107,0.33 -0.088,0.65 0.059,0.961 0.145,0.311 0.422,0.569 0.83,0.773 l -1.163,2.584 c -0.405,-0.276 -0.724,-0.559 -0.96,-0.852 -0.235,-0.292 -0.42,-0.633 -0.554,-1.024 -0.135,-0.391 -0.188,-0.83 -0.162,-1.318 0.027,-0.487 0.142,-1.045 0.346,-1.673 0.285,-0.875 0.668,-1.546 1.15,-2.009 0.481,-0.465 1.055,-0.758 1.722,-0.878 0.667,-0.122 1.308,-0.082 1.924,0.118 0.875,0.284 1.505,0.816 1.889,1.598 0.383,0.782 0.42,1.648 0.11,2.602 -0.092,0.282 -0.219,0.556 -0.382,0.822 -0.163,0.265 -0.362,0.522 -0.596,0.772 l 1.504,0.237 1.384,-4.257 2.112,0.685 -2.042,6.287 z"
         style="vector-effect:non-scaling-stroke;fill:none;stroke:#00ff00;stroke-width:0.75;stroke-linecap:butt;stroke-linejoin:miter;stroke-miterlimit:10;stroke-dasharray:none;stroke-opacity:1;-inkscape-stroke:hairline"
         transform="matrix(1.3333333,0,0,-1.3333333,130.67973,71.239333)"
         clip-path="url(#clipPath30)" /><path
         id="path31"
         d="M 0,0 -0.75,-2.308 1.031,-2.887 0.643,-4.083 2.697,-4.75 3.086,-3.554 8.943,-5.458 9.693,-3.15 5.526,3.538 3.349,4.246 1.781,-0.579 Z m 4.664,1.302 2.172,-3.523 -3,0.974 z"
         style="vector-effect:non-scaling-stroke;fill:none;stroke:#00ff00;stroke-width:0.75;stroke-linecap:butt;stroke-linejoin:miter;stroke-miterlimit:10;stroke-dasharray:none;stroke-opacity:1;-inkscape-stroke:hairline"
         transform="matrix(1.3333333,0,0,-1.3333333,125.04813,46.001733)"
         clip-path="url(#clipPath32)" /><path
         id="path33"
         d="m 0,0 c -0.051,-0.28 -0.208,-0.518 -0.473,-0.71 -0.258,-0.187 -0.514,-0.262 -0.769,-0.221 -0.255,0.04 -0.472,0.183 -0.651,0.431 -0.188,0.258 -0.252,0.553 -0.191,0.884 0.061,0.331 0.238,0.604 0.533,0.819 0.071,0.05 0.176,0.112 0.314,0.185 L -2.29,3.082 C -2.535,2.768 -2.747,2.547 -2.924,2.418 -3.256,2.177 -3.594,2.09 -3.938,2.156 -4.28,2.221 -4.589,2.442 -4.862,2.818 c -0.269,0.37 -0.382,0.737 -0.341,1.104 0.039,0.368 0.211,0.661 0.514,0.881 0.287,0.209 0.587,0.293 0.901,0.253 0.313,-0.039 0.679,-0.254 1.097,-0.643 l 2.034,1.933 C -1.172,6.744 -1.687,7.011 -2.205,7.145 -2.722,7.279 -3.256,7.278 -3.808,7.142 -4.359,7.005 -5.004,6.67 -5.742,6.134 -6.497,5.585 -7.022,5.024 -7.316,4.453 -7.611,3.881 -7.725,3.289 -7.658,2.676 c 0.069,-0.613 0.274,-1.155 0.617,-1.627 0.273,-0.376 0.582,-0.645 0.93,-0.808 0.345,-0.161 0.714,-0.228 1.103,-0.199 0.24,0.017 0.546,0.102 0.916,0.251 -0.232,-0.495 -0.341,-0.954 -0.326,-1.377 0.015,-0.423 0.148,-0.81 0.403,-1.16 0.435,-0.597 1.031,-0.922 1.789,-0.973 0.759,-0.052 1.667,0.306 2.725,1.075 0.922,0.67 1.503,1.369 1.744,2.095 C 2.483,0.68 2.446,1.447 2.13,2.254 L -0.276,1.089 C -0.043,0.644 0.049,0.282 0,0 Z"
         style="vector-effect:non-scaling-stroke;fill:none;stroke:#00ff00;stroke-width:0.75;stroke-linecap:butt;stroke-linejoin:miter;stroke-miterlimit:10;stroke-dasharray:none;stroke-opacity:1;-inkscape-stroke:hairline"
         transform="matrix(1.3333333,0,0,-1.3333333,150.98053,26.660533)"
         clip-path="url(#clipPath34)" /><path
         id="path35"
         d="M 0,0 H 4.348 C 4.092,-0.251 3.87,-0.453 3.681,-0.608 3.492,-0.764 3.117,-1.034 2.557,-1.422 1.613,-2.087 0.963,-2.698 0.605,-3.254 0.247,-3.81 0.068,-4.394 0.068,-5.004 c 0,-0.574 0.157,-1.093 0.469,-1.555 0.312,-0.462 0.74,-0.805 1.285,-1.029 0.544,-0.224 1.306,-0.335 2.286,-0.335 0.939,0 1.674,0.117 2.205,0.353 0.531,0.234 0.942,0.571 1.234,1.011 0.291,0.44 0.492,1.051 0.601,1.835 L 5.359,-4.498 C 5.282,-5.063 5.13,-5.457 4.905,-5.681 4.679,-5.904 4.389,-6.016 4.033,-6.016 c -0.342,0 -0.625,0.109 -0.851,0.325 -0.225,0.216 -0.338,0.477 -0.338,0.783 0,0.282 0.114,0.581 0.342,0.895 0.228,0.315 0.749,0.775 1.565,1.381 1.335,0.989 2.246,1.847 2.731,2.573 0.485,0.728 0.776,1.503 0.872,2.329 L 0,2.27 Z"
         style="vector-effect:non-scaling-stroke;fill:none;stroke:#00ff00;stroke-width:0.75;stroke-linecap:butt;stroke-linejoin:miter;stroke-miterlimit:10;stroke-dasharray:none;stroke-opacity:1;-inkscape-stroke:hairline"
         transform="matrix(1.3333333,0,0,-1.3333333,168.96227,10.4516)"
         clip-path="url(#clipPath36)" /></g></g><g
     id="layer-MC0-1"
     inkscape:groupmode="layer"
     inkscape:label="Layer 1"
     transform="matrix(0.26458333,0,0,0.26458334,293.50001,0)"><path
       id="path3-3"
       d="M 0,0 C 0,2.505 2.031,4.535 4.535,4.535 7.04,4.535 9.071,2.505 9.071,0 9.071,-2.505 7.04,-4.535 4.535,-4.535 2.031,-4.535 0,-2.505 0,0 Z"
       style="vector-effect:non-scaling-stroke;fill:none;stroke:#0000ff;stroke-width:0.75;stroke-linecap:round;stroke-linejoin:round;stroke-miterlimit:10;stroke-dasharray:none;stroke-opacity:1;-inkscape-stroke:hairline"
       transform="matrix(1.6666421,0,0,-1.6666421,-737.44088,106.1542)"
       clip-path="url(#clipPath4-5)" /><path
       id="path5-8"
       d="M 0,0 13.48,4.38"
       style="vector-effect:non-scaling-stroke;fill:none;stroke:#0000ff;stroke-width:0.75;stroke-linecap:round;stroke-linejoin:round;stroke-miterlimit:10;stroke-dasharray:none;stroke-opacity:1;-inkscape-stroke:hairline"
       transform="matrix(1.3333333,0,0,-1.3333333,-693.93609,94.474869)"
       clip-path="url(#clipPath6-1)" /><path
       id="path7-7"
       d="M 0,0 -13.48,4.38"
       style="vector-effect:non-scaling-stroke;fill:none;stroke:#0000ff;stroke-width:0.75;stroke-linecap:round;stroke-linejoin:round;stroke-miterlimit:10;stroke-dasharray:none;stroke-opacity:1;-inkscape-stroke:hairline"
       transform="matrix(1.3333333,0,0,-1.3333333,-675.96342,123.67327)"
       clip-path="url(#clipPath8-1)" /><path
       id="path9-4"
       d="M 0,0 V 17.519"
       style="vector-effect:non-scaling-stroke;fill:none;stroke:#0000ff;stroke-width:0.75;stroke-linecap:round;stroke-linejoin:round;stroke-miterlimit:10;stroke-dasharray:none;stroke-opacity:1;-inkscape-stroke:hairline"
       transform="matrix(1.3333333,0,0,-1.3333333,-693.93609,117.83367)"
       clip-path="url(#clipPath10-5)" /><path
       id="path13-7"
       d="M 0,0 C 0,2.505 2.031,4.535 4.535,4.535 7.04,4.535 9.071,2.505 9.071,0 9.071,-2.505 7.04,-4.535 4.535,-4.535 2.031,-4.535 0,-2.505 0,0 Z"
       style="vector-effect:non-scaling-stroke;fill:none;stroke:#0000ff;stroke-width:0.75;stroke-linecap:round;stroke-linejoin:round;stroke-miterlimit:10;stroke-dasharray:none;stroke-opacity:1;-inkscape-stroke:hairline"
       transform="matrix(1.6666421,0,0,-1.6666421,-616.49594,106.1542)"
       clip-path="url(#clipPath14-1)" /><path
       id="path15-7"
       d="M 0,0 -13.48,4.38"
       style="vector-effect:non-scaling-stroke;fill:none;stroke:#0000ff;stroke-width:0.75;stroke-linecap:round;stroke-linejoin:round;stroke-miterlimit:10;stroke-dasharray:none;stroke-opacity:1;-inkscape-stroke:hairline"
       transform="matrix(1.3333333,0,0,-1.3333333,-644.88222,94.474869)"
       clip-path="url(#clipPath16-2)" /><path
       id="path17-9"
       d="M 0,0 13.48,4.38"
       style="vector-effect:non-scaling-stroke;fill:none;stroke:#0000ff;stroke-width:0.75;stroke-linecap:round;stroke-linejoin:round;stroke-miterlimit:10;stroke-dasharray:none;stroke-opacity:1;-inkscape-stroke:hairline"
       transform="matrix(1.3333333,0,0,-1.3333333,-662.85489,123.67327)"
       clip-path="url(#clipPath18-2)" /><path
       id="path19-3"
       d="M 0,0 V 17.519"
       style="vector-effect:non-scaling-stroke;fill:none;stroke:#0000ff;stroke-width:0.75;stroke-linecap:round;stroke-linejoin:round;stroke-miterlimit:10;stroke-dasharray:none;stroke-opacity:1;-inkscape-stroke:hairline"
       transform="matrix(1.3333333,0,0,-1.3333333,-644.88222,117.83367)"
       clip-path="url(#clipPath20-1)" /><path
       id="path23-9"
       clip-path="url(#clipPath24-7)"
       style="vector-effect:non-scaling-stroke;fill:none;stroke:#000000;stroke-width:0.75;stroke-linecap:round;stroke-linejoin:round;stroke-miterlimit:10;stroke-dasharray:none;stroke-opacity:1;-inkscape-stroke:hairline"
       transform="matrix(1.3333333,0,0,-1.3333333,-729.88156,162.84714)"
       d="M 90.708803,85.039203 C 114.1916,85.039 133.2286,66.003 133.2286,42.52 133.2286,19.037 114.1916,0 90.708803,0 L 0,2.02313e-4 C -23.483,4.0462599e-4 -42.52,19.036405 -42.52,42.519405 c 0,23.483 19.037,42.52 42.52,42.52 z"
       sodipodi:nodetypes="csccscc" /><path
       id="path25-8"
       d="M 0,0 H -2.081"
       style="vector-effect:non-scaling-stroke;fill:none;stroke:#0000ff;stroke-width:0.75;stroke-linecap:round;stroke-linejoin:round;stroke-miterlimit:10;stroke-dasharray:none;stroke-opacity:1;-inkscape-stroke:hairline"
       transform="matrix(1.3333333,0,0,-1.3333333,-662.85489,123.67327)"
       clip-path="url(#clipPath26-1)" /><path
       id="path27-6"
       d="M 0,0 H 2.081"
       style="vector-effect:non-scaling-stroke;fill:none;stroke:#0000ff;stroke-width:0.75;stroke-linecap:round;stroke-linejoin:round;stroke-miterlimit:10;stroke-dasharray:none;stroke-opacity:1;-inkscape-stroke:hairline"
       transform="matrix(1.3333333,0,0,-1.3333333,-675.96342,88.635139)"
       clip-path="url(#clipPath28-9)" /><path
       id="path29-5"
       d="M 0,0 V 26.279"
       style="vector-effect:non-scaling-stroke;fill:none;stroke:#0000ff;stroke-width:0.75;stroke-linecap:round;stroke-linejoin:round;stroke-miterlimit:10;stroke-dasharray:none;stroke-opacity:1;-inkscape-stroke:hairline"
       transform="matrix(1.3333333,0,0,-1.3333333,-673.18862,123.67327)"
       clip-path="url(#clipPath30-7)" /><path
       id="path31-0"
       d="M 0,0 V 26.279"
       style="vector-effect:non-scaling-stroke;fill:none;stroke:#0000ff;stroke-width:0.75;stroke-linecap:round;stroke-linejoin:round;stroke-miterlimit:10;stroke-dasharray:none;stroke-opacity:1;-inkscape-stroke:hairline"
       transform="matrix(1.3333333,0,0,-1.3333333,-665.62955,123.67327)"
       clip-path="url(#clipPath32-5)" /><path
       id="path33-2"
       d="M 0,0 H -2.081"
       style="vector-effect:non-scaling-stroke;fill:none;stroke:#0000ff;stroke-width:0.75;stroke-linecap:round;stroke-linejoin:round;stroke-miterlimit:10;stroke-dasharray:none;stroke-opacity:1;-inkscape-stroke:hairline"
       transform="matrix(1.3333333,0,0,-1.3333333,-673.18862,123.67327)"
       clip-path="url(#clipPath34-3)" /><path
       id="path35-8"
       d="M 0,0 H 2.081"
       style="vector-effect:non-scaling-stroke;fill:none;stroke:#0000ff;stroke-width:0.75;stroke-linecap:round;stroke-linejoin:round;stroke-miterlimit:10;stroke-dasharray:none;stroke-opacity:1;-inkscape-stroke:hairline"
       transform="matrix(1.3333333,0,0,-1.3333333,-665.62955,88.635139)"
       clip-path="url(#clipPath36-2)" /><path
       id="path37"
       d="M 0,0 C -0.308,0.651 -0.732,1.199 -1.275,1.643 -1.818,2.086 -2.581,2.466 -3.563,2.782 V 5.147 C -2.896,4.944 -2.344,4.732 -1.902,4.51 -1.461,4.288 -1.004,3.998 -0.531,3.639 v 6.918 H 2.386 V 0 Z"
       style="vector-effect:non-scaling-stroke;fill:none;stroke:#00ff00;stroke-width:0.75;stroke-linecap:butt;stroke-linejoin:miter;stroke-miterlimit:4;stroke-dasharray:none;stroke-opacity:1;-inkscape-stroke:hairline"
       transform="matrix(1.0789255,0.78338867,-0.78403867,1.0784532,-643.13108,191.81484)"
       clip-path="url(#clipPath38)" /><path
       id="path39"
       d="m 0,0 h -4.503 c 0.265,-0.259 0.495,-0.47 0.69,-0.63 0.197,-0.161 0.584,-0.442 1.166,-0.843 0.976,-0.69 1.65,-1.322 2.02,-1.898 0.37,-0.576 0.556,-1.181 0.556,-1.814 0,-0.594 -0.161,-1.131 -0.485,-1.611 -0.323,-0.479 -0.767,-0.834 -1.331,-1.066 -0.564,-0.231 -1.353,-0.346 -2.368,-0.346 -0.973,0 -1.733,0.121 -2.283,0.364 -0.55,0.243 -0.976,0.593 -1.277,1.048 -0.303,0.456 -0.51,1.09 -0.623,1.902 l 2.887,0.234 c 0.081,-0.586 0.238,-0.994 0.472,-1.226 0.233,-0.231 0.534,-0.346 0.902,-0.346 0.354,0 0.648,0.111 0.881,0.336 0.233,0.224 0.351,0.495 0.351,0.811 0,0.293 -0.118,0.602 -0.354,0.928 -0.236,0.325 -0.776,0.803 -1.621,1.43 -1.383,1.025 -2.326,1.914 -2.828,2.667 -0.503,0.753 -0.804,1.557 -0.903,2.412 H 0 Z"
       style="vector-effect:non-scaling-stroke;fill:none;stroke:#00ff00;stroke-width:0.75;stroke-linecap:butt;stroke-linejoin:miter;stroke-miterlimit:4;stroke-dasharray:none;stroke-opacity:1;-inkscape-stroke:hairline"
       transform="matrix(0.4122588,1.2679987,-1.268152,0.41178653,-624.38424,187.96566)"
       clip-path="url(#clipPath40)" /><path
       id="path41"
       d="m 0,0 c 0.212,-0.206 0.488,-0.309 0.828,-0.309 0.331,0 0.59,0.095 0.779,0.284 C 1.795,0.164 1.89,0.416 1.89,0.732 1.89,1.063 1.764,1.349 1.511,1.59 1.259,1.831 0.944,1.951 0.566,1.951 0.477,1.951 0.352,1.939 0.191,1.916 L 0.042,3.977 c 0.397,-0.114 0.708,-0.17 0.935,-0.17 0.424,0 0.761,0.131 1.009,0.396 0.247,0.265 0.371,0.638 0.371,1.119 0,0.473 -0.128,0.85 -0.385,1.133 C 1.714,6.739 1.392,6.881 1.005,6.881 0.637,6.881 0.334,6.769 0.096,6.544 -0.143,6.32 -0.319,5.917 -0.432,5.337 l -2.881,0.382 c 0.188,0.647 0.459,1.184 0.811,1.611 0.351,0.428 0.799,0.752 1.344,0.974 0.546,0.222 1.29,0.333 2.234,0.333 0.967,0 1.749,-0.15 2.343,-0.449 C 4.014,7.888 4.469,7.46 4.785,6.905 5.102,6.351 5.26,5.771 5.26,5.167 5.26,4.685 5.164,4.271 4.973,3.924 4.782,3.576 4.514,3.297 4.169,3.084 3.957,2.952 3.65,2.836 3.249,2.737 3.745,2.463 4.115,2.145 4.361,1.781 4.606,1.417 4.729,1.012 4.729,0.562 4.729,-0.202 4.427,-0.837 3.823,-1.343 3.218,-1.848 2.239,-2.101 0.885,-2.101 c -1.18,0 -2.092,0.232 -2.736,0.695 -0.645,0.463 -1.08,1.129 -1.306,1.997 L -0.432,1.08 C -0.356,0.565 -0.212,0.205 0,0 Z"
       style="vector-effect:non-scaling-stroke;fill:none;stroke:#00ff00;stroke-width:0.75;stroke-linecap:butt;stroke-linejoin:miter;stroke-miterlimit:4;stroke-dasharray:none;stroke-opacity:1;-inkscape-stroke:hairline"
       transform="matrix(-0.4122588,1.2679987,-1.268152,-0.41178653,-588.57338,182.07626)"
       clip-path="url(#clipPath42)" /><path
       id="path43"
       d="M 0,0 H 2.514 V -1.94 H 3.817 V -4.178 H 2.514 v -6.379 H 0 l -5.254,6.245 V -1.94 H 0 Z M -2.776,-4.178 0,-7.443 v 3.265 z"
       style="vector-effect:non-scaling-stroke;fill:none;stroke:#00ff00;stroke-width:0.75;stroke-linecap:butt;stroke-linejoin:miter;stroke-miterlimit:4;stroke-dasharray:none;stroke-opacity:1;-inkscape-stroke:hairline"
       transform="matrix(-1.0789255,0.78338867,-0.78403867,-1.0784532,-574.11589,194.60947)"
       clip-path="url(#clipPath44)" /><path
       id="path45"
       d="m 0,0 -2.458,0.354 c -0.231,-0.26 -0.444,-0.439 -0.638,-0.538 -0.259,-0.137 -0.528,-0.205 -0.807,-0.205 -0.44,0 -0.791,0.144 -1.056,0.431 -0.264,0.289 -0.396,0.741 -0.396,1.359 0,0.605 0.13,1.059 0.393,1.363 0.262,0.304 0.594,0.457 0.995,0.457 0.359,0 0.668,-0.122 0.928,-0.365 0.26,-0.243 0.425,-0.598 0.496,-1.065 L 0.375,2.109 C 0.233,2.596 0.057,3.001 -0.156,3.327 -0.369,3.652 -0.646,3.944 -0.988,4.201 -1.331,4.458 -1.746,4.652 -2.235,4.782 -2.724,4.911 -3.311,4.976 -3.995,4.976 -4.949,4.976 -5.731,4.813 -6.344,4.488 -6.955,4.162 -7.427,3.69 -7.76,3.072 -8.093,2.454 -8.259,1.81 -8.259,1.14 c 0,-0.953 0.323,-1.744 0.97,-2.371 0.647,-0.628 1.49,-0.942 2.529,-0.942 0.307,0 0.617,0.038 0.931,0.113 0.314,0.076 0.632,0.189 0.953,0.34 l -0.248,-1.557 h -4.64 v -2.301 h 6.85 z"
       style="vector-effect:non-scaling-stroke;fill:none;stroke:#00ff00;stroke-width:0.75;stroke-linecap:butt;stroke-linejoin:miter;stroke-miterlimit:4;stroke-dasharray:none;stroke-opacity:1;-inkscape-stroke:hairline"
       transform="matrix(1.3333333,0,0,-1.3333333,-555.94822,227.33455)"
       clip-path="url(#clipPath46)" /><path
       id="path47"
       d="m 0,0 c -0.316,-0.368 -0.714,-0.648 -1.193,-0.839 -0.48,-0.191 -1.132,-0.287 -1.958,-0.287 -1.398,0 -2.491,0.436 -3.279,1.307 -0.789,0.87 -1.182,2.243 -1.182,4.117 0,1.279 0.187,2.307 0.562,3.083 0.375,0.777 0.877,1.342 1.505,1.696 0.628,0.354 1.461,0.531 2.5,0.531 0.864,0 1.583,-0.145 2.156,-0.436 C -0.315,8.882 0.134,8.454 0.457,7.887 0.78,7.321 0.941,6.696 0.941,6.011 0.941,4.996 0.622,4.158 -0.018,3.498 -0.657,2.837 -1.44,2.506 -2.365,2.506 c -0.477,0 -0.898,0.084 -1.261,0.252 -0.363,0.167 -0.718,0.426 -1.061,0.775 0.088,-1.114 0.228,-1.841 0.416,-2.181 0.26,-0.472 0.624,-0.708 1.091,-0.708 0.26,0 0.479,0.083 0.656,0.248 0.176,0.165 0.302,0.449 0.378,0.85 L 0.723,1.388 C 0.557,0.831 0.316,0.368 0,0 Z m -4.182,4.737 c 0.272,-0.298 0.608,-0.446 1.009,-0.446 0.393,0 0.72,0.153 0.985,0.46 0.264,0.307 0.396,0.753 0.396,1.338 0,0.571 -0.127,1.001 -0.382,1.289 -0.255,0.288 -0.571,0.431 -0.949,0.431 -0.411,0 -0.758,-0.159 -1.041,-0.477 -0.283,-0.319 -0.425,-0.759 -0.425,-1.321 0,-0.552 0.136,-0.977 0.407,-1.274 z"
       style="vector-effect:non-scaling-stroke;fill:none;stroke:#00ff00;stroke-width:0.75;stroke-linecap:butt;stroke-linejoin:miter;stroke-miterlimit:4;stroke-dasharray:none;stroke-opacity:1;-inkscape-stroke:hairline"
       transform="matrix(-1.0789255,-0.78338867,0.78403867,-1.0784532,-577.73831,257.94487)"
       clip-path="url(#clipPath48)" /><path
       id="path49"
       d="M 0,0 H 5.125 C 4.072,1.308 3.303,2.536 2.817,3.683 2.331,4.831 1.975,6.251 1.748,7.947 H 4.622 C 4.717,6.729 4.9,5.673 5.175,4.781 5.519,3.633 5.988,2.592 6.583,1.657 7.074,0.888 7.686,0.172 8.417,-0.489 V -2.437 H 0 Z"
       style="vector-effect:non-scaling-stroke;fill:none;stroke:#00ff00;stroke-width:0.75;stroke-linecap:butt;stroke-linejoin:miter;stroke-miterlimit:4;stroke-dasharray:none;stroke-opacity:1;-inkscape-stroke:hairline"
       transform="matrix(-0.4122588,-1.2679987,1.268152,-0.41178653,-596.95363,278.99484)"
       clip-path="url(#clipPath50)" /><path
       id="path51"
       d="m 0,0 c -0.283,0.423 -0.425,0.938 -0.425,1.548 0,0.623 0.151,1.187 0.453,1.692 0.302,0.506 0.743,0.889 1.324,1.148 0.581,0.259 1.42,0.389 2.52,0.389 0.585,0 1.136,-0.057 1.653,-0.173 C 6.042,4.488 6.474,4.308 6.82,4.062 7.167,3.816 7.46,3.469 7.698,3.018 7.937,2.566 8.056,2.082 8.056,1.562 8.056,1.023 7.918,0.533 7.642,0.089 7.366,-0.354 6.947,-0.711 6.385,-0.98 6.81,-1.264 7.122,-1.557 7.32,-1.858 7.584,-2.265 7.716,-2.701 7.716,-3.169 7.716,-3.972 7.384,-4.638 6.721,-5.166 6.058,-5.695 5.033,-5.96 3.646,-5.96 c -1.048,0 -1.891,0.213 -2.528,0.638 -0.816,0.552 -1.224,1.262 -1.224,2.132 0,0.529 0.141,0.996 0.424,1.402 C 0.526,-1.49 0.856,-1.222 1.31,-0.98 0.719,-0.749 0.283,-0.422 0,0 Z m 2.934,-3.874 c 0.219,-0.22 0.504,-0.329 0.853,-0.329 0.344,0 0.628,0.112 0.85,0.336 0.221,0.224 0.332,0.516 0.332,0.875 0,0.345 -0.106,0.626 -0.318,0.843 -0.213,0.217 -0.484,0.326 -0.814,0.326 -0.373,0 -0.671,-0.111 -0.896,-0.329 -0.224,-0.22 -0.336,-0.509 -0.336,-0.869 0,-0.349 0.11,-0.633 0.329,-0.853 z M 2.849,0.302 c 0.267,-0.283 0.579,-0.426 0.938,-0.426 0.363,0 0.683,0.146 0.96,0.439 C 5.022,0.608 5.161,0.983 5.161,1.441 5.161,1.895 5.023,2.27 4.75,2.564 4.476,2.859 4.167,3.007 3.823,3.007 3.464,3.007 3.146,2.861 2.867,2.571 2.588,2.281 2.449,1.907 2.449,1.449 c 0,-0.482 0.134,-0.864 0.4,-1.147 z"
       style="vector-effect:non-scaling-stroke;fill:none;stroke:#00ff00;stroke-width:0.75;stroke-linecap:butt;stroke-linejoin:miter;stroke-miterlimit:4;stroke-dasharray:none;stroke-opacity:1;-inkscape-stroke:hairline"
       transform="matrix(0.4122588,-1.2679987,1.268152,0.41178653,-625.62938,277.12146)"
       clip-path="url(#clipPath52)" /><path
       id="path53"
       d="m 0,0 c 0.316,0.368 0.713,0.648 1.19,0.84 0.477,0.19 1.128,0.286 1.954,0.286 1.398,0 2.491,-0.436 3.279,-1.306 0.788,-0.871 1.183,-2.243 1.183,-4.117 0,-1.274 -0.188,-2.3 -0.563,-3.076 C 6.667,-8.149 6.166,-8.717 5.538,-9.072 4.91,-9.429 4.077,-9.607 3.038,-9.607 c -0.864,0 -1.582,0.145 -2.153,0.435 -0.571,0.29 -1.02,0.719 -1.345,1.285 -0.326,0.567 -0.489,1.195 -0.489,1.883 0,1.011 0.32,1.846 0.96,2.507 0.639,0.661 1.424,0.991 2.354,0.991 0.477,0 0.897,-0.083 1.261,-0.248 0.363,-0.165 0.717,-0.425 1.062,-0.778 -0.094,1.113 -0.236,1.843 -0.425,2.187 -0.26,0.467 -0.621,0.701 -1.083,0.701 -0.26,0 -0.48,-0.083 -0.659,-0.248 C 2.342,-1.057 2.214,-1.34 2.139,-1.741 L -0.729,-1.38 C -0.559,-0.828 -0.316,-0.368 0,0 Z M 4.178,-4.736 C 3.909,-4.438 3.572,-4.29 3.166,-4.29 2.774,-4.29 2.447,-4.443 2.185,-4.75 1.923,-5.057 1.792,-5.501 1.792,-6.081 c 0,-0.576 0.126,-1.008 0.379,-1.296 0.252,-0.288 0.57,-0.432 0.952,-0.432 0.406,0 0.751,0.16 1.034,0.478 0.283,0.318 0.425,0.759 0.425,1.32 0,0.553 -0.135,0.978 -0.404,1.275 z"
       style="vector-effect:non-scaling-stroke;fill:none;stroke:#00ff00;stroke-width:0.75;stroke-linecap:butt;stroke-linejoin:miter;stroke-miterlimit:4;stroke-dasharray:none;stroke-opacity:1;-inkscape-stroke:hairline"
       transform="matrix(1.0789255,-0.78338867,0.78403867,1.0784532,-648.35377,261.23062)"
       clip-path="url(#clipPath54)" /><path
       id="path55"
       d="M 0,0 C 0.14,-0.663 0.334,-1.186 0.585,-1.568 0.93,-2.106 1.371,-2.514 1.909,-2.792 2.447,-3.071 3.153,-3.21 4.027,-3.21 c 1.558,0 2.657,0.436 3.293,1.31 0.638,0.872 0.956,2.251 0.956,4.133 0,0.84 -0.096,1.647 -0.29,2.421 C 7.888,5.06 7.756,5.415 7.594,5.72 7.431,6.024 7.207,6.314 6.924,6.59 6.641,6.866 6.274,7.09 5.826,7.263 5.377,7.435 4.804,7.521 4.104,7.521 2.65,7.521 1.568,7.127 0.857,6.339 0.146,5.551 -0.209,4.17 -0.209,2.198 -0.209,1.396 -0.139,0.663 0,0 Z m 2.972,4.877 c 0.212,0.484 0.556,0.726 1.034,0.726 0.468,0 0.818,-0.237 1.052,-0.712 0.233,-0.474 0.35,-1.4 0.35,-2.778 C 5.408,1.174 5.357,0.482 5.256,0.039 5.154,-0.405 4.996,-0.729 4.781,-0.935 4.566,-1.14 4.312,-1.242 4.02,-1.242 3.576,-1.242 3.237,-1 3.004,-0.517 2.77,-0.033 2.653,0.87 2.653,2.191 c 0,1.307 0.106,2.203 0.319,2.686 z"
       style="vector-effect:non-scaling-stroke;fill:none;stroke:#00ff00;stroke-width:0.75;stroke-linecap:butt;stroke-linejoin:miter;stroke-miterlimit:4;stroke-dasharray:none;stroke-opacity:1;-inkscape-stroke:hairline"
       transform="matrix(1.3333333,0,0,-1.3333333,-662.02369,228.88855)"
       clip-path="url(#clipPath56)" /><path
       id="path57"
       d="M 0,0 C 0,23.483 19.037,42.52 42.52,42.52 66.003,42.52 85.039,23.483 85.039,0 85.039,-23.483 66.003,-42.52 42.52,-42.52 19.037,-42.52 0,-23.483 0,0 Z"
       style="vector-effect:non-scaling-stroke;fill:none;stroke:#000000;stroke-width:0.75;stroke-linecap:round;stroke-linejoin:round;stroke-miterlimit:10;stroke-dasharray:none;stroke-opacity:1;-inkscape-stroke:hairline"
       transform="matrix(1.3333333,0,0,-1.3333333,-665.62955,227.09908)"
       clip-path="url(#clipPath58)" /><path
       id="path59"
       d="M 0,0 C 0,2.505 2.031,4.535 4.535,4.535 7.04,4.535 9.071,2.505 9.071,0 9.071,-2.505 7.04,-4.535 4.535,-4.535 2.031,-4.535 0,-2.505 0,0 Z"
       style="vector-effect:non-scaling-stroke;fill:none;stroke:#0000ff;stroke-width:0.75;stroke-linecap:round;stroke-linejoin:round;stroke-miterlimit:10;stroke-dasharray:none;stroke-opacity:1;-inkscape-stroke:hairline"
       transform="matrix(1.6668258,0,0,-1.6668258,-616.49677,227.09908)"
       clip-path="url(#clipPath60)" /><path
       id="path61"
       d="M 0,0 C 0,23.483 19.037,42.52 42.52,42.52 66.003,42.52 85.039,23.483 85.039,0 85.039,-23.483 66.003,-42.52 42.52,-42.52 19.037,-42.52 0,-23.483 0,0 Z"
       style="vector-effect:non-scaling-stroke;fill:none;stroke:#000000;stroke-width:0.75;stroke-linecap:round;stroke-linejoin:round;stroke-miterlimit:10;stroke-dasharray:none;stroke-opacity:1;-inkscape-stroke:hairline"
       transform="matrix(1.3333333,0,0,-1.3333333,-786.57449,227.09908)"
       clip-path="url(#clipPath62)" /><path
       id="path63"
       d="M 0,0 C 0,2.505 2.031,4.535 4.535,4.535 7.04,4.535 9.071,2.505 9.071,0 9.071,-2.505 7.04,-4.535 4.535,-4.535 2.031,-4.535 0,-2.505 0,0 Z"
       style="vector-effect:non-scaling-stroke;fill:none;stroke:#0000ff;stroke-width:0.75;stroke-linecap:round;stroke-linejoin:round;stroke-miterlimit:10;stroke-dasharray:none;stroke-opacity:1;-inkscape-stroke:hairline"
       transform="matrix(1.6666421,0,0,-1.6666421,-737.44088,227.09908)"
       clip-path="url(#clipPath64)" /><path
       id="path65"
       d="M 0,0 C 0.609,0.335 1.251,0.521 1.927,0.561 2.603,0.6 3.414,0.463 4.361,0.152 L 5.703,2 C 5.067,2.219 4.515,2.367 4.044,2.444 3.574,2.521 3.052,2.555 2.48,2.541 L 6.406,7.944 4.127,9.6 -1.864,1.354 Z"
       style="vector-effect:non-scaling-stroke;fill:none;stroke:#00ff00;stroke-width:0.75;stroke-linecap:butt;stroke-linejoin:miter;stroke-miterlimit:4;stroke-dasharray:none;stroke-opacity:1;-inkscape-stroke:hairline"
       transform="matrix(1.3333333,0,0,-1.3333333,-773.89542,204.98815)"
       clip-path="url(#clipPath66)" /><path
       id="path67"
       d="m 0,0 1.343,-4.135 c -0.317,0.164 -0.578,0.314 -0.784,0.446 -0.206,0.131 -0.579,0.404 -1.121,0.818 -0.924,0.691 -1.707,1.121 -2.346,1.29 -0.638,0.169 -1.25,0.158 -1.83,-0.03 -0.546,-0.178 -0.991,-0.488 -1.334,-0.926 -0.344,-0.441 -0.537,-0.954 -0.581,-1.541 -0.045,-0.587 0.085,-1.346 0.387,-2.277 0.291,-0.894 0.629,-1.557 1.017,-1.989 0.387,-0.432 0.834,-0.719 1.343,-0.861 0.508,-0.141 1.152,-0.143 1.931,-0.005 l -0.647,2.723 c -0.562,-0.102 -0.982,-0.079 -1.265,0.067 -0.282,0.145 -0.478,0.387 -0.588,0.725 -0.106,0.325 -0.09,0.629 0.045,0.91 0.137,0.281 0.35,0.469 0.64,0.563 0.269,0.087 0.588,0.072 0.958,-0.049 0.37,-0.119 0.968,-0.473 1.797,-1.061 1.354,-0.965 2.451,-1.565 3.291,-1.803 0.842,-0.236 1.669,-0.273 2.484,-0.109 L 2.158,0.701 Z"
       style="vector-effect:non-scaling-stroke;fill:none;stroke:#00ff00;stroke-width:0.75;stroke-linecap:butt;stroke-linejoin:miter;stroke-miterlimit:4;stroke-dasharray:none;stroke-opacity:1;-inkscape-stroke:hairline"
       transform="matrix(1.3333333,0,0,-1.3333333,-744.36556,174.95428)"
       clip-path="url(#clipPath68)" /><path
       id="path69"
       d="M 0,0 C -0.124,0.257 -0.137,0.541 -0.035,0.853 0.063,1.156 0.228,1.367 0.457,1.483 0.687,1.6 0.946,1.612 1.237,1.518 1.541,1.419 1.765,1.218 1.911,0.914 2.057,0.61 2.073,0.285 1.96,-0.062 1.934,-0.144 1.885,-0.255 1.816,-0.396 l 1.847,-0.751 c 0.015,0.398 0.056,0.701 0.123,0.909 0.127,0.39 0.35,0.659 0.665,0.808 C 4.769,0.719 5.147,0.722 5.59,0.578 6.023,0.437 6.331,0.207 6.515,-0.115 6.698,-0.436 6.731,-0.773 6.616,-1.129 6.507,-1.467 6.313,-1.712 6.036,-1.863 5.759,-2.016 5.337,-2.057 4.771,-1.988 l -0.509,-2.76 c 0.649,-0.02 1.223,0.069 1.721,0.264 0.496,0.195 0.929,0.51 1.295,0.944 0.366,0.436 0.69,1.085 0.972,1.952 0.288,0.889 0.384,1.651 0.286,2.286 C 8.438,1.334 8.183,1.88 7.768,2.335 7.353,2.791 6.867,3.109 6.312,3.29 5.871,3.434 5.462,3.469 5.085,3.397 4.711,3.325 4.374,3.162 4.076,2.91 3.891,2.754 3.693,2.507 3.482,2.168 3.379,2.705 3.196,3.141 2.937,3.474 2.677,3.808 2.34,4.042 1.929,4.176 1.226,4.403 0.553,4.316 -0.091,3.911 -0.734,3.507 -1.259,2.683 -1.663,1.439 c -0.352,-1.083 -0.411,-1.99 -0.18,-2.72 0.233,-0.729 0.714,-1.327 1.445,-1.795 l 1.26,2.357 C 0.413,-0.495 0.126,-0.256 0,0 Z"
       style="vector-effect:non-scaling-stroke;fill:none;stroke:#00ff00;stroke-width:0.75;stroke-linecap:butt;stroke-linejoin:miter;stroke-miterlimit:4;stroke-dasharray:none;stroke-opacity:1;-inkscape-stroke:hairline"
       transform="matrix(1.3333333,0,0,-1.3333333,-720.03409,180.19255)"
       clip-path="url(#clipPath70)" /><path
       id="path71"
       d="m 0,0 1.963,1.426 -1.102,1.515 1.018,0.74 -1.27,1.747 -1.017,-0.739 -3.621,4.983 -1.963,-1.426 -0.56,-7.86 1.347,-1.852 4.103,2.981 z m -4.54,1.687 0.314,4.127 1.855,-2.551 z"
       style="vector-effect:non-scaling-stroke;fill:none;stroke:#00ff00;stroke-width:0.75;stroke-linecap:butt;stroke-linejoin:miter;stroke-miterlimit:4;stroke-dasharray:none;stroke-opacity:1;-inkscape-stroke:hairline"
       transform="matrix(1.3333333,0,0,-1.3333333,-687.01195,202.58388)"
       clip-path="url(#clipPath72)" /><path
       id="path73"
       d="m 0,0 2.372,-0.342 c 0.223,0.251 0.428,0.424 0.615,0.52 0.251,0.132 0.511,0.198 0.78,0.198 0.423,0 0.763,-0.139 1.018,-0.417 0.256,-0.278 0.383,-0.716 0.383,-1.313 0,-0.583 -0.126,-1.021 -0.379,-1.316 -0.253,-0.293 -0.574,-0.44 -0.961,-0.44 -0.346,0 -0.645,0.117 -0.895,0.352 -0.251,0.235 -0.411,0.577 -0.479,1.029 l -2.816,-0.308 c 0.136,-0.47 0.307,-0.861 0.512,-1.176 0.205,-0.314 0.473,-0.596 0.804,-0.844 0.33,-0.249 0.731,-0.435 1.203,-0.56 0.471,-0.126 1.038,-0.189 1.698,-0.189 0.921,0 1.676,0.158 2.267,0.472 0.59,0.314 1.045,0.771 1.367,1.367 0.321,0.597 0.482,1.219 0.482,1.866 0,0.921 -0.312,1.684 -0.937,2.29 C 6.41,1.796 5.596,2.099 4.594,2.099 4.297,2.099 3.998,2.063 3.695,1.989 3.392,1.916 3.085,1.807 2.775,1.661 l 0.24,1.504 h 4.477 v 2.222 h -6.61 z"
       style="vector-effect:non-scaling-stroke;fill:none;stroke:#00ff00;stroke-width:0.75;stroke-linecap:butt;stroke-linejoin:miter;stroke-miterlimit:4;stroke-dasharray:none;stroke-opacity:1;-inkscape-stroke:hairline"
       transform="matrix(1.3333333,0,0,-1.3333333,-686.44955,226.67695)"
       clip-path="url(#clipPath74)" /><path
       id="path75"
       d="M 0,0 C -0.038,0.467 -0.19,0.911 -0.456,1.333 -0.722,1.753 -1.177,2.198 -1.822,2.667 -2.914,3.46 -4.014,3.74 -5.124,3.508 -6.234,3.274 -7.32,2.427 -8.384,0.962 -9.11,-0.037 -9.547,-0.946 -9.695,-1.766 c -0.146,-0.819 -0.076,-1.546 0.214,-2.178 0.289,-0.632 0.839,-1.243 1.65,-1.832 0.675,-0.491 1.319,-0.786 1.932,-0.883 0.612,-0.1 1.206,-0.02 1.779,0.239 0.575,0.259 1.056,0.655 1.444,1.191 0.576,0.792 0.802,1.628 0.677,2.507 -0.125,0.879 -0.548,1.582 -1.271,2.107 -0.372,0.27 -0.748,0.443 -1.126,0.518 -0.379,0.076 -0.803,0.075 -1.27,-0.003 0.702,0.82 1.224,1.308 1.564,1.466 0.471,0.223 0.889,0.2 1.253,-0.064 0.203,-0.149 0.327,-0.337 0.371,-0.567 0.045,-0.228 -0.017,-0.521 -0.186,-0.879 l 2.441,-1.349 C -0.037,-0.964 0.038,-0.467 0,0 Z m -5.954,-1.327 c 0.381,0.078 0.728,0.004 1.041,-0.224 0.307,-0.222 0.476,-0.528 0.508,-0.919 0.033,-0.388 -0.117,-0.812 -0.449,-1.269 -0.325,-0.447 -0.668,-0.709 -1.031,-0.79 -0.362,-0.08 -0.691,-0.013 -0.986,0.201 -0.32,0.233 -0.502,0.554 -0.541,0.965 -0.041,0.409 0.099,0.833 0.417,1.271 0.313,0.432 0.661,0.687 1.041,0.765 z"
       style="vector-effect:non-scaling-stroke;fill:none;stroke:#00ff00;stroke-width:0.75;stroke-linecap:butt;stroke-linejoin:miter;stroke-miterlimit:4;stroke-dasharray:none;stroke-opacity:1;-inkscape-stroke:hairline"
       transform="matrix(1.3333333,0,0,-1.3333333,-683.04129,252.99722)"
       clip-path="url(#clipPath76)" /><path
       id="path77"
       d="m 0,0 1.529,-4.707 c -1.515,0.576 -2.871,0.918 -4.069,1.021 -1.198,0.105 -2.609,0.008 -4.233,-0.29 l 0.858,-2.639 c 1.146,0.277 2.17,0.422 3.07,0.437 1.157,0.026 2.252,-0.094 3.288,-0.362 0.853,-0.222 1.692,-0.569 2.517,-1.044 l 1.788,0.581 -2.512,7.73 z"
       style="vector-effect:non-scaling-stroke;fill:none;stroke:#00ff00;stroke-width:0.75;stroke-linecap:butt;stroke-linejoin:miter;stroke-miterlimit:4;stroke-dasharray:none;stroke-opacity:1;-inkscape-stroke:hairline"
       transform="matrix(1.3333333,0,0,-1.3333333,-712.54196,266.95948)"
       clip-path="url(#clipPath78)" /><path
       id="path79"
       d="M 0,0 C -0.304,0.386 -0.735,0.67 -1.294,0.852 -1.866,1.037 -2.43,1.067 -2.983,0.94 -3.536,0.813 -4.02,0.522 -4.431,0.066 -4.843,-0.389 -5.212,-1.121 -5.54,-2.132 c -0.175,-0.537 -0.287,-1.06 -0.335,-1.569 -0.048,-0.51 -0.011,-0.96 0.11,-1.352 0.123,-0.391 0.356,-0.764 0.698,-1.117 0.343,-0.353 0.754,-0.608 1.23,-0.763 0.494,-0.161 0.985,-0.18 1.475,-0.059 0.49,0.121 0.942,0.399 1.357,0.835 0.133,-0.474 0.309,-0.848 0.527,-1.12 0.293,-0.364 0.656,-0.616 1.084,-0.755 0.737,-0.239 1.448,-0.133 2.131,0.318 0.683,0.451 1.232,1.314 1.646,2.588 0.312,0.962 0.369,1.799 0.169,2.511 C 4.288,-1.7 3.759,-1.113 2.96,-0.854 2.475,-0.696 2.003,-0.687 1.546,-0.826 1.211,-0.929 0.866,-1.151 0.51,-1.496 0.473,-0.885 0.304,-0.386 0,0 Z M 2.681,-3.851 C 2.815,-4.117 2.833,-4.411 2.729,-4.732 2.626,-5.049 2.438,-5.274 2.165,-5.412 1.894,-5.549 1.593,-5.564 1.264,-5.457 c -0.318,0.103 -0.542,0.284 -0.679,0.545 -0.136,0.259 -0.154,0.541 -0.056,0.845 0.111,0.341 0.302,0.583 0.569,0.723 0.269,0.14 0.567,0.157 0.897,0.051 0.32,-0.104 0.549,-0.29 0.686,-0.558 z m -3.807,1.324 c 0.18,-0.329 0.217,-0.66 0.109,-0.989 -0.108,-0.334 -0.337,-0.583 -0.689,-0.749 -0.351,-0.167 -0.736,-0.181 -1.157,-0.045 -0.416,0.135 -0.719,0.373 -0.908,0.712 -0.189,0.339 -0.233,0.668 -0.13,0.984 0.107,0.329 0.336,0.579 0.685,0.748 0.35,0.169 0.735,0.185 1.155,0.048 0.443,-0.143 0.753,-0.38 0.935,-0.709 z"
       style="vector-effect:non-scaling-stroke;fill:none;stroke:#00ff00;stroke-width:0.75;stroke-linecap:butt;stroke-linejoin:miter;stroke-miterlimit:4;stroke-dasharray:none;stroke-opacity:1;-inkscape-stroke:hairline"
       transform="matrix(1.3333333,0,0,-1.3333333,-743.09009,268.91135)"
       clip-path="url(#clipPath80)" /><path
       id="path81"
       d="m 0,0 c -0.456,0.108 -0.924,0.101 -1.405,-0.019 -0.481,-0.123 -1.043,-0.418 -1.689,-0.886 -1.092,-0.793 -1.698,-1.753 -1.82,-2.88 -0.12,-1.129 0.351,-2.423 1.413,-3.887 0.724,-0.996 1.452,-1.691 2.186,-2.084 0.734,-0.394 1.447,-0.551 2.139,-0.473 0.693,0.077 1.446,0.411 2.256,1 0.675,0.491 1.153,1.011 1.435,1.562 0.281,0.55 0.388,1.14 0.321,1.767 -0.067,0.627 -0.296,1.211 -0.688,1.749 -0.573,0.789 -1.296,1.26 -2.171,1.413 -0.874,0.153 -1.675,-0.034 -2.402,-0.562 -0.372,-0.271 -0.652,-0.574 -0.844,-0.908 -0.189,-0.336 -0.319,-0.74 -0.387,-1.212 -0.558,0.923 -0.861,1.574 -0.909,1.95 -0.063,0.512 0.086,0.9 0.448,1.162 0.202,0.148 0.421,0.207 0.655,0.18 0.233,-0.026 0.494,-0.175 0.78,-0.446 l 2.036,1.909 C 0.907,-0.33 0.456,-0.108 0,0 Z m -0.575,-6.071 c 0.042,0.385 0.221,0.693 0.539,0.924 C 0.27,-4.925 0.612,-4.86 0.99,-4.951 1.368,-5.042 1.724,-5.314 2.053,-5.768 2.38,-6.217 2.526,-6.626 2.492,-6.994 2.458,-7.363 2.292,-7.655 1.993,-7.872 1.677,-8.103 1.317,-8.174 0.915,-8.085 c -0.402,0.087 -0.764,0.352 -1.082,0.79 -0.312,0.431 -0.449,0.839 -0.408,1.224 z"
       style="vector-effect:non-scaling-stroke;fill:none;stroke:#00ff00;stroke-width:0.75;stroke-linecap:butt;stroke-linejoin:miter;stroke-miterlimit:4;stroke-dasharray:none;stroke-opacity:1;-inkscape-stroke:hairline"
       transform="matrix(1.3333333,0,0,-1.3333333,-767.99382,249.42308)"
       clip-path="url(#clipPath82)" /><path
       id="path83"
       d="m 0,0 c -0.134,0.641 -0.322,1.146 -0.564,1.515 -0.332,0.519 -0.759,0.914 -1.278,1.182 -0.52,0.269 -1.201,0.404 -2.044,0.404 -1.504,0 -2.564,-0.422 -3.179,-1.265 -0.615,-0.843 -0.923,-2.174 -0.923,-3.992 0,-0.812 0.093,-1.591 0.28,-2.338 0.096,-0.392 0.223,-0.735 0.38,-1.029 0.157,-0.293 0.372,-0.575 0.646,-0.84 0.273,-0.268 0.626,-0.484 1.059,-0.651 0.434,-0.166 0.987,-0.249 1.662,-0.249 1.403,0 2.448,0.381 3.134,1.142 0.686,0.761 1.029,2.094 1.029,3.999 C 0.202,-1.348 0.134,-0.64 0,0 Z m -2.868,-4.709 c -0.205,-0.468 -0.537,-0.701 -0.998,-0.701 -0.451,0 -0.789,0.228 -1.015,0.687 -0.225,0.457 -0.338,1.352 -0.338,2.683 0,0.907 0.049,1.574 0.147,2.003 0.098,0.429 0.25,0.742 0.458,0.939 0.207,0.2 0.452,0.298 0.735,0.298 0.428,0 0.755,-0.233 0.981,-0.7 0.225,-0.468 0.338,-1.339 0.338,-2.615 0,-1.263 -0.103,-2.127 -0.308,-2.594 z"
       style="vector-effect:non-scaling-stroke;fill:none;stroke:#00ff00;stroke-width:0.75;stroke-linecap:butt;stroke-linejoin:miter;stroke-miterlimit:4;stroke-dasharray:none;stroke-opacity:1;-inkscape-stroke:hairline"
       transform="matrix(1.3333333,0,0,-1.3333333,-772.57382,225.54282)"
       clip-path="url(#clipPath84)" /></g></svg>
