<?xml version="1.0" encoding="UTF-8" standalone="no"?>
<svg
   xmlns:dc="http://purl.org/dc/elements/1.1/"
   xmlns:cc="http://creativecommons.org/ns#"
   xmlns:rdf="http://www.w3.org/1999/02/22-rdf-syntax-ns#"
   xmlns:svg="http://www.w3.org/2000/svg"
   xmlns="http://www.w3.org/2000/svg"
   xmlns:sodipodi="http://sodipodi.sourceforge.net/DTD/sodipodi-0.dtd"
   xmlns:inkscape="http://www.inkscape.org/namespaces/inkscape"
   width="192.941mm"
   height="65.646mm"
   viewBox="6.045929 -287.687286 192.941071 65.645996"
   version="1.1"
   id="svg234"
   sodipodi:docname="Question Marks.svg"
   inkscape:version="0.92.4 (5da689c313, 2019-01-14)">
  <metadata
     id="metadata240">
    <rdf:RDF>
      <cc:Work
         rdf:about="">
        <dc:format>image/svg+xml</dc:format>
        <dc:type
           rdf:resource="http://purl.org/dc/dcmitype/StillImage" />
        <dc:title></dc:title>
      </cc:Work>
    </rdf:RDF>
  </metadata>
  <defs
     id="defs238" />
  <sodipodi:namedview
     pagecolor="#ffffff"
     bordercolor="#666666"
     borderopacity="1"
     objecttolerance="10"
     gridtolerance="10"
     guidetolerance="10"
     inkscape:pageopacity="0"
     inkscape:pageshadow="2"
     inkscape:window-width="1920"
     inkscape:window-height="1017"
     id="namedview236"
     showgrid="false"
     inkscape:zoom="1.5578165"
     inkscape:cx="396.82372"
     inkscape:cy="183.37094"
     inkscape:window-x="-8"
     inkscape:window-y="-8"
     inkscape:window-maximized="1"
     inkscape:current-layer="svg234" />
  <circle
     transform="matrix(-0,1,1,0,165.376007,-274.744995)"
     style="stroke:#000000;stroke-width:0.35277782;fill:none;stroke-opacity:1;stroke-miterlimit:4;stroke-dasharray:none"
     r="1.999994"
     cx="0"
     cy="0"
     id="circle2" />
  <circle
     transform="matrix(-0,1,1,0,170.328003,-274.963989)"
     style="stroke:#000000;stroke-width:0.35277782;fill:none;stroke-opacity:1;stroke-miterlimit:4;stroke-dasharray:none"
     r="1.999994"
     cx="0"
     cy="0"
     id="circle4" />
  <circle
     transform="matrix(-0,1,1,0,174.964996,-274.923004)"
     style="stroke:#000000;stroke-width:0.35277782;fill:none;stroke-opacity:1;stroke-miterlimit:4;stroke-dasharray:none"
     r="1.999994"
     cx="0"
     cy="0"
     id="circle6" />
  <circle
     transform="matrix(-0,1,1,0,160.837006,-274.683014)"
     style="stroke:#000000;stroke-width:0.35277782;fill:none;stroke-opacity:1;stroke-miterlimit:4;stroke-dasharray:none"
     r="1.999994"
     cx="0"
     cy="0"
     id="circle8" />
  <circle
     transform="matrix(-0,1,1,0,165.248001,-270.02301)"
     style="stroke:#000000;stroke-width:0.35277782;fill:none;stroke-opacity:1;stroke-miterlimit:4;stroke-dasharray:none"
     r="1.999994"
     cx="0"
     cy="0"
     id="circle10" />
  <circle
     transform="matrix(-0,1,1,0,170.201996,-270.240997)"
     style="stroke:#000000;stroke-width:0.35277782;fill:none;stroke-opacity:1;stroke-miterlimit:4;stroke-dasharray:none"
     r="1.999994"
     cx="0"
     cy="0"
     id="circle12" />
  <circle
     transform="matrix(-0,1,1,0,174.837997,-270.200989)"
     style="stroke:#000000;stroke-width:0.35277782;fill:none;stroke-opacity:1;stroke-miterlimit:4;stroke-dasharray:none"
     r="1.999994"
     cx="0"
     cy="0"
     id="circle14" />
  <circle
     transform="matrix(-0,1,1,0,160.710999,-269.959991)"
     style="stroke:#000000;stroke-width:0.35277782;fill:none;stroke-opacity:1;stroke-miterlimit:4;stroke-dasharray:none"
     r="1.999994"
     cx="0"
     cy="0"
     id="circle16" />
  <circle
     transform="matrix(-0,1,1,0,165.518997,-284.779999)"
     style="stroke:#000000;stroke-width:0.35277782;fill:none;stroke-opacity:1;stroke-miterlimit:4;stroke-dasharray:none"
     r="1.999998"
     cx="0"
     cy="0"
     id="circle18" />
  <circle
     transform="matrix(-0,1,1,0,170.473007,-284.997986)"
     style="stroke:#000000;stroke-width:0.35277782;fill:none;stroke-opacity:1;stroke-miterlimit:4;stroke-dasharray:none"
     r="1.999998"
     cx="0"
     cy="0"
     id="circle20" />
  <circle
     transform="matrix(-0,1,1,0,175.108994,-284.958008)"
     style="stroke:#000000;stroke-width:0.35277782;fill:none;stroke-opacity:1;stroke-miterlimit:4;stroke-dasharray:none"
     r="2.000002"
     cx="0"
     cy="0"
     id="circle22" />
  <circle
     transform="matrix(-0,1,1,0,160.981995,-284.71701)"
     style="stroke:#000000;stroke-width:0.35277782;fill:none;stroke-opacity:1;stroke-miterlimit:4;stroke-dasharray:none"
     r="2.000002"
     cx="0"
     cy="0"
     id="circle24" />
  <circle
     transform="matrix(-0,1,1,0,165.382996,-279.770996)"
     style="stroke:#000000;stroke-width:0.35277782;fill:none;stroke-opacity:1;stroke-miterlimit:4;stroke-dasharray:none"
     r="1.999994"
     cx="0"
     cy="0"
     id="circle26" />
  <circle
     transform="matrix(-0,1,1,0,170.335999,-279.989014)"
     style="stroke:#000000;stroke-width:0.35277782;fill:none;stroke-opacity:1;stroke-miterlimit:4;stroke-dasharray:none"
     r="1.999994"
     cx="0"
     cy="0"
     id="circle28" />
  <circle
     transform="matrix(-0,1,1,0,174.973007,-279.949005)"
     style="stroke:#000000;stroke-width:0.35277782;fill:none;stroke-opacity:1;stroke-miterlimit:4;stroke-dasharray:none"
     r="1.999994"
     cx="0"
     cy="0"
     id="circle30" />
  <circle
     transform="matrix(-0,1,1,0,160.845993,-279.708008)"
     style="stroke:#000000;stroke-width:0.35277782;fill:none;stroke-opacity:1;stroke-miterlimit:4;stroke-dasharray:none"
     r="1.999994"
     cx="0"
     cy="0"
     id="circle32" />
  <circle
     transform="matrix(-0,1,1,0,164.977005,-265.013)"
     style="stroke:#000000;stroke-width:0.35277782;fill:none;stroke-opacity:1;stroke-miterlimit:4;stroke-dasharray:none"
     r="1.999994"
     cx="0"
     cy="0"
     id="circle34" />
  <circle
     transform="matrix(-0,1,1,0,169.929993,-265.230988)"
     style="stroke:#000000;stroke-width:0.35277782;fill:none;stroke-opacity:1;stroke-miterlimit:4;stroke-dasharray:none"
     r="1.999994"
     cx="0"
     cy="0"
     id="circle36" />
  <circle
     transform="matrix(-0,1,1,0,160.438995,-264.950012)"
     style="stroke:#000000;stroke-width:0.35277782;fill:none;stroke-opacity:1;stroke-miterlimit:4;stroke-dasharray:none"
     r="1.999994"
     cx="0"
     cy="0"
     id="circle38" />
  <circle
     transform="matrix(-0,1,1,0,174.376999,-265.390991)"
     style="stroke:#000000;stroke-width:0.35277782;fill:none;stroke-opacity:1;stroke-miterlimit:4;stroke-dasharray:none"
     r="1.999994"
     cx="0"
     cy="0"
     id="circle40" />
  <circle
     transform="matrix(-0,1,1,0,174.787003,-259.803009)"
     style="stroke:#000000;stroke-width:0.35277782;fill:none;stroke-opacity:1;stroke-miterlimit:4;stroke-dasharray:none"
     r="1.999994"
     cx="0"
     cy="0"
     id="circle42" />
  <circle
     transform="matrix(-0,1,1,0,170.339996,-259.643005)"
     style="stroke:#000000;stroke-width:0.35277782;fill:none;stroke-opacity:1;stroke-miterlimit:4;stroke-dasharray:none"
     r="1.999994"
     cx="0"
     cy="0"
     id="circle44" />
  <circle
     transform="matrix(-0,1,1,0,160.850006,-259.362)"
     style="stroke:#000000;stroke-width:0.35277782;fill:none;stroke-opacity:1;stroke-miterlimit:4;stroke-dasharray:none"
     r="1.999994"
     cx="0"
     cy="0"
     id="circle46" />
  <circle
     transform="matrix(-0,1,1,0,165.386993,-259.424988)"
     style="stroke:#000000;stroke-width:0.35277782;fill:none;stroke-opacity:1;stroke-miterlimit:4;stroke-dasharray:none"
     r="1.999994"
     cx="0"
     cy="0"
     id="circle48" />
  <path
     transform="matrix(0.027287,0,0,-0.027305,2.634995,-247.938797)"
     style="stroke:#000000;stroke-width:12.92415869;fill:none;stroke-opacity:1;stroke-miterlimit:4;stroke-dasharray:none"
     d="M1072.687744,1349.5L1146.982422,1250.5L1146.991211,1063.502441L1147,876.505005L1072.752563,802.252502L998.505005,728L884.757324,728L771.009583,728L770.754822,627.75L770.5,527.5L623.25,527.246704L476,526.993408L476.008118,688.246704L476.016235,849.5L525.394958,898.75L574.773682,948L700.89032,948L827.006897,948L826.753479,1088.75L826.5,1229.5L626.5,1229.782837C516.5,1229.938477,425.037506,1229.805542,423.25,1229.487549L420,1228.909424L420,1103.954712L420,979L272.5,979L125,979L125,1139.795898L125,1300.591797L186.75,1374.769409L248.5,1448.947021L623.446533,1448.723511L998.393066,1448.5L1072.687744,1349.5z"
     id="path50" />
  <path
     transform="matrix(0.027287,0,0,-0.027305,2.634995,-247.938797)"
     style="stroke:#000000;stroke-width:12.92415869;fill:none;stroke-opacity:1;stroke-miterlimit:4;stroke-dasharray:none"
     d="M771,361.5L771,277L623.5,277L476,277L476,361.5L476,446L623.5,446L771,446L771,361.5z"
     id="path52" />
  <path
     transform="matrix(0.027287,0,0,-0.027305,63.037598,-248.123795)"
     style="stroke:#000000;stroke-width:12.92415869;fill:none;stroke-opacity:1;stroke-miterlimit:4;stroke-dasharray:none"
     d="M1072.687744,1349.5L1146.982422,1250.5L1146.991211,1063.502441L1147,876.505005L1072.752563,802.252502L998.505005,728L884.757324,728L771.009583,728L770.754822,627.75L770.5,527.5L623.25,527.246704L476,526.993408L476.008118,688.246704L476.016235,849.5L525.394958,898.75L574.773682,948L700.89032,948L827.006897,948L826.753479,1088.75L826.5,1229.5L626.5,1229.782837C516.5,1229.938477,425.037506,1229.805542,423.25,1229.487549L420,1228.909424L420,1103.954712L420,979L272.5,979L125,979L125,1139.795898L125,1300.591797L186.75,1374.769409L248.5,1448.947021L623.446533,1448.723511L998.393066,1448.5L1072.687744,1349.5z"
     id="path54" />
  <path
     transform="matrix(0.027287,0,0,-0.027305,63.037598,-248.123795)"
     style="stroke:#000000;stroke-width:12.92415869;fill:none;stroke-opacity:1;stroke-miterlimit:4;stroke-dasharray:none"
     d="M771,361.5L771,277L623.5,277L476,277L476,361.5L476,446L623.5,446L771,446L771,361.5z"
     id="path56" />
  <path
     transform="matrix(0.027287,0,0,-0.027305,122.781792,-247.602798)"
     style="stroke:#000000;stroke-width:12.92415869;fill:none;stroke-opacity:1;stroke-miterlimit:4;stroke-dasharray:none"
     d="M1072.687744,1349.5L1146.982422,1250.5L1146.991211,1063.502441L1147,876.505005L1072.752563,802.252502L998.505005,728L884.757324,728L771.009583,728L770.754822,627.75L770.5,527.5L623.25,527.246704L476,526.993408L476.008118,688.246704L476.016235,849.5L525.394958,898.75L574.773682,948L700.89032,948L827.006897,948L826.753479,1088.75L826.5,1229.5L626.5,1229.782837C516.5,1229.938477,425.037506,1229.805542,423.25,1229.487549L420,1228.909424L420,1103.954712L420,979L272.5,979L125,979L125,1139.795898L125,1300.591797L186.75,1374.769409L248.5,1448.947021L623.446533,1448.723511L998.393066,1448.5L1072.687744,1349.5z"
     id="path58" />
  <path
     transform="matrix(0.027287,0,0,-0.027305,122.781792,-247.602798)"
     style="stroke:#000000;stroke-width:12.92415869;fill:none;stroke-opacity:1;stroke-miterlimit:4;stroke-dasharray:none"
     d="M771,361.5L771,277L623.5,277L476,277L476,361.5L476,446L623.5,446L771,446L771,361.5z"
     id="path60" />
  <path
     transform="matrix(0.027287,0,0,-0.027305,92.912399,-247.863785)"
     style="stroke:#000000;stroke-width:12.92415869;fill:none;stroke-opacity:1;stroke-miterlimit:4;stroke-dasharray:none"
     d="M1072.687744,1349.5L1146.982422,1250.5L1146.991211,1063.502441L1147,876.505005L1072.752563,802.252502L998.505005,728L884.757324,728L771.009583,728L770.754822,627.75L770.5,527.5L623.25,527.246704L476,526.993408L476.008118,688.246704L476.016235,849.5L525.394958,898.75L574.773682,948L700.89032,948L827.006897,948L826.753479,1088.75L826.5,1229.5L626.5,1229.782837C516.5,1229.938477,425.037506,1229.805542,423.25,1229.487549L420,1228.909424L420,1103.954712L420,979L272.5,979L125,979L125,1139.795898L125,1300.591797L186.75,1374.769409L248.5,1448.947021L623.446533,1448.723511L998.393066,1448.5L1072.687744,1349.5z"
     id="path62" />
  <path
     transform="matrix(0.027287,0,0,-0.027305,92.912399,-247.863785)"
     style="stroke:#000000;stroke-width:12.92415869;fill:none;stroke-opacity:1;stroke-miterlimit:4;stroke-dasharray:none"
     d="M771,361.5L771,277L623.5,277L476,277L476,361.5L476,446L623.5,446L771,446L771,361.5z"
     id="path64" />
  <path
     transform="matrix(0.027287,0,0,-0.02608,32.662994,-249.699982)"
     style="stroke:#000000;stroke-width:13.22420518;fill:none;stroke-opacity:1;stroke-miterlimit:4;stroke-dasharray:none"
     d="M1072.687744,1349.5L1146.982422,1250.5L1146.991211,1063.502441L1147,876.505005L1072.752563,802.252502L998.505005,728L884.757324,728L771.009583,728L770.754822,627.75L770.5,527.5L623.25,527.246704L476,526.993408L476.008118,688.246704L476.016235,849.5L525.394958,898.75L574.773682,948L700.89032,948L827.006897,948L826.753479,1088.75L826.5,1229.5L626.5,1229.782837C516.5,1229.938477,425.037506,1229.805542,423.25,1229.487549L420,1228.909424L420,1103.954712L420,979L272.5,979L125,979L125,1139.795898L125,1300.591797L186.75,1374.769409L248.5,1448.947021L623.446533,1448.723511L998.393066,1448.5L1072.687744,1349.5z"
     id="path66" />
  <path
     transform="matrix(0.027287,0,0,-0.02608,32.662994,-249.699982)"
     style="stroke:#000000;stroke-width:13.22420518;fill:none;stroke-opacity:1;stroke-miterlimit:4;stroke-dasharray:none"
     d="M771,361.5L771,277L623.5,277L476,277L476,361.5L476,446L623.5,446L771,446L771,361.5z"
     id="path68" />
  <circle
     transform="matrix(-0,1,1,0,185.447006,-274.632996)"
     style="stroke:#000000;stroke-width:0.35277782;fill:none;stroke-opacity:1;stroke-miterlimit:4;stroke-dasharray:none"
     r="1.999994"
     cx="0"
     cy="0"
     id="circle70" />
  <circle
     transform="matrix(-0,1,1,0,190.399002,-274.85199)"
     style="stroke:#000000;stroke-width:0.35277782;fill:none;stroke-opacity:1;stroke-miterlimit:4;stroke-dasharray:none"
     r="1.999994"
     cx="0"
     cy="0"
     id="circle72" />
  <circle
     transform="matrix(-0,1,1,0,195.035995,-274.811005)"
     style="stroke:#000000;stroke-width:0.35277782;fill:none;stroke-opacity:1;stroke-miterlimit:4;stroke-dasharray:none"
     r="1.999994"
     cx="0"
     cy="0"
     id="circle74" />
  <circle
     transform="matrix(-0,1,1,0,180.908005,-274.571014)"
     style="stroke:#000000;stroke-width:0.35277782;fill:none;stroke-opacity:1;stroke-miterlimit:4;stroke-dasharray:none"
     r="1.999994"
     cx="0"
     cy="0"
     id="circle76" />
  <circle
     transform="matrix(-0,1,1,0,185.319,-269.911011)"
     style="stroke:#000000;stroke-width:0.35277782;fill:none;stroke-opacity:1;stroke-miterlimit:4;stroke-dasharray:none"
     r="1.999994"
     cx="0"
     cy="0"
     id="circle78" />
  <circle
     transform="matrix(-0,1,1,0,190.272995,-270.128998)"
     style="stroke:#000000;stroke-width:0.35277782;fill:none;stroke-opacity:1;stroke-miterlimit:4;stroke-dasharray:none"
     r="1.999994"
     cx="0"
     cy="0"
     id="circle80" />
  <circle
     transform="matrix(-0,1,1,0,194.908997,-270.088989)"
     style="stroke:#000000;stroke-width:0.35277782;fill:none;stroke-opacity:1;stroke-miterlimit:4;stroke-dasharray:none"
     r="1.999994"
     cx="0"
     cy="0"
     id="circle82" />
  <circle
     transform="matrix(-0,1,1,0,180.781998,-269.847992)"
     style="stroke:#000000;stroke-width:0.35277782;fill:none;stroke-opacity:1;stroke-miterlimit:4;stroke-dasharray:none"
     r="1.999994"
     cx="0"
     cy="0"
     id="circle84" />
  <circle
     transform="matrix(-0,1,1,0,185.589996,-284.667999)"
     style="stroke:#000000;stroke-width:0.35277782;fill:none;stroke-opacity:1;stroke-miterlimit:4;stroke-dasharray:none"
     r="1.999998"
     cx="0"
     cy="0"
     id="circle86" />
  <circle
     transform="matrix(-0,1,1,0,190.544006,-284.885986)"
     style="stroke:#000000;stroke-width:0.35277782;fill:none;stroke-opacity:1;stroke-miterlimit:4;stroke-dasharray:none"
     r="1.999998"
     cx="0"
     cy="0"
     id="circle88" />
  <circle
     transform="matrix(-0,1,1,0,195.179993,-284.846008)"
     style="stroke:#000000;stroke-width:0.35277782;fill:none;stroke-opacity:1;stroke-miterlimit:4;stroke-dasharray:none"
     r="2.000002"
     cx="0"
     cy="0"
     id="circle90" />
  <circle
     transform="matrix(-0,1,1,0,181.052994,-284.605011)"
     style="stroke:#000000;stroke-width:0.35277782;fill:none;stroke-opacity:1;stroke-miterlimit:4;stroke-dasharray:none"
     r="2.000002"
     cx="0"
     cy="0"
     id="circle92" />
  <circle
     transform="matrix(-0,1,1,0,185.453995,-279.658997)"
     style="stroke:#000000;stroke-width:0.35277782;fill:none;stroke-opacity:1;stroke-miterlimit:4;stroke-dasharray:none"
     r="1.999994"
     cx="0"
     cy="0"
     id="circle94" />
  <circle
     transform="matrix(-0,1,1,0,190.406998,-279.877014)"
     style="stroke:#000000;stroke-width:0.35277782;fill:none;stroke-opacity:1;stroke-miterlimit:4;stroke-dasharray:none"
     r="1.999994"
     cx="0"
     cy="0"
     id="circle96" />
  <circle
     transform="matrix(-0,1,1,0,195.044006,-279.837006)"
     style="stroke:#000000;stroke-width:0.35277782;fill:none;stroke-opacity:1;stroke-miterlimit:4;stroke-dasharray:none"
     r="1.999994"
     cx="0"
     cy="0"
     id="circle98" />
  <circle
     transform="matrix(-0,1,1,0,180.917007,-279.596008)"
     style="stroke:#000000;stroke-width:0.35277782;fill:none;stroke-opacity:1;stroke-miterlimit:4;stroke-dasharray:none"
     r="1.999994"
     cx="0"
     cy="0"
     id="circle100" />
  <circle
     transform="matrix(-0,1,1,0,185.048004,-264.901001)"
     style="stroke:#000000;stroke-width:0.35277782;fill:none;stroke-opacity:1;stroke-miterlimit:4;stroke-dasharray:none"
     r="1.999994"
     cx="0"
     cy="0"
     id="circle102" />
  <circle
     transform="matrix(-0,1,1,0,190.001007,-265.118988)"
     style="stroke:#000000;stroke-width:0.35277782;fill:none;stroke-opacity:1;stroke-miterlimit:4;stroke-dasharray:none"
     r="1.999994"
     cx="0"
     cy="0"
     id="circle104" />
  <circle
     transform="matrix(-0,1,1,0,180.509995,-264.838013)"
     style="stroke:#000000;stroke-width:0.35277782;fill:none;stroke-opacity:1;stroke-miterlimit:4;stroke-dasharray:none"
     r="1.999994"
     cx="0"
     cy="0"
     id="circle106" />
  <circle
     transform="matrix(-0,1,1,0,194.447998,-265.278992)"
     style="stroke:#000000;stroke-width:0.35277782;fill:none;stroke-opacity:1;stroke-miterlimit:4;stroke-dasharray:none"
     r="1.999994"
     cx="0"
     cy="0"
     id="circle108" />
  <circle
     transform="matrix(-0,1,1,0,194.858002,-259.69101)"
     style="stroke:#000000;stroke-width:0.35277782;fill:none;stroke-opacity:1;stroke-miterlimit:4;stroke-dasharray:none"
     r="1.999994"
     cx="0"
     cy="0"
     id="circle110" />
  <circle
     transform="matrix(-0,1,1,0,190.410995,-259.531006)"
     style="stroke:#000000;stroke-width:0.35277782;fill:none;stroke-opacity:1;stroke-miterlimit:4;stroke-dasharray:none"
     r="1.999994"
     cx="0"
     cy="0"
     id="circle112" />
  <circle
     transform="matrix(-0,1,1,0,180.921005,-259.25)"
     style="stroke:#000000;stroke-width:0.35277782;fill:none;stroke-opacity:1;stroke-miterlimit:4;stroke-dasharray:none"
     r="1.999994"
     cx="0"
     cy="0"
     id="circle114" />
  <circle
     transform="matrix(-0,1,1,0,185.457993,-259.312988)"
     style="stroke:#000000;stroke-width:0.35277782;fill:none;stroke-opacity:1;stroke-miterlimit:4;stroke-dasharray:none"
     r="1.999994"
     cx="0"
     cy="0"
     id="circle116" />
  <circle
     transform="matrix(-0,1,1,0,167.182999,-241.619995)"
     style="stroke:#000000;stroke-width:0.35277782;fill:none;stroke-opacity:1;stroke-miterlimit:4;stroke-dasharray:none"
     r="1.999994"
     cx="0"
     cy="0"
     id="circle118" />
  <circle
     transform="matrix(-0,1,1,0,172.134995,-241.839005)"
     style="stroke:#000000;stroke-width:0.35277782;fill:none;stroke-opacity:1;stroke-miterlimit:4;stroke-dasharray:none"
     r="1.999994"
     cx="0"
     cy="0"
     id="circle120" />
  <circle
     transform="matrix(-0,1,1,0,176.772003,-241.798004)"
     style="stroke:#000000;stroke-width:0.35277782;fill:none;stroke-opacity:1;stroke-miterlimit:4;stroke-dasharray:none"
     r="1.999994"
     cx="0"
     cy="0"
     id="circle122" />
  <circle
     transform="matrix(-0,1,1,0,162.643997,-241.557999)"
     style="stroke:#000000;stroke-width:0.35277782;fill:none;stroke-opacity:1;stroke-miterlimit:4;stroke-dasharray:none"
     r="1.999994"
     cx="0"
     cy="0"
     id="circle124" />
  <circle
     transform="matrix(-0,1,1,0,167.054993,-236.897995)"
     style="stroke:#000000;stroke-width:0.35277782;fill:none;stroke-opacity:1;stroke-miterlimit:4;stroke-dasharray:none"
     r="1.999994"
     cx="0"
     cy="0"
     id="circle126" />
  <circle
     transform="matrix(-0,1,1,0,172.009003,-237.115997)"
     style="stroke:#000000;stroke-width:0.35277782;fill:none;stroke-opacity:1;stroke-miterlimit:4;stroke-dasharray:none"
     r="1.999994"
     cx="0"
     cy="0"
     id="circle128" />
  <circle
     transform="matrix(-0,1,1,0,176.645004,-237.076004)"
     style="stroke:#000000;stroke-width:0.35277782;fill:none;stroke-opacity:1;stroke-miterlimit:4;stroke-dasharray:none"
     r="1.999994"
     cx="0"
     cy="0"
     id="circle130" />
  <circle
     transform="matrix(-0,1,1,0,162.518005,-236.835007)"
     style="stroke:#000000;stroke-width:0.35277782;fill:none;stroke-opacity:1;stroke-miterlimit:4;stroke-dasharray:none"
     r="1.999994"
     cx="0"
     cy="0"
     id="circle132" />
  <circle
     transform="matrix(-0,1,1,0,167.326004,-251.654999)"
     style="stroke:#000000;stroke-width:0.35277782;fill:none;stroke-opacity:1;stroke-miterlimit:4;stroke-dasharray:none"
     r="1.999998"
     cx="0"
     cy="0"
     id="circle134" />
  <circle
     transform="matrix(-0,1,1,0,172.279999,-251.873001)"
     style="stroke:#000000;stroke-width:0.35277782;fill:none;stroke-opacity:1;stroke-miterlimit:4;stroke-dasharray:none"
     r="1.999998"
     cx="0"
     cy="0"
     id="circle136" />
  <circle
     transform="matrix(-0,1,1,0,176.916,-251.832993)"
     style="stroke:#000000;stroke-width:0.35277782;fill:none;stroke-opacity:1;stroke-miterlimit:4;stroke-dasharray:none"
     r="2.000002"
     cx="0"
     cy="0"
     id="circle138" />
  <circle
     transform="matrix(-0,1,1,0,162.789001,-251.591995)"
     style="stroke:#000000;stroke-width:0.35277782;fill:none;stroke-opacity:1;stroke-miterlimit:4;stroke-dasharray:none"
     r="2.000002"
     cx="0"
     cy="0"
     id="circle140" />
  <circle
     transform="matrix(-0,1,1,0,167.190002,-246.645996)"
     style="stroke:#000000;stroke-width:0.35277782;fill:none;stroke-opacity:1;stroke-miterlimit:4;stroke-dasharray:none"
     r="1.999994"
     cx="0"
     cy="0"
     id="circle142" />
  <circle
     transform="matrix(-0,1,1,0,172.143005,-246.863998)"
     style="stroke:#000000;stroke-width:0.35277782;fill:none;stroke-opacity:1;stroke-miterlimit:4;stroke-dasharray:none"
     r="1.999994"
     cx="0"
     cy="0"
     id="circle144" />
  <circle
     transform="matrix(-0,1,1,0,176.779999,-246.824005)"
     style="stroke:#000000;stroke-width:0.35277782;fill:none;stroke-opacity:1;stroke-miterlimit:4;stroke-dasharray:none"
     r="1.999994"
     cx="0"
     cy="0"
     id="circle146" />
  <circle
     transform="matrix(-0,1,1,0,162.653,-246.582993)"
     style="stroke:#000000;stroke-width:0.35277782;fill:none;stroke-opacity:1;stroke-miterlimit:4;stroke-dasharray:none"
     r="1.999994"
     cx="0"
     cy="0"
     id="circle148" />
  <circle
     transform="matrix(-0,1,1,0,166.783997,-231.888)"
     style="stroke:#000000;stroke-width:0.35277782;fill:none;stroke-opacity:1;stroke-miterlimit:4;stroke-dasharray:none"
     r="1.999994"
     cx="0"
     cy="0"
     id="circle150" />
  <circle
     transform="matrix(-0,1,1,0,171.737,-232.106003)"
     style="stroke:#000000;stroke-width:0.35277782;fill:none;stroke-opacity:1;stroke-miterlimit:4;stroke-dasharray:none"
     r="1.999994"
     cx="0"
     cy="0"
     id="circle152" />
  <circle
     transform="matrix(-0,1,1,0,162.246002,-231.824997)"
     style="stroke:#000000;stroke-width:0.35277782;fill:none;stroke-opacity:1;stroke-miterlimit:4;stroke-dasharray:none"
     r="1.999994"
     cx="0"
     cy="0"
     id="circle154" />
  <circle
     transform="matrix(-0,1,1,0,176.184006,-232.266006)"
     style="stroke:#000000;stroke-width:0.35277782;fill:none;stroke-opacity:1;stroke-miterlimit:4;stroke-dasharray:none"
     r="1.999994"
     cx="0"
     cy="0"
     id="circle156" />
  <circle
     transform="matrix(-0,1,1,0,176.593994,-226.677994)"
     style="stroke:#000000;stroke-width:0.35277782;fill:none;stroke-opacity:1;stroke-miterlimit:4;stroke-dasharray:none"
     r="1.999994"
     cx="0"
     cy="0"
     id="circle158" />
  <circle
     transform="matrix(-0,1,1,0,172.147003,-226.518005)"
     style="stroke:#000000;stroke-width:0.35277782;fill:none;stroke-opacity:1;stroke-miterlimit:4;stroke-dasharray:none"
     r="1.999994"
     cx="0"
     cy="0"
     id="circle160" />
  <circle
     transform="matrix(-0,1,1,0,162.656998,-226.237)"
     style="stroke:#000000;stroke-width:0.35277782;fill:none;stroke-opacity:1;stroke-miterlimit:4;stroke-dasharray:none"
     r="1.999994"
     cx="0"
     cy="0"
     id="circle162" />
  <circle
     transform="matrix(-0,1,1,0,167.194,-226.300003)"
     style="stroke:#000000;stroke-width:0.35277782;fill:none;stroke-opacity:1;stroke-miterlimit:4;stroke-dasharray:none"
     r="1.999994"
     cx="0"
     cy="0"
     id="circle164" />
  <path
     transform="matrix(0.027287,0,0,-0.027305,4.442001,-214.813797)"
     style="stroke:#000000;stroke-width:12.92415869;fill:none;stroke-opacity:1;stroke-miterlimit:4;stroke-dasharray:none"
     d="M1072.687744,1349.5L1146.982422,1250.5L1146.991211,1063.502441L1147,876.505005L1072.752563,802.252502L998.505005,728L884.757324,728L771.009583,728L770.754822,627.75L770.5,527.5L623.25,527.246704L476,526.993408L476.008118,688.246704L476.016235,849.5L525.394958,898.75L574.773682,948L700.89032,948L827.006897,948L826.753479,1088.75L826.5,1229.5L626.5,1229.782837C516.5,1229.938477,425.037506,1229.805542,423.25,1229.487549L420,1228.909424L420,1103.954712L420,979L272.5,979L125,979L125,1139.795898L125,1300.591797L186.75,1374.769409L248.5,1448.947021L623.446533,1448.723511L998.393066,1448.5L1072.687744,1349.5z"
     id="path166" />
  <path
     transform="matrix(0.027287,0,0,-0.027305,4.442001,-214.813797)"
     style="stroke:#000000;stroke-width:12.92415869;fill:none;stroke-opacity:1;stroke-miterlimit:4;stroke-dasharray:none"
     d="M771,361.5L771,277L623.5,277L476,277L476,361.5L476,446L623.5,446L771,446L771,361.5z"
     id="path168" />
  <path
     transform="matrix(0.027287,0,0,-0.027305,64.844696,-214.998795)"
     style="stroke:#000000;stroke-width:12.92415869;fill:none;stroke-opacity:1;stroke-miterlimit:4;stroke-dasharray:none"
     d="M1072.687744,1349.5L1146.982422,1250.5L1146.991211,1063.502441L1147,876.505005L1072.752563,802.252502L998.505005,728L884.757324,728L771.009583,728L770.754822,627.75L770.5,527.5L623.25,527.246704L476,526.993408L476.008118,688.246704L476.016235,849.5L525.394958,898.75L574.773682,948L700.89032,948L827.006897,948L826.753479,1088.75L826.5,1229.5L626.5,1229.782837C516.5,1229.938477,425.037506,1229.805542,423.25,1229.487549L420,1228.909424L420,1103.954712L420,979L272.5,979L125,979L125,1139.795898L125,1300.591797L186.75,1374.769409L248.5,1448.947021L623.446533,1448.723511L998.393066,1448.5L1072.687744,1349.5z"
     id="path170" />
  <path
     transform="matrix(0.027287,0,0,-0.027305,64.844696,-214.998795)"
     style="stroke:#000000;stroke-width:12.92415869;fill:none;stroke-opacity:1;stroke-miterlimit:4;stroke-dasharray:none"
     d="M771,361.5L771,277L623.5,277L476,277L476,361.5L476,446L623.5,446L771,446L771,361.5z"
     id="path172" />
  <path
     transform="matrix(0.027287,0,0,-0.027305,124.588898,-214.477798)"
     style="stroke:#000000;stroke-width:12.92415869;fill:none;stroke-opacity:1;stroke-miterlimit:4;stroke-dasharray:none"
     d="M1072.687744,1349.5L1146.982422,1250.5L1146.991211,1063.502441L1147,876.505005L1072.752563,802.252502L998.505005,728L884.757324,728L771.009583,728L770.754822,627.75L770.5,527.5L623.25,527.246704L476,526.993408L476.008118,688.246704L476.016235,849.5L525.394958,898.75L574.773682,948L700.89032,948L827.006897,948L826.753479,1088.75L826.5,1229.5L626.5,1229.782837C516.5,1229.938477,425.037506,1229.805542,423.25,1229.487549L420,1228.909424L420,1103.954712L420,979L272.5,979L125,979L125,1139.795898L125,1300.591797L186.75,1374.769409L248.5,1448.947021L623.446533,1448.723511L998.393066,1448.5L1072.687744,1349.5z"
     id="path174" />
  <path
     transform="matrix(0.027287,0,0,-0.027305,124.588898,-214.477798)"
     style="stroke:#000000;stroke-width:12.92415869;fill:none;stroke-opacity:1;stroke-miterlimit:4;stroke-dasharray:none"
     d="M771,361.5L771,277L623.5,277L476,277L476,361.5L476,446L623.5,446L771,446L771,361.5z"
     id="path176" />
  <path
     transform="matrix(0.027287,0,0,-0.027305,94.719498,-214.738785)"
     style="stroke:#000000;stroke-width:12.92415869;fill:none;stroke-opacity:1;stroke-miterlimit:4;stroke-dasharray:none"
     d="M1072.687744,1349.5L1146.982422,1250.5L1146.991211,1063.502441L1147,876.505005L1072.752563,802.252502L998.505005,728L884.757324,728L771.009583,728L770.754822,627.75L770.5,527.5L623.25,527.246704L476,526.993408L476.008118,688.246704L476.016235,849.5L525.394958,898.75L574.773682,948L700.89032,948L827.006897,948L826.753479,1088.75L826.5,1229.5L626.5,1229.782837C516.5,1229.938477,425.037506,1229.805542,423.25,1229.487549L420,1228.909424L420,1103.954712L420,979L272.5,979L125,979L125,1139.795898L125,1300.591797L186.75,1374.769409L248.5,1448.947021L623.446533,1448.723511L998.393066,1448.5L1072.687744,1349.5z"
     id="path178" />
  <path
     transform="matrix(0.027287,0,0,-0.027305,94.719498,-214.738785)"
     style="stroke:#000000;stroke-width:12.92415869;fill:none;stroke-opacity:1;stroke-miterlimit:4;stroke-dasharray:none"
     d="M771,361.5L771,277L623.5,277L476,277L476,361.5L476,446L623.5,446L771,446L771,361.5z"
     id="path180" />
  <path
     transform="matrix(0.027287,0,0,-0.02608,34.469994,-216.574982)"
     style="stroke:#000000;stroke-width:13.22420518;fill:none;stroke-opacity:1;stroke-miterlimit:4;stroke-dasharray:none"
     d="M1072.687744,1349.5L1146.982422,1250.5L1146.991211,1063.502441L1147,876.505005L1072.752563,802.252502L998.505005,728L884.757324,728L771.009583,728L770.754822,627.75L770.5,527.5L623.25,527.246704L476,526.993408L476.008118,688.246704L476.016235,849.5L525.394958,898.75L574.773682,948L700.89032,948L827.006897,948L826.753479,1088.75L826.5,1229.5L626.5,1229.782837C516.5,1229.938477,425.037506,1229.805542,423.25,1229.487549L420,1228.909424L420,1103.954712L420,979L272.5,979L125,979L125,1139.795898L125,1300.591797L186.75,1374.769409L248.5,1448.947021L623.446533,1448.723511L998.393066,1448.5L1072.687744,1349.5z"
     id="path182" />
  <path
     transform="matrix(0.027287,0,0,-0.02608,34.469994,-216.574982)"
     style="stroke:#000000;stroke-width:13.22420518;fill:none;stroke-opacity:1;stroke-miterlimit:4;stroke-dasharray:none"
     d="M771,361.5L771,277L623.5,277L476,277L476,361.5L476,446L623.5,446L771,446L771,361.5z"
     id="path184" />
  <circle
     transform="matrix(-0,1,1,0,187.253998,-241.507996)"
     style="stroke:#000000;stroke-width:0.35277782;fill:none;stroke-opacity:1;stroke-miterlimit:4;stroke-dasharray:none"
     r="1.999994"
     cx="0"
     cy="0"
     id="circle186" />
  <circle
     transform="matrix(-0,1,1,0,192.205994,-241.727005)"
     style="stroke:#000000;stroke-width:0.35277782;fill:none;stroke-opacity:1;stroke-miterlimit:4;stroke-dasharray:none"
     r="1.999994"
     cx="0"
     cy="0"
     id="circle188" />
  <circle
     transform="matrix(-0,1,1,0,196.843002,-241.686005)"
     style="stroke:#000000;stroke-width:0.35277782;fill:none;stroke-opacity:1;stroke-miterlimit:4;stroke-dasharray:none"
     r="1.999994"
     cx="0"
     cy="0"
     id="circle190" />
  <circle
     transform="matrix(-0,1,1,0,182.714996,-241.445999)"
     style="stroke:#000000;stroke-width:0.35277782;fill:none;stroke-opacity:1;stroke-miterlimit:4;stroke-dasharray:none"
     r="1.999994"
     cx="0"
     cy="0"
     id="circle192" />
  <circle
     transform="matrix(-0,1,1,0,187.126007,-236.785995)"
     style="stroke:#000000;stroke-width:0.35277782;fill:none;stroke-opacity:1;stroke-miterlimit:4;stroke-dasharray:none"
     r="1.999994"
     cx="0"
     cy="0"
     id="circle194" />
  <circle
     transform="matrix(-0,1,1,0,192.080002,-237.003998)"
     style="stroke:#000000;stroke-width:0.35277782;fill:none;stroke-opacity:1;stroke-miterlimit:4;stroke-dasharray:none"
     r="1.999994"
     cx="0"
     cy="0"
     id="circle196" />
  <circle
     transform="matrix(-0,1,1,0,196.716003,-236.964005)"
     style="stroke:#000000;stroke-width:0.35277782;fill:none;stroke-opacity:1;stroke-miterlimit:4;stroke-dasharray:none"
     r="1.999994"
     cx="0"
     cy="0"
     id="circle198" />
  <circle
     transform="matrix(-0,1,1,0,182.589005,-236.723007)"
     style="stroke:#000000;stroke-width:0.35277782;fill:none;stroke-opacity:1;stroke-miterlimit:4;stroke-dasharray:none"
     r="1.999994"
     cx="0"
     cy="0"
     id="circle200" />
  <circle
     transform="matrix(-0,1,1,0,187.397003,-251.542999)"
     style="stroke:#000000;stroke-width:0.35277782;fill:none;stroke-opacity:1;stroke-miterlimit:4;stroke-dasharray:none"
     r="1.999998"
     cx="0"
     cy="0"
     id="circle202" />
  <circle
     transform="matrix(-0,1,1,0,192.350998,-251.761002)"
     style="stroke:#000000;stroke-width:0.35277782;fill:none;stroke-opacity:1;stroke-miterlimit:4;stroke-dasharray:none"
     r="1.999998"
     cx="0"
     cy="0"
     id="circle204" />
  <circle
     transform="matrix(-0,1,1,0,196.987,-251.720993)"
     style="stroke:#000000;stroke-width:0.35277782;fill:none;stroke-opacity:1;stroke-miterlimit:4;stroke-dasharray:none"
     r="2.000002"
     cx="0"
     cy="0"
     id="circle206" />
  <circle
     transform="matrix(-0,1,1,0,182.860001,-251.479996)"
     style="stroke:#000000;stroke-width:0.35277782;fill:none;stroke-opacity:1;stroke-miterlimit:4;stroke-dasharray:none"
     r="2.000002"
     cx="0"
     cy="0"
     id="circle208" />
  <circle
     transform="matrix(-0,1,1,0,187.261002,-246.533997)"
     style="stroke:#000000;stroke-width:0.35277782;fill:none;stroke-opacity:1;stroke-miterlimit:4;stroke-dasharray:none"
     r="1.999994"
     cx="0"
     cy="0"
     id="circle210" />
  <circle
     transform="matrix(-0,1,1,0,192.214005,-246.751999)"
     style="stroke:#000000;stroke-width:0.35277782;fill:none;stroke-opacity:1;stroke-miterlimit:4;stroke-dasharray:none"
     r="1.999994"
     cx="0"
     cy="0"
     id="circle212" />
  <circle
     transform="matrix(-0,1,1,0,196.850998,-246.712006)"
     style="stroke:#000000;stroke-width:0.35277782;fill:none;stroke-opacity:1;stroke-miterlimit:4;stroke-dasharray:none"
     r="1.999994"
     cx="0"
     cy="0"
     id="circle214" />
  <circle
     transform="matrix(-0,1,1,0,182.723999,-246.470993)"
     style="stroke:#000000;stroke-width:0.35277782;fill:none;stroke-opacity:1;stroke-miterlimit:4;stroke-dasharray:none"
     r="1.999994"
     cx="0"
     cy="0"
     id="circle216" />
  <circle
     transform="matrix(-0,1,1,0,186.854996,-231.776001)"
     style="stroke:#000000;stroke-width:0.35277782;fill:none;stroke-opacity:1;stroke-miterlimit:4;stroke-dasharray:none"
     r="1.999994"
     cx="0"
     cy="0"
     id="circle218" />
  <circle
     transform="matrix(-0,1,1,0,191.807999,-231.994003)"
     style="stroke:#000000;stroke-width:0.35277782;fill:none;stroke-opacity:1;stroke-miterlimit:4;stroke-dasharray:none"
     r="1.999994"
     cx="0"
     cy="0"
     id="circle220" />
  <circle
     transform="matrix(-0,1,1,0,182.317001,-231.712997)"
     style="stroke:#000000;stroke-width:0.35277782;fill:none;stroke-opacity:1;stroke-miterlimit:4;stroke-dasharray:none"
     r="1.999994"
     cx="0"
     cy="0"
     id="circle222" />
  <circle
     transform="matrix(-0,1,1,0,196.255005,-232.154007)"
     style="stroke:#000000;stroke-width:0.35277782;fill:none;stroke-opacity:1;stroke-miterlimit:4;stroke-dasharray:none"
     r="1.999994"
     cx="0"
     cy="0"
     id="circle224" />
  <circle
     transform="matrix(-0,1,1,0,196.664993,-226.565994)"
     style="stroke:#000000;stroke-width:0.35277782;fill:none;stroke-opacity:1;stroke-miterlimit:4;stroke-dasharray:none"
     r="1.999994"
     cx="0"
     cy="0"
     id="circle226" />
  <circle
     transform="matrix(-0,1,1,0,192.218002,-226.406006)"
     style="stroke:#000000;stroke-width:0.35277782;fill:none;stroke-opacity:1;stroke-miterlimit:4;stroke-dasharray:none"
     r="1.999994"
     cx="0"
     cy="0"
     id="circle228" />
  <circle
     transform="matrix(-0,1,1,0,182.727997,-226.125)"
     style="stroke:#000000;stroke-width:0.35277782;fill:none;stroke-opacity:1;stroke-miterlimit:4;stroke-dasharray:none"
     r="1.999994"
     cx="0"
     cy="0"
     id="circle230" />
  <circle
     transform="matrix(-0,1,1,0,187.264999,-226.188004)"
     style="stroke:#000000;stroke-width:0.35277782;fill:none;stroke-opacity:1;stroke-miterlimit:4;stroke-dasharray:none"
     r="1.999994"
     cx="0"
     cy="0"
     id="circle232" />
</svg>
