<?xml version="1.0" encoding="UTF-8" standalone="no"?>
<svg
   xmlns:dc="http://purl.org/dc/elements/1.1/"
   xmlns:cc="http://creativecommons.org/ns#"
   xmlns:rdf="http://www.w3.org/1999/02/22-rdf-syntax-ns#"
   xmlns:svg="http://www.w3.org/2000/svg"
   xmlns="http://www.w3.org/2000/svg"
   xmlns:sodipodi="http://sodipodi.sourceforge.net/DTD/sodipodi-0.dtd"
   xmlns:inkscape="http://www.inkscape.org/namespaces/inkscape"
   width="299.893mm"
   height="120.309mm"
   viewBox="1.967194 -294.066833 299.893127 120.308975"
   version="1.1"
   id="svg112"
   sodipodi:docname="Two Piece Mario Box.svg"
   inkscape:version="0.92.4 (5da689c313, 2019-01-14)">
  <metadata
     id="metadata118">
    <rdf:RDF>
      <cc:Work
         rdf:about="">
        <dc:format>image/svg+xml</dc:format>
        <dc:type
           rdf:resource="http://purl.org/dc/dcmitype/StillImage" />
        <dc:title></dc:title>
      </cc:Work>
    </rdf:RDF>
  </metadata>
  <defs
     id="defs116" />
  <sodipodi:namedview
     pagecolor="#ffffff"
     bordercolor="#666666"
     borderopacity="1"
     objecttolerance="10"
     gridtolerance="10"
     guidetolerance="10"
     inkscape:pageopacity="0"
     inkscape:pageshadow="2"
     inkscape:window-width="1920"
     inkscape:window-height="1017"
     id="namedview114"
     showgrid="false"
     inkscape:zoom="0.50112317"
     inkscape:cx="244.87043"
     inkscape:cy="274.85902"
     inkscape:window-x="-8"
     inkscape:window-y="-8"
     inkscape:window-maximized="1"
     inkscape:current-layer="svg112" />
  <path
     transform="matrix(-1,-0,-0,1,65.9673,-56.4566)"
     style="stroke:#000000;stroke-width:0.26458336;fill:none;stroke-miterlimit:4;stroke-dasharray:none"
     d="M13.285206,-174.074203L20.726612,-174.074203C20.683643,-174.074203,20.648487,-174.039047,20.648487,-173.996078L20.648487,-177.195297C20.648487,-177.238266,20.683643,-177.273422,20.726612,-177.273422L27.12505,-177.273422C27.168018,-177.273422,27.203175,-177.238266,27.203175,-177.195297L27.203175,-173.996078C27.203175,-174.039047,27.168018,-174.074203,27.12505,-174.074203L33.523487,-174.074203C33.480518,-174.074203,33.445362,-174.039047,33.445362,-173.996078L33.445362,-177.195297C33.445362,-177.238266,33.480518,-177.273422,33.523487,-177.273422L39.921925,-177.273422C39.964893,-177.273422,40.00005,-177.238266,40.00005,-177.195297L40.00005,-173.996078C40.00005,-174.039047,39.964893,-174.074203,39.921925,-174.074203L46.320362,-174.074203C46.277393,-174.074203,46.242237,-174.039047,46.242237,-173.996078L46.242237,-177.195297C46.242237,-177.238266,46.277393,-177.273422,46.320362,-177.273422L52.7188,-177.273422C52.761768,-177.273422,52.796925,-177.238266,52.796925,-177.195297L52.796925,-173.996078C52.796925,-174.039047,52.761768,-174.074203,52.7188,-174.074203L60.160206,-174.074203L63.359425,-174.074203C63.402393,-174.074203,63.43755,-174.039047,63.43755,-173.996078L63.43755,-163.195297C63.43755,-163.152328,63.402393,-163.117172,63.359425,-163.117172L60.160206,-163.117172C60.203175,-163.117172,60.238331,-163.152328,60.238331,-163.195297L60.238331,-156.79686C60.238331,-156.839828,60.203175,-156.874985,60.160206,-156.874985L63.359425,-156.874985C63.402393,-156.874985,63.43755,-156.839828,63.43755,-156.79686L63.43755,-150.398422C63.43755,-150.355453,63.402393,-150.320297,63.359425,-150.320297L60.160206,-150.320297C60.203175,-150.320297,60.238331,-150.355453,60.238331,-150.398422L60.238331,-143.999985C60.238331,-144.042953,60.203175,-144.07811,60.160206,-144.07811L63.359425,-144.07811C63.402393,-144.07811,63.43755,-144.042953,63.43755,-143.999985L63.43755,-137.601547C63.43755,-137.558578,63.402393,-137.523422,63.359425,-137.523422L60.160206,-137.523422C60.203175,-137.523422,60.238331,-137.558578,60.238331,-137.601547L60.238331,-131.20311C60.238331,-131.246078,60.203175,-131.281235,60.160206,-131.281235L63.359425,-131.281235C63.402393,-131.281235,63.43755,-131.246078,63.43755,-131.20311L63.43755,-120.402328C63.43755,-120.35936,63.402393,-120.324203,63.359425,-120.324203L60.160206,-120.324203L13.2813,-120.324203L10.082081,-120.324203C10.039112,-120.324203,10.003956,-120.35936,10.003956,-120.402328L10.003956,-131.20311C10.003956,-131.246078,10.039112,-131.281235,10.082081,-131.281235L13.2813,-131.281235C13.238331,-131.281235,13.203175,-131.246078,13.203175,-131.20311L13.203175,-137.601547C13.203175,-137.558578,13.238331,-137.523422,13.2813,-137.523422L10.082081,-137.523422C10.039112,-137.523422,10.003956,-137.558578,10.003956,-137.601547L10.003956,-143.999985C10.003956,-144.042953,10.039112,-144.07811,10.082081,-144.07811L13.2813,-144.07811C13.238331,-144.07811,13.203175,-144.042953,13.203175,-143.999985L13.203175,-150.398422C13.203175,-150.355453,13.238331,-150.320297,13.2813,-150.320297L10.082081,-150.320297C10.039112,-150.320297,10.003956,-150.355453,10.003956,-150.398422L10.003956,-156.79686C10.003956,-156.839828,10.039112,-156.874985,10.082081,-156.874985L13.2813,-156.874985C13.238331,-156.874985,13.203175,-156.839828,13.203175,-156.79686L13.203175,-163.195297C13.203175,-163.152328,13.238331,-163.117172,13.2813,-163.117172L10.082081,-163.117172C10.039112,-163.117172,10.003956,-163.152328,10.003956,-163.195297L10.003956,-173.996078C10.003956,-174.039047,10.039112,-174.074203,10.082081,-174.074203L13.2813,-174.074203"
     id="path2" />
  <path
     transform="matrix(-1,-0,-0,1,361.770996,-55.020599)"
     style="stroke:#000000;stroke-width:0.26458336;fill:none;stroke-miterlimit:4;stroke-dasharray:none"
     d="M68.32811,-174.074203L75.76561,-174.074203C75.722641,-174.074203,75.687485,-174.039047,75.687485,-173.996078L75.687485,-177.195297C75.687485,-177.238266,75.722641,-177.273422,75.76561,-177.273422L82.164047,-177.273422C82.207016,-177.273422,82.242172,-177.238266,82.242172,-177.195297L82.242172,-173.996078C82.242172,-174.039047,82.207016,-174.074203,82.164047,-174.074203L88.562485,-174.074203C88.519516,-174.074203,88.48436,-174.039047,88.48436,-173.996078L88.48436,-177.195297C88.48436,-177.238266,88.519516,-177.273422,88.562485,-177.273422L94.960922,-177.273422C95.003891,-177.273422,95.039047,-177.238266,95.039047,-177.195297L95.039047,-173.996078C95.039047,-174.039047,95.003891,-174.074203,94.960922,-174.074203L101.35936,-174.074203C101.316391,-174.074203,101.281227,-174.039047,101.281227,-173.996078L101.281227,-177.195297C101.281227,-177.238266,101.316391,-177.273422,101.35936,-177.273422L107.757797,-177.273422C107.800774,-177.273422,107.835922,-177.238266,107.835922,-177.195297L107.835922,-173.996078C107.835922,-174.039047,107.800774,-174.074203,107.757797,-174.074203L115.199203,-174.074203C115.242172,-174.074203,115.277328,-174.039047,115.277328,-173.996078L115.277328,-163.195297C115.277328,-163.238266,115.242172,-163.273422,115.199203,-163.273422L118.398422,-163.273422C118.441391,-163.273422,118.476547,-163.238266,118.476547,-163.195297L118.476547,-156.79686C118.476547,-156.753891,118.441391,-156.718735,118.398422,-156.718735L115.199203,-156.718735C115.242172,-156.718735,115.277328,-156.753891,115.277328,-156.79686L115.277328,-150.398422C115.277328,-150.441391,115.242172,-150.476547,115.199203,-150.476547L118.398422,-150.476547C118.441391,-150.476547,118.476547,-150.441391,118.476547,-150.398422L118.476547,-143.999985C118.476547,-143.957016,118.441391,-143.92186,118.398422,-143.92186L115.199203,-143.92186C115.242172,-143.92186,115.277328,-143.957016,115.277328,-143.999985L115.277328,-137.601547C115.277328,-137.644516,115.242172,-137.679672,115.199203,-137.679672L118.398422,-137.679672C118.441391,-137.679672,118.476547,-137.644516,118.476547,-137.601547L118.476547,-131.20311C118.476547,-131.160141,118.441391,-131.124985,118.398422,-131.124985L115.199203,-131.124985C115.242172,-131.124985,115.277328,-131.160141,115.277328,-131.20311L115.277328,-120.402328C115.277328,-120.35936,115.242172,-120.324203,115.199203,-120.324203L68.320297,-120.324203C68.277328,-120.324203,68.242172,-120.35936,68.242172,-120.402328L68.242172,-131.20311C68.242172,-131.160141,68.277328,-131.124985,68.320297,-131.124985L65.121078,-131.124985C65.07811,-131.124985,65.042953,-131.160141,65.042953,-131.20311L65.042953,-137.601547C65.042953,-137.644516,65.07811,-137.679672,65.121078,-137.679672L68.320297,-137.679672C68.277328,-137.679672,68.242172,-137.644516,68.242172,-137.601547L68.242172,-143.999985C68.242172,-143.957016,68.277328,-143.92186,68.320297,-143.92186L65.121078,-143.92186C65.07811,-143.92186,65.042953,-143.957016,65.042953,-143.999985L65.042953,-150.398422C65.042953,-150.441391,65.07811,-150.476547,65.121078,-150.476547L68.320297,-150.476547C68.277328,-150.476547,68.242172,-150.441391,68.242172,-150.398422L68.242172,-156.79686C68.242172,-156.753891,68.277328,-156.718735,68.320297,-156.718735L65.121078,-156.718735C65.07811,-156.718735,65.042953,-156.753891,65.042953,-156.79686L65.042953,-163.195297C65.042953,-163.238266,65.07811,-163.273422,65.121078,-163.273422L68.320297,-163.273422C68.277328,-163.273422,68.242172,-163.238266,68.242172,-163.195297L68.242172,-173.996078C68.242172,-174.039047,68.277328,-174.074203,68.320297,-174.074203"
     id="path4" />
  <path
     transform="matrix(-1,-0,-0,1,230.742004,-56.815601)"
     style="stroke:#000000;stroke-width:0.26458336;fill:none;stroke-miterlimit:4;stroke-dasharray:none"
     d="M123.367203,-174.074203L130.808609,-174.074203C130.76564,-174.074203,130.730484,-174.039047,130.730484,-173.996078L130.730484,-177.195297C130.730484,-177.238266,130.76564,-177.273422,130.808609,-177.273422L137.207047,-177.273422C137.250015,-177.273422,137.285172,-177.238266,137.285172,-177.195297L137.285172,-173.996078C137.285172,-174.039047,137.250015,-174.074203,137.207047,-174.074203L143.605484,-174.074203C143.562515,-174.074203,143.527359,-174.039047,143.527359,-173.996078L143.527359,-177.195297C143.527359,-177.238266,143.562515,-177.273422,143.605484,-177.273422L150.003922,-177.273422C150.04689,-177.273422,150.082047,-177.238266,150.082047,-177.195297L150.082047,-173.996078C150.082047,-174.039047,150.04689,-174.074203,150.003922,-174.074203L156.402359,-174.074203C156.35939,-174.074203,156.324234,-174.039047,156.324234,-173.996078L156.324234,-177.195297C156.324234,-177.238266,156.35939,-177.273422,156.402359,-177.273422L162.800797,-177.273422C162.843765,-177.273422,162.878922,-177.238266,162.878922,-177.195297L162.878922,-173.996078C162.878922,-174.039047,162.843765,-174.074203,162.800797,-174.074203L170.242203,-174.074203L173.441422,-174.074203C173.48439,-174.074203,173.519547,-174.039047,173.519547,-173.996078L173.519547,-163.195297C173.519547,-163.152328,173.48439,-163.117172,173.441422,-163.117172L170.242203,-163.117172C170.285172,-163.117172,170.320328,-163.152328,170.320328,-163.195297L170.320328,-156.79686C170.320328,-156.839828,170.285172,-156.874985,170.242203,-156.874985L173.441422,-156.874985C173.48439,-156.874985,173.519547,-156.839828,173.519547,-156.79686L173.519547,-150.398422C173.519547,-150.355453,173.48439,-150.320297,173.441422,-150.320297L170.242203,-150.320297C170.285172,-150.320297,170.320328,-150.355453,170.320328,-150.398422L170.320328,-143.999985C170.320328,-144.042953,170.285172,-144.07811,170.242203,-144.07811L173.441422,-144.07811C173.48439,-144.07811,173.519547,-144.042953,173.519547,-143.999985L173.519547,-137.601547C173.519547,-137.558578,173.48439,-137.523422,173.441422,-137.523422L170.242203,-137.523422C170.285172,-137.523422,170.320328,-137.558578,170.320328,-137.601547L170.320328,-131.20311C170.320328,-131.246078,170.285172,-131.281235,170.242203,-131.281235L173.441422,-131.281235C173.48439,-131.281235,173.519547,-131.246078,173.519547,-131.20311L173.519547,-120.402328C173.519547,-120.35936,173.48439,-120.324203,173.441422,-120.324203L170.242203,-120.324203L123.363297,-120.324203L120.164078,-120.324203C120.121109,-120.324203,120.085953,-120.35936,120.085953,-120.402328L120.085953,-131.20311C120.085953,-131.246078,120.121109,-131.281235,120.164078,-131.281235L123.363297,-131.281235C123.320328,-131.281235,123.285172,-131.246078,123.285172,-131.20311L123.285172,-137.601547C123.285172,-137.558578,123.320328,-137.523422,123.363297,-137.523422L120.164078,-137.523422C120.121109,-137.523422,120.085953,-137.558578,120.085953,-137.601547L120.085953,-143.999985C120.085953,-144.042953,120.121109,-144.07811,120.164078,-144.07811L123.363297,-144.07811C123.320328,-144.07811,123.285172,-144.042953,123.285172,-143.999985L123.285172,-150.398422C123.285172,-150.355453,123.320328,-150.320297,123.363297,-150.320297L120.164078,-150.320297C120.121109,-150.320297,120.085953,-150.355453,120.085953,-150.398422L120.085953,-156.79686C120.085953,-156.839828,120.121109,-156.874985,120.164078,-156.874985L123.363297,-156.874985C123.320328,-156.874985,123.285172,-156.839828,123.285172,-156.79686L123.285172,-163.195297C123.285172,-163.152328,123.320328,-163.117172,123.363297,-163.117172L120.164078,-163.117172C120.121109,-163.117172,120.085953,-163.152328,120.085953,-163.195297L120.085953,-173.996078C120.085953,-174.039047,120.121109,-174.074203,120.164078,-174.074203L123.363297,-174.074203"
     id="path6" />
  <path
     transform="matrix(-1,-0,-0,1,415.45401,-116.408997)"
     style="stroke:#000000;stroke-width:0.26458336;fill:none;stroke-miterlimit:4;stroke-dasharray:none"
     d="M178.406204,-174.074203L185.84761,-174.074203C185.804642,-174.074203,185.769485,-174.039047,185.769485,-173.996078L185.769485,-177.195297C185.769485,-177.238266,185.804642,-177.273422,185.84761,-177.273422L192.246048,-177.273422C192.289017,-177.273422,192.324173,-177.238266,192.324173,-177.195297L192.324173,-173.996078C192.324173,-174.039047,192.289017,-174.074203,192.246048,-174.074203L198.644485,-174.074203C198.601517,-174.074203,198.56636,-174.039047,198.56636,-173.996078L198.56636,-177.195297C198.56636,-177.238266,198.601517,-177.273422,198.644485,-177.273422L205.042923,-177.273422C205.085892,-177.273422,205.121048,-177.238266,205.121048,-177.195297L205.121048,-173.996078C205.121048,-174.039047,205.085892,-174.074203,205.042923,-174.074203L211.44136,-174.074203C211.398392,-174.074203,211.363235,-174.039047,211.363235,-173.996078L211.363235,-177.195297C211.363235,-177.238266,211.398392,-177.273422,211.44136,-177.273422L217.839798,-177.273422C217.882767,-177.273422,217.917923,-177.238266,217.917923,-177.195297L217.917923,-173.996078C217.917923,-174.039047,217.882767,-174.074203,217.839798,-174.074203L225.281204,-174.074203C225.324173,-174.074203,225.359329,-174.039047,225.359329,-173.996078L225.359329,-163.195297C225.359329,-163.238266,225.324173,-163.273422,225.281204,-163.273422L228.480423,-163.273422C228.523392,-163.273422,228.558548,-163.238266,228.558548,-163.195297L228.558548,-156.79686C228.558548,-156.753891,228.523392,-156.718735,228.480423,-156.718735L225.281204,-156.718735C225.324173,-156.718735,225.359329,-156.753891,225.359329,-156.79686L225.359329,-150.398422C225.359329,-150.441391,225.324173,-150.476547,225.281204,-150.476547L228.480423,-150.476547C228.523392,-150.476547,228.558548,-150.441391,228.558548,-150.398422L228.558548,-143.999985C228.558548,-143.957016,228.523392,-143.92186,228.480423,-143.92186L225.281204,-143.92186C225.324173,-143.92186,225.359329,-143.957016,225.359329,-143.999985L225.359329,-137.601547C225.359329,-137.644516,225.324173,-137.679672,225.281204,-137.679672L228.480423,-137.679672C228.523392,-137.679672,228.558548,-137.644516,228.558548,-137.601547L228.558548,-131.20311C228.558548,-131.160141,228.523392,-131.124985,228.480423,-131.124985L225.281204,-131.124985C225.324173,-131.124985,225.359329,-131.160141,225.359329,-131.20311L225.359329,-120.402328C225.359329,-120.35936,225.324173,-120.324203,225.281204,-120.324203L178.402298,-120.324203C178.359329,-120.324203,178.324173,-120.35936,178.324173,-120.402328L178.324173,-131.20311C178.324173,-131.160141,178.359329,-131.124985,178.402298,-131.124985L175.203079,-131.124985C175.16011,-131.124985,175.124954,-131.160141,175.124954,-131.20311L175.124954,-137.601547C175.124954,-137.644516,175.16011,-137.679672,175.203079,-137.679672L178.402298,-137.679672C178.359329,-137.679672,178.324173,-137.644516,178.324173,-137.601547L178.324173,-143.999985C178.324173,-143.957016,178.359329,-143.92186,178.402298,-143.92186L175.203079,-143.92186C175.16011,-143.92186,175.124954,-143.957016,175.124954,-143.999985L175.124954,-150.398422C175.124954,-150.441391,175.16011,-150.476547,175.203079,-150.476547L178.402298,-150.476547C178.359329,-150.476547,178.324173,-150.441391,178.324173,-150.398422L178.324173,-156.79686C178.324173,-156.753891,178.359329,-156.718735,178.402298,-156.718735L175.203079,-156.718735C175.16011,-156.718735,175.124954,-156.753891,175.124954,-156.79686L175.124954,-163.195297C175.124954,-163.238266,175.16011,-163.273422,175.203079,-163.273422L178.402298,-163.273422C178.359329,-163.273422,178.324173,-163.238266,178.324173,-163.195297L178.324173,-173.996078C178.324173,-174.039047,178.359329,-174.074203,178.402298,-174.074203"
     id="path8" />
  <path
     transform="matrix(-1,-0,-0,1,195.919998,-175.281006)"
     style="stroke:#000000;stroke-width:0.26458336;fill:none;stroke-miterlimit:4;stroke-dasharray:none"
     d="M13.285112,-115.515602L24.085894,-115.515602C24.042925,-115.515602,24.007769,-115.480453,24.007769,-115.437477L24.007769,-118.636703C24.007769,-118.679657,24.042925,-118.714821,24.085894,-118.714821L30.484331,-118.714821C30.5273,-118.714821,30.562456,-118.679657,30.562456,-118.636703L30.562456,-115.437477C30.562456,-115.480453,30.5273,-115.515602,30.484331,-115.515602L36.882767,-115.515602C36.839798,-115.515602,36.804642,-115.480453,36.804642,-115.437477L36.804642,-118.636703C36.804642,-118.679657,36.839798,-118.714821,36.882767,-118.714821L43.281204,-118.714821C43.324173,-118.714821,43.359329,-118.679657,43.359329,-118.636703L43.359329,-115.437477C43.359329,-115.480453,43.324173,-115.515602,43.281204,-115.515602L49.679642,-115.515602C49.636673,-115.515602,49.601517,-115.480453,49.601517,-115.437477L49.601517,-118.636703C49.601517,-118.679657,49.636673,-118.714821,49.679642,-118.714821L56.078079,-118.714821C56.121048,-118.714821,56.156204,-118.679657,56.156204,-118.636703L56.156204,-115.437477C56.156204,-115.480453,56.121048,-115.515602,56.078079,-115.515602L66.87886,-115.515602L70.078079,-115.515602C70.121048,-115.515602,70.156204,-115.480453,70.156204,-115.437477L70.156204,-104.636703C70.156204,-104.593727,70.121048,-104.558571,70.078079,-104.558571L66.87886,-104.558571C66.921829,-104.558571,66.956985,-104.593727,66.956985,-104.636703L66.956985,-98.238258C66.956985,-98.281227,66.921829,-98.316383,66.87886,-98.316383L70.078079,-98.316383C70.121048,-98.316383,70.156204,-98.281227,70.156204,-98.238258L70.156204,-91.839821C70.156204,-91.796852,70.121048,-91.761696,70.078079,-91.761696L66.87886,-91.761696C66.921829,-91.761696,66.956985,-91.796852,66.956985,-91.839821L66.956985,-85.441383C66.956985,-85.484352,66.921829,-85.519508,66.87886,-85.519508L70.078079,-85.519508C70.121048,-85.519508,70.156204,-85.484352,70.156204,-85.441383L70.156204,-79.042946C70.156204,-78.999977,70.121048,-78.964821,70.078079,-78.964821L66.87886,-78.964821C66.921829,-78.964821,66.956985,-78.999977,66.956985,-79.042946L66.956985,-72.644508C66.956985,-72.687477,66.921829,-72.722633,66.87886,-72.722633L70.078079,-72.722633C70.121048,-72.722633,70.156204,-72.687477,70.156204,-72.644508L70.156204,-61.843727C70.156204,-61.800758,70.121048,-61.765602,70.078079,-61.765602L66.87886,-61.765602L13.2773,-61.765602L10.078081,-61.765602C10.035112,-61.765602,9.999956,-61.800758,9.999956,-61.843727L9.999956,-72.644508C9.999956,-72.687477,10.035112,-72.722633,10.078081,-72.722633L13.2773,-72.722633C13.234331,-72.722633,13.199175,-72.687477,13.199175,-72.644508L13.199175,-79.042946C13.199175,-78.999977,13.234331,-78.964821,13.2773,-78.964821L10.078081,-78.964821C10.035112,-78.964821,9.999956,-78.999977,9.999956,-79.042946L9.999956,-85.441383C9.999956,-85.484352,10.035112,-85.519508,10.078081,-85.519508L13.2773,-85.519508C13.234331,-85.519508,13.199175,-85.484352,13.199175,-85.441383L13.199175,-91.839821C13.199175,-91.796852,13.234331,-91.761696,13.2773,-91.761696L10.078081,-91.761696C10.035112,-91.761696,9.999956,-91.796852,9.999956,-91.839821L9.999956,-98.238258C9.999956,-98.281227,10.035112,-98.316383,10.078081,-98.316383L13.2773,-98.316383C13.234331,-98.316383,13.199175,-98.281227,13.199175,-98.238258L13.199175,-104.636703C13.199175,-104.593727,13.234331,-104.558571,13.2773,-104.558571L10.078081,-104.558571C10.035112,-104.558571,9.999956,-104.593727,9.999956,-104.636703L9.999956,-115.437477C9.999956,-115.480453,10.035112,-115.515602,10.078081,-115.515602L13.2773,-115.515602"
     id="path10" />
  <path
     transform="matrix(-1,-0,-0,1,195.354004,-175.335007)"
     style="stroke:#000000;stroke-width:0.26458336;fill:none;stroke-miterlimit:4;stroke-dasharray:none"
     d="M75.046913,-115.515602L85.847694,-115.515602C85.804726,-115.515602,85.769569,-115.480453,85.769569,-115.437477L85.769569,-118.636703C85.769569,-118.679657,85.804726,-118.714821,85.847694,-118.714821L92.246132,-118.714821C92.289101,-118.714821,92.324257,-118.679657,92.324257,-118.636703L92.324257,-115.437477C92.324257,-115.480453,92.289101,-115.515602,92.246132,-115.515602L98.644569,-115.515602C98.601601,-115.515602,98.566444,-115.480453,98.566444,-115.437477L98.566444,-118.636703C98.566444,-118.679657,98.601601,-118.714821,98.644569,-118.714821L105.043007,-118.714821C105.085983,-118.714821,105.121132,-118.679657,105.121132,-118.636703L105.121132,-115.437477C105.121132,-115.480453,105.085983,-115.515602,105.043007,-115.515602L111.441437,-115.515602C111.398483,-115.515602,111.363319,-115.480453,111.363319,-115.437477L111.363319,-118.636703C111.363319,-118.679657,111.398483,-118.714821,111.441437,-118.714821L117.839882,-118.714821C117.882851,-118.714821,117.918007,-118.679657,117.918007,-118.636703L117.918007,-115.437477C117.918007,-115.480453,117.882851,-115.515602,117.839882,-115.515602L128.640656,-115.515602C128.683624,-115.515602,128.718781,-115.480453,128.718781,-115.437477L128.718781,-104.636703C128.718781,-104.679657,128.683624,-104.714821,128.640656,-104.714821L131.839874,-104.714821C131.882843,-104.714821,131.917999,-104.679657,131.917999,-104.636703L131.917999,-98.238258C131.917999,-98.19529,131.882843,-98.160133,131.839874,-98.160133L128.640656,-98.160133C128.683624,-98.160133,128.718781,-98.19529,128.718781,-98.238258L128.718781,-91.839821C128.718781,-91.88279,128.683624,-91.917946,128.640656,-91.917946L131.839874,-91.917946C131.882843,-91.917946,131.917999,-91.88279,131.917999,-91.839821L131.917999,-85.441383C131.917999,-85.398415,131.882843,-85.363258,131.839874,-85.363258L128.640656,-85.363258C128.683624,-85.363258,128.718781,-85.398415,128.718781,-85.441383L128.718781,-79.042946C128.718781,-79.085915,128.683624,-79.121071,128.640656,-79.121071L131.839874,-79.121071C131.882843,-79.121071,131.917999,-79.085915,131.917999,-79.042946L131.917999,-72.644508C131.917999,-72.60154,131.882843,-72.566383,131.839874,-72.566383L128.640656,-72.566383C128.683624,-72.566383,128.718781,-72.60154,128.718781,-72.644508L128.718781,-61.843727C128.718781,-61.800758,128.683624,-61.765602,128.640656,-61.765602L75.039101,-61.765602C74.996132,-61.765602,74.960976,-61.800758,74.960976,-61.843727L74.960976,-72.644508C74.960976,-72.60154,74.996132,-72.566383,75.039101,-72.566383L71.839882,-72.566383C71.796913,-72.566383,71.761757,-72.60154,71.761757,-72.644508L71.761757,-79.042946C71.761757,-79.085915,71.796913,-79.121071,71.839882,-79.121071L75.039101,-79.121071C74.996132,-79.121071,74.960976,-79.085915,74.960976,-79.042946L74.960976,-85.441383C74.960976,-85.398415,74.996132,-85.363258,75.039101,-85.363258L71.839882,-85.363258C71.796913,-85.363258,71.761757,-85.398415,71.761757,-85.441383L71.761757,-91.839821C71.761757,-91.88279,71.796913,-91.917946,71.839882,-91.917946L75.039101,-91.917946C74.996132,-91.917946,74.960976,-91.88279,74.960976,-91.839821L74.960976,-98.238258C74.960976,-98.19529,74.996132,-98.160133,75.039101,-98.160133L71.839882,-98.160133C71.796913,-98.160133,71.761757,-98.19529,71.761757,-98.238258L71.761757,-104.636703C71.761757,-104.679657,71.796913,-104.714821,71.839882,-104.714821L75.039101,-104.714821C74.996132,-104.714821,74.960976,-104.679657,74.960976,-104.636703L74.960976,-115.437477C74.960976,-115.480453,74.996132,-115.515602,75.039101,-115.515602"
     id="path12" />
  <path
     transform="matrix(-1,-0,-0,1,195.643005,-175.352005)"
     style="stroke:#000000;stroke-width:0.26458336;fill:none;stroke-miterlimit:4;stroke-dasharray:none"
     d="M136.808624,-115.515602L147.605499,-115.515602C147.562531,-115.515602,147.527374,-115.480453,147.527374,-115.437477L147.527374,-118.636703C147.527374,-118.679657,147.562531,-118.714821,147.605499,-118.714821L154.003937,-118.714821C154.046906,-118.714821,154.082062,-118.679657,154.082062,-118.636703L154.082062,-115.437477C154.082062,-115.480453,154.046906,-115.515602,154.003937,-115.515602L160.402374,-115.515602C160.359406,-115.515602,160.324249,-115.480453,160.324249,-115.437477L160.324249,-118.636703C160.324249,-118.679657,160.359406,-118.714821,160.402374,-118.714821L166.800812,-118.714821C166.843781,-118.714821,166.878937,-118.679657,166.878937,-118.636703L166.878937,-115.437477C166.878937,-115.480453,166.843781,-115.515602,166.800812,-115.515602L173.199249,-115.515602C173.156281,-115.515602,173.121124,-115.480453,173.121124,-115.437477L173.121124,-118.636703C173.121124,-118.679657,173.156281,-118.714821,173.199249,-118.714821L179.597687,-118.714821C179.640656,-118.714821,179.675812,-118.679657,179.675812,-118.636703L179.675812,-115.437477C179.675812,-115.480453,179.640656,-115.515602,179.597687,-115.515602L190.398468,-115.515602L193.597687,-115.515602C193.640656,-115.515602,193.675812,-115.480453,193.675812,-115.437477L193.675812,-104.636703C193.675812,-104.593727,193.640656,-104.558571,193.597687,-104.558571L190.398468,-104.558571C190.441437,-104.558571,190.476593,-104.593727,190.476593,-104.636703L190.476593,-98.238258C190.476593,-98.281227,190.441437,-98.316383,190.398468,-98.316383L193.597687,-98.316383C193.640656,-98.316383,193.675812,-98.281227,193.675812,-98.238258L193.675812,-91.839821C193.675812,-91.796852,193.640656,-91.761696,193.597687,-91.761696L190.398468,-91.761696C190.441437,-91.761696,190.476593,-91.796852,190.476593,-91.839821L190.476593,-85.441383C190.476593,-85.484352,190.441437,-85.519508,190.398468,-85.519508L193.597687,-85.519508C193.640656,-85.519508,193.675812,-85.484352,193.675812,-85.441383L193.675812,-79.042946C193.675812,-78.999977,193.640656,-78.964821,193.597687,-78.964821L190.398468,-78.964821C190.441437,-78.964821,190.476593,-78.999977,190.476593,-79.042946L190.476593,-72.644508C190.476593,-72.687477,190.441437,-72.722633,190.398468,-72.722633L193.597687,-72.722633C193.640656,-72.722633,193.675812,-72.687477,193.675812,-72.644508L193.675812,-61.843727C193.675812,-61.800758,193.640656,-61.765602,193.597687,-61.765602L190.398468,-61.765602L136.796906,-61.765602L133.597687,-61.765602C133.554718,-61.765602,133.519562,-61.800758,133.519562,-61.843727L133.519562,-72.644508C133.519562,-72.687477,133.554718,-72.722633,133.597687,-72.722633L136.796906,-72.722633C136.753937,-72.722633,136.718781,-72.687477,136.718781,-72.644508L136.718781,-79.042946C136.718781,-78.999977,136.753937,-78.964821,136.796906,-78.964821L133.597687,-78.964821C133.554718,-78.964821,133.519562,-78.999977,133.519562,-79.042946L133.519562,-85.441383C133.519562,-85.484352,133.554718,-85.519508,133.597687,-85.519508L136.796906,-85.519508C136.753937,-85.519508,136.718781,-85.484352,136.718781,-85.441383L136.718781,-91.839821C136.718781,-91.796852,136.753937,-91.761696,136.796906,-91.761696L133.597687,-91.761696C133.554718,-91.761696,133.519562,-91.796852,133.519562,-91.839821L133.519562,-98.238258C133.519562,-98.281227,133.554718,-98.316383,133.597687,-98.316383L136.796906,-98.316383C136.753937,-98.316383,136.718781,-98.281227,136.718781,-98.238258L136.718781,-104.636703C136.718781,-104.593727,136.753937,-104.558571,136.796906,-104.558571L133.597687,-104.558571C133.554718,-104.558571,133.519562,-104.593727,133.519562,-104.636703L133.519562,-115.437477C133.519562,-115.480453,133.554718,-115.515602,133.597687,-115.515602L136.796906,-115.515602"
     id="path14" />
  <path
     transform="matrix(-1,-0,-0,1,370.151001,-115.477997)"
     style="stroke:#000000;stroke-width:0.26458336;fill:none;stroke-miterlimit:4;stroke-dasharray:none"
     d="M198.566406,-115.515602L209.367188,-115.515602C209.324219,-115.515602,209.289063,-115.480453,209.289063,-115.437477L209.289063,-118.636703C209.289063,-118.679657,209.324219,-118.714821,209.367188,-118.714821L215.765625,-118.714821C215.808594,-118.714821,215.84375,-118.679657,215.84375,-118.636703L215.84375,-115.437477C215.84375,-115.480453,215.808594,-115.515602,215.765625,-115.515602L222.164063,-115.515602C222.121094,-115.515602,222.085938,-115.480453,222.085938,-115.437477L222.085938,-118.636703C222.085938,-118.679657,222.121094,-118.714821,222.164063,-118.714821L228.5625,-118.714821C228.605469,-118.714821,228.640625,-118.679657,228.640625,-118.636703L228.640625,-115.437477C228.640625,-115.480453,228.605469,-115.515602,228.5625,-115.515602L234.960938,-115.515602C234.917969,-115.515602,234.882813,-115.480453,234.882813,-115.437477L234.882813,-118.636703C234.882813,-118.679657,234.917969,-118.714821,234.960938,-118.714821L241.359375,-118.714821C241.402344,-118.714821,241.4375,-118.679657,241.4375,-118.636703L241.4375,-115.437477C241.4375,-115.480453,241.402344,-115.515602,241.359375,-115.515602L252.160156,-115.515602C252.203125,-115.515602,252.238281,-115.480453,252.238281,-115.437477L252.238281,-104.636703C252.238281,-104.679657,252.203125,-104.714821,252.160156,-104.714821L255.359375,-104.714821C255.402344,-104.714821,255.4375,-104.679657,255.4375,-104.636703L255.4375,-98.238258C255.4375,-98.19529,255.402344,-98.160133,255.359375,-98.160133L252.160156,-98.160133C252.203125,-98.160133,252.238281,-98.19529,252.238281,-98.238258L252.238281,-91.839821C252.238281,-91.88279,252.203125,-91.917946,252.160156,-91.917946L255.359375,-91.917946C255.402344,-91.917946,255.4375,-91.88279,255.4375,-91.839821L255.4375,-85.441383C255.4375,-85.398415,255.402344,-85.363258,255.359375,-85.363258L252.160156,-85.363258C252.203125,-85.363258,252.238281,-85.398415,252.238281,-85.441383L252.238281,-79.042946C252.238281,-79.085915,252.203125,-79.121071,252.160156,-79.121071L255.359375,-79.121071C255.402344,-79.121071,255.4375,-79.085915,255.4375,-79.042946L255.4375,-72.644508C255.4375,-72.60154,255.402344,-72.566383,255.359375,-72.566383L252.160156,-72.566383C252.203125,-72.566383,252.238281,-72.60154,252.238281,-72.644508L252.238281,-61.843727C252.238281,-61.800758,252.203125,-61.765602,252.160156,-61.765602L198.558594,-61.765602C198.515625,-61.765602,198.480469,-61.800758,198.480469,-61.843727L198.480469,-72.644508C198.480469,-72.60154,198.515625,-72.566383,198.558594,-72.566383L195.359375,-72.566383C195.316406,-72.566383,195.28125,-72.60154,195.28125,-72.644508L195.28125,-79.042946C195.28125,-79.085915,195.316406,-79.121071,195.359375,-79.121071L198.558594,-79.121071C198.515625,-79.121071,198.480469,-79.085915,198.480469,-79.042946L198.480469,-85.441383C198.480469,-85.398415,198.515625,-85.363258,198.558594,-85.363258L195.359375,-85.363258C195.316406,-85.363258,195.28125,-85.398415,195.28125,-85.441383L195.28125,-91.839821C195.28125,-91.88279,195.316406,-91.917946,195.359375,-91.917946L198.558594,-91.917946C198.515625,-91.917946,198.480469,-91.88279,198.480469,-91.839821L198.480469,-98.238258C198.480469,-98.19529,198.515625,-98.160133,198.558594,-98.160133L195.359375,-98.160133C195.316406,-98.160133,195.28125,-98.19529,195.28125,-98.238258L195.28125,-104.636703C195.28125,-104.679657,195.316406,-104.714821,195.359375,-104.714821L198.558594,-104.714821C198.515625,-104.714821,198.480469,-104.679657,198.480469,-104.636703L198.480469,-115.437477C198.480469,-115.480453,198.515625,-115.515602,198.558594,-115.515602"
     id="path16" />
  <path
     transform="matrix(-1,-0,-0,1,309.118011,-173.753998)"
     style="stroke:#000000;stroke-width:0.26458336;fill:none;stroke-miterlimit:4;stroke-dasharray:none"
     d="M75.046898,-60.152298L85.847679,-60.152298C85.890648,-60.152298,85.925804,-60.117142,85.925804,-60.074173L85.925804,-56.874954C85.925804,-56.917923,85.890648,-56.953079,85.847679,-56.953079L92.246117,-56.953079C92.203148,-56.953079,92.167992,-56.917923,92.167992,-56.874954L92.167992,-60.074173C92.167992,-60.117142,92.203148,-60.152298,92.246117,-60.152298L98.644554,-60.152298C98.687523,-60.152298,98.722679,-60.117142,98.722679,-60.074173L98.722679,-56.874954C98.722679,-56.917923,98.687523,-56.953079,98.644554,-56.953079L105.042992,-56.953079C105.000023,-56.953079,104.964867,-56.917923,104.964867,-56.874954L104.964867,-60.074173C104.964867,-60.117142,105.000023,-60.152298,105.042992,-60.152298L111.441429,-60.152298C111.484398,-60.152298,111.519547,-60.117142,111.519547,-60.074173L111.519547,-56.874954C111.519547,-56.917923,111.484398,-56.953079,111.441429,-56.953079L117.839867,-56.953079C117.796898,-56.953079,117.761742,-56.917923,117.761742,-56.874954L117.761742,-60.074173C117.761742,-60.117142,117.796898,-60.152298,117.839867,-60.152298L128.640656,-60.152298L131.839874,-60.152298C131.882843,-60.152298,131.917999,-60.117142,131.917999,-60.074173L131.917999,-56.874954L131.917999,-46.074173C131.917999,-46.031204,131.882843,-45.996048,131.839874,-45.996048L128.640656,-45.996048C128.683624,-45.996048,128.718781,-46.031204,128.718781,-46.074173L128.718781,-39.675735C128.718781,-39.718704,128.683624,-39.75386,128.640656,-39.75386L131.839874,-39.75386C131.882843,-39.75386,131.917999,-39.718704,131.917999,-39.675735L131.917999,-33.277298C131.917999,-33.234329,131.882843,-33.199173,131.839874,-33.199173L128.640656,-33.199173C128.683624,-33.199173,128.718781,-33.234329,128.718781,-33.277298L128.718781,-26.87886C128.718781,-26.921829,128.683624,-26.956985,128.640656,-26.956985L131.839874,-26.956985C131.882843,-26.956985,131.917999,-26.921829,131.917999,-26.87886L131.917999,-20.480423C131.917999,-20.437454,131.882843,-20.402298,131.839874,-20.402298L128.640656,-20.402298C128.683624,-20.402298,128.718781,-20.437454,128.718781,-20.480423L128.718781,-14.081985C128.718781,-14.124954,128.683624,-14.16011,128.640656,-14.16011L131.839874,-14.16011C131.882843,-14.16011,131.917999,-14.124954,131.917999,-14.081985L131.917999,-3.281204L131.917999,-0.081985C131.917999,-0.039017,131.882843,-0.00386,131.839874,-0.00386L128.640656,-0.00386L117.839867,-0.00386C117.796898,-0.00386,117.761742,-0.039017,117.761742,-0.081985L117.761742,-3.281204C117.761742,-3.238235,117.796898,-3.203079,117.839867,-3.203079L111.441429,-3.203079C111.484398,-3.203079,111.519547,-3.238235,111.519547,-3.281204L111.519547,-0.081985C111.519547,-0.039017,111.484398,-0.00386,111.441429,-0.00386L105.042992,-0.00386C105.000023,-0.00386,104.964867,-0.039017,104.964867,-0.081985L104.964867,-3.281204C104.964867,-3.238235,105.000023,-3.203079,105.042992,-3.203079L98.644554,-3.203079C98.687523,-3.203079,98.722679,-3.238235,98.722679,-3.281204L98.722679,-0.081985C98.722679,-0.039017,98.687523,-0.00386,98.644554,-0.00386L92.246117,-0.00386C92.203148,-0.00386,92.167992,-0.039017,92.167992,-0.081985L92.167992,-3.281204C92.167992,-3.238235,92.203148,-3.203079,92.246117,-3.203079L85.847679,-3.203079C85.890648,-3.203079,85.925804,-3.238235,85.925804,-3.281204L85.925804,-0.081985C85.925804,-0.039017,85.890648,-0.00386,85.847679,-0.00386L75.046898,-0.00386L71.847679,-0.00386C71.80471,-0.00386,71.769554,-0.039017,71.769554,-0.081985L71.769554,-3.281204L71.769554,-14.081985C71.769554,-14.124954,71.80471,-14.16011,71.847679,-14.16011L75.046898,-14.16011C75.003929,-14.16011,74.968773,-14.124954,74.968773,-14.081985L74.968773,-20.480423C74.968773,-20.437454,75.003929,-20.402298,75.046898,-20.402298L71.847679,-20.402298C71.80471,-20.402298,71.769554,-20.437454,71.769554,-20.480423L71.769554,-26.87886C71.769554,-26.921829,71.80471,-26.956985,71.847679,-26.956985L75.046898,-26.956985C75.003929,-26.956985,74.968773,-26.921829,74.968773,-26.87886L74.968773,-33.277298C74.968773,-33.234329,75.003929,-33.199173,75.046898,-33.199173L71.847679,-33.199173C71.80471,-33.199173,71.769554,-33.234329,71.769554,-33.277298L71.769554,-39.675735C71.769554,-39.718704,71.80471,-39.75386,71.847679,-39.75386L75.046898,-39.75386C75.003929,-39.75386,74.968773,-39.718704,74.968773,-39.675735L74.968773,-46.074173C74.968773,-46.031204,75.003929,-45.996048,75.046898,-45.996048L71.847679,-45.996048C71.80471,-45.996048,71.769554,-46.031204,71.769554,-46.074173L71.769554,-56.874954L71.769554,-60.074173C71.769554,-60.117142,71.80471,-60.152298,71.847679,-60.152298L75.046898,-60.152298z"
     id="path18" />
  <path
     transform="matrix(0.027287,0,0,-0.027305,14.565994,-240.416794)"
     style="stroke:#00a0ff;stroke-width:9.693119;fill:none;stroke-miterlimit:4;stroke-dasharray:none"
     d="M1072.687744,1349.5L1146.982422,1250.5L1146.991211,1063.502441L1147,876.505005L1072.752563,802.252502L998.505005,728L884.757324,728L771.009583,728L770.754822,627.75L770.5,527.5L623.25,527.246704L476,526.993408L476.008118,688.246704L476.016235,849.5L525.394958,898.75L574.773682,948L700.89032,948L827.006897,948L826.753479,1088.75L826.5,1229.5L626.5,1229.782837C516.5,1229.938477,425.037506,1229.805542,423.25,1229.487549L420,1228.909424L420,1103.954712L420,979L272.5,979L125,979L125,1139.795898L125,1300.591797L186.75,1374.769409L248.5,1448.947021L623.446533,1448.723511L998.393066,1448.5L1072.687744,1349.5z"
     id="path20" />
  <path
     transform="matrix(0.027287,0,0,-0.027305,14.565994,-240.416794)"
     style="stroke:#00a0ff;stroke-width:9.693119;fill:none;stroke-miterlimit:4;stroke-dasharray:none"
     d="M771,361.5L771,277L623.5,277L476,277L476,361.5L476,446L623.5,446L771,446L771,361.5z"
     id="path22" />
  <circle
     transform="matrix(1,0,0,-1,54.438,-286.476013)"
     style="stroke:#00a0ff;stroke-width:0.26458336;fill:none;stroke-miterlimit:4;stroke-dasharray:none"
     r="1.999994"
     cx="0"
     cy="0"
     id="circle24" />
  <circle
     transform="matrix(1,0,0,-1,54.441002,-241.503998)"
     style="stroke:#00a0ff;stroke-width:0.26458336;fill:none;stroke-miterlimit:4;stroke-dasharray:none"
     r="1.999994"
     cx="0"
     cy="0"
     id="circle26" />
  <circle
     transform="matrix(1,0,0,-1,9.44899,-286.480011)"
     style="stroke:#00a0ff;stroke-width:0.26458336;fill:none;stroke-miterlimit:4;stroke-dasharray:none"
     r="1.999994"
     cx="0"
     cy="0"
     id="circle28" />
  <circle
     transform="matrix(1,0,0,-1,9.41899,-241.483002)"
     style="stroke:#00a0ff;stroke-width:0.26458336;fill:none;stroke-miterlimit:4;stroke-dasharray:none"
     r="1.999994"
     cx="0"
     cy="0"
     id="circle30" />
  <path
     transform="matrix(0.027287,0,0,-0.027305,76.149796,-240.398788)"
     style="stroke:#00a0ff;stroke-width:9.693119;fill:none;stroke-miterlimit:4;stroke-dasharray:none"
     d="M1072.687744,1349.5L1146.982422,1250.5L1146.991211,1063.502441L1147,876.505005L1072.752563,802.252502L998.505005,728L884.757324,728L771.009583,728L770.754822,627.75L770.5,527.5L623.25,527.246704L476,526.993408L476.008118,688.246704L476.016235,849.5L525.394958,898.75L574.773682,948L700.89032,948L827.006897,948L826.753479,1088.75L826.5,1229.5L626.5,1229.782837C516.5,1229.938477,425.037506,1229.805542,423.25,1229.487549L420,1228.909424L420,1103.954712L420,979L272.5,979L125,979L125,1139.795898L125,1300.591797L186.75,1374.769409L248.5,1448.947021L623.446533,1448.723511L998.393066,1448.5L1072.687744,1349.5z"
     id="path32" />
  <path
     transform="matrix(0.027287,0,0,-0.027305,76.149796,-240.398788)"
     style="stroke:#00a0ff;stroke-width:9.693119;fill:none;stroke-miterlimit:4;stroke-dasharray:none"
     d="M771,361.5L771,277L623.5,277L476,277L476,361.5L476,446L623.5,446L771,446L771,361.5z"
     id="path34" />
  <circle
     transform="matrix(1,0,0,-1,116.022003,-286.458008)"
     style="stroke:#00a0ff;stroke-width:0.26458336;fill:none;stroke-miterlimit:4;stroke-dasharray:none"
     r="1.999994"
     cx="0"
     cy="0"
     id="circle36" />
  <circle
     transform="matrix(1,0,0,-1,116.025002,-241.485992)"
     style="stroke:#00a0ff;stroke-width:0.26458336;fill:none;stroke-miterlimit:4;stroke-dasharray:none"
     r="1.999994"
     cx="0"
     cy="0"
     id="circle38" />
  <circle
     transform="matrix(1,0,0,-1,71.032997,-286.462006)"
     style="stroke:#00a0ff;stroke-width:0.26458336;fill:none;stroke-miterlimit:4;stroke-dasharray:none"
     r="1.999994"
     cx="0"
     cy="0"
     id="circle40" />
  <circle
     transform="matrix(1,0,0,-1,71.002998,-241.464996)"
     style="stroke:#00a0ff;stroke-width:0.26458336;fill:none;stroke-miterlimit:4;stroke-dasharray:none"
     r="1.999994"
     cx="0"
     cy="0"
     id="circle42" />
  <path
     transform="matrix(0.027287,0,0,-0.027305,138.477692,-240.4608)"
     style="stroke:#00a0ff;stroke-width:9.693119;fill:none;stroke-miterlimit:4;stroke-dasharray:none"
     d="M1072.687744,1349.5L1146.982422,1250.5L1146.991211,1063.502441L1147,876.505005L1072.752563,802.252502L998.505005,728L884.757324,728L771.009583,728L770.754822,627.75L770.5,527.5L623.25,527.246704L476,526.993408L476.008118,688.246704L476.016235,849.5L525.394958,898.75L574.773682,948L700.89032,948L827.006897,948L826.753479,1088.75L826.5,1229.5L626.5,1229.782837C516.5,1229.938477,425.037506,1229.805542,423.25,1229.487549L420,1228.909424L420,1103.954712L420,979L272.5,979L125,979L125,1139.795898L125,1300.591797L186.75,1374.769409L248.5,1448.947021L623.446533,1448.723511L998.393066,1448.5L1072.687744,1349.5z"
     id="path44" />
  <path
     transform="matrix(0.027287,0,0,-0.027305,138.477692,-240.4608)"
     style="stroke:#00a0ff;stroke-width:9.693119;fill:none;stroke-miterlimit:4;stroke-dasharray:none"
     d="M771,361.5L771,277L623.5,277L476,277L476,361.5L476,446L623.5,446L771,446L771,361.5z"
     id="path46" />
  <circle
     transform="matrix(1,0,0,-1,178.350006,-286.519989)"
     style="stroke:#00a0ff;stroke-width:0.26458336;fill:none;stroke-miterlimit:4;stroke-dasharray:none"
     r="1.999994"
     cx="0"
     cy="0"
     id="circle48" />
  <circle
     transform="matrix(1,0,0,-1,178.352997,-241.548004)"
     style="stroke:#00a0ff;stroke-width:0.26458336;fill:none;stroke-miterlimit:4;stroke-dasharray:none"
     r="1.999994"
     cx="0"
     cy="0"
     id="circle50" />
  <circle
     transform="matrix(1,0,0,-1,133.360992,-286.523987)"
     style="stroke:#00a0ff;stroke-width:0.26458336;fill:none;stroke-miterlimit:4;stroke-dasharray:none"
     r="1.999994"
     cx="0"
     cy="0"
     id="circle52" />
  <circle
     transform="matrix(1,0,0,-1,133.330994,-241.526993)"
     style="stroke:#00a0ff;stroke-width:0.26458336;fill:none;stroke-miterlimit:4;stroke-dasharray:none"
     r="1.999994"
     cx="0"
     cy="0"
     id="circle54" />
  <path
     transform="matrix(0.027287,0,0,-0.027305,127.427895,-180.542801)"
     style="stroke:#00a0ff;stroke-width:9.693119;fill:none;stroke-miterlimit:4;stroke-dasharray:none"
     d="M1072.687744,1349.5L1146.982422,1250.5L1146.991211,1063.502441L1147,876.505005L1072.752563,802.252502L998.505005,728L884.757324,728L771.009583,728L770.754822,627.75L770.5,527.5L623.25,527.246704L476,526.993408L476.008118,688.246704L476.016235,849.5L525.394958,898.75L574.773682,948L700.89032,948L827.006897,948L826.753479,1088.75L826.5,1229.5L626.5,1229.782837C516.5,1229.938477,425.037506,1229.805542,423.25,1229.487549L420,1228.909424L420,1103.954712L420,979L272.5,979L125,979L125,1139.795898L125,1300.591797L186.75,1374.769409L248.5,1448.947021L623.446533,1448.723511L998.393066,1448.5L1072.687744,1349.5z"
     id="path56" />
  <path
     transform="matrix(0.027287,0,0,-0.027305,127.427895,-180.542801)"
     style="stroke:#00a0ff;stroke-width:9.693119;fill:none;stroke-miterlimit:4;stroke-dasharray:none"
     d="M771,361.5L771,277L623.5,277L476,277L476,361.5L476,446L623.5,446L771,446L771,361.5z"
     id="path58" />
  <circle
     transform="matrix(1,0,0,-1,167.300003,-226.602005)"
     style="stroke:#00a0ff;stroke-width:0.26458336;fill:none;stroke-miterlimit:4;stroke-dasharray:none"
     r="1.999994"
     cx="0"
     cy="0"
     id="circle60" />
  <circle
     transform="matrix(1,0,0,-1,167.302994,-181.630005)"
     style="stroke:#00a0ff;stroke-width:0.26458336;fill:none;stroke-miterlimit:4;stroke-dasharray:none"
     r="1.999994"
     cx="0"
     cy="0"
     id="circle62" />
  <circle
     transform="matrix(1,0,0,-1,122.310997,-226.606003)"
     style="stroke:#00a0ff;stroke-width:0.26458336;fill:none;stroke-miterlimit:4;stroke-dasharray:none"
     r="1.999994"
     cx="0"
     cy="0"
     id="circle64" />
  <circle
     transform="matrix(1,0,0,-1,122.280998,-181.608994)"
     style="stroke:#00a0ff;stroke-width:0.26458336;fill:none;stroke-miterlimit:4;stroke-dasharray:none"
     r="1.999994"
     cx="0"
     cy="0"
     id="circle66" />
  <path
     transform="matrix(0.027287,0,0,-0.027305,189.9198,-180.268814)"
     style="stroke:#00a0ff;stroke-width:9.693119;fill:none;stroke-miterlimit:4;stroke-dasharray:none"
     d="M1072.687744,1349.5L1146.982422,1250.5L1146.991211,1063.502441L1147,876.505005L1072.752563,802.252502L998.505005,728L884.757324,728L771.009583,728L770.754822,627.75L770.5,527.5L623.25,527.246704L476,526.993408L476.008118,688.246704L476.016235,849.5L525.394958,898.75L574.773682,948L700.89032,948L827.006897,948L826.753479,1088.75L826.5,1229.5L626.5,1229.782837C516.5,1229.938477,425.037506,1229.805542,423.25,1229.487549L420,1228.909424L420,1103.954712L420,979L272.5,979L125,979L125,1139.795898L125,1300.591797L186.75,1374.769409L248.5,1448.947021L623.446533,1448.723511L998.393066,1448.5L1072.687744,1349.5z"
     id="path68" />
  <path
     transform="matrix(0.027287,0,0,-0.027305,189.9198,-180.268814)"
     style="stroke:#00a0ff;stroke-width:9.693119;fill:none;stroke-miterlimit:4;stroke-dasharray:none"
     d="M771,361.5L771,277L623.5,277L476,277L476,361.5L476,446L623.5,446L771,446L771,361.5z"
     id="path70" />
  <circle
     transform="matrix(1,0,0,-1,229.792007,-226.328003)"
     style="stroke:#00a0ff;stroke-width:0.26458336;fill:none;stroke-miterlimit:4;stroke-dasharray:none"
     r="1.999994"
     cx="0"
     cy="0"
     id="circle72" />
  <circle
     transform="matrix(1,0,0,-1,229.794998,-181.356003)"
     style="stroke:#00a0ff;stroke-width:0.26458336;fill:none;stroke-miterlimit:4;stroke-dasharray:none"
     r="1.999994"
     cx="0"
     cy="0"
     id="circle74" />
  <circle
     transform="matrix(1,0,0,-1,184.802994,-226.332001)"
     style="stroke:#00a0ff;stroke-width:0.26458336;fill:none;stroke-miterlimit:4;stroke-dasharray:none"
     r="1.999994"
     cx="0"
     cy="0"
     id="circle76" />
  <circle
     transform="matrix(1,0,0,-1,184.772995,-181.335007)"
     style="stroke:#00a0ff;stroke-width:0.26458336;fill:none;stroke-miterlimit:4;stroke-dasharray:none"
     r="1.999994"
     cx="0"
     cy="0"
     id="circle78" />
  <path
     transform="matrix(-1,-0,-0,1,311.872009,-233.796005)"
     style="stroke:#000000;stroke-width:0.26458336;fill:none;stroke-miterlimit:4;stroke-dasharray:none"
     d="M24.0898,-56.636703L24.085894,-56.632797C24.132769,-56.632797,24.167925,-56.667953,24.167925,-56.714828L24.167925,-53.51561C24.167925,-53.558578,24.132769,-53.593735,24.0898,-53.593735L30.488237,-53.593735C30.445269,-53.593735,30.410112,-53.558578,30.410112,-53.51561L30.410112,-56.714828C30.410112,-56.67186,30.445269,-56.636703,30.488237,-56.636703L24.0898,-56.636703z"
     id="path80" />
  <path
     transform="matrix(-1,-0,-0,1,311.872009,-233.796005)"
     style="stroke:#000000;stroke-width:0.26458336;fill:none;stroke-miterlimit:4;stroke-dasharray:none"
     d="M36.890598,-56.636703L36.886692,-56.632797C36.929661,-56.632797,36.968723,-56.667953,36.968723,-56.714828L36.968723,-53.51561C36.968723,-53.558578,36.933567,-53.593735,36.890598,-53.593735L43.289036,-53.593735C43.246067,-53.593735,43.210911,-53.558578,43.210911,-53.51561L43.210911,-56.714828C43.210911,-56.67186,43.246067,-56.636703,43.289036,-56.636703L36.890598,-56.636703z"
     id="path82" />
  <path
     transform="matrix(-1,-0,-0,1,311.872009,-233.796005)"
     style="stroke:#000000;stroke-width:0.26458336;fill:none;stroke-miterlimit:4;stroke-dasharray:none"
     d="M49.6875,-56.636703L49.6875,-56.632797C49.730469,-56.632797,49.765625,-56.667953,49.765625,-56.714828L49.765625,-53.51561C49.765625,-53.558578,49.730469,-53.593735,49.6875,-53.593735L56.085938,-53.593735C56.042969,-53.593735,56.007813,-53.558578,56.007813,-53.51561L56.007813,-56.714828C56.007813,-56.67186,56.042969,-56.636703,56.085938,-56.636703L49.6875,-56.636703z"
     id="path84" />
  <path
     transform="matrix(-1,-0,-0,1,311.872009,-233.796005)"
     style="stroke:#000000;stroke-width:0.26458336;fill:none;stroke-miterlimit:4;stroke-dasharray:none"
     d="M16.648476,-60.152317L63.527382,-60.152317L70.085976,-60.152317C70.128944,-60.152317,70.164101,-60.117161,70.164101,-60.074192L70.164101,-53.515598"
     id="path86" />
  <path
     transform="matrix(-1,-0,-0,1,311.872009,-233.796005)"
     style="stroke:#000000;stroke-width:0.26458336;fill:none;stroke-miterlimit:4;stroke-dasharray:none"
     d="M66.644501,-46.0742C66.644501,-46.031231,66.679657,-45.996075,66.722626,-45.996075L63.523407,-45.996075C63.566376,-45.996075,63.601532,-46.031231,63.601532,-46.0742L63.601532,-39.675762C63.601532,-39.718731,63.566376,-39.753887,63.523407,-39.753887L66.722626,-39.753887C66.679657,-39.753887,66.644501,-39.718731,66.644501,-39.675762L66.644501,-46.0742z"
     id="path88" />
  <path
     transform="matrix(-1,-0,-0,1,311.872009,-233.796005)"
     style="stroke:#000000;stroke-width:0.26458336;fill:none;stroke-miterlimit:4;stroke-dasharray:none"
     d="M66.644501,-33.273399L66.644501,-33.277306C66.644501,-33.230431,66.679657,-33.195274,66.722626,-33.195274L63.523407,-33.195274C63.566376,-33.195274,63.601532,-33.230431,63.601532,-33.273399L63.601532,-26.874962C63.601532,-26.917931,63.566376,-26.953087,63.523407,-26.953087L66.722626,-26.953087C66.679657,-26.953087,66.644501,-26.917931,66.644501,-26.874962L66.644501,-33.273399z"
     id="path90" />
  <path
     transform="matrix(-1,-0,-0,1,311.872009,-233.796005)"
     style="stroke:#000000;stroke-width:0.26458336;fill:none;stroke-miterlimit:4;stroke-dasharray:none"
     d="M66.644501,-20.4727L66.644501,-20.476606C66.644501,-20.429731,66.679657,-20.394575,66.722626,-20.394575L63.523407,-20.394575C63.566376,-20.394575,63.601532,-20.429731,63.601532,-20.4727L63.601532,-14.074263C63.601532,-14.117231,63.566376,-14.152388,63.523407,-14.152388L66.722626,-14.152388C66.679657,-14.152388,66.644501,-14.117231,66.644501,-14.074263L66.644501,-20.4727z"
     id="path92" />
  <path
     transform="matrix(-1,-0,-0,1,311.872009,-233.796005)"
     style="stroke:#000000;stroke-width:0.26458336;fill:none;stroke-miterlimit:4;stroke-dasharray:none"
     d="M70.164024,-53.515625L70.164024,-6.636719L70.164024,-0.078125C70.164024,-0.035156,70.12886,0,70.085899,0L63.527302,0"
     id="path94" />
  <path
     transform="matrix(-1,-0,-0,1,311.872009,-233.796005)"
     style="stroke:#000000;stroke-width:0.26458336;fill:none;stroke-miterlimit:4;stroke-dasharray:none"
     d="M56.085899,-3.5195C56.042931,-3.5195,56.007774,-3.484344,56.007774,-3.441375L56.007774,-6.640594C56.007774,-6.597625,56.042931,-6.562469,56.085899,-6.562469L49.687462,-6.562469C49.730431,-6.562469,49.765587,-6.597625,49.765587,-6.640594L49.765587,-3.441375C49.765587,-3.484344,49.730431,-3.5195,49.687462,-3.5195L56.085899,-3.5195z"
     id="path96" />
  <path
     transform="matrix(-1,-0,-0,1,311.872009,-233.796005)"
     style="stroke:#000000;stroke-width:0.26458336;fill:none;stroke-miterlimit:4;stroke-dasharray:none"
     d="M43.285198,-3.5195L43.289104,-3.5195C43.242229,-3.5195,43.207073,-3.484344,43.207073,-3.441375L43.207073,-6.640594C43.207073,-6.597625,43.242229,-6.562469,43.285198,-6.562469L36.886761,-6.562469C36.929729,-6.562469,36.964886,-6.597625,36.964886,-6.640594L36.964886,-3.441375C36.964886,-3.484344,36.929729,-3.5195,36.886761,-3.5195L43.285198,-3.5195z"
     id="path98" />
  <path
     transform="matrix(-1,-0,-0,1,311.872009,-233.796005)"
     style="stroke:#000000;stroke-width:0.26458336;fill:none;stroke-miterlimit:4;stroke-dasharray:none"
     d="M30.4844,-3.5195L30.488306,-3.5195C30.441431,-3.5195,30.406275,-3.484344,30.406275,-3.441375L30.406275,-6.640594C30.406275,-6.597625,30.441431,-6.562469,30.4844,-6.562469L24.085962,-6.562469C24.128931,-6.562469,24.164087,-6.597625,24.164087,-6.640594L24.164087,-3.441375C24.164087,-3.484344,24.128931,-3.5195,24.085962,-3.5195L30.4844,-3.5195z"
     id="path100" />
  <path
     transform="matrix(-1,-0,-0,1,311.872009,-233.796005)"
     style="stroke:#000000;stroke-width:0.26458336;fill:none;stroke-miterlimit:4;stroke-dasharray:none"
     d="M63.527325,0.00002L16.648418,0.00002L10.089825,0.00002C10.046856,0.00002,10.0117,-0.035138,10.0117,-0.078105L10.0117,-6.6367"
     id="path102" />
  <path
     transform="matrix(-1,-0,-0,1,311.872009,-233.796005)"
     style="stroke:#000000;stroke-width:0.26458336;fill:none;stroke-miterlimit:4;stroke-dasharray:none"
     d="M13.5313,-14.0781C13.5313,-14.121069,13.496143,-14.156225,13.453175,-14.156225L16.652393,-14.156225C16.609425,-14.156225,16.574268,-14.121069,16.574268,-14.0781L16.574268,-20.476538C16.574268,-20.433569,16.609425,-20.398413,16.652393,-20.398413L13.453175,-20.398413C13.496143,-20.398413,13.5313,-20.433569,13.5313,-20.476538L13.5313,-14.0781z"
     id="path104" />
  <path
     transform="matrix(-1,-0,-0,1,311.872009,-233.796005)"
     style="stroke:#000000;stroke-width:0.26458336;fill:none;stroke-miterlimit:4;stroke-dasharray:none"
     d="M13.5313,-26.878899L13.5313,-26.874992C13.5313,-26.921867,13.496143,-26.957024,13.453175,-26.957024L16.652393,-26.957024C16.609425,-26.957024,16.574268,-26.921867,16.574268,-26.878899L16.574268,-33.277336C16.574268,-33.234367,16.609425,-33.199211,16.652393,-33.199211L13.453175,-33.199211C13.496143,-33.199211,13.5313,-33.234367,13.5313,-33.277336L13.5313,-26.878899z"
     id="path106" />
  <path
     transform="matrix(-1,-0,-0,1,311.872009,-233.796005)"
     style="stroke:#000000;stroke-width:0.26458336;fill:none;stroke-miterlimit:4;stroke-dasharray:none"
     d="M13.5313,-39.679699L13.5313,-39.675793C13.5313,-39.722668,13.496143,-39.757824,13.453175,-39.757824L16.652393,-39.757824C16.609425,-39.757824,16.574268,-39.722668,16.574268,-39.679699L16.574268,-46.078136C16.574268,-46.035168,16.609425,-46.000011,16.652393,-46.000011L13.453175,-46.000011C13.496143,-46.000011,13.5313,-46.035168,13.5313,-46.078136L13.5313,-39.679699z"
     id="path108" />
  <path
     transform="matrix(-1,-0,-0,1,311.872009,-233.796005)"
     style="stroke:#000000;stroke-width:0.26458336;fill:none;stroke-miterlimit:4;stroke-dasharray:none"
     d="M10.011681,-6.636673L10.011681,-53.515579L10.011681,-60.074173C10.011681,-60.117142,10.046837,-60.152298,10.089806,-60.152298L16.648399,-60.152298"
     id="path110" />
</svg>
