<?xml version="1.0" encoding="utf-8"?>
<!-- Generator: Adobe Illustrator 27.5.0, SVG Export Plug-In . SVG Version: 6.00 Build 0)  -->
<svg version="1.1" id="Layer_1" xmlns="http://www.w3.org/2000/svg" xmlns:xlink="http://www.w3.org/1999/xlink" x="0px" y="0px"
	 viewBox="0 0 4001 1841" style="enable-background:new 0 0 4001 1841;" xml:space="preserve">
<polygon style="fill:#231F20;" points="3603.074,794.274 3603.074,913.101 3576.538,913.101 3576.538,885.969 3572.809,885.969 
	3572.809,913.101 3544.416,913.101 3544.416,885.969 3540.686,885.969 3540.686,913.101 3512.286,913.101 3512.286,885.969 
	3508.556,885.969 3508.556,913.101 3480.163,913.101 3480.163,885.969 3476.434,885.969 3476.434,913.101 3448.966,913.101 
	3448.966,829.889 3443.372,829.889 3443.372,913.101 3415.911,913.101 3415.911,885.969 3412.182,885.969 3412.182,913.101 
	3383.781,913.101 3383.781,885.969 3380.052,885.969 3380.052,913.101 3351.659,913.101 3351.659,885.969 3347.929,885.969 
	3347.929,913.101 3319.529,913.101 3319.529,885.969 3315.8,885.969 3315.8,913.101 3289.271,913.101 3289.271,794.274 
	3281.813,794.274 3281.813,913.101 3255.277,913.101 3255.277,885.969 3251.547,885.969 3251.547,913.101 3223.154,913.101 
	3223.154,885.969 3219.425,885.969 3219.425,913.101 3191.024,913.101 3191.024,885.969 3187.295,885.969 3187.295,913.101 
	3158.902,913.101 3158.902,885.969 3155.173,885.969 3155.173,913.101 3127.704,913.101 3127.704,829.889 3122.11,829.889 
	3122.11,913.101 3094.65,913.101 3094.65,885.969 3090.92,885.969 3090.92,913.101 3062.52,913.101 3062.52,885.969 
	3058.79,885.969 3058.79,913.101 3030.397,913.101 3030.397,885.969 3026.668,885.969 3026.668,913.101 2998.268,913.101 
	2998.268,885.969 2994.538,885.969 2994.538,913.101 2968.01,913.101 2968.01,794.274 2960.551,794.274 2960.551,913.101 
	2934.015,913.101 2934.015,885.969 2930.286,885.969 2930.286,913.101 2901.893,913.101 2901.893,885.969 2898.163,885.969 
	2898.163,913.101 2869.763,913.101 2869.763,885.969 2866.033,885.969 2866.033,913.101 2837.64,913.101 2837.64,885.969 
	2833.911,885.969 2833.911,913.101 2806.45,913.101 2806.45,829.889 2800.856,829.889 2800.856,913.101 2773.388,913.101 
	2773.388,885.969 2769.659,885.969 2769.659,913.101 2741.266,913.101 2741.266,885.969 2737.536,885.969 2737.536,913.101 
	2709.136,913.101 2709.136,885.969 2705.406,885.969 2705.406,913.101 2677.013,913.101 2677.013,885.969 2673.284,885.969 
	2673.284,913.101 2646.748,913.101 2646.748,794.274 2639.289,794.274 2639.289,913.101 2612.761,913.101 2612.761,885.969 
	2609.031,885.969 2609.031,913.101 2580.631,913.101 2580.631,885.969 2576.902,885.969 2576.902,913.101 2548.509,913.101 
	2548.509,885.969 2544.779,885.969 2544.779,913.101 2516.379,913.101 2516.379,885.969 2512.649,885.969 2512.649,913.101 
	2485.189,913.101 2485.189,829.889 2479.594,829.889 2479.594,913.101 2452.127,913.101 2452.127,885.969 2448.397,885.969 
	2448.397,913.101 2420.004,913.101 2420.004,885.969 2416.275,885.969 2416.275,913.101 2387.874,913.101 2387.874,885.969 
	2384.145,885.969 2384.145,913.101 2355.752,913.101 2355.752,885.969 2352.022,885.969 2352.022,913.101 2325.494,913.101 
	2325.494,794.274 2318.035,794.274 2318.035,913.101 2291.5,913.101 2291.5,885.969 2287.77,885.969 2287.77,913.101 
	2259.37,913.101 2259.37,885.969 2255.64,885.969 2255.64,913.101 2227.247,913.101 2227.247,885.969 2223.518,885.969 
	2223.518,913.101 2195.117,913.101 2195.117,885.969 2191.388,885.969 2191.388,913.101 2163.927,913.101 2163.927,829.889 
	2158.333,829.889 2158.333,913.101 2130.865,913.101 2130.865,885.969 2127.135,885.969 2127.135,913.101 2098.743,913.101 
	2098.743,885.969 2095.013,885.969 2095.013,913.101 2066.613,913.101 2066.613,885.969 2062.883,885.969 2062.883,913.101 
	2034.49,913.101 2034.49,885.969 2030.761,885.969 2030.761,913.101 2004.233,913.101 2004.233,794.274 1996.774,794.274 
	1996.774,913.101 1970.238,913.101 1970.238,885.969 1966.509,885.969 1966.509,913.101 1938.108,913.101 1938.108,885.969 
	1934.379,885.969 1934.379,913.101 1905.986,913.101 1905.986,885.969 1902.256,885.969 1902.256,913.101 1873.859,913.101 
	1873.859,885.969 1870.13,885.969 1870.13,913.101 1842.666,913.101 1842.666,829.889 1837.072,829.889 1837.072,913.101 
	1809.607,913.101 1809.607,885.969 1805.878,885.969 1805.878,913.101 1777.481,913.101 1777.481,885.969 1773.752,885.969 
	1773.752,913.101 1745.355,913.101 1745.355,885.969 1741.625,885.969 1741.625,913.101 1713.229,913.101 1713.229,885.969 
	1709.499,885.969 1709.499,913.101 1682.971,913.101 1682.971,794.274 1675.512,794.274 1675.512,913.101 1648.976,913.101 
	1648.976,885.969 1645.247,885.969 1645.247,913.101 1616.85,913.101 1616.85,885.969 1613.121,885.969 1613.121,913.101 
	1584.724,913.101 1584.724,885.969 1580.995,885.969 1580.995,913.101 1552.598,913.101 1552.598,885.969 1548.869,885.969 
	1548.869,913.101 1521.404,913.101 1521.404,829.889 1515.81,829.889 1515.81,913.101 1488.346,913.101 1488.346,885.969 
	1484.616,885.969 1484.616,913.101 1456.219,913.101 1456.219,885.969 1452.49,885.969 1452.49,913.101 1424.093,913.101 
	1424.093,885.969 1420.364,885.969 1420.364,913.101 1391.967,913.101 1391.967,885.969 1388.238,885.969 1388.238,913.101 
	1361.709,913.101 1361.709,794.274 1354.251,794.274 1354.251,913.101 1327.719,913.101 1327.719,885.969 1323.989,885.969 
	1323.989,913.101 1295.592,913.101 1295.592,885.969 1291.863,885.969 1291.863,913.101 1263.466,913.101 1263.466,885.969 
	1259.737,885.969 1259.737,913.101 1231.34,913.101 1231.34,885.969 1227.611,885.969 1227.611,913.101 1200.146,913.101 
	1200.146,829.889 1194.552,829.889 1194.552,913.101 1167.088,913.101 1167.088,885.969 1163.358,885.969 1163.358,913.101 
	1134.962,913.101 1134.962,885.969 1131.232,885.969 1131.232,913.101 1102.835,913.101 1102.835,885.969 1099.106,885.969 
	1099.106,913.101 1070.709,913.101 1070.709,885.969 1066.98,885.969 1066.98,913.101 1040.448,913.101 1040.448,794.274 
	1032.989,794.274 1032.989,913.101 1006.457,913.101 1006.457,885.969 1002.728,885.969 1002.728,913.101 974.331,913.101 
	974.331,885.969 970.602,885.969 970.602,913.101 942.205,913.101 942.205,885.969 938.475,885.969 938.475,913.101 
	910.079,913.101 910.079,885.969 906.349,885.969 906.349,913.101 878.885,913.101 878.885,829.889 873.291,829.889 
	873.291,913.101 845.826,913.101 845.826,885.969 842.097,885.969 842.097,913.101 813.7,913.101 813.7,885.969 809.971,885.969 
	809.971,913.101 781.574,913.101 781.574,885.969 777.845,885.969 777.845,913.101 749.448,913.101 749.448,885.969 
	745.719,885.969 745.719,913.101 719.19,913.101 719.19,794.274 711.731,794.274 711.731,913.101 685.196,913.101 685.196,885.969 
	681.466,885.969 681.466,913.101 653.069,913.101 653.069,885.969 649.34,885.969 649.34,913.101 620.943,913.101 620.943,885.969 
	617.214,885.969 617.214,913.101 588.817,913.101 588.817,885.969 585.088,885.969 585.088,913.101 557.623,913.101 
	557.623,829.889 552.029,829.889 552.029,913.101 524.565,913.101 524.565,885.969 520.835,885.969 520.835,913.101 
	492.439,913.101 492.439,885.969 488.709,885.969 488.709,913.101 460.313,913.101 460.313,885.969 456.583,885.969 
	456.583,913.101 428.186,913.101 428.186,885.969 424.457,885.969 424.457,913.101 397.929,913.101 397.929,794.274 390.47,794.274 
	390.47,1033.79 397.929,1033.79 397.929,914.966 424.457,914.966 424.457,942.099 428.186,942.099 428.186,914.966 456.583,914.966 
	456.583,942.099 460.313,942.099 460.313,914.966 488.709,914.966 488.709,942.099 492.439,942.099 492.439,914.966 
	520.835,914.966 520.835,942.099 524.565,942.099 524.565,914.966 552.029,914.966 552.029,998.179 557.623,998.179 
	557.623,914.966 585.088,914.966 585.088,942.099 588.817,942.099 588.817,914.966 617.214,914.966 617.214,942.099 
	620.943,942.099 620.943,914.966 649.34,914.966 649.34,942.099 653.069,942.099 653.069,914.966 681.466,914.966 681.466,942.099 
	685.196,942.099 685.196,914.966 711.731,914.966 711.731,1033.79 719.19,1033.79 719.19,914.966 745.719,914.966 745.719,942.099 
	749.448,942.099 749.448,914.966 777.845,914.966 777.845,942.099 781.574,942.099 781.574,914.966 809.971,914.966 
	809.971,942.099 813.7,942.099 813.7,914.966 842.097,914.966 842.097,942.099 845.826,942.099 845.826,914.966 873.291,914.966 
	873.291,998.179 878.885,998.179 878.885,914.966 906.349,914.966 906.349,942.099 910.079,942.099 910.079,914.966 
	938.475,914.966 938.475,942.099 942.205,942.099 942.205,914.966 970.602,914.966 970.602,942.099 974.331,942.099 
	974.331,914.966 1002.728,914.966 1002.728,942.099 1006.457,942.099 1006.457,914.966 1032.989,914.966 1032.989,1033.79 
	1040.448,1033.79 1040.448,914.966 1066.98,914.966 1066.98,942.099 1070.709,942.099 1070.709,914.966 1099.106,914.966 
	1099.106,942.099 1102.835,942.099 1102.835,914.966 1131.232,914.966 1131.232,942.099 1134.962,942.099 1134.962,914.966 
	1163.358,914.966 1163.358,942.099 1167.088,942.099 1167.088,914.966 1194.552,914.966 1194.552,998.179 1200.146,998.179 
	1200.146,914.966 1227.611,914.966 1227.611,942.099 1231.34,942.099 1231.34,914.966 1259.737,914.966 1259.737,942.099 
	1263.466,942.099 1263.466,914.966 1291.863,914.966 1291.863,942.099 1295.592,942.099 1295.592,914.966 1323.989,914.966 
	1323.989,942.099 1327.719,942.099 1327.719,914.966 1354.251,914.966 1354.251,1033.79 1361.709,1033.79 1361.709,914.966 
	1388.238,914.966 1388.238,942.099 1391.967,942.099 1391.967,914.966 1420.364,914.966 1420.364,942.099 1424.093,942.099 
	1424.093,914.966 1452.49,914.966 1452.49,942.099 1456.219,942.099 1456.219,914.966 1484.616,914.966 1484.616,942.099 
	1488.346,942.099 1488.346,914.966 1515.81,914.966 1515.81,998.179 1521.404,998.179 1521.404,914.966 1548.869,914.966 
	1548.869,942.099 1552.598,942.099 1552.598,914.966 1580.995,914.966 1580.995,942.099 1584.724,942.099 1584.724,914.966 
	1613.121,914.966 1613.121,942.099 1616.85,942.099 1616.85,914.966 1645.247,914.966 1645.247,942.099 1648.976,942.099 
	1648.976,914.966 1675.512,914.966 1675.512,1033.79 1682.971,1033.79 1682.971,914.966 1709.499,914.966 1709.499,942.099 
	1713.229,942.099 1713.229,914.966 1741.625,914.966 1741.625,942.099 1745.355,942.099 1745.355,914.966 1773.752,914.966 
	1773.752,942.099 1777.481,942.099 1777.481,914.966 1805.878,914.966 1805.878,942.099 1809.607,942.099 1809.607,914.966 
	1837.072,914.966 1837.072,998.179 1842.666,998.179 1842.666,914.966 1870.13,914.966 1870.13,942.099 1873.859,942.099 
	1873.859,914.966 1902.256,914.966 1902.256,942.099 1905.986,942.099 1905.986,914.966 1934.379,914.966 1934.379,942.099 
	1938.108,942.099 1938.108,914.966 1966.509,914.966 1966.509,942.099 1970.238,942.099 1970.238,914.966 1996.774,914.966 
	1996.774,1033.79 2004.233,1033.79 2004.233,914.966 2030.761,914.966 2030.761,942.099 2034.49,942.099 2034.49,914.966 
	2062.883,914.966 2062.883,942.099 2066.613,942.099 2066.613,914.966 2095.013,914.966 2095.013,942.099 2098.743,942.099 
	2098.743,914.966 2127.135,914.966 2127.135,942.099 2130.865,942.099 2130.865,914.966 2158.333,914.966 2158.333,998.179 
	2163.927,998.179 2163.927,914.966 2191.388,914.966 2191.388,942.099 2195.117,942.099 2195.117,914.966 2223.518,914.966 
	2223.518,942.099 2227.247,942.099 2227.247,914.966 2255.64,914.966 2255.64,942.099 2259.37,942.099 2259.37,914.966 
	2287.77,914.966 2287.77,942.099 2291.5,942.099 2291.5,914.966 2318.035,914.966 2318.035,1033.79 2325.494,1033.79 
	2325.494,914.966 2352.022,914.966 2352.022,942.099 2355.752,942.099 2355.752,914.966 2384.145,914.966 2384.145,942.099 
	2387.874,942.099 2387.874,914.966 2416.275,914.966 2416.275,942.099 2420.004,942.099 2420.004,914.966 2448.397,914.966 
	2448.397,942.099 2452.127,942.099 2452.127,914.966 2479.594,914.966 2479.594,998.179 2485.189,998.179 2485.189,914.966 
	2512.649,914.966 2512.649,942.099 2516.379,942.099 2516.379,914.966 2544.779,914.966 2544.779,942.099 2548.509,942.099 
	2548.509,914.966 2576.902,914.966 2576.902,942.099 2580.631,942.099 2580.631,914.966 2609.031,914.966 2609.031,942.099 
	2612.761,942.099 2612.761,914.966 2639.289,914.966 2639.289,1033.79 2646.748,1033.79 2646.748,914.966 2673.284,914.966 
	2673.284,942.099 2677.013,942.099 2677.013,914.966 2705.406,914.966 2705.406,942.099 2709.136,942.099 2709.136,914.966 
	2737.536,914.966 2737.536,942.099 2741.266,942.099 2741.266,914.966 2769.659,914.966 2769.659,942.099 2773.388,942.099 
	2773.388,914.966 2800.856,914.966 2800.856,998.179 2806.45,998.179 2806.45,914.966 2833.911,914.966 2833.911,942.099 
	2837.64,942.099 2837.64,914.966 2866.033,914.966 2866.033,942.099 2869.763,942.099 2869.763,914.966 2898.163,914.966 
	2898.163,942.099 2901.893,942.099 2901.893,914.966 2930.286,914.966 2930.286,942.099 2934.015,942.099 2934.015,914.966 
	2960.551,914.966 2960.551,1033.79 2968.01,1033.79 2968.01,914.966 2994.538,914.966 2994.538,942.099 2998.268,942.099 
	2998.268,914.966 3026.668,914.966 3026.668,942.099 3030.397,942.099 3030.397,914.966 3058.79,914.966 3058.79,942.099 
	3062.52,942.099 3062.52,914.966 3090.92,914.966 3090.92,942.099 3094.65,942.099 3094.65,914.966 3122.11,914.966 
	3122.11,998.179 3127.704,998.179 3127.704,914.966 3155.173,914.966 3155.173,942.099 3158.902,942.099 3158.902,914.966 
	3187.295,914.966 3187.295,942.099 3191.024,942.099 3191.024,914.966 3219.425,914.966 3219.425,942.099 3223.154,942.099 
	3223.154,914.966 3251.547,914.966 3251.547,942.099 3255.277,942.099 3255.277,914.966 3281.813,914.966 3281.813,1033.79 
	3289.271,1033.79 3289.271,914.966 3315.8,914.966 3315.8,942.099 3319.529,942.099 3319.529,914.966 3347.929,914.966 
	3347.929,942.099 3351.659,942.099 3351.659,914.966 3380.052,914.966 3380.052,942.099 3383.781,942.099 3383.781,914.966 
	3412.182,914.966 3412.182,942.099 3415.911,942.099 3415.911,914.966 3443.372,914.966 3443.372,998.179 3448.966,998.179 
	3448.966,914.966 3476.434,914.966 3476.434,942.099 3480.163,942.099 3480.163,914.966 3508.556,914.966 3508.556,942.099 
	3512.286,942.099 3512.286,914.966 3540.686,914.966 3540.686,942.099 3544.416,942.099 3544.416,914.966 3572.809,914.966 
	3572.809,942.099 3576.538,942.099 3576.538,914.966 3603.074,914.966 3603.074,1033.79 3610.533,1033.79 3610.533,794.274 "/>
<g>
	<polygon points="687.051,431.533 689.116,439.67 702.836,432.262 703.08,432.262 703.08,501.241 713.401,501.241 713.401,422.305 
		704.296,422.305 	"/>
	<path d="M1005.69,492.136l6.315-5.835c16.637-16.025,27.202-27.803,27.202-42.378c0-11.298-7.167-22.952-24.168-22.952
		c-9.109,0-16.881,3.402-22.344,8.012l3.402,7.532c3.642-3.038,9.593-6.68,16.757-6.68c11.778,0,15.664,7.408,15.664,15.42
		c-0.12,11.902-9.229,22.107-29.387,41.293l-8.38,8.136v6.556h50.398v-8.865h-35.459V492.136z"/>
	<path d="M1344.317,458.615v-0.24c9.717-3.526,14.572-10.445,14.572-18.582c0-9.593-7.044-18.822-22.588-18.822
		c-8.5,0-16.513,3.037-20.643,6.068l2.793,7.772c3.402-2.426,9.473-5.215,15.788-5.215c9.833,0,13.843,5.579,13.843,11.895
		c0,9.353-9.837,13.359-17.609,13.359h-5.951v8.02h5.951c10.321,0,20.279,4.735,20.403,15.784c0.12,6.556-4.13,15.304-17.853,15.304
		c-7.408,0-14.452-3.037-17.485-4.982l-2.917,8.26c3.886,2.549,11.658,5.339,20.526,5.339c18.942,0,28.779-11.05,28.779-23.68
		C1361.926,467.844,1354.034,460.56,1344.317,458.615z"/>
	<path d="M1677.357,422.305h-11.538l-35.218,50.398v7.044h36.675v21.495h10.081v-21.495h11.05v-8.377h-11.05V422.305z
		 M1667.276,445.016v26.354h-25.866v-0.248l19.31-26.834c2.185-3.642,4.13-7.044,6.556-11.662h0.364
		C1667.4,436.756,1667.276,440.886,1667.276,445.016z"/>
	<path d="M1992.908,455.337c-4.851-2.914-10.926-4.247-17.001-4.247c-2.914,0-4.618,0.24-6.439,0.481l3.045-20.279h30.112v-8.988
		h-37.768l-5.099,37.891c2.914-0.364,6.432-0.852,10.926-0.852c15.785,0,22.588,7.291,22.712,17.489
		c0,10.562-8.624,17.125-18.698,17.125c-7.167,0-13.607-2.433-16.884-4.37l-2.673,8.136c3.766,2.426,11.05,4.851,19.674,4.851
		c17.125,0,29.384-11.531,29.384-26.958C2004.198,465.659,1999.099,458.863,1992.908,455.337z"/>
	<path d="M2305.792,449.263c-8.741,0-15.304,4.13-19.062,9.112h-0.364c1.821-12.995,10.686-25.261,27.439-28.051
		c3.037-0.488,5.834-0.612,8.02-0.488v-8.741c-1.945,0-4.618,0.117-7.772,0.605c-9.957,1.216-18.705,5.223-25.261,11.654
		c-7.772,7.772-13.359,20.038-13.359,35.582c0,20.526,11.05,33.638,27.934,33.638c16.389,0,26.23-13.359,26.23-27.803
		C2329.597,459.344,2319.756,449.263,2305.792,449.263z M2303.367,494.322c-11.174,0-17.125-9.593-17.365-22.588
		c0-1.945,0.481-3.525,1.209-4.735c2.914-5.711,8.865-9.717,15.304-9.717c9.833,0,16.272,6.796,16.272,18.094
		C2318.787,486.666,2312.596,494.322,2303.367,494.322z"/>
	<polygon points="2599.491,431.169 2638.104,431.169 2638.104,431.417 2603.862,501.241 2614.912,501.241 2649.278,429.348 
		2649.278,422.305 2599.491,422.305 	"/>
	<path d="M2954.252,459.227v-0.364c9.717-4.618,12.995-11.786,12.995-18.465c0-9.833-7.648-19.427-22.952-19.427
		c-13.847,0-24.409,8.5-24.409,21.007c0,6.803,3.766,13.599,12.507,17.729l0.124,0.364c-9.717,4.13-15.668,11.174-15.668,21.131
		c0,11.538,9.957,21.371,26.477,21.371c15.056,0,26.834-9.229,26.834-22.952C2970.16,470.029,2964.085,463.109,2954.252,459.227z
		 M2929.967,441.25c0-6.803,4.858-12.631,13.723-12.631c9.593,0,13.352,6.556,13.352,12.871c0,7.167-5.215,12.026-12.019,14.335
		C2935.918,453.393,2929.967,449.146,2929.967,441.25z M2943.566,494.802c-10.081,0-15.967-7.038-15.784-15.056
		c0.171-7.53,4.975-13.599,14.204-16.272c10.686,3.037,17.365,7.648,17.365,17.241
		C2959.351,488.851,2953.159,494.802,2943.566,494.802z"/>
	<path d="M3266.532,420.971c-16.149,0-26.958,13.111-26.958,28.051c0,13.483,9.105,24.168,23.316,24.168
		c7.888,0,14.204-3.161,18.581-8.501h0.364c-1.457,9.353-5.223,16.272-10.445,21.007c-4.494,4.254-10.307,6.914-16.52,7.648
		c-3.635,0.429-6.308,0.612-8.617,0.364v8.748c2.549,0.117,5.939-0.083,9.833-0.612c8.478-1.151,16.885-4.611,22.952-10.562
		c7.772-7.532,13.599-19.674,13.599-37.039C3292.638,434.083,3282.681,420.971,3266.532,420.971z M3280.86,456.794
		c-2.79,4.735-8.377,8.26-15.544,8.26c-9.229,0-15.18-6.927-15.18-16.76c0-11.174,6.439-19.186,15.544-19.186
		c11.174,0,16.156,10.322,16.156,23.804C3281.836,454.609,3281.472,455.826,3280.86,456.794z"/>
	<polygon points="3535.873,421.591 3537.942,429.727 3551.658,422.319 3551.906,422.319 3551.906,491.299 3562.227,491.299 
		3562.227,412.362 3553.122,412.362 	"/>
	<path d="M3617.36,411.029c-16.025,0-27.446,14.575-27.446,41.045c0.248,26.106,10.693,40.557,26.113,40.557
		c17.489,0,27.446-14.816,27.446-41.65C3643.473,425.845,3633.996,411.029,3617.36,411.029z M3616.631,484.379
		c-9.717,0-16.025-11.662-16.025-32.181c0-21.495,6.796-32.909,16.149-32.909c11.05,0,16.032,12.747,16.032,32.181
		C3632.787,471.625,3627.564,484.379,3616.631,484.379z"/>
	<polygon points="3591.225,379.74 3591.225,195.892 371.162,195.892 371.162,379.737 378.621,379.737 378.621,203.351 
		405.152,203.351 405.152,255.745 408.882,255.745 408.882,203.351 437.279,203.351 437.279,255.745 441.008,255.745 
		441.008,203.351 469.405,203.351 469.405,255.745 473.134,255.745 473.134,203.351 501.531,203.351 501.531,255.745 
		505.26,255.745 505.26,203.351 532.725,203.351 532.725,294.932 538.319,294.932 538.319,203.351 565.783,203.351 565.783,255.745 
		569.513,255.745 569.513,203.351 597.909,203.351 597.909,255.745 601.639,255.745 601.639,203.351 630.036,203.351 
		630.036,255.745 633.765,255.745 633.765,203.351 662.162,203.351 662.162,255.745 665.891,255.745 665.891,203.351 
		692.423,203.351 692.423,379.74 699.882,379.74 699.882,203.351 726.414,203.351 726.414,255.748 730.143,255.748 730.143,203.351 
		758.54,203.351 758.54,255.748 762.27,255.748 762.27,203.351 790.666,203.351 790.666,255.748 794.396,255.748 794.396,203.351 
		822.792,203.351 822.792,255.748 826.522,255.748 826.522,203.351 853.986,203.351 853.986,294.936 859.58,294.936 859.58,203.351 
		887.045,203.351 887.045,255.748 890.774,255.748 890.774,203.351 919.171,203.351 919.171,255.748 922.9,255.748 922.9,203.351 
		951.297,203.351 951.297,255.748 955.026,255.748 955.026,203.351 983.423,203.351 983.423,255.748 987.153,255.748 
		987.153,203.351 1013.685,203.351 1013.685,379.74 1021.143,379.74 1021.143,203.351 1047.676,203.351 1047.676,255.748 
		1051.405,255.748 1051.405,203.351 1079.802,203.351 1079.802,255.748 1083.531,255.748 1083.531,203.351 1111.924,203.351 
		1111.924,255.748 1115.654,255.748 1115.654,203.351 1144.05,203.351 1144.05,255.748 1147.78,255.748 1147.78,203.351 
		1175.244,203.351 1175.244,294.936 1180.838,294.936 1180.838,203.351 1208.303,203.351 1208.303,255.748 1212.032,255.748 
		1212.032,203.351 1240.429,203.351 1240.429,255.748 1244.158,255.748 1244.158,203.351 1272.555,203.351 1272.555,255.748 
		1276.284,255.748 1276.284,203.351 1304.681,203.351 1304.681,255.748 1308.411,255.748 1308.411,203.351 1334.943,203.351 
		1334.943,379.74 1342.401,379.74 1342.401,203.351 1368.933,203.351 1368.933,255.748 1372.663,255.748 1372.663,203.351 
		1401.059,203.351 1401.059,255.748 1404.789,255.748 1404.789,203.351 1433.186,203.351 1433.186,255.748 1436.915,255.748 
		1436.915,203.351 1465.312,203.351 1465.312,255.748 1469.041,255.748 1469.041,203.351 1496.506,203.351 1496.506,294.936 
		1502.1,294.936 1502.1,203.351 1529.564,203.351 1529.564,255.748 1533.293,255.748 1533.293,203.351 1561.69,203.351 
		1561.69,255.748 1565.42,255.748 1565.42,203.351 1593.816,203.351 1593.816,255.748 1597.546,255.748 1597.546,203.351 
		1625.943,203.351 1625.943,255.748 1629.672,255.748 1629.672,203.351 1656.204,203.351 1656.204,379.74 1663.663,379.74 
		1663.663,203.351 1690.195,203.351 1690.195,255.748 1693.924,255.748 1693.924,203.351 1722.321,203.351 1722.321,255.748 
		1726.05,255.748 1726.05,203.351 1754.447,203.351 1754.447,255.748 1758.177,255.748 1758.177,203.351 1786.573,203.351 
		1786.573,255.748 1790.303,255.748 1790.303,203.351 1817.767,203.351 1817.767,294.936 1823.361,294.936 1823.361,203.351 
		1850.826,203.351 1850.826,255.748 1854.555,255.748 1854.555,203.351 1882.948,203.351 1882.948,255.748 1886.677,255.748 
		1886.677,203.351 1915.078,203.351 1915.078,255.748 1918.807,255.748 1918.807,203.351 1947.2,203.351 1947.2,255.748 
		1950.93,255.748 1950.93,203.351 1977.465,203.351 1977.465,379.74 1984.924,379.74 1984.924,203.351 2011.453,203.351 
		2011.453,255.748 2015.182,255.748 2015.182,203.351 2043.583,203.351 2043.583,255.748 2047.312,255.748 2047.312,203.351 
		2075.705,203.351 2075.705,255.748 2079.434,255.748 2079.434,203.351 2107.835,203.351 2107.835,255.748 2111.564,255.748 
		2111.564,203.351 2139.025,203.351 2139.025,294.936 2144.619,294.936 2144.619,203.351 2172.087,203.351 2172.087,255.748 
		2175.816,255.748 2175.816,203.351 2204.21,203.351 2204.21,255.748 2207.939,255.748 2207.939,203.351 2236.339,203.351 
		2236.339,255.748 2240.069,255.748 2240.069,203.351 2268.462,203.351 2268.462,255.748 2272.191,255.748 2272.191,203.351 
		2298.727,203.351 2298.727,379.74 2306.186,379.74 2306.186,203.351 2332.714,203.351 2332.714,255.748 2336.444,255.748 
		2336.444,203.351 2364.844,203.351 2364.844,255.748 2368.573,255.748 2368.573,203.351 2396.967,203.351 2396.967,255.748 
		2400.696,255.748 2400.696,203.351 2429.096,203.351 2429.096,255.748 2432.826,255.748 2432.826,203.351 2460.287,203.351 
		2460.287,294.936 2465.881,294.936 2465.881,203.351 2493.349,203.351 2493.349,255.748 2497.078,255.748 2497.078,203.351 
		2525.471,203.351 2525.471,255.748 2529.201,255.748 2529.201,203.351 2557.601,203.351 2557.601,255.748 2561.33,255.748 
		2561.33,203.351 2589.723,203.351 2589.723,255.748 2593.453,255.748 2593.453,203.351 2619.981,203.351 2619.981,379.74 
		2627.44,379.74 2627.44,203.351 2653.976,203.351 2653.976,255.748 2657.705,255.748 2657.705,203.351 2686.098,203.351 
		2686.098,255.748 2689.828,255.748 2689.828,203.351 2718.228,203.351 2718.228,255.748 2721.958,255.748 2721.958,203.351 
		2750.351,203.351 2750.351,255.748 2754.08,255.748 2754.08,203.351 2781.548,203.351 2781.548,294.936 2787.142,294.936 
		2787.142,203.351 2814.603,203.351 2814.603,255.748 2818.332,255.748 2818.332,203.351 2846.733,203.351 2846.733,255.748 
		2850.462,255.748 2850.462,203.351 2878.855,203.351 2878.855,255.748 2882.585,255.748 2882.585,203.351 2910.985,203.351 
		2910.985,255.748 2914.714,255.748 2914.714,203.351 2941.243,203.351 2941.243,379.74 2948.702,379.74 2948.702,203.351 
		2975.237,203.351 2975.237,255.748 2978.967,255.748 2978.967,203.351 3007.36,203.351 3007.36,255.748 3011.089,255.748 
		3011.089,203.351 3039.49,203.351 3039.49,255.748 3043.219,255.748 3043.219,203.351 3071.612,203.351 3071.612,255.748 
		3075.342,255.748 3075.342,203.351 3102.81,203.351 3102.81,294.936 3108.404,294.936 3108.404,203.351 3135.865,203.351 
		3135.865,255.748 3139.594,255.748 3139.594,203.351 3167.994,203.351 3167.994,255.748 3171.724,255.748 3171.724,203.351 
		3200.117,203.351 3200.117,255.748 3203.846,255.748 3203.846,203.351 3232.247,203.351 3232.247,255.748 3235.976,255.748 
		3235.976,203.351 3262.504,203.351 3262.504,379.74 3269.963,379.74 3269.963,203.351 3296.499,203.351 3296.499,255.748 
		3300.228,255.748 3300.228,203.351 3328.621,203.351 3328.621,255.748 3332.351,255.748 3332.351,203.351 3360.751,203.351 
		3360.751,255.748 3364.48,255.748 3364.48,203.351 3392.874,203.351 3392.874,255.748 3396.603,255.748 3396.603,203.351 
		3424.071,203.351 3424.071,294.936 3429.665,294.936 3429.665,203.351 3457.126,203.351 3457.126,255.748 3460.855,255.748 
		3460.855,203.351 3489.256,203.351 3489.256,255.748 3492.985,255.748 3492.985,203.351 3521.378,203.351 3521.378,255.748 
		3525.108,255.748 3525.108,203.351 3553.508,203.351 3553.508,255.748 3557.237,255.748 3557.237,203.351 3583.766,203.351 
		3583.766,379.74 	"/>
	<path d="M384.976,420.975c-16.029,0-27.446,14.575-27.446,41.046c0.244,26.106,10.689,40.557,26.109,40.557
		c17.489,0,27.446-14.816,27.446-41.65C411.085,435.791,401.612,420.975,384.976,420.975z M384.247,494.325
		c-9.717,0-16.029-11.662-16.029-32.181c0-21.495,6.8-32.909,16.149-32.909c11.053,0,16.032,12.747,16.032,32.181
		C400.4,481.571,395.177,494.325,384.247,494.325z"/>
</g>
<polygon style="fill:#231F20;" points="386.74,1396.935 386.74,1560.723 401.658,1560.723 401.658,1411.853 551.097,1411.853 
	551.097,1499.705 558.556,1499.705 558.556,1411.853 707.998,1411.853 707.998,1560.723 722.916,1560.723 722.916,1411.853 
	872.358,1411.853 872.358,1499.712 879.817,1499.712 879.817,1411.853 1029.26,1411.853 1029.26,1560.723 1044.177,1560.723 
	1044.177,1411.853 1193.62,1411.853 1193.62,1499.712 1201.079,1499.712 1201.079,1411.853 1350.521,1411.853 1350.521,1560.723 
	1365.439,1560.723 1365.439,1411.853 1514.878,1411.853 1514.878,1499.712 1522.337,1499.712 1522.337,1411.853 1671.779,1411.853 
	1671.779,1560.723 1686.697,1560.723 1686.697,1411.853 1836.139,1411.853 1836.139,1499.712 1843.598,1499.712 1843.598,1411.853 
	1993.044,1411.853 1993.044,1560.723 2007.962,1560.723 2007.962,1411.853 2157.401,1411.853 2157.401,1499.712 2164.86,1499.712 
	2164.86,1411.853 2314.298,1411.853 2314.298,1560.723 2329.216,1560.723 2329.216,1411.853 2478.662,1411.853 2478.662,1499.712 
	2486.121,1499.712 2486.121,1411.853 2635.56,1411.853 2635.56,1560.723 2650.478,1560.723 2650.478,1411.853 2799.917,1411.853 
	2799.917,1499.712 2807.375,1499.712 2807.375,1411.853 2956.821,1411.853 2956.821,1560.723 2971.739,1560.723 2971.739,1411.853 
	3121.178,1411.853 3121.178,1499.712 3128.637,1499.712 3128.637,1411.853 3278.083,1411.853 3278.083,1560.723 3293,1560.723 
	3293,1411.853 3442.439,1411.853 3442.439,1499.712 3449.898,1499.712 3449.898,1411.853 3599.344,1411.853 3599.344,1560.723 
	3614.262,1560.723 3614.262,1396.935 "/>
<rect x="0.5" y="0.5" style="fill:none;" width="4000" height="1840"/>
</svg>
