<?xml version="1.0" encoding="UTF-8"?>
<!DOCTYPE svg PUBLIC "-//W3C//DTD SVG 1.1//EN" "http://www.w3.org/Graphics/SVG/1.1/DTD/svg11.dtd">
<!-- Creator: CorelDRAW Standard 2024 -->
<svg xmlns="http://www.w3.org/2000/svg" xml:space="preserve" width="1240px" height="1754px" version="1.1" style="shape-rendering:geometricPrecision; text-rendering:geometricPrecision; image-rendering:optimizeQuality; fill-rule:evenodd; clip-rule:evenodd"
viewBox="0 0 124000000 175371400"
 xmlns:xlink="http://www.w3.org/1999/xlink"
 xmlns:xodm="http://www.corel.com/coreldraw/odm/2003">
 <defs>
  <style type="text/css">
   <![CDATA[
    .str0 {stroke:#FF1515;stroke-width:52100;stroke-miterlimit:10}
    .fil0 {fill:none;fill-rule:nonzero}
    .fil1 {fill:black}
   ]]>
  </style>
 </defs>
 <g id="Слой_x0020_1">
  <metadata id="CorelCorpID_0Corel-Layer"/>
  <line class="fil0 str0" x1="114967300" y1="45992700" x2="63074000" y2= "45992700" />
  <path class="fil0 str0" d="M63074000 45992700c-5218400,0 -9448800,-4230400 -9448800,-9448900"/>
  <line class="fil0 str0" x1="53625200" y1="36543800" x2="53625200" y2= "-15349500" />
  <path class="fil0 str0" d="M53625200 -15349500c0,-5218500 4230400,-9448800 9448800,-9448800"/>
  <line class="fil0 str0" x1="63074000" y1="-24798300" x2="114967300" y2= "-24798300" />
  <path class="fil0 str0" d="M114967300 -24798300c5218500,0 9448900,4230300 9448900,9448800"/>
  <line class="fil0 str0" x1="124416200" y1="-15349500" x2="124416200" y2= "36543800" />
  <path class="fil0 str0" d="M124416200 36543800c0,5218500 -4230400,9448900 -9448900,9448900"/>
  <line class="fil0 str0" x1="23312400" y1="44092300" x2="-28581000" y2= "44092300" />
  <path class="fil0 str0" d="M-28581000 44092300c-5218400,0 -9448800,-4230300 -9448800,-9448800"/>
  <line class="fil0 str0" x1="-38029800" y1="34643500" x2="-38029800" y2= "-17249800" />
  <path class="fil0 str0" d="M-38029800 -17249800c0,-5218500 4230400,-9448900 9448800,-9448900"/>
  <line class="fil0 str0" x1="-28581000" y1="-26698700" x2="23312400" y2= "-26698700" />
  <path class="fil0 str0" d="M23312400 -26698700c5218400,0 9448800,4230400 9448800,9448900"/>
  <line class="fil0 str0" x1="32761200" y1="-17249800" x2="32761200" y2= "34643500" />
  <path class="fil0 str0" d="M32761200 34643500c0,5218500 -4230400,9448800 -9448800,9448800"/>
  <polyline class="fil0 str0" points="-2634300,114803600 -2634300,185594600 -17951100,185594600 "/>
  <path class="fil0 str0" d="M-17951100 185594600c-5218100,0 -9448800,-4230700 -9448800,-9448800"/>
  <line class="fil0 str0" x1="-27399900" y1="176145800" x2="-27399900" y2= "124252400" />
  <path class="fil0 str0" d="M-27399900 124252400c0,-5220100 4230700,-9448800 9448800,-9448800"/>
  <line class="fil0 str0" x1="-17951100" y1="114803600" x2="-2634300" y2= "114803600" />
  <polyline class="fil0 str0" points="-928300,185594600 -928300,114803600 14388500,114803600 "/>
  <path class="fil0 str0" d="M14388500 114803600c5218100,0 9448800,4230700 9448800,9448800"/>
  <line class="fil0 str0" x1="23837300" y1="124252400" x2="23837300" y2= "176145800" />
  <path class="fil0 str0" d="M23837300 176145800c0,5220200 -4230700,9448800 -9448800,9448800"/>
  <line class="fil0 str0" x1="14388500" y1="185594600" x2="-928300" y2= "185594600" />
  <polyline class="fil0 str0" points="89020700,120695100 89020700,191486100 73703800,191486100 "/>
  <path class="fil0 str0" d="M73703800 191486100c-5218100,0 -9448800,-4230700 -9448800,-9448800"/>
  <line class="fil0 str0" x1="64255000" y1="182037300" x2="64255000" y2= "130143900" />
  <path class="fil0 str0" d="M64255000 130143900c0,-5220200 4230700,-9448800 9448800,-9448800"/>
  <line class="fil0 str0" x1="73703800" y1="120695100" x2="89020700" y2= "120695100" />
  <polyline class="fil0 str0" points="90726700,191486100 90726700,120695100 106043500,120695100 "/>
  <path class="fil0 str0" d="M106043500 120695100c5218100,0 9448800,4230700 9448800,9448800"/>
  <line class="fil0 str0" x1="115492300" y1="130143900" x2="115492300" y2= "182037300" />
  <path class="fil0 str0" d="M115492300 182037300c0,5220200 -4230700,9448800 -9448800,9448800"/>
  <line class="fil0 str0" x1="106043500" y1="191486100" x2="90726700" y2= "191486100" />
  <g id="_2400999475392">
   <polyline class="fil0 str0" points="25251700,57728600 25251700,63634100 -45539300,63634100 -45539300,-64541600 "/>
   <path class="fil0 str0" d="M-45539300 -64541600c0,-808600 655500,-1464100 1464100,-1464100"/>
   <line class="fil0 str0" x1="-44075200" y1="-66005700" x2="-37352800" y2= "-66005700" />
   <path class="fil0 str0" d="M-37352800 -66005700c0,816600 331200,1554000 864400,2087300 533300,533300 1270700,864500 2087300,864500"/>
   <line class="fil0 str0" x1="-34401100" y1="-63053900" x2="-11683200" y2= "-63053900" />
   <path class="fil0 str0" d="M-11683200 -63053900c1631100,0 2951700,-1320700 2951700,-2951800"/>
   <line class="fil0 str0" x1="-8731500" y1="-66005700" x2="-2009000" y2= "-66005700" />
   <path class="fil0 str0" d="M-2009000 -66005700c808500,0 1464000,655500 1464000,1464100"/>
   <line class="fil0 str0" x1="-545000" y1="-64541600" x2="-545000" y2= "-58600000" />
   <path class="fil0 str0" d="M-545000 -58600000c0,808600 -655500,1464000 -1464000,1464000"/>
   <line class="fil0 str0" x1="-2009000" y1="-57136000" x2="-24653700" y2= "-57136000" />
   <path class="fil0 str0" d="M-24653700 -57136000c-3953300,0 -7774800,1521800 -10577300,4310100 -35700,35500 -71300,71100 -106800,106900 -2778700,2802300 -4296000,6616600 -4296000,10563000"/>
   <line class="fil0 str0" x1="-39633800" y1="-42156000" x2="-39633800" y2= "44098100" />
   <path class="fil0 str0" d="M-39633800 44098100c0,3322300 1206200,6531700 3394400,9031500"/>
   <line class="fil0 str0" x1="-36239400" y1="53129600" x2="-36205000" y2= "53168800" />
   <path class="fil0 str0" d="M-36205000 53168800c2536500,2897700 6200200,4559800 10051400,4559800"/>
   <line class="fil0 str0" x1="-26153600" y1="57728600" x2="25251700" y2= "57728600" />
   <polyline class="fil0 str0" points="-30124600,-48317200 -30124600,-54222700 40666400,-54222700 40666400,73953000 "/>
   <path class="fil0 str0" d="M40666400 73953000c0,808500 -655400,1464000 -1464000,1464000"/>
   <line class="fil0 str0" x1="39202400" y1="75417000" x2="32480000" y2= "75417000" />
   <path class="fil0 str0" d="M32480000 75417000c0,-816500 -331200,-1553900 -864500,-2087200 -533200,-533200 -1270600,-864500 -2087200,-864500"/>
   <line class="fil0 str0" x1="29528300" y1="72465300" x2="6810300" y2= "72465300" />
   <path class="fil0 str0" d="M6810300 72465300c-1631000,0 -2951700,1320700 -2951700,2951700"/>
   <line class="fil0 str0" x1="3858600" y1="75417000" x2="-2863800" y2= "75417000" />
   <path class="fil0 str0" d="M-2863800 75417000c-808500,0 -1464000,-655500 -1464000,-1464000"/>
   <line class="fil0 str0" x1="-4327800" y1="73953000" x2="-4327800" y2= "68011300" />
   <path class="fil0 str0" d="M-4327800 68011300c0,-808500 655500,-1464000 1464000,-1464000"/>
   <line class="fil0 str0" x1="-2863800" y1="66547300" x2="19780900" y2= "66547300" />
   <path class="fil0 str0" d="M19780900 66547300c3953300,0 7774800,-1521600 10577300,-4310000 35700,-35500 71200,-71100 106700,-106900 2778700,-2802300 4296000,-6616700 4296000,-10563100"/>
   <line class="fil0 str0" x1="34760900" y1="51567300" x2="34760900" y2= "-34686800" />
   <path class="fil0 str0" d="M34760900 -34686800c0,-3322300 -1206100,-6531600 -3394400,-9031500"/>
   <line class="fil0 str0" x1="31366500" y1="-43718300" x2="31332200" y2= "-43757400" />
   <path class="fil0 str0" d="M31332200 -43757400c-2536600,-2897800 -6200300,-4559800 -10051400,-4559800"/>
   <line class="fil0 str0" x1="21280800" y1="-48317200" x2="-30124600" y2= "-48317200" />
  </g>
  <g id="_2400999445248">
   <polyline class="fil0 str0" points="116906700,63620100 116906700,69525600 46115700,69525600 46115700,-58650200 "/>
   <path class="fil0 str0" d="M46115700 -58650200c0,-808500 655500,-1464000 1464100,-1464000"/>
   <line class="fil0 str0" x1="47579800" y1="-60114200" x2="54302200" y2= "-60114200" />
   <path class="fil0 str0" d="M54302200 -60114200c0,816600 331200,1554000 864500,2087200 533200,533300 1270700,864500 2087200,864500"/>
   <line class="fil0 str0" x1="57253900" y1="-57162500" x2="79971800" y2= "-57162500" />
   <path class="fil0 str0" d="M79971800 -57162500c1631100,0 2951700,-1320600 2951700,-2951700"/>
   <line class="fil0 str0" x1="82923500" y1="-60114200" x2="89645900" y2= "-60114200" />
   <path class="fil0 str0" d="M89645900 -60114200c808600,0 1464000,655500 1464000,1464000"/>
   <line class="fil0 str0" x1="91109900" y1="-58650200" x2="91109900" y2= "-52708600" />
   <path class="fil0 str0" d="M91109900 -52708600c0,808600 -655400,1464100 -1464000,1464100"/>
   <line class="fil0 str0" x1="89645900" y1="-51244500" x2="67001200" y2= "-51244500" />
   <path class="fil0 str0" d="M67001200 -51244500c-3953300,0 -7774700,1521700 -10577200,4310000 -35700,35600 -71300,71200 -106700,107000 -2778800,2802200 -4296100,6616600 -4296100,10563000"/>
   <line class="fil0 str0" x1="52021200" y1="-36264500" x2="52021200" y2= "49989600" />
   <path class="fil0 str0" d="M52021200 49989600c0,3322300 1206300,6531600 3394500,9031400"/>
   <line class="fil0 str0" x1="55415700" y1="59021000" x2="55450000" y2= "59060300" />
   <path class="fil0 str0" d="M55450000 59060300c2536500,2897700 6200300,4559800 10051300,4559800"/>
   <line class="fil0 str0" x1="65501300" y1="63620100" x2="116906700" y2= "63620100" />
   <polyline class="fil0 str0" points="61530500,-42425800 61530500,-48331300 132321400,-48331300 132321400,79844400 "/>
   <path class="fil0 str0" d="M132321400 79844400c0,808600 -655500,1464100 -1464000,1464100"/>
   <line class="fil0 str0" x1="130857400" y1="81308500" x2="124135000" y2= "81308500" />
   <path class="fil0 str0" d="M124135000 81308500c0,-816600 -331300,-1554000 -864500,-2087300 -533300,-533200 -1270700,-864400 -2087200,-864400"/>
   <line class="fil0 str0" x1="121183300" y1="78356800" x2="98465300" y2= "78356800" />
   <path class="fil0 str0" d="M98465300 78356800c-1631000,0 -2951700,1320600 -2951700,2951700"/>
   <line class="fil0 str0" x1="95513600" y1="81308500" x2="88791200" y2= "81308500" />
   <path class="fil0 str0" d="M88791200 81308500c-808600,0 -1464100,-655500 -1464100,-1464100"/>
   <line class="fil0 str0" x1="87327100" y1="79844400" x2="87327100" y2= "73902800" />
   <path class="fil0 str0" d="M87327100 73902800c0,-808500 655500,-1464000 1464100,-1464000"/>
   <line class="fil0 str0" x1="88791200" y1="72438800" x2="111435900" y2= "72438800" />
   <path class="fil0 str0" d="M111435900 72438800c3953300,0 7774700,-1521700 10577300,-4310000 35600,-35600 71200,-71200 106700,-106900 2778700,-2802300 4296000,-6616700 4296000,-10563100"/>
   <line class="fil0 str0" x1="126415900" y1="57458800" x2="126415900" y2= "-28795300" />
   <path class="fil0 str0" d="M126415900 -28795300c0,-3322300 -1206200,-6531700 -3394400,-9031500"/>
   <line class="fil0 str0" x1="123021500" y1="-37826800" x2="122987200" y2= "-37865900" />
   <path class="fil0 str0" d="M122987200 -37865900c-2536600,-2897800 -6200300,-4559900 -10051500,-4559900"/>
   <line class="fil0 str0" x1="112935700" y1="-42425800" x2="61530500" y2= "-42425800" />
  </g>
  <g id="_2400999445200">
   <polyline class="fil0 str0" points="27976400,203222100 27976400,209127600 -42814600,209127600 -42814600,80951900 "/>
   <path class="fil0 str0" d="M-42814600 80951900c0,-808600 655400,-1464100 1464000,-1464100"/>
   <line class="fil0 str0" x1="-41350600" y1="79487800" x2="-34628200" y2= "79487800" />
   <path class="fil0 str0" d="M-34628200 79487800c0,816600 331200,1554100 864500,2087300 533200,533300 1270700,864500 2087300,864500"/>
   <line class="fil0 str0" x1="-31676400" y1="82439600" x2="-8958500" y2= "82439600" />
   <path class="fil0 str0" d="M-8958500 82439600c1631000,0 2951700,-1320700 2951700,-2951800"/>
   <line class="fil0 str0" x1="-6006800" y1="79487800" x2="715600" y2= "79487800" />
   <path class="fil0 str0" d="M715600 79487800c808600,0 1464000,655500 1464000,1464100"/>
   <line class="fil0 str0" x1="2179600" y1="80951900" x2="2179600" y2= "86893500" />
   <path class="fil0 str0" d="M2179600 86893500c0,808600 -655400,1464000 -1464000,1464000"/>
   <line class="fil0 str0" x1="715600" y1="88357500" x2="-21929100" y2= "88357500" />
   <path class="fil0 str0" d="M-21929100 88357500c-3953300,0 -7774800,1521700 -10577300,4310000 -35600,35500 -71200,71200 -106700,106900 -2778700,2802300 -4296000,6616700 -4296000,10563100"/>
   <line class="fil0 str0" x1="-36909100" y1="103337500" x2="-36909100" y2= "189591600" />
   <path class="fil0 str0" d="M-36909100 189591600c0,3322300 1206200,6531600 3394400,9031500"/>
   <line class="fil0 str0" x1="-33514700" y1="198623100" x2="-33480400" y2= "198662200" />
   <path class="fil0 str0" d="M-33480400 198662200c2536600,2897900 6200300,4559900 10051400,4559900"/>
   <line class="fil0 str0" x1="-23429000" y1="203222100" x2="27976400" y2= "203222100" />
   <polyline class="fil0 str0" points="-27399900,97176200 -27399900,91270700 43391100,91270700 43391100,219446500 "/>
   <path class="fil0 str0" d="M43391100 219446500c0,808500 -655500,1464000 -1464000,1464000"/>
   <line class="fil0 str0" x1="41927100" y1="220910500" x2="35204700" y2= "220910500" />
   <path class="fil0 str0" d="M35204700 220910500c0,-816600 -331200,-1554000 -864600,-2087200 -533200,-533300 -1270600,-864500 -2087200,-864500"/>
   <line class="fil0 str0" x1="32252900" y1="217958800" x2="9535000" y2= "217958800" />
   <path class="fil0 str0" d="M9535000 217958800c-1631100,0 -2951700,1320700 -2951700,2951700"/>
   <line class="fil0 str0" x1="6583300" y1="220910500" x2="-139100" y2= "220910500" />
   <path class="fil0 str0" d="M-139100 220910500c-808600,0 -1464100,-655500 -1464100,-1464000"/>
   <line class="fil0 str0" x1="-1603200" y1="219446500" x2="-1603200" y2= "213504900" />
   <path class="fil0 str0" d="M-1603200 213504900c0,-808600 655500,-1464100 1464100,-1464100"/>
   <line class="fil0 str0" x1="-139100" y1="212040800" x2="22505600" y2= "212040800" />
   <path class="fil0 str0" d="M22505600 212040800c3953300,0 7774700,-1521700 10577200,-4310000 35700,-35500 71300,-71200 106700,-107000 2778800,-2802300 4296100,-6616600 4296100,-10563000"/>
   <line class="fil0 str0" x1="37485600" y1="197060800" x2="37485600" y2= "110806700" />
   <path class="fil0 str0" d="M37485600 110806700c0,-3322300 -1206200,-6531600 -3394500,-9031500"/>
   <line class="fil0 str0" x1="34091100" y1="101775200" x2="34056800" y2= "101736000" />
   <path class="fil0 str0" d="M34056800 101736000c-2536500,-2897700 -6200300,-4559800 -10051400,-4559800"/>
   <line class="fil0 str0" x1="24005400" y1="97176200" x2="-27399900" y2= "97176200" />
  </g>
  <polyline class="fil0 str0" points="119631400,209113500 119631400,215019000 48840400,215019000 48840400,86843300 "/>
  <path class="fil0 str0" d="M48840400 86843300c0,-808500 655500,-1464000 1464000,-1464000"/>
  <line class="fil0 str0" x1="50304400" y1="85379300" x2="57026800" y2= "85379300" />
  <path class="fil0 str0" d="M57026800 85379300c0,816600 331200,1554000 864500,2087200 533300,533300 1270700,864500 2087300,864500"/>
  <line class="fil0 str0" x1="59978600" y1="88331000" x2="82696400" y2= "88331000" />
  <path class="fil0 str0" d="M82696400 88331000c1631100,0 2951800,-1320600 2951800,-2951700"/>
  <line class="fil0 str0" x1="85648200" y1="85379300" x2="92370600" y2= "85379300" />
  <path class="fil0 str0" d="M92370600 85379300c808600,0 1464000,655500 1464000,1464000"/>
  <line class="fil0 str0" x1="93834600" y1="86843300" x2="93834600" y2= "92784900" />
  <path class="fil0 str0" d="M93834600 92784900c0,808600 -655400,1464100 -1464000,1464100"/>
  <line class="fil0 str0" x1="92370600" y1="94249000" x2="69725800" y2= "94249000" />
  <path class="fil0 str0" d="M69725800 94249000c-3953200,0 -7774600,1521600 -10577200,4310000 -35600,35500 -71200,71100 -106600,106900 -2778800,2802300 -4296100,6616700 -4296100,10563000"/>
  <line class="fil0 str0" x1="54745900" y1="109228900" x2="54745900" y2= "195483000" />
  <path class="fil0 str0" d="M54745900 195483000c0,3322400 1206200,6531700 3394500,9031600"/>
  <line class="fil0 str0" x1="58140400" y1="204514600" x2="58174600" y2= "204553700" />
  <path class="fil0 str0" d="M58174600 204553700c2536600,2897800 6200300,4559800 10051400,4559800"/>
  <line class="fil0 str0" x1="68226000" y1="209113500" x2="119631400" y2= "209113500" />
  <rect class="fil1" x="-71720000" y="67003000" width="59047600" height="5904800"/>
 </g>
</svg>
