  0
SECTION
  2
HEADER
  9
$ACADVER
  1
AC1024
  9
$ACADMAINTVER
 70
     6
  9
$DWGCODEPAGE
  3
ANSI_1252
  9
$INSBASE
 10
0.0
 20
0.0
 30
0.0
  9
$EXTMIN
 10
1.000000000000000E+20
 20
1.000000000000000E+20
 30
1.000000000000000E+20
  9
$EXTMAX
 10
-1.000000000000000E+20
 20
-1.000000000000000E+20
 30
-1.000000000000000E+20
  9
$LIMMIN
 10
0.0
 20
0.0
  9
$LIMMAX
 10
12.0
 20
9.0
  9
$ORTHOMODE
 70
     0
  9
$REGENMODE
 70
     1
  9
$FILLMODE
 70
     1
  9
$QTEXTMODE
 70
     0
  9
$MIRRTEXT
 70
     1
  9
$LTSCALE
 40
1.0
  9
$ATTMODE
 70
     1
  9
$TEXTSIZE
 40
0.2
  9
$TRACEWID
 40
0.05
  9
$TEXTSTYLE
  7
Standard
  9
$CLAYER
  8
0
  9
$CELTYPE
  6
ByLayer
  9
$CECOLOR
 62
   256
  9
$CELTSCALE
 40
1.0
  9
$DISPSILH
 70
     0
  9
$DIMSCALE
 40
1.0
  9
$DIMASZ
 40
0.18
  9
$DIMEXO
 40
0.0625
  9
$DIMDLI
 40
0.38
  9
$DIMRND
 40
0.0
  9
$DIMDLE
 40
0.0
  9
$DIMEXE
 40
0.18
  9
$DIMTP
 40
0.0
  9
$DIMTM
 40
0.0
  9
$DIMTXT
 40
0.18
  9
$DIMCEN
 40
0.09
  9
$DIMTSZ
 40
0.0
  9
$DIMTOL
 70
     0
  9
$DIMLIM
 70
     0
  9
$DIMTIH
 70
     1
  9
$DIMTOH
 70
     1
  9
$DIMSE1
 70
     0
  9
$DIMSE2
 70
     0
  9
$DIMTAD
 70
     0
  9
$DIMZIN
 70
     0
  9
$DIMBLK
  1

  9
$DIMASO
 70
     1
  9
$DIMSHO
 70
     1
  9
$DIMPOST
  1

  9
$DIMAPOST
  1

  9
$DIMALT
 70
     0
  9
$DIMALTD
 70
     2
  9
$DIMALTF
 40
25.4
  9
$DIMLFAC
 40
1.0
  9
$DIMTOFL
 70
     0
  9
$DIMTVP
 40
0.0
  9
$DIMTIX
 70
     0
  9
$DIMSOXD
 70
     0
  9
$DIMSAH
 70
     0
  9
$DIMBLK1
  1

  9
$DIMBLK2
  1

  9
$DIMSTYLE
  2
Standard
  9
$DIMCLRD
 70
     0
  9
$DIMCLRE
 70
     0
  9
$DIMCLRT
 70
     0
  9
$DIMTFAC
 40
1.0
  9
$DIMGAP
 40
0.09
  9
$DIMJUST
 70
     0
  9
$DIMSD1
 70
     0
  9
$DIMSD2
 70
     0
  9
$DIMTOLJ
 70
     1
  9
$DIMTZIN
 70
     0
  9
$DIMALTZ
 70
     0
  9
$DIMALTTZ
 70
     0
  9
$DIMUPT
 70
     0
  9
$DIMDEC
 70
     4
  9
$DIMTDEC
 70
     4
  9
$DIMALTU
 70
     2
  9
$DIMALTTD
 70
     2
  9
$DIMTXSTY
  7
Standard
  9
$DIMAUNIT
 70
     0
  9
$DIMADEC
 70
     0
  9
$DIMALTRND
 40
0.0
  9
$DIMAZIN
 70
     0
  9
$DIMDSEP
 70
    46
  9
$DIMATFIT
 70
     3
  9
$DIMFRAC
 70
     0
  9
$DIMLDRBLK
  1

  9
$DIMLUNIT
 70
     2
  9
$DIMLWD
 70
    -2
  9
$DIMLWE
 70
    -2
  9
$DIMTMOVE
 70
     0
  9
$DIMFXL
 40
1.0
  9
$DIMFXLON
 70
     0
  9
$DIMJOGANG
 40
0.7853981633974483
  9
$DIMTFILL
 70
     0
  9
$DIMTFILLCLR
 70
     0
  9
$DIMARCSYM
 70
     0
  9
$DIMLTYPE
  6

  9
$DIMLTEX1
  6

  9
$DIMLTEX2
  6

  9
$DIMTXTDIRECTION
 70
     0
  9
$LUNITS
 70
     2
  9
$LUPREC
 70
     4
  9
$SKETCHINC
 40
0.1
  9
$FILLETRAD
 40
0.5
  9
$AUNITS
 70
     0
  9
$AUPREC
 70
     0
  9
$MENU
  1
.
  9
$ELEVATION
 40
0.0
  9
$PELEVATION
 40
0.0
  9
$THICKNESS
 40
0.0
  9
$LIMCHECK
 70
     0
  9
$CHAMFERA
 40
0.5
  9
$CHAMFERB
 40
0.5
  9
$CHAMFERC
 40
1.0
  9
$CHAMFERD
 40
0.0
  9
$SKPOLY
 70
     0
  9
$TDCREATE
 40
2457543.37667228
  9
$TDUCREATE
 40
2457543.293338947
  9
$TDUPDATE
 40
2457543.376672303
  9
$TDUUPDATE
 40
2457543.29333897
  9
$TDINDWG
 40
0.0000000116
  9
$TDUSRTIMER
 40
0.0000000116
  9
$USRTIMER
 70
     1
  9
$ANGBASE
 50
0.0
  9
$ANGDIR
 70
     0
  9
$PDMODE
 70
     0
  9
$PDSIZE
 40
0.0
  9
$PLINEWID
 40
0.0
  9
$SPLFRAME
 70
     0
  9
$SPLINETYPE
 70
     6
  9
$SPLINESEGS
 70
     8
  9
$HANDSEED
  5
46
  9
$SURFTAB1
 70
     6
  9
$SURFTAB2
 70
     6
  9
$SURFTYPE
 70
     6
  9
$SURFU
 70
     6
  9
$SURFV
 70
     6
  9
$UCSBASE
  2

  9
$UCSNAME
  2

  9
$UCSORG
 10
0.0
 20
0.0
 30
0.0
  9
$UCSXDIR
 10
1.0
 20
0.0
 30
0.0
  9
$UCSYDIR
 10
0.0
 20
1.0
 30
0.0
  9
$UCSORTHOREF
  2

  9
$UCSORTHOVIEW
 70
     0
  9
$UCSORGTOP
 10
0.0
 20
0.0
 30
0.0
  9
$UCSORGBOTTOM
 10
0.0
 20
0.0
 30
0.0
  9
$UCSORGLEFT
 10
0.0
 20
0.0
 30
0.0
  9
$UCSORGRIGHT
 10
0.0
 20
0.0
 30
0.0
  9
$UCSORGFRONT
 10
0.0
 20
0.0
 30
0.0
  9
$UCSORGBACK
 10
0.0
 20
0.0
 30
0.0
  9
$PUCSBASE
  2

  9
$PUCSNAME
  2

  9
$PUCSORG
 10
0.0
 20
0.0
 30
0.0
  9
$PUCSXDIR
 10
1.0
 20
0.0
 30
0.0
  9
$PUCSYDIR
 10
0.0
 20
1.0
 30
0.0
  9
$PUCSORTHOREF
  2

  9
$PUCSORTHOVIEW
 70
     0
  9
$PUCSORGTOP
 10
0.0
 20
0.0
 30
0.0
  9
$PUCSORGBOTTOM
 10
0.0
 20
0.0
 30
0.0
  9
$PUCSORGLEFT
 10
0.0
 20
0.0
 30
0.0
  9
$PUCSORGRIGHT
 10
0.0
 20
0.0
 30
0.0
  9
$PUCSORGFRONT
 10
0.0
 20
0.0
 30
0.0
  9
$PUCSORGBACK
 10
0.0
 20
0.0
 30
0.0
  9
$USERI1
 70
     0
  9
$USERI2
 70
     0
  9
$USERI3
 70
     0
  9
$USERI4
 70
     0
  9
$USERI5
 70
     0
  9
$USERR1
 40
0.0
  9
$USERR2
 40
0.0
  9
$USERR3
 40
0.0
  9
$USERR4
 40
0.0
  9
$USERR5
 40
0.0
  9
$WORLDVIEW
 70
     1
  9
$SHADEDGE
 70
     3
  9
$SHADEDIF
 70
    70
  9
$TILEMODE
 70
     1
  9
$MAXACTVP
 70
    64
  9
$PINSBASE
 10
0.0
 20
0.0
 30
0.0
  9
$PLIMCHECK
 70
     0
  9
$PEXTMIN
 10
1.000000000000000E+20
 20
1.000000000000000E+20
 30
1.000000000000000E+20
  9
$PEXTMAX
 10
-1.000000000000000E+20
 20
-1.000000000000000E+20
 30
-1.000000000000000E+20
  9
$PLIMMIN
 10
0.0
 20
0.0
  9
$PLIMMAX
 10
12.0
 20
9.0
  9
$UNITMODE
 70
     0
  9
$VISRETAIN
 70
     1
  9
$PLINEGEN
 70
     0
  9
$PSLTSCALE
 70
     1
  9
$TREEDEPTH
 70
  3020
  9
$CMLSTYLE
  2
Standard
  9
$CMLJUST
 70
     0
  9
$CMLSCALE
 40
1.0
  9
$PROXYGRAPHICS
 70
     1
  9
$MEASUREMENT
 70
     0
  9
$CELWEIGHT
370
    -1
  9
$ENDCAPS
280
     0
  9
$JOINSTYLE
280
     0
  9
$LWDISPLAY
290
     1
  9
$INSUNITS
 70
     1
  9
$HYPERLINKBASE
  1

  9
$STYLESHEET
  1

  9
$XEDIT
290
     1
  9
$CEPSNTYPE
380
     0
  9
$PSTYLEMODE
290
     1
  9
$FINGERPRINTGUID
  2
{9E74CB3D-C02B-4D29-B094-89C8651E6564}
  9
$VERSIONGUID
  2
{FAEB1C32-E019-11D5-929B-00C0DF256EC4}
  9
$EXTNAMES
290
     1
  9
$PSVPSCALE
 40
0.0
  9
$OLESTARTUP
290
     0
  9
$SORTENTS
280
   127
  9
$INDEXCTL
280
     0
  9
$HIDETEXT
280
     1
  9
$XCLIPFRAME
280
     2
  9
$HALOGAP
280
     0
  9
$OBSCOLOR
 70
   257
  9
$OBSLTYPE
280
     0
  9
$INTERSECTIONDISPLAY
280
     0
  9
$INTERSECTIONCOLOR
 70
   257
  9
$DIMASSOC
280
     2
  9
$PROJECTNAME
  1

  9
$CAMERADISPLAY
290
     0
  9
$LENSLENGTH
 40
50.0
  9
$CAMERAHEIGHT
 40
0.0
  9
$STEPSPERSEC
 40
2.0
  9
$STEPSIZE
 40
6.0
  9
$3DDWFPREC
 40
2.0
  9
$PSOLWIDTH
 40
0.25
  9
$PSOLHEIGHT
 40
4.0
  9
$LOFTANG1
 40
1.570796326794897
  9
$LOFTANG2
 40
1.570796326794897
  9
$LOFTMAG1
 40
0.0
  9
$LOFTMAG2
 40
0.0
  9
$LOFTPARAM
 70
     7
  9
$LOFTNORMALS
280
     1
  9
$LATITUDE
 40
37.795
  9
$LONGITUDE
 40
-122.394
  9
$NORTHDIRECTION
 40
0.0
  9
$TIMEZONE
 70
 -8000
  9
$LIGHTGLYPHDISPLAY
280
     1
  9
$TILEMODELIGHTSYNCH
280
     1
  9
$CMATERIAL
347
3C
  9
$SOLIDHIST
280
     1
  9
$SHOWHIST
280
     1
  9
$DWFFRAME
280
     2
  9
$DGNFRAME
280
     2
  9
$REALWORLDSCALE
290
     1
  9
$INTERFERECOLOR
 62
   256
  9
$CSHADOW
280
     0
  9
$SHADOWPLANELOCATION
 40
0.0
  0
ENDSEC
  0
SECTION
  2
CLASSES
  0
CLASS
  1
ACDBDICTIONARYWDFLT
  2
AcDbDictionaryWithDefault
  3
ObjectDBX Classes
 90
        0
 91
        4
280
     0
281
     0
  0
CLASS
  1
VISUALSTYLE
  2
AcDbVisualStyle
  3
ObjectDBX Classes
 90
     4095
 91
        4
280
     0
281
     0
  0
CLASS
  1
MATERIAL
  2
AcDbMaterial
  3
ObjectDBX Classes
 90
     1153
 91
        4
280
     0
281
     0
  0
CLASS
  1
SUN
  2
AcDbSun
  3
SCENEOE
 90
     1024
 91
        4
280
     0
281
     0
  0
ENDSEC
  0
SECTION
  2
TABLES
  0
TABLE
  2
VPORT
  5
8
330
0
100
AcDbSymbolTable
 70
     1
  0
VPORT
  5
29
330
8
100
AcDbSymbolTableRecord
100
AcDbViewportTableRecord
  2
*Active
 70
     0
 10
0.0
 20
0.0
 11
1.0
 21
1.0
 12
0.0
 22
0.0
 13
0.0
 23
0.0
 14
0.5
 24
0.5
 15
0.5
 25
0.5
 16
0.0
 26
0.0
 36
1.0
 17
1300.000221897223
 27
-149.9993471847224
 37
0.0
 40
400.0006110111108
 41
0.7499955902845147
 42
50.0
 43
0.0
 44
0.0
 50
0.0
 51
0.0
 71
     0
 72
   100
 73
     1
 74
     3
 75
     0
 76
     0
 77
     0
 78
     0
281
     0
 65
     1
110
0.0
120
0.0
130
0.0
111
1.0
121
0.0
131
0.0
112
0.0
122
1.0
132
0.0
 79
     0
146
0.0
 60
     3
 61
     5
292
     1
282
     1
141
0.0
142
0.0
 63
   250
361
3F
  0
ENDTAB
  0
TABLE
  2
LTYPE
  5
5
330
0
100
AcDbSymbolTable
 70
     1
  0
LTYPE
  5
14
330
5
100
AcDbSymbolTableRecord
100
AcDbLinetypeTableRecord
  2
ByBlock
 70
     0
  3

 72
    65
 73
     0
 40
0.0
  0
LTYPE
  5
15
330
5
100
AcDbSymbolTableRecord
100
AcDbLinetypeTableRecord
  2
ByLayer
 70
     0
  3

 72
    65
 73
     0
 40
0.0
  0
LTYPE
  5
16
330
5
100
AcDbSymbolTableRecord
100
AcDbLinetypeTableRecord
  2
Continuous
 70
     0
  3
Solid line
 72
    65
 73
     0
 40
0.0
  0
ENDTAB
  0
TABLE
  2
LAYER
  5
2
330
0
100
AcDbSymbolTable
 70
     3
  0
LAYER
  5
10
330
2
100
AcDbSymbolTableRecord
100
AcDbLayerTableRecord
  2
0
 70
     0
 62
     7
  6
Continuous
370
    -3
390
F
347
3E
  0
LAYER
  5
40
330
2
100
AcDbSymbolTableRecord
100
AcDbLayerTableRecord
  2
Ebene 1
 70
     0
 62
     7
  6
Continuous
370
    -3
390
F
347
3E
  0
LAYER
  5
42
330
2
100
AcDbSymbolTableRecord
100
AcDbLayerTableRecord
  2
Ebene 2
 70
     0
 62
     7
  6
Continuous
370
    -3
390
F
347
3E
  0
ENDTAB
  0
TABLE
  2
STYLE
  5
3
330
0
100
AcDbSymbolTable
 70
     1
  0
STYLE
  5
11
330
3
100
AcDbSymbolTableRecord
100
AcDbTextStyleTableRecord
  2
Standard
 70
     0
 40
0.0
 41
1.0
 50
0.0
 71
     0
 42
0.2
  3
txt
  4

  0
ENDTAB
  0
TABLE
  2
VIEW
  5
6
330
0
100
AcDbSymbolTable
 70
     0
  0
ENDTAB
  0
TABLE
  2
UCS
  5
7
330
0
100
AcDbSymbolTable
 70
     0
  0
ENDTAB
  0
TABLE
  2
APPID
  5
9
330
0
100
AcDbSymbolTable
 70
     1
  0
APPID
  5
12
330
9
100
AcDbSymbolTableRecord
100
AcDbRegAppTableRecord
  2
ACAD
 70
     0
  0
ENDTAB
  0
TABLE
  2
DIMSTYLE
  5
A
330
0
100
AcDbSymbolTable
 70
     1
100
AcDbDimStyleTable
  0
DIMSTYLE
105
27
330
A
100
AcDbSymbolTableRecord
100
AcDbDimStyleTableRecord
  2
Standard
 70
     0
178
     0
340
11
  0
ENDTAB
  0
TABLE
  2
BLOCK_RECORD
  5
1
330
0
100
AcDbSymbolTable
 70
     1
  0
BLOCK_RECORD
  5
1F
330
1
100
AcDbSymbolTableRecord
100
AcDbBlockTableRecord
  2
*Model_Space
340
22
 70
     0
280
     1
281
     0
  0
BLOCK_RECORD
  5
1B
330
1
100
AcDbSymbolTableRecord
100
AcDbBlockTableRecord
  2
*Paper_Space
340
1E
 70
     0
280
     1
281
     0
  0
BLOCK_RECORD
  5
23
330
1
100
AcDbSymbolTableRecord
100
AcDbBlockTableRecord
  2
*Paper_Space0
340
26
 70
     0
280
     1
281
     0
  0
ENDTAB
  0
ENDSEC
  0
SECTION
  2
BLOCKS
  0
BLOCK
  5
20
330
1F
100
AcDbEntity
  8
0
100
AcDbBlockBegin
  2
*Model_Space
 70
     0
 10
0.0
 20
0.0
 30
0.0
  3
*Model_Space
  1

  0
ENDBLK
  5
21
330
1F
100
AcDbEntity
  8
0
100
AcDbBlockEnd
  0
BLOCK
  5
1C
330
1B
100
AcDbEntity
 67
     1
  8
0
100
AcDbBlockBegin
  2
*Paper_Space
 70
     0
 10
0.0
 20
0.0
 30
0.0
  3
*Paper_Space
  1

  0
ENDBLK
  5
1D
330
1B
100
AcDbEntity
 67
     1
  8
0
100
AcDbBlockEnd
  0
BLOCK
  5
24
330
23
100
AcDbEntity
  8
0
100
AcDbBlockBegin
  2
*Paper_Space0
 70
     0
 10
0.0
 20
0.0
 30
0.0
  3
*Paper_Space0
  1

  0
ENDBLK
  5
25
330
23
100
AcDbEntity
  8
0
100
AcDbBlockEnd
  0
ENDSEC
  0
SECTION
  2
ENTITIES
  0
SPLINE
  5
41
330
1F
100
AcDbEntity
  8
Ebene 1
 62
   250
420
  1842203
370
    35
100
AcDbSpline
210
0.0
220
0.0
230
1.0
 70
    11
 71
     3
 72
   749
 73
   745
 74
     0
 42
0.0000000001
 43
0.0000000001
 12
1.0
 22
0.0
 32
0.0
 13
1.0
 23
0.0
 33
0.0
 40
0.0
 40
0.0
 40
0.0
 40
0.0
 40
1.0
 40
1.0
 40
1.0
 40
2.0
 40
2.0
 40
2.0
 40
3.0
 40
3.0
 40
3.0
 40
4.0
 40
4.0
 40
4.0
 40
5.0
 40
5.0
 40
5.0
 40
6.0
 40
6.0
 40
6.0
 40
7.0
 40
7.0
 40
7.0
 40
8.0
 40
8.0
 40
8.0
 40
9.0
 40
9.0
 40
9.0
 40
10.0
 40
10.0
 40
10.0
 40
11.0
 40
11.0
 40
11.0
 40
12.0
 40
12.0
 40
12.0
 40
13.0
 40
13.0
 40
13.0
 40
14.0
 40
14.0
 40
14.0
 40
15.0
 40
15.0
 40
15.0
 40
16.0
 40
16.0
 40
16.0
 40
17.0
 40
17.0
 40
17.0
 40
18.0
 40
18.0
 40
18.0
 40
19.0
 40
19.0
 40
19.0
 40
20.0
 40
20.0
 40
20.0
 40
21.0
 40
21.0
 40
21.0
 40
22.0
 40
22.0
 40
22.0
 40
23.0
 40
23.0
 40
23.0
 40
24.0
 40
24.0
 40
24.0
 40
25.0
 40
25.0
 40
25.0
 40
26.0
 40
26.0
 40
26.0
 40
27.0
 40
27.0
 40
27.0
 40
28.0
 40
28.0
 40
28.0
 40
29.0
 40
29.0
 40
29.0
 40
30.0
 40
30.0
 40
30.0
 40
31.0
 40
31.0
 40
31.0
 40
32.0
 40
32.0
 40
32.0
 40
33.0
 40
33.0
 40
33.0
 40
34.0
 40
34.0
 40
34.0
 40
35.0
 40
35.0
 40
35.0
 40
36.0
 40
36.0
 40
36.0
 40
37.0
 40
37.0
 40
37.0
 40
38.0
 40
38.0
 40
38.0
 40
39.0
 40
39.0
 40
39.0
 40
40.0
 40
40.0
 40
40.0
 40
41.0
 40
41.0
 40
41.0
 40
42.0
 40
42.0
 40
42.0
 40
43.0
 40
43.0
 40
43.0
 40
44.0
 40
44.0
 40
44.0
 40
45.0
 40
45.0
 40
45.0
 40
46.0
 40
46.0
 40
46.0
 40
47.0
 40
47.0
 40
47.0
 40
48.0
 40
48.0
 40
48.0
 40
49.0
 40
49.0
 40
49.0
 40
50.0
 40
50.0
 40
50.0
 40
51.0
 40
51.0
 40
51.0
 40
52.0
 40
52.0
 40
52.0
 40
53.0
 40
53.0
 40
53.0
 40
54.0
 40
54.0
 40
54.0
 40
55.0
 40
55.0
 40
55.0
 40
56.0
 40
56.0
 40
56.0
 40
57.0
 40
57.0
 40
57.0
 40
58.0
 40
58.0
 40
58.0
 40
59.0
 40
59.0
 40
59.0
 40
60.0
 40
60.0
 40
60.0
 40
61.0
 40
61.0
 40
61.0
 40
62.0
 40
62.0
 40
62.0
 40
63.0
 40
63.0
 40
63.0
 40
64.0
 40
64.0
 40
64.0
 40
65.0
 40
65.0
 40
65.0
 40
66.0
 40
66.0
 40
66.0
 40
67.0
 40
67.0
 40
67.0
 40
68.0
 40
68.0
 40
68.0
 40
69.0
 40
69.0
 40
69.0
 40
70.0
 40
70.0
 40
70.0
 40
71.0
 40
71.0
 40
71.0
 40
72.0
 40
72.0
 40
72.0
 40
73.0
 40
73.0
 40
73.0
 40
74.0
 40
74.0
 40
74.0
 40
75.0
 40
75.0
 40
75.0
 40
76.0
 40
76.0
 40
76.0
 40
77.0
 40
77.0
 40
77.0
 40
78.0
 40
78.0
 40
78.0
 40
79.0
 40
79.0
 40
79.0
 40
80.0
 40
80.0
 40
80.0
 40
81.0
 40
81.0
 40
81.0
 40
82.0
 40
82.0
 40
82.0
 40
83.0
 40
83.0
 40
83.0
 40
84.0
 40
84.0
 40
84.0
 40
85.0
 40
85.0
 40
85.0
 40
86.0
 40
86.0
 40
86.0
 40
87.0
 40
87.0
 40
87.0
 40
88.0
 40
88.0
 40
88.0
 40
89.0
 40
89.0
 40
89.0
 40
90.0
 40
90.0
 40
90.0
 40
91.0
 40
91.0
 40
91.0
 40
92.0
 40
92.0
 40
92.0
 40
93.0
 40
93.0
 40
93.0
 40
94.0
 40
94.0
 40
94.0
 40
95.0
 40
95.0
 40
95.0
 40
96.0
 40
96.0
 40
96.0
 40
97.0
 40
97.0
 40
97.0
 40
98.0
 40
98.0
 40
98.0
 40
99.0
 40
99.0
 40
99.0
 40
100.0
 40
100.0
 40
100.0
 40
101.0
 40
101.0
 40
101.0
 40
102.0
 40
102.0
 40
102.0
 40
103.0
 40
103.0
 40
103.0
 40
104.0
 40
104.0
 40
104.0
 40
105.0
 40
105.0
 40
105.0
 40
106.0
 40
106.0
 40
106.0
 40
107.0
 40
107.0
 40
107.0
 40
108.0
 40
108.0
 40
108.0
 40
109.0
 40
109.0
 40
109.0
 40
110.0
 40
110.0
 40
110.0
 40
111.0
 40
111.0
 40
111.0
 40
112.0
 40
112.0
 40
112.0
 40
113.0
 40
113.0
 40
113.0
 40
114.0
 40
114.0
 40
114.0
 40
115.0
 40
115.0
 40
115.0
 40
116.0
 40
116.0
 40
116.0
 40
117.0
 40
117.0
 40
117.0
 40
118.0
 40
118.0
 40
118.0
 40
119.0
 40
119.0
 40
119.0
 40
120.0
 40
120.0
 40
120.0
 40
121.0
 40
121.0
 40
121.0
 40
122.0
 40
122.0
 40
122.0
 40
123.0
 40
123.0
 40
123.0
 40
124.0
 40
124.0
 40
124.0
 40
125.0
 40
125.0
 40
125.0
 40
126.0
 40
126.0
 40
126.0
 40
127.0
 40
127.0
 40
127.0
 40
128.0
 40
128.0
 40
128.0
 40
129.0
 40
129.0
 40
129.0
 40
130.0
 40
130.0
 40
130.0
 40
131.0
 40
131.0
 40
131.0
 40
132.0
 40
132.0
 40
132.0
 40
133.0
 40
133.0
 40
133.0
 40
134.0
 40
134.0
 40
134.0
 40
135.0
 40
135.0
 40
135.0
 40
136.0
 40
136.0
 40
136.0
 40
137.0
 40
137.0
 40
137.0
 40
138.0
 40
138.0
 40
138.0
 40
139.0
 40
139.0
 40
139.0
 40
140.0
 40
140.0
 40
140.0
 40
141.0
 40
141.0
 40
141.0
 40
142.0
 40
142.0
 40
142.0
 40
143.0
 40
143.0
 40
143.0
 40
144.0
 40
144.0
 40
144.0
 40
145.0
 40
145.0
 40
145.0
 40
146.0
 40
146.0
 40
146.0
 40
147.0
 40
147.0
 40
147.0
 40
148.0
 40
148.0
 40
148.0
 40
149.0
 40
149.0
 40
149.0
 40
150.0
 40
150.0
 40
150.0
 40
151.0
 40
151.0
 40
151.0
 40
152.0
 40
152.0
 40
152.0
 40
153.0
 40
153.0
 40
153.0
 40
154.0
 40
154.0
 40
154.0
 40
155.0
 40
155.0
 40
155.0
 40
156.0
 40
156.0
 40
156.0
 40
157.0
 40
157.0
 40
157.0
 40
158.0
 40
158.0
 40
158.0
 40
159.0
 40
159.0
 40
159.0
 40
160.0
 40
160.0
 40
160.0
 40
161.0
 40
161.0
 40
161.0
 40
162.0
 40
162.0
 40
162.0
 40
163.0
 40
163.0
 40
163.0
 40
164.0
 40
164.0
 40
164.0
 40
165.0
 40
165.0
 40
165.0
 40
166.0
 40
166.0
 40
166.0
 40
167.0
 40
167.0
 40
167.0
 40
168.0
 40
168.0
 40
168.0
 40
169.0
 40
169.0
 40
169.0
 40
170.0
 40
170.0
 40
170.0
 40
171.0
 40
171.0
 40
171.0
 40
172.0
 40
172.0
 40
172.0
 40
173.0
 40
173.0
 40
173.0
 40
174.0
 40
174.0
 40
174.0
 40
175.0
 40
175.0
 40
175.0
 40
176.0
 40
176.0
 40
176.0
 40
177.0
 40
177.0
 40
177.0
 40
178.0
 40
178.0
 40
178.0
 40
179.0
 40
179.0
 40
179.0
 40
180.0
 40
180.0
 40
180.0
 40
181.0
 40
181.0
 40
181.0
 40
182.0
 40
182.0
 40
182.0
 40
183.0
 40
183.0
 40
183.0
 40
184.0
 40
184.0
 40
184.0
 40
185.0
 40
185.0
 40
185.0
 40
186.0
 40
186.0
 40
186.0
 40
187.0
 40
187.0
 40
187.0
 40
188.0
 40
188.0
 40
188.0
 40
189.0
 40
189.0
 40
189.0
 40
190.0
 40
190.0
 40
190.0
 40
191.0
 40
191.0
 40
191.0
 40
192.0
 40
192.0
 40
192.0
 40
193.0
 40
193.0
 40
193.0
 40
194.0
 40
194.0
 40
194.0
 40
195.0
 40
195.0
 40
195.0
 40
196.0
 40
196.0
 40
196.0
 40
197.0
 40
197.0
 40
197.0
 40
198.0
 40
198.0
 40
198.0
 40
199.0
 40
199.0
 40
199.0
 40
200.0
 40
200.0
 40
200.0
 40
201.0
 40
201.0
 40
201.0
 40
202.0
 40
202.0
 40
202.0
 40
203.0
 40
203.0
 40
203.0
 40
204.0
 40
204.0
 40
204.0
 40
205.0
 40
205.0
 40
205.0
 40
206.0
 40
206.0
 40
206.0
 40
207.0
 40
207.0
 40
207.0
 40
208.0
 40
208.0
 40
208.0
 40
209.0
 40
209.0
 40
209.0
 40
210.0
 40
210.0
 40
210.0
 40
211.0
 40
211.0
 40
211.0
 40
212.0
 40
212.0
 40
212.0
 40
213.0
 40
213.0
 40
213.0
 40
214.0
 40
214.0
 40
214.0
 40
215.0
 40
215.0
 40
215.0
 40
216.0
 40
216.0
 40
216.0
 40
217.0
 40
217.0
 40
217.0
 40
218.0
 40
218.0
 40
218.0
 40
219.0
 40
219.0
 40
219.0
 40
220.0
 40
220.0
 40
220.0
 40
221.0
 40
221.0
 40
221.0
 40
222.0
 40
222.0
 40
222.0
 40
223.0
 40
223.0
 40
223.0
 40
224.0
 40
224.0
 40
224.0
 40
225.0
 40
225.0
 40
225.0
 40
226.0
 40
226.0
 40
226.0
 40
227.0
 40
227.0
 40
227.0
 40
228.0
 40
228.0
 40
228.0
 40
229.0
 40
229.0
 40
229.0
 40
230.0
 40
230.0
 40
230.0
 40
231.0
 40
231.0
 40
231.0
 40
232.0
 40
232.0
 40
232.0
 40
233.0
 40
233.0
 40
233.0
 40
234.0
 40
234.0
 40
234.0
 40
235.0
 40
235.0
 40
235.0
 40
236.0
 40
236.0
 40
236.0
 40
237.0
 40
237.0
 40
237.0
 40
238.0
 40
238.0
 40
238.0
 40
239.0
 40
239.0
 40
239.0
 40
240.0
 40
240.0
 40
240.0
 40
241.0
 40
241.0
 40
241.0
 40
242.0
 40
242.0
 40
242.0
 40
243.0
 40
243.0
 40
243.0
 40
244.0
 40
244.0
 40
244.0
 40
245.0
 40
245.0
 40
245.0
 40
246.0
 40
246.0
 40
246.0
 40
247.0
 40
247.0
 40
247.0
 40
248.0
 40
248.0
 40
248.0
 40
248.0
 10
1339.951516757303
 20
-164.9254341447813
 30
0.0
 10
1339.93052211157
 20
-164.9020648306619
 30
0.0
 10
1339.909563790338
 20
-164.877447197817
 30
0.0
 10
1339.888583534354
 20
-164.8540939010485
 30
0.0
 10
1339.888583534354
 20
-164.8540939010485
 30
0.0
 10
1339.88441251287
 20
-164.857956864537
 30
0.0
 10
1339.88441251287
 20
-164.857956864537
 30
0.0
 10
1338.356601835742
 20
-163.2466486425361
 30
0.0
 10
1335.816190030051
 20
-163.1332643116655
 30
0.0
 10
1334.154293830121
 20
-164.6262872469243
 30
0.0
 10
1332.464335232428
 20
-166.1445210247624
 30
0.0
 10
1332.325108960239
 20
-168.7452851403292
 30
0.0
 10
1333.843357127831
 20
-170.4352597553733
 30
0.0
 10
1339.545481747272
 20
-177.1330112874548
 30
0.0
 10
1344.36334538363
 20
-184.5865573100405
 30
0.0
 10
1348.16316994729
 20
-192.589381116465
 30
0.0
 10
1351.908357978971
 20
-200.4761010930382
 30
0.0
 10
1354.61092903621
 20
-208.8616723296584
 30
0.0
 10
1356.197334215754
 20
-217.5133140937131
 30
0.0
 10
1357.760524520223
 20
-226.0380770446919
 30
0.0
 10
1358.196314911175
 20
-234.7738770144456
 30
0.0
 10
1357.492800245362
 20
-243.4762602115224
 30
0.0
 10
1356.799940625045
 20
-252.0522205569364
 30
0.0
 10
1354.971775276562
 20
-260.5394177306864
 30
0.0
 10
1352.060130939138
 20
-268.7019628393123
 30
0.0
 10
1349.191374176953
 20
-276.744064349807
 30
0.0
 10
1345.257136306687
 20
-284.4104082846097
 30
0.0
 10
1340.366012887999
 20
-291.4892464142965
 30
0.0
 10
1335.54962135385
 20
-298.4600184526691
 30
0.0
 10
1329.810938738809
 20
-304.7994408325902
 30
0.0
 10
1323.298854035739
 20
-310.3274710103522
 30
0.0
 10
1316.888500527224
 20
-315.7728487459029
 30
0.0
 10
1309.754458616145
 20
-320.3722161169344
 30
0.0
 10
1302.094828538196
 20
-323.9986326445008
 30
0.0
 10
1294.550952053291
 20
-327.57011944498
 30
0.0
 10
1286.530531550382
 20
-330.1454062400771
 30
0.0
 10
1278.256017302917
 20
-331.6522360687321
 30
0.0
 10
1270.107569866456
 20
-333.1364936782736
 30
0.0
 10
1261.757830899603
 20
-333.5431516821513
 30
0.0
 10
1253.439509249306
 20
-332.861246718197
 30
0.0
 10
1245.248377655885
 20
-332.1893364988233
 30
0.0
 10
1237.141731724713
 20
-330.4335487997909
 30
0.0
 10
1229.344283664254
 20
-327.6411631045867
 30
0.0
 10
1221.667129645671
 20
-324.8924650761913
 30
0.0
 10
1214.349468633902
 20
-321.1257791813493
 30
0.0
 10
1207.593956983869
 20
-316.4457989664543
 30
0.0
 10
1200.942425922062
 20
-311.8382583444559
 30
0.0
 10
1194.897821813041
 20
-306.3476766822359
 30
0.0
 10
1189.627259527047
 20
-300.1274655052779
 30
0.0
 10
1184.438774976441
 20
-294.0037707429625
 30
0.0
 10
1180.057274828568
 20
-287.1893060024419
 30
0.0
 10
1176.604867451409
 20
-279.8736031958865
 30
0.0
 10
1173.206632027371
 20
-272.6727138415043
 30
0.0
 10
1170.75963644259
 20
-265.01714728765
 30
0.0
 10
1169.331411675503
 20
-257.1202270218787
 30
0.0
 10
1167.926065343436
 20
-249.3487800735041
 30
0.0
 10
1167.548227258979
 20
-241.3855275503078
 30
0.0
 10
1168.20925931919
 20
-233.4506055182753
 30
0.0
 10
1168.859712723859
 20
-225.6443822463033
 30
0.0
 10
1170.544072162614
 20
-217.9179267036491
 30
0.0
 10
1173.216210429676
 20
-210.485248316648
 30
0.0
 10
1175.844943424834
 20
-203.1738549023471
 30
0.0
 10
1179.443893532697
 20
-196.2046077738558
 30
0.0
 10
1183.913632656868
 20
-189.7712358749031
 30
0.0
 10
1188.309628013715
 20
-183.4434214436094
 30
0.0
 10
1193.541944354844
 20
-177.6935337038511
 30
0.0
 10
1199.482005122686
 20
-172.6770568224814
 30
0.0
 10
1205.318329013337
 20
-167.7453815975712
 30
0.0
 10
1211.813414784604
 20
-163.5820337299655
 30
0.0
 10
1218.786085405137
 20
-160.3031497655537
 30
0.0
 10
1225.642991815376
 20
-157.0785393341664
 30
0.0
 10
1232.933226303216
 20
-154.7593672013354
 30
0.0
 10
1240.454339837176
 20
-153.4102548338798
 30
0.0
 10
1247.848368994708
 20
-152.0833552761313
 30
0.0
 10
1255.425915375963
 20
-151.7351412338107
 30
0.0
 10
1262.977106825475
 20
-152.3749319912183
 30
0.0
 10
1270.399305726817
 20
-153.0033660119691
 30
0.0
 10
1277.745570880953
 20
-154.6162971904439
 30
0.0
 10
1284.812027933011
 20
-157.1682475503164
 30
0.0
 10
1291.758285161048
 20
-159.6767439932335
 30
0.0
 10
1298.378535788549
 20
-163.1080186110171
 30
0.0
 10
1304.489455134412
 20
-167.3665240860425
 30
0.0
 10
1310.495174870128
 20
-171.5520063158595
 30
0.0
 10
1315.952891460046
 20
-176.5380405787026
 30
0.0
 10
1320.711260531585
 20
-182.1859343666793
 30
0.0
 10
1325.387550164434
 20
-187.7356344666774
 30
0.0
 10
1329.33254429527
 20
-193.9111170257855
 30
0.0
 10
1332.437559492926
 20
-200.5403710438858
 30
0.0
 10
1335.488322575008
 20
-207.0531758781288
 30
0.0
 10
1337.679796139487
 20
-213.978023996153
 30
0.0
 10
1338.94964484776
 20
-221.1224536165376
 30
0.0
 10
1340.19792288499
 20
-228.1411902250706
 30
0.0
 10
1340.517242655591
 20
-235.333069526784
 30
0.0
 10
1339.899237973842
 20
-242.49804378057
 30
0.0
 10
1339.291454241531
 20
-249.5370141130523
 30
0.0
 10
1337.750501906346
 20
-256.5030573612669
 30
0.0
 10
1335.31903701427
 20
-263.2034309827918
 30
0.0
 10
1332.930726592294
 20
-269.7837869642419
 30
0.0
 10
1329.667527122397
 20
-276.0555503907613
 30
0.0
 10
1325.6193713457
 20
-281.8445797527536
 30
0.0
 10
1321.644096285657
 20
-287.528508605248
 30
0.0
 10
1316.909504059913
 20
-292.693933817416
 30
0.0
 10
1311.550120003073
 20
-297.1944414838862
 30
0.0
 10
1306.287402251482
 20
-301.6134893225796
 30
0.0
 10
1300.431988000694
 20
-305.3408407318091
 30
0.0
 10
1294.145625526311
 20
-308.2721115290144
 30
0.0
 10
1287.976326112254
 20
-311.14991017801
 30
0.0
 10
1281.41662299349
 20
-313.213352064983
 30
0.0
 10
1274.648945462937
 20
-314.4046573775371
 30
0.0
 10
1268.007996671905
 20
-315.574127269093
 30
0.0
 10
1261.20178119453
 20
-315.8646135821734
 30
0.0
 10
1254.419431991745
 20
-315.2674250968199
 30
0.0
 10
1247.765977346774
 20
-314.6819997749831
 30
0.0
 10
1241.180295795128
 20
-313.2124086341251
 30
0.0
 10
1234.845559521882
 20
-310.900932671984
 30
0.0
 10
1228.63124542932
 20
-308.6330292586514
 30
0.0
 10
1222.707764492075
 20
-305.5377415079382
 30
0.0
 10
1217.240045751443
 20
-301.6999349122695
 30
0.0
 10
1211.878307774333
 20
-297.9367943211937
 30
0.0
 10
1207.007414634115
 20
-293.4553650167286
 30
0.0
 10
1202.762246059555
 20
-288.3809098322558
 30
0.0
 10
1198.598599830275
 20
-283.4048014815644
 30
0.0
 10
1195.089821517922
 20
-277.8688802077331
 30
0.0
 10
1192.332554471025
 20
-271.927115588558
 30
0.0
 10
1189.628242058627
 20
-266.1012580425818
 30
0.0
 10
1187.69275339001
 20
-259.9067414647305
 30
0.0
 10
1186.579746847418
 20
-253.5155437290487
 30
0.0
 10
1185.48891774893
 20
-247.2498122830638
 30
0.0
 10
1185.227297779722
 20
-240.8300704871996
 30
0.0
 10
1185.802762631214
 20
-234.433911328236
 30
0.0
 10
1186.36689611895
 20
-228.1634222054724
 30
0.0
 10
1187.764204604158
 20
-221.9576566024921
 30
0.0
 10
1189.955430217308
 20
-215.989168816087
 30
0.0
 10
1192.103223848253
 20
-210.1396165176324
 30
0.0
 10
1195.030687069933
 20
-204.5653528104345
 30
0.0
 10
1198.657565456416
 20
-199.4203621730449
 30
0.0
 10
1202.209974077656
 20
-194.3802497642021
 30
0.0
 10
1206.437847830727
 20
-189.802678405011
 30
0.0
 10
1211.226209759064
 20
-185.8138081528326
 30
0.0
 10
1215.914778667935
 20
-181.9075568635104
 30
0.0
 10
1221.130950352853
 20
-178.6161638848553
 30
0.0
 10
1226.729627371904
 20
-176.0317464116924
 30
0.0
 10
1232.21163636429
 20
-173.5011119267954
 30
0.0
 10
1238.040793724226
 20
-171.6933842683314
 30
0.0
 10
1244.055311060179
 20
-170.659290889465
 30
0.0
 10
1249.944534190437
 20
-169.6464388449826
 30
0.0
 10
1255.978719141962
 20
-169.413932507599
 30
0.0
 10
1261.990848788847
 20
-169.9677588777332
 30
0.0
 10
1267.875845603504
 20
-170.5102365735074
 30
0.0
 10
1273.701317351812
 20
-171.8354861286767
 30
0.0
 10
1279.305555640667
 20
-173.9064311686826
 30
0.0
 10
1284.78831101417
 20
-175.9333961984236
 30
0.0
 10
1290.014144820738
 20
-178.6931380228758
 30
0.0
 10
1294.837719743012
 20
-182.1090669656634
 30
0.0
 10
1299.556627141547
 20
-185.4511473060258
 30
0.0
 10
1303.841273456675
 20
-189.4274536211006
 30
0.0
 10
1307.572869804296
 20
-193.9271543000919
 30
0.0
 10
1311.223714342756
 20
-198.3294947106219
 30
0.0
 10
1314.296913758141
 20
-203.2259192858781
 30
0.0
 10
1316.707610910503
 20
-208.4798306555182
 30
0.0
 10
1319.064717875801
 20
-213.6180296394149
 30
0.0
 10
1320.744645461713
 20
-219.08255755185
 30
0.0
 10
1321.701066116232
 20
-224.720293166822
 30
0.0
 10
1322.635040728484
 20
-230.2304592607041
 30
0.0
 10
1322.838537417493
 20
-235.8791386751414
 30
0.0
 10
1322.306551836876
 20
-241.50830168952
 30
0.0
 10
1321.786068593723
 20
-247.0103096025669
 30
0.0
 10
1320.5331727913
 20
-252.4551068522956
 30
0.0
 10
1318.582133004927
 20
-257.6924225566471
 30
0.0
 10
1316.675635615082
 20
-262.8111366581545
 30
0.0
 10
1314.084189926221
 20
-267.6883426214402
 30
0.0
 10
1310.879353990278
 20
-272.1892440029239
 30
0.0
 10
1307.748726400517
 20
-276.5858782944244
 30
0.0
 10
1304.022837195067
 20
-280.5771568141289
 30
0.0
 10
1299.812057115272
 20
-284.0531855686803
 30
0.0
 10
1295.698238680734
 20
-287.4467944890333
 30
0.0
 10
1291.122024942349
 20
-290.3022520821628
 30
0.0
 10
1286.209869512157
 20
-292.5401960992439
 30
0.0
 10
1281.413623893063
 20
-294.725704030138
 30
0.0
 10
1276.314983512454
 20
-296.2776854253937
 30
0.0
 10
1271.055520007991
 20
-297.154226065011
 30
0.0
 10
1265.920848771265
 20
-298.0106420363206
 30
0.0
 10
1260.658527144386
 20
-298.1860132864254
 30
0.0
 10
1255.414506201306
 20
-297.67539030266
 30
0.0
 10
1250.297593417812
 20
-297.1768617810201
 30
0.0
 10
1245.23267682685
 20
-295.9963382279469
 30
0.0
 10
1240.359997257054
 20
-294.1663315715333
 30
0.0
 10
1235.606985424877
 20
-292.380604189294
 30
0.0
 10
1231.078015526416
 20
-289.9570829817669
 30
0.0
 10
1226.898712561302
 20
-286.9629165738568
 30
0.0
 10
1222.823628634115
 20
-284.0430016813809
 30
0.0
 10
1219.125431969534
 20
-280.5723018727571
 30
0.0
 10
1215.906662319735
 20
-276.6470413453408
 30
0.0
 10
1212.768526957547
 20
-272.8199123984538
 30
0.0
 10
1210.130749520825
 20
-268.5630676050744
 30
0.0
 10
1208.066487279446
 20
-263.9958282321952
 30
0.0
 10
1206.05451774405
 20
-259.5437591343996
 30
0.0
 10
1204.629234738023
 20
-254.8103905986054
 30
0.0
 10
1203.830437402556
 20
-249.9275296277207
 30
0.0
 10
1203.052717714123
 20
-245.1704572554905
 30
0.0
 10
1202.905806639678
 20
-240.294221638511
 30
0.0
 10
1203.394699069129
 20
-235.4333866880452
 30
0.0
 10
1203.870521347037
 20
-230.7007969460871
 30
0.0
 10
1204.978776634213
 20
-226.0158123211359
 30
0.0
 10
1206.68873191889
 20
-221.5087972515194
 30
0.0
 10
1208.353375974222
 20
-217.1210744927644
 30
0.0
 10
1210.608473166002
 20
-212.940557874335
 30
0.0
 10
1213.390931914658
 20
-209.0840175264129
 30
0.0
 10
1216.100058054243
 20
-205.3296260543266
 30
0.0
 10
1219.316621838662
 20
-201.9242016980612
 30
0.0
 10
1222.95575518899
 20
-198.9620792385002
 30
0.0
 10
1226.495216479554
 20
-196.0797462538371
 30
0.0
 10
1230.431653862358
 20
-193.659395175164
 30
0.0
 10
1234.655458136202
 20
-191.7682078607251
 30
0.0
 10
1238.762080124875
 20
-189.929586733226
 30
0.0
 10
1243.12996507645
 20
-188.6315396786416
 30
0.0
 10
1247.637411018281
 20
-187.910518716624
 30
0.0
 10
1252.017293615071
 20
-187.2104041692851
 30
0.0
 10
1256.508101043814
 20
-187.0919122461541
 30
0.0
 10
1260.984023565982
 20
-187.5585700384343
 30
0.0
 10
1265.332204779552
 20
-188.0124286051751
 30
0.0
 10
1269.637059237185
 20
-189.0481305693485
 30
0.0
 10
1273.77878686098
 20
-190.6369721200145
 30
0.0
 10
1277.801234936062
 20
-192.1805488657847
 30
0.0
 10
1281.633700335821
 20
-194.2668318909629
 30
0.0
 10
1285.168345224068
 20
-196.8379038446676
 30
0.0
 10
1288.600630790324
 20
-199.3347323452353
 30
0.0
 10
1291.71326586203
 20
-202.3000409006625
 30
0.0
 10
1294.420225010475
 20
-205.6509614117544
 30
0.0
 10
1297.046291890408
 20
-208.9023033049862
 30
0.0
 10
1299.249421322729
 20
-212.5184967059139
 30
0.0
 10
1300.968170631746
 20
-216.3989304674289
 30
0.0
 10
1302.634486775425
 20
-220.1619756044629
 30
0.0
 10
1303.805110811811
 20
-224.164168746264
 30
0.0
 10
1304.447836517719
 20
-228.2947843977652
 30
0.0
 10
1305.070853337716
 20
-232.2973976496634
 30
0.0
 10
1305.160997206639
 20
-236.4020183402528
 30
0.0
 10
1304.716312115179
 20
-240.4942189351966
 30
0.0
 10
1304.28621153719
 20
-244.4577979675235
 30
0.0
 10
1303.323415277727
 20
-248.3822056833303
 30
0.0
 10
1301.854928911154
 20
-252.1585747642029
 30
0.0
 10
1300.432761056453
 20
-255.8167727487364
 30
0.0
 10
1298.515048089421
 20
-259.3003352723536
 30
0.0
 10
1296.154913075905
 20
-262.5132283397797
 30
0.0
 10
1293.86987239705
 20
-265.6243870205256
 30
0.0
 10
1291.157177883192
 20
-268.4441988110163
 30
0.0
 10
1288.095361189856
 20
-270.8947310882263
 30
0.0
 10
1285.13186562305
 20
-273.2656455329457
 30
0.0
 10
1281.835944983498
 20
-275.2515853536241
 30
0.0
 10
1278.299388296425
 20
-276.7969784510946
 30
0.0
 10
1274.880489090642
 20
-278.291751933365
 30
0.0
 10
1271.244153407918
 20
-279.3358461506774
 30
0.0
 10
1267.491526254472
 20
-279.9008569975812
 30
0.0
 10
1263.864164861575
 20
-280.4460124745801
 30
0.0
 10
1260.145957372644
 20
-280.508704743611
 30
0.0
 10
1256.439481801067
 20
-280.0867399512782
 30
0.0
 10
1252.858202924283
 20
-279.6792525851762
 30
0.0
 10
1249.31362404269
 20
-278.7895119210253
 30
0.0
 10
1245.903905327067
 20
-277.4428831142782
 30
0.0
 10
1242.610931829258
 20
-276.1424355079999
 30
0.0
 10
1239.475316282208
 20
-274.3937750815775
 30
0.0
 10
1236.583948389151
 20
-272.2456779156266
 30
0.0
 10
1233.794571494729
 20
-270.1738628475083
 30
0.0
 10
1231.267134833995
 20
-267.7156032874138
 30
0.0
 10
1229.072075263301
 20
-264.939637445061
 30
0.0
 10
1226.956172611489
 20
-262.2637672169806
 30
0.0
 10
1225.187242697755
 20
-259.2886281215127
 30
0.0
 10
1223.814196460107
 20
-256.097144744408
 30
0.0
 10
1222.49167776471
 20
-253.0224753291242
 30
0.0
 10
1221.573883130466
 20
-249.7517408278748
 30
0.0
 10
1221.086748350668
 20
-246.3757995499588
 30
0.0
 10
1220.617589176333
 20
-243.1260602180124
 30
0.0
 10
1220.581948849385
 20
-239.79375663073
 30
0.0
 10
1220.981204142785
 20
-236.4716649148912
 30
0.0
 10
1221.365438788994
 20
-233.2755184195125
 30
0.0
 10
1222.181448391216
 20
-230.1108541933347
 30
0.0
 10
1223.40639438434
 20
-227.06566060112
 30
0.0
 10
1224.584292095177
 20
-224.1385990428439
 30
0.0
 10
1226.163100999724
 20
-221.3513298715268
 30
0.0
 10
1228.099257456813
 20
-218.7802420893104
 30
0.0
 10
1229.958820976009
 20
-216.3115403393907
 30
0.0
 10
1232.162558392189
 20
-214.0755440676429
 30
0.0
 10
1234.650664111367
 20
-212.1367492327319
 30
0.0
 10
1237.038434138963
 20
-210.2753298012662
 30
0.0
 10
1239.692658075741
 20
-208.7224878158547
 30
0.0
 10
1242.539924165845
 20
-207.5220324707878
 30
0.0
 10
1245.269895956566
 20
-206.3705389987852
 30
0.0
 10
1248.174187643125
 20
-205.578815932211
 30
0.0
 10
1251.172453407939
 20
-205.1683912081418
 30
0.0
 10
1254.044341294579
 20
-204.7758106955349
 30
0.0
 10
1256.990518623557
 20
-204.7671036788167
 30
0.0
 10
1259.929214417931
 20
-205.1431382113207
 30
0.0
 10
1262.739469647637
 20
-205.5026310413566
 30
0.0
 10
1265.524333484749
 20
-206.2441990837856
 30
0.0
 10
1268.205677420173
 20
-207.3473764420824
 30
0.0
 10
1270.767877156333
 20
-208.4024755248735
 30
0.0
 10
1273.207867714292
 20
-209.8111393780884
 30
0.0
 10
1275.457200603432
 20
-211.5344223474923
 30
0.0
 10
1277.605690601711
 20
-213.1807680595989
 30
0.0
 10
1279.54906771095
 20
-215.1309265449863
 30
0.0
 10
1281.233833211422
 20
-217.3298585668562
 30
0.0
 10
1282.840797867689
 20
-219.4281424294885
 30
0.0
 10
1284.177400665223
 20
-221.7605740258072
 30
0.0
 10
1285.206156430581
 20
-224.2637772679639
 30
0.0
 10
1286.187426398355
 20
-226.6491705832741
 30
0.0
 10
1286.853815547027
 20
-229.1871961632945
 30
0.0
 10
1287.187598057266
 20
-231.8070886792914
 30
0.0
 10
1287.505063555827
 20
-234.3019810678933
 30
0.0
 10
1287.487965838891
 20
-236.8617418643091
 30
0.0
 10
1287.135877396493
 20
-239.4148849779666
 30
0.0
 10
1286.801032133237
 20
-241.8444279147103
 30
0.0
 10
1286.134290067009
 20
-244.2491460087504
 30
0.0
 10
1285.154062703558
 20
-246.5628002616975
 30
0.0
 10
1284.223520719202
 20
-248.7606134791008
 30
0.0
 10
1282.985989851592
 20
-250.8528141617397
 30
0.0
 10
1281.475260874513
 20
-252.7815185894819
 30
0.0
 10
1280.043430967875
 20
-254.6097595842663
 30
0.0
 10
1278.349138197579
 20
-256.2608076538451
 30
0.0
 10
1276.43838816625
 20
-257.6926952585568
 30
0.0
 10
1274.630479377901
 20
-259.0462590295485
 30
0.0
 10
1272.619991381596
 20
-260.1674998209715
 30
0.0
 10
1270.462264955419
 20
-261.0254855302371
 30
0.0
 10
1268.422402242588
 20
-261.8366896880344
 30
0.0
 10
1266.25117929672
 20
-262.3791153832329
 30
0.0
 10
1264.009146957031
 20
-262.6372955141661
 30
0.0
 10
1261.892148741391
 20
-262.8805174459996
 30
0.0
 10
1259.718941347339
 20
-262.8384761598243
 30
0.0
 10
1257.550338307479
 20
-262.5115908572621
 30
0.0
 10
1253.660806109496
 20
-261.9258529119502
 30
0.0
 10
1249.932754257723
 20
-260.3472170263115
 30
0.0
 10
1246.810289440539
 20
-257.9558768612447
 30
0.0
 10
1243.577735691029
 20
-255.480225070267
 30
0.0
 10
1241.217059622104
 20
-252.2140837696073
 30
0.0
 10
1239.671129452197
 20
-248.4685033966421
 30
0.0
 10
1238.283221831708
 20
-245.1057903556524
 30
0.0
 10
1238.031633240316
 20
-241.3851755392551
 30
0.0
 10
1238.521114270645
 20
-237.8149856580747
 30
0.0
 10
1239.042983840996
 20
-234.0085593740526
 30
0.0
 10
1240.934411014361
 20
-230.4846819001537
 30
0.0
 10
1243.522619237554
 20
-227.6932717997134
 30
0.0
 10
1248.821658217205
 20
-221.9782018923303
 30
0.0
 10
1258.194718249967
 20
-220.5182440667757
 30
0.0
 10
1264.598271146634
 20
-225.2363023489906
 30
0.0
 10
1267.720451035325
 20
-227.5366857330434
 30
0.0
 10
1269.880776520929
 20
-231.1570837144811
 30
0.0
 10
1270.035541219432
 20
-235.0740010016548
 30
0.0
 10
1270.187688313051
 20
-238.9246697067706
 30
0.0
 10
1268.413994562456
 20
-242.7549048447365
 30
0.0
 10
1265.03321648885
 20
-244.737076907272
 30
0.0
 10
1262.471693066132
 20
-246.2389146663632
 30
0.0
 10
1258.356882387007
 20
-246.6629527275351
 30
0.0
 10
1256.410378287484
 20
-243.9577205481531
 30
0.0
 10
1255.545883232606
 20
-242.75625385617
 30
0.0
 10
1255.478159431027
 20
-241.3122618484464
 30
0.0
 10
1256.087769240301
 20
-239.981695739301
 30
0.0
 10
1256.315432254628
 20
-239.4847865909292
 30
0.0
 10
1256.644222598474
 20
-239.0415779298496
 30
0.0
 10
1257.133139084918
 20
-238.7789711190869
 30
0.0
 10
1257.547153702646
 20
-238.5565955981436
 30
0.0
 10
1258.017254122294
 20
-238.4741357633924
 30
0.0
 10
1258.4688985166
 20
-238.3633271058747
 30
0.0
 10
1259.650911503694
 20
-238.0733262248319
 30
0.0
 10
1261.082711173616
 20
-237.4033069550818
 30
0.0
 10
1261.311045382617
 20
-236.0731842611379
 30
0.0
 10
1261.613470705991
 20
-234.3114561889557
 30
0.0
 10
1260.29573290442
 20
-232.6587968672137
 30
0.0
 10
1258.833699295306
 20
-231.8624159606518
 30
0.0
 10
1255.229935277473
 20
-229.8994180940716
 30
0.0
 10
1250.88416060771
 20
-231.8624573221309
 30
0.0
 10
1248.733902975778
 20
-235.0293326913391
 30
0.0
 10
1246.482171500945
 20
-238.3456576004205
 30
0.0
 10
1246.488900899226
 20
-242.7373412242325
 30
0.0
 10
1248.198772883522
 20
-246.2783407792107
 30
0.0
 10
1249.950380517728
 20
-249.9057713179751
 30
0.0
 10
1253.375320997975
 20
-252.5060749091417
 30
0.0
 10
1257.233396417846
 20
-253.53991997443
 30
0.0
 10
1261.041108817213
 20
-254.5602693055602
 30
0.0
 10
1265.141442545815
 20
-254.0130713445727
 30
0.0
 10
1268.643333786138
 20
-252.2498683080302
 30
0.0
 10
1272.166068198122
 20
-250.476170729811
 30
0.0
 10
1274.992292880291
 20
-247.4729773880915
 30
0.0
 10
1276.705265718018
 20
-243.9346098745072
 30
0.0
 10
1280.133330741764
 20
-236.8534970586444
 30
0.0
 10
1278.735407907218
 20
-228.2520303589176
 30
0.0
 10
1273.859296739892
 20
-222.2126296400171
 30
0.0
 10
1268.849821396817
 20
-216.0080481712853
 30
0.0
 10
1260.739176854464
 20
-212.9562440838138
 30
0.0
 10
1252.870746310409
 20
-213.861232015698
 30
0.0
 10
1250.995505059619
 20
-214.0769129817847
 30
0.0
 10
1249.143217235119
 20
-214.4984639213592
 30
0.0
 10
1247.364294189961
 20
-215.130898392479
 30
0.0
 10
1245.173737116269
 20
-215.9089090993851
 30
0.0
 10
1243.120028612186
 20
-216.958843252598
 30
0.0
 10
1241.260799829656
 20
-218.2514160573614
 30
0.0
 10
1239.300064675861
 20
-219.6150350401873
 30
0.0
 10
1237.547210365735
 20
-221.2099190373508
 30
0.0
 10
1236.052045534382
 20
-222.9936941895775
 30
0.0
 10
1234.47651320935
 20
-224.8734630066682
 30
0.0
 10
1233.170434491818
 20
-226.9268651877771
 30
0.0
 10
1232.170126941485
 20
-229.0963809706272
 30
0.0
 10
1231.11676337233
 20
-231.3800479049391
 30
0.0
 10
1230.376229619196
 20
-233.7647456989583
 30
0.0
 10
1229.968485805071
 20
-236.1849281315075
 30
0.0
 10
1229.540395066936
 20
-238.7274468149455
 30
0.0
 10
1229.4484797578
 20
-241.2869231472648
 30
0.0
 10
1229.695745373527
 20
-243.7918260896304
 30
0.0
 10
1229.954651300534
 20
-246.4219362431025
 30
0.0
 10
1230.551071439539
 20
-248.9784773754185
 30
0.0
 10
1231.467844609623
 20
-251.3892506586135
 30
0.0
 10
1232.42870619572
 20
-253.9192072223891
 30
0.0
 10
1233.703589720185
 20
-256.2869408569499
 30
0.0
 10
1235.256768328565
 20
-258.4261354169333
 30
0.0
 10
1236.88307108075
 20
-260.666185219864
 30
0.0
 10
1238.776294169334
 20
-262.663745870685
 30
0.0
 10
1240.885572899152
 20
-264.3641325835014
 30
0.0
 10
1243.091763348553
 20
-266.1419779912339
 30
0.0
 10
1245.49650736439
 20
-267.6078072630687
 30
0.0
 10
1248.032568633229
 20
-268.7219620263079
 30
0.0
 10
1250.684047458803
 20
-269.8868772930651
 30
0.0
 10
1253.449919758948
 20
-270.6918478182246
 30
0.0
 10
1256.25363375261
 20
-271.1142965188139
 30
0.0
 10
1259.180536689222
 20
-271.5556893099309
 30
0.0
 10
1262.124520221595
 20
-271.6110399543329
 30
0.0
 10
1265.003248065671
 20
-271.2798140062255
 30
0.0
 10
1268.007223476499
 20
-270.9347695701439
 30
0.0
 10
1270.926434678265
 20
-270.2038577272467
 30
0.0
 10
1273.677956984274
 20
-269.1092154839766
 30
0.0
 10
1276.547289551487
 20
-267.9685054423032
 30
0.0
 10
1279.230268190109
 20
-266.4700948355633
 30
0.0
 10
1281.652459472009
 20
-264.6566556261715
 30
0.0
 10
1284.177015065932
 20
-262.7666814605503
 30
0.0
 10
1286.421609090151
 20
-260.5769362688317
 30
0.0
 10
1288.324965824138
 20
-258.1457689682488
 30
0.0
 10
1290.307684504127
 20
-255.61375133905
 30
0.0
 10
1291.935914113523
 20
-252.8582952308913
 30
0.0
 10
1293.165281412646
 20
-249.9555328510109
 30
0.0
 10
1294.443896222303
 20
-246.9379885426588
 30
0.0
 10
1295.314817364122
 20
-243.7911447447829
 30
0.0
 10
1295.754264763176
 20
-240.6034883219556
 30
0.0
 10
1296.211008793516
 20
-237.2915179691507
 30
0.0
 10
1296.232519426041
 20
-233.9622582525015
 30
0.0
 10
1295.818091361119
 20
-230.7083586046373
 30
0.0
 10
1295.387730700927
 20
-227.3291134753698
 30
0.0
 10
1294.524409226734
 20
-224.047358898305
 30
0.0
 10
1293.252415089636
 20
-220.9548255574183
 30
0.0
 10
1291.932536348799
 20
-217.7448116263418
 30
0.0
 10
1290.212851706079
 20
-214.7452296126807
 30
0.0
 10
1288.1402595721
 20
-212.0398569456583
 30
0.0
 10
1285.990473366976
 20
-209.2336093972435
 30
0.0
 10
1283.503884539114
 20
-206.7400131587864
 30
0.0
 10
1280.748633729316
 20
-204.6291167589349
 30
0.0
 10
1277.892657550208
 20
-202.4405117897187
 30
0.0
 10
1274.786560964126
 20
-200.6485439303295
 30
0.0
 10
1271.516755040044
 20
-199.3021008655352
 30
0.0
 10
1268.128150270704
 20
-197.9079639416432
 30
0.0
 10
1264.600944669011
 20
-196.9693866476266
 30
0.0
 10
1261.032984903493
 20
-196.5133183047172
 30
0.0
 10
1257.336634252958
 20
-196.0406346829883
 30
0.0
 10
1253.62292799905
 20
-196.0522766095227
 30
0.0
 10
1249.993420748037
 20
-196.5486484482838
 30
0.0
 10
1246.237920035258
 20
-197.0625191444983
 30
0.0
 10
1242.592877071077
 20
-198.0573565335725
 30
0.0
 10
1239.159127131961
 20
-199.5057004991233
 30
0.0
 10
1235.608305250113
 20
-201.003124969591
 30
0.0
 10
1232.291620327002
 20
-202.944300863494
 30
0.0
 10
1229.301279024965
 20
-205.2755385840047
 30
0.0
 10
1226.211746366628
 20
-207.6841367252083
 30
0.0
 10
1223.468701831672
 20
-210.4670726513564
 30
0.0
 10
1221.150168292903
 20
-213.5462340347177
 30
0.0
 10
1218.754351108229
 20
-216.7270126175593
 30
0.0
 10
1216.797911121583
 20
-220.1829327966915
 30
0.0
 10
1215.334988964226
 20
-223.8183199862472
 30
0.0
 10
1213.825082593988
 20
-227.5717816507405
 30
0.0
 10
1212.81863278422
 20
-231.4796881585071
 30
0.0
 10
1212.343440318055
 20
-235.4334129686881
 30
0.0
 10
1211.853202532054
 20
-239.5138287870955
 30
0.0
 10
1211.897786129894
 20
-243.6133577771429
 30
0.0
 10
1212.475778140289
 20
-247.6188212405158
 30
0.0
 10
1213.072130172555
 20
-251.7501412958486
 30
0.0
 10
1214.198044239
 20
-255.7592724800623
 30
0.0
 10
1215.822260767696
 20
-259.5346098957191
 30
0.0
 10
1217.496443972728
 20
-263.4275545957152
 30
0.0
 10
1219.658475565251
 20
-267.0615371157325
 30
0.0
 10
1222.247628250225
 20
-270.3359693537098
 30
0.0
 10
1224.916124920837
 20
-273.7107054315155
 30
0.0
 10
1227.994390379846
 20
-276.7028388535639
 30
0.0
 10
1231.395776666785
 20
-279.2294529513119
 30
0.0
 10
1234.899534596269
 20
-281.8326439695964
 30
0.0
 10
1238.705698926417
 20
-283.9539597724614
 30
0.0
 10
1242.708156553426
 20
-285.534309818545
 30
0.0
 10
1246.826974981836
 20
-287.1611864191057
 30
0.0
 10
1251.11604046414
 20
-288.2369207507065
 30
0.0
 10
1255.45537854213
 20
-288.7309395208673
 30
0.0
 10
1259.919119475095
 20
-289.239454213859
 30
0.0
 10
1264.40434580038
 20
-289.1625626110227
 30
0.0
 10
1268.785942259965
 20
-288.5039204596669
 30
0.0
 10
1273.293056985204
 20
-287.8258328791161
 30
0.0
 10
1277.666301913752
 20
-286.5689349842026
 30
0.0
 10
1281.783899017361
 20
-284.7688208853603
 30
0.0
 10
1286.018872317654
 20
-282.9176451959092
 30
0.0
 10
1289.970897446396
 20
-280.5356516211832
 30
0.0
 10
1293.53013600098
 20
-277.6886070167943
 30
0.0
 10
1297.190603812162
 20
-274.7600266362693
 30
0.0
 10
1300.431881611108
 20
-271.3888131638479
 30
0.0
 10
1303.167200868795
 20
-267.6629330926329
 30
0.0
 10
1305.978034501798
 20
-263.8363016862086
 30
0.0
 10
1308.264791945295
 20
-259.6807163416653
 30
0.0
 10
1309.963550786678
 20
-255.3113780061532
 30
0.0
 10
1311.708165264374
 20
-250.8242554699619
 30
0.0
 10
1312.853023427002
 20
-246.1547542731391
 30
0.0
 10
1313.365356097353
 20
-241.4336787602239
 30
0.0
 10
1313.892721766993
 20
-236.5835787716822
 30
0.0
 10
1313.784563879936
 20
-231.7128480953151
 30
0.0
 10
1313.044399623001
 20
-226.9565966769477
 30
0.0
 10
1312.284547714667
 20
-222.0736552471057
 30
0.0
 10
1310.897845616458
 20
-217.336191997769
 30
0.0
 10
1308.92294813429
 20
-212.8760289145972
 30
0.0
 10
1306.895588707287
 20
-208.298445172244
 30
0.0
 10
1304.293240854601
 20
-204.0285851430359
 30
0.0
 10
1301.187887028039
 20
-200.1840757686804
 30
0.0
 10
1298.002395710374
 20
-196.2406990502802
 30
0.0
 10
1294.334731339162
 20
-192.74792428589
 30
0.0
 10
1290.286362649012
 20
-189.8023300165284
 30
0.0
 10
1286.13469312705
 20
-186.782990793841
 30
0.0
 10
1281.629233658149
 20
-184.3309961627722
 30
0.0
 10
1276.895370091987
 20
-182.5142595498932
 30
0.0
 10
1272.042305436266
 20
-180.6522165904677
 30
0.0
 10
1266.992405183774
 20
-179.4384042772629
 30
0.0
 10
1261.88635487646
 20
-178.9055718020751
 30
0.0
 10
1256.652563260554
 20
-178.3599401013486
 30
0.0
 10
1251.396174569994
 20
-178.4993865417268
 30
0.0
 10
1246.26344480141
 20
-179.3198165232157
 30
0.0
 10
1241.003881458193
 20
-180.161191981783
 30
0.0
 10
1235.901850761563
 20
-181.6779540435908
 30
0.0
 10
1231.099960076848
 20
-183.8279237386856
 30
0.0
 10
1226.180887106955
 20
-186.0304596207201
 30
0.0
 10
1221.592559028265
 20
-188.8524569879524
 30
0.0
 10
1217.461844352021
 20
-192.2159175455867
 30
0.0
 10
1213.232755097091
 20
-195.6597096887766
 30
0.0
 10
1209.489704458384
 20
-199.6220911610376
 30
0.0
 10
1206.335812749189
 20
-203.993603219536
 30
0.0
 10
1203.107276894448
 20
-208.4681240250406
 30
0.0
 10
1200.489461606445
 20
-213.3226792785314
 30
0.0
 10
1198.55460502787
 20
-218.4225851751761
 30
0.0
 10
1196.574324839845
 20
-223.6421737921926
 30
0.0
 10
1195.290346716191
 20
-229.0726064563084
 30
0.0
 10
1194.738458735599
 20
-234.5628550288004
 30
0.0
 10
1194.173263857056
 20
-240.1812141605955
 30
0.0
 10
1194.343481671397
 20
-245.8235228773945
 30
0.0
 10
1195.244823212903
 20
-251.3317745036327
 30
0.0
 10
1196.166251211965
 20
-256.9663868046885
 30
0.0
 10
1197.812799832118
 20
-262.43268061896
 30
0.0
 10
1200.138364212357
 20
-267.5790713514762
 30
0.0
 10
1202.516620104731
 20
-272.8403030224185
 30
0.0
 10
1205.55819503776
 20
-277.7470190638404
 30
0.0
 10
1209.179086008199
 20
-282.1631862265081
 30
0.0
 10
1212.880276529493
 20
-286.6777567473616
 30
0.0
 10
1217.137400109806
 20
-290.671755471803
 30
0.0
 10
1221.832473691062
 20
-294.0352477606558
 30
0.0
 10
1226.630449297975
 20
-297.4728143394927
 30
0.0
 10
1231.834474469563
 20
-300.256866735546
 30
0.0
 10
1237.300391513642
 20
-302.3107106959846
 30
0.0
 10
1242.886424781151
 20
-304.408431017588
 30
0.0
 10
1248.69692476073
 20
-305.7618639365304
 30
0.0
 10
1254.571128675948
 20
-306.334212400908
 30
0.0
 10
1260.573458316167
 20
-306.9190147368179
 30
0.0
 10
1266.601261877101
 20
-306.7174233996034
 30
0.0
 10
1272.485801272954
 20
-305.7359584034474
 30
0.0
 10
1278.496642157029
 20
-304.7343732874299
 30
0.0
 10
1284.327469238993
 20
-302.9584032527912
 30
0.0
 10
1289.817223563388
 20
-300.4573968159157
 30
0.0
 10
1295.422225770366
 20
-297.9032174947392
 30
0.0
 10
1300.64744026837
 20
-294.6419946747653
 30
0.0
 10
1305.348104017893
 20
-290.7641557739821
 30
0.0
 10
1310.150975892923
 20
-286.8018755535008
 30
0.0
 10
1314.394076676663
 20
-282.2525945443919
 30
0.0
 10
1317.966142031208
 20
-277.2357798352677
 30
0.0
 10
1321.612785758592
 20
-272.1143366648021
 30
0.0
 10
1324.563075262691
 20
-266.5608415751151
 30
0.0
 10
1326.735097858128
 20
-260.7294952253649
 30
0.0
 10
1328.951780371647
 20
-254.7787759607019
 30
0.0
 10
1330.375480087944
 20
-248.5875660096949
 30
0.0
 10
1330.968140697398
 20
-242.3270507566019
 30
0.0
 10
1331.571776699357
 20
-235.9398248568393
 30
0.0
 10
1331.339854928993
 20
-229.5269787100798
 30
0.0
 10
1330.278805926647
 20
-223.2660431956546
 30
0.0
 10
1329.194851778978
 20
-216.8772848790836
 30
0.0
 10
1327.289477974805
 20
-210.6818797325698
 30
0.0
 10
1324.61462056753
 20
-204.8520793697667
 30
0.0
 10
1321.887223090613
 20
-198.9063178886132
 30
0.0
 10
1318.406524209045
 20
-193.3619585055607
 30
0.0
 10
1314.269542773817
 20
-188.3736465236716
 30
0.0
 10
1310.052352233089
 20
-183.2878051101657
 30
0.0
 10
1305.205951034624
 20
-178.7917535546028
 30
0.0
 10
1299.866149799753
 20
-175.009599996489
 30
0.0
 10
1294.421444294736
 20
-171.1534631867472
 30
0.0
 10
1288.518762975106
 20
-168.0364790991412
 30
0.0
 10
1282.32143999187
 20
-165.7462485719066
 30
0.0
 10
1276.003673593455
 20
-163.4111331077374
 30
0.0
 10
1269.432094918177
 20
-161.9167731880297
 30
0.0
 10
1262.788814047485
 20
-161.3047830749112
 30
0.0
 10
1256.018884120275
 20
-160.6809517807211
 30
0.0
 10
1249.220251227523
 20
-160.9431489044867
 30
0.0
 10
1242.580759397131
 20
-162.0851147597033
 30
0.0
 10
1235.816131648302
 20
-163.2484981401575
 30
0.0
 10
1229.256177216742
 20
-165.2833077485692
 30
0.0
 10
1223.083494299871
 20
-168.132596157461
 30
0.0
 10
1216.793310454118
 20
-171.0364158216354
 30
0.0
 10
1210.93075557519
 20
-174.7362299107373
 30
0.0
 10
1205.657558741837
 20
-179.1294371265946
 30
0.0
 10
1200.285615233945
 20
-183.6056547494153
 30
0.0
 10
1195.538063047686
 20
-188.7454419812533
 30
0.0
 10
1191.546245616459
 20
-194.4079932541161
 30
0.0
 10
1187.481477923377
 20
-200.1746654988549
 30
0.0
 10
1184.198591205831
 20
-206.4268346401848
 30
0.0
 10
1181.78870707842
 20
-212.9906515119632
 30
0.0
 10
1179.335312509648
 20
-219.6734454133428
 30
0.0
 10
1177.770460439382
 20
-226.6253865611419
 30
0.0
 10
1177.137902938179
 20
-233.6540502806892
 30
0.0
 10
1176.494078142617
 20
-240.808326477434
 30
0.0
 10
1176.787330069846
 20
-247.9927116022251
 30
0.0
 10
1178.008853296652
 20
-255.0079577468717
 30
0.0
 10
1179.252406297557
 20
-262.1491501844249
 30
0.0
 10
1181.416590896008
 20
-269.0736506458307
 30
0.0
 10
1184.440828337526
 20
-275.5897927413832
 30
0.0
 10
1187.518497678851
 20
-282.2214710318255
 30
0.0
 10
1191.437654807947
 20
-288.4033771351067
 30
0.0
 10
1196.089137659378
 20
-293.9636116552659
 30
0.0
 10
1200.823084365913
 20
-299.6216945093946
 30
0.0
 10
1206.257343038448
 20
-304.620409000042
 30
0.0
 10
1212.241935996332
 20
-308.8211662684157
 30
0.0
 10
1218.332577559639
 20
-313.0958918056656
 30
0.0
 10
1224.933918799813
 20
-316.5451674081114
 30
0.0
 10
1231.862615504551
 20
-319.0738106433337
 30
0.0
 10
1238.912449770638
 20
-321.6460494724128
 30
0.0
 10
1246.244822084508
 20
-323.2815345941897
 30
0.0
 10
1253.656977419569
 20
-323.9341008381701
 30
0.0
 10
1261.197365383935
 20
-324.597693447552
 30
0.0
 10
1268.767596441318
 20
-324.274199829219
 30
0.0
 10
1276.157769656756
 20
-322.9729072327722
 30
0.0
 10
1283.674710674114
 20
-321.649049444912
 30
0.0
 10
1290.964059350123
 20
-319.3558262207862
 30
0.0
 10
1297.823038092592
 20
-316.1565911772878
 30
0.0
 10
1304.799079895383
 20
-312.9038839855803
 30
0.0
 10
1311.299661756402
 20
-308.7654696376988
 30
0.0
 10
1317.144676292921
 20
-303.8568710617187
 30
0.0
 10
1323.088410762132
 20
-298.8683253165905
 30
0.0
 10
1328.337858785507
 20
-293.1376358694655
 30
0.0
 10
1332.749058266757
 20
-286.8297094042253
 30
0.0
 10
1337.232779055257
 20
-280.4176999949084
 30
0.0
 10
1340.849245261769
 20
-273.4673058050446
 30
0.0
 10
1343.496941241507
 20
-266.1710919875907
 30
0.0
 10
1346.188478626858
 20
-258.7562695395922
 30
0.0
 10
1347.893885191979
 20
-251.0428028378853
 30
0.0
 10
1348.566620869539
 20
-243.2464326272918
 30
0.0
 10
1349.250716356006
 20
-235.323006416021
 30
0.0
 10
1348.896977791376
 20
-227.3669902402444
 30
0.0
 10
1347.51579164193
 20
-219.5993675336167
 30
0.0
 10
1346.11200286627
 20
-211.7056763883803
 30
0.0
 10
1343.689761916617
 20
-204.0513738867167
 30
0.0
 10
1340.316076598953
 20
-196.8495877941303
 30
0.0
 10
1336.888548589122
 20
-189.5316793750925
 30
0.0
 10
1332.530869143102
 20
-182.7122841105818
 30
0.0
 10
1327.365107232118
 20
-176.5802456840069
 30
0.0
 10
1322.116338762375
 20
-170.3505280866141
 30
0.0
 10
1316.093601452957
 20
-164.8493613656871
 30
0.0
 10
1309.463510305336
 20
-160.2289562627325
 30
0.0
 10
1302.728683792077
 20
-155.535400293068
 30
0.0
 10
1295.428848463614
 20
-151.7527290132093
 30
0.0
 10
1287.767224278687
 20
-148.9853611953439
 30
0.0
 10
1279.985202920082
 20
-146.1750930400848
 30
0.0
 10
1271.89171662061
 20
-144.3987705112454
 30
0.0
 10
1263.711781476801
 20
-143.7056867300035
 30
0.0
 10
1255.402577976015
 20
-143.0018413333172
 30
0.0
 10
1247.060615139394
 20
-143.3857094675979
 30
0.0
 10
1238.917797691173
 20
-144.8471080723937
 30
0.0
 10
1230.64788147677
 20
-146.3307034695454
 30
0.0
 10
1222.629350295718
 20
-148.8818027471741
 30
0.0
 10
1215.084034961947
 20
-152.4300369223582
 30
0.0
 10
1207.422663850379
 20
-156.0328644602747
 30
0.0
 10
1200.283937151369
 20
-160.6092323798215
 30
0.0
 10
1193.866654722571
 20
-166.0319479555984
 30
0.0
 10
1187.348020008286
 20
-171.541346245522
 30
0.0
 10
1181.598700024229
 20
-177.8547518117522
 30
0.0
 10
1176.768266162956
 20
-184.8075734661624
 30
0.0
 10
1171.865015654429
 20
-191.865438071069
 30
0.0
 10
1167.915187174152
 20
-199.5145568438771
 30
0.0
 10
1165.02921476323
 20
-207.5418772293302
 30
0.0
 10
1162.099773011006
 20
-215.6905401464852
 30
0.0
 10
1160.252646381249
 20
-224.1642349967243
 30
0.0
 10
1159.539189823676
 20
-232.7284808615171
 30
0.0
 10
1158.81514022081
 20
-241.4214094690227
 30
0.0
 10
1159.229507951398
 20
-250.1489575951311
 30
0.0
 10
1160.770267947077
 20
-258.6683422113274
 30
0.0
 10
1162.333881705127
 20
-267.3139459326853
 30
0.0
 10
1165.014070398386
 20
-275.6978007074013
 30
0.0
 10
1168.73684555174
 20
-283.5865076366
 30
0.0
 10
1172.513994114718
 20
-291.5902522608756
 30
0.0
 10
1177.309298906046
 20
-299.0479425126321
 30
0.0
 10
1182.989946649642
 20
-305.7515581234694
 30
0.0
 10
1188.751716229055
 20
-312.5521726314107
 30
0.0
 10
1195.362814653808
 20
-318.5565628946864
 30
0.0
 10
1202.639475343086
 20
-323.5976794877416
 30
0.0
 10
1210.020248531885
 20
-328.710480378977
 30
0.0
 10
1218.018158242328
 20
-332.8269822839592
 30
0.0
 10
1226.41128942901
 20
-335.8322667892529
 30
0.0
 10
1234.924846568876
 20
-338.8804836666395
 30
0.0
 10
1243.779422181299
 20
-340.7983893903082
 30
0.0
 10
1252.728119409379
 20
-341.5324397119196
 30
0.0
 10
1261.805092101659
 20
-342.2761464518042
 30
0.0
 10
1270.918309452208
 20
-341.8322746798842
 30
0.0
 10
1279.815162832147
 20
-340.2115459272541
 30
0.0
 10
1288.838068633343
 20
-338.5682289381605
 30
0.0
 10
1297.586294874653
 20
-335.7587931350191
 30
0.0
 10
1305.817547993563
 20
-331.8618891648061
 30
0.0
 10
1314.164618774917
 20
-327.9099979085036
 30
0.0
 10
1321.941333393619
 20
-322.8957595005925
 30
0.0
 10
1328.931588478108
 20
-316.9582937760037
 30
0.0
 10
1336.016709111393
 20
-310.9342707823319
 30
0.0
 10
1342.27553270083
 20
-304.0308276349231
 30
0.0
 10
1347.523663276497
 20
-296.4344922073764
 30
0.0
 10
1352.846970450011
 20
-288.7303279522198
 30
0.0
 10
1357.130260897701
 20
-280.3837554429446
 30
0.0
 10
1360.25455941946
 20
-271.6252549131409
 30
0.0
 10
1363.421795196114
 20
-262.7462372088535
 30
0.0
 10
1365.410221849841
 20
-253.5113311586119
 30
0.0
 10
1366.164890608141
 20
-244.1774367794807
 30
0.0
 10
1366.929552483419
 20
-234.7163827505697
 30
0.0
 10
1366.454915330638
 20
-225.2177031078874
 30
0.0
 10
1364.754648996271
 20
-215.9444408472272
 30
0.0
 10
1363.031385002028
 20
-206.5447993079029
 30
0.0
 10
1360.093248565165
 20
-197.4313922601334
 30
0.0
 10
1356.021977662735
 20
-188.8571990281535
 30
0.0
 10
1354.159532647596
 20
-184.9347371777483
 30
0.0
 10
1352.069338177314
 20
-181.1348233050352
 30
0.0
 10
1349.769033013555
 20
-177.4751581340195
 30
0.0
 10
1346.950527315169
 20
-173.28533247043
 30
0.0
 10
1343.450106974894
 20
-168.8297961683989
 30
0.0
 10
1339.978183702565
 20
-164.9556328432364
 30
0.0
 10
1339.972909174592
 20
-164.9496328472665
 30
0.0
 10
1339.968604935942
 20
-164.9431663861847
 30
0.0
 10
1339.963266338569
 20
-164.9372239492159
 30
0.0
 10
1339.959510613731
 20
-164.9330434207814
 30
0.0
 10
1339.955258092388
 20
-164.9295986558643
 30
0.0
 10
1339.951516757303
 20
-164.9254341447813
 30
0.0
  0
SPLINE
  5
43
330
1F
100
AcDbEntity
  8
Ebene 2
 62
   250
420
  1842203
370
    35
100
AcDbSpline
210
0.0
220
0.0
230
1.0
 70
    11
 71
     3
 72
   722
 73
   718
 74
     0
 42
0.0000000001
 43
0.0000000001
 12
1.0
 22
0.0
 32
0.0
 13
1.0
 23
0.0
 33
0.0
 40
0.0
 40
0.0
 40
0.0
 40
0.0
 40
1.0
 40
1.0
 40
1.0
 40
2.0
 40
2.0
 40
2.0
 40
3.0
 40
3.0
 40
3.0
 40
4.0
 40
4.0
 40
4.0
 40
5.0
 40
5.0
 40
5.0
 40
6.0
 40
6.0
 40
6.0
 40
7.0
 40
7.0
 40
7.0
 40
8.0
 40
8.0
 40
8.0
 40
9.0
 40
9.0
 40
9.0
 40
10.0
 40
10.0
 40
10.0
 40
11.0
 40
11.0
 40
11.0
 40
12.0
 40
12.0
 40
12.0
 40
13.0
 40
13.0
 40
13.0
 40
14.0
 40
14.0
 40
14.0
 40
15.0
 40
15.0
 40
15.0
 40
16.0
 40
16.0
 40
16.0
 40
17.0
 40
17.0
 40
17.0
 40
18.0
 40
18.0
 40
18.0
 40
19.0
 40
19.0
 40
19.0
 40
20.0
 40
20.0
 40
20.0
 40
21.0
 40
21.0
 40
21.0
 40
22.0
 40
22.0
 40
22.0
 40
23.0
 40
23.0
 40
23.0
 40
24.0
 40
24.0
 40
24.0
 40
25.0
 40
25.0
 40
25.0
 40
26.0
 40
26.0
 40
26.0
 40
27.0
 40
27.0
 40
27.0
 40
28.0
 40
28.0
 40
28.0
 40
29.0
 40
29.0
 40
29.0
 40
30.0
 40
30.0
 40
30.0
 40
31.0
 40
31.0
 40
31.0
 40
32.0
 40
32.0
 40
32.0
 40
33.0
 40
33.0
 40
33.0
 40
34.0
 40
34.0
 40
34.0
 40
35.0
 40
35.0
 40
35.0
 40
36.0
 40
36.0
 40
36.0
 40
37.0
 40
37.0
 40
37.0
 40
38.0
 40
38.0
 40
38.0
 40
39.0
 40
39.0
 40
39.0
 40
40.0
 40
40.0
 40
40.0
 40
41.0
 40
41.0
 40
41.0
 40
42.0
 40
42.0
 40
42.0
 40
43.0
 40
43.0
 40
43.0
 40
44.0
 40
44.0
 40
44.0
 40
45.0
 40
45.0
 40
45.0
 40
46.0
 40
46.0
 40
46.0
 40
47.0
 40
47.0
 40
47.0
 40
48.0
 40
48.0
 40
48.0
 40
49.0
 40
49.0
 40
49.0
 40
50.0
 40
50.0
 40
50.0
 40
51.0
 40
51.0
 40
51.0
 40
52.0
 40
52.0
 40
52.0
 40
53.0
 40
53.0
 40
53.0
 40
54.0
 40
54.0
 40
54.0
 40
55.0
 40
55.0
 40
55.0
 40
56.0
 40
56.0
 40
56.0
 40
57.0
 40
57.0
 40
57.0
 40
58.0
 40
58.0
 40
58.0
 40
59.0
 40
59.0
 40
59.0
 40
60.0
 40
60.0
 40
60.0
 40
61.0
 40
61.0
 40
61.0
 40
62.0
 40
62.0
 40
62.0
 40
63.0
 40
63.0
 40
63.0
 40
64.0
 40
64.0
 40
64.0
 40
65.0
 40
65.0
 40
65.0
 40
66.0
 40
66.0
 40
66.0
 40
67.0
 40
67.0
 40
67.0
 40
68.0
 40
68.0
 40
68.0
 40
69.0
 40
69.0
 40
69.0
 40
70.0
 40
70.0
 40
70.0
 40
71.0
 40
71.0
 40
71.0
 40
72.0
 40
72.0
 40
72.0
 40
73.0
 40
73.0
 40
73.0
 40
74.0
 40
74.0
 40
74.0
 40
75.0
 40
75.0
 40
75.0
 40
76.0
 40
76.0
 40
76.0
 40
77.0
 40
77.0
 40
77.0
 40
78.0
 40
78.0
 40
78.0
 40
79.0
 40
79.0
 40
79.0
 40
80.0
 40
80.0
 40
80.0
 40
81.0
 40
81.0
 40
81.0
 40
82.0
 40
82.0
 40
82.0
 40
83.0
 40
83.0
 40
83.0
 40
84.0
 40
84.0
 40
84.0
 40
85.0
 40
85.0
 40
85.0
 40
86.0
 40
86.0
 40
86.0
 40
87.0
 40
87.0
 40
87.0
 40
88.0
 40
88.0
 40
88.0
 40
89.0
 40
89.0
 40
89.0
 40
90.0
 40
90.0
 40
90.0
 40
91.0
 40
91.0
 40
91.0
 40
92.0
 40
92.0
 40
92.0
 40
93.0
 40
93.0
 40
93.0
 40
94.0
 40
94.0
 40
94.0
 40
95.0
 40
95.0
 40
95.0
 40
96.0
 40
96.0
 40
96.0
 40
97.0
 40
97.0
 40
97.0
 40
98.0
 40
98.0
 40
98.0
 40
99.0
 40
99.0
 40
99.0
 40
100.0
 40
100.0
 40
100.0
 40
101.0
 40
101.0
 40
101.0
 40
102.0
 40
102.0
 40
102.0
 40
103.0
 40
103.0
 40
103.0
 40
104.0
 40
104.0
 40
104.0
 40
105.0
 40
105.0
 40
105.0
 40
106.0
 40
106.0
 40
106.0
 40
107.0
 40
107.0
 40
107.0
 40
108.0
 40
108.0
 40
108.0
 40
109.0
 40
109.0
 40
109.0
 40
110.0
 40
110.0
 40
110.0
 40
111.0
 40
111.0
 40
111.0
 40
112.0
 40
112.0
 40
112.0
 40
113.0
 40
113.0
 40
113.0
 40
114.0
 40
114.0
 40
114.0
 40
115.0
 40
115.0
 40
115.0
 40
116.0
 40
116.0
 40
116.0
 40
117.0
 40
117.0
 40
117.0
 40
118.0
 40
118.0
 40
118.0
 40
119.0
 40
119.0
 40
119.0
 40
120.0
 40
120.0
 40
120.0
 40
121.0
 40
121.0
 40
121.0
 40
122.0
 40
122.0
 40
122.0
 40
123.0
 40
123.0
 40
123.0
 40
124.0
 40
124.0
 40
124.0
 40
125.0
 40
125.0
 40
125.0
 40
126.0
 40
126.0
 40
126.0
 40
127.0
 40
127.0
 40
127.0
 40
128.0
 40
128.0
 40
128.0
 40
129.0
 40
129.0
 40
129.0
 40
130.0
 40
130.0
 40
130.0
 40
131.0
 40
131.0
 40
131.0
 40
132.0
 40
132.0
 40
132.0
 40
133.0
 40
133.0
 40
133.0
 40
134.0
 40
134.0
 40
134.0
 40
135.0
 40
135.0
 40
135.0
 40
136.0
 40
136.0
 40
136.0
 40
137.0
 40
137.0
 40
137.0
 40
138.0
 40
138.0
 40
138.0
 40
139.0
 40
139.0
 40
139.0
 40
140.0
 40
140.0
 40
140.0
 40
141.0
 40
141.0
 40
141.0
 40
142.0
 40
142.0
 40
142.0
 40
143.0
 40
143.0
 40
143.0
 40
144.0
 40
144.0
 40
144.0
 40
145.0
 40
145.0
 40
145.0
 40
146.0
 40
146.0
 40
146.0
 40
147.0
 40
147.0
 40
147.0
 40
148.0
 40
148.0
 40
148.0
 40
149.0
 40
149.0
 40
149.0
 40
150.0
 40
150.0
 40
150.0
 40
151.0
 40
151.0
 40
151.0
 40
152.0
 40
152.0
 40
152.0
 40
153.0
 40
153.0
 40
153.0
 40
154.0
 40
154.0
 40
154.0
 40
155.0
 40
155.0
 40
155.0
 40
156.0
 40
156.0
 40
156.0
 40
157.0
 40
157.0
 40
157.0
 40
158.0
 40
158.0
 40
158.0
 40
159.0
 40
159.0
 40
159.0
 40
160.0
 40
160.0
 40
160.0
 40
161.0
 40
161.0
 40
161.0
 40
162.0
 40
162.0
 40
162.0
 40
163.0
 40
163.0
 40
163.0
 40
164.0
 40
164.0
 40
164.0
 40
165.0
 40
165.0
 40
165.0
 40
166.0
 40
166.0
 40
166.0
 40
167.0
 40
167.0
 40
167.0
 40
168.0
 40
168.0
 40
168.0
 40
169.0
 40
169.0
 40
169.0
 40
170.0
 40
170.0
 40
170.0
 40
171.0
 40
171.0
 40
171.0
 40
172.0
 40
172.0
 40
172.0
 40
173.0
 40
173.0
 40
173.0
 40
174.0
 40
174.0
 40
174.0
 40
175.0
 40
175.0
 40
175.0
 40
176.0
 40
176.0
 40
176.0
 40
177.0
 40
177.0
 40
177.0
 40
178.0
 40
178.0
 40
178.0
 40
179.0
 40
179.0
 40
179.0
 40
180.0
 40
180.0
 40
180.0
 40
181.0
 40
181.0
 40
181.0
 40
182.0
 40
182.0
 40
182.0
 40
183.0
 40
183.0
 40
183.0
 40
184.0
 40
184.0
 40
184.0
 40
185.0
 40
185.0
 40
185.0
 40
186.0
 40
186.0
 40
186.0
 40
187.0
 40
187.0
 40
187.0
 40
188.0
 40
188.0
 40
188.0
 40
189.0
 40
189.0
 40
189.0
 40
190.0
 40
190.0
 40
190.0
 40
191.0
 40
191.0
 40
191.0
 40
192.0
 40
192.0
 40
192.0
 40
193.0
 40
193.0
 40
193.0
 40
194.0
 40
194.0
 40
194.0
 40
195.0
 40
195.0
 40
195.0
 40
196.0
 40
196.0
 40
196.0
 40
197.0
 40
197.0
 40
197.0
 40
198.0
 40
198.0
 40
198.0
 40
199.0
 40
199.0
 40
199.0
 40
200.0
 40
200.0
 40
200.0
 40
201.0
 40
201.0
 40
201.0
 40
202.0
 40
202.0
 40
202.0
 40
203.0
 40
203.0
 40
203.0
 40
204.0
 40
204.0
 40
204.0
 40
205.0
 40
205.0
 40
205.0
 40
206.0
 40
206.0
 40
206.0
 40
207.0
 40
207.0
 40
207.0
 40
208.0
 40
208.0
 40
208.0
 40
209.0
 40
209.0
 40
209.0
 40
210.0
 40
210.0
 40
210.0
 40
211.0
 40
211.0
 40
211.0
 40
212.0
 40
212.0
 40
212.0
 40
213.0
 40
213.0
 40
213.0
 40
214.0
 40
214.0
 40
214.0
 40
215.0
 40
215.0
 40
215.0
 40
216.0
 40
216.0
 40
216.0
 40
217.0
 40
217.0
 40
217.0
 40
218.0
 40
218.0
 40
218.0
 40
219.0
 40
219.0
 40
219.0
 40
220.0
 40
220.0
 40
220.0
 40
221.0
 40
221.0
 40
221.0
 40
222.0
 40
222.0
 40
222.0
 40
223.0
 40
223.0
 40
223.0
 40
224.0
 40
224.0
 40
224.0
 40
225.0
 40
225.0
 40
225.0
 40
226.0
 40
226.0
 40
226.0
 40
227.0
 40
227.0
 40
227.0
 40
228.0
 40
228.0
 40
228.0
 40
229.0
 40
229.0
 40
229.0
 40
230.0
 40
230.0
 40
230.0
 40
231.0
 40
231.0
 40
231.0
 40
232.0
 40
232.0
 40
232.0
 40
233.0
 40
233.0
 40
233.0
 40
234.0
 40
234.0
 40
234.0
 40
235.0
 40
235.0
 40
235.0
 40
236.0
 40
236.0
 40
236.0
 40
237.0
 40
237.0
 40
237.0
 40
238.0
 40
238.0
 40
238.0
 40
239.0
 40
239.0
 40
239.0
 40
239.0
 10
1372.814097751068
 20
38.13682310445795
 30
0.0
 10
1364.366091094306
 20
41.29462459663554
 30
0.0
 10
1355.561589653846
 20
43.33014219019537
 30
0.0
 10
1346.645579090613
 20
44.186624951546
 30
0.0
 10
1337.603285494681
 20
45.0544476853584
 30
0.0
 10
1328.507786597864
 20
44.73800979664242
 30
0.0
 10
1319.611220815962
 20
43.24504838391417
 30
0.0
 10
1310.587785286762
 20
41.73050131043045
 30
0.0
 10
1301.822789958976
 20
39.05014641750162
 30
0.0
 10
1293.560077571607
 20
35.27835450287823
 30
0.0
 10
1285.180053111192
 20
31.45351111380069
 30
0.0
 10
1277.353634918773
 20
26.56037590748709
 30
0.0
 10
1270.298042406761
 20
20.73517234245173
 30
0.0
 10
1263.142508786257
 20
14.82237308393486
 30
0.0
 10
1256.802706280986
 20
8.020237139898654
 30
0.0
 10
1251.466148189502
 20
0.5235605452648303
 30
0.0
 10
1246.049122021787
 20
-7.086123078167041
 30
0.0
 10
1241.660106732408
 20
-15.35188884654368
 30
0.0
 10
1238.420915899538
 20
-24.04473500430609
 30
0.0
 10
1235.137118773772
 20
-32.85743878931819
 30
0.0
 10
1233.023797723844
 20
-42.04117006878485
 30
0.0
 10
1232.140367321437
 20
-51.34032323047182
 30
0.0
 10
1231.244815642436
 20
-60.76623912026771
 30
0.0
 10
1231.584580986876
 20
-70.24792871449299
 30
0.0
 10
1233.14978753336
 20
-79.52255820911022
 30
0.0
 10
1234.736677184726
 20
-88.92266011560146
 30
0.0
 10
1237.539025573341
 20
-98.05487236279139
 30
0.0
 10
1241.479582843061
 20
-106.6649867529127
 30
0.0
 10
1245.473050273955
 20
-115.391594460089
 30
0.0
 10
1250.579182904447
 20
-123.5408744619686
 30
0.0
 10
1256.655872390178
 20
-130.8871995192765
 30
0.0
 10
1258.141054715124
 20
-132.5950501436523
 30
0.0
 10
1260.729527455938
 20
-132.7755590304891
 30
0.0
 10
1262.43741057552
 20
-131.2903484470351
 30
0.0
 10
1264.14522870469
 20
-129.8051943805945
 30
0.0
 10
1264.325737591524
 20
-127.2167216397822
 30
0.0
 10
1262.840555266578
 20
-125.5088710154064
 30
0.0
 10
1262.834027551581
 20
-125.5013646224569
 30
0.0
 10
1262.826686057997
 20
-125.4950224633755
 30
0.0
 10
1262.820093352585
 20
-125.4875725874394
 30
0.0
 10
1262.820093352585
 20
-125.4875725874394
 30
0.0
 10
1262.821198189642
 20
-125.4866117982192
 30
0.0
 10
1262.821198189642
 20
-125.4866117982192
 30
0.0
 10
1257.22958763656
 20
-118.6684291212317
 30
0.0
 10
1252.404022845191
 20
-110.9448137401749
 30
0.0
 10
1248.743507881195
 20
-102.8515042477645
 30
0.0
 10
1245.135838108711
 20
-94.87540086937426
 30
0.0
 10
1242.581617408337
 20
-86.41912087105656
 30
0.0
 10
1241.1526413295
 20
-77.7174752764791
 30
0.0
 10
1239.744333949855
 20
-69.14249812365053
 30
0.0
 10
1239.470199473157
 20
-60.37731015934209
 30
0.0
 10
1240.337595398196
 20
-51.66636165773053
 30
0.0
 10
1241.192440575442
 20
-43.08351954093822
 30
0.0
 10
1243.183310492849
 20
-34.60935509442959
 30
0.0
 10
1246.255229193354
 20
-26.47937777739615
 30
0.0
 10
1249.281335041586
 20
-18.47036440606597
 30
0.0
 10
1253.369394922996
 20
-10.85786879348488
 30
0.0
 10
1258.40454890186
 20
-3.854344895595554
 30
0.0
 10
1263.364094852631
 20
3.043708396830862
 30
0.0
 10
1269.24244486613
 20
9.289983237913061
 30
0.0
 10
1275.868773802255
 20
14.71210007208515
 30
0.0
 10
1282.397213002421
 20
20.0504310922544
 30
0.0
 10
1289.635835086602
 20
24.52774102905425
 30
0.0
 10
1297.383447916953
 20
28.0194327640326
 30
0.0
 10
1305.01374867426
 20
31.45807302455647
 30
0.0
 10
1313.103237070671
 20
33.88895801243008
 30
0.0
 10
1321.427364379055
 20
35.24388049609371
 30
0.0
 10
1329.623556590299
 20
36.5785736443169
 30
0.0
 10
1338.002510071042
 20
36.8289716368993
 30
0.0
 10
1346.331253440812
 20
35.98774065038183
 30
0.0
 10
1354.530410433171
 20
35.15928571826463
 30
0.0
 10
1362.625342943074
 20
33.24553260041428
 30
0.0
 10
1370.390260769421
 20
30.29835277065808
 30
0.0
 10
1378.037295443476
 20
27.39629782096484
 30
0.0
 10
1385.302479287064
 20
23.48065480305371
 30
0.0
 10
1391.985952154302
 20
18.66128459632175
 30
0.0
 10
1398.565743154639
 20
13.91625300698604
 30
0.0
 10
1404.522218785401
 20
8.296173548343294
 30
0.0
 10
1409.68981351532
 20
1.957965364015014
 30
0.0
 10
1414.776913723549
 20
-4.282429981928642
 30
0.0
 10
1419.040140443518
 20
-11.19822137420374
 30
0.0
 10
1422.361662412975
 20
-18.59799849389887
 30
0.0
 10
1425.631065459437
 20
-25.88219216235053
 30
0.0
 10
1427.938671251825
 20
-33.60495394727479
 30
0.0
 10
1429.220048793432
 20
-41.55214788320051
 30
0.0
 10
1430.480797206051
 20
-49.37298138264879
 30
0.0
 10
1430.706691518891
 20
-57.36554004288654
 30
0.0
 10
1429.891889544763
 20
-65.30785377934106
 30
0.0
 10
1429.089652551431
 20
-73.12535877833926
 30
0.0
 10
1427.252484977366
 20
-80.84057969772444
 30
0.0
 10
1424.430743364524
 20
-88.23960158989087
 30
0.0
 10
1421.655063357661
 20
-95.52043935799769
 30
0.0
 10
1417.91177367348
 20
-102.43987901826
 30
0.0
 10
1413.305587622276
 20
-108.8055615353648
 30
0.0
 10
1408.76995455903
 20
-115.0728231414282
 30
0.0
 10
1403.403654200104
 20
-120.7417504120798
 30
0.0
 10
1397.363315350592
 20
-125.6470017657551
 30
0.0
 10
1391.414641514677
 20
-130.4811282657457
 30
0.0
 10
1384.820683334672
 20
-134.530568503953
 30
0.0
 10
1377.764913063995
 20
-137.6827678468767
 30
0.0
 10
1370.826664029109
 20
-140.7837312517663
 30
0.0
 10
1363.47086763383
 20
-142.9681355491862
 30
0.0
 10
1355.90166530371
 20
-144.1756756503665
 30
0.0
 10
1348.459954408023
 20
-145.3623449853568
 30
0.0
 10
1340.853202837002
 20
-145.5645035340291
 30
0.0
 10
1333.293564713698
 20
-144.7756856356858
 30
0.0
 10
1325.8626426722
 20
-144.0007430351959
 30
0.0
 10
1318.526281372186
 20
-142.2399031823548
 30
0.0
 10
1311.488247052719
 20
-139.5424180725429
 30
0.0
 10
1304.57090468564
 20
-136.8902689786483
 30
0.0
 10
1297.998130406966
 20
-133.3194731800341
 30
0.0
 10
1291.952371757237
 20
-128.9289246725272
 30
0.0
 10
1286.011453573169
 20
-124.6140470859269
 30
0.0
 10
1280.635357542691
 20
-119.5060913618771
 30
0.0
 10
1275.973197235685
 20
-113.747520637823
 30
0.0
 10
1271.391726463114
 20
-108.087905761018
 30
0.0
 10
1267.556502240116
 20
-101.8164059764315
 30
0.0
 10
1264.573467367383
 20
-95.10734821340006
 30
0.0
 10
1261.641497400252
 20
-88.51344936631155
 30
0.0
 10
1259.5805206451
 20
-81.52422204238545
 30
0.0
 10
1258.447936992153
 20
-74.33337933635283
 30
0.0
 10
1257.334552596064
 20
-67.26751532127591
 30
0.0
 10
1257.1567430253
 20
-60.04740724146668
 30
0.0
 10
1257.91942011067
 20
-52.87334889868241
 30
0.0
 10
1258.668517809558
 20
-45.82529532322837
 30
0.0
 10
1260.352748796007
 20
-38.86832347920929
 30
0.0
 10
1262.925234374211
 20
-32.19580360408073
 30
0.0
 10
1265.452633244154
 20
-25.64193265772134
 30
0.0
 10
1268.851217721519
 20
-19.41549243276468
 30
0.0
 10
1273.026980656475
 20
-13.68991547296581
 30
0.0
 10
1277.127576325492
 20
-8.068084692031565
 30
0.0
 10
1281.97755185395
 20
-2.982220202124961
 30
0.0
 10
1287.44863967796
 20
1.427342355122874
 30
0.0
 10
1292.816858737509
 20
5.755038330221194
 30
0.0
 10
1298.766257573964
 20
9.37635738157629
 30
0.0
 10
1305.130705166787
 20
12.19082902845295
 30
0.0
 10
1311.378202349802
 20
14.9532770781116
 30
0.0
 10
1318.000527176898
 20
16.89042219849728
 30
0.0
 10
1324.813987932619
 20
17.94915642086627
 30
0.0
 10
1331.501177921786
 20
18.98876622784727
 30
0.0
 10
1338.335221789015
 20
19.14221694890218
 30
0.0
 10
1345.126715434324
 20
18.40536358162816
 30
0.0
 10
1351.791016056631
 20
17.68299662834556
 30
0.0
 10
1358.368842878662
 20
16.07515905273432
 30
0.0
 10
1364.677303601787
 20
13.62665578290683
 30
0.0
 10
1370.864798198605
 20
11.22590382835599
 30
0.0
 10
1376.744758861364
 20
7.998976114613116
 30
0.0
 10
1382.153388269572
 20
4.035789119592354
 30
0.0
 10
1387.45845162096
 20
0.148382583501084
 30
0.0
 10
1392.253868540038
 20
-4.44802374868806
 30
0.0
 10
1396.407344737383
 20
-9.624532623501645
 30
0.0
 10
1400.483446056706
 20
-14.70379724306759
 30
0.0
 10
1403.890393671065
 20
-20.33055896046156
 30
0.0
 10
1406.534226531759
 20
-26.34886277402024
 30
0.0
 10
1409.126864402277
 20
-32.24883930590296
 30
0.0
 10
1410.941147129775
 20
-38.50458868584463
 30
0.0
 10
1411.926575949685
 20
-44.94293372387809
 30
0.0
 10
1412.890957315124
 20
-51.25128725259336
 30
0.0
 10
1413.020227210909
 20
-57.69934037106366
 30
0.0
 10
1412.310288269532
 20
-64.10729228207616
 30
0.0
 10
1411.612914308951
 20
-70.39043545563331
 30
0.0
 10
1410.081280808035
 20
-76.5887682817967
 30
0.0
 10
1407.758037010732
 20
-82.5308322125726
 30
0.0
 10
1405.48013994559
 20
-88.35598998638353
 30
0.0
 10
1402.425155796484
 20
-93.8890790053495
 30
0.0
 10
1398.677555442504
 20
-98.97654475090016
 30
0.0
 10
1395.006992967996
 20
-103.9592653565578
 30
0.0
 10
1390.665969907848
 20
-108.4625144734094
 30
0.0
 10
1385.777001294536
 20
-112.3678229854718
 30
0.0
 10
1380.989576092679
 20
-116.1888220982166
 30
0.0
 10
1375.685126542267
 20
-119.3816808606427
 30
0.0
 10
1370.010701756746
 20
-121.8575863118756
 30
0.0
 10
1364.451718472231
 20
-124.2827518095845
 30
0.0
 10
1358.562215309167
 20
-125.9732029230653
 30
0.0
 10
1352.504900178846
 20
-126.8821521321974
 30
0.0
 10
1346.573061821593
 20
-127.7732951624449
 30
0.0
 10
1340.511219843332
 20
-127.8778501596383
 30
0.0
 10
1334.488246489255
 20
-127.1926059737514
 30
0.0
 10
1328.592076215692
 20
-126.5221873039334
 30
0.0
 10
1322.773224675291
 20
-125.066940138858
 30
0.0
 10
1317.192856877477
 20
-122.8680785679648
 30
0.0
 10
1311.731202998842
 20
-120.7142471883143
 30
0.0
 10
1306.544496755656
 20
-117.8307756927482
 30
0.0
 10
1301.777379412775
 20
-114.2977588650715
 30
0.0
 10
1297.111968762643
 20
-110.8398281275608
 30
0.0
 10
1292.896711031647
 20
-106.7554233233355
 30
0.0
 10
1289.24949998261
 20
-102.1571446600719
 30
0.0
 10
1285.681172844887
 20
-97.65876428807236
 30
0.0
 10
1282.702566808831
 20
-92.67602784090634
 30
0.0
 10
1280.396726521001
 20
-87.34787471787864
 30
0.0
 10
1278.14183244889
 20
-82.13461277493141
 30
0.0
 10
1276.575049074984
 20
-76.61195489248695
 30
0.0
 10
1275.74032724877
 20
-70.9322922658893
 30
0.0
 10
1274.923685733847
 20
-65.37920915181506
 30
0.0
 10
1274.843709998566
 20
-59.70355359276417
 30
0.0
 10
1275.503253372186
 20
-54.0626956383561
 30
0.0
 10
1276.147293108578
 20
-48.55048599928698
 30
0.0
 10
1277.526784056863
 20
-43.11039657188842
 30
0.0
 10
1279.602761122938
 20
-37.89410343298476
 30
0.0
 10
1281.631492605557
 20
-32.79633919681879
 30
0.0
 10
1284.343305939098
 20
-27.95657028703558
 30
0.0
 10
1287.662407531327
 20
-23.50984795054222
 30
0.0
 10
1290.905601439096
 20
-19.16457660258096
 30
0.0
 10
1294.734784007417
 20
-15.24049059258065
 30
0.0
 10
1299.043142547072
 20
-11.84537156147999
 30
0.0
 10
1303.252571338135
 20
-8.52969237697498
 30
0.0
 10
1307.913670984173
 20
-5.765558060342859
 30
0.0
 10
1312.896513213177
 20
-3.630231493016288
 30
0.0
 10
1317.761495104314
 20
-1.545750921233577
 30
0.0
 10
1322.918111633677
 20
-0.1027066116228716
 30
0.0
 10
1328.22245439874
 20
0.6581898680673328
 30
0.0
 10
1333.39901744695
 20
1.399990848578607
 30
0.0
 10
1338.688971218107
 20
1.454895657134649
 30
0.0
 10
1343.944529159508
 20
0.8209088819514745
 30
0.0
 10
1349.073843513923
 20
0.2018917536696805
 30
0.0
 10
1354.13438384759
 20
-1.101528638247803
 30
0.0
 10
1358.985373082552
 20
-3.053207657973613
 30
0.0
 10
1363.719273137954
 20
-4.957787281180665
 30
0.0
 10
1368.212320889831
 20
-7.498125413043722
 30
0.0
 10
1372.339565160753
 20
-10.6028567954154
 30
0.0
 10
1376.365272289972
 20
-13.63269705886642
 30
0.0
 10
1379.9989297528
 20
-17.20672447930099
 30
0.0
 10
1383.139821933318
 20
-21.22579239818733
 30
0.0
 10
1386.201948892399
 20
-25.14522976167202
 30
0.0
 10
1388.751498455583
 20
-29.48456262575322
 30
0.0
 10
1390.716876472533
 20
-34.12274386488659
 30
0.0
 10
1392.631644454543
 20
-38.64340172913101
 30
0.0
 10
1393.950473541951
 20
-43.43336373316944
 30
0.0
 10
1394.635635786028
 20
-48.35933842148847
 30
0.0
 10
1395.303274415535
 20
-53.15950500886362
 30
0.0
 10
1395.332721151678
 20
-58.06318055178967
 30
0.0
 10
1394.723522422402
 20
-62.93504847435493
 30
0.0
 10
1394.131178020571
 20
-67.6777212566568
 30
0.0
 10
1392.903193808519
 20
-72.35883614311936
 30
0.0
 10
1391.07396348811
 20
-76.84784178639852
 30
0.0
 10
1389.293394431781
 20
-81.21771518500313
 30
0.0
 10
1386.924036977736
 20
-85.36347311284209
 30
0.0
 10
1384.031990208131
 20
-89.1700228870075
 30
0.0
 10
1381.219674328767
 20
-92.87413677862087
 30
0.0
 10
1377.899263428265
 20
-96.21710577411213
 30
0.0
 10
1374.167940530934
 20
-99.10645631986716
 30
0.0
 10
1370.538147019546
 20
-101.9147626184601
 30
0.0
 10
1366.520462226797
 20
-104.2488034123825
 30
0.0
 10
1362.22665373662
 20
-106.043770171848
 30
0.0
 10
1358.050250692902
 20
-107.7895991147645
 30
0.0
 10
1353.626585746155
 20
-108.983867543589
 30
0.0
 10
1349.078334865532
 20
-109.5933421972636
 30
0.0
 10
1344.653119339208
 20
-110.1858782538491
 30
0.0
 10
1340.135457805402
 20
-110.1894974593901
 30
0.0
 10
1335.650615700092
 20
-109.6051820395504
 30
0.0
 10
1331.288612197729
 20
-109.0371708337137
 30
0.0
 10
1326.987242054697
 20
-107.8842024614371
 30
0.0
 10
1322.865292259766
 20
-106.1786597704366
 30
0.0
 10
1318.859275966925
 20
-104.5219063097434
 30
0.0
 10
1315.060262498847
 20
-102.3236899119497
 30
0.0
 10
1311.573851964609
 20
-99.64441113222937
 30
0.0
 10
1308.187472543071
 20
-97.04301669251926
 30
0.0
 10
1305.135754429738
 20
-93.97910031841506
 30
0.0
 10
1302.503597074801
 20
-90.53742752448989
 30
0.0
 10
1299.947684382119
 20
-87.19563685721981
 30
0.0
 10
1297.828827384634
 20
-83.49922644091599
 30
0.0
 10
1296.20608464302
 20
-79.5511533593122
 30
0.0
 10
1294.631064037326
 20
-75.72108906610458
 30
0.0
 10
1293.561788597334
 20
-71.66343081738403
 30
0.0
 10
1293.027864436736
 20
-67.49136795479859
 30
0.0
 10
1292.510683984972
 20
-63.44513511736076
 30
0.0
 10
1292.532741124947
 20
-59.31324811531726
 30
0.0
 10
1293.092934609139
 20
-55.21020416955957
 30
0.0
 10
1293.636194542474
 20
-51.23311423371508
 30
0.0
 10
1294.714000126595
 20
-47.31118860304054
 30
0.0
 10
1296.296577074756
 20
-43.55338411329132
 30
0.0
 10
1297.83028359609
 20
-39.91289633179598
 30
0.0
 10
1299.858615001271
 20
-36.46121857152031
 30
0.0
 10
1302.32525717034
 20
-33.29437647197782
 30
0.0
 10
1304.711738894968
 20
-30.22868879189074
 30
0.0
 10
1307.521377574782
 20
-27.46926136586573
 30
0.0
 10
1310.676473118522
 20
-25.08962755617081
 30
0.0
 10
1313.728931497212
 20
-22.78832036560804
 30
0.0
 10
1317.104360014689
 20
-20.88504911795432
 30
0.0
 10
1320.708784456006
 20
-19.43305811355421
 30
0.0
 10
1324.194969804173
 20
-18.02859003712766
 30
0.0
 10
1327.886790905905
 20
-17.08450255721627
 30
0.0
 10
1331.681524202234
 20
-16.62783497108378
 30
0.0
 10
1335.349113452864
 20
-16.18640006663657
 30
0.0
 10
1339.095146824224
 20
-16.23483010148786
 30
0.0
 10
1342.815616962151
 20
-16.77151910047009
 30
0.0
 10
1346.406240574269
 20
-17.28975159353748
 30
0.0
 10
1349.948389707004
 20
-18.29365327069378
 30
0.0
 10
1353.344473446532
 20
-19.75526502888541
 30
0.0
 10
1356.622035275329
 20
-21.1673423475924
 30
0.0
 10
1359.726274186329
 20
-23.02573578064736
 30
0.0
 10
1362.570692426616
 20
-25.27954221410938
 30
0.0
 10
1365.315718105152
 20
-27.4533110674641
 30
0.0
 10
1367.784247963344
 20
-30.0094865307849
 30
0.0
 10
1369.907749716112
 20
-32.8770053300991
 30
0.0
 10
1371.955043393293
 20
-35.63995903087412
 30
0.0
 10
1373.641684787023
 20
-38.69471439549176
 30
0.0
 10
1374.921574783147
 20
-41.95623553018773
 30
0.0
 10
1376.154884212315
 20
-45.09869807504764
 30
0.0
 10
1376.972800381767
 20
-48.42499501246402
 30
0.0
 10
1377.352338556713
 20
-51.84254497097106
 30
0.0
 10
1377.7176451086
 20
-55.13413484050478
 30
0.0
 10
1377.64192523806
 20
-58.49476955558607
 30
0.0
 10
1377.126354320387
 20
-61.83077482934114
 30
0.0
 10
1376.630749066419
 20
-65.04352529301323
 30
0.0
 10
1375.699872506471
 20
-68.20646239874043
 30
0.0
 10
1374.360165191236
 20
-71.23107723449255
 30
0.0
 10
1373.071046519617
 20
-74.14350121437943
 30
0.0
 10
1371.381438136521
 20
-76.8997630075784
 30
0.0
 10
1369.338742375113
 20
-79.42351435191254
 30
0.0
 10
1367.376975693667
 20
-81.84712640242732
 30
0.0
 10
1365.074859630784
 20
-84.02321298982675
 30
0.0
 10
1362.492532674142
 20
-85.89151525788024
 30
0.0
 10
1360.014586478041
 20
-87.68493967700367
 30
0.0
 10
1357.279450248891
 20
-89.15452668151069
 30
0.0
 10
1354.363290744885
 20
-90.25989251279935
 30
0.0
 10
1351.562471247802
 20
-91.32188299926783
 30
0.0
 10
1348.601259027951
 20
-92.01226939384867
 30
0.0
 10
1345.561783844878
 20
-92.31196258567932
 30
0.0
 10
1342.644578405622
 20
-92.60000559184378
 30
0.0
 10
1339.670093952547
 20
-92.49562890629778
 30
0.0
 10
1336.720285743763
 20
-92.0017242102652
 30
0.0
 10
1331.372896227937
 20
-91.10779379828251
 30
0.0
 10
1326.270344988953
 20
-88.85848566565677
 30
0.0
 10
1322.009257870399
 20
-85.50671280769497
 30
0.0
 10
1317.473154896816
 20
-81.93861236648158
 30
0.0
 10
1313.972353733661
 20
-77.1330973715943
 30
0.0
 10
1311.998482841501
 20
-71.7084599847334
 30
0.0
 10
1310.168705433674
 20
-66.67982362581024
 30
0.0
 10
1309.730798943068
 20
-61.17508980124038
 30
0.0
 10
1310.764545932642
 20
-55.92394481541601
 30
0.0
 10
1311.813400524652
 20
-50.59605744333538
 30
0.0
 10
1314.423248852203
 20
-45.58306567543752
 30
0.0
 10
1318.241925154081
 20
-41.71592276112506
 30
0.0
 10
1322.184458797578
 20
-37.72335050869466
 30
0.0
 10
1327.368648703836
 20
-35.00035131561383
 30
0.0
 10
1332.924973122824
 20
-34.15427177900916
 30
0.0
 10
1338.229556270774
 20
-33.34652570205952
 30
0.0
 10
1343.751928878116
 20
-34.2552840355533
 30
0.0
 10
1348.459565428726
 20
-36.85534417060072
 30
0.0
 10
1353.366803287707
 20
-39.56564548489403
 30
0.0
 10
1357.205467093984
 20
-44.04690104962557
 30
0.0
 10
1358.992364130022
 20
-49.37186829402106
 30
0.0
 10
1360.343867074706
 20
-53.39935771619464
 30
0.0
 10
1360.441402037268
 20
-57.82058817049661
 30
0.0
 10
1359.208924903778
 20
-61.88884047315437
 30
0.0
 10
1357.777269603153
 20
-66.61455490235001
 30
0.0
 10
1354.514174732848
 20
-70.77152106720833
 30
0.0
 10
1350.113277955385
 20
-73.06666801963102
 30
0.0
 10
1345.41774370403
 20
-75.51547372263548
 30
0.0
 10
1339.702182573203
 20
-75.73482552965254
 30
0.0
 10
1334.971741798727
 20
-73.24631536481301
 30
0.0
 10
1330.084465121244
 20
-70.67529962439401
 30
0.0
 10
1326.833619512064
 20
-65.18948240677244
 30
0.0
 10
1327.776281861267
 20
-59.62179314586822
 30
0.0
 10
1328.221642292315
 20
-56.99134069248052
 30
0.0
 10
1329.617908908926
 20
-54.51212962149344
 30
0.0
 10
1331.791204875155
 20
-52.93060337572365
 30
0.0
 10
1333.891723298796
 20
-51.40203797628948
 30
0.0
 10
1336.690656474868
 20
-50.76126287141164
 30
0.0
 10
1339.182408940886
 20
-51.66362039692504
 30
0.0
 10
1341.296711397069
 20
-52.42928904120961
 30
0.0
 10
1343.525654740375
 20
-54.78853433310802
 30
0.0
 10
1342.627163590782
 20
-57.20999183576111
 30
0.0
 10
1342.243588860116
 20
-58.24373591861895
 30
0.0
 10
1341.068297893274
 20
-58.88684952429726
 30
0.0
 10
1340.058025411624
 20
-59.17388065911315
 30
0.0
 10
1339.322678827203
 20
-59.38280188427027
 30
0.0
 10
1338.453779711318
 20
-59.40777939175102
 30
0.0
 10
1337.891268927499
 20
-59.99015464380631
 30
0.0
 10
1337.159524430092
 20
-60.74773991750003
 30
0.0
 10
1336.877566011395
 20
-62.04435500025492
 30
0.0
 10
1337.114039023908
 20
-63.05149880465017
 30
0.0
 10
1337.381724997788
 20
-64.19157930370032
 30
0.0
 10
1338.2356673876
 20
-65.14595743507722
 30
0.0
 10
1339.273125616864
 20
-65.65906774987025
 30
0.0
 10
1340.320028906128
 20
-66.17684944088977
 30
0.0
 10
1341.61767835846
 20
-66.23801212068074
 30
0.0
 10
1342.760349263529
 20
-66.10163790935275
 30
0.0
 10
1343.98303150435
 20
-65.9557145944614
 30
0.0
 10
1345.190593448345
 20
-65.50503931653991
 30
0.0
 10
1346.225974014855
 20
-64.84430910103681
 30
0.0
 10
1350.91670995244
 20
-61.85090641687617
 30
0.0
 10
1351.89589930737
 20
-55.49848964610299
 30
0.0
 10
1349.463485385529
 20
-50.73902597130964
 30
0.0
 10
1346.951690830999
 20
-45.82423953898966
 30
0.0
 10
1341.540726035018
 20
-43.06086936906683
 30
0.0
 10
1336.107457098742
 20
-43.28917666200833
 30
0.0
 10
1331.581627885601
 20
-43.47935311527885
 30
0.0
 10
1327.416684376552
 20
-45.63895397208078
 30
0.0
 10
1324.38072461314
 20
-48.94683042218149
 30
0.0
 10
1321.466158401974
 20
-52.12244066851996
 30
0.0
 10
1319.735864368025
 20
-56.54063969371665
 30
0.0
 10
1319.654733121932
 20
-60.84961248988544
 30
0.0
 10
1319.568107094193
 20
-65.45041939158565
 30
0.0
 10
1320.898095380044
 20
-69.94780790108008
 30
0.0
 10
1323.609019796901
 20
-73.69325392861947
 30
0.0
 10
1326.828856363176
 20
-78.14181914921292
 30
0.0
 10
1331.668656431126
 20
-81.24850676285322
 30
0.0
 10
1337.014641085614
 20
-82.45813706378341
 30
0.0
 10
1339.504265164831
 20
-83.0214616744553
 30
0.0
 10
1342.095728110593
 20
-83.18310870255556
 30
0.0
 10
1344.635888158075
 20
-82.93287959389436
 30
0.0
 10
1346.849642807977
 20
-82.71438423589919
 30
0.0
 10
1348.998074222599
 20
-82.214445038258
 30
0.0
 10
1351.021322208606
 20
-81.44730919515368
 30
0.0
 10
1353.1627980798
 20
-80.63565631377138
 30
0.0
 10
1355.162749399942
 20
-79.56242842259616
 30
0.0
 10
1356.966512993076
 20
-78.25664273584039
 30
0.0
 10
1358.875892123138
 20
-76.87359281700478
 30
0.0
 10
1360.573940759467
 20
-75.27115356660657
 30
0.0
 10
1362.012645176767
 20
-73.49307614467975
 30
0.0
 10
1363.534214298728
 20
-71.61446023084463
 30
0.0
 10
1364.788589573674
 20
-69.5696860714593
 30
0.0
 10
1365.741894919964
 20
-67.41600580310798
 30
0.0
 10
1368.121006517958
 20
-62.04308645506717
 30
0.0
 10
1368.736091576751
 20
-56.0068652652953
 30
0.0
 10
1367.574393590967
 20
-50.2524733677913
 30
0.0
 10
1367.240354879063
 20
-48.59783534589095
 30
0.0
 10
1366.764884329265
 20
-46.97150125356571
 30
0.0
 10
1366.14793137422
 20
-45.40010919517233
 30
0.0
 10
1365.171856308344
 20
-42.91110685100179
 30
0.0
 10
1363.888636079743
 20
-40.58525241520491
 30
0.0
 10
1362.334532692783
 20
-38.48603223253964
 30
0.0
 10
1360.703769197876
 20
-36.28500842777353
 30
0.0
 10
1358.814285076349
 20
-34.32683616531544
 30
0.0
 10
1356.718434701308
 20
-32.66660033260852
 30
0.0
 10
1353.27874035938
 20
-29.94201187761728
 30
0.0
 10
1349.295034247339
 20
-27.95623354475211
 30
0.0
 10
1345.053992542168
 20
-26.83252527682557
 30
0.0
 10
1343.874287278265
 20
-26.51995005335017
 30
0.0
 10
1342.676716051612
 20
-26.27454932703074
 30
0.0
 10
1341.468770491058
 20
-26.10032053174614
 30
0.0
 10
1338.568997345763
 20
-25.68140889695983
 30
0.0
 10
1335.655076403426
 20
-25.64286951656209
 30
0.0
 10
1332.808089684514
 20
-25.98501489797774
 30
0.0
 10
1329.834792545842
 20
-26.34335156970229
 30
0.0
 10
1326.948608233318
 20
-27.08037668081601
 30
0.0
 10
1324.230781998626
 20
-28.17545899649803
 30
0.0
 10
1321.39495119149
 20
-29.31754641443464
 30
0.0
 10
1318.74365001284
 20
-30.81121815007223
 30
0.0
 10
1316.350612234019
 20
-32.6155239592734
 30
0.0
 10
1313.858681231027
 20
-34.49261780333128
 30
0.0
 10
1311.641665427881
 20
-36.66983129295184
 30
0.0
 10
1309.760483176499
 20
-39.08557108779618
 30
0.0
 10
1307.802859084342
 20
-41.59991635991361
 30
0.0
 10
1306.195312549075
 20
-44.33412342196345
 30
0.0
 10
1304.982869454763
 20
-47.21199879660053
 30
0.0
 10
1303.72085235076
 20
-50.20808807669754
 30
0.0
 10
1302.862565071891
 20
-53.32810260242947
 30
0.0
 10
1302.431130819373
 20
-56.48601881193427
 30
0.0
 10
1301.982827985665
 20
-59.76917623438734
 30
0.0
 10
1301.96460735374
 20
-63.06953592862912
 30
0.0
 10
1302.377308097371
 20
-66.29539952264403
 30
0.0
 10
1302.805424441528
 20
-69.64687842695422
 30
0.0
 10
1303.662373206102
 20
-72.90085264470915
 30
0.0
 10
1304.922815913588
 20
-75.96807172920899
 30
0.0
 10
1306.232413363682
 20
-79.15179696536019
 30
0.0
 10
1307.936981625958
 20
-82.12741598649987
 30
0.0
 10
1309.989901704441
 20
-84.8116575948723
 30
0.0
 10
1312.120705438553
 20
-87.59766605193893
 30
0.0
 10
1314.585319086738
 20
-90.07321245459558
 30
0.0
 10
1317.315623033562
 20
-92.17072684667784
 30
0.0
 10
1320.147113812056
 20
-94.34574830488485
 30
0.0
 10
1323.226568539714
 20
-96.12904756431737
 30
0.0
 10
1326.468099839057
 20
-97.4701608955364
 30
0.0
 10
1329.82741267211
 20
-98.8598260358112
 30
0.0
 10
1333.326201466986
 20
-99.79851011559484
 30
0.0
 10
1336.868186492106
 20
-100.2593680414947
 30
0.0
 10
1340.535118134204
 20
-100.7367229720467
 30
0.0
 10
1344.221633995289
 20
-100.7342999034191
 30
0.0
 10
1347.826549692047
 20
-100.252032803806
 30
0.0
 10
1351.557035410789
 20
-99.75193550350298
 30
0.0
 10
1355.179138615102
 20
-98.77479674801288
 30
0.0
 10
1358.591514715481
 20
-97.3477977848343
 30
0.0
 10
1362.123000204615
 20
-95.87217665022905
 30
0.0
 10
1365.422828250171
 20
-93.95586484681591
 30
0.0
 10
1368.39918351241
 20
-91.65222670096999
 30
0.0
 10
1371.478136327984
 20
-89.2686413708181
 30
0.0
 10
1374.212415334905
 20
-86.51548171690165
 30
0.0
 10
1376.526702650589
 20
-83.46954547144888
 30
0.0
 10
1378.919276875882
 20
-80.3204316302691
 30
0.0
 10
1380.876925868209
 20
-76.89549403784781
 30
0.0
 10
1382.345971918363
 20
-73.29037748081616
 30
0.0
 10
1383.863693403352
 20
-69.56745748661704
 30
0.0
 10
1384.881574758175
 20
-65.69002444492463
 30
0.0
 10
1385.37150602667
 20
-61.76593027144251
 30
0.0
 10
1385.877966649786
 20
-57.71226726281083
 30
0.0
 10
1385.854395464192
 20
-53.63894956743383
 30
0.0
 10
1385.300533238717
 20
-49.6586863875912
 30
0.0
 10
1384.728757352442
 20
-45.54967280912391
 30
0.0
 10
1383.631446971985
 20
-41.55939611214254
 30
0.0
 10
1382.038575509379
 20
-37.79949923613736
 30
0.0
 10
1380.395144852245
 20
-33.92134994067427
 30
0.0
 10
1378.267422953924
 20
-30.29756505815893
 30
0.0
 10
1375.713213689096
 20
-27.02939637312734
 30
0.0
 10
1373.079770057677
 20
-23.65935138437418
 30
0.0
 10
1370.038181668755
 20
-20.66640900031133
 30
0.0
 10
1366.672683897621
 20
-18.13457109813556
 30
0.0
 10
1363.205920195895
 20
-15.52592267919557
 30
0.0
 10
1359.435965983318
 20
-13.39380384495097
 30
0.0
 10
1355.467353180816
 20
-11.79686180776795
 30
0.0
 10
1351.381481668469
 20
-10.15328168277273
 30
0.0
 10
1347.1247035939
 20
-9.056184707708308
 30
0.0
 10
1342.815949993718
 20
-8.535888104012828
 30
0.0
 10
1338.379573857833
 20
-8.001136183132282
 30
0.0
 10
1333.919957325428
 20
-8.046302644396857
 30
0.0
 10
1329.560037385502
 20
-8.671398436239423
 30
0.0
 10
1325.07335215516
 20
-9.315049977337255
 30
0.0
 10
1320.715773742508
 20
-10.53360008790482
 30
0.0
 10
1316.60906820939
 20
-12.29329418516055
 30
0.0
 10
1312.384126504421
 20
-14.10353334768984
 30
0.0
 10
1308.436616529596
 20
-16.44371933756606
 30
0.0
 10
1304.876333491501
 20
-19.2488755553606
 30
0.0
 10
1301.216168326749
 20
-22.13027643541022
 30
0.0
 10
1297.967680769315
 20
-25.46000735377358
 30
0.0
 10
1295.215312593355
 20
-29.1470871545577
 30
0.0
 10
1292.389842611743
 20
-32.93280694242881
 30
0.0
 10
1290.083119738796
 20
-37.04860784285345
 30
0.0
 10
1288.359849957953
 20
-41.37923897508541
 30
0.0
 10
1286.588803358629
 20
-45.82857563609505
 30
0.0
 10
1285.413096860561
 20
-50.46388632185754
 30
0.0
 10
1284.864668659085
 20
-55.15678357912468
 30
0.0
 10
1284.301061730957
 20
-59.97673400676173
 30
0.0
 10
1284.368558168313
 20
-64.82283797163777
 30
0.0
 10
1285.06474055739
 20
-69.56145816062491
 30
0.0
 10
1285.779862241668
 20
-74.4252831086194
 30
0.0
 10
1287.119938883363
 20
-79.14977115534813
 30
0.0
 10
1289.047242637501
 20
-83.60491224505563
 30
0.0
 10
1291.025311827609
 20
-88.17709915334241
 30
0.0
 10
1293.577749970242
 20
-92.44809050641557
 30
0.0
 10
1296.633415134153
 20
-96.29998422185896
 30
0.0
 10
1299.768470003449
 20
-100.2513078448591
 30
0.0
 10
1303.387228042103
 20
-103.7595078194334
 30
0.0
 10
1307.389363597433
 20
-106.7257546649255
 30
0.0
 10
1311.494194893237
 20
-109.768224932848
 30
0.0
 10
1315.95544262572
 20
-112.2491576653056
 30
0.0
 10
1320.649418797585
 20
-114.0994276758707
 30
0.0
 10
1325.46230392213
 20
-115.9965271664955
 30
0.0
 10
1330.476811273237
 20
-117.250950544989
 30
0.0
 10
1335.553424114789
 20
-117.8283962297525
 30
0.0
 10
1340.756919135773
 20
-118.4199708812236
 30
0.0
 10
1345.989427176752
 20
-118.3302454909027
 30
0.0
 10
1351.106156982968
 20
-117.5613785628156
 30
0.0
 10
1356.348716772834
 20
-116.7744553659874
 30
0.0
 10
1361.441380409831
 20
-115.3135204425162
 30
0.0
 10
1366.241946230532
 20
-113.2188854628627
 30
0.0
 10
1371.159643344531
 20
-111.0733536472525
 30
0.0
 10
1375.754431156128
 20
-108.3089600454351
 30
0.0
 10
1379.898057014847
 20
-105.0014818489046
 30
0.0
 10
1384.140742437001
 20
-101.609200532137
 30
0.0
 10
1387.91092671719
 20
-97.70100910010315
 30
0.0
 10
1391.089821692526
 20
-93.3861434196568
 30
0.0
 10
1394.347783337962
 20
-88.96348425961655
 30
0.0
 10
1397.002619323056
 20
-84.15637149408275
 30
0.0
 10
1398.979513729358
 20
-79.09874935230788
 30
0.0
 10
1401.003184677699
 20
-73.92363395923394
 30
0.0
 10
1402.33671631901
 20
-68.53044562940137
 30
0.0
 10
1402.942067512756
 20
-63.06877288915323
 30
0.0
 10
1403.561673396591
 20
-57.4795094092088
 30
0.0
 10
1403.449615911826
 20
-51.86054431261473
 30
0.0
 10
1402.610022755081
 20
-46.36782555106529
 30
0.0
 10
1401.749317174196
 20
-40.74582807716226
 30
0.0
 10
1400.166330119672
 20
-35.28591290720552
 30
0.0
 10
1397.90566234515
 20
-30.13990606640974
 30
0.0
 10
1395.593033824725
 20
-24.8762663956973
 30
0.0
 10
1392.615322782554
 20
-19.95860972039176
 30
0.0
 10
1389.056458227804
 20
-15.52282360409367
 30
0.0
 10
1385.417554063521
 20
-10.98817275036892
 30
0.0
 10
1381.220691068366
 20
-6.96521466579651
 30
0.0
 10
1376.582177752742
 20
-3.566301648792361
 30
0.0
 10
1371.840202940924
 20
-0.0918596611167482
 30
0.0
 10
1366.687921691698
 20
2.736800477701629
 30
0.0
 10
1361.267711813361
 20
4.84061177810001
 30
0.0
 10
1355.726759100721
 20
6.990342609750606
 30
0.0
 10
1349.954641162957
 20
8.401824655811062
 30
0.0
 10
1344.111078987346
 20
9.035898099920171
 30
0.0
 10
1338.139594785658
 20
9.683196238529812
 30
0.0
 10
1332.134350657891
 20
9.548733195509627
 30
0.0
 10
1326.261421340079
 20
8.636312026627808
 30
0.0
 10
1320.262715779574
 20
7.704197776225261
 30
0.0
 10
1314.436032247321
 20
6.000177994486826
 30
0.0
 10
1308.942230622983
 20
3.570802780280849
 30
0.0
 10
1303.332052190865
 20
1.090188132037457
 30
0.0
 10
1298.090636508897
 20
-2.099816751446963
 30
0.0
 10
1293.363602859884
 20
-5.910329723678641
 30
0.0
 10
1288.537000849079
 20
-9.80046694274779
 30
0.0
 10
1284.257914795749
 20
-14.28595074360482
 30
0.0
 10
1280.642394273225
 20
-19.24363348257289
 30
0.0
 10
1276.951940963969
 20
-24.30323201478261
 30
0.0
 10
1273.949720911288
 20
-29.80170748583901
 30
0.0
 10
1271.719371430575
 20
-35.58651560840207
 30
0.0
 10
1269.443115765665
 20
-41.48968657866691
 30
0.0
 10
1267.953293372364
 20
-47.64107322644596
 30
0.0
 10
1267.29147407776
 20
-53.86981327068123
 30
0.0
 10
1266.616281638128
 20
-60.22335148136874
 30
0.0
 10
1266.773160131957
 20
-66.61495164162793
 30
0.0
 10
1267.757856832202
 20
-72.86660307046093
 30
0.0
 10
1268.762623126406
 20
-79.2434465067002
 30
0.0
 10
1270.588585563419
 20
-85.4380760029213
 30
0.0
 10
1273.185790763708
 20
-91.2778102706727
 30
0.0
 10
1275.834241794584
 20
-97.23514277553174
 30
0.0
 10
1279.236849923056
 20
-102.7998201227518
 30
0.0
 10
1283.298860106935
 20
-107.8172055471729
 30
0.0
 10
1287.442328502274
 20
-112.9358745043838
 30
0.0
 10
1292.21729643318
 20
-117.4729344190022
 30
0.0
 10
1297.490938478956
 20
-121.3029460633537
 30
0.0
 10
1302.869081909066
 20
-125.2088949660729
 30
0.0
 10
1308.713761494508
 20
-128.3847519339319
 30
0.0
 10
1314.862414794922
 20
-130.7414955056264
 30
0.0
 10
1321.131370125989
 20
-133.1445704752681
 30
0.0
 10
1327.661112758919
 20
-134.7124711565477
 30
0.0
 10
1334.270895182522
 20
-135.4018089596851
 30
0.0
 10
1341.010419426073
 20
-136.1047578208164
 30
0.0
 10
1347.788803712374
 20
-135.9252342706239
 30
0.0
 10
1354.417008484475
 20
-134.8680650116684
 30
0.0
 10
1361.171159050306
 20
-133.7913976424385
 30
0.0
 10
1367.732953185613
 20
-131.8433159656088
 30
0.0
 10
1373.919391529104
 20
-129.0783803624596
 30
0.0
 10
1380.221986268171
 20
-126.2620831186442
 30
0.0
 10
1386.110029841264
 20
-122.6471232334446
 30
0.0
 10
1391.419821334922
 20
-118.3328280957378
 30
0.0
 10
1396.826787794462
 20
-113.939306510881
 30
0.0
 10
1401.621627997523
 20
-108.8745662297585
 30
0.0
 10
1405.670134707736
 20
-103.2805127847541
 30
0.0
 10
1409.791974823009
 20
-97.58427938964361
 30
0.0
 10
1413.141333090114
 20
-91.39402724876817
 30
0.0
 10
1415.624357739512
 20
-84.88205506962
 30
0.0
 10
1418.152469097166
 20
-78.25143396170265
 30
0.0
 10
1419.798192299967
 20
-71.34218809805456
 30
0.0
 10
1420.516233821524
 20
-64.3453105055842
 30
0.0
 10
1421.24664531113
 20
-57.22248116679302
 30
0.0
 10
1421.044541715741
 20
-50.05791251738996
 30
0.0
 10
1419.914913985828
 20
-43.05185808972168
 30
0.0
 10
1418.765747896981
 20
-35.92043502860714
 30
0.0
 10
1416.695900211666
 20
-28.99188244430367
 30
0.0
 10
1413.762951620592
 20
-22.45841507299667
 30
0.0
 10
1410.777949034695
 20
-15.80733889357795
 30
0.0
 10
1406.949743054609
 20
-9.596278809189876
 30
0.0
 10
1402.384742663386
 20
-3.997472800286586
 30
0.0
 10
1397.738063669252
 20
1.702082668082455
 30
0.0
 10
1392.384586710099
 20
6.753577838225505
 30
0.0
 10
1386.472826229833
 20
11.0166822869909
 30
0.0
 10
1380.456940199217
 20
15.35542306385393
 30
0.0
 10
1373.920786314129
 20
18.87793929142756
 30
0.0
 10
1367.046080211482
 20
21.48644111174247
 30
0.0
 10
1360.050930785656
 20
24.14143680604197
 30
0.0
 10
1352.762679011955
 20
25.8653294066433
 30
0.0
 10
1345.383751688683
 20
26.61001342303421
 30
0.0
 10
1337.874963855585
 20
27.36857623328051
 30
0.0
 10
1330.324507557398
 20
27.14355139301114
 30
0.0
 10
1322.941911797364
 20
25.94140447992801
 30
0.0
 10
1315.431691763013
 20
24.71932706407322
 30
0.0
 10
1308.135566930378
 20
22.52720541635545
 30
0.0
 10
1301.255997364619
 20
19.42662181044354
 30
0.0
 10
1294.259816491128
 20
16.27362466482274
 30
0.0
 10
1287.725964523601
 20
12.2327674168888
 30
0.0
 10
1281.835079515889
 20
7.415795033759307
 30
0.0
 10
1275.853024039195
 20
2.526472850860147
 30
0.0
 10
1270.542715068268
 20
-3.116933320191626
 30
0.0
 10
1266.057806102867
 20
-9.355635607742279
 30
0.0
 10
1261.503578905141
 20
-15.68971614323206
 30
0.0
 10
1257.80725197465
 20
-22.5719399251715
 30
0.0
 10
1255.07187710864
 20
-29.81079357583912
 30
0.0
 10
1252.291415555127
 20
-37.1689524352287
 30
0.0
 10
1250.489571151375
 20
-44.83659158806888
 30
0.0
 10
1249.716491338842
 20
-52.59994939019325
 30
0.0
 10
1248.930742067886
 20
-60.49048956132263
 30
0.0
 10
1249.178342017452
 20
-68.42741986192908
 30
0.0
 10
1250.452968667993
 20
-76.19018662876707
 30
0.0
 10
1251.748874351669
 20
-84.07874866195372
 30
0.0
 10
1254.062906837904
 20
-91.74196255151054
 30
0.0
 10
1257.330753861371
 20
-98.96727262773439
 30
0.0
 10
1260.651525175261
 20
-106.3090922686165
 30
0.0
 10
1264.905758498913
 20
-113.165847713415
 30
0.0
 10
1269.974438654836
 20
-119.3484422617492
 30
0.0
 10
1275.124432808391
 20
-125.6291357295357
 30
0.0
 10
1281.056729618612
 20
-131.194767322534
 30
0.0
 10
1287.606037686636
 20
-135.8895206365789
 30
0.0
 10
1294.259471305018
 20
-140.6599102787206
 30
0.0
 10
1301.487763543907
 20
-144.529193123435
 30
0.0
 10
1309.089469088001
 20
-147.3898855018721
 30
0.0
 10
1316.809447747626
 20
-150.2960199382465
 30
0.0
 10
1324.855934571181
 20
-152.1761142786174
 30
0.0
 10
1333.004879990274
 20
-152.9774111221559
 30
0.0
 10
1341.280238422896
 20
-153.7899349041304
 30
0.0
 10
1349.603430787125
 20
-153.5195161312106
 30
0.0
 10
1357.742966352782
 20
-152.1721724879532
 30
0.0
 10
1366.008851763163
 20
-150.8043515999961
 30
0.0
 10
1374.039047331464
 20
-148.3684160494419
 30
0.0
 10
1381.611762248743
 20
-144.932200688371
 30
0.0
 10
1389.300814341339
 20
-141.4424690481355
 30
0.0
 10
1396.480915506957
 20
-136.9753025707729
 30
0.0
 10
1402.95347894246
 20
-131.6551442891037
 30
0.0
 10
1409.518993049858
 20
-126.2620582859351
 30
0.0
 10
1415.340922141909
 20
-120.0406793613069
 30
0.0
 10
1420.257893216936
 20
-113.1637562384898
 30
0.0
 10
1425.243871680714
 20
-106.1910974204499
 30
0.0
 10
1429.286763182102
 20
-98.61656857196891
 30
0.0
 10
1432.27403335256
 20
-90.65188534882422
 30
0.0
 10
1435.306260167452
 20
-82.56604111112786
 30
0.0
 10
1437.263719978085
 20
-74.1404770528023
 30
0.0
 10
1438.091643068853
 20
-65.60949603215946
 30
0.0
 10
1438.932715971154
 20
-56.95057250113659
 30
0.0
 10
1438.638890622844
 20
-48.24122970891303
 30
0.0
 10
1437.218889279937
 20
-39.72341851249022
 30
0.0
 10
1435.77700975716
 20
-31.07702305547311
 30
0.0
 10
1433.21939153374
 20
-22.67931173510091
 30
0.0
 10
1429.6158662344
 20
-14.76414971801975
 30
0.0
 10
1425.958987048935
 20
-6.729884113278976
 30
0.0
 10
1421.278921332217
 20
0.7733925229197443
 30
0.0
 10
1415.705871978733
 20
7.53820588592343
 30
0.0
 10
1410.051522777618
 20
14.40044564082354
 30
0.0
 10
1403.540900640196
 20
20.47964499054508
 30
0.0
 10
1396.354279505111
 20
25.60656499558762
 30
0.0
 10
1389.063247458558
 20
30.80787445844015
 30
0.0
 10
1381.142986416902
 20
35.02372894904973
 30
0.0
 10
1372.814097751068
 20
38.13682310445795
 30
0.0
  0
ENDSEC
  0
SECTION
  2
OBJECTS
  0
DICTIONARY
  5
C
330
0
100
AcDbDictionary
281
     1
  3
ACAD_GROUP
350
D
  3
ACAD_LAYOUT
350
1A
  3
ACAD_MATERIAL
350
3B
  3
ACAD_MLEADERSTYLE
350
45
  3
ACAD_MLINESTYLE
350
17
  3
ACAD_PLOTSETTINGS
350
19
  3
ACAD_PLOTSTYLENAME
350
E
  3
ACAD_TABLESTYLE
350
44
  3
ACAD_VISUALSTYLE
350
2A
  0
SUN
  5
3F
330
29
100
AcDbSun
 90
        1
290
     0
 63
     7
421
 16777215
 40
1.0
291
     1
 91
  2455826
 92
 54000000
292
     0
 70
     2
 71
   256
280
     1
  0
DICTIONARY
  5
D
102
{ACAD_REACTORS
330
C
102
}
330
C
100
AcDbDictionary
281
     1
  0
DICTIONARY
  5
1A
102
{ACAD_REACTORS
330
C
102
}
330
C
100
AcDbDictionary
281
     1
  3
Layout1
350
1E
  3
Layout2
350
26
  3
Model
350
22
  0
DICTIONARY
  5
3B
102
{ACAD_REACTORS
330
C
102
}
330
C
100
AcDbDictionary
281
     1
  3
ByBlock
350
3D
  3
ByLayer
350
3C
  3
Global
350
3E
  0
DICTIONARY
  5
45
102
{ACAD_REACTORS
330
C
102
}
330
C
100
AcDbDictionary
281
     1
  0
DICTIONARY
  5
17
102
{ACAD_REACTORS
330
C
102
}
330
C
100
AcDbDictionary
281
     1
  3
Standard
350
18
  0
DICTIONARY
  5
19
102
{ACAD_REACTORS
330
C
102
}
330
C
100
AcDbDictionary
281
     1
  0
ACDBDICTIONARYWDFLT
  5
E
102
{ACAD_REACTORS
330
C
102
}
330
C
100
AcDbDictionary
281
     1
  3
Normal
350
F
100
AcDbDictionaryWithDefault
340
F
  0
DICTIONARY
  5
44
102
{ACAD_REACTORS
330
C
102
}
330
C
100
AcDbDictionary
281
     1
  0
DICTIONARY
  5
2A
102
{ACAD_REACTORS
330
C
102
}
330
C
100
AcDbDictionary
281
     1
  3
2dWireframe
350
2F
  3
3D Hidden
350
31
  3
3dWireframe
350
30
  3
Basic
350
32
  3
Brighten
350
36
  3
ColorChange
350
3A
  3
Conceptual
350
34
  3
Dim
350
35
  3
Facepattern
350
39
  3
Flat
350
2B
  3
FlatWithEdges
350
2C
  3
Gouraud
350
2D
  3
GouraudWithEdges
350
2E
  3
Linepattern
350
38
  3
Realistic
350
33
  3
Thicken
350
37
  0
LAYOUT
  5
1E
102
{ACAD_REACTORS
330
1A
102
}
330
1A
100
AcDbPlotSettings
  1

  2
none_device
  4

  6

 40
0.0
 41
0.0
 42
0.0
 43
0.0
 44
0.0
 45
0.0
 46
0.0
 47
0.0
 48
0.0
 49
0.0
140
0.0
141
0.0
142
1.0
143
1.0
 70
   688
 72
     0
 73
     0
 74
     5
  7

 75
    16
 76
     0
 77
     2
 78
   300
147
1.0
148
0.0
149
0.0
100
AcDbLayout
  1
Layout1
 70
     1
 71
     1
 10
0.0
 20
0.0
 11
12.0
 21
9.0
 12
0.0
 22
0.0
 32
0.0
 14
1.000000000000000E+20
 24
1.000000000000000E+20
 34
1.000000000000000E+20
 15
-1.000000000000000E+20
 25
-1.000000000000000E+20
 35
-1.000000000000000E+20
146
0.0
 13
0.0
 23
0.0
 33
0.0
 16
1.0
 26
0.0
 36
0.0
 17
0.0
 27
1.0
 37
0.0
 76
     0
330
1B
  0
LAYOUT
  5
26
102
{ACAD_REACTORS
330
1A
102
}
330
1A
100
AcDbPlotSettings
  1

  2
none_device
  4

  6

 40
0.0
 41
0.0
 42
0.0
 43
0.0
 44
0.0
 45
0.0
 46
0.0
 47
0.0
 48
0.0
 49
0.0
140
0.0
141
0.0
142
1.0
143
1.0
 70
   688
 72
     0
 73
     0
 74
     5
  7

 75
    16
 76
     0
 77
     2
 78
   300
147
1.0
148
0.0
149
0.0
100
AcDbLayout
  1
Layout2
 70
     1
 71
     2
 10
0.0
 20
0.0
 11
0.0
 21
0.0
 12
0.0
 22
0.0
 32
0.0
 14
0.0
 24
0.0
 34
0.0
 15
0.0
 25
0.0
 35
0.0
146
0.0
 13
0.0
 23
0.0
 33
0.0
 16
1.0
 26
0.0
 36
0.0
 17
0.0
 27
1.0
 37
0.0
 76
     0
330
23
  0
LAYOUT
  5
22
102
{ACAD_REACTORS
330
1A
102
}
330
1A
100
AcDbPlotSettings
  1

  2
none_device
  4

  6

 40
0.0
 41
0.0
 42
0.0
 43
0.0
 44
0.0
 45
0.0
 46
0.0
 47
0.0
 48
0.0
 49
0.0
140
0.0
141
0.0
142
1.0
143
1.0
 70
  1712
 72
     0
 73
     0
 74
     0
  7

 75
     0
 76
     0
 77
     2
 78
   300
147
1.0
148
0.0
149
0.0
100
AcDbLayout
  1
Model
 70
     1
 71
     0
 10
0.0
 20
0.0
 11
12.0
 21
9.0
 12
0.0
 22
0.0
 32
0.0
 14
1.000000000000000E+20
 24
1.000000000000000E+20
 34
1.000000000000000E+20
 15
-1.000000000000000E+20
 25
-1.000000000000000E+20
 35
-1.000000000000000E+20
146
0.0
 13
0.0
 23
0.0
 33
0.0
 16
1.0
 26
0.0
 36
0.0
 17
0.0
 27
1.0
 37
0.0
 76
     0
330
1F
331
29
  0
MATERIAL
  5
3D
102
{ACAD_REACTORS
330
3B
102
}
330
3B
100
AcDbMaterial
  1
ByBlock
 72
     1
 94
      127
  0
MATERIAL
  5
3C
102
{ACAD_REACTORS
330
3B
102
}
330
3B
100
AcDbMaterial
  1
ByLayer
 72
     1
 94
      127
  0
MATERIAL
  5
3E
102
{ACAD_REACTORS
330
3B
102
}
330
3B
100
AcDbMaterial
  1
Global
 72
     1
 94
      127
  0
MLINESTYLE
  5
18
102
{ACAD_REACTORS
330
17
102
}
330
17
100
AcDbMlineStyle
  2
Standard
 70
     0
  3

 62
   256
 51
90.0
 52
90.0
 71
     2
 49
0.5
 62
   256
  6
BYLAYER
 49
-0.5
 62
   256
  6
BYLAYER
  0
ACDBPLACEHOLDER
  5
F
102
{ACAD_REACTORS
330
E
102
}
330
E
  0
VISUALSTYLE
  5
2F
102
{ACAD_REACTORS
330
2A
102
}
330
2A
100
AcDbVisualStyle
  2
2dWireframe
 70
     4
177
     2
291
     0
 71
     0
176
     1
 72
     2
176
     1
 73
     0
176
     1
 90
        0
176
     1
 40
-0.6
176
     1
 41
-30.0
176
     1
 62
     5
 63
     7
421
 16777215
176
     1
 74
     1
176
     1
 91
        4
176
     1
 64
     7
176
     1
 65
   257
176
     1
 75
     1
176
     1
175
     1
176
     1
 42
1.0
176
     1
 92
        0
176
     1
 66
   257
176
     1
 43
1.0
176
     1
 76
     1
176
     1
 77
     6
176
     1
 78
     2
176
     1
 67
     7
176
     1
 79
     5
176
     1
170
     0
176
     1
171
     0
176
     1
290
     0
176
     1
 93
        1
176
     1
 44
0.0
176
     1
173
     0
176
     1
  0
VISUALSTYLE
  5
31
102
{ACAD_REACTORS
330
2A
102
}
330
2A
100
AcDbVisualStyle
  2
3D Hidden
 70
     6
177
     2
291
     0
 71
     1
176
     1
 72
     2
176
     1
 73
     2
176
     1
 90
        0
176
     1
 40
-0.6
176
     1
 41
-30.0
176
     1
 62
     5
 63
     7
421
 16777215
176
     1
 74
     2
176
     1
 91
        2
176
     1
 64
     7
176
     1
 65
   257
176
     1
 75
     2
176
     1
175
     1
176
     1
 42
40.0
176
     1
 92
        0
176
     1
 66
   257
176
     1
 43
1.0
176
     1
 76
     1
176
     1
 77
     6
176
     1
 78
     2
176
     1
 67
     7
176
     1
 79
     3
176
     1
170
     0
176
     1
171
     0
176
     1
290
     0
176
     1
 93
        1
176
     1
 44
0.0
176
     1
173
     0
176
     1
  0
VISUALSTYLE
  5
30
102
{ACAD_REACTORS
330
2A
102
}
330
2A
100
AcDbVisualStyle
  2
3dWireframe
 70
     5
177
     2
291
     0
 71
     0
176
     1
 72
     2
176
     1
 73
     0
176
     1
 90
        0
176
     1
 40
-0.6
176
     1
 41
-30.0
176
     1
 62
     5
 63
     7
421
 16777215
176
     1
 74
     1
176
     1
 91
        4
176
     1
 64
     7
176
     1
 65
   257
176
     1
 75
     1
176
     1
175
     1
176
     1
 42
1.0
176
     1
 92
        0
176
     1
 66
   257
176
     1
 43
1.0
176
     1
 76
     1
176
     1
 77
     6
176
     1
 78
     2
176
     1
 67
     7
176
     1
 79
     5
176
     1
170
     0
176
     1
171
     0
176
     1
290
     0
176
     1
 93
        1
176
     1
 44
0.0
176
     1
173
     0
176
     1
  0
VISUALSTYLE
  5
32
102
{ACAD_REACTORS
330
2A
102
}
330
2A
100
AcDbVisualStyle
  2
Basic
 70
     7
177
     2
291
     1
 71
     1
176
     1
 72
     0
176
     1
 73
     1
176
     1
 90
        0
176
     1
 40
-0.6
176
     1
 41
-30.0
176
     1
 62
     5
 63
     7
421
 16777215
176
     1
 74
     0
176
     1
 91
        4
176
     1
 64
     7
176
     1
 65
   257
176
     1
 75
     1
176
     1
175
     1
176
     1
 42
1.0
176
     1
 92
        8
176
     1
 66
     7
176
     1
 43
1.0
176
     1
 76
     1
176
     1
 77
     6
176
     1
 78
     2
176
     1
 67
     7
176
     1
 79
     5
176
     1
170
     0
176
     1
171
     0
176
     1
290
     0
176
     1
 93
        1
176
     1
 44
0.0
176
     1
173
     0
176
     1
  0
VISUALSTYLE
  5
36
102
{ACAD_REACTORS
330
2A
102
}
330
2A
100
AcDbVisualStyle
  2
Brighten
 70
    12
177
     2
291
     1
 71
     2
176
     1
 72
     2
176
     1
 73
     0
176
     1
 90
        0
176
     1
 40
-0.6
176
     1
 41
-30.0
176
     1
 62
     5
 63
     7
421
 16777215
176
     1
 74
     1
176
     1
 91
        4
176
     1
 64
     7
176
     1
 65
   257
176
     1
 75
     1
176
     1
175
     1
176
     1
 42
1.0
176
     1
 92
        8
176
     1
 66
     7
176
     1
 43
1.0
176
     1
 76
     1
176
     1
 77
     6
176
     1
 78
     2
176
     1
 67
     7
176
     1
 79
     5
176
     1
170
     0
176
     1
171
     0
176
     1
290
     0
176
     1
 93
        1
176
     1
 44
50.0
176
     1
173
     0
176
     1
  0
VISUALSTYLE
  5
3A
102
{ACAD_REACTORS
330
2A
102
}
330
2A
100
AcDbVisualStyle
  2
ColorChange
 70
    16
177
     2
291
     1
 71
     2
176
     1
 72
     2
176
     1
 73
     3
176
     1
 90
        0
176
     1
 40
-0.6
176
     1
 41
-30.0
176
     1
 62
     5
 63
     8
421
  8421504
176
     1
 74
     1
176
     1
 91
        4
176
     1
 64
     7
176
     1
 65
   257
176
     1
 75
     1
176
     1
175
     1
176
     1
 42
1.0
176
     1
 92
        8
176
     1
 66
     8
424
  8421504
176
     1
 43
1.0
176
     1
 76
     1
176
     1
 77
     6
176
     1
 78
     2
176
     1
 67
     7
176
     1
 79
     5
176
     1
170
     0
176
     1
171
     0
176
     1
290
     0
176
     1
 93
        1
176
     1
 44
0.0
176
     1
173
     0
176
     1
  0
VISUALSTYLE
  5
34
102
{ACAD_REACTORS
330
2A
102
}
330
2A
100
AcDbVisualStyle
  2
Conceptual
 70
     9
177
     2
291
     0
 71
     3
176
     1
 72
     2
176
     1
 73
     0
176
     1
 90
        0
176
     1
 40
-0.6
176
     1
 41
-30.0
176
     1
 62
     5
 63
     7
421
 16777215
176
     1
 74
     2
176
     1
 91
        2
176
     1
 64
     7
176
     1
 65
   257
176
     1
 75
     1
176
     1
175
     1
176
     1
 42
40.0
176
     1
 92
        8
176
     1
 66
     7
176
     1
 43
1.0
176
     1
 76
     1
176
     1
 77
     6
176
     1
 78
     2
176
     1
 67
     7
176
     1
 79
     3
176
     1
170
     0
176
     1
171
     0
176
     1
290
     0
176
     1
 93
        1
176
     1
 44
0.0
176
     1
173
     0
176
     1
  0
VISUALSTYLE
  5
35
102
{ACAD_REACTORS
330
2A
102
}
330
2A
100
AcDbVisualStyle
  2
Dim
 70
    11
177
     2
291
     1
 71
     2
176
     1
 72
     2
176
     1
 73
     0
176
     1
 90
        0
176
     1
 40
-0.6
176
     1
 41
-30.0
176
     1
 62
     5
 63
     7
421
 16777215
176
     1
 74
     1
176
     1
 91
        4
176
     1
 64
     7
176
     1
 65
   257
176
     1
 75
     1
176
     1
175
     1
176
     1
 42
1.0
176
     1
 92
        8
176
     1
 66
     7
176
     1
 43
1.0
176
     1
 76
     1
176
     1
 77
     6
176
     1
 78
     2
176
     1
 67
     7
176
     1
 79
     5
176
     1
170
     0
176
     1
171
     0
176
     1
290
     0
176
     1
 93
        1
176
     1
 44
-50.0
176
     1
173
     0
176
     1
  0
VISUALSTYLE
  5
39
102
{ACAD_REACTORS
330
2A
102
}
330
2A
100
AcDbVisualStyle
  2
Facepattern
 70
    15
177
     2
291
     1
 71
     2
176
     1
 72
     2
176
     1
 73
     0
176
     1
 90
        0
176
     1
 40
-0.6
176
     1
 41
-30.0
176
     1
 62
     5
 63
     7
421
 16777215
176
     1
 74
     1
176
     1
 91
        4
176
     1
 64
     7
176
     1
 65
   257
176
     1
 75
     1
176
     1
175
     1
176
     1
 42
1.0
176
     1
 92
        8
176
     1
 66
     7
176
     1
 43
1.0
176
     1
 76
     1
176
     1
 77
     6
176
     1
 78
     2
176
     1
 67
     7
176
     1
 79
     5
176
     1
170
     0
176
     1
171
     0
176
     1
290
     0
176
     1
 93
        1
176
     1
 44
0.0
176
     1
173
     0
176
     1
  0
VISUALSTYLE
  5
2B
102
{ACAD_REACTORS
330
2A
102
}
330
2A
100
AcDbVisualStyle
  2
Flat
 70
     0
177
     2
291
     1
 71
     2
176
     1
 72
     1
176
     1
 73
     1
176
     1
 90
        2
176
     1
 40
-0.6
176
     1
 41
30.0
176
     1
 62
     5
 63
     7
421
 16777215
176
     1
 74
     0
176
     1
 91
        4
176
     1
 64
     7
176
     1
 65
   257
176
     1
 75
     1
176
     1
175
     1
176
     1
 42
1.0
176
     1
 92
        8
176
     1
 66
     7
176
     1
 43
1.0
176
     1
 76
     1
176
     1
 77
     6
176
     1
 78
     2
176
     1
 67
     7
176
     1
 79
     5
176
     1
170
     0
176
     1
171
     0
176
     1
290
     0
176
     1
 93
       13
176
     1
 44
0.0
176
     1
173
     0
176
     1
  0
VISUALSTYLE
  5
2C
102
{ACAD_REACTORS
330
2A
102
}
330
2A
100
AcDbVisualStyle
  2
FlatWithEdges
 70
     1
177
     2
291
     1
 71
     2
176
     1
 72
     1
176
     1
 73
     1
176
     1
 90
        2
176
     1
 40
-0.6
176
     1
 41
30.0
176
     1
 62
     5
 63
     7
421
 16777215
176
     1
 74
     1
176
     1
 91
        4
176
     1
 64
     7
176
     1
 65
   257
176
     1
 75
     1
176
     1
175
     1
176
     1
 42
1.0
176
     1
 92
        0
176
     1
 66
   257
176
     1
 43
1.0
176
     1
 76
     1
176
     1
 77
     6
176
     1
 78
     2
176
     1
 67
     7
176
     1
 79
     5
176
     1
170
     0
176
     1
171
     0
176
     1
290
     0
176
     1
 93
       13
176
     1
 44
0.0
176
     1
173
     0
176
     1
  0
VISUALSTYLE
  5
2D
102
{ACAD_REACTORS
330
2A
102
}
330
2A
100
AcDbVisualStyle
  2
Gouraud
 70
     2
177
     2
291
     1
 71
     2
176
     1
 72
     2
176
     1
 73
     1
176
     1
 90
        2
176
     1
 40
-0.6
176
     1
 41
30.0
176
     1
 62
     5
 63
     7
421
 16777215
176
     1
 74
     0
176
     1
 91
        4
176
     1
 64
     7
176
     1
 65
   257
176
     1
 75
     1
176
     1
175
     1
176
     1
 42
1.0
176
     1
 92
        0
176
     1
 66
     7
176
     1
 43
1.0
176
     1
 76
     1
176
     1
 77
     6
176
     1
 78
     2
176
     1
 67
     7
176
     1
 79
     5
176
     1
170
     0
176
     1
171
     0
176
     1
290
     0
176
     1
 93
       13
176
     1
 44
0.0
176
     1
173
     0
176
     1
  0
VISUALSTYLE
  5
2E
102
{ACAD_REACTORS
330
2A
102
}
330
2A
100
AcDbVisualStyle
  2
GouraudWithEdges
 70
     3
177
     2
291
     1
 71
     2
176
     1
 72
     2
176
     1
 73
     1
176
     1
 90
        2
176
     1
 40
-0.6
176
     1
 41
30.0
176
     1
 62
     5
 63
     7
421
 16777215
176
     1
 74
     1
176
     1
 91
        4
176
     1
 64
     7
176
     1
 65
   257
176
     1
 75
     1
176
     1
175
     1
176
     1
 42
1.0
176
     1
 92
        0
176
     1
 66
   257
176
     1
 43
1.0
176
     1
 76
     1
176
     1
 77
     6
176
     1
 78
     2
176
     1
 67
     7
176
     1
 79
     5
176
     1
170
     0
176
     1
171
     0
176
     1
290
     0
176
     1
 93
       13
176
     1
 44
0.0
176
     1
173
     0
176
     1
  0
VISUALSTYLE
  5
38
102
{ACAD_REACTORS
330
2A
102
}
330
2A
100
AcDbVisualStyle
  2
Linepattern
 70
    14
177
     2
291
     1
 71
     2
176
     1
 72
     2
176
     1
 73
     0
176
     1
 90
        0
176
     1
 40
-0.6
176
     1
 41
-30.0
176
     1
 62
     5
 63
     7
421
 16777215
176
     1
 74
     1
176
     1
 91
        4
176
     1
 64
     7
176
     1
 65
   257
176
     1
 75
     7
176
     1
175
     7
176
     1
 42
1.0
176
     1
 92
        8
176
     1
 66
     7
176
     1
 43
1.0
176
     1
 76
     1
176
     1
 77
     6
176
     1
 78
     2
176
     1
 67
     7
176
     1
 79
     5
176
     1
170
     0
176
     1
171
     0
176
     1
290
     0
176
     1
 93
        1
176
     1
 44
0.0
176
     1
173
     0
176
     1
  0
VISUALSTYLE
  5
33
102
{ACAD_REACTORS
330
2A
102
}
330
2A
100
AcDbVisualStyle
  2
Realistic
 70
     8
177
     2
291
     0
 71
     2
176
     1
 72
     2
176
     1
 73
     0
176
     1
 90
        0
176
     1
 40
-0.6
176
     1
 41
-30.0
176
     1
 62
     5
 63
     7
421
 16777215
176
     1
 74
     1
176
     1
 91
        0
176
     1
 64
     7
176
     1
 65
   257
176
     1
 75
     1
176
     1
175
     1
176
     1
 42
1.0
176
     1
 92
        8
176
     1
 66
     8
424
  7895160
176
     1
 43
1.0
176
     1
 76
     1
176
     1
 77
     6
176
     1
 78
     2
176
     1
 67
     7
176
     1
 79
     5
176
     1
170
     0
176
     1
171
     0
176
     1
290
     0
176
     1
 93
       13
176
     1
 44
0.0
176
     1
173
     0
176
     1
  0
VISUALSTYLE
  5
37
102
{ACAD_REACTORS
330
2A
102
}
330
2A
100
AcDbVisualStyle
  2
Thicken
 70
    13
177
     2
291
     1
 71
     2
176
     1
 72
     2
176
     1
 73
     0
176
     1
 90
        0
176
     1
 40
-0.6
176
     1
 41
-30.0
176
     1
 62
     5
 63
     7
421
 16777215
176
     1
 74
     1
176
     1
 91
        4
176
     1
 64
     7
176
     1
 65
   257
176
     1
 75
     1
176
     1
175
     1
176
     1
 42
1.0
176
     1
 92
       12
176
     1
 66
     7
176
     1
 43
1.0
176
     1
 76
     1
176
     1
 77
     6
176
     1
 78
     2
176
     1
 67
     7
176
     1
 79
     5
176
     1
170
     0
176
     1
171
     0
176
     1
290
     0
176
     1
 93
        1
176
     1
 44
0.0
176
     1
173
     0
176
     1
  0
ENDSEC
  0
EOF
