<?xml version="1.0" encoding="UTF-8" standalone="no"?>
<svg
   height="467.80mm"
   viewBox="0.0 0.0 613.40 467.80"
   width="613.40mm"
   version="1.1"
   id="svg99"
   sodipodi:docname="!20260317 - Teste de Espessura.svg"
   inkscape:version="1.4.2 (ebf0e94, 2025-05-08)"
   xmlns:inkscape="http://www.inkscape.org/namespaces/inkscape"
   xmlns:sodipodi="http://sodipodi.sourceforge.net/DTD/sodipodi-0.dtd"
   xmlns="http://www.w3.org/2000/svg"
   xmlns:svg="http://www.w3.org/2000/svg"
   xmlns:rdf="http://www.w3.org/1999/02/22-rdf-syntax-ns#"
   xmlns:cc="http://creativecommons.org/ns#"
   xmlns:dc="http://purl.org/dc/elements/1.1/">
  <defs
     id="defs99" />
  <sodipodi:namedview
     id="namedview99"
     pagecolor="#ffffff"
     bordercolor="#000000"
     borderopacity="0.25"
     inkscape:showpageshadow="2"
     inkscape:pageopacity="0.0"
     inkscape:pagecheckerboard="0"
     inkscape:deskcolor="#d1d1d1"
     inkscape:document-units="mm"
     showguides="true"
     inkscape:zoom="0.91286343"
     inkscape:cx="46.009073"
     inkscape:cy="150.62494"
     inkscape:window-width="1920"
     inkscape:window-height="1009"
     inkscape:window-x="-8"
     inkscape:window-y="-8"
     inkscape:window-maximized="1"
     inkscape:current-layer="g41"
     showgrid="true">
    <sodipodi:guide
       position="271.86889,20.868401"
       orientation="-1,0"
       id="guide100"
       inkscape:locked="false"
       inkscape:label=""
       inkscape:color="rgb(0,134,229)" />
    <sodipodi:guide
       position="275.19999,111.59999"
       orientation="0,1"
       id="guide101"
       inkscape:locked="false"
       inkscape:label=""
       inkscape:color="rgb(0,134,229)" />
    <inkscape:grid
       id="grid1"
       units="mm"
       originx="0"
       originy="0"
       spacingx="0.99999996"
       spacingy="1"
       empcolor="#0099e5"
       empopacity="0.30196078"
       color="#0099e5"
       opacity="0.14901961"
       empspacing="5"
       enabled="true"
       visible="true" />
  </sodipodi:namedview>
  <!--
BasedBox - Fully closed box on a base


This box is more of a building block than a finished item.
Use a vector graphics program (like Inkscape) to add holes or adjust the base
plate. The width of the "brim" can also be adjusted with the **edge_width**
 parameter in the **Finger Joints Settings**.

See ClosedBox for variant without a base.



Created with Boxes.py (https://boxes.hackerspace-bamberg.de/)
Creation date: 2026-03-17 19:41:16
Command line (remove spaces between dashes): boxes BasedBox - -FingerJoint_edge_width=3 - -x=250 - -y=340 - -h=35 - -spacing=1
Url: https://boxes.hackerspace-bamberg.de/BasedBox?FingerJoint_style=rectangular&FingerJoint_surroundingspaces=2.0&FingerJoint_bottom_lip=0.0&FingerJoint_edge_width=3&FingerJoint_extra_length=0.0&FingerJoint_finger=2.0&FingerJoint_play=0.0&FingerJoint_space=2.0&FingerJoint_width=1.0&x=250&y=340&h=35&outside=0&outside=1&thickness=3.0&burn=0.1&format=svg&labels=0&labels=1&reference=100.0&tabs=0.0&qr_code=0&inner_corners=loop&spacing=1&debug=0&language=en&render=2
Url short: https://boxes.hackerspace-bamberg.de/BasedBox?FingerJoint_edge_width=3&x=250&y=340&h=35&spacing=1
SettingsUrl: https://boxes.hackerspace-bamberg.de/BasedBox?FingerJoint_style=rectangular&FingerJoint_surroundingspaces=2.0&FingerJoint_bottom_lip=0.0&FingerJoint_edge_width=3&FingerJoint_extra_length=0.0&FingerJoint_finger=2.0&FingerJoint_play=0.0&FingerJoint_space=2.0&FingerJoint_width=1.0&x=250&y=340&h=35&outside=0&outside=1&thickness=3.0&burn=0.1&format=svg&labels=0&labels=1&reference=100.0&tabs=0.0&qr_code=0&inner_corners=loop&spacing=1&debug=0&language=en&render=2
SettingsUrl short: https://boxes.hackerspace-bamberg.de/BasedBox?FingerJoint_edge_width=3&x=250&y=340&h=35&spacing=1
-->
  <title
     id="title1">BasedBox</title>
  <metadata
     id="metadata1">
    <rdf:RDF>
      <cc:Work>
        <dc:title>BasedBox</dc:title>
        <dc:date>2026-03-17 19:41:16</dc:date>
        <dc:source>https://boxes.hackerspace-bamberg.de/BasedBox?FingerJoint_style=rectangular&amp;FingerJoint_surroundingspaces=2.0&amp;FingerJoint_bottom_lip=0.0&amp;FingerJoint_edge_width=3&amp;FingerJoint_extra_length=0.0&amp;FingerJoint_finger=2.0&amp;FingerJoint_play=0.0&amp;FingerJoint_space=2.0&amp;FingerJoint_width=1.0&amp;x=250&amp;y=340&amp;h=35&amp;outside=0&amp;outside=1&amp;thickness=3.0&amp;burn=0.1&amp;format=svg&amp;labels=0&amp;labels=1&amp;reference=100.0&amp;tabs=0.0&amp;qr_code=0&amp;inner_corners=loop&amp;spacing=1&amp;debug=0&amp;language=en&amp;render=2</dc:source>
        <dc:source>https://boxes.hackerspace-bamberg.de/BasedBox?FingerJoint_edge_width=3&amp;x=250&amp;y=340&amp;h=35&amp;spacing=1</dc:source>
        <dc:description>Fully closed box on a base

This box is more of a building block than a finished item.
Use a vector graphics program (like Inkscape) to add holes or adjust the base
plate. The width of the &quot;brim&quot; can also be adjusted with the **edge_width**
 parameter in the **Finger Joints Settings**.

See ClosedBox for variant without a base.


Created with Boxes.py (https://boxes.hackerspace-bamberg.de/)
Command line: boxes BasedBox --FingerJoint_style=rectangular --FingerJoint_surroundingspaces=2.0 --FingerJoint_bottom_lip=0.0 --FingerJoint_edge_width=3 --FingerJoint_extra_length=0.0 --FingerJoint_finger=2.0 --FingerJoint_play=0.0 --FingerJoint_space=2.0 --FingerJoint_width=1.0 --x=250 --y=340 --h=35 --outside=0 --outside=1 --thickness=3.0 --burn=0.1 --format=svg --labels=0 --labels=1 --reference=100.0 --tabs=0.0 --qr_code=0 --inner_corners=loop --spacing=1 --debug=0
Command line short: boxes BasedBox --FingerJoint_edge_width=3 --x=250 --y=340 --h=35 --spacing=1
Url: https://boxes.hackerspace-bamberg.de/BasedBox?FingerJoint_style=rectangular&amp;FingerJoint_surroundingspaces=2.0&amp;FingerJoint_bottom_lip=0.0&amp;FingerJoint_edge_width=3&amp;FingerJoint_extra_length=0.0&amp;FingerJoint_finger=2.0&amp;FingerJoint_play=0.0&amp;FingerJoint_space=2.0&amp;FingerJoint_width=1.0&amp;x=250&amp;y=340&amp;h=35&amp;outside=0&amp;outside=1&amp;thickness=3.0&amp;burn=0.1&amp;format=svg&amp;labels=0&amp;labels=1&amp;reference=100.0&amp;tabs=0.0&amp;qr_code=0&amp;inner_corners=loop&amp;spacing=1&amp;debug=0&amp;language=en&amp;render=2
Url short: https://boxes.hackerspace-bamberg.de/BasedBox?FingerJoint_edge_width=3&amp;x=250&amp;y=340&amp;h=35&amp;spacing=1
SettingsUrl: https://boxes.hackerspace-bamberg.de/BasedBox?FingerJoint_style=rectangular&amp;FingerJoint_surroundingspaces=2.0&amp;FingerJoint_bottom_lip=0.0&amp;FingerJoint_edge_width=3&amp;FingerJoint_extra_length=0.0&amp;FingerJoint_finger=2.0&amp;FingerJoint_play=0.0&amp;FingerJoint_space=2.0&amp;FingerJoint_width=1.0&amp;x=250&amp;y=340&amp;h=35&amp;outside=0&amp;outside=1&amp;thickness=3.0&amp;burn=0.1&amp;format=svg&amp;labels=0&amp;labels=1&amp;reference=100.0&amp;tabs=0.0&amp;qr_code=0&amp;inner_corners=loop&amp;spacing=1&amp;debug=0&amp;language=en&amp;render=2
SettingsUrl short: https://boxes.hackerspace-bamberg.de/BasedBox?FingerJoint_edge_width=3&amp;x=250&amp;y=340&amp;h=35&amp;spacing=1
</dc:description>
      </cc:Work>
    </rdf:RDF>
  </metadata>
  <g
     inkscape:groupmode="layer"
     id="layer1"
     inkscape:label="Cut Marks"
     style="display:inline" />
  <g
     inkscape:groupmode="layer"
     id="layer2"
     inkscape:label="Base">
    <g
       id="p-0"
       style="fill:none;stroke-linecap:round;stroke-linejoin:round"
       transform="translate(-22.954063,-314.53994)">
      <path
         d="m 10.1,457.8 h 100 v -10 h -100 z"
         stroke="#000000"
         stroke-width="0.2"
         id="path1" />
      <text
         dominant-baseline="hanging"
         font-size="6px"
         style="font-style:normal;font-weight:normal;font-family:sans-serif;fill:#ff0000"
         text-anchor="middle"
         transform="translate(60.1,449.8)"
         id="text1">100.0mm, burn:0.10mm</text>
    </g>
  </g>
  <g
     inkscape:groupmode="layer"
     id="layer3"
     inkscape:label="Cut Boards - V"
     style="display:inline" />
  <g
     inkscape:groupmode="layer"
     id="g41"
     inkscape:label="Cut Boards - H"
     style="display:inline">
    <path
       id="rect46"
       style="vector-effect:non-scaling-stroke;fill:none;fill-opacity:1;stroke:#000000;stroke-width:0.264583;stroke-linecap:round;stroke-linejoin:round;stroke-dasharray:none;stroke-opacity:1;-inkscape-stroke:hairline"
       d="M 4.99969,1.5e-5 C 2.22969,1.5e-5 0,1.621953 0,3.636486 v 7.044346 l 1.99987,0.969966 h 33.00006 l 9.9999,-4.85035 v 9.899655 l -9.9999,-4.849834 H 1.99987 L 0,12.620248 v 10.060368 l 5.1e-4,5.17e-4 1.99988,0.969967 h 23.00015 l 9.9999,-4.85035 v 9.999906 l -9.9999,-4.849833 H 2.00039 L 5.1e-4,24.720802 0,24.721318 V 34.6804 l 5.1e-4,5.17e-4 1.99988,0.969967 h 33.00005 l 9.99991,-4.85035 V 40.900176 L 35.00044,36.050343 H 2.00039 L 5.1e-4,36.820322 0,36.820838 v 9.760128 l 5.1e-4,5.17e-4 1.99988,0.969966 h 23.00015 l 9.9999,-4.850349 v 9.998872 l -9.9999,-4.649328 H 2.00039 L 5.1e-4,48.820623 0,48.821139 v 9.658842 l 5.1e-4,5.17e-4 1.99988,0.969967 h 33.00005 l 9.99991,-4.85035 V 64.900261 L 35.00044,60.050428 H 2.00039 L 5.1e-4,60.820407 0,60.820924 v 9.86038 l 1.99987,0.969966 h 23.00015 l 9.99991,-4.85035 v 9.69915 L 25.00002,71.950994 H 1.99987 L 0,72.720973 v 9.659358 l 1.99987,0.969967 h 33.00006 l 9.9999,-4.85035 v 10.500136 l -9.9999,-4.849835 H 1.99987 L 0,84.920228 v 9.461446 l 1.99987,0.96996 h 23.00015 l 9.99991,-4.85035 V 100.80143 L 25.00002,96.251324 H 1.99987 L 0,97.021304 v 9.360146 l 1.99987,0.96997 h 33.00006 l 9.9999,-4.85035 v 10.69909 l -9.9999,-4.84984 H 1.99987 L 0,109.1203 v 7.24367 c 0,2.01453 2.22969,3.63647 4.99969,3.63647 h 45.00294 c 2.76729,0 4.99533,-1.619 4.99969,-3.63079 1e-5,-0.002 0,-0.004 0,-0.006 V 3.636486 c 0,-0.002 1e-5,-0.0037 0,-0.0057 C 54.99832,1.618997 52.76992,0 50.00263,0 Z"
       sodipodi:nodetypes="ssccccccccccccccccccccccccccccccccccccccccccccccccccccccccccccccccccccccccccccccccsssssscss" />
    <path
       d="m -15.419561,49.000307 q 0,-0.626181 0.400976,-1.043635 0.403721,-0.4202 1.005184,-0.4202 0.601463,0 1.002439,0.4202 0.403721,0.417454 0.403721,1.043635 v 1.373203 q 0,0.62618 -0.400975,1.043634 -0.400975,0.417454 -1.005185,0.417454 -0.604209,0 -1.005184,-0.417454 -0.400976,-0.417454 -0.400976,-1.043634 z m 0.752516,1.373203 q 0,0.340554 0.173023,0.535549 0.17577,0.194995 0.480621,0.194995 0.304851,0 0.477875,-0.194995 0.17577,-0.194995 0.17577,-0.535549 v -1.373203 q 0,-0.340555 -0.17577,-0.53555 -0.173024,-0.197741 -0.477875,-0.197741 -0.304851,0 -0.480621,0.197741 -0.173023,0.194995 -0.173023,0.53555 z m 3.411036,0.604209 v 0.788219 h -0.788218 v -0.788219 z m 0.617942,0.788219 v -0.730544 l 1.5077767,-1.362218 q 0.2416837,-0.219712 0.3405543,-0.406468 0.098871,-0.186756 0.098871,-0.425693 0,-0.252669 -0.1565452,-0.411961 -0.1565451,-0.162038 -0.4119609,-0.162038 -0.2856263,0 -0.4559035,0.181263 -0.1702771,0.181263 -0.1702771,0.483368 v 0.225205 h -0.752515 v -0.225205 q 0,-0.612449 0.38175,-1.002439 0.3817506,-0.392736 0.9969456,-0.392736 0.5959701,0 0.9749742,0.398229 0.1647844,0.173024 0.2554158,0.395483 0.090631,0.222458 0.090631,0.455903 0,0.414707 -0.1647844,0.738783 -0.1647844,0.32133 -0.5767453,0.694841 l -0.9008213,0.815683 h 1.642351 v 0.730544 z"
       id="text36"
       style="font-weight:600;font-size:5.62464px;line-height:0px;font-family:Atlanta;-inkscape-font-specification:'Atlanta, Semi-Bold';fill:#008000;stroke-width:0.199298;stroke-linecap:round;stroke-linejoin:round"
       transform="matrix(0,-1.0035213,0.99649106,0,0,0)"
       aria-label="0.2" />
    <path
       d="m -27.404916,39.035387 q 0,-0.626181 0.400975,-1.043635 0.403722,-0.4202 1.005185,-0.4202 0.601463,0 1.002438,0.4202 0.403722,0.417454 0.403722,1.043635 v 1.373203 q 0,0.62618 -0.400975,1.043634 -0.400976,0.417454 -1.005185,0.417454 -0.604209,0 -1.005185,-0.417454 -0.400975,-0.417454 -0.400975,-1.043634 z m 0.752515,1.373203 q 0,0.340554 0.173024,0.535549 0.17577,0.194995 0.480621,0.194995 0.304851,0 0.477875,-0.194995 0.17577,-0.194995 0.17577,-0.535549 v -1.373203 q 0,-0.340555 -0.17577,-0.53555 -0.173024,-0.197741 -0.477875,-0.197741 -0.304851,0 -0.480621,0.197741 -0.173024,0.194995 -0.173024,0.53555 z m 3.411037,0.604209 v 0.788219 h -0.788219 v -0.788219 z m 1.776925,-1.771432 h 0.192248 q 0.227952,0 0.365272,-0.129081 0.140067,-0.131827 0.140067,-0.348794 0,-0.197741 -0.142813,-0.329568 -0.140067,-0.131828 -0.362526,-0.131828 -0.222459,0 -0.365272,0.14556 -0.142813,0.142813 -0.142813,0.362525 v 0.06591 h -0.752515 v -0.06591 q 0,-0.532802 0.354286,-0.884342 0.357033,-0.354287 0.906314,-0.354287 0.543789,0 0.900821,0.329569 0.357033,0.326822 0.357033,0.818429 0,0.277387 -0.129081,0.499846 -0.129081,0.219712 -0.370765,0.354286 0.291119,0.109857 0.466889,0.379004 0.178517,0.266402 0.178517,0.587731 0,0.579492 -0.400976,0.95575 -0.398228,0.373511 -1.002438,0.373511 -0.628927,0 -1.018917,-0.370765 -0.389989,-0.370765 -0.389989,-0.980467 v -0.112603 h 0.752515 v 0.112603 q 0,0.274641 0.181263,0.447664 0.184009,0.173024 0.475128,0.173024 0.293866,0 0.472382,-0.164785 0.178516,-0.164784 0.178516,-0.433932 0,-0.247176 -0.184009,-0.406468 -0.184009,-0.162038 -0.466889,-0.162038 h -0.192248 z"
       id="text37"
       style="font-weight:600;font-size:5.62464px;line-height:0px;font-family:Atlanta;-inkscape-font-specification:'Atlanta, Semi-Bold';fill:#008000;stroke-width:0.199298;stroke-linecap:round;stroke-linejoin:round"
       transform="matrix(0,-1.0035213,0.99649106,0,0,0)"
       aria-label="0.3" />
    <path
       d="m -39.405383,49.000307 q 0,-0.626181 0.400975,-1.043635 0.403722,-0.4202 1.005185,-0.4202 0.601463,0 1.002438,0.4202 0.403722,0.417454 0.403722,1.043635 v 1.373203 q 0,0.62618 -0.400976,1.043634 -0.400975,0.417454 -1.005184,0.417454 -0.60421,0 -1.005185,-0.417454 -0.400975,-0.417454 -0.400975,-1.043634 z m 0.752515,1.373203 q 0,0.340554 0.173024,0.535549 0.17577,0.194995 0.480621,0.194995 0.304851,0 0.477874,-0.194995 0.17577,-0.194995 0.17577,-0.535549 v -1.373203 q 0,-0.340555 -0.17577,-0.53555 -0.173023,-0.197741 -0.477874,-0.197741 -0.304851,0 -0.480621,0.197741 -0.173024,0.194995 -0.173024,0.53555 z m 3.411036,0.604209 v 0.788219 h -0.788218 v -0.788219 z m 2.2548,0.788219 v -0.788219 h -1.721997 v -0.730544 l 1.721997,-2.644789 h 0.752515 v 2.644789 h 0.450411 v 0.730544 h -0.450411 v 0.788219 z m 0,-1.518763 v -1.51327 l -0.983213,1.51327 z"
       id="text38"
       style="font-weight:600;font-size:5.62464px;line-height:0px;font-family:Atlanta;-inkscape-font-specification:'Atlanta, Semi-Bold';fill:#008000;stroke-width:0.199298;stroke-linecap:round;stroke-linejoin:round"
       transform="matrix(0,-1.0035213,0.99649106,0,0,0)"
       aria-label="0.4" />
    <path
       d="m -51.360542,39.035387 q 0,-0.626181 0.400976,-1.043635 0.403721,-0.4202 1.005184,-0.4202 0.601463,0 1.002439,0.4202 0.403721,0.417454 0.403721,1.043635 v 1.373203 q 0,0.62618 -0.400975,1.043634 -0.400975,0.417454 -1.005185,0.417454 -0.604209,0 -1.005184,-0.417454 -0.400976,-0.417454 -0.400976,-1.043634 z m 0.752516,1.373203 q 0,0.340554 0.173023,0.535549 0.17577,0.194995 0.480621,0.194995 0.304852,0 0.477875,-0.194995 0.17577,-0.194995 0.17577,-0.535549 v -1.373203 q 0,-0.340555 -0.17577,-0.53555 -0.173023,-0.197741 -0.477875,-0.197741 -0.304851,0 -0.480621,0.197741 -0.173023,0.194995 -0.173023,0.53555 z m 3.411036,0.604209 v 0.788219 h -0.788218 v -0.788219 z m 1.472074,-1.884035 q 0.260909,-0.162037 0.584985,-0.162037 0.263655,0 0.513578,0.104363 0.252669,0.101617 0.447664,0.291119 0.433932,0.422947 0.433932,1.05462 0,0.623434 -0.433932,1.043634 -0.205981,0.197742 -0.472382,0.304851 -0.263655,0.104364 -0.554774,0.104364 -0.521817,0 -0.911807,-0.304851 -0.38999,-0.307598 -0.516324,-0.821176 h 0.796457 q 0.07415,0.181263 0.244431,0.288373 0.173023,0.10711 0.387243,0.10711 0.302105,0 0.505339,-0.208727 0.203234,-0.208727 0.203234,-0.513578 0,-0.310344 -0.194995,-0.513578 -0.194995,-0.20598 -0.4971,-0.20598 -0.346047,0 -0.535549,0.252669 h -0.752515 v -2.312474 h 2.507469 v 0.730544 h -1.754954 z"
       id="text39"
       style="font-weight:600;font-size:5.62464px;line-height:0px;font-family:Atlanta;-inkscape-font-specification:'Atlanta, Semi-Bold';fill:#008000;stroke-width:0.199298;stroke-linecap:round;stroke-linejoin:round"
       transform="matrix(0,-1.0035213,0.99649106,0,0,0)"
       aria-label="0.5" />
    <path
       d="m -63.310188,49.000307 q 0,-0.626181 0.400976,-1.043635 0.403721,-0.4202 1.005184,-0.4202 0.601463,0 1.002439,0.4202 0.403721,0.417454 0.403721,1.043635 v 1.373203 q 0,0.62618 -0.400975,1.043634 -0.400975,0.417454 -1.005185,0.417454 -0.604209,0 -1.005184,-0.417454 -0.400976,-0.417454 -0.400976,-1.043634 z m 0.752516,1.373203 q 0,0.340554 0.173023,0.535549 0.17577,0.194995 0.480621,0.194995 0.304852,0 0.477875,-0.194995 0.17577,-0.194995 0.17577,-0.535549 v -1.373203 q 0,-0.340555 -0.17577,-0.53555 -0.173023,-0.197741 -0.477875,-0.197741 -0.304851,0 -0.480621,0.197741 -0.173023,0.194995 -0.173023,0.53555 z m 3.411036,0.604209 v 0.788219 h -0.788218 v -0.788219 z m 2.902952,-3.375333 -0.87885,1.356725 q 0.601463,0 1.005184,0.4202 0.406469,0.417454 0.406469,1.032649 0,0.590477 -0.417454,1.005184 -0.4202,0.417454 -1.032649,0.417454 -0.612449,0 -1.035395,-0.417454 -0.417454,-0.414707 -0.417454,-1.005184 0,-0.203235 0.06591,-0.444918 0.06591,-0.241684 0.164784,-0.395483 l 1.244122,-1.969173 z m -0.9173,2.10924 q -0.302105,0 -0.502592,0.200488 -0.197742,0.200487 -0.197742,0.499846 0,0.296611 0.197742,0.494353 0.200487,0.197741 0.502592,0.197741 0.299358,0 0.4971,-0.197741 0.200487,-0.197742 0.200487,-0.494353 0,-0.299359 -0.200487,-0.499846 -0.197742,-0.200488 -0.4971,-0.200488 z"
       id="text40"
       style="font-weight:600;font-size:5.62464px;line-height:0px;font-family:Atlanta;-inkscape-font-specification:'Atlanta, Semi-Bold';fill:#008000;stroke-width:0.199298;stroke-linecap:round;stroke-linejoin:round"
       transform="matrix(0,-1.0035213,0.99649106,0,0,0)"
       aria-label="0.6" />
    <path
       d="m -75.236491,39.035387 q 0,-0.626181 0.400975,-1.043635 0.403722,-0.4202 1.005185,-0.4202 0.601463,0 1.002438,0.4202 0.403722,0.417454 0.403722,1.043635 v 1.373203 q 0,0.62618 -0.400976,1.043634 -0.400975,0.417454 -1.005184,0.417454 -0.60421,0 -1.005185,-0.417454 -0.400975,-0.417454 -0.400975,-1.043634 z m 0.752515,1.373203 q 0,0.340554 0.173023,0.535549 0.17577,0.194995 0.480622,0.194995 0.304851,0 0.477874,-0.194995 0.17577,-0.194995 0.17577,-0.535549 v -1.373203 q 0,-0.340555 -0.17577,-0.53555 -0.173023,-0.197741 -0.477874,-0.197741 -0.304852,0 -0.480622,0.197741 -0.173023,0.194995 -0.173023,0.53555 z m 3.411036,0.604209 v 0.788219 h -0.788218 v -0.788219 z m 1.021664,0.788219 1.54348,-3.433008 h -1.958188 v -0.730544 h 2.754646 v 0.645405 l -1.518763,3.518147 z"
       id="text42"
       style="font-weight:600;font-size:5.62464px;line-height:0px;font-family:Atlanta;-inkscape-font-specification:'Atlanta, Semi-Bold';fill:#008000;stroke-width:0.199298;stroke-linecap:round;stroke-linejoin:round"
       transform="matrix(0,-1.0035213,0.99649106,0,0,0)"
       aria-label="0.7" />
    <path
       d="m -87.236949,49.000307 q 0,-0.626181 0.400975,-1.043635 0.403722,-0.4202 1.005185,-0.4202 0.601463,0 1.002438,0.4202 0.403722,0.417454 0.403722,1.043635 v 1.373203 q 0,0.62618 -0.400976,1.043634 -0.400975,0.417454 -1.005184,0.417454 -0.60421,0 -1.005185,-0.417454 -0.400975,-0.417454 -0.400975,-1.043634 z m 0.752515,1.373203 q 0,0.340554 0.173024,0.535549 0.17577,0.194995 0.480621,0.194995 0.304851,0 0.477874,-0.194995 0.17577,-0.194995 0.17577,-0.535549 v -1.373203 q 0,-0.340555 -0.17577,-0.53555 -0.173023,-0.197741 -0.477874,-0.197741 -0.304851,0 -0.480621,0.197741 -0.173024,0.194995 -0.173024,0.53555 z m 3.411037,0.604209 v 0.788219 h -0.788219 v -0.788219 z m 1.461088,-2.249307 q 0,0.216967 0.13732,0.348794 0.140067,0.129081 0.370765,0.129081 0.227952,0 0.365272,-0.129081 0.140067,-0.131827 0.140067,-0.348794 0,-0.197741 -0.142813,-0.329568 -0.140067,-0.131828 -0.362526,-0.131828 -0.222459,0 -0.365272,0.131828 -0.142813,0.131827 -0.142813,0.329568 z m -0.752515,-0.04394 q 0,-0.494353 0.357032,-0.821175 0.357033,-0.326823 0.903568,-0.326823 0.543788,0 0.900821,0.329569 0.357033,0.326822 0.357033,0.818429 0,0.266401 -0.126335,0.48886 -0.123588,0.219713 -0.357032,0.365272 0.27464,0.112603 0.45041,0.387244 0.178517,0.27464 0.178517,0.579491 0,0.579492 -0.400976,0.95575 -0.398229,0.373511 -1.002438,0.373511 -0.609702,0 -1.010678,-0.373511 -0.398228,-0.376258 -0.398228,-0.95575 0,-0.304851 0.178516,-0.579491 0.178516,-0.274641 0.450411,-0.387244 -0.230699,-0.142813 -0.357033,-0.365272 -0.123588,-0.222459 -0.123588,-0.48886 z m 0.604209,1.820867 q 0,0.269148 0.181263,0.433933 0.181263,0.164784 0.475128,0.164784 0.293865,0 0.472382,-0.164784 0.178516,-0.164785 0.178516,-0.433933 0,-0.247176 -0.184009,-0.406468 -0.184009,-0.162038 -0.466889,-0.162038 -0.285626,0 -0.472382,0.162038 -0.184009,0.159292 -0.184009,0.406468 z"
       id="text43"
       style="font-weight:600;font-size:5.62464px;line-height:0px;font-family:Atlanta;-inkscape-font-specification:'Atlanta, Semi-Bold';fill:#008000;stroke-width:0.199298;stroke-linecap:round;stroke-linejoin:round"
       transform="matrix(0,-1.0035213,0.99649106,0,0,0)"
       aria-label="0.8" />
    <path
       d="m -99.192134,39.035387 q 0,-0.626181 0.400975,-1.043635 0.403722,-0.4202 1.005185,-0.4202 0.601463,0 1.002438,0.4202 0.403722,0.417454 0.403722,1.043635 v 1.373203 q 0,0.62618 -0.400975,1.043634 -0.400976,0.417454 -1.005185,0.417454 -0.60421,0 -1.005185,-0.417454 -0.400975,-0.417454 -0.400975,-1.043634 z m 0.752515,1.373203 q 0,0.340554 0.173024,0.535549 0.17577,0.194995 0.480621,0.194995 0.304851,0 0.477875,-0.194995 0.17577,-0.194995 0.17577,-0.535549 v -1.373203 q 0,-0.340555 -0.17577,-0.53555 -0.173024,-0.197741 -0.477875,-0.197741 -0.304851,0 -0.480621,0.197741 -0.173024,0.194995 -0.173024,0.53555 z m 3.411037,0.604209 v 0.788219 h -0.788219 v -0.788219 z m 1.971919,-1.321021 q 0.299359,0 0.4971,-0.197741 0.200488,-0.200488 0.200488,-0.499846 0,-0.296612 -0.200488,-0.494354 -0.197741,-0.197741 -0.4971,-0.197741 -0.299358,0 -0.499845,0.197741 -0.197742,0.197742 -0.197742,0.494354 0,0.299358 0.197742,0.499846 0.200487,0.197741 0.499845,0.197741 z m -0.917299,2.10924 0.87885,-1.356725 q -0.601463,0 -1.007931,-0.417454 -0.403722,-0.417453 -0.403722,-1.032648 0,-0.590478 0.417454,-1.005185 0.4202,-0.417454 1.032648,-0.417454 0.612449,0 1.032649,0.417454 0.417454,0.414707 0.417454,1.005185 0,0.203234 -0.06591,0.442171 -0.06591,0.238937 -0.164784,0.395482 l -1.241376,1.969174 z"
       id="text44"
       style="font-weight:600;font-size:5.62464px;line-height:0px;font-family:Atlanta;-inkscape-font-specification:'Atlanta, Semi-Bold';fill:#008000;stroke-width:0.199298;stroke-linecap:round;stroke-linejoin:round"
       transform="matrix(0,-1.0035213,0.99649106,0,0,0)"
       aria-label="0.9" />
    <path
       d="m -109.02699,47.602386 v 4.163552 h -0.75251 v -3.273716 l -0.82118,0.546534 -0.37625,-0.604209 1.25236,-0.832161 z m 2.04882,3.375333 v 0.788219 h -0.78822 v -0.788219 z m 0.56027,-1.977412 q 0,-0.626181 0.40097,-1.043635 0.40373,-0.4202 1.00519,-0.4202 0.60146,0 1.00244,0.4202 0.40372,0.417454 0.40372,1.043635 v 1.373203 q 0,0.62618 -0.40098,1.043634 -0.40097,0.417454 -1.00518,0.417454 -0.60421,0 -1.00519,-0.417454 -0.40097,-0.417454 -0.40097,-1.043634 z m 0.75251,1.373203 q 0,0.340554 0.17303,0.535549 0.17577,0.194995 0.48062,0.194995 0.30485,0 0.47787,-0.194995 0.17577,-0.194995 0.17577,-0.535549 v -1.373203 q 0,-0.340555 -0.17577,-0.53555 -0.17302,-0.197741 -0.47787,-0.197741 -0.30485,0 -0.48062,0.197741 -0.17303,0.194995 -0.17303,0.53555 z"
       id="text45"
       style="font-weight:600;font-size:5.62464px;line-height:0px;font-family:Atlanta;-inkscape-font-specification:'Atlanta, Semi-Bold';fill:#008000;stroke-width:0.199298;stroke-linecap:round;stroke-linejoin:round"
       transform="matrix(0,-1.0035213,0.99649106,0,0,0)"
       aria-label="1.0" />
    <path
       d="M 7.8401812,4.6872668 V 2.5478611 H 7.3819832 V 2.0758828 H 8.7927508 V 2.5478611 H 8.3345528 V 4.6872668 Z M 9.4352615,3.9086747 q 0.046509,0.1670873 0.1912029,0.2721628 0.1464167,0.1050754 0.3307294,0.1050754 0.1257462,0 0.2359892,-0.049954 0.110243,-0.051676 0.184313,-0.141249 h 0.535712 q -0.118855,0.2945559 -0.375515,0.4650882 -0.25666,0.1705323 -0.5804992,0.1705323 -0.2084284,0 -0.3979088,-0.07407 Q 9.3715272,4.5804688 9.2302782,4.4392198 9.0873066,4.2996933 9.0097919,4.1136581 8.9339998,3.9276228 8.9339998,3.7209169 q 0,-0.2067058 0.075792,-0.3927411 0.077515,-0.1860353 0.2204863,-0.3272843 0.141249,-0.1395265 0.3290068,-0.2135961 0.1894804,-0.075792 0.3979088,-0.075792 0.2084282,0 0.3961862,0.075792 0.18948,0.07407 0.330729,0.2135961 0.142972,0.141249 0.218764,0.3272843 0.07752,0.1860353 0.07752,0.3927411 0,0.1171333 -0.01378,0.1877578 z M 10.468791,3.4987081 Q 10.411947,3.3419562 10.27242,3.2489385 10.134616,3.1559209 9.9571938,3.1559209 q -0.1757,0 -0.3152264,0.093018 -0.1395265,0.093018 -0.1963706,0.2497696 z m 1.207507,0.5891117 q 0,0.089573 0.04995,0.1446941 0.05168,0.053399 0.137804,0.053399 0.08441,0 0.134359,-0.044786 0.05168,-0.046509 0.05168,-0.1205784 0,-0.1412491 -0.179145,-0.191203 L 11.724529,3.8862816 Q 11.486817,3.8173797 11.355903,3.6623503 11.22499,3.5073209 11.22499,3.2971699 q 0,-0.2514921 0.18259,-0.4185794 0.18259,-0.1670872 0.456475,-0.1670872 0.284221,0 0.458198,0.1653647 0.1757,0.1653647 0.179145,0.4340823 H 12.02942 q 0,-0.067179 -0.04651,-0.1102431 -0.04479,-0.044786 -0.118856,-0.044786 -0.07579,0 -0.122301,0.037896 -0.04479,0.037896 -0.04479,0.096463 0,0.1257461 0.148139,0.1688098 l 0.222209,0.063734 q 0.211874,0.060289 0.332452,0.2187637 0.122301,0.156752 0.122301,0.3720706 0,0.2738852 -0.18259,0.4461401 -0.18259,0.1705323 -0.475424,0.1705323 -0.299723,0 -0.480591,-0.1739774 -0.179145,-0.1757 -0.179145,-0.4685333 z m 1.255737,0.599447 V 3.1989846 H 12.673653 V 2.754567 h 0.258382 V 2.2171318 h 0.471979 V 2.754567 h 0.258382 v 0.4444176 h -0.258382 v 1.4882822 z m 1.371149,-0.7785921 q 0.04651,0.1670873 0.191203,0.2721628 0.146417,0.1050754 0.330729,0.1050754 0.125747,0 0.23599,-0.049954 0.110243,-0.051676 0.184312,-0.141249 h 0.535713 q -0.118856,0.2945559 -0.375516,0.4650882 -0.256659,0.1705323 -0.580499,0.1705323 -0.208428,0 -0.397908,-0.07407 -0.187758,-0.075792 -0.329007,-0.2170411 -0.142972,-0.1395265 -0.220486,-0.3255617 -0.07579,-0.1860353 -0.07579,-0.3927412 0,-0.2067058 0.07579,-0.3927411 0.07751,-0.1860353 0.220486,-0.3272843 0.141249,-0.1395265 0.329007,-0.2135961 0.18948,-0.075792 0.397908,-0.075792 0.208429,0 0.396187,0.075792 0.18948,0.07407 0.330729,0.2135961 0.142972,0.141249 0.218764,0.3272843 0.07751,0.1860353 0.07751,0.3927411 0,0.1171333 -0.01378,0.1877578 z m 1.033529,-0.4099666 q -0.05684,-0.1567519 -0.19637,-0.2497696 -0.137804,-0.093018 -0.315227,-0.093018 -0.1757,0 -0.315226,0.093018 -0.139526,0.093018 -0.196371,0.2497696 z m 2.733686,-0.3427872 q -0.23599,0 -0.394464,0.160197 -0.156752,0.1584745 -0.156752,0.404799 0,0.2463245 0.156752,0.4065215 0.158474,0.1584745 0.394464,0.1584745 0.235989,0 0.392741,-0.1584745 0.158474,-0.160197 0.158474,-0.4065215 0,-0.2463245 -0.158474,-0.404799 -0.156752,-0.160197 -0.392741,-0.160197 z m 0.551215,-1.0800381 h 0.471979 v 2.611384 H 18.621614 V 4.4822835 q -0.204983,0.248047 -0.587389,0.248047 -0.198093,0 -0.378961,-0.07407 -0.179145,-0.075792 -0.318671,-0.2170411 -0.139527,-0.141249 -0.215319,-0.3255617 -0.07407,-0.1860353 -0.07407,-0.3927412 0,-0.2067058 0.07407,-0.3910186 0.07579,-0.1860352 0.215319,-0.3290068 0.139526,-0.1395265 0.318671,-0.2135961 0.180868,-0.075792 0.378961,-0.075792 0.382406,0 0.587389,0.248047 z m 1.255738,1.8327919 q 0.04651,0.1670873 0.191203,0.2721628 0.146417,0.1050754 0.33073,0.1050754 0.125746,0 0.235989,-0.049954 0.110243,-0.051676 0.184313,-0.141249 h 0.535712 q -0.118856,0.2945559 -0.375515,0.4650882 -0.25666,0.1705323 -0.580499,0.1705323 -0.208429,0 -0.397909,-0.07407 -0.187758,-0.075792 -0.329007,-0.2170411 -0.142972,-0.1395265 -0.220486,-0.3255617 -0.07579,-0.1860353 -0.07579,-0.3927412 0,-0.2067058 0.07579,-0.3927411 0.07751,-0.1860353 0.220486,-0.3272843 0.141249,-0.1395265 0.329007,-0.2135961 0.18948,-0.075792 0.397909,-0.075792 0.208428,0 0.396186,0.075792 0.18948,0.07407 0.330729,0.2135961 0.142972,0.141249 0.218764,0.3272843 0.07751,0.1860353 0.07751,0.3927411 0,0.1171333 -0.01378,0.1877578 z m 1.03353,-0.4099666 q -0.05684,-0.1567519 -0.196371,-0.2497696 -0.137804,-0.093018 -0.315226,-0.093018 -0.1757,0 -0.315227,0.093018 -0.139526,0.093018 -0.19637,0.2497696 z m 2.211753,0.4099666 q 0.04651,0.1670873 0.191202,0.2721628 0.146417,0.1050754 0.33073,0.1050754 0.125746,0 0.235989,-0.049954 0.110243,-0.051676 0.184313,-0.141249 h 0.535712 q -0.118855,0.2945559 -0.375515,0.4650882 -0.25666,0.1705323 -0.580499,0.1705323 -0.208429,0 -0.397909,-0.07407 Q 23.0589,4.5804688 22.917651,4.4392198 22.77468,4.2996933 22.697165,4.1136581 q -0.07579,-0.1860353 -0.07579,-0.3927412 0,-0.2067058 0.07579,-0.3927411 0.07752,-0.1860353 0.220486,-0.3272843 0.141249,-0.1395265 0.329007,-0.2135961 0.18948,-0.075792 0.397909,-0.075792 0.208428,0 0.396186,0.075792 0.18948,0.07407 0.330729,0.2135961 0.142972,0.141249 0.218764,0.3272843 0.07751,0.1860353 0.07751,0.3927411 0,0.1171333 -0.01378,0.1877578 z m 1.033529,-0.4099666 q -0.05684,-0.1567519 -0.196371,-0.2497696 -0.137804,-0.093018 -0.315226,-0.093018 -0.1757,0 -0.315227,0.093018 -0.139526,0.093018 -0.19637,0.2497696 z m 1.207507,0.5891117 q 0,0.089573 0.04995,0.1446941 0.05168,0.053399 0.137804,0.053399 0.0844,0 0.134358,-0.044786 0.05168,-0.046509 0.05168,-0.1205784 0,-0.1412491 -0.179145,-0.191203 L 25.411902,3.8862816 Q 25.17419,3.8173797 25.043277,3.6623503 24.912363,3.5073209 24.912363,3.2971699 q 0,-0.2514921 0.18259,-0.4185794 0.18259,-0.1670872 0.456476,-0.1670872 0.28422,0 0.458198,0.1653647 0.1757,0.1653647 0.179145,0.4340823 h -0.471979 q 0,-0.067179 -0.04651,-0.1102431 -0.04479,-0.044786 -0.118855,-0.044786 -0.07579,0 -0.122301,0.037896 -0.04479,0.037896 -0.04479,0.096463 0,0.1257461 0.14814,0.1688098 l 0.222208,0.063734 q 0.211874,0.060289 0.332452,0.2187637 0.122301,0.156752 0.122301,0.3720706 0,0.2738852 -0.18259,0.4461401 -0.18259,0.1705323 -0.475423,0.1705323 -0.299724,0 -0.480592,-0.1739774 -0.179145,-0.1757 -0.179145,-0.4685333 z m 2.699233,-0.3669029 q 0,-0.2463245 -0.158475,-0.404799 -0.156752,-0.160197 -0.392741,-0.160197 -0.235989,0 -0.394464,0.160197 -0.156752,0.1584745 -0.156752,0.404799 0,0.2463245 0.156752,0.4065215 0.158475,0.1584745 0.394464,0.1584745 0.235989,0 0.392741,-0.1584745 0.158475,-0.160197 0.158475,-0.4065215 z M 26.960472,2.754567 v 0.2049833 q 0.204984,-0.248047 0.587389,-0.248047 0.198094,0 0.377239,0.075792 0.180867,0.07407 0.320394,0.2135961 0.139526,0.1429716 0.213596,0.3290068 0.07579,0.1843128 0.07579,0.3910186 0,0.2067059 -0.07579,0.3927412 -0.07407,0.1843127 -0.213596,0.3255617 -0.139527,0.141249 -0.320394,0.2170411 -0.179145,0.07407 -0.377239,0.07407 -0.382405,0 -0.587389,-0.248047 V 5.4279628 H 26.488494 V 2.754567 Z m 2.301326,1.1541077 q 0.04651,0.1670873 0.191202,0.2721628 0.146417,0.1050754 0.33073,0.1050754 0.125746,0 0.235989,-0.049954 0.110243,-0.051676 0.184313,-0.141249 h 0.535712 q -0.118855,0.2945559 -0.375515,0.4650882 -0.25666,0.1705323 -0.580499,0.1705323 -0.208429,0 -0.397909,-0.07407 -0.187758,-0.075792 -0.329007,-0.2170411 -0.142971,-0.1395265 -0.220486,-0.3255617 -0.07579,-0.1860353 -0.07579,-0.3927412 0,-0.2067058 0.07579,-0.3927411 0.07751,-0.1860353 0.220486,-0.3272843 0.141249,-0.1395265 0.329007,-0.2135961 0.18948,-0.075792 0.397909,-0.075792 0.208428,0 0.396186,0.075792 0.18948,0.07407 0.330729,0.2135961 0.142972,0.141249 0.218764,0.3272843 0.07751,0.1860353 0.07751,0.3927411 0,0.1171333 -0.01378,0.1877578 z m 1.033529,-0.4099666 q -0.05684,-0.1567519 -0.196371,-0.2497696 -0.137804,-0.093018 -0.315226,-0.093018 -0.1757,0 -0.315227,0.093018 -0.139526,0.093018 -0.19637,0.2497696 z m 1.207508,0.5891117 q 0,0.089573 0.04995,0.1446941 0.05168,0.053399 0.137804,0.053399 0.0844,0 0.134358,-0.044786 0.05168,-0.046509 0.05168,-0.1205784 0,-0.1412491 -0.179145,-0.191203 L 31.551066,3.8862816 Q 31.313354,3.8173797 31.182441,3.6623503 31.051527,3.5073209 31.051527,3.2971699 q 0,-0.2514921 0.18259,-0.4185794 0.18259,-0.1670872 0.456476,-0.1670872 0.28422,0 0.458198,0.1653647 0.1757,0.1653647 0.179145,0.4340823 h -0.471979 q 0,-0.067179 -0.04651,-0.1102431 -0.04479,-0.044786 -0.118855,-0.044786 -0.07579,0 -0.122301,0.037896 -0.04479,0.037896 -0.04479,0.096463 0,0.1257461 0.148139,0.1688098 l 0.222209,0.063734 q 0.211874,0.060289 0.332452,0.2187637 0.122301,0.156752 0.122301,0.3720706 0,0.2738852 -0.18259,0.4461401 -0.18259,0.1705323 -0.475423,0.1705323 -0.299724,0 -0.480592,-0.1739774 -0.179145,-0.1757 -0.179145,-0.4685333 z m 1.552015,0 q 0,0.089573 0.04995,0.1446941 0.05168,0.053399 0.137804,0.053399 0.08441,0 0.134359,-0.044786 0.05168,-0.046509 0.05168,-0.1205784 0,-0.1412491 -0.179145,-0.191203 L 33.103081,3.8862816 Q 32.86537,3.8173797 32.734456,3.6623503 32.603542,3.5073209 32.603542,3.2971699 q 0,-0.2514921 0.18259,-0.4185794 0.182591,-0.1670872 0.456476,-0.1670872 0.28422,0 0.458198,0.1653647 0.1757,0.1653647 0.179145,0.4340823 h -0.471978 q 0,-0.067179 -0.04651,-0.1102431 -0.04479,-0.044786 -0.118856,-0.044786 -0.07579,0 -0.122301,0.037896 -0.04479,0.037896 -0.04479,0.096463 0,0.1257461 0.148139,0.1688098 l 0.222209,0.063734 q 0.211873,0.060289 0.332452,0.2187637 0.1223,0.156752 0.1223,0.3720706 0,0.2738852 -0.18259,0.4461401 -0.18259,0.1705323 -0.475423,0.1705323 -0.299724,0 -0.480591,-0.1739774 -0.179145,-0.1757 -0.179145,-0.4685333 z m 2.430517,0.599447 V 4.4977865 q -0.206706,0.232544 -0.511597,0.232544 -0.361735,0 -0.589112,-0.2342666 Q 34.159005,4.2617973 34.159005,3.8880042 V 2.754567 h 0.471978 v 1.1041538 q 0,0.191203 0.113688,0.3100588 0.113688,0.1171333 0.303169,0.1171333 0.184312,0 0.310059,-0.1240235 0.127468,-0.125746 0.127468,-0.3031686 V 2.754567 h 0.471979 v 1.9326998 z m 0.825101,0 V 2.754567 h 0.471978 v 0.1860353 q 0.08096,-0.122301 0.187758,-0.1757 0.10852,-0.053399 0.27044,-0.053399 v 0.4719784 q -0.222209,0 -0.341065,0.1119657 -0.117133,0.1102431 -0.117133,0.3221166 v 1.0697028 z m 2.096341,-1.5313459 q -0.237712,0 -0.394464,0.160197 -0.156751,0.1584745 -0.156751,0.404799 0,0.2463245 0.156751,0.4065215 0.156752,0.1584745 0.394464,0.1584745 0.235989,0 0.392741,-0.1584745 0.156752,-0.160197 0.156752,-0.4065215 0,-0.2463245 -0.156752,-0.404799 -0.156752,-0.160197 -0.392741,-0.160197 z M 38.956302,2.754567 h 0.471979 V 4.6872668 H 38.956302 V 4.4822835 q -0.204983,0.248047 -0.585666,0.248047 -0.198093,0 -0.378961,-0.07407 -0.179145,-0.075792 -0.318672,-0.2170411 -0.139526,-0.141249 -0.215318,-0.3255617 -0.07407,-0.1860353 -0.07407,-0.3927412 0,-0.2067058 0.07407,-0.3910186 0.07579,-0.1860352 0.215318,-0.3290068 0.139527,-0.1395265 0.318672,-0.2135961 0.180868,-0.075792 0.378961,-0.075792 0.380683,0 0.585666,0.248047 z m 2.888715,-0.5942793 q -0.284221,0.1912029 -0.458198,0.5270999 -0.173978,0.335897 -0.173978,0.6941872 0,0.3600127 0.173978,0.6959097 0.173977,0.3341745 0.458198,0.5253774 L 41.600415,4.9697648 Q 41.216286,4.7165502 40.985465,4.2859129 40.754643,3.8552757 40.754643,3.3815748 q 0,-0.4719784 0.230822,-0.9026156 0.232544,-0.4323598 0.61495,-0.6838519 z m 0.72175,0.5942793 v 0.1894804 q 0.204983,-0.2325441 0.516764,-0.2325441 0.375516,0 0.589112,0.2756078 0.113688,-0.1326363 0.266995,-0.2032608 0.15503,-0.072347 0.329007,-0.072347 0.361735,0 0.592557,0.2377117 0.232544,0.2377118 0.232544,0.6046147 V 4.6872668 H 44.621768 V 3.583113 q 0,-0.1912029 -0.106799,-0.3083362 -0.106798,-0.1188559 -0.28422,-0.1188559 -0.16881,0 -0.284221,0.1240235 -0.11541,0.1240235 -0.11541,0.3031686 V 4.6872668 H 43.359139 V 3.583113 q 0,-0.1912029 -0.10852,-0.3083362 -0.106798,-0.1188559 -0.284221,-0.1188559 -0.16881,0 -0.28422,0.1240235 -0.115411,0.1240235 -0.115411,0.3031686 V 4.6872668 H 42.094788 V 2.754567 Z m 3.315906,0 v 0.1894804 q 0.204984,-0.2325441 0.516765,-0.2325441 0.375516,0 0.589112,0.2756078 0.113688,-0.1326363 0.266995,-0.2032608 0.155029,-0.072347 0.329007,-0.072347 0.361735,0 0.592556,0.2377117 0.232544,0.2377118 0.232544,0.6046147 V 4.6872668 H 47.937674 V 3.583113 q 0,-0.1912029 -0.106798,-0.3083362 -0.106798,-0.1188559 -0.284221,-0.1188559 -0.168809,0 -0.28422,0.1240235 -0.115411,0.1240235 -0.115411,0.3031686 V 4.6872668 H 46.675046 V 3.583113 q 0,-0.1912029 -0.108521,-0.3083362 -0.106798,-0.1188559 -0.28422,-0.1188559 -0.16881,0 -0.284221,0.1240235 -0.115411,0.1240235 -0.115411,0.3031686 V 4.6872668 H 45.410695 V 2.754567 Z m 3.374473,0.6270078 q 0,-0.3582902 -0.173977,-0.6941872 -0.173977,-0.335897 -0.458198,-0.5270999 l 0.244602,-0.3651804 q 0.382406,0.2514921 0.613227,0.6838519 0.232544,0.4306372 0.232544,0.9026156 0,0.4737009 -0.230821,0.9043381 -0.230822,0.4306373 -0.61495,0.6838519 L 48.624971,4.6028619 q 0.284221,-0.1912029 0.458198,-0.5253774 0.173977,-0.335897 0.173977,-0.6959097 z"
       id="text46"
       style="font-weight:600;font-size:3.52778px;line-height:0px;font-family:Atlanta;-inkscape-font-specification:'Atlanta, Semi-Bold';fill:#008000;stroke-width:0.264583;stroke-linecap:round;stroke-linejoin:round"
       aria-label="Teste de espessura (mm)" />
  </g>
  <g
     inkscape:groupmode="layer"
     id="g48"
     inkscape:label="Cut Boards - Single"
     style="display:inline" />
</svg>
