<?xml version='1.0' encoding='utf-8'?>
<svg height="560.00mm" viewBox="0.0 0.0 364.40 560.00" width="364.40mm" xmlns="http://www.w3.org/2000/svg" xmlns:cc="http://creativecommons.org/ns#" xmlns:dc="http://purl.org/dc/elements/1.1/" xmlns:inkscape="http://www.inkscape.org/namespaces/inkscape" xmlns:rdf="http://www.w3.org/1999/02/22-rdf-syntax-ns#" xmlns:svg="http://www.w3.org/2000/svg" xmlns:xlink="http://www.w3.org/1999/xlink">
<!--
UniversalBox - Box with various options for different styles and lids

Created with Boxes.py (https://boxes.hackerspace-bamberg.de/)
Creation date: 2026-03-19 14:16:36
Command line (remove spaces between dashes): boxes UniversalBox - -FingerJoint_finger=4 - -FingerJoint_space=4 - -Stackable_bottom_stabilizers=2 - -Lid_style=overthetop - -x=135 - -y=200 - -h=30 - -outside=0 - -thickness=2 - -spacing=0.5
Url: https://boxes.hackerspace-bamberg.de/UniversalBox?FingerJoint_style=rectangular&FingerJoint_surroundingspaces=2.0&FingerJoint_bottom_lip=0.0&FingerJoint_edge_width=1&FingerJoint_extra_length=0.0&FingerJoint_finger=4&FingerJoint_play=0.0&FingerJoint_space=4&FingerJoint_width=1&Stackable_angle=60&Stackable_bottom_stabilizers=2&Stackable_height=2.0&Stackable_holedistance=1.0&Stackable_width=4.0&Hinge_grip_percentage=0&Hinge_outset=0&Hinge_outset=1&Hinge_pinwidth=0.5&Hinge_axle=2.0&Hinge_grip_length=0&Hinge_hingestrength=1&CabinetHinge_bore=3.2&CabinetHinge_eyes_per_hinge=5&CabinetHinge_hinges=2&CabinetHinge_style=inside&CabinetHinge_eye=1.5&CabinetHinge_play=0.05&CabinetHinge_spacing=2.0&SlideOnLid_hole_width=0&SlideOnLid_second_pin=0&SlideOnLid_second_pin=1&SlideOnLid_spring=both&SlideOnLid_style=rectangular&SlideOnLid_surroundingspaces=2.0&SlideOnLid_bottom_lip=0.0&SlideOnLid_edge_width=1.0&SlideOnLid_extra_length=0.0&SlideOnLid_finger=3.0&SlideOnLid_play=0.05&SlideOnLid_space=2.0&SlideOnLid_width=1.0&Click_angle=5.0&Click_bottom_radius=0.1&Click_depth=3.0&RoundedTriangleEdge_height=50.0&RoundedTriangleEdge_r_hole=2.0&RoundedTriangleEdge_radius=30.0&RoundedTriangleEdge_outset=1.0&Mounting_d_head=6.5&Mounting_d_shaft=3.0&Mounting_margin=0.125&Mounting_num=2&Mounting_side=back&Mounting_style=straight+edge%2C+within&HandleEdge_height=20.0&HandleEdge_hole_height=75.0&HandleEdge_hole_width=40%3A40&HandleEdge_on_sides=0&HandleEdge_on_sides=1&HandleEdge_radius=10.0&HandleEdge_outset=1.0&Flex_stretch=1.05&Flex_connection=1.0&Flex_distance=0.5&Flex_width=5.0&Lid_handle=none&Lid_style=overthetop&Lid_handle_height=8.0&Lid_height=4.0&Lid_play=0.1&top_edge=e&bottom_edge=h&x=135&y=200&h=30&outside=0&vertical_edges=finger+joints&thickness=2&burn=0.1&format=svg&labels=0&labels=1&reference=100.0&tabs=0.0&qr_code=0&inner_corners=loop&spacing=0.5&debug=0&language=en&render=2
Url short: https://boxes.hackerspace-bamberg.de/UniversalBox?FingerJoint_finger=4&FingerJoint_space=4&Stackable_bottom_stabilizers=2&Lid_style=overthetop&x=135&y=200&h=30&outside=0&thickness=2&spacing=0.5
SettingsUrl: https://boxes.hackerspace-bamberg.de/UniversalBox?FingerJoint_style=rectangular&FingerJoint_surroundingspaces=2.0&FingerJoint_bottom_lip=0.0&FingerJoint_edge_width=1&FingerJoint_extra_length=0.0&FingerJoint_finger=4&FingerJoint_play=0.0&FingerJoint_space=4&FingerJoint_width=1&Stackable_angle=60&Stackable_bottom_stabilizers=2&Stackable_height=2.0&Stackable_holedistance=1.0&Stackable_width=4.0&Hinge_grip_percentage=0&Hinge_outset=0&Hinge_outset=1&Hinge_pinwidth=0.5&Hinge_axle=2.0&Hinge_grip_length=0&Hinge_hingestrength=1&CabinetHinge_bore=3.2&CabinetHinge_eyes_per_hinge=5&CabinetHinge_hinges=2&CabinetHinge_style=inside&CabinetHinge_eye=1.5&CabinetHinge_play=0.05&CabinetHinge_spacing=2.0&SlideOnLid_hole_width=0&SlideOnLid_second_pin=0&SlideOnLid_second_pin=1&SlideOnLid_spring=both&SlideOnLid_style=rectangular&SlideOnLid_surroundingspaces=2.0&SlideOnLid_bottom_lip=0.0&SlideOnLid_edge_width=1.0&SlideOnLid_extra_length=0.0&SlideOnLid_finger=3.0&SlideOnLid_play=0.05&SlideOnLid_space=2.0&SlideOnLid_width=1.0&Click_angle=5.0&Click_bottom_radius=0.1&Click_depth=3.0&RoundedTriangleEdge_height=50.0&RoundedTriangleEdge_r_hole=2.0&RoundedTriangleEdge_radius=30.0&RoundedTriangleEdge_outset=1.0&Mounting_d_head=6.5&Mounting_d_shaft=3.0&Mounting_margin=0.125&Mounting_num=2&Mounting_side=back&Mounting_style=straight+edge%2C+within&HandleEdge_height=20.0&HandleEdge_hole_height=75.0&HandleEdge_hole_width=40%3A40&HandleEdge_on_sides=0&HandleEdge_on_sides=1&HandleEdge_radius=10.0&HandleEdge_outset=1.0&Flex_stretch=1.05&Flex_connection=1.0&Flex_distance=0.5&Flex_width=5.0&Lid_handle=none&Lid_style=overthetop&Lid_handle_height=8.0&Lid_height=4.0&Lid_play=0.1&top_edge=e&bottom_edge=h&x=135&y=200&h=30&outside=0&vertical_edges=finger+joints&thickness=2&burn=0.1&format=svg&labels=0&labels=1&reference=100.0&tabs=0.0&qr_code=0&inner_corners=loop&spacing=0.5&debug=0&language=en&render=2
SettingsUrl short: https://boxes.hackerspace-bamberg.de/UniversalBox?FingerJoint_finger=4&FingerJoint_space=4&Stackable_bottom_stabilizers=2&Lid_style=overthetop&x=135&y=200&h=30&outside=0&thickness=2&spacing=0.5
-->
<title>UniversalBox</title>
<metadata>
<rdf:RDF><cc:Work>
<dc:title>Box - UniversalBox</dc:title>
<dc:date>2026-03-19 14:16:36</dc:date>
<dc:source>https://boxes.hackerspace-bamberg.de/UniversalBox?FingerJoint_style=rectangular&amp;FingerJoint_surroundingspaces=2.0&amp;FingerJoint_bottom_lip=0.0&amp;FingerJoint_edge_width=1&amp;FingerJoint_extra_length=0.0&amp;FingerJoint_finger=4&amp;FingerJoint_play=0.0&amp;FingerJoint_space=4&amp;FingerJoint_width=1&amp;Stackable_angle=60&amp;Stackable_bottom_stabilizers=2&amp;Stackable_height=2.0&amp;Stackable_holedistance=1.0&amp;Stackable_width=4.0&amp;Hinge_grip_percentage=0&amp;Hinge_outset=0&amp;Hinge_outset=1&amp;Hinge_pinwidth=0.5&amp;Hinge_axle=2.0&amp;Hinge_grip_length=0&amp;Hinge_hingestrength=1&amp;CabinetHinge_bore=3.2&amp;CabinetHinge_eyes_per_hinge=5&amp;CabinetHinge_hinges=2&amp;CabinetHinge_style=inside&amp;CabinetHinge_eye=1.5&amp;CabinetHinge_play=0.05&amp;CabinetHinge_spacing=2.0&amp;SlideOnLid_hole_width=0&amp;SlideOnLid_second_pin=0&amp;SlideOnLid_second_pin=1&amp;SlideOnLid_spring=both&amp;SlideOnLid_style=rectangular&amp;SlideOnLid_surroundingspaces=2.0&amp;SlideOnLid_bottom_lip=0.0&amp;SlideOnLid_edge_width=1.0&amp;SlideOnLid_extra_length=0.0&amp;SlideOnLid_finger=3.0&amp;SlideOnLid_play=0.05&amp;SlideOnLid_space=2.0&amp;SlideOnLid_width=1.0&amp;Click_angle=5.0&amp;Click_bottom_radius=0.1&amp;Click_depth=3.0&amp;RoundedTriangleEdge_height=50.0&amp;RoundedTriangleEdge_r_hole=2.0&amp;RoundedTriangleEdge_radius=30.0&amp;RoundedTriangleEdge_outset=1.0&amp;Mounting_d_head=6.5&amp;Mounting_d_shaft=3.0&amp;Mounting_margin=0.125&amp;Mounting_num=2&amp;Mounting_side=back&amp;Mounting_style=straight+edge%2C+within&amp;HandleEdge_height=20.0&amp;HandleEdge_hole_height=75.0&amp;HandleEdge_hole_width=40%3A40&amp;HandleEdge_on_sides=0&amp;HandleEdge_on_sides=1&amp;HandleEdge_radius=10.0&amp;HandleEdge_outset=1.0&amp;Flex_stretch=1.05&amp;Flex_connection=1.0&amp;Flex_distance=0.5&amp;Flex_width=5.0&amp;Lid_handle=none&amp;Lid_style=overthetop&amp;Lid_handle_height=8.0&amp;Lid_height=4.0&amp;Lid_play=0.1&amp;top_edge=e&amp;bottom_edge=h&amp;x=135&amp;y=200&amp;h=30&amp;outside=0&amp;vertical_edges=finger+joints&amp;thickness=2&amp;burn=0.1&amp;format=svg&amp;labels=0&amp;labels=1&amp;reference=100.0&amp;tabs=0.0&amp;qr_code=0&amp;inner_corners=loop&amp;spacing=0.5&amp;debug=0&amp;language=en&amp;render=2</dc:source>
<dc:source>https://boxes.hackerspace-bamberg.de/UniversalBox?FingerJoint_finger=4&amp;FingerJoint_space=4&amp;Stackable_bottom_stabilizers=2&amp;Lid_style=overthetop&amp;x=135&amp;y=200&amp;h=30&amp;outside=0&amp;thickness=2&amp;spacing=0.5</dc:source>
<dc:description>Box with various options for different styles and lids

Created with Boxes.py (https://boxes.hackerspace-bamberg.de/)
Command line: boxes UniversalBox --FingerJoint_style=rectangular --FingerJoint_surroundingspaces=2.0 --FingerJoint_bottom_lip=0.0 --FingerJoint_edge_width=1 --FingerJoint_extra_length=0.0 --FingerJoint_finger=4 --FingerJoint_play=0.0 --FingerJoint_space=4 --FingerJoint_width=1 --Stackable_angle=60 --Stackable_bottom_stabilizers=2 --Stackable_height=2.0 --Stackable_holedistance=1.0 --Stackable_width=4.0 --Hinge_grip_percentage=0 --Hinge_outset=0 --Hinge_outset=1 --Hinge_pinwidth=0.5 --Hinge_axle=2.0 --Hinge_grip_length=0 --Hinge_hingestrength=1 --CabinetHinge_bore=3.2 --CabinetHinge_eyes_per_hinge=5 --CabinetHinge_hinges=2 --CabinetHinge_style=inside --CabinetHinge_eye=1.5 --CabinetHinge_play=0.05 --CabinetHinge_spacing=2.0 --SlideOnLid_hole_width=0 --SlideOnLid_second_pin=0 --SlideOnLid_second_pin=1 --SlideOnLid_spring=both --SlideOnLid_style=rectangular --SlideOnLid_surroundingspaces=2.0 --SlideOnLid_bottom_lip=0.0 --SlideOnLid_edge_width=1.0 --SlideOnLid_extra_length=0.0 --SlideOnLid_finger=3.0 --SlideOnLid_play=0.05 --SlideOnLid_space=2.0 --SlideOnLid_width=1.0 --Click_angle=5.0 --Click_bottom_radius=0.1 --Click_depth=3.0 --RoundedTriangleEdge_height=50.0 --RoundedTriangleEdge_r_hole=2.0 --RoundedTriangleEdge_radius=30.0 --RoundedTriangleEdge_outset=1.0 --Mounting_d_head=6.5 --Mounting_d_shaft=3.0 --Mounting_margin=0.125 --Mounting_num=2 --Mounting_side=back '--Mounting_style=straight edge, within' --HandleEdge_height=20.0 --HandleEdge_hole_height=75.0 --HandleEdge_hole_width=40:40 --HandleEdge_on_sides=0 --HandleEdge_on_sides=1 --HandleEdge_radius=10.0 --HandleEdge_outset=1.0 --Flex_stretch=1.05 --Flex_connection=1.0 --Flex_distance=0.5 --Flex_width=5.0 --Lid_handle=none --Lid_style=overthetop --Lid_handle_height=8.0 --Lid_height=4.0 --Lid_play=0.1 --top_edge=e --bottom_edge=h --x=135 --y=200 --h=30 --outside=0 '--vertical_edges=finger joints' --thickness=2 --burn=0.1 --format=svg --labels=0 --labels=1 --reference=100.0 --tabs=0.0 --qr_code=0 --inner_corners=loop --spacing=0.5 --debug=0
Command line short: boxes UniversalBox --FingerJoint_finger=4 --FingerJoint_space=4 --Stackable_bottom_stabilizers=2 --Lid_style=overthetop --x=135 --y=200 --h=30 --outside=0 --thickness=2 --spacing=0.5
Url: https://boxes.hackerspace-bamberg.de/UniversalBox?FingerJoint_style=rectangular&amp;FingerJoint_surroundingspaces=2.0&amp;FingerJoint_bottom_lip=0.0&amp;FingerJoint_edge_width=1&amp;FingerJoint_extra_length=0.0&amp;FingerJoint_finger=4&amp;FingerJoint_play=0.0&amp;FingerJoint_space=4&amp;FingerJoint_width=1&amp;Stackable_angle=60&amp;Stackable_bottom_stabilizers=2&amp;Stackable_height=2.0&amp;Stackable_holedistance=1.0&amp;Stackable_width=4.0&amp;Hinge_grip_percentage=0&amp;Hinge_outset=0&amp;Hinge_outset=1&amp;Hinge_pinwidth=0.5&amp;Hinge_axle=2.0&amp;Hinge_grip_length=0&amp;Hinge_hingestrength=1&amp;CabinetHinge_bore=3.2&amp;CabinetHinge_eyes_per_hinge=5&amp;CabinetHinge_hinges=2&amp;CabinetHinge_style=inside&amp;CabinetHinge_eye=1.5&amp;CabinetHinge_play=0.05&amp;CabinetHinge_spacing=2.0&amp;SlideOnLid_hole_width=0&amp;SlideOnLid_second_pin=0&amp;SlideOnLid_second_pin=1&amp;SlideOnLid_spring=both&amp;SlideOnLid_style=rectangular&amp;SlideOnLid_surroundingspaces=2.0&amp;SlideOnLid_bottom_lip=0.0&amp;SlideOnLid_edge_width=1.0&amp;SlideOnLid_extra_length=0.0&amp;SlideOnLid_finger=3.0&amp;SlideOnLid_play=0.05&amp;SlideOnLid_space=2.0&amp;SlideOnLid_width=1.0&amp;Click_angle=5.0&amp;Click_bottom_radius=0.1&amp;Click_depth=3.0&amp;RoundedTriangleEdge_height=50.0&amp;RoundedTriangleEdge_r_hole=2.0&amp;RoundedTriangleEdge_radius=30.0&amp;RoundedTriangleEdge_outset=1.0&amp;Mounting_d_head=6.5&amp;Mounting_d_shaft=3.0&amp;Mounting_margin=0.125&amp;Mounting_num=2&amp;Mounting_side=back&amp;Mounting_style=straight+edge%2C+within&amp;HandleEdge_height=20.0&amp;HandleEdge_hole_height=75.0&amp;HandleEdge_hole_width=40%3A40&amp;HandleEdge_on_sides=0&amp;HandleEdge_on_sides=1&amp;HandleEdge_radius=10.0&amp;HandleEdge_outset=1.0&amp;Flex_stretch=1.05&amp;Flex_connection=1.0&amp;Flex_distance=0.5&amp;Flex_width=5.0&amp;Lid_handle=none&amp;Lid_style=overthetop&amp;Lid_handle_height=8.0&amp;Lid_height=4.0&amp;Lid_play=0.1&amp;top_edge=e&amp;bottom_edge=h&amp;x=135&amp;y=200&amp;h=30&amp;outside=0&amp;vertical_edges=finger+joints&amp;thickness=2&amp;burn=0.1&amp;format=svg&amp;labels=0&amp;labels=1&amp;reference=100.0&amp;tabs=0.0&amp;qr_code=0&amp;inner_corners=loop&amp;spacing=0.5&amp;debug=0&amp;language=en&amp;render=2
Url short: https://boxes.hackerspace-bamberg.de/UniversalBox?FingerJoint_finger=4&amp;FingerJoint_space=4&amp;Stackable_bottom_stabilizers=2&amp;Lid_style=overthetop&amp;x=135&amp;y=200&amp;h=30&amp;outside=0&amp;thickness=2&amp;spacing=0.5
SettingsUrl: https://boxes.hackerspace-bamberg.de/UniversalBox?FingerJoint_style=rectangular&amp;FingerJoint_surroundingspaces=2.0&amp;FingerJoint_bottom_lip=0.0&amp;FingerJoint_edge_width=1&amp;FingerJoint_extra_length=0.0&amp;FingerJoint_finger=4&amp;FingerJoint_play=0.0&amp;FingerJoint_space=4&amp;FingerJoint_width=1&amp;Stackable_angle=60&amp;Stackable_bottom_stabilizers=2&amp;Stackable_height=2.0&amp;Stackable_holedistance=1.0&amp;Stackable_width=4.0&amp;Hinge_grip_percentage=0&amp;Hinge_outset=0&amp;Hinge_outset=1&amp;Hinge_pinwidth=0.5&amp;Hinge_axle=2.0&amp;Hinge_grip_length=0&amp;Hinge_hingestrength=1&amp;CabinetHinge_bore=3.2&amp;CabinetHinge_eyes_per_hinge=5&amp;CabinetHinge_hinges=2&amp;CabinetHinge_style=inside&amp;CabinetHinge_eye=1.5&amp;CabinetHinge_play=0.05&amp;CabinetHinge_spacing=2.0&amp;SlideOnLid_hole_width=0&amp;SlideOnLid_second_pin=0&amp;SlideOnLid_second_pin=1&amp;SlideOnLid_spring=both&amp;SlideOnLid_style=rectangular&amp;SlideOnLid_surroundingspaces=2.0&amp;SlideOnLid_bottom_lip=0.0&amp;SlideOnLid_edge_width=1.0&amp;SlideOnLid_extra_length=0.0&amp;SlideOnLid_finger=3.0&amp;SlideOnLid_play=0.05&amp;SlideOnLid_space=2.0&amp;SlideOnLid_width=1.0&amp;Click_angle=5.0&amp;Click_bottom_radius=0.1&amp;Click_depth=3.0&amp;RoundedTriangleEdge_height=50.0&amp;RoundedTriangleEdge_r_hole=2.0&amp;RoundedTriangleEdge_radius=30.0&amp;RoundedTriangleEdge_outset=1.0&amp;Mounting_d_head=6.5&amp;Mounting_d_shaft=3.0&amp;Mounting_margin=0.125&amp;Mounting_num=2&amp;Mounting_side=back&amp;Mounting_style=straight+edge%2C+within&amp;HandleEdge_height=20.0&amp;HandleEdge_hole_height=75.0&amp;HandleEdge_hole_width=40%3A40&amp;HandleEdge_on_sides=0&amp;HandleEdge_on_sides=1&amp;HandleEdge_radius=10.0&amp;HandleEdge_outset=1.0&amp;Flex_stretch=1.05&amp;Flex_connection=1.0&amp;Flex_distance=0.5&amp;Flex_width=5.0&amp;Lid_handle=none&amp;Lid_style=overthetop&amp;Lid_handle_height=8.0&amp;Lid_height=4.0&amp;Lid_play=0.1&amp;top_edge=e&amp;bottom_edge=h&amp;x=135&amp;y=200&amp;h=30&amp;outside=0&amp;vertical_edges=finger+joints&amp;thickness=2&amp;burn=0.1&amp;format=svg&amp;labels=0&amp;labels=1&amp;reference=100.0&amp;tabs=0.0&amp;qr_code=0&amp;inner_corners=loop&amp;spacing=0.5&amp;debug=0&amp;language=en&amp;render=2
SettingsUrl short: https://boxes.hackerspace-bamberg.de/UniversalBox?FingerJoint_finger=4&amp;FingerJoint_space=4&amp;Stackable_bottom_stabilizers=2&amp;Lid_style=overthetop&amp;x=135&amp;y=200&amp;h=30&amp;outside=0&amp;thickness=2&amp;spacing=0.5
</dc:description>
</cc:Work></rdf:RDF></metadata>
<g id="p-0" style="fill:none;stroke-linecap:round;stroke-linejoin:round;">
  <path d="M 10.100 550.000 H 110.100 V 540.000 H 10.100 V 550.000 Z" stroke="rgb(0,0,0)" stroke-width="0.20" />
  <text dominant-baseline="hanging" font-size="6px" style="font-family: sans-serif ; font-weight: normal; font-style: normal; fill: rgb(255,0,0)" text-anchor="middle" transform="matrix( 1.000 0.000 0.000 1.000 60.100 542.000 )">100.0mm, burn:0.10mm</text>
</g>
<g id="p-1" style="fill:none;stroke-linecap:round;stroke-linejoin:round;">
  <path d="M 31.600 536.600 H 27.700 C 27.600 536.600 27.700 536.700 27.700 536.600 V 534.800 C 27.700 534.700 27.600 534.800 27.700 534.800 H 35.500 C 35.600 534.800 35.500 534.700 35.500 534.800 V 536.600 C 35.500 536.700 35.600 536.600 35.500 536.600 H 31.600 Z" stroke="rgb(0,0,255)" stroke-width="0.20" />
  <path d="M 47.600 536.600 H 43.700 C 43.600 536.600 43.700 536.700 43.700 536.600 V 534.800 C 43.700 534.700 43.600 534.800 43.700 534.800 H 51.500 C 51.600 534.800 51.500 534.700 51.500 534.800 V 536.600 C 51.500 536.700 51.600 536.600 51.500 536.600 H 47.600 Z" stroke="rgb(0,0,255)" stroke-width="0.20" />
  <path d="M 63.600 536.600 H 59.700 C 59.600 536.600 59.700 536.700 59.700 536.600 V 534.800 C 59.700 534.700 59.600 534.800 59.700 534.800 H 67.500 C 67.600 534.800 67.500 534.700 67.500 534.800 V 536.600 C 67.500 536.700 67.600 536.600 67.500 536.600 H 63.600 Z" stroke="rgb(0,0,255)" stroke-width="0.20" />
  <path d="M 79.600 536.600 H 75.700 C 75.600 536.600 75.700 536.700 75.700 536.600 V 534.800 C 75.700 534.700 75.600 534.800 75.700 534.800 H 83.500 C 83.600 534.800 83.500 534.700 83.500 534.800 V 536.600 C 83.500 536.700 83.600 536.600 83.500 536.600 H 79.600 Z" stroke="rgb(0,0,255)" stroke-width="0.20" />
  <path d="M 95.600 536.600 H 91.700 C 91.600 536.600 91.700 536.700 91.700 536.600 V 534.800 C 91.700 534.700 91.600 534.800 91.700 534.800 H 99.500 C 99.600 534.800 99.500 534.700 99.500 534.800 V 536.600 C 99.500 536.700 99.600 536.600 99.500 536.600 H 95.600 Z" stroke="rgb(0,0,255)" stroke-width="0.20" />
  <path d="M 111.600 536.600 H 107.700 C 107.600 536.600 107.700 536.700 107.700 536.600 V 534.800 C 107.700 534.700 107.600 534.800 107.700 534.800 H 115.500 C 115.600 534.800 115.500 534.700 115.500 534.800 V 536.600 C 115.500 536.700 115.600 536.600 115.500 536.600 H 111.600 Z" stroke="rgb(0,0,255)" stroke-width="0.20" />
  <path d="M 127.600 536.600 H 123.700 C 123.600 536.600 123.700 536.700 123.700 536.600 V 534.800 C 123.700 534.700 123.600 534.800 123.700 534.800 H 131.500 C 131.600 534.800 131.500 534.700 131.500 534.800 V 536.600 C 131.500 536.700 131.600 536.600 131.500 536.600 H 127.600 Z" stroke="rgb(0,0,255)" stroke-width="0.20" />
  <path d="M 12.100 538.800 H 147.100 H 149.100 C 149.155 538.800 149.200 538.755 149.200 538.700 V 525.700 C 149.200 525.645 149.155 525.600 149.100 525.600 H 147.200 C 147.100 525.600 147.200 525.700 147.200 525.600 V 517.800 C 147.200 517.700 147.100 517.800 147.200 517.800 H 149.100 C 149.155 517.800 149.200 517.755 149.200 517.700 V 504.700 C 149.200 504.645 149.155 504.600 149.100 504.600 H 147.100 H 12.100 H 10.100 C 10.045 504.600 10.000 504.645 10.000 504.700 V 517.700 C 10.000 517.755 10.045 517.800 10.100 517.800 H 12.000 C 12.100 517.800 12.000 517.700 12.000 517.800 V 525.600 C 12.000 525.700 12.100 525.600 12.000 525.600 H 10.100 C 10.045 525.600 10.000 525.645 10.000 525.700 V 538.700 C 10.000 538.755 10.045 538.800 10.100 538.800 H 12.100 Z" stroke="rgb(0,0,0)" stroke-width="0.20" />
  <text dominant-baseline="hanging" font-size="4px" style="font-family: sans-serif ; font-weight: normal; font-style: normal; fill: rgb(255,0,0)" text-anchor="middle" transform="matrix( 1.000 0.000 0.000 1.000 79.600 519.800 )">front</text>
</g>
<g id="p-2" style="fill:none;stroke-linecap:round;stroke-linejoin:round;">
  <path d="M 31.600 501.400 H 27.700 C 27.600 501.400 27.700 501.500 27.700 501.400 V 499.600 C 27.700 499.500 27.600 499.600 27.700 499.600 H 35.500 C 35.600 499.600 35.500 499.500 35.500 499.600 V 501.400 C 35.500 501.500 35.600 501.400 35.500 501.400 H 31.600 Z" stroke="rgb(0,0,255)" stroke-width="0.20" />
  <path d="M 47.600 501.400 H 43.700 C 43.600 501.400 43.700 501.500 43.700 501.400 V 499.600 C 43.700 499.500 43.600 499.600 43.700 499.600 H 51.500 C 51.600 499.600 51.500 499.500 51.500 499.600 V 501.400 C 51.500 501.500 51.600 501.400 51.500 501.400 H 47.600 Z" stroke="rgb(0,0,255)" stroke-width="0.20" />
  <path d="M 63.600 501.400 H 59.700 C 59.600 501.400 59.700 501.500 59.700 501.400 V 499.600 C 59.700 499.500 59.600 499.600 59.700 499.600 H 67.500 C 67.600 499.600 67.500 499.500 67.500 499.600 V 501.400 C 67.500 501.500 67.600 501.400 67.500 501.400 H 63.600 Z" stroke="rgb(0,0,255)" stroke-width="0.20" />
  <path d="M 79.600 501.400 H 75.700 C 75.600 501.400 75.700 501.500 75.700 501.400 V 499.600 C 75.700 499.500 75.600 499.600 75.700 499.600 H 83.500 C 83.600 499.600 83.500 499.500 83.500 499.600 V 501.400 C 83.500 501.500 83.600 501.400 83.500 501.400 H 79.600 Z" stroke="rgb(0,0,255)" stroke-width="0.20" />
  <path d="M 95.600 501.400 H 91.700 C 91.600 501.400 91.700 501.500 91.700 501.400 V 499.600 C 91.700 499.500 91.600 499.600 91.700 499.600 H 99.500 C 99.600 499.600 99.500 499.500 99.500 499.600 V 501.400 C 99.500 501.500 99.600 501.400 99.500 501.400 H 95.600 Z" stroke="rgb(0,0,255)" stroke-width="0.20" />
  <path d="M 111.600 501.400 H 107.700 C 107.600 501.400 107.700 501.500 107.700 501.400 V 499.600 C 107.700 499.500 107.600 499.600 107.700 499.600 H 115.500 C 115.600 499.600 115.500 499.500 115.500 499.600 V 501.400 C 115.500 501.500 115.600 501.400 115.500 501.400 H 111.600 Z" stroke="rgb(0,0,255)" stroke-width="0.20" />
  <path d="M 127.600 501.400 H 123.700 C 123.600 501.400 123.700 501.500 123.700 501.400 V 499.600 C 123.700 499.500 123.600 499.600 123.700 499.600 H 131.500 C 131.600 499.600 131.500 499.500 131.500 499.600 V 501.400 C 131.500 501.500 131.600 501.400 131.500 501.400 H 127.600 Z" stroke="rgb(0,0,255)" stroke-width="0.20" />
  <path d="M 12.100 503.600 H 147.100 H 149.100 C 149.155 503.600 149.200 503.555 149.200 503.500 V 490.500 C 149.200 490.445 149.155 490.400 149.100 490.400 H 147.200 C 147.100 490.400 147.200 490.500 147.200 490.400 V 482.600 C 147.200 482.500 147.100 482.600 147.200 482.600 H 149.100 C 149.155 482.600 149.200 482.555 149.200 482.500 V 469.500 C 149.200 469.445 149.155 469.400 149.100 469.400 H 147.100 H 12.100 H 10.100 C 10.045 469.400 10.000 469.445 10.000 469.500 V 482.500 C 10.000 482.555 10.045 482.600 10.100 482.600 H 12.000 C 12.100 482.600 12.000 482.500 12.000 482.600 V 490.400 C 12.000 490.500 12.100 490.400 12.000 490.400 H 10.100 C 10.045 490.400 10.000 490.445 10.000 490.500 V 503.500 C 10.000 503.555 10.045 503.600 10.100 503.600 H 12.100 Z" stroke="rgb(0,0,0)" stroke-width="0.20" />
  <text dominant-baseline="hanging" font-size="4px" style="font-family: sans-serif ; font-weight: normal; font-style: normal; fill: rgb(255,0,0)" text-anchor="middle" transform="matrix( 1.000 0.000 0.000 1.000 79.600 484.600 )">back</text>
</g>
<g id="p-3" style="fill:none;stroke-linecap:round;stroke-linejoin:round;">
  <path d="M 12.100 466.400 H 27.500 C 27.600 466.400 27.500 466.300 27.500 466.400 V 468.300 C 27.500 468.355 27.545 468.400 27.600 468.400 H 35.600 C 35.655 468.400 35.700 468.355 35.700 468.300 V 466.400 C 35.700 466.300 35.600 466.400 35.700 466.400 H 43.500 C 43.600 466.400 43.500 466.300 43.500 466.400 V 468.300 C 43.500 468.355 43.545 468.400 43.600 468.400 H 51.600 C 51.655 468.400 51.700 468.355 51.700 468.300 V 466.400 C 51.700 466.300 51.600 466.400 51.700 466.400 H 59.500 C 59.600 466.400 59.500 466.300 59.500 466.400 V 468.300 C 59.500 468.355 59.545 468.400 59.600 468.400 H 67.600 C 67.655 468.400 67.700 468.355 67.700 468.300 V 466.400 C 67.700 466.300 67.600 466.400 67.700 466.400 H 75.500 C 75.600 466.400 75.500 466.300 75.500 466.400 V 468.300 C 75.500 468.355 75.545 468.400 75.600 468.400 H 83.600 C 83.655 468.400 83.700 468.355 83.700 468.300 V 466.400 C 83.700 466.300 83.600 466.400 83.700 466.400 H 91.500 C 91.600 466.400 91.500 466.300 91.500 466.400 V 468.300 C 91.500 468.355 91.545 468.400 91.600 468.400 H 99.600 C 99.655 468.400 99.700 468.355 99.700 468.300 V 466.400 C 99.700 466.300 99.600 466.400 99.700 466.400 H 107.500 C 107.600 466.400 107.500 466.300 107.500 466.400 V 468.300 C 107.500 468.355 107.545 468.400 107.600 468.400 H 115.600 C 115.655 468.400 115.700 468.355 115.700 468.300 V 466.400 C 115.700 466.300 115.600 466.400 115.700 466.400 H 123.500 C 123.600 466.400 123.500 466.300 123.500 466.400 V 468.300 C 123.500 468.355 123.545 468.400 123.600 468.400 H 131.600 C 131.655 468.400 131.700 468.355 131.700 468.300 V 466.400 C 131.700 466.300 131.600 466.400 131.700 466.400 H 147.100 C 147.155 466.400 147.200 466.355 147.200 466.300 V 458.400 C 147.200 458.300 147.100 458.400 147.200 458.400 H 149.100 C 149.155 458.400 149.200 458.355 149.200 458.300 V 450.300 C 149.200 450.245 149.155 450.200 149.100 450.200 H 147.200 C 147.100 450.200 147.200 450.300 147.200 450.200 V 442.400 C 147.200 442.300 147.100 442.400 147.200 442.400 H 149.100 C 149.155 442.400 149.200 442.355 149.200 442.300 V 434.300 C 149.200 434.245 149.155 434.200 149.100 434.200 H 147.200 C 147.100 434.200 147.200 434.300 147.200 434.200 V 426.400 C 147.200 426.300 147.100 426.400 147.200 426.400 H 149.100 C 149.155 426.400 149.200 426.355 149.200 426.300 V 418.300 C 149.200 418.245 149.155 418.200 149.100 418.200 H 147.200 C 147.100 418.200 147.200 418.300 147.200 418.200 V 410.400 C 147.200 410.300 147.100 410.400 147.200 410.400 H 149.100 C 149.155 410.400 149.200 410.355 149.200 410.300 V 402.300 C 149.200 402.245 149.155 402.200 149.100 402.200 H 147.200 C 147.100 402.200 147.200 402.300 147.200 402.200 V 394.400 C 147.200 394.300 147.100 394.400 147.200 394.400 H 149.100 C 149.155 394.400 149.200 394.355 149.200 394.300 V 386.300 C 149.200 386.245 149.155 386.200 149.100 386.200 H 147.200 C 147.100 386.200 147.200 386.300 147.200 386.200 V 378.400 C 147.200 378.300 147.100 378.400 147.200 378.400 H 149.100 C 149.155 378.400 149.200 378.355 149.200 378.300 V 370.300 C 149.200 370.245 149.155 370.200 149.100 370.200 H 147.200 C 147.100 370.200 147.200 370.300 147.200 370.200 V 362.400 C 147.200 362.300 147.100 362.400 147.200 362.400 H 149.100 C 149.155 362.400 149.200 362.355 149.200 362.300 V 354.300 C 149.200 354.245 149.155 354.200 149.100 354.200 H 147.200 C 147.100 354.200 147.200 354.300 147.200 354.200 V 346.400 C 147.200 346.300 147.100 346.400 147.200 346.400 H 149.100 C 149.155 346.400 149.200 346.355 149.200 346.300 V 338.300 C 149.200 338.245 149.155 338.200 149.100 338.200 H 147.200 C 147.100 338.200 147.200 338.300 147.200 338.200 V 330.400 C 147.200 330.300 147.100 330.400 147.200 330.400 H 149.100 C 149.155 330.400 149.200 330.355 149.200 330.300 V 322.300 C 149.200 322.245 149.155 322.200 149.100 322.200 H 147.200 C 147.100 322.200 147.200 322.300 147.200 322.200 V 314.400 C 147.200 314.300 147.100 314.400 147.200 314.400 H 149.100 C 149.155 314.400 149.200 314.355 149.200 314.300 V 306.300 C 149.200 306.245 149.155 306.200 149.100 306.200 H 147.200 C 147.100 306.200 147.200 306.300 147.200 306.200 V 298.400 C 147.200 298.300 147.100 298.400 147.200 298.400 H 149.100 C 149.155 298.400 149.200 298.355 149.200 298.300 V 290.300 C 149.200 290.245 149.155 290.200 149.100 290.200 H 147.200 C 147.100 290.200 147.200 290.300 147.200 290.200 V 282.400 C 147.200 282.300 147.100 282.400 147.200 282.400 H 149.100 C 149.155 282.400 149.200 282.355 149.200 282.300 V 274.300 C 149.200 274.245 149.155 274.200 149.100 274.200 H 147.200 C 147.100 274.200 147.200 274.300 147.200 274.200 V 266.300 C 147.200 266.245 147.155 266.200 147.100 266.200 H 131.700 C 131.600 266.200 131.700 266.300 131.700 266.200 V 264.300 C 131.700 264.245 131.655 264.200 131.600 264.200 H 123.600 C 123.545 264.200 123.500 264.245 123.500 264.300 V 266.200 C 123.500 266.300 123.600 266.200 123.500 266.200 H 115.700 C 115.600 266.200 115.700 266.300 115.700 266.200 V 264.300 C 115.700 264.245 115.655 264.200 115.600 264.200 H 107.600 C 107.545 264.200 107.500 264.245 107.500 264.300 V 266.200 C 107.500 266.300 107.600 266.200 107.500 266.200 H 99.700 C 99.600 266.200 99.700 266.300 99.700 266.200 V 264.300 C 99.700 264.245 99.655 264.200 99.600 264.200 H 91.600 C 91.545 264.200 91.500 264.245 91.500 264.300 V 266.200 C 91.500 266.300 91.600 266.200 91.500 266.200 H 83.700 C 83.600 266.200 83.700 266.300 83.700 266.200 V 264.300 C 83.700 264.245 83.655 264.200 83.600 264.200 H 75.600 C 75.545 264.200 75.500 264.245 75.500 264.300 V 266.200 C 75.500 266.300 75.600 266.200 75.500 266.200 H 67.700 C 67.600 266.200 67.700 266.300 67.700 266.200 V 264.300 C 67.700 264.245 67.655 264.200 67.600 264.200 H 59.600 C 59.545 264.200 59.500 264.245 59.500 264.300 V 266.200 C 59.500 266.300 59.600 266.200 59.500 266.200 H 51.700 C 51.600 266.200 51.700 266.300 51.700 266.200 V 264.300 C 51.700 264.245 51.655 264.200 51.600 264.200 H 43.600 C 43.545 264.200 43.500 264.245 43.500 264.300 V 266.200 C 43.500 266.300 43.600 266.200 43.500 266.200 H 35.700 C 35.600 266.200 35.700 266.300 35.700 266.200 V 264.300 C 35.700 264.245 35.655 264.200 35.600 264.200 H 27.600 C 27.545 264.200 27.500 264.245 27.500 264.300 V 266.200 C 27.500 266.300 27.600 266.200 27.500 266.200 H 12.100 C 12.045 266.200 12.000 266.245 12.000 266.300 V 274.200 C 12.000 274.300 12.100 274.200 12.000 274.200 H 10.100 C 10.045 274.200 10.000 274.245 10.000 274.300 V 282.300 C 10.000 282.355 10.045 282.400 10.100 282.400 H 12.000 C 12.100 282.400 12.000 282.300 12.000 282.400 V 290.200 C 12.000 290.300 12.100 290.200 12.000 290.200 H 10.100 C 10.045 290.200 10.000 290.245 10.000 290.300 V 298.300 C 10.000 298.355 10.045 298.400 10.100 298.400 H 12.000 C 12.100 298.400 12.000 298.300 12.000 298.400 V 306.200 C 12.000 306.300 12.100 306.200 12.000 306.200 H 10.100 C 10.045 306.200 10.000 306.245 10.000 306.300 V 314.300 C 10.000 314.355 10.045 314.400 10.100 314.400 H 12.000 C 12.100 314.400 12.000 314.300 12.000 314.400 V 322.200 C 12.000 322.300 12.100 322.200 12.000 322.200 H 10.100 C 10.045 322.200 10.000 322.245 10.000 322.300 V 330.300 C 10.000 330.355 10.045 330.400 10.100 330.400 H 12.000 C 12.100 330.400 12.000 330.300 12.000 330.400 V 338.200 C 12.000 338.300 12.100 338.200 12.000 338.200 H 10.100 C 10.045 338.200 10.000 338.245 10.000 338.300 V 346.300 C 10.000 346.355 10.045 346.400 10.100 346.400 H 12.000 C 12.100 346.400 12.000 346.300 12.000 346.400 V 354.200 C 12.000 354.300 12.100 354.200 12.000 354.200 H 10.100 C 10.045 354.200 10.000 354.245 10.000 354.300 V 362.300 C 10.000 362.355 10.045 362.400 10.100 362.400 H 12.000 C 12.100 362.400 12.000 362.300 12.000 362.400 V 370.200 C 12.000 370.300 12.100 370.200 12.000 370.200 H 10.100 C 10.045 370.200 10.000 370.245 10.000 370.300 V 378.300 C 10.000 378.355 10.045 378.400 10.100 378.400 H 12.000 C 12.100 378.400 12.000 378.300 12.000 378.400 V 386.200 C 12.000 386.300 12.100 386.200 12.000 386.200 H 10.100 C 10.045 386.200 10.000 386.245 10.000 386.300 V 394.300 C 10.000 394.355 10.045 394.400 10.100 394.400 H 12.000 C 12.100 394.400 12.000 394.300 12.000 394.400 V 402.200 C 12.000 402.300 12.100 402.200 12.000 402.200 H 10.100 C 10.045 402.200 10.000 402.245 10.000 402.300 V 410.300 C 10.000 410.355 10.045 410.400 10.100 410.400 H 12.000 C 12.100 410.400 12.000 410.300 12.000 410.400 V 418.200 C 12.000 418.300 12.100 418.200 12.000 418.200 H 10.100 C 10.045 418.200 10.000 418.245 10.000 418.300 V 426.300 C 10.000 426.355 10.045 426.400 10.100 426.400 H 12.000 C 12.100 426.400 12.000 426.300 12.000 426.400 V 434.200 C 12.000 434.300 12.100 434.200 12.000 434.200 H 10.100 C 10.045 434.200 10.000 434.245 10.000 434.300 V 442.300 C 10.000 442.355 10.045 442.400 10.100 442.400 H 12.000 C 12.100 442.400 12.000 442.300 12.000 442.400 V 450.200 C 12.000 450.300 12.100 450.200 12.000 450.200 H 10.100 C 10.045 450.200 10.000 450.245 10.000 450.300 V 458.300 C 10.000 458.355 10.045 458.400 10.100 458.400 H 12.000 C 12.100 458.400 12.000 458.300 12.000 458.400 V 466.300 C 12.000 466.355 12.045 466.400 12.100 466.400 Z" stroke="rgb(0,0,0)" stroke-width="0.20" />
  <text dominant-baseline="hanging" font-size="4px" style="font-family: sans-serif ; font-weight: normal; font-style: normal; fill: rgb(255,0,0)" text-anchor="middle" transform="matrix( 1.000 0.000 0.000 1.000 79.600 364.400 )">bottom</text>
</g>
<g id="p-4" style="fill:none;stroke-linecap:round;stroke-linejoin:round;">
  <path d="M 12.100 261.200 H 21.600 C 21.700 261.200 21.600 261.100 21.600 261.200 V 263.100 C 21.600 263.155 21.645 263.200 21.700 263.200 H 29.700 C 29.755 263.200 29.800 263.155 29.800 263.100 V 261.200 C 29.800 261.100 29.700 261.200 29.800 261.200 H 37.600 C 37.700 261.200 37.600 261.100 37.600 261.200 V 263.100 C 37.600 263.155 37.645 263.200 37.700 263.200 H 45.700 C 45.755 263.200 45.800 263.155 45.800 263.100 V 261.200 C 45.800 261.100 45.700 261.200 45.800 261.200 H 53.600 C 53.700 261.200 53.600 261.100 53.600 261.200 V 263.100 C 53.600 263.155 53.645 263.200 53.700 263.200 H 61.700 C 61.755 263.200 61.800 263.155 61.800 263.100 V 261.200 C 61.800 261.100 61.700 261.200 61.800 261.200 H 69.600 C 69.700 261.200 69.600 261.100 69.600 261.200 V 263.100 C 69.600 263.155 69.645 263.200 69.700 263.200 H 77.700 C 77.755 263.200 77.800 263.155 77.800 263.100 V 261.200 C 77.800 261.100 77.700 261.200 77.800 261.200 H 85.600 C 85.700 261.200 85.600 261.100 85.600 261.200 V 263.100 C 85.600 263.155 85.645 263.200 85.700 263.200 H 93.700 C 93.755 263.200 93.800 263.155 93.800 263.100 V 261.200 C 93.800 261.100 93.700 261.200 93.800 261.200 H 101.600 C 101.700 261.200 101.600 261.100 101.600 261.200 V 263.100 C 101.600 263.155 101.645 263.200 101.700 263.200 H 109.700 C 109.755 263.200 109.800 263.155 109.800 263.100 V 261.200 C 109.800 261.100 109.700 261.200 109.800 261.200 H 117.600 C 117.700 261.200 117.600 261.100 117.600 261.200 V 263.100 C 117.600 263.155 117.645 263.200 117.700 263.200 H 125.700 C 125.755 263.200 125.800 263.155 125.800 263.100 V 261.200 C 125.800 261.100 125.700 261.200 125.800 261.200 H 133.600 C 133.700 261.200 133.600 261.100 133.600 261.200 V 263.100 C 133.600 263.155 133.645 263.200 133.700 263.200 H 141.700 C 141.755 263.200 141.800 263.155 141.800 263.100 V 261.200 C 141.800 261.100 141.700 261.200 141.800 261.200 H 151.300 C 151.355 261.200 151.400 261.155 151.400 261.100 V 251.100 C 151.400 251.000 151.300 251.100 151.400 251.100 H 153.300 C 153.355 251.100 153.400 251.055 153.400 251.000 V 243.000 C 153.400 242.945 153.355 242.900 153.300 242.900 H 151.400 C 151.300 242.900 151.400 243.000 151.400 242.900 V 235.100 C 151.400 235.000 151.300 235.100 151.400 235.100 H 153.300 C 153.355 235.100 153.400 235.055 153.400 235.000 V 227.000 C 153.400 226.945 153.355 226.900 153.300 226.900 H 151.400 C 151.300 226.900 151.400 227.000 151.400 226.900 V 219.100 C 151.400 219.000 151.300 219.100 151.400 219.100 H 153.300 C 153.355 219.100 153.400 219.055 153.400 219.000 V 211.000 C 153.400 210.945 153.355 210.900 153.300 210.900 H 151.400 C 151.300 210.900 151.400 211.000 151.400 210.900 V 203.100 C 151.400 203.000 151.300 203.100 151.400 203.100 H 153.300 C 153.355 203.100 153.400 203.055 153.400 203.000 V 195.000 C 153.400 194.945 153.355 194.900 153.300 194.900 H 151.400 C 151.300 194.900 151.400 195.000 151.400 194.900 V 187.100 C 151.400 187.000 151.300 187.100 151.400 187.100 H 153.300 C 153.355 187.100 153.400 187.055 153.400 187.000 V 179.000 C 153.400 178.945 153.355 178.900 153.300 178.900 H 151.400 C 151.300 178.900 151.400 179.000 151.400 178.900 V 171.100 C 151.400 171.000 151.300 171.100 151.400 171.100 H 153.300 C 153.355 171.100 153.400 171.055 153.400 171.000 V 163.000 C 153.400 162.945 153.355 162.900 153.300 162.900 H 151.400 C 151.300 162.900 151.400 163.000 151.400 162.900 V 155.100 C 151.400 155.000 151.300 155.100 151.400 155.100 H 153.300 C 153.355 155.100 153.400 155.055 153.400 155.000 V 147.000 C 153.400 146.945 153.355 146.900 153.300 146.900 H 151.400 C 151.300 146.900 151.400 147.000 151.400 146.900 V 139.100 C 151.400 139.000 151.300 139.100 151.400 139.100 H 153.300 C 153.355 139.100 153.400 139.055 153.400 139.000 V 131.000 C 153.400 130.945 153.355 130.900 153.300 130.900 H 151.400 C 151.300 130.900 151.400 131.000 151.400 130.900 V 123.100 C 151.400 123.000 151.300 123.100 151.400 123.100 H 153.300 C 153.355 123.100 153.400 123.055 153.400 123.000 V 115.000 C 153.400 114.945 153.355 114.900 153.300 114.900 H 151.400 C 151.300 114.900 151.400 115.000 151.400 114.900 V 107.100 C 151.400 107.000 151.300 107.100 151.400 107.100 H 153.300 C 153.355 107.100 153.400 107.055 153.400 107.000 V 99.000 C 153.400 98.945 153.355 98.900 153.300 98.900 H 151.400 C 151.300 98.900 151.400 99.000 151.400 98.900 V 91.100 C 151.400 91.000 151.300 91.100 151.400 91.100 H 153.300 C 153.355 91.100 153.400 91.055 153.400 91.000 V 83.000 C 153.400 82.945 153.355 82.900 153.300 82.900 H 151.400 C 151.300 82.900 151.400 83.000 151.400 82.900 V 75.100 C 151.400 75.000 151.300 75.100 151.400 75.100 H 153.300 C 153.355 75.100 153.400 75.055 153.400 75.000 V 67.000 C 153.400 66.945 153.355 66.900 153.300 66.900 H 151.400 C 151.300 66.900 151.400 67.000 151.400 66.900 V 56.900 C 151.400 56.845 151.355 56.800 151.300 56.800 H 141.800 C 141.700 56.800 141.800 56.900 141.800 56.800 V 54.900 C 141.800 54.845 141.755 54.800 141.700 54.800 H 133.700 C 133.645 54.800 133.600 54.845 133.600 54.900 V 56.800 C 133.600 56.900 133.700 56.800 133.600 56.800 H 125.800 C 125.700 56.800 125.800 56.900 125.800 56.800 V 54.900 C 125.800 54.845 125.755 54.800 125.700 54.800 H 117.700 C 117.645 54.800 117.600 54.845 117.600 54.900 V 56.800 C 117.600 56.900 117.700 56.800 117.600 56.800 H 109.800 C 109.700 56.800 109.800 56.900 109.800 56.800 V 54.900 C 109.800 54.845 109.755 54.800 109.700 54.800 H 101.700 C 101.645 54.800 101.600 54.845 101.600 54.900 V 56.800 C 101.600 56.900 101.700 56.800 101.600 56.800 H 93.800 C 93.700 56.800 93.800 56.900 93.800 56.800 V 54.900 C 93.800 54.845 93.755 54.800 93.700 54.800 H 85.700 C 85.645 54.800 85.600 54.845 85.600 54.900 V 56.800 C 85.600 56.900 85.700 56.800 85.600 56.800 H 77.800 C 77.700 56.800 77.800 56.900 77.800 56.800 V 54.900 C 77.800 54.845 77.755 54.800 77.700 54.800 H 69.700 C 69.645 54.800 69.600 54.845 69.600 54.900 V 56.800 C 69.600 56.900 69.700 56.800 69.600 56.800 H 61.800 C 61.700 56.800 61.800 56.900 61.800 56.800 V 54.900 C 61.800 54.845 61.755 54.800 61.700 54.800 H 53.700 C 53.645 54.800 53.600 54.845 53.600 54.900 V 56.800 C 53.600 56.900 53.700 56.800 53.600 56.800 H 45.800 C 45.700 56.800 45.800 56.900 45.800 56.800 V 54.900 C 45.800 54.845 45.755 54.800 45.700 54.800 H 37.700 C 37.645 54.800 37.600 54.845 37.600 54.900 V 56.800 C 37.600 56.900 37.700 56.800 37.600 56.800 H 29.800 C 29.700 56.800 29.800 56.900 29.800 56.800 V 54.900 C 29.800 54.845 29.755 54.800 29.700 54.800 H 21.700 C 21.645 54.800 21.600 54.845 21.600 54.900 V 56.800 C 21.600 56.900 21.700 56.800 21.600 56.800 H 12.100 C 12.045 56.800 12.000 56.845 12.000 56.900 V 66.900 C 12.000 67.000 12.100 66.900 12.000 66.900 H 10.100 C 10.045 66.900 10.000 66.945 10.000 67.000 V 75.000 C 10.000 75.055 10.045 75.100 10.100 75.100 H 12.000 C 12.100 75.100 12.000 75.000 12.000 75.100 V 82.900 C 12.000 83.000 12.100 82.900 12.000 82.900 H 10.100 C 10.045 82.900 10.000 82.945 10.000 83.000 V 91.000 C 10.000 91.055 10.045 91.100 10.100 91.100 H 12.000 C 12.100 91.100 12.000 91.000 12.000 91.100 V 98.900 C 12.000 99.000 12.100 98.900 12.000 98.900 H 10.100 C 10.045 98.900 10.000 98.945 10.000 99.000 V 107.000 C 10.000 107.055 10.045 107.100 10.100 107.100 H 12.000 C 12.100 107.100 12.000 107.000 12.000 107.100 V 114.900 C 12.000 115.000 12.100 114.900 12.000 114.900 H 10.100 C 10.045 114.900 10.000 114.945 10.000 115.000 V 123.000 C 10.000 123.055 10.045 123.100 10.100 123.100 H 12.000 C 12.100 123.100 12.000 123.000 12.000 123.100 V 130.900 C 12.000 131.000 12.100 130.900 12.000 130.900 H 10.100 C 10.045 130.900 10.000 130.945 10.000 131.000 V 139.000 C 10.000 139.055 10.045 139.100 10.100 139.100 H 12.000 C 12.100 139.100 12.000 139.000 12.000 139.100 V 146.900 C 12.000 147.000 12.100 146.900 12.000 146.900 H 10.100 C 10.045 146.900 10.000 146.945 10.000 147.000 V 155.000 C 10.000 155.055 10.045 155.100 10.100 155.100 H 12.000 C 12.100 155.100 12.000 155.000 12.000 155.100 V 162.900 C 12.000 163.000 12.100 162.900 12.000 162.900 H 10.100 C 10.045 162.900 10.000 162.945 10.000 163.000 V 171.000 C 10.000 171.055 10.045 171.100 10.100 171.100 H 12.000 C 12.100 171.100 12.000 171.000 12.000 171.100 V 178.900 C 12.000 179.000 12.100 178.900 12.000 178.900 H 10.100 C 10.045 178.900 10.000 178.945 10.000 179.000 V 187.000 C 10.000 187.055 10.045 187.100 10.100 187.100 H 12.000 C 12.100 187.100 12.000 187.000 12.000 187.100 V 194.900 C 12.000 195.000 12.100 194.900 12.000 194.900 H 10.100 C 10.045 194.900 10.000 194.945 10.000 195.000 V 203.000 C 10.000 203.055 10.045 203.100 10.100 203.100 H 12.000 C 12.100 203.100 12.000 203.000 12.000 203.100 V 210.900 C 12.000 211.000 12.100 210.900 12.000 210.900 H 10.100 C 10.045 210.900 10.000 210.945 10.000 211.000 V 219.000 C 10.000 219.055 10.045 219.100 10.100 219.100 H 12.000 C 12.100 219.100 12.000 219.000 12.000 219.100 V 226.900 C 12.000 227.000 12.100 226.900 12.000 226.900 H 10.100 C 10.045 226.900 10.000 226.945 10.000 227.000 V 235.000 C 10.000 235.055 10.045 235.100 10.100 235.100 H 12.000 C 12.100 235.100 12.000 235.000 12.000 235.100 V 242.900 C 12.000 243.000 12.100 242.900 12.000 242.900 H 10.100 C 10.045 242.900 10.000 242.945 10.000 243.000 V 251.000 C 10.000 251.055 10.045 251.100 10.100 251.100 H 12.000 C 12.100 251.100 12.000 251.000 12.000 251.100 V 261.100 C 12.000 261.155 12.045 261.200 12.100 261.200 Z" stroke="rgb(0,0,0)" stroke-width="0.20" />
  <text dominant-baseline="hanging" font-size="4px" style="font-family: sans-serif ; font-weight: normal; font-style: normal; fill: rgb(255,0,0)" text-anchor="middle" transform="matrix( 1.000 0.000 0.000 1.000 81.700 157.100 )">lid top</text>
</g>
<g id="p-5" style="fill:none;stroke-linecap:round;stroke-linejoin:round;">
  <path d="M 12.100 53.800 H 151.300 H 153.300 C 153.355 53.800 153.400 53.755 153.400 53.700 V 51.200 C 153.400 51.145 153.355 51.100 153.300 51.100 H 151.400 C 151.300 51.100 151.400 51.200 151.400 51.100 V 46.300 C 151.400 46.200 151.300 46.300 151.400 46.300 H 153.300 C 153.355 46.300 153.400 46.255 153.400 46.200 V 43.700 C 153.400 43.645 153.355 43.600 153.300 43.600 H 151.300 H 141.700 C 141.645 43.600 141.600 43.645 141.600 43.700 V 45.600 C 141.600 45.700 141.700 45.600 141.600 45.600 H 133.800 C 133.700 45.600 133.800 45.700 133.800 45.600 V 43.700 C 133.800 43.645 133.755 43.600 133.700 43.600 H 125.700 C 125.645 43.600 125.600 43.645 125.600 43.700 V 45.600 C 125.600 45.700 125.700 45.600 125.600 45.600 H 117.800 C 117.700 45.600 117.800 45.700 117.800 45.600 V 43.700 C 117.800 43.645 117.755 43.600 117.700 43.600 H 109.700 C 109.645 43.600 109.600 43.645 109.600 43.700 V 45.600 C 109.600 45.700 109.700 45.600 109.600 45.600 H 101.800 C 101.700 45.600 101.800 45.700 101.800 45.600 V 43.700 C 101.800 43.645 101.755 43.600 101.700 43.600 H 93.700 C 93.645 43.600 93.600 43.645 93.600 43.700 V 45.600 C 93.600 45.700 93.700 45.600 93.600 45.600 H 85.800 C 85.700 45.600 85.800 45.700 85.800 45.600 V 43.700 C 85.800 43.645 85.755 43.600 85.700 43.600 H 77.700 C 77.645 43.600 77.600 43.645 77.600 43.700 V 45.600 C 77.600 45.700 77.700 45.600 77.600 45.600 H 69.800 C 69.700 45.600 69.800 45.700 69.800 45.600 V 43.700 C 69.800 43.645 69.755 43.600 69.700 43.600 H 61.700 C 61.645 43.600 61.600 43.645 61.600 43.700 V 45.600 C 61.600 45.700 61.700 45.600 61.600 45.600 H 53.800 C 53.700 45.600 53.800 45.700 53.800 45.600 V 43.700 C 53.800 43.645 53.755 43.600 53.700 43.600 H 45.700 C 45.645 43.600 45.600 43.645 45.600 43.700 V 45.600 C 45.600 45.700 45.700 45.600 45.600 45.600 H 37.800 C 37.700 45.600 37.800 45.700 37.800 45.600 V 43.700 C 37.800 43.645 37.755 43.600 37.700 43.600 H 29.700 C 29.645 43.600 29.600 43.645 29.600 43.700 V 45.600 C 29.600 45.700 29.700 45.600 29.600 45.600 H 21.800 C 21.700 45.600 21.800 45.700 21.800 45.600 V 43.700 C 21.800 43.645 21.755 43.600 21.700 43.600 H 12.100 H 10.100 C 10.045 43.600 10.000 43.645 10.000 43.700 V 46.200 C 10.000 46.255 10.045 46.300 10.100 46.300 H 12.000 C 12.100 46.300 12.000 46.200 12.000 46.300 V 51.100 C 12.000 51.200 12.100 51.100 12.000 51.100 H 10.100 C 10.045 51.100 10.000 51.145 10.000 51.200 V 53.700 C 10.000 53.755 10.045 53.800 10.100 53.800 H 12.100 Z" stroke="rgb(0,0,0)" stroke-width="0.20" />
  <text dominant-baseline="hanging" font-size="4px" style="font-family: sans-serif ; font-weight: normal; font-style: normal; fill: rgb(255,0,0)" text-anchor="middle" transform="matrix( 1.000 0.000 0.000 1.000 81.700 46.800 )">lid front</text>
</g>
<g id="p-6" style="fill:none;stroke-linecap:round;stroke-linejoin:round;">
  <path d="M 12.100 42.600 H 151.300 H 153.300 C 153.355 42.600 153.400 42.555 153.400 42.500 V 40.000 C 153.400 39.945 153.355 39.900 153.300 39.900 H 151.400 C 151.300 39.900 151.400 40.000 151.400 39.900 V 35.100 C 151.400 35.000 151.300 35.100 151.400 35.100 H 153.300 C 153.355 35.100 153.400 35.055 153.400 35.000 V 32.500 C 153.400 32.445 153.355 32.400 153.300 32.400 H 151.300 H 141.700 C 141.645 32.400 141.600 32.445 141.600 32.500 V 34.400 C 141.600 34.500 141.700 34.400 141.600 34.400 H 133.800 C 133.700 34.400 133.800 34.500 133.800 34.400 V 32.500 C 133.800 32.445 133.755 32.400 133.700 32.400 H 125.700 C 125.645 32.400 125.600 32.445 125.600 32.500 V 34.400 C 125.600 34.500 125.700 34.400 125.600 34.400 H 117.800 C 117.700 34.400 117.800 34.500 117.800 34.400 V 32.500 C 117.800 32.445 117.755 32.400 117.700 32.400 H 109.700 C 109.645 32.400 109.600 32.445 109.600 32.500 V 34.400 C 109.600 34.500 109.700 34.400 109.600 34.400 H 101.800 C 101.700 34.400 101.800 34.500 101.800 34.400 V 32.500 C 101.800 32.445 101.755 32.400 101.700 32.400 H 93.700 C 93.645 32.400 93.600 32.445 93.600 32.500 V 34.400 C 93.600 34.500 93.700 34.400 93.600 34.400 H 85.800 C 85.700 34.400 85.800 34.500 85.800 34.400 V 32.500 C 85.800 32.445 85.755 32.400 85.700 32.400 H 77.700 C 77.645 32.400 77.600 32.445 77.600 32.500 V 34.400 C 77.600 34.500 77.700 34.400 77.600 34.400 H 69.800 C 69.700 34.400 69.800 34.500 69.800 34.400 V 32.500 C 69.800 32.445 69.755 32.400 69.700 32.400 H 61.700 C 61.645 32.400 61.600 32.445 61.600 32.500 V 34.400 C 61.600 34.500 61.700 34.400 61.600 34.400 H 53.800 C 53.700 34.400 53.800 34.500 53.800 34.400 V 32.500 C 53.800 32.445 53.755 32.400 53.700 32.400 H 45.700 C 45.645 32.400 45.600 32.445 45.600 32.500 V 34.400 C 45.600 34.500 45.700 34.400 45.600 34.400 H 37.800 C 37.700 34.400 37.800 34.500 37.800 34.400 V 32.500 C 37.800 32.445 37.755 32.400 37.700 32.400 H 29.700 C 29.645 32.400 29.600 32.445 29.600 32.500 V 34.400 C 29.600 34.500 29.700 34.400 29.600 34.400 H 21.800 C 21.700 34.400 21.800 34.500 21.800 34.400 V 32.500 C 21.800 32.445 21.755 32.400 21.700 32.400 H 12.100 H 10.100 C 10.045 32.400 10.000 32.445 10.000 32.500 V 35.000 C 10.000 35.055 10.045 35.100 10.100 35.100 H 12.000 C 12.100 35.100 12.000 35.000 12.000 35.100 V 39.900 C 12.000 40.000 12.100 39.900 12.000 39.900 H 10.100 C 10.045 39.900 10.000 39.945 10.000 40.000 V 42.500 C 10.000 42.555 10.045 42.600 10.100 42.600 H 12.100 Z" stroke="rgb(0,0,0)" stroke-width="0.20" />
  <text dominant-baseline="hanging" font-size="4px" style="font-family: sans-serif ; font-weight: normal; font-style: normal; fill: rgb(255,0,0)" text-anchor="middle" transform="matrix( 1.000 0.000 0.000 1.000 81.700 35.600 )">lid back</text>
</g>
<g id="p-7" style="fill:none;stroke-linecap:round;stroke-linejoin:round;">
  <path d="M 12.100 31.400 H 216.300 C 216.355 31.400 216.400 31.355 216.400 31.300 V 28.900 C 216.400 28.800 216.300 28.900 216.400 28.900 H 218.300 C 218.355 28.900 218.400 28.855 218.400 28.800 V 23.800 C 218.400 23.745 218.355 23.700 218.300 23.700 H 216.400 C 216.300 23.700 216.400 23.800 216.400 23.700 V 21.300 C 216.400 21.245 216.355 21.200 216.300 21.200 H 206.200 C 206.145 21.200 206.100 21.245 206.100 21.300 V 23.200 C 206.100 23.300 206.200 23.200 206.100 23.200 H 198.300 C 198.200 23.200 198.300 23.300 198.300 23.200 V 21.300 C 198.300 21.245 198.255 21.200 198.200 21.200 H 190.200 C 190.145 21.200 190.100 21.245 190.100 21.300 V 23.200 C 190.100 23.300 190.200 23.200 190.100 23.200 H 182.300 C 182.200 23.200 182.300 23.300 182.300 23.200 V 21.300 C 182.300 21.245 182.255 21.200 182.200 21.200 H 174.200 C 174.145 21.200 174.100 21.245 174.100 21.300 V 23.200 C 174.100 23.300 174.200 23.200 174.100 23.200 H 166.300 C 166.200 23.200 166.300 23.300 166.300 23.200 V 21.300 C 166.300 21.245 166.255 21.200 166.200 21.200 H 158.200 C 158.145 21.200 158.100 21.245 158.100 21.300 V 23.200 C 158.100 23.300 158.200 23.200 158.100 23.200 H 150.300 C 150.200 23.200 150.300 23.300 150.300 23.200 V 21.300 C 150.300 21.245 150.255 21.200 150.200 21.200 H 142.200 C 142.145 21.200 142.100 21.245 142.100 21.300 V 23.200 C 142.100 23.300 142.200 23.200 142.100 23.200 H 134.300 C 134.200 23.200 134.300 23.300 134.300 23.200 V 21.300 C 134.300 21.245 134.255 21.200 134.200 21.200 H 126.200 C 126.145 21.200 126.100 21.245 126.100 21.300 V 23.200 C 126.100 23.300 126.200 23.200 126.100 23.200 H 118.300 C 118.200 23.200 118.300 23.300 118.300 23.200 V 21.300 C 118.300 21.245 118.255 21.200 118.200 21.200 H 110.200 C 110.145 21.200 110.100 21.245 110.100 21.300 V 23.200 C 110.100 23.300 110.200 23.200 110.100 23.200 H 102.300 C 102.200 23.200 102.300 23.300 102.300 23.200 V 21.300 C 102.300 21.245 102.255 21.200 102.200 21.200 H 94.200 C 94.145 21.200 94.100 21.245 94.100 21.300 V 23.200 C 94.100 23.300 94.200 23.200 94.100 23.200 H 86.300 C 86.200 23.200 86.300 23.300 86.300 23.200 V 21.300 C 86.300 21.245 86.255 21.200 86.200 21.200 H 78.200 C 78.145 21.200 78.100 21.245 78.100 21.300 V 23.200 C 78.100 23.300 78.200 23.200 78.100 23.200 H 70.300 C 70.200 23.200 70.300 23.300 70.300 23.200 V 21.300 C 70.300 21.245 70.255 21.200 70.200 21.200 H 62.200 C 62.145 21.200 62.100 21.245 62.100 21.300 V 23.200 C 62.100 23.300 62.200 23.200 62.100 23.200 H 54.300 C 54.200 23.200 54.300 23.300 54.300 23.200 V 21.300 C 54.300 21.245 54.255 21.200 54.200 21.200 H 46.200 C 46.145 21.200 46.100 21.245 46.100 21.300 V 23.200 C 46.100 23.300 46.200 23.200 46.100 23.200 H 38.300 C 38.200 23.200 38.300 23.300 38.300 23.200 V 21.300 C 38.300 21.245 38.255 21.200 38.200 21.200 H 30.200 C 30.145 21.200 30.100 21.245 30.100 21.300 V 23.200 C 30.100 23.300 30.200 23.200 30.100 23.200 H 22.300 C 22.200 23.200 22.300 23.300 22.300 23.200 V 21.300 C 22.300 21.245 22.255 21.200 22.200 21.200 H 12.100 C 12.045 21.200 12.000 21.245 12.000 21.300 V 23.700 C 12.000 23.800 12.100 23.700 12.000 23.700 H 10.100 C 10.045 23.700 10.000 23.745 10.000 23.800 V 28.800 C 10.000 28.855 10.045 28.900 10.100 28.900 H 12.000 C 12.100 28.900 12.000 28.800 12.000 28.900 V 31.300 C 12.000 31.355 12.045 31.400 12.100 31.400 Z" stroke="rgb(0,0,0)" stroke-width="0.20" />
  <text dominant-baseline="hanging" font-size="4px" style="font-family: sans-serif ; font-weight: normal; font-style: normal; fill: rgb(255,0,0)" text-anchor="middle" transform="matrix( 1.000 0.000 0.000 1.000 114.200 24.400 )">lid left</text>
</g>
<g id="p-8" style="fill:none;stroke-linecap:round;stroke-linejoin:round;">
  <path d="M 12.100 20.200 H 216.300 C 216.355 20.200 216.400 20.155 216.400 20.100 V 17.700 C 216.400 17.600 216.300 17.700 216.400 17.700 H 218.300 C 218.355 17.700 218.400 17.655 218.400 17.600 V 12.600 C 218.400 12.545 218.355 12.500 218.300 12.500 H 216.400 C 216.300 12.500 216.400 12.600 216.400 12.500 V 10.100 C 216.400 10.045 216.355 10.000 216.300 10.000 H 206.200 C 206.145 10.000 206.100 10.045 206.100 10.100 V 12.000 C 206.100 12.100 206.200 12.000 206.100 12.000 H 198.300 C 198.200 12.000 198.300 12.100 198.300 12.000 V 10.100 C 198.300 10.045 198.255 10.000 198.200 10.000 H 190.200 C 190.145 10.000 190.100 10.045 190.100 10.100 V 12.000 C 190.100 12.100 190.200 12.000 190.100 12.000 H 182.300 C 182.200 12.000 182.300 12.100 182.300 12.000 V 10.100 C 182.300 10.045 182.255 10.000 182.200 10.000 H 174.200 C 174.145 10.000 174.100 10.045 174.100 10.100 V 12.000 C 174.100 12.100 174.200 12.000 174.100 12.000 H 166.300 C 166.200 12.000 166.300 12.100 166.300 12.000 V 10.100 C 166.300 10.045 166.255 10.000 166.200 10.000 H 158.200 C 158.145 10.000 158.100 10.045 158.100 10.100 V 12.000 C 158.100 12.100 158.200 12.000 158.100 12.000 H 150.300 C 150.200 12.000 150.300 12.100 150.300 12.000 V 10.100 C 150.300 10.045 150.255 10.000 150.200 10.000 H 142.200 C 142.145 10.000 142.100 10.045 142.100 10.100 V 12.000 C 142.100 12.100 142.200 12.000 142.100 12.000 H 134.300 C 134.200 12.000 134.300 12.100 134.300 12.000 V 10.100 C 134.300 10.045 134.255 10.000 134.200 10.000 H 126.200 C 126.145 10.000 126.100 10.045 126.100 10.100 V 12.000 C 126.100 12.100 126.200 12.000 126.100 12.000 H 118.300 C 118.200 12.000 118.300 12.100 118.300 12.000 V 10.100 C 118.300 10.045 118.255 10.000 118.200 10.000 H 110.200 C 110.145 10.000 110.100 10.045 110.100 10.100 V 12.000 C 110.100 12.100 110.200 12.000 110.100 12.000 H 102.300 C 102.200 12.000 102.300 12.100 102.300 12.000 V 10.100 C 102.300 10.045 102.255 10.000 102.200 10.000 H 94.200 C 94.145 10.000 94.100 10.045 94.100 10.100 V 12.000 C 94.100 12.100 94.200 12.000 94.100 12.000 H 86.300 C 86.200 12.000 86.300 12.100 86.300 12.000 V 10.100 C 86.300 10.045 86.255 10.000 86.200 10.000 H 78.200 C 78.145 10.000 78.100 10.045 78.100 10.100 V 12.000 C 78.100 12.100 78.200 12.000 78.100 12.000 H 70.300 C 70.200 12.000 70.300 12.100 70.300 12.000 V 10.100 C 70.300 10.045 70.255 10.000 70.200 10.000 H 62.200 C 62.145 10.000 62.100 10.045 62.100 10.100 V 12.000 C 62.100 12.100 62.200 12.000 62.100 12.000 H 54.300 C 54.200 12.000 54.300 12.100 54.300 12.000 V 10.100 C 54.300 10.045 54.255 10.000 54.200 10.000 H 46.200 C 46.145 10.000 46.100 10.045 46.100 10.100 V 12.000 C 46.100 12.100 46.200 12.000 46.100 12.000 H 38.300 C 38.200 12.000 38.300 12.100 38.300 12.000 V 10.100 C 38.300 10.045 38.255 10.000 38.200 10.000 H 30.200 C 30.145 10.000 30.100 10.045 30.100 10.100 V 12.000 C 30.100 12.100 30.200 12.000 30.100 12.000 H 22.300 C 22.200 12.000 22.300 12.100 22.300 12.000 V 10.100 C 22.300 10.045 22.255 10.000 22.200 10.000 H 12.100 C 12.045 10.000 12.000 10.045 12.000 10.100 V 12.500 C 12.000 12.600 12.100 12.500 12.000 12.500 H 10.100 C 10.045 12.500 10.000 12.545 10.000 12.600 V 17.600 C 10.000 17.655 10.045 17.700 10.100 17.700 H 12.000 C 12.100 17.700 12.000 17.600 12.000 17.700 V 20.100 C 12.000 20.155 12.045 20.200 12.100 20.200 Z" stroke="rgb(0,0,0)" stroke-width="0.20" />
  <text dominant-baseline="hanging" font-size="4px" style="font-family: sans-serif ; font-weight: normal; font-style: normal; fill: rgb(255,0,0)" text-anchor="middle" transform="matrix( 1.000 0.000 0.000 1.000 114.200 13.200 )">lid right</text>
</g>
<g id="p-9" style="fill:none;stroke-linecap:round;stroke-linejoin:round;">
  <path d="M 164.300 536.600 H 160.400 C 160.300 536.600 160.400 536.700 160.400 536.600 V 534.800 C 160.400 534.700 160.300 534.800 160.400 534.800 H 168.200 C 168.300 534.800 168.200 534.700 168.200 534.800 V 536.600 C 168.200 536.700 168.300 536.600 168.200 536.600 H 164.300 Z" stroke="rgb(0,0,255)" stroke-width="0.20" />
  <path d="M 180.300 536.600 H 176.400 C 176.300 536.600 176.400 536.700 176.400 536.600 V 534.800 C 176.400 534.700 176.300 534.800 176.400 534.800 H 184.200 C 184.300 534.800 184.200 534.700 184.200 534.800 V 536.600 C 184.200 536.700 184.300 536.600 184.200 536.600 H 180.300 Z" stroke="rgb(0,0,255)" stroke-width="0.20" />
  <path d="M 196.300 536.600 H 192.400 C 192.300 536.600 192.400 536.700 192.400 536.600 V 534.800 C 192.400 534.700 192.300 534.800 192.400 534.800 H 200.200 C 200.300 534.800 200.200 534.700 200.200 534.800 V 536.600 C 200.200 536.700 200.300 536.600 200.200 536.600 H 196.300 Z" stroke="rgb(0,0,255)" stroke-width="0.20" />
  <path d="M 212.300 536.600 H 208.400 C 208.300 536.600 208.400 536.700 208.400 536.600 V 534.800 C 208.400 534.700 208.300 534.800 208.400 534.800 H 216.200 C 216.300 534.800 216.200 534.700 216.200 534.800 V 536.600 C 216.200 536.700 216.300 536.600 216.200 536.600 H 212.300 Z" stroke="rgb(0,0,255)" stroke-width="0.20" />
  <path d="M 228.300 536.600 H 224.400 C 224.300 536.600 224.400 536.700 224.400 536.600 V 534.800 C 224.400 534.700 224.300 534.800 224.400 534.800 H 232.200 C 232.300 534.800 232.200 534.700 232.200 534.800 V 536.600 C 232.200 536.700 232.300 536.600 232.200 536.600 H 228.300 Z" stroke="rgb(0,0,255)" stroke-width="0.20" />
  <path d="M 244.300 536.600 H 240.400 C 240.300 536.600 240.400 536.700 240.400 536.600 V 534.800 C 240.400 534.700 240.300 534.800 240.400 534.800 H 248.200 C 248.300 534.800 248.200 534.700 248.200 534.800 V 536.600 C 248.200 536.700 248.300 536.600 248.200 536.600 H 244.300 Z" stroke="rgb(0,0,255)" stroke-width="0.20" />
  <path d="M 260.300 536.600 H 256.400 C 256.300 536.600 256.400 536.700 256.400 536.600 V 534.800 C 256.400 534.700 256.300 534.800 256.400 534.800 H 264.200 C 264.300 534.800 264.200 534.700 264.200 534.800 V 536.600 C 264.200 536.700 264.300 536.600 264.200 536.600 H 260.300 Z" stroke="rgb(0,0,255)" stroke-width="0.20" />
  <path d="M 276.300 536.600 H 272.400 C 272.300 536.600 272.400 536.700 272.400 536.600 V 534.800 C 272.400 534.700 272.300 534.800 272.400 534.800 H 280.200 C 280.300 534.800 280.200 534.700 280.200 534.800 V 536.600 C 280.200 536.700 280.300 536.600 280.200 536.600 H 276.300 Z" stroke="rgb(0,0,255)" stroke-width="0.20" />
  <path d="M 292.300 536.600 H 288.400 C 288.300 536.600 288.400 536.700 288.400 536.600 V 534.800 C 288.400 534.700 288.300 534.800 288.400 534.800 H 296.200 C 296.300 534.800 296.200 534.700 296.200 534.800 V 536.600 C 296.200 536.700 296.300 536.600 296.200 536.600 H 292.300 Z" stroke="rgb(0,0,255)" stroke-width="0.20" />
  <path d="M 308.300 536.600 H 304.400 C 304.300 536.600 304.400 536.700 304.400 536.600 V 534.800 C 304.400 534.700 304.300 534.800 304.400 534.800 H 312.200 C 312.300 534.800 312.200 534.700 312.200 534.800 V 536.600 C 312.200 536.700 312.300 536.600 312.200 536.600 H 308.300 Z" stroke="rgb(0,0,255)" stroke-width="0.20" />
  <path d="M 324.300 536.600 H 320.400 C 320.300 536.600 320.400 536.700 320.400 536.600 V 534.800 C 320.400 534.700 320.300 534.800 320.400 534.800 H 328.200 C 328.300 534.800 328.200 534.700 328.200 534.800 V 536.600 C 328.200 536.700 328.300 536.600 328.200 536.600 H 324.300 Z" stroke="rgb(0,0,255)" stroke-width="0.20" />
  <path d="M 340.300 536.600 H 336.400 C 336.300 536.600 336.400 536.700 336.400 536.600 V 534.800 C 336.400 534.700 336.300 534.800 336.400 534.800 H 344.200 C 344.300 534.800 344.200 534.700 344.200 534.800 V 536.600 C 344.200 536.700 344.300 536.600 344.200 536.600 H 340.300 Z" stroke="rgb(0,0,255)" stroke-width="0.20" />
  <path d="M 152.300 538.800 H 352.300 C 352.355 538.800 352.400 538.755 352.400 538.700 V 525.800 C 352.400 525.700 352.300 525.800 352.400 525.800 H 354.300 C 354.355 525.800 354.400 525.755 354.400 525.700 V 517.700 C 354.400 517.645 354.355 517.600 354.300 517.600 H 352.400 C 352.300 517.600 352.400 517.700 352.400 517.600 V 504.700 C 352.400 504.645 352.355 504.600 352.300 504.600 H 152.300 C 152.245 504.600 152.200 504.645 152.200 504.700 V 517.600 C 152.200 517.700 152.300 517.600 152.200 517.600 H 150.300 C 150.245 517.600 150.200 517.645 150.200 517.700 V 525.700 C 150.200 525.755 150.245 525.800 150.300 525.800 H 152.200 C 152.300 525.800 152.200 525.700 152.200 525.800 V 538.700 C 152.200 538.755 152.245 538.800 152.300 538.800 Z" stroke="rgb(0,0,0)" stroke-width="0.20" />
  <text dominant-baseline="hanging" font-size="4px" style="font-family: sans-serif ; font-weight: normal; font-style: normal; fill: rgb(255,0,0)" text-anchor="middle" transform="matrix( 1.000 0.000 0.000 1.000 252.300 519.800 )">left</text>
</g>
<g id="p-10" style="fill:none;stroke-linecap:round;stroke-linejoin:round;">
  <path d="M 164.300 501.400 H 160.400 C 160.300 501.400 160.400 501.500 160.400 501.400 V 499.600 C 160.400 499.500 160.300 499.600 160.400 499.600 H 168.200 C 168.300 499.600 168.200 499.500 168.200 499.600 V 501.400 C 168.200 501.500 168.300 501.400 168.200 501.400 H 164.300 Z" stroke="rgb(0,0,255)" stroke-width="0.20" />
  <path d="M 180.300 501.400 H 176.400 C 176.300 501.400 176.400 501.500 176.400 501.400 V 499.600 C 176.400 499.500 176.300 499.600 176.400 499.600 H 184.200 C 184.300 499.600 184.200 499.500 184.200 499.600 V 501.400 C 184.200 501.500 184.300 501.400 184.200 501.400 H 180.300 Z" stroke="rgb(0,0,255)" stroke-width="0.20" />
  <path d="M 196.300 501.400 H 192.400 C 192.300 501.400 192.400 501.500 192.400 501.400 V 499.600 C 192.400 499.500 192.300 499.600 192.400 499.600 H 200.200 C 200.300 499.600 200.200 499.500 200.200 499.600 V 501.400 C 200.200 501.500 200.300 501.400 200.200 501.400 H 196.300 Z" stroke="rgb(0,0,255)" stroke-width="0.20" />
  <path d="M 212.300 501.400 H 208.400 C 208.300 501.400 208.400 501.500 208.400 501.400 V 499.600 C 208.400 499.500 208.300 499.600 208.400 499.600 H 216.200 C 216.300 499.600 216.200 499.500 216.200 499.600 V 501.400 C 216.200 501.500 216.300 501.400 216.200 501.400 H 212.300 Z" stroke="rgb(0,0,255)" stroke-width="0.20" />
  <path d="M 228.300 501.400 H 224.400 C 224.300 501.400 224.400 501.500 224.400 501.400 V 499.600 C 224.400 499.500 224.300 499.600 224.400 499.600 H 232.200 C 232.300 499.600 232.200 499.500 232.200 499.600 V 501.400 C 232.200 501.500 232.300 501.400 232.200 501.400 H 228.300 Z" stroke="rgb(0,0,255)" stroke-width="0.20" />
  <path d="M 244.300 501.400 H 240.400 C 240.300 501.400 240.400 501.500 240.400 501.400 V 499.600 C 240.400 499.500 240.300 499.600 240.400 499.600 H 248.200 C 248.300 499.600 248.200 499.500 248.200 499.600 V 501.400 C 248.200 501.500 248.300 501.400 248.200 501.400 H 244.300 Z" stroke="rgb(0,0,255)" stroke-width="0.20" />
  <path d="M 260.300 501.400 H 256.400 C 256.300 501.400 256.400 501.500 256.400 501.400 V 499.600 C 256.400 499.500 256.300 499.600 256.400 499.600 H 264.200 C 264.300 499.600 264.200 499.500 264.200 499.600 V 501.400 C 264.200 501.500 264.300 501.400 264.200 501.400 H 260.300 Z" stroke="rgb(0,0,255)" stroke-width="0.20" />
  <path d="M 276.300 501.400 H 272.400 C 272.300 501.400 272.400 501.500 272.400 501.400 V 499.600 C 272.400 499.500 272.300 499.600 272.400 499.600 H 280.200 C 280.300 499.600 280.200 499.500 280.200 499.600 V 501.400 C 280.200 501.500 280.300 501.400 280.200 501.400 H 276.300 Z" stroke="rgb(0,0,255)" stroke-width="0.20" />
  <path d="M 292.300 501.400 H 288.400 C 288.300 501.400 288.400 501.500 288.400 501.400 V 499.600 C 288.400 499.500 288.300 499.600 288.400 499.600 H 296.200 C 296.300 499.600 296.200 499.500 296.200 499.600 V 501.400 C 296.200 501.500 296.300 501.400 296.200 501.400 H 292.300 Z" stroke="rgb(0,0,255)" stroke-width="0.20" />
  <path d="M 308.300 501.400 H 304.400 C 304.300 501.400 304.400 501.500 304.400 501.400 V 499.600 C 304.400 499.500 304.300 499.600 304.400 499.600 H 312.200 C 312.300 499.600 312.200 499.500 312.200 499.600 V 501.400 C 312.200 501.500 312.300 501.400 312.200 501.400 H 308.300 Z" stroke="rgb(0,0,255)" stroke-width="0.20" />
  <path d="M 324.300 501.400 H 320.400 C 320.300 501.400 320.400 501.500 320.400 501.400 V 499.600 C 320.400 499.500 320.300 499.600 320.400 499.600 H 328.200 C 328.300 499.600 328.200 499.500 328.200 499.600 V 501.400 C 328.200 501.500 328.300 501.400 328.200 501.400 H 324.300 Z" stroke="rgb(0,0,255)" stroke-width="0.20" />
  <path d="M 340.300 501.400 H 336.400 C 336.300 501.400 336.400 501.500 336.400 501.400 V 499.600 C 336.400 499.500 336.300 499.600 336.400 499.600 H 344.200 C 344.300 499.600 344.200 499.500 344.200 499.600 V 501.400 C 344.200 501.500 344.300 501.400 344.200 501.400 H 340.300 Z" stroke="rgb(0,0,255)" stroke-width="0.20" />
  <path d="M 152.300 503.600 H 352.300 C 352.355 503.600 352.400 503.555 352.400 503.500 V 490.600 C 352.400 490.500 352.300 490.600 352.400 490.600 H 354.300 C 354.355 490.600 354.400 490.555 354.400 490.500 V 482.500 C 354.400 482.445 354.355 482.400 354.300 482.400 H 352.400 C 352.300 482.400 352.400 482.500 352.400 482.400 V 469.500 C 352.400 469.445 352.355 469.400 352.300 469.400 H 152.300 C 152.245 469.400 152.200 469.445 152.200 469.500 V 482.400 C 152.200 482.500 152.300 482.400 152.200 482.400 H 150.300 C 150.245 482.400 150.200 482.445 150.200 482.500 V 490.500 C 150.200 490.555 150.245 490.600 150.300 490.600 H 152.200 C 152.300 490.600 152.200 490.500 152.200 490.600 V 503.500 C 152.200 503.555 152.245 503.600 152.300 503.600 Z" stroke="rgb(0,0,0)" stroke-width="0.20" />
  <text dominant-baseline="hanging" font-size="4px" style="font-family: sans-serif ; font-weight: normal; font-style: normal; fill: rgb(255,0,0)" text-anchor="middle" transform="matrix( 1.000 0.000 0.000 1.000 252.300 484.600 )">right</text>
</g>
</svg>