<svg version="1.1" xmlns="http://www.w3.org/2000/svg" xmlns:xlink="http://www.w3.org/1999/xlink" width="1940" height="68" viewBox="0,0,1940,68"><g id="1 cm. Tick Group" fill="none" fill-rule="nonzero" stroke="none" stroke-width="none" stroke-linecap="butt" stroke-linejoin="miter" stroke-miterlimit="10" stroke-dasharray="" stroke-dashoffset="0" font-family="none" font-weight="none" font-size="none" text-anchor="none" style="mix-blend-mode: normal"><path d="M10,0v18.89764" id="1 cm. Tick no. 0" fill="none" stroke="#000000" stroke-width="1"/><text x="6" y="28.89764" id="1 cm. label no. 0" fill="#000000" stroke="none" stroke-width="1" font-family="monospace" font-weight="bold" font-size="12" text-anchor="start">0</text><path d="M47.79528,0v18.89764" id="1 cm. Tick no. 1" fill="none" stroke="#000000" stroke-width="1"/><text x="43.79528" y="28.89764" id="1 cm. label no. 1" fill="#000000" stroke="none" stroke-width="1" font-family="monospace" font-weight="bold" font-size="12" text-anchor="start">1</text><path d="M85.59055,0v18.89764" id="1 cm. Tick no. 2" fill="none" stroke="#000000" stroke-width="1"/><text x="81.59055" y="28.89764" id="1 cm. label no. 2" fill="#000000" stroke="none" stroke-width="1" font-family="monospace" font-weight="bold" font-size="12" text-anchor="start">2</text><path d="M123.38583,0v18.89764" id="1 cm. Tick no. 3" fill="none" stroke="#000000" stroke-width="1"/><text x="119.38583" y="28.89764" id="1 cm. label no. 3" fill="#000000" stroke="none" stroke-width="1" font-family="monospace" font-weight="bold" font-size="12" text-anchor="start">3</text><path d="M161.1811,0v18.89764" id="1 cm. Tick no. 4" fill="none" stroke="#000000" stroke-width="1"/><text x="157.1811" y="28.89764" id="1 cm. label no. 4" fill="#000000" stroke="none" stroke-width="1" font-family="monospace" font-weight="bold" font-size="12" text-anchor="start">4</text><path d="M198.97638,0v18.89764" id="1 cm. Tick no. 5" fill="none" stroke="#000000" stroke-width="1"/><text x="194.97638" y="28.89764" id="1 cm. label no. 5" fill="#000000" stroke="none" stroke-width="1" font-family="monospace" font-weight="bold" font-size="12" text-anchor="start">5</text><path d="M236.77165,0v18.89764" id="1 cm. Tick no. 6" fill="none" stroke="#000000" stroke-width="1"/><text x="232.77165" y="28.89764" id="1 cm. label no. 6" fill="#000000" stroke="none" stroke-width="1" font-family="monospace" font-weight="bold" font-size="12" text-anchor="start">6</text><path d="M274.56693,0v18.89764" id="1 cm. Tick no. 7" fill="none" stroke="#000000" stroke-width="1"/><text x="270.56693" y="28.89764" id="1 cm. label no. 7" fill="#000000" stroke="none" stroke-width="1" font-family="monospace" font-weight="bold" font-size="12" text-anchor="start">7</text><path d="M312.3622,0v18.89764" id="1 cm. Tick no. 8" fill="none" stroke="#000000" stroke-width="1"/><text x="308.3622" y="28.89764" id="1 cm. label no. 8" fill="#000000" stroke="none" stroke-width="1" font-family="monospace" font-weight="bold" font-size="12" text-anchor="start">8</text><path d="M350.15748,0v18.89764" id="1 cm. Tick no. 9" fill="none" stroke="#000000" stroke-width="1"/><text x="346.15748" y="28.89764" id="1 cm. label no. 9" fill="#000000" stroke="none" stroke-width="1" font-family="monospace" font-weight="bold" font-size="12" text-anchor="start">9</text><path d="M387.95276,0v18.89764" id="1 cm. Tick no. 10" fill="none" stroke="#000000" stroke-width="1"/><text x="383.95276" y="28.89764" id="1 cm. label no. 10" fill="#000000" stroke="none" stroke-width="1" font-family="monospace" font-weight="bold" font-size="12" text-anchor="start">10</text><path d="M425.74803,0v18.89764" id="1 cm. Tick no. 11" fill="none" stroke="#000000" stroke-width="1"/><text x="421.74803" y="28.89764" id="1 cm. label no. 11" fill="#000000" stroke="none" stroke-width="1" font-family="monospace" font-weight="bold" font-size="12" text-anchor="start">11</text><path d="M463.54331,0v18.89764" id="1 cm. Tick no. 12" fill="none" stroke="#000000" stroke-width="1"/><text x="459.54331" y="28.89764" id="1 cm. label no. 12" fill="#000000" stroke="none" stroke-width="1" font-family="monospace" font-weight="bold" font-size="12" text-anchor="start">12</text><path d="M501.33858,0v18.89764" id="1 cm. Tick no. 13" fill="none" stroke="#000000" stroke-width="1"/><text x="497.33858" y="28.89764" id="1 cm. label no. 13" fill="#000000" stroke="none" stroke-width="1" font-family="monospace" font-weight="bold" font-size="12" text-anchor="start">13</text><path d="M539.13386,0v18.89764" id="1 cm. Tick no. 14" fill="none" stroke="#000000" stroke-width="1"/><text x="535.13386" y="28.89764" id="1 cm. label no. 14" fill="#000000" stroke="none" stroke-width="1" font-family="monospace" font-weight="bold" font-size="12" text-anchor="start">14</text><path d="M576.92913,0v18.89764" id="1 cm. Tick no. 15" fill="none" stroke="#000000" stroke-width="1"/><text x="572.92913" y="28.89764" id="1 cm. label no. 15" fill="#000000" stroke="none" stroke-width="1" font-family="monospace" font-weight="bold" font-size="12" text-anchor="start">15</text><path d="M614.72441,0v18.89764" id="1 cm. Tick no. 16" fill="none" stroke="#000000" stroke-width="1"/><text x="610.72441" y="28.89764" id="1 cm. label no. 16" fill="#000000" stroke="none" stroke-width="1" font-family="monospace" font-weight="bold" font-size="12" text-anchor="start">16</text><path d="M652.51969,0v18.89764" id="1 cm. Tick no. 17" fill="none" stroke="#000000" stroke-width="1"/><text x="648.51969" y="28.89764" id="1 cm. label no. 17" fill="#000000" stroke="none" stroke-width="1" font-family="monospace" font-weight="bold" font-size="12" text-anchor="start">17</text><path d="M690.31496,0v18.89764" id="1 cm. Tick no. 18" fill="none" stroke="#000000" stroke-width="1"/><text x="686.31496" y="28.89764" id="1 cm. label no. 18" fill="#000000" stroke="none" stroke-width="1" font-family="monospace" font-weight="bold" font-size="12" text-anchor="start">18</text><path d="M728.11024,0v18.89764" id="1 cm. Tick no. 19" fill="none" stroke="#000000" stroke-width="1"/><text x="724.11024" y="28.89764" id="1 cm. label no. 19" fill="#000000" stroke="none" stroke-width="1" font-family="monospace" font-weight="bold" font-size="12" text-anchor="start">19</text><path d="M765.90551,0v18.89764" id="1 cm. Tick no. 20" fill="none" stroke="#000000" stroke-width="1"/><text x="769.90551" y="28.89764" id="1 cm. label no. 20" fill="#000000" stroke="none" stroke-width="1" font-family="monospace" font-weight="bold" font-size="12" text-anchor="end">20</text></g><g id="1/10th cm. Tick Group" fill="none" fill-rule="nonzero" stroke="#000000" stroke-width="1" stroke-linecap="butt" stroke-linejoin="miter" stroke-miterlimit="10" stroke-dasharray="" stroke-dashoffset="0" font-family="none" font-weight="none" font-size="none" text-anchor="none" style="mix-blend-mode: normal"><path d="M13.77953,0v13.22835" id="1/10th cm. Tick no. 1"/><path d="M17.55906,0v13.22835" id="1/10th cm. Tick no. 2"/><path d="M21.33858,0v13.22835" id="1/10th cm. Tick no. 3"/><path d="M25.11811,0v13.22835" id="1/10th cm. Tick no. 4"/><path d="M28.89764,0v13.22835" id="1/10th cm. Tick no. 5"/><path d="M32.67717,0v13.22835" id="1/10th cm. Tick no. 6"/><path d="M36.45669,0v13.22835" id="1/10th cm. Tick no. 7"/><path d="M40.23622,0v13.22835" id="1/10th cm. Tick no. 8"/><path d="M44.01575,0v13.22835" id="1/10th cm. Tick no. 9"/><path d="M51.5748,0v13.22835" id="1/10th cm. Tick no. 11"/><path d="M55.35433,0v13.22835" id="1/10th cm. Tick no. 12"/><path d="M59.13386,0v13.22835" id="1/10th cm. Tick no. 13"/><path d="M62.91339,0v13.22835" id="1/10th cm. Tick no. 14"/><path d="M66.69291,0v13.22835" id="1/10th cm. Tick no. 15"/><path d="M70.47244,0v13.22835" id="1/10th cm. Tick no. 16"/><path d="M74.25197,0v13.22835" id="1/10th cm. Tick no. 17"/><path d="M78.0315,0v13.22835" id="1/10th cm. Tick no. 18"/><path d="M81.81102,0v13.22835" id="1/10th cm. Tick no. 19"/><path d="M89.37008,0v13.22835" id="1/10th cm. Tick no. 21"/><path d="M93.14961,0v13.22835" id="1/10th cm. Tick no. 22"/><path d="M96.92913,0v13.22835" id="1/10th cm. Tick no. 23"/><path d="M100.70866,0v13.22835" id="1/10th cm. Tick no. 24"/><path d="M104.48819,0v13.22835" id="1/10th cm. Tick no. 25"/><path d="M108.26772,0v13.22835" id="1/10th cm. Tick no. 26"/><path d="M112.04724,0v13.22835" id="1/10th cm. Tick no. 27"/><path d="M115.82677,0v13.22835" id="1/10th cm. Tick no. 28"/><path d="M119.6063,0v13.22835" id="1/10th cm. Tick no. 29"/><path d="M127.16535,0v13.22835" id="1/10th cm. Tick no. 31"/><path d="M130.94488,0v13.22835" id="1/10th cm. Tick no. 32"/><path d="M134.72441,0v13.22835" id="1/10th cm. Tick no. 33"/><path d="M138.50394,0v13.22835" id="1/10th cm. Tick no. 34"/><path d="M142.28346,0v13.22835" id="1/10th cm. Tick no. 35"/><path d="M146.06299,0v13.22835" id="1/10th cm. Tick no. 36"/><path d="M149.84252,0v13.22835" id="1/10th cm. Tick no. 37"/><path d="M153.62205,0v13.22835" id="1/10th cm. Tick no. 38"/><path d="M157.40157,0v13.22835" id="1/10th cm. Tick no. 39"/><path d="M164.96063,0v13.22835" id="1/10th cm. Tick no. 41"/><path d="M168.74016,0v13.22835" id="1/10th cm. Tick no. 42"/><path d="M172.51969,0v13.22835" id="1/10th cm. Tick no. 43"/><path d="M176.29921,0v13.22835" id="1/10th cm. Tick no. 44"/><path d="M180.07874,0v13.22835" id="1/10th cm. Tick no. 45"/><path d="M183.85827,0v13.22835" id="1/10th cm. Tick no. 46"/><path d="M187.6378,0v13.22835" id="1/10th cm. Tick no. 47"/><path d="M191.41732,0v13.22835" id="1/10th cm. Tick no. 48"/><path d="M195.19685,0v13.22835" id="1/10th cm. Tick no. 49"/><path d="M202.75591,0v13.22835" id="1/10th cm. Tick no. 51"/><path d="M206.53543,0v13.22835" id="1/10th cm. Tick no. 52"/><path d="M210.31496,0v13.22835" id="1/10th cm. Tick no. 53"/><path d="M214.09449,0v13.22835" id="1/10th cm. Tick no. 54"/><path d="M217.87402,0v13.22835" id="1/10th cm. Tick no. 55"/><path d="M221.65354,0v13.22835" id="1/10th cm. Tick no. 56"/><path d="M225.43307,0v13.22835" id="1/10th cm. Tick no. 57"/><path d="M229.2126,0v13.22835" id="1/10th cm. Tick no. 58"/><path d="M232.99213,0v13.22835" id="1/10th cm. Tick no. 59"/><path d="M240.55118,0v13.22835" id="1/10th cm. Tick no. 61"/><path d="M244.33071,0v13.22835" id="1/10th cm. Tick no. 62"/><path d="M248.11024,0v13.22835" id="1/10th cm. Tick no. 63"/><path d="M251.88976,0v13.22835" id="1/10th cm. Tick no. 64"/><path d="M255.66929,0v13.22835" id="1/10th cm. Tick no. 65"/><path d="M259.44882,0v13.22835" id="1/10th cm. Tick no. 66"/><path d="M263.22835,0v13.22835" id="1/10th cm. Tick no. 67"/><path d="M267.00787,0v13.22835" id="1/10th cm. Tick no. 68"/><path d="M270.7874,0v13.22835" id="1/10th cm. Tick no. 69"/><path d="M278.34646,0v13.22835" id="1/10th cm. Tick no. 71"/><path d="M282.12598,0v13.22835" id="1/10th cm. Tick no. 72"/><path d="M285.90551,0v13.22835" id="1/10th cm. Tick no. 73"/><path d="M289.68504,0v13.22835" id="1/10th cm. Tick no. 74"/><path d="M293.46457,0v13.22835" id="1/10th cm. Tick no. 75"/><path d="M297.24409,0v13.22835" id="1/10th cm. Tick no. 76"/><path d="M301.02362,0v13.22835" id="1/10th cm. Tick no. 77"/><path d="M304.80315,0v13.22835" id="1/10th cm. Tick no. 78"/><path d="M308.58268,0v13.22835" id="1/10th cm. Tick no. 79"/><path d="M316.14173,0v13.22835" id="1/10th cm. Tick no. 81"/><path d="M319.92126,0v13.22835" id="1/10th cm. Tick no. 82"/><path d="M323.70079,0v13.22835" id="1/10th cm. Tick no. 83"/><path d="M327.48031,0v13.22835" id="1/10th cm. Tick no. 84"/><path d="M331.25984,0v13.22835" id="1/10th cm. Tick no. 85"/><path d="M335.03937,0v13.22835" id="1/10th cm. Tick no. 86"/><path d="M338.8189,0v13.22835" id="1/10th cm. Tick no. 87"/><path d="M342.59843,0v13.22835" id="1/10th cm. Tick no. 88"/><path d="M346.37795,0v13.22835" id="1/10th cm. Tick no. 89"/><path d="M353.93701,0v13.22835" id="1/10th cm. Tick no. 91"/><path d="M357.71654,0v13.22835" id="1/10th cm. Tick no. 92"/><path d="M361.49606,0v13.22835" id="1/10th cm. Tick no. 93"/><path d="M365.27559,0v13.22835" id="1/10th cm. Tick no. 94"/><path d="M369.05512,0v13.22835" id="1/10th cm. Tick no. 95"/><path d="M372.83465,0v13.22835" id="1/10th cm. Tick no. 96"/><path d="M376.61417,0v13.22835" id="1/10th cm. Tick no. 97"/><path d="M380.3937,0v13.22835" id="1/10th cm. Tick no. 98"/><path d="M384.17323,0v13.22835" id="1/10th cm. Tick no. 99"/><path d="M391.73228,0v13.22835" id="1/10th cm. Tick no. 101"/><path d="M395.51181,0v13.22835" id="1/10th cm. Tick no. 102"/><path d="M399.29134,0v13.22835" id="1/10th cm. Tick no. 103"/><path d="M403.07087,0v13.22835" id="1/10th cm. Tick no. 104"/><path d="M406.85039,0v13.22835" id="1/10th cm. Tick no. 105"/><path d="M410.62992,0v13.22835" id="1/10th cm. Tick no. 106"/><path d="M414.40945,0v13.22835" id="1/10th cm. Tick no. 107"/><path d="M418.18898,0v13.22835" id="1/10th cm. Tick no. 108"/><path d="M421.9685,0v13.22835" id="1/10th cm. Tick no. 109"/><path d="M429.52756,0v13.22835" id="1/10th cm. Tick no. 111"/><path d="M433.30709,0v13.22835" id="1/10th cm. Tick no. 112"/><path d="M437.08661,0v13.22835" id="1/10th cm. Tick no. 113"/><path d="M440.86614,0v13.22835" id="1/10th cm. Tick no. 114"/><path d="M444.64567,0v13.22835" id="1/10th cm. Tick no. 115"/><path d="M448.4252,0v13.22835" id="1/10th cm. Tick no. 116"/><path d="M452.20472,0v13.22835" id="1/10th cm. Tick no. 117"/><path d="M455.98425,0v13.22835" id="1/10th cm. Tick no. 118"/><path d="M459.76378,0v13.22835" id="1/10th cm. Tick no. 119"/><path d="M467.32283,0v13.22835" id="1/10th cm. Tick no. 121"/><path d="M471.10236,0v13.22835" id="1/10th cm. Tick no. 122"/><path d="M474.88189,0v13.22835" id="1/10th cm. Tick no. 123"/><path d="M478.66142,0v13.22835" id="1/10th cm. Tick no. 124"/><path d="M482.44094,0v13.22835" id="1/10th cm. Tick no. 125"/><path d="M486.22047,0v13.22835" id="1/10th cm. Tick no. 126"/><path d="M490,0v13.22835" id="1/10th cm. Tick no. 127"/><path d="M493.77953,0v13.22835" id="1/10th cm. Tick no. 128"/><path d="M497.55906,0v13.22835" id="1/10th cm. Tick no. 129"/><path d="M505.11811,0v13.22835" id="1/10th cm. Tick no. 131"/><path d="M508.89764,0v13.22835" id="1/10th cm. Tick no. 132"/><path d="M512.67717,0v13.22835" id="1/10th cm. Tick no. 133"/><path d="M516.45669,0v13.22835" id="1/10th cm. Tick no. 134"/><path d="M520.23622,0v13.22835" id="1/10th cm. Tick no. 135"/><path d="M524.01575,0v13.22835" id="1/10th cm. Tick no. 136"/><path d="M527.79528,0v13.22835" id="1/10th cm. Tick no. 137"/><path d="M531.5748,0v13.22835" id="1/10th cm. Tick no. 138"/><path d="M535.35433,0v13.22835" id="1/10th cm. Tick no. 139"/><path d="M542.91339,0v13.22835" id="1/10th cm. Tick no. 141"/><path d="M546.69291,0v13.22835" id="1/10th cm. Tick no. 142"/><path d="M550.47244,0v13.22835" id="1/10th cm. Tick no. 143"/><path d="M554.25197,0v13.22835" id="1/10th cm. Tick no. 144"/><path d="M558.0315,0v13.22835" id="1/10th cm. Tick no. 145"/><path d="M561.81102,0v13.22835" id="1/10th cm. Tick no. 146"/><path d="M565.59055,0v13.22835" id="1/10th cm. Tick no. 147"/><path d="M569.37008,0v13.22835" id="1/10th cm. Tick no. 148"/><path d="M573.14961,0v13.22835" id="1/10th cm. Tick no. 149"/><path d="M580.70866,0v13.22835" id="1/10th cm. Tick no. 151"/><path d="M584.48819,0v13.22835" id="1/10th cm. Tick no. 152"/><path d="M588.26772,0v13.22835" id="1/10th cm. Tick no. 153"/><path d="M592.04724,0v13.22835" id="1/10th cm. Tick no. 154"/><path d="M595.82677,0v13.22835" id="1/10th cm. Tick no. 155"/><path d="M599.6063,0v13.22835" id="1/10th cm. Tick no. 156"/><path d="M603.38583,0v13.22835" id="1/10th cm. Tick no. 157"/><path d="M607.16535,0v13.22835" id="1/10th cm. Tick no. 158"/><path d="M610.94488,0v13.22835" id="1/10th cm. Tick no. 159"/><path d="M618.50394,0v13.22835" id="1/10th cm. Tick no. 161"/><path d="M622.28346,0v13.22835" id="1/10th cm. Tick no. 162"/><path d="M626.06299,0v13.22835" id="1/10th cm. Tick no. 163"/><path d="M629.84252,0v13.22835" id="1/10th cm. Tick no. 164"/><path d="M633.62205,0v13.22835" id="1/10th cm. Tick no. 165"/><path d="M637.40157,0v13.22835" id="1/10th cm. Tick no. 166"/><path d="M641.1811,0v13.22835" id="1/10th cm. Tick no. 167"/><path d="M644.96063,0v13.22835" id="1/10th cm. Tick no. 168"/><path d="M648.74016,0v13.22835" id="1/10th cm. Tick no. 169"/><path d="M656.29921,0v13.22835" id="1/10th cm. Tick no. 171"/><path d="M660.07874,0v13.22835" id="1/10th cm. Tick no. 172"/><path d="M663.85827,0v13.22835" id="1/10th cm. Tick no. 173"/><path d="M667.6378,0v13.22835" id="1/10th cm. Tick no. 174"/><path d="M671.41732,0v13.22835" id="1/10th cm. Tick no. 175"/><path d="M675.19685,0v13.22835" id="1/10th cm. Tick no. 176"/><path d="M678.97638,0v13.22835" id="1/10th cm. Tick no. 177"/><path d="M682.75591,0v13.22835" id="1/10th cm. Tick no. 178"/><path d="M686.53543,0v13.22835" id="1/10th cm. Tick no. 179"/><path d="M694.09449,0v13.22835" id="1/10th cm. Tick no. 181"/><path d="M697.87402,0v13.22835" id="1/10th cm. Tick no. 182"/><path d="M701.65354,0v13.22835" id="1/10th cm. Tick no. 183"/><path d="M705.43307,0v13.22835" id="1/10th cm. Tick no. 184"/><path d="M709.2126,0v13.22835" id="1/10th cm. Tick no. 185"/><path d="M712.99213,0v13.22835" id="1/10th cm. Tick no. 186"/><path d="M716.77165,0v13.22835" id="1/10th cm. Tick no. 187"/><path d="M720.55118,0v13.22835" id="1/10th cm. Tick no. 188"/><path d="M724.33071,0v13.22835" id="1/10th cm. Tick no. 189"/><path d="M731.88976,0v13.22835" id="1/10th cm. Tick no. 191"/><path d="M735.66929,0v13.22835" id="1/10th cm. Tick no. 192"/><path d="M739.44882,0v13.22835" id="1/10th cm. Tick no. 193"/><path d="M743.22835,0v13.22835" id="1/10th cm. Tick no. 194"/><path d="M747.00787,0v13.22835" id="1/10th cm. Tick no. 195"/><path d="M750.7874,0v13.22835" id="1/10th cm. Tick no. 196"/><path d="M754.56693,0v13.22835" id="1/10th cm. Tick no. 197"/><path d="M758.34646,0v13.22835" id="1/10th cm. Tick no. 198"/><path d="M762.12598,0v13.22835" id="1/10th cm. Tick no. 199"/></g></svg>