<svg version="1.1" xmlns="http://www.w3.org/2000/svg" xmlns:xlink="http://www.w3.org/1999/xlink" width="1940" height="98" viewBox="0,0,1940,98"><g id="1 &quot;in. Tick Group" fill="none" fill-rule="nonzero" stroke="none" stroke-width="none" stroke-linecap="butt" stroke-linejoin="miter" stroke-miterlimit="10" stroke-dasharray="" stroke-dashoffset="0" font-family="none" font-weight="none" font-size="none" text-anchor="none" style="mix-blend-mode: normal"><path d="M10,0v48" id="1 &quot;in. Tick no. 0" fill="none" stroke="#000000" stroke-width="1"/><text x="6" y="58" id="1 &quot;in. label no. 0" fill="#000000" stroke="none" stroke-width="1" font-family="monospace" font-weight="bold" font-size="12" text-anchor="start">0</text><path d="M106,0v48" id="1 &quot;in. Tick no. 1" fill="none" stroke="#000000" stroke-width="1"/><text x="102" y="58" id="1 &quot;in. label no. 1" fill="#000000" stroke="none" stroke-width="1" font-family="monospace" font-weight="bold" font-size="12" text-anchor="start">1</text><path d="M202,0v48" id="1 &quot;in. Tick no. 2" fill="none" stroke="#000000" stroke-width="1"/><text x="198" y="58" id="1 &quot;in. label no. 2" fill="#000000" stroke="none" stroke-width="1" font-family="monospace" font-weight="bold" font-size="12" text-anchor="start">2</text><path d="M298,0v48" id="1 &quot;in. Tick no. 3" fill="none" stroke="#000000" stroke-width="1"/><text x="294" y="58" id="1 &quot;in. label no. 3" fill="#000000" stroke="none" stroke-width="1" font-family="monospace" font-weight="bold" font-size="12" text-anchor="start">3</text><path d="M394,0v48" id="1 &quot;in. Tick no. 4" fill="none" stroke="#000000" stroke-width="1"/><text x="390" y="58" id="1 &quot;in. label no. 4" fill="#000000" stroke="none" stroke-width="1" font-family="monospace" font-weight="bold" font-size="12" text-anchor="start">4</text><path d="M490,0v48" id="1 &quot;in. Tick no. 5" fill="none" stroke="#000000" stroke-width="1"/><text x="486" y="58" id="1 &quot;in. label no. 5" fill="#000000" stroke="none" stroke-width="1" font-family="monospace" font-weight="bold" font-size="12" text-anchor="start">5</text><path d="M586,0v48" id="1 &quot;in. Tick no. 6" fill="none" stroke="#000000" stroke-width="1"/><text x="582" y="58" id="1 &quot;in. label no. 6" fill="#000000" stroke="none" stroke-width="1" font-family="monospace" font-weight="bold" font-size="12" text-anchor="start">6</text><path d="M682,0v48" id="1 &quot;in. Tick no. 7" fill="none" stroke="#000000" stroke-width="1"/><text x="678" y="58" id="1 &quot;in. label no. 7" fill="#000000" stroke="none" stroke-width="1" font-family="monospace" font-weight="bold" font-size="12" text-anchor="start">7</text><path d="M778,0v48" id="1 &quot;in. Tick no. 8" fill="none" stroke="#000000" stroke-width="1"/><text x="774" y="58" id="1 &quot;in. label no. 8" fill="#000000" stroke="none" stroke-width="1" font-family="monospace" font-weight="bold" font-size="12" text-anchor="start">8</text><path d="M874,0v48" id="1 &quot;in. Tick no. 9" fill="none" stroke="#000000" stroke-width="1"/><text x="870" y="58" id="1 &quot;in. label no. 9" fill="#000000" stroke="none" stroke-width="1" font-family="monospace" font-weight="bold" font-size="12" text-anchor="start">9</text><path d="M970,0v48" id="1 &quot;in. Tick no. 10" fill="none" stroke="#000000" stroke-width="1"/><text x="966" y="58" id="1 &quot;in. label no. 10" fill="#000000" stroke="none" stroke-width="1" font-family="monospace" font-weight="bold" font-size="12" text-anchor="start">10</text><path d="M1066,0v48" id="1 &quot;in. Tick no. 11" fill="none" stroke="#000000" stroke-width="1"/><text x="1062" y="58" id="1 &quot;in. label no. 11" fill="#000000" stroke="none" stroke-width="1" font-family="monospace" font-weight="bold" font-size="12" text-anchor="start">11</text><path d="M1162,0v48" id="1 &quot;in. Tick no. 12" fill="none" stroke="#000000" stroke-width="1"/><text x="1158" y="58" id="1 &quot;in. label no. 12" fill="#000000" stroke="none" stroke-width="1" font-family="monospace" font-weight="bold" font-size="12" text-anchor="start">12</text><path d="M1258,0v48" id="1 &quot;in. Tick no. 13" fill="none" stroke="#000000" stroke-width="1"/><text x="1254" y="58" id="1 &quot;in. label no. 13" fill="#000000" stroke="none" stroke-width="1" font-family="monospace" font-weight="bold" font-size="12" text-anchor="start">13</text><path d="M1354,0v48" id="1 &quot;in. Tick no. 14" fill="none" stroke="#000000" stroke-width="1"/><text x="1350" y="58" id="1 &quot;in. label no. 14" fill="#000000" stroke="none" stroke-width="1" font-family="monospace" font-weight="bold" font-size="12" text-anchor="start">14</text><path d="M1450,0v48" id="1 &quot;in. Tick no. 15" fill="none" stroke="#000000" stroke-width="1"/><text x="1446" y="58" id="1 &quot;in. label no. 15" fill="#000000" stroke="none" stroke-width="1" font-family="monospace" font-weight="bold" font-size="12" text-anchor="start">15</text><path d="M1546,0v48" id="1 &quot;in. Tick no. 16" fill="none" stroke="#000000" stroke-width="1"/><text x="1542" y="58" id="1 &quot;in. label no. 16" fill="#000000" stroke="none" stroke-width="1" font-family="monospace" font-weight="bold" font-size="12" text-anchor="start">16</text><path d="M1642,0v48" id="1 &quot;in. Tick no. 17" fill="none" stroke="#000000" stroke-width="1"/><text x="1638" y="58" id="1 &quot;in. label no. 17" fill="#000000" stroke="none" stroke-width="1" font-family="monospace" font-weight="bold" font-size="12" text-anchor="start">17</text><path d="M1738,0v48" id="1 &quot;in. Tick no. 18" fill="none" stroke="#000000" stroke-width="1"/><text x="1734" y="58" id="1 &quot;in. label no. 18" fill="#000000" stroke="none" stroke-width="1" font-family="monospace" font-weight="bold" font-size="12" text-anchor="start">18</text><path d="M1834,0v48" id="1 &quot;in. Tick no. 19" fill="none" stroke="#000000" stroke-width="1"/><text x="1830" y="58" id="1 &quot;in. label no. 19" fill="#000000" stroke="none" stroke-width="1" font-family="monospace" font-weight="bold" font-size="12" text-anchor="start">19</text><path d="M1930,0v48" id="1 &quot;in. Tick no. 20" fill="none" stroke="#000000" stroke-width="1"/><text x="1934" y="58" id="1 &quot;in. label no. 20" fill="#000000" stroke="none" stroke-width="1" font-family="monospace" font-weight="bold" font-size="12" text-anchor="end">20</text></g><g id="1/2 &quot;in. Tick Group" fill="none" fill-rule="nonzero" stroke="#000000" stroke-width="1" stroke-linecap="butt" stroke-linejoin="miter" stroke-miterlimit="10" stroke-dasharray="" stroke-dashoffset="0" font-family="none" font-weight="none" font-size="none" text-anchor="none" style="mix-blend-mode: normal"><path d="M58,0v33.6" id="1/2 &quot;in. Tick no. 1"/><path d="M154,0v33.6" id="1/2 &quot;in. Tick no. 3"/><path d="M250,0v33.6" id="1/2 &quot;in. Tick no. 5"/><path d="M346,0v33.6" id="1/2 &quot;in. Tick no. 7"/><path d="M442,0v33.6" id="1/2 &quot;in. Tick no. 9"/><path d="M538,0v33.6" id="1/2 &quot;in. Tick no. 11"/><path d="M634,0v33.6" id="1/2 &quot;in. Tick no. 13"/><path d="M730,0v33.6" id="1/2 &quot;in. Tick no. 15"/><path d="M826,0v33.6" id="1/2 &quot;in. Tick no. 17"/><path d="M922,0v33.6" id="1/2 &quot;in. Tick no. 19"/><path d="M1018,0v33.6" id="1/2 &quot;in. Tick no. 21"/><path d="M1114,0v33.6" id="1/2 &quot;in. Tick no. 23"/><path d="M1210,0v33.6" id="1/2 &quot;in. Tick no. 25"/><path d="M1306,0v33.6" id="1/2 &quot;in. Tick no. 27"/><path d="M1402,0v33.6" id="1/2 &quot;in. Tick no. 29"/><path d="M1498,0v33.6" id="1/2 &quot;in. Tick no. 31"/><path d="M1594,0v33.6" id="1/2 &quot;in. Tick no. 33"/><path d="M1690,0v33.6" id="1/2 &quot;in. Tick no. 35"/><path d="M1786,0v33.6" id="1/2 &quot;in. Tick no. 37"/><path d="M1882,0v33.6" id="1/2 &quot;in. Tick no. 39"/></g><g id="1/4 &quot;in. Tick Group" fill="none" fill-rule="nonzero" stroke="#000000" stroke-width="1" stroke-linecap="butt" stroke-linejoin="miter" stroke-miterlimit="10" stroke-dasharray="" stroke-dashoffset="0" font-family="none" font-weight="none" font-size="none" text-anchor="none" style="mix-blend-mode: normal"><path d="M34,0v23.52" id="1/4 &quot;in. Tick no. 1"/><path d="M82,0v23.52" id="1/4 &quot;in. Tick no. 3"/><path d="M130,0v23.52" id="1/4 &quot;in. Tick no. 5"/><path d="M178,0v23.52" id="1/4 &quot;in. Tick no. 7"/><path d="M226,0v23.52" id="1/4 &quot;in. Tick no. 9"/><path d="M274,0v23.52" id="1/4 &quot;in. Tick no. 11"/><path d="M322,0v23.52" id="1/4 &quot;in. Tick no. 13"/><path d="M370,0v23.52" id="1/4 &quot;in. Tick no. 15"/><path d="M418,0v23.52" id="1/4 &quot;in. Tick no. 17"/><path d="M466,0v23.52" id="1/4 &quot;in. Tick no. 19"/><path d="M514,0v23.52" id="1/4 &quot;in. Tick no. 21"/><path d="M562,0v23.52" id="1/4 &quot;in. Tick no. 23"/><path d="M610,0v23.52" id="1/4 &quot;in. Tick no. 25"/><path d="M658,0v23.52" id="1/4 &quot;in. Tick no. 27"/><path d="M706,0v23.52" id="1/4 &quot;in. Tick no. 29"/><path d="M754,0v23.52" id="1/4 &quot;in. Tick no. 31"/><path d="M802,0v23.52" id="1/4 &quot;in. Tick no. 33"/><path d="M850,0v23.52" id="1/4 &quot;in. Tick no. 35"/><path d="M898,0v23.52" id="1/4 &quot;in. Tick no. 37"/><path d="M946,0v23.52" id="1/4 &quot;in. Tick no. 39"/><path d="M994,0v23.52" id="1/4 &quot;in. Tick no. 41"/><path d="M1042,0v23.52" id="1/4 &quot;in. Tick no. 43"/><path d="M1090,0v23.52" id="1/4 &quot;in. Tick no. 45"/><path d="M1138,0v23.52" id="1/4 &quot;in. Tick no. 47"/><path d="M1186,0v23.52" id="1/4 &quot;in. Tick no. 49"/><path d="M1234,0v23.52" id="1/4 &quot;in. Tick no. 51"/><path d="M1282,0v23.52" id="1/4 &quot;in. Tick no. 53"/><path d="M1330,0v23.52" id="1/4 &quot;in. Tick no. 55"/><path d="M1378,0v23.52" id="1/4 &quot;in. Tick no. 57"/><path d="M1426,0v23.52" id="1/4 &quot;in. Tick no. 59"/><path d="M1474,0v23.52" id="1/4 &quot;in. Tick no. 61"/><path d="M1522,0v23.52" id="1/4 &quot;in. Tick no. 63"/><path d="M1570,0v23.52" id="1/4 &quot;in. Tick no. 65"/><path d="M1618,0v23.52" id="1/4 &quot;in. Tick no. 67"/><path d="M1666,0v23.52" id="1/4 &quot;in. Tick no. 69"/><path d="M1714,0v23.52" id="1/4 &quot;in. Tick no. 71"/><path d="M1762,0v23.52" id="1/4 &quot;in. Tick no. 73"/><path d="M1810,0v23.52" id="1/4 &quot;in. Tick no. 75"/><path d="M1858,0v23.52" id="1/4 &quot;in. Tick no. 77"/><path d="M1906,0v23.52" id="1/4 &quot;in. Tick no. 79"/></g><g id="1/8 &quot;in. Tick Group" fill="none" fill-rule="nonzero" stroke="#000000" stroke-width="1" stroke-linecap="butt" stroke-linejoin="miter" stroke-miterlimit="10" stroke-dasharray="" stroke-dashoffset="0" font-family="none" font-weight="none" font-size="none" text-anchor="none" style="mix-blend-mode: normal"><path d="M22,0v16.464" id="1/8 &quot;in. Tick no. 1"/><path d="M46,0v16.464" id="1/8 &quot;in. Tick no. 3"/><path d="M70,0v16.464" id="1/8 &quot;in. Tick no. 5"/><path d="M94,0v16.464" id="1/8 &quot;in. Tick no. 7"/><path d="M118,0v16.464" id="1/8 &quot;in. Tick no. 9"/><path d="M142,0v16.464" id="1/8 &quot;in. Tick no. 11"/><path d="M166,0v16.464" id="1/8 &quot;in. Tick no. 13"/><path d="M190,0v16.464" id="1/8 &quot;in. Tick no. 15"/><path d="M214,0v16.464" id="1/8 &quot;in. Tick no. 17"/><path d="M238,0v16.464" id="1/8 &quot;in. Tick no. 19"/><path d="M262,0v16.464" id="1/8 &quot;in. Tick no. 21"/><path d="M286,0v16.464" id="1/8 &quot;in. Tick no. 23"/><path d="M310,0v16.464" id="1/8 &quot;in. Tick no. 25"/><path d="M334,0v16.464" id="1/8 &quot;in. Tick no. 27"/><path d="M358,0v16.464" id="1/8 &quot;in. Tick no. 29"/><path d="M382,0v16.464" id="1/8 &quot;in. Tick no. 31"/><path d="M406,0v16.464" id="1/8 &quot;in. Tick no. 33"/><path d="M430,0v16.464" id="1/8 &quot;in. Tick no. 35"/><path d="M454,0v16.464" id="1/8 &quot;in. Tick no. 37"/><path d="M478,0v16.464" id="1/8 &quot;in. Tick no. 39"/><path d="M502,0v16.464" id="1/8 &quot;in. Tick no. 41"/><path d="M526,0v16.464" id="1/8 &quot;in. Tick no. 43"/><path d="M550,0v16.464" id="1/8 &quot;in. Tick no. 45"/><path d="M574,0v16.464" id="1/8 &quot;in. Tick no. 47"/><path d="M598,0v16.464" id="1/8 &quot;in. Tick no. 49"/><path d="M622,0v16.464" id="1/8 &quot;in. Tick no. 51"/><path d="M646,0v16.464" id="1/8 &quot;in. Tick no. 53"/><path d="M670,0v16.464" id="1/8 &quot;in. Tick no. 55"/><path d="M694,0v16.464" id="1/8 &quot;in. Tick no. 57"/><path d="M718,0v16.464" id="1/8 &quot;in. Tick no. 59"/><path d="M742,0v16.464" id="1/8 &quot;in. Tick no. 61"/><path d="M766,0v16.464" id="1/8 &quot;in. Tick no. 63"/><path d="M790,0v16.464" id="1/8 &quot;in. Tick no. 65"/><path d="M814,0v16.464" id="1/8 &quot;in. Tick no. 67"/><path d="M838,0v16.464" id="1/8 &quot;in. Tick no. 69"/><path d="M862,0v16.464" id="1/8 &quot;in. Tick no. 71"/><path d="M886,0v16.464" id="1/8 &quot;in. Tick no. 73"/><path d="M910,0v16.464" id="1/8 &quot;in. Tick no. 75"/><path d="M934,0v16.464" id="1/8 &quot;in. Tick no. 77"/><path d="M958,0v16.464" id="1/8 &quot;in. Tick no. 79"/><path d="M982,0v16.464" id="1/8 &quot;in. Tick no. 81"/><path d="M1006,0v16.464" id="1/8 &quot;in. Tick no. 83"/><path d="M1030,0v16.464" id="1/8 &quot;in. Tick no. 85"/><path d="M1054,0v16.464" id="1/8 &quot;in. Tick no. 87"/><path d="M1078,0v16.464" id="1/8 &quot;in. Tick no. 89"/><path d="M1102,0v16.464" id="1/8 &quot;in. Tick no. 91"/><path d="M1126,0v16.464" id="1/8 &quot;in. Tick no. 93"/><path d="M1150,0v16.464" id="1/8 &quot;in. Tick no. 95"/><path d="M1174,0v16.464" id="1/8 &quot;in. Tick no. 97"/><path d="M1198,0v16.464" id="1/8 &quot;in. Tick no. 99"/><path d="M1222,0v16.464" id="1/8 &quot;in. Tick no. 101"/><path d="M1246,0v16.464" id="1/8 &quot;in. Tick no. 103"/><path d="M1270,0v16.464" id="1/8 &quot;in. Tick no. 105"/><path d="M1294,0v16.464" id="1/8 &quot;in. Tick no. 107"/><path d="M1318,0v16.464" id="1/8 &quot;in. Tick no. 109"/><path d="M1342,0v16.464" id="1/8 &quot;in. Tick no. 111"/><path d="M1366,0v16.464" id="1/8 &quot;in. Tick no. 113"/><path d="M1390,0v16.464" id="1/8 &quot;in. Tick no. 115"/><path d="M1414,0v16.464" id="1/8 &quot;in. Tick no. 117"/><path d="M1438,0v16.464" id="1/8 &quot;in. Tick no. 119"/><path d="M1462,0v16.464" id="1/8 &quot;in. Tick no. 121"/><path d="M1486,0v16.464" id="1/8 &quot;in. Tick no. 123"/><path d="M1510,0v16.464" id="1/8 &quot;in. Tick no. 125"/><path d="M1534,0v16.464" id="1/8 &quot;in. Tick no. 127"/><path d="M1558,0v16.464" id="1/8 &quot;in. Tick no. 129"/><path d="M1582,0v16.464" id="1/8 &quot;in. Tick no. 131"/><path d="M1606,0v16.464" id="1/8 &quot;in. Tick no. 133"/><path d="M1630,0v16.464" id="1/8 &quot;in. Tick no. 135"/><path d="M1654,0v16.464" id="1/8 &quot;in. Tick no. 137"/><path d="M1678,0v16.464" id="1/8 &quot;in. Tick no. 139"/><path d="M1702,0v16.464" id="1/8 &quot;in. Tick no. 141"/><path d="M1726,0v16.464" id="1/8 &quot;in. Tick no. 143"/><path d="M1750,0v16.464" id="1/8 &quot;in. Tick no. 145"/><path d="M1774,0v16.464" id="1/8 &quot;in. Tick no. 147"/><path d="M1798,0v16.464" id="1/8 &quot;in. Tick no. 149"/><path d="M1822,0v16.464" id="1/8 &quot;in. Tick no. 151"/><path d="M1846,0v16.464" id="1/8 &quot;in. Tick no. 153"/><path d="M1870,0v16.464" id="1/8 &quot;in. Tick no. 155"/><path d="M1894,0v16.464" id="1/8 &quot;in. Tick no. 157"/><path d="M1918,0v16.464" id="1/8 &quot;in. Tick no. 159"/></g><g id="1/16 &quot;in. Tick Group" fill="none" fill-rule="nonzero" stroke="#000000" stroke-width="1" stroke-linecap="butt" stroke-linejoin="miter" stroke-miterlimit="10" stroke-dasharray="" stroke-dashoffset="0" font-family="none" font-weight="none" font-size="none" text-anchor="none" style="mix-blend-mode: normal"><path d="M16,0v11.5248" id="1/16 &quot;in. Tick no. 1"/><path d="M28,0v11.5248" id="1/16 &quot;in. Tick no. 3"/><path d="M40,0v11.5248" id="1/16 &quot;in. Tick no. 5"/><path d="M52,0v11.5248" id="1/16 &quot;in. Tick no. 7"/><path d="M64,0v11.5248" id="1/16 &quot;in. Tick no. 9"/><path d="M76,0v11.5248" id="1/16 &quot;in. Tick no. 11"/><path d="M88,0v11.5248" id="1/16 &quot;in. Tick no. 13"/><path d="M100,0v11.5248" id="1/16 &quot;in. Tick no. 15"/><path d="M112,0v11.5248" id="1/16 &quot;in. Tick no. 17"/><path d="M124,0v11.5248" id="1/16 &quot;in. Tick no. 19"/><path d="M136,0v11.5248" id="1/16 &quot;in. Tick no. 21"/><path d="M148,0v11.5248" id="1/16 &quot;in. Tick no. 23"/><path d="M160,0v11.5248" id="1/16 &quot;in. Tick no. 25"/><path d="M172,0v11.5248" id="1/16 &quot;in. Tick no. 27"/><path d="M184,0v11.5248" id="1/16 &quot;in. Tick no. 29"/><path d="M196,0v11.5248" id="1/16 &quot;in. Tick no. 31"/><path d="M208,0v11.5248" id="1/16 &quot;in. Tick no. 33"/><path d="M220,0v11.5248" id="1/16 &quot;in. Tick no. 35"/><path d="M232,0v11.5248" id="1/16 &quot;in. Tick no. 37"/><path d="M244,0v11.5248" id="1/16 &quot;in. Tick no. 39"/><path d="M256,0v11.5248" id="1/16 &quot;in. Tick no. 41"/><path d="M268,0v11.5248" id="1/16 &quot;in. Tick no. 43"/><path d="M280,0v11.5248" id="1/16 &quot;in. Tick no. 45"/><path d="M292,0v11.5248" id="1/16 &quot;in. Tick no. 47"/><path d="M304,0v11.5248" id="1/16 &quot;in. Tick no. 49"/><path d="M316,0v11.5248" id="1/16 &quot;in. Tick no. 51"/><path d="M328,0v11.5248" id="1/16 &quot;in. Tick no. 53"/><path d="M340,0v11.5248" id="1/16 &quot;in. Tick no. 55"/><path d="M352,0v11.5248" id="1/16 &quot;in. Tick no. 57"/><path d="M364,0v11.5248" id="1/16 &quot;in. Tick no. 59"/><path d="M376,0v11.5248" id="1/16 &quot;in. Tick no. 61"/><path d="M388,0v11.5248" id="1/16 &quot;in. Tick no. 63"/><path d="M400,0v11.5248" id="1/16 &quot;in. Tick no. 65"/><path d="M412,0v11.5248" id="1/16 &quot;in. Tick no. 67"/><path d="M424,0v11.5248" id="1/16 &quot;in. Tick no. 69"/><path d="M436,0v11.5248" id="1/16 &quot;in. Tick no. 71"/><path d="M448,0v11.5248" id="1/16 &quot;in. Tick no. 73"/><path d="M460,0v11.5248" id="1/16 &quot;in. Tick no. 75"/><path d="M472,0v11.5248" id="1/16 &quot;in. Tick no. 77"/><path d="M484,0v11.5248" id="1/16 &quot;in. Tick no. 79"/><path d="M496,0v11.5248" id="1/16 &quot;in. Tick no. 81"/><path d="M508,0v11.5248" id="1/16 &quot;in. Tick no. 83"/><path d="M520,0v11.5248" id="1/16 &quot;in. Tick no. 85"/><path d="M532,0v11.5248" id="1/16 &quot;in. Tick no. 87"/><path d="M544,0v11.5248" id="1/16 &quot;in. Tick no. 89"/><path d="M556,0v11.5248" id="1/16 &quot;in. Tick no. 91"/><path d="M568,0v11.5248" id="1/16 &quot;in. Tick no. 93"/><path d="M580,0v11.5248" id="1/16 &quot;in. Tick no. 95"/><path d="M592,0v11.5248" id="1/16 &quot;in. Tick no. 97"/><path d="M604,0v11.5248" id="1/16 &quot;in. Tick no. 99"/><path d="M616,0v11.5248" id="1/16 &quot;in. Tick no. 101"/><path d="M628,0v11.5248" id="1/16 &quot;in. Tick no. 103"/><path d="M640,0v11.5248" id="1/16 &quot;in. Tick no. 105"/><path d="M652,0v11.5248" id="1/16 &quot;in. Tick no. 107"/><path d="M664,0v11.5248" id="1/16 &quot;in. Tick no. 109"/><path d="M676,0v11.5248" id="1/16 &quot;in. Tick no. 111"/><path d="M688,0v11.5248" id="1/16 &quot;in. Tick no. 113"/><path d="M700,0v11.5248" id="1/16 &quot;in. Tick no. 115"/><path d="M712,0v11.5248" id="1/16 &quot;in. Tick no. 117"/><path d="M724,0v11.5248" id="1/16 &quot;in. Tick no. 119"/><path d="M736,0v11.5248" id="1/16 &quot;in. Tick no. 121"/><path d="M748,0v11.5248" id="1/16 &quot;in. Tick no. 123"/><path d="M760,0v11.5248" id="1/16 &quot;in. Tick no. 125"/><path d="M772,0v11.5248" id="1/16 &quot;in. Tick no. 127"/><path d="M784,0v11.5248" id="1/16 &quot;in. Tick no. 129"/><path d="M796,0v11.5248" id="1/16 &quot;in. Tick no. 131"/><path d="M808,0v11.5248" id="1/16 &quot;in. Tick no. 133"/><path d="M820,0v11.5248" id="1/16 &quot;in. Tick no. 135"/><path d="M832,0v11.5248" id="1/16 &quot;in. Tick no. 137"/><path d="M844,0v11.5248" id="1/16 &quot;in. Tick no. 139"/><path d="M856,0v11.5248" id="1/16 &quot;in. Tick no. 141"/><path d="M868,0v11.5248" id="1/16 &quot;in. Tick no. 143"/><path d="M880,0v11.5248" id="1/16 &quot;in. Tick no. 145"/><path d="M892,0v11.5248" id="1/16 &quot;in. Tick no. 147"/><path d="M904,0v11.5248" id="1/16 &quot;in. Tick no. 149"/><path d="M916,0v11.5248" id="1/16 &quot;in. Tick no. 151"/><path d="M928,0v11.5248" id="1/16 &quot;in. Tick no. 153"/><path d="M940,0v11.5248" id="1/16 &quot;in. Tick no. 155"/><path d="M952,0v11.5248" id="1/16 &quot;in. Tick no. 157"/><path d="M964,0v11.5248" id="1/16 &quot;in. Tick no. 159"/><path d="M976,0v11.5248" id="1/16 &quot;in. Tick no. 161"/><path d="M988,0v11.5248" id="1/16 &quot;in. Tick no. 163"/><path d="M1000,0v11.5248" id="1/16 &quot;in. Tick no. 165"/><path d="M1012,0v11.5248" id="1/16 &quot;in. Tick no. 167"/><path d="M1024,0v11.5248" id="1/16 &quot;in. Tick no. 169"/><path d="M1036,0v11.5248" id="1/16 &quot;in. Tick no. 171"/><path d="M1048,0v11.5248" id="1/16 &quot;in. Tick no. 173"/><path d="M1060,0v11.5248" id="1/16 &quot;in. Tick no. 175"/><path d="M1072,0v11.5248" id="1/16 &quot;in. Tick no. 177"/><path d="M1084,0v11.5248" id="1/16 &quot;in. Tick no. 179"/><path d="M1096,0v11.5248" id="1/16 &quot;in. Tick no. 181"/><path d="M1108,0v11.5248" id="1/16 &quot;in. Tick no. 183"/><path d="M1120,0v11.5248" id="1/16 &quot;in. Tick no. 185"/><path d="M1132,0v11.5248" id="1/16 &quot;in. Tick no. 187"/><path d="M1144,0v11.5248" id="1/16 &quot;in. Tick no. 189"/><path d="M1156,0v11.5248" id="1/16 &quot;in. Tick no. 191"/><path d="M1168,0v11.5248" id="1/16 &quot;in. Tick no. 193"/><path d="M1180,0v11.5248" id="1/16 &quot;in. Tick no. 195"/><path d="M1192,0v11.5248" id="1/16 &quot;in. Tick no. 197"/><path d="M1204,0v11.5248" id="1/16 &quot;in. Tick no. 199"/><path d="M1216,0v11.5248" id="1/16 &quot;in. Tick no. 201"/><path d="M1228,0v11.5248" id="1/16 &quot;in. Tick no. 203"/><path d="M1240,0v11.5248" id="1/16 &quot;in. Tick no. 205"/><path d="M1252,0v11.5248" id="1/16 &quot;in. Tick no. 207"/><path d="M1264,0v11.5248" id="1/16 &quot;in. Tick no. 209"/><path d="M1276,0v11.5248" id="1/16 &quot;in. Tick no. 211"/><path d="M1288,0v11.5248" id="1/16 &quot;in. Tick no. 213"/><path d="M1300,0v11.5248" id="1/16 &quot;in. Tick no. 215"/><path d="M1312,0v11.5248" id="1/16 &quot;in. Tick no. 217"/><path d="M1324,0v11.5248" id="1/16 &quot;in. Tick no. 219"/><path d="M1336,0v11.5248" id="1/16 &quot;in. Tick no. 221"/><path d="M1348,0v11.5248" id="1/16 &quot;in. Tick no. 223"/><path d="M1360,0v11.5248" id="1/16 &quot;in. Tick no. 225"/><path d="M1372,0v11.5248" id="1/16 &quot;in. Tick no. 227"/><path d="M1384,0v11.5248" id="1/16 &quot;in. Tick no. 229"/><path d="M1396,0v11.5248" id="1/16 &quot;in. Tick no. 231"/><path d="M1408,0v11.5248" id="1/16 &quot;in. Tick no. 233"/><path d="M1420,0v11.5248" id="1/16 &quot;in. Tick no. 235"/><path d="M1432,0v11.5248" id="1/16 &quot;in. Tick no. 237"/><path d="M1444,0v11.5248" id="1/16 &quot;in. Tick no. 239"/><path d="M1456,0v11.5248" id="1/16 &quot;in. Tick no. 241"/><path d="M1468,0v11.5248" id="1/16 &quot;in. Tick no. 243"/><path d="M1480,0v11.5248" id="1/16 &quot;in. Tick no. 245"/><path d="M1492,0v11.5248" id="1/16 &quot;in. Tick no. 247"/><path d="M1504,0v11.5248" id="1/16 &quot;in. Tick no. 249"/><path d="M1516,0v11.5248" id="1/16 &quot;in. Tick no. 251"/><path d="M1528,0v11.5248" id="1/16 &quot;in. Tick no. 253"/><path d="M1540,0v11.5248" id="1/16 &quot;in. Tick no. 255"/><path d="M1552,0v11.5248" id="1/16 &quot;in. Tick no. 257"/><path d="M1564,0v11.5248" id="1/16 &quot;in. Tick no. 259"/><path d="M1576,0v11.5248" id="1/16 &quot;in. Tick no. 261"/><path d="M1588,0v11.5248" id="1/16 &quot;in. Tick no. 263"/><path d="M1600,0v11.5248" id="1/16 &quot;in. Tick no. 265"/><path d="M1612,0v11.5248" id="1/16 &quot;in. Tick no. 267"/><path d="M1624,0v11.5248" id="1/16 &quot;in. Tick no. 269"/><path d="M1636,0v11.5248" id="1/16 &quot;in. Tick no. 271"/><path d="M1648,0v11.5248" id="1/16 &quot;in. Tick no. 273"/><path d="M1660,0v11.5248" id="1/16 &quot;in. Tick no. 275"/><path d="M1672,0v11.5248" id="1/16 &quot;in. Tick no. 277"/><path d="M1684,0v11.5248" id="1/16 &quot;in. Tick no. 279"/><path d="M1696,0v11.5248" id="1/16 &quot;in. Tick no. 281"/><path d="M1708,0v11.5248" id="1/16 &quot;in. Tick no. 283"/><path d="M1720,0v11.5248" id="1/16 &quot;in. Tick no. 285"/><path d="M1732,0v11.5248" id="1/16 &quot;in. Tick no. 287"/><path d="M1744,0v11.5248" id="1/16 &quot;in. Tick no. 289"/><path d="M1756,0v11.5248" id="1/16 &quot;in. Tick no. 291"/><path d="M1768,0v11.5248" id="1/16 &quot;in. Tick no. 293"/><path d="M1780,0v11.5248" id="1/16 &quot;in. Tick no. 295"/><path d="M1792,0v11.5248" id="1/16 &quot;in. Tick no. 297"/><path d="M1804,0v11.5248" id="1/16 &quot;in. Tick no. 299"/><path d="M1816,0v11.5248" id="1/16 &quot;in. Tick no. 301"/><path d="M1828,0v11.5248" id="1/16 &quot;in. Tick no. 303"/><path d="M1840,0v11.5248" id="1/16 &quot;in. Tick no. 305"/><path d="M1852,0v11.5248" id="1/16 &quot;in. Tick no. 307"/><path d="M1864,0v11.5248" id="1/16 &quot;in. Tick no. 309"/><path d="M1876,0v11.5248" id="1/16 &quot;in. Tick no. 311"/><path d="M1888,0v11.5248" id="1/16 &quot;in. Tick no. 313"/><path d="M1900,0v11.5248" id="1/16 &quot;in. Tick no. 315"/><path d="M1912,0v11.5248" id="1/16 &quot;in. Tick no. 317"/><path d="M1924,0v11.5248" id="1/16 &quot;in. Tick no. 319"/></g><g id="1/32 &quot;in. Tick Group" fill="none" fill-rule="nonzero" stroke="#000000" stroke-width="1" stroke-linecap="butt" stroke-linejoin="miter" stroke-miterlimit="10" stroke-dasharray="" stroke-dashoffset="0" font-family="none" font-weight="none" font-size="none" text-anchor="none" style="mix-blend-mode: normal"><path d="M13,0v8.06736" id="1/32 &quot;in. Tick no. 1"/><path d="M19,0v8.06736" id="1/32 &quot;in. Tick no. 3"/><path d="M25,0v8.06736" id="1/32 &quot;in. Tick no. 5"/><path d="M31,0v8.06736" id="1/32 &quot;in. Tick no. 7"/><path d="M37,0v8.06736" id="1/32 &quot;in. Tick no. 9"/><path d="M43,0v8.06736" id="1/32 &quot;in. Tick no. 11"/><path d="M49,0v8.06736" id="1/32 &quot;in. Tick no. 13"/><path d="M55,0v8.06736" id="1/32 &quot;in. Tick no. 15"/><path d="M61,0v8.06736" id="1/32 &quot;in. Tick no. 17"/><path d="M67,0v8.06736" id="1/32 &quot;in. Tick no. 19"/><path d="M73,0v8.06736" id="1/32 &quot;in. Tick no. 21"/><path d="M79,0v8.06736" id="1/32 &quot;in. Tick no. 23"/><path d="M85,0v8.06736" id="1/32 &quot;in. Tick no. 25"/><path d="M91,0v8.06736" id="1/32 &quot;in. Tick no. 27"/><path d="M97,0v8.06736" id="1/32 &quot;in. Tick no. 29"/><path d="M103,0v8.06736" id="1/32 &quot;in. Tick no. 31"/><path d="M109,0v8.06736" id="1/32 &quot;in. Tick no. 33"/><path d="M115,0v8.06736" id="1/32 &quot;in. Tick no. 35"/><path d="M121,0v8.06736" id="1/32 &quot;in. Tick no. 37"/><path d="M127,0v8.06736" id="1/32 &quot;in. Tick no. 39"/><path d="M133,0v8.06736" id="1/32 &quot;in. Tick no. 41"/><path d="M139,0v8.06736" id="1/32 &quot;in. Tick no. 43"/><path d="M145,0v8.06736" id="1/32 &quot;in. Tick no. 45"/><path d="M151,0v8.06736" id="1/32 &quot;in. Tick no. 47"/><path d="M157,0v8.06736" id="1/32 &quot;in. Tick no. 49"/><path d="M163,0v8.06736" id="1/32 &quot;in. Tick no. 51"/><path d="M169,0v8.06736" id="1/32 &quot;in. Tick no. 53"/><path d="M175,0v8.06736" id="1/32 &quot;in. Tick no. 55"/><path d="M181,0v8.06736" id="1/32 &quot;in. Tick no. 57"/><path d="M187,0v8.06736" id="1/32 &quot;in. Tick no. 59"/><path d="M193,0v8.06736" id="1/32 &quot;in. Tick no. 61"/><path d="M199,0v8.06736" id="1/32 &quot;in. Tick no. 63"/><path d="M205,0v8.06736" id="1/32 &quot;in. Tick no. 65"/><path d="M211,0v8.06736" id="1/32 &quot;in. Tick no. 67"/><path d="M217,0v8.06736" id="1/32 &quot;in. Tick no. 69"/><path d="M223,0v8.06736" id="1/32 &quot;in. Tick no. 71"/><path d="M229,0v8.06736" id="1/32 &quot;in. Tick no. 73"/><path d="M235,0v8.06736" id="1/32 &quot;in. Tick no. 75"/><path d="M241,0v8.06736" id="1/32 &quot;in. Tick no. 77"/><path d="M247,0v8.06736" id="1/32 &quot;in. Tick no. 79"/><path d="M253,0v8.06736" id="1/32 &quot;in. Tick no. 81"/><path d="M259,0v8.06736" id="1/32 &quot;in. Tick no. 83"/><path d="M265,0v8.06736" id="1/32 &quot;in. Tick no. 85"/><path d="M271,0v8.06736" id="1/32 &quot;in. Tick no. 87"/><path d="M277,0v8.06736" id="1/32 &quot;in. Tick no. 89"/><path d="M283,0v8.06736" id="1/32 &quot;in. Tick no. 91"/><path d="M289,0v8.06736" id="1/32 &quot;in. Tick no. 93"/><path d="M295,0v8.06736" id="1/32 &quot;in. Tick no. 95"/><path d="M301,0v8.06736" id="1/32 &quot;in. Tick no. 97"/><path d="M307,0v8.06736" id="1/32 &quot;in. Tick no. 99"/><path d="M313,0v8.06736" id="1/32 &quot;in. Tick no. 101"/><path d="M319,0v8.06736" id="1/32 &quot;in. Tick no. 103"/><path d="M325,0v8.06736" id="1/32 &quot;in. Tick no. 105"/><path d="M331,0v8.06736" id="1/32 &quot;in. Tick no. 107"/><path d="M337,0v8.06736" id="1/32 &quot;in. Tick no. 109"/><path d="M343,0v8.06736" id="1/32 &quot;in. Tick no. 111"/><path d="M349,0v8.06736" id="1/32 &quot;in. Tick no. 113"/><path d="M355,0v8.06736" id="1/32 &quot;in. Tick no. 115"/><path d="M361,0v8.06736" id="1/32 &quot;in. Tick no. 117"/><path d="M367,0v8.06736" id="1/32 &quot;in. Tick no. 119"/><path d="M373,0v8.06736" id="1/32 &quot;in. Tick no. 121"/><path d="M379,0v8.06736" id="1/32 &quot;in. Tick no. 123"/><path d="M385,0v8.06736" id="1/32 &quot;in. Tick no. 125"/><path d="M391,0v8.06736" id="1/32 &quot;in. Tick no. 127"/><path d="M397,0v8.06736" id="1/32 &quot;in. Tick no. 129"/><path d="M403,0v8.06736" id="1/32 &quot;in. Tick no. 131"/><path d="M409,0v8.06736" id="1/32 &quot;in. Tick no. 133"/><path d="M415,0v8.06736" id="1/32 &quot;in. Tick no. 135"/><path d="M421,0v8.06736" id="1/32 &quot;in. Tick no. 137"/><path d="M427,0v8.06736" id="1/32 &quot;in. Tick no. 139"/><path d="M433,0v8.06736" id="1/32 &quot;in. Tick no. 141"/><path d="M439,0v8.06736" id="1/32 &quot;in. Tick no. 143"/><path d="M445,0v8.06736" id="1/32 &quot;in. Tick no. 145"/><path d="M451,0v8.06736" id="1/32 &quot;in. Tick no. 147"/><path d="M457,0v8.06736" id="1/32 &quot;in. Tick no. 149"/><path d="M463,0v8.06736" id="1/32 &quot;in. Tick no. 151"/><path d="M469,0v8.06736" id="1/32 &quot;in. Tick no. 153"/><path d="M475,0v8.06736" id="1/32 &quot;in. Tick no. 155"/><path d="M481,0v8.06736" id="1/32 &quot;in. Tick no. 157"/><path d="M487,0v8.06736" id="1/32 &quot;in. Tick no. 159"/><path d="M493,0v8.06736" id="1/32 &quot;in. Tick no. 161"/><path d="M499,0v8.06736" id="1/32 &quot;in. Tick no. 163"/><path d="M505,0v8.06736" id="1/32 &quot;in. Tick no. 165"/><path d="M511,0v8.06736" id="1/32 &quot;in. Tick no. 167"/><path d="M517,0v8.06736" id="1/32 &quot;in. Tick no. 169"/><path d="M523,0v8.06736" id="1/32 &quot;in. Tick no. 171"/><path d="M529,0v8.06736" id="1/32 &quot;in. Tick no. 173"/><path d="M535,0v8.06736" id="1/32 &quot;in. Tick no. 175"/><path d="M541,0v8.06736" id="1/32 &quot;in. Tick no. 177"/><path d="M547,0v8.06736" id="1/32 &quot;in. Tick no. 179"/><path d="M553,0v8.06736" id="1/32 &quot;in. Tick no. 181"/><path d="M559,0v8.06736" id="1/32 &quot;in. Tick no. 183"/><path d="M565,0v8.06736" id="1/32 &quot;in. Tick no. 185"/><path d="M571,0v8.06736" id="1/32 &quot;in. Tick no. 187"/><path d="M577,0v8.06736" id="1/32 &quot;in. Tick no. 189"/><path d="M583,0v8.06736" id="1/32 &quot;in. Tick no. 191"/><path d="M589,0v8.06736" id="1/32 &quot;in. Tick no. 193"/><path d="M595,0v8.06736" id="1/32 &quot;in. Tick no. 195"/><path d="M601,0v8.06736" id="1/32 &quot;in. Tick no. 197"/><path d="M607,0v8.06736" id="1/32 &quot;in. Tick no. 199"/><path d="M613,0v8.06736" id="1/32 &quot;in. Tick no. 201"/><path d="M619,0v8.06736" id="1/32 &quot;in. Tick no. 203"/><path d="M625,0v8.06736" id="1/32 &quot;in. Tick no. 205"/><path d="M631,0v8.06736" id="1/32 &quot;in. Tick no. 207"/><path d="M637,0v8.06736" id="1/32 &quot;in. Tick no. 209"/><path d="M643,0v8.06736" id="1/32 &quot;in. Tick no. 211"/><path d="M649,0v8.06736" id="1/32 &quot;in. Tick no. 213"/><path d="M655,0v8.06736" id="1/32 &quot;in. Tick no. 215"/><path d="M661,0v8.06736" id="1/32 &quot;in. Tick no. 217"/><path d="M667,0v8.06736" id="1/32 &quot;in. Tick no. 219"/><path d="M673,0v8.06736" id="1/32 &quot;in. Tick no. 221"/><path d="M679,0v8.06736" id="1/32 &quot;in. Tick no. 223"/><path d="M685,0v8.06736" id="1/32 &quot;in. Tick no. 225"/><path d="M691,0v8.06736" id="1/32 &quot;in. Tick no. 227"/><path d="M697,0v8.06736" id="1/32 &quot;in. Tick no. 229"/><path d="M703,0v8.06736" id="1/32 &quot;in. Tick no. 231"/><path d="M709,0v8.06736" id="1/32 &quot;in. Tick no. 233"/><path d="M715,0v8.06736" id="1/32 &quot;in. Tick no. 235"/><path d="M721,0v8.06736" id="1/32 &quot;in. Tick no. 237"/><path d="M727,0v8.06736" id="1/32 &quot;in. Tick no. 239"/><path d="M733,0v8.06736" id="1/32 &quot;in. Tick no. 241"/><path d="M739,0v8.06736" id="1/32 &quot;in. Tick no. 243"/><path d="M745,0v8.06736" id="1/32 &quot;in. Tick no. 245"/><path d="M751,0v8.06736" id="1/32 &quot;in. Tick no. 247"/><path d="M757,0v8.06736" id="1/32 &quot;in. Tick no. 249"/><path d="M763,0v8.06736" id="1/32 &quot;in. Tick no. 251"/><path d="M769,0v8.06736" id="1/32 &quot;in. Tick no. 253"/><path d="M775,0v8.06736" id="1/32 &quot;in. Tick no. 255"/><path d="M781,0v8.06736" id="1/32 &quot;in. Tick no. 257"/><path d="M787,0v8.06736" id="1/32 &quot;in. Tick no. 259"/><path d="M793,0v8.06736" id="1/32 &quot;in. Tick no. 261"/><path d="M799,0v8.06736" id="1/32 &quot;in. Tick no. 263"/><path d="M805,0v8.06736" id="1/32 &quot;in. Tick no. 265"/><path d="M811,0v8.06736" id="1/32 &quot;in. Tick no. 267"/><path d="M817,0v8.06736" id="1/32 &quot;in. Tick no. 269"/><path d="M823,0v8.06736" id="1/32 &quot;in. Tick no. 271"/><path d="M829,0v8.06736" id="1/32 &quot;in. Tick no. 273"/><path d="M835,0v8.06736" id="1/32 &quot;in. Tick no. 275"/><path d="M841,0v8.06736" id="1/32 &quot;in. Tick no. 277"/><path d="M847,0v8.06736" id="1/32 &quot;in. Tick no. 279"/><path d="M853,0v8.06736" id="1/32 &quot;in. Tick no. 281"/><path d="M859,0v8.06736" id="1/32 &quot;in. Tick no. 283"/><path d="M865,0v8.06736" id="1/32 &quot;in. Tick no. 285"/><path d="M871,0v8.06736" id="1/32 &quot;in. Tick no. 287"/><path d="M877,0v8.06736" id="1/32 &quot;in. Tick no. 289"/><path d="M883,0v8.06736" id="1/32 &quot;in. Tick no. 291"/><path d="M889,0v8.06736" id="1/32 &quot;in. Tick no. 293"/><path d="M895,0v8.06736" id="1/32 &quot;in. Tick no. 295"/><path d="M901,0v8.06736" id="1/32 &quot;in. Tick no. 297"/><path d="M907,0v8.06736" id="1/32 &quot;in. Tick no. 299"/><path d="M913,0v8.06736" id="1/32 &quot;in. Tick no. 301"/><path d="M919,0v8.06736" id="1/32 &quot;in. Tick no. 303"/><path d="M925,0v8.06736" id="1/32 &quot;in. Tick no. 305"/><path d="M931,0v8.06736" id="1/32 &quot;in. Tick no. 307"/><path d="M937,0v8.06736" id="1/32 &quot;in. Tick no. 309"/><path d="M943,0v8.06736" id="1/32 &quot;in. Tick no. 311"/><path d="M949,0v8.06736" id="1/32 &quot;in. Tick no. 313"/><path d="M955,0v8.06736" id="1/32 &quot;in. Tick no. 315"/><path d="M961,0v8.06736" id="1/32 &quot;in. Tick no. 317"/><path d="M967,0v8.06736" id="1/32 &quot;in. Tick no. 319"/><path d="M973,0v8.06736" id="1/32 &quot;in. Tick no. 321"/><path d="M979,0v8.06736" id="1/32 &quot;in. Tick no. 323"/><path d="M985,0v8.06736" id="1/32 &quot;in. Tick no. 325"/><path d="M991,0v8.06736" id="1/32 &quot;in. Tick no. 327"/><path d="M997,0v8.06736" id="1/32 &quot;in. Tick no. 329"/><path d="M1003,0v8.06736" id="1/32 &quot;in. Tick no. 331"/><path d="M1009,0v8.06736" id="1/32 &quot;in. Tick no. 333"/><path d="M1015,0v8.06736" id="1/32 &quot;in. Tick no. 335"/><path d="M1021,0v8.06736" id="1/32 &quot;in. Tick no. 337"/><path d="M1027,0v8.06736" id="1/32 &quot;in. Tick no. 339"/><path d="M1033,0v8.06736" id="1/32 &quot;in. Tick no. 341"/><path d="M1039,0v8.06736" id="1/32 &quot;in. Tick no. 343"/><path d="M1045,0v8.06736" id="1/32 &quot;in. Tick no. 345"/><path d="M1051,0v8.06736" id="1/32 &quot;in. Tick no. 347"/><path d="M1057,0v8.06736" id="1/32 &quot;in. Tick no. 349"/><path d="M1063,0v8.06736" id="1/32 &quot;in. Tick no. 351"/><path d="M1069,0v8.06736" id="1/32 &quot;in. Tick no. 353"/><path d="M1075,0v8.06736" id="1/32 &quot;in. Tick no. 355"/><path d="M1081,0v8.06736" id="1/32 &quot;in. Tick no. 357"/><path d="M1087,0v8.06736" id="1/32 &quot;in. Tick no. 359"/><path d="M1093,0v8.06736" id="1/32 &quot;in. Tick no. 361"/><path d="M1099,0v8.06736" id="1/32 &quot;in. Tick no. 363"/><path d="M1105,0v8.06736" id="1/32 &quot;in. Tick no. 365"/><path d="M1111,0v8.06736" id="1/32 &quot;in. Tick no. 367"/><path d="M1117,0v8.06736" id="1/32 &quot;in. Tick no. 369"/><path d="M1123,0v8.06736" id="1/32 &quot;in. Tick no. 371"/><path d="M1129,0v8.06736" id="1/32 &quot;in. Tick no. 373"/><path d="M1135,0v8.06736" id="1/32 &quot;in. Tick no. 375"/><path d="M1141,0v8.06736" id="1/32 &quot;in. Tick no. 377"/><path d="M1147,0v8.06736" id="1/32 &quot;in. Tick no. 379"/><path d="M1153,0v8.06736" id="1/32 &quot;in. Tick no. 381"/><path d="M1159,0v8.06736" id="1/32 &quot;in. Tick no. 383"/><path d="M1165,0v8.06736" id="1/32 &quot;in. Tick no. 385"/><path d="M1171,0v8.06736" id="1/32 &quot;in. Tick no. 387"/><path d="M1177,0v8.06736" id="1/32 &quot;in. Tick no. 389"/><path d="M1183,0v8.06736" id="1/32 &quot;in. Tick no. 391"/><path d="M1189,0v8.06736" id="1/32 &quot;in. Tick no. 393"/><path d="M1195,0v8.06736" id="1/32 &quot;in. Tick no. 395"/><path d="M1201,0v8.06736" id="1/32 &quot;in. Tick no. 397"/><path d="M1207,0v8.06736" id="1/32 &quot;in. Tick no. 399"/><path d="M1213,0v8.06736" id="1/32 &quot;in. Tick no. 401"/><path d="M1219,0v8.06736" id="1/32 &quot;in. Tick no. 403"/><path d="M1225,0v8.06736" id="1/32 &quot;in. Tick no. 405"/><path d="M1231,0v8.06736" id="1/32 &quot;in. Tick no. 407"/><path d="M1237,0v8.06736" id="1/32 &quot;in. Tick no. 409"/><path d="M1243,0v8.06736" id="1/32 &quot;in. Tick no. 411"/><path d="M1249,0v8.06736" id="1/32 &quot;in. Tick no. 413"/><path d="M1255,0v8.06736" id="1/32 &quot;in. Tick no. 415"/><path d="M1261,0v8.06736" id="1/32 &quot;in. Tick no. 417"/><path d="M1267,0v8.06736" id="1/32 &quot;in. Tick no. 419"/><path d="M1273,0v8.06736" id="1/32 &quot;in. Tick no. 421"/><path d="M1279,0v8.06736" id="1/32 &quot;in. Tick no. 423"/><path d="M1285,0v8.06736" id="1/32 &quot;in. Tick no. 425"/><path d="M1291,0v8.06736" id="1/32 &quot;in. Tick no. 427"/><path d="M1297,0v8.06736" id="1/32 &quot;in. Tick no. 429"/><path d="M1303,0v8.06736" id="1/32 &quot;in. Tick no. 431"/><path d="M1309,0v8.06736" id="1/32 &quot;in. Tick no. 433"/><path d="M1315,0v8.06736" id="1/32 &quot;in. Tick no. 435"/><path d="M1321,0v8.06736" id="1/32 &quot;in. Tick no. 437"/><path d="M1327,0v8.06736" id="1/32 &quot;in. Tick no. 439"/><path d="M1333,0v8.06736" id="1/32 &quot;in. Tick no. 441"/><path d="M1339,0v8.06736" id="1/32 &quot;in. Tick no. 443"/><path d="M1345,0v8.06736" id="1/32 &quot;in. Tick no. 445"/><path d="M1351,0v8.06736" id="1/32 &quot;in. Tick no. 447"/><path d="M1357,0v8.06736" id="1/32 &quot;in. Tick no. 449"/><path d="M1363,0v8.06736" id="1/32 &quot;in. Tick no. 451"/><path d="M1369,0v8.06736" id="1/32 &quot;in. Tick no. 453"/><path d="M1375,0v8.06736" id="1/32 &quot;in. Tick no. 455"/><path d="M1381,0v8.06736" id="1/32 &quot;in. Tick no. 457"/><path d="M1387,0v8.06736" id="1/32 &quot;in. Tick no. 459"/><path d="M1393,0v8.06736" id="1/32 &quot;in. Tick no. 461"/><path d="M1399,0v8.06736" id="1/32 &quot;in. Tick no. 463"/><path d="M1405,0v8.06736" id="1/32 &quot;in. Tick no. 465"/><path d="M1411,0v8.06736" id="1/32 &quot;in. Tick no. 467"/><path d="M1417,0v8.06736" id="1/32 &quot;in. Tick no. 469"/><path d="M1423,0v8.06736" id="1/32 &quot;in. Tick no. 471"/><path d="M1429,0v8.06736" id="1/32 &quot;in. Tick no. 473"/><path d="M1435,0v8.06736" id="1/32 &quot;in. Tick no. 475"/><path d="M1441,0v8.06736" id="1/32 &quot;in. Tick no. 477"/><path d="M1447,0v8.06736" id="1/32 &quot;in. Tick no. 479"/><path d="M1453,0v8.06736" id="1/32 &quot;in. Tick no. 481"/><path d="M1459,0v8.06736" id="1/32 &quot;in. Tick no. 483"/><path d="M1465,0v8.06736" id="1/32 &quot;in. Tick no. 485"/><path d="M1471,0v8.06736" id="1/32 &quot;in. Tick no. 487"/><path d="M1477,0v8.06736" id="1/32 &quot;in. Tick no. 489"/><path d="M1483,0v8.06736" id="1/32 &quot;in. Tick no. 491"/><path d="M1489,0v8.06736" id="1/32 &quot;in. Tick no. 493"/><path d="M1495,0v8.06736" id="1/32 &quot;in. Tick no. 495"/><path d="M1501,0v8.06736" id="1/32 &quot;in. Tick no. 497"/><path d="M1507,0v8.06736" id="1/32 &quot;in. Tick no. 499"/><path d="M1513,0v8.06736" id="1/32 &quot;in. Tick no. 501"/><path d="M1519,0v8.06736" id="1/32 &quot;in. Tick no. 503"/><path d="M1525,0v8.06736" id="1/32 &quot;in. Tick no. 505"/><path d="M1531,0v8.06736" id="1/32 &quot;in. Tick no. 507"/><path d="M1537,0v8.06736" id="1/32 &quot;in. Tick no. 509"/><path d="M1543,0v8.06736" id="1/32 &quot;in. Tick no. 511"/><path d="M1549,0v8.06736" id="1/32 &quot;in. Tick no. 513"/><path d="M1555,0v8.06736" id="1/32 &quot;in. Tick no. 515"/><path d="M1561,0v8.06736" id="1/32 &quot;in. Tick no. 517"/><path d="M1567,0v8.06736" id="1/32 &quot;in. Tick no. 519"/><path d="M1573,0v8.06736" id="1/32 &quot;in. Tick no. 521"/><path d="M1579,0v8.06736" id="1/32 &quot;in. Tick no. 523"/><path d="M1585,0v8.06736" id="1/32 &quot;in. Tick no. 525"/><path d="M1591,0v8.06736" id="1/32 &quot;in. Tick no. 527"/><path d="M1597,0v8.06736" id="1/32 &quot;in. Tick no. 529"/><path d="M1603,0v8.06736" id="1/32 &quot;in. Tick no. 531"/><path d="M1609,0v8.06736" id="1/32 &quot;in. Tick no. 533"/><path d="M1615,0v8.06736" id="1/32 &quot;in. Tick no. 535"/><path d="M1621,0v8.06736" id="1/32 &quot;in. Tick no. 537"/><path d="M1627,0v8.06736" id="1/32 &quot;in. Tick no. 539"/><path d="M1633,0v8.06736" id="1/32 &quot;in. Tick no. 541"/><path d="M1639,0v8.06736" id="1/32 &quot;in. Tick no. 543"/><path d="M1645,0v8.06736" id="1/32 &quot;in. Tick no. 545"/><path d="M1651,0v8.06736" id="1/32 &quot;in. Tick no. 547"/><path d="M1657,0v8.06736" id="1/32 &quot;in. Tick no. 549"/><path d="M1663,0v8.06736" id="1/32 &quot;in. Tick no. 551"/><path d="M1669,0v8.06736" id="1/32 &quot;in. Tick no. 553"/><path d="M1675,0v8.06736" id="1/32 &quot;in. Tick no. 555"/><path d="M1681,0v8.06736" id="1/32 &quot;in. Tick no. 557"/><path d="M1687,0v8.06736" id="1/32 &quot;in. Tick no. 559"/><path d="M1693,0v8.06736" id="1/32 &quot;in. Tick no. 561"/><path d="M1699,0v8.06736" id="1/32 &quot;in. Tick no. 563"/><path d="M1705,0v8.06736" id="1/32 &quot;in. Tick no. 565"/><path d="M1711,0v8.06736" id="1/32 &quot;in. Tick no. 567"/><path d="M1717,0v8.06736" id="1/32 &quot;in. Tick no. 569"/><path d="M1723,0v8.06736" id="1/32 &quot;in. Tick no. 571"/><path d="M1729,0v8.06736" id="1/32 &quot;in. Tick no. 573"/><path d="M1735,0v8.06736" id="1/32 &quot;in. Tick no. 575"/><path d="M1741,0v8.06736" id="1/32 &quot;in. Tick no. 577"/><path d="M1747,0v8.06736" id="1/32 &quot;in. Tick no. 579"/><path d="M1753,0v8.06736" id="1/32 &quot;in. Tick no. 581"/><path d="M1759,0v8.06736" id="1/32 &quot;in. Tick no. 583"/><path d="M1765,0v8.06736" id="1/32 &quot;in. Tick no. 585"/><path d="M1771,0v8.06736" id="1/32 &quot;in. Tick no. 587"/><path d="M1777,0v8.06736" id="1/32 &quot;in. Tick no. 589"/><path d="M1783,0v8.06736" id="1/32 &quot;in. Tick no. 591"/><path d="M1789,0v8.06736" id="1/32 &quot;in. Tick no. 593"/><path d="M1795,0v8.06736" id="1/32 &quot;in. Tick no. 595"/><path d="M1801,0v8.06736" id="1/32 &quot;in. Tick no. 597"/><path d="M1807,0v8.06736" id="1/32 &quot;in. Tick no. 599"/><path d="M1813,0v8.06736" id="1/32 &quot;in. Tick no. 601"/><path d="M1819,0v8.06736" id="1/32 &quot;in. Tick no. 603"/><path d="M1825,0v8.06736" id="1/32 &quot;in. Tick no. 605"/><path d="M1831,0v8.06736" id="1/32 &quot;in. Tick no. 607"/><path d="M1837,0v8.06736" id="1/32 &quot;in. Tick no. 609"/><path d="M1843,0v8.06736" id="1/32 &quot;in. Tick no. 611"/><path d="M1849,0v8.06736" id="1/32 &quot;in. Tick no. 613"/><path d="M1855,0v8.06736" id="1/32 &quot;in. Tick no. 615"/><path d="M1861,0v8.06736" id="1/32 &quot;in. Tick no. 617"/><path d="M1867,0v8.06736" id="1/32 &quot;in. Tick no. 619"/><path d="M1873,0v8.06736" id="1/32 &quot;in. Tick no. 621"/><path d="M1879,0v8.06736" id="1/32 &quot;in. Tick no. 623"/><path d="M1885,0v8.06736" id="1/32 &quot;in. Tick no. 625"/><path d="M1891,0v8.06736" id="1/32 &quot;in. Tick no. 627"/><path d="M1897,0v8.06736" id="1/32 &quot;in. Tick no. 629"/><path d="M1903,0v8.06736" id="1/32 &quot;in. Tick no. 631"/><path d="M1909,0v8.06736" id="1/32 &quot;in. Tick no. 633"/><path d="M1915,0v8.06736" id="1/32 &quot;in. Tick no. 635"/><path d="M1921,0v8.06736" id="1/32 &quot;in. Tick no. 637"/><path d="M1927,0v8.06736" id="1/32 &quot;in. Tick no. 639"/></g></svg>