999
dxflib 3.17.0.0
  0
SECTION
  2
HEADER
  9
$ACADVER
  1
AC1015
  9
$HANDSEED
  5
FFFF
  9
$ANGBASE
 50
0.0
  9
$ATTMODE
 70
1
  9
$AUNITS
 70
0
  9
$AUPREC
 70
0
  9
$CELTSCALE
 40
1.0
  9
$CHAMFERA
 40
0.0
  9
$CHAMFERB
 40
0.0
  9
$CHAMFERC
 40
0.0
  9
$CHAMFERD
 40
0.0
  9
$CMLJUST
 70
0
  9
$CMLSCALE
 40
1.0
  9
$DIMADEC
 70
0
  9
$DIMALTD
 70
2
  9
$DIMALTF
 40
25.399999999999999
  9
$DIMALTRND
 40
0.0
  9
$DIMALTTD
 70
2
  9
$DIMALTTZ
 70
0
  9
$DIMALTU
 70
2
  9
$DIMALTZ
 70
0
  9
$DIMAPOST
  1

  9
$DIMASZ
 40
0.18
  9
$DIMATFIT
 70
3
  9
$DIMAUNIT
 70
0
  9
$DIMAZIN
 70
0
  9
$DIMCEN
 40
0.09
  9
$DIMDEC
 70
4
  9
$DIMDLE
 40
0.0
  9
$DIMDLI
 40
0.38
  9
$DIMDSEP
 70
46
  9
$DIMEXE
 40
0.18
  9
$DIMEXO
 40
0.0625
  9
$DIMFRAC
 70
0
  9
$DIMGAP
 40
0.09
  9
$DIMJUST
 70
0
  9
$DIMLFAC
 40
1.0
  9
$DIMLUNIT
 70
2
  9
$DIMLWD
 70
-2
  9
$DIMLWE
 70
-2
  9
$DIMPOST
  1

  9
$DIMRND
 40
0.0
  9
$DIMSCALE
 40
1.0
  9
$DIMTAD
 70
0
  9
$DIMTDEC
 70
4
  9
$DIMTFAC
 40
1.0
  9
$DIMTM
 40
0.0
  9
$DIMTOLJ
 70
1
  9
$DIMTP
 40
0.0
  9
$DIMTSZ
 40
0.0
  9
$DIMTVP
 40
0.0
  9
$DIMTXT
 40
0.18
  9
$DIMTZIN
 70
0
  9
$DIMZIN
 70
0
  9
$DWGCODEPAGE
  3
ANSI_1252
  9
$ELEVATION
 40
0.0
  9
$EXTMAX
 10
-100000000000000000000.0
 20
-100000000000000000000.0
 30
-100000000000000000000.0
  9
$EXTMIN
 10
100000000000000000000.0
 20
100000000000000000000.0
 30
100000000000000000000.0
  9
$FILLETRAD
 40
0.5
  9
$INSBASE
 10
0.0
 20
0.0
 30
0.0
  9
$INSUNITS
 70
0
  9
$LIMMAX
 10
12.0
 20
9.0
  9
$LIMMIN
 10
0.0
 20
0.0
  9
$LTSCALE
 40
1.0
  9
$LUNITS
 70
2
  9
$LUPREC
 70
4
  9
$MAXACTVP
 70
2
  9
$MEASUREMENT
 70
0
  9
$PDMODE
 70
0
  9
$PDSIZE
 40
0.0
  9
$PELEVATION
 40
0.0
  9
$PEXTMAX
 10
-100000000000000000000.0
 20
-100000000000000000000.0
 30
-100000000000000000000.0
  9
$PEXTMIN
 10
100000000000000000000.0
 20
100000000000000000000.0
 30
100000000000000000000.0
  9
$PINSBASE
 10
0.0
 20
0.0
 30
0.0
  9
$PLIMMAX
 10
12.0
 20
9.0
  9
$PLIMMIN
 10
0.0
 20
0.0
  9
$PLINEWID
 40
0.0
  9
$PROXYGRAPHICS
 70
1
  9
$PUCSORG
 10
0.0
 20
0.0
 30
0.0
  9
$PUCSXDIR
 10
1.0
 20
0.0
 30
0.0
  9
$PUCSYDIR
 10
0.0
 20
1.0
 30
0.0
  9
$SHADEDGE
 70
3
  9
$SHADEDIF
 70
70
  9
$SKETCHINC
 40
0.1
  9
$SPLINESEGS
 70
8
  9
$SPLINETYPE
 70
6
  9
$SURFTAB1
 70
6
  9
$SURFTAB2
 70
6
  9
$SURFTYPE
 70
6
  9
$SURFU
 70
6
  9
$SURFV
 70
6
  9
$TEXTSIZE
 40
0.2
  9
$THICKNESS
 40
0.0
  9
$TRACEWID
 40
0.05
  9
$TREEDEPTH
 70
3020
  9
$UCSORG
 10
0.0
 20
0.0
 30
0.0
  9
$UCSXDIR
 10
1.0
 20
0.0
 30
0.0
  9
$UCSYDIR
 10
0.0
 20
1.0
 30
0.0
  9
$UNITMODE
 70
0
  9
$USERI1
 70
0
  9
$USERI2
 70
0
  9
$USERI3
 70
0
  9
$USERI4
 70
0
  9
$USERI5
 70
0
  9
$USERR1
 40
0.0
  9
$USERR2
 40
0.0
  9
$USERR3
 40
0.0
  9
$USERR4
 40
0.0
  9
$USERR5
 40
0.0
  0
ENDSEC
  0
SECTION
  2
TABLES
  0
TABLE
  2
VPORT
  5
8
100
AcDbSymbolTable
 70
1
  0
VPORT
  5
30
100
AcDbSymbolTableRecord
100
AcDbViewportTableRecord
  2
*Active
 70
0
 10
0.0
 20
0.0
 11
1.0
 21
1.0
 12
286.30555555555549
 22
148.5
 13
0.0
 23
0.0
 14
10.0
 24
10.0
 15
10.0
 25
10.0
 16
0.0
 26
0.0
 36
1.0
 17
0.0
 27
0.0
 37
0.0
 40
297.0
 41
1.92798353909465
 42
50.0
 43
0.0
 44
0.0
 50
0.0
 51
0.0
 71
0
 72
100
 73
1
 74
3
 75
1
 76
1
 77
0
 78
0
281
0
 65
1
110
0.0
120
0.0
130
0.0
111
1.0
121
0.0
131
0.0
112
0.0
122
1.0
132
0.0
 79
0
146
0.0
  0
ENDTAB
  0
TABLE
  2
LTYPE
  5
5
100
AcDbSymbolTable
 70
50
  0
LTYPE
  5
16
100
AcDbSymbolTableRecord
100
AcDbLinetypeTableRecord
  2
Continuous
 70
0
  3
Solid line
 72
65
 73
0
 40
0.0
  0
LTYPE
  5
31
100
AcDbSymbolTableRecord
100
AcDbLinetypeTableRecord
  2
DASHDOT
 70
0
  3
Dash dot __ . __ . __ . __ . __ . __ . __ . __
 72
65
 73
4
 40
25.399999999999999
 49
12.699999999999999
 74
0
 49
-6.3499999999999996
 74
0
 49
0.0
 74
0
 49
-6.3499999999999996
 74
0
  0
LTYPE
  5
32
100
AcDbSymbolTableRecord
100
AcDbLinetypeTableRecord
  2
DRAINAGE2
 70
0
  3
Drainage reversed----<----<----<----
 72
65
 73
2
 40
10.16
 49
5.0800000000000001
 74
0
 49
5.0800000000000001
 74
0
  0
LTYPE
  5
33
100
AcDbSymbolTableRecord
100
AcDbLinetypeTableRecord
  2
ACAD_ISO14W100
 70
0
  3
ISO dash triple-dot __ . . . __ . . . __ . . . _
 72
65
 73
8
 40
24.0
 49
12.0
 74
0
 49
-3.0
 74
0
 49
0.0
 74
0
 49
-3.0
 74
0
 49
0.0
 74
0
 49
-3.0
 74
0
 49
0.0
 74
0
 49
-3.0
 74
0
  0
LTYPE
  5
34
100
AcDbSymbolTableRecord
100
AcDbLinetypeTableRecord
  2
ACAD_ISO04W100
 70
0
  3
ISO long-dash dot ____ . ____ . ____ . ____ . _
 72
65
 73
4
 40
30.0
 49
24.0
 74
0
 49
-3.0
 74
0
 49
0.0
 74
0
 49
-3.0
 74
0
  0
LTYPE
  5
35
100
AcDbSymbolTableRecord
100
AcDbLinetypeTableRecord
  2
BATTING
 70
0
  3
Batting SSSSSSSSSSSSSSSSSSSSSSSSSSSSSSSSSSSSSSSSSSSSSSS
 72
65
 73
4
 40
10.16254
 49
0.00254
 74
0
 49
-2.54
 74
0
 49
-5.0800000000000001
 74
0
 49
-2.54
 74
0
  0
LTYPE
  5
36
100
AcDbSymbolTableRecord
100
AcDbLinetypeTableRecord
  2
HOT_WATER_SUPPLY
 70
0
  3
Hot water supply ---- HW ---- HW ---- HW ----
 72
65
 73
3
 40
22.859999999999999
 49
12.699999999999999
 74
0
 49
-5.0800000000000001
 74
0
 49
-5.0800000000000001
 74
0
  0
LTYPE
  5
37
100
AcDbSymbolTableRecord
100
AcDbLinetypeTableRecord
  2
ACAD_ISO13W100
 70
0
  3
ISO double-dash double-dot __ __ . . __ __ . . _
 72
65
 73
8
 40
36.0
 49
12.0
 74
0
 49
-3.0
 74
0
 49
12.0
 74
0
 49
-3.0
 74
0
 49
0.0
 74
0
 49
-3.0
 74
0
 49
0.0
 74
0
 49
-3.0
 74
0
  0
LTYPE
  5
38
100
AcDbSymbolTableRecord
100
AcDbLinetypeTableRecord
  2
DASHDOTX2
 70
0
  3
Dash dot (2x) ____  .  ____  .  ____  .  ___
 72
65
 73
4
 40
50.799999999999997
 49
25.399999999999999
 74
0
 49
-12.699999999999999
 74
0
 49
0.0
 74
0
 49
-12.699999999999999
 74
0
  0
LTYPE
  5
39
100
AcDbSymbolTableRecord
100
AcDbLinetypeTableRecord
  2
DASHEDX2
 70
0
  3
Dashed (2x) ____  ____  ____  ____  ____  ___
 72
65
 73
2
 40
38.099999999999994
 49
25.399999999999999
 74
0
 49
-12.699999999999999
 74
0
  0
LTYPE
  5
3A
100
AcDbSymbolTableRecord
100
AcDbLinetypeTableRecord
  2
GAS_LINE
 70
0
  3
Gas line ----GAS----GAS----GAS----GAS----GAS----GAS--
 72
65
 73
3
 40
24.130000000000003
 49
12.699999999999999
 74
0
 49
-5.0800000000000001
 74
0
 49
-6.3499999999999996
 74
0
  0
LTYPE
  5
3B
100
AcDbSymbolTableRecord
100
AcDbLinetypeTableRecord
  2
DASHDOT2
 70
0
  3
Dash dot (.5x) _._._._._._._._._._._._._._._.
 72
65
 73
4
 40
12.699999999999999
 49
6.3499999999999996
 74
0
 49
-3.1749999999999998
 74
0
 49
0.0
 74
0
 49
-3.1749999999999998
 74
0
  0
LTYPE
  5
15
100
AcDbSymbolTableRecord
100
AcDbLinetypeTableRecord
  2
ByLayer
 70
0
  3

 72
65
 73
0
 40
0.0
  0
LTYPE
  5
3C
100
AcDbSymbolTableRecord
100
AcDbLinetypeTableRecord
  2
ACAD_ISO11W100
 70
0
  3
ISO double-dash dot __ __ . __ __ . __ __ . __ _
 72
65
 73
6
 40
33.0
 49
12.0
 74
0
 49
-3.0
 74
0
 49
12.0
 74
0
 49
-3.0
 74
0
 49
0.0
 74
0
 49
-3.0
 74
0
  0
LTYPE
  5
3D
100
AcDbSymbolTableRecord
100
AcDbLinetypeTableRecord
  2
BORDERX2
 70
0
  3
Border (2x) ____  ____  .  ____  ____  .  ___
 72
65
 73
6
 40
88.899999999999991
 49
25.399999999999999
 74
0
 49
-12.699999999999999
 74
0
 49
25.399999999999999
 74
0
 49
-12.699999999999999
 74
0
 49
0.0
 74
0
 49
-12.699999999999999
 74
0
  0
LTYPE
  5
3E
100
AcDbSymbolTableRecord
100
AcDbLinetypeTableRecord
  2
ACAD_ISO02W100
 70
0
  3
ISO dash __ __ __ __ __ __ __ __ __ __ __ __ __
 72
65
 73
2
 40
15.0
 49
12.0
 74
0
 49
-3.0
 74
0
  0
LTYPE
  5
3F
100
AcDbSymbolTableRecord
100
AcDbLinetypeTableRecord
  2
CENTER2
 70
0
  3
Center (.5x) ___ _ ___ _ ___ _ ___ _ ___ _ ___
 72
65
 73
4
 40
28.575000000000003
 49
19.050000000000001
 74
0
 49
-3.1749999999999998
 74
0
 49
3.1749999999999998
 74
0
 49
-3.1749999999999998
 74
0
  0
LTYPE
  5
40
100
AcDbSymbolTableRecord
100
AcDbLinetypeTableRecord
  2
ACAD_ISO06W100
 70
0
  3
ISO long-dash triple-dot ____ ... ____ ... ____
 72
65
 73
8
 40
36.0
 49
24.0
 74
0
 49
-3.0
 74
0
 49
0.0
 74
0
 49
-3.0
 74
0
 49
0.0
 74
0
 49
-3.0
 74
0
 49
0.0
 74
0
 49
-3.0
 74
0
  0
LTYPE
  5
41
100
AcDbSymbolTableRecord
100
AcDbLinetypeTableRecord
  2
BORDER
 70
0
  3
Border __ __ . __ __ . __ __ . __ __ . __ __ .
 72
65
 73
6
 40
44.449999999999996
 49
12.699999999999999
 74
0
 49
-6.3499999999999996
 74
0
 49
12.699999999999999
 74
0
 49
-6.3499999999999996
 74
0
 49
0.0
 74
0
 49
-6.3499999999999996
 74
0
  0
LTYPE
  5
42
100
AcDbSymbolTableRecord
100
AcDbLinetypeTableRecord
  2
ACAD_ISO08W100
 70
0
  3
ISO long-dash short-dash ____ __ ____ __ ____ _
 72
65
 73
4
 40
36.0
 49
24.0
 74
0
 49
-3.0
 74
0
 49
6.0
 74
0
 49
-3.0
 74
0
  0
LTYPE
  5
43
100
AcDbSymbolTableRecord
100
AcDbLinetypeTableRecord
  2
DIVIDE2
 70
0
  3
Divide (.5x) __..__..__..__..__..__..__..__.._
 72
65
 73
6
 40
15.875
 49
6.3499999999999996
 74
0
 49
-3.1749999999999998
 74
0
 49
0.0
 74
0
 49
-3.1749999999999998
 74
0
 49
0.0
 74
0
 49
-3.1749999999999998
 74
0
  0
LTYPE
  5
44
100
AcDbSymbolTableRecord
100
AcDbLinetypeTableRecord
  2
PHANTOM2
 70
0
  3
Phantom (.5x) ___ _ _ ___ _ _ ___ _ _ ___ _ _
 72
65
 73
6
 40
31.750000000000004
 49
15.875
 74
0
 49
-3.1749999999999998
 74
0
 49
3.1749999999999998
 74
0
 49
-3.1749999999999998
 74
0
 49
3.1749999999999998
 74
0
 49
-3.1749999999999998
 74
0
  0
LTYPE
  5
45
100
AcDbSymbolTableRecord
100
AcDbLinetypeTableRecord
  2
FENCELINE1
 70
0
  3
Fenceline circle ----0-----0----0-----0----0-----0--
 72
65
 73
4
 40
36.829999999999998
 49
6.3499999999999996
 74
0
 49
-2.54
 74
0
 49
-2.54
 74
0
 49
25.399999999999999
 74
0
  0
LTYPE
  5
46
100
AcDbSymbolTableRecord
100
AcDbLinetypeTableRecord
  2
DOT2
 70
0
  3
Dot (.5x) ........................................
 72
65
 73
2
 40
3.1749999999999998
 49
0.0
 74
0
 49
-3.1749999999999998
 74
0
  0
LTYPE
  5
47
100
AcDbSymbolTableRecord
100
AcDbLinetypeTableRecord
  2
DASHED2
 70
0
  3
Dashed (.5x) _ _ _ _ _ _ _ _ _ _ _ _ _ _ _ _ _ 
 72
65
 73
2
 40
9.5249999999999986
 49
6.3499999999999996
 74
0
 49
-3.1749999999999998
 74
0
  0
LTYPE
  5
48
100
AcDbSymbolTableRecord
100
AcDbLinetypeTableRecord
  2
TRACKS
 70
0
  3
Tracks -|-|-|-|-|-|-|-|-|-|-|-|-|-|-|-|-|-|-|-|-|-|-|-|-
 72
65
 73
2
 40
7.6200000000000001
 49
3.8100000000000001
 74
0
 49
3.8100000000000001
 74
0
  0
LTYPE
  5
49
100
AcDbSymbolTableRecord
100
AcDbLinetypeTableRecord
  2
HIDDENX2
 70
0
  3
Hidden (2x) ____ ____ ____ ____ ____ ____ ____ 
 72
65
 73
2
 40
19.049999999999997
 49
12.699999999999999
 74
0
 49
-6.3499999999999996
 74
0
  0
LTYPE
  5
4A
100
AcDbSymbolTableRecord
100
AcDbLinetypeTableRecord
  2
ACAD_ISO10W100
 70
0
  3
ISO dash dot __ . __ . __ . __ . __ . __ . __ . 
 72
65
 73
4
 40
18.0
 49
12.0
 74
0
 49
-3.0
 74
0
 49
0.0
 74
0
 49
-3.0
 74
0
  0
LTYPE
  5
4B
100
AcDbSymbolTableRecord
100
AcDbLinetypeTableRecord
  2
HIDDEN
 70
0
  3
Hidden __ __ __ __ __ __ __ __ __ __ __ __ __ __
 72
65
 73
2
 40
9.5249999999999986
 49
6.3499999999999996
 74
0
 49
-3.1749999999999998
 74
0
  0
LTYPE
  5
4C
100
AcDbSymbolTableRecord
100
AcDbLinetypeTableRecord
  2
DOT
 70
0
  3
Dot . . . . . . . . . . . . . . . . . . . . . . . .
 72
65
 73
2
 40
6.3499999999999996
 49
0.0
 74
0
 49
-6.3499999999999996
 74
0
  0
LTYPE
  5
4D
100
AcDbSymbolTableRecord
100
AcDbLinetypeTableRecord
  2
ZIGZAG
 70
0
  3
Zig zag /\/\/\/\/\/\/\/\/\/\/\/\/\/\/\/\/\/\/\/\/\/\/\/
 72
65
 73
4
 40
20.32254
 49
0.00254
 74
0
 49
-5.0800000000000001
 74
0
 49
-10.16
 74
0
 49
-5.0800000000000001
 74
0
  0
LTYPE
  5
4E
100
AcDbSymbolTableRecord
100
AcDbLinetypeTableRecord
  2
FENCELINE2
 70
0
  3
Fenceline square ----[]-----[]----[]-----[]----[]---
 72
65
 73
4
 40
36.829999999999998
 49
6.3499999999999996
 74
0
 49
-2.54
 74
0
 49
-2.54
 74
0
 49
25.399999999999999
 74
0
  0
LTYPE
  5
4F
100
AcDbSymbolTableRecord
100
AcDbLinetypeTableRecord
  2
DASHED
 70
0
  3
Dashed __ __ __ __ __ __ __ __ __ __ __ __ __ _
 72
65
 73
2
 40
19.049999999999997
 49
12.699999999999999
 74
0
 49
-6.3499999999999996
 74
0
  0
LTYPE
  5
50
100
AcDbSymbolTableRecord
100
AcDbLinetypeTableRecord
  2
ACAD_ISO09W100
 70
0
  3
ISO long-dash double-short-dash ____ __ __ ____
 72
65
 73
6
 40
45.0
 49
24.0
 74
0
 49
-3.0
 74
0
 49
6.0
 74
0
 49
-3.0
 74
0
 49
6.0
 74
0
 49
-3.0
 74
0
  0
LTYPE
  5
51
100
AcDbSymbolTableRecord
100
AcDbLinetypeTableRecord
  2
ACAD_ISO05W100
 70
0
  3
ISO long-dash double-dot ____ .. ____ .. ____ . 
 72
65
 73
6
 40
33.0
 49
24.0
 74
0
 49
-3.0
 74
0
 49
0.0
 74
0
 49
-3.0
 74
0
 49
0.0
 74
0
 49
-3.0
 74
0
  0
LTYPE
  5
52
100
AcDbSymbolTableRecord
100
AcDbLinetypeTableRecord
  2
DRAINAGE
 70
0
  3
Drainage ---->---->---->----
 72
65
 73
2
 40
10.16
 49
5.0800000000000001
 74
0
 49
5.0800000000000001
 74
0
  0
LTYPE
  5
14
100
AcDbSymbolTableRecord
100
AcDbLinetypeTableRecord
  2
ByBlock
 70
0
  3

 72
65
 73
0
 40
0.0
  0
LTYPE
  5
53
100
AcDbSymbolTableRecord
100
AcDbLinetypeTableRecord
  2
DIVIDEX2
 70
0
  3
Divide (2x) ________  .  .  ________  .  .  _
 72
65
 73
6
 40
63.5
 49
25.399999999999999
 74
0
 49
-12.699999999999999
 74
0
 49
0.0
 74
0
 49
-12.699999999999999
 74
0
 49
0.0
 74
0
 49
-12.699999999999999
 74
0
  0
LTYPE
  5
54
100
AcDbSymbolTableRecord
100
AcDbLinetypeTableRecord
  2
DIVIDE
 70
0
  3
Divide ____ . . ____ . . ____ . . ____ . . ____
 72
65
 73
6
 40
31.75
 49
12.699999999999999
 74
0
 49
-6.3499999999999996
 74
0
 49
0.0
 74
0
 49
-6.3499999999999996
 74
0
 49
0.0
 74
0
 49
-6.3499999999999996
 74
0
  0
LTYPE
  5
55
100
AcDbSymbolTableRecord
100
AcDbLinetypeTableRecord
  2
PHANTOM
 70
0
  3
Phantom ______  __  __  ______  __  __  ______ 
 72
65
 73
6
 40
63.500000000000007
 49
31.75
 74
0
 49
-6.3499999999999996
 74
0
 49
6.3499999999999996
 74
0
 49
-6.3499999999999996
 74
0
 49
6.3499999999999996
 74
0
 49
-6.3499999999999996
 74
0
  0
LTYPE
  5
56
100
AcDbSymbolTableRecord
100
AcDbLinetypeTableRecord
  2
CENTER
 70
0
  3
Center ____ _ ____ _ ____ _ ____ _ ____ _ ____
 72
65
 73
4
 40
50.800000000000004
 49
31.75
 74
0
 49
-6.3499999999999996
 74
0
 49
6.3499999999999996
 74
0
 49
-6.3499999999999996
 74
0
  0
LTYPE
  5
57
100
AcDbSymbolTableRecord
100
AcDbLinetypeTableRecord
  2
BORDER2
 70
0
  3
Border (.5x) __.__.__.__.__.__.__.__.__.__.__.
 72
65
 73
6
 40
22.224999999999998
 49
6.3499999999999996
 74
0
 49
-3.1749999999999998
 74
0
 49
6.3499999999999996
 74
0
 49
-3.1749999999999998
 74
0
 49
0.0
 74
0
 49
-3.1749999999999998
 74
0
  0
LTYPE
  5
58
100
AcDbSymbolTableRecord
100
AcDbLinetypeTableRecord
  2
ACAD_ISO12W100
 70
0
  3
ISO dash double-dot __ . . __ . . __ . . __ . . 
 72
65
 73
6
 40
21.0
 49
12.0
 74
0
 49
-3.0
 74
0
 49
0.0
 74
0
 49
-3.0
 74
0
 49
0.0
 74
0
 49
-3.0
 74
0
  0
LTYPE
  5
59
100
AcDbSymbolTableRecord
100
AcDbLinetypeTableRecord
  2
HIDDEN2
 70
0
  3
Hidden (.5x) _ _ _ _ _ _ _ _ _ _ _ _ _ _ _ _ _ 
 72
65
 73
2
 40
4.7624999999999993
 49
3.1749999999999998
 74
0
 49
-1.5874999999999999
 74
0
  0
LTYPE
  5
5A
100
AcDbSymbolTableRecord
100
AcDbLinetypeTableRecord
  2
ACAD_ISO03W100
 70
0
  3
ISO dash space __    __    __    __    __    __
 72
65
 73
2
 40
30.0
 49
12.0
 74
0
 49
-18.0
 74
0
  0
LTYPE
  5
5B
100
AcDbSymbolTableRecord
100
AcDbLinetypeTableRecord
  2
ACAD_ISO07W100
 70
0
  3
ISO dot . . . . . . . . . . . . . . . . . . . . 
 72
65
 73
2
 40
3.0
 49
0.0
 74
0
 49
-3.0
 74
0
  0
LTYPE
  5
5C
100
AcDbSymbolTableRecord
100
AcDbLinetypeTableRecord
  2
DOTX2
 70
0
  3
Dot (2x) .  .  .  .  .  .  .  .  .  .  .  .  .  .
 72
65
 73
2
 40
12.699999999999999
 49
0.0
 74
0
 49
-12.699999999999999
 74
0
  0
LTYPE
  5
5D
100
AcDbSymbolTableRecord
100
AcDbLinetypeTableRecord
  2
PHANTOMX2
 70
0
  3
Phantom (2x) ____________    ____    ____   _
 72
65
 73
6
 40
127.00000000000001
 49
63.5
 74
0
 49
-12.699999999999999
 74
0
 49
12.699999999999999
 74
0
 49
-12.699999999999999
 74
0
 49
12.699999999999999
 74
0
 49
-12.699999999999999
 74
0
  0
LTYPE
  5
5E
100
AcDbSymbolTableRecord
100
AcDbLinetypeTableRecord
  2
CENTERX2
 70
0
  3
Center (2x) ________  __  ________  __  _____
 72
65
 73
4
 40
101.60000000000001
 49
63.5
 74
0
 49
-12.699999999999999
 74
0
 49
12.699999999999999
 74
0
 49
-12.699999999999999
 74
0
  0
LTYPE
  5
5F
100
AcDbSymbolTableRecord
100
AcDbLinetypeTableRecord
  2
ACAD_ISO15W100
 70
0
  3
ISO double-dash triple-dot __ __ . . . __ __ . .
 72
65
 73
10
 40
39.0
 49
12.0
 74
0
 49
-3.0
 74
0
 49
12.0
 74
0
 49
-3.0
 74
0
 49
0.0
 74
0
 49
-3.0
 74
0
 49
0.0
 74
0
 49
-3.0
 74
0
 49
0.0
 74
0
 49
-3.0
 74
0
  0
ENDTAB
  0
TABLE
  2
LAYER
  5
2
100
AcDbSymbolTable
 70
10
  0
LAYER
  5
60
100
AcDbSymbolTableRecord
100
AcDbLayerTableRecord
  2
6
 70
0
 62
7
420
16777215
  6
Continuous
370
-3
390
F
  0
LAYER
  5
61
100
AcDbSymbolTableRecord
100
AcDbLayerTableRecord
  2
Group#1
 70
0
 62
7
420
16777215
  6
Continuous
370
-3
390
F
  0
LAYER
  5
62
100
AcDbSymbolTableRecord
100
AcDbLayerTableRecord
  2
4
 70
0
 62
7
420
16777215
  6
Continuous
370
-3
390
F
  0
LAYER
  5
63
100
AcDbSymbolTableRecord
100
AcDbLayerTableRecord
  2
MY3DLAYER
 70
0
 62
7
420
16777215
  6
Continuous
370
-3
390
F
  0
LAYER
  5
64
100
AcDbSymbolTableRecord
100
AcDbLayerTableRecord
  2
Group#2
 70
0
 62
7
420
16777215
  6
Continuous
370
-3
390
F
  0
LAYER
  5
10
100
AcDbSymbolTableRecord
100
AcDbLayerTableRecord
  2
0
 70
0
 62
7
420
16777215
  6
Continuous
370
-3
390
F
  0
LAYER
  5
65
100
AcDbSymbolTableRecord
100
AcDbLayerTableRecord
  2
3
 70
0
 62
7
420
16777215
  6
Continuous
370
-3
390
F
  0
LAYER
  5
66
100
AcDbSymbolTableRecord
100
AcDbLayerTableRecord
  2
2
 70
0
 62
7
420
16777215
  6
Continuous
370
-3
390
F
  0
LAYER
  5
67
100
AcDbSymbolTableRecord
100
AcDbLayerTableRecord
  2
5
 70
0
 62
7
420
16777215
  6
Continuous
370
-3
390
F
  0
LAYER
  5
68
100
AcDbSymbolTableRecord
100
AcDbLayerTableRecord
  2
1#2
 70
0
 62
7
420
16777215
  6
Continuous
370
-3
390
F
  0
ENDTAB
  0
TABLE
  2
STYLE
  5
3
100
AcDbSymbolTable
 70
1
  0
STYLE
  5
69
100
AcDbSymbolTableRecord
100
AcDbTextStyleTableRecord
  2
Standard
 70
0
 40
0.0
 41
1.0
 50
0.0
 71
0
 42
2.5
  3

  4

1001
ACAD
1000
txt
1071
0
  0
ENDTAB
  0
TABLE
  2
VIEW
  5
6
100
AcDbSymbolTable
 70
0
  0
ENDTAB
  0
TABLE
  2
UCS
  5
7
100
AcDbSymbolTable
 70
0
  0
ENDTAB
  0
TABLE
  2
APPID
  5
9
100
AcDbSymbolTable
 70
1
  0
APPID
  5
12
100
AcDbSymbolTableRecord
100
AcDbRegAppTableRecord
  2
ACAD
 70
0
  0
APPID
  5
6A
100
AcDbSymbolTableRecord
100
AcDbRegAppTableRecord
  2
QCAD
 70
0
  0
ENDTAB
  0
TABLE
  2
DIMSTYLE
  5
A
100
AcDbSymbolTable
 70
1
100
AcDbDimStyleTable
 71
0
  0
DIMSTYLE
105
27
100
AcDbSymbolTableRecord
100
AcDbDimStyleTableRecord
  2
Standard
 41
0.18
 42
0.0625
 43
3.75
 44
0.18
 70
0
 73
0
 74
0
 77
1
 78
8
140
0.18
141
2.5
143
0.03937007874016
147
0.09
171
3
172
1
271
2
272
2
274
3
278
44
283
0
284
8
340
69
  0
ENDTAB
  0
TABLE
  2
BLOCK_RECORD
  5
1
100
AcDbSymbolTable
 70
1
  0
BLOCK_RECORD
  5
1F
100
AcDbSymbolTableRecord
100
AcDbBlockTableRecord
  2
*Model_Space
340
22
  0
BLOCK_RECORD
  5
1B
100
AcDbSymbolTableRecord
100
AcDbBlockTableRecord
  2
*Paper_Space
340
1E
  0
BLOCK_RECORD
  5
23
100
AcDbSymbolTableRecord
100
AcDbBlockTableRecord
  2
*Paper_Space0
340
26
  0
ENDTAB
  0
ENDSEC
  0
SECTION
  2
BLOCKS
  0
BLOCK
  5
20
100
AcDbEntity
  8
0
100
AcDbBlockBegin
  2
*Model_Space
 70
0
 10
0.0
 20
0.0
 30
0.0
  3
*Model_Space
  1

  0
ENDBLK
  5
21
100
AcDbEntity
  8
0
100
AcDbBlockEnd
  0
BLOCK
  5
1C
100
AcDbEntity
 67
1
  8
0
100
AcDbBlockBegin
  2
*Paper_Space
 70
0
 10
0.0
 20
0.0
 30
0.0
  3
*Paper_Space
  1

  0
ENDBLK
  5
1D
100
AcDbEntity
 67
1
  8
0
100
AcDbBlockEnd
  0
BLOCK
  5
24
100
AcDbEntity
  8
0
100
AcDbBlockBegin
  2
*Paper_Space0
 70
0
 10
0.0
 20
0.0
 30
0.0
  3
*Paper_Space0
  1

  0
ENDBLK
  5
25
100
AcDbEntity
  8
0
100
AcDbBlockEnd
  0
ENDSEC
  0
SECTION
  2
ENTITIES
  0
LWPOLYLINE
  5
6B
100
AcDbEntity
  8
Group#1
 62
256
370
-1
 48
1.0
  6
ByLayer
100
AcDbPolyline
 90
29
 70
12288
 10
0.0
 20
16.999999999999996
 10
0.0
 20
19.999999999999996
 10
6.9999999999999982
 20
19.999999999999996
 10
6.9999999999999982
 20
16.999999999999996
 10
12.999999999999998
 20
16.999999999999996
 10
12.999999999999998
 20
19.999999999999996
 10
20.0
 20
19.999999999999996
 10
20.0
 20
16.999999999999996
 10
17.0
 20
16.999999999999996
 10
17.0
 20
12.999999999999998
 10
20.0
 20
12.999999999999998
 10
20.0
 20
7.0
 10
17.0
 20
6.9999999999999982
 10
17.0
 20
3.0
 10
20.0
 20
3.0
 10
19.999999999999996
 20
0.0
 10
12.999999999999998
 20
0.0
 10
12.999999999999998
 20
3.0
 10
7.0
 20
3.0
 10
7.0
 20
0.0
 10
0.0
 20
0.0
 10
0.0
 20
3.0000000000000031
 10
3.0
 20
3.0000000000000031
 10
3.0
 20
6.9999999999999982
 10
0.0
 20
6.9999999999999982
 10
0.0
 20
13.000000000000004
 10
3.0
 20
13.000000000000004
 10
3.0
 20
16.999999999999996
 10
0.0
 20
16.999999999999996
  0
LWPOLYLINE
  5
6C
100
AcDbEntity
  8
Group#1
 62
256
370
-1
 48
1.0
  6
ByLayer
100
AcDbPolyline
 90
25
 70
24576
 10
9.1169832203292263
 20
11.212551593467206
 10
8.8332398419106735
 20
10.942693340114044
 10
8.6290092401035814
 20
10.608592093506514
 10
8.5182093929140734
 20
10.233016301472503
 10
8.5083911268227101
 20
9.8415608335707869
 10
8.6002235404381704
 20
9.460902733028119
 10
8.7874484065327927
 20
9.116983220329228
 10
9.0573066598859544
 20
8.8332398419106752
 10
9.3914079064934839
 20
8.6290092401035814
 10
9.7669836985274934
 20
8.5182093929140734
 10
10.158439166429211
 20
8.5083911268227137
 10
10.539097266971879
 20
8.6002235404381722
 10
10.88301677967077
 20
8.7874484065327945
 10
11.166760158089325
 20
9.0573066598859562
 10
11.370990759896417
 20
9.3914079064934857
 10
11.481790607085925
 20
9.7669836985274969
 10
11.491608873177286
 20
10.158439166429215
 10
11.399776459561828
 20
10.539097266971883
 10
11.212551593467204
 20
10.883016779670774
 10
10.942693340114042
 20
11.166760158089325
 10
10.608592093506513
 20
11.370990759896419
 10
10.233016301472501
 20
11.481790607085927
 10
9.8415608335707851
 20
11.491608873177286
 10
9.4609027330281172
 20
11.399776459561828
 10
9.1169832203292263
 20
11.212551593467206
  0
LWPOLYLINE
  5
6D
100
AcDbEntity
  8
Group#1
 62
256
370
-1
 48
1.0
  6
ByLayer
100
AcDbPolyline
 90
23
 70
4096
 10
0.0
 20
29.999999999999996
 10
0.0
 20
33.999999999999993
 10
3.0
 20
33.999999999999993
 10
6.9999999999999982
 20
33.999999999999993
 10
6.9999999999999982
 20
36.999999999999993
 10
12.999999999999998
 20
36.999999999999986
 10
12.999999999999998
 20
33.999999999999993
 10
17.0
 20
33.999999999999993
 10
20.0
 20
33.999999999999993
 10
20.0
 20
29.999999999999996
 10
17.0
 20
29.999999999999996
 10
17.0
 20
23.999999999999996
 10
20.0
 20
23.999999999999996
 10
20.0
 20
19.999999999999996
 10
12.999999999999998
 20
19.999999999999996
 10
12.999999999999998
 20
16.999999999999996
 10
6.9999999999999982
 20
16.999999999999996
 10
6.9999999999999982
 20
19.999999999999996
 10
0.0
 20
19.999999999999996
 10
0.0
 20
24.0
 10
3.0
 20
24.0
 10
3.0
 20
29.999999999999996
 10
0.0
 20
29.999999999999996
  0
LWPOLYLINE
  5
6E
100
AcDbEntity
  8
Group#1
 62
256
370
-1
 48
1.0
  6
ByLayer
100
AcDbPolyline
 90
25
 70
16384
 10
7.1820236989071029
 20
22.076517474327762
 10
7.3807620835234573
 20
22.413914623366214
 10
7.4854038139649184
 20
22.79125252227038
 10
7.4888177292305365
 20
23.182816216810298
 10
7.3907711766367221
 20
23.56192128829268
 10
7.1979458667131553
 20
23.90273235259675
 10
6.9234825256722354
 20
24.182023698907102
 10
6.5860853766337826
 20
24.380762083523457
 10
6.2087474777296192
 20
24.485403813964915
 10
5.817183783189698
 20
24.488817729230533
 10
5.438078711707317
 20
24.390771176636719
 10
5.097267647403247
 20
24.197945866713155
 10
4.8179763010928962
 20
23.923482525672231
 10
4.6192379164765436
 20
23.586085376633779
 10
4.5145961860350834
 20
23.208747477729617
 10
4.5111822707694644
 20
22.817183783189694
 10
4.6092288233632779
 20
22.438078711707316
 10
4.8020541332868456
 20
22.097267647403243
 10
5.0765174743277655
 20
21.817976301092894
 10
5.4139146233662174
 20
21.619237916476539
 10
5.7912525222703817
 20
21.514596186035082
 10
6.1828162168103011
 20
21.51118227076946
 10
6.561921288292683
 20
21.609228823363274
 10
6.9027323525967521
 20
21.802054133286841
 10
7.1820236989071029
 20
22.076517474327762
  0
LWPOLYLINE
  5
6F
100
AcDbEntity
  8
Group#1
 62
256
370
-1
 48
1.0
  6
ByLayer
100
AcDbPolyline
 90
25
 70
28672
 10
15.192102141090938
 20
30.089564672694205
 10
15.387120247695112
 20
30.429125742011223
 10
15.487608401743458
 20
30.807590948595852
 10
15.486718501602105
 20
31.199168514062688
 10
15.38451119249506
 20
31.577173074437681
 10
15.187951733632401
 20
31.915844243613343
 10
14.910435327305757
 20
32.192102141090928
 10
14.57087425798874
 20
32.387120247695101
 10
14.192409051404107
 20
32.487608401743444
 10
13.800831485937277
 20
32.486718501602098
 10
13.422826925562285
 20
32.384511192495047
 10
13.08415575638662
 20
32.187951733632396
 10
12.807897858909033
 20
31.910435327305748
 10
12.61287975230486
 20
31.570874257988731
 10
12.512391598256514
 20
31.192409051404102
 10
12.513281498397866
 20
30.800831485937266
 10
12.61548880750491
 20
30.42282692556228
 10
12.812048266367571
 20
30.084155756386611
 10
13.089564672694214
 20
29.807897858909026
 10
13.429125742011232
 20
29.612879752304849
 10
13.807590948595864
 20
29.51239159825651
 10
14.199168514062693
 20
29.513281498397859
 10
14.577173074437686
 20
29.615488807504903
 10
14.91584424361335
 20
29.812048266367562
 10
15.192102141090938
 20
30.089564672694205
  0
LWPOLYLINE
  5
70
100
AcDbEntity
  8
Group#1
 62
256
370
-1
 48
1.0
  6
ByLayer
100
AcDbPolyline
 90
23
 70
8192
 10
12.999999999999998
 20
54.0
 10
17.000000000000004
 20
54.0
 10
17.0
 20
51.0
 10
17.0
 20
46.999999999999993
 10
20.0
 20
46.999999999999993
 10
20.0
 20
40.999999999999993
 10
17.0
 20
40.999999999999993
 10
17.0
 20
33.999999999999993
 10
12.999999999999998
 20
33.999999999999993
 10
12.999999999999998
 20
36.999999999999986
 10
6.9999999999999982
 20
36.999999999999993
 10
6.9999999999999982
 20
33.999999999999993
 10
3.0
 20
33.999999999999993
 10
3.0
 20
40.999999999999993
 10
0.0
 20
40.999999999999993
 10
0.0
 20
46.999999999999993
 10
3.0
 20
46.999999999999993
 10
3.0
 20
51.0
 10
3.0
 20
54.0
 10
7.0000000000000009
 20
54.0
 10
7.0
 20
51.0
 10
12.999999999999998
 20
51.0
 10
12.999999999999998
 20
54.0
  0
LWPOLYLINE
  5
71
100
AcDbEntity
  8
Group#1
 62
256
370
-1
 48
1.0
  6
ByLayer
100
AcDbPolyline
 90
25
 70
20480
 10
12.499999999999986
 20
40.000000000000014
 10
12.551111260566383
 20
39.611771432346231
 10
12.700961894323326
 20
39.250000000000014
 10
12.939339828220165
 20
38.939339828220191
 10
13.249999999999984
 20
38.700961894323356
 10
13.611771432346201
 20
38.551111260566408
 10
13.999999999999986
 20
38.500000000000007
 10
14.388228567653764
 20
38.551111260566408
 10
14.749999999999984
 20
38.700961894323349
 10
15.060660171779807
 20
38.939339828220184
 10
15.299038105676644
 20
39.250000000000014
 10
15.448888739433588
 20
39.611771432346224
 10
15.499999999999986
 20
40.000000000000014
 10
15.448888739433588
 20
40.38822856765379
 10
15.299038105676644
 20
40.750000000000007
 10
15.060660171779807
 20
41.06066017177983
 10
14.749999999999988
 20
41.299038105676665
 10
14.388228567653767
 20
41.448888739433613
 10
13.999999999999986
 20
41.500000000000014
 10
13.611771432346208
 20
41.448888739433613
 10
13.249999999999988
 20
41.299038105676672
 10
12.939339828220165
 20
41.060660171779837
 10
12.70096189432333
 20
40.750000000000007
 10
12.551111260566383
 20
40.388228567653798
 10
12.499999999999986
 20
40.000000000000014
  0
LWPOLYLINE
  5
72
100
AcDbEntity
  8
Group#1
 62
256
370
-1
 48
1.0
  6
ByLayer
100
AcDbPolyline
 90
25
 70
0
 10
5.6117714323462176
 20
46.551111260566401
 10
6.0
 20
46.500000000000007
 10
6.3882285676537798
 20
46.551111260566401
 10
6.7499999999999991
 20
46.700961894323342
 10
7.060660171779821
 20
46.939339828220177
 10
7.299038105676658
 20
47.250000000000007
 10
7.4488887394336025
 20
47.611771432346217
 10
7.5
 20
48.0
 10
7.4488887394336025
 20
48.388228567653783
 10
7.2990381056766589
 20
48.75
 10
7.060660171779821
 20
49.060660171779823
 10
6.7500000000000018
 20
49.299038105676658
 10
6.3882285676537816
 20
49.448888739433606
 10
6.0000000000000009
 20
49.500000000000007
 10
5.6117714323462202
 20
49.448888739433606
 10
5.2500000000000009
 20
49.299038105676658
 10
4.939339828220179
 20
49.060660171779823
 10
4.7009618943233429
 20
48.75
 10
4.5511112605663975
 20
48.388228567653783
 10
4.5
 20
48.0
 10
4.5511112605663975
 20
47.611771432346224
 10
4.7009618943233411
 20
47.250000000000007
 10
4.9393398282201781
 20
46.939339828220184
 10
5.2499999999999991
 20
46.700961894323349
 10
5.6117714323462176
 20
46.551111260566401
  0
LWPOLYLINE
  5
73
100
AcDbEntity
  8
Group#1
 62
256
370
-1
 48
1.0
  6
ByLayer
100
AcDbPolyline
 90
25
 70
28672
 10
11.299038105676658
 20
44.75
 10
11.060660171779821
 20
45.060660171779816
 10
10.75
 20
45.299038105676651
 10
10.388228567653783
 20
45.448888739433592
 10
10.000000000000002
 20
45.499999999999993
 10
9.611771432346222
 20
45.448888739433599
 10
9.2500000000000036
 20
45.299038105676651
 10
8.9393398282201826
 20
45.060660171779816
 10
8.7009618943233455
 20
44.75
 10
8.551111260566401
 20
44.388228567653783
 10
8.5000000000000036
 20
44.0
 10
8.551111260566401
 20
43.611771432346217
 10
8.7009618943233455
 20
43.25
 10
8.9393398282201826
 20
42.939339828220177
 10
9.2500000000000036
 20
42.700961894323342
 10
9.6117714323462202
 20
42.551111260566401
 10
10.000000000000002
 20
42.5
 10
10.388228567653782
 20
42.551111260566394
 10
10.75
 20
42.700961894323342
 10
11.060660171779821
 20
42.939339828220177
 10
11.299038105676658
 20
43.25
 10
11.448888739433601
 20
43.611771432346217
 10
11.499999999999998
 20
44.0
 10
11.448888739433601
 20
44.388228567653776
 10
11.299038105676658
 20
44.75
  0
LWPOLYLINE
  5
74
100
AcDbEntity
  8
Group#1
 62
256
370
-1
 48
1.0
  6
ByLayer
100
AcDbPolyline
 90
25
 70
30720
 10
8.8332398419106735
 20
10.942693340114044
 10
9.1169832203292263
 20
11.212551593467206
 10
9.4609027330281172
 20
11.399776459561828
 10
9.8415608335707851
 20
11.491608873177286
 10
10.233016301472501
 20
11.481790607085927
 10
10.608592093506513
 20
11.370990759896419
 10
10.942693340114042
 20
11.166760158089325
 10
11.212551593467204
 20
10.883016779670774
 10
11.399776459561828
 20
10.539097266971883
 10
11.491608873177286
 20
10.158439166429215
 10
11.481790607085925
 20
9.7669836985274969
 10
11.370990759896417
 20
9.3914079064934857
 10
11.166760158089325
 20
9.0573066598859562
 10
10.88301677967077
 20
8.7874484065327945
 10
10.539097266971879
 20
8.6002235404381722
 10
10.158439166429211
 20
8.5083911268227137
 10
9.7669836985274934
 20
8.5182093929140734
 10
9.3914079064934839
 20
8.6290092401035814
 10
9.0573066598859544
 20
8.8332398419106752
 10
8.7874484065327927
 20
9.116983220329228
 10
8.6002235404381704
 20
9.460902733028119
 10
8.5083911268227101
 20
9.8415608335707869
 10
8.5182093929140734
 20
10.233016301472503
 10
8.6290092401035814
 20
10.608592093506514
 10
8.8332398419106735
 20
10.942693340114044
  0
LWPOLYLINE
  5
75
100
AcDbEntity
  8
Group#1
 62
256
370
-1
 48
1.0
  6
ByLayer
100
AcDbPolyline
 90
25
 70
10240
 10
7.3807620835234573
 20
22.413914623366214
 10
7.1820236989071029
 20
22.076517474327762
 10
6.9027323525967521
 20
21.802054133286841
 10
6.561921288292683
 20
21.609228823363274
 10
6.1828162168103011
 20
21.51118227076946
 10
5.7912525222703817
 20
21.514596186035082
 10
5.4139146233662174
 20
21.619237916476539
 10
5.0765174743277655
 20
21.817976301092894
 10
4.8020541332868456
 20
22.097267647403243
 10
4.6092288233632779
 20
22.438078711707316
 10
4.5111822707694644
 20
22.817183783189694
 10
4.5145961860350834
 20
23.208747477729617
 10
4.6192379164765436
 20
23.586085376633779
 10
4.8179763010928962
 20
23.923482525672231
 10
5.097267647403247
 20
24.197945866713155
 10
5.438078711707317
 20
24.390771176636719
 10
5.817183783189698
 20
24.488817729230533
 10
6.2087474777296192
 20
24.485403813964915
 10
6.5860853766337826
 20
24.380762083523457
 10
6.9234825256722354
 20
24.182023698907102
 10
7.1979458667131553
 20
23.90273235259675
 10
7.3907711766367221
 20
23.56192128829268
 10
7.4888177292305365
 20
23.182816216810298
 10
7.4854038139649184
 20
22.79125252227038
 10
7.3807620835234573
 20
22.413914623366214
  0
LWPOLYLINE
  5
76
100
AcDbEntity
  8
Group#1
 62
256
370
-1
 48
1.0
  6
ByLayer
100
AcDbPolyline
 90
25
 70
22528
 10
15.387120247695112
 20
30.429125742011223
 10
15.192102141090938
 20
30.089564672694205
 10
14.91584424361335
 20
29.812048266367562
 10
14.577173074437686
 20
29.615488807504903
 10
14.199168514062693
 20
29.513281498397859
 10
13.807590948595864
 20
29.51239159825651
 10
13.429125742011232
 20
29.612879752304849
 10
13.089564672694214
 20
29.807897858909026
 10
12.812048266367571
 20
30.084155756386611
 10
12.61548880750491
 20
30.42282692556228
 10
12.513281498397866
 20
30.800831485937266
 10
12.512391598256514
 20
31.192409051404102
 10
12.61287975230486
 20
31.570874257988731
 10
12.807897858909033
 20
31.910435327305748
 10
13.08415575638662
 20
32.187951733632396
 10
13.422826925562285
 20
32.384511192495047
 10
13.800831485937277
 20
32.486718501602098
 10
14.192409051404107
 20
32.487608401743444
 10
14.57087425798874
 20
32.387120247695101
 10
14.910435327305757
 20
32.192102141090928
 10
15.187951733632401
 20
31.915844243613343
 10
15.38451119249506
 20
31.577173074437681
 10
15.486718501602105
 20
31.199168514062688
 10
15.487608401743458
 20
30.807590948595852
 10
15.387120247695112
 20
30.429125742011223
  0
LWPOLYLINE
  5
77
100
AcDbEntity
  8
Group#1
 62
256
370
-1
 48
1.0
  6
ByLayer
100
AcDbPolyline
 90
25
 70
2048
 10
12.551111260566383
 20
39.611771432346231
 10
12.499999999999986
 20
40.000000000000014
 10
12.551111260566383
 20
40.388228567653798
 10
12.70096189432333
 20
40.750000000000007
 10
12.939339828220165
 20
41.060660171779837
 10
13.249999999999988
 20
41.299038105676672
 10
13.611771432346208
 20
41.448888739433613
 10
13.999999999999986
 20
41.500000000000014
 10
14.388228567653767
 20
41.448888739433613
 10
14.749999999999988
 20
41.299038105676665
 10
15.060660171779807
 20
41.06066017177983
 10
15.299038105676644
 20
40.750000000000007
 10
15.448888739433588
 20
40.38822856765379
 10
15.499999999999986
 20
40.000000000000014
 10
15.448888739433588
 20
39.611771432346224
 10
15.299038105676644
 20
39.250000000000014
 10
15.060660171779807
 20
38.939339828220184
 10
14.749999999999984
 20
38.700961894323349
 10
14.388228567653764
 20
38.551111260566408
 10
13.999999999999986
 20
38.500000000000007
 10
13.611771432346201
 20
38.551111260566408
 10
13.249999999999984
 20
38.700961894323356
 10
12.939339828220165
 20
38.939339828220191
 10
12.700961894323326
 20
39.250000000000014
 10
12.551111260566383
 20
39.611771432346231
  0
LWPOLYLINE
  5
78
100
AcDbEntity
  8
Group#1
 62
256
370
-1
 48
1.0
  6
ByLayer
100
AcDbPolyline
 90
25
 70
14336
 10
6.0
 20
46.500000000000007
 10
5.6117714323462176
 20
46.551111260566401
 10
5.2499999999999991
 20
46.700961894323349
 10
4.9393398282201781
 20
46.939339828220184
 10
4.7009618943233411
 20
47.250000000000007
 10
4.5511112605663975
 20
47.611771432346224
 10
4.5
 20
48.0
 10
4.5511112605663975
 20
48.388228567653783
 10
4.7009618943233429
 20
48.75
 10
4.939339828220179
 20
49.060660171779823
 10
5.2500000000000009
 20
49.299038105676658
 10
5.6117714323462202
 20
49.448888739433606
 10
6.0000000000000009
 20
49.500000000000007
 10
6.3882285676537816
 20
49.448888739433606
 10
6.7500000000000018
 20
49.299038105676658
 10
7.060660171779821
 20
49.060660171779823
 10
7.2990381056766589
 20
48.75
 10
7.4488887394336025
 20
48.388228567653783
 10
7.5
 20
48.0
 10
7.4488887394336025
 20
47.611771432346217
 10
7.299038105676658
 20
47.250000000000007
 10
7.060660171779821
 20
46.939339828220177
 10
6.7499999999999991
 20
46.700961894323342
 10
6.3882285676537798
 20
46.551111260566401
 10
6.0
 20
46.500000000000007
  0
LWPOLYLINE
  5
79
100
AcDbEntity
  8
Group#1
 62
256
370
-1
 48
1.0
  6
ByLayer
100
AcDbPolyline
 90
25
 70
26624
 10
11.060660171779821
 20
45.060660171779816
 10
11.299038105676658
 20
44.75
 10
11.448888739433601
 20
44.388228567653776
 10
11.499999999999998
 20
44.0
 10
11.448888739433601
 20
43.611771432346217
 10
11.299038105676658
 20
43.25
 10
11.060660171779821
 20
42.939339828220177
 10
10.75
 20
42.700961894323342
 10
10.388228567653782
 20
42.551111260566394
 10
10.000000000000002
 20
42.5
 10
9.6117714323462202
 20
42.551111260566401
 10
9.2500000000000036
 20
42.700961894323342
 10
8.9393398282201826
 20
42.939339828220177
 10
8.7009618943233455
 20
43.25
 10
8.551111260566401
 20
43.611771432346217
 10
8.5000000000000036
 20
44.0
 10
8.551111260566401
 20
44.388228567653783
 10
8.7009618943233455
 20
44.75
 10
8.9393398282201826
 20
45.060660171779816
 10
9.2500000000000036
 20
45.299038105676651
 10
9.611771432346222
 20
45.448888739433599
 10
10.000000000000002
 20
45.499999999999993
 10
10.388228567653783
 20
45.448888739433592
 10
10.75
 20
45.299038105676651
 10
11.060660171779821
 20
45.060660171779816
  0
LWPOLYLINE
  5
7A
100
AcDbEntity
  8
Group#1
 62
256
370
-1
 48
1.0
  6
ByLayer
100
AcDbPolyline
 90
25
 70
6144
 10
17.0
 20
16.999999999999996
 10
20.0
 20
16.999999999999996
 10
24.000000000000011
 20
16.999999999999993
 10
24.000000000000011
 20
19.999999999999996
 10
30.000000000000014
 20
19.999999999999996
 10
30.000000000000014
 20
16.999999999999996
 10
33.999999999999986
 20
16.999999999999996
 10
36.999999999999986
 20
16.999999999999996
 10
37.0
 20
12.999999999999998
 10
34.0
 20
12.999999999999998
 10
34.0
 20
7.0
 10
37.0
 20
7.0
 10
37.0
 20
3.0
 10
34.0
 20
3.0
 10
30.0
 20
3.0
 10
29.999999999999996
 20
0.0
 10
23.999999999999996
 20
0.0
 10
23.999999999999996
 20
3.0
 10
20.0
 20
3.0
 10
17.0
 20
3.0
 10
17.0
 20
6.9999999999999982
 10
20.0
 20
7.0
 10
20.0
 20
12.999999999999998
 10
17.0
 20
12.999999999999998
 10
17.0
 20
16.999999999999996
  0
LWPOLYLINE
  5
7B
100
AcDbEntity
  8
Group#1
 62
256
370
-1
 48
1.0
  6
ByLayer
100
AcDbPolyline
 90
25
 70
18432
 10
23.963400495141382
 20
12.850278518091729
 10
24.22814323539809
 20
13.138800723789249
 10
24.409190043765079
 20
13.486012236961439
 10
24.494202879446132
 20
13.868251166779764
 10
24.477388258179943
 20
14.259468561856806
 10
24.359892068618322
 20
14.633003603235382
 10
24.149721481908269
 20
14.96340049514138
 10
23.861199276210744
 20
15.228143235398086
 10
23.513987763038557
 20
15.409190043765074
 10
23.131748833220232
 20
15.494202879446126
 10
22.74053143814319
 20
15.477388258179937
 10
22.366996396764616
 20
15.359892068618318
 10
22.036599504858621
 20
15.149721481908264
 10
21.77185676460191
 20
14.861199276210742
 10
21.590809956234924
 20
14.513987763038555
 10
21.505797120553872
 20
14.131748833220229
 10
21.522611741820057
 20
13.740531438143186
 10
21.640107931381678
 20
13.366996396764613
 10
21.850278518091731
 20
13.036599504858616
 10
22.138800723789252
 20
12.771856764601907
 10
22.486012236961443
 20
12.590809956234921
 10
22.868251166779768
 20
12.505797120553867
 10
23.25946856185681
 20
12.522611741820056
 10
23.633003603235384
 20
12.640107931381674
 10
23.963400495141382
 20
12.850278518091729
  0
LWPOLYLINE
  5
7C
100
AcDbEntity
  8
Group#1
 62
256
370
-1
 48
1.0
  6
ByLayer
100
AcDbPolyline
 90
25
 70
30720
 10
29.700961894323342
 20
14.749999999999998
 10
29.551111260566397
 20
14.388228567653778
 10
29.500000000000004
 20
13.999999999999996
 10
29.551111260566397
 20
13.611771432346215
 10
29.700961894323342
 20
13.249999999999998
 10
29.939339828220177
 20
12.939339828220175
 10
30.25
 20
12.700961894323338
 10
30.611771432346217
 20
12.551111260566394
 10
31.0
 20
12.499999999999996
 10
31.38822856765378
 20
12.551111260566394
 10
31.75
 20
12.700961894323338
 10
32.060660171779823
 20
12.939339828220175
 10
32.299038105676658
 20
13.249999999999995
 10
32.448888739433599
 20
13.611771432346215
 10
32.5
 20
13.999999999999996
 10
32.448888739433599
 20
14.388228567653778
 10
32.299038105676658
 20
14.749999999999995
 10
32.060660171779823
 20
15.060660171779817
 10
31.75
 20
15.299038105676656
 10
31.388228567653783
 20
15.448888739433599
 10
31.0
 20
15.499999999999996
 10
30.61177143234622
 20
15.448888739433599
 10
30.25
 20
15.299038105676656
 10
29.939339828220181
 20
15.060660171779817
 10
29.700961894323342
 20
14.749999999999998
  0
LWPOLYLINE
  5
7D
100
AcDbEntity
  8
Group#1
 62
256
370
-1
 48
1.0
  6
ByLayer
100
AcDbPolyline
 90
25
 70
10240
 10
23.38822856765378
 20
4.5511112605663975
 10
23.75
 20
4.7009618943233411
 10
24.060660171779823
 20
4.9393398282201781
 10
24.299038105676658
 20
5.2499999999999991
 10
24.448888739433603
 20
5.6117714323462176
 10
24.5
 20
6.0
 10
24.448888739433603
 20
6.3882285676537816
 10
24.299038105676658
 20
6.75
 10
24.060660171779823
 20
7.060660171779821
 10
23.75
 20
7.299038105676658
 10
23.38822856765378
 20
7.4488887394336025
 10
23.0
 20
7.5
 10
22.61177143234622
 20
7.4488887394336025
 10
22.25
 20
7.2990381056766589
 10
21.939339828220181
 20
7.060660171779821
 10
21.700961894323342
 20
6.75
 10
21.551111260566397
 20
6.3882285676537816
 10
21.5
 20
6.0
 10
21.551111260566397
 20
5.6117714323462193
 10
21.700961894323342
 20
5.2500000000000009
 10
21.939339828220181
 20
4.939339828220179
 10
22.25
 20
4.7009618943233429
 10
22.61177143234622
 20
4.5511112605663975
 10
23.0
 20
4.5
 10
23.38822856765378
 20
4.5511112605663975
  0
LWPOLYLINE
  5
7E
100
AcDbEntity
  8
Group#1
 62
256
370
-1
 48
1.0
  6
ByLayer
100
AcDbPolyline
 90
25
 70
22528
 10
31.388228567653783
 20
7.4488887394336025
 10
31.0
 20
7.5
 10
30.61177143234622
 20
7.4488887394336025
 10
30.25
 20
7.2990381056766589
 10
29.939339828220181
 20
7.0606601717798227
 10
29.700961894323342
 20
6.7500000000000018
 10
29.551111260566397
 20
6.3882285676537833
 10
29.500000000000004
 20
6.0
 10
29.551111260566397
 20
5.6117714323462193
 10
29.700961894323342
 20
5.2500000000000009
 10
29.939339828220177
 20
4.939339828220179
 10
30.25
 20
4.7009618943233429
 10
30.611771432346217
 20
4.5511112605663975
 10
31.0
 20
4.5
 10
31.38822856765378
 20
4.5511112605663975
 10
31.75
 20
4.700961894323342
 10
32.060660171779823
 20
4.939339828220179
 10
32.299038105676658
 20
5.25
 10
32.448888739433599
 20
5.6117714323462193
 10
32.5
 20
6.0
 10
32.448888739433599
 20
6.3882285676537816
 10
32.299038105676658
 20
6.75
 10
32.060660171779823
 20
7.060660171779821
 10
31.75
 20
7.299038105676658
 10
31.388228567653783
 20
7.4488887394336025
  0
LWPOLYLINE
  5
7F
100
AcDbEntity
  8
Group#1
 62
256
370
-1
 48
1.0
  6
ByLayer
100
AcDbPolyline
 90
25
 70
2048
 10
20.0
 20
29.999999999999996
 10
20.0
 20
33.999999999999993
 10
20.0
 20
36.999999999999993
 10
24.0
 20
36.999999999999993
 10
24.0
 20
33.999999999999993
 10
30.000000000000046
 20
33.999999999999993
 10
30.000000000000046
 20
36.999999999999993
 10
33.999999999999993
 20
36.999999999999993
 10
33.999999999999993
 20
33.999999999999993
 10
33.999999999999993
 20
29.999999999999996
 10
36.999999999999986
 20
29.999999999999996
 10
36.999999999999986
 20
23.999999999999996
 10
33.999999999999993
 20
23.999999999999996
 10
33.999999999999993
 20
22.999999999999996
 10
33.999999999999986
 20
16.999999999999996
 10
30.000000000000014
 20
16.999999999999996
 10
30.000000000000014
 20
19.999999999999996
 10
24.000000000000011
 20
19.999999999999996
 10
24.000000000000011
 20
16.999999999999993
 10
20.0
 20
16.999999999999996
 10
20.0
 20
19.999999999999996
 10
20.0
 20
23.999999999999996
 10
17.0
 20
23.999999999999996
 10
17.0
 20
29.999999999999996
 10
20.0
 20
29.999999999999996
  0
LWPOLYLINE
  5
80
100
AcDbEntity
  8
Group#1
 62
256
370
-1
 48
1.0
  6
ByLayer
100
AcDbPolyline
 90
25
 70
14336
 10
24.341640786499873
 20
30.329179606750063
 10
24.469546578899251
 20
30.699279444590989
 10
24.49730520048719
 20
31.089872891318823
 10
24.423024947075767
 20
31.474341649025256
 10
24.25176789518105
 20
31.826484807237257
 10
23.995204929873996
 20
32.122304391666759
 10
23.670820393249937
 20
32.341640786499873
 10
23.300720555409011
 20
32.469546578899255
 10
22.910127108681177
 20
32.49730520048719
 10
22.525658350974744
 20
32.423024947075767
 10
22.173515192762743
 20
32.251767895181047
 10
21.877695608333241
 20
31.995204929873992
 10
21.658359213500127
 20
31.670820393249933
 10
21.530453421100749
 20
31.300720555409011
 10
21.50269479951281
 20
30.910127108681174
 10
21.576975052924233
 20
30.525658350974744
 10
21.748232104818953
 20
30.173515192762743
 10
22.004795070126004
 20
29.877695608333241
 10
22.329179606750063
 20
29.658359213500123
 10
22.699279444590989
 20
29.530453421100745
 10
23.089872891318826
 20
29.50269479951281
 10
23.474341649025256
 20
29.576975052924233
 10
23.826484807237257
 20
29.748232104818953
 10
24.122304391666759
 20
30.004795070126008
 10
24.341640786499873
 20
30.329179606750063
  0
LWPOLYLINE
  5
81
100
AcDbEntity
  8
Group#1
 62
256
370
-1
 48
1.0
  6
ByLayer
100
AcDbPolyline
 90
25
 70
26624
 10
23.38822856765378
 20
21.551111260566394
 10
23.75
 20
21.700961894323338
 10
24.060660171779823
 20
21.939339828220177
 10
24.299038105676658
 20
22.249999999999996
 10
24.448888739433603
 20
22.611771432346217
 10
24.5
 20
22.999999999999996
 10
24.448888739433603
 20
23.38822856765378
 10
24.299038105676658
 20
23.749999999999996
 10
24.060660171779823
 20
24.060660171779819
 10
23.75
 20
24.299038105676654
 10
23.38822856765378
 20
24.448888739433599
 10
23.0
 20
24.499999999999996
 10
22.61177143234622
 20
24.448888739433599
 10
22.25
 20
24.299038105676654
 10
21.939339828220181
 20
24.060660171779819
 10
21.700961894323342
 20
23.75
 10
21.551111260566397
 20
23.38822856765378
 10
21.5
 20
22.999999999999996
 10
21.551111260566397
 20
22.611771432346217
 10
21.700961894323342
 20
22.25
 10
21.939339828220181
 20
21.939339828220177
 10
22.25
 20
21.700961894323338
 10
22.61177143234622
 20
21.551111260566394
 10
23.0
 20
21.499999999999996
 10
23.38822856765378
 20
21.551111260566394
  0
LWPOLYLINE
  5
82
100
AcDbEntity
  8
Group#1
 62
256
370
-1
 48
1.0
  6
ByLayer
100
AcDbPolyline
 90
25
 70
6144
 10
29.551111260566397
 20
31.38822856765378
 10
29.500000000000004
 20
30.999999999999993
 10
29.551111260566397
 20
30.611771432346217
 10
29.700961894323342
 20
30.249999999999996
 10
29.939339828220177
 20
29.939339828220177
 10
30.25
 20
29.700961894323338
 10
30.611771432346217
 20
29.55111126056639
 10
31.0
 20
29.499999999999989
 10
31.38822856765378
 20
29.55111126056639
 10
31.75
 20
29.700961894323338
 10
32.060660171779823
 20
29.93933982822017
 10
32.299038105676658
 20
30.249999999999996
 10
32.448888739433599
 20
30.61177143234621
 10
32.5
 20
30.999999999999993
 10
32.448888739433599
 20
31.388228567653773
 10
32.299038105676658
 20
31.749999999999993
 10
32.060660171779823
 20
32.060660171779816
 10
31.75
 20
32.299038105676651
 10
31.388228567653783
 20
32.448888739433599
 10
31.0
 20
32.5
 10
30.61177143234622
 20
32.448888739433599
 10
30.25
 20
32.299038105676651
 10
29.939339828220181
 20
32.060660171779816
 10
29.700961894323342
 20
31.749999999999993
 10
29.551111260566397
 20
31.38822856765378
  0
LWPOLYLINE
  5
83
100
AcDbEntity
  8
Group#1
 62
256
370
-1
 48
1.0
  6
ByLayer
100
AcDbPolyline
 90
25
 70
18432
 10
31.38822856765378
 20
21.551111260566394
 10
31.75
 20
21.700961894323338
 10
32.060660171779816
 20
21.939339828220177
 10
32.299038105676658
 20
22.249999999999996
 10
32.448888739433599
 20
22.611771432346217
 10
32.5
 20
22.999999999999996
 10
32.448888739433599
 20
23.388228567653776
 10
32.299038105676658
 20
23.749999999999996
 10
32.060660171779823
 20
24.060660171779819
 10
31.750000000000004
 20
24.299038105676654
 10
31.388228567653783
 20
24.448888739433599
 10
31.0
 20
24.499999999999996
 10
30.61177143234622
 20
24.448888739433599
 10
30.25
 20
24.299038105676654
 10
29.939339828220181
 20
24.060660171779819
 10
29.700961894323342
 20
23.75
 10
29.551111260566397
 20
23.38822856765378
 10
29.500000000000004
 20
23.0
 10
29.551111260566397
 20
22.61177143234622
 10
29.700961894323338
 20
22.25
 10
29.939339828220177
 20
21.939339828220177
 10
30.249999999999996
 20
21.700961894323342
 10
30.611771432346217
 20
21.551111260566394
 10
31.0
 20
21.499999999999996
 10
31.38822856765378
 20
21.551111260566394
  0
LWPOLYLINE
  5
84
100
AcDbEntity
  8
Group#1
 62
256
370
-1
 48
1.0
  6
ByLayer
100
AcDbPolyline
 90
25
 70
30720
 10
28.447874664533561
 20
26.608006433979
 10
28.499994932146478
 20
26.99610082894387
 10
28.449893023992438
 20
27.384460945972535
 10
28.30098330231483
 20
27.746620684884924
 10
28.063413718561023
 20
28.057899457971427
 10
27.753374247261547
 20
28.297084131258689
 10
27.391993566021007
 20
28.447874664533547
 10
27.003899171056137
 20
28.499994932146461
 10
26.615539054027472
 20
28.44989302399242
 10
26.253379315115083
 20
28.300983302314812
 10
25.942100542028584
 20
28.063413718561005
 10
25.702915868741322
 20
27.753374247261529
 10
25.552125335466464
 20
27.391993566020989
 10
25.50000506785355
 20
27.003899171056119
 10
25.550106976007587
 20
26.615539054027455
 10
25.699016697685195
 20
26.253379315115065
 10
25.936586281439002
 20
25.942100542028566
 10
26.246625752738478
 20
25.702915868741304
 10
26.608006433979018
 20
25.552125335466446
 10
26.996100828943888
 20
25.500005067853532
 10
27.384460945972553
 20
25.550106976007573
 10
27.746620684884942
 20
25.699016697685177
 10
28.057899457971441
 20
25.936586281438988
 10
28.297084131258707
 20
26.24662575273846
 10
28.447874664533561
 20
26.608006433979
  0
LWPOLYLINE
  5
85
100
AcDbEntity
  8
Group#1
 62
256
370
-1
 48
1.0
  6
ByLayer
100
AcDbPolyline
 90
25
 70
10240
 10
24.22814323539809
 20
13.138800723789249
 10
23.963400495141382
 20
12.850278518091729
 10
23.633003603235384
 20
12.640107931381674
 10
23.25946856185681
 20
12.522611741820056
 10
22.868251166779768
 20
12.505797120553867
 10
22.486012236961443
 20
12.590809956234921
 10
22.138800723789252
 20
12.771856764601907
 10
21.850278518091731
 20
13.036599504858616
 10
21.640107931381678
 20
13.366996396764613
 10
21.522611741820057
 20
13.740531438143186
 10
21.505797120553872
 20
14.131748833220229
 10
21.590809956234924
 20
14.513987763038555
 10
21.77185676460191
 20
14.861199276210742
 10
22.036599504858621
 20
15.149721481908264
 10
22.366996396764616
 20
15.359892068618318
 10
22.74053143814319
 20
15.477388258179937
 10
23.131748833220232
 20
15.494202879446126
 10
23.513987763038557
 20
15.409190043765074
 10
23.861199276210744
 20
15.228143235398086
 10
24.149721481908269
 20
14.96340049514138
 10
24.359892068618322
 20
14.633003603235382
 10
24.477388258179943
 20
14.259468561856806
 10
24.494202879446132
 20
13.868251166779764
 10
24.409190043765079
 20
13.486012236961439
 10
24.22814323539809
 20
13.138800723789249
  0
LWPOLYLINE
  5
86
100
AcDbEntity
  8
Group#1
 62
256
370
-1
 48
1.0
  6
ByLayer
100
AcDbPolyline
 90
25
 70
22528
 10
29.551111260566397
 20
14.388228567653778
 10
29.700961894323342
 20
14.749999999999998
 10
29.939339828220181
 20
15.060660171779817
 10
30.25
 20
15.299038105676656
 10
30.61177143234622
 20
15.448888739433599
 10
31.0
 20
15.499999999999996
 10
31.388228567653783
 20
15.448888739433599
 10
31.75
 20
15.299038105676656
 10
32.060660171779823
 20
15.060660171779817
 10
32.299038105676658
 20
14.749999999999995
 10
32.448888739433599
 20
14.388228567653778
 10
32.5
 20
13.999999999999996
 10
32.448888739433599
 20
13.611771432346215
 10
32.299038105676658
 20
13.249999999999995
 10
32.060660171779823
 20
12.939339828220175
 10
31.75
 20
12.700961894323338
 10
31.38822856765378
 20
12.551111260566394
 10
31.0
 20
12.499999999999996
 10
30.611771432346217
 20
12.551111260566394
 10
30.25
 20
12.700961894323338
 10
29.939339828220177
 20
12.939339828220175
 10
29.700961894323342
 20
13.249999999999998
 10
29.551111260566397
 20
13.611771432346215
 10
29.500000000000004
 20
13.999999999999996
 10
29.551111260566397
 20
14.388228567653778
  0
LWPOLYLINE
  5
87
100
AcDbEntity
  8
Group#1
 62
256
370
-1
 48
1.0
  6
ByLayer
100
AcDbPolyline
 90
25
 70
2048
 10
23.75
 20
4.7009618943233411
 10
23.38822856765378
 20
4.5511112605663975
 10
23.0
 20
4.5
 10
22.61177143234622
 20
4.5511112605663975
 10
22.25
 20
4.7009618943233429
 10
21.939339828220181
 20
4.939339828220179
 10
21.700961894323342
 20
5.2500000000000009
 10
21.551111260566397
 20
5.6117714323462193
 10
21.5
 20
6.0
 10
21.551111260566397
 20
6.3882285676537816
 10
21.700961894323342
 20
6.75
 10
21.939339828220181
 20
7.060660171779821
 10
22.25
 20
7.2990381056766589
 10
22.61177143234622
 20
7.4488887394336025
 10
23.0
 20
7.5
 10
23.38822856765378
 20
7.4488887394336025
 10
23.75
 20
7.299038105676658
 10
24.060660171779823
 20
7.060660171779821
 10
24.299038105676658
 20
6.75
 10
24.448888739433603
 20
6.3882285676537816
 10
24.5
 20
6.0
 10
24.448888739433603
 20
5.6117714323462176
 10
24.299038105676658
 20
5.2499999999999991
 10
24.060660171779823
 20
4.9393398282201781
 10
23.75
 20
4.7009618943233411
  0
LWPOLYLINE
  5
88
100
AcDbEntity
  8
Group#1
 62
256
370
-1
 48
1.0
  6
ByLayer
100
AcDbPolyline
 90
25
 70
14336
 10
31.0
 20
7.5
 10
31.388228567653783
 20
7.4488887394336025
 10
31.75
 20
7.299038105676658
 10
32.060660171779823
 20
7.060660171779821
 10
32.299038105676658
 20
6.75
 10
32.448888739433599
 20
6.3882285676537816
 10
32.5
 20
6.0
 10
32.448888739433599
 20
5.6117714323462193
 10
32.299038105676658
 20
5.25
 10
32.060660171779823
 20
4.939339828220179
 10
31.75
 20
4.700961894323342
 10
31.38822856765378
 20
4.5511112605663975
 10
31.0
 20
4.5
 10
30.611771432346217
 20
4.5511112605663975
 10
30.25
 20
4.7009618943233429
 10
29.939339828220177
 20
4.939339828220179
 10
29.700961894323342
 20
5.2500000000000009
 10
29.551111260566397
 20
5.6117714323462193
 10
29.500000000000004
 20
6.0
 10
29.551111260566397
 20
6.3882285676537833
 10
29.700961894323342
 20
6.7500000000000018
 10
29.939339828220181
 20
7.0606601717798227
 10
30.25
 20
7.2990381056766589
 10
30.61177143234622
 20
7.4488887394336025
 10
31.0
 20
7.5
  0
LWPOLYLINE
  5
89
100
AcDbEntity
  8
Group#1
 62
256
370
-1
 48
1.0
  6
ByLayer
100
AcDbPolyline
 90
25
 70
26624
 10
24.469546578899251
 20
30.699279444590989
 10
24.341640786499873
 20
30.329179606750063
 10
24.122304391666759
 20
30.004795070126008
 10
23.826484807237257
 20
29.748232104818953
 10
23.474341649025256
 20
29.576975052924233
 10
23.089872891318826
 20
29.50269479951281
 10
22.699279444590989
 20
29.530453421100745
 10
22.329179606750063
 20
29.658359213500123
 10
22.004795070126004
 20
29.877695608333241
 10
21.748232104818953
 20
30.173515192762743
 10
21.576975052924233
 20
30.525658350974744
 10
21.50269479951281
 20
30.910127108681174
 10
21.530453421100749
 20
31.300720555409011
 10
21.658359213500127
 20
31.670820393249933
 10
21.877695608333241
 20
31.995204929873992
 10
22.173515192762743
 20
32.251767895181047
 10
22.525658350974744
 20
32.423024947075767
 10
22.910127108681177
 20
32.49730520048719
 10
23.300720555409011
 20
32.469546578899255
 10
23.670820393249937
 20
32.341640786499873
 10
23.995204929873996
 20
32.122304391666759
 10
24.25176789518105
 20
31.826484807237257
 10
24.423024947075767
 20
31.474341649025256
 10
24.49730520048719
 20
31.089872891318823
 10
24.469546578899251
 20
30.699279444590989
  0
LWPOLYLINE
  5
8A
100
AcDbEntity
  8
Group#1
 62
256
370
-1
 48
1.0
  6
ByLayer
100
AcDbPolyline
 90
25
 70
6144
 10
23.75
 20
21.700961894323338
 10
23.38822856765378
 20
21.551111260566394
 10
23.0
 20
21.499999999999996
 10
22.61177143234622
 20
21.551111260566394
 10
22.25
 20
21.700961894323338
 10
21.939339828220181
 20
21.939339828220177
 10
21.700961894323342
 20
22.25
 10
21.551111260566397
 20
22.611771432346217
 10
21.5
 20
22.999999999999996
 10
21.551111260566397
 20
23.38822856765378
 10
21.700961894323342
 20
23.75
 10
21.939339828220181
 20
24.060660171779819
 10
22.25
 20
24.299038105676654
 10
22.61177143234622
 20
24.448888739433599
 10
23.0
 20
24.499999999999996
 10
23.38822856765378
 20
24.448888739433599
 10
23.75
 20
24.299038105676654
 10
24.060660171779823
 20
24.060660171779819
 10
24.299038105676658
 20
23.749999999999996
 10
24.448888739433603
 20
23.38822856765378
 10
24.5
 20
22.999999999999996
 10
24.448888739433603
 20
22.611771432346217
 10
24.299038105676658
 20
22.249999999999996
 10
24.060660171779823
 20
21.939339828220177
 10
23.75
 20
21.700961894323338
  0
LWPOLYLINE
  5
8B
100
AcDbEntity
  8
Group#1
 62
256
370
-1
 48
1.0
  6
ByLayer
100
AcDbPolyline
 90
25
 70
18432
 10
29.500000000000004
 20
30.999999999999993
 10
29.551111260566397
 20
31.38822856765378
 10
29.700961894323342
 20
31.749999999999993
 10
29.939339828220181
 20
32.060660171779816
 10
30.25
 20
32.299038105676651
 10
30.61177143234622
 20
32.448888739433599
 10
31.0
 20
32.5
 10
31.388228567653783
 20
32.448888739433599
 10
31.75
 20
32.299038105676651
 10
32.060660171779823
 20
32.060660171779816
 10
32.299038105676658
 20
31.749999999999993
 10
32.448888739433599
 20
31.388228567653773
 10
32.5
 20
30.999999999999993
 10
32.448888739433599
 20
30.61177143234621
 10
32.299038105676658
 20
30.249999999999996
 10
32.060660171779823
 20
29.93933982822017
 10
31.75
 20
29.700961894323338
 10
31.38822856765378
 20
29.55111126056639
 10
31.0
 20
29.499999999999989
 10
30.611771432346217
 20
29.55111126056639
 10
30.25
 20
29.700961894323338
 10
29.939339828220177
 20
29.939339828220177
 10
29.700961894323342
 20
30.249999999999996
 10
29.551111260566397
 20
30.611771432346217
 10
29.500000000000004
 20
30.999999999999993
  0
LWPOLYLINE
  5
8C
100
AcDbEntity
  8
Group#1
 62
256
370
-1
 48
1.0
  6
ByLayer
100
AcDbPolyline
 90
25
 70
30720
 10
31.75
 20
21.700961894323338
 10
31.38822856765378
 20
21.551111260566394
 10
31.0
 20
21.499999999999996
 10
30.611771432346217
 20
21.551111260566394
 10
30.249999999999996
 20
21.700961894323342
 10
29.939339828220177
 20
21.939339828220177
 10
29.700961894323338
 20
22.25
 10
29.551111260566397
 20
22.61177143234622
 10
29.500000000000004
 20
23.0
 10
29.551111260566397
 20
23.38822856765378
 10
29.700961894323342
 20
23.75
 10
29.939339828220181
 20
24.060660171779819
 10
30.25
 20
24.299038105676654
 10
30.61177143234622
 20
24.448888739433599
 10
31.0
 20
24.499999999999996
 10
31.388228567653783
 20
24.448888739433599
 10
31.750000000000004
 20
24.299038105676654
 10
32.060660171779823
 20
24.060660171779819
 10
32.299038105676658
 20
23.749999999999996
 10
32.448888739433599
 20
23.388228567653776
 10
32.5
 20
22.999999999999996
 10
32.448888739433599
 20
22.611771432346217
 10
32.299038105676658
 20
22.249999999999996
 10
32.060660171779816
 20
21.939339828220177
 10
31.75
 20
21.700961894323338
  0
LWPOLYLINE
  5
8D
100
AcDbEntity
  8
Group#1
 62
256
370
-1
 48
1.0
  6
ByLayer
100
AcDbPolyline
 90
25
 70
10240
 10
28.499994932146478
 20
26.99610082894387
 10
28.447874664533561
 20
26.608006433979
 10
28.297084131258707
 20
26.24662575273846
 10
28.057899457971441
 20
25.936586281438988
 10
27.746620684884942
 20
25.699016697685177
 10
27.384460945972553
 20
25.550106976007573
 10
26.996100828943888
 20
25.500005067853532
 10
26.608006433979018
 20
25.552125335466446
 10
26.246625752738478
 20
25.702915868741304
 10
25.936586281439002
 20
25.942100542028566
 10
25.699016697685195
 20
26.253379315115065
 10
25.550106976007587
 20
26.615539054027455
 10
25.50000506785355
 20
27.003899171056119
 10
25.552125335466464
 20
27.391993566020989
 10
25.702915868741322
 20
27.753374247261529
 10
25.942100542028584
 20
28.063413718561005
 10
26.253379315115083
 20
28.300983302314812
 10
26.615539054027472
 20
28.44989302399242
 10
27.003899171056137
 20
28.499994932146461
 10
27.391993566021007
 20
28.447874664533547
 10
27.753374247261547
 20
28.297084131258689
 10
28.063413718561023
 20
28.057899457971427
 10
28.30098330231483
 20
27.746620684884924
 10
28.449893023992438
 20
27.384460945972535
 10
28.499994932146478
 20
26.99610082894387
  0
LWPOLYLINE
  5
8E
100
AcDbEntity
  8
Group#1
 62
256
370
-1
 48
1.0
  6
ByLayer
100
AcDbPolyline
 90
25
 70
22528
 10
22.154863920109893
 20
41.239251793005749
 10
22.504403199412778
 20
41.415762625318131
 10
22.887716581663248
 20
41.495791574373442
 10
23.278681893316243
 20
41.473884799547662
 10
23.650655494483342
 20
41.351535211342501
 10
23.978287998960447
 20
41.137080732001891
 10
24.239251793005753
 20
40.845136079890104
 10
24.415762625318138
 20
40.495596800587215
 10
24.495791574373452
 20
40.112283418336744
 10
24.473884799547665
 20
39.721318106683746
 10
24.351535211342508
 20
39.349344505516655
 10
24.137080732001891
 20
39.021712001039546
 10
23.845136079890107
 20
38.760748206994236
 10
23.495596800587222
 20
38.584237374681862
 10
23.112283418336752
 20
38.504208425626544
 10
22.721318106683757
 20
38.526115200452324
 10
22.349344505516658
 20
38.648464788657485
 10
22.021712001039553
 20
38.862919267998102
 10
21.760748206994247
 20
39.154863920109889
 10
21.584237374681862
 20
39.504403199412771
 10
21.504208425626548
 20
39.887716581663241
 10
21.526115200452335
 20
40.278681893316239
 10
21.648464788657495
 20
40.650655494483338
 10
21.862919267998105
 20
40.97828799896044
 10
22.154863920109893
 20
41.239251793005749
  0
LWPOLYLINE
  5
8F
100
AcDbEntity
  8
Group#1
 62
256
370
-1
 48
1.0
  6
ByLayer
100
AcDbPolyline
 90
25
 70
2048
 10
25.726043522065243
 20
40.791855348108491
 10
25.974399781451321
 20
41.094597730544358
 10
26.292649000847
 20
41.322745086551912
 10
26.65910302188216
 20
41.460749550850558
 10
27.048788608617159
 20
41.499206347261506
 10
27.435149332301879
 20
41.435494708662212
 10
27.791855348108509
 20
41.273956477934767
 10
28.094597730544379
 20
41.025600218548682
 10
28.322745086551929
 20
40.707350999153007
 10
28.460749550850572
 20
40.340896978117847
 10
28.499206347261524
 20
39.951211391382849
 10
28.435494708662233
 20
39.564850667698124
 10
28.273956477934785
 20
39.208144651891494
 10
28.025600218548703
 20
38.905402269455628
 10
27.707350999153029
 20
38.677254913448081
 10
27.340896978117865
 20
38.539250449149428
 10
26.95121139138287
 20
38.50079365273848
 10
26.564850667698138
 20
38.564505291337774
 10
26.208144651891516
 20
38.726043522065225
 10
25.905402269455646
 20
38.974399781451304
 10
25.677254913448099
 20
39.292649000846978
 10
25.539250449149449
 20
39.659103021882139
 10
25.500793652738501
 20
40.048788608617137
 10
25.564505291337792
 20
40.435149332301869
 10
25.726043522065243
 20
40.791855348108491
  0
LWPOLYLINE
  5
90
100
AcDbEntity
  8
Group#1
 62
256
370
-1
 48
1.0
  6
ByLayer
100
AcDbPolyline
 90
25
 70
14336
 10
29.570926855405745
 20
40.455795949301319
 10
29.737590014340043
 20
40.810136425613628
 10
29.990284327565927
 20
41.109267443334112
 10
30.311789095234147
 20
41.332803717942504
 10
30.680194298739863
 20
41.465511621735388
 10
31.07039373228255
 20
41.498347330379481
 10
31.455795949301322
 20
41.429073144594248
 10
31.810136425613628
 20
41.26240998565995
 10
32.109267443334119
 20
41.009715672434069
 10
32.332803717942504
 20
40.688210904765846
 10
32.465511621735395
 20
40.31980570126013
 10
32.498347330379488
 20
39.929606267717446
 10
32.429073144594255
 20
39.544204050698674
 10
32.262409985659957
 20
39.189863574386365
 10
32.009715672434069
 20
38.890732556665874
 10
31.688210904765853
 20
38.667196282057489
 10
31.319805701260137
 20
38.534488378264598
 10
30.92960626771745
 20
38.501652669620505
 10
30.544204050698678
 20
38.570926855405737
 10
30.189863574386372
 20
38.737590014340036
 10
29.890732556665881
 20
38.990284327565924
 10
29.667196282057493
 20
39.31178909523414
 10
29.534488378264605
 20
39.680194298739856
 10
29.501652669620512
 20
40.070393732282547
 10
29.570926855405745
 20
40.455795949301319
  0
LWPOLYLINE
  5
91
100
AcDbEntity
  8
Group#1
 62
256
370
-1
 48
1.0
  6
ByLayer
100
AcDbPolyline
 90
25
 70
26624
 10
21.880836221586016
 20
48.998735418960464
 10
22.177462550028089
 20
49.254365235245984
 10
22.530143446378339
 20
49.424512133686051
 10
22.914844290383243
 20
49.497580884333019
 10
23.305348355272063
 20
49.468591972582125
 10
23.675043434361108
 20
49.339520944862741
 10
23.998735418960464
 20
49.119163778413984
 10
24.254365235245981
 20
48.822537449971911
 10
24.424512133686047
 20
48.469856553621661
 10
24.497580884333019
 20
48.085155709616757
 10
24.468591972582121
 20
47.694651644727941
 10
24.339520944862738
 20
47.324956565638892
 10
24.119163778413988
 20
47.001264581039543
 10
23.822537449971911
 20
46.745634764754023
 10
23.469856553621661
 20
46.575487866313949
 10
23.085155709616757
 20
46.502419115666981
 10
22.694651644727937
 20
46.531408027417882
 10
22.324956565638892
 20
46.660479055137266
 10
22.001264581039536
 20
46.880836221586016
 10
21.745634764754019
 20
47.177462550028089
 10
21.575487866313953
 20
47.530143446378347
 10
21.502419115666981
 20
47.914844290383243
 10
21.531408027417879
 20
48.305348355272066
 10
21.660479055137262
 20
48.675043434361108
 10
21.880836221586016
 20
48.998735418960464
  0
LWPOLYLINE
  5
92
100
AcDbEntity
  8
Group#1
 62
256
370
-1
 48
1.0
  6
ByLayer
100
AcDbPolyline
 90
25
 70
6144
 10
27.116238318929884
 20
49.495489436008285
 10
27.499338742047371
 20
49.414447178473125
 10
27.848410055090621
 20
49.2370126832095
 10
28.139663624943353
 20
48.975277817845267
 10
28.353251002139384
 20
48.647079380917674
 10
28.474616559892638
 20
48.274783553529787
 10
28.495489436008292
 20
47.883761681070126
 10
28.414447178473136
 20
47.500661257952643
 10
28.23701268320951
 20
47.151589944909396
 10
27.975277817845278
 20
46.860336375056661
 10
27.647079380917685
 20
46.646748997860634
 10
27.274783553529794
 20
46.525383440107376
 10
26.883761681070141
 20
46.504510563991722
 10
26.500661257952654
 20
46.585552821526882
 10
26.151589944909407
 20
46.762987316790507
 10
25.860336375056672
 20
47.02472218215474
 10
25.646748997860641
 20
47.352920619082326
 10
25.525383440107387
 20
47.72521644647022
 10
25.504510563991733
 20
48.116238318929874
 10
25.585552821526893
 20
48.499338742047364
 10
25.762987316790515
 20
48.848410055090611
 10
26.024722182154747
 20
49.139663624943346
 10
26.35292061908234
 20
49.353251002139373
 10
26.725216446470231
 20
49.474616559892624
 10
27.116238318929884
 20
49.495489436008285
  0
LWPOLYLINE
  5
93
100
AcDbEntity
  8
Group#1
 62
256
370
-1
 48
1.0
  6
ByLayer
100
AcDbPolyline
 90
25
 70
18432
 10
30.355089129665153
 20
46.64571422169324
 10
30.026548982751734
 20
46.858775606193809
 10
29.764347913959913
 20
47.149609547169788
 10
29.586354492820103
 20
47.49839619216948
 10
29.504698676834941
 20
47.88136630773333
 10
29.524945174921207
 20
48.27242111337371
 10
29.64571422169324
 20
48.64491087033484
 10
29.858775606193809
 20
48.973451017248266
 10
30.149609547169788
 20
49.235652086040091
 10
30.498396192169473
 20
49.413645507179901
 10
30.881366307733327
 20
49.495301323165059
 10
31.272421113373706
 20
49.475054825078793
 10
31.64491087033484
 20
49.35428577830676
 10
31.973451017248266
 20
49.141224393806191
 10
32.235652086040091
 20
48.850390452830212
 10
32.413645507179893
 20
48.501603807830527
 10
32.495301323165059
 20
48.118633692266677
 10
32.475054825078793
 20
47.727578886626297
 10
32.35428577830676
 20
47.35508912966516
 10
32.141224393806191
 20
47.026548982751734
 10
31.850390452830212
 20
46.764347913959917
 10
31.501603807830524
 20
46.586354492820107
 10
31.118633692266673
 20
46.504698676834948
 10
30.727578886626294
 20
46.524945174921214
 10
30.355089129665153
 20
46.64571422169324
  0
LWPOLYLINE
  5
94
100
AcDbEntity
  8
Group#1
 62
256
370
-1
 48
1.0
  6
ByLayer
100
AcDbPolyline
 90
30
 70
30720
 10
36.999999999999986
 20
33.999999999999993
 10
33.999999999999993
 20
33.999999999999993
 10
33.999999999999993
 20
36.999999999999993
 10
30.000000000000046
 20
36.999999999999993
 10
30.000000000000046
 20
33.999999999999993
 10
24.0
 20
33.999999999999993
 10
24.0
 20
36.999999999999993
 10
20.0
 20
36.999999999999993
 10
20.0
 20
33.999999999999993
 10
17.0
 20
33.999999999999993
 10
17.0
 20
40.999999999999993
 10
20.0
 20
40.999999999999993
 10
20.0
 20
46.999999999999993
 10
17.0
 20
46.999999999999993
 10
17.0
 20
51.0
 10
17.000000000000004
 20
54.0
 10
20.0
 20
54.0
 10
20.0
 20
51.0
 10
24.000000000000039
 20
51.0
 10
24.000000000000046
 20
54.0
 10
30.000000000000046
 20
54.0
 10
30.000000000000046
 20
51.0
 10
34.0
 20
51.0
 10
34.0
 20
54.0
 10
37.0
 20
54.0
 10
36.999999999999993
 20
46.999999999999993
 10
34.0
 20
46.999999999999993
 10
33.999999999999993
 20
40.999999999999993
 10
36.999999999999993
 20
40.999999999999993
 10
36.999999999999986
 20
33.999999999999993
  0
LWPOLYLINE
  5
95
100
AcDbEntity
  8
Group#1
 62
256
370
-1
 48
1.0
  6
ByLayer
100
AcDbPolyline
 90
25
 70
10240
 10
30.026548982751734
 20
46.858775606193809
 10
30.355089129665153
 20
46.64571422169324
 10
30.727578886626294
 20
46.524945174921214
 10
31.118633692266673
 20
46.504698676834948
 10
31.501603807830524
 20
46.586354492820107
 10
31.850390452830212
 20
46.764347913959917
 10
32.141224393806191
 20
47.026548982751734
 10
32.35428577830676
 20
47.35508912966516
 10
32.475054825078793
 20
47.727578886626297
 10
32.495301323165059
 20
48.118633692266677
 10
32.413645507179893
 20
48.501603807830527
 10
32.235652086040091
 20
48.850390452830212
 10
31.973451017248266
 20
49.141224393806191
 10
31.64491087033484
 20
49.35428577830676
 10
31.272421113373706
 20
49.475054825078793
 10
30.881366307733327
 20
49.495301323165059
 10
30.498396192169473
 20
49.413645507179901
 10
30.149609547169788
 20
49.235652086040091
 10
29.858775606193809
 20
48.973451017248266
 10
29.64571422169324
 20
48.64491087033484
 10
29.524945174921207
 20
48.27242111337371
 10
29.504698676834941
 20
47.88136630773333
 10
29.586354492820103
 20
47.49839619216948
 10
29.764347913959913
 20
47.149609547169788
 10
30.026548982751734
 20
46.858775606193809
  0
LWPOLYLINE
  5
96
100
AcDbEntity
  8
Group#1
 62
256
370
-1
 48
1.0
  6
ByLayer
100
AcDbPolyline
 90
25
 70
22528
 10
27.499338742047371
 20
49.414447178473125
 10
27.116238318929884
 20
49.495489436008285
 10
26.725216446470231
 20
49.474616559892624
 10
26.35292061908234
 20
49.353251002139373
 10
26.024722182154747
 20
49.139663624943346
 10
25.762987316790515
 20
48.848410055090611
 10
25.585552821526893
 20
48.499338742047364
 10
25.504510563991733
 20
48.116238318929874
 10
25.525383440107387
 20
47.72521644647022
 10
25.646748997860641
 20
47.352920619082326
 10
25.860336375056672
 20
47.02472218215474
 10
26.151589944909407
 20
46.762987316790507
 10
26.500661257952654
 20
46.585552821526882
 10
26.883761681070141
 20
46.504510563991722
 10
27.274783553529794
 20
46.525383440107376
 10
27.647079380917685
 20
46.646748997860634
 10
27.975277817845278
 20
46.860336375056661
 10
28.23701268320951
 20
47.151589944909396
 10
28.414447178473136
 20
47.500661257952643
 10
28.495489436008292
 20
47.883761681070126
 10
28.474616559892638
 20
48.274783553529787
 10
28.353251002139384
 20
48.647079380917674
 10
28.139663624943353
 20
48.975277817845267
 10
27.848410055090621
 20
49.2370126832095
 10
27.499338742047371
 20
49.414447178473125
  0
LWPOLYLINE
  5
97
100
AcDbEntity
  8
Group#1
 62
256
370
-1
 48
1.0
  6
ByLayer
100
AcDbPolyline
 90
25
 70
2048
 10
22.177462550028089
 20
49.254365235245984
 10
21.880836221586016
 20
48.998735418960464
 10
21.660479055137262
 20
48.675043434361108
 10
21.531408027417879
 20
48.305348355272066
 10
21.502419115666981
 20
47.914844290383243
 10
21.575487866313953
 20
47.530143446378347
 10
21.745634764754019
 20
47.177462550028089
 10
22.001264581039536
 20
46.880836221586016
 10
22.324956565638892
 20
46.660479055137266
 10
22.694651644727937
 20
46.531408027417882
 10
23.085155709616757
 20
46.502419115666981
 10
23.469856553621661
 20
46.575487866313949
 10
23.822537449971911
 20
46.745634764754023
 10
24.119163778413988
 20
47.001264581039543
 10
24.339520944862738
 20
47.324956565638892
 10
24.468591972582121
 20
47.694651644727941
 10
24.497580884333019
 20
48.085155709616757
 10
24.424512133686047
 20
48.469856553621661
 10
24.254365235245981
 20
48.822537449971911
 10
23.998735418960464
 20
49.119163778413984
 10
23.675043434361108
 20
49.339520944862741
 10
23.305348355272063
 20
49.468591972582125
 10
22.914844290383243
 20
49.497580884333019
 10
22.530143446378339
 20
49.424512133686051
 10
22.177462550028089
 20
49.254365235245984
  0
LWPOLYLINE
  5
98
100
AcDbEntity
  8
Group#1
 62
256
370
-1
 48
1.0
  6
ByLayer
100
AcDbPolyline
 90
25
 70
14336
 10
29.737590014340043
 20
40.810136425613628
 10
29.570926855405745
 20
40.455795949301319
 10
29.501652669620512
 20
40.070393732282547
 10
29.534488378264605
 20
39.680194298739856
 10
29.667196282057493
 20
39.31178909523414
 10
29.890732556665881
 20
38.990284327565924
 10
30.189863574386372
 20
38.737590014340036
 10
30.544204050698678
 20
38.570926855405737
 10
30.92960626771745
 20
38.501652669620505
 10
31.319805701260137
 20
38.534488378264598
 10
31.688210904765853
 20
38.667196282057489
 10
32.009715672434069
 20
38.890732556665874
 10
32.262409985659957
 20
39.189863574386365
 10
32.429073144594255
 20
39.544204050698674
 10
32.498347330379488
 20
39.929606267717446
 10
32.465511621735395
 20
40.31980570126013
 10
32.332803717942504
 20
40.688210904765846
 10
32.109267443334119
 20
41.009715672434069
 10
31.810136425613628
 20
41.26240998565995
 10
31.455795949301322
 20
41.429073144594248
 10
31.07039373228255
 20
41.498347330379481
 10
30.680194298739863
 20
41.465511621735388
 10
30.311789095234147
 20
41.332803717942504
 10
29.990284327565927
 20
41.109267443334112
 10
29.737590014340043
 20
40.810136425613628
  0
LWPOLYLINE
  5
99
100
AcDbEntity
  8
Group#1
 62
256
370
-1
 48
1.0
  6
ByLayer
100
AcDbPolyline
 90
25
 70
26624
 10
25.974399781451321
 20
41.094597730544358
 10
25.726043522065243
 20
40.791855348108491
 10
25.564505291337792
 20
40.435149332301869
 10
25.500793652738501
 20
40.048788608617137
 10
25.539250449149449
 20
39.659103021882139
 10
25.677254913448099
 20
39.292649000846978
 10
25.905402269455646
 20
38.974399781451304
 10
26.208144651891516
 20
38.726043522065225
 10
26.564850667698138
 20
38.564505291337774
 10
26.95121139138287
 20
38.50079365273848
 10
27.340896978117865
 20
38.539250449149428
 10
27.707350999153029
 20
38.677254913448081
 10
28.025600218548703
 20
38.905402269455628
 10
28.273956477934785
 20
39.208144651891494
 10
28.435494708662233
 20
39.564850667698124
 10
28.499206347261524
 20
39.951211391382849
 10
28.460749550850572
 20
40.340896978117847
 10
28.322745086551929
 20
40.707350999153007
 10
28.094597730544379
 20
41.025600218548682
 10
27.791855348108509
 20
41.273956477934767
 10
27.435149332301879
 20
41.435494708662212
 10
27.048788608617159
 20
41.499206347261506
 10
26.65910302188216
 20
41.460749550850558
 10
26.292649000847
 20
41.322745086551912
 10
25.974399781451321
 20
41.094597730544358
  0
LWPOLYLINE
  5
9A
100
AcDbEntity
  8
Group#1
 62
256
370
-1
 48
1.0
  6
ByLayer
100
AcDbPolyline
 90
25
 70
6144
 10
22.504403199412778
 20
41.415762625318131
 10
22.154863920109893
 20
41.239251793005749
 10
21.862919267998105
 20
40.97828799896044
 10
21.648464788657495
 20
40.650655494483338
 10
21.526115200452335
 20
40.278681893316239
 10
21.504208425626548
 20
39.887716581663241
 10
21.584237374681862
 20
39.504403199412771
 10
21.760748206994247
 20
39.154863920109889
 10
22.021712001039553
 20
38.862919267998102
 10
22.349344505516658
 20
38.648464788657485
 10
22.721318106683757
 20
38.526115200452324
 10
23.112283418336752
 20
38.504208425626544
 10
23.495596800587222
 20
38.584237374681862
 10
23.845136079890107
 20
38.760748206994236
 10
24.137080732001891
 20
39.021712001039546
 10
24.351535211342508
 20
39.349344505516655
 10
24.473884799547665
 20
39.721318106683746
 10
24.495791574373452
 20
40.112283418336744
 10
24.415762625318138
 20
40.495596800587215
 10
24.239251793005753
 20
40.845136079890104
 10
23.978287998960447
 20
41.137080732001891
 10
23.650655494483342
 20
41.351535211342501
 10
23.278681893316243
 20
41.473884799547662
 10
22.887716581663248
 20
41.495791574373442
 10
22.504403199412778
 20
41.415762625318131
  0
LINE
  5
9B
100
AcDbEntity
  8
3
 62
256
370
-1
 48
1.0
  6
ByLayer
100
AcDbLine
 10
40.86400582679051
 20
43.508686428224557
 30
0.0
 11
39.273510696920376
 21
43.508686428224557
 31
0.0
  0
LINE
  5
9C
100
AcDbEntity
  8
3
 62
256
370
-1
 48
1.0
  6
ByLayer
100
AcDbLine
 10
39.273510696920376
 20
43.508686428224557
 30
0.0
 11
39.570864593024275
 21
42.277748928224561
 31
0.0
  0
LINE
  5
9D
100
AcDbEntity
  8
3
 62
256
370
-1
 48
1.0
  6
ByLayer
100
AcDbLine
 10
39.570864593024275
 20
42.277748928224561
 30
0.0
 11
39.823293570297004
 21
41.828262321081702
 31
0.0
  0
LINE
  5
9E
100
AcDbEntity
  8
3
 62
256
370
-1
 48
1.0
  6
ByLayer
100
AcDbLine
 10
39.823293570297004
 20
41.828262321081702
 30
0.0
 11
40.151749333284016
 21
41.475589837315475
 31
0.0
  0
LINE
  5
9F
100
AcDbEntity
  8
3
 62
256
370
-1
 48
1.0
  6
ByLayer
100
AcDbLine
 10
40.151749333284016
 20
41.475589837315475
 30
0.0
 11
40.563182977764541
 21
41.214534642510273
 31
0.0
  0
LINE
  5
A0
100
AcDbEntity
  8
3
 62
256
370
-1
 48
1.0
  6
ByLayer
100
AcDbLine
 10
40.563182977764541
 20
41.214534642510273
 30
0.0
 11
41.064545599517785
 21
41.039899902250539
 31
0.0
  0
LINE
  5
A1
100
AcDbEntity
  8
3
 62
256
370
-1
 48
1.0
  6
ByLayer
100
AcDbLine
 10
41.064545599517785
 20
41.039899902250539
 30
0.0
 11
42.371562644972336
 21
40.908475389263522
 31
0.0
  0
LINE
  5
A2
100
AcDbEntity
  8
3
 62
256
370
-1
 48
1.0
  6
ByLayer
100
AcDbLine
 10
42.371562644972336
 20
40.908475389263522
 30
0.0
 11
42.426854852764542
 21
40.922298441211574
 31
0.0
  0
LINE
  5
A3
100
AcDbEntity
  8
3
 62
256
370
-1
 48
1.0
  6
ByLayer
100
AcDbLine
 10
42.426854852764542
 20
40.922298441211574
 30
0.0
 11
42.523721735881416
 21
42.747996493159633
 31
0.0
  0
LINE
  5
A4
100
AcDbEntity
  8
3
 62
256
370
-1
 48
1.0
  6
ByLayer
100
AcDbLine
 10
42.523721735881416
 20
42.747996493159633
 30
0.0
 11
41.935872709907393
 21
42.7410849671856
 31
0.0
  0
LINE
  5
A5
100
AcDbEntity
  8
3
 62
256
370
-1
 48
1.0
  6
ByLayer
100
AcDbLine
 10
41.935872709907393
 20
42.7410849671856
 30
0.0
 11
41.451802093024277
 21
42.78946564900378
 31
0.0
  0
LINE
  5
A6
100
AcDbEntity
  8
3
 62
256
370
-1
 48
1.0
  6
ByLayer
100
AcDbLine
 10
41.451802093024277
 20
42.78946564900378
 30
0.0
 11
41.092244463154145
 21
43.003828473679107
 31
0.0
  0
LINE
  5
A7
100
AcDbEntity
  8
3
 62
256
370
-1
 48
1.0
  6
ByLayer
100
AcDbLine
 10
41.092244463154145
 20
43.003828473679107
 30
0.0
 11
40.86400582679051
 21
43.508686428224557
 31
0.0
  0
LINE
  5
A8
100
AcDbEntity
  8
3
 62
256
370
-1
 48
1.0
  6
ByLayer
100
AcDbLine
 10
45.981384073543744
 20
47.422720519133662
 30
0.0
 11
45.282897872245044
 21
47.312083343808986
 31
0.0
  0
LINE
  5
A9
100
AcDbEntity
  8
3
 62
256
370
-1
 48
1.0
  6
ByLayer
100
AcDbLine
 10
45.282897872245044
 20
47.312083343808986
 30
0.0
 11
44.570641378738557
 21
47.000906395757042
 31
0.0
  0
LINE
  5
AA
100
AcDbEntity
  8
3
 62
256
370
-1
 48
1.0
  6
ByLayer
100
AcDbLine
 10
44.570641378738557
 20
47.000906395757042
 30
0.0
 11
44.017455502115176
 21
46.503012726925867
 31
0.0
  0
LINE
  5
AB
100
AcDbEntity
  8
3
 62
256
370
-1
 48
1.0
  6
ByLayer
100
AcDbLine
 10
44.017455502115176
 20
46.503012726925867
 30
0.0
 11
43.851499739128158
 21
46.186638944458338
 31
0.0
  0
LINE
  5
AC
100
AcDbEntity
  8
3
 62
256
370
-1
 48
1.0
  6
ByLayer
100
AcDbLine
 10
43.851499739128158
 20
46.186638944458338
 30
0.0
 11
43.796181151465831
 21
45.832225389263527
 31
0.0
  0
LINE
  5
AD
100
AcDbEntity
  8
3
 62
256
370
-1
 48
1.0
  6
ByLayer
100
AcDbLine
 10
43.796181151465831
 20
45.832225389263527
 30
0.0
 11
43.414095112504789
 21
46.371601403873917
 31
0.0
  0
LINE
  5
AE
100
AcDbEntity
  8
3
 62
256
370
-1
 48
1.0
  6
ByLayer
100
AcDbLine
 10
43.414095112504789
 20
46.371601403873917
 30
0.0
 11
42.987057774842448
 21
46.74502165549729
 31
0.0
  0
LINE
  5
AF
100
AcDbEntity
  8
3
 62
256
370
-1
 48
1.0
  6
ByLayer
100
AcDbLine
 10
42.987057774842448
 20
46.74502165549729
 30
0.0
 11
42.466662076790499
 21
46.962853433094693
 31
0.0
  0
LINE
  5
B0
100
AcDbEntity
  8
3
 62
256
370
-1
 48
1.0
  6
ByLayer
100
AcDbLine
 10
42.466662076790499
 20
46.962853433094693
 30
0.0
 11
41.804500956660632
 21
47.035464025627157
 31
0.0
  0
LINE
  5
B1
100
AcDbEntity
  8
3
 62
256
370
-1
 48
1.0
  6
ByLayer
100
AcDbLine
 10
41.804500956660632
 20
47.035464025627157
 30
0.0
 11
41.213262117374917
 21
46.992240608419365
 31
0.0
  0
LINE
  5
B2
100
AcDbEntity
  8
3
 62
256
370
-1
 48
1.0
  6
ByLayer
100
AcDbLine
 10
41.213262117374917
 20
46.992240608419365
 30
0.0
 11
40.711899495621672
 21
46.862570356795992
 31
0.0
  0
LINE
  5
B3
100
AcDbEntity
  8
3
 62
256
370
-1
 48
1.0
  6
ByLayer
100
AcDbLine
 10
40.711899495621672
 20
46.862570356795992
 30
0.0
 11
40.295242636855441
 21
46.653377986666122
 31
0.0
  0
LINE
  5
B4
100
AcDbEntity
  8
3
 62
256
370
-1
 48
1.0
  6
ByLayer
100
AcDbLine
 10
40.295242636855441
 20
46.653377986666122
 30
0.0
 11
39.95812108653076
 21
46.371588213938843
 31
0.0
  0
LINE
  5
B5
100
AcDbEntity
  8
3
 62
256
370
-1
 48
1.0
  6
ByLayer
100
AcDbLine
 10
39.95812108653076
 20
46.371588213938843
 30
0.0
 11
39.501696573543747
 21
45.59707522692586
 31
0.0
  0
LINE
  5
B6
100
AcDbEntity
  8
3
 62
256
370
-1
 48
1.0
  6
ByLayer
100
AcDbLine
 10
39.501696573543747
 20
45.59707522692586
 30
0.0
 11
39.287333748868427
 21
44.559765973679106
 31
0.0
  0
LINE
  5
B7
100
AcDbEntity
  8
3
 62
256
370
-1
 48
1.0
  6
ByLayer
100
AcDbLine
 10
39.287333748868427
 20
44.559765973679106
 30
0.0
 11
40.877828878738562
 21
44.559765973679106
 31
0.0
  0
LINE
  5
B8
100
AcDbEntity
  8
3
 62
256
370
-1
 48
1.0
  6
ByLayer
100
AcDbLine
 10
40.877828878738562
 20
44.559765973679106
 30
0.0
 11
41.017905989128167
 21
44.912425267510272
 31
0.0
  0
LINE
  5
B9
100
AcDbEntity
  8
3
 62
256
370
-1
 48
1.0
  6
ByLayer
100
AcDbLine
 10
41.017905989128167
 20
44.912425267510272
 30
0.0
 11
41.244403554063233
 21
45.085305746406384
 31
0.0
  0
LINE
  5
BA
100
AcDbEntity
  8
3
 62
256
370
-1
 48
1.0
  6
ByLayer
100
AcDbLine
 10
41.244403554063233
 20
45.085305746406384
 30
0.0
 11
41.98430615146583
 21
45.168296817834957
 31
0.0
  0
LINE
  5
BB
100
AcDbEntity
  8
3
 62
256
370
-1
 48
1.0
  6
ByLayer
100
AcDbLine
 10
41.98430615146583
 20
45.168296817834957
 30
0.0
 11
42.502987157959339
 21
45.002367434718074
 31
0.0
  0
LINE
  5
BC
100
AcDbEntity
  8
3
 62
256
370
-1
 48
1.0
  6
ByLayer
100
AcDbLine
 10
42.502987157959339
 20
45.002367434718074
 30
0.0
 11
42.855633261855438
 21
44.580553311341454
 31
0.0
  0
LINE
  5
BD
100
AcDbEntity
  8
3
 62
256
370
-1
 48
1.0
  6
ByLayer
100
AcDbLine
 10
42.855633261855438
 20
44.580553311341454
 30
0.0
 11
43.056173034582713
 21
44.020403149003783
 31
0.0
  0
LINE
  5
BE
100
AcDbEntity
  8
3
 62
256
370
-1
 48
1.0
  6
ByLayer
100
AcDbLine
 10
43.056173034582713
 20
44.020403149003783
 30
0.0
 11
43.118429528089209
 21
43.453288700951838
 31
0.0
  0
LINE
  5
BF
100
AcDbEntity
  8
3
 62
256
370
-1
 48
1.0
  6
ByLayer
100
AcDbLine
 10
43.118429528089209
 20
43.453288700951838
 30
0.0
 11
43.118429528089209
 21
43.38417344121158
 31
0.0
  0
LINE
  5
C0
100
AcDbEntity
  8
3
 62
256
370
-1
 48
1.0
  6
ByLayer
100
AcDbLine
 10
43.118429528089209
 20
43.38417344121158
 30
0.0
 11
43.090783424193106
 21
43.315058181471322
 31
0.0
  0
LINE
  5
C1
100
AcDbEntity
  8
3
 62
256
370
-1
 48
1.0
  6
ByLayer
100
AcDbLine
 10
43.090783424193106
 20
43.315058181471322
 30
0.0
 11
44.708924657959336
 21
43.315058181471322
 31
0.0
  0
LINE
  5
C2
100
AcDbEntity
  8
3
 62
256
370
-1
 48
1.0
  6
ByLayer
100
AcDbLine
 10
44.708924657959336
 20
43.315058181471322
 30
0.0
 11
44.65363245016713
 21
43.937412077575217
 31
0.0
  0
LINE
  5
C3
100
AcDbEntity
  8
3
 62
256
370
-1
 48
1.0
  6
ByLayer
100
AcDbLine
 10
44.65363245016713
 20
43.937412077575217
 30
0.0
 11
44.736623521595703
 21
44.483686428224566
 31
0.0
  0
LINE
  5
C4
100
AcDbEntity
  8
3
 62
256
370
-1
 48
1.0
  6
ByLayer
100
AcDbLine
 10
44.736623521595703
 20
44.483686428224566
 30
0.0
 11
44.9717209241931
 21
44.960845519133663
 31
0.0
  0
LINE
  5
C5
100
AcDbEntity
  8
3
 62
256
370
-1
 48
1.0
  6
ByLayer
100
AcDbLine
 10
44.9717209241931
 20
44.960845519133663
 30
0.0
 11
45.352065891725566
 21
45.299721330821974
 31
0.0
  0
LINE
  5
C6
100
AcDbEntity
  8
3
 62
256
370
-1
 48
1.0
  6
ByLayer
100
AcDbLine
 10
45.352065891725566
 20
45.299721330821974
 30
0.0
 11
45.88451719042687
 21
45.431145843808991
 31
0.0
  0
LINE
  5
C7
100
AcDbEntity
  8
3
 62
256
370
-1
 48
1.0
  6
ByLayer
100
AcDbLine
 10
45.88451719042687
 20
45.431145843808991
 30
0.0
 11
46.430897060556738
 21
45.410411265886907
 31
0.0
  0
LINE
  5
C8
100
AcDbEntity
  8
3
 62
256
370
-1
 48
1.0
  6
ByLayer
100
AcDbLine
 10
46.430897060556738
 20
45.410411265886907
 30
0.0
 11
46.894233099517777
 21
45.292809804847948
 31
0.0
  0
LINE
  5
C9
100
AcDbEntity
  8
3
 62
256
370
-1
 48
1.0
  6
ByLayer
100
AcDbLine
 10
46.894233099517777
 20
45.292809804847948
 30
0.0
 11
47.233056151465831
 21
45.023102012640159
 31
0.0
  0
LINE
  5
CA
100
AcDbEntity
  8
3
 62
256
370
-1
 48
1.0
  6
ByLayer
100
AcDbLine
 10
47.233056151465831
 20
45.023102012640159
 30
0.0
 11
47.40589706055674
 21
44.545942921731069
 31
0.0
  0
LINE
  5
CB
100
AcDbEntity
  8
3
 62
256
370
-1
 48
1.0
  6
ByLayer
100
AcDbLine
 10
47.40589706055674
 20
44.545942921731069
 30
0.0
 11
49.024143813803498
 21
44.55976597367912
 31
0.0
  0
LINE
  5
CC
100
AcDbEntity
  8
3
 62
256
370
-1
 48
1.0
  6
ByLayer
100
AcDbLine
 10
49.024143813803498
 20
44.55976597367912
 30
0.0
 11
48.944588720459336
 21
45.183016785367428
 31
0.0
  0
LINE
  5
CD
100
AcDbEntity
  8
3
 62
256
370
-1
 48
1.0
  6
ByLayer
100
AcDbLine
 10
48.944588720459336
 20
45.183016785367428
 30
0.0
 11
48.77514421964765
 21
45.738840649003798
 31
0.0
  0
LINE
  5
CE
100
AcDbEntity
  8
3
 62
256
370
-1
 48
1.0
  6
ByLayer
100
AcDbLine
 10
48.77514421964765
 20
45.738840649003798
 30
0.0
 11
48.515810311368426
 21
46.227237564588215
 31
0.0
  0
LINE
  5
CF
100
AcDbEntity
  8
3
 62
256
370
-1
 48
1.0
  6
ByLayer
100
AcDbLine
 10
48.515810311368426
 20
46.227237564588215
 30
0.0
 11
48.166586995621671
 21
46.648207532120679
 31
0.0
  0
LINE
  5
D0
100
AcDbEntity
  8
3
 62
256
370
-1
 48
1.0
  6
ByLayer
100
AcDbLine
 10
48.166586995621671
 20
46.648207532120679
 30
0.0
 11
47.73438579838141
 21
46.987056963938855
 31
0.0
  0
LINE
  5
D1
100
AcDbEntity
  8
3
 62
256
370
-1
 48
1.0
  6
ByLayer
100
AcDbLine
 10
47.73438579838141
 20
46.987056963938855
 30
0.0
 11
47.22611824562167
 21
47.229092272380413
 31
0.0
  0
LINE
  5
D2
100
AcDbEntity
  8
3
 62
256
370
-1
 48
1.0
  6
ByLayer
100
AcDbLine
 10
47.22611824562167
 20
47.229092272380413
 30
0.0
 11
46.641784337342443
 21
47.374313457445353
 31
0.0
  0
LINE
  5
D3
100
AcDbEntity
  8
3
 62
256
370
-1
 48
1.0
  6
ByLayer
100
AcDbLine
 10
46.641784337342443
 20
47.374313457445353
 30
0.0
 11
45.981384073543744
 21
47.422720519133662
 31
0.0
  0
LINE
  5
D4
100
AcDbEntity
  8
3
 62
256
370
-1
 48
1.0
  6
ByLayer
100
AcDbLine
 10
49.03796686575155
 20
43.536332532120682
 30
0.0
 11
47.40589706055674
 21
43.536332532120682
 31
0.0
  0
LINE
  5
D5
100
AcDbEntity
  8
3
 62
256
370
-1
 48
1.0
  6
ByLayer
100
AcDbLine
 10
47.40589706055674
 20
43.536332532120682
 30
0.0
 11
47.198445761855446
 21
42.920890161990805
 31
0.0
  0
LINE
  5
D6
100
AcDbEntity
  8
3
 62
256
370
-1
 48
1.0
  6
ByLayer
100
AcDbLine
 10
47.198445761855446
 20
42.920890161990805
 30
0.0
 11
46.769720112504793
 21
42.644270843808989
 31
0.0
  0
LINE
  5
D7
100
AcDbEntity
  8
3
 62
256
370
-1
 48
1.0
  6
ByLayer
100
AcDbLine
 10
46.769720112504793
 20
42.644270843808989
 30
0.0
 11
46.188835372245052
 21
42.568191298354442
 31
0.0
  0
LINE
  5
D8
100
AcDbEntity
  8
3
 62
256
370
-1
 48
1.0
  6
ByLayer
100
AcDbLine
 10
46.188835372245052
 20
42.568191298354442
 30
0.0
 11
45.51108374886843
 21
42.568191298354442
 31
0.0
  0
LINE
  5
D9
100
AcDbEntity
  8
3
 62
256
370
-1
 48
1.0
  6
ByLayer
100
AcDbLine
 10
45.51108374886843
 20
42.568191298354442
 30
0.0
 11
45.594127580037259
 21
40.714847142510287
 31
0.0
  0
LINE
  5
DA
100
AcDbEntity
  8
3
 62
256
370
-1
 48
1.0
  6
ByLayer
100
AcDbLine
 10
45.594127580037259
 20
40.714847142510287
 30
0.0
 11
46.963348359258042
 21
40.867006233419382
 31
0.0
  0
LINE
  5
DB
100
AcDbEntity
  8
3
 62
256
370
-1
 48
1.0
  6
ByLayer
100
AcDbLine
 10
46.963348359258042
 20
40.867006233419382
 30
0.0
 11
47.544219909582722
 21
41.065831314588209
 31
0.0
  0
LINE
  5
DC
100
AcDbEntity
  8
3
 62
256
370
-1
 48
1.0
  6
ByLayer
100
AcDbLine
 10
47.544219909582722
 20
41.065831314588209
 30
0.0
 11
48.04212676834895
 21
41.357988376276523
 31
0.0
  0
LINE
  5
DD
100
AcDbEntity
  8
3
 62
256
370
-1
 48
1.0
  6
ByLayer
100
AcDbLine
 10
48.04212676834895
 20
41.357988376276523
 30
0.0
 11
48.450144219647655
 21
41.745231679847954
 31
0.0
  0
LINE
  5
DE
100
AcDbEntity
  8
3
 62
256
370
-1
 48
1.0
  6
ByLayer
100
AcDbLine
 10
48.450144219647655
 20
41.745231679847954
 30
0.0
 11
48.761347547569734
 21
42.229315486666131
 31
0.0
  0
LINE
  5
DF
100
AcDbEntity
  8
3
 62
256
370
-1
 48
1.0
  6
ByLayer
100
AcDbLine
 10
48.761347547569734
 20
42.229315486666131
 30
0.0
 11
48.96190051023207
 21
42.822321777250551
 31
0.0
  0
LINE
  5
E0
100
AcDbEntity
  8
3
 62
256
370
-1
 48
1.0
  6
ByLayer
100
AcDbLine
 10
48.96190051023207
 20
42.822321777250551
 30
0.0
 11
49.03796686575155
 21
43.536332532120682
 31
0.0
  0
LINE
  5
E1
100
AcDbEntity
  8
2
 62
256
370
-1
 48
1.0
  6
ByLayer
100
AcDbLine
 10
42.11376547804371
 20
29.781215568343107
 30
0.0
 11
40.932976111160599
 21
29.629069667369084
 31
0.0
  0
LINE
  5
E2
100
AcDbEntity
  8
2
 62
256
370
-1
 48
1.0
  6
ByLayer
100
AcDbLine
 10
40.932976111160599
 20
29.629069667369084
 30
0.0
 11
40.463170409050207
 21
29.438887291151552
 31
0.0
  0
LINE
  5
E3
100
AcDbEntity
  8
2
 62
256
370
-1
 48
1.0
  6
ByLayer
100
AcDbLine
 10
40.463170409050207
 20
29.438887291151552
 30
0.0
 11
40.073757361160595
 21
29.172631964447003
 31
0.0
  0
LINE
  5
E4
100
AcDbEntity
  8
2
 62
256
370
-1
 48
1.0
  6
ByLayer
100
AcDbLine
 10
40.073757361160595
 20
29.172631964447003
 30
0.0
 11
39.762138550283971
 21
28.825990578489211
 31
0.0
  0
LINE
  5
E5
100
AcDbEntity
  8
2
 62
256
370
-1
 48
1.0
  6
ByLayer
100
AcDbLine
 10
39.762138550283971
 20
28.825990578489211
 30
0.0
 11
39.52571555921255
 21
28.394650024511943
 31
0.0
  0
LINE
  5
E6
100
AcDbEntity
  8
2
 62
256
370
-1
 48
1.0
  6
ByLayer
100
AcDbLine
 10
39.52571555921255
 20
28.394650024511943
 30
0.0
 11
39.278457036485271
 21
27.277871412498953
 31
0.0
  0
LINE
  5
E7
100
AcDbEntity
  8
2
 62
256
370
-1
 48
1.0
  6
ByLayer
100
AcDbLine
 10
39.278457036485271
 20
27.277871412498953
 30
0.0
 11
41.062580413108648
 21
27.277871412498953
 31
0.0
  0
LINE
  5
E8
100
AcDbEntity
  8
2
 62
256
370
-1
 48
1.0
  6
ByLayer
100
AcDbLine
 10
41.062580413108648
 20
27.277871412498953
 30
0.0
 11
41.214792263758
 21
27.637429042369082
 31
0.0
  0
LINE
  5
E9
100
AcDbEntity
  8
2
 62
256
370
-1
 48
1.0
  6
ByLayer
100
AcDbLine
 10
41.214792263758
 20
27.637429042369082
 30
0.0
 11
41.484447296225532
 21
27.817234237174279
 31
0.0
  0
LINE
  5
EA
100
AcDbEntity
  8
2
 62
256
370
-1
 48
1.0
  6
ByLayer
100
AcDbLine
 10
41.484447296225532
 20
27.817234237174279
 30
0.0
 11
41.844057685835921
 21
27.879490730680768
 31
0.0
  0
LINE
  5
EB
100
AcDbEntity
  8
2
 62
256
370
-1
 48
1.0
  6
ByLayer
100
AcDbLine
 10
41.844057685835921
 20
27.879490730680768
 30
0.0
 11
42.279747620900856
 21
27.886402256654797
 31
0.0
  0
LINE
  5
EC
100
AcDbEntity
  8
2
 62
256
370
-1
 48
1.0
  6
ByLayer
100
AcDbLine
 10
42.279747620900856
 20
27.886402256654797
 30
0.0
 11
42.870999650121639
 21
27.787860251784664
 31
0.0
  0
LINE
  5
ED
100
AcDbEntity
  8
2
 62
256
370
-1
 48
1.0
  6
ByLayer
100
AcDbLine
 10
42.870999650121639
 20
27.787860251784664
 30
0.0
 11
43.427694049472287
 21
27.49223423717428
 31
0.0
  0
LINE
  5
EE
100
AcDbEntity
  8
2
 62
256
370
-1
 48
1.0
  6
ByLayer
100
AcDbLine
 10
43.427694049472287
 20
27.49223423717428
 30
0.0
 11
44.444215965056699
 21
26.531004529382066
 31
0.0
  0
LINE
  5
EF
100
AcDbEntity
  8
2
 62
256
370
-1
 48
1.0
  6
ByLayer
100
AcDbLine
 10
44.444215965056699
 20
26.531004529382066
 30
0.0
 11
45.336277653368391
 21
25.348447711200251
 31
0.0
  0
LINE
  5
F0
100
AcDbEntity
  8
2
 62
256
370
-1
 48
1.0
  6
ByLayer
100
AcDbLine
 10
45.336277653368391
 20
25.348447711200251
 30
0.0
 11
46.110843400121631
 21
24.29040388003142
 31
0.0
  0
LINE
  5
F1
100
AcDbEntity
  8
2
 62
256
370
-1
 48
1.0
  6
ByLayer
100
AcDbLine
 10
46.110843400121631
 20
24.29040388003142
 30
0.0
 11
46.097020348173579
 21
26.90443797094051
 31
0.0
  0
LINE
  5
F2
100
AcDbEntity
  8
2
 62
256
370
-1
 48
1.0
  6
ByLayer
100
AcDbLine
 10
46.097020348173579
 20
26.90443797094051
 30
0.0
 11
45.260198107913844
 21
27.983216380031418
 31
0.0
  0
LINE
  5
F3
100
AcDbEntity
  8
2
 62
256
370
-1
 48
1.0
  6
ByLayer
100
AcDbLine
 10
45.260198107913844
 20
27.983216380031418
 30
0.0
 11
44.444215965056699
 21
28.90292417223921
 31
0.0
  0
LINE
  5
F4
100
AcDbEntity
  8
2
 62
256
370
-1
 48
1.0
  6
ByLayer
100
AcDbLine
 10
44.444215965056699
 20
28.90292417223921
 30
0.0
 11
43.45534015336839
 21
29.539153880031417
 31
0.0
  0
LINE
  5
F5
100
AcDbEntity
  8
2
 62
256
370
-1
 48
1.0
  6
ByLayer
100
AcDbLine
 10
43.45534015336839
 20
29.539153880031417
 30
0.0
 11
42.843327166355401
 21
29.720700146265184
 31
0.0
  0
LINE
  5
F6
100
AcDbEntity
  8
2
 62
256
370
-1
 48
1.0
  6
ByLayer
100
AcDbLine
 10
42.843327166355401
 20
29.720700146265184
 30
0.0
 11
42.11376547804371
 21
29.781215568343107
 31
0.0
  0
LINE
  5
F7
100
AcDbEntity
  8
2
 62
256
370
-1
 48
1.0
  6
ByLayer
100
AcDbLine
 10
41.048757361160597
 20
26.199040243667785
 30
0.0
 11
39.26463398453722
 21
26.199040243667785
 31
0.0
  0
LINE
  5
F8
100
AcDbEntity
  8
2
 62
256
370
-1
 48
1.0
  6
ByLayer
100
AcDbLine
 10
39.26463398453722
 20
26.199040243667785
 30
0.0
 11
39.399514260511246
 21
25.504049375161294
 31
0.0
  0
LINE
  5
F9
100
AcDbEntity
  8
2
 62
256
370
-1
 48
1.0
  6
ByLayer
100
AcDbLine
 10
39.399514260511246
 20
25.504049375161294
 30
0.0
 11
39.610421322199556
 21
24.940456639771682
 31
0.0
  0
LINE
  5
FA
100
AcDbEntity
  8
2
 62
256
370
-1
 48
1.0
  6
ByLayer
100
AcDbLine
 10
39.610421322199556
 20
24.940456639771682
 30
0.0
 11
39.900837312459295
 21
24.490970032628823
 31
0.0
  0
LINE
  5
FB
100
AcDbEntity
  8
2
 62
256
370
-1
 48
1.0
  6
ByLayer
100
AcDbLine
 10
39.900837312459295
 20
24.490970032628823
 30
0.0
 11
40.274244374147614
 21
24.138297548862589
 31
0.0
  0
LINE
  5
FC
100
AcDbEntity
  8
2
 62
256
370
-1
 48
1.0
  6
ByLayer
100
AcDbLine
 10
40.274244374147614
 20
24.138297548862589
 30
0.0
 11
40.728914625770983
 21
23.873786591070385
 31
0.0
  0
LINE
  5
FD
100
AcDbEntity
  8
2
 62
256
370
-1
 48
1.0
  6
ByLayer
100
AcDbLine
 10
40.728914625770983
 20
23.873786591070385
 30
0.0
 11
41.263120185835923
 21
23.688784561849605
 31
0.0
  0
LINE
  5
FE
100
AcDbEntity
  8
2
 62
256
370
-1
 48
1.0
  6
ByLayer
100
AcDbLine
 10
41.263120185835923
 20
23.688784561849605
 30
0.0
 11
42.583960283238518
 21
23.48824478912233
 31
0.0
  0
LINE
  5
FF
100
AcDbEntity
  8
2
 62
256
370
-1
 48
1.0
  6
ByLayer
100
AcDbLine
 10
42.583960283238518
 20
23.48824478912233
 30
0.0
 11
42.708473270251503
 21
23.474421737174278
 31
0.0
  0
LINE
  5
100
100
AcDbEntity
  8
2
 62
256
370
-1
 48
1.0
  6
ByLayer
100
AcDbLine
 10
42.708473270251503
 20
23.474421737174278
 30
0.0
 11
42.832986257264487
 21
23.460598685226227
 31
0.0
  0
LINE
  5
101
100
AcDbEntity
  8
2
 62
256
370
-1
 48
1.0
  6
ByLayer
100
AcDbLine
 10
42.832986257264487
 20
23.460598685226227
 30
0.0
 11
42.902101517004752
 21
25.396881152758695
 31
0.0
  0
LINE
  5
102
100
AcDbEntity
  8
2
 62
256
370
-1
 48
1.0
  6
ByLayer
100
AcDbLine
 10
42.902101517004752
 20
25.396881152758695
 30
0.0
 11
42.258960283238522
 21
25.376146574836618
 31
0.0
  0
LINE
  5
103
100
AcDbEntity
  8
2
 62
256
370
-1
 48
1.0
  6
ByLayer
100
AcDbLine
 10
42.258960283238522
 20
25.376146574836618
 30
0.0
 11
41.698810120900852
 21
25.403792678732721
 31
0.0
  0
LINE
  5
104
100
AcDbEntity
  8
2
 62
256
370
-1
 48
1.0
  6
ByLayer
100
AcDbLine
 10
41.698810120900852
 20
25.403792678732721
 30
0.0
 11
41.283907523498257
 21
25.631978555356095
 31
0.0
  0
LINE
  5
105
100
AcDbEntity
  8
2
 62
256
370
-1
 48
1.0
  6
ByLayer
100
AcDbLine
 10
41.283907523498257
 20
25.631978555356095
 30
0.0
 11
41.048757361160597
 21
26.199040243667785
 31
0.0
  0
LINE
  5
106
100
AcDbEntity
  8
2
 62
256
370
-1
 48
1.0
  6
ByLayer
100
AcDbLine
 10
48.863108010511247
 20
29.961020763148301
 30
0.0
 11
47.148099893628135
 21
29.961020763148301
 31
0.0
  0
LINE
  5
107
100
AcDbEntity
  8
2
 62
256
370
-1
 48
1.0
  6
ByLayer
100
AcDbLine
 10
47.148099893628135
 20
29.961020763148301
 30
0.0
 11
47.148099893628128
 21
23.460598685226223
 31
0.0
  0
LINE
  5
108
100
AcDbEntity
  8
2
 62
256
370
-1
 48
1.0
  6
ByLayer
100
AcDbLine
 10
47.148099893628128
 20
23.460598685226223
 30
0.0
 11
48.86310801051124
 21
23.460598685226223
 31
0.0
  0
LINE
  5
109
100
AcDbEntity
  8
2
 62
256
370
-1
 48
1.0
  6
ByLayer
100
AcDbLine
 10
48.86310801051124
 20
23.460598685226223
 30
0.0
 11
48.863108010511247
 21
29.961020763148301
 31
0.0
  0
LINE
  5
10A
100
AcDbEntity
  8
5
 62
256
370
-1
 48
1.0
  6
ByLayer
100
AcDbLine
 10
64.15766938057952
 20
31.631969766495242
 30
0.0
 11
58.791370679280831
 21
31.631969766495242
 31
0.0
  0
LINE
  5
10B
100
AcDbEntity
  8
5
 62
256
370
-1
 48
1.0
  6
ByLayer
100
AcDbLine
 10
58.791370679280831
 20
31.631969766495242
 30
0.0
 11
58.487158016943162
 21
29.889315545716023
 31
0.0
  0
LINE
  5
10C
100
AcDbEntity
  8
5
 62
256
370
-1
 48
1.0
  6
ByLayer
100
AcDbLine
 10
58.487158016943162
 20
29.889315545716023
 30
0.0
 11
63.977864185774337
 21
29.889315545716023
 31
0.0
  0
LINE
  5
10D
100
AcDbEntity
  8
5
 62
256
370
-1
 48
1.0
  6
ByLayer
100
AcDbLine
 10
63.977864185774337
 20
29.889315545716023
 30
0.0
 11
64.15766938057952
 21
31.631969766495242
 31
0.0
  0
LINE
  5
10E
100
AcDbEntity
  8
5
 62
256
370
-1
 48
1.0
  6
ByLayer
100
AcDbLine
 10
64.448164510449658
 20
25.61567106519654
 30
0.0
 11
64.296005419540577
 21
26.784352071690048
 31
0.0
  0
LINE
  5
10F
100
AcDbEntity
  8
5
 62
256
370
-1
 48
1.0
  6
ByLayer
100
AcDbLine
 10
64.296005419540577
 20
26.784352071690048
 30
0.0
 11
64.104091864345762
 21
27.309918224287451
 31
0.0
  0
LINE
  5
110
100
AcDbEntity
  8
5
 62
256
370
-1
 48
1.0
  6
ByLayer
100
AcDbLine
 10
64.104091864345762
 20
27.309918224287451
 30
0.0
 11
63.832669380579532
 21
27.766316357404332
 31
0.0
  0
LINE
  5
111
100
AcDbEntity
  8
5
 62
256
370
-1
 48
1.0
  6
ByLayer
100
AcDbLine
 10
63.832669380579532
 20
27.766316357404332
 30
0.0
 11
63.481724778306791
 21
28.146648135001733
 31
0.0
  0
LINE
  5
112
100
AcDbEntity
  8
5
 62
256
370
-1
 48
1.0
  6
ByLayer
100
AcDbLine
 10
63.481724778306791
 20
28.146648135001733
 30
0.0
 11
63.051244867592509
 21
28.444015221040694
 31
0.0
  0
LINE
  5
113
100
AcDbEntity
  8
5
 62
256
370
-1
 48
1.0
  6
ByLayer
100
AcDbLine
 10
63.051244867592509
 20
28.444015221040694
 30
0.0
 11
62.539514956878229
 21
28.635928776235499
 31
0.0
  0
LINE
  5
114
100
AcDbEntity
  8
5
 62
256
370
-1
 48
1.0
  6
ByLayer
100
AcDbLine
 10
62.539514956878229
 20
28.635928776235499
 30
0.0
 11
61.944820354605497
 21
28.699899961300432
 31
0.0
  0
LINE
  5
115
100
AcDbEntity
  8
5
 62
256
370
-1
 48
1.0
  6
ByLayer
100
AcDbLine
 10
61.944820354605497
 20
28.699899961300432
 30
0.0
 11
61.751192107852255
 21
28.699899961300432
 31
0.0
  0
LINE
  5
116
100
AcDbEntity
  8
5
 62
256
370
-1
 48
1.0
  6
ByLayer
100
AcDbLine
 10
61.751192107852255
 20
28.699899961300432
 30
0.0
 11
61.571386913047064
 21
28.686076909352387
 31
0.0
  0
LINE
  5
117
100
AcDbEntity
  8
5
 62
256
370
-1
 48
1.0
  6
ByLayer
100
AcDbLine
 10
61.571386913047064
 20
28.686076909352387
 30
0.0
 11
61.571386913047064
 21
27.081653208053684
 31
0.0
  0
LINE
  5
118
100
AcDbEntity
  8
5
 62
256
370
-1
 48
1.0
  6
ByLayer
100
AcDbLine
 10
61.571386913047064
 20
27.081653208053684
 30
0.0
 11
62.069227822137968
 21
26.867343143118621
 31
0.0
  0
LINE
  5
119
100
AcDbEntity
  8
5
 62
256
370
-1
 48
1.0
  6
ByLayer
100
AcDbLine
 10
62.069227822137968
 20
26.867343143118621
 30
0.0
 11
62.359670192267842
 21
26.549254669092644
 31
0.0
  0
LINE
  5
11A
100
AcDbEntity
  8
5
 62
256
370
-1
 48
1.0
  6
ByLayer
100
AcDbLine
 10
62.359670192267842
 20
26.549254669092644
 30
0.0
 11
62.491094705254852
 21
26.099741682079657
 31
0.0
  0
LINE
  5
11B
100
AcDbEntity
  8
5
 62
256
370
-1
 48
1.0
  6
ByLayer
100
AcDbLine
 10
62.491094705254852
 20
26.099741682079657
 30
0.0
 11
62.525705094865245
 21
25.504981130131608
 31
0.0
  0
LINE
  5
11C
100
AcDbEntity
  8
5
 62
256
370
-1
 48
1.0
  6
ByLayer
100
AcDbLine
 10
62.525705094865245
 20
25.504981130131608
 30
0.0
 11
62.498006231228878
 21
24.868804182079657
 31
0.0
  0
LINE
  5
11D
100
AcDbEntity
  8
5
 62
256
370
-1
 48
1.0
  6
ByLayer
100
AcDbLine
 10
62.498006231228878
 20
24.868804182079657
 30
0.0
 11
62.373493244215886
 21
24.377822039222512
 31
0.0
  0
LINE
  5
11E
100
AcDbEntity
  8
5
 62
256
370
-1
 48
1.0
  6
ByLayer
100
AcDbLine
 10
62.373493244215886
 20
24.377822039222512
 30
0.0
 11
62.083050874086027
 21
24.004388597664072
 31
0.0
  0
LINE
  5
11F
100
AcDbEntity
  8
5
 62
256
370
-1
 48
1.0
  6
ByLayer
100
AcDbLine
 10
62.083050874086027
 20
24.004388597664072
 30
0.0
 11
61.571386913047064
 21
23.720857753508227
 31
0.0
  0
LINE
  5
120
100
AcDbEntity
  8
5
 62
256
370
-1
 48
1.0
  6
ByLayer
100
AcDbLine
 10
61.571386913047064
 20
23.720857753508227
 30
0.0
 11
61.571386913047064
 21
22.074964896365373
 31
0.0
  0
LINE
  5
121
100
AcDbEntity
  8
5
 62
256
370
-1
 48
1.0
  6
ByLayer
100
AcDbLine
 10
61.571386913047064
 20
22.074964896365373
 30
0.0
 11
62.279346785206151
 21
22.23146017842706
 31
0.0
  0
LINE
  5
122
100
AcDbEntity
  8
5
 62
256
370
-1
 48
1.0
  6
ByLayer
100
AcDbLine
 10
62.279346785206151
 20
22.23146017842706
 30
0.0
 11
62.881846531553549
 21
22.465743102534201
 31
0.0
  0
LINE
  5
123
100
AcDbEntity
  8
5
 62
256
370
-1
 48
1.0
  6
ByLayer
100
AcDbLine
 10
62.881846531553549
 20
22.465743102534201
 30
0.0
 11
63.378886152089272
 21
22.7778136686868
 31
0.0
  0
LINE
  5
124
100
AcDbEntity
  8
5
 62
256
370
-1
 48
1.0
  6
ByLayer
100
AcDbLine
 10
63.378886152089272
 20
22.7778136686868
 30
0.0
 11
63.770465646813292
 21
23.167671876884853
 31
0.0
  0
LINE
  5
125
100
AcDbEntity
  8
5
 62
256
370
-1
 48
1.0
  6
ByLayer
100
AcDbLine
 10
63.770465646813292
 20
23.167671876884853
 30
0.0
 11
64.066958899654196
 21
23.642235848069916
 31
0.0
  0
LINE
  5
126
100
AcDbEntity
  8
5
 62
256
370
-1
 48
1.0
  6
ByLayer
100
AcDbLine
 10
64.066958899654196
 20
23.642235848069916
 30
0.0
 11
64.27873979454057
 21
24.208423703183552
 31
0.0
  0
LINE
  5
127
100
AcDbEntity
  8
5
 62
256
370
-1
 48
1.0
  6
ByLayer
100
AcDbLine
 10
64.27873979454057
 20
24.208423703183552
 30
0.0
 11
64.448164510449658
 21
25.61567106519654
 31
0.0
  0
LINE
  5
128
100
AcDbEntity
  8
5
 62
256
370
-1
 48
1.0
  6
ByLayer
100
AcDbLine
 10
60.506378796163943
 20
28.630784701560174
 30
0.0
 11
60.285104445514591
 21
28.568475448313425
 31
0.0
  0
LINE
  5
129
100
AcDbEntity
  8
5
 62
256
370
-1
 48
1.0
  6
ByLayer
100
AcDbLine
 10
60.285104445514591
 20
28.568475448313425
 30
0.0
 11
60.139909640319786
 21
28.478572850910826
 31
0.0
  0
LINE
  5
12A
100
AcDbEntity
  8
5
 62
256
370
-1
 48
1.0
  6
ByLayer
100
AcDbLine
 10
60.139909640319786
 20
28.478572850910826
 30
0.0
 11
60.015396653306794
 21
28.36102414961212
 31
0.0
  0
LINE
  5
12B
100
AcDbEntity
  8
5
 62
256
370
-1
 48
1.0
  6
ByLayer
100
AcDbLine
 10
60.015396653306794
 20
28.36102414961212
 30
0.0
 11
59.828732692267842
 21
28.229599636625114
 31
0.0
  0
LINE
  5
12C
100
AcDbEntity
  8
5
 62
256
370
-1
 48
1.0
  6
ByLayer
100
AcDbLine
 10
59.828732692267842
 20
28.229599636625114
 30
0.0
 11
60.105299250709393
 21
28.976466519741994
 31
0.0
  0
LINE
  5
12D
100
AcDbEntity
  8
5
 62
256
370
-1
 48
1.0
  6
ByLayer
100
AcDbLine
 10
60.105299250709393
 20
28.976466519741994
 30
0.0
 11
58.431760289670436
 21
28.976466519741994
 31
0.0
  0
LINE
  5
12E
100
AcDbEntity
  8
5
 62
256
370
-1
 48
1.0
  6
ByLayer
100
AcDbLine
 10
58.431760289670436
 20
28.976466519741994
 30
0.0
 11
57.906273276683429
 21
26.41783015610563
 31
0.0
  0
LINE
  5
12F
100
AcDbEntity
  8
5
 62
256
370
-1
 48
1.0
  6
ByLayer
100
AcDbLine
 10
57.906273276683429
 20
26.41783015610563
 30
0.0
 11
59.690396653306799
 21
26.41783015610563
 31
0.0
  0
LINE
  5
130
100
AcDbEntity
  8
5
 62
256
370
-1
 48
1.0
  6
ByLayer
100
AcDbLine
 10
59.690396653306799
 20
26.41783015610563
 30
0.0
 11
59.994662075384724
 21
26.894989247014724
 31
0.0
  0
LINE
  5
131
100
AcDbEntity
  8
5
 62
256
370
-1
 48
1.0
  6
ByLayer
100
AcDbLine
 10
59.994662075384724
 20
26.894989247014724
 30
0.0
 11
60.492555744215899
 21
27.095581779482256
 31
0.0
  0
LINE
  5
132
100
AcDbEntity
  8
5
 62
256
370
-1
 48
1.0
  6
ByLayer
100
AcDbLine
 10
60.492555744215899
 20
27.095581779482256
 30
0.0
 11
60.506378796163943
 21
28.630784701560174
 31
0.0
  0
LINE
  5
133
100
AcDbEntity
  8
5
 62
256
370
-1
 48
1.0
  6
ByLayer
100
AcDbLine
 10
60.520201848112002
 20
22.061141844417318
 30
0.0
 11
60.520201848112002
 21
23.679388597664072
 31
0.0
  0
LINE
  5
134
100
AcDbEntity
  8
5
 62
256
370
-1
 48
1.0
  6
ByLayer
100
AcDbLine
 10
60.520201848112002
 20
23.679388597664072
 30
0.0
 11
59.980786263696416
 21
23.810760350910826
 31
0.0
  0
LINE
  5
135
100
AcDbEntity
  8
5
 62
256
370
-1
 48
1.0
  6
ByLayer
100
AcDbLine
 10
59.980786263696416
 20
23.810760350910826
 30
0.0
 11
59.683432367592516
 21
24.09429119506667
 31
0.0
  0
LINE
  5
136
100
AcDbEntity
  8
5
 62
256
370
-1
 48
1.0
  6
ByLayer
100
AcDbLine
 10
59.683432367592516
 20
24.09429119506667
 30
0.0
 11
59.531326036423692
 21
24.52301684441732
 31
0.0
  0
LINE
  5
137
100
AcDbEntity
  8
5
 62
256
370
-1
 48
1.0
  6
ByLayer
100
AcDbLine
 10
59.531326036423692
 20
24.52301684441732
 30
0.0
 11
59.44147619876135
 21
25.103901584677057
 31
0.0
  0
LINE
  5
138
100
AcDbEntity
  8
5
 62
256
370
-1
 48
1.0
  6
ByLayer
100
AcDbLine
 10
59.44147619876135
 20
25.103901584677057
 30
0.0
 11
57.532839835124982
 21
25.007140221040697
 31
0.0
  0
LINE
  5
139
100
AcDbEntity
  8
5
 62
256
370
-1
 48
1.0
  6
ByLayer
100
AcDbLine
 10
57.532839835124982
 20
25.007140221040697
 30
0.0
 11
57.795583341618496
 21
23.845317980780955
 31
0.0
  0
LINE
  5
13A
100
AcDbEntity
  8
5
 62
256
370
-1
 48
1.0
  6
ByLayer
100
AcDbLine
 10
57.795583341618496
 20
23.845317980780955
 30
0.0
 11
58.039346531553548
 21
23.34225385740433
 31
0.0
  0
LINE
  5
13B
100
AcDbEntity
  8
5
 62
256
370
-1
 48
1.0
  6
ByLayer
100
AcDbLine
 10
58.039346531553548
 20
23.34225385740433
 30
0.0
 11
58.355733503956152
 21
22.911787136625112
 31
0.0
  0
LINE
  5
13C
100
AcDbEntity
  8
5
 62
256
370
-1
 48
1.0
  6
ByLayer
100
AcDbLine
 10
58.355733503956152
 20
22.911787136625112
 30
0.0
 11
58.743003187397711
 21
22.559101462923813
 31
0.0
  0
LINE
  5
13D
100
AcDbEntity
  8
5
 62
256
370
-1
 48
1.0
  6
ByLayer
100
AcDbLine
 10
58.743003187397711
 20
22.559101462923813
 30
0.0
 11
59.199414510449657
 21
22.289380480780956
 31
0.0
  0
LINE
  5
13E
100
AcDbEntity
  8
5
 62
256
370
-1
 48
1.0
  6
ByLayer
100
AcDbLine
 10
59.199414510449657
 20
22.289380480780956
 30
0.0
 11
59.73015111759252
 21
22.118201503508228
 31
0.0
  0
LINE
  5
13F
100
AcDbEntity
  8
5
 62
256
370
-1
 48
1.0
  6
ByLayer
100
AcDbLine
 10
59.73015111759252
 20
22.118201503508228
 30
0.0
 11
60.340396653306797
 21
22.061141844417318
 31
0.0
  0
LINE
  5
140
100
AcDbEntity
  8
5
 62
256
370
-1
 48
1.0
  6
ByLayer
100
AcDbLine
 10
60.340396653306797
 20
22.061141844417318
 30
0.0
 11
60.520201848112002
 21
22.061141844417318
 31
0.0
  0
LINE
  5
141
100
AcDbEntity
  8
4
 62
256
370
-1
 48
1.0
  6
ByLayer
100
AcDbLine
 10
63.542051493633281
 20
13.335207134580887
 30
0.0
 11
61.951556363763153
 21
13.335207134580887
 31
0.0
  0
LINE
  5
142
100
AcDbEntity
  8
4
 62
256
370
-1
 48
1.0
  6
ByLayer
100
AcDbLine
 10
61.951556363763153
 20
13.335207134580887
 30
0.0
 11
61.951556363763153
 21
12.076570770944526
 31
0.0
  0
LINE
  5
143
100
AcDbEntity
  8
4
 62
256
370
-1
 48
1.0
  6
ByLayer
100
AcDbLine
 10
61.951556363763153
 20
12.076570770944526
 30
0.0
 11
56.156532013113797
 21
12.076570770944523
 31
0.0
  0
LINE
  5
144
100
AcDbEntity
  8
4
 62
256
370
-1
 48
1.0
  6
ByLayer
100
AcDbLine
 10
56.156532013113797
 20
12.076570770944523
 30
0.0
 11
56.156532013113797
 21
10.195686030684783
 31
0.0
  0
LINE
  5
145
100
AcDbEntity
  8
4
 62
256
370
-1
 48
1.0
  6
ByLayer
100
AcDbLine
 10
56.156532013113797
 20
10.195686030684783
 30
0.0
 11
65.589023896230685
 21
10.195686030684785
 31
0.0
  0
LINE
  5
146
100
AcDbEntity
  8
4
 62
256
370
-1
 48
1.0
  6
ByLayer
100
AcDbLine
 10
65.589023896230685
 20
10.195686030684785
 30
0.0
 11
65.589023896230685
 21
12.076570770944526
 31
0.0
  0
LINE
  5
147
100
AcDbEntity
  8
4
 62
256
370
-1
 48
1.0
  6
ByLayer
100
AcDbLine
 10
65.589023896230685
 20
12.076570770944526
 30
0.0
 11
63.569697597529384
 21
12.076570770944526
 31
0.0
  0
LINE
  5
148
100
AcDbEntity
  8
4
 62
256
370
-1
 48
1.0
  6
ByLayer
100
AcDbLine
 10
63.569697597529384
 20
12.076570770944526
 30
0.0
 11
63.542051493633281
 21
13.335207134580887
 31
0.0
  0
LINE
  5
149
100
AcDbEntity
  8
4
 62
256
370
-1
 48
1.0
  6
ByLayer
100
AcDbLine
 10
63.555874545581339
 20
9.1583240176977707
 30
0.0
 11
61.951556363763153
 21
9.1583240176977707
 31
0.0
  0
LINE
  5
14A
100
AcDbEntity
  8
4
 62
256
370
-1
 48
1.0
  6
ByLayer
100
AcDbLine
 10
61.951556363763153
 20
9.1583240176977707
 30
0.0
 11
61.951556363763153
 21
7.9965545371782918
 31
0.0
  0
LINE
  5
14B
100
AcDbEntity
  8
4
 62
256
370
-1
 48
1.0
  6
ByLayer
100
AcDbLine
 10
61.951556363763153
 20
7.9965545371782918
 30
0.0
 11
59.890760909217704
 21
9.1583240176977707
 31
0.0
  0
LINE
  5
14C
100
AcDbEntity
  8
4
 62
256
370
-1
 48
1.0
  6
ByLayer
100
AcDbLine
 10
59.890760909217704
 20
9.1583240176977707
 30
0.0
 11
57.221434610516404
 21
9.1583240176977707
 31
0.0
  0
LINE
  5
14D
100
AcDbEntity
  8
4
 62
256
370
-1
 48
1.0
  6
ByLayer
100
AcDbLine
 10
57.221434610516404
 20
9.1583240176977707
 30
0.0
 11
61.591945974152765
 21
6.3230155761393307
 31
0.0
  0
LINE
  5
14E
100
AcDbEntity
  8
4
 62
256
370
-1
 48
1.0
  6
ByLayer
100
AcDbLine
 10
61.591945974152765
 20
6.3230155761393307
 30
0.0
 11
63.555874545581339
 21
6.3230155761393307
 31
0.0
  0
LINE
  5
14F
100
AcDbEntity
  8
4
 62
256
370
-1
 48
1.0
  6
ByLayer
100
AcDbLine
 10
63.555874545581339
 20
6.3230155761393307
 30
0.0
 11
63.555874545581339
 21
9.1583240176977707
 31
0.0
  0
LINE
  5
150
100
AcDbEntity
  8
6
 62
256
370
-1
 48
1.0
  6
ByLayer
100
AcDbLine
 10
58.648727192726398
 20
46.804702667419022
 30
0.0
 11
57.626982062856271
 21
46.545362164172268
 31
0.0
  0
LINE
  5
151
100
AcDbEntity
  8
6
 62
256
370
-1
 48
1.0
  6
ByLayer
100
AcDbLine
 10
57.626982062856271
 20
46.545362164172268
 30
0.0
 11
56.829993426492628
 21
46.071658836250187
 31
0.0
  0
LINE
  5
152
100
AcDbEntity
  8
6
 62
256
370
-1
 48
1.0
  6
ByLayer
100
AcDbLine
 10
56.829993426492628
 20
46.071658836250187
 30
0.0
 11
56.530476381038092
 21
45.745775110600832
 31
0.0
  0
LINE
  5
153
100
AcDbEntity
  8
6
 62
256
370
-1
 48
1.0
  6
ByLayer
100
AcDbLine
 10
56.530476381038092
 20
45.745775110600832
 30
0.0
 11
56.31653563428484
 21
45.349008673912522
 31
0.0
  0
LINE
  5
154
100
AcDbEntity
  8
6
 62
256
370
-1
 48
1.0
  6
ByLayer
100
AcDbLine
 10
56.31653563428484
 20
45.349008673912522
 30
0.0
 11
56.145383036882251
 21
44.342827667419016
 31
0.0
  0
LINE
  5
155
100
AcDbEntity
  8
6
 62
256
370
-1
 48
1.0
  6
ByLayer
100
AcDbLine
 10
56.145383036882251
 20
44.342827667419016
 30
0.0
 11
56.145383036882251
 21
44.17684552456187
 31
0.0
  0
LINE
  5
156
100
AcDbEntity
  8
6
 62
256
370
-1
 48
1.0
  6
ByLayer
100
AcDbLine
 10
56.145383036882251
 20
44.17684552456187
 30
0.0
 11
57.694409010908217
 21
44.176845524561877
 31
0.0
  0
LINE
  5
157
100
AcDbEntity
  8
6
 62
256
370
-1
 48
1.0
  6
ByLayer
100
AcDbLine
 10
57.694409010908217
 20
44.176845524561877
 30
0.0
 11
57.798134660258874
 21
44.598659647938497
 31
0.0
  0
LINE
  5
158
100
AcDbEntity
  8
6
 62
256
370
-1
 48
1.0
  6
ByLayer
100
AcDbLine
 10
57.798134660258874
 20
44.598659647938497
 30
0.0
 11
57.971028329090032
 21
44.819986758328113
 31
0.0
  0
LINE
  5
159
100
AcDbEntity
  8
6
 62
256
370
-1
 48
1.0
  6
ByLayer
100
AcDbLine
 10
57.971028329090032
 20
44.819986758328113
 30
0.0
 11
58.261470699219906
 21
44.923712407678764
 31
0.0
  0
LINE
  5
15A
100
AcDbEntity
  8
6
 62
256
370
-1
 48
1.0
  6
ByLayer
100
AcDbLine
 10
58.261470699219906
 20
44.923712407678764
 30
0.0
 11
58.731665504414721
 21
44.992827667419022
 31
0.0
  0
LINE
  5
15B
100
AcDbEntity
  8
6
 62
256
370
-1
 48
1.0
  6
ByLayer
100
AcDbLine
 10
58.731665504414721
 20
44.992827667419022
 30
0.0
 11
58.648727192726398
 21
46.804702667419022
 31
0.0
  0
LINE
  5
15C
100
AcDbEntity
  8
6
 62
256
370
-1
 48
1.0
  6
ByLayer
100
AcDbLine
 10
62.369133036882246
 20
46.970579290795655
 30
0.0
 11
61.73813973331081
 21
46.91871646612033
 31
0.0
  0
LINE
  5
15D
100
AcDbEntity
  8
6
 62
256
370
-1
 48
1.0
  6
ByLayer
100
AcDbLine
 10
61.73813973331081
 20
46.91871646612033
 30
0.0
 11
61.145159822596526
 21
46.763127992094354
 31
0.0
  0
LINE
  5
15E
100
AcDbEntity
  8
6
 62
256
370
-1
 48
1.0
  6
ByLayer
100
AcDbLine
 10
61.145159822596526
 20
46.763127992094354
 30
0.0
 11
60.609226381038084
 21
46.512453276185262
 31
0.0
  0
LINE
  5
15F
100
AcDbEntity
  8
6
 62
256
370
-1
 48
1.0
  6
ByLayer
100
AcDbLine
 10
60.609226381038084
 20
46.512453276185262
 30
0.0
 11
60.14937248493419
 21
46.17533172586058
 31
0.0
  0
LINE
  5
160
100
AcDbEntity
  8
6
 62
256
370
-1
 48
1.0
  6
ByLayer
100
AcDbLine
 10
60.14937248493419
 20
46.17533172586058
 30
0.0
 11
59.770768588830293
 21
45.755232294042401
 31
0.0
  0
LINE
  5
161
100
AcDbEntity
  8
6
 62
256
370
-1
 48
1.0
  6
ByLayer
100
AcDbLine
 10
59.770768588830293
 20
45.755232294042401
 30
0.0
 11
59.478585147271858
 21
45.255623933652792
 31
0.0
  0
LINE
  5
162
100
AcDbEntity
  8
6
 62
256
370
-1
 48
1.0
  6
ByLayer
100
AcDbLine
 10
59.478585147271858
 20
45.255623933652792
 30
0.0
 11
59.291855236557574
 21
44.681663909302145
 31
0.0
  0
LINE
  5
163
100
AcDbEntity
  8
6
 62
256
370
-1
 48
1.0
  6
ByLayer
100
AcDbLine
 10
59.291855236557574
 20
44.681663909302145
 30
0.0
 11
59.229611932986145
 21
44.038509485600841
 31
0.0
  0
LINE
  5
164
100
AcDbEntity
  8
6
 62
256
370
-1
 48
1.0
  6
ByLayer
100
AcDbLine
 10
59.229611932986145
 20
44.038509485600841
 30
0.0
 11
59.290127355064072
 21
43.419624542419029
 31
0.0
  0
LINE
  5
165
100
AcDbEntity
  8
6
 62
256
370
-1
 48
1.0
  6
ByLayer
100
AcDbLine
 10
59.290127355064072
 20
43.419624542419029
 30
0.0
 11
59.471673621297839
 21
42.890615816769674
 31
0.0
  0
LINE
  5
166
100
AcDbEntity
  8
6
 62
256
370
-1
 48
1.0
  6
ByLayer
100
AcDbLine
 10
59.471673621297839
 20
42.890615816769674
 30
0.0
 11
59.774224351817324
 21
42.416899298912533
 31
0.0
  0
LINE
  5
167
100
AcDbEntity
  8
6
 62
256
370
-1
 48
1.0
  6
ByLayer
100
AcDbLine
 10
59.774224351817324
 20
42.416899298912533
 30
0.0
 11
60.197753166752392
 21
41.96389097910734
 31
0.0
  0
LINE
  5
168
100
AcDbEntity
  8
6
 62
256
370
-1
 48
1.0
  6
ByLayer
100
AcDbLine
 10
60.197753166752392
 20
41.96389097910734
 30
0.0
 11
59.416328653765369
 21
42.033111758328118
 31
0.0
  0
LINE
  5
169
100
AcDbEntity
  8
6
 62
256
370
-1
 48
1.0
  6
ByLayer
100
AcDbLine
 10
59.416328653765369
 20
42.033111758328118
 30
0.0
 11
58.683284822596541
 21
42.157571985600839
 31
0.0
  0
LINE
  5
16A
100
AcDbEntity
  8
6
 62
256
370
-1
 48
1.0
  6
ByLayer
100
AcDbLine
 10
58.683284822596541
 20
42.157571985600839
 30
0.0
 11
58.095488556362781
 21
42.475660459626816
 31
0.0
  0
LINE
  5
16B
100
AcDbEntity
  8
6
 62
256
370
-1
 48
1.0
  6
ByLayer
100
AcDbLine
 10
58.095488556362781
 20
42.475660459626816
 30
0.0
 11
57.881125731687447
 21
42.752253397938496
 31
0.0
  0
LINE
  5
16C
100
AcDbEntity
  8
6
 62
256
370
-1
 48
1.0
  6
ByLayer
100
AcDbLine
 10
57.881125731687447
 20
42.752253397938496
 30
0.0
 11
57.735878166752379
 21
43.139483511574866
 31
0.0
  0
LINE
  5
16D
100
AcDbEntity
  8
6
 62
256
370
-1
 48
1.0
  6
ByLayer
100
AcDbLine
 10
57.735878166752379
 20
43.139483511574866
 30
0.0
 11
56.173029140778354
 21
43.139483511574859
 31
0.0
  0
LINE
  5
16E
100
AcDbEntity
  8
6
 62
256
370
-1
 48
1.0
  6
ByLayer
100
AcDbLine
 10
56.173029140778354
 20
43.139483511574859
 30
0.0
 11
56.390887298245886
 21
42.256061230730701
 31
0.0
  0
LINE
  5
16F
100
AcDbEntity
  8
6
 62
256
370
-1
 48
1.0
  6
ByLayer
100
AcDbLine
 10
56.390887298245886
 20
42.256061230730701
 30
0.0
 11
56.767789692726417
 21
41.569722959626809
 31
0.0
  0
LINE
  5
170
100
AcDbEntity
  8
6
 62
256
370
-1
 48
1.0
  6
ByLayer
100
AcDbLine
 10
56.767789692726417
 20
41.569722959626809
 30
0.0
 11
57.276077030388755
 21
41.051081522938496
 31
0.0
  0
LINE
  5
171
100
AcDbEntity
  8
6
 62
256
370
-1
 48
1.0
  6
ByLayer
100
AcDbLine
 10
57.276077030388755
 20
41.051081522938496
 30
0.0
 11
57.888090017401737
 21
40.670749745341098
 31
0.0
  0
LINE
  5
172
100
AcDbEntity
  8
6
 62
256
370
-1
 48
1.0
  6
ByLayer
100
AcDbLine
 10
57.888090017401737
 20
40.670749745341098
 30
0.0
 11
58.591720293375772
 21
40.41316350345798
 31
0.0
  0
LINE
  5
173
100
AcDbEntity
  8
6
 62
256
370
-1
 48
1.0
  6
ByLayer
100
AcDbLine
 10
58.591720293375772
 20
40.41316350345798
 30
0.0
 11
59.374859497921221
 21
40.262758673912536
 31
0.0
  0
LINE
  5
174
100
AcDbEntity
  8
6
 62
256
370
-1
 48
1.0
  6
ByLayer
100
AcDbLine
 10
59.374859497921221
 20
40.262758673912536
 30
0.0
 11
61.06913303688227
 21
40.165944550535912
 31
0.0
  0
LINE
  5
175
100
AcDbEntity
  8
6
 62
256
370
-1
 48
1.0
  6
ByLayer
100
AcDbLine
 10
61.06913303688227
 20
40.165944550535912
 30
0.0
 11
62.611247484934211
 21
40.214325232354099
 31
0.0
  0
LINE
  5
176
100
AcDbEntity
  8
6
 62
256
370
-1
 48
1.0
  6
ByLayer
100
AcDbLine
 10
62.611247484934211
 20
40.214325232354099
 30
0.0
 11
63.363284822596547
 21
40.311126165795663
 31
0.0
  0
LINE
  5
177
100
AcDbEntity
  8
6
 62
256
370
-1
 48
1.0
  6
ByLayer
100
AcDbLine
 10
63.363284822596547
 20
40.311126165795663
 30
0.0
 11
64.056547809609526
 21
40.504767602483973
 31
0.0
  0
LINE
  5
178
100
AcDbEntity
  8
6
 62
256
370
-1
 48
1.0
  6
ByLayer
100
AcDbLine
 10
64.056547809609526
 20
40.504767602483973
 30
0.0
 11
64.67374444110304
 21
40.809059404432027
 31
0.0
  0
LINE
  5
179
100
AcDbEntity
  8
6
 62
256
370
-1
 48
1.0
  6
ByLayer
100
AcDbLine
 10
64.67374444110304
 20
40.809059404432027
 30
0.0
 11
65.197582712206938
 21
41.237811433652809
 31
0.0
  0
LINE
  5
17A
100
AcDbEntity
  8
6
 62
256
370
-1
 48
1.0
  6
ByLayer
100
AcDbLine
 10
65.197582712206938
 20
41.237811433652809
 30
0.0
 11
65.590009660258872
 21
41.827348771315151
 31
0.0
  0
LINE
  5
17B
100
AcDbEntity
  8
6
 62
256
370
-1
 48
1.0
  6
ByLayer
100
AcDbLine
 10
65.590009660258872
 20
41.827348771315151
 30
0.0
 11
65.812972322596551
 21
42.613996498587873
 31
0.0
  0
LINE
  5
17C
100
AcDbEntity
  8
6
 62
256
370
-1
 48
1.0
  6
ByLayer
100
AcDbLine
 10
65.812972322596551
 20
42.613996498587873
 30
0.0
 11
65.847635471947186
 21
42.856005427159303
 31
0.0
  0
LINE
  5
17D
100
AcDbEntity
  8
6
 62
256
370
-1
 48
1.0
  6
ByLayer
100
AcDbLine
 10
65.847635471947186
 20
42.856005427159303
 30
0.0
 11
65.86837004986927
 21
43.125660459626836
 31
0.0
  0
LINE
  5
17E
100
AcDbEntity
  8
6
 62
256
370
-1
 48
1.0
  6
ByLayer
100
AcDbLine
 10
65.86837004986927
 20
43.125660459626836
 30
0.0
 11
64.236300244674453
 21
43.125660459626836
 31
0.0
  0
LINE
  5
17F
100
AcDbEntity
  8
6
 62
256
370
-1
 48
1.0
  6
ByLayer
100
AcDbLine
 10
64.236300244674453
 20
43.125660459626836
 30
0.0
 11
64.035760471947185
 21
42.613996498587866
 31
0.0
  0
LINE
  5
180
100
AcDbEntity
  8
6
 62
256
370
-1
 48
1.0
  6
ByLayer
100
AcDbLine
 10
64.035760471947185
 20
42.613996498587866
 30
0.0
 11
63.676150082336804
 21
42.316642602483974
 31
0.0
  0
LINE
  5
181
100
AcDbEntity
  8
6
 62
256
370
-1
 48
1.0
  6
ByLayer
100
AcDbLine
 10
63.676150082336804
 20
42.316642602483974
 30
0.0
 11
63.192079465453681
 21
42.171395037548905
 31
0.0
  0
LINE
  5
182
100
AcDbEntity
  8
6
 62
256
370
-1
 48
1.0
  6
ByLayer
100
AcDbLine
 10
63.192079465453681
 20
42.171395037548905
 30
0.0
 11
62.604335958960178
 21
42.129873121964486
 31
0.0
  0
LINE
  5
183
100
AcDbEntity
  8
6
 62
256
370
-1
 48
1.0
  6
ByLayer
100
AcDbLine
 10
62.604335958960178
 20
42.129873121964486
 30
0.0
 11
61.919712379414719
 21
42.224959363847603
 31
0.0
  0
LINE
  5
184
100
AcDbEntity
  8
6
 62
256
370
-1
 48
1.0
  6
ByLayer
100
AcDbLine
 10
61.919712379414719
 20
42.224959363847603
 30
0.0
 11
61.35957540701213
 21
42.510218089496952
 31
0.0
  0
LINE
  5
185
100
AcDbEntity
  8
6
 62
256
370
-1
 48
1.0
  6
ByLayer
100
AcDbLine
 10
61.35957540701213
 20
42.510218089496952
 30
0.0
 11
60.982699392401734
 21
42.996016587873569
 31
0.0
  0
LINE
  5
186
100
AcDbEntity
  8
6
 62
256
370
-1
 48
1.0
  6
ByLayer
100
AcDbLine
 10
60.982699392401734
 20
42.996016587873569
 30
0.0
 11
60.847858686232897
 21
43.692722147938511
 31
0.0
  0
LINE
  5
187
100
AcDbEntity
  8
6
 62
256
370
-1
 48
1.0
  6
ByLayer
100
AcDbLine
 10
60.847858686232897
 20
43.692722147938511
 30
0.0
 11
60.979230439479657
 21
44.342774907678766
 31
0.0
  0
LINE
  5
188
100
AcDbEntity
  8
6
 62
256
370
-1
 48
1.0
  6
ByLayer
100
AcDbLine
 10
60.979230439479657
 20
44.342774907678766
 30
0.0
 11
61.338788069349782
 21
44.806110946639812
 31
0.0
  0
LINE
  5
189
100
AcDbEntity
  8
6
 62
256
370
-1
 48
1.0
  6
ByLayer
100
AcDbLine
 10
61.338788069349782
 20
44.806110946639812
 30
0.0
 11
61.871239368051079
 21
45.082730264821627
 31
0.0
  0
LINE
  5
18A
100
AcDbEntity
  8
6
 62
256
370
-1
 48
1.0
  6
ByLayer
100
AcDbLine
 10
61.871239368051079
 20
45.082730264821627
 30
0.0
 11
62.521292127791341
 21
45.172632862224226
 31
0.0
  0
LINE
  5
18B
100
AcDbEntity
  8
6
 62
256
370
-1
 48
1.0
  6
ByLayer
100
AcDbLine
 10
62.521292127791341
 20
45.172632862224226
 30
0.0
 11
63.122964205713416
 21
45.138075232354097
 31
0.0
  0
LINE
  5
18C
100
AcDbEntity
  8
6
 62
256
370
-1
 48
1.0
  6
ByLayer
100
AcDbLine
 10
63.122964205713416
 20
45.138075232354097
 30
0.0
 11
63.634680926492642
 21
44.999791953133325
 31
0.0
  0
LINE
  5
18D
100
AcDbEntity
  8
6
 62
256
370
-1
 48
1.0
  6
ByLayer
100
AcDbLine
 10
63.634680926492642
 20
44.999791953133325
 30
0.0
 11
64.021937419999134
 21
44.702438057029426
 31
0.0
  0
LINE
  5
18E
100
AcDbEntity
  8
6
 62
256
370
-1
 48
1.0
  6
ByLayer
100
AcDbLine
 10
64.021937419999134
 20
44.702438057029426
 30
0.0
 11
64.236300244674453
 21
44.190668576509943
 31
0.0
  0
LINE
  5
18F
100
AcDbEntity
  8
6
 62
256
370
-1
 48
1.0
  6
ByLayer
100
AcDbLine
 10
64.236300244674453
 20
44.190668576509943
 30
0.0
 11
65.882193101817322
 21
44.176845524561898
 31
0.0
  0
LINE
  5
190
100
AcDbEntity
  8
6
 62
256
370
-1
 48
1.0
  6
ByLayer
100
AcDbLine
 10
65.882193101817322
 20
44.176845524561898
 30
0.0
 11
65.746907235340032
 21
44.87659466214307
 31
0.0
  0
LINE
  5
191
100
AcDbEntity
  8
6
 62
256
370
-1
 48
1.0
  6
ByLayer
100
AcDbLine
 10
65.746907235340032
 20
44.87659466214307
 30
0.0
 11
65.520854830713404
 21
45.468285256704753
 31
0.0
  0
LINE
  5
192
100
AcDbEntity
  8
6
 62
256
370
-1
 48
1.0
  6
ByLayer
100
AcDbLine
 10
65.520854830713404
 20
45.468285256704753
 30
0.0
 11
65.204035887937437
 21
45.951917308246969
 31
0.0
  0
LINE
  5
193
100
AcDbEntity
  8
6
 62
256
370
-1
 48
1.0
  6
ByLayer
100
AcDbLine
 10
65.204035887937437
 20
45.951917308246969
 30
0.0
 11
64.796450407012102
 21
46.327490816769689
 31
0.0
  0
LINE
  5
194
100
AcDbEntity
  8
6
 62
256
370
-1
 48
1.0
  6
ByLayer
100
AcDbLine
 10
64.796450407012102
 20
46.327490816769689
 30
0.0
 11
64.305016508879007
 21
46.608842024156047
 31
0.0
  0
LINE
  5
195
100
AcDbEntity
  8
6
 62
256
370
-1
 48
1.0
  6
ByLayer
100
AcDbLine
 10
64.305016508879007
 20
46.608842024156047
 30
0.0
 11
63.736652314479642
 21
46.809807172289169
 31
0.0
  0
LINE
  5
196
100
AcDbEntity
  8
6
 62
256
370
-1
 48
1.0
  6
ByLayer
100
AcDbLine
 10
63.736652314479642
 20
46.809807172289169
 30
0.0
 11
62.369133036882246
 21
46.970579290795655
 31
0.0
  0
LINE
  5
197
100
AcDbEntity
  8
1#2
 62
256
370
-1
 48
1.0
  6
ByLayer
100
AcDbLine
 10
45.161020188695183
 20
5.2070001227137519
 30
0.0
 11
45.161020188695183
 21
14.667138109726739
 31
0.0
  0
LINE
  5
198
100
AcDbEntity
  8
1#2
 62
256
370
-1
 48
1.0
  6
ByLayer
100
AcDbLine
 10
45.161020188695183
 20
14.667138109726739
 30
0.0
 11
43.446012071812071
 21
14.667138109726739
 31
0.0
  0
LINE
  5
199
100
AcDbEntity
  8
1#2
 62
256
370
-1
 48
1.0
  6
ByLayer
100
AcDbLine
 10
43.446012071812071
 20
14.667138109726739
 30
0.0
 11
43.356056714669208
 21
14.259147038298165
 31
0.0
  0
LINE
  5
19A
100
AcDbEntity
  8
1#2
 62
256
370
-1
 48
1.0
  6
ByLayer
100
AcDbLine
 10
43.356056714669208
 20
14.259147038298165
 30
0.0
 11
43.183163045838036
 21
13.864979018817648
 31
0.0
  0
LINE
  5
19B
100
AcDbEntity
  8
1#2
 62
256
370
-1
 48
1.0
  6
ByLayer
100
AcDbLine
 10
43.183163045838036
 20
13.851155966869593
 30
0.0
 11
43.183163045838036
 21
5.2070001227137519
 31
0.0
  0
LINE
  5
19C
100
AcDbEntity
  8
1#2
 62
256
370
-1
 48
1.0
  6
ByLayer
100
AcDbLine
 10
43.183163045838036
 20
5.2070001227137519
 30
0.0
 11
45.161020188695183
 21
5.2070001227137519
 31
0.0
  0
LINE
  5
19D
100
AcDbEntity
  8
1#2
 62
256
370
-1
 48
1.0
  6
ByLayer
100
AcDbLine
 10
42.118260448435443
 20
11.624378369466999
 30
0.0
 11
42.118260448435443
 21
13.450076421415051
 31
0.0
  0
LINE
  5
19E
100
AcDbEntity
  8
1#2
 62
256
370
-1
 48
1.0
  6
ByLayer
100
AcDbLine
 10
42.118260448435443
 20
13.450076421415051
 30
0.0
 11
41.90384486401986
 21
13.270271226609854
 31
0.0
  0
LINE
  5
19F
100
AcDbEntity
  8
1#2
 62
256
370
-1
 48
1.0
  6
ByLayer
100
AcDbLine
 10
41.90384486401986
 20
13.270271226609854
 30
0.0
 11
41.793207688695183
 21
13.145810999337128
 31
0.0
  0
LINE
  5
1A0
100
AcDbEntity
  8
1#2
 62
256
370
-1
 48
1.0
  6
ByLayer
100
AcDbLine
 10
41.793207688695183
 20
13.145810999337128
 30
0.0
 11
41.66183593544843
 21
13.069731453882582
 31
0.0
  0
LINE
  5
1A1
100
AcDbEntity
  8
1#2
 62
256
370
-1
 48
1.0
  6
ByLayer
100
AcDbLine
 10
41.66183593544843
 20
13.069731453882582
 30
0.0
 11
41.399039669214666
 21
13.048996875960505
 31
0.0
  0
LINE
  5
1A2
100
AcDbEntity
  8
1#2
 62
256
370
-1
 48
1.0
  6
ByLayer
100
AcDbLine
 10
41.399039669214666
 20
13.048996875960505
 30
0.0
 11
41.177765318565314
 21
13.048996875960505
 31
0.0
  0
LINE
  5
1A3
100
AcDbEntity
  8
1#2
 62
256
370
-1
 48
1.0
  6
ByLayer
100
AcDbLine
 10
41.177765318565314
 20
13.048996875960505
 30
0.0
 11
41.080898435448432
 21
13.048996875960505
 31
0.0
  0
LINE
  5
1A4
100
AcDbEntity
  8
1#2
 62
256
370
-1
 48
1.0
  6
ByLayer
100
AcDbLine
 10
41.080898435448432
 20
13.048996875960505
 30
0.0
 11
40.984137071812064
 21
13.062819927908556
 31
0.0
  0
LINE
  5
1A5
100
AcDbEntity
  8
1#2
 62
256
370
-1
 48
1.0
  6
ByLayer
100
AcDbLine
 10
40.984137071812064
 20
13.062819927908556
 30
0.0
 11
40.984137071812064
 21
11.624378369466999
 31
0.0
  0
LINE
  5
1A6
100
AcDbEntity
  8
1#2
 62
256
370
-1
 48
1.0
  6
ByLayer
100
AcDbLine
 10
40.984137071812064
 20
11.624378369466999
 30
0.0
 11
42.118260448435443
 21
11.624378369466999
 31
0.0
  0
LWPOLYLINE
  5
1A7
100
AcDbEntity
  8
Group#2
 62
256
370
-1
 48
1.0
  6
ByLayer
100
AcDbPolyline
 90
25
 70
18432
 10
54.0
 20
29.999999999999996
 10
54.0
 20
33.999999999999993
 10
54.0
 20
36.999999999999993
 10
58.000000000000007
 20
36.999999999999993
 10
58.000000000000007
 20
33.999999999999993
 10
64.000000000000057
 20
33.999999999999993
 10
64.000000000000057
 20
36.999999999999993
 10
68.0
 20
36.999999999999993
 10
68.0
 20
33.999999999999993
 10
68.0
 20
29.999999999999996
 10
71.0
 20
29.999999999999996
 10
71.0
 20
23.999999999999996
 10
68.0
 20
23.999999999999996
 10
68.0
 20
22.999999999999996
 10
67.999999999999986
 20
16.999999999999996
 10
64.000000000000014
 20
16.999999999999996
 10
64.000000000000014
 20
19.999999999999996
 10
58.000000000000021
 20
19.999999999999996
 10
58.000000000000021
 20
16.999999999999993
 10
54.0
 20
16.999999999999996
 10
54.0
 20
19.999999999999996
 10
54.0
 20
23.999999999999996
 10
51.000000000000007
 20
23.999999999999996
 10
51.000000000000007
 20
29.999999999999996
 10
54.0
 20
29.999999999999996
  0
LWPOLYLINE
  5
1A8
100
AcDbEntity
  8
Group#2
 62
256
370
-1
 48
1.0
  6
ByLayer
100
AcDbPolyline
 90
25
 70
30720
 10
51.000000000000007
 20
16.999999999999996
 10
54.0
 20
16.999999999999996
 10
58.000000000000021
 20
16.999999999999993
 10
58.000000000000021
 20
19.999999999999996
 10
64.000000000000014
 20
19.999999999999996
 10
64.000000000000014
 20
16.999999999999996
 10
67.999999999999986
 20
16.999999999999996
 10
71.0
 20
16.999999999999996
 10
71.0
 20
12.999999999999998
 10
68.000000000000014
 20
12.999999999999998
 10
68.000000000000014
 20
7.0
 10
71.0
 20
7.0
 10
71.0
 20
3.0
 10
68.000000000000014
 20
3.0
 10
64.0
 20
3.0
 10
63.999999999999993
 20
0.0
 10
58.000000000000007
 20
0.0
 10
58.000000000000007
 20
3.0
 10
54.0
 20
3.0
 10
51.000000000000007
 20
3.0
 10
51.000000000000007
 20
6.9999999999999982
 10
54.0
 20
7.0
 10
54.0
 20
12.999999999999998
 10
51.000000000000007
 20
12.999999999999998
 10
51.000000000000007
 20
16.999999999999996
  0
LWPOLYLINE
  5
1A9
100
AcDbEntity
  8
Group#2
 62
256
370
-1
 48
1.0
  6
ByLayer
100
AcDbPolyline
 90
23
 70
10240
 10
47.000000000000007
 20
54.0
 10
51.000000000000007
 20
54.0
 10
51.000000000000007
 20
51.0
 10
51.000000000000007
 20
46.999999999999993
 10
54.0
 20
46.999999999999993
 10
54.0
 20
40.999999999999993
 10
51.000000000000007
 20
40.999999999999993
 10
51.000000000000007
 20
33.999999999999993
 10
47.000000000000007
 20
33.999999999999993
 10
47.000000000000007
 20
36.999999999999986
 10
41.000000000000007
 20
36.999999999999993
 10
41.000000000000007
 20
33.999999999999993
 10
37.0
 20
33.999999999999993
 10
37.0
 20
40.999999999999993
 10
34.000000000000007
 20
40.999999999999993
 10
34.000000000000007
 20
46.999999999999993
 10
37.0
 20
46.999999999999993
 10
37.0
 20
51.0
 10
37.0
 20
54.0
 10
41.000000000000007
 20
54.0
 10
41.000000000000007
 20
51.0
 10
47.000000000000007
 20
51.0
 10
47.000000000000007
 20
54.0
  0
LWPOLYLINE
  5
1AA
100
AcDbEntity
  8
Group#2
 62
256
370
-1
 48
1.0
  6
ByLayer
100
AcDbPolyline
 90
23
 70
22528
 10
34.000000000000007
 20
29.999999999999996
 10
34.000000000000007
 20
33.999999999999993
 10
37.0
 20
33.999999999999993
 10
41.000000000000007
 20
33.999999999999993
 10
41.000000000000007
 20
36.999999999999993
 10
47.000000000000007
 20
36.999999999999986
 10
47.000000000000007
 20
33.999999999999993
 10
51.000000000000007
 20
33.999999999999993
 10
54.0
 20
33.999999999999993
 10
54.0
 20
29.999999999999996
 10
51.000000000000007
 20
29.999999999999996
 10
51.000000000000007
 20
23.999999999999996
 10
54.0
 20
23.999999999999996
 10
54.0
 20
19.999999999999996
 10
47.000000000000007
 20
19.999999999999996
 10
47.000000000000007
 20
16.999999999999996
 10
41.000000000000007
 20
16.999999999999996
 10
41.000000000000007
 20
19.999999999999996
 10
34.000000000000007
 20
19.999999999999996
 10
34.000000000000007
 20
24.0
 10
37.0
 20
24.0
 10
37.0
 20
29.999999999999996
 10
34.000000000000007
 20
29.999999999999996
  0
LWPOLYLINE
  5
1AB
100
AcDbEntity
  8
Group#2
 62
256
370
-1
 48
1.0
  6
ByLayer
100
AcDbPolyline
 90
29
 70
2048
 10
34.000000000000007
 20
16.999999999999996
 10
34.000000000000007
 20
19.999999999999996
 10
41.000000000000007
 20
19.999999999999996
 10
41.000000000000007
 20
16.999999999999996
 10
47.000000000000007
 20
16.999999999999996
 10
47.000000000000007
 20
19.999999999999996
 10
54.0
 20
19.999999999999996
 10
54.0
 20
16.999999999999996
 10
51.000000000000007
 20
16.999999999999996
 10
51.000000000000007
 20
12.999999999999998
 10
54.0
 20
12.999999999999998
 10
54.0
 20
7.0
 10
51.000000000000007
 20
6.9999999999999982
 10
51.000000000000007
 20
3.0
 10
54.0
 20
3.0
 10
54.0
 20
0.0
 10
47.000000000000007
 20
0.0
 10
47.000000000000007
 20
3.0
 10
41.000000000000007
 20
3.0
 10
41.000000000000007
 20
0.0
 10
34.000000000000007
 20
0.0
 10
34.000000000000007
 20
3.0000000000000031
 10
37.0
 20
3.0000000000000031
 10
37.0
 20
6.9999999999999982
 10
34.000000000000007
 20
6.9999999999999982
 10
34.000000000000007
 20
13.000000000000004
 10
37.0
 20
13.000000000000004
 10
37.0
 20
16.999999999999996
 10
34.000000000000007
 20
16.999999999999996
  0
LWPOLYLINE
  5
1AC
100
AcDbEntity
  8
Group#2
 62
256
370
-1
 48
1.0
  6
ByLayer
100
AcDbPolyline
 90
30
 70
14336
 10
71.0
 20
33.999999999999993
 10
68.0
 20
33.999999999999993
 10
68.0
 20
36.999999999999993
 10
64.000000000000057
 20
36.999999999999993
 10
64.000000000000057
 20
33.999999999999993
 10
58.000000000000007
 20
33.999999999999993
 10
58.000000000000007
 20
36.999999999999993
 10
54.0
 20
36.999999999999993
 10
54.0
 20
33.999999999999993
 10
51.000000000000007
 20
33.999999999999993
 10
51.000000000000007
 20
40.999999999999993
 10
54.0
 20
40.999999999999993
 10
54.0
 20
46.999999999999993
 10
51.000000000000007
 20
46.999999999999993
 10
51.000000000000007
 20
51.0
 10
51.000000000000007
 20
54.0
 10
54.0
 20
54.0
 10
54.0
 20
51.0
 10
58.00000000000005
 20
51.0
 10
58.00000000000005
 20
54.0
 10
64.000000000000057
 20
54.0
 10
64.000000000000057
 20
51.0
 10
68.000000000000014
 20
51.0
 10
68.000000000000014
 20
54.0
 10
71.0
 20
54.0
 10
71.0
 20
46.999999999999993
 10
68.000000000000014
 20
46.999999999999993
 10
68.0
 20
40.999999999999993
 10
71.0
 20
40.999999999999993
 10
71.0
 20
33.999999999999993
  0
ENDSEC
  0
SECTION
  2
OBJECTS
  0
DICTIONARY
  5
C
100
AcDbDictionary
280
0
281
1
  3
ACAD_GROUP
350
D
  3
ACAD_LAYOUT
350
1A
  3
ACAD_MLINESTYLE
350
17
  3
ACAD_PLOTSETTINGS
350
19
  3
ACAD_PLOTSTYLENAME
350
E
  3
AcDbVariableDictionary
350
1AD
  3
QCAD_OBJECTS
350
1AE
  0
DICTIONARY
  5
D
100
AcDbDictionary
280
0
281
1
  0
ACDBDICTIONARYWDFLT
  5
E
100
AcDbDictionary
281
1
  3
Normal
350
F
100
AcDbDictionaryWithDefault
340
F
  0
ACDBPLACEHOLDER
  5
F
  0
DICTIONARY
  5
17
100
AcDbDictionary
280
0
281
1
  3
Standard
350
18
  0
MLINESTYLE
  5
18
100
AcDbMlineStyle
  2
STANDARD
 70
0
  3

 62
256
 51
90.0
 52
90.0
 71
2
 49
0.5
 62
256
  6
BYLAYER
 49
-0.5
 62
256
  6
BYLAYER
  0
DICTIONARY
  5
19
100
AcDbDictionary
280
0
281
1
  0
DICTIONARY
  5
1A
100
AcDbDictionary
281
1
  3
Layout1
350
1E
  3
Layout2
350
26
  3
Model
350
22
  0
LAYOUT
  5
1E
100
AcDbPlotSettings
  1

  2
none_device
  4

  6

 40
0.0
 41
0.0
 42
0.0
 43
0.0
 44
0.0
 45
0.0
 46
0.0
 47
0.0
 48
0.0
 49
0.0
140
0.0
141
0.0
142
1.0
143
1.0
 70
688
 72
0
 73
0
 74
5
  7

 75
16
147
1.0
148
0.0
149
0.0
100
AcDbLayout
  1
Layout1
 70
1
 71
1
 10
0.0
 20
0.0
 11
420.0
 21
297.0
 12
0.0
 22
0.0
 32
0.0
 14
100000000000000000000.0
 24
100000000000000000000.0
 34
100000000000000000000.0
 15
-100000000000000000000.0
 25
-100000000000000000000.0
 35
-100000000000000000000.0
146
0.0
 13
0.0
 23
0.0
 33
0.0
 16
1.0
 26
0.0
 36
0.0
 17
0.0
 27
1.0
 37
0.0
 76
0
330
1B
  0
LAYOUT
  5
22
100
AcDbPlotSettings
  1

  2
none_device
  4

  6

 40
0.0
 41
0.0
 42
0.0
 43
0.0
 44
0.0
 45
0.0
 46
0.0
 47
0.0
 48
0.0
 49
0.0
140
0.0
141
0.0
142
1.0
143
1.0
 70
1712
 72
0
 73
0
 74
0
  7

 75
0
147
1.0
148
0.0
149
0.0
100
AcDbLayout
  1
Model
 70
1
 71
0
 10
0.0
 20
0.0
 11
12.0
 21
9.0
 12
0.0
 22
0.0
 32
0.0
 14
0.0
 24
0.0
 34
0.0
 15
0.0
 25
0.0
 35
0.0
146
0.0
 13
0.0
 23
0.0
 33
0.0
 16
1.0
 26
0.0
 36
0.0
 17
0.0
 27
1.0
 37
0.0
 76
0
330
1F
  0
LAYOUT
  5
26
100
AcDbPlotSettings
  1

  2
none_device
  4

  6

 40
0.0
 41
0.0
 42
0.0
 43
0.0
 44
0.0
 45
0.0
 46
0.0
 47
0.0
 48
0.0
 49
0.0
140
0.0
141
0.0
142
1.0
143
1.0
 70
688
 72
0
 73
0
 74
5
  7

 75
16
147
1.0
148
0.0
149
0.0
100
AcDbLayout
  1
Layout2
 70
1
 71
2
 10
0.0
 20
0.0
 11
12.0
 21
9.0
 12
0.0
 22
0.0
 32
0.0
 14
0.0
 24
0.0
 34
0.0
 15
0.0
 25
0.0
 35
0.0
146
0.0
 13
0.0
 23
0.0
 33
0.0
 16
1.0
 26
0.0
 36
0.0
 17
0.0
 27
1.0
 37
0.0
 76
0
330
23
  0
DICTIONARY
  5
1AD
100
AcDbDictionary
281
1
  3
DIMASSOC
350
1B0
  3
HIDETEXT
350
1AF
  0
DICTIONARYVAR
  5
1AF
100
DictionaryVariables
280
0
  1
2
  0
DICTIONARYVAR
  5
1B0
100
DictionaryVariables
280
0
  1
1
  0
DICTIONARY
  5
1AE
100
AcDbDictionary
281
1
  3
ColorSettings/BackgroundColor
350
1B1
  3
ColorSettings/ColorMode
350
1B2
  3
Grid/DisplayGrid00
350
1B3
  3
Grid/DisplayGrid01
350
1B4
  3
Grid/DisplayGrid02
350
1B5
  3
Grid/DisplayGrid03
350
1B6
  3
Grid/GridSpacingX00
350
1B7
  3
Grid/GridSpacingX01
350
1B8
  3
Grid/GridSpacingX02
350
1B9
  3
Grid/GridSpacingX03
350
1BA
  3
Grid/GridSpacingY00
350
1BB
  3
Grid/GridSpacingY01
350
1BC
  3
Grid/GridSpacingY02
350
1BD
  3
Grid/GridSpacingY03
350
1BE
  3
Grid/IsometricGrid00
350
1BF
  3
Grid/IsometricGrid01
350
1C0
  3
Grid/IsometricGrid02
350
1C1
  3
Grid/IsometricGrid03
350
1C2
  3
Grid/IsometricProjection00
350
1C3
  3
Grid/IsometricProjection01
350
1C4
  3
Grid/IsometricProjection02
350
1C5
  3
Grid/IsometricProjection03
350
1C6
  3
Grid/MetaGridSpacingX00
350
1C7
  3
Grid/MetaGridSpacingX01
350
1C8
  3
Grid/MetaGridSpacingX02
350
1C9
  3
Grid/MetaGridSpacingX03
350
1CA
  3
Grid/MetaGridSpacingY00
350
1CB
  3
Grid/MetaGridSpacingY01
350
1CC
  3
Grid/MetaGridSpacingY02
350
1CD
  3
Grid/MetaGridSpacingY03
350
1CE
  3
MultiPageSettings/Columns
350
1CF
  3
MultiPageSettings/GlueMarginsBottom
350
1D0
  3
MultiPageSettings/GlueMarginsLeft
350
1D1
  3
MultiPageSettings/GlueMarginsRight
350
1D2
  3
MultiPageSettings/GlueMarginsTop
350
1D3
  3
MultiPageSettings/PrintCropMarks
350
1D4
  3
MultiPageSettings/Rows
350
1D5
  3
PageSettings/OffsetX
350
1D6
  3
PageSettings/OffsetY
350
1D7
  3
PageSettings/PageOrientation
350
1D8
  3
PageSettings/PaperHeight
350
1D9
  3
PageSettings/PaperWidth
350
1DA
  3
PageSettings/Scale
350
1DB
  3
PageSettings/ShowPaperBorders
350
1DC
  3
UnitSettings/PaperUnit
350
1DD
  3
ViewportCenter
350
1DE
  3
ViewportHeight
350
1DF
  3
ViewportWidth
350
1E0
  0
XRECORD
  5
1B1
330
1AE
100
AcDbXrecord
280
1
1000
White
  0
XRECORD
  5
1B2
330
1AE
100
AcDbXrecord
280
1
1000
FullColor
  0
XRECORD
  5
1B3
330
1AE
100
AcDbXrecord
280
1
290
1
  0
XRECORD
  5
1B4
330
1AE
100
AcDbXrecord
280
1
290
1
  0
XRECORD
  5
1B5
330
1AE
100
AcDbXrecord
280
1
290
1
  0
XRECORD
  5
1B6
330
1AE
100
AcDbXrecord
280
1
290
1
  0
XRECORD
  5
1B7
330
1AE
100
AcDbXrecord
280
1
1000
auto
  0
XRECORD
  5
1B8
330
1AE
100
AcDbXrecord
280
1
1000
auto
  0
XRECORD
  5
1B9
330
1AE
100
AcDbXrecord
280
1
1000
auto
  0
XRECORD
  5
1BA
330
1AE
100
AcDbXrecord
280
1
1000
auto
  0
XRECORD
  5
1BB
330
1AE
100
AcDbXrecord
280
1
1000
auto
  0
XRECORD
  5
1BC
330
1AE
100
AcDbXrecord
280
1
1000
auto
  0
XRECORD
  5
1BD
330
1AE
100
AcDbXrecord
280
1
1000
auto
  0
XRECORD
  5
1BE
330
1AE
100
AcDbXrecord
280
1
1000
auto
  0
XRECORD
  5
1BF
330
1AE
100
AcDbXrecord
280
1
290
0
  0
XRECORD
  5
1C0
330
1AE
100
AcDbXrecord
280
1
290
0
  0
XRECORD
  5
1C1
330
1AE
100
AcDbXrecord
280
1
290
0
  0
XRECORD
  5
1C2
330
1AE
100
AcDbXrecord
280
1
290
0
  0
XRECORD
  5
1C3
330
1AE
100
AcDbXrecord
280
1
 90
65537
  0
XRECORD
  5
1C4
330
1AE
100
AcDbXrecord
280
1
 90
65537
  0
XRECORD
  5
1C5
330
1AE
100
AcDbXrecord
280
1
 90
65537
  0
XRECORD
  5
1C6
330
1AE
100
AcDbXrecord
280
1
 90
65537
  0
XRECORD
  5
1C7
330
1AE
100
AcDbXrecord
280
1
1000
auto
  0
XRECORD
  5
1C8
330
1AE
100
AcDbXrecord
280
1
1000
auto
  0
XRECORD
  5
1C9
330
1AE
100
AcDbXrecord
280
1
1000
auto
  0
XRECORD
  5
1CA
330
1AE
100
AcDbXrecord
280
1
1000
auto
  0
XRECORD
  5
1CB
330
1AE
100
AcDbXrecord
280
1
1000
auto
  0
XRECORD
  5
1CC
330
1AE
100
AcDbXrecord
280
1
1000
auto
  0
XRECORD
  5
1CD
330
1AE
100
AcDbXrecord
280
1
1000
auto
  0
XRECORD
  5
1CE
330
1AE
100
AcDbXrecord
280
1
1000
auto
  0
XRECORD
  5
1CF
330
1AE
100
AcDbXrecord
280
1
 90
1
  0
XRECORD
  5
1D0
330
1AE
100
AcDbXrecord
280
1
 40
10.0
  0
XRECORD
  5
1D1
330
1AE
100
AcDbXrecord
280
1
 40
10.0
  0
XRECORD
  5
1D2
330
1AE
100
AcDbXrecord
280
1
 40
10.0
  0
XRECORD
  5
1D3
330
1AE
100
AcDbXrecord
280
1
 40
10.0
  0
XRECORD
  5
1D4
330
1AE
100
AcDbXrecord
280
1
290
0
  0
XRECORD
  5
1D5
330
1AE
100
AcDbXrecord
280
1
 90
1
  0
XRECORD
  5
1D6
330
1AE
100
AcDbXrecord
280
1
 40
0.0
  0
XRECORD
  5
1D7
330
1AE
100
AcDbXrecord
280
1
 40
0.0
  0
XRECORD
  5
1D8
330
1AE
100
AcDbXrecord
280
1
1000
Portrait
  0
XRECORD
  5
1D9
330
1AE
100
AcDbXrecord
280
1
 40
297.0
  0
XRECORD
  5
1DA
330
1AE
100
AcDbXrecord
280
1
 40
210.0
  0
XRECORD
  5
1DB
330
1AE
100
AcDbXrecord
280
1
1000
1:1
  0
XRECORD
  5
1DC
330
1AE
100
AcDbXrecord
280
1
290
1
  0
XRECORD
  5
1DD
330
1AE
100
AcDbXrecord
280
1
 90
4
  0
XRECORD
  5
1DF
330
1AE
100
AcDbXrecord
280
1
 40
69.421968616262475
  0
XRECORD
  5
1E0
330
1AE
100
AcDbXrecord
280
1
 40
139.21369472182596
  0
ENDSEC
  0
EOF
