<?xml version="1.0" encoding="utf-8"?>
<!-- Generator: Adobe Illustrator 16.0.0, SVG Export Plug-In . SVG Version: 6.00 Build 0)  -->
<!DOCTYPE svg PUBLIC "-//W3C//DTD SVG 1.1//EN" "http://www.w3.org/Graphics/SVG/1.1/DTD/svg11.dtd">
<svg version="1.1" id="Layer_1" xmlns="http://www.w3.org/2000/svg" xmlns:xlink="http://www.w3.org/1999/xlink" x="0px" y="0px"
	 width="640.63px" height="379.843px" viewBox="0 0 640.63 379.843" enable-background="new 0 0 640.63 379.843"
	 xml:space="preserve">
<g>
	<path fill="#A7A9AC" stroke="#000000" stroke-width="0.2835" stroke-miterlimit="10" d="M206.929,79.371h-8.504V45.354h-70.866
		v-8.504H99.212v8.504H28.346v34.017h-8.504v28.345h8.504v34.016h99.213v14.174c0,3.131,2.538,5.668,5.669,5.668h39.685
		c3.131,0,5.669-2.537,5.669-5.668v-14.174h19.842v-34.016h8.504V79.371z"/>
	<rect x="34.016" y="25.512" fill="none" width="51.023" height="17.008"/>
	<text transform="matrix(1 0 0 1 34.0156 34.0322)" font-family="'MyriadPro-Regular'" font-size="12">Sol</text>
</g>
<g>
	<path fill="#A7A9AC" stroke="#000000" stroke-width="0.2835" stroke-miterlimit="10" d="M294.804,11.339v96.378h87.874v-8.504
		h28.348v8.504h87.873V11.339H294.804z M311.812,74.918h-8.504V46.571h8.504V74.918z M490.395,74.918h-8.504V46.571h8.504V74.918z"
		/>
	<path fill="#A7A9AC" stroke="#000000" stroke-width="0.2835" stroke-miterlimit="10" d="M416.693,102.048v-8.505h-28.348v8.505
		h-87.873v87.874h204.095v-87.874H416.693z M317.48,154.691h-8.504v-28.348h8.504V154.691z M473.386,107.718h8.504v8.504h-8.504
		V107.718z M456.378,107.718h8.504v8.504h-8.504V107.718z M464.882,121.891h8.504v14.173h-8.504V121.891z M496.063,154.691h-8.504
		v-28.348h8.504V154.691z"/>
	<rect x="507.401" y="170.079" fill="none" width="76.536" height="22.677"/>
	<text transform="matrix(1 0 0 1 507.4014 178.5981)" font-family="'MyriadPro-Regular'" font-size="12">Toit</text>
</g>
<g>
	<polygon fill="#A7A9AC" stroke="#000000" stroke-width="0.2835" stroke-miterlimit="10" points="578.268,34.017 569.764,34.017 
		569.764,25.513 564.094,25.513 564.094,17.009 569.764,17.009 569.764,8.505 578.268,8.505 578.268,17.009 581.102,17.009 
		581.102,25.513 578.268,25.513 	"/>
	<polygon fill="#A7A9AC" stroke="#000000" stroke-width="0.2835" stroke-miterlimit="10" points="569.767,25.512 564.097,25.512 
		564.095,51.024 569.767,51.024 569.767,42.52 578.271,42.52 578.271,51.024 583.939,51.024 583.939,42.52 592.443,42.52 
		592.443,51.024 606.617,51.024 593.131,37.54 599.145,31.526 593.131,25.512 587.119,31.526 581.104,25.512 578.271,25.512 
		578.271,34.016 569.767,34.016 	"/>
	<polygon fill="#A7A9AC" stroke="#000000" stroke-width="0.2835" stroke-miterlimit="10" points="569.767,85.04 564.097,85.04 
		564.095,59.528 569.767,59.528 569.767,68.032 578.271,68.032 578.271,59.528 583.939,59.528 583.939,68.032 592.443,68.032 
		592.443,59.528 606.617,59.528 593.131,73.014 599.145,79.028 593.131,85.04 587.119,79.028 581.104,85.04 578.271,85.04 
		578.271,76.536 569.767,76.536 	"/>
	<polygon fill="#A7A9AC" stroke="#000000" stroke-width="0.2835" stroke-miterlimit="10" points="578.269,42.52 569.765,42.52 
		569.765,51.024 564.095,51.024 564.095,59.528 569.765,59.528 569.765,68.032 578.269,68.032 578.269,59.528 583.938,59.528 
		583.938,68.032 592.441,68.032 592.441,59.528 606.615,59.528 606.615,51.024 592.441,51.024 592.441,42.52 583.938,42.52 
		583.938,51.024 578.269,51.024 	"/>
	<rect x="561.26" y="90.708" fill="none" width="82.205" height="19.843"/>
	<text transform="matrix(1 0 0 1 561.2598 99.228)" font-family="'MyriadPro-Regular'" font-size="12">Cheminée</text>
</g>
<g>
	<path fill="#A7A9AC" stroke="#000000" stroke-width="0.2835" stroke-miterlimit="10" d="M184.252,286.299v-19.844H14.174v19.844
		H5.67v28.347h8.504v56.692h99.213v-87.874c0-3.131,2.538-5.67,5.669-5.67h39.685c3.131,0,5.669,2.539,5.669,5.67v87.874h19.842
		v-56.692h8.504v-28.347H184.252z M82.206,325.984H42.52v-36.85c0-3.132,2.538-5.67,5.669-5.67h28.348
		c3.131,0,5.669,2.538,5.669,5.67V325.984z"/>
	<polygon fill="#A7A9AC" stroke="#000000" stroke-width="0.2835" stroke-miterlimit="10" points="462.047,274.961 462.047,255.118 
		291.969,255.118 291.969,274.961 283.465,274.961 283.465,303.308 291.969,303.308 291.969,360 362.835,360 362.835,351.496 
		391.182,351.496 391.182,360 462.047,360 462.047,303.308 470.551,303.308 470.551,274.961 	"/>
	<polygon fill="#A7A9AC" stroke="#000000" stroke-width="0.2835" stroke-miterlimit="10" points="289.134,286.298 289.134,266.456 
		269.651,246.999 275.665,240.985 255.621,220.94 249.607,226.954 232.441,209.762 215.275,226.954 209.261,220.94 189.216,240.985 
		195.23,246.999 175.749,266.456 175.749,286.298 184.252,286.298 184.252,314.645 175.749,314.645 175.749,371.338 
		218.267,371.338 218.267,362.833 246.615,362.833 246.615,371.338 289.134,371.338 289.134,314.645 280.63,314.645 280.63,286.298 
			"/>
	<polygon fill="#A7A9AC" stroke="#000000" stroke-width="0.2835" stroke-miterlimit="10" points="576.185,294.803 576.185,274.96 
		556.703,255.503 562.717,249.49 542.672,229.445 536.658,235.458 519.492,218.267 502.326,235.458 496.313,229.445 476.268,249.49 
		482.281,255.503 462.8,274.96 462.8,294.803 471.304,294.803 471.304,323.15 462.8,323.15 462.8,379.843 505.318,379.843 
		505.318,371.337 533.666,371.337 533.666,379.843 576.185,379.843 576.185,323.15 567.681,323.15 567.681,294.803 	"/>
	<path fill="#A7A9AC" stroke="#000000" stroke-width="0.2835" stroke-miterlimit="10" d="M136.063,297.638h-2.834
		c-3.132,0-5.67,2.539-5.67,5.67v39.685c0,3.132,2.538,5.669,5.67,5.669h2.834v-5.668l8.504-0.001v5.669h2.835
		c3.132,0,5.669-2.538,5.669-5.67v-39.684c0-3.132-2.537-5.67-5.669-5.67h-2.835v5.669l-8.504,0.001V297.638z"/>
	<rect x="53.858" y="249.449" fill="none" width="73.701" height="19.842"/>
	<text transform="matrix(1 0 0 1 53.8584 257.9683)" font-family="'MyriadPro-Regular'" font-size="12">Murs</text>
</g>
</svg>
